<?xml version="1.0" encoding="utf-8"?>
<!-- Generator: Adobe Illustrator 19.1.0, SVG Export Plug-In . SVG Version: 6.00 Build 0)  -->
<svg version="1.1" id="Calque_1" xmlns="http://www.w3.org/2000/svg" xmlns:xlink="http://www.w3.org/1999/xlink" x="0px" y="0px"
	 viewBox="0 0 983 456" style="enable-background:new 0 0 983 456;" xml:space="preserve">
<style type="text/css">
	.st0{display:none;fill:#F7B5AC;}
	.st1{fill:#F7B5AC;}
	.st2{fill:#EB5C5F;}
	.st3{fill:#84B974;}
	.st4{fill:#010202;}
	.st5{fill:#AB7613;}
	.st6{fill:#C0BFBF;}
	.st7{fill:#6FA4C3;}
	.st8{fill:#1E1E1C;}
	.st9{fill:none;}
	.st10{fill:none;stroke:#EB5C5F;stroke-width:3;stroke-miterlimit:10;}
	.st11{fill:none;stroke:#6FA4C3;stroke-width:3;stroke-miterlimit:10;}
	.st12{fill:none;stroke:#84B974;stroke-width:3;stroke-miterlimit:10;}
	.st13{fill:none;stroke:#C0BFBF;stroke-width:3;stroke-miterlimit:10;}
	.st14{fill:none;stroke:#F7B5AC;stroke-width:3;stroke-miterlimit:10;}
</style>
<g>
	<path d="M979.8,255.2c-5-0.1-10.1-0.1-15.1-0.2c-13.9-0.5-27.7,0.3-41.5,1.1c-10.4,0.6-20.7,1.7-31.1,2.2
		c-12.2,0.5-24.5,0.7-36.7,0.9c-2.8,0.1-5.6-0.1-8.4-0.1c-5.3,0-10.7,0.2-16,0.2c-5.8,0-11.7-0.1-17.3-0.2c0.1-4.2,0.3-8.5,0.1-12.7
		c-0.5-13.6,1-27.1,1.5-40.7c0.4-11.4,1.1-22.8,1.7-34.3c0.1-1.2,0.2-2.4,0.2-3.6c0-4.7,0.2-9.3-0.1-14c-0.4-8.4-1.2-16.7-1.7-25.1
		c-0.5-8.8-2.5-17.2-8.1-24.2c-3-3.9-6.5-7.4-10.1-10.8c-5.6-5.3-11.2-10.7-17.9-14.6c-10.3-5.9-21.4-9.3-33-11.4
		c-4.8-0.8-9.5-1.3-14.3-0.7c-2,0.3-4,0.3-6,0.6c-5.9,0.9-12,1.3-17.6,3c-7.1,2.1-14.1,4.9-20.7,8.3c-12.8,6.7-23.3,15.9-30.3,29.2
		c-4.1,7.8-4.6,15.8-4.8,24c-0.2,11,0.9,22.1,0.9,33.1c0,13.3-0.9,26.6,0.1,40c0.7,9.2,0.5,18.4,0.8,27.6c0,0.7,0,1.3,0.1,2
		c0.1,7.4,0.3,14.9,0.4,22.3c-0.7,0.2-1.1,0.4-1.5,0.4c-6.7,0.1-13.3,0.3-20,0.3c-6.8,0-13.6-0.3-20.4-0.4c-3.2-0.1-6.3-0.1-9.5,0.1
		c-5.8,0.3-11.7,0.8-17.5,1.3c-1.9,0.2-3.8,0.6-6.1,0.9c0-1.9,0-3.2,0.1-4.5c0.1-4.7,0.3-9.3,0.3-14c0-6.4-0.3-12.8-0.3-19.1
		c0-3.3,0.4-6.6,0.3-9.9c-0.1-10.8-0.5-21.6-0.6-32.4c-0.1-15.9-0.1-31.7-0.2-47.6c-0.1-9.3-0.2-18.7-0.4-28
		c-0.1-4.8-0.4-9.5-0.2-14.3c0.3-6.5,0-13.1-0.2-19.6c-0.1-6.4-0.4-12.7-0.5-19.1c-0.1-7.8-0.9-15.2-8.5-19.7
		c-0.1-0.1-0.2-0.2-0.3-0.3c-5.6-4.6-11.6-8.4-18.5-11c-6.5-2.5-12.8-5.3-19.2-7.8c-3.8-1.5-7.6-3.2-11.6-4.3
		c-6.6-1.8-13.5-2.9-20.1-4.7C487,0,473.4-0.7,459.7,0.7c-4.2,0.4-8.4,1-12.6,1.6C438,3.6,429,5.4,420.3,8.5
		c-12.1,4.3-23.2,10.6-33.6,18c-3,2.2-5.9,4.6-8.9,6.8c-4.9,3.4-8.1,8.2-9.7,13.7c-1.5,5.1-2.4,10.4-2.9,15.7
		c-0.8,8.3-1,16.8-1.5,25.1c0,0.8-0.1,1.6-0.1,2.4c-0.2,6.4,0.2,33.3,0.3,40.3c0.2,6.8-0.1,13.6,0.1,20.4
		c0.2,10.8,0.6,21.6,0.9,32.4c0.2,8.5,0.5,17,0.8,25.6c0.3,8.2,0.7,16.5,0.8,24.7c0.2,9,0.2,18.1,0.3,27.3
		c-6.7,0.2-13.4,0.5-20.2,0.5c-12,0-24-0.3-35.9-0.4c-1.9,0-2.7-0.8-2.7-2.6c0-3.9-0.1-7.7-0.1-11.6c0-4.9,0.4-9.9,0.2-14.8
		c-0.3-8.4-1.2-16.8-1.4-25.1c-0.3-13.1,0.2-26.1-0.3-39.2c-0.3-7.8-0.6-15.7-4-23c-1.1-2.4-2.4-4.8-3.4-7.2
		c-2.4-5.7-6.5-10.1-11-14.1c-6.7-5.9-14.6-10.2-22.3-14.6c-5.2-3-10.5-5.8-16.3-7.2c-2.7-0.7-22.5-4.6-29.8-3.9
		c-5.4,0.5-10.7,2.1-16,3.1c-9.5,1.7-18,5.6-25.8,11.1c-8.9,6.3-17.1,13.3-24.3,21.7c-5.5,6.4-8.2,13.3-8.4,21.3
		c-0.1,7.3,0.1,14.7,0.2,22c0.1,11.3,0.3,22.6,0.3,33.9c0,9.5-0.1,19-0.1,28.4c0,3.1,0.3,6.1,0.3,9.2c0,4.4-0.1,8.8-0.2,13.4
		c-1.4,0-2.7,0.2-4,0.1c-8.1-0.3-16.2-0.6-24.4-0.8c-6.5-0.2-13-0.4-19.5-0.5c-5.5-0.1-11.2,0.3-16.6-0.4
		c-10.6-1.4-63.6,0.7-79.4,0.9c-0.6,0-1.2,0.1-1.8,0.2c0,3.8,0.2,4.1,2.3,4c8.5-0.2,17-0.5,25.4-0.6c9.8-0.2,19.6-0.3,29.4-0.4
		c7.7,0,15.5,0.1,23.2,0.2c11.1,0.1,22.1,0.2,33.2,0.5c10.5,0.2,21,0.8,31.5,1c3.3,0.1,6.6-0.7,9.8-0.8c5.9,0,11.9,0.2,17.8,0.3
		c3.9,0.1,7.9,0.1,11.8,0.2c1.6,10,6.7,18.5,16.7,25c-0.4,0.5-0.8,1.1-1.2,1.5c-2.9,2.2-5.8,4.2-8.6,6.4c-4.4,3.3-8,7.4-11.2,11.9
		c-1.7,2.4-2.1,5.1-1.2,8c1.3,4,4.8,5.5,8.5,3.6c4-2,14.6-12.5,14.4-15.7c0.4,8,2.2,15.3,6.3,21.6c-4.4,5.7-7.3,11.9-8.2,18.9
		c-0.9,6.4,0,12.8,1.8,18.9c1.4,5.1,5.4,8.5,9.5,11.4c1.7,1.2,2.2,2.3,1.8,4.3c-1.1,4.9-2,9.9-2.9,14.9c-0.2,0.9-0.2,1.9-0.2,2.8
		c0.1,2.3,1.1,2.9,3,1.8c1.7-1,3.5-3.5,4.9-3.3c1.4,0.2,2.7,6.9,5.5,6.9c2.7-0.1,3.2-13.1,5.9-19.2c3.4,0.3,6.7,0.3,9.9,1
		c6,1.3,11.9,0.9,17.7-0.6c1.5-0.4,3-0.7,4.8-1.1c0.2,6.3-1,18.1,1.8,18.1c1.8,0,4.3-4.7,5.6-6.8c1.9,1.6,3.6,3.3,5.6,4.6
		c2.6,1.7,4,0.9,4.2-2c0.4-4.6-0.2-9-1.3-13.5c-0.3-1.4-1.1-2.8-1.1-4.1c-0.1-4.1,0.7-7.9,3.3-11.3c3-3.9,4.6-8.2,4.6-13.3
		c0-4.4-0.9-8.4-2.5-12.4c-0.9-2.2-1-4,1.1-5.7c2.4-1.9,3.4-4.7,4-7.6c0.3-1.3,0.7-2.5,1-3.6c4.2-0.4,5.8-1.7,6.6-4.9
		c0.9-3.4-1.5-5.6-3.3-8.5c1.1-0.1,2-0.3,2.2-0.1c0.6,0.7,0.9,1.6,1.3,2.4c1.4,2.3,6,3.4,8.1,1.7c0.5-0.4,0.9-1.3,0.9-2
		c0.2-3.1-1.7-5.9-4.7-7.2c-0.8-0.3-1.5-0.8-2.3-1.1c2.5-5.6,4.2-6.6,10.1-6.5c1.7,0,2.5-1.1,1.9-2.6c-0.7-2-2.4-2.9-4.9-2.2
		c-5.2,1.4-9.2,4.1-10.3,9.9c-0.2,1-0.9,2-1.6,2.7c-1.8,1.7-3.4,3.2-5.5,4.8c-1.5-3.4-3.1-6.7-4.6-10.1c1.2-0.3,2.3-0.5,3.5-0.7
		c3.1-0.6,4.5-2.7,5.1-5.5c0.5-2.6-1.5-3.9-3.2-5c-2.3-1.5-4.9-2.7-7.2-4c2.8-8,1.4-15.5-2.8-23.3c1.2,0.5,1.6,0.7,2.1,0.9
		c4.2,1.6,8.4,3.6,13.1,3.2c2-0.2,4-0.3,5.1-2.5c0.3-0.6,0.4-1.2,0.5-1.8c2.7,0.1,5.3,0.2,8,0.3c7.6,0.2,15.2,0.3,22.8,0.3
		c14.7,0,29.4-0.1,44.1-0.1c6.2,0,12.5-0.4,18.7-0.2c8,0.3,15.9,1.2,23.9,1.3c0.1,0,0.2,0,0.2,0c-1.6,0.4-3.5,0.5-5.6,2.2
		c-2.1,1.7-2.6,9.6-3.3,15.1c-0.6,4.8,0.3,16,0.3,16.9c0.1,3.2,0.3,6.4,0.3,9.6c0,1.7-0.2,3.1-1.9,4.4c-2.8,2.2-5.1,5-6.2,8.6
		c-2.5,7.8-2.9,15.9-2.9,24.1c0,7.6,0.3,15.2,0.4,22.7c0.1,6.1,0,12.3,0.1,18.4c0.1,3,0.6,6.1,0.8,9.1c0.6,8.3,1,16.7,1.6,25
		c0.2,2.8,0.5,5.6,0.7,8.4c0.5,7.2,1,14.3,1.6,21.5c0.1,1,0,4,3,3.9c3-0.1,3.5-1.5,3.4-2.5c-0.9-8.9-2-17.7-2.9-26.6
		c-0.2-1.8,0.1-3.6,0.2-5.4c2.5-0.2,4.6-0.3,6.9-0.4c0.2,3.1,0.4,6.1,0.7,9.1c0.3,2.9,0.7,5.8,1.4,8.7c0.1,0.6,1.1,1.3,2,1.3
		c0.9,0,1.1-1,1.2-1.7c0.2-1,0-2.1-0.1-3.2c-0.2-4.8-0.4-9.5-0.6-14.4c13.5-0.3,26.5-0.6,39.1-0.9c2.8,9.7,5.6,18.9,8.1,28.1
		c0.7,2.6,3,5,4.6,5c1.5,0,3-2.6,3.5-4.8c0.9-3.8,1.8-7.7,3.3-11.3c1.9-4.6,3.5-9.1,4.1-14.1c0.1-1.2,0.5-2.3,0.8-3.7
		c11.4-0.4,22.7-0.8,34.2-1.3c0.5,5,1,9.6,1.5,14.2c0.2,1.8,1,4.2,2.8,4.2s1.2-4.3,0.9-6.7c-0.4-3.9-0.5-7.9-0.8-12.1
		c3.6,0.2,6.8-0.8,9.5,0.7c0.3,9,0.6,17.6,0.9,26.2c0.1,1.7,0.5,3.8,2.4,3.8c1.9,0,2.9-2,3-3.9c0.2-3.2,0.3-6.3,0.2-9.5
		c0-3.6-0.1-7.2-0.2-10.8c-0.1-3.1-1.3-14.7-1.5-17.4c-0.2-2.7,0.2-5.3,0.2-8c0-8.2-0.1-16.5-0.2-24.7c-0.1-7.9,0.1-15.7-0.4-23.6
		c-0.6-8.9-3-35.1-3.2-38.6c-0.4-6.8-0.8-13.6-0.8-20.3c0-8.4-1.4-16.4-4.8-24c0.6-1.1,1.4-2,1.8-3.1c0.1-0.3,0.3-0.6,0.4-0.9
		c4.9,0,9.8,0,14.7,0c6.3,0,12.7,0.4,19,0.5c4.6,0.1,9.3,0.3,13.9,0.1c6.5-0.2,13-0.9,19.5-1c12.5-0.2,25-0.3,37.5-0.3
		c15.8,0,31.7,0,47.5,0c0.2,0.6,0.6,1.1,0.9,1.4c1.3,1.1,4,0.9,6.3-0.8c0.3-0.2,0.6-0.4,0.9-0.7c2.8,0,5.5,0,8.3,0
		c0.5,0,0.9,0,1.4,0c0.4,0.2,0.7,0.4,1.1,0.7c-1.4,2.2-2.8,4.3-4.2,6.5c-4.6,0.7-9.8,5.1-9.9,9.3c-0.2,6.5,0.1,12.9,5.5,17.5
		c-2,2.6-4,5.1-5.8,7.7c-1.6,2.3-1.4,4.8-0.2,7.2c0.8,1.8,2,2.8,4.1,2c2-0.8,4-2.5,5.7-2.1c1.6,0.4,0.8,4.9,3.1,7.7
		c0.9,1-0.9,3.1-1.1,4.9c-0.2,1.8-0.2,3.6-0.2,5.4c-2.8-0.1-5.3-0.5-7.8-0.2c-4.4,0.6-9.2,5.2-9.2,8.8c0,4.9,0.8,9.6,5.2,12.7
		c0.7,0.5,1.4,1.1,1.6,1.3c-0.8,3.4-2.2,6.4-2,9.2c0.5,6.8,3.2,12.3,10.4,14.6c3.5,1.1,6.7,1.9,9.6-1.2c0.3-0.4,0.9-1.5,1.2-1.6
		c0.8,2.1,1.5,5,2.2,7c0.4,1,0.9,2,1,3c1,6,1.9,12.1,2.7,18.1c0.2,1.6,0.4,1.4,0.7,3c0.2,1.3,5.1,0.6,8.1-0.2
		c2.8-0.7,6.8-0.9,6.7-3.6c-0.3-3.8-1.7-17.2,3.1-20.1c5,5.4,7.9,7.7,17,8.3c0.1,2.7,1.2,14.1,2.6,16.6c0.5,0.8,5.8,1.9,9.2,1.2
		c3.1-0.6,6.3,0,6.1-3c-0.3-6.5-0.4-13-0.8-19.5c-0.1-1.5,0.4-2.3,1.4-3c2.4-1.8,3.5-4.4,3.6-7.1c0.1-1.5,0.4-4.6-0.7-5.2
		c1.8,1,5.5,1.1,8,0.7c13.2-2,16.7-13.7,12.2-23.3c-2.2-4.8-6-8-10.6-10c-0.1-0.4-0.2-0.5-0.2-0.7c0.1-0.9,0.1-1.9,0.2-2.8
		c0.7-7.6-1.2-14.2-7.4-19.2c-2-1.6-1.9-2.4-0.1-5c2.4,2,4.8,4.2,7.3,6.1c2.5,1.8,5.1,1.9,6.6,0.7c2.3-1.9,3.2-4.7,2.3-7.6
		c-1.1-3.3-2.4-6.4-4.9-9c-3-3.2-5.6-6.7-8.4-10.1c0.5-1.6,1.3-3.1,1.5-4.6c0.2-1.6-0.1-3.2,0-4.8c0.1-1,0.6-1.9,1.1-2.8
		c1.8-3.4,1.6-8.1-0.3-11.6c2.7,0,5.4,0.1,8.1,0.1c0.9,0,1.9,0,2.8,0c8.4-0.4,16.7-1,25.1-1.2c11.7-0.2,23.5-0.1,35.2-0.2
		c3.5,0,6.9,0.1,10.4,0c11.9-0.3,23.9-0.7,35.8-0.9c10.1-0.2,20.2,0,30.3-0.1c6,0,12-0.3,18-0.4c11.2-0.2,22.4-0.2,33.5-0.4
		c1,0,2.1-0.2,3.1-0.7c1.9-0.9,3.7-2,5.5-3.1c0.6-0.4,1-1,1.8-1.9C981.6,255.5,980.7,255.2,979.8,255.2z M296.4,311.4
		c0.7-2,4.6,1.3,4.4,3.3C300.6,316.7,295.3,314.7,296.4,311.4z M289.9,318.6c2.6-0.2,1.8,4.5-0.8,4
		C287.4,322.3,288.6,318.7,289.9,318.6z M243.5,224.4c1.5,0,4.2,1.5,3.4,2.6c-0.7,1-3.4-0.8-4.2-1.7C243,225,242,224.4,243.5,224.4z
		 M207.4,197.7c7-2.1,19-6.1,20.1-2.7c0.9,2.7-6.7,4.2-10.7,3.7c-3.1-0.4-5.5,0-9.5,0V197.7z M166.8,229c-0.4,0.5-1,0.9-1.6,1.1
		c-0.7,0.2-1.7,0.5-2.2,0.2c-0.5-0.3-0.3-2.2,0.2-2.8c2.7-3.1,5.6-6,8.6-8.9c1.4-1.3,3-2.4,4.5-3.5c0.3,0.4,0.7,0.7,1,1.1
		C173.8,220.5,170.3,224.7,166.8,229z M183.1,244.8c-7.1-8.6-8-13.2-4.4-22.9c0.7-1.8,1.3-3.8,2.4-5.4c5.4-7.4,12.4-12.4,21.7-13.3
		c10.8-1,19.9,2.2,26,11.8c0.5,0.7,0.8,1.6,1.5,3.1c-10.6-2.3-20.1-1.1-29.2,4.1C192,227.3,186,234.7,183.1,244.8z M183,319
		c-1.6-0.7-0.7-4.7,0.6-6.6c4.9-6.6,10.8-12,17.7-16.4c0.2-0.1,0.4-0.1,0.7-0.1C199.5,306.2,190.1,317.7,183,319z M192.5,276.7
		c-2.1-3.6-3.5-7.2-4.3-11c-0.3-1.4-0.4-2.7-0.5-4.1c-0.2-3.6-1.4-9.1-0.2-13c2.3-7.2,6.1-14.2,12-18.5c6-4.4,14.1-6.9,22-7.1
		c3.9-0.1,7.6,1.2,11.4,2.4c1.8,0.5,3.3,1.1,4.6,2.7c1.3,1.5,3.4,2.4,5.4,3.7c-2.2,1.1-4.3,2.1-6.4,3.1c-0.8-1.4-1.3-2.8-2.2-3.9
		c-1.6-1.9-3.6-2.2-5.8-1.2c-1.4,0.7-2.2,2.7-1.8,4.8c0.2,1.2,0.6,2.3,1,3.7c-0.7,0.1-1.3,0.1-1.9,0.2c-0.5,0-1,0-1.4,0.1
		c-1.2,1.2-0.5,3.5,1.2,3.9c2.5,0.6,4.7-0.1,6.9-1.3c4.6-2.4,9.2-4.6,14-6.9c2.6,4.1,4.8,7.9,4.8,12.7c-5.5-0.9-10.8-0.7-16,0.4
		c-4.3,0.9-8.5,2.1-12.8,3c-3.4,0.7-6.8,0.7-10.1,1.5c-6.5,1.6-12.2,5-17.1,9.6c0,0-0.1,0-0.1,0.1c-0.8,0.7-2.6,3.6-2.9,4.1
		c-0.7,1.3-1.1,2.6,0.1,3.8c1.6,1.7,3.6,3.6,6.6,2.8c2.9-0.8,5.8-1.6,8.3-3.3c0.5-0.3,1.4-0.3,1.6-0.9c-1.5,5.5-1.5,11.2-0.6,16.6
		c0.3,1.5-2.7,1.8-4.2,2.8C198.5,285.4,195.3,281.3,192.5,276.7z M232.7,234.6c-0.1,0.8-1.4,0.8-1.9,0.8c-0.3,0-1.1-0.2-0.9-1
		c0.1-0.9,1-0.8,1.5-0.9C231.7,233.4,232.4,233.6,232.7,234.6z M216,258.2c-1.6,0.9-3.1,2-4.6,3c-2.2,1.6-4.4,3.1-6.7,4.4
		c-2.2,1.2-5.8,2.3-7.4,2.6c-1.6,0.3-0.9-2.8,1.3-4.6c2.2-1.8,3.1-2.6,6.9-4.2C209.4,257.9,211.7,258.1,216,258.2z M205.9,305.5
		c-1-10,7-17.4,16-19.9c6.6-1.9,12.9-0.5,19.2,0.9c4.7,1,9.1,2.7,13.2,5.4c3.4,2.2,5.7,5.1,7,8.9c1.5,4.2,3.3,8.5,2.8,13.1
		c0,0.4-0.1,0.8-0.2,1.2c-0.1,0.2-0.3,0.4-0.6,0.6c-9.7-6-20.1-6.2-30.9-4c-5.9,1.2-11.4,2.9-16.5,6.1c-2.2,1.4-5.6,4.8-6.5,4.1
		C207.4,320.5,206.5,311,205.9,305.5z M223.2,398.6c-0.4,1.3-0.6,1.6-1.2-0.6c-0.7-2.3-2-8.2-3.2-8.2s-3.3,4.5-4.1,5.5
		c-0.8,1,0.2-6,0.7-9.1c3.1,0.6,6,1.2,9.5,1.9C224.3,391.6,223.8,395.1,223.2,398.6z M275.4,396.5c-0.9,0-7-6.8-7.9-6.8
		s-2.2,6.3-2.8,6.3s0.4-6.5,0.5-8.9c3.1-1.6,5.8-3,8.6-4.5C275.6,386.8,276.7,391.3,275.4,396.5z M278.6,365.3
		c-7.9,12.5-19.6,17.2-34.5,17.8c-5.7-1-12.2-1.5-18.4-3.3c-5.7-1.6-11.1-4.3-15.6-8.4c-4.4-4.1-5.8-9.5-6.3-15.1
		c-0.8-7.9,0.7-15.3,5-22.2c2.4-3.8,5.5-7,9.1-9.4c6-4,11.8-6.6,19.1-8.3c5.4-1.2,11-0.8,13.8-0.5c7.3,0.7,13,6.1,14.6,7.7
		c8.3,8.3,13.6,18.4,15.8,29.8C281.8,357.4,280.9,361.5,278.6,365.3z M265.1,296.9c0.9,0.5,1.5,0.9,2.2,1.2
		C265.8,299.1,265.8,299.1,265.1,296.9z M282.7,314.5c-9.1,3.2-6.7,9.3-6.1,10.7s3.1,0.2,2.6-1.6c-0.8-2.7,0.9-3.2,2.6-4
		c0.6-0.3,1.2-0.4,2-0.8c0.7,6.6,0.7,12.6-4,17.5c-4-5.4-7.9-10.7-12-16.3c0.1-4,0.4-10.9,0.5-13.3c0.1-2.4,4.3-6.1,5.7-5.8
		s2.3,2.3,3.4,3.7C279.8,307.7,281.5,310.8,282.7,314.5z M286.7,296.8c-1.7,2-3.7,2.2-5.8,1.8c-0.9-0.2-1.8-0.5-2.6-0.8
		c-4.3-1.8-8.6-3.5-12.8-5.4c-1-0.4-1.9-1.1-2.9-1.7c0.2-0.4,0.3-0.7,0.5-1.1C271,291.5,279.5,291.1,286.7,296.8z M277.4,282.6
		c-0.6,3.3-2.3,4.5-5.5,4c-7-1-13.9-1.8-20.9-3c-5.1-0.8-10.2-2.1-15.2-3.1c-7.4-1.5-14.5-1.4-21.4,3c-2.5-6.7-1.7-13.1,1.9-18.3
		c1-1.5,2.3-2.9,3.8-4.1c0.4-0.3,0.8-0.7,1.3-1c4.2-3.1,9-4.8,13.9-5.6c7.9-1.3,15.8-0.8,23.7,1.2c3.6,0.9,6.6,2.5,9.1,4.5
		c1.5,1.2,2.7,2.5,3.9,4.1c1.8,2.5,3.2,5.4,4.3,8.6C277.3,276,278.1,279.2,277.4,282.6z M278.7,260c-1.2-0.7-2.3-1.6-3.4-2.4
		c4.8,0.3,9.7,0.3,14,2.4c1.6,0.8,3,1.9,4.4,3.5C287.9,264.5,283.1,262.8,278.7,260z M522.1,147c-0.1,1.9-0.1,3.6-0.3,5.4
		c-0.3,3.3-1.1,6.6-1.1,9.9c-0.1,3.9-1.7,6.9-4.6,9.3c-1.1,0.9-2.2,1.8-3.4,2.7c-2.8-9-2.8-9-11.1-15.7
		C504.2,155.2,509.9,151.9,522.1,147z M434.8,279.7c0.5-6,3.4-14.3,8.8-16.4c5.3-2.2,12.6-2.3,18.1-2.4c0.6,5.5,1,13.9,1.9,19
		c0.5,3.1,1.6,6.2,3,9c1.9,3.9,5.5,5.4,9.7,4.7c2.6-0.4,4.3-2.3,5.3-4.5c1.2-2.8,2.2-5.7,2.8-8.7c1.1-5.3,2-14.2,2.9-20
		c1.5,0.2,10.1,1.2,12.4,2.2c5.4,2.4,7.6,4.4,8.4,9.6c0.7,4.2,0.8,8.4,1.1,12.7c0.1,1.8,0.1,3.7,0.2,6.1c-6.2-3.1-10.5-0.8-13.5,4.2
		c-8.9-0.7-12.4,1.4-14.5,8.9c-3.1,0.2-6.2,0.6-9.3,0.6c-7.6,0-26.4,0.2-28.2,0.4c-2.7,0.3-5.5,0.5-8.2,0.8
		C434.2,296.9,434,288.3,434.8,279.7z M432.2,265c-1.6,2.5-2.6,5.2-3.1,8.3c-1.3-1.9-2.1-3.3-3.4-5c-1.3-1.7-1.5-5.2-1.3-7.1
		c0,0,0-0.1,0-0.1c0.3-2.2,0.5-4.4,0.8-6.6c0.4-2.8,0.9-5.5,1.1-8.3c0.3-2.8,0.3-5.5,0.4-9c6.5,5.8,13.5,10.3,16.1,18.5
		c-2.9,1.6-5.2,3.2-7.2,5.1C434.3,262.1,433.1,263.5,432.2,265z M502.3,253.2c-0.8,1.1-1.6,2.1-2.6,3.4c-6.7-2.8-13.9-1.3-21.2-2.1
		c0-3.7,0-7.1,0-10.6c0-2.6-1.3-5.3-3.2-4c-1.9,1.3-0.5,9.2-0.4,14c-1.6-0.1-3-0.1-4.9-0.2c-0.1-3-0.3-5.7-0.4-8.4
		c0-2.1-0.5-4.3-2.5-3.8c-2,0.5-1,8-0.9,12.2c-6.8,0-13.5-0.6-20.2,1.4c-1.4-2.5-2.9-5.2-4.5-8.1c8.1-0.3,10.8-3.4,11-9.9
		c1.5-0.8,2.9-1.7,4.5-2.3c4.5-1.9,5.8-5.1,3.9-10.1c-1.3-3.4-3.3-6.6-5.2-10.1c1.6-1,30.4,0.1,34.9,1c6.5,1.2,8.5,6.8,10.8,13.9
		c-5.9-2.2-10.4-0.9-13.7,3.8c-2.3,3.2-1.2,6.9,3.9,12.7c-0.9,7,2.8,9.1,11.3,5.9C502.8,252.4,502.6,252.8,502.3,253.2z
		 M498.3,211.5c-1.9-1.1,2-3.9,3.6-5.1c5.3-4.1,11.6-6.4,17.8-8.8c0.5-0.2,1,0,1.8,0c0.6,10.8-4.6,23.7-12,29.5
		C508.7,224.9,504,214.8,498.3,211.5z M467.5,165.5c2.6-0.2,13.7-1.4,16.1-0.4c0.1,1.5,0.1,3.1,0.2,4.7c0.2,2.7,0.8,5.1,2.8,7.2
		c2.5,2.6,2.2,4.5-0.2,7.3c-3.7,4.3-3.6,6.8,0.1,11.1c2.8,3.3,5.8,5.8,10.5,5.3c0.9-0.1,1.8,0.3,3.3,0.6c-2.5,2.8-4.7,5.2-6.9,7.6
		c-2.6-0.2-5.4-0.6-8.1-0.7c-2.7-0.2-5.3-0.2-8.3-0.4c-0.1-3.5-0.1-6.9-0.4-10.2c-0.2-2.7,0.1-5-2.8-4.1c-2.9,0.9-1,9.3-1.3,14.3
		c-2.4-0.4-4.4-0.7-6.3-1.1c-1.4-4.9-0.3-15.5-3.7-15.4c-3.4,0.1,0.1,10.6-0.9,15.4c-0.1,0.1-0.2,0.4-0.4,0.4
		c-4.6,0.3-9.2,0.8-13.9,0.9c-2.3,0.1-2.3-0.2-3.8-2.4c2.3-1,4.7-1.8,6.8-3.1c3.8-2.4,4.4-6.4,2.3-10.4c-1.1-2.2-1.8-4.7-2.3-7.1
		c-0.9-4.5-4.5-7.1-9.2-6.3c-1.2,0.2-2.3,0.5-4,0.8c0.6-5.3,4.2-7.8,8-9C452.6,168.1,459.9,166.2,467.5,165.5z M428.4,162.8
		c0.4-1.1,0.9-2.2,1.7-3.1c2.4-3,4.4-6,4.5-10.4c1.8,2,3.8,3.9,5.5,6.1c1.6,2.1,2.9,4.4,4.5,6.8c-7.6,1.7-11.8,6.7-14.3,14.5
		C428,171.8,426.6,167.5,428.4,162.8z M441.5,208.4c-1.3,0.4-2.3,0.9-3.4,1.1c-4,0.8-6.4,3.2-7.4,6.9c-0.8,2.7-1.4,5.4-2.1,8.3
		c-2.1-0.6-3.4-2.2-3.7-4.4c-0.6-4.1-1.4-8.2-1.3-12.2c0.2-5.5-0.4-10.8-1.8-16.1c-0.1-0.5-0.1-1-0.2-1.9
		C429.2,195.3,436,200.7,441.5,208.4z M411.5,303.2c2.8,0.1,5.5-0.4,7.6-2.8c2-2.2,3.5-4.4,1.5-7.5c4-2.7,6.8-6.4,6.2-10.9
		c-0.5-4.5-2.5-9-7.3-11.2c2.2-0.8,3.6-0.2,4.9,1.8c1.8,2.6,4.2,4.7,6.4,7.1c0,8.5,0,17.2,0,26.8c-6.6,0.7-13,1.3-19.7,2
		C411.4,306.6,411.4,305.1,411.5,303.2z M528.8,348.2c0.6,6.9,0.9,13.8,1.3,21.4c-2.3-0.7-4.2-1.2-6-1.8c-4.9-1.5-9.8-1.7-14.4,0.4
		c-5.3,2.4-7.6,5.4-5.9,11.4c0.8,2.6,0,4.7-1.8,6.6c-1.1,1.2-2.3,2.2-3.5,3.3c-4.6,3.9-7.7,8.9-9.6,14.5c-0.8,2.3-0.7,5-1.1,7.7
		c-6.4,0.6-12.7,0.2-19.3-1.5c-0.1-1.4-0.2-3-0.3-4.5c-0.3-11.8-0.9-23.7-0.9-35.5c0-5.1,0.9-10.3,1.8-15.4c0.4-2.2,1.7-5.3,3.3-6.8
		s0.8-3.2-1.8-2.6c-2.5,0.6-3.9,5-4.7,7.8c-1.1,3.7-2,7.5-2,11.3c-0.1,12.8,0.2,25.6,0.3,38.3c0,1.6-0.1,3.2-0.2,5
		c-1.4,1-2.9,2.2-4.6,3.4c-0.4,0.3-1,0.5-1.5,0.5c-3.4,0.1-6.9,0.2-10.8,0.2c0.1-3.7,0.5-7.2,0.9-10.8c0.5-4.5,0.2-8.9-4-12.2
		c-3.1-2.4-6-3-9-0.6c-2.3,1.9-4.4,3-7.7,3.1c-4.3,0.1-7.4,3.4-8.9,7.2c-0.8,2.1,0.1,5,0.4,7.4c0.3,2.1,0.9,4.1,1.5,6.8
		c-5.5,0.1-10.7,1.3-16.3,0.1c-1.5-11.5-2.4-22.9-2.1-34.5c7.1,0.3,13.4-1.4,19.3-4.7c4.7-2.6,6.7-7.2,7-12.3
		c0.2-3.4-0.1-6.9-0.6-10.3c-0.7-4.9,1.7-8.6,6.6-9.6c2.3-0.5,4.9-0.8,6.8-2c6.2-4.2,6.7-10.5,3.9-17.4c-0.6-1.6-1.7-3-2.3-4.6
		c-0.5-1.2-0.5-2.5-1-4.6c4.2,0.2,25.2-1,32.4-1c6,0,34,1,41.5,3.9c6.4,2.5,10.3,9.1,11.3,16C527.8,337.3,528.4,342.7,528.8,348.2z
		 M524.4,282.8c0.4,8.6,0.4,17.3,0.6,26c0,1.8,0.2,3.6,0.3,5.1c-3.8-1.8-7.5-3.6-11.6-5.5c-0.1-1-0.3-2.4-0.3-3.9
		c-0.1-7.7-0.3-15.4-0.3-23.2c0-1,0.3-2.2,0.9-2.9c2-2.2,4.2-4.3,6.4-6.5C523.5,274.9,524.2,278.9,524.4,282.8z M524.3,258.6
		c-0.8,1.7-1.7,3.3-2.8,4.9c-1.7,2.5-3.7,5-6,7.3c-1.3-2.8-3-5.1-5-7.3c-1.7-1.9-3.7-3.6-5.7-5.3c-0.4-0.3-0.8-0.7-1.2-1
		c2.3-2,4.4-4.1,6.7-5.6c5.6-3.7,11.4-7.1,17.3-10.7C528,247.4,526.8,253.3,524.3,258.6z M727.3,196.6c3.7,3.8,8.1,3.5,12.6,2.3
		c0.6-0.2,2.3-1.6,2.3-0.6c-0.4,5.6,8.4,8.2,12.8,6.9c1.1-0.3,2.7-0.3,3.3,0.6c3,4.1,7.2,6.2,11.6,5.8c-0.7,7-2.7,12.5-6.3,16.5
		c0.2-5-3.3-7.3-6.3-9.5c-3.1-2.3-7.2-2.4-11.2-1.4c-4.7-5-10.3-3.9-16.1-2.5c-3.5-4.5-8.1-6.5-14.1-5.6c-0.4-4.5,1.6-7.7,4.8-10.4
		c1.2-1,2.7-1.8,4.1-2.4C725.6,196.2,726.9,196.2,727.3,196.6z M761.5,274.4c0.1,0.5-0.2,1.6,1,1.5c1.2-0.1,1.8-1.5,2.9-1.5
		c1.1,0,0.3,2.1,0.6,2.9c0.3,0.8,1.6-0.5,2.9-0.1c1.3,0.5,1.1,4.4,0.4,6.6c-0.5,1.5-1.3,2.6-3.2,2.5c-0.6,0-1.6-0.1-1.9,0.3
		c-2.4,2.9-4.6,1.4-6.9-0.2c-0.3-0.2-0.7-0.3-1-0.4c-0.3,0.2-0.6,0.3-0.6,0.5c-0.5,1.4,0.2,3.7-1.8,4c-2.7,0.5-5.4,1.9-8.1,0.2
		c-0.7-0.4-1.4-1.3-1.6-2.1c-0.6-2.3-1.4-3.5-4.2-3.5c-2.3,0-6.3-3.4-7.1-2.7c-0.8,0.7-0.8,6-4.3,7.2c-1.4,0.5-3.9,0.9-4.6,0.4
		c-0.7-0.5-0.9-5.7-2.5-5.7c-1.6,0-0.9,4.6-3.5,6.1c-1.6,0.9-4.8,1.9-6.2,0c-1.4-1.9-0.3-4.1,0.3-5.5c1.5-3.8-1.1-1.2-2.1-5
		c-2.1-8.1,6.5-8.4,8-7.9c1.5,0.5,1.2,2.4,2,3.6c0.5,0.7,1.3,1.7,1.8,1.6c1.3-0.1,1.5-1.1,1.2-2.4c-0.2-0.9,0-2.1,0.4-2.9
		c1.3-2.1,2.3-2.4,5-1.8c0.8,0.2,1.5,0.5,2.3,0.3c0.8-0.1,0.6-0.7,0.6-1.1c0.7-4.6,5.4-6.7,9-3.8c1.9,1.5,3.3,3.8,4.8,5.7
		c0.6,0.8,0.7,2.5,2,2.6c1.3,0,1.2-1.4,1.5-1.9c1.9-3.5,5.6-5.2,9.3-4.2c2.5,0.6,3.4,2,3.3,4.6C761.5,273.1,761.4,273.8,761.5,274.4
		z M763,264.4c4.9-1.4,7.5,1.7,8,5.7c-1.7,0.3-2.5-1.8-4.5-2.2C765.1,267.6,763.6,267.4,763,264.4z M761.5,297.8
		c2.9,4.5,2.8,8.7-0.7,12.8c-2.1-0.2-4.2-0.3-6.6-0.6c-0.5-0.6-1.2-1.4-1.7-2.3c-1.8-3-4.6-4.5-7.9-4.8c-1.9-0.2-3.2-0.8-4.4-2.3
		c-1.5-2-3.6-2.6-6-2.6c-4.7,0-9,1.5-12.6,4.3c-2.9,2.2-5.5,8-8.3,7.6c-3.6-0.5-7.6,1.1-8.3,0.2c-1.8-2.1,3.6-16.3,5.4-16.7
		c5.9,1.9,9.1-1,10.6-1.2c1.5-0.2,5,3.1,7.9,1.8c2.6-1.2,4.4-5.2,5.7-6.1c1.4-0.9,3,1.1,4.5,1.4c1.3,0.3,2,0.9,2.7,2
		c2.2,3.8,5.4,5.1,9.8,4c2.6-0.6,5.2-0.7,6.6-3.6C759.5,293.9,760.4,295.9,761.5,297.8z M758,259.7c-0.1,0.8-0.5,1.6-1.4,2.4
		c-3.2-0.2-6.7-0.6-9.4,2.1c-0.1,0.1-0.2,0.2-0.4,0.4c-0.2-0.1-0.3-0.3-0.4-0.4c-0.9-0.8-1.5-1.4-2.2-2c-1.6-1.4-3.4-2.3-5.2-2.7
		c-1.1-0.2-2.3-0.3-3.4-0.1c-2,0.3-4,1.2-5.7,2.9c-0.4,0.4-0.9,0.8-1.3,1.1c-1.1,0.8-2.3,1.1-3.9,0.9c-1.1-0.1-2.8-0.1-3.4,0.6
		c-3,3.2-6.9,2.8-10.6,3.3c-0.5,0.1-1,0.3-1.5,0.5c0,0-5.6-3.5-7.5-10.1c-1.3-4.8-1.3-10.5,1-14.2c0.7-1.1,1.5-1.6,2.8-1.7
		c2.1-0.3,4.1-1.1,6.4-1.7c0.2,0.4,0.6,1,1,1.6c2.5,3.6,3.9,4,8,2.7c1.6-0.5,3.8-2.9,4.9-2.9s1.3,1.2,1.9,2.4
		c1.7,3.6,4.7,3.8,8.4,2.5c1.7-0.7,3.3-1.3,5.1,0.2c0.7,0.6,3.4,0.7,4.5,0.3c2.9-0.9,4.9-2.5,8-3.7c2.8,3.4,3,7.7,3.6,11.8
		C757.6,257,758.2,258.4,758,259.7z M755.6,233.9c-0.9,1.1-0.8,5.9-3.4,7.4c-2.6,1.5-8.4,3.5-9.8,2.6c-1.4-0.9-1.5-4.6-3.1-4.7
		s-1.3,2.1-1.7,2.8c-1.4,2.2-4.3,2.9-6.7,1.8c-1.6-0.7-1.9-2-1.9-3.6c0-2.3-0.9-4.2-2.2-4.1c-1.3,0.1-2.9,4.3-5.4,5.3
		c-4,1.7-5.6,1-6.7-3.2c-0.3-1.1-0.5-2.9-1.3-3.4s-1.5,1-2,1.5c-2.4,2.8-5.1,3.7-8.2,1.4c-0.7-0.5-1-0.5-1.6-1.8
		c-0.6-1.3,0.1-3,1.8-3.1c2.1-0.1,3.4-1.7,2.4-3.3c-1-1.6-3.4-4.8-0.3-8.1c1.5-1.6,2.9-4,5.3-4c2.3,0,1.5,3.5,2.9,3.5
		c1.4,0,0.9-1.2,1.5-3.7c0.6-2.5,2.3-2.4,5-1.8c4.9,1.2,7.1,3.9,7.2,9c0,1.2,0.5,3.2,0.8,3.7c0.3,0.5,1,0.8,1.5,0.1
		c0.5-0.7,0.6-0.4,0.8-2.2c0.5-3.5,2.1-6.2,6.4-6.2c4.3,0,6,3.8,6.2,7c0.1,1.4,0.5,3,1.7,2.9c1.2-0.1,1.2-0.6,1.3-1.1
		c1.1-3.4,1.8-5.1,5.3-4.9c5.4,0.4,8.2,8.4,7.3,9.5C757.8,234.3,756.4,232.8,755.6,233.9z M724.6,191.5c-6.6,3.3-12.4,8.5-20.7,7.3
		C709.3,192.1,717.4,192.9,724.6,191.5z M684.4,228.7c0.8-2.9,1.1-6,3.3-8.4c1.8-1.9,3.5-2.5,6-1.5c1,0.4,1.8,1.7,3.5,0.7
		c1.7-1,5.1-12.8,15.4-7.4c-3.7-1.9-7.3,1.4-10,4.2c-3,3.1-2.5,6.5-2.6,10.2c-3.8,1.8-3.4,5.3-3.3,8.6c0,1.4,0.6,3.3-0.1,4.2
		c-1.1,1.5-3,2.6-4.7,3.6c-1.3,0.7-2.5-0.3-2.7-1.5c-0.3-1.6-1.3-2.4-2.3-3.5C684.6,235.3,683.3,232.3,684.4,228.7z M686.5,258.1
		c-1.4,1.1-2.9,2-4.9,2.3c0.5-0.8,1.1-1.6,1.7-2.4c4-5.3,8.7-9.6,13.9-13.7c-1.5,3.6-3.7,6.7-6.4,9.4
		C689.4,255.2,688,256.8,686.5,258.1z M696.2,256.9c-0.6-0.3-1.1-0.6-1.9-1.1c1.1-1.5,1.9-2.6,2.8-3.8c0.3,0.2,0.4,0.3,0.4,0.4
		c0.2,1.7,0.4,3.3,0.6,5.4C697.2,257.4,696.7,257.1,696.2,256.9z M687.6,280.9c-0.3-2.1,0.9-3.4,2.8-4.4c2.4-1.2,4.8-2.2,7.5-1.1
		c0.7,0.3,2.8,0.9,3.3,0c0.5-1-2.8-3.3-2.7-4.6s0.6-2.4,2.2-2.5c1.5,0,3.1,2.7,5,4c-2.2,2.5-2.2,5-0.3,7.6c0.8,1.1,1.1,2.3,0.4,3.7
		c-0.5,1-0.7,2.2-1,3.6c-3.6,2.1-9.7,5.8-11.1,6.5c-1.4,0.6-3.8-2.2-4.3-4.6C688.7,286.3,688,283.6,687.6,280.9z M685.3,309.1
		c-1.8-4.8,11.5-12.4,19.6-17.3C700.7,299.8,687.2,313.9,685.3,309.1z M702.3,313.8c-0.9,0.5-1.7,1.4-2.6,1.5c-1,0.1-2.5-0.1-3-0.8
		c-0.8-1-0.8-2.5,0.6-3.4c0.9-0.6,1.7-1.1,2.6-1.7C700.6,310.9,701.4,312.3,702.3,313.8z M711.7,398.4c-0.6,0-1-7-1.5-10.2
		c1.8,0.5,3.1,0.9,4.6,1.4c0.3,2.1,0.8,5.4,0.9,6.8C715.7,397.6,711.7,398.4,711.7,398.4z M716,402.2c0,0.7-1.8,0.5-2.9,0.7
		c-0.5,0.1-0.5-0.9-0.6-1.5c-0.2-0.6,2.5-1.3,3.1-1C716.3,400.7,716,401.5,716,402.2z M717.8,389.5c1.5-0.4,2,0,3.5-0.4
		c0.1,2.8,0.4,8.5-0.6,8.5c-2.3,0.1-2.7-0.4-2.7-3.5L717.8,389.5z M721.9,401.3c0,0.7-1.8,0.5-2.9,0.7c-0.5,0.1-0.5-1.5-0.6-2.1
		c-0.2-0.6,2.5-0.7,3.1-0.4C722.2,399.8,721.9,400.6,721.9,401.3z M748.3,398.1c-0.4-0.4-0.8-7-0.2-7.6c0.5-0.6,3.3-1.4,3.8,0.1
		c0.6,1.7,0.1,6,0.2,6.5C752.2,398,748.7,398.5,748.3,398.1z M749.1,403c-0.4-0.4-0.9-1.6-0.1-2.1c0.5-0.4,2.2-0.3,2.5-0.2
		c0.8,0.2,1.1,0.9,1,2C752.4,403.6,749.9,403.6,749.1,403z M755.3,400.5c0.6-1.2,2.9-1.3,3.8-1.1c0.8,0.2,0.6,2.9,0.1,4
		c-0.2,0.6-2.5,1-3.5,0.3C754.7,403,755,401.1,755.3,400.5z M755.5,395.8c-0.5-0.8-0.6-4.8-0.5-6.1c0.1-1.2,3.2-3,3.6-2.6
		c0.5,0.3,1.2,7.6,0.6,8.6C758.8,396.6,755.9,396.6,755.5,395.8z M767.9,324c1.9,3.5,1.1,7.3-0.2,10.8c-0.7,1.7-1.7,3.3-2.7,4.9
		c-1,1.5-1.4,2.9-0.2,4c2.9-0.6,5.6-1.3,8.2-1.6c1.1-0.1,2.5,0.2,3.4,0.9c4.4,3.8,7.2,8.4,7.3,14.4c0.1,2.6-1.2,4.3-3.2,5.6
		c-3.2,2.1-7,2.8-10.7,2.6c-1.9-0.1-5.4-4.8-7.4-4.3c-1.4,0.4-1.3,2.6-0.7,4c0.5,1.1,1.1,2.2,1.4,3.3c1.4,5.3,0.1,8.6-4.8,11.4
		c-5.6,3.1-11.6,4.8-18,4.3c-3.8-0.3-6.9-2.3-9.3-5c-1.1-1.2-1.2-3.4-1.3-5.2c-0.1-1.8-1.3-4.4-2.4-4.5c-1.1-0.1-2,6.5-2.9,8.5
		c-1.4,3.2-6,4.7-10.1,3.4c-1.8-0.5-3.5-1.4-5.1-2.3c-1.9-0.9-2.5-2.7-2.7-4.6c-0.2-1.5-0.1-2.9-0.2-4.4c-0.1-2.4-1.5-5-2.6-4.9
		c-1.1,0.1-1,1.2-1.3,1.8c-2.8,6.7-10.4,7.7-14.9,2c-4.1-5.2-2.7-12.1,3.1-15.3c0.9-0.5,2.4-0.1,2.9-1.6c0.5-1.5-1.4-3.6-4.2-3.1
		c-4.1,0.7-7.7-1.8-8.4-5.9c-1.1-5.8,2.7-10.2,8.7-10.5c5.1-0.3,9.4,2.8,10.4,2.1c1-0.7,0.3-2.4-0.6-3.3c-3.8-4.3-1.3-12,4.3-13.3
		c1.1-0.2,2-0.2,3-1.2c1.2-1.3,3.5-0.9,5.1,0.4c1.2,1,2.4,2.1,3.6,3.1c0.7,0.5,2,2.5,2.9,1.8c0.9-0.6,0.4-3.4,0.2-4.7
		c-0.6-3.8,1-6.4,3.4-9c3-3.2,5.2-4,10.8-4.7c1.2-0.1,2.5-0.2,4,0.4c-1.3,1.1-3.2,2.5-4,3.4c-0.8,0.9-1.1,4.9,0.9,4.5
		c1.9-0.4,5-2.8,7.4-3.8c2-0.9,3.8-0.4,5.4,1.2c1.2,1.2,2.6,2.2,4.1,3.3c-0.7,2-4.3,2-3.9,4.9c0.1,0.8,1,2,2.4,2.2
		c1.4,0.2,5.4-4,8.5-3.2C761.9,318.2,765.8,320,767.9,324z M772.1,294.5c1.4,1.8,2.7,3.7,4.3,5.2c2.7,2.6,5,6.5,5.3,9.2
		c0.3,2.7-2.5,3.6-5.3,1.6c-2.4-1.8-4.8-3.8-6.5-6.3c-2.5-3.5-6.2-10.4-6.4-11.4c-0.2-1.1,4.6-3.2,5.4-2.2
		C769.7,291.6,771.1,293.2,772.1,294.5z M772.6,251.5c-0.6,0.6-2.1,0.7-3.2,0.5c-0.8-0.1-1.7-0.7-2.4-1.3c-3.2-2.8-6.4-5.7-9.7-8.5
		c5.3,1.1,10,3.2,14.1,6.5C772.3,249.4,773.7,250.3,772.6,251.5z M768.4,205.6c-2.7,0.5-5.3-0.4-7.4-2.3c-0.6-0.5-0.6-4.9-2.7-5.6
		c-2-0.6-2.9,2.5-4.4,2.9c-1.4,0.4-3.1-0.1-4.6-0.5c-2.9-0.6-4.2-2.7-4.3-5.5c-0.1-1.8,0.2-3.5-1.7-3.9c-1.9-0.3-6.9,6-11.6,2.6
		c-3-2.2-2.2-6.3,1.1-10c1-1.2-1-2.1-1.4-3.4c-1.7-4.5,3.1-8.6,6.5-8.5c3.4,0.1,1.5,4.6,3.3,4.6s4.7-4,7.5-3.2
		c2.3,0.7,4.1,2.1,4.9,4.4c1,2.8,2.6,5.5,2.2,8.8c-0.1,0.9-1.3,3.4,1,3.6c1.9,0.1,1.8-2,2-2.7c1.1-3.4,3.9-5.5,7.3-5.4
		c4.9,0.1,8.3,3.3,8.7,8.1c0.1,1.9,0.4,3.1,2.4,4.1c2,1,1.4,5.8-0.8,7.1c-0.6,0.4-1.7,0.6-1.9,1.1
		C773.5,205.3,770.7,205.2,768.4,205.6z M785.7,223.7c-1.4,0.9-4.5-1.4-5.5-3.3c-2.1-3.9-4.1-8-6.2-12.1c1.3-0.8,2.1-1.4,2.9-1.9
		c0.3,0.2,0.6,0.2,0.7,0.4c1.9,2.7,3.9,5.3,5.7,8.1c1.1,1.8,2.2,3.6,2.9,5.6C786.4,221.4,787,222.8,785.7,223.7z"/>
	<path d="M501.8,324.6c-5.2-2-9.8-1-14.5,1.5c-7.7,4.1-9.6,11.8-4.1,18.6c1.5,1.9,2.1,3.5,1.3,6c-1.8,5.3,1.9,9.4,7.4,8.4
		c1.7-0.3,3.4-0.7,5-1.1c8.2-2,15.1-9.6,15.6-17c0-1.7,0.4-3.6-0.1-5.1C510.6,330.6,507.3,326.7,501.8,324.6"/>
	<path d="M734.6,332.2c-1.3,0.9-2.6,1.9-4.1,3c0.2,0.1-0.1,0-0.3-0.2c-4-3.3-7.6-2.2-8.9,2.6c-0.2,0.7-0.5,1.7-1,1.9
		c-2.2,0.7-2.9,2.5-2.7,4.4c0.1,1.8,0.5,3.9,1.5,5.2c2.2,2.8,5.1,4.7,9,4.4c1.8-0.1,3.2,0.3,4.9,1.2c4.1,2.3,9.5-0.4,9.6-4.9
		c0-3.5,0.3-6.8,1.8-10c0.3-0.7,0.3-1.6,0.3-2.4C744.3,332.1,739,329.3,734.6,332.2 M740,340.7c-1.7,0.2-3.1-0.6-3.7,1.1
		c-0.6,1.6-0.1,2.9,1.6,4c2.1,1.2,2,3.3,0.1,4.8c-2,1.5-4.8,1-6.1-1.1c-0.4-0.7,0.1-1.9-1.4-2c-1.5-0.1-2.4,2.2-3.6,2.3
		c-1.3,0.2-2.8-0.6-4.1-1.2c-0.7-0.3-3.3-2.6-2.4-4.4c0.9-1.8,3.6,1,4.4,0.4c0.8-0.6-0.1-1.9-0.3-2.7c-1.1-3.2-0.1-5.3,2.3-5.1
		c2.4,0.2,3.1,6.5,4.7,6.2c1.6-0.4,1.2-1.9,1.4-2.7c0.4-2.6,2.2-3.9,4.3-4.9c0.9-0.4,2.8-0.6,3.2,0c0.6,0.8,1.5,1.5,1.4,2.7
		C741.9,339.8,741.1,340.5,740,340.7z"/>
	<path d="M258.3,352.1c0-1,0.2-1.8,0.1-2.6c-0.3-2.8-3.1-5.5-5.1-5.1c-2.3,0.5-3.7,3.1-3,6.1c0.5,1.9,2.5,5,2.8,5.9
		c0.3,0.9-2.8,1.5-3.8,1s0.3-4.6-0.2-6.7c-0.8-2.9-4.4-3.5-6.3-1.2c-0.9,1.1-1.2,2.6-1.6,4c-0.3,1.1-0.1,2.3-0.2,3.5
		c-3.2-0.7-4-2.5-2.5-5.1c1.8-3.2-0.3-4.3-1.3-4.4s-1.4,0.8-1.7,1.3c-1.8,3.2-1.9,6.5,0,9.5c1.8,2.8,4.7,3.2,7.8,2.4
		c0.7-0.2,1.6,0,2.3,0.2c3.9,1.3,7.3,0.2,10.4-2.3c1.1-0.9,2.4-1.6,3.6-2.3c2.3-1.3,4.8-2.3,6.8-4c2.1-1.8,0.7-5.4-0.6-5.7
		C264.6,346.4,262.3,352.3,258.3,352.1 M244,356.4c-1.5,0,0.5-4.7,1.6-4.7C246.8,351.8,245.5,356.4,244,356.4z M254.4,352
		c-0.9-0.3-1.2-2.2-1.1-2.8c0.1-0.6,0.3-1.4,1.2-1.3c0.9,0.1,0.9,3.4,0.8,3.9S255.3,352.3,254.4,352z"/>
	<path class="st2" d="M207.4,197.7c7-2.1,19-6.1,20.1-2.7c0.9,2.7-6.7,4.2-10.7,3.7c-3.1-0.4-5.5,0-9.5,0V197.7z"/>
	<path class="st2" d="M166.8,229c-0.4,0.5-1,0.9-1.6,1.1c-0.7,0.2-1.7,0.5-2.2,0.2c-0.5-0.3-0.3-2.2,0.2-2.8c2.7-3.1,5.6-6,8.6-8.9
		c1.4-1.3,3-2.4,4.5-3.5c0.3,0.4,0.7,0.7,1,1.1C173.8,220.5,170.3,224.7,166.8,229z"/>
	<path class="st2" d="M183.1,244.8c-7.1-8.6-8-13.2-4.4-22.9c0.7-1.8,1.3-3.8,2.4-5.4c5.4-7.4,12.4-12.4,21.7-13.3
		c10.8-1,19.9,2.2,26,11.8c0.5,0.7,0.8,1.6,1.5,3.1c-10.6-2.3-20.1-1.1-29.2,4.1C192,227.3,186,234.7,183.1,244.8z"/>
	<path class="st2" d="M183,319c-1.6-0.7-0.7-4.7,0.6-6.6c4.9-6.6,10.8-12,17.7-16.4c0.2-0.1,0.4-0.1,0.7-0.1
		C199.5,306.2,190.1,317.7,183,319z"/>
	<path class="st2" d="M192.5,276.7c-2.1-3.6-3.5-7.2-4.3-11c-0.3-1.4-0.4-2.7-0.5-4.1c-0.2-3.6-1.4-9.1-0.2-13
		c2.3-7.2,6.1-14.2,12-18.5c6-4.4,14.1-6.9,22-7.1c3.9-0.1,7.6,1.2,11.4,2.4c1.8,0.5,3.3,1.1,4.6,2.7c1.3,1.5,3.4,2.4,5.4,3.7
		c-2.2,1.1-4.3,2.1-6.4,3.1c-0.8-1.4-1.3-2.8-2.2-3.9c-1.6-1.9-3.6-2.2-5.8-1.2c-1.4,0.7-2.2,2.7-1.8,4.8c0.2,1.2,0.6,2.3,1,3.7
		c-0.7,0.1-1.3,0.1-1.9,0.2c-0.5,0-1,0-1.4,0.1c-1.2,1.2-0.5,3.5,1.2,3.9c2.5,0.6,4.7-0.1,6.9-1.3c4.6-2.4,9.2-4.6,14-6.9
		c2.6,4.1,4.8,7.9,4.8,12.7c-5.5-0.9-10.8-0.7-16,0.4c-4.3,0.9-8.5,2.1-12.8,3c-3.4,0.7-6.8,0.7-10.1,1.5c-6.5,1.6-12.2,5-17.1,9.6
		c0,0-0.1,0-0.1,0.1c-0.8,0.7-2.6,3.6-2.9,4.1c-0.7,1.3-1.1,2.6,0.1,3.8c1.6,1.7,3.6,3.6,6.6,2.8c2.9-0.8,5.8-1.6,8.3-3.3
		c0.5-0.3,1.4-0.3,1.6-0.9c-1.5,5.5-1.5,11.2-0.6,16.6c0.3,1.5-2.7,1.8-4.2,2.8C198.5,285.4,195.3,281.3,192.5,276.7z"/>
	<path class="st2" d="M216,258.2c-1.6,0.9-3.1,2-4.6,3c-2.2,1.6-4.4,3.1-6.7,4.4c-2.2,1.2-5.8,2.3-7.4,2.6c-1.6,0.3-0.9-2.8,1.3-4.6
		c2.2-1.8,3.1-2.6,6.9-4.2C209.4,257.9,211.7,258.1,216,258.2z"/>
	<path class="st2" d="M205.9,305.5c-1-10,7-17.4,16-19.9c6.6-1.9,12.9-0.5,19.2,0.9c4.7,1,9.1,2.7,13.2,5.4c3.4,2.2,5.7,5.1,7,8.9
		c1.5,4.2,3.3,8.5,2.8,13.1c0,0.4-0.1,0.8-0.2,1.2c-0.1,0.2-0.3,0.4-0.6,0.6c-9.7-6-20.1-6.2-30.9-4c-5.9,1.2-11.4,2.9-16.5,6.1
		c-2.2,1.4-5.6,4.8-6.5,4.1C207.4,320.5,206.5,311,205.9,305.5z"/>
	<path class="st2" d="M223.2,398.6c-0.4,1.3-0.6,1.6-1.2-0.6c-0.7-2.3-2-8.2-3.2-8.2s-3.3,4.5-4.1,5.5c-0.8,1,0.2-6,0.7-9.1
		c3.1,0.6,6,1.2,9.5,1.9C224.3,391.6,223.8,395.1,223.2,398.6z"/>
	<path class="st2" d="M275.4,396.5c-0.9,0-7-6.8-7.9-6.8s-2.2,6.3-2.8,6.3s0.4-6.5,0.5-8.9c3.1-1.6,5.8-3,8.6-4.5
		C275.6,386.8,276.7,391.3,275.4,396.5z"/>
	<path class="st2" d="M278.6,365.3c-7.9,12.5-19.6,17.2-34.5,17.8c-5.7-1-12.2-1.5-18.4-3.3c-5.7-1.6-11.1-4.3-15.6-8.4
		c-4.4-4.1-5.8-9.5-6.3-15.1c-0.8-7.9,0.7-15.3,5-22.2c2.4-3.8,5.5-7,9.1-9.4c6-4,11.8-6.6,19.1-8.3c5.4-1.2,11-0.8,13.8-0.5
		c7.3,0.7,13,6.1,14.6,7.7c8.3,8.3,13.6,18.4,15.8,29.8C281.8,357.4,280.9,361.5,278.6,365.3z"/>
	<path class="st2" d="M282.7,314.5c-9.1,3.2-6.7,9.3-6.1,10.7s3.1,0.2,2.6-1.6c-0.8-2.7,0.9-3.2,2.6-4c0.6-0.3,1.2-0.4,2-0.8
		c0.7,6.6,0.7,12.6-4,17.5c-4-5.4-7.9-10.7-12-16.3c0.1-4,0.4-10.9,0.5-13.3c0.1-2.4,4.3-6.1,5.7-5.8s2.3,2.3,3.4,3.7
		C279.8,307.7,281.5,310.8,282.7,314.5z"/>
	<path class="st2" d="M286.7,296.8c-1.7,2-3.7,2.2-5.8,1.8c-0.9-0.2-1.8-0.5-2.6-0.8c-4.3-1.8-8.6-3.5-12.8-5.4
		c-1-0.4-1.9-1.1-2.9-1.7c0.2-0.4,0.3-0.7,0.5-1.1C271,291.5,279.5,291.1,286.7,296.8z"/>
	<path class="st2" d="M277.4,282.6c-0.6,3.3-2.3,4.5-5.5,4c-7-1-13.9-1.8-20.9-3c-5.1-0.8-10.2-2.1-15.2-3.1
		c-7.4-1.5-14.5-1.4-21.4,3c-2.5-6.7-1.7-13.1,1.9-18.3c1-1.5,2.3-2.9,3.8-4.1c0.4-0.3,0.8-0.7,1.3-1c4.2-3.1,9-4.8,13.9-5.6
		c7.9-1.3,15.8-0.8,23.7,1.2c3.6,0.9,6.6,2.5,9.1,4.5c1.5,1.2,2.7,2.5,3.9,4.1c1.8,2.5,3.2,5.4,4.3,8.6
		C277.3,276,278.1,279.2,277.4,282.6z"/>
	<path class="st2" d="M278.7,260c-1.2-0.7-2.3-1.6-3.4-2.4c4.8,0.3,9.7,0.3,14,2.4c1.6,0.8,3,1.9,4.4,3.5
		C287.9,264.5,283.1,262.8,278.7,260z"/>
	<path class="st2" d="M243.5,224.4c1.5,0,4.2,1.5,3.4,2.6c-0.7,1-3.4-0.8-4.2-1.7C243,225,242,224.4,243.5,224.4z"/>
	<path class="st2" d="M232.7,234.6c-0.1,0.8-1.4,0.8-1.9,0.8c-0.3,0-1.1-0.2-0.9-1c0.1-0.9,1-0.8,1.5-0.9
		C231.7,233.4,232.4,233.6,232.7,234.6z"/>
	<path class="st2" d="M727.3,196.6c3.7,3.8,8.1,3.5,12.6,2.3c0.6-0.2,2.3-1.6,2.3-0.6c-0.4,5.6,8.4,8.2,12.8,6.9
		c1.1-0.3,2.7-0.3,3.3,0.6c3,4.1,7.2,6.2,11.6,5.8c-0.7,7-2.7,12.5-6.3,16.5c0.2-5-3.3-7.3-6.3-9.5c-3.1-2.3-7.2-2.4-11.2-1.4
		c-4.7-5-10.3-3.9-16.1-2.5c-3.5-4.5-8.1-6.5-14.1-5.6c-0.4-4.5,1.6-7.7,4.8-10.4c1.2-1,2.7-1.8,4.1-2.4
		C725.6,196.2,726.9,196.2,727.3,196.6z"/>
	<path class="st2" d="M761.5,297.8c2.9,4.5,2.8,8.7-0.7,12.8c-2.1-0.2-4.2-0.3-6.6-0.6c-0.5-0.6-1.2-1.4-1.7-2.3
		c-1.8-3-4.6-4.5-7.9-4.8c-1.9-0.2-3.2-0.8-4.4-2.3c-1.5-2-3.6-2.6-6-2.6c-4.7,0-9,1.5-12.6,4.3c-2.9,2.2-5.5,8-8.3,7.6
		c-3.6-0.5-7.6,1.1-8.3,0.2c-1.8-2.1,3.6-16.3,5.4-16.7c5.9,1.9,9.1-1,10.6-1.2c1.5-0.2,5,3.1,7.9,1.8c2.6-1.2,4.4-5.2,5.7-6.1
		c1.4-0.9,3,1.1,4.5,1.4c1.3,0.3,2,0.9,2.7,2c2.2,3.8,5.4,5.1,9.8,4c2.6-0.6,5.2-0.7,6.6-3.6C759.5,293.9,760.4,295.9,761.5,297.8z"
		/>
	<path class="st2" d="M758,259.7c-0.1,0.8-0.5,1.6-1.4,2.4c-3.2-0.2-6.7-0.6-9.4,2.1c-0.1,0.1-0.2,0.2-0.4,0.4
		c-0.2-0.1-0.3-0.3-0.4-0.4c-0.9-0.8-1.5-1.4-2.2-2c-1.6-1.4-3.4-2.3-5.2-2.7c-1.1-0.2-2.3-0.3-3.4-0.1c-2,0.3-4,1.2-5.7,2.9
		c-0.4,0.4-0.9,0.8-1.3,1.1c-1.1,0.8-2.3,1.1-3.9,0.9c-1.1-0.1-2.8-0.1-3.4,0.6c-3,3.2-6.9,2.8-10.6,3.3c-0.5,0.1-1,0.3-1.5,0.5
		c0,0-5.6-3.5-7.5-10.1c-1.3-4.8-1.3-10.5,1-14.2c0.7-1.1,1.5-1.6,2.8-1.7c2.1-0.3,4.1-1.1,6.4-1.7c0.2,0.4,0.6,1,1,1.6
		c2.5,3.6,3.9,4,8,2.7c1.6-0.5,3.8-2.9,4.9-2.9s1.3,1.2,1.9,2.4c1.7,3.6,4.7,3.8,8.4,2.5c1.7-0.7,3.3-1.3,5.1,0.2
		c0.7,0.6,3.4,0.7,4.5,0.3c2.9-0.9,4.9-2.5,8-3.7c2.8,3.4,3,7.7,3.6,11.8C757.6,257,758.2,258.4,758,259.7z"/>
</g>
</svg>
