<?xml version="1.0" encoding="utf-8"?>
<!-- Generator: Adobe Illustrator 19.1.0, SVG Export Plug-In . SVG Version: 6.00 Build 0)  -->
<svg version="1.1" id="Calque_1" xmlns="http://www.w3.org/2000/svg" xmlns:xlink="http://www.w3.org/1999/xlink" x="0px" y="0px"
	 viewBox="0 0 74.6 74.6" style="enable-background:new 0 0 74.6 74.6;" xml:space="preserve">
<style type="text/css">
	.st0{fill:#000;}
</style>
<path class="st0" d="M69.1,24.9c-3.3,0-6.4-0.4-9.4-0.9c-0.1-5.2-0.4-10.3-0.8-15.5c-0.1-1-0.9-1.7-1.9-1.4c-2.5,0.7-5,1.1-7.6,1.2
	c-0.9,0-1.7,0.9-1.4,1.9c1,3.4,1.7,7.1,1.4,10.7C42.6,18,36.5,13.6,31,7.7c-0.6-0.7-2-0.6-2.4,0.3C22.9,20.8,15.5,31.6,3.9,39.9
	c-1.6,1.1-0.1,3.7,1.5,2.6c1.3-0.9,2.5-1.9,3.7-2.9C9.7,48.4,9.6,57.3,9,66.1c-0.1,0.8,0.7,1.6,1.5,1.5C28.8,66,47.1,64,65.1,60.5
	c0.6-0.1,1.2-0.8,1.1-1.4c-0.8-10.4-1.8-20.9-0.8-31.3c1.2,0.1,2.4,0.1,3.6,0.2C71,27.9,71,24.9,69.1,24.9z M51.3,11.2
	c1.6-0.2,3.2-0.4,4.7-0.8c0.3,4.3,0.6,8.6,0.6,12.9c-1.5-0.4-3-0.8-4.4-1.3C52.6,18.3,52.2,14.7,51.3,11.2z M32.2,52.8
	c-0.4-1.7-0.5-1.4,1.2-1.9c1.2-0.4,2.5-0.6,3.7-1c2.4-0.6,4.9-1.3,7.3-1.9c1.5,3.9,1.6,8.3,2,12.4c0,0.1,0,0.1,0,0.2
	c-4.3,0.6-8.6,1.2-12.8,1.7C33.9,59.2,32.9,55.8,32.2,52.8z M63.1,57.8c-4.6,0.9-9.1,1.6-13.7,2.3c-0.5-5-0.7-10-2.8-14.7
	c-0.3-0.6-1.1-0.8-1.7-0.7c-3.3,0.9-6.6,1.7-9.9,2.6c-1.7,0.5-4.9,0.6-5.9,2.4c-0.9,1.5,0.1,3.8,0.5,5.3c0.5,2.3,1.3,5.1,0.9,7.5
	c-6.1,0.7-12.3,1.3-18.4,1.8c0.5-9.1,0.5-18.2-0.1-27.3c7.9-7.2,13.7-15.8,18.4-25.8c9,9.1,19.7,14.6,32.1,16.1
	C61.5,37.5,62.3,47.8,63.1,57.8z"/>
</svg>
