<?xml version="1.0" encoding="utf-8"?>
<!-- Generator: Adobe Illustrator 19.1.0, SVG Export Plug-In . SVG Version: 6.00 Build 0)  -->
<svg version="1.1" id="Calque_1" xmlns="http://www.w3.org/2000/svg" xmlns:xlink="http://www.w3.org/1999/xlink" x="0px" y="0px"
	 viewBox="0 0 127.2 152" style="enable-background:new 0 0 127.2 152;" xml:space="preserve">
<style type="text/css">
	.st0{display:none;fill:#F7B5AC;}
	.st1{fill:#F7B5AC;}
	.st2{fill:#EB5C5F;}
	.st3{fill:#84B974;}
	.st4{fill:#010202;}
	.st5{fill:#AB7613;}
	.st6{fill:#C0BFBF;}
	.st7{fill:#6FA4C3;}
	.st8{fill:#1E1E1C;}
	.st9{fill:none;}
	.st10{fill:none;stroke:#EB5C5F;stroke-width:3;stroke-miterlimit:10;}
	.st11{fill:none;stroke:#6FA4C3;stroke-width:3;stroke-miterlimit:10;}
	.st12{fill:none;stroke:#84B974;stroke-width:3;stroke-miterlimit:10;}
	.st13{fill:none;stroke:#C0BFBF;stroke-width:3;stroke-miterlimit:10;}
	.st14{fill:none;stroke:#F7B5AC;stroke-width:3;stroke-miterlimit:10;}
</style>
<g>
	<path d="M93.1,45.2c6.1,5.2,24.4,24.6,28.1,30.5c5.9,9.4,7.1,19.5,5.1,30.3c-1.5,8.2-2.7,15.1-6.6,22.2c-1.4,2.5-2.7,5-4.5,7.2
		c-2.5,3-15.2,10.8-15.8,11.1c-6.7,2.4-13.6,3.8-20.7,4.3c-7.7,0.5-15.5,1.2-23.3,1.3c-4.1,0.1-8.2-0.7-12.3-1.4
		c-4.3-0.7-8.5-1.8-12.7-2.7c-5.2-1.1-10-3.4-13.9-6.7C10,135.8,5.2,129,2.7,120.9c-5-16.9-3.1-33,5.8-48.4
		c6-10.3,13.9-19,22.6-27.1c-0.3-1.3-0.6-2.6-1-4c0.9-1,1.7-2,2.7-3.1c-1.5-1-3.7-1.2-3.7-3.3c0-1.6,0.3-3.1,0.6-5.3
		c-1.2-1-2.8-2.3-4.5-3.6c-1.7-1.4-3.5-2.8-5.2-4.3c-3.1-2.7-4.5-6.2-4.5-10.4c5.7-6.8,10.2-8,18.6-4.8c2.6-2,5.5-3,8.8-1.7
		c1.4,0.5,2.1-0.7,3.1-1.2c3.6-2,7.1-4.3,11.4-3.5c2.8,0.5,5.4,1.5,7.4,3.8c1.6,1.9,4.3,2.3,6.6,1.2c1.3-0.6,2.6-1.1,3.9-1.6
		c5.3-2,9.3-0.9,12.8,3.7c3-0.7,6.1-1,9.3-0.1c2.1,0.6,3.3,1.9,3.5,3.9c0.4,2.7,0.1,5.3-1.3,7.9c-1.8,3.4-4.4,6.1-7.1,8.7
		c-2.1,2-2.1,3.3-0.4,5.7C94.9,37.1,95.6,41.1,93.1,45.2 M45.4,49.7c-2.8-0.4-5.4-0.5-7.9-1.1c-2.7-0.7-4.7,0.3-6.6,2.1
		C22.6,59,14.8,67.7,9.8,78.4C2.6,93.7,1,109.2,8.3,124.9c2.8,6,6.7,11.1,12.3,14.8c4.1,2.7,8.7,4.3,13.4,5.4
		c10.6,2.6,21.4,3.7,32.3,2.8c4.5-0.4,8.9-1,13.4-1.3c5.9-0.5,11.7-1.5,17.3-3.4c3.4-1.1,10.5-9.4,11.8-11.1
		c6.4-8.8,10.1-18.6,10.9-29.5c0.2-3.2,0.2-6.3-0.3-9.5c-1.9-13.5-9.6-23.6-18.7-33c-3.8-4-8.5-7.1-11.8-11.6
		c-0.8-1-1.8-1.4-3.1-1.1c-3.3,0.6-6.6,0.9-10.1,1.4c0.9,1.7,1.6,3.2,2.3,4.6c0.6,1.1,1.5,2.2,1.7,3.4c0.8,3.8-0.6,6.4-4.4,8.5
		c-3.8,2.2-6,2-9.2-0.9c-2-1.9-3.9-3.9-5.8-5.8c-1.4,1.8-2.9,3.7-4.4,5.5c-2,2.4-4.1,4.5-7.5,4.6c-1.2,0.1-2.3,0.5-3.4,0.8
		c-3.4,1.1-5.5,0-6.1-3.5c-0.2-1.2-0.1-2.6,0.3-3.8c1.2-3.4,2.2-7,4.6-9.9C44.3,51.6,44.8,50.7,45.4,49.7 M35.7,10.6
		c2.7,2.3,4.2,5.1,4.7,8.9c-0.9-0.2-1.6-0.1-1.9-0.4c-2-1.8-4.2-3.5-5.8-5.6c-2.2-3-8.5-4.2-11.8-1.6c-1.9,1.5-2.2,4.1-0.6,5.9
		c0.9,1.1,2,2,3.1,2.9c2.6,2,5.4,3.8,7.8,6.1c1.7,1.6,3.1,1.9,5.3,1.6c6.3-1,12.6-2.1,18.9-2.3c9.3-0.3,18.6,0.1,27.9,0.2
		c0.6,0,1.2-0.1,1.6-0.4c4.1-3,8-6.3,9.9-11.2c0.5-1.2,0.3-2.6,0.4-4c-7,0.9-7,0.9-11.6,5.1c-0.3,0.2-0.6,0.4-0.8,0.7
		c-0.8,1.1-1.9,1.2-2.7,0.3c-0.8-0.8-1.5-2-0.5-3.2c0.5-0.7,1.4-1.1,1.6-1.8c0.4-1.1,0.9-2.7,0.4-3.5c-0.5-0.8-2.2-1.1-3.4-1.1
		c-1.1,0-2.3,0.6-3.3,1.1c-2,1-3.9,1.4-6.1,0.9c-0.9-0.2-2.1,0.1-2.9,0.6c-2.4,1.6-4.3,3.7-3.9,7c0.1,0.5-0.2,1-0.3,1.7
		c-2.9-2-3.2-3.2-1.8-7c0.9-2.5,0.1-4.3-2.1-5.6c-2.9-1.6-5.7-1.4-8.3,0.4c-2.4,1.8-4.8,2.5-7.9,1.8C39.5,7.6,37.3,8.2,35.7,10.6
		 M85.6,31.3c-2.3-1.7-4.6-1.9-7-1.9c-8.1,0.1-16.2-0.1-24.3,0.4c-6,0.3-11.9,1.5-17.9,2.4c-1.1,0.2-2.4,0.5-3.5,1.9
		c17.7,2,34.9,1.5,52.2-0.6C85.3,32.8,85.4,32.2,85.6,31.3 M87.5,39.9c-0.4-1.4-0.9-1.8-2.2-1.6c-2.4,0.5-4.9,0.9-7.3,1.2
		c-5.2,0.6-10.5,1.6-15.7,1.6c-7.8,0.1-15.6-0.4-23.4-0.9c-2.3-0.1-3.8,0.3-5,2.9c1.7,0.4,3.1,0.8,4.6,1.2c4.1,0.9,8.2-0.1,12.2-0.3
		c9-0.5,18.1-1.3,27.1-2.1C81.1,41.7,84.4,41.6,87.5,39.9 M61.3,49.4c0.1,5.4,2.9,9.2,6.8,12.4c1.7,1.3,3.2,1.4,4.6-0.2
		c0.6-0.7,1-1.5,1.6-2.4c-0.6-1.2-1.1-2.4-1.8-3.5C70,51.7,67.3,47.8,61.3,49.4 M55.7,50c-3.4-1.1-5.7-0.3-7.4,2.5
		c-1.3,2.1-2.9,4-3.9,6.2c-0.9,2.1-2.3,4.3-2.1,7.4C49.1,62.3,52.5,56.4,55.7,50"/>
	<path d="M78,111.5c-0.4,3-1.9,5.4-4.4,7.1c-2.5,1.7-5.8,2.6-10,2.6c-2.8,0-5.3-0.4-7.4-1.1c-2.1-0.7-3.9-1.7-5.2-3.1
		c-1.3-1.3-2.3-2.9-3-4.7c-0.7-1.8-1-3.9-1-6.1h-0.6c-1.1,0-1.6-0.5-1.6-1.6l0-0.1c0-1,0.5-1.6,1.6-1.6h0.6v-2.9h-0.6
		c-1.1,0-1.6-0.5-1.6-1.6l0-0.1c0-1,0.5-1.6,1.6-1.6h0.6c0.1-4.7,1.5-8.3,4.3-10.9c2.8-2.6,6.9-3.9,12.4-3.9c4.3,0,7.6,0.9,10.1,2.6
		c2.5,1.8,3.9,4.2,4.3,7.3c0,0.2,0.1,0.6,0.2,1.2c0,0.6-0.1,1.2-0.4,1.5c-0.3,0.4-0.8,0.5-1.5,0.5h-3.9c-0.8,0-1.3-0.1-1.7-0.4
		c-0.3-0.3-0.6-0.8-0.8-1.6c0-0.3-0.1-0.6-0.3-1c-0.8-2-2.8-3-5.9-3c-2.5,0-4.3,0.6-5.4,1.7c-1.2,1.2-1.8,3.1-1.9,6h8.9
		c1.1,0,1.6,0.5,1.6,1.6v0.1c0,1.1-0.5,1.6-1.6,1.6h-8.9v2.9h8.9c1.1,0,1.6,0.5,1.6,1.6v0.1c0,1.1-0.5,1.6-1.6,1.6h-8.9
		c0.1,2.9,0.7,4.9,1.8,6.1c1.2,1.2,3,1.8,5.5,1.8c2.9,0,4.8-0.8,5.7-2.4c0.2-0.3,0.4-0.9,0.6-1.7c0.2-0.8,0.5-1.3,0.8-1.6
		c0.3-0.3,0.9-0.4,1.6-0.4h3.8c1.4,0,2,0.7,1.9,2.1C78.3,110.6,78.2,111.1,78,111.5"/>
	<path class="st3" d="M85.6,31.3c-2.3-1.7-4.6-1.9-7-1.9c-8.1,0.1-16.2-0.1-24.3,0.4c-6,0.3-11.9,1.5-17.9,2.4
		c-1.1,0.2-2.4,0.5-3.5,1.9c17.7,2,34.9,1.5,52.2-0.6C85.3,32.8,85.4,32.2,85.6,31.3"/>
	<path class="st3" d="M87.5,39.9c-0.4-1.4-0.9-1.8-2.2-1.6c-2.4,0.5-4.9,0.9-7.3,1.2c-5.2,0.6-10.5,1.6-15.7,1.6
		c-7.8,0.1-15.6-0.4-23.4-0.9c-2.3-0.1-3.8,0.3-5,2.9c1.7,0.4,3.1,0.8,4.6,1.2c4.1,0.9,8.2-0.1,12.2-0.3c9-0.5,18.1-1.3,27.1-2.1
		C81.1,41.7,84.4,41.6,87.5,39.9"/>
	<path class="st3" d="M61.3,49.4c0.1,5.4,2.9,9.2,6.8,12.4c1.7,1.3,3.2,1.4,4.6-0.2c0.6-0.7,1-1.5,1.6-2.4c-0.6-1.2-1.1-2.4-1.8-3.5
		C70,51.7,67.3,47.8,61.3,49.4"/>
	<path class="st3" d="M55.7,50c-3.4-1.1-5.7-0.3-7.4,2.5c-1.3,2.1-2.9,4-3.9,6.2c-0.9,2.1-2.3,4.3-2.1,7.4
		C49.1,62.3,52.5,56.4,55.7,50"/>
</g>
</svg>
