<?xml version="1.0" encoding="utf-8"?>
<!-- Generator: Adobe Illustrator 19.1.0, SVG Export Plug-In . SVG Version: 6.00 Build 0)  -->
<svg version="1.1" id="Calque_1" xmlns="http://www.w3.org/2000/svg" xmlns:xlink="http://www.w3.org/1999/xlink" x="0px" y="0px"
	 viewBox="0 0 1392.6 1155.3" style="enable-background:new 0 0 1392.6 1155.3;" xml:space="preserve">
<style type="text/css">
	.st0{fill:#F4A300;}
	.st1{fill:#C0C0C0;}
	.st2{fill:#008A90;}
	.st3{fill:#6DA3C3;}
	.st4{fill:none;stroke:#F8AD3B;stroke-width:3;stroke-miterlimit:10;}
	.st5{fill:#F8AD3B;}
	.st6{fill:none;}
	.st7{fill:#E2F7EF;}
	.st8{fill:#FFFFFF;}
</style>
<g>
	<path d="M1232.4,604.7c14.4-1.9,28.6-3.8,42.2-5.6c0.7-0.6,1.1-0.8,1.1-1c0.4-6.4,0.9-12.9-2.4-18.8c-1.2-2.2-0.6-3.4,2.2-3.8
		c8.9-1.2,17.9-2.3,26.8-3.5c10.2-1.4,20.5-2.6,30.7-4.3c12.2-2,24.4-4.3,36.6-6.4c2.3-0.4,4.6-0.9,6.9-0.9c2.9,0,3.6,0.9,4.1,3.6
		c1.3,6.6,3,13.2,4,19.9c1,6.7,1.5,13.5,2.2,20.2c0.2,2.3,0.5,4.7,0.7,7c0.3,3.5-0.5,4.9-3.8,6c-11.7,4-23.8,6.8-35.8,9.5
		c-3.4,0.8-6.9,1.5-10.3,2.6c-4,1.3-4.8,2.6-4.7,6.8c0,2.5,0.2,5,0.1,7.5c-0.1,2.9-0.9,3.8-3.7,4.6c-6.3,1.9-12.6,4-19,5.7
		c-4.8,1.3-9.8,2.1-14.7,2.9c-11.6,2-23.3,4.1-34.9,6c-4.8,0.8-9.7,1.3-14.5,1.9c-1.5,0.2-2.5-0.2-3-1.9c-1-3.8-1.9-7.6-2.6-11.4
		c-2.6-14.8-5.3-29.6-8-44.4C1232.3,606.5,1232.4,605.9,1232.4,604.7z M1323,602.1c-4.1,3.8-7.6,7.2-11.4,10.4
		c-4.8,4-10.2,7.2-14.5,11.5c-4.3,4.3-9.1,4.4-14,2.8c-11.5-3.7-22.8-7.9-34.2-11.8c-4-1.4-7.9-2.7-12-4.1
		c-0.3,3.5,6.1,42.9,7.6,46.1c2.8-0.4,5.9-0.6,8.9-1.3c6.8-1.5,13.5-3.4,20.3-4.7c13.9-2.7,27.9-5.1,41.7-7.9
		c3.6-0.7,7.5-1.3,10-3.1c-0.4-7.7-0.9-14.6-1.1-21.5C1323.9,613.3,1324.8,608,1323,602.1z M1365,567.8c-0.2-0.4-0.3-0.8-0.5-1.2
		c-14.1,2.2-28.1,4.4-42.2,6.6c-13.9,2.1-28,3-42.9,5.7c3.7,2.2,6.4,4.1,9.2,5.5c5.5,2.7,11.2,5.3,16.8,7.9c2,0.9,3.9,1.1,6,0.3
		c2.3-0.9,4.7-1.7,7.2-2.3c4.8-1.2,9.5-2.6,14.5-0.1c0.2,1.4,0.3,2.8,0.6,4.8C1345.4,586.9,1355.2,577.4,1365,567.8z M1367.9,573.4
		c-1.4,1.2-1.8,1.6-2.2,2c-4.9,5.8-10,11.5-16.4,16c-3.3,2.3-6.4,4.7-9.6,7.1c-4.5,3.5-8.3,7.4-7,14.1c0.5,2.5,0.1,5.1,0.1,8.3
		c13.1-3.3,25.6-6.4,38.3-9.5C1372.1,598.9,1368.2,586.8,1367.9,573.4z M1315.8,597c-0.8-0.2-1.2-0.4-1.5-0.3
		c-5.3,1-10.6,2.3-15.9,3.2c-6.4,1.1-12.8,1.9-19.2,2.8c-9.5,1.3-19,2.3-28.5,3.7c-3.3,0.5-6.9,0.3-10.5,2.7c2.7,1.1,4.7,2,6.8,2.7
		c5,1.7,10.1,3.3,15.1,5c7.1,2.4,14.2,4.9,21.3,7.3c2.3,0.8,4.1,0.2,6-1.5c7.7-7.3,15.5-14.4,23.3-21.7
		C1313.7,599.7,1314.6,598.4,1315.8,597z M1300.8,593.9c-2.5-1.2-4.9-2.5-7.4-3.6c-2.7-1.2-5.4-2.2-8.1-3.5
		c-2.4-1.2-4.6-2.6-7.9-4.4c0.7,5.9,1.3,10.6,1.9,15.5C1286.9,597.6,1293.8,596.3,1300.8,593.9z"/>
	<path d="M1046.2,827.2c22.7,9,46.4,13.4,70.3,21c3.2,3.5,1.4,8.5,0,13.2c-3.1,10-6.6,19.9-9.9,29.8c-0.6,1.8-1,3.7-1.3,5.6
		c-0.7,5.5-4.4,7.9-9.7,6.2c-2.4-0.8-4.7-1.7-7.1-2.5c-1.5-0.5-3.1-0.7-4.8-1c-1.2,3.7-2,7.3-5.5,9.1c-1.1,0.6-2.4,1-3.6,0.9
		c-3.5-0.5-7-1.1-10.4-2c-7.1-1.8-14.2-3.8-21.3-5.8c-8.4-2.4-16.8-4.5-25-7.3c-7.8-2.6-15.4-6-23-9c-2.2-0.9-4.5-1.5-6.6-2.4
		c-2.8-1.2-3.1-2.4-1.7-5.1c1.1-2.1,1.9-4.3,2.7-6.5c2.2-6.9,4.4-13.7,6.5-20.7c1.1-3.7,1.7-7.5,2.7-11.2c0.5-1.7,1.6-3.3,2.4-5
		c6.9,2.3,13.2,4.4,19.5,6.4c5.8,1.8,11.6,3.2,17.4,4.9c2.3,0.7,3.8,0.1,5-2.2c2-4,3.7-8,3.2-12.6
		C1045.9,829.8,1046.1,828.7,1046.2,827.2z M991.7,877.3c26.3,10.9,53.3,18.1,80.7,23.9c5.3-10.5,9.8-20.6,13.2-31.8
		c-1.4,0.2-2.1,0.2-2.7,0.4c-8.3,2.6-16.6,5.1-24.9,7.7c-4.7,1.5-9.4,2.3-14.4,2c-0.9,0-1.9,0.1-2.6-0.3c-5.8-3-10.9-6.9-15-11.9
		c-3.3-4-6.5-8-9.8-11.9c-2.4-2.8-5-5.4-7.4-8.2c-2.1-2.4-4.1-4.9-6.6-7.8c-2.5,8.4-4.7,15.9-6.9,23.5c-1.1,3.8-2.2,7.6-3.2,11.5
		C991.7,875.2,991.8,876.1,991.7,877.3z M1081.3,862.2c0-0.4-0.1-0.7-0.1-1.1c-22.8-7.4-46.4-12.2-69.9-19.3
		c0.2,1.5,0.1,2.3,0.5,2.8c1.1,1.6,2.2,3.1,3.5,4.5c5.1,5.7,10.7,10.9,14.9,17.4c3.8,5.9,9.6,8.4,16.8,6.3c0.7-0.2,1.4-0.3,2.1-0.5
		c7.9-2.3,15.9-4.5,23.8-6.9C1075.8,864.6,1078.5,863.3,1081.3,862.2z M1062.4,851.8c6.9,2.1,13.7,4.4,20.7,6.3
		c2.2,0.6,4.8,0.7,7,0.3c6.4-1.3,11.9-4.7,18.7-7.9c-18.4-7-37-9.8-54.9-15.7C1056.4,840.7,1061.1,845.3,1062.4,851.8z
		 M1096.8,896.8c1.9-5.1,3.5-9.1,5-13.3c1.4-4,2.8-8.1,3.9-12.2c1.1-4.1,3.7-7.8,4.1-12.6c-4.5,1.7-8.3,3.2-12.2,4.5
		c-3.2,1-4.9,3-5.3,6.3c-0.1,1-0.2,2.1-0.4,3.1c-1,4.3-2,8.6-3.2,12.8c-0.8,2.9-1.9,5.7-3.1,9.2
		C1089.8,895.4,1093.4,896.1,1096.8,896.8z M1056.4,850.4c0.2-0.3,0.5-0.6,0.7-0.9c-2.6-5.1-5.3-10.2-8.2-15.7
		c-1.5,4.7-2.9,8.8-4.4,13.5C1048.6,848.4,1052.5,849.4,1056.4,850.4z"/>
	<path d="M631.8,658.7c1.7-0.5,3.8-1.2,5.9-1.8c10.4-2.9,20.8-5.6,31.1-8.7c11.6-3.4,23.1-7,34.7-10.6c3.4-1,6.7-2.4,10.1-3.4
		c1.3-0.4,2.9-0.5,4.3-0.2c4.4,1,6,0.9,6.5,6.7c0.4,4.6,1.4,9.3,4.6,13.4c7.7-1.5,15.4-3.8,22.7-6.7c4.1-1.6,6.3-1.2,7.7,3.1
		c2.8,9,5.3,18.1,8,27.1c0.8,2.8,1.8,5.5,2.7,8.5c-2.3,1-4.7,2.2-7.1,3c-10.7,3.7-21.5,7.4-32.3,10.8c-6.3,2-12.8,3.6-19.1,5.4
		c-5.2,1.5-10.5,3-15.7,4.4c-3,0.8-3.2,0.6-4.4-2c-0.5-1-1.3-1.8-1.9-2.7c-0.7-1.1-1.3-2.2-1.8-3.4c-0.8-1.9-1.4-3.9-2.1-5.8
		c-0.1-0.3-0.4-0.4-0.9-1.1c-5.5,2.3-11,5.1-16.8,7c-5.8,1.9-12,2.9-18.2,4.3c-2.9-2.8-5.5-5.9-6.6-10c-1.8-6.5-3.4-13.1-5.4-19.6
		C636,670.7,633.9,664.9,631.8,658.7z M681.3,673.5c0.3,1.9,0.4,3.3,0.8,4.7c1.7,5.3,3.6,10.5,5.4,15.8c0.5,1.4,0.9,2.8,1.4,4.2
		c2,5.1,3.1,5.7,8.4,4.2c6-1.6,11.9-3.3,17.9-5c10.7-3.1,21.4-6.5,32.2-9.5c4.6-1.3,9-2.7,12.8-5.4c0.6-3.3,0.2-6.2-1-9.2
		c-1.2-2.9-2-5.9-2.8-8.9c-0.8-2.9-1.5-5.8-2.3-9.1c-0.9,0.6-1.5,0.9-1.8,1.3c-6.3,6.8-12.4,13.8-20,19.3c-1.2,0.9-1.8,2.5-3,4.4
		c-7.6-0.5-15.7-0.5-23.7-1.6C697.5,677.5,689.8,675.4,681.3,673.5z M637.9,663.2c0.1,1.1,0.1,1.7,0.3,2.2
		c1.9,6.8,3.7,13.7,5.7,20.5c0.8,2.8,1.6,5.7,2.6,8.5c1.3,3.7,2.6,4.3,6.3,3.3c2.1-0.6,4.3-1,6.4-1.8c5.6-2.2,11.3-4.4,16.8-6.8
		c1.8-0.7,3.5-1.9,3-4.3c-1.1-4.8-2.4-9.7-3.5-14.3C662.7,668.1,650.6,665.7,637.9,663.2z M712.5,639.2
		c-23.4,7.1-46.1,13.9-68.9,20.8c1,0.9,2.1,1.3,3.2,1.5c7,1.3,14,2.3,20.9,3.9c3.6,0.8,7.1,1.1,10.5,0.2c5.8-1.5,11.6-3.3,17.3-5.2
		c1.7-0.6,3.4-1.9,4.5-3.3c3.8-4.9,7.3-10,10.9-15C711.4,641.4,711.7,640.6,712.5,639.2z M745.7,654c-0.1-0.2-0.3-0.3-0.4-0.5
		c-6.8,1.7-13.6,3.4-20.4,5.2c-6.7,1.8-13.4,3.6-20,5.5c-6.6,1.9-13.4,3.3-20.4,5.6c0.8,0.7,1,1,1.2,1.1c9.8,3.7,20,4.6,30.4,5
		c3.8,0.2,7.3,0.5,9.5-3.5c0.1-0.2,0.5-0.3,0.7-0.5c4.5-4,9.1-7.9,13.6-12C741.9,658,743.7,655.9,745.7,654z M718.3,647.9
		c-0.3-0.2-0.7-0.3-1-0.5c-2.5,2.6-5,5.2-7.4,7.8c0.2,0.3,0.4,0.6,0.6,0.9c2.8-1.1,5.6-2.1,8.6-3.3
		C718.8,651,718.6,649.5,718.3,647.9z"/>
	<path d="M243.9,700.1c5.2,6.9,6.8,14.6,6.7,22.7c0,3.5,0.1,4.1,3.7,4.7c4.5,0.8,9.1,1.2,13.6,1.7c4.1,0.4,8.2,0.6,12.3,1
		c2.3,0.2,5.1,4.3,4.9,7.1c-0.7,7.2-1.3,14.3-3.3,21.3c-1.7,6.1-3,12.3-4.4,18.3c-5.8,3-11.8,0.9-17.7,0.8
		c-6.6-0.1-13.2-0.7-19.8-1.4c-7.5-0.7-14.9-1.6-22.3-2.4c-5.1-0.5-10.2-1-15.4-1.5c-4.6-0.4-5.1-1-3.8-5.5c1-3.4,2-6.7,1.7-10.5
		c-4.9-0.7-9.7-0.9-14.4-2.1c-3.5-0.9-6.7-2.8-10-4.5c-0.8-0.4-1.4-1.5-1.8-2.4c-3.1-6.5-4.2-13.4-4.5-20.5c0-1.3-0.1-2.7-0.4-3.9
		c-2.1-7.2-0.3-14.1,1.7-20.8c1-3.5,4.6-5.3,8.5-5.2c5.6,0.1,11.2,0.4,16.8,0.5c5,0.1,10.1-0.1,15,0.2c10,0.7,20.1-0.1,29.9,2.5
		C241.9,700.5,242.8,700.2,243.9,700.1z M173.4,706.6c-0.5,1.4-0.7,2-0.9,2.7c-0.9,3.9-0.1,7.9-0.2,11.8c-0.1,5.2,1.1,10.2,1.5,15.3
		c0.5,6,2.8,9.7,8.7,10.5c3.5,0.4,7,1,10.5,1.2c4,0.2,8,0.2,11.9,0.1c10.1-0.3,20.3-0.8,30.4-1.3c1.3-0.1,3.1-0.9,3.6-1.9
		c1.5-3,2.9-6.2,3.7-9.4c1.6-6.5,2-13.1,1.2-19.8c-0.1-0.7-0.5-1.4-0.9-2.7c-1.6,2.1-2.6,4-4,5.4c-6.7,6.8-14.8,11.3-24.3,12.7
		c-6.1,0.9-12.5,1.5-17.1-4.2c-0.4-0.4-1-0.7-1.4-1.1c-6.4-5.2-13.4-9.6-18.9-15.9C176.5,708.7,175.2,708,173.4,706.6z M174.7,703
		c1.4,1.5,2.3,2.6,3.2,3.7c6.4,6.8,14.2,11.9,21.6,17.5c4.6,3.5,9.9,4.5,15.3,1.2c4.4-2.7,9.1-5,13.2-8.1c3.5-2.6,6.3-6.1,9.2-9.4
		c0.9-1,1-2.6,1.5-3.9c-0.8-0.4-1.1-0.8-1.5-0.8c-7.6-0.6-15.2-1.4-22.9-1.8c-9-0.4-18-0.4-27-0.5c-3.1,0-6.2,0.1-9.2,0.4
		C177.1,701.3,176.2,702.2,174.7,703z M277.9,740.2c-1,0.5-1.9,0.7-2.6,1.2c-9.5,7.1-19.5,13.3-29.7,19.2c-2.6,1.5-5,2.2-7.7,0.2
		c-1.8-1.3-3.9-2.1-5.7-3.4c-3.2-2.3-6.4-3.4-10.4-2.3c-1.2,0.3-2.6,0.1-4,0c-4.9-0.2-9.6,0.5-14.2,1.1c-1.6,6.4-1.6,6.4-0.7,9.5
		c23,2.5,46.1,5.7,69.2,5.1C274.2,760.4,276,750.4,277.9,740.2z M234.7,754.5c4.2,3.2,4.2,3.2,7.6,0.6c1.3-1,2.6-2,4.1-2.6
		c9.1-3.8,16.7-9.8,24.7-15.3c1.2-0.8,2.2-1.9,3.4-2.9c-0.1-0.3-0.3-0.6-0.4-1c-7.9-0.8-15.9-1.7-24-2.5c-0.3,1.8-0.4,3.2-0.7,4.4
		c-1.1,4.4-2.2,8.8-3.3,13.2c-0.4,1.8-1.4,2.7-3.2,3.2C240.3,752.4,237.8,753.4,234.7,754.5z"/>
	<path d="M782.7,569.6c-0.1,1.5-0.1,2.9-0.2,4.4c-0.3,3.3-2.2,4.8-5.4,6c-9.6,3.4-19.6,5.8-29.6,7c-10.6,1.3-21.2,4-32,3.4
		c-2.4-0.1-4.9,0.7-7.4,1.2c-7.1,1.2-14.2,2.4-21.3,3.7c-1.6,0.3-2.7-0.3-3-1.8c-0.7-3.7-1.4-7.5-1.9-11.3
		c-0.7-5.3-1.1-10.5-1.7-15.8c-0.8-6.9-1.7-13.7-2.3-20.6c-0.2-2.5-0.2-5,0-7.5c0.2-2.8,2.3-4,5.2-3.9c4.4,0.2,8.8,0.5,13.2,0.1
		c8.8-0.8,17.6-1.8,26.4-3.1c15-2.2,30-4.6,45-7c1-0.2,2-0.6,3-0.9c3.9-0.9,6.4,0.3,7.3,4.3c1.2,5.2,2,10.4,2.6,15.7
		c0.9,8.7,1.3,17.4,2,26C782.5,569.6,782.6,569.6,782.7,569.6z M771.4,538.1c-0.4-0.1-0.8-0.2-1.2-0.3c-0.5,0.5-1,0.9-1.6,1.4
		c-4.3,3.3-8.3,7.2-13.1,9.6c-7.7,4-16,6.8-23.8,10.5c-2.4,1.1-4.4,1.2-6.7,0.7c-5.5-1.3-10.7-3.1-15.9-5.3
		c-6.5-2.7-13.3-4.7-20-7.1c-2.4-0.9-4.7-2.1-7.3-3.2c-0.1,1-0.3,1.6-0.2,2.2c0.6,6.6,1.3,13.2,2,19.7c0.1,0.7,0.5,1.4,0.7,2.1
		c1.6,5.9,4.4,11.5,2.7,18.6c8.6-0.7,16.7-1,24.7-2.1c12.4-1.7,24.8-3.9,37.1-5.9c7-1.1,14-2.2,21-3.5c3.1-0.6,3.2-1.3,2.9-4.3
		c-0.4-4.1-0.5-8.2-0.6-12.3C771.7,551.9,771.6,545,771.4,538.1z M687.9,539.3c-0.1,0.3-0.2,0.5-0.4,0.8c2.8,1.8,5.3,4.2,8.4,5.4
		c7.5,3,15.2,5.7,22.9,8c4.4,1.3,9,1.4,13.2-1.2c4.5-2.8,9.2-5.2,13.8-8c6.2-3.7,12.3-7.6,18.3-11.5c1.3-0.8,2.2-2.1,3.3-3.2
		c-0.2-0.2-0.3-0.5-0.5-0.7C740.6,532.4,714.3,535.8,687.9,539.3z"/>
	<path d="M268.6,961.2c10.9,3.2,21.7,4.5,32.4,6.1c7.1,1.1,14.1,3,21.2,4.4c1.9,0.4,3.9,0.3,5.6,1c2.4,0.9,4.9,1.9,7,3.4
		c0.9,0.6,1.3,2.7,1.1,4c-1.1,7.1-2,14.3-4.8,21.1c-0.9,2.2-1.3,4.5-1.9,6.8c-0.9,3.5-2.3,4.4-5.9,4.3c-5.9-0.2-11.7,0-17.7,0
		c-1.1,2.5-2.2,5.4-3.6,8.1c-1.9,3.8-5,4.8-9.2,4.4c-7.3-0.7-14.7-0.9-22-1.5c-10.7-0.8-21.5-1.3-31.7-5.2c-2.7-1-4.4-2.8-5.9-4.9
		c-0.9-1.3-1.9-2.6-2.4-4.1c-0.4-1.1-0.3-2.5,0-3.7c1.1-4.9,2.5-9.7,3.5-14.6c0.9-4.2,1.4-8.4,2-12.6c0.5-3.3,2.5-5,5.7-5
		c3.9,0.1,7.9,0.4,11.8,0.8c3.2,0.4,6.4,1.2,9.6,1.7c3.7,0.6,4,0.4,4.4-3.5c0.2-2.5,0-5,0.2-7.5C268,963.6,268.4,962.5,268.6,961.2z
		 M298.7,992.6c-3.4,1.9-7,2.8-8.9,5.2c-2.6,3.1-5.8,4.2-9.3,5.4c-9.6,3.1-18.2,1.4-25.2-5.9c-4.4-4.6-8.2-10-12.2-15
		c-0.8-0.9-1.7-1.7-2.7-2.8c-0.7,1.1-1.2,1.5-1.3,2c-1,6.6-2.1,13.1-2.9,19.7c-0.3,3,1.1,5.5,3.4,7.7c3,2.9,6.8,3.5,10.5,4.4
		c13.8,3.3,28,3.7,42.1,4.9c3.5,0.3,5.6-2,6.2-6c0.4-2.9,0.9-5.9,0.9-8.8C299.3,1000,299.8,996.5,298.7,992.6z M243.1,977
		c1,1.8,1.4,3,2.2,4c3.5,4.3,6.9,8.8,10.8,12.7c2.4,2.4,5.6,4.6,8.9,5.5c3.1,0.8,6.7,0,9.9-0.8c7.1-1.8,13.1-5.9,18.6-10.7
		c0.6-0.5,0.8-1.4,1.6-2.6c-3.6-0.8-6.7-1.5-9.9-2.1c-6.8-1.3-13.6-2.6-20.4-3.8c-5.8-1-11.6-1.9-17.4-2.7
		C246.2,976.3,244.9,976.7,243.1,977z M274.5,967.1c3.4,6.7,8.4,10.1,14.1,12.5c4.2,1.8,9,2.4,12.7,4.8c3.1,2,5.4,1.6,8.1,0.4
		c1.4-0.6,2.7-1.1,4-1.9c3.1-2,6.7-3.3,10-6.3C307.3,971.6,291.4,969.7,274.5,967.1z M321.5,1006.2c2.6-7.5,5.3-14.7,5.4-22.9
		c-7.4,3.7-14.1,7.1-21.5,10.7c0,2.2,0,4.8,0,7.5c0,2.1,1,3.2,3.2,3.4C312.7,1005.3,316.8,1005.7,321.5,1006.2z M276.7,977.8
		c0.2-0.2,0.3-0.5,0.5-0.7c-1.9-2.6-3.8-5.2-5.7-7.7c-0.3,0.1-0.5,0.2-0.8,0.3c0,2.2,0,4.4,0,7C272.5,977,274.6,977.4,276.7,977.8z"
		/>
	<path d="M588.8,1066.9c10.4,0.7,20.9,1.5,31.3,2.1c9,0.5,18,1.1,27,1.3c6.2,0.1,11.2,3.7,13.4,9.5c3.8,10,5.7,20.2,5.1,30.8
		c-0.4,6.4,0.6,12.9-2,19.1c-0.9,2.1-1.6,2.9-4,2.9c-9.4,0-18.8,0.5-28.3,0.6c-8.3,0-16.5-0.1-24.8-0.4c-9.3-0.4-18.5-0.9-27.8-1.5
		c-2.8-0.2-5.5-1-8.2-1.8c-3.9-1.1-6.7-5.6-5.5-9.4c1.9-5.9,1.5-12,1.9-18c0.7-9.7,0.7-19.5,1.1-29.2c0.1-3.9,1.4-5,5.4-5
		c5.2,0,10.3,0,15.5,0C588.8,1067.5,588.8,1067.2,588.8,1066.9z M655.9,1085.7c-0.9,0.2-1.2,0.2-1.5,0.4
		c-10.9,8.4-23.6,12.5-36.7,15.7c-1.8,0.5-3.8,0.6-5.7,0.7c-1,0-2-0.3-2.9-0.8c-4.3-2.7-8.7-5.4-12.8-8.4c-6-4.3-11.8-8.7-17.7-13.2
		c-2.3-1.7-4.6-3.5-7.4-4.8c-0.3,0.8-0.6,1.2-0.6,1.6c-0.7,13.7-1.3,27.4-1.9,41.1c0,0.4,0.1,0.9,0.1,1.3c0.4,3.6,1.3,4.7,5,4.8
		c11,0.5,22.1,0.9,33.1,1.2c10.2,0.3,20.3,0.5,30.5,0.5c6.4,0,12.9-0.4,19.6-0.6c0-5.1,0.2-9.7,0-14.2c-0.4-7-1.8-14-0.8-21.2
		C656.5,1088.6,656.1,1087.3,655.9,1085.7z M576,1072.7c0.7,1.2,0.8,1.6,1.2,1.9c5.5,4.2,10.9,8.5,16.6,12.4
		c4.9,3.4,10.2,6.4,15.4,9.5c0.9,0.6,2.3,1,3.3,0.8c9.8-1.8,19.1-4.7,26.9-11.3c1.3-1.1,3-2,4.6-2.5c3.1-1,5.3-2.9,7.7-5.7
		c-1.9-0.6-3.4-1.5-4.9-1.6c-7.3-0.5-14.7-0.7-22-1c-7.1-0.3-14.1-0.3-21.2-0.7C594.6,1074.1,585.7,1073.4,576,1072.7z"/>
	<path d="M861.4,817.1c1.1,8.3,2.1,15.9,3.2,23.5c0,0.3,0.2,0.6,0.2,0.9c-0.2,7.6,1.9,14.9,2.9,22.3c0.7,5,0.6,5-2.1,10
		c-9.7,1.3-19.4,2.6-29.2,3.8c-6.9,0.8-13.8,1.2-20.6,2c-6.2,0.7-12.3,1.6-18.4,2.3c-8.5,1-17,2-25.5,2.6c-3.7,0.3-4.3-0.4-3.5-4.1
		c1.4-6.9-0.1-13.7-0.4-20.5c-0.2-4.4-0.2-8.9,0.1-13.3c0.5-6.5,0.7-13-2-19.2c-0.3-0.7,0-1.7,0-3.2c4.4,0,8.7,0.1,12.9,0
		c2.6-0.1,5.3-0.5,7.9-0.8c5.4-0.5,10.8-1,16.2-1.6c3.1-0.3,6.1-0.7,9.2-1.1c11.4-1.3,22.8-2.7,34.2-4c2.5-0.3,5-0.6,7.4-1.2
		C856.8,814.9,859.3,815.7,861.4,817.1z M771.1,832.4c0.2,15.3-2.5,30.1,2,45.4c2.3-0.1,5.1-0.1,7.8-0.4c4.8-0.6,9.6-2,14.5-2
		c15.6-0.2,30.7-4,46.2-4.9c4.3-0.3,8.5-0.9,12.7-1.5c1.5-0.2,3.1-0.6,5-1c-0.6-3.5-0.9-6.5-1.6-9.5c-1-4.8-1.6-9.5-1.4-14.5
		c0.2-4.2-0.5-8.4-0.9-13.3c-1.5,1.1-2.3,1.7-3,2.4c-8.2,7.9-17.9,13.5-27.8,18.7c-1.6,0.8-3.8,1.8-5.3,1.4
		c-5.1-1.5-10-3.4-14.9-5.4c-3.9-1.6-7.8-3.5-11.6-5.3c-2.1-1-4.3-2-6.4-3C781.6,837.2,776.6,834.9,771.1,832.4z M774,829
		c1.2,0.9,1.7,1.4,2.3,1.7c13.4,6.1,26.6,12.7,40.6,17.3c1.8,0.6,3.3,0.4,4.9-0.9c3-2.4,6.3-4.4,9.2-6.9c7-6.1,13.8-12.4,20.6-18.6
		c0.3-0.2,0.2-0.8,0.3-1.2c-0.3-0.1-0.6-0.3-0.9-0.3c-8.2,1-16.3,2.2-24.5,3.1c-8.4,0.9-16.7,1.3-25.1,2.3
		C792.5,826.4,783.6,827.7,774,829z"/>
	<path d="M1232.2,708.7c2.5,0.9,5.8,2.1,8.8,3.2c-0.7,9.4-0.8,18.3,1.2,27.1c1.4,6,2.6,12,2.3,18.3c-0.1,1.2,0.6,2.5,1.1,3.7
		c0.4,1.1,0.9,2.1,1.3,3c-0.4,0.5-0.6,0.9-0.8,0.9c-3.6,0.4-6.1,3.1-9.4,4c-3.3,0.9-6.6,1.4-9.9,2.1c-4.4,1-8.8,2.2-13.3,3.2
		c-6.4,1.4-12.9,2.7-19.4,4.1c-8.6,1.8-17.2,1.9-26,1.2c-3.4-0.3-4.1-0.4-5.1-3.7c-0.6-2.1-1.1-4.3-1.2-6.5
		c-0.3-10.1-3.2-19.8-4.6-29.7c-0.5-3.6-0.7-7.3-1-11c-0.3-3.5-0.6-6.9-1-10.9c1.8-0.1,3.6-0.3,5.3-0.3c9,0.2,17.9-0.6,26.8-1.6
		c9.6-1.1,19.3-1.6,28.9-2.6c3.5-0.3,7-1,10.4-1.8C1228.3,711.1,1229.9,709.9,1232.2,708.7z M1232.2,726.8c-1.2,0.6-2.3,1-3.2,1.7
		c-4,3-8.2,5.9-11.8,9.2c-3.6,3.3-7.4,5.3-12.5,5.1c-1.9-0.1-3.9,1.2-5.6-0.8c-0.3-0.4-1.4,0-2.1-0.1c-1.1-0.1-2.4-0.1-3.4-0.5
		c-9.6-4.5-19.2-9.1-28.7-13.8c-1.8-0.9-3.3-2.3-5.2-3.6c-0.3,1.4-0.6,2.4-0.7,3.4c-0.7,6.7,0.7,13.2,1.8,19.8
		c1.1,6.4,2.4,12.7,3.5,19.1c0.3,1.9,0.5,3.7,0.8,6c1.7,0.1,3.1,0.3,4.5,0.2c4.8-0.4,9.7-0.7,14.5-1.4c16.4-2.7,33-4.6,49.2-8.4
		c3.1-0.7,3.8-1.3,3.3-4.5c-0.4-2.9-1.3-5.8-1.7-8.7C1234,742,1233.2,734.7,1232.2,726.8z M1165.3,722c3.2,2,5.8,3.6,8.4,5.1
		c7.7,4.6,15.7,8.6,24.5,10.8c2.8,0.7,5.1,0.9,7.2-1.6c0.9-1.1,2.3-1.9,3.5-2.7c7.2-4.9,13.9-10.4,19.9-16.8
		c0.5-0.5,0.7-1.4,1.1-2.2C1223.6,714.4,1168.8,720.4,1165.3,722z"/>
	<path d="M673.3,784.2c-0.4,0.3-0.7,0.7-1.1,0.8c-16,3-32,6.2-48.2,7.9c-5.3,0.5-10.6,0.8-15.8,1.3c-2.5,0.2-5,0.5-7.5,0.8
		c-5.7,0.9-11.3,1.8-17.2,1c-3.2-0.4-4.8-1.8-5-4.9c-0.4-7.6-0.8-15.3-1.4-22.9c-0.4-5.6-1.5-11.1-1.8-16.7
		c-0.1-2.2,0.9-4.4,1.3-6.4c13.4-1.3,26.2-2.4,38.9-3.9c14.1-1.6,28.1-3.6,42.1-5.5c6.2-0.8,6.5-1,8.4,4.7c1.8,5.6,3.5,11.3,4.4,17
		c1.4,8.4,2,16.9,3,25.4C673.5,783.3,673.4,783.7,673.3,784.2z M581.2,789.6c0.8,0.1,2.2,0.5,3.6,0.5c12.8-0.5,74.1-9,78.1-10.9
		c0.4-5.7-1.7-11.2-2.4-16.8c-0.6-5.6-0.2-11.3-2-17.4c-1.9,1.5-3.3,2.5-4.6,3.6c-5.7,5.2-11.9,9.6-18.8,13.1
		c-2.5,1.2-5.1,2.6-7,4.6c-3.6,3.8-7.3,3-11.3,1.1c-1.3-0.6-2.6-1.3-4-1.8c-10.5-4.3-21-8.5-31.5-12.8c-0.7-0.3-1.5-0.5-2.3-0.8
		c-0.1,0.8-0.3,1.2-0.2,1.6c0.8,8.8,1.7,17.6,2.5,26.4C581.4,783.1,581.2,786.1,581.2,789.6z M582.9,748.5c-0.1,0.4-0.2,0.7-0.3,1.1
		c3.4,2.2,7.3,3.4,11.1,4.9c8.3,3.3,16.6,6.6,25,9.8c1.1,0.4,2.8,0.6,3.6,0.1c2.9-1.9,5.5-4.3,8.3-6.4c2-1.5,3.9-3.1,6.1-4.2
		c6.3-3.2,11-8.4,16.8-12.3c-0.1-0.3-0.3-0.6-0.4-1C629.8,743.2,606.3,745.8,582.9,748.5z"/>
	<path d="M1001,1140c-0.5,0.7-1.2,1.6-2,2.5c-1.9,2.3-4.2,3.4-7.3,3.6c-8.1,0.6-16.1,1.6-24.2,2.2c-14.4,1.1-28.7,2.7-43.2,2.4
		c-1.2,0-2.4,0.1-3.5,0.3c-7,0.6-14,1.3-21.1,1.9c-1.6,0.1-3.2,0-4.8,0c-2-6.4,0.1-12.4-0.6-18.4c-0.7-6-0.9-12.1-1-18.1
		c-0.2-6,0-12,0-18.2c4.8-0.5,9-1.1,13.2-1.3c19.1-1.2,38.3-2.2,57.4-3.5c6.6-0.4,13.2-1.6,19.8-2.4c0.9-0.1,1.8-0.2,2.6-0.6
		c4.2-1.8,6.6-0.8,7.6,3.6c1.3,5.6,2.3,11.3,3.2,16.9C998.4,1120.4,999.6,1129.9,1001,1140z M897.5,1146.9c3.3,0,7,0.1,10.6,0
		c14.5-0.6,28.9-1.1,43.4-1.8c7.1-0.4,14.1-1.5,21.2-2.1c5.4-0.5,10.9-0.6,16.3-1c1.5-0.1,3-0.6,4.4-1c-0.8-7.2-1.6-13.8-2.4-20.3
		c-0.9-6.6-0.4-13.4-2.5-20.3c-1,0.7-1.5,1-1.8,1.4c-6.5,7.4-14.8,12.5-23.1,17.6c-2.3,1.4-5.6,2.2-6.6,4.1
		c-1.5,2.9-3.7,2.2-5.8,2.9c-2.4,0.9-3.3-1.5-5-2.1c-6.3-2.2-12.4-4.7-18.8-6.5c-7.8-2.3-15.5-4.8-22.5-9c-2.4-1.5-4.9-3.3-8.3-2.9
		c-0.2,0.9-0.6,1.7-0.6,2.6c-0.1,4.9-0.3,9.7-0.1,14.6C896.2,1130.9,896.9,1138.6,897.5,1146.9z M899.8,1102.3
		c0.3,0.6,0.3,1,0.5,1.1c8.8,5.2,17.8,9.8,28,11.9c4.6,1,9.2,2.4,13.5,4.1c2.9,1.1,5.5,1,8.1,0c2-0.8,4.2-1.6,5.9-2.9
		c8.8-6.4,17.6-13,26.3-19.5c0.3-0.3,0.4-0.9,0.8-1.9C955.1,1099.3,927.2,1097.8,899.8,1102.3z"/>
	<path d="M1217.5,983.7c-8.2,4.6-16.2,6.5-24.2,8.3c-16.5,3.7-33.2,7.1-49.8,10.5c-3.5,0.7-7,1-10.6,1.2c-3.2,0.2-3.7-0.9-2.5-3.9
		c0.4-1,0.4-2.2,0.3-3.3c-1.8-14.9-3.7-29.9-5.6-44.8c0-0.3,0-0.6,0-0.9c3.3-1.8,6.9-1.7,10.5-2.1c5.1-0.6,10.2-1.8,15.2-2.7
		c12.2-2.3,24.3-4.6,36.5-7c3.9-0.7,7.8-0.7,11.5-2.7c1.8-1,4.8,0.5,5.9,2.5c1.4,2.6,2.4,5.3,2.4,8.4c-0.1,2.3,0.4,4.7,1,7
		c1.4,5.5,2.9,11,4.4,16.6c0.2,0.7,0.5,1.4,0.6,2.1C1213.3,976.7,1213.2,980.7,1217.5,983.7z M1168.7,973.6c-1.2-0.7-2.3-1.5-3.5-2
		c-12-5.1-24.1-10.1-36.3-15.2c1.7,13.4,1.7,27.1,5,40.8c1.8-0.3,3.2-0.5,4.6-0.8c9.1-2,18.1-4.2,27.2-6c11.7-2.3,23.5-4.3,34.9-8
		c4.8-1.6,5-2.1,3.9-7c-1.6-7.2-3.1-14.4-4.6-21.6c-0.4-1.8-0.7-3.6-1.2-6.3C1191.4,960.3,1180.5,967.5,1168.7,973.6z M1166.7,968.6
		c1.7-1.9,2.6-3.3,3.8-4.3c2.5-2.1,5.3-3.8,7.6-6c4.3-4.1,8.3-8.3,12.3-12.6c0.9-1,1.4-2.3,2.5-4.3c-11.3,1.1-21.3,3.5-31.4,5.5
		c-10,2-20,4-31,6.3c9.2,6.4,19.3,8.2,28.2,12.6C1161.4,966.9,1164.2,967.7,1166.7,968.6z"/>
	<path d="M781,950.1c1.5-0.4,2.9-0.8,4.6-1.3c7.9,4.6,16.2,8.9,25.5,11.2c4.3,1.1,8.3,3.1,12.4,4.6c9.1,3.4,18.2,6.8,27.3,10.2
		c3.3,1.2,6.7,2.4,9.8,3.9c3.2,1.5,4.3,4.8,4.6,8c0.2,2.3-0.4,4.8-1.4,6.9c-2.7,5.6-5.9,10.9-8.6,16.5c-2.1,4.3-3.7,8.9-5.7,13.6
		c-6.2,0.5-12.6-0.4-18.9-2.4c-8.9-2.9-17.9-5.7-26.8-8.8c-13.1-4.5-26.1-9.1-39.1-13.9c-4.6-1.7-5.3-4.9-2.5-9.1
		c8.2-11.9,13.6-25,18.3-38.6C780.7,950.6,780.9,950.3,781,950.1z M765.7,991.7c0.2,0.2,0.5,0.5,0.9,0.7
		c11.7,5.3,23.8,9.4,36.1,13.2c9.4,2.9,19,5.2,28.6,7.9c1.4,0.4,2.7,1.1,4.1,1.6c2.7,0.9,5.5,1.8,8.2,2.7
		c4.1-10.7,11.1-19.2,15.4-29.5c-3.4,0.5-6.1,1.1-8.9,1.3c-10.1,0.4-20.2,3-30.2-0.7c-0.4-0.1-0.9-0.1-1.3,0
		c-3.4,0.6-5.6-1.4-7.6-3.5c-7-7.2-13.9-14.4-20.9-21.6c-2.4-2.5-5.1-4.7-7.8-7C776.7,968.5,771.3,980,765.7,991.7z M852.6,980.6
		c0-0.3,0-0.6,0.1-0.9c-1.4-0.7-2.8-1.5-4.2-2c-5.3-1.9-10.6-3.7-15.8-5.7c-4.7-1.8-9.3-3.8-13.9-5.6c-9.9-3.8-20.4-6-29.6-11.5
		c-0.5-0.3-1.3,0-2.9,0c2,2,3.4,3.4,4.9,4.8c1.4,1.3,2.9,2.5,4.2,3.9c6.2,6.3,12.3,12.7,18.5,19c0.7,0.7,1.9,1.4,3,1.5
		c9.9,0.7,19.7,0.5,29.5-1.6C848.5,981.9,850.6,981.2,852.6,980.6z"/>
	<path d="M257,1076.5c12.4-1.8,25-3.5,37.5-5.5c8-1.2,16-2.8,23.9-4.2c10.1-1.8,18.1,4.6,21.1,13.4c3.3,9.6,4.4,19.5,5.7,29.5
		c0.6,5.2-0.9,7.4-6.2,9.2c-2.6,0.9-5.4,1.2-8.2,1.7c-2.4,0.5-4.9,0.7-7.3,1.2c-10.6,2.5-21.1,5.3-31.8,7.7c-4.7,1-9.6,1.3-14.4,1.8
		c-5.9,0.6-10-2.6-12.9-7.1c-2.1-3.3-3.4-7-3.9-11.1c-1.2-9-1.6-18.2-4.5-27C255.1,1083.1,254.9,1080,257,1076.5z M330,1074.4
		c-5.5,8.2-9.9,16.6-17.5,22.5c-7.3,5.8-15.6,7.7-24.6,5.3c-9.1-2.4-17-7.4-23.6-14.1c-1.2-1.2-2.7-2-4.8-3.6
		c0.3,2.4,0.4,3.7,0.7,4.9c1.7,8.4,3.3,16.8,5.3,25.1c1.9,7.9,1.6,9.3,11.4,8.5c10.4-0.9,20.8-2.8,31.1-4.7
		c7.2-1.3,14.3-3.4,21.5-5.2c3.2-0.8,6.5-1.7,9.9-2.7c-0.2-2-0.3-3.4-0.6-4.9c-1.3-6.5-2.5-13-3.9-19.5
		C333.9,1082.1,332.8,1078.1,330,1074.4z M324.5,1070.7c-6.3-1.3-57.5,6.4-64.4,9.6c1.2,1.1,2.2,2.1,3.3,2.9c1.4,1.1,2.9,2,4.3,3.1
		c7.9,6.3,16.9,10.2,27,11.3c6,0.6,11-1.8,15.1-5.9c3.4-3.5,6.5-7.3,9.4-11.2C321.4,1077.6,323.9,1074.8,324.5,1070.7z"/>
	<path d="M609.2,1011.7c-5.7,0-11.5,0.1-17.2,0c-3.3,0-6.9-3-7.5-6.3c-1.3-7.2-2.8-14.5-2.6-21.9c0-0.6,0.2-1.3-0.1-1.7
		c-2-3.7-0.4-7.5-0.2-11.3c0.2-3.8,4.6-8.3,8.5-8.8c7.4-1,14.9-1.7,22.4-2.4c7.8-0.7,15.6-1.3,23.3-1.9c5.4-0.4,11-1.3,16.3-0.6
		c4.8,0.6,9.3,2.7,11.6,8.1c3.6,8.4,4.8,16.9,3.8,25.9c-0.3,2.3,0,4.7,0.2,7.1c0.4,4.7-1,7-5.6,8.7c-6.7,2.4-13.7,3.6-20.8,4.1
		c-10.7,0.7-21.5,1.3-32.2,1.9C609.2,1012.2,609.2,1012,609.2,1011.7z M655.5,966c-8.1,11.8-17,21.4-31.1,24.7c-0.5-0.7-1-1.5-1.6-2
		c-0.7-0.5-1.5-0.9-2.3-1.1c-10.6-3.2-20.6-7.9-30.2-13.4c-1.6-0.9-3.4-1.5-5.8-2.6c-0.1,5.3-0.5,9.8-0.3,14.3
		c0.2,3.8,0.7,7.6,1.7,11.3c1.5,5.8,4.4,8.2,10.3,8.3c10.5,0.1,20.9,0.2,31.4-0.2c5.9-0.2,11.8-0.9,17.6-1.7
		c5.2-0.7,10.4-1.9,15.7-3C661,988.7,660.5,977.6,655.5,966z M648.3,963.2c-0.1-0.3-0.2-0.7-0.4-1c-1.1-0.1-2.2-0.4-3.3-0.4
		c-4.2,0.2-8.5,0.5-12.7,0.7c-8.5,0.4-17.1,0.7-25.6,1.2c-4.7,0.3-9.4,1-14,1.9c-1.8,0.3-3.4,1.5-5.2,2.3
		c6.8,6.2,23.9,13.9,36.7,16.8C633.8,979.3,640.7,970.9,648.3,963.2z"/>
	<path d="M66.8,649.9c2.4-0.5,4.3-1,6.2-1.3c6.7-1.2,13.3-2.4,20-3.6c5.5-1,11-2.1,16.5-3.1c2.2-0.4,4.3-1,6.5-1.4
		c5.1-0.8,10.2-1.4,15.2-2.3c3.7-0.6,7.3-1.6,11-2.3c0.8-0.2,1.8-0.1,2.5,0.2c4.2,1.5,4.3,1.6,3.8,6.4c-0.4,4.8,0.8,9.3,2.2,13.9
		c1,3.2,2,6.5,2.6,9.8c0.7,3.4,0.5,6.8-2.1,9.5c-0.9,0.9-2,1.7-3.2,2.1c-10.9,3.3-21.7,6.7-32.7,9.5c-11.4,2.9-22.7,6.4-34.7,6.2
		c-2.5,0-3.9-0.7-4.5-3.1c-1.6-6.7-3.2-13.4-4.9-20.2c-1.2-4.9-2.6-9.7-3.8-14.5C67.2,654.1,67.1,652.5,66.8,649.9z M80.7,687.3
		c20.9-4.4,42.1-9.5,63.1-15.3c0.1-8.9-3.8-16.6-3.9-26.1c-1.8,2-2.7,3-3.7,4.1c-2.5,2.5-4.6,5.5-7.5,7.4c-6.5,4.3-13.3,8.1-20,12.1
		c-1.6,1-3,0.8-4.5-0.2c-1.5-0.9-3.1-1.6-4.8-2.2c-8.5-3.3-17-6.6-25.5-9.8c-0.6-0.2-1.3-0.2-2.9-0.4
		C74.1,667.1,75.1,677.5,80.7,687.3z M74.5,653c0.6,0.7,0.8,1,1,1.1c9.1,3.3,18.2,6.7,27.3,10c1.9,0.7,3.4,0,4.9-1.1
		c6.6-4.4,13.3-8.6,18.8-14.5c2.1-2.3,5.1-3.9,7.7-5.9c0.6-0.4,1.1-1,2.3-2.1C115.3,644.1,94.9,647.3,74.5,653z"/>
	<path d="M858.3,557.6c2.7-2.3,5-2.1,7.7-1.5c4.3,1,8.8,1.3,13.2,1.7c11.5,0.9,23,1.9,34.4,2.6c4.4,0.3,8.9,0,13.3,0.2
		c4.4,0.2,8.8,0.4,13.2,0.9c4.6,0.6,5.6,3,4.5,7.5c-1.2,4.8-1.9,9.8-2.9,14.7c-0.5,2.3-1.4,4.5-1.9,6.8c-0.5,2.7-0.7,5.5-1.2,8.2
		c-0.4,2.5-1,5.1-1.5,8c-6.3-2.6-12.2-1.5-17.9-1c-12.1,1.1-24.2,0-36.3-0.3c-8.8-0.2-17.7-1-26.5-1.5c-3.4-0.2-3.4-0.5-3-4
		c0.8-6.5,1.3-13.1,1.9-19.7c0.5-4.8,0.8-9.7,1.4-14.5C857.1,562.7,857.8,559.9,858.3,557.6z M935.9,572.5
		c-15,5.5-29.2,11.7-44.5,12.2c-5.1-3.5-10.1-6.9-15.1-10.2c-5.1-3.3-9-8.3-14.5-11.3c-4.1,10-5.1,27.3-2.2,33.9
		c23.9,1.3,47.8,3.2,72.1,1.8C933,590.3,934.4,581.9,935.9,572.5z M866.2,561.1c0.3,0.7,0.4,1.2,0.7,1.5c0.7,0.8,1.5,1.4,2.2,2.1
		c6.6,6,14.2,10.5,21.8,15c0.9,0.5,2.3,0.5,3.3,0.3c10.4-2.7,20.5-6.5,30.3-10.9c2.7-1.2,5.3-2.6,7.9-3.8c-0.1-0.4-0.2-0.7-0.2-1.1
		c-21.7,0.4-43.1-2.2-64.7-3.8C867.3,560.3,866.9,560.7,866.2,561.1z"/>
	<path d="M1123.2,535.8c5.1,0.5,9.8,1.1,14.4,1.4c10,0.7,20,1.2,30.1,1.8c6.9,0.4,13.8,1.1,20.8,1.5c2.9,0.1,5.7-0.3,9.2-0.5
		c0,0,0.4,0.8,1,1.1c3.6,2,3.7,5.2,3.1,8.7c-1.6,8.7-3,17.4-1.8,26.3c0.3,2.1-2.9,3.9,0,6c-4.2,2.9-8,4.4-12.7,4
		c-3.3-0.3-6.8,0.5-10.1,0.8c-7.8,0.6-15.6,0.8-23.4,1.7c-10.4,1.2-20.6-1.2-30.9-1.5c-0.6,0-1.2-0.1-1.8,0
		c-1.4,0.3-3.1,1.2-3.9-0.5c-0.7-1.7-1.6-3.9-1-5.4c1.6-4.3,1.9-8.8,2.6-13.3c1.3-7.6,2.3-15.2,3.4-22.8
		C1122.6,541.9,1122.9,538.7,1123.2,535.8z M1121.1,578.3c22.7,0,45.3,0,68.2,0c2-9,4.4-18.1,5-27.5c-1,0-1.5-0.1-1.8,0
		c-0.9,0.4-1.8,0.9-2.7,1.4c-8.2,5-16.9,8.8-26.2,11.5c-3.4,1-5.8,0-8.2-1.4c-9.6-5.2-18.3-11.8-26.2-19.4c-0.8-0.8-1.7-1.4-2.6-2.2
		C1123.4,546.4,1119.7,571.3,1121.1,578.3z M1131.6,540.3c-0.1,0.3-0.2,0.7-0.3,1c0.5,0.5,0.9,1.1,1.5,1.6
		c7.2,7.1,15.6,12.5,24.4,17.3c1.7,0.9,3.2,0.9,5,0c8.6-4.8,17.3-9.4,25.9-14.1c0.6-0.3,1.1-0.9,2.3-1.9c-8.4-0.9-16-1.9-23.7-2.4
		C1155,540.8,1143.3,540.1,1131.6,540.3z"/>
	<path d="M28.3,1015.7c3.3,0.6,6.7,1,10,1.9c8.5,2.4,17,4.7,25.3,7.6c9.9,3.4,19.6,7.4,29.3,11.2c1.1,0.4,2.1,1.1,3.2,1.5
		c6.3,2.3,8.2,7.7,9.4,13.4c0.3,1.3-0.2,2.9-0.5,4.3c-1.2,6.8-2.2,13.6-6.1,19.7c-3.4,5.4-10,8.4-16.3,7.1c-5.6-1.1-11.4-1.4-17-2.7
		c-10-2.3-20-5-29.9-7.7c-6.7-1.8-13.3-3.8-19.9-5.7c-3.2-0.9-5.6-4.8-5.3-8.2c0.5-5.6,1.5-11,3.8-16.3c1.8-4.2,2.9-8.7,4.4-13
		c1.2-3.3,2.4-6.6,3.7-9.9C23.6,1016.6,25.7,1015.5,28.3,1015.7z M96.2,1049.4c-3.2,1.2-5.7,2.5-8.3,3.1c-6,1.3-12.1,2.9-18.4,2.6
		c-1.6-0.1-3.2,0.4-4.8,0.4c-3.7-0.1-7.4,0.1-11-0.6c-2.3-0.5-4.6-2-6.3-3.7c-7.8-7.9-14.6-16.6-20.7-25.8c-0.5-0.8-1-1.7-1.4-2.6
		c-0.4,0.2-0.8,0.4-1.2,0.6c-1,2.2-2.3,4.4-3.1,6.7c-2.1,6-4,12-5.9,18.1c-0.4,1.4-0.8,2.9-1,4.3c-0.3,2.8,0.6,5,3.3,6.7
		c4.7,3,9.8,4.8,15,6.5c14.6,4.7,29.6,8.3,44.6,11.3c5.6,1.1,10.5-0.8,13-5.8c1.9-3.8,3.3-7.9,5.1-11.8
		C96.4,1056.4,96.5,1053.4,96.2,1049.4z M27.8,1020.1c0.5,1.4,0.7,2.1,1,2.7c5.5,7.9,11,15.7,17.6,22.6c3.6,3.8,7.6,5,12.5,5.2
		c9.5,0.3,18.4-2,27.2-5.1c2.3-0.8,4.8-1.3,6.6-3.6c-0.5-0.5-0.9-1-1.3-1.2c-6-2.7-11.9-5.9-18.2-8c-12.3-4-24.9-7.4-37.3-10.9
		C33.5,1021.1,30.9,1020.8,27.8,1020.1z"/>
	<path d="M1053.6,1034.1c16.2,5.4,31.6,10.9,47.2,15.7c8,2.5,16.3,3.9,24.4,6c3.2,0.8,6.3,2.3,9.2,3.4c0.7,6.8-2.1,12.4-3.4,18.2
		c-1.4,6-3.6,11.9-4.7,18c-0.7,3.5-3.8,5.1-4.7,8.2c-0.1,0.4-1.8,0.5-2.8,0.4c-9.2-1.4-18.3-2.9-27.2-5.7
		c-11.9-3.8-24-6.9-35.9-10.5c-4.9-1.5-9.7-3.4-14.6-5c-2.8-1-3.6-1.9-2.7-5c1.6-5.5,3.3-11,5.4-16.4c2.7-7,5.9-13.8,8.7-20.7
		c0.4-1,0.3-2.3,0.4-3.4C1053,1036.1,1053.3,1035.1,1053.6,1034.1z M1055.7,1039.8c-1.4,2.9-2.5,4.9-3.4,7
		c-1.7,3.8-3.2,7.6-4.8,11.4c-1.8,4.5-3.8,8.9-5.4,13.5c-1.1,3.2-0.3,4.9,2.8,6.4c2.4,1.2,4.9,1.9,7.5,2.6c5.3,1.4,10.6,2.7,15.9,4
		c7.5,2,15,4.1,22.6,6c8.3,2.1,16.6,3.9,24.9,5.8c1,0.2,2,0.2,3.5,0.3c0.8-3.4,1.5-6.7,2.2-10c0.7-3.5,1.4-7,2.1-10.4
		c0.7-3.2,1.6-6.4,2.6-10.3c-3.3,1-5.9,1.6-8.3,2.6c-8.2,3.5-16.8,4-25.6,3.5c-2.8-0.2-5.6-0.3-7-3.5c-0.3-0.6-1-1.1-1.6-1.5
		c-9.2-6.5-16-15.5-23.7-23.5C1058.8,1042.7,1057.7,1041.7,1055.7,1039.8z M1061.8,1040.5c0.9,1.7,1.2,2.6,1.7,3.2
		c7,6.5,12.6,14.4,20.2,20.4c2.8,2.2,5.4,3,8.9,2.2c7-1.6,14.2-2.7,21.3-4.2c2.9-0.6,5.7-1.9,8.5-2.8c-0.2-0.7-0.2-0.9-0.3-1
		c-0.7-0.3-1.3-0.6-2-0.7c-15.8-3.7-31.5-7.7-46.6-13.7C1070.1,1042.4,1066.4,1041.8,1061.8,1040.5z"/>
	<path d="M321.8,578.7c17.7-8.9,34.6-17.4,51.4-25.9c2.5-1.3,4.6-3.2,7.1-4.5c2.2-1.1,4.5-2.1,6.9-2.5c3.2-0.5,4.1,0.3,5.5,3.2
		c2.1,4.4,4.2,8.8,6.2,13.2c1.9,4.1,3.7,8.4,5.7,12.4c1.7,3.4,3.7,6.6,5.7,10.4c-3.3,2.1-6.6,4.2-9.9,6.2
		c-6.9,4.2-13.9,8.4-20.9,12.5c-3.4,2-7.1,3.7-10.6,5.5c-7.9,4.1-15.9,7.7-24.5,10c-2.8,0.7-3.9-0.3-4.2-3.1
		c-0.2-1.9-0.9-3.9-1.8-5.7c-4.5-8.5-9.2-16.8-13.8-25.3C323.6,583.1,322.8,581,321.8,578.7z M399.3,582.5
		c-1.7-3.7-3.6-7.3-5.3-11.1c-1.6-3.6-2.2-7.7-4.6-10.9c-2,4.1-3.8,7.9-5.8,11.6c-1.1,1.9-2.3,3.8-3.8,5.4c-1.7,1.8-2.8,3.7-2.1,6.3
		c-1.3,0.3-2.2,0.8-3.2,0.9c-4.9,0.4-9.7,0.9-14.6,0.9c-8.4-0.1-16.8-0.5-25.2-0.8c-2-0.1-4,0-6.2,0c1.3,5,12.4,25.7,15.2,28.4
		C362.3,603.2,382.8,596.8,399.3,582.5z M327.8,579.9c0.1,0.4,0.2,0.7,0.3,1.1c1.1,0.2,2.2,0.5,3.3,0.6c8.4,0.4,16.8,0.7,25.1,1
		c2.2,0.1,4.4-0.3,6.6-0.3c2.5-0.1,4.4-1.1,5.8-3.3c1.7-2.8,3.8-5.3,5.5-8c3.7-5.7,6.3-11.8,8.3-19.2
		C364,561.5,345.6,570.1,327.8,579.9z"/>
	<path d="M455.8,1054.7c-1.2,5.4-2.4,11.3-3.7,17.2c-0.5,2.3-1.7,4.4-2.2,6.7c-1.7,9.2-10.8,10.4-17.3,9.4
		c-4.1-0.6-8.1-1.5-12.1-2.1c-12-1.5-24-3.1-36-4.2c-5.3-0.5-10.1-1.9-14.5-4.8c-1.7-1.1-3.6-2.3-4.7-4c-2.2-3.2-5-6.5-1.7-10.8
		c0.4-0.5,0.4-1.4,0.6-2.1c0.8-3.4,1.6-6.8,3.9-9.7c1.1-1.4,1.5-3.5,2.2-5.3c1.9-4.9,4-9.8,5.7-14.8c0.8-2.3,2.2-2.9,4.4-2.6
		c4.4,0.8,8.7,1.5,13.1,2.3c16.8,3.1,33.6,6.1,50.3,9.5c3.3,0.7,6.3,2.9,9.4,4.6c0.7,0.4,1.2,1.7,1.4,2.6
		C455,1049.1,455.3,1051.6,455.8,1054.7z M377.8,1034c-0.9,1.3-1.5,2-1.8,2.7c-3.3,8.5-6.6,17-9.7,25.6c-1,2.7,0.3,5.4,3.1,6.5
		c5.1,2,10.2,3.8,15.4,5.3c3.2,0.9,6.7,1.1,10,1.9c13.7,3.2,27.7,3.8,41.7,4.8c5.3,0.4,6.9-1.1,8.1-6.1c1.2-5.2,2.8-10.2,4-15.4
		c0.5-2.2,0.6-4.5,1-7.5c-1.5,0.8-2.1,1.1-2.7,1.5c-4.4,2.4-8.7,5-13.2,7c-5.1,2.3-10.7,3.1-16.2,4c-11.5,2-20.2-2.8-27.4-10.8
		c-4.5-5-8.3-10.7-10.8-17.1C379.1,1035.7,378.6,1035.2,377.8,1034z M381.5,1031.7c1.5,7.3,5.1,12.8,9.3,18
		c7.2,8.7,12.6,11.3,23.5,10.4c7.4-0.6,14.3-3.1,20.6-7.4c3.6-2.5,7.1-5.1,10.3-9.1C423.8,1038.8,403,1034.3,381.5,1031.7z"/>
	<path d="M905.9,666.9c4,2.2,5.5,6,6,9.7c1.1,8.3,4.2,15.9,6.8,23.8c1.6,4.7,1,6.2-3.8,7.4c-10.3,2.6-20.5,5.3-30.9,7.4
		c-11.4,2.4-22.9,4.2-34.3,6.2c-0.6,0.1-1.2,0.1-1.7,0.2c-5,0.3-6.8-1.5-5.1-6.1c1.1-3,0.6-5.2-0.7-7.9c-1.6-3.5-2.4-7.3-3.8-10.8
		c-1.3-3.4-2.8-6.8-4.4-10.1c-1.2-2.6-0.7-3.4,1.6-4.8c2.9-1.7,6-1,9-1.5c7-1.1,14-2.3,20.9-3.8c10.5-2.2,21-4.6,31.5-7
		C899.9,668.9,902.8,667.8,905.9,666.9z M910.3,702.3c-2.1-9.5-4-18-6-26.6c-0.8,0.3-1.2,0.4-1.5,0.6c-7.8,6.7-15.5,13.5-23.3,20.3
		c-0.4,0.4-1.1,1-1.4,0.8c-2.7-1.1-5.5,0.9-8.3-0.5c-2.6-1.3-5.6-1.9-8.3-3c-6.1-2.5-12.2-5.1-18.6-7.8c0.1,1,0.2,1.7,0.3,2.4
		c0.9,8.8,5.4,16.6,7.4,25.1C870.3,709.9,889.9,706.2,910.3,702.3z M847.3,683.4c0,0.4-0.1,0.8-0.1,1.1c8.6,4,17.4,7.5,26,9.6
		c1.6-1.4,2.9-2.5,4.2-3.6c6.1-4.9,12.1-9.7,18.2-14.6c0.6-0.5,1-1.2,1.5-1.8c-0.1-0.3-0.2-0.5-0.4-0.8
		C880.3,676.7,863.8,680,847.3,683.4z"/>
	<path d="M89.9,956.9c7.1-1.2,13.5-2.3,19.8-3.5c5.4-1,10.7-2.1,16-3.2c3.8-0.7,7.5-1.4,11.3-2c7.3-1.1,14.6-2.1,21.8-3.2
		c1.3-0.2,2.6-0.5,3.8-1c3.1-1.2,5.5-0.7,7.2,2.1c3,5.2,6,10.5,8.5,16c3.1,6.7,0.1,16.7-6.9,19.8c-5.2,2.3-10.6,4.6-16.1,6.1
		c-8.9,2.6-18,4.7-27.1,6.7c-5.2,1.2-10.4,2-15.7,2.6c-4.6,0.6-11.4-3.4-13.5-7.7c-2.6-5.5-4.8-11-5.6-17.1c-0.4-3-1.6-6-2.4-9
		C90.8,961.6,90.4,959.5,89.9,956.9z M166.8,952.1c-3.5,3.3-6.9,6.1-9.9,9.2c-3.3,3.4-6.6,6.7-11,8.8c-3,1.5-6.2,2.7-9.2,4.3
		c-4.5,2.4-9,2.7-13.6,0.9c-5.7-2.2-11.3-4.8-17-7.1c-3.6-1.5-7.3-2.8-11.1-4.2c-0.1,0.7-0.3,1.2-0.3,1.6c1.2,7.7,3.4,15.2,6.7,22.3
		c1,2.2,2.8,3.4,5.3,3.4c1.9,0,3.9,0.1,5.7-0.3c14.4-2.9,29-5.4,42.6-11.4c4.8-2.1,9.6-4.5,14.2-7.1c2.8-1.6,4-4.4,3-7.6
		c-0.9-3.1-2.1-6.1-3.3-9.1C168.5,954.5,167.7,953.5,166.8,952.1z M97,959.5c0,0.4-0.1,0.7-0.1,1.1c1.2,0.6,2.3,1.2,3.5,1.7
		c3.8,1.7,7.5,3.4,11.3,4.9c4.1,1.6,8.2,3.4,12.5,4.5c2.1,0.6,4.8,0.3,6.9-0.4c4.8-1.6,9.4-3.7,13.1-7.2c4.7-4.3,9.2-8.7,13.8-13.1
		c0.4-0.4,0.6-1.2,1.3-2.6C137.7,951.1,117.3,955.1,97,959.5z"/>
	<path d="M353.1,734.9c7.3-2.4,13.8-4.6,20.3-6.6c7.9-2.4,15.8-4.7,23.7-6.9c7.1-2,14.2-4,21.4-5.4c8.3-1.6,16,1.8,19.7,9.4
		c3,6.3,5.6,13.1,5.7,20.3c0,4.1-1.1,7.9-6,9.7c-4.4,1.6-8.3,4.6-12.7,6.1c-12.5,4.4-25.2,8.3-37.8,12.4c-0.8,0.3-1.7,0.5-2.5,0.8
		c-9,3.4-22.5,0.3-25.2-13.3c-0.8-4-1.7-8-2.7-12c-0.9-3.6-2.1-7.1-3-10.6C353.6,737.3,353.4,736,353.1,734.9z M357.9,740.9
		c2.7,7.9,2.8,15.3,6,22.1c0.7,1.5,1,3.8,2.1,4.3c3.5,1.4,6.5,4.4,10.6,3.8c3.9-0.6,8-1,11.7-2.3c10.2-3.5,20.3-7.3,30.3-11.2
		c4.1-1.6,7.9-3.9,11.9-5.9c3.9-2,5.5-5.2,4.7-9.5c-0.4-2.2-0.6-4.4-1.4-6.5c-1.6-3.9-2.1-8.3-6.1-11.5c-1.1,1.2-2.2,2.4-3.2,3.5
		c-3.6,4-7,8.4-11,12.1c-4.2,3.9-8.8,7.5-14.9,8c-2.1,0.1-4.1,0-6.2,0c-7.8-0.3-15.6-0.1-23.1-3.1
		C365.9,743.2,362.5,742.3,357.9,740.9z M360,737.6c6.2,2.7,11.8,4.7,17.9,5.2c5.8,0.4,11.7,0.2,17.6,0.6c2.2,0.1,3.6-0.7,5.1-2
		c3.6-3.3,7.2-6.5,11-9.6c3.8-3.2,6.4-7.1,8.2-11.7C413.8,719.7,366.2,733.6,360,737.6z"/>
	<path d="M186.5,569.2c2.6,0.4,4.8,0.5,7,1c8.5,2,16.8,4.4,25.4,6c10.4,2,20.9,3.4,31.4,4.9c1.6,0.2,3.3-0.1,4.7,0.4
		c3.3,1.4,4.2,4.2,3.6,7.7c-1,6.1-1.9,12.2-2.9,18.4c-0.8,5.2-2.9,10.2-2.6,15.7c0.1,1.7-1.6,3.7-2.8,5.4c-1.4,1.9-3.4,1-5.3,0.8
		c-10.3-1.2-20.6-1.8-30.8-3.5c-10.3-1.7-20.5-4.2-30.7-6.5c-3.2-0.7-3.9-1.6-3.8-5c0.1-5.9,0.3-11.7,1-17.6
		c0.8-7.2,2-14.3,4.6-21.1C186.1,573.9,186,571.8,186.5,569.2z M251.1,590.7c-0.3-0.3-0.7-0.5-1-0.8c-11.6,6-23.5,10.7-36.3,10.8
		c-8.1-9.5-14.9-19.5-25.1-27.1c-0.2,2.3-0.1,4-0.6,5.4c-3.1,9.3-3.2,19.1-5.2,28.7c-0.2,1.1-0.2,2.3-0.2,3.5c0,1.8,0.8,3,2.8,3.3
		c2,0.2,4.1,0.6,6.1,1.1c14.5,3.7,29.2,5.7,44.1,7.2c2.2,0.2,4.4,0.3,6.9,0.5C245.5,612.3,248.3,601.5,251.1,590.7z M197.8,575.2
		c-0.2,0.3-0.3,0.6-0.5,1c1.5,1.6,3,3.1,4.4,4.7c3,3.5,5.9,7,8.8,10.5c2.2,2.6,4.7,4.2,8.4,3.1c3.2-0.9,6.7-1.3,9.9-2.1
		c6.2-1.6,11.9-4.3,18-8c-9-1.5-17.1-2.8-25.2-4.3C213.7,578.5,205.7,576.8,197.8,575.2z"/>
	<path d="M436.5,623.1c1.6-0.9,2.6-1.8,3.8-2.1c16.2-3.2,31.6-9.3,47.3-14.5c4.4-1.5,9-2.7,13.5-3.9c1.2-0.3,2.8-0.7,3.6-0.2
		c1.7,1.2,3.9,2.9,4.4,4.7c0.9,3.7,3.1,6.6,4.5,10c1.3,3,2.1,6.1,3.3,9.1c1.6,3.9,3.3,7.8,5,12.1c-2.1,2.2-4.8,3.7-7.9,4.8
		c-12.4,4.3-24.7,8.6-37.1,12.8c-7.2,2.4-14.5,4.6-22.1,7C449.7,649.2,444,635.9,436.5,623.1z M455.9,653.7c6-0.2,49-15.5,56.4-20.1
		c-0.9-7.2-3.6-13.8-6.9-20.7c-1.2,0.7-2.3,1-2.8,1.8c-3.5,5.2-8,9.3-13.1,13c-1.7,1.2-3,2-5.2,1.8c-4.4-0.6-8.8-1-13.2-1.3
		c-5.9-0.3-11.8-0.3-17.7-0.4c-2.1,0-4.3,0-7,0C449.7,636.8,452.8,645.3,455.9,653.7z M448.6,623.7c0.6,0.3,1.2,0.6,1.7,0.6
		c2.6,0.1,5.3-0.1,7.9,0.1c7.3,0.5,14.7-0.7,22,0.8c1.8,0.4,4.5-0.6,6-1.8c2.8-2.3,5.2-5.2,7.3-8.2c1.5-2.1,3.1-4.5,3.4-7.7
		c-16.1,5.1-31.8,10.1-47.4,15C449.2,622.7,449,623.2,448.6,623.7z"/>
	<path d="M575.3,907.9c-12.8,0.7-25.4,1.4-38-0.7c-2.2-0.3-4.2-1.2-6.3-1.8c-5.1-1.7-10.1-4-15.7-4.2c-3.2-0.1-3.8-1-3.2-4.2
		c1-5.6,2.2-11.2,3.4-16.8c1.1-5.2,2.5-10.3,1-16.2c2.2-0.4,4.1-1.1,6-1.1c7.1,0,14.1,0.4,21.1,2c4.1,1,8.5,1,12.7,1.8
		c5.2,1,10.4,2.2,15.4,3.8c5.3,1.8,8.5,5.5,8.8,11.4c0.3,5.7,0.6,11.4-0.3,17.1c-0.2,1-0.5,2-1,2.8
		C578,903.8,576.7,905.7,575.3,907.9z M569.9,883.9c-5.1,1.5-9.5,3.1-14,3.9c-4.7,0.8-9.6,1-14.5,1.2c-1.1,0-2.9-0.8-3.1-1.6
		c-0.7-2.3-2.6-3.1-4.2-4.3c-3.6-3-7.3-5.9-11-8.8c-1-0.8-1.9-1.6-3.3-2.7c-1,4.7-1.8,8.7-2.6,12.7c-0.8,4-3.2,7.8-2.3,12.4
		c1.6-0.5,2.8-1.3,3.7-1.1c3.8,0.8,7.8,1.6,11.4,3.1c10.8,4.4,22.1,2.8,33.2,2.7c2.3,0,3.4-1.2,4.2-3.2
		C569.2,893.5,569.4,888.7,569.9,883.9z M522.6,868.1c0.3,0.7,0.5,1.4,0.9,2c3.9,4.7,9,8,14.2,11.2c0.7,0.4,1.7,0.6,2.5,0.7
		c8.5,0.8,16.3-1.6,23.7-5.6C558.9,871.3,532,865.9,522.6,868.1z"/>
	<path d="M362.4,933.4c-14.5,3-28.9,6.1-43.3,8.9c-7.5,1.5-15.1,2.7-22.7,3.5c-7.4,0.8-12.4-2.4-15.4-9.2c-3.2-7.2-4.1-15-5.2-22.8
		c-0.3-2.3-0.3-4.7-0.5-7.4c2.6-0.6,5.2-1.3,7.7-1.8c11.4-2.2,22.9-4.4,34.3-6.6c7.7-1.4,15.4-2.8,23-4.2c0.6-0.1,1.4-0.1,1.7-0.4
		c2.8-4.1,6.6-1.6,9.5-0.9c3.6,0.9,6.3,3.8,7.9,7.2c3.5,7.4,4.7,15.5,5.4,23.6C365.1,926.4,363.3,929.7,362.4,933.4z M279.1,912.9
		c-0.2,0.7-0.5,1.1-0.5,1.5c0.4,7.3,1.9,14.3,4.6,21.1c1.4,3.5,4.2,5.8,8.1,6.1c3.2,0.2,6.5,0.1,9.7-0.3c16.1-1.9,31.9-6,47.6-9.8
		c3.1-0.7,5.9-2.6,8.7-4.1c1.9-1,2.4-2.6,1.8-4.9c-0.8-2.8-1.1-5.8-1.8-8.7c-0.7-3-1.4-6-2.5-8.9c-0.7-1.9-1.7-3.8-4.2-4.2
		c-0.8,0.7-1.8,1.2-2.4,2c-4.2,5.5-9.8,9.3-14.9,13.8c-5.5,4.8-12.1,7.1-19.1,8.7c-0.7,0.2-1.5,0.1-2.2,0c-2-0.3-4-0.8-6-1.1
		c-5.2-1-10.4-2-15.1-4.7C287.1,917.3,283.3,915.2,279.1,912.9z M281.3,909.3c0.6,0.8,0.7,1.3,1.1,1.5c10,7,21.1,10.4,33.3,9.8
		c1.1-0.1,2.3-0.6,3.3-1.2c3.6-2.3,7.2-4.6,10.7-7.1c5-3.5,8.3-8.5,11.9-13.7C321.6,902.2,301.7,905.7,281.3,909.3z"/>
	<path d="M216,850.8c3.7-0.5,5.3,1.2,6.3,4.7c1.4,4.5,3.9,8.6,5.4,13c1.1,3,1.5,6.3,2,9.5c0.5,3.7-1.1,6.8-4,8.8
		c-4.2,2.9-8.5,5.9-13.1,8c-8.9,3.9-18,7.3-27.1,10.8c-3.4,1.3-7,2.4-10.6,3.1c-7.1,1.5-14.3-2.7-17.2-10.1
		c-2.6-6.6-6.2-12.7-7.6-19.7c-0.8-4-1-5.3,2.4-7.6c2.2-1.4,4.6-2.4,7.1-3.3c7.7-2.8,15.5-5.8,23.3-8.2c10-3.1,20.1-5.8,30.2-8.6
		C214,850.9,215.1,850.9,216,850.8z M153.5,878.6c1.1,3.3,1.2,6.5,3.4,9.2c0.8,0.9,1.2,2.4,1.4,3.6c0.6,3.6,2,6.7,4.2,9.6
		c2.9,3.8,8.7,6,12.5,3.4c3-2.1,6.2-2.5,9.4-3.4c1.1-0.3,2.2-0.8,3.3-1.2c4.9-2.3,9.9-4.5,14.7-7c5.8-2.9,11.5-6,17.1-9.2
		c4.1-2.3,5.3-6.1,4.3-10.6c-0.9-4.5-3-8.5-5.7-12.3c-0.5,0.5-0.9,0.8-1,1.1c-2.8,6.1-8.4,9.4-13.2,13.4c-3.3,2.7-6.9,5.5-11.4,6.5
		c-2.6,0.6-5,1.6-7.6,2.2c-0.8,0.2-1.7,0-2.6-0.1c-1.9-0.3-3.7-0.9-5.5-0.8c-5,0.1-10-0.1-14.9-1.6
		C159.3,880.5,156.7,879.6,153.5,878.6z M209.5,857.5c-18.6,3.5-36.1,9.8-53.5,17.6c0.7,0.5,1.1,1,1.6,1.2
		c8.4,3.1,17.1,2.8,25.8,2.1c0.7-0.1,1.4-0.4,2-0.8c6.2-4,12.4-7.9,18.5-12C206.6,863.7,208.2,860.9,209.5,857.5z"/>
	<path d="M1230,1115.2c0.6,0.8,1.5,1.8,2,3c0.4,0.8,0.5,2,0.3,2.9c-1.3,4.7-2.7,9.3-4.2,13.9c-1.4,4.2-3,8.3-4.6,12.4
		c-1,2.5-2.3,5-3.7,7.9c-2.4,0-5.3,0.1-8.2,0c-4.6-0.3-9.1-0.8-13.7-1c-6.9-0.3-13.7-1.1-20.5-3c-6.3-1.8-13-2.3-19.6-3.3
		c-1.7-0.3-3.6-0.3-5.2-0.7c-0.8-0.2-1.9-1.2-2-2c-0.1-0.9,0.8-1.8,1.6-3.3c-1.4-3.2,0.6-6.7,2.1-10.1c2.9-7.1,6.2-14,9-21.2
		c1.1-2.8,1.6-5.9,2.4-9.1c2,0.7,4.4,1.9,6.9,2.4c7.4,1.6,14.8,2.8,22.1,4.3c9.7,2,19.3,4.2,29,6.3
		C1225.5,1114.9,1227.4,1114.9,1230,1115.2z M1224.9,1122.8c-2.9,0.8-5,1.3-7.1,1.9c-6,1.5-12,3.3-18,4.3c-4.6,0.8-9.4,0.7-14.1,0.6
		c-2.4,0-2.7-1.1-1.5-3.5c0.2-0.4,0.4-0.7,0.7-1.4c-7.1-3.9-10-12.2-17.7-16.2c-1.3,2.9-2.4,5.5-3.5,8c-2.9,6.5-5.7,12.9-8.5,19.4
		c-0.8,1.9-1.6,3.8-0.6,6.5c2.5,0,5.2-0.2,7.8,0c13.7,1.1,27.3,2.1,41,3.7c4.5,0.5,9.4-0.8,13.6,2.2c0.1,0.1,0.5-0.2,1-0.4
		C1218.1,1139.3,1221.8,1131.6,1224.9,1122.8z M1173.9,1108.6c3.7,5.3,7.5,10.3,12.7,13.9c1.6,1.1,3,1.6,4.9,1.2
		c8.6-2,17.2-3.9,25.8-5.8c0.5-0.1,1-0.7,1.8-1.4C1204,1112.7,1189.2,1109.8,1173.9,1108.6z"/>
	<path d="M876.2,909.5c11-5.2,22-8,32.9-11.4c8.4-2.6,16.6-5.9,25-8.8c1.9-0.6,4-0.7,6.1-1c1.8,5.2,3.6,9.9,5.2,14.8
		c2.2,6.9,4.2,13.8,6.1,20.7c0.9,3.2,0.6,4-2.3,5.7c-1.8,1-3.6,2-5.5,2.8c-6.9,2.9-13.8,5.9-20.9,8.5c-6.9,2.5-14.1,4.4-21.1,6.6
		c-1.9,0.6-3.8,1.3-5.8,2c-3.4,1.2-3.3,1.1-5.3-1.7c-4.6-6.2-6.5-13.5-9.3-20.5c-1.6-4-2.7-8.1-3.9-12.2
		C876.8,913.3,876.6,911.5,876.2,909.5z M937.5,901.6c-5.6,6-10.7,11.5-15.9,16.9c-0.7,0.7-1.6,1.3-2.6,1.6c-4.2,1.2-8.2,1-12.4-0.4
		c-4.9-1.6-9.9-2.7-15-3.9c-3.5-0.8-7-1.3-10.6-2c2.7,10.6,5,21.1,10.7,30.8c17.1-7.3,34.7-12.4,51.6-20.1
		C941.3,916.8,940.7,909.1,937.5,901.6z M884.2,911.1c1.5,0.8,2,1.2,2.5,1.3c7.6,1.7,15.2,3.4,22.8,5.1c2.3,0.5,4.3-0.2,5.9-2.1
		c3.7-4.4,7.4-8.8,11.2-13.1c1.5-1.7,3.1-3.4,3.5-6.7C914.5,900.2,899.5,904.8,884.2,911.1z"/>
	<path d="M1329.1,879.2c2.4,2.8,3.3,6,2.5,10.3c-1,5.7-0.5,11.8-1.1,17.6c-0.6,5.4-1.9,10.7-2.9,16.3c-1.2-0.2-1.9-0.3-2.8-0.4
		c-0.5,0.7-0.9,2-1.8,2.4c-1,0.5-2.3,0.2-3.4,0.3c-3.2,0.3-6.4,0.8-9.7,0.8c-6.2,0-12.4-0.3-18.6-0.4c-5.9-0.2-11.8-0.2-17.7-0.6
		c-6.2-0.5-12.3-1.4-18.4-2.1c-0.4-0.1-1-0.1-1.2-0.4c-0.5-0.8-1.4-1.9-1.1-2.5c2.2-4.5,1.4-9.5,2.1-14.2c1.1-8.2,1.4-16.4,1.9-24.7
		c0.1-1.7-0.5-3.4-1-5.7C1280.5,876.6,1304.6,879.8,1329.1,879.2z M1326.4,889.4c-0.4-0.2-0.7-0.4-1.1-0.6c-2,1.1-4,2.4-6.1,3.3
		c-6.1,2.6-12.4,4.7-18.4,7.6c-4.3,2.1-8.4,1-11.6-0.8c-9.9-5.6-19.3-12.1-28.9-18.2c-0.2,2.9-0.2,5.8-0.5,8.6
		c-0.8,8.4-1.8,16.7-2.6,25.1c-0.2,2.6,0.6,3.3,3.3,3.5c4.4,0.3,8.8,0.2,13.2,0.7c9.7,1,19.4,1.5,29.1,1c5.9-0.3,11.9-0.1,18.3-0.1
		C1322.8,909.3,1324.6,899.3,1326.4,889.4z M1293,896.8c13.8-4.5,25.4-10.5,27.2-14c-10.1-2.3-49.3-4-53.8-2.2
		C1274.7,887.1,1283.1,892.9,1293,896.8z"/>
	<path d="M452.7,933c8.7,1.1,17.1,2,25.6,3.2c10.4,1.5,20.8,2.3,31.2,2.7c3.4,0.1,6.8,0.5,10.2,0.8c2.2,0.2,3.6,1.7,3.3,3.8
		c-1.1,9.9-2.4,19.9-3.5,29.8c-0.2,1.9-0.5,3.8-0.7,5.7c-0.3,2.1-1.5,3.1-3.6,3c-4.3-0.1-8.6,0.2-12.8-0.2c-5.7-0.5-11.4-1.5-17.1-2
		c-9.4-0.9-18.8-1.5-28.2-2.4c-3.4-0.3-6.8-0.7-10-1.6c-4.2-1.2-4.9-3.4-4.1-7.7c1.8-9.2,3.3-18.6,4.9-27.8c0.6-3.5,0.5-3.5,3.8-6
		C452.2,933.9,452.4,933.4,452.7,933z M517.3,947.3c-4.4,2.7-8.2,5.2-12.2,7.3c-4.4,2.4-8.9,4.6-13.4,6.7c-4.1,2-8.4,1.8-12.4-0.3
		c-3-1.5-5.8-3.4-8.7-5c-4.7-2.6-8.8-5.8-12.1-10.1c-1.9-2.4-4.3-4.2-8-5.4c-0.5,10.3-4.1,19.8-4.3,30.1c4.3,0.5,7.9,1.1,11.5,1.3
		c14.7,0.9,29.5,1.7,44.2,2.6c2.8,0.2,5.6,0.5,8.4,0.8c4,0.3,4.7-0.3,4.9-4.2c0.2-4,0.5-7.9,0.8-11.9
		C516.3,955.4,516.8,951.6,517.3,947.3z M453.3,937c2.8,2.5,4.9,4,6.5,6c4.2,5.1,9.7,8.5,15.3,11.7c3.7,2.1,7.5,2.6,11.5,1.4
		c6.8-2,13.2-5,19.1-8.9c1.8-1.2,3.7-2.2,4.9-4.5c-0.9-0.2-1.5-0.5-2-0.5c-14-0.3-27.8-2.9-41.8-4.4
		C462.8,937.4,458.6,937.3,453.3,937z"/>
	<path d="M988.8,1041.4c0.6-12.8,3.9-25,6.9-37.4c-11.8,7-24.8,10.4-37.3,15.2c-3.9-5.2-7.8-10.5-11.8-15.6
		c-4-5.1-8.2-9.9-12.8-15.4c-3.7,12.9-7.2,25.1-10.8,37.5c-2,0-2-1.4-1.6-2.7c0.8-3.2,1.6-6.3,2.5-9.4c2.5-8.5,5-17,7.6-25.4
		c0.7-2.2,1.8-4.3,2.8-6.6c11.7,4.4,23.8,4.9,35.4,7.3c8.7,1.8,17.4,3.5,26.1,5.2c2.9,0.6,5.7,1.5,7.9,3.7c1.2,1.2,1.9,2.6,1,4
		c-2.6,3.7-2.5,8.1-3.7,12.2c-1.1,3.8-1.9,7.7-2.8,11.6c-1.1,5.5-2.2,11-3.3,16.4c-0.3,1.7-0.9,3.4-1.2,4.9c-2,0.9-3.4,1.4-5.4-0.1
		c-1.6-1.3-4.1-1.5-6.3-1.9c-9.5-2-19.2-3.3-28.5-5.9c-6.3-1.8-12.7-2.7-19-3.8c-4.8-0.8-9.6-1.2-14.5-1.8c-1.7-2-0.2-3.8,0.3-5.4
		c7.3,1.3,14.4,2.3,21.4,3.8c8.8,1.9,17.5,4.3,26.3,6.3C974.6,1039.2,981.3,1041,988.8,1041.4z M993,997.6c-0.1-0.5-0.1-1-0.2-1.5
		c-18.5-3.3-36.9-6.6-55.5-9.9c0,1-0.2,1.5,0,1.8c6.4,8,12.9,16,19.2,23.8c6.4-2.1,12.5-4,18.6-6.1
		C981.4,1003.6,987.5,1001.2,993,997.6z"/>
	<path d="M459.5,875.5c-10.5,3.2-21.2,4.3-32.1,5c-3.4,0.2-6.7,0.7-10.1,1c-4,0.3-7.9,0.5-11.9,0.8c-3.2,0.3-6.4,0.7-9.6,1
		c-1.2,0.1-2.4,0.4-3.5,0.3c-4.1-0.2-5.6-2.6-4.3-6.6c0.5-1.7,0.8-3.4,0.9-5.2c0.5-10,1-20,1.6-30c0.1-1.3,1.1-2.5,1.6-3.6
		c10.5,1.4,20.4-0.3,30.4-0.8c8.8-0.5,17.6-1.8,26.4-2.8c4.2-0.5,6.1,0.7,6.6,4.5c1.6,11.7,3,23.4,4.5,35.1
		C459.9,874.3,459.7,874.6,459.5,875.5z M391.4,877.3c19.9-1.7,39.2-3.3,59.2-4.9c-0.2-9.2-0.5-18.1-0.7-27.8
		c-8.2,6.2-15.5,11.7-23.3,17.6c-0.5-0.2-1.6-0.5-2.6-1.1c-7.4-4-14.7-8.1-22.1-12.2c-2.5-1.4-5.2-2.6-8.2-4
		C391.8,855.9,391.7,866.3,391.4,877.3z M399.1,842.4c-0.1,0.4-0.2,0.8-0.4,1.2c7,3.9,13.7,8.5,21.1,11.7c1.4,0.6,2.5,0.4,3.7-0.4
		c6.4-4.7,12.9-9.3,19.2-14c0.6-0.4,0.8-1.3,1.5-2.4C428.9,839.8,414,841.1,399.1,842.4z"/>
	<path d="M805.8,1129.4c-3.5,5.1-8.6,5.7-13.3,6.7c-15.8,3.5-31.6,7.3-47.8,9.1c-0.7,0.1-1.6,0.4-2.2,0.1c-1.4-0.7-3.1-1.3-3.9-2.5
		c-0.4-0.7,0.7-2.4,1.8-3.7c-3.9-13.2-7.9-26.5-11.8-39.7c0.6-0.3,1-0.6,1.3-0.6c10,0.1,19.4-2.9,29.1-4.5
		c7.1-1.2,14.1-2.9,21.1-4.5c2.3-0.5,4.5-1.5,6.7-2.2c2.9-1,4.2-0.6,5.3,2c4.4,10,8.9,19.9,11.5,30.6
		C804.5,1123.4,805.2,1126.7,805.8,1129.4z M788.4,1098.8c-3.3,2.6-6.1,4.8-8.9,6.9c-4.3,3.2-8.6,6.3-12.8,9.4
		c-2,1.5-4.1,1.5-6.3,0.7c-5.3-1.9-10.5-3.8-15.8-5.6c-3.5-1.2-7.1-2.2-11.7-3.6c3.6,11.5,6.9,21.9,10.3,32.5c1.6-0.3,2.8-0.4,4-0.6
		c10.9-1.9,21.8-3.8,32.7-5.8c4.3-0.8,8.7-1.5,13-2.5c3.8-0.9,4-1.3,3.2-5.3c-0.5-2.3-1.2-4.6-1.9-6.8
		C792.3,1111.9,790.4,1105.7,788.4,1098.8z M734.2,1102.8c1.2,0.9,1.6,1.4,2.1,1.6c7.9,2.5,15.7,5.1,23.6,7.4
		c0.9,0.3,2.4-0.1,3.2-0.7c5.5-4.4,11-8.9,16.4-13.4c1.1-1,1.9-2.4,3.3-4.1c-1.5-0.2-2.2-0.5-2.8-0.4
		C765,1096.5,749.7,1097.7,734.2,1102.8z"/>
	<path d="M1114.2,705c-2.4-1.7-3.7-3.6-5-6.1c-4.7-8.7-10.3-16.9-17.6-23.7c-1.1-1-2.8-1.9-2-3.5c0.5-1.1,2-2,3.3-2.5
		c10.5-4.2,20.9-8.9,30.7-14.6c4.5-2.6,9.1-4.8,13.7-7.3c1.2-0.6,2.6-1.1,3.4-2c2.1-2.6,5.3-0.6,7.7-2c0.4-0.2,2.5,1.5,3.2,2.6
		c3.1,5.2,6.2,10.4,8.8,15.8c1.7,3.5,3.1,7.3,3.9,11.2c0.4,2.1-0.4,4.9-1.6,6.6c-1.6,2.2-4,3.9-6.3,5.4c-7.1,4.8-14.8,8.6-22.7,11.9
		C1127.1,699.6,1120.7,702.3,1114.2,705z M1112.7,699.2c14-5.5,27.3-11.3,39.3-19.8c3.2-2.3,3.6-4.3,2.1-7.3
		c-2.8-5.7-5.8-11.2-8.7-16.8c-0.1-0.1-0.5-0.1-0.5-0.1c-1.5,2.8-3,5.4-4.4,8.2c-0.9,1.8-1.6,3.8-2.4,5.7c-0.8,1.9-1.5,3.8-2.3,5.7
		c-0.9,2.1-2.4,3.2-4.8,3c-1.9-0.2-3.8,0-5.7-0.1c-7.3-0.4-14.7-0.9-22-1.3c-2.1-0.1-4.2-0.4-7.1-0.7
		C1101.9,683.8,1107.2,691.3,1112.7,699.2z M1098.9,671.8c0.5,0.2,1,0.4,1.6,0.5c7.5,0.6,15,1,22.4,1.7c2.8,0.2,4.2-1,5.5-3.3
		c3.2-5.8,6.6-11.4,10-17.2c0.4-0.7,0.7-1.4,1.4-2.8c-1.6,0.5-2.4,0.7-3.1,1c-12.5,6.3-24.9,12.7-37.3,19.1
		C1099.2,671,1099.1,671.4,1098.9,671.8z"/>
	<path d="M740,738.7c3.3,1.4,6.2,2.6,9.2,3.8c12.6,4.9,25.3,9.8,38,14.6c1.6,0.6,2.3,1.5,2.6,3.1c0.3,1.8,1,3.6,1.3,5.5
		c0.1,0.9-0.2,2-0.7,2.8c-3.2,4.8-6.5,9.5-9.7,14.3c-1,1.6-1.9,3.3-2.7,5c-2.4,5.2-6.3,7.3-11.3,4.9c-8.6-4.2-17.9-6.5-26.1-11.9
		c-3.8-2.5-8.6-3.8-13.1-5.3c-2.5-0.8-4.4-2.2-6.2-4.1c-2.3-2.4-2.1-5,0.8-5.9c2.5-0.7,2.9-2.4,4-4.1c2.9-4.8,6.1-9.4,9.2-14.1
		c1.4-2.2,3.4-4.1,3.4-7C738.8,739.7,739.8,739,740,738.7z M740.5,745.8c-6,7.2-10.6,14.1-13.9,21.9c1.1,0.8,1.8,1.7,2.7,2
		c13.7,4.9,27.4,9.6,41.3,14.5c3.5-5.3,7.2-10.8,10.9-16.3c0.2-0.3,0.1-0.8,0.1-1.4c-0.7,0-1.2-0.1-1.8,0c-7.9,1-15.7,1.8-23.6,3
		c-2.8,0.4-4.5-0.5-6-2.6c-0.8-1.1-1.4-2.4-2.5-3c-1.5-0.9-1.8-2.1-2.2-3.5C744,755.8,742.4,751.2,740.5,745.8z M781.3,759.1
		c0.1-0.4,0.1-0.7,0.2-1.1c-11.5-2.8-21.9-8.8-33.8-11.7c-0.4,5.2,0.8,9.3,3.1,13.2c1,1.7,2.3,2.4,4.3,2.2c8.2-0.7,16.4-1.3,24.6-2
		C780.4,759.7,780.8,759.3,781.3,759.1z"/>
	<path d="M331.6,808.3c0.7-1.2,1.1-1.9,1.3-2.3c0.8,0.2,1,0.2,1.1,0.3c4.7,3.8,4.7,3.8,3.1,9.7c-0.6,2.1-1.3,4.2-2.2,6.3
		c-1.5,3.6-2.3,7.2-2.8,11.1c-0.5,3.6-1.6,7.2-2.9,10.6c-1,2.6-2.6,3.1-5.4,2.6c-10.6-1.9-21.1-3.8-31.7-5.7
		c-6.8-1.2-13.6-2.3-20.4-3.8c-2.8-0.6-5.6-1.8-8.2-3c-3.5-1.7-4.8-4.4-3.9-8.1c1.6-6.6,3.4-13.1,5.1-19.7c0.8-3.1,2-6.2,2.7-9.3
		c0.4-1.9,0.3-4,0.5-6.4c2-2,4.8-1.7,7.1-0.5c5.7,3.2,12,3.9,18.1,5.5c10.1,2.8,20.2,5.5,30.3,8.2c1.6,0.4,3.1,0.8,4.7,1.1
		C330,805.2,331.3,805.8,331.6,808.3z M329.3,815.5c-10.9,5.4-21.9,7.1-32.8,8.9c-1.6-4.7-4.7-7.7-7.7-10.7
		c-5.1-5.1-10.1-10.3-15.2-15.4c-0.7-0.7-1.5-1.1-2.6-1.8c-0.7,1.6-1.3,2.7-1.7,4c-2.3,7.8-4.6,15.5-6.7,23.4
		c-1.2,4.3-0.5,5.3,3.7,6.2c7.2,1.6,14.4,3.1,21.6,4.5c4.3,0.9,8.7,1.5,13,2.3c4.8,0.9,9.5,1.9,14.2,3c2.4,0.6,4.8,1.5,6.8,0.9
		C324.4,832.3,326.7,824.3,329.3,815.5z M274.6,794.5c0.4,0.8,0.5,1.4,0.9,1.8c3.8,3.9,7.6,7.7,11.5,11.6c2.6,2.6,5.4,5,7.7,7.8
		c1.5,1.7,3,2.2,5.1,1.7c7.3-1.8,14.6-3.5,21.9-5.4c2.4-0.6,4.8-1.5,7.2-2.3c0-0.3,0-0.6,0-0.9C311,803.7,293.2,798.4,274.6,794.5z"
		/>
	<path d="M1348.9,1090.5c0.4,0.7,1.3,2,1.9,3.4c0.4,1,0.6,2.3,0.2,3.3c-3.2,8.7-6.2,17.5-11.5,25.3c-1,1.4-1.5,3.2-2.4,5
		c-3-0.9-6.1-1.7-9.1-2.8c-4.9-1.7-9.6-3.7-14.5-5.5c-2.8-1-5.6-1.6-8.4-2.5c-4.1-1.2-8.2-2.3-12.2-3.7c-5.5-2-11-4.3-16.5-6.4
		c-2.7-1-2.8-1.5-1.8-4.2c3.8-9.6,9.1-18.4,14.3-27.3c1.1-1.9,2.8-3.3,4.2-4.9C1311.7,1077.1,1330,1083.7,1348.9,1090.5z
		 M1334.2,1120c2.6-6.7,5.2-13.6,8-21c-4.8,0-8.7,0.2-12.6,0c-4.4-0.2-8.8-1.2-13.2-1.2c-4.2,0-7.4-1.3-10-4.3
		c-2.7-3.1-5.3-6.3-8.1-9.4c-2-2.2-3.5-5-6.4-6.3c-3.7,5.9-7.3,11.6-10.9,17.3c-0.3,0.5-0.5,1.1-0.8,1.6c-1.7,3.8-1.5,4.3,2.5,5.8
		c7.3,2.7,14.7,5.2,22.1,7.8c9.2,3.2,18.3,6.4,27.5,9.7C1332.7,1120,1333.1,1119.9,1334.2,1120z M1296.5,1075.2
		c0.6,1.2,0.7,1.9,1.1,2.4c2.6,2.8,5.4,5.4,7.8,8.4c2.4,3,5.5,4.2,9,4.9c7.2,1.5,14.4,0.6,21.6,0.3c0.4,0,0.8-0.5,1.6-1.1
		C1323.8,1085.1,1310.4,1080.3,1296.5,1075.2z"/>
	<path d="M197.3,502.7c-9.2,7.3-18.8,12.9-28.7,18.2c-8.2,4.4-16.8,7.9-25.5,11.2c-1.9,0.7-4,1.1-6,1.4c-3.6,0.4-4.6-0.5-5.5-4.1
		c-1.8-7.1-3.6-14.3-5.9-21.3c-1.7-5.4-4.2-10.6-6.2-15.8c11.4-3,21.7-8.8,32.3-13.6c7.3-3.3,14.3-7.1,21.6-10.2
		c2.2-1,4.9-0.9,7.4-0.8c1,0,2.3,1.3,2.8,2.4c4.3,9.4,8.5,18.8,12.6,28.3C196.7,499.7,196.9,501.2,197.3,502.7z M178.1,476.8
		c-2.2,2.7-4.1,4.8-5.6,7c-2.9,4.3-5.6,8.6-8.3,13c-1.9,3.1-5.1,4.9-8.1,5.3c-4.4,0.6-9.1,0-13.6-0.7c-3.8-0.6-7.4-2.1-11.1-3
		c-2.2-0.6-4.4-1-7.8-1.7c1.8,4.5,3.2,7.8,4.4,11.2c1.2,3.3,2.3,6.7,3.3,10.1c1.1,3.5,1.2,7.3,3.5,10.6c3-1,6-1.7,8.8-2.9
		c3-1.3,5.7-3,8.6-4.5c12.4-6.4,24.8-12.8,37.3-19.2C185.7,493.5,182.1,485.5,178.1,476.8z M170.7,473.4c-8.2,2.7-40.6,18.6-43,20.9
		c8.8,3.5,17.6,5.9,27.1,4.7C159.5,490.3,167.2,483.6,170.7,473.4z"/>
	<path d="M17.1,511.2c2.4,0.8,4.4,1.2,6.1,2.1c6.8,3.3,13.9,5.7,21.3,7.2c7.7,1.5,15.4,2.9,22.9,4.7c2.3,0.5,4.4,2.3,6.3,3.8
		c0.6,0.5,0.6,2.2,0.3,3.1c-2.3,7.3-4.6,14.6-7,21.9c-1.4,4.2-2.8,8.3-4.3,12.8c-2.9,0-5.8-0.1-8.8-1.1c-3.6-1.2-7.3-2.1-11-3.1
		c-9.7-2.6-19.4-5-29-7.8c-5.3-1.6-5-1.9-4.9-7.4c0.2-8,3-15.3,4.7-22.9C14.6,520.2,15.8,516.1,17.1,511.2z M18.1,517.7
		c-2.2,9.4-5.1,18-6.2,27.1c-0.3,2.7,0.5,3.3,3.5,4c7.9,1.8,15.8,3.6,23.7,5.4c4.7,1.1,9.5,2.1,14.3,2.9c3,0.5,3.1,0.2,4-2.7
		c0.7-2.2,1.7-4.4,2.6-6.5c1.8-4.1,3.8-8.2,4.4-13.3c-6.9,1.3-13.3,2.5-19.6,3.6c-0.5,0.9-1,1.7-1.8,2.9
		C33.1,535,26.9,525.5,18.1,517.7z M56.8,527.4c0-0.2,0-0.4,0-0.7c-10.9-3-21.9-6.1-32.8-9.1c0,0.3-0.1,0.6,0.1,0.8
		c4,4.1,8,8.3,12.1,12.3c0.7,0.7,2.2,0.9,3.2,0.7c3.5-0.6,6.9-1.4,10.4-2.2C52.1,528.6,54.4,528,56.8,527.4z"/>
	<path d="M1038.7,789.9c1.8-0.7,1.9-2,2.1-3.7c0.6-5.1,1.9-10.1,2.9-15.2c0.8-4.1,1.6-8.1,2.2-12.2c0.3-1.8,1.1-3,2.8-2.7
		c5.8,1,11.1-1.4,16.6-1.8c6.6-0.6,13.2-1.6,19.8-2.3c4.8-0.5,9.7-0.8,14.5-1.3c1-0.1,2.3-0.3,2.8-0.9c1.7-1.9,4.1-1.8,5.4-0.8
		c1.5,1.2,3,3.9,2.7,5.5c-1.2,6.6,0.7,12.9,0.5,19.4c-0.1,4.4,0.2,8.8,0.3,13.2c0.1,2.3-1,3.4-3.3,3.9c-5.6,1.2-11.1,2.8-16.9,1.4
		c-1.6-0.4-3.5,0.2-5.3,0.3c-13.8,0.7-27.7,1.4-41.5,2.1C1041.9,794.9,1041.9,795,1038.7,789.9z M1043.8,789.2
		c2.4-0.3,4.3-0.4,6.2-0.7c6.6-1,13.1-1.9,19.8-1.4c3.9,0.3,7.9-0.4,11.9-0.7c3.1-0.2,6.1-0.8,9.2-0.8c2.9,0,5.8,0.6,8.8,0.9
		c3.3,0.4,3.9-0.1,4.1-3.5c0.2-5.2,0.5-10.3,0.3-15.5c-0.1-3.1-1-6.2-1.6-9.5c-0.9,0.3-1.4,0.4-1.7,0.6
		c-7.7,5.2-15.4,10.3-23.2,15.5c-1.3,0.9-2.7,1.8-4.5,0.7c-4.4-2.6-8.9-5.2-13.4-7.7c-3.3-1.8-6.8-3.3-10.5-5.1
		c-2.1,8-4.1,15.5-5.9,23.1C1043,786.2,1043.5,787.5,1043.8,789.2z M1054.2,760c-0.1,0.4-0.1,0.7-0.2,1.1c5.7,2.9,11.4,5.9,17.2,8.8
		c0.8,0.4,2.4,0.3,3.2-0.3c5.9-3.7,11.6-7.6,17.4-11.4c1.5-1,3.1-1.9,4.1-3.8C1081.6,755.4,1067.6,755.7,1054.2,760z"/>
	<path d="M698,888.6c-3.4-0.7-6.1-2.1-8.7-1.7c-8.6,1.1-17.1-0.7-25.6-1c-5.2-0.2-10.3-0.2-15.5-0.4c-4-0.2-8-0.4-11.9-0.9
		c-4.4-0.6-4.7-1.7-3.9-6.3c1.7-9,3.8-17.9,3.7-27.1c0-3,1.1-6,2.2-8.9c0.8-2,5-2.6,8.1-2c3.1,0.7,6.3,1.3,9.5,1.6
		c11.8,0.9,23.5,1.5,35.3,2.5c4.4,0.4,8.7,1.3,13.1,0.7c2.3-0.3,3,1,2.4,3.4c-1.2,5.2-2.5,10.3-3.6,15.5c-0.6,2.9-0.8,5.8-1.1,8.8
		c-0.2,1.8-0.5,3.5-0.7,5.2c-0.5,3-0.9,6-1.5,9.6C699.5,887.8,698.4,888.4,698,888.6z M697.4,859.2c-0.8,0-1.1-0.1-1.4,0
		c-5.4,2.1-10.8,3.9-16.1,6.2c-8.6,3.8-15.8,0.9-21.6-5c-3.3-3.3-7-5.9-10.7-8.5c-2.1-1.5-4.4-2.7-6.6-4c-2.2,3.9-5.7,26.8-4.9,31.9
		c3.4,0.2,6.9,0.6,10.4,0.7c13.3,0.3,26.6,0.5,39.8,0.8c2.4,0.1,4.8,0.7,7.4,1C694.7,875,697.6,867.4,697.4,859.2z M697.2,850.1
		c0-0.4,0-0.8,0-1.2c-3-0.4-6-1.1-9-1.3c-7-0.6-14.1-0.9-21.2-1.4c-6-0.4-12-1-18-1.3c-1.3-0.1-2.9-0.3-4,1.2
		c4.3,3.2,8.5,6.2,12.5,9.3c2,1.5,3.7,3.4,5.6,5c2.8,2.2,5.9,3,9.4,1.3c6.2-2.9,12.6-5.7,18.9-8.6
		C693.4,852.1,695.3,851.1,697.2,850.1z"/>
	<path d="M1006.9,510.5c6.6-0.7,12.6-1.2,18.6-1.8c7-0.7,14-1.4,21-2.4c2.1-0.3,4.2-1.1,6.3-2c3.7-1.5,7.1-0.2,8.6,3.4
		c0.4,1.1,1,2.2,1.1,3.3c0.4,5.6,0.7,11.2,0.9,16.7c0.2,5,0.3,10,0.4,15c0.1,3.6-1.5,5.7-4.8,6.3c-10.9,1.7-21.8,3.3-32.8,4.8
		c-3.8,0.5-7.6,0.8-11.4,1.3c-2,0.2-3.6-0.4-3.2-2.4c0.8-3.9-1-7.2-1.7-10.6c-1.8-8.3-2.8-16.5-2.5-25
		C1007.2,514.9,1007,512.8,1006.9,510.5z M1013.7,546.8c8.5,0.6,35.2-3.9,40.9-6.9c-0.2-8.1-0.4-16.3-0.7-25
		c-5.3,3.8-10.1,7-14.3,10.7c-2.5,2.2-4.7,2-7.2,0.9c-2.1-1-4.1-2.3-6.3-3.3c-4.9-2.3-9.9-4.1-15.1-5.5
		C1009,522.7,1010.5,538.3,1013.7,546.8z M1013.9,513.8c1,0.8,1.2,1.2,1.6,1.4c5.3,2.3,10.6,4.5,15.8,7c2,1,3.4,0.1,4.8-1
		c3.1-2.5,6.1-5.1,9.1-7.8c0.8-0.7,1.4-1.7,2.1-2.6C1036.2,511.8,1025.2,511.2,1013.9,513.8z"/>
	<path d="M912.1,749.8c6,3.1,12.3,3.2,18.6,4c6.9,0.8,13.6,2.5,20.4,3.9c4.6,1,9.3,1.7,13.7,3.3c4.1,1.5,7.9,4,12,6.2
		c-0.3,1-0.3,1.8-0.6,2.3c-4,6.4-5.6,13.6-6.9,20.9c-0.4,2.1,0.1,4.4,0.3,6.5c0.3,2.6-0.2,3.5-2.8,4c-1,0.2-2.1,0-3.1-0.1
		c-6.3-1-12.5-2-18.7-3.2c-9.8-2-19.6-4.2-29.4-6.6c-2.8-0.7-5.6-1.8-8.3-2.9c-1.9-0.7-2.6-2.2-2.2-4.3c0.8-4.2,1.4-8.3,2.2-12.5
		c0.5-2.6,1.2-5.2,1.8-7.8c0.2-1.1,0.7-2.5,0.4-3.5C908,756.1,909.8,753.2,912.1,749.8z M913.2,758.5c-2.1,9.1-4.5,16.8-4.9,25.2
		c2.3,0.8,4.4,1.6,6.5,2.1c7.1,1.5,14.1,3,21.2,4.2c7.2,1.2,14.5,2.1,21.8,3.1c3.1,0.4,3.5,0,4.2-2.9c0.2-1,0.6-2,0.9-3
		c1.1-4.7,2.2-9.3,3.4-14.2c-1,0.1-1.5,0-1.8,0.1c-7.9,2.7-15.9,5.3-23.7,8.2c-3.6,1.3-6.3-0.3-8.5-2.5c-4.8-4.8-9.2-9.9-13.8-14.9
		C917.1,762.3,915.5,760.8,913.2,758.5z M916.3,756.2c0.5,0.8,0.9,1.4,1.2,2c4.6,6.5,10.5,11.9,16,17.6c1.6,1.6,3.1,1.2,4.8,0.5
		c7.4-3.2,14.9-6.4,22.3-9.6c0.7-0.3,1.3-0.9,2.7-2C947.7,759.3,932.5,756.1,916.3,756.2z"/>
	<path d="M1256.7,1055.1c-2.1,1-3.6,1.8-5.1,2.6c-0.5,0.3-1,0.7-1.5,0.8c-12.7,2.5-25.5,4.9-38.1,7.6c-6.3,1.3-10.9-1.1-12-8.1
		c-1.1-7.1-2-14.3-2.9-21.5c-0.2-1.9-0.5-3.6-1.8-5.3c-1.9-2.3-1.2-3.9,1.9-4.7c2.7-0.7,5.5-1.1,8.2-1.6c7.6-1.3,15.1-2.5,22.7-3.8
		c6.4-1.1,12.7-2.4,19.1-3.6c4.4-0.8,6.8,1.2,7.1,5.7c0.4,5,1.1,10,1.6,15c0.2,2,0.2,4.1,0.3,6.2c0.1,1.6-0.2,3.5,0.5,4.8
		C1257.9,1051.4,1257.5,1053.3,1256.7,1055.1z M1203,1059.9c15.3-2.5,30.2-5.2,44.5-10.5c1.4-7.1-0.4-14.1-0.6-21.1
		c-0.7,0-0.9,0-1,0.1c-0.6,0.4-1.2,0.8-1.8,1.3c-6,4.8-12.1,9.3-19.5,12c-4.1,1.5-7.3,0.9-10.4-2.1c-4-3.9-9.2-5.5-14.9-6.7
		C1199.1,1042.2,1200.5,1050.7,1203,1059.9z M1242.3,1022.6c-5.5-0.6-36.6,4.9-39.9,6.9c5.3,3.1,10.5,6.1,15.9,9.2
		C1225.1,1032.1,1234.1,1028.5,1242.3,1022.6z"/>
	<path d="M23.6,874.3c13.4,1.5,25.9,5,38.4,8.2c4.1,1.1,8.3,2.1,12.3,3.4c1.9,0.6,3.8,1.4,5.3,2.6c0.8,0.6,1.2,2.4,1,3.5
		c-1.6,9-3.2,17.9-5.1,26.9c-0.4,1.8-1.4,3.6-2.5,5.1c-1.2,1.7-2.9,2.3-5.1,1.6c-1.5-0.5-3.2-0.5-4.7-0.8
		c-5.2-0.8-10.5-1.4-15.7-2.4c-6.5-1.2-12.9-2.7-19.3-4.3c-4.3-1.1-8.6-2.2-12.5-4.1c-2.6-1.2-3.1-4.7-3-7.3
		c0.3-3.7,1.4-7.4,2.5-11.1c1.3-4.5,2.9-9,4.5-13.3C20.9,879.6,22.3,876.9,23.6,874.3z M73.3,895.1c-1.3,0.4-2.5,0.8-3.7,1.3
		c-5.9,2.4-11.7,4.8-17.6,7.2c-3.2,1.3-6.1,0.6-8.6-1.5c-3.1-2.5-6-5.1-8.3-8.5c-3-4.4-6.6-8.5-10.4-13.2
		c-5.7,8.3-5.5,17.8-8.3,26.3c6.9,5,26.1,9.3,53,12C71.2,915.8,73.9,899.3,73.3,895.1z M28.4,879.7c1.5,2,2.5,3.4,3.6,4.7
		c2.5,3.1,5.1,6.1,7.5,9.2c3.9,4.9,6.6,5.8,12.5,3.6c5.4-2,10.7-4.2,16-6.3c0.7-0.3,1.3-0.9,2.1-1.4
		C66.4,886.5,35.7,879.2,28.4,879.7z"/>
	<path d="M1317.8,1013.6c0.7-1,1.2-1.8,1.9-2.8c-7.3-10.7-14.5-21.5-21.9-32.4c0.6-1.2,1.3-2.5,1.9-3.8c4.6,0.1,8.1-2.6,11.6-4.8
		c6.2-4,12.1-8.3,18.3-12.4c3.8-2.5,7.7-4.9,11.6-7.3c2.4-1.5,7.3-0.3,8.4,2.3c4.7,10.9,12.3,20.1,18.7,29.9c0.7,1.1,1.7,2,3,3.4
		c-3.1,2.3-5.9,4.5-8.9,6.5c-5.4,3.8-10.9,7.4-16.4,11.2c-0.4,0.2-0.7,0.6-1.1,0.7c-6.6,2.3-12.1,6.6-18.1,10.2
		C1323.6,1016.3,1320.9,1015.7,1317.8,1013.6z M1322.3,1009.5c8.9-3.5,32.1-18.3,37.7-23.8c-1.8-6.6-10-22.2-14.1-26.2
		c-0.2,1.7-0.4,3.1-0.7,4.5c-1,4.7-1.7,9.6-3.2,14.2c-1.5,4.8-2.1,4.9-7,4.8c-9.3-0.3-18.5-1.3-27.5-3.8c-1.7-0.4-3.4-1.1-5.2,0.7
		C1308.2,990.3,1314.9,1000,1322.3,1009.5z M1307.4,976.2c8.4,2.7,15.8,3.7,23.5,3.5c1.7,0,2.2-1,2.7-2.4c1.3-3.8,2.8-7.4,4-11.2
		c1-3.3,1.7-6.6,2.8-10.7C1328.2,960.9,1319,969.4,1307.4,976.2z"/>
	<path d="M226,1057.3c-0.3,2.3-0.1,5.1-0.9,7.6c-1.9,6.1-7.7,10-14.3,9.9c-6.7-0.1-13.5-0.1-20.2-0.4c-4-0.2-7.9-0.8-11.8-1.5
		c-5.9-1.1-11.8-2.5-17.7-3.8c-3.8-0.8-5.8-3.6-6.3-7.2c-0.5-3.6-0.5-7.3-0.3-11c0.4-5.7,1.3-11.4,2-17.1c0.1-1,0.5-2,0.8-3
		c0.6-2,1.9-2.8,4.1-2.3c4.3,1,8.6,2.1,13,2.8c5.7,1,11.4,2,17.1,2.4c9.7,0.7,18.9,3.1,27.9,6.6c3.5,1.4,5.3,5,6,8.7
		C225.9,1051.7,225.8,1054.4,226,1057.3z M217,1047.5c-2.2,1.4-3.6,2.4-5.1,3.4c-1.5,1-2.9,2.2-4.5,2.7c-5.8,1.7-11.6,3.4-17.7,3.4
		c-5.1,0.1-10-0.6-13.7-4.7c-2.6-2.9-5.5-5.7-8.3-8.5c-2.3-2.4-4.5-5-8.4-6.5c-0.7,6.8-1.8,13.2-2,19.6c-0.2,6.7,1,7.8,7.6,9.2
		c2.9,0.6,5.9,0.7,8.7,1.5c12.3,3.2,24.8,3.5,37.3,2.4c4.8-0.4,7.5-3.3,7.6-8.1c0.1-3.4-0.1-6.8-0.3-10.2
		C218.1,1050.5,217.6,1049.5,217,1047.5z M160.7,1032.7c4.5,4.4,9,8.3,12.7,12.7c4.9,5.8,10.8,7.5,18,6.6c6.8-0.9,12.3-4.6,18-7.9
		c0.6-0.3,0.9-1.3,1.5-2.3C194.2,1037.1,177.1,1037,160.7,1032.7z"/>
	<path d="M95.1,569.2c4.7,3.9,10.5,3.9,15.9,5c8.4,1.6,16.8,3.1,25.3,4.6c2.9,0.5,5.8,0.9,8.7,1.4c3.1,0.6,4.1,2.1,3,4.8
		c-2.5,6.3-5.2,12.5-7.7,18.8c-1,2.6-1.5,5.3-2.5,7.9c-1.4,3.9-2.3,4.5-6.5,4.1c-5.6-0.6-11.2-1-16.7-1.9c-7.7-1.3-15.3-2.9-23-4.4
		c-1.4-0.3-2.9-0.7-4.3-0.9c-3.6-0.6-3.9-1.4-3.8-5c0.2-7,3-13.2,5.2-19.6c1.2-3.6,2.3-7.3,3-11.1C92.2,571.2,93.1,570.1,95.1,569.2
		z M139.8,587.1c-2.7,0.8-4.8,1.2-6.8,1.9c-4.1,1.6-8.1,3.5-12.2,5.2c-2.8,1.1-7.6-0.6-9.7-2.7c-5.3-5.3-10.8-10.4-16.5-15.9
		c-0.8,2.6-1.4,4.6-2.1,6.5c-1.5,4.2-3.2,8.3-4.6,12.4c-1.9,5.5-1.8,5.9,3.7,7.4c3.6,0.9,7.3,1.1,10.8,2.1c8.8,2.7,18,3.3,27,4.2
		c1.1,0.1,2.3,0,3.3,0C135.1,601.3,137.3,594.6,139.8,587.1z M101.1,576c-0.1,0.3-0.3,0.6-0.4,0.8c4.1,3.7,8.2,7.4,12.1,10.9
		c7-1.9,13.7-3.7,20.3-5.5C122.6,578.7,111.7,577.9,101.1,576z"/>
	<path d="M1198.5,877.5c-11.2-1.5-22.4-2.7-33.6-4.4c-7.6-1.1-15-2.8-22.6-4.3c-3.1-0.6-5.3-4.2-4.1-7.4c2.7-7.2,5.5-14.3,8.3-21.4
		c0.6-1.6,1.3-3.3,2.1-4.9c1-1.9,2.2-3.1,4.9-2.6c12.3,2.4,24.6,4.6,37,6.7c4.6,0.8,9.2,2.1,14,1.1c3.2-0.6,6.4,3.5,5.3,6.6
		c-1.9,5.4-4,10.8-5.7,16.2c-0.8,2.4-1.1,4.9-1.4,7.3c-0.2,1.6,0,3.1-2.2,3.7C1199.6,874.5,1199.2,876.3,1198.5,877.5z
		 M1140.3,862.1c9.4,1.4,17.9,3,26.6,3.8c8.8,0.8,16.9,5.1,26,5c2.7-7.8,5.4-15.3,8.2-23.3c-7.7,2.9-14.8,5.6-21.3,8
		c-10.3-5.8-20-11.3-29.8-16.9C1145.1,846,1142.9,853.7,1140.3,862.1z M1151.6,835.1c0.9,1.2,1.2,1.8,1.6,2
		c6.5,3.7,13,7.5,19.6,11.1c0.6,0.4,1.7,0.2,2.5,0c5.3-1.2,10.6-2.5,15.9-3.7c1.8-0.4,3.6-1,5.4-1.4
		C1181.9,839.5,1167.5,836.1,1151.6,835.1z"/>
	<path d="M169.3,1137.5c-3.3,0.5-6.6,0.9-9.9,1.4c-5.5,0.9-11.1,1.7-16.6,2.7c-4.8,1-9.5,1.5-14.5,0.6c-3.2-0.5-6.5-0.1-9.7-0.1
		c-3.9,0-4.6-1-3.9-4.7c0.4-2.2,0.5-4.7,0.1-6.9c-1-6.3-2.4-12.5-3.6-18.7c-0.3-1.3-1-2.4-1.3-3.7c-0.7-2.7,0.1-3.8,2.8-4.3
		c5.8-0.9,11.6-2.1,17.5-2.6c6.3-0.5,12.7,0,19-0.2c3.7-0.1,7.3-0.6,10.9-1.2c3.2-0.6,5.8,0.4,8.3,2.2c0.7,0.5,1.2,1.7,1.2,2.7
		c0.5,9.1,1,18.3,1.3,27.4C171.1,1133.6,170,1135.3,169.3,1137.5z M165.4,1132.8c-0.6-7.8-1.2-15.2-1.7-22.5c-0.3-0.2-0.7-0.5-1-0.7
		c-6.8,7-15.1,11.2-23.6,13.5c-4.7-2.2-8.8-4.2-12.9-6.1c-4-1.9-7-5.7-12.1-6.4c0.5,8.9,2.8,16.9,4.7,25.5
		C134.3,1135.3,149.5,1134.1,165.4,1132.8z M159,1104.6c-1.9-0.1-2.9-0.2-3.9-0.2c-5.4-0.1-10.9,0-16.3-0.3
		c-7.2-0.5-13.9,1.6-21.5,3.4c6,4.1,11.1,8,17.4,10c2.2,0.7,3.9,0.8,5.8-0.4c4.7-3,9.5-5.9,14.2-8.9
		C156,1107.3,157.1,1106.2,159,1104.6z"/>
	<path d="M1234.6,467.2c-1.6,0-4.8-2.6-4.8-4.5c0.1-4.7-2.5-8.4-4-12.5c-1.6-4.3-3.5-8.4-5.2-12.7c-1.1-2.8-0.7-4,2.2-5.2
		c3.1-1.3,6.3-2.4,9.6-3.4c11-3.4,21.9-7.1,31.9-12.7c1-0.6,2.1-1.2,3.2-1.4c2.9-0.6,5.7,1,6.3,3.8c0.8,3.7,1.1,7.5,1.9,11.2
		c1.2,5.7,2.3,11.5,4,17.1c1,3.5,0.9,5.5-2.4,7c-2.2,1.1-4.7,1.8-7,2.6c-10.2,3.3-20.4,6.5-30.7,9.7
		C1238.1,466.8,1236.3,466.9,1234.6,467.2z M1224,440c2.9,7.2,5.6,13.9,8.5,21c13.1-4.1,26-8.1,38.7-12c-0.1-6.9-2.6-21.7-4.1-24.6
		c-1.1,1.3-2.2,2.4-3.2,3.6c-1.6,1.9-3,3.9-4.7,5.7c-2.5,2.7-5.1,5.3-7.8,7.8c-3,2.7-6.1,5.6-10.4,2.2c-0.3-0.3-0.8-0.3-1.2-0.4
		C1234.7,442.3,1229.8,441.3,1224,440z M1259.1,423.8c-0.3-0.3-0.6-0.5-0.9-0.8c-5.7,2-11.4,3.9-17,6c-5.5,2-11.8,2-16.9,6.3
		c2.8,1,5.1,2,7.4,2.7c7.1,2.1,14,3.2,19-4.1c0.4-0.6,1.1-1,1.6-1.5C1254.5,429.5,1256.8,426.7,1259.1,423.8z"/>
	<path d="M489.8,537.6c-3.9,2.3-8.2,3.2-12.8,0.3c-6.9-4.3-15.1-4.9-22.7-7.1c-4.1-1.2-8.3-2-12.3-3.5c-4.1-1.6-4.4-3.8-1.5-7
		c0.8-0.9,1.8-2.1,2-3.2c1.2-6.5,2.2-13.1,3.4-19.6c0.3-1.5,0.9-3,1.3-4.4c8.4,2.6,16.2,5.2,24.1,7.3c6.5,1.7,13.2,2.8,19.8,4.4
		c1.6,0.4,3.2,1.5,4.3,2.7c1.7,1.9,1.8,4,0.7,6.5c-2.1,4.7-3.8,9.6-5.3,14.5C489.9,531.3,490.1,534.3,489.8,537.6z M486.7,514.7
		c-5.7,0.4-10.8,0.8-15.9,1.2c-3.9,0.3-6.8-1.3-8.8-4.6c-2.8-4.7-7.6-7.2-11.8-10.3c-0.2-0.2-0.8,0.1-1.8,0.2
		c-0.9,6.5-3.2,12.9-2.9,19.2c12.2,3.6,23.8,7.1,35.2,10.6C482.8,525.1,484.7,520,486.7,514.7z M482.4,507.2c0-0.4,0-0.8,0-1.1
		c-8.4-2.5-17.2-4-25.9-5.5c4.6,3.7,7,11.3,15.3,8.4c1.1-0.4,2.4,0.1,3.5-0.1C477.7,508.4,480.1,507.7,482.4,507.2z"/>
	<path d="M46.9,842.2c-10.7-3.5-20.5-7.8-29.8-13.4c-4.7-2.8-9.2-5.8-13.8-8.8c-4.2-2.6-4.2-4.6-1.2-7.1c0.5-0.4,0.9-1.2,1.1-1.9
		c2.2-6.5,6.1-12,9.5-17.9c0.9-1.6,1.4-3.5,2-5.3c0.7-2,1.5-2.3,3.2-1.3c7,4,14.1,7.9,21.1,12c7.9,4.6,15.7,9.2,23.5,13.9
		c2.1,1.2,2,2.8,0.2,4.6c-1.6,1.6-3.3,3.4-4.5,5.3C54.4,828.8,50.8,835.3,46.9,842.2z M16.4,793.4c-4.1,6-7.8,11-9.9,16.9
		c-1.1,3.1-0.9,3.7,1.8,5.4c6.7,4.1,13.3,8.3,20.1,12.1c4.7,2.6,9.7,4.9,14.9,6.2c3.2-5.7,6.2-11,9.5-16.9c-2.2-0.2-4-0.5-5.7-0.5
		c-3.5,0-7.1-0.1-10.6,0.3c-2.6,0.2-3.8-0.8-5.2-2.9C26.8,807.3,21.9,800.9,16.4,793.4z M49.8,809.7c0.1-0.3,0.2-0.7,0.3-1
		c-9.3-5.2-18.3-11-28.8-14.2c3.5,4.5,6.9,9,10.7,13.8c1.8-2.3,3.9-1.4,6-0.8c2.1,0.6,4.3,1.1,6.4,1.5
		C46.2,809.4,48,809.5,49.8,809.7z"/>
	<path d="M1020,649.5c0.1-1.3-0.2-3,0.3-4.4c1.9-5.1,4.1-10.1,6.2-15.1c2-4.9,4-9.8,6-14.8c0.8-1.9,1.7-3.8,2.8-6
		c1.4,0.5,3.1,1.1,4.8,1.8c11.9,5.1,23.7,10.4,35.8,15.2c3.4,1.3,6.1,2.6,6.9,6.1c-2.6,5.1-5.1,10.1-7.5,15.1
		c-1.2,2.5-2.1,5.2-3.4,7.6c-1,1.8-2.1,3.7-3.6,5.1c-0.7,0.7-2.5,0.9-3.6,0.6c-6-1.4-12-2.9-18-4.4c-3.4-0.9-6.5-2.2-9.7-3.8
		C1031.9,650.2,1026.2,649.6,1020,649.5z M1072.6,637.2c-0.2-0.4-0.4-0.8-0.6-1.2c-4.6,0.9-9.2,1.6-13.7,2.6c-3,0.7-5.9,1.8-9.2,0.9
		c-4.2-7.9-7.1-16.5-13-24.8c-4.3,9.4-8.2,17.9-12.3,26.9c13.6,4.3,27.3,6,40.2,12.1C1067,648,1069.8,642.6,1072.6,637.2z
		 M1041.1,615.2c-0.2,0.3-0.5,0.5-0.7,0.8c0.3,0.8,0.5,1.6,0.9,2.4c2,4.1,4.1,8.2,6.1,12.2c1.9,3.8,2.4,4.1,6.4,3.2
		c0.7-0.1,1.4-0.4,2.1-0.6c4.3-1.4,8.7-2.8,13-4.2c0.5-0.1,0.8-0.6,2-1.4C1060.5,623.2,1050.8,619.2,1041.1,615.2z"/>
	<path d="M693.1,953.8c-0.2-0.7-0.7-1.8-0.7-3c0.1-8.8-3.1-17.1-4.1-25.8c-0.2-1.7-0.1-3.5,0.1-5.2c0.2-1.6,1.4-2.5,3-2.8
		c5.9-1,11.9-2.2,17.8-3.2c7-1.1,14.1-1.9,20.6-4.9c2.8-1.3,5.6-0.1,8.1,1c0.9,0.4,1.6,2.1,1.8,3.3c1.6,9.6,3,19.2,4.4,28.8
		c0.3,2.3-0.6,3.1-2.9,3c-2.3-0.1-4.7-0.1-6.8,0.6c-9.9,3.5-20.1,5.6-30.2,8.4c-0.4,0.1-0.9,0.1-1.3,0.3
		C699.7,955.9,696.5,955.9,693.1,953.8z M695.9,948.8c13.7-2.3,26.7-6.2,40.1-8.6c-0.6-3.4-1.1-6.9-1.8-10.3
		c-0.7-3.5-0.1-7.1-1.7-11.1c-1.2,1.5-2.1,2.4-2.8,3.5c-2.6,4.3-6.7,6.5-10.8,8.8c-3,1.6-6.3,1.7-9.4,0.7
		c-5.7-1.9-11.3-4.1-16.9-6.1c-0.2-0.1-0.5,0.2-1.1,0.4C692,933.6,694.1,940.8,695.9,948.8z M694.2,921.5c2.4,2.8,4.9,3.6,7.4,4.2
		c2.7,0.7,5.4,1.3,8,2.2c2,0.7,3.7,0.7,5.4-0.7c3.2-2.6,6.5-5.1,9.6-7.7c1-0.9,1.7-2.1,2.6-3.2C716,916.7,705.2,917.6,694.2,921.5z"
		/>
	<path d="M139.1,788.2c3.8,1,5.4,3.7,6.4,7.2c2.2,7,4.6,13.9,7,20.9c0.3,1,0.7,2,0.6,3c-0.1,0.9-0.5,2.1-1.2,2.5
		c-1.9,1-4,1.6-6.1,2.3c-2.8,0.9-5.7,1.4-8.5,2.4c-10.1,3.7-20.1,7.6-30.2,11.3c-4.3,1.6-6.2,0.6-7.7-4c-2.8-8.8-5.5-17.7-8.3-26.6
		c-0.6-1.9,0.5-4.1,2.6-4.8c5.7-1.9,11.5-3.7,17.3-5.5c4.1-1.3,8.2-2.5,12.3-3.7c3.4-1,6.5-2.7,10.2-2.7
		C135.3,790.6,137.1,789.2,139.1,788.2z M101.2,832.8c15.1-3.7,29-8.2,42.8-14.2c-1.4-5.7-2.7-11-4.2-17.1c-2.6,3.2-4.4,5.9-6.6,8.3
		c-3.7,4-7.2,9.1-13.9,4.9c-0.5-0.3-1.2-0.2-1.7-0.3c-5.3-1.3-10.6-2.6-15.8-4.1c-2.4-0.7-4.6-1.8-7.6-2.9
		C95.5,816.3,99.4,823.9,101.2,832.8z M134.9,794.1c-10.3,2.6-19.6,4.8-28.9,7.4c-2.6,0.7-5,2.3-7.8,3.7c0.8,0.6,1.1,1.2,1.6,1.3
		c5.2,1.4,10.5,2.9,15.7,4.2c2,0.5,4.1,0.6,6.8,0.9C126.7,806.7,131.3,801.4,134.9,794.1z"/>
	<path d="M490.5,812.8c-5.7-0.2-11.4-0.4-17.1-0.7c-2.6-0.1-3.8-1.9-3.5-4.5c0.3-2.3,0.6-4.7,0.6-7c0.1-6.2-0.1-12.4-0.1-18.6
		c0-1.6,0.3-3.2,0.8-4.7c0.6-2,2.2-3.1,4.1-2.6c4.6,1.3,9.1,0.2,13.6,0.2c9,0,18-0.2,26.9,1.1c2.8,0.4,5.6,1.8,8.2,3.1
		c0.8,0.4,1.6,2,1.4,2.9c-1.3,5.5-0.2,11.2-0.8,16.7c-0.1,1.2-0.1,2.4-0.3,3.5c-0.5,5.1-2.9,7.5-7.9,8.1c-6.3,0.7-12.5,1.7-18.8,2.3
		c-2.3,0.3-4.7,0-7.1,0C490.5,812.7,490.5,812.7,490.5,812.8z M517.4,786.3c-1.2,0.7-2.1,1.2-2.9,1.7c-3.9,2.6-7.9,5.1-11.8,7.8
		c-3.3,2.3-6.4,2.4-9.6-0.4c-3.7-3.1-7.6-6-11.5-8.9c-1.7-1.3-3.6-2.2-5.8-3.5c-1.6,7.9-2.3,15.1-1.4,22.7c1.8,0.2,3.2,0.4,4.7,0.4
		c9.4-0.2,18.9-0.4,28.3-0.7c2.8-0.1,5.5-0.8,8.3-1.3c1.7-0.3,2.8-1.1,2.7-2.9C518.1,796.4,517.7,791.6,517.4,786.3z M513.4,780.1
		c-5.9-2.8-7.6-2.8-36-0.9c0.1,0.3,0,0.7,0.2,0.8c5,3.6,10,7.3,15.1,10.8c2.5,1.7,5,2.2,7.6-0.1c1.1-1,2.5-1.5,3.7-2.3
		C507.4,786.1,510.8,783.8,513.4,780.1z"/>
	<path d="M288.6,692c0.2-1.1,0-2.3,0.5-2.6c2.3-1.6,2.2-3.9,2.6-6.2c0.7-4.2,1.7-8.4,2.6-12.5c1-4.6,2.2-9.1,3.2-13.4
		c4.2,1.5,8,3.5,12,4.4c9.3,2.1,18.8,3.7,28.2,5.5c3.1,0.6,6,1.2,8.6,3.5c2.2,1.9,2.9,3.7,2.3,6c-1.4,5.2-3,10.4-4.7,15.6
		c-0.8,2.4-2,4.6-2.8,6.9c-0.7,1.9-1.8,2.6-3.7,2.2c-8.4-1.7-16.7-3.4-25.1-5.1c-5.6-1.1-11.3-1.9-17-2.9
		C293.1,692.9,291,692.5,288.6,692z M335.5,694.5c0.7-3.7,1.3-6.9,2-10c0.8-3.2,1.8-6.3,2.9-10.1c-5.6,2.2-10.4,4-15.2,5.8
		c-0.6,0.2-1.4,0.1-2.1,0.1c-3.5,0.3-6.2-1.2-8.7-3.3c-4.9-4.1-9.7-8.3-14.9-12.8c-0.5,1.1-1.2,2.2-1.6,3.4c-1,3.4-2.2,6.8-2.7,10.2
		c-1.5,9.1-1.3,9,7.3,10.8c2.8,0.6,5.8-0.2,8.6,0.4c5.5,1,10.9,2.5,16.3,3.7C330,693.4,332.6,693.9,335.5,694.5z M331.7,670.6
		c0-0.4,0-0.8,0-1.3c-8.2-1.5-16.4-2.9-24.6-4.4c-0.1,0.3-0.3,0.6-0.4,0.9c3.1,3.2,6.8,5.8,10.5,8.4c0.4,0.3,1.2,0.3,1.7,0.2
		C323.1,673.3,327.4,672,331.7,670.6z"/>
	<path d="M690.6,1057.8c-1.7-7.9-0.3-14.8,0.5-21.8c0.3-2.9,1.1-5.8,1.5-8.7c0.4-2.5,1.3-3.3,3.7-3.2c14.1,0.8,28.2,1.3,42.3,2.5
		c4.3,0.3,7.6,3.4,8.9,7.5c1.2,3.9,2,8.1,2.1,12.1c0,3.1-1.4,6.2-2,9.3c-1.1,5.9-1.1,5.7-7.2,6.1c-14.3,1-28.5-0.3-42.7-2.1
		C695.4,1059.4,693,1058.5,690.6,1057.8z M740.7,1035.3c-2.1,1.6-3.9,3-5.8,4.4c-4.9,3.7-10.9,4.4-16.6,5.5c-5.2,1-9.7-0.4-13.2-4.4
		c-2.5-2.8-4.8-6-7.2-8.9c-0.7-0.8-1.5-1.6-2.3-2.5c-2.6,6.3-4,17.2-3,22.8c3.4,1.3,45.7,3.6,49.9,2.7
		C743.6,1049.3,742.8,1040.3,740.7,1035.3z M699.2,1027.6c0.8,4.6,3.5,7,5.9,9.5c2.8,2.8,6.1,4.1,10,3.5c7-1,13.3-3.7,18.6-8.5
		c0.6-0.5,0.7-1.4,1.4-2.7C723,1028.3,711.3,1028.2,699.2,1027.6z"/>
	<path d="M554.6,738.4c-0.8-0.1-1.5,0-1.9-0.3c-4-2.8-8.6-2.7-13.1-3.1c-7.4-0.7-14.6-2-21.5-4.9c-1.4-0.6-3.1-0.6-4.7-0.9
		c-2.6-0.4-3.5-1.4-2.8-3.8c2.2-8.2,4-16.6,7.5-24.4c1-2.1,1-4.6,2-6.8c0.9-1.9,2.4-3.5,3.9-5.6c10,3.2,20.2,6.5,30.5,9.6
		c2.9,0.9,6,1.6,9,2c4.2,0.6,6,3.2,4.6,7.2c0,0.1-0.1,0.3-0.2,0.4c-4,6.9-5.8,14.8-8.8,22.1C558,732.7,556.3,735.3,554.6,738.4z
		 M559.9,710.2c-5.3,1.4-10.7,2.8-16.1,4.2c-5,1.3-8,0.4-10.9-3.9c-2.5-3.6-4.4-7.6-6.6-11.4c-0.8-1.3-1.6-2.6-2.8-4.6
		c-2.9,8.1-5.6,15.3-8.1,22.5c-0.6,1.8-0.6,3.9-0.8,5.6c12.5,2.5,24.4,4.9,36.2,7.2C554.7,723.7,558.8,717.6,559.9,710.2z
		 M527.8,694.1c0.9,5,3.6,8.6,5.6,12.4c1.2,2.3,3,3.3,5.4,2.7c6-1.5,11.9-3.3,17.8-5c0.2,0,0.2-0.5,0.3-0.7
		C547.7,699.3,538,696.6,527.8,694.1z"/>
	<path d="M581.4,566.2c1.8,1.3,3.8,2.4,5.5,3.9c6.2,5.2,12.3,10.6,18.4,15.9c2.1,1.8,4.1,3.8,6.2,5.7c1.2,1,2.5,2.1,3.9,2.8
		c3.4,1.8,4.7,5.1,2.1,7.9c-3.4,3.8-5.8,8.1-8.4,12.4c-1.5,2.4-3.9,4.3-6,6.5c-9.3-1-17.2-5.2-24.8-10.5c-5.3-3.7-10.8-7-16.3-10.5
		c-0.9-0.6-1.7-1.1-2.5-1.8c-1.6-1.3-1.8-3.1,0.1-3.8c4.1-1.5,6.2-4.8,8.6-7.9c2.3-3,4.5-6.2,6.6-9.4
		C577.1,573.9,578.9,570.5,581.4,566.2z M610.3,600.4c-1.6-0.3-2-0.5-2.4-0.4c-3.4,0.7-6.9,1.5-10.3,2.3c-4.3,1-7.8-0.8-9.5-5
		c-0.6-1.4-0.9-2.8-1.3-4.2c-1.5-4.9-3-9.8-4.6-14.7c-0.3-1-1-1.8-1.7-2.9c-2.1,2.7-3.9,5-5.6,7.4c-1.8,2.5-3.5,5-5.3,7.5
		c-2.2,3-2.6,5.1,1,7.7c8.5,6.3,18.4,9.1,28.1,12.5c0.7,0.2,1.9,0,2.4-0.5C604,607.2,606.8,604.1,610.3,600.4z M583.4,571.3
		c-0.1,1.1-0.3,1.6-0.2,1.9c2.1,6.7,4.3,13.5,6.4,20.2c0.6,1.9,1.9,2.6,3.7,2.4c5.1-0.5,10.2-1,15.3-1.6c0.2,0,0.3-0.4,0.8-1.1
		C600.9,586,592.3,578.8,583.4,571.3z"/>
	<path d="M1060.5,934.9c2.7-0.3,4.4,0.8,5.9,2.7c3.7,4.7,6.5,9.8,8.2,15.5c1,3.3,2.8,6.3,4.4,9.9c-11.2,5.6-22.1,11.1-33,16.4
		c-3.7,1.8-7.5,3.4-11.4,4.9c-3.8,1.6-5.8,0.8-7.3-3c-2.5-6.3-4.9-12.7-7.4-18.9c-0.6-1.6-1.6-3.1-2.6-4.5c-1.7-2.4-1.7-3.9,0.8-4.9
		c12.8-5.2,25.2-11.7,38.7-15.1C1058.8,937.6,1060.3,937,1060.5,934.9z M1062.1,944.5c-4.6,4.9-9,8.9-11.5,14.4
		c-0.8,1.8-3.6,2.8-5.5,2.6c-3.2-0.4-6.4-0.9-9.6-1c-4.3-0.2-8.7,0-13.7,0c2.6,7.2,4.8,14,8.5,20c7.2-2,34.7-15.9,38.6-19.5
		C1066.7,955.8,1064.6,950.5,1062.1,944.5z M1044.8,957.8c3.1-4.9,6.1-9.5,8.3-14.7c-11,2.6-20.8,7.5-30.5,13.1
		C1030,957.7,1037.5,957.2,1044.8,957.8z"/>
	<path d="M876.5,773.9c0.1,3-1.8,4.5-4,5.4c-2.8,1.2-5.8,2.2-8.7,3.1c-7.8,2.5-15.7,5.1-23.6,7.4c-4,1.2-6.1,0.4-7.6-3.7
		c-1.6-4.1-2.7-8.4-3.6-12.7c-1.1-4.9-1.3-9.9-3.4-14.6c-1.2-2.6-0.3-4,2.5-4.9c11.2-3.6,22.4-7.2,33.6-10.9
		c0.7-0.2,1.4-0.4,2.1-0.7c2.9-1.2,4.7-0.7,6.1,2.1c0.6,1.3,1.3,2.7,1.6,4.1c1.3,6.3,2.5,12.7,3.7,19.1
		C875.4,769.7,876,771.9,876.5,773.9z M830.5,764.9c0.2,2.1,0.3,4.3,0.7,6.4c0.7,3.9,1.5,7.8,2.4,11.7c0.5,2.2,1.9,2.8,4,2.3
		c0.9-0.2,1.7-0.4,2.5-0.7c7-2.7,14-5.4,21-8c2.9-1.1,5.7-2.1,9-3.2c-2-7-3.9-13.7-5.9-21c-3.8,4.5-7.1,8.4-10.3,12.4
		c-2.1,2.6-4.7,3.9-8,3.3C840.9,767,835.9,765.9,830.5,764.9z M859,749.9c-0.2-0.4-0.5-0.8-0.7-1.2c-1.9,0.6-3.8,1.2-5.7,1.9
		c-1.1,0.4-2.1,0.9-3.2,1.3c-6.1,2-12.3,3.9-18.4,5.9c-0.6,0.2-1.1,0.8-1.9,1.5c5.1,5.2,11.6,4.7,16.9,5.6
		C850.7,759.5,854.9,754.7,859,749.9z"/>
	<path d="M494.9,1068.8c-0.3-0.8-1-2-0.7-2.4c2.1-2.4,0.5-4.9,0-7.2c-1.3-6.3-3.1-12.6-4.5-18.9c-0.4-2.1-0.1-4.3-0.1-6.8
		c6.4-1.4,12.3-2.7,18.2-3.9c6-1.2,12.1-2.4,18.2-3.6c4.8-1,5.9-0.5,7.4,4.3c1.7,5.6,3.3,11.3,4.6,17c1.1,4.8-0.8,8.2-4.9,10.6
		c-6.1,3.5-12.8,5.1-19.6,6.8C507.6,1066.2,501.5,1067.4,494.9,1068.8z M527.9,1036.2c-2.5,2.8-4.6,5.1-6.7,7.4
		c-4.7,4.9-9.7,5.7-15.7,2.5c-0.7-0.3-1.2-0.8-1.9-1.1c-3-1.4-6.1-2.6-10.2-2.9c1.2,7.3,2.2,14.2,5.4,20.6c0.8-0.6,1.7-1.4,2.6-1.8
		c4.7-1.7,9.5-3.3,14.2-4.8c3.8-1.2,7.6-2.4,11.4-3.5c3.6-1.1,4.2-1.8,4.1-5.7C531,1043.3,529.8,1040,527.9,1036.2z M493.2,1037.6
		c1.2,0.6,2.2,1.1,3.2,1.5c2.3,0.9,4.8,1.5,7.1,2.5c8.5,3.5,6.2,3.2,13.6-2.1c0.1-0.1,0.2-0.2,0.3-0.3c2.2-2.9,5.7-4.7,6.4-8.7
		C518.2,1030.4,497,1035.2,493.2,1037.6z"/>
	<path d="M820.7,492.4c4.9,0.5,9.3,0.8,13.6,1.3c8.9,1.1,17.8,2.4,26.7,3.6c1.3,0.2,2.6-0.1,3.9,0c3.6,0.4,6.4,4.2,5.5,8.1
		c-1.4,6.3-3,12.6-4.7,18.9c-0.6,2.1-5.8,4.7-8.4,4.6c-10.6-0.3-21.1-2-31.6-3.5c-6.2-0.9-7.8-3.4-7-9.7c0.8-6.4,1.1-12.9,1.7-19.4
		C820.6,495.1,820.6,493.8,820.7,492.4z M820.8,518.1c4.3,2.1,34.2,4.7,39.6,3.7c2.5-7.3,3.8-15.5,2.9-18c-2.2,3.9-3.1,4.6-8,5.6
		c-1.4,0.3-2.9,0.7-4.3,0.7c-5.8,0-11.8,0.6-16.9-3.2c-3.3-2.4-6.8-4.6-10.5-7C821.6,505.9,821.8,512,820.8,518.1z M857.5,500.4
		c-5.9-2.5-26.9-4.4-31.1-2.8C834.8,506.6,849.3,507.9,857.5,500.4z"/>
	<path d="M426.6,1137c3.5-3.2,7.6-16.2,9.3-29c8.3-0.3,16.6,0.4,24.8,2.2c4.6,1,9.2,2.1,13.9,2.8c3.8,0.5,4.1,3.9,5.8,6.1
		c1.5,1.8-0.2,3.4-1.2,4.7c-3.5,4.5-5.7,9.6-6.3,15.3c-0.1,1.2-1,2.3-1.3,3c-5.6,0.4-10.7,1.1-15.7,1.1c-5.1,0-10.3-0.5-15.4-0.8
		c-2.7-0.1-5.3-0.3-8-0.3C428,1142,427.9,1142,426.6,1137z M471,1123.3c-0.3-0.3-0.6-0.7-0.9-1c-5.1,1.8-10.2,3.7-15.3,5.6
		c-3.4,1.3-7.2-0.1-8.7-3.2c-1.4-2.8-2.7-5.6-4.2-8.3c-0.7-1.3-1.8-2.4-3-3.9c-2.8,8.1-5.4,15.5-8.3,23.6c12.7,0,24.5,0,36.6,0
		C468.6,1131.9,469.8,1127.6,471,1123.3z M448.2,1122.9c6.7-2.8,14.1-2.6,19.4-7.8c-8.2-1.8-16.3-4.6-25.6-3.5
		C444.3,1115.9,446.3,1119.4,448.2,1122.9z"/>
	<path d="M1276.5,816.1c-1.4-3.1-2.2-6-2.6-9.1c-1-7.1-1.3-14.4-5.2-20.9c-0.3-0.6-0.3-1.4-0.5-2.4c1.2-0.2,2.1-0.4,3.1-0.6
		c13-1.7,26-3.4,39-5.1c3.4-0.4,5.3,0.9,5.6,4.3c0.6,5.9,0.9,11.7,1.4,17.6c0.2,2.3,0.4,4.7,0.9,7c0.7,3.9-0.7,5.9-4.7,6.2
		c-10.7,0.7-21.4,1.4-32.2,2.1C1279.8,815.4,1278.4,815.8,1276.5,816.1z M1310.7,786.9c-0.4-0.2-0.8-0.4-1.2-0.6
		c-2.2,2.1-4.4,4.2-6.5,6.4c-1.7,1.7-6.6,3.5-8.9,2.8c-3.7-1-7.3-2.2-11-3.5c-3.1-1.1-6.2-1.6-10-1.6c2.1,7,2.2,13.9,4.7,20.8
		c11.4-2.4,22.9-1.7,33-6C1310.7,798.6,1310.7,792.7,1310.7,786.9z M1304.1,783.7c-0.2-0.4-0.4-0.8-0.6-1.2
		c-8.5,1-17.1,1.7-25.4,4.1c4.6,1.8,9.1,3.3,13.7,4.8c0.9,0.3,2.3,0.6,3,0.1C1298,789,1301,786.3,1304.1,783.7z"/>
	<path d="M8.8,721.1c5.4,0.4,10,0.9,14.7,1c9.6,0.4,19.2,0.5,28.8,0.9c2,0.1,4.1,0.6,5.9,1.4c0.8,0.4,1.5,2.2,1.5,3.3
		c-0.3,5.1-0.8,10.3-1.2,15.4c-0.2,2.6-0.5,5.3-0.5,7.9c0,2.6-0.7,4.3-3.3,4.9c-2.5,0.6-5.2,0.7-7.9,0.8c-5.1,0.1-10.3,0-15.5-0.2
		c-5.3-0.2-10.6-0.6-15.9-0.9c-2.7-0.2-5.3-0.2-8-0.4c-2.1-0.2-3-1.2-2.7-3.6c0.9-6.3,1.7-12.6,2.4-18.9c0.3-2.8,0.2-5.6,0.4-8.4
		C7.9,723.2,8.5,722.1,8.8,721.1z M10.7,726.7c-0.4,1.8-0.8,2.9-0.9,4c-0.5,4.1-0.9,8.2-1.6,12.3c-1.4,8.4-1.3,8.6,7.4,8.8
		c8.8,0.2,17.7,0.1,26.5,0.3c2.9,0,5.8,0.3,8.9,0.5c0.7-6.5,1.4-12.6,2.2-19.3c-1.5,0.7-2.4,1-3.3,1.4c-4.7,2-9.4,4.1-14.2,6
		c-1.2,0.5-3.1,0.5-4.1-0.2c-5.1-3.2-10-6.7-15-10.1C14.8,729.1,13,728.1,10.7,726.7z M51.3,727.8c-0.1-0.4-0.2-0.7-0.3-1.1
		c-11.6-0.5-23.2-1-34.7-1.5c-0.1,0.4-0.2,0.7-0.3,1.1c4.5,3.3,9,6.8,14.4,8.9c3.4,1.3,6.5,1,9.6-1.1c2.4-1.7,5.2-2.7,7.8-4.1
		C48.9,729.3,50.1,728.5,51.3,727.8z"/>
	<path d="M1308.8,677.9c2.6,0.6,4.9,1.2,7.2,1.5c7.4,1,14.2,3.6,21.2,6.2c3,1.1,6.2,1.5,9.3,2.5c1.1,0.3,2.5,1.2,2.9,2.1
		c0.5,1.6,0.6,3.5,0.3,5.2c-1.2,5.3-2.6,10.5-4,15.8c-0.5,2-1.2,3.9-1.9,5.8c-1.3,3.3-4.3,4.2-7.7,3.3c-6.8-1.9-13.7-3.4-20.6-4.9
		c-2.3-0.5-4.7-0.4-7-1c-2-0.5-3.8-1.5-5.6-2.5c-2.1-1.1-2.6-3-2-5.3c2-8,3.8-15.9,5.9-23.9C1307,681,1308.1,679.4,1308.8,677.9z
		 M1339.4,713.2c1.4-5.6,3.5-10.3,4.3-16.2c-3.3,1.3-5.7,2.2-8.1,3.3c-2.1,0.9-8,0.3-9.5-1.2c-4.6-4.3-9.2-8.6-13.9-12.9
		c-0.7-0.7-1.5-1.2-2.9-2.4c-1.8,7.8-3.4,14.9-5.1,22.5C1316.2,708.5,1327.4,711.7,1339.4,713.2z M1326.9,695.8
		c4.8-1.5,9.3-2.6,13.9-5.1c-1.1-0.8-1.6-1.2-2.2-1.5c-5.3-2.9-11.3-4-17.1-5.4c-2.4-0.6-4.9-1.1-7.4-1c-0.1,0.3-0.3,0.7-0.4,1
		C1318,687.7,1322.4,691.7,1326.9,695.8z"/>
	<path d="M276.1,479.1c7.9,3.7,15.1,6.9,22,10.4c4.8,2.5,9.4,5.4,14,8.4c1.4,0.9,2.4,2.5,3.4,3.9c0.9,1.4,0.6,2.8-0.3,4.1
		c-3.8,5.5-7.6,11.1-11.5,16.6c-1.1,1.5-2.6,1.3-4,0.8c-3.8-1.3-7.5-2.7-11.2-4.2c-7.6-3.1-15.2-6.4-22.8-9.5c-2.5-1-3-2.1-1.9-4.8
		c0.9-2.3,2.2-4.5,3.2-6.8c2.3-5.1,4.4-10.3,6.7-15.4C274.3,481.3,275.4,480.1,276.1,479.1z M276.4,485.3c-0.8,1.1-1.4,1.6-1.7,2.2
		c-2,4.6-4.1,9.1-6,13.7c-1.2,3-0.9,4.1,2.1,5.2c8.7,3.3,17.4,6.3,26.2,9.3c0.9,0.3,2.6-0.1,3.1-0.8c2.5-3.2,4.7-6.6,6.1-10.9
		c-4.8-0.9-9.3-1.1-13.8,0c-3.7,0.9-4.5,0.6-6.6-2.6c-0.7-1.1-1.3-2.3-1.8-3.5c-1.5-3.1-2.8-6.2-4.4-9.2
		C278.9,487.6,277.6,486.6,276.4,485.3z M304.6,497.4c0.1-0.3,0.1-0.7,0.2-1c-7.1-4.1-14.9-7-23.4-10.7c2.5,5.1,4.4,9.2,6.4,13.4
		c5.1-0.4,9.9-0.7,14.7-1.1C303.3,497.9,303.9,497.6,304.6,497.4z"/>
	<path d="M620.5,520.3c-1.6,0-3.3-0.2-4.8,0.2c-5.8,1.7-11.5,3.9-17.3,5.4c-3.8,1-7.8,1.1-11.8,1.6c-2.1,0.3-3.4-0.8-3.9-2.8
		c-1.2-4.4-2.4-8.8-3.7-13.2c-0.6-2.1-1.4-4.1-2.2-6.2c-0.4-1.2-1.6-2.8-1.2-3.5c0.9-1.6,2.4-3.4,4-3.8c9.1-2.1,18.2-3.8,27.3-5.5
		c1.6-0.3,3.2,0.1,4.9,0.1c1.9,0,4.1,0.9,5.3-1.7c0.1-0.3,2-0.3,2.6,0.2c0.7,0.6,1.1,1.7,1.3,2.7c0.9,7.2,1.7,14.3,2.6,21.5
		C624,517.6,623,519.4,620.5,520.3z M581.8,507.4c-1,4.5,0.6,12.2,3.5,16.7c11.1-1.8,22.2-4.6,33.1-8.8c-1.1-5-0.4-9.9-1.8-15.3
		c-2.2,1.9-4.1,2.9-5.3,4.5c-2.5,3.6-6.1,5.4-9.4,7.7C595.6,508.5,588.3,510.1,581.8,507.4z M610.9,495.9c-0.1-0.3-0.2-0.6-0.2-1
		c-8.2,1.7-16.3,3.6-24.4,6.3c3,1.5,6.1,2.6,9.1,3.4c2.2,0.6,4.3,0.2,6.2-1.4C604.6,500.6,607.8,498.3,610.9,495.9z"/>
	<path d="M970.2,698.2c12.8-3.7,25.6-7.2,38.4-11.1c2.9-0.9,5.1,0.8,7.6,1.1c0.6,0.1,1.4,2.2,1.3,3.3c-0.8,7.1,0.8,14,2.2,21.3
		c-1.4,1.5-3.4,2.8-5.8,3.6c-9,2.8-17.9,5.8-26.9,8.6c-9.8,3-12.2,2.6-14.4-8.6c-0.6-2.9-0.7-5.9-1-8.8
		C971.2,704.6,970.7,701.6,970.2,698.2z M999,707.2c-8.7-0.3-16.5-3.1-25.1-5.5c1.1,7-0.4,13.7,3.4,19.6c11.3-3.3,22.1-6.4,33-9.6
		c0.8-0.2,1.8-1.4,1.8-2.1c-0.3-4.6-0.2-9.3-2.1-14.2C1004.5,697.9,1002.6,703.2,999,707.2z M979.1,699.8c5.2,2.3,10.6,3.4,16.2,3.5
		c0.5,0,1.3-0.2,1.6-0.6c3.2-3.8,6.3-7.7,9.4-11.5c-0.2-0.3-0.4-0.5-0.6-0.8C996.5,692.2,987.8,695.6,979.1,699.8z"/>
	<path d="M841.3,1085.7c-0.5-1.6-1.4-3.3-1.6-5.2c-0.5-4.2-0.7-8.5-1-12.8c-0.2-2,0.1-4-1.8-5.6c-1.4-1.2-0.6-3,1.3-3.5
		c1.3-0.3,2.6-0.5,3.9-0.5c8.1-0.5,16.2-0.9,24.2-1.5c4.1-0.3,8.2-1,12.3-1.4c3.8-0.4,5.8,1.4,5.9,5.2c0.1,6.2,0.1,12.4,0.1,18.6
		c0,2.5-2.7,5.2-5.5,5.4c-9.7,0.6-19.4,1.3-29.1,1.8C847.3,1086.2,844.5,1085.8,841.3,1085.7z M841.4,1066c-0.2,1.3-0.4,2.4-0.4,3.3
		c0.2,2.6,0.3,5.3,0.7,7.9c0.6,4.4,0.9,4.8,5.3,4.6c9.4-0.5,18.8-1.2,28.2-1.9c1-0.1,1.9-0.5,2.6-0.7c0-4.9,0-9.5,0-14.5
		c-3.4,2-6.4,3.5-9.1,5.4c-4.1,2.9-8.4,3.2-12.9,1.5C851.1,1069.9,846.5,1068.1,841.4,1066z M870.9,1060.9c-0.1-0.3-0.2-0.6-0.3-0.9
		c-8.9,0-17.8,0.5-26.6,2.2c4.7,3.9,10.1,5.4,15.8,6.1c0.7,0.1,1.5-0.2,2.1-0.5C864.9,1065.6,867.9,1063.2,870.9,1060.9z"/>
	<path d="M1352,757.2c5.5-2.1,10.4-4,15.4-5.8c3-1.1,6.1-2.2,9.2-3c3.6-0.8,7.1-1.4,10.4-3.3c3-1.7,4.3-0.8,4.8,2.5
		c0.1,0.7,0.1,1.5,0.1,2.2c0.2,7.4,0.4,14.7,0.6,22.1c0.1,5.5-0.4,6.2-5.7,7.7c-7.6,2.2-15.3,4.4-23,6.6c-1.7,0.5-3.3,1.3-4.9,1.9
		c-2.8,1.1-4.1,0.4-4.6-2.7c-0.3-1.6-0.3-3.2-0.5-4.8c-0.6-6.6-1.3-13.2-1.8-19.8C1351.9,759.7,1352,758.4,1352,757.2z
		 M1370.6,768.5c-4.7-1.8-9.7-3.8-15.2-5.9c0.6,6.9,1.1,13.3,1.7,20.2c10.8-3.6,20.9-7,31.2-10.4c-0.6-6-1.2-11.7-1.8-18
		C1381.6,760,1376.5,764.6,1370.6,768.5z M1381.3,750.8c-6.3-0.1-21.2,5.9-24.2,9.7c3.5,1.4,6.8,2.7,9.9,4
		C1373,761,1377.2,756.4,1381.3,750.8z"/>
	<path d="M348.1,964.2c8.8-0.6,16.7-1.2,24.6-1.7c4.1-0.3,8.2-0.5,12.4-0.5c5.2-0.1,6.6,1.9,7.4,7.1c1,6.2-0.6,12-1.1,18
		c-0.3,3.4-2.4,5.8-5.5,6.8c-2.8,0.9-5.7,1.7-8.6,1.7c-7.6,0-15.3-0.2-22.9-0.7c-4.8-0.3-6.9-2-7.5-6.6
		C345.9,980.1,346,971.9,348.1,964.2z M386.6,972.7c-4.5,4.7-10,5.3-15,7.1c-1.3,0.4-3.1,0.7-4.2,0.1c-4.5-2.4-8.9-5.2-13.3-7.9
		c-1.1-0.6-2.1-1.2-3.2-1.9c-2.4,5.8-2.1,11.3-1.2,16.8c0.4,2.6,1.9,4.3,4.7,4.5c3.7,0.3,7.3,0.8,11,0.7c4.8-0.1,9.7-0.5,14.5-1.2
		c1.8-0.3,4.5-1.6,5-3C386.3,983.4,387.2,978.6,386.6,972.7z M385.1,966c-9.9-0.5-19.4,0.7-29.5,1.8
		C366.4,977.3,374,977.5,385.1,966z"/>
	<path d="M376.3,669.9c10.5-8.8,20.6-17.2,31.1-26c0.9,0.7,2.2,1.5,3,2.5c3.2,4.1,6.2,8.2,9.2,12.4c2.9,3.9,2.7,7.1-1,10.3
		c-7.1,6-14.1,12.1-22.3,16.6c-1,0.6-2.1,1-3.2,1.5c-1.7,0.6-3.3,0-3.4-1.7c-0.2-2.1-1.5-3-2.8-4.2c-2.7-2.6-5.4-5.1-7.9-7.7
		C377.9,672.5,377.1,671.1,376.3,669.9z M407.5,655.5c-0.4,0-0.9,0.1-1.3,0.1c-1.5,4.2-3,8.4-4.5,12.6c-6.6,1.5-13,2.9-20,4.5
		c3.7,3.5,6.8,6.5,9.8,9.4c4.2-3,8-5.8,11.8-8.5c3.8-2.7,7.7-5.3,12.1-8.3C412.6,661.8,410.1,658.7,407.5,655.5z M397.6,665.5
		c1.3-3.9,2.5-7.5,3.8-11.7c-5.9,3-15,11-16.7,14.5C389,667.4,393.1,666.5,397.6,665.5z"/>
	<path d="M1217.3,458.8c2.3,0.5,3.9,2.5,4.9,5.4c2.2,6.6,4.4,13.1,6.9,19.6c0.9,2.4,0.1,3.7-1.9,4.6c-2.4,1.1-4.7,2.4-7.2,3.2
		c-7,2.2-14.1,4.2-21.1,6.3c-3-2.2-3.9-5.6-5.2-8.7c-1.4-3.1-2.3-6.3-3.6-9.5c-1.2-3.1-3.1-5.9-2.9-9.9c1.2,0.5,2,0.9,3.1,1.3
		c2.4-4.4,7.5-4.3,11.5-6.2C1206.4,462.5,1211.7,460.9,1217.3,458.8z M1197.8,491.9c8.9-2,17.2-4.1,24.8-8c0.2-5.3-2.1-9.4-4.5-13.9
		c-2.7,2.3-2.8,5.4-3.9,7.9c-7.4,0-14.6,0-22,0C1194.2,482.8,1196,487.4,1197.8,491.9z M1192.3,472.3c2.7,2.2,5.6,1.9,8.3,2.1
		c6.2,0.3,9-2.3,10-9.3C1204.2,466.8,1198.3,468.9,1192.3,472.3z"/>
	<path d="M88,737.9c-0.3-2,0.5-3.3,2.4-4.5c7.6-5,15.1-10.2,22.6-15.4c1.8-1.2,3.7-2.3,6-3.7c1.9,2.8,3.6,5.2,5.2,7.8
		c1.8,2.7,3.6,5.4,5.3,8.1c1.1,2,2.2,4.1,2.8,6.3c0.5,1.7-0.3,3.1-2,4c-3.1,1.7-6.2,3.4-9.2,5.3c-4.1,2.6-8,5.5-12,8.2
		c-1.3,0.9-2.7,1.8-4.2,2.5c-3,1.3-4,0.8-5.6-2.1c-2.3-4.3-4.7-8.5-7.3-12.6C91.3,740.3,89.7,739.4,88,737.9z M101.7,752
		c7.8-4.5,15.2-8.7,22.6-13c1.2-0.7,1.4-1.9,0.7-3.1c-1.9-3.3-3.9-6.6-6.2-10.5c-1.8,3.8-3.4,7.1-5.1,10.5c-3,0.9-6,2.1-9.1,2.8
		c-3.2,0.6-6.6,0.7-10.6,1.1C96.7,744.1,99,747.8,101.7,752z M94.7,734.9c2.9,1.3,8.7,1.3,10.6-0.3c3.6-3.2,6.2-7.1,7.6-11.9
		C106.2,725.9,100.8,730.8,94.7,734.9z"/>
	<path d="M824.1,618.2c1.3,1.7,2.9,3.4,4.1,5.4c0.6,1,0.8,2.5,0.5,3.6c-1.3,4.8-2.8,9.6-4.2,14.5c-1.7,0.8-3.6,1.8-6,2.9
		c-5.2-0.7-10.7-2-15.7-5c-1.2-0.7-2.7-1-4.1-1.4c-3.2-0.9-6.5-1.7-10.2-2.7c0.3-2.2,0.4-4.1,0.8-5.9c0.6-2.7,1.4-5.4,1.9-8.2
		c0.3-1.8,0.2-3.8-0.1-5.6c-0.5-3.5,0.1-4.4,3.6-4.1c6.5,0.5,12.8,2.2,18.9,4.3c2.1,0.7,4.1,1.6,6.3,2.1
		C821.1,618.5,822.5,618.2,824.1,618.2z M794.4,619.4c-0.6,3.4-1.2,6.3-1.7,9.1c-0.3,2,0.9,2.9,2.5,3.6c6.9,3,14.3,3.2,21.6,3.6
		c0.9,0.1,2.3-0.9,2.6-1.8c0.9-2.4,1.3-5,1.8-7.2c-3.4-2.4-6.4-1.8-9.4-0.7c-5.3,2-9.5-0.2-13.5-3.1
		C797.2,622,796.1,620.9,794.4,619.4z M797.8,615.9c2,6.4,8.2,8,15,3.8C807.8,617.4,803,616.5,797.8,615.9z"/>
	<path d="M932.5,859c-4.2-0.4-8.2-0.6-12.1-1.2c-4.3-0.7-8.7-1.6-12.9-2.7c-3.2-0.8-3.3-2-0.8-4.4c0.5-0.5,0.8-1.2,1.1-1.8
		c1.7-4.9,3.4-9.7,3.2-15c0-0.7,0.3-1.4,0.5-2.2c0.7,0.1,1.3,0.1,1.8,0.2c6.7,1.6,13.3,3.7,20.1,4.8c4.8,0.7,5.8,3.8,5.2,7.5
		c-0.6,3.6-1.4,7.2-2.6,10.7C935.5,856.5,933.7,857.7,932.5,859z M915.6,839.2c-1.2,3.4-2.1,5.9-3,8.5c-0.5,1.6,0.4,2.6,1.8,3.1
		c5.5,1.8,11.1,2.3,17,2.7c0.6-2.9,1.1-5.2,1.6-7.6c-3.1,0.2-5.7,0.2-8.1,0.6c-2.2,0.4-3.7-0.2-4.9-1.9
		C918.7,842.9,917.4,841.4,915.6,839.2z M929.3,840.4c0-0.3-0.1-0.6-0.1-0.9c-3.4-0.7-6.8-1.4-10.2-2.1c-0.2,0.3-0.3,0.5-0.5,0.8
		c1.4,1.7,2.8,3.5,4.1,5.2C925.2,842.2,927.2,841.3,929.3,840.4z"/>
</g>
</svg>
