<?xml version="1.0" encoding="utf-8"?>
<!-- Generator: Adobe Illustrator 19.1.0, SVG Export Plug-In . SVG Version: 6.00 Build 0)  -->
<svg version="1.1" id="Calque_1" xmlns="http://www.w3.org/2000/svg" xmlns:xlink="http://www.w3.org/1999/xlink" x="0px" y="0px"
	 viewBox="0 0 954.2 948.1" style="enable-background:new 0 0 954.2 948.1;" xml:space="preserve">
<style type="text/css">
	.st0{fill:#E01220;}
</style>
<path d="M953.6,141.2c-0.3-22.8-0.5-107.5-0.3-130.3c0-3.4,0.1-6.9-0.3-10.9h-12.2c0,2,0,4,0,5.8c-0.2,12.2-0.5,24.6-0.6,36.8
	c-0.1,6.2-0.1,12.5,0,18.7c0.3,12.5,0.7,25,0.9,37.5c0.1,2.8-0.2,5.7-0.3,8.6c-0.3,15.2-0.9,177.5-1,192.7
	c-0.2,25.4-0.2,50.8,0,76.2c0.1,14.2,0.5,28.5,1.4,42.7c0.9,14.7,0.5,29.4-0.3,44.1c-0.5,8.8-0.1,17.7-0.2,26.5
	c-0.1,6.4-0.6,12.7-0.6,19.1c-0.1,23.5,0.2,163-0.1,186.5c-0.1,11.2-1.5,22.4-1.8,33.6c-0.3,11-0.1,22.1,0,33.2
	c0,5.2,0.5,10.5,0.5,15.7c0.1,11.1,0.1,22.1,0.1,33.2c0,14.6,0.1,29.2-0.1,43.8c-0.1,11.7-0.7,23.4-0.9,35.1c-0.1,4,0.1,8,0,12
	c-0.2,8-0.5,16-0.9,24.1c-0.3,5.9-1,6.1-7.1,6.6c-14.9,1.1-29.7,0.8-44.6,0.4c-23.1-0.7-46.2-0.6-69.2-0.7c-11,0-22.1,0.5-33.1,0.6
	c-6.5,0.1-13-0.3-19.5-0.4c-11-0.2-22-0.6-33-0.6c-24.6-0.2-49.3-0.2-73.9-0.3c-10.4,0-20.7-0.1-31.1,0c-13.7,0.1-27.4,0.5-41.1,0.6
	c-11.3,0-22.7-0.3-34-0.4c-5.2,0-10.3,0.5-15.5,0.7c-7.2,0.3-14.4,0.8-21.6,0.9c-25.4,0.4-50.9,0.7-76.3,0.9c-3.3,0-6.7-0.6-10-0.6
	c-2.1,0-4.3,0.6-6.4,0.6c-17.7-0.3-35.5-0.9-53.2-1c-11.9-0.1-23.7,0.8-35.6,0.8c-13,0.1-26.1-0.3-39.1-0.5c-1.5,0-3-0.1-4.5-0.1
	c-16.6,0-33.2-0.1-49.7,0c-19.3,0.2-38.5,0.4-57.8,1.1c-14,0.5-28,1.6-42,2.8c-11.2,0.9-22.3-0.1-33.5,0.1
	c-10.2,0.2-20.4,0.6-30.6,0.6c-10.9,0-21.8-0.2-32.7-0.3c-3,0-6,0.1-9-0.1c-5.6-0.3-9.2-0.9-15.2-1.3C17,932.4,8.9,1,8.9,0H0.1
	c0,1,1.1,60.3,1,63.9c-0.2,6,0,12.2-0.1,18.2c-0.3,18.2-0.7,36.5-1,54.6c0,0.7,3.4,203.5,3.6,216.7c0.1,4.2,0,29.5-0.1,38
	c-0.1,11.4-0.7,22.8-0.5,34.1c0.2,12.7,1.1,25.4,1.5,38.1c0.5,13.7,0.6,27.5,1.1,41.2c0.6,14.7,4,279,2.3,297
	c-0.8,8.5-0.3,100.7-0.1,119.8c0.1,6.7,0.5,13,4.2,18.6c1.7,2.6,3.1,5.8,6.8,6c6.7,0.4,13.3,1,20,1c6.8,0.1,13.7-0.5,20.5-0.5
	c6.2,0,12.3,0.4,18.5,0.5c13.6,0.2,27.1,0.2,40.7,0.3c4.3,0.1,8.7,0.6,13,0.5c5.7-0.1,11.4-0.7,17.1-0.8c7.2-0.2,14.4,0.1,21.6-0.1
	c8-0.2,15.9-0.6,23.9-1.1c5.5-0.3,11-1.4,16.5-1.5c12.7-0.3,25.4-0.4,38.1-0.3c15.2,0.1,30.4,0.8,45.5,0.8
	c11.4,0.1,22.7-0.5,34.1-0.6c14.6-0.1,29.1,0,43.7-0.1c20.6-0.1,41.2,0,61.7,1.7c8.8,0.7,17.7,0.7,26.6,0.8
	c18.9,0.2,37.9,0.3,56.8,0.4c5,0,10-0.2,15.1-0.3c8.4-0.2,16.7-0.6,25.1-0.7c5-0.1,10,0.6,15,0.4c17.2-0.7,34.4-1.7,51.6-2.5
	c12.7-0.6,25.4-1.2,38.1-1.7c5.5-0.2,11-0.1,16.6-0.1c14.1,0,28.2,0,42.2,0c8.3,0,16.7,0.4,25,0.4c12-0.1,23.9-0.4,35.9-0.5
	c7.7-0.1,15.4,0.1,23.1,0.3c6.4,0.1,12.7,0.5,19.1,0.5c13.5,0,27-0.4,40.4-0.3c8.7,0.1,17.4,1,26,1.4c2.3,0.1,4.7-0.9,6.9-0.5
	c11,1.7,22,1.6,32.9,0.5c3-0.3,6.6,0,8.7-1.6c4.3-3.3,8.4-7.3,9-13.3c0.5-5.3,2.3-41.5,2.4-54.3c0.1-7.5-0.8-15-0.7-22.6
	c0.2-12,0.8-46.1,0.7-51.1c-0.1-9.2-0.3-18.4-0.1-27.6c0.4-14.7,1.4-29.4,1.7-44.1c0.4-18.1,0.1-36.2,0.5-54.3
	c0.5-21.1-2-158.1-0.5-179.3c0.7-9.2,0.8-18.4,1-27.6c0.4-12,1-64.2,1-78.3C954.3,378.1,953.8,155.7,953.6,141.2z"/>
</svg>
