<?xml version="1.0" encoding="utf-8"?>
<!-- Generator: Adobe Illustrator 19.1.0, SVG Export Plug-In . SVG Version: 6.00 Build 0)  -->
<svg version="1.1" id="Calque_1" xmlns="http://www.w3.org/2000/svg" xmlns:xlink="http://www.w3.org/1999/xlink" x="0px" y="0px"
	 viewBox="0 0 961.3 878" style="enable-background:new 0 0 961.3 878;" xml:space="preserve">
<style type="text/css">
	.st0{fill:#72B52B;}
	.st1{fill:#71519B;}
	.st2{fill:#C0BFBF;}
	.st3{fill:#EDE5F2;}
	.st4{fill:none;stroke:#72B52B;stroke-width:4;stroke-linecap:round;stroke-miterlimit:10;}
	.st5{fill:none;stroke:#71519B;stroke-width:4;stroke-linecap:round;stroke-miterlimit:10;}
	.st6{fill:#6EA1C1;}
	.st7{fill:#BFBEBE;}
	.st8{fill:#55358A;}
	.st9{fill:#FFFFFF;}
	.st10{fill:#FFFFFF;stroke:#71519B;stroke-width:3;stroke-miterlimit:10;}
	.st11{fill:#FFFFFF;stroke:#72B52B;stroke-width:3;stroke-miterlimit:10;}
	.st12{fill:none;stroke:#FFFFFF;stroke-width:3;stroke-miterlimit:10;}
	.st13{fill:#F2BF00;}
</style>
<g>
	<path class="st3" d="M950.6,506.6c-2.9,18.7-3.1,231.7-2.2,250.5c0.7,16-1.6,31.8-4.8,47.5c-3.1,15.2-5.2,30.5-4.8,46
		c0.1,5,0,10,0,15.6c-10,0.2-18.9,0.3-27.8,0.7c-13.6,0.5,2.2,1.3-11.4,1.8c-9.8,0.3,17.2,0.7,7.4,0.4c-30.4-1-60.9-2.5-91.3-3.5
		c-19.6-0.7-39.2-0.8-58.8-1.3c-9.8-0.2-19.5-0.6-29.3-0.8c-3.8-0.1-7.7,0.3-11.5,0.2c-16.2-0.2-32.5-0.2-48.7-0.7
		c-15.2-0.5-30.4-1.4-45.6-2.6c-19.2-1.5-38.4-3.2-57.5-5.3c-30-3.2-60.1-3.4-90.2-2.8c-19.1,0.4-38.1,1.4-57.2,1.6
		c-22.7,0.2-45.5,0.8-68.2-1.3c-8-0.8-16-0.6-24-1.1c-16.4-1-32.7-2.4-49.1-3.3c-10.3-0.6-20.6-0.7-30.9-0.8
		c-11.5-0.2-23.1-0.6-34.6-0.1c-10.5,0.4-20.9,1.6-31.3,2.8c-19.5,2.4-39,3.4-58.6,4c-13.1,0.4-26.2,1.4-39.3,1.9
		c-8.2,0.3-16.5,0.1-24.7,0.3c-5.8,0.1-11.5,0.8-17.3,0.7c-5.9-0.2-11.7-1-18.2-1.7c0-10,0-19.4,0-28.8c0.1-17.1,0.4-34.2,0.3-51.3
		c-0.1-12.6-0.3-25.2-0.9-37.7c-0.4-7.7-1.9-209.6-2.6-217.3c-0.5-5.7-0.8-11.4-0.9-17c-0.3-14.4-0.5-28.9-0.7-43.3
		c-0.2-15.8-0.3-31.6-0.4-47.4c0-1.3,0.2-2.6,0.4-4.6l-0.8-10.9c0-3.4,0.1-6.6,0-9.7c-0.7-22-1.3-44-2.3-65.9
		c-0.5-10.7-2.3-21.4-2.6-32.1c-0.5-15.6-0.4-31.2-0.1-46.8c0.3-15.9,1.1-31.8,1.6-47.8c0.2-5.5,0.1-11.1,0-16.6
		c-0.2-9.6-0.5-19.1-0.8-28.7c-0.4-10.9-0.7-21.8-1.3-32.7c-0.6-11.1-0.9-22.1,0-33.2c0.9-11,0.8-22.1,1.3-33.2
		c0.3-7,0.8-14.1,1.3-21.1c0.1-1.5,0.2-3,0.3-4.5c0.3-7.8,0.5-8,8.5-10.1c6.5-1.7,13-2.6,19.7-2.5c9.8,0.2,19.6,0.4,29.4,0.7
		c15.4,0.5,30.7,1.4,46.1,1.8c14,0.4,28,0.7,42,0.4c21-0.5,42-1.5,62.9-2.3c16.1-0.6,32.1-1.4,48.2-1.9c10.7-0.3,21.3-0.5,32-0.2
		c7.7,0.2,15.3,1.2,23,1.5c14.9,0.6,29.7,0.9,44.6,1.4c8.2,0.3,16.4,0.8,25.2,1.2l10.2-0.1c5-0.2,9.6-0.5,14.3-0.7
		c22.3-0.8,44.7-1.8,67-2.4c20.8-0.6,41.5-2.2,62.4-1.3c11,0.4,22.1,0.1,33.1,0.4c10.1,0.3,20.2,1.2,30.3,1.8
		c11.9,0.7,23.7,1.5,35.6,2c14.3,0.6,28.7,1.3,43,1.5c18.5,0.2,37-0.1,55.6-0.2c22-0.1,44.1-0.6,66.1-0.1c31.8,0.7,63.6,2.4,95.5,3
		c16.1,0.3-4.6-0.8,11.5-1.3c11-0.3-7.5-0.5,3.5,1.1c5,0.7,10.1,0.8,15.1,0.9c2.6,0.1,3.8,1.2,4.3,3.5c0.4,1.6,1,3.3,1.1,4.9
		c0.1,5.9,0.6,11.8-0.2,17.6c-2,14.7-2.6,29.4-2.6,44.2c0,4.7-0.4,9.4-1,14.1c-1.1,9-1.6,18-1.1,27.1c0.3,5.5-0.1,11.1-0.9,16.6
		c-1.7,11.9-1,23.7,0.3,35.6c1,8.8,1.6,17.7,1.6,26.6c-0.1,18-0.9,35.9-1.2,53.9c-0.1,6.5,0.1,13.1,1.1,19.6
		c3,18.1,4.8,36.3,5.7,54.6c0.5,11.1,1.4,22.1,1.9,33.2c0.2,5,0,10.1,0,15.1c0,16.3,2.2,32.5,4.1,48.7c1.3,10.5,1.5,21.1,1.9,31.6
		C952.4,479.8,952.7,493.3,950.6,506.6z"/>
	<path d="M961.3,466.5c-0.5-15.4-2.1-30.8-2.9-46.2c-0.6-13.1-0.7-26.1-0.9-39.2c-0.1-4,0.3-8-0.1-12c-0.8-8-2.4-15.9-2.9-23.9
		c-0.9-13.5-1.3-27.1-2-40.6c0-0.8-0.1-1.7-0.4-2.4c-3.7-7.9-3.7-16.5-4.7-24.8c-0.7-5.6-0.3-11.3-0.5-17c-0.1-5.8-1-11.8-0.3-17.5
		c1.8-14.9,0.5-29.7-1.3-44.5c-1.7-14.7-2-29.3,0.5-44c1.3-7.8,2.5-15.5,1.7-23.5c-0.5-5.1-1.1-10.4-0.4-15.5
		c1.2-8.9,1.1-17.9,2.8-26.9c2-10.5,2.8-21.2,2.2-32c-0.2-2.7,0.3-5.4,0.1-8c-0.5-6.5-1.2-12.9-1.9-19.4c-0.3-3-0.3-6.1-1.3-8.9
		c-1-2.7-2.5-5.6-4.7-7.5c-1.7-1.5-4.8-1.8-7.3-2c-8.4-0.7-16.8-1.2-25.1-1.6c-9.6-0.5,10.3-1.2,0.7-1.1c-10.7,0.1-21.3,1.1-32,1.6
		c-17.6,0.8,1.6,1.8-16.1,0.3c-12.2-1.1-24.5-1.2-36.7-1.6c-4.5-0.2-9.1,0.1-13.6-0.1c-10.8-0.5-21.7-1.3-32.5-1.6
		c-10.3-0.3-20.6,0-30.9,0.1c-17.1,0.1-34.2,0.2-51.3,0.4c-3.6,0-7.3,0.3-10.9,0.1c-6.3-0.4-12.5-1.2-18.7-1.7
		c-7-0.5-14-0.8-20.9-1.1c-13.6-0.6-27.2-1.3-40.8-1.7c-18.4-0.5-36.7-0.8-55.1-1.2c-9.4-0.2-18.9-0.3-28.3-0.2
		c-7.5,0-15,0-22.5,0.4c-20.2,1.1-40.5,2.6-60.7,3.7c-12.4,0.6-24.8,1.2-37.2,1c-15.4-0.3-30.7-1.5-46-2.3c-3.3-0.2-6.6-0.1-9.9-0.2
		C343.1,3.9,338,4,333,3.5c-6.6-0.7-13-2.5-19.6-2.7c-15-0.6-30-1.3-45.1-0.1c-2.8,0.2-5.6,0.4-8.3,0.6c-10.3,0.8-20.6,1.6-30.8,2.5
		c-2.4,0.2-4.9,0.6-7.3,0.8c-3.5,0.3-6.9,0.7-10.4,0.8c-9.1,0.3-18.2,0.5-27.3,0.8c-5.6,0.2-11.1,0.9-16.7,1
		c-7,0.1-13.9-0.2-20.9-0.3c-14.5-0.2-29-0.5-43.5-0.7C97.4,6,91.7,5.8,85.9,5.7c-11.5-0.2-23-0.3-34.5-0.5
		c-5.6-0.1-11.1-0.8-16.7-0.7C25.8,4.6,17.5,7.2,10.1,12c-1.1,0.7-1.9,1.9-2.5,3.1c-3.1,6.3-4.7,12.8-3.6,19.9
		c0.2,1.2,0.2,2.3,0.2,3.5c-0.3,10-0.6,20-1,30C2.4,84.7,1.7,101,1,117.2c-0.1,2.2-0.8,4.3-0.8,6.5c-0.2,13.1-0.4,26.1,0.6,39.2
		c1.6,19.7,2.4,39.4-0.2,59.2c-0.7,5.6,0.2,11.3,0.3,17c0.1,7.4,0,14.8,0.3,22.1c0.4,8.4,1.2,16.7,1.6,25.1
		c0.8,18.1,1.5,36.2,2.3,54.3c0.3,7.9,0.9,15.8,1,23.6c0.1,7-0.4,14.1-0.5,21.1c-0.1,3.7,0.4,7.4,0.1,11
		c-0.8,11.7-0.7,23.5,1.1,35.1c1.2,7.4,1.2,14.7,1.5,22c0.5,12.5-0.4,25.1-0.2,37.7c0.3,14.2,1.2,28.5,1.7,42.7
		c0.3,9.7,0.4,213.7,0.4,223.4c0,3.7-0.8,7.3-0.8,11c0,7.1,0.2,14.3,0.3,21.4c0,4.6-0.6,9.3,0,13.9c0.7,5.5,1.5,10.9,1.6,16.4
		c0.1,8,0.7,16,1.3,24.1c0.3,4.2,1.1,8.3,1.6,12.4c0.7,6.1,5,8.9,10.5,9.5c10.4,1.1,20.9,1.5,31.4,1.9c5.4,0.2,10.8-0.1,16.2-0.4
		c7.8-0.4,15.7-0.7,23.5-1.3c9.4-0.6,18.8-1.5,28.2-2.1c4.9-0.3,9.8-0.2,14.7-0.5c4.7-0.3,9.4-0.8,14.1-1.3
		c8.6-0.9,17.3-1.8,25.9-2.8c2.6-0.3,5.3-0.3,7.8-0.9c9.2-2.4,18.6-3,28-3.4c19-0.7,38.1,0,57.1,1.7c12,1.1,24,2.2,36,3.3
		c7.8,0.7,15.7,1.3,23.5,2c5,0.4,10.1,1.3,15.1,1.3c14.3,0.1,28.6-0.1,42.9-0.3c11-0.1,22,0,33-0.4c10.5-0.4,20.9-1.5,31.4-1.8
		c14.5-0.5,29-0.6,43.5-0.8c2.6,0,5.2,0.1,7.9,0.3c7.8,0.5,15.7,1.1,23.5,1.5c10.3,0.5,20.6,0.7,30.9,1.4c19,1.4,37.9,3,56.9,4.6
		c3.3,0.3,6.5,1.8,9.7,1.8c12.9,0.2,25.9,0.1,33.9,0.1c19.9,0.9,34.9-0.3,49.9,0.9c15.8,1.4,31.7,0.9,47.6,1.5
		c12.2,0.5,24.4,1.4,36.6,1.9c6.1,0.3,12.2,0,18.4,0.1c7,0.1,13.9,0.3,20.9,0.5c13.8,0.3,33.9,2.9,48.6,2.8c11-0.1,22,0.2,33,0.2
		c8.2-0.1-13-0.4-4.8-0.7c10.1-0.4,20-3.2,30.2-1.1c1.1,0.2,4.4-0.9,4.8-1.9c2.6-6.4,4.9-12.8,5.8-19.4c1.2-9.1,0.5-18.4,0.6-27.6
		c0-2.2-0.2-4.4,0.1-6.5c0.5-3.8,1.4-7.6,2-11.4c1-7.1,1.8-14.3,2.7-21.4c1.3-10.1,3.2-20.2,2.2-30.5c-0.3-3-0.4-6-0.4-9
		c0-3.3,0.8-6.8,0.3-10c-2.4-16.8,0.6-227.7,1.7-244.4C960.5,484.9,961.6,475.7,961.3,466.5z M950.6,506.6
		c-2.9,18.7-3.1,231.7-2.2,250.5c0.7,16-1.6,31.8-4.8,47.5c-3.1,15.2-5.2,30.5-4.8,46c0.1,5,0,10,0,15.6c-10,0.2-18.9,0.3-27.8,0.7
		c-13.6,0.5,2.2,1.3-11.4,1.8c-9.8,0.3,17.2,0.7,7.4,0.4c-30.4-1-60.9-2.5-91.3-3.5c-19.6-0.7-39.2-0.8-58.8-1.3
		c-9.8-0.2-19.5-0.6-29.3-0.8c-3.8-0.1-7.7,0.3-11.5,0.2c-16.2-0.2-32.5-0.2-48.7-0.7c-15.2-0.5-30.4-1.4-45.6-2.6
		c-19.2-1.5-38.4-3.2-57.5-5.3c-30-3.2-60.1-3.4-90.2-2.8c-19.1,0.4-38.1,1.4-57.2,1.6c-22.7,0.2-45.5,0.8-68.2-1.3
		c-8-0.8-16-0.6-24-1.1c-16.4-1-32.7-2.4-49.1-3.3c-10.3-0.6-20.6-0.7-30.9-0.8c-11.5-0.2-23.1-0.6-34.6-0.1
		c-10.5,0.4-20.9,1.6-31.3,2.8c-19.5,2.4-39,3.4-58.6,4c-13.1,0.4-26.2,1.4-39.3,1.9c-8.2,0.3-16.5,0.1-24.7,0.3
		c-5.8,0.1-11.5,0.8-17.3,0.7c-5.9-0.2-11.7-1-18.2-1.7c0-10,0-19.4,0-28.8c0.1-17.1,0.4-34.2,0.3-51.3c-0.1-12.6-0.3-25.2-0.9-37.7
		c-0.4-7.7-1.9-209.6-2.6-217.3c-0.5-5.7-0.8-11.4-0.9-17c-0.3-14.4-0.5-28.9-0.7-43.3c-0.2-15.8-0.3-31.6-0.4-47.3
		c0-1.3,0.2-2.6,0.4-4.6l-0.8-10.9c0-3.4,0.1-6.6,0-9.7c-0.7-22-1.3-43.9-2.3-65.9c-0.5-10.7-2.3-21.4-2.6-32.1
		c-0.5-15.6-0.4-31.2-0.1-46.8c0.3-15.9,1.1-31.8,1.6-47.8c0.2-5.5,0.1-11.1,0-16.6c-0.2-9.6-0.5-19.1-0.8-28.7
		c-0.4-10.9-0.7-21.8-1.3-32.7c-0.6-11.1-0.9-22.1,0-33.2c0.9-11,0.8-22.1,1.3-33.2c0.3-7,0.8-14.1,1.3-21.1c0.1-1.5,0.2-3,0.3-4.5
		c0.3-7.8,0.5-8,8.5-10.1c6.5-1.7,13-2.6,19.7-2.5c9.8,0.2,19.6,0.4,29.4,0.7c15.4,0.5,30.7,1.4,46.1,1.8c14,0.4,28,0.7,42,0.4
		c21-0.5,42-1.5,62.9-2.3c16.1-0.6,32.1-1.4,48.2-1.9c10.7-0.3,21.3-0.5,32-0.2c7.7,0.2,15.3,1.2,23,1.5c14.9,0.6,29.7,0.9,44.6,1.4
		c8.2,0.3,16.4,0.8,25.2,1.2l10.2-0.1c5-0.2,9.6-0.5,14.3-0.7c22.3-0.8,44.7-1.8,67-2.4c20.8-0.6,41.5-2.2,62.4-1.3
		c11,0.4,22.1,0.1,33.1,0.4c10.1,0.3,20.2,1.2,30.3,1.8c11.9,0.7,23.7,1.5,35.6,2c14.3,0.6,28.7,1.3,43,1.5
		c18.5,0.2,37-0.1,55.6-0.2c22-0.1,44.1-0.6,66.1-0.1c31.8,0.7,63.6,2.4,95.5,3c16.1,0.3-4.6-0.8,11.5-1.3c11-0.3-7.5-0.5,3.5,1.1
		c5,0.7,10.1,0.8,15.1,0.9c2.6,0.1,3.8,1.2,4.3,3.5c0.4,1.6,1,3.3,1.1,4.9c0.1,5.9,0.6,11.8-0.2,17.6c-2,14.7-2.6,29.4-2.6,44.2
		c0,4.7-0.4,9.4-1,14.1c-1.1,9-1.6,18-1.1,27.1c0.3,5.5-0.1,11.1-0.9,16.6c-1.7,11.9-1,23.7,0.3,35.6c1,8.8,1.6,17.7,1.6,26.6
		c-0.1,18-0.9,35.9-1.2,53.9c-0.1,6.5,0.1,13.1,1.1,19.6c3,18.1,4.8,36.3,5.7,54.6c0.5,11.1,1.4,22.1,1.9,33.2c0.2,5,0,10.1,0,15.1
		c0,16.3,2.2,32.5,4.1,48.6c1.3,10.5,1.5,21.1,1.9,31.6C952.4,479.8,952.7,493.3,950.6,506.6z"/>
	<g>
		<g>
			<g>
				<path d="M706.3,596.6c5-3.9,10.2-8.1,15.4-12.2c6.1-4.8,18.5-4,25.1,1.5c2.1,1.7,4,3.6,6.1,5.4c2-1,3.6-1.6,5.1-2.4
					c12.6-6.6,28.1-3.8,37.1,7.3c6.8,8.4,8.4,17.8,11.1,28.6c4,15.9,1.4,31.2-1.5,46.6c-3.5,19-13.2,38.3-23.1,54.5
					c-6,9.8-51.4,58.6-51.4,89.7s0,35.3,0.2,47.3c0.1,3-2.7,9.1-4.5,8.4c-1.2-0.4-2.5-1.7-2.9-2.9c-0.8-2.6-1.3-5.3-1.5-8.1
					c-1.1-15.7-1.2-42.7,1.4-58.4c3.3-19.7,18-36.1,31.2-55c13.1-18.8,20-33.5,27.4-46.2c9.2-15.8,10.5-33.5,11.2-51.2
					c0.4-9.8-1.2-19.3-3.2-28.8c-1.8-8.4-6.3-15.2-13-20.4c-4.5-3.5-9.4-2.9-14-0.3c-9.8,5.4-18.1,4.7-26.5-2.8
					c-0.8-0.7-1.4-1.4-2.2-2c-3.9-3.2-4.8-3-9.1,0c-5.1,3.6-10.4,6.8-15.4,10.4c-4.2,3-8.6,2.4-12.7,0.4c-3.7-1.9-7.4-4.2-10.5-6.9
					c-7.8-6.9-13.7-7.5-21.9-1.5c-3,2.2-6.3,4.1-8.9,6.7c-5.3,5.2-10.9,3.7-16.6,1.6c-1.6-0.6-3-1.7-4.6-2.5
					c-8.7-4.4-11.8-3.6-17.1,4.6c-4,6.2-6.3,13-6.6,20.4c-0.5,13,2.6,25,8.9,36.6c6.5,11.9,14.6,22.6,22.8,33.3
					c1.7,2.2,3.6,4.2,1.9,7.5c-4.2,2.1-7.2-0.3-9.5-3.3c-5.2-7-10.2-14.1-15.2-21.3c-2.1-3-4-6.2-6.2-9.7c-5.1,6.8-6.4,14.2-6,21.6
					c0.2,3.4,2.1,7.4,4.5,9.9c6.6,7,13.9,13.5,20.9,20.1c3.6,3.4,7.5,6.6,10.6,10.5c2.3,2.8,4.2,6.4,4.8,9.9
					c1.7,9.9,14.3,18.3,23,21.1c5,1.6,6.9,4.8,8.7,9.2c4.5,10.9,3.3,22,2.2,33.1c-1.4,15.4-2.7,30.8-4.1,46.1
					c-0.3,3.2-0.9,6.4-1.7,9.5c-0.6,2.4-2.5,3.9-5.1,3.3c-2.8-0.6-3.1-2.6-2.8-5.2c1.4-12.1,3-24.2,3.9-36.4
					c0.9-13.1,1-26.4,1.4-39.5c0.1-2.2-0.6-4.4-1-6.6c-0.7-4.6-10.2-9.1-14.4-10.5c-8.6-2.9-15.9-8.2-17.4-17.6
					c-1.6-9.6-8-15.2-14.1-21.3c-7.2-7.2-14.7-14.1-22-21.3c-3.8-3.8-5.8-8.6-6.1-14.1c-0.6-11.1,1.2-21.4,9.9-29
					c-1.9-8-4.2-15.6-5.4-23.5c-1.7-10.9-2-33.5,9.3-45.4c5.2-4.6,11.2-6.2,17.6-7c1.8-0.2,3.9,0.6,5.7,1.3
					c4.6,1.9,9.1,4.1,14.3,6.5c4-3.1,8.5-6.5,12.9-10.1c11.2-9.1,19-6.1,28.6-0.2C696.5,588.7,701,592.7,706.3,596.6z"/>
				<path d="M223.9,593.9c5.4-5.9,10.2-12,15.9-17c6.1-5.5,13.5-6.6,22-5.2c10.9,1.8,17.3,9,24,16.4c1.3,1.4,2.4,3.1,4.1,5.4
					c3.3-2.6,6.7-4.7,9.4-7.5c11.7-11.8,23.2-9.1,32.5-1.5c4,3.3,7.8,6.8,11.9,10.4c2-1.2,4.3-2.2,6.1-3.8
					c5.3-4.3,10.6-3.7,15.9-0.4c11.2,7.1,19,17,20.3,30.4c0.4,4.4-1.9,9.1-3.4,13.5c-1.8,5.4-4.5,10.5-5.9,16
					c-0.6,2.2,0.9,5.1,1.9,7.5c4.8,11.3,9.2,22.7,8.2,35.2c-0.5,6.3-3.3,11.4-7.5,16.5c-8.3,10-18.7,16.9-29.2,24.1
					c-8.9,6.1-17.2,13.4-22.6,23.5c-2.9,5.5-16.7,10.6-22.5,13.2c-4.2,1.8-6.2,4.8-6.9,9c-1.7,11.1-4.3,22.1-4.8,33.2
					c-0.4,9.4,0.5,19.2,4.5,28.2c1.1,2.5,1.1,5.5,1.7,8.3c-8,1.4-8.4,1.2-10.5-4.4c-6.8-17.4-8.5-35.3-4.2-53.5
					c2.3-9.7,5.1-19.3,7.7-28.9c1-3.7,2.7-6.5,7.2-5.8c3.2,0.5,14.7-1.6,16-4.1c8.2-16,22.5-25.6,36.8-35.3
					c4.9-3.4,10-6.7,14.4-10.6c5.6-5.1,8.7-11.4,7.1-19.4c-1.1-5.6-1.7-11.3-2.8-16.8c-0.3-1.7-1.7-3.2-3-5.6
					c-9.7,20.5-21.7,37.6-40.2,49.2c-0.5-0.3-1-0.6-1.5-0.9c0.5-1.4,0.8-3.1,1.6-4.2c6.2-8.4,12.7-16.6,18.8-25.2
					c14.2-19.9,20.5-42.4,20.9-66.6c0.1-5.6-2.4-10.6-7-14.3c-3.8-3.1-7.3-3.4-11.4-0.6c-1.7,1.1-3.3,2.3-5,3.3
					c-6.3,3.8-11.4,2.8-15.8-3.2c-0.9-1.2-1.5-2.6-2.3-3.9c-5.4-9.8-13.6-11.2-22.6-4.4c-4.5,3.4-9.7,5.9-14.3,9
					c-2.8,1.9-5.3,1.4-7.5-0.5c-4.5-3.9-9.1-7.7-13.1-12.2c-7.2-8.2-18.3-9.3-26.4-2c-2.8,2.5-5.2,5.3-7.7,8.1
					c-5.3,6-13.2,8.1-20.1,4.8c-6-2.9-11.8-6.1-17.6-9.4c-4.5-2.5-7.2-2.9-10.8,0.7c-3.4,3.5-6.4,7.6-8.6,12
					c-6.1,12.7-4.9,26.3-3.9,39.7c1.6,20.6,8.4,40,15.4,59.1c3.8,10.4,9.8,20.1,15.8,29.5c9.8,15.4,29.2,27.1,32.6,45.4
					c1.7,9,2.2,18.3,2.6,27.4c0.6,12.2,0.6,24.4,1,36.7c0.1,3.8-1.6,6.1-5.5,7c-3.1-1.9-2.6-5-2.8-7.9c-0.8-12.4-1.7-24.8-2.4-37.2
					c-0.3-5-0.1-10-0.5-14.9c-1.7-19.5-19.1-32.9-30.3-48.5c-11.9-16.6-20.4-34.7-25.3-54.5c-3.5-13.8-7-27.6-9.3-41.5
					c-2.1-12.3-1.7-24.9,1.5-37.1c3-11.3,8.8-20.3,19.3-26.4c6.3-3.7,12.3-4.2,18.4-1c5.2,2.8,10.1,6.3,15,9.6
					C220.9,591.3,222.4,592.6,223.9,593.9z"/>
			</g>
			<g>
				<g>
					<path class="st4" d="M183,566.2c-0.9-12.3-6.2-25.8-30.2-25.8"/>
					<g>
						<polygon class="st0" points="189.4,558 182.9,565 175.9,558.5 176.1,564.2 183.2,570.7 189.7,563.7 						"/>
					</g>
				</g>
			</g>
			<g>
				<g>
					<path class="st4" d="M316,566.3c-3.2-15.5-2-27.4,8.2-35.6"/>
					<g>
						<polygon class="st0" points="321,557.1 315.8,565.1 307.7,559.9 308.9,565.6 317,570.7 322.2,562.7 						"/>
					</g>
				</g>
			</g>
			<g>
				<g>
					<path class="st0" d="M58.7,544.7c0-0.3,0.1-0.5,0.2-0.6c0.1-0.1,0.3-0.2,0.6-0.2h0.3c1.9,0,2.8-1.1,2.8-3.2v-9.1
						c0-0.6,0.3-0.9,0.9-0.9h1.4c0.6,0,0.9,0.3,0.9,0.9v9.8c0,0.9-0.1,1.6-0.3,2.3c-0.2,0.6-0.4,1.2-0.7,1.6c-0.3,0.4-0.7,0.8-1.1,1
						c-0.5,0.3-1,0.4-1.5,0.6c-0.5,0.1-1.1,0.2-1.8,0.2h-0.9c-0.5,0-0.8-0.3-0.8-0.8V544.7z"/>
					<path class="st0" d="M69.7,546.3c-0.1,0.5-0.4,0.7-0.9,0.7h-1.4c-0.3,0-0.5-0.1-0.7-0.3c-0.1-0.2-0.2-0.4-0.1-0.7l4.7-14.6
						c0.1-0.5,0.4-0.7,0.9-0.7h2.8c0.5,0,0.8,0.2,0.9,0.7l4.7,14.6c0.1,0.3,0.1,0.5-0.1,0.7c-0.1,0.2-0.4,0.3-0.7,0.3h-1.4
						c-0.5,0-0.8-0.2-0.9-0.7l-0.9-3.1h-6.2L69.7,546.3z M75.9,540.6l-2.3-7.4l-2.3,7.4H75.9z"/>
					<path class="st0" d="M95.3,547h-1.4c-0.3,0-0.6-0.2-0.8-0.5l-7.4-10.4v10c0,0.6-0.3,0.9-0.9,0.9h-1.2c-0.6,0-0.9-0.3-0.9-0.9
						v-14.5c0-0.6,0.3-0.9,0.9-0.9h1.3c0.4,0,0.7,0.1,0.8,0.4l7.4,10.1v-9.6c0-0.6,0.3-0.9,0.9-0.9h1.2c0.6,0,0.9,0.3,0.9,0.9v14.5
						C96.2,546.7,95.9,547,95.3,547z"/>
					<path class="st0" d="M106.5,547h-2.8c-0.5,0-0.8-0.2-0.9-0.7l-4.7-14.6c-0.1-0.3-0.1-0.5,0.1-0.7c0.1-0.2,0.4-0.3,0.7-0.3h1.4
						c0.5,0,0.8,0.2,0.9,0.7l4,13.1l4-13.1c0.1-0.5,0.4-0.7,0.9-0.7h1.4c0.3,0,0.5,0.1,0.7,0.3c0.1,0.2,0.2,0.4,0.1,0.7l-4.7,14.6
						C107.2,546.8,106.9,547,106.5,547z"/>
					<path class="st0" d="M116.2,547h-1.4c-0.6,0-0.9-0.3-0.9-0.9v-14.5c0-0.6,0.3-0.9,0.9-0.9h1.4c0.6,0,0.9,0.3,0.9,0.9v14.5
						C117.1,546.7,116.8,547,116.2,547z"/>
					<path class="st0" d="M128.6,547h-8.7c-0.6,0-0.9-0.3-0.9-0.9v-14.5c0-0.6,0.3-0.9,0.9-0.9h8.7c0.6,0,0.9,0.3,0.9,0.9v1.2
						c0,0.6-0.3,0.9-0.9,0.9h-6.4v3.3h6.1c0.6,0,0.9,0.3,0.9,0.9v1.1c0,0.6-0.3,0.9-0.9,0.9h-6.1v4h6.4c0.6,0,0.9,0.3,0.9,0.9v1.2
						C129.5,546.7,129.2,547,128.6,547z"/>
					<path class="st0" d="M133.6,547h-1.4c-0.6,0-0.9-0.3-0.9-0.9v-14.5c0-0.6,0.3-0.9,0.9-0.9h5.2c1.1,0,2,0.1,2.8,0.2
						c0.7,0.2,1.3,0.4,1.7,0.8c0.4,0.4,0.7,0.9,0.9,1.4c0.2,0.6,0.3,1.3,0.3,2.2v0.4c0,1-0.2,1.9-0.6,2.7c-0.4,0.7-1.1,1.3-2,1.6
						l2.5,5.9c0.1,0.3,0.1,0.5,0,0.7c-0.1,0.2-0.3,0.3-0.6,0.3h-1.7c-0.4,0-0.7-0.2-0.9-0.6l-2.4-5.9h-2.8v5.6
						C134.5,546.7,134.2,547,133.6,547z M137.5,533.7h-3v4.1h3c0.9,0,1.5-0.1,1.9-0.4s0.5-0.8,0.5-1.5v-0.3c0-0.7-0.2-1.2-0.5-1.5
						C139,533.8,138.4,533.7,137.5,533.7z"/>
				</g>
			</g>
			<g>
				<g>
					<path class="st4" d="M620.6,578.3c-0.9-12.3-6.2-25.8-30.2-25.8"/>
					<g>
						<polygon class="st0" points="627.1,570 620.6,577.1 613.5,570.6 613.7,576.3 620.8,582.8 627.3,575.8 						"/>
					</g>
				</g>
			</g>
			<g>
				<g>
					<path class="st0" d="M528.1,558.4c-0.1,0.5-0.4,0.7-0.9,0.7h-1.4c-0.3,0-0.5-0.1-0.7-0.3c-0.1-0.2-0.2-0.4-0.1-0.7l4.7-14.6
						c0.1-0.5,0.4-0.7,0.9-0.7h2.8c0.5,0,0.8,0.2,0.9,0.7l4.7,14.6c0.1,0.3,0.1,0.5-0.1,0.7c-0.1,0.2-0.4,0.3-0.7,0.3H537
						c-0.5,0-0.8-0.2-0.9-0.7l-0.9-3.1H529L528.1,558.4z M534.3,552.7l-2.3-7.4l-2.3,7.4H534.3z"/>
					<path class="st0" d="M554.7,550.1v1.7c0,1.1-0.2,2.2-0.5,3.1c-0.3,0.9-0.8,1.7-1.4,2.3s-1.4,1.2-2.4,1.5
						c-1,0.4-2.1,0.5-3.3,0.5c-1.3,0-2.4-0.2-3.4-0.5c-1-0.3-1.8-0.8-2.4-1.5s-1.1-1.4-1.4-2.3c-0.3-0.9-0.5-1.9-0.5-3.1v-1.7
						c0-2.3,0.6-4.1,1.9-5.4c1.3-1.3,3.2-2,5.7-2c1.3,0,2.4,0.2,3.4,0.5c1,0.3,1.8,0.8,2.4,1.5c0.6,0.7,1.1,1.4,1.4,2.3
						S554.7,549,554.7,550.1z M551.5,551.6v-1.3c0-0.9-0.1-1.6-0.3-2.2s-0.4-1.1-0.8-1.4c-0.4-0.4-0.8-0.6-1.4-0.8
						c-0.5-0.2-1.2-0.2-2-0.2c-0.8,0-1.4,0.1-2,0.2c-0.5,0.1-1,0.4-1.4,0.8c-0.4,0.4-0.6,0.8-0.8,1.4s-0.3,1.3-0.3,2.2v1.3
						c0,0.9,0.1,1.6,0.3,2.2c0.2,0.6,0.4,1.1,0.8,1.4c0.4,0.3,0.8,0.6,1.4,0.7s1.2,0.2,2,0.2s1.4-0.1,2-0.2s1-0.4,1.3-0.7
						s0.6-0.8,0.8-1.4C551.4,553.2,551.5,552.5,551.5,551.6z"/>
					<path class="st0" d="M570,551.6c0,1.4-0.1,2.5-0.4,3.5c-0.2,0.9-0.6,1.7-1.2,2.3c-0.5,0.6-1.2,1.1-2.1,1.3
						c-0.9,0.3-1.9,0.4-3.1,0.4c-1.7,0-3-0.3-4-0.8c-1-0.5-1.7-1.3-2.2-2.4c-0.5-1.1-0.7-2.6-0.7-4.4v-7.9c0-0.6,0.3-0.9,0.9-0.9
						h1.4c0.6,0,0.9,0.3,0.9,0.9v7.8c0,1.7,0.3,2.9,0.8,3.6c0.6,0.7,1.5,1.1,2.7,1.1c1.3,0,2.2-0.4,2.8-1.1c0.6-0.7,0.9-1.9,0.9-3.6
						v-7.8c0-0.6,0.3-0.9,0.9-0.9h1.4c0.6,0,0.9,0.3,0.9,0.9V551.6z M565.3,542.1h-0.7c-0.2,0-0.3,0-0.4,0c-0.1,0-0.3-0.1-0.4-0.2
						l-0.5-0.3l-0.5,0.3c-0.2,0.1-0.3,0.2-0.4,0.2c-0.1,0-0.3,0-0.4,0h-0.5c-0.2,0-0.3-0.1-0.3-0.2s0-0.2,0.2-0.4l0.5-0.4
						c0.1-0.1,0.2-0.2,0.3-0.2c0.1,0,0.3,0,0.5,0h1.8c0.2,0,0.3,0,0.4,0s0.2,0.1,0.3,0.2l0.6,0.5c0.1,0.1,0.2,0.2,0.1,0.4
						C565.5,542.1,565.4,542.1,565.3,542.1z"/>
					<path class="st0" d="M576.6,546h-3.8c-0.6,0-0.9-0.3-0.9-0.9v-1.4c0-0.6,0.3-0.9,0.9-0.9h10.9c0.6,0,0.9,0.3,0.9,0.9v1.4
						c0,0.6-0.3,0.9-0.9,0.9h-3.8v12.2c0,0.6-0.3,0.9-0.9,0.9h-1.4c-0.6,0-0.9-0.3-0.9-0.9V546z"/>
				</g>
			</g>
			<g>
				<g>
					<path class="st0" d="M341.6,531.7H341c-0.4,0-0.7-0.2-0.9-0.6l-4.9-11.8v11.5c0,0.6-0.3,0.9-0.9,0.9h-1.2
						c-0.6,0-0.9-0.3-0.9-0.9v-14.5c0-0.6,0.3-0.9,0.9-0.9h2.9c0.4,0,0.7,0.2,0.9,0.6l4.4,10.5l4.4-10.5c0.1-0.4,0.5-0.6,0.9-0.6
						h2.9c0.6,0,0.9,0.3,0.9,0.9v14.5c0,0.6-0.3,0.9-0.9,0.9h-1.2c-0.6,0-0.9-0.3-0.9-0.9v-11.5l-4.9,11.8
						C342.4,531.5,342.1,531.7,341.6,531.7z"/>
					<path class="st0" d="M355.4,531c-0.1,0.5-0.4,0.7-0.9,0.7h-1.4c-0.3,0-0.5-0.1-0.7-0.3c-0.1-0.2-0.2-0.4-0.1-0.7l4.7-14.6
						c0.1-0.5,0.4-0.7,0.9-0.7h2.8c0.5,0,0.8,0.2,0.9,0.7l4.7,14.6c0.1,0.3,0.1,0.5-0.1,0.7c-0.1,0.2-0.4,0.3-0.7,0.3h-1.4
						c-0.5,0-0.8-0.2-0.9-0.7l-0.9-3.1h-6.2L355.4,531z M361.6,525.3l-2.3-7.4l-2.3,7.4H361.6z"/>
					<path class="st0" d="M370.6,531.7h-1.4c-0.6,0-0.9-0.3-0.9-0.9v-14.5c0-0.6,0.3-0.9,0.9-0.9h1.4c0.6,0,0.9,0.3,0.9,0.9v14.5
						C371.5,531.4,371.2,531.7,370.6,531.7z"/>
				</g>
			</g>
			<g>
				<g>
					<path class="st4" d="M385.2,591.4c7.4-10.4,15.1-14.4,26.4-14.2"/>
					<g>
						<polygon class="st0" points="395.3,588.6 385.9,590.4 384.1,581 380.9,585.8 382.7,595.2 392.1,593.4 						"/>
					</g>
				</g>
			</g>
			<g>
				<g>
					<path class="st4" d="M739.7,569.8c7.4-10.4,15.1-14.4,26.4-14.2"/>
					<g>
						<polygon class="st0" points="749.8,567 740.4,568.8 738.6,559.4 735.4,564.2 737.2,573.6 746.6,571.8 						"/>
					</g>
				</g>
			</g>
			<g>
				<g>
					<path class="st0" d="M419.3,581.5c0-0.3,0.1-0.5,0.2-0.6s0.3-0.2,0.6-0.2h0.3c1.9,0,2.8-1.1,2.8-3.2v-9.1
						c0-0.6,0.3-0.9,0.9-0.9h1.4c0.6,0,0.9,0.3,0.9,0.9v9.8c0,0.9-0.1,1.6-0.3,2.3c-0.2,0.6-0.4,1.2-0.7,1.6c-0.3,0.4-0.7,0.8-1.1,1
						s-1,0.4-1.5,0.6s-1.1,0.2-1.8,0.2h-0.9c-0.5,0-0.8-0.3-0.8-0.8V581.5z"/>
					<path class="st0" d="M441.8,576.3c0,1.4-0.1,2.5-0.4,3.5c-0.2,0.9-0.6,1.7-1.2,2.3c-0.5,0.6-1.2,1.1-2.1,1.3
						c-0.9,0.3-1.9,0.4-3.1,0.4c-1.7,0-3-0.2-4-0.8c-1-0.5-1.7-1.3-2.2-2.4c-0.5-1.1-0.7-2.6-0.7-4.4v-7.9c0-0.6,0.3-0.9,0.9-0.9
						h1.4c0.6,0,0.9,0.3,0.9,0.9v7.8c0,1.7,0.3,2.9,0.8,3.6c0.6,0.7,1.5,1.1,2.7,1.1c1.3,0,2.2-0.4,2.8-1.1c0.6-0.7,0.9-1.9,0.9-3.6
						v-7.8c0-0.6,0.3-0.9,0.9-0.9h1.4c0.6,0,0.9,0.3,0.9,0.9V576.3z"/>
					<path class="st0" d="M445.9,583.8h-1.4c-0.6,0-0.9-0.3-0.9-0.9v-14.5c0-0.6,0.3-0.9,0.9-0.9h1.4c0.6,0,0.9,0.3,0.9,0.9v14.5
						C446.9,583.5,446.6,583.8,445.9,583.8z"/>
					<path class="st0" d="M458.3,583.8h-8.7c-0.6,0-0.9-0.3-0.9-0.9v-14.5c0-0.6,0.3-0.9,0.9-0.9h1.4c0.6,0,0.9,0.3,0.9,0.9v12.3
						h6.4c0.6,0,0.9,0.3,0.9,0.9v1.2C459.2,583.5,458.9,583.8,458.3,583.8z"/>
					<path class="st0" d="M470.6,583.8h-8.7c-0.6,0-0.9-0.3-0.9-0.9v-14.5c0-0.6,0.3-0.9,0.9-0.9h1.4c0.6,0,0.9,0.3,0.9,0.9v12.3
						h6.4c0.6,0,0.9,0.3,0.9,0.9v1.2C471.5,583.5,471.2,583.8,470.6,583.8z"/>
					<path class="st0" d="M483,583.8h-8.7c-0.6,0-0.9-0.3-0.9-0.9v-14.5c0-0.6,0.3-0.9,0.9-0.9h8.7c0.6,0,0.9,0.3,0.9,0.9v1.2
						c0,0.6-0.3,0.9-0.9,0.9h-6.4v3.3h6.1c0.6,0,0.9,0.3,0.9,0.9v1.1c0,0.6-0.3,0.9-0.9,0.9h-6.1v4h6.4c0.6,0,0.9,0.3,0.9,0.9v1.2
						C483.9,583.5,483.6,583.8,483,583.8z"/>
					<path class="st0" d="M490.4,570.7h-3.8c-0.6,0-0.9-0.3-0.9-0.9v-1.4c0-0.6,0.3-0.9,0.9-0.9h10.9c0.6,0,0.9,0.3,0.9,0.9v1.4
						c0,0.6-0.3,0.9-0.9,0.9h-3.8v12.2c0,0.6-0.3,0.9-0.9,0.9h-1.4c-0.6,0-0.9-0.3-0.9-0.9V570.7z"/>
				</g>
			</g>
			<g>
				<g>
					<path class="st0" d="M233.2,475.5h-0.6c-0.4,0-0.7-0.2-0.9-0.6l-4.9-11.8v11.5c0,0.6-0.3,0.9-0.9,0.9h-1.2
						c-0.6,0-0.9-0.3-0.9-0.9v-14.5c0-0.6,0.3-0.9,0.9-0.9h2.9c0.4,0,0.7,0.2,0.9,0.6l4.4,10.5l4.4-10.5c0.1-0.4,0.5-0.6,0.9-0.6
						h2.9c0.6,0,0.9,0.3,0.9,0.9v14.5c0,0.6-0.3,0.9-0.9,0.9h-1.2c-0.6,0-0.9-0.3-0.9-0.9V463l-4.9,11.8
						C234,475.3,233.7,475.5,233.2,475.5z"/>
					<path class="st0" d="M247,474.8c-0.1,0.5-0.4,0.7-0.9,0.7h-1.4c-0.3,0-0.5-0.1-0.7-0.3c-0.1-0.2-0.2-0.4-0.1-0.7l4.7-14.6
						c0.1-0.5,0.4-0.7,0.9-0.7h2.8c0.5,0,0.8,0.2,0.9,0.7l4.7,14.6c0.1,0.3,0.1,0.5-0.1,0.7c-0.1,0.2-0.4,0.3-0.7,0.3h-1.4
						c-0.5,0-0.8-0.2-0.9-0.7l-0.9-3.1h-6.2L247,474.8z M253.2,469.1l-2.3-7.4l-2.3,7.4H253.2z"/>
					<path class="st0" d="M262.2,475.5h-1.4c-0.6,0-0.9-0.3-0.9-0.9v-14.5c0-0.6,0.3-0.9,0.9-0.9h5.2c1.1,0,2,0.1,2.8,0.2
						c0.7,0.2,1.3,0.4,1.7,0.8c0.4,0.4,0.7,0.9,0.9,1.4c0.2,0.6,0.3,1.3,0.3,2.2v0.4c0,1-0.2,1.9-0.6,2.7c-0.4,0.7-1.1,1.3-2,1.6
						l2.5,5.9c0.1,0.3,0.1,0.5,0,0.7c-0.1,0.2-0.3,0.3-0.6,0.3h-1.7c-0.4,0-0.7-0.2-0.9-0.6l-2.4-5.9h-2.8v5.6
						C263.1,475.2,262.8,475.5,262.2,475.5z M266.1,462.2h-3v4.1h3c0.9,0,1.5-0.1,1.9-0.4s0.5-0.8,0.5-1.5V464
						c0-0.7-0.2-1.2-0.5-1.5S267,462.2,266.1,462.2z"/>
					<path class="st0" d="M281.1,465.9c1.6,0.1,2.9,0.2,3.9,0.6c0.9,0.3,1.6,0.8,2.1,1.5c0.4,0.7,0.6,1.5,0.6,2.6v0.1
						c0,1.7-0.6,2.9-1.8,3.7c-1.2,0.8-3,1.2-5.3,1.2c-2.2,0-3.9-0.4-5.1-1.1c-1.1-0.8-1.8-1.9-2-3.5c0-0.1,0-0.1,0-0.2
						c0-0.1,0-0.2,0-0.2c0-0.5,0.3-0.8,0.8-0.8h1.4c0.3,0,0.6,0.1,0.7,0.2c0.1,0.1,0.2,0.3,0.3,0.6c0,0.1,0.1,0.3,0.1,0.5
						c0.2,0.7,0.6,1.2,1.2,1.5s1.5,0.4,2.6,0.4c1.3,0,2.3-0.2,2.9-0.5s1-0.8,1-1.4v-0.1c0-0.5-0.1-0.9-0.4-1.1
						c-0.2-0.3-0.7-0.5-1.2-0.6c-0.6-0.1-1.5-0.3-2.6-0.3c-1.3-0.1-2.4-0.2-3.3-0.4c-0.9-0.2-1.6-0.5-2.1-0.9
						c-0.5-0.4-0.9-0.8-1.1-1.3c-0.2-0.5-0.3-1.2-0.3-1.9v-0.2c0-1.5,0.6-2.7,1.8-3.6s3-1.3,5.3-1.3c2.1,0,3.7,0.4,4.9,1.1
						c1.2,0.8,1.9,1.8,2.1,3.2c0,0.1,0.1,0.3,0.1,0.6c0,0.5-0.2,0.8-0.8,0.8h-1.4c-0.4,0-0.6,0-0.7-0.1s-0.2-0.3-0.3-0.6
						c0-0.2-0.1-0.4-0.2-0.5c-0.5-1-1.7-1.6-3.8-1.6c-2.6,0-3.9,0.6-3.9,1.9v0.1c0,0.3,0.1,0.6,0.2,0.8s0.3,0.4,0.6,0.6
						c0.3,0.2,0.8,0.3,1.4,0.4S280.1,465.9,281.1,465.9z"/>
				</g>
			</g>
			<g>
				<path class="st1" d="M138.9,501.1v1.2c0,0.6-0.3,0.9-0.9,0.9h-6.1v5.6c0,0.6-0.3,0.9-0.9,0.9h-1.4c-0.6,0-0.9-0.3-0.9-0.9v-14.5
					c0-0.6,0.3-0.9,0.9-0.9h8.7c0.6,0,0.9,0.3,0.9,0.9v1.4c0,0.6-0.3,0.9-0.9,0.9h-6.4v3.5h6.1C138.6,500.1,138.9,500.5,138.9,501.1
					z"/>
				<path class="st1" d="M150.7,509.8H142c-0.6,0-0.9-0.3-0.9-0.9v-14.5c0-0.6,0.3-0.9,0.9-0.9h8.7c0.6,0,0.9,0.3,0.9,0.9v1.2
					c0,0.6-0.3,0.9-0.9,0.9h-6.4v3.3h6.1c0.6,0,0.9,0.3,0.9,0.9v1.1c0,0.6-0.3,0.9-0.9,0.9h-6.1v4h6.4c0.6,0,0.9,0.3,0.9,0.9v1.2
					C151.6,509.5,151.3,509.8,150.7,509.8z M147.8,492.2l-0.5,0.4c-0.1,0.1-0.2,0.1-0.3,0.2s-0.2,0-0.4,0h-1.1
					c-0.2,0-0.3-0.1-0.4-0.2c-0.1-0.1-0.1-0.3,0-0.4l0.1-0.2c0.1-0.2,0.2-0.3,0.3-0.4c0.1-0.1,0.3-0.1,0.5-0.1h1.6
					c0.2,0,0.4,0.1,0.4,0.2C148.1,491.9,148,492.1,147.8,492.2z"/>
				<path class="st1" d="M161.8,509.8H159c-0.5,0-0.8-0.2-0.9-0.7l-4.7-14.6c-0.1-0.3-0.1-0.5,0.1-0.7c0.1-0.2,0.4-0.3,0.7-0.3h1.4
					c0.5,0,0.8,0.2,0.9,0.7l4,13.1l4-13.1c0.1-0.5,0.4-0.7,0.9-0.7h1.4c0.3,0,0.5,0.1,0.7,0.3c0.1,0.2,0.2,0.4,0.1,0.7l-4.7,14.6
					C162.6,509.5,162.3,509.8,161.8,509.8z"/>
				<path class="st1" d="M171.5,509.8h-1.4c-0.6,0-0.9-0.3-0.9-0.9v-14.5c0-0.6,0.3-0.9,0.9-0.9h5.2c1.1,0,2,0.1,2.8,0.2
					c0.7,0.2,1.3,0.4,1.7,0.8c0.4,0.4,0.7,0.9,0.9,1.4c0.2,0.6,0.3,1.3,0.3,2.2v0.4c0,1-0.2,1.9-0.6,2.7c-0.4,0.7-1.1,1.3-2,1.6
					l2.5,5.9c0.1,0.3,0.1,0.5,0,0.7c-0.1,0.2-0.3,0.3-0.6,0.3h-1.7c-0.4,0-0.7-0.2-0.9-0.6l-2.4-5.9h-2.8v5.6
					C172.4,509.5,172.1,509.8,171.5,509.8z M175.4,496.4h-3v4.1h3c0.9,0,1.5-0.1,1.9-0.4s0.5-0.8,0.5-1.5v-0.3
					c0-0.7-0.2-1.2-0.5-1.5S176.3,496.4,175.4,496.4z"/>
				<path class="st1" d="M185.1,509.8h-1.4c-0.6,0-0.9-0.3-0.9-0.9v-14.5c0-0.6,0.3-0.9,0.9-0.9h1.4c0.6,0,0.9,0.3,0.9,0.9v14.5
					C186.1,509.5,185.7,509.8,185.1,509.8z"/>
				<path class="st1" d="M197.5,509.8h-8.7c-0.6,0-0.9-0.3-0.9-0.9v-14.5c0-0.6,0.3-0.9,0.9-0.9h8.7c0.6,0,0.9,0.3,0.9,0.9v1.2
					c0,0.6-0.3,0.9-0.9,0.9h-6.4v3.3h6.1c0.6,0,0.9,0.3,0.9,0.9v1.1c0,0.6-0.3,0.9-0.9,0.9h-6.1v4h6.4c0.6,0,0.9,0.3,0.9,0.9v1.2
					C198.4,509.5,198.1,509.8,197.5,509.8z"/>
				<path class="st1" d="M202.5,509.8h-1.4c-0.6,0-0.9-0.3-0.9-0.9v-14.5c0-0.6,0.3-0.9,0.9-0.9h5.2c1.1,0,2,0.1,2.8,0.2
					c0.7,0.2,1.3,0.4,1.7,0.8c0.4,0.4,0.7,0.9,0.9,1.4c0.2,0.6,0.3,1.3,0.3,2.2v0.4c0,1-0.2,1.9-0.6,2.7c-0.4,0.7-1.1,1.3-2,1.6
					l2.5,5.9c0.1,0.3,0.1,0.5,0,0.7c-0.1,0.2-0.3,0.3-0.6,0.3h-1.7c-0.4,0-0.7-0.2-0.9-0.6l-2.4-5.9h-2.8v5.6
					C203.4,509.5,203.1,509.8,202.5,509.8z M206.4,496.4h-3v4.1h3c0.9,0,1.5-0.1,1.9-0.4s0.5-0.8,0.5-1.5v-0.3
					c0-0.7-0.2-1.2-0.5-1.5C207.9,496.5,207.3,496.4,206.4,496.4z"/>
			</g>
			<g>
				<path class="st1" d="M302.4,500.4c-0.1,0.5-0.4,0.7-0.9,0.7h-1.4c-0.3,0-0.5-0.1-0.7-0.3c-0.1-0.2-0.2-0.4-0.1-0.7l4.7-14.6
					c0.1-0.5,0.4-0.7,0.9-0.7h2.8c0.5,0,0.8,0.2,0.9,0.7l4.7,14.6c0.1,0.3,0.1,0.5-0.1,0.7c-0.1,0.2-0.4,0.3-0.7,0.3h-1.4
					c-0.5,0-0.8-0.2-0.9-0.7l-0.9-3.1h-6.2L302.4,500.4z M308.6,494.6l-2.3-7.4l-2.3,7.4H308.6z"/>
				<path class="st1" d="M320.5,501.1h-2.8c-0.5,0-0.8-0.2-0.9-0.7l-4.7-14.6c-0.1-0.3-0.1-0.5,0.1-0.7c0.1-0.2,0.4-0.3,0.7-0.3h1.4
					c0.5,0,0.8,0.2,0.9,0.7l4,13.1l4-13.1c0.1-0.5,0.4-0.7,0.9-0.7h1.4c0.3,0,0.5,0.1,0.7,0.3c0.1,0.2,0.2,0.4,0.1,0.7l-4.7,14.6
					C321.3,500.8,321,501.1,320.5,501.1z"/>
				<path class="st1" d="M330.2,501.1h-1.4c-0.6,0-0.9-0.3-0.9-0.9v-14.5c0-0.6,0.3-0.9,0.9-0.9h5.2c1.1,0,2,0.1,2.8,0.2
					c0.7,0.2,1.3,0.4,1.7,0.8c0.4,0.4,0.7,0.9,0.9,1.4c0.2,0.6,0.3,1.3,0.3,2.2v0.4c0,1-0.2,1.9-0.6,2.7c-0.4,0.7-1.1,1.3-2,1.6
					l2.5,5.9c0.1,0.3,0.1,0.5,0,0.7c-0.1,0.2-0.3,0.3-0.6,0.3h-1.7c-0.4,0-0.7-0.2-0.9-0.6l-2.4-5.9h-2.8v5.6
					C331.2,500.8,330.8,501.1,330.2,501.1z M334.1,487.7h-3v4.1h3c0.9,0,1.5-0.1,1.9-0.4s0.5-0.8,0.5-1.5v-0.3
					c0-0.7-0.2-1.2-0.5-1.5C335.7,487.8,335,487.7,334.1,487.7z"/>
				<path class="st1" d="M343.8,501.1h-1.4c-0.6,0-0.9-0.3-0.9-0.9v-14.5c0-0.6,0.3-0.9,0.9-0.9h1.4c0.6,0,0.9,0.3,0.9,0.9v14.5
					C344.8,500.8,344.5,501.1,343.8,501.1z"/>
				<path class="st1" d="M356.2,501.1h-8.7c-0.6,0-0.9-0.3-0.9-0.9v-14.5c0-0.6,0.3-0.9,0.9-0.9h1.4c0.6,0,0.9,0.3,0.9,0.9V498h6.4
					c0.6,0,0.9,0.3,0.9,0.9v1.2C357.1,500.8,356.8,501.1,356.2,501.1z"/>
			</g>
			<g>
				<path class="st1" d="M376.3,557.4c0-0.3,0.1-0.5,0.2-0.6s0.3-0.2,0.6-0.2h0.3c1.9,0,2.8-1.1,2.8-3.2v-9.1c0-0.6,0.3-0.9,0.9-0.9
					h1.4c0.6,0,0.9,0.3,0.9,0.9v9.8c0,0.9-0.1,1.6-0.3,2.3c-0.2,0.6-0.4,1.2-0.7,1.6c-0.3,0.4-0.7,0.8-1.1,1s-1,0.4-1.5,0.6
					s-1.1,0.2-1.8,0.2h-0.9c-0.5,0-0.8-0.3-0.8-0.8V557.4z"/>
				<path class="st1" d="M398.9,552.2c0,1.4-0.1,2.5-0.4,3.5c-0.2,0.9-0.6,1.7-1.2,2.3c-0.5,0.6-1.2,1.1-2.1,1.3
					c-0.9,0.3-1.9,0.4-3.1,0.4c-1.7,0-3-0.3-4-0.8c-1-0.5-1.7-1.3-2.2-2.4c-0.5-1.1-0.7-2.6-0.7-4.4v-7.9c0-0.6,0.3-0.9,0.9-0.9h1.4
					c0.6,0,0.9,0.3,0.9,0.9v7.8c0,1.7,0.3,2.9,0.8,3.6c0.6,0.7,1.5,1.1,2.7,1.1c1.3,0,2.2-0.4,2.8-1.1c0.6-0.7,0.9-1.9,0.9-3.6v-7.8
					c0-0.6,0.3-0.9,0.9-0.9h1.4c0.6,0,0.9,0.3,0.9,0.9V552.2z"/>
				<path class="st1" d="M403,559.7h-1.4c-0.6,0-0.9-0.3-0.9-0.9v-14.5c0-0.6,0.3-0.9,0.9-0.9h1.4c0.6,0,0.9,0.3,0.9,0.9v14.5
					C403.9,559.4,403.6,559.7,403,559.7z"/>
				<path class="st1" d="M418.4,559.7h-1.4c-0.3,0-0.6-0.2-0.8-0.5l-7.4-10.4v10c0,0.6-0.3,0.9-0.9,0.9h-1.2c-0.6,0-0.9-0.3-0.9-0.9
					v-14.5c0-0.6,0.3-0.9,0.9-0.9h1.3c0.4,0,0.7,0.1,0.8,0.4l7.4,10.1v-9.6c0-0.6,0.3-0.9,0.9-0.9h1.2c0.6,0,0.9,0.3,0.9,0.9v14.5
					C419.3,559.4,419,559.7,418.4,559.7z"/>
			</g>
			<g>
				<g>
					<path class="st5" d="M220.2,566.5c5.8-14.4,11.7-33.9-5.1-48.4"/>
					<g>
						<polygon class="st1" points="229.5,561.7 220.7,565.4 217,556.6 214.8,561.9 218.5,570.7 227.3,567.1 						"/>
					</g>
				</g>
			</g>
			<g>
				<g>
					<line class="st4" x1="255.7" y1="555" x2="255.7" y2="490.6"/>
					<g>
						<polygon class="st0" points="262.4,547.1 255.7,553.9 248.9,547.1 248.9,552.8 255.7,559.6 262.4,552.8 						"/>
					</g>
				</g>
			</g>
			<g>
				<g>
					<path class="st5" d="M289.9,562.9c-5-13.5-9.5-39.5,5.8-53.8"/>
					<g>
						<polygon class="st1" points="293.2,552.9 289.5,561.8 280.6,558.1 282.8,563.4 291.7,567.1 295.4,558.3 						"/>
					</g>
				</g>
			</g>
			<g>
				<g>
					<path class="st0" d="M783.4,563.2h-5.6c-0.6,0-0.9-0.3-0.9-0.9v-14.5c0-0.6,0.3-0.9,0.9-0.9h5.6c2.6,0,4.5,0.6,5.8,1.8
						c1.2,1.2,1.8,3,1.8,5.4v1.8c0,2.4-0.6,4.2-1.8,5.4C787.9,562.6,786,563.2,783.4,563.2z M783.3,549.9h-3.2v10.4h3.2
						c0.8,0,1.4-0.1,2-0.2c0.5-0.1,1-0.4,1.4-0.8c0.4-0.4,0.6-0.8,0.8-1.5c0.2-0.6,0.3-1.4,0.3-2.3v-0.9c0-0.9-0.1-1.7-0.3-2.3
						c-0.2-0.6-0.4-1.1-0.8-1.5c-0.4-0.4-0.8-0.6-1.4-0.8C784.8,549.9,784.1,549.9,783.3,549.9z"/>
					<path class="st0" d="M802.4,563.2h-8.7c-0.6,0-0.9-0.3-0.9-0.9v-14.5c0-0.6,0.3-0.9,0.9-0.9h8.7c0.6,0,0.9,0.3,0.9,0.9v1.2
						c0,0.6-0.3,0.9-0.9,0.9h-6.4v3.3h6.1c0.6,0,0.9,0.3,0.9,0.9v1.1c0,0.6-0.3,0.9-0.9,0.9h-6.1v4h6.4c0.6,0,0.9,0.3,0.9,0.9v1.2
						C803.3,562.9,803,563.2,802.4,563.2z M799.5,545.6L799,546c-0.1,0.1-0.2,0.1-0.3,0.2s-0.2,0-0.4,0h-1.1c-0.2,0-0.3-0.1-0.4-0.2
						c-0.1-0.1-0.1-0.3,0-0.4l0.1-0.2c0.1-0.2,0.2-0.3,0.3-0.4c0.1-0.1,0.3-0.1,0.5-0.1h1.6c0.2,0,0.4,0.1,0.4,0.2
						C799.8,545.4,799.7,545.5,799.5,545.6z"/>
					<path class="st0" d="M812.3,563.3c-1.3,0-2.5-0.1-3.4-0.4s-1.7-0.7-2.3-1.3s-1.1-1.4-1.4-2.3c-0.3-0.9-0.4-2.1-0.4-3.5v-1.7
						c0-1.1,0.1-2.1,0.4-3c0.3-0.9,0.7-1.6,1.3-2.3c0.6-0.6,1.4-1.1,2.4-1.5s2.1-0.5,3.4-0.5c2.2,0,4,0.5,5.2,1.4s2,2.2,2.2,3.9
						c0.1,0.3,0.1,0.5,0.1,0.7c0,0.6-0.2,0.9-0.8,0.9h-1.5c-0.3,0-0.5-0.1-0.7-0.2s-0.2-0.3-0.3-0.6c-0.1-0.3-0.1-0.5-0.1-0.6
						c-0.2-0.8-0.7-1.5-1.4-1.9s-1.6-0.6-2.8-0.6c-1,0-1.8,0.1-2.4,0.4c-0.6,0.3-1.1,0.8-1.4,1.4s-0.5,1.6-0.5,2.7v1.3
						c0,1.6,0.3,2.8,1,3.5s1.8,1.1,3.3,1.1c1.3,0,2.2-0.2,2.9-0.6s1.1-1.1,1.3-2.1c0-0.2,0.1-0.4,0.1-0.6c0-0.3,0.1-0.5,0.3-0.6
						s0.4-0.2,0.7-0.2h1.4c0.6,0,0.9,0.3,0.8,0.9c0,0,0,0.2-0.1,0.7c-0.2,1.9-0.9,3.3-2.1,4.2C816.4,562.9,814.6,563.3,812.3,563.3z
						"/>
					<path class="st0" d="M831.2,563.2h-8.7c-0.6,0-0.9-0.3-0.9-0.9v-14.5c0-0.6,0.3-0.9,0.9-0.9h8.7c0.6,0,0.9,0.3,0.9,0.9v1.2
						c0,0.6-0.3,0.9-0.9,0.9h-6.4v3.3h6.1c0.6,0,0.9,0.3,0.9,0.9v1.1c0,0.6-0.3,0.9-0.9,0.9h-6.1v4h6.4c0.6,0,0.9,0.3,0.9,0.9v1.2
						C832.1,562.9,831.8,563.2,831.2,563.2z"/>
					<path class="st0" d="M843.4,563.2h-0.6c-0.4,0-0.7-0.2-0.9-0.6l-4.9-11.8v11.5c0,0.6-0.3,0.9-0.9,0.9h-1.2
						c-0.6,0-0.9-0.3-0.9-0.9v-14.5c0-0.6,0.3-0.9,0.9-0.9h2.9c0.4,0,0.7,0.2,0.9,0.6l4.4,10.5l4.4-10.5c0.2-0.4,0.5-0.6,0.9-0.6
						h2.9c0.6,0,0.9,0.3,0.9,0.9v14.5c0,0.6-0.3,0.9-0.9,0.9h-1.2c-0.6,0-0.9-0.3-0.9-0.9v-11.5l-4.9,11.8
						C844.2,563,843.9,563.2,843.4,563.2z"/>
					<path class="st0" d="M860.6,563.2H855c-0.6,0-0.9-0.3-0.9-0.9v-14.5c0-0.6,0.3-0.9,0.9-0.9h5.6c3.3,0,5,1.2,5,3.5v0.9
						c0,0.9-0.3,1.6-0.9,2.1c-0.6,0.5-1.5,0.8-2.7,0.8c1.6,0,2.7,0.4,3.4,1c0.7,0.6,1.1,1.5,1.1,2.6v1.1
						C866.7,561.8,864.7,563.2,860.6,563.2z M860.4,549.6h-3.1v3.8h3.1c0.7,0,1.3-0.1,1.6-0.4c0.3-0.2,0.5-0.7,0.5-1.4v-0.4
						c0-0.6-0.2-1-0.5-1.3C861.7,549.7,861.1,549.6,860.4,549.6z M860.5,555.9h-3.2v4.6h3.2c1.1,0,1.8-0.2,2.3-0.5
						c0.5-0.3,0.7-0.9,0.7-1.8v-0.4c0-0.8-0.2-1.3-0.7-1.6C862.3,556,861.6,555.9,860.5,555.9z"/>
					<path class="st0" d="M870.7,563.2h-1.4c-0.6,0-0.9-0.3-0.9-0.9v-14.5c0-0.6,0.3-0.9,0.9-0.9h5.2c1.1,0,2,0.1,2.8,0.2
						c0.7,0.2,1.3,0.4,1.7,0.8c0.4,0.4,0.7,0.9,0.9,1.4c0.2,0.6,0.3,1.3,0.3,2.2v0.4c0,1-0.2,1.9-0.6,2.7c-0.4,0.7-1.1,1.3-2,1.6
						l2.5,5.9c0.1,0.3,0.1,0.5,0,0.7c-0.1,0.2-0.3,0.3-0.6,0.3h-1.7c-0.4,0-0.7-0.2-0.9-0.6l-2.4-5.9h-2.8v5.6
						C871.6,562.9,871.3,563.2,870.7,563.2z M874.6,549.9h-3v4.1h3c0.9,0,1.5-0.1,1.9-0.4s0.5-0.8,0.5-1.5v-0.3
						c0-0.7-0.2-1.2-0.5-1.5C876.1,550,875.5,549.9,874.6,549.9z"/>
					<path class="st0" d="M891.7,563.2H883c-0.6,0-0.9-0.3-0.9-0.9v-14.5c0-0.6,0.3-0.9,0.9-0.9h8.7c0.6,0,0.9,0.3,0.9,0.9v1.2
						c0,0.6-0.3,0.9-0.9,0.9h-6.4v3.3h6.1c0.6,0,0.9,0.3,0.9,0.9v1.1c0,0.6-0.3,0.9-0.9,0.9h-6.1v4h6.4c0.6,0,0.9,0.3,0.9,0.9v1.2
						C892.6,562.9,892.3,563.2,891.7,563.2z"/>
				</g>
			</g>
			<g>
				<g>
					<path class="st0" d="M648.8,481.4v1.7c0,1.1-0.2,2.2-0.5,3.1c-0.3,0.9-0.8,1.7-1.4,2.3s-1.4,1.2-2.4,1.5
						c-1,0.4-2.1,0.5-3.3,0.5c-1.3,0-2.4-0.2-3.4-0.5c-1-0.3-1.8-0.8-2.4-1.5s-1.1-1.4-1.4-2.3c-0.3-0.9-0.5-1.9-0.5-3.1v-1.7
						c0-2.3,0.6-4.1,1.9-5.4c1.3-1.3,3.2-2,5.7-2c1.3,0,2.4,0.2,3.4,0.5c1,0.3,1.8,0.8,2.4,1.5c0.6,0.7,1.1,1.4,1.4,2.3
						S648.8,480.2,648.8,481.4z M645.6,482.9v-1.3c0-0.9-0.1-1.6-0.3-2.2s-0.4-1.1-0.8-1.4c-0.4-0.4-0.8-0.6-1.4-0.8
						c-0.5-0.2-1.2-0.2-2-0.2c-0.8,0-1.4,0.1-2,0.2c-0.5,0.1-1,0.4-1.4,0.8c-0.4,0.4-0.6,0.8-0.8,1.4s-0.3,1.3-0.3,2.2v1.3
						c0,0.9,0.1,1.6,0.3,2.2c0.2,0.6,0.4,1.1,0.8,1.4c0.4,0.3,0.8,0.6,1.4,0.7s1.2,0.2,2,0.2s1.4-0.1,2-0.2s1-0.4,1.3-0.7
						s0.6-0.8,0.8-1.4C645.6,484.5,645.6,483.8,645.6,482.9z"/>
					<path class="st0" d="M658.1,490.5c-1.3,0-2.5-0.1-3.4-0.4s-1.7-0.7-2.3-1.3s-1.1-1.4-1.4-2.3c-0.3-0.9-0.4-2.1-0.4-3.5v-1.7
						c0-1.1,0.1-2.1,0.4-3c0.3-0.9,0.7-1.6,1.3-2.3c0.6-0.6,1.4-1.1,2.4-1.5s2.1-0.5,3.4-0.5c2.2,0,4,0.5,5.2,1.4s2,2.2,2.2,3.9
						c0.1,0.3,0.1,0.5,0.1,0.7c0,0.6-0.2,0.9-0.8,0.9h-1.5c-0.3,0-0.5-0.1-0.7-0.2s-0.2-0.3-0.3-0.6c-0.1-0.3-0.1-0.5-0.1-0.6
						c-0.2-0.8-0.7-1.5-1.4-1.9s-1.6-0.6-2.8-0.6c-1,0-1.8,0.1-2.4,0.4c-0.6,0.3-1.1,0.8-1.4,1.4s-0.5,1.6-0.5,2.7v1.3
						c0,1.6,0.3,2.8,1,3.5s1.8,1.1,3.3,1.1c1.3,0,2.2-0.2,2.9-0.6s1.1-1.1,1.3-2.1c0-0.2,0.1-0.4,0.1-0.6c0-0.3,0.1-0.5,0.3-0.6
						s0.4-0.2,0.7-0.2h1.4c0.6,0,0.9,0.3,0.8,0.9c0,0,0,0.2-0.1,0.7c-0.2,1.9-0.9,3.3-2.1,4.2C662.2,490,660.5,490.5,658.1,490.5z"
						/>
					<path class="st0" d="M671,477.3h-3.8c-0.6,0-0.9-0.3-0.9-0.9V475c0-0.6,0.3-0.9,0.9-0.9h10.9c0.6,0,0.9,0.3,0.9,0.9v1.4
						c0,0.6-0.3,0.9-0.9,0.9h-3.8v12.2c0,0.6-0.3,0.9-0.9,0.9H672c-0.6,0-0.9-0.3-0.9-0.9V477.3z"/>
					<path class="st0" d="M694.7,481.4v1.7c0,1.1-0.2,2.2-0.5,3.1c-0.3,0.9-0.8,1.7-1.4,2.3c-0.6,0.7-1.4,1.2-2.4,1.5
						c-1,0.4-2.1,0.5-3.3,0.5c-1.3,0-2.4-0.2-3.4-0.5c-1-0.3-1.8-0.8-2.4-1.5c-0.6-0.7-1.1-1.4-1.4-2.3c-0.3-0.9-0.5-1.9-0.5-3.1
						v-1.7c0-2.3,0.6-4.1,1.9-5.4c1.3-1.3,3.2-2,5.7-2c1.3,0,2.4,0.2,3.4,0.5c1,0.3,1.8,0.8,2.4,1.5c0.6,0.7,1.1,1.4,1.4,2.3
						C694.6,479.2,694.7,480.2,694.7,481.4z M691.5,482.9v-1.3c0-0.9-0.1-1.6-0.3-2.2c-0.2-0.6-0.4-1.1-0.8-1.4
						c-0.4-0.4-0.8-0.6-1.4-0.8c-0.5-0.2-1.2-0.2-2-0.2c-0.8,0-1.4,0.1-2,0.2c-0.5,0.1-1,0.4-1.4,0.8c-0.4,0.4-0.6,0.8-0.8,1.4
						c-0.2,0.6-0.3,1.3-0.3,2.2v1.3c0,0.9,0.1,1.6,0.3,2.2c0.2,0.6,0.4,1.1,0.8,1.4c0.4,0.3,0.8,0.6,1.4,0.7c0.5,0.1,1.2,0.2,2,0.2
						s1.4-0.1,2-0.2s1-0.4,1.3-0.7s0.6-0.8,0.8-1.4C691.4,484.5,691.5,483.8,691.5,482.9z"/>
					<path class="st0" d="M703,490.4h-5.6c-0.6,0-0.9-0.3-0.9-0.9V475c0-0.6,0.3-0.9,0.9-0.9h5.6c3.3,0,5,1.2,5,3.5v0.9
						c0,0.9-0.3,1.6-0.9,2.1c-0.6,0.5-1.5,0.8-2.7,0.8c1.6,0,2.7,0.4,3.4,1c0.7,0.6,1.1,1.5,1.1,2.6v1.1
						C709.1,488.9,707,490.4,703,490.4z M702.8,476.7h-3.1v3.8h3.1c0.7,0,1.3-0.1,1.6-0.4c0.3-0.2,0.5-0.7,0.5-1.4v-0.4
						c0-0.6-0.2-1-0.5-1.3C704,476.8,703.5,476.7,702.8,476.7z M702.9,483.1h-3.2v4.6h3.2c1.1,0,1.8-0.2,2.3-0.5
						c0.5-0.3,0.7-0.9,0.7-1.8v-0.4c0-0.8-0.2-1.3-0.7-1.6C704.7,483.2,704,483.1,702.9,483.1z"/>
					<path class="st0" d="M713.1,490.4h-1.4c-0.6,0-0.9-0.3-0.9-0.9V475c0-0.6,0.3-0.9,0.9-0.9h5.2c1.1,0,2,0.1,2.8,0.2
						c0.7,0.2,1.3,0.4,1.7,0.8c0.4,0.4,0.7,0.9,0.9,1.4c0.2,0.6,0.3,1.3,0.3,2.2v0.4c0,1-0.2,1.9-0.6,2.7c-0.4,0.7-1.1,1.3-2,1.6
						l2.5,5.9c0.1,0.3,0.1,0.5,0,0.7c-0.1,0.2-0.3,0.3-0.6,0.3h-1.7c-0.4,0-0.7-0.2-0.9-0.6l-2.4-5.9H714v5.6
						C714,490,713.7,490.4,713.1,490.4z M717,477h-3v4.1h3c0.9,0,1.5-0.1,1.9-0.4s0.5-0.8,0.5-1.5v-0.3c0-0.7-0.2-1.2-0.5-1.5
						S717.9,477,717,477z"/>
					<path class="st0" d="M734,490.4h-8.7c-0.6,0-0.9-0.3-0.9-0.9V475c0-0.6,0.3-0.9,0.9-0.9h8.7c0.6,0,0.9,0.3,0.9,0.9v1.2
						c0,0.6-0.3,0.9-0.9,0.9h-6.4v3.3h6.1c0.6,0,0.9,0.3,0.9,0.9v1.1c0,0.6-0.3,0.9-0.9,0.9h-6.1v4h6.4c0.6,0,0.9,0.3,0.9,0.9v1.2
						C734.9,490,734.6,490.4,734,490.4z"/>
				</g>
			</g>
			<g>
				<path class="st1" d="M516.4,508.5c1.6,0.1,2.9,0.2,3.9,0.6c0.9,0.3,1.6,0.8,2.1,1.5c0.4,0.7,0.6,1.5,0.6,2.6v0.1
					c0,1.7-0.6,2.9-1.8,3.7c-1.2,0.8-3,1.2-5.3,1.2c-2.2,0-3.9-0.4-5.1-1.1c-1.1-0.8-1.8-1.9-2-3.5c0-0.1,0-0.1,0-0.2
					c0-0.1,0-0.2,0-0.2c0-0.5,0.3-0.8,0.8-0.8h1.4c0.3,0,0.6,0.1,0.7,0.2c0.1,0.1,0.2,0.3,0.3,0.6c0,0.1,0.1,0.3,0.1,0.5
					c0.2,0.7,0.6,1.2,1.2,1.5s1.5,0.4,2.6,0.4c1.3,0,2.3-0.2,2.9-0.5s1-0.8,1-1.4v-0.1c0-0.5-0.1-0.9-0.4-1.1
					c-0.2-0.3-0.7-0.5-1.2-0.6c-0.6-0.1-1.5-0.3-2.6-0.3c-1.3-0.1-2.4-0.2-3.3-0.4c-0.9-0.2-1.6-0.5-2.1-0.9
					c-0.5-0.4-0.9-0.8-1.1-1.3c-0.2-0.5-0.3-1.2-0.3-1.9v-0.2c0-1.5,0.6-2.7,1.8-3.6c1.2-0.8,3-1.3,5.3-1.3c2.1,0,3.7,0.4,4.9,1.1
					c1.2,0.8,1.9,1.8,2.1,3.2c0,0.1,0.1,0.3,0.1,0.6c0,0.5-0.2,0.8-0.8,0.8h-1.4c-0.4,0-0.6,0-0.7-0.1s-0.2-0.3-0.3-0.6
					c0-0.2-0.1-0.4-0.2-0.5c-0.5-1-1.7-1.6-3.8-1.6c-2.6,0-3.9,0.6-3.9,1.9v0.1c0,0.3,0.1,0.6,0.2,0.8c0.1,0.2,0.3,0.4,0.6,0.6
					c0.3,0.2,0.8,0.3,1.4,0.4C514.7,508.4,515.5,508.4,516.4,508.5z"/>
				<path class="st1" d="M534.4,518.1h-8.7c-0.6,0-0.9-0.3-0.9-0.9v-14.5c0-0.6,0.3-0.9,0.9-0.9h8.7c0.6,0,0.9,0.3,0.9,0.9v1.2
					c0,0.6-0.3,0.9-0.9,0.9H528v3.3h6.1c0.6,0,0.9,0.3,0.9,0.9v1.1c0,0.6-0.3,0.9-0.9,0.9H528v4h6.4c0.6,0,0.9,0.3,0.9,0.9v1.2
					C535.3,517.8,535,518.1,534.4,518.1z"/>
				<path class="st1" d="M549.7,508.1c0,1.6-0.5,2.7-1.5,3.5c-1,0.8-2.5,1.2-4.7,1.2h-3.3v4.3c0,0.6-0.3,0.9-0.9,0.9H538
					c-0.6,0-0.9-0.3-0.9-0.9v-14.5c0-0.6,0.3-0.9,0.9-0.9h5.6c2.1,0,3.7,0.4,4.7,1.3c1,0.8,1.5,2.1,1.5,3.7V508.1z M543.5,504.7
					h-3.2v5.4h3.2c1.1,0,1.8-0.2,2.3-0.5c0.5-0.4,0.7-1,0.7-1.9v-0.3c0-1-0.2-1.7-0.7-2C545.3,504.9,544.6,504.7,543.5,504.7z"/>
				<path class="st1" d="M555.7,505h-3.8c-0.6,0-0.9-0.3-0.9-0.9v-1.4c0-0.6,0.3-0.9,0.9-0.9h10.9c0.6,0,0.9,0.3,0.9,0.9v1.4
					c0,0.6-0.3,0.9-0.9,0.9h-3.8v12.2c0,0.6-0.3,0.9-0.9,0.9h-1.4c-0.6,0-0.9-0.3-0.9-0.9V505z"/>
				<path class="st1" d="M575,518.1h-8.7c-0.6,0-0.9-0.3-0.9-0.9v-14.5c0-0.6,0.3-0.9,0.9-0.9h8.7c0.6,0,0.9,0.3,0.9,0.9v1.2
					c0,0.6-0.3,0.9-0.9,0.9h-6.4v3.3h6.1c0.6,0,0.9,0.3,0.9,0.9v1.1c0,0.6-0.3,0.9-0.9,0.9h-6.1v4h6.4c0.6,0,0.9,0.3,0.9,0.9v1.2
					C575.9,517.8,575.6,518.1,575,518.1z"/>
				<path class="st1" d="M587.2,518.1h-0.6c-0.4,0-0.7-0.2-0.9-0.6l-4.9-11.8v11.5c0,0.6-0.3,0.9-0.9,0.9h-1.2
					c-0.6,0-0.9-0.3-0.9-0.9v-14.5c0-0.6,0.3-0.9,0.9-0.9h2.9c0.4,0,0.7,0.2,0.9,0.6l4.4,10.5l4.4-10.5c0.2-0.4,0.5-0.6,0.9-0.6h2.9
					c0.6,0,0.9,0.3,0.9,0.9v14.5c0,0.6-0.3,0.9-0.9,0.9h-1.2c-0.6,0-0.9-0.3-0.9-0.9v-11.5l-4.9,11.8
					C587.9,517.9,587.6,518.1,587.2,518.1z"/>
				<path class="st1" d="M604.3,518.1h-5.6c-0.6,0-0.9-0.3-0.9-0.9v-14.5c0-0.6,0.3-0.9,0.9-0.9h5.6c3.3,0,5,1.2,5,3.5v0.9
					c0,0.9-0.3,1.6-0.9,2.1c-0.6,0.5-1.5,0.8-2.7,0.8c1.6,0,2.7,0.4,3.4,1c0.7,0.6,1.1,1.5,1.1,2.6v1.1
					C610.5,516.7,608.4,518.1,604.3,518.1z M604.2,504.4h-3.1v3.8h3.1c0.7,0,1.3-0.1,1.6-0.4c0.3-0.2,0.5-0.7,0.5-1.4v-0.4
					c0-0.6-0.2-1-0.5-1.3C605.4,504.6,604.9,504.4,604.2,504.4z M604.3,510.8h-3.2v4.6h3.2c1.1,0,1.8-0.2,2.3-0.5
					c0.5-0.3,0.7-0.9,0.7-1.8v-0.4c0-0.8-0.2-1.3-0.7-1.6C606.1,510.9,605.4,510.8,604.3,510.8z"/>
				<path class="st1" d="M614.5,518.1h-1.4c-0.6,0-0.9-0.3-0.9-0.9v-14.5c0-0.6,0.3-0.9,0.9-0.9h5.2c1.1,0,2,0.1,2.8,0.2
					c0.7,0.2,1.3,0.4,1.7,0.8c0.4,0.4,0.7,0.9,0.9,1.4c0.2,0.6,0.3,1.3,0.3,2.2v0.4c0,1-0.2,1.9-0.6,2.7c-0.4,0.7-1.1,1.3-2,1.6
					l2.5,5.9c0.1,0.3,0.1,0.5,0,0.7c-0.1,0.2-0.3,0.3-0.6,0.3h-1.7c-0.4,0-0.7-0.2-0.9-0.6l-2.4-5.9h-2.8v5.6
					C615.4,517.8,615.1,518.1,614.5,518.1z M618.4,504.7h-3v4.1h3c0.9,0,1.5-0.1,1.9-0.4s0.5-0.8,0.5-1.5v-0.3
					c0-0.7-0.2-1.2-0.5-1.5S619.3,504.7,618.4,504.7z"/>
				<path class="st1" d="M635.4,518.1h-8.7c-0.6,0-0.9-0.3-0.9-0.9v-14.5c0-0.6,0.3-0.9,0.9-0.9h8.7c0.6,0,0.9,0.3,0.9,0.9v1.2
					c0,0.6-0.3,0.9-0.9,0.9H629v3.3h6.1c0.6,0,0.9,0.3,0.9,0.9v1.1c0,0.6-0.3,0.9-0.9,0.9H629v4h6.4c0.6,0,0.9,0.3,0.9,0.9v1.2
					C636.3,517.8,636,518.1,635.4,518.1z"/>
			</g>
			<g>
				<path class="st1" d="M740.8,529.3h-1.4c-0.3,0-0.6-0.2-0.8-0.5l-7.4-10.4v10c0,0.6-0.3,0.9-0.9,0.9H729c-0.6,0-0.9-0.3-0.9-0.9
					v-14.5c0-0.6,0.3-0.9,0.9-0.9h1.3c0.4,0,0.7,0.1,0.8,0.4l7.4,10.1v-9.6c0-0.6,0.3-0.9,0.9-0.9h1.2c0.6,0,0.9,0.3,0.9,0.9v14.5
					C741.7,529,741.4,529.3,740.8,529.3z"/>
				<path class="st1" d="M758.6,520.3v1.7c0,1.1-0.2,2.2-0.5,3.1c-0.3,0.9-0.8,1.7-1.4,2.3c-0.6,0.7-1.4,1.2-2.4,1.5
					c-1,0.4-2.1,0.5-3.3,0.5c-1.3,0-2.4-0.2-3.4-0.5c-1-0.3-1.8-0.8-2.4-1.5c-0.6-0.7-1.1-1.4-1.4-2.3c-0.3-0.9-0.5-1.9-0.5-3.1
					v-1.7c0-2.3,0.6-4.1,1.9-5.4c1.3-1.3,3.2-2,5.7-2c1.3,0,2.4,0.2,3.4,0.5c1,0.3,1.8,0.8,2.4,1.5c0.6,0.7,1.1,1.4,1.4,2.3
					C758.5,518.1,758.6,519.1,758.6,520.3z M755.4,521.8v-1.3c0-0.9-0.1-1.6-0.3-2.2c-0.2-0.6-0.4-1.1-0.8-1.4
					c-0.4-0.4-0.8-0.6-1.4-0.8c-0.5-0.2-1.2-0.2-2-0.2c-0.8,0-1.4,0.1-2,0.2c-0.5,0.1-1,0.4-1.4,0.8c-0.4,0.4-0.6,0.8-0.8,1.4
					c-0.2,0.6-0.3,1.3-0.3,2.2v1.3c0,0.9,0.1,1.6,0.3,2.2c0.2,0.6,0.4,1.1,0.8,1.4c0.4,0.3,0.8,0.6,1.4,0.7c0.5,0.1,1.2,0.2,2,0.2
					s1.4-0.1,2-0.2s1-0.4,1.3-0.7s0.6-0.8,0.8-1.4C755.3,523.4,755.4,522.7,755.4,521.8z"/>
				<path class="st1" d="M767.4,529.3h-2.8c-0.5,0-0.8-0.2-0.9-0.7l-4.7-14.6c-0.1-0.3-0.1-0.5,0.1-0.7c0.1-0.2,0.4-0.3,0.7-0.3h1.4
					c0.5,0,0.8,0.2,0.9,0.7l4,13.1l4-13.1c0.1-0.5,0.4-0.7,0.9-0.7h1.4c0.3,0,0.5,0.1,0.7,0.3c0.1,0.2,0.2,0.4,0.1,0.7l-4.7,14.6
					C768.2,529,767.9,529.3,767.4,529.3z"/>
				<path class="st1" d="M784.5,529.3h-8.7c-0.6,0-0.9-0.3-0.9-0.9v-14.5c0-0.6,0.3-0.9,0.9-0.9h8.7c0.6,0,0.9,0.3,0.9,0.9v1.2
					c0,0.6-0.3,0.9-0.9,0.9h-6.4v3.3h6.1c0.6,0,0.9,0.3,0.9,0.9v1.1c0,0.6-0.3,0.9-0.9,0.9h-6.1v4h6.4c0.6,0,0.9,0.3,0.9,0.9v1.2
					C785.4,529,785.1,529.3,784.5,529.3z"/>
				<path class="st1" d="M796.7,529.3h-0.6c-0.4,0-0.7-0.2-0.9-0.6l-4.9-11.8v11.5c0,0.6-0.3,0.9-0.9,0.9h-1.2
					c-0.6,0-0.9-0.3-0.9-0.9v-14.5c0-0.6,0.3-0.9,0.9-0.9h2.9c0.4,0,0.7,0.2,0.9,0.6l4.4,10.5l4.4-10.5c0.1-0.4,0.5-0.6,0.9-0.6h2.9
					c0.6,0,0.9,0.3,0.9,0.9v14.5c0,0.6-0.3,0.9-0.9,0.9h-1.2c-0.6,0-0.9-0.3-0.9-0.9v-11.5l-4.9,11.8
					C797.5,529.1,797.2,529.3,796.7,529.3z"/>
				<path class="st1" d="M813.9,529.3h-5.6c-0.6,0-0.9-0.3-0.9-0.9v-14.5c0-0.6,0.3-0.9,0.9-0.9h5.6c3.3,0,5,1.2,5,3.5v0.9
					c0,0.9-0.3,1.6-0.9,2.1c-0.6,0.5-1.5,0.8-2.7,0.8c1.6,0,2.7,0.4,3.4,1c0.7,0.6,1.1,1.5,1.1,2.6v1.1
					C820,527.8,817.9,529.3,813.9,529.3z M813.7,515.6h-3.1v3.8h3.1c0.7,0,1.3-0.1,1.6-0.4c0.3-0.2,0.5-0.7,0.5-1.4v-0.4
					c0-0.6-0.2-1-0.5-1.3C814.9,515.8,814.4,515.6,813.7,515.6z M813.8,522h-3.2v4.6h3.2c1.1,0,1.8-0.2,2.3-0.5
					c0.5-0.3,0.7-0.9,0.7-1.8V524c0-0.8-0.2-1.3-0.7-1.6C815.6,522.1,814.9,522,813.8,522z"/>
				<path class="st1" d="M824,529.3h-1.4c-0.6,0-0.9-0.3-0.9-0.9v-14.5c0-0.6,0.3-0.9,0.9-0.9h5.2c1.1,0,2,0.1,2.8,0.2
					c0.7,0.2,1.3,0.4,1.7,0.8c0.4,0.4,0.7,0.9,0.9,1.4c0.2,0.6,0.3,1.3,0.3,2.2v0.4c0,1-0.2,1.9-0.6,2.7c-0.4,0.7-1.1,1.3-2,1.6
					l2.5,5.9c0.1,0.3,0.1,0.5,0,0.7c-0.1,0.2-0.3,0.3-0.6,0.3h-1.7c-0.4,0-0.7-0.2-0.9-0.6l-2.4-5.9h-2.8v5.6
					C824.9,529,824.6,529.3,824,529.3z M827.9,515.9h-3v4.1h3c0.9,0,1.5-0.1,1.9-0.4s0.5-0.8,0.5-1.5v-0.3c0-0.7-0.2-1.2-0.5-1.5
					C829.4,516,828.8,515.9,827.9,515.9z"/>
				<path class="st1" d="M844.9,529.3h-8.7c-0.6,0-0.9-0.3-0.9-0.9v-14.5c0-0.6,0.3-0.9,0.9-0.9h8.7c0.6,0,0.9,0.3,0.9,0.9v1.2
					c0,0.6-0.3,0.9-0.9,0.9h-6.4v3.3h6.1c0.6,0,0.9,0.3,0.9,0.9v1.1c0,0.6-0.3,0.9-0.9,0.9h-6.1v4h6.4c0.6,0,0.9,0.3,0.9,0.9v1.2
					C845.8,529,845.5,529.3,844.9,529.3z"/>
			</g>
			<g>
				<g>
					<path class="st5" d="M651.9,575.5c2.4-17.3,4.6-34.4-12.4-49.1"/>
					<g>
						<polygon class="st1" points="659.6,568.5 652,574.4 646.2,566.8 645.4,572.5 651.3,580.1 658.9,574.2 						"/>
					</g>
				</g>
			</g>
			<g>
				<g>
					<path class="st4" d="M676.3,564.4c-2.3-11.4-6.8-42.3,8-64.5"/>
					<g>
						<polygon class="st0" points="681.2,555.1 676.1,563.2 668,558.1 669.2,563.7 677.3,568.8 682.5,560.7 						"/>
					</g>
				</g>
			</g>
			<g>
				<g>
					<path class="st5" d="M704.6,581.4c-5.2-13.6-10-39.6,14.2-53.8"/>
					<g>
						<polygon class="st1" points="707.9,571.4 704.2,580.3 695.4,576.7 697.6,582 706.4,585.6 710.1,576.7 						"/>
					</g>
				</g>
			</g>
			<g>
				<g>
					<path class="st5" d="M346.2,579.6c-0.6-17.1,12.6-26.4,20.5-26.4"/>
					<g>
						<polygon class="st1" points="352.3,571 346.1,578.4 338.8,572.2 339.3,578 346.7,584.1 352.8,576.8 						"/>
					</g>
				</g>
			</g>
		</g>
	</g>
</g>
</svg>
