<?xml version="1.0" encoding="utf-8"?>
<!-- Generator: Adobe Illustrator 19.1.0, SVG Export Plug-In . SVG Version: 6.00 Build 0)  -->
<svg version="1.1" id="Calque_1" xmlns="http://www.w3.org/2000/svg" xmlns:xlink="http://www.w3.org/1999/xlink" x="0px" y="0px"
	 viewBox="0 0 236.3 151.4" style="enable-background:new 0 0 236.3 151.4;" xml:space="preserve">
<style type="text/css">
	.st0{fill:#72B52B;}
	.st1{fill:#71519B;}
	.st2{fill:#C0BFBF;}
	.st3{fill:#EDE5F2;}
	.st4{fill:none;stroke:#72B52B;stroke-width:4;stroke-linecap:round;stroke-miterlimit:10;}
	.st5{fill:none;stroke:#71519B;stroke-width:4;stroke-linecap:round;stroke-miterlimit:10;}
	.st6{fill:#6EA1C1;}
	.st7{fill:#BFBEBE;}
	.st8{fill:#55358A;}
	.st9{fill:#FFFFFF;}
	.st10{fill:#FFFFFF;stroke:#71519B;stroke-width:3;stroke-miterlimit:10;}
	.st11{fill:#FFFFFF;stroke:#72B52B;stroke-width:3;stroke-miterlimit:10;}
	.st12{fill:none;stroke:#FFFFFF;stroke-width:3;stroke-miterlimit:10;}
	.st13{fill:#F2BF00;}
</style>
<g>
	<path d="M1.1,1.5C3.7-1.2,25,3,36.8,4c13.5,1.2,27.1,1.4,40.6,1.6c7.3,0.1,14.6,1.2,22,1.2c11.5,0.1,22.9,2,34.4,1
		c8.4-0.8,16.9-0.1,25.3-0.6c11.9-0.7,23.7-1.8,35.6-3.1c10.6-1.1,21.2-2.7,31.7-4.1c4.7-0.6,7.7,1.2,9.1,5.9c0.6,2.1,1,4.4,0.9,6.5
		c-0.4,8.7-1,17.4-1.5,26.1c-0.4,6.2-0.8,12.4-1.1,18.7c-0.5,11.1-1.1,22.1-1.5,33.2c-0.1,2.2,0.4,4.4,0.4,6.6
		c0,11.3-0.1,22.7-0.3,34c0,4.7-0.2,9.4-0.2,14.1c0,2-0.7,3-2.9,3.2c-5.2,0.5-10.4,1.4-15.7,1.6c-12.9,0.5-25.8,0.6-38.7,0.9
		c-8.2,0.2-16.3,0.1-24.5,0.4c-11.1,0.4-27.9-0.3-38.9,0.1c-5.1,0.2-80.5-3.4-90-3.9c-4.4-0.2-8.8-0.9-13.2-1.3
		c-2-0.2-3.2-1.1-3.2-3.1c-0.2-5-0.4-9.9-0.4-14.9c0-3,0.4-6.1,0.5-9.1c0.2-9.4,0.4-18.8,0.6-28.3c0.1-3.5,0-6.9,0.2-10.4
		c0.5-8.9-0.5-17.7-1.4-26.5C3.8,47.3,3.9,40.6,3.4,34C2.8,23.4-2.2,5,1.1,1.5z M228.2,4.7c-3.6,0.5-7,0.9-10.4,1.3
		c-6.9,0.8-13.7,1.7-20.6,2.4c-4.7,0.5-9.4,0.6-14,1c-6.6,0.6-13.1,1.4-19.7,1.7c-12.7,0.6-25.4,1.1-38.1,1.2
		c-7.2,0.1-14.4-0.8-21.6-1.2c-9.8-0.4-19.6-0.7-29.4-1.1c-5.9-0.2-11.9-0.3-17.8-0.7C45.1,8.7,33.7,7.8,22.2,7.1
		c-5.9-0.4-15.9-2-17.9-0.7s1.1,12.4,1.6,18.3C6.6,34.6,6.8,44.5,8,54.2c2.1,17.5,1.5,35.1,1.4,52.7c0,11-2,22,1.1,33.3
		c1.5,0.2,3.2,0.6,5,0.8c2.1,0.2,4.1,0.2,6.2,0.4c12.9,1.2,25.9,2.5,38.8,3.5c7.6,0.6,15.2,0.6,22.9,0.8c11.9,0.4,23.8,0.4,35.8-0.4
		c12.5-0.8,25.1-0.7,37.7-1c10-0.2,19.9-0.5,29.9-0.8c4-0.1,7.2-2.8,7.3-6.7c0-7.6,0.1-15.2-2.5-22.5c-1.1-3.1-3.1-9.4,1-9.4
		c4.2,0,22.7,0,34.2,0c0-0.2,0.2-0.8,0.2-1.3c-0.2-8.2-0.5-16.3-0.8-24.5c0-1.7,0.1-3.3,0.2-5c0.4-6.2,1.4-12.5,0.9-18.6
		c-0.6-7.6,0.6-14.9,0.8-22.4C228.5,23.9,228.2,14.6,228.2,4.7z M198,137.2c10.6-8.4,25.2-23.9,26.7-27.6c-5.9,0.4-25.4-1-29.2,0
		C198.1,118,198.4,127.6,198,137.2z"/>
	<path d="M190.4,44.9c-5.1,0-10.2,0-15.4,0c-1.8-3-1.1-6.1-1.3-9.1c-0.6-6.9,1.6-9,8.4-8.5c2.3,0.2,4.5,0.6,6.8,0.8
		c1.6,0.2,2.3,1.2,2.4,2.6c0.1,4.2,0,8.3-0.1,12.5C191.2,43.7,190.8,44.2,190.4,44.9z"/>
	<path d="M87.6,69.8c-5.1,0-10.2,0-15.4,0c-1.8-3-1.1-6.1-1.3-9.1c-0.6-6.9,1.6-9,8.4-8.5c2.3,0.2,4.5,0.6,6.8,0.8
		c1.6,0.2,2.3,1.2,2.4,2.6c0.1,4.2,0,8.3-0.1,12.5C88.5,68.6,88,69.1,87.6,69.8z"/>
	<path d="M214.1,44.6c-4.9,1.4-7.1,0.3-11.7-0.5c-2.1-0.3-3.7-3-3.8-5.7c-0.1-1.1,0.6-8.2,2.5-9.4c3.9-2.3,8.3-3.2,12.7-0.9
		c2.1,1.1,3.9,2.7,3.9,5.4C217.7,35.4,219,43.3,214.1,44.6z"/>
	<path d="M137,69.9c-4.9,1.4-7.1,0.3-11.7-0.5c-2.1-0.3-3.7-3-3.8-5.7c-0.1-1.1,0.6-8.2,2.5-9.4c3.9-2.3,8.3-3.2,12.7-0.9
		c2.1,1.1,3.9,2.7,3.9,5.4C140.6,60.7,141.9,68.6,137,69.9z"/>
	<path d="M122.8,28.9c1.6-1.6,10.8-0.5,14.3-0.5c4.1,0,4.3,15.1,1.9,15.2c-4.5,0.3-8.9,0.5-13.4,0.5c-1,0-2.5-1.2-2.7-2.2
		C121.7,37.7,121.1,30.5,122.8,28.9z"/>
	<path d="M149.4,54.2c1.6-1.6,10.8-0.5,14.3-0.5c4.1,0,4.3,15.1,1.9,15.2c-4.5,0.3-8.9,0.5-13.4,0.5c-1,0-2.5-1.2-2.7-2.2
		C148.4,63,147.8,55.8,149.4,54.2z"/>
	<path d="M20,104.3c1.6-1.6,10.8-0.5,14.3-0.5c4.1,0,4.3,15.1,1.9,15.2c-4.5,0.3-8.9,0.5-13.4,0.5c-1,0-2.5-1.2-2.7-2.2
		C19,113.1,18.4,105.9,20,104.3z"/>
	<path d="M35.1,42.6c-1.7,1.9-7.1,2.3-10.5,1.6c-3.8-0.8-5.3-1.4-5.1-5.5c0.1-1.3-0.1-2.6-0.1-3.9c-0.2-4.5,1.1-6.6,5.6-6.9
		c3.9-0.3,10.8-0.5,12,1.4C38,31.2,36.8,40.6,35.1,42.6z"/>
	<path d="M54.2,27.8c7,0.3,8,1.4,8.3,7.7c0.1,1.2,0,2.3,0,3.5c-0.1,3.8-1,4.8-4.6,5.5c-3.9,0.7-7.3-1.2-10.8-2.4
		c-0.8-0.3-1.6-1.9-1.6-2.9c0-3,0-6.2,0.9-9c0.8-2.2,3.5-2.6,5.9-2.8C53.1,27.5,54,27.7,54.2,27.8z"/>
	<path d="M182.7,53.1c7,0.3,8,1.4,8.3,7.7c0.1,1.2,0,2.3,0,3.5c-0.1,3.8-1,4.8-4.6,5.5c-3.9,0.7-7.3-1.2-10.8-2.4
		c-0.8-0.3-1.6-1.9-1.6-2.9c0-3,0-6.2,0.9-9c0.8-2.2,3.5-2.6,5.9-2.8C181.6,52.7,182.5,53,182.7,53.1z"/>
	<path d="M54.2,103.1c7,0.3,8,1.4,8.3,7.7c0.1,1.2,0,2.3,0,3.5c-0.1,3.8-1,4.8-4.6,5.5c-3.9,0.7-7.3-1.2-10.8-2.4
		c-0.8-0.3-1.6-1.9-1.6-2.9c0-3,0-6.2,0.9-9c0.8-2.2,3.5-2.6,5.9-2.8C53.1,102.8,54,103.1,54.2,103.1z"/>
	<path d="M106.2,52.7c7,0.3,8,1.4,8.3,7.7c0.1,1.2,0,2.3,0,3.5c-0.1,3.8-1,4.8-4.6,5.5c-3.9,0.7-7.3-1.2-10.8-2.4
		c-0.8-0.3-1.6-1.9-1.6-2.9c0-3,0-6.2,0.9-9c0.8-2.2,3.5-2.6,5.9-2.8C105.2,52.4,106,52.6,106.2,52.7z"/>
	<path d="M106.3,43.7c-1.3-0.1-2.6-0.2-3.9-0.3C98.3,43,97.2,42,96.5,38c-1.3-7.8-0.3-9.1,7.7-9.5c2.1-0.1,4.3,0,6.5,0.2
		c3.3,0.3,4.5,1.9,4,5.2c-0.2,2-0.5,4-0.6,6c-0.2,3.1-0.5,3.5-3.4,3.8c-0.4,0.1-0.9,0.1-1.3,0.1C108.3,43.7,107.3,43.7,106.3,43.7z"
		/>
	<path d="M209.1,69c-1.3-0.1-2.6-0.2-3.9-0.3c-4.1-0.4-5.2-1.5-5.9-5.5c-1.3-7.8-0.3-9.1,7.7-9.5c2.1-0.1,4.3,0,6.5,0.2
		c3.3,0.3,4.5,1.9,4,5.2c-0.2,2-0.5,4-0.6,6c-0.2,3.1-0.5,3.5-3.4,3.8c-0.4,0.1-0.9,0.1-1.3,0.1C211.1,69,210.1,69,209.1,69z"/>
	<path d="M54.9,68.6c-1.3-0.1-2.6-0.2-3.9-0.3c-4.1-0.4-5.2-1.5-5.9-5.5c-1.3-7.8-0.3-9.1,7.7-9.5c2.1-0.1,4.3,0,6.5,0.2
		c3.3,0.3,4.5,1.9,4,5.2c-0.2,2-0.5,4-0.6,6c-0.2,3.1-0.5,3.5-3.4,3.8c-0.4,0.1-0.9,0.1-1.3,0.1C56.9,68.6,55.9,68.6,54.9,68.6z"/>
	<path d="M86,43.4c-2.9,1.3-5.7,0.6-9.1,0.4c-2.7-0.2-3.9-1.4-4.7-4.1c-1.1-4-0.5-10.7,1.6-11.2s5.8-0.5,8.6-0.5
		c1.1,0,2.7,0.7,3.1,1.6C88,34.2,88.9,42.1,86,43.4z"/>
	<path d="M149.8,28.8c2.3-1.4,6.6-0.2,9.7,0.1c1.4,0.2,3,1.3,3.7,2.4c1,1.6,1.7,3.7,1.8,5.7c0.4,6.5-0.3,7.2-6.8,7.1
		c-2.4-0.1-4.9-0.3-7.4-0.4C148.1,39,147.5,30.2,149.8,28.8z"/>
	<path d="M21.4,53.7c2.3-1.4,6.6-0.2,9.7,0.1c1.4,0.2,3,1.3,3.7,2.4c1,1.6,1.7,3.7,1.8,5.7c0.4,6.5-0.3,7.2-6.8,7.1
		c-2.4-0.1-4.9-0.3-7.4-0.4C19.6,63.9,19,55.1,21.4,53.7z"/>
	<path d="M190.4,96.4c-5.1,0-10.2,0-15.4,0c-1.8-3-1.1-6.1-1.3-9.1c-0.6-6.9,1.6-9,8.4-8.5c2.3,0.2,4.5,0.6,6.8,0.8
		c1.6,0.2,2.3,1.2,2.4,2.6c0.1,4.2,0,8.3-0.1,12.5C191.2,95.3,190.8,95.8,190.4,96.4z"/>
	<path d="M214.1,96.2c-4.9,1.4-7.1,0.3-11.7-0.5c-2.1-0.3-3.7-3-3.8-5.7c-0.1-1.1,0.6-8.2,2.5-9.4c3.9-2.3,8.3-3.2,12.7-0.9
		c2.1,1.1,3.9,2.7,3.9,5.4C217.7,86.9,219,94.8,214.1,96.2z"/>
	<path d="M122.8,80.4c1.6-1.6,10.8-0.5,14.3-0.5c4.1,0,4.3,15.1,1.9,15.2c-4.5,0.3-8.9,0.5-13.4,0.5c-1,0-2.5-1.2-2.7-2.2
		C121.7,89.2,121.1,82,122.8,80.4z"/>
	<path d="M35.1,94.1c-1.7,1.9-7.1,2.3-10.5,1.6c-3.8-0.8-5.3-1.4-5.1-5.5c0.1-1.3-0.1-2.6-0.1-3.9c-0.2-4.5,1.1-6.6,5.6-6.9
		c3.9-0.3,10.8-0.5,12,1.4C38,82.7,36.8,92.2,35.1,94.1z"/>
	<path d="M112.2,117.9c-1.7,1.9-7.1,2.3-10.5,1.6c-3.8-0.8-5.3-1.4-5.1-5.5c0.1-1.3-0.1-2.6-0.1-3.9c-0.2-4.5,1.1-6.6,5.6-6.9
		c3.9-0.3,10.8-0.5,12,1.4C115.1,106.6,113.9,116,112.2,117.9z"/>
	<path d="M54.2,79.3c7,0.3,8,1.4,8.3,7.7c0.1,1.2,0,2.3,0,3.5c-0.1,3.8-1,4.8-4.6,5.5c-3.9,0.7-7.3-1.2-10.8-2.4
		c-0.8-0.3-1.6-1.9-1.6-2.9c0-3,0-6.2,0.9-9c0.8-2.2,3.5-2.6,5.9-2.8C53.1,79,54,79.3,54.2,79.3z"/>
	<path d="M106.3,95.3c-1.3-0.1-2.6-0.2-3.9-0.3c-4.1-0.4-5.2-1.5-5.9-5.5c-1.3-7.8-0.3-9.1,7.7-9.5c2.1-0.1,4.3,0,6.5,0.2
		c3.3,0.3,4.5,1.9,4,5.2c-0.2,2-0.5,4-0.6,6c-0.2,3.1-0.5,3.5-3.4,3.8c-0.4,0.1-0.9,0.1-1.3,0.1C108.3,95.3,107.3,95.3,106.3,95.3z"
		/>
	<path d="M86,94.9c-2.9,1.3-5.7,0.6-9.1,0.4c-2.7-0.2-3.9-1.4-4.7-4.1c-1.1-4-0.5-10.7,1.6-11.2c2.1-0.5,5.8-0.5,8.6-0.5
		c1.1,0,2.7,0.7,3.1,1.6C88,85.8,88.9,93.6,86,94.9z"/>
	<path d="M149.8,80.3c2.3-1.4,6.6-0.2,9.7,0.1c1.4,0.2,3,1.3,3.7,2.4c1,1.6,1.7,3.7,1.8,5.7c0.4,6.5-0.3,7.2-6.8,7.1
		c-2.4-0.1-4.9-0.3-7.4-0.4C148.1,90.6,147.5,81.7,149.8,80.3z"/>
	<path d="M72.8,104.1c2.3-1.4,6.6-0.2,9.7,0.1c1.4,0.2,3,1.3,3.7,2.4c1,1.6,1.7,3.7,1.8,5.7c0.4,6.5-0.3,7.2-6.8,7.1
		c-2.4-0.1-4.9-0.3-7.4-0.4C71,114.4,70.4,105.6,72.8,104.1z"/>
	<g>
		<g>
			<path class="st0" d="M133.1,118.6h-9.3c-0.4,0-0.7-0.2-0.7-0.7v-1.1c0-0.3,0.1-0.5,0.4-0.6c0.9-0.5,1.7-1,2.3-1.3
				c0.6-0.3,1.2-0.7,1.8-1c0.6-0.3,1-0.6,1.4-0.8c0.3-0.2,0.6-0.4,1-0.6c0.3-0.2,0.5-0.4,0.7-0.5c0.1-0.2,0.3-0.3,0.4-0.4
				s0.2-0.2,0.2-0.4s0-0.3,0.1-0.4c0-0.1,0-0.2,0-0.4v-0.1c0-1.1-1-1.7-2.9-1.7c-1.5,0-2.4,0.5-2.9,1.5c-0.1,0.3-0.2,0.5-0.2,0.6
				c0,0.2-0.1,0.4-0.2,0.5c-0.1,0.1-0.3,0.1-0.5,0.1h-1c-0.2,0-0.4-0.1-0.5-0.2c-0.1-0.1-0.2-0.3-0.1-0.5c0-0.2,0-0.6,0.1-0.9
				c0.3-1,0.8-1.8,1.8-2.4c0.9-0.6,2.1-0.8,3.6-0.8c1.8,0,3.1,0.3,4,1c0.9,0.6,1.3,1.5,1.3,2.7v0.1c0,0.3,0,0.5,0,0.7
				c0,0.2-0.1,0.4-0.1,0.6c-0.1,0.2-0.2,0.4-0.3,0.6s-0.3,0.3-0.5,0.6c-0.3,0.2-0.5,0.5-0.8,0.7s-0.7,0.5-1.2,0.8
				c-0.5,0.3-1.1,0.7-1.7,1s-1.3,0.8-2.2,1.3h6.3c0.5,0,0.7,0.2,0.7,0.7v0.8C133.8,118.4,133.5,118.6,133.1,118.6z"/>
			<path class="st0" d="M140.5,118.7c-1.2,0-2.2-0.2-3-0.5s-1.4-0.8-1.8-1.5c-0.3-0.4-0.4-0.9-0.5-1.5c0-0.5,0.2-0.7,0.6-0.7h1
				c0.2,0,0.4,0.1,0.5,0.1c0.1,0.1,0.2,0.3,0.3,0.5c0.1,0.3,0.2,0.5,0.4,0.7c0.5,0.5,1.3,0.8,2.6,0.8c0.7,0,1.3-0.1,1.8-0.3
				c0.4-0.2,0.8-0.6,1-1.1c0.2-0.5,0.3-1.2,0.3-2V111c0,0.4-0.1,0.9-0.2,1.2c-0.2,0.4-0.4,0.7-0.7,1c-0.3,0.3-0.7,0.5-1.2,0.7
				c-0.5,0.2-1.1,0.3-1.8,0.3c-1.7,0-2.9-0.3-3.6-1c-0.8-0.6-1.1-1.6-1.1-2.8v-0.1c0-1.3,0.5-2.2,1.4-2.9s2.3-1.1,4-1.1
				c1.9,0,3.3,0.4,4.3,1.1c0.9,0.8,1.4,1.9,1.4,3.5v2.6c0,0.8-0.1,1.5-0.3,2.1s-0.5,1.1-1,1.6c-0.4,0.5-1,0.8-1.7,1
				C142.3,118.6,141.4,118.7,140.5,118.7z M140.5,112.4c1,0,1.8-0.2,2.3-0.5s0.8-0.8,0.8-1.3v-0.1c0-0.7-0.3-1.2-0.8-1.5
				c-0.5-0.3-1.3-0.5-2.4-0.5c-1.1,0-1.9,0.2-2.4,0.5c-0.5,0.3-0.7,0.8-0.7,1.4v0c0,0.7,0.3,1.2,0.8,1.5
				C138.7,112.2,139.4,112.4,140.5,112.4z"/>
		</g>
	</g>
</g>
</svg>
