<?xml version="1.0" encoding="utf-8"?>
<!-- Generator: Adobe Illustrator 19.1.0, SVG Export Plug-In . SVG Version: 6.00 Build 0)  -->
<svg version="1.1" id="Calque_1" xmlns="http://www.w3.org/2000/svg" xmlns:xlink="http://www.w3.org/1999/xlink" x="0px" y="0px"
	 viewBox="0 0 371.2 613.4" style="enable-background:new 0 0 371.2 613.4;" xml:space="preserve">
<style type="text/css">
	.st0{fill:#009DBF;}
	.st1{fill:#D0095B;}
	.st2{fill:#009EC0;}
	.st3{fill:#D1005A;}
	.st4{fill:#C0BFBF;}
	.st5{enable-background:new    ;}
	.st6{fill:none;stroke:#D0095B;stroke-width:3;stroke-miterlimit:10;}
	.st7{fill:#FFFFFF;stroke:#D0095B;stroke-width:3;stroke-miterlimit:10;}
	.st8{fill:#FFFFFF;}
</style>
<g>
	<path d="M218.2,313.8c-5.6,0-7.9,7-6.6,10.1c0.9,2.3,2.5,4.4,5.3,4.4c3.4,0.1,5.2-2.2,6.8-4.9C225.2,320.7,220.9,313.8,218.2,313.8
		z"/>
	<path d="M167.3,313.8c-3.5-0.1-7.2,3.9-7.1,7.8c0.1,3.3,3.2,7,5.9,7.2c3.4,0.2,7.3-3.4,7.3-6.9
		C173.5,317.9,170.4,313.8,167.3,313.8z"/>
	<path d="M362.1,602.4c-9-0.2-18.1-0.3-27.1-0.5c-1.7-2.5-3.5-5.3-5.1-7.8c4.7-1.5,9.3-2.9,13.7-4.6c3.1-1.2,6-2.7,8.8-4.4
		c2.2-1.4,2.6-3.8,1.5-6.3c-0.9-2.1-1.7-4.2-2.7-6.3c-0.9-2-2.4-2.8-4.7-2.1c-4.1,1.3-8.3,2.4-12.9,3.7
		c-5.5-15.4-10.9-30.8-16.5-46.6c1-0.5,1.9-1.3,3-1.6c5.9-1.5,11.1-4.2,16.2-7.4c6.9-4.5,9.9-11.8,7.4-19.5
		c-2.7-8-6.4-15.5-11.6-22.3c-7.3-9.5-12.8-20.1-17.9-30.9c-5.4-11.4-10.9-22.8-15.9-34.4c-4.2-9.8-7.5-20-11.6-29.9
		c-2.8-6.7-5.1-13.8-10.6-18.7c4-3.3,8.7-6,11.9-10c5.1-6.4,9.9-13.2,13.8-20.4c6.1-11.4,9.6-23.8,10.1-36.8
		c0.7-16.4-1.2-32.6-8.3-47.7c-5-10.7-12.4-19.5-22-26.4c-7.1-5.1-13.8-10.9-22.3-13.8c-7.3-2.5-14.4-5.7-21.8-7.6
		c-8-1.9-16.2-2.6-24.4-3.8c-0.7-0.1-9.9-0.7-17.7-0.7c-0.7,0-9.2,0-9.9,0.2c-12.4,2.5-24.8,4.4-37,7.5
		c-21.8,5.5-41.1,15.7-53.9,34.9c-8.4,12.7-13.7,26.8-15.1,42.1c-1.1,12.4,1.3,24.3,4.9,36.1c4.1,13.5,10.4,25.7,19,36.7
		c4.6,5.9,10.4,10.9,15.8,16.5c-2.7,4.6-5.6,9.5-8.4,14.5c-2.1,3.8-4.2,7.7-6,11.7c-6.4,13.6-15.3,25.6-24.6,37.2
		c-9.2,11.5-18.6,22.8-27.9,34.3c-7.6,9.4-13.5,19.5-16.3,31.4c-3.3,14.2,1.9,25,12.2,34.1c3.9,3.5,8.4,6.3,13.2,9.9
		c-4.3,12.8-10.6,25.2-16,38c-5.5-2-11.7-5.4-15.6-5.6c-3.9-0.1-4.1,5.6-5.9,8.4c-2.4,3.9-1.4,6.9,2.9,9c6.7,3.3,13.4,6.6,20.1,9.9
		c-3.3,0-6.5,0-9.8,0c-5.9,0-11.7,0.1-17.6,0.3c-1.9,0-9.1,2.9-8,4.5c3.1,4.5,8.3,4.9,12.9,5.4c7.5,0.8,15.1,0.6,22.6,0.6
		c8.4,0,16.8-0.4,25.2-0.5c2.2,0,4.4,0.3,6.6,0.3c8.8-0.1,17.7-0.2,26.5-0.4c5.8-0.2,11.7-0.6,17.5-1.1c6.7-0.6,55.8-2.5,68.1-2.9
		c8.5-0.3,17-0.6,25.5-0.7c5.3-0.1,10.6-0.1,15.9,0c6.1,0.2,12.2,0.7,18.3,0.9c5.7,0.2,11.4,0.3,17.2,0.4
		c11.6,0.2,23.3,0.3,34.9,0.6c8.3,0.3,16.6,1,24.9,1.4c1.8,0.1,3.7-0.4,5.6-0.3c10.1,0.3,20.2,0.7,30.3,1.1
		C364.1,608.9,363.5,605.6,362.1,602.4z M277.1,373c2,5,4,10,6.1,15.1c5.4,13.1,10.4,26.4,16.2,39.4c5.3,12,11.1,23.8,17.2,35.5
		c3.1,5.9,7.3,11.1,11,16.7c4.7,7,8.9,14.2,11.2,22.4c1.2,4.4-0.5,7.5-3.2,10.4c-4.1,4.3-9.3,6.7-14.9,8.6c-3.9,1.4-7.6,3.2-11.9,5
		c-0.7-2.7-1.4-5.4-2.1-8.1c-2.7-10.3-5.6-20.6-8-31c-2.1-9-3.6-18.2-5.3-27.3c-2.6-14.5-5-29-7.8-43.4c-2.7-13.9-5.9-27.8-8.8-41.6
		C276.5,374.1,276.6,373.6,277.1,373z M48.2,525.9c-7-7.2-7.9-15.9-6-25.4c2.6-12.7,9.5-22.9,17.3-32.7
		C71.7,452.4,83.9,437,96,421.5c6.3-8.1,11-17.1,15-26.5c0.8-1.8,1.8-3.6,2.7-5.4c-3.4,18.9-5.1,38-11,56.3
		c-2.6,8.2-5.7,16.2-8.5,24.3c-7.7,22.4-15.2,44.8-22.9,67.3c-0.4,1.2-0.8,2.3-1.4,3.7C61.6,537.4,54.4,532.3,48.2,525.9z
		 M137.3,411.8c-0.4,6.5-1.1,12.9-1.7,19.4c-0.7,8.2-1.3,16.4-1.9,24.6c-0.7,9.8-1.2,19.6-2.2,29.4c-1.2,12-2.7,24-4,36
		c-0.5,5.1-0.7,10.1-1.2,15.2c-1.3,12.7-2.8,25.4-4.2,38.1c-1.1,9.3-2.2,18.6-3.3,28.3c-4.4,0-8.8,0-13.2,0.1
		c-9.4,0.1-18.9,0.7-28.3,0.8c-4.5,0-9-0.7-13.5-0.8c-1.9,0-3.9-0.1-5.8-0.1c5.8-25.3,24.2-82.8,27.9-91.6c1.2-2.9,2.2-5.9,3.2-8.9
		c2.3-6.8,4.6-13.6,6.9-20.4c2.1-6.3,4-12.7,6.2-19c2.7-8.1,6.1-16.1,8.2-24.4c2.6-10.3,4.1-21,6.2-31.4c1.7-8.9,3.5-17.9,5.3-26.8
		c0.2-1,0.4-2.1,0.9-3c1.9-3.9,3.8-4.4,7.5-2.2c2.7,1.6,5.5,3.1,8.8,5C138.5,390.5,138,401.2,137.3,411.8z M226.6,493.5
		c-0.5,9.6-0.4,19.1-0.4,28.7c0,3.5-1.2,4.7-4.8,4c-1.2-0.2-2.4-0.5-3.6-0.8c-4.4-1.3-8.7-1.2-12.8,1.1c-5.1,2.9-10.1,3.5-15.5,0.8
		c-3.3-1.6-6.7-1.6-10.1,0.3c-2.1,1.1-4.5,1.7-7.2,2.7c-0.2-1.4-0.5-2.4-0.5-3.3c-0.4-12.1-1.1-24.2-4.3-36c-1-3.7-1.7-7.5-2.5-11.2
		c-0.2-1.1-0.1-2.4,0.2-3.5c2.9-12.8,5.8-25.6,8.8-38.4c0.9-3.9,1.9-7.8,3.1-11.7c0.6-2.1,1.9-3.9,3.4-7c1.1,2.9,2.2,4.5,2.3,6.1
		c0.4,5.9,0.5,11.8,0.6,17.8c0.1,3,0,6,0.1,8.9c0.1,4.2,0.5,8.4,0.1,12.6c-0.3,2.8,0.5,4.7,3.3,6.8c0.7-1.7,1.7-3,1.7-4.3
		c-0.3-14.2,1-28.4-1.1-42.5c-0.2-1-0.4-2.1-0.8-3c-0.7-1.8-0.1-3.2,1.6-3.9c1.9-0.8,3.7-0.3,4.4,1.6c0.9,2.4,1.8,5,1.8,7.6
		c0.1,7.9-0.4,15.7-0.4,23.6c0,4.9,0.1,9.8,0.7,14.7c0.2,1.8,1.7,3.5,2.6,5.2c0.4,0,0.9-0.1,1.3-0.1c0.4-1.2,1.3-2.5,1.1-3.5
		c-1.3-6.7-0.1-13.2,0-19.9c0.2-8.4-0.7-16.8-1.1-25.2c0-0.5,0-1,0-1.5c3.7-1.8,5.4-1.4,6.3,2.1c0.8,3.4,1.1,6.9,1.1,10.4
		c-0.1,8.9-0.7,17.9-0.6,26.8c0,2.7,1.2,5.4,2.1,8.1c0.5,1.6,1.5,2.8,3.8,2.2c0.2-0.5,0.6-1.2,0.5-1.8c-2.3-9.9-0.9-19.9-0.9-29.9
		c0-5.7-0.4-11.5-0.6-17.3c3.5-0.5,4.1-0.4,4.9,2.8c1.1,4.1,2.3,8.2,2.6,12.3c0.7,9,2.8,17.7,5.5,26.2
		C226.5,472.3,227.3,482.8,226.6,493.5z M198.2,402.8c2.9,3.9,6,7.7,8.8,11.9c-4-0.9-7.7-3.7-11.4-0.2c-3.2-2.4-6-4.4-10-2.3
		c1.9-4,3.8-7.4,5.2-10.9c1.5-3.6,0.7-5.5-2.7-7.2c-1.8-0.9-3.9-1.3-5.9-1.9c-1.3-0.4-2.6-0.8-3.8-1.1c0-0.4,0-0.8,0.1-1.2
		c2-0.1,4.1-0.1,6.1-0.2c6.1-0.2,12.1-0.5,18.2-0.7c1.7-0.1,3.3,0,6.2,0c-3.8,2.9-6.6,5.1-9.5,7.2
		C196.3,398.3,195.9,399.7,198.2,402.8z M232,377.1c-10.7,3.9-21.9,5.9-33.4,6.2c-18.7,0.4-46.7-3.3-66.5-12.8
		c-4.7-2.3-9.4-4.6-13.4-8.2c-7.1-6.3-13.2-13.3-18.2-21.5c-8-13.2-13.3-27.3-15.7-42.6c-1.2-7.7-1-15.4,0.6-23
		c1.1-5.3,2.6-10.5,4-15.8c0.5-1.7,1.2-3.3,2.1-4.8c3.8-6.3,7.2-13,11.7-18.7c7.7-9.7,17.7-16.5,29.2-21.6
		c12.8-5.8,26.4-8.2,39.9-11c4.2-0.9,8.6-0.8,12.9-1.2c3.1-0.3,6.2-0.7,9.3-1.3c4.4-0.9,8.6-0.3,12.9,0.2c7.6,0.9,15.3,1.9,22.9,3
		c2.1,0.3,4.2,0.6,6.2,1.3c8.9,3.2,18.2,5.8,26.6,10c15,7.7,28.2,18,35.8,33.7c2.5,5.1,4,10.8,5.6,16.4c1,3.3,1.6,6.8,2,10.3
		c1.1,9.7,1.7,19.4-0.7,29c-1.2,4.9-2.2,9.9-3.9,14.7c-3.8,10.9-10.3,20.3-16.9,29.6c-2.1,2.9-16,11.3-19.8,13.5
		C254.6,368.5,243.4,373,232,377.1z M308.7,601.5C308.7,601.5,308.7,601.5,308.7,601.5c-15.7-0.3-31.4-0.5-47.1-0.8
		c-0.1-8.9-2.5-75.9-2.6-84.6c-0.3-19-0.3-38.1-1-57.1c-0.6-17.1-1.8-34.3-3.2-51.4c-0.8-10.6-2.4-21.2-3.6-31.6
		c5.9-3.1,11.8-6.1,18-9.4c1.6,7.1,3.2,14,4.7,20.9c2.1,9.6,4.3,19.2,6.1,28.8c1.8,10,2.8,20.1,4.9,30c3.8,18,6.6,36.2,11.7,53.9
		c7.8,27.1,15.2,54.3,22.9,81.5c0.7,2.3,1.6,5.7,3.1,8.4c1.4,3.4,3.6,7.9,5.5,11.6C321.5,601.7,315.1,601.6,308.7,601.5z"/>
	<g>
		<path class="st3" d="M277.1,373c2,5,4,10,6.1,15.1c5.4,13.1,10.4,26.4,16.2,39.4c5.3,12,11.1,23.8,17.2,35.5
			c3.1,5.9,7.3,11.1,11,16.7c4.7,7,8.9,14.2,11.2,22.4c1.2,4.4-0.5,7.5-3.2,10.4c-4.1,4.3-9.3,6.7-14.9,8.6c-3.9,1.4-7.6,3.2-11.9,5
			c-0.7-2.7-1.4-5.4-2.1-8.1c-2.7-10.3-5.6-20.6-8-31c-2.1-9-3.6-18.2-5.3-27.3c-2.6-14.5-5-29-7.8-43.4
			c-2.7-13.9-5.9-27.8-8.8-41.6C276.5,374.1,276.6,373.6,277.1,373z"/>
		<path class="st3" d="M48.2,525.9c-7-7.2-7.9-15.9-6-25.4c2.6-12.7,9.5-22.9,17.3-32.7C71.7,452.4,83.9,437,96,421.5
			c6.3-8.1,11-17.1,15-26.5c0.8-1.8,1.8-3.6,2.7-5.4c-3.4,18.9-5.1,38-11,56.3c-2.6,8.2-5.7,16.2-8.5,24.3
			c-7.7,22.4-15.2,44.8-22.9,67.3c-0.4,1.2-0.8,2.3-1.4,3.7C61.6,537.4,54.4,532.3,48.2,525.9z"/>
		<path class="st3" d="M137.3,411.8c-0.4,6.5-1.1,12.9-1.7,19.4c-0.7,8.2-1.3,16.4-1.9,24.6c-0.7,9.8-1.2,19.6-2.2,29.4
			c-1.2,12-2.7,24-4,36c-0.5,5.1-0.7,10.1-1.2,15.2c-1.3,12.7-2.8,25.4-4.2,38.1c-1.1,9.3-2.2,18.6-3.3,28.3c-4.4,0-8.8,0-13.2,0.1
			c-9.4,0.1-18.9,0.7-28.3,0.8c-4.5,0-9-0.7-13.5-0.8c-1.9,0-3.9-0.1-5.8-0.1c5.8-25.3,24.2-82.8,27.9-91.6c1.2-2.9,2.2-5.9,3.2-8.9
			c2.3-6.8,4.6-13.6,6.9-20.4c2.1-6.3,4-12.7,6.2-19c2.7-8.1,6.1-16.1,8.2-24.4c2.6-10.3,4.1-21,6.2-31.4c1.7-8.9,3.5-17.9,5.3-26.8
			c0.2-1,0.4-2.1,0.9-3c1.9-3.9,3.8-4.4,7.5-2.2c2.7,1.6,5.5,3.1,8.8,5C138.5,390.5,138,401.2,137.3,411.8z"/>
		<path class="st3" d="M308.7,601.5C308.7,601.5,308.7,601.5,308.7,601.5c-15.7-0.3-31.4-0.5-47.1-0.8c-0.1-8.9-2.5-75.9-2.6-84.6
			c-0.3-19-0.3-38.1-1-57.1c-0.6-17.1-1.8-34.3-3.2-51.4c-0.8-10.6-2.4-21.2-3.6-31.6c5.9-3.1,11.8-6.1,18-9.4
			c1.6,7.1,3.2,14,4.7,20.9c2.1,9.6,4.3,19.2,6.1,28.8c1.8,10,2.8,20.1,4.9,30c3.8,18,6.6,36.2,11.7,53.9
			c7.8,27.1,15.2,54.3,22.9,81.5c0.7,2.3,1.6,5.7,3.1,8.4c1.4,3.4,3.6,7.9,5.5,11.6C321.5,601.7,315.1,601.6,308.7,601.5z"/>
	</g>
</g>
<g>
	<path d="M255.8,86.5c1.3-8.4,2.5-16.7,3.9-25.1c0.9-5.2,2-10.4,3.3-15.6c0.9-3.5,3.6-5,6.9-3.6c4.9,2,7.7,4.7,7.3,10.4
		c-0.3,4.5-1.2,9.1-2,13.6c-1.7,9-3.4,17.9-5.2,26.9c-0.6,2.7-1.4,5.5-2.6,8c-1,2.1-2.8,3.7-5.5,3.6c-2.6-0.2-4.4-1.6-5.2-4
		c-0.6-1.8-1.1-3.8-1-5.6c0.1-2.8,0.8-5.6,1.2-8.4C256.5,86.6,256.1,86.5,255.8,86.5z"/>
	<path d="M254.7,130.8c-3.7-0.6-5.9-3.2-5.4-6.6c0.4-2.8,4.7-6.2,7.4-5.8c2.9,0.4,6.8,5,6.5,7.6
		C262.9,128.7,258.2,131.4,254.7,130.8z"/>
</g>
<path d="M321.3,36.5c-7-7.4-15.3-12.4-24.4-16.1c-7.6-3.1-15.9-2.8-24.1-1.7c-7.6,1.1-14.9,3.4-22,6.8c-5,2.4-10.2,4.4-15.4,6.4
	c-6.8,2.7-12.1,7.7-17.6,12.4c-8.3,7.2-14.9,16-21.3,24.8c-3.2,4.4-5.2,9.5-7.6,14.5c-3.2,6.7-4.5,13.8-5,21.1
	c-0.6,10,1.6,19.1,7,27.2c1.1,1.6,2.3,3.1,3.4,4.8c5.4,8.8,13.8,13.4,23.1,16.5c2,0.7,4,1.3,6.1,1.8c8.1,1.9,16.9,5.6,21,12.7
	c3.1,5.4,5.3,10.1,6.8,16.9c1.2,5,5.5,4.7,9.1,1.4c8-7.2,12.9-19.4,5.8-31c-0.8-1.4-1.8-2.6-2.9-4.2c4.5-1.5,8.9-2.7,13.1-4.5
	c8.7-3.6,17.4-7.3,25.3-12.8c7.4-5.3,12.7-12.5,17.8-19.8c9.6-13.9,13.1-29.7,13.7-46.1C333.7,55.6,329.7,45.3,321.3,36.5z
	 M318.8,41.6c6.9,7.5,10.1,16.2,9.9,26.5c-0.2,7.2-1.5,14.1-3.3,21.1c-2.5,9.3-5.9,18.1-12.4,25.4c-1.8,2-3.6,4.2-5.2,6.4
	c-3.8,5.4-8.9,9.1-14.5,12.1c-3.8,2-7.8,3.8-11.8,5.4c-8,3.2-16.1,6.2-24.1,9.2c-2.2,0.8-4.1,1.6-3,4.6c11.2,3.4,14.4,19.4,3.3,28.8
	c-1.1-3.1-2.1-5.8-3-8.4c-0.7-1.9-1.3-3.7-2-5.6c-2.3-5.6-6.8-9.4-10.6-13.8c-3-3.6-6.3-5.6-10.7-5.7c-9.5-0.2-16.7-5.6-23.3-11.3
	c-13-11.2-15.6-26.9-13.5-43.5c0.9-7.4,4-14.8,9-20.9c3.2-3.9,6.4-7.8,9.5-11.7c9-11.2,20.5-19,32.8-25.5c5.8-3.1,11.7-6,18-8.3
	c12.5-4.4,24.3-4.3,36,1.1C307.2,30.8,313.3,35.6,318.8,41.6z"/>
</svg>
