<?xml version="1.0" encoding="utf-8"?>
<!-- Generator: Adobe Illustrator 19.1.0, SVG Export Plug-In . SVG Version: 6.00 Build 0)  -->
<svg version="1.1" id="Calque_1" xmlns="http://www.w3.org/2000/svg" xmlns:xlink="http://www.w3.org/1999/xlink" x="0px" y="0px"
	 viewBox="0 0 371.2 613.4" style="enable-background:new 0 0 371.2 613.4;" xml:space="preserve">
<style type="text/css">
	.st0{fill:#009DBF;}
	.st1{fill:#D0095B;}
	.st2{fill:#009EC0;}
	.st3{fill:#D1005A;}
	.st4{fill:#C0BFBF;}
	.st5{enable-background:new    ;}
	.st6{fill:none;stroke:#D0095B;stroke-width:3;stroke-miterlimit:10;}
	.st7{fill:#FFFFFF;stroke:#D0095B;stroke-width:3;stroke-miterlimit:10;}
	.st8{fill:#FFFFFF;}
</style>
<g>
	<path d="M210.9,174.2c0.4,5.1,0.9,9.2,1.2,13.4c0.6,11.4-2.3,22.4-3.6,33.6c-1.2,10.3-3,20.6-3.3,31c-0.4,13.3,0.4,26.5,0.7,39.8
		c0,2.2,0,4.4,0.1,6.6c0.3,8.3,0.4,16.5,1.1,24.8c0.8,9.7,2,19.4,3.3,29.1c1.4,10,3,20,5,29.9c2.3,11.2,4.6,22.4,9.3,33
		c0.5,1.2,1.9,2.5,3.1,2.7c12.6,2.2,19.5,10.4,23.6,21.8c0.1,0.3,0.3,0.6,0.7,1.5c8.4-0.1,15.7,4.7,23.3,8
		c8,3.5,12.6,10.5,13.5,19.4c0.5,4.9-3.3,10.2-8.5,12.6c-8.5,3.9-17.5,6.1-26.6,7.7c-14.1,2.5-28.2,4.3-42.4,5.5
		c-6.2,0.5-12.2,2.2-18.4,2.6c-7.6,0.5-15.2,0.3-22.8,0.3c-6.4,0-12.8-0.1-19.1-0.2c-12.6-0.1-24.9-2.4-36-8.4
		c-7.7-4.2-14.3-10.2-17.5-18.9c-2.3-6.2-1.6-11.9,2.9-17c4.5-5,10.2-8.3,16.2-11c2.8-1.2,5.6-2.4,8.5-3.1c2.3-0.5,3.3-1.4,4.1-3.7
		c2.6-7.5,8-12.8,14.3-17.2c1.4-1,2.9-2.1,4.5-2.2c3.9-0.4,4.8-2.9,5.7-6c8.4-26.5,16.1-53.2,20.2-80.8c2-13.6,3.3-27.4,4.7-41.1
		c1-9,2-18.1,2.6-27.1c0.7-9.9,0.7-19.9,1.3-29.8c0.7-11.9-1.1-23.5-2.2-35.2c-0.7-7.7-1.7-15.4-2.6-23.3c-2,0.3-4.5,0.8-7,1.2
		c-12,2.2-23.8-0.8-35.6-1.5c-8.2-0.5-16.4-2-24.7-0.7c-4.6,0.7-8.1,3.1-11.6,5.8c-1.8,1.4-1.3,3.3-0.7,5.1
		c1.8,5.6,3.5,11.3,5.3,16.9c2.7,8.2,4.1,16.6,5.1,25.2c0.7,6.5,2.6,12.8,3.8,19.3c1.4,7.3,2.3,14.7,3.9,21.9
		c2.7,11.8,5.8,23.5,8.8,35.3c1.6,6.4,3,12.8,4.9,19.1c1.6,5.2,3.9,10.3,6.1,15.4c0.2,0.5,1.4,0.7,2.1,1.1c2.8,1.6,3.7,3.9,2.9,7.2
		c-0.8,3.3-2.2,6.3-4.4,9c-2.7,3.4-4.9,7.2-7.5,10.7c-7.6,10-18.3,14.5-30.3,16.3c-6.1,0.9-12.3,1.4-18.5,0.8
		c-9.7-1-17.4-5.7-25-11.2c-5.2-3.8-7.9-9.5-11.4-14.6c-3.9-5.7-3-10.4-1-16.4c7.6-22.2,14.4-44.6,21.7-66.9
		c4.8-14.6,10.1-29,14.6-43.6c3.7-12.1,6.8-24.3,9.8-36.6c1.2-4.7,3.8-9,3.5-14.2c-0.1-1.1,1.5-2.5,2.5-3.5
		c5.5-5.5,12.5-7.3,19.9-7.3c6.7,0,13.5,0.6,20.2,1.2c7.4,0.7,14.7,2.2,22.1,2.3c11.6,0.1,22.9-1.5,31.7-9.8
		c-2.7-5.6-5.6-11.1-8-16.7c-2.6-6.1-2.9-12.4-0.4-18.7c2.4-6.2,7.4-9.4,12.9-12.2c0.8-0.4,2-0.3,3-0.1c9.2,1.6,15.6,8.8,15.7,18.3
		c0.1,9.4-3.4,17.4-10,24.1c-1,1-1.9,2.2-2.5,2.9c3.3,2.9,6.5,5.2,9,8c6.9,7.8,16.1,10.1,25.7,11.4c8.9,1.3,17.4-0.9,25.7-4.1
		c7.6-3,15.5-4.3,23.6-5.2c5.9-0.7,10.8,0.8,15.9,3.2c2.1,1,3.3,2.3,2.1,4.2c-1.2,1.8-0.6,3,0,4.6c5.7,14.7,8.2,30.2,11.7,45.5
		c2,8.9,4.3,17.7,6.5,26.5c4.4,17.8,8.8,35.7,13.3,53.5c2.2,8.8,4.3,17.7,6.6,26.5c0.4,1.5,1.4,3,2.6,4.1c4.4,4.4,5.1,8.6,1.8,14
		c-4.4,7.3-15,20.6-27.9,27.3c-12.2,6.3-29.1,4.9-39.1,2.3c-9.5-2.4-18.3-6.5-26.4-12c-8.4-5.8-15.1-13-17.2-23.4
		c-0.4-2-0.1-4.3,0.6-6.3c5.8-16.4,11.9-32.8,17.7-49.3c3.9-11,7.2-22.1,11.1-33c3.2-8.9,7.2-17.5,10.2-26.4
		c6-18,13.7-35.2,21.1-52.5c0.2-0.4,0.3-0.9,0.4-1.5c-5.1-3.1-10.6-1.8-15.8-1.2c-6.5,0.8-12.7,2.9-18.9,5.3
		c-10.3,4.1-21,4.5-31.8,2.1C222.3,179.4,216.6,178,210.9,174.2z M297.5,180.9c-0.7,0.5-1.1,0.7-1.2,0.9
		c-6.3,15.8-12.7,31.5-18.9,47.4c-4.1,10.5-8.2,21-12,31.7c-4.4,12.4-8.5,24.8-12.8,37.2c-3.8,11.2-7.7,22.3-11.7,33.4
		c-0.6,1.7-1.5,3.2-2.5,5.5c4.3,1.7,8.7,3.7,13.3,5.2c10.5,3.4,21.5,3.9,32.4,4.8c12.3,1,24.6-0.5,36.6-3.1
		c5.6-1.2,10.8-4.1,15.6-5.9c-2-6.7-4-12.6-5.5-18.7c-3.9-15.9-7.4-31.8-11.2-47.7c-3.1-13-6.1-25.9-9.4-38.8
		C305.8,215.5,303.7,197.9,297.5,180.9z M131.9,338.6c-1.3-2.3-3.3-4.4-4-6.8c-4.7-17.4-9.4-34.8-13.6-52.3
		c-2.8-11.8-4.7-23.8-7.1-35.7c-1-4.9-2.5-9.8-3.1-14.8c-1.2-9.5-2.2-19.1-4.9-28.3c-1.3-4.4-2.8-8.6-4.2-13
		c-0.4,0.1-0.7,0.1-1.1,0.2c-0.8,3.9-1.5,7.9-2.6,11.8c-1.7,6.5-4.1,12.8-5.4,19.4c-2.6,14-8.8,26.8-12.6,40.4
		c-2.9,10.2-6.4,20.2-9.5,30.3c-1.7,5.4-3.1,11-4.7,16.4c-1.1,3.9-2.3,7.7-3.5,11.6c-1.9,6.1-3.7,12.2-5.8,18.3
		c-0.7,2.1-1.9,3.9-2.8,5.9C68.2,353.5,113.8,349.3,131.9,338.6z M212.8,422.4c-2.6-9.7-5.7-18.7-7.4-27.9
		c-2.7-14.7-5-29.5-6.6-44.4c-1.6-15.2-2.2-30.6-3-45.9c-0.6-11.8-1.2-23.6-1.3-35.4c-0.1-13.3-0.5-26.6,2-39.8
		c2.2-11.4,3.3-23,4.2-34.6c0.6-7.2,0.2-14.5-2-21.5c-1.2-3.6-2.6-7.2-5.5-9.9c-1.4,1.2-2.4,2.5-3.7,3.1c-6.1,2.9-7,8.5-6.5,14.1
		c0.7,8.7,2.2,17.3,3.3,26c2.2,17.2,1,34.3-0.3,51.5c-0.6,8.2-1.5,16.4-2.2,24.6c-0.6,7.7-0.9,15.5-1.8,23.2c-1,8.7-2.4,17.3-3.8,26
		c-1.4,8.8-2.5,17.7-4.8,26.3c-4.8,18.2-10.3,36.3-15.5,54.4c-1.2,4.3-1,5.3,2.6,7.5c4.6,2.9,9.6,4.8,15,5.7
		c8.2,1.4,16.4,0.1,24.6-0.7C204.4,424.4,208.6,423.2,212.8,422.4z M122.2,445.4c-1.3,0.5-2.3,0.7-3.2,1.2c-6.4,3-11.2,7.9-16,12.8
		c-0.9,0.9-1.8,2.4-1.7,3.5c0.4,4.4,1.3,9,4.9,11.8c3.4,2.6,7.4,4.9,11.5,6.1c12.6,3.9,25.8,4.5,38.9,5.1c11,0.5,22.1,0.7,33.2,0.8
		c6,0,12.1-0.2,18.1-0.9c12.2-1.4,24.4-3.1,36.5-5c7.4-1.2,14.8-3,22.6-4.7c-0.4-2.1-0.3-4-1.1-5.3c-2.1-3.4-4.4-6.7-6.9-9.8
		c-3.3-4.1-7.7-4.2-12.4-2.6c-3.7,1.2-7.3,2.6-11,3.7c-9.5,3-19.3,5.1-29.2,5.7c-11.1,0.7-22.2,0.7-33.4,0.8
		c-3.5,0-7.1-0.5-10.5-1.3c-6.9-1.6-13.7-3.5-20.4-5.6c-3.3-1.1-6.4-2.9-9.6-4.5C127.7,455,125.2,450.2,122.2,445.4z M131.9,444
		c7.1,6.7,16.3,8.7,25.3,10.5c9.7,1.9,19.5,3.3,29.5,3.3c13.3,0,26.1-2.1,38.9-5.3c4.5-1.1,8.9-2.9,13.5-4.4
		c-2.4-9.4-4.8-17.8-14.4-21.3c-11.6,9.5-24.9,10.8-38.6,9.8c-13.8-1-26.3-5.5-36-15.9C139.4,425,132.4,433.9,131.9,444z
		 M192.5,156.4c1.4-3.7,2.5-6.3,3.3-9c1.3-4,2.5-8,3.4-12.1c1.1-4.7,0.2-9.4-1.4-13.8c-1.1-2.9-4.2-4.4-6.3-3.1
		c-5.3,3.3-8.1,8.1-7.8,14.3C184.2,141.2,188.1,148.4,192.5,156.4z"/>
	<path class="st2" d="M212.8,422.4c-2.6-9.7-5.7-18.7-7.4-27.9c-2.7-14.7-5-29.5-6.6-44.4c-1.6-15.2-2.2-30.6-3-45.9
		c-0.6-11.8-1.2-23.6-1.3-35.4c-0.1-13.3-0.5-26.6,2-39.8c2.2-11.4,3.3-23,4.2-34.6c0.6-7.2,0.2-14.5-2-21.5
		c-1.2-3.6-2.6-7.2-5.5-9.9c-1.4,1.2-2.4,2.5-3.7,3.1c-6.1,2.9-7,8.5-6.5,14.1c0.7,8.7,2.2,17.3,3.3,26c2.2,17.2,1,34.3-0.3,51.5
		c-0.6,8.2-1.5,16.4-2.2,24.6c-0.6,7.7-0.9,15.5-1.8,23.2c-1,8.7-2.4,17.3-3.8,26c-1.4,8.8-2.5,17.7-4.8,26.3
		c-4.8,18.2-10.3,36.3-15.5,54.4c-1.2,4.3-1,5.3,2.6,7.5c4.6,2.9,9.6,4.8,15,5.7c8.2,1.4,16.4,0.1,24.6-0.7
		C204.4,424.4,208.6,423.2,212.8,422.4z"/>
	<path class="st2" d="M122.2,445.4c-1.3,0.5-2.3,0.7-3.2,1.2c-6.4,3-11.2,7.9-16,12.8c-0.9,0.9-1.8,2.4-1.7,3.5
		c0.4,4.4,1.3,9,4.9,11.8c3.4,2.6,7.4,4.9,11.5,6.1c12.6,3.9,25.8,4.5,38.9,5.1c11,0.5,22.1,0.7,33.2,0.8c6,0,12.1-0.2,18.1-0.9
		c12.2-1.4,24.4-3.1,36.5-5c7.4-1.2,14.8-3,22.6-4.7c-0.4-2.1-0.3-4-1.1-5.3c-2.1-3.4-4.4-6.7-6.9-9.8c-3.3-4.1-7.7-4.2-12.4-2.6
		c-3.7,1.2-7.3,2.6-11,3.7c-9.5,3-19.3,5.1-29.2,5.7c-11.1,0.7-22.2,0.7-33.4,0.8c-3.5,0-7.1-0.5-10.5-1.3
		c-6.9-1.6-13.7-3.5-20.4-5.6c-3.3-1.1-6.4-2.9-9.6-4.5C127.7,455,125.2,450.2,122.2,445.4z"/>
	<path class="st2" d="M131.9,444c7.1,6.7,16.3,8.7,25.3,10.5c9.7,1.9,19.5,3.3,29.5,3.3c13.3,0,26.1-2.1,38.9-5.3
		c4.5-1.1,8.9-2.9,13.5-4.4c-2.4-9.4-4.8-17.8-14.4-21.3c-11.6,9.5-24.9,10.8-38.6,9.8c-13.8-1-26.3-5.5-36-15.9
		C139.4,425,132.4,433.9,131.9,444z"/>
	<path class="st2" d="M192.5,156.4c1.4-3.7,2.5-6.3,3.3-9c1.3-4,2.5-8,3.4-12.1c1.1-4.7,0.2-9.4-1.4-13.8c-1.1-2.9-4.2-4.4-6.3-3.1
		c-5.3,3.3-8.1,8.1-7.8,14.3C184.2,141.2,188.1,148.4,192.5,156.4z"/>
</g>
</svg>
