<?xml version="1.0" encoding="utf-8"?>
<!-- Generator: Adobe Illustrator 19.1.0, SVG Export Plug-In . SVG Version: 6.00 Build 0)  -->
<svg version="1.1" id="Calque_1" xmlns="http://www.w3.org/2000/svg" xmlns:xlink="http://www.w3.org/1999/xlink" x="0px" y="0px"
	 viewBox="0 0 371.2 613.4" style="enable-background:new 0 0 371.2 613.4;" xml:space="preserve">
<style type="text/css">
	.st0{fill:#009DBF;}
	.st1{fill:#D0095B;}
	.st2{fill:#009EC0;}
	.st3{fill:#D1005A;}
	.st4{fill:#C0BFBF;}
	.st5{enable-background:new    ;}
	.st6{fill:none;stroke:#D0095B;stroke-width:3;stroke-miterlimit:10;}
	.st7{fill:#FFFFFF;stroke:#D0095B;stroke-width:3;stroke-miterlimit:10;}
	.st8{fill:#FFFFFF;}
</style>
<g>
	<polygon class="st2" points="367.5,316.9 359.5,311.2 347.5,287.5 340.2,271.2 330.6,238 313.9,249.5 290.5,258.8 282.9,260.1 
		280.5,279.2 269.1,339.5 296.9,415.6 307.6,414.3 329.2,411.5 364.5,404.9 	"/>
	<g>
		<path class="st3" d="M110.9,425c-10.7,3.2-21.2,2.6-31.7-0.1c-11.3-2.9-22.8-4.9-33.5-9.8c-5.9-2.7-11.4-6.2-17-9.4
			c-2.3-1.3-3.1-3.5-2.6-6c0.5-3,1.1-5.9,1.6-8.8c2.9-15.2,6.6-30.3,11.3-45c3.7-11.6,7.2-23.2,11.5-34.6
			c3.2-8.5,7.6-16.6,11.8-25.4c11.1,9,23.8,10.8,37,12.4c-0.2,1.9-0.4,3.5-0.6,5.1c-1.4,11.9-3.8,23.8-4,35.7
			c-0.3,12.1,0.7,24.2,4.3,36.1c2.5,8.3,4.7,16.7,9.1,24.3c2,3.5,4.5,6.8,7,10.4C113.6,414.7,112.3,419.8,110.9,425z"/>
		<path class="st3" d="M114.5,390.4c-3.3-4.8-5.5-10.1-7.3-15.6c-2.9-8.9-3.9-18.2-4.3-27.6c-0.5-12.7,1.5-25.2,3-37.7
			c0.2-2,0.4-4,0.5-6c0.3-5.2,0.6-5.5,6.7-6.5C115.2,328.1,116,359.1,114.5,390.4z"/>
		<path class="st3" d="M122.7,383.7c0-5.7,0-11.1,0-16.5C126.6,372,126.6,374,122.7,383.7z"/>
	</g>
	<g>
		<path class="st2" d="M113.3,57.9c7.9-0.6,14.8,2.6,19.6,8.9c1.8,2.3,2.7,5.9,2.7,8.9c0.1,6.3-1.7,12.3-5.9,17.1
			c-3.3,3.7-4.8,7.8-4.7,12.8c0.1,3.8-0.6,4.2-4.7,4.3c-2.3,0.1-4.6,0.6-7.4,1c-1.3-4.1-0.6-7.4,1.8-10.2c1.5-1.8,3.4-3.1,5.2-4.6
			c8.4-6.9,8.9-18,1-24.8c-6.6-5.8-16.1-3-18.5,5.5c-0.4,1.3-0.7,2.6-1.2,4.2c-2.4,0.2-4.9,0.4-7.4,0.6
			C93.4,68.6,102,58.8,113.3,57.9z"/>
		<path class="st2" d="M121.5,135.9c-2.6,0.2-4.7-2.1-4.8-5.3c-0.1-2.6,1.6-4.8,3.9-4.9c2.3-0.1,6.6,2.1,6.4,4.4
			C126.9,132.4,123.8,135.7,121.5,135.9z"/>
	</g>
	<path class="st2" d="M256.7,141.1c9.6-2.4,19.4-2.9,29.2-3.2c7.5-0.2,15,0,22.4,0.9c10.2,1.2,20.3,3.6,30.4,5.6
		c2.7,0.5,5.4,1.5,8.7,2.5c-0.2,2.1-0.4,3.9-0.6,5.3c-17.3-5.5-34.9-7.2-52.7-6.9c-17.8,0.4-35.1,3.1-52.5,9.1
		c-0.4-2.7-0.7-5-1.1-7.4C245.8,143.8,251.3,142.5,256.7,141.1z"/>
	<g>
		<path d="M62.8,137c11.9,9.3,25,16,40.3,17.1c8.1,0.6,16.3,0.9,24.3-1.5c8.5-2.5,16.2-6.8,23.8-11.1c3.7-2.1,7.2-4.7,10.8-7.1
			c0.5,1.8,0.7,3.2,1.2,4.6c4.1,12,15.5,15.6,25.2,14c4.4-0.8,7.1-3.8,4.3-7.6c-3.8-5.2-5.9-9.5-7.8-15c-2.6-7.2-0.1-16,3.4-23
			c0.9-1.8,1.6-3.7,2.3-5.6c3.3-8.7,5-17.6,2-26.8c-0.6-1.7-0.9-3.6-1.4-5.3c-2.6-8.8-7.6-15.8-15-21.2c-5.4-4-11.2-7.2-17.7-8.8
			c-4.8-1.1-9.7-2.7-14.6-2.9c-10-0.5-20-0.7-29.9,1.1c-6.5,1.2-13.1,2.2-19,5.6c-4.4,2.6-8.9,5.3-13.5,7.6
			c-6.5,3.2-12.4,7.2-17.6,12.2C58.4,68.8,53.3,74.7,51,82.2c-2.8,8.9-4.1,18-3.1,27.5C49.2,121.1,54.1,130.1,62.8,137z M54.1,88.6
			c3.1-11.8,9.9-20.6,20.3-27.2c5.3-3.3,10.8-5.9,16.3-8.4c11.7-5.2,24-9.1,37.1-9.2c4.6,0,9.2-0.1,13.8-0.1
			c7.2-0.1,14.2,2,19.9,5.7c12.8,8.2,22.3,19.4,22.6,35.6c0.1,8.2-0.3,16.7-5.7,23.9c-2.5,3.3-3,6.9-2.3,11.3c0.9,5.4,0.9,11,3.5,16
			c0.8,1.6,1.8,3.2,2.7,4.7c1.3,2.3,2.6,4.5,4.1,7.2c-13,2.7-22.4-9.1-18.2-19.4c-1.4-2.6-3.1-1.6-5-0.5
			c-6.8,4.2-13.7,8.3-20.6,12.4c-3.5,2-7,3.9-10.7,5.5c-5.4,2.4-11,4-17,3.6c-2.5-0.2-5-0.1-7.5,0c-8.9,0.5-17.1-2.1-25.1-5.8
			c-6-2.7-11.6-5.9-16.7-10c-7.4-5.9-11.6-13.3-12.8-22.9C52,103.2,52.2,95.9,54.1,88.6z"/>
		<path d="M323.2,284.7c0.3-8.2,0-16.3-0.1-24.5c0-3.2,0-3.2-4.6-4.1c-0.2,1.8-0.6,3.5-0.6,5.3c0,4.2,0.4,8.4,0.2,12.5
			c-0.7,15.6-1.5,31.3-2.4,46.9c-0.4,7-1.3,13.9-1.9,20.9c-0.1,1.8-0.4,3.4-2.3,4c-5.6,1.9-11.3,3.8-17,5.6c-2.1,0.7-3.3,2.2-2.6,4
			c1.1,3.1,2.4,6.2,3.8,9.2c1,2.2,2.1,2.3,4.3,1.1c2.3-1.3,4.7-2.5,7.1-3.5c2.8-1.2,5.7-2,8.5-3.1c4.9-1.9,5.9-3.5,5.5-8.7
			c-0.2-3-1.2-5.9-1.2-8.8c0.1-5.5,0.7-10.9,1-16.4C321.8,311.6,322.7,298.1,323.2,284.7z"/>
		<path d="M136.3,265.1c1.8-1.6,3.6-3.5,4.7-5.6c1.4-2.6-0.9-5.8-4.3-5.9c-2.2,0.3-4.5,1.4-5.5,3.9c-1,2.3-1.1,4.9,0.4,7.1
			C132.8,266.4,134.7,266.5,136.3,265.1z"/>
		<path d="M119.7,258.8c3,0.3,7.5-3.1,7.8-5.9c0.2-2.4-2.4-5.2-4.9-5.4c-2.9-0.2-6.1,2.7-6.3,5.9C116,256,117.7,258.6,119.7,258.8z"
			/>
		<path d="M263.9,204.4c-2.7,0.1-4.9,2.5-4.9,5.2c0.1,2.7,2.2,5,4.6,4.9c3.3-0.2,5.5-2.3,5.4-5.2C269,206.6,266.6,204.3,263.9,204.4
			z"/>
		<path d="M250.9,215.7c-1.9-0.1-5.2,3.2-5.2,5.3c0,2.3,3.6,5.7,6.1,5.7c1.9,0,3.2-1.7,3.3-4.2C255.1,219.5,252.8,215.8,250.9,215.7
			z"/>
		<path d="M99.8,88.8c3-0.7,6-1.8,9.6-2.8c0.5-1.5,1.6-3.7,1.9-5.9c0.6-3.8,2.9-5.2,6-6c5.3,5.9,4.5,13.5-2.2,18.6
			c-1.1,0.8-2,1.7-3.1,2.6c-5.6,4.4-6.4,10.2-4.7,16.6c0.3,1.3,1.5,2.5,2.6,3.4c4.2,3.8,9,2.5,13.7,1.2c2.7-0.7,5.4-1.6,8.7-2.5
			c0.3-1.2,1.2-2.6,1-3.7c-1.1-4.7,1.5-7.9,4.1-11.2c6.2-7.7,7.4-16.7,5.8-26c-0.6-3.6-2.5-7.7-5.2-9.9c-4.4-3.6-9.8-6.2-15.1-8.6
			c-4.4-1.9-9.2-2.1-14-1c-5.5,1.3-10.1,4.2-14,8.3c-5.2,5.6-7.2,12.4-6.2,19.8C89.7,88.6,94.5,90.1,99.8,88.8z M113.3,57.9
			c7.9-0.6,14.8,2.6,19.6,8.9c1.8,2.3,2.7,5.9,2.7,8.9c0.1,6.3-1.7,12.3-5.9,17.1c-3.3,3.7-4.8,7.8-4.7,12.8
			c0.1,3.8-0.6,4.2-4.7,4.3c-2.3,0.1-4.6,0.6-7.4,1c-1.3-4.1-0.6-7.4,1.8-10.2c1.5-1.8,3.4-3.1,5.2-4.6c8.4-6.9,8.9-18,1-24.8
			c-6.6-5.8-16.1-3-18.5,5.5c-0.4,1.3-0.7,2.6-1.2,4.2c-2.4,0.2-4.9,0.4-7.4,0.6C93.4,68.6,102,58.8,113.3,57.9z"/>
		<path d="M125.7,120.6c-1.7,0.2-3.4,0.6-5.2,0.6c-4.2,0.2-7.5,2.4-8.7,6c-1.2,3.9,0.2,8.2,3.2,10.7c3.3,2.7,6.7,2.2,10.7,2
			c4.8-0.3,6.4-2.7,7.5-6.4c0.4-1.3,0.7-2.6,0.8-3.9C134.7,124.6,131,120.6,125.7,120.6z M121.5,135.9c-2.6,0.2-4.7-2.1-4.8-5.3
			c-0.1-2.6,1.6-4.8,3.9-4.9c2.3-0.1,6.6,2.1,6.4,4.4C126.9,132.4,123.8,135.7,121.5,135.9z"/>
		<path d="M142.7,191.5c0.4,0.4,0.8,0.8,1.2,1.1C150.8,198.1,142.3,191.2,142.7,191.5z"/>
		<path d="M369.1,401.8c-2.1,0.2-4.1,0.1-6.1,0.5c-13.2,2.5-26.4,5.3-39.7,7.7c-2.6,0.5-5.3,0-8,0.1c-5.1,0.3-10.3,0.8-15.9,1.3
			c-1.2-3-2.4-6.1-3.5-9.2c-5.9-15.9-11.8-31.9-17.7-47.8c-1.5-4.1-3.1-8.1-4.3-12.2c-0.6-2.1-0.9-4.6-0.5-6.8
			c2.6-13.9,5.5-27.8,8.1-41.7c1.4-7.7,2.7-15.4,2.7-23.3c0-2.6,0.8-5.2,1.2-7.4c6-1.1,11.7-2,17.3-3.3c7.1-1.6,13.1-5.5,18.7-10.2
			c2.5-2.1,5.4-3.8,8.6-6.1c1.1,4,2.1,7.4,3,10.9c1.3,4.8,2.3,9.8,3.8,14.5c2,6,3.8,12.1,6.8,17.7c5.1,9.7,10.2,19.7,16.9,28.3
			c1,1.3,1.9,2.7,2.5,4.1l1.6-6.8c-6-7.1-10-15.4-14.6-23.3c-4.9-8.3-7.6-17.4-9.9-26.6c-2.1-9-5.5-17.7-6-27.1
			c3.3-3.9,6.7-7.8,9.8-11.9c3.7-5,6-10.7,7.5-16.8c2.5-10.8,1.2-21.5-0.3-32.2c-0.2-1.1-1.7-11.1-3-14.8c-0.1-0.4,0-1.1,0.3-1.4
			c4.3-4.9,4.2-11.3,5.3-17.1c1-5,2.3-9.7,4.7-14.2c2.4-4.4,4.9-8.7,7.5-13c0.6-1,1.5-1.7,2.3-2.5l-0.1-5.5
			c-3.4,0.1-6.8,0.2-10.1,0.2c-1.2,0-2.4,0-3.5-0.2c-10.1-2.1-18.3-7-24.1-15.6c-0.9-1.3-1.6-3-1.7-4.5c-0.4-4.1-0.5-4.4-4.8-5
			c-3.2,5.1-8.6,6.8-13.9,8c-7.6,1.8-15.3,3.4-23.2,1.7c-6.3-1.3-12.1-3.7-17.6-6.9c-1.1-0.7-1.8-2.1-2.8-3.3
			c-4.3,4.9-6.9,11.8-13.3,15.6c-6,3.6-11.8,7.5-18.7,9.5c-6.9,2.1-13.7,4.1-21.3,2.5c-1.3,2.5-0.7,4.7,1.9,6.1
			c3.4,1.9,5.8,5,9.7,6.5c4.5,1.8,7.3,6.2,9.1,10.8c1.4,3.6,2.7,7.2,4,10.7c-4.6,4.8-0.5,9.2,0.4,14.2c-2.1,2.1-4.4,4.4-6.7,6.8
			c-3.9,3.9-5.8,9-7.6,14c-0.6,1.8-0.6,4-0.3,5.9c0.8,5.4,4.9,7.6,12.5,6.3c-7.5,16.3-5,31.4,3.5,46.4c8.9,15.6,22.7,21.7,40.2,22.3
			c0.1,11.9-1.3,23.4-3.8,34.8c-2.4,11.4-4.5,22.8-6.9,35c-1.2-2.9-2.2-5.1-3-7.3c-4.3-12.6-8.4-25.3-12.7-37.9
			c-1-2.8-2.5-5.5-3.9-8.1c-0.4-0.8-1.2-2-1.9-2.1c-4-0.5-8-0.9-12-1.1c-1.3-0.1-2.6,0.8-3.8,0.5c-6.9-1.4-13.6-0.1-20.4,0.4
			c-4.8,0.4-9.6,0.6-14.5,0.7c-10.5,0.4-21,0.7-31.5,0.9c-2.1,0-4.3-0.3-6.4-0.5c-2.8-0.3-3.5,0.6-3.9,3.5c-0.4,2.8-1,5.6-1.8,8.3
			c-6.2,20.6-12.5,41.2-18.8,61.8c-1.8,6.1-3.8,12.1-5.9,19c-0.7-1.6-1.2-2.5-1.6-3.5c-3.5-10.1-5.7-20.5-6-31.3
			c-0.3-10-1.3-19.9-1.8-29.9c-0.1-2.1,0.4-4.3,0.7-6.4c0.3-2.1,1.6-3.4,3.6-3.6c8.5-1.1,15-6.3,21.4-11.3
			c14.7-11.4,18.7-27.1,16.9-45c-0.7-7.4-2.3-14.5-4.5-21.5c-2.5-8.2-7.3-14.8-13.5-20.5c-0.7-0.5-1.5-1.2-2.5-1.9
			c-11.1-8.8-32-9.8-50.4-3.7c-6,2-11.9,4.1-17.8,6.3c-4,1.5-7,4.4-9.8,7.5c-6.5,7.4-13.2,14.6-15.8,24.5
			c-1.4,5.1-1.6,10.1-1.1,15.3c0.5,5.9,1.8,11.4,3.7,17c2.3,6.6,5.6,12.4,10.6,17.3c0.5,0.4,0.8,1,1.7,2.1c-1.8,1.3-3.3,2.9-5.2,3.5
			c-8.3,3-16.7,5.6-25,8.5c-4.5,1.6-9,3.3-14.1,5.2c0,0-2.8,7.1,0,7.1c8.6,0,30.8-12.9,38.4-15.5c-2.8,6-5.6,11.1-7.6,16.5
			c-5.1,13.6-10.2,27.1-14.7,40.9c-3.7,11.4-6.8,23-9.4,34.7c-1.7,7.4-3.9,14.8-4.1,22.5c-0.1,3.1,0.7,5.6,3.1,7.5
			c2.9,2.2,5.8,4.3,9.2,6.7c-3.4,1.8-9.9,6.2-14.4,8.9c1-0.2-1.3,5.1-1.3,5.1l3.9-3.4c5.5-2.6,11.1-5.3,16.3-7.8
			c4.1,1.7,7.6,3.2,11.6,4.9c-0.2,1.2-0.6,2.6-0.8,4c-0.8,5.2,0.7,8.4,5.5,10.6c4.1,1.8,8.3,3.4,12.7,4.2c10.9,2.1,22,3.6,33,5.4
			c1.6,0.3,3.3,0.3,5.7,0.5c-1.4,5.2-2.8,10.4-4.2,15.3c-26.9-0.9-53.5-1.8-80.7-2.7l-3.2,0.4c0,1.8-0.1,3.5-0.1,5
			c14.5,0.3,31.5,0.3,45.5,0.8c11.6,0.4,23.2,1.2,34.8,1.8c0.6,0,1.3,0.2,2.4,0.4c-1.7,7-3.4,13.7-5.1,20.6c0,0,1.2,31.8,1,43.8
			c-0.2,12,1.3,28.6,1.3,28.6h10.1c0,0-4.3-38-2.9-52.6c0.8-8.5,0.7-15.5,0.5-19.8l211.4-1.4c-0.2,6.6-0.5,16.9,0.3,22.5
			c1.2,8.7,0,50.6,0,50.6h7.3c0,0,1.5-27.3,1.4-38c-0.1-7.7,0-25.7,0-35.2l12.3-0.1c0.6-7.4,1.3-14,1.7-20.7c0.3-4.2,0-8.4,0.4-12.5
			c0.9-10.6,2.1-21.2,2.9-31.8c0.9-11.3-0.3-9.2,10.2-11.4c5.7-1.2,11.3-2.5,17.6-3.9L369.1,401.8z M256.7,141.1
			c9.6-2.4,19.4-2.9,29.2-3.2c7.5-0.2,15,0,22.4,0.9c10.2,1.2,20.3,3.6,30.4,5.6c2.7,0.5,5.4,1.5,8.7,2.5c-0.2,2.1-0.4,3.9-0.6,5.3
			c-17.3-5.5-34.9-7.2-52.7-6.9c-17.8,0.4-35.1,3.1-52.5,9.1c-0.4-2.7-0.7-5-1.1-7.4C245.8,143.8,251.3,142.5,256.7,141.1z
			 M270.5,251.8c-9.6-1.8-18-5.7-23.7-14.3c-4-6-7.1-12.4-9.3-19.3c-3.3-10.5-1.5-20.3,4.3-29.1c2.6-3.9,6.3-7.4,10.3-10.5
			c4.5-3.4,8.9-6.9,13.8-9.8c9.2-5.4,19.2-8.3,29.6-10.3c10.5-2,21.2-2.6,31.9-2c3.8,0.2,7.5,1,11.8,1.6c4,5.2,6.4,11.8,6.8,14.1
			c2.2,11.1,3.9,22.4,0.4,33.6c-1.5,4.7-3.6,9.3-6.3,13.5c-6.8,10.7-16.6,18.1-27.8,23.9c-5.6,2.9-11.1,6.3-17.5,7.1
			C286.7,251.3,278.7,253.4,270.5,251.8z M309.2,415.6c0.3,0.8,0.6,1.3,0.6,1.7c0.3,6.6,0.6,13.2,0.2,20c-2.7-6.7-5.4-13.3-8.3-20.6
			C304.8,416.3,307,416,309.2,415.6z M122.7,367.2c3.8,4.8,3.9,6.8,0,16.5C122.7,378,122.7,372.6,122.7,367.2z M50.8,240
			c-1.3-11.4,3.8-20.4,10.3-28.9c2.3-3,4.7-6.1,7.4-8.8c2-1.9,4.3-3.9,6.9-4.8c7.8-2.8,15.8-5.2,23.8-7.6c1.7-0.5,17.7-2.4,23.3-0.5
			c27.2,9.3,31.7,26.7,33.8,37.9c0.9,4.9,0.7,9.9,1,14.9c0.5,7.6-2.2,14.5-5.3,21.1c-1.5,3.2-4.1,6.1-6.6,8.6
			c-9.5,9.5-21.1,14.4-34.4,15.2c-13.6,0.8-26.3-2.1-38.2-9C57.9,269.7,52.6,256,50.8,240z M114.5,390.4c-3.3-4.8-5.5-10.1-7.3-15.6
			c-2.9-8.9-3.9-18.2-4.3-27.6c-0.5-12.7,1.5-25.2,3-37.7c0.2-2,0.4-4,0.5-6c0.3-5.2,0.6-5.5,6.7-6.5
			C115.2,328.1,116,359.1,114.5,390.4z M79.2,424.9c-11.3-2.9-22.8-4.9-33.5-9.8c-5.9-2.7-11.4-6.2-17-9.4c-2.3-1.3-3.1-3.5-2.6-6
			c0.5-3,1.1-5.9,1.6-8.8c2.9-15.2,6.6-30.3,11.3-45c3.7-11.6,7.2-23.2,11.5-34.6c3.2-8.5,7.6-16.6,11.8-25.4
			c11.1,9,23.8,10.8,37,12.4c-0.2,1.9-0.4,3.5-0.6,5.1c-1.4,11.9-3.8,23.8-4,35.7c-0.3,12.1,0.7,24.2,4.3,36.1
			c2.5,8.3,4.7,16.7,9.1,24.3c2,3.5,4.5,6.8,7,10.4c-1.3,4.9-2.7,10-4,15.2C100.2,428.2,89.6,427.6,79.2,424.9z M186.5,480.8
			c-17.3-1.1-70.4-2.2-84.2-2.5c2.8-11,5.6-22.1,8.5-33.1c2.3-9,4.5-18.1,7.1-27c4.1-14.2,8.4-28.4,12.7-42.6
			c5.9-18.9,12-37.8,17.8-56.8c3.2-10.5,5.9-21.2,8.9-31.8c0.7-2.6,1.5-5.1,2.5-8.5c7.4-0.3,14.7-0.7,22-0.8
			c7.3-0.1,14.6,0.2,21.8,0c7.3-0.2,14.6-1,21.9-1.3c2.8-0.1,17.6,0.1,18.5,2.3c1.6,3.8,3.3,7.7,4.6,11.6c3.1,9.9,6,19.8,9.1,29.7
			c2,6.5,4.6,12.9,6.4,19.5c3.2,11.4,8.3,22.1,12.4,33.2c4.5,12.2,8.8,24.5,13.3,36.7c6.5,17.5,13.3,34.9,19.9,52.4
			c0.9,2.3,3.7,10.1,6.4,16.4c-8.8,0-19.2,0-24,0C282.9,478.2,196,481.4,186.5,480.8z M329.2,439.4c-0.6,9.5-1.2,18.9-1.7,28.4
			c-0.1,2,0.2,3.9,0.3,5.9c-0.3,0.1-0.7,0.3-1,0.4c-2.5-5.9-5.5-11.7-7.3-17.8c-1-3.5-0.2-7.5,0.1-11.3c0.2-4.3,0.7-8.6,1.1-12.9
			c0.5-5.4,1.2-10.9,1.8-16.5c2.7-0.4,5.1-0.8,8.2-1.3C330.1,422.9,329.7,431.2,329.2,439.4z"/>
		<path d="M16.9,424.4c0.5-0.3,1.1-0.6,1.6-0.9C17.7,423.7,16.9,424.2,16.9,424.4z"/>
	</g>
</g>
</svg>
