<?xml version="1.0" encoding="utf-8"?>
<!-- Generator: Adobe Illustrator 19.1.0, SVG Export Plug-In . SVG Version: 6.00 Build 0)  -->
<svg version="1.1" id="Calque_1" xmlns="http://www.w3.org/2000/svg" xmlns:xlink="http://www.w3.org/1999/xlink" x="0px" y="0px"
	 viewBox="0 0 371.2 613.4" style="enable-background:new 0 0 371.2 613.4;" xml:space="preserve">
<style type="text/css">
	.st0{fill:#009DBF;}
	.st1{fill:#D0095B;}
	.st2{fill:#009EC0;}
	.st3{fill:#D1005A;}
	.st4{fill:#C0BFBF;}
	.st5{enable-background:new    ;}
	.st6{fill:none;stroke:#D0095B;stroke-width:3;stroke-miterlimit:10;}
	.st7{fill:#FFFFFF;stroke:#D0095B;stroke-width:3;stroke-miterlimit:10;}
	.st8{fill:#FFFFFF;}
</style>
<g>
	<polygon class="st3" points="365.6,452.6 365.6,603.1 259.9,603.1 263.4,579.1 270.6,527.9 276.3,510 290.9,469.6 303.6,446.3 	"/>
	<g>
		<path d="M198.2,210.8c3.4,0,4.7,8.3,2.8,10.4c-1.6,1.8-6.4,3-7.7,1.2C189.1,216.9,194.7,210.8,198.2,210.8z"/>
		<path d="M170,212.9c0,3.2-2.2,5.2-5.7,5.2c-2.6,0-4.8-2.5-4.8-5.2c0-2.9,3-6.6,5.5-6.7C167.8,206.1,170,209.1,170,212.9z"/>
		<path d="M305.9,399.4c-3.3,0-6-5.9-4.6-10.3c0.7-2.4,2.8-3.4,4.7-4.3c1.5-0.8,3.7,0.8,4.5,2.8
			C312.2,391.9,309.2,399.4,305.9,399.4z"/>
		<path d="M291.5,381.8c1.9,0,3.1,4.5,3.5,7c0.3,1.9-0.3,4.3-1.2,6.1c-1.1,2.3-3.6,2.3-5.3,0.4c-1.4-1.6-2.3-3.4-1.7-5.8
			C288.1,384.9,289.5,381.8,291.5,381.8z"/>
		<path d="M234,443.6c3.8,1.3,6.8,1,10-0.4c6.6-2.9,11.9-7.6,16.9-12.5c3.6-3.5,5.3-8.6,4.8-14c-0.7-8.4-8.6-13.3-16.5-10.4
			c-9.3,3.4-16.3,9.5-21.1,18.2c-2.4,4.2-3.3,8.4-1.4,13c0.4,1,0.4,2.6-0.1,3.6c-3.4,6.9-7.1,13.6-10.4,20.6
			c-5.8,12.4-10.2,25.2-12,38.8c-0.6,4.3-2.3,20.9-2.8,33.8c-0.5,12.9-2.7,68.5-2.7,68.5c2.4,0.2,4.7,0.4,7.1,0.6l5.1-93.6
			C213.5,484.2,222.9,466.2,234,443.6z"/>
		<path d="M303,451.6c5.6,2.3,10.4,4.4,15.2,6.2c7.5,2.8,15.4,2.8,23.3,3c5.5,0.1,11.1,0.2,16.6,0c3.2-0.1,6.4-1,9.8-1.6l-0.7-15.1
			c-3.8,0.5-7,1.2-10.2,1.4c-8,0.7-15.7,0.2-23.9-0.4c-7.8-0.6-26.2-6.7-34.1-12.9c-9-7.1-15.1-16.4-19.4-26.8
			c-2.9-7-4-14.6-4.2-22.1c-0.4-10.7,1.3-21.1,5.3-31.2c2.6-6.5,6.6-11.7,11.6-16.3c13.9-12.8,30.1-21.5,48.4-26.1
			c3.2-0.8,6.4-1.2,9.7-1.8c5.2-0.9,10,0.8,15.6,2.2l-0.8-4.8c-5.7-2-11.3-3-17.1-2.1c-9.7,1.6-19.1,4.3-28.1,8.3
			c-8.2,3.6-15.8,8.1-22.9,13.3c-5.6,4.1-11.3,8.4-15,15.1c-0.5-0.2-1.1-0.5-1.6-0.5c-5.6-0.2-5.3-0.2-5.9-5.4
			c-0.7-6.8-1.8-13.6-3-20.4c-1.6-9.2-3.5-18.3-5.4-28.1c1.6-1,3.8-2.3,6.2-3.8c0.8-2.5-0.6-4.9-1.7-7.1c-2.3-4.7-5-9.2-7.6-13.8
			c-3-5.3-6-10.5-10.2-15c-1.8-1.9-7.6-7.8-9.2-8.5c-0.2-0.5-0.3-1-0.5-1.4c0.8-0.5,1.8-0.8,2.5-1.4c9.1-8.2,15.1-17.9,17.5-30.4
			c2.3-12.1,0.5-23.5-2.6-34.8c-2.6-9.4-7.9-17.5-14.2-25.1c-6-7.2-13.1-12.7-21.7-16.4c-4.3-1.9-8.4-4.2-12.6-6.3
			c-1.8,3.3-1.7,3.9,0.8,5.2c4.9,2.6,9.8,5.3,14.8,7.7c8,3.7,13.7,9.9,19.3,16.4c6.3,7.5,9.8,16.3,12,25.6c3,12.2,2.4,24.5-2.6,36.1
			c-3.1,7.2-7.9,13.6-14.5,18.3c-6.8,4.8-13.4,10-20.6,14.3c-8.7,5.2-18.4,7.6-28.4,8.8c-11.6,1.4-22.8-0.3-33.9-3.6
			c-7.1-2.1-14.3-3.6-20.8-7.2c-11.9-6.5-21.5-15.2-27.6-27.7c-3.2-6.5-6.3-13.1-7.5-20.2c-0.9-5.1-0.9-10.4-0.7-15.7
			c0.1-4.2,1-8.4,1.7-12.6c1.6-9.5,5.7-17.4,12.8-24.3c9.1-8.8,20.6-11.8,32-15.3c4-1.3,8.3-2,12.5-2.6c8.2-1.4,16.5-1.8,24.7,0.3
			c1.2,0.3,3.2,1.8,4.6,0c1.4-1.9-5.1-5.1-8.1-5.5c-12.5-1.6-24.7,0.3-36.6,3.9c-6.7,2-13.3,4.5-19.9,6.9c-1.7,0.6-3.4,1.4-4.8,2.4
			c-9.7,7-17.1,16-20.5,27.4c-1.9,6.3-2,13.2-2.7,19.9c-1.9,17,5.5,31.2,13.6,45.2c2,3.4,4.5,6.4,6.7,9.4c-5.4,2.8-11,5.7-16.6,8.5
			c-3.5,1.7-12.4,9.5-15.9,16.4c-3.3,6.4-6.9,12.2-10.6,18.2c-1.3,2.1-0.2,4.2,1.2,5.8c1.6,1.9,3.3,3.6,5.2,5.7
			c-1,3-1.9,6.1-3.2,9.1c-4.7,10.5-8,21.5-10.7,32.7c-0.3,1.3-0.8,2.5-1.1,3.8c-0.4,2.2-1.8,2.9-3.8,3.1c-2.4,0.2-4.9,0.4-7.3,0.7
			c-4.3,0.5-4.6,0.8-4.6,5.1c0,0.8-0.1,1.6-0.2,2.7c-9.1,0-23.7,1.7-33.1,1.7l0.6,4.9c5.3,0,30.5-0.6,35-0.3
			c5.1,0.2,10.1,0.1,15.2,0.1c14.1-0.1,28.2-0.3,42.3-0.3c20.5,0,41.1,0.2,61.6,0.3c2.4,0,4.9,0.5,7.3,0.4c14.1-0.2,28.2-1,42.3-0.5
			c14.9,0.5,29.7,0.8,44.6,0.1c2.7-0.1,5.3,0.5,8.1,0.8c-9.3,28-3.9,65.8,29.1,88.5c-13.7,22.9-28.1,60.6-32.2,72.7
			c-7.8,23.2-15.6,88.7-15.6,88.7c1.4-0.1,6.3-0.1,7.7-0.2c0,0,2.3-44.3,11.1-79.1C279.9,502.8,292.5,471.5,303,451.6z M74.3,346.7
			c-1.4,0.1-2.6,0.2-4.6,0.3c2.4-6.5,4.5-12.5,6.7-18.5c2.9-8.2,5.7-16.4,8.7-24.5c1.2-3.4,2.7-6.7,4.2-9.9c0.6-1.3,1.6-2.8,4-0.6
			C85.9,310.9,77.6,327.8,74.3,346.7z M202.2,343c-3,0.4-5.3,0.9-7.7,1c-1.2,0-2.5-0.6-3.7-1c-3.5-1.2-6.9-1.8-10.2,0.9
			c-0.7,0.6-2.1,1.1-2.7,0.8c-2.5-1.3-5.9-0.9-7.6-0.8c-3.4,0.1-7,2.4-8.9,2.4s-1.2-2.3-1.2-3.3c-0.2-6.3-0.4-12.7-0.4-19
			c0-5.4,0.2-10.8,0.2-16.2c0-12.8,0-25.6-0.3-38.4c-0.1-4.5-1-9-1.5-14c0.8,0.2,1.3,0.2,1.9,0.4c7,2.4,7.3,3,7.6,10.8
			c0.2,4.2,0.7,8.5,0.9,12.7c0.1,2.8,1.6,3.6,4.8,3.5c-0.5-8.3-1-16-1.5-23.9c1.6,0,3,0,5.1,0c0.3,3.7,0.6,7.4,0.9,11.1
			c0.3,3.1,0.5,6.2,0.8,9.3c0.2,1.5,0.8,3.3,2.6,2.8c0.9-0.3,1.9-2.2,1.8-3.3c-0.1-6.2-0.6-12.4-0.9-19.1c2.7-0.1,5.5-0.3,8.6-0.4
			c1.1,3.5,0.4,6.8,0.4,10.2c-0.1,4.4,0.1,8.8,0.2,13.2c0,2,1.1,2.9,3.8,2.8c1.1-8.6,0.2-17.4,0.6-26.5c3-0.6,5.9-1.2,9.8-2
			C203.8,286,204.8,314.8,202.2,343z M267.1,335.3c-2-11.6-5.8-35.2-7.2-46.8C262.7,300,268.8,319.2,267.1,335.3z"/>
	</g>
</g>
</svg>
