<?xml version="1.0" encoding="utf-8"?>
<!-- Generator: Adobe Illustrator 19.1.0, SVG Export Plug-In . SVG Version: 6.00 Build 0)  -->
<svg version="1.1" id="Calque_1" xmlns="http://www.w3.org/2000/svg" xmlns:xlink="http://www.w3.org/1999/xlink" x="0px" y="0px"
	 viewBox="0 0 961.2 674.3" style="enable-background:new 0 0 961.2 674.3;" xml:space="preserve">
<style type="text/css">
	.st0{fill:#009DBF;}
	.st1{fill:#D0095B;}
	.st2{fill:#009EC0;}
	.st3{fill:#D1005A;}
	.st4{fill:#C0BFBF;}
	.st5{enable-background:new    ;}
	.st6{fill:none;stroke:#D0095B;stroke-width:3;stroke-miterlimit:10;}
	.st7{fill:#FFFFFF;stroke:#D0095B;stroke-width:3;stroke-miterlimit:10;}
	.st8{fill:#FFFFFF;}
</style>
<g>
	<path class="st4" d="M21.8,394.8c0-10.7-0.9-21.5,0.2-32.1c1.8-18.3-0.1-36.3-1.6-54.4c-0.8-9.9,0-19.9-0.9-29.7
		c-1.3-14.5,0-28.8,2-43.1c0.4-2.9,0.2-5.9,0-8.8c-0.4-8.3-0.6-16.6-1.5-24.8c-0.5-4.4-1.6-9-3.4-13.1c-4-8.8-5.3-17.9-5.1-27.4
		c0.3-15.5,0.3-31.1,0.6-46.6c0.2-9.4,0.6-18.7,0.8-28.1c0.1-3.5-0.1-6.9-0.4-10.4c-1.4-16-3.1-31.9-4.1-47.9
		c-0.6-9.3-0.2-10,9.2-11.5c8.1-1.3,16.5-1.1,24.7-1.3c20.3-0.6,40.7-1,61-1.4c1.1,0,2.1-0.2,3.2-0.2c28.9-0.6,57.9-1.5,86.8-1.5
		c21.9,0,43.9,0.5,65.8,2.3c19.2,1.6,38.4,3.1,57.6,2.5c21.7-0.7,43.4-0.3,65-1.9c22.7-1.7,45.4-3.2,68.2-3
		c22.2,0.3,44.5,0.2,66.7,0.6c6.6,0.1,13.1,1.2,20.4,1.9c-6.1,15.1-16.2,25-30,31.5c-2.4,1.1-5,2-7.3,3.4c-2.2,1.4-5,2.8-6.1,4.9
		c-6.5,12.5-16.2,23.4-20,37.4c-3.4,12.3-4,24.5,0.9,36.8c3.1,7.9,4.7,16.3,7.3,24.4c1.5,4.8,3.5,9.4,5.5,14c1.6,3.6,3.7,7,5,10.8
		c4,11.3,7.1,23,11.7,34.1c4.9,11.9,6.1,23.7,3.5,36.1c-1.1,5.2-2,10.5-3,15.8c-1.2,5.8-3.1,7.8-7.4,8c-4,0.2-5.7-1.7-7.3-7.8
		c-0.1-0.5-0.4-1-1-2.2c-7.9-0.2-12.7-6.3-17.6-11.8c-5.7-6.4-11-13.1-15.9-20c-1.3-1.8-1.3-4.9-1.2-7.4c0.2-3.2,1.4-6.3,1.5-9.5
		c0.1-2.9-0.2-5.9-1.2-8.6c-2-5.1-4.5-6.3-10.7-5.9c0.5-1.9,0.9-3.6,1.3-5.4c2.2-7.9,2.2-15.7-0.5-23.6c-1.8-5.4-1.6-11.8-8.7-14.1
		c-1.2-0.4-1.6-2.7-2.7-3.8c-8-8.2-15.8-16.5-24.2-24.3c-6.1-5.7-12.8-3.5-19.1,0.3c-3.2,1.9-6.3,4-9.6,5.8c-4.6,2.4-9,2.6-13.3-1.3
		c-3.5-3.2-7.8-5.6-11.5-8.6c-4.1-3.2-8.1-5.7-13.7-5.4c-4.2,0.2-8.5-1.1-12.8-1.2c-3.7-0.1-7.9-0.5-11.1,1
		c-5.9,2.7-12,2.8-18.1,2.8c-12.2,0.1-24.3,1.7-36.7,1.3c-10.5-0.3-21.1,0.3-31.7-0.3c-2.6-0.1-5.8,1.4-7.8,3.1
		c-4.9,4.2-3.5,11.2,2.7,13.2c3.4,1.1,7.3,1.1,11,1.2c4.5,0.2,9.1-0.8,12.7,2.9c-5,9-5,9-13.9,8c-1.4-0.2-3,0.5-4.4,0.8
		c-3.9,1-7.7,2.5-11.6,3c-5.7,0.6-11.4,0-15.1-5.4c-4.6-6.7-11-6.3-17.9-5.5c-3.9,0.5-7.9,0.3-11.8,0c-11.1-1-22-4-33.4-3.5
		c-14.4,0.7-26.9,5.3-37.7,14.8c-4.2,3.7-9.1,6.4-13.8,9.6c-1.3,0.9-2.8,1.6-4,2.6c-8.2,6.8-16.4,13.7-24.5,20.6
		c-0.8,0.7-1.5,1.7-2.5,2c-15.6,5.9-19.4,20.7-24.2,34c-2.1,5.9-0.8,13.1-0.3,19.7c0.5,6.9,2.2,13.7,2.6,20.6
		c0.2,4.1-0.5,8.5-1.8,12.5c-4.6,14.9-8.1,29.9-8.1,45.6c0,6.4-0.6,12.8-1.1,19.2c-1.1,14.3,1.2,28.1,4.4,42.1
		c6.1,26.8,16.6,51.9,29,76.3c3.6,7.1,8.9,11.8,16.3,14.6c2.8,1,5.6,3.1,7.6,5.3c5.1,5.7,10.8,9.7,18.5,11.9
		c7.8,2.2,15.7,4,23.5,6.4c5.2,1.6,10.5,1.3,15.7-0.5c3.5-1.2,7.3-1.4,10.9-2.2c10.6-2.3,21.2-4.8,31.9-7c2.5-0.5,5.4-0.6,7.9-0.1
		c8.5,1.6,8.5,1.7,15.9-3.3c0.7,0.7,1.8,1.3,2,2.2c2.3,9.7,4.6,20.2-2.3,28.3c-6.7,7.9-2.8,17.3,6.1,20.2c0.8,0.2,1.6,0.4,2.3,0.7
		c3.2,1.5,6.8,2.7,6.4,7.1c-0.4,4.5-5.2,8.8-9.7,9.1c-1.9,0.1-3.8,0.2-5.6,0c-7.9-0.9-13,3-15.6,9.9c-3.9,10.8-7.1,21.8-10.8,33.1
		c-6.6-1.6-11.4-6.7-16.5-11.4c-9.8-9.1-19.3-18.6-29.5-27.1c-7.4-6.2-15.9-9.7-26.5-8.2c-10.9,1.6-21.6,2.8-31.8,7.6
		c-2.8,1.3-6.2,2-9.3,2.1c-12.8,0.4-25.5,2.5-38.4,0.1c-7.3-1.4-9.5-4.1-10.8-11.3c-3.9-22.3-0.9-44.3,2-66.3
		c0.8-6.1,1.3-12.2,1.3-18.4C21.9,439.8,21.8,417.3,21.8,394.8z"/>
	<path class="st4" d="M743.8,448.2c1.5-3.9,6.7-3.9,10.2-5.5c2.1-0.9,4.6-1.5,7-1.4c5.3,0.2,10.6,0.8,15.9,1.5
		c4.7,0.6,9.2,2.6,10.6,7.2c2.6,8.2,9.5,10.2,16.1,12.7c7.2,2.7,14.7,4.7,22.1,7c4.1,1.3,7,3.7,7.1,9.7c-3.1,1-6.4,2.6-9.9,3.1
		c-11.3,1.5-22.7,2.8-34.1,3.8c-7.1,0.6-14.2,0.8-21.3,1.1c-4.1,0.1-6.9,1-8.4,5.6c-1.4,4.2-3.8,4.9-9.9,5.2
		c-1.5-7.1-2.9-13.6-4.1-20.1c-0.3-1.7-0.1-3.7,0.4-5.4c0.7-2.5,1.9-4.9,2.8-7.4C751.8,455,742.2,452.1,743.8,448.2z"/>
	<path class="st4" d="M741,491.1c-5-6.1-10.3-6.1-16-4.8c-0.9,0.2-1.7,0.2-2.7,0.2h0c-4,0.8-7.3,0.9-10,0.8c-0.4,0-0.8-0.1-1.3-0.1
		c-11.3,0.3-22.8,0.1-35.2-1.6c6.7-4.9,13-3.9,19-3.3c7.5,0.8,13.9,1.7,18.9,1.7s7-0.5,8.5-1.5c5.3-3.5,5.6-5.8,1.6-11
		c-3.5-4.5-6.2-9.7-10-13.9c-3.8-4.2-8.5-7.7-13.3-11.9c5.3-3.1,9.9-4,15.4-1.8c5.6,2.2,14.5,4,18.8,5.3s6.3,6.8,7.3,9.4
		s-3.5,9.5-3.8,14.8C738,478.7,739.8,484.2,741,491.1z"/>
	<path class="st4" d="M613.4,497.1c-6.6,1.8-12.6,3.5-18.6,4.9c-1.4,0.3-3.1-0.4-4.5-1c-3.8-1.6-7.5-3.7-11.4-5.1
		c-1.2-0.5-3.1,0.2-4.4,0.8c-3.6,1.5-5.4-0.3-7.3-3.4c2.9-3.4,5.3-6.7,9.6-6c11.2,1.7,22.9,0.9,33.3,6.5
		C611.4,494.5,612.2,495.8,613.4,497.1z"/>
	<path class="st4" d="M483.6,469.7c-7.5,0-7.3-12.3-0.4-12.1C486.3,457.7,491.1,469.7,483.6,469.7z"/>
	<path class="st4" d="M322.4,425.8c-2.8,3.1-6.2,6.1-9.9,7.9c-7.8,3.7-10.1,9.8-9.3,17.7c0.7,8,1.6,15.9,2.4,23.9
		c0.7,7.9-2,14.3-9,18.1c-3.6,1.9-5,4.7-5.5,8.2c-0.4,2.4-0.2,4.8-0.2,7.2c0,9.4-0.7,18.4-5,27.3c-3.4,7.1-4.8,15.1-10.5,21.4
		c-2.9,3.2-1.1,7,2.6,10.2c-5.5,4-6.3,9.4-7.6,14.6c-2,8-5.1,14.9-13.4,18.9c-3.5,1.7-5.7,6.1-8.3,9.5c-1.1,1.4-1.6,3.3-2.2,4.9
		c-20.4,0.5-38.6-5.5-55.9-15.4c0-1.7-0.3-3.1,0-4.3c2.3-8.5,4.4-17.1,7.3-25.4c3-8.5,7.1-10.7,16-9.8c6.4,0.6,11.2-2,14.2-8
		c4-7.9,3.9-12.3-1.7-17.4c-4-3.7-8.9-6.5-14-10.2c6.7-7.7,6.8-17.7,7-27.8c0.1-5.2-1.6-9.2-4.3-13.4c-3.7-5.7-2.8-7,2.9-10.8
		c3.4-2.3,6.1-5.7,8.8-8.8c1.7-2,3-4.3,4.3-6.6c1-1.8,2.1-3.7,2.6-5.7c1.6-7.6,2.9-15.2,4.4-22.8c0.2-1,0.5-2.1,0.8-3.1
		c1.2-4,1.3-8.9,3.8-11.7c4.5-5.1,9.9-9.4,17.4-10.5c10-1.5,19.8-4.2,29.6-6.2c6.4-1.4,12.1,1.1,17.8,3.5c3.7,1.5,7.4,3.1,11.2,3.9
		c3.1,0.7,4.8,2.2,5.7,4.9C326.6,415.6,326.6,421.3,322.4,425.8z"/>
	<path class="st4" d="M272.5,602.6c1.9-6.2,3.7-11.4,5.1-16.6c3.2-11.3,13.4-18,25.2-16.7c1.3,0.2,2.7,0.3,4,0.1
		c9.9-1.4,19.9-2.5,29.7-4.5c5.7-1.1,10.8-1.5,16.5,0.2c8.2,2.4,16.6,3.4,25.3,2c7.3-1.2,15-1.1,22.5-0.8
		c7.4,0.4,12.7,5.4,17.6,10.4c2.9,3,1.1,7.4-3.4,8.6c-9.4,2.6-26.6,1.3-33.1,3.4c-6.5,2-5.3,7.5-8.6,12c-3.6,5-8.3,7.9-15,7.6
		c-4.2-0.2-8.7,0.3-12.6,1.8c-2.6,1-5.4,3.9-6.3,6.6c-3,8.8-10,13.6-17.3,18.8c-8.1-9.3-18.5-8.6-29-7.5c-3.7,0.4-7.3,0.8-12.2,1.3
		C287.8,616,283.5,607.3,272.5,602.6z"/>
	<path class="st4" d="M274.7,621.7c-0.7,1.7-1.3,3.4-2.1,5.6c-6.1-3.3-11.7-6.3-18.2-9.8c2-2.6,3.3-4.9,5.1-6.6
		c4.1-3.7,8.6-3.3,14.4,0.9C278.1,614.9,276.2,618.3,274.7,621.7z"/>
	<path class="st0" d="M307.7,654.7c-8.8,1-19,2.5-29.3,3.1c-18.4,1.1-36.8,1.6-55.3,2.4c-10.2,0.5-20.3,1.3-30.5,1.5
		c-7.2,0.2-14.5,0.3-21.5-0.9c-20.7-3.5-41.4-4.9-62.4-4.5c-6.4,0.1-12.8-1.2-19.2-0.8c-8,0.5-15.9,2.2-23.8,3.1
		c-6.1,0.7-12.2,1.1-18.3,1.3c-6.7,0.2-13.4,0.1-20.1,0.1c-2.6,0-5.2,0-9.1,0c0.5-5.5,0.9-9.7,1.3-13.9c0.1-0.8,0.3-1.6,0.4-2.4
		c0.5-25.2,0.9-50.3,1.3-75.5c0-1.5-0.6-3.1-1-4.8c12.2,4.4,24.1,6,36.7,4.4c7.1-0.9,14.2-0.6,21.1-2.9c2.8-0.9,5.6-1.6,8.3-2.7
		c9.8-4,20.3-5.4,30.6-5.1c5.9,0.1,12.6,3.4,17.4,7.3c9.5,7.7,18.1,16.6,26.7,25.4c7.5,7.6,16.3,13,25.8,17.6
		c9.9,4.8,19.7,9.8,30.1,13.2c8.3,2.7,17.3,3.5,26,4.1c6.9,0.5,13.3,2,18.9,5.7c10.8,7.1,22.5,9,35.1,7.2c6-0.8,12.2-1.1,17.8,1.2
		C312.6,643.8,310.4,648.5,307.7,654.7z"/>
	<path class="st4" d="M420.2,608.5c-2.1,4.8-2.4,9.6-1.5,14.9c2.2,12.7,1.3,16-5.1,25.8c-32,1.2-63.5,2.4-95.5,3.6
		c0.9-1.3,1.6-2.9,2.8-3.9c5.3-4.5,10.7-8.9,16.3-13.1c4-3,7-6.6,8.5-11.4c1.4-4.7,4.3-7.1,9.4-6.9c2.4,0.1,4.8-0.8,7.1-0.7
		c7.7,0.1,13.3-3.3,17.6-9.4c2.4-3.5,4.6-7.2,7.3-11.6c5.9,0,11.8,0.3,17.6-0.1c5.8-0.4,11.5-1.5,17.5-2.3
		C423.2,598.4,422.3,603.6,420.2,608.5z"/>
	<path class="st0" d="M551.5,15c29.6-4,59.1-5.6,88.8-3.8c17.6,1.1,35.3,2.5,52.9,2.5c19,0,37.9-1.6,56.9-2.5c1.1,0,2.2-0.1,3.2,0
		c26.5,2.7,53,0.1,79.4-0.6c17.7-0.5,35.3-2.4,52.9-2.4c20.3,0,40.5,1.3,61.6,2.1c0.6,7.6,1.3,15.5,2,24.7
		c-10.6-7.9-20.9-3.4-31-2.2c-9.8,1.1-19.4,2.5-29.1-1.8c-10-4.4-20.7-3.5-30.8-0.4c-21.1,6.6-41.8,3.7-62.4-1.2
		c-8.1-1.9-15.7-2.2-23.5,0.8c-3.2,1.3-6.7,2.1-9.8,3.6c-9.8,4.7-19.8,3.8-29.8,1.1c-7.2-2-14.4-4.1-21.7-5.9
		c-5.8-1.4-11.6-1.2-17.3,0.9c-5,1.9-10.3,3.2-15.2,5.2c-9.5,3.9-18.3,0.7-27.4-2c-8.1-2.4-16.5-4.6-24.9-5.6
		c-4.6-0.6-9.5,1.1-14.2,2.1c-6,1.3-12,2.7-17.9,4.4c-9.3,2.7-18.2,1-26.5-3.1c-6.6-3.3-12.8-6.6-21.7-3.1
		C548.5,22.3,550,18.6,551.5,15z"/>
	<path class="st0" d="M569.6,40c13.4,8,27.7,4.6,41.2,0.3c13.8-4.5,26.8-3.2,39.8,1.9c12.4,4.9,25,6.9,37.3,0.4
		c13.4-7,26.4-4.1,39.6,0.1c1.5,0.5,3,1.1,4.6,1.6c11.9,3.7,23.5,4.1,35-1.7c10.2-5.1,20.7-5.7,31.9-2.9c10.3,2.6,21,3.7,31.6,4.7
		c9.4,0.9,18.5-1.7,27.5-3.9c11.2-2.7,22.1-3.6,33,1.2c9,4,18.3,2,27.5,0.6c9.8-1.5,19.5-3.2,29.3-0.3c6.7,15.1,0.7,30.5,0.9,46.7
		c-6-3.8-12-6.3-18.8-5.6c-5,0.5-10.1,1.1-15,2.5c-8,2.2-15.5,1.8-23.5-0.6c-15-4.6-30.3-6.1-45.9-3.4c-0.8,0.1-1.7,0.1-2.4,0.5
		C828.5,90,813.5,86,798.6,83c-6.6-1.3-13-3.1-19.5-4.6c-16.6-3.8-32.6-1-47.8,5.4c-8.2,3.5-16.1,3.6-24.3,1.7
		c-10.7-2.4-21.3-5.2-31.8-8.2c-5.6-1.6-11-1.3-16.4,0.7c-24.7,8.9-49.4,9.1-73.2-2.3c-7.2-3.5-13.7-2.9-20.9-1.8
		c-10,1.6-20.1,3.9-30.1,3.8c-7.2-0.1-14.3-3.8-21.4-6c-3.5-1.1-6.8-2.4-10.7-3.8c3.3-2.6,6.7-5.5,10.2-8.2
		c6.7-5.3,13.3-10.7,20.1-16c2.1-1.6,4.4-2.9,6.8-4C549.5,35,559.3,33.8,569.6,40z"/>
	<path class="st0" d="M260.1,135c8.1-0.7,16-1.3,24-2c2.4-0.2,4.6-1,7-1.4c1.5-0.2,3.2-0.7,4.5-0.3c12.2,3.4,24.2,2.2,36.4-0.4
		c7.6-1.6,15.1-0.9,21.5,5.2c8.9,8.5,20.3,10.1,32,9.4c2.3-0.1,4.5-1.6,6.6-2.7c4.5-2.4,8.9-5,13.9-7.8c5.4,5.1,11.3,10.1,16.4,15.8
		c5.1,5.6,9.6,11.8,14.1,18c1.2,1.6,1.7,3.9,2,6c1,6.8-0.8,13.2-2.9,19.5c-7.6,2-14.7,1.6-22-0.5c-6.5-1.8-13.1-1.9-19.6,1.4
		c-12.9,6.6-26.7,6.6-39.8,2.1c-15.8-5.5-31.5-5.5-47.5-2.8c-7.9,1.3-15.5,4.2-23.3,5.9c-11.4,2.4-22.9,3.6-33.9-1.3
		c-18-8.1-35.8-6.9-53.8-0.2c-16.8,6.3-33.7,4.5-50.5-0.2c-3.3-0.9-6.7-2-10-3c-8.1-2.5-15.7-1.8-23.1,2.7c-9.3,5.5-19.2,7.5-30,4.8
		c-3.8-1-8-1.1-11.9-0.6c-2.4,0.3-4.6,2.6-7.7,3.4c0.8-1.3,1.4-3,2.5-3.9c6-4.8,12.2-9.5,18.4-14.2c6.2-4.7,11.9-9.7,16.6-16.1
		c5.6-7.7,14.1-12.1,23-15.5c2.5-0.9,5.3-1.4,7.6-2.7c6.4-3.6,12.5-2.1,19.3-1c15.1,2.5,30.4,6.3,46.6-0.2
		c3.9,3.2,8.1,6.7,12.5,10.1c1.2,0.9,2.7,2,4,1.9c9.8-0.1,19.6-0.2,29.4-0.7c6.7-0.4,12.1-4,16.8-8.6
		C264.6,149.8,264.7,144.4,260.1,135z"/>
	<path class="st0" d="M65.9,215c2.8,0.3,6.4,0.2,8.4-1.3c3.4-2.6,6.7-2.7,10.3-1.7c11.3,3.2,21.6,0.6,31.6-5c6.8-3.9,14-4.6,21.6-2
		c11.7,4,23.6,6.8,36,7.4c10.7,0.6,20.6-3.2,30.6-5.7c4.9-1.2,9.8-2.9,14.8-3.7c7.5-1.2,15.2-1.3,22.2,1.8
		c21.3,9.3,42.3,5.9,63.5-0.2c15.9-4.5,31.9-4.7,48,1c14.6,5.2,29.5,4.4,43.9-1.5c5.4-2.2,10.4-3.4,16.3-2c4.9,1.2,10,1.3,15.1,1.6
		c3.4,0.3,6.2,0.2,9.3,3.1c2.3,2.1,7.1,1.5,11.4,2.2c-0.6,2.9-1.9,6.5-2,10.1c-0.1,3.9-0.2,8.5,1.7,11.5c5.2,8.2,9.9,17.1,17.7,23.5
		c1.7,1.4,3,3.5,5.6,6.5c-6.6,0-11.5,0.2-16.5,0c-7.9-0.4-15.6,0.4-22.9,3.3c-17.1,6.8-34.1,5.2-51.1,0.2c-11.9-3.5-24-5.9-36.4-4.9
		c-10.6,0.9-21.4,1.9-31.6,4.5c-34.6,8.9-68.7,8.8-102.7-3.1c-14.5-5.1-29.6-4.3-44.5-2.7c-12.7,1.4-25.4,3.5-37.9,6.3
		c-15.3,3.3-29.8,1.5-43.7-4.9c-7-3.2-13.6-4.1-20.8-1.2c-3.7,1.4-7.6,2.1-12.6,3.5c0-5.5-0.8-10.1,0.2-14.3
		c1.2-5.4,0.7-10.4-0.4-15.6c-0.3-1.5,0-3.2,0.2-4.8C51.5,218.5,57.4,214.1,65.9,215z"/>
	<path class="st0" d="M945.3,145.8c-7.1,0-14.3,0.6-21.4-0.1c-15-1.6-29.7-2.1-44.4,2.7c-8.3,2.7-17.3,3.5-26.1,4.3
		c-3.8,0.3-7.8-1.4-11.7-2.3c-12.2-3-24.4-6.9-37.1-5.3c-10,1.2-20.1,3-29.9,5.5c-15.9,4.1-31.4,4.7-47.4-0.3
		c-10.9-3.4-22.4-5.5-33.7-6.9c-6.5-0.8-13.3,0.4-19.9,1.3c-10.6,1.5-20.7,5.4-31.6,4.7c-13.4-0.9-26.5-2.9-38.9-8.6
		c-11.3-5.2-22.9-5.7-35.1-2c-16.2,4.8-32.4,6-48.1-3.3c-8.7-5.1-18.2-5.9-27.5-0.6c-1.1,0.6-2.4,0.8-3.6,1.2
		c-7.8-16-8.8-31.6-1.8-47.6c1.2-2.9,2.7-4.9,6.1-5.6c2.8-0.6,5.5-2.1,8.2-3.1c3.7-1.4,7.2-0.7,10.9,0.8c6.7,2.6,13.6,4.7,20.5,6.8
		c2,0.6,4.2,0.8,6.3,0.5c11.1-1.4,22.3-2.7,33.3-4.7c4-0.7,7.2-0.1,10.7,1.5c14.3,6.6,29.3,10.6,45.1,9.7c10-0.6,20.1-2.8,29.8-5.3
		c6.4-1.7,12.2-2.8,18.8-1c12.6,3.4,25.5,5.8,38.2,9c5.7,1.4,10.6,0.1,15.5-2.1c17.7-8,35.6-10.3,54.6-4.8
		c10.9,3.2,22.4,4.7,33.8,6.2c7.7,1.1,15.4,0.1,22.8-2.9c4.6-1.9,9.8-2.9,14.8-3c12.6-0.4,25.2,0.9,37.1,5.3
		c7.1,2.6,13.6,1.4,20.4,0.1c7.9-1.5,15.6-4.3,23.7-1.9c3.6,1,7,3,9.9,4.2c-1.2,8.9-2.8,16.5-3.2,24.2
		C944,129.8,944.9,137.5,945.3,145.8z"/>
	<path class="st0" d="M518.4,143.6c17.2,9.4,34.7,9.8,52.9,4.3c9.9-3,19.5-2.9,29,1.1c15.5,6.5,31.6,10.4,48.4,9.6
		c6.9-0.3,13.9-1.4,20.5-3.2c15.2-4.1,30.1-2.6,45.1,1.3c10.6,2.8,21.3,5.4,32.2,6.5c7.5,0.8,15.4-0.7,23-2c8.4-1.4,16.7-3.9,25-5.6
		c13.7-2.8,27.2-0.6,40.5,2.6c1.8,0.4,3.7,0.6,5.5,1.2c13.3,4.5,26.5,2.1,39.4-1.7c14.8-4.3,29.5-4.7,44.5-2.3
		c3.1,0.5,6.4,0.1,9.6,0.1c3.7,0,7.4,0,11.9,0c0,22.3,0,43.1,0,64.1c-9.1,2.2-17.9,1.2-26.3-1c-13.4-3.4-26.6-1.6-39.8,0.7
		c-8.7,1.5-17.3,3.6-25.9,5.3c-12.9,2.7-25.4,0.7-37.9-2.8c-10-2.9-20.1-5.8-30.2-8.3c-17.2-4.2-34.5-2.8-51.7,0.6
		c-22.2,4.3-44,2.6-65.5-4.6c-10.3-3.5-20.1-9.1-31.4-9.3c-7.4-0.1-14.9-0.4-22.3,0.2c-8.2,0.6-16.4,2.7-24.6,3.2
		c-11.3,0.7-22.3-1.7-33.2-4.7c-6.9-1.9-13.9-4.6-21-5.2c-6.2-0.5-12.6,1.4-18.9,2.3c-1.8,0.3-3.5,1-5.2,1.5
		c-8.5-16.9-18.2-33.1-20.6-52.8C500,139.8,509.5,138.7,518.4,143.6z"/>
	<path class="st0" d="M930.7,282.5c-10.4,0-20.8,0.1-31.2,0c-3.5,0-7,0-10.4-0.5c-14.5-2.1-29-4.8-43.6-6.6
		c-13.1-1.6-26.2-1.4-39.2,1.7c-15.4,3.7-30.8,3.6-46.2,0.3c-20.9-4.5-41.6-9.8-62.6-14.1c-8.6-1.8-17.5-4.5-26.4-0.7
		c-16.5-2.1-32.1,4.1-48.4,5c-16.2,0.9-31.4-1.5-46.5-6.2c-1.5-0.5-3.1-1.1-4.6-1.2c-16.5-1.3-33-3.8-49.4,1.1
		c-0.4,0.1-1-0.2-2.4-0.5c5.1-18.2,3.3-36.1-3.5-54.1c5.5-3.4,11.8-3.7,17.6-3.7c6,0,12.4,1.3,18,3.4c21.1,7.8,42.4,7.3,64,3.5
		c12.7-2.2,25.1-0.3,37.1,3.8c20,6.8,40.2,12.5,61.6,12.4c5.6,0,11.3-0.4,16.7-1.6c26.6-6.3,52.5-3.8,78.1,5
		c7.1,2.4,14.6,3.3,21.8,5.2c8.6,2.2,16.9,0.7,25.4-0.8c14.5-2.6,28.9-5.3,43.5-7c6.5-0.8,13.4,0.1,19.9,1.5
		c8.7,1.9,17.3,3,26.5,0.9c7,17.9,1.7,35.4,0.3,53C941.2,282.5,935.9,282.5,930.7,282.5z"/>
	<path class="st0" d="M337,420.6c-0.2-1.5,0-3.1,0-4.7c3-1,5.5-1.9,7.9-2.8c5.5-2,11-1.9,16.3,0.5c7.5,3.3,15.2,4.4,23.4,4.7
		c9.5,0.3,19,1.4,28.5,0.3c6.9-0.8,13.8-1.8,20.5-3.6c7.2-1.9,13.7,0,20.5,1.3c7.3,1.4,14.7,2.6,22.1,3.3c6.7,0.7,13.4-0.3,19.7-3
		c12.4-5.4,24.7-2.8,36.9,0.6c10.7,3,21.7,2.7,32.6,2.4c1.7,0,3.5,0.2,5.1,0.8c4.9,1.7,9.7,3.7,14.8,5.7c-0.3,0.3-0.9,1.4-1.8,2
		c-3.7,2.2-3.9,5.7-3,9.2c1,4,4.6,5.2,8.1,5.3c6.4,0.2,12.9-0.3,19.3-0.4c9.3,0,18.5-0.3,27.8,0.3c4.7,0.3,9.2,2.9,13.9,3.5
		c9.8,1.1,19-2,27.2-6.9c6.2-3.7,6.9-8.3,4-15c-0.4-0.9-0.7-1.9-1.3-4c3.8,0,6.9-0.4,9.9,0.1c16.4,2.6,33,3.7,49.6,3.2
		c8.1-0.2,15.8-1.1,23.5-4.2c5-2,11-2.7,16.4-2.1c9,1,17.9,3.1,26.6,5.7c20.3,5.8,40.7,7.8,61.6,3.9c13.2-2.4,26.5-3,39.9-0.9
		c7.1,1.1,14.5,0.3,21.7,0.6c7.1,0.3,14.2,0.9,21.3,1.4c0,27.4,0,54.3,0,82.1c-2.7,0.1-5.6,0.4-8.4,0.4c-12.8,0-25.7-0.2-38.5,0.1
		c-9.8,0.2-19.2-1.2-28.5-3.9c-18.5-5.4-37-5.2-55.5-0.9c-9.9,2.3-19.7,1.6-29.5,0c-5.8-1-11.5-2.2-17.6-3.4c1.4-5.5,4.4-7.2,9.4-7
		c4.2,0.2,8.5-0.5,12.7-0.9c7.4-0.7,14.9-1.4,22.3-2.5c6.8-1,13.5-2.3,20.2-3.8c4.6-1,6.9-5.3,5.9-9.9c-1.5-6.6-5-12.1-10.9-15.2
		c-7.8-4-15.9-7.6-24.1-10.7c-7.6-2.9-14.7-5.3-18.9-13.5c-2.6-5-8.1-7.2-14.3-7.5c-8.9-0.5-17.3,0.3-26,3.4
		c-7.8,2.8-16.5,3.3-24.8-1.2c-7.6-4.1-15.6-3.4-22.9,1.3c-7.6,4.8-7.5,15.8,0,20.7c1.8,1.2,3.7,2.1,5.5,3.2
		c6.8,4.2,5.7,11.3,6.5,18.4c-5.3-1-10.4-2-15.5-2.9c-6.9-1.3-13.8-1.7-20.6,0.6c-6.2,2.2-8,5-7.1,10.7c0.9,5.7,4.8,9.6,10.2,9.7
		c14.4,0.3,28.8,0.4,43.2,0.4c2.4,0,4.7-0.8,7.1-1.2c4.8-0.8,5.5-0.2,7.8,5.9c-15.7-1.3-30.9,1.6-46.3,3
		c-13.4,1.2-26.8,0.5-38.6-7.6c-1.8-1.2-4.5-1.3-6.9-1.4c-2.4-0.1-4.8,0.3-7.1,0.8c-7.6,1.5-13.1-0.4-19-6.5
		c-5.5-5.7-13.4-10.1-23.1-7.7c-4.4,1.1-9.6-0.1-14.2-1.3c-4.6-1.3-8.8-1-13.2,0.5c-1.8,0.6-3.9,0.2-5.8,0c-1.3-0.1-2.6-0.7-3.8-1.2
		c-8.3-3.5-16.8-4.7-25.7-2.1c-7.3,2.1-14.8,1.7-22.1-0.9c-2-0.7-4.2-0.7-6.3-1c-4.5-0.5-9-1-14.6-1.7c6.4-8.3,4.8-22.8-0.4-23.5
		s-10.2-0.7-15,2.2c-3.5,2.1-5.1,4.9-3.9,8.7c1.5,4.8,3.6,9.4,5.8,15.2c-2,0.9-4.5,3.2-6.9,3c-11.1-0.7-22.4,0.7-33.3-2.9
		c-11-3.6-22-3.4-33.2-0.7c-6.7,1.6-13.7,2-20.6,2.9c-9.6,1.2-18.7-1.6-27.6-4.3c-10.7-3.2-21.3-4.7-32.3-2.6
		c-1,0.2-2.1,0.2-4.2,0.3c-1.1-6-2.5-11.9-3.1-17.9c-0.4-4.6,1.9-7.9,6.5-9.9C332.6,439.4,338.7,432.4,337,420.6z"/>
	<path class="st0" d="M924.9,647.5c-11.4-0.5-22.9,0.3-34.4,0.8c-12.6,0.6-25.1,1.1-37.7,2.3c-31.3,2.9-62.6,1.6-93.9,1.4
		c-24.1-0.2-48-2.9-71.9-5.8c-23.9-3-48-3.3-72-0.8c-21.8,2.3-43.6,4.7-65.4,6.4c-18.4,1.5-36.8,2.7-55.3,2.9
		c-12.8,0.2-25.6-1.6-38.4-2.3c-4.8-0.3-9.7-0.1-14.5-0.2c-3.9-0.1-7.9-0.5-12.3-0.8c0.8-4,1.4-7.4,2.1-10.8
		c0.2-0.7,0.7-1.8,1.3-1.9c6-1.5,10.6-6.7,18-5.3c11,2,22.3,3.1,33.5,3.5c8.2,0.3,16.5-0.9,24.7-1.4c18.4-1,36.8-2.3,54.8-6.9
		c7.9-2,16.1-2.5,24.5,0.2c23.9,7.8,48.1,6.5,71.9,0c12.5-3.4,24.2-1.6,36.3,0.9c18.3,3.7,36.7,7.2,55.1,10c6.2,1,12.8,0,19.1-0.7
		c11.7-1.2,23.3-3,35-4.2c13.3-1.4,26.6-1.9,40-0.3c17.2,2,34.5,4.7,51.8,5.6c12.4,0.6,24.9-1.3,37.4-2.1c4.8-0.3,9.5-0.6,15.2-1
		c0.3,3.1,0.6,5.9,0.9,9.2C941.4,646.1,933.3,647.9,924.9,647.5z"/>
	<path class="st0" d="M948.8,628.3c-7.7,0.4-15,1-22.3,1.1c-12.5,0.2-25.1,0.6-37.6,0c-12-0.6-24-2-35.9-3.6
		c-19.5-2.7-38.8-1.7-58.3,1c-14.8,2.1-29.9,4.2-44.7,3.4c-15.6-0.9-31-5.1-46.5-8.1c-8.1-1.6-16.2-3.7-24.3-5.2
		c-7.9-1.4-15.4,1.4-22.9,3.3c-22.8,5.8-45.4,6.9-68-0.8c-7.9-2.7-15.9-2.3-23.8-0.5c-21,4.8-42.3,5.9-63.6,7.8
		c-16,1.4-31.5-0.1-47.1-1.9c-9.8-1.1-9.8-1-21.1,3.7c-3.4-3.2-0.9-6.5,0.4-9.4c4.5-10,5.4-20.3,1.9-30.5c-2.5-7.2-6.6-13.9-10.1-21
		c11.8-4.8,24.1-2.3,36.4,1.2c6.9,2,13.9,3.9,20.9,5.7c12.8,3.3,25.4,2.2,37.8-2.2c16.9-5.9,34-5.5,51.4-1.8
		c6,1.3,12.2,1.7,18.3,2.1c8.8,0.6,17.6,1,26.3,1.4c9.3,0.4,18.5-0.1,27.7-2.5c12.5-3.3,24.9-0.5,37.3,2.1c6,1.3,12,3,18.1,3.5
		c21.1,1.7,42.1,2.9,63.2-0.5c12.2-1.9,24.5-1.9,36.5,1.6c14,4.1,28.3,4.6,42.9,4.4c16.1-0.3,32-1.3,48-2.7c6-0.6,12.2,1,18.2,2
		c5.3,0.9,10.4,2.3,15.7,3.4c4.9,1.1,24.8,2.3,27.4,3.4C950.3,601.7,949.6,614.7,948.8,628.3z"/>
	<path class="st0" d="M949.5,574.1c-10.8,1.6-21.1,3.5-31.2,0c-15.7-5.4-31.6-3.6-47.6-2.5c-23.7,1.7-47.5,3.8-70.9-3.3
		c-12.8-3.9-26-3.5-38.9-1.2c-20.6,3.6-41.1,2.4-61.5-0.1c-12.4-1.5-24.7-4.3-37.2-5.6c-6.8-0.7-13.9-0.3-20.5,1.4
		c-13.6,3.3-27.2,2.8-40.7,1.4c-15.4-1.6-30.7-4.3-46.1-5.8c-12.9-1.2-25.8,1-37.9,5.3c-15,5.3-29.3,4-44-0.2
		c-8.7-2.5-17.5-5-26.4-6.5c-5.2-0.9-10.7-0.2-16,0.3c-10.2,0.9-20.3,2.1-30.7,1.1c-7.9-0.8-16-0.4-23.9,0.6
		c-8.2,1-16.1,0.4-23.7-2.1c-7.1-2.3-13.6-1.5-20.4,0.4c-13.1,3.8-26.5,3.4-41.2,2.9c8.1-15.2,8.7-31.1,10.6-46.7
		c0.5-4,2.1-6.7,5.6-9.1c11.9-7.8,11.8-7.9,14.5-22.8c10.4-3.6,20.7-2.1,31.1,1c11.3,3.4,22.6,6.8,34.6,5.1c6.9-1,13.9-1.6,20.5-3.4
		c9.5-2.6,18.6-1.5,27.6,1.2c12,3.5,24.2,3.2,36.3,3.1c4.7,0,9.7-1.5,13.8-3.7c3.4-1.8,6.2-1.5,9.7-1.4c12.3,0.1,24,6,36.4,3.9
		c1.8-0.3,3.9,0.1,5.5-0.6c8.3-3.6,15.6,0.2,21.4,2.2c3.1,5.2,4.8,9.4,7.7,12.6c1.9,2.1,5.7,4.1,8.4,3.7c7-1,12.3,1.3,17.1,6
		c1.1,1,2.8,2.2,4.1,2.1c11.9-0.7,23.7-0.2,34.9-6.8c5.9-3.5,14.4-5.5,21.9-1.1c13.9,8.1,28.9,8.6,44.3,6.8
		c16.2-1.8,32.4-4.2,48.7-1c0.5,0.1,1.1,0.3,1.6,0.1c14.4-4.5,28,1.3,41.8,3.8c12.3,2.1,24.4,1.7,36.6-0.7c15.4-3,30.7-2.7,46,1.2
		c11.7,3,23.4,4.8,35.7,4c14.1-0.9,28.3-0.2,43.7-0.2C950.5,538.7,950,556.2,949.5,574.1z"/>
	<path class="st0" d="M951.6,417c-7,0-13.3,0.2-19.7,0c-10.7-0.4-21.4-0.6-32-1.7c-11.4-1.2-22.5,0.1-33.6,2.1
		c-19.6,3.5-38.7,1.7-57.8-3.8c-9.2-2.6-18.7-4.8-28.2-6c-5.4-0.7-11.7-0.5-16.5,1.6c-10,4.5-20.2,4.8-30.7,4.6
		c-8.3-0.1-16.6-0.3-24.9-0.6c-1.8-0.1-3.6-0.7-6.2-1.3c1.6-2,2.9-3.5,4.1-5.1c0.4-0.1,0.9-0.5,1.4-0.5c8.4,0.9,10-1.1,6.7-8.5
		c-0.8-1.7-1.6-3.4-2.7-4.9c-2.6-3.8-5.9-4.2-9.5-1.8c-3,2-6.1,4.1-9.5,5.4c-6.9,2.6-7.5,3.3-5.9,10.2c0.3,1.3,1,2.4,1.8,4.1
		c-1.4,0-2.8-0.4-3.7,0.1c-11.4,5.5-22.4,2.5-33.4-1.3c-2.3-0.8-4.7-2.5-6.1-4.4c-2.9-3.9-6.4-5.7-11.2-6.7
		c-8.9-1.8-17.6-4.7-26.2-7.5c-2.9-1-5.5-3.1-8.2-4.9c-11.4-7.5-22.8-15-34-22.7c-6.5-4.5-13.2-6.9-21-4.8
		c-4.4,1.1-8.3-0.3-10.5-3.9c-7.5-12.1-19.3-14.2-32-14.7c-1.9-0.1-3.8-0.3-5.6-0.7c-12.5-3.2-25.1-3.8-38-3.2
		c-12.6,0.6-24.2,3.8-35.4,9.4c-1.2,0.6-2.6,0.9-3.6,1.7c-5.4,4.3-10.8,8.7-15.9,13.3c-3.4,3-6.7,6.2-9.4,9.8
		c-3.4,4.4-4.6,9.5-2.7,15.1c1.1,3.1,3,4.5,6.1,3.7c6.7-1.7,13.8-2.4,18.8-8.2c0.7-0.8,1.6-1.5,2.6-1.9c11.4-4.4,22.8-8.8,34.7-13.4
		c0.8,2.3,1.4,3.5,1.6,4.7c0.7,4.2,3.4,6.1,7.3,6c4.5-0.2,8,1.9,12,3.5c7.8,3.2,16.2,5.2,24.3,7.6c4.8,1.4,9.6,3.1,14.6,3.8
		c12.3,1.7,24,7.8,36.9,5.2c0.5-0.1,1,0.3,1.7,0.5c1.4,4.1,2.8,8.3,4.3,12.9c-10.1,1.5-19.7-0.9-29-3.6c-11.3-3.3-22.3-3.4-33,1.2
		c-7.8,3.3-15.8,3.6-23.7,2.6c-9-1.1-17.7-3.7-26.8-5.7c2-3.9,4.1-7,5.3-10.4c2.4-6.9-0.8-13.6-7.6-16.5c-3.2-1.4-12.8,1.5-14.2,4.5
		c-0.6,1.3-0.5,3.1-0.2,4.5c1.3,6.2,2.9,12.4,4.5,19.5c-11,1.4-22.1,4.2-33.1,3.8c-12.6-0.5-25.7,0.7-37.7-5.2
		c-5.2-2.6-10.9-2.3-16.5-0.5c-2.8,0.9-5.5,1.9-8.7,3c-6.2-6.2-14.1-9-22.5-11.2c-4.6-1.2-8.9-3.7-13.3-5.5
		c-4.6-1.9-9.6-2.1-14.1-0.5c-3,1-5.5,0.7-8.4,0.3c-9.5-1.4-19-2.7-28.6-3.3c-3.2-0.2-6.8,1.2-9.9,2.6c-12.4,5.8-25.2,6.8-38.4,3.7
		c-7.5-1.8-14.8-5.2-22.4-6c-9.8-1-19.8-0.6-29.6,0.2c-6,0.5-12.1,2.3-17.9,4.3c-12.4,4.3-24.8,3.7-37.2,1.3
		c-3.4-0.7-6.6-2.1-9.9-3.2c-5.3-1.8-10.6-3.6-15.8-5.6c-4.6-1.8-8.9-1.3-13.2,0.7c-2.6,1.2-5.3,2.3-9.2,3.9
		c-1.6-16.1-3.3-31.2-4.6-46.3c-0.5-5.4,4.3-9.7,9.7-8.8c10.8,1.7,21.5,4,32.3,5.8c13.3,2.3,26.6,2.9,39.8-0.3
		c9.6-2.3,19.1-5.3,28.6-7.9c11.3-3.1,21.9,0.8,32.2,4.1c12.2,3.9,24.5,6.2,37.1,5.3c10.9-0.8,21.6-3.5,32.3-5.6
		c8.4-1.7,16.6-4.5,25-5.7c17.8-2.5,35.4-2,53.2,2.6c10.7,2.8,22.3,2.7,33.4,2.7c5.4,0,10.7-3.1,16.1-4.7c16-4.8,31.8-2.5,47.4,2.1
		c13.6,4,26.8,2.4,40.1-1.9c11.9-3.9,23.9-2.7,35.5,1.5c17.4,6.4,35.5,9.8,53.8,12.1c6.2,0.8,12.8-0.7,19.2-1.2
		c9.5-0.8,19-1.7,28.5-2.6c8.2-0.8,15.9,1.3,23.6,3.9c12.5,4.2,25.1,5.3,37.7,0.7c14.1-5.2,28.7-7,43.4-6.2
		c10.9,0.6,21.7,3,32.4,5.2c14.9,3.1,29.6,2.7,44.7,0.3c8.1-1.3,16.6-1.1,24.7,0.1c12.9,2,25.7,5.2,38.4,8.3
		c8.8,2.2,17.6,1.8,26.1-0.4c10.6-2.7,21-1.4,31.6-0.4c2.1,0.2,4.3,0.9,6.4,0.7c12.1-1.2,23.2,3.2,35.3,5.6
		C948.9,377.5,955.2,397.1,951.6,417z"/>
	<path class="st0" d="M243.8,401.1c-1.8,1.6-3.9,2.9-5.4,4.7c-2.1,2.3-4.7,4.7-5.4,7.5c-1.7,6.7-2.1,13.7-3.5,20.4
		c-2.1,9.8-4.9,19.5-10.9,27.6c-4.2,5.7-12,10.4-19.3,5.7c-11.8-7.7-24.8-5-37.4-4.3c-4.5,0.3-8.9,1.9-13.4,2.3
		c-9.1,0.7-18,0.6-26.8-3c-5.9-2.4-12.3-3.6-18.6-4.7c-3.2-0.5-6.8,0.3-10.1,1.1c-4.3,1-8.5,2.6-12.8,4
		c-13.9-5.8-17.9-19.1-22.6-31.5c-4-10.7-6.6-21.9-9.7-32.7c10.1-7.9,20.6-8,30.9-2.3c14.8,8.2,30.5,9.5,46.6,6.8
		c8.4-1.4,16.5-4.4,24.9-5.9c11.9-2.1,23.6-2.6,35.5,1.8c8.1,3,17.1,4.2,25.8,5.2c12.8,1.6,24.8-2.2,36.9-7.1
		C246.8,398.3,245.3,399.7,243.8,401.1z"/>
	<path class="st0" d="M194.2,475.8c-2.1,0.6-3.9,1.4-5.9,1.7c-10.3,1.2-20.7,2.1-30.9,3.6c-6.1,0.8-12,2.6-18,3.7
		c-5,1-10,1.9-15,2.4c-2.3,0.2-5,0.1-7-0.8c-9.4-4.3-19.7-7.2-26.8-18c3.6-0.7,6.7-2,9.6-1.7c5.8,0.6,11.8,1.2,17.2,3.3
		c13.1,5,26.2,6.5,40,3.3c10.5-2.4,21.2-2.2,31.8-0.3c1.3,0.2,2.5,0.8,3.7,1.3C193.3,474.4,193.5,475,194.2,475.8z"/>
	<path class="st0" d="M946,293.3c-10.4-0.6-19.7-1.5-29-1.6c-8.2-0.1-16.5,1.4-24.6,0.6c-14.1-1.4-28.1-3.8-42-6.3
		c-12.2-2.1-24.4-2.2-36.7-0.6c-10,1.3-20.2,4.1-30.2,3.5c-20.5-1.2-40.9-4.2-60.7-10.4c-25.1-7.9-50.7-9.2-76.8-4.3
		c-23.6,4.5-47.3,5.1-70.4-3.6c-2.2-0.8-4.7-1.7-7-1.6c-15.2,0.3-30.5-2-45.6,1.4c-4.6,1-9.8,0.6-10.7,7.1c-0.1,0.9-1.9,1.7-3.1,2.2
		c-8.3,3.7-17.6,1.5-22.7-5.5c-2.6-3.6-5.3-4.3-9.5-3.9c-6.6,0.6-13.2,0.2-19.9,0.4c-9.3,0.3-18.5,0.2-27.5,3.8
		c-5.1,2-11,3.7-16.4,3.3c-11.4-0.8-22.8-2.6-33.9-5c-10.8-2.3-21.4-4.5-32.5-4.4c-17,0.2-33.5,4-49.9,7.7
		c-19.2,4.4-38.2,3.8-57.3,0.9c-10-1.5-19.7-4.8-29.6-6.8c-7.6-1.5-15.3-2.9-23-3.2c-14.2-0.7-28.3,1.1-42.2,4.2
		c-6.5,1.5-13.1,2.5-19.7,3.6c-14.9,2.6-28.8-0.8-42.1-7.1c-5.2-2.4-10-3-15.4-1c-4.9,1.8-10.2,2.8-15.1,4.2
		c-0.8,6.3-1.2,12.8-2.7,19c-1.5,6.2-4.3,12.1-5.9,18.3c-1.6,5.8-2.3,11.9-3.5,18c3.5-0.8,6.5-2.3,9.1-1.8c10,1.5,20,3.5,29.9,5.6
		c12.7,2.7,25.4,3.6,38,0.5c10.7-2.6,21.1-6.1,31.8-8.4c5.3-1.1,11.2-1.2,16.5-0.3c7.9,1.3,15.6,3.7,23.3,5.8
		c14.9,4.1,29.9,5.8,45.2,2.1c10.7-2.6,21.3-5.1,31.9-8c19-5.1,38-5.2,57.2-1.4c9.4,1.9,18.9,3.1,28.2,5.3
		c6.5,1.6,12.1-0.3,17.9-2.3c14.1-4.8,28.4-7.7,43.3-4.8c8.7,1.7,17.3,3.4,25.9,5.4c7.9,1.9,15.8,0.6,22.8-2
		c16.6-6,32.4-4.4,48.4,1.6c16.7,6.3,34,9.9,51.8,9.7c13.8-0.1,27.6-2,41.4-2.9c8.6-0.6,16.9-0.3,25.2,2.9
		c12.7,4.9,25.9,5.5,39.1,0.7c6-2.1,12.5-3.1,18.8-4.1c19.6-3.2,38.9-0.3,58.1,4c9.9,2.2,20,3.2,30.2,1.5
		c15.4-2.7,30.8-3.7,46.3-0.2c9.6,2.2,19.4,4.1,29,6.5c9,2.2,17.9,2.3,26.9,0.2c5.2-1.2,10.6-1.8,15.9-1.7c7.7,0.1,15.5,1,23.2,1.5
		c8,0.5,16,0.5,23.4,4.4c2,1,4.4,1.2,7.6,2C944,329.2,941.4,311.6,946,293.3z M576,315.3c-4.6-2.6-4.4-7.5-5.2-11.4
		c-0.7-3.7-1-7.1-3.9-10.1c-2.6-2.7-1.1-5.3,3.1-8.1C573.8,295.9,582.3,303.6,576,315.3z"/>
	<g>
		<path d="M588,303.6c-1.3,5.1-2.4,9.5-3.6,13.8c-0.9,3.2-2.3,6.6-6,6.7c-3.9,0.1-7.4-1.9-9-5.6c-1.9-4.4-3.2-9-4.8-13.6
			c-1-3-2.2-5.9-3.2-8.9c-0.5-1.3-1-2.5-1.4-3.8c-2.5-9.1,3.4-15.4,12.6-13.8c4.9,0.9,8.7,3.5,10.5,7.8
			C585.3,291.9,586.5,298,588,303.6z M570.1,285.8c-4.2,2.8-5.7,5.4-3.1,8.1c2.9,3,3.2,6.4,3.9,10.1c0.8,3.9,0.5,8.9,5.2,11.4
			C582.3,303.6,573.8,295.9,570.1,285.8z"/>
		<path d="M867.1,497.5c-8.3-0.1-9.8-1.5-11.5-9.2c-0.3-1.3-0.4-2.7-0.9-3.9c-1.6-3.9,0.1-6.2,3.4-7.7c11.3-5.1,22.6-9,35.7-6
			c5.7,1.3,11.6,1.6,16.7,4.7c4.6,2.8,7.7,6.8,6.9,12.6c-0.5,3.7-1.4,6.9-6.8,7.2C899.8,498.1,875.3,497.6,867.1,497.5z
			 M907.5,486.9c0-1-0.1-2-0.1-2.9c-4.1-0.5-8.3-0.4-12.2-1.5c-10.1-3-19.5-0.6-28.9,2.7c-1.5,0.5-2.8,2-5.5,4
			c4.5,0.6,7.3,1.4,10.2,1.4c9.3-0.2,18.6-0.5,27.9-1.1C901.8,489.1,904.6,487.7,907.5,486.9z"/>
		<path d="M958.4,391.2c-0.2-0.7,0-1.6-0.1-2.4c-1.2-10.8-2.4-21.6-3.5-32.4c-0.3-2.6-0.8-5.3-0.7-7.9c0.8-20.7,1.7-41.4,2.6-62.1
			c0-0.5,0-1.1,0-1.6c2.5-21.5,0.2-42.9-1.4-64.3c-0.9-11.1-1.5-22.3-1.7-33.4c-0.1-5,1.6-10.1,1.4-15c-0.7-13.7,2.3-27.6-0.9-41.2
			c-0.2-0.7,0.2-1.5,0.2-2.3c1.4-13.9-0.7-28.3,5.1-41.7c0.5-1.2,0.4-2.6,0.5-3.9c0.4-11.1,0.5-22.3,1.2-33.4
			c0.8-13.2-2.9-25.8-4.9-38.6c-0.3-1.9-1.4-3.6-2.9-4.4c-3.9-2.1-6.4-4.9-10.5-4.6c-13,0.8-26,0-39-0.6C894.2,0.7,884.7,2,875.1,2
			c-29.7,0-59.4-0.3-89.1-0.2c-12.4,0.1-24.8,1.1-37.3,1.4c-12.2,0.3-24.5,0.4-36.7,0.3c-10.1-0.1-20.1-1-30.2-0.9
			c-20.2,0.2-40.2-0.3-60.4-1.9c-16.1-1.3-32.3-0.5-48.5,0.1c-14,0.6-28,3.6-42,3.1c-26.3-0.9-52.5,1.2-78.8,0.5
			c-35.1-0.9-70.2-0.2-105.4-0.2c-2.4,0-4.8,0.1-7.2,0.2c-9.8,0.4-19.6,1.2-29.4,1c-18.4-0.3-36.7-1.2-55.1-1.7
			c-4.5-0.1-9,0.7-13.5,1c-13.2,0.8-26.5,2-39.7,2.3c-10.6,0.2-21.2-1-31.9-1.1c-7.2-0.1-14.4,1.2-21.5,0.9
			c-27.9-1.1-55.8-1.2-83.6,0.7c-4.2,0.3-8.5,0.1-12.8,0C45,7.4,37.6,8.4,30.9,6.7C14.4,2.5,2.5,16.8,0.5,30.7
			c-1.6,11.2,1.1,22.2,2.4,33.2c1.8,14.7,1,29.1-0.3,43.7c-0.9,10-1.6,20.1-2,30.2c-0.2,3.9,0.9,7.9,1.1,11.8
			c0.4,9.2,0.6,18.5,1,27.8c0.1,1.7,1.2,3.4,1.9,5.1c3.7,10.2,7.5,20.5,7.2,31.6c-0.3,13-0.8,25.9-1.1,38.9
			c-0.1,6.7-0.7,13.4,0.2,20c2.8,19.3,4.1,38.6,3.9,58c-0.1,12.2-0.9,24.4-1.1,36.5c-0.2,13,0.1,26,0.1,39c0,17.3,0.2,34.6-0.1,51.9
			c-0.2,11.6-0.7,23.3-1.6,34.9c-0.5,7.1-2.2,14.2-2.9,21.3c-0.8,7.4-1.8,14.9-1.4,22.2c1,16.9,3.3,33.8,4.2,50.8
			c0.7,14,0.1,28.1,0.2,42.2c0,9.3-2.1,18.6-1.9,28c0.1,7,7.6,11.8,14.3,12.5c11.5,1.1,23.1,0.2,34.6,1.3c2.4,0.2,4.8,0.6,7.2,0.3
			c9.4-1.4,18.8-1.1,28.2-2.4c7.1-1,14.2-1.6,21.4-2.2c4.5-0.3,9-0.3,13.5-0.3c9.5,0,19.1-0.3,28.5,0.4c12.4,1,24.6,3.8,37,4.3
			c19,0.8,37.9,4.3,57,1.9c8.7-1.1,17.7-0.4,26.2-2.2c21.8-4.6,43.8-4.1,65.8-5.3c10.6-0.6,21.3-0.6,31.9-0.9
			c5.3-0.2,10.5-0.5,15.8-0.6c11.9-0.4,23.9,0.3,35.6-1.2c13.8-1.8,27.5-1,41.2-0.4c7.4,0.4,14.8,1.1,22.2,1
			c14.8-0.2,29.5-1.8,44.3-1.3c17.1,0.6,33.9-2.6,50.8-3.6c15.3-0.9,30.4-3.5,45.8-3.4c20.3,0.1,40.3,2.5,60.4,4
			c19.6,1.4,39.2,3,58.8,4.2c6.9,0.4,13.8,0,20.7,0.1c28.1,0.5,56.3,1.6,84.4,1.3c11.5-0.1,23.1,1.1,34.7-1.8
			c12.2-3.1,25-3.6,37.5-5.5c5.5-0.8,10.8,0.3,16.3-0.6c6.6-1,10.5-3.4,10.9-10c0.5-8.7,0.9-17.5,1.1-26.3c0.1-4.8-1.1-9.6-0.8-14.3
			c1.1-16.6,0.7-34.2,2-50.8c0.4-5.3,0.5-10.6,0.6-15.9c0.4-16.5,1-32.9,1.2-49.4c0.2-16,0-32,0.2-48
			C960,425.4,963.6,408.2,958.4,391.2z M551.5,15c29.6-4,59.1-5.6,88.8-3.8c17.6,1.1,35.3,2.5,52.9,2.5c19,0,37.9-1.6,56.9-2.5
			c1.1,0,2.2-0.1,3.2,0c26.5,2.7,53,0.1,79.4-0.6c17.7-0.5,35.3-2.4,52.9-2.4c20.3,0,40.5,1.3,61.6,2.1c0.6,7.6,1.3,15.5,2,24.7
			c-10.6-7.9-20.9-3.4-31-2.2c-9.8,1.1-19.4,2.5-29.1-1.8c-10-4.4-20.7-3.5-30.8-0.4c-21.1,6.6-41.8,3.7-62.4-1.2
			c-8.1-1.9-15.7-2.2-23.5,0.8c-3.2,1.3-6.7,2.1-9.8,3.6c-9.8,4.7-19.8,3.8-29.8,1.1c-7.2-2-14.4-4.1-21.7-5.9
			c-5.8-1.4-11.6-1.2-17.3,0.9c-5,1.9-10.3,3.2-15.2,5.2c-9.5,3.9-18.3,0.7-27.4-2c-8.1-2.4-16.5-4.6-24.9-5.6
			c-4.6-0.6-9.5,1.1-14.2,2.1c-6,1.3-12,2.7-17.9,4.4c-9.3,2.7-18.2,1-26.5-3.1c-6.6-3.3-12.8-6.6-21.7-3.1
			C548.5,22.3,550,18.6,551.5,15z M569.6,40c13.4,8,27.7,4.6,41.2,0.3c13.8-4.5,26.8-3.2,39.8,1.9c12.4,4.9,25,6.9,37.3,0.4
			c13.4-7,26.4-4.1,39.6,0.1c1.5,0.5,3,1.1,4.6,1.6c11.9,3.7,23.5,4.1,35-1.7c10.2-5.1,20.7-5.7,31.9-2.9c10.3,2.6,21,3.7,31.6,4.7
			c9.4,0.9,18.5-1.7,27.5-3.9c11.2-2.7,22.1-3.6,33,1.2c9,4,18.3,2,27.5,0.6c9.8-1.5,19.5-3.2,29.3-0.3c6.7,15.1,0.7,30.5,0.9,46.7
			c-6-3.8-12-6.3-18.8-5.6c-5,0.5-10.1,1.1-15,2.5c-8,2.2-15.5,1.8-23.5-0.6c-15-4.6-30.3-6.1-45.9-3.4c-0.8,0.1-1.7,0.1-2.4,0.5
			C828.5,90,813.5,86,798.6,83c-6.6-1.3-13-3.1-19.5-4.6c-16.6-3.8-32.6-1-47.8,5.4c-8.2,3.5-16.1,3.6-24.3,1.7
			c-10.7-2.4-21.3-5.2-31.8-8.2c-5.6-1.6-11-1.3-16.4,0.7c-24.7,8.9-49.4,9.1-73.2-2.3c-7.2-3.5-13.7-2.9-20.9-1.8
			c-10,1.6-20.1,3.9-30.1,3.8c-7.2-0.1-14.3-3.8-21.4-6c-3.5-1.1-6.8-2.4-10.7-3.8c3.3-2.6,6.7-5.5,10.2-8.2
			c6.7-5.3,13.3-10.7,20.1-16c2.1-1.6,4.4-2.9,6.8-4C549.5,35,559.3,33.8,569.6,40z M260.1,135c8.1-0.7,16-1.3,24-2
			c2.4-0.2,4.6-1,7-1.4c1.5-0.2,3.2-0.7,4.5-0.3c12.2,3.4,24.2,2.2,36.4-0.4c7.6-1.6,15.1-0.9,21.5,5.2c8.9,8.5,20.3,10.1,32,9.4
			c2.3-0.1,4.5-1.6,6.6-2.7c4.5-2.4,8.9-5,13.9-7.8c5.4,5.1,11.3,10.1,16.4,15.8c5.1,5.6,9.6,11.8,14.1,18c1.2,1.6,1.7,3.9,2,6
			c1,6.8-0.8,13.2-2.9,19.5c-7.6,2-14.7,1.6-22-0.5c-6.5-1.8-13.1-1.9-19.6,1.4c-12.9,6.6-26.7,6.6-39.8,2.1
			c-15.8-5.5-31.5-5.5-47.5-2.8c-7.9,1.3-15.5,4.2-23.3,5.9c-11.4,2.4-22.9,3.6-33.9-1.3c-18-8.1-35.8-6.9-53.8-0.2
			c-16.8,6.3-33.7,4.5-50.5-0.2c-3.3-0.9-6.7-2-10-3c-8.1-2.5-15.7-1.8-23.1,2.7c-9.3,5.5-19.2,7.5-30,4.8c-3.8-1-8-1.1-11.9-0.6
			c-2.4,0.3-4.6,2.6-7.7,3.4c0.8-1.3,1.4-3,2.5-3.9c6-4.8,12.2-9.5,18.4-14.2c6.2-4.7,11.9-9.7,16.6-16.1c5.6-7.7,14.1-12.1,23-15.5
			c2.5-0.9,5.3-1.4,7.6-2.7c6.4-3.6,12.5-2.1,19.3-1c15.1,2.5,30.4,6.3,46.6-0.2c3.9,3.2,8.1,6.7,12.5,10.1c1.2,0.9,2.7,2,4,1.9
			c9.8-0.1,19.6-0.2,29.4-0.7c6.7-0.4,12.1-4,16.8-8.6C264.6,149.8,264.7,144.4,260.1,135z M65.9,215c2.8,0.3,6.4,0.2,8.4-1.3
			c3.4-2.6,6.7-2.7,10.3-1.7c11.3,3.2,21.6,0.6,31.6-5c6.8-3.9,14-4.6,21.6-2c11.7,4,23.6,6.8,36,7.4c10.7,0.6,20.6-3.2,30.6-5.7
			c4.9-1.2,9.8-2.9,14.8-3.7c7.5-1.2,15.2-1.3,22.2,1.8c21.3,9.3,42.3,5.9,63.5-0.2c15.9-4.5,31.9-4.7,48,1
			c14.6,5.2,29.5,4.4,43.9-1.5c5.4-2.2,10.4-3.4,16.3-2c4.9,1.2,10,1.3,15.1,1.6c3.4,0.3,6.2,0.2,9.3,3.1c2.3,2.1,7.1,1.5,11.4,2.2
			c-0.6,2.9-1.9,6.5-2,10.1c-0.1,3.9-0.2,8.5,1.7,11.5c5.2,8.2,9.9,17.1,17.7,23.5c1.7,1.4,3,3.5,5.6,6.5c-6.6,0-11.5,0.2-16.5,0
			c-7.9-0.4-15.6,0.4-22.9,3.3c-17.1,6.8-34.1,5.2-51.1,0.2c-11.9-3.5-24-5.9-36.4-4.9c-10.6,0.9-21.4,1.9-31.6,4.5
			c-34.6,8.9-68.7,8.8-102.7-3.1c-14.5-5.1-29.6-4.3-44.5-2.7c-12.7,1.4-25.4,3.5-37.9,6.3c-15.3,3.3-29.8,1.5-43.7-4.9
			c-7-3.2-13.6-4.1-20.8-1.2c-3.7,1.4-7.6,2.1-12.6,3.5c0-5.5-0.8-10.1,0.2-14.3c1.2-5.4,0.7-10.4-0.4-15.6c-0.3-1.5,0-3.2,0.2-4.8
			C51.5,218.5,57.4,214.1,65.9,215z M52.6,270.7c5-1.3,10.2-2.4,15.1-4.2c5.5-2,10.3-1.4,15.4,1c13.3,6.3,27.2,9.7,42.1,7.1
			c6.6-1.2,13.2-2.2,19.7-3.6c13.9-3.1,28-4.9,42.2-4.2c7.7,0.4,15.4,1.7,23,3.2c9.9,2,19.6,5.3,29.6,6.8
			c19.1,2.9,38.1,3.5,57.3-0.9c16.4-3.7,32.9-7.5,49.9-7.7c11.1-0.1,21.7,2.1,32.5,4.4c11.2,2.4,22.6,4.2,33.9,5
			c5.4,0.4,11.3-1.3,16.4-3.3c9-3.6,18.2-3.5,27.5-3.8c6.6-0.2,13.3,0.3,19.9-0.4c4.2-0.4,6.9,0.3,9.5,3.9c5.1,7,14.4,9.2,22.7,5.5
			c1.2-0.5,2.9-1.3,3.1-2.2c1-6.5,6.2-6.1,10.7-7.1c15.1-3.4,30.4-1.1,45.6-1.4c2.3,0,4.8,0.8,7,1.6c23.1,8.7,46.8,8.1,70.4,3.6
			c26.1-4.9,51.6-3.6,76.8,4.3c19.8,6.2,40.2,9.3,60.7,10.4c10,0.6,20.1-2.2,30.2-3.5c12.3-1.6,24.4-1.6,36.7,0.6
			c13.9,2.4,27.9,4.9,42,6.3c8.1,0.8,16.4-0.7,24.6-0.6c9.3,0.2,18.6,1,29,1.6c-4.6,18.3-2.1,36,0.9,54.5c-3.2-0.8-5.6-1-7.6-2
			c-7.4-3.9-15.4-3.9-23.4-4.4c-7.7-0.5-15.5-1.4-23.2-1.5c-5.3,0-10.7,0.5-15.9,1.7c-9.1,2.1-17.9,2-26.9-0.2
			c-9.6-2.4-19.3-4.3-29-6.5c-15.4-3.5-30.9-2.5-46.3,0.2c-10.3,1.8-20.3,0.7-30.2-1.5c-19.2-4.3-38.4-7.1-58.1-4
			c-6.3,1-12.8,2-18.8,4.1c-13.3,4.7-26.4,4.2-39.1-0.7c-8.4-3.2-16.7-3.5-25.2-2.9c-13.8,1-27.6,2.8-41.4,2.9
			c-17.8,0.2-35.1-3.4-51.8-9.7c-16-6-31.8-7.7-48.4-1.6c-7,2.6-14.9,3.9-22.8,2c-8.6-2.1-17.3-3.8-25.9-5.4
			c-14.9-2.9-29.2,0-43.3,4.8c-5.8,2-11.4,3.9-17.9,2.3c-9.3-2.2-18.9-3.4-28.2-5.3c-19.2-3.8-38.2-3.7-57.2,1.4
			c-10.6,2.9-21.3,5.4-31.9,8c-15.3,3.7-30.3,2-45.2-2.1c-7.7-2.1-15.5-4.5-23.3-5.8c-5.4-0.9-11.2-0.8-16.5,0.3
			c-10.7,2.3-21.2,5.8-31.8,8.4c-12.7,3-25.4,2.2-38-0.5c-9.9-2.1-19.9-4.1-29.9-5.6c-2.6-0.4-5.6,1.1-9.1,1.8
			c1.1-6.1,1.9-12.1,3.5-18c1.6-6.2,4.5-12.1,5.9-18.3C51.4,283.5,51.8,277,52.6,270.7z M945.3,145.8c-7.1,0-14.3,0.6-21.4-0.1
			c-15-1.6-29.7-2.1-44.4,2.7c-8.3,2.7-17.3,3.5-26.1,4.3c-3.8,0.3-7.8-1.4-11.7-2.3c-12.2-3-24.4-6.9-37.1-5.3
			c-10,1.2-20.1,3-29.9,5.5c-15.9,4.1-31.4,4.7-47.4-0.3c-10.9-3.4-22.4-5.5-33.7-6.9c-6.5-0.8-13.3,0.4-19.9,1.3
			c-10.6,1.5-20.7,5.4-31.6,4.7c-13.4-0.9-26.5-2.9-38.9-8.6c-11.3-5.2-22.9-5.7-35.1-2c-16.2,4.8-32.4,6-48.1-3.3
			c-8.7-5.1-18.2-5.9-27.5-0.6c-1.1,0.6-2.4,0.8-3.6,1.2c-7.8-16-8.8-31.6-1.8-47.6c1.2-2.9,2.7-4.9,6.1-5.6
			c2.8-0.6,5.5-2.1,8.2-3.1c3.7-1.4,7.2-0.7,10.9,0.8c6.7,2.6,13.6,4.7,20.5,6.8c2,0.6,4.2,0.8,6.3,0.5c11.1-1.4,22.3-2.7,33.3-4.7
			c4-0.7,7.2-0.1,10.7,1.5c14.3,6.6,29.3,10.6,45.1,9.7c10-0.6,20.1-2.8,29.8-5.3c6.4-1.7,12.2-2.8,18.8-1c12.6,3.4,25.5,5.8,38.2,9
			c5.7,1.4,10.6,0.1,15.5-2.1c17.7-8,35.6-10.3,54.6-4.8c10.9,3.2,22.4,4.7,33.8,6.2c7.7,1.1,15.4,0.1,22.8-2.9
			c4.6-1.9,9.8-2.9,14.8-3c12.6-0.4,25.2,0.9,37.1,5.3c7.1,2.6,13.6,1.4,20.4,0.1c7.9-1.5,15.6-4.3,23.7-1.9c3.6,1,7,3,9.9,4.2
			c-1.2,8.9-2.8,16.5-3.2,24.2C944,129.8,944.9,137.5,945.3,145.8z M518.4,143.6c17.2,9.4,34.7,9.8,52.9,4.3c9.9-3,19.5-2.9,29,1.1
			c15.5,6.5,31.6,10.4,48.4,9.6c6.9-0.3,13.9-1.4,20.5-3.2c15.2-4.1,30.1-2.6,45.1,1.3c10.6,2.8,21.3,5.4,32.2,6.5
			c7.5,0.8,15.4-0.7,23-2c8.4-1.4,16.7-3.9,25-5.6c13.7-2.8,27.2-0.6,40.5,2.6c1.8,0.4,3.7,0.6,5.5,1.2c13.3,4.5,26.5,2.1,39.4-1.7
			c14.8-4.3,29.5-4.7,44.5-2.3c3.1,0.5,6.4,0.1,9.6,0.1c3.7,0,7.4,0,11.9,0c0,22.3,0,43.1,0,64.1c-9.1,2.2-17.9,1.2-26.3-1
			c-13.4-3.4-26.6-1.6-39.8,0.7c-8.7,1.5-17.3,3.6-25.9,5.3c-12.9,2.7-25.4,0.7-37.9-2.8c-10-2.9-20.1-5.8-30.2-8.3
			c-17.2-4.2-34.5-2.8-51.7,0.6c-22.2,4.3-44,2.6-65.5-4.6c-10.3-3.5-20.1-9.1-31.4-9.3c-7.4-0.1-14.9-0.4-22.3,0.2
			c-8.2,0.6-16.4,2.7-24.6,3.2c-11.3,0.7-22.3-1.7-33.2-4.7c-6.9-1.9-13.9-4.6-21-5.2c-6.2-0.5-12.6,1.4-18.9,2.3
			c-1.8,0.3-3.5,1-5.2,1.5c-8.5-16.9-18.2-33.1-20.6-52.8C500,139.8,509.5,138.7,518.4,143.6z M930.7,282.5c-10.4,0-20.8,0.1-31.2,0
			c-3.5,0-7,0-10.4-0.5c-14.5-2.1-29-4.8-43.6-6.6c-13.1-1.6-26.2-1.4-39.2,1.7c-15.4,3.7-30.8,3.6-46.2,0.3
			c-20.9-4.5-41.6-9.8-62.6-14.1c-8.6-1.8-17.5-4.5-26.4-0.7c-16.5-2.1-32.1,4.1-48.4,5c-16.2,0.9-31.4-1.5-46.5-6.2
			c-1.5-0.5-3.1-1.1-4.6-1.2c-16.5-1.3-33-3.8-49.4,1.1c-0.4,0.1-1-0.2-2.4-0.5c5.1-18.2,3.3-36.1-3.5-54.1
			c5.5-3.4,11.8-3.7,17.6-3.7c6,0,12.4,1.3,18,3.4c21.1,7.8,42.4,7.3,64,3.5c12.7-2.2,25.1-0.3,37.1,3.8c20,6.8,40.2,12.5,61.6,12.4
			c5.6,0,11.3-0.4,16.7-1.6c26.6-6.3,52.5-3.8,78.1,5c7.1,2.4,14.6,3.3,21.8,5.2c8.6,2.2,16.9,0.7,25.4-0.8
			c14.5-2.6,28.9-5.3,43.5-7c6.5-0.8,13.4,0.1,19.9,1.5c8.7,1.9,17.3,3,26.5,0.9c7,17.9,1.7,35.4,0.3,53
			C941.2,282.5,935.9,282.5,930.7,282.5z M21.8,394.8c0-10.7-0.9-21.5,0.2-32.1c1.8-18.3-0.1-36.3-1.6-54.4
			c-0.8-9.9,0-19.9-0.9-29.7c-1.3-14.5,0-28.8,2-43.1c0.4-2.9,0.2-5.9,0-8.8c-0.4-8.3-0.6-16.6-1.5-24.8c-0.5-4.4-1.6-9-3.4-13.1
			c-4-8.8-5.3-17.9-5.1-27.4c0.3-15.5,0.3-31.1,0.6-46.6c0.2-9.4,0.6-18.7,0.8-28.1c0.1-3.5-0.1-6.9-0.4-10.4
			c-1.4-16-3.1-31.9-4.1-47.9c-0.6-9.3-0.2-10,9.2-11.5c8.1-1.3,16.5-1.1,24.7-1.3c20.3-0.6,40.7-1,61-1.4c1.1,0,2.1-0.2,3.2-0.2
			c28.9-0.6,57.9-1.5,86.8-1.5c21.9,0,43.9,0.5,65.8,2.3c19.2,1.6,38.4,3.1,57.6,2.5c21.7-0.7,43.4-0.3,65-1.9
			c22.7-1.7,45.4-3.2,68.2-3c22.2,0.3,44.5,0.2,66.7,0.6c6.6,0.1,13.1,1.2,20.4,1.9c-6.1,15.1-16.2,25-30,31.5c-2.4,1.1-5,2-7.3,3.4
			c-2.2,1.4-5,2.8-6.1,4.9c-6.5,12.5-16.2,23.4-20,37.4c-3.4,12.3-4,24.5,0.9,36.8c3.1,7.9,4.7,16.3,7.3,24.4
			c1.5,4.8,3.5,9.4,5.5,14c1.6,3.6,3.7,7,5,10.8c4,11.3,7.1,23,11.7,34.1c4.9,11.9,6.1,23.7,3.5,36.1c-1.1,5.2-2,10.5-3,15.8
			c-1.2,5.8-3.1,7.8-7.4,8c-4,0.2-5.7-1.7-7.3-7.8c-0.1-0.5-0.4-1-1-2.2c-7.9-0.2-12.7-6.3-17.6-11.8c-5.7-6.4-11-13.1-15.9-20
			c-1.3-1.8-1.3-4.9-1.2-7.4c0.2-3.2,1.4-6.3,1.5-9.5c0.1-2.9-0.2-5.9-1.2-8.6c-2-5.1-4.5-6.3-10.7-5.9c0.5-1.9,0.9-3.6,1.3-5.4
			c2.2-7.9,2.2-15.7-0.5-23.6c-1.8-5.4-1.6-11.8-8.7-14.1c-1.2-0.4-1.6-2.7-2.7-3.8c-8-8.2-15.8-16.5-24.2-24.3
			c-6.1-5.7-12.8-3.5-19.1,0.3c-3.2,1.9-6.3,4-9.6,5.8c-4.6,2.4-9,2.6-13.3-1.3c-3.5-3.2-7.8-5.6-11.5-8.6
			c-4.1-3.2-8.1-5.7-13.7-5.4c-4.2,0.2-8.5-1.1-12.8-1.2c-3.7-0.1-7.9-0.5-11.1,1c-5.9,2.7-12,2.8-18.1,2.8
			c-12.2,0.1-24.3,1.7-36.7,1.3c-10.5-0.3-21.1,0.3-31.7-0.3c-2.6-0.1-5.8,1.4-7.8,3.1c-4.9,4.2-3.5,11.2,2.7,13.2
			c3.4,1.1,7.3,1.1,11,1.2c4.5,0.2,9.1-0.8,12.7,2.9c-5,9-5,9-13.9,8c-1.4-0.2-3,0.5-4.4,0.8c-3.9,1-7.7,2.5-11.6,3
			c-5.7,0.6-11.4,0-15.1-5.4c-4.6-6.7-11-6.3-17.9-5.5c-3.9,0.5-7.9,0.3-11.8,0c-11.1-1-22-4-33.4-3.5c-14.4,0.7-26.9,5.3-37.7,14.8
			c-4.2,3.7-9.1,6.4-13.8,9.6c-1.3,0.9-2.8,1.6-4,2.6c-8.2,6.8-16.4,13.7-24.5,20.6c-0.8,0.7-1.5,1.7-2.5,2
			c-15.6,5.9-19.4,20.7-24.2,34c-2.1,5.9-0.8,13.1-0.3,19.7c0.5,6.9,2.2,13.7,2.6,20.6c0.2,4.1-0.5,8.5-1.8,12.5
			c-4.6,14.9-8.1,29.9-8.1,45.6c0,6.4-0.6,12.8-1.1,19.2c-1.1,14.3,1.2,28.1,4.4,42.1c6.1,26.8,16.6,51.9,29,76.3
			c3.6,7.1,8.9,11.8,16.3,14.6c2.8,1,5.6,3.1,7.6,5.3c5.1,5.7,10.8,9.7,18.5,11.9c7.8,2.2,15.7,4,23.5,6.4
			c5.2,1.6,10.5,1.3,15.7-0.5c3.5-1.2,7.3-1.4,10.9-2.2c10.6-2.3,21.2-4.8,31.9-7c2.5-0.5,5.4-0.6,7.9-0.1c8.5,1.6,8.5,1.7,15.9-3.3
			c0.7,0.7,1.8,1.3,2,2.2c2.3,9.7,4.6,20.2-2.3,28.3c-6.7,7.9-2.8,17.3,6.1,20.2c0.8,0.2,1.6,0.4,2.3,0.7c3.2,1.5,6.8,2.7,6.4,7.1
			c-0.4,4.5-5.2,8.8-9.7,9.1c-1.9,0.1-3.8,0.2-5.6,0c-7.9-0.9-13,3-15.6,9.9c-3.9,10.8-7.1,21.8-10.8,33.1
			c-6.6-1.6-11.4-6.7-16.5-11.4c-9.8-9.1-19.3-18.6-29.5-27.1c-7.4-6.2-15.9-9.7-26.5-8.2c-10.9,1.6-21.6,2.8-31.8,7.6
			c-2.8,1.3-6.2,2-9.3,2.1c-12.8,0.4-25.5,2.5-38.4,0.1c-7.3-1.4-9.5-4.1-10.8-11.3c-3.9-22.3-0.9-44.3,2-66.3
			c0.8-6.1,1.3-12.2,1.3-18.4C21.9,439.8,21.8,417.3,21.8,394.8z M337,420.6c-0.2-1.5,0-3.1,0-4.7c3-1,5.5-1.9,7.9-2.8
			c5.5-2,11-1.9,16.3,0.5c7.5,3.3,15.2,4.4,23.4,4.7c9.5,0.3,19,1.4,28.5,0.3c6.9-0.8,13.8-1.8,20.5-3.6c7.2-1.9,13.7,0,20.5,1.3
			c7.3,1.4,14.7,2.6,22.1,3.3c6.7,0.7,13.4-0.3,19.7-3c12.4-5.4,24.7-2.8,36.9,0.6c10.7,3,21.7,2.7,32.6,2.4c1.7,0,3.5,0.2,5.1,0.8
			c4.9,1.7,9.7,3.7,14.8,5.7c-0.3,0.3-0.9,1.4-1.8,2c-3.7,2.2-3.9,5.7-3,9.2c1,4,4.6,5.2,8.1,5.3c6.4,0.2,12.9-0.3,19.3-0.4
			c9.3,0,18.5-0.3,27.8,0.3c4.7,0.3,9.2,2.9,13.9,3.5c9.8,1.1,19-2,27.2-6.9c6.2-3.7,6.9-8.3,4-15c-0.4-0.9-0.7-1.9-1.3-4
			c3.8,0,6.9-0.4,9.9,0.1c16.4,2.6,33,3.7,49.6,3.2c8.1-0.2,15.8-1.1,23.5-4.2c5-2,11-2.7,16.4-2.1c9,1,17.9,3.1,26.6,5.7
			c20.3,5.8,40.7,7.8,61.6,3.9c13.2-2.4,26.5-3,39.9-0.9c7.1,1.1,14.5,0.3,21.7,0.6c7.1,0.3,14.2,0.9,21.3,1.4c0,27.4,0,54.3,0,82.1
			c-2.7,0.1-5.6,0.4-8.4,0.4c-12.8,0-25.7-0.2-38.5,0.1c-9.8,0.2-19.2-1.2-28.5-3.9c-18.5-5.4-37-5.2-55.5-0.9
			c-9.9,2.3-19.7,1.6-29.5,0c-5.8-1-11.5-2.2-17.6-3.4c1.4-5.5,4.4-7.2,9.4-7c4.2,0.2,8.5-0.5,12.7-0.9c7.4-0.7,14.9-1.4,22.3-2.5
			c6.8-1,13.5-2.3,20.2-3.8c4.6-1,6.9-5.3,5.9-9.9c-1.5-6.6-5-12.1-10.9-15.2c-7.8-4-15.9-7.6-24.1-10.7
			c-7.6-2.9-14.7-5.3-18.9-13.5c-2.6-5-8.1-7.2-14.3-7.5c-8.9-0.5-17.3,0.3-26,3.4c-7.8,2.8-16.5,3.3-24.8-1.2
			c-7.6-4.1-15.6-3.4-22.9,1.3c-7.6,4.8-7.5,15.8,0,20.7c1.8,1.2,3.7,2.1,5.5,3.2c6.8,4.2,5.7,11.3,6.5,18.4c-5.3-1-10.4-2-15.5-2.9
			c-6.9-1.3-13.8-1.7-20.6,0.6c-6.2,2.2-8,5-7.1,10.7c0.9,5.7,4.8,9.6,10.2,9.7c14.4,0.3,28.8,0.4,43.2,0.4c2.4,0,4.7-0.8,7.1-1.2
			c4.8-0.8,5.5-0.2,7.8,5.9c-15.7-1.3-30.9,1.6-46.3,3c-13.4,1.2-26.8,0.5-38.6-7.6c-1.8-1.2-4.5-1.3-6.9-1.4
			c-2.4-0.1-4.8,0.3-7.1,0.8c-7.6,1.5-13.1-0.4-19-6.5c-5.5-5.7-13.4-10.1-23.1-7.7c-4.4,1.1-9.6-0.1-14.2-1.3
			c-4.6-1.3-8.8-1-13.2,0.5c-1.8,0.6-3.9,0.2-5.8,0c-1.3-0.1-2.6-0.7-3.8-1.2c-8.3-3.5-16.8-4.7-25.7-2.1
			c-7.3,2.1-14.8,1.7-22.1-0.9c-2-0.7-4.2-0.7-6.3-1c-4.5-0.5-9-1-14.6-1.7c6.4-8.3,4.8-22.8-0.4-23.5s-10.2-0.7-15,2.2
			c-3.5,2.1-5.1,4.9-3.9,8.7c1.5,4.8,3.6,9.4,5.8,15.2c-2,0.9-4.5,3.2-6.9,3c-11.1-0.7-22.4,0.7-33.3-2.9c-11-3.6-22-3.4-33.2-0.7
			c-6.7,1.6-13.7,2-20.6,2.9c-9.6,1.2-18.7-1.6-27.6-4.3c-10.7-3.2-21.3-4.7-32.3-2.6c-1,0.2-2.1,0.2-4.2,0.3
			c-1.1-6-2.5-11.9-3.1-17.9c-0.4-4.6,1.9-7.9,6.5-9.9C332.6,439.4,338.7,432.4,337,420.6z M440.8,390c2.5,5.6,1.1,10-3.2,11.1
			c-4.3,1.1-3.5-7.3-3.8-8.3C432.3,386.8,438.3,384.4,440.8,390z M462.5,357.4c-9.2-0.4-18,1.3-26.5,5.2c-4.9,2.2-10,3.9-14.8,6.1
			c-3.3,1.5-6.6,3.4-9.7,5.3c-4,2.5-7.5,5.9-14,5.2c8.3-10.1,15.7-19.4,28.3-22.5c2.3-0.6,4.4-2,6.6-3c11.5-5.4,23.4-8,36.4-6.5
			c9,1,17.9,2.2,26.7,4.6c6.1,1.7,12.7,1.1,19.1,2c2.7,0.4,5.7,1.4,7.8,3c4.4,3.4,8.1,7.6,12.4,11.1c1.7,1.4,4.2,2,6.5,2.3
			c4.5,0.7,9.4,0.1,13.4,1.8c5.6,2.3,10.6,6,15.7,9.3c2.5,1.6,4.7,3.5,7,5.4c5.3,4.6,10.9,8.6,17.9,10.3c1.8,0.4,3.4,1.5,5.1,2.2
			c4.2,1.5,8.4,3,12.7,4.4c1.5,0.5,3.1,0.9,4.6,1.4c5.3,1.5,10.6,3.1,16.7,4.9c0.3,2.8,0.6,5.9,0.9,8.7c11.4,3.3,22.2,6.3,33,9.4
			c-4.3,1.9-8.4,2.4-9.8,7.6c-0.3,1.1-3.1,2.2-4.6,2.1c-4-0.2-8.2-0.4-11.7-1.9c-7.2-3-14.4-3.3-22-2.7c-9,0.7-18,0.9-27.7,1.3
			c1.1-2.4,2.1-4.4,2.8-6.5c2-5.5-0.1-9.5-5.7-11c-1.5-0.4-3.2-0.7-4.8-0.5c-7.1,0.8-12.4-2.3-17.1-7.2c-1.5-1.5-3.4-2.6-5.1-3.9
			c-2.1-1.5-3.1-3.1-2.4-6.1c1.5-6.3-0.5-9.4-6.8-11c-2.3-0.6-4.8-0.3-7.1-0.5c-5.2-0.4-10.6-0.4-15.7-1.5
			c-12.3-2.4-24.5-4.9-36.6-8.2c-8.6-2.3-16.8-6-25.3-9.1c0.3-2,0.6-3.1,0.7-4.1C469.5,359.6,467.8,357.7,462.5,357.4z M691.5,402.1
			c3.3-1.3,4.3-0.3,7-1c2.7-0.6,3.3-4.7,5.7-5.4c2.3-0.7,3,0.7,4.8,2.3c1.8,1.7-1.5,3.3-4.8,4c-3.3,0.7-6,3.3-8,4.3
			S688.7,403.2,691.5,402.1z M743.8,448.2c1.5-3.9,6.7-3.9,10.2-5.5c2.1-0.9,4.6-1.5,7-1.4c5.3,0.2,10.6,0.8,15.9,1.5
			c4.7,0.6,9.2,2.6,10.6,7.2c2.6,8.2,9.5,10.2,16.1,12.7c7.2,2.7,14.7,4.7,22.1,7c4.1,1.3,7,3.7,7.1,9.7c-3.1,1-6.4,2.6-9.9,3.1
			c-11.3,1.5-22.7,2.8-34.1,3.8c-7.1,0.6-14.2,0.8-21.3,1.1c-4.1,0.1-6.9,1-8.4,5.6c-1.4,4.2-3.8,4.9-9.9,5.2
			c-1.5-7.1-2.9-13.6-4.1-20.1c-0.3-1.7-0.1-3.7,0.4-5.4c0.7-2.5,1.9-4.9,2.8-7.4C751.8,455,742.2,452.1,743.8,448.2z M741,491.1
			c-5-6.1-10.3-6.1-16-4.8c-0.9,0.2-1.7,0.2-2.7,0.2h0c-4,0.8-7.3,0.9-10,0.8c-0.4,0-0.8-0.1-1.3-0.1c-11.3,0.3-22.8,0.1-35.2-1.6
			c6.7-4.9,13-3.9,19-3.3c7.5,0.8,13.9,1.7,18.9,1.7s7-0.5,8.5-1.5c5.3-3.5,5.6-5.8,1.6-11c-3.5-4.5-6.2-9.7-10-13.9
			c-3.8-4.2-8.5-7.7-13.3-11.9c5.3-3.1,9.9-4,15.4-1.8c5.6,2.2,14.5,4,18.8,5.3s6.3,6.8,7.3,9.4s-3.5,9.5-3.8,14.8
			C738,478.7,739.8,484.2,741,491.1z M613.4,497.1c-6.6,1.8-12.6,3.5-18.6,4.9c-1.4,0.3-3.1-0.4-4.5-1c-3.8-1.6-7.5-3.7-11.4-5.1
			c-1.2-0.5-3.1,0.2-4.4,0.8c-3.6,1.5-5.4-0.3-7.3-3.4c2.9-3.4,5.3-6.7,9.6-6c11.2,1.7,22.9,0.9,33.3,6.5
			C611.4,494.5,612.2,495.8,613.4,497.1z M483.6,469.7c-7.5,0-7.3-12.3-0.4-12.1C486.3,457.7,491.1,469.7,483.6,469.7z M322.4,425.8
			c-2.8,3.1-6.2,6.1-9.9,7.9c-7.8,3.7-10.1,9.8-9.3,17.7c0.7,8,1.6,15.9,2.4,23.9c0.7,7.9-2,14.3-9,18.1c-3.6,1.9-5,4.7-5.5,8.2
			c-0.4,2.4-0.2,4.8-0.2,7.2c0,9.4-0.7,18.4-5,27.3c-3.4,7.1-4.8,15.1-10.5,21.4c-2.9,3.2-1.1,7,2.6,10.2c-5.5,4-6.3,9.4-7.6,14.6
			c-2,8-5.1,14.9-13.4,18.9c-3.5,1.7-5.7,6.1-8.3,9.5c-1.1,1.4-1.6,3.3-2.2,4.9c-20.4,0.5-38.6-5.5-55.9-15.4c0-1.7-0.3-3.1,0-4.3
			c2.3-8.5,4.4-17.1,7.3-25.4c3-8.5,7.1-10.7,16-9.8c6.4,0.6,11.2-2,14.2-8c4-7.9,3.9-12.3-1.7-17.4c-4-3.7-8.9-6.5-14-10.2
			c6.7-7.7,6.8-17.7,7-27.8c0.1-5.2-1.6-9.2-4.3-13.4c-3.7-5.7-2.8-7,2.9-10.8c3.4-2.3,6.1-5.7,8.8-8.8c1.7-2,3-4.3,4.3-6.6
			c1-1.8,2.1-3.7,2.6-5.7c1.6-7.6,2.9-15.2,4.4-22.8c0.2-1,0.5-2.1,0.8-3.1c1.2-4,1.3-8.9,3.8-11.7c4.5-5.1,9.9-9.4,17.4-10.5
			c10-1.5,19.8-4.2,29.6-6.2c6.4-1.4,12.1,1.1,17.8,3.5c3.7,1.5,7.4,3.1,11.2,3.9c3.1,0.7,4.8,2.2,5.7,4.9
			C326.6,415.6,326.6,421.3,322.4,425.8z M20.2,563.3c12.2,4.4,24.1,6,36.7,4.4c7.1-0.9,14.2-0.6,21.1-2.9c2.8-0.9,5.6-1.6,8.3-2.7
			c9.8-4,20.3-5.4,30.6-5.1c5.9,0.1,12.6,3.4,17.4,7.3c4.5,3.7,8.8,7.6,13,11.7c-11.9,3.1-24,0.9-35.9-1.3c-6-1.1-12.1-2.6-18.2-2.9
			c-21.1-1-42.2-1.6-63.2,2.4c-3,0.6-6,1-9.1,1.3c0-2.5,0.1-4.9,0.1-7.4C21.2,566.6,20.6,565,20.2,563.3z M20.9,585.4
			c3.7-0.4,7.3-1,10.9-1.7c20.5-4.2,41-3.7,61.5-1.8c12.5,1.1,24.9,3.6,37.4,4.4c6.8,0.5,13.9-0.2,20.5-2c1.1-0.3,2.2-0.6,3.3-0.8
			V583c2.2,2.2,4.4,4.4,6.5,6.7c7.5,7.6,16.3,13,25.8,17.6c9.9,4.8,19.7,9.8,30.1,13.2c8.3,2.7,17.3,3.5,26,4.1
			c6.9,0.5,13.3,2,18.9,5.7c10.8,7.1,22.5,9,35.1,7.2c3-0.4,6.1-0.7,9.2-0.5c-7.7,0.4-15.4,1.2-23.2,2.3
			c-14.8,2.1-29.9,4.2-44.7,3.4c-15.6-0.9-31-5.1-46.5-8.1c-8.1-1.6-16.2-3.7-24.3-5.2c-7.9-1.4-15.4,1.4-22.9,3.3
			c-22.8,5.8-45.4,6.9-68-0.8c-7.9-2.7-15.9-2.3-23.8-0.5c-10.8,2.5-21.8,4-32.7,5.1C20.3,619.4,20.6,602.4,20.9,585.4z
			 M254.5,617.5c2-2.6,3.3-4.9,5.1-6.6c4.1-3.7,8.6-3.3,14.4,0.9c4.2,3.1,2.2,6.4,0.8,9.9c-0.7,1.7-1.3,3.4-2.1,5.6
			C266.5,624,260.9,621,254.5,617.5z M293.3,628.1c-3.7,0.4-7.3,0.8-12.2,1.3c6.8-13.4,2.4-22.1-8.5-26.8c1.9-6.2,3.7-11.4,5.1-16.6
			c3.2-11.3,13.4-18,25.2-16.7c1.3,0.2,2.7,0.3,4,0.1c9.9-1.4,19.9-2.5,29.7-4.5c5.7-1.1,10.8-1.5,16.5,0.2c8.2,2.4,16.6,3.4,25.3,2
			c7.3-1.2,15-1.1,22.5-0.8c7.4,0.4,12.7,5.4,17.6,10.4c2.9,3,1.1,7.4-3.4,8.6c-9.4,2.6-26.6,1.3-33.1,3.4c-6.5,2-5.3,7.5-8.6,12
			c-3.6,5-8.3,7.9-15,7.6c-4.2-0.2-8.7,0.3-12.6,1.8c-2.6,1-5.4,3.9-6.3,6.6c-3,8.8-10,13.6-17.3,18.8
			C314.2,626.2,303.8,627,293.3,628.1z M243.8,401.1c-1.8,1.6-3.9,2.9-5.4,4.7c-2.1,2.3-4.7,4.7-5.4,7.5c-1.7,6.7-2.1,13.7-3.5,20.4
			c-2.1,9.8-4.9,19.5-10.9,27.6c-4.2,5.7-12,10.4-19.3,5.7c-11.8-7.7-24.8-5-37.4-4.3c-4.5,0.3-8.9,1.9-13.4,2.3
			c-9.1,0.7-18,0.6-26.8-3c-5.9-2.4-12.3-3.6-18.6-4.7c-3.2-0.5-6.8,0.3-10.1,1.1c-4.3,1-8.5,2.6-12.8,4
			c-13.9-5.8-17.9-19.1-22.6-31.5c-4-10.7-6.6-21.9-9.7-32.7c10.1-7.9,20.6-8,30.9-2.3c14.8,8.2,30.5,9.5,46.6,6.8
			c8.4-1.4,16.5-4.4,24.9-5.9c11.9-2.1,23.6-2.6,35.5,1.8c8.1,3,17.1,4.2,25.8,5.2c12.8,1.6,24.8-2.2,36.9-7.1
			C246.8,398.3,245.3,399.7,243.8,401.1z M194.2,475.8c-2.1,0.6-3.9,1.4-5.9,1.7c-10.3,1.2-20.7,2.1-30.9,3.6
			c-6.1,0.8-12,2.6-18,3.7c-5,1-10,1.9-15,2.4c-2.3,0.2-5,0.1-7-0.8c-9.4-4.3-19.7-7.2-26.8-18c3.6-0.7,6.7-2,9.6-1.7
			c5.8,0.6,11.8,1.2,17.2,3.3c13.1,5,26.2,6.5,40,3.3c10.5-2.4,21.2-2.2,31.8-0.3c1.3,0.2,2.5,0.8,3.7,1.3
			C193.3,474.4,193.5,475,194.2,475.8z M307.7,654.7c-8.8,1-19,2.5-29.3,3.1c-18.4,1.1-36.8,1.6-55.3,2.4
			c-10.2,0.5-20.3,1.3-30.5,1.5c-7.2,0.2-14.5,0.3-21.5-0.9c-20.7-3.5-41.4-4.9-62.4-4.5c-6.4,0.1-12.8-1.2-19.2-0.8
			c-8,0.5-15.9,2.2-23.8,3.1c-6.1,0.7-12.2,1.1-18.3,1.3c-6.7,0.2-13.4,0.1-20.1,0.1c-2.6,0-5.2,0-9.1,0c0.5-5.3,0.9-9.5,1.3-13.6
			c10.8-1,21.5-2.6,32.1-5.3c7.9-2,16.1-2.5,24.5,0.2c23.9,7.8,48.1,6.5,71.9,0c12.5-3.4,24.2-1.6,36.3,0.9
			c18.3,3.7,36.7,7.2,55.1,10c6.2,1,12.8,0,19.1-0.7c11.7-1.2,23.3-3,35-4.2c6-0.6,12-1.1,18-1.2
			C310.4,648.7,309.1,651.5,307.7,654.7z M420.2,608.5c-2.1,4.8-2.4,9.6-1.5,14.9c2.2,12.7,1.3,16-5.1,25.8
			c-32,1.2-63.5,2.4-95.5,3.6c0.9-1.3,1.6-2.9,2.8-3.9c5.3-4.5,10.7-8.9,16.3-13.1c4-3,7-6.6,8.5-11.4c1.4-4.7,4.3-7.1,9.4-6.9
			c2.4,0.1,4.8-0.8,7.1-0.7c7.7,0.1,13.3-3.3,17.6-9.4c2.4-3.5,4.6-7.2,7.3-11.6c5.9,0,11.8,0.3,17.6-0.1c5.8-0.4,11.5-1.5,17.5-2.3
			C423.2,598.4,422.3,603.6,420.2,608.5z M924.9,647.5c-11.4-0.5-22.9,0.3-34.4,0.8c-12.6,0.6-25.1,1.1-37.7,2.3
			c-31.3,2.9-62.6,1.6-93.9,1.4c-24.1-0.2-48-2.9-71.9-5.8c-23.9-3-48-3.3-72-0.8c-21.8,2.3-43.6,4.7-65.4,6.4
			c-18.4,1.5-36.8,2.7-55.3,2.9c-12.8,0.2-25.6-1.6-38.4-2.3c-4.8-0.3-9.7-0.1-14.5-0.2c-3.9-0.1-7.9-0.5-12.3-0.8
			c0.8-4,1.4-7.4,2.1-10.8c0.2-0.7,0.7-1.8,1.3-1.9c6-1.5,10.6-6.7,18-5.3c11,2,22.3,3.1,33.5,3.5c8.2,0.3,16.5-0.9,24.7-1.4
			c18.4-1,36.8-2.3,54.8-6.9c7.9-2,16.1-2.5,24.5,0.2c23.9,7.8,48.1,6.5,71.9,0c12.5-3.4,24.2-1.6,36.3,0.9
			c18.3,3.7,36.7,7.2,55.1,10c6.2,1,12.8,0,19.1-0.7c11.7-1.2,23.3-3,35-4.2c13.3-1.4,26.6-1.9,40-0.3c17.2,2,34.5,4.7,51.8,5.6
			c12.4,0.6,24.9-1.3,37.4-2.1c4.8-0.3,9.5-0.6,15.2-1c0.3,3.1,0.6,5.9,0.9,9.2C941.4,646.1,933.3,647.9,924.9,647.5z M948.8,628.3
			c-7.7,0.4-15,1-22.3,1.1c-12.5,0.2-25.1,0.6-37.6,0c-12-0.6-24-2-35.9-3.6c-19.5-2.7-38.8-1.7-58.3,1c-14.8,2.1-29.9,4.2-44.7,3.4
			c-15.6-0.9-31-5.1-46.5-8.1c-8.1-1.6-16.2-3.7-24.3-5.2c-7.9-1.4-15.4,1.4-22.9,3.3c-22.8,5.8-45.4,6.9-68-0.8
			c-7.9-2.7-15.9-2.3-23.8-0.5c-21,4.8-42.3,5.9-63.6,7.8c-16,1.4-31.5-0.1-47.1-1.9c-9.8-1.1-9.8-1-21.1,3.7
			c-3.4-3.2-0.9-6.5,0.4-9.4c4.5-10,5.4-20.3,1.9-30.5c-2.5-7.2-6.6-13.9-10.1-21c11.8-4.8,24.1-2.3,36.4,1.2
			c6.9,2,13.9,3.9,20.9,5.7c12.8,3.3,25.4,2.2,37.8-2.2c16.9-5.9,34-5.5,51.4-1.8c6,1.3,12.2,1.7,18.3,2.1c8.8,0.6,17.6,1,26.3,1.4
			c9.3,0.4,18.5-0.1,27.7-2.5c12.5-3.3,24.9-0.5,37.3,2.1c6,1.3,12,3,18.1,3.5c21.1,1.7,42.1,2.9,63.2-0.5
			c12.2-1.9,24.5-1.9,36.5,1.6c14,4.1,28.3,4.6,42.9,4.4c16.1-0.3,32-1.3,48-2.7c6-0.6,12.2,1,18.2,2c5.3,0.9,10.4,2.3,15.7,3.4
			c4.9,1.1,24.8,2.3,27.4,3.4C950.3,601.7,949.6,614.7,948.8,628.3z M949.5,574.1c-10.8,1.6-21.1,3.5-31.2,0
			c-15.7-5.4-31.6-3.6-47.6-2.5c-23.7,1.7-47.5,3.8-70.9-3.3c-12.8-3.9-26-3.5-38.9-1.2c-20.6,3.6-41.1,2.4-61.5-0.1
			c-12.4-1.5-24.7-4.3-37.2-5.6c-6.8-0.7-13.9-0.3-20.5,1.4c-13.6,3.3-27.2,2.8-40.7,1.4c-15.4-1.6-30.7-4.3-46.1-5.8
			c-12.9-1.2-25.8,1-37.9,5.3c-15,5.3-29.3,4-44-0.2c-8.7-2.5-17.5-5-26.4-6.5c-5.2-0.9-10.7-0.2-16,0.3
			c-10.2,0.9-20.3,2.1-30.7,1.1c-7.9-0.8-16-0.4-23.9,0.6c-8.2,1-16.1,0.4-23.7-2.1c-7.1-2.3-13.6-1.5-20.4,0.4
			c-13.1,3.8-26.5,3.4-41.2,2.9c8.1-15.2,8.7-31.1,10.6-46.7c0.5-4,2.1-6.7,5.6-9.1c11.9-7.8,11.8-7.9,14.5-22.8
			c10.4-3.6,20.7-2.1,31.1,1c11.3,3.4,22.6,6.8,34.6,5.1c6.9-1,13.9-1.6,20.5-3.4c9.5-2.6,18.6-1.5,27.6,1.2
			c12,3.5,24.2,3.2,36.3,3.1c4.7,0,9.7-1.5,13.8-3.7c3.4-1.8,6.2-1.5,9.7-1.4c12.3,0.1,24,6,36.4,3.9c1.8-0.3,3.9,0.1,5.5-0.6
			c8.3-3.6,15.6,0.2,21.4,2.2c3.1,5.2,4.8,9.4,7.7,12.6c1.9,2.1,5.7,4.1,8.4,3.7c7-1,12.3,1.3,17.1,6c1.1,1,2.8,2.2,4.1,2.1
			c11.9-0.7,23.7-0.2,34.9-6.8c5.9-3.5,14.4-5.5,21.9-1.1c13.9,8.1,28.9,8.6,44.3,6.8c16.2-1.8,32.4-4.2,48.7-1
			c0.5,0.1,1.1,0.3,1.6,0.1c14.4-4.5,28,1.3,41.8,3.8c12.3,2.1,24.4,1.7,36.6-0.7c15.4-3,30.7-2.7,46,1.2c11.7,3,23.4,4.8,35.7,4
			c14.1-0.9,28.3-0.2,43.7-0.2C950.5,538.7,950,556.2,949.5,574.1z M951.6,417c-7,0-13.3,0.2-19.7,0c-10.7-0.4-21.4-0.6-32-1.7
			c-11.4-1.2-22.5,0.1-33.6,2.1c-19.6,3.5-38.7,1.7-57.8-3.8c-9.2-2.6-18.7-4.8-28.2-6c-5.4-0.7-11.7-0.5-16.5,1.6
			c-10,4.5-20.2,4.8-30.7,4.6c-8.3-0.1-16.6-0.3-24.9-0.6c-1.8-0.1-3.6-0.7-6.2-1.3c1.6-2,2.9-3.5,4.1-5.1c0.4-0.1,0.9-0.5,1.4-0.5
			c8.4,0.9,10-1.1,6.7-8.5c-0.8-1.7-1.6-3.4-2.7-4.9c-2.6-3.8-5.9-4.2-9.5-1.8c-3,2-6.1,4.1-9.5,5.4c-6.9,2.6-7.5,3.3-5.9,10.2
			c0.3,1.3,1,2.4,1.8,4.1c-1.4,0-2.8-0.4-3.7,0.1c-11.4,5.5-22.4,2.5-33.4-1.3c-2.3-0.8-4.7-2.5-6.1-4.4c-2.9-3.9-6.4-5.7-11.2-6.7
			c-8.9-1.8-17.6-4.7-26.2-7.5c-2.9-1-5.5-3.1-8.2-4.9c-11.4-7.5-22.8-15-34-22.7c-6.5-4.5-13.2-6.9-21-4.8
			c-4.4,1.1-8.3-0.3-10.5-3.9c-7.5-12.1-19.3-14.2-32-14.7c-1.9-0.1-3.8-0.3-5.6-0.7c-12.5-3.2-25.1-3.8-38-3.2
			c-12.6,0.6-24.2,3.8-35.4,9.4c-1.2,0.6-2.6,0.9-3.6,1.7c-5.4,4.3-10.8,8.7-15.9,13.3c-3.4,3-6.7,6.2-9.4,9.8
			c-3.4,4.4-4.6,9.5-2.7,15.1c1.1,3.1,3,4.5,6.1,3.7c6.7-1.7,13.8-2.4,18.8-8.2c0.7-0.8,1.6-1.5,2.6-1.9
			c11.4-4.4,22.8-8.8,34.7-13.4c0.8,2.3,1.4,3.5,1.6,4.7c0.7,4.2,3.4,6.1,7.3,6c4.5-0.2,8,1.9,12,3.5c7.8,3.2,16.2,5.2,24.3,7.6
			c4.8,1.4,9.6,3.1,14.6,3.8c12.3,1.7,24,7.8,36.9,5.2c0.5-0.1,1,0.3,1.7,0.5c1.4,4.1,2.8,8.3,4.3,12.9c-10.1,1.5-19.7-0.9-29-3.6
			c-11.3-3.3-22.3-3.4-33,1.2c-7.8,3.3-15.8,3.6-23.7,2.6c-9-1.1-17.7-3.7-26.8-5.7c2-3.9,4.1-7,5.3-10.4c2.4-6.9-0.8-13.6-7.6-16.5
			c-3.2-1.4-12.8,1.5-14.2,4.5c-0.6,1.3-0.5,3.1-0.2,4.5c1.3,6.2,2.9,12.4,4.5,19.5c-11,1.4-22.1,4.2-33.1,3.8
			c-12.6-0.5-25.7,0.7-37.7-5.2c-5.2-2.6-10.9-2.3-16.5-0.5c-2.8,0.9-5.5,1.9-8.7,3c-6.2-6.2-14.1-9-22.5-11.2
			c-4.6-1.2-8.9-3.7-13.3-5.5c-4.6-1.9-9.6-2.1-14.1-0.5c-3,1-5.5,0.7-8.4,0.3c-9.5-1.4-19-2.7-28.6-3.3c-3.2-0.2-6.8,1.2-9.9,2.6
			c-12.4,5.8-25.2,6.8-38.4,3.7c-7.5-1.8-14.8-5.2-22.4-6c-9.8-1-19.8-0.6-29.6,0.2c-6,0.5-12.1,2.3-17.9,4.3
			c-12.4,4.3-24.8,3.7-37.2,1.3c-3.4-0.7-6.6-2.1-9.9-3.2c-5.3-1.8-10.6-3.6-15.8-5.6c-4.6-1.8-8.9-1.3-13.2,0.7
			c-2.6,1.2-5.3,2.3-9.2,3.9c-1.6-16.1-3.3-31.2-4.6-46.3c-0.5-5.4,4.3-9.7,9.7-8.8c10.8,1.7,21.5,4,32.3,5.8
			c13.3,2.3,26.6,2.9,39.8-0.3c9.6-2.3,19.1-5.3,28.6-7.9c11.3-3.1,21.9,0.8,32.2,4.1c12.2,3.9,24.5,6.2,37.1,5.3
			c10.9-0.8,21.6-3.5,32.3-5.6c8.4-1.7,16.6-4.5,25-5.7c17.8-2.5,35.4-2,53.2,2.6c10.7,2.8,22.3,2.7,33.4,2.7
			c5.4,0,10.7-3.1,16.1-4.7c16-4.8,31.8-2.5,47.4,2.1c13.6,4,26.8,2.4,40.1-1.9c11.9-3.9,23.9-2.7,35.5,1.5
			c17.4,6.4,35.5,9.8,53.8,12.1c6.2,0.8,12.8-0.7,19.2-1.2c9.5-0.8,19-1.7,28.5-2.6c8.2-0.8,15.9,1.3,23.6,3.9
			c12.5,4.2,25.1,5.3,37.7,0.7c14.1-5.2,28.7-7,43.4-6.2c10.9,0.6,21.7,3,32.4,5.2c14.9,3.1,29.6,2.7,44.7,0.3
			c8.1-1.3,16.6-1.1,24.7,0.1c12.9,2,25.7,5.2,38.4,8.3c8.8,2.2,17.6,1.8,26.1-0.4c10.6-2.7,21-1.4,31.6-0.4
			c2.1,0.2,4.3,0.9,6.4,0.7c12.1-1.2,23.2,3.2,35.3,5.6C948.9,377.5,955.2,397.1,951.6,417z"/>
	</g>
	<path class="st4" d="M570.1,285.8c-4.2,2.8-5.7,5.4-3.1,8.1c2.9,3,3.2,6.4,3.9,10.1c0.8,3.9,0.5,8.9,5.2,11.4
		C582.3,303.6,573.8,295.9,570.1,285.8z"/>
	<path class="st4" d="M691.5,402.1c3.3-1.3,4.3-0.3,7-1c2.7-0.6,3.3-4.7,5.7-5.4c2.3-0.7,3,0.7,4.8,2.3c1.8,1.7-1.5,3.3-4.8,4
		c-3.3,0.7-6,3.3-8,4.3S688.7,403.2,691.5,402.1z"/>
	<circle class="st1" cx="637.1" cy="437.8" r="8"/>
	<g>
		<g>
			<g>
				<g>
					<path class="st6" d="M638.7,422.6c1.9-14.9,9.9-26.5,25.1-26.5"/>
					<g>
						<polygon class="st1" points="644.3,417.2 638.8,421.7 634.2,416.2 633.8,420.5 638.3,426 643.9,421.5 						"/>
					</g>
				</g>
			</g>
		</g>
	</g>
	<g>
		<g>
			<g>
				<g>
					<path class="st6" d="M469.1,298.1c15.2,0,23.2,11.6,25.1,26.5"/>
					<g>
						<polygon class="st1" points="488.5,319.1 494.1,323.7 498.6,318.1 499.1,322.4 494.5,328 488.9,323.4 						"/>
					</g>
				</g>
			</g>
		</g>
	</g>
	<rect x="664.5" y="374.6" class="st7" width="217.7" height="39.1"/>
	<rect x="372.9" y="279.4" class="st7" width="96.1" height="39.4"/>
	<g>
		<g>
			<path class="st1" d="M391.3,310.4c-3.4,0-5.9-0.8-7.4-2.3c-1.6-1.5-2.3-4-2.3-7.5v-2.8c0-6.4,3.3-9.6,9.8-9.6
				c6,0,9.2,2.5,9.7,7.6c0,0.1,0,0.2,0,0.3c0,0.2,0,0.3,0,0.3c0,0.4-0.1,0.7-0.3,0.9c-0.2,0.2-0.5,0.3-0.9,0.3H397
				c-0.4,0-0.7-0.1-0.9-0.3s-0.3-0.5-0.4-0.9c-0.1-0.4-0.1-0.6-0.1-0.6c-0.2-1-0.7-1.8-1.4-2.2c-0.7-0.5-1.7-0.7-2.9-0.7
				c-1,0-1.9,0.1-2.5,0.4c-0.6,0.3-1.1,0.8-1.4,1.6c-0.3,0.7-0.5,1.8-0.5,3v2.4c0,1.8,0.3,3.1,1,3.9c0.7,0.8,1.8,1.1,3.4,1.1
				c1.3,0,2.3-0.2,3-0.7c0.7-0.5,1.1-1.4,1.3-2.6c0-0.1,0.1-0.2,0.1-0.5c0.1-0.8,0.5-1.2,1.3-1.2h2.9c0.4,0,0.7,0.1,0.9,0.3
				c0.2,0.2,0.3,0.5,0.3,0.9l-0.1,0.6c-0.2,2.8-1.1,4.8-2.7,6.1C396.7,309.8,394.4,310.4,391.3,310.4z"/>
			<path class="st1" d="M421.3,300c0,1.5-0.1,2.9-0.3,4c-0.2,1.1-0.5,2.1-1,2.9c-0.4,0.8-1,1.5-1.7,2c-0.7,0.5-1.6,0.9-2.6,1.1
				c-1,0.2-2.2,0.3-3.5,0.3c-1.7,0-3.1-0.2-4.3-0.5c-1.1-0.3-2.1-0.9-2.8-1.8s-1.3-1.9-1.6-3.2c-0.3-1.3-0.5-2.9-0.5-4.9v-10.3
				c0-0.4,0.1-0.8,0.4-1s0.6-0.4,1-0.4h2.7c0.4,0,0.8,0.1,1,0.4c0.2,0.2,0.4,0.6,0.4,1v10c0,1.5,0.1,2.6,0.4,3.5
				c0.3,0.9,0.7,1.5,1.2,1.8c0.5,0.4,1.2,0.5,2.1,0.5c0.9,0,1.6-0.2,2.1-0.5c0.5-0.3,0.9-0.9,1.2-1.8c0.3-0.9,0.4-2,0.4-3.5v-10
				c0-0.4,0.1-0.8,0.3-1c0.2-0.2,0.6-0.4,1-0.4h2.7c0.4,0,0.8,0.1,1,0.4s0.4,0.6,0.4,1V300z"/>
			<path class="st1" d="M432.1,310.3h-7.5c-0.4,0-0.7-0.1-1-0.4c-0.2-0.2-0.4-0.6-0.4-1v-19.2c0-0.4,0.1-0.7,0.4-1
				c0.2-0.2,0.6-0.4,1-0.4h7.7c2.5,0,4.3,0.4,5.4,1.2s1.7,2,1.7,3.6v1c0,1.2-0.4,2.1-1.1,2.8c-0.8,0.7-1.9,1.2-3.6,1.3
				c2,0.1,3.5,0.6,4.5,1.4s1.4,2,1.4,3.5v1.4c0,1.9-0.7,3.3-2,4.2S435.1,310.3,432.1,310.3z M431.7,292.3h-3v4.7h3
				c0.8,0,1.5-0.1,1.8-0.4s0.5-0.9,0.5-1.7v-0.6c0-0.8-0.2-1.3-0.5-1.6C433.2,292.5,432.6,292.3,431.7,292.3z M432.1,300.7h-3.4v5.6
				h3.4c1.1,0,1.9-0.2,2.4-0.6c0.5-0.4,0.7-1.1,0.7-2.2v-0.4c0-1-0.2-1.6-0.7-2S433.3,300.7,432.1,300.7z"/>
			<path class="st1" d="M446.5,309.2c-0.1,0.4-0.2,0.6-0.5,0.8c-0.2,0.2-0.5,0.3-0.9,0.3h-2.5c-0.4,0-0.8-0.1-1-0.4
				s-0.3-0.6-0.2-1.1l5.1-19.3c0.1-0.3,0.2-0.6,0.5-0.8c0.2-0.2,0.5-0.3,0.9-0.3h5.7c0.3,0,0.6,0.1,0.9,0.3c0.2,0.2,0.4,0.5,0.5,0.8
				l5.1,19.3c0.1,0.4,0,0.8-0.2,1.1c-0.2,0.3-0.6,0.4-1,0.4h-2.5c-0.4,0-0.7-0.1-0.9-0.3c-0.2-0.2-0.4-0.5-0.5-0.8l-0.8-3.3h-6.7
				L446.5,309.2z M453.2,302l-2.5-10.1l-2.4,10.1H453.2z"/>
		</g>
	</g>
	<g>
		<path class="st8" d="M140.2,78.8h-11.7c-0.4,0-0.7-0.1-1-0.4c-0.2-0.2-0.4-0.6-0.4-1V58.2c0-0.4,0.1-0.7,0.4-1
			c0.2-0.2,0.6-0.4,1-0.4h11.7c0.4,0,0.8,0.1,1,0.4c0.2,0.2,0.4,0.6,0.4,1v2.3c0,0.4-0.1,0.8-0.4,1c-0.2,0.2-0.6,0.4-1,0.4h-7.7v3.3
			h7.2c0.4,0,0.8,0.1,1,0.4c0.2,0.2,0.4,0.6,0.4,1v1.9c0,0.4-0.1,0.7-0.4,1c-0.2,0.2-0.6,0.4-1,0.4h-7.2v4h7.7c0.4,0,0.8,0.1,1,0.4
			s0.4,0.6,0.4,1v2.3c0,0.4-0.1,0.7-0.4,1C141,78.7,140.6,78.8,140.2,78.8z M136.5,55.2l-0.6,0.5c-0.1,0.1-0.3,0.2-0.4,0.2
			c-0.1,0-0.3,0-0.5,0h-1.8c-0.2,0-0.4-0.1-0.5-0.2c-0.1-0.1-0.1-0.3,0-0.6l0.1-0.2c0.1-0.3,0.2-0.4,0.4-0.5s0.3-0.1,0.6-0.1h2.3
			c0.3,0,0.5,0.1,0.6,0.3S136.8,55,136.5,55.2z"/>
		<path class="st8" d="M148.9,62.2h-4.2c-0.4,0-0.7-0.1-1-0.4c-0.2-0.2-0.4-0.6-0.4-1v-2.7c0-0.4,0.1-0.7,0.4-1
			c0.2-0.2,0.6-0.4,1-0.4h13.7c0.4,0,0.8,0.1,1,0.4c0.2,0.2,0.4,0.6,0.4,1v2.7c0,0.4-0.1,0.7-0.4,1c-0.2,0.2-0.6,0.4-1,0.4h-4.1
			v15.2c0,0.4-0.1,0.7-0.4,1c-0.2,0.2-0.6,0.4-1,0.4h-2.7c-0.4,0-0.7-0.1-1-0.4c-0.2-0.2-0.4-0.6-0.4-1V62.2z"/>
		<path class="st8" d="M162.9,77.7c-0.1,0.4-0.2,0.6-0.5,0.8c-0.2,0.2-0.5,0.3-0.9,0.3H159c-0.4,0-0.8-0.1-1-0.4s-0.3-0.6-0.2-1.1
			l5.1-19.3c0.1-0.3,0.2-0.6,0.5-0.8c0.2-0.2,0.5-0.3,0.9-0.3h5.7c0.3,0,0.6,0.1,0.9,0.3c0.2,0.2,0.4,0.5,0.5,0.8l5.1,19.3
			c0.1,0.4,0,0.8-0.2,1.1c-0.2,0.3-0.6,0.4-1,0.4h-2.5c-0.4,0-0.7-0.1-0.9-0.3c-0.2-0.2-0.4-0.5-0.5-0.8l-0.8-3.3h-6.7L162.9,77.7z
			 M169.5,70.5L167,60.4l-2.4,10.1H169.5z"/>
		<path class="st8" d="M179.7,62.2h-4.2c-0.4,0-0.7-0.1-1-0.4c-0.2-0.2-0.4-0.6-0.4-1v-2.7c0-0.4,0.1-0.7,0.4-1
			c0.2-0.2,0.6-0.4,1-0.4h13.7c0.4,0,0.8,0.1,1,0.4c0.2,0.2,0.4,0.6,0.4,1v2.7c0,0.4-0.1,0.7-0.4,1c-0.2,0.2-0.6,0.4-1,0.4H185v15.2
			c0,0.4-0.1,0.7-0.4,1c-0.2,0.2-0.6,0.4-1,0.4H181c-0.4,0-0.7-0.1-1-0.4c-0.2-0.2-0.4-0.6-0.4-1V62.2z"/>
		<path class="st8" d="M202.4,65.6c3,0.2,5.1,0.7,6.3,1.7s1.9,2.6,1.9,4.8v0.2c0,2.2-0.8,3.9-2.4,5c-1.6,1.1-3.9,1.7-7,1.7
			c-3,0-5.3-0.5-6.8-1.6c-1.5-1-2.4-2.6-2.5-4.7c0,0,0-0.1,0-0.3s0-0.2,0-0.3c0-0.3,0.1-0.6,0.3-0.8c0.2-0.2,0.5-0.3,0.9-0.3h2.9
			c0.4,0,0.8,0.1,0.9,0.2c0.2,0.1,0.3,0.4,0.4,0.8c0,0.1,0.1,0.3,0.1,0.5c0.2,0.7,0.7,1.2,1.3,1.5c0.6,0.3,1.5,0.5,2.6,0.5
			c1.3,0,2.3-0.2,2.9-0.5c0.6-0.3,1-0.8,1-1.5v-0.1c0-0.3,0-0.6-0.1-0.8c-0.1-0.2-0.2-0.4-0.4-0.6c-0.2-0.2-0.5-0.3-0.9-0.4
			c-0.4-0.1-0.9-0.2-1.5-0.3c-0.6-0.1-1.3-0.2-2.2-0.3c-1.5-0.1-2.8-0.3-3.8-0.6c-1-0.3-1.8-0.6-2.5-1.1s-1.2-1.1-1.5-1.8
			c-0.3-0.7-0.4-1.7-0.4-2.7v-0.2c0-2.2,0.8-3.9,2.3-5s3.9-1.7,7-1.7c2.9,0,5.1,0.5,6.6,1.6s2.4,2.5,2.6,4.4
			c0.1,0.2,0.1,0.4,0.1,0.6c0,0.3-0.1,0.6-0.3,0.8c-0.2,0.2-0.5,0.3-0.9,0.3h-2.9c-0.5,0-0.8-0.1-1-0.2c-0.2-0.1-0.3-0.4-0.4-0.8
			c-0.1-0.3-0.1-0.5-0.2-0.6c-0.6-1.1-1.8-1.6-3.8-1.6c-2.6,0-3.9,0.7-3.9,2v0.1c0,0.5,0.1,0.9,0.4,1.2c0.2,0.3,0.8,0.5,1.5,0.7
			S200.9,65.5,202.4,65.6z"/>
		<path class="st8" d="M217.9,66.9v1c0,0.4-0.1,0.7-0.4,1c-0.2,0.2-0.6,0.4-1,0.4h-3.4c-0.4,0-0.8-0.1-1-0.4c-0.2-0.2-0.4-0.6-0.4-1
			v-1c0-0.4,0.1-0.8,0.4-1c0.2-0.2,0.6-0.4,1-0.4h3.4c0.4,0,0.7,0.1,1,0.4C217.8,66.2,217.9,66.5,217.9,66.9z"/>
		<path class="st8" d="M237.8,68.5c0,1.5-0.1,2.9-0.3,4c-0.2,1.1-0.5,2.1-1,2.9c-0.4,0.8-1,1.5-1.7,2c-0.7,0.5-1.6,0.9-2.6,1.1
			c-1,0.2-2.2,0.3-3.5,0.3c-1.7,0-3.1-0.2-4.3-0.5c-1.1-0.3-2.1-0.9-2.8-1.8s-1.3-1.9-1.6-3.2c-0.3-1.3-0.5-2.9-0.5-4.9V58.2
			c0-0.4,0.1-0.8,0.4-1c0.2-0.2,0.6-0.4,1-0.4h2.7c0.4,0,0.8,0.1,1,0.4c0.2,0.2,0.4,0.6,0.4,1v10c0,1.5,0.1,2.6,0.4,3.5
			s0.7,1.5,1.2,1.8c0.5,0.4,1.2,0.5,2.1,0.5s1.6-0.2,2.1-0.5s0.9-0.9,1.2-1.8c0.3-0.9,0.4-2,0.4-3.5v-10c0-0.4,0.1-0.8,0.3-1
			c0.2-0.2,0.6-0.4,1-0.4h2.7c0.4,0,0.8,0.1,1,0.4c0.2,0.2,0.4,0.6,0.4,1V68.5z"/>
		<path class="st8" d="M256.8,78.8h-2.5c-0.6,0-1-0.2-1.3-0.7l-8-11.9v11.3c0,0.4-0.1,0.7-0.4,1c-0.2,0.2-0.6,0.4-1,0.4h-2.3
			c-0.4,0-0.7-0.1-1-0.4c-0.2-0.2-0.4-0.6-0.4-1V58.2c0-0.4,0.1-0.7,0.4-1c0.2-0.2,0.6-0.4,1-0.4h2.6c0.5,0,1,0.2,1.3,0.7l8.1,11.4
			V58.2c0-0.4,0.1-0.7,0.3-1c0.2-0.2,0.6-0.4,1-0.4h2.3c0.4,0,0.8,0.1,1,0.4c0.2,0.2,0.4,0.6,0.4,1v19.2c0,0.4-0.1,0.7-0.4,1
			C257.5,78.7,257.2,78.8,256.8,78.8z"/>
		<path class="st8" d="M264.2,78.8h-2.7c-0.4,0-0.7-0.1-1-0.4c-0.2-0.2-0.4-0.6-0.4-1V58.2c0-0.4,0.1-0.7,0.4-1
			c0.2-0.2,0.6-0.4,1-0.4h2.7c0.4,0,0.7,0.1,1,0.4c0.2,0.2,0.4,0.6,0.4,1v19.2c0,0.4-0.1,0.7-0.4,1C265,78.7,264.6,78.8,264.2,78.8z
			"/>
		<path class="st8" d="M278,65.6c3,0.2,5.1,0.7,6.3,1.7s1.9,2.6,1.9,4.8v0.2c0,2.2-0.8,3.9-2.4,5c-1.6,1.1-3.9,1.7-7,1.7
			c-3,0-5.3-0.5-6.8-1.6c-1.5-1-2.4-2.6-2.5-4.7c0,0,0-0.1,0-0.3s0-0.2,0-0.3c0-0.3,0.1-0.6,0.3-0.8c0.2-0.2,0.5-0.3,0.9-0.3h2.9
			c0.4,0,0.8,0.1,0.9,0.2c0.2,0.1,0.3,0.4,0.4,0.8c0,0.1,0.1,0.3,0.1,0.5c0.2,0.7,0.7,1.2,1.3,1.5c0.6,0.3,1.5,0.5,2.6,0.5
			c1.3,0,2.3-0.2,2.9-0.5c0.6-0.3,1-0.8,1-1.5v-0.1c0-0.3,0-0.6-0.1-0.8c-0.1-0.2-0.2-0.4-0.4-0.6c-0.2-0.2-0.5-0.3-0.9-0.4
			c-0.4-0.1-0.9-0.2-1.5-0.3c-0.6-0.1-1.3-0.2-2.2-0.3c-1.5-0.1-2.8-0.3-3.8-0.6c-1-0.3-1.8-0.6-2.5-1.1s-1.2-1.1-1.5-1.8
			c-0.3-0.7-0.4-1.7-0.4-2.7v-0.2c0-2.2,0.8-3.9,2.3-5s3.9-1.7,7-1.7c2.9,0,5.1,0.5,6.6,1.6s2.4,2.5,2.6,4.4
			c0.1,0.2,0.1,0.4,0.1,0.6c0,0.3-0.1,0.6-0.3,0.8c-0.2,0.2-0.5,0.3-0.9,0.3h-2.9c-0.5,0-0.8-0.1-1-0.2c-0.2-0.1-0.3-0.4-0.4-0.8
			c-0.1-0.3-0.1-0.5-0.2-0.6c-0.6-1.1-1.8-1.6-3.8-1.6c-2.6,0-3.9,0.7-3.9,2v0.1c0,0.5,0.1,0.9,0.4,1.2c0.2,0.3,0.8,0.5,1.5,0.7
			S276.5,65.5,278,65.6z"/>
	</g>
	<path class="st4" d="M907.5,486.9c0-1-0.1-2-0.1-2.9c-4.1-0.5-8.3-0.4-12.2-1.5c-10.1-3-19.5-0.6-28.9,2.7c-1.5,0.5-2.8,2-5.5,4
		c4.5,0.6,7.3,1.4,10.2,1.4c9.3-0.2,18.6-0.5,27.9-1.1C901.8,489.1,904.6,487.7,907.5,486.9z"/>
	<g class="st5">
		<path class="st1" d="M687.9,402.7c-0.2,0.6-0.5,1.1-0.9,1.6c-0.4,0.5-0.8,0.9-1.4,1.3c-0.6,0.4-1.2,0.7-2.1,0.9
			c-0.8,0.2-1.7,0.3-2.7,0.3c-3.2,0-5.6-0.8-7.1-2.3c-1.5-1.6-2.2-4.1-2.2-7.6v-2.8c0-3.1,0.8-5.4,2.4-7s4-2.4,7.4-2.4
			c3,0,5.3,0.6,6.9,1.7c1.6,1.1,2.5,2.7,2.8,4.8c0,0.1,0.1,0.4,0.1,0.9c0,0.4-0.1,0.7-0.3,0.9s-0.5,0.3-0.9,0.3H687
			c-0.5,0-0.8-0.1-1-0.2c-0.2-0.1-0.3-0.4-0.4-0.8c-0.1-0.3-0.1-0.5-0.2-0.6c-0.3-0.7-0.7-1.2-1.4-1.6c-0.7-0.3-1.6-0.5-2.8-0.5
			c-1,0-1.9,0.1-2.5,0.4c-0.6,0.3-1.1,0.8-1.4,1.6c-0.3,0.7-0.5,1.8-0.5,3v2.4c0,1.8,0.3,3.1,1,3.9c0.7,0.8,1.8,1.1,3.4,1.1
			c0.5,0,1,0,1.4-0.1s0.8-0.2,1.2-0.3c0.4-0.1,0.7-0.3,0.9-0.6s0.4-0.6,0.6-1c0.1-0.4,0.2-0.9,0.2-1.5v-0.2h-3.1
			c-0.4,0-0.7-0.1-0.9-0.3c-0.2-0.2-0.3-0.5-0.3-0.9v-1c0-0.4,0.1-0.8,0.4-1c0.2-0.2,0.6-0.4,1-0.4h7.1c0.4,0,0.8,0.1,1,0.4
			c0.2,0.2,0.4,0.6,0.4,1v9.6c0,0.7-0.3,1-1,1h-0.2c-0.4,0-0.6-0.1-0.8-0.2c-0.2-0.1-0.3-0.3-0.4-0.7L687.9,402.7z"/>
		<path class="st1" d="M711.3,396.4c0,1.5-0.1,2.9-0.3,4c-0.2,1.1-0.5,2.1-1,2.9c-0.4,0.8-1,1.5-1.7,2c-0.7,0.5-1.6,0.9-2.6,1.1
			c-1,0.2-2.2,0.3-3.5,0.3c-1.7,0-3.1-0.2-4.3-0.5s-2.1-0.9-2.8-1.8s-1.3-1.9-1.6-3.2c-0.3-1.3-0.5-2.9-0.5-4.9V386
			c0-0.4,0.1-0.8,0.4-1c0.2-0.2,0.6-0.4,1-0.4h2.7c0.4,0,0.8,0.1,1,0.4c0.2,0.2,0.4,0.6,0.4,1v10c0,1.5,0.1,2.6,0.4,3.5
			c0.3,0.9,0.7,1.5,1.2,1.8c0.5,0.4,1.2,0.5,2.1,0.5c0.9,0,1.6-0.2,2.1-0.5c0.5-0.3,0.9-0.9,1.2-1.8c0.3-0.9,0.4-2,0.4-3.5v-10
			c0-0.4,0.1-0.8,0.3-1s0.6-0.4,1-0.4h2.7c0.4,0,0.8,0.1,1,0.4c0.2,0.2,0.4,0.6,0.4,1V396.4z"/>
		<path class="st1" d="M717,405.5c-0.1,0.4-0.2,0.6-0.5,0.8c-0.2,0.2-0.5,0.3-0.9,0.3h-2.5c-0.4,0-0.8-0.1-1-0.4
			c-0.2-0.3-0.3-0.6-0.2-1.1l5.1-19.3c0.1-0.3,0.2-0.6,0.5-0.8c0.2-0.2,0.5-0.3,0.9-0.3h5.7c0.4,0,0.6,0.1,0.9,0.3
			c0.2,0.2,0.4,0.5,0.5,0.8l5.1,19.3c0.1,0.4,0,0.8-0.2,1.1s-0.6,0.4-1,0.4h-2.5c-0.4,0-0.7-0.1-0.9-0.3c-0.2-0.2-0.4-0.5-0.5-0.8
			l-0.8-3.3h-6.7L717,405.5z M723.6,398.4l-2.5-10.1l-2.4,10.1H723.6z"/>
		<path class="st1" d="M749.3,406.6h-2.5c-0.6,0-1-0.2-1.3-0.7l-8-11.9v11.3c0,0.4-0.1,0.7-0.4,1c-0.2,0.2-0.6,0.4-1,0.4h-2.3
			c-0.4,0-0.7-0.1-1-0.4c-0.2-0.2-0.4-0.6-0.4-1V386c0-0.4,0.1-0.7,0.4-1c0.2-0.2,0.6-0.4,1-0.4h2.6c0.5,0,1,0.2,1.3,0.7l8.1,11.4
			V386c0-0.4,0.1-0.7,0.3-1c0.2-0.2,0.6-0.4,1-0.4h2.3c0.4,0,0.8,0.1,1,0.4c0.2,0.2,0.4,0.6,0.4,1v19.2c0,0.4-0.1,0.7-0.4,1
			C750,406.5,749.7,406.6,749.3,406.6z"/>
		<path class="st1" d="M758.1,390.1h-4.2c-0.4,0-0.7-0.1-1-0.4c-0.2-0.2-0.4-0.6-0.4-1V386c0-0.4,0.1-0.7,0.4-1
			c0.2-0.2,0.6-0.4,1-0.4h13.7c0.4,0,0.8,0.1,1,0.4s0.4,0.6,0.4,1v2.7c0,0.4-0.1,0.7-0.4,1s-0.6,0.4-1,0.4h-4.1v15.2
			c0,0.4-0.1,0.7-0.4,1c-0.2,0.2-0.6,0.4-1,0.4h-2.7c-0.4,0-0.7-0.1-1-0.4c-0.2-0.2-0.4-0.6-0.4-1V390.1z"/>
		<path class="st1" d="M772,405.5c-0.1,0.4-0.2,0.6-0.5,0.8c-0.2,0.2-0.5,0.3-0.9,0.3h-2.5c-0.4,0-0.8-0.1-1-0.4s-0.3-0.6-0.2-1.1
			l5.1-19.3c0.1-0.3,0.2-0.6,0.5-0.8s0.5-0.3,0.9-0.3h5.7c0.3,0,0.6,0.1,0.9,0.3c0.2,0.2,0.4,0.5,0.5,0.8l5.1,19.3
			c0.1,0.4,0,0.8-0.2,1.1c-0.2,0.3-0.6,0.4-1,0.4h-2.5c-0.4,0-0.7-0.1-0.9-0.3c-0.2-0.2-0.4-0.5-0.5-0.8l-0.8-3.3h-6.7L772,405.5z
			 M778.6,398.4l-2.5-10.1l-2.4,10.1H778.6z M778.8,383l-0.6,0.5c-0.1,0.1-0.3,0.2-0.4,0.2s-0.3,0-0.5,0h-1.8
			c-0.2,0-0.4-0.1-0.5-0.2c-0.1-0.1-0.1-0.3,0-0.6l0.1-0.2c0.1-0.3,0.2-0.4,0.4-0.5c0.1-0.1,0.3-0.1,0.6-0.1h2.3
			c0.3,0,0.5,0.1,0.6,0.3S779,382.8,778.8,383z"/>
		<path class="st1" d="M804.3,406.6h-2.5c-0.6,0-1-0.2-1.3-0.7l-8-11.9v11.3c0,0.4-0.1,0.7-0.4,1c-0.2,0.2-0.6,0.4-1,0.4h-2.3
			c-0.4,0-0.7-0.1-1-0.4c-0.2-0.2-0.4-0.6-0.4-1V386c0-0.4,0.1-0.7,0.4-1c0.2-0.2,0.6-0.4,1-0.4h2.6c0.5,0,1,0.2,1.3,0.7l8.1,11.4
			V386c0-0.4,0.1-0.7,0.3-1c0.2-0.2,0.6-0.4,1-0.4h2.3c0.4,0,0.8,0.1,1,0.4c0.2,0.2,0.4,0.6,0.4,1v19.2c0,0.4-0.1,0.7-0.4,1
			C805,406.5,804.7,406.6,804.3,406.6z"/>
		<path class="st1" d="M812.7,405.5c-0.1,0.4-0.2,0.6-0.5,0.8c-0.2,0.2-0.5,0.3-0.9,0.3h-2.5c-0.4,0-0.8-0.1-1-0.4s-0.3-0.6-0.2-1.1
			l5.1-19.3c0.1-0.3,0.2-0.6,0.5-0.8s0.5-0.3,0.9-0.3h5.7c0.4,0,0.6,0.1,0.9,0.3s0.4,0.5,0.5,0.8l5.1,19.3c0.1,0.4,0,0.8-0.2,1.1
			c-0.2,0.3-0.6,0.4-1,0.4h-2.5c-0.4,0-0.7-0.1-0.9-0.3c-0.2-0.2-0.4-0.5-0.5-0.8l-0.8-3.3h-6.7L812.7,405.5z M819.3,398.4
			l-2.5-10.1l-2.4,10.1H819.3z"/>
		<path class="st1" d="M841.3,406.6H840c-0.7,0-1.1-0.3-1.3-1l-5.4-14.6v14.3c0,0.4-0.1,0.7-0.4,1c-0.2,0.2-0.6,0.4-1,0.4h-2.5
			c-0.4,0-0.7-0.1-1-0.4c-0.2-0.2-0.4-0.6-0.4-1V386c0-0.4,0.1-0.7,0.4-1c0.2-0.2,0.6-0.4,1-0.4h5.4c0.7,0,1.1,0.3,1.3,1l4.5,12.1
			l4.6-12.1c0.2-0.7,0.7-1,1.3-1h5.3c0.4,0,0.7,0.1,1,0.4c0.2,0.2,0.4,0.6,0.4,1v19.2c0,0.4-0.1,0.7-0.4,1c-0.2,0.2-0.6,0.4-1,0.4
			h-2.4c-0.4,0-0.8-0.1-1-0.4c-0.2-0.2-0.3-0.6-0.3-1V391l-5.5,14.6C842.4,406.3,842,406.6,841.3,406.6z"/>
		<path class="st1" d="M874.7,394.2v2.8c0,3.1-0.8,5.5-2.5,7.2c-1.7,1.7-4.1,2.5-7.3,2.5c-3.3,0-5.7-0.8-7.4-2.5s-2.4-4.1-2.4-7.2
			v-2.8c0-3.1,0.8-5.5,2.4-7.2c1.6-1.7,4.1-2.5,7.4-2.5s5.7,0.8,7.4,2.5C873.9,388.7,874.7,391.1,874.7,394.2z M869.4,396.8v-2.4
			c0-1.3-0.2-2.3-0.5-3.1c-0.3-0.7-0.8-1.3-1.4-1.6s-1.5-0.4-2.5-0.4c-1.1,0-1.9,0.1-2.5,0.4s-1.1,0.8-1.4,1.6s-0.5,1.8-0.5,3.1v2.4
			c0,1.3,0.2,2.3,0.5,3.1c0.3,0.7,0.8,1.3,1.4,1.5s1.5,0.4,2.5,0.4c1,0,1.9-0.1,2.5-0.4s1.1-0.8,1.4-1.5
			C869.2,399.2,869.4,398.1,869.4,396.8z"/>
	</g>
</g>
</svg>
