<?xml version="1.0" encoding="utf-8"?>
<!-- Generator: Adobe Illustrator 19.1.0, SVG Export Plug-In . SVG Version: 6.00 Build 0)  -->
<svg version="1.1" id="Calque_1" xmlns="http://www.w3.org/2000/svg" xmlns:xlink="http://www.w3.org/1999/xlink" x="0px" y="0px"
	 viewBox="0 0 967.1 759.7" style="enable-background:new 0 0 967.1 759.7;" xml:space="preserve">
<style type="text/css">
	.st0{fill:#009DBF;}
	.st1{fill:#D0095B;}
	.st2{fill:#009EC0;}
	.st3{fill:#D1005A;}
	.st4{fill:#C0BFBF;}
	.st5{enable-background:new    ;}
	.st6{fill:none;stroke:#D0095B;stroke-width:3;stroke-miterlimit:10;}
	.st7{fill:#FFFFFF;stroke:#D0095B;stroke-width:3;stroke-miterlimit:10;}
	.st8{fill:#FFFFFF;}
</style>
<g>
	<path class="st0" d="M841.4,182.4c-7.6-11.8-14.5-23.9-12.5-38.8c0.3-2.1-0.2-4.3,0.1-6.4c0.7-6.5-4.5-10.5-6.7-15.7
		c-0.4-1-2.8-1.2-4.3-1.7c-7-2.2-14-0.9-20.4,1.7c-12.4,5-24.7,3.4-37,0.2c-3.9-1-7.7-2.3-11.5-3.5c-20.5-6.7-41.3-8.1-62.5-4
		c-12.3,2.4-24.5,2.3-36.3-2.4c-13.5-5.4-27.1-4.9-40.8-0.5c-14.6,4.7-29.2,3.9-43.1-2.1c-9.5-4.1-18.9-5.1-28.8-2.5
		c-18.8,4.9-37.7,4.7-56.1-1.2c-20.9-6.7-41.4-4.4-61.6,1.3c-19.8,5.6-39.1,5.9-59,1.1c-8.3-2-16.9-3.8-25.3-3.6
		c-9.5,0.2-19,2.4-28.4,4.2c-7.1,1.3-13.9,3.8-21,4.8c-9.7,1.4-19.1-0.4-28.5-3.3c-13.8-4.2-27.6-9.2-42.3-7
		c-10.8,1.6-21.5,4.1-32.1,6.7c-20.2,4.8-39.8,3.7-58.6-5.2c-6.1-2.9-12.1-3.8-18.6-2.6c-10.8,1.9-21.6,3.9-32.4,5.1
		c-12,1.3-24.3,2.5-35.7-2.2c-10.2-4.2-20.1-4.5-30.8-1c-0.3,1.1-1,2.6-1.1,4.1c-1.8,18.5,2,36.7,2.9,55.6c3.2-0.9,6.1-1.4,8.8-2.4
		c5.8-2.1,11-1.5,17.1,0.2c10.4,3,20.6,7,32,6.2c9.2-0.7,18-2.1,26.8-4.5c9.8-2.8,19.4-2.8,29,1.2c5.9,2.5,12,4.5,18.2,6.1
		c16.1,4.1,32.1,3.5,48.3-0.6c9.3-2.3,18.8-3.6,28.5-1.2c9.3,2.3,18.7,4.6,28.2,5.9c7.8,1.1,16.2,2.9,23.7-0.7
		c10.5-5,21.6-5.4,32.8-6.4c10.7-0.9,20.6,2.6,30.7,5.1c12.2,3,24.4,3.4,36.4-0.3c15.6-4.8,30.9-4.9,46.5,0.2
		c5.2,1.7,11.2,3.2,16.4,2.4c12.9-2.2,25.5-1.3,36.3,5.5c6.9,4.3,12.9,3.8,19.9,2.8c8.1-1.2,16.6-1.3,24.5-3.3
		c8.7-2.2,16.1-0.7,23.6,3.7c2,1.2,5,1.3,7.5,1.1c3.2-0.2,6.3-1.1,9.4-2.1c6.1-1.9,12.1-1.6,18,0.8c18,7.4,36.7,6.5,55.2,3.6
		c17.3-2.7,34.2-5.6,51.3,1.1c14.4,5.6,29.2,5.2,44.1,1.2c8.5-2.3,17.2-3.8,26.2-2.2c14.1,2.5,28.4,4.6,42.5,7.1
		c9.3,1.6,18.7,3,27.8,0.1c9.4-3,18.8-3.5,29.5-1.7C845.2,188.1,843.3,185.3,841.4,182.4z M532.8,157.6c-2.7,1.2-4.2,5.1-6.5,8.1
		c-2-5.2-3.8-9.7-5.5-14.2c2.3-4.3,6.6-4.4,10.4-5.4c6.5-1.7,7-2.4,5.2-8.6c-0.5-1.6-0.7-3.3,0-5.4c2.6,3,5.3,6.1,8.1,9.4
		C541.8,147.6,540.2,154.3,532.8,157.6z"/>
	<g>
		<path d="M958,101.1c0,16.7,0.1,33.3,0,50c0,4.2-1,8.4-1,12.6c0.1,8.4,0.5,16.9,0.9,25.3c0.4,11.9,1,23.8,1.3,35.7
			c0.4,16.3-0.7,32.8,1,49c1.9,18.7,3.5,37.4,2.6,56.2c-0.8,15.4,1.6,30.5,2.6,45.8c1.1,16.3,2.7,32.6,0.8,49.1
			c-1.1,9.7-0.4,19.5-0.6,29.3c-0.4,23.5-0.6,47-1.1,70.6c-0.3,13.8-0.7,27.5-1.6,41.2c-1.4,21.9-0.4,43.7-0.4,65.6
			c0,13-0.6,25.8-2.3,38.7c-1.1,8.6,0,17.4,0.3,26.1c0.5,12.9,3.7,31.9-1.2,44.4c-5,12.8-14.5,11.8-28.1,11.1
			c-8.2-0.4-16.3-1.1-24.5-1.4c-15.8-0.5-31.7-1.7-47.5-1c-20.3,0.8-40.7,0.2-60.9,3.8c-5.4,1-11.1,0.6-16.7,0.8
			c-27.5,0.9-55,2.1-82.5,2.6c-19.6,0.4-39.3,1-58.8-0.2c-21.8-1.4-43.3,1.6-65,1c-13.7-0.4-27.4,1.9-41.1,2.2
			c-10.5,0.2-21.1-1-31.7-1.4c-17.4-0.6-34.9-1.2-52.3-1.3c-16.1-0.2-32.2,0.1-48.3,0.5c-10.8,0.3-21.6,1.2-32.4,1.7
			c-6.5,0.3-13.1,0.5-19.7,0.5c-25.9-0.2-51.7-0.8-77.6-0.6c-13.4,0.1-26.9-0.7-40.3-0.7c-12.1,0-24,1.2-35.5,0.1
			c-16.6-1.6-33.2-2.8-49.6-4.9c-17.7-2.3-35.4-0.8-53.1-0.8c-15.5,0-31,1.6-46.5,2.4c-8.1,0.4-16.3,0.3-24.5,0.6
			c-2.6,0.1-5.2,0.4-7.7,1c-4.4,1-5.5,0.5-5.9-4.4c-0.6-6.8-0.7-13.7-1.1-20.5c-0.7-12.1-1.6-24.2-2.2-36.4
			c-0.3-6.8,0-13.6-0.1-20.5c0-2.4-0.1-4.7-0.3-7.1c-1.3-13.4-2.9-26.7,0-40.1c1.3-5.8,0.4-12.1,0.8-18.2c1.1-18.5,0.6-36.8-1-55.3
			c-1.7-20-1.4-40.1-1.9-60.2c-0.2-8.5-0.6-16.9-0.4-25.4c0.3-13.2,1.2-26.4,1.3-39.6c0.1-11.1-0.4-22.2-0.7-33.3
			c-0.1-3.7-0.1-7.4-0.4-11.1c-1.7-21.4-0.5-42.7,0.5-64.1c0.5-10.3,0-20.6-0.3-30.9c-0.4-12,1.4-23.7,3.1-35.5
			c1.8-13.3,3.7-26.7,4.1-40.1c0.2-9.1-1.6-18.4-3.7-27.4c-4.1-17.6-7.1-35.2-6.5-53.3c0.2-5,1.1-10,1-15C0.4,98.6,2,78.8,1.4,59
			C1,45.9,2,33.3,5.6,20.6c1.7-5.9,4.8-9.5,10.2-10.8c7.4-1.6,15-2.4,22.6-3.5c3.9-0.6,7.8,1.9,11.8,1.5c4.4-0.4,8.8-0.4,13.2-0.7
			c1.8-0.1,3.7-0.3,5.5-0.7C83.4,3.3,98,3.1,112.8,5.3c4.7,0.7,9.5,0.2,14.3,0.4c17.7,0.6,35.4-1.6,53.1-1
			c22.2,0.8,44.4,1.5,66.6,2.1c5,0.1,10-0.5,15-0.4c18.3,0.4,36.5,1.2,54.8,1.5c5.8,0.1,11.6-1,17.4-1.4c9.7-0.8,19.5-1.5,29.3-2.2
			C376,3.4,388.9,4,401.7,1.7c6.9-1.3,14.2-0.6,21.4-0.6c9.5-0.1,19.1-0.4,28.6,0.1c11.3,0.6,22.6,1.8,33.9,2.8
			c2.1,0.2,4.2,0.3,6.3,0.3c14.6,0.2,29.2,0.3,43.7,0.6c7.9,0.2,15.9,1.7,23.7,0.8c17.2-1.9,34.3-0.7,51.5-0.9
			c2.9,0,5.9-0.2,8.7-0.7c15.9-3,31.9-0.5,48-0.6c10-0.1,19.9-0.9,29.9-0.9c14.8,0.1,29.6,0.8,44.4,0.9c32.9,0.1,65.7-2,98.6-1.9
			c22.4,0.1,44.8-2,67.2-1.4c9.7,0.3,19.6,1.3,29.1,3.3c5.5,1.1,10.4,0.8,15.5,3.6c1,0.5,1.8,6.1,1.9,7.2c1.4,11.5,3.3,23,3.7,34.5
			c0.6,17.4,0.2,34.9,0.2,52.3C958.1,101.1,958.1,101.1,958,101.1z M462.2,188.4c0.5,3.4,1.9,6.6,1,8.8c-1.4,3.5-3.9,7-6.8,9.6
			c-4.4,4-6.7,7.8-4.2,13.9c2.4,5.8-1.2,11.1-3.4,16c-1.1,2.3-5.7,3.5-8.9,4.2c-3.7,0.8-4.8,3.1-5.1,6.2c-0.2,2.9,0.2,5.9-0.1,8.8
			c-0.5,4.7,0.9,9.6-2.1,14c-1.8,2.7-3.2,5.7-7.1,5.4c-3.5-0.3-6.1-3.2-6.9-7.6c-0.7-4.4-1.2-8.8-2-14.6c-1.3,4.5-2.2,7.4-3,10.1
			c-1.9,0.2-3.1,0.2-4,0.5c-1.9,0.7-3.7,1.6-5.5,2.4c1,2,1.7,4.1,3,5.9c1.8,2.6,4,5,6.1,7.3c3.8,4.4,7.4,8.9,11.6,12.9
			c5.3,5.1,5,11.8-1.3,16c-1.5,1-3.1,2-5.2,3.5c3.5,9.7-2.4,17.7-5.7,27c3.8,0,6.7,0.1,9.6,0c4.8-0.3,8.6,1.2,10.4,5.8
			c1.8,4.5,0.2,8.3-3.6,11.3c-1.2,1-2.7,2.1-3.2,3.5c-2,5.5-5.6,9.4-10.6,12.6c-1.8,1.1-2.9,4.4-3.2,6.8c-0.2,1.9,1.2,3.9,2.4,7.2
			c3.3-3,5.5-4.7,7.5-6.8c1.5-1.5,2.4-3.6,3.9-5.1c2.8-2.9,9.2-4.5,11.7-3.1c3.4,1.8,4.4,5.4,3.3,11c-1.1,5.2-1.7,10.5-0.2,16.3
			c0.6-10.3,8-8.5,14.6-8.3c-0.4-3.5-1.2-6.3-0.9-9.1c0.2-1.8,1.6-4.1,3.1-4.8c1.5-0.7,4.2-0.3,5.6,0.7c3.3,2.2,6.2,5.1,9.4,7.5
			c7.5,5.7,8.8,12.1,3.5,19.7c-5.2,7.5-10.1,15.1-12.2,24.1c-0.6,2.7-0.6,5.5-0.9,7.9c3.3,0.6,5.6,0.7,7.6,1.5
			c7.8,3.2,15.4,3.6,22.8-1.1c1.3-0.8,3-1.6,4.5-1.6c4.1,0.1,8.5-2.2,12.3,1.3c4.2,3.9,7.8,7.9,7.5,14.4c-0.1,2.6,1.1,5.6,2.5,8
			c2.7,4.7,2.9,4.8-1.3,9.4c1.8,4.5,2.6,9.5,6.6,13.2c1.8-1.3,3.3-2.3,4.8-3.3c6.3,5.2,7.7,9.7,4.5,16.8c-2,4.4-2.7,8.4-0.9,13
			c0.6,1.6,0.7,3.7,0.3,5.4c-2.4,10.2-13.4,18.8-23.9,19c-2.9,0.1-6.1,0-8.7,1c-4.3,1.6-7.7,1-11.1-1.9c-1.1-1-2.8-1.3-4.1-1.9
			c-5,5.2-5.4,5.5-1.7,10c3.1,3.8,2.9,7.2,0.8,11c-0.7,1.3-1.4,2.5-1.9,3.4c3.4,2.2,6.6,3.7,9,6c1.8,1.7,3.6,4.3,3.8,6.6
			c0.5,8.8-0.1,17.7-3.7,25.9c-1.4,3-3.7,6.1-6.4,7.9c-5.1,3.3-11,5.4-16.3,8.5c-3.9,2.2-7.6,4.9-11.1,7.7c-2.7,2.2-3.5,5.2-1.7,9.5
			c3.5-0.9,7.4-1.1,10.4-2.9c5.7-3.5,9.7-1.3,13.5,2.6c2,2,3.6,4.5,5.6,7c0.9-0.1,2,0,3-0.3c11.8-3.4,11.8-3.4,19.3,5.8
			c0.7,0.8,1.5,1.5,2.2,2.3c2.6,3.2,5.6,2.7,8.5,0.9c1.6-1,2.7-2.6,4.2-3.7c3.7-2.6,7.3-5.5,11.4-7.3c6.6-2.8,12,2.1,11.3,9.2
			c-0.8,8.7-5.5,14.6-13.5,17.1c-7.3,2.3-15,4.4-22.6,4.7c-9.5,0.4-16.4,4.2-21.3,11.8c-9.1,14-20.9,25.6-33,37
			c-1.7,1.6-3.1,3.5-5.5,6.3c3.3-0.4,5.2-0.2,6.9-0.9c7.4-3,14.9-5.8,21.9-9.6c5-2.7,9.5-2.5,14.6-1.3c4.6,1.1,9.4,1.5,14.2,2.1
			c6.3,0.9,10.9-1.6,13.9-7.2c1.1-2.1,2.4-4.2,3.4-6.4c3.7-8.8,6.9-10.4,16.1-8.2c3.6,0.9,7.3,1.5,10.9,2.6c7,2.1,13.8,0,20.6-0.7
			c3.6-0.3,7.3-1.2,10.6-2.8c6.8-3.2,13.9-4.3,21.1-2.9c16.7,3.3,33,1.4,48.8-4.4c6.7-2.4,12.8-6.8,19.5-9.2
			c8-2.9,12.4-9.2,18.4-15.3c-2.6-0.9-4.1-1.6-5.6-1.8c-9.2-1.2-15.2-13.9-8.2-21.7c3.2-3.6,5.4-8,8.5-11.6
			c10.2-12,16-25.8,17.5-41.4c0.4-4.1-0.6-7.7-2.9-11.3c-4.5-7-10.6-10.7-18.8-11.9c-6.3-1-11.2,0.1-14.6,5.6
			c-2.8,4.5-5.9,6.6-11.8,5.7c-8.1-1.3-11.7-6.2-8.1-13.7c1.3-2.9,3.3-5.4,5-8.2c-0.9-2.9-1.4-5.9-2.7-8.4
			c-3.4-6.5-5.1-13.4-5.6-20.7c-0.1-1.6-0.7-3.1-1.3-4.6c-5.8-12.9-11.2-26-17.6-38.6c-4.3-8.6-10.5-16-18.7-21.6
			c-2.8-1.9-5.5-4.5-7.3-7.3c-4.9-8-8.6-16.5-9.3-26.2c-0.5-7.2-1.6-14.8-6.3-20.4c-7.9-9.4-16.5-18.1-25.1-27
			c-2.9-3-13.5-4.7-16.3-1.9c-4.5,4.6-10,2.7-15,3.6c-4.4,0.8-6.9-2.9-4.8-7.2c1.5-3.3,3.8-6.5,6.4-8.8c3-2.6,6.9-4,10.2-6.3
			c2.2-1.6,4-3.7,5.3-5.1c-1.6-3.9-3.9-6.7-3.4-9.1c0.9-4.6,2.5-9.4,5.1-13.2c6.4-9.4,11.5-19.2,13.6-30.4c1-5.5,2.5-10.9,3.9-16.3
			c1.2-4.6,2.9-9.2,3.8-13.9c1.1-6-1.2-9.2-7.2-10.4c-3.4-0.7-6.9-1-10.3-1.2c-6.4-0.4-12.6-0.1-18.4,3.6c-4.4,2.8-9.5,5-14.6,6.3
			c-5.2,1.3-10.8,1.2-16.2,1.9c-1.7,0.2-3.2,1.1-4.9,1.5c-1.6,0.4-3.9,1.4-4.8,0.7c-1.4-1.1-3.1-3.7-2.7-5c0.8-2.9,2.8-5.5,4.6-8
			c1.3-1.8,3.1-3.3,5.1-5.3c-1.8-1.2-3-1.8-4-2.6c-3.3-2.6-3.7-5-1-8c1-1.1,2.4-2.1,3.8-2.7c3.3-1.5,5.8-3.6,7.1-7.1
			c2.2-5.4,6.1-9.3,10.8-12.7c3.2-2.4,6.1-5.2,9.4-7.4c4.2-2.8,5.4-6.3,3.8-11.2c-2.3-1-5.5-3.5-6.8-2.7c-6.1,3.4-13.4,2-19.2,4.7
			c-5.1,2.3-9.2,1.2-13.6,0.6c-6.4,5.2-6.4,5.2-13.2,1.3c-2.8-1.6-5.4-3.4-8.3-4.8C465.6,188.2,464,188.5,462.2,188.4z M847.9,192.2
			c-2.7-4.1-4.6-6.9-6.5-9.8c-7.6-11.8-14.5-23.9-12.5-38.8c0.3-2.1-0.2-4.3,0.1-6.4c0.7-6.5-4.5-10.5-6.7-15.7
			c-0.4-1-2.8-1.2-4.3-1.7c-7-2.2-14-0.9-20.4,1.7c-12.4,5-24.7,3.4-37,0.2c-3.9-1-7.7-2.3-11.5-3.5c-20.5-6.7-41.3-8.1-62.5-4
			c-12.3,2.4-24.5,2.3-36.3-2.4c-13.5-5.4-27.1-4.9-40.8-0.5c-14.6,4.7-29.2,3.9-43.1-2.1c-9.5-4.1-18.9-5.1-28.8-2.5
			c-18.8,4.9-37.7,4.7-56.1-1.2c-20.9-6.7-41.4-4.4-61.6,1.3c-19.8,5.6-39.1,5.9-59,1.1c-8.3-2-16.9-3.8-25.3-3.6
			c-9.5,0.2-19,2.4-28.4,4.2c-7.1,1.3-13.9,3.8-21,4.8c-9.7,1.4-19.1-0.4-28.5-3.3c-13.8-4.2-27.6-9.2-42.3-7
			c-10.8,1.6-21.5,4.1-32.1,6.7c-20.2,4.8-39.8,3.7-58.6-5.2c-6.1-2.9-12.1-3.8-18.6-2.6c-10.8,1.9-21.6,3.9-32.4,5.1
			c-12,1.3-24.3,2.5-35.7-2.2c-10.2-4.2-20.1-4.5-30.8-1c-0.3,1.1-1,2.6-1.1,4.1c-1.8,18.5,2,36.7,2.9,55.6c3.2-0.9,6.1-1.4,8.8-2.4
			c5.8-2.1,11-1.5,17.1,0.2c10.4,3,20.6,7,32,6.2c9.2-0.7,18-2.1,26.8-4.5c9.8-2.8,19.4-2.8,29,1.2c5.9,2.5,12,4.5,18.2,6.1
			c16.1,4.1,32.1,3.5,48.3-0.6c9.3-2.3,18.8-3.6,28.5-1.2c9.3,2.3,18.7,4.6,28.2,5.9c7.8,1.1,16.2,2.9,23.7-0.7
			c10.5-5,21.6-5.4,32.8-6.4c10.7-0.9,20.6,2.6,30.7,5.1c12.2,3,24.4,3.4,36.4-0.3c15.6-4.8,30.9-4.9,46.5,0.2
			c5.2,1.7,11.2,3.2,16.4,2.4c12.9-2.2,25.5-1.3,36.3,5.5c6.9,4.3,12.9,3.8,19.9,2.8c8.1-1.2,16.6-1.3,24.5-3.3
			c8.7-2.2,16.1-0.7,23.6,3.7c2,1.2,5,1.3,7.5,1.1c3.2-0.2,6.3-1.1,9.4-2.1c6.1-1.9,12.1-1.6,18,0.8c18,7.4,36.7,6.5,55.2,3.6
			c17.3-2.7,34.2-5.6,51.3,1.1c14.4,5.6,29.2,5.2,44.1,1.2c8.5-2.3,17.2-3.8,26.2-2.2c14.1,2.5,28.4,4.6,42.5,7.1
			c9.3,1.6,18.7,3,27.8,0.1C827.7,190.9,837.1,190.4,847.9,192.2z M580.5,46.4c-9.1-1.5-17.7-3.6-26.6-0.8
			c-11.8,3.8-23.8,3-35.7,0.1c-19.4-4.6-38.5-4.1-57.7,2c-8.8,2.8-18.1,4.2-27.3,5c-14.4,1.3-28.7-1-42.9-3.9
			c-17.9-3.7-36.1-4-54.2-0.2c-22.2,4.7-44.5,5.5-67,2.5c-14.8-2-29.6-4.2-44.4-6c-13.5-1.6-26.5,1.3-39.6,4.2
			c-5.5,1.2-10.9,2.7-16.5,3.2c-14.5,1.4-28.6-1.4-42.6-5.2c-6.3-1.7-13.2-2.5-19.7-2c-10.5,0.8-21,3-31.4,4.6
			c-12.4,1.9-24.7,2.6-37-1.7c-9.7-3.4-19.4-3.1-28.7,2.6C9,65.1,8.6,79.3,8.1,93.9c1.6-0.2,3.1-0.2,4.6-0.5
			c7.8-1.8,15.1-1.1,22.6,1.9c5.1,2.1,10.8,2.8,16.3,3.6c13.8,1.8,27.2-1.2,40.5-3.9c13.1-2.6,25.6-4.4,38,3.1c7.7,4.6,17,4,25.7,5
			c9.5,1.1,18.6,0.8,27.6-2.4c19.9-7.1,40.1-8.7,60.7-2.9c4.9,1.4,9.8,2.8,14.7,4.1c9.6,2.5,19.3,4.4,29.2,2.4
			c5.7-1.2,11.4-2.8,17-4.6c17.8-5.9,35.7-6,53.7-1.2c19.8,5.3,39.4,6,59.2-0.2c11.4-3.6,23.3-5.7,35.5-5.8
			c10.1-0.1,19.7,1.8,29.3,4.2c11.7,2.9,23.6,4.9,35.7,3.9c7.2-0.6,14.2-2.4,21.3-3.6c8.6-1.5,16.9-1.4,25.1,2.2
			c15,6.5,30.2,7.3,46.1,2.4c13-4,26.5-4.3,39.4,0.9c13.3,5.3,26.5,4.4,40.1,2.1c6.3-1,12.8-1.8,19.1-1.6
			c15.8,0.5,31.1,3.3,46.2,8.4c13,4.4,26.4,6.9,40,1.3c3.4-1.4,7.3-1.7,11-2c4.4-0.3,8.9-0.1,14.3-0.1c0.4-13.1,1-25.3,0.9-37.6
			c0-2.8-2.1-5.9-4-8.2c-3.3-4.1-7.3-7.7-11-11.5c-11.8-2.9-23.5-0.4-35.2,2.8c-2.3,0.6-4.7,0.7-7.1,1.1
			c-14.5,2.3-28.2-1.7-41.6-6.3c-13.1-4.4-25.6-4-38.5-0.2c-5.8,1.7-12,2.6-18,3.1c-8.6,0.8-17.1-0.8-25.1-4
			c-6.9-2.8-13.7-1.4-20.4,0.5c-1.4,0.4-3.4,1.2-3.9,2.3c-2.9,6.2-5.8,12.5-8.1,18.9c-1.8,5-2.1,10.5-4,15.4
			c-2.1,5.2-8.9,8.9-12.9,7.4c-5-1.9-7.4-6.3-7.4-11.3c0-4.8-1.9-8.3-4.5-12.2c-5.5-8.2-5.8-9.4,0-15.2
			C583.1,52.8,582.5,49.8,580.5,46.4z M11.5,662.5c0.4,0,1.3,0.2,1.9-0.2c8.6-5.8,17.2-4,25.9-0.2c1.7,0.7,3.5,1.3,5.2,2.1
			c11.1,4.6,22.4,7.1,34.3,3.5c6.9-2.1,13.8-4.2,20.8-6c8.1-2.2,16.2-3.4,24.4,0c7.4,3.1,14.8,6.2,22.4,8.7
			c10.8,3.4,21.8,5.4,32.9,0.6c5.7-2.4,11.5-4.5,17.3-6.4c12.1-3.8,23.7-1.8,35.2,2.7c20.4,8,40.7,10.1,61.5,0.5
			c9.1-4.2,19.3-6.5,29.7-3.8c7,1.8,14,3.6,20.9,5.7c16.8,4.9,33.3,6.9,50.3,0.1c9.2-3.7,19.3-6.1,29-4.7
			c15.3,2.2,30.5,4.7,46.1,4.5c7.1-0.1,11.7-1.5,15.4-7c1.1-1.5,2.5-2.8,3.6-4.3c3.8-5,8.4-8.1,15.1-7.1c1.6,0.2,3.4-0.3,5.7-0.5
			c-2-3.3-3.5-5.8-5-8.2c-1.3-0.1-2.4-0.5-3.4-0.3c-9.2,1.5-17.9,1.1-25.9-4.7c-1-0.8-3.2-0.7-4.5-0.2c-9.2,3.3-14,1.2-21-9.5
			c-4.9-7.6-4-12.2,2.5-18.4c1.6-1.5,3.2-2.8,5-4c3.6-2.3,7.4-4.4,12.6-7.6c-5.6-1.2-9.4-2.3-13.3-2.8c-4.7-0.6-9.8-1.8-14.1-0.7
			c-6.9,1.9-13.5,3-20.1,0.8c-2,2.6-3.3,5.8-5.6,7c-8.2,4.4-16.8,8-25.1,12.1c-5.1,2.4-10.3,4.7-15,7.7
			c-10.3,6.8-21.1,12.6-32.8,16.5c-12.8,4.3-25.3,10.5-39.6,8.5c-3.7-0.5-7.5-0.3-11.2-0.1c-7.9,0.4-13.4-3.1-16.9-9.9
			c-1.3-2.6-2.3-5.4-3.1-8.2c-1.7-5.7-4.1-11-8.7-15c-5.2-4.5-4.9-10.5-3.8-16.4c0.5-2.6,3-4.8,5.5-8.7c-10.9,5.4-20.7,4.2-30,0.7
			c-15.8-5.8-30.8-4.8-45.9,2.2c-12.2,5.7-25.2,6.7-38.4,4c-7.3-1.5-14.6-3.1-22-4.4c-9.4-1.7-18.6-1.7-27.6,2.1
			c-5.4,2.3-11,4.1-16.5,6.2c-7.4,2.8-15.3,3.7-22.8,2c-10.4-2.3-21.1-4.7-30.7-9c-7.3-3.3-13-2.4-20.4,0.7
			C11.5,615.9,11.5,639.1,11.5,662.5z M947.9,228.8c-3.8,0.6-6.4,0.8-8.8,1.5c-27.9,8.2-54.4-0.2-71.6-21.3
			c-2.1-2.5-3.7-4.5-7.8-4.3c-3.9,0.3-8-0.9-11.7-2.2c-8.1-2.7-16.1-2.7-24.4-0.9c-7.8,1.7-15.8,3.3-23.7,3.2
			c-7.9-0.1-15.9-2.1-23.6-3.9c-21.1-5-42-7.5-63.3-0.8c-4.2,1.3-9.1,2.1-13.4,1.6c-9-1.2-17.9-3.1-26.6-5.4
			c-10.5-2.8-20.7-4.2-31.6-2.4c-11.6,1.9-23.3,2.9-35,4c-12.6,1.2-24.9-0.7-36.8-5.3c-3.6-1.4-7.9-1.8-11.7-1.3
			c-6,0.7-11.9,2.5-17.7,3.8c-2.7,12.6-9.2,22.2-20.1,28.9c-8.7,5.4-9.5,8.2-7,19.5c8.6-2.7,17.2-5.4,25.8-8.1
			c0.7-0.2,1.6-0.1,2.3,0c9.9,2.5,20.5,2,29.6,8.1c3.5,2.3,5.7,4.4,5.8,8.7c0.1,4.9,0.6,9.8,1,15.3c9.2-3.5,17.3-3.9,25.9-1.2
			c9.4,3,19.4,4.8,29.2,2.8c8.4-1.8,16.7-3.3,25.2-4.6c7.3-1.1,13.7,0,20.2,2.8c12.4,5.3,25.4,6.5,38.4,3.2
			c14.4-3.7,28.2-3.7,42.4,1.3c13.5,4.7,27.4,6,41.8,3.1c12.3-2.5,25-1.4,37.3,1.3c13,2.9,25.7,3.6,38.9,1.3
			c10.9-1.9,22-3.8,33.4-1.3c13.1,2.9,26.6,4.1,40.7,2C949.9,262.2,948.9,246.2,947.9,228.8z M402.1,381.9c-3.2,0.2-5.6,0.5-8,0.6
			c-6.4,0.2-13,1.6-19.1,0.4c-17.6-3.6-34.4-1.8-51.2,4.3c-5.1,1.9-10.9,2.7-16.4,3c-10.5,0.5-20.8-1.1-30.8-4.2
			c-21.8-6.6-43.6-6.9-65.4,0.2c-10.7,3.5-21.8,5.2-33.1,5.5c-16.8,0.4-32.9-2.8-48.7-8.4c-11.9-4.2-23.7-5.3-35.7,0.3
			c-5.3,2.4-11.2,3.7-16.9,4.8c-10.1,1.9-19.9,2.1-29.7-2.7c-8.7-4.2-18.2-6-27.9-2.3c-2.6,1-5.6,0.9-8.5,1.4c0,21.4,0,42.5,0,63.3
			c2.4,0.2,5,0.3,7.6,0.8c8.4,1.7,16.8,3.2,25.1,5.4c13.4,3.6,25.9,1,38.3-4c3.7-1.5,7.3-3.3,11-4.8c8.3-3.4,16.8-3.5,25.1-0.3
			c8.8,3.4,17.6,6.2,27,7.4c12.6,1.7,25,2.3,36.8-3.7c5.6-2.8,11.4-2.9,17.2-1.6c8.1,1.7,16.1,3.9,24.1,6
			c12.5,3.2,24.8,5.5,37.7,1.4c5.6-1.7,12.1-0.4,18.2-0.3c3.7,0,7.5,0.5,11.2,0.5c10.7,0,21-5.1,32.5-1.2c-0.4-3-1.2-5-1-7
			c0.4-3.8,0-8.3,4.5-10.4c5-2.2,7-6.4,7.5-11.5c0.5-5.7,4-9.3,8.9-11.5c5.3-2.4,10.8-4.6,17-3.7c2,0.3,4-0.2,6.2-0.3
			c0.5-5.8,2.6-10,8.4-10.7c7.8-0.9,15.4-0.8,21.8,5.2c6.4,6,6.7,5.8,14.3,0.8c4.6-3,6.8-3.6,10.8,0.3c3.9,3.8,7.1,8.7,9.3,13.7
			c3,6.8,4.7,13.9,10.5,19.5c2.9,2.8,4.1,7.4,5.9,11.3c1.1,2.6,1.8,5.4,2.7,8c1.4,0.1,2.3,0.3,3,0.1c9.8-2.9,19.4-1.9,29.1,0.7
			c3.8,1,7.9,1.6,11.9,1.6c2.8,0,5.8-1,8.3-2.3c1.2-0.6,2.3-3.1,2-4.5c-0.3-1.3-2.4-3.1-3.7-3.2c-4,0-7.9,0.7-11.9,1.1
			c-5.3,0.6-10.6,2.2-15.8,1.7c-6.6-0.6-13.2-2.8-16.3-9.8c-3-6.8-3.5-13.8-0.3-20.8c3.1-6.8,4.6-14.3,10-19.8
			c0.8-0.8,0.8-2.3,1.6-5c-6.8,3.7-12.1,7.2-17.8,9.6c-2.9,1.2-6.8,1.4-9.9,0.8c-7.2-1.4-10-7.3-11.5-14.5
			C414.6,400.2,408.2,391.8,402.1,381.9z M362.7,250.4c3.7-4.3,6.4-7.8,9.5-11.1c4-4.3,6.7-8.9,6.2-15c-0.5-6.9,1.8-12.8,7.1-17.1
			c3.9-3.2,8.5-5.5,12.6-8.4c2.4-1.6,4.8-3.3,6.7-5.5c3.1-3.6,5.8-7.5,8.7-11.3c-10.8-4-13.2-4.1-23.7-3.9c-7.8,0.2-15.2,1.7-22.7,4
			c-15.2,4.5-30.2,1.8-44.9-2.8c-15.1-4.7-30.5-4.4-44.9,0.8c-8.6,3.2-17,4.3-25.4,3.6c-10.8-0.8-21.5-3.1-32.1-5.3
			c-6.6-1.4-13.2-2.7-19.8-1.6c-12,1.9-23.9,5.3-36.3,4.2c-5.5-0.5-11.2,0-16.6-1.2c-10.9-2.4-21.4-6-32.3-8.4
			c-4.5-1-9.5-0.9-14.2-0.2c-6.3,0.9-12.4,3.5-18.8,4c-9.8,0.7-19.8,1.3-29.5-0.1c-7.7-1-15.1-5-22.6-7.5c-1.2-0.4-2.6-0.3-3.8,0
			c-5.5,1.4-11.1,3.1-16.8,4.7c2.3,5.6,4.2,10.9,6.5,16c3.6,7.8,4.6,15.8,3.4,24.2c-0.9,6.5-1.3,13.1-2,20.4
			c2.4-0.6,4.2-0.8,5.9-1.4c7-2.7,13.8-1,20,2c7.4,3.6,15,5.2,23.1,5.5c11.9,0.5,23.5-1.3,35-3.4c11.9-2.1,23.5-1.4,34.5,3.5
			c17.5,7.8,35.8,7.9,54.2,5.8c17.4-1.9,34.6-1.9,51.7,2.6c13.7,3.6,27.2,4.3,41-0.4c12.6-4.2,25.7-5.1,38.7-1.2
			C335.1,250.2,349,251.4,362.7,250.4z M954.2,358.4c0-7.5,0.3-13.7-0.1-19.8c-0.8-14.7-2-29.3-2.9-44c-0.4-6.3-0.6-6.6-6.9-7
			c-10.1-0.6-20.3-0.6-30.3-2.2c-11.5-1.8-22.8-2.1-34.1,0.3c-15,3.1-29.6,2.3-44.5-1.2c-11.4-2.7-23.3-3.7-34.9-1.5
			c-15.9,3.1-31.4,1.8-46.5-3.5c-11.3-4-22.2-4.3-33.7-1.1c-14.3,4.1-28.7,3.3-42.4-2.4c-6.4-2.6-12.7-4.2-19.4-3.2
			c-7.1,1-14.2,2.8-21.3,3.5c-7.6,0.7-15.4,1.3-23,0.7c-6.3-0.5-12.4-3.1-18.6-4.6c-2-0.4-4.2-0.4-6.2,0c-12.8,2.7-12.8,2.8-18,14.9
			c-0.9,2.2-1.7,4.5-2.5,6.8c-3.7,11.2-7.3,22.4-13.5,32.5c-0.6,1-0.8,2.3-1.3,3.9c1.9,0,3.3,0.4,4.4-0.1
			c11.2-4.7,21.3-2.1,31.3,3.7c2.9,1.7,6.6,2.7,9.9,2.6c5.5-0.2,11.2-1,16.6-2.4c16.1-4.2,32-5.1,48.3-1.1
			c22.2,5.4,44.7,7.6,67.6,3.7c13.4-2.3,26.6-0.5,39.4,4c15.1,5.4,30.6,7.5,46.6,5.6c17.6-2,35.1-1.8,52.1,3.8
			c7.8,2.6,15.7,3.7,23.7,2.6c17-2.2,33.6-0.8,50,3.7C946.8,357.7,950,357.8,954.2,358.4z M948.1,214.3c0-3.2,0-5.8,0-8.5
			c0-13.3,0-26.7,0-40c0.1-12-0.1-24.1,0.4-36.1c0.8-18.9,2.9-37.8,3.1-56.8c0.2-18.7-1.3-37.4-1.9-56.1c-0.1-3.9-2.3-5.2-5.5-5.4
			c-11.4-0.8-22.8-1.9-34.2-1.9c-24.6,0-49.2,0.6-73.9,1c-4.7,0.1-9.3,0.9-13.9,1.3c0,10.3,0.9,19.7-0.3,28.9
			c-1,7.7-0.4,13.7,6.3,18.3c2.9,2,4.4,4.7,4.3,8.1c-0.4,10.9-0.9,21.9-1.4,32.8c-0.3,5.1-0.1,9.9,2.9,14.6
			c4.3,6.8,4.8,14.9,4.2,22.5c-0.8,9.2,0.6,17.3,5,25.3c2.5,4.6,4.1,9.8,5.6,14.8c1.5,4.9,3.7,8.5,8.5,10.9c4.7,2.4,9,5.7,13,9.1
			c3.4,2.9,6.1,6.7,9.3,9.9c7.7,7.9,16.6,13.2,28.2,12.6c5.9-0.3,11.8,0.1,17.7-0.1C933.1,219.4,940.4,217.8,948.1,214.3z
			 M404.1,330c-1.6-0.2-2.7-0.5-3.7-0.4c-12.5,1.5-24.1-2.6-36-5.4c-9-2.1-18.3-3.8-27.6-4c-8.2-0.2-16.5,1.6-24.6,3.1
			c-11.3,2.2-22.3,1.6-33.3-1.5c-14.1-4-28-4.3-42.6-1.4c-14.9,2.9-30.1,3.9-44.8-3c-7.7-3.6-16.2-4.9-25-3
			c-9.1,1.9-18.6,2.2-27.7,4.1c-9.7,2-18.9,0.6-27.3-3.5c-10.6-5.2-21.4-3.7-32.2-2.8c-8.7,0.7-16.9,3.4-25.9,3.6
			c-8.1,0.2-15.5-0.7-22.4-4c-7.3-3.5-13.6-2.4-20.4,0.8c0,21.3,0,42.3,0,63.8c2.8-0.6,4.9-0.8,6.9-1.5c10.6-3.5,20.9-1.5,30.4,3
			c8.4,3.9,16.7,3.8,25.1,2.4c7-1.2,13.8-4.2,20.7-6.2c4.3-1.2,8.8-3.1,13.1-2.9c7.6,0.5,15.5,1.4,22.8,3.8
			c27.2,8.9,54.4,10.6,81.9,1.7c20.4-6.6,40.9-6.6,61.5-1c8,2.2,16.2,3.9,24.4,4.7c9.3,0.9,18.4,0,27.6-3.4
			c14.1-5.3,29.1-6.8,44.2-4.5c3.7,0.6,7.4,1.5,11.1,1.4c7.2-0.2,14.3-1.1,20.6-1.6c6.7-8,13.2-15.8,20-23.9
			C403.6,345.9,400.8,342,404.1,330z M364.8,260.9c-2.2-0.2-3.8-0.6-5.3-0.5c-14.6,1-28.8-1.3-42.8-5.2c-8.7-2.4-17.4-2.5-26.2-0.1
			c-4.6,1.3-9.3,2.8-14,3.5c-5.5,0.9-11.2,2-16.6,1.4c-10.2-1.2-20.6-2.7-30.5-5.5c-12.3-3.4-24.4-2.4-36.4-0.1
			c-12.9,2.5-25.5,1.3-38.2,0.2c-5.9-0.5-11.4-2.3-16.8-4.9c-11.1-5.4-22.8-6.6-35.2-4.5c-12.1,2-24.3,4.7-36.6,3.3
			c-7.1-0.8-14.6-1.7-20.8-4.9c-10.1-5.1-19.3-4.4-28.5,0.1c-2.2,19.5-4.4,38.5-6.5,56.9c1.1,0.8,1.3,1,1.5,1c0.8,0.1,1.7,0.3,2.4,0
			c6.2-2.6,11.8-0.7,17.8,1.5c5.4,2,11.4,2.6,17.1,3.3c10.3,1.2,20.1-2,30.1-3.5c10.6-1.5,21.1-2.5,31.4,2.6
			c8.8,4.3,18.3,5.3,28.2,3.4c9.4-1.8,19.1-2.4,28.6-4.2c8-1.6,15.7-0.5,22.7,2.8c16.6,7.7,33.5,6,50.4,2.9c11-2,21.7-2.4,32.6,0.4
			c11.9,3,24,5.5,36.5,4c5.8-0.7,11.7-0.9,17.5-2c12.9-2.4,25.6-1.9,38.1,2c13.8,4.3,27.6,7.6,42.5,4.8c-0.7-8.6,2.6-15.8,9.4-21.3
			c-5.2-8.9-14.8-13.8-18-23.7c-5.8-4-5-9.2-1.6-16c-3.9,1.7-6.4,2.7-7.9,3.4c-5.1,15-2.6,31-12.8,43.1c-2.9-0.7-4.9-1.2-7-1.7
			c-7.1-1.5-11-6.8-9.6-13.9c0.6-3.1,1.9-6.1,3.2-9C365.9,274.3,366.3,268.1,364.8,260.9z M467.9,680.1c-7.4-0.5-13.3-0.6-19-1.3
			c-6.9-0.8-13.7-2.2-20.6-3.3c-11.5-1.9-22.2,0.9-33.1,4.2c-7.4,2.2-15.1,4.6-22.6,4.5c-12-0.1-23.8-2.9-35.3-6.5
			c-6.1-1.9-12.4-3.5-18.7-4.2c-9.5-1.1-18.5,1.7-27.3,5.3c-9.9,4.1-19.9,6.5-31.1,5.1c-12.1-1.5-23.4-5.6-34.8-9.2
			c-8.3-2.7-16.6-4-25.1-1c-5.8,2-11.8,3.8-17.3,6.4c-8.7,4.1-17.8,4.1-26.6,2c-8.5-2-16.7-5.5-24.9-8.8
			c-12.5-5.1-24.6-5.2-37.4-0.2c-14.4,5.6-29.4,8-44.5,1.9c-6.2-2.5-12.3-5.2-18.7-7c-3.1-0.8-6.8-0.1-10,0.8
			c-3.2,0.9-6.1,2.9-9.3,4.5c0.3,18.4-0.9,36.5,2.2,54.7c1.4-0.5,2.2-0.7,2.8-1.1c10.5-5.4,21.2-6.9,32.4-1.7c1.3,0.6,3,0.4,4.6,0.5
			c11.7,1,22.1-3.4,32.5-7.7c11.2-4.7,21.6-4.2,32.3,1.5c3.9,2.1,8.5,3.4,12.9,3.7c11,0.8,21.9,0.3,32.5-3.2
			c9.9-3.3,19.8-2.4,29.8,0.6c14.1,4.2,28.3,8.7,43.2,7.5c7.9-0.6,15.8-2.4,23.7-3.8c9.2-1.7,18.2-5.4,27.6-3.8
			c14.5,2.4,28.9,5.2,43.3,8.1c12.4,2.6,24.7,4.9,37.3,1.5c4.6-1.2,9.4-2.3,14.1-2.7c10.3-0.9,20.6-3.5,31-0.6
			c4.9,1.4,9.8,3.1,14.7,3.7c7.3,0.9,14.7,0.8,23.2-3.1c-3.1-0.4-4.6-0.6-6.1-0.9c-5.2-1-7.6-3.7-7.1-8.8c0.2-2.6,1-5.4,2.4-7.4
			c3.6-4.9,7.8-9.5,11.9-14C457.4,690.9,462.4,685.9,467.9,680.1z M813.6,12.3c-5.4,0-9.6-0.2-13.8,0c-5.8,0.3-11.7,1.1-17.5,1.2
			c-18.5,0.2-36.9,0.3-55.4,0.2c-22.2-0.2-44.3-0.8-66.5-0.9c-15.4,0-30.9,0.5-46.3,0.8c-1.3,0-2.7,0-4,0.1c-29.3,1-58.7,2.2-88,3.1
			c-8.5,0.2-17.1-0.6-25.6-0.7c-10.4-0.1-20.8,0.4-31.2,0.1c-23.8-0.7-47.5-2-71.3-2.4c-21.8-0.3-43.7-1.1-65.4,0.7
			c-24.5,2.1-49,2.9-73.5,3.5c-17.3,0.4-34.7-0.7-52.1-1.2c-8-0.2-16-0.7-24-0.9c-9.3-0.1-18.6,0-28,0c-9.3,0-18.5,0-27.8,0
			c-9.3,0-18.7,0.2-28,0.2c-5.3,0-10.6,0.1-16,0c-2.4,0-4.8-0.4-7.1-0.3c-9.7,0.3-19.4,3.4-29.2,0.2c-1.3-0.4-3.1,0.5-4.7,0.7
			c-4.5,0.6-9.1,2.1-13.4,1.5c-10.7-1.5-15,0.8-16.4,10.9C7.8,33.1,8.3,37,8.3,41.5c2.2-0.5,3.5-0.5,4.7-1c9.1-4.1,18-3.5,27.1,0.3
			c3.8,1.6,8.3,2,12.6,2.2c10.1,0.4,20.2-0.5,30.1-3c4.9-1.2,9.9-2.3,14.9-3.1c12.6-2.1,24.7-0.2,36.9,3.5c17.2,5.2,34.4,5.7,52,0.3
			c13.3-4.1,27.4-4.9,41.3-3.8c18.3,1.4,36,6.1,54.5,7c14.5,0.7,28.9,0.6,43-2.3c24.7-4.9,49.4-6.1,74-0.2c20.6,4.9,41.1,3.7,61-2.5
			c21.2-6.5,42-6.7,63.2-1.4c9.3,2.3,18.4,2.5,27.7-0.1c7.2-2.1,14.7-3.8,22.1-1.3c6,2.1,12,1.3,18,0.7c2.8-0.3,5.8-1.4,7.9-3
			c1.2-0.9,0.9-3.8,1.4-5.8c0.8-3.6,3.1-5.6,6.7-6c5.8-0.7,12.9,6.9,12.1,12.9c-0.3,2.2-0.4,4.4-0.7,7.4c10.7-3.9,19.8-2.7,29.4,0.2
			c11.9,3.6,24.1,3.4,36.3-0.7c11.8-3.9,24-5.2,36.3-1.2c7.9,2.6,15.9,4.6,23.9,6.6c6.5,1.6,13,2.7,19.8,1c6.2-1.6,12.5-3,18.8-3.7
			c8.6-1,17.3-1.3,25.9-1.9C810.5,33,811.9,23.3,813.6,12.3z M268.4,602.2c1.3,0.9,2.5,1.9,3.8,2.8c5,3.5,7.4,7.8,7.1,14.2
			c-0.6,10.2,3.3,14.7,13.4,16.4c19.3,3.2,37.1-0.6,53.1-12.1c15.3-11,31.1-20.8,50-24.3c1.6-0.3,3.1-0.9,4.6-1.5
			c5.7-2.3,10-5.7,12-12c2.9-9.4,6.4-18.6,9.6-27.9c2.3-6.7,1.3-13-2.5-19.1c-4.3-6.8-6.1-14-4.6-22.1c1.5-8.2-0.2-16.3-2.4-24.9
			c-11.3,0.8-17.3-5-19.4-15.2c-0.7-3.3-3.1-4.5-5.7-4.6c-2.8-0.1-5,1.6-5.9,4.6c-2.2,7.4-8.2,9.8-15.1,11.7c-2.7-2.9-4.9-6-7.8-8.3
			c-3-2.5-6.6-4.2-9.8-6.5c-3.6-2.6-4.6-6.4-4.2-10.7c0.4-4.2,3.2-5.8,7-6.5c0.9-0.2,1.7-1.1,2.7-1.7c-0.5-1.2-1.1-2.1-1.3-3.1
			c-1.9-6.6-0.5-9.3,6-11.6c1-0.4,2-0.6,3.1-0.9c6.9-1.7,6.9-1.7,7.9-8.7c0.2-1.3-0.2-3,0.4-3.9c1.3-1.9,3.4-4.9,4.6-4.7
			c5.8,1.1,8.5-3.2,12.5-5.9c-2.5-6.3-7-7.7-12.7-7.5c-0.4,9.6-1.4,10.5-10.7,11c-5,0.3-10.1,1.1-15.1,1.8c-3.5,0.5-6.3,2.6-6.5,6.2
			c-0.3,6.6-2.5,12.2-7.3,16.8c9.5,5.6,9.6,6.9,3.8,15.6c-2.7,4.1-7.4,7.8-5.1,13.8c-1.4,0.8-2.3,1.3-3.2,1.8
			c-5.1,2.7-10.4,0-15.6,0.5c-3.9,0.4-7.4,0.2-10.8-2c-1.7-1.1-4-1.8-6-2c-5.9-0.6-11.4,1.1-15.1,5.6c-3.2,3.9-1.7,8.7,0.5,12.8
			c0.8,1.5,2.2,2.8,3.5,4c2,1.7,4.1,3.1,5.3,4c-0.2,9.8-7.8,13.7-13.7,20.7c8.1,1.9,14.8,3.1,21.3,5.1c3.7,1.1,7.4,3,10.5,5.3
			c4,3,4.2,6.4,1.3,10.6c-1.7,2.4-3.9,4.5-6,6.4c-2.6,2.4-3.9,4.7-2.2,8.4c3.2,7.1,0,12.6-5.7,16.5c-3.2,2.2-4.6,4.7-5.1,8.5
			c-1.7,11.5-5.5,15.3-16.7,16.7C272.7,596.7,269.7,598,268.4,602.2z M954.3,461.5c-13.3-0.9-25.2-1.8-37.1-2.4
			c-10.6-0.6-21.3-1.1-31.9-1.1c-4.5,0-8.9,1.5-13.4,1.9c-13.7,1.3-27.1-1.1-40.3-4.6c-16.9-4.4-33.6-5.7-50.6-0.5
			c-4,1.2-8.5,2.1-12.6,1.6c-15.3-2.1-30.7-4-45.8-7.5c-10.8-2.5-21-2.4-31.6,0.4c-14.2,3.8-28.7,4.9-42.5-0.9
			c-8.4-3.5-15.8-2.2-24.2,1.4c13.1,21.7,26.8,42.6,34.7,67.2c11.9-5.1,23-6.1,34.4-2.3c3,1,6.2,1.4,9.3,2.2c11.9,3,23.6,4,35.3-1.2
			c7.7-3.5,16-4.2,24.4-2.4c7.6,1.6,15,3.7,22.6,5.3c8.4,1.7,16.7,3.4,25.4,2c8.4-1.4,17-1.9,25.4-2.8c9.8-1.1,19.7,0.8,29.5-1.7
			c7.2-1.8,14.6-3.4,21.9-4.3c5.1-0.6,8.7-2.7,11.1-6.8c5.1-8.9,12.8-10.7,22.5-10c10.6,0.8,21.4,1.6,32.6-2
			C955,482.4,954.5,471.6,954.3,461.5z M954.5,369c-8.3-1.9-15.2-4.1-22.3-4.9c-10.6-1.2-21.3-2.5-31.8-1.7
			c-11.9,0.8-23.4,0.9-34.8-2.8c-14-4.6-28.3-6.1-42.8-4.1c-17,2.4-33.8,1.5-49.8-4.2c-16.7-5.9-33.5-6.1-50.5-3.8
			c-14.7,2-29.2,2.2-43.7-1.7c-7.7-2.1-15.7-3.4-23.6-4.7c-4.4-0.8-9-1.7-13.4-1.2c-9.8,1.1-19.5,2.9-29.2,4.8
			c-10.6,2.1-20.6,2-29.9-4.4c-5.7-3.9-12-4-18.4-1.6c-2.2,0.8-4.5,1.6-5.4,1.9c-2.4,5.1-4.2,9-6.3,13.6c2.7,0.3,5.5,0.8,8.3,0.9
			c7.1,0.4,13.1,3.4,17.4,8.8c5.1,6.5,9.6,13.5,13.9,20.5c3.8,6.2,4.1,6.6,10.6,4.5c2-0.7,3.9-1.8,5.9-2.6
			c5.6-2.1,11.2-3.4,17.1-0.8c3.4,1.5,7.1,2.6,10.7,3.2c12.9,2.2,25.7,4.3,38.9,3.9c11-0.4,21.8-0.9,32.6-3.4
			c13.2-3,26.5-3.7,39.6,1.1c10.2,3.7,21,3.8,31.6,4.7c4.2,0.3,8.5-0.3,12.7-1c11.3-1.9,22.6-4.5,34.1-2c8.3,1.8,16.6,3.8,24.8,6.2
			c11.2,3.3,22.7,5.7,33.9,2.2c14.4-4.4,28.3-5.2,42.4,0c2.3,0.8,4.6,1.5,6.9,1.9c6.8,1.3,13.6,2.3,20.8,0
			C954.5,390.8,954.5,379.7,954.5,369z M856.8,742.9c11.6,0,22.3,0.2,32.9,0c11.5-0.2,23-1.1,34.5-1.3c6.7-0.1,13.3,0.8,20,0.9
			c6,0.1,7.1-1,7.3-6.9c0.3-8,0.4-16.1,0.2-24.1c-0.6-23.6-1.8-47.1-1.9-70.6c-0.1-22.2,1-44.4,1.4-66.6c0.3-17.1,0.3-34.3,0.6-51.5
			c0.1-4.4,0.5-8.9,0.7-12.7c-7.4-0.1-14.2,0-20.9-0.4c-5.6-0.3-11.1-1.5-16.6-1.9c-1.9-0.1-4.5,0.7-5.7,2
			c-2.9,3.3-5.1,7.2-7.6,10.9c1.3,1.6,2.2,2.6,3,3.7c8,10.6,11.2,34.4-4.8,45.4c-4.3,3-4.2,5-1.1,9.3c2,2.8,4.6,5.4,5.6,8.6
			c2.7,9.1-1.3,16.2-11.4,19.9c-5.7,2.1-11.8,3.2-17.7,4.8c-7.3,2-9.4,6.1-6.7,13.2c0.7,1.7,1.7,3.3,2.6,5c4.4,8.7,5.2,17.3,0,26
			c-2.2,3.7-4.1,7.5-6.1,11.3c-2.3,4.6-2.2,9,0,13.9c2.5,5.6,4.6,11.4,5.9,17.4c1.1,5,1,10.3-2.9,14.4
			C860.7,721.3,858.9,731.2,856.8,742.9z M279.8,464.8c-7,0-13.7-1.4-19.5,0.3c-10.3,3.1-20,2.6-30,0c-9.3-2.4-18.6-4.9-27.8-7.5
			c-6.4-1.8-12.5-1.6-18.8,1c-5.1,2.1-10.7,3.8-16.2,4.3c-15.1,1.4-30.2-0.2-43.9-6.6c-12-5.6-23.1-5.2-34.4,1
			c-0.7,0.4-1.4,0.7-2.2,1c-14.1,6.4-28.6,8.2-43.8,4.5c-7.5-1.9-15.1-3.5-22.7-4.9c-8.1-1.5-11.5,1.3-11.7,9.5
			c-0.2,7.5-0.5,15-0.5,22.5c0,9.5,0.4,19.1,0.6,29c4.8-1.4,8.8-2.8,12.9-3.6c2.2-0.4,5.1-0.5,6.9,0.6c7.6,4.6,16.2,5.6,24.6,6.7
			c5.7,0.7,11.7,0.8,17.4-0.2c10-1.8,19.7-4.7,29.5-7.2c4.4-1.1,8.6-1.9,13.3-1c12.1,2.3,24.2,4.5,36.3,5.9
			c12.1,1.4,24.5,4.5,36.6,0.7c15.7-4.9,31.3-5.4,47.4-2c12.6,2.7,25.4,2.4,38.3-0.3c-0.2-7.7,6.4-11.1,10.4-16.3
			c-6.9-3.3-6.9-3.4-7-9.5c0-1.8-0.1-3.7-0.5-5.5c-1.6-6.5-1.7-12.7,2.9-18.2C278.8,467.9,279,466.6,279.8,464.8z M11.6,581.7
			c7.2-4.5,12-2.4,17,0.9c2.3,1.6,5.4,2.1,8.3,2.9c6.1,1.8,12.4,3.2,18.5,5.2c8.7,2.8,17.3,2.6,25.9-0.5c6.8-2.5,13.6-5,20.4-7.5
			c5.3-2,10.8-3.2,16.5-2.4c9.2,1.3,18.6,2.2,27.7,4.3c14.6,3.3,28.6,2.8,42.4-3.3c2.7-1.2,5.6-1.9,8.3-2.9
			c12.3-4.6,24.5-4.3,36.9,0c9.5,3.3,19,5,29,0.8c3.1-1.3,7.4-0.4,11-0.1c2.8,0.3,5.6,1.2,8.7,1.9c0.9-7.6,4.3-13.2,10.1-17.1
			c3.5-2.4,3.9-5.6,2.4-9.1c-2-4.7-0.6-8.9,1.2-13.1c0.6-1.3,1.2-2.6,1.7-3.6c-4.7-1.9-8.7-4-12.9-5.3c-5.3-1.6-11-4.2-16.1-3.4
			c-12.7,2-25.1,0.6-37.4-1.8c-12.6-2.4-25.1-2.5-37.2,1.5c-7.9,2.5-15.8,3.3-23.8,2.5c-11.4-1.1-22.7-3-34.1-4.6
			c-7.4-1-14.8-2.8-22.2-3.1c-5.5-0.2-11.1,1-16.6,2.1c-4.4,0.9-8.7,2.7-13.1,3.8c-16.8,4.1-33.7,4.2-49.5-3
			c-7.4-3.3-13.2-2.5-19.8,0.4c-3.5,1.5-4.5,3.9-4.3,7.6c0.5,8,0.8,16,1,23.9C11.7,565.7,11.6,572.6,11.6,581.7z M954.5,413.5
			c-10.4,1.7-19.2-0.2-27.9-3c-11.1-3.5-22.4-5.5-33.9-1.9c-15.4,5-30.4,3.7-45.5-1.8c-14.1-5.1-28.7-8.4-44-5.4
			c-4.9,1-9.8,2.8-14.8,3c-13.4,0.5-26.8-0.3-39.5-4.4c-13.5-4.3-26.8-4.3-40.3-1.4c-20.7,4.4-41.3,4.5-62.1,0.6
			c-5.8-1.1-11.8-1.5-17.1-3.8c-10.4-4.4-19-0.6-27.6,3.4c0.9,3.7,1.9,6.7,2.5,9.9c0.6,3.1,0.8,6.3,1.3,9.5
			c0.6,3.7,0.9,7.5,2.1,10.9c3.4,9.2,9.8,12.3,19.1,9.7c1-0.3,2.1-0.4,3.1-0.8c5.3-2,10.4-1.7,15.6,0.4c4.7,1.8,9.7,4.4,14.5,4.3
			c10.1-0.2,20.2-1.2,30.1-3.2c10.6-2.1,20.9-3.5,31.6-0.6c8.5,2.3,17.1,4.5,25.8,5.4c12.4,1.3,24.8,3.1,37.3-0.7
			c9.8-3,20.1-3.1,30.2-1.6c9.2,1.4,18.3,3.6,27.5,5.4c12.9,2.6,25.8,4.3,38.9,0.7c4.3-1.2,9-1.5,13.5-1.2
			c11.2,0.7,22.3,2.2,33.4,2.9c8.7,0.5,17.5,1.1,26-0.8C954.5,437.2,954.5,425.8,954.5,413.5z M854.5,671c3.2-7,5.3-13.7,9.1-19.4
			c5-7.6,3.9-14.4,0.2-21.8c-1.5-3-2.8-6.4-3.3-9.8c-1.1-7.8,2.4-16.6,11.8-17.8c6.1-0.7,12.1-2.2,17.9-4.3
			c8.6-3.2,9.4-6.8,3.7-13.8c-7.2-8.9-6.3-16.8,2.5-23.8c8.2-6.5,9.9-23,3.4-31.4c-2.4-3.1-5.2-4.8-9.3-4.6
			c-7.9,0.3-16-1.5-23.1,3.8c-7.7-1-12.9,3.8-19,8.4c0.4,6.2,0.9,12.9,1.3,19.5c0.9,14.4-3.5,22.7-14.9,28.4
			c-5.2,2.6-8.3,1.5-11.5-3.2c-2.4-3.4-2.5-7-1-10.7c1.1-2.7,2.3-5.4,3.1-7.3c-2.6-5-4.7-9.2-7.4-14.3c-0.7,4.3-1.5,7.9-1.9,11.6
			c-1.6,12.2-4.1,24.2-8.4,35.7c-2.1,5.7-5.9,10.3-11.3,13.1c-4.7,2.4-7.5,6.1-8.7,10.9c-1.8,7.6-6.1,13.5-11.5,18.9
			c-1.3,1.3-2.2,3.1-3.6,5c5.2,1.2,9.3,2.6,13.5,3c3.9,0.3,8.1,0.3,11.7-0.9c9.2-2.8,18.1-5.1,28.2-3.3c7.7,1.3,14.2,4.4,20.5,8.4
			c3.3,2.1,5.3,5.2,5,9.5c-0.1,2.1-0.3,4.4,0.2,6.4C852.1,668.7,853.6,669.8,854.5,671z M665.6,541.4c1.7-0.4,3-0.5,4.1-0.9
			c7.6-2.9,15.3-1.6,21.3,2.7c13.1,9.2,22.6,21.1,20.9,38.6c-0.2,2.4-0.8,4.7-1.4,7c-0.6,2.7-1.3,5.5-2.1,9c3.1-0.6,5.1-0.9,7.1-1.4
			c9.5-2.4,19-2.5,28.5,0.3c7.4,2.2,14.6,1.8,22.1,0.3c5.5-1.1,11.1-1.9,17.2-0.6c10.1,2.1,12.9-0.5,15.6-11.1
			c1.2-4.6,2-9.4,2.3-14.2c0.8-11.4,5.3-21.8,9.4-32.1c2.6-6.6,5.9-7.9,11.8-6.8c6,1.2,8.9,4.4,9.6,11c0.2,1.6-0.1,3.2,0.1,4.8
			c0.3,2,0.7,4.1,1.5,6c1.3,3.1,3,6,4.8,9.5c3.1-3.2,4.2-6.9,3-10.9c-2.3-8.1-3.5-16.1,0.4-25c-3.7,0.2-6.6,0.2-9.4,0.5
			c-8.8,0.8-17.5,1.9-26.3,2.6c-12.3,1.1-23.8-2.9-35.4-5.8c-10.9-2.8-21.6-4-32.2,0.6c-11.7,5.1-23.4,3.9-35.3,1.1
			c-6.5-1.6-13-3-19.6-4.3c-7.9-1.7-15.1,0.5-22.5,3.9C663,531.4,664.2,536.2,665.6,541.4z M14,747.6c7-0.7,13.1-1.5,19.2-1.7
			c21.4-0.7,42.8-1.2,64.2-1.6c8.2-0.2,16.5-0.1,24.7-0.3c6.4-0.1,12.8-0.9,19.2-0.6c11.7,0.6,23.4,1.9,35.2,2.6
			c14.1,0.8,28.3,1.6,42.5,2c18.7,0.6,37.5,1.1,56.2,1c23-0.1,46-0.3,69-1.8c22.2-1.5,44.3-3.1,66.5-3c2.7,0,5.3-0.3,8-0.3
			c16.6-0.2,33.2-0.8,49.7-0.5c13.6,0.3,27.2,2.2,40.8,2.3c21.4,0,42.7-1.2,64.1-1.4c22.8-0.2,45.6,0.1,68.4,0.2
			c3.7,0,3.7,0,5.7-4.7c-7.9,3-15.1,0.2-22.1-1.9c-12.5-3.6-24.7-3.4-37.1,0.4c-9.8,3-19.9,4.4-30,1.6c-19.3-5.3-38.2-5.7-57.4,1
			c-7.2,2.5-15.1,1.8-22.7-0.6c-9.3-2.9-18.7-3-28.5-1.3c-8.8,1.5-17.9,3.7-26.9,0.6c-4.2-1.4-8.6-2.7-13-3.5
			c-11.3-1.9-22.4-0.1-33.3,2.6c-12.3,3-24.4,5.1-37.1,1.5c-12.3-3.4-25.1-5.3-37.6-8c-10.9-2.4-21.7-2.9-32.5,0.5
			c-3.6,1.1-7.4,1.4-11,2.3c-13.4,3.6-26.9,4.2-40.5,1.2c-7.3-1.6-14.7-3-21.8-5.3c-11.5-3.8-22.8-5.3-34.4-1
			c-1.5,0.6-3,1.2-4.6,1.4c-14.1,2.3-28.2,3.8-41.4-3.7c-8.8-5-17.7-5-26.9-1.1c-3.4,1.5-6.9,3-10.4,4.2c-3,1-6.1,1.9-9.2,2.6
			c-9.9,2.2-19.6,0.3-29.1-2.4c-2.5-0.7-5.5-1.6-7.8-0.8c-6.3,2.1-12.2,5-18.3,7.5C13.7,741.1,13.9,743.7,14,747.6z M460,726.6
			c5.9,0.9,10.7,0.9,14.8,2.5c12.3,4.6,24.2,3,36.1-0.7c11.5-3.6,22.9-4.3,34.7-1.1c16.2,4.4,32.5,4.9,48.8-0.4
			c8.2-2.7,16.9-3.5,25.2-0.4c14.6,5.4,29.5,2.1,44.3,2c1.2,0,2.6-0.7,3.7-1.4c4.3-2.7,8.4-5.6,12.7-8.4c6.1-3.9,9.1-9.3,9.6-16.6
			c0.6-7.4,1.7-14.9,5.3-21.6c0.8-1.5,1.2-3.1,1.9-5c-11-0.1-14.1,0.8-21.6,5.9c-1.1,0.7-2.2,1.7-3.4,2
			c-11.4,3.7-22.7,7.8-34.4,10.6c-7.1,1.7-14.6,2.7-22.2,1c-14.6-3.4-29-2.2-43.2,3.1c-2.6,1-5.8,0.7-8.6,0.3
			c-7.6-1-15.2-2.4-22.8-3.6c-3.9,7.3-8.8,13.6-15.6,18.2c-1.9,1.3-4.2,2.6-6.4,2.6c-9.3,0-18.6-0.5-27.8-0.8
			c-2.1-0.1-4.4-0.6-6.2,0.2C477,718.5,469.2,722.3,460,726.6z M659.8,743.4c1.3,0.7,1.8,1.3,2.4,1.4c14.9,0.6,29.9,1.5,44.8,1.4
			c26.5,0,52.9,0.9,79.3-2.9c13.7-1.9,27.7-1.6,41.6-2.4c1.4-0.1,2.8-0.5,5.8-1c-2.7-1.7-3.9-3.1-5.1-3.1
			c-8.6-0.1-14.6-4.6-19.6-10.9c-1.8-2.3-3.6-2.5-6.2-2.5c-8.3,0-16.1-2.3-21.5-8.8c-4.8-5.6-9.1-11.8-12.7-18.2
			c-2.6-4.5-5.2-7.9-10.7-8.3c-1.3-0.1-2.5-0.8-3.8-1.1c-13.9-3.6-13.9-3.6-14.9-17.4c0-0.5-0.5-0.9-0.7-1.4c-3.4-2.6-6.6,0-9.9,0.6
			c-14.5,2.4-21.7,9.3-24.1,23.5c-0.5,3.2-0.7,6.4-0.9,9.6c-0.9,14.7-6.7,25.9-25.8,32.8C671.8,736.9,666.2,740.3,659.8,743.4z
			 M747.8,676.7c3.2,1,6.5,2.8,9.9,2.9c8.7,0.1,12.7,5.7,16.2,12.3c2.1,4,4.5,7.9,6.9,11.7c4.9,7.6,12,11.2,21.1,10.5
			c4.8-0.4,8.2,1.7,10.8,5.5c3.2,4.7,7.1,7.8,13.3,7.4c5.7-0.3,9.6,2.5,11.7,7.9c0.9,2.3,2.3,4.5,3.6,6.8c7.2-2.2,9.3-7.2,10.5-12.9
			c1.6-7.7,3.7-15,9.3-20.9c1.2-1.3,2-3.2,2.3-5c1.5-8.4-3.6-20-11.1-24c-4.4-2.3-6.2-5.6-6.6-10.1c-0.2-2.1-0.1-4.3-0.6-6.4
			c-0.4-1.7-1-3.9-2.2-4.7c-3.4-2-7.1-3.8-10.9-4.8c-10.6-2.6-21-1.2-31.2,2.7c-3,1.2-6.8,1.2-10.1,0.9c-7.2-0.7-14.2-2-21.4-2.9
			c-1.5-0.2-3.2-0.2-4.6,0.3c-4.5,1.5-8.9,3.1-13.3,4.8c-2.4,0.9-4.6,2.1-6.2,2.9C746,667.2,746.9,671.6,747.8,676.7z M504.8,467
			c-7.2,3.7-15.3,2.9-23.4,0.7c-4.1-1.1-8.4-2.9-12.5-2.5c-7.1,0.6-15.7-2.5-20.2,6.7c-0.5,1-2.1,1.7-3.3,2
			c-3.6,1.1-5.6,3.5-7.2,6.9c-2.4,5-4.7,10.2-9.7,13.5c-1,0.6-1.4,2.2-1.8,3.4c-2.2,7.3-2,14.6-0.6,22c11-1.6,11.2-2.1,21.3,3
			c8.3,4.1,16.6,3.1,25.1,2.6c1.2-0.1,2.8-0.8,3.4-1.8c4-6.2,10.3-5.2,15-3c8.4,3.8,14.9,1,21.7-3.1c6.2-3.7,11.8-7.7,9-16.4
			c-0.3-0.9-0.1-2.2,0.3-3.2c1.5-3.6-0.7-6-2.5-8.6C514.7,482.1,510.1,475,504.8,467z M440.1,461.5c-1.2-4.1-2.8-7.6-3-11.2
			c-0.3-4.8-2.5-8.2-5.9-10.9c-7.2-5.9-11-13.5-12.8-22.4c-0.3-1.7-1.4-3.3-2.1-4.8c-13.5,6.4-26.6,12.6-39.5,18.7
			c-1,4.2-0.8,9.7-3.4,12.4c-3,3.1-8.5,3.7-12.9,5.3c3.7,8.9,2.8,11.3-5.8,15.5c-1.2,0.6-2.3,1.6-2.9,2c4.2,3.9,8.1,7.4,11.8,11
			c2,1.9,3.9,2.4,6.5,1.2c3.8-1.6,5.4-4.9,7.3-8.1c4.3-7.2,9.4-8.3,15.8-2.8c2.7,2.3,4.4,5.8,5.9,9.1c1.5,3.4,3.3,7.2,7,6.7
			c6-0.9,12.9,3.5,17.9-2.8c0.8-1,1.5-2.4,1.5-3.6c-0.3-5.4,3.6-8.1,7.1-10.9C434.6,464.3,437.1,463.2,440.1,461.5z M687.4,636.4
			c3,1.4,4.8,2,6.3,2.9c1.8,1.2,3.5,2.5,5,4c4.3,4.5,4.4,8.5,0.4,13.3c-2.3,2.8-4.8,5.4-7.5,8.4c8.4,1.6,16.1,3.5,22.1-3.6
			c0.3-0.4,1-0.5,1.5-0.6c12.1-1.8,22.7-7,32.5-14.2c3-2.2,6.6-3.7,9.2-6.3c9.8-9.7,16.2-21.8,22-34.1c0.1-0.3-0.4-0.8-0.9-1.7
			c-4.3,0.7-8.7,1.8-13.1,2.1c-5.8,0.4-11.9,1.2-17.4-0.2c-9.3-2.4-18.4-1.9-27.8-1.5c-10.3,0.4-16.5,5-20.8,14
			C695.9,624.8,691.6,630,687.4,636.4z M473.1,533.6c-10.4,3.5-19.7,1.3-28.5-4c-5.8-3.5-11.5-3.3-17.5,0.2c1.3,3.3,2.5,6.5,3.8,9.8
			c3,7.7,3.4,15.3,0.4,23.4c-2.8,7.4-3.9,15.4-6.1,24.3c4.3-0.5,8.2-1,12-1.4c5.2-0.5,10.6-1.9,15.7-1.3c9.7,1.1,19.3,3.4,29.1,5.2
			c1-2.4,2.3-4.3,2.5-6.4c0.4-3.7,1-7.7-0.1-11.1c-0.7-2.1-4.3-3.3-6.6-4.8c-6.8-4.3-9.1-13.6-4.5-20.1
			C476.9,542.5,475.1,538.5,473.1,533.6z M423.3,246.8c5.3-10.8,5.3-10.8,15.9-15.6c4-1.8,4.8-4.8,2.5-9.2
			c-5.7-10.7-4.9-14.5,5.7-20.8c4.1-2.4,5.8-4.9,4.3-9.7c-0.7-2.4-0.1-5.2-0.1-8.9c-10,0.8-19.6,1.5-29.1,2.3c0.8,3,1.7,5.5,2.2,8.1
			c1.9,11.3,0.8,22.3-7.3,30.9c-7.5,8-14.2,16.5-19.9,25.8c6.2,3.6,6.8,3.5,9.5-2.3c0.3-0.7,0.5-1.5,0.9-2.2
			c2.8-5.4,5.1-6.1,10.1-2.7C419.6,243.6,421.2,245.1,423.3,246.8z M368.6,294c0.7,0.1,1.5,0.2,2.2,0.4c1.5-4.2,3.6-8.3,4.5-12.6
			c1.5-7.3,2.3-14.7,3.1-22.1c0.7-6.6,1.9-12.4,8.2-16.5c2.3-1.5,3.2-5.2,4.8-7.9c1.7-2.9,2.8-7.5,5.3-8.4c7.1-2.7,10.1-8.5,13-14.4
			c2.2-4.4,4.4-9.2,4.2-14.3c-5.9,3.8-11.2,7.8-17.1,10.8c-7.3,3.8-10.6,9.7-10.1,17.6c0.5,8-2.6,14-8.6,18.8
			c-3.2,2.5-4.7,5.7-4.4,9.8c0.2,2.7,0.1,5.3,0.4,8c0.9,7.9,0,15.3-3.7,22.5C369.1,288.1,369.1,291.2,368.6,294z M608.4,38.2
			c-3,1.3-5.9,2.5-7.4,3.1c-2,3.9-3.3,6.5-4.6,9.2c-2.1-1.2-4.3-2.3-7.1-3.8c3.5,7.3-0.6,12.3-5.4,17.4c2.5,3.2,5.2,5.9,6.8,9.1
			c1.6,3.2,2.2,6.9,3.6,11.9c1.9-7.9,3.8-14.5,5-21.3c1-5.9,1.8-11.7,6.5-15.9C608.7,45.3,609.5,42.2,608.4,38.2z M306.5,463.9
			c5,3,14.3,3.4,17.2,0.9C318.1,462.8,312.5,460.3,306.5,463.9z"/>
	</g>
	<path class="st4" d="M948.1,214.3c0-3.2,0-5.8,0-8.5c0-13.3,0-26.7,0-40c0.1-12-0.1-24.1,0.4-36.1c0.8-18.9,2.9-37.8,3.1-56.8
		c0.2-18.7-1.3-37.4-1.9-56.1c-0.1-3.9-2.3-5.2-5.5-5.4c-11.4-0.8-22.8-1.9-34.2-1.9c-24.6,0-49.2,0.6-73.9,1
		c-4.7,0.1-9.3,0.9-13.9,1.3c0,10.3,0.9,19.7-0.3,28.9c-1,7.7-0.4,13.7,6.3,18.3c2.9,2,4.4,4.7,4.3,8.1c-0.4,10.9-0.9,21.9-1.4,32.8
		c-0.3,5.1-0.1,9.9,2.9,14.6c4.3,6.8,4.8,14.9,4.2,22.5c-0.8,9.2,0.6,17.3,5,25.3c2.5,4.6,4.1,9.8,5.6,14.8
		c1.5,4.9,3.7,8.5,8.5,10.9c4.7,2.4,9,5.7,13,9.1c3.4,2.9,6.1,6.7,9.3,9.9c7.7,7.9,16.6,13.2,28.2,12.6c5.9-0.3,11.8,0.1,17.7-0.1
		C933.1,219.4,940.4,217.8,948.1,214.3z"/>
	<path class="st4" d="M268.4,602.2c1.3,0.9,2.5,1.9,3.8,2.8c5,3.5,7.4,7.8,7.1,14.2c-0.6,10.2,3.3,14.7,13.4,16.4
		c19.3,3.2,37.1-0.6,53.1-12.1c15.3-11,31.1-20.8,50-24.3c1.6-0.3,3.1-0.9,4.6-1.5c5.7-2.3,10-5.7,12-12c2.9-9.4,6.4-18.6,9.6-27.9
		c2.3-6.7,1.3-13-2.5-19.1c-4.3-6.8-6.1-14-4.6-22.1c1.5-8.2-0.2-16.3-2.4-24.9c-11.3,0.8-17.3-5-19.4-15.2
		c-0.7-3.3-3.1-4.5-5.7-4.6c-2.8-0.1-5,1.6-5.9,4.6c-2.2,7.4-8.2,9.8-15.1,11.7c-2.7-2.9-4.9-6-7.8-8.3c-3-2.5-6.6-4.2-9.8-6.5
		c-3.6-2.6-4.6-6.4-4.2-10.7c0.4-4.2,3.2-5.8,7-6.5c0.9-0.2,1.7-1.1,2.7-1.7c-0.5-1.2-1.1-2.1-1.3-3.1c-1.9-6.6-0.5-9.3,6-11.6
		c1-0.4,2-0.6,3.1-0.9c6.9-1.7,6.9-1.7,7.9-8.7c0.2-1.3-0.2-3,0.4-3.9c1.3-1.9,3.4-4.9,4.6-4.7c5.8,1.1,8.5-3.2,12.5-5.9
		c-2.5-6.3-7-7.7-12.7-7.5c-0.4,9.6-1.4,10.5-10.7,11c-5,0.3-10.1,1.1-15.1,1.8c-3.5,0.5-6.3,2.6-6.5,6.2
		c-0.3,6.6-2.5,12.2-7.3,16.8c9.5,5.6,9.6,6.9,3.8,15.6c-2.7,4.1-7.4,7.8-5.1,13.8c-1.4,0.8-2.3,1.3-3.2,1.8
		c-5.1,2.7-10.4,0-15.6,0.5c-3.9,0.4-7.4,0.2-10.8-2c-1.7-1.1-4-1.8-6-2c-5.9-0.6-11.4,1.1-15.1,5.6c-3.2,3.9-1.7,8.7,0.5,12.8
		c0.8,1.5,2.2,2.8,3.5,4c2,1.7,4.1,3.1,5.3,4c-0.2,9.8-7.8,13.7-13.7,20.7c8.1,1.9,14.8,3.1,21.3,5.1c3.7,1.1,7.4,3,10.5,5.3
		c4,3,4.2,6.4,1.3,10.6c-1.7,2.4-3.9,4.5-6,6.4c-2.6,2.4-3.9,4.7-2.2,8.4c3.2,7.1,0,12.6-5.7,16.5c-3.2,2.2-4.6,4.7-5.1,8.5
		c-1.7,11.5-5.5,15.3-16.7,16.7C272.7,596.7,269.7,598,268.4,602.2z"/>
	<path class="st4" d="M856.8,742.9c11.6,0,22.3,0.2,32.9,0c11.5-0.2,23-1.1,34.5-1.3c6.7-0.1,13.3,0.8,20,0.9c6,0.1,7.1-1,7.3-6.9
		c0.3-8,0.4-16.1,0.2-24.1c-0.6-23.6-1.8-47.1-1.9-70.6c-0.1-22.2,1-44.4,1.4-66.6c0.3-17.1,0.3-34.3,0.6-51.5
		c0.1-4.4,0.5-8.9,0.7-12.7c-7.4-0.1-14.2,0-20.9-0.4c-5.6-0.3-11.1-1.5-16.6-1.9c-1.9-0.1-4.5,0.7-5.7,2c-2.9,3.3-5.1,7.2-7.6,10.9
		c1.3,1.6,2.2,2.6,3,3.7c8,10.6,11.2,34.4-4.8,45.4c-4.3,3-4.2,5-1.1,9.3c2,2.8,4.6,5.4,5.6,8.6c2.7,9.1-1.3,16.2-11.4,19.9
		c-5.7,2.1-11.8,3.2-17.7,4.8c-7.3,2-9.4,6.1-6.7,13.2c0.7,1.7,1.7,3.3,2.6,5c4.4,8.7,5.2,17.3,0,26c-2.2,3.7-4.1,7.5-6.1,11.3
		c-2.3,4.6-2.2,9,0,13.9c2.5,5.6,4.6,11.4,5.9,17.4c1.1,5,1,10.3-2.9,14.4C860.7,721.3,858.9,731.2,856.8,742.9z"/>
	<path class="st4" d="M854.5,671c3.2-7,5.3-13.7,9.1-19.4c5-7.6,3.9-14.4,0.2-21.8c-1.5-3-2.8-6.4-3.3-9.8
		c-1.1-7.8,2.4-16.6,11.8-17.8c6.1-0.7,12.1-2.2,17.9-4.3c8.6-3.2,9.4-6.8,3.7-13.8c-7.2-8.9-6.3-16.8,2.5-23.8
		c8.2-6.5,9.9-23,3.4-31.4c-2.4-3.1-5.2-4.8-9.3-4.6c-7.9,0.3-16-1.5-23.1,3.8c-7.7-1-12.9,3.8-19,8.4c0.4,6.2,0.9,12.9,1.3,19.5
		c0.9,14.4-3.5,22.7-14.9,28.4c-5.2,2.6-8.3,1.5-11.5-3.2c-2.4-3.4-2.5-7-1-10.7c1.1-2.7,2.3-5.4,3.1-7.3c-2.6-5-4.7-9.2-7.4-14.3
		c-0.7,4.3-1.5,7.9-1.9,11.6c-1.6,12.2-4.1,24.2-8.4,35.7c-2.1,5.7-5.9,10.3-11.3,13.1c-4.7,2.4-7.5,6.1-8.7,10.9
		c-1.8,7.6-6.1,13.5-11.5,18.9c-1.3,1.3-2.2,3.1-3.6,5c5.2,1.2,9.3,2.6,13.5,3c3.9,0.3,8.1,0.3,11.7-0.9c9.2-2.8,18.1-5.1,28.2-3.3
		c7.7,1.3,14.2,4.4,20.5,8.4c3.3,2.1,5.3,5.2,5,9.5c-0.1,2.1-0.3,4.4,0.2,6.4C852.1,668.7,853.6,669.8,854.5,671z"/>
	<path class="st4" d="M659.8,743.4c1.3,0.7,1.8,1.3,2.4,1.4c14.9,0.6,29.9,1.5,44.8,1.4c26.5,0,52.9,0.9,79.3-2.9
		c13.7-1.9,27.7-1.6,41.6-2.4c1.4-0.1,2.8-0.5,5.8-1c-2.7-1.7-3.9-3.1-5.1-3.1c-8.6-0.1-14.6-4.6-19.6-10.9
		c-1.8-2.3-3.6-2.5-6.2-2.5c-8.3,0-16.1-2.3-21.5-8.8c-4.8-5.6-9.1-11.8-12.7-18.2c-2.6-4.5-5.2-7.9-10.7-8.3
		c-1.3-0.1-2.5-0.8-3.8-1.1c-13.9-3.6-13.9-3.6-14.9-17.4c0-0.5-0.5-0.9-0.7-1.4c-3.4-2.6-6.6,0-9.9,0.6
		c-14.5,2.4-21.7,9.3-24.1,23.5c-0.5,3.2-0.7,6.4-0.9,9.6c-0.9,14.7-6.7,25.9-25.8,32.8C671.8,736.9,666.2,740.3,659.8,743.4z"/>
	<path class="st4" d="M747.8,676.7c3.2,1,6.5,2.8,9.9,2.9c8.7,0.1,12.7,5.7,16.2,12.3c2.1,4,4.5,7.9,6.9,11.7
		c4.9,7.6,12,11.2,21.1,10.5c4.8-0.4,8.2,1.7,10.8,5.5c3.2,4.7,7.1,7.8,13.3,7.4c5.7-0.3,9.6,2.5,11.7,7.9c0.9,2.3,2.3,4.5,3.6,6.8
		c7.2-2.2,9.3-7.2,10.5-12.9c1.6-7.7,3.7-15,9.3-20.9c1.2-1.3,2-3.2,2.3-5c1.5-8.4-3.6-20-11.1-24c-4.4-2.3-6.2-5.6-6.6-10.1
		c-0.2-2.1-0.1-4.3-0.6-6.4c-0.4-1.7-1-3.9-2.2-4.7c-3.4-2-7.1-3.8-10.9-4.8c-10.6-2.6-21-1.2-31.2,2.7c-3,1.2-6.8,1.2-10.1,0.9
		c-7.2-0.7-14.2-2-21.4-2.9c-1.5-0.2-3.2-0.2-4.6,0.3c-4.5,1.5-8.9,3.1-13.3,4.8c-2.4,0.9-4.6,2.1-6.2,2.9
		C746,667.2,746.9,671.6,747.8,676.7z"/>
	<path class="st0" d="M580.5,46.4c-9.1-1.5-17.7-3.6-26.6-0.8c-11.8,3.8-23.8,3-35.7,0.1c-19.4-4.6-38.5-4.1-57.7,2
		c-8.8,2.8-18.1,4.2-27.3,5c-14.4,1.3-28.7-1-42.9-3.9c-17.9-3.7-36.1-4-54.2-0.2c-22.2,4.7-44.5,5.5-67,2.5
		c-14.8-2-29.6-4.2-44.4-6c-13.5-1.6-26.5,1.3-39.6,4.2c-5.5,1.2-10.9,2.7-16.5,3.2c-14.5,1.4-28.6-1.4-42.6-5.2
		c-6.3-1.7-13.2-2.5-19.7-2c-10.5,0.8-21,3-31.4,4.6c-12.4,1.9-24.7,2.6-37-1.7c-9.7-3.4-19.4-3.1-28.7,2.6
		C9,65.1,8.6,79.3,8.1,93.9c1.6-0.2,3.1-0.2,4.6-0.5c7.8-1.8,15.1-1.1,22.6,1.9c5.1,2.1,10.8,2.8,16.3,3.6
		c13.8,1.8,27.2-1.2,40.5-3.9c13.1-2.6,25.6-4.4,38,3.1c7.7,4.6,17,4,25.7,5c9.5,1.1,18.6,0.8,27.6-2.4c19.9-7.1,40.1-8.7,60.7-2.9
		c4.9,1.4,9.8,2.8,14.7,4.1c9.6,2.5,19.3,4.4,29.2,2.4c5.7-1.2,11.4-2.8,17-4.6c17.8-5.9,35.7-6,53.7-1.2c19.8,5.3,39.4,6,59.2-0.2
		c11.4-3.6,23.3-5.7,35.5-5.8c10.1-0.1,19.7,1.8,29.3,4.2c11.7,2.9,23.6,4.9,35.7,3.9c7.2-0.6,14.2-2.4,21.3-3.6
		c8.6-1.5,16.9-1.4,25.1,2.2c15,6.5,30.2,7.3,46.1,2.4c13-4,26.5-4.3,39.4,0.9c13.3,5.3,26.5,4.4,40.1,2.1c6.3-1,12.8-1.8,19.1-1.6
		c15.8,0.5,31.1,3.3,46.2,8.4c13,4.4,26.4,6.9,40,1.3c3.4-1.4,7.3-1.7,11-2c4.4-0.3,8.9-0.1,14.3-0.1c0.4-13.1,1-25.3,0.9-37.6
		c0-2.8-2.1-5.9-4-8.2c-3.3-4.1-7.3-7.7-11-11.5c-11.8-2.9-23.5-0.4-35.2,2.8c-2.3,0.6-4.7,0.7-7.1,1.1c-14.5,2.3-28.2-1.7-41.6-6.3
		c-13.1-4.4-25.6-4-38.5-0.2c-5.8,1.7-12,2.6-18,3.1c-8.6,0.8-17.1-0.8-25.1-4c-6.9-2.8-13.7-1.4-20.4,0.5c-1.4,0.4-3.4,1.2-3.9,2.3
		c-2.9,6.2-5.8,12.5-8.1,18.9c-1.8,5-2.1,10.5-4,15.4c-2.1,5.2-8.9,8.9-12.9,7.4c-5-1.9-7.4-6.3-7.4-11.3c0-4.8-1.9-8.3-4.5-12.2
		c-5.5-8.2-5.8-9.4,0-15.2C583.1,52.8,582.5,49.8,580.5,46.4z"/>
	<path class="st0" d="M11.5,662.5c0.4,0,1.3,0.2,1.9-0.2c8.6-5.8,17.2-4,25.9-0.2c1.7,0.7,3.5,1.3,5.2,2.1
		c11.1,4.6,22.4,7.1,34.3,3.5c6.9-2.1,13.8-4.2,20.8-6c8.1-2.2,16.2-3.4,24.4,0c7.4,3.1,14.8,6.2,22.4,8.7
		c10.8,3.4,21.8,5.4,32.9,0.6c5.7-2.4,11.5-4.5,17.3-6.4c12.1-3.8,23.7-1.8,35.2,2.7c20.4,8,40.7,10.1,61.5,0.5
		c9.1-4.2,19.3-6.5,29.7-3.8c7,1.8,14,3.6,20.9,5.7c16.8,4.9,33.3,6.9,50.3,0.1c9.2-3.7,19.3-6.1,29-4.7c15.3,2.2,30.5,4.7,46.1,4.5
		c7.1-0.1,11.7-1.5,15.4-7c1.1-1.5,2.5-2.8,3.6-4.3c3.8-5,8.4-8.1,15.1-7.1c1.6,0.2,3.4-0.3,5.7-0.5c-2-3.3-3.5-5.8-5-8.2
		c-1.3-0.1-2.4-0.5-3.4-0.3c-9.2,1.5-17.9,1.1-25.9-4.7c-1-0.8-3.2-0.7-4.5-0.2c-9.2,3.3-14,1.2-21-9.5c-4.9-7.6-4-12.2,2.5-18.4
		c1.6-1.5,3.2-2.8,5-4c3.6-2.3,7.4-4.4,12.6-7.6c-5.6-1.2-9.4-2.3-13.3-2.8c-4.7-0.6-9.8-1.8-14.1-0.7c-6.9,1.9-13.5,3-20.1,0.8
		c-2,2.6-3.3,5.8-5.6,7c-8.2,4.4-16.8,8-25.1,12.1c-5.1,2.4-10.3,4.7-15,7.7c-10.3,6.8-21.1,12.6-32.8,16.5
		c-12.8,4.3-25.3,10.5-39.6,8.5c-3.7-0.5-7.5-0.3-11.2-0.1c-7.9,0.4-13.4-3.1-16.9-9.9c-1.3-2.6-2.3-5.4-3.1-8.2
		c-1.7-5.7-4.1-11-8.7-15c-5.2-4.5-4.9-10.5-3.8-16.4c0.5-2.6,3-4.8,5.5-8.7c-10.9,5.4-20.7,4.2-30,0.7c-15.8-5.8-30.8-4.8-45.9,2.2
		c-12.2,5.7-25.2,6.7-38.4,4c-7.3-1.5-14.6-3.1-22-4.4c-9.4-1.7-18.6-1.7-27.6,2.1c-5.4,2.3-11,4.1-16.5,6.2
		c-7.4,2.8-15.3,3.7-22.8,2c-10.4-2.3-21.1-4.7-30.7-9c-7.3-3.3-13-2.4-20.4,0.7C11.5,615.9,11.5,639.1,11.5,662.5z"/>
	<path class="st0" d="M947.9,228.8c-3.8,0.6-6.4,0.8-8.8,1.5c-27.9,8.2-54.4-0.2-71.6-21.3c-2.1-2.5-3.7-4.5-7.8-4.3
		c-3.9,0.3-8-0.9-11.7-2.2c-8.1-2.7-16.1-2.7-24.4-0.9c-7.8,1.7-15.8,3.3-23.7,3.2c-7.9-0.1-15.9-2.1-23.6-3.9
		c-21.1-5-42-7.5-63.3-0.8c-4.2,1.3-9.1,2.1-13.4,1.6c-9-1.2-17.9-3.1-26.6-5.4c-10.5-2.8-20.7-4.2-31.6-2.4
		c-11.6,1.9-23.3,2.9-35,4c-12.6,1.2-24.9-0.7-36.8-5.3c-3.6-1.4-7.9-1.8-11.7-1.3c-6,0.7-11.9,2.5-17.7,3.8
		c-2.7,12.6-9.2,22.2-20.1,28.9c-8.7,5.4-9.5,8.2-7,19.5c8.6-2.7,17.2-5.4,25.8-8.1c0.7-0.2,1.6-0.1,2.3,0c9.9,2.5,20.5,2,29.6,8.1
		c3.5,2.3,5.7,4.4,5.8,8.7c0.1,4.9,0.6,9.8,1,15.3c9.2-3.5,17.3-3.9,25.9-1.2c9.4,3,19.4,4.8,29.2,2.8c8.4-1.8,16.7-3.3,25.2-4.6
		c7.3-1.1,13.7,0,20.2,2.8c12.4,5.3,25.4,6.5,38.4,3.2c14.4-3.7,28.2-3.7,42.4,1.3c13.5,4.7,27.4,6,41.8,3.1
		c12.3-2.5,25-1.4,37.3,1.3c13,2.9,25.7,3.6,38.9,1.3c10.9-1.9,22-3.8,33.4-1.3c13.1,2.9,26.6,4.1,40.7,2
		C949.9,262.2,948.9,246.2,947.9,228.8z"/>
	<path class="st0" d="M402.1,381.9c-3.2,0.2-5.6,0.5-8,0.6c-6.4,0.2-13,1.6-19.1,0.4c-17.6-3.6-34.4-1.8-51.2,4.3
		c-5.1,1.9-10.9,2.7-16.4,3c-10.5,0.5-20.8-1.1-30.8-4.2c-21.8-6.6-43.6-6.9-65.4,0.2c-10.7,3.5-21.8,5.2-33.1,5.5
		c-16.8,0.4-32.9-2.8-48.7-8.4c-11.9-4.2-23.7-5.3-35.7,0.3c-5.3,2.4-11.2,3.7-16.9,4.8c-10.1,1.9-19.9,2.1-29.7-2.7
		c-8.7-4.2-18.2-6-27.9-2.3c-2.6,1-5.6,0.9-8.5,1.4c0,21.4,0,42.5,0,63.3c2.4,0.2,5,0.3,7.6,0.8c8.4,1.7,16.8,3.2,25.1,5.4
		c13.4,3.6,25.9,1,38.3-4c3.7-1.5,7.3-3.3,11-4.8c8.3-3.4,16.8-3.5,25.1-0.3c8.8,3.4,17.6,6.2,27,7.4c12.6,1.7,25,2.3,36.8-3.7
		c5.6-2.8,11.4-2.9,17.2-1.6c8.1,1.7,16.1,3.9,24.1,6c12.5,3.2,24.8,5.5,37.7,1.4c5.6-1.7,12.1-0.4,18.2-0.3c3.7,0,7.5,0.5,11.2,0.5
		c10.7,0,21-5.1,32.5-1.2c-0.4-3-1.2-5-1-7c0.4-3.8,0-8.3,4.5-10.4c5-2.2,7-6.4,7.5-11.5c0.5-5.7,4-9.3,8.9-11.5
		c5.3-2.4,10.8-4.6,17-3.7c2,0.3,4-0.2,6.2-0.3c0.5-5.8,2.6-10,8.4-10.7c7.8-0.9,15.4-0.8,21.8,5.2c6.4,6,6.7,5.8,14.3,0.8
		c4.6-3,6.8-3.6,10.8,0.3c3.9,3.8,7.1,8.7,9.3,13.7c3,6.8,4.7,13.9,10.5,19.5c2.9,2.8,4.1,7.4,5.9,11.3c1.1,2.6,1.8,5.4,2.7,8
		c1.4,0.1,2.3,0.3,3,0.1c9.8-2.9,19.4-1.9,29.1,0.7c3.8,1,7.9,1.6,11.9,1.6c2.8,0,5.8-1,8.3-2.3c1.2-0.6,2.3-3.1,2-4.5
		c-0.3-1.3-2.4-3.1-3.7-3.2c-4,0-7.9,0.7-11.9,1.1c-5.3,0.6-10.6,2.2-15.8,1.7c-6.6-0.6-13.2-2.8-16.3-9.8c-3-6.8-3.5-13.8-0.3-20.8
		c3.1-6.8,4.6-14.3,10-19.8c0.8-0.8,0.8-2.3,1.6-5c-6.8,3.7-12.1,7.2-17.8,9.6c-2.9,1.2-6.8,1.4-9.9,0.8c-7.2-1.4-10-7.3-11.5-14.5
		C414.6,400.2,408.2,391.8,402.1,381.9z"/>
	<path class="st0" d="M362.7,250.4c3.7-4.3,6.4-7.8,9.5-11.1c4-4.3,6.7-8.9,6.2-15c-0.5-6.9,1.8-12.8,7.1-17.1
		c3.9-3.2,8.5-5.5,12.6-8.4c2.4-1.6,4.8-3.3,6.7-5.5c3.1-3.6,5.8-7.5,8.7-11.3c-10.8-4-13.2-4.1-23.7-3.9c-7.8,0.2-15.2,1.7-22.7,4
		c-15.2,4.5-30.2,1.8-44.9-2.8c-15.1-4.7-30.5-4.4-44.9,0.8c-8.6,3.2-17,4.3-25.4,3.6c-10.8-0.8-21.5-3.1-32.1-5.3
		c-6.6-1.4-13.2-2.7-19.8-1.6c-12,1.9-23.9,5.3-36.3,4.2c-5.5-0.5-11.2,0-16.6-1.2c-10.9-2.4-21.4-6-32.3-8.4
		c-4.5-1-9.5-0.9-14.2-0.2c-6.3,0.9-12.4,3.5-18.8,4c-9.8,0.7-19.8,1.3-29.5-0.1c-7.7-1-15.1-5-22.6-7.5c-1.2-0.4-2.6-0.3-3.8,0
		c-5.5,1.4-11.1,3.1-16.8,4.7c2.3,5.6,4.2,10.9,6.5,16c3.6,7.8,4.6,15.8,3.4,24.2c-0.9,6.5-1.3,13.1-2,20.4c2.4-0.6,4.2-0.8,5.9-1.4
		c7-2.7,13.8-1,20,2c7.4,3.6,15,5.2,23.1,5.5c11.9,0.5,23.5-1.3,35-3.4c11.9-2.1,23.5-1.4,34.5,3.5c17.5,7.8,35.8,7.9,54.2,5.8
		c17.4-1.9,34.6-1.9,51.7,2.6c13.7,3.6,27.2,4.3,41-0.4c12.6-4.2,25.7-5.1,38.7-1.2C335.1,250.2,349,251.4,362.7,250.4z"/>
	<path class="st0" d="M954.2,358.4c0-7.5,0.3-13.7-0.1-19.8c-0.8-14.7-2-29.3-2.9-44c-0.4-6.3-0.6-6.6-6.9-7
		c-10.1-0.6-20.3-0.6-30.3-2.2c-11.5-1.8-22.8-2.1-34.1,0.3c-15,3.1-29.6,2.3-44.5-1.2c-11.4-2.7-23.3-3.7-34.9-1.5
		c-15.9,3.1-31.4,1.8-46.5-3.5c-11.3-4-22.2-4.3-33.7-1.1c-14.3,4.1-28.7,3.3-42.4-2.4c-6.4-2.6-12.7-4.2-19.4-3.2
		c-7.1,1-14.2,2.8-21.3,3.5c-7.6,0.7-15.4,1.3-23,0.7c-6.3-0.5-12.4-3.1-18.6-4.6c-2-0.4-4.2-0.4-6.2,0c-12.8,2.7-12.8,2.8-18,14.9
		c-0.9,2.2-1.7,4.5-2.5,6.8c-3.7,11.2-7.3,22.4-13.5,32.5c-0.6,1-0.8,2.3-1.3,3.9c1.9,0,3.3,0.4,4.4-0.1c11.2-4.7,21.3-2.1,31.3,3.7
		c2.9,1.7,6.6,2.7,9.9,2.6c5.5-0.2,11.2-1,16.6-2.4c16.1-4.2,32-5.1,48.3-1.1c22.2,5.4,44.7,7.6,67.6,3.7c13.4-2.3,26.6-0.5,39.4,4
		c15.1,5.4,30.6,7.5,46.6,5.6c17.6-2,35.1-1.8,52.1,3.8c7.8,2.6,15.7,3.7,23.7,2.6c17-2.2,33.6-0.8,50,3.7
		C946.8,357.7,950,357.8,954.2,358.4z"/>
	<path class="st0" d="M404.1,330c-1.6-0.2-2.7-0.5-3.7-0.4c-12.5,1.5-24.1-2.6-36-5.4c-9-2.1-18.3-3.8-27.6-4
		c-8.2-0.2-16.5,1.6-24.6,3.1c-11.3,2.2-22.3,1.6-33.3-1.5c-14.1-4-28-4.3-42.6-1.4c-14.9,2.9-30.1,3.9-44.8-3
		c-7.7-3.6-16.2-4.9-25-3c-9.1,1.9-18.6,2.2-27.7,4.1c-9.7,2-18.9,0.6-27.3-3.5c-10.6-5.2-21.4-3.7-32.2-2.8
		c-8.7,0.7-16.9,3.4-25.9,3.6c-8.1,0.2-15.5-0.7-22.4-4c-7.3-3.5-13.6-2.4-20.4,0.8c0,21.3,0,42.3,0,63.8c2.8-0.6,4.9-0.8,6.9-1.5
		c10.6-3.5,20.9-1.5,30.4,3c8.4,3.9,16.7,3.8,25.1,2.4c7-1.2,13.8-4.2,20.7-6.2c4.3-1.2,8.8-3.1,13.1-2.9c7.6,0.5,15.5,1.4,22.8,3.8
		c27.2,8.9,54.4,10.6,81.9,1.7c20.4-6.6,40.9-6.6,61.5-1c8,2.2,16.2,3.9,24.4,4.7c9.3,0.9,18.4,0,27.6-3.4
		c14.1-5.3,29.1-6.8,44.2-4.5c3.7,0.6,7.4,1.5,11.1,1.4c7.2-0.2,14.3-1.1,20.6-1.6c6.7-8,13.2-15.8,20-23.9
		C403.6,345.9,400.8,342,404.1,330z"/>
	<path class="st0" d="M364.8,260.9c-2.2-0.2-3.8-0.6-5.3-0.5c-14.6,1-28.8-1.3-42.8-5.2c-8.7-2.4-17.4-2.5-26.2-0.1
		c-4.6,1.3-9.3,2.8-14,3.5c-5.5,0.9-11.2,2-16.6,1.4c-10.2-1.2-20.6-2.7-30.5-5.5c-12.3-3.4-24.4-2.4-36.4-0.1
		c-12.9,2.5-25.5,1.3-38.2,0.2c-5.9-0.5-11.4-2.3-16.8-4.9c-11.1-5.4-22.8-6.6-35.2-4.5c-12.1,2-24.3,4.7-36.6,3.3
		c-7.1-0.8-14.6-1.7-20.8-4.9c-10.1-5.1-19.3-4.4-28.5,0.1c-2.2,19.5-4.4,38.5-6.5,56.9c1.1,0.8,1.3,1,1.5,1c0.8,0.1,1.7,0.3,2.4,0
		c6.2-2.6,11.8-0.7,17.8,1.5c5.4,2,11.4,2.6,17.1,3.3c10.3,1.2,20.1-2,30.1-3.5c10.6-1.5,21.1-2.5,31.4,2.6
		c8.8,4.3,18.3,5.3,28.2,3.4c9.4-1.8,19.1-2.4,28.6-4.2c8-1.6,15.7-0.5,22.7,2.8c16.6,7.7,33.5,6,50.4,2.9c11-2,21.7-2.4,32.6,0.4
		c11.9,3,24,5.5,36.5,4c5.8-0.7,11.7-0.9,17.5-2c12.9-2.4,25.6-1.9,38.1,2c13.8,4.3,27.6,7.6,42.5,4.8c-0.7-8.6,2.6-15.8,9.4-21.3
		c-5.2-8.9-14.8-13.8-18-23.7c-5.8-4-5-9.2-1.6-16c-3.9,1.7-6.4,2.7-7.9,3.4c-5.1,15-2.6,31-12.8,43.1c-2.9-0.7-4.9-1.2-7-1.7
		c-7.1-1.5-11-6.8-9.6-13.9c0.6-3.1,1.9-6.1,3.2-9C365.9,274.3,366.3,268.1,364.8,260.9z"/>
	<path class="st0" d="M467.9,680.1c-7.4-0.5-13.3-0.6-19-1.3c-6.9-0.8-13.7-2.2-20.6-3.3c-11.5-1.9-22.2,0.9-33.1,4.2
		c-7.4,2.2-15.1,4.6-22.6,4.5c-12-0.1-23.8-2.9-35.3-6.5c-6.1-1.9-12.4-3.5-18.7-4.2c-9.5-1.1-18.5,1.7-27.3,5.3
		c-9.9,4.1-19.9,6.5-31.1,5.1c-12.1-1.5-23.4-5.6-34.8-9.2c-8.3-2.7-16.6-4-25.1-1c-5.8,2-11.8,3.8-17.3,6.4
		c-8.7,4.1-17.8,4.1-26.6,2c-8.5-2-16.7-5.5-24.9-8.8c-12.5-5.1-24.6-5.2-37.4-0.2c-14.4,5.6-29.4,8-44.5,1.9
		c-6.2-2.5-12.3-5.2-18.7-7c-3.1-0.8-6.8-0.1-10,0.8c-3.2,0.9-6.1,2.9-9.3,4.5c0.3,18.4-0.9,36.5,2.2,54.7c1.4-0.5,2.2-0.7,2.8-1.1
		c10.5-5.4,21.2-6.9,32.4-1.7c1.3,0.6,3,0.4,4.6,0.5c11.7,1,22.1-3.4,32.5-7.7c11.2-4.7,21.6-4.2,32.3,1.5c3.9,2.1,8.5,3.4,12.9,3.7
		c11,0.8,21.9,0.3,32.5-3.2c9.9-3.3,19.8-2.4,29.8,0.6c14.1,4.2,28.3,8.7,43.2,7.5c7.9-0.6,15.8-2.4,23.7-3.8
		c9.2-1.7,18.2-5.4,27.6-3.8c14.5,2.4,28.9,5.2,43.3,8.1c12.4,2.6,24.7,4.9,37.3,1.5c4.6-1.2,9.4-2.3,14.1-2.7
		c10.3-0.9,20.6-3.5,31-0.6c4.9,1.4,9.8,3.1,14.7,3.7c7.3,0.9,14.7,0.8,23.2-3.1c-3.1-0.4-4.6-0.6-6.1-0.9c-5.2-1-7.6-3.7-7.1-8.8
		c0.2-2.6,1-5.4,2.4-7.4c3.6-4.9,7.8-9.5,11.9-14C457.4,690.9,462.4,685.9,467.9,680.1z"/>
	<path class="st0" d="M813.6,12.3c-5.4,0-9.6-0.2-13.8,0c-5.8,0.3-11.7,1.1-17.5,1.2c-18.5,0.2-36.9,0.3-55.4,0.2
		c-22.2-0.2-44.3-0.8-66.5-0.9c-15.4,0-30.9,0.5-46.3,0.8c-1.3,0-2.7,0-4,0.1c-29.3,1-58.7,2.2-88,3.1c-8.5,0.2-17.1-0.6-25.6-0.7
		c-10.4-0.1-20.8,0.4-31.2,0.1c-23.8-0.7-47.5-2-71.3-2.4c-21.8-0.3-43.7-1.1-65.4,0.7c-24.5,2.1-49,2.9-73.5,3.5
		c-17.3,0.4-34.7-0.7-52.1-1.2c-8-0.2-16-0.7-24-0.9c-9.3-0.1-18.6,0-28,0c-9.3,0-18.5,0-27.8,0c-9.3,0-18.7,0.2-28,0.2
		c-5.3,0-10.6,0.1-16,0c-2.4,0-4.8-0.4-7.1-0.3c-9.7,0.3-19.4,3.4-29.2,0.2c-1.3-0.4-3.1,0.5-4.7,0.7c-4.5,0.6-9.1,2.1-13.4,1.5
		c-10.7-1.5-15,0.8-16.4,10.9C7.8,33.1,8.3,37,8.3,41.5c2.2-0.5,3.5-0.5,4.7-1c9.1-4.1,18-3.5,27.1,0.3c3.8,1.6,8.3,2,12.6,2.2
		c10.1,0.4,20.2-0.5,30.1-3c4.9-1.2,9.9-2.3,14.9-3.1c12.6-2.1,24.7-0.2,36.9,3.5c17.2,5.2,34.4,5.7,52,0.3
		c13.3-4.1,27.4-4.9,41.3-3.8c18.3,1.4,36,6.1,54.5,7c14.5,0.7,28.9,0.6,43-2.3c24.7-4.9,49.4-6.1,74-0.2c20.6,4.9,41.1,3.7,61-2.5
		c21.2-6.5,42-6.7,63.2-1.4c9.3,2.3,18.4,2.5,27.7-0.1c7.2-2.1,14.7-3.8,22.1-1.3c6,2.1,12,1.3,18,0.7c2.8-0.3,5.8-1.4,7.9-3
		c1.2-0.9,0.9-3.8,1.4-5.8c0.8-3.6,3.1-5.6,6.7-6c5.8-0.7,12.9,6.9,12.1,12.9c-0.3,2.2-0.4,4.4-0.7,7.4c10.7-3.9,19.8-2.7,29.4,0.2
		c11.9,3.6,24.1,3.4,36.3-0.7c11.8-3.9,24-5.2,36.3-1.2c7.9,2.6,15.9,4.6,23.9,6.6c6.5,1.6,13,2.7,19.8,1c6.2-1.6,12.5-3,18.8-3.7
		c8.6-1,17.3-1.3,25.9-1.9C810.5,33,811.9,23.3,813.6,12.3z"/>
	<path class="st0" d="M954.3,461.5c-13.3-0.9-25.2-1.8-37.1-2.4c-10.6-0.6-21.3-1.1-31.9-1.1c-4.5,0-8.9,1.5-13.4,1.9
		c-13.7,1.3-27.1-1.1-40.3-4.6c-16.9-4.4-33.6-5.7-50.6-0.5c-4,1.2-8.5,2.1-12.6,1.6c-15.3-2.1-30.7-4-45.8-7.5
		c-10.8-2.5-21-2.4-31.6,0.4c-14.2,3.8-28.7,4.9-42.5-0.9c-8.4-3.5-15.8-2.2-24.2,1.4c13.1,21.7,26.8,42.6,34.7,67.2
		c11.9-5.1,23-6.1,34.4-2.3c3,1,6.2,1.4,9.3,2.2c11.9,3,23.6,4,35.3-1.2c7.7-3.5,16-4.2,24.4-2.4c7.6,1.6,15,3.7,22.6,5.3
		c8.4,1.7,16.7,3.4,25.4,2c8.4-1.4,17-1.9,25.4-2.8c9.8-1.1,19.7,0.8,29.5-1.7c7.2-1.8,14.6-3.4,21.9-4.3c5.1-0.6,8.7-2.7,11.1-6.8
		c5.1-8.9,12.8-10.7,22.5-10c10.6,0.8,21.4,1.6,32.6-2C955,482.4,954.5,471.6,954.3,461.5z"/>
	<path class="st0" d="M954.5,369c-8.3-1.9-15.2-4.1-22.3-4.9c-10.6-1.2-21.3-2.5-31.8-1.7c-11.9,0.8-23.4,0.9-34.8-2.8
		c-14-4.6-28.3-6.1-42.8-4.1c-17,2.4-33.8,1.5-49.8-4.2c-16.7-5.9-33.5-6.1-50.5-3.8c-14.7,2-29.2,2.2-43.7-1.7
		c-7.7-2.1-15.7-3.4-23.6-4.7c-4.4-0.8-9-1.7-13.4-1.2c-9.8,1.1-19.5,2.9-29.2,4.8c-10.6,2.1-20.6,2-29.9-4.4
		c-5.7-3.9-12-4-18.4-1.6c-2.2,0.8-4.5,1.6-5.4,1.9c-2.4,5.1-4.2,9-6.3,13.6c2.7,0.3,5.5,0.8,8.3,0.9c7.1,0.4,13.1,3.4,17.4,8.8
		c5.1,6.5,9.6,13.5,13.9,20.5c3.8,6.2,4.1,6.6,10.6,4.5c2-0.7,3.9-1.8,5.9-2.6c5.6-2.1,11.2-3.4,17.1-0.8c3.4,1.5,7.1,2.6,10.7,3.2
		c12.9,2.2,25.7,4.3,38.9,3.9c11-0.4,21.8-0.9,32.6-3.4c13.2-3,26.5-3.7,39.6,1.1c10.2,3.7,21,3.8,31.6,4.7c4.2,0.3,8.5-0.3,12.7-1
		c11.3-1.9,22.6-4.5,34.1-2c8.3,1.8,16.6,3.8,24.8,6.2c11.2,3.3,22.7,5.7,33.9,2.2c14.4-4.4,28.3-5.2,42.4,0
		c2.3,0.8,4.6,1.5,6.9,1.9c6.8,1.3,13.6,2.3,20.8,0C954.5,390.8,954.5,379.7,954.5,369z"/>
	<path class="st0" d="M279.8,464.8c-7,0-13.7-1.4-19.5,0.3c-10.3,3.1-20,2.6-30,0c-9.3-2.4-18.6-4.9-27.8-7.5
		c-6.4-1.8-12.5-1.6-18.8,1c-5.1,2.1-10.7,3.8-16.2,4.3c-15.1,1.4-30.2-0.2-43.9-6.6c-12-5.6-23.1-5.2-34.4,1
		c-0.7,0.4-1.4,0.7-2.2,1c-14.1,6.4-28.6,8.2-43.8,4.5c-7.5-1.9-15.1-3.5-22.7-4.9c-8.1-1.5-11.5,1.3-11.7,9.5
		c-0.2,7.5-0.5,15-0.5,22.5c0,9.5,0.4,19.1,0.6,29c4.8-1.4,8.8-2.8,12.9-3.6c2.2-0.4,5.1-0.5,6.9,0.6c7.6,4.6,16.2,5.6,24.6,6.7
		c5.7,0.7,11.7,0.8,17.4-0.2c10-1.8,19.7-4.7,29.5-7.2c4.4-1.1,8.6-1.9,13.3-1c12.1,2.3,24.2,4.5,36.3,5.9
		c12.1,1.4,24.5,4.5,36.6,0.7c15.7-4.9,31.3-5.4,47.4-2c12.6,2.7,25.4,2.4,38.3-0.3c-0.2-7.7,6.4-11.1,10.4-16.3
		c-6.9-3.3-6.9-3.4-7-9.5c0-1.8-0.1-3.7-0.5-5.5c-1.6-6.5-1.7-12.7,2.9-18.2C278.8,467.9,279,466.6,279.8,464.8z"/>
	<path class="st0" d="M11.6,581.7c7.2-4.5,12-2.4,17,0.9c2.3,1.6,5.4,2.1,8.3,2.9c6.1,1.8,12.4,3.2,18.5,5.2
		c8.7,2.8,17.3,2.6,25.9-0.5c6.8-2.5,13.6-5,20.4-7.5c5.3-2,10.8-3.2,16.5-2.4c9.2,1.3,18.6,2.2,27.7,4.3
		c14.6,3.3,28.6,2.8,42.4-3.3c2.7-1.2,5.6-1.9,8.3-2.9c12.3-4.6,24.5-4.3,36.9,0c9.5,3.3,19,5,29,0.8c3.1-1.3,7.4-0.4,11-0.1
		c2.8,0.3,5.6,1.2,8.7,1.9c0.9-7.6,4.3-13.2,10.1-17.1c3.5-2.4,3.9-5.6,2.4-9.1c-2-4.7-0.6-8.9,1.2-13.1c0.6-1.3,1.2-2.6,1.7-3.6
		c-4.7-1.9-8.7-4-12.9-5.3c-5.3-1.6-11-4.2-16.1-3.4c-12.7,2-25.1,0.6-37.4-1.8c-12.6-2.4-25.1-2.5-37.2,1.5
		c-7.9,2.5-15.8,3.3-23.8,2.5c-11.4-1.1-22.7-3-34.1-4.6c-7.4-1-14.8-2.8-22.2-3.1c-5.5-0.2-11.1,1-16.6,2.1
		c-4.4,0.9-8.7,2.7-13.1,3.8c-16.8,4.1-33.7,4.2-49.5-3c-7.4-3.3-13.2-2.5-19.8,0.4c-3.5,1.5-4.5,3.9-4.3,7.6c0.5,8,0.8,16,1,23.9
		C11.7,565.7,11.6,572.6,11.6,581.7z"/>
	<path class="st0" d="M954.5,413.5c-10.4,1.7-19.2-0.2-27.9-3c-11.1-3.5-22.4-5.5-33.9-1.9c-15.4,5-30.4,3.7-45.5-1.8
		c-14.1-5.1-28.7-8.4-44-5.4c-4.9,1-9.8,2.8-14.8,3c-13.4,0.5-26.8-0.3-39.5-4.4c-13.5-4.3-26.8-4.3-40.3-1.4
		c-20.7,4.4-41.3,4.5-62.1,0.6c-5.8-1.1-11.8-1.5-17.1-3.8c-10.4-4.4-19-0.6-27.6,3.4c0.9,3.7,1.9,6.7,2.5,9.9
		c0.6,3.1,0.8,6.3,1.3,9.5c0.6,3.7,0.9,7.5,2.1,10.9c3.4,9.2,9.8,12.3,19.1,9.7c1-0.3,2.1-0.4,3.1-0.8c5.3-2,10.4-1.7,15.6,0.4
		c4.7,1.8,9.7,4.4,14.5,4.3c10.1-0.2,20.2-1.2,30.1-3.2c10.6-2.1,20.9-3.5,31.6-0.6c8.5,2.3,17.1,4.5,25.8,5.4
		c12.4,1.3,24.8,3.1,37.3-0.7c9.8-3,20.1-3.1,30.2-1.6c9.2,1.4,18.3,3.6,27.5,5.4c12.9,2.6,25.8,4.3,38.9,0.7
		c4.3-1.2,9-1.5,13.5-1.2c11.2,0.7,22.3,2.2,33.4,2.9c8.7,0.5,17.5,1.1,26-0.8C954.5,437.2,954.5,425.8,954.5,413.5z"/>
	<path class="st0" d="M665.6,541.4c1.7-0.4,3-0.5,4.1-0.9c7.6-2.9,15.3-1.6,21.3,2.7c13.1,9.2,22.6,21.1,20.9,38.6
		c-0.2,2.4-0.8,4.7-1.4,7c-0.6,2.7-1.3,5.5-2.1,9c3.1-0.6,5.1-0.9,7.1-1.4c9.5-2.4,19-2.5,28.5,0.3c7.4,2.2,14.6,1.8,22.1,0.3
		c5.5-1.1,11.1-1.9,17.2-0.6c10.1,2.1,12.9-0.5,15.6-11.1c1.2-4.6,2-9.4,2.3-14.2c0.8-11.4,5.3-21.8,9.4-32.1
		c2.6-6.6,5.9-7.9,11.8-6.8c6,1.2,8.9,4.4,9.6,11c0.2,1.6-0.1,3.2,0.1,4.8c0.3,2,0.7,4.1,1.5,6c1.3,3.1,3,6,4.8,9.5
		c3.1-3.2,4.2-6.9,3-10.9c-2.3-8.1-3.5-16.1,0.4-25c-3.7,0.2-6.6,0.2-9.4,0.5c-8.8,0.8-17.5,1.9-26.3,2.6
		c-12.3,1.1-23.8-2.9-35.4-5.8c-10.9-2.8-21.6-4-32.2,0.6c-11.7,5.1-23.4,3.9-35.3,1.1c-6.5-1.6-13-3-19.6-4.3
		c-7.9-1.7-15.1,0.5-22.5,3.9C663,531.4,664.2,536.2,665.6,541.4z"/>
	<path class="st0" d="M14,747.6c7-0.7,13.1-1.5,19.2-1.7c21.4-0.7,42.8-1.2,64.2-1.6c8.2-0.2,16.5-0.1,24.7-0.3
		c6.4-0.1,12.8-0.9,19.2-0.6c11.7,0.6,23.4,1.9,35.2,2.6c14.1,0.8,28.3,1.6,42.5,2c18.7,0.6,37.5,1.1,56.2,1c23-0.1,46-0.3,69-1.8
		c22.2-1.5,44.3-3.1,66.5-3c2.7,0,5.3-0.3,8-0.3c16.6-0.2,33.2-0.8,49.7-0.5c13.6,0.3,27.2,2.2,40.8,2.3c21.4,0,42.7-1.2,64.1-1.4
		c22.8-0.2,45.6,0.1,68.4,0.2c3.7,0,3.7,0,5.7-4.7c-7.9,3-15.1,0.2-22.1-1.9c-12.5-3.6-24.7-3.4-37.1,0.4c-9.8,3-19.9,4.4-30,1.6
		c-19.3-5.3-38.2-5.7-57.4,1c-7.2,2.5-15.1,1.8-22.7-0.6c-9.3-2.9-18.7-3-28.5-1.3c-8.8,1.5-17.9,3.7-26.9,0.6
		c-4.2-1.4-8.6-2.7-13-3.5c-11.3-1.9-22.4-0.1-33.3,2.6c-12.3,3-24.4,5.1-37.1,1.5c-12.3-3.4-25.1-5.3-37.6-8
		c-10.9-2.4-21.7-2.9-32.5,0.5c-3.6,1.1-7.4,1.4-11,2.3c-13.4,3.6-26.9,4.2-40.5,1.2c-7.3-1.6-14.7-3-21.8-5.3
		c-11.5-3.8-22.8-5.3-34.4-1c-1.5,0.6-3,1.2-4.6,1.4c-14.1,2.3-28.2,3.8-41.4-3.7c-8.8-5-17.7-5-26.9-1.1c-3.4,1.5-6.9,3-10.4,4.2
		c-3,1-6.1,1.9-9.2,2.6c-9.9,2.2-19.6,0.3-29.1-2.4c-2.5-0.7-5.5-1.6-7.8-0.8c-6.3,2.1-12.2,5-18.3,7.5
		C13.7,741.1,13.9,743.7,14,747.6z"/>
	<path class="st0" d="M460,726.6c5.9,0.9,10.7,0.9,14.8,2.5c12.3,4.6,24.2,3,36.1-0.7c11.5-3.6,22.9-4.3,34.7-1.1
		c16.2,4.4,32.5,4.9,48.8-0.4c8.2-2.7,16.9-3.5,25.2-0.4c14.6,5.4,29.5,2.1,44.3,2c1.2,0,2.6-0.7,3.7-1.4c4.3-2.7,8.4-5.6,12.7-8.4
		c6.1-3.9,9.1-9.3,9.6-16.6c0.6-7.4,1.7-14.9,5.3-21.6c0.8-1.5,1.2-3.1,1.9-5c-11-0.1-14.1,0.8-21.6,5.9c-1.1,0.7-2.2,1.7-3.4,2
		c-11.4,3.7-22.7,7.8-34.4,10.6c-7.1,1.7-14.6,2.7-22.2,1c-14.6-3.4-29-2.2-43.2,3.1c-2.6,1-5.8,0.7-8.6,0.3
		c-7.6-1-15.2-2.4-22.8-3.6c-3.9,7.3-8.8,13.6-15.6,18.2c-1.9,1.3-4.2,2.6-6.4,2.6c-9.3,0-18.6-0.5-27.8-0.8
		c-2.1-0.1-4.4-0.6-6.2,0.2C477,718.5,469.2,722.3,460,726.6z"/>
	<path class="st0" d="M504.8,467c-7.2,3.7-15.3,2.9-23.4,0.7c-4.1-1.1-8.4-2.9-12.5-2.5c-7.1,0.6-15.7-2.5-20.2,6.7
		c-0.5,1-2.1,1.7-3.3,2c-3.6,1.1-5.6,3.5-7.2,6.9c-2.4,5-4.7,10.2-9.7,13.5c-1,0.6-1.4,2.2-1.8,3.4c-2.2,7.3-2,14.6-0.6,22
		c11-1.6,11.2-2.1,21.3,3c8.3,4.1,16.6,3.1,25.1,2.6c1.2-0.1,2.8-0.8,3.4-1.8c4-6.2,10.3-5.2,15-3c8.4,3.8,14.9,1,21.7-3.1
		c6.2-3.7,11.8-7.7,9-16.4c-0.3-0.9-0.1-2.2,0.3-3.2c1.5-3.6-0.7-6-2.5-8.6C514.7,482.1,510.1,475,504.8,467z"/>
	<path class="st0" d="M687.4,636.4c3,1.4,4.8,2,6.3,2.9c1.8,1.2,3.5,2.5,5,4c4.3,4.5,4.4,8.5,0.4,13.3c-2.3,2.8-4.8,5.4-7.5,8.4
		c8.4,1.6,16.1,3.5,22.1-3.6c0.3-0.4,1-0.5,1.5-0.6c12.1-1.8,22.7-7,32.5-14.2c3-2.2,6.6-3.7,9.2-6.3c9.8-9.7,16.2-21.8,22-34.1
		c0.1-0.3-0.4-0.8-0.9-1.7c-4.3,0.7-8.7,1.8-13.1,2.1c-5.8,0.4-11.9,1.2-17.4-0.2c-9.3-2.4-18.4-1.9-27.8-1.5
		c-10.3,0.4-16.5,5-20.8,14C695.9,624.8,691.6,630,687.4,636.4z"/>
	<path class="st0" d="M473.1,533.6c-10.4,3.5-19.7,1.3-28.5-4c-5.8-3.5-11.5-3.3-17.5,0.2c1.3,3.3,2.5,6.5,3.8,9.8
		c3,7.7,3.4,15.3,0.4,23.4c-2.8,7.4-3.9,15.4-6.1,24.3c4.3-0.5,8.2-1,12-1.4c5.2-0.5,10.6-1.9,15.7-1.3c9.7,1.1,19.3,3.4,29.1,5.2
		c1-2.4,2.3-4.3,2.5-6.4c0.4-3.7,1-7.7-0.1-11.1c-0.7-2.1-4.3-3.3-6.6-4.8c-6.8-4.3-9.1-13.6-4.5-20.1
		C476.9,542.5,475.1,538.5,473.1,533.6z"/>
	<path class="st0" d="M423.3,246.8c5.3-10.8,5.3-10.8,15.9-15.6c4-1.8,4.8-4.8,2.5-9.2c-5.7-10.7-4.9-14.5,5.7-20.8
		c4.1-2.4,5.8-4.9,4.3-9.7c-0.7-2.4-0.1-5.2-0.1-8.9c-10,0.8-19.6,1.5-29.1,2.3c0.8,3,1.7,5.5,2.2,8.1c1.9,11.3,0.8,22.3-7.3,30.9
		c-7.5,8-14.2,16.5-19.9,25.8c6.2,3.6,6.8,3.5,9.5-2.3c0.3-0.7,0.5-1.5,0.9-2.2c2.8-5.4,5.1-6.1,10.1-2.7
		C419.6,243.6,421.2,245.1,423.3,246.8z"/>
	<path class="st0" d="M306.5,463.9c5,3,14.3,3.4,17.2,0.9C318.1,462.8,312.5,460.3,306.5,463.9z"/>
	<path d="M528.9,140.3c-2.4-9.6-1.8-12,3-14.3c4.9-2.3,9.4-0.4,15.6,7.4c1.1-1.7,2.1-3.3,3.1-4.8c1.3-2,2.9-4.9,5.5-3.2
		c2.6,1.8,4.4,4.9,6.3,7.6c0.4,0.6-0.1,2.1-0.4,3.1c-3.8,9.9-7.3,20-14.3,28.3c-0.8,1-1.7,2.5-2.8,2.7c-6.1,1-11,5.4-17.3,5.8
		c-4.5,0.3-10.5-3.9-11.6-8.2c-0.9-3.3-1.5-6.6-2.3-9.9c-1.7-6.6,0.6-10.9,7-12.8C523.3,141.2,526.1,140.8,528.9,140.3z
		 M544.6,141.5c-2.9-3.3-5.5-6.4-8.1-9.4c-0.7,2.1-0.5,3.8,0,5.4c1.8,6.2,1.3,7-5.2,8.6c-3.8,1-8.1,1.1-10.4,5.4
		c1.7,4.5,3.5,9,5.5,14.2c2.3-3,3.8-6.8,6.5-8.1C540.2,154.3,541.8,147.6,544.6,141.5z"/>
	<g>
		<rect x="575.3" y="171.1" class="st8" width="220.3" height="49"/>
		<path class="st1" d="M797.1,221.5H573.8v-52h223.3V221.5z M576.8,218.5h217.3v-46H576.8V218.5z"/>
	</g>
	<g class="st5">
		<path class="st1" d="M596,207.8h-2.7c-0.4,0-0.8-0.1-1-0.4c-0.2-0.2-0.4-0.6-0.4-1v-19.2c0-0.4,0.1-0.7,0.4-1
			c0.2-0.2,0.6-0.4,1-0.4h7.2c1.6,0,2.9,0.1,3.9,0.3c1,0.2,1.8,0.6,2.5,1.1c0.6,0.5,1.1,1.2,1.3,2c0.2,0.8,0.4,1.9,0.4,3.1v0.6
			c0,2.7-1,4.7-2.9,5.8l2.7,7.2c0.2,0.4,0.1,0.8-0.1,1.1c-0.2,0.3-0.5,0.5-1,0.5h-3.1c-0.7,0-1.1-0.3-1.3-1l-2.4-6.8h-3.2v6.5
			c0,0.4-0.1,0.8-0.4,1C596.8,207.7,596.5,207.8,596,207.8z M600.6,190.7h-3.2v4.9h3.2c1,0,1.7-0.2,2.1-0.5s0.6-0.9,0.6-1.8v-0.5
			c0-0.9-0.2-1.5-0.6-1.8S601.5,190.7,600.6,190.7z"/>
		<path class="st1" d="M629.9,195.5v2.8c0,3.1-0.8,5.5-2.5,7.2c-1.7,1.7-4.1,2.5-7.3,2.5c-3.3,0-5.7-0.8-7.4-2.5
			c-1.6-1.7-2.4-4.1-2.4-7.2v-2.8c0-3.1,0.8-5.5,2.4-7.2c1.6-1.7,4.1-2.5,7.4-2.5c3.3,0,5.7,0.8,7.4,2.5
			C629,190,629.9,192.3,629.9,195.5z M624.5,198.1v-2.4c0-1.3-0.2-2.3-0.5-3.1c-0.3-0.7-0.8-1.3-1.4-1.6c-0.6-0.3-1.5-0.4-2.5-0.4
			c-1.1,0-1.9,0.1-2.5,0.4c-0.6,0.3-1.1,0.8-1.4,1.6c-0.3,0.7-0.5,1.8-0.5,3.1v2.4c0,1.3,0.2,2.3,0.5,3.1c0.3,0.7,0.8,1.3,1.4,1.5
			c0.6,0.3,1.5,0.4,2.5,0.4c1,0,1.9-0.1,2.5-0.4c0.6-0.3,1.1-0.8,1.4-1.5C624.3,200.4,624.5,199.4,624.5,198.1z"/>
		<path class="st1" d="M639.5,207.8h-2.7c-0.4,0-0.8-0.1-1-0.4s-0.3-0.6-0.3-1v-6.7l-5.9-12.3c-0.2-0.4-0.2-0.8,0-1.1
			c0.2-0.3,0.6-0.5,1-0.5h2.7c0.7,0,1.1,0.3,1.3,1l3.5,7.9l3.5-7.9c0.2-0.6,0.7-1,1.3-1h2.7c0.4,0,0.8,0.2,1,0.5s0.2,0.7,0,1.1
			l-5.8,12.3v6.7c0,0.4-0.1,0.7-0.4,1C640.3,207.7,640,207.8,639.5,207.8z"/>
		<path class="st1" d="M649.4,206.7c-0.1,0.4-0.2,0.6-0.5,0.8c-0.2,0.2-0.5,0.3-0.9,0.3h-2.5c-0.4,0-0.8-0.1-1-0.4
			c-0.2-0.3-0.3-0.6-0.2-1.1l5.1-19.3c0.1-0.3,0.2-0.6,0.5-0.8c0.2-0.2,0.5-0.3,0.9-0.3h5.7c0.4,0,0.6,0.1,0.9,0.3
			c0.2,0.2,0.4,0.5,0.5,0.8l5.1,19.3c0.1,0.4,0,0.8-0.2,1.1s-0.6,0.4-1,0.4h-2.5c-0.4,0-0.7-0.1-0.9-0.3c-0.2-0.2-0.4-0.5-0.5-0.8
			l-0.8-3.3h-6.7L649.4,206.7z M656.1,199.6l-2.5-10.1l-2.4,10.1H656.1z"/>
		<path class="st1" d="M681.7,197.6c0,1.5-0.1,2.9-0.3,4c-0.2,1.1-0.5,2.1-1,2.9s-1,1.5-1.7,2c-0.7,0.5-1.6,0.9-2.6,1.1
			c-1,0.2-2.2,0.3-3.5,0.3c-1.7,0-3.1-0.2-4.3-0.5c-1.1-0.3-2.1-0.9-2.8-1.8s-1.3-1.9-1.6-3.2c-0.3-1.3-0.5-2.9-0.5-4.9v-10.3
			c0-0.4,0.1-0.8,0.4-1c0.2-0.2,0.6-0.4,1-0.4h2.7c0.4,0,0.8,0.1,1,0.4s0.4,0.6,0.4,1v10c0,1.5,0.1,2.6,0.4,3.5s0.7,1.5,1.2,1.8
			c0.5,0.4,1.2,0.5,2.1,0.5s1.6-0.2,2.1-0.5s0.9-0.9,1.2-1.8c0.3-0.9,0.4-2,0.4-3.5v-10c0-0.4,0.1-0.8,0.3-1c0.2-0.2,0.6-0.4,1-0.4
			h2.7c0.4,0,0.8,0.1,1,0.4c0.2,0.2,0.4,0.6,0.4,1V197.6z"/>
		<path class="st1" d="M697,207.8h-1.3c-0.7,0-1.1-0.3-1.3-1l-5.4-14.6v14.3c0,0.4-0.1,0.7-0.4,1c-0.2,0.2-0.6,0.4-1,0.4h-2.5
			c-0.4,0-0.7-0.1-1-0.4c-0.2-0.2-0.4-0.6-0.4-1v-19.2c0-0.4,0.1-0.7,0.4-1c0.2-0.2,0.6-0.4,1-0.4h5.4c0.7,0,1.1,0.3,1.3,1l4.5,12.1
			l4.6-12.1c0.2-0.7,0.7-1,1.3-1h5.3c0.4,0,0.7,0.1,1,0.4c0.2,0.2,0.4,0.6,0.4,1v19.2c0,0.4-0.1,0.7-0.4,1c-0.2,0.2-0.6,0.4-1,0.4
			h-2.4c-0.4,0-0.8-0.1-1-0.4c-0.2-0.2-0.3-0.6-0.3-1v-14.3l-5.5,14.6C698.1,207.5,697.7,207.8,697,207.8z"/>
		<path class="st1" d="M724.1,207.8h-11.7c-0.4,0-0.7-0.1-1-0.4c-0.2-0.2-0.4-0.6-0.4-1v-19.2c0-0.4,0.1-0.7,0.4-1
			c0.2-0.2,0.6-0.4,1-0.4h11.7c0.4,0,0.8,0.1,1,0.4c0.2,0.2,0.4,0.6,0.4,1v2.3c0,0.4-0.1,0.8-0.4,1c-0.2,0.2-0.6,0.4-1,0.4h-7.7v3.3
			h7.2c0.4,0,0.8,0.1,1,0.4c0.2,0.2,0.4,0.6,0.4,1v1.9c0,0.4-0.1,0.7-0.4,1c-0.2,0.2-0.6,0.4-1,0.4h-7.2v4h7.7c0.4,0,0.8,0.1,1,0.4
			c0.2,0.2,0.4,0.6,0.4,1v2.3c0,0.4-0.1,0.7-0.4,1C724.8,207.7,724.5,207.8,724.1,207.8z"/>
		<path class="st1" d="M732.8,196v1c0,0.4-0.1,0.7-0.4,1c-0.2,0.2-0.6,0.4-1,0.4h-3.4c-0.4,0-0.8-0.1-1-0.4c-0.2-0.2-0.4-0.6-0.4-1
			v-1c0-0.4,0.1-0.8,0.4-1c0.2-0.2,0.6-0.4,1-0.4h3.4c0.4,0,0.7,0.1,1,0.4C732.6,195.3,732.8,195.6,732.8,196z"/>
		<path class="st1" d="M752.7,197.6c0,1.5-0.1,2.9-0.3,4c-0.2,1.1-0.5,2.1-1,2.9s-1,1.5-1.7,2c-0.7,0.5-1.6,0.9-2.6,1.1
			c-1,0.2-2.2,0.3-3.5,0.3c-1.7,0-3.1-0.2-4.3-0.5c-1.1-0.3-2.1-0.9-2.8-1.8s-1.3-1.9-1.6-3.2c-0.3-1.3-0.5-2.9-0.5-4.9v-10.3
			c0-0.4,0.1-0.8,0.4-1s0.6-0.4,1-0.4h2.7c0.4,0,0.8,0.1,1,0.4s0.4,0.6,0.4,1v10c0,1.5,0.1,2.6,0.4,3.5c0.3,0.9,0.7,1.5,1.2,1.8
			c0.5,0.4,1.2,0.5,2.1,0.5c0.9,0,1.6-0.2,2.1-0.5c0.5-0.3,0.9-0.9,1.2-1.8c0.3-0.9,0.4-2,0.4-3.5v-10c0-0.4,0.1-0.8,0.3-1
			c0.2-0.2,0.6-0.4,1-0.4h2.7c0.4,0,0.8,0.1,1,0.4s0.4,0.6,0.4,1V197.6z"/>
		<path class="st1" d="M771.6,207.8h-2.5c-0.6,0-1-0.2-1.3-0.7l-8-11.9v11.3c0,0.4-0.1,0.7-0.4,1c-0.2,0.2-0.6,0.4-1,0.4h-2.3
			c-0.4,0-0.7-0.1-1-0.4c-0.2-0.2-0.4-0.6-0.4-1v-19.2c0-0.4,0.1-0.7,0.4-1c0.2-0.2,0.6-0.4,1-0.4h2.6c0.5,0,1,0.2,1.3,0.7l8.1,11.4
			v-10.8c0-0.4,0.1-0.7,0.3-1c0.2-0.2,0.6-0.4,1-0.4h2.3c0.4,0,0.8,0.1,1,0.4c0.2,0.2,0.4,0.6,0.4,1v19.2c0,0.4-0.1,0.7-0.4,1
			C772.4,207.7,772.1,207.8,771.6,207.8z"/>
		<path class="st1" d="M779.1,207.8h-2.7c-0.4,0-0.7-0.1-1-0.4c-0.2-0.2-0.4-0.6-0.4-1v-19.2c0-0.4,0.1-0.7,0.4-1
			c0.2-0.2,0.6-0.4,1-0.4h2.7c0.4,0,0.7,0.1,1,0.4c0.2,0.2,0.4,0.6,0.4,1v19.2c0,0.4-0.1,0.7-0.4,1
			C779.8,207.7,779.5,207.8,779.1,207.8z"/>
	</g>
	<g>
		<g>
			<g>
				<path class="st1" d="M549.9,221.8l-3-0.4c2.2-17.4,12.1-27.8,26.6-27.8v3C567.3,196.6,552.7,199.1,549.9,221.8z"/>
				<g>
					<polygon class="st1" points="554,216.2 548.5,220.7 543.9,215.2 543.5,219.5 548.1,225 553.6,220.5 					"/>
				</g>
			</g>
		</g>
	</g>
</g>
</svg>
