<?xml version="1.0" encoding="utf-8"?>
<!-- Generator: Adobe Illustrator 19.1.0, SVG Export Plug-In . SVG Version: 6.00 Build 0)  -->
<svg version="1.1" id="Calque_1" xmlns="http://www.w3.org/2000/svg" xmlns:xlink="http://www.w3.org/1999/xlink" x="0px" y="0px"
	 viewBox="0 0 954.2 675.5" style="enable-background:new 0 0 954.2 675.5;" xml:space="preserve">
<style type="text/css">
	.st0{fill:#009DBF;}
	.st1{fill:#D0095B;}
	.st2{fill:#009EC0;}
	.st3{fill:#D1005A;}
	.st4{fill:#C0BFBF;}
	.st5{enable-background:new    ;}
	.st6{fill:none;stroke:#D0095B;stroke-width:3;stroke-miterlimit:10;}
	.st7{fill:#FFFFFF;stroke:#D0095B;stroke-width:3;stroke-miterlimit:10;}
	.st8{fill:#FFFFFF;}
</style>
<g>
	<g>
		<path d="M83.2,2.2c7.2,0.3,14.4,0.6,21.6,0.8c8.5,0.3,17,0.4,25.5,0.9c12.4,0.8,24.8,2.3,37.3,2.7c27,0.9,54-0.1,81-2.7
			c2.1-0.2,4.2-0.1,6.2-0.1c15.1,0.5,30.2,0.9,45.3,1.7c9.9,0.5,19.7,2,29.5,2.7c8.6,0.6,17.2,0.4,25.7,1.1c11.6,1,22.8-1,34.1-2.8
			c14.9-2.3,29.9-3.8,44.8-5.6c4.4-0.5,8.8-1.2,13.2-1c25.4,1.3,50.8,2.9,76.2,4.1c11.2,0.5,22.3,0.3,33.5,0.4
			c17.4,0.2,34.8,0.2,52.2,0.6c18,0.4,35.9,1.3,53.9,2c16.6,0.6,33.2-2.1,49.7-1c21.2,1.4,42.4,4.6,63.7,5.1
			c18.1,0.4,36.3,1.6,54.4-0.1c21-2,41.9-3.9,63-1.3c11.9,1.5,23.7,3,35.6,4.4c4.7,0.6,12-1.9,15.4,1.3c7.3,7,6.4,15.2,8.2,24.2
			c1.7,8.9,1.5,23.5-2,32.4c-0.5,1.2-0.5,2.5-0.6,3.8c-0.2,3.8-0.3,7.7-0.6,11.6c-1.2,18.5-2.5,36.9-3.6,55.4
			c-0.4,6.7-0.3,13.4-0.7,20c-0.3,4.6-2.3,9.3-1.5,13.6c2.3,11.4,0.6,22.9,2.4,34.3c0.4,2.3,0.2,4.6,0.2,6.9
			c-0.4,14.1-2.3,28.1-1.4,42.2c0.2,3,1.4,6.1,1.3,9.2c-0.1,3.3-0.6,6.9,0.3,10c3.8,13.1-0.4,25.9-2.6,38.9
			c-2.1,12.6-2.7,25.5-4.3,38.2c-2.1,16.3,2,32.2,2.2,48.3c0.1,8.4-1.4,16.9-1.7,25.4c-0.3,6.4,0.3,12.8,0.2,19.2
			c-0.3,19.5,2.2,38.8,4.1,58.1c1.2,12.5,2.2,25.1,1.4,37.6c-0.9,14.6-0.8,29.2-0.8,43.8c0,13.8,0.9,27.7,0.8,41.5
			c-0.1,8.4,2.4,19,0.8,27.2c-1.8,9.5-10.5,16.7-19.5,17.2c-12.4,0.7-30.9-1.5-43.4-1.2c-12.5,0.3-24.9,0.7-37.4,0.9
			c-15.3,0.3-30.7,0.3-46,0.5c-14.3,0.2-28.6,0.9-42.8,0.8c-9.3-0.1-18.7-1.2-28-2c-23.6-2.1-47.2-2.2-70.9-0.3
			c-6.5,0.5-13,0.1-19.5-0.1c-17.4-0.6-34.7-1.4-52.1-1.9c-6-0.2-11.9,0.6-17.9,0.8c-22,0.7-44.1,1.5-66.2,1.8
			c-15.3,0.2-30.7-0.2-46-0.4c-16.2-0.2-32-3.2-47.9-5.6c-8.9-1.4-18-1.9-27-3c-10.3-1.2-20.6-2.5-30.9-3.6
			c-6.6-0.7-13.3-1.5-19.9-1.7c-3-0.1-6,1-9.1,1.4c-3.3,0.5-6.7,0.9-10,1.2c-11.6,1-23.3,1.6-34.8,2.9c-17,1.8-34,6.1-51.1,4
			c-25.4-3.1-50.9-1.8-76.3-3.9c-14.7-1.2-29.4-3.2-44.1-4.6c-3.8-0.4-7.8,0.5-11.6,0.4c-11.4-0.3-22.8-0.6-34.2-1.4
			c-7-0.5-13.9,0.3-20.8-0.8c-8.1-1.3-16-2.5-24.3,1c-1.6,0.7-5-4.1-6.7-5.6c-1.6-1.4-2.6-4-2.8-6.2c-0.7-7.7-1.1-15.3-1.5-23
			c-0.8-16.1-1.6-32.2-2.2-48.3c-0.4-12.1-0.5-24.1-0.9-36.2c-0.3-9.5-1.7-19-0.9-28.4c1-12.2-1.1-24.6,2.6-36.9
			c2-6.5,0.4-14.1,0-21.2c-0.5-8.1-2.3-15.8-0.4-24.3c2.3-9.8,1.2-20.3,3.2-30.2c1.9-9.5,0.3-18.8,0.4-28.2c0-2.5-0.4-5.2,0.1-7.6
			c3.1-15.4,1.9-30.5-2.1-45.6c-0.6-2.2-0.2-4.6-0.4-6.9c-0.4-4.5-0.9-9.1-1.4-13.6c-0.1-1-0.6-2-0.5-3c0.9-13.5-1-27,0.2-40.7
			c1.1-12.7,3.5-25.3,3.7-38c0.2-13.6-1.1-27.1-1.1-40.7c0-11.3,1-22.6,1.6-33.8c0.4-7.1,1.3-14.2,1.6-21.3
			c0.2-4.6-0.5-9.2-0.6-13.8c-0.1-4.6-0.3-9.2,0.3-13.8c1.6-11.4,0-22.8-0.3-34.2c-0.4-15.1,2.3-30.1,3.2-45.1
			c0.1-2.5,0.7-4.5,3.4-5.4c2-0.7,3.8-2,5.8-2.3c12.3-1.9,24.5-4.6,37.2-3.7c8.8,0.6,17.6-0.1,26.5-0.3C83.2,1.7,83.2,2,83.2,2.2z
			 M567.1,50.7c-1.8,5-3.6,10.1-5.6,15.7c2.6-0.3,5.5-0.7,8.5-1.1C568.9,59.8,568,55.3,567.1,50.7c3.5,0.3,4.6-3,6.3-4.9
			c2.5-2.8,4.3-3,8.1-1.7c5,1.8,10.7,2.1,16.2,2.3c2.8,0.1,5.8-1.2,5.5-5.3c-4.6-3.3-9.2-6.6-13.8-9.9c-11.4,1.5-24.4-2.5-33.8,8.3
			C560.8,42.2,567.2,43.1,567.1,50.7z M659.2,601c-1.2-1.6-2.2-3.8-3.9-5.2c-3.1-2.5-4.7-5.6-5-9.4c-0.4-4.7-1.1-9.4-1-14.1
			c0.1-2.5,1-5.6,2.7-7.2c6.5-5.9,11.7-13.6,21.2-15.8c3.5-0.8,6.9-2.8,9.8-5c3.1-2.3,6.3-5.3,5.6-9.7c-0.9-6.2-2.6-12.2-7.7-16.7
			c-5.4-4.7-9.9-10.1-12.9-16.8c-0.6-1.3-1.9-2.5-3.2-3.2c-7.2-3.9-12.8-9.7-18.7-15.4c-9.2-9-15.4-18.9-16.8-31.8
			c-1-9.6-4.5-18.1-10.6-25.7c-3.8-4.8-4.3-10.6-1.4-16.6c2.1,0.2,4.3,0,6.2,0.7c4.1,1.6,7.5,0.5,11.1-1.5
			c8.2-4.6,16.6-8.9,24.9-13.3c1.2-0.6,2.5-0.9,3.6-1.5c3.1-1.5,6.1-3,9.2-4.5c4-2,7.8-4.9,12-5.8c10.2-2.1,19.2-6.8,28.3-11.6
			c3.2-1.7,4.9-3.2,5.2-6.9c0.5-5.1,3.6-8.5,9-10.7c4.8,4.9,9.6,9.8,14.8,15.2c3.6-6.6,7.9-11.8,9.3-17.6
			c2.7-11.2-1.1-21.6-8.9-29.7c-8.6-8.9-12.7-24.5-7.8-35.8c7.8-18,5-34.8-6-50.5c-2.5-3.6-6.1-6.5-9.1-9.8
			c-3.7-4.1-4.9-10.9-0.9-16c6.8-8.4,8.7-17.8,7.5-28c-0.9-7.8-2.2-15.6-4.1-23.2c-0.6-2.4-3.3-4.8-5.6-6.1c-2.5-1.4-6-1.7-6-5.2
			c0-2.8,0.9-5.6,2-8.3c0.9-2.3,2.5-4.4,4.5-8c-3.4-3.1-7-5.8-9.9-9.1c-3.1-3.4-6.4-5.3-11-4.1c-8.3,2.2-15.3-2-22.6-4.7
			c-1.2-0.5-2.5-2.2-2.7-3.4c-0.4-3.9-0.8-7.8,2.7-10.9c3.9-3.4,7.4-7.3,11.1-11.1c-1.7-4.3-5.1-5-9.4-3.2
			c-4.3,1.8-8.8,3.5-12.9,5.8c-15,8.8-30.5,16.4-47.5,20.7c-3.7,0.9-7.5,2.9-10.2,5.5c-5.4,5.2-11.2,9.5-18,12.5
			c-6.8,3.1-13.7,5.6-20.6-0.2c-0.9-0.7-2.4-0.6-3.7-0.9c-6-1.2-6.2-1.4-5.7-9.2c7.9-1.2,10.1-6.8,9.6-14.3
			c-0.3-3.9,1.4-7.1,4.2-9.8c1.4-1.4,2.6-3.1,3.9-4.5c-5.5-4.1-9.9-3.2-14.3,1.3c-4.7,4.8-10.8,5.1-16.9,4c-5.4-1-10.7-2.6-16-3.8
			c-4.5-1-7.9-3.2-9-7.8c-1.4-5.5-2.4-11.2-3.9-17.8c-0.4-0.3-1.8-1.9-3.5-2.2c-10.7-2.5-21.4-5.3-32.2-6.8c-9-1.2-18.6,0.4-26-6.8
			c-0.5-0.5-1.5-0.6-2.2-0.7c-4.6-0.9-8.2,0.9-10.3,5.2c-1.6,3.2-0.5,6.5,3.3,9.4c1,0.8,2.2,1.4,3.4,2.1
			c8.1,4.8,13.6,11.5,15.6,20.8c0.7,3.3,0.6,6.8,1.3,10.1c0.8,4.3,1.8,8.7,3.2,12.9c2.5,7.5,5.4,14.8,3.8,23
			c-0.9,4.8-2.7,6.9-7.5,7.5c-2.3,0.3-4.7,0.4-7,0.1c-4.2-0.6-5.8,1.1-7.1,5.2c-2,6.4-5,12.7-8.2,18.7c-2.3,4.4-7.4,5.8-12.2,4.4
			c-3.8-1.1-5.3-3.8-5.2-9.5c0-1.6,0.2-3.2,0.4-4.7c0.5-3.5-1.4-5.2-4.4-6.6c-4.9-2.3-9.8-1.4-14.6,0.2c-6.5,2.1-13,4.1-20,4.1
			c-2.7,0-5.3,1.3-8.8,2.3c4.9,7.4,0.7,13.7-0.3,20.3c8.1,6.1,11.2,13.9,10.4,24c-1.1,14.7-4.9,27.7-17.5,36.7
			c-6,4.3-6.7,8.3-1.3,13.5c4.2,4.1,5.6,8.5,4.9,14.1c-0.3,2,0.3,4.2,0.2,6.3c-0.1,2-0.1,4.2-0.9,5.9c-1.9,3.7-4.2,7.3-6.5,10.8
			c-5.1,7.8-11.9,12.3-21.8,11c-2.8-0.3-5.8,0.2-8.6,0.8c-6.4,1.3-7.4,3.2-4.8,9.3c9.5,22.4,7.7,44.4-2,65.7c3,6.8,6.4,13,8.6,19.6
			c4,11.9,4.8,23.7-6.2,33.1c0.8,1,1.2,2.2,2.1,2.6c7.7,4,10.5,11.5,13.1,18.9c1.1,3,1.2,6.8,0.2,9.9c-0.9,3.1-3.6,5.6-5.4,8.2
			c2.2,2.7,5.2,5.2,6.7,8.3c3,6.6,7.7,10.4,14.6,12.1c17.6,4.2,35.2,8.4,52.7,13c2.8,0.7,5.8,2.5,7.8,4.7c6.7,7.3,6.4,20.2-0.4,27.3
			c-3.6,3.8-7.5,7.4-11,11.2c-8.7,9.3-14,19.4-10.1,32.8c1.9,6.5,2.7,13.4,3.1,20.2c0.3,6-0.1,6.7,5.2,8.4
			c7.2,2.3,14.3,2.9,21.4-0.8c3.5-1.8,7.1-3.5,10.9-4.6c13.3-3.9,26.6-4.8,40.3-0.6c9.4,2.9,18.7,5.4,25.4,13.1
			c2.1,2.4,4,4.9,6.1,7.2c6.8,7.7,13.7,8.4,20.7,1c7.3-7.8,15.9-9.2,25.2-6c11.2,3.9,21.4,3,31.9-2.3c8-4,16.6-6.4,25.8-5.5
			c9.7,1,19.4,1.6,29,2.7C650.8,608,655.2,606.2,659.2,601z M10,487c0,10.1,0.1,21.3,0.1,32.6c0,12.2,6.7,23.9,2.9,36.5
			c-0.3,0.9,0.3,2,0.5,3.1c0.5,4.7,1.3,9.4,1.3,14.1c0,17.6,0.1,35.2-0.5,52.8c-0.3,7.8-0.4,15.5,2.2,23.8c3.5,0.5,7.3,1.6,11.1,1.6
			c10.8,0.2,21.5-0.3,32.3,0c7.5,0.2,15,1.2,22.5,1.5c7.8,0.3,15.6-0.4,23.4,0.2c13.6,1,27.1,2.8,40.7,4c21.7,1.9,43.4,2.7,65.2,2.6
			c14.6-0.1,29.3,0.8,43.8-0.2c27.7-1.8,55.3-6.3,83.3-4c3,0.3,4.9-0.8,6.6-3.1c2.6-3.6,5-7.6,8.3-10.5c6-5.3,8.4-11.3,8-19.3
			c-0.3-6.7,1.3-8.2,7.7-10c2.7-0.7,5.6-0.9,8.4-0.7c8.5,0.6,13.4-3.2,14.6-11.5c0.3-1.8,0.5-3.8,1.5-5.2c2.5-3.4,1.8-7.1,1.5-10.6
			c-0.4-3.9-1.1-7.8-2.1-11.6c-3-10.9-0.5-21.1,5.5-30c4.6-6.9,10.5-13.1,16.4-18.9c3.7-3.6,5-7.4,4-12c-0.9-4.1-5-4.1-8.2-4.8
			c-15.1-3.5-30.1-7-45.1-10.7c-10.6-2.6-19.3-7.3-24.3-18.1c-2.2-4.6-6.3-9.8-12.4-9.7c-8.6,0.1-16.5-2.5-24.6-4.2
			c-17.1-3.6-30.8-11.3-38.2-29.2c-2.9,0.7-6.1,0.9-8.5,2.3c-8.2,4.8-14.5,4.6-21.6-1.3c-3.1-2.6-4.7-5.9-3.4-9.7
			c1.4-4.1,3.4-8,5.3-12.4c-6.6-7.9-16.2-11.5-26.3-13.3c-6.1-1.1-10.3-3.4-12.5-9.2c-1.6-4.1-4.6-6.6-8.6-8.7
			c-5.5-2.8-11.1-4.3-17.3-4.5c-7.6-0.2-10.7-3.9-10.8-11.5c-0.1-2-0.3-4.1-0.4-5.4c-3.3-1.7-5.7-3.2-8.3-4.3
			c-2-0.9-4.3-1.8-6.4-1.8c-3.4,0-6.8,0.6-10.1,1.3c-14.7,3.3-19.7,10.8-19.2,25.7c0.4,10.4-0.6,20.9-1.6,31.2
			c-0.3,3.2-1.8,6.9-4,9.1c-7.3,7.3-15.3,13.7-25.5,16.5c-7.6,2.1-15.2,4-22.7,6.3c-3.4,1.1-7.4,2.3-9.7,4.8
			c-4.4,4.8-8.8,10.1-11.1,16c-3.1,7.9-8.2,12.6-15.8,15.2C22.3,483.8,16.7,485.1,10,487z M930.2,449.8c1.4-18,2.7-34.4,3.8-50.7
			c0.5-6.8,0.6-13.5,0.5-20.3c-0.2-10.2-1.3-20.4-1-30.6c0.5-14.4,1.1-28.8,3.1-43.1c3.1-22.8,2.5-45.5,0.9-68.3
			c-0.5-7.9-0.7-15.5,0.3-23.5c1.1-9.6,0.9-19.4,0.3-29c-0.7-12.6-2.6-25,1-37.5c1.2-4.2,1.5-9.1,0.6-13.3
			c-2.2-11.1-3.3-22.2-1.5-34c-7.5-2-10.5-7.9-13.8-13.7c-2.7-4.8-5.9-9.3-8.7-14c-1.4-2.3-3.2-3.4-5.9-3c-4.7,0.8-9.3,1.4-13.9,2.5
			c-6.1,1.5-12.1,3.4-18.2,5c-8.9,2.3-17.8,4.3-25.9,9c-8.8,5.1-17.7,10.2-26.7,15c-16.3,8.7-33.5,14.7-51.4,19.4
			c-9.6,2.5-18.7,6.8-28,10.4c-4,1.5-5.9,4.1-4.5,8.6c0.8,2.5,1.2,5.1,1.7,7.6c1.1,5.6-0.3,8.2-5.5,10.6c-3,1.4-5.9,3-9.1,4.6
			c5.3,20.2,7.9,39.4-6.6,56.4c4.9,6.3,9.7,12.1,14,18.3c11,15.9,12,33.4,5.8,51c-2.4,6.9-3,13-1.6,19.8c0.7,3.6,2.2,6.4,5.9,7.7
			c4.8,1.8,8.3,4.3,6.8,10.5c-0.4,1.5,0.6,3.7,1.4,5.2c3.9,7.2,4.7,14.9,3.6,22.9c-0.2,1.2,0.2,2.5,0.3,4.2
			c7.2,0.6,12.3,4.5,16.8,9.3c1.6,1.7,3.7,3.2,4.9,5.2c4.7,7.6,12.4,9,20.2,10.3c5.9,1,11.8,2.3,17.8,3.2c2.8,0.4,3.9,1.9,4.9,4.3
			c2.6,6,1.1,11.8,0,17.4c2.1,3.3,3.8,6.5,6,9.4c2,2.7,5,4,8.4,3.1c3.1-0.8,4.1-2.9,4.5-6.4c1-10,6.5-12.9,15.9-9.1
			c2.2,0.9,4.2,2.1,6.4,3c3.6,1.6,7.1,3.8,10.8,4.6c6.4,1.3,9.3,5.6,9.1,11.1c-0.2,6.2,2.8,8.5,7.9,9.8c2.8,0.7,5.6,1.6,8.4,1.7
			C911.9,435,923.1,436.6,930.2,449.8z M621.8,418.4c0.9,1.5,1.8,2.7,2.5,4c4.1,7.2,9.4,13.7,10,22.7c0.4,5.6,1.6,11.6,4.1,16.6
			c5.7,11.5,14.9,20.2,25.9,26.6c4,2.3,7.2,5.3,9.4,9.2c6.5,11.4,15.1,20.7,26.2,27.9c5.1,3.3,9.7,7.4,16.2,6.8
			c4.4-0.4,9.5-0.1,13.1-2.2c6.2-3.5,13.3-5.8,16.3-14.5c3.2-9.1,12.9-13,21.2-11.3c7.2,1.5,14.3,3.3,21.3,5.2
			c2.5,0.7,4.8,1.9,7.1,3.1c12.2,6.8,24.7,12.8,38.1,16.9c7.4,2.2,8.7,1.7,12.7-4.9c4.3-7.2,9.4-9.4,17.9-8.2
			c1.5,0.2,3.2,0.5,4.6,0.1c12.5-3.2,22.9-10.2,32.5-18.5c1.7-1.5,2.7-3.8,3.9-5.7c3.9-6.6,8.1-12.8,15.9-15.5c2.9-1,5.5-3,7.8-5.1
			c3.4-3.1,3.1-6.5,0-10.1c-1.7-2-3.2-4.1-4.3-6.4c-1.9-4.1-4.5-7-9-8c-3.8-0.8-7.6-1.8-11.5-2.5c-5.1-1-10.5-1.2-15.4-2.9
			c-6.5-2.3-11.5-6.6-10.7-14.6c0.3-2.6-0.5-4.4-3.3-5.5c-5.6-2.2-10.9-4.9-16.5-7c-2.8-1.1-6.1-2-8.9-1.4c-1.1,0.2-1.7,4.4-2.2,6.9
			c-1.9,8.8-12.6,13-18.9,6.8c-4.6-4.5-8.2-10.1-11.6-15.7c-1.1-1.8-0.1-5,0.2-7.5c0.3-2.5,0.8-4.9,1.4-8c-5.7-1-10.6-1.8-15.4-2.6
			c-9.8-1.6-19.7-3.2-25.9-12.6c-1.6-2.4-3.7-4.4-5.9-6.4c-5.3-4.9-11.1-8.5-18.5-7.2c-2.2,4.2-4,7.9-6,11.7
			c-9-2.1-13.4-9-19.3-16.7c-1,3.9-1.5,6-2.1,8.1c-1.1,3.5-2.1,7.2-5.9,8.9c-9.1,3.9-18.3,7.8-27.5,11.6c-5.1,2.1-10.4,3.8-15.3,6.3
			c-10.4,5.2-20.5,11.2-31,16.2C633.1,418.6,633,418.4,621.8,418.4z M625.6,663.7c7.8-0.3,15.4-0.9,23-0.9c17.6,0,35.2,0.1,52.8,0.4
			c17.9,0.3,35.8,1.3,53.7,1.4c16,0.1,32-0.7,48-1.2c1.5,0,3.2-0.4,4.4-1.1c9.1-5.5,16.7-12.2,17.3-23.7c0.4-8.6,3.7-17.3-1.6-26
			c-3.3-5.5,1.6-12.5,8.2-12.8c4.2-0.2,8.4,0.4,12.6,0.3c7.9-0.1,11.6-5.1,8.9-12.3c-3.3-8.9-6.4-17.7-7.1-27.3
			c-0.2-3.9-1.7-7.7-3-11.4c-1.8-4.9-5.1-7.9-10.4-9.8c-11.3-4.1-22.5-8.9-33.2-14.2c-6.4-3.2-12.5-6.4-19.7-7.2
			c-3.8-0.4-7.6-1.8-11.3-3c-8.4-2.8-15.7,0.9-18.9,9.2c-1,2.7-3,5.3-5.2,7.3c-2.9,2.6-6.2,5.2-9.7,6.6c-11.5,4.6-23.2,7.7-33.8-2.3
			c-0.7-0.6-1.9-0.7-3.1-1.1c-1.4,3.1-2.8,5.9-4,8.8c-2.9,6.9-7.9,12.5-14.8,14.4c-8.2,2.3-13.8,7.3-19.5,12.6
			c-5,4.7-5.5,13.4-0.3,18c5.1,4.5,5.8,10.3,6.3,16.3c0.1,1.7-0.4,4-1.5,5c-5.4,5.1-10.9,9.5-19.4,8.1c-9-1.5-18.3-1.7-27.4-2.8
			c-9.7-1.1-18.6,0.9-27.4,5.2c-10,4.9-20.5,6.5-31.2,2c-1-0.4-2-0.7-3-1c-7.3-1.8-13.9-0.4-18.4,5.7c-4.1,5.6-9.1,6.1-15.2,5.5
			c-5.8-0.6-9.5-4.1-13.1-8c-2.3-2.4-4.6-4.9-6.7-7.1c-0.4,9.2-0.7,18.1-1.1,28.1c8.6,0.8,16.6,1.3,24.6,2.5
			c5.6,0.8,11.1,2.6,16.7,3.8c4.3,0.9,8.8,2.6,13,2.1c7-0.8,13.8-3,20.7-4.8c8.1-2.1,16-4.9,24.2-6.6c12.1-2.5,20.1,2.6,23.8,14.4
			C624.3,659.1,624.8,661.1,625.6,663.7z M205.7,320.9c0.6,1.3,1,2.2,1.5,3.1c3.6,6.6,2.3,11.6-4.3,14.9c-4,2-7.7,1-11-1.6
			c-2.7-2.1-5.4-3.4-8.6-1c-6.6,5-13.1,10.1-20.3,15.6c8.9,4.1,3.4,12,6.9,18.4c2.5,0.1,5.6,0,8.7,0.4c10.3,1.4,19.3,5.9,24.4,15.2
			c2.5,4.6,5.5,6,10.3,6.9c12.2,2.3,22.7,8,30.2,18.3c3.5,4.8,3.3,7.2-0.6,11.9c-1.6,1.9-3.1,4-4.6,6c6.2,4.7,11.4,3.7,16.6,0
			c6.9-5,17.2-2.3,19,5.7c2,8.9,8.2,13.2,15.5,16.3c6.4,2.7,13.5,4.1,20.4,6.1c0.9-7.5,2.2-14.2,2.3-21c0.2-6.2,3.1-10.3,7.4-13.9
			c1.4-1.2,2.9-2.2,4.4-3.3c7.1-5.3,9.7-12.2,6.9-20.8c-2.2-6.7-4.4-13.4-6.7-20c-5.6-1.1-6.9-3.1-5.1-7.5c0.4-1,1.3-1.7,1.6-2.7
			c2.8-8.1,6.6-16.1,8.1-24.4c2-11.2,0.2-22.5-4-33.2c-1-2.4-1.8-4.9-2.3-7.5c-1.4-6.9,1.7-11.8,8.6-13.3c3.3-0.7,6.8-1.1,10.1-0.9
			c8.8,0.7,15.3-2.8,19.7-10.3c1.2-2,2.3-4.1,3.4-6.2c4.7-8.7,4.1-13.4-2.5-20.5c-7.3-7.8-6.6-17.3,1.7-23.7c2.7-2.1,5.7-4,7.5-6.8
			c4.2-6.4,6.8-13.7,7.9-21.2c1-7,1.1-14.2-6.3-18.9c-1.6-1-3.3-3.2-3.6-5c-0.9-6.1-5.7-6.8-9.9-6.9c-8.1-0.2-16.1,0.7-23.9,4
			c-8,3.4-16.2,6.2-24.4,8.7c-4.8,1.5-7.2,3.7-8.5,8.9c-1.1,4.7,1.8,6.9,3.6,9.7c7.2,10.9,7.9,19.8-0.3,29.7
			c-7.5,9-15.2,18.2-25.8,24c-1.7,0.9-4.8,1.9-5.5,1.2c-1.3-1.5-2.2-4.2-1.8-6.1c1.8-7.1,3.9-14.2,9.5-19.5c1.4-1.3,2.5-3,4.2-5.2
			c-8.2-1.5-11.3-6.3-12.6-13.1c-1.1-5.3-3.2-10.5-4.9-15.7c-0.3-0.8-1.3-1.4-2.2-2.3c-4,3-2.8,6.8-2.8,10.2c0,7.9,1,15.9,0,23.6
			c-1.7,12.7-4.1,25.3-13.2,35.5c-7.4,8.4-14.1,17.6-21.2,26.5c3.7,7.2-2.2,10.4-6.4,14.5c3,1.8,6,3,8.2,5.1
			c1.7,1.7,3.7,4.9,3.1,6.7c-0.8,2.2-3.8,4.6-6.2,5c-2.7,0.5-5.9-0.8-8.7-1.8C214.6,317,210,314.9,205.7,320.9z M52.7,313.7
			c4.9-1.8,9.7-3.7,14.7-5.3c3-1,4.7-2.8,5.9-5.7c1.5-3.5,3.4-7,5.8-9.9c3.8-4.6,8.3-8.8,12.4-13.2c7.2-7.7,13.2-16.2,17.3-26.1
			c2.9-7.1,3.3-14.4,2.6-21.7c-0.4-4.5-1.6-9.9-4.4-13.1c-7.8-8.9-17.7-14.7-30.1-14.9c-3.5-0.1-6.6,0.6-9.3,3.3
			c-4.1,4-9,6.1-14.9,5.9c-7.8-0.3-10.8-3.4-10.9-11.1c0-3.5,1.9-5.6,3.8-8.3c2.9-4.1,4.9-8.9,7.3-13.4c-2.9-9.7-7.4-19.2-15-25.3
			c-7.6-6-9.7-12.6-7.1-20.5c4.9-14.8-3.1-25.2-10.5-36c-1-1.4-3-2.1-4.6-3.3c0,5.8,0.2,10.7,0.1,15.7c-0.1,12.8-0.4,25.6-0.4,38.4
			c0,8.1,1,16.3,0.5,24.3c-1,14.9-3.1,29.7-4.1,44.6c-1,14.2-1.4,28.4-1.7,42.5C9.8,273.8,9.6,287,10.5,300c1.3,19.6,4,39,2.2,58.7
			c-0.1,1.7,0.8,3.4,1.1,4.5c4.2,0.6,7.8,1.1,11.3,1.7c4.1,0.7,8.2,1.6,12.4,2.3c6.6,1.1,12.5-0.6,17.9-4.4
			c6.5-4.6,13.3-8.3,21.2-10c11.9-2.6,18.1-10.9,22.2-22.8c-14,0.8-26.5-2.9-39.2-6.4C54.4,322.2,52.5,319.9,52.7,313.7z M460,115
			c-9.5-0.8-18.7-1-27.7-2.5c-11.4-1.9-22.6-1.6-33.4,2.3c-11.6,4.2-22.5,3.4-33.6-1.3c-13.6-5.8-27.8-8.6-42.1-2.7
			c-13.6,5.7-26.7,3.5-39.7-1.7c-5.7-2.2-11.4-4.1-17.6-3.6c-5.5,0.5-11.2,0.4-16.3,2.1c-15.1,5.1-29.6,2.8-43.7-3.1
			c-5.9-2.5-11.8-3.7-18.3-4.2c-9.7-0.6-18.6,2.6-27.9,4.5c-4.8,1-10,2.3-14.7,1.5c-9.5-1.6-19.1-3.7-28.1-7
			c-9.8-3.6-18.9-3.3-28.3,0.2c-13.2,4.8-25.8,3.7-37.8-3.7c-6.1-3.8-12.3-3.2-19.2,0c6.8,10.9,13.3,21.4,11.3,35.5
			c9.9-3.9,18-0.1,26.3,2c16.6,4.2,33.2,5.5,49.5-1c10-4,19.4-1.9,28,2.8c15.1,8.3,30.6,10,47.1,5.2c7.9-2.3,15.9-3,24.1-0.6
			c7.8,2.3,15.6,4.8,23.5,6.6c9.7,2.2,19.2,4.4,29.3,0.3c5.3-2.1,11.9-2.2,17.7-1.5c11.1,1.3,22.1,3.6,33,5.9
			c6.3,1.3,12.6,2.2,18.6-0.3c8.9-3.7,17.9-3.1,26.2-1.1c4.8-2.8,8.8-6.4,13.4-7.7c10.1-2.7,20.3-5.5,30.9-5.4
			c7.9,0.1,15.8,0.4,20.4,8.8c1.2,2.1,3.5,3.6,5.7,5.9c1.2-4,1.9-7.3,3.2-10.3c1.1-2.6,2.4-5.2,4.3-7.2c4.3-4.5,9.9-3.9,15.5-2.6
			C464,125.4,461.8,120.1,460,115z M456,106c-1-6.8-2.3-12.9-2.7-19.2c-0.6-8.7-6.3-13.2-14.6-10.9c-4.3,1.2-8.3,3.1-13,1.7
			c-5.5-1.6-11.1-3.2-16.7-4.5c-9.7-2.3-19.3-5.1-29.2-6.2c-11.6-1.4-23,0.7-34,4.7c-2.7,1-5.6,1.4-8.5,1.5
			c-10.6,0.4-20.8-1.4-30.8-4.9c-6.2-2.1-12.2-5-18.6-6.2c-11.6-2.1-22.5,1.2-32,8c-3.4,2.4-6.6,4.2-10.7,4.2
			c-15.5-0.1-30.4-4.2-44.2-10.3c-11.9-5.3-22.4-4.5-33.1,0.7c-6.6,3.2-13.2,4.8-20.4,4.9c-11.9,0.2-22.7-4-33.3-8.5
			c-9.5-4-18.7-3.9-28.1,0.4c-8,3.6-16.5,5.6-25.3,4c-9-1.6-17.9-3.5-26.2-8c-7-3.9-14.1-2.4-20.5,1.3c-0.1,2.9-0.2,5.2-0.3,7.6
			c-0.3,6,0,11.2,5.1,16.2c4.6,4.6,8.3,6.6,14.3,4.4c6.9-2.5,13.3-1.5,19.4,2.9c4.8,3.6,10.4,4.9,16.3,4.9c5.8,0.1,11.4-0.3,17-2.5
			c9.4-3.7,19-5.8,28.9-0.6c3.7,1.9,7.9,3,11.9,4.2c11.2,3.4,22.4,4.9,34,1.1c6.5-2.1,13.3-3,20-4.2c8.6-1.4,16.6,1,24.5,4.3
			c13.5,5.6,27.1,7.5,41.5,3.2c13.8-4.2,27.4-2.7,40.7,2.9c11,4.5,22.2,5.4,33.6,0.4c4.7-2,10.1-2.6,15.3-3.2
			c11.4-1.4,21.8,2.5,32,6.8c7.9,3.3,15.8,3.5,23.9,1.6c4.1-0.9,8.1-2.5,12.2-3.3c8.2-1.4,16.4-2.2,25-1.2
			C438,105.5,446.7,108.5,456,106z M13.6,50c7.6-1.5,14-2.5,20.4,0.6c6.4,3.1,13.3,4.6,20.1,6.4c10.8,2.9,20.5,1.4,30.5-2.7
			c4.3-1.7,9.1-2.4,13.7-2.9c8.2-0.9,15.3,2.8,22.7,5.6c15.1,5.8,30,8.1,45.5,0c8.9-4.7,19.6-6.4,29.1-2.3
			c9.5,4.1,19.2,7.1,29.1,9.5c6.8,1.6,14,1.7,21.1,2.2c1.7,0.1,3.7-0.7,5-1.8c7.7-6.2,16.8-8.1,26.2-9.7c5.2-0.9,9.9-0.4,14.7,1.3
			c5.7,2,11.2,4.6,17,6.1c12.9,3.3,25.6,5.7,39.2,0.9c14.4-5,29.8-6.3,45-1.9c8.3,2.4,16.6,4.8,25,6.9c5.8,1.4,11.6,3.8,17.6,0.6
			c-7.3-12.3-6.6-16.9,4.2-27.8c1.9-1.9,4.1-3.9,3.8-8.2c-8.3,2.5-15.8,1.2-23.4-1.5c-3-1.1-6.8-0.7-10.2-0.1
			c-7.2,1.2-14.3,3.2-21.5,4.6c-4.1,0.8-8.4,1.7-12.4,1.4c-8.6-0.8-17.1-2.3-25.6-3.7c-4.4-0.7-8.7-1.8-13.1-2.4
			c-8.6-1.2-16.6,1.8-24.7,3.9c-7.4,1.9-14.6,4.7-22.3,3.7c-7.5-1-15-2.2-22.5-3.8c-14.5-3-28.9-5.2-43.3,0.7
			c-11.8,4.8-23.9,3.4-35.4-1c-10.9-4.1-21.3-4.3-32.3-0.9c-17.3,5.3-34.6,5.7-51.5-2c-5.6-2.6-11.7-3.3-17.8-2.3
			c-4.4,0.7-8.6,2.5-13,3c-6.7,0.8-13.6,1.7-20.2,1.1c-6.7-0.5-13.4-2.5-19.9-4.3c-7.3-2-13.9-0.6-20.9,2.6
			C13.5,37.6,13.5,43.3,13.6,50z M943.2,45.3c-6.8-4.4-12.6-1.6-18.5-0.7c-5.4,0.8-10.9,1.5-16.3,1c-6.7-0.6-13.5-2.1-20-3.8
			c-15.1-3.9-29.7-2-44,3.4c-10.3,3.9-20.2,1.9-29.7-1.8c-4.8-1.9-9.4-3.5-14.4-3.3c-9.1,0.4-18.3,1-27.4,1.5
			c-1.7,6-6.2,9.8-11.6,9.1c-5.9-0.7-12-0.9-16.9-5.6c-1.7-1.6-4.8-1.9-7.2-2.6c-4.8-1.4-9.8-2.1-14.2-4.2
			c-11.1-5.4-22.1-6.3-33.4-1.5c-7.2,3-14.5,2.2-21.6,0.4c-4.6-1.1-8.9-3.1-13.4-4.6c-6.4-2.2-12.7-2.6-19.4-0.1
			c11.5,11.3,10.6,16.5-3.3,28.1c4.2,0.2,9.4-0.2,14.4,0.7c8.7,1.4,16.9,1,25.5-1.4c11.6-3.3,23.4-3.5,34.3,3.3
			c1.5,1,3.4,1.3,5.2,1.8c13.5,3.9,27.1,4.6,41.2,2.7c13.3-1.7,26.6-1.1,39.3,5.2c9.9,4.9,20.7,6.1,31.5,3.3
			c8.1-2.1,16.2-4.1,24.7-2.8c1.2,0.2,2.5-0.6,3.7-0.9c10.8-3.3,21.4-7.1,32.3-9.9c10.6-2.8,21.3-5.9,32.5-4.9
			c3.6,0.3,6.6,1.2,8.9,4.3c4.6,6.2,9.5,12.2,13.7,17.5C940.4,68.9,941.8,57.1,943.2,45.3z M61.6,169c3.5-1.4,6.1-2.6,8.9-3.4
			c5.1-1.6,10.5-2.4,15.4,0.3c6.5,3.5,13.2,4.9,20.5,3.3c4.3-1,8.8-1.5,13.1-2.3c5.4-1,10.8-1.9,16.3-0.2c10,3.1,20.2,5.8,30.2,9
			c9.8,3.1,19.7,3.6,29.5,1.2c8.3-2,16.1-1.3,23.9,1.7c3.4,1.3,6.9,2.6,10.3,4c4.8,1.9,9.5,2.2,14.5,0.7c9.5-2.8,19-3.1,28.3,1.6
			c6.4,3.3,12.8,0,19.2-0.9c4.4-0.6,5.6-3.9,8.1-6.4c2.7-2.6,6.6-4.2,10.2-5.6c6.6-2.5,13.4-4.5,20.1-6.9c2.5-0.9,4.9-2.2,7.5-3.5
			c-10-2-19.3-3.5-28.3-5.6c-14.2-3.4-28.3-6.2-42.5-0.1c-1.6,0.7-3.6,0.3-5.5,0.3c-12.9,0.5-24.9-3.7-37-7.2
			c-8.6-2.5-17.3-4.7-26.3-2c-6.3,1.9-12.6,2.9-19.3,3.1c-10.5,0.3-20.3-1.7-29.4-6.6c-9.7-5.2-19.3-7.8-30-3.1
			c-9.4,4.1-19.6,4.3-29.4,3.5c-10.1-0.8-20.2-3.3-30-6c-6.4-1.8-11.6,0.2-17.1,1.6c0,5,1.7,8.1,4.8,10.5c5,3.8,8.5,8.5,10.8,14.3
			C58.8,165.8,60.2,167.2,61.6,169z M354.3,655.4c0.3,0.8,0.6,1.6,0.9,2.4c6.8,0.3,13.5,0.4,20.3,0.8c9.1,0.5,18.3,0.9,27.3,1.9
			c13.3,1.4,26.5,4.1,39.8,4.7c25.4,1.2,50.9,1.6,76.4,1.6c21.7,0,43.5-1.2,65.2-1.9c11.2-0.3,22.4-0.7,33.7-1.1
			c-3.4-11-7.5-13.6-17.8-11.8c-2.8,0.5-5.7,0.8-8.5,1.6c-10.6,2.9-21.2,5.9-31.7,8.9c-7.4,2.1-14.4,1.8-21.3-1.9
			c-2.2-1.2-5-2.3-7.4-2.3c-12.8,0.4-25-2.6-37.3-5.4c-3.9-0.9-8.4-2.6-10.9-5.5c-5.2-6-4.4-16,0.7-22.7c2-2.6,4.1-5.2,6.4-8.1
			c-6-3.7-11.5-6.7-16.5-10.3c-3.7-2.7-7.7-3.3-11.9-3c-9.2,0.6-18.4,1.7-26.6,6.2c-12.4,6.8-24.1,5.5-35.4-2.1
			c-0.5,0.3-1,0.4-1.4,0.8c-0.6,0.5-1.2,1.1-1.5,1.8c-3.5,7.7-10.4,9-17.7,8.8c-7.2-0.2-12.4,0.6-10.9,12.3c0.7,5.1-0.7,9-4.5,12.7
			C360.2,647.4,357.4,651.6,354.3,655.4z M821.8,662.6c9.8,0.9,18.9,2.2,28,2.5c24.3,0.7,48.7,1,73,1.2c4.5,0,9.1-1.3,13.4-2
			c3.8-22.8,0.7-44.5-0.8-67.2c-10.8,6.8-22.1,8.1-33.2,6.6c-8.7-1.2-17.1-4.6-25.7-7c-4.9-1.4-9.9-2.7-14.9-4c-0.7,2-1,3-1.4,4
			c-4.3,10.3-9.3,13.4-20.7,12.8c-3-0.2-6-0.2-10.5-0.4c4.6,6.5,4.2,12.1,2.9,17.9c-0.3,1.5-0.1,3.1-0.2,4.6
			C830.5,642.2,829.4,652.9,821.8,662.6z M931.5,480.7c-4.2,2.2-8.5,3.9-11.9,6.5c-3.6,2.8-6.7,6.4-9.7,9.9
			c-2.2,2.5-3.3,6.1-5.8,8.1c-6.8,5.6-13.5,12-21.4,15.7c-6.7,3.1-13.9,7.5-22.5,4.9c-4-1.2-7.6,1.1-9.9,4.8
			c-1.7,2.8-3.4,5.7-4.6,7.8c1.8,5.8,3.6,10.7,5,15.7c1.9,7.3,3.8,14.7,5.2,22.1c1.1,5.4,4.6,7.6,9.4,7.6c5.7,0.1,10.7,2.1,15.8,4.3
			c3.4,1.4,6.9,2.7,10.4,3.6c15.4,4.1,30.5,5.1,43.8-5.4C936.9,550.9,939.2,515.7,931.5,480.7z M252.5,190.1
			c-1.4-0.1-2.2-0.3-2.9-0.1c-10.2,3.2-19.5,0.8-29-3.3c-7.2-3.1-14.9-4.1-23-2.2c-9,2-18.3,2.1-27.3-0.4
			c-10.1-2.8-20.1-5.8-30.2-8.7c-7.1-2-14-2.3-21.5-0.4c-11.1,2.9-22.6,4.9-33.5-2.2c-2-1.4-5.6-1.3-8.2-0.7
			c-4.2,0.8-8.3,2.6-13,4.2c5.7,11.1-2.4,18.2-5.9,26.7c3-1.5,5.6-3.2,7.8-5.2c3.7-3.4,8.1-5,12.9-4.3c12,1.7,23.8,4.3,33.3,12.8
			c3.3,2.9,6.6,5.9,10,8.9c7.6-2.3,14.6-1.9,21.6,3c8.4,5.9,17.9,5.1,27,1c5.7-2.6,11.6-4.1,17.6-2.9c7.7,1.5,15.5,3.3,22.7,6.4
			c8.2,3.4,16,4.1,24.5,2c5-1.2,10.3-1.1,15.5-1.6c1.7-0.2,3.3-0.3,4.6-0.5C254.4,211.4,253.5,201.1,252.5,190.1z M15.5,21.7
			c12.4-2.6,22.8,0.2,33.1,3.1c3.2,0.9,6.8,1.6,10,1.3c7-0.7,14-1.7,20.8-3.5c8.2-2.1,16-2.1,24,0.7c5.4,1.9,10.9,3.7,16.5,5
			c11.6,2.7,23,0.4,34.2-2.7c12-3.3,23.6-3.9,35.4,1c11.3,4.7,23.1,5,34.6,0.3c9.4-3.9,19-4,28.7-2.7c6.2,0.8,12.4,2.2,18.5,3.5
			c12.1,2.6,24.1,4.9,36.4,0.1c16.2-6.4,32.7-6.1,49.4-1.4c11.6,3.3,23.1,3,34.8-0.9c10-3.3,20.7-5,31.1-2.2
			c6.6,1.8,12.9,1.8,19.3,1.3c4-4.5,5.2-9.2,2.1-13.4c-8.1-0.3-15.4-1.1-22.6-0.8c-21.7,1.1-43.4,3.4-65.2,3.8
			c-21.8,0.5-43.7,0.7-65.3-1.6c-20.2-2.2-40.2-2.8-60.4-3.1c-18.3-0.2-36.7,0.3-55.1,0.4c-15,0.1-29.9,0.2-44.9,0.3
			c-21.5,0.1-43,0.2-64.5,0.3c-16.2,0.1-32.5-1.3-49,2.7C17,15.4,16.4,17.9,15.5,21.7z M586.8,97c6,0.8,11.6,0.9,16.7,2.4
			c5.4,1.6,10.3,1.8,15.3-0.5c12.6-5.8,25.1-11.6,37.6-17.6c3.3-1.6,6.3-3.7,9-6.1c7.9-7,19.6-6.4,26.5,1.6
			c5.9,6.9,6.2,14.4,1.4,23.6c6-1.3,10.7-2.4,15.5-3.5c7.3-1.7,14.2-2.4,21.2,2c4.8,3,10.6,4.4,16.6,3c4.1-0.9,8.3-1.4,12.4-2.2
			c7-1.3,13.6-2.1,20.8,0.8c7.1,2.9,14.8,4.5,22.7-0.1c10.3-6.2,21.2-11.5,31.9-17.2c0.9-0.5,2-0.6,3-0.9c-0.5-0.6-0.9-1.2-1.4-1.8
			c-2.1,0.7-4.3,1.4-6.4,2.1c-11.4,3.6-23,4.3-33.8-0.8c-15.9-7.5-32.1-8.2-49.1-6c-14.9,1.9-29.4-0.5-43.1-6.6
			c-7.2-3.3-14.2-5.3-22-3.3c-3.8,1-7.6,2-11.5,2.5c-5.1,0.6-10.4,1.5-15.5,0.9c-10.5-1.3-20.9-1.4-31.2,0.9
			c-1.5,0.3-3.2,0.4-4.4,1.3c-14.5,10.1-28.6,6.8-42.6-1c-3.6,0.8-7.5,1.5-11.3,2.4c-9.3,2.1-18.6,1.4-28.1,0.7
			c-7-0.6-7.6,0.6-7.3,8.2c3.4,1.2,6.8,2.6,10.2,3.6c5.9,1.9,11.6,1.3,16-3.4c4.8-5.3,13-6.6,22.7-2C585.8,83.6,588,88.6,586.8,97z
			 M943.5,37c0.7-3.3,1.7-5.7,1.4-7.9c-0.3-2-1.7-4.7-3.3-5.4c-5.9-2.5-11.6-5.5-18.5-4.8c-6.7,0.7-13.6-0.2-20.3,0
			c-12.1,0.2-24.2,0.6-36.2,0.9c-18.1,0.6-36.1,1.9-54.2,1.7c-15.7-0.2-31.5-1.7-47.2-3c-17-1.4-33.9-3.7-50.9-4.6
			c-14.4-0.8-28.8-0.4-43.3-0.5c-8.8-0.1-17.7,0-26.5,0c-0.8,3.5-1.5,6.5-2.2,9.3c6.2,1.8,12.3,3.2,18.2,5.4
			c9.5,3.5,18.7,4.3,28.4,0.9c11.9-4.1,23.6-3.8,34.9,2.7c2.9,1.6,6.4,2.3,9.7,3.1c1.5,0.4,3.3,0,5.4-0.1c-0.9-1.9-1.6-3.1-1.9-4.3
			c-0.5-1.5-0.7-3.1-0.9-4.6c-0.6-4.7,1.6-7.5,6.4-7.7c2-0.1,4.2,0.2,6.1,0.8c6.6,2.1,13.2,5,17.3,10.5c4.7,6.3,10.3,6,16.6,4.8
			c2.1-0.4,4.1-0.7,6.2-1.1c9.3-1.7,18-0.4,26.9,3.2c8.1,3.3,16.8,5.2,25.9,1.8c16.9-6.3,34.1-7.2,51.8-2.7
			c10.3,2.6,21,5.4,31.8,1.5C930.8,34.7,936.8,33.9,943.5,37z M120,254.3c6-1.8,11.9-0.4,16.8,3.2c7.8,5.7,15.6,4.8,23.9,1.9
			c11.6-4.2,23-6.7,35-0.7c8.9,4.5,18.4,5.1,28.3,2.8c4.6-1.1,9.7,0.2,15.8,0.4c4.5-9.5,9.3-19.6,14-29.4
			c-5.7-4.3-11.2-2.9-15.9-1.1c-9.8,3.7-18.5,1-27.5-2.1c-5.9-2.1-11.8-4.4-17.8-5.9c-6.5-1.5-13-1.2-19.2,2
			c-11.2,5.8-22.2,5.7-32.7-1.6c-6.1-4.3-11.5-3.6-16.2-0.6C122.9,234.1,121.5,243.9,120,254.3z M78.1,320.8
			c3.1,0.3,6.2,0.9,9.3,0.8c5-0.2,9.9-0.7,14.5,2.4c1.1,0.8,3.5,0.2,5.1-0.4c6.3-2.2,12.8-1.8,18.4,1.1c9.8,5.1,19.5,5,29.6,1.8
			c5.2-1.7,10.5-1.7,15.4,0.3c3.6,1.4,6.4,1.3,9.6-0.5c4.9-2.7,9.9-2.8,14.8,0.4c1.9,1.2,4,2,7.8,3.8c-2.1-5.9-3.7-10.3-5.3-14.7
			c5.3-4,9.1-9.4,15.6-7.1c0.1-3.7,0.3-7.2,0.4-11.6c-3.4,0.6-7.6,0.5-10.9,2.1c-11.5,5.5-22.1,4.6-32.9-2.1
			c-3.4-2.1-7.8-2.8-11.9-3.2c-2.7-0.3-5.6,1-8.4,1.8c-11.7,3.3-22.8,3.1-32.8-4.8c-1.1-0.9-2.8-1.4-4.3-1.5
			c-9.2-0.7-23.1,8.2-26.8,16.6C83.4,310.9,80.9,315.4,78.1,320.8z M108.7,381c-3.2,1.3-6.4,2.4-9.5,3.8c-3.9,1.8-7.6,1.8-11.3-0.4
			c-2.3-1.3-4.6-2.5-6.7-4.1c-7.8-5.6-15.8-7-25.2-3.7c-8.8,3.1-17.8,6.7-27.6,3.9c-3.3-0.9-6.5-2-9.8-2.8c-3.1-0.7-5.1,0.2-5.3,3.8
			c-0.4,6.5-0.8,13.1-1.3,19.6c-0.3,3.5-0.7,7-1.2,11.4c3.5-0.6,6.2-0.8,8.6-1.6c8.7-3,17.1-2.5,26.1,0.1c11,3.2,22.5,5,33.9,0.3
			c7-2.9,14.2-3.4,21.4-0.4c0.9,0.4,1.9,0.3,3.6,0.6C106.2,401.5,113.8,392.9,108.7,381z M108.4,279.8c4.5,2.3,8.8,4.3,13.1,6.6
			c5.8,3.1,11.8,4.4,18.2,2.9c4.1-1,8.2-1.8,12.2-3.2c5.4-1.9,10.3-0.8,15.2,1.6c2.1,1,4.2,2.1,6.2,3.4c7.5,4.8,15.3,4.9,23.3,1.5
			c5.7-2.4,11.4-4.1,17.6-2.6c3.1,0.8,5.6-0.3,5.9-3.4c0.5-4.4,3.6-6.8,6.1-9.7c2.2-2.5,4.4-5,7.4-8.3c-3.7-0.1-6.5-1-8.7-0.2
			c-10.7,4-20.8,0.9-30.4-3.1c-7.8-3.2-15.1-3.6-22.9-1.1c-3.5,1.1-7,2.5-10.6,3c-5.1,0.8-10.5,1.8-15.5,1.1
			c-4.2-0.6-8.1-3.3-12.1-5.2c-8.6-4-16.8-1-20.5,7.4C111.4,273.9,109.7,277.2,108.4,279.8z M34.6,462c1.8-3.1,4-5.8,5.2-8.9
			c3.1-7.7,9.2-12,16.3-15.1c5-2.2,10.5-3.3,15.7-5.1c6.9-2.4,13.9-4.7,20.7-7.5c2.4-1,4.3-3.2,7.5-5.7c-6.8-2.5-11.8-2.6-16.8-0.5
			c-6.5,2.7-13.2,3.8-20.1,2.8c-8.3-1.2-16.5-2.9-24.7-4.4c-2.5-0.4-5.2-1.2-7.6-0.8c-6.6,1.2-13.2,2.9-19.8,4.5
			c-0.5,12.2-0.9,24.7-1.4,36.4C18.2,459.2,25.9,460.5,34.6,462z M455,10.7c-1.1,6.1-2.2,10.8-2.5,15.4c-0.2,3.9,0.1,7.9,1.1,11.6
			c1.6,6.5,4.3,8.4,11.1,9c5.7,0.5,11.5,0.8,17.2,1.7c7.7,1.1,15.4,3,23.2,4c5.3,0.7,9.5-1.2,9.3-3.6c-0.4-4.1-3.9-5.4-7-6.5
			c-10.9-4-12.4-6.7-10.1-18.1c1.7-8.1-2.7-12.6-10.9-12.4c-8.4,0.2-16.8-0.5-25.2-0.8C459.2,10.9,457.2,10.8,455,10.7z M573.7,58
			c3.9,2.9,7.3,6.4,11.4,8.1c4.2,1.8,9.1,2.3,13.8,2.6c9.4,0.6,13.4-2,16.9-10.8c1.9-4.7,4.8-8,9.5-9.9c1.5-0.6,3-1.5,4.5-2.2
			c-0.1-0.3-0.2-0.6-0.3-0.9c-2.4,0.2-4.9,0.5-7.1,0.7c-7-13.2-6-17.4,5.6-24.9c0.4-0.3,0.9-0.6,1.3-0.9c1.9-1,3.7-2,3.2-4.8
			c-0.7-3.3-3.2-3.1-5.5-3.1c-8.9,0.1-17.7,0.2-26.6,0.5c-7.5,0.2-15,0.7-23.4,1.1c1.5,3.2,2.5,5.4,3.6,7.8
			c6.2-0.7,10.7,1.3,14.3,5.7c1.1,1.4,2.9,2.2,4.5,3.1c8.9,5.1,13,7.2,9.8,21.6c-4.5,0.9-9.5,2.6-14.5,2.6c-5.3-0.1-10.6-1.9-16-2.9
			C577.2,53.4,575.6,55.4,573.7,58z M110,371.3c0.9-2.8,1.9-6.4,3.2-9.8c2.2-6.1,6.6-10.3,12.8-11.7c6.9-1.6,13.9-3.2,20.9-3.4
			c9-0.3,13.2-6.8,18.7-12.1c-3.9-0.2-7.5,0.2-10.9,1.2c-9.7,2.9-19,2-28.2-2.3c-5.5-2.6-11.3-4-17.3-0.8
			c-0.9,9.5-7.8,15.2-12.3,22.4c-5.4,8.5-14,9.8-22.8,12.5c4.2,2.7,7.7,4.9,11.1,7.3c4.5,3.1,9,3.7,14.1,1.1
			C102.5,374,106,372.9,110,371.3z M708.2,105c8.8,6.8,9.5,7.7,13.8,15.9c0.7,1.4,1.3,2.9,2.3,4.1c4.7,5.8,6.2,11.9,2.1,18.8
			c-0.2,0.3,0.3,0.9,0.4,1.4c4.1,2.8,4.1,2.8,8.6,2.1c-0.4-1.2-0.7-2.5-1.3-3.6c-5.6-9.9-2.3-19.8,8.5-23.9
			c9.5-3.6,19.3-6.7,28.9-10.1c1.5-0.5,2.9-1.3,5.4-2.5c-6.7-2.4-12-1-17.3,0.2c-10.6,2.3-21.4,4.1-31.3-2.1
			C721.5,100.9,715.2,102.6,708.2,105z M547,47.6c-4.5-2.2-8.8-4.2-12.9-6.4c-4.8-2.6-9.2-5.8-14.1-8.2c-1.9-0.9-4.5-0.3-6.9-0.4
			c15.3,7,17.4,19.2,14.9,33.1c6.1,0.2,11.4,0.4,17.4,0.7C540,59.1,544.2,53.5,547,47.6z M330.2,461.7c3.1-3.6,6.1-7.1,8.6-10
			c-1.4-10.5-8-16-15.3-20.8c-6.5,4.6-4.6,11.6-5.8,17.5c-1.5,7.4-0.7,7.7,6.8,10.4C326.3,459.5,328.1,460.6,330.2,461.7z
			 M519.9,13.9c4.6,9.2,11.1,14.7,17.9,20c2.8,2.2,5.9,0.8,8-0.9c5.8-4.5,8-8.2,4.8-13.9c-0.7-1.3-1.1-2.8-1.6-4.1
			C539.6,14.7,530.4,14.3,519.9,13.9z M279.7,202.8c11.1,3.9,14.2,13.7,18.4,23.2c1.6-2,3.2-3.5,4.1-5.3c2.8-5.6,4.2-10.9-0.9-16.6
			c-3-3.4-4.6-8.1-7.1-12.7c-4.6,1-9.4,2.1-14.2,3.2C279.9,197.4,279.8,199.7,279.7,202.8z M577.3,122.1c7.1-5.3,13.7-10.3,21.4-16
			c-4.9-1.6-8.3-0.8-11.7,0C577.3,108.4,576.1,110.2,577.3,122.1z M492.9,645.7c1.1-7.2,3.7-13.7,1.6-21
			C483.6,635.3,483,641.4,492.9,645.7z M27,468.2c-2.9-0.8-5.1-1.4-7.4-1.9c-0.7-0.2-1.5-0.1-2.3-0.1c-6.7-0.2-7.8,0.9-7.4,7.4
			c0.1,1,0.3,1.9,0.4,2.8C17.8,476.5,19.9,475.5,27,468.2z M760.3,40.9c-4.1-7.7-10.4-10.2-17.7-12.4
			C743.7,36.5,751,41.7,760.3,40.9z M574.3,24.9c-2.2-11.1-3.1-11.8-11.5-9.5c1.3,3.3,2.6,6.6,3.9,10
			C569.1,25.3,571.4,25.1,574.3,24.9z M516.4,24.5c-1-4.3-1.7-7.8-2.6-11.8c-2.1,0.1-3.9,0.3-6.5,0.5c1.3,4.7,2.5,8.6,3.6,12.6
			C512.9,25.3,514.4,24.9,516.4,24.5z M347.6,156c0,0.5,0,1,0.1,1.5c4-0.5,7.9-1.1,11.9-1.6c0-0.4-0.1-0.8-0.1-1.2
			C355.5,155.2,351.5,155.6,347.6,156z M558.2,49.6c-5.5,2.1-5.5,2.1-7.4,7.4C552.9,54.9,555,52.8,558.2,49.6z"/>
	</g>
	<path class="st4" d="M10,487c0,10.1,0.1,21.3,0.1,32.6c0,12.2,6.7,23.9,2.9,36.5c-0.3,0.9,0.3,2,0.5,3.1c0.5,4.7,1.3,9.4,1.3,14.1
		c0,17.6,0.1,35.2-0.5,52.8c-0.3,7.8-0.4,15.5,2.2,23.8c3.5,0.5,7.3,1.6,11.1,1.6c10.8,0.2,21.5-0.3,32.3,0c7.5,0.2,15,1.2,22.5,1.5
		c7.8,0.3,15.6-0.4,23.4,0.2c13.6,1,27.1,2.8,40.7,4c21.7,1.9,43.4,2.7,65.2,2.6c14.6-0.1,29.3,0.8,43.8-0.2
		c27.7-1.8,55.3-6.3,83.3-4c3,0.3,4.9-0.8,6.6-3.1c2.6-3.6,5-7.6,8.3-10.5c6-5.3,8.4-11.3,8-19.3c-0.3-6.7,1.3-8.2,7.7-10
		c2.7-0.7,5.6-0.9,8.4-0.7c8.5,0.6,13.4-3.2,14.6-11.5c0.3-1.8,0.5-3.8,1.5-5.2c2.5-3.4,1.8-7.1,1.5-10.6c-0.4-3.9-1.1-7.8-2.1-11.6
		c-3-10.9-0.5-21.1,5.5-30c4.6-6.9,10.5-13.1,16.4-18.9c3.7-3.6,5-7.4,4-12c-0.9-4.1-5-4.1-8.2-4.8c-15.1-3.5-30.1-7-45.1-10.7
		c-10.6-2.6-19.3-7.3-24.3-18.1c-2.2-4.6-6.3-9.8-12.4-9.7c-8.6,0.1-16.5-2.5-24.6-4.2c-17.1-3.6-30.8-11.3-38.2-29.2
		c-2.9,0.7-6.1,0.9-8.5,2.3c-8.2,4.8-14.5,4.6-21.6-1.3c-3.1-2.6-4.7-5.9-3.4-9.7c1.4-4.1,3.4-8,5.3-12.4
		c-6.6-7.9-16.2-11.5-26.3-13.3c-6.1-1.1-10.3-3.4-12.5-9.2c-1.6-4.1-4.6-6.6-8.6-8.7c-5.5-2.8-11.1-4.3-17.3-4.5
		c-7.6-0.2-10.7-3.9-10.8-11.5c-0.1-2-0.3-4.1-0.4-5.4c-3.3-1.7-5.7-3.2-8.3-4.3c-2-0.9-4.3-1.8-6.4-1.8c-3.4,0-6.8,0.6-10.1,1.3
		c-14.7,3.3-19.7,10.8-19.2,25.7c0.4,10.4-0.6,20.9-1.6,31.2c-0.3,3.2-1.8,6.9-4,9.1c-7.3,7.3-15.3,13.7-25.5,16.5
		c-7.6,2.1-15.2,4-22.7,6.3c-3.4,1.1-7.4,2.3-9.7,4.8c-4.4,4.8-8.8,10.1-11.1,16c-3.1,7.9-8.2,12.6-15.8,15.2
		C22.3,483.8,16.7,485.1,10,487z"/>
	<path class="st4" d="M930.2,449.8c1.4-18,2.7-34.4,3.8-50.7c0.5-6.8,0.6-13.5,0.5-20.3c-0.2-10.2-1.3-20.4-1-30.6
		c0.5-14.4,1.1-28.8,3.1-43.1c3.1-22.8,2.5-45.5,0.9-68.3c-0.5-7.9-0.7-15.5,0.3-23.5c1.1-9.6,0.9-19.4,0.3-29
		c-0.7-12.6-2.6-25,1-37.5c1.2-4.2,1.5-9.1,0.6-13.3c-2.2-11.1-3.3-22.2-1.5-34c-7.5-2-10.5-7.9-13.8-13.7c-2.7-4.8-5.9-9.3-8.7-14
		c-1.4-2.3-3.2-3.4-5.9-3c-4.7,0.8-9.3,1.4-13.9,2.5c-6.1,1.5-12.1,3.4-18.2,5c-8.9,2.3-17.8,4.3-25.9,9c-8.8,5.1-17.7,10.2-26.7,15
		c-16.3,8.7-33.5,14.7-51.4,19.4c-9.6,2.5-18.7,6.8-28,10.4c-4,1.5-5.9,4.1-4.5,8.6c0.8,2.5,1.2,5.1,1.7,7.6
		c1.1,5.6-0.3,8.2-5.5,10.6c-3,1.4-5.9,3-9.1,4.6c5.3,20.2,7.9,39.4-6.6,56.4c4.9,6.3,9.7,12.1,14,18.3c11,15.9,12,33.4,5.8,51
		c-2.4,6.9-3,13-1.6,19.8c0.7,3.6,2.2,6.4,5.9,7.7c4.8,1.8,8.3,4.3,6.8,10.5c-0.4,1.5,0.6,3.7,1.4,5.2c3.9,7.2,4.7,14.9,3.6,22.9
		c-0.2,1.2,0.2,2.5,0.3,4.2c7.2,0.6,12.3,4.5,16.8,9.3c1.6,1.7,3.7,3.2,4.9,5.2c4.7,7.6,12.4,9,20.2,10.3c5.9,1,11.8,2.3,17.8,3.2
		c2.8,0.4,3.9,1.9,4.9,4.3c2.6,6,1.1,11.8,0,17.4c2.1,3.3,3.8,6.5,6,9.4c2,2.7,5,4,8.4,3.1c3.1-0.8,4.1-2.9,4.5-6.4
		c1-10,6.5-12.9,15.9-9.1c2.2,0.9,4.2,2.1,6.4,3c3.6,1.6,7.1,3.8,10.8,4.6c6.4,1.3,9.3,5.6,9.1,11.1c-0.2,6.2,2.8,8.5,7.9,9.8
		c2.8,0.7,5.6,1.6,8.4,1.7C911.9,435,923.1,436.6,930.2,449.8z"/>
	<path class="st4" d="M621.8,418.4c0.9,1.5,1.8,2.7,2.5,4c4.1,7.2,9.4,13.7,10,22.7c0.4,5.6,1.6,11.6,4.1,16.6
		c5.7,11.5,14.9,20.2,25.9,26.6c4,2.3,7.2,5.3,9.4,9.2c6.5,11.4,15.1,20.7,26.2,27.9c5.1,3.3,9.7,7.4,16.2,6.8
		c4.4-0.4,9.5-0.1,13.1-2.2c6.2-3.5,13.3-5.8,16.3-14.5c3.2-9.1,12.9-13,21.2-11.3c7.2,1.5,14.3,3.3,21.3,5.2
		c2.5,0.7,4.8,1.9,7.1,3.1c12.2,6.8,24.7,12.8,38.1,16.9c7.4,2.2,8.7,1.7,12.7-4.9c4.3-7.2,9.4-9.4,17.9-8.2
		c1.5,0.2,3.2,0.5,4.6,0.1c12.5-3.2,22.9-10.2,32.5-18.5c1.7-1.5,2.7-3.8,3.9-5.7c3.9-6.6,8.1-12.8,15.9-15.5c2.9-1,5.5-3,7.8-5.1
		c3.4-3.1,3.1-6.5,0-10.1c-1.7-2-3.2-4.1-4.3-6.4c-1.9-4.1-4.5-7-9-8c-3.8-0.8-7.6-1.8-11.5-2.5c-5.1-1-10.5-1.2-15.4-2.9
		c-6.5-2.3-11.5-6.6-10.7-14.6c0.3-2.6-0.5-4.4-3.3-5.5c-5.6-2.2-10.9-4.9-16.5-7c-2.8-1.1-6.1-2-8.9-1.4c-1.1,0.2-1.7,4.4-2.2,6.9
		c-1.9,8.8-12.6,13-18.9,6.8c-4.6-4.5-8.2-10.1-11.6-15.7c-1.1-1.8-0.1-5,0.2-7.5c0.3-2.5,0.8-4.9,1.4-8c-5.7-1-10.6-1.8-15.4-2.6
		c-9.8-1.6-19.7-3.2-25.9-12.6c-1.6-2.4-3.7-4.4-5.9-6.4c-5.3-4.9-11.1-8.5-18.5-7.2c-2.2,4.2-4,7.9-6,11.7c-9-2.1-13.4-9-19.3-16.7
		c-1,3.9-1.5,6-2.1,8.1c-1.1,3.5-2.1,7.2-5.9,8.9c-9.1,3.9-18.3,7.8-27.5,11.6c-5.1,2.1-10.4,3.8-15.3,6.3
		c-10.4,5.2-20.5,11.2-31,16.2C633.1,418.6,633,418.4,621.8,418.4z"/>
	<path class="st4" d="M625.6,663.7c7.8-0.3,15.4-0.9,23-0.9c17.6,0,35.2,0.1,52.8,0.4c17.9,0.3,35.8,1.3,53.7,1.4
		c16,0.1,32-0.7,48-1.2c1.5,0,3.2-0.4,4.4-1.1c9.1-5.5,16.7-12.2,17.3-23.7c0.4-8.6,3.7-17.3-1.6-26c-3.3-5.5,1.6-12.5,8.2-12.8
		c4.2-0.2,8.4,0.4,12.6,0.3c7.9-0.1,11.6-5.1,8.9-12.3c-3.3-8.9-6.4-17.7-7.1-27.3c-0.2-3.9-1.7-7.7-3-11.4
		c-1.8-4.9-5.1-7.9-10.4-9.8c-11.3-4.1-22.5-8.9-33.2-14.2c-6.4-3.2-12.5-6.4-19.7-7.2c-3.8-0.4-7.6-1.8-11.3-3
		c-8.4-2.8-15.7,0.9-18.9,9.2c-1,2.7-3,5.3-5.2,7.3c-2.9,2.6-6.2,5.2-9.7,6.6c-11.5,4.6-23.2,7.7-33.8-2.3c-0.7-0.6-1.9-0.7-3.1-1.1
		c-1.4,3.1-2.8,5.9-4,8.8c-2.9,6.9-7.9,12.5-14.8,14.4c-8.2,2.3-13.8,7.3-19.5,12.6c-5,4.7-5.5,13.4-0.3,18
		c5.1,4.5,5.8,10.3,6.3,16.3c0.1,1.7-0.4,4-1.5,5c-5.4,5.1-10.9,9.5-19.4,8.1c-9-1.5-18.3-1.7-27.4-2.8c-9.7-1.1-18.6,0.9-27.4,5.2
		c-10,4.9-20.5,6.5-31.2,2c-1-0.4-2-0.7-3-1c-7.3-1.8-13.9-0.4-18.4,5.7c-4.1,5.6-9.1,6.1-15.2,5.5c-5.8-0.6-9.5-4.1-13.1-8
		c-2.3-2.4-4.6-4.9-6.7-7.1c-0.4,9.2-0.7,18.1-1.1,28.1c8.6,0.8,16.6,1.3,24.6,2.5c5.6,0.8,11.1,2.6,16.7,3.8
		c4.3,0.9,8.8,2.6,13,2.1c7-0.8,13.8-3,20.7-4.8c8.1-2.1,16-4.9,24.2-6.6c12.1-2.5,20.1,2.6,23.8,14.4
		C624.3,659.1,624.8,661.1,625.6,663.7z"/>
	<path class="st4" d="M205.7,320.9c0.6,1.3,1,2.2,1.5,3.1c3.6,6.6,2.3,11.6-4.3,14.9c-4,2-7.7,1-11-1.6c-2.7-2.1-5.4-3.4-8.6-1
		c-6.6,5-13.1,10.1-20.3,15.6c8.9,4.1,3.4,12,6.9,18.4c2.5,0.1,5.6,0,8.7,0.4c10.3,1.4,19.3,5.9,24.4,15.2c2.5,4.6,5.5,6,10.3,6.9
		c12.2,2.3,22.7,8,30.2,18.3c3.5,4.8,3.3,7.2-0.6,11.9c-1.6,1.9-3.1,4-4.6,6c6.2,4.7,11.4,3.7,16.6,0c6.9-5,17.2-2.3,19,5.7
		c2,8.9,8.2,13.2,15.5,16.3c6.4,2.7,13.5,4.1,20.4,6.1c0.9-7.5,2.2-14.2,2.3-21c0.2-6.2,3.1-10.3,7.4-13.9c1.4-1.2,2.9-2.2,4.4-3.3
		c7.1-5.3,9.7-12.2,6.9-20.8c-2.2-6.7-4.4-13.4-6.7-20c-5.6-1.1-6.9-3.1-5.1-7.5c0.4-1,1.3-1.7,1.6-2.7c2.8-8.1,6.6-16.1,8.1-24.4
		c2-11.2,0.2-22.5-4-33.2c-1-2.4-1.8-4.9-2.3-7.5c-1.4-6.9,1.7-11.8,8.6-13.3c3.3-0.7,6.8-1.1,10.1-0.9c8.8,0.7,15.3-2.8,19.7-10.3
		c1.2-2,2.3-4.1,3.4-6.2c4.7-8.7,4.1-13.4-2.5-20.5c-7.3-7.8-6.6-17.3,1.7-23.7c2.7-2.1,5.7-4,7.5-6.8c4.2-6.4,6.8-13.7,7.9-21.2
		c1-7,1.1-14.2-6.3-18.9c-1.6-1-3.3-3.2-3.6-5c-0.9-6.1-5.7-6.8-9.9-6.9c-8.1-0.2-16.1,0.7-23.9,4c-8,3.4-16.2,6.2-24.4,8.7
		c-4.8,1.5-7.2,3.7-8.5,8.9c-1.1,4.7,1.8,6.9,3.6,9.7c7.2,10.9,7.9,19.8-0.3,29.7c-7.5,9-15.2,18.2-25.8,24
		c-1.7,0.9-4.8,1.9-5.5,1.2c-1.3-1.5-2.2-4.2-1.8-6.1c1.8-7.1,3.9-14.2,9.5-19.5c1.4-1.3,2.5-3,4.2-5.2c-8.2-1.5-11.3-6.3-12.6-13.1
		c-1.1-5.3-3.2-10.5-4.9-15.7c-0.3-0.8-1.3-1.4-2.2-2.3c-4,3-2.8,6.8-2.8,10.2c0,7.9,1,15.9,0,23.6c-1.7,12.7-4.1,25.3-13.2,35.5
		c-7.4,8.4-14.1,17.6-21.2,26.5c3.7,7.2-2.2,10.4-6.4,14.5c3,1.8,6,3,8.2,5.1c1.7,1.7,3.7,4.9,3.1,6.7c-0.8,2.2-3.8,4.6-6.2,5
		c-2.7,0.5-5.9-0.8-8.7-1.8C214.6,317,210,314.9,205.7,320.9z"/>
	<path class="st4" d="M52.7,313.7c4.9-1.8,9.7-3.7,14.7-5.3c3-1,4.7-2.8,5.9-5.7c1.5-3.5,3.4-7,5.8-9.9c3.8-4.6,8.3-8.8,12.4-13.2
		c7.2-7.7,13.2-16.2,17.3-26.1c2.9-7.1,3.3-14.4,2.6-21.7c-0.4-4.5-1.6-9.9-4.4-13.1c-7.8-8.9-17.7-14.7-30.1-14.9
		c-3.5-0.1-6.6,0.6-9.3,3.3c-4.1,4-9,6.1-14.9,5.9c-7.8-0.3-10.8-3.4-10.9-11.1c0-3.5,1.9-5.6,3.8-8.3c2.9-4.1,4.9-8.9,7.3-13.4
		c-2.9-9.7-7.4-19.2-15-25.3c-7.6-6-9.7-12.6-7.1-20.5c4.9-14.8-3.1-25.2-10.5-36c-1-1.4-3-2.1-4.6-3.3c0,5.8,0.2,10.7,0.1,15.7
		c-0.1,12.8-0.4,25.6-0.4,38.4c0,8.1,1,16.3,0.5,24.3c-1,14.9-3.1,29.7-4.1,44.6c-1,14.2-1.4,28.4-1.7,42.5
		C9.8,273.8,9.6,287,10.5,300c1.3,19.6,4,39,2.2,58.7c-0.1,1.7,0.8,3.4,1.1,4.5c4.2,0.6,7.8,1.1,11.3,1.7c4.1,0.7,8.2,1.6,12.4,2.3
		c6.6,1.1,12.5-0.6,17.9-4.4c6.5-4.6,13.3-8.3,21.2-10c11.9-2.6,18.1-10.9,22.2-22.8c-14,0.8-26.5-2.9-39.2-6.4
		C54.4,322.2,52.5,319.9,52.7,313.7z"/>
	<path class="st4" d="M354.3,655.4c0.3,0.8,0.6,1.6,0.9,2.4c6.8,0.3,13.5,0.4,20.3,0.8c9.1,0.5,18.3,0.9,27.3,1.9
		c13.3,1.4,26.5,4.1,39.8,4.7c25.4,1.2,50.9,1.6,76.4,1.6c21.7,0,43.5-1.2,65.2-1.9c11.2-0.3,22.4-0.7,33.7-1.1
		c-3.4-11-7.5-13.6-17.8-11.8c-2.8,0.5-5.7,0.8-8.5,1.6c-10.6,2.9-21.2,5.9-31.7,8.9c-7.4,2.1-14.4,1.8-21.3-1.9
		c-2.2-1.2-5-2.3-7.4-2.3c-12.8,0.4-25-2.6-37.3-5.4c-3.9-0.9-8.4-2.6-10.9-5.5c-5.2-6-4.4-16,0.7-22.7c2-2.6,4.1-5.2,6.4-8.1
		c-6-3.7-11.5-6.7-16.5-10.3c-3.7-2.7-7.7-3.3-11.9-3c-9.2,0.6-18.4,1.7-26.6,6.2c-12.4,6.8-24.1,5.5-35.4-2.1
		c-0.5,0.3-1,0.4-1.4,0.8c-0.6,0.5-1.2,1.1-1.5,1.8c-3.5,7.7-10.4,9-17.7,8.8c-7.2-0.2-12.4,0.6-10.9,12.3c0.7,5.1-0.7,9-4.5,12.7
		C360.2,647.4,357.4,651.6,354.3,655.4z"/>
	<path class="st4" d="M821.8,662.6c9.8,0.9,18.9,2.2,28,2.5c24.3,0.7,48.7,1,73,1.2c4.5,0,9.1-1.3,13.4-2
		c3.8-22.8,0.7-44.5-0.8-67.2c-10.8,6.8-22.1,8.1-33.2,6.6c-8.7-1.2-17.1-4.6-25.7-7c-4.9-1.4-9.9-2.7-14.9-4c-0.7,2-1,3-1.4,4
		c-4.3,10.3-9.3,13.4-20.7,12.8c-3-0.2-6-0.2-10.5-0.4c4.6,6.5,4.2,12.1,2.9,17.9c-0.3,1.5-0.1,3.1-0.2,4.6
		C830.5,642.2,829.4,652.9,821.8,662.6z"/>
	<path class="st4" d="M931.5,480.7c-4.2,2.2-8.5,3.9-11.9,6.5c-3.6,2.8-6.7,6.4-9.7,9.9c-2.2,2.5-3.3,6.1-5.8,8.1
		c-6.8,5.6-13.5,12-21.4,15.7c-6.7,3.1-13.9,7.5-22.5,4.9c-4-1.2-7.6,1.1-9.9,4.8c-1.7,2.8-3.4,5.7-4.6,7.8c1.8,5.8,3.6,10.7,5,15.7
		c1.9,7.3,3.8,14.7,5.2,22.1c1.1,5.4,4.6,7.6,9.4,7.6c5.7,0.1,10.7,2.1,15.8,4.3c3.4,1.4,6.9,2.7,10.4,3.6
		c15.4,4.1,30.5,5.1,43.8-5.4C936.9,550.9,939.2,515.7,931.5,480.7z"/>
	<path class="st4" d="M455,10.7c-1.1,6.1-2.2,10.8-2.5,15.4c-0.2,3.9,0.1,7.9,1.1,11.6c1.6,6.5,4.3,8.4,11.1,9
		c5.7,0.5,11.5,0.8,17.2,1.7c7.7,1.1,15.4,3,23.2,4c5.3,0.7,9.5-1.2,9.3-3.6c-0.4-4.1-3.9-5.4-7-6.5c-10.9-4-12.4-6.7-10.1-18.1
		c1.7-8.1-2.7-12.6-10.9-12.4c-8.4,0.2-16.8-0.5-25.2-0.8C459.2,10.9,457.2,10.8,455,10.7z"/>
	<path class="st4" d="M573.7,58c3.9,2.9,7.3,6.4,11.4,8.1c4.2,1.8,9.1,2.3,13.8,2.6c9.4,0.6,13.4-2,16.9-10.8c1.9-4.7,4.8-8,9.5-9.9
		c1.5-0.6,3-1.5,4.5-2.2c-0.1-0.3-0.2-0.6-0.3-0.9c-2.4,0.2-4.9,0.5-7.1,0.7c-7-13.2-6-17.4,5.6-24.9c0.4-0.3,0.9-0.6,1.3-0.9
		c1.9-1,3.7-2,3.2-4.8c-0.7-3.3-3.2-3.1-5.5-3.1c-8.9,0.1-17.7,0.2-26.6,0.5c-7.5,0.2-15,0.7-23.4,1.1c1.5,3.2,2.5,5.4,3.6,7.8
		c6.2-0.7,10.7,1.3,14.3,5.7c1.1,1.4,2.9,2.2,4.5,3.1c8.9,5.1,13,7.2,9.8,21.6c-4.5,0.9-9.5,2.6-14.5,2.6c-5.3-0.1-10.6-1.9-16-2.9
		C577.2,53.4,575.6,55.4,573.7,58z"/>
	<path class="st4" d="M330.2,461.7c3.1-3.6,6.1-7.1,8.6-10c-1.4-10.5-8-16-15.3-20.8c-6.5,4.6-4.6,11.6-5.8,17.5
		c-1.5,7.4-0.7,7.7,6.8,10.4C326.3,459.5,328.1,460.6,330.2,461.7z"/>
	<path class="st4" d="M519.9,13.9c4.6,9.2,11.1,14.7,17.9,20c2.8,2.2,5.9,0.8,8-0.9c5.8-4.5,8-8.2,4.8-13.9
		c-0.7-1.3-1.1-2.8-1.6-4.1C539.6,14.7,530.4,14.3,519.9,13.9z"/>
	<path class="st4" d="M492.9,645.7c1.1-7.2,3.7-13.7,1.6-21C483.6,635.3,483,641.4,492.9,645.7z"/>
	<path class="st4" d="M760.3,40.9c-4.1-7.7-10.4-10.2-17.7-12.4C743.7,36.5,751,41.7,760.3,40.9z"/>
	<path class="st4" d="M574.3,24.9c-2.2-11.1-3.1-11.8-11.5-9.5c1.3,3.3,2.6,6.6,3.9,10C569.1,25.3,571.4,25.1,574.3,24.9z"/>
	<path class="st4" d="M558.2,49.6c-5.5,2.1-5.5,2.1-7.4,7.4C552.9,54.9,555,52.8,558.2,49.6z"/>
	<path class="st0" d="M567.1,50.7c-1.8,5-3.6,10.1-5.6,15.7c2.6-0.3,5.5-0.7,8.5-1.1C568.9,59.8,568,55.3,567.1,50.7
		c3.5,0.3,4.6-3,6.3-4.9c2.5-2.8,4.3-3,8.1-1.7c5,1.8,10.7,2.1,16.2,2.3c2.8,0.1,5.8-1.2,5.5-5.3c-4.6-3.3-9.2-6.6-13.8-9.9
		c-11.4,1.5-24.4-2.5-33.8,8.3C560.8,42.2,567.2,43.1,567.1,50.7z"/>
	<path class="st0" d="M460,115c-9.5-0.8-18.7-1-27.7-2.5c-11.4-1.9-22.6-1.6-33.4,2.3c-11.6,4.2-22.5,3.4-33.6-1.3
		c-13.6-5.8-27.8-8.6-42.1-2.7c-13.6,5.7-26.7,3.5-39.7-1.7c-5.7-2.2-11.4-4.1-17.6-3.6c-5.5,0.5-11.2,0.4-16.3,2.1
		c-15.1,5.1-29.6,2.8-43.7-3.1c-5.9-2.5-11.8-3.7-18.3-4.2c-9.7-0.6-18.6,2.6-27.9,4.5c-4.8,1-10,2.3-14.7,1.5
		c-9.5-1.6-19.1-3.7-28.1-7c-9.8-3.6-18.9-3.3-28.3,0.2c-13.2,4.8-25.8,3.7-37.8-3.7c-6.1-3.8-12.3-3.2-19.2,0
		c6.8,10.9,13.3,21.4,11.3,35.5c9.9-3.9,18-0.1,26.3,2c16.6,4.2,33.2,5.5,49.5-1c10-4,19.4-1.9,28,2.8c15.1,8.3,30.6,10,47.1,5.2
		c7.9-2.3,15.9-3,24.1-0.6c7.8,2.3,15.6,4.8,23.5,6.6c9.7,2.2,19.2,4.4,29.3,0.3c5.3-2.1,11.9-2.2,17.7-1.5
		c11.1,1.3,22.1,3.6,33,5.9c6.3,1.3,12.6,2.2,18.6-0.3c8.9-3.7,17.9-3.1,26.2-1.1c4.8-2.8,8.8-6.4,13.4-7.7
		c10.1-2.7,20.3-5.5,30.9-5.4c7.9,0.1,15.8,0.4,20.4,8.8c1.2,2.1,3.5,3.6,5.7,5.9c1.2-4,1.9-7.3,3.2-10.3c1.1-2.6,2.4-5.2,4.3-7.2
		c4.3-4.5,9.9-3.9,15.5-2.6C464,125.4,461.8,120.1,460,115z"/>
	<path class="st0" d="M456,106c-1-6.8-2.3-12.9-2.7-19.2c-0.6-8.7-6.3-13.2-14.6-10.9c-4.3,1.2-8.3,3.1-13,1.7
		c-5.5-1.6-11.1-3.2-16.7-4.5c-9.7-2.3-19.3-5.1-29.2-6.2c-11.6-1.4-23,0.7-34,4.7c-2.7,1-5.6,1.4-8.5,1.5
		c-10.6,0.4-20.8-1.4-30.8-4.9c-6.2-2.1-12.2-5-18.6-6.2c-11.6-2.1-22.5,1.2-32,8c-3.4,2.4-6.6,4.2-10.7,4.2
		c-15.5-0.1-30.4-4.2-44.2-10.3c-11.9-5.3-22.4-4.5-33.1,0.7c-6.6,3.2-13.2,4.8-20.4,4.9c-11.9,0.2-22.7-4-33.3-8.5
		c-9.5-4-18.7-3.9-28.1,0.4c-8,3.6-16.5,5.6-25.3,4c-9-1.6-17.9-3.5-26.2-8c-7-3.9-14.1-2.4-20.5,1.3c-0.1,2.9-0.2,5.2-0.3,7.6
		c-0.3,6,0,11.2,5.1,16.2c4.6,4.6,8.3,6.6,14.3,4.4c6.9-2.5,13.3-1.5,19.4,2.9c4.8,3.6,10.4,4.9,16.3,4.9c5.8,0.1,11.4-0.3,17-2.5
		c9.4-3.7,19-5.8,28.9-0.6c3.7,1.9,7.9,3,11.9,4.2c11.2,3.4,22.4,4.9,34,1.1c6.5-2.1,13.3-3,20-4.2c8.6-1.4,16.6,1,24.5,4.3
		c13.5,5.6,27.1,7.5,41.5,3.2c13.8-4.2,27.4-2.7,40.7,2.9c11,4.5,22.2,5.4,33.6,0.4c4.7-2,10.1-2.6,15.3-3.2
		c11.4-1.4,21.8,2.5,32,6.8c7.9,3.3,15.8,3.5,23.9,1.6c4.1-0.9,8.1-2.5,12.2-3.3c8.2-1.4,16.4-2.2,25-1.2
		C438,105.5,446.7,108.5,456,106z"/>
	<path class="st0" d="M13.6,50c7.6-1.5,14-2.5,20.4,0.6c6.4,3.1,13.3,4.6,20.1,6.4c10.8,2.9,20.5,1.4,30.5-2.7
		c4.3-1.7,9.1-2.4,13.7-2.9c8.2-0.9,15.3,2.8,22.7,5.6c15.1,5.8,30,8.1,45.5,0c8.9-4.7,19.6-6.4,29.1-2.3c9.5,4.1,19.2,7.1,29.1,9.5
		c6.8,1.6,14,1.7,21.1,2.2c1.7,0.1,3.7-0.7,5-1.8c7.7-6.2,16.8-8.1,26.2-9.7c5.2-0.9,9.9-0.4,14.7,1.3c5.7,2,11.2,4.6,17,6.1
		c12.9,3.3,25.6,5.7,39.2,0.9c14.4-5,29.8-6.3,45-1.9c8.3,2.4,16.6,4.8,25,6.9c5.8,1.4,11.6,3.8,17.6,0.6
		c-7.3-12.3-6.6-16.9,4.2-27.8c1.9-1.9,4.1-3.9,3.8-8.2c-8.3,2.5-15.8,1.2-23.4-1.5c-3-1.1-6.8-0.7-10.2-0.1
		c-7.2,1.2-14.3,3.2-21.5,4.6c-4.1,0.8-8.4,1.7-12.4,1.4c-8.6-0.8-17.1-2.3-25.6-3.7c-4.4-0.7-8.7-1.8-13.1-2.4
		c-8.6-1.2-16.6,1.8-24.7,3.9c-7.4,1.9-14.6,4.7-22.3,3.7c-7.5-1-15-2.2-22.5-3.8c-14.5-3-28.9-5.2-43.3,0.7
		c-11.8,4.8-23.9,3.4-35.4-1c-10.9-4.1-21.3-4.3-32.3-0.9c-17.3,5.3-34.6,5.7-51.5-2c-5.6-2.6-11.7-3.3-17.8-2.3
		c-4.4,0.7-8.6,2.5-13,3c-6.7,0.8-13.6,1.7-20.2,1.1c-6.7-0.5-13.4-2.5-19.9-4.3c-7.3-2-13.9-0.6-20.9,2.6
		C13.5,37.6,13.5,43.3,13.6,50z"/>
	<path class="st0" d="M943.2,45.3c-6.8-4.4-12.6-1.6-18.5-0.7c-5.4,0.8-10.9,1.5-16.3,1c-6.7-0.6-13.5-2.1-20-3.8
		c-15.1-3.9-29.7-2-44,3.4c-10.3,3.9-20.2,1.9-29.7-1.8c-4.8-1.9-9.4-3.5-14.4-3.3c-9.1,0.4-18.3,1-27.4,1.5
		c-1.7,6-6.2,9.8-11.6,9.1c-5.9-0.7-12-0.9-16.9-5.6c-1.7-1.6-4.8-1.9-7.2-2.6c-4.8-1.4-9.8-2.1-14.2-4.2
		c-11.1-5.4-22.1-6.3-33.4-1.5c-7.2,3-14.5,2.2-21.6,0.4c-4.6-1.1-8.9-3.1-13.4-4.6c-6.4-2.2-12.7-2.6-19.4-0.1
		c11.5,11.3,10.6,16.5-3.3,28.1c4.2,0.2,9.4-0.2,14.4,0.7c8.7,1.4,16.9,1,25.5-1.4c11.6-3.3,23.4-3.5,34.3,3.3
		c1.5,1,3.4,1.3,5.2,1.8c13.5,3.9,27.1,4.6,41.2,2.7c13.3-1.7,26.6-1.1,39.3,5.2c9.9,4.9,20.7,6.1,31.5,3.3
		c8.1-2.1,16.2-4.1,24.7-2.8c1.2,0.2,2.5-0.6,3.7-0.9c10.8-3.3,21.4-7.1,32.3-9.9c10.6-2.8,21.3-5.9,32.5-4.9
		c3.6,0.3,6.6,1.2,8.9,4.3c4.6,6.2,9.5,12.2,13.7,17.5C940.4,68.9,941.8,57.1,943.2,45.3z"/>
	<path class="st0" d="M61.6,169c3.5-1.4,6.1-2.6,8.9-3.4c5.1-1.6,10.5-2.4,15.4,0.3c6.5,3.5,13.2,4.9,20.5,3.3
		c4.3-1,8.8-1.5,13.1-2.3c5.4-1,10.8-1.9,16.3-0.2c10,3.1,20.2,5.8,30.2,9c9.8,3.1,19.7,3.6,29.5,1.2c8.3-2,16.1-1.3,23.9,1.7
		c3.4,1.3,6.9,2.6,10.3,4c4.8,1.9,9.5,2.2,14.5,0.7c9.5-2.8,19-3.1,28.3,1.6c6.4,3.3,12.8,0,19.2-0.9c4.4-0.6,5.6-3.9,8.1-6.4
		c2.7-2.6,6.6-4.2,10.2-5.6c6.6-2.5,13.4-4.5,20.1-6.9c2.5-0.9,4.9-2.2,7.5-3.5c-10-2-19.3-3.5-28.3-5.6
		c-14.2-3.4-28.3-6.2-42.5-0.1c-1.6,0.7-3.6,0.3-5.5,0.3c-12.9,0.5-24.9-3.7-37-7.2c-8.6-2.5-17.3-4.7-26.3-2
		c-6.3,1.9-12.6,2.9-19.3,3.1c-10.5,0.3-20.3-1.7-29.4-6.6c-9.7-5.2-19.3-7.8-30-3.1c-9.4,4.1-19.6,4.3-29.4,3.5
		c-10.1-0.8-20.2-3.3-30-6c-6.4-1.8-11.6,0.2-17.1,1.6c0,5,1.7,8.1,4.8,10.5c5,3.8,8.5,8.5,10.8,14.3
		C58.8,165.8,60.2,167.2,61.6,169z"/>
	<path class="st0" d="M252.5,190.1c-1.4-0.1-2.2-0.3-2.9-0.1c-10.2,3.2-19.5,0.8-29-3.3c-7.2-3.1-14.9-4.1-23-2.2
		c-9,2-18.3,2.1-27.3-0.4c-10.1-2.8-20.1-5.8-30.2-8.7c-7.1-2-14-2.3-21.5-0.4c-11.1,2.9-22.6,4.9-33.5-2.2c-2-1.4-5.6-1.3-8.2-0.7
		c-4.2,0.8-8.3,2.6-13,4.2c5.7,11.1-2.4,18.2-5.9,26.7c3-1.5,5.6-3.2,7.8-5.2c3.7-3.4,8.1-5,12.9-4.3c12,1.7,23.8,4.3,33.3,12.8
		c3.3,2.9,6.6,5.9,10,8.9c7.6-2.3,14.6-1.9,21.6,3c8.4,5.9,17.9,5.1,27,1c5.7-2.6,11.6-4.1,17.6-2.9c7.7,1.5,15.5,3.3,22.7,6.4
		c8.2,3.4,16,4.1,24.5,2c5-1.2,10.3-1.1,15.5-1.6c1.7-0.2,3.3-0.3,4.6-0.5C254.4,211.4,253.5,201.1,252.5,190.1z"/>
	<path class="st0" d="M15.5,21.7c12.4-2.6,22.8,0.2,33.1,3.1c3.2,0.9,6.8,1.6,10,1.3c7-0.7,14-1.7,20.8-3.5c8.2-2.1,16-2.1,24,0.7
		c5.4,1.9,10.9,3.7,16.5,5c11.6,2.7,23,0.4,34.2-2.7c12-3.3,23.6-3.9,35.4,1c11.3,4.7,23.1,5,34.6,0.3c9.4-3.9,19-4,28.7-2.7
		c6.2,0.8,12.4,2.2,18.5,3.5c12.1,2.6,24.1,4.9,36.4,0.1c16.2-6.4,32.7-6.1,49.4-1.4c11.6,3.3,23.1,3,34.8-0.9
		c10-3.3,20.7-5,31.1-2.2c6.6,1.8,12.9,1.8,19.3,1.3c4-4.5,5.2-9.2,2.1-13.4c-8.1-0.3-15.4-1.1-22.6-0.8
		c-21.7,1.1-43.4,3.4-65.2,3.8c-21.8,0.5-43.7,0.7-65.3-1.6c-20.2-2.2-40.2-2.8-60.4-3.1c-18.3-0.2-36.7,0.3-55.1,0.4
		c-15,0.1-29.9,0.2-44.9,0.3c-21.5,0.1-43,0.2-64.5,0.3c-16.2,0.1-32.5-1.3-49,2.7C17,15.4,16.4,17.9,15.5,21.7z"/>
	<path class="st0" d="M586.8,97c6,0.8,11.6,0.9,16.7,2.4c5.4,1.6,10.3,1.8,15.3-0.5c12.6-5.8,25.1-11.6,37.6-17.6
		c3.3-1.6,6.3-3.7,9-6.1c7.9-7,19.6-6.4,26.5,1.6c5.9,6.9,6.2,14.4,1.4,23.6c6-1.3,10.7-2.4,15.5-3.5c7.3-1.7,14.2-2.4,21.2,2
		c4.8,3,10.6,4.4,16.6,3c4.1-0.9,8.3-1.4,12.4-2.2c7-1.3,13.6-2.1,20.8,0.8c7.1,2.9,14.8,4.5,22.7-0.1c10.3-6.2,21.2-11.5,31.9-17.2
		c0.9-0.5,2-0.6,3-0.9c-0.5-0.6-0.9-1.2-1.4-1.8c-2.1,0.7-4.3,1.4-6.4,2.1c-11.4,3.6-23,4.3-33.8-0.8c-15.9-7.5-32.1-8.2-49.1-6
		c-14.9,1.9-29.4-0.5-43.1-6.6c-7.2-3.3-14.2-5.3-22-3.3c-3.8,1-7.6,2-11.5,2.5c-5.1,0.6-10.4,1.5-15.5,0.9
		c-10.5-1.3-20.9-1.4-31.2,0.9c-1.5,0.3-3.2,0.4-4.4,1.3c-14.5,10.1-28.6,6.8-42.6-1c-3.6,0.8-7.5,1.5-11.3,2.4
		c-9.3,2.1-18.6,1.4-28.1,0.7c-7-0.6-7.6,0.6-7.3,8.2c3.4,1.2,6.8,2.6,10.2,3.6c5.9,1.9,11.6,1.3,16-3.4c4.8-5.3,13-6.6,22.7-2
		C585.8,83.6,588,88.6,586.8,97z"/>
	<path class="st0" d="M943.5,37c0.7-3.3,1.7-5.7,1.4-7.9c-0.3-2-1.7-4.7-3.3-5.4c-5.9-2.5-11.6-5.5-18.5-4.8
		c-6.7,0.7-13.6-0.2-20.3,0c-12.1,0.2-24.2,0.6-36.2,0.9c-18.1,0.6-36.1,1.9-54.2,1.7c-15.7-0.2-31.5-1.7-47.2-3
		c-17-1.4-33.9-3.7-50.9-4.6c-14.4-0.8-28.8-0.4-43.3-0.5c-8.8-0.1-17.7,0-26.5,0c-0.8,3.5-1.5,6.5-2.2,9.3
		c6.2,1.8,12.3,3.2,18.2,5.4c9.5,3.5,18.7,4.3,28.4,0.9c11.9-4.1,23.6-3.8,34.9,2.7c2.9,1.6,6.4,2.3,9.7,3.1c1.5,0.4,3.3,0,5.4-0.1
		c-0.9-1.9-1.6-3.1-1.9-4.3c-0.5-1.5-0.7-3.1-0.9-4.6c-0.6-4.7,1.6-7.5,6.4-7.7c2-0.1,4.2,0.2,6.1,0.8c6.6,2.1,13.2,5,17.3,10.5
		c4.7,6.3,10.3,6,16.6,4.8c2.1-0.4,4.1-0.7,6.2-1.1c9.3-1.7,18-0.4,26.9,3.2c8.1,3.3,16.8,5.2,25.9,1.8c16.9-6.3,34.1-7.2,51.8-2.7
		c10.3,2.6,21,5.4,31.8,1.5C930.8,34.7,936.8,33.9,943.5,37z"/>
	<path class="st0" d="M120,254.3c6-1.8,11.9-0.4,16.8,3.2c7.8,5.7,15.6,4.8,23.9,1.9c11.6-4.2,23-6.7,35-0.7
		c8.9,4.5,18.4,5.1,28.3,2.8c4.6-1.1,9.7,0.2,15.8,0.4c4.5-9.5,9.3-19.6,14-29.4c-5.7-4.3-11.2-2.9-15.9-1.1
		c-9.8,3.7-18.5,1-27.5-2.1c-5.9-2.1-11.8-4.4-17.8-5.9c-6.5-1.5-13-1.2-19.2,2c-11.2,5.8-22.2,5.7-32.7-1.6
		c-6.1-4.3-11.5-3.6-16.2-0.6C122.9,234.1,121.5,243.9,120,254.3z"/>
	<path class="st0" d="M78.1,320.8c3.1,0.3,6.2,0.9,9.3,0.8c5-0.2,9.9-0.7,14.5,2.4c1.1,0.8,3.5,0.2,5.1-0.4
		c6.3-2.2,12.8-1.8,18.4,1.1c9.8,5.1,19.5,5,29.6,1.8c5.2-1.7,10.5-1.7,15.4,0.3c3.6,1.4,6.4,1.3,9.6-0.5c4.9-2.7,9.9-2.8,14.8,0.4
		c1.9,1.2,4,2,7.8,3.8c-2.1-5.9-3.7-10.3-5.3-14.7c5.3-4,9.1-9.4,15.6-7.1c0.1-3.7,0.3-7.2,0.4-11.6c-3.4,0.6-7.6,0.5-10.9,2.1
		c-11.5,5.5-22.1,4.6-32.9-2.1c-3.4-2.1-7.8-2.8-11.9-3.2c-2.7-0.3-5.6,1-8.4,1.8c-11.7,3.3-22.8,3.1-32.8-4.8
		c-1.1-0.9-2.8-1.4-4.3-1.5c-9.2-0.7-23.1,8.2-26.8,16.6C83.4,310.9,80.9,315.4,78.1,320.8z"/>
	<path class="st0" d="M108.7,381c-3.2,1.3-6.4,2.4-9.5,3.8c-3.9,1.8-7.6,1.8-11.3-0.4c-2.3-1.3-4.6-2.5-6.7-4.1
		c-7.8-5.6-15.8-7-25.2-3.7c-8.8,3.1-17.8,6.7-27.6,3.9c-3.3-0.9-6.5-2-9.8-2.8c-3.1-0.7-5.1,0.2-5.3,3.8
		c-0.4,6.5-0.8,13.1-1.3,19.6c-0.3,3.5-0.7,7-1.2,11.4c3.5-0.6,6.2-0.8,8.6-1.6c8.7-3,17.1-2.5,26.1,0.1c11,3.2,22.5,5,33.9,0.3
		c7-2.9,14.2-3.4,21.4-0.4c0.9,0.4,1.9,0.3,3.6,0.6C106.2,401.5,113.8,392.9,108.7,381z"/>
	<path class="st0" d="M108.4,279.8c4.5,2.3,8.8,4.3,13.1,6.6c5.8,3.1,11.8,4.4,18.2,2.9c4.1-1,8.2-1.8,12.2-3.2
		c5.4-1.9,10.3-0.8,15.2,1.6c2.1,1,4.2,2.1,6.2,3.4c7.5,4.8,15.3,4.9,23.3,1.5c5.7-2.4,11.4-4.1,17.6-2.6c3.1,0.8,5.6-0.3,5.9-3.4
		c0.5-4.4,3.6-6.8,6.1-9.7c2.2-2.5,4.4-5,7.4-8.3c-3.7-0.1-6.5-1-8.7-0.2c-10.7,4-20.8,0.9-30.4-3.1c-7.8-3.2-15.1-3.6-22.9-1.1
		c-3.5,1.1-7,2.5-10.6,3c-5.1,0.8-10.5,1.8-15.5,1.1c-4.2-0.6-8.1-3.3-12.1-5.2c-8.6-4-16.8-1-20.5,7.4
		C111.4,273.9,109.7,277.2,108.4,279.8z"/>
	<path class="st0" d="M34.6,462c1.8-3.1,4-5.8,5.2-8.9c3.1-7.7,9.2-12,16.3-15.1c5-2.2,10.5-3.3,15.7-5.1c6.9-2.4,13.9-4.7,20.7-7.5
		c2.4-1,4.3-3.2,7.5-5.7c-6.8-2.5-11.8-2.6-16.8-0.5c-6.5,2.7-13.2,3.8-20.1,2.8c-8.3-1.2-16.5-2.9-24.7-4.4
		c-2.5-0.4-5.2-1.2-7.6-0.8c-6.6,1.2-13.2,2.9-19.8,4.5c-0.5,12.2-0.9,24.7-1.4,36.4C18.2,459.2,25.9,460.5,34.6,462z"/>
	<path class="st0" d="M110,371.3c0.9-2.8,1.9-6.4,3.2-9.8c2.2-6.1,6.6-10.3,12.8-11.7c6.9-1.6,13.9-3.2,20.9-3.4
		c9-0.3,13.2-6.8,18.7-12.1c-3.9-0.2-7.5,0.2-10.9,1.2c-9.7,2.9-19,2-28.2-2.3c-5.5-2.6-11.3-4-17.3-0.8
		c-0.9,9.5-7.8,15.2-12.3,22.4c-5.4,8.5-14,9.8-22.8,12.5c4.2,2.7,7.7,4.9,11.1,7.3c4.5,3.1,9,3.7,14.1,1.1
		C102.5,374,106,372.9,110,371.3z"/>
	<path class="st0" d="M708.2,105c8.8,6.8,9.5,7.7,13.8,15.9c0.7,1.4,1.3,2.9,2.3,4.1c4.7,5.8,6.2,11.9,2.1,18.8
		c-0.2,0.3,0.3,0.9,0.4,1.4c4.1,2.8,4.1,2.8,8.6,2.1c-0.4-1.2-0.7-2.5-1.3-3.6c-5.6-9.9-2.3-19.8,8.5-23.9
		c9.5-3.6,19.3-6.7,28.9-10.1c1.5-0.5,2.9-1.3,5.4-2.5c-6.7-2.4-12-1-17.3,0.2c-10.6,2.3-21.4,4.1-31.3-2.1
		C721.5,100.9,715.2,102.6,708.2,105z"/>
	<path class="st0" d="M547,47.6c-4.5-2.2-8.8-4.2-12.9-6.4c-4.8-2.6-9.2-5.8-14.1-8.2c-1.9-0.9-4.5-0.3-6.9-0.4
		c15.3,7,17.4,19.2,14.9,33.1c6.1,0.2,11.4,0.4,17.4,0.7C540,59.1,544.2,53.5,547,47.6z"/>
	<path class="st0" d="M279.7,202.8c11.1,3.9,14.2,13.7,18.4,23.2c1.6-2,3.2-3.5,4.1-5.3c2.8-5.6,4.2-10.9-0.9-16.6
		c-3-3.4-4.6-8.1-7.1-12.7c-4.6,1-9.4,2.1-14.2,3.2C279.9,197.4,279.8,199.7,279.7,202.8z"/>
	<path class="st0" d="M577.3,122.1c7.1-5.3,13.7-10.3,21.4-16c-4.9-1.6-8.3-0.8-11.7,0C577.3,108.4,576.1,110.2,577.3,122.1z"/>
	<path class="st0" d="M27,468.2c-2.9-0.8-5.1-1.4-7.4-1.9c-0.7-0.2-1.5-0.1-2.3-0.1c-6.7-0.2-7.8,0.9-7.4,7.4c0.1,1,0.3,1.9,0.4,2.8
		C17.8,476.5,19.9,475.5,27,468.2z"/>
	<path class="st0" d="M574.3,24.9c-2.2-11.1-3.1-11.8-11.5-9.5c1.3,3.3,2.6,6.6,3.9,10C569.1,25.3,571.4,25.1,574.3,24.9z"/>
	<path class="st0" d="M516.4,24.5c-1-4.3-1.7-7.8-2.6-11.8c-2.1,0.1-3.9,0.3-6.5,0.5c1.3,4.7,2.5,8.6,3.6,12.6
		C512.9,25.3,514.4,24.9,516.4,24.5z"/>
	<g>
		<g class="st5">
			<path class="st1" d="M432.7,343.1c-0.1,0.4-0.3,0.7-0.5,0.9c-0.3,0.2-0.6,0.3-1,0.3h-2.9c-0.5,0-0.9-0.2-1.2-0.5
				c-0.3-0.3-0.3-0.7-0.2-1.2l5.9-22.3c0.1-0.4,0.2-0.7,0.5-0.9c0.3-0.2,0.6-0.3,1-0.3h6.5c0.4,0,0.7,0.1,1,0.3
				c0.3,0.2,0.5,0.5,0.5,0.9l5.9,22.3c0.1,0.5,0,0.9-0.2,1.2c-0.3,0.3-0.6,0.5-1.2,0.5h-2.9c-0.4,0-0.8-0.1-1-0.3
				c-0.3-0.2-0.5-0.5-0.5-0.9l-0.9-3.8h-7.8L432.7,343.1z M440.3,334.9l-2.8-11.7l-2.8,11.7H440.3z"/>
			<path class="st1" d="M465.4,344.4h-13.5c-0.5,0-0.8-0.1-1.1-0.4c-0.3-0.3-0.4-0.7-0.4-1.1v-22.2c0-0.5,0.1-0.9,0.4-1.1
				c0.3-0.3,0.7-0.4,1.1-0.4h3.1c0.5,0,0.9,0.1,1.1,0.4s0.4,0.7,0.4,1.1v18h8.9c0.5,0,0.9,0.1,1.2,0.4s0.4,0.7,0.4,1.1v2.7
				c0,0.5-0.1,0.9-0.4,1.1S465.9,344.4,465.4,344.4z"/>
			<path class="st1" d="M484.1,344.4h-13.5c-0.5,0-0.8-0.1-1.1-0.4c-0.3-0.3-0.4-0.7-0.4-1.1v-22.2c0-0.5,0.1-0.9,0.4-1.1
				c0.3-0.3,0.7-0.4,1.1-0.4h3.1c0.5,0,0.9,0.1,1.1,0.4s0.4,0.7,0.4,1.1v18h8.9c0.5,0,0.9,0.1,1.2,0.4s0.4,0.7,0.4,1.1v2.7
				c0,0.5-0.1,0.9-0.4,1.1S484.6,344.4,484.1,344.4z"/>
			<path class="st1" d="M502.9,344.4h-13.5c-0.5,0-0.9-0.1-1.1-0.4s-0.4-0.7-0.4-1.1v-22.2c0-0.5,0.1-0.9,0.4-1.1s0.7-0.4,1.1-0.4
				h13.5c0.5,0,0.9,0.1,1.2,0.4c0.3,0.3,0.4,0.7,0.4,1.1v2.7c0,0.5-0.1,0.9-0.4,1.1c-0.3,0.3-0.7,0.4-1.2,0.4H494v3.8h8.3
				c0.5,0,0.9,0.1,1.2,0.4c0.3,0.3,0.4,0.7,0.4,1.1v2.2c0,0.5-0.1,0.8-0.4,1.1s-0.7,0.4-1.2,0.4H494v4.6h8.9c0.5,0,0.9,0.1,1.2,0.4
				c0.3,0.3,0.4,0.7,0.4,1.1v2.7c0,0.5-0.1,0.9-0.4,1.1C503.7,344.3,503.4,344.4,502.9,344.4z"/>
			<path class="st1" d="M521.8,344.4h-1.5c-0.8,0-1.3-0.4-1.5-1.1l-6.3-16.9v16.5c0,0.5-0.1,0.9-0.4,1.1s-0.7,0.4-1.1,0.4h-2.9
				c-0.5,0-0.9-0.1-1.1-0.4s-0.4-0.7-0.4-1.1v-22.2c0-0.5,0.1-0.9,0.4-1.1s0.7-0.4,1.1-0.4h6.2c0.8,0,1.3,0.4,1.5,1.2l5.2,13.9
				l5.3-13.9c0.3-0.8,0.8-1.2,1.5-1.2h6.1c0.5,0,0.9,0.1,1.1,0.4s0.4,0.7,0.4,1.1v22.2c0,0.5-0.1,0.9-0.4,1.1s-0.7,0.4-1.1,0.4h-2.8
				c-0.5,0-0.9-0.1-1.1-0.4c-0.3-0.3-0.4-0.7-0.4-1.1v-16.5l-6.3,16.9C523.1,344,522.6,344.4,521.8,344.4z"/>
			<path class="st1" d="M543.5,343.1c-0.1,0.4-0.3,0.7-0.5,0.9c-0.3,0.2-0.6,0.3-1,0.3h-2.9c-0.5,0-0.9-0.2-1.2-0.5
				c-0.3-0.3-0.3-0.7-0.2-1.2l5.9-22.3c0.1-0.4,0.2-0.7,0.5-0.9c0.3-0.2,0.6-0.3,1-0.3h6.5c0.4,0,0.7,0.1,1,0.3
				c0.3,0.2,0.5,0.5,0.5,0.9l5.9,22.3c0.1,0.5,0,0.9-0.2,1.2c-0.3,0.3-0.6,0.5-1.2,0.5h-2.9c-0.4,0-0.8-0.1-1-0.3
				c-0.3-0.2-0.5-0.5-0.5-0.9l-0.9-3.8h-7.8L543.5,343.1z M551.2,334.9l-2.8-11.7l-2.8,11.7H551.2z"/>
			<path class="st1" d="M578.3,339.9c-0.3,0.7-0.6,1.3-1,1.8c-0.4,0.5-1,1-1.6,1.5c-0.7,0.4-1.4,0.8-2.4,1c-0.9,0.2-2,0.3-3.1,0.3
				c-3.7,0-6.5-0.9-8.2-2.7c-1.7-1.8-2.6-4.7-2.6-8.8v-3.3c0-3.6,0.9-6.3,2.7-8.1c1.8-1.8,4.7-2.7,8.5-2.7c3.4,0,6.1,0.6,7.9,1.9
				c1.9,1.3,2.9,3.1,3.2,5.5c0.1,0.2,0.1,0.5,0.2,1c0,0.4-0.1,0.8-0.3,1c-0.2,0.3-0.6,0.4-1,0.4h-3.4c-0.5,0-0.9-0.1-1.1-0.3
				s-0.4-0.5-0.4-1c-0.1-0.3-0.1-0.6-0.2-0.7c-0.3-0.8-0.9-1.4-1.7-1.8s-1.9-0.6-3.2-0.6c-1.2,0-2.2,0.2-2.9,0.5
				c-0.7,0.3-1.3,0.9-1.6,1.8s-0.6,2-0.6,3.5v2.8c0,2.1,0.4,3.6,1.2,4.5c0.8,0.9,2.1,1.3,3.9,1.3c0.6,0,1.2,0,1.6-0.1
				c0.5-0.1,0.9-0.2,1.4-0.3c0.4-0.2,0.8-0.4,1.1-0.7c0.3-0.3,0.5-0.7,0.7-1.2s0.3-1.1,0.3-1.7v-0.2H572c-0.4,0-0.8-0.1-1-0.4
				s-0.4-0.6-0.4-1.1v-1.2c0-0.5,0.1-0.9,0.4-1.2s0.7-0.4,1.1-0.4h8.2c0.5,0,0.9,0.1,1.2,0.4c0.3,0.3,0.4,0.7,0.4,1.2v11.1
				c0,0.8-0.4,1.2-1.2,1.2h-0.2c-0.4,0-0.7-0.1-0.9-0.2c-0.2-0.1-0.3-0.4-0.4-0.8L578.3,339.9z"/>
			<path class="st1" d="M603.5,344.4h-2.9c-0.7,0-1.2-0.3-1.5-0.8l-9.3-13.7v13c0,0.5-0.1,0.9-0.4,1.1s-0.7,0.4-1.1,0.4h-2.7
				c-0.5,0-0.9-0.1-1.1-0.4s-0.4-0.7-0.4-1.1v-22.2c0-0.5,0.1-0.9,0.4-1.1s0.7-0.4,1.1-0.4h3c0.6,0,1.1,0.3,1.5,0.8l9.3,13.2v-12.4
				c0-0.5,0.1-0.9,0.4-1.1c0.3-0.3,0.6-0.4,1.1-0.4h2.6c0.5,0,0.9,0.1,1.2,0.4s0.4,0.7,0.4,1.1v22.2c0,0.5-0.1,0.9-0.4,1.1
				S604,344.4,603.5,344.4z"/>
			<path class="st1" d="M622.4,344.4h-13.5c-0.5,0-0.9-0.1-1.1-0.4s-0.4-0.7-0.4-1.1v-22.2c0-0.5,0.1-0.9,0.4-1.1s0.7-0.4,1.1-0.4
				h13.5c0.5,0,0.9,0.1,1.2,0.4c0.3,0.3,0.4,0.7,0.4,1.1v2.7c0,0.5-0.1,0.9-0.4,1.1c-0.3,0.3-0.7,0.4-1.2,0.4h-8.9v3.8h8.3
				c0.5,0,0.9,0.1,1.2,0.4c0.3,0.3,0.4,0.7,0.4,1.1v2.2c0,0.5-0.1,0.8-0.4,1.1s-0.7,0.4-1.2,0.4h-8.3v4.6h8.9c0.5,0,0.9,0.1,1.2,0.4
				c0.3,0.3,0.4,0.7,0.4,1.1v2.7c0,0.5-0.1,0.9-0.4,1.1C623.3,344.3,622.9,344.4,622.4,344.4z"/>
		</g>
	</g>
	<g>
		<g>
			<g class="st5">
				<path class="st8" d="M134.6,592.4v2.3c0,0.4-0.1,0.7-0.4,1c-0.2,0.2-0.6,0.4-1,0.4H126v6.3c0,0.4-0.1,0.7-0.4,1
					c-0.2,0.2-0.6,0.4-1,0.4H122c-0.4,0-0.7-0.1-1-0.4c-0.2-0.2-0.4-0.6-0.4-1v-19.2c0-0.4,0.1-0.7,0.4-1c0.2-0.2,0.6-0.4,1-0.4
					h11.7c0.4,0,0.8,0.1,1,0.4c0.2,0.2,0.4,0.6,0.4,1v2.7c0,0.4-0.1,0.7-0.4,1c-0.2,0.2-0.6,0.4-1,0.4H126v3.9h7.2
					c0.4,0,0.8,0.1,1,0.4C134.4,591.7,134.6,592,134.6,592.4z"/>
				<path class="st8" d="M141,603.7h-2.7c-0.4,0-0.8-0.1-1-0.4c-0.2-0.2-0.4-0.6-0.4-1v-19.2c0-0.4,0.1-0.7,0.4-1
					c0.2-0.2,0.6-0.4,1-0.4h7.2c1.6,0,2.9,0.1,3.9,0.3c1,0.2,1.8,0.6,2.5,1.1c0.6,0.5,1.1,1.2,1.3,2c0.2,0.8,0.4,1.9,0.4,3.1v0.6
					c0,2.7-1,4.7-2.9,5.8l2.7,7.2c0.2,0.4,0.1,0.8-0.1,1.1c-0.2,0.3-0.5,0.5-1,0.5h-3.1c-0.7,0-1.1-0.3-1.3-1l-2.4-6.8h-3.2v6.5
					c0,0.4-0.1,0.8-0.4,1C141.7,603.6,141.4,603.7,141,603.7z M145.5,586.6h-3.2v4.9h3.2c1,0,1.7-0.2,2.1-0.5s0.6-0.9,0.6-1.8v-0.5
					c0-0.9-0.2-1.5-0.6-1.8S146.5,586.6,145.5,586.6z"/>
				<path class="st8" d="M160.5,602.6c-0.1,0.4-0.2,0.6-0.5,0.8c-0.2,0.2-0.5,0.3-0.9,0.3h-2.5c-0.4,0-0.8-0.1-1-0.4
					s-0.3-0.6-0.2-1.1l5.1-19.3c0.1-0.3,0.2-0.6,0.5-0.8c0.2-0.2,0.5-0.3,0.9-0.3h5.7c0.3,0,0.6,0.1,0.9,0.3
					c0.2,0.2,0.4,0.5,0.5,0.8l5.1,19.3c0.1,0.4,0,0.8-0.2,1.1c-0.2,0.3-0.6,0.4-1,0.4h-2.5c-0.4,0-0.7-0.1-0.9-0.3
					c-0.2-0.2-0.4-0.5-0.5-0.8l-0.8-3.3h-6.7L160.5,602.6z M167.2,595.5l-2.5-10.1l-2.4,10.1H167.2z"/>
				<path class="st8" d="M192.8,603.7h-2.5c-0.6,0-1-0.2-1.3-0.7l-8-11.9v11.3c0,0.4-0.1,0.7-0.4,1c-0.2,0.2-0.6,0.4-1,0.4h-2.3
					c-0.4,0-0.7-0.1-1-0.4c-0.2-0.2-0.4-0.6-0.4-1v-19.2c0-0.4,0.1-0.7,0.4-1c0.2-0.2,0.6-0.4,1-0.4h2.6c0.5,0,1,0.2,1.3,0.7
					l8.1,11.4v-10.8c0-0.4,0.1-0.7,0.3-1s0.6-0.4,1-0.4h2.3c0.4,0,0.8,0.1,1,0.4c0.2,0.2,0.4,0.6,0.4,1v19.2c0,0.4-0.1,0.7-0.4,1
					C193.6,603.6,193.2,603.7,192.8,603.7z"/>
				<path class="st8" d="M205.9,603.9c-3.4,0-5.9-0.8-7.4-2.3c-1.6-1.5-2.3-4-2.3-7.5v-2.8c0-6.4,3.3-9.6,9.8-9.6
					c6,0,9.2,2.5,9.7,7.6c0,0.1,0,0.2,0,0.3c0,0.2,0,0.3,0,0.3c0,0.4-0.1,0.7-0.3,0.9c-0.2,0.2-0.5,0.3-0.9,0.3h-2.9
					c-0.4,0-0.7-0.1-0.9-0.3s-0.3-0.5-0.4-0.9c-0.1-0.4-0.1-0.6-0.1-0.6c-0.2-1-0.7-1.8-1.4-2.2c-0.7-0.5-1.7-0.7-2.9-0.7
					c-1,0-1.9,0.1-2.5,0.4c-0.6,0.3-1.1,0.8-1.4,1.6c-0.3,0.7-0.5,1.8-0.5,3v2.4c0,1.8,0.3,3.1,1,3.9c0.7,0.8,1.8,1.1,3.4,1.1
					c1.3,0,2.3-0.2,3-0.7c0.7-0.5,1.1-1.4,1.3-2.6c0-0.1,0.1-0.2,0.1-0.5c0.1-0.8,0.5-1.2,1.3-1.2h2.9c0.4,0,0.7,0.1,0.9,0.3
					c0.2,0.2,0.3,0.5,0.3,0.9l-0.1,0.6c-0.2,2.8-1.1,4.8-2.7,6.1C211.3,603.2,209,603.9,205.9,603.9z"/>
				<path class="st8" d="M230.7,603.7h-11.7c-0.4,0-0.7-0.1-1-0.4c-0.2-0.2-0.4-0.6-0.4-1v-19.2c0-0.4,0.1-0.7,0.4-1
					c0.2-0.2,0.6-0.4,1-0.4h11.7c0.4,0,0.8,0.1,1,0.4c0.2,0.2,0.4,0.6,0.4,1v2.3c0,0.4-0.1,0.8-0.4,1c-0.2,0.2-0.6,0.4-1,0.4H223
					v3.3h7.2c0.4,0,0.8,0.1,1,0.4c0.2,0.2,0.4,0.6,0.4,1v1.9c0,0.4-0.1,0.7-0.4,1c-0.2,0.2-0.6,0.4-1,0.4H223v4h7.7
					c0.4,0,0.8,0.1,1,0.4s0.4,0.6,0.4,1v2.3c0,0.4-0.1,0.7-0.4,1C231.5,603.6,231.1,603.7,230.7,603.7z"/>
			</g>
		</g>
	</g>
</g>
</svg>
