<?xml version="1.0" encoding="utf-8"?>
<!-- Generator: Adobe Illustrator 19.1.0, SVG Export Plug-In . SVG Version: 6.00 Build 0)  -->
<svg version="1.1" id="Calque_1" xmlns="http://www.w3.org/2000/svg" xmlns:xlink="http://www.w3.org/1999/xlink" x="0px" y="0px"
	 viewBox="0 0 968.9 594.1" style="enable-background:new 0 0 968.9 594.1;" xml:space="preserve">
<style type="text/css">
	.st0{fill:#009DBF;}
	.st1{fill:#D0095B;}
	.st2{fill:#009EC0;}
	.st3{fill:#D1005A;}
	.st4{fill:#C0BFBF;}
	.st5{enable-background:new    ;}
	.st6{fill:none;stroke:#D0095B;stroke-width:3;stroke-miterlimit:10;}
	.st7{fill:#FFFFFF;stroke:#D0095B;stroke-width:3;stroke-miterlimit:10;}
	.st8{fill:#FFFFFF;}
</style>
<g>
	<g>
		<polygon class="st0" points="5,46.3 24,61.6 39.5,78.7 47.1,98.1 53.1,127.6 47.4,170.1 44.3,213.5 42.8,244 53.2,277.4 
			63.1,304.5 82.4,338.1 113.5,385.8 146.6,404.3 168.1,422 176.3,458.4 188.7,476.6 193.3,497.9 193.3,512.2 207.2,521.4 
			223.8,534.8 238.2,558 263.8,570.7 245.8,541.3 201.9,463.8 184.3,421.1 196.7,421.1 219.8,433 223.6,456.6 245.4,499.2 
			270.9,529.3 297.5,561.6 316,586.7 235.7,586.7 90.7,586.7 35.3,586.7 11.5,586.7 5.1,583.1 0.9,555.7 0.9,414.9 0.9,309.8 
			5.3,280 6.1,172.3 4.8,149 4.8,109.5 		"/>
		<polygon class="st0" points="462.7,586.7 459,556.5 468.5,528.7 497.3,494.6 524.5,468.7 538.3,468.7 570.3,487.7 595.4,485 
			605.1,474.8 598.3,465 617.6,459.8 630,459.8 650.5,473.1 677.7,468.3 689.1,481.5 702.6,520.1 715.9,543.9 738.9,541.7 
			743.3,513.9 727.4,489.3 721.1,458.4 731.5,432.4 807.5,363.2 808,324.1 824.2,298.2 844.4,256.9 887.1,239.5 903.7,206.6 
			924.4,185.3 940.5,180.1 951.1,166.1 961.4,159.9 959,239.5 959,356.6 959.1,436.6 961,511.3 961,552.3 953.4,586.5 898.2,586.7 
					"/>
		<path d="M967.4,33.8c-0.3-4.9,2.4-13.6,1.1-18.2c-1.8-6.7-14.3-3.3-21.3-5.1c-5-1.3-10.1-2.8-15.2-2.9c-24.5-0.8-49-1.3-73.6-1.6
			c-18.2-0.3-36.5,0.1-54.7-0.4c-41.5-1.1-82.9-0.7-124.3,2.2c-27.8,1.9-55.5,3.5-83.3,3.9c-21.8,0.3-43.6,2.1-65.4,2
			c-34.1-0.2-68.1-1.6-102.3-1.1c-18.2,0.3-36.5,0-54.7-0.3c-46.3-0.8-122-2.4-123.4-2.6c-17.9-2.3-35.6-2.2-53.6-3.8
			c-24.4-2.2-48.9-3.5-73.4-4.8c-13.9-0.7-27.9,0.1-41.7-0.8c-19.9-1.3-42,0.9-61.1,5.3C6.7,8.8,1.8,18.6,2.2,34.3
			c0.1,5-0.5,9.8-0.5,14.8c-0.1,22.1-0.3,44.3-0.1,66.5c0.1,18.1,1.1,36.1,1,54.2c-0.1,16.5-1.8,32.8-1.4,49.3
			c0.6,27.3-2.4,333.6-0.6,352.5c0.9,9.3,0.4,20.6,9.5,21.8c6.4,0.9,19.7-2.1,26.2-2.2c15.3-0.1,30.5-1.9,45.8-1.5
			c22.3,0.6,44.6,2.1,66.9,2.8c11.4,0.4,22.9-0.1,34.3-0.1c24.5,0,49.1,0.1,73.6-0.1c20.1-0.2,40.4-1.3,60.5-1
			c20.1,0.3,40.3,2.2,60.4,2.6c27.3,0.5,54.6,0.2,81.7,0.2c25.1,0,50.2,0.3,75.2-0.1c25.1-0.3,199.6-0.3,240.2-1.8
			c17.9,0,37.5-0.1,57.1,0c25.1,0.2,50.2,0.5,75.3,0.8c12.8,0.1,25.7,1.3,38.4,0.3c12.5-1,17.7-4.5,17.3-16.7
			c-0.6-20.8,4.3-41.6,3.7-62.4c-0.6-24.6-2-49.3-2.3-73.9c-0.4-32.8-0.6-65.8,0.1-98.6c1.2-52.1-2.7-104,0.3-156
			c1.2-21.8-1.2-44.7,0-66.6C966.4,91.8,968.9,61,967.4,33.8z M7.8,56.3c7.9,3.5,18.7,9,23.4,16.7c-3.5-0.6-12.6-2.7-15.1-3.4
			c-2.7-0.7-5.4-1.9-8.3-3.1C7.8,63.5,7.8,60.3,7.8,56.3z M7.7,76.6c1.7-1.4,4.7,0,7,0.6c3.3,0.7,6.5,1.8,9.7,2.7
			c3,0.8,6.1,1.6,9,2.4c4.4,1.1,5.3,4.9,4.2,11.4c-3.1,0-6.5,1.4-8.9-0.3c-6.6-4.6-13.5-4.2-20.5-4.1c-0.5,0-1-0.7-1.9-1.3
			C5.6,84.1,4.6,79.2,7.7,76.6z M88.8,357.8c-0.9,0.3-1.8,1.1-2.5,0.9c-7.9-2-15.5-0.2-23.3,1.5c-4.7,1.1-10-0.4-14.8-2.3
			c-6.1-2.5-11.9-3.1-18.2-2.2c-6.1,0.8-12.3,0.5-18.3-0.8c-6.4-1.3-6.6-2.8-4.8-11.6c5-1.2,9.8-2.6,14.8-3.3
			c2.4-0.3,5.1,0.3,7.2,1.4c7.4,3.8,15.1,5.2,23.1,3.9c10.8-1.7,21.2,1.3,31.5,4.6C87,350.8,89.4,352.6,88.8,357.8z M90.2,367.1
			c6.5,0.7,10.3,4.9,12.2,14.4c-10.6,4.4-20.8,5.4-30.9,0.8c-6.6-3-12.6-3.6-19.5,0.1c-7.5,4-15.7,2.3-22.9-2.8
			c-6.7-4.7-13.5-8.9-22.1-7.6c-0.2-3.3-0.3-6-0.5-8.6c1.4-0.5,2.2-1.1,2.9-1c3.4,0.5,6.7,1.9,10,1.6c12.7-1,25.2-1.5,37.5,4.1
			c2.8,1.3,6.4,1.2,9.1-0.2C74.2,363.4,82.1,366.3,90.2,367.1z M75.9,338.9c-11.5-0.4-23-0.3-34.4-1.4c-5.8-0.6-11.3-4.1-17.1-4.7
			c-5.4-0.5-10.9,1.2-16.9,1.9c-0.9-11-0.9-10.9,5.6-12.9c6.6-2,13-2.6,19.6,1c6.1,3.4,13,4.1,19.8,2.1c6.3-1.8,12.3-0.3,18.2,2.3
			c4.2,1.8,6.9,5.2,7.8,10.6C77.3,338.4,76.7,339,75.9,338.9z M48.2,316.2c-5,0.1-10.2-0.1-14.8-1.8c-6.2-2.4-12-3.7-18.6-1.9
			c-2.1,0.6-4.1,0.4-7,0.5c0-2.9,0-5.2,0-8.2c10.9-0.6,20.8-3.8,31.4,0.3c5.1,2,10,2.8,15.6,1.4c4.7-1.2,5.8,0.3,8.3,7.7
			C58.1,314.9,53.1,316.1,48.2,316.2z M40,295.2c-6.7-2.6-13.5-3.3-20.5-1.8c-2.7,0.6-5.7,0.5-8.3,0.1c-1.3-0.2-2.4-1.8-3.5-2.7
			c1.1-1,2.2-2.8,3.4-2.8c5.9-0.4,11.8-0.7,17.6-0.2c6.9,0.6,13.8,2,20.6,3.3c1.3,0.2,2.3,1.8,4,3.1C48,298.1,43.7,296.7,40,295.2z
			 M38.5,282.2c-7.4-0.9-14.9-2.1-22.4-2.6c-5.2-0.4-5.3,0-7.8-5.1c12.3-8.2,32.6-5.2,38.1,8.6C43.6,282.8,41,282.5,38.5,282.2z
			 M41.9,186.1c-0.2,1-1.6,2-2.7,2.6c-0.6,0.4-1.7,0.2-2.5,0.2c-8.9-0.6-17.9-1.3-27.5-1.9c-1.3-7-1.2-6.8,4.9-8.5
			c9.4-2.6,17.7,1.3,26,4.5C41.1,183.3,42,185.1,41.9,186.1z M44.4,266.5c-7.9-1.3-13.9-2.8-19.9-3.2c-4.2-0.3-8.3,1.2-12.5,1.3
			c-1.1,0-2.1-2.5-3.2-3.8c0.7-1.9,1.3-5,2.2-5.5c10.5-5.3,20.9-5.4,30.8,3.9C42.5,259.8,42.8,262.1,44.4,266.5z M39.7,200.7
			c-0.2,2.5-0.5,5.1-0.8,8.5c-5.5-0.7-10.3-1.5-15.2-1.8c-4.7-0.3-9.4-0.1-14.6-0.1c-0.2-2.8-0.3-4.9-0.5-6.3
			C11.8,196.6,29,196.6,39.7,200.7z M37.2,223.7c-7.7,0.4-14.9,0.8-22,1.3c-0.8,0-1.9,0.4-2.5,0c-1.4-0.9-3.1-2-3.8-3.4
			c-0.3-0.6,1.6-3,2.7-3.3c7.4-1.5,14.9-2.4,22.2,0.5C36,219.8,38.2,220.7,37.2,223.7z M29.5,234.1c7.5,0.5,11.7,1.5,9.9,11.4
			c-9.8,0-19.6,0-30.2,0c-0.3-3-0.5-5.8-0.9-9.5C16.2,235.2,23,233.6,29.5,234.1z M38.8,172.2c-1.1-0.1-2.4-0.2-3.3-0.7
			c-7.5-4.1-15.6-4.5-23.8-2.9c-1,0.2-2.2-0.3-3.2-0.4c-1.8-6.7-1.6-7.9,3.9-8.2c6.9-0.4,14,0.2,20.9,0.8c4.2,0.4,8.1,1.7,12.8,2.8
			C45.8,171.5,44.6,172.6,38.8,172.2z M27.4,149.9c-6.3-0.7-12.9-0.2-19-0.2c-3.2-8.1-2.4-9.1,5-10.7c11.6-2.6,22.2,1.1,34.1,4.4
			c-0.2,2.9-0.4,5.4-0.6,7.6C39.8,153.9,33.6,150.6,27.4,149.9z M46.7,133.5c-7.1,3.9-13.2-2.8-19.7-3.3c-6.3-0.4-12.7,0.7-19.7,1.1
			c-0.2-4.4-0.4-7.6-0.5-10.7c1.2-1.1,1.9-2,2.6-2.3c11.8-5.4,23.2-1.9,34.4,3.7C48.3,124.3,47.8,128.5,46.7,133.5z M26.7,108.3
			c-6.2-0.6-12.7,0.6-18.8,1C5.1,99.9,5.9,98.4,14.4,98c3.3-0.2,6.6,0.6,9.9,1.2c4.2,0.7,8.1,2,12.3,2.4c7.8,0.8,8,0.7,9.4,11.8
			C38.9,111.4,32.8,108.9,26.7,108.3z M5.7,391.2c0.2-6.6,1.3-8.1,7.8-7.9c3.5,0.1,6.9,1.7,10.3,2.8c6.3,2,12.6,4.5,19.1,6
			c2.9,0.7,6.5,0.5,9.1-0.7c7.2-3.6,13.9-1.7,21.1,0c6.9,1.7,24.1-0.2,31.2-1.2c12.2-1.8,13,4.7,23.5,9.3c3.3,1.5,8.9,3.8,12,5.8
			c-0.2,0.8,6.3,1.7,6.1,2.5c-5.2-0.2-19.9-0.5-25.1-0.7c-3.4-0.2-6.7-1-10-0.4c-9.9,1.8-19.6,1.2-29.3-1.3
			c-5.4-1.4-10.5-1.5-15.7,0.6c-8.8,3.4-17.9,2.9-26.3-0.8c-6.5-2.8-12.8-3.2-19.6-1.8C6.7,406,5.3,404.6,5.7,391.2z M6.8,415.2
			c7.9-1.1,14.3-2.4,21.2-3c2.7-0.2,5.7,0.6,8.1,1.6c10.5,4.4,21.1,5.3,32.2,1.8c3.8-1.2,8.4-1,12.4-0.3c10.3,2,20.5,3.6,30.9,1.1
			c1.1-0.3,2.4-0.6,3.4-0.3c10.8,3,21.8,0.9,32.7,1.1c7.2,0.2,7.5,0.7,9.8,8.7c-7.6,0.4-15.2,0.9-22.6,1.3
			c-5.9,0.3-11.7,0.5-17.6,0.4c-8.4-0.1-16.9-0.5-25.2-0.7c-5.3-0.1-10.7-0.8-15.9,0c-12.1,2.1-24,2.7-35.9-1.2
			c-7.2-2.4-14.6-1.2-21.9,0c-3.5,0.6-6.8,0.9-11.8,1.4C6.8,422.3,6.8,419,6.8,415.2z M7.6,437.8c11.7-1.9,23.3-5.4,35.5-1.4
			c10.4,3.4,21.1,2.8,31.7,0.7c5.9-1.2,11.6-1.5,17.6,0c4.1,1,8.4,1.2,12.6,1.2c14.6-0.3,29.2-0.9,43.7-1.4c5.4-0.1,10.6,0,17.3,0
			c0.7,3.6,1.4,6.7,2.1,10.4c-12.9,2-25,4.6-37.4,2.2c-0.8-0.2-1.7-0.4-2.5-0.3c-15.8,0.8-31.4,0.5-47-2.4
			c-4.2-0.8-8.8,1.2-13.4,1.6c-10.7,1.2-21.2,2-31.1-4.1c-2.9-1.8-7.6-0.9-11.4-0.6c-3.6,0.3-7.1,1.9-10.7,2.3
			C8.2,446.7,7.2,445.4,7.6,437.8z M7.6,457.2c7.3-1.5,13.9-3,20.5-4c2.4-0.4,5.5-0.4,7.3,0.8c11.2,7.1,23.3,5.7,35.2,3.9
			c6.5-1,12.7-0.9,19.2-0.1c9.1,1.1,18.4,0.9,27.7,1.2c1.7,0.1,3.5-0.5,5.1-0.2c14.3,2.7,28.6,1,42.8,0c8.1-0.6,8.3,0,10.8,9.6
			c-8,2.8-16,4.5-24.6,2.4c-4.3-1-8.9-0.6-13.4-0.8c-9.8-0.4-19.6-0.9-29.5-1.2c-5.9-0.1-12-0.9-17.6,0.4c-13,3.2-25.6,3.3-38.2-1.1
			c-8-2.8-16-2.4-24,0.2c-3.8,1.2-7.6,2.2-11.5,2.9c-7.2,1.3-9.2-0.2-10-7.3C7.5,461.9,7.6,459.9,7.6,457.2z M207.9,459.5
			c8.3-2.8,10.9-0.7,11.9,9.4C211.2,470.8,209.9,469.7,207.9,459.5z M228.6,487.6c-4.2-1.9-7-3.2-9.8-4.5c0.2-0.6,0.4-1.3,0.6-1.9
			C225,480,225,480,228.6,487.6z M199.3,441c9.1-0.9,10.7-0.3,13.1,5C203,449.7,200.9,449,199.3,441z M225.9,516.2
			c8.7,13.5,16.6,27.4,24.8,41.2c0.7,1.2,1.1,2.5,1.7,3.8c-9.1-2.8-14-9.4-17.5-17.2c-4.1-9.1-8.3-17.9-17.2-23.4
			c-3.8-2.4-7.6-4.8-11.7-6.5c-7.3-3.3-10.4-7.1-7.7-14.3c3.5-9.3-1.4-17-2.9-25.3c-0.1-0.5-0.4-1.1-0.8-1.5
			c-12.3-10.6-14.9-25.8-19.3-41.1c2.8-1.1,5.3-2,7.6-2.9C193.3,460.6,208.4,489,225.9,516.2z M228.8,498.1
			c8.1-1.4,10.7,3.8,13.7,8.9C233.9,509.4,232.1,508.2,228.8,498.1z M43.7,501.3c3-0.6,6.1-0.2,9,0.8c15.3,5.1,30.5,3.9,45.9,1.5
			c5.8-0.9,11.7-0.6,17.6-0.3c13.5,0.7,27,2.9,39.9-4.2c1.9-1.1,4.5-1.2,6.5-0.9c7.5,0.9,15,2.2,22.6,3.4c1.3,4.7,2.6,9.2,4.1,14.5
			c-10.5,3.9-21.1,4.3-31.9,2.7c-8.1-1.3-16.2-1.1-24.3,1.2c-9.9,2.8-20,2.9-30.1-0.1c-8.8-2.6-17.8-3.2-26.7-0.4
			c-4.6,1.5-9.4,2.1-14.1,3.2c-7.1,1.7-14.1,1.2-20.5-3c-5.7-3.8-10.8-3.2-16.7-0.7c-4.7,2-9.4,3.3-15.4,5.4c0-6.4,0-10.5,0-15.3
			C20.7,506.2,32.4,503.5,43.7,501.3z M9.8,500.2c0-6.9,0-12.8,0-18.1c8.9-2.4,16.4-5.3,24.7-6.7c5.2-1,10.7-1.3,15.6,0.5
			c13.9,5,27.4,6.7,41.6,1.8c4.7-1.6,9.9-0.6,15-0.4c9.5,0.3,19,0.9,28.6,1.5c5.6,0.3,11.2,1,16.8,1.3c5.1,0.2,10,0.3,15.1,0.1
			c4-0.1,7.8-1.2,11.7-1c6.4,0.3,7,1.2,9.4,11.6c-6.5,3.4-12.7,2-18.7,0.6c-5.2-1.2-10.1-1.2-14.9,1.3c-9.1,4.8-18.6,5.2-28.3,4
			c-12.1-1.6-24.2-1-36.2,0.9c-11,1.8-22,1.6-32.7-2c-7.8-2.6-15.6-2.4-23.4,0c-4.7,1.4-9,2.8-13.8,3.7
			C16.8,499.9,13.8,499.9,9.8,500.2z M16.2,529.4c2.5-0.7,5-1.2,7.2-2.2c6.5-2.9,12.5-2.6,19.4,0.3c5.5,2.3,12,1.9,18.1,2.1
			c3.3,0.1,6.7-0.9,9.9-1.8c10.8-2.9,21.6-3.2,32.5-0.5c9.4,2.3,19.1,2.1,28.5-0.1c9.2-2.2,18.4-2,27.7-1.1c1.1,0.1,2.3,0.3,3.4,0.3
			c14.8,0,29.6-0.1,44.3,0c2.1,0,4.6,0.5,6.1,1.7c4.4,3.4,7.2,7.8,7.6,15c-4.8,0-9.1-0.1-13.5,0c-5.1,0.1-10,0.9-15.1,0.7
			c-8.3-0.5-16.9-0.8-25-2.7c-9-2.1-17.6-2.6-26.7-0.4c-6,1.4-12.5,2.3-18.3,1.2c-21-3.8-42.1-1.2-63.1-0.5
			c-6.6,0.2-13.3-1.4-20-1.8c-5-0.2-10,0.1-15,0.6c-4.9,0.5-9.7,1.6-14.5,2.4C7.6,532.4,7.9,531.8,16.2,529.4z M7.9,556.6
			c0.2-3.9,1.6-6.2,5-6.6c10.4-1.5,20.3-4.9,31.5-1.9c10.6,2.9,22.4,0,33.6-0.2c8.7-0.2,17.5-1,26.1-0.1c14.9,1.5,29.7,3,44.5-1.2
			c3.9-1.1,8.4-0.3,12.4,1c11.8,3.8,23.6,4.6,35.9,3.3c9.7-1,19.6,0.6,29.5,1.5c3.8,0.3,5.8,3.2,11.9,13.7c-1.3,0.4-1.9,0.8-2.4,0.7
			c-12.1-3.9-24.9-0.7-36.9-3.3c-13.8-3-27.2-2.4-41-1.3c-10,0.8-20.2-0.9-30.3-2.2c-7.1-0.9-14-0.2-20.9,1.9
			c-6.2,1.9-12.6,3.8-19,4.6c-6.3,0.8-13,1.1-19.2-0.2c-11.8-2.6-23.5-2.4-35.3-0.4c-6.3,1-12.9,1.2-19.3,0.5
			C8.6,565.4,7.7,562.9,7.9,556.6z M247,580.7c-29.9,0.9-59.7,2.4-89.6,2.7c-27.6,0.2-55.2-1.1-82.8-1.1c-11.8,0-23.6,1.7-35.4,2.6
			c-8.4,0.7-16.9,1.7-25.3,1.9c-5.3,0.1-5.3-0.6-5-10.7c0.5-0.5,1-1.4,1.4-1.3c10.4,3.5,20.7-0.6,31-1.7c7.2-0.8,14.8-1.5,21.8,1
			c14,5,27.5,2.3,40.9-3.7c8.3-3.7,16.4-4.7,25-3.1c15.7,2.9,31.4,5.2,47.1-0.8c2.1-0.8,4.6-0.5,6.6,0.7c9.2,5.3,18.8,4.3,28.5,4.7
			c2.3,0.1,4.6-0.7,6.7-0.2c11.9,2.7,23.8,5.6,35.6,8.4c0,0.2,0,0.5,0,0.7C251.4,580.7,249.2,580.6,247,580.7z M241.6,519.9
			c9.2-3,16.6,0.6,24.3,7.1c-4.6,0.7-8.3,1.3-12.1,1.9C245.6,530,244.3,529,241.6,519.9z M254.2,539.9c2.8-2.5,6-2.4,9.3-1.3
			c8.9,2.8,15.9,7.6,18.5,17.2C264.5,560.6,260,557.8,254.2,539.9z M296,574.1c-3.8,0-7.5,0-11.3,0c-2.5,0-5-0.1-7.4,0.1
			c-3.5,0.2-3.5,0.3-6.3-5.1c9.2-5.1,17,0.3,25.1,2.6C296,572.6,296,573.3,296,574.1z M450.6,581.9c-37.8-0.1-75.5-0.3-113.3-0.4
			c-3.7,0-7.3-0.3-11-0.2c-3.9,0.1-7.1-1.2-9.8-4.1c-8.6-9.6-17.5-19.1-26-28.9c-1.6-1.8-2.6-4.5-3.1-6.8
			c-1.6-8.6-6.1-15.5-13.4-19.6C256,511.6,245.5,495,236.9,477c-5-10.4-8.3-21.4-12.3-32.3c-0.6-1.7-0.3-3.7-0.4-6.5
			c4.9,1.3,9.2,1.6,12.8,3.6c11,6,23.2,6.6,35.1,8.2c3.8,0.5,7.8-0.4,11.7-0.9c2-0.2,4-1.3,5.8-1.1c9.1,1,17.1-1.5,24.7-6.3
			c5.1-3.3,8.5-1.8,12.2,3.5c4.2,6.1,8.5,12,12.1,18.2c3.7,6.4,8,12.1,14,16.7c4.5,3.5,8.3,7.6,13,10.7c3.4,2.3,7.5,4,11.5,4.8
			c7.6,1.4,11.8-1.8,14.5-9.1c1-2.8,2.6-5.4,4-8.1c7.4,2.4,10.4,7.8,13.3,13.3c5.3,9.6,10.2,19.4,15.4,29.2
			c4.5,8.5,10.9,15.1,20.2,18.2c7.5,2.6,11.2,7.4,11.3,15.7c0,8.6,1.2,17.4,1.9,26.6C454.9,581.5,452.7,581.9,450.6,581.9z
			 M460.7,531.3l-1.9,0.3c-2.2,0.4-4.3,0.6-6.1,0.6c-7.4,0-13.3-2.8-17.5-8.2c-4.5-5.9-8.6-12.9-13-21.4c-0.5-1.1-1.1-2.2-1.6-3.3
			c-4.5-9-8.6-17.5-16.3-23.9c-5.5-4.6-9.6-6.6-13.1-6.6c-3.9,0-7.8,2.8-12.8,9c-0.6,0.7-1.1,1.4-1.8,2.4l-3.1,4.1l-2.3-1.7
			c-2.5-1.9-5.3-3.4-8-5c-6.5-3.7-13.2-7.3-17.5-15.5c-5-9.3-11.4-18.1-17.8-26.5c-5-6.6-8.9-9.3-13.7-9.3c-3.7,0-8,1.6-13.5,5
			c-8.6,5.4-17.3,7.9-26.4,7.9c-0.3,0-0.6,0-0.8,0c-12-0.2-23.8-0.8-35.3-6.1c-1.6-0.7-3.6-1.1-5.6-1.4c-2.2-0.4-4.5-0.7-6.6-1.7
			c-6.9-2.9-15.1-6.4-22.5-10.8c-6.3-3.8-11.9-5.6-17.4-5.6c-3.2,0-6.2,0.6-9.4,1.8c-2.3,0.9-4.4,1.3-6.4,1.3c-4.5,0-8.3-2-11.8-6.1
			c-3.1-3.7-7.5-6.5-11.9-9.3c-0.7-0.5-1.5-1-2.2-1.4c-3.8-2.5-7.8-5-11.6-7.2c-6-3.6-12.1-7.3-17.9-11.5
			c-4.4-3.2-8.6-7.9-11.9-13.5C94.6,353,60.4,294,59.5,292.4c-0.3-0.7-0.6-1.3-1-2c-1.9-3.8-3.9-7.6-5-11.8c-4.4-16-8.2-31.7-9-48.2
			c-0.1-2.9,0.4-5.7,1-8.3c0.2-1,0.4-2,0.6-3c0.2-1.2,3-24.5,4.1-34.9c0.9-8.3,1.6-17,2.3-25.2l0.4-4.4c0.1-0.8,0-1.6,0-2.5
			c0-1.5-0.1-3.1,0.3-4.7c1.4-6.4,0.8-12.8,0.2-19.5c-0.1-1-0.2-2-0.3-3.1c-1-11.9-3.5-22.7-7.4-33.1c-1.2-3-2-5.7-0.6-7.8
			c1.5-2.4,4.7-2.6,7.9-2.8c8.3-0.5,13.6-3.3,17.1-9C74.1,65.3,79.5,62,86.5,62c0.8,0,1.5,0,2.3,0.1c5.5,0.6,11.1,0.9,16.5,1.3
			c3,0.2,6,0.4,8.9,0.6c7.6,0.6,15.5,1.4,22.9,2.2c13.9,1.5,28.3,3,42.5,3c2.5,0,4.9,0,7.2-0.1c1.6-0.1,3.3-0.1,4.9-0.1
			c8.3,0,16.7,0.7,24.8,1.5c6,0.5,12.1,1.1,18.1,1.3c14.9,0.6,30.1,1,44.7,1.4c7.7,0.2,15.6,0.4,23.3,0.6c3.5,0.1,7,0.3,10.5,0.5
			c5.3,0.3,10.7,0.5,16.1,0.5c1,0,2,0,3.1,0c15.7-0.3,31.6-1,47.1-1.6c5.3-0.2,10.5-0.4,15.8-0.6c7.6-0.3,15.4-0.6,22.9-1
			c16.2-0.7,32.9-1.5,49.5-1.7c0.9,0,1.7,0,2.6,0c19.4,0,39.2,2.5,60.5,7.5c5.2,1.2,10.5,2.3,15.7,3.3c5.3,1,10.6,2.1,16,3.4
			c0.8,0.2,1.9,0.4,3.3,0.6c9.9,1.9,18.2,3.8,19.2,9.2c0.5,2.5-1,5.9-2.8,10c-2.8,6.4-5,12.4-2.1,13.7c2.1,0.9,6.2,1.8,11.1,1.8
			c5.8,0,10.9-1.3,14.4-3.6c2.3-1.5,5-2,7.3-2.5h0.1c0.7-0.1,1.4-0.2,2.1-0.2c3.4,0,6.1,1.9,7.3,5.3c0.4,1.2,1.1,2.4,1.7,3.5
			c2.5,4.5,5.8,6.5,10.3,6.5c0.5,0,1,0,1.6-0.1c6.3-0.6,12.1-1.1,18-1.5c1.4-0.1,2.9-0.1,4.7-0.1c1.2,0,2.5,0,3.7,0
			c1.3,0,26.6-4.2,27.1,4c0.2,3.5-43.7,7.3-43.7,7.3c-6.7,1.8-12,5.6-15.9,11.5c-0.8,1.2-1.6,2.4-2.4,3.6c-2.1,3.3-4.3,6.6-6.5,9.9
			c-9.2,13.4-6.4,32.7-2.3,42.5l0.1,0.2l0.1,0.2c1,4.3,8.4,7.9,15.8,7.9c2.6,0,8.7-0.5,10.9-5.4c0.3-3.8,0.4-7.7,0.5-12
			c0.1-5,0.3-10.2,0.8-15.2c1.3-12.5,15.9-25.2,28.8-25.2h0.4c4.3,0.1,7.4,1.4,9.2,4c1.8,2.5,2,5.9,0.7,9.8c-0.5,1.6-1.2,3-1.9,4.4
			c-0.5,1-0.9,1.9-1.3,2.9c-1.6,4.2,0,5.2,4.8,7.5c3.1,1.5,6.6,3.3,7.8,6.9c1.4,4.2,0.3,7.4-0.8,10.8c-0.9,2.9-1.9,6.1-1.9,10.9
			c0,5.2,1.4,9.8,3.8,13.1c2.9,3.8,7.1,5.7,12.9,5.7c0.5,0,1,0,1.4,0c8.4-0.5,36.8-3.7,49.4-25.6c4.6-7.9,13.2-13.1,22-13.1
			c2,0,4,0.3,6,0.8c1.6,0.4,3.2,0.8,4.8,1.2h0.1c2.1,0.5,3.9,0.8,5.5,0.8c5.5,0,9.4-3.1,13.7-10.6c9.6-17,22.6-25.1,41-25.6
			c3.2-0.1,6.5-0.4,9.7-0.8c3.8-0.4,7.6-0.8,11.5-0.8c10.4,0,18.3-5.8,26.2-12.1c1.1-0.9,1.9-2.5,2.7-4.1l0.3-0.6
			c1.5-2.9,3-5.8,4.4-8.5c1.7-3.4,3.5-6.9,5.4-10.3c3.2-5.9,8.3-14.4,16.6-11.2c8.3,3.3,8.9,38.2,10.7,49.7
			c1.9,11.7-2.7,16.2-11.6,20.1c-6.5,3-13,6.4-19.1,10.2c-5.2,3.3-7.4,8.5-9.4,16.1c-1.4,5.3-3.3,10.9-5.8,17.2
			c-4.1,10.2-12.2,16.4-24.9,18.8c-20.6,4.1-34.9,15.9-43.6,36.2l-0.8,1.9c-2.9,6.6-5.8,13.5-10.2,20.3l-3.5,5.4l-1.7-6.2
			c-0.2-0.6-0.3-1.1-0.5-1.7c-0.4-1.3-0.8-2.7-1.1-4.1c-0.3-1.2-0.5-2.5-0.6-3.7c-0.3-2.1-0.6-4.1-1.3-5.9c-0.5-1.5-1.9-4.1-4.9-4.1
			c-3.2,0-3.8,2.3-4.3,4.4c-1.2,5.3-2.3,10.8-1.6,15.8c0.9,7.2,1.5,14.6,3,21.6c0.7,3.3,1.4,6.6,2.1,9.9l0.4,2.1
			c0.9,4.3,1.7,8.7,2.4,13.2c0.9,6.7-1.2,12.3-6.6,17.6c-10.5,10.1-20.3,20.3-29.3,30.5c-7.9,9-16.9,16.2-27.1,21.8
			c-6.5,3.6-11.9,8.8-16.5,16.1c-9.4,15.1-6.8,31-3.1,44.6c1.5,5.5,5,10.8,8.2,16l0.8,1.2c5.3,8.3,10.7,19.5,5.8,33.1
			c-1.1,3-2.5,5.5-4.2,7.4c-2.4,3-5,4.4-7.6,4.4c-2,0-4.9-0.8-7.3-4.9c-3.6-5.8-6.1-11.4-7.5-17c-3.4-13.1-7-25.9-13.4-37.8
			c-4.1-7.5-9.9-12.5-18-15.4c-0.5-0.2-1.2-0.3-2-0.3c-1.6,0-3.3,0.4-4.6,1.1c-3.4,1.8-6.8,2.7-10.2,2.7c-5.1,0-10-1.9-15.8-6
			c-1.3-0.9-2.4-1.9-3.5-2.9c-1.1-0.9-2.1-1.8-3.1-2.6c-3.9-2.8-7.5-4.1-11.3-4.1c-0.4,0-0.8,0-1.2,0c-3.2,0.2-6.4,0.5-9.6,0.7
			c-7.6,0.6-8.6,3.1-16.4,3.8c-0.7,0.1-1.4,0.1-2.1,0.1c-4.1,0.2-6,0.5-6.6,2.5c-1.1,2.9,7.2,16.9,7.2,16.9l-5.3,0.8
			c-4.8,0.7-8.7,1.2-12.6,1.2c-3.7,0-6.9-0.4-10.1-1.3c-8.6-2.4-16.9-6.2-26.1-12.1c-2.9-1.9-5.8-2.7-9.1-2.7c-1.6,0-3.2,0.2-5,0.6
			c-12.1,2.7-26.6,16.1-37.8,26.3L460.7,531.3z M768.2,496.8c14.5,3.9,29.1,3.3,43.6,1.4c17-2.2,33.5-2.6,50.1,2.7
			c10,3.3,20.6,1.6,31,1.1c11.8-0.6,23.6-0.6,35.4-0.5c6.4,0.1,12.9,0.9,19.3,1.4c2,0.2,4.1,0.1,5.9,0.9c1.3,0.5,3.2,2.5,2.9,3.2
			c-0.5,1.5-2.1,7.5-3.4,7.7c-3,0.5-6.2,0.5-9.2-0.2c-14.3-3.2-28.5-2.5-42.8-0.6c-13.5,1.8-27.1,1.6-40.2-2.7
			c-11.8-3.9-23.8-4.4-35.9-3.1c-15,1.7-29.8,2-44.3-2.3c-8.1-2.4-16.2-0.3-24.2,1c-3.6,0.6-7.2,1.3-10.8,1.5
			c-2.8,0.2-5.9-4-6.6-9.2C748.8,497.1,758.4,494.1,768.2,496.8z M734.6,492.6c-1.9-0.2-3.7-5.5-5.5-6.2c0.1-1,0.3-2,0.4-3
			c10.6-2.2,20.8-6.2,31.9-5c19.1,2.3,38.3,1.1,57.2-1.4c10.5-1.4,20.8-0.6,31,1.7c14.8,3.3,29.6,4.4,44.4,1.5
			c10.7-2,21.3-0.9,31.9,0.8c8,1.3,16.2,2.4,24.2,3.4c6.2,0.8,6.5,5,5.4,12.7c-3.5,0-7,0.4-10.5-0.1c-17.1-2.3-34.1-3.5-51.4-1.3
			c-12.7,1.6-25.3,1.1-37.7-2.5c-12.2-3.6-24.5-3.3-36.9-1.9c-8.1,0.9-16.3,1.8-24.4,2c-6.1,0.2-12.6,0.3-18.4-1.2
			c-11.5-2.8-22.8-2.5-34.3-0.3C739.7,492.4,737.1,492.8,734.6,492.6z M937.1,475.8c-17.1-3.6-33.7-4-51-1.6
			c-10.3,1.4-20.6,0.8-30.9-1.7c-13.5-3.4-27-3.6-41-1.9c-16.7,2-33.5,3-50.5,1c-7.9-0.9-16.2,0.7-24.2,1.5
			c-4.1,0.4-8.1,1.5-12.9,2.4c-0.1-10.6,1.2-18.2,9.6-18.4c4.2-0.1,8.8-0.5,12.5,1c10,4.2,20,3.2,29.9,0.4c13-3.7,26-4.4,39.3-3.1
			c11.2,1.1,22.3,0.1,33.6-1.6c9.3-1.4,19.1-1.1,28.6,0.1c11.9,1.5,23.2,1.5,34.9-0.2c14-2.1,27.4,1,41.3,2.3c0,5,0,15.5,0,20.3
			C949.1,478.2,943.2,477.1,937.1,475.8z M944.1,447.4c-10.4,0-20.8,0-31.1-0.1c-10.1-0.1-20.2-0.2-30.3-0.7
			c-11.8-0.5-23.5-1.5-35.4,0.5c-9,1.5-18.5,1.6-27.7,1c-13.6-0.9-27-0.8-40.3,3c-10.2,2.9-20.3,3.6-30.7-0.1
			c-5.2-1.8-11-1.4-17.2-2c0.4-5.3,2.4-9.2,7-9.4c9-0.4,18-1.7,27-2c7.8-0.2,15.8-0.2,23.5,1.1c11.8,2,23.4,1.9,35.2,0
			c24-3.9,48.3-3.8,72.5-1.5c12.1,1.1,24,2.1,36.1-1c7.6-2,15.6-2.4,24.3,0.5c0.1,2.6,0.3,7.4,0.5,10.7
			C952.4,447.4,948.3,447.4,944.1,447.4z M828.4,373.1c6.6-0.4,13.6,0,20.1,1.3c11,2.1,21.7,1.8,32.7,0c13-2.1,26.2-3.3,39.4-4.2
			c8.9-0.6,18,0,27,0.2c1.7,0,3.4,0.3,5.1,0.6c2.6,0.4,4.5,5.9,3.9,8.4c-0.4,1.9-1.6,4.4-3.2,5.2c-7.3,3.5-15.4,3.9-23.2,2.8
			c-12.4-1.8-24.7-1.2-37.1-0.4c-4.5,0.3-9.1,0.5-13.4,1.7c-10.3,2.9-20.7,2.8-31,1.2c-16.3-2.5-32.4-3.9-48.8-1.3
			c-2.2,0.3-4.4,0-7.2,0c1.3-5.6,4.2-11.4,8-12C809.9,375.4,819.1,373.7,828.4,373.1z M810.7,368.6c1.4-4.1,2.3-9.8,3.5-13.3
			c10.3-0.6,20.3-1.3,30.4-1.6c2.7-0.1,5.7,0.7,8.1,1.8c13.3,5.9,27,5.6,40.6,2.5c11.9-2.7,23.8-4.1,36-3.3
			c5.9,0.4,11.8-0.2,17.7-0.3c1.7,0,3.5-0.3,5.1,0.3c1.6,0.6,2.8,5,4.2,6.1c-1.3,1.2-2.5,3.3-3.9,3.4c-6.7,0.6-13.6,1.6-20.2,0.8
			c-17.7-2.3-34.8,0.6-52,3.5c-10.4,1.7-20.6,2.3-30.9,0c-9.7-2.1-19.5-2.2-29.4-0.3C817.2,368.4,814.6,368.3,810.7,368.6z
			 M810.1,394.5c11.2,0.1,22.5,1.1,33.6,2.3c13.2,1.5,26.1,1.8,39.4-1.3c10.5-2.5,21.9-2.5,32.7-1.8c13.2,0.8,26.3,2.3,39.4-0.4
			c1.6,6.5,1.2,10.6-3.9,9.6c-12.3-2.2-23.9,0.5-35.8,3.5c-8,2-16.8,1.7-25.1,1c-12.1-1-24.2-1.1-36.2,0.6
			c-13.8,1.9-27.6,1-41.3-0.8c-8.9-1.2-17.4-0.4-25.9,2.2c-5.1,1.5-10.2,2.4-17.1,3.9c4.9-9.5,10.2-16.6,19.1-16.4
			C796.1,396.8,803.2,394.4,810.1,394.5z M791.7,415.8c6.1-0.9,12.4-1.6,18.3-0.9c18.2,2.2,36.4,2.5,54.6,0.3
			c6.1-0.8,12.4-0.6,18.4,0c14.7,1.3,29,1.8,43.1-3.1c9.7-3.4,19.7-1.4,29.7,1.3c0,3.7,0,9.3,0,14c-4,0-6.8-0.1-10.1,0
			c-4.2,0.2-8.4-0.1-12.5,0.9c-11.4,3-22.8,2.3-34.3,1.1c-26.7-2.7-53.4-2.7-79.8,1.8c-9.5,1.6-19,1.7-28.5-0.4
			c-10-2.3-20-2-30.2-0.7c-3.8,0.5-7.5,0.4-12.4,0.6c2.1-5.6,5.5-8.6,9.5-9.2C768.9,419.6,780.2,417.4,791.7,415.8z M952.6,346.8
			c-8.7,0.4-17.5,0.3-26.2,0.8c-10.4,0.6-20.8,0.9-31,2.7c-14.4,2.5-28.3,3.5-42.4-2.1c-5.5-2.2-12.2-1.3-18.3-1.3
			c-5.4-0.1-10.7,0.7-16.1,0.7c-2,0-4-0.8-6.1-1.3c0.1-0.9,0.2-4.8,0.2-5.6c2.1-0.4,4.1-1,6.1-1.1c9.8-0.7,19.6-1.7,29.6-1.9
			c5.6-0.1,11.3,0.8,16.7,2.3c11.8,3.3,23.4,3.4,35,0.1c14.3-4.1,28.6-6,43.3-2.2c3,0.8,6.1,0.4,9.2,1c1.4,0.2,2.7,4.3,5.3,5.7
			C955.4,345.7,954,346.7,952.6,346.8z M952.2,331.5c-3.7-0.1-7.3-0.2-10.9-1.1c-10.9-2.9-21.7-2-32.5,0.5
			c-7.6,1.7-15.4,3.7-23.2,4.1c-6.3,0.4-12.7-1.4-19.1-2.2c-6.3-0.7-12.8-1.9-19.1-1.9c-9.2,0-18.5,1-27.8,1.4
			c-3.1,0.1-6.2-0.6-9.3-0.9c0-0.7,1-5.3,1-6c2-0.6,3.1-1.4,5.1-1.6c18-1.6,35.8-3.6,53.7,1.3c8.8,2.4,18,1.9,26.8-0.3
			c14-3.6,28.1-5.8,42.5-4.1c5.5,0.6,11.1,0.1,16.4,0.1C957.6,325.4,956.6,331.6,952.2,331.5z M951.8,314.1
			c-3.4,0.4-6.7,0.7-10.1,0.3c-14.8-1.6-29.3,0.2-43.5,3.8c-10.6,2.7-21.1,3-31.7-0.1c-10.8-3.2-21.8-1.8-32.8-1.8
			c-4.5,0-8.8,0-15.6,0c2.7-2.6,3.8-8.5,5.2-8.7c9.7-1.4,19.5-2.9,29.4-3.4c4.7-0.3,9.5,1,14.1,2.3c12.7,3.7,25.3,4.8,38.4,1.4
			c9.6-2.4,19.3-2.9,29.4-1.2c4.6,0.8,9.4-0.1,14.2-0.5c2.4-0.2,4.9,2.4,7.3,5.6C954.4,312.7,953.2,314,951.8,314.1z M917.8,230.7
			c3.6-0.4,7.3-0.7,10.8,0c7.9,1.5,15.7,3.6,24.3,5.6c1.3,7.8,0.6,11.3-6.5,11.7c-5.3,0.3-10.9,0.3-15.7-1.5
			c-10.4-3.9-20.6-4.9-31.3-2.3c-0.8,0.2-1.7,0.1-2.5,0c-0.2,0-0.5-0.3-1.1-0.8c2.2-4.6,4.3-10.6,10.5-10.9
			C910.1,232.5,913.8,231.1,917.8,230.7z M907.2,223.9c0.2-3.7,0.9-8.2,6.5-9.1c9.5-1.4,18.4-3,27.8,1.5c2.7,1.3,5.6,1.2,9.5,2
			c0,2.6,1.3,8.6,1.3,10.8c-4,2.2-8.9,1.1-12.6-0.4c-10.1-4-19.9-4.7-30.3-1.6C908.7,227.3,907.1,227.6,907.2,223.9z M906.4,250.4
			c4.5-0.3,9.2-0.8,13.3,0.5c10.8,3.4,21.4,6.8,32.6,2.8c2.3,7.9,1.4,12.4-5,12.3c-2.3,0-4.6-0.3-6.7-0.8
			c-7.1-1.6-14.1-0.8-20.8,1.6c-14,4.8-27.8,6.1-42.2,1.2c-5.7-2-12.2-1.3-18.3-1.8c-1.9-0.1-3.7-0.2-5.6-0.3
			c8.7-6.4,17.5-13.8,28.3-13.2C890.1,253.1,898.3,251,906.4,250.4z M907.4,287.5c8.1,2.7,16.1,1.5,24.1,0c6.7-1.3,13.4-2,19.8,1.1
			c1.5,0.7,2.4,6.4,3.6,7.8c-1.3,0.9-2.5,2.4-3.9,2.6c-5,0.8-10.1,2.4-14.9,1.6c-11.4-2-22.4-0.5-33.4,1.8
			c-10.9,2.3-21.6,2.3-32-1.8c0-0.7,0-1.3,0-2c9.5-7.7,19.9-9.2,30-11.5C902.8,286.5,905.3,286.8,907.4,287.5z M899.2,282.3
			c-3.3,1.2-13.9,2.3-16.6,3.2c-12.3,4.3-24.5,0.6-36.7-0.6c-3.6-0.4-7-1.1-10.6-1.7c-0.3-4.6,6.2-11.6,9.7-11.9
			C861.6,270,881.6,274.7,899.2,282.3z M854.1,296.8c-9.1,1.7-17.5,3.2-27.1,3.5C831.7,291.4,833,286,854.1,296.8z M933.7,280.7
			c-6.8,0.5-17.6,4.7-26.5,1.7c4.7-6.9,19-10.4,26.3-10.5c6.1,0,12.2-0.2,18.2,0.6c1.1,0.1,1.9,5.9,4,8
			C947.3,280.6,940.4,280.3,933.7,280.7z M952.3,176.5c-0.2,0.1-1.3-1.1-1.2-1.6c0.1-0.6,0.9-1.4,1.5-1.6c0.4-0.1,1.1,0.6,2.3,1.3
			C953.8,175.5,953.1,176.2,952.3,176.5z M952.2,202c-0.6,3.7-5.3,10.9-10.3,8.6c-8.2-3.7-16.8-3.1-25.4-2c-0.2-0.7-0.7-3.7-0.7-6.9
			c0-3.3,2.6-3.1,4.1-3.3c8-1.1,16.1-2.3,24.1-2.4C950.2,196,952.8,198.5,952.2,202z M958.1,186.4c-0.4,3-3.9,8.7-7.6,6.9
			c-6.1-3-12.3-2.4-18.7-1.6c-0.2-0.5-0.6-2.9-0.6-5.6s1.9-2.5,3-2.7c5.9-0.9,11.8-1.8,17.8-1.9
			C956.5,181.6,958.5,183.8,958.1,186.4z M556.8,498.2c1.5,0.7,3.3,0.8,5,1.2c1.3,0.3,2.5,0.5,3.8,0.8c-14.6,3.8-28.9,7.4-43.5,0.5
			c-5.5-2.6-11.9-3-18.2-4.5c0.9-3.6,3.4-4.3,6.7-4.5C526.2,491.1,541.9,491.3,556.8,498.2z M533.1,481c11.4-4.5,21.7-1.9,29.7,8.3
			C552,486.3,542.8,483.7,533.1,481z M525.3,509.2c3.6,1.9,8.1,2.3,12.3,2.3c7.3-0.1,14.8-0.2,21.8-1.7c13.1-2.9,25.8-1.8,38.4,1.9
			c11.4,3.4,22.7,2.7,34.3,1.1c8-1.1,16.3-0.9,24.3-1c7.5-0.1,15.2,0.2,22.7,0.2c3.7,0,7.3-0.4,11-0.4c2.6,0,5.2,7.3,5.8,11.9
			c-2.3,0.5-4.1,1.2-6,1.2c-16.4-0.1-32.6-0.5-49-0.5c-9.2,0-18.5,0-27.8,1c-7.9,0.9-15.7,1-23.5-0.7c-12-2.7-24.1-2.6-36,0.3
			c-15.4,3.8-30.5,4.2-45.7-1.2c-4.1-1.4-8.8-1-13.3-1c-4.2,0.1-8.3,0.8-12.6,1.3c1.2-7.7,3.2-17.2,9.3-18
			C502.9,504.2,514.2,503.4,525.3,509.2z M617.9,481.6c12.3,1.3,24.6,2.7,36.9,3.7c5.1,0.4,10.1,0,15.2,0c4.8,0,9.5,0,15.2,0
			c1.1,2.2,2.4,7.8,4,11.2c-3.1,0.4-4.9,0.9-6.7,0.9c-14.7-0.2-29.2-0.6-43.5-4.4c-5.1-1.3-10.6-0.7-16-0.8
			c-9.2-0.1-18.3-0.1-27.6-0.2C602.3,485.6,609.8,480.7,617.9,481.6z M605.1,467.8c8.6-1.7,15.7-3.5,22.8-4.3
			c5.8-0.7,11.5,8,16.1,13c-12-0.6-22.2-1.1-32.3-1.7C610.8,474.8,607.1,469.6,605.1,467.8z M668.8,505.4c-1.9,0-3.5,0-5.4,0l0,0
			C665.3,505.4,666.9,505.4,668.8,505.4L668.8,505.4z M622.6,498.9c8.5-0.3,16.8,0.6,25.2,4.6c-9.5,1.2-18.3,2.7-27.2,3.2
			c-5.9,0.4-11.8-0.2-17.6-1.2c-9.4-1.6-18.6-4-27.5-6c5.2-2.2,10.7-1.9,16.8-1.3C602.4,499.4,612.6,499.2,622.6,498.9z
			 M513.4,530.8c13.4,4.8,27.3,2.6,40.9-0.2c11.2-2.3,22.3-2.5,33.5-0.1c9.7,2,19.5,1.3,29.5,0.6c9.7-0.6,19.6-0.3,29.4-0.2
			c11.8,0,23.6,0.2,35.4,0.3c2.3,0,4.5-0.1,6.7-0.1c9.9,0.1,9.9,3.1,13.6,13.4c-10.1-0.4-19.6-1.2-29.1-0.9
			c-22.8,0.6-45.5,1.8-68.2,2.5c-6.1,0.2-12.4-0.3-18.4-1.3c-9-1.5-18-1.5-26.8,1c-17.6,4.9-35.2,3.4-52.7-0.2
			c-7.2-1.5-14.3-2.7-21.7-2.1c-3.8,0.3-7.6-0.2-11.6-0.3c-0.8-5.5,0.4-11.4,5.5-12.3C490.8,528.8,501.8,526.6,513.4,530.8z
			 M469.5,583.8c-0.5-3-0.9-4.2-1-5.6c-0.3-5.6,1.5-7.6,6.6-7.2c6.7,0.6,13.4,1.6,20.1,1.9c6.7,0.3,13.4-0.2,20.1-0.5
			s13.5-1.4,20.2-1.1c16.4,0.7,32.6,2.2,49,2.8c7.8,0.3,15.8-0.3,23.6-0.7c6.4-0.3,12.9-1.1,19.3-1.3c10.4-0.4,20.6,0.2,31,2.5
			c13.2,3,26.7,3,40.3,1.1c9.9-1.4,20.2-0.7,30.3,0.2c10.2,0.9,20.2,0.3,30.3-0.9c6.9-0.9,14.1-1.3,20.9-0.7
			c13.8,1.3,27.4,2.9,41.3,1.3c5.6-0.6,11.3-0.3,16.9,0.6c19.3,3.3,38.7,4.3,58.1,2.2c8.6-0.9,16.7,1.5,24.6,5.5
			C771,583.8,620.6,583.8,469.5,583.8z M952.5,570.6c-0.2,1.1-0.7,5.1-1.6,7.7c-7.9-1.2-15.5-1.6-22.8-3.5
			c-15.8-4-31.6-4.2-47.8-3.1c-10.8,0.8-21.9-0.6-32.8-1.8c-10.4-1.2-20.6-1.9-31.1-1.1c-8.3,0.6-16.9,0.1-25.3-0.8
			c-12.1-1.2-24-1.9-36.1,0.5c-7.5,1.5-15.8,0.8-23.5,0c-13.3-1.4-26.3-0.6-39.6,0.8c-10.7,1.1-22.1,0.5-32.6-1.8
			c-16.1-3.6-31.9-2.3-47.9-1.5c-9.8,0.5-19.6,1.1-29.5,0.8c-12.1-0.3-24.2-1.9-36.3-2.2c-9.8-0.2-19.7-0.2-29.5,1.2
			c-12.3,1.8-31.9,0-48.4-3.3c-0.3-2.4-0.7-8-1-10.1c1-1,1.4-1.8,1.7-1.8c12.5,0.9,24.9-2.2,37.7,1.2c17.3,4.6,35.2,4.7,52.8,0.8
			c9.8-2.2,19.4-1.3,29.4-0.7c13.4,0.8,27-0.3,40.4-0.8c5.9-0.2,11.8-1,17.7-1.1c10.1-0.3,20.2-0.3,30.3-0.2
			c5.1,0.1,10.2,0.3,15.2,1.3c5.8,1.1,11.4,3.1,17.3,0.5c0.2-0.1,0.6-0.1,0.8-0.1c10.4,3,20.6-1.7,30.8-0.9
			c6.6,0.5,13.6,0.9,19.9,2.8c10.3,3.2,20.4,4.2,30.7,1.6c14.9-3.8,29.5-3.5,43.9,2.1c9.2,3.5,18.9,3.3,28.4,1.6
			c11.3-2,22.4-1.7,33.5,0.6c12,2.6,24,2.9,36.2,2.1c4.2-0.3,8.4-0.1,12.6,0.3C953.2,562.5,953.8,563.6,952.5,570.6z M955,555.2
			c-17.3-0.7-34.1-0.5-50.8-2.2c-13.8-1.5-27.2-3.4-41.1-0.8c-10,1.9-20.1,1-29.9-3c-11-4.5-22.4-4.9-34-2.5
			c-3.9,0.8-7.7,1.8-11.6,2.2c-5.1,0.4-10.2,0.9-15.2,0.2c-5-0.6-9.7-2.7-14.7-3.9c-4.9-1.1-9.8-1.9-14.7-2.7
			c1.1-7.3,1.3-10.4,7.1-11.3c12.6-1.8,25.1-1.7,37.8,0.9c15.6,3.2,31.4,2.8,47,0.3c12-1.9,23.6-1,35,2.8c10.4,3.5,21,3.6,31.7,1.8
			c9.8-1.7,19.4-2,29.4,0c8.2,1.7,16.7,2,26.3,3.1C956.5,544.5,955.8,550.9,955,555.2z M954.7,532.7c-4.5,0.1-9.1,0.2-13.5-0.6
			c-14-2.6-27.8-3.2-42-1c-8.4,1.3-17.7,0.7-25.8-1.7c-14.5-4.3-28.8-4.8-43.4-2.6c-13.5,2-27,2-40.4-0.6
			c-11.7-2.3-23.4-3.3-35.3-1.8c-2.8,0.3-7.2-2.4-7.8-6.5c-0.6-4.6,4.2-3.3,6.8-4.1c11.6-3.2,23.2-3.4,35-0.1
			c8.2,2.3,16.7,2.3,25.2,1.2c5.9-0.7,11.8-0.9,17.7-1.3c8.8-0.6,17.5,0.3,25.9,3c14.2,4.6,28.7,5.6,43.4,3.2
			c13.5-2.2,26.8-2.6,40.3,0.5c5.9,1.4,12.1,1.2,18.2,1.7C960.3,526.5,958.6,532.6,954.7,532.7z M961.6,32
			c-1.9,26.7-3.6,53.4-3.3,80.2c0.1,12.4-1.5,24.7-2.5,37.1c-0.5,5.8-1.2,6.3-9.5,10.3c-0.3-2.6-0.6-5-0.7-7.2
			c-0.8-11.2-1-22.5-2.6-33.5c-1.9-12.9-16.4-19.6-27.5-12.9c-4.7,2.8-8.9,6.8-12.3,11.2c-3.8,4.9-6.8,10.4-9.1,16.2
			c-4.6,11.6-14.1,15.5-25.1,17.1c-8,1.1-16.3,1.4-24.4,1.9c-14.2,0.9-25,7.7-33.7,18.5c-1.4,1.8-3,3.4-4.4,5.2
			c-3.6,5-8.1,6.8-14.4,6.7c-12.3-0.2-23.9,3.5-34.4,9.9c-3,1.8-6.1,4.6-7.4,7.7c-3.8,8.2-10.2,13.1-17.9,17.2
			c-8.9,4.7-18.2,6.8-27.8,7.5c-4.9-5.8-5.3-11.2-2.7-17.2c1-2.3,1.8-4.8,2.5-7.2c2.7-9.7,0.6-14.1-8.5-18.1
			c-1.3-0.5-2.5-1.1-3.6-1.5c0.6-6.1,1.2-12,1.8-17.8c0.5-5.2-2.2-8.6-6.4-10.9c-9.3-5.1-19-7.4-28.7-0.9
			c-5.1,3.5-9.9,7.3-14.7,11.2c-5.3,4.3-6.9,10.1-7,16.6c-0.1,8.6,0,17.4-0.7,26c-8.9-13-9.7-26.7-3.4-40.7
			c2.2-4.8,4.8-10.5,8.8-12.9c6.1-3.6,13.5-5.2,20.6-6.5c6.2-1.2,12.9-0.7,19.2-1.1c6.4-0.4,10.9-4.5,14.9-8.8
			c3.3-3.7,0.8-11.6-4.9-14.3c-3.7-1.8-8-2.9-12.1-2.9c-10.7,0-21.3,0.5-32,1.3c-4.4,0.3-7.3-0.9-8.7-4.8c-2.7-7.4-8.6-8.9-15.5-9.4
			c-9.7-0.8-19.1-0.2-27.6,5.7c-1.6,1.1-4,1.3-7,0.5c2.6-4.2,5.1-8.4,7.6-12.6c4.6-7.3,2.2-14.2-6.2-14.9
			c-14.9-1.1-28.3-7.4-42.5-10.4c-33.4-6.9-66.9-12.8-101.4-11.1c-33.2,1.6-66.5,3.5-99.7,4.7c-12.4,0.5-24.8-0.8-37.2-1
			c-23.1-0.5-46.2-0.6-69.3-1.2c-9.3-0.2-18.5-1.7-27.8-2c-13.8-0.5-27.6-0.4-41.4-0.7c-6.7-0.2-13.5-0.7-20.2-1.2
			c-23.9-1.7-47.7-3.7-71.6-5.1c-9.1-0.5-9.1,0.1-12.2,8.9c-4.2,11.9-17.6,13.3-24.7,6.4c-7.6-7.2-15.9-13.4-24-19.9
			C7.9,43,7.9,43,9,29.5c1.3-15.1,1.9-15.9,17-17.4c43.8-4.4,87.6-5.4,131.6-1c60,6,120.1,8.2,180.4,9.2
			c51.3,0.8,102.6-0.2,153.8-0.8c28.8-0.3,57.5,2,86.2,0.8c38.9-1.7,77.7-4.3,116.5-6c31.5-1.4,63.1-2.4,94.6-2.9
			c19.1-0.3,38.3,0.9,57.4,1.3c5.7,0.1,11.3,0.2,16.9-0.1c24.3-1.4,48.4,0.3,72.5,3.3c8,1,16.1,1.8,24.9,2.7
			C961.3,23.7,961.9,27.8,961.6,32z"/>
		<path class="st4" d="M961.1,18.6c-8.8-0.9-16.9-1.7-24.9-2.7c-24.1-2.9-48.2-4.7-72.5-3.3c-5.7,0.3-11.3,0.2-16.9,0.1
			c-19.1-0.4-38.3-1.6-57.4-1.3c-31.5,0.5-63.1,1.5-94.6,2.9c-38.9,1.7-77.7,4.3-116.5,6c-28.8,1.2-57.4-1.1-86.2-0.8
			c-51.3,0.6-102.6,0.7-153.8-0.2c-60.3-1-120.4-2.3-180.4-8.2c-43.9-4.4-87.8-3.4-131.6,1c-15,1.5-15.7,2.3-17,17.4
			C8,42.9,8.1,42.8,18.7,51.3c8.1,6.4,16.4,12.7,24,19.9c7.2,6.8,20.6,5.4,24.7-6.4c3.1-8.8,3.1-9.5,12.2-8.9
			c23.9,1.4,47.7,3.4,71.6,5.1c6.7,0.5,13.5,1,20.2,1.2c13.8,0.3,27.6,0.2,41.4,0.7c9.3,0.3,18.5,1.8,27.8,2
			c23.1,0.6,46.2,0.8,69.3,1.2c12.4,0.3,24.8,1.5,37.2,1c33.2-1.2,66.5-3.1,99.7-4.7c34.3-1.7,67.9,4.2,101.4,11.1
			c14.3,3,27.7,9.3,42.5,10.4c8.4,0.6,10.7,7.5,6.2,14.9c-2.6,4.2-5.1,8.4-7.6,12.6c3.2,0.8,5.5,0.6,7-0.5
			c8.4-5.9,17.9-6.3,27.6-5.7c6.8,0.5,12.8,2.1,15.5,9.4c1.4,3.9,4.4,5.2,8.7,4.8c10.6-0.8,21.3-1.3,32-1.3c4.1,0,8.4,1.1,12.1,2.9
			c5.6,2.7,8.1,10.6,4.8,14.3c-4,4.4-8.4,8.4-14.9,8.8c-6.4,0.4-13-0.1-19.2,1.1c-7,1.3-14.5,3-20.6,6.5c-4.1,2.4-12.4,11-14.6,15.8
			c-6.4,14-9.9,39.2,9.1,37.9c2-5.2,0.6-17.4,0.7-26c0.1-6.4,1.8-12.3,7-16.6c4.8-3.9,9.6-7.7,14.7-11.2c9.6-6.5,19.2-4.2,28.7,0.9
			c4.3,2.3,6.9,5.8,6.4,10.9c-0.5,5.8-1.1,11.6-1.8,17.8c1,0.4,2.3,1,3.6,1.5c9.1,4,11.2,8.3,8.5,18.1c-0.7,2.5-1.4,4.9-2.5,7.2
			c-2.7,6-2.2,11.4,2.7,17.2c9.5-0.7,18.8-2.9,27.8-7.5c7.6-4.1,14.1-8.9,17.9-17.2c1.4-3.1,4.5-5.9,7.4-7.7
			c10.5-6.4,22.1-10.1,34.4-9.9c6.3,0.1,10.8-1.8,14.4-6.7c1.3-1.8,2.9-3.4,4.4-5.2c8.6-10.8,19.5-17.7,33.7-18.5
			c8.1-0.5,16.4-0.7,24.4-1.9c11-1.6,20.4-5.6,25.1-17.1c2.3-5.7,5.4-11.3,9.1-16.2c3.4-4.4,7.6-8.4,12.3-11.2
			c11.1-6.6,25.6,0,27.5,12.9c1.6,11.1,1.8,22.3,2.6,33.5c0.2,2.3,0.5,4.7,0.7,7.2c8.4-4,9.1-4.6,9.5-10.3c1-12.4,2.6-24.7,2.5-37.1
			c-0.3-26.8,1.4-53.5,3.3-80.2C961.9,27.8,961.3,23.7,961.1,18.6z"/>
		<path class="st4" d="M224.2,438.2c0.2,2.9-0.2,4.9,0.4,6.5c4,10.8,7.3,21.9,12.3,32.3c8.5,18,19,34.5,37.1,44.8
			c7.3,4.2,11.9,11,13.4,19.6c0.4,2.4,1.5,5.1,3.1,6.8c8.5,9.7,17.3,19.2,26,28.9c2.6,2.9,5.9,4.2,9.8,4.1c3.7-0.1,7.3,0.2,11,0.2
			c37.8,0.2,75.5,0.3,113.3,0.4c2.2,0,4.4-0.4,6.9-0.7c-0.7-9.2-1.8-17.9-1.9-26.6c0-8.3-3.8-13.1-11.3-15.7
			c-9.3-3.2-15.7-9.7-20.2-18.2c-5.2-9.7-10.1-19.4-15.4-29.2c-2.9-5.5-5.9-10.9-13.3-13.3c-1.4,2.8-3,5.4-4,8.1
			c-2.6,7.3-6.8,10.5-14.5,9.1c-4-0.7-8.1-2.5-11.5-4.8c-4.7-3.1-8.6-7.2-13-10.7c-6-4.6-10.2-10.2-14-16.7
			c-3.7-6.3-7.9-12.3-12.1-18.2c-3.7-5.3-7-6.6-12.2-3.5c-7.7,4.9-15.6,7.3-24.7,6.3c-1.9-0.2-3.9,0.9-5.8,1.1
			c-3.9,0.4-7.9,1.4-11.7,0.9c-11.9-1.6-24.1-2.3-35.1-8.2C233.5,439.7,229.1,439.4,224.2,438.2z"/>
		<path class="st4" d="M252.5,561c-0.6-1.3-1-2.6-1.7-3.8c-8.2-13.7-16.2-27.7-24.8-41.2c-17.6-27.2-32.6-55.5-42.9-87.2
			c-2.4,0.9-4.8,1.8-7.6,2.9c4.5,15.3,3.3,30.3,15.5,41.1c0.4,0.4,11.1,17.5,7.5,26.7c-2.7,7.2,0.3,11.1,7.7,14.3
			c4.1,1.8,7.9,4.2,11.7,6.5c8.8,5.5,13.2,14.3,17.2,23.4C238.5,551.6,243.4,558.3,252.5,561z"/>
	</g>
	<g>
		<g class="st5">
			<path class="st0" d="M332.3,309.6h-13.4c-0.5,0-0.8-0.1-1.1-0.4c-0.3-0.3-0.4-0.6-0.4-1.1v-22c0-0.5,0.1-0.8,0.4-1.1
				s0.6-0.4,1.1-0.4h13.4c0.5,0,0.9,0.1,1.2,0.4s0.4,0.6,0.4,1.1v2.6c0,0.5-0.1,0.9-0.4,1.1s-0.7,0.4-1.2,0.4h-8.8v3.8h8.2
				c0.5,0,0.9,0.1,1.2,0.4s0.4,0.6,0.4,1.1v2.2c0,0.5-0.1,0.8-0.4,1.1c-0.3,0.3-0.7,0.4-1.2,0.4h-8.2v4.6h8.8c0.5,0,0.9,0.1,1.2,0.4
				s0.4,0.6,0.4,1.1v2.7c0,0.5-0.1,0.8-0.4,1.1C333.2,309.5,332.8,309.6,332.3,309.6z M328.1,282.6l-0.7,0.6
				c-0.2,0.1-0.3,0.2-0.5,0.3s-0.3,0-0.6,0h-2c-0.3,0-0.5-0.1-0.6-0.2s-0.1-0.4,0-0.7l0.1-0.3c0.1-0.3,0.3-0.5,0.4-0.6
				c0.2-0.1,0.4-0.1,0.7-0.1h2.6c0.3,0,0.6,0.1,0.6,0.3C328.4,282.2,328.4,282.4,328.1,282.6z"/>
			<path class="st0" d="M342.1,290.7h-4.8c-0.5,0-0.8-0.1-1.1-0.4s-0.4-0.6-0.4-1.1v-3.1c0-0.5,0.1-0.8,0.4-1.1s0.6-0.4,1.1-0.4H353
				c0.5,0,0.9,0.1,1.1,0.4c0.3,0.3,0.4,0.6,0.4,1.1v3.1c0,0.5-0.1,0.9-0.4,1.1s-0.7,0.4-1.1,0.4h-4.7v17.4c0,0.5-0.1,0.9-0.4,1.1
				s-0.7,0.4-1.1,0.4h-3c-0.5,0-0.8-0.1-1.1-0.4c-0.3-0.3-0.4-0.6-0.4-1.1V290.7z"/>
			<path class="st0" d="M357.9,308.3c-0.1,0.4-0.3,0.7-0.5,0.9c-0.3,0.2-0.6,0.3-1,0.3h-2.9c-0.5,0-0.9-0.2-1.2-0.5
				c-0.3-0.3-0.3-0.7-0.2-1.2l5.8-22.1c0.1-0.4,0.2-0.7,0.5-0.9c0.3-0.2,0.6-0.3,1-0.3h6.5c0.4,0,0.7,0.1,1,0.3
				c0.3,0.2,0.5,0.5,0.5,0.9l5.8,22.1c0.1,0.5,0,0.9-0.2,1.2s-0.6,0.5-1.2,0.5h-2.9c-0.4,0-0.8-0.1-1-0.3c-0.3-0.2-0.5-0.5-0.5-0.9
				l-0.9-3.8h-7.7L357.9,308.3z M365.5,300.2l-2.8-11.6l-2.8,11.6H365.5z"/>
			<path class="st0" d="M377,290.7h-4.8c-0.5,0-0.8-0.1-1.1-0.4s-0.4-0.6-0.4-1.1v-3.1c0-0.5,0.1-0.8,0.4-1.1s0.6-0.4,1.1-0.4h15.7
				c0.5,0,0.9,0.1,1.1,0.4c0.3,0.3,0.4,0.6,0.4,1.1v3.1c0,0.5-0.1,0.9-0.4,1.1s-0.7,0.4-1.1,0.4h-4.7v17.4c0,0.5-0.1,0.9-0.4,1.1
				s-0.7,0.4-1.1,0.4h-3c-0.5,0-0.8-0.1-1.1-0.4c-0.3-0.3-0.4-0.6-0.4-1.1V290.7z"/>
			<path class="st0" d="M402.8,294.5c3.4,0.2,5.8,0.8,7.2,1.9c1.4,1.1,2.1,2.9,2.1,5.5v0.2c0,2.5-0.9,4.4-2.7,5.7
				c-1.8,1.3-4.5,1.9-8,1.9c-3.4,0-6-0.6-7.8-1.8c-1.7-1.2-2.7-3-2.9-5.4c0,0,0-0.1,0-0.3c0-0.1,0-0.2,0-0.3c0-0.4,0.1-0.7,0.3-0.9
				s0.6-0.3,1-0.3h3.3c0.5,0,0.9,0.1,1.1,0.2s0.4,0.5,0.5,0.9c0,0.1,0.1,0.3,0.2,0.6c0.3,0.8,0.8,1.4,1.5,1.7c0.7,0.3,1.7,0.5,3,0.5
				c1.5,0,2.6-0.2,3.4-0.6c0.7-0.4,1.1-1,1.1-1.8v-0.1c0-0.4-0.1-0.7-0.2-0.9c-0.1-0.2-0.3-0.5-0.5-0.7c-0.2-0.2-0.6-0.4-1.1-0.5
				c-0.5-0.1-1-0.2-1.7-0.3c-0.6-0.1-1.5-0.2-2.5-0.3c-1.8-0.2-3.2-0.4-4.4-0.7c-1.1-0.3-2.1-0.7-2.9-1.3c-0.8-0.6-1.3-1.3-1.7-2.1
				c-0.3-0.8-0.5-1.9-0.5-3.1V292c0-2.6,0.9-4.5,2.7-5.7c1.8-1.3,4.5-1.9,8.1-1.9c3.3,0,5.8,0.6,7.6,1.8c1.8,1.2,2.8,2.9,3,5.1
				c0.1,0.2,0.1,0.4,0.1,0.7c0,0.4-0.1,0.7-0.3,0.9c-0.2,0.2-0.6,0.3-1,0.3h-3.3c-0.5,0-0.9-0.1-1.1-0.2s-0.4-0.5-0.5-0.9
				c-0.1-0.3-0.1-0.5-0.2-0.7c-0.6-1.2-2.1-1.8-4.4-1.8c-3,0-4.5,0.8-4.5,2.3v0.2c0,0.6,0.1,1,0.4,1.3c0.3,0.3,0.9,0.6,1.7,0.8
				C399.8,294.3,401.1,294.4,402.8,294.5z"/>
			<path class="st0" d="M420.4,296.1v1.2c0,0.5-0.1,0.8-0.4,1.1c-0.3,0.3-0.6,0.4-1.1,0.4H415c-0.5,0-0.9-0.1-1.2-0.4
				c-0.3-0.3-0.4-0.6-0.4-1.1v-1.2c0-0.5,0.1-0.9,0.4-1.2s0.7-0.4,1.2-0.4h3.8c0.5,0,0.8,0.1,1.1,0.4S420.4,295.6,420.4,296.1z"/>
			<path class="st0" d="M443.1,297.9c0,1.8-0.1,3.3-0.4,4.6c-0.2,1.3-0.6,2.4-1.1,3.3c-0.5,0.9-1.2,1.7-2,2.3c-0.8,0.6-1.8,1-3,1.3
				c-1.1,0.3-2.5,0.4-4.1,0.4c-2,0-3.6-0.2-4.9-0.6s-2.4-1.1-3.2-2c-0.8-1-1.4-2.2-1.8-3.6s-0.5-3.3-0.5-5.6v-11.8
				c0-0.5,0.1-0.9,0.4-1.1c0.3-0.3,0.6-0.4,1.1-0.4h3.1c0.5,0,0.9,0.1,1.1,0.4c0.3,0.3,0.4,0.7,0.4,1.1v11.4c0,1.7,0.2,3,0.5,4
				c0.3,1,0.8,1.7,1.4,2.1s1.4,0.6,2.4,0.6c1,0,1.8-0.2,2.4-0.6s1.1-1.1,1.4-2.1c0.3-1,0.5-2.3,0.5-4v-11.4c0-0.5,0.1-0.9,0.4-1.2
				c0.3-0.3,0.6-0.4,1.1-0.4h3c0.5,0,0.9,0.1,1.2,0.4c0.3,0.3,0.4,0.7,0.4,1.1V297.9z"/>
			<path class="st0" d="M464.6,309.6h-2.9c-0.7,0-1.1-0.3-1.5-0.8l-9.2-13.6v12.9c0,0.5-0.1,0.8-0.4,1.1c-0.3,0.3-0.7,0.4-1.1,0.4
				h-2.6c-0.5,0-0.8-0.1-1.1-0.4c-0.3-0.3-0.4-0.6-0.4-1.1v-22c0-0.5,0.1-0.8,0.4-1.1s0.6-0.4,1.1-0.4h2.9c0.6,0,1.1,0.3,1.4,0.8
				l9.2,13.1v-12.3c0-0.5,0.1-0.9,0.4-1.1c0.3-0.3,0.6-0.4,1.1-0.4h2.6c0.5,0,0.9,0.1,1.2,0.4s0.4,0.6,0.4,1.1v22
				c0,0.5-0.1,0.8-0.4,1.1C465.4,309.5,465.1,309.6,464.6,309.6z"/>
			<path class="st0" d="M473,309.6h-3.1c-0.5,0-0.8-0.1-1.1-0.4c-0.3-0.3-0.4-0.6-0.4-1.1v-22c0-0.5,0.1-0.8,0.4-1.1
				s0.6-0.4,1.1-0.4h3.1c0.5,0,0.8,0.1,1.1,0.4s0.4,0.6,0.4,1.1v22c0,0.5-0.1,0.8-0.4,1.1C473.8,309.5,473.4,309.6,473,309.6z"/>
			<path class="st0" d="M488.6,294.5c3.4,0.2,5.8,0.8,7.2,1.9c1.4,1.1,2.1,2.9,2.1,5.5v0.2c0,2.5-0.9,4.4-2.7,5.7
				c-1.8,1.3-4.5,1.9-8,1.9c-3.4,0-6-0.6-7.8-1.8c-1.7-1.2-2.7-3-2.9-5.4c0,0,0-0.1,0-0.3c0-0.1,0-0.2,0-0.3c0-0.4,0.1-0.7,0.3-0.9
				s0.6-0.3,1-0.3h3.3c0.5,0,0.9,0.1,1.1,0.2s0.4,0.5,0.5,0.9c0,0.1,0.1,0.3,0.2,0.6c0.3,0.8,0.8,1.4,1.5,1.7c0.7,0.3,1.7,0.5,3,0.5
				c1.5,0,2.6-0.2,3.4-0.6c0.7-0.4,1.1-1,1.1-1.8v-0.1c0-0.4-0.1-0.7-0.2-0.9c-0.1-0.2-0.3-0.5-0.5-0.7c-0.2-0.2-0.6-0.4-1.1-0.5
				c-0.5-0.1-1-0.2-1.7-0.3c-0.6-0.1-1.5-0.2-2.5-0.3c-1.8-0.2-3.2-0.4-4.4-0.7c-1.1-0.3-2.1-0.7-2.9-1.3c-0.8-0.6-1.3-1.3-1.7-2.1
				c-0.3-0.8-0.5-1.9-0.5-3.1V292c0-2.6,0.9-4.5,2.7-5.7c1.8-1.3,4.5-1.9,8.1-1.9c3.3,0,5.8,0.6,7.6,1.8c1.8,1.2,2.8,2.9,3,5.1
				c0.1,0.2,0.1,0.4,0.1,0.7c0,0.4-0.1,0.7-0.3,0.9c-0.2,0.2-0.6,0.3-1,0.3h-3.3c-0.5,0-0.9-0.1-1.1-0.2s-0.4-0.5-0.5-0.9
				c-0.1-0.3-0.1-0.5-0.2-0.7c-0.6-1.2-2.1-1.8-4.4-1.8c-3,0-4.5,0.8-4.5,2.3v0.2c0,0.6,0.1,1,0.4,1.3c0.3,0.3,0.9,0.6,1.7,0.8
				C485.6,294.3,486.9,294.4,488.6,294.5z"/>
		</g>
	</g>
</g>
</svg>
