<?xml version="1.0" encoding="utf-8"?>
<!-- Generator: Adobe Illustrator 19.1.0, SVG Export Plug-In . SVG Version: 6.00 Build 0)  -->
<svg version="1.1" id="Calque_1" xmlns="http://www.w3.org/2000/svg" xmlns:xlink="http://www.w3.org/1999/xlink" x="0px" y="0px"
	 viewBox="0 0 235.1 246.4" style="enable-background:new 0 0 235.1 246.4;" xml:space="preserve">
<style type="text/css">
	.st0{fill:#009DBF;}
	.st1{fill:#D0095B;}
	.st2{fill:#009EC0;}
	.st3{fill:#D1005A;}
	.st4{fill:#C0BFBF;}
	.st5{enable-background:new    ;}
	.st6{fill:none;stroke:#D0095B;stroke-width:3;stroke-miterlimit:10;}
	.st7{fill:#FFFFFF;stroke:#D0095B;stroke-width:3;stroke-miterlimit:10;}
	.st8{fill:#FFFFFF;}
</style>
<g>
	<path class="st0" d="M46.7,149.6c-4.6-2.3-23.9-10.2-27.5-12.1c-0.3-0.1-0.7,0-0.9,0c-0.2,3.5-0.6,6.9-0.6,10.3
		c-0.1,8.1-0.1,16.3,0,24.4c0.1,8,3.8,12.8,11.6,15.1c4,1.2,8.1,2,12.2,2.9c0.5,0.1,1.2-0.1,2-0.3C44.6,176.3,47.1,162.9,46.7,149.6
		z M28.4,180.6c-2.8,0-2.6-9,0.1-9C31.2,171.6,31.2,180.6,28.4,180.6z"/>
	<path class="st0" d="M103.1,173.4c-12.3-2.6-23.7-6.2-35.1-11.4c-0.3,1.4-0.6,2.4-0.6,3.5c-0.1,7-0.1,14,0,21
		c0,4.4,0.7,8.9,0.2,13.2c-0.4,3.7,1,6.1,3.7,8.2c4.7,3.7,9.7,6.8,15.5,8.3c1.1,0.3,2.2,0.7,3.1,1.2c2.8,1.6,7.8,3.6,9.7,2.1
		c1.8-1.5,1.5-6.5,1.8-9.6c0.7-7.1,1.3-14.2,1.6-21.3C103.3,183.5,103.1,178.4,103.1,173.4z M82.5,207.9c-3.2,0-4.2-8.8-2.6-9.9
		c1.6-1.1,2.9-1.5,3.7-0.4C84.5,198.8,85.7,207.9,82.5,207.9z"/>
	<path class="st1" d="M71.4,75.4c-4-1-7.6-1.7-11.1-2.7c-0.7-0.2-1.5-1.6-1.6-2.5c-0.1-1.2,1-2,2.2-2c0.8,0,1.6,0.2,2.3,0.6
		c2.3,1,4.6,2,7.5,2.2c-0.5-2.5-0.9-4.6-1.2-6.4C64.7,63.8,56,62.3,56.1,60c0.1-2.3,2.1-3.8,4-2.9c1.9,0.8,7.5,4.5,8.1,3
		c0.6-1.5,0-2-0.6-2.3c-2.8-1.7-5.5-3.6-8.8-4.4c-1.2-0.3-2.5-0.6-2.3-2.3c0.2-1.1,2-2.5,3.4-2.4c0.8,0.1,1.7,0.5,2.5,0.7
		c1.5,0.5,3,0.9,5,1.6c-0.4-2.2-0.8-3.9-1-5.1c-3.4-0.8-6.1-1.5-8.8-2.2c-0.8-0.2-1.6-0.8-2.1-1.4c-0.5-0.7-0.8-1.9-0.6-2.6
		c0.4-1.2,1.5-1.3,2.8-1c2.5,0.6,4.9,1.1,8,1.7c-0.3-2-0.5-3.3-0.7-4.8c-3.4-0.6-6.5-1.2-9.6-1.8c-0.2-0.5-0.5-0.8-0.5-1.1
		c-0.3-2.9,0.5-3.6,3.3-2.4c1.8,0.8,3.7,0.9,5.8,0.7c-0.8-5.5-1.5-10.8-2.3-16.1c-0.3-1.9-1.1-3.3-3.4-3.8c-3.4-0.7-6.6-1.8-9.9-2.8
		c-3.5-1-7-2-11-3.1c0.3,2.6,0.6,4.9,1,7.1c1.7,10.3,3.3,20.6,5.2,30.8c0.5,2.9,2.1,14.3,2.3,16.2c0.4,3,1.3,6,1.6,9.1
		c0.4,3.5,2.5,5.5,5.1,7.2c1.5,1,2.9,2.2,4.4,3.4c1.5,1.2,3,2.5,4.8,4.1c-1.2-4.5-0.6-5.1,3.4-4.4c2.3,0.4,4.5,1.1,7.1,1.7
		C71.9,78.5,71.6,76.7,71.4,75.4z M51.2,21.9c-2.1,0-2.7-1.1-2.4-2.5c0.2-0.9,1-2.3,1.7-2.4c0.9-0.2,3.5,1.3,3.5,2.9
		C53.9,21.4,53.3,21.9,51.2,21.9z"/>
	<path d="M63.7,184.4c-0.1-1.3,0.3-19.6,1.2-23.9c0.1-0.5,0.1-1.1,0.5-1.4c0.8-0.7,1.7-1.6,2.7-1.7c2.6-0.2,4.5-2.8,7.6-1.5
		c7.3,3,14.8,5.5,22.2,8.2c3.6,1.3,7.1,2.8,10.6,4.2c2.8,1.1,4.2,3.1,4,6.3c-0.4,9.5-0.5,19-0.8,28.5c-0.2,5.2-0.4,10.4-0.7,15.5
		c-0.2,2.8-1.9,4.9-4.3,5.8c-3.1,1.1-6.4,1.7-9.6,2.3c-3.4,0.6-6.3-1.1-9.1-2.5c-7-3.5-13.4-7.7-19.3-12.8c-2.9-2.5-4.1-5.4-4.3-9
		C64,200,63.8,187.9,63.7,184.4z M99.5,219.6c1.8-1.5,1.5-6.5,1.8-9.6c0.7-7.1,1.3-14.2,1.6-21.3c0.3-5.1,0-10.3,0-15.2
		c-12.3-2.6-23.7-6.2-35.1-11.4c-0.3,1.4-0.6,2.4-0.6,3.5c-0.1,7-0.1,14,0,21c0,4.4,0.7,8.9,0.2,13.2c-0.4,3.8,1,6.1,3.7,8.2
		c4.7,3.7,9.7,6.8,15.5,8.3c1.1,0.3,2.2,0.7,3.1,1.2C92.6,219.1,97.7,221.1,99.5,219.6z"/>
	<path d="M14.9,130.6c2.4-0.8,4.7-1.4,6.8-2.1c4.6,2.3,9.2,4.5,13.7,6.9c3.1,1.7,6,3.8,9.1,5.6c2.2,1.2,4.5,2.4,6.9,3.2
		c3,1.1,4.9,4.1,4.3,7.2c-0.3,1.6-0.5,3.2-0.5,4.7c-0.1,6.4,0.3,12.8-0.1,19.2c-0.3,4.4,0,8.9-1.7,13.1c-1.1,2.6-2.8,4.1-5.2,5.4
		c-5.7,3-11.3,1.6-16.9-0.2c-3.9-1.2-7.5-3.1-10.8-5.5c-1.8-1.3-4.4-7.5-4.9-8.8c-2.3-6.1-1.9-12.3-1.6-18.6
		c0.1-1.5,0.3-2.9,0.3-4.4c0.1-7.6,0.2-15.2,0.3-22.8C14.7,132.6,14.9,131.8,14.9,130.6z M46.7,149.6c-4.6-2.3-23.9-10.2-27.5-12.1
		c-0.3-0.1-0.7,0-0.9,0c-0.2,3.5-0.6,6.9-0.6,10.3c-0.1,8.1-0.1,16.3,0,24.4c0.1,8,3.8,12.8,11.6,15.1c4,1.2,8.1,2,12.2,2.9
		c0.5,0.1,1.2-0.1,2-0.3C44.6,176.3,47.1,162.9,46.7,149.6z"/>
	<path d="M85.5,212.4c-6.8,0-9-5.1-9.8-8.8c-0.8-3.8,0.1-7.1,3.3-9.5c2.6-1.9,8.2-0.7,10.2,2.2C92.6,201,89.6,212.4,85.5,212.4z
		 M82.5,207.9c3.2,0,2-9.1,1.1-10.3c-0.8-1.1-2.1-0.7-3.7,0.4S79.3,207.9,82.5,207.9z"/>
	<path d="M36,177.4c0,0.6,0,1,0,1.4c-0.1,3.4-1.3,5.9-3.2,6c-3.4,0.2-6.5-0.3-8.1-3.6c-1.7-3.7-2-7.3,0-11c0.8-1.5,1.6-2.7,3.6-2.5
		c2.2,0.2,4.5-0.4,5.8,2.2C35.3,172.3,36.3,174.9,36,177.4z M28.5,171.6c-2.7,0-2.9,9-0.1,9S31.2,171.6,28.5,171.6z"/>
	<path class="st0" d="M24.5,89.6c4.8,3,9.8,6,14.6,9.1c9.3,5.9,18.6,11.6,27.7,17.8c7.4,5.1,14.4,10.7,21.7,16
		c4.5,3.2,9.1,6.3,13.7,9.5c2.7-6,6.6-10.4,13.1-12.5c-3.2-2.4-6-4.6-8.9-6.7c-14.1-10.4-28.1-20.8-42.2-31.2
		c-6.7-5-13.5-10-20.3-14.9c-1.1-0.8-2.7-1.6-4-1.5c-3.2,0.2-6.4,1-8.9,3c-2,1.7-3.8,3.9-5.2,6.1C25,85.6,23.9,87.3,24.5,89.6z"/>
	<path class="st0" d="M137.5,106c-16.8,8.1-22.5,11.6-24.2,14.8c0.4,0,0.8,0.2,1.1,0.1c7.8-4,15.5-7.9,23.2-12
		C139,108.2,138.7,107.1,137.5,106z"/>
	<path class="st1" d="M108.8,117.9c0.3,0,0.6,0.1,0.9,0.1c3.3-5.6,7.2-9.6,10.7-15.5c-1.5-0.5-3-2.5-4-2.9c-2,3.8-3.9,7.4-5.7,11
		c-0.9,1.7-1.8,3.5-2.4,5.3C108.2,116.4,108.7,117.2,108.8,117.9z"/>
	<path class="st1" d="M142.1,118.7c-6.2,2.7-12.4,5-17.7,9.1c1,1.7,2.1,1.2,3.5,0.5c4.8-2.3,9.6-4.4,14.5-6.6c0.3-0.1,0.6-0.3,1-0.5
		C142.9,120.4,142.5,119.7,142.1,118.7z"/>
	<path d="M41.4,50.9c-1.3-7-2.5-13.7-3.6-20.3C36.4,22.4,35,14.3,34,6.1c-0.2-1.7,1.1-3.6,2-5.3c0.3-0.5,1.5-0.9,2.2-0.8
		c1.7,0.2,3.5,0.4,5,1.2c5.7,2.9,12.1,4.1,18,6.4c2.1,0.8,4,1.7,5.4,2.3c3.4,13.3,4.4,26.4,7.8,39.1c1.1,0,2,0.1,2.8,0
		c7.1-1.4,13.8-0.1,20.5,2.3c4.6,1.7,9.3,3,13.7,5.2c4.5,2.3,8.9,4.7,12.7,8.2c8,7.5,16.3,14.7,25.1,21.3c9.4,7,18.3,14.6,27.4,21.9
		c1.6,1.3,3,3,4.6,4.3c1.8,1.5,3.7,2.9,5.6,4.2c3,2.1,5.3,4.5,6.6,8.1c3.2,8.9,4.9,18,5.8,27.4c0.8,8.9,2.4,17.6,6.2,25.8
		c0.2,0.4,0.5,0.8,0.9,1.4c3.8-1.5,7.3-3.4,10.1-6.4c2.2-2.4,4.9-3.7,8-4.2c3.5-0.6,6.5,0,8.7,3.2c2.7,3.8,2.7,8.2-0.9,11.2
		c-3.9,3.2-8.1,6.1-12.2,9.1c-0.9,0.6-1.8,1.3-2.8,2c2.4,4.6,3.8,12.2-0.8,13.2c-4.6,1-13.3-1.9-15.6-2.6c-2.3-0.7-3.7-0.4-5.5,1.4
		c-5.2,5.3-11.2,9.6-17.4,13.7c-1.3,0.9-2.7,1.7-4,2.6c-0.7,0.5-1.6,1.2-1.7,1.9c-0.8,4.9-5.2,6.4-8.5,8.6
		c-3.9,2.6-8.4,4.2-12.6,6.1c-2.2,1-4.6,1.9-6.8,3c-6.7,3.4-13.9,3.9-21.2,3.7c-2.5-0.1-5-0.2-7.4,0.3c-5.5,1.1-10.8,0.5-16-1.3
		c-7.7-2.6-15.1-6-21.8-10.6c-7.8-5.3-15.8-10.4-23.5-16c-4.3-3.1-9.3-5.2-14.1-7.4c-8.6-4-17.2-7.9-25.9-11.8
		c-5-2.2-8.3-6.3-10.9-10.7c-2.1-3.6-1.5-8-0.9-12c1.2-7.6,1-15.2,0-22.8c-1.1-8.4-2-16.9-2.6-25.4c-0.7-9.6,0.2-19.2,1.8-28.7
		c0.7-4.3,1.4-8.5,2-12.8c0.2-1.6,0.3-3.3,0-4.8c-2.1-9.3,3.1-14.9,10.1-19.3c6.3-4,13-6.9,20.2-9.1C36.5,52.5,38.7,51.8,41.4,50.9z
		 M208.2,182.9c2.3,2.8,4.6,5.5,6.8,8.3c3.2-2.6,14.7-11.8,15.5-12.8c1.2-1.6,0.8-3.3,0.1-4.9c-0.7-1.6-2.2-1.8-3.8-1.3
		c-1.5,0.4-3.2,0.5-4.6,1.2C221.1,174,212.2,180.7,208.2,182.9z M120.5,154.8c-1.6,0-2.6,0.2-3.5,0c-6.6-1.7-13-4.2-18.7-7.8
		c-6.6-4.3-12.9-9.1-19.3-13.7c-2.6-1.9-5.2-3.7-7.7-5.7c-12.7-10.1-26.7-18.1-41.4-25.1c-7.6-3.6-15.5-7-22.2-13.5
		c-0.3,2.8-0.5,5-0.7,7.3c-0.7,8.6-1.5,17.2-2.2,25.8c-0.2,2-0.1,4,0.1,5.9c0.9,8.9,2,17.9,2.8,26.8c0.5,5.9,0.4,11.8,0.6,17.7
		c0.1,3.7-2.6,11.7,0,14.5c2.6,2.8,7.7,7.2,11.2,8.8c7.2,3.2,14.5,6.3,21.6,9.8c5.5,2.7,10.8,6,16.2,8.9c8.9,4.8,17.9,9.5,26.1,15.4
		c3.7,2.7,7.4,5.3,11.3,7.7c7.6,4.6,15.7,5.1,24.6,2.9C120.7,211.9,120.5,183.4,120.5,154.8z M125.9,241c5.5-1.7,10.7-3.2,15.8-4.8
		c2.5-0.8,5.1-1.3,7.3-2.4c5.2-2.7,10.2-5.9,15.4-8.7c2-1.1,3.2-2.7,3.6-4.9c0.6-3.3,1.3-6.6,1.2-9.8c-0.4-11.9-1.2-23.8-1.9-35.8
		c-0.4-6.6-1-13.3-1.4-19.9c-0.4-6.1-0.5-12.3-0.8-18.5c-0.1-1.3,0-2.6,0-4.1c-11.8,9.1-24.7,15.8-38.7,20.7
		c0.2,2.2,0.5,4.1,0.5,6.1c-0.1,7.9-0.3,15.8-0.5,23.7c-0.2,4.8-0.6,9.6-0.9,14.4c-0.1,1.7-0.5,3.4-0.5,5.1c0,11.9,0,23.9,0.1,35.8
		C125.3,238.7,125.6,239.5,125.9,241z M24.5,89.6c4.8,3,9.8,6,14.6,9.1c9.3,5.9,18.6,11.6,27.7,17.8c7.4,5.1,14.4,10.7,21.7,16
		c4.5,3.2,9.1,6.3,13.7,9.5c2.7-6,6.6-10.4,13.1-12.5c-3.2-2.4-6-4.6-8.9-6.7c-14.1-10.4-28.1-20.8-42.2-31.2
		c-6.7-5-13.5-10-20.3-14.9c-1.1-0.8-2.7-1.6-4-1.5c-3.2,0.2-6.4,1-8.9,3c-2,1.7-3.8,3.9-5.2,6.1C25,85.6,23.9,87.3,24.5,89.6z
		 M175.9,113.6c-2.5-2-4.4-3.6-6.3-5.1c-5.4-4.2-10.9-8.1-16.1-12.4c-10.2-8.4-20.3-16.9-30.3-25.5c-10.1-8.5-21.2-15-34.4-16.8
		c-3.7-0.5-7.5-0.9-11.2-0.4c3.1,2.7,6.5,5.1,9.2,8.1c4.3,4.9,9.7,8.3,14.8,12.2c6.7,5.2,13.8,9.9,20.8,14.8c3-1.1,5.6,0,5.7,3.1
		c0.1,2.2,1,3.4,2.6,4.5c2.1,1.5,4.1,3.2,6.3,4.5c1.4,0.9,3,1.4,4.8,0.3c1.8-1,3.9-1.7,5.9-2.2c1.3-0.4,2.9-0.9,4,0.8
		c1,1.7,0.8,3.3-0.4,4.7c-1,1.1-1.9,2.3-2.7,3.5c-0.3,0.4-0.4,0.9-0.5,1.3c0.3,0.4,0.5,0.6,0.8,0.9c0.5,0.4,0.9,0.8,1.4,1.2
		c0.5-0.2,1-0.4,1.4-0.6c3.1-1.3,4.6-0.3,4.5,3.2c0,0.9-0.2,1.9-0.3,2.9c3,2.1,6,4.1,9,6.2C167.6,118.6,170.7,115.3,175.9,113.6z
		 M64.9,35.6c-3.4-0.6-6.5-1.2-9.6-1.8c-0.2-0.5-0.5-0.8-0.5-1.1c-0.3-2.9,0.5-3.6,3.3-2.4c1.8,0.8,3.7,0.9,5.8,0.7
		c-0.8-5.5-1.5-10.8-2.3-16.1c-0.3-1.9-1.1-3.3-3.4-3.8c-3.4-0.7-6.6-1.8-9.9-2.8c-3.5-1-7-2-11-3.1c0.3,2.6,0.6,4.9,1,7.1
		c1.7,10.3,3.3,20.6,5.2,30.8c0.5,2.9,2.1,14.3,2.3,16.2c0.4,3,1.3,6,1.6,9.1c0.4,3.5,2.5,5.5,5.1,7.2c1.5,1,2.9,2.2,4.4,3.4
		c1.5,1.2,3,2.5,4.8,4.1c-1.2-4.5-0.6-5.1,3.4-4.4c2.3,0.4,4.5,1.1,7.1,1.7c-0.3-1.9-0.6-3.7-0.8-5c-4-1-7.6-1.7-11.1-2.7
		c-0.7-0.2-1.5-1.6-1.6-2.5c-0.1-1.2,1-2,2.2-2c0.8,0,1.6,0.2,2.3,0.6c2.3,1,4.6,2,7.5,2.2c-0.5-2.5-0.9-4.6-1.2-6.4
		C64.7,63.8,56,62.3,56.1,60c0.1-2.3,2.1-3.8,4-2.9c1.9,0.8,7.5,4.5,8.1,3c0.6-1.5,0-2-0.6-2.3c-2.8-1.7-5.5-3.6-8.8-4.4
		c-1.2-0.3-2.5-0.6-2.3-2.3c0.2-1.1,2-2.5,3.4-2.4c0.8,0.1,1.7,0.5,2.5,0.7c1.5,0.5,3,0.9,5,1.6c-0.4-2.2-0.8-3.9-1-5.1
		c-3.4-0.8-6.1-1.5-8.8-2.2c-0.8-0.2-1.6-0.8-2.1-1.4c-0.5-0.7-0.8-1.9-0.6-2.6c0.4-1.2,1.5-1.3,2.8-1c2.5,0.6,4.9,1.1,8,1.7
		C65.4,38.3,65.2,37,64.9,35.6z M214.5,201.5c0.4-2-0.6-3.1-1.8-4.1c-0.6-0.5-1.4-1-1.9-1.7c-1.4-2.1-2.7-4.4-4-6.5
		c-7.1-11.2-10.9-23.4-12.1-36.5c-0.7-7.9-1.3-15.7-4.3-23.1c-1.9-4.8-5.1-8.4-9.4-11c-1.9-1.1-4-1.2-6,0.1
		c-2.6,1.8-4.4,3.6-4.3,7.4c0.1,5.7,0.4,11.4,2.6,16.6c4.9,11.5,12.1,21.7,18.7,32.3c4.7,7.6,8.3,15.6,10.3,24.3
		C206.3,199.9,210.3,200.6,214.5,201.5z M118,93.2c-13.8-11.3-27.5-22.4-41.1-33.5c-0.1,2.7,0.4,5,0.7,7.3c1.4,9.5,2.8,19,4.3,28.5
		c0.2,1.3,1.2,2.7,2.2,3.6c2,1.8,4.2,3.4,6.4,5c4.8,3.6,9.5,7.2,14.4,10.8c2.8-5.5,5.7-10.7,8.1-16.1c0.8-1.9,1.2-3.6,3.6-4.1
		C117.1,94.6,117.6,93.6,118,93.2z M20.5,88c3.1-9.4,9.5-17.5,24.2-16.8c-0.8-4.5-1.5-8.8-2.3-13.4c-1.6,0.4-2.9,0.5-4.1,1
		c-8.1,3.4-16.3,6.9-24.3,10.6c-1.8,0.8-3.4,2.4-4.7,4c-2.1,2.8-1.8,5.3,1,7.4C13.4,83.2,16.8,85.4,20.5,88z M193.1,196.4
		c0.3-3.6-0.6-6.6-2.1-9.5c-1.6-3.1-3.4-6-5.2-9c-3.8-6.2-7.9-12.2-11.6-18.5c-1.6-2.7-2.8-5.7-4.3-8.9c0.2,5.3,0.4,10.2,0.7,15.1
		c0.1,0.9,0.4,2,1,2.7c2.2,3.1,4.7,6.1,6.9,9.1c1.6,2.2,3.4,4.3,4.6,6.7c1.1,2.4,1.9,5.1,2,7.7c0.3,3.8,1.1,5,4.8,4.9
		C190.9,196.7,191.9,196.5,193.1,196.4z M153.2,120.7c-5.6,6.7-14,8.4-21.4,11.8c0.5,3.2,1.1,6.4,1.6,9.8
		c9.4-4.3,19.3-8.1,28.2-14.5C158.7,125.3,156.1,123.1,153.2,120.7z M171.5,174.8c0.5,9.2,0,18.2,1.7,27.9c2.5-2.6,4.5-4.8,6.5-6.8
		c0.7-0.7,1.7-1,1.6-2.5C180.8,185.8,177,180,171.5,174.8z M114,139.5c2.8,0.8,2.8,0.8,2.6,2.5c-0.2,1.8-0.3,3.6-0.5,5.3
		c1.8,0.7,2.1-0.1,2.1-1.3c0.1-2.1,0-4.2,0.2-6.3c0.1-0.8,0.9-2,1.5-2.1c1.3-0.2,1.3,1.1,1.3,2.1c0,2,0,4.1,0,6.1
		c4-2,1.2-5.8,2.7-8.3c2.4,0.4,2.5,0.4,2.5,2.1c0,1.7-0.1,3.4-0.2,5.1c0.8-0.6,1.1-1.2,1.1-1.9c0-1.6-0.2-3.2-0.2-4.8
		c-0.1-3.8-1.8-5.6-5.7-5.5c-2.3,0.1-4.7,0.5-6.9,1.2c-4.6,1.3-7.1,4.8-9.3,9.2c1.4,0.9,2.6,1.6,3.9,2.4c0.4-1.8,0.7-3.2,0.9-4.4
		c3.4,0.9-0.3,5,3.5,5.7C113.7,144.4,113.8,142.1,114,139.5z M172.7,214.8c7.2-3.9,13.4-8,18.3-13.9c-3.2-1-6-1.8-8.9-2.7
		c-2.2,2.9-4.2,6.2-7.7,8.2c-0.6,0.3-1.1,1.1-1.2,1.7C173,210.1,172.9,212.1,172.7,214.8z M137.5,106c-16.8,8.1-22.5,11.6-24.2,14.8
		c0.4,0,0.8,0.2,1.1,0.1c7.8-4,15.5-7.9,23.2-12C139,108.2,138.7,107.1,137.5,106z M108.8,117.9c0.3,0,0.6,0.1,0.9,0.1
		c3.3-5.6,7.2-9.6,10.7-15.5c-1.5-0.5-3-2.5-4-2.9c-2,3.8-3.9,7.4-5.7,11c-0.9,1.7-1.8,3.5-2.4,5.3
		C108.2,116.4,108.7,117.2,108.8,117.9z M142.1,118.7c-6.2,2.7-12.4,5-17.7,9.1c1,1.7,2.1,1.2,3.5,0.5c4.8-2.3,9.6-4.4,14.5-6.6
		c0.3-0.1,0.6-0.3,1-0.5C142.9,120.4,142.5,119.7,142.1,118.7z M128.5,99.5c-3.3,2.9-4.3,6.9-6.5,10.2c3.6-1.9,7.3-3.8,11.2-5.8
		C131.7,102.4,130.4,101.2,128.5,99.5z M143.7,113.1c-0.2-0.3-0.4-0.6-0.6-0.9c-8,3.9-16,7.9-24.1,11.8c1.2,1.7,2.2,0.9,3.2,0.5
		c5.6-2.8,11.2-5.6,16.8-8.4C140.6,115.2,142.1,114.1,143.7,113.1z M65.3,84.5c-0.1,0.2-0.1,0.4-0.2,0.6c2.8,2.2,5.5,4.3,8.9,6.9
		c-0.2-2.1-0.3-3.6-0.5-5.2C70.7,86,68,85.2,65.3,84.5z M150.2,116.2c-0.2-0.3-0.4-0.5-0.6-0.8c-1.5,0.6-3,1.2-4.6,1.8
		c0.4,1.1,0.7,1.8,1.1,2.9C147.7,118.6,148.9,117.4,150.2,116.2z M140.8,105.5c0.5,0.7,0.9,1.4,1.6,2.5c1-1.5,1.8-2.7,3.1-4.6
		C143.5,104.3,142.4,104.8,140.8,105.5z M122.3,93.9c-3.8,2.8-1.4,4.2,0,5.6C122.6,98.1,122.9,96.7,122.3,93.9z"/>
	<path d="M50.7,14.5c3.2,0,5.9,2,5.8,4.3c-0.2,3.2-2.8,5.8-5.7,5.7c-2.8,0-5.2-2.5-5.1-5.2C45.7,16.1,47.5,14.5,50.7,14.5z
		 M53.9,19.8c0-1.6-2.6-3.1-3.5-2.9c-0.7,0.1-1.5,1.5-1.7,2.4c-0.3,1.4,0.3,2.5,2.4,2.5S53.9,21.4,53.9,19.8z"/>
	<path class="st1" d="M65.3,84.5c-0.1,0.2-0.1,0.4-0.2,0.6c2.8,2.2,5.5,4.3,8.9,6.9c-0.2-2.1-0.3-3.6-0.5-5.2
		C70.7,86,68,85.2,65.3,84.5z"/>
	<path class="st0" d="M193.1,196.4c0.3-3.6-0.6-6.6-2.1-9.5c-1.6-3.1-3.4-6-5.2-9c-3.8-6.2-7.9-12.2-11.6-18.5
		c-1.6-2.7-2.8-5.7-4.3-8.9c0.2,5.3,0.4,10.2,0.7,15.1c0.1,0.9,0.4,2,1,2.7c2.2,3.1,4.7,6.1,6.9,9.1c1.6,2.2,3.4,4.3,4.6,6.7
		c1.1,2.4,1.9,5.1,2,7.7c0.3,3.8,1.1,5,4.8,4.9C190.9,196.7,191.9,196.5,193.1,196.4z"/>
	<path class="st0" d="M172.7,214.8c7.2-3.9,13.4-8,18.3-13.9c-3.2-1-6-1.8-8.9-2.7c-2.2,2.9-4.2,6.2-7.7,8.2
		c-0.6,0.3-1.1,1.1-1.2,1.7C173,210.1,172.9,212.1,172.7,214.8z"/>
	<path class="st0" d="M208.2,182.9c2.3,2.8,4.6,5.5,6.8,8.3c3.2-2.6,14.7-11.8,15.5-12.8c1.2-1.6,0.8-3.3,0.1-4.9
		c-0.7-1.6-2.2-1.8-3.8-1.3c-1.5,0.4-3.2,0.5-4.6,1.2C221.1,174,212.2,180.7,208.2,182.9z"/>
</g>
</svg>
