<?xml version="1.0" encoding="utf-8"?>
<!-- Generator: Adobe Illustrator 19.1.0, SVG Export Plug-In . SVG Version: 6.00 Build 0)  -->
<svg version="1.1" id="Calque_1" xmlns="http://www.w3.org/2000/svg" xmlns:xlink="http://www.w3.org/1999/xlink" x="0px" y="0px"
	 viewBox="0 0 1143.2 554.8" style="enable-background:new 0 0 1143.2 554.8;" xml:space="preserve">
<style type="text/css">
	.st0{display:none;fill:#F7B5AC;}
	.st1{fill:#F7B5AC;}
	.st2{fill:#EB5C5F;}
	.st3{fill:#84B974;}
	.st4{fill:#010202;}
	.st5{fill:#AB7613;}
	.st6{fill:#C0BFBF;}
	.st7{fill:#6FA4C3;}
	.st8{fill:#1E1E1C;}
	.st9{fill:none;}
	.st10{fill:none;stroke:#EB5C5F;stroke-width:3;stroke-miterlimit:10;}
	.st11{fill:none;stroke:#6FA4C3;stroke-width:3;stroke-miterlimit:10;}
	.st12{fill:none;stroke:#84B974;stroke-width:3;stroke-miterlimit:10;}
	.st13{fill:none;stroke:#C0BFBF;stroke-width:3;stroke-miterlimit:10;}
	.st14{fill:none;stroke:#F7B5AC;stroke-width:3;stroke-miterlimit:10;}
</style>
<g>
	<path class="st5" d="M1129.6,237.5c-5.3-13-11.6-19.9-11.6-19.9l-11.8-2.3l-31.8-2.5l-20-5.2l-23-16.2l-20.5-20.5l-13-10.2
		l-12.5-16.2l-8.2-13l-9-23.8l-11.5-16l-6-2.5l-5.5-11.4l-12.8-17.9l-6.5-5.9l-8-17.9l-11.8-12.5L891.8,13l-19-2.2l-10.2,4.5v5.5
		l2.4,7l-9,7.8l-9,16.5l-3.2,17v17.2l3,1.8l21.5,4l14.2,2.8l3,5l-11.2,19.8l-15,15.8l-13,1.8l-5.5,18l-6.5-0.8v20l5.2,32.2l6,18
		c0,0,8.8,36.8,13.8,47.8s10.5-5.5,10.5-5.5s10,21.8,13.5,29.5s13,0.2,13,0.2s13,23,23.5,34.5s6.5-14.2,6.5-14.2
		s19.4,24.3,33.5,29.8s-11-25-11-25l16,13.6c0,0,20,15.6,30.7,21.8s5.5-11.1,5.1-13.4c-0.1-0.8-3.7-4.5-8.2-9l18.3,10.8
		c0,0,28.5,18.5,30.8,13.2s-15.2-20-15.2-20l13.5,6.5l21.2,5.6h18.5l11.8,2.9c0,0,35.5-15,47.5-34S1134.8,250.5,1129.6,237.5z
		 M862.7,67.8c-3.4-1.7-4.5-5-5.6-7.8c-1.1-2.8,1.5-4.3,4.8-5.4C862.4,59.2,865.4,63.2,862.7,67.8z M888,54.7
		c-0.4-7-0.9-13.9-1.3-20.9c-0.1-1.1-0.2-2.2,0-3.2c0.3-1.6-0.5-4.1,2.2-4.2c2.4-0.1,2.9,2.4,2.9,3.9c0,5.3-0.2,10.7-0.7,16
		c-0.3,2.8-1.3,5.5-2,8.3L888,54.7z M894.2,82.4c-3.4-0.6-3.1-2.9-3.2-4.9c0-1.2,0-1.2,3.2-2.5V82.4z"/>
	<path class="st5" d="M823.2,17.4c-3.6-1.8-6.9-3.4-5.4-8.3c-11-2.5-21.1-3.6-29.7,5c-1,1-2.4,1.7-3.2,2.8c-1.6,2-3.1,1.9-5.2,0.9
		c-2.3-1.1-2.5-2.9-2-4.9c0.3-1.2,0.8-2.3,1.5-4c-3.2,0.3-5.8,0.3-8.4,0.9c-4.1,0.9-9.8,1.4-12.7,3.8c-2.8,2.3-4.5,5.8-5.7,8.2
		c-1.7,3.5-4.2,7.4-7.5,5.2c-3.3-2.2-0.6-9.3,1-13.7c-8.9-1.4-16.8,3.6-19,10.8c2.2,0,4.4,0,6.5,0c11.7-0.1,14.5,13.4,14.8,15.8
		c0.3,2.4-2.6,2.3-3.9,3.4c-6,4.8-10.9,10.5-14,17.5c-0.3,0.6-0.9,1.5-0.7,1.9c2.1,4.4,2.1,9.6,5.7,13.5c4.1,4.3,8.2,8.6,13.4,11.6
		c2.5,1.5,5.1,3,8.9,3.2c-1.2-3.3-2.2-6-3.1-8.4c-7.6-1.6-12-6.6-15.5-12.7c-1.3-2.2-2.7-4.4-4.1-6.8c4.1-3.5,10-2,15.3-4.2
		c-0.2-11.7,3.1-22.1,9.3-31.7c3.2-4.9,7.5-6.8,13.2-6.5c6.2,0.3,10.1,4.3,13.8,8.6c1.7,2,0.8,5.7-1.1,7.7
		c-3.2,3.3-6.7,6.6-9.3,10.4c-6.9,10.3-9.3,22.1-10.1,34.2c-0.4,6.1,0.2,12.2,2.9,17.9c1.2,2.6,2.8,5,4.3,7.4
		c4.4,7.4,8.1,15.4,15.2,20.8c12.9,9.7,26.9,17.3,42.2,22.6c2.8,1,5.9,1.1,8.9,1.6c1.4-4,2.5-7.3,3.8-11c-1.8-0.4-3.3-0.9-4.9-1.1
		c-8.3-0.9-16.2-3.2-23.9-6.3c-7.2-2.9-14.2-6.1-19.1-12.6c-1.5-2-3.2-4.3-5.3-5.2c-4.7-1.9-6.5-6-8.9-9.7c-1.2-1.8-2.1-3.8-3.4-5.4
		c-2.7-3.4-2.8-3.9,0.7-6.1c1.1-0.6,2.2-1.1,3.4-1.6c4.6-1.9,9.2-3.7,14-5.7c-0.6-1.5-1.2-2.8-1.6-4.2c-2.7-7.9-4.5-16-4.4-24.3
		c0.1-7,0.8-14,1.9-20.9c1-6.6,3.5-12.9,8.2-17.9c1.2-1.2,2.9-2.6,4.4-2.7c4.1-0.2,8.3,0,12.4,0.4c6.8,0.6,9.9,5.2,8.7,12
		c-0.2,1.2-0.2,2.5-0.3,3.6c-11.9,8-17.7,16.7-20,30.1c-0.6,3.7-1.2,7.5-1.4,11.2c-0.2,3.9-0.1,7.8-0.1,12.2
		c11.8-0.3,23-0.6,34.5-0.9c-0.3-1.3-0.2-2.4-0.6-3c-5-7.4-6.7-15.8-8.6-24.3c-2.8-11.8-1.1-23,5.8-33c2.1-3,5-6.3,8.2-7.4
		c4.9-1.7,10.2-3.9,15.5-1.7c0.9-0.9,1.5-1.6,2.2-2.2c0.7-0.7,1.4-1.5,2.3-2.5C847.9,4.4,835.6,6,823.2,17.4z M781.1,75.3
		c-2.9-3.6-5-7.6-5.3-11.2c0-0.5,2.3-0.5,3.6-1.8C780.2,67.1,782.5,70.5,781.1,75.3z M818,70.5c-4-3.5-4.4-7.8-0.9-10.8
		C818.1,63.3,821,66.5,818,70.5z"/>
	<path class="st3" d="M0,421.9l10.1-9l4,1.8l3.5,2l-2.8-12l-6.5-33l-2.5-26.2l4.9-43l4.6-1.2l-1.5,22.5l1.8,26l11.8,51.5l3-8.5
		l-3.8-29.2l1.8-33.2l6.9-33.1l13.5-29.7l5.8-8.5l-8.8,33.5l-8,49.8l3,37.2l1.6,17.5l7.4-6.5l2.2,19.5l5.2-20l-2.5-26.5l-8-28
		l-6.7-20.2l2.4-15.2l4.1,5.1l5,18.4l8.8,25.5l4.8,21.8l1,25l-1.2,13.8l7.5-5l1,8.4l3,8.8l7.9,1.2c0,0-7.4,12.6-41.8,13.9
		C8.1,438.1,0,421.9,0,421.9z"/>
	<path class="st6" d="M746.9,177.7c-14.3,2.5-19.1,4.2-30.6,12c-8.3,5.6-17.7,16.3-23.7,23.9c-2.1,2.6-4,5.4-6.3,7.8
		c-6,6.2-10.2,13.3-13.1,21.4c-0.7,1.8-0.5,3.1,0.6,4.6c2.3,3.4,4.6,6.9,6.7,10.4c1.6,2.5,3.5,4.7,0.8,5.7c-2.6,1-4.2-0.9-4.7-2
		c-3.8-7.6-9.4-13.9-15.4-19.8c-4.1-4.1-7.8-8.6-12.1-12.5c-4.9-4.5-9.8-9.2-15.4-12.6c-10.7-6.7-21.9-12.7-33-18.8
		c-3.9-2.1-8.1-3.8-12.2-5.2c-11.1-3.8-22.1-7.8-33.4-10.9c-6.9-1.9-14.3-2.7-21.5-3.1c-12.5-0.7-25-1.2-37.5-0.8
		c-12.8,0.4-25.8,0.6-38.3,4.1c-8.4,2.4-16.6,5.5-24.7,8.8c-9,3.6-17.8,7.8-26.7,11.7c-9,3.9-17.3,8.7-24.9,15
		c-3.4,2.9-7,5.6-11.7,9.5c1.6,0.9,18.7,16.1,21.8,18.8c9.4,8.3,18.9,16.5,28.4,24.7c3.7,3.2,7.4,6.3,11,9.6
		c13.7,13,27.3,26.1,40.8,39.3c3.9,3.8,3.7,4.2-0.1,7.9c-4.3,4.2-8.2,8.8-12.4,12.9c-15.8,15.4-31.6,30.8-47.7,45.9
		c-11,10.3-22.6,20.1-33.9,30.1c-3,2.6-2.9,3.2,0.2,6.1c10.2,9.5,22,16.1,35.6,19.3c10.9,2.6,21.7,5.9,32.6,8.2
		c7.3,1.5,14.8,1.9,22.2,2.2c14.7,0.6,29.4,0.8,44.1,1.2c14.5,0.4,28.7-1.9,42.8-4.9c8-1.7,36.6-10.9,42.6-13.9
		c12.2-6.1,24-13,35.7-20c5.5-3.2,10.5-7,15.7-10.8c2.2-1.6,14.6-15,18.4-18.2c3.6-3,5.3-8,10.3-10.3c0.8,3.7-0.6,6.1-2.6,8.2
		c-4,4.2-8,8.4-12,12.6c-0.9,0.9-1.7,1.8-2.9,3.1c10.8,11.9,21.2,23.9,32.2,35.4c4.1,4.3,9.1,7.8,14.2,11
		c8.5,5.4,17.3,10.4,26.2,15.2c4.2,2.3,8.8,3.7,13.3,5.6c0.3-0.3,0.6-0.7,1-1c-0.7-1.3-1.2-2.8-2.1-4c-6.7-8.9-11.7-18.6-15-29.3
		c-3.5-11-7.5-21.9-10.8-33c-2.5-8.2-4.5-16.5-6.2-24.9c-1.5-7.1-2.8-14.3-3.3-21.6c-0.7-12.1-0.9-24.3-0.8-36.5
		c0.1-6.3,1-12.6,1.8-18.9c1.5-10.7,2.8-21.5,4.8-32.1c3.4-17.5,9.1-34.4,16.5-50.6c5.3-11.7,11.8-22.9,17.8-34.3
		c0.3-0.6,0.6-1.3,1.1-2.5C749.3,177.5,747.9,177.3,746.9,177.7"/>
	<path class="st6" d="M515.3,493.2c6.1,5.8,12.6,11.1,19,16.7c12.6,11.2,27.1,19.1,42.8,25.2c12.8,5,26.2,7.5,39.5,10.3
		c6.2,1.3,12.4,2.6,18.6,4.1c3.2,0.8,6.2,0.3,9.6-1.5c-12-14-23.3-28.3-31.4-44.5c-8-15.9-14.4-32.7-21.7-49.4
		c-5.1,5-11.7,6.1-17.9,7.8c-15.8,4.6-31.8,8.1-48.4,8.6c-10.2,0.3-20.1,0.2-30.1-1.5c-0.3,0-0.6,0.3-1.1,0.5
		C500,478.4,507.6,485.9,515.3,493.2"/>
	<path class="st6" d="M582.3,107.4c-13.7,6.8-33.6,34.1-39.5,58.4c6.9,1.1,14.1,1.6,20.8,3.6c6.7,2,13.1,5.4,20.1,8.3
		C579.1,153.9,573.6,130.7,582.3,107.4"/>
	<path class="st2" d="M147.5,314.1c-3.5,6.3-0.8,13,0.7,19.3c2,8.7,6.6,16,12.5,22.9c14.2,16.6,32.2,26.2,53.1,31.4
		c10.6,2.7,21.3,3.9,32.1,3.8c9.4-0.1,18-3.3,26-7.6c3.8-2.1,6.7-5.8,10-8.7c1-1,2-2,3.2-3.1c3.1,2.9,1.4,5.7-0.1,7.2
		c-4.5,4.5-3.2,8.9-0.9,13.7c3.2,6.7,6.4,13.4,10.3,20c-1.5-12.9-0.5-25.6,3-37.9c3.6-12.5,5.8-25.4,12.6-37
		c6.5-11.2,13.7-21.7,23.1-31.6c-12.4-1.3-22.8,1.4-32.3,8.7c-0.7,3.8,3.2,8.8-2.9,12.3c-1.1-3.1-2.1-6-3-8.9
		c-4.1-13.2-11.6-24.1-21.9-33.2c-1.8-1.6-3.7-3.2-5.4-4.9c-7-6.8-15.9-10.2-24.7-13.8c-14.1-5.8-28.7-6.5-43.4-4.4
		c-9.1,1.3-17,5.6-24.5,11.3c-7.4,5.6-20.5,22.5-21.5,23.8c-0.6,0.8-1.8,1.7-2.6,1.6c-0.8,0-2.1-1.1-2.3-2
		c-1.5-8.4-8.7-12.3-13.8-17.7c-1.2-1.3-4.8-2.8-6.1-1.8c-3,2.2-0.3,7.9,1.4,11.2c1.9,3.4,4.1,6.7,6.2,10c2.4,3.8,1.4,5.9-3.1,6.3
		c-7.6,0.8-11.8,4.4-13.5,11.6c-0.5,2.3-0.5,4.5,1.5,6.1c2.1,1.7,4.7,3.8,7.6,2.5c6.5-3,10.3-6.1,14.3-12.2c0.8-1.3,3-3.9,4.1-5
		c0.5,0.3,1.7,0.6,2.2,0.8C149.3,308.9,148.1,313,147.5,314.1z"/>
	<path class="st2" d="M227,438.1c-2.2-6-4.7-11.2-6-16.7c-1.3-5.4-1.5-11-2.2-16.6c-7.7-2.9-15.5-5.9-24-9.2
		C199,414.6,212.2,426.6,227,438.1"/>
	<path class="st2" d="M252.1,255.2c3.2-10.7,8.6-20,17.5-27.1c-12.4,5.8-26.2,9.2-33.6,23.2C241.6,252.6,246.6,253.8,252.1,255.2"/>
	<path d="M26.6,381.6c-0.7-8-2-15.9-2.3-23.9c-0.8-19.2,2.1-37.9,7-56.4c0.3-1,0.7-2.2,0.5-3.2c-1.6-7.9-2.8-15.8-5.1-23.5
		c-2.8-9.5-3.7-19-3.8-28.8c0-5.1,5.8-10.7,8.8-9.8c3,0.9,6,25.1,8.9,37.6c0.1-0.1,0.5-0.2,0.7-0.5c0.8-1.3,1.5-2.6,2.1-3.9
		c4.4-9.2,7.3-18.8,5.8-29.1c-0.9-6,2.1-8.7,4.9-8.7c2.8,0,4.1,4.4,4.6,7.3c0.6,3.1,0.9,6.3,0.7,9.5c-0.6,14.2-5.3,27.5-9.9,40.7
		c-2.5,7.1-1.9,13.3,0.2,20c4.5,14.2,9.1,28.5,13,42.9c4.6,16.8,5.6,34.1,4.8,52.5c1-1.1,1.5-1.5,1.8-2.1c1.3-1.8,3.4-2.5,4.9-1.2
		c1.1,1,1.4,3.2,1.5,4.9c0.2,2.6-0.4,5.2-0.2,7.7c0.5,6.1,2,7.2,8.1,6.7c0.3,0,0.6,0.4,1.1,0.7c-0.2,0.6-0.2,1.7-0.7,1.9
		c-5.7,2.9-11.8,1.4-13.2-4.3c-0.5-2.2-0.6-4.4-0.8-6.7c-0.1-1.2-0.2-2.3-0.3-3.5c-2.5,1.6-4.5,2.9-6.7,4.3
		c-2.3-4.2-0.2-7.7-0.2-11.1c0.3-15.8,0.4-31.7-4.3-47c-3.7-11.9-7.3-23.9-11-35.9c-0.9-2.8-1.7-5.5-2.8-8.9
		c-1.9,4.4,2.2,14.6,2.7,16.4c2.2,6.8,4.5,13.5,6.3,20.3c4.5,17.3,7.3,34.8,5,52.6c-1,7.6-3.2,15-4.9,22.4c-0.7,2.9-2.4,4.1-5.3,2.9
		c-2.8-9.6,0.3-19.1-0.8-28.7c-1.4,3.5-2.8,7-4.3,10.8c-1.9-1-3.5-1.9-4.9-2.6c0.7-2.8,1.9-5.2,1.7-7.4c-0.8-8-2-15.9-3.1-23.8
		c-1.2-8.3-3.3-16.6-3.3-24.9c0.2-20.9,4-41.2,11.2-61c2.1-5.9,3.3-12,5-18.1c-6.9,12-11.2,25-14.4,38.2c-2.9,11.9-5.2,24-5.5,36.3
		c-0.2,7.1-0.5,14.2-0.1,21.2c0.6,10.8,2,21.6,2.6,32.4c0.3,4.2-0.5,8.5-0.7,13c-2-0.1-3.8-0.2-6-0.4
		c-11.2-32.4-17.3-65.3-13.9-99.6c-0.8,2.5-1.6,4.9-1.9,7.5c-2.1,14.3-1.7,28.8-0.2,43.1c1.8,17.7,5.4,35.1,10.1,52.2
		c1.3,4.7,2.4,9.4,3.4,14.2c0.2,1,1.8,4.2-0.8,4.5c-2.6,0.4-7.8-10.9-11.5-15.9c-5.5,7.8-7.7,9.1-11.2,6.5c1.7-1.9,4-3.6,5.1-5.9
		c1.9-4,4.7-6.1,8.9-6c-1.8-9.1-3.1-17.9-5.4-26.5c-4.1-15.5-5.1-31.2-5.2-47.1c-0.1-11.4,2-22.7,4-33.9c1.1-5.9,2.5-11.7,3.2-17.6
		c0.6-4.6,6.8-9.5,8.5-6.8c1.7,2.6,0.5,12-0.2,17.8c-1.5,11.1-2.1,22.3-2,33.5c0.2,22.4,4.5,44.1,10.6,65.3
		C27.1,390.4,27,386,26.6,381.6 M41.3,365.7c1.6,8.2,2.7,16.5,4,24.6c1.6-1.3,3.6-5.4,6.2-5.3c2.6,0.2,1.7,7.3,2.6,11.5
		C55,371.8,50.3,349,41.6,327C39.2,339.9,38.8,352.8,41.3,365.7 M29.2,247.8c-0.8-1.5-0.8,1.9-0.7,4.8c0.1,2.9,4.8,25,7,36.5
		c0.4-0.1,0.7-1.9,1.2-2.7C36.6,286.5,31.3,252,29.2,247.8z"/>
	<path d="M297.9,309.6c7-3.5,14.9-7.6,21.1-9c6.1-1.4,15.6-1.4,23.1,1.9c0.8,2.8,0.5,5.5-2.2,6.9c-7,3.9-11.4,10.2-15.8,16.4
		c-6.6,9.3-12.9,18.9-16.2,30c-2.5,8.2-4.4,16.6-6.2,25c-3.1,14.4-3.4,28.6,3.5,42.2c0.9,1.7,1.1,4,1.1,6c0,1.1-0.8,2.7-1.7,3.1
		c-0.9,0.4-2.7-0.1-3.4-0.9c-2.9-2.9-5.9-5.8-8.1-9.2c-3.6-5.7-6.8-11.6-9.8-17.6c-2.5-4.9-4.7-10-7.4-15.7
		c-16.1,10.7-33.5,11.3-52.2,7.5c0.8,7.3,1.2,13.6,2.3,19.8c2.2,12,8.7,21.7,16.6,30.7c1.6,1.8,3,3.8,3.9,6c0.4,0.9-0.2,2.8-1,3.4
		c-0.6,0.5-2.3,0.1-3.4-0.3c-1-0.4-1.7-1.4-2.7-2c-8.7-6.1-17.9-11.6-26.2-18.3c-11.8-9.6-21-21.4-23.8-36.9
		c-0.8-4.4-1.3-8.8-1.9-12.9c-3.2-1.9-6.3-3.4-9-5.4c-2.8-2.1-8.6-5.3-11.2-7.6c-5.9-5.4-14.8-11-20.3-23.5c-2.6-5.8-5.4-14-6-18.1
		c-0.6-4.2-0.2-4.9-0.7-8c-2.4,4.7-6.2,6.4-10.6,8.4c-4.5,2-14.9,1.3-16.9-6.7c-1-4.1-0.5-12.2,4.9-17.3c3.2-3,7-5.4,10.7-8.3
		c-0.4-0.7-0.9-1.5-1.3-2.3c-1.7-3.7-3.7-7.3-5-11.2c-1.4-4.5,0.7-10.4,3.6-12.1c3.5-2.1,10.5-1,13.9,2.3c4.2,4.2,8.2,8.5,11.9,12.4
		c5.6-5.6,11.2-11.9,17.4-17.4c11-9.8,23.6-16.3,38.9-15.9c3.7,0.1,7.5-0.1,11.2,0.1c3.2,0.1,5.8-0.8,7.6-3.5c0.9-1.4,2-2.7,3.1-4
		c2.8-3.2,5.2-7,8.6-9.5c8.9-6.5,18.9-11.2,29.4-15c4.8-1.8,8.6-0.7,12.3,2.9c-2.1,2.3-4,4.7-6.2,6.7c-9.5,9-15,19.8-15.4,33
		C275.3,276.9,290.2,289.9,297.9,309.6 M147.5,314.1c-3.5,6.3-0.8,13,0.7,19.3c2,8.7,6.6,16,12.5,22.9
		c14.2,16.6,32.2,26.2,53.1,31.4c10.6,2.7,21.3,3.9,32.1,3.8c9.4-0.1,18-3.3,26-7.6c3.8-2.1,6.7-5.8,10-8.7c1-1,2-2,3.2-3.1
		c3.1,2.9,1.4,5.7-0.1,7.2c-4.5,4.5-3.2,8.9-0.9,13.7c3.2,6.7,6.4,13.4,10.3,20c-1.5-12.9-0.5-25.6,3-37.9
		c3.6-12.5,5.8-25.4,12.6-37c6.5-11.2,13.7-21.7,23.1-31.6c-12.4-1.3-22.8,1.4-32.3,8.7c-0.7,3.8,3.2,8.8-2.9,12.3
		c-1.1-3.1-2.1-6-3-8.9c-4.1-13.2-11.6-24.1-21.9-33.2c-1.8-1.6-3.7-3.2-5.4-4.9c-7-6.8-15.9-10.2-24.7-13.8
		c-14.1-5.8-28.7-6.5-43.4-4.4c-9.1,1.3-17,5.6-24.5,11.3c-7.4,5.6-20.5,22.5-21.5,23.8c-0.6,0.8-1.8,1.7-2.6,1.6
		c-0.8,0-2.1-1.1-2.3-2c-1.5-8.4-8.7-12.3-13.8-17.7c-1.2-1.3-4.8-2.8-6.1-1.8c-3,2.2-0.3,7.9,1.4,11.2c1.9,3.4,4.1,6.7,6.2,10
		c2.4,3.8,1.4,5.9-3.1,6.3c-7.6,0.8-11.8,4.4-13.5,11.6c-0.5,2.3-0.5,4.5,1.5,6.1c2.1,1.7,4.7,3.8,7.6,2.5c6.5-3,10.3-6.1,14.3-12.2
		c0.8-1.3,3-3.9,4.1-5c0.5,0.3,1.7,0.6,2.2,0.8C149.3,308.9,148.1,313,147.5,314.1z M227,438.1c-2.2-6-4.7-11.2-6-16.7
		c-1.3-5.4-1.5-11-2.2-16.6c-7.7-2.9-15.5-5.9-24-9.2C199,414.6,212.2,426.6,227,438.1 M252.1,255.2c3.2-10.7,8.6-20,17.5-27.1
		c-12.4,5.8-26.2,9.2-33.6,23.2C241.6,252.6,246.6,253.8,252.1,255.2"/>
	<path d="M96.2,266.8c-2-0.8-5.9-4.5-6.2-8.2c-0.3-4,4.1-11.8,7.5-12.9c0.7-0.2,1.5-0.3,2.2-0.3c3.7,0.2,10,4.6,10.6,8.2
		c0.7,4.1,0.1,8.3-3.3,11.2c-1.4,1.2-3.2,2.2-4.4,2.5C101.3,267.5,98.1,267.6,96.2,266.8z M98.4,250.5c-4.4,1.7-0.7,14.2,4.8,11.5
		C108.8,259.4,102.8,248.8,98.4,250.5z"/>
	<path d="M108.4,217.3c0.4,0.8,0.6,1.7,0.6,2.6c0.1,4-2.4,6.5-5.5,8.4c-3.2,1.9-6.3,0.8-8.7-1.4c-2.7-2.5-5.6-5.1-4.7-9.5
		c0.1-0.5,0.4-1.1,0.7-1.5c2.4-3.1,4.9-7.3,8.7-6.9C103.3,209.6,108,216.5,108.4,217.3z M97.6,213c-1.6,0.6-2,3.6-1.7,4.7
		c0.9,3,2.2,8.6,6.7,6.4C107,222,99.1,212.4,97.6,213z"/>
	<path d="M139.1,206.8c-0.1,3.4-4,7-7.6,6.9c-4.5-0.1-8.5-4.6-8.4-9.4c0.1-3.8,4.2-7.5,8.4-7.4C135.9,196.9,139.3,201.4,139.1,206.8
		 M133.5,208.8c3-1.3-0.8-9.1-3.4-7.6C127.5,202.7,130.5,210.1,133.5,208.8z"/>
	<path d="M175.9,289.4c-5-1.4-10.6,7.6-7.6,13.7c1,2,2.4,2.6,4.5,1.5C177.8,302.1,180.9,290.8,175.9,289.4z"/>
	<path d="M741.9,471.5c-5-1-29.5-11.1-43.9-20.4c-10-6.5-18.6-14.6-26.2-23.6c-6-7.2-12.8-14-16.8-22.5c-5.4,4.1-10.5,8.5-16.2,12
		c-13.1,7.9-26.5,15.3-39.9,22.8c-2.2,1.2-3,2.6-2.4,5c1.3,4.5,2.4,9,3.9,13.4c1.5,4.4,3.1,8.8,5,13.1c4.4,10.1,8.4,20.5,13.6,30.1
		c8.2,15,18,28.9,29.7,41.4c0.7,0.7,1.3,2.3,1.3,2.8c-0.1,4.9-2.3,7.4-7.2,8.4c-5.6,1.1-11.1,1.1-16.7,0c-7.7-1.6-15.4-3.2-23-5
		c-7.1-1.6-14.4-2.7-21.2-5.2c-9.6-3.5-19.1-7.7-28.2-12.4c-17.2-8.8-30.6-22.7-44.8-35.4c-7.2-6.5-13-14.4-19.3-21.9
		c-2.2-2.5-10.2-12.8-10.8-16.3c-2.6,0-5.1,0.2-7.5,0c-8.7-0.6-34.2-4.9-38.3-5.9c-10.8-2.5-21.7-4.5-32.1-8.4
		c-6.7-2.5-13-5.6-18.5-10.2c-3.9-3.2-7.9-6.3-11.8-9.5c-0.9-0.8-1.9-1.9-2.2-3c-1.5-7.1-0.9-8.8,4.7-14c1.1-1,2.3-1.9,3.4-2.9
		c1.5-1.3,2.3-2.6,1.7-4.9c-1.2-4.5-2-9.1-2.8-13.7c-0.8-4.8-1.7-9.6-2.2-14.4c-0.3-3.3,1-5.9,5.1-6.4c6.9,6.3,13.9,12.7,21.3,19.5
		c4.2-4.5,8.3-9,12.6-13.6c-0.7-2.8-1.7-6.1-2.2-9.4c-0.7-4.7-2.2-9.4-1-14.4c0.9-3.7,2-4.3,5.4-2.4c1.6,0.9,3.2,1.9,4.7,3
		c4.1,3.1,8.2,6.2,12.4,9.3c5.7-4.3,30.8-30.7,33.2-35c-4.4-4.2-8.7-8.4-13.2-12.6c-4.6,5.4-8.8,10.9-16.5,13.7c0-3,0-5.2,0-7.3
		c0.1-6.2,0.3-12.4,0.2-18.6c0-1.6-0.4-3.5-1.3-4.6c-2.6-3.1-8.9-8-8.9-8c-4.7,3.4-6.8,5.6-9.5,9.1c-1.3,1.6-2.4,3.5-3.9,4.7
		c-2.9,2.3-5.4,5.6-10.5,5.2c1.8-12.2,3.1-22.4,4.9-34.3c-2.3-2-8.1-6.5-9.7-7.9c-2.5,0.2-12.2,12.6-20.2,16.8
		c-0.3-2.3-0.8-4-0.8-5.7c0-6.4,0.3-12.7,0.3-19.1c0.1-12.3,0-12.3-9.5-20c-3.9-3.1-4.1-6.3-0.4-9.8c1.8-1.6,3.7-3.1,5.7-4.5
		c7.7-5.6,15-12,23.4-16.4c13.9-7.3,28.4-13.6,42.8-19.8c6.3-2.7,13-4.9,19.7-6.4c20.6-4.4,41.5-5.3,62.5-4.4
		c4.8,0.2,9.6,0.5,14.4,0.8c0.7-3,1.2-5.5,1.9-8c5.5-19,14.6-36.1,28.4-50.4c4.8-4.9,10.4-9.1,15.8-13.4c2.7-2.2,8-1.5,10.1,1.3
		c0.6,0.7,0.6,2.5,0.1,3.4c-6.4,11.1-6.3,23.2-5.9,35.4c0.2,5.2,0.7,10.5,1.6,15.6c1.6,8.4,3.3,16.9,5.6,25.1
		c1.2,4.5,4.1,8.1,8.9,10.1c14.2,6,27.5,13.6,40,22.5c4.9,3.5,9.4,7.3,13.3,11.9c3.8,4.5,8.1,8.8,12,13c2.7-4.7,5.1-9.2,7.8-13.4
		c7.8-12.6,16.3-24.5,27.7-34.3c8.9-7.6,18.6-13.8,29.8-17.2c6.4-2,13-3.2,19.5-4.6c1.6-0.3,3.3,0,4.8,0c1.4,7.6,1.4,7.7,0.1,10.1
		c-1.2,2.3-2.4,4.6-3.8,6.8c-8.6,13.1-14.9,27.2-20,41.9c-4,11.6-8.5,23.4-10.6,35.4c-3.2,18.9-7.5,37.8-6.8,57.2
		c0.5,12.5-0.1,25.2,1.5,37.5c1.7,12.9,5.1,25.6,8.4,38.3c4.1,15.2,9,30.1,15.6,44.4c4.6,10.1,12.1,18.5,15.6,30
		c-1,0.4-3.2,1.7-3.5,1.4C752.1,472.6,746.9,472.5,741.9,471.5z M746.9,177.7c-14.3,2.5-19.1,4.2-30.6,12
		c-8.3,5.6-17.7,16.3-23.7,23.9c-2.1,2.6-4,5.4-6.3,7.8c-6,6.2-10.2,13.3-13.1,21.4c-0.7,1.8-0.5,3.1,0.6,4.6
		c2.3,3.4,4.6,6.9,6.7,10.4c1.6,2.5,3.5,4.7,0.8,5.7c-2.6,1-4.2-0.9-4.7-2c-3.8-7.6-9.4-13.9-15.4-19.8c-4.1-4.1-7.8-8.6-12.1-12.5
		c-4.9-4.5-9.8-9.2-15.4-12.6c-10.7-6.7-21.9-12.7-33-18.8c-3.9-2.1-8.1-3.8-12.2-5.2c-11.1-3.8-22.1-7.8-33.4-10.9
		c-6.9-1.9-14.3-2.7-21.5-3.1c-12.5-0.7-25-1.2-37.5-0.8c-12.8,0.4-25.8,0.6-38.3,4.1c-8.4,2.4-16.6,5.5-24.7,8.8
		c-9,3.6-17.8,7.8-26.7,11.7c-9,3.9-17.3,8.7-24.9,15c-3.4,2.9-7,5.6-11.7,9.5c1.6,0.9,18.7,16.1,21.8,18.8
		c9.4,8.3,18.9,16.5,28.4,24.7c3.7,3.2,7.4,6.3,11,9.6c13.7,13,27.3,26.1,40.8,39.3c3.9,3.8,3.7,4.2-0.1,7.9
		c-4.3,4.2-8.2,8.8-12.4,12.9c-15.8,15.4-31.6,30.8-47.7,45.9c-11,10.3-22.6,20.1-33.9,30.1c-3,2.6-2.9,3.2,0.2,6.1
		c10.2,9.5,22,16.1,35.6,19.3c10.9,2.6,21.7,5.9,32.6,8.2c7.3,1.5,14.8,1.9,22.2,2.2c14.7,0.6,29.4,0.8,44.1,1.2
		c14.5,0.4,28.7-1.9,42.8-4.9c8-1.7,36.6-10.9,42.6-13.9c12.2-6.1,24-13,35.7-20c5.5-3.2,10.5-7,15.7-10.8
		c2.2-1.6,14.6-15,18.4-18.2c3.6-3,5.3-8,10.3-10.3c0.8,3.7-0.6,6.1-2.6,8.2c-4,4.2-8,8.4-12,12.6c-0.9,0.9-1.7,1.8-2.9,3.1
		c10.8,11.9,21.2,23.9,32.2,35.4c4.1,4.3,9.1,7.8,14.2,11c8.5,5.4,17.3,10.4,26.2,15.2c4.2,2.3,8.8,3.7,13.3,5.6
		c0.3-0.3,0.6-0.7,1-1c-0.7-1.3-1.2-2.8-2.1-4c-6.7-8.9-11.7-18.6-15-29.3c-3.5-11-7.5-21.9-10.8-33c-2.5-8.2-4.5-16.5-6.2-24.9
		c-1.5-7.1-2.8-14.3-3.3-21.6c-0.7-12.1-0.9-24.3-0.8-36.5c0.1-6.3,1-12.6,1.8-18.9c1.5-10.7,2.8-21.5,4.8-32.1
		c3.4-17.5,9.1-34.4,16.5-50.6c5.3-11.7,11.8-22.9,17.8-34.3c0.3-0.6,0.6-1.3,1.1-2.5C749.3,177.5,747.9,177.3,746.9,177.7
		 M515.3,493.2c6.1,5.8,12.6,11.1,19,16.7c12.6,11.2,27.1,19.1,42.8,25.2c12.8,5,26.2,7.5,39.5,10.3c6.2,1.3,12.4,2.6,18.6,4.1
		c3.2,0.8,6.2,0.3,9.6-1.5c-12-14-23.3-28.3-31.4-44.5c-8-15.9-14.4-32.7-21.7-49.4c-5.1,5-11.7,6.1-17.9,7.8
		c-15.8,4.6-31.8,8.1-48.4,8.6c-10.2,0.3-20.1,0.2-30.1-1.5c-0.3,0-0.6,0.3-1.1,0.5C500,478.4,507.6,485.9,515.3,493.2 M582.3,107.4
		c-13.7,6.8-33.6,34.1-39.5,58.4c6.9,1.1,14.1,1.6,20.8,3.6c6.7,2,13.1,5.4,20.1,8.3C579.1,153.9,573.6,130.7,582.3,107.4
		 M391.6,259.6c-3.5-3.1-6.8-6-10.3-9.2c-2,6.3-2.9,23.2-2.5,23.4C382.3,270.2,387.9,263.5,391.6,259.6 M379,372.9
		c1.3,7,2.5,13,3.8,20c3.2-3.1,5.8-5.7,8.7-8.5C387.2,380.5,383.5,377.1,379,372.9 M417.4,284c-2.6-2.5-4.8-4.7-7.4-7.2
		c-0.9,6.5-4,15.9-4.9,22.4C405.3,299.3,414.3,288.1,417.4,284 M423.9,357.6c-3.2-2.2-6-4.1-9.8-6.7c0.9,5.2,1.6,9.2,2.6,14.5
		C419.5,362.3,421.5,360.2,423.9,357.6 M445.6,309.3c-1.5-1.7-2.8-3-6.4-5.7v11.6C442.8,313.2,444.2,311.3,445.6,309.3"/>
	<path d="M442.4,240.5c-5.9,0.1-8.4,9.2-8.2,16.1c0.1,3.4,3.2,9.9,7.3,9.9c4.1,0,7.7-9.8,7.2-15.2
		C448.1,245.1,448.8,240.5,442.4,240.5z"/>
	<path d="M865.2,276.7c-4.7,1.8-5.5,2-7.1-1.2c-2.5-4.9-4.9-10-6.5-15.3c-2.6-8.6-4.4-17.4-6.8-26.1c-0.8-2.9-2.5-5.6-3.4-8.4
		c-3.3-10.3-6.8-20.5-9.3-30.9c-1.2-5.1-0.5-10.6-0.6-16c0-1.8,0-3.5,0-5.5c-3.7,2.3-2,8.5-7.9,9.5c0.8-3.8,1.6-7.2,2.4-11h-4.2
		c0.8-5.2,1.6-10.1,2.4-15.7c-1.6-0.6-3.5-1.7-5.5-2c-13.1-2.3-23.6-9.7-33.2-18.2c-4.6-4.1-8.2-9.5-11.8-14.7
		c-4.7-6.8-8.9-13.8-13.7-21.3c-17.5,0.7-25.7-12.3-33.9-26.7c-2.6,12.4-4.3,23.9-3.5,35.7c-3.3,1.5-4.2,1.4-5.7-1.8
		c-2.1-4.6-4.1-9.2-5.5-14c-3.4-12-5.9-24.2-5.1-36.7c0.6-8.9,3.6-17.2,9.3-24.3c-2.6-5.8,1.6-9.1,4.6-12.7c2.4-2.8,5.5-5.1,8.4-7.6
		c4.2-3.6,9.3-4.5,14.6-4.5c2.5,0,5,0.4,7.5,0.3c1.4,0,3-0.2,4.1-0.9c8.5-5,17.3-5.2,26.6-2.9c1.4,0.4,3.2,0.4,4.5-0.2
		c8.5-3.8,17.4-4.1,26.4-3.2c3.4,0.3,6.8,1.1,9.9,2.4c2.6,1.1,4.8,0.9,7.2,0c9.6-3.9,19-3.1,28.3,1.1c3,1.4,5.8,3.3,9.1,5.2
		c3.1-0.7,6.7-2.1,10.4-2.4c15.4-1.1,27.5,5.2,37.1,17.1c5.6,7,8.9,15.1,11.5,23.6c0.9,3.1,1.9,5.7,5.4,6.6c1.3,0.3,2.6,1.4,3.5,2.4
		c5.6,6.8,11.1,13.7,14.2,22.1c0.8,2.1,1.7,3.6,4.2,4.3c1.7,0.4,3.3,2.2,4.3,3.8c6.3,10.2,13.3,20,16.9,31.7
		c1.1,3.4,3.3,6.7,5.7,9.3c6.7,7.5,11.5,16.1,16.1,24.8c3.3,6.3,8.7,10.4,14,14.7c6.8,5.5,13.8,11,20.4,16.8
		c4.5,3.9,8.2,8.6,12.8,12.4c5.2,4.4,10.9,8.1,17.9,9.4c8.1,1.5,16.2,3.3,24.3,5.1c6.9,1.6,13.8,2.5,20.9,2.3c3.4-0.1,6.8,0,10.4,0
		c0.4,1.4,0.7,2.5,1.1,4.2c-6,0.6-11.5,2.5-17.4,2c-5.7-0.5-11.5-0.5-17.2-1.2c-5.8-0.8-11.5-2.2-17.9-3.5c4.2,2.3,8.1,4.1,11.5,6.6
		c3.2,2.4,8.3,2,9.9,6.7c-1.1,2.4-2.6,2.7-4.9,1.9c-10.6-3.9-19.9-9.6-29-16.3c-15.4-11.2-28.7-24.5-42.1-37.9
		c2.9,6.4,7.3,11.8,11.1,17.6c3.9,6,8,11.9,12.4,17.6c4.3,5.6,9,10.8,13.6,16.2c-2.9,2.7-5.2,2-7.2,0c-4.7-4.7-9.6-9.3-13.7-14.5
		c-10.1-13-18.1-27.3-26-41.6c-3.5-6.4-8.4-12-13.2-17.7c2.4,9.8,7.4,18.5,11.5,27.5c4.1,9.1,8.6,18.1,13,27.2
		c-2.9,2.2-3.8,2.4-5.7-0.1c-2.1-2.7-4-5.6-5.5-8.6c-8.6-17-16.9-34.2-23.4-52.2c-1.8-5.1-3.3-10.3-4.9-15.4
		c-0.3-0.9-0.6-1.7-0.9-2.5c-4.8-10.3-9.6-20.5-14.4-30.8c-0.2-0.4-0.6-0.7-1.5-1.9c1,3.9,1.5,6.9,2.5,9.7
		c4.2,11.5,14.8,40.8,15.8,44c0.6,1.8,1.5,3.6,2.2,5.4c-3.5,2.4-3.9,2.6-5.6-0.5c-2.3-4-4.5-8.2-6.1-12.6
		c-3.1-8.6-5.8-17.4-8.7-26.1c-4.3-12.8-8.4-25.6-13.1-38.3c-2.1-5.6-6.1-10.3-9.9-15c5,16.1,14.4,30.5,16.6,47.9
		c-1.2,3.5-2.4,4.3-6.2,3.3c-0.8-1.8-1.7-3.7-2.5-5.7c-5.8-14.7-11.3-29.5-17.3-44.2c-3.8-9.3-7.6-18.7-12.4-27.5
		c-6.4-11.6-15.5-20.3-29.4-22.2c-3.3-0.4-6.8,0.3-10.1,0c-3.7-0.3-5.6,2.7-8.5,4c1.2,1.8,2.7,3.5,3.6,5.4c1.9,4.3,0.5,8.3-4.4,12.4
		c-5.5,4.5-8.7,10.3-11.7,17.6c2-0.8,3.2-1.3,4.5-1.8c1.8-0.8,3.6-1.8,5.5-2.3c3.8-1,6.8,1,7.6,4.8c0.5,2.3,0.7,4.6,1.1,6.9
		c0.8,4.4-0.7,7.7-4.3,9.5c-2.6,1.3-7.2-0.2-9.4-3.2c-1.9-2.6-3.5-5.3-5.8-8.9c-2.5,7.7-3.9,14.6-3.9,21.7c0,3.8,1.1,4.7,4.7,5.3
		c10.5,1.6,20.9,3.1,31.4,4.7c1.2,0.2,2.4,0.6,3.6,1c2.3,0.9,3.4,2.2,2.6,5c-2.3,8.2-5.4,16-10.5,22.9c-2.7,3.6-5.8,6.9-8.4,10.6
		c-4.5,6.6-10.5,10.2-18.5,10.2c-0.9,0-1.8,0.3-3.3,0.6c-3,10.2-6.7,20.6-8.9,31.2c-1.2,5.4-0.2,11.4,0.5,17.1
		c0.5,4.5,2,8.9,3.1,13.3l1.1-0.2c0-3.7,0.1-7.4,0-11.1c-0.2-5.8,2.2-10.9,4.5-15.9c1.2-2.5,3-1.9,4.6-0.3
		c-0.9,5.3-1.8,10.4-2.5,15.5c-1.8,13-1.1,25.9,1.6,38.6c2.2,10.5,5,21,7.3,31.5C860.1,266.6,861.4,272.1,865.2,276.7 M750,58.8
		c-0.2-11.7,3.1-22.1,9.3-31.7c3.2-4.9,7.5-6.8,13.2-6.5c6.2,0.3,10.1,4.3,13.8,8.6c1.7,2,0.8,5.7-1.1,7.7
		c-3.2,3.3-6.7,6.6-9.3,10.4c-6.9,10.3-9.3,22.1-10.1,34.2c-0.4,6.1,0.2,12.2,2.9,17.9c1.2,2.6,2.8,5,4.3,7.4
		c4.4,7.4,8.1,15.4,15.2,20.8c12.9,9.7,26.9,17.3,42.2,22.6c2.8,1,5.9,1.1,8.9,1.6c1.4-4,2.5-7.3,3.8-11c-1.8-0.4-3.3-0.9-4.9-1.1
		c-8.3-0.9-16.2-3.2-23.9-6.3c-7.2-2.9-14.2-6.1-19.1-12.6c-1.5-2-3.2-4.3-5.3-5.2c-4.7-1.9-6.5-6-8.9-9.7c-1.2-1.8-2.1-3.8-3.4-5.4
		c-2.7-3.4-2.8-3.9,0.7-6.1c1.1-0.6,2.2-1.1,3.4-1.6c4.6-1.9,9.2-3.7,14-5.7c-0.6-1.5-1.2-2.8-1.6-4.2c-2.7-7.9-4.5-16-4.4-24.3
		c0.1-7,0.8-14,1.9-20.9c1-6.6,3.5-12.9,8.2-17.9c1.2-1.2,2.9-2.6,4.4-2.7c4.1-0.2,8.3,0,12.4,0.4c6.8,0.6,9.9,5.2,8.7,12
		c-0.2,1.2-0.2,2.5-0.3,3.6c-11.9,8-17.7,16.7-20,30.1c-0.6,3.7-1.2,7.5-1.4,11.2c-0.2,3.9-0.1,7.8-0.1,12.2
		c11.8-0.3,23-0.6,34.5-0.9c-0.3-1.3-0.2-2.4-0.6-3c-5-7.4-6.7-15.8-8.6-24.3c-2.8-11.8-1.1-23,5.8-33c2.1-3,5-6.3,8.2-7.4
		c4.9-1.7,10.2-3.9,15.5-1.7c0.9-0.9,1.5-1.6,2.2-2.2c0.7-0.7,1.4-1.5,2.3-2.5c-14.8-6.9-27.1-5.4-39.5,6c-3.6-1.8-6.9-3.4-5.4-8.3
		c-11-2.5-21.1-3.6-29.7,5c-1,1-2.4,1.7-3.2,2.8c-1.6,2-3.1,1.9-5.2,0.9c-2.3-1.1-2.5-2.9-2-4.9c0.3-1.2,0.8-2.3,1.5-4
		c-3.2,0.3-5.8,0.3-8.4,0.9c-4.1,0.9-9.8,1.4-12.7,3.8c-2.8,2.3-4.5,5.8-5.7,8.2c-1.7,3.5-4.2,7.4-7.5,5.2c-3.3-2.2-0.6-9.3,1-13.7
		c-8.9-1.4-16.8,3.6-19,10.8c2.2,0,4.4,0,6.5,0c11.7-0.1,14.5,13.4,14.8,15.8c0.3,2.4-2.6,2.3-3.9,3.4c-6,4.8-10.9,10.5-14,17.5
		c-0.3,0.6-0.9,1.5-0.7,1.9c2.1,4.4,2.1,9.6,5.7,13.5c4.1,4.3,8.2,8.6,13.4,11.6c2.5,1.5,5.1,3,8.9,3.2c-1.2-3.3-2.2-6-3.1-8.4
		c-7.6-1.6-12-6.6-15.5-12.7c-1.3-2.2-2.7-4.4-4.1-6.8C738.9,59.6,744.8,61,750,58.8 M881.2,100.9c-2.1-3.3-4.7-4.6-7.9-4.9
		c-2.8-0.3-5.8-0.6-8.5-1.4c-11-3.3-22.3-3.7-33.6-3.8c-6.8-0.1-13.7,0.1-20.4,1.1c-6.7,1-13.2,3-19.8,4.7c-2.1,0.6-4.1,1.6-7,2.8
		c2.5,3.4,4.4,6.2,6.6,8.7c3.6,4,7.4,7.8,11.2,11.6c1.4,1.4,2.9,2.7,4.7,3.6c13.1,6.5,26.9,10.2,41.7,8.7c7.6-0.7,15.2-2.4,20.1-8.9
		C873.4,116.4,877.9,109,881.2,100.9 M862,25.7c-1.1-3.5-3.8-5.6-6.8-5.5c-5.1,0.2-10.3,1-14,5.6c-7.6,9.6-9.2,20.4-7.1,32
		c0.7,3.9,1.9,7.7,3,11.5c0.2,0.8,0.9,1.5,1.8,2.9C840.5,53.1,847.8,37.9,862,25.7 M714.7,80.8c3.2-18.9,8.7-36.1,25.8-46.9
		c-2.2-4.7-5.5-6.4-10-5.2c-6,1.7-10.3,5.7-13.2,11.1c-5.3,10.1-6.3,20.8-4.3,31.8C713.6,74.7,714.2,77.8,714.7,80.8 M781.4,30.9
		c-5.6-6.9-9.5-7.5-15.6-2.2c-1.6,1.4-2.9,3.2-4,5c-5.6,10.1-7.1,21-5.6,32.3c0.2,1.6,0.6,3.2,1,4.7c0.3,1.5,0.7,3,1.1,4.5
		c0.8-0.7,0.9-1.2,1-1.7c1.9-12.4,7.7-23.4,13.3-34.4C774.3,35.5,776.8,32,781.4,30.9 M820.5,24.1c-3-4-7.2-2.6-11-2.3
		c-3.5,0.2-6.4,1.7-8.2,5.1c-3.7,6.9-4.5,14.3-5.1,21.9c-0.2,2-0.3,3.9-0.3,5.9c-0.1,1.8,0,3.5,0,5.3C800,45,807.8,33,820.5,24.1
		 M752.8,78c-1.1-5.8-2-10.4-2.9-15.2c-2.8,0.6-4.8,1.1-7.1,1.7C744.1,70.3,747.4,74.2,752.8,78 M861.9,54.7
		c-3.3,1.1-5.9,2.5-4.8,5.4c1.1,2.8,2.2,6.1,5.6,7.8C865.4,63.2,862.4,59.2,861.9,54.7"/>
	<path d="M926.4,335.2c-1.5,1.9-3.7,2.9-5.8,0.9c-4.5-4.2-9.2-8.2-12.7-13.1c-8.8-12.3-16.8-25-22.1-39.4
		c-3.6-9.8-7.3-19.5-10.2-29.5c-1.7-5.9-0.2-14.3-0.1-17.1s4.9-5.7,4.7,0c-0.3,11.2,7.3,34.1,15.3,50.1
		c7.9,15.9,13.6,26.9,25.9,40.3C923.3,329.7,924.6,332.5,926.4,335.2"/>
	<path d="M929.2,285c2.2-2.8,5.8-1.6,6.6,3.2c1,6.4,4.4,11.2,6.9,17.1c6.6,15.4,29.6,33.3,33.4,35.9c3.9,2.6,7.9,5.1,12.1,7.2
		c4.9,2.4,8.6,6.3,12.6,9.7c1.6,1.3,1.1,3.8-1,4.1c-1.8,0.3-4.1,0-5.6-0.9c-6.3-3.8-12.5-7.7-18.5-12c-11-7.9-20.7-17.3-29.6-27.5
		c-8-9.1-13.6-19.4-16.2-31.3C929.5,288.8,929.4,287,929.2,285"/>
	<path d="M896.3,263.5c-0.3-3.7,6-5.1,5.4-0.7c-1.1,8.4,10.9,32.3,21.7,45.6c3.7,4.6,7.6,9.1,11.8,13.3c4.1,4.2,19.6,19,29.4,25.4
		c3.7,2.4-2.7,4.7-5.8,2.6c-6.4-4.2-13.3-8.2-18.6-13.6c-9.7-10-19.1-20.5-27.4-31.7c-7.5-10.1-13.5-21.3-15.7-34
		C896.7,268.4,896.6,266.2,896.3,263.5"/>
	<path d="M890.4,301.7c-4.8,2.1-6,1.9-8.1-2.1c-2.3-4.3-4.3-8.7-6.5-13.1c-8.2-16.4-15.3-33.4-19.5-51.3c-2.1-9.2-4.7-18.5-3.9-28.2
		c0.1-1.3,0.5-2.9,1.4-3.7c0.7-0.6,2.6-0.8,3.4-0.3c1,0.7,1.9,2.2,2,3.5c0.1,2.3-0.5,4.6-0.5,6.9c0,4.7,4.4,25,6,30.4
		c5.1,16.9,12.4,32.9,20.6,48.6C886.9,295.5,888.6,298.4,890.4,301.7"/>
	<path d="M884.1,67.7c-1.3-9.1-2.6-17.9-3.9-26.8c-0.4-3.2-0.9-6.4-0.9-9.6c0-7.3,7.5-11.5,14-7.9c5.6,3.1,8.7,8.9,7.5,15.3
		c-1.1,6.5-2.8,12.9-4.1,19.4c-1,4.7-5.3,6.5-8.3,9.4C887.8,68.3,885.9,67.7,884.1,67.7 M888,54.7l1.1-0.1c0.7-2.8,1.7-5.5,2-8.3
		c0.5-5.3,0.8-10.7,0.7-16c0-1.5-0.6-4-2.9-3.9c-2.7,0.1-1.8,2.6-2.2,4.2c-0.2,1-0.1,2.2,0,3.2C887.2,40.8,887.6,47.8,888,54.7"/>
	<path d="M964.9,310.2c-0.3-3,3-3.1,3.9-2.1c0.9,1,1.3,1.4,1.9,2.1c2.7,3.6,4.8,7.8,8.2,10.6c6.5,5.3,13.7,9.8,20.7,14.5
		c2.5,1.7,5.3,3.1,7.8,4.8c10.1,7.2,21.5,11.5,33,15.8c1.2,0.4,2.5,0.7,3.5,1.3c0.9,0.6,2.1,1.9,2,2.6c-0.1,1-1.4,2.2-2.4,2.5
		c-1.5,0.4-3.2,0.2-4.8-0.1c-8.1-1.6-15.4-5.1-22.3-9.3c-10.3-6.3-20.7-12.5-30.7-19.2C976.9,327.9,968.6,321.2,964.9,310.2"/>
	<path d="M1026,334.7c3.1,3.8,6.8,6.2,11.5,7.3c4.8,1.2,9.6,2.8,14.3,4.6c5.2,1.9,10.6,1.8,16,2.1c6.5,0.3,12.9,0.6,19.4,1.1
		c3.2,0.2,7.5,3.6,7.3,5.6c-0.2,2-2.5,1.4-3.5,1.2c-8-2.1-16.1-1.3-24.2-1.4c-8.8-0.1-16.9-2.9-25.1-5.7c-2.2-0.8-4.4-1.6-6.6-2.4
		c-6.6-2.2-10.8-7-13.9-12.9c-0.5-1-0.6-2.2-0.4-3.6c0.1-1.4,1-0.2,1.5-0.3C1023.5,331.9,1024.9,333.4,1026,334.7z"/>
	<path d="M886.4,72.6c2.6-1,5-2,7.5-2.9c6.3-2.2,10.8,1.4,10.1,8c-0.2,1.6-0.5,3.2-1.1,4.7c-0.5,1.1-1.3,2.3-2.2,2.9
		c-2.6,1.6-10.8,0.9-12.8-0.9C885.5,82.2,884.9,76.7,886.4,72.6 M894.2,75c-3.2,1.3-3.2,1.3-3.2,2.5c0.1,2-0.2,4.2,3.2,4.9V75z"/>
	<path d="M770.2,62.7c3.6-3.5,8.3-3.8,12.9-4.1c0.9-0.1,2.5,1.5,2.7,2.6c0.8,3.5,1.2,7.1,1.6,10.6c0.5,4.6-0.6,6.5-3.7,7.2
		c-4.6,1.1-7.5,0-9.3-3.9c-0.9-2-1.7-4-2.4-6C771.3,67,770.8,65,770.2,62.7 M779.5,62.3c-1.4,1.2-3.7,1.3-3.6,1.8
		c0.2,3.7,2.4,7.7,5.3,11.2C782.5,70.5,780.2,67.1,779.5,62.3"/>
	<path d="M808.3,58.6c3.4-1.5,6.5-3.3,9.8-4.4c3.1-1,4.2,0,4.9,3.1c0.6,2.6,1.2,5.2,1.8,7.8c0.9,4.3-1,8.1-4.5,9.1
		c-4.3,1.2-9-1.1-10.3-5.3c-0.5-1.5-0.6-3.1-0.9-4.7C808.9,62.7,808.6,61.1,808.3,58.6 M818,70.5c3.1-4,0.1-7.2-0.9-10.8
		C813.6,62.7,814,67,818,70.5"/>
	<path class="st3" d="M29.2,247.8c-0.8-1.5-0.8,1.9-0.7,4.8c0.1,2.9,4.8,25,7,36.5c0.4-0.1,0.7-1.9,1.2-2.7
		C36.6,286.5,31.3,252,29.2,247.8z"/>
</g>
</svg>
