<?xml version="1.0" encoding="utf-8"?>
<!-- Generator: Adobe Illustrator 19.1.0, SVG Export Plug-In . SVG Version: 6.00 Build 0)  -->
<svg version="1.1" id="Calque_1" xmlns="http://www.w3.org/2000/svg" xmlns:xlink="http://www.w3.org/1999/xlink" x="0px" y="0px"
	 viewBox="0 0 809.8 511.2" style="enable-background:new 0 0 809.8 511.2;" xml:space="preserve">
<style type="text/css">
	.st0{display:none;fill:#F7B5AC;}
	.st1{fill:#F7B5AC;}
	.st2{fill:#EB5C5F;}
	.st3{fill:#84B974;}
	.st4{fill:#010202;}
	.st5{fill:#AB7613;}
	.st6{fill:#C0BFBF;}
	.st7{fill:#6FA4C3;}
	.st8{fill:#1E1E1C;}
	.st9{fill:none;}
	.st10{fill:none;stroke:#EB5C5F;stroke-width:3;stroke-miterlimit:10;}
	.st11{fill:none;stroke:#6FA4C3;stroke-width:3;stroke-miterlimit:10;}
	.st12{fill:none;stroke:#84B974;stroke-width:3;stroke-miterlimit:10;}
	.st13{fill:none;stroke:#C0BFBF;stroke-width:3;stroke-miterlimit:10;}
	.st14{fill:none;stroke:#F7B5AC;stroke-width:3;stroke-miterlimit:10;}
</style>
<g>
	<polygon id="Jarret_3_" class="st1 bis2" points="506.7,424.9 548.1,424.9 546.4,448.5 536,445.6 509.4,446.3 	"/>
	<path id="jambon_3_" class="bis1 st1" d="M477.1,266.4c-7.7-0.4-20.4-4-35.1,8.8s-25.3,29.8-27.3,38.5c-2,8.7-4.2,37.7-2.3,41
		c1.9,3.3,8.5,15.7,9.6,18.7c2.7,7.5,15.7,20,23,25.7c7.3,5.7,40.7,18,45.3,20.3c4.7,2.3,21,5.7,21,5.7h36.7l23.3-62.3l-40.6-12.3
		l-26.3-26.6l-23.5-35.7L477.1,266.4z"/>
	<path id="Travers_1_" class="st1" d="M258.7,318.8c5.3-0.8,42.9,0,58,2s16.6,5.4,37.6,11.4s52.8,12.7,58.1,19.3
		c5.3,6.7,10.6,21.8,11,24.4c0.5,2.6,12.2,10.6,20.2,18.6c8,8,3,4.7,1.3,4.3c-1.7-0.3-17.1-0.8-21.6-0.9c-4.4-0.1-45.8-2.8-59.1-6.1
		c-13.3-3.3-41.6-12.1-51.7-17.7c-10-5.6-31.8-19.6-37.6-28.6C269.4,336.6,258.7,318.8,258.7,318.8z"/>
	<path id="Poitrine_1_" class="st1" d="M194,330.8c9.1-1.8,47.1-8.6,56.1-10.1c9-1.5,15,2.6,20,13.9s11.3,17.2,13.7,20
		s17.7,9.3,26,15.3c8.3,6,28.7,14.6,47,18.3s57,11.2,66.8,9.8c9.8-1.4,16.7-1.6,23.4,1.6c6.8,3.2,39.2,16.9,45.5,19.9
		c6.3,3,0,6.7,0,6.7h-104l-167.3,3l-40.1,2.3c0,0-6.8-16.5-7.6-20.4s-1.8-14.4,0-26.9c1.8-12.5,7.5-36.3,9.1-41.8
		C184.1,336.9,188.7,331.9,194,330.8z"/>
	<path id="Jarret_2_" class="st1 bis2" d="M121.1,409.3c0,0,27.7-2.8,32.7-2.2c5,0.6,16.3-0.7,19.6,4.1s7.6,16.8,7.6,16.8l-17.6,2.3
		l-34.3,7L121.1,409.3z"/>
	<path id="jambon_2_" class="bis1 st1" d="M114.7,267.1c9.3-2.2,36.3-3.1,42.7,0c6.3,3.1,24,7,28.3,28c8,38.8,10.8,33.4,5.8,39
		c-13.8,15.6-14.2,40.5-15.8,48.7c-1.6,8.1-3.3,27.2-2.3,28.4s-10.6-4.7-18-4.1c-7.3,0.6-27,1.2-32,1.9c-5,0.7-10-13.2-10-13.2
		s-13.3-46.9-9.7-75S114.7,267.1,114.7,267.1z"/>
	<path id="Filet_à_rôtir_1_" class="st1" d="M240.1,211.1c0.6-3.5-1-11.5,19.3-14.2c20.3-2.7,62.5-9.8,74.2-11.1
		c37.1-4.2,59.4-1.1,67.8-0.7c8.3,0.4,3.5,3.1,3.5,3.1s-19-2.4-29.6,7.1c-10.6,9.5-34.4,45.1-34.4,45.1s-12.5,31.4-14.7,41.4
		c-2.2,10-5.6,19.5-4.9,36.9c0.7,17.4,0,1.9,0,1.9l-3.5,2.9l-27.1-2.9c0,0-23.3-1.9-32,0c-8.7,1.9-36.3,5-47.3,7.8s-14.7,8-16,5.4
		c-1.3-2.6-9-20.2-9.3-29.1c-0.3-8.9,8.3-12.9,10.3-14.2c2-1.3,18-23.6,22.8-30.6C224.1,252.9,237.1,230.3,240.1,211.1z"/>
	<path id="côte_de_porc_1_" class="st2" d="M401.4,185.2l24.4,1c0,0,14.7,0.1,21.1,2.1c6.4,2,10.4,7.1,10.4,7.1l-17.6,17.5
		c0,0-7.3,8-5.9,15.3c1.4,7.3,4.1,12.3,4.1,12.3l16.3-2.6l18.3-13.7l11.5-6.1l-3.8,26.5l-1.7,21.8c0,0-12.4,0.4-16,0
		c-3.6-0.4-15.5,3.9-22.9,10.6c-7.4,6.7-20.8,24.9-22.9,33.8s-2.8,20-2.8,20s-1,21.2,0,23.5s-11.7-8.6-11.7-8.6s-34.7-10-42.7-11.5
		c-8-1.5-36.7-8.5-37.7-11.7s-1.5-24.5,2.4-34.9c3.9-10.3,10.8-40.2,20.7-54.4c9.9-14.2,20.2-27.4,26.2-34.2
		S391.4,185.4,401.4,185.2z"/>
	<path id="Lard_1_" class="st1" d="M151.7,219.5l30.8-20.5l60.7-21.4l45.9-9.1l50.7-5.2l34.9-2l50.3,4.1l48.7,8.9l6.7,5.5
		l-21.3,14.2l-12.1-5.6c0,0-12.7-1.6-26.1-2.5c-13.4-0.9-22.9-0.7-22.9-0.7s-14.2-1.4-33.2,0c-19,1.4-41.7,3.1-41.7,3.1l-36.7,4.1
		l-30,6.7l-38.7,6.7l-11.8,3.6l-44.1,12.7L151.7,219.5z"/>
	<g>
		<path d="M193.1,470.3c-2.4,2.6-5.5,6-9,9.8c-2.4,0.1-5.8,0.1-11,0.3c-1.3-2.8-3.4-7.3-5.6-12.2c-2.5,5.2-1.3,11.5-7.8,14.9
			c-1.9-1.4-4.5-2.8-6.2-4.9c-9.8-12.4-20.5-24.2-27.1-38.8c-4.9-10.7-10.4-21.1-12.9-32.7c-2.5-11.8-6.5-23.2-8.6-35.1
			c-2.1-11.6-3-23.3-3.8-35.1c-0.6-9.3-1.1-18.7-0.2-27.9c1.6-17.7,4.8-35.1,12.4-51.3c2.2-4.6,4.2-9.3,5.9-14.1
			c3.6-10.4-0.1-22.1-8-27.8c-3.8,7.1-7.4,14.5-11.7,21.4c-2.1,3.3-5.5,5.9-8.7,8.2c-3.4,2.5-7.5,3.2-11.3,0.7
			c-3.7-2.5-5.1-6.1-4.5-10.5c1.7-11.3,8.2-19,18.2-23.9c2.9-1.4,6-2.2,9-3.3c2.4-10.6,1-13-9.9-16.4c-4.1,7.4-9.1,14.2-16.9,18.4
			c-1.6,0.9-3.2,2.1-4.9,2.6c-5.6,1.6-11,0-13-3.5c-2.2-4-0.9-10.1,3-14c5.3-5.4,12.4-7.4,19.4-9.3c2-0.6,4.2-0.7,7.1-1.1
			c0.6-2.4,1.3-4.9,1.9-7.5c1.8-7.5,1-9.3-5.6-13c-1.9-1-4-1.8-5.4-3.4c-2.2-2.5-2.9-5.2,1.5-7c3.9,2.5,8.2,4.9,11.8,7.9
			c5.8,4.8,7,11.3,4.4,18.3c-1.4,3.6-0.6,5.4,2.9,6.8c9.2,3.6,13.5,10.3,11.6,20.8c11.6,5.1,16.7,14.5,16.7,26.8
			c8.5-7.1,16.7-14.1,25-20.9c15.4-12.6,33.5-20.1,51.6-27.4c21.9-8.8,44.7-14.6,67.7-19.8c8.1-1.8,16.4-2.5,24.6-3.5
			c18-2.1,36.1-4.5,54.1-6.1c9.5-0.8,19.2,0.5,28.8-0.2c13.7-1,27.1,1.5,40.6,2.4c19.7,1.4,39.3,4,58,11c2.5,0.9,4.7,2.5,7,3.9
			c14.6-8.2,30.2-12.9,46.1-16.6c5.8-1.3,11.8-1,16.4,2.1c3.7,2.5,6.5,1.9,10.2,1.5c12.8-1.3,25.6-2.1,38.4-3
			c7.2-0.5,14.4-1.2,21.6-1.4c5.6-0.2,11.1,0.2,16.7,0.3c23.4,0.3,46.8,0.8,69.7,5.6c11.5,2.4,22.6,6.9,32.6,13.4
			c11.8,7.6,16.4,19.5,17.8,32.7c0.6,5.9-5.5,12.6-12.1,14.4c-12.5,3.6-23.2-0.4-33.1-7.8c-3.5-2.6-7-5.3-10.5-8
			c-0.4,0.4-0.8,0.7-1.2,1.1c2.6,5.4,5.2,10.7,7.6,16.2c9.3,21.1,11,36.4,8.1,59.2c-3.9,30.3-25.6,52.1-36.5,61.1
			c-12.9,10.6-26.9,17.7-43,20.2c-11.3,1.8-39.5,4.9-55.2,1.8c-2.7-0.5-4,5.1-5.5,8.3c-11.7,24.4-18.4,50.3-22.5,76.9
			c-1.8,11.6-0.3,35.2-4.7,35.5c-4.5,0.3-9.2,0.2-12.4-3.6c-3-3.6-5.2-8-8.1-12.7c-2.6,4.7-2.7,11.7-7.2,12.8
			c-4.5,1.1-7.5-8.3-9.2-18.5c-2.6-0.9-5.6-1.9-8.8-3c-1.5,1.7-3.5,10.2-9.2,10.4c-5.7,0.2-12.2-27.9-17.4-41.7
			c-85.1-2.7-170.1-3.6-255.3,0.9c-3,12-5.9,23.4-8.8,34.8c-0.8,3.1-1.2,7.4-4.7,7.7C200.8,474.7,197.8,472.3,193.1,470.3
			 M483.5,411.6c5.5,2.1,11.3,3.5,16.3,6.4c4.5,2.6,9,2.7,13.9,2.7c14.1,0,29.8,1,31.8,1c7-18.4,13.2-38.3,19.6-55.3
			c-10.2-3.6-18.4-5.6-29-9.4c-1.7-0.6-3.1-1.7-4.7-2.5c-18-9.2-55-46.6-56.9-83.8c-6.1,0.8-15.3-0.5-15.9-6.6
			c-0.6-6.1,9.5-1.8,14.3-2.7c0.4-12.6-1.8-20.8,4.6-34.2c-9.2,9.3-18.9,16.6-32.7,16.9c-8.6,0.2-10.8-0.1-14.2-8.1
			c-4.9-11.6-0.3-20.9,7.3-29.3c3.4-3.8,9.4-8.3,12.5-11.3c-1.6-3.2-6.9-2.8-6.5-7.3c0.5-4.5,8.2-2.3,12.1-1.4c1.9,0.4,4.4,1,6,0.3
			c3.7-1.8,7-4.5,11.5-7.5c-2.9-1.4-4.4-2.5-6.1-2.9c-10.4-2.2-20.8-4.8-31.4-6c-16.4-1.9-32.9-3.3-49.5-4
			c-19.8-0.8-39.6-0.7-59.3,1.8c-25.5,3.2-51,5.6-76,12.4c-28.1,7.7-55.2,17.5-80.7,31.4c-2.7,1.5-5.1,3.4-8.7,6
			c6.4,0.2,10.5-4.3,16.1-1.3c-0.9,1.5-1.4,3-2.4,4c-7.4,7-16.7,9-26.3,10.4c-1.5,0.2-3.5-0.3-4.5,0.5
			c-10.4,7.7-16.9,18.5-23.5,30.1c4.2-0.6,7.5-1.7,10.5-1.3c3,0.4,6.5,1.8,4.6,6.4c-6.6,1.6-13.1,3.1-19.5,4.6
			c-16.5,47.7-7.3,104.8,5,132.2c13.7-0.3,15.8,0.7,14.6,4.7c-1.2,4-8.2,4.1-12.2,5.1c1.5,4.6,2.8,8.6,4.1,12.7
			c1.2,3.6,3.7,5.1,7.5,4c1.5-0.4,8.4-1.1,9.5,1.3c1.6,3.7-1.4,3.4-2.7,4.3c-2.1,1.5-4.6,2.2-7.3,3.4c6,12,14,22.1,24,32.2
			c1.6-8,0-20.3,4.3-21.3c4.3-1.1,7.5,12.1,12.5,18.5c0.3-12.4,4.6-23.3,0.3-34.7c-2.8,0.4-5.4,0.9-8.1,1.1
			c-2.6,0.1-5.3,0.2-7.7-0.4c-5-1.3-5.5-3-3.8-7.8c6.6-0.5,12.9-0.9,19.2-1.4c0.2-6.6-7.4-16.8-3.3-18.1c4.1-1.3,7.7,13.1,10.1,18.7
			c6.7,0.2,12.4-1.2,19-1.5c23-1,45.9-2.8,68.9-3.6c26.2-0.8,52.5-0.9,78.7-1c12.3-0.1,24.5,0.4,36.8,0.5c14.2,0.1,28.4,0,42.6,0.3
			c16.9,0.3,33.7,0.9,50.6,1.3c2,0.1,4-0.1,6.3-0.2C484.7,418.3,480.2,416.7,483.5,411.6 M484.4,252.6c-1,22.1,1.9,42.5,15.4,60.7
			c8.9,12,18.7,22.8,31.9,30c4.7,2.5,10.1,3.4,15,5.5c14.8,6.3,30.5,8.8,46.2,9.5c21.8,0.9,44.4-0.3,63.3-11.9
			c42-25.6,49.5-61.3,48.6-72.8c-0.5-6.4-1.6-12.8-2.5-19.1c-3.1-23.2-11.2-43.6-28.5-60.6c-19.1-18.8-41.4-28-67.7-28
			c-12.8,0-25.7,0.8-38.5,2.1c-20.7,2.1-39.4,8.3-55.1,23.4C494.9,208.4,484.6,228.2,484.4,252.6 M651.6,165.4
			c9.6,7,17.5,12.9,25.6,18.5c12.3,8.5,24.8,16.8,37.3,24.9c7.5,4.9,15.3,9,24.7,5.2c6.1-2.5,7.8-5.5,6.4-11.9
			c-2-8.9-7.2-15.9-15.3-19.6c-9.6-4.5-19.7-8.4-29.9-11c-10-2.5-20.6-3-30.9-4.3C664.2,166.4,658.8,166.1,651.6,165.4 M437.7,235.7
			c14.3,0.9,24.8-5.3,33.4-15.2c11.4-13.2,23.7-25.4,36.9-36.8c5.8-5,11.6-10.1,17.4-15.2c-3.2-0.2-6.3,0.4-9.2,1.4
			c-14.3,4.8-27.9,11.1-40.6,19.1c-11.7,7.4-23.5,14.9-32.6,25.7C437.8,220.8,434.6,227.1,437.7,235.7 M521.7,457.9
			c5-0.8,10.1,12.9,15.5,19.6c1-9.5,1.9-17.6,2.8-25.7c-10.4-2.6-10.8-3-9.5-10.7c3.7,0.6,7.5,1.2,11.5,1.9
			c0.8-4.4,1.4-8.1,2.2-12.6c-8.9-0.4-17.2-0.9-25.5-1.1c-3.1-0.1-6.1,0.4-9.2,0.7c1.6,10.3,1.6,10.3,10.9,12.1
			c0.3,0.1,0.5,0,0.8,0.1c3.1,0.6,3.7,2.6,3,6.3c-3.5,0.9-7.3,1.8-11.6,2.9c1.1,5.4,2.2,10.8,3.7,17.9
			C518.5,464.6,519.8,461.8,521.7,457.9 M191.1,452.7c5.1-2.1,4.7,8.7,8.8,11.4c2.7-10.4,5.4-20.4,8.2-31.2
			c-6.6,0.3-12.1,0.6-17,0.8c-1.1,9.2-2.1,17.8-3,26.5c0.2,0.1,0.5,0.1,0.7,0.2C189.6,457.8,190.4,455.2,191.1,452.7 M500.9,430.3
			c-6.7,0.5-13,0.9-20.5,1.4c3.8,8.7,7.2,16.5,11.3,25.8c1.4-5.4,0.6-14.2,3.8-15c3.2-0.9,5.3,7.4,7.4,10.4c0.5-0.2,1-0.3,1.6-0.5
			C503.3,445.2,502.1,438.1,500.9,430.3 M82.4,240.5c10.7-5.6,15.9-13.9,18.9-24.6C87.6,220.4,81.8,227.7,82.4,240.5 M63.7,205.7
			c7.1-2.1,13.9-4.6,17.9-13.3C73.5,195.2,66.7,197.7,63.7,205.7"/>
		<path d="M318.8,190.1c-3.4-4.1,3.3-6.7,7.1-7.1c8.5-1,16.9-1.7,25.4-2.5c4-0.3,7.9-0.4,11.9-0.7c3.8-0.2,7.2,0,9.2,4.2
			C374.4,188.3,328.7,192,318.8,190.1"/>
		<path d="M317.8,319.8c-0.3-4.6-3.5-11.8-0.9-14.1c2.5-2.3,3.8,0.5,4.5,1.3c3.8,4,4.2,14.6,0.7,18.7c-0.8,0.9-2.2,2.1-3.2,2
			c-8.1-0.4-16.2-1.1-24.2-1.5c-4.4-0.2-6.9-2.3-8.2-6.9c4.7-4.6,10.4-1.4,15.5-1.4C307.1,317.9,312.3,319.1,317.8,319.8"/>
		<path d="M187.3,319.4c-4.8,0.2-8-29.6-5.3-33.7c2.7-4.1,6,4,8.9,6c2-1.6,2.6-4.9,6.8-5.3c4.2-0.4,6.4,6.5,1.5,9.4
			c-6.3,3.8-11.4,6.2-7.2,15.4C193.6,314.6,192.2,319.2,187.3,319.4z"/>
		<path d="M295.9,189.2c2.5,1.8-2.8,4.7-4,5.1c-9.7,2.8-19.4,5.5-29.3,7.6c-2.9,0.6-7.7,1.9-8.8-2.8c-1-4.5,3.6-4.9,6.4-5.5
			c9.3-2.1,18.8-3.7,28.2-5.3C290.2,188.1,292.1,188.7,295.9,189.2"/>
		<path d="M379.6,337.9c0.4,4-4.7,4.4-7.7,3.8c-8.1-1.8-16.3-3.1-24.4-4.9c-6.1-1.3-9.2-5.9-7-9.6
			C342.7,323.6,367,330.8,379.6,337.9"/>
		<path d="M384.9,390.1c4.2,1.8-0.7,5.8-3.8,5.6c-8.7-0.5-17.5-0.9-26.2-2c-4.9-0.6-8.6-6.8-7-9.9s12.5,1.7,18.6,2.7
			C372.7,387.6,378.9,388.9,384.9,390.1z"/>
		<path d="M399.7,190.3c-3-0.2-5.1-1.8-5.2-5c-0.1-3.6,3.1-4.5,5.6-4.4c9,0.4,17.9,1.2,26.9,2.2c1.2,0.1,2.8,1.6,3.2,2.8
			c0.7,2.1-0.6,3.6-2.8,3.8c-5.2,0.5-15.6,1-15.7,0.9C407.4,190.9,399.7,190.3,399.7,190.3z"/>
		<path d="M424,378.6c-3.2-1.1-6.6-8.2-8.4-12.9c-2.1-5.4-5.4-9-10.2-11.6c-4.2-2.2-10.1-8.8-6.2-11.1s7.6,1.9,9.1,2.5
			c12.6,5,13.7,19.9,16.1,24.4C425.5,372.2,427.1,379.7,424,378.6z"/>
		<path d="M193.9,337.9c-3.8-0.3-5.8-4-4-7.8c1.8-3.8,20.4-6.6,32.1-6.4c1.3,3.7,0.1,5.5-2.9,6.6
			C210.5,333.6,197.7,338.2,193.9,337.9z"/>
		<path d="M334.9,252.5c-2.8-0.3-0.4-5.1,0.3-7.4c2.9-9.3,8.1-17.3,14.4-24.7c1-1.2,2.9-3.7,5.5-1.5c2.6,2.2,1.5,4.5,0.7,5.8
			c-6,9.6-12.4,18.9-18.7,28.3C336.4,252.9,335.6,252.7,334.9,252.5"/>
		<path d="M237.8,319.6c7.5-1.1,14.5-2.2,21.5-3.1c1.3-0.2,2.9-0.2,3.9,0.3c1.2,0.7,2.7,2.1,2.8,3.3c0.1,0.9-1.6,2.5-2.8,2.9
			c-5.8,1.8-11.7,3.4-17.6,4.9C239.4,329.4,238.6,328.6,237.8,319.6"/>
		<path d="M441.1,388.2c4.6,0,3.7,3.2,5.1,5.1c3.9,5.5,9.6,8.2,15.5,10.6c3.9,1.7,4.6,4,1.7,7.1C446,407.2,436.1,397.1,441.1,388.2"
			/>
		<path d="M228.1,203.5c-6,6.8-14.6,7.9-22,11.2c-1,0.4-3.7-0.7-3.9-1.5c-0.4-1.9-0.5-4.5,0.4-6c2.2-3.5,20-7.3,24-5.6
			C227,201.7,227.2,202.3,228.1,203.5"/>
		<path d="M267.5,329.3c4.6,0.8,5.4,4.3,6.2,7.2c1.5,5.6,4.1,10.3,9,13.7c3.2,2.2,6.1,3.9,3.4,7.1S264.4,341.7,267.5,329.3"/>
		<path d="M415.3,333.6c-2.8,2-4.2-2.3-4.6-4.5c-1.3-8.3,0.3-16,5.7-22.6c1.1-1.3,2.7-4.1,5.3-2.4c2.6,1.7,1.7,4.7,1,6.5
			c-1.4,4.2-4.1,8.1-5.5,12.3C416.1,326.3,415.9,330,415.3,333.6"/>
		<path d="M324.1,379.3c-3.8,6.6-29.3-12.1-22.7-19.5c2.1-2.4,3.1,1.5,3.8,2.7c3.2,5.1,7.7,7.9,13.3,9.8
			C321.3,373.2,327.8,372.8,324.1,379.3z"/>
		<path d="M378.1,188.7c4.3,0,4.2,6.6,0.1,10.6c-3.6,3.6-7.1,7.1-10.9,10.5c-0.9,0.8-0.9,1.9-4.1,1c-3.2-0.9-1.2-3.4-0.7-4.7
			C364.3,201.1,372.1,192.7,378.1,188.7"/>
		<path d="M331.1,263.2c3.7,13.8-3.2,23.4-7,33.8c-0.6,0.1-1.2,0.2-1.8,0.2c-0.7-1.7-1.8-3.4-2-5.2
			C319.9,286.9,326.3,269.3,331.1,263.2"/>
		<path d="M429,292.2c-4.7-3.7-5.1-4.1-2-7.6c3.7-4.1,7.7-8.1,12.1-11.4c3.3-2.5,6.2-1.7,7.3,1.1c1.4,3.4-0.1,4.8-3.2,6.6
			C438,284,433.7,288.3,429,292.2"/>
		<path d="M211.1,272.4c-5.7-3.1,8.7-26.5,11.4-25.2s7.1,4.1,6,8.1C226.7,261.8,216.8,275.5,211.1,272.4z"/>
		<path d="M431.1,394.9c1.1,0.1,2.5,1.8,2.9,3c0.2,0.9-1.1,3.1-1.7,3.1c-6.6,0.3-13.2,0.6-19.7,0.1c-1.7-0.1-5.7-2.5-4.7-4.8
			C408.9,394.2,423.7,394.5,431.1,394.9z"/>
		<path d="M239.3,205.9c1.4,2,3.9,3.9,3.9,5.9c-0.2,7.3-3.6,21.5-7.7,21.5s0.4-20.1,1.8-26.9C237.9,206.1,238.6,206,239.3,205.9"/>
		<path d="M183.6,334.3c3.1-2,5.4,4.4,4.5,7.8c-1.2,4.6-2.9,9.1-4.8,13.5c-0.5,1.1-3.3,2.2-4.3,1.7c-1.2-0.6-2.7-3.1-2.3-4.2
			C178.6,346.8,180.5,336.3,183.6,334.3z"/>
		<path d="M173.4,397.1c-6.4,0.7-1.5-23.3,1.7-25.4s7.2,4.3,5.4,9.2C178.7,385.9,179.8,396.5,173.4,397.1z"/>
		<path d="M171.7,276.9c-5.7-1.7-11.1-3.1-16.3-5.1c-2.1-0.8-5.9-2.5-5.1-6s5.7-1.9,7.8-1.2c4.7,1.8,9.1,4.2,13.5,6.7
			C173.8,272.6,174,274.6,171.7,276.9"/>
		<path d="M143.3,403.6c3.1-2.1,17.8-0.6,17.8,3.9c0,5.1-7.7,3.8-11,3.7C143.9,410.9,140.3,405.7,143.3,403.6z"/>
		<path d="M598.7,267.3c8.8-0.3,17.6,1.3,26,5.5c15,7.4,23.5,24.2,18.7,39.4c-4.8,15.3-16.1,23.6-33.2,24.3
			c-7.4,0.3-14.9-0.4-22.3-0.1c-15.9,0.7-31.5-12.9-33.6-27.8c-0.4-2.6-1.1-5.3-1.3-7.9c-0.6-8.7,1.5-16.1,8.3-22.4
			C572.1,268.4,584.1,264.4,598.7,267.3 M560.5,298.7c-0.4,13.4,6.9,24.4,17.6,27.3c16,4.3,30.9,0.8,44.7-7.2
			c9.1-5.3,11.5-17.3,6.9-26.9c-3-6.2-5.5-12.6-16.4-15c-2.1-0.5-9.6-0.6-19.4-1.5c-9.9-0.9-18.4,1.8-27.5,10
			C562.2,289.1,559.6,293.5,560.5,298.7"/>
		<path d="M540.9,263.8c-0.9,3.4-4,4.4-6.6,2.1c-3.4-3-4.6-10.9-2.3-14.8c1.5-2.5,4.2-3.1,5.8-0.7c1.9,3,3.8,10.1,3.5,10.2"/>
		<path d="M644.8,255.7c2.9-2.6,7.2,2.6,7.8,5.8c0.6,3.3,0.4,7-2.8,9.3c-2.1,1.5-4.9,0.5-5.3-2.5
			C644.1,264.2,641.9,258.2,644.8,255.7z"/>
		<path d="M586.9,310.7c-4.3,0.1-4.3-5.5-3.5-9.3s1.6-3.4,2.7-3.8c1.1-0.4,3.1,0.5,4,1.5C593,302.4,592.8,310.5,586.9,310.7z"/>
		<path d="M608.3,297.8c4.2-1.7,4.9,4.7,5,8.2c0,1.1-0.5,2.9-2.2,3.3c-2.2,0.4-3.1-0.9-3.6-1.8C605.9,304.2,604.1,299.5,608.3,297.8
			z"/>
	</g>
</g>
</svg>
