<?xml version="1.0" encoding="utf-8"?>
<!-- Generator: Adobe Illustrator 19.1.0, SVG Export Plug-In . SVG Version: 6.00 Build 0)  -->
<svg version="1.1" id="Calque_1" xmlns="http://www.w3.org/2000/svg" xmlns:xlink="http://www.w3.org/1999/xlink" x="0px" y="0px"
	 viewBox="0 0 869.9 737.4" style="enable-background:new 0 0 869.9 737.4;" xml:space="preserve">
<style type="text/css">
	.st0{fill:#254B86;}
	.st1{fill:#254B87;}
	.st2{fill:#492E1F;}
	.st3{fill:#DFB76A;}
	.st4{fill:#BFBEBE;}
	.st5{fill:#6EA2C2;}
	.st6{fill:#224E89;}
	.st7{fill:none;stroke:#224E89;stroke-width:3;stroke-miterlimit:10;}
	.st8{fill:#F5F9F8;}
	.st9{fill:#F5F9F8;stroke:#224E89;stroke-width:3;stroke-miterlimit:10;}
	.st10{fill:#F9CB00;}
	.st11{fill:#DF111A;}
	.st12{fill:#0B6EB1;}
	.st13{fill:#8D1514;}
	.st14{fill:#679FD0;}
	.st15{fill:#008549;}
	.st16{fill:#CB9831;}
	.st17{filter:url(#Adobe_OpacityMaskFilter);}
	.st18{fill:#1D1C1A;}
	.st19{fill:#C99730;}
    .active{fill:#254B86;}
</style>
<g>
	<path d="M869.6,352.3c0,12.6,0,25.2,0,37.8c0,2.4-0.4,4.7-0.6,7.1c-0.4,5.5-0.7,11-1,16.5c-0.7,11.4-1.1,22.9-2.3,34.3
		c-1,9.5-5.1,33.9-5.8,36.7c-2.9,11.2-5.6,22.5-9.5,33.5c-5.6,15.5-11.9,30.6-19.1,45.3c-7.5,15.4-14.8,30.9-25.7,44.5
		c-5.9,7.4-10.9,15.6-17.1,22.8c-8.3,9.7-41.3,43.5-76.8,58.8c-14.5,7.2-29.2,14.2-44.9,18.5c-9.5,2.6-39.1,12.2-106,21.6
		c-5.1,0.2-10.1,1-15.2,1.6c-6.7,0.7-13.4,1.7-20.2,2c-12.9,0.6-78.8,3.7-90.5,4c-7.8,0.2-15.6,0.2-23.4,0
		c-13.6-0.2-40.5-0.9-54.1-1.9c-30.3-4.1-91.4-10.2-133.8-20.9c-14.8-3.7-69.4-25.5-91.9-40c-6.4-5-12.8-10-19.1-15.1
		c-3.9-3.2-7.8-6.6-11.5-10.1c-7.6-7.3-15.1-14.7-22.6-22c-16.8-16.5-40-65-41.8-68.4c-7.6-14.5-12.9-29.8-16.5-45.7
		c-3.2-14.3-6.9-28.5-9.7-42.8c-2.1-11.1-3.3-22.3-4.6-33.5c-1.2-10.7-2-21.5-3.5-32.2c-1.3-9.1-1.1-18.4-1.5-27.6
		c-0.3-6.8-0.5-13.7-0.7-20.5c-0.4-12.8,1.6-25.4,3.2-38c1.2-9.9,2.2-19.9,3.6-29.8c0.5-4,1.9-7.9,2.7-11.8
		c2.3-11.2,4.1-22.5,6.7-33.7c2.9-12.7,5.6-25.4,9.3-38c5.9-19.5,14.8-37.6,22.7-56.2c4.2-9.8,10-18.8,16.9-27.1
		c3.7-4.4,7.3-8.8,10.9-13.3c5-6.3,11.4-11.1,17.6-16.1c6.5-5.3,12.9-10.9,19.6-16c12.2-9.3,24.8-17.9,38.1-25.5
		c18.1-10.4,37.6-17.1,57.8-21.8c8.8-2.1,17.4-5.1,26.2-7.2c16.3-3.8,32.6-7.6,49-10.5c13.4-2.4,27.1-3.8,40.7-5.2
		c13.4-1.3,27-1.9,40.4-3c4.6-0.3,9.2-1,13.7-1.4c1.3-0.1,2.5-0.1,3.8-0.1c10.8,0.1,21.6,0.4,32.3,0.2c17.5-0.3,35-1,52.5-1.5
		c8.5-0.2,17-0.7,25.5-0.5c6.2,0.1,12.3,1.1,18.5,1.5c3.2,0.2,6.4,0.1,9.5,0.3c9.4,0.5,18.8,0.8,28.1,1.7c10.1,1,20.2,2.5,30.2,4.1
		c16.8,2.7,33.6,5.5,50.2,8.8c7.7,1.6,15.3,4.4,22.8,7c6.8,2.3,13.2,5.7,20.1,7.5c11.2,2.9,20.8,9.2,31,14.2
		c10.1,5,20.1,10.4,29.9,16c8.4,4.8,16.8,9.8,24.8,15.2c6.7,4.5,13.5,9.2,19.3,14.8c27.4,21.7,43.7,54.8,50.3,65.2
		c3.9,6.1,7.1,12.8,10,19.5c6.7,15.7,15.5,40.7,19.6,57.2c13.8,51.7,12.2,90.2,11.9,113.8c0,1.8,0.2,3.5,0.3,5.2
		C869.8,352.3,869.7,352.3,869.6,352.3z M764.9,95.5c-6.3-5.2-11.4-10-17.1-14.1c-4.5-3.3-9.5-5.8-14.3-8.7
		c-9.1-5.6-17.6-12.2-27.4-16.5c-10.5-4.6-20.9-9.4-31.4-14c-2.5-1.1-5-2.1-7.5-3c-4.6-1.7-9.3-3.5-14-4.8
		c-12.4-3.6-25-6.5-37.2-10.6c-16.1-5.3-32.8-7.5-49.4-10.7c-11-2.1-22.4-2.8-33.6-3.7c-14.9-1.2-29.8-2-44.8-2.8
		c-4-0.2-8-0.3-11.9-0.3c-10-0.2-20.1-0.7-30.1-0.5c-11.8,0.2-23.5,1.1-35.3,1.5c-13.7,0.4-27.4,0.5-41.1,1c-10.5,0.4-21,1-31.4,1.9
		c-11.1,0.9-22.2,2-33.2,3.4c-21.6,2.8-43,7-64.1,12.6c-17.4,4.5-34.8,9.2-52.1,14c-11,3-21.3,7.7-31.2,13.2
		c-14.8,8.2-28.9,17.4-42.1,28.1c-2.5,2-5,3.8-7.7,5.8c37.7,47,74.7,94.3,115.4,138c2.4-2.2,5.9-4.7,9.5-5.9s14.6,18.8,23.4,28.3
		c2.3-1.3,4.6-2.6,7-3.9c1.7-0.9,3.3-1.9,5.1-2.6c6.7-2.9,17.2-9,27.3-9.5c10.1-0.4,187.5-1.4,193.2-1.4c5.8,0,11.7-0.4,17.5-0.3
		c16,0.4,32.1,0.4,48.1,2.6c8.8,1.2,17.7,2.1,26.3,4.2c10,2.5,19.5,6.6,26.6,14.8c2.6-3,5.1-5.7,7.3-8.6c2.3-3,4.3-6.4,6.6-9.4
		c2-2.6,4.1-5.3,6.6-7.5c3.5-3,5.1-2.8,8.6,0.4c0.4,0.4,0.8,0.8,1.4,1.4c5.5-6,10.8-11.8,16.1-17.5c14.4-15.5,28.7-31.2,43.3-46.5
		c16-16.9,32.3-33.5,48.6-50.1C751.8,107.8,758.1,102,764.9,95.5z M481.6,632.1c-2.9,1.4-46.3,2.2-60.2,1.7
		c-9.2-0.3-18.3-0.4-27.5-0.8c-6.8-0.3-13.7-0.6-20.5-1.2c-5.9-0.5-7.8-3.5-7.3-9.2c0.5-5.9,0.3-11.8,0.6-17.7
		c0.2-3.6,0.4-7.3,0.9-10.9c0.5-3.7,1.8-4.9,5.3-5.3c4.6-0.6,9.1-1.1,13.7-1.7c3.6-0.5,4.6-1.4,4.9-5.2c0.5-8.1,1.1-16.2,1.3-24.3
		c0.2-12.4,0.2-24.9,0-37.3c-0.1-5-0.8-10.1-1.3-15.6c-2.2,0.2-3.9,0.3-5.6,0.4c-1.6,0.1-3.2,0.5-4.7,0.5c-8.1,0.1-16.2,0.1-24.3,0
		c-4.5,0-8.9-0.2-13.4-0.5c-4.1-0.3-18.7-1.7-21.8-2.3c-7.2-1.2-14.4-2.5-21.6-4c-16.8-3.4-33.8-6.2-47.9-17.4
		c-4.5,4.4-9,8.7-13.2,13.2c-4.2,4.4-7.2,10.1-10.3,11.5s-5.7-1.3-8.4-3.7c-2,2-3.7,3.6-5.3,5.3c-2.6,2.8-5,5.8-7.7,8.5
		c-10.7,10.5-21.5,20.9-32.2,31.2c-5.7,5.5-11.6,10.9-17.3,16.5c-3.7,3.7-7,7.9-10.7,11.6c-8.4,8.3-17,16.3-25.5,24.5
		c-9.8,9.6-19.5,19.2-29.2,28.9c-0.7,0.7-1.3,1.7-2.4,3c5.1,4.9,9.8,9.9,15,14.3c9.1,7.8,25.8,21,36.7,26.9
		c27.9,15.1,83.4,33.4,97.6,36.4c14.5,3,29.1,5.5,43.7,7.8c13.3,2.1,26.7,3.9,40.1,5.7c9.5,1.3,18.9,2.4,28.4,3.3
		c11.2,1.2,22.5,2.6,33.7,3c15,0.6,73.1-0.1,80.6-0.5c5.1-0.3,10.2-0.3,15.3-0.8c8.4-0.7,16.8-1.7,25.2-2.4c5.7-0.4,11.4-0.2,17-0.7
		c13.5-1.3,26.9-2.4,40.3-4.3c14-2,27.9-4.8,41.8-7.2c22.1-3.8,43.9-9.1,65.2-16.2c15.6-5.2,30.7-11.7,45.2-19.2
		c13.8-7.2,25.5-17.3,37.2-27.4c1.7-1.5,3.3-3.3,5-5.1c-5.3-5.7-10.2-10.9-15.1-16.1c-7.4-7.7-15-15.2-22.1-23.1
		c-9.3-10.2-18.3-20.7-27.3-31.2c-6.9-8-13.5-16.1-20.3-24.1c-7-8.3-13.8-16.7-20.9-24.9c-4.2-4.9-7.8-8.5-12.6-13.6
		c-4.5,2-9.7,2.4-13.3-1.4c-3.5-3.8-11.1-10.9-14.9-14.7c-2.3-2.2-4.3-4.6-6.4-7c-5.1,1.8-9.8,3.7-14.7,5.1
		c-5.2,1.5-10.5,2.6-15.8,3.7c-4.7,1-9.3,1.8-14.1,2.5c-5.2,0.8-10.4,1-15.6,1.9c-10.9,1.9-21.8,2.5-32.8,2.5c-3.3,0-6.7,0.2-10,0.2
		c-7.4,0.1-14.9,0.1-22.3,0.1c-4.4,0-8.8,0-13.8,0c0.4,3,0.7,5.5,1,8c0.4,2.4,0.6,36.3,0.6,43.7c0.1,10.3,0.6,20.6,1,30.9
		c4.9,1,11.7,1.9,14.1,2.8C485.2,592,484.5,630.7,481.6,632.1z M762,641.9c2.4-2.7,5.8-6,8.7-9.7c6.8-8.8,13.6-17.6,19.9-26.8
		c6.7-9.9,12.9-20.1,19-30.3c3.6-6.1,6.3-12.9,10.1-18.9c3.9-6.2,7.1-12.8,9.8-19.6c2.2-5.6,3.9-11.4,6.2-17
		c7.1-17,11.6-34.7,15-52.7c1.3-6.7,1.4-13.6,2-20.4c1.1-11.5,2.5-23.1,3.3-34.6c0.7-10.6,0.8-21.3,1.1-32c0.2-5.6,0-11.1,0.3-16.7
		c0.5-10.7,0-67.3-6.6-107.9c-3.8-17-8.8-33.5-14.7-49.9c-7.3-20.4-15.1-40.6-27-58.9c-4.3-6.7-8.5-13.5-13.5-19.7
		c-5.3-6.5-11.4-12.4-17.3-18.4c-3.3-3.4-6.9-6.5-10.1-9.6c-44.8,42.1-85.1,87.6-126.4,132.1c3.1,2.6,7.7,5.8,8,9.5
		c0.2,3.7-16.8,16.2-22.3,25c37.3,49.2,26,163.6,2.1,202.3c-0.9,1.3-1.6,2.6-2.1,3.4c6.5,10.9,21,24.1,21.8,27.9
		c0.8,3.8-4.1,7.7-6.5,10.9c4.7,5.3,9.7,10.5,14.3,15.9c9.3,11.1,18.3,22.5,27.7,33.5c12.6,14.8,25.5,29.4,38.4,43.9
		c7.1,8,14.4,15.8,21.9,23.3C750.4,631.7,756.2,636.5,762,641.9z M234.6,466.1c-0.9-1.5-1.6-2.8-2.5-3.8c-2.7-3.2-10-23.9-11.9-30.5
		c-2.8-9.6-6.3-19.3-8.1-32.6c-2.3-17-0.1-65.3,5-85.8c4.1-16.5,8-26.9,15.5-38.7c1.4-2.3,3.3-4.3,4.8-6.5c2.6-3.8,2.4-3.9-0.6-7.3
		c-6.2-7-12.5-14.1-18.4-21.3c-4-4.9-3.9-5.5,0.3-9.5c0.5-0.5,0.9-1.2,1.6-2.2c-40.7-44.3-77.7-91.5-115.4-138.2
		c-7,6.1-13.6,11.8-20.2,17.6c-8.4,7.3-14,16.9-20.8,25.5c-6,7.6-10.5,15.9-14.2,24.8c-3.9,9.4-7.5,19-11.8,28.2
		c-5.6,11.9-9.5,24.3-12.7,37c-3,11.9-5.5,23.9-7.8,35.9c-1.7,8.9-3,17.9-4.4,26.8c-0.9,6.3-1.5,12.6-2.3,18.9
		c-1.7,13.3-3.7,26.5-4.9,39.8c-1.4,16.7,0.7,33.4,0.9,50.2c0,2.1,0.2,4.1,0.5,6.2c1.7,11.5,3.5,22.9,4.1,34.5
		c1,17.5,4.5,34.7,7.6,51.9c1.5,8.1,4.1,16,5.8,24.1c2.1,9.7,5,19.1,8.9,28.2c3.8,8.8,34.4,70.9,52.9,89.1c2.3-2.1,4.5-3.9,6.5-5.9
		c7.6-7.5,15.1-15.1,22.7-22.6c7.7-7.6,15.2-15.5,23.3-22.7c6.3-5.7,12.2-11.7,17.6-18.1c2-2.4,4.4-4.6,6.7-6.7
		c5.5-5.1,11.1-10.1,16.5-15.2c3.8-3.6,7.2-7.7,11.3-11c9.3-7.6,17-16.7,24.7-25.8c-4.1-3.9-4.2-5.6-0.6-10.1
		c0.5-0.6,0.9-1.3,1.5-1.9C223.8,482.1,228.8,474,234.6,466.1z M248.9,262c1.4,1.9-7,12.2-10.1,18.1c-2.8,5.4-5.6,10.8-7.8,16.4
		c-3.7,9.4-5.2,19.4-6.6,29.3c-2.2,15.2-3.8,30.6-3.9,46.1c0,3.3,0.2,6.6,0.3,10c0.4,10.2,1.2,20.4,4,30.2
		c3.1,11.2,6.8,22.2,10.4,33.2c0.9,2.7,2.4,5.1,3.7,7.6c2.5,4.8,5.8,9.1,3.8,15.2c-0.7,2.2-2.2,2.7-3.2,4.2
		c-2.7,4.1-18,17.6-21.1,22c2,1.3,7.2,5.4,8.4,6.2c8.7-9,17.2-17.7,25.4-26.1c12.6,11.4,43.3,18.6,52.3,19.9
		c8.9,1.3,38.1,5.3,49.6,5.9c8.9,0.4,39.2-0.2,42.5-1.2c3.3-0.9,5.1,0.5,5.5,4c0.3,2.3,0.4,4.6,0.5,7.1c7.6,0,19.4,0.3,21.3,0.1
		c2-0.2,1.9,2.2,2.1,3.4c0.4,2.7,0.7,5.4,1,8c0.4,3.1,1.4,4,3.7,3.9c2.7-0.1,3-2,2.9-4c0-1.6-0.3-3.2-0.4-4.7
		c-0.1-2.3-1.4-7.3,1-7.3s18.1,0,27.2,0c0.5-3.3-1.3-9,1.5-9.2c2.8-0.2,10.2-1.1,15.3-1.2c12.4-0.3,24.9,0,37.3-0.5
		c9.2-0.3,18.4-1.2,27.6-2.3c7.6-0.8,15.1-2.1,22.6-3.4c7.7-1.3,15.3-3,22.5-6.2c3.7-1.7,7.6-2.9,11.1-5.4c2.1-1.5,6.1-2.6,9.1,0.2
		c1.3,1.2,3,2,4.1,3.2c4.5,4.8,8.8,9.6,13.2,14.4c2.1,2.3,4.4,4.5,6.9,7.1c2.1-1.8,3.8-3.3,5.1-4.5c-5.1-6.1-9.9-11.8-14.7-17.6
		c-2.2-2.7-4.3-5.6-6.8-8c-1.7-1.7-1.3-2.8-0.3-4.5c27-32.1,34.4-153.1,2.6-201.8c-1.6-2.4-1.9-3.8-0.4-5.4
		c5.5-6,11.8-13.1,17.2-19.2c2.1-2.3,3.7-5,5.9-8c-2.9-2-5.3-3.6-7.8-5.3c-8.6,9.8-15.6,20.3-25.9,28.6c-1.4-0.9-9-11.4-24.1-16.6
		c-15.2-5.2-52.6-6.2-67.6-6.6c-15.1-0.4-45.7-1.7-54.6-1.8c-1.1,0-43.6,0.2-53.6,0.1c-5.7-0.1-11.4,0.4-17.2,0.5
		c-10.1,0.1-20.2-0.1-30.3,0.1c-5.6,0.1-11.1,0.7-16.7,1c-4.8,0.2-9.6,0.2-14.3,0.3c-5.1,0.1-10.1,0.3-15.2,0.4
		c-6.3,0.2-12.6,0.2-18.9,0.8c-3.8,0.3-7.5,1.2-11.1,2.3c-9.1,2.6-27.1,15.7-28.2,14.4s-14.3-18.2-19.8-24.8
		c-1.3-1.5-2.8-2.9-4.4-4.6c-2.6,2.3-4.9,4.3-7.4,6.6C232.5,242.7,247.5,260.1,248.9,262z M375.4,623.2c12.4,2.5,25.3,2.1,38.1,2.1
		c7.2,0,14.3-0.5,21.5-0.7c13.5-0.4,27.1-0.7,40.6-1c0.4,0,0.9-0.3,1.5-0.5c2.4-9.1,1.6-23.6,1.6-25.7c0-2.1-5.7-3-8.5-3.5
		c-3.1-0.5-5.2-2.4-5.4-5.2c-0.5-8.6-1.3-17.2-1.2-25.8c0-11.8,0.4-43.5,0-47.5c-9.3-1.5-17.9-1.2-26.8-0.1c0,2,1.5,10.9-0.2,13
		c-1.7,2.1-7,1.6-9.7,1.9s-3.6-12-3.9-14.8c-7,0-13.6,0-20.3,0c-0.1,1.3-0.2,2.3-0.1,3.2c0.2,8.3,0.4,16.5,0.7,24.8
		c0.1,3.8,0,7.7,0.4,11.5c1.1,10.8,0.5,21.6-1.4,32.3c-1,5.5-3.6,7.6-9.1,7.7c-4.5,0.1-8.9,0.1-13.4,0.2c-1.2,0-2.4,0.2-4.3,0.4
		C375.4,604.5,375.4,613.5,375.4,623.2z"/>
	<path d="M269.9,478.1c-3.1-1.1-2.9-5.6-3.6-9c-1.1-4.7-0.7-9.8-1.3-14.7c-1.4-12.6,0-25.1,0.9-37.6c0.6-7.6,0.9-15.3,1.4-22.9
		c1.8-25.8,0.7-51.6,0.9-77.5c0.1-12.1-0.3-24.2-0.2-36.3c0-6.8-0.8-21.4,3.3-22c4.1-0.5,5.4-0.3,9.1-0.5c8.5-0.4,17.1-0.7,25.6-0.9
		c3.5-0.1,7,0.4,10.5,0.5c23.9,0.5,47.8,1.1,71.7,1.2c24.5,0.1,48.9-0.3,73.4-0.6c10.1-0.1,20.2-0.6,30.4-0.6
		c17.8-0.1,35.6-0.2,53.4,0.1c10.9,0.2,21.9,1.2,32.8,1.8c1.9,0.1,3.8-0.1,5.7-0.2c5.2-0.3,6.7,1.4,6.4,6.6c-0.2,3.5,0.1,7,0.3,10.5
		c0,0.8,0.2,1.6,0.2,2.4c0,19.3,0.2,38.6-0.2,57.8c-0.3,14.9-1.2,29.9-1.7,44.8c-0.3,10.3-0.5,20.7-0.6,31c-0.1,7-0.1,14,0,21
		c0.1,6.8,1.5,36.8,1.2,37.7c-1.1,3.7-4,4.2-7.1,4.3c-10.7,0-21.4,0-32,0c-17-0.1-34.1-0.1-51.1-0.3c-8.1-0.1-16.2-0.7-24.3-0.7
		c-7,0-13.9,0.6-20.9,0.7c-14.8,0.2-29.7,0.3-44.5,0.3c-12.9,0-25.8-0.3-38.7-0.3c-16.2,0-32.4-0.1-48.6,0.2
		c-8.4,0.2-16.7,1.2-25.1,1.6c-5.4,0.3-10.8,0.2-16.3,0.4C277.6,477.2,274.4,477.6,269.9,478.1z M273.2,306.2
		c3.3,0.3,6.1,0.7,8.9,0.9c5.6,0.3,11.1,0.3,16.7,0.6c3.4,0.2,4.5,1.5,4.4,4.7c-0.3,9.8-0.5,19.7-0.8,29.5
		c-0.2,8.4-0.3,16.8-0.6,25.2c-0.2,4.8-0.7,9.5-0.9,14.3c-0.6,9.7,2,41-1.9,41.4s-13.2,1.3-18.9,1.5c-3.1,0.1-6.2,0.1-9.2,0.2
		c-2,12.1-0.8,35.9,2.4,48.1c50.4-3.4,101.1-2.8,151.8-2.2c0.4-2.4,0.9-4.2,0.9-6.1c0.4-15.6,0.7-31.2,1-46.8
		c0.1-3.3,0.2-6.7,0.3-10c0.2-8.1,0.5-16.2,0.6-24.2c0-6.6-0.4-13.3-0.5-19.9c-0.4-18.8-1-37.6-1.2-56.3c-0.1-9.9,0.6-19.7,0.8-29.6
		c0.1-4.6-0.1-9.1-0.1-14.1c-7.2,0-13.6-0.1-20.1,0c-5.2,0.1-10.4,0.5-15.6,0.4c-15.1-0.4-30.2-1-45.3-1.3
		c-10.2-0.2-20.4-0.2-30.6-0.4c-3.2-0.1-6.3-0.6-9.5-0.5c-5.4,0.1-10.8,0.4-16.1,0.9c-5.3,0.5-10.7-0.9-16.4,1.4
		C273.2,277.6,273.2,291.5,273.2,306.2z M581.4,264.7c-23.5-3.4-138.7-2.8-149.6-0.5c0,4.2,0.1,8.5,0,12.8
		c-0.2,10.2-0.7,20.4-0.8,30.6c0,4.3,0.6,8.6,0.7,12.9c0.2,13.5,0.3,27,0.3,40.5c0.1,15.8,0.3,31.7,0,47.5
		c-0.4,19.6-1.2,39.1-1.8,58.6c0,0.9,0.3,1.8,0.4,2.5c50.4,0,100.5,0,150.2,0c-0.7-14.5-1.4-28.7-2.1-42.7c-5.7-0.2-11.4-0.4-17-0.8
		c-3.7-0.3-4-0.7-4.1-4.3c-0.4-11-0.7-22-1-33c-0.1-2.9-0.1-5.7-0.2-8.6c-0.6-15.9,0.1-31.9,1.3-47.7c0.5-6.9,0.9-13.6-0.6-20.4
		c-0.1-0.5,0.1-1.2,0.1-1.6c8.7-0.8,17.2-1.6,26.1-2.4C582.7,293.3,582,279,581.4,264.7z M274,311.4c-1.2,6.5-0.4,12.9-0.4,19.4
		c0.1,24.4,0.9,48.7-1.6,73c-0.5,5-0.4,10.1-0.7,15.5c8.1,0,15.9,1,23.8-1.2c0-1.5,0-2.6,0-3.7c0.3-9.2,0.5-18.5,1-27.7
		c0.4-7.1,1.5-14.2,1.8-21.4c0.5-11.3,0.5-22.6,0.7-33.9c0.1-2.7,0.2-5.4,0.3-8.1c0-3.6,0-7.2,0-10.9
		C290.3,312,282.4,311.7,274,311.4z M562,315.1c0,8.3,0.2,15.9-0.1,23.5c-0.3,7.6-1.4,15.2-1.4,22.8c0,17.4,0.5,34.7,0.9,52.1
		c0.1,2.5,0.6,5,0.9,7.4c5.9,0,11.4,0,17.1,0c0.3-4.8,0.7-9.1,0.8-13.3c0.2-8.5,0-17.1,0.4-25.6c0.7-14.2,1.9-28.4,2.6-42.6
		c0.4-8.4,0.1-16.8,0.1-25.9C576,314,569.1,314.5,562,315.1z"/>
	<path d="M421.2,486.8c0.1,5.6-3.6,9.1-8.6,8.4c-7-1-13.9,0.2-20.9,0.1c-4.7,0-9.4-0.4-14.2-0.7c-2-0.1-3-1.4-3.3-3.4
		c-0.4-3-1.3-5.9-1.7-8.8c-0.1-1,0.7-2.4,1.5-3.1c0.9-0.8,2.3-1.2,3.5-1.3c4.9-0.2,9.8-0.3,14.7-0.3c7.9,0,15.9,0.1,23.8-0.1
		c3.6-0.1,4.1,0.1,4.5,3.6C420.9,483.2,421.1,485.3,421.2,486.8z M379.2,489.9c2.3,0.7,34.9,0.7,36.4,0.9c1.6,0.2,0.9-8.4-0.5-9
		c-1.4-0.6-31-0.6-37,0.4C375.4,482.7,376.9,489.2,379.2,489.9z"/>
	<path d="M430.2,478.1c2.7-0.8,39.3-1.6,43-0.6c3.7,1,5.1,8.7,2.3,13.8c-0.8,1.4-1.6,2.1-3.3,2.2c-10.6,0.2-21.2,0.5-31.8,0.6
		c-2.5,0-5.1-0.2-7.6-0.5c-2.6-0.3-3.9-1.8-3.9-4.5C429,486,427.5,478.9,430.2,478.1z M470.3,481.4c-1.9-0.8-37.1,0.5-37.9,0.8
		c-0.8,0.3-0.7,6.2,1.1,6.5s36,0.9,37.6,0C472.6,487.8,472.2,482.2,470.3,481.4z"/>
	<path id="Tribune_de_presse" class="st4" d="M375.4,623.2c12.4,2.5,25.3,2.1,38.1,2.1c7.2,0,14.3-0.5,21.5-0.7
		c13.5-0.4,27.1-0.7,40.6-1c0.4,0,0.9-0.3,1.5-0.5c2.4-9.1,1.6-23.6,1.6-25.7c0-2.1-5.7-3-8.5-3.5c-3.1-0.5-5.2-2.4-5.4-5.2
		c-0.5-8.6-1.3-17.2-1.2-25.8c0-11.8,0.4-43.5,0-47.5c-9.3-1.5-17.9-1.2-26.8-0.1c0,2,1.5,10.9-0.2,13c-1.7,2.1-7,1.6-9.7,1.9
		s-3.6-12-3.9-14.8c-7,0-13.6,0-20.3,0c-0.1,1.3-0.2,2.3-0.1,3.2c0.2,8.3,0.4,16.5,0.7,24.8c0.1,3.8,0,7.7,0.4,11.5
		c1.1,10.8,0.5,21.6-1.4,32.3c-1,5.5-3.6,7.6-9.1,7.7c-4.5,0.1-8.9,0.1-13.4,0.2c-1.2,0-2.4,0.2-4.3,0.4
		C375.4,604.5,375.4,613.5,375.4,623.2z"/>
	<path id="Tribunes_latérales" class="st4" d="M745.8,113.9c-16.3,16.6-32.6,33.2-48.6,50.1c-14.6,15.3-28.9,31-43.3,46.5
		c-5.3,5.7-10.6,11.5-16.1,17.5c-0.6-0.6-1-1-1.4-1.4c-3.5-3.2-5.1-3.4-8.6-0.4c-2.5,2.2-4.6,4.8-6.6,7.5c-2.3,3-4.3,6.4-6.6,9.4
		c-2.2,2.9-4.7,5.6-7.3,8.6c-7.1-8.2-16.6-12.4-26.6-14.8c-8.6-2.1-17.5-3-26.3-4.2c-15.9-2.2-32-2.2-48.1-2.6
		c-5.8-0.2-11.7,0.3-17.5,0.3c-5.7,0-183.1,1-193.2,1.4c-10.1,0.4-20.6,6.5-27.3,9.5c-1.7,0.8-3.4,1.7-5.1,2.6
		c-2.4,1.3-4.7,2.6-7,3.9c-8.8-9.5-19.8-29.5-23.4-28.3s-7.1,3.7-9.5,5.9c-40.7-43.8-77.6-91-115.4-138c2.6-2,5.2-3.8,7.7-5.8
		c13.2-10.6,27.3-19.9,42.1-28.1c9.9-5.5,20.2-10.2,31.2-13.2c17.3-4.8,34.7-9.5,52.1-14c21.1-5.5,42.5-9.7,64.1-12.6
		c11-1.4,22.1-2.5,33.2-3.4c10.5-0.9,21-1.5,31.4-1.9c13.7-0.5,27.4-0.6,41.1-1c11.8-0.4,23.5-1.3,35.3-1.5
		c10-0.2,20.1,0.3,30.1,0.5c4,0.1,8,0.1,11.9,0.3c14.9,0.9,29.9,1.7,44.8,2.8c11.2,0.9,22.6,1.6,33.6,3.7
		c16.5,3.1,33.2,5.4,49.4,10.7c12.2,4,24.8,7,37.2,10.6c4.7,1.4,9.3,3.2,14,4.8c2.5,0.9,5.1,1.9,7.5,3c10.5,4.6,20.9,9.4,31.4,14
		c9.9,4.3,18.3,10.9,27.4,16.5c4.7,2.9,9.8,5.4,14.3,8.7c5.6,4.1,10.8,8.9,17.1,14.1C758.1,102,751.8,107.8,745.8,113.9z
		 M481.6,632.1c-2.9,1.4-46.3,2.2-60.2,1.7c-9.2-0.3-18.3-0.4-27.5-0.8c-6.8-0.3-13.7-0.6-20.5-1.2c-5.9-0.5-7.8-3.5-7.3-9.2
		c0.5-5.9,0.3-11.8,0.6-17.7c0.2-3.6,0.4-7.3,0.9-10.9c0.5-3.7,1.8-4.9,5.3-5.3c4.6-0.6,9.1-1.1,13.7-1.7c3.6-0.5,4.6-1.4,4.9-5.2
		c0.5-8.1,1.1-16.2,1.3-24.3c0.2-12.4,0.2-24.9,0-37.3c-0.1-5-0.8-10.1-1.3-15.6c-2.2,0.2-3.9,0.3-5.6,0.4c-1.6,0.1-3.2,0.5-4.7,0.5
		c-8.1,0.1-16.2,0.1-24.3,0c-4.5,0-8.9-0.2-13.4-0.5c-4.1-0.3-18.7-1.7-21.8-2.3c-7.2-1.2-14.4-2.5-21.6-4
		c-16.8-3.4-33.8-6.2-47.9-17.4c-4.5,4.4-9,8.7-13.2,13.2c-4.2,4.4-7.2,10.1-10.3,11.5s-5.7-1.3-8.4-3.7c-2,2-3.7,3.6-5.3,5.3
		c-2.6,2.8-5,5.8-7.7,8.5c-10.7,10.5-21.5,20.9-32.2,31.2c-5.7,5.5-11.6,10.9-17.3,16.5c-3.7,3.7-7,7.9-10.7,11.6
		c-8.4,8.3-17,16.3-25.5,24.5c-9.8,9.6-19.5,19.2-29.2,28.9c-0.7,0.7-1.3,1.7-2.4,3c5.1,4.9,9.8,9.9,15,14.3
		c9.1,7.8,25.8,21,36.7,26.9c27.9,15.1,83.4,33.4,97.6,36.4c14.5,3,29.1,5.5,43.7,7.8c13.3,2.1,26.7,3.9,40.1,5.7
		c9.5,1.3,18.9,2.4,28.4,3.3c11.2,1.2,22.5,2.6,33.7,3c15,0.6,73.1-0.1,80.6-0.5c5.1-0.3,10.2-0.3,15.3-0.8
		c8.4-0.7,16.8-1.7,25.2-2.4c5.7-0.4,11.4-0.2,17-0.7c13.5-1.3,26.9-2.4,40.3-4.3c14-2,27.9-4.8,41.8-7.2
		c22.1-3.8,43.9-9.1,65.2-16.2c15.6-5.2,30.7-11.7,45.2-19.2c13.8-7.2,25.5-17.3,37.2-27.4c1.7-1.5,3.3-3.3,5-5.1
		c-5.3-5.7-10.2-10.9-15.1-16.1c-7.4-7.7-15-15.2-22.1-23.1c-9.3-10.2-18.3-20.7-27.3-31.2c-6.9-8-13.5-16.1-20.3-24.1
		c-7-8.3-13.8-16.7-20.9-24.9c-4.2-4.9-7.8-8.5-12.6-13.6c-4.5,2-9.7,2.4-13.3-1.4c-3.5-3.8-11.1-10.9-14.9-14.7
		c-2.3-2.2-4.3-4.6-6.4-7c-5.1,1.8-9.8,3.7-14.7,5.1c-5.2,1.5-10.5,2.6-15.8,3.7c-4.7,1-9.3,1.8-14.1,2.5c-5.2,0.8-10.4,1-15.6,1.9
		c-10.9,1.9-21.8,2.5-32.8,2.5c-3.3,0-6.7,0.2-10,0.2c-7.4,0.1-14.9,0.1-22.3,0.1c-4.4,0-8.8,0-13.8,0c0.4,3,0.7,5.5,1,8
		c0.4,2.4,0.6,36.3,0.6,43.7c0.1,10.3,0.6,20.6,1,30.9c4.9,1,11.7,1.9,14.1,2.8C485.2,592,484.5,630.7,481.6,632.1z"/>
	<path id="Virages" class="st4" d="M745.2,626.4c-7.5-7.6-14.8-15.4-21.9-23.3c-12.9-14.5-25.8-29.1-38.4-43.9
		c-9.4-11-18.4-22.4-27.7-33.5c-4.6-5.5-9.5-10.7-14.3-15.9c2.4-3.2,7.2-7.1,6.5-10.9c-0.8-3.8-15.3-17-21.8-27.9
		c0.5-0.7,1.2-2.1,2.1-3.4c23.9-38.7,35.2-153-2.1-202.3c5.6-8.8,22.6-21.3,22.3-25c-0.2-3.7-4.8-6.9-8-9.5
		c41.3-44.5,81.6-90.1,126.4-132.1c3.3,3.1,6.8,6.2,10.1,9.6c5.9,6,12,11.9,17.3,18.4c5,6.2,9.2,13,13.5,19.7
		c11.9,18.3,19.6,38.5,27,58.9c5.9,16.4,10.9,33,14.7,49.9c6.6,40.6,7.1,97.2,6.6,107.9c-0.3,5.6-0.2,11.1-0.3,16.7
		c-0.3,10.7-0.4,21.3-1.1,32c-0.8,11.6-2.2,23.1-3.3,34.6c-0.7,6.8-0.7,13.7-2,20.4c-3.4,18-7.9,35.7-15,52.7
		c-2.3,5.5-4,11.4-6.2,17c-2.7,6.8-5.9,13.3-9.8,19.6c-3.8,6-6.4,12.8-10.1,18.9c-6.1,10.3-12.3,20.5-19,30.3
		c-6.3,9.2-13.1,18-19.9,26.8c-2.9,3.7-6.3,7.1-8.7,9.7C756.2,636.5,750.4,631.7,745.2,626.4z M234.6,466.1
		c-0.9-1.5-1.6-2.8-2.5-3.8c-2.7-3.2-10-23.9-11.9-30.5c-2.8-9.6-6.3-19.3-8.1-32.6c-2.3-17-0.1-65.3,5-85.8
		c4.1-16.5,8-26.9,15.5-38.7c1.4-2.3,3.3-4.3,4.8-6.5c2.6-3.8,2.4-3.9-0.6-7.3c-6.2-7-12.5-14.1-18.4-21.3c-4-4.9-3.9-5.5,0.3-9.5
		c0.5-0.5,0.9-1.2,1.6-2.2c-40.7-44.3-77.7-91.5-115.4-138.2c-7,6.1-13.6,11.8-20.2,17.6c-8.4,7.3-14,16.9-20.8,25.5
		c-6,7.6-10.5,15.9-14.2,24.8c-3.9,9.4-7.5,19-11.8,28.2c-5.6,11.9-9.5,24.3-12.7,37c-3,11.9-5.5,23.9-7.8,35.9
		c-1.7,8.9-3,17.9-4.4,26.8c-0.9,6.3-1.5,12.6-2.3,18.9c-1.7,13.3-3.7,26.5-4.9,39.8c-1.4,16.7,0.7,33.4,0.9,50.2
		c0,2.1,0.2,4.1,0.5,6.2c1.7,11.5,3.5,22.9,4.1,34.5c1,17.5,4.5,34.7,7.6,51.9c1.5,8.1,4.1,16,5.8,24.1c2.1,9.7,5,19.1,8.9,28.2
		c3.8,8.8,34.4,70.9,52.9,89.1c2.3-2.1,4.5-3.9,6.5-5.9c7.6-7.5,15.1-15.1,22.7-22.6c7.7-7.6,15.2-15.5,23.3-22.7
		c6.3-5.7,12.2-11.7,17.6-18.1c2-2.4,4.4-4.6,6.7-6.7c5.5-5.1,11.1-10.1,16.5-15.2c3.8-3.6,7.2-7.7,11.3-11
		c9.3-7.6,17-16.7,24.7-25.8c-4.1-3.9-4.2-5.6-0.6-10.1c0.5-0.6,0.9-1.3,1.5-1.9C223.8,482.1,228.8,474,234.6,466.1z"/>
	<path id="Bancs_de_touche" class="st4" d="M471,488.7c-1.6,0.9-35.7,0.3-37.6,0s-1.9-6.2-1.1-6.5c0.8-0.3,36-1.7,37.9-0.8
		C472.2,482.2,472.6,487.8,471,488.7z M378.2,482.2c6-1,35.7-1,37-0.4c1.4,0.6,2.1,9.3,0.5,9c-1.6-0.2-34.1-0.2-36.4-0.9
		S375.4,482.7,378.2,482.2z"/>
</g>
</svg>
