<?xml version="1.0" encoding="utf-8"?>
<!-- Generator: Adobe Illustrator 19.1.0, SVG Export Plug-In . SVG Version: 6.00 Build 0)  -->
<svg version="1.1" id="Calque_1" xmlns="http://www.w3.org/2000/svg" xmlns:xlink="http://www.w3.org/1999/xlink" x="0px" y="0px"
	 viewBox="0 0 809.8 511.2" style="enable-background:new 0 0 809.8 511.2;" xml:space="preserve">
<style type="text/css">
	.st0{display:none;fill:#F7B5AC;}
	.st1{fill:#F7B5AC;}
	.st2{fill:#EB5C5F;}
	.st3{fill:#84B974;}
	.st4{fill:#010202;}
	.st5{fill:#AB7613;}
	.st6{fill:#C0BFBF;}
	.st7{fill:#6FA4C3;}
	.st8{fill:#1E1E1C;}
	.st9{fill:none;}
	.st10{fill:none;stroke:#EB5C5F;stroke-width:3;stroke-miterlimit:10;}
	.st11{fill:none;stroke:#6FA4C3;stroke-width:3;stroke-miterlimit:10;}
	.st12{fill:none;stroke:#84B974;stroke-width:3;stroke-miterlimit:10;}
	.st13{fill:none;stroke:#C0BFBF;stroke-width:3;stroke-miterlimit:10;}
	.st14{fill:none;stroke:#F7B5AC;stroke-width:3;stroke-miterlimit:10;}
</style>
<g>
	<g id="Pilon_1_">
		<path class="st1" d="M420.8,387.1c-6.6-14.2-15.6-17.9-21.7-19.9c-6.1-2.1-11.5-6.9-11.5-6.9l-24.1,7.3c0,0-14.6,12.8-16.8,15.5
			s-8.2,15.2-7.4,18.2s0.7,11.8,0.7,11.8l35,2.1l29.1-3.8l19.1-6.2C423.1,405.1,427.3,401.3,420.8,387.1z"/>
		<path class="st1" d="M393,417.9c0,3.6-0.2,6.6,0,9.6c0.6,7.2,1.8,8.3,10.2,9.4c2.7-6.9,1.8-13.9,1.4-21.7
			C400.3,416.2,396.7,417.1,393,417.9z"/>
		<path class="st1" d="M363.8,440.1c0.5-7.9,1-14.6,1.5-21.5c-3.5-0.4-6.1-0.8-10.1-1.2C357.9,425.2,353.1,434.5,363.8,440.1z"/>
	</g>
	<path id="poitrine_2_" class="st1" d="M508.2,260.4c0,0,5,22.5-2.1,49.9c-7.1,27.4-42,78.4-48.7,77.9c-6.7-0.5-17.6-10.5-17.6-10.5
		s-18-21.5-19-36c-1-14.5,26.2-39.3,26.2-39.3s20-4.2,33.5-13.7C494.8,278.7,502.8,263.2,508.2,260.4"/>
	<path id="aile_2_" class="st2" d="M382.5,261.4l-14.7-9l-18.5-2l-12.5,4l-18.3,12.1l-9,15.4l-2,8.2l4.8,1.9l-7.7,11.8l-4.8,11.7
		l8.8,3.7l-6.7,11.7l-4.3,13.3l10,9.7l34.2,13.8h24.7l32.5-13.5l25.4-20.5l22.6-30v-5.9l-7.2-8.3c0,0-10.8-10-16.3-13
		s-20.1-8.6-24.5-9.9C394.7,265.3,386,263.6,382.5,261.4z"/>
	<path id="Cuisse_2_" class="st1" d="M292.8,342.3l16,11.2l16.2,8.5l34.5,7.3c0,0-12,15.7-14.2,17.4c-2.1,1.7-4,6.5-5.6,13.7
		c-1.6,7.2-2.6,11.1-2.6,11.1s-35.5-6.4-40.7-8.9c-5.2-2.5-44.8-32.2-44.8-32.2l2.7-6.8L292.8,342.3z"/>
	<path id="Haut_de_cuisse_2_" class="st1" d="M421.1,343.1c0,0,4.9,13,5.8,14.5s10.1,16.5,10.1,16.5l15.1,11.2l-14,12.2l-13.5,5.5
		c0,0-0.4-12-3.8-16c-3.4-4-11.3-17-15.6-17.9c-4.3-0.9-16.5-6.6-16.5-6.6L421.1,343.1z"/>
	<g>
		<g>
			<path d="M211.6,126.4c10.3,6.7,17.5,16.1,24.2,26.1c10.2,15.2,16.8,31.9,22.5,49.1c4.9,15.1,7.7,30.6,8.1,46.4
				c0,1,0.2,1.9,0.5,4.9c13.5-33.2,38.3-50.4,70.5-57.4c33.6-7.3,61.5,3.7,84.8,29.2c1.8-9.3,1.3-18.2,0.2-27
				c-2.8-22.1-6.7-44-9.2-66.1c-0.9-8.1,0.6-16.4,1.1-25.6c-8.8-5.2-14.5-13.4-11.6-24.9c2.3-9.1,7.4-16.4,17.8-17.4
				c1.7-12.9,7.1-16.4,21.5-13.8c0.6-4.7,1-9.4,1.9-14c0.5-2.9,1.4-5.9,2.6-8.6c3.2-7.1,7.3-9,15.1-7.5c3.7,0.7,7.4,1.4,11,2.4
				c9,2.5,14.7,8.8,15.3,18.2c0.6,10,1.3,20.1-2.8,29.7c-0.8,1.8-0.8,3.8-1.3,6c4.2,1.9,8.2,3.9,12.3,5.7
				c9.6,4.1,13.2,13.2,17.7,21.5c1.1,2,1.4,4.5,2.8,6.1c1.5,1.7,3.7,3,5.9,3.9c1.3,0.6,3,0.2,4.5,0.2c13.7-0.4,27.5-0.2,40.7-4.9
				c2.4-0.8,4.8-1.6,7.2-2.1c3-0.6,5.4,0.5,7.2,3c1.8,2.6,0.8,4.8-1,6.8c-2.7,2.9-5.2,6-8.3,8.3c-12,8.9-25.2,15.5-40.1,17.9
				c-2.2,0.3-4.3,1.1-7,1.9c5.6,10.3,11.2,20,16.1,30.1c2,4.1,2.6,9,3.4,13.6c0.2,1.1-1.2,2.7-2.3,3.6c-3.7,3.3-7.6,6.4-12.3,10.4
				c-0.4,1.6-3,9.7-3.3,11.1c-2.8,13-5.3,26.1-12.6,37.5c-1.3,2-0.9,3.8-0.2,6.2c1.2,4.4,1.3,9.3,1.1,13.9
				c-0.3,6.5-1.1,12.9-1.9,19.4c-3.1,25.1-13,47.7-26.4,68.8c-8.2,12.9-19.1,23.2-31.5,32c-13.2,9.4-27.5,16.9-42.9,22.1
				c-0.4,7.2-0.6,14.2-1.1,21.2c-0.2,2.2-0.7,4.4-1.5,6.5c-1.1,2.9-3.1,3.9-6.5,1.4c-0.6,2.8-1.5,4.9-1.4,7.1
				c0.1,5.2,0.7,10.5,1,15.7c0.3,4.7,1.9,8,7,9.2c2.6,0.6,4.9,2.4,7.2,3.9c2.1,1.3,3.1,3.2,1.6,6.8c-2.3-0.9-5.2-1.3-6.9-2.9
				c-5.8-5.3-11.5-5.1-17.8-1.1c-1.7,1.1-3.6,2.1-5.5,2.4c-1.9,0.3-4-0.2-6.8-0.4c3.1-7.1,9.8-7.3,14-11.2v-30
				c-11.4-3.7-9.2-14.2-11.4-23c-3.7-0.2-7.2-0.3-11-0.5c-2,4.6-2.1,9.1-2.1,13.9c0,3.9-1,7.9-2.1,11.7c-0.9,3-3.3,3.5-6.7,1.8
				c-1.6,11,1.4,21.6-0.2,32.2c6.5,3.3,11.1,7.5,13.3,14.1c-5.4,2.5-6.4,2.7-8.8-2.3c-2.8-5.8-7.1-6.6-12.4-5.3
				c-2.2,0.6-4.2,2.4-6.7,3.9c-1.3-0.8-2.9-1.8-4.7-2.9c2.2-5.9,6.6-7.5,13-7.3c0-5,0.2-9.4,0-13.8c-0.2-4.2-0.9-8.4-1.2-12.7
				c-0.4-4.8,0.3-9.2-3.4-13.8c-2.7-3.4-2-9.6-2.7-14.5c-0.2-1.7-0.2-3.5-0.3-5.5c-1.2-0.5-2.3-1.2-3.4-1.3
				c-21.2-1.8-41.2-7.9-60.1-17.6c-16.2-8.4-30.7-18.9-41.5-33.9c-11.5-15.8-19.2-33.3-24.1-52.2c-3.5-13.3-4.7-26.5-4.9-40.1
				c-0.2-14.2-1.7-28.5-2.6-42.7c-0.1-1-0.4-2.1-0.2-3c0.4-1.8,0.6-4.4,1.8-5.1c2.5-1.5,4.9,0,6.3,2.4c4.4,7.5,8.8,15.2,13,22.8
				c0.8,1.5,1.3,3.1,3.1,4.6c-0.6-8-0.8-16-1.9-23.9c-3.5-24.1-9.5-47.7-16.3-71c-2.1-7.2-5.8-13.8-8.7-20.8
				C207.4,132.5,205.9,128.9,211.6,126.4 M456,380.5c29.9-21.9,50-68.1,52.2-113.7c-1.9,0.2-3.5,2.5-5.7-0.3c-3-3.8,0.3-5.9,1.3-8.4
				c-3.4-2.3-7.3-4-9.8-6.8c-2.5-2.8-3.6-6.8-5.4-10.4c-7.4,10-16,6.9-21.8-2.8c-8.7,9.9-19.8,8.2-27-4.4c-4,0.8-4.8,3.7-8.9,8.1
				c1.5,4.2,3.1,8.7,4.7,13.3c-1.5,1.8-3.4,2.9-5,0.8c-2.8-3.7-6.4-7.5-7.4-11.8c-2.3-9.9-6.6-17.7-14.9-24.1
				c-13.9-10.7-28.8-18.3-46.5-18.5c-21-0.2-40.5,4.9-57.9,17.4c-10,7.3-19,15.1-24.9,26.5c-5.4,10.4-6.1,21.5-8.6,32.5
				c-0.7,3.3,1,5.1,3.7,6.5c4.3,2.3,8.6,4.9,11.9,8.8c-1.9,2.4-3.6,3-6.1,2c-9.4-3.6-15.6-10.7-19.8-19.3c-1.6-3.2-0.4-7.7-0.5-11.5
				c0-0.5,0.1-1,0-1.5c-1.3-11.7-2.3-23.4-4-35c-4.2-29.8-15.8-56.7-32.3-81.7c-0.2-0.3-0.8-0.2-1.8-0.5c1.4,4.2,2.8,8.1,4,12
				c2.9,10.1,5.8,20.2,8.6,30.3c4.4,16.5,7.5,33.2,9,50.1c0.9,10,1.1,20,1.5,30c0.2,4,0.2,8.1-0.1,12c-0.2,3.5-2.2,4.6-5.6,3.7
				c-7.4-2-8.7-3.8-8.9-11.6c-0.2-10-2.9-19.4-7.2-28.4c-0.4,5.5-0.5,10.9-0.4,16.3c0.3,13.7-0.6,27.6,2.7,41
				c2.8,11.6,6.1,23.2,9.8,34.6c3.3,9.9,9.6,18.3,15.4,26.8c4.2-2.9,7.7-5.3,11.2-7.6c4.2-2.6,4.6-2.4,7.1,4.1
				c-4.6,2.6-9.3,5.3-14,8c13.1,20.1,55.9,38.6,80,40.2c2.3-3.5,0.2-9.3,5.6-11.3c4.8,3.4,1.4,8.6,3.1,12.7
				c26.1,3.6,51.8,5.4,76.1-6.5c2-7.7-3.5-13.6-4.2-21.3c11.4,1.5,9.8,11.1,12.9,17.7c6.2-3.5,12.3-7,18.3-10.5
				c0.6-0.3,0.8-1.2,1.2-1.8c-11.1-3.6-17.1-11-14.5-19.5c2.4,2.3,4.7,4.1,6.3,6.3c2.5,3.5,5.7,5.5,9.9,6.1
				C451.7,379.5,453.8,380.1,456,380.5 M485.2,227.2c8.8,1,8.8,1,11,9.2c0.7,2.6,1.4,5.3,2,8c0.8,3.5,2.6,5.8,7.1,6.1
				c9.2-14.6,13.2-30.9,14.3-48.1c0.2-2.7,0-5.6-0.5-8.2c-1.2-5.8-3.2-11.6-3.9-17.4c-0.8-6.1-0.6-12.3-0.8-18.5
				c-0.2-5.2,0.8-10.8-0.8-15.4c-2.4-6.8-3.7-13.7-2.6-20.6c0.8-4.6-0.2-8.5-2-12.2c-2.6-5.4-5.7-10.6-9-15.6
				c-1.8-2.6-4.1-5.2-6.8-6.8c-10.3-6-21.5-9.8-33.4-10.2c-9.5-0.3-18.8,1.8-25,9.7c-11.5,14.7-15.8,31.7-12.9,50.1
				c1.9,12.6,5,25,6.6,37.6c1.7,13.4,2.5,26.9,3.3,40.4c0.3,4-0.5,8.2-0.9,13.5c3.6-3,6.3-5.1,8.9-7.3c12.4-1.2,9,9.8,11.8,16.3
				c5-4.9,9.6-9.3,13.9-13.5c7.2,0.6,7.2,6.5,9,11.6C478.3,232.7,481.7,229.9,485.2,227.2 M431.6,69.7c-1.8,3.4-4.1,2.9-6.5,1.6
				c-4.1-2.2-7.1-1-9.5,2.8c-1.1,1.7-2.5,3.2-3.4,5c-4,7.4-1.6,16.3,5.5,20.8c1.9-3.5,3.8-7,5.7-10.6c3.1-5.9,7.4-10.4,13.6-13.4
				c9.2-4.4,18.8-4.8,28.6-3.6c2.9,0.3,5.8,0.8,8.5,1.2c5.8-11,6.9-16.5,6.4-28.8c-0.6-14.1-6.3-17.2-16.2-18.5
				c-6.3-0.8-9.6,0.5-11.3,6.4c-2.3,7.7-4.2,15.5-0.9,23.5c0.3,0.7,0.8,1.5,0.6,2.1c-0.3,1.4-0.6,3.2-1.5,3.9c-0.9,0.6-3,0.3-4-0.4
				c-1.8-1.3-3.1-3.2-4.7-4.7c-2.4-2.2-7.4-2.8-9.8-1c-2.8,2.1-4,5.2-3.1,8.7C430,66.4,430.9,68.2,431.6,69.7 M519.7,121.6
				c-1.9,8.3-1.9,8.6,0.9,16c18.8-1.9,35.4-8.8,49.5-21.4C553.6,120.2,536.8,120.1,519.7,121.6 M530.8,191.5c6.2-4.5,7-6.9,4-13.2
				c-2.7-5.6-5.5-11.1-8.3-16.7c-1.3-2.6-2.7-5.2-4-7.7c-0.6,2.4-0.4,4.4-0.3,6.3c0.2,4.9,0,9.9,0.5,14.8
				C523.5,181.2,524.6,187.4,530.8,191.5 M393,417.9c0,3.6-0.2,6.6,0,9.6c0.6,7.2,1.8,8.3,10.2,9.4c2.7-6.9,1.8-13.9,1.4-21.7
				C400.3,416.2,396.7,417.1,393,417.9 M355.2,417.3c2.7,7.9-2.1,17.1,8.6,22.8c0.5-7.9,1-14.6,1.5-21.5
				C361.8,418.2,359.2,417.8,355.2,417.3"/>
			<path d="M445.6,296c2.7,0.6,4.3,1.8,4.6,4.9c0.6,5.9-1.2,10.9-4.8,15.3c-5.1,6.5-10.3,12.8-15.5,19.2c-1.6,1.9-3,3.9-4.3,5.6
				c0.8,6.7,3.6,12.7,3.2,19.7c-7.8-1.8-6.7-8.8-9.8-13.4c-2,1.4-4,2.6-5.9,4.1c-10,8.1-21.4,14.1-33.4,18.2
				c-12.3,4.2-25.1,6.5-38,1.9c-7.1-2.5-14.2-4.7-21.1-7.5c-3.3-1.3-10.1-5.8-13.3-7.8c-4.8-3-9.3-6.6-14.3-10.3
				c-2,1.1-4.6,2.8-7.3,4c-2.6,1.1-5.3,1.6-8,2.4l-1.2-1.8c1.3-1.6,2.3-3.5,3.9-4.7c4.3-3.2,9-6,13.4-9.1c1.1-0.8,1.9-2.2,2.6-3.5
				c2.1-3.7,4.1-7.5,6.4-11.9c-4-0.7-7.5-2.2-8-6.8c1.2-2.5,2.3-4.9,3.2-6.8c-0.9-3.9-6.5-4.6-4.2-10.1c2.5,0.9,4.9,1.8,8,2.9
				c1.1-1.2,2.5-2.8,3.9-4.4c-5.2-6-5.1-6.7-2.2-13.3c7.6-17.5,21.8-27.8,38.4-35.1c4.2-1.9,9.8-1,14.8-0.6
				c8.6,0.6,16.7,3.4,23.7,8.5c2.5,1.8,4.4,4.3,6.7,6.7c-2.6,2.9-4.3,2.8-6.5,1.3c-3.3-2.2-6.8-4.3-10.5-5.8
				c-14-5.7-27.2-4.7-39.5,4.9c-7.6,5.9-14.9,11.8-19.2,20.7c-0.3,0.7-0.5,1.4-0.7,2.1c0,0.2,0.2,0.4,0.2,0.5c12-1,24-2,36-2.9
				c1.5-0.1,3.3-0.5,4.5,0.2c2.2,1.3,5.4,2.9,5.9,5c0.7,2.9-2.2,4.5-5.2,5.2c-8.8,2.1-17.8,3.9-26.8,2.9c-6.1-0.6-10.2,1.6-13.8,5.6
				c-2.8,3-5,6.5-8.6,11.2c12.4-0.2,23,2,34.1-1.5c0.8,0.6,2.5,1.5,3.4,2.8c2.1,3.4,0.8,6.3-3,8.4c-6.7,3.6-14,3.6-21.2,4
				c-2.2,0.1-4.5,0-7.4,0c-2.5,5-5.1,10.1-7.7,15.3c3.8,6.4,10.3,9.1,16.1,12.1c7.5,3.9,15.8,6.2,23.7,9.1
				c7.6,2.7,14.9-0.2,22.1-1.7c14.2-3.1,26.4-10.7,38.1-19c16.5-11.7,30.3-26.2,42.7-42c1-1.3,1.3-3.2,2-4.7L445.6,296"/>
			<path d="M445.8,295.7c-1.1,0.5-2.6,1.8-3.1,1.5c-2.7-1.8-5.3-3.7-7.5-6c-1.3-1.4-1.8-3.7-2.6-5.5c4.4-2.9,6.2,0.7,9.5,2
				c-1.1-3.5-2.1-6.4-3-9.3c-0.8-2.6-1.8-5.2-2.2-7.9c-0.2-1.2,1-2.6,1.6-3.9c1.5,0.6,3.8,0.9,4.2,2c2.8,6.5,6.4,12.9,2.8,20.5
				c-0.9,1.9,0,4.6,0.1,6.9C445.6,296,445.8,295.7,445.8,295.7"/>
			<path d="M498.7,273.1c-2.9,6.2-6.9,11.2-12,15.3c-1,0.8-2.1,1.6-3.2,1.7c-1,0.1-2.3-0.6-3-1.3c-0.4-0.5-0.2-2.1,0.3-2.6
				c3.6-3.7,7.3-7.4,11.2-10.8C493.6,273.8,495.4,271.7,498.7,273.1"/>
			<path d="M424.2,281.1c-3.7-3.7-10.7-3.5-11.4-10.4c4.5-1.9,8.7-0.8,12.2,3.1C427,275.9,428.4,278.2,424.2,281.1"/>
			<path d="M393.1,366.9c1.6-0.8,3.1-2.3,4.8-2.4c4.1-0.3,9.1,2.3,13.2,6.3c-0.8,1.1-1.6,2.2-2.3,3.1c-5.3-1.6-10.3-3.2-15.2-4.7
				C393.4,368.5,393.3,367.7,393.1,366.9"/>
			<path d="M390.9,260.4c4.9,1.7,11.3,0.8,13.1,8.1c-4.3,3.5-8.1,1.2-11.6-0.9C389.9,266.1,388.4,263.9,390.9,260.4"/>
			<path d="M354.2,375.2c-0.4,6.1-4.5,12-7.9,12.9c-2.2,0.6-4.2-1.3-3.3-3.4c1.1-2.4,2.7-4.8,4.6-6.6
				C349,376.8,351.3,376.4,354.2,375.2"/>
			<path d="M468.5,293.1c0.3,2,0.6,3.2,0.4,3.3c-4.3,2.1-8.7,4.2-13.2,6c-0.6,0.2-2.3-1.1-2.5-1.9c-0.2-0.8,0.7-2.5,1.4-2.8
				C459,296,463.4,294.7,468.5,293.1"/>
			<path d="M481.3,126.3c0.3-4.6-0.7-8.7,3.8-9.3c4-0.5,5.4,3.2,6.6,6.2c0.9,2.3,1.2,4.9,1.3,7.3c0.2,3.3-2.2,5.4-4.9,5.7
				c-1.6,0.2-4.2-1.7-5.1-3.4C481.8,130.5,481.6,127.6,481.3,126.3"/>
		</g>
		<path class="st2" d="M431.6,69.7c-1.8,3.4-4.1,2.9-6.5,1.6c-4.1-2.2-7.1-1-9.5,2.8c-1.1,1.7-2.5,3.2-3.4,5
			c-4,7.4-1.6,16.3,5.5,20.8c1.9-3.5,3.8-7,5.7-10.6c3.1-5.9,7.4-10.4,13.6-13.4c9.2-4.4,18.8-4.8,28.6-3.6c2.9,0.3,5.8,0.8,8.5,1.2
			c5.8-11,6.9-16.5,6.4-28.8c-0.6-14.1-6.3-17.2-16.2-18.5c-6.3-0.8-9.6,0.5-11.3,6.4c-2.3,7.7-4.2,15.5-0.9,23.5
			c0.3,0.7,0.8,1.5,0.6,2.1c-0.3,1.4-0.6,3.2-1.5,3.9c-0.9,0.6-3,0.3-4-0.4c-1.8-1.3-3.1-3.2-4.7-4.7c-2.4-2.2-7.4-2.8-9.8-1
			c-2.8,2.1-4,5.2-3.1,8.7C430,66.4,430.9,68.2,431.6,69.7"/>
		<path class="st2" d="M530.8,191.5c6.2-4.5,7-6.9,4-13.2c-2.7-5.6-5.5-11.1-8.3-16.7c-1.3-2.6-2.7-5.2-4-7.7
			c-0.6,2.4-0.4,4.4-0.3,6.3c0.2,4.9,0,9.9,0.5,14.8C523.5,181.2,524.6,187.4,530.8,191.5"/>
	</g>
</g>
</svg>
