<?xml version="1.0" encoding="utf-8"?>
<!-- Generator: Adobe Illustrator 19.1.0, SVG Export Plug-In . SVG Version: 6.00 Build 0)  -->
<svg version="1.1" id="Calque_1" xmlns="http://www.w3.org/2000/svg" xmlns:xlink="http://www.w3.org/1999/xlink" x="0px" y="0px"
	 viewBox="0 0 849.2 280.8" style="enable-background:new 0 0 849.2 280.8;" xml:space="preserve">
<style type="text/css">
	.st0{fill:#009DBF;}
	.st1{fill:#D0095B;}
	.st2{fill:#009EC0;}
	.st3{fill:#D1005A;}
	.st4{fill:#C0BFBF;}
	.st5{enable-background:new    ;}
	.st6{fill:none;stroke:#D0095B;stroke-width:3;stroke-miterlimit:10;}
	.st7{fill:#FFFFFF;stroke:#D0095B;stroke-width:3;stroke-miterlimit:10;}
	.st8{fill:#FFFFFF;}
</style>
<g>
	<g>
		<path d="M712.2,118c8.8,0.2,16.9-0.5,25.1-0.9c1.1-5.4,2-10.2,3-15.3c-1.5-0.8-3.1-1.4-4.7-2.3c-9.3-5.2-16.7-12.4-21.5-22.1
			c-2.7-5.5-3.1-11.3-2.3-17.3c1.2-10.1,6.4-18.3,13.2-25.5c5.5-5.8,12.8-8.9,20.6-10.5c2.6-0.5,2.8-0.3,4.6,2.6
			c-0.7,0.4-1.3,0.9-2,1.1c-4.5,1.6-9.3,2.6-13.5,4.7c-12.4,6.3-22,23.2-19.3,37.9c1.1,5.8,4,10.5,7.8,14.7
			c7.5,8.3,17,12.9,28.2,14.8c6.9,1.2,13.8,2,20.8,2.5c9.7,0.7,18.9-1.5,27.9-5.5c5.1-2.3,9.8-4.7,14.1-8.2
			c8.8-7.2,14-16.7,17.6-27.3c1-3,0.5-5.9,0.3-8.9c-0.5-5.9-1.3-11.7-3.4-17.3c-3.1-8.3-7.8-15.3-15.4-20.2c-1.6-1-3.1-2.3-4.7-3.3
			c-3.9-2.5-8.3-3.5-12.9-3.7c-4-0.1-8-0.3-11.9-0.6c-3.1-0.3-3.5-1-3.4-4.3c3.6,0.2,7.3,0.5,10.9,0.7c2.9,0.2,5.7,0.4,8.6,0.7
			c4.3,0.5,8.1,2.3,11.8,4.6c12.2,7.7,19.3,18.8,22.2,32.8c0.6,3.1,1.1,6.2,1.6,9.3c1.8,12.4-3.8,22.4-10.3,32.1
			c-1.9,2.8-4.5,5.1-6.9,7.6c-1,1-2,1.9-1.7,3.5c1.3,5.3,2.6,10.6,3.8,15.6c6.4,0,12.1,0.3,17.8-0.1c4.5-0.3,8.4,1.9,8.2,6.8
			c-0.1,3.7-0.1,7.4,0,11.1c0.1,7.7,0.3,15.3,0.5,23c0.2,8.1,0.5,16.2,0.9,24.3c0.4,8.1,0.9,16.1,1.4,24.2c0.1,2-0.4,3.6-2.5,4.2
			c-2.7,0.9-5.5,1.8-8.2,2.6c-1.1,0.3-2.3,0.6-3.6,0.8c0,1.4-0.1,2.4,0,3.5c0.5,4.3,1.2,8.7,1.7,13c0.3,2.1-0.5,4-2.6,4.6
			c-3.8,1.2-7.4,2.5-11.8,2.3c-8.2-0.5-16.4,0.7-24.6,1.2c-0.2,0-0.5,0.2-1,0.5c-0.6,5.9-1.6,12-0.3,17.8c3.7,0.9,7.2,1.6,10.6,2.6
			c2.5,0.7,3.2,2.9,1.9,5.2c-0.8,1.4-1.4,2.9-2.3,4.3c-1.3,2.2-2.7,4.4-4.2,6.5c-0.9,1.3-2.1,2.5-3.1,3.8c-1.3,1.7-3.4,2.3-5.4,1.3
			c-1.5-0.8-2.2-2.2-2.2-4c0.2-8.1,0.2-16.2,0.3-24.2c0-2.7,0.2-5.5,0.3-8.2c0-1.9,0-3.8,0-6.3c-11.2,0.5-21.9,0.9-32.9,1.4
			c-0.1,1.3-0.2,2.3-0.2,3.2c0,4.1,0.4,8.3,0,12.3c-0.6,7.6,1.6,14.7,3.1,21.9c0.8,3.6,0.4,4.5-2.3,5.6c-1.7,0.7-4.9-0.1-6.1-1.6
			c-2.3-2.9-4.5-5.9-6.8-8.8c-3.3-4-2.5-7.3,2.3-9.5c1.8-0.9,3.5-2.1,5.4-3.2c0.1-3.1,0.4-6.3,0.4-9.4c0-3.1-0.3-6.3-0.5-9.9
			c-3.1,0-5.9-0.1-8.7,0c-3.6,0.1-7.1,0.4-10.7,0.4c-5.1,0-6.9-1.8-6.8-7c0.1-3.4,0.4-6.8,0.5-10.2c0.1-1.2,0-2.4,0-4
			c-1.5-0.1-2.8-0.3-4.2-0.4c-3.4-0.3-6.8-0.5-10.2-1c-3.2-0.5-4.7-2.6-5.2-6c-0.7-5.5,0.6-19.6,0.6-21.2c0-4.5,0-9,0.2-13.5
			c0.3-6.7,1-13.4,1.3-20.1c0.2-5.7,0.1-11.5,0.2-17.2c0-2.3,0.4-4.6,0.5-7c0-1.5-0.2-3-0.3-4.4C712.5,120.3,712.4,119.4,712.2,118z
			 M841.8,114.1c-3.1,0.2-5.6,0.4-8.1,0.5c-8.6,0.2-17.2,0.1-25.8,0.5c-7.7,0.4-15.3,1.1-22.9,1.8c-6.7,0.7-13.3,1.7-20,2.4
			c-7.2,0.7-14.4,0.8-21.5,1.8c-3.1,0.5-6,0.8-9.2,0.6c-5.4-0.3-10.9,0.5-16.2,0.9c-1.4,4.1-1.9,7.9-1.9,12
			c0.2,7.5-0.3,15.1-0.5,22.6c-0.1,3.4-0.3,6.8-0.6,10.8c5.4-0.4,10.4-0.8,15.5-1.2c0-2.5,0-4.4,0-6.3c-0.1-2,0.6-3.1,2.8-3.3
			c2-0.2,4-0.7,6.1-0.9c3.7-0.5,5.7,1.2,6,5c0.1,1.1,0.1,2.1,0.3,3.9c10.3-0.4,20.4-1,30.4-1.3c10.2-0.2,20.5-0.4,31-0.5
			c0-2.4,0.1-4.4,0-6.5c-0.1-1.8,0.7-2.9,2.5-3.2c2.2-0.4,4.3-0.8,6.5-0.9c4.4-0.2,5.9,1.5,5.8,5.9c0,1.3,0.1,2.6,0.2,4.1
			c7.3,0.5,14.2,0.2,21.2-0.4c0-2.2,0.1-3.8,0-5.5c-0.4-10.3-1.8-20.5-0.8-30.8c0.3-2.6,0.2-5.2,0-7.8
			C842.5,117.1,842.1,115.7,841.8,114.1z M715.1,175.9c0,2.2,0.1,4.2,0,6.3c-0.3,5.7-0.7,11.5-1,17.2c-0.3,6,0.5,6.9,6.5,7.3
			c0.7,0,1.4,0.1,2.1,0.1c8.2,0,16.3-0.5,24.5-0.3c6.6,0.2,13.2,0.3,19.7,0.1c12.9-0.4,25.8-1.2,38.6-1.7
			c10.9-0.4,21.6-1.9,32.2-3.9c2.4-0.4,4.6-1.3,6.8-2c-0.3-10-0.6-19.4-0.8-28.6c-7.5,0.5-14.4,0.9-21.4,1.4c-0.7,3.1-1.4,6.1-2,8.5
			c-3.3,0.7-5.9,1.3-8.6,1.8c-3,0.5-3.8-0.1-4.1-3c-0.3-2.8-0.7-5.6-1-8.4c-4.5-1-54.4,2.2-59.9,3.5c-0.6,2.5,1.4,5.5-1.4,7.7
			c-3,0.3-6.1,0.7-9.2,0.9c-4.8,0.3-5.8-0.6-6.4-5.3c-0.1-0.6,0-1.2,0-1.7C724.8,175.9,720.2,175.9,715.1,175.9z M831.5,211.2
			c-7.2,2.4-13.8,2.2-20.4,2.3c-9,0.1-18.1-0.1-27.1,0.2c-16.4,0.6-32.8,1.4-49.2,2.1c-0.3,0-0.7,0.4-0.9,0.6
			c-1,5.1-0.8,7.6,0.7,10.8c6.7,1.1,13.3,0.6,20,0.2c7.8-0.6,15.6-0.8,23.4-1.2c7.8-0.4,15.6-1,23.4-1.4c7-0.4,13.9-0.6,20.9-0.9
			c1.2,0,2.4,0.1,3.7,0.1c2,0,4-0.1,6.4-0.2C832,219.3,831.8,215.6,831.5,211.2z M801.4,105.1c-15.7,5.3-31.1,7.6-47.5,4.8
			c-0.3,1.7-0.6,3.7-1,6.1c5.6-0.5,10.6-0.8,15.6-1.4c10.6-1.2,21.2-2.4,31.8-3.7c0.7-0.1,1.5-0.4,2.5-0.6
			C802.3,108.5,801.9,107,801.4,105.1z M811.2,158.7c0,5,0,9.8,0,14.8c1.5,0,2.6,0,3.6,0c0-5.1,0-10.1,0-15.3
			C813.5,158.4,812.4,158.5,811.2,158.7z M813,95.2c-3.5,2.1-6.2,3.7-9,5.4c0.7,1.8,1.2,3.1,1.8,4.5c3-0.5,5.6-0.9,8.6-1.4
			C814,101.1,813.6,98.6,813,95.2z M738.1,161.8c-2-0.3-3.1,0.2-3.2,1.7c-0.1,4,0,8.1,0,12.1c2.3,0.5,3.5-0.7,3.5-3
			C738.4,169,738.2,165.4,738.1,161.8z M750.1,104.1c-1.9-0.4-3.5-0.8-5.4-1.2c-0.7,2.8-1.2,5.2-1.8,7.7c2.5,0,4.5,0,6.5,0
			C749.6,108.4,749.8,106.4,750.1,104.1z"/>
		<path d="M382.2,106c1.1-4.7,2.1-8.8,3.2-13c-2.2-1.2-4.2-2.1-6-3.3c-17.1-11.5-25.4-27.5-24.2-48.2c0.1-1.9,0.8-3.7,1.6-5.5
			c1.5-3.4,3.2-6.7,4.9-10c2.3-4.5,6.4-7,10.9-8.9c1.9-0.8,2.8,0,3.1,2.1c-3.7,1.9-7.5,3.9-9.9,7.5c-6.2,9.2-9.1,18.8-6,29.9
			c2.9,10.5,8.2,19.5,16.5,26.4c5.5,4.6,12,7.6,19.4,8.2c2,0.2,3.9,1.3,5.9,1.5c10,0.7,19.8-0.5,29.3-3.3c7.5-2.2,13.6-7,19.6-11.9
			c1.6-1.3,3.1-2.7,4.6-4.1c2.3-2.2,4.3-4.6,5.1-7.8c0.4-1.4,1-2.8,1.8-4.1c4.5-7.5,4.2-15.2,1.9-23.4c-2.7-9.5-8.9-16.5-15.4-23.5
			c-1.3-1.4-3-2.5-4.7-3.2c-6.8-3-13.5-6.2-20.9-7.3c-4.4-0.7-8.7-0.1-13,1c-2.8,0.7-3.5,0.1-4-3.5c9-2,18-2.8,26.9,0.9
			c1.1,0.5,2.3,1.1,3.4,1.4c12.5,3.4,20,12.7,26.3,22.9c5.6,9,8.2,19.3,5.5,29.6c-1.8,7-5,13.9-10.4,19.2c-3.3,3.3-6.6,6.5-10,9.8
			c1.8,5.6,3.7,11.3,5.7,17.5c5.9,0.4,11.9,0.9,17.9,1.3c2.3,0.2,4.6,0.3,7,0.4c1.2,0,2.3-0.2,3.8-0.4c1.4,0.9,2.2,2.4,2.2,4.6
			c-0.1,13.6,2.4,27,3.6,40.5c0.8,8.9,1.9,17.7,2.9,26.6c0.4,3.7,0.8,7.4,0.8,11.1c0,5.1-1.1,6.1-6.1,6.9c-6.2,1-12.3,2-18.5,3.1
			c-1.1,0.2-2.1,0.6-3.4,1c0,5.6,0.1,11.2,0,16.8c-0.1,4.3-0.5,4.6-4.8,4.9c-5,0.3-10.1,0.5-15.2,0.7c-1.4,0.1-2.7,0.3-4.5,0.5
			c-0.7,9.9,2.1,19.6,1.4,29.7c4.3,1,4.5,4.1,4.4,7.6c-0.1,4,0,7.9,0.2,11.9c0.1,1.7-0.7,2.6-1.9,3.4c-2.8,1.9-8.2,0.3-9.5-2.9
			c-0.7-1.6-1.2-3.4-1.5-5.1c-0.7-4.2-1.2-8.4-1.8-12.4c1.6-2.9,4-1.6,6.6-1.4c-0.1-10.3-0.5-20.4-1.7-30.8
			c-10.3,0.3-20.4-0.7-30.6,0.8c0.2,10,0.3,19.7,0.6,29.5c0,0.9,0.7,1.9,1.3,2.7c1.2,1.6,2.1,3,1.8,5.2c-0.2,1.4,0.3,2.9,0.5,4.4
			c0.2,1.5,0.4,3,0.3,4.5c-0.4,5-11.3,8-12.9,3.1c-1.5-4.5-3.5-19.9,5.6-18.2c-0.3-10.5-0.5-21-0.8-32c-2.3,0.2-4,0.5-5.8,0.4
			c-3.1-0.1-6.3-0.1-9.3-0.7c-3.4-0.7-4.3-2.3-4-6.1c0.3-4.1,0.7-8.2,0.9-12.3c0.1-1.6,0-3.3,0-4.9c-3.1-2-6.5-1.4-9.7-2.1
			c-2.5-0.6-5.2-0.8-7.7-1.3c-3.7-0.8-5.4-2.4-5.7-6c-0.7-6.7-1.3-13.3-1.7-20c-0.5-7.4-1.2-14.8-1.3-22.2
			c-0.1-8.8,0.4-17.5,0.7-26.3c0.1-2.1,0.2-4.1,0.4-6.2c0.1-1.8,1.6-3.3,3.2-3.6C367.8,108.6,374.9,107.3,382.2,106z M403.8,150
			c10.9,0,21.7,0,32.3,0c0.3-0.6,0.5-0.8,0.5-1.1c0.7-5.4,0.7-5.4,5.9-5.6c1.1,0,2.2-0.2,3.3-0.3c2.1,0,4.2,0,6.7,0
			c0.2,2.8,0.4,5.2,0.7,7.9c10.2,0.9,20.3,0.2,30.6,0.3c-0.4-5-0.8-9.4-1.2-13.9c-0.7-8.2-1.5-16.4-2.2-24.6
			c-0.2-2.8-1.2-4.1-3.8-4.3c-7.5-0.5-15-1.2-22.6-1.2c-15.9,0-31.8,0.6-47.7,0.6c-15.3,0-30.1,3.3-44.9,6.7
			c-1.1,12-1.2,23.7-0.6,35.7c8.8-0.3,17.2-0.5,25.6-0.8c-2.3-3.8-1.8-5,2.5-5.7c1.2-0.2,2.5-0.2,3.7-0.3c2.8-0.2,5.7-0.3,9.2-0.5
			C404.3,144.2,402.9,147.7,403.8,150z M452.6,158.5c-0.2,1.5-0.3,2.7-0.4,3.9c-0.3,3.2-1.4,4.4-4.6,4.6c-1.9,0.1-3.9,0-5.7,0.2
			c-3.9,0.5-5.5-1-5-5.2c0.2-1.6,0.4-3.2-0.9-4.5c-10.8,0-21.4,0-32.2,0c-0.2,1.2-0.4,2-0.4,2.8c-0.2,3.6-1.3,5.3-4.8,6.1
			c-2.4,0.6-4.9,0.7-7.3,0.8c-2.7,0-3.4-0.7-3.7-3.3c-0.2-1.8-0.2-3.7-0.3-5.9c-8.8,0.3-17.2,0.6-25.9,0.8c0,1.5-0.1,2.5,0,3.4
			c0.8,8.4,1.6,16.9,2.4,25.3c0.1,1.5,0.9,2.3,2.3,2.5c8.7,1.2,17.3,2.7,26,3.2c12.2,0.8,24.4,0.7,36.6,1
			c14.2,0.4,28.5,1.2,42.6-1.8c5.2-1.1,10.4-2.1,16-3.2c0-10.5-0.9-20.7-2.8-30.8C473.7,158.5,463.4,158.5,452.6,158.5z
			 M385.3,216.7c2.1,0.2,3.7,0.6,5.3,0.6c4.9,0,9.9-0.1,14.8-0.2c10.1-0.2,20.3-0.3,30.4-0.6c7.1-0.2,14.2-0.7,21.3-1
			c2-0.1,3.2-0.9,3.2-2.9c0.1-2.7,0.3-5.5,0.1-8.2c-0.2-2.9-1-3.5-4-3.2c-2.7,0.3-5.4,1.1-8.1,1.1c-8.8,0-17.5-0.2-26.3-0.4
			c-10.1-0.2-20.3-0.5-30.4-0.7c-1.9,0-3.7,0-5.8,0C385.8,206.5,385.6,211.2,385.3,216.7z M394,104.3c15.3-0.5,29.8-1,44.6-1.5
			c-0.4-1.7-0.5-2.7-0.8-3.8c-0.3-1-0.6-2-1-3.3c-13.5,3.7-26.9,6.5-40.8,5.2C395.4,101.8,394.8,102.7,394,104.3z M398.5,158.9
			c0.5-4,0.2-7.6-0.3-11c-2.9,0-5.3,0-7.9,0c0.4,4,0.8,7.7,1.2,11.6C394.1,159.3,396.1,159.1,398.5,158.9z M448,147.4
			c-2.9,0.2-5.2,0.3-8.2,0.4c1.6,3.2,1,5.9,0.4,8.6c-0.1,0.5,0.4,1.2,0.6,1.8c2.3-0.2,4.5-0.4,6.7-0.5
			C447.6,154.3,447.8,151.1,448,147.4z M447.1,95.9c-1.1-3-2.1-5.7-3.2-8.6c-1.8,1.2-3.2,2.1-4.6,3c0.7,2.2,1.4,4,1.9,5.6
			C443.2,95.9,444.8,95.9,447.1,95.9z M388.5,98c2.5,1.1,3.8,0.6,4.1-1.5c0.1-0.5-0.7-1.5-1.2-1.6C388.6,94.2,389.5,96.7,388.5,98z"
			/>
		<path d="M93.3,100.3c2.3,5.8,4.6,11.5,6.8,17.2c0.6,1.4,1.6,2.1,3,2.4c6.3,1.4,12.5,3.2,18.8,4.3c3.1,0.6,4.3,2.2,4.5,4.8
			c0.5,6.1,0.8,12.3,1.2,18.5c0.2,3.7,0.6,7.4,0.4,11.1c-0.3,5.6-0.8,11.2-1.6,16.7c-0.7,4.9-2.1,9.6-3.2,14.4c0,0.1,0,0.3-0.1,0.4
			c-1.6,8.2-2,8.6-10,11.5c-0.4,0.1-0.7,0.4-1.5,0.7c2.6,8.4,5.2,16.8,8,25.7c-1.3,0.2-2.3,0.5-3.3,0.6C114,229,97,231,92,231
			c-2.6,0-5.1,0.4-8.2,0.7c-0.1,3.1-0.3,6.1-0.1,9c0.4,6.8,1,13.7,1.7,20.5c0.1,1.2,0.9,2.2,1.3,3.4c0.6,1.8,1.3,3.5,1.6,5.3
			c0.3,1.9,0.2,3.8,0.2,5.7c0.1,2.2-4.2,3.3-4.7,3.4c-2.6,0.3-3.6-0.3-4.3-2.5c-0.7-2.4-1.4-4.7-2-7.1c-0.2-0.6-0.1-1.3,0-2
			c0.3-1.5,0.7-3,1.3-5.1c2.3-1.1,2.1-3.5,1.9-6.3c-0.6-7-0.9-14-1.2-20.9c-0.1-1.1,0-2.1,0-3.8c-9.3,0.4-18.2,0.7-27.5,1.1
			c0.2,4.3,0.2,8.2,0.6,12.2c0.3,3.7,0.9,7.3,1.6,11c0.7,4.2,1,8.4,2.7,12.4c1.4,3.2,1.2,6.7,0.4,10.4c-2,0.7-4.1,1.5-6.8,2.5
			c-2.1-5.2-3.2-10.1-3.3-15.3c1.4-0.6,2.6-1.2,4.1-1.9c-1.2-10.2-2.3-20.3-3.5-30.8c-0.5-0.1-1.2-0.3-1.8-0.3
			c-7.5,0.5-15,1.1-22.6,1.5c-1.9,0.1-3.8-0.2-5.6-0.6c-2-0.5-2.9-2-2.5-4.1c0.9-6.1,1.8-12.2,2.7-18.3c0.2-1.3,0.2-2.6,0.3-4
			c-5.2-0.6-10.1-0.5-13.8-3.4c-0.1-1.8,0.2-3.5-0.4-4.9C1.1,192,0.3,184.9,0,177.5c-0.2-7.5,0.6-14.9,0.2-22.4
			c-0.2-4.6,1-9.3,1.6-13.9c0.4-3.1,1.1-6.2,1.4-9.3c0.1-1.3-0.7-2.7-1.2-4.5c0.9-0.4,1.8-1,2.8-1.3c6.6-1.8,13.2-3.7,19.9-5.3
			c2-0.5,3-1.3,3.6-3.3c1.1-3.9,2.7-7.8,4-11.7c0.6-1.7,0.9-3.4,1.4-4.9c-3.5-3.2-6.7-6.2-10-9c-4.5-3.8-7-8.9-8.1-14.4
			c-2.6-12.7,0.3-23.8,9.8-33.1c8.2-8,17.9-13,29-15.5c4.2-1,5.6-0.3,7.2,3.3C48.1,32.4,37.4,38.7,28,47.5c-5.6,5.3-9.1,12.1-9.7,20
			c-0.6,8,1.8,15,7.3,21.1c10.5,11.5,23.7,15.8,38.6,14.8c14.2-0.9,27.4-5.5,38.7-14.6c6.5-5.3,10.1-12.1,9.3-20.5
			c-0.5-5.1-2.4-10.1-4.1-15c-2.7-7.9-8.8-13.2-15.6-17.4c-2.5-1.5-5.7-1.9-8.5-2.8c-1.3-0.4-2.7-0.5-4-1.1
			c-0.6-0.3-1.4-1.5-1.2-1.8c0.4-0.7,1.3-1.5,2-1.5c5.6,0.2,10.9,1.6,15.5,4.8c8.9,6.2,14.7,14.5,17.5,25.1c1.7,6.3,3.1,12.4,1.5,19
			c-1,4-2.8,7.4-5.5,10.4c-4.2,4.4-9,7.9-14.3,10.9C94.9,99.2,94.2,99.7,93.3,100.3z M123.9,158.3c-0.3-8.5-0.5-16.3-0.8-24.1
			c-0.2-5.5-0.5-5.9-6-7.1c-6.7-1.5-13.4-2.7-20.2-4c-15.4-2.8-30.9-2.4-46.3-1.2c-4.9,0.4-9.8,1.5-14.7,2
			c-2.9,0.3-13.3,1.7-16.7,2.6c-2.4,0.7-4.7,1.7-7.1,2.1c-3.3,0.7-4.5,2.9-4.9,5.8c-1.3,9.4-3,18.7-2.3,28.5
			c6.7,0.3,13.3-0.7,19.8-1.8c0.2-1.8,0.4-3.2,0.6-5c3.4-0.4,6.7-0.7,9.9-1c1.9-0.2,3.1,0.8,3.8,2.5c0.3,0.9,0.5,1.8,0.6,2.3
			c5.4,0,10.4,0,15.5,0c7.5,0,15,0,22.6,0c1.5,0,3.1-0.3,4.7-0.5c-0.2-1.2-0.3-1.9-0.3-2.6c0-0.8,0.1-1.5,0.2-2.3
			c2.3-0.3,4.3-0.5,6.3-0.9c3.2-0.5,4.4,0.3,5.2,3.5c0.2,0.6,0.4,1.3,0.6,2.1C104.1,159,113.7,158.7,123.9,158.3z M93.8,177.7
			c-8.3,1-9.1,0.5-10.5-6.2c-0.1-0.5-0.1-1.1,0-1.6c0.3-1.9-0.8-2.5-2.4-2.5c-3.6,0-7.1,0-10.7,0.1c-6.7,0.2-13.4,0.6-20,0.9
			c-3.8,0.1-7.6,0-11.3,0c-0.2,3.3-0.3,6.3-0.4,9.3c-3.8,0.5-7,0.9-10.3,1.3c-0.4-0.5-0.7-1-1.1-1.3c-2-1.7-3.4-3.6-1.6-6.3
			c0.3-0.4-0.4-1.4-0.7-2.2c-6.7,0.5-13.2,1-19.4,1.5c-0.3,0.7-0.5,0.9-0.6,1.2c-1.1,10.1,0.6,19.7,4.8,28.8
			c0.3,0.7,1.3,1.4,2.1,1.6c1,0.3,2.2,0.2,3.3,0.3c3.7,0,7.4-0.2,11.1,0.1c4.4,0.3,8.7,1.2,13,1.5c6.7,0.5,13.4,0.6,20.1,0.9
			c10.2,0.4,20.3-1,30.2-3.1c9.1-2,18.3-3.6,26.5-8.4c1.6-0.9,2.5-1.9,2.9-3.6c1.4-6.1,2.8-12.3,4.1-18.5c0.3-1.4,0-2.9,0-4.4
			c-0.8-0.1-1.3-0.3-1.8-0.3c-7.5,0-15-0.1-22.5-0.1c-0.9,0-1.8,0-2.9,0C95.6,170.5,96.6,174.3,93.8,177.7z M19.2,230
			c32.1-2.8,63.7-2.7,95.8-4.6c-2.3-7.7-4.5-14.7-6.7-22c-2.5,0.8-4.4,1.4-6.3,1.9c-5.5,1.5-10.4,4.7-16.3,5.2
			c-6.7,0.5-13.3,1.7-20,2.4c-5.3,0.5-10.6,0.8-15.9,0.9c-7.7,0.2-15.4,0.1-22.8-2.1c-1.5-0.5-3.1-0.6-4.9-1
			C19.8,217.1,19.5,223.1,19.2,230z M76.6,108.5c-8.4,2-16.7,3.2-25.4,1.3c-0.6,2.5-1,4.8-0.1,7c9.2,0,18.2,0,27.5,0
			C77.9,113.8,77.3,111.4,76.6,108.5z M39.7,105.9c-1.5,0.6-3.1,0.7-3.4,1.4c-1.6,3.7-2.9,7.6-4.5,12.1c2.4-0.1,4-0.2,5.6-0.2
			c0.8-3.3,1.6-6.4,2.3-9.4C39.9,108.8,39.7,107.8,39.7,105.9z M87.6,105.9c1.3,4.3,2.5,8.3,3.7,12.4c1.7,0,3.1,0,4.9,0
			c-1.9-5-3.7-9.6-5.6-14.4C89.5,104.6,88.8,105.1,87.6,105.9z M29.2,160.2c0.2,4,0.3,7.3,0.5,10.7c1.5,0,2.8,0,4.2,0
			c0.2-3.8,0.4-7.4,0.7-11.3C32.6,159.9,31.1,160,29.2,160.2z M86.4,158.9c0.3,3.9,0.6,7.5,0.9,11.3c1.5-0.1,2.7-0.1,4.5-0.2
			c-0.7-3.9-1.4-7.4-2.1-11.2C88.6,158.8,87.6,158.9,86.4,158.9z M84.6,111.4c-0.8-5.8-1-6.2-4.1-6.4c0.3,2.2,0.7,4.2,1,6.3
			C82.7,111.3,83.6,111.4,84.6,111.4z M44.8,105.2c-0.3,2.4-0.6,4.3-0.8,6.2c2,0.9,2.7-0.1,2.8-1.4C47,108.4,48,106.5,44.8,105.2z"
			/>
		<path d="M618.4,251.5c0.8-14.1,0.1-28.1-2.3-42.2c-9.8,0.6-19.4,1.1-29.1,1.6c-0.2,1.1-0.4,1.9-0.4,2.7c0,10.4,0.1,20.9,0.1,31.3
			c0,2.1,0,3.9,1.9,5.5c0.8,0.7,1,2.4,1,3.7c0,3.5-0.4,7.1-0.5,10.6c-0.1,4-4.3,7.5-8,6.3c-1-0.3-2.3-1.5-2.5-2.4
			c-0.8-4-1.3-8.1-1.6-12.2c-0.1-1.8,0.6-3.7,1-5.8c1.3-0.4,2.8-0.8,4.4-1.3c-0.2-12.6,0.7-25.1,0.1-37.9c-3.7,0-6.6,0-9.6,0
			c-3.8,0.1-7.7,0.3-11.5,0.2c-1.9,0-3.1-1-3.1-3.1c0-0.7,0-1.4,0.1-2.1c0.9-6.4,1.8-12.8,2.9-19.1c0.4-2.2-0.2-3.6-2.2-4.2
			c-7.3-1.9-8.9-7.4-9.1-13.8c0-1,0-1.9,0.1-2.9c1.4-13.5,1.7-27.1,3.9-40.5c0.5-3.3,1.8-6,3.3-8.9c2.8-0.4,5.8-0.7,9-1.1
			c1.5-4.5,2.9-8.8,4.5-13.5c-7.4-2.4-12.3-7.7-17-13.3c-3.8-4.4-5.4-9.6-5.8-15.1c-0.5-6.5,0.7-12.8,3.3-18.9
			c1.5-3.6,4.5-5.4,7.5-7.3c1.3-0.8,2.7-0.7,3.5,0.8c0.9,1.6-0.2,2.4-1.3,2.9c-4.8,2.1-6.9,6.2-8,10.8c-3.3,14.3-0.1,23.2,11.2,31.8
			c3.2,2.4,7.7,3.7,11.8,4.3c10.7,1.5,21.3,1.1,31.9-1.6c8.4-2.1,15.9-6.2,22.3-11.9c5.1-4.5,8.8-10.1,10.4-17.3
			c1.6-7.1,1.2-13.8,0.1-20.8c-1.1-7.3-5.7-12-11.9-15.3c-11.7-6.2-24.1-7.8-37.1-5.2c-4.4,0.9-8.8,2-13.2,3.1
			c-1.3,0.3-2.5,1.1-3.7,1.7c-1.1,0.5-2.2,0.8-3.3,1.3c-0.4-3.6,0.7-5.5,3.9-6.3c7.6-1.8,15.1-3.8,22.8-5c4.4-0.6,9,0,13.5,0.6
			c6.8,0.9,13.2,3.2,19.3,6.6c8.1,4.5,12.1,11.3,13.4,20c0.5,3.5,0.8,7.1,1.2,10.6c0.1,0.5,0.2,1.1,0.1,1.6
			c-1.2,7-1.9,14.1-6.3,20.2c-2.9,4-5.9,7.9-10.3,10.6c3.3,8.2,6.5,16.1,9.7,24.1c4.3-0.1,7.6,1.8,10.6,3.9c4,2.8,5.6,6.9,5.6,11.7
			c0.1,7.3,0.4,14.5,0.1,21.8c-0.3,7.1-0.8,14.2-1.9,21.2c-0.8,4.8-3.7,8.7-8.8,10.8c1.2,7.1,2.5,14.2,3.7,21.5
			c-9.2,3.4-18.5,2.1-28.1,2.3c0.2,2.5,0.4,4.6,0.6,6.7c0.7,7.6,1.6,15.3,2.2,22.9c0.2,3.1-0.1,6.3-0.2,9.5c0,1.6,0.2,2.9,1.8,3.9
			c1.4,0.8,1.8,2.2,1.9,3.9c0.1,3.4,0.5,6.8,0.8,10.3c0.3,3.9-1.1,5.8-4.9,5.3c-1.3-0.2-6.5-1.4-6.8-3.8c-0.4-3.3-0.8-6.5-1.1-9.8
			C614,253,614.1,253,618.4,251.5z M651.1,149.6c0-7.1,0.1-13.6,0-20c-0.1-2.9-1.2-5.4-3.8-6.9c-5-2.9-10.6-4.1-16.1-5.6
			c-0.3-0.1-0.5-0.1-0.8-0.1c-11.4,0-22.8-0.1-34.1,0.2c-7.2,0.2-14.5,0.9-21.7,1.7c-5.2,0.6-10.4,1.8-15.7,2.8
			c-1.1,9.2-3.2,18.7-3.1,28.7c5.5,0,10.7,0,15.8,0c0.7-3.1-1.7-6.3,0.6-8.5c4.3-0.4,8.2-0.7,12.3-1.1c2.7,2.4,2.9,6,3.6,9.7
			c7.8,0,15.4,0,23.3,0c-0.5-1.6-0.8-2.9-1.3-4.2c-0.6-1.9-0.1-3.3,1.9-3.8c1.9-0.6,3.9-1.3,5.9-1.3c2.8,0,5.9,0.2,8.4,1.3
			c2.4,1,1.5,4.1,1.9,6.3c0,0.2,0.3,0.4,0.7,0.9C636.1,149.7,643.7,151.3,651.1,149.6z M569.6,158.5c-4.9,0-9.7,0-14.6,0
			c-0.2,3.7-0.3,7.1-0.6,10.5c-0.5,6.8,1.2,9.3,7.8,10.8c3.5,0.8,7,1.1,10.6,1.4c6.6,0.5,13.1,0.9,19.7,1.1c4.4,0.2,8.8,0,13.1,0
			c4.7,0,9.3,0.2,14-0.1c7.2-0.5,14.4-1.6,21.7-2c3.3-0.2,5.4-1.5,7.1-4.1c3.7-5.9,2.8-12.5,3-18.5c-8,0-15.5,0-23,0
			c-0.4,2-0.8,3.7-1,5.5c-0.3,2.3-1.7,3.6-3.7,3.8c-3,0.4-6,0.4-8.9,0.2c-0.6,0-1.4-1.2-1.7-2c-0.6-1.9-1-3.9-1.5-6.1
			c-8,0-15.9,0-23.8,0c-2,5.6-5.8,8-11.5,7.3C571.6,165.9,570.3,164.4,569.6,158.5z M641.2,187.5c-1.2,0.2-2,0.2-2.7,0.5
			c-6.7,2.3-13.7,2.4-20.6,2.9c-6.3,0.4-12.6,0.3-18.9,0.4c-7.5,0.2-15,0.4-22.6,0.5c-1.2,0-2.4-0.3-3.7-0.5
			c-2.5-0.4-5.1-0.7-7.8-1.1c-1.7,5.6-1.3,10.8-1.1,16.5c9-0.2,17.3-0.4,25.7-0.7c14.2-0.6,28.5-1.3,42.7-2
			c3.9-0.2,7.9,0.1,11.6-1.8C642.9,197.4,642.1,192.7,641.2,187.5z M577.9,113.9c8.4-0.5,15.9-1,23.4-1.2c7.5-0.2,15.1-0.1,23.2-0.2
			c-2.2-3.5-4-6.3-5.9-9.4c-12.4,4-25.2,4.2-38.2,3.9C579.6,109.2,578.9,111.2,577.9,113.9z M616.4,160.9c1.9,0,3.3,0,5.3,0
			c0.2-4.2,0.4-8.2,0.6-12.2c0.1-1.8-0.4-2.9-2.5-2.9c-2.5,0-4.1,0.9-4,2.8C615.8,152.6,616.1,156.6,616.4,160.9z M620.1,97.5
			c1.5,2.7,2.9,5.2,4.2,7.7c1.5,3.1,3.9,4,7.4,2.6c-2-4.6-3.9-9.2-6-14.1C623.6,95.2,622,96.3,620.1,97.5z M580,158.8
			c0.3-4.4,0.5-8.3,0.8-12.6c-1.9,0.2-3.3,0.4-4.8,0.6c0,4.2,0,8,0,12C577.5,158.8,578.5,158.8,580,158.8z M577.1,103.4
			c-3.4,0.6-2.8,3-3.7,4.4c-0.2,0.2,0.4,0.9,0.9,2C575.3,107.5,576.1,105.9,577.1,103.4z"/>
		<path d="M198.2,131.7c5.9-1.7,11.6-3.3,17.3-4.9c1.1-4.7,2.2-9.5,3.4-14.7c-0.2-0.2-0.7-0.7-1.4-1.2c-10-7-15.8-16.7-17.6-28.6
			c-1-6.8,0.1-13.4,4.7-19c2.2-2.6,4.2-3.1,7.5-1.5c-1.1,1-2,1.9-2.9,2.8c-1.1,1.2-2.6,2.2-3.2,3.6c-2.4,5.6-3.9,11.5-2,17.6
			c4.8,15.8,15.9,24.7,31.5,28.7c9.7,2.5,19.5,2.7,29.4,1.3c9-1.3,16.2-5.6,21.9-12.6c1.1-1.3,1.7-3.1,2.4-4.7
			c0.3-0.7,0.4-1.6,0.7-2.3c5.3-11.3,1.2-21-5.2-30.3c-1.4-2-3.2-3.8-4.9-5.5c-5.5-5.5-11.8-9.3-20-9.1c-5.6,0.1-11.2-0.8-16.8-0.9
			c-2.8,0-5.6,0.8-9.2,1.3c-1.1-0.5-0.4-2.3-0.4-4.2c1.1-0.3,2.3-0.8,3.4-0.8c5.3-0.1,10.7-0.1,16,0c2.9,0,5.7,0.5,8.6,0.4
			c6.1-0.1,11.1,2.4,15.8,6c8.9,7,15.6,15.5,17.7,26.9c1.1,6.1,1.4,12.1-1.2,18.4c-2.6,6.1-6.1,10.9-11.1,14.9
			c-1.6,1.3-2.2,2.6-1.8,4.6c0.1,0.5,0.2,1.1,0.2,1.6c0,4.2,1.8,6.7,6.2,7c1.3,0.1,2.6,1,3.9,1.2c1.1,0.2,2.3-0.1,4-0.1
			c0.5,0.7,1.5,1.5,1.9,2.6c2.4,6.1,5.2,12.1,6.1,18.7c1.1,7.3,3,14.5,4.1,21.8c0.9,6.1,2.1,12.2,1,18.4c-0.1,0.6,0.1,1.3,0.3,1.9
			c1,3.2,0.7,4.1-2.6,4.9c-6,1.4-12,2.7-18,4.1c-0.4,0.1-0.8,0.3-1.3,0.5c0,3.4,0,6.7,0,10.4c-5.9,1.1-11.7,1.3-18,0.9
			c0.3,13.7-0.3,27.2,1.6,41.2c1.6-1.2,3-2.3,4.7-0.8c1.6,1.3,1.7,2.9,1.6,4.8c-0.2,3.5-0.2,7.1-0.2,10.7c0,2.7-1.6,4.9-4.3,5.5
			c-1.4,0.3-2.8,0.7-4.2,1.2c-2.3,0.9-4.2,0.5-5-1.9c-1-3.2-1.6-6.6-1.9-10c-0.2-2.6,0.3-5.2,0.5-7.9c1.5-0.6,3-1.2,4-1.6
			c-0.4-13.9-0.8-27.6-1.2-41.7c-8.7,0-17.4,0-26.4,0c-0.7,7.1,1,14,1.7,21c0.7,7.1,1.1,14.2,1.7,21.6c3.9-0.5,5.3,1.9,6,5.3
			c0.5,2.8,1.2,5.6,1.8,8.4c0.6,3,0,4.2-3.1,5.2c-2.8,1-5.8,1.6-8.5,2.3c-2.6-2.5-4.3-5-4.4-8.4c-0.1-1.8-0.3-3.6-0.8-5.3
			c-1.1-4.2,0.2-7,4.2-8.3c0.7-13.9-2.3-27.4-3.1-41.2c-3.7-0.4-7.1-0.7-10.5-1.3c-1.8-0.3-3.6-1.1-5.3-1.9
			c-1.4-0.7-1.9-2.1-1.9-3.8c0.1-2-0.2-4.1-0.3-6.4c-1.5-0.3-2.8-0.6-4.1-0.9c-2.2-0.6-4.5-1.2-6.7-1.9c-2.3-0.8-3.5-2.3-3.7-4.8
			c-1.1-11.2-2.4-22.3-3.7-33.5c-0.1-0.7-0.2-1.4-0.1-2.1C197.5,147.9,197.8,140.2,198.2,131.7z M293.9,133.3
			c-1.5-0.4-2.9-0.8-4.3-1.2c-2-0.6-3.9-1.6-5.9-1.8c-7-1-14.1-1.8-21.2-2.6c-6.6-0.7-13.1-0.3-19.7,0.1c-12,0.6-23.6,2.7-35.2,5.8
			c-1.7,0.4-3.5,0.4-5.7,0.7c-0.2,6.1-0.6,12.5-0.5,18.9c0.2,10.3-1.4,10.1,10.6,11.1c0.2,0,0.5-0.2,1.1-0.4
			c-0.1-1.1-0.4-2.2-0.4-3.4c0-1.6,0.3-3.3,2-3.6c4.2-0.6,8.5-1.2,11.8,2.4c1.1,1.1,1.6,2.8,2.3,4.1c11,0,21.8,0,32.9,0
			c-0.2-1.5-0.4-2.7-0.4-3.9c0-1.1,0.2-2.3,0.3-3.2c4.1-0.4,7.6-0.8,11.1-1.2c2.8-0.3,4.4,1.1,4.5,3.8c0,1.2-0.1,2.4-0.2,3.7
			c8.3,0,16.3,0,24.8,0C299.9,152.3,298.9,142.2,293.9,133.3z M203,171.2c0.7,6.7,1.4,13.5,2.2,20.3c1.1,0.4,2.2,0.8,3.2,1
			c8.8,1.4,17.6,2.9,26.4,4c14.9,1.9,29.9,0.2,44.8,0c1.7,0,3.4-1,5.1-1.2c2.5-0.3,5.2,0,7.7-0.5c4.5-0.8,9.1-1.6,12.6-3.6
			c-0.2-4.4-0.5-8.2-0.7-12c-0.2-3.8-0.5-7.6-1.6-11.1c-1.1,0.6-1.9,1.4-2.8,1.5c-5,0.4-10.1,0.7-15.1,1c-2.1,0.2-4.2,0.5-6.6,0.8
			c0,1.5,0.1,2.6,0,3.7c-0.1,0.8-0.4,1.7-0.9,2.1c-3.7,2.6-8.1,3.1-12.2,1.9c-3.3-1-2.8-4.6-2.9-7.5c0-0.1-0.1-0.3-0.3-0.8
			c-5.1-0.8-10.4,0.8-15.6,0.9c-5.5,0.1-10.9,0.3-16.3,0.5c-0.8,4.2-0.8,4.2-4.9,5c-1.3,0.3-2.7,0.6-4.1,0.7
			c-6.1,0.4-6.3,0.3-7.7-5.6c-0.1-0.2-0.3-0.4-0.4-0.5C209.7,171.7,206.6,171.5,203,171.2z M282.9,201.3c-3,0.9-5.7,2.1-8.5,2.4
			c-5.2,0.5-10.4,0.4-15.5,0.4c-5.2,0-10.3-0.2-15.5-0.4c-4.2-0.2-8.5-0.5-12.7-0.9c-3.3-0.3-6.7-1-10.2-1.5c0,1.5,0,2.8,0,4.6
			c3.6,0.4,7.2,1.3,10.6,1.1c11.9-0.8,23.8-0.6,35.7,0.1c5.3,0.3,10.6,0.6,16-0.7C282.9,204.6,282.9,203,282.9,201.3z M271.9,173.5
			c-0.3-4.7-0.5-8.8-0.8-13.1c-2,0.2-3.7,0.4-5.7,0.6c0.5,4.3,0.9,8.2,1.3,12.2C268.6,173.3,270.1,173.4,271.9,173.5z M217.4,161.6
			c0,3.3,0,6.3,0,9.4c1.7,0,3.1,0,4.7,0c0.5-3.3,0.8-6.3-0.2-9.7C220.4,161.4,218.9,161.5,217.4,161.6z M238.1,123.4
			c-3.7-1.5-6.5-2.6-9.7-3.9c-0.5,1.9-0.9,3.4-1.5,5.6C230.8,124.5,234.1,124,238.1,123.4z M224.6,114.6c-4,3.9-4.2,5.4-1,6.8
			C224,119.3,224.3,117.3,224.6,114.6z M265.5,123.4c2.4,0.3,4.1,0.4,6.1,0.7c-0.3-1.3-0.5-2-0.8-3
			C269.1,121.8,267.7,122.5,265.5,123.4z M277,120.4c0-1.5,0-2.3,0-3.5c-1.2,0.6-2,1.1-3.4,1.8C275,119.4,275.7,119.8,277,120.4z"/>
	</g>
	<path class="st0" d="M123.9,158.3c-0.3-8.5-0.5-16.3-0.8-24.1c-0.2-5.5-0.5-5.9-6-7.1c-6.7-1.5-13.4-2.7-20.2-4
		c-15.4-2.8-30.9-2.4-46.3-1.2c-4.9,0.4-9.8,1.5-14.7,2c-2.9,0.3-13.3,1.7-16.7,2.6c-2.4,0.7-4.7,1.7-7.1,2.1
		c-3.3,0.7-4.5,2.9-4.9,5.8c-1.3,9.4-3,18.7-2.3,28.5c6.7,0.3,13.3-0.7,19.8-1.8c0.2-1.8,0.4-3.2,0.6-5c3.4-0.4,6.7-0.7,9.9-1
		c1.9-0.2,3.1,0.8,3.8,2.5c0.3,0.9,0.5,1.8,0.6,2.3c5.4,0,10.4,0,15.5,0c7.5,0,15,0,22.6,0c1.5,0,3.1-0.3,4.7-0.5
		c-0.2-1.2-0.3-1.9-0.3-2.6c0-0.8,0.1-1.5,0.2-2.3c2.3-0.3,4.3-0.5,6.3-0.9c3.2-0.5,4.4,0.3,5.2,3.5c0.2,0.6,0.4,1.3,0.6,2.1
		C104.1,159,113.7,158.7,123.9,158.3z"/>
	<path class="st0" d="M93.8,177.7c-8.3,1-9.1,0.5-10.5-6.2c-0.1-0.5-0.1-1.1,0-1.6c0.3-1.9-0.8-2.5-2.4-2.5c-3.6,0-7.1,0-10.7,0.1
		c-6.7,0.2-13.4,0.6-20,0.9c-3.8,0.1-7.6,0-11.3,0c-0.2,3.3-0.3,6.3-0.4,9.3c-3.8,0.5-7,0.9-10.3,1.3c-0.4-0.5-0.7-1-1.1-1.3
		c-2-1.7-3.4-3.6-1.6-6.3c0.3-0.4-0.4-1.4-0.7-2.2c-6.7,0.5-13.2,1-19.4,1.5c-0.3,0.7-0.5,0.9-0.6,1.2c-1.1,10.1,0.6,19.7,4.8,28.8
		c0.3,0.7,1.3,1.4,2.1,1.6c1,0.3,2.2,0.2,3.3,0.3c3.7,0,7.4-0.2,11.1,0.1c4.4,0.3,8.7,1.2,13,1.5c6.7,0.5,13.4,0.6,20.1,0.9
		c10.2,0.4,20.3-1,30.2-3.1c9.1-2,18.3-3.6,26.5-8.4c1.6-0.9,2.5-1.9,2.9-3.6c1.4-6.1,2.8-12.3,4.1-18.5c0.3-1.4,0-2.9,0-4.4
		c-0.8-0.1-1.3-0.3-1.8-0.3c-7.5,0-15-0.1-22.5-0.1c-0.9,0-1.8,0-2.9,0C95.6,170.5,96.6,174.3,93.8,177.7z"/>
	<path class="st1" d="M19.2,230c32.1-2.8,63.7-2.7,95.8-4.6c-2.3-7.7-4.5-14.7-6.7-22c-2.5,0.8-4.4,1.4-6.3,1.9
		c-5.5,1.5-10.4,4.7-16.3,5.2c-6.7,0.5-13.3,1.7-20,2.4c-5.3,0.5-10.6,0.8-15.9,0.9c-7.7,0.2-15.4,0.1-22.8-2.1
		c-1.5-0.5-3.1-0.6-4.9-1C19.8,217.1,19.5,223.1,19.2,230z"/>
	<path class="st1" d="M76.6,108.5c-8.4,2-16.7,3.2-25.4,1.3c-0.6,2.5-1,4.8-0.1,7c9.2,0,18.2,0,27.5,0
		C77.9,113.8,77.3,111.4,76.6,108.5z"/>
	<path class="st1" d="M39.7,105.9c-1.5,0.6-3.1,0.7-3.4,1.4c-1.6,3.7-2.9,7.6-4.5,12.1c2.4-0.1,4-0.2,5.6-0.2
		c0.8-3.3,1.6-6.4,2.3-9.4C39.9,108.8,39.7,107.8,39.7,105.9z"/>
	<path class="st1" d="M87.6,105.9c1.3,4.3,2.5,8.3,3.7,12.4c1.7,0,3.1,0,4.9,0c-1.9-5-3.7-9.6-5.6-14.4
		C89.5,104.6,88.8,105.1,87.6,105.9z"/>
	<path class="st1" d="M293.9,133.3c-1.5-0.4-2.9-0.8-4.3-1.2c-2-0.6-3.9-1.6-5.9-1.8c-7-1-14.1-1.8-21.2-2.6
		c-6.6-0.7-13.1-0.3-19.7,0.1c-12,0.6-23.6,2.7-35.2,5.8c-1.7,0.4-3.5,0.4-5.7,0.7c-0.2,6.1-0.6,12.5-0.5,18.9
		c0.2,10.3-1.4,10.1,10.6,11.1c0.2,0,0.5-0.2,1.1-0.4c-0.1-1.1-0.4-2.2-0.4-3.4c0-1.6,0.3-3.3,2-3.6c4.2-0.6,8.5-1.2,11.8,2.4
		c1.1,1.1,1.6,2.8,2.3,4.1c11,0,21.8,0,32.9,0c-0.2-1.5-0.4-2.7-0.4-3.9c0-1.1,0.2-2.3,0.3-3.2c4.1-0.4,7.6-0.8,11.1-1.2
		c2.8-0.3,4.4,1.1,4.5,3.8c0,1.2-0.1,2.4-0.2,3.7c8.3,0,16.3,0,24.8,0C299.9,152.3,298.9,142.2,293.9,133.3z"/>
	<path class="st1" d="M203,171.2c0.7,6.7,1.4,13.5,2.2,20.3c1.1,0.4,2.2,0.8,3.2,1c8.8,1.4,17.6,2.9,26.4,4
		c14.9,1.9,29.9,0.2,44.8,0c1.7,0,3.4-1,5.1-1.2c2.5-0.3,5.2,0,7.7-0.5c4.5-0.8,9.1-1.6,12.6-3.6c-0.2-4.4-0.5-8.2-0.7-12
		c-0.2-3.8-0.5-7.6-1.6-11.1c-1.1,0.6-1.9,1.4-2.8,1.5c-5,0.4-10.1,0.7-15.1,1c-2.1,0.2-4.2,0.5-6.6,0.8c0,1.5,0.1,2.6,0,3.7
		c-0.1,0.8-0.4,1.7-0.9,2.1c-3.7,2.6-8.1,3.1-12.2,1.9c-3.3-1-2.8-4.6-2.9-7.5c0-0.1-0.1-0.3-0.3-0.8c-5.1-0.8-10.4,0.8-15.6,0.9
		c-5.5,0.1-10.9,0.3-16.3,0.5c-0.8,4.2-0.8,4.2-4.9,5c-1.3,0.3-2.7,0.6-4.1,0.7c-6.1,0.4-6.3,0.3-7.7-5.6c-0.1-0.2-0.3-0.4-0.4-0.5
		C209.7,171.7,206.6,171.5,203,171.2z"/>
	<path class="st0" d="M282.9,201.3c-3,0.9-5.7,2.1-8.5,2.4c-5.2,0.5-10.4,0.4-15.5,0.4c-5.2,0-10.3-0.2-15.5-0.4
		c-4.2-0.2-8.5-0.5-12.7-0.9c-3.3-0.3-6.7-1-10.2-1.5c0,1.5,0,2.8,0,4.6c3.6,0.4,7.2,1.3,10.6,1.1c11.9-0.8,23.8-0.6,35.7,0.1
		c5.3,0.3,10.6,0.6,16-0.7C282.9,204.6,282.9,203,282.9,201.3z"/>
	<path class="st0" d="M238.1,123.4c-3.7-1.5-6.5-2.6-9.7-3.9c-0.5,1.9-0.9,3.4-1.5,5.6C230.8,124.5,234.1,124,238.1,123.4z"/>
	<path class="st0" d="M265.5,123.4c2.4,0.3,4.1,0.4,6.1,0.7c-0.3-1.3-0.5-2-0.8-3C269.1,121.8,267.7,122.5,265.5,123.4z"/>
	<path class="st0" d="M403.8,150c10.9,0,21.7,0,32.3,0c0.3-0.6,0.5-0.8,0.5-1.1c0.7-5.4,0.7-5.4,5.9-5.6c1.1,0,2.2-0.2,3.3-0.3
		c2.1,0,4.2,0,6.7,0c0.2,2.8,0.4,5.2,0.7,7.9c10.2,0.9,20.3,0.2,30.6,0.3c-0.4-5-0.8-9.4-1.2-13.9c-0.7-8.2-1.5-16.4-2.2-24.6
		c-0.2-2.8-1.2-4.1-3.8-4.3c-7.5-0.5-15-1.2-22.6-1.2c-15.9,0-31.8,0.6-47.7,0.6c-15.3,0-30.1,3.3-44.9,6.7
		c-1.1,12-1.2,23.7-0.6,35.7c8.8-0.3,17.2-0.5,25.6-0.8c-2.3-3.8-1.8-5,2.5-5.7c1.2-0.2,2.5-0.2,3.7-0.3c2.8-0.2,5.7-0.3,9.2-0.5
		C404.3,144.2,402.9,147.7,403.8,150z"/>
	<path class="st0" d="M452.6,158.5c-0.2,1.5-0.3,2.7-0.4,3.9c-0.3,3.2-1.4,4.4-4.6,4.6c-1.9,0.1-3.9,0-5.7,0.2c-3.9,0.5-5.5-1-5-5.2
		c0.2-1.6,0.4-3.2-0.9-4.5c-10.8,0-21.4,0-32.2,0c-0.2,1.2-0.4,2-0.4,2.8c-0.2,3.6-1.3,5.3-4.8,6.1c-2.4,0.6-4.9,0.7-7.3,0.8
		c-2.7,0-3.4-0.7-3.7-3.3c-0.2-1.8-0.2-3.7-0.3-5.9c-8.8,0.3-17.2,0.6-25.9,0.8c0,1.5-0.1,2.5,0,3.4c0.8,8.4,1.6,16.9,2.4,25.3
		c0.1,1.5,0.9,2.3,2.3,2.5c8.7,1.2,17.3,2.7,26,3.2c12.2,0.8,24.4,0.7,36.6,1c14.2,0.4,28.5,1.2,42.6-1.8c5.2-1.1,10.4-2.1,16-3.2
		c0-10.5-0.9-20.7-2.8-30.8C473.7,158.5,463.4,158.5,452.6,158.5z"/>
	<path class="st1" d="M385.3,216.7c2.1,0.2,3.7,0.6,5.3,0.6c4.9,0,9.9-0.1,14.8-0.2c10.1-0.2,20.3-0.3,30.4-0.6
		c7.1-0.2,14.2-0.7,21.3-1c2-0.1,3.2-0.9,3.2-2.9c0.1-2.7,0.3-5.5,0.1-8.2c-0.2-2.9-1-3.5-4-3.2c-2.7,0.3-5.4,1.1-8.1,1.1
		c-8.8,0-17.5-0.2-26.3-0.4c-10.1-0.2-20.3-0.5-30.4-0.7c-1.9,0-3.7,0-5.8,0C385.8,206.5,385.6,211.2,385.3,216.7z"/>
	<path class="st1" d="M394,104.3c15.3-0.5,29.8-1,44.6-1.5c-0.4-1.7-0.5-2.7-0.8-3.8c-0.3-1-0.6-2-1-3.3
		c-13.5,3.7-26.9,6.5-40.8,5.2C395.4,101.8,394.8,102.7,394,104.3z"/>
	<path class="st1" d="M651.1,149.6c0-7.1,0.1-13.6,0-20c-0.1-2.9-1.2-5.4-3.8-6.9c-5-2.9-10.6-4.1-16.1-5.6
		c-0.3-0.1-0.5-0.1-0.8-0.1c-11.4,0-22.8-0.1-34.1,0.2c-7.2,0.2-14.5,0.9-21.7,1.7c-5.2,0.6-10.4,1.8-15.7,2.8
		c-1.1,9.2-3.2,18.7-3.1,28.7c5.5,0,10.7,0,15.8,0c0.7-3.1-1.7-6.3,0.6-8.5c4.3-0.4,8.2-0.7,12.3-1.1c2.7,2.4,2.9,6,3.6,9.7
		c7.8,0,15.4,0,23.3,0c-0.5-1.6-0.8-2.9-1.3-4.2c-0.6-1.9-0.1-3.3,1.9-3.8c1.9-0.6,3.9-1.3,5.9-1.3c2.8,0,5.9,0.2,8.4,1.3
		c2.4,1,1.5,4.1,1.9,6.3c0,0.2,0.3,0.4,0.7,0.9C636.1,149.7,643.7,151.3,651.1,149.6z"/>
	<path class="st1" d="M569.6,158.5c-4.9,0-9.7,0-14.6,0c-0.2,3.7-0.3,7.1-0.6,10.5c-0.5,6.8,1.2,9.3,7.8,10.8
		c3.5,0.8,7,1.1,10.6,1.4c6.6,0.5,13.1,0.9,19.7,1.1c4.4,0.2,8.8,0,13.1,0c4.7,0,9.3,0.2,14-0.1c7.2-0.5,14.4-1.6,21.7-2
		c3.3-0.2,5.4-1.5,7.1-4.1c3.7-5.9,2.8-12.5,3-18.5c-8,0-15.5,0-23,0c-0.4,2-0.8,3.7-1,5.5c-0.3,2.3-1.7,3.6-3.7,3.8
		c-3,0.4-6,0.4-8.9,0.2c-0.6,0-1.4-1.2-1.7-2c-0.6-1.9-1-3.9-1.5-6.1c-8,0-15.9,0-23.8,0c-2,5.6-5.8,8-11.5,7.3
		C571.6,165.9,570.3,164.4,569.6,158.5z"/>
	<path class="st0" d="M641.2,187.5c-1.2,0.2-2,0.2-2.7,0.5c-6.7,2.3-13.7,2.4-20.6,2.9c-6.3,0.4-12.6,0.3-18.9,0.4
		c-7.5,0.2-15,0.4-22.6,0.5c-1.2,0-2.4-0.3-3.7-0.5c-2.5-0.4-5.1-0.7-7.8-1.1c-1.7,5.6-1.3,10.8-1.1,16.5c9-0.2,17.3-0.4,25.7-0.7
		c14.2-0.6,28.5-1.3,42.7-2c3.9-0.2,7.9,0.1,11.6-1.8C642.9,197.4,642.1,192.7,641.2,187.5z"/>
	<path class="st0" d="M577.9,113.9c8.4-0.5,15.9-1,23.4-1.2c7.5-0.2,15.1-0.1,23.2-0.2c-2.2-3.5-4-6.3-5.9-9.4
		c-12.4,4-25.2,4.2-38.2,3.9C579.6,109.2,578.9,111.2,577.9,113.9z"/>
	<path class="st0" d="M841.8,114.1c-3.1,0.2-5.6,0.4-8.1,0.5c-8.6,0.2-17.2,0.1-25.8,0.5c-7.7,0.4-15.3,1.1-22.9,1.8
		c-6.7,0.7-13.3,1.7-20,2.4c-7.2,0.7-14.4,0.8-21.5,1.8c-3.1,0.5-6,0.8-9.2,0.6c-5.4-0.3-10.9,0.5-16.2,0.9c-1.4,4.1-1.9,7.9-1.9,12
		c0.2,7.5-0.3,15.1-0.5,22.6c-0.1,3.4-0.3,6.8-0.6,10.8c5.4-0.4,10.4-0.8,15.5-1.2c0-2.5,0-4.4,0-6.3c-0.1-2,0.6-3.1,2.8-3.3
		c2-0.2,4-0.7,6.1-0.9c3.7-0.5,5.7,1.2,6,5c0.1,1.1,0.1,2.1,0.3,3.9c10.3-0.4,20.4-1,30.4-1.3c10.2-0.2,20.5-0.4,31-0.5
		c0-2.4,0.1-4.4,0-6.5c-0.1-1.8,0.7-2.9,2.5-3.2c2.2-0.4,4.3-0.8,6.5-0.9c4.4-0.2,5.9,1.5,5.8,5.9c0,1.3,0.1,2.6,0.2,4.1
		c7.3,0.5,14.2,0.2,21.2-0.4c0-2.2,0.1-3.8,0-5.5c-0.4-10.3-1.8-20.5-0.8-30.8c0.3-2.6,0.2-5.2,0-7.8
		C842.5,117.1,842.1,115.7,841.8,114.1z"/>
	<path class="st0" d="M715.1,175.9c0,2.2,0.1,4.2,0,6.3c-0.3,5.7-0.7,11.5-1,17.2c-0.3,6,0.5,6.9,6.5,7.3c0.7,0,1.4,0.1,2.1,0.1
		c8.2,0,16.3-0.5,24.5-0.3c6.6,0.2,13.2,0.3,19.7,0.1c12.9-0.4,25.8-1.2,38.6-1.7c10.9-0.4,21.6-1.9,32.2-3.9c2.4-0.4,4.6-1.3,6.8-2
		c-0.3-10-0.6-19.4-0.8-28.6c-7.5,0.5-14.4,0.9-21.4,1.4c-0.7,3.1-1.4,6.1-2,8.5c-3.3,0.7-5.9,1.3-8.6,1.8c-3,0.5-3.8-0.1-4.1-3
		c-0.3-2.8-0.7-5.6-1-8.4c-4.5-1-54.4,2.2-59.9,3.5c-0.6,2.5,1.4,5.5-1.4,7.7c-3,0.3-6.1,0.7-9.2,0.9c-4.8,0.3-5.8-0.6-6.4-5.3
		c-0.1-0.6,0-1.2,0-1.7C724.8,175.9,720.2,175.9,715.1,175.9z"/>
	<path class="st1" d="M831.5,211.2c-7.2,2.4-13.8,2.2-20.4,2.3c-9,0.1-18.1-0.1-27.1,0.2c-16.4,0.6-32.8,1.4-49.2,2.1
		c-0.3,0-0.7,0.4-0.9,0.6c-1,5.1-0.8,7.6,0.7,10.8c6.7,1.1,13.3,0.6,20,0.2c7.8-0.6,15.6-0.8,23.4-1.2c7.8-0.4,15.6-1,23.4-1.4
		c7-0.4,13.9-0.6,20.9-0.9c1.2,0,2.4,0.1,3.7,0.1c2,0,4-0.1,6.4-0.2C832,219.3,831.8,215.6,831.5,211.2z"/>
	<path class="st1" d="M801.4,105.1c-15.7,5.3-31.1,7.6-47.5,4.8c-0.3,1.7-0.6,3.7-1,6.1c5.6-0.5,10.6-0.8,15.6-1.4
		c10.6-1.2,21.2-2.4,31.8-3.7c0.7-0.1,1.5-0.4,2.5-0.6C802.3,108.5,801.9,107,801.4,105.1z"/>
</g>
</svg>
