<?xml version="1.0" encoding="utf-8"?>
<!-- Generator: Adobe Illustrator 19.1.0, SVG Export Plug-In . SVG Version: 6.00 Build 0)  -->
<svg version="1.1" id="Calque_1" xmlns="http://www.w3.org/2000/svg" xmlns:xlink="http://www.w3.org/1999/xlink" x="0px" y="0px"
	 viewBox="0 0 987.4 554.3" style="enable-background:new 0 0 987.4 554.3;" xml:space="preserve">
<style type="text/css">
	.st0{fill:#72B52B;}
	.st1{fill:#71519B;}
	.st2{fill:#C0BFBF;}
	.st3{fill:#EDE5F2;}
	.st4{fill:none;stroke:#72B52B;stroke-width:4;stroke-linecap:round;stroke-miterlimit:10;}
	.st5{fill:none;stroke:#71519B;stroke-width:4;stroke-linecap:round;stroke-miterlimit:10;}
	.st6{fill:#6EA1C1;}
	.st7{fill:#BFBEBE;}
	.st8{fill:#55358A;}
	.st9{fill:#FFFFFF;}
	.st10{fill:#FFFFFF;stroke:#71519B;stroke-width:3;stroke-miterlimit:10;}
	.st11{fill:#FFFFFF;stroke:#72B52B;stroke-width:3;stroke-miterlimit:10;}
	.st12{fill:none;stroke:#FFFFFF;stroke-width:3;stroke-miterlimit:10;}
	.st13{fill:#F2BF00;}
</style>
<g>
	<g>
		<g>
			<path d="M865.9,486.8c-1.5-0.5-2.6-1-3.7-1.1c-12.5-1.3-23.5-6.6-34.3-12.3c-4.3-2.3-7.9-5.9-11.8-9c-1.5-1.2-2.2-2.7-1.6-4.8
				c1.3-4.7,2.2-9.5,3.6-14.2c1.6-5.4,3.4-10.7,5.3-16.6c-4.2-1.1-8.1-2.2-12-3.3c-1-0.3-1.9-0.5-2.9-0.8c-3.5-1.4-4.8-4.2-3.9-7.8
				c0.5-2.2,0.8-4.5,1.3-7c7.3,0,13.2,3.9,19.9,6.9c4.1-11,7.8-21.9,12.2-32.5c4.3-10.5,8.7-21,12.1-32.1c-3.2-1.7-6.2-3.1-9-4.7
				c-6-3.5-12-7-17.8-10.8c-1.9-1.3-3.3-3.4-5.2-5.4c-0.4,0.3-1.3,1-2.3,1.9c-3-3.4-3.6-7.6-3.9-12.1c-1.6,0-3,0-4.3,0
				c-4.4-7.5-5.9-15-2.4-23c3.1-7,5.2-14,6.4-21.7c1.3-8.9,5.5-17.3,11-24.7c15-20.3,35.4-30.3,60.2-31.4c13-0.6,26,0.4,38.6,4.6
				c9.9,3.3,19.7,7.2,28.3,13.1c5.5,3.8,9.6,9.5,14.3,14.3c1.1,1.2,2,2.5,3.2,3.6c2,1.9,4.5,3.4,6.1,5.7c4,5.7,7.8,11.6,7.2,19.2
				c4.6,1,5.5,4.8,6.2,8.5c2.2,11.9-0.7,22.9-5.7,33.6c-0.2,0.4-0.4,1-0.7,1.3c-3.5,3.3-6.7,7.4-10.8,9.8c-4.8,2.7-8.7,6.4-13.1,9.5
				c-3.5,2.5-7.4,4.4-11,6.6c0.6,12.5,2.1,24.9,4.6,37.2c2.5,12.3,4.1,24.7,6.1,37.5c5-1.4,9.7-2.6,14.4-4c2.5-0.7,3.9-0.3,4.4,2.2
				c0.6,3,0.7,6.1,1,9.6c-7,2.4-13.5,4.7-20.4,7.2c0.2,10.3,3.3,20.4,4.4,31.1c-1.7,0.3-2.9,0.5-2.9,0.5c-2.5,2.1-4,3.7-5.8,4.8
				c-10.2,6.3-21.4,9.4-33.3,10.5c-4.9,0.4-9.8,1.3-15.2,2.1c1.9,16.5-0.6,33.2,1.7,50.4c6.1,0,11.9-0.1,17.7,0.1
				c2.1,0.1,4.2,0.5,6.3,1.1c1.9,0.6,3.1,1.9,2.2,4.2c-0.2,0.4-0.1,1-0.2,1.5c-2.1,8.8-1.3,7.4-8.6,7.2c-6.1-0.1-12.2-0.8-18.3,1
				c-2.8,0.8-4.7-0.8-4.8-3.8c-0.1-2.5,0.1-5,0.1-7.4c0-4.1,0-8.2,0-12.3c0-5.5-0.1-10.9-0.1-16.4c0-8.4,0-16.8,0-25.7
				c-9.4,0-18.3,0-27.4,0c-0.3,9.3-0.8,19.2-1,29c-0.1,5.3,0.1,10.6,0,15.8c-0.1,2.7,1.8,5.4,0.1,8.2c-1.7,2.8-4.8,1.6-7.3,2.4
				c-4.2,1.4-8.6,2.4-13,3.2c-5.5,1-7.7-1.1-7.7-6.6c0-0.5,0-1,0-1.5c0.1-4.2,0.5-4.5,4.5-4.8c5.5-0.4,11.1-1,16.6-1.6
				c0.4,0,0.9-0.4,1.3-0.6C865,516.8,865.4,501.8,865.9,486.8z M818.9,461.6c0.5,0.5,1.1,1,1.8,1.5c15.2,11.6,32.6,17.5,51.3,19
				c16.3,1.3,32.7,0.7,49-1.7c12.2-1.8,23.1-6.5,33.1-12.3c-4.6-36.2-10.6-71.7-13.7-107.5c-6.2,2.4-12,5.8-18.9,6.3
				c-5.6,0.4-11.1,1.9-16.7,2c-8.7,0.1-17.5-0.8-26.2-1.1c-9-0.3-17.5-2.5-25.8-7.3c-1.3,4.2-2.5,8.2-3.8,12.3
				c-4.1,12.6-8.2,25.2-12.2,37.8c-1.4,4.4-2.5,8.9-4,13.3c-2.4,6.7-5.1,13.3-7.6,19.9C823.2,449.5,821.2,455.3,818.9,461.6z
				 M963.9,258.4c-3.7-3.8-7.2-7.1-10.4-10.6c-3.5-3.8-7.8-6.6-12.5-8.9c-4.1-2-8.3-4.1-12.6-5.6c-6.2-2.2-12.5-4.2-18.9-5.8
				c-3.8-1-7.8-1.4-11.8-1.5c-7.6-0.2-15.3-1-22.8,0.1c-13.9,2.1-26.7,7.5-37.4,17c-3.8,3.3-7,7.4-10.7,11.3c1.6,1.1,2.8,1.9,4,2.8
				c1.3-1.9,2.2-3.7,3.5-5.1c2-2.2,3.9-4.5,6.3-6.3c3.6-2.6,6.4-1.5,7.2,2.8c0.5,3,0.4,6.3-0.1,9.4c-0.7,4.4-2.1,8.6-3.2,13
				c4.3,0.7,5.4,1.6,5.3,5.6c-0.1,2.9-0.3,6-1.1,8.8c-1.2,4.5-3.4,8.7-4.4,13.2c-2.5,11.5-8.8,20.5-16.8,28.7
				c-1.2,1.3-2.3,2.7-3.6,4.3c2,1.1,3.5,2,5.1,2.9c6.2,3.5,12.1,7.6,18.6,10.2c7.8,3.1,16,5.4,24.1,7.2c7.4,1.6,15,2.8,22.5,3
				c15.9,0.5,31.3-2.9,45.8-9.5c7.9-3.6,16-7.3,21.8-14.8c-1.7-1-3.3-2.1-5-3c-6.6-3.8-11.7-8.9-12.6-16.8
				c-0.6-5.2-0.9-10.4-3.7-15.1c-0.2-0.3,0-0.7-0.1-1c-1.4-7.1,0.1-14.1,0.5-21.1c0.4-7.4,1-14.7,1.5-22.9
				c8.7-0.2,14.6,4.3,18.8,12.1C962.5,260.9,963.1,259.8,963.9,258.4z M962.8,304.1c0.7-3.4-1.5-5.3-2.3-7.6
				c-2.4-7.2-7.3-12.4-12.7-17.3c-0.6-0.6-1.5-0.9-2.9-1.7c0,4.2-0.1,7.6,0,11.1c0.1,2.6,0.5,5.2,1,7.8c0.5,2.6,2,3.9,4.9,3.8
				C955.1,300,959.1,301.3,962.8,304.1z M833.4,297.9c-3,1.8-6.5,2.9-8.3,6.5c-1.7,3.4-3.7,6.6-5.4,10c-1,2-2,4.2-2.5,6.4
				c-0.2,1,0.6,2.5,1.4,3.3c0.4,0.3,2.2-0.3,2.9-1.1c5.5-6.1,11.1-12.1,14.2-18.9C834.9,301.8,834.3,300.1,833.4,297.9z
				 M969.8,324.2c-6.3-7.3-11.7-15-20.7-19.3c-0.7,12.7,5.7,17.9,16.7,22.2C966.9,326.3,968.1,325.4,969.8,324.2z M809.6,311.7
				c13.7-13.7,12.9-18.1,10.4-29.7C813.4,291,806.7,299.3,809.6,311.7z M967.3,263.3c-0.5,0-1.1,0-1.6,0c-0.9,5.3-2,10.6-2.8,15.9
				c-0.2,1.3,0,2.9,0.6,4.2c1.4,3.2,3.2,6.3,4.6,9.2C975.9,282.6,971.4,273,967.3,263.3z M978.5,284.8c-5.4,6.3-7.7,13.2-9.3,20.7
				c-0.9,4.6-0.8,8.3,3.3,11.3C976.7,306.7,979.9,296.5,978.5,284.8z M826.3,260.3c-5.2,5.9-9.9,11.5-10.1,19.3
				c1.7-0.7,3.4-1.9,4.9-1.7c1.7,0.3,3.2,1.9,5.2,3.1c0.7-3.2,2-6.2,2-9.2C828.2,267.9,827,264.1,826.3,260.3z M945.9,269.7
				c4.3,2.8,8.1,5.4,12.2,8.1c0.9-4.8,1.8-8.8-2.6-11.9c-2-1.4-3.3-3.6-5-5.5c-1.1-1.3-2.2-2.5-3.7-4.4
				C946.5,261.2,946.2,265.4,945.9,269.7z M843.5,276.8c-0.3-0.2-0.6-0.4-0.8-0.6c-9,5.5-16.2,12.2-15.2,19.7
				c3.4-1.5,6.8-3.1,10.9-5C840,286.6,841.8,281.7,843.5,276.8z M834.4,275.9c3.9-1.8,6-4.6,5.9-8.9c0-1,0.5-1.9,0.6-2.9
				c0.5-4.6,1-9.2,1.5-13.8c-0.3-0.1-0.7-0.2-1-0.3c-2.3,3.3-4.7,6.6-6.9,10c-0.6,0.9-0.9,2.2-0.9,3.3
				C833.7,267.4,834.1,271.4,834.4,275.9z"/>
			<path d="M897.5,315.2c-4.2-0.1-6.7-2.6-6.7-6.9c0-3.8,3.7-7.1,7.9-7.5c2.5-0.2,4.5,2.9,4.9,7.5
				C904,312.4,901.2,315.2,897.5,315.2z"/>
			<path d="M867.2,308.5c0,3.4-2.2,5.3-6.7,5.4c-3.6,0.1-6.5-2.8-6.5-6.5c0-3.4,3.5-7,6.9-7.1C864,300.2,867.2,304.3,867.2,308.5z"
				/>
			<path d="M932.9,246.1c-1,0.5-1.8,0.8-2.7,1.3C930.6,244.9,930.6,244.9,932.9,246.1z"/>
		</g>
		<path class="st0" d="M818.9,461.6c0.5,0.5,1.1,1,1.8,1.5c15.2,11.6,32.6,17.5,51.3,19c16.3,1.3,32.7,0.7,49-1.7
			c12.2-1.8,23.1-6.5,33.1-12.3c-4.6-36.2-10.6-71.7-13.7-107.5c-6.2,2.4-12,5.8-18.9,6.3c-5.6,0.4-11.1,1.9-16.7,2
			c-8.7,0.1-17.5-0.8-26.2-1.1c-9-0.3-17.5-2.5-25.8-7.3c-1.3,4.2-2.5,8.2-3.8,12.3c-4.1,12.6-8.2,25.2-12.2,37.8
			c-1.4,4.4-2.5,8.9-4,13.3c-2.4,6.7-5.1,13.3-7.6,19.9C823.2,449.5,821.2,455.3,818.9,461.6z"/>
		<path class="st0" d="M962.8,304.1c0.7-3.4-1.5-5.3-2.3-7.6c-2.4-7.2-7.3-12.4-12.7-17.3c-0.6-0.6-1.5-0.9-2.9-1.7
			c0,4.2-0.1,7.6,0,11.1c0.1,2.6,0.5,5.2,1,7.8c0.5,2.6,2,3.9,4.9,3.8C955.1,300,959.1,301.3,962.8,304.1z"/>
		<path class="st0" d="M833.4,297.9c-3,1.8-6.5,2.9-8.3,6.5c-1.7,3.4-3.7,6.6-5.4,10c-1,2-2,4.2-2.5,6.4c-0.2,1,0.6,2.5,1.4,3.3
			c0.4,0.3,2.2-0.3,2.9-1.1c5.5-6.1,11.1-12.1,14.2-18.9C834.9,301.8,834.3,300.1,833.4,297.9z"/>
		<path class="st0" d="M969.8,324.2c-6.3-7.3-11.7-15-20.7-19.3c-0.7,12.7,5.7,17.9,16.7,22.2C966.9,326.3,968.1,325.4,969.8,324.2z
			"/>
		<path class="st0" d="M809.6,311.7c13.7-13.7,12.9-18.1,10.4-29.7C813.4,291,806.7,299.3,809.6,311.7z"/>
		<path class="st0" d="M967.3,263.3c-0.5,0-1.1,0-1.6,0c-0.9,5.3-2,10.6-2.8,15.9c-0.2,1.3,0,2.9,0.6,4.2c1.4,3.2,3.2,6.3,4.6,9.2
			C975.9,282.6,971.4,273,967.3,263.3z"/>
		<path class="st0" d="M978.5,284.8c-5.4,6.3-7.7,13.2-9.3,20.7c-0.9,4.6-0.8,8.3,3.3,11.3C976.7,306.7,979.9,296.5,978.5,284.8z"/>
		<path class="st0" d="M826.3,260.3c-5.2,5.9-9.9,11.5-10.1,19.3c1.7-0.7,3.4-1.9,4.9-1.7c1.7,0.3,3.2,1.9,5.2,3.1
			c0.7-3.2,2-6.2,2-9.2C828.2,267.9,827,264.1,826.3,260.3z"/>
		<path class="st0" d="M945.9,269.7c4.3,2.8,8.1,5.4,12.2,8.1c0.9-4.8,1.8-8.8-2.6-11.9c-2-1.4-3.3-3.6-5-5.5
			c-1.1-1.3-2.2-2.5-3.7-4.4C946.5,261.2,946.2,265.4,945.9,269.7z"/>
		<path class="st0" d="M843.5,276.8c-0.3-0.2-0.6-0.4-0.8-0.6c-9,5.5-16.2,12.2-15.2,19.7c3.4-1.5,6.8-3.1,10.9-5
			C840,286.6,841.8,281.7,843.5,276.8z"/>
		<path class="st0" d="M834.4,275.9c3.9-1.8,6-4.6,5.9-8.9c0-1,0.5-1.9,0.6-2.9c0.5-4.6,1-9.2,1.5-13.8c-0.3-0.1-0.7-0.2-1-0.3
			c-2.3,3.3-4.7,6.6-6.9,10c-0.6,0.9-0.9,2.2-0.9,3.3C833.7,267.4,834.1,271.4,834.4,275.9z"/>
	</g>
	<g>
		<g>
			<path d="M599.8,342.6c-23.3-8.3-36.1-25.5-43.7-46.3c-4.9-0.3-9.3-0.4-13.7-0.9c-2.9-0.3-4.4-4.6-2.1-6.3
				c5.9-4.2,9-10.6,13.6-15.8c1.1-1.3,2.5-2.4,3.9-3.7c-1.2-2.9-0.3-5.4,1.3-8.2c9.1-16,22.4-27.4,38.3-36.2
				c5.8-3.2,12.1-4.5,18.5-5.2c19.1-2.1,37.6,0.2,54.7,9.6c4.7,2.6,9.1,5.9,13.2,9.4c4.8,4,9,8.7,13.8,12.8
				c5.5,4.8,11.2,9.3,17.1,13.7c2.2,1.6,4.9,2.9,7.5,3.3c3.2,0.5,4.4,2.2,4.9,5.1c-3.8,5.4-10.2,5.5-15.8,7.4
				c-2.4,24.7-16.2,42.8-34.7,58.2c9.7-0.4,18.1-2.8,23.8-11.4c3.9-5.8,8.3-11.2,12.4-16.8c7.7-10.5,12-22.5,14.7-35
				c2.5-11.7,4-23.7,5.8-35.6c0.4-3.1,0.1-6.3,0.1-9c-2.4-1.8-4.9-3.2-6.5-5.3c-2.1-2.5-0.9-5.2,1.6-7.8c-4.9-3.5-9.8-6.8-14.5-10.4
				c-11.9-9.2-25.9-14.3-39.1-21.1c-5.6-2.9-6.3-4.3-4-10.2c3.6-9.3,9.4-16.8,18.3-21.4c2.7-1.4,6-1.7,9-2c1.1-0.1,2.8,0.8,3.6,1.7
				c2.8,3.5,5.7,7.1,8,10.9c8,13.3,16.8,26,27.7,37.8c0.4-0.8,0.7-1.4,1-2.1c0.3-0.8,0.5-1.5,0.9-2.7c3.5,2.2,7,4,9.8,6.3
				c2.9,2.4,2.1,5.5,0.5,8.1c13,15.9,29.6,26.9,47.2,35.5c2.7,10.7-2.4,18.3-7.6,25.8c-3.6,5.2-8.1,9.4-13.9,12.3
				c-3.3,1.6-5.2,1.4-6.6-2.1c-2.1-5.3-4.1-10.8-6-16.2c-3.4-10-7.8-19.4-14.7-27.5c-2.2-2.6-4.4-5.2-7.1-8.3
				c-0.7,8.3-1.7,15.6-2,23.1c-0.5,12.6-4.8,24.2-8,36.2c-0.7,2.5-1.1,5.1-2,7.5c-1.6,4.2-3.2,8.5-5.4,12.4
				c-9.3,16.5-22.5,29-39.4,37.7c-2,1-4.2,1.7-6.7,2.7c2,7.4,3.5,14.7,5.9,21.7c4.3,12.8,6.5,26,9,39.2c0.9,5,2.3,9.8,3.4,14.8
				c2.5,11.4,4.8,22.9,7.4,34.3c0.6,2.8,2,5.3,3.3,8.8c-0.6,1.1-1.6,3.1-2.2,4.3c-2.8,1-5,1.3-6.6,2.5c-9.6,7.1-20.7,10.6-32.2,13
				c-3.7,0.8-7.5,0.8-11.8,1.3c0,14.4,0,28.5,0,43c3.7-0.2,7.5-0.5,11.2-0.6c5.4-0.1,10.8-0.4,16.2-0.1c1.6,0.1,3.2,1.7,4.6,2.5
				c-0.3,2.7-0.5,4.8-0.8,7.4c-3.8,3-8.3,4.7-13.6,4.7c-4.9,0-9.7,0.6-14.6,0.9c-1.4,0.1-2.8,0-4.2,0.1c-2.8,0.1-4.4-1.6-4.8-3.9
				c-0.6-3.4-0.7-6.9-0.8-10.3c0-3.5,0.4-7,0.5-10.5c0.3-8.4,0.5-16.8,0.7-25.1c0.1-2.6,0-5.2,0-8.1c-8.4-0.7-16.3-1.4-25-2.2
				c0,4.6,0.1,9.4,0,14.2c-0.1,4-0.4,8-0.5,12c-0.2,6.9-0.3,13.9-0.5,20.8c-0.2,4.6-0.6,9.3-0.9,13.6c-5.8,0.3-10.9,0.3-16,0.9
				c-4.6,0.5-9.2,1.7-13.8,2.6c-2.4,0.5-4.5-1-4.8-3.5c-0.3-2.9-0.5-5.8-0.9-9.3c6.4-1.8,12.9-3.4,19.7-2.8c3.4,0.3,7,1,10.1-1.6
				c0.6-15.8,1.1-31.6,1.7-47c-7.3-1.3-13.8-2.3-20.2-3.7c-8.6-1.8-16.2-5.2-21.4-12.8c-5-2.5-4-6.6-3.1-10.8
				c1-4.7,1.7-9.5,2.6-14.7c-6.2-0.4-11.8,1-17.4,1.9c-1,0.2-2,0.6-3.1,0.7c-3.3,0.4-5.3-1.4-5.3-4.8c0.1-2.6,0.4-5.2,0.6-7.8
				c7.4-4.3,15.6-3.3,23.9-3.6C581.7,403.7,587.6,372.7,599.8,342.6z M577.6,470.2c1.8,1.2,2.8,1.6,3.6,2.3c8,8,18.7,9.3,29,10.1
				c7.1,0.6,14.2,1.6,21.3,2.1c14.1,1.1,28.1,1.9,42-2.5c9.1-2.9,17.4-7,25.1-12.8c-8.8-38.1-14.5-76.8-25.9-114.8
				c-0.8,1.1-1.3,1.7-1.7,2.5c-2.8,5.5-6.1,10.7-9.9,15.6c-8.7,11.4-17.9,22.3-29.4,31c-1.1,0.8-2.3,1.5-3.4,2.4
				c-7.4,5.8-14.7,11.7-22.2,17.3c-6.3,4.7-12.8,9.1-19.3,13.6c-1.3,0.9-2.2,1.8-2.6,3.6C582.2,450.4,579.9,460.3,577.6,470.2z
				 M560.1,295.1c4.7,8,8.8,15.6,13.7,22.8c2.6,3.8,6.2,7.2,10,9.8c9.2,6.4,19.5,10.9,30.3,13.7c14.7,3.8,29.4,3.7,43.8-1
				c4.8-1.6,9.6-3.5,13.7-6.4c15.2-11,26.8-24.9,32.1-43.3c0.8-2.7,1.9-5.6,0.7-8.7c-5.1,0.4-10.1,0.9-14.1-3.2
				c-0.6-0.6-2-0.5-3-0.4c-8,0.4-15.5-1.8-23.1-4.4c-8.4,5.1-16.9,3.6-24.7,0.1c-9.5,6-18.9,6.9-28.4,3.2
				c-5.4,2.7-10.4,5.4-16.4,5.3c-1.3,0-2.9,0.2-4,0.9C581.6,289.3,571.5,292.4,560.1,295.1z M689,252.8c0.1-0.4,0.2-0.9,0.3-1.3
				c-0.9-0.8-1.8-1.6-2.7-2.4c-1.1-0.9-2.3-1.7-3.2-2.7c-11.2-12-25.6-17.2-41.3-19.3c-7-0.9-14.3-0.7-21.4-0.8
				c-5.6-0.1-11.1,1-16.3,3.2c-11.5,4.7-21,12.3-29.7,21c-4.1,4.1-7,8.9-10.4,14.8c6.1-2.2,11.2-3.8,16.1-1.2c2.8-2.2,5.2-4.3,7.8-6
				c3.7-2.5,8.1-3.6,12.4-3.4c2.5,0.1,4.9,2.1,7.9,3.5c8.8-6.1,18.7-8.7,30-3.1c7.1-4.1,14.9-5.6,23-1.4c0.9,0.5,2.5,0.4,3.4,0
				c6.2-3.3,12.4-2.7,18.8-1C685.3,253.1,687.2,252.8,689,252.8z M604.3,354.1c-3.9,17.1-7.8,33.7-11.9,51.5
				c22.6-13.8,42.3-28.8,57.3-51C634,357.6,619,358.6,604.3,354.1z M791.4,251c-17.7-7.2-32.1-18.6-44.5-33.1
				c-2,2.9-3.5,5.2-5.3,7.9c15.3,14.6,25.8,32,31.1,53.2C782.9,272,789,263.4,791.4,251z M703.3,163.9c-1.5,5.9-4.8,9.5-8.8,12.4
				c-3.9,2.8-7.9,5.6-12.7,9c18.8,7,34.4,18.3,50.7,29.3c1.1-2,2-3.6,2.8-5.1C722.5,195.9,712.4,181,703.3,163.9z M670.6,269.3
				c10.3,3.8,19.8,3.2,27.4-1.7c-2.2-1.5-4.4-2.8-6.3-4.5c-4.8-4.1-10.7-4.7-16.6-5.3c-1.9-0.2-3.9,0.7-6.2,1.2
				C673.3,263.7,673.3,263.7,670.6,269.3z M635,265.4c12.1,7.1,24.1,7,31.1-2C658.6,254.6,643.3,257.2,635,265.4z M574.8,270
				c-11.7,1.6-19.3,8.5-24.6,19.2c10.3-0.8,19.5-3,28.3-7.5c-2.7-0.9-5.4-1.3-8.1-2c-3.2-0.8-3.6-1.6-3.2-5.6
				C569.8,272.8,572.3,271.4,574.8,270z M631.2,258.9c-10.9-2.1-18.2,4.2-26.5,8.6c11,6.3,14.6,6.7,26.9,3.1
				c-1.4-0.8-2.7-1.3-3.7-2.2c-3.3-2.8-3-5.2,0.7-7.5C629.4,260.5,630,259.9,631.2,258.9z M609.5,412.4
				c10.7-6.7,18.7-13.3,20.5-16.7c-1.7-1.4-3.5-2.9-5.2-4.3c-6.2,4.4-12.4,8.9-19,13.6C607.1,407.5,608.2,409.7,609.5,412.4z
				 M602.4,273.9c-1.4-4.3-8.9-4.2-7-10.4c1.9-0.7,3.5-1.2,5-1.8c-8.7,0.6-15.7,5.3-21.2,13.8C587.2,275.9,594.9,277.7,602.4,273.9z
				 M653,361.9c-5.6,6.6-10.9,12.9-16.5,19.4c1.9,1.4,3.6,2.7,5.7,4.2c5.9-6.4,11.4-12.7,16.1-19.9
				C656.3,364.3,654.8,363.2,653,361.9z M696.7,159.5c-8.2,2.1-15.5,9.2-17.6,16.9C685.9,171.5,692.4,167.5,696.7,159.5z M588.1,428
				c3.1-2.1,6.1-4.3,9.1-6.3c-1.7-2.8-3.1-5.1-4.8-7.7C587.9,417.6,589.2,423.2,588.1,428z M701.6,274.5c0.1,0.4,0.2,0.8,0.3,1.3
				c4.3-0.8,8.6-1.6,13.4-2.4c-3.1-2.6-5.5-4.7-7.8-6.6C705.6,269.3,703.6,271.9,701.6,274.5z M600.3,407.8c-0.8,1.3-2.2,2.5-2,3.3
				c0.6,2.7,1.2,5.7,4.3,7.2c1.1-1,2.1-1.9,3-2.8C603.8,412.9,602.3,410.7,600.3,407.8z M638.6,389.7c-2.8-1.9-4.8-3.1-6.7-4.4
				c-1.1,0.7-1.9,1.3-3,2c2.4,2.2,4.1,3.8,5.5,5C635.8,391.4,636.9,390.7,638.6,389.7z M663.2,356.9c-1.9-0.7-3.7-1.4-5.9-2.1
				c-0.4,1-0.8,1.9-1.1,2.8C661.7,360.1,661.7,360.1,663.2,356.9z"/>
			<path d="M637.6,307.8c-3.3,0-6.7-3.7-6.8-7.3c-0.1-3.4,3.4-7.1,6.9-7.2c1.9-0.1,7.5,5.7,7.6,7.8
				C645.4,303.6,640.6,307.8,637.6,307.8z"/>
			<path d="M662.9,300.6c0.1-3.4,3.7-7.5,6.3-7.2c3,0.3,6.7,5,6.6,8.4c-0.1,3.4-4,6.9-7.4,6.7C665.5,308.1,662.8,304.3,662.9,300.6z
				"/>
		</g>
		<path class="st1" d="M577.6,470.2c1.8,1.2,2.8,1.6,3.6,2.3c8,8,18.7,9.3,29,10.1c7.1,0.6,14.2,1.6,21.3,2.1
			c14.1,1.1,28.1,1.9,42-2.5c9.1-2.9,17.4-7,25.1-12.8c-8.8-38.1-14.5-76.8-25.9-114.8c-0.8,1.1-1.3,1.7-1.7,2.5
			c-2.8,5.5-6.1,10.7-9.9,15.6c-8.7,11.4-17.9,22.3-29.4,31c-1.1,0.8-2.3,1.5-3.4,2.4c-7.4,5.8-14.7,11.7-22.2,17.3
			c-6.3,4.7-12.8,9.1-19.3,13.6c-1.3,0.9-2.2,1.8-2.6,3.6C582.2,450.4,579.9,460.3,577.6,470.2z"/>
		<path class="st1" d="M791.4,251c-17.7-7.2-32.1-18.6-44.5-33.1c-2,2.9-3.5,5.2-5.3,7.9c15.3,14.6,25.8,32,31.1,53.2
			C782.9,272,789,263.4,791.4,251z"/>
		<path class="st1" d="M703.3,163.9c-1.5,5.9-4.8,9.5-8.8,12.4c-3.9,2.8-7.9,5.6-12.7,9c18.8,7,34.4,18.3,50.7,29.3
			c1.1-2,2-3.6,2.8-5.1C722.5,195.9,712.4,181,703.3,163.9z"/>
		<path class="st1" d="M670.6,269.3c10.3,3.8,19.8,3.2,27.4-1.7c-2.2-1.5-4.4-2.8-6.3-4.5c-4.8-4.1-10.7-4.7-16.6-5.3
			c-1.9-0.2-3.9,0.7-6.2,1.2C673.3,263.7,673.3,263.7,670.6,269.3z"/>
		<path class="st1" d="M635,265.4c12.1,7.1,24.1,7,31.1-2C658.6,254.6,643.3,257.2,635,265.4z"/>
		<path class="st1" d="M574.8,270c-11.7,1.6-19.3,8.5-24.6,19.2c10.3-0.8,19.5-3,28.3-7.5c-2.7-0.9-5.4-1.3-8.1-2
			c-3.2-0.8-3.6-1.6-3.2-5.6C569.8,272.8,572.3,271.4,574.8,270z"/>
		<path class="st1" d="M631.2,258.9c-10.9-2.1-18.2,4.2-26.5,8.6c11,6.3,14.6,6.7,26.9,3.1c-1.4-0.8-2.7-1.3-3.7-2.2
			c-3.3-2.8-3-5.2,0.7-7.5C629.4,260.5,630,259.9,631.2,258.9z"/>
		<path class="st1" d="M609.5,412.4c10.7-6.7,18.7-13.3,20.5-16.7c-1.7-1.4-3.5-2.9-5.2-4.3c-6.2,4.4-12.4,8.9-19,13.6
			C607.1,407.5,608.2,409.7,609.5,412.4z"/>
		<path class="st1" d="M602.4,273.9c-1.4-4.3-8.9-4.2-7-10.4c1.9-0.7,3.5-1.2,5-1.8c-8.7,0.6-15.7,5.3-21.2,13.8
			C587.2,275.9,594.9,277.7,602.4,273.9z"/>
		<path class="st1" d="M653,361.9c-5.6,6.6-10.9,12.9-16.5,19.4c1.9,1.4,3.6,2.7,5.7,4.2c5.9-6.4,11.4-12.7,16.1-19.9
			C656.3,364.3,654.8,363.2,653,361.9z"/>
		<path class="st1" d="M588.1,428c3.1-2.1,6.1-4.3,9.1-6.3c-1.7-2.8-3.1-5.1-4.8-7.7C587.9,417.6,589.2,423.2,588.1,428z"/>
		<path class="st1" d="M701.6,274.5c0.1,0.4,0.2,0.8,0.3,1.3c4.3-0.8,8.6-1.6,13.4-2.4c-3.1-2.6-5.5-4.7-7.8-6.6
			C705.6,269.3,703.6,271.9,701.6,274.5z"/>
	</g>
	<g>
		<g>
			<g>
				<path d="M157.9,72.8c0.6-21.9-1.3-43.2-4.6-64.9c-4.9,1.5-9.9,2.7-14.6,4.5c-15.5,5.9-30.8,12.1-46.2,18.1
					c-1.1,0.4-2.1,1-3.2,1.3c-15,3.8-28.8,10.9-43.3,16c-9.5,3.3-19.2,6-28.8,9.2c-3.4,1.1-6.5,3-10.4,4.8c0,7.1-0.1,14.3,0,21.4
					c0.1,8.9,0.2,17.9,0.5,26.8c0.4,10.8,1,21.7,1.4,32.5c0.3,8.6,0.2,17.1,0.3,25.7c0.1,4.4,0.2,8.7,0.3,13.1
					c0.1,7.6-0.1,15.2,0.1,22.8c0.5,23.2,1.8,46.4,3.8,69.5c-0.2,8.9,20.1,4.8,29.2,0.4c21.3-10.1,42.6-20.3,64-30.4
					c19-10.2,13.6,1.2,11.3,2.2c-10.3,4.6-20.7,8.7-30.9,13.5c-12.6,5.8-25.3,11.6-37.5,18.3c-7.7,4.3-15.6,7-24.1,8.3
					c-4.5,0.7-9.1,0.8-13.7,0.7c-3.7-0.1-4.7-1.1-5-4.8c-0.5-6-1.7-11.9-0.7-18.1c0.8-5.3-0.8-10.9-1.1-16.4
					c-0.8-14.8-1.9-29.6-2.2-44.4c-0.4-17.9,0.1-35.8-0.3-53.7c-0.4-16.7-1.7-33.4-2.1-50.2C-0.2,86.8,0.4,74.4,0.5,62
					c0-3.2,1.6-4.6,4.1-6.1c6.8-4.1,14.6-5.3,21.9-7.9c5.2-1.9,10.2-4.5,15.5-5.6c14.9-3.1,27.7-11.5,42.4-15.1
					c8.9-2.2,17.1-7.3,25.8-10.6C123.1,11.8,136,7.5,149,2.9c2-0.7,4-1.3,5.9-2.2c1.9-0.9,3.6-1.2,5.2,0.4c1.4,1.3,1.1,2.6,0.9,4.5
					c-0.4,4.1,0.1,8.3,0.4,12.5c1.1,15,2.4,29.9,3.5,44.9c0.1,1.9-0.1,3.8-0.3,5.7C164.1,73.6,163.9,73.7,157.9,72.8z"/>
				<path d="M50.2,90.6c0.7,3.4-2.8,7.9-11.6,7.6s-12,4.4-18.2,5.8c-1.4,0.3-3,0.6-4.2,0.2c-1-0.3-2.3-1.7-2.4-2.7
					c-0.1-0.7,1.4-1.9,2.4-2.5c2.2-1.4,4.5-2.6,6.9-3.8c1.5-0.8,3.1-2,4.7-2c4.7-0.1,10.2-0.9,14-4.3C45.4,85.6,49.4,87.2,50.2,90.6
					z"/>
				<path d="M111.1,70c-1.2-3.4,2.5-8.5,12.9-9c10.4-0.5,13.7-5.6,20.8-7.8c1.6-0.5,3.4-0.9,5-0.6c1.3,0.2,2.9,1.5,3.1,2.5
					c0.2,0.8-1.4,2.1-2.5,2.8c-2.5,1.6-5.1,3.1-7.7,4.6c-1.7,0.9-3.5,2.3-5.3,2.5c-8.8,3-11.9,1.9-16,5.8
					C117.3,74.7,112.3,73.4,111.1,70z"/>
			</g>
			<path d="M174.5,64.8c7.7-1.3,15.5-0.6,23,1c22.9,5,40.2,18.2,52.8,37.8c3.5,5.2,5.3,11.8,5.9,12.5c2.8,3,10.2,9.2,10.7,11.1
				c0.5,1.9-6.4,7-10.8,7.4c-8.9,30.3-28.2,49.3-58.5,57.9c2.6,14.8,5.2,29.5,7.8,44.1c4.2-3.6,8.3-7.8,13.1-11.1
				c5-3.3,10.8-5.1,17.1-5.8c1.3-7.3-1-20,1.7-21s9.5,0,14.2-0.5c4.7-0.6,15.6-1.9,23.4-2.6c5.1-0.4,7.1,2.7,5.2,7.4
				c-0.9,2.3-1.7,4.6-2.2,7c-0.6,2.5-0.9,5.1-1.4,8.3c4.5,0.7,8.8,1.1,12.9,2.1c5.8,1.3,12,2.2,17.2,4.7c4.8,2.3,8.8,6.3,12.7,10.2
				c3,3,5.6,6.7,7.7,10.4c6.1,10.8,12.9,21.2,17.1,33c3.1,8.4,7.1,16.6,9.8,25.1c3.5,11.4,6.1,23.2,9.2,34.8c1,3.9,3.5,11.5-3.7,15
				c-6.5,3.8-13.7,5.3-21,6c-5.8,0.6-11.6,0.7-17.5,1c-2.6,0.1-4.3-1.4-5-5.1c-0.9-5-1.4-10-2.1-15.2c-4.3,2.1-8.7,4.2-13.8,6.7
				c0.5,1.7,0.9,3.9,1.9,5.7c5.5,10.5,9.9,21.5,13.6,32.8c2.5,7.7,4.8,16,12,21.7c1.3-2.8,2.8-8.1,5.7-9.4
				c2.9-1.4,13.5,2.8,14.9,4.9c1.4,2.1-5.9,11.8-8.5,17c1.6,6,4.4,11.3,2.1,17.6c3.6-0.1,5.1,2.3,6.7,5
				c7.8,13.3,15.8,26.6,23.7,39.8c1,1.8,3,4.8,4.1,6.6c4.4,6,1.1,10.5-2.8,13.4s-6.8,2.5-10.4,2.6c-11.8,0.3-23.6,0.7-35.4,1.1
				c-1.1,0-2.2,0.1-3.7,0.2c2.6,4.5,11.3,9.3,8.8,12.3s-14,3.1-21,4.6c-7,1.5-13.9,3-21.3,4.6c1.7,3.4-0.3,5.1-2.9,7
				c-6.1,4.4-12,9.1-17.9,13.7c-1.9,1.5-3.6,3.3-5.5,4.7c-3.3,2.4-7.8-2.6-10.3-6c-2.5-3.4-1.8-6.7,2.2-9.8c0.9-0.7,1.7-1.3,2.2-2.9
				c-6.7,1-13.4,2-20.7,3.1c1.7,2.6,6.2,5.5,4.8,7.5c-1.5,2-25.3,6.7-32.3,8.9c-2.5,0.8-3.8,0.2-5.3-1.6c-3.6-4.3-7-8.7-5.6-10.9
				c1.4-2.2,19.2-7.8,28.9-11.8c2-0.8,3.5-0.4,5.1,1c1,0.8,2.7,1.6,4,1.3c7.8-1.3,15.5-2.9,23.3-4.5c1-0.2,1.9-0.9,3.2-1.4
				c-20.8-1.8-41.3-3.1-61.4-7.3c-7.2-1.5-20.1-2.1-22.2-2.7c-2.1-0.6-3.9-2.6-2.2-5c1.7-2.4,3.1-4.4,4.8-6.9
				c-14.6-1.2-28.8-2.4-43-0.8c-2.2,0.2-4.6,0.7-6.7,0.3c-1.7-0.3-3.4-1.5-4.5-2.8c-1.5-1.7-0.5-3.6,1.9-3.8
				c3.9-0.2,7.9-0.3,11.9-0.4c9.8-0.3,19.5-0.2,29.3,0.3c18,0.9,36.1,0.9,54.2,1.5c13.5,0.4,27.1,1.5,40.6,1.6
				c15.8,0.2,31.6-0.4,47.4-0.6c4.7-0.1,9.4,0.1,14.2-0.1c11.3-0.4,22.6-0.9,33.9-1.4c2-0.1,4.2,0.1,7-1.1c2.9-1.2-0.5-5.3-1.8-7.9
				c-1.8-3.9-3.8-7.8-6-11.5c-6.9-11.9-13.9-23.7-21-35.6c-1.1,0-2.4,0-3.7,0c-9.1-0.3-12.5,3-12.8,12.4c0,1.2-0.7,2.5-1.3,3.5
				c-1,1.6-2.2,3.1-3.4,4.8c2.4,1.9,6.8,2.8,4.6,7.4c-4.1,0.4-8.1,0.9-12,1.1c-4.1,0.2-4.5-0.2-4.7-4.3c-0.3-4.7-0.7-9.4-0.4-14.1
				c0.2-2.5,1.9-4.8,2.9-7.2c1.5-3.4,2.7-6.7,2-10.8c-0.6-3.1,1-6.6,1.7-10.3c2.1,0.7,3.9,1.3,5.7,1.9c-1.4-3.1-2.7-6-6.7-6
				c-10.7,0-21.5-0.4-32.2-0.3c-17.5,0.2-35,1.1-52.5,0.9c-11.3-0.1-22.5,1.6-33.7,1.8c-1.4,0-3.3,1.2-3.9,2.5
				c-7.3,13.7-17.6,25.3-26.5,37.9c-7.8,11-16.2,21.5-25.1,31.8c-0.8,0.9-6.2,6.3-7.3,6.2c-1.1-0.1-2.6-1.1-3-2.2
				c-0.4-0.9,4.2-7.1,5-7.9c3.3-3.9,6-8.1,9.1-12.1c8.1-10.4,16-20.9,24-31.4c2.5-3.3,4.9-6.6,7.7-10.3c-3.9-3.3-2-7.8-2.2-11.8
				c-0.1-1.5,1.9-3.6,3.5-4.7c3.6-2.4,7.6-4.2,11.3-6.4c1.8-1.1,3.8-2.5,5-4.2c8.2-12.6,16.5-25.2,24.3-38.1
				c2.7-4.4,4.2-9.6,6.3-14.5c1.1-2.6,2.2-5.2,3.1-7.9c0.5-1.5,0.6-3.2,0.9-5c-4.1-1.5-7.7-2.8-11.7-4.2c0,3.2-0.2,6.3,0.1,9.3
				c1.6,6.4,3,11.9,2.2,12.7c-1.5,1.6-3.4,3.3-5.5,3.7c-13.3,2.8-26.7,4.1-40.2,1.5c-0.9-0.2-1.7-0.6-3-1.1
				c-0.8,3.7-1.8,7.3-2.3,10.9c-0.9,7.3-1.5,14.6-2.4,21.9c-0.6,5-2.6,6.1-8.3,5.3c-2.5-0.4-5-0.4-7.8-0.6c-0.3,2.3-0.5,4-0.7,5.6
				c-0.5,4.6-0.4,4.7-5.3,5.5c-3.1,0.5-6.3,0.6-9.5,1c-4.4,0.7-9,1-13.2,2.5c-3.8,1.3-6.4,0.4-8.6-2c0-3.3,0-6.2,0-9.9
				c5.1-1.4,10.1-2.8,16.1-4.4c0.2-1.7,0.6-4.3,0.5-6.8c-0.1-4.5,0-5.2,4.3-6.5c3.7-1.1,7.6-1.8,11.6-2.8
				c2.3-17.7,4.5-35.4,6.9-53.4c-4.9-1.4-10-2.6-14.9-4.2c-11-3.5-40.3-16.4-40.9-21.7c-0.6-5.3,30.7-86.6,34.8-95.7
				c3.2-7,6.8-13.8,10.1-20.6c-5.9-2.7-11.9-4.9-17.3-8c-12.4-7.1-21.9-17.1-28-30.2c-2.3-4.9-5-9.7-7.7-14.5
				c-4.5-8.1-7.8-16.7-10.6-25.5c-0.2-0.7-0.6-1.3-1.2-2.5c-1.2,1.4-2.2,2.6-3.2,3.8c-0.8,1-1.5,2.3-2.6,2.9
				c-5,2.8-12.2,8.9-17.3,7.3c-5-1.6-12.4,4.8-12.4-1.6c0-6.6,17.2-3.2,21-5.8c1-5.7,2.1-11,2.9-16.4c0.2-1.2,0.1-2.6-0.4-3.7
				c-2.6-5.4-1.4-10.2,3.8-12.7c2.3-1.1,3.2-2.7,4.4-4.7c4.3-6.9,8.9-13.6,13.3-20.3c1.8-2.7,3.6-5.3,5.3-8c1.3-2.1,2.8-2.3,4.7-1
				c4.5,3.1,8.9,6.2,13.4,9.3c1.5,1.1,2.8,3.3,2.2,5.6c-0.6,2.3-10.2,13.3-15.9,20.7c-4.5,5.8-8.5,11.9-12.9,17.8
				c-1.5,1.9-1.4,3.6-0.5,5.7c5.4,13.3,11.2,26.3,18.2,38.8c3.3,5.9,6.3,12,10.8,17.2c7.4,8.6,17.9,15.2,34.4,17.5
				c-2.4-1.7-4.7-3.5-7.1-5.2c-12.5-8.6-20.4-20-23.7-35.1c-2-9.2-2-17.8,0.6-26.8c-1.2-0.8-2.3-1.4-3.2-2.3c-0.9-0.8-1.4-2-1.8-2.5
				c3.4-3.1,6.6-5.6,9.4-8.5c1.6-1.6,9.3-18.3,26.7-26.7C150.3,70.7,168,66,174.5,64.8z M248.8,116.3c1.5,2,2.7,3.6,3.9,5.3
				c-0.3,0.5-0.6,1.3-1,1.5c-2.4,0.9-5,1.7-8,2.7c5.3,3.6,10.2,4.4,16.4,1.9C257.8,123.7,254.7,117.6,248.8,116.3z M117.4,117.4
				c-4.7,16.2-0.9,30.9,8,44.1c8.7,12.8,22.2,20,36.4,24.5c18,5.6,35.8,2.7,52.5-6.2c12.5-6.7,21.3-17.2,28.9-28.8
				c3.3-5.1,6.3-10.6,7.3-16.3c-3.3-1.7-6.7-2.9-9.1-5c-2.9-2.5-5.4-4.5-9.5-4.7c-2.2-0.1-4.5-1.7-6.4-3.1c-2.2-1.7-4.2-2.6-7.1-2.4
				c-6.3,0.5-11.9-1.6-16.4-6c-2.2-2.2-4.1-3.4-7.3-3.1c-1.4,0.1-3.1-1.1-4.4-2c-1.6-1.2-2.9-2.8-4.7-4.6c-0.8,3.8-3.2,4.8-6.7,4.6
				c-3.9-0.2-7.8-0.1-12.5-0.1c-1,0.6-2.8,2.6-4.8,2.8c-5.1,0.6-10.2,2.2-15.5,1c-1.7-0.4-3.8-0.3-5.3,0.5
				C133.5,116.5,125.8,118.3,117.4,117.4z M100.1,306.9c10.3,6.1,20.3,11.6,31.4,14.8c5.4,1.6,10.7,3.9,16.2,4.7
				c7.9,1.1,15.9,4.6,24,0.6c0.4-0.2,4.7-6.9,2.2-10.8c-1.7,0.4-3.3,0.9-4.9,1.1c-2.9,0.3-5.8-2.3-5.5-5.1
				c0.7-6.1,1.5-12.3,2.2-18.4c0.3-2.8,0.5-5.4,3.6-7c1.3-0.7,1.9-3.1,2.2-4.9c2.1-11.7,4.1-23.3,6-35c1.8-11.3,3.4-22.6,5.3-35.1
				c-17.5,12.4-36.4,17.7-56.5,18.7C115.5,255.3,107.3,280.6,100.1,306.9z M313.1,330.8c-1.5-8.4-2.7-16.8-4.7-25
				c-1.8-7.5-4.4-14.8-6.8-22.1c-1.3-3.8-3.9-5.6-8.2-5.2c-8.8,0.9-17.6,1.4-26.4,2.1c-11.8,0.9-23.6,2.8-35.5,2.1
				c-2.4-0.1-4.8,0-7.5,0c-2,5.3-4.4,10.1-5.4,15.2c-2.2,10.5-3.5,21.2-5.4,31.7c-0.5,2.9,0.3,4.4,2.7,5.3c4.1,1.4,8.2,2.8,12.4,3.9
				c6.2,1.6,12.4,3.3,18.7,4c8,0.9,16.2,1.3,24.2,1.2C286.2,343.9,300.9,342.2,313.1,330.8z M221.7,414.1
				c30.7-0.4,60.4-0.8,90.6-1.3c-5.3-19.4-10.2-38.7-17.6-57c-21.5,4-42.7,1.4-64.5-0.9C227.3,374.7,224.6,394,221.7,414.1z
				 M246.5,109.9c-4.4-11.4-12.7-18.7-21.3-25.7c-13.1-10.5-28.3-14.4-44.8-14c-7.3,0.2-14.6,1.3-21.3,4.3
				c-5.8,2.6-11.4,5.7-16.9,8.9c-5,2.9-9.7,6.2-13.5,10.8c3.5,0.8,6.7,1.5,9,2c3.5-2.2,6.6-4.2,9.8-6c3.9-2.2,7,0.6,10.2,2.2
				c4-4.3,8.6-7.3,14.1-5.9c4.9,1.2,10.1,2.8,12.7,8.1c1-1,1.8-1.9,2.7-2.5c5.4-3.3,9-5.7,15.3-0.3c2,1.7,4.9,3.3,7.4,3.4
				c6,0.2,10.5,2.4,13.7,7.4c1,1.6,2.5,2.9,4.8,2.2c4.8-1.5,8.7,0.5,12.6,3.2C242.5,109,244.6,109.2,246.5,109.9z M322.9,514
				c-3.2-2.4-5.2-3.8-7-5.4c-2.1-2-4.3-2.3-7.2-2.2c-7.5,0.3-15.1,0.1-22.6,0.1c-4.8,0-9.7,0.3-14.5,0.1c-8.8-0.3-17.7-0.9-26.5-1.2
				c-14.5-0.5-29-0.6-43.5-1.5c-6.3-0.4-10.6,2.2-15.2,6.3c6.4,0.8,12.1,1.5,17.8,2.3c10.6,1.5,21.2,3.3,31.8,4.5
				c12.3,1.4,24.7,2.4,37.1,3.6c4.4,0.4,9,1.5,13.3,0.8C298.2,519.4,310,516.7,322.9,514z M245,254c6.7,0,15.5,0,21.9,0
				c-0.2-17.8,3-34.5,6.1-51.7c-10.2,1.2-20.5,2.4-30.2,3.6c0,10,0.4,19.2-0.1,28.4C242.3,241.7,243,247.5,245,254z M191.5,205.3
				c-0.5,0-0.9,0-1.4,0.1c-4.2,27.1-8.4,54.3-12.6,81.3c1.3,0.7,2.4,1.4,3.6,2.1c0.4-0.7,1-1.3,1.2-2c2.4-12.9,12-32.7,15.5-41
				c-1-12.5-3.3-24.9-5.2-37.4C192.4,207.3,191.9,206.3,191.5,205.3z M164.9,335.2c-4.4-0.5-7.9-1-11-1.3
				c-1.9,17.9-3.7,35.2-5.6,52.6c3.5,1,6.3,1.8,9.5,2.7C160.2,371.1,162.5,353.3,164.9,335.2z M197.4,261.1c-1.8,1.3,0.3,4.3,2,4.2
				c8.6-0.3,17.3-0.5,25.9-0.7c3-0.1,6,0.1,9-0.1c15.2-0.7,30.4-1.6,45.6-2.1c11.7-0.4,23.3-0.3,35-0.5c3.2-0.1,10.5-0.1,11.5-0.9
				c0.9-0.8-2.6-6.2-6-5.9c-11.3,1.1-26,0.9-37.3,2.2c-11.9,1.3-23.9,1.3-35.9,1.8c-12.5,0.5-25,0.9-37.6,1.3
				C204.7,260.7,199.2,259.8,197.4,261.1z M92.4,56.4c-6.6,10-14.5,19.1-19.6,30.1c2.3,1.8,4.2,3.4,6.3,5.1c4-5,7.7-9.8,11.4-14.5
				c3.7-4.7,7.3-9.4,11.1-14.3C98.2,60.5,95.5,58.6,92.4,56.4z M220,378.1c-0.3-0.1-0.5-0.2-0.8-0.3c-7.8,12.6-15.7,25.1-23.7,38
				c6.5-0.6,12.7-1.1,19.5-1.8C216.7,402,218.4,390.1,220,378.1z M143,194.5c-3.2,6.6-6.5,13.2-9.9,20.4
				c12.8-1.3,23.9-5.5,33.8-13.6C158.9,199,151.4,196.8,143,194.5z M160.2,98.7c6.3,3.9,12.4,4.4,18.7,2.8c1.1-4.1,0.7-6.2-3.6-7.9
				c-4.6-1.8-5.5-2.6-9.3,0.1C164.1,95.1,162.4,96.8,160.2,98.7z M209.7,101.1c0.9,2.5,1.4,4.6,2.3,6.5c1.3,2.8,0.5,4.3-2.9,4.8
				c5.1,2.8,9.5,1.8,14.3,0C220.4,107,218.8,100.7,209.7,101.1z M160.3,105.6c0.2-0.4,0.4-0.7,0.6-1.1c-1.6-0.7-3.2-1.4-4.8-1.9
				c-4.7-1.5-5.5-2.8-4.8-7.6c-5.1,1.3-7.5,5.8-11.1,9.1C146.9,109.3,153.8,104.9,160.3,105.6z M128.7,103.7
				c1.5-1.2,2.2-1.8,2.9-2.4c0.5-0.5,1-1,2.4-2.3c-8.5,1.6-13.1,6.3-17.4,12.5c6.3,1.3,11.8,0.2,17-2.5
				C132.1,107.4,130.7,105.8,128.7,103.7z M197.2,93.4c-1.7,0.9-3.4,1.7-5,2.7c-2.2,1.4-1.9,3.6-1.3,5.6c0.6,1.9,1.8,3.1,4.3,2.6
				c2.9-0.6,5.8-0.7,8.9-1C203.8,98.6,201,95.8,197.2,93.4z M242.4,119.8c0.3-0.4,0.5-0.9,0.8-1.3c-2.3-2.6-4.5-5.3-7-7.6
				c-1.5-1.4-4.6-0.9-5.3,0.2c0.5,1.6,1,3.1,1.5,4.7c-2,0.4-3.5,0.7-6.2,1.2C231.9,121.6,237.4,118.8,242.4,119.8z M340.2,405
				c-0.9-1-3.3,0-3.7,0.3c-2.1,1.9-9.9,19.2-10.1,22c0.6-0.1,1.4,0,1.6-0.2C331.9,420.1,341.1,406,340.2,405z M321.3,420.2
				c3.9-7,3.9-7-1.7-12.2c-1-0.9-1.7-2-2.5-3c-0.2,0.1-0.3,0.2-0.5,0.4C318.1,410.1,319.6,414.8,321.3,420.2z M177.6,207.4
				c2.1-0.7,4.7-3.7,6.3-5c-2.9-0.4-6.4,0-8,1.7C174.2,205.8,176,207.9,177.6,207.4z M173.2,210.3c0.8-0.9-0.7-3.2-2.9-2.3
				c-2.2,0.9-7.2,2.5-8.8,4.2c-1.3,1.3-1.1,2.6,0.9,3.1C163.8,215.6,172.4,211.2,173.2,210.3z M311.1,455.3c0.5,1.9,0.8,3.3,1.2,4.9
				c1.5-1.8,2.9-3.3,4.8-5.5C314.7,454.9,313.3,455.1,311.1,455.3z M313.8,449.5c5.5-1,3.5-4.5,4.5-6.6c-0.3-0.2-0.7-0.3-1-0.5
				C316.3,444.4,315.3,446.4,313.8,449.5z M148.4,221.1c1.4-1,0.9-2.5-1.1-2.4c-2.3,0.1-6,1.2-7,1.5c-1,0.3-1.2,2,0.6,2.4
				C142.8,222.9,147,222.1,148.4,221.1z M130.9,220.3c-0.8,0.2-2.1,2.6-0.8,3.1c1.3,0.5,5.7,0.2,6.3-0.5c0.6-0.7,0.2-2.3-0.4-2.5
				S131.6,220.2,130.9,220.3z M152.4,216.9c-0.6,0.5-0.8,3.2,0.6,3.1c1.4-0.1,5.2-2.2,5.5-3.1c0.2-0.9-0.8-2.2-1.4-2.1
				C156.4,214.9,153,216.4,152.4,216.9z M67.1,106.3c1.7-1.5,3.1-2.5,0.4-4.4C67.4,103.5,67.3,104.6,67.1,106.3z"/>
			<path d="M297.7,483.3c5.8-5.9,12.8-5.3,19.8-3.5c1.5,0.4,2.5,2.2,4.4,4c-2,0.9-3.1,1.7-4.2,1.8c-3.2,0.2-6.3-0.2-9.5,0
				c-1.6,0.1-3.5,0.5-4.7,1.5c-3.5,2.7-6.7,2.4-9.6-0.4c-2.7-2.5-5.2-2.7-8.1-0.7c-4.3,2.9-8.5,3.4-12.9,0c-2.2-1.7-4.7-1.1-6.9,0.2
				c-4.8,2.8-9.7,3.3-15.2,2c-3.2-0.8-6.7-0.3-10-0.2c-2.2,0-4.5,0.2-4.8-2.6c-0.3-2.7,2-3.7,4-3.7c3-0.1,6.1-0.1,8.9,0.7
				c4.7,1.4,8.9,0.9,13-1.6c3.9-2.4,7.7-2.7,11.6-0.1c2.3,1.5,4.6,1.8,7.4,0.5C289.5,476.9,289.6,477,297.7,483.3z"/>
			<path d="M164.6,143.4c1.4,0.7,2.7,1.2,3.7,1.9c4.9,3.3,5.5,7.4,1.6,11.8c-1.6,1.8-3.5,3.7-6.2,2.8c-2.9-1-4.7-3-5.1-6.2
				C158.1,149.6,159.5,147.1,164.6,143.4z"/>
			<path d="M184.7,156c0-3.9,3.1-8,5.7-7.9c3.2,0.1,7.1,4.6,6.9,7.8c-0.3,3.7-3.9,7.1-7.4,7.1C187.3,162.9,184.7,159.4,184.7,156z"
				/>
			<path d="M284.6,311.8c0.1,2.9-4.6,6.8-8.3,7c-2.8,0.1-6.3-3.5-6.4-6.7c-0.1-4,3.8-7.7,8.6-7.9
				C281.3,304.1,284.5,308.1,284.6,311.8z"/>
			<path d="M256.2,311.2c-0.2,3.2-4.1,7.2-6.9,7c-3.3-0.2-6.6-4.4-6.3-8c0.2-3.4,4-7.3,6.8-7.2C252.7,303.2,256.4,308,256.2,311.2z"
				/>
		</g>
		<path class="st1" d="M248.8,116.3c1.5,2,2.7,3.6,3.9,5.3c-0.3,0.5-0.6,1.3-1,1.5c-2.4,0.9-5,1.7-8,2.7c5.3,3.6,10.2,4.4,16.4,1.9
			C257.8,123.7,254.7,117.6,248.8,116.3z"/>
		<path class="st1" d="M100.1,306.9c10.3,6.1,20.3,11.6,31.4,14.8c5.4,1.6,10.7,3.9,16.2,4.7c7.9,1.1,15.9,4.6,24,0.6
			c0.4-0.2,4.7-6.9,2.2-10.8c-1.7,0.4-3.3,0.9-4.9,1.1c-2.9,0.3-5.8-2.3-5.5-5.1c0.7-6.1,1.5-12.3,2.2-18.4c0.3-2.8,0.5-5.4,3.6-7
			c1.3-0.7,1.9-3.1,2.2-4.9c2.1-11.7,4.1-23.3,6-35c1.8-11.3,3.4-22.6,5.3-35.1c-17.5,12.4-36.4,17.7-56.5,18.7
			C115.5,255.3,107.3,280.6,100.1,306.9z"/>
		<path class="st0" d="M221.7,414.1c30.7-0.4,60.4-0.8,90.6-1.3c-5.3-19.4-10.2-38.7-17.6-57c-21.5,4-42.7,1.4-64.5-0.9
			C227.3,374.7,224.6,394,221.7,414.1z"/>
		<path class="st0" d="M245,254c6.7,0,15.5,0,21.9,0c-0.2-17.8,3-34.5,6.1-51.7c-10.2,1.2-20.5,2.4-30.2,3.6c0,10,0.4,19.2-0.1,28.4
			C242.3,241.7,243,247.5,245,254z"/>
		<path class="st1" d="M191.5,205.3c-0.5,0-0.9,0-1.4,0.1c-4.2,27.1-8.4,54.3-12.6,81.3c1.3,0.7,2.4,1.4,3.6,2.1
			c0.4-0.7,1-1.3,1.2-2c2.4-12.9,12-32.7,15.5-41c-1-12.5-3.3-24.9-5.2-37.4C192.4,207.3,191.9,206.3,191.5,205.3z"/>
		<path class="st0" d="M197.4,261.1c-1.8,1.3,0.3,4.3,2,4.2c8.6-0.3,17.3-0.5,25.9-0.7c3-0.1,6,0.1,9-0.1
			c15.2-0.7,30.4-1.6,45.6-2.1c11.7-0.4,23.3-0.3,35-0.5c3.2-0.1,10.5-0.1,11.5-0.9c0.9-0.8-2.6-6.2-6-5.9
			c-11.3,1.1-26,0.9-37.3,2.2c-11.9,1.3-23.9,1.3-35.9,1.8c-12.5,0.5-25,0.9-37.6,1.3C204.7,260.7,199.2,259.8,197.4,261.1z"/>
		<path class="st1" d="M160.2,98.7c6.3,3.9,12.4,4.4,18.7,2.8c1.1-4.1,0.7-6.2-3.6-7.9c-4.6-1.8-5.5-2.6-9.3,0.1
			C164.1,95.1,162.4,96.8,160.2,98.7z"/>
		<path class="st1" d="M209.7,101.1c0.9,2.5,1.4,4.6,2.3,6.5c1.3,2.8,0.5,4.3-2.9,4.8c5.1,2.8,9.5,1.8,14.3,0
			C220.4,107,218.8,100.7,209.7,101.1z"/>
		<path class="st1" d="M160.3,105.6c0.2-0.4,0.4-0.7,0.6-1.1c-1.6-0.7-3.2-1.4-4.8-1.9c-4.7-1.5-5.5-2.8-4.8-7.6
			c-5.1,1.3-7.5,5.8-11.1,9.1C146.9,109.3,153.8,104.9,160.3,105.6z"/>
		<path class="st1" d="M128.7,103.7c1.5-1.2,2.2-1.8,2.9-2.4c0.5-0.5,1-1,2.4-2.3c-8.5,1.6-13.1,6.3-17.4,12.5
			c6.3,1.3,11.8,0.2,17-2.5C132.1,107.4,130.7,105.8,128.7,103.7z"/>
		<path class="st1" d="M197.2,93.4c-1.7,0.9-3.4,1.7-5,2.7c-2.2,1.4-1.9,3.6-1.3,5.6c0.6,1.9,1.8,3.1,4.3,2.6c2.9-0.6,5.8-0.7,8.9-1
			C203.8,98.6,201,95.8,197.2,93.4z"/>
		<path class="st1" d="M242.4,119.8c0.3-0.4,0.5-0.9,0.8-1.3c-2.3-2.6-4.5-5.3-7-7.6c-1.5-1.4-4.6-0.9-5.3,0.2
			c0.5,1.6,1,3.1,1.5,4.7c-2,0.4-3.5,0.7-6.2,1.2C231.9,121.6,237.4,118.8,242.4,119.8z"/>
		<path class="st1" d="M173.2,210.3c0.8-0.9-0.7-3.2-2.9-2.3c-2.2,0.9-7.2,2.5-8.8,4.2c-1.3,1.3-1.1,2.6,0.9,3.1
			C163.8,215.6,172.4,211.2,173.2,210.3z"/>
		<path class="st1" d="M148.4,221.1c1.4-1,0.9-2.5-1.1-2.4c-2.3,0.1-6,1.2-7,1.5c-1,0.3-1.2,2,0.6,2.4
			C142.8,222.9,147,222.1,148.4,221.1z"/>
	</g>
</g>
</svg>
