<?xml version="1.0" encoding="utf-8"?>
<!-- Generator: Adobe Illustrator 19.1.0, SVG Export Plug-In . SVG Version: 6.00 Build 0)  -->
<svg version="1.1" id="Calque_1" xmlns="http://www.w3.org/2000/svg" xmlns:xlink="http://www.w3.org/1999/xlink" x="0px" y="0px"
	 viewBox="0 0 148.8 265.4" style="enable-background:new 0 0 148.8 265.4;" xml:space="preserve">
<style type="text/css">
	.st0{display:none;fill:#F7B5AC;}
	.st1{fill:#F7B5AC;}
	.st2{fill:#EB5C5F;}
	.st3{fill:#84B974;}
	.st4{fill:#010202;}
	.st5{fill:#AB7613;}
	.st6{fill:#C0BFBF;}
	.st7{fill:#6FA4C3;}
	.st8{fill:#1E1E1C;}
	.st9{fill:none;}
	.st10{fill:none;stroke:#EB5C5F;stroke-width:3;stroke-miterlimit:10;}
	.st11{fill:none;stroke:#6FA4C3;stroke-width:3;stroke-miterlimit:10;}
	.st12{fill:none;stroke:#84B974;stroke-width:3;stroke-miterlimit:10;}
	.st13{fill:none;stroke:#C0BFBF;stroke-width:3;stroke-miterlimit:10;}
	.st14{fill:none;stroke:#F7B5AC;stroke-width:3;stroke-miterlimit:10;}
</style>
<g>
	<path d="M145.5,139.6c0.1-0.6-0.1-1.2-0.2-1.8c-0.7-3.2-4.6-5.7-7.4-2.6c-1.2,1.3-1.9,1.1-3-0.2c-0.5-0.6-8.4-8.1-11.6-12.2
		c1.7-0.3,3-1.5,4.1-2.9c1.7-2.3,2.7-5,2.3-8c8.2,0,11.4-6.1,11-13.8c3.6-1.4,5.1-4.2,5.1-7.9c0-2.2,0-4.5,0-6.9
		c4.3-3.7,4.1-7.3-0.9-12.5c1.6-4.1,1.7-4.8-0.3-8.7c-0.9-1.7-1.6-3.4-1.6-5.4c-0.1-2.3-0.7-4.7-1.5-6.9
		C136.9,36,129.2,24.1,118,14.7c-4.8-4-10.5-7.2-16-10.3c-2.9-1.6-6.3-2.7-9.6-3.1c-8.8-1-17.7-2.1-26.7-0.8
		c-9.7,1.3-18.8,3.9-27.2,9.2c-4.8,3.1-9.1,6.7-13.1,10.6C20.1,25.7,11.2,38.9,11,39.3c-4.3,7-7.4,14.4-9.7,22.2
		c-0.9,3-1.4,6.3-1.2,9.4c0.2,3.5,0.9,7.1,3.9,9.6C4.4,81,5,81.4,5.6,82c-1.7,2.5-3.3,4.8-2.5,8c0.8,3.2,3.7,4.4,6.1,6
		c-0.2,0.7-0.3,1.3-0.5,1.9c-0.8,2.3-0.8,4.6,0.1,6.9c1,2.4,2.4,4.3,5.1,4.3c-0.2,2-0.5,3.7-0.5,5.5c0.1,4.6,2.9,6.7,7.4,5.6
		c0.9-0.2,1.9-0.5,2.7-0.7c0.5,1.6,0.8,3,1.4,4.3c0.6,1.3,0.4,2.3-0.3,3.4c-2.4,3.5-4.7,7-7.1,10.4c-1.1,1.7-2.3,3.3-3.4,5
		c-3.2-2.3-5.6-2.2-7.7,0.2c-0.6,0.7-1.1,1.5-1.7,2.2c-1.8,1.9-2.1,3.8-0.8,6.1c0.4,0.6,0.5,1.6,0.2,2.2c-0.9,1.9-0.4,3.5,0.7,4.9
		c1.2,1.5,2.7,2.7,4.4,4.3c0.1,4.3,0.1,4.3,3,7.3c-0.4,3.3-0.9,6.7-1.4,10.2c-3,0.2-5.6,0.4-8.3,0.6c-1,2.1-1.8,4.1-0.6,6.1
		c1.3,2.1,3.6,2.7,6.2,2.4c-0.8,2.9,0.1,5.2,1.1,7.6c-2.3,1.6-2.8,3.8-2.1,6.3c0.7,2.6,2.9,3.5,5.3,4c-0.4,2.9-0.1,5.4,2.3,7.1
		c2.4,1.7,4.9,0.6,6.9,0.2c1.8,1.4,3.1,3,4.7,3.4c1.6,0.4,3.5-0.5,5.4-0.9c2.8,3.7,6.4,5.5,11.1,3.3c1.4-0.7,2.4-0.2,3.4,0.6
		c1.8,1.4,3.9,1.8,6.1,1.4c1.4-0.2,2.7-0.8,4.4-1.3c0.7,5.3,1.3,10.4,1.9,15.4c-2,0.3-3.7,0.6-5.5,0.9v13.4
		c-1.1-0.2-1.9-0.4-2.7-0.4c-6.6-0.6-11.1,3.6-10.3,10.4c0.4,3.4,2.1,5,4.8,4.8c5-0.4,10-0.7,15-1.2c2.2-0.2,4.3-0.9,6.7-1.5
		c0-1.3,0-2.2,0-3.1c-0.4-5.9-0.9-11.9-1.1-17.8c-0.1-2.7-1-4.5-3.6-5.3c-0.3-0.1-0.5-0.3-0.8-0.6c-0.4-4.2-0.7-8.3-1.1-12.5
		c-0.1-1.6,0.3-2.8,1.9-3.5c0.7,2.2,1.8,4.4,4.3,4.5c2.1,0.1,4.3-0.7,6.8-1.2c1.4,1.7,3.6,0.6,5.8,0.3v9.8c-1.1,0.6-2.2,1.1-3.3,1.6
		c0.1,1.3,0.3,2.4,0.4,3.5c0.3,7.2,0.5,14.4,0.7,21.5c0.1,2.6,1.6,4.1,4.2,4c1.3,0,2.7-0.4,4-0.3c3.4,0.1,6.8,0.4,10.1,0.6
		c1.3,0.1,2.6,0,3.9,0c1.8,0,2.5-1.3,2.7-2.8c0.6-4.3-1.4-7.5-5.7-9c-2.7-1-5.4-1.7-8.5-1.4c-0.1-0.9-0.3-1.6-0.3-2.3
		c0.1-2.6,0.4-5.1,0.5-7.7c0.4-5.4-0.7-6.9-5.6-8.1c-0.2,0-0.3-0.3-0.5-0.4v-8c3.4,0.3,6.4-0.5,9.3-2c0.7-0.3,1.6-0.4,2.3-0.2
		c3.9,1.1,7.5,0.5,10.1-2c2.1,0.4,3.8,1.1,5.6,1.1c1.9-0.1,3.6-1.2,4.6-2.9c6,2.4,9.6-2.7,10-4.1c0.4-1.4,3.6-2.9,4.8-4.4
		c1.6-1.9,0.5-4.1-0.2-5.9c2.1-2.8,2.2-4.4,0.2-6.8c-1-1.1-1.2-2.2-1.3-3.6c-0.1-1.5-0.2-3-0.3-4.4c3.2-1.3,8.1-2.7,9.4-3.8
		c1.2-1-0.4-6.4-1.8-6.9c-2.2,0.9-4.4,1.7-6.6,2.5c-0.7-4.8-1.3-9.2-2-13.7c-0.2-1.7-0.2-3,1.7-4c1.5-0.8,2.6-2.2,4.4-2.5
		c0.5-0.1,1.1-0.7,1.4-1.2c0.7-1.5,2-1.7,3.4-1.6c2.5,0.3,4.2-1.2,5.4-2.9c1-1.3,2.1-2.1,3.4-2.8c2.8-1.4,3.9-6.6,1.7-8.8
		C145.9,142.6,145.3,141.4,145.5,139.6 M132.3,136.6c-2.3,0.1-3.8,2.9-4.3,5.7c-2.5-0.8-4.9-1-7.1,0.6c-0.4-2.9-0.8-5.7-1.4-8.6
		l-2.8-6.2l3-5.9C123.1,127,127.5,131.5,132.3,136.6 M84.3,173.2c3-4.4,4.8-8.8,1.7-13.9c2.6-4.3,0.7-8.2-1.4-12.1
		c2.1-4.8,1.7-6.5-2.4-10.9c2,1.3,3.9,3.1,6.6,2.4c2.6-0.6,4.2-2.4,5.4-4.6c5.1,3.5,10.3,0.3,11.5-5.6c2.4,2.1,5,3.2,8.2,1.6
		c1.9,4.6,2.7,9.3,3.2,14c1.2,9.7,2.4,19.3,3.6,28.9c0.7,6.1,1.3,12.2,1.9,18.4c-3.2-0.4-3.8-0.3-7.5,1.1c-4.1-3.4-6.7-3.4-11.8,0.2
		c-1.8-0.8-2.9-3.3-5.3-2.5c-1.9,0.6-3.7,1.7-5.7,2.7c-1.8-2-4.1-3.2-7.2-1.9c-0.5-1.9-1-3.6-1.6-5.8
		C85.9,181.7,87.1,177.5,84.3,173.2 M6.6,54.9c4.5-11.3,11.2-21.6,14-24.8c8.5-9.6,17.8-18.2,30.1-22.6C55.3,5.8,60.1,4.6,65,4
		c5.7-0.7,11.2-0.5,16.9-0.3c3,0.1,5.9,0.3,8.9,0.6c4.5,0.4,8.7,2.1,12.4,4.3c5.9,3.4,11.9,6.9,16.8,11.8c1.5,1.5,2.9,3.2,4.3,4.8
		c5.2,6,9.4,12.7,12.5,20c1.2,2.9,2.2,6,3.1,9c0.3,0.9,0.2,2,0.4,3.2c-1.4-0.2-2.4-0.4-3.8-0.7c1.5-3.2,0.2-6-1.1-8.6
		c-2-4-2-4.1-6.4-3.3c-0.8-2.3-1.5-4.6-2.5-6.8c-1.1-2.4-2.1-2.8-4.7-2.1c-1.2,0.3-2.3,0.8-3.7,1.2c-0.1-0.7-0.2-1.3-0.3-1.9
		c-0.7-6-4.3-7.7-9.2-5.1c-0.4,0.2-0.8,0.4-1.3,0.7c-0.3-4.9-3-9.1-9.3-4.7c-1.3-1.6-2.4-3.3-3.8-4.7c-1.6-1.8-3.6-1.8-5.5-0.5
		c-0.9,0.6-3,2-3,3.1c0.1-3.2-0.9-6.6-4-7.6c-2.1-0.7-4.5,0.6-7.3,3.7c-1.6-2.7-2.9-6-7-5.3c-3,0.5-4.3,2.6-4.7,5.7
		c-2.5-1.6-5.2-2.6-7.9-1.9c-2.6,0.7-4.9,2.2-5.1,5.5c-2.4-1.4-4.6-3.1-7.3-1c-2.1,1.6-3.7,3.6-3.5,6.5c-2.3,0-4.4-0.3-6.5,0.1
		c-1.7,0.3-3.5,1.2-4.9,2.3c-0.9,0.7-1.1,2.2-1.7,3.5c-5.3,0.4-9.6,1.2-8.3,9.1c-6.8,2.3-9.2,5.4-6.2,11.6c-2.2,0-4.1,1.2-6.3,3.3
		C5.6,57.8,5.9,56.7,6.6,54.9 M2.2,71.1c-0.7-3.4,0.1-6,1.5-8.6c0.1,0,0.3,0,0.4,0c0.1,1,0,2,0.2,2.9c0.2,0.9,0.7,1.6,1.3,2.7
		C4.2,68.6,3.9,69.1,2.2,71.1 M24.7,114.1c-1,0-3.1,3-5.4,3.3c-2.4,0.3-3.4-0.3-3.2-2.7c0.2-2,0.7-4.1,1.4-5.9
		c0.9-2.1,1.1-2.1-1-3.8c-0.2,0-0.4,0-0.6,0.1c-2.9,1.6-4.7,1.1-4.8-2.2c-0.1-2.6,2-5.3,1.9-6.2c-0.1-0.9-2-3.7-2.5-3.6
		c-2.6,0.5-6.2-2.8-4-6.9c1-1.8,2.2-3.2,4.3-3.6c0.7-0.1,1.5-0.2,2.1-1.3c0.6-1.1-0.7-2.5-3-1.9c-2.4,0.6-4.3,0.2-5.6-1.9
		c-0.5-0.7-0.5-2.1-0.4-2.8c0.4-2.3,2.8-4.7,6.2-4.3c0.5,0.1,1.6-0.7,1.6-0.9c-0.1-0.7-0.5-1.5-1.1-2c-0.4-0.3-1.2-0.2-1.8-0.4
		c-2.8-0.9-3.7-4.3-1.2-6c2.4-1.7,4.1-2.1,8.3-1.2c1.1,0.2,0.9-1.7,0.2-2.5c-0.6-0.8-1.5-1.4-2.2-2.1c-2.1-2.1-2-3.8,0.3-5.7
		c2-1.6,4-2.4,6.5-0.8c0.4,0.3,1.3,0.5,1.9,0c0.6-0.5,0-1.4-0.3-1.9c-0.5-0.8-1.3-1.3-1.8-2.1c-1.5-2.1-0.9-4.3,1.4-5.4
		c2-1,4.1-1.4,5.8,0.6c0.3,0.3,0.6,0.6,1,0.7c0.4,0.1,1.1,0.1,1.4-0.1c0.3-0.2,0.3-0.9,0.2-1.3c-0.1-0.5-0.5-0.9-0.8-1.3
		c-1.3-1.7-1.4-2.9,0.8-4.3c3.1-2,6.4-2.1,9.6-0.2c0.5,0.3,1.3,1.2,1.9,1c0.6-0.2,0.9-0.9,0.7-1.9c-0.2-0.7-0.6-1.3-0.8-2
		c-0.6-2-1.3-3.1,0-4.4c1.5-1.5,2.3-1.8,4.1-1.6c2.5,0.2,5.6,5.2,6.3,5c0.8-0.3,0-2.3,0-3c0-2.5,1.7-4.7,3.9-5.2
		c2.4-0.5,5.1,0.9,6,3.2c0.2,0.4,1,2.3,1.8,2c0.5-0.2,0.9-0.9,1-1.5c0.1-0.7-0.1-1.4-0.1-2.1c0-1.7,0.7-3.2,2-4.3
		c1.6-1.2,3.1-1.1,4.2,0.5c1.2,1.7,2,3.5,1.7,5.7c-0.2,1.2,0.6,4,1.6,3.3c1-0.7,0.9-2.3,1.3-3.6c0.6-2.2,1.7-3.9,4-4.8
		c2.1-0.8,3.5,0,3.7,2.2c0.1,1-0.1,2-0.3,3c-0.1,1.1-0.7,2.4,0.2,3.4c0.9,0.9,2.7,1.2,3.2,0.4c0.5-0.9,2.7-6.2,5.2-5.6
		c2.4,0.6,3.5,2.2,2.9,5.7c-0.2,1.3,0.3,3.8,1.2,3.8c0.9,0,1-0.9,1.3-1.4c1.1-1.7,2.7-2.7,4.6-3.4c1.6-0.6,2.6-0.1,2.9,1.6
		c0.2,1.2,0,2.4-0.1,3.6c-0.2,1.4-0.4,3.7,1.1,3.8c1.6,0.1,1.8-1.6,2.6-2.5c1.2-1.4,2.6-1.7,4-2.1c1.9-0.5,2.7,0.3,2.8,2.2
		c0.1,2.1,0,4.3,0,6.4c0,0.8-0.5,2.3,0.6,2.7c1.2,0.5,1.1-1.1,2.3-2.3c2.1-2.1,5.3-3,6.3-2c1.7,1.8,2,4.2,1.7,6.6
		c-0.1,0.8-0.5,1.6-0.6,2.4c0,0.5-0.7,2.1,0.5,2.1c1.3,0,2.4-1.1,3.3-1.8c2.6-1.7,3.6-0.5,4.4,1.6c1,2.5,1.3,4.9-1.1,7
		c-1.1,1-1.2,3.9-0.2,3.7c1.1-0.2,1.7-0.4,2.6-0.6c4.1-0.9,8,1.7,8.7,5.7c0.2,1.2-1.5,3.2-3.2,3.7c-0.7,0.2-2.1-0.4-2.6,0.8
		c-0.4,1.2-0.6,1.8,0.6,2.1c1.1,0.3,3.9,0.9,5.6,1.6c1.3,0.5,2.2,1.4,2.1,3.1c-0.2,1.7-0.9,3-2.8,3.2c-1.9,0.3-4.1-0.3-5.7,0.1
		c-1.8,0.4-0.7,2.5,1.2,3.1c0.6,0.2,1.2,0.2,1.8,0.3c1.5,0.3,2.5,1.1,2.5,2.7c-0.1,1.9-0.1,4-0.7,5.7c-0.9,2.4-5.3,1.3-6.2,1.9
		c-0.9,0.6-0.4,2.4,0.5,3.6c1.9,2.5,1.7,4.8-0.5,8.1c-1.6,2.3-4.4,3.4-7,2.5c-1-0.3-1.7-1.2-2.8-1.1c-1.1,0.1-0.8,2.3-0.3,3.3
		c1.2,2.7,0.5,6.2-1.8,8c-1.7,1.3-3.5,1.4-5.4,0.1c-0.6-0.4-1.2-0.7-1.6-1.3c-0.4-0.6-0.8-0.3-0.8,0.2c0,0.4-0.2,2.1,0,3.2
		c0.6,4.2-3.7,8.1-7.8,6.9c-1.8-0.5-2.6-1.9-3.2-3.5c-0.4-1.1-2.3-1.8-2.4-1c-0.1,0.8-0.2,2.2-0.2,3.4c0,2.8-1.5,5-4.1,5.9
		c-1.9,0.7-3.6-0.5-3.9-2.5c-0.3-2.8-1.3-4.8-2.5-4.2c-1.1,0.5-0.6,2.9-0.5,4.2c0.1,2-0.7,3.3-2.1,4.6c-2.6,2.3-5.8,1.3-6.5-2.1
		c-0.3-1.5-1.1-4.3-2.1-4.1c-1,0.2-0.6,1.2-0.6,1.8c-0.4,2.7-1.5,5.1-3.6,7c-1,0.9-2.1,1.3-3.4,0.9c-1.3-0.5-2.3-1.4-2.3-3
		c0-1.1,0-2.2,0-3.4c0-2-1.3-3.3-2.3-3.2c-1.1,0-1.1,3.4-1.9,5c-0.9,1.9-2.2,2.4-4,2.1c-1.6-0.3-1.9-1.6-2.3-2.9
		c-0.4-1.2-0.2-3.9-1.8-4c-1.6-0.1-1.4,1.6-1.7,2.2c-1.4,3.1-3,4.1-6.2,3.8c-2.7-0.2-3.9-1.5-3.5-4.2c0.2-1.3-0.4-2.8-1.5-2.8
		c-1.1-0.1-1.4,2.3-1.9,3.5c-0.7,1.5-1.7,1.5-3,1.1c-2.8-1-4.3-3.8-3.5-6.6c0.5-1.6-0.5-3.3-1.4-3.5c-1-0.2-0.9,1-1.3,1.5
		c-1.1,1.5-2.5,2.5-4.4,2.3c-2-0.2-3.5-1.3-3.8-3.4c-0.3-1.7-0.5-3.4-0.5-5.2C26.5,115.8,26.4,114.7,24.7,114.1 M53.7,146.9
		c-3.5,2.6-4.9,4.7-2.5,11c-4,3.3-2.4,7.1-0.7,10.6c-1,1.9-2.2,3.5-2.7,5.3c-0.6,2.1,1.1,3.6,2.6,5.1c-2.2,2.1-1.9,4.7-1.1,7.1
		c-1.2,1.4-2.3,2.6-3.5,3.9c-2.4-2-5.2-2.3-8.1-1.1c-4.5-2.7-6.8-2.8-10-0.4c-1.7-0.8-3.4-1.7-5.1-2.3c-1.1-0.4-2.5-0.5-3.6-0.2
		c-2.1,0.7-3.2-0.3-4.6-1.8c2.6,0.8,3.4,0.5,3.4-1.8c0.1-7.5,2.6-14.5,4.8-21.5c2.6-8.1,6.2-15.8,10.6-23.1c1.2-2,2.1-4.2,3.1-6.5
		c2.6,2.8,5.3,5.7,9.8,3.3c1.7,2.6,4.4,3.5,7.8,3.2C51.9,140.8,52,143.8,53.7,146.9 M27.9,128.1c1.6,0.3,3,0.6,4.8,0.9
		c-4,7.8-8,15.5-12.1,23.4c-1.7-2.4-3.2-4.6-4.7-6.7C19.9,139.8,23.9,134,27.9,128.1 M13.9,161.1c0.6-0.9-0.8-2.3-2.4-2.1
		c-0.7,0.1-1.4-0.1-2.1-0.2c-3.1-0.5-3.8-3.1-2.8-4.1s3.3-0.4,3.3-1.5c0.1-1.1-1.4-2.2-2.8-2.4c-0.6-0.1-1.4-1-1.4-1.6
		c-0.2-2.5,2.9-5.5,4.8-5.5s2.5,0.1,2.7,1.3c0.2,1.2-0.6,1.2-1.3,2.3c-0.6,1-0.4,2.5,0.7,2.7c1.1,0.2,1.4-1.2,2.5-1.1
		c1.2,0.2,0.8,2.1,0.2,2.9c-1,1.2-1.1,3.2-0.1,4c1,0.7,2.7-1.4,4.6-1.2c2.5,0.3-1.3,3.9-1.6,4.9c-0.3,1,1.3,2.2,1.1,3.5
		c-0.3,1.3-5.2,5.3-6.8,3.6C10.7,165,13.1,162.4,13.9,161.1z M62.7,239.6c0.3,6.7,0.7,13.5,1.1,20.5c-6.6,1.6-13.3,1.6-19.9,1.9
		c-2.1-2.7-1.4-6.1,1.5-7.7c3.5-1.9,6.5-1.7,9.1,0.6c0.9,0.8,1.5,2.1,2.5,3.5c0.4-0.9,0.8-1.4,0.8-2c0.1-0.5-0.2-1-0.4-1.4
		c-0.6-1.3-1.3-2.5-1.7-3.9c-0.3-0.8-0.3-1.8-0.2-2.7c0.1-2.8,0.2-5.5,0.3-8.7H62.7z M61.6,197.5c-0.6,6.7-1.3,13.5-1.9,20.5
		c-1.5,0-2.8-0.1-4.2,0c-0.6,0-1.4,0.2-1.9,0.6c-3.1,2-6.3,1.3-8.2-1.9c-0.4-0.6-0.4-2-1.2-2.1c-0.8-0.1-1.3,1.3-1.6,1.7
		c-2.1,2.5-5.4,2.9-7.9,0.8c-0.5-0.4-0.7-1.2-0.9-1.8c-0.4-1.5-0.5-2.9-1.6-2.8c-1.1,0-2,1.5-3,2.1c-2.9,1.5-4.5,0.8-5.1-2.3
		c-0.2-1.2-1.1-2.7-1.9-2.7c-0.9,0-0.8,1-1.3,1.5c-1,1.1-3.9,1.8-5.1,1.1c-0.6-0.4-1.2-1.3-1.2-2c0-1,0.4-2,0.9-2.8
		c0.5-0.8,1.2-1.5,0.5-2.5c-0.7-0.8-1.4-1.5-2.7-0.8c-0.5,0.3-1.2,0.3-1.8,0.2c-1-0.1-2.2-0.1-2.4-1.4c-0.3-1.4-0.2-2.7,1.2-3.5
		c0.9-0.5,3-0.6,3.2-1.3c0.1-0.7-1.2-2-1.9-2.8c-1.5-1.5-1.9-3.2-1-5c0.9-2,3.2-3.7,4.7-2.7c1.5,1,2.1,3.3,2.8,3.4
		c0.7,0.1,0.8-0.4,0.8-0.5c1.1-3,1.4-3.2,4.3-2.1c1.6,0.6,3.3,1.2,3.5,3.4c0.1,0.8,0.6,2.5,1.7,2.6c1.2,0.1,1-1.5,1.1-2.2
		c0.5-2.5,1.8-3.5,4.2-2.9c0.7,0.2,1.6,0.3,2.2,0.8s0.2,4.4,2,4.6c1.8,0.2,0.7-3.5,1.7-4.1c1.1-0.7,4.3-0.1,5.6,2.4
		c1,1.9,4.7,1.6,5.1,0.9c0.3-0.6-0.3-0.5-0.5-0.7c-0.9-0.6-1.6-1.4-1-2.6c0.6-1.1,1.4-2.1,2.9-1.5c0.4,0.1,0.9,0.5,1.3-0.2
		c0.4-0.7,0.1-1.1,0-1.7c-0.1-0.4-0.5-0.6-0.8-0.9c-2.3-2.9-1.5-5,2.1-6c0.3-0.1,1.2,0.5,1.2-0.5s-2.6-2.1-3.1-2.4
		c-1.7-0.7-2.3-1.9-2.1-3.3c0.3-1.5,1.3-2.4,3-2.5c0.6-0.1,2,0.6,2.4-0.2c0.4-0.8-1.5-1.8-2.1-2.6c-0.8-1.1-1.9-2.2-2.3-3.5
		c-0.9-2.8,2.1-4.3,3.6-5.1c0.7-0.4-0.3-1.8-0.8-2.3c-1.5-1.5-2.4-3-1.7-5.2c0.7-2.2,2.4-3.3,4.4-3.9c0.3-0.1,0.5-0.2,0.9-0.4
		c0.2-1.2-0.5-2.1-1.4-2.5c-1-0.5-1.8-1.1-1.6-2.3c0.2-1.2,0.3-2.5,1-3.4c0.8-1,1.4-2,2.5-2.7c0.5-0.3,1.4-0.5,2.4-0.5
		c1.8,1.6,4,2.3,6.5,1.1c0,2.1,0.1,3.8,0,5.5c-0.5,4.6-1,9.2-1.6,13.7c-0.9,6.9-1.9,13.8-2.6,20.7C62.5,184.6,62.2,191,61.6,197.5
		 M85.4,237.2c-0.2,4.8-0.4,9.6-0.6,14.6c-0.8,0.5-1.6,0.9-2.4,1.4c-0.9,0.6-1.3,1.4-0.7,2.4c0.6,0.9,1.3,0.7,2.1,0.3
		c0.9-0.5,1.9-0.6,2.8-1.1c3-1.4,5.8-0.5,8.6,0.5c2.6,0.9,4.1,2.6,3.9,5.9c-6.4,0.6-12.9-0.2-19.7,0c-0.4-8-0.9-15.9-1.3-24
		C80.5,236.1,82.7,236,85.4,237.2 M128.1,199.7c0.3,1.8-4,2-4.4,3.4c-0.3,1.4,2.5,1.4,2.8,3.3c0.7,4.3-5.5,3.2-6.1,4.4
		c-0.4,0.9,0.1,1.8,0.2,2.6c0.2,2.1-0.5,3-2.6,3.3c-2.4,0.3-4.8-2.9-5.4-2.7c-0.6,0.2-0.9,1.3-1.2,2c-0.6,1.5-1.6,2.4-3.2,2.6
		c-1.4,0.2-2.9,0.3-3.4-1.7c-0.1-0.5-0.1-1.8-1.2-1.7c-1.1,0.1-3.2,4-5.9,4.7c-3,0.8-5.9-3.3-6.7-3.2c-0.7,0.1-1.5,3.8-5.9,5
		c-3.3,0.9-4.2-3.8-5.5-3.7c-1.3,0.1-3.2,4-5.2,3.4c-2-0.6-0.6-3-2.7-3.1c-1.3-0.1-2.9,3.6-5.4,3.6c-0.7,0-1.5,0.2-2.1-0.9
		c-0.5-1.1,0.8-2.4,0.7-3.4c-0.1-0.7-1.2-1.1-2.4-2c2.5-25.2,5-50.8,7.6-77c0.8,0.6,1.2,1,1.6,1.3c2.2,1.7,4.1,1.9,6.4,0.4
		c1.3-0.9,2.5-0.5,3.7-0.1c1.2,0.3,1.4,1.3,1,2.2c-0.4,1.1-1.2,2.1-1.9,3.1c-1.1,1.5-1,2.8,0.5,3.8c4.1,2.6,4.2,6.1,0.3,9.3
		c-0.2,2,1,3,2.9,3.4c0.5,3.6-0.8,6.4-3.2,8.9c-2.3,2.5-2.2,3.3,1.1,4.6c1,4.1-0.2,7.2-3.7,9.8c0.5,2.6,0.5,2.6,3,2.6
		c0.9,1.2,0.4,2.4-0.4,3.3c-0.7,0.8-1.6,1.6-2.6,1.9c-0.8,0.2-1.9-0.5-2.3,0.7c-0.2,0.5,0.1,1.5,0.5,1.9c0.8,0.7,1.8,1.3,3,0.6
		c0.9-0.5,1.8-1,2.7-1.3c1.2-0.5,2.5-1,3.8-1.3c2.4-0.6,3.9,0.1,5,2.3c0.2,0.4,0.3,0.8,0.5,1.1c0.4,0.4,0.9,0.9,1.4,0.9
		c0.3,0,0.8-0.8,0.9-1.3c0.4-2.1,2-2.8,3.7-3.2c1.3-0.4,2.9,0.6,3.4,2c0.4,1.1,0.8,2.2,1.4,4c0.8-1.7,1.1-3.2,2-4.1
		c0.9-0.9,2.4-1.1,3.6-1.6c1.4-0.6,2.7-1,4.1,0.4c0.4,1.1-0.3,4.1,1.8,3.1c2.2-1.1,2.4-2.6,5.8-2.6c1.1,0,1.5,0.7,1.6,1.1
		c0.6,2.4,0.6,2.3,3,2.7C125.9,198.5,127.8,198,128.1,199.7z M139.8,151c-1.4,0.1,0.6,2.4,0.3,3.2c-0.6,1.4-1.1,2-3.8,1.8
		c-0.7,0-1.7-0.2-1.9-0.5c-0.4-0.9-1-1.6-2.1-1.4c-1.2,0.2-1.1,1.2-1.1,2.2c0,1.6-0.9,2.5-2.4,2.7c-0.9,0.1-2.4-0.5-2.9,0
		c-0.6,0.6-0.1,0.8-0.1,1.3c-0.2,1.3-1.1,2.2-2,2.3l-1.4-8.9c-0.3-1.9-0.6-3.9-0.9-5.8c1.2-3.5,4.1-4.7,7-2.5
		c0.7,0.5,1.3,2.1,2.6,1.4c0.3-4.4,3.6-9.8,8-7.2c0.7-1,0.2-3.7,2.3-3.1c3.3,1.1,0.5,5.2,0.4,6.6s2.7,1.1,3.8,2.7
		C147.6,148.8,144.6,150.6,139.8,151z"/>
	<path d="M34.9,111.4c5.7,4.2,12.3,6,19,7.5c6.7,1.6,13.5,2.6,20.2,3.6c6.4,1,13,0.8,19.3-0.6c5.6-1.2,11-3.3,16.2-5.6
		c3.3-1.4,6.6-3.5,9-6.3c3.8-4.3,7.3-8.9,8.9-14.6c1.3-4.8,2.4-9.7,1.4-14.6c-1.3-6.5-3.4-12.9-7.6-18.3c-2.8-3.4-5.9-6.6-8.8-9.9
		c-2.7-3.1-5.9-5.6-9.4-7.8c-5.3-3.3-11.4-4.6-17.4-5.8c-4.9-1-10-0.8-15.3-1.2c-3.9,0.3-8,0.6-12,1c-9,1-17,4.6-24.3,9.8
		c-7,5.1-11.2,12.4-14.4,20.3C17.3,75.6,17.1,82.2,19,89c1.2,4.4,3.4,8.3,6,12C27.8,105,31,108.4,34.9,111.4 M20.5,84.1
		c-0.6-3.3-0.3-6.6,0.6-9.8c2.2-7.8,6.2-14.5,11.6-20.4c3.6-4,8.3-6.3,13.1-8.3c4.2-1.8,8.6-3.3,13.3-3.8c1.2-0.1,2.4-0.3,3.7-0.3
		c7.5-0.5,15-0.7,22.4,0.6c7.7,1.4,15.3,3.6,21.5,9.1c5.7,5.2,11.4,10.4,15.4,17.1c7.1,11.9,6,25.5-2.9,36.4
		c-6,7.3-14,10.6-22.5,13.1c-4.6,1.3-13.8,3.2-27.1,0.9c-6.3-1.1-12.5-2.3-18.7-3.8c-5.6-1.3-11-3.3-15.7-6.9
		c-1.8-1.4-3.5-3.1-5.1-4.9C25.2,97.6,21.9,91.3,20.5,84.1"/>
	<path d="M61.8,95c1.4,0,2.3-1.3,2.3-3.3c0-1.7-1.1-3.3-2.4-3.4c-1.4-0.1-2.5,1.2-2.5,3.2C59.2,93.6,60.2,95,61.8,95"/>
	<path d="M85.8,98.2c1.6,0,2.6-1.1,2.6-2.7c0-1.6-1.3-3.3-2.5-3.3c-1.6,0-2.9,1.4-3,3.2C82.9,96.9,84.2,98.2,85.8,98.2"/>
	<path class="st2" d="M132.3,136.6c-2.3,0.1-3.8,2.9-4.3,5.7c-2.5-0.8-4.9-1-7.1,0.6c-0.4-2.9-0.8-5.7-1.4-8.6l-2.8-6.2l3-5.9
		C123.1,127,127.5,131.5,132.3,136.6"/>
	<path class="st2" d="M84.3,173.2c3-4.4,4.8-8.8,1.7-13.9c2.6-4.3,0.7-8.2-1.4-12.1c2.1-4.8,1.7-6.5-2.4-10.9c2,1.3,3.9,3.1,6.6,2.4
		c2.6-0.6,4.2-2.4,5.4-4.6c5.1,3.5,10.3,0.3,11.5-5.6c2.4,2.1,5,3.2,8.2,1.6c1.9,4.6,2.7,9.3,3.2,14c1.2,9.7,2.4,19.3,3.6,28.9
		c0.7,6.1,1.3,12.2,1.9,18.4c-3.2-0.4-3.8-0.3-7.5,1.1c-4.1-3.4-6.7-3.4-11.8,0.2c-1.8-0.8-2.9-3.3-5.3-2.5
		c-1.9,0.6-3.7,1.7-5.7,2.7c-1.8-2-4.1-3.2-7.2-1.9c-0.5-1.9-1-3.6-1.6-5.8C85.9,181.7,87.1,177.5,84.3,173.2"/>
	<path class="st2" d="M6.6,54.9c4.5-11.3,11.2-21.6,14-24.8c8.5-9.6,17.8-18.2,30.1-22.6C55.3,5.8,60.1,4.6,65,4
		c5.7-0.7,11.2-0.5,16.9-0.3c3,0.1,5.9,0.3,8.9,0.6c4.5,0.4,8.7,2.1,12.4,4.3c5.9,3.4,11.9,6.9,16.8,11.8c1.5,1.5,2.9,3.2,4.3,4.8
		c5.2,6,9.4,12.7,12.5,20c1.2,2.9,2.2,6,3.1,9c0.3,0.9,0.2,2,0.4,3.2c-1.4-0.2-2.4-0.4-3.8-0.7c1.5-3.2,0.2-6-1.1-8.6
		c-2-4-2-4.1-6.4-3.3c-0.8-2.3-1.5-4.6-2.5-6.8c-1.1-2.4-2.1-2.8-4.7-2.1c-1.2,0.3-2.3,0.8-3.7,1.2c-0.1-0.7-0.2-1.3-0.3-1.9
		c-0.7-6-4.3-7.7-9.2-5.1c-0.4,0.2-0.8,0.4-1.3,0.7c-0.3-4.9-3-9.1-9.3-4.7c-1.3-1.6-2.4-3.3-3.8-4.7c-1.6-1.8-3.6-1.8-5.5-0.5
		c-0.9,0.6-3,2-3,3.1c0.1-3.2-0.9-6.6-4-7.6c-2.1-0.7-4.5,0.6-7.3,3.7c-1.6-2.7-2.9-6-7-5.3c-3,0.5-4.3,2.6-4.7,5.7
		c-2.5-1.6-5.2-2.6-7.9-1.9c-2.6,0.7-4.9,2.2-5.1,5.5c-2.4-1.4-4.6-3.1-7.3-1c-2.1,1.6-3.7,3.6-3.5,6.5c-2.3,0-4.4-0.3-6.5,0.1
		c-1.7,0.3-3.5,1.2-4.9,2.3c-0.9,0.7-1.1,2.2-1.7,3.5c-5.3,0.4-9.6,1.2-8.3,9.1c-6.8,2.3-9.2,5.4-6.2,11.6c-2.2,0-4.1,1.2-6.3,3.3
		C5.6,57.8,5.9,56.7,6.6,54.9"/>
	<path class="st2" d="M53.7,146.9c-3.5,2.6-4.9,4.7-2.5,11c-4,3.3-2.4,7.1-0.7,10.6c-1,1.9-2.2,3.5-2.7,5.3
		c-0.6,2.1,1.1,3.6,2.6,5.1c-2.2,2.1-1.9,4.7-1.1,7.1c-1.2,1.4-2.3,2.6-3.5,3.9c-2.4-2-5.2-2.3-8.1-1.1c-4.5-2.7-6.8-2.8-10-0.4
		c-1.7-0.8-3.4-1.7-5.1-2.3c-1.1-0.4-2.5-0.5-3.6-0.2c-2.1,0.7-3.2-0.3-4.6-1.8c2.6,0.8,3.4,0.5,3.4-1.8c0.1-7.5,2.6-14.5,4.8-21.5
		c2.6-8.1,6.2-15.8,10.6-23.1c1.2-2,2.1-4.2,3.1-6.5c2.6,2.8,5.3,5.7,9.8,3.3c1.7,2.6,4.4,3.5,7.8,3.2
		C51.9,140.8,52,143.8,53.7,146.9"/>
	<path class="st2" d="M27.9,128.1c1.6,0.3,3,0.6,4.8,0.9c-4,7.8-8,15.5-12.1,23.4c-1.7-2.4-3.2-4.6-4.7-6.7
		C19.9,139.8,23.9,134,27.9,128.1"/>
	<path class="st2" d="M62.7,239.6c0.3,6.7,0.7,13.5,1.1,20.5c-6.6,1.6-13.3,1.6-19.9,1.9c-2.1-2.7-1.4-6.1,1.5-7.7
		c3.5-1.9,6.5-1.7,9.1,0.6c0.9,0.8,1.5,2.1,2.5,3.5c0.4-0.9,0.8-1.4,0.8-2c0.1-0.5-0.2-1-0.4-1.4c-0.6-1.3-1.3-2.5-1.7-3.9
		c-0.3-0.8-0.3-1.8-0.2-2.7c0.1-2.8,0.2-5.5,0.3-8.7H62.7z"/>
	<path class="st2" d="M85.4,237.2c-0.2,4.8-0.4,9.6-0.6,14.6c-0.8,0.5-1.6,0.9-2.4,1.4c-0.9,0.6-1.3,1.4-0.7,2.4
		c0.6,0.9,1.3,0.7,2.1,0.3c0.9-0.5,1.9-0.6,2.8-1.1c3-1.4,5.8-0.5,8.6,0.5c2.6,0.9,4.1,2.6,3.9,5.9c-6.4,0.6-12.9-0.2-19.7,0
		c-0.4-8-0.9-15.9-1.3-24C80.5,236.1,82.7,236,85.4,237.2"/>
</g>
</svg>
