<?xml version="1.0" encoding="utf-8"?>
<!-- Generator: Adobe Illustrator 19.1.0, SVG Export Plug-In . SVG Version: 6.00 Build 0)  -->
<svg version="1.1" id="Calque_1" xmlns="http://www.w3.org/2000/svg" xmlns:xlink="http://www.w3.org/1999/xlink" x="0px" y="0px"
	 viewBox="0 0 60 59.5" style="enable-background:new 0 0 60 59.5;" xml:space="preserve">
<style type="text/css">
	.st1{fill:#000;}
</style>
<path class="st1" d="M59.1,28c-0.2-4.3-0.5-8.5-0.9-12.7c-0.3-3.5-0.1-8-1.4-11.4c-2.3-6-12.2-3.4-17-3.2C29.6,1,19.3,1.3,9,1.6
	c0,0-0.1,0-0.1,0C4.5,1.3,0.6,2.4,0.2,7.3C-0.5,15.8,0.7,24.9,1,33.4c0.1,4.5,0.3,9,0.4,13.4c0.1,2.7-0.3,6.5,1.2,9
	c1.1,1.8,2.8,2.5,4.8,2.8c4.5,0.8,9.4,0.5,14,0.7c8.8,0.2,17.7,0.4,26.5-0.1c5-0.3,9.4-1.8,11-7.1C61.1,44.8,59.5,35.6,59.1,28z
	 M49.9,55.9c-4.2,0.7-8.6,0.8-13,0.7c0-0.1,0-0.2,0-0.4c-0.4-7.8-0.9-15.6-1.1-23.4c4.2-0.5,8.3-1,12.5-0.5c1.9,0.3,2.7-2.6,0.8-2.9
	c-4.5-0.6-8.9-0.1-13.4,0.4c0,0,0,0,0-0.1c-0.1-4.5-0.9-12.7,3.9-14.7c2.7-1.1,7-0.5,9.4,0.9c1.7,1,3.2-1.6,1.5-2.6
	c-4.9-2.9-14.2-2.9-16.6,3.2c-1.5,4.1-1.5,8.9-1.3,13.5c-2.4,0.2-4.8,0.3-7.3,0.1c-1.9-0.1-1.9,2.9,0,3c2.5,0.2,5,0,7.4-0.2
	c0,0.8,0.1,1.6,0.1,2.4c0.3,6.9,0.7,13.8,1,20.6c0,0.1,0,0.2,0,0.3c-2.6-0.1-5.2-0.2-7.7-0.2c-3.8-0.1-7.6-0.2-11.5-0.3
	c-1.8-0.1-4,0.2-5.7-0.3c-5-1.4-4.4-3.2-4.6-7c-0.3-7.7-0.5-15.4-0.7-23c-0.1-3.8-0.2-7.7-0.3-11.5c-0.1-4.1-1-8.9,3.5-9.6
	c0.1,0,0.1,0,0.2,0c8.3-0.2,16.5-0.5,24.8-0.7c4.3-0.1,8.6-0.3,12.9-0.4c1.7,0,4.4-0.7,5.9-0.2c3.6,1.3,3.7,3.7,4,7
	c0.8,7.8,1.4,15.7,1.6,23.5C56.6,41,59.3,54.4,49.9,55.9z"/>
</svg>
