<?xml version="1.0" encoding="utf-8"?>
<!-- Generator: Adobe Illustrator 19.1.0, SVG Export Plug-In . SVG Version: 6.00 Build 0)  -->
<svg version="1.1" id="Calque_1" xmlns="http://www.w3.org/2000/svg" xmlns:xlink="http://www.w3.org/1999/xlink" x="0px" y="0px"
	 viewBox="0 0 300.7 293.6" style="enable-background:new 0 0 300.7 293.6;" xml:space="preserve">
<style type="text/css">
	.st0{fill:#254B86;}
	.st1{fill:#254B87;}
	.st2{fill:#492E1F;}
	.st3{fill:#DFB76A;}
	.st4{fill:#BFBEBE;}
	.st5{fill:#6EA2C2;}
	.st6{fill:#224E89;}
	.st7{fill:none;stroke:#224E89;stroke-width:3;stroke-miterlimit:10;}
	.st8{fill:#F5F9F8;}
	.st9{fill:#F5F9F8;stroke:#224E89;stroke-width:3;stroke-miterlimit:10;}
	.st10{fill:#F9CB00;}
	.st11{fill:#DF111A;}
	.st12{fill:#0B6EB1;}
	.st13{fill:#8D1514;}
	.st14{fill:#679FD0;}
	.st15{fill:#008549;}
	.st16{fill:#CB9831;}
	.st17{filter:url(#Adobe_OpacityMaskFilter);}
	.st18{fill:#1D1C1A;}
	.st19{fill:#C99730;}
</style>
<g>
	<path class="st16" d="M289.5,147.1c-0.3-11.8-0.6-23.6-0.8-35.4c-0.3-12.3-0.7-24.5-0.7-36.8c0-12,0.5-24,0.7-36
		c0.1-5.4,0.1-10.9,0.1-16.3c0-2.9-0.3-5.8-0.5-9c-3.9,0.2-7.3,0.6-10.7,0.6c-14.3-0.2-28.5-0.5-42.8-0.8c-8.5-0.2-17,0.2-25.5-0.8
		c-7.3-0.8-14.8-0.5-22.2-0.7c-6.2-0.2-12.4-0.7-18.6-1c-25.1-1.2-50.1-2.5-75.2-3.7C78.5,6.4,63.8,6.1,49,5.3
		C36.8,4.6,24.6,4.2,12.4,4.7C9.5,4.8,6.5,4.4,3.5,4.2C3.4,5.6,3.3,6.4,3.3,7.1C3.6,12.4,4,17.7,4.1,22.9C4.2,29.5,3.9,36,3.9,42.5
		C3.9,53.4,4,64.2,4,75.1c0,6.5,0,13.1,0,19.6c0.1,8.6,0.2,17.1,0.3,25.6c0,0.6,0,1.2,0.1,1.9c0.3,5.1,0.7,10.2,1,15.3
		c0.4,8.1,0.9,16.1,1.1,24.2c0.2,6.3,0.1,12.6,0.1,19.5c1.2,0.3,2.9,1,4.7,1.2c8.3,0.6,16.6,1.1,24.9,1.4c15.9,0.7,31.8,1.3,47.6,2
		c1.1,0,2.2,0.1,3.3,0.2c13.4,0.1,26.7-0.1,40.1,0.3c10.9,0.3,21.7,0.8,32.7,0.3c9.2-0.4,18.4,0.1,27.6,0.2c9.3,0,18.6,0,28,0
		c3,0,5.9-0.1,8.9-0.1c11.3-0.3,22.7-0.5,34-0.8c7.1-0.1,14.3-0.1,21.4-0.3c3.4-0.1,6.7-0.5,10.5-0.8c0.1-1.8,0.3-3.4,0.3-4.9
		C290.2,168.9,289.8,158,289.5,147.1z M123.9,127.9c-1.5,0.6-3.3,0.8-5,0.8c-4,0.2-8,0.1-12.8,0.2c-6.1-7.2-11.3-15.4-11-26.1
		c0.1-3.4,2.2-5.7,5.6-6.5c6.8-1.6,13.5-3.3,20.3-5c3.5-0.9,6.2-0.3,8.7,2.6c2.2,2.5,5.3,4.3,7.8,6.3c-0.4,7.3-0.8,14.6-1.2,21.9
		C132,124.1,128,126.1,123.9,127.9z M150.9,151.9c-7-1.5-14.4-2-20-5.6c-1-5.3-1.9-10-3-15.2c2.7-1.4,5.6-3.2,8.6-4.5
		c0.7-0.3,2,0.3,3,0.6c2.5,0.8,5.1,1.5,7.4,2.6c3.7,1.7,7.2,3.6,10.7,5.4c1.8,0.9,3.5,2.3,5.3,2.7c2.5,0.6,2.7,2.4,3,4.1
		C166.4,143.9,153,152.4,150.9,151.9z M163.2,88.3c-6.1,2.8-12.3,5.4-18.3,8.3c-2.1,1-4,0.8-5.7-0.3c-9.2-5.5-15.8-12.9-17-24.1
		c-0.3-2.6-0.6-5.2-1-8.2c9-4.5,18.1-7.2,27.9-7.6c3.2-0.1,6.5-0.8,9.7-0.8c3.1,0.1,6.2,0.5,9.2,1.3c1.4,0.4,2.6,2.2,3.4,3.6
		c1.7,2.9,3.2,6,4.4,9.2c0.4,1.1,0,2.7-0.4,3.9c-0.9,2.8-2,5.5-3.2,8.2c-0.5,1-1.2,2.2-2.1,2.7C168,86,165.6,87.2,163.2,88.3z
		 M193.4,140.6c-4.4,2.8-9,5.3-13.9,7.2c-3.3,1.3-5.9-0.3-8.1-2.1c-2.1-1.8-1.7-4.8-1.5-7.4c0.1-0.9,1.1-1.8,2-2.4
		c3.3-2.4,6.7-4.6,9.9-7c3.8-2.9,7-0.2,11.3,0.9C193.5,136.9,193.5,136.9,193.4,140.6z M208.2,116.8c-0.5,1.4-13.6,11-18.7,6.8
		c-0.9-3.7-1.8-7.5-2.6-11.2c-2-9.4-7.2-17.4-10.8-26.2c-0.5-1.2-0.7-2.9-0.3-4c0.9-2.4,2.1-5,3.8-6.9c1-1.1,3.3-1.4,5.1-1.3
		c3.2,0.1,8.2,0.2,12.4,0.7c7.1,8.1,12,17.9,11.9,30.7C209,109.3,209.6,113.1,208.2,116.8z"/>
	<path d="M275.8,242c3.8-6.6,4-10.7,1.2-17.2c-1.9-4.4-10.4-8.9-19.6-6.7c-4.7,1.1-10.3,5.4-12.8,12.5c-1.6-2.9-3-5.5-4.5-8.1
		c3.3-3.8,5-8.5,1.1-11.9c-6.4-5.6-12.3-3.8-17.3-2.6c-0.2,0-0.4,0.1-0.6,0.1c-4.2,1.2-7.5,5.7-5.1,11.6c1.1,2.6,0.8,4.7-0.4,7
		c-0.7,1.3-1.5,2.6-2.3,4.1c-3.4-1.3-3.3-4.9-5.5-7c0.7-1.3,1.2-2.1,1.6-2.9c2.9-6.1,0.1-12.5-6.4-14.5c-4-1.3-7.9,0.1-11.1,2.6
		s-5.1,7.5-3.7,11.4c0.9,2.4-1.3,5.8-3.1,4.5c-3.3-2.3-7.4-2.5-12.7-0.7c-1.8-5.7,0.8-5.1,1.1-9.2c-0.2-3.3-1.5-6.2-4.2-8
		c-1.7-1.2-9.9-3.4-13.6,3c-0.8,1.4-0.5,3.3-0.2,4.9c0.2,1.1,1.1,2.1,1.7,3.3c-1.3,1.4-2.5,2.8-3.7,4.1c-2.4-2.6-8.6-2.9-11.4-2.7
		c-0.9-1.4-1.7-2.9-2.6-4.2c4.6-5.5,5-9.8,1.2-12.7c-1.4-1-3.5-1.4-5.2-1.5c-1.3,0-9.6,1.8-10.3,5.5c-0.3,1.5-0.8,3.4-0.2,4.6
		c1.9,3.8-0.4,5.9-2.5,8.5c-4.4-6.6-11.9-9.3-22.1-3.2c-0.5-1.3-1-2.6-1.5-3.8c0.5-0.8,1-1.4,1.3-2.1c2.7-4.9,0.2-9.6-5.4-9.9
		c-2.7-0.1-3.5-0.1-6.2,0.2c-2,0.2-4.7,2.6-4.4,4.8c0.7,3.7,1.3,5.8-0.3,8c-1,0-1.3,0.1-1.6,0c-0.6-0.2-1.2-0.4-1.8-0.7
		c-5.6-2.9-13.2-3.2-17.4-1.1c-4.2,2.1-6.6,7.1-6.9,9.5c-1.8-1.7-3-2.8-4.3-4.1c1.7-3.7,0.9-7-1.4-10c-2.7-3.3-6.5-3.4-10.3-3.3
		c-0.8,0-1.5,0.3-2.3,0.5c-4.9,1.2-6.4,3.1-5.4,7.9c0.3,1.5,1.7,2.8,2.5,4.3c0.4,0.8,0.4,1.7,0.9,3.7c-1.9-1.2-7.3-4.6-17.2-4.6
		c-5.8-0.1-10.5,2.4-14.8,5.9c-2.7,2.2-3.7,5.2-3.3,8.3c0.7,4.7,1.6,9.4,5.3,13c-1.6,2.7-3.2,5.2-4.4,7.9c-1.3,2.8-2.5,5.7-3.3,8.7
		c-0.6,2.2,0.1,2.7,3.2,2.7c1.8-6.1,4.8-11.7,8.6-17.2c5.9,4.1,12.1,3.6,18.4,1.7c2.2-0.7,3.7,0,4.8,1.7c1.1,1.6,2.6,4.5,3.7,6.4
		c-4.4-0.2-7.1,0.7-10,1.9c-6.5,2.8-7.3,10.4-1.6,14.6c1.5,1.1,3,2.1,4.8,3.4c-0.8,1.7-1.7,3.4-2.5,5c-0.8,1.7-1.8,3.3-2.5,5
		c-0.9,2.5,0.7,4.8,2.4,4.9c1.7,0.1,4.5-9.4,6.7-13.8c4-0.7,7.9-1.4,12.5-2.1c1.9,3.6,4.3,7.4,6.1,11.5c0.9,2.1,2.3,2.9,3.7,1.7
		c1.4-1.2-5.5-10.7-7-15.6c1.2-1.1,2.3-1.6,2.7-2.5c1.4-3.4,2.5-7,4-10.4c0.4-0.9,1.8-1.9,2.8-1.9c3.9,0.2,7.9,0.6,9.5,5.1
		c0.5,1.4,0.8,3,1.2,4.4c0.6,2.2-0.4,5.2,1.7,6.7c2.1,1.5,3.2-2,2.7-3.9c-0.9-3.9-1.8-7.8-2.8-11.7c4.1-2.3,4.6-2.8,4.6-7.3
		c0-1.8-0.3-3.7-0.8-5.5c-1.2-4.3-2.8-5.6-7.2-5.9c-2.4-0.2-4.9-0.3-7.9-0.5c2-3.2,2.1-6.7,4.2-8.8c5.3,2.1,6.7,2.6,13.2,2.2
		c2.2-0.1,4,0.4,4.6,2.9c0.8,3,1.7,6,2.7,8.9c0.6,1.8,0.4,3.3-0.5,5.3c-2.8,5.7-3.3,9.3,1.9,14.8c0.7,0.8,1.5,1.6,2.2,2.4
		c-5.5,10.6-7,20.6-4.3,20.7c2.7,0.2,2.3-6.5,3.7-9.2c1.6-2.9,2.8-6.1,4.3-9.5c5.8,2.8,11.3,2.8,16.4,1c5,4.6,3.9,18.4,7.9,17.3
		c4-1.1-0.9-13.6-3.8-19.5c0.5-0.8,1-1.5,1.5-2.3c5.9-9.5,0.6-19.1-8.8-20.8c-1-0.2-1.9-0.8-2.8-1.3c1.5-3.4,3-6.5,4.5-9.8
		c3.1,0.2,6.2,0.2,9.2,0.6c0.9,0.1,2.2,0.8,2.6,1.6c1.6,3.1,2.8,6.4,4.2,9.5c-8,6.1-7.2,11.5,2.5,19.2c-1.4,2.7-2.7,5.5-4.1,8.2
		c-1.5,2.8-2.8,9.6-0.6,9.7c2.2,0,5.6-11.9,10.5-16.5c1.5,0.1,3.3,0.7,4.9,0.2c3.7-1.1,5.8,0.9,8.1,3.2c2.2,2.2,3.5,9.9,4.9,10.8
		c1.4,0.9,3.1-1.4,2.7-3.6c-1-5.4-3.8-9.7-7.6-13.5c0.3-0.5,0.5-1,0.8-1.3c3.9-5.3-0.3-13-7.5-16.7c1.8-2.6,3.4-5,5-7.4
		c3,0.2,5.8,0.3,9,0.5c1.6,3,3.4,6.2,5.1,9.3c-6.4,6.6-5.7,11.8,1.7,19.2c-1.8,4-3.8,7.7-5.3,11.6c-1.1,3.1,1.7,7.9,3,7.4
		c1.3-0.5,0.3-8.8,5.3-14.7c1.2-1.3,2.2-1.6,4-1.5c3.5,0.3,7,0.1,12.1,0.1c1,1.3,3,3.7,4.9,6.2c2.1,2.6,2.3,3.5,0.3,6.5
		c-1,1.6-0.8,2.5,0.6,3.4c4.4-2.4,5.1-3.9,3.9-8.6c-0.8-3.3-2.9-5.8-5.3-8.1c-0.8-0.7-1.5-1.5-2.4-2.4c0.7-0.5,1.1-0.9,1.5-1.3
		c5.2-5.4,4.1-9.4,0.1-13.2c-2.2-2.1-3.5-4-7-5.4c0.9-1.9,2.2-5,3-6.6c2.5-0.3,4.6-0.6,7-0.9c1.7,2.6,3.2,5.7,5.4,8
		c2.5,2.7,2.3,6.2,3.5,9.2c1.1,2.8,3.2,5.2,5,7.7c0.7,1,1.8,1.6,2.9,2.6c-4.9,6.7-7.1,14.3-8.5,22.1c-0.4,2.3,0.5,6.7,2.2,6.4
		c1.8-0.3,1.2-1.8,1.5-2.8c0.7-3,1-6.2,2-9.1c1.4-4.1,3.4-8,5.1-11.9c1.1-2.5,2.9-2.8,5.4-2.2c4.3,1.1,8.6,1.3,12.9,0.1
		c2.6-0.7,5.3-1.6,7.9-2.4c0.9,1.1,1.6,2,2.4,3c4.5,5.2,7.7,10.9,7,18.1c-0.2,2.1,2.4,4.3,3.4,2.5c3.9-6.6-3.6-18.1-8.9-26
		c0.7-0.7,1.4-1.3,2-2c3.5-4.1,5.1-8.7,4.5-14.2c-1.2-9.7-10.1-14.6-17-15.5c-1.6-0.2-3.3-0.2-5.7-0.3c1.5-2.3,2.5-4,2.9-4.7
		c5.3-0.1,9.5-0.1,14.5-0.2c1.9,2.8,4.2,6.3,6.6,9.6c2.5,3.4,5.2,6.6,8.1,10.2c-3.5,3.7-6.7,17.8-4.5,20.6c1.7,2.4,3.8,1.4,3.5-1.3
		c-1.4-11.8,1.7-12.4,4.7-17.1c5.6-1.1,12.3-2,17.8-3c0.8,2.5,3.5,18,6.9,17.4C283.5,261.8,278,248.4,275.8,242z M38.1,211.2
		c0.1-2,1.9-2.9,3.6-2.9c2.4,0,4.9,0.3,7.3,0.8c1.9,0.4,2.8,1.7,2.7,3.7c-3.3,2.3-6.9,2-10.4,1.3C39.7,213.8,38,213.1,38.1,211.2z
		 M32.3,240.7c-3.8,1.2-4.7,2.2-9.7,2.3c-5,0.1-14.4-4.7-15.8-9.5c-1.1-3.7,0.3-7.6,3.5-9.7c2.1-1.3,5.8-4.5,16.8-3.9
		c5.3,0.5,10.4,5.1,11.4,10.2C39.3,234.8,37,239.2,32.3,240.7z M46.5,267.4c-1.8,1.3-3.9,2.8-6,3c-4.7,0.4-12.8-1.4-12.7-5.4
		s7.5-7.3,11.7-6.7c1.1,0.2,6.8,0.9,7.9,3.2C48.3,263.8,48.6,265.9,46.5,267.4z M54.8,251.1c0.4,0.6,0.9,1.2,1.5,2
		c-1.6,3.3-3.2,6.6-4.8,10.2c-2.1-3.7-0.4-4.3-8.1-7.9c-1.9-4-3.5-7.5-5.4-11.4c0.3-0.5,0.8-1.4,1.4-2.3c3.2-4.9,4-10,1.8-15.5
		c-0.5-1.2-0.5-2.7-0.3-4c0.3-1.9,1.4-3,3.6-2.8c1.8,0.1,3.7-0.1,5.7-0.1c2.5,2.4,4.8,4.7,7.2,6.9c4.6,4.3,4.4,8.2-0.5,12.2
		C53.8,240.8,52.7,247.9,54.8,251.1z M65.9,242.6c4.4,0.2,7.6,0.7,8.8,4.6c0.7,2.4,0.1,3.9-2.1,4.9c-4.6,2.1-11.5,0-14.1-3
		c-0.8-0.9-1.3-2.8-0.9-3.8c0.5-1.1,2.1-2.2,3.4-2.5C62.8,242.4,64.9,242.6,65.9,242.6z M74.7,226.7c-3.6-0.5-7.1-2.2-10.2-4.1
		c-2.8-1.7-0.4-4.9,2.8-6.7c3.2-1.8,18.4-1.2,18.3,6.4C85.5,224.8,78.6,227.3,74.7,226.7z M89.5,206.5c0.3-0.7,1-3.5,6-3.2
		c1.5,0.1,4.2,1.2,4.1,3.1c-0.1,1.8-2.1,4.2-4.1,4.2c-1.9,0-3.8-0.9-5.5-1.7C89.5,208.7,89.3,207.2,89.5,206.5z M86.8,229.9
		c-0.2-0.7,0.4-1.7,0.8-2.5c1.1-2.2,1.9-4.3,0.9-6.7c-1-2.6-0.1-4.5,1.5-5.8c2.9,0.2,5.5,0.3,7.9,0.4c2.1,4.6,4.3,9.5,6.8,14.8
		c-1.3,3.6-2.8,7.8-4.4,12.3c-2.8,0.7-5.9,1.4-8.8,2.1C90,239.6,88.3,234.8,86.8,229.9z M111.2,249.3c3.7,1.4,5,6.5,2.6,10.3
		c-1.2,2-2.9,3.5-5.3,4.2c-6.3,1.8-12,0.8-17.1-3.1c-4.3-3.2-3.8-8.3,1-10.7c4.2-2.1,6.3-2.6,10.8-2.7
		C105.9,247.9,108.7,248.3,111.2,249.3z M117.2,227.8c-6,1.2-11.5-1.1-11.7-5.8s8.3-5.1,12.4-3.4c2.1,0.9,4.2,3.6,4,5.3
		C121.8,225.6,119.7,227.3,117.2,227.8z M171.9,212.9c0.5,4.6-10.4,6.1-10.6-0.2C161,206.4,171.4,208.3,171.9,212.9z M131.6,206.4
		c3.5-2.9,9.6-3.1,10.4,0.4c0.8,3.5-5.5,7-8.6,5.6C132.3,211.9,128.1,209.3,131.6,206.4z M140.7,248.6c1.2,0.7,5.8,4.5,3.4,8.7
		c-1.3,2.3-2,3.2-7.8,3.2c-5.9,0-7.7-2.2-10.2-4.3c-2.7-2.3-3-4.5-0.2-6.7C129.8,246.5,136.5,245.9,140.7,248.6z M137.1,240.2
		c-1.3,2.4-3.3,3-5.9,2.6c-1.5-0.2-2.5-0.6-3.1-2.2c-1.3-3.3-2.9-6.5-4.4-9.7c2.6-3.9,2.6-3.9,2.4-7.3c2.2-2.3,4.2-4.4,6.3-6.6
		c2.4,0.3,4.8,0.7,7.6,1.1c-5.3,6.5-4.4,10.3,0.5,16.6C139.3,236.5,138.1,238.3,137.1,240.2z M143.1,230.4c-2.3-1.3-4.9-4.2-2-6.5
		c4.7-3.7,15.3,0.6,15.1,5C156,231.3,149.2,234,143.1,230.4z M159.4,232.1c0.9-1.1,0.4-3.6,0.2-5.4c-0.3-3,2.3-6.2,5.2-6
		c1.7,0.1,3.4,0.2,5.4,0.3c0.4,0.9,1,1.9,1.5,3c-3.8,4.8-3.3,8.5,3.8,14.2c-0.7,1.3-1.2,2.8-2.1,3.9c-0.7,0.8-1.9,1.5-2.9,1.7
		c-2.6,0.4-5.2,0.5-8.1,0.7c-1-1.8-1.7-3.4-2.6-4.9C158.2,237.1,156.9,235,159.4,232.1z M181.6,259.1c-2.3,3.7-5.7,4.8-9.9,4.3
		c-3.4-0.4-6.8-0.6-9.6-2.9c-0.7-0.6-1.5-1.2-2-2c-2.6-4.8-2-7.5,2.8-9.1c2.6-0.9,7.6-1.1,10.4-0.8
		C180,249.5,182.7,257.2,181.6,259.1z M172.6,229.2c2-5.2,15.4-2.3,15,1.8S170.6,234.4,172.6,229.2z M195.3,211.7
		c2.2-2.7,5.1-3.5,7.9-2.9c2.7,0.6,6.2,2.3,6.1,5.9c-0.2,3.6-9.6,8.9-14.5,4.7C192,217.2,193.1,214.5,195.3,211.7z M195.4,243.7
		c-1.7-2.6-3.6-5.3-5-7.4c0.5-2.6,0.8-4.6,1.3-6.6c0.4-1.4,1-2.8,1.4-3.9c4.8,0,9.1,0,13.8,0c0.9,1.6,2,3.6,3,5.5
		c-2.8,2-5.5,3.8-8,5.8C199.8,239.1,197.7,241.4,195.4,243.7z M234.5,239.9c3.9,2.7,4.9,7.1,3.2,12c-2.3,6.5-7.8,9-13.8,10.6
		c-2.5,0.7-5.2,0.6-6.8,0.8c-5.3-0.5-9.3-1.2-13-3.5c-6.6-4-7.6-10.9-2.1-16.2c4.3-4.1,8.6-8,15.1-8.4
		C223.5,234.8,229.3,236.3,234.5,239.9z M237.7,217.8c-3.1,4.7-7.7,3.9-12.2,3.5c-2.1-0.2-4-1.2-4.3-3.6c-0.3-2.2,0.5-4.2,2.4-5.2
		c1.7-0.8,6.2-1.6,9.5-1.4C237.6,211.3,239.4,215.3,237.7,217.8z M274.9,234.4c-1.7,4.3-8.5,8.6-13.3,8c-3.9-0.5-7.6-1.6-10.9-3.8
		c-2-1.3-2.3-3.1-2.1-5.2c0.3-2.4,2.4-11.4,11.4-12.1c3.6-0.3,7.1,0.4,10.4,1.9C273.8,224.7,276.2,230.9,274.9,234.4z"/>
	<path d="M3.9,190.7c-2.7-3.8-0.6-20.8-0.8-25.3c-0.3-11.2-1-22.3-1.5-33.5c-0.4-9.9-0.9-19.9-1.1-29.8c-0.1-6.8,0.2-13.6,0.2-20.4
		c0-10.1-0.1-20.2-0.1-30.3c0-6.1,0.3-12.2,0.1-18.2C0.6,23.8,0.1,10.2,0,0.7C0-1.1,36.4,1,46.4,1.2C53.6,1.4,75,2.1,78.5,2.3
		c9.6,0.4,19.2,1.6,28.8,1.4c10-0.2,54.4,2.9,61.9,3.4c5.8,0.3,11.7,0,17.5,0.5c16.3,1.4,70.9,2.5,81.9,2.5c8,0,16.1-0.5,24.1-0.9
		c4.1-0.2,6.5,1.8,7.1,5.6c1.3,8,0.8,16,0.6,24.1c-0.4,16.5-1,33-1.3,49.6c-0.2,12.7-0.2,25.5-0.1,38.2c0,9.3,0.3,18.6,0.4,28
		c0.1,8.8,0.5,29.5,0.5,31c0.3,6.5-0.8,9.3-8.3,10.2c-3.8,0.5-7.7,0.7-11.6,0.9c-11,0.4-22,0.7-33.1,0.9c-8.4,0.1-16.8-0.1-25.2,0
		c-12.9,0.2-25.8,0-38.8-0.6c-9.5-0.5-19-0.4-28.5-0.3c-20.8,0.2-41.5-0.7-62.2-2c-4.4-0.3-8.9-0.5-13.3-0.6
		c-7.8-0.2-15.6-0.8-23.4-0.5C40.8,194,26,192.9,11,192C8.6,191.8,6.2,191.1,3.9,190.7z M288.3,13.5c-3.9,0.2-7.3,0.6-10.7,0.6
		c-14.3-0.2-28.5-0.5-42.8-0.8c-8.5-0.2-17,0.2-25.5-0.8c-7.3-0.8-14.8-0.5-22.2-0.7c-6.2-0.2-12.4-0.7-18.6-1
		c-25.1-1.2-50.1-2.5-75.2-3.7C78.5,6.4,63.8,6.1,49,5.3C36.8,4.6,24.6,4.2,12.4,4.7C9.5,4.8,6.5,4.4,3.5,4.2
		C3.4,5.6,3.3,6.4,3.3,7.1C3.6,12.4,4,17.7,4.1,22.9C4.2,29.5,3.9,36,3.9,42.5C3.9,53.4,4,64.2,4,75.1c0,6.5,0,13.1,0,19.6
		c0.1,8.6,0.2,17.1,0.3,25.6c0,0.6,0,1.2,0.1,1.9c0.3,5.1,0.7,10.2,1,15.3c0.4,8.1,0.9,16.1,1.1,24.2c0.2,6.3,0.1,12.6,0.1,19.5
		c1.2,0.3,2.9,1,4.7,1.2c8.3,0.6,16.6,1.1,24.9,1.4c15.9,0.7,31.8,1.3,47.6,2c1.1,0,2.2,0.1,3.3,0.2c13.4,0.1,26.7-0.1,40.1,0.3
		c10.9,0.3,21.7,0.8,32.7,0.3c9.2-0.4,18.4,0.1,27.6,0.2c9.3,0,18.6,0,28,0c3,0,5.9-0.1,8.9-0.1c11.3-0.3,22.7-0.5,34-0.8
		c7.1-0.1,14.3-0.1,21.4-0.3c3.4-0.1,6.7-0.5,10.5-0.8c0.1-1.8,0.3-3.4,0.3-4.9c-0.3-10.9-0.7-21.7-0.9-32.6
		c-0.3-11.8-0.6-23.6-0.8-35.4c-0.3-12.3-0.7-24.5-0.7-36.8c0-12,0.5-24,0.7-36c0.1-5.4,0.1-10.9,0.1-16.3
		C288.8,19.7,288.5,16.7,288.3,13.5z"/>
	<path d="M93.7,91.2c1.3-3.1,2.2-6.5,3.8-9.4c4.9-8.5,9.9-17,18.9-21.8c2.9-1.5,5.9-2.7,9-3.6c4.8-1.4,9.6-2.7,14.5-3.3
		c17.3-3.1,32-0.1,38.8,3.1c2.9,1.4,5.6,3.3,8.3,5c7,4.5,13,10.1,18.4,16.3c1.3,1.5,2.3,3.3,3.1,5.2c2.4,5.7,5,11.3,6.5,17.5
		c1.6,6.6-0.9,15.7-1.6,25.2s-8.9,18-17.8,23.7c-6.4,4.1-13.3,6.8-20.7,8c-5.5,1-11.1,1.4-16.6,1.7c-3.2,0.2-19.7-3.6-27.2-6.3
		c-7.5-2.7-18-10.4-25.8-19.1c-3.6-3-5.6-7.8-8.3-11.8c-3.6-5.3-5.2-11.2-5-17.6C92.2,101.4,93,92.8,93.7,91.2z M121.2,64
		c0.4,3,0.7,5.6,1,8.2c1.1,11.2,7.8,18.6,17,24.1c1.7,1,3.6,1.3,5.7,0.3c6-2.9,12.2-5.5,18.3-8.3c2.4-1.1,4.8-2.3,7-3.7
		c0.9-0.6,1.6-1.7,2.1-2.7c1.2-2.7,2.2-5.4,3.2-8.2c0.4-1.2,0.9-2.8,0.4-3.9c-1.2-3.2-2.8-6.2-4.4-9.2c-0.8-1.4-2-3.2-3.4-3.6
		c-2.9-0.9-6.1-1.3-9.2-1.3c-3.2-0.1-6.5,0.6-9.7,0.8C139.4,56.7,130.3,59.5,121.2,64z M137.6,100.1c-2.6-2-5.6-3.8-7.8-6.3
		c-2.5-2.9-5.2-3.5-8.7-2.6c-6.8,1.7-13.5,3.4-20.3,5c-3.5,0.8-5.5,3.2-5.6,6.5c-0.4,10.7,4.9,18.9,11,26.1c4.7-0.1,8.7,0,12.8-0.2
		c1.7-0.1,3.5-0.2,5-0.8c4.1-1.8,8.2-3.8,12.5-5.9C136.8,114.8,137.2,107.5,137.6,100.1z M189.5,123.6c5.1,4.2,18.2-5.4,18.7-6.8
		c1.4-3.8,0.8-7.6,0.8-11.4c0.1-12.8-4.8-22.6-11.9-30.7c-4.2-0.5-9.2-0.6-12.4-0.7c-1.7,0-4.1,0.2-5.1,1.3
		c-1.7,1.9-2.9,4.4-3.8,6.9c-0.4,1.1-0.2,2.8,0.3,4c3.5,8.7,8.8,16.8,10.8,26.2C187.7,116.2,188.7,119.9,189.5,123.6z M130.9,146.3
		c5.6,3.6,13,4.1,20,5.6c2.2,0.5,15.5-8.1,15.1-9.9c-0.4-1.8-0.5-3.6-3-4.1c-1.9-0.4-3.6-1.8-5.3-2.7c-3.6-1.8-7.1-3.8-10.7-5.4
		c-2.4-1.1-4.9-1.8-7.4-2.6c-1-0.3-2.2-1-3-0.6c-3,1.4-5.9,3.1-8.6,4.5C128.9,136.3,129.8,141,130.9,146.3z M193,129.8
		c-4.3-1.1-7.5-3.8-11.3-0.9c-3.2,2.4-6.6,4.6-9.9,7c-0.8,0.6-1.9,1.5-2,2.4c-0.2,2.6-0.6,5.6,1.5,7.4c2.2,1.9,4.8,3.4,8.1,2.1
		c4.9-2,9.5-4.4,13.9-7.2C193.5,136.9,193.5,136.9,193,129.8z"/>
	<path d="M59.2,138.3c2,1.7,3.3,2.8,4.8,4.1c0.8-2.7,1.5-5,2.5-8.1c2.5,2.7,4.6,5,7.4,8c1.1-5.4,1-10.2,5-14.1c3,4.7,8,7.4,9.9,12.9
		c-1.9,1.2-3.1,1.8-4.5-0.4c-1.3-2-3-3.8-5.4-6.5c-0.9,4.3-1.5,7.5-2.3,11.4c-3.7,3-5.6-1.8-8.5-3.4c-0.3,0.7-0.6,1.1-0.7,1.5
		c-0.9,5-1.4,5.2-5.8,2.6c-0.2-0.1-0.6-0.2-1.1-0.3c-0.2,0.6-0.4,1.3-0.8,2c-1.4,2.9-3,3.5-6,2.3c-2.3-0.9-4.7-1.8-7.6-3
		c0.3-1.6,0.7-3.6,1.2-6.3c3.2,2.3,5.6,4.1,8.4,6.1C57,144.2,58,141.5,59.2,138.3z"/>
	<path d="M242.7,144.5c1.2,1.6,2.3,2.7,3.1,4c0.8,1.3,1.2,2.8,2.3,5.6c1.2-1.8,2-2.9,3.1-4.6c2.5,2.5,4.8,4.8,7.1,7.1
		c-2.8,1.6-2.8,1.6-6.8-0.5c-1.7,0.8-3.4,1.7-5.4,2.6c-1.2-2.7-2.2-4.9-3.5-7.6c-1.5,1.6-2.6,2.9-3.8,4.1c-3.1,3.3-5.5,3-7.4-1.2
		c-1-2.1-1.7-4.3-2.6-6.6c-4.1,0.8-6.6,4.7-10.6,5.4c-0.5-4.1-0.2-4.6,2.8-6.4c2.8-1.6,5.5-3.3,8.8-5.2c1.6,3.3,3.4,7.1,5.4,11.1
		C238.7,150.7,240,147.4,242.7,144.5z"/>
</g>
</svg>
