<?xml version="1.0" encoding="utf-8"?>
<!-- Generator: Adobe Illustrator 19.1.0, SVG Export Plug-In . SVG Version: 6.00 Build 0)  -->
<svg version="1.1" id="Calque_1" xmlns="http://www.w3.org/2000/svg" xmlns:xlink="http://www.w3.org/1999/xlink" x="0px" y="0px"
	 viewBox="3036.5 689.2 66 61.2" style="enable-background:new 3036.5 689.2 66 61.2;" xml:space="preserve">
<style type="text/css">
	.st0{fill:#6F9BBB;}
	.st1{fill:#E46D65;}
	.st2{fill:#1D1D1B;}
	.st3{fill:#FFFFFF;stroke:#E46D65;stroke-width:3;stroke-miterlimit:10;}
	.st4{fill:#6EA2C2;}
	.st5{fill:none;stroke:#E46D65;stroke-width:3;stroke-miterlimit:10;}
	.st6{fill:#C2C2C2;}
	.st7{fill:#F3F6ED;}
	.st8{fill:#EA6C65;}
	.st9{fill:#80BA40;}
	.st10{fill:#B9B8B8;}
	.st11{fill:#1A94C1;}
	.st12{fill:none;stroke:#B9B8B8;stroke-width:3;stroke-miterlimit:10;}
	.st13{fill:none;}
	.st14{fill:#EC6C65;}
	.st15{fill:none;stroke:#EC6C65;stroke-width:4;stroke-miterlimit:10;}
	.st16{fill:#169BC9;}
	.st17{fill:#FFFFFF;}
	.st18{fill:#C0C0C0;}
	.st19{fill:none;stroke:#C0C0C0;stroke-width:3;stroke-miterlimit:10;}
	.st20{fill:none;stroke:#EC6C65;stroke-width:3;stroke-miterlimit:10;}
	.st21{fill:none;stroke:#80BA40;stroke-width:3;stroke-miterlimit:10;}
	.st22{fill:#4D4D4D;}
	.st23{fill:#6DA0C0;}
	.st24{fill:#FFFFFF;stroke:#80BA40;stroke-width:3;stroke-miterlimit:10;}
	.st25{fill:#D9EAC5;}
	.st26{fill:#A6CF7A;}
	.st27{fill:#BFDC9F;}
	.st28{fill:#ECEED2;}
</style>
<path d="M3102.4,705.5c0,12.3-0.1,24.7,0,37c0.1,5.5-4.3,9.2-9.4,7.3c-11.2-4.1-22.4-8.4-33.4-13c-7.3-3.1-14.3-6.9-21.4-10.4
	c-2.4-1.2-2-3.2-0.6-4.8c1.5-1.8,3.2-3.6,5.2-4.8c15.3-9.1,30.6-18.3,46.3-26.8c3.3-1.8,8.2-0.5,12.3-0.4c0.4,0,1,1.6,1.1,2.4
	C3102.5,696.6,3102.4,701,3102.4,705.5C3102.4,705.5,3102.4,705.5,3102.4,705.5z M3089.8,743.8c0.2-17.1,2.4-33.2,0.2-49.6
	c-13,6.3-41,23.4-46.2,28.4C3059.1,729.7,3074.2,736.6,3089.8,743.8z"/>
</svg>
