<?xml version="1.0" encoding="utf-8"?>
<!-- Generator: Adobe Illustrator 19.1.0, SVG Export Plug-In . SVG Version: 6.00 Build 0)  -->
<svg version="1.1" id="Calque_1" xmlns="http://www.w3.org/2000/svg" xmlns:xlink="http://www.w3.org/1999/xlink" x="0px" y="0px"
	 viewBox="3125.7 687.8 67.5 64" style="enable-background:new 3125.7 687.8 67.5 64;" xml:space="preserve">
<style type="text/css">
	.st0{fill:#6F9BBB;}
	.st1{fill:#E46D65;}
	.st2{fill:#1D1D1B;}
	.st3{fill:#FFFFFF;stroke:#E46D65;stroke-width:3;stroke-miterlimit:10;}
	.st4{fill:#6EA2C2;}
	.st5{fill:none;stroke:#E46D65;stroke-width:3;stroke-miterlimit:10;}
	.st6{fill:#C2C2C2;}
	.st7{fill:#F3F6ED;}
	.st8{fill:#EA6C65;}
	.st9{fill:#80BA40;}
	.st10{fill:#B9B8B8;}
	.st11{fill:#1A94C1;}
	.st12{fill:none;stroke:#B9B8B8;stroke-width:3;stroke-miterlimit:10;}
	.st13{fill:none;}
	.st14{fill:#EC6C65;}
	.st15{fill:none;stroke:#EC6C65;stroke-width:4;stroke-miterlimit:10;}
	.st16{fill:#169BC9;}
	.st17{fill:#FFFFFF;}
	.st18{fill:#C0C0C0;}
	.st19{fill:none;stroke:#C0C0C0;stroke-width:3;stroke-miterlimit:10;}
	.st20{fill:none;stroke:#EC6C65;stroke-width:3;stroke-miterlimit:10;}
	.st21{fill:none;stroke:#80BA40;stroke-width:3;stroke-miterlimit:10;}
	.st22{fill:#4D4D4D;}
	.st23{fill:#6DA0C0;}
	.st24{fill:#FFFFFF;stroke:#80BA40;stroke-width:3;stroke-miterlimit:10;}
	.st25{fill:#D9EAC5;}
	.st26{fill:#A6CF7A;}
	.st27{fill:#BFDC9F;}
	.st28{fill:#ECEED2;}
</style>
<path d="M3138.5,751.7c-2.8-1.5-5.9-3-8.7-4.8c-1.2-0.8-2.3-2-3.1-3.2c-0.5-0.7-0.9-1.8-0.9-2.7c0.6-14,1.2-28.1,1.8-42.1
	c0.1-2.9,0.3-5.7,0.6-8.5c0.1-0.7,1-1.5,1.7-1.8c4.7-2.2,8.1,1,11.7,3.1c14.4,8.6,28.7,17.3,43.1,26c0.8,0.5,1.6,1,2.4,1.2
	c4.2,0.9,4.7,4.8,6,7.8c0.3,0.7-1.6,2.9-2.9,3.6c-3.8,1.9-7.8,3.4-11.8,5c-7.3,3.1-14.5,6.3-21.8,9.2c-4,1.6-8.2,2.9-12.3,4.4
	C3142.6,749.6,3140.9,750.6,3138.5,751.7z M3177.5,723.4c-14.6-9.8-29.6-20-45.4-30.6c-0.6,16.4-1.2,32.3-1.8,48.5
	C3146.5,735.5,3163.4,732.8,3177.5,723.4z"/>
</svg>
