<?xml version="1.0" encoding="utf-8"?>
<!-- Generator: Adobe Illustrator 19.1.0, SVG Export Plug-In . SVG Version: 6.00 Build 0)  -->
<svg version="1.1" id="Calque_1" xmlns="http://www.w3.org/2000/svg" xmlns:xlink="http://www.w3.org/1999/xlink" x="0px" y="0px"
	 viewBox="0 0 817.9 553.9" style="enable-background:new 0 0 817.9 553.9;" xml:space="preserve">
<style type="text/css">
	.st0{display:none;fill:#F7B5AC;}
	.st1{fill:#F7B5AC;}
	.st2{fill:#EB5C5F;}
	.st3{fill:#84B974;}
	.st4{fill:#010202;}
	.st5{fill:#AB7613;}
	.st6{fill:#C0BFBF;}
	.st7{fill:#6FA4C3;}
	.st8{fill:#1E1E1C;}
	.st9{fill:none;}
	.st10{fill:none;stroke:#EB5C5F;stroke-width:3;stroke-miterlimit:10;}
	.st11{fill:none;stroke:#6FA4C3;stroke-width:3;stroke-miterlimit:10;}
	.st12{fill:none;stroke:#84B974;stroke-width:3;stroke-miterlimit:10;}
	.st13{fill:none;stroke:#C0BFBF;stroke-width:3;stroke-miterlimit:10;}
	.st14{fill:none;stroke:#F7B5AC;stroke-width:3;stroke-miterlimit:10;}
</style>
<g>
	<path class="st2" d="M504.1,451.7c-5.6-1-10.1-3.9-13.6-8.4c-2.2-2.9-2.9-6.6-1.3-9.7c1.2-2.4,4-4.1,7-4.1c4.5,0.1,9,0.7,13.5,0.8
		c10.6,0.4,21.2,0.8,32.8,1.2c-1.8-6.1-3-11-4.6-15.8c-3.7-11-8.3-21.6-15.5-31c-5.8-7.5-12.6-14-19.8-20c-5.7-4.7-11.6-9.5-18-13
		c-7.3-3.9-15.2-6.8-23.2-9.2c-9.5-2.9-19.4-4.3-29.4-3.8c-14.9,0.7-29.5,3.6-43.7,8.1c-14.1,4.6-27.4,10.7-38.2,21.2
		c-4.4,4.3-9.1,8.4-13.6,12.5c-2.1,1.9-3.3,1.7-4.7-0.6c-0.4-0.6-0.5-1.3-0.8-2c-2-3.6-3.8-7.4-5.9-10.9c-5-7.9-12.8-12.7-20.2-17.8
		c-1.7-1.2-3.6-2.7-6.3-2c2.7,4.2,5.9,7.9,7.6,12.2c2.6,6.3,4.5,12.8,5.1,19.9c1.2,14.7-0.8,28.9-5.7,42.7
		c-1.8,5.1-3.3,10.4-6.9,14.7c-0.4,0.5-0.3,1.3-0.7,2.6c9.1-2,16.6-5.9,23.6-11.2c7.1-5.5,11.7-13,16.9-21.1c1.4,1.8,2.2,2.9,2.9,4
		c1.5,2.3,2.7,4.8,4.3,6.9c8.1,10.9,16.7,21.4,26.5,30.8c6.4,6.2,13.1,12,20.3,17.2c7.2,5.1,15.1,9.3,22.8,13.7
		c9.6,5.4,19.8,9.1,30.9,9.7c11,0.6,22,0.9,33.1,0.1c22.3-1.6,41.3-9.9,56.7-26.3c1.3-1.4,2.2-3.1,3.4-5c-1.4-0.3-2.1-0.5-2.8-0.6
		C525.8,455.6,515,453.7,504.1,451.7z M441.8,414.1c-1.6,1.2-3.4,2.3-4.6,3.8c-6.4,8-15.4,10.4-24.8,11.8
		c-5.3,0.8-10.7,1.1-15.8-1.8c-1.1-0.6-2.8,0.2-4.1-0.3c-4.4-1.6-5.3-5.4-5.7-9.9c2.4-0.7,4.6-1.7,6.9-2
		c11.9-1.5,19.9-7.7,24.1-18.9c0.2-0.5,0.5-1,0.7-1.5c0.2-0.3,0.4-0.6,0.8-1.1c8.2,2.4,16.5,4.7,22.9,11
		C445.8,408.8,445.6,411.1,441.8,414.1z"/>
	<path class="st2" d="M610,22.7c-23-8.2-47.3,0.1-59,18.6c2.8-0.1,5.3-0.2,7.8-0.1c13.3,0.1,26.7,1.4,40-0.2
		c2.6-0.3,3.6,1.5,2.5,3.7c-0.5,1-1.4,1.7-1.9,2.7c-1.7,4-5,7.6-3.3,13.1c3.7-6.6,8.9-11,15.1-14.4C605.7,40.2,605.3,30.5,610,22.7"
		/>
	<path class="st2" d="M586.7,152.9c6.7-8.6,15.4-12.4,25.6-13.4c0.5-7.2,1.1-13.8-0.4-20.4c-0.6-2.4-1.7-4.8-2.9-7
		c-1.5-2.6-3.8-4.8-7-4.2c-4.5,0.9-8.8,2.7-11.3,6.8C583.6,126.4,582.2,138.9,586.7,152.9"/>
	<path class="st2" d="M574.1,194.6c0-5.6-0.7-11,0.3-16.2c1-5.3,3.8-10.2,5.9-15.6c-9.9-3.6-19.7-5.5-29.7-0.3
		c-4.3,2.2-8.7,8.2-7.9,12.1c1.1,5.1,3.4,9.4,9.1,11.1c4,1.2,7.7,3.2,11.5,4.7C567,191.9,570.6,193.3,574.1,194.6"/>
	<path class="st2" d="M688,100.3c-1.4-6-2.2-11.8-4-17.2c-1.6-4.7-4.3-9.1-6.9-13.3c-2.7-4.5-7.9-3.3-10.3,1
		c-4.3,7.9-4.9,16.2-3.8,24.7c0.5,4.2,1.1,8.5,3.4,12.4C675,101.8,677,101.2,688,100.3"/>
	<path class="st2" d="M579.6,209.7c-4.9,2-9.6,3.7-13.4,7.3c-3.8,3.5-4.8,7-2.2,11.4c2,3.4,4.1,6.8,6.4,10c3.9,5.3,7.7,6.1,13.1,2.2
		c5.3-3.9,10.3-8.3,16.2-13.1c-5.5-1.1-9.5-2.6-12.2-6.4C585,217.5,582.5,213.8,579.6,209.7"/>
	<path class="st2" d="M737.1,127.8c1.6,3.4,3.6,6.2,4.5,9.4c1.2,4.3,1.5,8.9,2.2,13.3c0.4,2.2,0.7,4.4,1.2,6.9
		c4.9-2.7,9.1-5,13.3-7.4c1.2-0.7,2.3-1.7,3.3-2.8c5.3-5.6,5.6-9.8,1.4-16.3c-0.7-1.1-1.2-2.3-1.8-3.4c-1.9-3.5-4.9-5.7-8.5-7.3
		c-2.1-0.9-3.9-0.8-5.6,0.4C743.7,122.9,740.4,125.4,737.1,127.8"/>
	<path class="st2" d="M647.7,35.2c-5-4.7-11.2-7.8-18-10.1c-3.5-1.2-6.7-0.5-10,0.7c-2.6,1-4,2.9-4.2,5.7
		c-0.7,9.3,2.3,12.4,8.7,14.9c5.3,2,11,3.2,16,4.6C642.8,45.7,645.1,40.7,647.7,35.2"/>
	<path class="st2" d="M536.8,185.7c-8.1-10.5-1.6-28.4,8.8-32.4c-1.3-0.8-2.5-1.8-3.8-2.1c-5-1.2-10.1-3.5-14.7,1.1
		c-0.9,0.9-2.2,1.2-3.2,2c-5.8,4.2-9.1,9.8-8.6,17.1c0.2,3.4,1.5,6.1,5.2,7.4C526.1,180.9,531.6,183.5,536.8,185.7"/>
	<path class="st2" d="M702.4,102.6c11,0.7,19.5,4.2,25.2,13.1c2.4-2.4,4.8-4.6,7-6.9c3.2-3.5,3.9-7.8,1.4-12
		c-1.6-2.6-3.6-4.9-5.8-7.1c-4.3-4.3-11.3-4.8-15.7-0.6C710.4,93.1,706.8,97.6,702.4,102.6"/>
	<path class="st2" d="M746.7,94.6c10.5-6.5,13.8-16.1,5.8-24.8c-0.7-0.8-1.2-1.8-2-2.6c-2.8-2.9-8.7-4.2-11.5-2.2
		c-4.2,3-8.2,6.3-10.2,11.4C737.5,79.9,744.3,85.1,746.7,94.6"/>
	<path class="st2" d="M616.9,239.1c-3.5,3.3-6.2,7.7-7.4,13.2c-0.4,2-0.1,3.4,1.2,4.9c4,4.5,11.8,6.7,17,3.8
		c5.3-3.1,10.4-6.8,12.7-12.4C632.6,245.4,625,242.3,616.9,239.1"/>
	<path class="st2" d="M692.8,31c-14.2-6.7-27.3-5.6-41,0.7c3.9,2.1,9,3.1,7.6,9c5.1,0.5,8.6,2.9,11.4,6.5c0.7,0.9,2,1.9,3,2
		c3.3,0.2,6.7,0.1,9.9,0c1.2-3.6-1.3-4.4-3-5.4c-0.9-0.5-2.4-0.2-3.1-0.8c-1.4-1.2-3.2-2.6-3.5-4.3c-0.5-2.3,2-2.6,3.7-3.1
		c3.6-1,7.4-1.7,11-2.7C689.7,32.7,690.7,32,692.8,31"/>
	<path class="st2" d="M747.4,52.8c7.2,3.7,15.6,5.1,17.2,15.6c3.3-7.4,5.7-13.6,4.9-20.5c-0.7-5.6-1.8-11.1-7.9-13.6
		C752.9,37.3,751.7,45.8,747.4,52.8"/>
	<path class="st2" d="M522.3,140.6c-1.4-1.2-2.5-2.8-4.1-3.3c-2.6-0.9-6.2-2.3-8-1.2c-4.1,2.5-7.5,6.1-10.8,9.7
		c-2.6,2.8-2.1,6.5-2.3,10.2c-0.3,6,2.6,8.9,7.5,11.2C505.4,154.8,514,148,522.3,140.6"/>
	<path class="st2" d="M739.3,198.9c2.9-0.3,4.6-0.6,6.4-0.6c6.4,0,10.9-3.5,14.4-8.2c1.9-2.6,3.9-5.8,2.5-9
		c-6.2-4.7-11.9-2.9-17.6-0.3C743.2,186.7,741.4,192.4,739.3,198.9"/>
	<path class="st2" d="M505.5,125.4c-2.8-2.6-4.9-5-7.3-6.7c-3.8-2.7-8.5-2.4-11.5,0.3c-4.7,4.2-6.4,9-3.9,13.4
		c1.9,3.3,4.6,6.2,7.5,10C492.3,133.5,497.6,128.9,505.5,125.4"/>
	<path class="st2" d="M775,129.3c0.4,0.2,0.8,0.3,1.2,0.5c1.6-1.8,3.2-3.7,4.9-5.5c4-4.3,3.3-8.8,0.7-13.4c-0.6-1.1-1.5-2-2.3-3
		c-2.5-3-5.3-4.1-8.5-2.4c-3.4,1.8-6.4,4.3-9.1,7.9c2.6,2.1,4.7,4.4,7.3,5.9C773.1,121.5,775.5,124.4,775,129.3"/>
	<path class="st2" d="M553.2,224c-8.2,3.6-10.6,8.5-8.2,16.2c1.4,4.6,4.7,8.1,8.3,11c1,0.8,3.3,0.9,4.5,0.3c2.6-1.3,4.9-3.3,7.8-5.4
		C556.7,240.9,554,233.1,553.2,224"/>
	<path class="st2" d="M533.9,236.5c-4.8,0.8-7.2,4-9.1,7.4c-0.5,0.9-0.3,2.5,0.2,3.5c1.8,3.5,3.9,6.9,6,10.3
		c0.9,1.5,1.4,3.2,3.9,3.2c1.2,0,2.4,1.7,4,3c2.5-1.8,5-3.6,8.2-5.9C539.5,252.4,534.7,245.6,533.9,236.5"/>
	<path class="st2" d="M793.4,111.3c4.5-3.9,7.1-9.2,8.3-15.1c0.3-1.3-0.1-3.4-0.9-4c-2.9-2.1-6.1-3.8-9.3-5.2
		c-0.7-0.3-2.4,0.8-3,1.6c-1.9,2.6-3.5,5.5-4.8,7.7C787,101.6,790.1,106.3,793.4,111.3"/>
	<path class="st2" d="M671.3,56.4c-2-2.3-3.2-4.1-4.8-5.5c-2.1-1.9-4.3-4-6.9-5c-6-2.5-10.9,1.7-10,8.2c0.7,5,3.7,8.7,7.2,12.9
		C659.3,60,664.5,57.6,671.3,56.4"/>
	<path class="st2" d="M615,104.7c1.1-5.3,2.4-9.5,2.8-13.8c0.4-3.8-1.5-6.3-4.5-7.2c-3.5-1-6.4-0.1-8.7,2.7c-1.2,1.5-2.6,3-3.7,4.7
		c-1.2,2-2.1,4.3-3.5,7.1C604.7,97.1,609.7,99.8,615,104.7"/>
	<path class="st2" d="M662.4,277.9c-2.8,5.1-3,10.7-1.7,16.6c0.5,2.4,1.7,3.9,4.1,4.4c2.4,0.6,4.5-0.3,5.8-2.1
		c1.2-1.7,2.1-3.9,2.4-5.9c0.5-4.6,0.6-9.3,0.8-13.3C669.9,277.7,666.4,277.8,662.4,277.9"/>
	<path class="st2" d="M630.3,80.4c5.3-5.5,7-11.9,7.3-18.7c-2.6-2.7-5.4-2.3-8.2-0.9c-5.2,2.6-9.1,6.6-12.9,11.1
		C628.8,76.5,626,75.6,630.3,80.4"/>
	<path class="st2" d="M679.6,249.6c-5.3,0-10.3,3.2-16,1.3c-0.4,6.4-2.9,12.6,1,18.3C674.1,266.9,679.1,260.1,679.6,249.6"/>
	<path class="st2" d="M607.2,286.1c3.3-4.6,6.5-9.1,10.2-14.3c-7.2-0.4-10.8-4.4-13.3-9.7c-3.5,2.6-3.8,6.1-4.5,9.5
		C598.2,279.2,599.3,281.7,607.2,286.1"/>
	<path class="st2" d="M516.4,253.7c-4.1,2.5-6.9,5.3-8.2,8.1c-2.2,4.7,0.2,8.9,5.1,10.1c5.8,1.5,9.7-0.9,12.8-4.7
		c-2.1-1.8-4.6-3.3-6-5.4C518.5,259.6,517.7,256.8,516.4,253.7"/>
	<path class="st2" d="M769.9,29.3c-0.1-9.7,0.7-18.1-6.3-25c-4.7,6.7-5.1,13.6-4.7,19.1C762.7,25.4,765.9,27.1,769.9,29.3"/>
	<path class="st2" d="M731.4,214.5c-3.2,5-5.8,9.1-8.8,13.8c3.2,1.3,6.1,2.6,9.1,3.6c3,0.9,6.7-0.1,7.8-2c1.7-2.9,0.9-5.8-0.9-8.1
		C736.4,219.1,733.7,216.8,731.4,214.5"/>
	<path class="st2" d="M749,233.6c-2.4,2.4-4.6,4.5-7.1,6.9c3.8,3.8,8.3,6.6,13.6,7.9c0.9,0.2,2.1-0.5,3.3-0.8
		C757.1,241.3,753,237.4,749,233.6"/>
	<path class="st2" d="M594.3,290.4c-1.6,3.7-2,7.9-0.3,12.1c1.3,3,3,3.2,5.9,1.7c3.7-2,3.8-5.7,4.9-8.3
		C601.2,294,597.8,292.2,594.3,290.4"/>
	<path class="st2" d="M804.9,80.8c0.6-3.1,1.4-6,1.7-9c0.1-1.1-0.7-2.8-1.7-3.5c-1.5-1.2-2.7,0.3-3.5,1.4c-1.9,2.7-3.6,5.6-5.4,8.5
		C799,79,801.5,79.8,804.9,80.8"/>
	<path class="st2" d="M791.2,178.9c0,4.1,0,8.3,0.1,13.1c1.8-1.2,3.2-2.1,4.4-3c2.4-1.7,5-4,4.2-6.9c-0.9-3.3-4.4-3.8-7.6-3.5
		C792,178.6,791.9,178.7,791.2,178.9"/>
	<path class="st2" d="M675.2,302.3c9.1,1.7,18.3-0.9,22.2-5.8C689.4,294.6,682.9,298.7,675.2,302.3"/>
	<path class="st2" d="M774.5,178.4c0.5,5.5-4.9,9.1-2.6,14.7c3.8-1.2,7.9-2.5,8.5-7.1C780.9,182.3,778.1,180.2,774.5,178.4"/>
	<path class="st2" d="M742.9,275.9c4.6-6.1,9.3-10.5,12.3-16.7C748.3,261.3,743.7,267.4,742.9,275.9"/>
	<path class="st2" d="M643.5,59.5c2-1.5,1.7-3.3,0.3-3.7c-2.8-1-5.8-1.2-8.7-1.7c0,0.3-0.1,0.5-0.1,0.8
		C637.8,56.3,640.6,57.8,643.5,59.5"/>
	<path class="st2" d="M807.4,178.3c-0.1,3.3-0.2,5.2-0.3,7.8c2-0.7,3.2-1.1,5.2-1.7C810.7,182.4,809.4,180.9,807.4,178.3"/>
	<path class="st2" d="M596.3,310.7c0.9,2.4,1.6,4.4,2.2,6.4c0.4-0.1,0.8-0.1,1.2-0.2c0.1-2,0.2-4,0.3-6.2
		C598.7,310.7,597.9,310.7,596.3,310.7"/>
	<path d="M630.7,53.1c-4.3-1.3-8.1-2.8-12.1-3.7c-3.3-0.8-6.4,0.5-9,2.5c-4.7,3.6-8.5,7.8-10,13.6C592,67,589,64.3,590.3,57
		c0.7-3.7,2.1-7.2,3.4-11.4c-2.2,0.2-4.2,0.5-6.2,0.4c-10.7-0.2-21.3-0.6-32-0.7c-2.7,0-5.3,0.8-8,1c-1.3,0.1-3.2-0.2-3.9-1.1
		c-0.5-0.7-0.1-2.8,0.6-3.8c2.9-3.9,5.8-7.9,9.4-11.2c4.5-4.1,9-8.3,14.9-10.8c13.7-5.8,27.7-6.2,42-2.5c3.1,0.8,6,2.1,10,3.5
		c10-3.4,18.7,3,27.9,7.6c15.4-11.2,46-7.2,51,4.3c-4.4,4.5-10.2,5.5-16.2,6.8c2.2,2.4,4.5,4.3,6.1,6.7c3.3,4.9,2.6,6.6-3,7.8
		c-2.8,0.6-5.6,1-8.9,1.6c1.1,1.7,2,3,2.8,4.4c0.6,1.1,1.6,2.8,1.2,3.4c-1.7,2.3-0.1,3.8,1,5.3c6.5,8.9,8.2,19.5,10.6,29.9
		c0.3,1.2,0.4,2.5,0.7,3.7c0.2,0.7,0.6,1.3,1.2,2.5c3.3-4.4,6.2-8.6,9.4-12.6c3.7-4.5,7.4-9.1,13.4-9.4c6.1-8.7,10.4-18.4,20.8-22.5
		c1-0.4,1.9-2.1,2.2-3.3c1.8-9,6.7-16.3,11.7-23.7c0.6-0.9,1.2-2.1,1.3-3.1c0.2-3.8-0.1-7.6,0.4-11.4c0.5-4.1,1.3-8.2,2.4-12.2
		c0.7-2.7,2.6-4.9,5.4-5.7c1.6-0.4,4-0.6,5,0.2c3.7,3.2,7.2,6.6,7.9,11.9c1.2,8.7,1.4,17.3-0.4,25.9c-0.3,1.5-0.3,3.2,0.1,4.8
		c1.4,5.8,1.1,11.5-0.5,17.2c-2.2,7.5-5.3,14.7-10.1,21c-0.7,1-1.5,2.1-1.9,3.2c-2.7,8-8.9,12.6-15.7,16.5c-2.1,1.2-3.3,2.4-3.9,4.7
		c-0.4,1.5-1.1,3.1-2.1,4.3c-3.2,3.7-6.5,7.3-9.9,10.8c-0.7,0.7-1.9,1-3.4,1.7c1.3,1.5,2.6,2.9,3.6,4.1c4.3-3.2,8.1-6.2,12-9
		c2.5-1.8,4.8-3.8,8.3-3c1,0.2,2.4-1.3,3.4-2.2c3.7-3.1,7.4-6.4,11.1-9.5c2.8-2.3,5.9-3.5,9.5-2.6c2.6-4.8,5.2-9.5,7.8-14.2
		c0.3-0.5,0.5-1.1,0.9-1.3c5.1-2.6,6.5-8.1,9.4-12.4c0.9-1.4,1.5-2.9,2.5-4.2c3-4.3,5.9-5.5,9.6-4c5.1,2.1,8.1,6.2,7,10.9
		c-1,4.4-2.8,8.6-4.2,12.9c-0.4,1.5-1.1,3.4-0.6,4.5c1.4,2.8,0.7,5.4-0.3,7.9c-2.4,6.4-6.1,11.9-11.7,16c-3.1,2.2-5.5,4.9-7.5,8.2
		c-3.3,5.2-7.6,9.6-13,12.9c-1.4,0.9-2.8,2.3-3.4,3.8c-2.9,7.3-8.2,12.5-15.1,15.6c-5.6,2.5-9.9,6.7-14.1,10.8
		c-1.8,1.8-1.8,5.5-2.9,9.4c9.1-2.5,17.1-6,24.9,0.2c4.5-4.9,9.6-3.6,14.5-1.5c2.1,0.9,3.7,1,5.6,0.2c5.5-2.4,10.9-2.3,16.3,0.2
		c1,0.4,2.5,0.6,3.4,0.1c3.8-2,6.7-0.3,9.4,1.9c1.1,0.9,1.9,2.2,2.8,3.3c2.9,3.6,2.2,6.4-2.1,7.8c-1.9,0.6-3.9,1.6-5.8,1.4
		c-4-0.6-6.9,1-9.9,3.1c-5,3.5-10.1,3.8-15.1-0.1c-6.9,4.2-14,6.2-22,4.5c-1-0.2-2.3,0.7-3.3,1.3c-5.8,3.7-17.9,5.2-24.9,2.7
		c-0.5,1-1.2,2.1-1.7,3.2c-0.4,1-0.6,2-0.9,2.8c5.3,4.6,11.6,7.8,14.2,14.7c0.3,0.9,1.3,1.6,2.1,2.3c6.7,5.8,13.3,11.7,17.3,19.9
		c0.7,1.5,2.3,2.5,3.7,3.9c-2.8,6.6-6.7,12.7-11.1,18.4c-2.7,3.4-5.5,6.7-8.4,10c-0.8,0.9-1.8,1.9-2.8,2.5c-4.1,2.3-8.4-0.1-8.4-4.8
		c0-4.8,1.2-9.4,4.9-12.9c3.2-3,6.4-5.9,9.9-9c-2.5-1.6-4.8-3.1-7.2-4.7c-1.9-1.3-3.8-2.8-5.7-4.2c-3.8-2.9-6.1-7.4-11.4-8.9
		c-4.4-1.3-8.3-4.3-12.9-6.9c-7.7,7.3-17.5,11-27.5,14.1c-1.2,5.6-1.6,10.9-3.4,15.8c-2.6,7.1-3.6,14.4-4.5,21.7
		c-0.6,5-1.2,10-1.9,15.4c1-0.3,2.3-0.4,3.2-0.9c5.4-3.3,11.5-3,17.4-3.2c1,0,2.2,0.3,3.1,0.9c3.4,2,3.6,6.2-0.1,8.4
		c-4,2.4-8.4,4.5-12.9,5.5c-7.4,1.7-15,2.5-22.5,0.2c-1.4-0.4-5.6-4.1-6.8-5c-2.5-1.8-3.4-4.2-3.9-6.9c-1.3-6.6-0.7-13,2.4-19.1
		c1.2-2.4,1.1-4.4,0.5-7.1c-1.6-6.8-0.5-13.7,1-20.9c-3-0.6-6.1-1.2-9.6-1.9c-1.6,2.4-3.2,4.7-4.7,7.1c-3.8,6.1-9.2,10.1-15.5,13.3
		c-1.3,0.7-2.5,1.8-3.4,3.1c-4.1,5.9-8.2,11.9-12.2,17.9c-0.8,1.2-1.7,2.5-1.8,3.9c-0.5,5.5-2.8,10.4-4.8,15.5
		c-1.4,3.5-1.6,7.3-2.4,11c-0.4,1.7-0.7,3.5-1.1,5.1c-6.1,1.1-9.1-0.6-10.8-5.7c-1.6-4.8-3.4-9.6-4.7-14.4
		c-1.4-5.2-0.8-10.5,1.7-15.3c2.2-4.2,3.7-8.2,3.7-13.3c0-6.2,2.7-11.9,7.3-16.6c1.4-1.5,2.8-3.4,3.2-5.4c1.4-6,3.9-11.3,8.4-15.5
		c0.4-0.3,0.5-0.9,1.1-2c-2.8-1.3-5.5-2.6-8.4-4c-3.6,3.2-7,6.4-10.6,9.4c-2.3,2-4.8,3.9-7.4,5.4c-4.5,2.7-9.2,4.6-14.1,1.8
		c-9.4,9.4-12.6,10.2-19.5,10.7c-2.5,4.9-6.3,8.6-11.7,10.4c-1.5,0.5-3.3,1.4-4.7,1c-3.8-1-6.1,0.9-8.4,3.4c-7,7.4-16.1,5-22.1,1.8
		c-5.1-2.7-6.3-9.8-3.1-15.4c1.2-2,2.8-3.8,4.4-5.5c4.2-4.5,8.6-8.7,12.6-13.4c5-5.8,11.2-8.9,18.7-10.4c3.5-5.6,8.3-9.8,15.2-10.8
		c2.3-0.3,3.8-1.5,5.4-3.1c4.9-4.9,10.8-8.4,17.8-9.9c-6.8-7.4-16-10.3-24.6-15c-6.8,5.5-13.6,1.8-20.2-0.8
		c-4.9-1.9-9.5-4.4-14.2-6.7c-1.6-0.8-3.5-1.5-4.6-2.8c-4.1-5.1-9.6-8.2-15.1-11.3c-4.4-2.5-7.4-5.9-7.7-11.1
		c-0.5-6.9-4.3-12.1-8.5-17.2c-2-2.5-4-5.1-5.7-7.9c-2.1-3.2-2.1-6.6,0.1-9.7c2-3,4.1-6.1,6.8-8.4c3.9-3.3,8.7-2.3,12.9-0.6
		c3.3,1.3,6.6,3.3,9,5.9c3.1,3.5,8,5.6,9.3,10.8c0.1,0.6,1.6,0.8,2.3,1.3c4.9,3.9,9.7,7.9,14.7,11.7c1.4,1,3.1,1.9,4.8,2.1
		c6.4,0.7,11.7,3.5,16.2,8c0.7,0.7,2,1.5,2.7,1.3c9.2-2.1,17.5,1.3,25.8,4.2c0.1,0,0.3-0.1,0.9-0.2c-2.6-8.6-4.1-17.5-3.6-26.5
		c0.5-9.5,5.1-17.2,10.3-25.2c-1.9-2.6,1.1-4.8,1.6-7.4c1.4-7,5.4-12.6,9.8-17.9c0.7-0.8,1.4-2.3,2.2-2.3c3.9-0.3,4.4-3.6,5.9-6.1
		c4.9-8.6,11.7-15,20.8-19C629.8,54.5,630,54.1,630.7,53.1 M631.2,235.3c10.6,5.3,31.6,7.5,36.3,6.9c10.5-1.5,21-3.9,30.7-8.6
		c13.5-6.5,22.4-17.6,28.4-30.9c4.3-9.6,7.5-19.6,8.2-30.3c0.6-9.3,1.3-18.4-2-27.3c-2.2-6.1-3.6-12.6-7.8-17.8
		c-7.4-9.2-16.7-15.2-28.5-15.8c-14.4-0.8-28.2,0.7-37,14.4c-0.4,0.6-1,1.1-1.5,1.5c-8.8,6.9-17.4,14.1-28.8,16.7
		c-6.5,1.5-16.7,1.5-22.8,4.4c-4.4,2-9.1,4.6-12.8,7.8c-6.9,5.8-10.5,14-11.7,23.1c-1,7.6,0,14.8,2.6,22.3
		c2.8,8.1,7.7,13.9,16.4,18.6C609.5,225,625.9,233.6,631.2,235.3z M659.6,75.5c-3.7-3.4-7.1-6.1-9.9-9.4c-1.7-2-3.2-3.1-5.9-2.7
		c-2.5,11.8-6.5,22.5-19.8,25.6c0,7.5-2.7,14.1-5.2,20.7c-1.5,3.8-2.4,7.3-0.8,11.4c0.9,2.4,0.4,5.3,0.3,8
		c-0.1,4.1-0.4,8.2-0.6,12.8c4.5-1.4,8.4-2.6,12.3-3.8c8-2.4,14.9-6.8,20.4-12.8c3.8-4.3,7.2-8.9,12.5-11.7
		C659.3,100.8,655.2,88.4,659.6,75.5 M610,22.7c-23-8.2-47.3,0.1-59,18.6c2.8-0.1,5.3-0.2,7.8-0.2c13.3,0.1,26.7,1.4,40-0.2
		c2.6-0.3,3.6,1.5,2.5,3.7c-0.5,1-1.4,1.7-1.9,2.7c-1.7,4-5,7.6-3.3,13.1c3.7-6.6,8.9-11,15.1-14.4C605.7,40.2,605.3,30.5,610,22.7
		 M586.7,152.9c6.7-8.6,15.4-12.4,25.6-13.4c0.5-7.2,1.1-13.8-0.4-20.4c-0.6-2.4-1.7-4.8-2.9-7c-1.5-2.6-3.8-4.8-7-4.2
		c-4.5,0.9-8.8,2.7-11.3,6.8C583.6,126.4,582.2,138.9,586.7,152.9 M574.1,194.6c0-5.6-0.7-11,0.3-16.2c1-5.3,3.8-10.2,5.9-15.6
		c-9.9-3.6-19.7-5.5-29.7-0.3c-4.3,2.2-8.7,8.2-7.9,12.1c1.1,5.1,3.4,9.4,9.1,11.1c4,1.2,7.7,3.2,11.5,4.7
		C567,191.9,570.6,193.3,574.1,194.6 M688,100.3c-1.4-6-2.2-11.8-4-17.2c-1.6-4.7-4.3-9.1-6.9-13.3c-2.7-4.5-7.9-3.3-10.3,1
		c-4.3,7.9-4.9,16.2-3.8,24.7c0.5,4.2,1.1,8.5,3.4,12.4C675,101.8,677,101.2,688,100.3 M579.6,209.7c-4.9,2-9.6,3.7-13.4,7.3
		c-3.8,3.5-4.8,7-2.2,11.4c2,3.4,4.1,6.8,6.4,10c3.9,5.3,7.7,6.1,13.1,2.2c5.3-3.9,10.3-8.3,16.2-13.1c-5.5-1.1-9.5-2.6-12.2-6.4
		C585,217.5,582.5,213.8,579.6,209.7 M737.1,127.8c1.6,3.4,3.6,6.2,4.5,9.4c1.2,4.3,1.5,8.9,2.2,13.3c0.4,2.2,0.7,4.4,1.2,6.9
		c4.9-2.7,9.1-5,13.3-7.4c1.2-0.7,2.3-1.7,3.3-2.8c5.3-5.6,5.6-9.8,1.4-16.3c-0.7-1.1-1.2-2.3-1.8-3.4c-1.9-3.5-4.9-5.7-8.5-7.3
		c-2.1-0.9-3.9-0.8-5.6,0.4C743.7,122.9,740.4,125.4,737.1,127.8 M647.7,35.2c-5-4.7-11.2-7.8-18-10.1c-3.5-1.2-6.7-0.5-10,0.7
		c-2.6,1-4,2.9-4.2,5.7c-0.7,9.3,2.3,12.4,8.7,14.9c5.3,2,11,3.2,16,4.6C642.8,45.7,645.1,40.7,647.7,35.2 M536.8,185.7
		c-8.1-10.5-1.6-28.4,8.8-32.4c-1.3-0.8-2.5-1.8-3.8-2.1c-5-1.2-10.1-3.5-14.7,1.1c-0.9,0.9-2.2,1.2-3.2,2
		c-5.8,4.2-9.1,9.8-8.6,17.1c0.2,3.4,1.5,6.1,5.2,7.4C526.1,180.9,531.6,183.5,536.8,185.7 M702.4,102.6c11,0.7,19.5,4.2,25.2,13.1
		c2.4-2.4,4.8-4.6,7-6.9c3.2-3.5,3.9-7.8,1.4-12c-1.6-2.6-3.6-4.9-5.8-7.1c-4.3-4.3-11.3-4.8-15.7-0.6
		C710.4,93.1,706.8,97.6,702.4,102.6 M746.7,94.6c10.5-6.5,13.8-16.1,5.8-24.8c-0.7-0.8-1.2-1.8-2-2.6c-2.8-2.9-8.7-4.2-11.5-2.2
		c-4.2,3-8.2,6.3-10.2,11.4C737.5,79.9,744.3,85.1,746.7,94.6 M616.9,239.1c-3.5,3.3-6.2,7.7-7.4,13.2c-0.4,2-0.1,3.4,1.2,4.9
		c4,4.6,11.8,6.7,17,3.8c5.3-3.1,10.4-6.8,12.7-12.4C632.6,245.4,625,242.3,616.9,239.1 M692.8,31c-14.2-6.7-27.3-5.6-41,0.7
		c3.9,2.1,9,3.1,7.6,9c5.1,0.5,8.6,2.9,11.4,6.5c0.7,0.9,2,1.9,3,2c3.3,0.2,6.7,0.1,9.9,0c1.2-3.6-1.3-4.4-3-5.4
		c-0.9-0.5-2.4-0.2-3.1-0.8c-1.4-1.2-3.2-2.6-3.5-4.3c-0.5-2.3,2-2.6,3.7-3.1c3.6-1,7.4-1.7,11-2.7C689.7,32.7,690.7,32,692.8,31
		 M747.4,52.8c7.2,3.7,15.6,5.1,17.2,15.6c3.3-7.4,5.7-13.6,4.9-20.5c-0.7-5.6-1.9-11.1-7.9-13.6C752.9,37.3,751.7,45.8,747.4,52.8
		 M522.3,140.6c-1.4-1.2-2.5-2.8-4.1-3.3c-2.6-0.9-6.2-2.3-8-1.2c-4.1,2.5-7.5,6.1-10.8,9.7c-2.6,2.8-2.1,6.5-2.3,10.2
		c-0.3,6,2.6,8.9,7.5,11.2C505.4,154.8,514,148,522.3,140.6 M739.3,198.9c2.9-0.3,4.6-0.6,6.4-0.6c6.4,0,10.9-3.5,14.4-8.2
		c1.9-2.6,3.9-5.8,2.5-8.9c-6.2-4.7-11.9-2.9-17.6-0.3C743.2,186.7,741.4,192.4,739.3,198.9 M505.5,125.4c-2.8-2.6-4.9-5-7.3-6.7
		c-3.8-2.7-8.5-2.4-11.5,0.3c-4.7,4.2-6.4,9-3.9,13.4c1.9,3.3,4.6,6.2,7.5,10C492.3,133.5,497.6,128.9,505.5,125.4 M775,129.3
		c0.4,0.2,0.8,0.3,1.2,0.5c1.6-1.8,3.2-3.7,4.9-5.5c4-4.3,3.3-8.8,0.7-13.4c-0.6-1.1-1.5-2-2.3-3c-2.5-3-5.3-4.1-8.5-2.4
		c-3.4,1.8-6.4,4.3-9.1,7.9c2.6,2.1,4.7,4.4,7.3,5.9C773.1,121.5,775.5,124.4,775,129.3 M553.2,224c-8.2,3.6-10.6,8.5-8.2,16.2
		c1.4,4.6,4.7,8.1,8.3,11c1,0.8,3.3,0.9,4.5,0.3c2.6-1.3,4.9-3.3,7.8-5.4C556.7,240.9,554,233.1,553.2,224 M533.9,236.5
		c-4.8,0.8-7.2,4-9.1,7.4c-0.5,0.9-0.3,2.5,0.2,3.5c1.8,3.5,3.9,6.9,6,10.3c0.9,1.5,1.4,3.2,3.9,3.2c1.2,0,2.4,1.7,4,3
		c2.5-1.8,5-3.6,8.2-5.9C539.5,252.4,534.7,245.6,533.9,236.5 M793.4,111.3c4.5-3.9,7.1-9.2,8.3-15.1c0.3-1.3-0.1-3.4-0.9-4
		c-2.9-2.1-6.1-3.8-9.3-5.2c-0.7-0.3-2.4,0.8-3,1.6c-1.9,2.6-3.5,5.5-4.8,7.7C787,101.6,790.1,106.3,793.4,111.3 M671.3,56.4
		c-2-2.3-3.2-4.1-4.8-5.5c-2.1-1.9-4.3-4-6.9-5c-6-2.5-10.9,1.7-10,8.2c0.7,5,3.7,8.7,7.2,12.9C659.3,60,664.5,57.6,671.3,56.4
		 M615,104.7c1.1-5.3,2.4-9.5,2.8-13.7c0.4-3.8-1.5-6.3-4.5-7.2c-3.5-1-6.4-0.1-8.7,2.7c-1.2,1.5-2.6,3-3.7,4.7
		c-1.2,2-2.1,4.3-3.5,7.1C604.7,97.1,609.7,99.8,615,104.7 M662.4,277.9c-2.8,5.1-3,10.7-1.7,16.6c0.5,2.4,1.7,3.9,4.1,4.4
		c2.4,0.6,4.5-0.3,5.8-2.1c1.2-1.7,2.1-3.9,2.4-5.9c0.5-4.6,0.6-9.3,0.8-13.3C669.9,277.7,666.4,277.8,662.4,277.9 M630.3,80.4
		c5.3-5.5,7-11.9,7.3-18.7c-2.6-2.7-5.4-2.3-8.2-0.9c-5.2,2.6-9.1,6.6-12.9,11.1C628.8,76.5,626,75.6,630.3,80.4 M679.6,249.6
		c-5.3,0-10.3,3.2-16,1.3c-0.4,6.4-2.9,12.6,1,18.3C674.1,266.9,679.1,260.1,679.6,249.6 M607.2,286.1c3.3-4.6,6.5-9.1,10.2-14.3
		c-7.2-0.4-10.8-4.4-13.3-9.7c-3.5,2.6-3.8,6.1-4.5,9.5C598.2,279.2,599.3,281.7,607.2,286.1 M516.4,253.7c-4.1,2.5-6.9,5.3-8.2,8.1
		c-2.2,4.7,0.2,8.9,5.1,10.1c5.8,1.5,9.7-0.9,12.8-4.7c-2.1-1.8-4.6-3.3-6-5.4C518.5,259.6,517.7,256.8,516.4,253.7 M769.9,29.3
		c-0.1-9.7,0.7-18.1-6.3-25c-4.7,6.7-5.1,13.6-4.7,19.1C762.7,25.4,765.9,27.1,769.9,29.3 M731.4,214.5c-3.2,5-5.8,9.1-8.8,13.8
		c3.2,1.3,6.1,2.6,9.1,3.6c3,0.9,6.7-0.1,7.8-2c1.7-2.9,0.9-5.8-0.9-8.1C736.4,219.1,733.7,216.8,731.4,214.5 M749,233.6
		c-2.4,2.4-4.6,4.5-7.1,6.9c3.8,3.8,8.3,6.6,13.6,7.9c0.9,0.2,2.1-0.5,3.3-0.8C757.1,241.3,753,237.4,749,233.6 M594.3,290.4
		c-1.6,3.7-2,7.9-0.3,12.1c1.3,3,3,3.2,5.9,1.7c3.7-2,3.8-5.7,4.9-8.3C601.2,294,597.8,292.2,594.3,290.4 M804.9,80.8
		c0.6-3.1,1.4-6,1.7-9c0.1-1.1-0.7-2.8-1.7-3.5c-1.5-1.2-2.7,0.3-3.5,1.4c-1.9,2.7-3.6,5.6-5.4,8.5C799,79,801.5,79.8,804.9,80.8
		 M791.2,178.9c0,4.1,0,8.3,0.1,13.1c1.8-1.2,3.2-2.1,4.4-3c2.3-1.7,5-4,4.2-6.9c-0.9-3.3-4.4-3.8-7.6-3.5
		C792,178.6,791.9,178.7,791.2,178.9 M675.2,302.3c9.1,1.7,18.3-0.9,22.2-5.8C689.4,294.6,682.9,298.7,675.2,302.3 M774.5,178.4
		c0.5,5.5-4.9,9.1-2.6,14.7c3.8-1.2,7.9-2.5,8.5-7.1C780.9,182.3,778.1,180.2,774.5,178.4 M742.9,275.9c4.6-6.1,9.3-10.5,12.3-16.7
		C748.3,261.3,743.7,267.4,742.9,275.9 M643.5,59.5c2-1.5,1.7-3.3,0.3-3.7c-2.8-1-5.8-1.2-8.7-1.7c0,0.3-0.1,0.5-0.1,0.8
		C637.8,56.3,640.6,57.8,643.5,59.5 M807.4,178.3c-0.1,3.3-0.2,5.2-0.3,7.8c2-0.7,3.2-1.1,5.2-1.7
		C810.7,182.4,809.4,180.9,807.4,178.3 M596.3,310.7c0.9,2.4,1.6,4.4,2.2,6.4c0.4-0.1,0.8-0.1,1.2-0.2c0.1-2,0.2-4,0.3-6.2
		C598.7,310.7,597.9,310.7,596.3,310.7"/>
	<path d="M658,137.3c2.6,0.8,4.6,1.2,6.3,2.1c2.9,1.3,3.9,3.8,2.5,6.6c-0.4,1-1.6,2-2.6,2.2c-3.1,0.6-8.5-4.7-8.1-7.8
		C656.2,139.3,657.3,138.3,658,137.3"/>
	<path d="M631.6,150.5c6.6,0.2,8.8,2.5,7.5,7.2c-0.6,2.1-1.6,3.7-3.9,3.9c-2,0.2-4.7-2.2-4.6-4.5
		C630.5,154.9,631.2,152.7,631.6,150.5"/>
	<path class="st2" d="M213.9,31.3c0.1-0.4,0.1-0.8,0.2-1.2c-2.6-1.1-5.1-2.5-7.7-3.4c-7.1-2.2-14.4-1.1-21.6-0.2
		c-11.5,1.5-21.7,6.7-31.5,12.4c-5.6,3.3-11,7-14.6,12.7c-5.2,8.1-5.9,17.3-7.3,26.5c4.3,0.9,8.7,0.9,12.3,2.7
		c3.7,1.8,6.6,5.3,10.2,8.3c0.2-0.2,1.1-0.8,1.9-1.4c5.9-4.9,11.9-9.5,19.2-12.2c3.9-1.4,7.6-3.4,11.5-4.9c3.2-1.2,4.6-3.6,5.3-6.9
		c-11.1,5.1-14.8,5.9-28.7,6.1c1.6-5.6,4.8-10,7.8-14.2c3.3-4.7,7.6-8.9,12.1-12.4c4.3-3.4,9.3-6.4,14.4-8.3
		C202.4,32.8,208.3,32.4,213.9,31.3"/>
	<path class="st2" d="M262.3,228c2.6,0.4,4.7,0.9,6.8,0.9c6.7,0,13.5,0.1,20.1-0.6c9.1-1,18.2-2.9,25.9-8.4
		c6-4.2,10.7-9.5,14.6-15.8c4.2-6.8,7.3-13.6,7.6-22.5c-1.5,1.3-2.6,2.1-3.6,3.1c-4.1,4-8,8.4-12.4,12c-7.2,6-15,11-24.7,11.4
		c-4.4,0.2-9.1-0.3-13.2-1.9c-4-1.6-4.9-5-1.6-8.2c1.8-1.8,3.7-3.5,5.5-5.2c2.1-2,4.1-4.1,6.2-6.1c2.1-2,4.2-4,6.3-5.9
		c-0.3-0.3-0.5-0.6-0.8-0.9c-17.3,3.4-28.9,14.3-38.2,28.6C266,213.2,267.5,216,262.3,228"/>
	<path class="st2" d="M179.2,211.7c-10-6.9-17.3-15.2-23.9-24.5c-6.4-9.1-11.4-18.9-17-29.2c-2.1,1.1-4.6,2.2-7,3.7
		c-6.8,4.3-7.1,5.4-3.6,12.8c4.7,10.1,11.7,18.7,18.2,27.5c4.6,6.1,9.4,11.9,16.2,15.7c4.5,2.5,4.8,2.6,8.9-0.9
		c0.6-0.5,1.5-0.9,2.2-1.3C175,214.4,176.8,213.2,179.2,211.7"/>
	<path class="st2" d="M157.7,229.2c-10-6.6-16.2-16.1-22.6-25.5c-6.5-9.5-15-17.5-19.9-28.1c-5.7,1.7-6.6,7.3-9.6,11.3
		c2.6,4.6,5,9.8,8.3,14.2c8.2,10.7,16.9,21.2,25.6,31.6c1,1.2,3.1,2.3,4.6,2.2C149.2,234.5,153.8,232.7,157.7,229.2"/>
	<path class="st2" d="M138.1,148.2c0.2-6.8,1-13.9-0.4-21.1c-1.8-9.2-9.3-15-18.3-13.4c-2.8,0.5-5.3,1.7-6.2,4.6
		c-1,3.4-1.6,7-2.7,10.4c-1.9,5.6,0,10.7,2.1,15.7c1.7,4,3.6,7.8,5.2,11.3C124.2,153.3,130.7,150.9,138.1,148.2"/>
	<path class="st2" d="M176.7,221.1c8.7,3.3,16.2,6.5,23.9,8.9c3.1,1,7.1,1.6,9.9,0.6c4.8-1.8,7.6-6.2,9.7-10.9
		c2.6-5.9,0.3-10.1-5.8-11c-7.1-1.1-14.3-1.4-21.3-2C188.7,212.7,186.6,220.5,176.7,221.1"/>
	<path class="st2" d="M97.9,192.2c-2.4,3.2-5,6.1-7.1,9.5c-0.9,1.5-1.3,4.3-0.4,5.5c3.7,4.9,7.8,9.4,11.9,14
		c4,4.4,8.1,8.7,12.1,13.1c4.2,4.6,9.2,6.4,15.9,4.9c-6.3-7.6-12.7-14.4-18-22C107.1,209.4,102.9,201,97.9,192.2"/>
	<path class="st2" d="M27.2,221.2c12.9,6.7,25.3,13.1,38.1,19.8c1.4-6.4,0.9-12.6,6.1-16.8C54.4,217,43.1,216.2,27.2,221.2"/>
	<path class="st2" d="M139,111.4c4.3-3.4,6.7-7.6,8.7-12c1.1-2.4,0.4-4.3-1.4-5.8c-6.2-5-13-7.8-21-4.2c-1.1,0.5-2.2,1.4-2.7,2.4
		c-2.1,3.7-3.6,7.6-4.4,12.2C126.8,101.8,133.5,104.3,139,111.4"/>
	<path class="st2" d="M88.7,258.7c6.6,12.3,13,24.3,20,37.3c0.6-2.1,1.1-3.1,1.2-4.1c0.1-3.6-0.3-7.2-0.1-10.7
		c0.6-7.3-1.8-13.9-4.7-20.3c-1.1-2.5-3.3-4.5-4.8-6.4C95.9,256,92.2,257.3,88.7,258.7"/>
	<path class="st2" d="M230,212.2c0.7,5.6,0,10.7-3.8,15.1c4.1,0.2,7.6,0.5,11.1,0.6c3.8,0.1,7.6,0.2,11.3-0.2
		c4.4-0.4,7.3-4.1,7.2-8.6c0-2.7-3.1-5.7-6.7-6C242.9,212.6,236.6,212.5,230,212.2"/>
	<path class="st2" d="M83.6,213.8c-3.1,3.5-5.2,7.1-2.8,11.1c3,5.1,6.8,9.7,11.4,13.6c4.6,3.9,9.5,5.5,15.5,3.4
		C99.7,232.6,91.8,223.4,83.6,213.8"/>
	<path class="st2" d="M148.3,157.7c7.9,16.3,20.6,28.6,32.9,42.6C175.5,181.1,166.1,166.3,148.3,157.7"/>
	<path class="st2" d="M75.2,233.9c-0.7,3.3-1.3,5.8-1.7,8.5c-0.4,2.6,2.3,2.9,3.6,4.3c5.3,5.6,6.7,5.8,13.6,2.3
		C85.8,244.2,80.9,239.5,75.2,233.9"/>
	<path class="st2" d="M175.2,81.4c0-0.2,0-0.3,0-0.5c-2.1,1-4.3,2-6.4,3c0.2,0.3,0.3,0.6,0.5,0.9C171.2,83.6,173.2,82.5,175.2,81.4"
		/>
	<path d="M335.5,174.9c1,0.2,1.9,0.5,2.8,0.6c3.1,0.1,3.8,1.6,3.8,4.6c0.1,10.7-3.2,20.3-9,29.2c-5.4,8.4-12.3,15.1-21.3,19.5
		c-6.4,3.2-13.5,4.2-20.5,4.7c-7.9,0.6-15.8,0.2-23.8,0.1c-1.6,0-3.3-0.5-4.7-1.3c-3.2-1.8-5.9-3-9.3-0.1c-1.2,1.1-3.8,0.7-5.8,0.6
		c-6.9-0.1-13.8-0.4-20.6-0.5c-4.2-0.1-8.2,0.6-12.1,2.4c-4.6,2.1-9.2,1.5-13.8-0.1c-6.8-2.5-13.5-5.2-20.3-7.8
		c-2.4-0.9-4.8-1.7-7.2-2.6c-2.8-1-4.9-0.2-6.6,2.2c-5.9,8.3-14,13.1-23.9,15.6c-6.5,1.6-12.9,2.9-19.7,3.2
		c-6.5,0.3-13,2.3-19.7,3.6c0.4,1.1,0.4,1.7,0.8,2c7.6,8,9.4,18.1,10.2,28.5c0.5,6.5-0.1,13-1.8,19.3c-0.3,1.2-0.7,2.5-1.4,3.4
		c-1.7,2.2-3.7,2.3-5.3-0.1c-2.4-3.6-4.5-7.4-6.5-11.2c-3.5-6.7-7-13.5-10.3-20.3c-1.5-3.2-3.3-5.8-5.8-8.4
		c-3.4-3.6-5.9-8-10.4-10.5c-1.4-0.8-2.7-1.8-4.2-2.5c-11.1-5.8-22-11.7-33.2-17.2c-5.8-2.8-11.9-4.9-18.3-7.5
		c-0.8-2.4,0.4-4.2,2.9-5.7c7.6-4.7,15.9-6.9,24.8-6.4c4.3,0.2,8.8,0,13,1c5.7,1.4,11.2,3.9,17.3,6c0.9-5.5,5.3-9.7,8.4-14.7
		c2.5-3.9,4-8.4,7-12.1c1.4-1.7,2.7-3.4,4-5.1c2.6-3.6,5.4-7.1,7.3-11.3c2.4-5.2,6.6-9,12.4-11.9c-2-5.2-3.4-10.4-5.8-15.2
		c-3.5-6.8-4.4-13.6-2.6-21c1.5-6,2.7-12,6.5-17.1c0.7-0.9,0.5-2.4,0.7-3.7c1-6.3,2-12.6,5.4-18.1c0.6-0.9,1-2.3,1.8-2.7
		c4.2-2.1,4.6-6,5.5-9.9c1.6-7,3.1-14.1,5.3-21c3.1-9.8,9.9-16.6,18.8-21.6c9-5.1,18.1-9.8,28.3-12.2c8.8-2.1,17.6-2.6,26.4-1.7
		c5.3,0.6,10.5,2.8,13.8,7.8c0.5,0.8,1.8,1,2.5,1.8c0.7,0.8,1.6,2.1,1.5,3c-0.1,1-1.2,2.3-2.2,2.6c-4,1.1-8.1,2.2-12.2,2.6
		c-10.9,0.8-19.6,6.1-27.3,13.2c-3.6,3.2-6.5,7.1-9.8,10.7c0.2,0.3,0.4,0.6,0.6,1c5-1.7,10.1-3.3,15.1-5c0.5-0.2,1-0.8,1.4-0.7
		c4.6,0.7,7.3-2.3,9.9-5.1c3.4,1.2,2.5,3.6,2,5.5c-0.8,3.3-2.3,6.4-2.9,9.7c-0.4,2.5-1.7,3.9-3.4,5.7c-9.9,10.5-22,17.5-35.4,22.5
		c-1.4,0.5-2.7,1.2-4,1.6c-1.8,0.5-2.6,1.6-3.1,3.4c-1.6,5.3-4.4,9.9-8.5,13.7c-2.3,2.1-2.4,4.1-1.7,7.2c1.2,5.2,1.4,10.6,1.8,15.9
		c0.2,3.3,0,6.7-0.1,11.4c2-2.2,3.8-3.4,4.2-4.8c1.2-4.1,4.6-6.4,7.3-9.1c6.1-6.2,12-12.6,18.6-18.2c11.3-9.6,22.5-19.5,35.9-26.2
		c9.7-4.8,20.1-7.3,30.9-8c6.3-0.4,12.6-0.1,19-0.2c0.9,0,1.8-0.2,2.6-0.3c4.1-9.9,12.2-15.3,21.2-21.1c0.2,3.1-0.6,4.5-2.2,6
		c-4.1,3.5-7.9,7.4-11.7,11c0.9,1.5,1.6,2.7,2.5,4.1c12.2-2.6,24.4-5.7,34.5-15.1c0.8,1.8,1.5,3.2,2.1,4.5
		c-7,7.2-15.9,12.5-20.5,21.6c-1.5,3-2.4,6.2-4,10.2c6.2-2.9,11.3-5.2,16.6-7.7c1.5,2.6-0.3,3.4-1.8,4.4c-5.2,3.2-10.5,6.4-15.9,9.8
		c-0.3,9.1-2,17.9-6.3,26.1c-4.7,9-10.9,16.7-18.4,23.4c-7.2,6.3-14.4,12.8-22,18.5c-7.3,5.6-15.2,10.4-23,15.4
		c-4.6,3-9.5,5.7-15.4,9.2c6,0.8,10.7,1.3,15.3,2c2,0.3,4.2,0.3,5.7,1.3c3.3,2.3,6.7,2.6,10.6,2.5c6.2-0.2,12.4-0.3,18.5,0.3
		c6.2,0.7,10.1-2.3,13-6.8c5-7.8,11.5-13.9,18.9-19.2c7-5,15.1-7,23.5-7.7c1.6-0.1,3.4,0.1,4.7,0.8c1.9,1,2.1,4.6,0.4,6.3
		c-2.5,2.6-5.3,4.9-7.9,7.4c-4.3,4.1-8.5,8.3-13.2,12.9c6.5,2.3,12.2,0.9,17.7-1c7.9-2.8,14.1-8.1,20-13.8
		C328.2,183.1,331.6,179.1,335.5,174.9 M148.2,149.3c6.2,3.4,12.1,6.4,17.6,9.8c6.5,4.1,11.9,9.7,15.5,16.4
		c2.9,5.5,4.3,11.8,6.4,17.8c0.5,1.6,1,3.2,1.5,5.1c14.3-9.5,27.9-18.4,41.4-27.5c7.2-4.8,14.5-9.4,21.3-14.7
		c10.7-8.4,19.2-18.7,23.7-31.8c0.6-1.7,0.9-3.5,1-5.2c0.4-5.6,0.6-11.2,1.1-16.7c0.5-6,2.1-11.8,4.9-16.9
		c-7.5,0.5-14.5,1.5-21.5,1.3c-9.2-0.3-18.4-0.2-27.6,1.1c-11.8,1.8-22.7,5.3-31.9,13.2c-1.6,1.4-3.3,3.1-5.2,3.9
		c-6.1,2.3-10.8,6.5-15.4,10.7c-8.1,7.2-15.8,14.8-23.5,22.5C154.2,141.5,151.4,145.5,148.2,149.3 M213.9,31.3
		c0.1-0.4,0.1-0.8,0.2-1.2c-2.6-1.1-5.1-2.5-7.7-3.4c-7.1-2.2-14.4-1.1-21.6-0.2c-11.5,1.5-21.7,6.7-31.5,12.4
		c-5.6,3.3-11,7-14.6,12.7c-5.2,8.1-5.9,17.3-7.3,26.5c4.3,0.9,8.7,0.9,12.3,2.7c3.7,1.8,6.6,5.3,10.2,8.3c0.2-0.2,1.1-0.8,1.9-1.4
		c5.9-4.9,11.9-9.5,19.2-12.2c3.9-1.4,7.6-3.4,11.5-4.9c3.2-1.2,4.6-3.6,5.3-6.9c-11.1,5.1-14.8,5.9-28.7,6.1
		c1.6-5.6,4.8-10,7.8-14.2c3.3-4.7,7.6-8.9,12.1-12.4c4.3-3.4,9.3-6.4,14.4-8.3C202.4,32.8,208.3,32.4,213.9,31.3 M262.3,228
		c2.6,0.4,4.7,0.9,6.8,0.9c6.7,0,13.5,0.1,20.1-0.6c9.1-1,18.2-2.9,25.9-8.4c6-4.2,10.7-9.5,14.6-15.8c4.2-6.8,7.3-13.6,7.6-22.5
		c-1.5,1.3-2.6,2.1-3.6,3.1c-4.1,4-8,8.4-12.4,12c-7.2,6-15,11-24.7,11.4c-4.4,0.2-9.1-0.3-13.2-1.9c-4-1.6-4.9-5-1.6-8.2
		c1.8-1.8,3.7-3.5,5.5-5.2c2.1-2,4.1-4.1,6.2-6.1c2.1-2,4.2-4,6.3-5.9c-0.3-0.3-0.5-0.6-0.8-0.9c-17.3,3.4-28.9,14.3-38.2,28.6
		C266,213.2,267.5,216,262.3,228 M179.2,211.7c-10-6.9-17.3-15.2-23.9-24.5c-6.4-9.1-11.4-18.9-17-29.2c-2.1,1.1-4.6,2.2-7,3.7
		c-6.8,4.3-7.1,5.4-3.6,12.8c4.7,10.1,11.7,18.7,18.2,27.5c4.6,6.1,9.4,11.9,16.2,15.7c4.5,2.5,4.8,2.6,8.9-0.9
		c0.6-0.5,1.5-0.9,2.2-1.3C175,214.4,176.8,213.2,179.2,211.7 M157.7,229.2c-10-6.6-16.2-16.1-22.6-25.5c-6.5-9.5-15-17.5-19.9-28.1
		c-5.7,1.7-6.6,7.3-9.6,11.3c2.6,4.6,5,9.8,8.3,14.2c8.2,10.7,16.9,21.2,25.6,31.6c1,1.2,3.1,2.3,4.6,2.2
		C149.2,234.5,153.8,232.7,157.7,229.2 M138.1,148.2c0.2-6.8,1-13.9-0.4-21.1c-1.8-9.2-9.3-15-18.3-13.4c-2.8,0.5-5.3,1.7-6.2,4.6
		c-1,3.4-1.6,7-2.7,10.4c-1.9,5.6,0,10.7,2.1,15.7c1.7,3.9,3.6,7.8,5.2,11.3C124.2,153.3,130.7,150.9,138.1,148.2 M176.7,221.1
		c8.7,3.3,16.2,6.5,23.9,8.9c3.1,1,7,1.6,9.9,0.6c4.8-1.8,7.6-6.2,9.7-10.9c2.6-5.9,0.3-10.1-5.8-11c-7.1-1.1-14.3-1.4-21.3-2
		C188.7,212.7,186.6,220.5,176.7,221.1 M97.9,192.2c-2.4,3.2-5,6.1-7.1,9.5c-0.9,1.5-1.3,4.3-0.4,5.5c3.7,4.9,7.8,9.4,11.9,14
		c4,4.4,8.1,8.7,12.1,13.1c4.2,4.6,9.2,6.4,15.9,4.9c-6.3-7.6-12.7-14.4-18-22C107.1,209.4,102.9,201,97.9,192.2 M27.2,221.2
		c12.9,6.7,25.3,13.1,38.1,19.8c1.4-6.4,0.9-12.6,6.1-16.8C54.4,217,43.1,216.2,27.2,221.2 M139,111.4c4.3-3.4,6.7-7.6,8.7-12
		c1.1-2.4,0.4-4.3-1.4-5.8c-6.2-5-13-7.8-21-4.2c-1.1,0.5-2.2,1.4-2.7,2.4c-2.1,3.7-3.6,7.6-4.4,12.2
		C126.8,101.8,133.5,104.3,139,111.4 M88.7,258.7c6.6,12.3,13,24.3,20,37.3c0.6-2.2,1.1-3.1,1.2-4.1c0.1-3.6-0.3-7.2-0.1-10.7
		c0.6-7.3-1.8-13.9-4.7-20.3c-1.1-2.5-3.3-4.5-4.8-6.4C95.9,256,92.2,257.3,88.7,258.7 M230,212.2c0.7,5.6,0,10.7-3.8,15.1
		c4.1,0.2,7.6,0.5,11.1,0.6c3.8,0.1,7.6,0.2,11.3-0.2c4.4-0.4,7.3-4.1,7.2-8.6c0-2.7-3.1-5.7-6.7-6
		C242.9,212.6,236.6,212.5,230,212.2 M83.6,213.8c-3.1,3.5-5.2,7.1-2.8,11.1c3,5.1,6.8,9.7,11.4,13.6c4.6,3.9,9.5,5.5,15.5,3.4
		C99.7,232.6,91.8,223.4,83.6,213.8 M148.3,157.7c7.9,16.3,20.6,28.6,32.9,42.6C175.5,181.1,166.1,166.3,148.3,157.7 M75.2,233.9
		c-0.7,3.3-1.3,5.8-1.7,8.5c-0.4,2.6,2.3,2.9,3.6,4.3c5.3,5.6,6.7,5.8,13.6,2.3C85.8,244.2,80.9,239.5,75.2,233.9 M175.2,81.4
		c0-0.2,0-0.3,0-0.5c-2.1,1-4.3,2-6.4,3c0.2,0.3,0.3,0.6,0.5,0.9C171.2,83.6,173.2,82.5,175.2,81.4"/>
	<path d="M245.3,151.7c-2-5.3-0.2-8.6,3.6-11.2c1.8-1.2,3.5-2.5,5.2-3.7c1.6-1.1,5.7-0.5,6.9,1.1c1,1.3,1,2.4-0.1,3.9
		c-3.1,3.8-6.6,7.1-10.9,9.4C248.7,151.7,246.8,151.5,245.3,151.7"/>
	<path d="M222,107c-2.7,0.5-4.6,1.1-6.6,1.3c-2.7,0.3-4.4-1.5-3.3-3.9c1.1-2.2,2.6-4.5,4.6-5.8c2.4-1.5,5.4-2,8.2-2.6
		c2.5-0.5,4.5,2.5,2.9,4.7C226.2,103.3,223.8,105.3,222,107"/>
	<path d="M444.9,280.6c7.2,0.1,11.6,3.8,15.5,7.7c3.9,3.8,7,8.3,10.4,12.5c9.2,11.4,15,24.3,16.5,38.9c0.2,2.3-0.1,4.7-0.1,7.2
		c5.9,4.5,12,8.9,17.9,13.7c9.1,7.3,17.3,15.5,23.9,25.2c5.1,7.5,9,15.8,12,24.3c2.3,6.5,4.2,13.1,6.3,19.7c0.4,1.1,1,2.3,1.8,3.1
		c4.9,4.7,5.4,6.7,2.4,12.6c0.2,0.3,0.4,0.6,0.6,0.9c4.2,6.7,3.4,9.1-3.9,11.4c-2.4,0.8-3.9,2.2-5.3,4.1c-12,16-27.3,26.8-47.3,30.3
		c-5.9,1-11.8,2.2-17.7,2.6c-7.9,0.5-15.9,0.3-23.9,0.2c-3.9,0-7.9-0.5-11.8-0.7c-8.9,13.2-22.6,16.7-37,18.3
		c-8.5,0.9-17,0.9-25.5-0.1c-5.7-0.7-6.5-6.2-3.9-9.6c0.5-0.7,1.2-1.4,1.8-2c2-2.1,3.9-4.3,6.1-6.2c4.5-3.9,7.3-9,10-14.1
		c2.6-4.9,2.3-6-2.2-8.8c-11.9-7.6-21.5-17.7-30.9-28.1c-6.5-7.2-12.5-14.9-19-22.8c-0.6,0.8-1.4,1.4-1.7,2.3
		c-3.9,8.7-10.7,14.5-19.2,18.4c-2.3,1-4.8,1.8-7.3,2c-6.1,0.5-11.5,4.3-18,3.2c-3.3-0.6-6.2-1.6-9-4.6c2.3-0.8,4-1.4,5-1.7
		c1.8-3.7,3.1-7.1,4.9-10.1c5-8.2,7.3-17.4,9.2-26.6c2.3-11.7,2.1-23.4-1-35c-2.4-8.9-7.1-16.2-14.5-21.8c-0.6-0.4-1.5-0.7-1.7-1.3
		c-0.6-1.2-1.4-2.9-1-3.9c0.3-0.9,2.3-1.5,3.5-1.5c12.1,0.2,21,7.2,29.6,14.4c6.5,5.4,11,12.4,14.5,20.5c4.4-3.8,8.8-7.3,12.8-11.1
		c8.7-8.3,19-13.9,30-18.4c14.9-6.1,30.5-9.3,46.4-10.9c4.8-0.5,8.5-2.4,11.9-5.5c8.8-8.3,12.3-18.5,11.2-30.4
		c-0.3-3.6-1.3-7.1-1.8-10.7C445.2,285.9,445.1,283.6,444.9,280.6 M542.6,431.5c-1.8-6.1-3-11-4.6-15.8c-3.7-11-8.3-21.6-15.5-31
		c-5.8-7.5-12.6-14-19.8-20c-5.7-4.7-11.6-9.5-18-13c-7.3-3.9-15.2-6.8-23.2-9.2c-9.5-2.9-19.4-4.3-29.4-3.8
		c-14.9,0.7-29.5,3.6-43.7,8.1c-14.1,4.6-27.4,10.7-38.2,21.2c-4.4,4.3-9.1,8.4-13.6,12.5c-2.1,1.9-3.3,1.7-4.7-0.6
		c-0.4-0.6-0.5-1.3-0.8-2c-2-3.6-3.8-7.4-5.9-10.9c-5-7.9-12.8-12.7-20.2-17.8c-1.7-1.2-3.6-2.7-6.3-2c2.7,4.2,5.9,7.9,7.6,12.2
		c2.6,6.3,4.5,12.8,5.1,19.9c1.2,14.7-0.8,28.9-5.7,42.7c-1.8,5.1-3.3,10.4-6.9,14.7c-0.4,0.5-0.3,1.3-0.7,2.6
		c9.1-2,16.6-5.9,23.6-11.2c7.1-5.5,11.7-13,16.9-21.1c1.4,1.8,2.2,2.9,2.9,4c1.5,2.3,2.7,4.8,4.3,6.9c8.1,10.9,16.7,21.4,26.5,30.8
		c6.4,6.2,13.1,12,20.3,17.2c7.2,5.1,15.1,9.3,22.8,13.7c9.6,5.4,19.8,9.1,30.9,9.7c11,0.6,22,0.9,33.1,0.1
		c22.3-1.6,41.3-10,56.7-26.3c1.3-1.4,2.2-3.1,3.4-5c-1.4-0.3-2.1-0.5-2.8-0.6c-10.9-1.9-21.7-3.9-32.6-5.8
		c-5.6-1-10.1-3.9-13.6-8.4c-2.2-2.9-2.9-6.6-1.3-9.7c1.2-2.4,4-4.1,7-4.1c4.5,0.1,9,0.7,13.5,0.8
		C520.4,430.7,531,431.1,542.6,431.5 M476.9,342c2.5-10.4-9.6-40.9-26.6-52.5c3.4,16.3,2.3,31.6-10.9,44c6.5,1.2,12.7,2.2,18.8,3.6
		C464.5,338.5,470.7,340.4,476.9,342 M381.3,504.6c13.6,6.4,44.3-1.8,49.6-13.3c-11.7-1.9-20.8-9.4-31.1-14.2
		C396.3,488.3,389.9,496.9,381.3,504.6 M548.9,451.4c-2-2.7-4.3-4.3-7.8-4.1c-2.5,0.1-5-0.4-7.5-0.7c-4.8-0.6-9.6-1.4-14.4-2
		c-5.9-0.8-11.8-1.5-17.7-2.2c-1.3-0.2-2.5-0.3-3.8-0.4c-0.1,0.4-0.1,0.9-0.2,1.3c12.8,6.8,27.4,6.5,41.2,9.5
		C541.8,453.4,545.6,453.8,548.9,451.4 M495.6,434.7c-0.1,0.3-0.2,0.7-0.3,1c0.5,0.2,0.9,0.6,1.4,0.7c10.5,1.5,21.1,3,31.6,4.5
		c3.6,0.5,7.1,1.3,10.7,1.6c3.5,0.3,7.2,0.6,9.7-3.1c-2.6-2.4-5.4-3-8.6-2.9c-7.5,0.2-15.1,0.4-22.6,0.1
		C510.2,436.2,502.9,435.3,495.6,434.7"/>
	<path d="M415.9,387.3c5,1.8,9.1,2.9,13,4.7c4.9,2.2,9.8,4.5,14.4,7.3c4.2,2.5,7.4,6.9,7.6,11.3c0.4,6.2-1.6,12.3-6.8,17
		c-8.8,8-19.6,10.6-30.8,12c-7.4,0.9-14.8,0-21.9-2.6c-9.3-3.4-13.1-14.8-7.7-22.8c0.7-1.1,2.3-1.8,3.6-2.2c2.8-0.8,5.6-1.4,8.4-2
		c7.8-1.7,13.3-6.3,17.2-13.1c0.9-1.5,1.2-3.4,1.7-5.1C415.1,390.3,415.5,388.8,415.9,387.3 M386.9,417.7c0.4,4.5,1.3,8.3,5.7,9.9
		c1.2,0.4,3-0.3,4.1,0.3c5.1,2.8,10.5,2.5,15.8,1.8c9.4-1.4,18.5-3.8,24.8-11.8c1.2-1.5,3-2.6,4.6-3.8c3.8-3,3.9-5.3,0.5-8.8
		c-6.4-6.4-14.7-8.6-22.9-11c-0.4,0.5-0.6,0.8-0.8,1.1c-0.3,0.5-0.5,0.9-0.7,1.5c-4.2,11.2-12.2,17.5-24.1,18.9
		C391.5,416,389.3,417,386.9,417.7"/>
	<path d="M512.1,407.1c-0.9,1.9-1.4,3.7-2.4,5.1c-1.8,2.8-5.3,2.5-6.8-0.6c-1.2-2.5,0.1-8.8,2.3-10.5c1.7-1.4,4.5-1.1,5.6,1
		C511.6,403.6,511.7,405.4,512.1,407.1"/>
	<path d="M95.7,407.4c1.1-7.1,1.8-13,3-18.8c2.3-11.6,7.2-21.9,16-30.2c8.4-7.9,18.4-11.8,29.7-12.6c1.8-0.1,3.7,0,5.4,0.5
		c11.3,3,21.1,8.6,28.2,18.2c2.3,3.2,4,6.9,5.3,10.7c6.7,19.8,5.3,39.4-3.4,58.2c-2.7,5.8-6.8,11.2-10.8,16.2
		c-7.4,9.1-14.6,18.5-23.8,25.9c-12.4,10-24.6,20.3-37.2,30c-5.8,4.5-12.5,7.8-18.7,11.9c-2.5,1.7-4.3,0.9-6.4-0.5
		c-2.7-1.8-5.3-4.1-8.3-5.1c-9.9-3.4-16.6-11.2-24.5-17.3c-8.1-6.1-15.7-12.8-22.7-20.3c-5.4-5.9-10.6-11.8-15-18.6
		c-10.7-16.6-14.7-34.4-10.8-54c2-10,4.6-19.8,9.8-28.7c3.8-6.3,8.6-11.8,14.6-16c8.6-5.9,17.8-7.2,28.3-3.9
		c14.5,4.7,23.1,14.9,29.7,27.7c3.2,6.3,6.3,12.6,9.4,19C94.1,402,94.6,404.2,95.7,407.4 M98.6,498.2c6.9-5.9,13.3-11.1,19.5-16.6
		c8.5-7.6,16.7-15.7,23.3-25c7.9-11.1,14.2-23.3,17.7-36.6c2.7-10.3,1.8-20.3-5.8-28.5c-6.9-7.5-15.7-10.7-25.2-2.2
		c-7.1,6.2-11.7,14.1-15,22.8c-5.7,15.1-6.8,31-8.4,46.9c-1,10.8-1.2,21.7-4.3,32.2C99.7,493.3,99.2,495.5,98.6,498.2 M84.7,511.9
		c0.1-0.1,0.5-0.2,0.7-0.5c2.8-4.6,3.6-9.8,3.8-15c0.5-10.5,0.7-21,1.2-31.5c0.5-11.5-0.9-22.8-3.9-33.9c-1.7-6.3-4.2-12.3-6.2-18.5
		c-2.4-7.1-6.1-13.6-10.8-19.4c-3.2-4-7.4-7-12.6-8.1c-10.3-2.2-18.6,1.6-25.1,9.2c-11.9,14-14.1,33.7-4.9,50.3
		c2.4,4.3,4.5,8.7,7.2,12.7c4.1,6.2,8.1,12.6,13.1,18c7,7.6,14.9,14.3,22.3,21.4C74.5,501.7,79.4,506.7,84.7,511.9"/>
	<path d="M32.5,438.8c-1.2-5.2-3.9-10.4-1.7-15.9c0.8-1.9,2-3.8,3.5-5.2c4.5-4.1,9.9-6.6,15.5-8.8c6-2.3,11.3-1,16.3,2.8
		c1.4,1.1,2.7,2.6,4.4,3.2c10.4,3.7,13.2,12.5,15,22c1.1,6,2.3,12.1,2.4,18.2c0.2,8.4,0.9,17-2.7,25.1c-0.3,0.6-0.4,1.4-0.8,2
		c-2,2.8-12.1,5.3-15.1,3.5c-3.1-1.9-6.1-4-8.6-6.5c-4.2-4-7.9-8.4-12-12.5c-1.9-1.9-4.2-3.4-6.2-5.3c-4.2-4-5.2-9.8-7.6-14.8
		C33.6,444.2,33.2,441.4,32.5,438.8 M75.3,437.1c-0.1,0-0.3,0-0.4,0c-1.4-3.7-2.6-7.5-4.2-11.2c-0.7-1.6-1.8-3.2-3.1-4.3
		c-3.2-2.6-6.8-4.7-10.1-7.2c-1.9-1.5-3.8-2-6-0.9c-2.7,1.4-5.4,2.8-8.2,4.2c-7.5,3.7-8.7,6.4-7,14.5c1.7,8.1,4.8,15.6,8.5,22.8
		c1.3,2.6,3.6,4.9,5.7,7.1c2.7,2.7,5.5,5.2,8.5,7.7c2.9,2.4,5.9,4.8,9,6.9c2.6,1.8,5.3,1.6,8.1,0c2.9-1.6,3.5-4,3.2-6.9
		c-0.4-5.8-0.8-11.6-1.5-17.3C77.2,447.4,76.1,442.3,75.3,437.1"/>
	<path d="M54.9,439.4c1,3.2,0.2,5.9-1.9,6.5c-2.5,0.7-5.4-1-6.3-3.8c-1.1-3.2-0.1-5.9,2.4-6.7C51.8,434.6,53.9,436,54.9,439.4"/>
	<path d="M711,465.1c-6.9,1.5-13.8,2.9-20.8,4.1c-14.1,2.5-27.5,2-40-6.7c-9-6.3-13.6-14.4-14.1-24.8c-0.4-7.2,1-14.5,3.8-21.3
		c3.9-9.6,10-17.5,16.8-25.2c13.2-15,29.7-22.7,49.4-24.2c8-0.6,15.9-0.1,23.8,0.6c10.2,0.9,20.1,3,29.9,5.7
		c9.6,2.6,19.9,3.2,28.6,9c2.7,1.7,6,2.4,9.1,3.5c2.4,0.8,4.1,1.8,4.3,4.8c0.5,7.4,1.9,14.7,1.9,22.1c0,15.9-0.8,31.8-1.2,47.7
		c-0.3,11.9-3.4,23.3-6.1,34.7c-1.5,6.3-3.3,12.8-6.3,18.5c-9.7,18.4-24.3,31.4-44.1,38.1c-3.7,1.3-7.8,2.2-11.7,2.3
		c-11.9,0.2-22.3-4.2-31.6-11.3c-1.4-1.1-2.7-2.5-3.7-4c-6.3-9.5-9.3-19.8-8.1-31.2c1.2-12,6.4-22.1,14.2-31
		c3.9-4.5,8.2-8.6,13.1-13.8C715.3,463.6,713.2,464.6,711,465.1 M787.7,415.3c-6.4,8.9-15,15.6-22.9,23
		c-11.7,10.8-23.6,21.5-32.1,35.1c-4.9,7.9-8.3,16.4-9,25.8c-0.9,12.7,7,17.8,17.1,18.7c11.2,1,19.7-4.3,26.2-12.7
		c8.4-10.9,14.3-23.3,18.3-36.3c3.4-10.9,4.7-22.3,5.6-33.7c0.7-8.2,0.9-16.5,1.4-25.6C790.5,411.8,789,413.5,787.7,415.3
		 M773.4,387.3c-10.2-1.5-20.3-3.7-30.6-4.7c-7.3-0.7-14.8,0.1-22.2,0.6c-4.9,0.3-9.7,1.3-14.5,2c-18.7,2.8-33,16.5-36.9,34.5
		c-2.1,9.8-0.1,18.7,7.9,25.6c4,3.4,8.9,4.9,14.1,5.1c7.5,0.2,14.8-0.8,21.9-3.2c6.2-2.1,12.5-3.8,18.5-6.3
		c10.6-4.4,20.4-10.1,29.2-17.5c8-6.8,16.3-13.3,24.3-20.1c4-3.4,7.7-7.1,9.6-12.2c0.1-0.3,0-0.7,0-0.8
		C787.3,389.3,780.3,388.4,773.4,387.3"/>
	<path d="M712.5,390.3c5.4-1.2,10.6-3.8,16.4-3c2.7,0.4,5.3,1.3,7.9,1.7c5.7,0.7,11.5,1,17.2,1.9c3.5,0.6,7,1.6,10.4,2.9
		c3.3,1.3,7.4,10.8,6.4,14.1c-0.2,0.7-0.8,1.2-1.1,1.8c-4.2,7.8-11.5,12.4-18.2,17.4c-4.9,3.6-10.5,6.4-15.9,9.2
		c-8.6,4.4-17.3,7.5-26.5,1.5c-1.4-0.9-3.4-1-5.2-1.5c-6-1.6-10.3-5.1-12.1-11.2c-1.7-5.8-3-11.6-2.4-17.6c0.2-2,0.9-4.2,2-5.9
		c3-5.1,8.8-6.1,13.6-8.3C707.5,392.3,709.9,390.9,712.5,390.3 M743.4,420.9c5-2.9,9.8-6.2,14.6-9.4c2.4-1.6,4-3.5,3.5-6.8
		c-0.5-3.2-2-5.5-5-6.5c-3.6-1.2-7.3-2.1-11-3c-3.7-0.8-7.5-1.6-11.2-2.1c-3-0.4-6.2-0.8-9.1-0.2c-8,1.5-15.9,3.6-23.3,7.2
		c-7.5,3.6-8.9,6.2-7.3,14.4c0.6,3,1.1,6,1.7,9c0.5,2.4,2.1,3.6,4.4,4.2c4,1.1,7.9,2.7,11.9,3.7c1.7,0.4,3.6,0.3,5.3-0.2
		c3.8-1,7.6-2.3,11.4-3.5c0.1,0.1,0.1,0.2,0.2,0.3C734.2,425.8,738.9,423.5,743.4,420.9"/>
	<path d="M719,410.7c3.1-1.2,4.8-3.4,4-5.5c-1-2.5-4-3.7-6.9-2.7c-3.2,1.1-4.8,3.5-3.8,6C713.3,411.2,715.6,412,719,410.7"/>
</g>
</svg>
