<?xml version="1.0" encoding="utf-8"?>
<!-- Generator: Adobe Illustrator 19.1.0, SVG Export Plug-In . SVG Version: 6.00 Build 0)  -->
<svg version="1.1" id="Calque_1" xmlns="http://www.w3.org/2000/svg" xmlns:xlink="http://www.w3.org/1999/xlink" x="0px" y="0px"
	 viewBox="0 0 237.9 379.6" style="enable-background:new 0 0 237.9 379.6;" xml:space="preserve">
<style type="text/css">
	.st0{fill:#72B52B;}
	.st1{fill:#71519B;}
	.st2{fill:#C0BFBF;}
	.st3{fill:#EDE5F2;}
	.st4{fill:none;stroke:#72B52B;stroke-width:4;stroke-linecap:round;stroke-miterlimit:10;}
	.st5{fill:none;stroke:#71519B;stroke-width:4;stroke-linecap:round;stroke-miterlimit:10;}
	.st6{fill:#6EA1C1;}
	.st7{fill:#BFBEBE;}
	.st8{fill:#55358A;}
	.st9{fill:#FFFFFF;}
	.st10{fill:#FFFFFF;stroke:#71519B;stroke-width:3;stroke-miterlimit:10;}
	.st11{fill:#FFFFFF;stroke:#72B52B;stroke-width:3;stroke-miterlimit:10;}
	.st12{fill:none;stroke:#FFFFFF;stroke-width:3;stroke-miterlimit:10;}
	.st13{fill:#F2BF00;}
</style>
<g>
	<g>
		<path d="M135.3,147.6c4.7,0.2,19.4,3.6,25.7,5.2c14.9,3.4,18.3,16.2,19.3,19.6c2.4,8.4,1.5,16.8-1.2,25c-0.6,2-1.3,4-2.1,6.3
			c12.4,4.8,21.4,13,26.8,24.9c5.5,12.1,3.3,24.3-0.9,36.5c3.9,0.2,7.4-0.1,10.6,0.8c5.7,1.5,11.5,3.4,15.7,7.9
			c3.8,4.1,5.6,9.5,6.7,14.8c3.1,14.8,2,29.7-0.3,44.5c-0.7,4.2-1.9,8.5-3.9,12.3c-1.4,2.6-4.3,4.5-6.7,6.5
			c-10.5,8.5-23.2,12-35.7,15.9c-14.3,4.5-28.9,7.3-43.8,8.4c-7.8,0.6-15.4,2-23.2,2.7c-5.3,0.5-10.6,0.8-15.9,0.8
			c-9.1,0-18.2-1.3-27.1-3.2c-3.7-0.8-7.5-1.4-11.2-2.1c-8.8-1.6-17.5-3.7-26.4-4.7c-11.6-1.3-21.9-6.2-32.7-9.6
			c-2.5-0.8-3.9-3.1-4.3-5.7c-1.3-7.7-2.7-15.3-3.7-23c-1.3-10.2-1.4-20.6-0.3-30.8c0.5-4.4,2-8.8,3.9-12.8
			c3.6-7.9,10.9-11.3,18.6-13.8c4.2-1.4,8.6-2.5,12.7-3.6c-0.6-5.9-0.8-11.7-1.8-17.3c-1.5-8.1,0.9-15.8,1.8-23.7
			c0-0.2,0.1-0.3,0.1-0.5c-0.1-11.5,8.3-16.1,16.8-20.7c1.7-0.9,3.6-1.6,5.7-2.6c-0.4-4-0.8-7.9-1.2-11.8c-0.9-10,0.8-19.4,5.8-28.4
			c2.8-4.9,6.9-8,11.6-10.5c9.2-5,19.2-7.2,29.7-6.9c3,0.1,5.9,0,9.6,0c0.1-23.9,3-47.3,1.4-71.3c2.3-0.7,4.9-1.4,7.8-2.2
			c0-1.7,0-3.5,0-5.6c-0.8-0.4-1.7-1.2-2.8-1.4c-5.1-1.2-7.2-5.6-9.8-9.3c-1.7-2.5-1.7-5.7-0.8-8.7c2-6,4.2-11.9,6.1-17.9
			c0.9-2.8,1.6-5.7,2.1-8.7c0.6-3.7,7.3-5.7,7.4-2.2c0.1,7.4,1.7,17.7,4.6,23.4c3,6,3.8,11.7,0.1,17.9c-2.1,3.6-3.9,7.7-2.2,12.4
			c2.2,0.5,4.7,1.2,7.5,1.9C134.2,100.1,134.4,123.8,135.3,147.6z M68.5,186c6.7,0.8,10.2,5.6,13.1,10.8c1.6,0,3,0,4.8,0
			c0-1.5-0.1-2.8,0-4.1c0.4-3.2,3.2-6.4,5.7-6.9c4.2-0.8,9.4,2,11,6c0.6,1.5,1,3.1,1.5,4.6c2.2,0,4.3,0,6.4,0c0.4-1.9,0.5-3.5,1-5.1
			c1.1-3.8,4.2-5.5,7.8-6.1c3.5-0.6,6.2,0.9,7.7,4.1c1.3,2.7,2.3,5.4,3.5,8.4c2.2,0,4.5,0,7,0c0.4-6.2,1.9-11.4,9.2-12.4
			c3.6,2,5.9,5.2,7.4,9.3c0.7,2,1.2,4.7,4.2,4.1c1.7-2.8,2.8-5.7,4.8-7.7c2.1-2.1,4.8-4.1,8.2-1.9c1.5-7.1,1.4-13.8-0.5-20.5
			c-0.9-3.2-2.7-5.4-5.7-7.1c-9.7-5.6-20.4-8.2-31.2-9c-11-0.8-22.2,0.4-33.3,0.2c-7.5-0.1-14.5,1.7-21.2,4.7
			c-7.5,3.4-13.5,8.3-16.1,16.5c-1.9,6.1-2.9,12.3-2.4,18.6c0.2,2.7,0.7,5.3,1.2,8.9c0.9-1.3,1.4-1.6,1.4-2
			c-0.6-5.3,0.4-10.1,4.6-13.8L68.5,186z M154,366.1c2.9-0.6,5.6-1.2,8.6-1.9c-0.3-1-0.6-1.8-0.8-2.6c-0.4-2.1-1-4.2-1-6.3
			c0.1-5.5,4.5-7.2,8.6-9.1c2.4-1.1,4.4-0.7,6.3,1.1c3.6,3.3,6.3,7.2,7.9,12.1c2.9-1.1,5.6-2.2,8.7-3.3c-0.8-6.4-0.5-12.5,6.7-14.8
			c2.3-0.7,5.3-1.3,7.3-0.4c2.5,1.1,4.3,3.7,6.7,6.1c1.9-0.7,4.2-1.6,6.5-2.5c0.5-3.1,0.8-6.1,1.4-9c0.4-1.9,0.7-4.2,1.8-5.6
			c0.9-1.1,3.2-1.2,5-1.8c0.5-3.6,0.9-7.2,1.7-10.7c0.7-3.2,1.1-6.2-0.5-8.1c0.8-2.6,1.9-4.5,1.9-6.4c-0.1-5.9-0.2-12-1.2-17.8
			c-1.4-8-5.9-11.3-14.3-11.4c-4.3,0-8.6,0.4-12.8,0.7c-4.2,0.3-8.2,1.7-12.6,0.7c-2.9-0.6-5.9-1-8.8-0.7
			c-16.3,1.6-32.5,3.6-48.9,5.1c-12.4,1.1-24.8,1.8-37.2,2.1c-10,0.3-20.1,0.1-30.1-1.5c-7.8-1.2-15.8-1.7-23.7-2.3
			c-8.2-0.6-16.2,0.3-23.8,4.1c-4.6,2.4-8.2,5.5-10,10.5c-1.3,3.6-2,7.3-2.4,11.1c-1.5,14.5-0.2,28.8,2.8,43
			c0.8,3.8,0.9,3.8,5.5,4.1c0.6-1.6,1.2-3.4,1.9-5c1.5-3.4,3.9-5.6,7.8-6.1c4-0.4,6.9,1.2,8.7,4.5c1.5,2.7,2.4,5.7,3.5,8.6
			c0.6,1.5,0.9,3.1,1.2,4.5c2.7,0.8,5.1,1.6,7.9,2.4c0.2-3.3,0.2-6.2,0.6-9c0.8-4.9,6.1-9.7,12.4-6.7c4.1,2.1,7.5,5,8,10.1
			c0.3,2.9,0.5,5.8,0.7,8.7c2.2,0.9,4.4,1.7,7,2.7c-0.3-2.1-0.5-3.9-0.8-5.7c-0.6-3.7,0.4-6.8,2.7-9.8c3.3-4.3,8.7-4.7,12.5-0.8
			c2.8,2.9,4.1,6.3,4,10.3c-0.1,2.8,0,5.5,0,8.4c2.9,0.2,5.1,0.4,7.5,0.5c0-1.2,0.1-1.9,0-2.5c-1.1-4.7,0.4-8.9,2.3-12.9
			c3.3-7,10.8-8,15.7-2.1c1,1.2,1.9,2.8,2.3,4.4c0.9,4,1.4,8,2.2,12.4c2.6,0,5.8,0,8.7,0c0.3-3.9,0.5-7.4,1-10.8
			c0.9-6,7-10.6,12.1-9.1c5.5,1.6,9.3,5.2,10.7,10.8C154.5,360.8,154,363.2,154,366.1z M66.9,270.1c0.6-3,1-5.4,1.7-7.8
			c1-3.7,4.4-4.3,7.4-5c2.4-0.6,4.5,0.7,5.7,3c2,3.7,3.8,7.5,6,11.7c0.7,0.1,2.1,0.3,3.9,0.6c-0.3-1.7-0.6-2.9-0.8-4.2
			c-0.4-3,1.4-7,3.6-8.2c3-1.6,11-0.3,12.8,2.6c1.9,2.9,3.1,6.3,4.7,10c1.6,0,3.8,0,6,0c0.4-2.6,0.6-4.9,1.2-7.1
			c1-3.7,3.7-5.9,7.4-6.5c3.5-0.6,5.5,2,7.1,4.5c1.3,2.1,2.1,4.5,3.2,6.9c3.3-0.9,6.4-1.8,9.2-2.6c0.8-4.7,0-9.8,5.7-11.1
			c6.8-1.6,11.1,1.8,13.6,7.9c2,0,3.8,0,5.7,0c0.8-1.8,1.5-3.5,2.4-5c3.8-6.2,10.4-6.3,14.4-0.5c0.5,0.7,0.9,1.4,1.3,2.1
			c1.1,2.5,3,3.2,5.8,2.3c1-5.8,2.3-11.4,3-17.2c0.8-6.6,0-13-4.2-18.4c-1.7-2.2-4.1-3.9-5.9-6c-7.1-7.9-16.7-10.7-26.6-12.2
			c-8.8-1.3-17.8-1.4-26.8-1.9c-13.5-0.7-27.1-1.5-40.7-0.9c-9.7,0.4-19.4,0.5-29.1,2.5c-8.5,1.7-15.5,5.7-21.5,11.6
			c-1.3,1.3-2.3,3.3-2.6,5.2c-2,10.6-3.8,21.2-2,32.1c0.5,3.2,0.6,6.5,0.9,9.8c1.5,0,2.4,0,3.3,0c0.1-0.7,0.4-1.2,0.3-1.7
			c-0.2-4.6,1.2-7.6,4.2-8.7c3.3-1.2,7.2,0,9.7,3.3c1.8,2.5,3.2,5.3,5.1,8.5C63.3,269.9,65.1,270,66.9,270.1z M127,57.2
			c0.4-0.1,0.9-0.1,1.3-0.2c-0.4-2.9-0.2-6-1.2-8.6c-2.1-5.6-5.1-11-5.4-17.7c-4.4,6-7,15.7-6.6,21c0.4,4.8,2.9,8,7.2,11.5
			c0-4-0.1-7.1,0-10.2c0.1-3.1-2.7-6.2,0.6-9.9C125.9,47.6,125.7,52.7,127,57.2z M115.7,368.4c1-4.1,0.3-7.8-0.4-11.5
			c-0.3-1.8-1.2-3.5-3.3-3.9c-2.3-0.4-4.7-0.1-5.9,1.8c-2.5,4.1-4.7,8.4-2.4,13.6C107.5,368.4,111.3,368.4,115.7,368.4z
			 M148.9,366.5c0.2-2,0.3-3.8,0.5-5.6c0.3-3-0.9-5.3-3.5-6.5c-2.6-1.2-5.1-0.9-7.5,0.8c-4.7,3.3-3.8,7.8-3.6,12.4
			c3.6,0,6.7,0.1,9.8,0C146,367.4,147.4,366.9,148.9,366.5z M61.1,362.5c0.8-4,0.6-7.4-1.1-10.6c-1.4-2.6-4.6-3.8-7.2-2.9
			c-3.1,1-4.2,3-4.1,7.6c0,3.3,0.9,4.4,4.2,5C55.4,362,58.1,362.1,61.1,362.5z M87.6,367.3c-0.3-3.9-0.4-7.7-0.9-11.4
			c-0.3-2-1.5-3.9-3.9-3.9c-2.1,0.1-4.3,0.7-5.3,3c-0.5,1.2-0.9,2.5-1,3.8c-0.1,1.6,0.1,3.3,0.2,5c0.1,2,1,3,3.1,3
			C82.2,366.8,84.6,367.1,87.6,367.3z M177.8,361c0.6-3.8-1.1-7.8-3.6-9c-1.3-0.6-7,1.6-8.4,3.4c-1.4,1.7-0.8,4.7,1.7,8.1
			C170.9,362.6,174.4,361.8,177.8,361z M31.4,356.1c-0.1-3.8-0.8-6.6-2.6-9.1c-1.7-2.4-5.3-3-7.4-1c-1.5,1.3-3.3,2.8-2.8,5.8
			C22.6,353.2,26.7,354.6,31.4,356.1z M119.6,123.8c3.9-4.2,10.5-7.8,10.6-10c0.1-2.2,0.1-6.9,0-10c0-1.6-7.2,7.4-9.7,9.3
			C119.4,116.3,119.8,118.9,119.6,123.8z M106.2,273.1c-0.5-6.8-2.2-8.5-7.5-8.3c-2.8,0.1-4.5,1.7-4.4,4.2c0.1,2.6,1.6,4,4.5,4.1
			C101.2,273.2,103.5,273.1,106.2,273.1z M129.7,125.3c-2.8,2.6-5.1,4.9-7.6,7c-2.6,2.2-3.7,4.8-3.1,9.2c2.8-2.6,5-5.1,7.6-6.9
			C130,132.3,130.8,129.5,129.7,125.3z M71.6,270.9c3.3,0.3,6.4,0.6,9.6,1c0.4-4.2-1.4-7-3.6-9.5C73,263.3,71.1,265.9,71.6,270.9z
			 M119.6,95.7c0,2.1-0.1,5.9-0.1,8.2c3.5-5.5,11.2-7.7,11.2-12.8c0-1,0.7-4.9,0-4.8C128.4,86.6,122.1,93.2,119.6,95.7z
			 M196.8,354.9c4-2.1,7.5-3.8,11.3-5.8c-0.7-1-1.1-2.1-1.6-2.1c-2-0.1-4-0.1-5.9,0.4C197.3,348.3,196.6,349.8,196.8,354.9z
			 M128.8,264.7c-5.5,1.3-6.8,3.2-5.8,8.1c2.7-0.4,5.4-0.9,8-1.3C132,268.3,130,266.6,128.8,264.7z M124.9,197.6
			c0.2-4.7-0.7-6.4-3.4-6.7c-3.5-0.4-5.2,1.3-5.6,6C118.8,197.2,121.7,197.4,124.9,197.6z M99.6,196.9c-0.5-4.4-2.5-6.5-5.5-6.2
			c-2.4,0.2-3.6,2.7-3.2,6.2C93.8,196.9,96.7,196.9,99.6,196.9z M147.6,190.6c-5.2,2.7-5.3,2.8-4.7,7.4c2.5,0.1,5.1,1.7,7.8-1
			C149.7,195.1,148.7,193,147.6,190.6z M150.6,267.7c2.7-0.3,5.1-0.5,7.5-1c0.8-0.2,1.9-1.1,2-1.8c0.1-0.7-0.8-2.1-1.4-2.2
			c-1.9-0.4-3.9-0.8-5.7-0.4C150.8,262.9,150.1,264.9,150.6,267.7z M47.9,268.8c3,0.2,5.6,0.3,9,0.5c-1.1-1.8-1.8-2.8-2.5-3.9
			c-1.1-1.8-2.5-3.3-4.8-2.3C47.2,264.1,47,266.1,47.9,268.8z M75.9,197.4c-1.5-3.7-3.8-5.8-5.7-5.2c-1.8,0.6-2.2,3-1,6.4
			C71.5,198.2,73.7,197.8,75.9,197.4z M164.1,199.7c2.3,0.5,4.1,0.8,6,1.2c0.4-2.7,0.8-4.8,1.2-7.3
			C166.8,193.7,165.1,195.9,164.1,199.7z M185,263.4c-1-1.4-1.7-2.4-2.5-3.6c-2.1,1.6-5,1.4-6.3,4.9
			C179.4,264.3,181.9,263.9,185,263.4z M119.6,86.3c1.4-1.2,6.2-5.1,6.5-7.3c0.2-1.7-5-1.4-6.5,0.1
			C120.1,81.7,119.2,83.5,119.6,86.3z M226.5,334.5c-0.4,0-0.7,0-1.1,0c-0.4,1.8-0.7,3.5-1.1,5.3c0.3,0.1,0.5,0.1,0.8,0.2
			C225.6,338.1,226.1,336.3,226.5,334.5z M122.7,147.9c1.5,0.8,5.9,0.3,7.4,0.2c1.5-0.1,2.1-7.2,0.6-7.2S121.2,147,122.7,147.9z"/>
		<path d="M91.9,56.3c-7.5-1.2-5.2-14.7,0.3-17.1c1.6-0.7-1.7,4.6-1.4,8.6S94.8,56.7,91.9,56.3z"/>
		<path d="M97.8,39.8c1.9-0.2-0.6,4.4-0.4,6.6c0.2,2.2,2.1,7.4,0.3,6.9C92,51.8,93.4,40.3,97.8,39.8z"/>
		<path d="M127.3,2.2c3.7-0.9,4.1,9.3,3.1,7.6C128.1,6,126,2.5,127.3,2.2z"/>
		<path d="M135,6.9c-1.7-4.1-2.6-3.9-3.9-6.1c-0.9-1.4,2.9-0.7,3.6-0.3C136.3,1.4,135.6,8.3,135,6.9z"/>
		<path d="M136.5,342.2c-2,1.7-3.5,3.1-5.7,4.9c-0.7-1.8-1.3-3.2-2-5C131.5,341.8,133.5,340.6,136.5,342.2z"/>
		<path d="M144.5,339.3c2.7-2.1,4.8-1.9,6.3,1C148.6,343.8,148.4,343.8,144.5,339.3z"/>
		<path d="M100.1,339.3c1.9,0.6,3.6,1.1,5.9,1.8c-1.9,1.8-2.7,3.8-4.9,3C99.3,343.3,99,341.7,100.1,339.3z"/>
		<path d="M26,328.6c-3.5-2.2-3.5-2.2-1.6-5.1C27.8,325.6,27.8,325.6,26,328.6z"/>
		<path d="M30.9,331c2.7,0.8,4,2,3,4.4c-0.2,0.4-1.2,0.8-1.6,0.7C29.7,335.2,30.1,333.3,30.9,331z"/>
		<path d="M82.3,330.4c-1.1,1.1-1.7,2.3-2.3,2.3c-1.7,0-2.7-1.1-2.5-2.9c0.1-0.8,0.9-1.4,1.4-2.1C80,328.5,81,329.4,82.3,330.4z"/>
		<path d="M142.5,321.1c-1.7,1.2-2.6,2-3.6,2.4c-0.3,0.1-1.5-1.3-1.5-1.9c0-0.9,0.8-1.8,1.3-2.8C139.7,319.4,140.7,320,142.5,321.1z
			"/>
		<path d="M86,337.7c2.7,0.4,3.5,1.7,2.8,3.8c-0.2,0.5-1.8,1.2-2.2,0.9C84.3,341.1,85.3,339.5,86,337.7z"/>
		<path d="M19.7,332.3c2.6,0.6,3.9,1.6,3.5,3.8c-0.1,0.5-1.7,1.3-2.3,1.1C18.5,336.3,19.3,334.4,19.7,332.3z"/>
		<path d="M56.5,330.5c-3.4-0.2-3.2-2.3-2.8-4.8C57.4,327,57.4,327,56.5,330.5z"/>
		<path d="M221.8,319.8c2.5,0.5,3.8,1.3,3,3.4c-0.2,0.6-1.5,1.3-1.9,1.1C220.9,323.5,221.3,321.9,221.8,319.8z"/>
		<path d="M165,326.6c0.6,0.6,1.3,0.9,1.5,1.4c0.3,0.9,0.4,2,0.4,3c0,0.2-1.5,0.6-1.6,0.4c-0.6-1-1.2-2-1.5-3.2
			C163.7,327.9,164.5,327.3,165,326.6z"/>
		<path d="M103.4,333.7c0.9-1.8,1.4-2.9,2-4.4c1.6,1.5,3.5,2.5,2.1,4.4C107.2,334.3,105.2,333.8,103.4,333.7z"/>
		<path d="M138.3,331.6c0.6,1.1,1.4,2.2,1.5,3.4c0.1,0.6-1,1.5-1.7,1.8c-0.3,0.1-1.6-0.8-1.6-1.3c0-1.3,0.3-2.7,0.5-4
			C137.5,331.6,137.9,331.6,138.3,331.6z"/>
		<path d="M31.2,315c-3.9,0.3-4,0.2-3.2-4.1C30.5,311.3,31.1,312.9,31.2,315z"/>
		<path d="M174.1,334.5c2.3,1.1,3.5,2.3,2.6,4.4c-0.2,0.4-1.5,0.8-2,0.6C172.7,338.4,173.1,336.7,174.1,334.5z"/>
		<path d="M115,337.8c2.3,2.2,2.3,2.2,1.9,5C113.1,342.3,113,342,115,337.8z"/>
		<path d="M81.1,315.2c0.3,0.1,0.7,0.2,0.9,0.4c1.1,1.2,2.3,2.6,0.7,4.1c-0.4,0.4-1.9,0.2-2.1-0.2C79.7,318.1,78.7,316.3,81.1,315.2
			z"/>
		<path d="M73.5,337.6c2.4-0.9,3.6,0.1,3.7,2c0,0.7-1.5,2.2-2.1,2.1C73.2,341.3,73,339.7,73.5,337.6z"/>
		<path d="M60.6,334.5c2.5,1.4,3.2,2.9,1.3,5.3C59.5,338.4,59,336.9,60.6,334.5z"/>
		<path d="M204,337.8c-0.7-1.7-1.3-3.1-1.8-4.3c2.2-1.9,3-0.3,3.7,0.9C206.9,335.7,206.3,336.8,204,337.8z"/>
		<path d="M107.5,318.7c-2.6-0.9-2.2-2.6-1.4-4.6C109.3,315.9,109.3,315.9,107.5,318.7z"/>
		<path d="M164.6,313.9c0.3,0.1,0.5,0.1,0.6,0.2c1.2,1.1,2.8,2,1.2,3.9c-0.3,0.3-1.3,0.5-1.7,0.2C162.9,316.9,163,315.4,164.6,313.9
			z"/>
		<path d="M56.3,312.7c2.5,2.5,2.5,2.5,1.5,5.5c-0.8-0.6-1.9-1.1-2-1.7C55.6,315.5,56,314.3,56.3,312.7z"/>
		<path d="M50.3,338.5c-0.5-0.1-0.9-0.1-1.1-0.3c-1.1-1-2.3-2.2-1.1-3.7c0.2-0.3,1.4-0.3,1.7-0.1C51.3,335.6,51.9,337,50.3,338.5z"
			/>
		<path d="M160.6,338.6c2.2,0.5,3.3,1.5,2.6,3.5c-0.2,0.4-1.5,0.9-2,0.7C159.2,341.9,159.3,340.5,160.6,338.6z"/>
		<path d="M190.8,334.8c4.1,0.5,3.7,2.4,2.9,4.8C190.7,339.3,190.9,337.3,190.8,334.8z"/>
		<path d="M192.7,314.1c2.5,0.7,3.2,1.9,2.4,3.7c-0.1,0.4-1.2,0.7-1.6,0.5C191.5,317.5,192.1,315.9,192.7,314.1z"/>
		<path d="M195.9,325.8c2.5,0.6,2.9,1.9,2,3.6c-0.1,0.3-0.9,0.5-1.2,0.4C194.7,329,194.8,327.6,195.9,325.8z"/>
		<path d="M103,256c-2.5-0.6-3.8-1.7-3-3.9c0.2-0.6,1.7-1.2,2.2-1C104.2,252.1,104.3,253.8,103,256z"/>
		<path d="M130.2,256.6c-1.2-1.7-2.9-3.4-0.1-5.2C133.4,254.3,133.4,254.7,130.2,256.6z"/>
		<path d="M155.4,242.1c-0.5-0.7-1.1-1.1-1.2-1.7c-0.2-1-0.2-2.1-0.1-3.1c0-0.1,1.5-0.3,1.6-0.1c0.5,1,0.9,2.1,1.1,3.3
			C156.8,240.9,156,241.4,155.4,242.1z"/>
		<path d="M174.4,254.5c-1-1.5-1.9-2.5-2.1-3.5c-0.1-0.6,0.8-2.1,1.3-2.1c2-0.1,2.1,1.7,2.3,3C176,252.5,175.3,253.2,174.4,254.5z"
			/>
		<path d="M69.4,250.2c0.5,0,0.7,0,0.8,0c1.7,0.7,2.9,1.8,1.9,3.8c-0.2,0.4-1.5,0.7-2.1,0.5C68,253.6,68.2,252.1,69.4,250.2z"/>
		<path d="M77.5,250.1c2.6,0.7,3.4,2.1,2.4,4.2c-0.2,0.4-1.3,0.8-1.7,0.6C76.3,253.8,76.1,252.2,77.5,250.1z"/>
		<path d="M187.2,251.9c-4.4-1-4.5-1.2-2-4.9C187.8,247.7,187.6,249.5,187.2,251.9z"/>
		<path d="M117.8,252.3c1.1,1.4,2.1,2.3,2.5,3.3c0.1,0.4-1,1.3-1.6,2c-0.8-0.8-1.8-1.6-2.3-2.5C116.1,254.7,117,253.7,117.8,252.3z"
			/>
		<path d="M149.8,248.1c1.9,1.2,3.4,2.4,2.2,4.5c-0.3,0.4-1.7,0.7-2.1,0.4C148,251.7,148.4,250,149.8,248.1z"/>
		<path d="M92.2,256.8c-0.4-1.5-0.8-3-1.1-4.3c2.6-1.2,3.3,0.1,3.7,1.6C95.4,255.9,94.1,256.3,92.2,256.8z"/>
		<path d="M159,251.6c-1.3-1.4-2.1-2.9-0.3-4.6C162,249,162,249.7,159,251.6z"/>
		<path d="M49.1,255.4c-2.8-1.2-3.5-2.8-1.4-5.5C49.7,251.4,51.1,252.8,49.1,255.4z"/>
		<path d="M123.6,241.1c1.1,1.3,2,2,2.3,2.9c0.1,0.4-1.1,1.6-1.7,1.7c-0.6,0.1-1.6-0.9-1.8-1.6C122.3,243.4,123,242.5,123.6,241.1z"
			/>
		<path d="M94.1,241.2c1.8,1.3,3.4,2.2,2.1,4.2c-0.2,0.4-1.3,0.7-1.7,0.5C92.6,244.8,93,243.3,94.1,241.2z"/>
		<path d="M55.2,257c-2.8-2.2-2.8-2.2-1.7-5.2C55.8,252.8,55.9,254.5,55.2,257z"/>
		<path d="M178.8,240.9c2.4,0,2.9,1.3,2.3,3.2c-0.1,0.4-1.2,0.9-1.5,0.7C177.5,244,177.8,242.5,178.8,240.9z"/>
		<path d="M73.8,241.3c0.6,2.1,1,3.3,1.4,4.5c-0.6,0.1-1.3,0.5-1.7,0.3C72,245.2,71.8,243.9,73.8,241.3z"/>
		<path d="M50.8,242.6c1.8,0.5,3.2,1.2,2.4,3.4c-0.1,0.3-0.9,0.7-1.2,0.6C50.1,245.8,49.9,244.4,50.8,242.6z"/>
		<path d="M164.4,180c2.6,0.1,4,0.9,3.9,2.9c-0.1,0.6-1.8,1.7-2.6,1.5C163.3,183.8,164.3,182,164.4,180z"/>
		<path d="M98.6,178.1c2.7,1.3,3.3,2.9,1.6,5.1C97.4,181.6,97.4,181.6,98.6,178.1z"/>
		<path d="M138.1,178.1c3.6,1.2,3.6,1.2,2.2,4.7C138,181.9,136.8,180.7,138.1,178.1z"/>
		<path d="M116.5,178.6c1.9,1.2,3.2,2.3,2.2,4.1c-0.2,0.4-1.9,0.7-2.4,0.3C114.4,181.8,115.2,180.3,116.5,178.6z"/>
		<path d="M149.8,177c0.5-0.2,0.6-0.4,0.7-0.4c2.1,0.3,3.2,1.3,2.7,3.5c-0.1,0.4-1.1,0.9-1.4,0.8C149.9,180.2,149.3,178.8,149.8,177
			z"/>
		<path d="M72.8,181.3c1.6,0.6,3.1,1.5,2,3.5c-0.3,0.5-1.9,0.9-2.3,0.6C70.9,184.1,71.1,182.6,72.8,181.3z"/>
		<path d="M68.6,185.9c-3.3-0.8-3.3-0.8-2.6-4.4c3.4,0.1,2.5,2.6,2.5,4.5C68.5,186,68.6,185.9,68.6,185.9z"/>
		<path d="M91.5,178.7c0.7,1.6,1.3,2.7,1.9,3.9c-0.7,0.2-1.7,0.7-2.2,0.4C89.7,182.2,89,181,91.5,178.7z"/>
		<path d="M124.5,177.6c0.7,0.3,1.5,0.4,1.7,0.7c0.4,1,0.6,2,0.8,3.1c0,0.1-1.1,0.6-1.2,0.6c-0.6-0.8-1.2-1.7-1.6-2.7
			C124.1,179,124.4,178.4,124.5,177.6z"/>
		<path d="M75.2,177.7c-3.1-0.4-3.6-1.9-2.9-4.2C74.6,174.8,74.6,174.8,75.2,177.7z"/>
		<path d="M144.9,173.7c-1.9-0.1-2.6-1.2-2.3-2.9c0.1-0.3,1.1-0.8,1.5-0.7C145.9,170.9,145.8,172.2,144.9,173.7z"/>
		<path d="M122.8,175c-1.1-1.5-1.8-2.2-2-2.9c-0.1-0.5,0.6-1.2,0.9-1.8c0.6,0.4,1.5,0.7,1.6,1.2C123.6,172.3,123.2,173.2,122.8,175z
			"/>
		<path d="M95.2,170.9c2.3,0.8,3,2,1.8,4.2C94.3,174.6,94,173.3,95.2,170.9z"/>
	</g>
	<g>
		<path class="st0" d="M115.7,368.4c1-4.1,0.3-7.8-0.4-11.5c-0.3-1.8-1.2-3.5-3.3-3.9c-2.3-0.4-4.7-0.1-5.9,1.8
			c-2.5,4.1-4.7,8.4-2.4,13.6C107.5,368.4,111.3,368.4,115.7,368.4z"/>
		<path class="st0" d="M148.9,366.5c0.2-2,0.3-3.8,0.5-5.6c0.3-3-0.9-5.3-3.5-6.5c-2.6-1.2-5.1-0.9-7.5,0.8
			c-4.7,3.3-3.8,7.8-3.6,12.4c3.6,0,6.7,0.1,9.8,0C146,367.4,147.4,366.9,148.9,366.5z"/>
		<path class="st0" d="M61.1,362.5c0.8-4,0.6-7.4-1.1-10.6c-1.4-2.6-4.6-3.8-7.2-2.9c-3.1,1-4.2,3-4.1,7.6c0,3.3,0.9,4.4,4.2,5
			C55.4,362,58.1,362.1,61.1,362.5z"/>
		<path class="st0" d="M87.6,367.3c-0.3-3.9-0.4-7.7-0.9-11.4c-0.3-2-1.5-3.9-3.9-3.9c-2.1,0.1-4.3,0.7-5.3,3
			c-0.5,1.2-0.9,2.5-1,3.8c-0.1,1.6,0.1,3.3,0.2,5c0.1,2,1,3,3.1,3C82.2,366.8,84.6,367.1,87.6,367.3z"/>
		<path class="st0" d="M177.8,361c0.6-3.8-1.1-7.8-3.6-9c-1.3-0.6-7,1.6-8.4,3.4c-1.4,1.7-0.8,4.7,1.7,8.1
			C170.9,362.6,174.4,361.8,177.8,361z"/>
		<path class="st0" d="M31.4,356.1c-0.1-3.8-0.8-6.6-2.6-9.1c-1.7-2.4-5.3-3-7.4-1c-1.5,1.3-3.3,2.8-2.8,5.8
			C22.6,353.2,26.7,354.6,31.4,356.1z"/>
		<path class="st0" d="M106.2,273.1c-0.5-6.8-2.2-8.5-7.5-8.3c-2.8,0.1-4.5,1.7-4.4,4.2c0.1,2.6,1.6,4,4.5,4.1
			C101.2,273.2,103.5,273.1,106.2,273.1z"/>
		<path class="st0" d="M71.6,270.9c3.3,0.3,6.4,0.6,9.6,1c0.4-4.2-1.4-7-3.6-9.5C73,263.3,71.1,265.9,71.6,270.9z"/>
		<path class="st0" d="M196.8,354.9c4-2.1,7.5-3.8,11.3-5.8c-0.7-1-1.1-2.1-1.6-2.1c-2-0.1-4-0.1-5.9,0.4
			C197.3,348.3,196.6,349.8,196.8,354.9z"/>
		<path class="st0" d="M128.8,264.7c-5.5,1.3-6.8,3.2-5.8,8.1c2.7-0.4,5.4-0.9,8-1.3C132,268.3,130,266.6,128.8,264.7z"/>
		<path class="st0" d="M124.9,197.6c0.2-4.7-0.7-6.4-3.4-6.7c-3.5-0.4-5.2,1.3-5.6,6C118.8,197.2,121.7,197.4,124.9,197.6z"/>
		<path class="st0" d="M99.6,196.9c-0.5-4.4-2.5-6.5-5.5-6.2c-2.4,0.2-3.6,2.7-3.2,6.2C93.8,196.9,96.7,196.9,99.6,196.9z"/>
		<path class="st0" d="M147.6,190.6c-5.2,2.7-5.3,2.8-4.7,7.4c2.5,0.1,5.1,1.7,7.8-1C149.7,195.1,148.7,193,147.6,190.6z"/>
		<path class="st0" d="M150.6,267.7c2.7-0.3,5.1-0.5,7.5-1c0.8-0.2,1.9-1.1,2-1.8c0.1-0.7-0.8-2.1-1.4-2.2c-1.9-0.4-3.9-0.8-5.7-0.4
			C150.8,262.9,150.1,264.9,150.6,267.7z"/>
		<path class="st0" d="M47.9,268.8c3,0.2,5.6,0.3,9,0.5c-1.1-1.8-1.8-2.8-2.5-3.9c-1.1-1.8-2.5-3.3-4.8-2.3
			C47.2,264.1,47,266.1,47.9,268.8z"/>
		<path class="st0" d="M75.9,197.4c-1.5-3.7-3.8-5.8-5.7-5.2c-1.8,0.6-2.2,3-1,6.4C71.5,198.2,73.7,197.8,75.9,197.4z"/>
		<path class="st0" d="M164.1,199.7c2.3,0.5,4.1,0.8,6,1.2c0.4-2.7,0.8-4.8,1.2-7.3C166.8,193.7,165.1,195.9,164.1,199.7z"/>
		<path class="st0" d="M185,263.4c-1-1.4-1.7-2.4-2.5-3.6c-2.1,1.6-5,1.4-6.3,4.9C179.4,264.3,181.9,263.9,185,263.4z"/>
		<path class="st0" d="M226.5,334.5c-0.4,0-0.7,0-1.1,0c-0.4,1.8-0.7,3.5-1.1,5.3c0.3,0.1,0.5,0.1,0.8,0.2
			C225.6,338.1,226.1,336.3,226.5,334.5z"/>
	</g>
	<g>
		<path class="st1" d="M119.6,123.8c3.9-4.2,10.5-7.8,10.6-10c0.1-2.2,0.1-6.9,0-10c0-1.6-7.2,7.4-9.7,9.3
			C119.4,116.3,119.8,118.9,119.6,123.8z"/>
		<path class="st1" d="M129.7,125.3c-2.8,2.6-5.1,4.9-7.6,7c-2.6,2.2-3.7,4.8-3.1,9.2c2.8-2.6,5-5.1,7.6-6.9
			C130,132.3,130.8,129.5,129.7,125.3z"/>
		<path class="st1" d="M119.6,95.7c0,2.1-0.1,5.9-0.1,8.2c3.5-5.5,11.2-7.7,11.2-12.8c0-1,0.7-4.9,0-4.8
			C128.4,86.6,122.1,93.2,119.6,95.7z"/>
		<path class="st1" d="M119.6,86.3c1.4-1.2,6.2-5.1,6.5-7.3c0.2-1.7-5-1.4-6.5,0.1C120.1,81.7,119.2,83.5,119.6,86.3z"/>
		<path class="st1" d="M122.7,147.9c1.5,0.8,5.9,0.3,7.4,0.2c1.5-0.1,2.1-7.2,0.6-7.2S121.2,147,122.7,147.9z"/>
	</g>
	<path class="st0" d="M127,57.2c0.4-0.1,0.9-0.1,1.3-0.2c-0.4-2.9-0.2-6-1.2-8.6c-2.1-5.6-5.1-11-5.4-17.7c-4.4,6-7,15.7-6.6,21
		c0.4,4.8,2.9,8,7.2,11.5c0-4-0.1-7.1,0-10.2c0.1-3.1-2.7-6.2,0.6-9.9C125.9,47.6,125.7,52.7,127,57.2z"/>
</g>
</svg>
