<?xml version="1.0" encoding="utf-8"?>
<!-- Generator: Adobe Illustrator 19.1.0, SVG Export Plug-In . SVG Version: 6.00 Build 0)  -->
<svg version="1.1" id="Calque_1" xmlns="http://www.w3.org/2000/svg" xmlns:xlink="http://www.w3.org/1999/xlink" x="0px" y="0px"
	 viewBox="0 0 104.7 136.2" style="enable-background:new 0 0 104.7 136.2;" xml:space="preserve">
<style type="text/css">
	.st0{fill:#009DBF;}
	.st1{fill:#D0095B;}
	.st2{fill:#009EC0;}
	.st3{fill:#D1005A;}
	.st4{fill:#C0BFBF;}
	.st5{enable-background:new    ;}
	.st6{fill:none;stroke:#D0095B;stroke-width:3;stroke-miterlimit:10;}
	.st7{fill:#FFFFFF;stroke:#D0095B;stroke-width:3;stroke-miterlimit:10;}
	.st8{fill:#FFFFFF;}
</style>
<g>
	<path d="M79,98.7c4,2.5,4.5,6.3,4.9,10.2c0.6,6-1.3,11.5-3.2,17.1c-1.3,3.7-3.9,5.5-7,7c-1.9,0.9-4,1.3-6.1,1.6
		c-4,0.5-8,0.9-12,1.2c-5.9,0.4-11.9,0.9-17.8,0.1c-5.3-0.7-10.7-0.5-15.9-2.2c-3.3-1.1-6.9-1.8-9.3-4.8c-0.6-0.8-1.3-1.7-1.6-2.7
		c-1.7-5.2-3.4-10.4-2.8-16c0.2-2,0.4-4,1-5.9c1.1-3.5,3-6.2,7.1-6.8c0-1.7,0-3.3,0-4.9c-0.1-5.1-0.3-10.1-0.2-15.2
		c0-9.3,0.7-18.6,5-27.1c1.9-3.7,4.4-7.2,8.3-9.4c1.1-0.6,2-1.4,3.1-2.1c3.3-2.1,7-2.8,10.8-3.5c7.1-1.3,14.1-0.3,20.9,1.7
		c4.5,1.3,7.3,4.4,9.6,8.1c3.6,5.6,4.9,12,6,18.5c1.2,7.1,0.7,14.3,0.5,21.5C80.2,89.6,79.5,94,79,98.7z M33.8,102.3
		c1.2-3.2,0.3-5.8-0.4-8.3c-0.9-2.9-2.4-5.6-3.5-8.4c-2.2-5.9-2.9-11.7,0.5-17.4c1.6-2.8,4-5,6.7-6.7c4.3-2.8,9-4.7,14.3-4.3
		c3.4,0.3,6.4,1.9,9.3,3.5c6.4,3.6,10,12.3,8,19.3c-0.8,2.9-2,5.8-3.1,8.6c-1.6,4.1-3.1,8.2-1.8,13c3.1-0.5,6.1-1.1,9.1-1.6
		c0.5-4.9,1.2-9.6,1.3-14.3c0.2-6.5,0.2-13.1-0.3-19.5c-0.4-5.5-1.2-11.1-4.3-15.9c-2.7-4.2-5.9-7.8-10.7-9.7
		c-7.7-2.9-15.4-2.5-23,0.5c-5.3,2.1-9.4,5.7-11.8,10.8c-3.4,7.1-4.3,14.9-4.5,22.6c-0.1,5.4,0.2,10.9,0.3,16.3c0,2.3,0,4.6,0,6.4
		C24,101.6,29.2,100.9,33.8,102.3z M42.1,102.9c0.1-5.9,0.2-11.5,0.2-17.2c0-1.3-0.5-2.3-1.6-3.2c-2-1.7-4.3-3.3-4.8-6.2
		c-0.3-1.9,0.8-4.3,2.5-5c1.6-0.6,3.5,0.2,4.7,1.9c0.3,0.5,0.5,1,0.7,1.6c0.4,1.7,0.7,3.3,0.9,5c0.2,1.7,1.1,2,2.7,1.7
		c0.3-1.2,0.5-2.4,0.9-3.6c0.5-1.5,1-3.1,1.9-4.5c1.5-2.4,4.8-3,7.4-1.7c1.8,0.9,2.3,3,1.3,5.9c-1.1,3.1-2.9,5.5-6.2,6.5
		C50,85,50,85.2,50.1,87.9c0.1,3.6,0.2,7.3,0.3,10.9c0,1.3,0.2,2.6,0.3,4.3c2.2-0.3,4.3-0.6,6.6-1c-0.9-3.4-0.5-6.3,0.2-9.2
		c0.5-1.9,1.3-3.8,2.1-5.6c2.2-4.6,4.1-9.3,3.7-14.6c-0.3-3.7-1.4-6.9-4.9-8.9c-1.1-0.6-2.4-1-3.5-1.6c-2.5-1.4-5.3-1.4-8-1.2
		c-2.9,0.1-5.3,1.7-7.6,3.1c-3.7,2.4-6.8,5.5-7.6,10c-0.7,4.1-0.5,8.2,1.8,11.9c2,3.3,3.6,6.8,4.1,10.7c0.3,1.9,0.2,3.9,0.3,6.2
		C39.1,102.9,40.3,102.9,42.1,102.9z M47.4,103.2c0-1.6,0-3,0-4.4c-0.1-4.4-0.1-8.8-0.2-13.2c0-1-0.6-1.3-1.8-1c0,6,0,12.1,0,18.4
		C45.9,103.1,46.6,103.2,47.4,103.2z M50.6,80.9c2.5-0.4,3.9-1.9,5.1-3.6c0.7-1.1,1.1-2.4,0-3.8C52.1,74.6,51.7,77.8,50.6,80.9z
		 M41.8,79.9c-0.3-2.3-0.5-4.1-1.8-5.8C38.6,76.7,38.6,76.8,41.8,79.9z"/>
	<path d="M91.3,4.6c1.7,0,7.9,5.9,10.7,8.2c0.2,0.2,0.5,0.3,0.7,0.5c1.6,1.6,1.6,3.2-0.4,4.5c-1.7,1.1-24,16.2-25.4,15.2
		c-1.4-1-0.7-3.5,0.5-5.1C81.2,22.9,89.5,4.6,91.3,4.6z"/>
	<path d="M4.3,10.4c0-1.4,1.9-2.5,3.1-3.3c2.8-1.9,5.6-3.7,8.4-5.5c0.6-0.4,1.1-0.8,1.7-1.1c1.8-1,2.4-0.6,2.8,1.8
		c0.4,2.4,5.8,20.1,7.6,24c1.1,2.3-0.2,3.9-2,3.8c-0.4,0-0.8-0.1-1-0.3c-1.5-1.4-3-2.7-4.4-4.2C17.3,22.1,4.3,11.9,4.3,10.4z"/>
	<path d="M104.7,41.3c0,1.7,0,3.4,0,5.2c0,1.8-1.2,2.8-2.7,1.9c-4.6-2.7-9.7-2.7-14.7-3.2c-1.4-0.1-2.8-0.4-4.3-0.7
		c-1.3-0.3-2-1.2-2.1-2.4c-0.1-1.3,0.7-1.9,1.8-2.3c0.8-0.3,1.6-0.6,2.5-0.7c5.8-0.7,11.2-2.4,16.4-4.8c1.9-0.9,2.9-0.2,2.9,1.9
		C104.5,37.8,104.7,41.3,104.7,41.3z"/>
	<path d="M5.9,30.1c1.1,0.1,8.2,8.4,9.3,9.3c0.3,0.2,2.3,1.7,1.7,2.9c-0.6,1.2-10.2-0.6-14.2,0.2c-1,0.2-2.1,0.2-2.5-0.8
		c-0.3-0.5,0-1.5,0.2-2.1c1-2.6,2.2-5.1,3.2-7.7C3.9,30.8,4.8,30,5.9,30.1z"/>
	<path class="st1" d="M33.8,102.3c1.2-3.2,0.3-5.8-0.4-8.3c-0.9-2.9-2.4-5.6-3.5-8.4c-2.2-5.9-2.9-11.7,0.5-17.4
		c1.6-2.8,4-5,6.7-6.7c4.3-2.8,9-4.7,14.3-4.3c3.4,0.3,6.4,1.9,9.3,3.5c6.4,3.6,10,12.3,8,19.3c-0.8,2.9-2,5.8-3.1,8.6
		c-1.6,4.1-3.1,8.2-1.8,13c3.1-0.5,6.1-1.1,9.1-1.6c0.5-4.9,1.2-9.6,1.3-14.3c0.2-6.5,0.2-13.1-0.3-19.5c-0.4-5.5-1.2-11.1-4.3-15.9
		c-2.7-4.2-5.9-7.8-10.7-9.7c-7.7-2.9-15.4-2.5-23,0.5c-5.3,2.1-9.4,5.7-11.8,10.8c-3.4,7.1-4.3,14.9-4.5,22.6
		c-0.1,5.4,0.2,10.9,0.3,16.3c0,2.3,0,4.6,0,6.4C24,101.6,29.2,100.9,33.8,102.3z"/>
</g>
</svg>
