<?xml version="1.0" encoding="utf-8"?>
<!-- Generator: Adobe Illustrator 19.1.0, SVG Export Plug-In . SVG Version: 6.00 Build 0)  -->
<svg version="1.1" id="Calque_1" xmlns="http://www.w3.org/2000/svg" xmlns:xlink="http://www.w3.org/1999/xlink" x="0px" y="0px"
	 viewBox="0 0 75.8 101.5" style="enable-background:new 0 0 75.8 101.5;" xml:space="preserve">
<style type="text/css">
	.st0{fill:#009DBF;}
	.st1{fill:#D0095B;}
	.st2{fill:#009EC0;}
	.st3{fill:#D1005A;}
	.st4{fill:#C0BFBF;}
	.st5{enable-background:new    ;}
	.st6{fill:none;stroke:#D0095B;stroke-width:3;stroke-miterlimit:10;}
	.st7{fill:#FFFFFF;stroke:#D0095B;stroke-width:3;stroke-miterlimit:10;}
	.st8{fill:#FFFFFF;}
</style>
<g>
	<path d="M70.7,63.7c4,2.5,4.6,6.3,5,10.1c0.6,6-1.2,11.5-3.1,17.1c-1.3,3.7-3.9,5.6-7,7.1c-1.9,0.9-4,1.3-6,1.6c-4,0.6-8,1-12,1.3
		c-5.9,0.5-11.8,1-17.8,0.2c-5.3-0.7-10.7-0.4-15.9-2.1c-3.3-1.1-6.9-1.8-9.3-4.7C4,93.5,3.4,92.6,3,91.6c-1.7-5.2-3.5-10.4-2.9-16
		c0.2-2,0.4-4,1-5.9c1.1-3.5,3-6.3,7.1-6.8c0-1.7,0-3.3,0-4.9C8,52.9,7.8,47.8,7.7,42.8c0-9.3,0.6-18.6,4.8-27.1
		c1.9-3.8,4.4-7.2,8.2-9.4c1.1-0.6,2-1.4,3.1-2.1c3.3-2.1,7-2.8,10.8-3.5c7.1-1.3,14.1-0.4,21,1.5c4.5,1.2,7.3,4.4,9.7,8
		c3.6,5.6,5,12,6.1,18.4c1.3,7.1,0.8,14.3,0.6,21.5C71.8,54.6,71.2,59,70.7,63.7z M25.6,67.7c1.2-3.2,0.3-5.8-0.5-8.3
		c-0.9-2.9-2.5-5.6-3.6-8.4c-2.3-5.8-3-11.7,0.3-17.4c1.6-2.8,4-5,6.6-6.7c4.3-2.8,8.9-4.7,14.3-4.4c3.4,0.3,6.4,1.8,9.3,3.4
		c6.4,3.5,10.1,12.2,8.2,19.3c-0.8,2.9-1.9,5.8-3,8.7c-1.6,4.1-3.1,8.2-1.7,13c3.1-0.6,6.1-1.1,9.1-1.7c0.4-4.9,1.1-9.6,1.2-14.4
		c0.1-6.5,0.1-13.1-0.4-19.5C65,25.7,64.2,20.1,61,15.3c-2.7-4.1-6-7.8-10.8-9.6c-7.7-2.9-15.4-2.4-23,0.7
		c-5.3,2.1-9.3,5.8-11.7,10.9c-3.3,7.2-4.2,14.9-4.4,22.7c-0.1,5.4,0.3,10.9,0.4,16.3c0.1,2.3,0,4.6,0.1,6.4
		C15.7,67,20.9,66.3,25.6,67.7z M33.9,68.1c0-5.9,0.1-11.5,0.1-17.2c0-1.3-0.5-2.2-1.6-3.1c-2-1.7-4.3-3.2-4.8-6.2
		c-0.3-1.9,0.8-4.3,2.4-5c1.6-0.6,3.5,0.1,4.7,1.9c0.3,0.5,0.5,1,0.7,1.6c0.4,1.6,0.7,3.3,1,5c0.2,1.7,1.1,2,2.7,1.7
		c0.3-1.2,0.4-2.4,0.8-3.6c0.5-1.5,1-3.1,1.9-4.5c1.5-2.4,4.8-3,7.4-1.7c1.8,0.9,2.3,3,1.3,5.9c-1.1,3.1-2.8,5.5-6.2,6.6
		c-2.6,0.8-2.6,0.9-2.5,3.7c0.1,3.6,0.2,7.3,0.4,10.9c0.1,1.3,0.2,2.6,0.4,4.3c2.2-0.3,4.3-0.7,6.6-1c-0.9-3.4-0.6-6.3,0.2-9.2
		c0.5-1.9,1.3-3.8,2.1-5.6c2.2-4.6,4.1-9.3,3.6-14.6c-0.3-3.7-1.5-6.9-4.9-8.9c-1.1-0.6-2.4-1-3.5-1.6c-2.5-1.4-5.3-1.3-8-1.2
		c-2.9,0.2-5.3,1.7-7.6,3.2c-3.6,2.4-6.8,5.5-7.5,10.1c-0.7,4.1-0.4,8.2,1.9,11.9c2.1,3.3,3.6,6.8,4.2,10.6c0.3,1.9,0.2,3.9,0.4,6.2
		C30.9,68.2,32.1,68.1,33.9,68.1z M39.2,68.5c0-1.6,0-3,0-4.4c-0.1-4.4-0.2-8.8-0.3-13.2c0-1-0.6-1.3-1.8-1c0,6,0.1,12.1,0.1,18.4
		C37.6,68.3,38.3,68.4,39.2,68.5z M42.2,46.2c2.5-0.4,3.9-1.9,5-3.6c0.7-1.1,1.1-2.4,0-3.8C43.7,39.9,43.3,43,42.2,46.2z M33.4,45.1
		c-0.3-2.3-0.5-4.1-1.8-5.7C30.2,42,30.2,42.1,33.4,45.1z"/>
	<path class="st0" d="M25.6,67.7c1.2-3.2,0.3-5.8-0.5-8.3c-0.9-2.9-2.5-5.6-3.6-8.4c-2.3-5.8-3-11.7,0.3-17.4c1.6-2.8,4-5,6.6-6.7
		c4.3-2.8,8.9-4.7,14.3-4.4c3.4,0.3,6.4,1.8,9.3,3.4c6.4,3.5,10.1,12.2,8.2,19.3c-0.8,2.9-1.9,5.8-3,8.7c-1.6,4.1-3.1,8.2-1.7,13
		c3.1-0.6,6.1-1.1,9.1-1.7c0.4-4.9,1.1-9.6,1.2-14.4c0.1-6.5,0.1-13.1-0.4-19.5C65,25.7,64.2,20.1,61,15.3c-2.7-4.1-6-7.8-10.8-9.6
		c-7.7-2.9-15.4-2.4-23,0.7c-5.3,2.1-9.3,5.8-11.7,10.9c-3.3,7.2-4.2,14.9-4.4,22.7c-0.1,5.4,0.3,10.9,0.4,16.3
		c0.1,2.3,0,4.6,0.1,6.4C15.7,67,20.9,66.3,25.6,67.7z"/>
</g>
</svg>
