<?xml version="1.0" encoding="utf-8"?>
<!-- Generator: Adobe Illustrator 19.1.0, SVG Export Plug-In . SVG Version: 6.00 Build 0)  -->
<svg version="1.1" id="Calque_1" xmlns="http://www.w3.org/2000/svg" xmlns:xlink="http://www.w3.org/1999/xlink" x="0px" y="0px"
	 viewBox="0 0 77.7 63.3" style="enable-background:new 0 0 77.7 63.3;" xml:space="preserve">
<style type="text/css">
	.st1{fill:#000;}
</style>
<path class="st1" d="M75.8,28.9c-2.3-5.7-7-8.1-12.9-8.8c-0.3,0-0.5,0-0.8-0.1c0,0,0,0,0-0.1c-0.5-5.6-0.3-11.1,0.6-16.7
	c0.2-1-0.4-1.9-1.4-1.9C55.2,1.1,49-0.2,42.9,0c-8,0.3-16.4,3.7-24.3,2.5c-1.2-0.2-2,0.6-1.8,1.8c0.8,5.4,1,10.7,0.8,16.2
	c-2.1,0.2-4.1,0.3-6.2,0.6c-6.3,0.7-8.2,2.6-9.8,8.7c-2.4,8.7-3.6,28.4,10.6,26.8c0.2,0,0.4-0.1,0.5-0.2c-0.4,1.4-0.8,2.8-1.2,4.2
	c-0.3,0.9,0.5,1.9,1.4,1.9c18,0.3,36.1,0.5,54.1,0.8c1,0,1.7-1,1.4-1.9c-0.5-2-1-4-1.4-6C77.9,52.7,79.7,38.4,75.8,28.9z M19.9,5.6
	C27,6,34.5,3.6,41.5,3.1c6.1-0.4,12.1,0.7,18.1,1.2c-0.7,5.2-0.9,10.3-0.4,15.5c-7.1-0.4-14.4-0.1-21.5-0.1
	c-5.7,0-11.4,0.2-17.2,0.6C20.7,15.4,20.5,10.5,19.9,5.6z M20.8,38.9c0,0,0.1,0,0.1,0c0.6,0,1.3,0,1.9,0c2.2,0,4.3,0,6.5,0
	c5.6,0,11.2,0.1,16.8,0.2c4.1,0.1,8.8-0.4,12.9,0.4c0.3,0.1,1.2-0.1,1.4,0.1c-0.6-0.4,0.6,4.6,0.9,5.6c0.7,2.9,1.4,5.9,2.1,8.8
	c-0.1,0.6,0,1.2,0.4,1.5c0.4,1.6,0.8,3.2,1.2,4.8c-16.7-0.2-33.4-0.5-50.2-0.7C16.8,52.7,18.8,45.8,20.8,38.9z M66.2,52.6
	c-0.8-3.4-1.6-6.7-2.4-10.1c-0.6-2.4-0.5-4.9-2.9-5.8c-3.5-1.3-9.2-0.4-12.9-0.5c-6.4-0.2-12.8-0.3-19.1-0.3c-2.3,0-7.9-1.1-10,0.4
	c0,0,0,0,0,0c-0.3,0.2-0.5,0.4-0.6,0.9c-1.6,5.7-3.2,11.3-4.9,17c-0.2-0.4-0.6-0.6-1.2-0.5C0.1,54.9,1.4,34,5.4,27.3
	C8.3,22.5,18,23.5,23,23.2c4.9-0.3,9.8-0.4,14.7-0.4c4.9,0,9.8,0,14.7,0.1c4.6,0.1,10.3-0.6,14.7,1.2C77.6,28.1,77.8,49.8,66.2,52.6
	z"/>
</svg>
