<?xml version="1.0" encoding="utf-8"?>
<!-- Generator: Adobe Illustrator 19.1.0, SVG Export Plug-In . SVG Version: 6.00 Build 0)  -->
<svg version="1.1" id="Calque_1" xmlns="http://www.w3.org/2000/svg" xmlns:xlink="http://www.w3.org/1999/xlink" x="0px" y="0px"
	 viewBox="-75 183 689.6 230.3" style="enable-background:new -75 183 689.6 230.3;" xml:space="preserve">
<style type="text/css">
	.st0{fill:#264B88;}
	.st1{fill:none;}
	.st2{enable-background:new    ;}
	.st3{fill:#FFFFFF;}
</style>
<path class="st0" d="M-69.7,198.8c-0.5,7.1-1.4,13.2-1.2,19.3c0.7,14.8,2,29.5,2.9,44.3c1.2,18.8,2.5,37.6,3.5,56.4
	c0.6,11.3,0.6,22.7,1.2,34c0.3,6.9,1.3,13.7,1.8,20.6c0.7,8.6,2.6,17.2-1.9,25.4c-0.1,0.3,0.1,0.7,0.3,1.5c5.5,0,11,0.3,16.5,0
	c11.6-0.6,23.2-1.7,34.8-2.2c6.1-0.3,12.3,0.1,18.5,0.2c12.6,0.3,25.1,0.7,37.7,0.8c18,0.1,36,0.2,54,0c16.1-0.1,32.1-0.5,48.2-0.7
	c17.8-0.2,35.7-0.4,53.5-0.5c8.9-0.1,17.8,0,26.7,0.2c9.3,0.2,18.5,0.8,27.8,0.6c5.6-0.1,11-1,16.7-0.6c9.2,0.7,18.6,0.4,27.9,0.2
	c15.7-0.3,31.4-1,47.1-1.4c35.1-0.8,70.2-2.9,105.3-1.6c11,0.4,21.9,0.2,32.9,0c14.9-0.3,29.8-0.9,44.8-1.3
	c21.4-0.6,42.7-1.3,64.1-1.9c2.1-0.1,4.2-0.1,6.7-0.2c0.4-3.1,1-5.8,0.9-8.4c-0.2-16.7-0.2-33.4-0.9-50.1c-0.7-17.7-0.4-35.4,0.3-53
	c0.5-12.1,0-24.2-0.1-36.4c0-2.1-0.1-4.2-0.2-6.4c0-13.7,0-27.3,0-41c-11.5-0.4-22.5-0.8-33.5-1.2c-4.8-0.2-9.7-0.2-14.5-0.5
	c-7.9-0.5-15.8-1.4-23.6-1.7c-10.2-0.5-20.5-0.7-30.7-1c-11.8-0.4-23.6-0.8-35.4-1.2c-10.6-0.3-21.2-0.8-31.9-0.9
	c-12.6-0.1-25.2,0.2-37.8,0.2c-16.3,0-32.5-0.1-48.8-0.2c-15.3,0-30.5-0.3-45.8,0c-12.4,0.2-24.8,1.1-37.1,1.6
	c-1.9,0.1-3.9-0.2-5.8-0.3c-1.3-0.1-2.7-0.3-4-0.2c-6.7,0.4-13.4,1.1-20.1,1.4c-7.1,0.3-14.3-0.1-21.5,0.2
	c-19.5,0.7-39.1,1.6-58.6,2.2c-4.6,0.2-9.2-0.3-13.7-0.1c-7,0.3-13.9,1.1-20.9,1.1c-25.9,0.1-51.8-0.3-77.7,0
	c-13.2,0.1-26.5,1.5-39.7,2.1c-9.5,0.4-19,0.6-28.5,0.9c-6.1,0.2-12.3,0.3-18.4,0.3C-54.9,199.2-61.8,199-69.7,198.8z"/>
<path d="M613.4,191.7c-0.2,3.5-0.4,6.7-0.5,9.9c-0.1,2.1,0.1,4.2,0.1,6.4c0.2,6.5,0.4,12.9,0.6,19.4c0,1.3,0,2.7,0.1,4
	c0.3,18.9,1,37.7,0.9,56.6c0,14-0.9,27.9-1.4,41.9c-0.1,3.1,0.1,6.1,0.2,9.2c0.2,13.4,0.4,26.9,0.6,40.3c0.1,4,0,7.9,0.4,11.9
	c0.5,5-2.9,8.2-8.5,8.8c-6.9,0.7-13.8,1.4-20.8,1.6c-23,0.8-46,1.6-69,2.1c-27.3,0.6-54.6,0.9-82,1.4c-16,0.3-32,1.1-47.9,1.6
	c-13.9,0.5-27.9,0.5-41.8,1.4c-11.5,0.7-23,0.4-34.6,0.2c-8.7-0.1-17.3,0-26,0c-14.3,0.1-28.6,0.1-42.8,0.3
	c-4.2,0.1-8.4,0.8-12.6,1.2c-0.8,0.1-1.5,0.1-2.3,0.1c-5.1,0-10.3-0.2-15.4,0c-16.6,0.8-33.2,2-49.8,2.6c-13.3,0.5-26.7,0.7-40,0.6
	c-10.7-0.1-21.5-1-32.2-1.3c-8.6-0.2-17.2-0.8-25.9-0.6c-15.3,0.4-30.6-0.2-45.9-0.3c-14.3-0.1-28.5,0.1-42.8,0
	c-7.7,0-15.3-0.5-23-0.5c-2.7,0-5.4,0.3-8.1,0.7c-5.5,0.8-8.1-1.5-10-6.7c-1.7-4.6,0.5-8.6,0.6-12.9c0-2.7,0.7-5.3,0.6-8
	c-0.4-11.7-0.9-23.5-1.4-35.2c-0.8-15.6-1.4-31.4-2.2-47.1c-0.4-9.6-0.9-19.2-1.5-28.8c-0.8-10.5-1.3-21.1-2.9-31.5
	c-2.3-14-0.6-28-0.3-41.9c0.1-3.3,1.1-5.5,3.8-7.2c1.3,0.1,2.6,0.3,3.9,0.3c22.1-0.4,44.3-0.5,66.4-1.2c16.9-0.5,33.7-1.8,50.5-2.3
	c7.9-0.2,15.8,0.6,23.7,0.9c0.2,0,0.4,0,0.6,0c20.6-0.6,41.1-1.1,61.7-1.7c7.9-0.2,15.9-0.4,23.8-0.9c7-0.4,14-1.2,21-1.5
	c8.9-0.4,17.8-0.5,26.6-0.8c19-0.6,38-1.3,57-1.7c12.2-0.1,24.4,0,36.6,0c3.3,0,6.5,0.2,9.8,0.2c11.6,0,23.2-0.1,34.9,0
	c18.2,0.2,36.4,0.5,54.6,0.7c4.9,0,9.7-0.3,14.6-0.3c12-0.1,24-0.2,36,0c14.9,0.2,29.8,0.6,44.7,1.1c9.4,0.3,18.9,1.2,28.3,1.7
	c3.7,0.2,7.4,0.3,11,0.5c11.8,0.6,23.5,1.2,35.3,1.7c6.4,0.2,12.9-0.3,19.2,0.3C597.3,189.6,605.2,188.4,613.4,191.7z M-69.7,198.8
	c-0.5,7.1-1.4,13.2-1.2,19.3c0.7,14.8,2,29.5,2.9,44.3c1.2,18.8,2.5,37.6,3.5,56.4c0.6,11.3,0.6,22.7,1.2,34
	c0.3,6.9,1.3,13.7,1.8,20.6c0.7,8.6,2.6,17.2-1.9,25.4c-0.1,0.3,0.1,0.7,0.3,1.5c5.5,0,11,0.3,16.5,0c11.6-0.6,23.2-1.7,34.8-2.2
	c6.1-0.3,12.3,0.1,18.5,0.2c12.6,0.3,25.1,0.7,37.7,0.8c18,0.1,36,0.2,54,0c16.1-0.1,32.1-0.5,48.2-0.7c17.8-0.2,35.7-0.4,53.5-0.5
	c8.9-0.1,17.8,0,26.7,0.2c9.3,0.2,18.5,0.8,27.8,0.6c5.6-0.1,11-1,16.7-0.6c9.2,0.7,18.6,0.4,27.9,0.2c15.7-0.3,31.4-1,47.1-1.4
	c35.1-0.8,70.2-2.9,105.3-1.6c11,0.4,21.9,0.2,32.9,0c14.9-0.3,29.8-0.9,44.8-1.3c21.4-0.6,42.7-1.3,64.1-1.9
	c2.1-0.1,4.2-0.1,6.7-0.2c0.4-3.1,1-5.8,0.9-8.4c-0.2-16.7-0.2-33.4-0.9-50.1c-0.7-17.7-0.4-35.4,0.3-53c0.5-12.1,0-24.2-0.1-36.4
	c0-2.1-0.1-4.2-0.2-6.4c0-13.7,0-27.3,0-41c-11.5-0.4-22.5-0.8-33.5-1.2c-4.8-0.2-9.7-0.2-14.5-0.5c-7.9-0.5-15.8-1.4-23.6-1.7
	c-10.2-0.5-20.5-0.7-30.7-1c-11.8-0.4-23.6-0.8-35.4-1.2c-10.6-0.3-21.2-0.8-31.9-0.9c-12.6-0.1-25.2,0.2-37.8,0.2
	c-16.3,0-32.5-0.1-48.8-0.2c-15.3,0-30.5-0.3-45.8,0c-12.4,0.2-24.8,1.1-37.1,1.6c-1.9,0.1-3.9-0.2-5.8-0.3c-1.3-0.1-2.7-0.3-4-0.2
	c-6.7,0.4-13.4,1.1-20.1,1.4c-7.1,0.3-14.3-0.1-21.5,0.2c-19.5,0.7-39.1,1.6-58.6,2.2c-4.6,0.2-9.2-0.3-13.7-0.1
	c-7,0.3-13.9,1.1-20.9,1.1c-25.9,0.1-51.8-0.3-77.7,0c-13.2,0.1-26.5,1.5-39.7,2.1c-9.5,0.4-19,0.6-28.5,0.9
	c-6.1,0.2-12.3,0.3-18.4,0.3C-54.9,199.2-61.8,199-69.7,198.8z"/>
<g>
	<rect x="-36.1" y="233.8" class="st1" width="606.5" height="171.3"/>
	<g class="st2">
		<path class="st3" d="M-32.2,258.2h-2c-0.9,0-1.4-0.5-1.4-1.4v-21.7c0-0.9,0.5-1.4,1.4-1.4h2c0.9,0,1.4,0.5,1.4,1.4v21.7
			C-30.8,257.8-31.3,258.2-32.2,258.2z"/>
		<path class="st3" d="M-24,243.3c0-2.2,0.5-3.8,1.5-5c1-1.2,2.6-1.8,4.9-1.8c4.3,0,6.6,2,7.1,6.1c0.3-4.1,2.5-6.1,6.5-6.1
			c4.8,0,7.2,2.5,7.2,7.6v12.8c0,0.9-0.5,1.4-1.4,1.4h-2.1c-0.9,0-1.4-0.5-1.4-1.4v-12c0-1.2-0.3-2.2-0.9-2.9s-1.6-1-3-1
			c-0.5,0-1,0-1.5,0.1s-0.9,0.2-1.3,0.4s-0.8,0.4-1.1,0.7s-0.5,0.7-0.7,1.2c-0.2,0.5-0.3,1.1-0.3,1.7v11.8c0,0.9-0.5,1.4-1.4,1.4h-2
			c-0.9,0-1.4-0.5-1.4-1.4v-12c0-1.2-0.3-2.2-0.9-2.9s-1.6-1-3-1c-0.5,0-1,0-1.5,0.1c-0.4,0.1-0.9,0.2-1.3,0.3s-0.8,0.4-1.1,0.6
			s-0.5,0.6-0.7,1s-0.3,0.9-0.3,1.5v12.4c0,0.9-0.5,1.4-1.4,1.4h-2c-0.9,0-1.4-0.5-1.4-1.4V238c0-0.9,0.5-1.4,1.4-1.4h2
			c0.9,0,1.4,0.5,1.4,1.4V243.3z"/>
		<path class="st3" d="M9.8,242.5c0-0.9,0.1-1.7,0.4-2.4c0.2-0.7,0.6-1.3,1.1-1.9c0.5-0.6,1.2-1,2-1.3c0.9-0.3,1.9-0.5,3-0.5
			c2.8,0,4.9,0.8,6.2,2.4c1.3,1.6,2,3.9,2,7v1.7c0,3.1-0.7,5.5-2,7.1c-1.3,1.6-3.4,2.4-6.2,2.4c-2.3,0-3.9-0.5-4.9-1.6
			c-1-1.1-1.5-2.5-1.5-4.4v7.3c0,0.9-0.5,1.4-1.4,1.4h-2c-0.9,0-1.4-0.5-1.4-1.4V238c0-0.9,0.5-1.4,1.4-1.4h2c0.9,0,1.4,0.5,1.4,1.4
			V242.5z M14.7,253.1c1.2,0,2.1-0.2,2.8-0.5c0.7-0.4,1.2-1,1.6-1.9c0.4-0.9,0.5-2.2,0.5-3.8v-0.2c0-1.6-0.2-2.8-0.6-3.8
			s-0.9-1.6-1.6-1.9s-1.6-0.5-2.8-0.5c-0.7,0-1.3,0-1.8,0.1s-1,0.2-1.5,0.4s-0.9,0.5-1.1,1c-0.3,0.4-0.4,0.9-0.4,1.6v6.4
			c0,0.5,0.1,1,0.3,1.3c0.2,0.4,0.4,0.7,0.7,0.9s0.7,0.4,1.1,0.5s0.9,0.2,1.3,0.3S14.1,253.1,14.7,253.1z"/>
		<path class="st3" d="M31.2,238v5.2c0-4.5,2.1-6.8,6.2-6.8c0.4,0,0.7,0.1,0.9,0.3s0.3,0.6,0.3,1v2.4c0,0.6-0.1,1-0.4,1.3
			s-0.7,0.3-1.3,0.3c-0.6-0.1-1.3-0.1-2-0.1s-1.3,0.2-1.8,0.3c-0.6,0.2-1,0.5-1.4,0.9s-0.5,0.9-0.5,1.5v12.4c0,0.9-0.5,1.4-1.4,1.4
			h-2c-0.9,0-1.4-0.5-1.4-1.4V238c0-0.9,0.5-1.4,1.4-1.4h2C30.7,236.6,31.2,237.1,31.2,238z"/>
		<path class="st3" d="M44,235.8h-2.5c-0.8,0-1.2-0.4-1.2-1.2v-0.1c0-0.8,0.4-1.2,1.2-1.2H44c0.4,0,0.7,0.1,0.9,0.3
			c0.2,0.2,0.3,0.5,0.3,0.9v0.1c0,0.4-0.1,0.7-0.3,0.9C44.7,235.7,44.4,235.8,44,235.8z M43.8,258.2h-2c-0.9,0-1.4-0.5-1.4-1.4V238
			c0-0.9,0.5-1.4,1.4-1.4h2c0.9,0,1.4,0.5,1.4,1.4v18.8C45.2,257.8,44.7,258.2,43.8,258.2z"/>
		<path class="st3" d="M51.9,243.3c0-2.2,0.5-3.8,1.5-5c1-1.2,2.6-1.8,4.9-1.8c4.3,0,6.6,2,7.1,6.1c0.3-4.1,2.5-6.1,6.5-6.1
			c4.8,0,7.2,2.5,7.2,7.6v12.8c0,0.9-0.5,1.4-1.4,1.4h-2.1c-0.9,0-1.4-0.5-1.4-1.4v-12c0-1.2-0.3-2.2-0.9-2.9s-1.6-1-3-1
			c-0.5,0-1,0-1.5,0.1s-0.9,0.2-1.3,0.4s-0.8,0.4-1.1,0.7s-0.5,0.7-0.7,1.2c-0.2,0.5-0.3,1.1-0.3,1.7v11.8c0,0.9-0.5,1.4-1.4,1.4h-2
			c-0.9,0-1.4-0.5-1.4-1.4v-12c0-1.2-0.3-2.2-0.9-2.9s-1.6-1-3-1c-0.5,0-1,0-1.5,0.1c-0.4,0.1-0.9,0.2-1.3,0.3s-0.8,0.4-1.1,0.6
			s-0.5,0.6-0.7,1s-0.3,0.9-0.3,1.5v12.4c0,0.9-0.5,1.4-1.4,1.4h-2c-0.9,0-1.4-0.5-1.4-1.4V238c0-0.9,0.5-1.4,1.4-1.4h2
			c0.9,0,1.4,0.5,1.4,1.4V243.3z"/>
		<path class="st3" d="M100.1,253.2c-0.4,1.6-1.4,2.8-3.1,3.8s-3.8,1.4-6.4,1.4c-6.5,0-9.7-3.3-9.7-9.9v-2.1c0-6.6,3.3-9.9,9.8-9.9
			c3.2,0,5.6,0.7,7.2,2.1c1.6,1.4,2.4,3.4,2.4,6v2.3c0,0.9-0.4,1.3-1.3,1.3H85.7c0,2.2,0.4,3.7,1.2,4.5c0.8,0.9,2,1.3,3.7,1.3
			c1.3,0,2.4-0.1,3.1-0.4c0.8-0.3,1.3-0.8,1.6-1.5c0.1-0.3,0.2-0.5,0.2-0.7c0.1-0.5,0.3-0.9,0.5-1.1s0.6-0.3,1.1-0.3h2
			c0.9,0,1.3,0.5,1.3,1.4C100.3,252.2,100.2,252.7,100.1,253.2z M90.7,240.7c-1.5,0-2.7,0.3-3.5,1s-1.3,1.8-1.4,3.3h9.8V245
			c0-1.6-0.4-2.7-1.1-3.3S92.4,240.7,90.7,240.7z"/>
	</g>
	<g class="st2">
		<path class="st3" d="M-33.4,284.8h-2.2v-2.7h2.2V278h3.2v4.1h3.8v2.7h-3.8v8.4c0,0.8,0.2,1.4,0.6,1.8s1,0.6,1.7,0.6
			c0.2,0,0.5,0,0.8,0s0.5-0.1,0.8-0.1v2.8c-0.3,0.1-0.7,0.1-1,0.2s-0.7,0.1-1.1,0.1c-1.5,0-2.7-0.4-3.6-1.2s-1.3-2.1-1.3-3.9V284.8z
			"/>
		<path class="st3" d="M-15.9,298.5c-1.2,0-2.3-0.2-3.3-0.6c-1-0.4-1.8-1-2.5-1.7s-1.2-1.6-1.6-2.6s-0.6-2.2-0.6-3.4
			s0.2-2.4,0.6-3.4s0.9-1.9,1.6-2.6s1.5-1.3,2.5-1.7s2.1-0.6,3.3-0.6s2.3,0.2,3.3,0.6s1.8,1,2.5,1.7s1.2,1.6,1.6,2.6
			s0.6,2.2,0.6,3.4s-0.2,2.4-0.6,3.4s-0.9,1.9-1.6,2.6s-1.5,1.3-2.5,1.7C-13.5,298.3-14.6,298.5-15.9,298.5z M-15.9,296
			c1.5,0,2.7-0.5,3.5-1.6s1.3-2.5,1.3-4.2c0-1.8-0.4-3.2-1.3-4.3c-0.8-1-2-1.6-3.5-1.6c-1.5,0-2.6,0.5-3.5,1.6
			c-0.8,1.1-1.3,2.5-1.3,4.3c0,1.8,0.4,3.2,1.3,4.2S-17.4,296-15.9,296z"/>
		<path class="st3" d="M-3.7,282.2h3.2v2.5h0.1c0.5-0.9,1.2-1.6,2-2.1s1.9-0.7,3.2-0.7c1.9,0,3.3,0.5,4.1,1.5s1.2,2.5,1.2,4.3v10.5
			H6.9v-9.6c0-1.3-0.2-2.3-0.7-3s-1.3-1-2.4-1c-1.3,0-2.3,0.4-3.1,1.2s-1.1,1.9-1.1,3.2v9.2h-3.2V282.2z"/>
		<path class="st3" d="M24.1,282.2h3.2v2.5h0.1c0.5-0.8,1.2-1.5,2-2s1.9-0.8,3.2-0.8c1.1,0,2.1,0.2,3,0.6s1.6,1,2.1,1.7
			s1,1.6,1.3,2.6c0.3,1,0.4,2.1,0.4,3.3c0,1.2-0.2,2.4-0.5,3.4s-0.8,1.9-1.3,2.6s-1.3,1.3-2.1,1.7c-0.8,0.4-1.8,0.6-2.9,0.6
			c-1.3,0-2.3-0.3-3.1-0.8s-1.5-1.2-2-2.1h-0.1v8.4h-3.2V282.2z M31.6,296.1c1.4,0,2.5-0.5,3.3-1.5c0.8-1,1.2-2.5,1.2-4.4
			c0-1.8-0.4-3.3-1.2-4.3c-0.8-1-1.9-1.5-3.3-1.5c-1.5,0-2.6,0.5-3.3,1.6c-0.7,1-1,2.5-1,4.3s0.3,3.3,1,4.3S30.1,296.1,31.6,296.1z"
			/>
		<path class="st3" d="M43.5,282.2h3.2v2.5h0.1c0.5-0.9,1.1-1.6,1.8-2.1s1.6-0.7,2.6-0.7c0.1,0,0.3,0,0.5,0s0.4,0,0.5,0.1v3.3
			c-0.2-0.1-0.4-0.1-0.6-0.1s-0.5-0.1-0.7-0.1c-1.2,0-2.2,0.4-3,1.1s-1.1,1.8-1.1,3.2v8.8h-3.2V282.2z"/>
		<path class="st3" d="M62.5,298.5c-1.2,0-2.3-0.2-3.3-0.6c-1-0.4-1.8-1-2.5-1.7s-1.2-1.6-1.6-2.6s-0.6-2.2-0.6-3.4s0.2-2.4,0.6-3.4
			s0.9-1.9,1.6-2.6s1.5-1.3,2.5-1.7s2.1-0.6,3.3-0.6s2.3,0.2,3.3,0.6s1.8,1,2.5,1.7s1.2,1.6,1.6,2.6s0.6,2.2,0.6,3.4
			s-0.2,2.4-0.6,3.4s-0.9,1.9-1.6,2.6s-1.5,1.3-2.5,1.7C64.9,298.3,63.7,298.5,62.5,298.5z M62.5,296c1.5,0,2.7-0.5,3.5-1.6
			s1.3-2.5,1.3-4.2c0-1.8-0.4-3.2-1.3-4.3c-0.8-1-2-1.6-3.5-1.6c-1.5,0-2.6,0.5-3.5,1.6c-0.8,1.1-1.3,2.5-1.3,4.3
			c0,1.8,0.4,3.2,1.3,4.2S61,296,62.5,296z"/>
		<path class="st3" d="M89.1,282.2v2.5h-3c0.3,0.4,0.6,0.9,0.7,1.4c0.2,0.5,0.3,1.1,0.3,1.7c0,0.9-0.1,1.7-0.4,2.4s-0.7,1.3-1.2,1.8
			s-1.2,0.9-2,1.2s-1.6,0.4-2.6,0.4c-1.1,0-2.1-0.2-3-0.7c-0.3,0.2-0.5,0.5-0.7,0.7s-0.3,0.4-0.3,0.7c0,0.3,0.2,0.6,0.5,0.8
			s0.8,0.3,1.4,0.4c0.6,0.1,1.2,0.1,2,0.1s1.5,0.1,2.2,0.1s1.5,0.2,2.2,0.3c0.7,0.1,1.4,0.3,2,0.6s1,0.7,1.4,1.2
			c0.3,0.5,0.5,1.1,0.5,1.9c0,0.6-0.1,1.2-0.4,1.7s-0.7,1.1-1.3,1.5s-1.4,0.8-2.5,1c-1,0.2-2.4,0.4-4,0.4c-1.4,0-2.6-0.1-3.6-0.3
			c-1-0.2-1.7-0.5-2.3-0.8s-1-0.7-1.2-1.2s-0.4-0.9-0.4-1.4c0-0.7,0.2-1.3,0.5-1.9s0.9-1,1.6-1.4c-0.5-0.2-0.9-0.5-1.2-0.9
			s-0.5-0.8-0.5-1.4c0-0.7,0.2-1.3,0.6-1.8s1-1,1.7-1.3c-0.5-0.5-1-1.1-1.3-1.8s-0.5-1.5-0.5-2.4c0-0.9,0.1-1.7,0.4-2.4
			c0.3-0.7,0.7-1.3,1.2-1.9s1.2-0.9,2-1.2c0.8-0.3,1.6-0.4,2.6-0.4c0.4,0,0.8,0,1.1,0.1s0.7,0.1,1,0.2H89.1z M86.1,300.1
			c0-0.6-0.3-1-0.8-1.2c-0.6-0.2-1.3-0.4-2.1-0.5s-1.8-0.2-2.8-0.2s-1.9-0.1-2.8-0.2c-0.5,0.4-0.9,0.8-1,1.1s-0.2,0.6-0.2,0.9
			c0,0.7,0.4,1.2,1.1,1.6s2.1,0.6,4,0.6c1.7,0,2.9-0.2,3.6-0.5C85.7,301.3,86.1,300.8,86.1,300.1z M80.9,291.4c1,0,1.8-0.3,2.4-0.9
			c0.6-0.6,0.9-1.5,0.9-2.7s-0.3-2.1-0.9-2.7s-1.4-0.9-2.4-0.9s-1.8,0.3-2.4,0.9s-0.9,1.5-0.9,2.7s0.3,2.1,0.9,2.7
			C79,291.1,79.8,291.4,80.9,291.4z"/>
		<path class="st3" d="M93.1,282.2h3.2v2.5h0.1c0.5-0.9,1.1-1.6,1.8-2.1s1.6-0.7,2.6-0.7c0.1,0,0.3,0,0.5,0s0.4,0,0.5,0.1v3.3
			c-0.2-0.1-0.4-0.1-0.6-0.1s-0.5-0.1-0.7-0.1c-1.2,0-2.2,0.4-3,1.1s-1.1,1.8-1.1,3.2v8.8h-3.2V282.2z"/>
		<path class="st3" d="M114.5,296L114.5,296c-0.6,0.8-1.3,1.4-2.2,1.8s-2.1,0.7-3.4,0.7c-0.9,0-1.6-0.1-2.2-0.3
			c-0.6-0.2-1.2-0.5-1.6-0.9c-0.4-0.4-0.7-0.8-0.9-1.4s-0.3-1.1-0.3-1.6c0-1.2,0.3-2.1,0.8-2.7c0.5-0.6,1.2-1.1,2-1.5
			s1.7-0.6,2.6-0.7s1.8-0.3,2.6-0.4c0.6-0.1,1.1-0.2,1.4-0.3s0.6-0.2,0.8-0.3s0.3-0.3,0.4-0.5c0.1-0.2,0.1-0.4,0.1-0.7
			c0-0.8-0.3-1.5-0.8-2.1s-1.4-0.8-2.5-0.8c-1.1,0-1.9,0.2-2.5,0.7s-0.9,1.2-1,2.3h-3.1c0.2-1.7,0.8-3.1,1.8-4.1
			c1-1,2.6-1.5,4.9-1.5c2.2,0,3.9,0.5,4.9,1.6s1.6,2.7,1.6,4.8v9.9h-3.2V296z M114.5,290.4c-0.8,0.2-1.7,0.4-2.6,0.5
			s-1.7,0.3-2.4,0.5s-1.3,0.5-1.8,0.8s-0.7,0.9-0.7,1.6c0,0.7,0.3,1.3,0.8,1.7s1.2,0.6,2.1,0.6c0.7,0,1.3-0.1,1.9-0.3
			s1.1-0.5,1.5-0.9s0.7-0.8,1-1.3s0.3-1.1,0.3-1.8V290.4z"/>
		<path class="st3" d="M122.6,282.2h3.2v2.5h0.1c0.5-0.9,1.1-1.5,1.8-2.1s1.7-0.8,2.9-0.8c1.2,0,2.2,0.3,3,0.8s1.3,1.2,1.6,2.2h0
			c0.5-1,1.2-1.7,2-2.2c0.8-0.5,1.8-0.8,3-0.8c1.8,0,3,0.5,3.8,1.5c0.8,1,1.2,2.4,1.2,4.4v10.5H142v-9.6c0-1.4-0.2-2.4-0.7-3
			s-1.2-1-2.1-1c-1.1,0-2,0.3-2.6,1s-1,1.7-1,3.1v9.4h-3.2v-9.6c0-1.3-0.2-2.3-0.6-3s-1.1-1-2.2-1c-1.2,0-2.1,0.4-2.7,1.2
			s-1,1.9-1,3.2v9.2h-3.2V282.2z"/>
		<path class="st3" d="M150.3,282.2h3.2v2.5h0.1c0.5-0.9,1.1-1.5,1.8-2.1s1.7-0.8,2.9-0.8c1.2,0,2.2,0.3,3,0.8s1.3,1.2,1.6,2.2h0
			c0.5-1,1.2-1.7,2-2.2c0.8-0.5,1.8-0.8,3-0.8c1.8,0,3,0.5,3.8,1.5c0.8,1,1.2,2.4,1.2,4.4v10.5h-3.2v-9.6c0-1.4-0.2-2.4-0.7-3
			s-1.2-1-2.1-1c-1.1,0-2,0.3-2.6,1s-1,1.7-1,3.1v9.4H160v-9.6c0-1.3-0.2-2.3-0.6-3s-1.1-1-2.2-1c-1.2,0-2.1,0.4-2.7,1.2
			s-1,1.9-1,3.2v9.2h-3.2V282.2z"/>
		<path class="st3" d="M191.5,292.7c-0.1,0.8-0.3,1.6-0.6,2.3s-0.8,1.3-1.4,1.8s-1.3,0.9-2.1,1.2c-0.8,0.3-1.8,0.4-2.8,0.4
			c-1.3,0-2.4-0.2-3.4-0.6c-0.9-0.4-1.7-1-2.3-1.7s-1.1-1.6-1.4-2.6s-0.4-2.2-0.4-3.4s0.2-2.4,0.5-3.4c0.3-1,0.8-1.9,1.4-2.6
			c0.6-0.7,1.4-1.3,2.3-1.7s2-0.6,3.3-0.6s2.3,0.2,3.2,0.6s1.6,0.9,2.2,1.6c0.6,0.7,1,1.6,1.2,2.6s0.4,2.2,0.4,3.5v0.5h-11.3
			c0,1.8,0.4,3.1,1.1,3.9s1.7,1.3,3,1.3c1.1,0,2-0.3,2.7-0.8s1.1-1.3,1.2-2.4H191.5z M188.4,288.6c0-1.2-0.4-2.2-1-3
			s-1.6-1.2-2.8-1.2c-1.2,0-2.2,0.3-2.9,1c-0.7,0.7-1.2,1.7-1.3,3.2H188.4z"/>
		<path class="st3" d="M216,295.6L216,295.6c-0.6,0.9-1.2,1.6-2,2.1s-1.9,0.8-3.2,0.8c-1.1,0-2.1-0.2-3-0.6c-0.8-0.4-1.6-1-2.1-1.7
			s-1-1.6-1.3-2.6c-0.3-1-0.4-2.1-0.4-3.3c0-1.2,0.1-2.4,0.4-3.4s0.7-1.9,1.3-2.6s1.3-1.3,2.1-1.7s1.8-0.6,2.9-0.6
			c1.3,0,2.3,0.3,3.1,0.8s1.5,1.2,2,2h0.1V276h3.2v22.2H216V295.6z M211.7,296.1c1.5,0,2.6-0.5,3.3-1.5c0.7-1,1-2.5,1-4.4
			c0-1.8-0.4-3.3-1.1-4.3s-1.8-1.5-3.3-1.5c-1.4,0-2.5,0.5-3.3,1.5s-1.2,2.5-1.2,4.4c0,1.8,0.4,3.3,1.2,4.3S210.3,296.1,211.7,296.1
			z"/>
		<path class="st3" d="M237.9,292.7c-0.1,0.8-0.3,1.6-0.6,2.3s-0.8,1.3-1.4,1.8s-1.3,0.9-2.1,1.2c-0.8,0.3-1.8,0.4-2.8,0.4
			c-1.3,0-2.4-0.2-3.4-0.6c-0.9-0.4-1.7-1-2.3-1.7s-1.1-1.6-1.4-2.6s-0.4-2.2-0.4-3.4s0.2-2.4,0.5-3.4c0.3-1,0.8-1.9,1.4-2.6
			c0.6-0.7,1.4-1.3,2.3-1.7s2-0.6,3.3-0.6s2.3,0.2,3.2,0.6s1.6,0.9,2.2,1.6c0.6,0.7,1,1.6,1.2,2.6s0.4,2.2,0.4,3.5v0.5h-11.3
			c0,1.8,0.4,3.1,1.1,3.9s1.7,1.3,3,1.3c1.1,0,2-0.3,2.7-0.8s1.1-1.3,1.2-2.4H237.9z M234.8,288.6c0-1.2-0.4-2.2-1-3
			s-1.6-1.2-2.8-1.2c-1.2,0-2.2,0.3-2.9,1c-0.7,0.7-1.2,1.7-1.3,3.2H234.8z"/>
		<path class="st3" d="M251.4,276h3.2v22.2h-3.2V276z"/>
		<path class="st3" d="M260.8,276h3.5l-3.8,7.8H258L260.8,276z"/>
		<path class="st3" d="M267.8,276h14.4v2.9h-10.9v6.4h10.4v2.9h-10.4v7.1h11.2v2.9h-14.7V276z"/>
		<path class="st3" d="M287.3,282.2h3.2v9.6c0,1.3,0.2,2.3,0.7,3c0.4,0.7,1.2,1,2.3,1c1.3,0,2.2-0.4,3-1.2s1.1-1.9,1.1-3.2v-9.2h3.2
			v16.1h-3.2v-2.6h-0.1c-0.5,0.9-1.2,1.6-1.9,2.1s-1.8,0.8-3.1,0.8c-1.9,0-3.2-0.5-4-1.5s-1.2-2.5-1.2-4.3V282.2z"/>
		<path class="st3" d="M305.9,282.2h3.2v2.5h0.1c0.5-0.9,1.1-1.6,1.8-2.1s1.6-0.7,2.6-0.7c0.1,0,0.3,0,0.5,0s0.4,0,0.5,0.1v3.3
			c-0.2-0.1-0.4-0.1-0.6-0.1s-0.5-0.1-0.7-0.1c-1.2,0-2.2,0.4-3,1.1s-1.1,1.8-1.1,3.2v8.8h-3.2V282.2z"/>
		<path class="st3" d="M324.9,298.5c-1.2,0-2.3-0.2-3.3-0.6c-1-0.4-1.8-1-2.5-1.7s-1.2-1.6-1.6-2.6s-0.6-2.2-0.6-3.4
			s0.2-2.4,0.6-3.4s0.9-1.9,1.6-2.6s1.5-1.3,2.5-1.7s2.1-0.6,3.3-0.6s2.3,0.2,3.3,0.6s1.8,1,2.5,1.7s1.2,1.6,1.6,2.6
			s0.6,2.2,0.6,3.4s-0.2,2.4-0.6,3.4s-0.9,1.9-1.6,2.6s-1.5,1.3-2.5,1.7C327.2,298.3,326.1,298.5,324.9,298.5z M324.9,296
			c1.5,0,2.7-0.5,3.5-1.6s1.3-2.5,1.3-4.2c0-1.8-0.4-3.2-1.3-4.3c-0.8-1-2-1.6-3.5-1.6c-1.5,0-2.6,0.5-3.5,1.6
			c-0.8,1.1-1.3,2.5-1.3,4.3c0,1.8,0.4,3.2,1.3,4.2S323.4,296,324.9,296z"/>
		<path class="st3" d="M346,282.2h3.2v2.5h0.1c0.5-0.8,1.2-1.5,2-2s1.9-0.8,3.2-0.8c1.1,0,2.1,0.2,3,0.6s1.6,1,2.1,1.7
			s1,1.6,1.3,2.6c0.3,1,0.4,2.1,0.4,3.3c0,1.2-0.2,2.4-0.5,3.4s-0.8,1.9-1.3,2.6s-1.3,1.3-2.1,1.7c-0.8,0.4-1.8,0.6-2.9,0.6
			c-1.3,0-2.3-0.3-3.1-0.8s-1.5-1.2-2-2.1h-0.1v8.4H346V282.2z M353.5,296.1c1.4,0,2.5-0.5,3.3-1.5c0.8-1,1.2-2.5,1.2-4.4
			c0-1.8-0.4-3.3-1.2-4.3c-0.8-1-1.9-1.5-3.3-1.5c-1.5,0-2.6,0.5-3.3,1.6c-0.7,1-1,2.5-1,4.3s0.3,3.3,1,4.3S352,296.1,353.5,296.1z"
			/>
		<path class="st3" d="M372.4,298.5c-1.2,0-2.3-0.2-3.3-0.6c-1-0.4-1.8-1-2.5-1.7s-1.2-1.6-1.6-2.6s-0.6-2.2-0.6-3.4
			s0.2-2.4,0.6-3.4s0.9-1.9,1.6-2.6s1.5-1.3,2.5-1.7s2.1-0.6,3.3-0.6s2.3,0.2,3.3,0.6s1.8,1,2.5,1.7s1.2,1.6,1.6,2.6
			s0.6,2.2,0.6,3.4s-0.2,2.4-0.6,3.4s-0.9,1.9-1.6,2.6s-1.5,1.3-2.5,1.7C374.7,298.3,373.6,298.5,372.4,298.5z M372.4,296
			c1.5,0,2.7-0.5,3.5-1.6s1.3-2.5,1.3-4.2c0-1.8-0.4-3.2-1.3-4.3c-0.8-1-2-1.6-3.5-1.6c-1.5,0-2.6,0.5-3.5,1.6
			c-0.8,1.1-1.3,2.5-1.3,4.3c0,1.8,0.4,3.2,1.3,4.2S370.9,296,372.4,296z"/>
		<path class="st3" d="M384.6,282.2h3.2v9.6c0,1.3,0.2,2.3,0.7,3c0.4,0.7,1.2,1,2.3,1c1.3,0,2.2-0.4,3-1.2c0.7-0.8,1.1-1.9,1.1-3.2
			v-9.2h3.2v16.1h-3.2v-2.6h-0.1c-0.5,0.9-1.2,1.6-1.9,2.1s-1.8,0.8-3.1,0.8c-1.9,0-3.2-0.5-4-1.5s-1.2-2.5-1.2-4.3V282.2z"/>
		<path class="st3" d="M403.2,282.2h3.2v2.5h0.1c0.5-0.9,1.1-1.6,1.8-2.1s1.6-0.7,2.6-0.7c0.1,0,0.3,0,0.5,0c0.2,0,0.4,0,0.5,0.1
			v3.3c-0.2-0.1-0.4-0.1-0.6-0.1s-0.5-0.1-0.7-0.1c-1.2,0-2.2,0.4-3,1.1s-1.1,1.8-1.1,3.2v8.8h-3.2V282.2z"/>
		<path class="st3" d="M424.1,282.2h3.2v2.5h0.1c0.5-0.9,1.2-1.6,2-2.1s1.9-0.7,3.2-0.7c1.9,0,3.3,0.5,4.1,1.5s1.2,2.5,1.2,4.3v10.5
			h-3.2v-9.6c0-1.3-0.2-2.3-0.7-3s-1.3-1-2.4-1c-1.3,0-2.3,0.4-3.1,1.2s-1.1,1.9-1.1,3.2v9.2h-3.2V282.2z"/>
		<path class="st3" d="M450,298.5c-1.2,0-2.3-0.2-3.3-0.6c-1-0.4-1.8-1-2.5-1.7s-1.2-1.6-1.6-2.6s-0.6-2.2-0.6-3.4s0.2-2.4,0.6-3.4
			s0.9-1.9,1.6-2.6s1.5-1.3,2.5-1.7s2.1-0.6,3.3-0.6s2.3,0.2,3.3,0.6s1.8,1,2.5,1.7c0.7,0.7,1.2,1.6,1.6,2.6s0.6,2.2,0.6,3.4
			s-0.2,2.4-0.6,3.4s-0.9,1.9-1.6,2.6c-0.7,0.7-1.5,1.3-2.5,1.7C452.3,298.3,451.2,298.5,450,298.5z M450,296c1.5,0,2.7-0.5,3.5-1.6
			s1.3-2.5,1.3-4.2c0-1.8-0.4-3.2-1.3-4.3c-0.8-1-2-1.6-3.5-1.6c-1.5,0-2.6,0.5-3.5,1.6c-0.8,1.1-1.3,2.5-1.3,4.3
			c0,1.8,0.4,3.2,1.3,4.2C447.3,295.5,448.5,296,450,296z"/>
		<path class="st3" d="M462.3,284.8H460v-2.7h2.2V278h3.2v4.1h3.8v2.7h-3.8v8.4c0,0.8,0.2,1.4,0.6,1.8s1,0.6,1.7,0.6
			c0.2,0,0.5,0,0.8,0c0.3,0,0.5-0.1,0.8-0.1v2.8c-0.3,0.1-0.7,0.1-1,0.2s-0.7,0.1-1.1,0.1c-1.5,0-2.7-0.4-3.6-1.2s-1.3-2.1-1.3-3.9
			V284.8z"/>
		<path class="st3" d="M486.3,292.7c-0.1,0.8-0.3,1.6-0.6,2.3s-0.8,1.3-1.4,1.8c-0.6,0.5-1.3,0.9-2.1,1.2c-0.8,0.3-1.8,0.4-2.8,0.4
			c-1.3,0-2.4-0.2-3.4-0.6c-0.9-0.4-1.7-1-2.3-1.7s-1.1-1.6-1.4-2.6c-0.3-1-0.4-2.2-0.4-3.4s0.2-2.4,0.5-3.4c0.3-1,0.8-1.9,1.4-2.6
			c0.6-0.7,1.4-1.3,2.3-1.7c0.9-0.4,2-0.6,3.3-0.6s2.3,0.2,3.2,0.6s1.6,0.9,2.2,1.6c0.6,0.7,1,1.6,1.2,2.6s0.4,2.2,0.4,3.5v0.5H475
			c0,1.8,0.4,3.1,1.2,3.9c0.7,0.9,1.7,1.3,3,1.3c1.1,0,2-0.3,2.7-0.8c0.7-0.5,1.1-1.3,1.2-2.4H486.3z M483.2,288.6
			c0-1.2-0.4-2.2-1-3c-0.7-0.8-1.6-1.2-2.8-1.2c-1.2,0-2.2,0.3-2.9,1c-0.7,0.7-1.2,1.7-1.3,3.2H483.2z"/>
		<path class="st3" d="M490.8,282.2h3.2v2.5h0.1c0.5-0.9,1.1-1.6,1.8-2.1s1.6-0.7,2.6-0.7c0.1,0,0.3,0,0.5,0c0.2,0,0.4,0,0.5,0.1
			v3.3c-0.2-0.1-0.4-0.1-0.6-0.1s-0.5-0.1-0.7-0.1c-1.2,0-2.2,0.4-3,1.1s-1.1,1.8-1.1,3.2v8.8h-3.2V282.2z"/>
	</g>
	<g class="st2">
		<path class="st3" d="M-33.5,316h3.2v22.2h-3.2V316z"/>
		<path class="st3" d="M-11.6,332.7c-0.1,0.8-0.3,1.6-0.6,2.3s-0.8,1.3-1.4,1.8s-1.3,0.9-2.1,1.2c-0.8,0.3-1.8,0.4-2.8,0.4
			c-1.3,0-2.4-0.2-3.4-0.6c-0.9-0.4-1.7-1-2.3-1.7s-1.1-1.6-1.4-2.6s-0.4-2.2-0.4-3.4s0.2-2.4,0.5-3.4c0.3-1,0.8-1.9,1.4-2.6
			c0.6-0.7,1.4-1.3,2.3-1.7s2-0.6,3.3-0.6s2.3,0.2,3.2,0.6s1.6,0.9,2.2,1.6c0.6,0.7,1,1.6,1.2,2.6s0.4,2.2,0.4,3.5v0.5h-11.3
			c0,1.8,0.4,3.1,1.1,3.9s1.7,1.3,3,1.3c1.1,0,2-0.3,2.7-0.8s1.1-1.3,1.2-2.4H-11.6z M-14.7,328.6c0-1.2-0.4-2.2-1-3
			s-1.6-1.2-2.8-1.2c-1.2,0-2.2,0.3-2.9,1c-0.7,0.7-1.2,1.7-1.3,3.2H-14.7z"/>
		<path class="st3" d="M-5,333c0.1,1.2,0.5,2,1.2,2.4s1.6,0.7,2.6,0.7c1,0,1.7-0.2,2.2-0.5s0.8-0.9,0.8-1.6c0-0.6-0.2-1.1-0.7-1.4
			s-1.1-0.6-1.8-0.8c-0.7-0.2-1.5-0.4-2.3-0.5c-0.8-0.2-1.6-0.4-2.3-0.7c-0.7-0.3-1.3-0.8-1.8-1.4s-0.7-1.4-0.7-2.5
			c0-0.7,0.1-1.3,0.4-1.9c0.2-0.6,0.6-1.1,1.1-1.5s1.1-0.8,1.9-1c0.7-0.2,1.6-0.4,2.6-0.4c2,0,3.5,0.5,4.6,1.4s1.7,2.3,1.8,4.1H1.6
			c-0.1-1-0.4-1.8-0.9-2.3s-1.3-0.7-2.3-0.7c-0.5,0-1,0.1-1.3,0.2s-0.6,0.3-0.9,0.5c-0.2,0.2-0.4,0.4-0.5,0.7s-0.1,0.5-0.1,0.8
			c0,0.6,0.2,1,0.7,1.3s1.1,0.5,1.7,0.7c0.7,0.2,1.4,0.4,2.3,0.5s1.6,0.4,2.3,0.7c0.7,0.3,1.3,0.8,1.7,1.4c0.5,0.6,0.7,1.4,0.7,2.5
			c0,1.5-0.5,2.6-1.6,3.5c-1,0.9-2.6,1.3-4.7,1.3c-2.1,0-3.8-0.4-5-1.3s-1.8-2.3-1.9-4.2H-5z"/>
		<path class="st3" d="M18.1,322.2h3.2v2.5h0.1c0.5-0.9,1.1-1.6,1.8-2.1s1.6-0.7,2.6-0.7c0.1,0,0.3,0,0.5,0s0.4,0,0.5,0.1v3.3
			c-0.2-0.1-0.4-0.1-0.6-0.1s-0.5-0.1-0.7-0.1c-1.2,0-2.2,0.4-3,1.1s-1.1,1.8-1.1,3.2v8.8h-3.2V322.2z"/>
		<path class="st3" d="M43.7,332.7c-0.1,0.8-0.3,1.6-0.6,2.3s-0.8,1.3-1.4,1.8s-1.3,0.9-2.1,1.2c-0.8,0.3-1.8,0.4-2.8,0.4
			c-1.3,0-2.4-0.2-3.4-0.6c-0.9-0.4-1.7-1-2.3-1.7s-1.1-1.6-1.4-2.6s-0.4-2.2-0.4-3.4s0.2-2.4,0.5-3.4c0.3-1,0.8-1.9,1.4-2.6
			c0.6-0.7,1.4-1.3,2.3-1.7s2-0.6,3.3-0.6s2.3,0.2,3.2,0.6s1.6,0.9,2.2,1.6c0.6,0.7,1,1.6,1.2,2.6s0.4,2.2,0.4,3.5v0.5H32.4
			c0,1.8,0.4,3.1,1.1,3.9s1.7,1.3,3,1.3c1.1,0,2-0.3,2.7-0.8s1.1-1.3,1.2-2.4H43.7z M40.5,328.6c0-1.2-0.4-2.2-1-3s-1.6-1.2-2.8-1.2
			c-1.2,0-2.2,0.3-2.9,1c-0.7,0.7-1.2,1.7-1.3,3.2H40.5z M38.4,316h3.9l-4.5,4.3h-2.5L38.4,316z"/>
		<path class="st3" d="M50.2,333c0.1,1.2,0.5,2,1.2,2.4s1.6,0.7,2.6,0.7c1,0,1.7-0.2,2.2-0.5s0.8-0.9,0.8-1.6c0-0.6-0.2-1.1-0.7-1.4
			s-1.1-0.6-1.8-0.8c-0.7-0.2-1.5-0.4-2.3-0.5c-0.8-0.2-1.6-0.4-2.3-0.7c-0.7-0.3-1.3-0.8-1.8-1.4s-0.7-1.4-0.7-2.5
			c0-0.7,0.1-1.3,0.4-1.9c0.2-0.6,0.6-1.1,1.1-1.5s1.1-0.8,1.9-1c0.7-0.2,1.6-0.4,2.6-0.4c2,0,3.5,0.5,4.6,1.4s1.7,2.3,1.8,4.1h-3.1
			c-0.1-1-0.4-1.8-0.9-2.3s-1.3-0.7-2.3-0.7c-0.5,0-1,0.1-1.3,0.2s-0.6,0.3-0.9,0.5c-0.2,0.2-0.4,0.4-0.5,0.7s-0.1,0.5-0.1,0.8
			c0,0.6,0.2,1,0.7,1.3s1.1,0.5,1.7,0.7c0.7,0.2,1.4,0.4,2.3,0.5s1.6,0.4,2.3,0.7c0.7,0.3,1.3,0.8,1.7,1.4c0.5,0.6,0.7,1.4,0.7,2.5
			c0,1.5-0.5,2.6-1.6,3.5c-1,0.9-2.6,1.3-4.7,1.3c-2.1,0-3.8-0.4-5-1.3s-1.8-2.3-1.9-4.2H50.2z"/>
		<path class="st3" d="M64.5,322.2h3.2v9.6c0,1.3,0.2,2.3,0.7,3c0.4,0.7,1.2,1,2.3,1c1.3,0,2.2-0.4,3-1.2s1.1-1.9,1.1-3.2v-9.2h3.2
			v16.1h-3.2v-2.6h-0.1c-0.5,0.9-1.2,1.6-1.9,2.1s-1.8,0.8-3.1,0.8c-1.9,0-3.2-0.5-4-1.5s-1.2-2.5-1.2-4.3V322.2z"/>
		<path class="st3" d="M83.1,316h3.2v22.2h-3.2V316z"/>
		<path class="st3" d="M91.5,324.8h-2.2v-2.7h2.2V318h3.2v4.1h3.8v2.7h-3.8v8.4c0,0.8,0.2,1.4,0.6,1.8s1,0.6,1.7,0.6
			c0.2,0,0.5,0,0.8,0s0.5-0.1,0.8-0.1v2.8c-0.3,0.1-0.7,0.1-1,0.2s-0.7,0.1-1.1,0.1c-1.5,0-2.7-0.4-3.6-1.2s-1.3-2.1-1.3-3.9V324.8z
			"/>
		<path class="st3" d="M111.4,336L111.4,336c-0.6,0.8-1.3,1.4-2.2,1.8s-2.1,0.7-3.4,0.7c-0.9,0-1.6-0.1-2.2-0.3
			c-0.6-0.2-1.2-0.5-1.6-0.9c-0.4-0.4-0.7-0.8-0.9-1.4s-0.3-1.1-0.3-1.6c0-1.2,0.3-2.1,0.8-2.7c0.5-0.6,1.2-1.1,2-1.5
			s1.7-0.6,2.6-0.7s1.8-0.3,2.6-0.4c0.6-0.1,1.1-0.2,1.4-0.3s0.6-0.2,0.8-0.3s0.3-0.3,0.4-0.5c0.1-0.2,0.1-0.4,0.1-0.7
			c0-0.8-0.3-1.5-0.8-2.1s-1.4-0.8-2.5-0.8c-1.1,0-1.9,0.2-2.5,0.7s-0.9,1.2-1,2.3h-3.1c0.2-1.7,0.8-3.1,1.8-4.1
			c1-1,2.6-1.5,4.9-1.5c2.2,0,3.9,0.5,4.9,1.6s1.6,2.7,1.6,4.8v9.9h-3.2V336z M111.4,330.4c-0.8,0.2-1.7,0.4-2.6,0.5
			s-1.7,0.3-2.4,0.5s-1.3,0.5-1.8,0.8s-0.7,0.9-0.7,1.6c0,0.7,0.3,1.3,0.8,1.7s1.2,0.6,2.1,0.6c0.7,0,1.3-0.1,1.9-0.3
			s1.1-0.5,1.5-0.9s0.7-0.8,1-1.3s0.3-1.1,0.3-1.8V330.4z"/>
		<path class="st3" d="M119.6,324.8h-2.2v-2.7h2.2V318h3.2v4.1h3.8v2.7h-3.8v8.4c0,0.8,0.2,1.4,0.6,1.8s1,0.6,1.7,0.6
			c0.2,0,0.5,0,0.8,0s0.5-0.1,0.8-0.1v2.8c-0.3,0.1-0.7,0.1-1,0.2s-0.7,0.1-1.1,0.1c-1.5,0-2.7-0.4-3.6-1.2s-1.3-2.1-1.3-3.9V324.8z
			"/>
		<path class="st3" d="M132.1,333c0.1,1.2,0.5,2,1.2,2.4s1.6,0.7,2.6,0.7c1,0,1.7-0.2,2.2-0.5s0.8-0.9,0.8-1.6
			c0-0.6-0.2-1.1-0.7-1.4s-1.1-0.6-1.8-0.8c-0.7-0.2-1.5-0.4-2.3-0.5c-0.8-0.2-1.6-0.4-2.3-0.7c-0.7-0.3-1.3-0.8-1.8-1.4
			s-0.7-1.4-0.7-2.5c0-0.7,0.1-1.3,0.4-1.9c0.2-0.6,0.6-1.1,1.1-1.5s1.1-0.8,1.9-1c0.7-0.2,1.6-0.4,2.6-0.4c2,0,3.5,0.5,4.6,1.4
			s1.7,2.3,1.8,4.1h-3.1c-0.1-1-0.4-1.8-0.9-2.3s-1.3-0.7-2.3-0.7c-0.5,0-1,0.1-1.3,0.2s-0.6,0.3-0.9,0.5c-0.2,0.2-0.4,0.4-0.5,0.7
			s-0.1,0.5-0.1,0.8c0,0.6,0.2,1,0.7,1.3s1.1,0.5,1.7,0.7c0.7,0.2,1.4,0.4,2.3,0.5s1.6,0.4,2.3,0.7c0.7,0.3,1.3,0.8,1.7,1.4
			c0.5,0.6,0.7,1.4,0.7,2.5c0,1.5-0.5,2.6-1.6,3.5c-1,0.9-2.6,1.3-4.7,1.3c-2.1,0-3.8-0.4-5-1.3s-1.8-2.3-1.9-4.2H132.1z"/>
		<path class="st3" d="M166.3,335.6L166.3,335.6c-0.6,0.9-1.2,1.6-2,2.1s-1.9,0.8-3.2,0.8c-1.1,0-2.1-0.2-3-0.6
			c-0.8-0.4-1.6-1-2.1-1.7s-1-1.6-1.3-2.6c-0.3-1-0.4-2.1-0.4-3.3c0-1.2,0.1-2.4,0.4-3.4s0.7-1.9,1.3-2.6s1.3-1.3,2.1-1.7
			s1.8-0.6,2.9-0.6c1.3,0,2.3,0.3,3.1,0.8s1.5,1.2,2,2h0.1V316h3.2v22.2h-3.2V335.6z M162,336.1c1.5,0,2.6-0.5,3.3-1.5
			c0.7-1,1-2.5,1-4.4c0-1.8-0.4-3.3-1.1-4.3s-1.8-1.5-3.3-1.5c-1.4,0-2.5,0.5-3.3,1.5s-1.2,2.5-1.2,4.4c0,1.8,0.4,3.3,1.2,4.3
			S160.6,336.1,162,336.1z"/>
		<path class="st3" d="M188.2,332.7c-0.1,0.8-0.3,1.6-0.6,2.3s-0.8,1.3-1.4,1.8s-1.3,0.9-2.1,1.2c-0.8,0.3-1.8,0.4-2.8,0.4
			c-1.3,0-2.4-0.2-3.4-0.6c-0.9-0.4-1.7-1-2.3-1.7s-1.1-1.6-1.4-2.6s-0.4-2.2-0.4-3.4s0.2-2.4,0.5-3.4c0.3-1,0.8-1.9,1.4-2.6
			c0.6-0.7,1.4-1.3,2.3-1.7s2-0.6,3.3-0.6s2.3,0.2,3.2,0.6s1.6,0.9,2.2,1.6c0.6,0.7,1,1.6,1.2,2.6s0.4,2.2,0.4,3.5v0.5h-11.3
			c0,1.8,0.4,3.1,1.1,3.9s1.7,1.3,3,1.3c1.1,0,2-0.3,2.7-0.8s1.1-1.3,1.2-2.4H188.2z M185,328.6c0-1.2-0.4-2.2-1-3s-1.6-1.2-2.8-1.2
			c-1.2,0-2.2,0.3-2.9,1c-0.7,0.7-1.2,1.7-1.3,3.2H185z"/>
		<path class="st3" d="M201.7,324.8h-2.2v-2.7h2.2V318h3.2v4.1h3.8v2.7h-3.8v8.4c0,0.8,0.2,1.4,0.6,1.8s1,0.6,1.7,0.6
			c0.2,0,0.5,0,0.8,0s0.5-0.1,0.8-0.1v2.8c-0.3,0.1-0.7,0.1-1,0.2s-0.7,0.1-1.1,0.1c-1.5,0-2.7-0.4-3.6-1.2s-1.3-2.1-1.3-3.9V324.8z
			"/>
		<path class="st3" d="M219.3,338.5c-1.2,0-2.3-0.2-3.3-0.6c-1-0.4-1.8-1-2.5-1.7s-1.2-1.6-1.6-2.6s-0.6-2.2-0.6-3.4
			s0.2-2.4,0.6-3.4s0.9-1.9,1.6-2.6s1.5-1.3,2.5-1.7s2.1-0.6,3.3-0.6s2.3,0.2,3.3,0.6s1.8,1,2.5,1.7s1.2,1.6,1.6,2.6
			s0.6,2.2,0.6,3.4s-0.2,2.4-0.6,3.4s-0.9,1.9-1.6,2.6s-1.5,1.3-2.5,1.7C221.6,338.3,220.5,338.5,219.3,338.5z M219.3,336
			c1.5,0,2.7-0.5,3.5-1.6s1.3-2.5,1.3-4.2c0-1.8-0.4-3.2-1.3-4.3c-0.8-1-2-1.6-3.5-1.6c-1.5,0-2.6,0.5-3.5,1.6
			c-0.8,1.1-1.3,2.5-1.3,4.3c0,1.8,0.4,3.2,1.3,4.2S217.8,336,219.3,336z"/>
		<path class="st3" d="M231.4,322.2h3.2v9.6c0,1.3,0.2,2.3,0.7,3c0.4,0.7,1.2,1,2.3,1c1.3,0,2.2-0.4,3-1.2s1.1-1.9,1.1-3.2v-9.2h3.2
			v16.1h-3.2v-2.6h-0.1c-0.5,0.9-1.2,1.6-1.9,2.1s-1.8,0.8-3.1,0.8c-1.9,0-3.2-0.5-4-1.5s-1.2-2.5-1.2-4.3V322.2z"/>
		<path class="st3" d="M252,333c0.1,1.2,0.5,2,1.2,2.4s1.6,0.7,2.6,0.7c1,0,1.7-0.2,2.2-0.5s0.8-0.9,0.8-1.6c0-0.6-0.2-1.1-0.7-1.4
			s-1.1-0.6-1.8-0.8c-0.7-0.2-1.5-0.4-2.3-0.5c-0.8-0.2-1.6-0.4-2.3-0.7c-0.7-0.3-1.3-0.8-1.8-1.4s-0.7-1.4-0.7-2.5
			c0-0.7,0.1-1.3,0.4-1.9c0.2-0.6,0.6-1.1,1.1-1.5s1.1-0.8,1.9-1c0.7-0.2,1.6-0.4,2.6-0.4c2,0,3.5,0.5,4.6,1.4s1.7,2.3,1.8,4.1h-3.1
			c-0.1-1-0.4-1.8-0.9-2.3s-1.3-0.7-2.3-0.7c-0.5,0-1,0.1-1.3,0.2s-0.6,0.3-0.9,0.5c-0.2,0.2-0.4,0.4-0.5,0.7s-0.1,0.5-0.1,0.8
			c0,0.6,0.2,1,0.7,1.3s1.1,0.5,1.7,0.7c0.7,0.2,1.4,0.4,2.3,0.5s1.6,0.4,2.3,0.7c0.7,0.3,1.3,0.8,1.7,1.4c0.5,0.6,0.7,1.4,0.7,2.5
			c0,1.5-0.5,2.6-1.6,3.5c-1,0.9-2.6,1.3-4.7,1.3c-2.1,0-3.8-0.4-5-1.3s-1.8-2.3-1.9-4.2H252z"/>
		<path class="st3" d="M275.2,316h3.2v22.2h-3.2V316z"/>
		<path class="st3" d="M297.1,332.7c-0.1,0.8-0.3,1.6-0.6,2.3s-0.8,1.3-1.4,1.8s-1.3,0.9-2.1,1.2c-0.8,0.3-1.8,0.4-2.8,0.4
			c-1.3,0-2.4-0.2-3.4-0.6c-0.9-0.4-1.7-1-2.3-1.7s-1.1-1.6-1.4-2.6s-0.4-2.2-0.4-3.4s0.2-2.4,0.5-3.4c0.3-1,0.8-1.9,1.4-2.6
			c0.6-0.7,1.4-1.3,2.3-1.7s2-0.6,3.3-0.6s2.3,0.2,3.2,0.6s1.6,0.9,2.2,1.6c0.6,0.7,1,1.6,1.2,2.6s0.4,2.2,0.4,3.5v0.5h-11.3
			c0,1.8,0.4,3.1,1.1,3.9s1.7,1.3,3,1.3c1.1,0,2-0.3,2.7-0.8s1.1-1.3,1.2-2.4H297.1z M293.9,328.6c0-1.2-0.4-2.2-1-3
			s-1.6-1.2-2.8-1.2c-1.2,0-2.2,0.3-2.9,1c-0.7,0.7-1.2,1.7-1.3,3.2H293.9z"/>
		<path class="st3" d="M303.6,333c0.1,1.2,0.5,2,1.2,2.4s1.6,0.7,2.6,0.7c1,0,1.7-0.2,2.2-0.5s0.8-0.9,0.8-1.6
			c0-0.6-0.2-1.1-0.7-1.4s-1.1-0.6-1.8-0.8c-0.7-0.2-1.5-0.4-2.3-0.5c-0.8-0.2-1.6-0.4-2.3-0.7c-0.7-0.3-1.3-0.8-1.8-1.4
			s-0.7-1.4-0.7-2.5c0-0.7,0.1-1.3,0.4-1.9c0.2-0.6,0.6-1.1,1.1-1.5s1.1-0.8,1.9-1c0.7-0.2,1.6-0.4,2.6-0.4c2,0,3.5,0.5,4.6,1.4
			s1.7,2.3,1.8,4.1h-3.1c-0.1-1-0.4-1.8-0.9-2.3s-1.3-0.7-2.3-0.7c-0.5,0-1,0.1-1.3,0.2s-0.6,0.3-0.9,0.5c-0.2,0.2-0.4,0.4-0.5,0.7
			s-0.1,0.5-0.1,0.8c0,0.6,0.2,1,0.7,1.3s1.1,0.5,1.7,0.7c0.7,0.2,1.4,0.4,2.3,0.5s1.6,0.4,2.3,0.7c0.7,0.3,1.3,0.8,1.7,1.4
			c0.5,0.6,0.7,1.4,0.7,2.5c0,1.5-0.5,2.6-1.6,3.5c-1,0.9-2.6,1.3-4.7,1.3c-2.1,0-3.8-0.4-5-1.3s-1.8-2.3-1.9-4.2H303.6z"/>
		<path class="st3" d="M326.8,322.2h3.2v2.5h0.1c0.5-0.9,1.1-1.5,1.8-2.1s1.7-0.8,2.9-0.8c1.2,0,2.2,0.3,3,0.8s1.3,1.2,1.6,2.2h0
			c0.5-1,1.2-1.7,2-2.2c0.8-0.5,1.8-0.8,3-0.8c1.8,0,3,0.5,3.8,1.5c0.8,1,1.2,2.4,1.2,4.4v10.5h-3.2v-9.6c0-1.4-0.2-2.4-0.7-3
			s-1.2-1-2.1-1c-1.1,0-2,0.3-2.6,1s-1,1.7-1,3.1v9.4h-3.2v-9.6c0-1.3-0.2-2.3-0.6-3s-1.1-1-2.2-1c-1.2,0-2.1,0.4-2.7,1.2
			s-1,1.9-1,3.2v9.2h-3.2V322.2z"/>
		<path class="st3" d="M363.8,336L363.8,336c-0.6,0.8-1.3,1.4-2.2,1.8s-2.1,0.7-3.4,0.7c-0.9,0-1.6-0.1-2.2-0.3
			c-0.6-0.2-1.2-0.5-1.6-0.9c-0.4-0.4-0.7-0.8-0.9-1.4s-0.3-1.1-0.3-1.6c0-1.2,0.3-2.1,0.8-2.7c0.5-0.6,1.2-1.1,2-1.5
			s1.7-0.6,2.6-0.7s1.8-0.3,2.6-0.4c0.6-0.1,1.1-0.2,1.4-0.3s0.6-0.2,0.8-0.3s0.3-0.3,0.4-0.5c0.1-0.2,0.1-0.4,0.1-0.7
			c0-0.8-0.3-1.5-0.8-2.1s-1.4-0.8-2.5-0.8c-1.1,0-1.9,0.2-2.5,0.7s-0.9,1.2-1,2.3h-3.1c0.2-1.7,0.8-3.1,1.8-4.1
			c1-1,2.6-1.5,4.9-1.5c2.2,0,3.8,0.5,4.9,1.6s1.6,2.7,1.6,4.8v9.9h-3.2V336z M363.8,330.4c-0.8,0.2-1.7,0.4-2.6,0.5
			s-1.7,0.3-2.4,0.5s-1.3,0.5-1.8,0.8s-0.7,0.9-0.7,1.6c0,0.7,0.3,1.3,0.8,1.7s1.2,0.6,2.1,0.6c0.7,0,1.3-0.1,1.9-0.3
			s1.1-0.5,1.5-0.9s0.7-0.8,1-1.3s0.3-1.1,0.3-1.8V330.4z"/>
		<path class="st3" d="M372,324.8h-2.2v-2.7h2.2V318h3.2v4.1h3.8v2.7h-3.8v8.4c0,0.8,0.2,1.4,0.6,1.8s1,0.6,1.7,0.6
			c0.2,0,0.5,0,0.8,0s0.5-0.1,0.8-0.1v2.8c-0.3,0.1-0.7,0.1-1,0.2s-0.7,0.1-1.1,0.1c-1.5,0-2.7-0.4-3.6-1.2s-1.3-2.1-1.3-3.9V324.8z
			"/>
		<path class="st3" d="M396.1,332.3c-0.1,2-0.8,3.6-2,4.6s-2.9,1.6-5,1.6c-1.3,0-2.4-0.2-3.3-0.6c-1-0.4-1.7-1-2.4-1.7
			s-1.1-1.6-1.4-2.6c-0.3-1-0.5-2.1-0.5-3.4s0.2-2.4,0.5-3.4c0.3-1,0.8-1.9,1.4-2.6c0.6-0.7,1.4-1.3,2.4-1.7s2-0.6,3.3-0.6
			c2.1,0,3.8,0.5,5,1.6s1.9,2.6,2,4.7h-3.2c-0.1-1.2-0.5-2.1-1.2-2.7c-0.7-0.6-1.6-0.9-2.7-0.9c-1.4,0-2.4,0.5-3.2,1.4
			c-0.7,0.9-1.1,2.4-1.1,4.3c0,1.9,0.4,3.3,1.1,4.3s1.8,1.4,3.2,1.4c1.1,0,2-0.3,2.7-0.9c0.7-0.6,1-1.5,1.1-2.7H396.1z"/>
		<path class="st3" d="M400.6,316h3.2v8.7h0.1c0.5-0.9,1.2-1.6,2-2.1s1.9-0.7,3.2-0.7c1.9,0,3.3,0.5,4.1,1.5s1.2,2.5,1.2,4.3v10.5
			h-3.2v-9.6c0-1.3-0.2-2.3-0.7-3s-1.3-1-2.4-1c-1.3,0-2.3,0.4-3.1,1.2s-1.1,1.9-1.1,3.2v9.2h-3.2V316z"/>
		<path class="st3" d="M421.5,333c0.1,1.2,0.5,2,1.2,2.4s1.6,0.7,2.6,0.7c1,0,1.7-0.2,2.2-0.5c0.5-0.4,0.8-0.9,0.8-1.6
			c0-0.6-0.2-1.1-0.7-1.4s-1.1-0.6-1.8-0.8c-0.7-0.2-1.5-0.4-2.3-0.5c-0.8-0.2-1.6-0.4-2.3-0.7c-0.7-0.3-1.3-0.8-1.8-1.4
			s-0.7-1.4-0.7-2.5c0-0.7,0.1-1.3,0.4-1.9c0.2-0.6,0.6-1.1,1.1-1.5s1.1-0.8,1.9-1c0.7-0.2,1.6-0.4,2.6-0.4c2,0,3.5,0.5,4.6,1.4
			s1.7,2.3,1.8,4.1h-3.1c-0.1-1-0.4-1.8-0.9-2.3c-0.6-0.5-1.3-0.7-2.3-0.7c-0.5,0-1,0.1-1.3,0.2s-0.6,0.3-0.9,0.5
			c-0.2,0.2-0.4,0.4-0.5,0.7s-0.1,0.5-0.1,0.8c0,0.6,0.2,1,0.7,1.3c0.5,0.3,1.1,0.5,1.7,0.7c0.7,0.2,1.4,0.4,2.3,0.5
			s1.6,0.4,2.3,0.7c0.7,0.3,1.3,0.8,1.7,1.4c0.5,0.6,0.7,1.4,0.7,2.5c0,1.5-0.5,2.6-1.6,3.5c-1,0.9-2.6,1.3-4.7,1.3
			c-2.1,0-3.8-0.4-5-1.3c-1.2-0.9-1.8-2.3-1.9-4.2H421.5z"/>
	</g>
</g>
</svg>
