<?xml version="1.0" encoding="utf-8"?>
<!-- Generator: Adobe Illustrator 19.1.0, SVG Export Plug-In . SVG Version: 6.00 Build 0)  -->
<svg version="1.1" id="Calque_1" xmlns="http://www.w3.org/2000/svg" xmlns:xlink="http://www.w3.org/1999/xlink" x="0px" y="0px"
	 viewBox="0 0 74.6 74.6" style="enable-background:new 0 0 74.6 74.6;" xml:space="preserve">
<style type="text/css">
	.st0{fill:#6D9DBD;}
	.st1{fill:#6DA3C3;}
	.st2{fill:#F2A73B;}
	.st3{fill:none;}
	.st4{fill:none;stroke:#F2A73B;stroke-width:3;stroke-miterlimit:10;}
	.st5{fill:#6DA1C1;}
	.st6{fill:#F6AB3B;}
	.st7{fill:none;stroke:#F6AB3B;stroke-width:3;stroke-miterlimit:10;}
	.st8{fill:#F8AD3B;}
	.st9{fill:#C6C6C6;}
	.st10{fill:#F4901E;}
	.st11{fill:none;stroke:#F8AD3B;stroke-width:3;stroke-miterlimit:10;}
	.st12{fill:#FFFFFF;}
	.st13{fill:#FFFFFF;stroke:#C6C6C6;stroke-width:3;stroke-miterlimit:10;}
	.st14{fill:none;stroke:#C6C6C6;stroke-width:3;stroke-miterlimit:10;}
	.st15{stroke:#FCE9DB;stroke-width:2;stroke-miterlimit:10;}
	.st16{fill:#000;}
	.st17{fill:none;stroke:#F2A73B;stroke-miterlimit:10;}
</style>
<g>
	<path class="st16" d="M72,34.7c-2.2-5.4-6.6-7.7-12.2-8.3c-0.2,0-0.5,0-0.7-0.1c0,0,0,0,0-0.1c-0.5-5.3-0.3-10.5,0.6-15.8
		c0.2-0.9-0.4-1.8-1.4-1.8c-5.8-0.3-11.7-1.5-17.5-1.3c-7.5,0.3-15.5,3.5-23,2.4c-1.1-0.2-1.9,0.6-1.7,1.7c0.7,5.1,1,10.2,0.7,15.3
		c-2,0.1-3.9,0.3-5.9,0.5c-6,0.6-7.8,2.5-9.3,8.2c-2.2,8.2-3.5,26.9,10,25.4c0.2,0,0.4-0.1,0.5-0.2c-0.4,1.3-0.8,2.7-1.2,4
		c-0.3,0.9,0.5,1.8,1.4,1.8c17.1,0.2,34.2,0.5,51.3,0.7c0.9,0,1.6-0.9,1.4-1.8c-0.5-1.9-0.9-3.8-1.4-5.6
		C74.1,57.3,75.7,43.7,72,34.7z M19,12.7c6.8,0.4,13.8-1.9,20.4-2.4C45.3,9.9,51,11,56.7,11.4c-0.7,4.9-0.9,9.8-0.4,14.7
		c-6.7-0.4-13.7-0.1-20.4-0.1c-5.4,0-10.9,0.2-16.3,0.5C19.8,21.9,19.6,17.3,19,12.7z M19.9,44.2c0,0,0.1,0,0.1,0c0.6,0,1.2,0,1.8,0
		c2.1,0,4.1,0,6.2,0c5.3,0,10.6,0.1,15.9,0.2c3.9,0.1,8.4-0.4,12.2,0.4c0.3,0.1,1.1-0.1,1.4,0.1c-0.5-0.4,0.6,4.3,0.8,5.3
		c0.7,2.8,1.3,5.6,2,8.3c-0.1,0.5,0,1.1,0.3,1.4c0.4,1.5,0.7,3,1.1,4.5c-15.9-0.2-31.7-0.4-47.6-0.7C16.1,57.3,18,50.7,19.9,44.2z
		 M62.9,57.1c-0.8-3.2-1.5-6.4-2.3-9.5c-0.5-2.2-0.5-4.7-2.7-5.5c-3.3-1.3-8.7-0.4-12.2-0.5c-6-0.1-12.1-0.2-18.1-0.3
		c-2.2,0-7.5-1-9.5,0.4c0,0,0,0,0,0c-0.3,0.2-0.5,0.4-0.6,0.8c-1.5,5.4-3.1,10.7-4.6,16.1c-0.2-0.3-0.6-0.6-1.2-0.5
		C0.3,59.3,1.5,39.5,5.3,33.2c2.7-4.5,12-3.6,16.7-3.9c4.6-0.2,9.3-0.4,13.9-0.4c4.6,0,9.3,0,13.9,0.1c4.4,0.1,9.7-0.5,13.9,1.1
		C73.7,34,73.9,54.5,62.9,57.1z"/>
</g>
</svg>
