<?xml version="1.0" encoding="utf-8"?>
<!-- Generator: Adobe Illustrator 19.1.0, SVG Export Plug-In . SVG Version: 6.00 Build 0)  -->
<svg version="1.1" id="Calque_1" xmlns="http://www.w3.org/2000/svg" xmlns:xlink="http://www.w3.org/1999/xlink" x="0px" y="0px"
	 viewBox="-535.9 900.8 36.6 63.3" style="enable-background:new -535.9 900.8 36.6 63.3;" xml:space="preserve">
<style type="text/css">
	.st0{fill:#6F9BBB;}
	.st1{fill:#E46D65;}
	.st2{fill:#1D1D1B;}
	.st3{fill:#FFFFFF;stroke:#E46D65;stroke-width:3;stroke-miterlimit:10;}
	.st4{fill:#6EA2C2;}
	.st5{fill:none;stroke:#E46D65;stroke-width:3;stroke-miterlimit:10;}
	.st6{fill:#C2C2C2;}
	.st7{fill:#F3F6ED;}
	.st8{fill:#EA6C65;}
	.st9{fill:#80BA40;}
	.st10{fill:#B9B8B8;}
	.st11{fill:#1A94C1;}
	.st12{fill:none;stroke:#B9B8B8;stroke-width:3;stroke-miterlimit:10;}
	.st13{fill:none;}
	.st14{fill:#EC6C65;}
	.st15{fill:none;stroke:#EC6C65;stroke-width:4;stroke-miterlimit:10;}
	.st16{fill:#169BC9;}
	.st17{fill:#000;}
	.st18{fill:#C0C0C0;}
	.st19{fill:none;stroke:#C0C0C0;stroke-width:3;stroke-miterlimit:10;}
	.st20{fill:none;stroke:#EC6C65;stroke-width:3;stroke-miterlimit:10;}
	.st21{fill:none;stroke:#80BA40;stroke-width:3;stroke-miterlimit:10;}
	.st22{fill:#4D4D4D;}
	.st23{fill:#6DA0C0;}
	.st24{fill:#FFFFFF;stroke:#80BA40;stroke-width:3;stroke-miterlimit:10;}
	.st25{fill:#D9EAC5;}
	.st26{fill:#A6CF7A;}
	.st27{fill:#BFDC9F;}
	.st28{fill:#ECEED2;}
</style>
<g>
	<path class="st17" d="M-499.4,914.7c0.2-6.9-5.2-12-11.4-13.9c-0.6-0.2-0.9,0.8-0.3,1c5.2,1.6,9.8,5.5,10.5,11.1
		c0.8,5.7-2.9,9.9-8,11.7c-8.6,3.1-25.6,2.9-26.4-9.3c-0.4-6,4-11,9.3-13.1c0.6-0.2,0.3-1.2-0.3-1c-5,2-9.2,6.1-10,11.6
		c-0.8,5.9,2.6,10.8,8,12.9c1.1,0.4,2.2,0.8,3.4,1c-0.6,1.5-1.3,3-2,4.5c-0.4,0.8-0.7,1.6-1.1,2.4c-0.3,0.7-0.6,1.8-1.1,2.4
		c-1.4,1.6-5.2-0.8-5.6,2c-0.1,0.6-0.2,2.2,0.3,2.7c0.6,0.6,2.1,0.2,2.9,0.2c0.7,0,2,0.3,2.5-0.4c0.6-0.7,0.4-2.6,0.4-3.5
		c0.8-0.9,1.2-2.5,1.7-3.5c0.7-1.6,1.4-3.2,2.1-4.8c-1.1,7.5-2.2,14.9-3.3,22.4c0,0.3,0.1,0.6,0.4,0.6c1.6,0.3,3.3,0.6,4.9,0.8
		c0.1,0.2,0.2,0.3,0.5,0.3c-0.4,0-0.7,5.4-0.7,7.4c-1.6-0.3-3.2-0.5-4.8-0.4c-0.3,0-0.5,0.2-0.5,0.5c0,0.9-0.4,2.6,0.1,3.4
		c0.5,0.8,1.6,0.4,2.4,0.3c0.9-0.1,2.8,0.1,3.5-0.6c0.6-0.6,0.5-2.2,0.6-3c0-0.2-0.1-0.3-0.1-0.4c0.1-2,0.3-4.1,0.4-6.1
		c0-0.3,0.1-0.9,0.1-1.3c2.1,0.2,4.2,0.3,6.4,0.2c0.5,0,0.9,0,1.4-0.1c0,1.4,0.1,4.4,0.1,6.1c0,0.2,0,0.4,0,0.7c0,0-0.1,0-0.1,0
		c-0.6,0-0.6,1,0,1c0,0,0.1,0,0.1,0c0,1.1,0,2.2,0.6,2.7c0.4,0.3,1.3,0.2,1.8,0.2c0.7,0,1.7,0.2,2.4,0.1c1.1-0.3,1.2-2.5,1.4-3.4
		c0.1-0.3-0.2-0.7-0.5-0.6c-1.5,0.1-3.1,0.2-4.6,0.1c-0.1-2.3-0.2-4.6-0.2-6.9c1.3-0.1,2.5-0.2,3.8-0.4c1-0.1,2.8-0.1,3.3-1.1
		c0.3-0.6,0.1-1.3,0-1.9c-0.2-1.1-0.3-2.2-0.5-3.3c-0.3-2.2-0.7-4.3-1-6.5c-0.5-3.1-1-6.2-1.5-9.3c0.3,0.9,0.6,1.7,0.9,2.6
		c0.4,1,0.7,1.9,1.1,2.8c0.2,0.5,0.4,1.2,0.7,1.7c0,0.1,0,0.1,0,0.2c0,0.8-0.2,2.9,0.6,3.5c0.7,0.6,2.6,0.1,3.4-0.1
		c0.9-0.2,0.9-0.7,0.9-1.6c0-0.7,0.3-2-0.4-2.5c-0.8-0.7-2.2,0.1-3.1,0.1c-0.6,0-0.2,0.1-0.6-0.3c-0.4-0.4-0.6-1.3-0.8-1.8
		c-0.3-0.8-0.6-1.5-0.9-2.3c-0.6-1.7-1.2-3.5-1.7-5.2c-0.2-0.6-0.3-1.2-0.7-1.5C-503.7,924.1-499.5,920.4-499.4,914.7z
		 M-529.7,939.9c-0.3,0.1-3.2,0.2-3.4,0c-0.1-0.1-0.1-1.6,0-1.7c0.3-0.7,1.1-0.7,1.7-0.6c0.7,0,1.7,0.2,2.4,0c0,0.4-0.1,0.8-0.1,1.1
		C-529.2,939.3-529.1,939.7-529.7,939.9z M-523.4,962.8c-0.7,0.2-1.6,0.2-2.3,0.2c-0.9,0.1-1,0.4-1.2-0.5c-0.1-0.5,0-1.2,0-1.7
		c1.5,0,3,0.1,4.5,0.5C-522.4,961.9-522.5,962.5-523.4,962.8z M-508.2,960.4c-0.1,0.4-0.2,0.7-0.3,1c-0.4,0.8-0.4,0.9-1.3,1
		c-0.3,0-1.4,0.1-1.7-0.1c-0.7-0.4-0.7-1.1-0.7-1.8C-510.8,960.6-509.5,960.5-508.2,960.4z M-501.7,937.7c0.1,0.1,0,1.2,0,1.4
		c-0.2,0.9-0.6,0.9-1.3,1c-0.3,0-0.7,0.1-1,0.1c-0.4,0.2-0.5,0-0.4-0.5c-0.2-0.5-0.2-1.2-0.2-1.7
		C-503.6,938.1-502.4,937.1-501.7,937.7z M-506.4,947.9c0.2,1.1,0.5,2.5-0.7,3.1c-0.8,0.4-2.1,0.3-3,0.4c-0.7,0.1-1.5,0.1-2.2,0.2
		c-0.2-0.3-0.7-0.2-0.8,0.1c-0.8,0-1.6,0.1-2.4,0.1c-3.7,0-7.3-0.3-10.9-1c1.2-7.9,2.4-15.9,3.5-23.8c4.3,0.7,8.8,0.3,12.9-0.8
		c0,0.1,0.1,0.1,0.1,0.1C-508.7,933.5-507.5,940.7-506.4,947.9z"/>
	<path class="st17" d="M-523.3,916.4C-523.3,916.4-523.3,916.4-523.3,916.4c0,0.1,0.1,0.3,0.1,0.4c0.1,0.2,0.3,0.3,0.4,0.3
		c0.3,0.2,0.6,0.1,0.9-0.1c0,0,0.1,0,0.1,0c0.4-0.2,0.6-0.9,0.3-1.3c-0.1-0.1-0.2-0.2-0.3-0.3c0,0,0,0,0,0c-0.2-0.3-0.5-0.4-0.8-0.4
		c-0.5,0-0.9,0.4-0.9,0.9C-523.5,916-523.5,916.2-523.3,916.4z"/>
	<path class="st17" d="M-515.6,915.9c0.1,0.1,0.2,0.2,0.3,0.3c0.1,0.3,0.4,0.5,0.7,0.6c0.9,0.3,1.6-0.5,1.6-1.3c0-0.2,0-0.4-0.1-0.6
		c-0.2-0.8-1-1.1-1.7-0.9c0,0,0,0,0,0c-0.2,0-0.5,0.1-0.7,0.3c-0.4,0.4-0.4,0.8-0.2,1.2C-515.8,915.7-515.7,915.8-515.6,915.9z"/>
	<path class="st17" d="M-512,944.2C-512,944.2-512,944.2-512,944.2c-1-0.8-1.7-1.5-2.6-2.2c-0.5-0.4-1.3-1.2-2-1.3
		c-0.4,0-0.7,0.2-1,0.5c-1,0.8-1.8,1.6-2.9,2.3c0,0,0,0,0,0c-0.5-0.1-0.9,0.7-0.3,0.9c1,0.5,2,1.1,2.8,2c0.4,0.4,0.8,1.1,1.4,1.3
		c0.6,0.1,1.1-0.3,1.5-0.6c1.1-0.6,2.3-1.3,3.4-2C-511.2,944.8-512,944.1-512,944.2z M-517,946c-0.8-0.8-1.6-1.4-2.5-2
		c0.4-0.2,0.8-0.5,1.1-0.8c0.4-0.3,1-1.2,1.4-1.4c0.6-0.2,1.6,0.8,2,1.2c0.6,0.5,1.2,1.1,1.8,1.6c-0.6,0.3-1.2,0.7-1.7,1
		C-515.7,946.3-516.1,946.8-517,946z"/>
</g>
</svg>
