<?xml version="1.0" encoding="utf-8"?>
<!-- Generator: Adobe Illustrator 19.1.0, SVG Export Plug-In . SVG Version: 6.00 Build 0)  -->
<svg version="1.1" id="Calque_1" xmlns="http://www.w3.org/2000/svg" xmlns:xlink="http://www.w3.org/1999/xlink" x="0px" y="0px"
	 viewBox="0 0 173.6 240.5" style="enable-background:new 0 0 173.6 240.5;" xml:space="preserve">
<style type="text/css">
	.st0{fill:#72B52B;}
	.st1{fill:#71519B;}
	.st2{fill:#C0BFBF;}
	.st3{fill:#EDE5F2;}
	.st4{fill:none;stroke:#72B52B;stroke-width:4;stroke-linecap:round;stroke-miterlimit:10;}
	.st5{fill:none;stroke:#71519B;stroke-width:4;stroke-linecap:round;stroke-miterlimit:10;}
	.st6{fill:#6EA1C1;}
	.st7{fill:#BFBEBE;}
	.st8{fill:#55358A;}
	.st9{fill:#FFFFFF;}
	.st10{fill:#FFFFFF;stroke:#71519B;stroke-width:3;stroke-miterlimit:10;}
	.st11{fill:#FFFFFF;stroke:#72B52B;stroke-width:3;stroke-miterlimit:10;}
	.st12{fill:none;stroke:#FFFFFF;stroke-width:3;stroke-miterlimit:10;}
	.st13{fill:#F2BF00;}
</style>
<g>
	<path d="M147.8,3.4c7.2,1.4,14.7,1.9,21.4,5.6c2.1,1.2,3.2,2.6,3.5,4.8c0.2,1.3,0.2,2.8,0.7,4c0.6,1.6,0.1,2.7-1,3.6
		c-1.3,1.2-2.8,2.4-4.3,3.4c-6,4.1-12,8.2-18,12.3c-9.5,6.4-17.8,14.1-24.6,23.3c-3.9,5.2-8.2,10-11.2,15.9
		c-3.5,6.9-5.1,14.3-6.5,21.7c-2.1,11.5-3.1,23.1-3.1,34.8c0.1,14.9,3.2,29.3,11.6,41.9c6.5,9.8,13.7,19.2,23.7,26.1
		c7.2,5,13.8,10.9,21.4,15.2c3.6,2.1,6.8,4.9,10.2,7.5c2.2,1.7,2.1,2.7-0.2,4.4c-3.3,2.4-6.3,5.3-10.4,6.4
		c-10,4.2-30.2,6.2-52.4,6.2c-22.2,0-52.7-12.6-62.2-19.4s-29.1-26.4-34-38.3s-7.5-23.5-9.5-35.3c-1-6.3-2-12.5-2.6-18.9
		c-0.4-3.9-0.1-7.8,0.2-11.7c0.4-5.8,0.9-11.6,1.6-17.4c0.3-2.2,3.4-19.5,6.5-26.8c3.6-8.5,9.6-18.1,13.4-24.9
		C31,31.6,45.3,21.4,61,12.6c2.9-1.6,5.6-3.7,8.7-4.9c5.8-2.2,11.6-4.5,17.7-5.6C118.9-3.2,146.5,3.2,147.8,3.4z M163.5,226.2
		c-2-1.9-3.6-3.8-5.6-5.3c-7-5.3-14.5-9.9-21.4-15.1c-13.8-9-27.8-32.6-32.1-40.1c-6.2-10.9-9-22.7-10-35c-0.7-9.1,0.2-18.1,1.5-27
		c0.8-5.8,1-11.8,3.3-17.3c1.6-3.7,3-7.5,4.4-11.4c3.5-9.4,9.1-17.4,15.6-24.9c7.5-8.6,14.7-17.3,24.4-23.6
		c6.2-4,12.4-8.2,18.5-12.3c0.8-0.5,1.6-1,3.4-2.1c-5.3-1.5-9.4-3.3-13.7-3.8c-13.1-1.5-22.3-3.7-39.3-3.7C93,4.5,72.2,12,59.9,18.9
		c-6.2,3.4-11.9,7.8-17.8,11.7c-1.1,0.8-2.4,1.4-3.2,2.5C33.6,39.5,28,45.8,23.5,52.7C16.3,63.9,12.1,76.5,9.2,89.4
		c-2,8.7-4.2,17.4-4,26.4c0.1,2.7-0.6,5.4-0.7,8.1C4.2,127.4,7,148.8,8.6,156c1,4.6,1.8,9.3,3.6,13.6c4.6,11.1,10,21.6,18.4,30.6
		c6.4,6.8,12.8,13.6,20.8,18.1c8.7,5,17.7,10,27.7,12.5c4.1,1,8,3,12.2,3.5c7.4,0.8,30.8,1.9,34.1,1.7c5-0.3,9.9-1.2,14.9-1.5
		C148.6,233.9,156.3,231.6,163.5,226.2z"/>
	<path class="st1" d="M163.5,226.2c-2-1.9-3.6-3.8-5.6-5.3c-7-5.3-14.5-9.9-21.4-15.1c-13.8-9-27.8-32.6-32.1-40.1
		c-6.2-10.9-9-22.7-10-35c-0.7-9.1,0.2-18.1,1.5-27c0.8-5.8,1-11.8,3.3-17.3c1.6-3.7,3-7.5,4.4-11.4c3.5-9.4,9.1-17.4,15.6-24.9
		c7.5-8.6,14.7-17.3,24.4-23.6c6.2-4,12.4-8.2,18.5-12.3c0.8-0.5,1.6-1,3.4-2.1c-5.3-1.5-9.4-3.3-13.7-3.8
		c-13.1-1.5-22.3-3.7-39.3-3.7C93,4.5,72.2,12,59.9,18.9c-6.2,3.4-11.9,7.8-17.8,11.7c-1.1,0.8-2.4,1.4-3.2,2.5
		C33.6,39.5,28,45.8,23.5,52.7C16.3,63.9,12.1,76.5,9.2,89.4c-2,8.7-4.2,17.4-4,26.4c0.1,2.7-0.6,5.4-0.7,8.1
		C4.2,127.4,7,148.8,8.6,156c1,4.6,1.8,9.3,3.6,13.6c4.6,11.1,10,21.6,18.4,30.6c6.4,6.8,12.8,13.6,20.8,18.1
		c8.7,5,17.7,10,27.7,12.5c4.1,1,8,3,12.2,3.5c7.4,0.8,30.8,1.9,34.1,1.7c5-0.3,9.9-1.2,14.9-1.5
		C148.6,233.9,156.3,231.6,163.5,226.2z"/>
</g>
</svg>
