<?xml version="1.0" encoding="utf-8"?>
<!-- Generator: Adobe Illustrator 19.1.0, SVG Export Plug-In . SVG Version: 6.00 Build 0)  -->
<svg version="1.1" id="Calque_1" xmlns="http://www.w3.org/2000/svg" xmlns:xlink="http://www.w3.org/1999/xlink" x="0px" y="0px"
	 viewBox="0 0 297.9 265.1" style="enable-background:new 0 0 297.9 265.1;" xml:space="preserve">
<style type="text/css">
	.st0{fill:#72B52B;}
	.st1{fill:#71519B;}
	.st2{fill:#C0BFBF;}
	.st3{fill:#EDE5F2;}
	.st4{fill:none;stroke:#72B52B;stroke-width:4;stroke-linecap:round;stroke-miterlimit:10;}
	.st5{fill:none;stroke:#71519B;stroke-width:4;stroke-linecap:round;stroke-miterlimit:10;}
	.st6{fill:#6EA1C1;}
	.st7{fill:#BFBEBE;}
	.st8{fill:#55358A;}
	.st9{fill:#FFFFFF;}
	.st10{fill:#FFFFFF;stroke:#71519B;stroke-width:3;stroke-miterlimit:10;}
	.st11{fill:#FFFFFF;stroke:#72B52B;stroke-width:3;stroke-miterlimit:10;}
	.st12{fill:none;stroke:#FFFFFF;stroke-width:3;stroke-miterlimit:10;}
	.st13{fill:#F2BF00;}
</style>
<g>
	<g>
		<path d="M251.4,123c0.5,11-0.8,21.8-4.1,32.2c-2,6.2-4.3,12.2-6.9,18.1c-2.5,5.7-6.5,10.4-11,14.7c-5.9,5.6-12.7,10.2-19.4,14.8
			c-2.8,1.9-6,3.3-9.1,4.6c-6.7,2.8-13.5,5.4-20.7,6.4c-9.9,1.4-19.6,3.7-29.7,3.2c-5.9-0.3-11.4-2-17-3.8
			c-7.2-2.3-13.6-6.2-20.2-9.5c-1.8-0.9-3.4-2.4-5.1-3.6c-1.7-1.3-3.6-2.5-5.1-4c-2.3-2.2-4.4-4.7-6.6-7
			c-6.4-6.9-19.1-29.4-21.2-43.5c-0.7-2.1-0.8-4.3-1.1-6.5c-0.7-6.8-0.7-13.5,0.3-20.3c1.1-7.1,2.6-14.1,5.4-20.6
			c1.7-4,3.8-7.9,6-11.7c3.4-5.9,7-11.7,10.8-17.4c4.4-6.6,10.8-11,17.6-14.8c2.5-1.4,5-2.7,7.6-4c2.5-1.3,5.1-2.4,7.7-3.7
			c1-0.5,1.9-1.1,2.9-1.4c2.1-0.8,8.3-2,9.1-2.2c3.6-0.8,7.2-1.9,10.9-2.3c4-0.5,8.1-0.3,12.2-0.5c1.6-0.1,3.3-0.4,4.9-0.3
			c2.3,0.1,4.5,0.3,6.8,0.5c5.8,0.6,11.5,1.2,17.1,3.2c9.4,3.3,18.1,7.7,26,13.9c6.1,4.8,11.3,10.4,16,16.5c1.5,1.9,2.8,4,4.3,5.8
			c7.9,12,11.1,28.1,11.6,33C251.7,116.2,251.4,119.6,251.4,123z M98.3,184.9c1.5,2.6,3.6,4.5,5.6,6.7c5.3,5.8,11.8,9.9,18.7,13.3
			c3.9,1.9,8.1,3.5,12.3,4.6c4.4,1.1,9.1,1.5,13.6,2.1c19.8,1.3,40.6-3.3,51-8.6c4-2,7.7-4.7,11.3-7.4c3.4-2.6,6.5-5.6,9.8-8.4
			c4.4-3.7,8.4-7.8,11.2-12.9c3.3-6.1,6.5-12.1,8.7-18.8c3.1-9.4,5.2-18.8,4.8-28.8c-0.1-2.5-1-14.7-1.8-18.2
			c-0.6-2.5-1.4-4.9-1.8-7.3c-0.7-4.4-10-24.8-19.9-34.7c-4.4-4.9-9.5-9.1-15.1-12.6c-5.4-3.3-11-6.3-17.1-7.5
			c-7.1-1.3-14.2-2.9-21.6-2.4c-1.1,0.1-2.2-0.2-3.3-0.2c-1,0-11.6,0.1-13.2,0.4c-6.2,1.1-12.3,2.4-18.4,3.7
			c-2.6,0.5-12.4,6.2-14.5,7.3c-8.5,4.5-15.9,10.2-21.4,18.1C91.7,81.2,87,89.5,83.5,98.4c-2.8,7.1-5.1,14.3-6.3,21.8
			c-0.5,3.3-0.7,6.5-0.3,9.8c0.4,3.1,0,6.3,0.8,9.2c2.7,10.8,5.8,21.4,11,31.3C91,175.1,98.2,184.6,98.3,184.9z"/>
		<path d="M88.2,194.7c-2.1-2.6-7.1-10.7-8.9-10.7s-3.3,0.7-3.9,1.2c-1.9,1.2-3.5,2.7-5.5,3.7c-4.7,2.5-16.9,11.7-18.2,13.3
			c-2.6,3.1-2.6,5.2-0.5,9.4c0.6,1.2,1.8,2.2,2.9,3.1c3.6,2.8,7.3,5.6,11.1,8.3c0.6,0.4,5.1-1.2,6.1-2.4
			c5.7-6.9,11.5-13.9,17.2-20.8C89.8,198,89.6,196.4,88.2,194.7z M68.2,216c-4.9-3.2-7-8.1-9.5-12.8c-0.8-1.4-0.2-2.8,0.9-3.8
			c0.7-0.7,1.5-1.2,2.3-1.8c4.8-3.4,10.7-7.1,15.6-10.5c0.5-0.4,1.1-0.7,1.4-1.3c1.2,3.7,4.6,6.1,6.4,9.6
			C79.7,202.3,74,209.1,68.2,216z"/>
		<path d="M175,265.1c-1.7,0.1-2.5-3.6-2.8-4.2c-1.9-3.6-1.3-7.4-0.8-11.2c0.7-5.4,1.3-10.9,1.8-16.4c0.2-2.6,1.5-3.9,4-4.6
			c4.2-1.2,8.4-2.6,12.6-3.9c2.7-0.8,3.1-0.3,2.9,2.6c-0.1,2,0,4.2,0.7,6.1c1.2,3.3,2.9,6.4,4.3,9.6c0.9,2,1.5,4.1,2.4,6.1
			c1.4,3.1,0.2,6.1-0.3,9c-0.1,0.9-1.3,1.7-2.1,2.3c-3.3,2.5-7.2,3.1-11.1,3.6C183.4,264.7,175.7,265.1,175,265.1z M197.3,250.9
			c-0.4-3.8-2.2-6.4-3.4-9.2c-1.8-4.3-4.4-8.4-4.1-13.5c-4.2,1.2-8.2,2.4-12.1,3.6c-1.4,0.4-2.1,1.1-2.3,2.8c-0.5,6.3-1.3,12.7-2,19
			c-0.1,0.7,0.1,1.4,0.1,2.5C181.8,255.1,189.4,253,197.3,250.9z"/>
		<path d="M294.6,116.8c3,3.6,3.8,7.7,2.8,12.5c-0.6,2.9-0.7,5.9-0.9,8.8c-0.1,1.9-0.9,3-2.8,3.5c-1.8,0.5-3.6,0.7-5.5,0.7
			c-5.6-0.2-11.2,0-16.8-0.3c-3.3-0.1-6.5-0.7-9.8-1.2c-2.3-0.4-2.4-0.9-2.1-3.5c0.1-1.2-0.1-2.4-0.1-3.6c0-3.5,0-7.1,0-10.6
			c0-2.5,0.5-3.1,3-3.4c5.5-0.6,10.9-1.1,16.4-1.6C284,117.7,289.1,117.3,294.6,116.8z M262.2,123.2c0,3.9,0,7.8,0,12.1
			c9.7,0.2,19.2,0.4,28.9,0.6c0.3-5.5,0.7-10.6,1-15.8C282.1,120.6,272.1,121,262.2,123.2z"/>
		<path d="M218.3,211.9c3,2.2,6.1,4.3,9,6.5c3.1,2.4,6.2,4.9,9.2,7.5c1.4,1.2,2.9,2.2,4,3.6c0.9,1.1,1.6,2.6,2.1,4.1
			c0.2,0.7,0.1,1.8-0.4,2.4c-1.9,2.4-4,4.6-6.1,6.9c-0.4,0.4-0.8,0.8-1.3,1c-3.2,1.1-6.5,2-9.7,3.1c-2.5,0.8-4.5-0.2-6.2-1.9
			c-3.2-3.2-5.3-7.3-7.4-11.2c-1.1-2.1-2.2-4.3-2.9-6.6c-0.7-2.3-1.1-4.7-1.1-7c0-0.9,1.2-2.1,2.1-2.7
			C212.5,215.4,215.5,213.7,218.3,211.9z M210.2,220.9c2.1,6.9,6.1,12.7,10,18.6c5.6-3.1,11.2-5.5,15.7-9.9
			c-5.7-5.3-11.3-10.2-18.1-13.7C215.4,217.5,213,219.1,210.2,220.9z"/>
		<path d="M108.3,216c2,0.1,7.1,4.6,9.6,9.5c1.1,2.1,1,4-0.5,5.8c-3.8,4.7-7.6,9.4-11.4,14.1c-1.6,2-3.1,4-4.9,5.8
			c-2,2.1-5.4,2.2-7.9,0.7c-4.5-2.8-8.9-5.6-13.4-8.4c-1.7-1.1-2-1.7-1.1-3.5c1.5-3.4,3.5-6.1,7.4-7.4c2.2-0.7,4-2.6,5.9-4.1
			c3.9-3.1,7.7-6.2,11.4-9.4C104.4,218.2,106.3,215.9,108.3,216z M84.7,236.4c4.8,4,9.5,8,14.1,11.9c0.8-1.6,1.3-2.9,2.1-4
			c1.8-2.6,3.8-5.1,5.7-7.7c2.5-3.5,4.9-7,7.3-10.4c-1.5-1.8-6.2-5.5-7.3-5.1c-1.8,0.6-3.3,1.9-4.9,3c-0.9,0.6-1.7,1.5-2.5,2.1
			c-4.4,3.2-8,7.6-13.4,9.4C85.3,235.6,85,236,84.7,236.4z"/>
		<path d="M158.8,252.9c-0.3-4.2-1.7-20.8-0.6-22.3c-0.6-0.5-1-1-1.4-1.1c-5.2-0.7-12.2-1.3-17.4-2c-0.4,0.7-0.9,1.1-1.1,1.7
			c-0.9,2.3-1.7,4.5-2.4,6.8c-1.5,5-2.6,10.2-4.5,15.1c-0.9,2.3-1,4.3-0.9,6.8c7.2,1.2,14.4,2.5,21.5,3.7c2.5,0.4,5.1-0.5,6-2.8
			C158.5,257,158.9,254.9,158.8,252.9z M152.6,252.2c-5.6,0.5-13.8-1-17.9-3.5c1.7-5.3,5.4-12.8,7.2-18.2c0.8,0.2,1.7,0.3,2.7,0.4
			c3,0.3,6.1,0.3,8.8,1.4c0,3.6,0.1,6.9,0,10.2C153.2,245.7,153.9,249.1,152.6,252.2z"/>
		<path d="M46.8,65.6c2,0,13.1,11.2,19.2,16.9c2.1,2,4.3,4,7.2,5.1c2.1,0.8,2.4,1.6,1.5,3.8c-1.3,3.2-2.7,6.5-4.1,9.7
			c-1,2.2-1.4,2.4-3.9,1.9c-1.2-0.2-2.3-0.6-3.5-1c-4.3-1.2-8.7-2-13.2-2.6C46.6,99,43.3,97.9,40,97c-6.4-1.7-7.8-6-5.4-11.6
			c2.2-5,5-9.8,7.5-14.6C43,69.1,44.8,65.6,46.8,65.6z M69.7,90.1c-0.8-1.2-15.6-13.9-24-19.2c-1.9,2.8-3.9,5.2-5.4,7.8
			c-1.4,2.5-2.6,5.1-3.5,7.8c-1.2,3.5,0.5,5.7,4.2,6.2c7.8,1.1,21.3,6.1,24.1,6.1C67.8,98.8,70.6,91.3,69.7,90.1z"/>
		<path d="M277.4,187.6c-2.9-0.9-7.2-2.4-10-3.8c-2.6-1.3-5-3.1-7.6-4.7c-3.2-2-7.7-4.2-9.8-6s4.2-15.2,6.7-16.2
			c2.5-1,14.2,3.9,22.5,6.1c1.9,0.5,3.8,0.9,5.8,1.3c3.5,0.7,6.1,4.7,4.7,7.9C287.6,179.6,287.6,191.1,277.4,187.6z M257.2,160
			c-1.5,3.7-2.6,6.7-4,10.1c1.5,0.8,2.8,1.7,4.2,2.2c5.2,1.9,10.2,4,14.6,7.4c1.8,1.4,3.8,2.6,6.5,2.5c1.7-4.9,3.4-9.8,5.2-15.1
			C274.7,164.7,266,162.4,257.2,160z"/>
		<path d="M41.7,150.3c3.7-0.8,4.9,0.6,7.9,0.1c2-0.4,4.2-0.1,6.2-0.3c1.6-0.1,3.6,0,4.8-0.9c1.8-1.3,3.8-0.8,5.7-1.1
			c0.6-0.1,1.9,1,2,1.7c1.1,5.7,3.2,15,3.2,15.8c0,0.8-1.8,3.1-2.7,3.9c-0.5,0.5-1.3,0.9-2,1.1c-5.8,1.4-11.7,2.8-17.6,4.1
			c-0.7,0.2-1.5,0.4-2.2,0.6c-1.2,0.3-2.9,1.3-3.6,0.9c-1.6-1.1-3.3-2.3-4.2-4.4c-1.8-4.8-1.9-9.7-1.4-14.6
			C38.2,155,38,151.1,41.7,150.3z M43.4,154.5c-0.8,4.1,0.2,12.9,1.8,16.7c6.9-2.3,13.7-4.6,20.5-6.8c-1.2-3.8-2.4-7.9-3.7-12.1
			C56.1,153.4,49.7,152.2,43.4,154.5z"/>
		<path d="M240.9,187.9c1.4,0.4,2.7,0.8,3.9,1.1c1.4,0.4,2.8,0.7,4,1.3c5.5,2.5,11,5.1,16.4,7.6c0.3,0.1,0.6,0.3,0.9,0.4
			c4.7,2.3,5.4,3.1,7.4,7.8c0.5,1.2,0.3,1.9-0.8,2.8c-2.3,1.9-4.3,4-6.5,6.1c-2.6,2.5-4.9,5.3-8.9,5.9c-0.6,0.1-7.8-4.8-8.2-5.2
			c-4-3.2-8.1-6.4-12.1-9.6c-1-0.8-2.1-1.6-3.2-2.4c-2.8-2.2-2.9-3.2-0.8-6C235.7,194.5,238.3,191.3,240.9,187.9z M268.9,203.3
			c-1.3-0.8-2.1-1.3-2.9-1.7c-5.1-2.4-10.1-4.8-15.2-7c-1.9-0.8-3.9-1.6-5.9-2c-1.2-0.3-3-0.4-3.7,0.3c-2.1,2-3.8,4.4-5.8,6.7
			c0.9,1,1.4,2,2.2,2.7c4.6,3.9,9.3,7.7,14,11.5c1.6,1.3,2.3,1.3,4,0c3.1-2.4,6.3-4.8,9.4-7.2C266.1,205.6,267.3,204.6,268.9,203.3z
			"/>
		<path d="M268.1,64c-0.3,0.4-0.7,1.2-1.3,1.7c-4.6,3.3-16,10.3-17.8,11.1c-2.2,0.9-5.5-2.8-6.1-3.5c-1.6-1.9-3.4-3.7-5-5.6
			c-0.6-0.7-0.9-1.6-1.5-2.1c-2.3-2-1.4-3.1,0.2-4.6c2.5-2.6,5.2-5,7.8-7.6c2.3-2.2,4.5-4.5,6.8-6.8c0.6-0.6,1.2-1.3,2-1.8
			c3.1-1.9,3.6-1.7,5.8,1.3c1.3,1.9,3.1,3.4,4.5,5.2C266.1,54.9,267.3,59.1,268.1,64z M239.4,62.8c1.4,2,3,4,4.4,6.2
			c1.4,2.1,2.7,2.4,4.9,0.9c1.3-0.9,2.6-1.7,3.9-2.4c3.6-1.9,6.8-4.3,9.5-7.6c-2.5-4.1-5-8.2-7.6-12.6
			C249.2,52.6,244.2,57.8,239.4,62.8z"/>
		<path d="M111.3,13.4c6.1-4.2,13.4-5,20.1-7.5c2.3,1.3,4,3,4.7,5.9c1,3.8,2.9,7.4,4.2,11.1c1.1,3.1,1.9,6.3,2.9,9.5
			c0.4,1.4,0.4,2.3-1.4,2.6c-0.8,0.1-12.9,5.3-14.8,5.3c-1.9,0-4.3-5.1-5.2-6.7c-2.6-4.9-5.4-9.8-8-14.8
			C112.9,17.2,112.1,15.3,111.3,13.4z M115.1,14.2c3.2,7.7,6.8,15,11.9,21.7c3.3-2,6.6-3.9,10-5.9c-0.8-2.7-1.3-5.4-2.4-7.7
			c-1.9-4.2-4.2-8.2-4.5-13.1C124.7,10.3,119.7,11.3,115.1,14.2z"/>
		<path d="M150.8,21.7C151.1,15,151.4,9,151.6,3c0-1.7,0.8-2.4,2.4-2.5c1.1-0.1,9.2-0.7,12.3-0.3c2.1,0.3,4.1,0.8,5.5,2.5
			c0.4,0.5,0.9,1.3,0.9,2c0,3.4-0.2,6.8-0.4,10.1c-0.2,3.8-0.5,7.7-0.7,11.5c-0.1,2-0.8,3.6-2.1,5.1c-0.4,0.4-0.7,0.9-1.2,1.1
			c-4.1,1.5-8.3,2.8-12.8,1.5c-1.8-0.5-3.1-1.5-3.4-3.5C151.6,27.3,151.2,24.2,150.8,21.7z M165.3,30c0.6-2.1,1.4-24.8,0.9-26.6
			c-3.6,0-7.3,0-10.8,0c-1.7,4.7-1.5,9.2-1.3,13.7c0.2,4.5-1,9.2,0.9,13.5C158.6,30.4,161.8,30.2,165.3,30z"/>
		<path d="M80.6,37.4c0-2.6,1.2-3,3-4.6c4.3-3.7,13.8-13.3,15.6-13.4c1.9,0,7.3,11.1,10.7,17.9c1.8,1.9,2.6,4.8,3.7,7.3
			c0.5,1.2,0.4,2.4-0.7,3.3c-3.4,2.8-6.7,5.6-10.1,8.3c-1.2,1-2.4,0.4-3.5-0.6c-5-4.6-9.9-9.2-15-13.7C83.5,41,80.6,40,80.6,37.4z
			 M97.8,25.1c-5.9,2.8-10.4,7.6-14.9,12.1c4.2,3.8,8.2,7.4,12.2,11c1.5,1.3,3,2.5,5.1,2.5c2.5-2.1,5-4.2,7.3-6.1
			C104.2,37.8,101,31.5,97.8,25.1z"/>
		<path d="M252.1,89.5c0.7-1.5,23.1-15.4,25.2-15.4c2.1,0,4.3,2.2,4.6,2.7c1.5,4,2.9,8,4.2,12.1c1,3.3,0.1,5.1-3.2,6.4
			c-7.2,2.8-14.4,5.4-21.6,8.1c-1.7,0.6-3.1,0.2-3.4-1.4C257.1,97.7,251.4,91,252.1,89.5z M280.9,90.1c-1.4-3.7-2.7-7.3-4.2-11.2
			c-6.3,3.7-12.4,7.4-18.6,10.9c-1.4,0.8-1.8,1.8-1,3.3c0.9,1.8,1.8,3.7,2.8,5.6C266.8,95.9,273.6,93.1,280.9,90.1z"/>
		<path d="M225.1,53.7c-1.4,0-2.6-1.9-3.9-2.7c-3.4-2.3-6.9-4.7-10.4-6.9c-1.8-1.1-2.2-1.8-1.2-3.7c2.9-6,5.9-12,8.7-18.1
			c1-2.2,3-2.8,4.6-3.8c0.7-0.4,2.4,0.4,3.5,1c1.7,0.9,3.3,2.1,5,3c2.2,1.2,4,4.2,5.9,6.5c2,2.2,2.2,5.5,0.9,7.5
			c-2.8,4.4-5.5,8.9-8.6,13.2C228.7,51.2,226.6,53.7,225.1,53.7z M213,41.1c3.7,2.6,7.2,5,10.7,7.3c4.9-4.9,8.4-10.1,11.4-15.7
			c-2.3-3.6-6.8-7.7-12.6-11.4C219.3,27.9,216.1,34.5,213,41.1z"/>
		<path d="M33.8,128.9c-0.3-1.8,3.8-10.2,5.7-15.3c0.8-2.1,2.3-2.9,4.4-2.2c2.5,0.8,5.1,1.5,7.3,2.9c4.5,2.8,9.7,3.4,14.5,5.3
			c1.5,0.6,3,0.9,4,2.6c0.6,1.1,1.1,1.9,0.8,3.3c-0.7,2.8-0.9,5.6-1.6,8.4c-0.8,2.9-4.3,4.9-7.3,4.2c-7.2-1.6-14.3-3.3-21.4-5.1
			C37.8,132.3,34,130.8,33.8,128.9z M37.5,126.9c8.9,2.7,17.7,5.4,26.4,8.1c0.8-4.2,1.6-8.1,2.3-12.3c-1.1-0.4-2-0.7-2.9-1.1
			c-4.5-2-9.5-2.5-13.8-5.1c-2-1.2-4.3-2-6.9-3.1C41.4,118.4,37.7,122.1,37.5,126.9z"/>
		<path d="M77.5,73.2c-2.8-1.9-5.6-3.9-8.3-6C67.6,66,66,64.6,64.7,63c-1.7-2-1.9-3.6-0.4-5.7c1.5-2.1,2.5-4.3,3-6.9
			c0.4-2,2.3-2.9,4.3-1.9c1.7,0.8,3.5,1.8,4.5,3.2c3.4,4.7,8.3,7.1,13.2,9.5c0.7,0.3,1.5,0.5,2.1,0.9c1.2,0.8,1.5,1.7,1.2,3.3
			c-0.6,3.6-2,6.7-4.3,9.4c-1.3,1.5-2.5,3-5,2.2C82.5,76.8,79,74.2,77.5,73.2z M70.3,53.1c-1,1.6-1.8,2.8-2.6,4.1
			c-1.5,2.5-1.4,3.8,0.7,5.8c4,3.8,8.7,6.5,13.3,9.8c1.2-2.2,2.2-4.1,3.3-6c0.8-1.4,0.3-2.3-1-3c-1.2-0.7-2.6-1.3-3.6-2.2
			C77,58.9,73.7,56.1,70.3,53.1z"/>
		<path d="M208,11.4c-1.4,5.3-2.6,11-4.4,16.6c-0.9,2.8-2.9,5.4-4.5,7.9c-0.8,1.3-2.2,1.6-3.8,1.3c-1.9-0.5-3.8-0.9-5.8-1.4
			c-4.1-1.1-5.8-3.1-5.5-7.4c0.3-4.1,1.1-8.3,1.7-12.4c0.4-2.6,1-5.2,1.4-7.8c0.6-3.8,2-5,5.7-4.4c2.3,0.3,4.5,0.8,6.8,1.4
			C202.9,6.1,205.4,8.1,208,11.4z M196.3,32.6c2.8-6.9,5.4-13.8,6.8-20.8c-4.3-2.9-9.1-4.3-13.3-3.8c-1.1,7.3-3.1,14.6-3.2,22.3
			c2.9,0.7,5.6,1.2,8.2,2.6C195.3,33.3,196,33.2,196.3,32.6z"/>
		<path class="st13" d="M98.3,184.9c1.5,2.6,3.6,4.5,5.6,6.7c5.3,5.8,11.8,9.9,18.7,13.3c3.9,1.9,8.1,3.5,12.3,4.6
			c4.4,1.1,9.1,1.5,13.6,2.1c19.8,1.3,40.6-3.3,51-8.6c4-2,7.7-4.7,11.3-7.4c3.4-2.6,6.5-5.6,9.8-8.4c4.4-3.7,8.4-7.8,11.2-12.9
			c3.3-6.1,6.5-12.1,8.7-18.8c3.1-9.4,5.2-18.8,4.8-28.8c-0.1-2.5-1-14.7-1.8-18.2c-0.6-2.5-1.4-4.9-1.8-7.3
			c-0.7-4.4-10-24.8-19.9-34.7c-4.4-4.9-9.5-9.1-15.1-12.6c-5.4-3.3-11-6.3-17.1-7.5c-7.1-1.3-14.2-2.9-21.6-2.4
			c-1.1,0.1-2.2-0.2-3.3-0.2c-1,0-11.6,0.1-13.2,0.4c-6.2,1.1-12.3,2.4-18.4,3.7c-2.6,0.5-12.4,6.2-14.5,7.3
			c-8.5,4.5-15.9,10.2-21.4,18.1C91.7,81.2,87,89.5,83.5,98.4c-2.8,7.1-5.1,14.3-6.3,21.8c-0.5,3.3-0.7,6.5-0.3,9.8
			c0.4,3.1,0,6.3,0.8,9.2c2.7,10.8,5.8,21.4,11,31.3C91,175.1,98.2,184.6,98.3,184.9z"/>
		<path class="st13" d="M196.3,32.6c2.8-6.9,5.4-13.8,6.8-20.8c-4.3-2.9-9.1-4.3-13.3-3.8c-1.1,7.3-3.1,14.6-3.2,22.3
			c2.9,0.7,5.6,1.2,8.2,2.6C195.3,33.3,196,33.2,196.3,32.6z"/>
		<path class="st13" d="M213,41.1c3.7,2.6,7.2,5,10.7,7.3c4.9-4.9,8.4-10.1,11.4-15.7c-2.3-3.6-6.8-7.7-12.6-11.4
			C219.3,27.9,216.1,34.5,213,41.1z"/>
		<path class="st13" d="M239.4,62.8c1.4,2,3,4,4.4,6.2c1.4,2.1,2.7,2.4,4.9,0.9c1.3-0.9,2.6-1.7,3.9-2.4c3.6-1.9,6.8-4.3,9.5-7.6
			c-2.5-4.1-5-8.2-7.6-12.6C249.2,52.6,244.2,57.8,239.4,62.8z"/>
		<path class="st13" d="M280.9,90.1c-1.4-3.7-2.7-7.3-4.2-11.2c-6.3,3.7-12.4,7.4-18.6,10.9c-1.4,0.8-1.8,1.8-1,3.3
			c0.9,1.8,1.8,3.7,2.8,5.6C266.8,95.9,273.6,93.1,280.9,90.1z"/>
		<path class="st13" d="M262.2,123.2c0,3.9,0,7.8,0,12.1c9.7,0.2,19.2,0.4,28.9,0.6c0.3-5.5,0.7-10.6,1-15.8
			C282.1,120.6,272.1,121,262.2,123.2z"/>
		<path class="st13" d="M257.2,160c-1.5,3.7-2.6,6.7-4,10.1c1.5,0.8,2.8,1.7,4.2,2.2c5.2,1.9,10.2,4,14.6,7.4
			c1.8,1.4,3.8,2.6,6.5,2.5c1.7-4.9,3.4-9.8,5.2-15.1C274.7,164.7,266,162.4,257.2,160z"/>
		<path class="st13" d="M268.9,203.3c-1.3-0.8-2.1-1.3-2.9-1.7c-5.1-2.4-10.1-4.8-15.2-7c-1.9-0.8-3.9-1.6-5.9-2
			c-1.2-0.3-3-0.4-3.7,0.3c-2.1,2-3.8,4.4-5.8,6.7c0.9,1,1.4,2,2.2,2.7c4.6,3.9,9.3,7.7,14,11.5c1.6,1.3,2.3,1.3,4,0
			c3.1-2.4,6.3-4.8,9.4-7.2C266.1,205.6,267.3,204.6,268.9,203.3z"/>
		<path class="st13" d="M210.2,220.9c2.1,6.9,6.1,12.7,10,18.6c5.6-3.1,11.2-5.5,15.7-9.9c-5.7-5.3-11.3-10.2-18.1-13.7
			C215.4,217.5,213,219.1,210.2,220.9z"/>
		<path class="st13" d="M197.3,250.9c-0.4-3.8-2.2-6.4-3.4-9.2c-1.8-4.3-4.4-8.4-4.1-13.5c-4.2,1.2-8.2,2.4-12.1,3.6
			c-1.4,0.4-2.1,1.1-2.3,2.8c-0.5,6.3-1.3,12.7-2,19c-0.1,0.7,0.1,1.4,0.1,2.5C181.8,255.1,189.4,253,197.3,250.9z"/>
		<path class="st13" d="M152.6,252.2c-5.6,0.5-13.8-1-17.9-3.5c1.7-5.3,5.4-12.8,7.2-18.2c0.8,0.2,1.7,0.3,2.7,0.4
			c3,0.3,6.1,0.3,8.8,1.4c0,3.6,0.1,6.9,0,10.2C153.2,245.7,153.9,249.1,152.6,252.2z"/>
		<path class="st13" d="M84.7,236.4c4.8,4,9.5,8,14.1,11.9c0.8-1.6,1.3-2.9,2.1-4c1.8-2.6,3.8-5.1,5.7-7.7c2.5-3.5,4.9-7,7.3-10.4
			c-1.5-1.8-6.2-5.5-7.3-5.1c-1.8,0.6-3.3,1.9-4.9,3c-0.9,0.6-1.7,1.5-2.5,2.1c-4.4,3.2-8,7.6-13.4,9.4
			C85.3,235.6,85,236,84.7,236.4z"/>
		<path class="st13" d="M68.2,216c-4.9-3.2-7-8.1-9.5-12.8c-0.8-1.4-0.2-2.8,0.9-3.8c0.7-0.7,1.5-1.2,2.3-1.8
			c4.8-3.4,10.7-7.1,15.6-10.5c0.5-0.4,1.1-0.7,1.4-1.3c1.2,3.7,4.6,6.1,6.4,9.6C79.7,202.3,74,209.1,68.2,216z"/>
		<path class="st13" d="M43.4,154.5c-0.8,4.1,0.2,12.9,1.8,16.7c6.9-2.3,13.7-4.6,20.5-6.8c-1.2-3.8-2.4-7.9-3.7-12.1
			C56.1,153.4,49.7,152.2,43.4,154.5z"/>
		<path class="st13" d="M37.5,126.9c8.9,2.7,17.7,5.4,26.4,8.1c0.8-4.2,1.6-8.1,2.3-12.3c-1.1-0.4-2-0.7-2.9-1.1
			c-4.5-2-9.5-2.5-13.8-5.1c-2-1.2-4.3-2-6.9-3.1C41.4,118.4,37.7,122.1,37.5,126.9z"/>
		<path class="st13" d="M69.7,90.1c-0.8-1.2-15.6-13.9-24-19.2c-1.9,2.8-3.9,5.2-5.4,7.8c-1.4,2.5-2.6,5.1-3.5,7.8
			c-1.2,3.5,0.5,5.7,4.2,6.2c7.8,1.1,21.3,6.1,24.1,6.1C67.8,98.8,70.6,91.3,69.7,90.1z"/>
		<path class="st13" d="M70.3,53.1c-1,1.6-1.8,2.8-2.6,4.1c-1.5,2.5-1.4,3.8,0.7,5.8c4,3.8,8.7,6.5,13.3,9.8c1.2-2.2,2.2-4.1,3.3-6
			c0.8-1.4,0.3-2.3-1-3c-1.2-0.7-2.6-1.3-3.6-2.2C77,58.9,73.7,56.1,70.3,53.1z"/>
		<path class="st13" d="M97.8,25.1c-5.9,2.8-10.4,7.6-14.9,12.1c4.2,3.8,8.2,7.4,12.2,11c1.5,1.3,3,2.5,5.1,2.5
			c2.5-2.1,5-4.2,7.3-6.1C104.2,37.8,101,31.5,97.8,25.1z"/>
		<path class="st13" d="M115.1,14.2c3.2,7.7,6.8,15,11.9,21.7c3.3-2,6.6-3.9,10-5.9c-0.8-2.7-1.3-5.4-2.4-7.7
			c-1.9-4.2-4.2-8.2-4.5-13.1C124.7,10.3,119.7,11.3,115.1,14.2z"/>
		<path class="st13" d="M165.3,30c0.6-2.1,1.4-24.8,0.9-26.6c-3.6,0-7.3,0-10.8,0c-1.7,4.7-1.5,9.2-1.3,13.7c0.2,4.5-1,9.2,0.9,13.5
			C158.6,30.4,161.8,30.2,165.3,30z"/>
	</g>
	<g>
		<path d="M147.8,11.2c7.2,1.4,14.7,1.9,21.4,5.6c2.1,1.2,3.2,2.6,3.5,4.8c0.2,1.3,0.2,2.8,0.7,4c0.6,1.6,0.1,2.7-1,3.6
			c-1.3,1.2-2.8,2.4-4.3,3.4c-6,4.1-12,8.2-18,12.3c-9.5,6.4-17.8,14.1-24.6,23.3c-3.9,5.2-8.2,10-11.2,15.9
			c-3.5,6.9-5.1,14.3-6.5,21.7c-2.1,11.5-3.1,23.1-3.1,34.8c0.1,14.9,3.2,29.3,11.6,41.9c6.5,9.8,13.7,19.2,23.7,26.1
			c7.2,5,13.8,10.9,21.4,15.2c3.6,2.1,6.8,4.9,10.2,7.5c2.2,1.7,2.1,2.7-0.2,4.4c-3.3,2.4-6.3,5.3-10.4,6.4
			c-10,4.2-30.2,6.2-52.4,6.2s-52.7-12.6-62.2-19.4c-9.5-6.8-29.1-26.4-34-38.3s-7.5-23.5-9.5-35.3c-1-6.3-2-12.5-2.6-18.9
			c-0.4-3.9-0.1-7.8,0.2-11.7c0.4-5.8,0.9-11.6,1.6-17.4c0.3-2.2,3.4-19.5,6.5-26.8C12,72,18.1,62.4,21.9,55.6
			C31,39.4,45.3,29.2,61,20.3c2.9-1.6,5.6-3.7,8.7-4.9c5.8-2.2,11.6-4.5,17.7-5.6C118.9,4.5,146.5,10.9,147.8,11.2z M163.5,233.9
			c-2-1.9-3.6-3.8-5.6-5.3c-7-5.3-14.5-9.9-21.4-15.1c-13.8-9-27.8-32.6-32.1-40.1c-6.2-10.9-9-22.7-10-35c-0.7-9.1,0.2-18.1,1.5-27
			c0.8-5.8,1-11.8,3.3-17.3c1.6-3.7,3-7.5,4.4-11.4c3.5-9.4,9.1-17.4,15.6-24.9c7.5-8.6,14.7-17.3,24.4-23.6
			c6.2-4,12.4-8.2,18.5-12.3c0.8-0.5,1.6-1,3.4-2.1c-5.3-1.5-9.4-3.3-13.7-3.8c-13.1-1.5-22.3-3.7-39.3-3.7
			c-19.7,0-40.5,7.4-52.8,14.3C53.7,30,48,34.4,42.1,38.3c-1.1,0.8-2.4,1.4-3.2,2.5C33.6,47.3,28,53.5,23.5,60.5
			C16.4,71.7,12.1,84.2,9.2,97.1c-2,8.7-4.2,17.4-4,26.4c0.1,2.7-0.6,5.4-0.7,8.1c-0.2,3.4,2.5,24.8,4.2,32.1
			c1,4.6,1.8,9.3,3.6,13.6c4.6,11.1,10,21.6,18.4,30.6c6.4,6.8,12.8,13.6,20.8,18.1c8.7,5,17.7,10,27.7,12.5c4.1,1,8,3,12.2,3.5
			c7.4,0.8,30.8,1.9,34.1,1.7c5-0.3,9.9-1.2,14.9-1.5C148.6,241.6,156.3,239.3,163.5,233.9z"/>
		<path class="st1" d="M163.5,233.9c-2-1.9-3.6-3.8-5.6-5.3c-7-5.3-14.5-9.9-21.4-15.1c-13.8-9-27.8-32.6-32.1-40.1
			c-6.2-10.9-9-22.7-10-35c-0.7-9.1,0.2-18.1,1.5-27c0.8-5.8,1-11.8,3.3-17.3c1.6-3.7,3-7.5,4.4-11.4c3.5-9.4,9.1-17.4,15.6-24.9
			c7.5-8.6,14.7-17.3,24.4-23.6c6.2-4,12.4-8.2,18.5-12.3c0.8-0.5,1.6-1,3.4-2.1c-5.3-1.5-9.4-3.3-13.7-3.8
			c-13.1-1.5-22.3-3.7-39.3-3.7c-19.7,0-40.5,7.4-52.8,14.3C53.7,30,48,34.4,42.1,38.3c-1.1,0.8-2.4,1.4-3.2,2.5
			C33.6,47.3,28,53.5,23.5,60.5C16.4,71.7,12.1,84.2,9.2,97.1c-2,8.7-4.2,17.4-4,26.4c0.1,2.7-0.6,5.4-0.7,8.1
			c-0.2,3.4,2.5,24.8,4.2,32.1c1,4.6,1.8,9.3,3.6,13.6c4.6,11.1,10,21.6,18.4,30.6c6.4,6.8,12.8,13.6,20.8,18.1
			c8.7,5,17.7,10,27.7,12.5c4.1,1,8,3,12.2,3.5c7.4,0.8,30.8,1.9,34.1,1.7c5-0.3,9.9-1.2,14.9-1.5
			C148.6,241.6,156.3,239.3,163.5,233.9z"/>
	</g>
</g>
</svg>
