<?xml version="1.0" encoding="utf-8"?>
<!-- Generator: Adobe Illustrator 19.1.0, SVG Export Plug-In . SVG Version: 6.00 Build 0)  -->
<svg version="1.1" id="Calque_1" xmlns="http://www.w3.org/2000/svg" xmlns:xlink="http://www.w3.org/1999/xlink" x="0px" y="0px"
	 viewBox="0 0 62.8 60.6" style="enable-background:new 0 0 62.8 60.6;" xml:space="preserve">
<style type="text/css">
	.st0{fill:#6D9DBD;}
	.st1{fill:#F2A73B;}
	.st2{fill:#6DA3C3;}
	.st3{fill:none;}
	.st4{fill:none;stroke:#F2A73B;stroke-width:3;stroke-miterlimit:10;}
	.st5{fill:#6DA1C1;}
	.st6{fill:#F6AB3B;}
	.st7{fill:none;stroke:#F6AB3B;stroke-width:3;stroke-miterlimit:10;}
	.st8{fill:#F8AD3B;}
	.st9{fill:#C6C6C6;}
	.st10{fill:#F4901E;}
	.st11{fill:none;stroke:#F8AD3B;stroke-width:3;stroke-miterlimit:10;}
	.st12{fill:#FFFFFF;}
	.st13{fill:#FFFFFF;stroke:#C6C6C6;stroke-width:3;stroke-miterlimit:10;}
	.st14{fill:none;stroke:#C6C6C6;stroke-width:3;stroke-miterlimit:10;}
</style>
<path class="st1" d="M62.7,49.4C59.4,33.6,57,17.7,55.4,1.7c0-0.3-0.1-0.6-0.2-0.8c0,0,0,0,0-0.1c0,0,0,0,0,0
	c-0.3-0.5-0.9-0.8-1.6-0.7C36.4,4.1,19,6.4,1.5,6.8c-1,0-1.7,0.9-1.4,1.9c4.2,16.5,5.7,33.4,4.6,50.4c-0.1,0.8,0.5,1.3,1.1,1.4
	c0.2,0.1,0.5,0.1,0.8,0c18.2-3.9,36.7-6.7,55.2-9.3C62.5,51.2,62.9,50.1,62.7,49.4z M31.8,28.8c-5.4-4.2-10.9-8.3-16.5-12.3
	c-2.3-1.6-7.3-6.3-11-6.8c15.1-0.5,30-2.4,44.7-5.6C42,11.5,36.8,19.7,31.8,28.8z M4.1,12.7c1.1,0.3,3.4,2,4,2.4
	c2.6,1.7,5.2,3.5,7.7,5.3c5.2,3.8,10.4,7.7,15.4,11.6c0.7,0.6,1.9,0.6,2.4-0.3C39,21.8,44.7,12.7,52.7,4.7
	c1.6,14.7,3.8,29.4,6.8,43.9c-17.3,2.4-34.7,5-51.8,8.7C8.6,42.2,7.4,27.3,4.1,12.7z"/>
</svg>
