<?xml version="1.0" encoding="utf-8"?>
<!-- Generator: Adobe Illustrator 19.1.0, SVG Export Plug-In . SVG Version: 6.00 Build 0)  -->
<svg version="1.1" id="Calque_1" xmlns="http://www.w3.org/2000/svg" xmlns:xlink="http://www.w3.org/1999/xlink" x="0px" y="0px"
	 viewBox="0 0 189.8 148.1" style="enable-background:new 0 0 189.8 148.1;" xml:space="preserve">
<style type="text/css">
	.st0{fill:#254B86;}
	.st1{fill:#254B87;}
	.st2{fill:#492E1F;}
	.st3{fill:#DFB76A;}
	.st4{fill:#BFBEBE;}
	.st5{fill:#6EA2C2;}
	.st6{fill:#224E89;}
	.st7{fill:none;stroke:#224E89;stroke-width:3;stroke-miterlimit:10;}
	.st8{fill:#F5F9F8;}
	.st9{fill:#F5F9F8;stroke:#224E89;stroke-width:3;stroke-miterlimit:10;}
	.st10{fill:#F9CB00;}
	.st11{fill:#DF111A;}
	.st12{fill:#0B6EB1;}
	.st13{fill:#8D1514;}
	.st14{fill:#679FD0;}
	.st15{fill:#008549;}
	.st16{filter:url(#Adobe_OpacityMaskFilter);}
	.st17{fill:#CB9831;}
	.st18{fill:#1D1C1A;}
	.st19{fill:#C99730;}
</style>
<g id="Roumanie_1_">
	<path d="M57.7,10C65.6,18.4,76,21.3,87,22.5c1.8,0.2,3.8,0.5,5.6,0.2c12.4-1.9,24.9-2.8,36.9-7c3.6-1.3,7.7-2.1,8.7-8.1
		c3.1,3.2,5.3,5.2,7.1,7.5c7.8,10.3,15.5,20.8,23.3,31.2c3.6,4.8,7.2,9.5,10.7,14.3c0.8,1.1,1.3,2.5,1.5,3.9
		c0.4,3.4-0.3,6.1-3.6,8.1c-6.8,4.2-12.6,10-20.1,13.2c-1.9,0.8-3.6,2-5.6,3.3c-5.7-0.8-7.8-7.3-13.3-9.7c-0.1,1.1-0.3,1.8-0.2,2.5
		c1.6,12,3.3,24,4.7,36c1.4,12.7,1.2,13-11.3,16.4c-6.9,1.9-13.9,3.5-20.9,4.9c-2.6,0.5-5.5-0.4-8.2-0.2c-7.4,0.5-14.7,1.8-22.1,1.9
		c-5.7,0.1-11.5-0.8-17-1.9c-3.8-0.8-6.5-3.7-7-7.7c-1-7.5-1.9-15.1-2.7-22.6c-0.7-6.3-1.3-12.7-1.9-19c-0.5-5.5-1-11-1.5-16.3
		c-6.1,1.6-12.1,3.4-18.3,4.7c-7.3,1.5-9.5,0-12.1-7c-2.7-7.3-5.2-14.7-7.8-22.1c-0.9-2.5-1.9-4.9-2.6-7.4c-0.7-2.5,0.4-4.1,2.8-5.4
		c8-4.2,15.9-8.5,23.7-13c6.2-3.6,12.2-7.5,18.3-11.2C55,11.1,56.2,10.7,57.7,10z M23.6,69.2c8.3-2,15.9-4,23.5-5.5
		c6.1-1.2,7.7,0.5,7.9,6.7c0.1,4.3-0.2,8.7,0.2,13c1.3,13.7,3,27.3,4.4,41c0.7,6.4,2.7,8.8,9.3,9c11.9,0.3,23.8,0.1,35.7-1.7
		c5.6-0.8,11.5-0.3,17-1.3c3.9-0.7,7.8-2.6,11.1-5c1.4-1,1.6-4.5,1.3-6.8c-1.4-13.9-3.1-27.7-4.7-41.5c-0.2-2-0.6-4.2-1.6-5.9
		c-1.7-3.1-0.4-5.4,1.3-8.2c8.2,5,14.6,12.1,23,16.1c6.8-4.8,13.1-9.3,19.9-14.2c-6.3-7.8-12.3-14.8-17.8-22.2
		c-5.5-7.3-10.6-15-15.9-22.7c-2.4,1.3-4.5,2.1-6.3,3.5c-4.2,3.2-9,5.2-14,5.9c-8.4,1.2-16.7,2.8-25.4,1.5
		C79.2,29.1,66,27.8,55.1,19c-13.5,7.9-26.9,15.6-40.3,23.4C17.6,51.1,20.5,59.8,23.6,69.2z"/>
	<path class="st10" d="M23.6,69.2c8.3-2,15.9-4,23.5-5.5c6.1-1.2,7.7,0.5,7.9,6.7c0.1,4.3-0.2,8.7,0.2,13c1.3,13.7,3,27.3,4.4,41
		c0.7,6.4,2.7,8.8,9.3,9c11.9,0.3,23.8,0.1,35.7-1.7c5.6-0.8,11.5-0.3,17-1.3c3.9-0.7,7.8-2.6,11.1-5c1.4-1,1.6-4.5,1.3-6.8
		c-1.4-13.9-3.1-27.7-4.7-41.5c-0.2-2-0.6-4.2-1.6-5.9c-1.7-3.1-0.4-5.4,1.3-8.2c8.2,5,14.6,12.1,23,16.1
		c6.8-4.8,13.1-9.3,19.9-14.2c-6.3-7.8-12.3-14.8-17.8-22.2c-5.5-7.3-10.6-15-15.9-22.7c-2.4,1.3-4.5,2.1-6.3,3.5
		c-4.2,3.2-9,5.2-14,5.9c-8.4,1.2-16.7,2.8-25.4,1.5C79.2,29.1,66,27.8,55.1,19c-13.5,7.9-26.9,15.6-40.3,23.4
		C17.6,51.1,20.5,59.8,23.6,69.2z"/>
</g>
<g id="Albanie_1_">
	<path d="M132.4,72.5c0.9,7.2,1.8,14.5,2.8,21.7c1.1,7.9,2.7,15.8,3.3,23.8c0.3,4.6-0.6,9.4-1.5,14c-0.6,3.1-2.8,5.5-6.3,6.1
		c-7.1,1.1-14.2,2.9-21.3,3.1c-11.9,0.3-23.9-0.3-35.8-0.9c-3.6-0.2-7.3-1.2-10.8-2.3c-3.6-1.1-5.8-3.9-5.9-7.9
		c-0.4-15.4-0.8-30.9-1-46.4c0-3.6,1-7.2,1.6-11.9c-4.5,2.3-8.3,4.2-12.1,6.1c-4.6,2.3-8.8,1.1-11.3-3.3
		c-5.8-10.3-13-19.5-21.8-27.4c-3.4-3.1-3.2-6.8,0.6-9.7c5.6-4.1,11.3-8.1,17.2-11.8c8.5-5.3,17.2-10.3,25.9-15.2
		c2.6-1.5,5.5-3,8.4-3.6c1.6-0.3,4.2,0.7,5.3,2c6.2,7,14.4,8.5,23.2,9.8c9.3,1.4,18-0.9,26.8-2.6c3.4-0.6,6.5-3.4,9.4-5.5
		c4.5-3.3,7.9-3.5,11.5,0.6c8.9,10,17.7,20.1,26.5,30.1c2.7,3.1,5.6,6.1,8.5,9c5.3,5.4,5.7,11.8,0.1,16.6c-5.7,4.9-12,9.3-18.3,13.5
		c-4.2,2.8-8.8,3-13.2-0.6c-3.3-2.7-7-5.1-10.5-7.6C133.4,72.4,132.9,72.5,132.4,72.5z M132.6,123c-0.4-4-0.8-8.5-1.2-12.9
		c-1.3-13.1-2.5-26.2-3.8-39.2c-0.1-1.4-0.9-2.7-1.4-4.1c-0.7-2.2-1.3-4.4,1.3-6.4c0.9,0.5,2.1,0.9,3,1.6c4.8,3.5,9.7,7,14.4,10.6
		c1.9,1.4,3.6,1.7,5.6,0.3c5.5-3.7,11-7.3,16.4-11c2.2-1.6,4.2-3.5,5.9-4.8c-12.3-14.1-24.1-27.7-36.2-41.5
		c-11.3,9.9-24.3,13.9-38.4,14.5c-14.4,0.6-27.1-3.6-37.2-14.3c-12.7,4.4-39,21-43.3,27.2c7,9.2,14,18.3,21.4,27.9
		c8.3-4.1,17-8.4,26.8-13.3c0.1,3,0.9,5.3,0.1,6.3c-4.2,5.4-4.2,12-4.5,18.1c-0.6,12.5-0.3,25.1-0.2,37.7c0,5.6,1.1,6.8,6.8,7.5
		c3.7,0.5,7.4,0.8,11.1,0.7c6.8,0,13.6-0.5,20.4-0.6c7.4-0.1,14.8,0.1,22.2-0.1C125.5,127.2,129.2,126.4,132.6,123z"/>
	<path class="st11" d="M132.6,123c-0.4-4-0.8-8.5-1.2-12.9c-1.3-13.1-2.5-26.2-3.8-39.2c-0.1-1.4-0.9-2.7-1.4-4.1
		c-0.7-2.2-1.3-4.4,1.3-6.4c0.9,0.5,2.1,0.9,3,1.6c4.8,3.5,9.7,7,14.4,10.6c1.9,1.4,3.6,1.7,5.6,0.3c5.5-3.7,11-7.3,16.4-11
		c2.2-1.6,4.2-3.5,5.9-4.8c-12.3-14.1-24.1-27.7-36.2-41.5c-11.3,9.9-24.3,13.9-38.4,14.5c-14.4,0.6-27.1-3.6-37.2-14.3
		c-12.7,4.4-39,21-43.3,27.2c7,9.2,14,18.3,21.4,27.9c8.3-4.1,17-8.4,26.8-13.3c0.1,3,0.9,5.3,0.1,6.3c-4.2,5.4-4.2,12-4.5,18.1
		c-0.6,12.5-0.3,25.1-0.2,37.7c0,5.6,1.1,6.8,6.8,7.5c3.7,0.5,7.4,0.8,11.1,0.7c6.8,0,13.6-0.5,20.4-0.6c7.4-0.1,14.8,0.1,22.2-0.1
		C125.5,127.2,129.2,126.4,132.6,123z"/>
</g>
<g id="France_1_">
	<path d="M174.1,67.3c-10.5-12.2-19.1-25.7-27.9-39.1c-3.6-5.5-7.4-10.8-11.2-16.3c-26.4,12.2-51.4,14.4-75.9-2.3
		c-5.4,4.1-10.7,8-15.9,12c-6.6,5-13.1,9.9-19.6,15c-2.7,2.1-5.1,4.5-7.8,6.7c-3.8,3.1-3.3,6.6-1.3,10.4c3.7,7.1,7.5,14.2,10.7,21.6
		c1.5,3.4,3.6,5.9,7.1,7.6c7.6-2.5,15.5-5,23.6-7.6c-0.3,5.5-0.3,10.4-0.8,15.2c-1.1,10.8-2.3,21.6-3.6,32.4
		c-0.9,7.7,2.9,11.9,9.8,12.8c10.6,1.4,21.3,2.1,31.9,2.8c3.2,0.2,6.6-0.8,9.8-0.8c8.8,0,16.9-2.7,24.3-5.4
		c5.1-23.6,4.9-35.8,4-54.1c5.2,5.1,10.5,10.2,16.3,15.8c10.1-3.2,19.3-10.2,29-16.1C177.3,73.9,176.7,70.3,174.1,67.3z M30.4,74.4
		c-3.5-6.6-7-13.1-10.4-19.7c-2.4-4.6-2.1-6.2,2.4-9.4c11.2-8,22.8-15.5,34.1-23.3c0.4-0.3,0.7-0.5,1.1-0.6
		c1.5,23.5,1,35.5,0.5,41.6C48.7,67.1,40.4,72.2,30.4,74.4z M120.2,128.6c-3.8,2.1-19.9,2.4-22.7,2.4c-6,0.1-11.9-0.2-17.9-0.6
		c-5.7-0.4-11.4-1.2-17.1-2c-1.8-0.2-3.5-0.9-5.5-1.5c1-11.2,2.2-21.9,2.9-32.7c0.6-10.6,3.1-21.2,1.8-32.6c0,0,0,0,0,0
		C62,50.9,60.9,35.4,61.2,21c0.7,0.2,1.3,0.5,2.1,1c5.5,3.8,11.8,5.6,18.5,6.2c6.5,0.6,13.1,2.2,19.6,2c10.2-0.4,20.5-1.3,29.3-8.1
		c-5.7,14.7-9.2,29.8-8.5,40.8c0.1,1.6,0.2,2.8,0.4,3.8c-0.2,2.1-0.4,3.7-0.4,5.2C122.1,85.8,124,126.5,120.2,128.6z M154.5,81.1
		c-7.5,4.6-7.5,4.3-14-1.6c-3.2-2.9-6.9-5.2-10.2-7.9c-1.6-1.4-3.1-2.9-4.9-4.8c0.1-1,0.1-2.1,0-3.3c-0.5-6.1,0.6-21,9.5-43.1
		c11.7,17.1,22.8,33.4,34.2,50.1C165.2,75,159.7,77.9,154.5,81.1z"/>
	<path class="st1" d="M30.4,74.4c-3.5-6.6-7-13.1-10.4-19.7c-2.4-4.6-2.1-6.2,2.4-9.4c11.2-8,22.8-15.5,34.1-23.3
		c0.4-0.3,0.7-0.5,1.1-0.6c1.5,23.5,1,35.5,0.5,41.6C48.7,67.1,40.4,72.2,30.4,74.4z"/>
	<path class="st12" d="M120.2,128.6c-3.8,2.1-19.9,2.4-22.7,2.4c-6,0.1-11.9-0.2-17.9-0.6c-5.7-0.4-11.4-1.2-17.1-2
		c-1.8-0.2-3.5-0.9-5.5-1.5c1-11.2,2.2-21.9,2.9-32.7c0.6-10.6,3.1-21.2,1.8-32.6c0,0,0,0,0,0C62,50.9,60.9,35.4,61.2,21
		c0.7,0.2,1.3,0.5,2.1,1c5.5,3.8,11.8,5.6,18.5,6.2c6.5,0.6,13.1,2.2,19.6,2c10.2-0.4,20.5-1.3,29.3-8.1
		c-5.7,14.7-9.2,29.8-8.5,40.8c0.1,1.6,0.2,2.8,0.4,3.8c-0.2,2.1-0.4,3.7-0.4,5.2C122.1,85.8,124,126.5,120.2,128.6z"/>
	<path class="st1" d="M154.5,81.1c-7.5,4.6-7.5,4.3-14-1.6c-3.2-2.9-6.9-5.2-10.2-7.9c-1.6-1.4-3.1-2.9-4.9-4.8c0.1-1,0.1-2.1,0-3.3
		c-0.5-6.1,0.6-21,9.5-43.1c11.7,17.1,22.8,33.4,34.2,50.1C165.2,75,159.7,77.9,154.5,81.1z"/>
</g>
<g id="Suisse_1_">
	<path d="M179,39.7c-1.5-1.4-3.4-2.4-5.3-3.4c-5.3-2.8-10.8-5.3-16.1-8.3c-8-4.6-16.1-9.1-22.8-16c-2.6-2.7-5.2-2.7-8.2-0.8
		c-1.9,1.2-3.7,2.7-5.8,3.6c-8.2,3.8-16.6,6-25.6,5.1c-10.4-1-20.2-3.6-28.4-11.1c-1.8-1.7-3.7-3.1-5.5-4.6
		c-0.9,0.3-1.5,0.3-1.9,0.6c-7.4,6-15.4,11-23.6,15.6c-7.7,4.3-15,9.7-22.4,14.5c-5.7,3.7-7,6.2-4.8,12.8c3.5,10.1,7.4,20.1,11.3,30
		c1.2,3.1,3.2,4,6.4,3.4c1.8-0.4,3.5-1.2,5.3-1.7c4.6-1.3,9.3-2.5,14.8-4c-0.6,9.1-1.2,17-1.6,24.9c-0.5,10-1,20-1.4,29.9
		c-0.2,4.5,2.3,7.4,5.8,8.6c9,3.3,18.5,4.4,28,4.9c5.3,0.3,10.6-0.1,15.9-0.6c7-0.7,14.1-1.5,21-2.9c3.5-0.7,6.7-3.5,10.2-4.4
		c9.3-2.6,9.1-7.3,8-13.6c-1.6-8.9-1.9-17.9-2.1-26.9c-0.1-2.8-0.5-5.5-0.7-8.3c-0.4-3.9-0.7-7.8-1.1-11.9
		c7.5,0.2,13.7,2.8,19.9,5.6c2.1,1,4,1.9,6.3,0.9c4.6-1.9,8.7-4.4,11.4-9.2c1.2-2.2,2.8-4.3,4.2-6.4c3.6-5.3,7.3-10.5,10.6-16
		C183.2,45.7,182.7,43,179,39.7z M26.1,73.4c-0.7,0.2-1.4,0.5-2.7,0.9c-2.6-6.8-5.1-13.3-7.6-19.9c-0.3-0.7-0.3-1.6-0.7-2.3
		c-4.3-8-3.3-8,3.8-13c7-5,14.4-9.3,21.6-13.8c5-3.1,10-6.2,14.8-9.1c0.4,9,0,42.8-4.9,47.8C44,70.5,34,70.9,26.1,73.4z M110,130.8
		c-10.5,1.2-21.2,1.4-31.8,2.2c-10,0.8-19.5-2.2-29.1-4.2c-1.4-4.9,0.3-37.6,2.7-54.4c5-6.2,8.3-30.9,7.8-57.7
		c23.4,15.7,46.8,15.2,70.6,0.6c-4,13.3-8.1,29.5-9.1,47.2c-0.1,0-0.1,0-0.2,0c-0.8,20.7,3.4,40.2,5.3,60.4
		C121.7,128.6,115.8,130.1,110,130.8z M166.2,54.8c-3.6,5.3-7.5,10.4-11,15.8c-1.8,2.8-3.5,3-6.1,1.4c-4.1-2.6-8.5-3.8-13.3-4.2
		c-3.7-0.3-7.4-1.4-11.4-2.4c0.6-12.8,7.5-39.3,10-46.6c11.4,10.3,25.1,17,38.8,25.2C170.9,47.7,168.6,51.3,166.2,54.8z"/>
	<path class="st11" d="M110,130.8c-10.5,1.2-21.2,1.4-31.8,2.2c-10,0.8-19.5-2.2-29.1-4.2c-1.4-4.9,0.3-37.6,2.7-54.4
		c5-6.2,8.3-30.9,7.8-57.7c23.4,15.7,46.8,15.2,70.6,0.6c-4,13.3-8.1,29.5-9.1,47.2c-0.1,0-0.1,0-0.2,0c-0.8,20.7,3.4,40.2,5.3,60.4
		C121.7,128.6,115.8,130.1,110,130.8z"/>
	<path class="st8" d="M26.1,73.4c-0.7,0.2-1.4,0.5-2.7,0.9c-2.6-6.8-5.1-13.3-7.6-19.9c-0.3-0.7-0.3-1.6-0.7-2.3
		c-4.3-8-3.3-8,3.8-13c7-5,14.4-9.3,21.6-13.8c5-3.1,10-6.2,14.8-9.1c0.4,9,0,42.8-4.9,47.8C44,70.5,34,70.9,26.1,73.4z"/>
	<path class="st8" d="M166.2,54.8c-3.6,5.3-7.5,10.4-11,15.8c-1.8,2.8-3.5,3-6.1,1.4c-4.1-2.6-8.5-3.8-13.3-4.2
		c-3.7-0.3-7.4-1.4-11.4-2.4c0.6-12.8,7.5-39.3,10-46.6c11.4,10.3,25.1,17,38.8,25.2C170.9,47.7,168.6,51.3,166.2,54.8z"/>
</g>
<g id="Russie_1_">
	<path d="M145.9,91.8c-4.3-3.2-8.5-6.4-13.1-10c-2.6,4-1.9,8.2-1.4,12.1c1.7,11.7-0.3,22.9-3.3,34c-0.7,2.6-3.8,4.8-6.3,6.6
		c-10.7,7.9-22.9,7.2-35.1,5c-6.6-1.2-13-3.5-19.6-5.2c-5.8-1.4-11.7-2.3-17.3-4.1c-4.3-1.3-8.4-3.5-12.5-5.5
		c-3.4-1.6-3.2-4.9-2.6-7.8c1.4-6.8,3.2-13.5,4.6-20.4c1.6-8.1,3-16.3,4.6-25.1c-6.2,1.4-11.5,2.5-17.2,3.8
		c-1.6-3.1-3.2-6.1-4.6-9.1C17.9,57.2,13.5,48,9.1,38.8c-2.6-5.3-1.3-9.7,4.5-12c8.9-3.7,18.1-6.8,27-10.4c5-2,9.8-4.4,14.7-6.6
		c1.3-0.6,2.6-1,3.7-1.7c2.4-1.7,4-0.8,5.5,1.2c1.4,1.7,2.8,3.4,4.2,5c7.8,8.5,18,11.1,29,11.4c6.4,0.2,12.8,0.2,19.1-0.1
		c2.5-0.1,5.1-0.9,7.3-2.1c3.3-1.8,6.2-4.1,9.6-6.5c5.5,4.5,10.6,8.6,15.6,12.8c8.2,6.9,16.3,13.9,24.5,20.8
		c0.7,0.6,1.8,0.7,2.7,1.1c5.6,2.2,7.1,8.9,3,13.3C170,75.3,159.1,84.1,145.9,91.8z M171.7,58.9c-3.4-3-5.9-5.2-8.5-7.4
		c-6.6-5.7-13.1-11.6-20-17.1c-5.1-4.1-10.4-6.2-17.5-3.3c-11.8,4.9-24.4,6.1-36.9,3.1c-9-2.1-18.5-3.4-25.6-10.5
		c-2.2-2.2-4.5-5.4-7.1-5.8c-2.7-0.4-5.9,1.9-8.9,3c-9.1,3.4-18.3,6.7-27.4,10.2c-2.3,0.9-4.5,2.3-6.8,3.6c1,2.4,1.6,4.3,2.4,6.1
		c2.7,5.9,5.6,11.9,8.4,17.8c0.8,1.6,1.3,3.5,2.5,4.7c0.9,0.9,2.8,1.8,3.9,1.5c5.2-1.6,10.3-3.6,15.4-5.6c1.9-0.7,3.7-1.4,5.4,0.6
		c1.5,1.8,1.9,3.7,1.2,6.1c-2,6.8-3.8,13.7-5.5,20.7c-1.2,4.8-1.9,9.7-2.9,14.6c-1.1,5.6-2.3,11.2-3.5,17c3,1.1,5.3,2.3,7.8,2.8
		c17.6,3.3,34.9,7.8,52.9,9c3.5,0.2,7.9,0.8,10.5-0.9c5.5-3.6,10.1-8.9,11.3-15.7c1.3-7.4,1.7-15,1.8-22.6c0.1-6.5-0.7-13-1.2-19.4
		c-0.2-2.7,1.5-3.4,3.6-4.1c5.8,4.7,8.6,12.6,16,15.5c4.8-3.6,9.6-7.1,14.2-10.9C162,67.9,166.4,63.6,171.7,58.9z"/>
	<path class="st13" d="M171.7,58.9c-3.4-3-5.9-5.2-8.5-7.4c-6.6-5.7-13.1-11.6-20-17.1c-5.1-4.1-10.4-6.2-17.5-3.3
		c-11.8,4.9-24.4,6.1-36.9,3.1c-9-2.1-18.5-3.4-25.6-10.5c-2.2-2.2-4.5-5.4-7.1-5.8c-2.7-0.4-5.9,1.9-8.9,3
		c-9.1,3.4-18.3,6.7-27.4,10.2c-2.3,0.9-4.5,2.3-6.8,3.6c1,2.4,1.6,4.3,2.4,6.1c2.7,5.9,5.6,11.9,8.4,17.8c0.8,1.6,1.3,3.5,2.5,4.7
		c0.9,0.9,2.8,1.8,3.9,1.5c5.2-1.6,10.3-3.6,15.4-5.6c1.9-0.7,3.7-1.4,5.4,0.6c1.5,1.8,1.9,3.7,1.2,6.1c-2,6.8-3.8,13.7-5.5,20.7
		c-1.2,4.8-1.9,9.7-2.9,14.6c-1.1,5.6-2.3,11.2-3.5,17c3,1.1,5.3,2.3,7.8,2.8c17.6,3.3,34.9,7.8,52.9,9c3.5,0.2,7.9,0.8,10.5-0.9
		c5.5-3.6,10.1-8.9,11.3-15.7c1.3-7.4,1.7-15,1.8-22.6c0.1-6.5-0.7-13-1.2-19.4c-0.2-2.7,1.5-3.4,3.6-4.1c5.8,4.7,8.6,12.6,16,15.5
		c4.8-3.6,9.6-7.1,14.2-10.9C162,67.9,166.4,63.6,171.7,58.9z"/>
</g>
<g id="Pays_de_Galles_1_">
	<path d="M189.8,64.9c-2.6,11.4-11.5,16.6-19.2,22.7c-2.5,2-5.3,3.6-7.9,5.4c-3.5,2.4-5.2,2.1-8.7-0.8c-5.5-4.5-11.2-8.7-17.4-13.5
		c-0.5,5-1.4,9.4-1.4,13.8c0,7.6,0.8,15.1,0.9,22.7c0,3.7-0.8,7.5-1.3,11.2c-0.1,0.8-0.4,1.5-0.5,2.3c-1,8.1-1,8-8.6,9.3
		c-2.9,0.5-5.8,1.6-8.7,1.9c-7.5,0.9-15,2.2-22.5,2.2c-11.7,0.1-23.4-0.5-35.1-1.1c-3.7-0.2-7.5-1-11.2-1.7
		c-2.5-0.5-4.8-3.9-4.5-6.8c0.2-2.2,0.8-4.3,1.1-6.4c0.5-2.7,1.2-5.5,1.2-8.2c-0.1-9.6,1.3-19,3.4-28.4c1.3-5.8,1.9-11.7,2.9-18.3
		c-8.1,3.6-15.7,7-23.2,10.3c-2.6,1.1-5.2,2.1-7.7,3.2c-2.7,1.1-4.7,0.3-6-2.2c-4.7-9-9.4-18.1-13.9-27.2c-0.9-1.7-1-3.8-1.3-5.8
		c-0.5-3.2,0.5-5.6,3.6-7.4C15.9,35,27.9,27.4,40,20.2c7.7-4.6,15.7-8.7,23.5-13.1c2.8-1.6,4.9-1.8,8.1,0.3
		c13.4,9.1,28.5,13.3,44.7,12.5c5.7-0.3,11.6-1.6,16.8-3.8c5.1-2.2,9.8,0,14.6-0.7c0.8-0.1,1.8,1.3,2.7,2.1c2.8,2.5,5.6,4.9,8.3,7.6
		c3.4,3.4,6.8,6.7,9.8,10.4c5.8,7.1,11.5,14.3,17,21.6C187.3,59.4,188.4,62.3,189.8,64.9z M142.2,21.2c-5.1,2.6-9.4,4.8-13.7,6.9
		c-1.8,0.8-3.7,1.7-5.6,2c-7.9,0.9-15.9,1.8-23.8,0.1c-10.4-2.3-21.5-2.9-29.9-10.7c-4.6-4.3-8.4-4.4-14-0.9
		c-15,9.5-30.6,18-45.8,27c-2,1.2-3.6,2.9-5.9,4.9c5.1,9.7,10,18.9,15,28.2c11.4-8,22.8-15.3,36.7-18.6c2.4,1.2,3,4,2.7,6.8
		c-0.7,6.9-1.2,13.9-2.7,20.7c-2.7,12.3-4.2,24.7-5,37.2c-0.1,1.9-0.3,3.9-0.5,6.6c7.1,0.6,13.7,1.3,20.4,1.7
		c8.7,0.5,17.5,1,26.2,0.8c6.5-0.1,13-1.2,19.5-2c5.2-0.6,7.9-3.7,8.5-9.1c0.4-4.3,1.1-8.7,1.6-13c1.5-12.3,1.9-24.7-0.6-37
		c-0.3-1.6-1.2-3.5-2.4-4.4c-2.9-2.2-2.4-4.5-1.3-8.1c12.1,9.1,23.6,17.9,35.3,26.7c8.4-6.1,17.7-10,23.4-19.3
		C167.6,52.3,155.1,37,142.2,21.2z"/>
	<path class="st11" d="M142.2,21.2c-5.1,2.6-9.4,4.8-13.7,6.9c-1.8,0.8-3.7,1.7-5.6,2c-7.9,0.9-15.9,1.8-23.8,0.1
		c-10.4-2.3-21.5-2.9-29.9-10.7c-4.6-4.3-8.4-4.4-14-0.9c-15,9.5-30.6,18-45.8,27c-2,1.2-3.6,2.9-5.9,4.9c5.1,9.7,10,18.9,15,28.2
		c11.4-8,22.8-15.3,36.7-18.6c2.4,1.2,3,4,2.7,6.8c-0.7,6.9-1.2,13.9-2.7,20.7c-2.7,12.3-4.2,24.7-5,37.2c-0.1,1.9-0.3,3.9-0.5,6.6
		c7.1,0.6,13.7,1.3,20.4,1.7c8.7,0.5,17.5,1,26.2,0.8c6.5-0.1,13-1.2,19.5-2c5.2-0.6,7.9-3.7,8.5-9.1c0.4-4.3,1.1-8.7,1.6-13
		c1.5-12.3,1.9-24.7-0.6-37c-0.3-1.6-1.2-3.5-2.4-4.4c-2.9-2.2-2.4-4.5-1.3-8.1c12.1,9.1,23.6,17.9,35.3,26.7
		c8.4-6.1,17.7-10,23.4-19.3C167.6,52.3,155.1,37,142.2,21.2z"/>
</g>
<g id="Angleterre_1_">
	<path d="M184.8,39.8c-1.6-1.4-3.7-2.4-5.6-3.4c-5.7-2.8-11.6-5.3-17.2-8.3c-8.6-4.6-17.2-9.1-24.4-15.9c-2.8-2.7-5.6-2.7-8.8-0.8
		c-2,1.2-4,2.7-6.2,3.6c-8.7,3.7-17.8,6-27.4,5.1c-11.1-1-21.6-3.6-30.3-11.1c-1.9-1.6-4-3.1-5.9-4.6c-0.9,0.3-1.6,0.3-2,0.6
		c-7.9,6-16.4,10.9-25.3,15.6c-8.3,4.3-16,9.6-24,14.5c-6.1,3.7-7.5,6.2-5.1,12.7c3.7,10.1,7.9,20,12,29.9c1.3,3.1,3.5,4,6.8,3.3
		c1.9-0.4,3.8-1.2,5.7-1.7c5-1.3,9.9-2.5,15.8-4c-0.7,9.1-1.3,17-1.8,24.8c-0.6,9.9-1.1,19.9-1.5,29.8c-0.2,4.4,2.5,7.3,6.2,8.6
		c9.7,3.3,19.8,4.4,29.9,4.9c5.7,0.3,11.4-0.1,17-0.6c7.5-0.7,15.1-1.5,22.4-2.9c3.8-0.7,7.1-3.4,10.9-4.4c10-2.6,9.7-7.3,8.5-13.6
		c-1.7-8.9-5.4-42.9-5.9-47.1c8,0.2,16.3,2.9,22.8,5.8c2.2,1,4.3,1.9,6.8,0.9c4.9-1.9,9.4-4.3,12.1-9.1c1.3-2.2,3-4.2,4.5-6.4
		c3.8-5.3,7.8-10.5,11.4-16C189.3,45.8,188.8,43.1,184.8,39.8z M18.4,74.3c-2.8-6.7-6.9-16-8.8-22.2s-3.5-8,4.1-13
		c7.5-4.9,15.4-9.2,23.1-13.8c5.1-3,10.3-5.9,15.3-8.8c0.3,9-1.5,41.6-4,46.5S26.9,74,18.4,74.3z M111.1,130.6
		c-11.3,1.2-22.6,1.4-33.9,2.2c-10.7,0.8-20.9-2.2-31.1-4.1c-1.5-4.9,0.8-41.7,3.3-58.4c6.5-1.8,7.6-37.8,7.6-53.6
		c25.1,15.8,50.1,15.5,75.6,0.9c-4.7,16.5-8.1,32.1-9.8,48.3c0,0.3-0.1,0.4-0.1,0.4l0.1,0c-0.5,19.9,3.8,38.8,5.7,58.3
		C123.6,128.4,117.3,130,111.1,130.6z M171.2,54.8c-3.9,5.3-8,10.4-11.7,15.8c-1.9,2.8-3.5,2.5-6.5,1.4c-6.1-2.2-21.8-5.5-25.9-6.5
		c0.1-7.8,6.7-35.1,10.2-46.5c12.2,10.3,26.8,16.9,41.5,25.1C176.2,47.8,173.7,51.3,171.2,54.8z"/>
	<path class="st14" d="M18.4,74.3c-2.8-6.7-6.9-16-8.8-22.2s-3.5-8,4.1-13c7.5-4.9,15.4-9.2,23.1-13.8c5.1-3,10.3-5.9,15.3-8.8
		c0.3,9-1.5,41.6-4,46.5S26.9,74,18.4,74.3z"/>
	<path class="st14" d="M171.2,54.8c-3.9,5.3-8,10.4-11.7,15.8c-1.9,2.8-3.5,2.5-6.5,1.4c-6.1-2.2-21.8-5.5-25.9-6.5
		c0.1-7.8,6.7-35.1,10.2-46.5c12.2,10.3,26.8,16.9,41.5,25.1C176.2,47.8,173.7,51.3,171.2,54.8z"/>
	<path class="st8" d="M111.1,130.6c-11.3,1.2-22.6,1.4-33.9,2.2c-10.7,0.8-20.9-2.2-31.1-4.1c-1.5-4.9,0.8-41.7,3.3-58.4
		c6.5-1.8,7.6-37.8,7.6-53.6c25.1,15.8,50.1,15.5,75.6,0.9c-4.7,16.5-8.1,32.1-9.8,48.3c0,0.3-0.1,0.4-0.1,0.4l0.1,0
		c-0.5,19.9,3.8,38.8,5.7,58.3C123.6,128.4,117.3,130,111.1,130.6z"/>
</g>
<g id="Slovaquie_1_">
	<path d="M181.4,61.3c-7.6-9-15.3-17.8-23-26.7c-5.7-6.6-11.6-13.1-17.3-19.8c-2.9-3.4-5.5-4.2-9.3-2c-6.4,3.7-13.4,5-20.6,5.4
		c-16.8,0.9-33-1.2-48-9.5c-3-1.7-5.6-1.5-8.2,0.9C46.8,17.4,38.3,24.8,30.5,33C22.9,41.1,16,49.9,8.9,58.5C5,63.2,6.1,69.1,11,72.9
		c5,4,9.9,8.1,14.2,12.8c3.7,4.1,7.1,8,13.4,8.7c5-4.2,10.2-8.6,16.4-13.9c0,2.8,0.1,4.5,0,6.2c-0.5,5.3-1.3,10.6-1.7,16
		c-0.5,7.2-0.7,14.3-1.2,21.5c-0.5,6.7,2.8,11.6,9.4,13c5.6,1.2,11.3,2.4,17,2.7c14.4,0.6,28.7,0.7,43.1,0.7c2.8,0,5.9-1,8.5-2.2
		c7.1-3.4,9.8-9.5,9.6-17.1c-0.3-9-0.6-18-1-26.9c-0.1-2.6-0.5-5.1-0.7-7.7c-0.3-3.4-0.3-6.8,0-11c3.8,4.1,6.7,7.3,9.8,10.5
		c4.5,4.6,7.6,5,13.1,1.7c5.1-3.1,10.1-6.3,14.9-9.8c2.5-1.9,4.6-4.4,6.2-7.1C183.7,67.8,183.8,64.2,181.4,61.3z M35.5,83.1
		c-1.7,1.2-3.2,0.7-4.7-0.9C25.2,76,19.5,69.9,13.6,63.7c11.3-17.5,26.3-31.4,40.4-45.1c2.7,10.4,4.3,34.7,3.1,46.9
		C51.6,73.4,43.2,77.8,35.5,83.1z M130,125.5c0,2.4-1,4.1-2.9,4.7c-3.6,1.1-7.2,2.2-10.9,2.4c-12.8,0.8-25.4-1.2-38.1-2.9
		c-4.5-0.6-9.1-0.9-13.6-1.6c-2.1-0.3-4.1-1.2-6.7-1.9c0-2.2-0.1-4.2,0-6.2c0.6-10.6,0.6-21.2,1.8-31.7c1.6-14.3,1.4-53.7-1.1-69.7
		c25.1,11,49.7,12.9,74.5,2.2c-4,9.6-8.2,32.4-6.5,40.8c0.1,0.3,0.1,0.6,0.2,0.9c3.4,14,4.1,28,4.1,42.1
		C130.8,111.6,130.1,118.6,130,125.5z M152,82.8c-6.9-8-13.9-16-21.1-24.3c-1.8-12.8,0.8-22,6.1-38.7c10.1,10.9,20.5,21.9,30.6,33.1
		c3.3,3.7,6.1,7.8,9.6,12.2C168.7,70.9,160.7,76.6,152,82.8z"/>
	<path class="st12" d="M35.5,83.1c-1.7,1.2-3.2,0.7-4.7-0.9C25.2,76,19.5,69.9,13.6,63.7c11.3-17.5,26.3-31.4,40.4-45.1
		c2.7,10.4,4.3,34.7,3.1,46.9C51.6,73.4,43.2,77.8,35.5,83.1z"/>
	<path class="st12" d="M152,82.8c-6.9-8-13.9-16-21.1-24.3c-1.8-12.8,0.8-22,6.1-38.7c10.1,10.9,20.5,21.9,30.6,33.1
		c3.3,3.7,6.1,7.8,9.6,12.2C168.7,70.9,160.7,76.6,152,82.8z"/>
	<path class="st8" d="M130,125.5c0,2.4-1,4.1-2.9,4.7c-3.6,1.1-7.2,2.2-10.9,2.4c-12.8,0.8-25.4-1.2-38.1-2.9
		c-4.5-0.6-9.1-0.9-13.6-1.6c-2.1-0.3-4.1-1.2-6.7-1.9c0-2.2-0.1-4.2,0-6.2c0.6-10.6,0.6-21.2,1.8-31.7c1.6-14.3,1.4-53.7-1.1-69.7
		c25.1,11,49.7,12.9,74.5,2.2c-4,9.6-8.2,32.4-6.5,40.8c0.1,0.3,0.1,0.6,0.2,0.9c3.4,14,4.1,28,4.1,42.1
		C130.8,111.6,130.1,118.6,130,125.5z"/>
</g>
<g id="Ukraine_1_">
	<path d="M139.6,93.2c-2-3.8-3.7-6.9-5.4-10.1c-0.3,0-0.6,0-0.9,0.1c0,1.4,0.1,2.8,0,4.2c-0.6,11.7-1.1,23.5-1.8,35.2
		c-0.3,4.3-1.2,8.6-1.8,13c-0.2,1.5-4.7,6.1-6.4,6.2c-4.5,0.4-9.1,0.9-13.6,0.7c-6.7-0.2-13.4-0.8-20-1.5c-6.1-0.6-12.2-1.2-18.2-2
		c-5.3-0.7-10.6-1.5-15.9-2.6c-6.1-1.2-8.5-5.3-7.6-11.4c1.3-9.4,2.2-18.9,3.5-28.4c0.9-6.5,2.1-12.9,3.2-19.4
		c0.2-0.9,0.1-1.9,0.2-3.1c-7.5,2.3-14.6,4.6-21.8,6.8c-4.7,1.4-6.5,0.7-8.8-3.6C19.3,68.5,14.7,59.4,11,50
		c-1.9-4.8-1.5-5.9,2.3-9.2C25,30.6,38,22.1,51.1,13.7c4.1-2.6,8-5.6,11.7-8.2c11.4,7,22.4,12.8,34.8,14.3
		c12.5,1.6,24.9,0.7,37.1-3.1c2.7-0.8,5.1-4.5,8.1-2.1c2.2,1.8,3.5,4.7,5.1,7.2c8.7,14.6,18.6,28.3,29.7,41.1c3.1,3.6,3.1,9.4,0,13
		c-0.6,0.8-1.3,1.5-2.2,2c-9.6,5.6-18.8,12-29.8,14.9C143.8,93.3,141.7,93.1,139.6,93.2z M57.9,56.6c2.5,3.9,5.3,7.1,3.3,12.2
		c-1.2,3-1.3,6.6-1.7,10c-1.8,15-3.5,30-5.2,45c-0.4,3.3,0.2,4.3,3.7,4.6c3.2,0.3,6.4-0.1,9.6,0.2c14.2,1.4,28.4,3.1,42.6,4.5
		c2.5,0.3,5,0,7.9,0c0.4-7,0.7-13.2,1-19.3c0.3-4.4,0.4-8.8,0.9-13.1c1.6-11.8,4.4-23.5,3.3-35.6c-0.2-2.3,0-4.4,3.3-5.5
		c2.1,4.3,4,8.8,6.4,13c2.6,4.4,5.7,8.5,8.8,13c10.4-6.3,21.4-11.1,30.9-18.5c-10.7-15-21.2-29.6-31.9-44.5
		c-1.2,0.6-2.8,1.5-4.3,2.3c-2.8,1.5-5.4,3.5-8.4,4.5c-15.8,5.6-31.6,3.5-47.4-0.6c-8.2-2.2-15.3-6.7-21.6-12.4
		c-4.5,2.8-9.1,5.2-13.2,8.2c-9,6.5-17.9,13.3-26.7,20c-3.7,2.8-4,4.5-1.9,8.7c2.8,5.5,5.7,10.9,8.5,16.4c1.8,3.6,2.7,3.9,6.5,2.3
		c4.6-1.9,9.5-3.5,13.6-6.1C50.1,63.2,56.5,63.4,57.9,56.6z"/>
	<path class="st10" d="M57.9,56.6c2.5,3.9,5.3,7.1,3.3,12.2c-1.2,3-1.3,6.6-1.7,10c-1.8,15-3.5,30-5.2,45c-0.4,3.3,0.2,4.3,3.7,4.6
		c3.2,0.3,6.4-0.1,9.6,0.2c14.2,1.4,28.4,3.1,42.6,4.5c2.5,0.3,5,0,7.9,0c0.4-7,0.7-13.2,1-19.3c0.3-4.4,0.4-8.8,0.9-13.1
		c1.6-11.8,4.4-23.5,3.3-35.6c-0.2-2.3,0-4.4,3.3-5.5c2.1,4.3,4,8.8,6.4,13c2.6,4.4,5.7,8.5,8.8,13c10.4-6.3,21.4-11.1,30.9-18.5
		c-10.7-15-21.2-29.6-31.9-44.5c-1.2,0.6-2.8,1.5-4.3,2.3c-2.8,1.5-5.4,3.5-8.4,4.5c-15.8,5.6-31.6,3.5-47.4-0.6
		c-8.2-2.2-15.3-6.7-21.6-12.4c-4.5,2.8-9.1,5.2-13.2,8.2c-9,6.5-17.9,13.3-26.7,20c-3.7,2.8-4,4.5-1.9,8.7
		c2.8,5.5,5.7,10.9,8.5,16.4c1.8,3.6,2.7,3.9,6.5,2.3c4.6-1.9,9.5-3.5,13.6-6.1C50.1,63.2,56.5,63.4,57.9,56.6z"/>
</g>
<g id="Irlande_du_Nord_1_">
	<path class="st15" d="M127.1,119.4c-0.1,3-0.7,5.9-1.2,8.8c-0.9,4.7-3.2,6.6-8.1,6.8c-8.8,0.3-17.8,1.7-26.4,0.5
		c-11.3-1.6-22.8-3.8-33.6-8.1c-2.1-0.9-2.8-2.4-2.9-4.7c-0.3-14.8,0.8-52.4,2.9-53.3c1.1-0.5,1.9-1.2,2.3-1.9l0,0
		c7.8-11.5,11.4-35.8,10.7-50.6c8.7,9.9,20.9,11.9,33.8,13.8c10.6,1.6,20.1-0.6,29.9-3.1c0.2,0,0.3-0.1,0.5-0.2
		c-5.2,10.1-12.4,26.7-11.8,37.6c-0.2,0.3,0,1.3,0.3,2.6l0,0c0.4,2.3,1,3.9,1.6,5.1c1.2,3.7,2.5,7.7,2.5,9.7
		C127.3,94.7,127.3,107,127.1,119.4z"/>
	<path d="M182,66.1c-3-5.2-6.2-10.2-9.5-15.2c-7.7-11.2-17.9-20.2-26.9-30.3c-1.7-1.9-3.5-3.7-5.4-5.7c-1.8,0.9-3.5,1.5-4.9,2.5
		c-3.7,2.6-7.5,4.4-12.2,4.4c-4.6,0-9.2,0.6-13.8,0.3c-12.1-0.7-23.3-3.4-30.4-14.6c-2.3-3.6-7.1-4.4-10.3-1.6
		c-6.4,5.6-14.3,8.5-21.5,12.8c-11.7,6.9-23.2,14-34.8,21.1c-0.3,0.2-0.7,0.4-1,0.7C6.6,44.2,6,46,8.3,51.7c1.2,2.9,2.9,5.7,4.5,8.4
		c2.9,5,11.1,19.7,12.9,20.2c1.9,0.5,16-4.6,24.8-7.2c-0.5,5.2,0.2,14.5,0,18.9c-0.3,6.2-0.6,12.4-0.6,18.6c0,5.2-0.1,10.5,0.7,15.5
		c0.8,4.9,3.2,8.7,8.5,11.2c9.8,4.5,43,6.2,49.2,6.6c8.3,0.5,23.1-0.9,23.4-4.6c0.3-3.7,1.9-37.1,1.7-42.7c-0.1-4,0.1-10.1-1.3-16.4
		c2.6,3.2,5.8,8.1,7.3,10.2c2.6,3.3,3.5,3.6,7.5,1.9c8.2-3.5,16.4-7,24.6-10.6c2.5-1.1,5-2.5,7.3-4C182.2,75.4,183.9,69.4,182,66.1z
		 M127.1,119.4c-0.1,3-0.7,5.9-1.2,8.8c-0.9,4.7-3.2,6.6-8.1,6.8c-8.8,0.3-17.8,1.7-26.4,0.5c-11.3-1.6-22.8-3.8-33.6-8.1
		c-2.1-0.9-2.8-2.4-2.9-4.7c-0.3-14.8,0.8-52.4,2.9-53.3c1.1-0.5,1.9-1.2,2.3-1.9c7.8-11.5,11.4-35.8,10.7-50.6
		c8.7,9.9,20.9,11.9,33.8,13.8c10.6,1.6,20.1-0.6,29.9-3.1c0.2,0,0.3-0.1,0.5-0.2c-5.2,10.1-12.4,26.7-11.8,37.6
		c-0.2,0.3,0,1.3,0.3,2.6c0.4,2.3,1,3.9,1.6,5.1c1.2,3.7,2.5,7.7,2.5,9.7C127.3,94.7,127.3,107,127.1,119.4z"/>
</g>
<g id="Allemagne_1_">
	<path d="M130.1,82.7c1.2,12,2.9,24,3.4,36c0.3,6.9,2.5,13.8,0.3,20.7c-1.7,5.3-4,7.1-9.1,7.7c-16.5,1.8-33,0.8-49.5,0.6
		c-10.5-0.1-21-1.8-31.4-3.5c-8.3-1.3-10.1-4.6-9-12.8c1.8-13.2,3.4-26.4,5.4-39.6c1-6.7,2.8-13.2,4.2-19.8c0.2-0.7,0-1.5,0-3
		c-2,1.1-3.6,1.7-5,2.7c-4.1,3.2-8,6.5-12,9.7c-1.7,1.4-4.9,1.3-6.6-0.4c-0.6-0.5-1-1.3-1.4-2C15.2,69.6,8.5,61.4,5.7,51.3
		c-0.7-2.5-0.2-4,1.2-5.9c7.5-10.7,17-19.7,26.4-28.6c4.3-4.1,9-7.8,13.6-11.7c1.5-1.3,3.1-2.5,4.8-3.5c4.1-2.5,7.4-2,10.5,1.6
		C69.8,11.8,78.8,18,90.5,19c9.8,0.8,19.5-0.1,29-3.1c3-1,6.1-1.9,9.1-3c4.9-1.7,8.7-0.2,12.1,3.5c12.7,14,25.5,28,38.3,41.9
		c3,3.2,6,6.3,5.4,11.4c-0.4,3.1-1.3,5.1-4.2,6.5c-6.3,2.9-12.6,6-18.7,9.3c-4,2.1-7.8,4.7-11.7,7c-3.8,2.3-8.2,1.2-11-2.5
		c-2.2-2.9-4.7-5.6-7.1-8.4C131.1,82,130.6,82.3,130.1,82.7z M135.7,19.6c-2,0.9-3.8,1.6-5.5,2.5c-9.6,4.7-19.8,6.9-30.5,6.8
		c-3,0-5.9-0.6-8.9-0.9c-13.2-1.3-25.4-5.1-34.7-15.2c-1.2-1.3-2.1-2.8-3.7-4.9c-9.6,9.1-18.6,17.2-27.3,25.7
		c-4.5,4.5-8.4,9.5-12.6,14.3c-1.4,1.6-2.4,3.2-1.3,5.4C14.8,60.1,18.4,67,22.1,74c11.9-5.4,19.2-15.5,29.2-22.6
		c2.2,1.3,2.3,3.4,1.9,5.6c-0.3,1.8-1.1,3.4-1.5,5.2c-3.6,19.1-7.3,38.3-10.7,57.5c-0.8,4.6-0.7,9.4-1.1,14.1c6,2.3,11.8,2,17.6,2.3
		c12.1,0.6,24.2,1.7,36.4,2.2c8.6,0.4,17.2,0.4,25.7,0.2c4.2-0.1,5.5-2.1,5.2-6.1c-1.2-14.7-2.3-29.4-3.6-44
		c-0.5-5.9-1.5-11.8-1.7-17.8c-0.2-3.8-1.6-7.8,0.9-12.3c7.3,8.4,14.3,16.4,21.4,24.6c5.6-3.2,11.3-6.5,17-9.7
		c5.6-3.1,11.3-6.2,17.1-9.3C162.3,48.9,149.1,34.3,135.7,19.6z"/>
	<path class="st8" d="M135.7,19.6c-2,0.9-3.8,1.6-5.5,2.5c-9.6,4.7-19.8,6.9-30.5,6.8c-3,0-5.9-0.6-8.9-0.9
		c-13.2-1.3-25.4-5.1-34.7-15.2c-1.2-1.3-2.1-2.8-3.7-4.9c-9.6,9.1-18.6,17.2-27.3,25.7c-4.5,4.5-8.4,9.5-12.6,14.3
		c-1.4,1.6-2.4,3.2-1.3,5.4C14.8,60.1,18.4,67,22.1,74c11.9-5.4,19.2-15.5,29.2-22.6c2.2,1.3,2.3,3.4,1.9,5.6
		c-0.3,1.8-1.1,3.4-1.5,5.2c-3.6,19.1-7.3,38.3-10.7,57.5c-0.8,4.6-0.7,9.4-1.1,14.1c6,2.3,11.8,2,17.6,2.3
		c12.1,0.6,24.2,1.7,36.4,2.2c8.6,0.4,17.2,0.4,25.7,0.2c4.2-0.1,5.5-2.1,5.2-6.1c-1.2-14.7-2.3-29.4-3.6-44
		c-0.5-5.9-1.5-11.8-1.7-17.8c-0.2-3.8-1.6-7.8,0.9-12.3c7.3,8.4,14.3,16.4,21.4,24.6c5.6-3.2,11.3-6.5,17-9.7
		c5.6-3.1,11.3-6.2,17.1-9.3C162.3,48.9,149.1,34.3,135.7,19.6z"/>
</g>
<g id="Pologne_1_">
	<path d="M181.9,64.6c-0.6-0.8-1.4-1.4-2.1-2.2c-3.9-4.5-8-8.9-11.7-13.6c-6.7-8.4-12.8-17.3-19.7-25.5c-4.1-4.9-6.4-12-13.2-13.5
		c-2.2,1.6-3.9,3.3-6,4.1c-13.4,5-27.1,8.1-41.5,7.3c-7.3-0.4-14.1-2.1-20.2-6.1c-3.8-2.5-7.7-4.7-12.1-7.4
		c-3.6,2.3-7.6,4.9-11.7,7.4c-12,7.2-23.8,14.6-34.4,23.7c-4.1,3.5-4.8,6.4-2.2,11c5.7,9.8,11.5,19.6,17.3,29.3
		c3.4,5.7,4.6,6,10.5,3.4c1.3-0.6,2.4-1.4,3.6-2.1c3.1-1.7,6.2-3.3,9.6-5.1c-0.6,10.5-1.6,20.4-1.8,30.4c-0.2,9.8-3.5,19.4-1.6,30.4
		c9.5,1.1,18.6,2.6,27.6,3.1c17,1,34,1.9,51.1,0.7c4.7-0.3,7.1-2.6,7.3-7.6c0.3-9.3,0.5-18.6,0.7-27.9c0-1.9,0.7-15.7,1.1-20.6
		c0.2-2.1,0.2-4.2,0.3-6.3c5.1,5.3,9.6,10.6,15.7,13.8c10.6-5,20.9-9.7,31.1-14.6C184.8,74.2,185.7,69.7,181.9,64.6z M54.1,70.8
		c0.1-0.7,0.1-3.1-0.3-5.9l2.9-1.1c0,0-0.5,24.9-2,63.6c-1.5-0.1-3-0.1-4.6-0.1C50,124.8,52.6,87.4,54.1,70.8z M123.5,62.6
		c-0.2,9.1-1.1,18.3-1.8,27.4c-0.4,5.5-1.2,11.1-1.5,16.6c-0.3,7.9-0.3,15.8-0.4,24.3c-1.4,0-2.8,0-4.2,0c3.6-38.9,6.3-73,6.3-73
		l2.4,0.7C123.7,59.8,123.5,61,123.5,62.6z M146.5,82.6c-9.3-6.8-12.7-17.4-18-26.1c0,0-7.9-4.5-8.6-2.5c-0.7,1.7-5.9,65.1-6.9,77.1
		c-18.5-0.2-36.8-2.6-55.5-3.5c0.4-11.6,2.4-65.8,1.9-67.6c-0.5-2-6.1,1.8-6.1,1.8c-6.2,4.8-19.8,9.9-25.6,13.6
		C21.6,65,16.3,55.6,10.8,46.1c5.4-5.3,11-10,17.3-13.9c7.1-4.4,14.3-8.7,21.3-13.2c1.9-1.2,3.8-2,5.5-0.4c8.3,8,19.1,9.3,29.7,11.2
		c16.7,3.1,32.4,0.2,46.9-8.9c1-0.6,2.1-1.1,3.7-2c4.2,9.6,21.6,31.8,24.1,34.9c4.2,5.1,8.5,10,13.4,15.8
		C163.5,74.1,155,78.4,146.5,82.6z"/>
	<path class="st11" d="M54.1,70.8c0.1-0.7,0.1-3.1-0.3-5.9l2.9-1.1c0,0-0.5,24.9-2,63.6c-1.5-0.1-3-0.1-4.6-0.1
		C50,124.8,52.6,87.4,54.1,70.8z"/>
	<path class="st11" d="M123.5,62.6c-0.2,9.1-1.1,18.3-1.8,27.4c-0.4,5.5-1.2,11.1-1.5,16.6c-0.3,7.9-0.3,15.8-0.4,24.3
		c-1.4,0-2.8,0-4.2,0c3.6-38.9,6.3-73,6.3-73l2.4,0.7C123.7,59.8,123.5,61,123.5,62.6z"/>
	<path class="st8" d="M146.5,82.6c-9.3-6.8-12.7-17.4-18-26.1c0,0-7.9-4.5-8.6-2.5c-0.7,1.7-5.9,65.1-6.9,77.1
		c-18.5-0.2-36.8-2.6-55.5-3.5c0.4-11.6,2.4-65.8,1.9-67.6c-0.5-2-6.1,1.8-6.1,1.8c-6.2,4.8-19.8,9.9-25.6,13.6
		C21.6,65,16.3,55.6,10.8,46.1c5.4-5.3,11-10,17.3-13.9c7.1-4.4,14.3-8.7,21.3-13.2c1.9-1.2,3.8-2,5.5-0.4c8.3,8,19.1,9.3,29.7,11.2
		c16.7,3.1,32.4,0.2,46.9-8.9c1-0.6,2.1-1.1,3.7-2c4.2,9.6,21.6,31.8,24.1,34.9c4.2,5.1,8.5,10,13.4,15.8
		C163.5,74.1,155,78.4,146.5,82.6z"/>
</g>
<g id="Italie_1_">
	<path d="M135.5,17.1c5.5,5.5,10.6,10.6,15.6,15.7c2.4,2.4,4.4,5.2,6.7,7.6c4.2,4.3,8.5,8.4,12.7,12.6c1.2,1.3,2.4,2.7,3.2,4.2
		c2.1,4.4,1.2,8.6-2.2,11.9c-4.1,4-8.5,7.7-12.9,11.4c-3.5,3-7.1,5.7-10.6,8.8c-3.5,3.1-6.8,3.4-10.5,0.4c-1.8-1.5-3.5-3.1-6-5.2
		c-0.3,1.8-0.5,2.9-0.5,3.9c-0.7,12.5-1.2,25.1-2.2,37.6c-0.2,2.8-1.5,5.7-2.8,8.3c-1.1,2.3-3.3,3.1-6,3c-8.9-0.4-17.9-0.5-26.8-0.8
		c-7.8-0.2-15.5-0.2-23.3-1c-5.5-0.5-10.8-2.1-16.8-3.3c-0.5-5.2-0.5-10.2,0.2-15.3c1.7-12,3.1-24,4.6-36.1c0.2-1.6,0-3.2,0-5.7
		c-4.6,2.8-8.5,5.2-12.4,7.7c-1,0.6-2,1.3-3.1,1.8c-2.6,1.2-4.6,0.6-6-2c-0.4-0.7-0.9-1.3-1.2-2.1C31.3,71.6,25.2,64,19.5,56
		c-1.7-2.4-2.8-5.1-4.5-8.2c6.6-5.5,12.7-11,19.1-15.9c8-6.2,16.3-12.1,24.4-18.2c5.3-3.9,6.9-3.9,12.1-0.1
		c5.7,4.2,11.7,7.5,18.7,8.9c12.7,2.4,25.4,1.9,37.8-1.3C130.1,20.4,132.8,18.5,135.5,17.1z M139,83.2c6.5-3.2,26.6-20,28.9-24
		c-10.8-11.5-21.5-23.1-32.3-34.6c-9.8,7.7-9.9,7.4-16.5,9.2c-11.6,3.3-23.2,2.5-34.7-0.3c-9.3-2.3-18.4-5.1-24.2-14.4
		C47.2,29.5,34.5,39.6,21.5,49.8c6,9,11.6,17.6,17,25.7c5.4-4,10.7-7.8,15.8-11.8c2.5-2,4.8-4.3,7.6-6.9c1.6,0.4,2.1,2.3,2.2,4.3
		c0.1,2,0.1,4-0.1,6c-0.5,5.1-1.3,10.3-1.5,15.4c-0.6,11.3-0.7,22.7-3.5,33.8c-0.7,2.6-0.5,5.3-0.9,8.6c11,0.3,21.5,0.9,32,0.8
		c10.5,0,21,1.9,31.3-0.3c0.2-3.6,0.6-6.7,0.6-9.8c0.1-13.8,0.3-27.5-2.6-41.1c-0.7-3.4-1.6-7.4,0.8-10.8c1.8,0.5,3.3,1.1,4.8,1.5
		c3.4,0.9,5.2,3.1,4.8,6.5c-0.5,4.3,1.4,6.8,4.9,8.6C136.2,81.1,137.5,82.2,139,83.2z"/>
	<path class="st12" d="M139,83.2c6.5-3.2,26.6-20,28.9-24c-10.8-11.5-21.5-23.1-32.3-34.6c-9.8,7.7-9.9,7.4-16.5,9.2
		c-11.6,3.3-23.2,2.5-34.7-0.3c-9.3-2.3-18.4-5.1-24.2-14.4C47.2,29.5,34.5,39.6,21.5,49.8c6,9,11.6,17.6,17,25.7
		c5.4-4,10.7-7.8,15.8-11.8c2.5-2,4.8-4.3,7.6-6.9c1.6,0.4,2.1,2.3,2.2,4.3c0.1,2,0.1,4-0.1,6c-0.5,5.1-1.3,10.3-1.5,15.4
		c-0.6,11.3-0.7,22.7-3.5,33.8c-0.7,2.6-0.5,5.3-0.9,8.6c11,0.3,21.5,0.9,32,0.8c10.5,0,21,1.9,31.3-0.3c0.2-3.6,0.6-6.7,0.6-9.8
		c0.1-13.8,0.3-27.5-2.6-41.1c-0.7-3.4-1.6-7.4,0.8-10.8c1.8,0.5,3.3,1.1,4.8,1.5c3.4,0.9,5.2,3.1,4.8,6.5c-0.5,4.3,1.4,6.8,4.9,8.6
		C136.2,81.1,137.5,82.2,139,83.2z"/>
</g>
<g id="Belgique">
	<path class="st11" d="M127.6,82.3c-0.3,12.4-0.4,45.4-0.9,48.3c-0.9,4.7-3.2,6.6-8.1,6.8c-8.8,0.3-47.6-1.1-58.4-5.5
		c-2.1-0.9-5.3-6.9-5.3-9.2c-0.3-14.8,0.1-29.5,1.8-44.2C56.9,76.6,60,69,62,68.1c3.9-1.7,55.3,2.5,62.1,3.9
		C127.1,74.8,127.7,78.3,127.6,82.3z"/>
	<path d="M182,66.1c-3-5.2-6.2-10.2-9.5-15.2c-7.7-11.2-17.9-20.2-26.9-30.3c-1.7-1.9-3.5-3.7-5.4-5.7c-1.8,0.9-3.5,1.5-4.9,2.5
		c-3.7,2.6-7.5,4.4-12.2,4.4c-4.6,0-9.2,0.6-13.8,0.3c-12.1-0.7-23.3-3.4-30.4-14.6c-2.3-3.6-7.1-4.4-10.3-1.6
		c-6.4,5.6-14.3,8.5-21.5,12.8c-11.7,6.9-23.2,14-34.8,21.1c-0.3,0.2-0.7,0.4-1,0.7C6.6,44.2,6,46,8.3,51.7c1.2,2.9,2.9,5.7,4.5,8.4
		c2.9,5,5.8,9.9,8.7,15c1.9,3.4,3.7,6.9,5.4,10.2c8.3-2.4,17.5-5.9,25.9-11.3c-0.5,5.2-2.1,13.6-2.3,17.9
		c-0.3,6.2-0.6,12.4-0.6,18.6c0,5.2-0.1,10.5,0.7,15.5c0.8,4.9,3.2,8.7,8.5,11.2c9.8,4.5,43,6.2,49.2,6.6c8.3,0.5,21.2-0.6,23.3-3.1
		c2.1-2.5,2-38.6,1.8-44.2c-0.1-4-0.3-8.1,0.3-13.4c2.6,3.2,4.2,5.2,5.8,7.2c2.6,3.3,3.5,3.6,7.5,1.9c8.2-3.5,16.4-7,24.6-10.6
		c2.5-1.1,5-2.5,7.3-4C182.2,75.4,183.9,69.4,182,66.1z M127.6,82.3c-0.3,12.4-0.4,45.4-0.9,48.3c-0.9,4.7-3.2,6.6-8.1,6.8
		c-8.8,0.3-47.6-1.1-58.4-5.5c-2.1-0.9-5.3-6.9-5.3-9.2c-0.3-14.8,0.1-29.5,1.8-44.2C56.9,76.6,60,69,62,68.1
		c3.9-1.7,55.3,2.5,62.1,3.9C127.1,74.8,127.7,78.3,127.6,82.3z"/>
</g>
<g id="Irlande_1_">
	<path d="M185.9,59c-0.7-1.4-1.3-3-2.3-4.1c-2.4-2.7-4.9-5.2-7.4-7.7C165.8,36.8,155.4,26.4,145,16c-4.7-4.7-6.3-5-11.9-1.4
		c-6.5,4.1-16.8,13.8-25,14.7c-17.8,1.8-36,0-50.2-17.8c-2-2.5-4.5-1.5-7,0c-5.8,3.5-11.7,6.8-17.6,10.1C24.6,26.6,15.8,31.8,7,36.8
		c-5.5,3.1-7.1,5.6-5,11.7c2.3,6.6,4.9,13.2,8.3,19.2c2.9,5.2,5.4,11.1,11.4,14.1c4.9-1.5,9.9-5.6,15.9-7.5
		c0.6,13,0.3,27.1,0.8,39.9c0.2,5.4,0.2,10.7,0.5,16.1c0.1,2.4,0.6,5,3.6,5.5c3.5,0.7,7,1.6,10.6,1.7c13.2,0.4,26.3,0.8,39.5,0.8
		c9.3,0,18.6-0.5,27.9-0.6c2.6,0,11.3-0.6,12.2-3.1s1.9-7.1,2-11.6c0.3-11.4,0.1-22.8,0.1-34.2c0-1.6,0.3-3.3,0.5-5.5
		c4.1,3.3,7.6,5.9,11,8.7c3.3,2.8,5.2,3,9,0.4c7.9-5.4,15.8-10.7,23.6-16.3c4-2.8,8.4-5.4,9.9-10.5C187.6,62.9,186.8,61,185.9,59z
		 M45.9,66.7l5.8-3l1.1,65.4c-2,0-4,0.1-6,0.1C46.8,126.4,45,69.5,45.9,66.7z M126.8,120.5c-0.3,4.9-2.6,6.3-7.6,6.9
		c-0.5,0.1-1.1,0.1-1.6,0.2l4.7-57.1c1.7,1.5,3.4,3,4.2,3.7C128.6,76,127.5,109.1,126.8,120.5z M149,84.5
		c-9.8-5.8-18.6-13.6-26.5-22.2c-2.4,1.6-3,2-5.3,3.5l-3.5,61.8c-0.2,0-0.4,0-0.6,0c-13.7,0.4-27.4,0.7-41.2,1.1
		c-4.4,0.1-9.6,0.2-14.9,0.3l-2.7-71.6l-7.5,3.4c-0.5,0.1-1.1,0.5-2.2,1c-7.9,3.7-15.8,7.5-24.3,11.6c-5.4-8.3-12.5-18-14.7-28
		c3.9-4.2,31.4-20.2,45.3-26.5C58.3,30.1,69.7,34.7,81.4,37c15.6,3.1,31.4,2.1,45.1-7.9c1.9-1.4,3.7-3,5.5-4.6c4-3.7,5-3.7,9-0.2
		c8.1,7.1,16.5,13.8,24.4,21.1c4.9,4.6,9,10,14,15.7C169.2,68.9,159.4,76.5,149,84.5z"/>
	<path class="st15" d="M149,84.5c-9.8-5.8-18.6-13.6-26.5-22.2c-2.4,1.6-3,2-5.3,3.5l-3.5,61.8c-0.2,0-0.4,0-0.6,0
		c-13.7,0.4-27.4,0.7-41.2,1.1c-4.4,0.1-9.6,0.2-14.9,0.3l-2.7-71.6l-7.5,3.4c-0.5,0.1-1.1,0.5-2.2,1c-7.9,3.7-15.8,7.5-24.3,11.6
		c-5.4-8.3-12.5-18-14.7-28c3.9-4.2,31.4-20.2,45.3-26.5C58.3,30.1,69.7,34.7,81.4,37c15.6,3.1,31.4,2.1,45.1-7.9
		c1.9-1.4,3.7-3,5.5-4.6c4-3.7,5-3.7,9-0.2c8.1,7.1,16.5,13.8,24.4,21.1c4.9,4.6,9,10,14,15.7C169.2,68.9,159.4,76.5,149,84.5z"/>
	<path class="st8" d="M45.9,66.7l5.8-3l1.1,65.4c-2,0-4,0.1-6,0.1C46.8,126.4,45,69.5,45.9,66.7z"/>
	<path class="st8" d="M126.8,120.5c-0.3,4.9-2.6,6.3-7.6,6.9c-0.5,0.1-1.1,0.1-1.6,0.2l4.7-57.1c1.7,1.5,3.4,3,4.2,3.7
		C128.6,76,127.5,109.1,126.8,120.5z"/>
</g>
<g id="Suède">
	<path d="M178.9,58.3c-12.8-14-25.6-27.9-38.3-41.9c-3.4-3.7-7.2-5.2-12.1-3.5c-3,1.1-6.1,2-9.1,3c-9.4,3-19.2,3.9-29,3.1
		c-11.7-1-20.7-7.2-28.2-15.9C59.2-0.4,55.8-1,51.7,1.6c-1.7,1-3.3,2.3-4.8,3.5c-4.6,3.8-9.3,7.6-13.6,11.7
		c-9.4,8.9-18.8,17.9-26.4,28.6c-1.4,2-1.9,3.5-1.2,5.9C8.5,61.4,15.2,69.6,19.5,79c0.3,0.7,0.8,1.4,1.4,2c1.7,1.6,4.8,1.8,6.6,0.4
		c4-3.2,7.9-6.6,12-9.7c1.3-1,3-1.6,5-2.7c0,1.5,0.1,2.3,0,3c-1.4,6.6-7.7,46.3-9.6,59.5c-1.1,8.2,0.7,11.5,9,12.8
		c10.4,1.7,20.9,3.4,31.4,3.5c16.5,0.2,33,1.2,49.5-0.6c5.1-0.5,7.4-2.4,9.1-7.7c2.2-7,0-13.9-0.3-20.7c-0.5-12-2.2-24-3.4-36
		c0.5-0.3,1-0.7,1.5-1c2.4,2.8,4.9,5.5,7.1,8.4c2.8,3.7,7.1,4.8,11,2.5c3.9-2.4,7.7-4.9,11.7-7c6.1-3.3,12.4-6.4,18.7-9.3
		c3-1.4,3.9-3.4,4.2-6.5C184.9,64.7,181.9,61.6,178.9,58.3z M40.1,133.8c0.3-4.8,10.1-72.3,10.4-73.8l6.3-4l-8.6,79.7
		C43.8,135.7,44.6,135.6,40.1,133.8z M119.7,138.6c-2.4,0.1-1.6-0.5-4-0.5l-0.3-75.5l3.6,2.6c0.1,1.9,0.5,3.7,0.5,5.5
		c0.2,5.9,1.2,11.8,1.7,17.8c1.2,14.7,2.4,29.4,3.6,44C125.3,136.5,123.9,138.5,119.7,138.6z M159,73.3c-5.7,3.2-11.4,6.5-17,9.7
		c-7.2-8.2-27.2-30.9-29.7-29.4s-2.7,84.5-2.7,84.5c-4.2,0-11.4,0.5-15.6,0.3c-11.8-0.5-28.8-1.8-40.6-2.4c0,0,11.3-89.4,8.7-90.7
		S41,65.2,23.8,76.1c-3.7-7.1-9-15.9-12.6-22.8c-1.1-2.2-0.1-3.8,1.3-5.4c4.2-4.8,8.1-9.9,12.6-14.3c8.6-8.5,17.6-16.7,27.3-25.7
		c1.6,2.1,2.5,3.6,3.7,4.9C65.4,22.9,77.5,26.7,90.8,28c3,0.3,5.9,0.9,8.9,0.9c10.7,0.2,20.9-2,30.5-6.8c1.7-0.9,3.5-1.6,5.5-2.5
		C149.1,34.3,162.3,48.9,176,64C170.3,67.1,164.6,70.2,159,73.3z"/>
	<path class="st12" d="M40.1,133.8c0.3-4.8,10.1-72.3,10.4-73.8l6.3-4l-8.6,79.7C43.8,135.7,44.6,135.6,40.1,133.8z"/>
	<path class="st12" d="M119.7,138.6c-2.4,0.1-1.6-0.5-4-0.5l-0.3-75.5l3.6,2.6c0.1,1.9,0.5,3.7,0.5,5.5c0.2,5.9,1.2,11.8,1.7,17.8
		c1.2,14.7,2.4,29.4,3.6,44C125.3,136.5,123.9,138.5,119.7,138.6z"/>
	<path class="st10" d="M159,73.3c-5.7,3.2-11.4,6.5-17,9.7c-7.2-8.2-27.2-30.9-29.7-29.4s-2.7,84.5-2.7,84.5
		c-4.2,0-11.4,0.5-15.6,0.3c-11.8-0.5-28.8-1.8-40.6-2.4c0,0,11.3-89.4,8.7-90.7S41,65.2,23.8,76.1c-3.7-7.1-9-15.9-12.6-22.8
		c-1.1-2.2-0.1-3.8,1.3-5.4c4.2-4.8,8.1-9.9,12.6-14.3c8.6-8.5,17.6-16.7,27.3-25.7c1.6,2.1,2.5,3.6,3.7,4.9
		C65.4,22.9,77.5,26.7,90.8,28c3,0.3,5.9,0.9,8.9,0.9c10.7,0.2,20.9-2,30.5-6.8c1.7-0.9,3.5-1.6,5.5-2.5
		C149.1,34.3,162.3,48.9,176,64C170.3,67.1,164.6,70.2,159,73.3z"/>
</g>
<g id="Hongrie_1_">
	<path d="M137.3,14.6c5.7,5.8,11.1,11,16.3,16.4c2.5,2.5,4.6,5.4,7,7.9c4.3,4.5,8.9,8.7,13.2,13.2c1.3,1.3,2.5,2.8,3.3,4.4
		c2.2,4.6,1.2,8.9-2.3,12.4c-4.3,4.2-8.9,8-13.5,11.9c-3.6,3.1-7.5,6-11,9.2c-3.7,3.3-7.1,3.5-10.9,0.4c-1.9-1.6-3.7-3.2-6.2-5.5
		c-0.3,1.9-0.5,3-0.6,4.1c-0.7,13.1-1.3,26.2-2.3,39.2c-0.2,3-1.5,6-2.9,8.7c-1.2,2.4-3.5,3.2-6.3,3.1c-9.3-0.4-18.7-0.5-28-0.8
		c-8.1-0.3-16.2-0.3-24.3-1c-5.7-0.5-11.3-2.1-17.6-3.4c-0.6-5.4-0.6-10.6,0.2-16c1.8-12.5,3.2-25.1,4.8-37.6c0.2-1.6,0-3.3,0-5.9
		c-4.8,2.9-8.9,5.5-13,8c-1.1,0.7-2.1,1.4-3.2,1.9c-2.7,1.2-4.8,0.6-6.3-2.1c-0.4-0.7-0.9-1.4-1.3-2.2c-4-9.5-10.4-17.5-16.4-25.8
		c-1.8-2.5-2.9-5.4-4.7-8.6c6.9-5.8,13.2-11.4,19.9-16.6c8.3-6.5,17-12.7,25.5-19C62.4,7,64.1,6.9,69.6,11
		c5.9,4.4,12.2,7.9,19.5,9.3c13.3,2.5,26.5,2,39.5-1.4C131.7,18.1,134.4,16,137.3,14.6z M141,83.6c6.8-3.3,27.8-20.8,30.2-25
		c-11.2-12-22.5-24.1-33.7-36.1c-10.2,8-10.3,7.7-17.2,9.6c-12.2,3.4-24.2,2.6-36.2-0.3c-9.7-2.3-19.2-5.3-25.2-15.1
		c-13.7,10.8-27,21.3-40.5,32c6.2,9.4,12.1,18.4,17.7,26.8c5.6-4.2,11.1-8.1,16.5-12.3c2.6-2.1,5-4.5,8-7.2c1.6,0.4,2.1,2.4,2.3,4.5
		c0.1,2.1,0.1,4.2-0.1,6.3c-0.5,5.4-1.3,10.7-1.6,16.1c-0.6,11.8-0.7,23.7-3.7,35.3c-0.7,2.7-0.6,5.6-0.9,9
		c11.5,0.3,22.5,0.9,33.4,0.8c10.9,0,21.9,2,32.7-0.4c0.3-3.7,0.6-7,0.7-10.2c0.1-14.4,0.3-28.7-2.7-42.9c-0.7-3.5-1.6-7.8,0.9-11.3
		c1.8,0.6,3.4,1.1,5,1.5c3.5,0.9,5.5,3.3,5,6.8c-0.6,4.5,1.5,7.1,5.1,9C138.1,81.4,139.3,82.5,141,83.6z"/>
	<path class="st13" d="M141,83.6c6.8-3.3,27.8-20.8,30.2-25c-11.2-12-22.5-24.1-33.7-36.1c-10.2,8-10.3,7.7-17.2,9.6
		c-12.2,3.4-24.2,2.6-36.2-0.3c-9.7-2.3-19.2-5.3-25.2-15.1c-13.7,10.8-27,21.3-40.5,32c6.2,9.4,12.1,18.4,17.7,26.8
		c5.6-4.2,11.1-8.1,16.5-12.3c2.6-2.1,5-4.5,8-7.2c1.6,0.4,2.1,2.4,2.3,4.5c0.1,2.1,0.1,4.2-0.1,6.3c-0.5,5.4-1.3,10.7-1.6,16.1
		c-0.6,11.8-0.7,23.7-3.7,35.3c-0.7,2.7-0.6,5.6-0.9,9c11.5,0.3,22.5,0.9,33.4,0.8c10.9,0,21.9,2,32.7-0.4c0.3-3.7,0.6-7,0.7-10.2
		c0.1-14.4,0.3-28.7-2.7-42.9c-0.7-3.5-1.6-7.8,0.9-11.3c1.8,0.6,3.4,1.1,5,1.5c3.5,0.9,5.5,3.3,5,6.8c-0.6,4.5,1.5,7.1,5.1,9
		C138.1,81.4,139.3,82.5,141,83.6z"/>
</g>
<g id="Portugal_1_">
	<path d="M185.2,60.8c-7.9-9.3-16-18.6-24-27.9c-6-6.9-12.1-13.7-18-20.7c-3-3.6-5.7-4.4-9.7-2.1c-6.7,3.9-14,5.3-21.5,5.7
		c-17.5,1-34.5-1.2-50.1-9.9c-3.2-1.8-5.9-1.6-8.5,0.9C44.7,15,35.8,22.7,27.7,31.2c-8,8.4-15.1,17.6-22.5,26.6
		c-4.1,5-2.9,11,2.1,15.1c5.2,4.1,10.4,8.4,14.8,13.3c3.9,4.2,7.4,8.3,14,9.1c5.2-4.4,10.6-9,17.1-14.5c0,2.9,0.1,4.7,0,6.5
		c-0.5,5.6-1.3,11.1-1.7,16.7c-0.5,7.5-0.7,15-1.2,22.4c-0.5,7,2.9,12.1,9.8,13.6c5.8,1.2,11.8,2.5,17.7,2.8c15,0.6,30,0.7,45,0.7
		c3,0,6.1-1,8.8-2.3c7.4-3.5,10.3-9.9,10-17.9c-0.3-9.4-0.6-18.7-1-28.1c-0.1-2.7-0.5-5.4-0.7-8.1c-0.3-3.5-0.3-7.1,0-11.4
		c3.9,4.2,7,7.7,10.2,10.9c4.7,4.8,8,5.3,13.7,1.7c5.3-3.2,10.6-6.5,15.5-10.2c2.6-1.9,4.8-4.6,6.5-7.4
		C187.6,67.5,187.7,63.8,185.2,60.8z M32.9,83.5c-1.8,1.3-3.3,0.8-4.9-0.9c-5.9-6.5-11.9-12.8-18-19.4C22.2,44.5,38.3,29.7,53.4,15
		c0.9,9.3,0.9,41.1,0.7,51.9C48.4,74,40.3,78.3,32.9,83.5z M131.5,127.8c0,2.5-1,4.3-3,4.9c-3.7,1.2-7.6,2.3-11.4,2.5
		c-13.4,0.8-26.6-1.2-39.7-3c-4.7-0.7-9.5-1-14.2-1.7c-2.2-0.3-4.3-1.2-7-2c0-2.3-0.1-4.4,0-6.4c0.6-11,1.3-22,1.8-33
		c0.3-5,0.4-10,0.6-14.9h0c0,0,0-0.3,0-0.8c0-1.3,0.1-2.7,0.1-4c0-0.5,0-1,0-1.5c0.3-11.9,0.6-37.3-1.3-51.1
		c25.9,11.2,51.4,13.1,77.1,2c-6.8,14.8-7.5,30.4-6.7,42.6c0,0.8,0.2,1.6,0.5,2.2c3.3,14.2,4,28.4,4,42.7
		C132.4,113.2,131.6,120.5,131.5,127.8z M154.5,83.1c-3-1.3-19.7-20.1-22.1-25.4c-2.6-5.9,1.9-29.5,6.5-40.3
		c10.5,11.3,21.3,22.8,31.8,34.4c3.5,3.8,8.4,9.8,10,12.7C182.4,67.6,157.5,84.5,154.5,83.1z"/>
	<path class="st13" d="M32.9,83.5c-1.8,1.3-3.3,0.8-4.9-0.9c-5.9-6.5-11.9-12.8-18-19.4C22.2,44.5,38.3,29.7,53.4,15
		c0.9,9.3,0.9,41.1,0.7,51.9C48.4,74,40.3,78.3,32.9,83.5z"/>
	<path class="st11" d="M131.5,127.8c0,2.5-1,4.3-3,4.9c-3.7,1.2-7.6,2.3-11.4,2.5c-13.4,0.8-26.6-1.2-39.7-3
		c-4.7-0.7-9.5-1-14.2-1.7c-2.2-0.3-4.3-1.2-7-2c0-2.3-0.1-4.4,0-6.4c0.6-11,1.3-22,1.8-33c0.3-5,0.4-10,0.6-14.9h0c0,0,0-0.3,0-0.8
		c0-1.3,0.1-2.7,0.1-4c0-0.5,0-1,0-1.5c0.3-11.9,0.6-37.3-1.3-51.1c25.9,11.2,51.4,13.1,77.1,2c-6.8,14.8-7.5,30.4-6.7,42.6
		c0,0.8,0.2,1.6,0.5,2.2c3.3,14.2,4,28.4,4,42.7C132.4,113.2,131.6,120.5,131.5,127.8z"/>
	<path class="st13" d="M154.5,83.1c-3-1.3-19.7-20.1-22.1-25.4c-2.6-5.9,1.9-29.5,6.5-40.3c10.5,11.3,21.3,22.8,31.8,34.4
		c3.5,3.8,8.4,9.8,10,12.7C182.4,67.6,157.5,84.5,154.5,83.1z"/>
</g>
<g id="Islande_1_">
	<path d="M184.2,48.2c-7.7-6.4-15.7-12.2-23.7-18.3c-2.2-1.6-4.5-3-6.7-4.6c-6.4-5-12.7-10.1-18.9-15.3c-2.8-2.4-6.4-2.2-8.3-0.6
		c-3.1,2.6-6.7,3.1-10,4.6c-10.8,5.1-21.6,6-33.4,2.9C74.7,14.7,67.7,10.5,60,5.4c-4.7,2.5-9.9,5-14.9,7.9
		C32.7,20.5,20.4,28,8.1,35.3c-5.4,3.3-7.2,7.8-4.8,13.7c3.4,8.5,7.7,16.6,13.3,24c1.2,1.7,2.8,3.3,3.4,5.2
		c1.7,5.1,5.2,7.7,10.1,8.5c6.6-4.1,12.9-8,19.2-12c0,9-0.1,17.7,0,26.3c0.1,9.6,0,19.2-2.5,28.5c-0.4,1.4-0.5,3-0.1,4.3
		c0.3,1.3,1,3,2,3.6c2.7,1.4,5.7,3.1,8.6,3.3c10.3,1,20.7,2.2,31,1.9c13.8-0.4,27.6-2.3,41.4-3.3c8-0.5,12.4-3.6,12.3-13.7
		c0-9.7-1.7-19.4-2.9-29.1c-0.5-4.2-1.5-8.4-2.4-13.5c5.5,3,10.2,5.5,14.9,8c1.9-1,4.1-1.9,5.9-3.2c9.3-7.1,19.4-13.3,26.8-22.7
		C188.4,60.1,188.8,52,184.2,48.2z M93.6,132.8c-10.4,0.3-20.8,0.8-31.2,0.8c-3.4,0-6.8-1.1-10.5-1.8c0.4-2.2,0.6-3.6,1-5
		c3.2-12.7,1.7-25.6,1.6-38.5c-0.1-6.6,1.1-13.2,1.9-19.8c0.5-4.4,0.5-4.8-1.9-8.6c-9.7,3.8-17.6,11.2-28.1,15
		c-5.5-9.2-10.6-18-16-26.6c-2.2-3.5-1.4-5.7,2.1-7.7c14.2-8.6,28.5-17.1,43-25.8c1.2,1,2.3,1.9,3.3,2.9c7.8,8.3,18,10.9,28.8,11.3
		c3.3,0.1,6.6,0,9.9-0.3l5.1,103.7c-0.9,0-1.8,0-2.6,0C97.7,132.4,95.7,132.7,93.6,132.8z M111.6,132.4c-1.6,0-3.1,0-4.7,0
		l-4.5-104.3c2.1-0.4,4.2-0.8,6.2-1.4l5.2,105.7C113,132.4,112.3,132.4,111.6,132.4z M148.2,79.8c-9.1-3.5-15.8-10.9-24.7-17.3
		c-0.3,3.5-1,5.3-0.6,6.6c3.7,10.1,3.5,20.8,5.3,31.2c1.3,7.6,2.2,15.2,2.7,22.9c0.4,6.5-0.5,7.6-7,8.8c-1.9,0.3-3.9,0.4-5.8,0.4
		l-4.5-107.3c4.3-1.6,8.5-3.6,12.6-6.1c4.8-3,4.8-2.8,9.6,0.8c11.8,8.8,23.8,17.5,35.6,26.3c3,2.2,5.7,4.8,9.1,7.6
		C169.3,62.7,158.9,71.2,148.2,79.8z"/>
	<path class="st11" d="M111.6,132.4c-1.6,0-3.1,0-4.7,0l-4.5-104.3c2.1-0.4,4.2-0.8,6.2-1.4l5.2,105.7
		C113,132.4,112.3,132.4,111.6,132.4z"/>
	<path class="st12" d="M148.2,79.8c-9.1-3.5-15.8-10.9-24.7-17.3c-0.3,3.5-1,5.3-0.6,6.6c3.7,10.1,3.5,20.8,5.3,31.2
		c1.3,7.6,2.2,15.2,2.7,22.9c0.4,6.5-0.5,7.6-7,8.8c-1.9,0.3-3.9,0.4-5.8,0.4l-4.5-107.3c4.3-1.6,8.5-3.6,12.6-6.1
		c4.8-3,4.8-2.8,9.6,0.8c11.8,8.8,23.8,17.5,35.6,26.3c3,2.2,5.7,4.8,9.1,7.6C169.3,62.7,158.9,71.2,148.2,79.8z"/>
	<path class="st12" d="M93.6,132.8c-10.4,0.3-20.8,0.8-31.2,0.8c-3.4,0-6.8-1.1-10.5-1.8c0.4-2.2,0.6-3.6,1-5
		c3.2-12.7,1.7-25.6,1.6-38.5c-0.1-6.6,1.1-13.2,1.9-19.8c0.5-4.4,0.5-4.8-1.9-8.6c-9.7,3.8-17.6,11.2-28.1,15
		c-5.5-9.2-10.6-18-16-26.6c-2.2-3.5-1.4-5.7,2.1-7.7c14.2-8.6,28.5-17.1,43-25.8c1.2,1,2.3,1.9,3.3,2.9c7.8,8.3,18,10.9,28.8,11.3
		c3.3,0.1,6.6,0,9.9-0.3l5.1,103.7c-0.9,0-1.8,0-2.6,0C97.7,132.4,95.7,132.7,93.6,132.8z"/>
</g>
<g id="Autriche_1_">
	<path d="M179.7,70.7c-0.8-2.9-2.4-5.7-4.1-8.1c-2.9-4-6.8-7.4-9.4-11.6c-7.7-12.8-18.2-23.2-27.5-34.6c-2.1-2.6-5.1-2.6-7.7-2.2
		c-5.3,0.8-10.5,2.6-15.8,3.4c-16.5,2.5-32.3,1.7-46-9.4c-2.9-2.3-6.1-2.5-9.3-0.5c-1.6,1-3.2,1.9-4.8,3
		c-14.9,9.9-29.2,20.5-42.5,32.5c-3.4,3-3.8,4.7-1.3,8.5c3.3,4.8,6.6,9.6,9.9,14.4c3.3,4.8,6.3,9.8,9.6,14.6
		c2.3,3.3,5.1,4.1,8.9,2.8c3.5-1.2,7.1-2.3,11.4-3.7c-0.4,2.6-0.5,4.3-0.9,5.9c-3.2,12.7-6.4,25.4-9.7,38c-1.4,5.2,0.2,8.9,5.2,11
		c1.5,0.7,3.1,1.2,4.7,1.5c3.9,0.7,7.8,1.2,11.6,1.8c5.5,0.9,11,2.4,16.6,2.9c9.6,0.7,19.3,0.9,29,1.2c0.8,0,1.7-0.1,2.5-0.1
		c3-0.1,6.1-0.4,9.1-0.2c11.4,1,17.3-4.2,17.2-15.5c0-7.7-0.5-15.4-0.7-23.1c-0.1-3.3,0-6.5,0-11.8c4,5.7,7.7,3.1,10.7,2
		c8.5-3.1,16.8-7.1,25.1-10.8c1.5-0.7,2.8-1.8,4.3-2.6C179.7,77.8,180.7,74.3,179.7,70.7z M45.4,70.9c-3.7,1.9-7.4,3.5-11.1,5.3
		C28,66.7,22.4,58.2,16.4,49c13-11.6,26.2-22.8,41.3-31.6c1.5,13.5-0.5,35.7-2.4,44.5C53.2,66.3,49.9,68.7,45.4,70.9z M129.3,127.4
		c0,3.7-3.8,5.5-8.8,5.5c-10.7,0-28.9,0.1-35-0.6c-11.9-1.4-36.8-5.5-39.1-5.9c2.4-10.2,4.7-19.6,7-29.1c2.4-9.7,9.8-42.9,8.2-78.6
		c22.6,15.8,46.4,13.1,71.2,4.3c-0.3,0.7-0.6,1.5-0.9,2.5c-3.4,10.5-7.5,38.2-6.3,42.9c0.5,7.9,0.6,15.8,2,23.6
		C129.9,103.8,129.2,115.6,129.3,127.4z M142.4,81.4c-5.9-3.5-8.8-9.7-13.4-15.3c-0.5-11.9,5.3-34,7.9-43.2
		c12.1,13.2,22.4,28.2,33.7,43.2C162.1,72.9,152.4,77.4,142.4,81.4z"/>
	<path class="st11" d="M129.3,127.4c0,3.7-3.8,5.5-8.8,5.5c-10.7,0-28.9,0.1-35-0.6c-11.9-1.4-36.8-5.5-39.1-5.9
		c2.4-10.2,4.7-19.6,7-29.1c2.4-9.7,9.8-42.9,8.2-78.6c22.6,15.8,46.4,13.1,71.2,4.3c-0.3,0.7-0.6,1.5-0.9,2.5
		c-3.4,10.5-7.5,38.2-6.3,42.9c0.5,7.9,0.6,15.8,2,23.6C129.9,103.8,129.2,115.6,129.3,127.4z"/>
	<path class="st8" d="M45.4,70.9c-3.7,1.9-7.4,3.5-11.1,5.3C28,66.7,22.4,58.2,16.4,49c13-11.6,26.2-22.8,41.3-31.6
		c1.5,13.5-0.5,35.7-2.4,44.5C53.2,66.3,49.9,68.7,45.4,70.9z"/>
	<path class="st8" d="M142.4,81.4c-5.9-3.5-8.8-9.7-13.4-15.3c-0.5-11.9,5.3-34,7.9-43.2c12.1,13.2,22.4,28.2,33.7,43.2
		C162.1,72.9,152.4,77.4,142.4,81.4z"/>
</g>
<g id="République_Tchèque_1_">
	<path d="M54.9,80.5c-6.2,5.2-11.4,9.7-16.4,13.9c-6.3-0.7-9.8-4.6-13.4-8.7C20.9,81,15.9,76.9,11,72.9c-4.8-3.9-6-9.7-2-14.4
		c7.1-8.6,14-17.4,21.6-25.5C38.3,24.8,46.8,17.4,55,9.7c2.5-2.4,5.1-2.6,8.2-0.9c15,8.3,31.2,10.4,48,9.5
		c7.2-0.4,14.2-1.7,20.6-5.4c3.9-2.2,6.4-1.4,9.3,2c5.7,6.7,11.5,13.2,17.3,19.8c7.7,8.9,15.4,17.7,23,26.7c2.5,2.9,2.3,6.4,0.5,9.4
		c-1.6,2.7-3.7,5.2-6.2,7.1c-4.7,3.6-9.8,6.7-14.9,9.8c-5.5,3.4-8.6,2.9-13.1-1.7c-3.1-3.1-6-6.4-9.8-10.5c-0.3,4.2-0.3,7.6,0,11
		c0.2,2.6,0.6,5.1,0.7,7.7c0.4,9,0.7,18,1,26.9c0.2,7.6-2.5,13.7-9.6,17.1c-2.6,1.2-5.6,2.2-8.5,2.2c-14.4,0-28.8-0.1-43.1-0.7
		c-5.7-0.2-11.4-1.5-17-2.7c-6.6-1.4-9.8-6.3-9.4-13c0.5-7.2,0.6-14.3,1.2-21.5c0.4-5.3,1.2-10.6,1.7-16
		C55.1,85,54.9,83.3,54.9,80.5z M130.8,58.4C138,66.7,145,74.8,152,82.8c8.7-6.1,16.8-11.8,25.2-17.7c-3.5-4.4-6.3-8.5-9.6-12.2
		c-10.3-11.3-20.8-22.5-31.1-33.6c-27,13-53.7,10.8-81.1-1.9C40.8,31.4,25.3,45.7,13.6,63.7c5.8,6.3,11.6,12.3,17.2,18.6
		c1.5,1.6,2.9,2.1,4.7,0.9c7.9-5.5,16.6-10.1,22.2-18.5c2.6,0.6,2.6,2.7,2.6,4.7c-0.2,6.3-0.4,12.7-0.8,19
		c-0.5,10.6-1.2,21.1-1.8,31.7c-0.1,2,0,3.9,0,6.2c2.5,0.7,4.6,1.6,6.7,1.9c4.5,0.7,9.1,1,13.6,1.6c12.6,1.8,25.3,3.7,38.1,2.9
		c3.7-0.2,7.4-1.3,10.9-2.4c1.9-0.6,2.9-2.3,2.9-4.7c0.1-7,0.8-14,0.8-20.9c0-14.4-0.7-28.7-4.3-43
		C127.9,60.6,129.3,59.6,130.8,58.4z"/>
	<path class="st11" d="M130.8,58.4C138,66.7,145,74.8,152,82.8c8.7-6.1,16.8-11.8,25.2-17.7c-3.5-4.4-6.3-8.5-9.6-12.2
		c-10.3-11.3-20.8-22.5-31.1-33.6c-27,13-53.7,10.8-81.1-1.9C40.8,31.4,25.3,45.7,13.6,63.7c5.8,6.3,11.6,12.3,17.2,18.6
		c1.5,1.6,2.9,2.1,4.7,0.9c7.9-5.5,16.6-10.1,22.2-18.5c2.6,0.6,2.6,2.7,2.6,4.7c-0.2,6.3-0.4,12.7-0.8,19
		c-0.5,10.6-1.2,21.1-1.8,31.7c-0.1,2,0,3.9,0,6.2c2.5,0.7,4.6,1.6,6.7,1.9c4.5,0.7,9.1,1,13.6,1.6c12.6,1.8,25.3,3.7,38.1,2.9
		c3.7-0.2,7.4-1.3,10.9-2.4c1.9-0.6,2.9-2.3,2.9-4.7c0.1-7,0.8-14,0.8-20.9c0-14.4-0.7-28.7-4.3-43
		C127.9,60.6,129.3,59.6,130.8,58.4z"/>
</g>
<g id="Espagne_1_">
	<path d="M180.4,49.2c-7.4-6.1-15.1-11.7-22.7-17.5c-2.1-1.6-4.4-2.8-6.4-4.4c-6.1-4.8-12.2-9.6-18.1-14.6c-2.7-2.3-6.2-2.1-8-0.6
		c-3,2.5-6.4,2.9-9.6,4.4c-10.3,4.9-20.7,5.7-32,2.8c-8.1-2.1-14.9-6.1-22.2-11c-4.5,2.4-9.5,4.8-14.3,7.6
		C35.3,22.8,23.6,29.9,11.8,37c-5.2,3.1-6.9,7.5-4.6,13.2C10.4,58.3,21,85,30.3,85.4c2.2,0.1,14.9-7,20.9-10.8
		c0,8.6-0.1,16.9,0,25.2c0.1,9.2,0,18.4-2.4,27.3c-0.3,1.3-0.4,2.8-0.1,4.2c0.3,1.3,0.9,2.9,1.9,3.4c2.6,1.4,5.4,2.9,8.3,3.2
		c9.9,0.9,19.9,2.1,29.7,1.8c13.2-0.4,26.4-2.2,39.6-3.1c7.7-0.5,11.9-3.5,11.8-13.2c0-9.3-1.7-18.6-2.8-27.9
		c-0.5-4.1-1.4-8.1-2.3-12.9c5.3,2.9,9.7,5.3,14.2,7.7c1.8-1,4-1.8,5.7-3.1c8.9-6.8,18.6-12.8,25.7-21.7
		C184.5,60.7,184.9,52.9,180.4,49.2z M53.7,129.4c0.4-2.1,0.6-3.5,0.9-4.8c3-12.2,2.6-49.6,3.3-55.9c0.4-3.4,0.5-4.3-0.6-6.3
		l2.7-1.4v69.7C57.9,130.3,55.9,129.8,53.7,129.4z M122.7,129.6c-0.1,0-0.2,0-0.3,0l-2.8-64.9l2.9,2.3c0.7,7.8,3,24.2,4.3,32.2
		c1.2,7.2,2.1,14.6,2.6,21.9C129.8,127.4,128.9,128.5,122.7,129.6z M146,79.6c-8.7-3.4-15.1-10.5-23.7-16.5l-4.9-3.6l2.1,70.4
		c-2.9,0.2-5.8,0-8.7,0c-3.8,0-7.5,0-11.3,0c-2,0-4,0.3-6,0.4c-10,0.3-19.9,0.8-29.9,0.8c-0.4,0-0.9,0-1.3-0.1V57.5L54.7,61v0
		c-8.7,3.7-16,10.4-25.6,13.8C23.9,66,19,57.6,13.8,49.4c-2.1-3.4-1.3-5.4,2-7.4C29.4,33.7,43.1,25.6,57,17.3c1.1,1,2.2,1.8,3.1,2.8
		c7.5,8,17.3,10.4,27.6,10.8c13.2,0.5,25.7-2.6,37-9.7c4.6-2.9,4.6-2.7,9.2,0.7c11.3,8.4,22.8,16.8,34.1,25.2
		c2.8,2.1,5.5,4.6,8.7,7.3C166.2,63.2,156.2,71.3,146,79.6z"/>
	<path class="st10" d="M53.7,129.4c0.4-2.1,0.6-3.5,0.9-4.8c3-12.2,2.6-49.6,3.3-55.9c0.4-3.4,0.5-4.3-0.6-6.3l2.7-1.4v69.7
		C57.9,130.3,55.9,129.8,53.7,129.4z"/>
	<path class="st10" d="M122.7,129.6c-0.1,0-0.2,0-0.3,0l-2.8-64.9l2.9,2.3c0.7,7.8,3,24.2,4.3,32.2c1.2,7.2,2.1,14.6,2.6,21.9
		C129.8,127.4,128.9,128.5,122.7,129.6z"/>
	<path class="st11" d="M146,79.6c-8.7-3.4-15.1-10.5-23.7-16.5l-4.9-3.6l2.1,70.4c-2.9,0.2-5.8,0-8.7,0c-3.8,0-7.5,0-11.3,0
		c-2,0-4,0.3-6,0.4c-10,0.3-19.9,0.8-29.9,0.8c-0.4,0-0.9,0-1.3-0.1V57.5L54.7,61v0c-8.7,3.7-16,10.4-25.6,13.8
		C23.9,66,19,57.6,13.8,49.4c-2.1-3.4-1.3-5.4,2-7.4C29.4,33.7,43.1,25.6,57,17.3c1.1,1,2.2,1.8,3.1,2.8c7.5,8,17.3,10.4,27.6,10.8
		c13.2,0.5,25.7-2.6,37-9.7c4.6-2.9,4.6-2.7,9.2,0.7c11.3,8.4,22.8,16.8,34.1,25.2c2.8,2.1,5.5,4.6,8.7,7.3
		C166.2,63.2,156.2,71.3,146,79.6z"/>
</g>
<g id="Turquie_1_">
	<path d="M176.2,70.8c-0.7-2.8-2.3-5.5-4-7.8c-2.8-3.9-6.5-7.1-9-11.1c-7.3-12.2-17.5-22.2-26.3-33.2c-2-2.5-4.9-2.5-7.4-2.1
		c-5.1,0.8-10.1,2.5-15.2,3.3c-15.8,2.4-30.9,1.6-44.1-9.1c-2.8-2.2-5.8-2.4-8.9-0.5c-1.5,0.9-3.1,1.8-4.6,2.8
		c-14.2,9.5-28,19.7-40.7,31.2c-3.2,2.9-3.6,4.5-1.2,8.1c3.1,4.6,6.4,9.2,9.5,13.8c3.1,4.6,6.1,9.4,9.2,14c2.2,3.2,4.9,3.9,8.6,2.7
		c3.4-1.1,6.8-2.2,11-3.6c-0.4,2.5-0.5,4.1-0.8,5.6c-3.1,12.2-6.2,24.3-9.3,36.5c-1.3,5,0.2,8.5,5,10.6c1.4,0.6,3,1.1,4.5,1.4
		c3.7,0.7,7.4,1.1,11.2,1.8c5.3,0.9,10.6,2.3,15.9,2.7c9.2,0.7,18.5,0.8,27.8,1.2c0.8,0,1.6-0.1,2.4-0.1c2.9-0.1,5.9-0.4,8.7-0.2
		c10.9,0.9,16.6-4,16.5-14.8c0-7.4-4.3-38.8-4.3-43.9c3.8,5.4,9,13.1,11.8,12c8.2-3,18.1-6.5,26.1-10.1c1.4-0.6,2.7-1.7,4.1-2.5
		C176.2,77.6,177.1,74.3,176.2,70.8z M140.4,81.1c-7.4-7.5-10.5-13.1-13.5-16.2c-1.3-1.3-7.7-4.2-7.7-4.2l-2.5,69.6
		c-5-0.3-10-0.6-14.9-1.2c-11.4-1.3-23.1,0-34.5-2.7c-1.7-0.4-3.4-0.5-5.1-0.6l9.5-70.1c0,0-18.8,12.6-24.2,15.3
		c-3.5,1.8-7.1,3.4-10.7,5C30.8,67,25.5,58.9,19.7,50c12.8-11.4,25.7-22.4,40.7-30.9c23.3,18,48.1,14.6,74,5
		c12,12.8,22,27.6,33.1,42.3C159.3,72.9,150,77.3,140.4,81.1z"/>
	<path class="st11" d="M140.4,81.1c-7.4-7.5-10.5-13.1-13.5-16.2c-1.3-1.3-7.7-4.2-7.7-4.2l-2.5,69.6c-5-0.3-10-0.6-14.9-1.2
		c-11.4-1.3-23.1,0-34.5-2.7c-1.7-0.4-3.4-0.5-5.1-0.6l9.5-70.1c0,0-18.8,12.6-24.2,15.3c-3.5,1.8-7.1,3.4-10.7,5
		C30.8,67,25.5,58.9,19.7,50c12.8-11.4,25.7-22.4,40.7-30.9c23.3,18,48.1,14.6,74,5c12,12.8,22,27.6,33.1,42.3
		C159.3,72.9,150,77.3,140.4,81.1z"/>
</g>
<g id="Croatie_1_">
	<path d="M185.5,57.1c-5.5-7.3-11.2-14.5-17-21.6c-3-3.7-6.4-7.1-9.8-10.4c-2.7-2.6-5.5-5.1-8.3-7.6c-0.9-0.8-9.7-8.4-17.3-1.4
		c-5.2,2.2-11.1,3.5-16.8,3.8C100.1,20.7,85,16.5,71.6,7.4c-3.1-2.1-5.2-1.9-8.1-0.3c-7.8,4.4-15.8,8.5-23.5,13.1
		C27.9,27.4,15.9,35,3.7,42.2c-3.1,1.8-4.1,4.2-3.6,7.4c0.3,2,0.5,4.1,1.3,5.8c4.5,9.1,9.2,18.2,13.9,27.2c1.3,2.5,3.3,3.3,6,2.2
		c2.6-1.1,5.2-2.1,7.7-3.2c7.5-3.3,15.1-6.7,23.2-10.3c-1,6.6-1.6,12.5-2.9,18.3c-2.1,9.4-4.2,33.9-4.6,36.7
		c-0.4,2.2-0.9,4.3-1.1,6.4c-0.3,2.9,2,6.3,4.5,6.8c3.7,0.7,7.4,1.5,11.2,1.7c11.7,0.5,23.4,1.2,35.1,1.1c7.5-0.1,15-1.3,22.5-2.2
		c2.9-0.4,5.8-1.4,8.7-1.9c7.6-1.3,7.6-1.2,8.6-9.3c0.1-0.8,0.4-1.5,0.5-2.3c0.5-3.7,1.3-42.7,1.9-47.7c6.2,4.8,11.9,9,17.4,13.5
		c3.5,2.9,5.2,3.2,8.7,0.8c2.6-1.8,5.4-3.4,7.9-5.4c7.7-6.2,16.6-11.4,19.2-22.7C188.4,62.3,187.3,59.4,185.5,57.1z M122.9,30.1
		c1.9-0.2,3.8-1.1,5.6-2c3-1.4,5.9-2.9,9.1-4.5c-1.8,4.8-3.2,9.2-4.5,13.5c-5.3,0.5-10.4,0.8-15.4,0.9c0.3-3.7,0.5-6.3,0.6-7.6
		C119.5,30.3,121.7,30.2,122.9,30.1z M126.1,96.1c-3.8,0.3-8.5,0.4-13.5,0.3c0.4-4.1,0.7-8.4,1.1-12.6c5.6-0.1,10-0.2,12.6-0.4
		C126.3,87.5,126.2,91.7,126.1,96.1z M108.1,77.8c-4.2,0-8.5-0.2-12.9-0.4c0.5-4.8,1-9.1,1.4-12.7c4.5,0.2,8.8,0.3,12.7,0.4
		C108.8,69.4,108.4,73.8,108.1,77.8z M88.4,76.9c-4.2-0.3-8.5-0.8-12.8-1.3c0.4-4.3,0.8-8.6,1.1-12.7c4.3,0.6,8.6,1,12.7,1.3
		C89.1,68.7,88.7,73,88.4,76.9z M88,83c-0.1,0.8-0.1,1.5-0.2,2.2c-0.2,3.3-0.5,6.7-0.7,10.3c-4.6-0.3-9-0.6-13.1-0.9
		c0.4-4.2,0.8-8.6,1.2-12.9C79.5,82.2,83.8,82.7,88,83z M94.6,83.4c4.6,0.3,9,0.4,13.1,0.4c-0.1,1.6-0.2,3-0.3,4.4
		c-0.2,2.6-0.4,5.3-0.6,8.1c-4.4-0.1-8.9-0.3-13.5-0.5C93.7,91.6,94.1,87.4,94.6,83.4z M126.7,77.1c-4,0.3-8.1,0.6-12.4,0.6
		c0.4-4.3,0.8-8.6,1.1-12.7c5.8-0.1,10.1-0.3,12.2-0.4C127.2,68.7,126.9,72.8,126.7,77.1z M109.8,58.9c-4.1-0.1-8.3-0.2-12.5-0.5
		c0.1-0.5,0.1-0.9,0.1-1.2c0.4-3.6,0.9-8,1.2-12.6c4.4,0.2,8.6,0.3,12.5,0.4C110.7,49.4,110.2,54.2,109.8,58.9z M90.1,58
		c-4.2-0.3-8.5-0.8-12.8-1.3c0.4-4.9,0.8-9.5,1.2-13.6c4.3,0.5,8.7,0.8,12.9,1.1C91,48.6,90.5,53.3,90.1,58z M71.2,55.9
		c-4-0.6-8.1-1.2-12.1-1.9c0.6-4,1.3-8.7,2-13.5c3.7,0.7,7.5,1.3,11.4,1.9C72.1,46.7,71.7,51.3,71.2,55.9z M57.7,63.4
		c0.2-1,0.4-2.3,0.6-3.8c4.1,1,8.2,1.8,12.4,2.5c-0.4,4.4-0.8,8.8-1.1,12.8c-4-0.6-8.1-1.2-12.2-1.9c0.2-2,0.4-4,0.6-5.9
		C58.1,65.7,58,64.5,57.7,63.4z M56.8,78.3c4,1,8.1,1.8,12.3,2.5c-0.1,1.6-0.2,3.1-0.3,4.5c-0.2,2.8-0.4,5.8-0.6,8.9
		c-6.3-0.5-11.3-1-13.9-1.4c0.3-1.7,0.7-3.4,1.1-5.1C55.9,84.6,56.4,81.4,56.8,78.3z M67.7,99.8c-0.4,4.5-0.8,8.9-1.1,13.1
		c-4.9-0.6-9.9-1.3-15.1-2c0.5-4.4,1.1-8.8,1.8-13.1C57,98.6,62,99.2,67.7,99.8z M73.5,100.2c4.2,0.3,8.7,0.5,13.2,0.7
		c-0.4,4.7-0.8,9.4-1.2,13.7c-4.3-0.3-8.7-0.7-13.1-1.2C72.6,109.4,73,104.9,73.5,100.2z M92.7,101.2c4.7,0.1,9.3,0.2,13.6,0.3
		c-0.4,4.8-0.8,9.7-1.2,14.2c-4.5-0.1-9.1-0.2-13.8-0.5C91.8,110.7,92.2,106,92.7,101.2z M112.2,101.5c5.9,0,10.8,0,13.8,0
		c0,2.7-0.1,5.5-0.1,8.4c0,1.8-0.2,3.5-0.5,5.2c-4.8,0.3-9.6,0.5-14.5,0.5C111.3,111.3,111.8,106.5,112.2,101.5z M116,58.9
		c0.4-5.1,0.8-9.8,1.2-13.9c6.7,0,11.8-0.1,13.9-0.2c-1.1,4.6-1.9,9.1-2.6,13.5C124.4,58.7,120.3,58.9,116,58.9z M112.6,31
		c-0.2,2.1-0.5,4.5-0.7,7.1c-4.4,0-8.7-0.1-12.7-0.3c0.2-2.7,0.4-5.2,0.5-7.6C104,31.1,108.3,31.3,112.6,31z M93,29
		c-0.3,2.5-0.6,5.3-0.9,8.4c-4.8-0.4-9.2-0.8-13-1.4c0.4-5,0.7-8.5,0.8-9.9C83.8,27.4,88.9,28.2,93,29z M64.4,16.4
		c1.6,0.5,3.2,1.5,4.9,3.1c1.7,1.6,3.4,2.8,5.3,3.9c-0.3,2.9-0.7,7-1.2,11.9c-5-0.8-8.8-1.6-11-2.1C63.3,26.1,64.1,19.8,64.4,16.4z
		 M51.9,61C39.5,64.6,29,71.4,18.5,78.7c-4.9-9.3-9.8-18.6-15-28.2c2.3-1.9,3.9-3.7,5.9-4.9c15.3-9,30.8-17.6,45.8-27
		c1-0.6,2-1.1,2.9-1.5C57.7,26.3,54.2,51.2,51.9,61z M49.7,131.5c0.2-2.8,0.4-4.7,0.5-6.6c0.2-2.9,0.4-5.9,0.7-8.8
		c5,1,10,1.9,15.1,2.5c-0.6,6.6-1.2,11.9-1.4,14.2C59.7,132.4,54.8,131.9,49.7,131.5z M70.4,133.2c0.2-2.4,0.7-7.4,1.3-13.9
		c4.4,0.5,8.9,0.9,13.1,1.2c-0.7,7.1-1.2,12.3-1.3,13.4C79.2,133.7,74.8,133.5,70.4,133.2z M96.3,134.1c-2.3,0-4.6,0-6.9,0
		c0.3-2.6,0.7-7.3,1.3-13.2c4.9,0.3,9.5,0.4,13.8,0.5c-0.5,5.1-0.9,9.4-1.2,12.3C101,133.8,98.7,134,96.3,134.1z M115.9,132
		c-2.2,0.3-4.4,0.6-6.6,0.9c0.3-2.6,0.6-6.6,1.1-11.5c5.8,0,10.6-0.1,14.2-0.2c-0.1,0.6-0.2,1.2-0.2,1.8
		C123.8,128.3,121.1,131.4,115.9,132z M156.8,87.1c-10.1-7.7-14.7-13.4-24.7-21c1.1-10.1,6.7-35.1,12-42.4
		c12.2,14.9,24.1,29.5,36.1,44.1C174.6,77.1,165.2,81,156.8,87.1z"/>
	<path class="st11" d="M122.9,30.1c1.9-0.2,3.8-1.1,5.6-2c3-1.4,5.9-2.9,9.1-4.5c-1.8,4.8-3.2,9.2-4.5,13.5
		c-5.3,0.5-10.4,0.8-15.4,0.9c0.3-3.7,0.5-6.3,0.6-7.6C119.5,30.3,121.7,30.2,122.9,30.1z"/>
	<path class="st11" d="M88.4,76.9c-4.2-0.3-8.5-0.8-12.8-1.3c0.4-4.3,0.8-8.6,1.1-12.7c4.3,0.6,8.6,1,12.7,1.3
		C89.1,68.7,88.7,73,88.4,76.9z"/>
	<path class="st11" d="M94.6,83.4c4.6,0.3,9,0.4,13.1,0.4c-0.1,1.6-0.2,3-0.3,4.4c-0.2,2.6-0.4,5.3-0.6,8.1
		c-4.4-0.1-8.9-0.3-13.5-0.5C93.7,91.6,94.1,87.4,94.6,83.4z"/>
	<path class="st11" d="M126.7,77.1c-4,0.3-8.1,0.6-12.4,0.6c0.4-4.3,0.8-8.6,1.1-12.7c5.8-0.1,10.1-0.3,12.2-0.4
		C127.2,68.7,126.9,72.8,126.7,77.1z"/>
	<path class="st11" d="M109.8,58.9c-4.1-0.1-8.3-0.2-12.5-0.5c0.1-0.5,0.1-0.9,0.1-1.2c0.4-3.6,0.9-8,1.2-12.6
		c4.4,0.2,8.6,0.3,12.5,0.4C110.7,49.4,110.2,54.2,109.8,58.9z"/>
	<path class="st11" d="M71.2,55.9c-4-0.6-8.1-1.2-12.1-1.9c0.6-4,1.3-8.7,2-13.5c3.7,0.7,7.5,1.3,11.4,1.9
		C72.1,46.7,71.7,51.3,71.2,55.9z"/>
	<path class="st11" d="M56.8,78.3c4,1,8.1,1.8,12.3,2.5c-0.1,1.6-0.2,3.1-0.3,4.5c-0.2,2.8-0.4,5.8-0.6,8.9
		c-6.3-0.5-11.3-1-13.9-1.4c0.3-1.7,0.7-3.4,1.1-5.1C55.9,84.6,56.4,81.4,56.8,78.3z"/>
	<path class="st11" d="M73.5,100.2c4.2,0.3,8.7,0.5,13.2,0.7c-0.4,4.7-0.8,9.4-1.2,13.7c-4.3-0.3-8.7-0.7-13.1-1.2
		C72.6,109.4,73,104.9,73.5,100.2z"/>
	<path class="st11" d="M112.2,101.5c5.9,0,10.8,0,13.8,0c0,2.7-0.1,5.5-0.1,8.4c0,1.8-0.2,3.5-0.5,5.2c-4.8,0.3-9.6,0.5-14.5,0.5
		C111.3,111.3,111.8,106.5,112.2,101.5z"/>
	<path class="st11" d="M93,29c-0.3,2.5-0.6,5.3-0.9,8.4c-4.8-0.4-9.2-0.8-13-1.4c0.4-5,0.7-8.5,0.8-9.9C83.8,27.4,88.9,28.2,93,29z"
		/>
	<path class="st11" d="M51.9,61C39.5,64.6,29,71.4,18.5,78.7c-4.9-9.3-9.8-18.6-15-28.2c2.3-1.9,3.9-3.7,5.9-4.9
		c15.3-9,30.8-17.6,45.8-27c1-0.6,2-1.1,2.9-1.5C57.7,26.3,54.2,51.2,51.9,61z"/>
	<path class="st11" d="M49.7,131.5c0.2-2.8,0.4-4.7,0.5-6.6c0.2-2.9,0.4-5.9,0.7-8.8c5,1,10,1.9,15.1,2.5
		c-0.6,6.6-1.2,11.9-1.4,14.2C59.7,132.4,54.8,131.9,49.7,131.5z"/>
	<path class="st11" d="M96.3,134.1c-2.3,0-4.6,0-6.9,0c0.3-2.6,0.7-7.3,1.3-13.2c4.9,0.3,9.5,0.4,13.8,0.5
		c-0.5,5.1-0.9,9.4-1.2,12.3C101,133.8,98.7,134,96.3,134.1z"/>
	<path class="st11" d="M156.8,87.1c-10.1-7.7-14.7-13.4-24.7-21c1.1-10.1,6.7-35.1,12-42.4c12.2,14.9,24.1,29.5,36.1,44.1
		C174.6,77.1,165.2,81,156.8,87.1z"/>
	<path class="st8" d="M126.1,96.1c-3.8,0.3-8.5,0.4-13.5,0.3c0.4-4.1,0.7-8.4,1.1-12.6c5.6-0.1,10-0.2,12.6-0.4
		C126.3,87.5,126.2,91.7,126.1,96.1z"/>
	<path class="st8" d="M108.1,77.8c-4.2,0-8.5-0.2-12.9-0.4c0.5-4.8,1-9.1,1.4-12.7c4.5,0.2,8.8,0.3,12.7,0.4
		C108.8,69.4,108.4,73.8,108.1,77.8z"/>
	<path class="st8" d="M88,83c-0.1,0.8-0.1,1.5-0.2,2.2c-0.2,3.3-0.5,6.7-0.7,10.3c-4.6-0.3-9-0.6-13.1-0.9c0.4-4.2,0.8-8.6,1.2-12.9
		C79.5,82.2,83.8,82.7,88,83z"/>
	<path class="st8" d="M90.1,58c-4.2-0.3-8.5-0.8-12.8-1.3c0.4-4.9,0.8-9.5,1.2-13.6c4.3,0.5,8.7,0.8,12.9,1.1
		C91,48.6,90.5,53.3,90.1,58z"/>
	<path class="st8" d="M57.7,63.4c0.2-1,0.4-2.3,0.6-3.8c4.1,1,8.2,1.8,12.4,2.5c-0.4,4.4-0.8,8.8-1.1,12.8c-4-0.6-8.1-1.2-12.2-1.9
		c0.2-2,0.4-4,0.6-5.9C58.1,65.7,58,64.5,57.7,63.4z"/>
	<path class="st8" d="M67.7,99.8c-0.4,4.5-0.8,8.9-1.1,13.1c-4.9-0.6-9.9-1.3-15.1-2c0.5-4.4,1.1-8.8,1.8-13.1
		C57,98.6,62,99.2,67.7,99.8z"/>
	<path class="st8" d="M92.7,101.2c4.7,0.1,9.3,0.2,13.6,0.3c-0.4,4.8-0.8,9.7-1.2,14.2c-4.5-0.1-9.1-0.2-13.8-0.5
		C91.8,110.7,92.2,106,92.7,101.2z"/>
	<path class="st8" d="M116,58.9c0.4-5.1,0.8-9.8,1.2-13.9c6.7,0,11.8-0.1,13.9-0.2c-1.1,4.6-1.9,9.1-2.6,13.5
		C124.4,58.7,120.3,58.9,116,58.9z"/>
	<path class="st8" d="M112.6,31c-0.2,2.1-0.5,4.5-0.7,7.1c-4.4,0-8.7-0.1-12.7-0.3c0.2-2.7,0.4-5.2,0.5-7.6
		C104,31.1,108.3,31.3,112.6,31z"/>
	<path class="st8" d="M64.4,16.4c1.6,0.5,3.2,1.5,4.9,3.1c1.7,1.6,3.4,2.8,5.3,3.9c-0.3,2.9-0.7,7-1.2,11.9c-5-0.8-8.8-1.6-11-2.1
		C63.3,26.1,64.1,19.8,64.4,16.4z"/>
	<path class="st8" d="M70.4,133.2c0.2-2.4,0.7-7.4,1.3-13.9c4.4,0.5,8.9,0.9,13.1,1.2c-0.7,7.1-1.2,12.3-1.3,13.4
		C79.2,133.7,74.8,133.5,70.4,133.2z"/>
	<path class="st8" d="M115.9,132c-2.2,0.3-4.4,0.6-6.6,0.9c0.3-2.6,0.6-6.6,1.1-11.5c5.8,0,10.6-0.1,14.2-0.2
		c-0.1,0.6-0.2,1.2-0.2,1.8C123.8,128.3,121.1,131.4,115.9,132z"/>
</g>
</svg>
