<?xml version="1.0" encoding="utf-8"?>
<!-- Generator: Adobe Illustrator 19.1.0, SVG Export Plug-In . SVG Version: 6.00 Build 0)  -->
<svg version="1.1" id="Calque_1" xmlns="http://www.w3.org/2000/svg" xmlns:xlink="http://www.w3.org/1999/xlink" x="0px" y="0px"
	 viewBox="0 0 950.3 481.6" style="enable-background:new 0 0 950.3 481.6;" xml:space="preserve">
<style type="text/css">
	.st0{fill:#009DBF;}
	.st1{fill:#D0095B;}
	.st2{fill:#009EC0;}
	.st3{fill:#D1005A;}
	.st4{fill:#C0BFBF;}
	.st5{enable-background:new    ;}
	.st6{fill:none;stroke:#D0095B;stroke-width:3;stroke-miterlimit:10;}
	.st7{fill:#FFFFFF;stroke:#D0095B;stroke-width:3;stroke-miterlimit:10;}
	.st8{fill:#FFFFFF;}
</style>
<g>
	<path d="M428,192.5c21.2,0,39.8,23.1,30.2,46.4c12.1-5.9,32.7-35.1,36.3-52.6c-0.6-0.3-1.3-0.6-2-0.9c-1.9-1-2.7-2.7-2-4.5
		c0.8-2.3,1.9-4.5,3.3-6.5c2.9-3.9,6-7.7,9.2-11.7c3.5,1,6.5,3.2,9.2,5.7c1.6,1.5,0.8,3.3-0.1,5c-1.9,3.4-3.9,6.7-5.7,10.1
		c-0.8,1.5-1.3,3.1-1.7,4.7c-0.5,1.8-1.6,2.8-3.3,2.2c-2.1-0.7-2.8,0.4-3.5,1.9c-3.4,6.9-6.7,13.9-10.4,20.7
		c-3.8,7.1-9.2,13-14.5,19.1c-5.9,6.8-13.4,11.6-20.2,17.3c-2.4,2-4.8,3.9-7.2,5.8c-3.3,2.6-6.5,5.5-10.8,6.5c0,11,0.1,21.9,0,32.7
		c-0.1,5.9-0.7,11.8-0.7,17.8c0,7.3,0.4,14.7,0.5,22c0,0.7-0.1,1.5-0.1,2.2c-7.3,0.3-14.4,0.9-21.7-0.6c-1.6,7.2-1.1,14.2-1.3,21.5
		c2.1-0.2,4-0.5,5.9-0.6c1.9-0.1,3.9,0.1,5.8,0c2.2-0.1,4.1,0.1,5.2,2c-0.5,2.5-0.9,4.7-1.3,7c-0.3,2-1.2,3-3.3,2.9
		c-4.9-0.3-9.8-0.5-14.6-1.3c-4.1-0.7-4.9-2.2-3.4-6.3c1.6-4.3,1.7-8.8,1.8-13.3c0.1-4.2,0.4-8.4,0.6-12.3c-5.4-2.1-10.4-4-15.7-6
		c0.1,0.9,0.1,1.6,0.2,2.2c0.7,8.3,0.6,16.6-0.2,25c-0.2,1.7,0.3,3.5,0.4,5.5c-2.1,0.8-4,1.5-6.1,2.4c2.5,14.9,8.5,28.9,12.1,43.6
		c-3.9,2.8-7.4,5.9-12.1,7.3c-0.4,0.1-0.8,0.2-1,0.5c-5.9,5-13.2,6.9-20.4,8.8c-1.9,0.5-3.4,1.3-3.4,3.5c0,7.7,0,15.5,0,23.5
		c4.8-0.3,9.7-0.5,14.5-0.9c1-0.1,1.9-0.7,3.3-1.3c0.5,1.1,1.5,2.3,1.3,3.3c-0.6,2.9-1.1,6-2.6,8.4c-0.8,1.4-3.5,2-5.4,2.2
		c-4,0.3-8.1,0.2-13.1,0.2c-2.7-1.7-1.8-5.4-1.9-8.5c-0.2-5.4,0.3-10.8,0.4-16.2c0.1-3.8,0-7.7,0-11.7c-9.6,1.8-19.3,3.9-29.5,2.9
		c-1.2,11.5,1.3,22.5,2.3,33.4c-4.4,3-9.3,3.2-13.8,4.5c-1.1,0.3-2.3,0.5-3.4,0.8c-3.3,1-5.5-0.1-6.5-3.3c0-0.1-0.1-0.3-0.1-0.4
		c-1.5-5.9-1-6.9,5-8.2c4-0.9,8.1-1.1,12.2-1.7c0.5-0.1,1-0.2,1.7-0.3c-0.5-8.1-1-16.1-1.5-24.3c-2.3-0.4-4.6-0.7-6.8-1.1
		c-6.9-1.2-13.5-3.4-19.7-6.5c-3.1-1.6-6-3.5-7.4-7.1c3-3.1,2.8-7.4,3.7-11.2c2.7-11.4,5-22.9,7.5-34.4c0.3-1.6,0.5-3.3,0.8-5.5
		c-2.6-0.1-4.9-0.3-7.3-0.3c-2.4,0-3.9-0.9-3.8-3.2c0.1-2.3-0.9-4.9,1.6-6.8c0.6-0.4,0.6-1.7,0.7-2.5c0.7-4.7,1.3-9.4,2-14.1
		c0.2-1.5-0.3-2.4-1.6-3.1c-6.1-3.6-10.4-8.7-13-15.4c-2.7,0.7-5.3,1.4-7.9,2.1c-0.3,2.9-0.7,5.7-0.9,8.5
		c-0.5,6.9-0.7,13.9-1.3,20.8c-0.3,3.1-1.2,6.2-1.7,9.1c-0.7,0.2-1,0.4-1.2,0.4c-4.1-1-8.1-1.1-12.3-0.6c-3.2,0.3-6.1-2.5-6.2-5.7
		c0-2.2,0-4.3,0-6.9c5.8-0.8,11.7-2.2,18,0.9c1-8.9,1-17.7,2-26.5c-1-0.3-1.7-0.5-2.4-0.7c-4.6-1.5-9.4-2.8-13.8-4.7
		c-4.8-2-7-7.4-6.3-12.3c2.4-15.8,6.6-31.3,9.2-47c0.7-4.2,1.1-8.4,1.6-12.3c-3.5-2.1-6.9-3.7-9.8-6c-7.4-5.8-13.1-13.2-17.3-21.6
		c-4-7.9-7.5-16.1-11.4-24.1c-1.7-3.6-3.5-7.2-5.5-10.6c-1-1.7-2.3-3.2-4.9-2.9c-2.3,0.3-6-2.9-6.7-5.2c-0.4-1.5-0.9-3-1.2-4.5
		c-0.8-3.7-2.2-7.1-4.3-10.3c-1.8-2.8-1.8-3.1-1.4-6.1c3.2-1.2,6-2.5,9.1-3.2c1.2-0.3,3.5,0.5,3.9,1.4c3,6.7,5.7,13.5,8.4,20.3
		c0.3,0.8,0,1.8,0,2.9c-1.2,0.4-2.4,0.8-3.9,1.3c0.6,0.7,1.3,1.2,1.7,1.9c2.4,3.9,5.2,7.7,6.9,11.9c4.7,11.9,9.7,23.6,17,34.2
		c3.5,5.1,7.4,10,12.6,13.5c2,1.4,4.2,2.4,6.4,3.6c1.4-2.4,0.4-3.5-1.4-4.5c-2.9-1.6-5.9-3.2-8.6-5.1c-6.7-5-11-11.8-10.8-20
		c0.1-7.2,2.4-14.2,7.1-20.1c5-6.3,11.8-9.9,18.8-13.2c8.1-3.9,16.8-5.9,25.6-7c2.2-0.3,4.7,0,6.8,0.7c2.9,0.9,5.8,2.2,8.6,3.5
		c0.7,0.3,1.1,1.2,1.3,2.3c-1.8-0.5-3.7-0.7-5.3-1.4c-5.5-2.5-11.1-2.2-16.7-0.8c-4.5,1.1-8.9,2.5-13.1,4.2
		c-5.5,2.1-11.1,4.2-15.8,7.9c-5.7,4.4-10.8,9.2-12.2,16.7c-0.2,1.3-0.4,2.6-0.9,3.7c-1.6,3.9-0.9,7.6,0.7,11.2
		c1.7,4,4.1,7.5,7.8,9.9c13,8.3,27.2,12,42.4,10.1c8.5-1.1,16.3-4.8,22.8-10.7c1.5-1.4,3.1-2.7,4.5-4.2c6.4-6.7,8.5-15.3,9.3-24.1
		c0.2-2.3-1.2-4.9-2.5-7c-1.9-3-4.4-5.7-6.7-8.4c-1-1.2-1.1-2.4-0.2-3.9c2.4-4.3,4.8-8.6,7.1-12.9c1.3-2.4,2.5-4.9,4-7.6
		c-1.4-1.1-2.8-2.6-4.5-3.6c-9.3-5.5-12.1-14.4-13.1-24.3c-0.9-9.1-0.4-18.3,0.1-27.4c0.5-9.1,1.7-18.2,5.3-27.1
		c-4.4-1-5.5-5.2-8.2-7.8c-1.8-1.8-0.7-4.2-0.1-6.3c2-6.9,3.9-13.9,6-20.8c2.7-9.2,4-18.6,5.4-28C321.8,9.7,322.9,5,324,0
		c1.2,0.4,2.4,0.7,3.3,1.2c3.4,1.9,7.1,2.3,10.8,2.6c11,0.8,22.1,1.2,33.1,2.6c8.3,1,16.5,3,24.5,5.1c12.1,3.2,24.3,5.9,36.8,6.6
		c3.1,0.2,6.2,1.4,9.2,0.9c2.8-0.5,5.4-0.1,8,0.5c2.6,0.6,5,1.9,7,4c1.9,2,2.4,4.2,1.7,6.7c-1.3,4.9-2.3,10-4,14.8
		c-1.6,4.5-3.9,8.6-5.7,13c-1.5,3.5-2.8,7.2-4.1,10.8c-2.2,6.2-4.2,12.4-6.6,18.6c-1.7,4.3-3.8,8.4-5.9,12.8
		c-5.3-0.8-10.5-1.6-15.8-2.4c-0.8,4.3-1.5,8.6-2.5,12.8c-2,9.3-3.4,18.7-7.5,27.4c-1.7,3.6-3.1,7.3-5,10.8
		c-3.4,6.3-8.7,11.1-13.9,16.3c2.5,9.7,3.5,19.9,4.7,30.2c2-0.6,4.3-1.4,6.6-1.9c7-1.4,13.6-0.2,19.6,3.8c0.8,0.5,2,0.9,1.3,2.4
		c-3.4-0.9-6.8-1.8-10.2-2.6c-6.6-1.5-12.4,0.1-17.6,4.2c-7.7,6-9.2,14.1-8.1,23.2c0.6,5.1,3.1,9,6.2,13c5.7,7.3,13,12,21.8,14.6
		c6.2,1.8,12.5,1.7,18.8,1c1.7-0.2,3.3-0.5,5-0.7c9.4-1.6,21.1-13.2,21.9-23.2c0.7-9.3-1.7-21.8-12.6-27.5
		c-4.2-2.2-8.6-4.1-12.9-6.1C430.3,195,428.8,194.5,428,192.5z M382.7,267c1.8-6.1,3.4-11.8,5-17.5c0.2-0.6,0.4-1.2,0.7-1.8
		c2.2-3.9,2.4-4.4-0.9-7.6c-6.5-6.3-8-14.4-7.9-22.7c0.1-6.7,2.4-13.2,7.5-17.9c-0.6-7.9-1.3-15.6-1.9-23.1c-19.2,4.4-37,0-54.6-7.4
		c-2.5,4.7-5,9.4-7.6,14.1c3.3,1.8,5.2,4.4,6.4,7.4c0.8,2.1,1.4,4.4,1.8,6.6c0.3,2,0.6,4.1,0.3,6.1c-0.8,3.9-1.9,7.7-3,11.6
		c-1.1,4-3.1,7.6-6.2,10.6c-1.4,1.3-2.5,2.9-3.3,3.8c1.6,4.1,2.9,7.7,4.3,11.3c1.4,3.6,2.9,7.1,4.3,10.7c1,2.7,2.8,3.5,5.7,3.2
		c3.9-0.4,5.7,0.9,7,3.9c2.9,1.1,5.5,2,8.1,3.2c1.6,0.8,2.3,2.1,1.6,3.7c-3.1-1-6-2-8.9-2.9c-4.9-1.4-9.9-1.1-14.9-0.5
		c-7.5,0.9-14.4,3.5-20.8,7.4c-6.5,4-11.7,9.6-16.5,15.4c-2.4,2.9-4.5,6.5-5.4,10.1c-1.8,7.2-1.8,14.7,0.5,21.8
		c1.2,3.6,3,7.4,5.6,10c5.3,5.1,11.6,9.2,19,10.6c5.8,1.1,11.7,1.7,17.6,2.2c7.4,0.6,14.6-0.8,21.9-1.9c7.8-1.1,14.7-3.9,20.7-8.8
		c4.1-3.3,9.2-5.7,11.6-10.9c0.1-0.3,0.6-0.5,0.9-0.7c5.1-2.6,8.9-7.5,9.6-13c0.3-2.6,0.3-5.4,0-8c-0.6-5-1.4-9.9-2.5-14.8
		c-1-4.5-3.1-8.5-7.6-10.6c-0.8-0.4-1.5-1.1-2-1.8c-0.3-0.6-0.5-1.6-0.2-2.1c0.2-0.4,1.2-0.5,1.9-0.6
		C381.1,266.2,381.6,266.5,382.7,267z M317.6,71.2c2.8-5.6,5.2-11.2,6.2-17.4c3.1,1.7,6.1,3.1,8.9,4.9c2.8,1.8,2.9,2.4,1.9,5.7
		c-0.6,1.8-1.4,3.6-2.1,5.4c-0.6,1.4-1.2,2.8-1.7,4c13,2.3,25.7,5.4,38.6,6.7c13,1.4,25.6,5.1,38.7,6.7c0.8-7.1,1.5-13.7,2.2-20.3
		c4.5-0.7,8.5-1.2,12.7,0.3c2,7-2.1,13.6-1.6,20.5c3.2,0.3,6.1,0.5,8.8,0.8c3.9-10.9,7.9-21.4,11.3-32c3.5-10.7,7.2-21.4,10.1-32.5
		c-1.5-0.4-2.5-0.9-3.4-0.8c-3.7,0.5-7.4,0.1-11.1-0.3c-13-1.2-25.8-2.9-38.3-6.6c-16.6-4.9-33.6-7.2-50.9-8
		c-6.5-0.3-13.1,0-19.9-2.3c0.1,3.9-0.3,11.8-0.4,12.3c-1.4,7.8-2.8,15.7-4.4,23.5c-1.9,9.6-4.1,19.1-6.1,28.6
		C316.9,70.4,317.2,70.7,317.6,71.2z M347.1,113.1c-1.9-0.1-3.2-0.6-4.4-0.3c-3.7,1.1-7.6,1.8-10.5,4.6c-2,2-3.8,4.2-5.6,6.4
		c-5.2,6.3-5.2,13.3-2.8,20.7c2.9,8.8,10.1,13.2,17.9,16.5c5.4,2.3,11.3,3.7,17.2,3.9c7.1,0.3,14.2,0.4,20.9-2.7
		c6-2.8,10.8-6.9,12.1-13.6c2.4-12,0.7-23.1-8.6-32c-3.6-3.4-7.7-6.3-12.7-7.1c-5.3-0.8-10.7-1.1-16.1-1.6c-4-0.4-8-0.6-11.9-1
		c0.7-0.9,1.3-1.3,2.1-1.4c7.6-1.3,15.1-0.8,22.7,0.1c10.8,1.2,18.6,7.3,23.7,16.1c4.5,7.8,6.6,16.8,4.5,26.1
		c-0.2,0.7-0.2,1.5-0.3,2.9c8.6-12.1,15.9-38.9,16.6-54.1c-4.2-0.7-8.3-1.4-12.5-2c-9.8-1.4-19.5-3.5-28.9-6.7
		c-1.6-0.5-3.2-0.9-4.9-1.1c-11-1.3-21.7-4.2-32.5-6.7c-3.7-0.9-7.5-1.6-11.5-2.4c-1,2.8-2.1,5.3-2.8,7.9
		c-2.5,9.6-3.5,19.5-3.8,29.4c-0.2,6.3,0.2,12.6,0.8,18.9c0.4,3.8,1.4,7.6,2.7,11.2c0.8,2.2,2.6,3.9,4.1,6.1
		c0.3-0.6,0.5-0.8,0.4-0.8c-0.6-1.4-1.3-2.8-1.9-4.2c-3.8-9.1-3.4-17.5,3.4-25.2c0.9-1,1.7-2,2.5-3c3.6-4.7,8.9-6.5,14.3-7.7
		C343.5,109.9,345.9,110.1,347.1,113.1z M393.7,402.8c-6.1-19-11.5-38.2-15.3-57.5c-5.3,1.4-10.6,3.2-16,4.1
		c-8.6,1.5-17.3,2.7-26,3.3c-5.5,0.4-11-0.6-16.5-0.9c-3.5-0.2-7.1-0.4-10.4-0.5c-4.5,21.6-8.9,42.7-13.3,63.7
		c2.9,2.6,5.8,4,9.2,4.7c4.3,0.9,8.5,2.1,12.8,3.1c1.7,0.4,3.5,0.7,5.3,0.7c6.1,0.1,12.1,0,18.2-0.1c2.1,0,4.1-0.3,6.1-0.5
		c7.4-1.1,14.4-3.7,21.5-6.2C378.1,413.7,385.9,408.8,393.7,402.8z M387.7,319.2c2.1,1.4,3.6,2.6,5.2,3.3c4.5,2.2,8.9,4.9,13.7,6.1
		c5.6,1.4,11.5,1.5,17.2,1.8c1.9,0.1,3.9-0.8,5.7-1.1c1.2-11.4,1.4-57.9,0.3-62.4c-7,1.1-13.8-0.3-20.5-1.8
		c-6.9-1.5-13.3-4.5-19.2-7.7c-1.8,3.8-3.5,7.5-5.1,10.9c1.9,2.9,4,5.4,5.3,8.3c3.7,8.4,4.5,17.3,4.7,26.4c0.1,4.4-1.9,7.9-4.1,11.4
		C389.9,315.9,388.8,317.4,387.7,319.2z M279.4,314.8c0-5.9-0.2-11.3,0.1-16.7c0.2-4,1.3-7.9,3.5-11.3c5.8-9.1,13.2-16.5,22.7-21.6
		c4.4-2.4,9.1-4.1,14.1-6.3c-0.5-2-1.2-4.2-1.7-6.4c-0.5-2.2-0.8-4.4-1.1-6.3c-4.3,1.4-8.3,2.7-12.3,3.9c-1.7,0.5-3.6,0.4-5.3,0.7
		c-10.5,2.3-20.8,1.7-31.1-1.1c-1.9-0.5-4-0.6-6.2-1c-0.2,4-0.1,7.7-0.6,11.2c-1.3,9.5-1.9,19.1-4.9,28.3c-1.5,4.5-2.6,9.1-4,13.7
		c-1,3.1,5,7.7,6,9.1c1.1,1.5,2.5,2.2,4.1,2.6C268.2,315.2,273.9,315.2,279.4,314.8z M388.4,351.9c0.2-8.7,1-17.1-0.8-25.6
		c-1.7-1-3.4-2-5.4-3.1c-1.8,1.6-3.5,3.1-5.2,4.6c2.3,8.4,4.6,16.5,6.9,25C385.3,352.5,386.8,352.2,388.4,351.9z M300,338.2
		c-0.8,5.1-1.5,9.7-2.2,14.7c3-1.2,5.1-0.5,7.2,1.5c0.5-2.5,1-4.6,1.4-6.7c1.2-6.3,1.2-6.3-4.5-8.7
		C301.3,338.8,300.9,338.6,300,338.2z M321.7,245.7c-0.1,0.1-0.2,0.2-0.3,0.2c0.8,4.1,1.6,8.2,2.5,12.6c1.3-0.1,2.4-0.3,4.1-0.5
		C325.7,253.6,323.7,249.7,321.7,245.7z"/>
	<path d="M440.9,385.6c1.6-1.1,3.3-1.8,5.4-1.1c0.7,0.2,1.6,0.2,2.3,0c3.4-0.6,6.8-1.2,10.8-1.9c8.7-15.6,17.7-31.7,27-48.1
		c-1.3-1.2-2.5-2.3-3.8-3.3c-5.8-4.5-10.8-9.6-13.1-16.8c-0.2-0.5-0.4-0.9-0.7-1.4c-3.6-6.3-4.3-13-3.1-20.1c0.8-5,2.2-9.8,4.7-14.2
		c2-3.4,4.9-6.1,8.3-7.9c3.7-1.9,7.4-4,11.3-4.9c3.9-0.9,8.2-0.4,12.2-0.4c0.5,0,1.2,0.9,1.3,1.5c0.2,1.1-0.7,1.5-1.7,1.5
		c-4.3-0.3-8.6-0.1-12.6,1.6c-4.4,1.8-9,3.6-12.6,6.5c-4.2,3.3-6.4,8.3-7,13.7c-0.4,3.5-0.9,6.9-1.1,10.4c-0.3,4.4,1.5,8.4,3.3,12.2
		c6.2,13.3,16.7,21.4,31.1,24.1c7.3,1.4,14,4.1,22.1,3.4s21.3-4.2,27-8.8c2.3-1.9,16-14.2,15.6-28.6c-0.4-14.4,0.2-17.2-6.4-23.7
		c-3-3-6.8-5.5-11.7-6.5c0.1-1.3,0.2-2.6,0.4-4.6c3.4,1.7,6.1,3.1,8.8,4.5c2.3-7.1,4.6-14.1,6.9-21.2c0.5-1.6,1.1-3.2,1.4-4.8
		c0.5-2.5,1.6-4.3,4.8-5.2c5.5,2.2,11.7,4.4,17.7,7.2c10.7,4.9,21.8,8.6,33.1,11.8c7.3,2.1,14.5,4.6,21.1,8.5c2.7,1.6,5.5,2.9,8.4,4
		c2.1,0.8,2.5,2.1,2.7,4.1c0.2,2.9-0.4,5.6-1.4,8.2c-4.5,11.5-8.9,23.1-13.3,34.7c-1.9,4.9-3.7,9.8-5.4,14.8c-0.8,2.3-1.1,4.7-2,6.9
		c-1.1,2.5-3.9,3.8-6.7,3.2c-6-1.5-11.9-3.2-17.9-4.7c-4.6-1.2-9.2-2.3-13.8-3.4c-5.9,9.2-11.1,19.1-15.6,34.4
		c-1.9-0.8-3.6-1.7-5.5-2.4c-2.6-0.9-5.3-1.9-8.1-2.5c-2.1-0.4-2.9-1.9-3.6-2.9c1.8-4.4,3.3-8.2,5-12.3c-5.1-0.6-10.2-0.7-15-2
		c-5.6-1.4-11.1-1.4-17-1.7c-0.2,2-0.5,3.9-0.4,5.8c0.2,8.1,0.2,16.3,1,24.3c1.1,11.3,3.2,22.4,7.3,33.1c2.5,6.4,4.7,12.8,7.1,19.2
		c1,2.8,0.6,2.2-1.8,4.4c-4.1,3.9-8.9,3.3-13.8,3.6c-2.7,0.2-5.3,0.7-8,1.1c-2.8,0.4-5.5,0.8-8.6,1.2c-0.5,5.3-1,10.7-1.5,16.2
		c3.2-0.7,6-1.7,8.9-1.9c3.4-0.3,6.9-0.1,10.3,0.3c1.7,0.2,2.6,1.6,2.6,3.3c0,2-0.5,4.1-0.5,6.1c0,2-1.1,2.8-2.8,3
		c-2.6,0.3-5.3,0.5-8,0.8c-0.6,0.1-1.2,0.3-1.8,0.5c-1.6,0.3-3.2,0.8-4.8,0.9c-1.5,0.1-3.1,0-4.6-0.2c-3.6-0.4-4.9-2.6-4.4-5.4
		c0.8-4.8,1-9.7,1.5-14.5c0.2-1.8,0.5-3.6,0.6-5.4c0.1-1.4,0-2.8,0-4.4c-7.9-0.9-15.5-1.8-23.3-2.7c-0.3,0.9-0.6,1.5-0.7,2.2
		c-0.2,5.8-0.4,11.6-0.5,17.4c0,1.4,0.1,2.9,0.5,4.2c0.6,2,0.1,3.3-1.8,4.1c-3.3,1.4-6.6,2.8-10,4.1c-2,0.8-4.1,1.6-6.2,2.2
		c-3,0.8-4.1,0.1-5.6-2.6c-1.6-2.9-1.4-5.9-0.6-9.2c6.1-1.9,12.2-3.6,19.3-3.1c1.3-6.4,1.6-12.8,0.8-19.8c-1.2-0.4-2.5-1.2-4-1.5
		c-9.5-2-16.6-7.3-21.7-15.5c-1.2-1.9-1.6-3.6-0.7-6.1c3.7-9.6,7.1-19.3,10.4-29.1c1.5-4.5,2.4-9.2,3.7-13.8
		c0.5-1.9,1.4-3.8,1.5-5.9c-2.3,4.2-4.6,8.5-6.8,12.7c-0.7,1.2-1.5,2.4-1.9,3.8c-0.6,1.7-0.9,3.4-1.2,5.1c-0.2,1.3,0,2.6-0.2,3.8
		c-0.6,3.2-1.2,3.8-4.6,4.2c-4.4,0.6-8.9,1.1-13.4,1.5c-1.2,0.1-2.6-0.3-3.7-0.8c-1.6-0.8-2.6-2.1-2.1-4.1
		C440.4,388.9,440.6,387.3,440.9,385.6z M649.8,277.4c-5.4-2.1-10.4-4.1-15.4-6c-11.9-4.5-23.7-9.3-35.8-13.4
		c-6-2.1-11.8-4.3-17.4-7.4c-3-1.6-6.3-2.8-9.9-4.4c-2.8,8.2-5.4,15.8-7.9,23.5c-0.5,1.4,0.3,2.3,1.3,3.3c1.6,1.6,3.2,3.3,4.4,5.3
		c3,5,4.6,10.6,5.5,16.3c1.2,7.5,0.4,14.9-2.4,22c-1.3,3.3-3.2,6.3-4.8,9.5c3.7,0.8,7.5,1.6,11.2,2.5c7.1,1.8,14.2,3.6,21.3,5.4
		c5.4,1.4,10.7,2.8,16,4.5c3.9,1.2,7.8,2.2,11.9,2.4C632.5,318.9,642.7,298.9,649.8,277.4z M486.6,346.2c-1.2,2.9-2.4,5.8-3.5,8.8
		c-2.6,6.9-5.3,13.7-7.7,20.6c-2.9,8.3-5.4,16.7-8.1,25c-1.4,4.3-3,8.5-4.3,12.8c-0.5,1.6-1,3.3,0.4,4.7c1.7,1.7,3.3,3.6,5.2,5.1
		c4.4,3.7,9.6,5.4,15.2,6.3c5.7,0.9,11.5,1.5,17.1,2.7c5.2,1.1,10.4,1.5,15.7,1c7.9-0.8,15.4-3,22.9-5.3c1.3-0.4,2.4-1.3,3.7-2
		c-0.2-0.8-0.3-1.3-0.5-1.8c-2.8-8.7-5.8-17.4-8.4-26.1c-3.1-10.3-3.5-21-4.2-31.7c-0.3-4.1,0-8.1,0-12.3c-3.5-0.2-6.8,0.4-9.6-0.6
		c-3.6-1.3-7.3-1.3-10.8-1.6C501.5,351.4,494.3,348.5,486.6,346.2z M574.3,331.5c-4.6-0.9-9.1-1.9-13.4-2.7c-3.7,2.9-7.2,6-11.2,8.4
		c-4,2.4-8.4,4.2-12.2,6c9.8,1.2,20.1,2.5,30.5,3.8C570.1,341.7,572.2,336.7,574.3,331.5z M581.4,350.5c2.8-5.4,5.4-10.2,8-15.3
		c-3.6-0.8-6.7-1.5-10.2-2.3c-3.2,4.8-5.4,10-7,16C575.5,349.5,578.4,350,581.4,350.5z M566.5,362.1c3.3,1.4,6.2,2.6,9.2,3.9
		c0.5-1.9,0.9-3.4,1.4-5.4c-3.2-0.8-6.1-1.6-9.2-2.3C567.4,359.8,567,360.8,566.5,362.1z"/>
	<path d="M781.5,342c2.5,0.1,3.3-1.2,4.1-2.2c3.8-4.9,7.9-9.6,11.2-14.8c11.7-18.6,18.5-39.1,21.9-60.7c1.8-11.5,1.9-23.1,1.6-34.8
		c-0.4-0.1-0.8-0.2-1.1-0.1c-4.8,1.5-7.4-0.7-6.5-5.8c1.4-7.8,0.3-17.2-0.7-23.4c-0.3-1.9-3.3-4.7-0.9-6.1c2.4-1.5,9.4-3.3,12.6-1.5
		c3.2,1.8,5,4.4,5.3,8c0.2,1.8,1.9,16.7,2,21c0,3.6-1.4,5-5,5.4c-0.4,0-0.8,0.1-1.1,0.2c-0.2,0.1-0.4,0.3-1,0.6c0,3.2,0,6.6,0,10.1
		c0,10.8,0.1,21.6-2.5,32.2c-0.5,2.1-0.8,4.3-1.1,6.5c-1.2,7-3.6,13.7-6,20.3c-1.4,3.9-2.4,7.9-4.3,11.6c-3.7,7.5-7.5,14.9-12,22
		c-3,4.7-7.1,8.8-10.9,13c-1,1.1-2.8,1.6-4.7,2.6c0.2,1.5,0.4,3.4,0.8,5.3c2.4,10.8,4.7,21.7,7.3,32.4c3.3,13.7,7.6,27,12.4,40.2
		c0.8,2.3,2,4.5,2.8,6.8c1.6,4.7,1.1,7-3.4,9.2c-6,2.9-12.3,5.3-18.5,7.7c-4,1.5-8.1,2.7-12.1,4.1c-1.4,0.5-2.7,1.1-2.8,2.8
		c0,3.6,0,7.2,0,10.8c5.9-0.9,11.7-1.9,17.6-2.8c3.1-0.5,5.6,2.4,4.8,5.4c-0.3,1.1-1,2.2-0.9,3.3c0.4,5-3.8,5.4-6.8,6.5
		c-2.3,0.8-5.1,0.1-7.6,0.3c-3,0.2-6,0.7-9.4,1c-0.2-0.2-0.9-0.8-1.1-1.4c-1-4.3-1.3-1-2.2-8.7c-0.9-7.7,1.2-12.3,1.9-15.6
		c-6.7,0.7-12.9,1.7-19.1,2c-6.2,0.3-12.4,0.1-19,0.1c0.1,5-0.9,9.8,0,14.8c0.4,2.4,0.1,4.9-0.2,7.4c-0.1,0.7-1.3,1.6-2.1,1.9
		c-3.3,0.9-6.7,2.1-10.1,2.3c-4.1,0.2-8.2-0.2-12.2-1c-3-0.6-3.8-6.4-1.3-8.5c1.5-1.3,3.1-2,5.3-1.7c5.1,0.6,10.2,0.8,15.6,1.2
		c0-5.3,0-10.9,0-16.9c-0.5-0.2-1.3-0.5-2.1-0.8c-7.1-2.3-14.2-4.6-21.3-7c-1.4-0.5-2.8-1.3-4.1-2.2c-3.1-2-6.2-4.2-9.3-6.3
		c-0.7-0.5-1.5-1-2.2-1.6c-3.5-3.2-3.8-4.8-1.7-9.1c6-12.3,10.4-25.2,14.8-38.1c0.7-1.9,1.3-3.8,1.6-5.9
		c-3.7,5.4-7.5,10.8-11.1,16.2c-2,3-4.2,4.2-7.8,2.9c-3.7-1.3-7.5-1.1-11.4,0.2c-3.1,1-4,0.5-5.5-2.5c-1.2-2.3-2.2-4.6-3.4-6.9
		c1.3-1.6,2.9-2.2,4.8-2.1c6.3,0.2,12.6,0.5,18.8,0.8c1.1,0.1,2.2,0.6,3.6,0.9c10.5-13,19.6-26.7,22.3-44c-0.6-0.5-1.3-1.2-2.2-1.7
		c-12.4-7.1-18.7-18.3-21.9-31.8c-2.1-9-2-18.1-0.8-27.2c0.9-7.2,4.6-12.7,9.6-17.6c1.9-1.9,4-3.7,6.1-5.3c1.1-0.9,2.7-1.9,3.8,0.4
		c-2.5,2.4-4.9,4.9-7.4,7.2c-4.7,4.3-7.9,9.4-9,15.8c-2.8,16.5-0.3,31.9,9.4,45.7c1.9,2.8,4.7,5.2,7.5,7.1c7.1,5,14.4,9.6,22.7,12.4
		c1.1,0.4,2.2,0.7,3.4,0.8c17,1.3,32.4-3.1,46.3-13.1c8-5.8,12-13.9,13.5-23.5c1.4-9.6,2.2-19.2,1.3-28.9
		c-0.6-6.4-1.9-12.8-5.6-18.3c-0.8-1.2-1.6-2.4-2.6-3.3c-3.2-3-6.5-5.9-9.8-8.8c-6.6-5.8-14.2-8.1-22.9-7.1c-8.2,1-16.3,2-24,5.3
		c-1.1,0.5-2.8,1.9-3.7,0c-0.9-2,1.1-2.8,2.4-3.3c3.4-1.3,6.8-2.4,10.3-3.2c6.2-1.4,12.4-2.2,18.8-2.3c3.8,0,7.5,0.5,10.9,2.2
		c8.9,4.5,16.6,10.4,22.7,18.3c4.4,5.6,6,12.3,6.9,19.1c1.6,12.7,0.3,25.2-2.5,37.6C789.4,332,786.2,337,781.5,342z M685.3,432.6
		c0.2,0.2,0.6,1,1.2,1.3c4.7,2.7,9.2,5.7,14.2,7.7c8.9,3.6,18.3,6.1,27.9,7.4c4.2,0.6,8.4,1,12.7,1.3c6.7,0.5,13.3-1,20-1.9
		c2.9-0.4,6-0.6,8.7-1.6c7.9-2.7,15.7-5.8,23.5-8.8c1.9-0.7,3.8-1.8,5.4-2.9c2.6-1.9,2.7-2.5,1.5-5.5c-0.8-1.9-1.8-3.7-2.5-5.6
		c-2.5-6.8-4.8-13.6-7.2-20.4c-5-13.7-8.9-27.7-10.7-42.2c-0.3-2.2-0.6-4.4-0.8-6.4c-21.5,13.5-44.1,12.6-67.1,6.2
		c-4.4,11.6-9,23.3-13.2,35.1C694.7,408.3,689.4,419.9,685.3,432.6z"/>
	<path d="M936.5,316.6c3.8-0.8,7.3-1.6,11-2.4c3.3,1.8,2.9,5.2,2.4,8c-0.5,2.4-2.8,3.7-5.3,4.4c-2,0.6-3.9,1.3-5.7,2.1
		c-1.7,0.7-3,0.6-3.9-0.9c-0.6-1-1.2-2.1-1.2-3.2c-0.1-7.7-3.6-14.7-4.3-22.2c-0.1-1.3-0.3-2.5-0.7-3.8c-0.9,5.6-0.2,11.1,0.4,16.7
		c0.6,5.1,1.1,10.2,1.4,15.4c0.6,7.7,1.1,15.4,1.5,23.1c0.2,3.7,0,7.4,0,10.8c-9.2,4.6-18.7,7.6-28.9,9.6
		c-1.3,8.3-1.8,16.9-2.3,25.9c5.1-0.7,10.2-1.5,15.2-2.1c2.5-0.3,3.8,1.5,3,3.8c-0.6,1.7-1,3.4-1.5,5.2c-0.8,2.7-1.7,3.4-4.1,2.4
		c-3.3-1.3-6.5-1.5-9.8-0.7c-1.1,0.3-2.3,0.3-3.5,0.3c-2.8,0-3.8-1.4-3.5-4.2c0.6-5.2,1.1-10.5,1.5-15.8c0.3-4.5,0.5-9,0.7-13.8
		c-10.6,1.6-21,2.5-31.5,0.8c-0.5,5.4-1.1,10.5-1.6,15.6c-0.4,4.2-1,8.4-1.4,12.7c-0.1,1.2,0,2.5,0.2,3.8c0.3,2.2-0.6,3.5-2.8,3.7
		c-0.4,0-0.8-0.1-1.1-0.2c-4.4-1.3-8.4-0.1-12.3,1.8c-1.3,0.6-2.6,1.1-4.3,1.8c-0.9-1.5-2.2-2.8-2.4-4.3c-0.3-2.9-1.4-6-0.1-9
		c6.5,0,12.8,0,19.1,0c1.1-8.8,2.7-17.5,2.6-26.8c-4.3-0.8-8.4-1.8-12.6-2.3c-7-0.8-12.7-3.8-17-9.4c-1.3-1.6-2.6-3.2-4.2-4.5
		c-2.1-1.9-2.6-3.5-1.6-5.9c2.2-5.4,4.2-10.8,6.4-16.1c5.6-13.7,11.3-27.4,17-41.1c0.2-0.5,0.4-0.9,0.4-1.5
		c-2.1,4.2-5.5,7.8-6.4,12.7c-0.3,1.5-1.5,3-2.6,4.1c-1.3,1.2-1,3.9-3.2,3.8c-1.5,0-3-1.1-4.5-1.6c-1.7-0.5-3.5-0.8-5.2-1.2
		c-2-0.4-4-0.7-6-1.2c-0.7-0.2-1.4-0.8-1.8-1.4c-1.3-2.3-0.9-4.8,0.1-7c0.9-2.1,3-3.1,5.1-2.5c4.9,1.4,10.4,0.1,14.4,3.8
		c6.1-9.6,12-19,17.8-28.4c1.4-2.3,2.1-4.9,3.2-7.4c0.4-0.9,1-1.8,1.6-2.9c-0.7-0.8-1.5-1.9-2.3-2.7c-4.4-4.5-6.9-10.3-10.1-15.6
		c-2.7-4.6-1.3-9.6-0.6-14.4c0.6-3.9,1.8-7.8,2.9-11.6c1.2-3.9,3-7.4,5.8-10.4c5-5.3,10.6-9.8,17.7-12.1c1.7-0.5,3.5-0.9,5.2-1
		c3.5-0.2,4.4,0.9,4.1,5c-5.6-1-10.5,1.1-15.3,3.7c-7.1,3.8-11.6,9.8-14.1,17.3c-1.1,3.3-2.1,6.7-2.6,10.1
		c-1.2,9.4,2.2,17.4,8.1,24.5c4.2,5,10.1,7.5,16,9.7c7.1,2.6,14.5,3.7,22,3.7c6.7,0,13.4-0.3,20.1-0.6c1.9-0.1,3.9-0.7,5.5-1.6
		c5.4-2.9,9.9-6.9,13.1-12.2c4.8-7.8,6.2-16.5,7-25.4c0.3-3.3-1.4-6-2.3-8.9c-2.2-7.2-7.2-12.4-12.6-17.3c-0.6-0.5-1.3-0.9-2.1-1
		c-1.3-0.2-2-1.1-1.9-2.1c0.1-0.8,1-1.6,1.6-2.2c0.4-0.5,1-0.8,1.7-1.3c4.3,4,8.4,8.2,11.4,13.4c3.2,5.6,6.1,11.3,7,17.9
		c0.7,5.2,0.3,10.3-0.8,15.3c-1.2,5.6-3.4,10.8-6.7,15.5c-3.3,4.7-7.5,8.4-12.4,11.9C930.8,287.2,932.4,301.9,936.5,316.6z
		 M862.6,278.2c-0.5,0.8-0.8,1.1-0.9,1.5c-2.3,5.6-4.4,11.2-6.8,16.7c-4.9,11.5-10.1,23-14.9,34.5c-2.6,6.2-4.7,12.5-7.2,18.7
		c-1.5,3.7-1.5,4.1,1.4,7c4.1,4,9.2,6,14.7,7.1c4.3,0.8,8.6,1.5,12.9,1.8c7.3,0.6,14.5,2.4,21.9,1.9c3.8-0.3,7.7-0.4,11.5-0.7
		c2.8-0.2,5.6-0.5,8.4-1.1c2.1-0.4,4.1-1.5,6.2-2c5.9-1.6,11.9-3,18.3-4.6c-4.1-23.1-3.4-46.6-4.3-70c-2,0.5-3.4,1-4.9,1.3
		c-6.9,1.7-13.9,0.6-20.7-0.6c-9-1.5-17.8-3.8-26.8-5.6C868,283.4,864.9,282,862.6,278.2z"/>
	<path d="M710.2,205c-3.2-3.3-6.6-6.4-9.5-10c-3.6-4.6-6.1-9.7-6.5-15.8c-0.3-5.5,1.2-10.5,4.2-15c4.1-6,9.8-9.8,17-11.2
		c2.8-0.6,3-0.4,4.1,2.6c-2.5,0.9-5,1.7-7.5,2.7c-9.2,4-14.2,11-14.9,21.1c-0.3,3.7,1.2,6.9,2.8,9.9c2.7,4.9,6.5,9,11,12.3
		c3.9,2.9,8.6,4,13.3,4.7c4.6,0.6,9.2,0.6,13.8,0c5.8-0.7,11.6-1.2,16.8-4c3.9-2.1,7.7-4.3,11.1-7c3.5-2.8,7-5.9,9.5-9.6
		c4.3-6.2,4.8-13.2,1.8-20.2c-1.8-4.1-4.5-7.4-8.4-9.8c-4.2-2.6-8.6-4.7-13.2-6.3c-3.3-1.1-6.8-1.7-10.5-0.5c-0.4-1.1-0.7-2-1-3.1
		c3-2.3,6.3-1.9,9.3-1.1c3.2,0.9,6.4,2,9.3,3.7c4.8,2.7,9.7,5.2,13.2,9.8c6,8,7.1,16.7,4.6,26c-0.3,1.3-1,2.8-1.9,3.8
		c-4.1,4.6-7.7,9.7-13.2,12.8c-0.5,0.3-0.9,0.5-1.3,0.7c5.4,8.7,10.5,17,15.8,25.6c1.3-0.2,3.1-0.6,4.9-0.7c4-0.2,8-0.4,11.9-0.4
		c3.1,0,4,1.3,3.3,4.1c-0.7,2.6-1.5,5.2-2.2,7.4c-1.9,0.5-3.3,1-4.8,1.2c-3.9,0.7-7.8,1.5-11.8,1.8c-3.4,0.3-6.2-3.8-5.1-7.4
		c0.9-3,0.6-5.6-0.9-8.1c-3.1-5.3-6.3-10.5-9.5-15.8c-0.3,0.1-0.5,0.2-0.8,0.3c0.4,5.2,1.1,10.3,1.2,15.5c0.1,5.1,1.9,10.2,0.9,16
		c-2.5-1.9-3.3-4-3.6-6.2c-0.9-6.4-1.6-12.8-2.4-19.2c-0.2-1.2-0.4-2.5-0.7-3.8c-1.9,0.7-3.5,1-5,1.9c-4.3,2.6-9.1,3.4-14.1,3.6
		c-5.5,0.2-11.1,0.4-16.6,0.6c-1.4,0-2.8-0.2-4.2-0.4c-3.2-0.5-4.8,0.1-6.4,3c-2.3,4.3-4.5,8.7-6.6,13.1c-1.9,4-3.6,8-5.4,12
		c-0.3,0.7-0.8,1.3-1.2,1.9c-0.4,0-0.6,0.1-0.8,0c-4.2-2.3-3.8-2.3-2.2-6.9c1-3,1.9-5.9,3.5-8.7c4.3-7.3,8.5-14.6,12.9-22.1
		c-12.2-2-19.6-9.9-23.7-20.3c-6.2-15.6-10-32-9.6-49c0.1-4.2,0-8.5,0-12.8c-1.6-1-2.5-3-5-2.7c-1.5,0.2-2.7-2.4-2.3-4.6
		c0.4-2,1.2-4,1.6-6c0.7-3.6,1.3-7.3,1.9-11c0.2-1.1,0.1-2.3,0.4-3.5c0.6-2.6,1.4-3.1,4.1-3c0.8,0,4.1-1.1,5,0.1
		c0.7,1,1.4,2.2,1.6,3.4c0.2,2.4,0.1,4.9,0.1,7.4c0,4.7-0.2,9.5,0.2,14.2c0.1,1.6-0.3,3-1.3,3.2c-2.4,0.5-2.2,2.2-2.4,3.8
		c-1.7,13.2-0.7,26.2,2.5,39.1c1.7,7,3.5,14,6,20.8c2.8,7.4,7.7,13.3,15.7,15.9C709.7,204.9,710,204.9,710.2,205z"/>
	<path d="M134.8,196.6c0.2,0.9,0.3,1.7,0.5,2.5c3,11.6,6.7,22.9,11.7,33.8c1,2.1,1,2.2,0.6,4.2c-0.1,0-0.3,0.1-0.4,0.1
		c-3.1-3.5-6.7-6.6-8.3-11.3c-1.9-5.9-4-11.7-6.1-17.8c-8.8,2.8-17.4,4.5-26.4,4.6c-8.9,0.1-17.5-0.8-26.1-4.5
		c-3.5,6-5.9,12.4-8.9,18.7c-2.9,6.3-5.8,12.5-8.7,18.7c-2.5,0-2.6-1.5-2.1-2.9c1-3.1,2-6.2,3.3-9.1c3.2-7.3,6.6-14.5,10.1-22.1
		c-1,0.9-1.8,1.5-2.6,2.2c-1.5,1.5-3.2,2.7-5,3.9c-2.7,1.7-5,4-7.3,6.3c-0.6,0.6-0.7,1.8-0.8,2.7c-0.1,1.7-0.6,3.1-2.5,3.3
		c-5.4,0.3-10.8,0.6-16.2,0.8c-3,0.1-5.4-1.3-5.9-4.2c-0.5-2.9-0.1-4,0.7-5.3c1.5-2.6,5.1-2.4,8-2.2c3,0.2,6.1,0.3,9.2,0.3
		c2.5,0,3.6,1.6,4.3,3.7c4.5-4.2,9-8.1,13.1-12.5c3.4-3.7,6.1-7.9,9.4-12.3c-2.2-1.9-4-3.5-5.9-5c-7.7-6.7-14.2-14.3-16.9-24.5
		c-0.9-3.2-1.7-6.5-2.1-9.8c-1.4-11.1,6.7-29.9,19.8-35.5c4.5-1.9,9-3.9,13.5-5.8c0.6-0.3,1.4-0.2,2.4-0.4c-3,3.6-6.7,5.4-10.5,7
		c-10.7,4.6-17.1,12.8-20.5,23.7c-4.3,14,0.4,25.7,9.3,36.3c2.5,2.9,5.5,5.4,8.4,8c1.3,1.1,9.9,5.5,11.9,6.1
		c12.2,3.5,24.2,2.7,35.8-2.8c6.1-2.9,12.1-5.8,16.9-10.6c2.9-2.8,5.1-6,6.3-10c2-6.5,4.9-12.8,6.2-19.5c1.5-7.4,1.8-15.1,0.4-22.6
		c-0.8-4.8-3.8-8.5-7.2-11.7c-6.2-5.9-13.6-9.2-22.2-9.8c-3.9-0.3-7.9-0.8-11.8-1.2c-1.7-0.2-2.1-1.1-1.9-4c1.4,0.1,2.7,0.2,4,0.5
		c6.4,1.2,13.1,1.8,19.2,3.9c9.9,3.4,18,9.7,21.9,19.9c2,5.2,2,10.9,1.8,16.4c-0.2,7.3-1.3,14.6-4,21.6c-1.4,3.7-2.7,7.5-4.3,11.2
		c-2,4.6-5.3,8.2-9.2,11.2c-2,1.5-2.6,3.7-1.2,5.7c4.3,6,7.6,12.6,12.8,17.9c1.8,1.8,3.4,2,5.5,1.4c1.4-0.4,2.7-1,4.1-1.2
		c1.2-0.2,2.6-0.2,3.8,0.2c1.1,0.4,2.9,0.5,3.3,3.4c0.4,2.9-2,7.2-4.3,7.9c-1.8,0.6-3.7,1.1-5.6,1.2c-1.1,0.1-2.7-0.4-3.4-1.2
		c-1.3-1.5-2.1-3.5-3-5.3c-0.6-1.2-0.8-2.9-1.8-3.8c-3.8-3.4-6.1-7.9-8.9-12.1c-1.9-2.8-3.9-5.6-5.9-8.4
		C135.1,196.4,134.9,196.5,134.8,196.6z"/>
	<path d="M198.1,128c-8.1,13.4-14.5,27.4-23.5,40c3.9-12.1,10.1-23.1,16.3-35.2c-5.1,3.8-9.2,7.2-12.7,11.2c-3,3.4-4.7,3.7-8.6,1.8
		c-2.2-1-4.5-1.8-6.9-2.4c-3.7-1-4.9-3.3-3.3-6.8c0.7-1.6,1.7-3.1,2.5-4.5c4.7,1.8,8.9,3.5,13.5,5.3c6.2-5.1,12.6-10.3,19-15.5
		c-1.8-1.6-3.3-3.2-5-4.5c-3.5-2.7-5-6.4-5.9-10.6c-1.5-7.2-0.9-14.1,3.5-20.3c3.4-4.8,8.2-7.3,13.7-8.8c1-0.3,2.2,0.6,3.4,0.9
		c0.1,0.3,0.1,0.6,0.2,1c-1.7,0.9-3.4,1.9-5.2,2.8c-3.9,2-7.7,4.3-10,8.2c-3.7,6.1-4.6,12.6-2,19.3c2,5,6.3,7.6,11.1,9.5
		c0.8,0.3,1.8,0.4,2.4,1c4.9,3.9,10.5,5.6,16.7,6.3c9.4,1.1,18.1-1.5,26.8-4.1c4-1.2,7.9-3.1,11.8-4.8c5-2.2,7.9-6.1,8.9-11.4
		c1-5.3,1.6-10.7,1.2-16.2c-0.6-8.1-4.4-13.3-12.2-15.5c-4.6-1.3-9.5-1.7-14.3-2.6c-1.5-0.3-3.1-0.3-4.5-0.8c-0.9-0.3-1.6-1.3-2.4-2
		c0.1-0.3,0.2-0.6,0.4-0.9c2,0,4-0.2,5.9,0c4.7,0.5,9.5,0.9,14.1,2c8.7,2.1,13.5,8.3,15.3,16.7c1.9,8.8,0.5,17.5-2.3,25.9
		c-1.1,3.2-3.5,5.8-6.6,7.3c-2.5,1.3-5.1,2.2-7.7,3.4c-1.4,0.6-2.7,1.4-4.6,2.4c0.6,10.4,1.1,20.9,1.7,32c1.5-0.1,2.6,0,3.6-0.3
		c2.1-0.6,4.1-1.4,6.2-2c2.4-0.7,4.7,0.3,5.6,2.1c1.1,2.5,0.3,6.6-1.9,7.5c-2.7,1.1-5.4,2.4-8.5,2.2c-3.4-0.2-5.4-1.3-6.1-4.7
		c-1.2-5.8-2.1-11.6-3.2-17.4c-0.6,7.8,0.3,15.6-1.4,23.9c-1.7-2.4-2.1-4.6-2.1-6.9c0-7.9,0-15.7,0-23.6c0-0.9,0-1.8-0.1-2.7
		c-0.1-1.4-1.2-2.2-2.4-1.8c-6.6,2.6-13.2,1-19.7-0.1c-3.9-0.7-7.8-1.4-11.8-1.9C204,132,201.1,130.4,198.1,128z"/>
	<path d="M457.4,114.9c-5.7-0.5-10.3,2-14.4,5.5c-2.9,2.5-5.1,5.5-5.8,9.3c-0.7,4.4-1.5,8.9-1.8,13.4c-0.5,6.3,3.5,10.3,9.9,10.6
		c0.4,0,8.1,1.2,11.6,1.8c3.5,0.6,7.2,0.4,10.7,0c2.7-0.3,5.4-1.2,7.8-2.3c3.2-1.5,4.8-4.6,6-7.8c0.9-2.3,1.5-4.7,1.8-7.1
		c0.6-4.7,0.9-9.5,1.3-14.2c0.3-3.2-1.4-5.3-4.1-6.8c-1.5-0.8-2.9-1.7-5.1-3.1c7.6-0.1,11.2,3,11.7,9.2c0.6,7.1-1,18.2-4.1,27.1
		c5.9-4.7,9.4-10.6,12.7-16.5c-4.1-3.2-4.3-5.5-1-9.4c1.4-1.6,2.6-3.5,4.2-4.9c0.9-0.8,2.3-1.5,3.4-1.4c0.8,0.1,1.9,1.5,2,2.5
		c0.6,4,1.8,8-0.1,12c-1.1,2.5-1.9,3.1-5.2,2.9c-0.4,0.8-0.9,1.7-1.3,2.6c-4.1,9.1-11,15.5-19.4,20.4c-2.5,1.5-3.6,3.4-4.2,6.1
		c-0.9,4-1.9,8-2.8,12c-0.5,2.2-0.9,4.5-1,6.8c-0.1,1.9-0.2,3.6-2.7,4.4c-2.3-0.7-1.7-3-1.5-4.9c0.6-5,1.4-9.9,2.1-14.9
		c0.1-0.6,0-1.3,0-2.4c-1.9,0.2-3.8,0.2-5.6,0.6c-6.5,1.2-12.8,0.6-19.2-1.5c-2.7,4.2-5.3,8.5-8.1,12.7c-0.4,0.6-1.4,1.3-2.1,1.3
		c-2.7,0.1-5.4,0.3-8.1,0c-3.9-0.4-5.3-3.7-7-6.6c-0.7-1.2,0.1-2.4,1.5-2.5c1.9-0.1,3.9-0.1,5.7,0.3c4,0.8,7,0.1,9.1-3.7
		c1.9-3.4,4.2-6.7,6.5-10.2c-1.3-0.9-2.1-1.4-2.9-2c-4.2-3.1-6.1-7.4-5.9-12.4c0.2-4.3,1.1-8.7,2.1-12.9c2.1-9.5,8.7-14.6,17.5-17.3
		C455.1,110.9,456.2,111.7,457.4,114.9z"/>
	<path d="M689.8,58.3c2.7-3.9,5.2-12.3,5.2-17.7c-3.1,0-3.9-2.6-5-4.9c-0.9-2-0.4-4,0.5-6c1-2.2-0.1-4.6,2.6-6.6s9.3,2.8,8.9,5.5
		c-0.2,1.8-0.7,3.6-0.6,5.3c0.1,2.9-0.9,4.7-3.9,5.4c0,14.9-6,26.9-17.3,36.4c0.4,6.3,0.9,12.5,1.4,19.5c-2.7-2.2-2.8-4.7-3.2-7.1
		c-0.3-2.4-0.7-4.8-1.1-7.3c-7.7,2-15,4.8-23.1,4.8c-2,7-3.6,14.2-7.3,20.5c-0.1,0.2-0.7,0.1-1.6,0.3c1.6-6.1,3.1-11.9,4.7-17.9
		c-5.1,3.7-5.8,5.7-4.6,12.1c-3.2,0.6-6.4,1.3-9.7,1.8c-0.8,0.1-2-0.3-2.4-0.9c-1.1-1.7-2-3.5-2.7-5.4c-0.5-1.5,0.7-2.8,2.6-3.1
		c1.4-0.2,2.8-0.3,4.2-0.3c1.3,0,2.6,0.2,4.3,0.3c2.7-4.1,5.4-8.4,8.4-13c-2.7-1.2-5-2.2-7.2-3.2c-5.2-2.3-10.6-10-8.5-17.3
		c1-3.5,4.2-6.4,7.9-6.6c-0.2,0.9-0.2,1.8-0.6,2.4c-0.5,0.7-1.3,1.2-2,1.8c-4.4,4.4-3.9,10.7,1.1,14.3c5.7,4.1,12.1,5.5,19,4.6
		c3.4-0.4,6.9-0.9,10.2-1.9c7.9-2.3,13.6-7.1,16.3-15.1c1.4-4,0.2-7.7-3.2-10.3c-4.5-3.4-9.8-5-15.2-6c-1.6-0.3-3.2-0.7-4.7-1
		c-0.1-1.6,0.4-2.2,1.8-2.1c4.5,0.3,9,0.8,13.2,2.3C685.7,44.9,689.8,50,689.8,58.3z"/>
	<path d="M725.8,314.3c-0.1-2.3,0.8-3.6,2.4-4.4c1.6-0.8,3,0,4.3,1c0.3,0.2,0.5,0.6,0.8,0.9c2.1,2.3,3,4.7,1.8,5.7
		c-1.5,1.2-3.5,2.1-5.4,2.3c-2,0.2-3.6-2.3-3.8-5.1C725.8,314.4,725.8,314.1,725.8,314.3z"/>
	<path d="M274,215.1c0-3.2,2.3-5.9,4.8-5.9c2.3,0,4.5,2.2,4.6,4.3c0.1,2.1-3.2,5.7-5.4,5.9C276,219.5,274,217.5,274,215.1z"/>
	<path d="M236.5,107.3c-2.2,0.1-4.4-2.5-4.6-5.3c-0.1-2.2,1.6-4.1,3.7-4.1c2.5,0,5.4,2.6,5.4,5C241,105.3,239,107.2,236.5,107.3z"/>
	<path d="M889.8,239.4c0,0.1,0,0.3,0,0.4c-0.1,2.5-2.4,5.4-4.2,5.3c-1.7,0-3.1-2.2-3.3-5c0-0.4-0.1-0.8-0.1-1.1
		c0.3-3.1,1.8-4.8,4-4.8C888,234.2,889.8,236.7,889.8,239.4z"/>
	<path d="M171.5,292.2c-3.3-0.2-3.5-0.5-3.2-3.4c0.3-3.5,2.2-5.9,4.5-5.7c1.9,0.2,3.8,2.6,3.6,4.7
		C176.1,291.1,174.6,292.5,171.5,292.2z"/>
	<path d="M761.7,316.5c-0.3,2.2-2.5,4.2-4.4,4c-2-0.2-3.7-2.6-3.4-4.9c0.3-2.6,2.2-4.8,3.8-4.6C759.8,311.2,762,314.3,761.7,316.5z"
		/>
	<path d="M99.1,165.8c-1.8-1.3-3-2.7-3-4.9c0-1.9,2.6-4.7,4.4-4.7c1.9,0,3.6,2,3.5,4.3c0,2.2-1.1,3.7-2.9,4.7
		C100.6,165.5,99.8,165.6,99.1,165.8z"/>
	<path d="M301.2,212c0,1.8-2.8,4.4-4.8,4.4c-2,0-3.8-1.9-3.8-4c0-2.3,2.2-4.6,4.3-4.6C298.9,207.7,301.2,210,301.2,212z"/>
	<path d="M747.3,182.4c-2.9,0-4.5-2.7-4-5.7c0.2-1.4,3.2-3.2,4.6-3c1.4,0.2,3.3,2.2,3.5,3.7C751.6,179.2,750.2,182.4,747.3,182.4z"
		/>
	<path d="M121.4,154.2c2.2,0,4.2,1.6,4.3,3.5c0.1,1.9-2.6,5.3-4.3,5.4c-1.6,0-3.6-2.9-3.6-5.3C117.9,155.5,119,154.3,121.4,154.2z"
		/>
	<path d="M813.1,116c-0.2,0.6-0.5,1.9-1.3,2.7c-1,1-2.3,2.2-4,1.1c-1.3-0.8-2.2-3.1-1.6-4.7c0.5-1.2,1.1-2.3,2-3.2
		c0.7-0.7,2-1.5,2.8-1.2c0.8,0.3,1.4,1.6,1.8,2.6C813.1,113.9,813,114.6,813.1,116z"/>
	<path d="M506.3,309.4c-2.7-0.2-4.5-2.1-4.3-4.5c0.2-2,2.3-3.5,4.5-3.3c1.9,0.2,4,3,3.9,5.1C510.3,308.2,508.1,309.6,506.3,309.4z"
		/>
	<path d="M730.3,183.3c-3.3,0-4-1.9-4.7-4.4c-0.4-1.6-0.2-2.8,1.1-3.7c1.4-1,2.9-1,4.3,0C733.9,177.2,733.7,183.3,730.3,183.3z"/>
	<path d="M189.5,285.9c0.1-2.3,1.9-3.9,4.3-3.8c1.9,0.1,3.5,1.6,3.5,3.4c0,1.9-2.9,4.6-4.9,4.6C190.7,290.2,189.4,288.4,189.5,285.9
		z"/>
	<path d="M416,225.1c0.1,2.1-1.7,4.2-3.6,4.4c-1.6,0.1-3.5-2.2-3.5-4.4c0-2,1.5-3.9,3.3-4C414.1,220.9,416,222.9,416,225.1z"/>
	<path d="M429.3,223.5c1.8-0.1,3.7,1.8,3.7,3.7c0,1.8-2.1,4.2-3.8,4.2c-1.9,0.1-3.9-1.7-4-3.4C425.2,226.3,427.6,223.5,429.3,223.5z
		"/>
	<path d="M527.1,311.2c-2.2-0.2-3.5-1.9-3.1-3.9c0.4-2.5,1.9-3.6,4.3-3.2c1.8,0.2,3.4,2.5,3.1,4.2
		C531.1,310,529.1,311.4,527.1,311.2z"/>
	<path d="M610.6,156.1c0,2.2-1.7,3.9-3.8,4c-2.1,0-3.6-1.6-3.6-3.6c0.1-1.7,2.3-4.1,3.9-4.2C609,152.1,610.7,154.1,610.6,156.1z"/>
	<path d="M909.7,237.6c2.5,0.9,3.3,5.6,0.6,7.6c-1.2,0.9-2.5,1.3-3.9,0.4c-1.3-0.9-1.7-2.4-1.1-3.7
		C906.3,239.9,907.2,236.6,909.7,237.6z"/>
	<path d="M224.3,102.6c-1.2,2-1.3,2-2.1,2c-3.2,0.3-4.8-1.1-4.6-4.2c0.1-2.2,2.9-3.5,5-2.3C224.4,99.3,225.5,100.5,224.3,102.6z"/>
	<path d="M823.6,111.6c0.9-1.7,2.7-2.5,4.2-1.9c1.7,0.6,2.3,2,2.1,3.7c-0.2,1.8,0.7,3.4-2.9,3.5
		C823.4,117.1,822.5,113.5,823.6,111.6z"/>
	<path d="M631.5,158.5c0,1.8-1.8,3.8-3.6,3.8c-1.9,0.1-3.6-1.9-3.6-4.2c0-1.7,2.1-3.8,3.7-3.7C629.7,154.5,631.6,156.7,631.5,158.5z
		"/>
	<path d="M470.3,138.5c0.1,1.7-1.1,3.2-2.5,3.2c-1.9,0-3.9-2.6-3.9-5c0-1.4,0.7-2.2,2.1-2.3C467.8,134.2,470.3,136.6,470.3,138.5z"
		/>
	<path d="M454.1,140.5c-2.3-1.1-1.6-5.5,1.3-6.7c2.8-1.2,3.8,2.9,3.3,5.1C458.1,141.8,456.5,141.6,454.1,140.5z"/>
	<path d="M497.3,62.3c4.1,1.5,1.4,4.8,0.1,5.2c-1.4,0.5-2.3-0.6-2.6-2.1C494.4,63.5,495.5,61.7,497.3,62.3z"/>
	<path d="M597.3,46.5c-0.4-1.8,0.8-2.6,2.3-2.8c1.6-0.2,3.4,2.1,3.3,4.3c0,1.8-0.8,2.5-2.6,2.5C598.3,50.4,597.3,49.1,597.3,46.5z"
		/>
	<path d="M658.7,59.3c2.1,0,1.4,1.9,2,2.7c-0.4,2.1-1.4,3.6-3.5,3.5c-1.5,0-2.4-1.3-2.3-2.6C655.1,60.8,656.6,59.3,658.7,59.3z"/>
	<path d="M669.8,58.2c1.2,0.1,2.8,2.2,2.7,3.8c-0.1,1.2-1.6,2.7-2.8,2.6c-1.4,0-2.8-2-2.7-3.7C667.1,59.6,668.6,58.1,669.8,58.2z"/>
	<path d="M509.3,65.3c-1.1,0.5-2.6-1.4-2.7-3.1c-0.1-1.6,1-2.9,2.4-2.9C510.4,59.2,514.3,63.5,509.3,65.3z"/>
	<path d="M588.7,43.5c2.2,0,2.6,2.5,2.9,3.6c0.3,1.5-1.3,2.9-2.9,3.5c-0.6,0.2-1.7,0-2.1-0.4c-1-1.2-1.8-2.7-0.7-4.2
		C586.5,45.1,586.5,43.5,588.7,43.5z"/>
	<path d="M352.9,305.2c0,1.7-3.7,4.8-5.9,4.9c-1.8,0.1-3.9-2.3-4-4.5c-0.1-2.3,2.6-5.2,4.7-5.3C350.1,300.2,353,302.9,352.9,305.2z"
		/>
	<path d="M328.4,305.5c0,2.6-2.4,5.3-5,5.6c-1.8,0.2-3.7-2-3.7-4.1c0.1-1.9,2.4-5.1,4.2-5.7C326.3,300.4,328.5,302.5,328.4,305.5z"
		/>
	<path d="M347.3,139.7c-2.2,0-3.5-1.1-3.5-3.2c0-2.2,1.8-4.1,3.8-4c1.6,0.1,3.3,1.8,3.3,3.6C351,138.3,349.5,139.7,347.3,139.7z"/>
	<path d="M368.7,140.6c0,0.2,0,0.7-0.2,0.9c-1.1,1.4-2.5,1.5-4.1,1c-2.1-0.7-3.6-2.2-3.4-3.6c0.1-1.2,1.9-2.8,3.2-2.9
		C366.2,135.9,368.7,138.2,368.7,140.6z"/>
	<path class="st1" d="M108.3,315.5c-0.3-3-0.4-5.6-0.9-8c-1.1-5.5-2.5-11-3.8-16.6c-1.8-8-3.7-16-5.4-24.1c-1.1-5.5-2-11.1-3-17
		c-5,1.7-9.8,3.2-14.5,4.9c-12.9,4.4-25.8,8.9-38.7,13.2c-9.5,3.1-19.1,6-29.2,6.9c-2,0.2-4,0.7-6,1.1c0,1.2-0.2,2.2,0,3
		c2.4,6.8,2.9,14,4.1,21.1c1.4,8.1,2.3,16.3,3.9,24.3c1.2,6.1,3.2,12.1,4.8,18c2.4,0.7,4.1,0,6-0.8c3.9-1.6,7.9-3.1,12-4.3
		c11.6-3.4,23.3-6.6,34.9-10.1c8.7-2.7,17.4-5.7,26-8.6C101.8,317.5,105,316.6,108.3,315.5z"/>
	<path class="st0" d="M317.6,71.2c2.8-5.6,5.2-11.2,6.2-17.4c3.1,1.7,6.1,3.1,8.9,4.9c2.8,1.8,2.9,2.4,1.9,5.7
		c-0.6,1.8-1.4,3.6-2.1,5.4c-0.6,1.4-1.2,2.8-1.7,4c13,2.3,25.7,5.4,38.6,6.7c13,1.4,25.6,5.1,38.7,6.7c0.8-7.1,1.5-13.7,2.2-20.3
		c4.5-0.7,8.5-1.2,12.7,0.3c2,7-2.1,13.6-1.6,20.5c3.2,0.3,6.1,0.5,8.8,0.8c3.9-10.9,7.9-21.4,11.3-32c3.5-10.7,7.2-21.4,10.1-32.5
		c-1.5-0.4-2.5-0.9-3.4-0.8c-3.7,0.5-7.4,0.1-11.1-0.3c-13-1.2-25.8-2.9-38.3-6.6c-16.6-4.9-33.6-7.2-50.9-8
		c-6.5-0.3-13.1,0-19.9-2.3c0.1,3.9-0.3,11.8-0.4,12.3c-1.4,7.8-2.8,15.7-4.4,23.5c-1.9,9.6-4.1,19.1-6.1,28.6
		C316.9,70.4,317.2,70.7,317.6,71.2z"/>
	<path class="st0" d="M649.8,277.4c-5.4-2.1-10.4-4.1-15.4-6c-11.9-4.5-23.7-9.3-35.8-13.4c-6-2.1-11.8-4.3-17.4-7.4
		c-3-1.6-6.3-2.8-9.9-4.4c-2.8,8.2-5.4,15.8-7.9,23.5c-0.5,1.4,0.3,2.3,1.3,3.3c1.6,1.6,3.2,3.3,4.4,5.3c3,5,4.6,10.6,5.5,16.3
		c1.2,7.5,0.4,14.9-2.4,22c-1.3,3.3-3.2,6.3-4.8,9.5c3.7,0.8,7.5,1.6,11.2,2.5c7.1,1.8,14.2,3.6,21.3,5.4c5.4,1.4,10.7,2.8,16,4.5
		c3.9,1.2,7.8,2.2,11.9,2.4C632.5,318.9,642.7,298.9,649.8,277.4z"/>
	<path class="st1" d="M589.4,121.5l-8.6-43.6l-8.9,1.6l-24.6,7.8l-35.3,12.5l-8.1,3l4.3,12.8l7.3,21.7l5.4,24.4l1.6,3.6l28.2-9
		l22.1-9.1c0,0,2-4.6,4.9-9C580.5,133.8,582.1,125.5,589.4,121.5z"/>
	<path d="M475.5,96.5c4.9-6.1,9.7-12.1,14.6-18.3c-1.3-0.8-2.5-1.3-3.4-2c-2.1-1.5-4.4-2.8-6.1-4.7c-5.6-6.5-3.4-17.9,4.1-22.2
		c2-1.1,3.7-0.7,5.7,1.6c-0.6,0.4-1.2,0.9-1.8,1.2c-4.9,1.9-8.4,7.2-8.2,12.3c0.1,2.2,0.9,4,2.7,5.3c4.8,3.4,10,5.3,15.9,4.8
		c7.3-0.6,14.2-2.4,20.8-5.5c2.3-1.1,4.2-2.7,5-5.1c1.7-5.1,1.2-8.2-3.5-11.3c-2.9-1.9-6-3-9.5-2.9c-2,0-3.8-0.4-4.7-3
		c5.4-1.8,10.2-1.1,14.6,2.1c6.1,4.5,7.7,10.6,5.8,18.6c3.2-2.5,6-4.6,9-6.9c-0.8-2.5,0.4-4.5,1.5-6.7c1.1-2.1,1.4-4.6,2.1-7
		c1.5-0.1,2.9-0.3,4.3-0.3c2.9-0.1,4.5,2.1,3.5,4.8c-0.7,1.6-1.6,3.3-2.7,4.7c-7.1,8.8-15.7,15.8-25.3,21.6c-2.8,1.6-2.8,1.6-2,4.5
		c1,3.7,2.1,7.4,3.2,11.2c2.7-1,5-1.7,7.2-2.6c5.7-2.4,11.6-4.3,17.7-5.4c0.8-0.1,1.5-0.4,2.2-0.6c5.3-1.9,10.7-3.9,16-5.7
		c1.6-0.6,2.8-1.6,2.7-3.3c-0.3-3.1,1.5-5.1,3.1-7.3c1.7-2.4,3.6-4.7,5.4-7c-2-1.2-3.8-2.2-5.5-3.4c-5.1-3.8-6-10.5-2.2-15.4
		c1.6-2,2.6-2.3,5-1.1c-1,1.2-2.1,2.3-2.8,3.6c-3.1,6.1-2.5,7.1,2.3,10.1c3.9,2.5,8.3,3.6,12.7,4.3c6.8,1,13.6,0.5,20.2-1.9
		c5.7-2,8.8-6,9.7-11.9c0.7-4.2-1.5-8.8-5.5-11.1c-1.7-0.9-3.5-1.6-5.3-2.3c-2.8-1.1-5.6-2-8.8-3.2c9.1-2.5,17,1.8,19.8,7.2
		c2.3,4.4,3.1,8.9,1.7,13.8c-1.4,5.1-1.4,5.4-8.6,11c1.5,3.8,2.4,7.7,2.1,11.8c-0.1,1.9,0.3,3.8,0.5,6c2.4,0,4.8,0,7.4,0
		c0.4,0.6,1.2,1.4,1.6,2.3c1.4,3.2,0,5.9-3.5,6.5c-1.4,0.2-2.8,0.3-4.3,0.4c0,1.3,0,2.5,0,3.8c-1.3,0.1-2.4,0.2-3.7,0.3
		c-1.4-7.6-2.7-15.2-4.1-22.7c-15.4,2.2-20.6,1.8-26.8-1.5c-1.9,2.5-3.8,5-5.9,7.8c2.8-0.5,5.5-0.9,8.1-1.3c2.5-0.5,3.7,0,4.4,2.3
		c0.5,2,0.8,4.1,0.9,6.1c0.1,3.6,0.6,7.1,1.7,10.6c0.8,2.7,1,5.5,1.5,8.3c0.6,2.8,1.2,5.5,1.9,8.2c0.7,2.6,1.6,5.2,2.3,7.8
		c0.2,0.9,0.5,1.8,0.3,2.7c-0.1,0.9-0.5,2-1.1,2.6c-0.2,0.3-4.3,0.4-4.8,0.3c-0.7-0.1-1.5-0.9-1.7-1.6c-0.7-3-1.2-6.1-1.8-9.1
		c-1.6-9-3.2-18-4.9-27c-0.4-1.9-1-3.7-1.6-5.7c-3.3,0.2-6.3,0.8-9.3,2c-4,1.7-8.3,2.7-12.4,4.2c-4.9,1.9-9.8,3.9-14.6,6.2
		c-6.1,2.9-12.6,4.4-19,6.2c-4.9,1.4-9.8,3-14.6,4.4c-0.7,3.8,0.8,6.6,1.8,9.4c2,6,4.5,11.7,6.6,17.7c1,2.9,1.6,5.9,2.3,8.9
		c0.5,2.2,0.9,4.5,1.5,6.8c1.4,5.3,2.8,10.7,4.3,16.3c0.6-0.2,5.3-2.7,7-3.3c2.4-0.8,4.9-1.5,7.3-2.6c7.2-3.3,15-4.5,22.4-7.2
		c3.8-1.4,7.7-2.9,11.4-4.8c1.1-0.5,1.7-2.2,2.2-3.4c2.2-5.1,6-7.8,11.5-8.5c1.7-0.2,2.8,0.2,2.9,2.4c-1.1,0.3-2.3,0.6-3.5,1
		c-3.7,1.2-6.7,3.2-7.9,7.2c-0.2,0.8-3.6,13-2.6,17.4c2.1,9.3,7,16.7,15.9,21.1c6.6,3.3,13.1,6.5,20.3,8.2
		c10.1,2.4,19.5,0.5,28.5-3.9c7.8-3.8,12.6-10.3,16-18.1c3.8-8.9,4.5-18,2.9-27.3c-1.3-8-5-15.1-10.9-20.5c-3-2.7-7.3-4.6-11.3-5.6
		c-6.6-1.8-13.3-2.5-20.3-1.4c-5,0.8-10,1-14.6,3.3c-1,0.5-2.3,0.7-3-0.7c-0.8-1.6,0.4-2.6,1.5-3.1c2.9-1.1,5.8-2.2,8.8-2.8
		c10.8-1.9,21.6-1.3,31.9,2.6c6.9,2.6,12,7.4,15.6,13.8c1.1,2,2.3,4,3.2,6.1c1.6,3.5,2.6,7.3,2.9,11.1c0.6,8.4,1,16.8-2.7,24.7
		c-1.5,3.2-2.5,6.9-4.6,9.7c-3.3,4.5-6.7,9.2-12.1,11.6c-0.7,0.3-1.3,0.7-2,1.1c0,0.7-0.1,1.2,0,1.7c1.7,5,1.3,10.2,2.1,15.3
		c0.7,4.2,1.5,8.3,2.3,12.5c1,5.2,2,10.3,3.2,15.5c0.4,1.6,1.2,3.1,1.7,4.5c5.7-0.6,11-1.2,16.3-1.7c1.8-0.2,3.5,1.4,3.5,3.7
		c0,1.7-0.3,3.3-0.5,5c-0.2,1.5-0.9,2.4-2.6,1.7c-0.5-0.2-12.3,1.2-13.1,1.6c-3.1,1.3-4.8-0.6-6.6-2.5c-1.8-1.9-2.8-4-1.6-6.7
		c0.2-0.5,0.1-1.2-0.1-1.8c-0.8-3.5-1.6-7-2.4-10.5c-0.8-3.4-1.6-6.8-2.3-10.2c-0.5-2.1-1-4.2-1.6-6.4c-0.3,12.6,2.8,24.9,3.5,37.4
		c-3.2,0.4-4-0.1-4.3-2.5c-0.9-6.9-1.8-13.8-2.3-20.7c-0.6-7.7-0.8-15.4-1.2-23.2c-5.7,0.7-11.8,1-17.8,0.3c-4.4-0.5-8.8-1.9-13.1-3
		c-5.2-1.3-10.5-2.7-14.8-6.8c-5.8,14.3-11.3,28.4-20.2,40.7c-3.1-1.6-3.3-1.9-2.2-4.2c1.3-2.5,2.8-4.9,4.2-7.4
		c6.1-10.8,11.3-22,15.7-33.6c0.2-0.4,0.1-1,0.2-1.2c-6.3-1.9-12.4-3.7-19.2-5.7c1.4,8.8,2.8,17.1,4.2,25.6
		c-3.6-0.1-6.6,0.1-9.4,1.6c-2.9,1.5-5.7,0-6.4-3.2c-1.2-5.7-2.2-11.4-3.1-17.1c-1.5-9.7-3.7-19.2-6.6-28.6
		c-0.1-0.4-0.4-0.6-0.7-1.1c-7.2,2.6-14.5,5-21.6,7.8c-1.6,0.6-2.5,0.3-3.4-0.6c-1.3-1.3-0.6-5.3-0.9-6.6
		c-2.3-8.7-4.3-17.5-6.7-26.2c-1-3.9-2.4-7.6-3.7-11.4c-2.3-6.7-4.6-13.4-6.8-20.1c-0.2-0.4,0-1,0-1.3c5.8-2.5,11.7-4.1,17.1-6.8
		c-1.6-4.3-3.1-8.1-4.6-12.1c-6.3,1.9-12.4,5-19.5,1.2c-2.4,7.5-5.3,23.1-7.4,23.1s-1.1-1.9-1.1-2.4c0.5-3.5,1-7.1,1.9-10.6
		c0.7-3.2,1.8-6.4,2.8-9.7c-4.4,5-8.8,9.9-13,14.9c-1.5,1.8-3.1,3.8-1.7,6.8c-3.3,0.8-6.3,1.6-10,2.5c-0.6-0.9-1.8-2-1.8-3.2
		c0-2.3-1.8-4.6,0.1-7C466.8,95,471.1,94.2,475.5,96.5z M569.8,151.5c-1,0.3-2,0.7-3,1c-4.3,1.4-5.1,2.6-4.3,7
		c0.6,3.3,1.3,6.6,1.9,9.8c0.5,2.6,0.9,5.1,3.8,6.2c0.5,0.2,0.6,1.1,1,1.5c0.5,0.5,1,1.2,1.6,1.4c4,1.2,8.1,2.4,12.1,3.5
		C573.4,174,569.7,163.6,569.8,151.5z M567.1,204.4c-0.9-5-1.9-10.2-2.8-15.6c-3.2-1.5-5.6-0.1-7.8,2c0.9,5.1,1.8,10.1,2.7,15
		C561.8,205.3,564.1,204.9,567.1,204.4z M553.8,176.2c2.9-0.7,5.3-1.4,8-2c-0.9-4.3-1.6-8.3-2.5-12.6c-3.1,1.1-5.8,2-8.7,3.1
		C551.6,168.4,552.6,172,553.8,176.2z"/>
	<path class="st0" d="M744.7,86.1c4.1-1.2,47.7-12.9,47.7-12.9l3.8,25.5c0,0-7.5,3.3-9.1,6.2c-1.6,3-3.5,10.5-3.5,10.5l-0.5,1.7
		l-34.5,8.8l-2.6-0.4l-2.8-13.6l-2-21.3C741.2,90.6,739.9,87.5,744.7,86.1z"/>
	<path d="M824.1,87.8c0.8-0.2,1.7-0.8,2.5-0.6c10.9,1.7,19.2,7.3,23,17.7c2.7,7.3,2.4,14.9-2.6,21.7c-2.2,3-5.6,3.9-8.7,5.4
		c-0.7,0.3-1.4,0.6-1.8,0.8c1.9,6.5,3.7,12.9,5.6,19.5c2,0.3,4.3,0.6,6.7,0.9c1.3,1.9,0.5,3.8,0.2,5.6c-0.1,0.6-1.3,1.2-2.1,1.3
		c-2.5,0.5-5.1,0.7-7.8,1.1c-0.6,2.3,1.5,5.1-0.9,7.2c-2.3-0.8-2.9-2.7-3.1-4.6c-0.5-4.3-0.9-8.7-1.4-13c-0.4-3.3-0.8-6.6-1.3-10
		c-9.8,3-19.6,2.7-29.9,1.3c-3.5,6.1-6.1,13.2-11.4,19.7c-0.2-8.1,3.3-14,6.4-19.4c-1.5-1.2-2.7-2.6-4.1-3.2c-2.9-1.3-6-2.2-9.1-3.1
		c-1.1-0.3-2.3,0-3.5,0c-1.4,2-3.2,4-1.8,7c-3.3-0.6-2.4-4.5-5.5-4.8c0,1.6,0,2.9,0,4.1c2.1,3.1,4.7,0.8,7.2,1
		c0.7,1,1.2,1.9-0.3,2.8c-1.7,1-7,2-8,2.3c-2.3-3.4-1.3-7.5-2.5-11.1c-1.3-3.8,0.9-7.6-1.1-11.4c-0.4,0-1-0.1-1.6,0
		c-5.1,0.7-10.2,1.5-15.3,2.2c-2.3,0.3-6.6,1.5-7-0.2c-1.4-7.1-3-14.1-4-21.2c-0.8-5.8-0.7-11.8-1.1-17.8c2.7,0.5,3.8,1.7,3.8,4.1
		c0.1,5.3-0.1,10.6,0.4,15.8c0.5,5.1,1.8,10.1,2.8,15.8c0.6-1.1,0.8-1.6,0.9-1.8c3-0.5,5.8-0.9,8.5-1.5c7.8-1.7,15.6-3.5,23.3-5.3
		c0.7-0.2,1.5-0.3,2.1-0.5c2-11.4,5.7-15.8,12.2-14.6c0.2,1.8-1.5,1.9-2.4,2.6c-4.4,3.2-5.7,5.3-6.5,10.9c0.6,0.5,0.7,5.5,1.7,7.4
		c2.5,4.7,6.9,7.2,11.5,9.3c6.6,3,13.5,3.3,20.4,1.9c6-1.2,12.1-2.4,18-4.3c11.7-3.8,13.4-13.7,10.6-22.7c-1.8-5.8-6.4-10-12-12.6
		c-2.9-1.3-6.1-2-9.1-3.1c-0.9-0.3-1.6-0.8-2.4-1.3C824,88.5,824.1,88.2,824.1,87.8z M790.7,131.1c-1.1-1.4-2.4-3.1-3.7-4.9
		c-1.4-1.8-2.7-3.7-4-5.5c-4.2,1.5-4.9,2.5-4.5,6.1c1.5,0.5,3.3,0.7,4.2,1.7C785.2,131.2,788.4,130.9,790.7,131.1z M772.6,125.7
		c0,1,0,1.9,0,2.8c1.6-0.5,2.7-1.1,1.9-3.1C773.9,125.5,773.3,125.6,772.6,125.7z"/>
	<path d="M793.7,69.9c0.6,0.9,1.2,1.5,1.4,2.2c1.4,6.7,2.7,13.3,3.9,20c0.5,2.6,0,4.9-2.8,6.7c-2.7-2.9-5.3-18.2-5.6-22.4
		c-3.5,0.7-6.9,1.2-10.1,2.1c-9.5,2.6-19,5.3-28.6,7.9c-2,0.5-4,1-6,1.3c-2.5,0.3-3.2-0.5-3.5-3.4C755.7,81,792.9,70.2,793.7,69.9z"
		/>
	<path class="st0" d="M393.7,402.8c-6.1-19-11.5-38.2-15.3-57.5c-5.3,1.4-10.6,3.2-16,4.1c-8.6,1.5-17.3,2.7-26,3.3
		c-5.5,0.4-11-0.6-16.5-0.9c-3.5-0.2-7.1-0.4-10.4-0.5c-4.5,21.6-8.9,42.7-13.3,63.7c2.9,2.6,5.8,4,9.2,4.7
		c4.3,0.9,8.5,2.1,12.8,3.1c1.7,0.4,3.5,0.7,5.3,0.7c6.1,0.1,12.1,0,18.2-0.1c2.1,0,4.1-0.3,6.1-0.5c7.4-1.1,14.4-3.7,21.5-6.2
		C378.1,413.7,385.9,408.8,393.7,402.8z"/>
	<path class="st1" d="M387.7,319.2c2.1,1.4,3.6,2.6,5.2,3.3c4.5,2.2,8.9,4.9,13.7,6.1c5.6,1.4,11.5,1.5,17.2,1.8
		c1.9,0.1,3.9-0.8,5.7-1.1c1.2-11.4,1.4-57.9,0.3-62.4c-7,1.1-13.8-0.3-20.5-1.8c-6.9-1.5-13.3-4.5-19.2-7.7
		c-1.8,3.8-3.5,7.5-5.1,10.9c1.9,2.9,4,5.4,5.3,8.3c3.7,8.4,4.5,17.3,4.7,26.4c0.1,4.4-1.9,7.9-4.1,11.4
		C389.9,315.9,388.8,317.4,387.7,319.2z"/>
	<path class="st1" d="M279.4,314.8c0-5.9-0.2-11.3,0.1-16.7c0.2-4,1.3-7.9,3.5-11.3c5.8-9.1,13.2-16.5,22.7-21.6
		c4.4-2.4,9.1-4.1,14.1-6.3c-0.5-2-1.2-4.2-1.7-6.4c-0.5-2.2-0.8-4.4-1.1-6.3c-4.3,1.4-8.3,2.7-12.3,3.9c-1.7,0.5-3.6,0.4-5.3,0.7
		c-10.5,2.3-20.8,1.7-31.1-1.1c-1.9-0.5-4-0.6-6.2-1c-0.2,4-0.1,7.7-0.6,11.2c-1.3,9.5-1.9,19.1-4.9,28.3c-1.5,4.5-2.6,9.1-4,13.7
		c-1.7,5.6,5.3,10.2,10.1,11.7C268.2,315.2,273.9,315.2,279.4,314.8z"/>
	<path class="st1" d="M685.3,432.6c0.2,0.2,0.6,1,1.2,1.3c4.7,2.7,9.2,5.7,14.2,7.7c8.9,3.6,18.3,6.1,27.9,7.4
		c4.2,0.6,8.4,1,12.7,1.3c6.7,0.5,13.3-1,20-1.9c2.9-0.4,6-0.6,8.7-1.6c7.9-2.7,15.7-5.8,23.5-8.8c1.9-0.7,3.8-1.8,5.4-2.9
		c2.6-1.9,2.7-2.5,1.5-5.5c-0.8-1.9-1.8-3.7-2.5-5.6c-2.5-6.8-4.8-13.6-7.2-20.4c-5-13.7-8.9-27.7-10.7-42.2
		c-0.3-2.2-0.6-4.4-0.8-6.4c-21.5,13.5-44.1,12.6-67.1,6.2c-4.4,11.6-9,23.3-13.2,35.1C694.7,408.3,689.4,419.9,685.3,432.6z"/>
	<path class="st0" d="M862.6,278.2c-0.5,0.8-0.8,1.1-0.9,1.5c-2.3,5.6-4.4,11.2-6.8,16.7c-4.9,11.5-10.1,23-14.9,34.5
		c-2.6,6.2-4.7,12.5-7.2,18.7c-1.5,3.7-1.5,4.1,1.4,7c4.1,4,9.2,6,14.7,7.1c4.3,0.8,8.6,1.5,12.9,1.8c7.3,0.6,14.5,2.4,21.9,1.9
		c3.8-0.3,7.7-0.4,11.5-0.7c2.8-0.2,5.6-0.5,8.4-1.1c2.1-0.4,4.1-1.5,6.2-2c5.9-1.6,11.9-3,18.3-4.6c-4.1-23.1-3.4-46.6-4.3-70
		c-2,0.5-3.4,1-4.9,1.3c-6.9,1.7-13.9,0.6-20.7-0.6c-9-1.5-17.8-3.8-26.8-5.6C868,283.4,864.9,282,862.6,278.2z"/>
	<path class="st1" d="M486.6,346.2c-1.2,2.9-2.4,5.8-3.5,8.8c-2.6,6.9-5.3,13.7-7.7,20.6c-2.9,8.3-5.4,16.7-8.1,25
		c-1.4,4.3-3,8.5-4.3,12.8c-0.5,1.6-1,3.3,0.4,4.7c1.7,1.7,3.3,3.6,5.2,5.1c4.4,3.7,9.6,5.4,15.2,6.3c5.7,0.9,11.5,1.5,17.1,2.7
		c5.2,1.1,10.4,1.5,15.7,1c7.9-0.8,15.4-3,22.9-5.3c1.3-0.4,2.4-1.3,3.7-2c-0.2-0.8-0.3-1.3-0.5-1.8c-2.8-8.7-5.8-17.4-8.4-26.1
		c-3.1-10.3-3.5-21-4.2-31.7c-0.3-4.1,0-8.1,0-12.3c-3.5-0.2-6.8,0.4-9.6-0.6c-3.6-1.3-7.3-1.3-10.8-1.6
		C501.5,351.4,494.3,348.5,486.6,346.2z"/>
	<polygon class="st0" points="161.2,326.2 185.8,328.8 217.7,315.7 223,328.8 223,341.7 227.4,362.1 236.4,387.9 242.9,406.8 
		237.5,411.1 214.4,421.1 203.9,423.5 184.5,425.9 173.7,423.5 153.8,418.6 148.9,415.9 151.1,406.8 156.8,350.5 157.3,330.4 
		158.1,325.7 	"/>
	<path d="M82.2,333.4c1.6,8.7,3.5,17,6.4,25.5c1.4-0.7,2.3-1.3,3.3-1.8c12.4-6.5,24.9-13,37.3-19.6c7.8-4.2,15.4-8.9,23.1-13.3
		c1.9-1.1,3-2.7,3.2-4.9c-3.9-2.5-8-4.8-11.6-7.6c-13.6-10.7-21.6-28.5-11.2-46.1c4.4-7.5,10-13.8,16.6-19.2c4.9-3.9,10.8-6.2,17-7
		c2.6-0.3,5.6,0,7.8,3.1c-1.4,0.3-2.4,0.6-3.5,0.6c-10.8-0.2-18.9,4.9-25.9,12.4c-4.1,4.4-7.2,9.4-10.1,14.5
		c-6,10.4-3.6,22.6,3,30.8c10.4,13,24.2,19.2,40.7,19.7c12.2,0.4,23.2-3.2,33.2-9.7c6.8-4.4,11.7-10.6,14-18.4
		c1.7-5.7,3.5-11.4,4.3-17.2c0.7-5.8,0.3-11.9-4-16.7c-1.2-1.3-2.7-2.4-4-3.5c0.6-1.9,1.6-2.3,3.2-1.2c3.1,2.3,5.3,5.4,6.7,8.8
		c2.2,5.2,2.8,10.9,1.5,16.3c-1.8,7.7-4.3,15.3-8,22.4c-1.1,2.1-2.7,4-4,5.8c0.3,2.4,0.4,4.7,0.8,6.9c0.9,4.7,2,9.3,3,14
		c1.6,7.6,5.4,14.4,8.9,21.2c3,5.8,6,11.6,9.1,17.6c4.4-0.9,8.8-1.7,12.8-3.9c1.6-0.9,3.1-0.4,3.7,1.4c0.8,2.1,1.3,4.4,1.5,6.7
		c0.2,2.4-0.7,3.4-3,4.3c-2.3,0.8-4.7,1.4-6.8,2.6c-2.4,1.4-4.7,1.9-7.2,0.7c-0.5-0.3-1.2-0.2-1.6-0.2
		c-4.9-13.7-11.2-26.4-17.8-39.1c0.7,4.1,1.4,8.2,2.2,12.2c2.5,11.2,6.2,22.1,10.2,32.8c2.5,6.6,4.7,13.4,7.1,20
		c0.6,1.8,0.3,3-1,4.5c-3.5,3.9-8.2,5.7-12.7,7.8c-6.8,3.1-13.7,5.9-21,9.1c1,6,2.1,12.2,3.3,18.9c2-0.6,4-0.9,5.5-1.8
		c5.6-3.3,11.4-2.6,17.3-1.3c1.9,0.4,2.7,1.9,2.7,3.8c0.1,4.4,1.2,9-1.6,13.4c-2.3,0.8-5,1-7.6,0.4c-2-0.5-3.7-0.1-5.6,0.3
		c-3.3,0.7-6.6,1.1-9.9,1.3c-2.2,0.2-3.2-0.8-3.5-3.2c-0.5-4.6-0.8-9.2-1.4-13.8c-0.9-6.1-2-12.1-3-18.3c-7.4,0.6-14.5,1.2-21.8,1.9
		c0,1.6-0.1,3.6,0,5.6c0.2,6.2,0.4,12.3,0.8,18.5c0.2,3,1.1,6,1.8,9.7c-0.2,0.4-0.8,1.5-1.5,2.6c-4.3-0.1-8.2,0.8-12.1,2.4
		c-3.1,1.3-6.7,1.8-10.1,2.3c-3.2,0.5-5.4-1.3-6.1-4.5c-0.5-2.3-0.9-4.5-1.3-6.8c-0.4-2.4,0-3.3,2.5-3.8c3.3-0.7,6.6-1.1,9.9-1.3
		c4.1-0.2,8.2-0.1,12.7-0.1c0.2-8.7,0.5-17-1.4-25.4c-3.7-0.7-7.4-1.2-10.9-2.1c-5.7-1.5-11.4-3.2-17-5c-2.6-0.8-4.9-2.4-5.1-5.6
		c1.3-1.2,2.2,0,3.1,0.5c1.8,0.9,3.6,2,5.5,2.7c9.1,3.6,18.6,5.3,28.2,6c4.2,0.3,8.5-0.3,12.7-0.5c2.1-0.1,4.1-0.5,6.1-0.6
		c5.4-0.3,10.4-1.7,15.2-4c4.2-2,8.5-3.6,12.8-5.6c3.7-1.7,7.4-3.7,11.3-5.6c-0.5-1.6-0.9-2.9-1.4-4.2c-1.6-4.6-3.3-9.2-4.9-13.8
		c-2.4-6.8-5.1-13.5-7-20.5c-3.1-11.8-6.8-23.5-7.3-35.8c-0.1-2.4-0.6-4.8-1-7.5c-0.7,0.8-1.2,1.8-2,2.1c-6.6,2.5-12.8,6-20,6.8
		c-6.9,0.8-13.8,1.6-20.7,2c-2.7,0.1-5.5-0.8-8.3-1.4c-3-0.6-5.9-1.3-9.1-2c0,2.8,0.1,5.1,0,7.4c-0.9,12.4-2,24.9-3,37.3
		c-0.3,4.2-0.3,8.5-0.9,12.7c-0.9,7-2,13.9-3.1,20.9c-0.3,1.6-0.8,3-3.5,2.6c0.2-3.3,0.3-6.6,0.6-9.9c0.8-7.2,2-14.3,2.8-21.5
		c0.7-7,1-14.1,1.6-21.2c0.5-6.5,1.1-13.1,1.5-19.6c0.2-4.2,0.5-8.5-1.2-12.8c-4.7,2.6-9.1,5.1-13.6,7.5
		c-10.1,5.2-20.4,10.3-30.5,15.6c-5.8,3.1-11.4,6.4-17.1,9.7c-3,1.7-3.3,2.4-2.3,5.6c1.4,4.6,3,9.1,4.7,13.5c1.9,5,4.2,10,6.2,15
		c0.5,1.3,1,2.7,1,4.1c0,2.4-0.6,4.5-3.1,5.7c-3.7,1.8-7.3,3.7-11.2,5.6c-0.1,0.6-3.8,2.4-4.7,0.6c-1.3-2.6-4.3-14.3-4.6-15.2
		c-1-3.3-2-6.7-3-10.2c-3.5-0.6-5-3.2-5.5-6.1c-1.6-9.1-5.1-17.5-8.5-25.9c-1.6-4.1-3-8.2-4.5-12.5c-1,0-1.9-0.2-2.7,0
		c-5.2,1.4-10.5,2.7-15.6,4.5c-3.4,1.1-6.7,1.7-10.2,1.7c-2.2,0-4.4,0.2-6.6-0.1c-1.5-0.2-3-0.7-4.3-1.4c-0.7-0.4-7-19.3-10-28.4
		s-4.1-30.5-4.7-38.7c-0.1-1.7-0.4-3.3-1.8-4.5c-0.5-0.4-0.7-1.3-1.3-2.4c1.2-0.6,2.3-1.3,3.4-1.6c3.2-0.8,6.5-1.6,9.7-2.2
		c3.3-0.7,6.7-1.1,10.1-1.7c0.5-0.1,1.1,0,1.5-0.2c6.5-3.1,13.9-2.6,20.5-5.2c4-1.6,8.1-3.2,12.1-4.8c5.1-2,10.3-4,15.5-5.9
		c4.9-1.8,22.2-5.6,24.6-6.4c2.4-0.8,2.9-0.6,3.7,1.6c0.6,1.7,1.1,3.4,1.4,5.2c1.4,9.9,2.5,19.9,4,29.8c0.6,3.7,1.8,7.2,3.1,10.7
		c1.8,4.9,2.8,9.9,3.3,15c0.3,3,1.4,6,2.4,8.8c0.8,2.3,0.7,2.5-1.4,3.8c-5.6,3.7-12,5.7-18,8.6C91.7,329.9,87.2,331.4,82.2,333.4z
		 M108.3,315.5c-0.3-3-0.4-5.6-0.9-8c-1.1-5.5-2.5-11-3.8-16.6c-1.8-8-3.7-16-5.4-24.1c-1.1-5.5-2-11.1-3-17
		c-5,1.7-9.8,3.2-14.5,4.9c-12.9,4.4-25.8,8.9-38.7,13.2c-9.5,3.1-19.1,6-29.2,6.9c-2,0.2-4,0.7-6,1.1c0,1.2-0.2,2.2,0,3
		c2.4,6.8,2.9,14,4.1,21.1c1.4,8.1,2.3,16.3,3.9,24.3c1.2,6.1,3.2,12.1,4.8,18c2.4,0.7,4.1,0,6-0.8c3.9-1.6,7.9-3.1,12-4.3
		c11.6-3.4,23.3-6.6,34.9-10.1c8.7-2.7,17.4-5.7,26-8.6C101.8,317.5,105,316.6,108.3,315.5z M89.2,381.1c-2.2,1.1-4.1,2-6.1,2.9
		c-3.1,1.4-3.3,1.7-2.3,5c1.4,4.9,2.9,9.8,4.4,14.7c0.3,1,0.9,1.9,1.4,3c3.6-1.7,6.8-3.2,10.3-4.8c-1.2-1.3-4.9-9.7-5.5-12.9
		C90.9,386.4,90,383.9,89.2,381.1z M72,363.2c3.7-1.4,7.1-2.8,10.7-4.2c-1.6-4.4-3.3-9.2-5.1-14.1c-3.6,1.4-6.8,2.6-10.1,3.9
		C69.1,353.7,70.6,358.5,72,363.2z"/>
</g>
</svg>
