<?xml version="1.0" encoding="utf-8"?>
<!-- Generator: Adobe Illustrator 19.1.0, SVG Export Plug-In . SVG Version: 6.00 Build 0)  -->
<svg version="1.1" id="Calque_1" xmlns="http://www.w3.org/2000/svg" xmlns:xlink="http://www.w3.org/1999/xlink" x="0px" y="0px"
	 viewBox="0 0 473.6 439.3" style="enable-background:new 0 0 473.6 439.3;" xml:space="preserve">
<style type="text/css">
	.st0{fill:#72B52B;}
	.st1{fill:#71519B;}
	.st2{fill:#C0BFBF;}
	.st3{fill:#EDE5F2;}
	.st4{fill:none;stroke:#72B52B;stroke-width:4;stroke-linecap:round;stroke-miterlimit:10;}
	.st5{fill:none;stroke:#71519B;stroke-width:4;stroke-linecap:round;stroke-miterlimit:10;}
	.st6{fill:#6EA1C1;}
	.st7{fill:#BFBEBE;}
	.st8{fill:#55358A;}
	.st9{fill:#FFFFFF;}
	.st10{fill:#FFFFFF;stroke:#71519B;stroke-width:3;stroke-miterlimit:10;}
	.st11{fill:#FFFFFF;stroke:#72B52B;stroke-width:3;stroke-miterlimit:10;}
	.st12{fill:none;stroke:#FFFFFF;stroke-width:3;stroke-miterlimit:10;}
	.st13{fill:#F2BF00;}
</style>
<g>
	<g>
		<path d="M68.2,20.9c18.7-5.1,37.1-5.7,54.4,4.9c9,5.6,16.6,12.8,22.4,21.9c6.1,9.6,11.4,19.6,13.6,30.8
			c3.3,17.1,2.8,33.7-6.8,49.3c-7.5,12.1-16.9,21.8-29.9,28.7c1.4,1.2,2.5,2.2,3.8,3c6.6,4.5,12.3,10,17.3,16.2
			c1.8,2.2,4.3,4,6.8,6.2c1.3-5.4,8-19.4,16.1-23.2c9.4-5.3,19.5-8.8,30-11.2c11.6-2.6,23.2-5,34.8-7.5c4.5-1,6-0.6,8.6,3.1
			c1.1,1.6,2.1,3.3,3.1,5.1c0.3,0.5,0.3,1.1,0.5,2c-4.6,3.3-10.4,18.7-11.7,21.3c-1,1.9-1.9,3.9-2.6,5.3c2.2,2.5,4.3,4.6,6,7
			c1.6,2.2,1.9,4.3-0.7,6.7c-3.4,3.1-6,7.1-9.7,11.5c4.5,0.6,8.1,1.4,11.8,1.5c5,0.2,9.9,0,14.9,0c7.8,0,11.5,4,10.8,11.7
			c-0.3,3.1-0.7,6.2-1.4,9.3c-1.7,7.4-7.9,11.4-13.3,15.3c-12.1,8.6-24.7,16.5-37.5,24.1c-3.1,1.9-7.6,2.1-11.5,2
			c-9.8-0.2-19.6-1.3-29.4-1.4c-4.9-0.1-7.5-2.7-9.6-6.2c-4.8-0.6-9.3-1.1-14.4-1.7c1.1,3,2,5.3,2.7,7.7c2.2,7.8,4.1,15.7,6.6,23.4
			c2.9,8.8,6.4,17.4,9.4,26.2c1.5,4.4,0.9,5.9-2.6,8.6c-9,6.9-19,12.2-29.8,15.7c-7.1,2.3-14.7,3.3-22,4.8c-0.9,0.2-1.9,0.4-3.2,0.7
			c1.3,21.1,2.5,42,3.8,62.9c6.2,0,12,0.1,17.9,0c3.2,0,6.3-0.5,9.5-0.5c3.1,0,4.8,1.6,4.8,4.8c0,2.3,0,6.3,0,8.2
			c0,2-8.4,3.3-10,3.4c-5.9,0.5-11.8,0.9-17.7,1.2c-5,0.3-11.4-4.3-11.6-8c-0.2-3.2-2.9-62.1-2.2-70.5c-10.3,0.8-20,1.5-30.3,2.3
			c0.6,24.8,3.8,49.6,5.6,75.2c7-0.2,14,1.2,21.1-0.8c3.8-1.1,5.9-0.1,6.1,4c0.1,1.7,1,10.3-0.7,11.7c-1.8,1.4-16.4,2.2-24.5,0.8
			c-5.9-1.1-9.2-5-8.8-11.1c0.5-10.1-0.7-20.2-1.7-30.2c-0.8-8.1-1.3-16.2-1.8-24.3c-0.5-8.9-0.9-17.7-1.4-26.6
			c-6.7-1.5-13-3.1-19.4-4.2c-8.5-1.5-16.2-5-24-8.4c-3.6-1.5-4.7-4.5-4-8.4c1.5-8.6,3-17.1,4.6-25.7c2.6-14.4,5.1-28.8,7.7-43.2
			c2.1-11.5,4.5-22.9,6.6-34.4c3.3-18.1,6.4-36.2,9.6-54.3c-4.5-2.7-8.5-4.9-12.2-7.5c-20.2-14.1-30.8-33.2-32-58
			C-0.6,88.3,3,75.7,9.2,63.9c6.6-12.5,16.4-22.4,30.4-27C44,35.5,45,36,47.9,40c-0.4,0.4-0.7,1.1-1.1,1.2
			C36.7,43,29.3,48.9,22.6,56.3C8.1,72.6,4.1,91.5,7.2,112.6c2.3,15.5,9.8,28,21.4,38c7.7,6.7,16.8,11.1,27.2,12.2
			c20.4,2.2,39.8-0.9,58-10.5c4.6-2.4,9.3-4.7,13.4-7.7c10.7-7.7,18.7-17.8,23.6-30c2.2-5.4,3.1-11.5,3.4-17.4
			c0.6-10.6-0.6-21.1-5-30.8c-6.4-14.5-14.6-27.8-29.1-35.8c-10.3-5.6-21.4-8.1-33.2-6.9c-4.1,0.4-8.2,1.4-12.3,2.2
			C69.6,27.1,69.2,26.8,68.2,20.9z M200.2,209.5c-3.1,2.4-5.7,4.8-5.7,11.5s7.1,11.1,13.8,8c4.8-2.2,8.5-5.4,10.3-10.7
			c1.8-5.3,0.9-9.7-3.1-12C210.8,203.4,203.4,207.2,200.2,209.5z M217.1,235.3c11.1-5,25-15.5,34.5-23.7c-6.9-0.9-19-2.4-25.9-2.1
			c-0.2,1-0.1,3.4,0,4.1c0.2,7.8-2.3,14.2-8.9,18.8c-0.7,0.5-6.1,3.1-8.4,3.6C211.6,238.5,214.9,236.2,217.1,235.3z M157.3,316.1
			c-6.6-20.4-13-40.3-19.4-59.9c-8.4-0.8-16.2-1.8-24.1-2.3c-12.6-0.7-25.3-1.1-37.9-1.7c-5.4-0.2-8.8-3.3-8.8-8.5
			c0-10.9,0.4-21.8,0.7-32.7c0.2-7.7,0.4-15.5,0.4-23.2c0-1.7,0.3-3.8-0.1-5.4c-6.6-0.8-13.9-1.1-19.3-1.7
			c-9.2,49.6-18.2,98.4-27.2,147.2c3.9,1.9,6.9,3.8,10.3,5c4.5,1.5,9.1,2.6,13.8,3.7c13.2,3,26.1,4.7,39.6,2.8
			c11.4-1.6,23-3.1,34.3-5.3C133.6,331.3,146,324.9,157.3,316.1z M74.3,182.6c0,6.8,0.1,13.1,0,19.4c-0.3,10.9-0.9,21.8-1.2,32.7
			c-0.1,3.5,0.5,6.9,0.7,10.2c21.1,1.4,41.5,2.8,62.6,4.3c-7.1-26.8-14-52.6-21-79.3c-3.6,4.3-18.1,7.8-21,8.5c-5,1.2-10,2.4-15,3.5
			C77.6,182.3,75.6,182.4,74.3,182.6z M147.4,189.7c-5.1-6.1-9.7-11.8-14.5-17.3c-3.8-4.2-8.4-7.4-14-9.9
			c8,29.7,15.7,58.6,23.5,87.3c5,0.6,9.2,1.1,13.8,1.6c1-9,2-17.4,2.9-26.1c-4.9-0.6-6.6-3.9-7.9-7.9
			C148.1,208.1,146.1,198.7,147.4,189.7z M228.2,155.9c-1.5,0.2-2.3,0.2-3.1,0.4c-10.1,2.6-20.2,5.8-30.4,7.8
			c-9.3,1.8-13.7,7.8-16.6,15.9c-0.6,1.7-0.9,3.4-1.3,5.2c-1.9,7.6-3.9,15.3-5.7,23c-0.7,3-1.1,6-1.8,9.9c6.6-2.6,12.4-4.2,17.6-7
			c6.6-3.7,12.6-8.5,18.8-12.8c0.6-5.8-2.3-10.1-5.2-14.4c-1.2-1.8-2.8-3.4-1.7-5.8c7.5-2.9,15.3-4,22.2-3.1
			C223.5,168.2,225.7,162.4,228.2,155.9z M163.2,248.3c1.1,0.1,2,0.1,3,0.2c4.5,0.2,9,0.4,13.5,0.5c2.5,0.1,4.3,1.2,4.6,3.7
			c0.4,8,13.2,6.5,16,6.5c1.5-5.1,2.5-11.4,4.2-17.3c-14.2-1.5-27.3-2.9-40.9-4.4c0,1.7,0.1,3.5,0,5.3
			C163.5,244.5,163.3,246.2,163.2,248.3z M172.3,175.8c-7.3-2-13.8,0.6-15.2,6.6c-2,8.8-3.5,17.8-1.7,26.8c0.7,3.4,2.2,7,6.4,8.1
			C165.4,203.2,168.9,189.5,172.3,175.8z M209.2,257.4c9.1-3.6,38.2-24.4,42.7-27.7c2.1-1.6,6.3-9.7,4.9-13.9
			c-3.4,2.1-31.1,22.5-41,26.9C210.7,245,208.7,251.1,209.2,257.4z M206.8,182.1c1.9,5.4,3.4,10,5.1,14.5c0.4,1.2,1.2,2.7,2.2,3
			c0.8,0.2,2.3-0.9,3.1-1.7c2.9-2.9,5.7-5.9,8.5-8.9c1-1.1,1.9-2.3,3-3.5C221.7,178.4,214,181.6,206.8,182.1z M165.8,229.4
			c0.2,0.5,0.4,1,0.6,1.6c9.5,0.8,18.9,1.5,28,2.3c-4.9-3.2-6.9-7.7-6-15.4C181.5,222.1,172.7,223.9,165.8,229.4z M167.9,168
			c5.8,1.5,7.3,1.7,8.1,0c2-4.6,8.2-7,11.3-10.4C179,159.1,171.8,160.7,167.9,168z"/>
		<path d="M466.9,265.6c-2.8-13.4-5.4-26.8-7.7-40.2c-2.6-15.4-4.8-30.9-7-46.4c-1.8-12.5-2.7-25.2-7-37.2c-1.3-3.7-0.8-6.2,2.1-8.8
			c9.6-8.6,15.7-19.5,18.9-31.8c2.9-11.2,3.1-22.7,1.5-34.1c-1.7-12.5-5.1-24.2-13.3-34.4c-6.7-8.5-13.6-16.5-22.4-22.7
			c-7.8-5.4-16.4-9.5-25.8-9.9c-8.8-0.4-17.7,1.1-26.6,1.8c-1.8,0.1-3.9,0.4-3.6,2.9c0.3,2.1,1.6,3.3,4.2,3c4.5-0.6,9-0.6,13.4-1.4
			c16-3.1,29.6,1.9,41.9,11.9c6.8,5.5,11.3,12.7,16.6,19.4c1.8,2.3,3.3,4.9,4.5,7.6c4.6,9.9,5.9,20.4,6.3,31.2
			c0.4,9.7-0.8,19.3-4.3,27.9c-6,15-15.1,27.2-31.8,33c-14.4,5-27.8,5.3-41.6-0.4c-4.6-1.9-8.8-4.5-13.3-6.6
			c-11.2-5.2-18.6-14.6-25.6-24.2c-5.1-6.9-8.1-15.1-10.2-23.3c-3-11.9-3.4-24.1,1.2-35.6c5-12.7,16.5-22.3,13.3-25
			c-2.5-2.2-7.1,3.3-10.2,7.5c-6.4,8.8-10.5,18.3-11.2,29.5c-1.2,21.4,5,40.3,18.3,56.9c3.6,4.5,7.7,8.5,11,12.2
			c-2.9,10.9-5.7,21.2-8.4,31.5c-3.7,13.9-5.6,28.3-10.9,41.9c-0.4,0.9-0.4,1.9-0.7,2.9c-2.7,9.5-5.5,19-8.2,28.5
			c-6.2-0.3-8.8,3.1-9.7,8.1c-1.4,7.2-2.8,14.3-3.9,21.5c-0.4,2.5,0.9,4.7,3.4,5.7c1.7,0.7,3.5,1,5,1.4c-0.6,5.3-0.5,10.6-2,15.4
			c-1.4,4.4,0.4,6.7,3.1,9.1c1.6,1.5,3.1,3.1,4.9,4.3c9.2,6.2,19,11.4,29.7,14.7c3.4,1,5,2.8,5.3,6.1c0.4,4.7,0.9,9.5,1.2,14.2
			c0.8,10.3,1.5,20.5,2.2,30.8c0.5,6.5,0.9,13,1.3,20.3c-2.3-0.2-3.9-0.5-5.5-0.5c-3.5,0-7.1,0-10.5,0.4c-4.5,0.6-8.9,1.6-13.3,2.7
			c-1.8,0.4-3.9,1.3-4.9,2.7c-1.3,1.9-2.3,4.5-2.1,6.7c0.3,2.8,1.4,5.7,3.1,8c0.7,0.9,3.5,0.5,5.4,0.4c3.9-0.3,7.9-0.9,11.8-1.1
			c8.2-0.6,16.5-0.3,24.6-4.5c0.6,5.1,3.5,6,7.7,4.8c1.9-0.5,3.8-0.7,5.7-1.2c4.7-1.3,9.4-2.6,14.2-3.9c3-0.8,6.1-1.6,9.1-2.3
			c3.1-0.7,4-2.3,3.3-5.6c-1.2-6.4-2.1-12.8-2.7-19.3c-0.9-10.5-1.6-20.9-2.1-31.4c-0.4-6.6-1.1-13.3-0.1-19.9
			c5.5-0.6,10.4-1.2,15.3-1.5c12.6-0.9,37.6-14.6,38.7-16.1c1.7-2.3,5.7-5.7,4.8-9.3C473.6,293.7,468.5,273.4,466.9,265.6z M378,387
			c-1.5-11.8-3-23.2-3.5-34.8c-0.5-11.6-1.7-23.1-2.7-35.3c12.2,2.2,24.3,4.7,36.5,3.4c1,20.6,2,40.9,2.9,61.3
			C400.7,383.3,389.7,385.1,378,387z M427.3,312.2c-10.2,1.6-20.6,2.4-30.8,1.6c-19.6-1.5-38.8-5.3-56.2-15.5
			c-5.1-3-9.8-5.8-12.4-10c7.9-49.2,21.8-96.3,34.4-143.9c13.3,7.2,25.1,14.3,42.7,15c0.8,35.1,5,69.2,9.7,103.4
			c-4.1,0.9-5.3,3.2-5.2,6.6c0.2,5.3,0.1,10.7,0.2,16.1c0.1,4.5,1.7,12.8,8.8,11.9c7.1-0.5,7.8-5.4,7.8-8.4c0-5.8,0.1-11.5-0.3-17.2
			c-0.2-2.6-0.8-6.3-2.5-7.5c-3-2.2-3-4.8-3.4-7.7c-0.6-4.1-1.1-8.2-1.7-12.3c-0.9-5.9-2.1-11.7-2.6-17.6c-1.8-20.5-3.3-41-4.8-61.6
			c-0.1-1.9,0-3.8,0-5.5c10.9-2.4,21.8-1.9,31.9-6.8c0.5,2.2,1.1,4.3,1.4,6.4c2.4,18,4.7,36.1,7.2,54.1c1.7,11.7,3.5,23.5,5.8,35.1
			c2.6,13,5.7,25.9,8.7,38.8c0.5,2.2,1.4,5.1,1.4,7.3C467.3,296.6,444.2,309.6,427.3,312.2z"/>
		<path d="M93.6,108c0.2,3.5-3.9,7.3-7.9,7.4c-3.3,0.1-6.5-3.9-6.9-8.4c-0.2-3.2,2.8-6.9,5.8-7.1C88.3,99.7,93.4,104.3,93.6,108z"/>
		<path d="M400.8,85.9c3.3,0,8,4.2,7.6,9.5c-0.3,4.3-2.2,6.3-5.4,6.1c-4.9-0.3-7.9-2.9-8-6.9C394.9,91,397.5,85.9,400.8,85.9z"/>
		<path d="M115.6,96.4c3.6,0.3,8.1,4.7,7.7,7.7c-0.4,3.4-5.5,7-9.4,6.6c-2.6-0.3-5.3-4.8-5.1-8.3C109,98.9,112.2,96.1,115.6,96.4z"
			/>
		<path d="M374,77.4c2.6-0.9,6.1,1.3,7.4,4.4c0.5,1.1,0.8,2.2,1.1,3.4c0.9,2.5,0.6,4.6-2,6.1c-2.7,1.6-4.3,1.2-7-1.1
			C370.9,87.9,371,78.5,374,77.4z"/>
		<path d="M258.6,184.3c-1,1.8-15.8,7.4-17.4,3.9c-1.5-3.4,9.8-7.2,12.4-8.2C256.4,178.9,259.6,182.5,258.6,184.3z"/>
		<path d="M129.8,72.6c1,0.8,1.5,1.1,1.9,1.5c0.7,0.9,1.4,1.9,2.6,3.5c-2,2.7-4,5.6-6.2,8.2c-1.1,1.3-2.5,3-4.5,1.6
			c-2-1.4-1.7-3.3-0.3-5.2C125.3,79.2,127.4,76.1,129.8,72.6z"/>
		<path d="M247.2,162.8c2.2-1.3,5.6,2.1,6.4,4.1c0.9,2-9.7,10.2-10.8,11c-1.1,0.8-3.2,1.6-3.7-1.3
			C238.6,173.8,244.9,164.1,247.2,162.8z"/>
		<path d="M83.1,90.6c-1.2-5.2-7.1-15.5-3.4-15.5c3.7,0,6.6,6.8,7.5,11C87.7,88.3,86.4,89.8,83.1,90.6z"/>
		<path d="M117.7,84.4c-3.7-4.3-3.4-8.4,0.8-13.5C123.8,75.2,123.7,78.6,117.7,84.4z"/>
		<path d="M70.2,81.1c2.1-2.1,7.3,7.5,10.6,10.9c-2.5,3-4.5,2.1-6.5,0.6C71.1,90,68.1,83.2,70.2,81.1z"/>
		<path d="M107.6,70c5.5,4.6,6.3,8.6,3.4,13.9c-4.1-2.2-4.3-6.3-5.1-10C105.6,72.8,106.9,71.4,107.6,70z"/>
		<path d="M75,100.5c-3.6,1.8-8.3,1.2-10.5-1.7c-1.3-1.7-2-6,0-6C66.4,92.8,72.6,96.2,75,100.5z"/>
		<path d="M211.8,209.5c4.7,1.3,5,12.5-1.3,16.2c-3.1,1.4-6.1,0.4-8.8-1.8c-3-2.5-3.5-5.9-2.2-9
			C200.8,211.8,207.1,208.2,211.8,209.5z M209.4,213.3c-2.2-0.6-7.5,6.4-3.2,7.7C210.4,222.3,211.6,213.8,209.4,213.3z"/>
		<path d="M182,185.6c2.9,0.6,5.8,1.1,8.4,1.9c0.8,0.3,1.7,1.9,1.6,2.7c-0.1,0.9-1.3,2-2.3,2.3C186.3,193.5,182.8,190.5,182,185.6z"
			/>
		<path d="M193.1,178.4c-5.2-0.4-6.1-1.5-5.8-6.6C191.5,171.8,192,174.9,193.1,178.4z"/>
		<path d="M392.8,109.9c-1.9,0.8-3.9,2.4-5.4,2.3c-1.5-0.1-2.4-1.7-2.5-2.8c-0.1-1.2,1.1-2.9,1.9-3.5c1.8-1.4,3.4-1.9,6.2-1.4
			c4.9,0.9,8,6.7,8.8,7.8c1.2,1.9,1.7,4,4.8,4c3.1,0,6.8-6.9,8.7-5c2.7,2.7-7.9,13.8-14.9,8.8c-2.1-1.5-3.7-3.9-5.3-6.1
			C394.2,113,393.7,111.6,392.8,109.9z"/>
		<path d="M379.1,110.5c-1.8,0-1.7-3.6-2.5-5.2c-10.4,6.2-13.5,6.4-16.9,1.4c-2.5-3.8-0.4-12,2.5-12s0.2,9.4,2,9.4
			c1.8,0,2.7-0.6,3.8-1.2c1.2-0.6,6.1-4.3,8.1-4.3c3.7,0,5.5,3.9,6.8,6.5C384.2,107.7,380.9,110.5,379.1,110.5z"/>
	</g>
	<path class="st0" d="M157.3,316.1c-6.6-20.4-13-40.3-19.4-59.9c-8.4-0.8-16.2-1.8-24.1-2.3c-12.6-0.7-25.3-1.1-37.9-1.7
		c-5.4-0.2-8.8-3.3-8.8-8.5c0-10.9,0.4-21.8,0.7-32.7c0.2-7.7,0.4-15.5,0.4-23.2c0-1.7,0.3-3.8-0.1-5.4c-6.6-0.8-13.9-1.1-19.3-1.7
		c-9.2,49.6-18.2,98.4-27.2,147.2c3.9,1.9,6.9,3.8,10.3,5c4.5,1.5,9.1,2.6,13.8,3.7c13.2,3,26.1,4.7,39.6,2.8
		c11.4-1.6,23-3.1,34.3-5.3C133.6,331.3,146,324.9,157.3,316.1z"/>
	<path class="st0" d="M74.3,182.6c0,6.8,0.1,13.1,0,19.4c-0.3,10.9-0.9,21.8-1.2,32.7c-0.1,3.5,0.5,6.9,0.7,10.2
		c21.1,1.4,41.5,2.8,62.6,4.3c-7.1-26.8-14-52.6-21-79.3c-3.6,4.3-18.1,7.8-21,8.5c-5,1.2-10,2.4-15,3.5
		C77.6,182.3,75.6,182.4,74.3,182.6z"/>
	<path class="st1" d="M163.2,248.3c1.1,0.1,2,0.1,3,0.2c4.5,0.2,9,0.4,13.5,0.5c2.5,0.1,4.3,1.2,4.6,3.7c0.4,8,13.2,6.5,16,6.5
		c1.5-5.1,2.5-11.4,4.2-17.3c-14.2-1.5-27.3-2.9-40.9-4.4c0,1.7,0.1,3.5,0,5.3C163.5,244.5,163.3,246.2,163.2,248.3z"/>
	<path class="st1" d="M172.3,175.8c-7.3-2-13.8,0.6-15.2,6.6c-2,8.8-3.5,17.8-1.7,26.8c0.7,3.4,2.2,7,6.4,8.1
		C165.4,203.2,168.9,189.5,172.3,175.8z"/>
	<path class="st1" d="M209.2,257.4c9.1-3.6,38.2-24.4,42.7-27.7c2.1-1.6,6.3-9.7,4.9-13.9c-3.4,2.1-31.1,22.5-41,26.9
		C210.7,245,208.7,251.1,209.2,257.4z"/>
	<path class="st1" d="M167.9,168c5.8,1.5,7.3,1.7,8.1,0c2-4.6,8.2-7,11.3-10.4C179,159.1,171.8,160.7,167.9,168z"/>
	<path class="st1" d="M427.3,312.2c-10.2,1.6-20.6,2.4-30.8,1.6c-19.6-1.5-38.8-5.3-56.2-15.5c-5.1-3-9.8-5.8-12.4-10
		c7.9-49.2,21.8-96.3,34.4-143.9c13.3,7.2,25.1,14.3,42.7,15c0.8,35.1,5,69.2,9.7,103.4c-4.1,0.9-5.3,3.2-5.2,6.6
		c0.2,5.3,0.1,10.7,0.2,16.1c0.1,4.5,1.7,12.8,8.8,11.9c7.1-0.5,7.8-5.4,7.8-8.4c0-5.8,0.1-11.5-0.3-17.2c-0.2-2.6-0.8-6.3-2.5-7.5
		c-3-2.2-3-4.8-3.4-7.7c-0.6-4.1-1.1-8.2-1.7-12.3c-0.9-5.9-2.1-11.7-2.6-17.6c-1.8-20.5-3.3-41-4.8-61.6c-0.1-1.9,0-3.8,0-5.5
		c10.9-2.4,21.8-1.9,31.9-6.8c0.5,2.2,1.1,4.3,1.4,6.4c2.4,18,4.7,36.1,7.2,54.1c1.7,11.7,3.5,23.5,5.8,35.1
		c2.6,13,5.7,25.9,8.7,38.8c0.5,2.2,1.4,5.1,1.4,7.3C467.3,296.6,444.2,309.6,427.3,312.2z"/>
	<path class="st0" d="M206.8,182.1c1.9,5.4,3.4,10,5.1,14.5c0.4,1.2,1.2,2.7,2.2,3c0.8,0.2,2.3-0.9,3.1-1.7c2.9-2.9,5.7-5.9,8.5-8.9
		c1-1.1,1.9-2.3,3-3.5C221.7,178.4,214,181.6,206.8,182.1z"/>
</g>
</svg>
