<?xml version="1.0" encoding="utf-8"?>
<!-- Generator: Adobe Illustrator 19.1.0, SVG Export Plug-In . SVG Version: 6.00 Build 0)  -->
<svg version="1.1" id="Calque_1" xmlns="http://www.w3.org/2000/svg" xmlns:xlink="http://www.w3.org/1999/xlink" x="0px" y="0px"
	 viewBox="0 0 154.9 196.8" style="enable-background:new 0 0 154.9 196.8;" xml:space="preserve">
<style type="text/css">
	.st0{display:none;fill:#F7B5AC;}
	.st1{fill:#F7B5AC;}
	.st2{fill:#EB5C5F;}
	.st3{fill:#84B974;}
	.st4{fill:#010202;}
	.st5{fill:#AB7613;}
	.st6{fill:#C0BFBF;}
	.st7{fill:#6FA4C3;}
	.st8{fill:#1E1E1C;}
	.st9{fill:none;}
	.st10{fill:none;stroke:#EB5C5F;stroke-width:3;stroke-miterlimit:10;}
	.st11{fill:none;stroke:#6FA4C3;stroke-width:3;stroke-miterlimit:10;}
	.st12{fill:none;stroke:#84B974;stroke-width:3;stroke-miterlimit:10;}
	.st13{fill:none;stroke:#C0BFBF;stroke-width:3;stroke-miterlimit:10;}
	.st14{fill:none;stroke:#F7B5AC;stroke-width:3;stroke-miterlimit:10;}
</style>
<g>
	<path d="M96.8,164.3c2.5,0.8,5.1,1.2,7.4,2.3c5.1,2.3,7.8,7.3,6.9,12.8c-0.2,1.1-0.7,2.4-1.5,3.1c-3.1,3-17.8,4.3-21,4.8
		c-6,1-28.7,0.4-34,0c-2.6-0.2-4.9-0.8-6.6-2.9c-3.6-4.5-2.3-9.9,3.2-12.2c3.2-1.4,6.6-2.3,10.3-3.6c-0.2-0.9-0.4-2.2-0.8-3.4
		c-2.4-7.5-4.9-14.9-7.2-22.4c-2.7-8.9-5.1-17.8-7.6-26.7c-1.1-4.1-2.2-8.3-2.9-12.5c-0.7-4.4-1-9-1.2-13.4
		c-0.5-10.7-2.5-21.2-4-31.8c-0.4-2.4-2-7.6-0.1-7.6c1.9,0,5.8,0,5.8,0c-0.4-5.8,3.3-9.2,7.2-12.7c-2.5-2.2-1.1-4.5,0-6.7
		c0.5-1.2,1.6-2.1,2.1-3.3c0.4-0.7,0.6-1.8,0.3-2.5c-2.2-6,0.8-10.5,5.7-13.4c2-1.2,4.3-2,6.6-2.5c5.2-1.1,10.2-2.4,13.5-7
		c4.6,3.1,1.5,7.3,2.1,11c3.2,1.7,7,2.6,9.3,6.1c2.1,3.3,3.6,6.5,1.6,10.3c4.8,4.3,6.5,9.5,5.2,15.8c0.3-0.5,0.7-1,0.9-1.6
		c3.4-9.9,6.7-19.8,10-29.7c0.5-1.4,0-3.5,2.7-3.7c2.8-0.3,6.9,1.6,7,1.9c0.3,0.7,0.2,1.6,0,2.2c-0.9,2.4-2,4.8-3,7.2
		c-2.9,7.2-5.9,14.5-8.8,21.7c-0.1,0.2,0,0.5-0.1,0.8c0.6,0,1.2,0,1.7,0c3.2,0.1,4,0.9,4,4.1c0,7,0.2,14,0,21
		c-0.2,6.5-0.8,13-1.1,19.5c-0.1,1.7,0.5,3.5,0.4,5.3c-0.3,3.4-0.7,6.8-1.2,10.2c-1.3,7.7-2.7,15.3-4.3,23
		c-1.1,5.6-2.5,11.1-3.8,16.6C100,151.2,98.4,157.8,96.8,164.3 M80.3,174.7c-0.9,0.9-3.5-0.8-3.3-3c0.1-1.2,0.3-2.3,0.4-3.5
		c0.6-9.4,0.9-18.8,1.8-28.1c0.9-9.4,2.4-18.8,3.8-28.2c1-7.1,1.2-14.2,0.9-21.3c-0.1-2.8-1.5-5.2-4.1-6.1c-2.6-0.9-4.8,0.5-6.3,2.3
		c-1.1,1.4-2,2.8-2.7,4.4c-0.8,1.8-1.3,3.2-2,5.9c-0.6,2.3-0.6,4.6-0.3,6.7c1.1,8,2.5,15.9,3.2,24c0.8,8.7,1,17.5,1.5,26.3
		c0.3,5.6,0.9,11.1,1.3,16.7c0.1,0.9,0.1,2.2-1.4,2.8c-1.5,0.6-1.9-0.8-2-2.6c-0.5-6-1-12.1-1.4-18.1c-0.6-8.9-0.7-17.8-1.6-26.6
		c-1.1-10.6-2.2-21.1-5-31.4c-0.7-2.5-2.6-4.3-5.6-4.8c-2.8-0.6-5.6,0-7,2.5c-1.4,2.5-3.6,5.8-3.5,8.8c0.1,2,1,8.2,1.4,9.6
		c3.1,11.1,6.3,22.2,9.6,33.2c1.9,6.4,4.2,12.6,6.2,18.9c0.7,2.3,1,4.8,1.2,7.3c0.1,1.4,0.8,3-0.5,4.5c-1.4,1.5-2.1-1.5-3.5-2.4
		c-3.9,1-8.1,1.8-11.1,5.2c-2,2.3-1.1,5,1.9,5.6c2.6,0.5,5.2,1,7.8,1c6.8,0.1,13.5,0.4,20.2,0c6.8-0.4,22.3-2,25.4-2.9
		c3-1,4-5.8,1.3-8.9c-1.3-1.4-3.1-2.6-4.9-3.3c-1.8-0.7-3.9-0.8-5.9-1.2c-2.2,3-4.1,8.8-6.2,8.9c-2.1,0.1-1.2-1.9-0.7-3
		c1.1-2.7,2.5-5.4,3.3-8.2c3.1-11,6.1-22,8.8-33c2.5-10.4,3.9-21,5.6-31.5c0.7-4.5,0.6-7.3-1.4-11.1c-0.5-1-3-2.9-4-3.5
		c-2.1-1.4-3.3-1.1-5.4,0.5c-4.8,3.5-7.5,6.7-8.9,13.8c0,0.2-0.1,0.5-0.1,0.7c-0.3,4.3-0.5,8.7-1,13c-0.9,8.2-2.1,16.5-3,24.7
		c-0.8,7.5-1.4,15.1-2,22.7C80.6,166.2,81.2,173.8,80.3,174.7z M72.5,36.9c-2.4,0.3-6.7,0.9-9.9,1c-4.4,0.2-8.2,1.8-11.3,4.6
		c-2.1,1.9-4.4,4-4.4,7.6c15.5-1.4,30.8-2.7,46.3-4c0.3-1.1,0.7-2.3,0.9-3.4c1.1-5.3-1.4-9.3-6.6-10.6c-1.3-0.3-2.7-0.2-4.1-0.2
		c-1.5,0-3.1,0.1-4.6,0.1c-1.7,0-3.5-2.5-1.7-2.7c1.8-0.3,3.6-0.7,5.5-0.8c2-0.1,4,0.2,6.1,0.3c1.4-1.6,1.6-3.4,0.6-5.5
		c-2.2-4.8-6.3-7-11.8-6.2c-1.6,0.2-3.3,0.1-5,0.1c-1.7,0-3.9-2.7-2.5-2.8c1.4-0.1,5.3-0.5,8-0.7c0.2-2.1,0.3-3.7,0.5-6
		c-2.6,3.2-5.9,3.5-8.9,4.4c-2.9,1-6,1.7-8.7,3c-4.2,2-5.6,5.5-4.5,9.5c6.6-1.6,13.2-3.3,20.2-5c0.1,1.3,0.1,2.3,0.2,3.5
		c-3.4,0.8-6.5,1.5-9.6,2.1c-3.8,0.7-7.4,1.7-10.3,4.3c-2.2,1.9-3.8,4.1-3.8,6.9c3.3-0.5,6.4-1.1,9.5-1.5c2-0.3,4-0.3,5.9-0.7
		C70.8,33.6,74.9,36.6,72.5,36.9z M40.9,54.2c-1.2,0.2,1,8.7,1.5,12.6c0.2,1.2,1,1.9,2.2,1.8c2.1-0.2,4.2-0.5,6.4-0.7
		c9.2-0.8,18.4-1.6,27.6-2.4c0.6,0,1.2-0.2,1.8-0.2c7.1-0.8,14.1-1.7,21.2-2.4c2.1-0.2,4.2-0.3,6.5-0.5c-0.3-4.8,0.9-9.3-0.4-13.9
		C85.5,50.5,63.5,52.3,40.9,54.2 M87.5,90.5c2-2.3,3.8-4.6,6-6.6c2.6-2.3,5.2-2.4,8.2-0.6c1.7,1,3.2,2.3,5.3,3.8
		c0.3-7.3,0.6-14.2,1-21.3c-21.8,2.2-43.1,4.4-64.5,6.6c0.2,0.9,0.4,1.6,0.7,2.5c1.9-0.3,3.5-0.6,5.1-0.7c7.1-0.5,14.2-1,21.3-1.4
		c9.4-0.5,18.9-1,28.3-1.4c2-0.1,3.9-0.8,5.9,0.1c1,0.5,2.1,0.6,2,2c-0.2,1.4-1.4,1.5-2.5,1.5c-2.1,0-4.3-0.1-6.4,0
		c-9.2,0.4-18.5,0.9-27.7,1.4c-8.5,0.5-17,1.1-25.8,1.7c0.6,5.3,1.1,10.3,1.7,16c0.8-1.5,1.2-2.5,1.7-3.4c1.4-2.4,3.4-4.2,6.2-4
		c4.1,0.3,8,1.4,10.6,4.9c0.5,0.6,1,1.2,1.6,1.9c0.5-1.5,0.9-2.6,1.3-3.7c1-3.1,3.1-5.3,5.6-7.2c2.8-2,5.6-2.2,8.7-0.5
		C85.3,84,86.9,86.9,87.5,90.5 M103.2,45.1c3.8-9.2,6.5-18.9,10.7-27.9c0.9-1.9,0.3-1.9-1.7-2.6s-8,20.5-11.7,31.3
		C100.4,45.7,102.9,45.6,103.2,45.1z"/>
	<path class="st3" d="M80.3,174.7c-0.9,0.9-3.5-0.8-3.3-3c0.1-1.2,0.3-2.3,0.4-3.5c0.6-9.4,0.9-18.8,1.8-28.1
		c0.9-9.4,2.4-18.8,3.8-28.2c1-7.1,1.2-14.2,0.9-21.3c-0.1-2.8-1.5-5.2-4.1-6.1c-2.6-0.9-4.8,0.5-6.3,2.3c-1.1,1.4-2,2.8-2.7,4.4
		c-0.8,1.8-1.3,3.2-2,5.9c-0.6,2.3-0.6,4.6-0.3,6.7c1.1,8,2.5,15.9,3.2,24c0.8,8.7,1,17.5,1.5,26.3c0.3,5.6,0.9,11.1,1.3,16.7
		c0.1,0.9,0.1,2.2-1.4,2.8c-1.5,0.6-1.9-0.8-2-2.6c-0.5-6-1-12.1-1.4-18.1c-0.6-8.9-0.7-17.8-1.6-26.6c-1.1-10.6-2.2-21.1-5-31.4
		c-0.7-2.5-2.6-4.3-5.6-4.8c-2.8-0.6-5.6,0-7,2.5c-1.4,2.5-3.6,5.8-3.5,8.8c0.1,2,1,8.2,1.4,9.6c3.1,11.1,6.3,22.2,9.6,33.2
		c1.9,6.4,4.2,12.6,6.2,18.9c0.7,2.3,1,4.8,1.2,7.3c0.1,1.4,0.8,3-0.5,4.5c-1.4,1.5-2.1-1.5-3.5-2.4c-3.9,1-8.1,1.8-11.1,5.2
		c-2,2.3-1.1,5,1.9,5.6c2.6,0.5,5.2,1,7.8,1c6.8,0.1,13.5,0.4,20.2,0c6.8-0.4,22.3-2,25.4-2.9c3-1,4-5.8,1.3-8.9
		c-1.3-1.4-3.1-2.6-4.9-3.3c-1.8-0.7-3.9-0.8-5.9-1.2c-2.2,3-4.1,8.8-6.2,8.9c-2.1,0.1-1.2-1.9-0.7-3c1.1-2.7,2.5-5.4,3.3-8.2
		c3.1-11,6.1-22,8.8-33c2.5-10.4,3.9-21,5.6-31.5c0.7-4.5,0.6-7.3-1.4-11.1c-0.5-1-3-2.9-4-3.5c-2.1-1.4-3.3-1.1-5.4,0.5
		c-4.8,3.5-7.5,6.7-8.9,13.8c0,0.2-0.1,0.5-0.1,0.7c-0.3,4.3-0.5,8.7-1,13c-0.9,8.2-2.1,16.5-3,24.7c-0.8,7.5-1.4,15.1-2,22.7
		C80.6,166.2,81.2,173.8,80.3,174.7z"/>
	<path class="st3" d="M87.5,90.5c2-2.3,3.8-4.6,6-6.6c2.6-2.3,5.2-2.4,8.2-0.6c1.7,1,3.2,2.3,5.3,3.8c0.3-7.3,0.6-14.2,1-21.3
		c-21.8,2.2-43.1,4.4-64.5,6.6c0.2,0.9,0.4,1.6,0.7,2.5c1.9-0.3,3.5-0.6,5.1-0.7c7.1-0.5,14.2-1,21.3-1.4c9.4-0.5,18.9-1,28.3-1.4
		c2-0.1,3.9-0.8,5.9,0.1c1,0.5,2.1,0.6,2,2c-0.2,1.4-1.4,1.5-2.5,1.5c-2.1,0-4.3-0.1-6.4,0c-9.2,0.4-18.5,0.9-27.7,1.4
		c-8.5,0.5-17,1.1-25.8,1.7c0.6,5.3,1.1,10.3,1.7,16c0.8-1.5,1.2-2.5,1.7-3.4c1.4-2.4,3.4-4.2,6.2-4c4.1,0.3,8,1.4,10.6,4.9
		c0.5,0.6,1,1.2,1.6,1.9c0.5-1.5,0.9-2.6,1.3-3.7c1-3.1,3.1-5.3,5.6-7.2c2.8-2,5.6-2.2,8.7-0.5C85.3,84,86.9,86.9,87.5,90.5"/>
	<path class="st2" d="M103.2,45.1c3.8-9.2,6.5-18.9,10.7-27.9c0.9-1.9,0.3-1.9-1.7-2.6s-8,20.5-11.7,31.3
		C100.4,45.7,102.9,45.6,103.2,45.1z"/>
</g>
</svg>
