<?xml version="1.0" encoding="utf-8"?>
<!-- Generator: Adobe Illustrator 19.1.0, SVG Export Plug-In . SVG Version: 6.00 Build 0)  -->
<svg version="1.1" id="Calque_1" xmlns="http://www.w3.org/2000/svg" xmlns:xlink="http://www.w3.org/1999/xlink" x="0px" y="0px"
	 viewBox="241 379 1081.1 324" style="enable-background:new 241 379 1081.1 324;" xml:space="preserve">
<style type="text/css">
	.st0{fill:#EB5C5F;}
	.st1{fill:none;}
	.st2{enable-background:new    ;}
	.st3{fill:#84B974;}
</style>
<g>
	<path class="st0" d="M884.2,572.1c-3.4,4-9.9,4.1-14.9,0.2c-5.6,5.9-17.6,2.5-17.6-2.7c0-5.2-1.4-4.7-3.1-3.4
		c-1.2,1.6-4,4.8-4.9,6.5c-3.7,6.7-5.7,13.8-5.9,21.4c-0.1,5,1.4,9.1,6.1,11.9c6.3,3.8,13.2,4.8,20.1,4.5c7.8-0.3,15.6-1.2,23.2-2.6
		c5.7-1.1,11.2-3.4,16.6-5.4c3.2-1.2,4.7-3.8,4.6-7.3c-0.2-7-1.8-13.5-5.1-19.7c-1.2-2.2-2.4-4.4-3.5-6.4
		C895.5,574.5,890,572.9,884.2,572.1z"/>
	<path class="st0" d="M820,580.9c1.2,4,8.3-0.2,10.9-2.8c3.8-3.7,13-12.1,11.5-14C840.9,562.2,818.8,576.9,820,580.9z"/>
	<path class="st0" d="M924,578.4c2.1-3.2-7.2-11.9-13.4-14c-1.8-0.6-3.1-0.4-3.6,2.1C912,570.9,922,581.5,924,578.4z"/>
	<path class="st0" d="M906.2,646.7c-1.7,1.5-3.1,1.3-3.3,2.9c-0.1,1.8,0.8,5.4,0.8,6.7c0,0.7,2.4-0.3,3.7-0.3
		S906.5,649.8,906.2,646.7z"/>
	<path class="st0" d="M894.8,651.7c0,0.5-0.8,4.4,0,5.6c0.8,1.2,4.5,0.2,4.8-0.5c0.3-0.7,0.5-5-0.5-5.5S894.8,651.2,894.8,651.7z"/>
	<path class="st0" d="M860.5,656.8c0.4,0.7,4.6,0.8,4.6-1.3c0.1-1.4,0.1-3-0.5-3.2c-1.2-0.5-2.6-0.4-4-0.5
		C860.6,653.4,860.1,656.1,860.5,656.8z"/>
	<path class="st0" d="M874.1,649.3c-0.4-0.7-3.3,0.3-3.9,1.3c-0.7,1.2-0.5,3.9,0.1,4.5c1.2,1.1,2.8,1.1,3.4,0.3
		C874.4,654.7,874.5,650,874.1,649.3z"/>
	<g>
		<rect x="526.3" y="675.6" class="st1" width="140.1" height="26.4"/>
		<g class="st2">
			<path class="st3" d="M555.1,696h-1.2c-0.6,0-1-0.3-1.2-0.9l-5.1-13.6v13.3c0,0.4-0.1,0.7-0.3,0.9c-0.2,0.2-0.5,0.3-0.9,0.3h-2.3
				c-0.4,0-0.7-0.1-0.9-0.3c-0.2-0.2-0.3-0.5-0.3-0.9v-17.9c0-0.4,0.1-0.7,0.3-0.9c0.2-0.2,0.5-0.3,0.9-0.3h5c0.7,0,1.1,0.3,1.2,0.9
				l4.2,11.2l4.3-11.2c0.2-0.6,0.6-0.9,1.2-0.9h4.9c0.4,0,0.7,0.1,0.9,0.3c0.2,0.2,0.3,0.5,0.3,0.9v17.9c0,0.4-0.1,0.7-0.3,0.9
				c-0.2,0.2-0.5,0.3-0.9,0.3h-2.3c-0.4,0-0.7-0.1-0.9-0.3c-0.2-0.2-0.3-0.5-0.3-0.9v-13.3l-5.1,13.6
				C556.1,695.7,555.7,696,555.1,696z"/>
			<path class="st3" d="M584.5,686.1v1.6c0,2.7-0.7,4.8-2.1,6.2c-1.4,1.4-3.4,2.1-6.1,2.1c-2.8,0-4.9-0.7-6.2-2.1
				c-1.3-1.4-2-3.5-2-6.3v-1.6c0-2.7,0.7-4.8,2-6.2c1.3-1.4,3.4-2.1,6.2-2.1c2.8,0,4.8,0.7,6.2,2.1
				C583.8,681.3,584.5,683.4,584.5,686.1z M579.5,687.5v-1.1c0-1-0.1-1.9-0.4-2.5c-0.2-0.6-0.6-1-1-1.3c-0.5-0.2-1.1-0.4-1.8-0.4
				c-1.1,0-1.9,0.3-2.4,0.9c-0.5,0.6-0.7,1.7-0.7,3.2v1.1c0,1.5,0.2,2.6,0.7,3.2s1.3,0.9,2.4,0.9c0.8,0,1.4-0.1,1.8-0.3
				c0.5-0.2,0.8-0.6,1-1.2C579.3,689.4,579.5,688.5,579.5,687.5z"/>
			<path class="st3" d="M597.1,689c0,2.5-0.4,4.3-1.2,5.4c-0.8,1.1-2.1,1.7-4,1.7c-2,0-3.4-0.5-4.3-1.6c-0.9-1.1-1.4-2.8-1.4-5.2
				v-10c0-0.4,0.1-0.7,0.3-0.9c0.2-0.2,0.5-0.3,0.9-0.3h2.5c0.4,0,0.7,0.1,0.9,0.3c0.2,0.2,0.3,0.5,0.3,0.9v9c0,1,0.2,1.8,0.6,2.3
				c0.4,0.5,1.1,0.7,2,0.7c0.5,0,0.9,0,1.2-0.1c0.3-0.1,0.7-0.3,1-0.5c0.3-0.2,0.5-0.6,0.7-1.1c0.2-0.5,0.2-1.1,0.2-1.8v-8.5
				c0-0.4,0.1-0.7,0.3-0.9c0.2-0.2,0.5-0.3,0.9-0.3h2.5c0.4,0,0.7,0.1,0.9,0.3c0.2,0.2,0.3,0.5,0.3,0.9v15.5c0,0.4-0.1,0.7-0.3,0.9
				c-0.2,0.2-0.5,0.3-0.9,0.3h-2.5c-0.4,0-0.7-0.1-0.9-0.3c-0.2-0.2-0.3-0.5-0.3-0.9V689z"/>
			<path class="st3" d="M611,694.7c0,0.4-0.1,0.7-0.3,0.9c-0.2,0.2-0.5,0.3-0.9,0.3h-2.5c-0.4,0-0.7-0.1-0.9-0.3
				c-0.2-0.2-0.3-0.5-0.3-0.9v-12.7h-1.3c-0.7,0-1.1-0.4-1.1-1.1v-1.7c0-0.8,0.4-1.1,1.1-1.1h1.3v-0.7c0-0.4,0.1-0.7,0.3-0.9
				s0.5-0.3,0.9-0.3h2.5c0.4,0,0.7,0.1,0.9,0.3c0.2,0.2,0.3,0.5,0.3,0.9v0.7h2.2c0.8,0,1.1,0.4,1.1,1.2v1.5c0,0.4-0.1,0.7-0.3,0.9
				c-0.2,0.2-0.5,0.3-0.8,0.3H611V694.7z"/>
			<path class="st3" d="M631.6,686.1v1.6c0,2.7-0.7,4.8-2.1,6.2c-1.4,1.4-3.4,2.1-6.1,2.1c-2.8,0-4.9-0.7-6.2-2.1
				c-1.3-1.4-2-3.5-2-6.3v-1.6c0-2.7,0.7-4.8,2-6.2c1.3-1.4,3.4-2.1,6.2-2.1c2.8,0,4.8,0.7,6.2,2.1
				C630.9,681.3,631.6,683.4,631.6,686.1z M626.6,687.5v-1.1c0-1-0.1-1.9-0.4-2.5c-0.2-0.6-0.6-1-1-1.3c-0.5-0.2-1.1-0.4-1.8-0.4
				c-1.1,0-1.9,0.3-2.4,0.9c-0.5,0.6-0.7,1.7-0.7,3.2v1.1c0,1.5,0.2,2.6,0.7,3.2s1.3,0.9,2.4,0.9c0.8,0,1.4-0.1,1.8-0.3
				c0.5-0.2,0.8-0.6,1-1.2C626.4,689.4,626.6,688.5,626.6,687.5z"/>
			<path class="st3" d="M638.4,684.9c0-2.5,0.4-4.3,1.2-5.4c0.8-1.1,2.1-1.7,4-1.7c2,0,3.4,0.5,4.3,1.6c0.9,1.1,1.3,2.8,1.3,5.3v10
				c0,0.4-0.1,0.7-0.3,0.9c-0.2,0.2-0.5,0.3-0.9,0.3h-2.5c-0.4,0-0.7-0.1-0.9-0.3c-0.2-0.2-0.3-0.5-0.3-0.9v-9c0-1-0.2-1.8-0.6-2.3
				c-0.4-0.5-1.1-0.7-2-0.7c-0.5,0-0.9,0-1.2,0.1c-0.4,0.1-0.7,0.3-1,0.5c-0.3,0.2-0.5,0.6-0.7,1.1c-0.2,0.5-0.2,1.1-0.2,1.8v8.5
				c0,0.4-0.1,0.7-0.3,0.9c-0.2,0.2-0.5,0.3-0.9,0.3h-2.5c-0.4,0-0.7-0.1-0.9-0.3c-0.2-0.2-0.3-0.5-0.3-0.9v-15.5
				c0-0.4,0.1-0.7,0.3-0.9c0.2-0.2,0.5-0.3,0.9-0.3h2.5c0.4,0,0.7,0.1,0.9,0.3c0.2,0.2,0.3,0.5,0.3,0.9V684.9z"/>
		</g>
	</g>
	<g>
		<rect x="357.9" y="585" class="st1" width="104.9" height="26.4"/>
		<g class="st2">
			<path class="st3" d="M373.9,605.4h-7c-0.4,0-0.7-0.1-0.9-0.3c-0.2-0.2-0.3-0.5-0.3-0.9v-17.9c0-0.4,0.1-0.7,0.3-0.9
				c0.2-0.2,0.5-0.3,0.9-0.3h7.2c2.3,0,4,0.4,5,1.1c1,0.7,1.6,1.8,1.6,3.4v1c0,1.1-0.4,2-1,2.6c-0.7,0.7-1.8,1.1-3.3,1.2
				c1.9,0.1,3.3,0.5,4.2,1.3c0.9,0.8,1.3,1.9,1.3,3.2v1.3c0,1.7-0.6,3-1.9,3.9S376.7,605.4,373.9,605.4z M373.5,588.7h-2.8v4.4h2.8
				c0.8,0,1.3-0.1,1.7-0.4c0.3-0.3,0.5-0.8,0.5-1.6v-0.5c0-0.7-0.2-1.2-0.5-1.5C374.8,588.8,374.3,588.7,373.5,588.7z M373.9,596.4
				h-3.2v5.2h3.2c1,0,1.8-0.2,2.2-0.5c0.4-0.4,0.7-1,0.7-2v-0.4c0-0.9-0.2-1.5-0.7-1.8C375.7,596.6,374.9,596.4,373.9,596.4z"/>
			<path class="st3" d="M388.5,588.6v5.7c0-2.4,0.4-4.2,1.2-5.4s2.1-1.7,3.9-1.7c0.3,0,0.6,0.1,0.8,0.3c0.2,0.2,0.2,0.5,0.2,1v3
				c0,1-0.5,1.5-1.6,1.4c-0.5-0.1-1-0.1-1.6,0c-0.5,0.1-1,0.2-1.4,0.4c-0.4,0.2-0.8,0.4-1.1,0.8c-0.3,0.4-0.4,0.9-0.4,1.4v8.6
				c0,0.4-0.1,0.7-0.3,0.9c-0.2,0.2-0.5,0.3-0.9,0.3h-2.5c-0.4,0-0.7-0.1-0.9-0.3c-0.2-0.2-0.3-0.5-0.3-0.9v-15.5
				c0-0.4,0.1-0.7,0.3-0.9c0.2-0.2,0.5-0.3,0.9-0.3h2.5c0.4,0,0.7,0.1,0.9,0.3C388.4,587.9,388.5,588.2,388.5,588.6z"/>
			<path class="st3" d="M411.8,601.2c-0.4,1.4-1.2,2.4-2.6,3.2c-1.4,0.8-3.2,1.1-5.3,1.1c-2.8,0-4.9-0.7-6.2-2.1
				c-1.3-1.4-2-3.5-2-6.3v-1.6c0-2.8,0.7-4.8,2-6.2c1.4-1.4,3.4-2.1,6.2-2.1c2.7,0,4.7,0.6,6.1,1.8c1.4,1.2,2.1,2.9,2.1,5.1v1.8
				c0,0.4-0.1,0.7-0.3,0.9c-0.2,0.2-0.5,0.3-0.8,0.3h-10.3c0,1.6,0.3,2.7,0.8,3.3c0.5,0.6,1.3,0.9,2.4,0.9c0.8,0,1.5-0.1,2-0.3
				c0.5-0.2,0.8-0.5,1-0.9c0-0.1,0.1-0.3,0.2-0.5c0.1-0.4,0.2-0.7,0.4-0.9c0.2-0.2,0.5-0.3,1-0.3h2.4c0.8,0,1.2,0.4,1.2,1.3
				C412,600.3,411.9,600.7,411.8,601.2z M403.9,591.4c-1,0-1.8,0.2-2.3,0.7s-0.8,1.2-1,2.4h6.3v-0.1c0-1.1-0.2-1.9-0.7-2.3
				S405,591.4,403.9,591.4z"/>
			<path class="st3" d="M418.9,593.2c0-2,0.4-3.4,1.2-4.5c0.8-1,2.1-1.5,4-1.5c2.2,0,3.8,0.6,4.7,1.9c1,1.3,1.4,3.3,1.4,6v2.4
				c0,2.8-0.5,4.8-1.4,6.1c-0.9,1.3-2.5,1.9-4.7,1.9c-1.9,0-3.2-0.5-4-1.5c-0.8-1-1.2-2.5-1.2-4.5v4.6c0,0.4-0.1,0.7-0.3,0.9
				c-0.2,0.2-0.5,0.3-0.9,0.3h-2.5c-0.4,0-0.7-0.1-0.9-0.3c-0.2-0.2-0.3-0.5-0.3-0.9v-17.9c0-0.4,0.1-0.7,0.3-0.9
				c0.2-0.2,0.5-0.3,0.9-0.3h2.5c0.4,0,0.7,0.1,0.9,0.3c0.2,0.2,0.3,0.5,0.3,0.9V593.2z M425.3,596c0-1.2-0.1-2.2-0.4-2.9
				c-0.2-0.7-0.6-1.2-1-1.4c-0.5-0.3-1.1-0.4-1.8-0.4c-0.5,0-0.9,0-1.2,0.1c-0.4,0.1-0.7,0.2-1,0.4c-0.3,0.2-0.5,0.5-0.7,0.9
				c-0.2,0.4-0.2,0.9-0.2,1.5v4.2c0,0.6,0.1,1.1,0.2,1.5c0.2,0.4,0.4,0.7,0.7,0.9c0.3,0.2,0.6,0.4,1,0.4c0.3,0.1,0.8,0.1,1.2,0.1
				c0.8,0,1.4-0.1,1.8-0.4c0.5-0.3,0.8-0.8,1-1.5c0.2-0.7,0.3-1.7,0.3-2.9V596z"/>
			<path class="st3" d="M436.4,586.6h-3.1c-0.6,0-0.9-0.3-0.9-0.9v0c0-0.6,0.3-0.9,0.9-0.9h3.1c0.6,0,0.9,0.3,0.9,0.9v0
				C437.3,586.2,437,586.6,436.4,586.6z M436,605.4h-2.5c-0.4,0-0.7-0.1-0.9-0.3c-0.2-0.2-0.3-0.5-0.3-0.9v-15.5
				c0-0.4,0.1-0.7,0.3-0.9c0.2-0.2,0.5-0.3,0.9-0.3h2.5c0.4,0,0.7,0.1,0.9,0.3c0.2,0.2,0.3,0.5,0.3,0.9v15.5c0,0.4-0.1,0.7-0.3,0.9
				C436.7,605.2,436.4,605.4,436,605.4z"/>
			<path class="st3" d="M439.2,601.2c0-0.2-0.1-0.5-0.1-1c0-0.4,0.1-0.7,0.3-0.9c0.2-0.2,0.6-0.3,1-0.3h2.1c0.4,0,0.7,0.1,0.8,0.2
				c0.2,0.1,0.3,0.3,0.4,0.6c0.1,0.4,0.3,0.7,0.3,0.8c0.2,0.4,0.6,0.8,1,1c0.4,0.2,1,0.3,1.8,0.3c0.9,0,1.7-0.1,2.2-0.4
				c0.5-0.3,0.8-0.7,0.8-1.2v-0.1c0-0.5-0.1-0.8-0.3-1.1c-0.2-0.2-0.6-0.4-1.1-0.6c-0.6-0.2-1.4-0.3-2.7-0.4
				c-0.7-0.1-1.3-0.2-1.8-0.2c-0.5-0.1-1-0.2-1.5-0.3c-0.5-0.1-0.9-0.3-1.3-0.5c-0.3-0.2-0.7-0.4-0.9-0.6c-0.3-0.3-0.5-0.5-0.7-0.9
				c-0.2-0.3-0.3-0.7-0.4-1.2c-0.1-0.4-0.1-0.9-0.1-1.5v-0.1c0-1.8,0.6-3.2,1.9-4.1c1.3-0.9,3.3-1.4,5.9-1.4c2,0,3.7,0.3,5,0.9
				c1.3,0.6,2.1,1.5,2.5,2.8c0.1,0.5,0.2,1,0.2,1.4c0,0.3-0.1,0.6-0.3,0.9c-0.2,0.2-0.5,0.4-0.8,0.4h-2.3c-0.4,0-0.7-0.1-0.9-0.2
				c-0.2-0.1-0.3-0.3-0.4-0.6l-0.4-0.7c-0.5-0.7-1.4-1.1-2.8-1.1c-1.1,0-1.8,0.1-2.3,0.4c-0.5,0.3-0.7,0.7-0.7,1.3v0.1
				c0,0.4,0.1,0.7,0.3,0.9s0.6,0.4,1.2,0.5c0.6,0.1,1.5,0.3,2.7,0.3c1.3,0.1,2.3,0.3,3.2,0.5c0.8,0.2,1.5,0.5,2.1,1
				c0.6,0.4,0.9,1,1.2,1.6c0.2,0.7,0.3,1.5,0.3,2.5v0.1c0,1.8-0.6,3.1-1.9,4s-3.2,1.2-5.9,1.2c-2.3,0-4-0.3-5.3-1
				C440.3,603.8,439.5,602.7,439.2,601.2z"/>
		</g>
	</g>
	<g>
		<rect x="786.9" y="675.6" class="st1" width="182.4" height="26.4"/>
		<g class="st2">
			<path class="st0" d="M829.4,694.9c-0.1,0.3-0.2,0.6-0.4,0.8s-0.5,0.3-0.8,0.3h-2.3c-0.4,0-0.7-0.1-0.9-0.4
				c-0.2-0.3-0.3-0.6-0.2-1l4.7-18c0.1-0.3,0.2-0.6,0.4-0.7c0.2-0.2,0.5-0.3,0.8-0.3h5.3c0.3,0,0.6,0.1,0.8,0.3
				c0.2,0.2,0.4,0.4,0.4,0.7l4.7,18c0.1,0.4,0,0.7-0.2,1c-0.2,0.3-0.5,0.4-0.9,0.4h-2.3c-0.3,0-0.6-0.1-0.8-0.3s-0.4-0.4-0.4-0.8
				l-0.8-3.1h-6.3L829.4,694.9z M835.6,688.3l-2.3-9.4l-2.3,9.4H835.6z"/>
			<path class="st0" d="M854.5,683.2v-4c0-0.4,0.1-0.7,0.3-0.9c0.2-0.2,0.5-0.3,0.9-0.3h2.5c0.4,0,0.7,0.1,0.9,0.3
				c0.2,0.2,0.3,0.5,0.3,0.9v13.5c0,1.6-0.6,2.7-1.9,3.5c-1.3,0.8-3.3,1.1-6.2,1.1c-4.4,0-6.9-0.8-7.6-2.5c-0.1-0.3-0.2-0.7-0.2-1
				c0-0.7,0.4-1,1.1-1h2.3c0.4,0,0.6,0.1,0.8,0.2c0.2,0.1,0.3,0.3,0.5,0.6c0.1,0.2,0.2,0.4,0.4,0.5c0.2,0.2,0.5,0.4,1,0.5
				c0.4,0.1,1,0.1,1.7,0.1c1.1,0,1.9-0.2,2.4-0.5s0.7-0.9,0.7-1.8v-5.5c0,1.8-0.4,3.2-1.2,4.1c-0.8,0.9-2.1,1.4-4,1.4
				c-2.2,0-3.8-0.6-4.8-1.7c-1-1.1-1.4-2.9-1.4-5.4v-0.7c0-2.4,0.5-4.2,1.5-5.3s2.6-1.7,4.7-1.7c1.8,0,3.2,0.5,4,1.4
				C854.1,680.1,854.5,681.5,854.5,683.2z M848.1,685v0.3c0,1.4,0.3,2.3,0.8,2.9c0.5,0.5,1.3,0.8,2.5,0.8c2.1,0,3.2-0.9,3.2-2.6
				v-2.5c0-1.7-1.1-2.5-3.2-2.5c-1.1,0-1.9,0.3-2.4,0.8S848.1,683.7,848.1,685z"/>
			<path class="st0" d="M866.5,684.9c0-2.5,0.4-4.3,1.2-5.4c0.8-1.1,2.1-1.7,4-1.7c2,0,3.4,0.5,4.3,1.6c0.9,1.1,1.3,2.8,1.3,5.3v10
				c0,0.4-0.1,0.7-0.3,0.9c-0.2,0.2-0.5,0.3-0.9,0.3h-2.5c-0.4,0-0.7-0.1-0.9-0.3c-0.2-0.2-0.3-0.5-0.3-0.9v-9c0-1-0.2-1.8-0.6-2.3
				c-0.4-0.5-1.1-0.7-2-0.7c-0.5,0-0.9,0-1.2,0.1c-0.4,0.1-0.7,0.3-1,0.5s-0.5,0.6-0.7,1.1c-0.2,0.5-0.2,1.1-0.2,1.8v8.5
				c0,0.4-0.1,0.7-0.3,0.9c-0.2,0.2-0.5,0.3-0.9,0.3h-2.5c-0.4,0-0.7-0.1-0.9-0.3c-0.2-0.2-0.3-0.5-0.3-0.9v-15.5
				c0-0.4,0.1-0.7,0.3-0.9c0.2-0.2,0.5-0.3,0.9-0.3h2.5c0.4,0,0.7,0.1,0.9,0.3c0.2,0.2,0.3,0.5,0.3,0.9V684.9z"/>
			<path class="st0" d="M895.3,691.8c-0.4,1.4-1.2,2.4-2.6,3.2c-1.4,0.8-3.2,1.1-5.3,1.1c-2.8,0-4.9-0.7-6.2-2.1
				c-1.3-1.4-2-3.5-2-6.3v-1.6c0-2.8,0.7-4.8,2-6.2c1.4-1.4,3.4-2.1,6.2-2.1c2.7,0,4.7,0.6,6.1,1.8c1.4,1.2,2.1,2.9,2.1,5.1v1.8
				c0,0.4-0.1,0.7-0.3,0.9c-0.2,0.2-0.5,0.3-0.8,0.3h-10.3c0,1.6,0.3,2.7,0.8,3.3c0.5,0.6,1.3,0.9,2.4,0.9c0.8,0,1.5-0.1,2-0.3
				c0.5-0.2,0.8-0.5,1-0.9c0-0.1,0.1-0.3,0.2-0.5c0.1-0.4,0.2-0.7,0.4-0.9c0.2-0.2,0.5-0.3,1-0.3h2.4c0.8,0,1.2,0.4,1.2,1.3
				C895.4,690.9,895.4,691.3,895.3,691.8z M887.4,681.9c-1,0-1.8,0.2-2.3,0.7s-0.8,1.2-1,2.4h6.3v-0.1c0-1.1-0.2-1.9-0.7-2.3
				S888.5,681.9,887.4,681.9z"/>
			<path class="st0" d="M907.7,691.9c0,1.3-0.4,2.4-1.3,3.1c-0.8,0.7-2.2,1.1-4.1,1.1c-1.8,0-3.2-0.4-4.1-1.2s-1.4-2-1.4-3.5v-0.3
				c0-0.7,0.1-1.4,0.3-1.9c0.2-0.6,0.5-1,0.8-1.4s0.7-0.7,1.2-1c0.5-0.3,1-0.5,1.5-0.7c0.5-0.2,1.1-0.3,1.7-0.4
				c0.7-0.1,1.3-0.2,1.8-0.3c0.5-0.1,1.1-0.1,1.8-0.2c0.7-0.1,1.2-0.2,1.7-0.2v-0.5c0-1-0.2-1.6-0.6-1.9c-0.4-0.3-1.1-0.5-2.1-0.5
				c-0.7,0-1.2,0.1-1.5,0.2c-0.3,0.1-0.6,0.4-0.7,0.6c-0.1,0.1-0.2,0.3-0.3,0.5c-0.1,0.5-0.5,0.8-1.2,0.8h-2.6
				c-0.8,0-1.2-0.4-1.2-1.2c0-0.3,0-0.5,0.1-0.7c0.2-1.4,0.9-2.5,2.1-3.3s2.9-1.2,5.1-1.2c2.8,0,4.8,0.5,6,1.5c1.2,1,1.9,2.7,1.9,5
				v10.3c0,0.4-0.1,0.7-0.3,0.9c-0.2,0.2-0.5,0.3-0.9,0.3H909c-0.4,0-0.7-0.1-0.9-0.3c-0.2-0.2-0.3-0.5-0.3-0.9V691.9z M904.2,693
				c0.5,0,1,0,1.4-0.1s0.7-0.1,1.1-0.3c0.3-0.1,0.6-0.3,0.8-0.5c0.2-0.2,0.3-0.5,0.3-0.9V688c-0.1,0-0.3,0.1-0.6,0.1
				c-0.8,0.1-1.3,0.2-1.7,0.3c-0.3,0.1-0.8,0.1-1.3,0.3c-0.5,0.1-0.8,0.2-1,0.3c-0.2,0.1-0.4,0.3-0.7,0.4c-0.2,0.2-0.4,0.4-0.5,0.6
				c-0.1,0.2-0.1,0.5-0.1,0.8v0.2C901.9,692.3,902.7,693,904.2,693z"/>
			<path class="st0" d="M925.4,689c0,2.5-0.4,4.3-1.2,5.4c-0.8,1.1-2.1,1.7-4,1.7c-2,0-3.4-0.5-4.3-1.6c-0.9-1.1-1.4-2.8-1.4-5.2
				v-10c0-0.4,0.1-0.7,0.3-0.9c0.2-0.2,0.5-0.3,0.9-0.3h2.5c0.4,0,0.7,0.1,0.9,0.3c0.2,0.2,0.3,0.5,0.3,0.9v9c0,1,0.2,1.8,0.6,2.3
				c0.4,0.5,1.1,0.7,2,0.7c0.5,0,0.9,0,1.2-0.1c0.3-0.1,0.7-0.3,1-0.5s0.5-0.6,0.7-1.1c0.2-0.5,0.2-1.1,0.2-1.8v-8.5
				c0-0.4,0.1-0.7,0.3-0.9c0.2-0.2,0.5-0.3,0.9-0.3h2.5c0.4,0,0.7,0.1,0.9,0.3c0.2,0.2,0.3,0.5,0.3,0.9v15.5c0,0.4-0.1,0.7-0.3,0.9
				c-0.2,0.2-0.5,0.3-0.9,0.3h-2.5c-0.4,0-0.7-0.1-0.9-0.3c-0.2-0.2-0.3-0.5-0.3-0.9V689z"/>
		</g>
	</g>
	<g>
		<path d="M839.5,558.9c-0.9-5.5,0.4-9.9,5-13c2.7-1.8,5.6-2,8.7-2.3c2.7-0.3,5.1-3.4,7.9-4c4.9-1.1,9.2,1.2,12.9,4.4
			c5.9-8,11.7-7.2,19.9,2.8c3.8-1.6,7.8-1.3,11.3,1.2c3.6,2.5,4.3,6.7,4.8,10c3.7,2.2,6,4.2,9.2,6.2c4.6,2.8,7.6,7.2,9,12.1
			c1,3.7-1.1,6.3-5.1,6.6c-3.6-0.1-9.4-3.3-14.2-7.6c1.3,4.5,2.6,10.2,4,15c3.9,1.4,8.5,2.2,10.1,7.1c1.5,4.6-0.7,8.2-3.1,11.9
			c3.1,3.1,5.3,6.6,6.3,10.9c2.7,11.7-2,15.2-11.2,17.6c-1.9,0.5-4,0.4-6.1,0.6c1,7.4,1.9,14.6,2.8,21.8c0.3,2.4-1.1,4.3-3.1,5.1
			c-2.5,1-5.2,1.5-7.8,2.1c-1.6,0.4-3.1,0.6-4.7,0.7c-4.8,0.3-6.4-1.2-5.8-6c0.4-3.1,0.7-6-0.1-8.6c-4,1.3-8.7,0.2-13-1.9
			c0,3.1-0.4,7.2-0.2,10.3c0.2,3.4,0,3-3,3.2c-4.6,0.3-11.8,0.1-13.7,0.1s-2.9-5.5-3.2-7.7c-0.3-2.1-0.8-4.4-0.8-6.5
			c-4.5-1.9-7.8-4.6-9-8.5c-4,0-7.6,0.2-11.1,0c-4.2-0.3-6.9-2.7-8.2-6.6c-1.4-4.1-2.3-8.1,0-12.3c0.6-1,0.5-2.9,0-4
			c-3.2-6.9,0.4-14.7,6.4-17.8c-1-7.9-0.4-15,2.2-22.5c-0.9,0.8-3.8,3.9-4.9,4.8c-2.9,2.4-6.4,3.3-10.1,2.9c-3.3-0.3-5-2.1-5-5.5
			c-0.1-2.7,0.9-5,2.6-7.2c5-6,11.4-10.1,18.1-14C837.9,559.8,838.5,559.5,839.5,558.9z M884.2,572.1c-3.4,4-9.9,4.1-14.9,0.2
			c-5.6,5.9-17.6,2.5-17.6-2.7c0-5.2-1.4-4.7-3.1-3.4c-1.2,1.6-4,4.8-4.9,6.5c-3.7,6.7-5.7,13.8-5.9,21.4c-0.1,5,1.4,9.1,6.1,11.9
			c6.3,3.8,13.2,4.8,20.1,4.5c7.8-0.3,15.6-1.2,23.2-2.6c5.7-1.1,11.2-3.4,16.6-5.4c3.2-1.2,4.7-3.8,4.6-7.3
			c-0.2-7-1.8-13.5-5.1-19.7c-1.2-2.2-2.4-4.4-3.5-6.4C895.5,574.5,890,572.9,884.2,572.1z M842.4,619.6c1.7,1.1-1.9,3.7-3.8,4.2
			c-1.9,0.5-6.7,1-7.4,3.2c-1.8,2.7-0.2,8.1,2.9,9c2.6,0.8,5.4,1.2,8.1,1.2c2.3,0,4.2-1.1,5.6-3.3c1.8-2.8,4.4-8.3,6.4-8
			c2,0.3-2.3,7.5-3.7,10.2c-1.3,2.7,2.2,7.3,6,8.9c4.7,2,9.5,1.9,14.2-0.2c3.2-1.4,3.6-2,3.2-5.6c-0.2-2.1-0.6-5.7,1.7-5.6
			c2.3,0.2,2.9,5.9,2.6,9c-0.2,2.7,0.9,3.9,2.8,4.3c7.4,1.4,14.6,1.3,21.1-3.2c3-2.1,2.7-5.2-0.4-7.4c-1.6-1.1-3.1-2.4-4.2-3.9
			c-1.2-1.6-1.7-4.7,0.2-4.8c1.9-0.1,4,3.1,6.2,3.8c5.7,1.8,11.3,1.2,16.5-1.8c1.1-0.6,2.3-2.1,2.4-3.2c0.3-3.4,0.4-8.7-2.6-10.9
			c-3.2-2.4-6.9-4.1-11.6-1.5c-0.4,0.2-3.3,0.5-4.3-0.5s0.4-2.4,1.1-2.9c1.4-1,4.9-2.3,6.6-2.5c5.6-0.6,8.7-5.8,7.7-9.2
			c-0.4-1.5-3.1-4.4-5.5-2.7c0.1,8.5-12.2,13.2-22,15.7s-23.9,4.2-36.5,2.8c-5.5-0.6-10.9-1.2-15.2-4.9c-1.9-1.6-1.5-3-4.7-2.9
			c-4.6,0.1-7.7,10.8-2.5,12.6C836.7,620.6,840.7,618.5,842.4,619.6z M869.1,562.6c0.8-1.5,2.1,7.7,7.5,7.5c5.3-0.2,6.5-8.5,7.8-8.2
			c1.3,0.3,1.3,5.4,3.1,6c1.9,0.7,8.6,0.6,9.1-1.1s0.1-6.6,1.1-7.1s1,0.8,1.5,1.1c1.9,1.2,5.2,1.1,6.1-0.7c0.7-1.3,0.6-3.5,0.1-4.9
			c-1.3-3.3-4.8-4.7-8.6-3.8c-3.9,0.9-4.1,0.8-6.4-2.3c-1.1-1.4-2.2-2.9-3.6-3.9c-4.2-3-9.3-0.6-9.9,4.6c-0.1,0.8-0.3,1.5-0.5,2.2
			c-2,0.7-2.3-0.7-3-1.9c-2.3-4.1-7.2-6.4-11.5-5.6c-3.6,0.7-4,1.1-4,5.1c0,0.6,0,1.3-0.1,1.9c-0.4,1.5-1.8,2-3,1
			c-0.6-0.5-1.2-1.2-1.4-2c-0.6-2.2-2-2.4-3.8-1.6c-1.5,0.7-3,1.4-4.3,2.3c-1.7,1.1-3.4,2.7-2.6,4.8c0.9,2.4,1,5.4,4.3,6.6
			c3.2,1.2,5.2-3.1,7.6-2.4s-0.2,5.9,0.7,8.1S863.4,573.7,869.1,562.6z M820,580.9c1.2,4,8.3-0.2,10.9-2.8c3.8-3.7,13-12.1,11.5-14
			C840.9,562.2,818.8,576.9,820,580.9z M924,578.4c2.1-3.2-7.2-11.9-13.4-14c-1.8-0.6-3.1-0.4-3.6,2.1
			C912,570.9,922,581.5,924,578.4z M906.2,646.7c-1.7,1.5-3.1,1.3-3.3,2.9c-0.1,1.8,0.8,5.4,0.8,6.7c0,0.7,2.4-0.3,3.7-0.3
			S906.5,649.8,906.2,646.7z M894.8,651.7c0,0.5-0.8,4.4,0,5.6c0.8,1.2,4.5,0.2,4.8-0.5c0.3-0.7,0.5-5-0.5-5.5
			S894.8,651.2,894.8,651.7z M860.5,656.8c0.4,0.7,4.6,0.8,4.6-1.3c0.1-1.4,0.1-3-0.5-3.2c-1.2-0.5-2.6-0.4-4-0.5
			C860.6,653.4,860.1,656.1,860.5,656.8z M874.1,649.3c-0.4-0.7-3.3,0.3-3.9,1.3c-0.7,1.2-0.5,3.9,0.1,4.5c1.2,1.1,2.8,1.1,3.4,0.3
			C874.4,654.7,874.5,650,874.1,649.3z M907.5,661.6c0.6-0.6,0.3-1.7-0.3-2.2c-0.7-0.5-3.3-0.3-3.6,0.2s-1.1,1.9-0.1,2.5
			C904.3,662.8,906.9,662.3,907.5,661.6z M874.3,661.4c0.4-0.5-0.1-1.9-0.7-1.9s-2.9,0-3.4,0.6c-0.4,0.6-0.5,1.4,0.4,1.8
			C871.5,662.4,873.9,661.8,874.3,661.4z M899.5,662.8c0.3-0.4,0.2-2-0.6-2.6c-0.8-0.6-3-0.6-3.5,0.2c-0.5,0.7-1.1,2.2,0.1,2.8
			C896.7,663.9,899.1,663.2,899.5,662.8z M861.6,659.7c-0.5-0.1-0.9,1.4,0.1,2.2c0.5,0.4,1.9,0.7,3.1,0.2c1.1-0.4,0.5-2.6-0.5-2.5
			C863.2,659.8,862.2,659.7,861.6,659.7z"/>
		<path d="M860.3,588.4c2-0.1,3.7,1.9,4,4.7c0.2,2.3-1.1,4.1-3,4.2c-1.9,0.1-3.9-1.9-4.1-4.1C857,591,858.5,588.6,860.3,588.4z"/>
		<path d="M885.3,593.3c0.1,1.9-2.3,4.4-4.2,4.5c-2.2,0.2-2.8-1.3-3-3c-0.3-2.1,2-5.4,3.8-5.5C883.5,589.2,885.2,591.2,885.3,593.3z
			"/>
	</g>
	<g>
		<g>
			<path d="M1143,407.6c11-0.9,46.2,0.7,52.8,1.1c6.5,0.4,13.2,0.6,19.5,2.2c8.5,2.2,16.4,6,21.9,13.3c1.9,2.5,3.5,5.4,4.6,8.4
				c4,11.6,10,56.7,10.7,67.2c1,15.4,1.9,30.9,2.7,46.4c0.3,6.2,0.1,12.5,0.6,18.7c1.9,24.5,1.9,49.1,1.7,73.6
				c-0.1,9.2-1.2,18.4-4.3,27.3c-2.2,6.3-7.1,10.2-11.5,14.4c-5.7,5.4-12.8,8.7-20.4,10.7c-10.9,2.8-21.7,3.6-32.9,4.3
				c-7.9,0.7-40.8,0.9-54.8-1c-10-1.4-48.5-8.9-59.6-15.4c-7.7-3.1-11.4-9.7-14.1-17.1c-3.2-8.8-4.4-17.9-5.6-27.1
				c-2.4-17.4-4.9-34.9-7.2-52.3c-1.1-8.1-1.7-16.3-2.3-24.4c-1.3-16.7-2.6-33.4-3.5-50.1c-0.5-9.7-0.1-19.5-0.1-29.3
				c0-3.9-0.4-7.7-0.4-11.6c0-3.4,0.2-6.7,0.5-10.1c0.4-4.8,0.6-9.6,1.4-14.3c2.6-15.1,14.1-28.7,30-32.8c7.4-1.9,14.6-2.7,22.1-2.1
				C1098.3,407.8,1138.2,407.9,1143,407.6z M1242.4,514.5c-0.6-12.8-1.8-25.5-2.7-38.3c-1-14.6-2.5-29.1-5.7-43.3
				c-1-4.4-2.4-8.9-6.3-11.4c-5.7-3.7-12-6.3-18.9-6.6c-13.8-0.7-27.7-1.5-41.5-1.9c-9.8-0.3-19.6,0-29.4-0.1
				c-4.4,0-8.8-0.5-13.2-0.5c-10.2,0-20.3,0.5-30.4,0c-6.7-0.3-12.8,0.6-19.3,2.3c-15.2,4-23.4,14.3-26.9,28.7
				c-1.7,6.8-2,14-2.2,21.1c-0.2,10.4,0.3,20.9,0.6,31.4c0.3,10.1,0.9,20.3,1.3,30.4c0.2,4.1,0.3,8.2,0.7,12.2
				c0.6,6.9,1.5,13.8,2.2,20.7c1,9,1.8,18,2.9,27c1.8,14.1,3.8,28.2,5.8,42.3c1.5,10.7,2.5,21.6,5.6,32c1.3,4.3,3.9,7.3,7.8,8.9
				c6.6,2.7,13.2,5.3,20.1,7c11.1,2.6,26.2,6.6,49.8,8.7c23.6,2.1,77.1-1.3,90.6-11.5c5.2-4,7.1-6.1,7.9-9.2
				c1.3-5,2.3-10.1,2.7-15.2c0.4-5.3,0.1-10.6,0.1-15.9c-0.1-14.6-0.2-29.2-0.4-43.8C1243.4,572.6,1242.8,522.7,1242.4,514.5z"/>
			<path d="M1235.1,558.8c0.6,15.7,1.7,31.3,2.1,47c0.4,13.2,0.1,26.4,0,39.6c0,2.8-0.3,5.7-0.8,8.5c-0.2,1.3-1,2.7-2,3.5
				c-25.8,16.2-82.9,16.2-95.6,14.6c-14.3-1.8-24.1-3.2-29.8-4.2c-10-1.7-19.7-4.7-29.1-8.8c-7.1-3.1-10.5-9.2-11.6-16.2
				c-3.2-21.1-6-42.3-8.8-63.4c-1.3-10.2-2.4-20.5-3.2-30.8c-0.7-8.9-0.8-17.8-1.4-26.7c-0.5-7.4-1.5-14.9-2.2-22.3
				c-0.6-6-1.3-12-1.8-18c-0.7-8.9-2-17.7-1-26.6c1.4-12.4,5.9-23.2,17.1-29.8c7.2-4.2,15.4-5.7,23.7-5c11.5-0.2,45.9,0,50.5,0.3
				c9.7,0.7,19.4,1.4,29.1,2.2c12.5,1.1,25.3,0.8,37.5,4.1c9.7,2.6,15.7,9.7,18.7,19c3.6,11.2,6.1,22.7,6.7,34.5
				C1233.7,491.8,1234.6,544.2,1235.1,558.8z M1114.5,656.5c-9.3-5.7-12.1-7.4-20.7-17.5c-9.7-11.5-13.7-25.5-15.4-40.4
				c-2-17.3-0.1-34.1,4.3-50.7c1.2-4.5,2.5-9,4.3-13.2c7.7-17.1,16-33.7,26.5-49.3c9-13.3,19.9-24.5,31.4-35.5c0.7-0.6,2-0.9,3-0.9
				c7.3,0,14.6,0.2,21.9,0.3c2.5,0,4.2,1.4,5.9,3.2c5.5,6,6.3,13.8,8.7,21c0.3,1-0.2,2.5-0.8,3.5c-1.9,3.8-3.8,7.7-6.2,11.2
				c-4.6,6.7-7,14.4-9.3,22.1c-1.3,4.4-2.8,9.2-2.2,13.6c2,14,7.9,24.6,18.6,34c8.1,7,15.5,19,18.6,25.9c3.2,6.8,3.5,9.8,3.8,15.5
				c6.6-0.5,16.4-1,23.6-1.5c0-2.8,0.1-5.7,0-8.5c-0.5-10.1-1.5-20.2-1.7-30.3c-0.5-22.6-0.8-45.3-1.1-67.9
				c-0.2-14.9-2.4-29.4-6.8-43.6c-1-3.2-2.6-6.4-4.6-8.9c-1.8-2.3-4.4-4.5-7-5.3c-5.4-1.7-11.1-2.7-16.7-3.3
				c-6.7-0.7-13.5-0.7-20.3-1.1c-4.4-0.3-8.9-0.7-13.3-1.1c-8.3-0.9-16.6-1.8-24.9-2.7c-0.7-0.1-51.1,0.7-57.2,2.3
				c-2.2,0.6-4.8,0.5-6.5,1.7c-8.2,6-13.4,13.9-14.5,24.3c-0.8,7.3-1,14.5-0.1,21.8c1.1,8.3,1.5,16.7,2.3,25
				c0.7,7.3,1.8,14.5,2.4,21.7c0.9,12.1,1.2,24.2,2.3,36.2c1.3,13.6,3.1,27.2,4.9,40.7c2,14.8,4.2,29.6,6.4,44.4
				c0.7,4.7,2.1,9.2,7.1,11.1c5.8,2.2,11.6,4.7,17.6,5.9c9.7,2,6.6,2.2,16.4,3.7C1115.9,664,1115.7,656.7,1114.5,656.5z M1231,605.3
				c-11.2,1.5-76.2,5.7-87.4,8.3c-2,0.5-20.2,1.9-21.3,5.9c-1.2,4.1-1,32.7-1.1,44.3c44.3,5.7,80-2.1,105.3-8.3
				c3.2-2,4.7-4.4,4.7-8.3c-0.2-10.3-0.1-20.7-0.1-31C1231,612.8,1231,609.3,1231,605.3z M1163.9,456.8c-4.8-0.1-8.8,0.2-12.7-0.2
				c-4-0.4-6.8,1.3-9.4,3.8c-4.2,4.2-8.7,8-12.2,12.7c-12.8,16.7-24.5,34.1-32.6,53.7c-1.5,3.6-3.6,7-5.1,10.6
				c-4.4,10.4-5.9,21.6-7.8,32.6c-0.6,3.3-0.8,6.7-0.7,10.1c0.1,6.4,0.2,12.8,0.8,19.2c0.8,9.5,3.6,18.5,7.7,27.1
				c4.8,9.8,13.7,19.1,23.1,24c1.6,0.8,0.1-4.3,0.5-9.4c-8.2-6.7-12.5-12-17.2-23.6c-4.6-11.2-6.3-22.8-4.6-35
				c1.7-11.6,5.1-22.5,9.5-33.3c0.5-1.3,1.8-3.2,2.9-3.3c6.3-2.8,12.9-5.1,20.1-5.2c5.2-0.1,5.6-0.6,6.8,4.3
				c1.3,5.7,3.9,10.6,7.6,15.1c7.5,9.1,13.8,19,18.6,29.8c2.1,4.7,3.2,9.7,5,15.1c5.2-0.8,10.3-1.6,16.4-2.6
				c-2.3-3.4-3.9-6.2-5.9-8.6c-11.5-14.2-21.7-29.2-29.4-45.8c-6.6-14.2-8.4-29-3.8-44.2c3.4-11.5,8.1-22.5,14-32.9
				C1157.8,466.2,1160.6,461.9,1163.9,456.8z M1158.3,604.3c-1.1-3.8-1.8-7.1-3-10.3c-3.7-9.7-9.4-18.3-15.2-26.9
				c-4.3-6.2-10.4-11.4-11.8-19.4c-0.4-2.4-2.3-2.4-4.2-1.9c-4.6,1.3-9.3,2.5-13.8,4c-1,0.3-2.1,1.4-2.5,2.4
				c-5.8,14.7-9.8,29.9-8.7,45.8c0.7,10.6,3.5,20.7,11,28.9c2.2,2.3,2.8,3.3,5.3,5.2c0,0,0.7-7.5,1.6-14c1-7,19.5-10.3,26.5-11.7
				C1148.1,605.6,1152.9,605.1,1158.3,604.3z M1170.1,459.4c-0.7,0.8-1.1,1.2-1.5,1.8c-7.8,10.1-12.7,21.8-17.6,33.4
				c-7.1,16.8-7.9,34-0.7,50.9c3.6,8.4,8.5,16.5,13.6,24.2c7.3,10.9,15.3,21.3,23.3,32.3c2.6-0.3,5.9-0.7,9.8-1.1
				c-1.5-8.1-2.9-15.8-7.8-22.2c-6.1-7.9-12.4-15.7-18.8-23.3c-6.3-7.5-10.5-15.8-12.7-25.5c-1.5-7-1.6-13.7,0.2-20.5
				c3.1-11.6,8-22.4,15.2-32.1c1.9-2.5,2.3-4.9,1-7.8C1172.7,466.3,1171.6,463.2,1170.1,459.4z"/>
			<path d="M1134.8,502.8c-1.3,7.7-2.6,16-4,24.2c-0.4,2.3-2,3.9-4.3,4.3c-3.1,0.6-6.3,1.1-9.4,1.1c-3.8,0-7-3.3-7.2-7.2
				c-0.1-2.3,0.3-4.6,0.8-6.8c1.9-7.9,5.8-14.9,9.9-21.8c1.1-1.8,3.3-3,5.1-4.2c0.8-0.5,2.1-0.3,3.1-0.1c3.1,0.6,5.1,2.3,5.6,5.6
				C1134.5,499.4,1134.6,500.8,1134.8,502.8z M1115.2,526.1c1.8,1.4,4.8,1.2,6.7,1c1.7-0.2,3.1-1.1,3.3-3c1.2-8.3,2.5-16.5,3.6-24.8
				c0.1-0.9,0-3.3-1.4-3.3c-1.4,0-5.4,9.1-7.5,13.6C1117.5,515,1113.3,524.7,1115.2,526.1z"/>
		</g>
		<rect x="1114.5" y="627.7" class="st1" width="122.8" height="26.4"/>
		<g class="st2">
			<path class="st0" d="M1127.2,647c-0.1,0.3-0.2,0.6-0.4,0.8s-0.5,0.3-0.8,0.3h-2.3c-0.4,0-0.7-0.1-0.9-0.4c-0.2-0.3-0.3-0.6-0.2-1
				l4.7-18c0.1-0.3,0.2-0.6,0.4-0.7c0.2-0.2,0.5-0.3,0.8-0.3h5.3c0.3,0,0.6,0.1,0.8,0.3c0.2,0.2,0.4,0.4,0.4,0.7l4.7,18
				c0.1,0.4,0,0.7-0.2,1c-0.2,0.3-0.5,0.4-0.9,0.4h-2.3c-0.3,0-0.6-0.1-0.8-0.3s-0.4-0.4-0.4-0.8l-0.8-3.1h-6.3L1127.2,647z
				 M1133.3,640.4l-2.3-9.4l-2.3,9.4H1133.3z"/>
			<path class="st0" d="M1152.2,635.3v-4c0-0.4,0.1-0.7,0.3-0.9c0.2-0.2,0.5-0.3,0.9-0.3h2.5c0.4,0,0.7,0.1,0.9,0.3
				c0.2,0.2,0.3,0.5,0.3,0.9v13.5c0,1.6-0.6,2.7-1.9,3.5c-1.3,0.8-3.3,1.1-6.2,1.1c-4.4,0-6.9-0.8-7.6-2.5c-0.1-0.3-0.2-0.7-0.2-1
				c0-0.7,0.4-1,1.1-1h2.3c0.4,0,0.6,0.1,0.8,0.2c0.2,0.1,0.3,0.3,0.5,0.6c0.1,0.2,0.2,0.4,0.4,0.5c0.2,0.2,0.5,0.4,1,0.5
				c0.4,0.1,1,0.1,1.7,0.1c1.1,0,1.9-0.2,2.4-0.5s0.7-0.9,0.7-1.8v-5.5c0,1.8-0.4,3.2-1.2,4.1c-0.8,0.9-2.1,1.4-4,1.4
				c-2.2,0-3.8-0.6-4.8-1.7c-1-1.1-1.4-2.9-1.4-5.4v-0.7c0-2.4,0.5-4.2,1.5-5.3s2.6-1.7,4.7-1.7c1.8,0,3.2,0.5,4,1.4
				C1151.8,632.2,1152.2,633.6,1152.2,635.3z M1145.8,637.1v0.3c0,1.4,0.3,2.3,0.8,2.9c0.5,0.5,1.3,0.8,2.5,0.8
				c2.1,0,3.2-0.9,3.2-2.6V636c0-1.7-1.1-2.5-3.2-2.5c-1.1,0-1.9,0.3-2.4,0.8S1145.8,635.8,1145.8,637.1z"/>
			<path class="st0" d="M1164.2,637c0-2.5,0.4-4.3,1.2-5.4c0.8-1.1,2.1-1.7,4-1.7c2,0,3.4,0.5,4.3,1.6c0.9,1.1,1.3,2.8,1.3,5.3v10
				c0,0.4-0.1,0.7-0.3,0.9c-0.2,0.2-0.5,0.3-0.9,0.3h-2.5c-0.4,0-0.7-0.1-0.9-0.3c-0.2-0.2-0.3-0.5-0.3-0.9v-9c0-1-0.2-1.8-0.6-2.3
				c-0.4-0.5-1.1-0.7-2-0.7c-0.5,0-0.9,0-1.2,0.1c-0.4,0.1-0.7,0.3-1,0.5s-0.5,0.6-0.7,1.1c-0.2,0.5-0.2,1.1-0.2,1.8v8.5
				c0,0.4-0.1,0.7-0.3,0.9c-0.2,0.2-0.5,0.3-0.9,0.3h-2.5c-0.4,0-0.7-0.1-0.9-0.3c-0.2-0.2-0.3-0.5-0.3-0.9v-15.5
				c0-0.4,0.1-0.7,0.3-0.9c0.2-0.2,0.5-0.3,0.9-0.3h2.5c0.4,0,0.7,0.1,0.9,0.3c0.2,0.2,0.3,0.5,0.3,0.9V637z"/>
			<path class="st0" d="M1193,643.9c-0.4,1.4-1.2,2.4-2.6,3.2c-1.4,0.8-3.2,1.1-5.3,1.1c-2.8,0-4.9-0.7-6.2-2.1
				c-1.3-1.4-2-3.5-2-6.3v-1.6c0-2.8,0.7-4.8,2-6.2c1.4-1.4,3.4-2.1,6.2-2.1c2.7,0,4.7,0.6,6.1,1.8c1.4,1.2,2.1,2.9,2.1,5.1v1.8
				c0,0.4-0.1,0.7-0.3,0.9c-0.2,0.2-0.5,0.3-0.8,0.3h-10.3c0,1.6,0.3,2.7,0.8,3.3c0.5,0.6,1.3,0.9,2.4,0.9c0.8,0,1.5-0.1,2-0.3
				c0.5-0.2,0.8-0.5,1-0.9c0-0.1,0.1-0.3,0.2-0.5c0.1-0.4,0.2-0.7,0.4-0.9c0.2-0.2,0.5-0.3,1-0.3h2.4c0.8,0,1.2,0.4,1.2,1.3
				C1193.2,643,1193.1,643.4,1193,643.9z M1185.2,634c-1,0-1.8,0.2-2.3,0.7s-0.8,1.2-1,2.4h6.3V637c0-1.1-0.2-1.9-0.7-2.3
				S1186.2,634,1185.2,634z"/>
			<path class="st0" d="M1205.5,644c0,1.3-0.4,2.4-1.3,3.1c-0.8,0.7-2.2,1.1-4.1,1.1c-1.8,0-3.2-0.4-4.1-1.2s-1.4-2-1.4-3.5v-0.3
				c0-0.7,0.1-1.4,0.3-1.9c0.2-0.6,0.5-1,0.8-1.4s0.7-0.7,1.2-1c0.5-0.3,1-0.5,1.5-0.7c0.5-0.2,1.1-0.3,1.7-0.4
				c0.7-0.1,1.3-0.2,1.8-0.3c0.5-0.1,1.1-0.1,1.8-0.2c0.7-0.1,1.2-0.2,1.7-0.2v-0.5c0-1-0.2-1.6-0.6-1.9c-0.4-0.3-1.1-0.5-2.1-0.5
				c-0.7,0-1.2,0.1-1.5,0.2c-0.3,0.1-0.6,0.4-0.7,0.6c-0.1,0.1-0.2,0.3-0.3,0.5c-0.1,0.5-0.5,0.8-1.2,0.8h-2.6
				c-0.8,0-1.2-0.4-1.2-1.2c0-0.3,0-0.5,0.1-0.7c0.2-1.4,0.9-2.5,2.1-3.3s2.9-1.2,5.1-1.2c2.8,0,4.8,0.5,6,1.5c1.2,1,1.9,2.7,1.9,5
				v10.3c0,0.4-0.1,0.7-0.3,0.9c-0.2,0.2-0.5,0.3-0.9,0.3h-2.5c-0.4,0-0.7-0.1-0.9-0.3c-0.2-0.2-0.3-0.5-0.3-0.9V644z M1202,645.1
				c0.5,0,1,0,1.4-0.1s0.7-0.1,1.1-0.3c0.3-0.1,0.6-0.3,0.8-0.5c0.2-0.2,0.3-0.5,0.3-0.9v-3.2c-0.1,0-0.3,0.1-0.6,0.1
				c-0.8,0.1-1.3,0.2-1.7,0.3c-0.3,0.1-0.8,0.1-1.3,0.3c-0.5,0.1-0.8,0.2-1,0.3c-0.2,0.1-0.4,0.3-0.7,0.4c-0.2,0.2-0.4,0.4-0.5,0.6
				c-0.1,0.2-0.1,0.5-0.1,0.8v0.2C1199.7,644.4,1200.5,645.1,1202,645.1z"/>
			<path class="st0" d="M1223.2,641.1c0,2.5-0.4,4.3-1.2,5.4c-0.8,1.1-2.1,1.7-4,1.7c-2,0-3.4-0.5-4.3-1.6c-0.9-1.1-1.4-2.8-1.4-5.2
				v-10c0-0.4,0.1-0.7,0.3-0.9c0.2-0.2,0.5-0.3,0.9-0.3h2.5c0.4,0,0.7,0.1,0.9,0.3c0.2,0.2,0.3,0.5,0.3,0.9v9c0,1,0.2,1.8,0.6,2.3
				c0.4,0.5,1.1,0.7,2,0.7c0.5,0,0.9,0,1.2-0.1c0.3-0.1,0.7-0.3,1-0.5s0.5-0.6,0.7-1.1c0.2-0.5,0.2-1.1,0.2-1.8v-8.5
				c0-0.4,0.1-0.7,0.3-0.9c0.2-0.2,0.5-0.3,0.9-0.3h2.5c0.4,0,0.7,0.1,0.9,0.3c0.2,0.2,0.3,0.5,0.3,0.9v15.5c0,0.4-0.1,0.7-0.3,0.9
				c-0.2,0.2-0.5,0.3-0.9,0.3h-2.5c-0.4,0-0.7-0.1-0.9-0.3c-0.2-0.2-0.3-0.5-0.3-0.9V641.1z"/>
		</g>
	</g>
	<g>
		<path class="st0" d="M544.5,476.1c-6.8,3.5-13.6,1.8-20.4-1.2c-1,4-3.9,4.4-6.9,4.6c-7.1,0.5-14.4,1.3-19.7-5
			c-6.9,4.7-14.1,3.1-17.2-2.7c-1.1-2.1-1.5-4.6-2.8-6.7c-4.8,2.8-9.7,4-15.6,1.6c-1.5,5.9-3.5,11.3-4.3,16.9
			c-0.9,6.7-0.9,13.5,0.1,20.3c0.7,5.2,2.8,8.9,7.9,11c4.4,1.8,8.8,3.2,13.5,3.2c16.4-0.1,32.9,1.6,49.3-0.8
			c5-0.8,10.1-1.4,15.1-2.3c5.7-1,8.8-4.4,8.4-10.9c-0.3-4.6-1.2-9.2-2.4-13.7C548.2,485.6,546.2,481,544.5,476.1z"/>
		<path class="st0" d="M548.4,468.2c0.3,1.9,0.3,3.1,0.8,4.1c2.3,4.9,4.6,9.8,7.3,14.4c2.1,3.5,8.5,6.2,10.7,4
			C569.4,488.5,554.9,470.8,548.4,468.2z"/>
		<path class="st0" d="M457.5,463.4c-5.7,6.4-12,12.5-15.9,20.3c-1.4,2.8-4.7,8.2-1.2,9.5c3.5,1.3,6.9-1.2,7.8-2.5
			C450.6,487.1,455.5,468.5,457.5,463.4z"/>
		<path class="st0" d="M355.3,568.6c1.4-8.7,1.4-8.7-0.9-11.6c-1,1.3-3.1,2.2-5.1,2.2c0.3,3.3,0.6,6.3,1,9.4
			C352.1,568.6,353.6,568.6,355.3,568.6z"/>
		<path class="st0" d="M345.8,568.6c-0.6-3.4,0-6.9-2.1-9.7c-0.4,0-0.7,0-1.1,0.1c-0.2,3.2-0.3,6.4-0.5,9.9
			C343.6,568.7,344.5,568.7,345.8,568.6z"/>
		<g>
			<path d="M459.7,447.5c1.7-0.8,3-1.4,1.9-3.3c-0.9-1.6-1.5-3.4-2.5-5c-1.9-2.9-1-7,2.2-8.9c2.8-1.6,5.8-2.8,8.5-4.1
				c1.1-2.7,2-5.5,3.3-8.1c1.5-3,4.4-4.3,7.4-5.2c2.7-0.8,5.2,0.1,7.3,2c1.4,1.2,2.7,2.6,4.2,4c1.6-1.5,3.1-3,4.7-4.3
				c4.3-3.5,6-3.4,10.1,0.1c0.8,0.7,1.6,1.5,2.5,2.3c4.8-3,9.7-4.7,15.4-3c6.1,1.8,7.7,6.6,8.4,12.2c3.9-0.7,7.6-1.4,11.1,1.1
				c3.9,2.8,6.1,6.5,6.8,11.2c0.2,1.2,0.5,2.4,0.6,3.7c0.3,4.9,0.1,9.5-5.9,11c-0.6,0.1-1,0.6-1,0.6c0.8,1.9,1.6,3.6,2.2,5.4
				c0.7,1.9,1.6,3.3,3.5,4.5c2.7,1.6,5.4,3.6,7.5,6c3.6,4.2,6.9,8.8,10.1,13.3c1.1,1.5,1.7,3.3,2.6,5c1.2,2.4,1.5,5.2-0.3,6.9
				c-1.7,1.6-4.3,1.9-6.9,1.2c-2.6-0.7-5.4-2.2-8.2-3.4c0.3,3,0.9,6.2,1,9.4c0,3.2-0.1,6.5-0.8,9.6c-1.1,4.9-4.7,7.4-9.5,8.3
				c-12.8,2.4-25.7,4.1-38.7,3.8c-1.1,0-2.2,0-3.3,0c-0.5,0-0.9,0.2-1.7,0.4c1,2.7,2.1,5.4,3,8.1c2.1,6.3,0,12.2-5.7,15.5
				c-2.8,1.6-5.9,2.7-8.9,3.9c-1.3,0.5-2.6,0.7-2.8,2.6c-0.6,3.7-2.7,6.2-6.5,6.9c0,6.5,0,12.8,0,18.8c-3.6,1.3-6.7,2.5-9.9,3.5
				c-1.5,0.5-3,0.8-4.6,0.8c-3.4,0.1-5-0.8-5.8-4.1c-1-4-1.4-8.2-2-12.5c-4.7-0.2-9.6-0.3-14.5-0.6c-5.1-0.3-9.7-1.9-13.3-6.2
				c-3.8,6.1-8.8,9.2-15.9,8.7c-6.2-0.4-12.5,0.2-16.9-6c-3.5,6.1-9.3,7.2-15.2,7.4c-7.8,0.3-15.4-0.7-22.6-6.1c0,4,0,7.2,0,10.4
				c-0.1,3.2-0.8,4.1-4,4.4c-2.1,0.2-4.2,0.2-6.4,0.4c-1.6,0.1-3.2,0.3-4.8,0.6c-2.8,0.6-4.5,0.1-5.8-2.4c-0.8-1.6-1.3-3.5-1.4-5.3
				c-0.2-4.7,0-9.3-0.1-14c0-1.2-0.5-2.8-1.4-3.6c-4.9-4.5-6.5-9.9-5.2-16.4c0.1-0.6,0-1.2,0-1.6c-2.4,0-4.5,0.1-6.6,0
				c-5.7-0.2-9.9-3.7-11.6-9.1c-1.7-5.3-0.3-10.1,2.5-14.5c1.6-2.6,3.9-4.8,5.7-6.9c-3.3-3.8-4.3-7.9-3.8-14.4
				c-3.8-0.7-8.1-2.2-10.5-6.3c-1.5-2.6-1.8-5.5-1-8.5c1.9-6.8,6.4-9.4,13.9-7.9c0.3-0.5,0.5-1.1,0.9-1.6c4-6.2,8.7-5.3,12.7-0.2
				c1.2,1.5,1.9,3.5,2.5,5.4c0.6,1.7,0.6,3.6,0.9,5.2c3,1.7,5.7,3.2,8.7,4.9c-1.3-4.9-1.3-9.1,3.5-12.4c3.7-2.5,7.2-5.2,11.5-4.9
				c2.1-3.1,4-6.1,6.2-8.8c1-1.2,2.7-2.1,4.2-2.6c5.8-1.8,11.7-1.4,17.5-0.2c3.3,0.7,6.4,2.9,9.7,4.5c1.2-5.6,4.7-9.9,11.1-11
				c5.8-1,11.7-2.4,17.1,2.1c1.4-5.7,4.7-9.2,10-11.4c6.6-2.7,12.1-0.8,17.3,3.2C455.9,443.7,457.8,445.7,459.7,447.5z M496.7,524.5
				c-4.2,0.5-23.6-1.9-29.8-3.2c-3.4-0.7-13.6-7.5-14.1-18.3c-0.2-1.8-0.3-7-0.4-8.6c-2.9,2.8-6,3.4-8.3,3.9c-5.2,0-8.2-1.5-8.7-4.8
				c-0.7-4.4,0.6-8.6,3.1-12.5c3.7-5.8,6.3-11.5,10.9-16.6c3.4-3.8,10-12.5,7.4-14.3c-2.6-1.8-5.2-4.6-8.8-6.2
				c-3.6-1.6-8.5-1.4-12.5,0.8c-3.7,2.1-5.5,5.3-5,9.7c0.1,1.2-0.1,2.5-0.2,3.8c-0.3,0.1-0.7,0.2-1,0.2c-0.6-0.7-1.2-1.5-2-2.2
				c-1.6-1.4-3.1-3.5-4.9-4c-4.6-1.3-9.4-1.6-14.1,0.6c-4.5,2.1-6.8,6.4-5.9,11.2c0.3,1.5,2.3,3.4,0.2,4.6c-2.7,1.4-3.3-1.6-4.4-3
				c-2.4-3-4.9-5.9-8.7-6.6c-5-1-10.1-1.4-15.2-0.1c-5.6,1.4-9,6.7-8.2,12.6c0.1,0.9-0.1,1.8-0.1,2.7c-1.7,0.6-2.9,0.6-3.7-1
				c-0.9-1.7-2.4-1.6-4-1.1c-7.9,2.7-10,6.2-8.6,14.3c0.2,1.1,0.5,2.1,0.6,3.2c0,1,1.2,3.7-0.4,4.1c-1.6,0.4-3.4-3.4-4.7-4.9
				c-4-4.8-7.5-6-13.2-4.1c-9.9,3.2-12.2,14.7-5.9,20.6c3.7-1.4,9.5,0.5,10.1,2.2s-1.9,2.6-3.7,2c-2.1-0.7-3.9,0-5.8,0.9
				c-5.5,2.6-8.5,7.2-9.8,12.9c-1.3,5.3,1.8,9.2,7.1,9.8c8.6,1.6,11.2-4.4,12.8-4.4c1.5,0,3.9,3.6,1.5,6.7c-2.4,3-3.7,6.5-3.2,10.3
				c0.6,5,2.8,7.1,8,8.3c4.5,1,9.2-0.6,11.5-3.9c0.6-0.8,0.3-2.7,1.7-2.6s3.7,2.6,2.8,5.2c-0.8,2.5,0,4.3,1.2,6.1c2,3,4.8,5,8.1,5.9
				c6,1.8,12.1,2.6,18.3,1.2c3.8-0.9,6.9-2.8,8.3-6.7c0.8-2.1,0.4-6.5,2.5-6.4c2.1,0.1,3.4,2.5,3.3,4.8c-0.2,3.6,1.8,5.7,5,6.2
				c3.6,0.7,7.4,1,11,1c6.1-0.1,10.2-4.1,11.1-10.3c0.2-1.1,0.3-4.2,1.9-4.2s2.5,4.5,3.4,6.3c1.4,2.6,3.3,4.6,6.3,5.1
				c6.9,1.2,13.8,2,20.7,0.6c3.3-0.7,4.6-2.6,4.1-6c-0.2-1.8-0.8-3.7-0.8-5.5c0-1.4,0.5-2.7,0.8-4.6c4.6,2.6,3.5,7.3,5.5,10.4
				c3.7,0.9,7.3,0.6,10.9-0.6c3.3-1.1,3.4-1.9,1.4-4.8c-0.6-0.9-0.9-2-1.2-3c-0.1-0.2,0.1-0.5,0.3-0.9c1.1,0.4,2.2,0.8,3.3,1.3
				c0.4-1-1-2.6,1.2-2.8c2.1-0.2,1.7,1.6,2.6,2.5c2.4-1.2,4.8-2.4,7.1-3.6c0.8-0.4,1.6-0.9,2.4-1.4c4.3-3.2,5.3-6.8,3.1-11.7
				C499.8,529.6,497.9,526.4,496.7,524.5z M544.5,476.1c-6.8,3.5-13.6,1.8-20.4-1.2c-1,4-3.9,4.4-6.9,4.6c-7.1,0.5-14.4,1.3-19.7-5
				c-6.9,4.7-14.1,3.1-17.2-2.7c-1.1-2.1-1.5-4.6-2.8-6.7c-4.8,2.8-9.7,4-15.6,1.6c-1.5,5.9-3.5,11.3-4.3,16.9
				c-0.9,6.7-0.9,13.5,0.1,20.3c0.7,5.2,2.8,8.9,7.9,11c4.4,1.8,8.8,3.2,13.5,3.2c16.4-0.1,32.9,1.6,49.3-0.8
				c5-0.8,10.1-1.4,15.1-2.3c5.7-1,8.8-4.4,8.4-10.9c-0.3-4.6-1.2-9.2-2.4-13.7C548.2,485.6,546.2,481,544.5,476.1z M533.3,454.8
				c0.4-2,3.5-2.4,5.2-3.4c1.9-1.1,3.7-2.3,5.7-3.2c2.8-1.2,3.5-3.3,3.2-6.1c-0.1-1.2-0.4-2.5-0.6-3.7c-0.8-3.3-2.3-6.4-5.8-7.2
				c-3.6-0.8-7.1-0.2-9.5,3.2c-0.8,1.1-0.8,3.5-2.9,2.9c-2.1-0.6-2.6-4.5-1.2-7.2c2.9-5.7,0.5-10.8-5.4-11.3
				c-4.3-0.4-8.3,1-10.9,4.9c-0.8,1.1-0.2,3.7-2.2,3.6s-3-3-2.2-5c1-2.4-0.6-3.5-2.2-4.4c-1.7-0.9-3.3-0.5-4.6,1
				c-1.5,1.7-3.4,3.2-3.1,5.9c0.1,0.6-0.9,2-1.5,2c-0.9,0.1-2-0.5-2.6-1.2c-2-2.1-3.7-4.5-5.9-6.5c-1-0.9-2.8-1.5-4.1-1.4
				c-5.3,0.5-9.2,7.4-7,12.3c0.9,1.9,0.8,3.1-0.9,4.1c-5.7-3.1-12.1,0.6-12.1,3.4c0,2.8,3.8,5.4,7.2,6.6c3,1,4.8,4.2,3.9,4.9
				c-0.9,0.7-2.4,0.4-3.1,0.3c-5.3-0.6-8.2,1.7-9,6.9c-0.6,4.2,2.2,7.4,6.4,6.7c2.1-0.3,4.2-1.1,6.1-2.1c2.4-1.3,4.6-3.1,7-4.8
				c2,1.2,3.5,2.8,1.9,5.2c-2.2,3.3-0.2,5.5,1.4,8c1.6,2.4,3.9,2.8,6.5,2.5c2.7-0.3,4.1-2.1,4.6-4.5c0.3-1.3,0.5-2.9,2-2.5
				c1.1,0.2,2,1.6,2.7,2.7c0.4,0.7,0.1,1.8,0.2,2.7c0,2.4,1.5,4,3.6,4.2c4,0.4,8,0.5,12,0.2c4.2-0.3,5.5-2.1,5.9-6.2
				c0.1-1.3,0-2,0.4-3.7c0.4-1.8,3.3,1.2,3.2,2.5c-0.1,4.1,2.9,4.7,5.8,5.3c1.9,0.4,4,0.3,6,0.3c3.8,0,5.9-2.2,7.3-5.4
				c0.9-2.1-0.8-4.7-1.7-6.7c-1.4-3.2-3.1-3.2-6.4-3C533.2,457.8,532.9,456.8,533.3,454.8z M319.4,489.1c2.3-4.1,5.6-6.7,9.6-8.6
				c3.3-1.5,3.7-2.6,3.4-6.2c-0.3-2.9-1.1-6.8-4.1-6.8s-4.9,3.5-3.3,7.4c0.5,1.2,1.6,2.8,0.2,3.9c-1.4,1.1-2.3-5.1-6.6-5.8
				c-4.3-0.7-8.1,2.5-8.4,7.7C310,486.1,311,487.1,319.4,489.1z M548.4,468.2c0.3,1.9,0.3,3.1,0.8,4.1c2.3,4.9,4.6,9.8,7.3,14.4
				c2.1,3.5,8.5,6.2,10.7,4C569.4,488.5,554.9,470.8,548.4,468.2z M457.5,463.4c-5.7,6.4-12,12.5-15.9,20.3
				c-1.4,2.8-4.7,8.2-1.2,9.5c3.5,1.3,6.9-1.2,7.8-2.5C450.6,487.1,455.5,468.5,457.5,463.4z M355.3,568.6c1.4-8.7,1.4-8.7-0.9-11.6
				c-1,1.3-3.1,2.2-5.1,2.2c0.3,3.3,0.6,6.3,1,9.4C352.1,568.6,353.6,568.6,355.3,568.6z M475.9,562.1c-0.6-0.3-3.7-0.1-4.1,0.3
				c-0.4,0.4-0.9,9.2,0,9.9s3.9-0.3,4.6-1C477.1,570.5,476.6,562.4,475.9,562.1z M466.6,565.4c-0.3-0.2-0.3-0.6-0.9-0.6
				s-1.9,1.6-2,2.5c-0.2,2,0.1,4,0.4,5.9c0.1,0.7-0.4,1.9,1.5,1.9s1.4-1.3,1.4-2C467,570.6,466.7,568,466.6,565.4z M345.8,568.6
				c-0.6-3.4,0-6.9-2.1-9.7c-0.4,0-0.7,0-1.1,0.1c-0.2,3.2-0.3,6.4-0.5,9.9C343.6,568.7,344.5,568.7,345.8,568.6z M346.2,572.5
				c-1.1,0.1-2.2,0.3-3.7,0.5c-0.7,1.6-0.8,3.7,1.6,3.8C346.5,576.8,347.2,575.3,346.2,572.5z M355.4,573.3c-1.4,0-2.8,0-4.2,0
				c-0.4,1.9,0,2.5,2.2,2.6C354.7,576,355.8,575.2,355.4,573.3z M472,576.6c0,0.5,0.4,2,1.4,2.3c1,0.3,2.8-0.7,2.9-0.8
				c0.3-0.3,1.9-2.6-0.1-2.7C474.2,575.2,472,575.6,472,576.6z M464.7,577.4c-1.9,0.4,0.1,2.5,0.4,2.7c0.2,0.1,2,0.8,3,0.3
				c1-0.4,1.1-2,1-2.5C468.9,577,466.6,577,464.7,577.4z"/>
			<path d="M512.6,489.6c2.5-0.6,2.7,8,3.7,7.8c1-0.1,0.8-7.2,3.6-7.1c2.8,0.1,2.3,1.2,1.5,3.4c-0.3,0.9-1.6,6.2-1.5,8.9
				c0.2,4.5-1,5.2-3.1,5.3c-1.6,0.1-3.9,0.3-4-3.5C512.7,500.6,510,490.2,512.6,489.6z"/>
			<path d="M498,488.7c2-0.7,2.4-0.1,2.4,1.9c0,8.5-1.8,16.4-4.9,16.4s-4.9-1.8-4-5c0.8-3.1-0.7-6.8-1.6-9.5
				c-0.4-1.3-1.1-2.5,0.7-3.1c1.8-0.6,3.8,5.7,5,6C497,495.8,496.1,489.5,498,488.7z"/>
		</g>
		<path class="st0" d="M475.9,562.1c-0.6-0.3-3.7-0.1-4.1,0.3c-0.4,0.4-0.9,9.2,0,9.9s3.9-0.3,4.6-1
			C477.1,570.5,476.6,562.4,475.9,562.1z"/>
		<path class="st0" d="M466.6,565.4c-0.3-0.2-0.3-0.6-0.9-0.6s-1.9,1.6-2,2.5c-0.2,2,0.1,4,0.4,5.9c0.1,0.7-0.4,1.9,1.5,1.9
			s1.4-1.3,1.4-2C467,570.6,466.7,568,466.6,565.4z"/>
	</g>
	<g>
		<path class="st0" d="M665.6,549.3c-6.5,3.8-9.1,4.2-16.2,2.4c-5-1.2-5.6-1.2-6.5,4.1c-1.6,9.5-2.7,19-3.8,28.5
			c-0.4,3.2,1,5.9,3.7,8.1c4.1,3.3,8.9,4.2,13.8,5c6.4,1,12.9,1.5,19.4,2.2c2.2,0.2,16.9,0,22.1,0.1c12.3,0.1,24.4-1.8,36.4-3.8
			c2.4-0.4,3.7-1.7,3.7-4c0-2.9,0-5.9-0.5-8.8c-0.9-4.9-2.1-9.7-3.3-14.5c-0.8-3.4-1.9-6.8-2.9-10.3c-5.3,1.6-10.1,1.8-14.9-0.2
			c-3.9,5.4-9.1,6.4-14.9,5.4c-0.8-0.1-1.5-0.2-2.3-0.2c-5.2,0.1-9.5-1.4-11.9-6.3C677.7,562.5,671.6,560.4,665.6,549.3z"/>
		<path class="st0" d="M735.8,557c1.6,4.7,3,9.5,4.7,14c0.7,1.8,2,3.4,3.2,5c1,1.3,2.1,3.4,3.9,2.5c1.8-0.9,3.5-2.7,4.2-4.4
			c0.6-1.6,0.3-4.1-0.6-5.7c-3.2-6.1-7.1-11.7-12.5-16C737.8,554,736.7,555.5,735.8,557z"/>
		<path class="st0" d="M623.6,577.6c8.7-3.1,12.3-15.2,16.3-28.4C632.6,558.1,626.1,566.2,623.6,577.6z"/>
		<path class="st0" d="M525.6,647.9c0.9,1.1,5.2,0.9,5.7,0c0.3-0.6-0.4-4.1-0.4-7.5c0-1.6-3.8-2.6-6.4-5.4c0.2,2.2,0.4,4.3,0.6,6.4
			C525.2,643.5,524.6,646.7,525.6,647.9z"/>
		<path class="st0" d="M649.8,650.5c0.1-1.5,0-5.9,0-7s-5.7-1.3-5.7,0s0.2,6,0,7C644,651.5,649.7,651.5,649.8,650.5z"/>
		<path class="st0" d="M536.2,649.5c0.4,1.2,4.3,1.8,4.8,1c0.5-0.7,0.6-6.4-0.3-6.7s-4.2-0.9-5.4-1.6
			C534.7,641.8,535.6,647.6,536.2,649.5z"/>
		<path class="st0" d="M659,650.9c0-1.1,0.3-9-0.6-9c-0.9,0-3.4,1.2-3.9,2.1s-0.4,4.1-0.4,5.8S659,652,659,650.9z"/>
		<g>
			<path d="M679,499.9c3.7-3.8,12.5-10.4,18.7-2.1c3.4-2,6.8-1.9,10.3,0c3.4,1.8,8.2,4.5,9.7,7.9c3.5-0.8,10.8,1.3,14.4,8.8
				c2,4.2,3.4,8.6,3.4,13.4c0,1.2,0.5,2.4,1.1,3.5c2.2,4.6,4.1,9.3,3.7,14.7c-0.1,1.5,1.4,3.3,2.6,4.6c4.9,4.9,9,10.4,11.5,16.7
				c1.1,2.6,1.3,5.7,1.4,8.6c0,3.1-3.2,6.8-6,7.6c-3.3,1-5.5-1-7.8-3c0.2,4,0.5,7.8,0.6,11.6c0.3,7.1-3.8,9.3-10.2,10.3
				c-6.5,1.1-13.2,1.4-19.9,1.9c-5.4,0.4-10.9,0.8-16.3,0.9c-2.2,0-3.5,0.2-4.4,1.2c1.9,5-0.5,10.4-4.4,13.5c-1.3,1-1.6,2.1-1.7,3.5
				c-0.2,6.8-3.8,10.9-10.1,12.9c-4.5,1.4-8.9,2.8-13.8,0c0.5,5.6,0.9,10.6,1.4,15.6c0.2,1.8,0.3,3.7,0.6,5.5
				c0.2,1.6-0.1,2.6-1.7,3.3c-2.7,1.2-6,4-7.9,4s-2.3-2.6-3.1-2.2c-0.8,0.4-0.4,1.8-3.4,2.2c-3,0.4-5.9-0.7-6.7-5.2
				c-0.7-4.1-1.3-8.3-1.3-12.5c0-3.5-1-5.9-4.2-7.9c-6,6.5-13.8,7.5-22.1,7.3c-1.7,0-3.4,0-5.1,0c-5.3,0.1-10.3-0.7-14.2-5.3
				c-5.1,5.8-11.5,8.4-18.8,9.2c-7.6,0.9-13.6-1.9-17.9-8.1c-4.5,3.2-3.7,2.9-12.6,2.8c-0.8,5.6,1.6,11.3-0.3,17.4c-2.6,0-5,0-7.5,0
				c-2.2,0-4.3-0.2-6.5-0.1c-5.5,0.3-7.4-1-8.2-6.5c-0.6-3.8-0.7-7.7-1.1-11.6c-0.3-2.9-0.6-5.9-0.8-8.8c-0.2-3.2-1.3-6.2,0.2-9.5
				c0.7-1.6-0.2-3.9-0.4-6.2c-4.5,0.6-8.4-0.6-11.8-3.2c-8.9-6.6-11.3-17.6-5.6-27.1c2.2-3.7,7-8.7,7.3-10.7c0.4-2-1.7-4-2.2-6.2
				s-0.4-4.5-0.6-6.9c-1.9-0.9-4.3-1.8-6.5-3.1c-2.3-1.4-3.9-3.5-4.2-6.4c-0.5-5.3,2.3-8.9,9.3-8.8c0.2-0.4,0.2-1.3,0.3-1.7
				c0.6-2.9,2.3-4.8,5.3-4.9c3.2,0,5.8,1.5,7.2,4.3c1.1,2.3,1.7,4.9,2.6,7.6c3.8-1.5,7.6-4.5,12.5-2.6c0.2-0.7,0.4-1.3,0.4-1.8
				c-0.4-10,7.1-14.3,14.6-14.6c4.9-0.2,9.8,0.8,14.7,1.2c1-8.3,6.7-12.1,15.8-11.4c7.5,0.6,14.5,2.8,21.6,5.1
				c3.5-5.7,10.5-8.5,17.3-7.9c10,0.9,14.9,7.9,19.7,15.3c0.2,0.3,0.4,0.7,0.7,1.2c0.1-2.8,0.9-4.4,3.9-5.8
				c-5.7-12,0.8-21.4,15.3-21.5c-1-6.4,0.6-11.6,7.3-14C670.9,493.8,678.5,500.5,679,499.9z M635.3,579.6c-0.8,0.7-1.4,1.6-2.3,2.1
				c-2.8,1.6-5.6,2.8-8.8,0.9c-3-1.8-4.4-4.5-3.8-7.9c0.5-2.9,1.2-5.8,2.3-8.4c2.8-6.6,7.3-12.2,11.6-17.9c3.1-4.2,3-8.3-0.2-12.4
				c-1.9-2.4-4.1-4.7-6.2-6.9c-2.4-2.5-5.4-3.8-8.8-3.5c-3.1,0.3-6.1,1.1-9.1,1.6c-2.9,0.5-4.1,2.6-4.9,5c-0.4,1.1,0.6,3.9-0.8,4.4
				c-1.4,0.5-3.6-3-5.9-4.7c-2.2-1.7-13.8-4.9-21.2-3.9c-3.2,0.4-6,1.7-8.2,3.9c-2,2-1.7,4.5-1,7c0.4,1.5-0.2,3.5-1.7,3.6
				c-1.4,0.1-3.8-3.2-5.9-3.6c-3.9-0.8-8.1-1.2-12-0.7c-3.8,0.5-7.4,2.7-9.3,6.4c-1.5,2.9-1.5,5.9,0.7,8.8c0.4,0.6,0.9,1.4-0.3,2.9
				c-1.2,1.5-1.8-0.1-2.4-0.6c-2.3-2-4.8-2.1-7.4-0.9c-4.5,2.1-9,4.2-13.2,6.8c-3.3,2.1-4.8,5.6-4.6,9.7c0.1,2.2,0.8,3.8,3,4.8
				c1.4,0.7,2.4,2.2,1.1,4.6c-0.9,1.6-7.3,5.7-9.5,11.4c-2.2,5.6-3.2,9.4-1.4,14.1c2.6,6.6,8.9,10.7,16.4,7.6c1.5-0.6,2.8-1,3.6,0.4
				c0.6,1,0.9,2.7,0.6,3.8c-2.1,6.9,0.1,13.8,6,17.3c5.4,3.2,11.2,5.2,17.7,4.8c2.5-0.2,4.5-0.9,5.8-3.2c1.2-2.1,2.3-6.1,4-6.1
				c1.7,0,3.1,2.8,2.6,6c-0.6,4,0.3,5.9,3.9,7.5c1.5,0.7,3.2,1.1,4.9,1.3c5.4,0.5,10.5-1,15.3-3.3c3.3-1.7,5.7-4.2,5.9-8.3
				c0-1.1-0.9-3.3,1.2-3.5c2.1-0.1,2.8,2.8,3.2,4.7c0.8,4.1,2,5.4,6.1,5.7c5.6,0.5,11.2,0.8,16.7,0.6c4-0.2,8.2-0.6,11.3-3.6
				c2.1-2.1,4.2-7.9,5.9-7.3c1.7,0.6,2.6,2.2,2.7,4.4c0.1,1.6,0.9,2.7,2.5,2.9c3.4,0.3,6.8,0.8,10.2,0.7c4.4-0.1,7-2.8,8.2-7
				c0.4-1.3-0.1-3.9,1.5-4.3c1.6-0.4,1.9,1.6,2.3,2.3c2.6,3.8,3.6,4.4,7.8,3.1c2.4-0.7,4.8-1.6,6.7-3c1.7-1.3,3.3-3.3,4.1-5.4
				c0.4-1,0.1-2.9-0.7-4.3c-0.5-0.8-0.9-2.4,1.4-3.5c2.3-1.1,6.2-5.3,4.3-10c-4,1-38.2-1.9-44.3-7
				C638.3,595.4,633.5,588.1,635.3,579.6z M667.4,539c1.3-0.2,1.7,2.7,1.4,3.8c-0.9,3.5,0.8,6.1,2.3,8.7c1.8,3,5,3.9,8,3.8
				c3.1-0.1,5.5-2,6.6-5.1c0.3-0.8,0.5-3.2,1.7-3.2c1.2,0,2.2,3.7,2.2,5.2c0.1,2.9,1.7,4.3,3.9,5.2c4.8,2,9.9,2.4,15,1
				c4.1-1.1,4.8-2.3,4.6-6.6c-0.1-1.8,0.3-5.1,1.7-4.5c1.4,0.6,1.4,2.7,2,3.9c0.5,1.1,1.1,2.4,2.1,2.8c4.4,1.7,8.7,1.1,12.8-1.1
				c1.2-0.6,2.5-1.4,3.1-2.5c3.5-5.5,1.3-16-1.4-17.1c-2.7-1-3.5-0.3-4.9-0.1c-1.6,0.2-3.1-0.1-3.4-2.1c-0.3-1.9,0.5-2.7,2.3-3.3
				c1.4-0.5,3.4,0.5,4.7-0.8c1.2-1.4-1.9-10.7-5.5-14.9c-6.7-5.4-9.4,2.5-11.8,1.6c-2.4-0.9-2.3-2.6-2-4.3c0.5-3.1-1.1-5.1-3.6-6.4
				c-1.5-0.8-3.1-1.4-4.8-1.7c-3.5-0.6-4.6,0.2-5.6,3.6c-0.2,0.7-0.3,1.6-0.8,2.2c-0.5,0.7-0.5,1.8-1.8,1.6
				c-1.3-0.2-1.8-1.3-1.9-2.1c-0.2-1.3,0.2-2.7,0.4-4.1c0.6-4.1-2.5-6.6-6.2-5.1c-3.9,1.5-6.7,4.1-6.6,8.6c0,1.5-0.4,2.8-1.8,2.7
				c-0.9,0-2.4-1.4-2.4-2.1c0-4.3-3-5.4-6.2-6.4c-3-1-5.5-0.1-7.6,2c-2.1,2-3,4.4-1.8,7.2c0.6,1.4,1.1,2.9,1.8,4.3
				c0.9,1.9,0.4,3.5-1.6,3.6c-2,0.1-2.1-2-3.3-2.4c-5.7-2.1-13.4,2.6-14.7,7.4c-0.9,3.4-0.4,5.2,2.9,6.8c1.9,0.9,4,3.3,3.6,4.6
				c-0.4,1.3-1.6,0.6-2.5,0.8c-2.5,0.8-4.4,2.3-5.5,4.7c-1.6,3.3-0.8,6,2.5,7.3c4.1,1.5,8.4,2.5,12.8,1.6c3.4-0.7,6.1-2.2,6.8-6.1
				C665.1,540.8,666,539.2,667.4,539z M665.6,549.3c-6.5,3.8-9.1,4.2-16.2,2.4c-5-1.2-5.6-1.2-6.5,4.1c-1.6,9.5-2.7,19-3.8,28.5
				c-0.4,3.2,1,5.9,3.7,8.1c4.1,3.3,8.9,4.2,13.8,5c6.4,1,12.9,1.5,19.4,2.2c2.2,0.2,16.9,0,22.1,0.1c12.3,0.1,24.4-1.8,36.4-3.8
				c2.4-0.4,3.7-1.7,3.7-4c0-2.9,0-5.9-0.5-8.8c-0.9-4.9-2.1-9.7-3.3-14.5c-0.8-3.4-1.9-6.8-2.9-10.3c-5.3,1.6-10.1,1.8-14.9-0.2
				c-3.9,5.4-9.1,6.4-14.9,5.4c-0.8-0.1-1.5-0.2-2.3-0.2c-5.2,0.1-9.5-1.4-11.9-6.3C677.7,562.5,671.6,560.4,665.6,549.3z
				 M735.8,557c1.6,4.7,3,9.5,4.7,14c0.7,1.8,2,3.4,3.2,5c1,1.3,2.1,3.4,3.9,2.5c1.8-0.9,3.5-2.7,4.2-4.4c0.6-1.6,0.3-4.1-0.6-5.7
				c-3.2-6.1-7.1-11.7-12.5-16C737.8,554,736.7,555.5,735.8,557z M506.6,551c-1.1-0.4-3.8,0.1-5,0.9c-2.7,1.8-1.5,5.3,1.5,6.6
				c1.1,0.5,2.4,0.5,3.6,0.7c1.4,0.2,2.9,0.5,3.6,0.6c1.3-1,2.1-2,3.2-2.5c2.9-1.5,3.4-3.9,3.6-6.9c0.1-2.3-0.2-4.1-2.4-4.9
				c-2-0.7-4,0.8-4.5,2c-0.5,1.2,1.7,5.8,0,6.1C508.5,553.8,507.6,551.3,506.6,551z M623.6,577.6c8.7-3.1,12.3-15.2,16.3-28.4
				C632.6,558.1,626.1,566.2,623.6,577.6z M525.6,647.9c0.9,1.1,5.2,0.9,5.7,0c0.3-0.6-0.4-4.1-0.4-7.5c0-1.6-3.8-2.6-6.4-5.4
				c0.2,2.2,0.4,4.3,0.6,6.4C525.2,643.5,524.6,646.7,525.6,647.9z M649.8,650.5c0.1-1.5,0-5.9,0-7s-5.7-1.3-5.7,0s0.2,6,0,7
				C644,651.5,649.7,651.5,649.8,650.5z M536.2,649.5c0.4,1.2,4.3,1.8,4.8,1c0.5-0.7,0.6-6.4-0.3-6.7s-4.2-0.9-5.4-1.6
				C534.7,641.8,535.6,647.6,536.2,649.5z M659,650.9c0-1.1,0.3-9-0.6-9c-0.9,0-3.4,1.2-3.9,2.1s-0.4,4.1-0.4,5.8S659,652,659,650.9
				z M532.9,656.3c0.3-1.5-0.2-3.2-1.1-3.8s-5,0-5.2,0.7c-0.2,0.8-0.1,3.9,1.4,4.3C529.4,657.9,532.7,657,532.9,656.3z M650.5,655.3
				c-1-0.5-5.5-0.6-5.6,0.7c-0.1,1.3-0.6,1.5-0.1,3s3.8,0.7,5,0.3S651.6,655.8,650.5,655.3z M536.6,654.8c-0.5,1.4,1.3,2.3,2.4,2.3
				c2.3,0,2.5-2,2.5-2.7C541.5,653.7,537.1,653.4,536.6,654.8z M659.5,657.2c0.8-1.3,0.1-2.2-0.5-2.2s-2.5-0.8-4.2,0
				c0.2,0.8-0.7,2.9,0.5,3.7C656.6,659.4,658.7,658.5,659.5,657.2z"/>
			<path d="M676.8,575.1c3,0,3.7,5.6,2.8,9.3c-0.4,1.7-0.9,2.8-2.9,3c-2.2,0.1-3.2-1.2-3.6-2.9C672.4,580.9,673.8,575.1,676.8,575.1
				z"/>
			<path d="M698.9,578.2c0.8-2.1,2.6-2.5,3.8-0.7c1.6,2.4,2.8,5,2.1,8.2c-0.3,1.6-1.1,2.8-2.6,2.6c-1.2-0.2-2.5-1-3.2-2
				C698.3,585.1,698.4,579.4,698.9,578.2z"/>
		</g>
	</g>
	<g>
		<path class="st0" d="M1158.3,604.3c-1.1-3.8-1.8-7.1-3-10.3c-3.7-9.7-9.4-18.3-15.2-26.9c-4.3-6.2-10.4-11.4-11.8-19.4
			c-0.4-2.4-2.3-2.4-4.2-1.9c-4.6,1.3-9.3,2.5-13.8,4c-1,0.3-2.1,1.4-2.5,2.4c-5.8,14.7-9.8,29.9-8.7,45.8
			c0.7,10.6,3.5,20.7,11,28.9c2.2,2.3,2.8,3.3,5.3,5.2c0,0,0.7-7.5,1.6-14c1-7,19.5-10.3,26.5-11.7
			C1148.1,605.6,1152.9,605.1,1158.3,604.3z"/>
		<path class="st0" d="M1115.2,525.8c1.8,1.4,4.8,1.2,6.7,1c1.7-0.2,3.1-1.1,3.3-3c1.2-8.3,2.5-16.5,3.6-24.8c0.1-0.9,0-3.3-1.4-3.3
			c-1.4,0-5.4,9.1-7.5,13.6C1117.5,514.8,1113.3,524.4,1115.2,525.8z"/>
		<path class="st0" d="M1170.1,459.1c-0.7,0.8-1.1,1.2-1.5,1.8c-7.8,10.1-12.7,21.8-17.6,33.4c-7.1,16.8-7.9,34-0.7,50.9
			c3.6,8.4,8.5,16.5,13.6,24.2c7.3,10.9,15.3,21.3,23.3,32.3c2.6-0.3,5.9-0.7,9.8-1.1c-1.5-8.1-2.9-15.8-7.8-22.2
			c-6.1-7.9-12.4-15.7-18.8-23.3c-6.3-7.5-10.5-15.8-12.7-25.5c-1.5-7-1.6-13.7,0.2-20.5c3.1-11.6,8-22.4,15.2-32.1
			c1.9-2.5,2.3-4.9,1-7.8C1172.7,466.1,1171.6,462.9,1170.1,459.1z"/>
	</g>
	<g>
		<g>
			<path class="st0" d="M912.3,520.3l-3-0.3c2.3-21.9,16.4-39.7,37.8-47.6c26.3-9.7,56.6-2.6,79.2,18.7l-2.1,2.2
				c-21.7-20.5-50.9-27.4-76.1-18.1C927.9,482.6,914.5,499.5,912.3,520.3z"/>
			<g>
				<polygon class="st0" points="1024.4,484.3 1024.6,491.5 1017.4,491.7 1020.5,494.7 1027.7,494.5 1027.5,487.3 				"/>
			</g>
		</g>
	</g>
</g>
</svg>
