<?xml version="1.0" encoding="utf-8"?>
<!-- Generator: Adobe Illustrator 19.1.0, SVG Export Plug-In . SVG Version: 6.00 Build 0)  -->
<svg version="1.1" id="Calque_1" xmlns="http://www.w3.org/2000/svg" xmlns:xlink="http://www.w3.org/1999/xlink" x="0px" y="0px"
	 viewBox="0 0 1043 646.9" style="enable-background:new 0 0 1043 646.9;" xml:space="preserve">
<style type="text/css">
	.st0{display:none;fill:#F7B5AC;}
	.st1{fill:#F7B5AC;}
	.st2{fill:#EB5C5F;}
	.st3{fill:#84B974;}
	.st4{fill:#010202;}
	.st5{fill:#AB7613;}
	.st6{fill:#C0BFBF;}
	.st7{fill:#6FA4C3;}
	.st8{fill:#1E1E1C;}
	.st9{fill:none;}
	.st10{fill:none;stroke:#EB5C5F;stroke-width:3;stroke-miterlimit:10;}
	.st11{fill:none;stroke:#6FA4C3;stroke-width:3;stroke-miterlimit:10;}
	.st12{fill:none;stroke:#84B974;stroke-width:3;stroke-miterlimit:10;}
	.st13{fill:none;stroke:#C0BFBF;stroke-width:3;stroke-miterlimit:10;}
	.st14{fill:none;stroke:#F7B5AC;stroke-width:3;stroke-miterlimit:10;}
</style>
<g>
	<g>
		<path d="M251.8,391.9c11,11,21.8,22.2,33.1,33c10.6,10.1,20.5,21,32.4,29.7c1.2,0.9,1.6,1.7,1.3,3.3c-0.5,2.6-0.8,5.3-0.9,8
			c-0.4,12.1-1.4,24.1-0.6,36.2c0.1,1.4-0.3,2.4-1.4,3.4c-1.4,1.4-3,1.6-4.8,1.7c-7.9,0-15.7,0.3-23.6,0c-8.4-0.4-16.8-1.2-25.2-2.2
			c-5.3-0.6-10.6-1.4-15.8-2.6c-9.8-2.2-19.6-4.6-29.1-7.9c-10.8-3.7-21.1-8.4-30.6-14.6c-2.9-1.9-5.1-4.2-6.1-7.8
			c-2.1-7.9-4.7-15.6-6.9-23.5c-2.2-7.9-4.1-15.9-6.1-23.8c-0.2-0.8-3.3-7-3.9-7.6c-0.4-0.4-0.7-0.9-1.1-1.4c-4-5.1-3.6-8.1,2-11.6
			c-1.6-3.5-2.4-7.3-0.8-11.1c1.8-4.4,5.4-5.4,9.8-4.8c0.2-4.1,2.1-7.3,4.6-10.2c2.6-2.9,5.8-3.3,9.3-2.3c0.9,0.2,1.7,0.7,2.7,1.1
			c1.3-4.1,2.7-8.1,7.6-8.9c4.2-0.6,8.2-0.2,11.6,3c0.6-4.7,3.2-8.5,6.3-9.4c4.4-1.2,8.3-0.3,11.1,3.8c0.6-0.8,1.2-1.3,1.7-2
			c1.4-2.1,3.2-3,5.7-2.7c0.8,0.1,1.6,0.1,2.4,0.2c7.3,1.3,11.1,4.5,11.2,11.5c0.1,3.8-1.6,7-3.1,10.3
			C246.4,386.3,249.1,389.2,251.8,391.9 M207.7,435.4c4.5,2.2,9.3,3.8,14,5.6c10.2,3.9,20.6,7.3,31.3,9.3c6.6,1.2,13.2,2,19.7,3.5
			c8.2,1.9,16.5,1.7,24.7,2.4c4.6,0.4,9.2-0.4,13.8-0.7l0.7-1c-0.6-0.3-1.4-0.4-1.9-0.9c-5.5-5.1-11.1-10.1-16.5-15.3
			c-5.7-5.4-11.3-10.9-16.9-16.4c-9.2-9.1-18.5-18.3-27.6-27.5c-2.3-2.3-4.3-5-6.1-7.7c-1.2-1.9-2.7-2.9-4.9-2.7
			c-6.5,0.6-13.3,0.4-19.5,2.1c-10,2.7-19.6,6.8-27.3,13.9c-4.7,4.3-8.2,9.6-10.7,15.5c-0.4,0.8-0.5,1.8-0.6,2.4
			C188.5,425.1,197.9,430.7,207.7,435.4 M178.6,428.9c0.1,3.5,0.4,7,0.7,10.5c0.1,1.2,0.8,1.8,1.8,2.3c10.5,5.6,21.7,9.3,32.6,13.9
			c10,4.1,20.4,7.1,30.8,9.8c6,1.5,12.2,2.2,18.3,3.1c8.2,1.2,16.4,2.5,24.7,3.2c7.7,0.7,15.4,0.8,23.2,1.2c0.9,0,1.8-0.3,3-0.5
			c0.4-4.4,0.8-8.6,1.3-13.3c-4.5,0.3-8.9,0.7-13.3,0.8c-3.4,0.1-6.7,0-10.1-0.2c-4.1-0.2-8.2-0.5-12.2-1c-2.8-0.3-5.5-1-8.3-1.5
			c-5.4-0.9-10.9-1.7-16.3-2.7c-8.2-1.6-16.3-3.2-24.1-6.2c-6.2-2.4-12.7-4.3-18.8-6.9c-10.6-4.5-20.7-9.9-29.7-17.1
			c-0.7-0.6-1.5-1-2.9-1.9C178.9,424.9,178.5,426.9,178.6,428.9 M313.4,497.6c0-1.2-0.2-2.3-0.3-3.5c-10.4,0.6-20.7-0.7-30.9-2.1
			c-3.8-0.5-7.7-0.5-11.6-0.8c-8.1-0.8-16.3-1.8-24.2-3.9c-3.3-0.8-6.7-1.3-9.9-2.3c-13-4.2-26-8.6-38.9-13.1
			c-4.7-1.6-9.3-3.8-14.3-6c0.7,4.1,1.2,7.9,5.2,10.4c9.2,5.7,18.8,10.5,29,14c13.1,4.5,26.6,7.4,40.1,10.3c2.4,0.5,4.9,0.6,7.3,0.9
			c6.5,0.6,13,1.4,19.6,1.6c7.8,0.3,15.6,0.1,23.4,0.1c1.7,0,3.4,0,5.4,0C313.4,500.9,313.5,499.2,313.4,497.6 M241.2,380.3
			c1.6,0,2.5-0.6,3-2.3c0.6-2.6,0.6-5.1,0-7.6c-0.1-0.5-0.3-0.9-0.4-1.3c-1.1-2.9-8.6-5.6-11.8-3.8c-2.5,1.4-2.9,3.9-3,6.3
			c-0.1,2.8,0.3,5.6,0.5,8.7C233.6,380.3,237.4,380.3,241.2,380.3 M205.2,372.8c-1.8-1.5-6.8-1.4-9.1-0.1c-1.6,0.9-3,4.6-2.3,6.9
			c1.1,3.5,2.5,7,3.8,10.6c4.1-1.9,7.9-3.7,11.9-5.5C209.7,380.3,209.1,376,205.2,372.8 M194.1,392.6c-1.2-3.1-2.5-6.2-3.7-9.3
			c-1.4-3.6-7.8-5.4-10.9-1.7c-3,3.6-2.9,7.5,0.5,10.7c1.6,1.5,2.9,3.4,4.3,5.1c0.6,0.8,1.2,1.6,1.8,2.4
			C188.8,397.3,191.4,395,194.1,392.6 M225.8,380.6c-0.4-3.6-0.6-7.5-1.4-11.1c-0.9-3.8-5.7-5.5-9-3.3c-1,0.7-1.9,2.2-2,3.4
			c-0.1,3.4,0.2,6.7,0.3,10.1c0.1,1.1,0.2,2.3,0.3,3.3C217.9,382.2,221.6,381.4,225.8,380.6 M183.9,403c-1-0.8-2.1-1.7-3.1-2.6
			c-1.6-1.6-3.2-3.1-4.4-4.9c-1.3-2-3.2-2.7-5.3-3.1c-2.9-0.6-5.2,1.7-4.9,4.7c0.3,2.5,1.3,4.7,3.4,6.3c1.4,1,2.9,2,4.4,2.9
			c1.8,1.1,3.7,2,5.7,3.2C181.1,407.3,182.4,405.4,183.9,403 M173.4,411c-1.3-0.8-2.6-1.6-3.9-2.2c-2-1-4-1.3-5.8,0.5
			c1.7,5.3,6.5,8.9,12.3,8.9C177.5,413.3,177.5,413.3,173.4,411 M175.9,422.4c-1.7-0.3-3.2-0.5-5-0.8c0.8,6.7,2.8,12.8,4.4,19.1
			C175.1,434.6,174.3,428.6,175.9,422.4"/>
		<path d="M247.3,407.2c3.4,1.2,6.4,3.4,8,6.9c2.5,5.5-0.3,13.1-6,15.3c-0.1,1-0.2,2.1-0.3,3.1c-0.3,3.2-2.2,5.2-5,6.2
			c-4.3,1.7-8.6,0.8-12.5-1.4c-3.4-1.8-5.7-4.5-5.3-8.6c-1.1-0.5-2-0.8-2.7-1.3c-3.6-2.5-7.1-5-6.6-10.2c0.4-3.5,1.8-6.5,4-9.2
			c3.2-3.9,8.1-6.1,13.4-3.4c2,1,3.8,2.6,6.1,4.3C242.2,407.2,244.8,406.3,247.3,407.2 M226.3,413.8c2.4,1.8,3.4,1.7,5.8-0.4
			C229.5,410.7,228.3,410.8,226.3,413.8 M241.8,416.2c2.1,1.1,3.6,1.9,5.2,2.8c0.6-2.2,0.6-2.2-1.3-4.9
			C244.6,414.7,243.4,415.3,241.8,416.2 M235.8,428.4c0.3,0.3,1.3,0.5,1.6,0.2c0.5-0.5,1-1.3,1-1.9c-0.1-1.2-1.3-1.5-4.2-0.7
			C234.8,427.1,235.2,427.9,235.8,428.4"/>
		<g>
			<path class="st2" d="M558.8,303.4c-1.8-0.3-3.7-0.2-6.2-0.4c-1.9,0.3-4.4,0.4-6.7,1.2c-4.1,1.4-8,3.1-12,4.9
				c-1.3,0.5-2.4,1.4-3.6,2.2c-4.9,3.4-9.9,6.7-14.7,10.3c-5.6,4.3-11.2,8.6-16.2,13.4c-6.2,5.9-12,12.1-17.1,19
				c-1.9,2.6-3.8,5.4-5.1,8.4c-2.1,4.7-3.8,9.6-5.6,14.4c-5,13.1-6,26.7-4.8,40.4c0.4,4.7,1.7,9.4,3.2,14
				c3.6,11.3,9.8,20.4,21.7,24.5c5.1,1.8,10.3,2.6,15.5,1c7.4-2.2,12.9-3.4,21.9-7.4c9-4.1,12.5-7.1,16.1-13.4
				c3.6-6.3,4.5-13.8,3.6-19c-1.7-9.6-3.2-19.1-6.6-28.3c-1.2-3.2-2.1-6.5-2.4-9.9c-0.8-8.4-0.2-16.6,4-24.2
				c1.8-3.2,3.7-6.2,5.7-9.3c3.6-5.3,7.4-10.6,11-15.9c3.3-4.9,4.8-10.4,5.5-16.1C566.6,308.4,563.4,304,558.8,303.4z M516.9,351.5
				c-1.1,3.1-3.3,5-6.8,5.7c-0.7-4.7,0.7-7.1,4.3-8.2c0.7-0.2,1.7-0.1,2.1,0.3C517,349.7,517.1,350.8,516.9,351.5z"/>
			<path d="M463,410.1c-0.9-8,0.3-15.4,1.6-22.8c1.6-9.1,5.1-17.5,8.7-25.9c1.6-3.7,4.1-7.1,6.5-10.4c5.3-7.5,11.7-14,18.3-20.3
				c4.7-4.5,10-8.4,15.3-12.4c4.5-3.4,9.3-6.3,13.7-9.8c5.5-4.2,12.1-6.1,18.3-8.4c5.1-1.9,10.6-1.6,16.2,0
				c4.8,1.4,7.3,4.7,10.3,8.2c3.4,4,5.7,8.5,8,13.2c1.1,2.2,1.2,4.4,0.8,6.8c-1.4,8.7-4.7,16.9-8,25c-2.3,5.7-4.5,11.6-4.6,17.9
				c-0.1,6.7,0.4,13.3,1.7,19.9c1.6,7.9,4.4,28.3,1.7,40.6c-2.7,12.3-9.9,18.3-19.5,25.6c-8.1,6.1-25.9,10.8-30.4,11.3
				c-4.6,0.5-9.2-0.1-13.7-1.9c-4.6-1.9-9-3.9-13-6.7c-1.8-1.2-4.1-1.6-6.2-2.4c-8.1-3.2-13.9-9.1-18.1-16.5
				c-5.1-9-7.6-18.8-7.5-29.2C463.1,411.1,463.1,410.4,463,410.1 M552.6,303c-1.9,0.3-4.4,0.4-6.7,1.2c-4.1,1.4-8,3.1-12,4.9
				c-1.3,0.5-2.4,1.4-3.6,2.2c-4.9,3.4-9.9,6.7-14.7,10.3c-5.6,4.3-11.2,8.6-16.2,13.4c-6.2,5.9-12,12.1-17.1,19
				c-1.9,2.6-3.8,5.4-5.1,8.4c-2.1,4.7-3.8,9.6-5.6,14.4c-5,13.1-6,26.7-4.8,40.4c0.4,4.7,1.7,9.4,3.2,14
				c3.6,11.3,9.8,20.4,21.7,24.5c5.1,1.8,10.3,2.6,15.5,1c7.4-2.2,12.9-3.4,21.9-7.4c9-4.1,12.5-7.1,16.1-13.4
				c3.6-6.3,4.5-13.8,3.6-19c-1.7-9.6-3.2-19.1-6.6-28.3c-1.2-3.2-2.1-6.5-2.4-9.9c-0.8-8.4-0.2-16.6,4-24.2
				c1.8-3.2,3.7-6.2,5.7-9.3c3.6-5.3,7.4-10.6,11-15.9c3.3-4.9,4.8-10.4,5.5-16.1c0.6-4.7-2.6-9-7.2-9.7
				C557,303.1,555.1,303.2,552.6,303 M503.5,461.3c7.4,3.6,14.7,3.6,22.1,0.5c1.8-0.8,3.8-1.1,5.6-1.9c3.1-1.3,6.3-2.6,9.2-4.3
				c7.4-4.3,13.8-6.9,19-13.7c3.2-4.2,6.5-11.1,6.5-21.4c0-10.3-4.6-33-5.1-43.9c-0.5-8.8,0.1-17.3,5.3-24.9
				c0.9-1.2,1.5-2.7,2.1-4.1c2.2-5,4.8-9.9,6.2-15.3c1.8-7.1-0.6-12.9-4.5-19.3c-0.9,10.3-5.4,18.3-10.8,26c-3,4.2-6.2,8.3-9,12.6
				c-7.6,11.5-8.9,23.8-4.4,36.9c3.9,11.2,6.9,22.5,7.6,34.5c0.6,10.7-4.2,18.6-12.6,24.4c-4.1,2.8-8.8,4.9-13.3,7
				c-3.5,1.6-7.2,2.7-10.9,3.8C512.3,459.4,508,460.2,503.5,461.3"/>
			<path d="M480.4,405.8c-0.8-6.8,1-13.1,2.4-19.5c2.3-10.4,6.9-19.8,12.6-28.8c3.8-5.9,7.6-11.9,12.6-16.9
				c4.8-4.8,9.8-9.4,15.1-13.5c3.4-2.6,6.8-5.5,11.2-6.6c2.8-0.7,5.2-0.8,7.6,1.2c2.3,1.9,3.1,3.5,2.2,6.4c-1.1,3.6-2.6,6.9-5.2,9.8
				c-3.3,3.7-6.2,8-9.1,12.1c-2.2,3.1-4.6,6.2-6.2,9.6c-3.1,6.6-4.3,13.5-2.7,20.8c1.9,8.4,3.5,16.9,5.1,25.5
				c1.3,7.2,1.1,14.6-0.8,21.6c-0.9,3.4-2.8,6.9-5.2,9.5c-2.7,3.1-6.8,4.4-11,4.8c-9.4,0.8-16-3.8-20.7-11.3
				C483.6,423,480.5,414.8,480.4,405.8 M510.1,357.2c3.5-0.7,5.7-2.6,6.8-5.7c0.2-0.7,0.1-1.7-0.3-2.2c-0.4-0.4-1.5-0.5-2.1-0.3
				C510.8,350.1,509.4,352.5,510.1,357.2"/>
		</g>
		<path d="M841.4,497.6c1.6-1.2,3.4-2.7,5.3-4c1.9-1.2,3.9-2,5.9-3c-4.1-3.1-9.3-5.1-12.5-10.3c6.1-0.9,11.5-1.9,17.1-0.3
			c0.8,0.2,1.6,0.3,2.4,0.5c2.2,1.8,4.6,3.2,7.5,4c0.4-1.6,0.7-3,1.2-5.1c-3.1,2.5-6,1.6-8.8,1.2c-3-3.1-3.5-4.5-3.5-10.1
			c-2.3,0.4-4.8,0.7-6.4-1.3c-1.4-1.8-2.3-3.9-3.5-6c-7.5,1.2-11.3-1.9-11.2-10c-0.7,0.1-1.3,0.2-1.9,0.4c-2.6,0.7-4.9,0.4-6.8-1.7
			c-2-2.2-2.5-4.8-1.6-7.5c0.8-2.5,1.6-5.1,4.6-6.6c-3.6-1.1-6.8-2.2-10.1-3.1c-1.8-0.5-3.1-1.4-3.7-3.3c5.2-1.9,8.8-5.9,12.8-9.2
			c3.3-2.8,7-4.6,11.3-5.1c3-0.4,5.9-1.7,9.3,0.2c-0.1-5.7,1.6-10.5,3.7-15.2c0.3-0.6,0.5-1.3,0.9-1.9c1.7-2.7,3.8-3.4,6.7-2.3
			c1.2,0.5,2.5,0.9,3.6,1.5c1.6,0.9,1.9,2,0.7,3.5c-2.3,2.9-3.4,6.4-4.5,10.3c6.3-3.7,13.1-3.7,19.6-5.2c2.1-0.5,4.1-1.4,6.3-2.2
			c1.5,1.6,1.8,3.3,0.4,5.2c-1.6,2.3-3.3,4.4-5.2,6.9c5.8-1.8,9.9,0.9,13.5,4.9c3.7-5.7,8.5-10.3,13.8-14.4c4-3.1,8.7-4.6,13.5-5.8
			c1.8-0.5,4,0.5,6.6,0.9c1-1.2,2.4-2.9,4-4.5c3.7-3.9,7.5-7.7,11.3-11.5c2.1-2.1,4.6-3.4,7.6-4c1.5-0.3,2.2,0.1,2.9,1
			c0.6,0.8,1,1.9,1.5,2.8c2.4,4.1,1.7,6.7-2.3,9.3c-1.2,0.8-2.4,1.4-4.4,2.6c9.2,0.1,17.2,1.6,24.1,6.8c-4.2,9-14.4,15.5-21.4,17.3
			c-1.6,3.7-1.3,13.6-0.9,19.5c-0.1,34.4,35.7,42.4,23,87.3c-1.1,5.1-5,10.9-7.8,14c-3.6,4-8.1,7.2-13.1,9.3
			c-8,3.2-16.3,4.1-24.8,2.7c-0.8-0.1-1.6-0.3-2.3-0.6c-5-2.4-10-4.7-14.8-7.2c-1.4-0.7-2.4-2.2-3.6-3.4c-1.9,0.9-4.1,1.8-6.1,2.9
			c-7.6,1.5-14.7,2.2-18.6-0.2c-1.6-0.2-2.7,0.4-3.6,1.6c-1.9,2.5-9.2,4.9-9.9,5.2c-7.9,3.2-15.6,2.1-23-1.6
			c-4.5-2.3-7.4-6.4-10.3-10.4c-4.2-5.7-5-11.2-5.1-18.7C830.9,511.3,834.7,504.3,841.4,497.6 M889.7,437.9
			c3.3,5.6,2.4,10.6-1.2,13.8c-2.5,2.3-3.2,4.8-3.3,8.1c2.7,0.2,4.1,1.9,5.4,4.1c-2,2.1-4.1,4.2-6.6,6.8c4.9-2.4,9.1-4.5,13.3-6.4
			c2.9-1.3,5.7-2.6,7.1-5.7c2.4,1.8,2.6,2.1,2.5,4.4c-0.1,3-0.7,5.8-2.2,8.4c-1.6,2.7-3.1,5.4-4.9,8.4c5.4-0.5,10,0.9,14.2,3.9
			c0.4,0.3,0.9,0.3,1.3,0.6c1.6,1.3,3.7,2.3,4.8,3.9c6.7,9.4,8.9,19.9,6.6,31.3c-1.3,6.4-4.3,11.7-8.4,16.6c-2.3,2.8-5,5.1-7.7,7.1
			c0.8,0.8,1.4,1.5,2.1,2.2c0.4,0.4,0.7,1,1.1,1.2c4.5,2,8.8,4.7,13.5,5.8c9.8,2.3,19.3,0.6,28-4.7c2-1.2,4.1-2.5,5.5-4.3
			c3.7-4.8,7.1-10,8.4-16.1c1-4.8,2.4-9.7,2.2-14.5c-0.4-7.6-3.4-14.8-7.1-21.5c-4.3-7.7-8.9-15.2-12.8-23c-4.3-8.4-6.6-17.5-7-27
			c-0.2-5.2,0.2-10.4,0.3-15.9c-1.5,0.2-3.2,0.5-4.9,0.7c-6.5,0.6-11.8-2.3-16.9-5.6c-1.2-0.8-1.3-1.9-0.9-3.1
			c1.3-3.8,2.6-7.6,3.9-11.6c-4.7-0.3-9.2,1.5-13.1,4.2c-6.6,4.5-12.4,9.9-16.2,17.3C894.8,431,892.2,434.2,889.7,437.9
			 M884.1,543.4c12.2,3,18.1-0.3,26.1-6.8c5.8-6.8,10-14.5,11.3-23.5c1.5-10.8-1.1-19.9-10.6-26.4c-5.6-3.8-12.7-4.4-19.3,0.1
			c-3.7,2.5-8,4.3-11.9,6.6c-2.5,1.4-5.4,0.7-7.8,1.7c-3.2,1.3-6.1,1.2-9.1-0.2c-4.2-2-8.3-1.3-12.3,0.9c-5.8,3.1-10,7.6-12.8,13.5
			c-3.2,6.5-3.9,13.4-3.4,20.4c0.3,4.5,2,8.6,4.6,12.3c4.4,6.3,10.4,9.9,17.8,11.3c1.7,0.3,3.6,0.4,5.2,0c2.9-0.7,5.7-2,8.6-2.8
			c3.4-1,5.9-3.5,8.2-5.9c0.8-0.8,0.3-2.8,0.5-4.3c0-0.2,0.2-0.4,0.4-0.6C883.2,539.1,883.2,539.1,884.1,543.4 M930.9,412.9
			c3.5-0.8,6.7-1.6,10-2.4c3.4-0.8,6.7-0.4,10.1,0.4c0.7,0.2,1.2,0.8,2.4,1.7c-4.4,1.9-8.4,0.5-12.2,1.5c-3.9,1-7.8,2.1-11.7,3.8
			c8.3,4.3,31.5-2.6,38-11.2C957,400.3,939.3,402.2,930.9,412.9 M821.9,432.2c4.5,2.2,12.8,2.2,16.9,0.1c0.4-0.2,0.8-0.5,1.1-0.9
			c2.7-3.2,6-4.3,10-3.1c0.2,0,0.4-0.2,0.7-0.4c-0.6-2.5-1.2-5.1-1.8-8.1c-1.3-0.2-2.9-0.8-4.2-0.6c-3.8,0.6-7.6,1.3-10.9,3.5
			c-1.8,1.3-3.5,2.7-5.2,4.1C826.2,428.6,824.1,430.4,821.9,432.2 M900.8,466.8c-11.5,3.8-20.5,9.6-24.1,22
			c3.8-2.1,7.2-3.9,10.5-5.8c2.4-1.4,4.9-2.8,7-4.6C897.6,475.5,899.9,471.8,900.8,466.8 M858.8,425.9c4.1-1.2,8.2-2.3,12.1-3.6
			c1-0.3,1.8-1,2.6-1.6c3-2.5,5.4-5.6,7.9-9.1c-2.6,0.3-4.8,0.5-7,0.8c-1.7,0.3-3.4,0.6-5.1,1.1c-3.5,0.8-6.6,2.4-9,5.1
			C858.2,420.7,857.8,423,858.8,425.9 M889.3,428.9c0-2.4-0.5-3.6-2.1-4.9c-4-3.4-7.5-2.2-10.6,1.4c-2.1,2.3-2.1,5.4-0.6,7.4
			c2.2,2.9,4.7,3.5,8,1.9c1-0.5,2-1.2,3-1.7C888.7,431.9,889.6,430.6,889.3,428.9 M841.6,443.4c0.8,0.3,1.6,0.8,2.5,0.9
			c2.2,0.2,4.6,1.2,6.6-0.8c1.8-1.8,2.7-3.9,2.4-6.3c-0.3-2.2-1.1-4.1-3.7-4.8c-1.3-0.4-2.4-1.6-3.8-0.8c-1.1,0.7-2.2,1.7-3,2.7
			C840.7,437,839.6,439.9,841.6,443.4 M873,446.6c0,0.2,0,0.6,0,1.1c0.4,3.7,1.9,4.8,5.4,3.5c2-0.8,3.9-2.1,5.5-3.5
			c1.9-1.8,1.2-5.8-0.6-7.5c-1.8-1.6-3.5-0.4-5.1-0.1C874.5,440.8,872.6,442.8,873,446.6 M846.1,483c2.6,2.4,5.1,4,8.1,4.8
			c3.1,0.9,6.1,2.2,9.2,3.2c1.8,0.6,3.6,0.8,5.1-0.8C861.4,482.7,854.5,481.7,846.1,483 M858,454.3c4.2-0.3,6-2,6.9-4.8
			c0.7-2.1-0.2-3.7-1.4-5.1c-1.3-1.6-2.7-0.5-4,0.2c-0.5,0.3-1.1,0.4-1.6,0.7c-2.1,1.1-3.4,3.9-3.1,6.2
			C855,453.5,856,454.4,858,454.3 M860.4,401.2c-1.8-0.8-2.8-0.2-3.6,1.2c-3.7,6.7-5.1,13.8-3.8,21.4c0.2,1.3,0.9,2.5,1.4,3.7
			C854.6,418.2,856.4,409.4,860.4,401.2 M846.4,451.5c-1.1,0.1-2.2,0.1-3.3,0.2c-2.6,0.1-4.6,2-4.7,4.6c-0.1,3.1,1.7,4.6,4.7,3.9
			C846.7,459.3,848.1,455.5,846.4,451.5 M872,487.9c2.3-8.6,5.7-16.6,10.8-24.2c-0.5,0-0.6,0-0.7,0.1c-0.9,0.9-1.7,1.9-2.6,2.8
			c-5.3,4.9-7.4,11.3-9,17.9C870.1,485.9,870.1,487.4,872,487.9 M865.2,467.7c-3.9-1.5-7.8,6.8-4.8,8.9c3,2.2,6.6,1.4,7.6-2.3
			C868.5,472.7,869.1,469.2,865.2,467.7 M868,428.7c-1.1,0.1-2.2,0.2-3.3,0.4c-2,0.4-3.2,1.8-3.3,4c-0.1,1.4,0,2.9,1.5,3.6
			c1.8,0.8,3.4,0,4.8-1.2C869.9,433.4,870,431.3,868,428.7 M850.4,464.7c0,2,0.5,2.9,1.7,3c3.4,0.3,6.3-3,5.5-6.3
			c-0.5-1.9-2.4-2.8-4.1-1.7C851.7,460.8,850.2,462.3,850.4,464.7 M933.9,403l0.6,0.6c5.6-4.8,11.2-9.5,16.8-14.3
			c-0.2-0.4-0.3-0.7-0.4-1c-0.2-0.3-0.4-0.6-0.7-1.1C943.9,391.8,938.7,397.2,933.9,403 M833.5,443c-0.9,0.1-1.7,0.1-2.5,0.2
			c-0.6,0.1-1.4,0.1-1.8,0.5c-1.3,1.6-1.9,3.4-1.3,5.5c0.4,1.4,1.2,1.8,2.6,1.5C833.7,449.8,835,446.9,833.5,443 M878,455.9
			c-2.8,0.9-1.4,5.4-1.9,7.5c2.7-0.9,6.1-5.2,6.1-9C881.1,454.6,880.7,455,878,455.9 M868.5,462.4c2.6,0,3.4-1.6,3.4-3.1
			c0-1.5-1.6-2.7-3.6-2.1C865.3,458,866,462.4,868.5,462.4 M836.2,438.6V436c-1.1,0.4-1.9,0.7-3,1.2
			C834.3,437.7,835,438,836.2,438.6"/>
		<path d="M845.7,232.3c-4.4-0.8-8.6-1.5-12.8-2.5c-2.6-0.6-5.2-1.4-7.6-2.6c-2.6-1.2-3.2-3.7-1.6-6.1c1.3-2.1,2.8-4.1,4.5-5.8
			c5.8-6.1,11.7-12.2,17.8-18.1c7.3-7.2,14.7-14.1,22.1-21.2c0.1-0.1,0.2-0.1,0.3-0.2c1.7-4,5.5-3.9,8.8-4.4
			c6.1-0.8,12.2-1.5,18.5-1.3c8.4,0.3,16.8-0.1,25.2-0.1c3.5,0,14.2,0.6,16,0.6c3.5,0,7,0.1,10.5,0.4c1.9,0.2,3-0.6,4.3-1.7
			c4.5-3.8,19.3-17.5,23.9-21.1c0.8-0.6,1.8-1.1,2.8-1.3c3.8-1.1,5.7,0,7.1,3.6c0.6,1.6,0.3,3-0.7,4.2c-1.6,2-3.3,4-5.2,5.6
			c-4.5,3.9-19.4,17.7-24.2,21.6c1.9,4.1,3.6,8.2,6.3,11.8c1.8,2.4,3.4,5.1,5.1,7.6c5.1,7.5,10.3,15.1,15.5,22.6
			c0.6,0.9,1.6,1.5,2,2.3c0.5,0.8,1,2.1,0.7,2.8c-0.3,0.8-1.5,1.5-2.4,1.7c-3.7,0.9-7.5,1.6-11.2,2.2c-2,0.3-4.1,0.3-6.5,0.5
			c0,2.1-0.1,4.2,0,6.3c0.7,9.4,0.8,18.7,0,28.1c-0.3,3.7-0.1,7.5-0.1,11.2c-0.1,10.1-0.1,20.2-0.2,30.2c0,4-0.3,8-0.3,11.9
			c0,2.2,0.4,4.4,0.8,6.6c0.3,2,0.1,3.3-1.8,5c-8.9,7.8-19.6,10.5-30.9,11.9c-3,0.4-6,1-9,1.3c-11.9,1.4-23.8,1.4-35.7-0.2
			c-8.6-1.1-16.9-3.2-25.1-5.9c-1.5-0.5-3-1.5-4.5-2c-5.6-1.7-7.9-6-8.4-11.3c-0.5-5.1-0.5-10.3-0.8-15.4c-0.2-4-0.5-7.9-0.8-11.9
			c-0.1-2.2-0.3-4.4-0.4-6.7c-0.2-5.3-0.4-10.7-0.6-16c-0.1-2.3-0.2-4.7-0.3-7c-0.2-6.8-0.4-13.6-0.7-20.4
			C846.2,243.8,846,238.4,845.7,232.3 M944.7,190.5c1.6,2.4,3.2,4.6,4.6,6.9c3,5,5.9,10.1,8.7,15.3c0.4,0.8,0.5,2.3,0.1,2.8
			c-1.2,1.2-2.7,2.3-4.2,2.8c-1.9,0.6-3.9,0.7-5.9,0.7c-4.9,0.2-9.9,0.2-14.8,0.3c-4.4,0.1-8.9,0.5-13.3,0.5c-5,0-10.1-0.4-15.1-0.5
			c-4.9-0.2-9.8-0.3-14.8-0.4c-7.1-0.2-14.3-0.3-21.4-0.4c-0.8,0-1.6,0.2-2.4,0.4c-5.8,1.3-11.6,0.9-17.4,0.3
			c-0.9-0.1-2-0.7-2.6-1.5c-1.2-1.4-0.8-2.3,1.1-4.2c4.1-3.9,8.4-7.6,12.3-11.6c4.3-4.5,8.2-9.3,12.4-13.9c2.4-2.7,4.9-5.1,9.1-4.6
			c1.9,0.2,4-0.2,5.9-0.4c12.2-1.1,24.5-1.6,36.7-0.1c2.6,0.3,5.4,0,8.1,0c1.3,0,2.5,0.2,4.2,0.3c3-2.5,6.3-5.4,10.2-8.6
			c-1.5-0.2-2.4-0.5-3.3-0.5c-6.7-0.2-13.3-0.6-20-0.6c-11.1-0.1-22.3,0.1-33.4,0.2c-3,0-6.1,0-9.1,0.4c-2.5,0.4-5.5,0.7-7.2,2.2
			c-6.9,6.1-13.5,12.7-20.1,19.2c-7.1,7-14.2,14-21.2,21.1c-2,2.1-4.2,4.1-4.9,7.5c1.1,0.3,2.1,0.7,3.2,0.9c5.3,0.8,10.7,1.4,16,2.4
			c9.7,1.8,19.4,2.4,29.2,2c6.5-0.3,13.1-0.1,19.6-0.1c5,0,10,0.5,14.9,0.4c8.4-0.2,16.8-0.8,25.2-1.1c7.8-0.3,15.7-0.5,23.5-0.7
			c1,0,8.5-0.2,9.4-0.3c2.7-0.2,5.4-0.4,8-0.7c1.2-0.2,2.3-0.7,3.3-1c-4.8-7-9.5-13.7-14-20.6c-4.4-6.8-8.4-13.8-12.6-20.8
			C950.2,186.4,947.4,188.5,944.7,190.5 M852.7,313.9c0,1.8-0.1,3.7,0,5.5c0.3,3.2,1.3,6.5,1,9.7c-0.2,2.7,1,3.5,2.8,4.5
			c1.2,0.7,2.5,1.3,3.8,1.7c5,1.6,10,3.2,15.1,4.7c2.7,0.8,5.5,1.4,8.2,1.8c5,0.6,10,1.1,15,1.4c8.2,0.4,16.4,0.2,24.6-1
			c5.2-0.7,10.4-1.7,15.6-2.3c5.7-0.7,11-2.5,15.9-5.3c3.6-2,6.2-5,6.4-9.4c0.1-1.4,0.1-2.8,0-4.2c-0.1-2.4-0.3-4.8-0.5-7.5
			c-1.2,0.5-2.2,1.1-3.3,1.5c-5.6,2-11.2,4.3-16.9,5.7c-9.7,2.4-19.7,2.8-29.6,2.9c-2.8,0-5.6-0.3-8.4-0.4c-10.1-0.3-20-2-29.9-4.2
			C866,317.3,859.5,315.6,852.7,313.9 M961.9,233.2c-1.8,0.3-3,0.6-4.3,0.6c-9.1,0.3-18.2,0.6-27.3,0.7c-13.4,0.2-26.8,0.2-40.3,0.2
			c-12.8,0-25.5,0.5-38.2-1.5c-0.7-0.1-1.5,0.1-2.7,0.1c0.2,5.7,0.4,11.2,0.7,16.7c0.1,1.5,1.3,1.9,2.4,2c4,0.6,8.1,1.4,12.2,1.6
			c8.1,0.4,16.1,0.7,24.2,0.7c6.3,0,12.6-0.4,19-0.7c8-0.3,15.9-0.5,23.9-1c7.4-0.5,14.7-1.2,22-1.9c2.8-0.3,5.5-0.7,8.4-1.1V233.2z
			 M950.5,215c-1.6-5.2-6.5-7.4-9.3-11.5c-0.6-0.9-1.8-1.4-2.8-2.2c-1.2,2.5-2.4,4.8-3.5,7.1c1.7,0.9,3.4,1.7,4.9,2.5
			c-0.3,1.5-0.8,2.2-2,1.6c-2.7-1.3-5.2-0.3-7.8,0.4c-1.2,0.4-2.5,0.6-3.8,0.7c-0.6,0-1.7-0.2-1.8-0.6c-1-2.5-2.9-1.9-4.3-1
			c-1.9,1.3-3.5,0.7-5.2-0.2c-1.9-1.1-3.9-2.1-5.4-2.9c-2.1,0.7-3.7,1.3-5.6,1.9c-0.2-1.1-0.6-2.1-0.3-2.4c1.5-1.5,3.3-2.5,5-2.6
			c1.3-2.9,2.5-5.6,3.5-7.9c-3.4-1-7-1.7-10.3-3c-2.4-0.9-4.2-0.4-6.3,0.5c-2.3,1.1-4.7,2.4-7.2,2.5c-5,0.3-9.1,2.2-12.7,5.6
			c-1.7,1.7-4.3,2.5-6.1,4.1c-2.5,2.2-4.6,4.9-6.8,7.2c4.9,0,9.8-0.1,14.6,0c7.6,0.1,15.2,0.3,22.8,0.5c3.7,0.1,7.5,0,11.2,0.2
			c6.2,0.4,12.3,0.6,18.5,0.1C936.8,215.3,943.6,215.2,950.5,215 M869.3,311.6c0,0.3,0,0.7,0.1,1c2.4,0.4,4.8,0.9,7.1,1.1
			c0.9,0.1,1.9-0.2,2.7-0.6c5.2-3,10.4-5.8,15.4-9.1c8.9-5.9,17.5-12.2,26.5-17.9c13.1-8.4,25.9-17.3,38.1-27.1
			c0.7-0.5,1.8-0.6,2.9-0.9c0.1-0.6,0.2-1.5,0.4-2.4c-4,0.7-7.8,1.5-11.6,1.8c-1.9,0.2-3.3,0.9-4.7,2c-6.9,5-13.7,10.2-20.7,15
			c-8.9,6.2-18,12.2-27.1,18.2c-4.4,2.9-8.8,5.8-13.2,8.7C879.9,304.9,874.6,308.2,869.3,311.6 M962.1,261.8
			c-25.3,19.3-51.6,35.8-78.1,53.2c3.3,0.4,6,0.5,8.6,1.1c2.2,0.5,4,0.1,5.9-1.2c6.8-4.6,13.4-9.4,20.5-13.6
			c14.1-8.3,27.4-17.6,40.4-27.3c0.8-0.6,1.7-1.8,1.8-2.8C961.8,268.4,961.9,265.5,962.1,261.8 M939.7,259.5
			c-0.1-0.2-0.2-0.5-0.3-0.7c-3.1,0.3-6.3,0.9-9.4,0.7c-3.5-0.2-6,1.3-8.5,3.3c-3.9,3.1-7.9,6.2-12,9.1c-6.1,4.3-12.5,8.3-18.3,12.8
			c-11.6,9-24.2,16.5-36.5,25.2c2.4,0.4,4.7,0.8,6.9,1c0.8,0.1,1.8-0.1,2.5-0.5c8-5.1,15.9-10.3,23.8-15.6
			c11.7-7.8,23.4-15.5,35-23.4C928.7,267.6,934.2,263.5,939.7,259.5 M925.6,209.9c1.4-0.2,2.1,0,2.7-0.3c4.2-2.1,7.9-9.6,7.1-14.3
			c-0.2-1.1,0-1.6,0.9-2.3c7.4-5.7,14.1-11.5,21.4-17.3c3-2.4,16.3-14.9,19.1-17.5c1.9-1.8,4.2-4.1,5.6-6.3c0.9-1.4,0-2.5-1.7-2.3
			c-0.8,0.1-1.6,0.3-2.3,0.7c-2.2,1.4-4.4,4.4-6.4,6.1c-4.6,3.9-19.2,17.5-23.8,21.5c-5.4,4.8-10.9,8.5-16.4,13.1
			c-0.7,0.6-1.9,1-2.8,1c-9.2,0-14.6,6.3-16.5,14.6c-0.1,0.3,0.1,0.7,0.2,1.1c1.5,0.9,3,2.4,5,1.6c1.6-0.6,2.9-1.9,4.9-1.4
			c0.4,0.1,1-0.5,1.3-1c1.7-2.1,3.3-4.2,5-6.3c0.5-0.6,0.9-1.2,1.4-1.8l0.8,0.4C932,203.6,928.2,206,925.6,209.9 M901.8,261.5
			c-1.3,1.6-2.3,3-3.6,4.1c-2,1.8-4.1,3.4-6.3,5c-5.8,4.3-11.7,8.4-17.6,12.7c-6.4,4.7-12.8,9.4-19.2,14.1c-3.5,2.6-4.2,5-2.3,9.2
			c6.2-2.7,62.3-42.6,64.4-46C911.8,260.9,906.6,261.2,901.8,261.5 M961.1,277.6c-0.7,0.3-1.1,0.4-1.5,0.6
			c-4.9,3.6-9.6,7.4-14.6,10.9c-4.9,3.4-10,6.5-15,9.6c-4.2,2.6-8.4,5.1-12.5,7.8c-3.9,2.6-7.7,5.4-11.5,8.1
			c-0.9,0.6-1.8,1.3-2.7,1.9c3.4,0.6,6.5,0.7,9.6,0.5c1.8-0.1,3.8-0.3,5.4-1.2c4.7-2.6,9.4-5.4,13.8-8.5c8-5.5,15.5-11.8,23.8-16.8
			c5.2-3.2,6.1-7,5.3-12.2C961.3,278.2,961.2,278.1,961.1,277.6 M880.3,186.9c-1.5,3.1-0.1,5.6,1,8.1c4.9,0.1,8.1-0.4,11.6-2.5
			c3.4-2.1,6.7-2.4,10.2-0.6c2.6,1.4,5.4,2.1,8.5,1.8c2.8-0.3,5.4-0.8,8-2.2c2.2-1.2,4.8-1.7,7.3-2c1.9-0.3,3.2-0.9,4.2-2.6
			c-4.3-0.3-8.4-0.7-12.5-0.8c-5.9-0.2-11.9-0.3-17.8-0.1C894.2,186.1,887.4,186.6,880.3,186.9 M896.3,261.9
			c-4.4-1.1-7.9-0.1-11.1,2.4c-3,2.4-6.1,4.7-9.2,7c-7,5.2-14.1,10.5-21.2,15.6c-4,2.9-4.1,2.9-3.1,8
			C857.2,292,893.7,265,896.3,261.9 M851.5,284.7c6.5-4,29.6-21.6,31-23.7c-2.1-0.1-4.1-0.3-6-0.3c-0.7,0-1.5,0.4-2.2,0.9
			c-7.8,5.5-15.6,11.1-23.5,16.8C851,280.2,851.3,282.3,851.5,284.7 M926.6,316c5.7-1.1,10.7-1.1,15.1-4.5c6.3-4.9,13-9.1,19.4-13.5
			v-6.3C949.6,299.8,938.4,307.6,926.6,316 M856.7,216.1c3.1-3.4,5.9-6.6,8.9-9.6c1.5-1.5,3.3-2.5,5-3.8c1.6-1.2,3.2-2.3,4.8-3.5
			c2.4-1.8,3.3-4,2-6.9c-0.5-1-0.6-2.2-0.9-3.5c-8.4,9-16.7,17.7-25.1,26.7C853.3,215.7,855,215.9,856.7,216.1 M953.6,214.3
			c0.3-0.2,0.6-0.3,0.9-0.5c-3-7.6-7.9-14.2-12-21.4c-2,1.4-4.6,2.2-4,4.5c2.2,2,3.7,3.4,5.2,4.8c1.5,1.4,3.1,2.7,4.6,4.2
			c0.9,0.9,1.6,1.9,2.3,3C951.7,210.7,952.6,212.5,953.6,214.3 M869.2,260.8c-5-1.1-4.9-1-8.2,1.5c-3.2,2.4-6.6,4.6-10.2,7.2v4.3
			C857.1,269.3,863.1,265.1,869.2,260.8 M961.2,302.6c-4.3,3.3-8.8,5.2-12,9.2c4-1.1,7.9-2.2,12-3.3V302.6z M850.3,258
			c0.2,2.6,0.3,4.7,0.5,7.4c2.7-2,5.1-3.7,7.8-5.7C855.5,259,853,258.5,850.3,258"/>
		<path d="M711.1,36.7c9.9,0.2,17.6,0.1,25.3,0.5c8.2,0.4,16.4,1.1,24.3,3.3c5.6,1.6,10.3,4.3,14.5,8.6c3.7,3.8,3.6,7.8,2.9,12.2
			c-1.4,9.1-3.2,18.2-4.8,27.3c-1.6,9.3-3,18.7-4.7,28.1c-1.7,9.2-3.9,18.3-5.5,27.5c-1.5,8.5-2.6,17.1-3.6,25.7
			c-1.2,9.6-2,19.3-3.1,29c-0.3,2.7-1.2,5.5-2.2,8.1c-0.4,1.2-1.7,2.3-2.8,2.8c-10.2,4.4-20.9,6.6-31.9,7.5
			c-9.4,0.8-18.7-0.1-27.9-2.2c-2-0.4-3.9-1.5-5.8-2.4c-2.5-1.2-5-2.5-7.6-3.7c-4.6-2.1-6.9-5.8-7.7-10.6c-0.8-4.4-1.5-8.8-2.1-13.2
			c-0.9-6.7-1.8-13.5-2.6-20.2c-0.9-7.3-1.6-14.7-2.4-22c-0.5-4.5-1.1-9.1-1.5-13.6c-0.5-4.9-0.9-9.8-1.4-14.7
			c-1.1-9.6-2.3-19.3-3.3-28.9c-0.9-8.7-1.6-17.5-2.3-26.2c-0.1-1.6-0.2-3.3-0.5-4.9c-0.5-2.9,0.8-5,3.1-6.4
			c3.9-2.4,7.9-4.4,12.5-5.3c5.7-1.1,11.3-3.1,17.1-3.9C695.7,38,704.5,37.4,711.1,36.7 M759.2,129.7c3.5-23.8,9.7-46.8,13.8-70.2
			c-4.9,1.2-9.3,2.7-13.9,3.3c-8.2,1.1-16.5,2.2-24.8,2.3c-12.7,0.2-25.5,0-38.3-0.8c-9.2-0.6-18.3-2.5-27.4-3.9
			c-3.5-0.5-7-1.4-10.9-2.2c2.6,24.1,5.1,47.8,7.7,71.4c2.1-0.3,3.7-0.3,5.3-0.7c11-2.7,22.2-3.9,33.4-4.4c11.3-0.5,22.7,0,34.1,0.5
			c4.8,0.2,9.7,1.3,14.5,2.3C754.7,127.9,756.8,128.8,759.2,129.7 M666.4,136.9c0,1-0.2,1.9-0.1,2.7c0.4,4,0.8,7.9,1.3,11.8
			c0.7,5.8,1.5,11.6,2.2,17.4c0.7,5.2,1.4,10.4,2.1,15.6c0.6,4.5,1.3,9,1.8,13.5c0.3,2.5,1.7,3.7,3.9,4.4c7.5,2.6,14.8,6,22.9,6.2
			c7.4,0.2,14.8,0.4,22.1-0.1c5.2-0.3,10.4-1.6,15.5-2.7c3-0.6,5.8-1.8,8.7-2.8c1.2-0.4,1.7-1.3,1.9-2.6c0.7-5.3,1.5-10.7,2.2-16
			c1.3-9.7,2.7-19.5,4-29.2c0.9-6.5,1.9-12.9,2.8-19.5c-0.5,0.1-0.8,0.1-1,0.3c-6.3,4.2-13.5,5.8-20.8,6.9c-7.3,1.1-14.6,1.5-22,0.9
			c-6.6-0.6-13.3-0.5-20-0.9C684.5,142.3,675.4,140.4,666.4,136.9 M657.5,54.2c1.8,0.5,3,0.9,4.3,1.1c5.6,1,11.3,2.1,16.9,3
			c5.4,0.8,10.9,1.6,16.3,2.1c5.5,0.5,11,0.7,16.5,0.9c5.8,0.2,11.7,0.6,17.5,0.2c9.9-0.6,19.8-1.4,29.7-2.6c4.1-0.5,8.2-2,12.1-3.4
			c3.1-1.1,3.2-2.5,0.8-4.9c-3-2.9-6.6-4.8-10.6-5.8c-10-2.6-20.3-3.6-30.5-4c-11.5-0.4-22.9-0.2-34.3,1.2
			c-10.1,1.3-20.1,2.9-29.8,6.4C663.2,49.4,660,50.8,657.5,54.2 M669.2,132.8c0,0.3,0,0.7-0.1,1c0.4,0.2,0.7,0.6,1.1,0.7
			c4.3,1.2,8.5,2.7,12.9,3.3c8.7,1.3,17.4,2.1,26.2,2.1c4.7,0,9.3,0.7,14,0.5c7.6-0.3,15.1-1.4,22.5-3.5c3.3-0.9,6.4-2.7,9.6-4.1
			c0-0.3,0-0.6-0.1-0.9c-2.3-0.6-4.6-1.6-7-1.9c-8.5-0.8-17-1.5-25.5-2.1c-2.9-0.2-5.9-0.2-8.8-0.2c-3.2,0-6.3,0-9.5,0.3
			c-6.2,0.5-12.3,1-18.5,1.8C680.4,130.8,674.8,131.9,669.2,132.8"/>
		<g>
			<path d="M798.1,427.3c-0.3,8.9-1.1,18.1-3.5,27.1c-4.5,17.5-10.4,34.4-17.9,50.8c-3.2,7.1-7.7,13.6-11.9,20.2
				c-4.1,6.5-8.5,12.9-13.1,19c-6.4,8.4-12.9,16.6-21.4,23c-5.6,4.2-10.8,9-16.5,13c-6.8,4.8-13.8,9.1-20.9,13.4
				c-6.5,3.9-13.1,7.7-19.9,11.1c-4.8,2.4-9.9,5.1-15,6.7c-8.8,2.8-37.8,10.1-48.3,11.2c-10.5,1.1-17.6,1.7-21.9,2
				c-5.9,0.4-11.9,1.1-17.8,1.1c-6.4,0-12.8-0.3-19.2-0.9c-6.5-0.6-13-1.5-19.4-2.5c-4.8-0.8-9.5-2.3-14.4-3
				c-8.1-1.1-15-4.9-22.2-8.3c-7.9-3.6-15.6-7.6-22.7-12.5c-6.7-4.6-13.5-9.2-19.8-14.4c-8.4-6.9-16.6-14.1-23.6-22.4
				c-6.1-7.2-11.5-14.9-17.5-22.2c-6.7-8.2-10.4-17.9-14.6-27.4c-7-15.6-10.7-32.1-13.7-48.8c-1.2-6.4-1.4-13-1.7-19.5
				c-0.4-7.9-0.7-15.9-0.4-23.8c0.2-8.3,1.4-16.5,3.1-24.6c3-13.8,5.8-28.4,11.1-41.4c4-9.8,13.8-35.6,30-53.1
				c3.9-6.1,19.7-21.5,22.6-24.1c4.9-4.3,10.1-8.3,15.1-12.4c5.9-4.8,26.9-14.7,30.4-16.6c6.2-3.5,12.9-5.9,19.6-8.1
				c9.2-3,18.5-5.4,27.9-7.8c35.1-9.9,67.9-2.7,83-0.3c2.3,0.4,26.4,7,35.8,11c9.1,3.9,18.1,8,27.1,12.2c8.2,3.8,12.4,6.4,23.3,13.6
				c10.8,7.2,37,28.2,50.4,44.9c3.4,4.7,6.9,9.4,10.1,14.3c11.7,18.3,21.6,49.2,22.8,58.3c1,8.1,2.7,16.1,3.8,24.2
				C797.4,415.7,797.6,421.4,798.1,427.3 M383.6,428.2c0.3,5.6,0.7,11.2,0.8,16.8c0.1,9.1,1.3,18.1,3.2,27c1.6,7.4,3.5,14.8,5.6,22
				c2,7,4.9,13.8,8,20.5c2,4.2,3.4,8.8,5.8,12.7c3.9,6.5,8,12.8,12.9,18.7c5.5,6.6,11,13.3,17,19.6c10.2,10.5,21.5,19.8,33.6,28
				c9.4,6.4,19.4,11.8,29.8,16.3c5,2.2,10,4.4,15.3,5.9c5.7,1.6,11.7,2.3,17.5,3.6c12.4,2.7,24.9,3.2,37.5,3.1
				c8.4-0.1,16.9-0.4,25.3-1.8c8.2-1.4,16.4-2.1,24.5-3.7c9.3-1.9,18.4-4.2,27.3-7.4c3.9-1.4,8-2.4,11.8-4.1
				c7.7-3.5,15.2-7.2,22.8-10.9c11.8-5.8,22.7-13,33-21.2c5.5-4.5,10.9-9.2,16.1-14c3.7-3.4,7.1-7.1,10.3-10.9
				c2.8-3.2,5.3-6.8,8-10.2c3.3-4.1,6.7-8,9.5-12.5c7.8-12.4,14.8-25.2,19.4-39.1c3.3-9.9,12-31.4,13.9-51.3
				c0.3-3-0.1-15.8-0.2-18.8c-0.2-4.2-0.7-8.4-1.3-12.5c-1.2-7.5-2.2-15-4.1-22.4c-1.9-7.7-4.5-15.2-7-22.7c-1.4-4.2-3-8.4-5-12.3
				c-2.2-4.4-4.9-8.6-7.6-12.9c-2.8-4.5-5.5-9.2-8.7-13.5c-3.9-5.2-8.1-10.2-12.4-15.2c-3.4-4-6.8-8.1-10.7-11.6
				c-5.6-5-11.6-9.4-17.4-14.1c-8.2-6.7-17-12.4-26.2-17.6c-10.3-5.8-21.2-10.4-32-14.9c-10.1-4.2-20.8-7.3-47.1-12.8
				c-24.7-5.3-42.5-3.7-54.1-2.5c-7.2,1.3-14.4,2.9-21.5,4.7c-8.6,2.2-17.1,4.7-25.5,7.4c-9.8,3.1-19.1,7.6-28.3,12.2
				c-9.6,4.7-18.6,10.3-26.5,17.5c-5.5,5-10.8,10.3-16.1,15.6c-21.3,21.5-34.9,47.3-42.8,69c-4.2,9.2-7.2,24.4-9.8,34.1
				C385,403.7,383.5,415.9,383.6,428.2"/>
			<path d="M517.3,556.2c-11.6-5.1-24.3-12.6-29.3-16.3c-7.5-5.7-13.7-12.6-20.3-19.2c-2.8-2.8-4.7-6.3-7.2-9.5
				c-6.5-8.5-11.1-18.2-15-28c-2.3-5.7-7.6-21.4-8.3-30.4c-0.7-9-1-21,0-31.5c0.9-9.8,1.2-20.8,3.9-30.3c5.8-30.5,26.6-62,46.1-78.6
				c14.3-12.2,41-22.9,47.6-24.9c7-2.1,20.3-5.5,32.7-6.7c20-1.8,36.5,3.5,43.3,5.2c6.8,1.7,13.5,3.8,20,6.2
				c4.3,1.5,8.4,3.5,12.4,5.7c8.2,4.7,16.5,9.2,24,15c7.7,6,15.7,11.8,21.8,19.7c1.1,1.4,2.9,2.4,4.1,3.8c4.9,5.8,8.8,12.3,12.3,19
				c1,1.9,2.2,3.6,3.1,5.5c5.7,11.8,10.3,24,12.7,37c0.6,3.4,0.8,7,0.8,10.5c0.1,8.6,0.3,17.2,0,25.8c-0.4,10.4-3.5,20.2-6.7,30
				c-6.1,19.7-22.9,46.1-42.3,62.1c-6.4,6.6-13.6,12.4-21.6,17.2c-10.6,6.4-30.1,16.5-43.9,20.3C592,567,550.8,571,517.3,556.2
				 M445.6,428.4c-1.8,33.6,14.8,65.2,20.2,74.3c16.1,27.4,43.9,46.5,53.5,50c14.4,5.3,21.6,8.7,44.4,10.6c22.8,1.8,45.7-3.7,54-7.1
				c8.3-3.4,16.4-7.4,24.4-11.4c10.4-5.2,19.6-12.3,27.9-20.5c21.3-19.6,38.6-50.3,39.8-53.9c2-5.6,3.9-11.2,5.5-16.9
				c1.8-6.5,3.3-13.1,3.3-20c0-4,0-8,0-12.1c0-5.4,0-10.8-0.2-16.2c-0.2-7.3-1.8-14.4-4.3-21.2c-3.2-8.9-6.4-17.8-11.2-26.1
				c-3.8-6.7-7.3-13.6-12.7-19.2c-4.3-4.5-8-9.5-12.7-13.6c-10.1-8.7-21.2-16.1-32.8-22.6c-10.1-5.7-20.6-10.4-32.1-12.7
				c-2.7-0.5-5.4-1.5-8.1-2c-21.1-4.3-31.2-5.3-58.7,1.4c-6.9,1.8-13.8,3.6-20.4,6.3c-23,8-47.4,34.2-56.8,48.4
				C459.3,358,448.1,381.6,445.6,428.4"/>
			<path d="M257.9,285.9c0.5,1.4,1.1,2.7,1.4,4.1c0.7,3,1.6,6.1,1.7,9.2c0.1,1.6-0.8,4.1-2,4.8c-4,2.2-5.1,5.6-5.7,9.6
				c-0.1,0.6-0.8-1.1-1.2-0.6c-4.2-1.1-8.3-1.8-12.1-3.3c-7.6-2.9-15-6.3-22.5-9.4c-8-3.3-16.1-6.5-24.2-9.7
				c-12.2-4.9-24.3-9.9-36.4-14.8c-5.6-2.3-11.4-4.2-17-6.7c-6.9-3-13.8-6.3-20.6-9.6c-10.5-5.1-20.2-11.7-28.6-19.8
				c-3.3-3.2-6.5-4.3-9.3-7.9c-2.6-3.4-2.8-7.6-2-11.7c0.9-4.8,6.2-9.2,12.4-9.4c7.6-0.2,15.2-0.1,22.7,0.8
				c14.2,1.8,28,5.4,41.3,10.9c11.6,4.8,23.5,9,35.2,13.7c7.6,3,14.9,6.5,22.4,9.8c11.7,5.2,23.3,10.5,34.9,15.7
				c2.4,1.1,4.8,2.3,7.3,2.5c4.3,0.5,7.5,3,10.8,5.3c5,3.6,4.3,9.7-1.1,12.5C263,283.4,260.7,284.5,257.9,285.9 M116.4,216.7
				c-8.3-0.2-15.8-0.8-23.4-0.5c-3.5,0.1-7,1.9-8.2,5.7c-1.1,3.6,1.2,6.4,3.4,8.9c0.7,0.8,11.8,10.6,19.8,15.5
				c18.2,10,37.2,18.3,56.5,26c15.8,6.3,31.5,13.1,47.4,19.2c11.9,4.6,24,8.6,35.9,12.8c1.5-1,2.7-2.2,4.1-2.9
				c4.8-2.2,5.2-3,3.6-7.7c-0.4-1-1-2-1.4-3c-2.5-5-1.9-7.2,2.6-10.3c0.9-0.6,2-1.1,2.9-1.6c0.9-0.6,1.8-1.2,2.1-1.4
				c-4.8,1-9.9,2.6-15.2,3.2c-2.8,0.3-5.7-0.8-8.5-1.6c-3-0.8-3.3-3.3-2.7-5.8c0.6-2.7,2.3-4.6,4.9-5.7c1.4-0.6,3-1,4.9-1.7
				c-4-2-7.4-3.8-10.9-5.4c-0.6-0.3-1.5-0.5-2.1-0.3c-5.9,1.5-11.9,2.7-17.6,4.8c-3.9,1.5-7.6,1.5-11.4,0.7
				c-5.4-1.1-6.9-5.1-3.2-9.2c1.8-2,4.5-3.1,6.8-4.5c1.1-0.6,2.4-0.7,4.4-1.3c-3.1-1.5-5.4-2.7-7.8-3.7c-1-0.4-2.2-0.7-3.1-0.5
				c-3.4,0.8-6.7,2.1-10.1,2.9c-5.4,1.3-10.8,2.6-16.2,3.5c-1.7,0.3-3.7,0-5.5-0.5c-3.8-1-5.1-5.6-2.3-8.4c1.5-1.5,3.7-2.5,5.6-3.6
				c1.8-1.1,3.7-2,5.5-3c-0.1-0.4-0.2-0.8-0.3-1.3c-1.5-0.2-3.3-0.9-4.6-0.4c-4.9,1.7-9.5,4-14.3,5.8c-6.4,2.5-12.9,2.9-19.5,1
				c-0.9-10.6,7.2-12.5,14.7-14.9c-2.4-2.4-4.8-2.9-7.5-2.1c-4.1,1.2-8.1,2.6-12.2,3.8c-5.9,1.7-11.8,3.3-17.9,1c-3.1-1.2-4-2.9-3-6
				C113.2,222,114.6,220,116.4,216.7 M170.9,246.5c0.1,0.4,0.2,0.8,0.3,1.2c7-1.5,14.4-0.9,21.7-5.4c-3.5-1.4-6.3-2.5-8.5-3.4
				C179.5,241.6,175.2,244,170.9,246.5 M143.5,238c8.9,0.5,15.8-2.9,23.1-5.7c-2-0.8-4.3-2-6-1.4C155,232.8,148.7,232.9,143.5,238
				 M117.2,225.1c8,0.8,12.8,0,19-3.1C128.2,218.5,121.7,219.4,117.2,225.1 M223.8,256.4c-5.3-3.2-10.5-0.3-15.7,0.1
				c-1.9,0.1-4.3,0.8-4.7,3.9C210.8,261.5,217,257.7,223.8,256.4 M259.6,272.1c-5.6-2.8-15.7-1.6-19.4,2.1
				C247,276.4,253,275,259.6,272.1"/>
			<path d="M310.5,319.5c4.6,0.9,10,1.3,12.7,6.8c2.4,4.9-0.1,12.5-5.1,14.7c-1.1,0.5-2.5,0.5-3.7,0.4c-1.8-0.1-3.7-0.6-5.5-0.8
				c-6.1-0.6-10.3-5.1-10-10.9C299.1,324.3,304.4,319.4,310.5,319.5 M306.3,326.5c-3.7,1.8-2.5,6.8,0,8.4c2.5,1.7,6.5,0.8,8.2-2.2
				c0.6-1.1,0.7-2.8,0.3-4C314.2,327.2,310,324.7,306.3,326.5"/>
			<path d="M275.8,319c4.3,0.1,9,5.9,7.9,11c-0.4,1.6-0.9,3.2-1.5,4.8c-1,2.6-2.9,3.7-5.7,3.1c-2.2-0.5-4.4-0.8-6.6-0.9
				c-2.9-0.1-5-1.2-6.1-4c-1.2-3.1-1.3-6.7,0.8-9C267.1,321.2,270.6,319,275.8,319 M272.5,324.5c-2.6,0-4.9,2.4-4.8,5
				c0.1,2.2,1.3,3.2,3.6,3.1c2.5-0.2,4.6-1.9,4.6-3.8C275.9,326.7,274.2,324.5,272.5,324.5"/>
			<path d="M292.9,308.4c-6.1-0.3-9.7-5.6-7.2-11.2c0.6-1.4,2.6-2.5,4.2-3c3.1-0.9,10.6,2.5,12,5.3c0.4,0.9,0.5,2.2,0.2,3.1
				C301,305.7,296.2,308.6,292.9,308.4 M290.8,303.5c2,2,4.3-1,3.5-3.6c-0.2-0.5-1.5-1.2-2.2-1.1
				C289.3,299.7,288.7,301.5,290.8,303.5"/>
		</g>
		<g>
			<path d="M400,11.1c7.5-0.7,13.2,2.5,17.6,7.9c5.1,6.3,9.7,12.9,14.4,19.5c9.8,13.8,19.6,27.6,29.3,41.4c7,10,14.1,19.9,20.8,30
				c6.4,9.6,12.7,19.4,18.8,29.3c3,4.8,5.4,9.9,8.1,14.8c0.6,1.1,1.2,2.2,2,3.1c3.7,3.8,2.8,7.8,1.2,12.3c-2.2,6-7.2,8.7-12.1,11.8
				c-6.4,4.1-12.8,8.2-19.3,12.2c-12.3,7.6-24.6,15.2-37,22.6c-9.2,5.5-18.5,10.7-27.7,16.2c-1.7,1-1.5,0.6-4.8,2.8
				c-3.3,2.2-7,1.2-8.7-1s-4-5.3-6.3-8.3c-3.7-4.7-7.3-9.4-11-14c-7.7-9.7-15.4-19.3-23-29c-8.4-10.7-16.6-21.5-24.9-32.3
				c-1.8-2.3-3.2-4.8-4.9-7.1c-1.5-1.9-3.3-3.5-4.8-5.5c-2.6-3.4-5-6.9-7.5-10.3c-2.1-2.9-4.3-5.9-6.5-8.8c-1.5-2-2.9-3.9-3.7-6.6
				c-2.2-7.5-5.2-14.6-7.5-22.1c-2.1-6.8-4.2-13.8-5.2-20.8c-0.7-5.2,0.8-10.5,5.1-14.3c2.1-1.9,4.4-3.5,7-5.5
				c-0.9-3,1.2-6.6,0.1-10.4c-0.2-0.8,1.2-2.4,2.1-3.3c6.2-5.8,12.8-10.8,21-13.4c8.6-2.6,16.8-6.4,24.7-10.7
				c7.1-3.9,14.2-7.6,21.4-11.3c1-0.5,2.4-0.6,3.4-0.3C389.1,2.1,395.5,4.8,400,11.1 M429.1,131c3.6-1.7,6.9-3.2,10.2-4.8
				c4.2-2,8.4-4.2,12.8-5.9c2.2-0.9,4.8-0.8,7.1-1.4c3.2-0.8,6.6-1.3,9.1-4.2c-0.9-1.5-1.5-3.1-2.5-4.4c-2.4-2.9-5.3-5.5-7.5-8.5
				c-5.3-7.3-10.5-14.6-15.3-22.2c-2.6-4.2-4.6-8.9-6.2-13.7c-3.3-9.9-9.4-17.9-17.3-24.3c-5.4-4.4-10-9.4-14.1-14.9
				c-3.3-4.4-6.2-9-9-13.7c-2.8-4.7-7.5-6.5-12.1-8.4c-1.9-0.8-4-0.7-5.9,1.1c-4.3,4-9.5,6.4-14.9,8.7c-3.1,1.3-6,3.1-9,4.4
				c-5.3,2.3-10.7,4.5-16.1,6.6c-6.6,2.5-13.1,4.8-18.7,9.4c-4.1,3.3-5.5,9-2.2,13.2c4.7,6,9.5,12,15.1,17.1
				c6.1,5.7,11.5,11.7,15.5,19c4.2,7.6,10.2,13.5,16.2,19.6c1,1.1,2.4,2,3.7,2.6c4.6,2.1,8,5.5,10.4,9.9c2.1,4,4.4,7.9,6.5,11.7
				c0.8,0,1.1,0.1,1.4,0.1c0.3,0,0.6-0.1,0.9-0.2c4.5-2.9,9.8-4,14.7-2.4c6,1.9,11.7,0.2,17.5,0c0.5,0,0.9,0,1.4,0
				C424.5,125.4,427.3,126.8,429.1,131 M314.2,67c-3,1.8-5.6,3.3-8.3,4.9c0.7,1,1,1.5,1.3,1.9c7.3,9.2,14.8,18.2,18.3,29.7
				c0.6,1.8,1.8,3.5,2.9,5.2c3.8,5.5,7.6,11.1,11.5,16.5c3.6,4.9,7.2,9.8,11.1,14.5c6.3,7.7,12.1,15.7,17.1,24.3
				c4.1,7.1,8.2,14.4,13.3,20.8c7.3,9.3,15.4,18,23,26.9c1.1-0.2,1.8-0.3,2.3-0.5c11.9-5.1,24-9.6,34.8-17
				c9.3-6.4,18.9-12.3,28.4-18.4c7.3-4.7,14.6-9.4,21.9-14.1c0.6-0.4,1.4-0.7,1.7-0.9c-6.3-9.9-12.2-19.1-18.2-28.5
				c-1.1,5.8-2.3,11.1-3.1,16.5c-0.3,2.4-1.4,3.8-3.4,5c-3.8,2.2-7.6,4.5-11.3,6.9c-6.1,4.1-11.7,8.8-18.6,11.5
				c-2.7,1.1-5.3,2.2-8,3.3c-7.2,2.7-12.5,8.7-20.2,10.8c-4.9,1.3-7.8,1.9-11.7-1.3c-2.3-2-4.7-3.9-7.1-5.8
				c-3.6-2.7-6.7-5.7-8.9-9.6c-1.2-2.1-2.4-4.3-3.7-6.3c-4.5-7-8.9-14.1-15.1-20c-4.9-4.7-9.2-10.1-13.7-15.3
				c-0.9-1-1.6-2.2-2.2-3.4c-4.5-8.8-9.2-17.4-17.2-23.8c-3.1-2.5-6.6-5.6-8-9.1c-1.9-4.8-4.1-9.4-6-14.2
				C316.1,74.4,315.4,71.1,314.2,67 M313.7,49.1c-0.2,0.1-0.4,0.2-0.7,0.3c0.8,1.9,1.6,3.7,2.5,5.6c0.8,1.8,2.2,3.6,2.3,5.4
				c0,5.5,2.3,10.4,3.4,15.6c0.3,1.6,1.3,3,1.9,4.6c1,2.5,2,5,3,7.6c0.4,1.1,0.5,2.5,1.2,3.3c3,3.2,6,6.5,9.4,9.4
				c5.6,4.7,8.3,11.6,13.1,16.9c0.2,0.2,0.1,0.6,0.2,0.9c1.2,2.4,2.2,5.1,3.8,7.2c3.2,4.1,6.7,7.9,10.2,11.8
				c3.9,4.4,8.2,8.6,11.8,13.3c3.4,4.5,6.2,9.4,9.2,14.2c2.3,3.6,4.6,7.2,8,9.8c2.9,2.2,5.6,4.6,8.5,6.8c0.9,0.7,2.1,0.9,3.3,1.5
				c0-3.5,0.2-6.6-0.1-9.6c-0.3-3.2-1.1-6.3-1.7-9.4c-0.2-0.8-0.7-1.6-1.1-2.4c-1.9-3.6-4.1-7.1-5.7-10.9c-0.7-1.7-1.4-3-3.2-3.4
				c-3.8-0.8-5.6-3.5-6.7-6.8c-0.7-2-1.2-4.1-1.7-6.2c-0.6-2.7-1.6-5-3.6-7.1c-2.4-2.5-4.4-5.5-6-8.6c-2.2-4-5.1-7.1-9-9.4
				c-1.8-1-3.7-2.2-5.2-3.7c-7.2-7-13.5-14.8-18.6-23.6c-2-3.5-4.2-6.9-7.4-9.7c-5-4.4-10-8.9-13.9-14.6
				C319,54.8,316.2,52,313.7,49.1 M410.3,180.7c1.3-0.8,2.5-1.7,3.8-2.4c2.4-1.2,4.9-2.2,7.3-3.3c3.8-1.8,7.6-3.8,11.5-5.6
				c3.6-1.7,7.4-2.9,10.7-5c8.1-5.3,15.4-11.9,24.2-15.5c0.9-9.8,4.1-19,3.2-28.6c-3.4,1.1-6.6,2.5-9.9,3.2
				c-5.2,1.1-10.4,2-15.1,4.8c-4.3,2.5-8.5,5.3-13.6,6.3c-0.9,0.2-1.5,1.5-2.2,2.4c-1,1.3-1.8,2.7-3,3.8c-5,4.9-10.3,9.4-13,16.1
				c-0.4,1.1-1.2,2.3-2.2,2.8c-4.9,2.3-4.6,6.3-3.8,10.5C408.8,173.5,409.5,176.9,410.3,180.7 M406,217.4c-0.9-0.6-1.8-1-2.6-1.8
				c-9.2-9.2-18.2-18.5-25.8-29c-4.1-5.7-7.5-11.8-11.3-17.7c-4.1-6.4-7.9-13-12.3-19.2c-3.3-4.7-7.5-8.8-10.9-13.5
				c-6.1-8.4-12-16.9-17.9-25.4c-1.3-1.9-2.9-3.8-3.4-5.9c-1.6-6.6-5.6-11.8-9.1-17.3c-2.6-4.1-5.8-7.9-8.7-11.8
				c-0.3,0.2-0.6,0.3-0.8,0.5c1.2,3.9,2.3,7.8,3.6,11.7c1.7,5.2,3.6,10.4,5.3,15.6c2.4,7.3,6.4,13.6,10.6,20
				c2.8,4.4,5.6,8.7,9.2,12.4c2.7,2.7,5,5.8,7.2,8.8c7.7,10.4,14.8,21.3,23.4,31c1.3,1.5,2.7,2.9,3.9,4.5
				c6.6,8.5,13.2,17.1,19.9,25.6c5.5,7.1,11.1,14.1,16.7,21.1c1.1,1.3,1.9,3,4,3.4C406.6,226.1,406.3,222,406,217.4 M410.9,229.4
				c1.2-0.6,1.8-0.9,2.5-1.3c7.1-4.1,14.4-8,21.4-12.3c13.6-8.2,27.1-16.5,40.5-24.9c9.6-6,18.9-12.3,28.4-18.4
				c3.5-2.2,4.7-5.7,5.7-9.7c-4.2-1.2-8,0.5-11.8,0.7c-2.4,3.4-6.4,4.3-9.7,6.4c-12.7,8.4-25.3,16.8-38.2,25
				c-6.5,4.2-13.3,8-20.2,11.6c-6.2,3.2-12.6,6-18.8,8.9V229.4z M438.3,57.8c0.2,0.7,0.5,1.4,0.7,2c2.5,6.5,4.1,13.4,8.3,19.2
				c3.1,4.3,6.1,8.8,9.2,13.1c2,2.8,4.2,5.6,6.4,8.4c2.5,3.2,5.1,6.4,7.6,9.6c0.5,0.6,0.8,1.6,1.4,1.8c4,1,3.8,4.2,3.6,7.1
				c-0.2,4.6,0.4,8.8,3.9,12.1c0.6,0.6,1,1.5,1.5,2.3c4.6,7,9.4,13.9,13.6,21.1c2.3,4,5,5.3,9.2,3.6c0.4-0.2,0.7-0.4,1.5-0.8
				C485.3,122.5,462.6,89.6,438.3,57.8 M404.1,159.3c3.9-3.3,7.1-6.2,8.2-10.6c0.1-0.5,0.8-0.9,1.3-1.3c3.8-3.1,7.2-6.7,9.2-11.2
				c0.6-1.4,1.6-1.7,2.9-1.4c0.1,0,0.3-0.4,0.5-0.9c-0.4-1.1-1-2.3-1.5-3.6c-4.3,0.7-8.5-0.4-12.7,0.8c-1.7,0.5-3.9-0.3-5.8-0.8
				c-6.4-1.6-12.4-1.2-18,2.8c0.4,1.7,0.8,3.4,1.1,5c0.5,2.9,2.2,4.7,5,5.3c3.8,0.8,5.5,3.2,6.5,6.8
				C401.5,153.3,402.9,156.2,404.1,159.3 M432.9,49.7c0.2-0.2,0.4-0.3,0.6-0.5c-1.6-2.3-3.2-4.6-4.9-6.9
				c-4.7-6.6-9.4-13.2-14.3-19.6c-2.6-3.4-5.9-6.1-10.4-6.8c3.8,8.8,10,15.4,16.9,21.5c2.7,2.4,5.2,5,7.8,7.6
				C430,46.5,431.4,48.1,432.9,49.7 M303.8,66.9c3.3-1.6,6.5-3.2,10.1-4.9c-0.4-1.5-0.7-3.6-1.5-5.4c-0.8-1.7-2.3-1.6-3.6-0.1
				c-0.8,0.9-1.4,2-2.3,2.6C303.1,60.8,302.6,63.5,303.8,66.9"/>
			<path d="M380.3,249.6c-1.2,1.5-2,2.7-3,3.6c-3.5,3.5-7.8,3.8-11.4,0.4c-2.7-2.5-5.1-5.3-7.2-8.3c-5.2-7.3-10-14.9-15.2-22.3
				c-3.4-4.8-8-8.2-13-11.3c-1-0.6-2-1.4-2.9-2.2c-10.7-10.2-19.1-22.2-26.7-34.8c-1.9-3.1-2.7-7.1-3.3-10.8
				c-0.7-4.5,1.6-7.9,5.4-10.3c3.7-2.3,7.3-2.4,11.3-0.5c5.6,2.7,9.3,7.5,12.6,12.3c6.5,9.2,12.5,18.7,18.4,28.4
				c5.9,9.7,11.1,19.9,17.1,29.6c3.7,6.1,8.2,11.7,12.3,17.6C376.7,243.7,378.4,246.6,380.3,249.6 M346.1,205.6
				c-2.5-4.3-4.9-8.6-7.5-12.7c-4.7-7.5-9.4-15-14.5-22.2c-3-4.3-6.7-8.3-10.4-12.1c-1.9-1.9-4.5-3.2-7.5-1.4
				c-2.5,1.5-3.8,4.5-3.3,7.8c0.7,4.5,2.5,8.5,5,12.1c3.6,5.1,7.8,9.8,11.2,15c3.1,4.8,6.7,9,11.3,12.4c0.6,0.4,1.2,1,1.7,1.5
				C336.7,210.4,341.1,210.5,346.1,205.6 M375.5,250.3c-7.6-11-15-21.8-21.1-30.7c-1.3,0.6-3.2,1.6-4.6,2.3
				c3.6,5.8,6.9,11.6,10.7,17.1c2.5,3.8,5.5,7.3,8.5,10.7C371,252.1,372.1,252,375.5,250.3 M348.7,209.2c-2.2,1.7-4.1,3.3-5.6,4.5
				c1.2,1.7,2.3,3.2,3.6,5.2c1.8-2.1,3-3.5,4.4-5C350.2,212.1,349.5,210.7,348.7,209.2"/>
			<path class="st3" d="M314.2,67c-3,1.8-5.6,3.3-8.3,4.9c0.7,1,1,1.5,1.3,1.9c7.3,9.2,14.8,18.2,18.3,29.7c0.6,1.8,1.8,3.5,2.9,5.2
				c3.8,5.5,7.6,11.1,11.5,16.5c3.6,4.9,7.2,9.8,11.1,14.5c6.3,7.7,12.1,15.7,17.1,24.3c4.1,7.1,8.2,14.4,13.3,20.8
				c7.3,9.3,15.4,18,23,26.9c1.1-0.2,1.8-0.3,2.3-0.5c11.9-5.1,24-9.6,34.8-17c9.3-6.4,18.9-12.3,28.4-18.4
				c7.3-4.7,14.6-9.4,21.9-14.1c0.6-0.4,1.4-0.7,1.7-0.9c-6.3-9.9-12.2-19.1-18.2-28.5c-1.1,5.8-2.3,11.1-3.1,16.5
				c-0.3,2.4-1.4,3.8-3.4,5c-3.8,2.2-7.6,4.5-11.3,6.9c-6.1,4.1-11.7,8.8-18.6,11.5c-2.7,1.1-5.3,2.2-8,3.3
				c-7.2,2.7-12.5,8.7-20.2,10.8c-4.9,1.3-7.8,1.9-11.7-1.3c-2.3-2-4.7-3.9-7.1-5.8c-3.6-2.7-6.7-5.7-8.9-9.6
				c-1.2-2.1-2.4-4.3-3.7-6.3c-4.5-7-8.9-14.1-15.1-20c-4.9-4.7-9.2-10.1-13.7-15.3c-0.9-1-1.6-2.2-2.2-3.4
				c-4.5-8.8-9.2-17.4-17.2-23.8c-3.1-2.5-6.6-5.6-8-9.1c-1.9-4.8-4.1-9.4-6-14.2C316.1,74.4,315.4,71.1,314.2,67"/>
			<path class="st3" d="M406,217.4c-0.9-0.6-1.8-1-2.6-1.8c-9.2-9.2-18.2-18.5-25.8-29c-4.1-5.7-7.5-11.8-11.3-17.7
				c-4.1-6.4-7.9-13-12.3-19.2c-3.3-4.7-7.5-8.8-10.9-13.5c-6.1-8.4-12-16.9-17.9-25.4c-1.3-1.9-2.9-3.8-3.4-5.9
				c-1.6-6.6-5.6-11.8-9.1-17.3c-2.6-4.1-5.8-7.9-8.7-11.8c-0.3,0.2-0.6,0.3-0.8,0.5c1.2,3.9,2.3,7.8,3.6,11.7
				c1.7,5.2,3.6,10.4,5.3,15.6c2.4,7.3,6.4,13.6,10.6,20c2.8,4.4,5.6,8.7,9.2,12.4c2.7,2.7,5,5.8,7.2,8.8
				c7.7,10.4,14.8,21.3,23.4,31c1.3,1.5,2.7,2.9,3.9,4.5c6.6,8.5,13.2,17.1,19.9,25.6c5.5,7.1,11.1,14.1,16.7,21.1
				c1.1,1.3,1.9,3,4,3.4C406.6,226.1,406.3,222,406,217.4"/>
			<path class="st3" d="M410.9,229.4c1.2-0.6,1.8-0.9,2.5-1.3c7.1-4.1,14.4-8,21.4-12.3c13.6-8.2,27.1-16.5,40.5-24.9
				c9.6-6,18.9-12.3,28.4-18.4c3.5-2.2,4.7-5.7,5.7-9.7c-4.2-1.2-8,0.5-11.8,0.7c-2.4,3.4-6.4,4.3-9.7,6.4
				c-12.7,8.4-25.3,16.8-38.2,25c-6.5,4.2-13.3,8-20.2,11.6c-6.2,3.2-12.6,6-18.8,8.9V229.4z"/>
			<path class="st3" d="M438.3,57.8c0.2,0.7,0.5,1.4,0.7,2c2.5,6.5,4.1,13.4,8.3,19.2c3.1,4.3,6.1,8.8,9.2,13.1
				c2,2.8,4.2,5.6,6.4,8.4c2.5,3.2,5.1,6.4,7.6,9.6c0.5,0.6,0.8,1.6,1.4,1.8c4,1,3.8,4.2,3.6,7.1c-0.2,4.6,0.4,8.8,3.9,12.1
				c0.6,0.6,1,1.5,1.5,2.3c4.6,7,9.4,13.9,13.6,21.1c2.3,4,5,5.3,9.2,3.6c0.4-0.2,0.7-0.4,1.5-0.8
				C485.3,122.5,462.6,89.6,438.3,57.8"/>
			<path class="st3" d="M432.9,49.7c0.2-0.2,0.4-0.3,0.6-0.5c-1.6-2.3-3.2-4.6-4.9-6.9c-4.7-6.6-9.4-13.2-14.3-19.6
				c-2.6-3.4-5.9-6.1-10.4-6.8c3.8,8.8,10,15.4,16.9,21.5c2.7,2.4,5.2,5,7.8,7.6C430,46.5,431.4,48.1,432.9,49.7"/>
			<path class="st3" d="M303.8,66.9c3.3-1.6,6.5-3.2,10.1-4.9c-0.4-1.5-0.7-3.6-1.5-5.4c-0.8-1.7-2.3-1.6-3.6-0.1
				c-0.8,0.9-1.4,2-2.3,2.6C303.1,60.8,302.6,63.5,303.8,66.9"/>
			<path class="st6" d="M346.1,205.6c-2.5-4.3-4.9-8.6-7.5-12.7c-4.7-7.5-9.4-15-14.5-22.2c-3-4.3-6.7-8.3-10.4-12.1
				c-1.9-1.9-4.5-3.2-7.5-1.4c-2.5,1.5-3.8,4.5-3.3,7.8c0.7,4.5,2.5,8.5,5,12.1c3.6,5.1,7.8,9.8,11.2,15c3.1,4.8,6.7,9,11.3,12.4
				c0.6,0.4,1.2,1,1.7,1.5C336.7,210.4,341.1,210.5,346.1,205.6"/>
			<path class="st6" d="M375.5,250.3c-7.6-11-15-21.8-21.1-30.7c-1.3,0.6-3.2,1.6-4.6,2.3c3.6,5.8,6.9,11.6,10.7,17.1
				c2.5,3.8,5.5,7.3,8.5,10.7C371,252.1,372.1,252,375.5,250.3"/>
			<path class="st6" d="M348.7,209.2c-2.2,1.7-4.1,3.3-5.6,4.5c1.2,1.7,2.3,3.2,3.6,5.2c1.8-2.1,3-3.5,4.4-5
				C350.2,212.1,349.5,210.7,348.7,209.2"/>
		</g>
		<path class="st7" d="M666.4,136.9c0,1-0.2,1.9-0.1,2.7c0.4,4,0.8,7.9,1.3,11.8c0.7,5.8,1.5,11.6,2.2,17.4
			c0.7,5.2,1.4,10.4,2.1,15.6c0.6,4.5,1.3,9,1.8,13.5c0.3,2.5,1.7,3.7,3.9,4.4c7.5,2.6,14.8,6,22.9,6.2c7.4,0.2,14.8,0.4,22.1-0.1
			c5.2-0.3,10.4-1.6,15.5-2.7c3-0.6,5.8-1.8,8.7-2.8c1.2-0.4,1.7-1.3,1.9-2.6c0.7-5.3,1.5-10.7,2.2-16c1.3-9.7,2.7-19.5,4-29.2
			c0.9-6.5,1.9-12.9,2.8-19.5c-0.5,0.1-0.8,0.1-1,0.3c-6.3,4.2-13.5,5.8-20.8,6.9c-7.3,1.1-14.6,1.5-22,0.9
			c-6.6-0.6-13.3-0.5-20-0.9C684.5,142.3,675.4,140.4,666.4,136.9"/>
		<path class="st7" d="M669.2,132.8c0,0.3,0,0.7-0.1,1c0.4,0.2,0.7,0.6,1.1,0.7c4.3,1.2,8.5,2.7,12.9,3.3c8.7,1.3,17.4,2.1,26.2,2.1
			c4.7,0,9.3,0.7,14,0.5c7.6-0.3,15.1-1.4,22.5-3.5c3.3-0.9,6.4-2.7,9.6-4.1c0-0.3,0-0.6-0.1-0.9c-2.3-0.6-4.6-1.6-7-1.9
			c-8.5-0.8-17-1.5-25.5-2.1c-2.9-0.2-5.9-0.2-8.8-0.2c-3.2,0-6.3,0-9.5,0.3c-6.2,0.5-12.3,1-18.5,1.8
			C680.4,130.8,674.8,131.9,669.2,132.8"/>
		<path class="st2" d="M869.3,311.6c0,0.3,0,0.7,0.1,1c2.4,0.4,4.8,0.9,7.1,1.1c0.9,0.1,1.9-0.2,2.7-0.6c5.2-3,10.4-5.8,15.4-9.1
			c8.9-5.9,17.5-12.2,26.5-17.9c13.1-8.4,25.9-17.3,38.1-27.1c0.7-0.5,1.8-0.6,2.9-0.9c0.1-0.6,0.2-1.5,0.4-2.4
			c-4,0.7-7.8,1.5-11.6,1.8c-1.9,0.2-3.3,0.9-4.7,2c-6.9,5-13.7,10.2-20.7,15c-8.9,6.2-18,12.2-27.1,18.2c-4.4,2.9-8.8,5.8-13.2,8.7
			C879.9,304.9,874.6,308.2,869.3,311.6"/>
		<path class="st2" d="M962.1,261.8c-25.3,19.3-51.6,35.8-78.1,53.2c3.3,0.4,6,0.5,8.6,1.1c2.2,0.5,4,0.1,5.9-1.2
			c6.8-4.6,13.4-9.4,20.5-13.6c14.1-8.3,27.4-17.6,40.4-27.3c0.8-0.6,1.7-1.8,1.8-2.8C961.8,268.4,961.9,265.5,962.1,261.8"/>
		<path class="st2" d="M939.7,259.5c-0.1-0.2-0.2-0.5-0.3-0.7c-3.1,0.3-6.3,0.9-9.4,0.7c-3.5-0.2-6,1.3-8.5,3.3
			c-3.9,3.1-7.9,6.2-12,9.1c-6.1,4.3-12.5,8.3-18.3,12.8c-11.6,9-24.2,16.5-36.5,25.2c2.4,0.4,4.7,0.8,6.9,1
			c0.8,0.1,1.8-0.1,2.5-0.5c8-5.1,15.9-10.3,23.8-15.6c11.7-7.8,23.4-15.5,35-23.4C928.7,267.6,934.2,263.5,939.7,259.5"/>
		<path class="st2" d="M901.8,261.5c-1.3,1.6-2.3,3-3.6,4.1c-2,1.8-4.1,3.4-6.3,5c-5.8,4.3-11.7,8.4-17.6,12.7
			c-6.4,4.7-12.8,9.4-19.2,14.1c-3.5,2.6-4.2,5-2.3,9.2c6.2-2.7,62.3-42.6,64.4-46C911.8,260.9,906.6,261.2,901.8,261.5"/>
		<path class="st2" d="M961.1,277.6c-0.7,0.3-1.1,0.4-1.5,0.6c-4.9,3.6-9.6,7.4-14.6,10.9c-4.9,3.4-10,6.5-15,9.6
			c-4.2,2.6-8.4,5.1-12.5,7.8c-3.9,2.6-7.7,5.4-11.5,8.1c-0.9,0.6-1.8,1.3-2.7,1.9c3.4,0.6,6.5,0.7,9.6,0.5c1.8-0.1,3.8-0.3,5.4-1.2
			c4.7-2.6,9.4-5.4,13.8-8.5c8-5.5,15.5-11.8,23.8-16.8c5.2-3.2,6.1-7,5.3-12.2C961.3,278.2,961.2,278.1,961.1,277.6"/>
		<path class="st2" d="M896.3,261.9c-4.4-1.1-7.9-0.1-11.1,2.4c-3,2.4-6.1,4.7-9.2,7c-7,5.2-14.1,10.5-21.2,15.6
			c-4,2.9-4.1,2.9-3.1,8C857.2,292,893.7,265,896.3,261.9"/>
		<path class="st2" d="M851.5,284.7c6.5-4,29.6-21.6,31-23.7c-2.1-0.1-4.1-0.3-6-0.3c-0.7,0-1.5,0.4-2.2,0.9
			c-7.8,5.5-15.6,11.1-23.5,16.8C851,280.2,851.3,282.3,851.5,284.7"/>
		<path class="st2" d="M926.6,316c5.7-1.1,10.7-1.1,15.1-4.5c6.3-4.9,13-9.1,19.4-13.5v-6.3C949.6,299.8,938.4,307.6,926.6,316"/>
		<path class="st2" d="M869.2,260.8c-5-1.1-4.9-1-8.2,1.5c-3.2,2.4-6.6,4.6-10.2,7.2v4.3C857.1,269.3,863.1,265.1,869.2,260.8"/>
		<path class="st2" d="M961.2,302.6c-4.3,3.3-8.8,5.2-12,9.2c4-1.1,7.9-2.2,12-3.3V302.6z"/>
		<path class="st2" d="M850.3,258c0.2,2.6,0.3,4.7,0.5,7.4c2.7-2,5.1-3.7,7.8-5.7C855.5,259,853,258.5,850.3,258"/>
		<path class="st2" d="M950.5,215c-1.6-5.2-6.5-7.4-9.3-11.5c-0.6-0.9-1.8-1.4-2.8-2.2c-1.2,2.5-2.4,4.8-3.5,7.1
			c1.7,0.9,3.4,1.7,4.9,2.5c-0.3,1.5-0.8,2.2-2,1.6c-2.7-1.3-5.2-0.3-7.8,0.4c-1.2,0.4-2.5,0.6-3.8,0.7c-0.6,0-1.7-0.2-1.8-0.6
			c-1-2.5-2.9-1.9-4.3-1c-1.9,1.3-3.5,0.7-5.2-0.2c-1.9-1.1-3.9-2.1-5.4-2.9c-2.1,0.7-3.7,1.3-5.6,1.9c-0.2-1.1-0.6-2.1-0.3-2.4
			c1.5-1.5,3.3-2.5,5-2.6c1.3-2.9,2.5-5.6,3.5-7.9c-3.4-1-7-1.7-10.3-3c-2.4-0.9-4.2-0.4-6.3,0.5c-2.3,1.1-4.7,2.4-7.2,2.5
			c-5,0.3-9.1,2.2-12.7,5.6c-1.7,1.7-4.3,2.5-6.1,4.1c-2.5,2.2-4.6,4.9-6.8,7.2c4.9,0,9.8-0.1,14.6,0c7.6,0.1,15.2,0.3,22.8,0.5
			c3.7,0.1,7.5,0,11.2,0.2c6.2,0.4,12.3,0.6,18.5,0.1C936.8,215.3,943.6,215.2,950.5,215"/>
		<path class="st3" d="M884.2,543.3c12.2,3,18.1-0.3,26.1-6.8c5.8-6.8,10-14.5,11.3-23.5c1.5-10.8-1.1-19.9-10.6-26.4
			c-5.6-3.8-12.7-4.4-19.3,0.1c-3.7,2.5-8,4.3-11.9,6.6c-2.5,1.4-5.4,0.7-7.8,1.7c-3.2,1.3-6.1,1.2-9.1-0.2c-4.2-2-8.3-1.3-12.3,0.9
			c-5.8,3.1-10,7.6-12.8,13.5c-3.2,6.5-3.9,13.4-3.4,20.4c0.3,4.5,2,8.6,4.6,12.3c4.4,6.3,10.4,9.9,17.8,11.3c1.7,0.3,3.6,0.4,5.2,0
			c2.9-0.7,5.7-2,8.6-2.8c3.4-1,5.9-3.5,8.2-5.9c0.8-0.8,0.3-2.8,0.5-4.3c0-0.2,0.2-0.4,0.4-0.6C883.3,539,883.3,539,884.2,543.3"/>
		<path class="st3" d="M931,412.8c3.5-0.8,6.7-1.6,10-2.4c3.4-0.8,6.7-0.4,10.1,0.4c0.7,0.2,1.2,0.8,2.4,1.7
			c-4.4,1.9-8.4,0.5-12.2,1.5c-3.9,1-7.8,2.1-11.7,3.8c8.3,4.3,31.5-2.6,38-11.2C957.1,400.2,939.4,402.1,931,412.8"/>
		<path class="st3" d="M822,432.2c4.5,2.2,12.8,2.2,16.9,0.1c0.4-0.2,0.8-0.5,1.1-0.9c2.7-3.2,6-4.3,10-3.1c0.2,0,0.4-0.2,0.7-0.4
			c-0.6-2.5-1.2-5.1-1.8-8.1c-1.3-0.2-2.9-0.8-4.2-0.6c-3.8,0.6-7.6,1.3-10.9,3.5c-1.8,1.3-3.5,2.7-5.2,4.1
			C826.3,428.5,824.2,430.3,822,432.2"/>
		<path class="st3" d="M900.8,466.7c-11.5,3.8-20.5,9.6-24.1,22c3.8-2.1,7.2-3.9,10.5-5.8c2.4-1.4,4.9-2.8,7-4.6
			C897.7,475.4,900,471.7,900.8,466.7"/>
		<path class="st3" d="M858.9,425.8c4.1-1.2,8.2-2.3,12.1-3.6c1-0.3,1.8-1,2.6-1.6c3-2.5,5.4-5.6,7.9-9.1c-2.6,0.3-4.8,0.5-7,0.8
			c-1.7,0.3-3.4,0.6-5.1,1.1c-3.5,0.8-6.6,2.4-9,5.1C858.3,420.6,857.9,423,858.9,425.8"/>
		<path class="st2" d="M889.4,428.8c0-2.4-0.5-3.6-2.1-4.9c-4-3.4-7.5-2.2-10.6,1.4c-2.1,2.3-2.1,5.4-0.6,7.4c2.2,2.9,4.7,3.5,8,1.9
			c1-0.5,2-1.2,3-1.7C888.8,431.9,889.7,430.5,889.4,428.8"/>
		<path class="st2" d="M841.7,443.3c0.8,0.3,1.6,0.8,2.5,0.9c2.2,0.2,4.6,1.2,6.6-0.8c1.8-1.8,2.7-3.9,2.4-6.3
			c-0.3-2.2-1.1-4.1-3.7-4.8c-1.3-0.4-2.4-1.6-3.8-0.8c-1.1,0.7-2.2,1.7-3,2.7C840.8,436.9,839.7,439.8,841.7,443.3"/>
		<path class="st2" d="M873.1,446.5c0,0.2,0,0.6,0,1.1c0.4,3.7,1.9,4.8,5.4,3.5c2-0.8,3.9-2.1,5.5-3.5c1.9-1.8,1.2-5.8-0.6-7.5
			c-1.8-1.6-3.5-0.4-5.1-0.1C874.6,440.7,872.7,442.7,873.1,446.5"/>
		<path class="st3" d="M846.2,482.9c2.6,2.4,5.1,4,8.1,4.8c3.1,0.9,6.1,2.2,9.2,3.2c1.8,0.6,3.6,0.8,5.1-0.8
			C861.5,482.6,854.6,481.6,846.2,482.9"/>
		<path class="st2" d="M858.1,454.3c4.2-0.3,6-2,6.9-4.8c0.7-2.1-0.2-3.7-1.4-5.1c-1.3-1.6-2.7-0.5-4,0.2c-0.5,0.3-1.1,0.4-1.6,0.7
			c-2.1,1.1-3.4,3.9-3.1,6.2C855.1,453.4,856.1,454.3,858.1,454.3"/>
		<path class="st5" d="M860.5,401.1c-1.8-0.8-2.8-0.2-3.6,1.2c-3.7,6.7-5.1,13.8-3.8,21.4c0.2,1.3,0.9,2.5,1.4,3.7
			C854.7,418.1,856.5,409.3,860.5,401.1"/>
		<path class="st2" d="M846.5,451.4c-1.1,0.1-2.2,0.1-3.3,0.2c-2.6,0.1-4.6,2-4.7,4.6c-0.1,3.1,1.7,4.6,4.7,3.9
			C846.8,459.2,848.2,455.4,846.5,451.4"/>
		<path class="st5" d="M872,487.9c2.3-8.6,5.7-16.6,10.8-24.2c-0.5,0-0.6,0-0.7,0.1c-0.9,0.9-1.7,1.9-2.6,2.8
			c-5.3,4.9-7.4,11.3-9,17.9C870.1,485.9,870.1,487.4,872,487.9"/>
		<path class="st2" d="M865.3,467.6c-3.9-1.5-7.8,6.8-4.8,8.9c3,2.2,6.6,1.4,7.6-2.3C868.6,472.6,869.2,469.1,865.3,467.6"/>
		<path class="st2" d="M868.1,428.6c-1.1,0.1-2.2,0.2-3.3,0.4c-2,0.4-3.2,1.8-3.3,4c-0.1,1.4,0,2.9,1.5,3.6c1.8,0.8,3.4,0,4.8-1.2
			C870,433.3,870.1,431.2,868.1,428.6"/>
		<path class="st2" d="M850.5,464.6c0,2,0.5,2.9,1.7,3c3.4,0.3,6.3-3,5.5-6.3c-0.5-1.9-2.4-2.8-4.1-1.7
			C851.8,460.7,850.3,462.3,850.5,464.6"/>
		<path class="st5" d="M934,402.9l0.6,0.6c5.6-4.8,11.2-9.5,16.8-14.3c-0.2-0.4-0.3-0.7-0.4-1c-0.2-0.3-0.4-0.6-0.7-1.1
			C944,391.7,938.8,397.1,934,402.9"/>
		<path class="st2" d="M833.6,442.9c-0.9,0.1-1.7,0.1-2.5,0.2c-0.6,0.1-1.4,0.1-1.8,0.5c-1.3,1.6-1.9,3.4-1.3,5.5
			c0.4,1.4,1.2,1.8,2.6,1.5C833.8,449.7,835.1,446.8,833.6,442.9"/>
		<path class="st2" d="M878.1,455.8c-2.8,0.9-1.4,5.4-1.9,7.5c2.7-0.9,6.1-5.2,6.1-9C881.2,454.5,880.8,454.9,878.1,455.8"/>
		<path class="st2" d="M868.6,462.3c2.6,0,3.4-1.6,3.4-3.1c0-1.5-1.6-2.7-3.6-2.1C865.4,457.9,866.1,462.3,868.6,462.3"/>
		<path class="st2" d="M836.3,438.5v-2.7c-1.1,0.4-1.9,0.7-3,1.2C834.4,437.6,835.1,437.9,836.3,438.5"/>
		<g>
			<path class="st2" d="M645.1,454.2c0.8-0.1,0.9-2.8,1.3-2.4c3.2,2.7,10.2,4.7,12.4,9c0.8-0.8,1.2-1.2,1.6-1.7
				c7.2-9.8,14.4-19.5,21.4-29.4c3.1-4.3,5-9.2,5.6-14.6c0.5-4.5-2.1-10-5.4-11.2c-1.3-0.5-7.7-2.6-11.7-2
				c-1.2,4.7-2.4,9.1-3.5,13.4c2,1.3,4,2.6,6,4c1,0.8,1,3.2-0.1,2.6c-1.1-0.6-4.6-3.1-7.5-3c-2.3,4.2-4.5,8.2-6.6,12.2
				c5.1,3.3,5.7,4.3,5.1,5.8c-0.6,1.4-4.5-1.7-6.8-2.6c-1.8,3.1-3.4,5.9-5,8.6c1.5,1.5,5.6,2.1,4.5,3.8c-1.1,1.7-2.5,0.4-4-0.3
				c-1.5-0.7-1.8-1.4-2.8,1c-1.3,2-2.6,4.9-3.7,7.1c-2.4,3.8-4.4,7-6.7,10.8c-4.2,7-8.4,14.1-12.6,21.1c-2,3.3-6.9,11.2-2.9,8.4
				c8.8-5.7,15.8-12.1,23-19.3c-1.4-0.7-2.6-1.2-3.7-1.8c-1.4-0.8-1.9-2.3-1.2-3.2c0.7-0.9,4.7,1.7,7,3c3-3.6,5.9-7.2,9.1-11.2
				c-2.3-1.2-4.1-2.6-6.2-3.3C648.8,458,646.1,456.7,645.1,454.2"/>
			<path class="st2" d="M662.4,407.8c0.4-2,0.7-4.4,1.4-6.7c1.5-4.7,0.6-9.3-0.6-13.7c-0.8-2.8-1.7-6.1-5.2-7
				c-3.4-0.9-6.8-1.8-10.2-2.7c-2.6-0.7-5.2-1.8-7.7-1.8c-6.8,0-12.7,2.3-16.7,8.1c-1.7,2.4-2,5.3-1.7,8.3c2.8-0.5,5.2-1.2,7.6-1.4
				c2.5-0.2,6.2,0,8.7,0.5c2.3,0.4,2.7,5.2,0.5,4.4c-2.1-0.9-11-1.9-17.5,0.9c0.4,6.9,0.7,13.7,1.1,20.6c3.4,0,6.3-0.1,9.2,0
				c1.7,0,3.4,0.2,5.1,0.5c1.5,0.3,2.3,1.8,1.8,3.1c-0.5,1.5-1.7,1-2.7,0.7c-4.3-1.1-8.5-0.8-13-0.5c0.1,1.6,0.2,2.7,0.4,4
				c2.4-0.2,4.5-0.6,6.5-0.5c2,0.1,4.1,0.4,6.1,0.9c2.4,0.1,3.3,2.4,1.1,2.5c-2.1,0.1-9,0.4-13.6,0.7c0,8.4-0.1,16.5-0.1,24.8
				c2.5,0.2,4.7,0.4,6.9,0.6c3.8,0.1,3.8,3.6,1.8,3.5c-2-0.1-5.8-0.2-9-0.3c-0.6,9.3-1.1,18.3-1.7,27.3c0.2,0,0.3,0,0.5,0
				c7.6-13.3,15.2-26.6,23-40.1c-0.9-0.3-1.6-0.5-2.2-0.7c-2.3-0.7-4.7-1.3-7-2c-1.4-0.4-3.4-2.4-1.4-3.1c2-0.7,8.4,1.1,12.4,3
				c2.3-4.2,4.7-8.2,6.8-12.3c2.4-4.9,4.8-9.9,6.8-15c1.3-3.2,0.5-4.4-2.8-5.2c-2-0.5-4.1-0.6-6.2-0.9c-3.2-0.4-3.2-2.4-2.3-3.8
				c0.7-1.2,4.8,0.2,7,0.7C657.5,405.7,659.7,406.8,662.4,407.8"/>
			<path class="st3" d="M650,374.3c1.4-5.3,4.8-14.6,2.9-15.2c-2.9-0.9-4.2,0.2-4.6,4.1c-0.3,3.3-0.6,6.5-0.9,9.8
				C648.4,373.6,649.2,373.9,650,374.3"/>
			<path class="st3" d="M683.6,399.9c7.3-1.7,10.7-5.1,10.6-10.8C688.9,391.2,686.8,396.1,683.6,399.9"/>
			<path class="st3" d="M676.8,398.3c0.4,0.1,0.7,0.2,1.1,0.2c1-3.2,2.3-6.4,3-9.7c0.5-2.3,0.1-2.5-3.2-2.6
				C677.2,390.2,676,394.1,676.8,398.3"/>
			<path class="st3" d="M642.5,372.1c0.2-2,0.6-3.6,0.4-5.2c-0.2-1.5-0.9-3-1.6-4.4c-0.7-1.5-1.8-3.6-3.9-2.6
				C635,361.2,639.7,368.7,642.5,372.1"/>
			<path class="st3" d="M672.3,397.6c-0.4-3.5-0.8-6.9-1.3-10.5c-2.5,3.1-3.1,6.2-1.8,9C669.9,397.4,670.8,398.2,672.3,397.6"/>
			<path class="st3" d="M666.7,367.2c-1.8-2.2-13,4.8-11.2,6.2C657.3,374.9,668.5,369.3,666.7,367.2"/>
			<path class="st3" d="M674.9,355.1c-0.1-1.2-0.8-1.4-1.8-1.9c-1-0.5-2.1-0.9-2.8,0.2c-0.7,1.1,0.4,3,1.7,3.3
				C673.3,356.9,675,356.3,674.9,355.1"/>
			<path class="st3" d="M685.8,364.5c-1.9-1.8-6.4,0.3-3.3,3.3C685.1,370.4,687.7,366.3,685.8,364.5"/>
			<path class="st3" d="M687.3,351.8c-1.5-1.9-5.7,0.9-4,2.8C684.9,356.5,689.2,354.3,687.3,351.8"/>
			<path class="st3" d="M589.7,540.4c0.4-1.5,3.9-14.3,5.8-21.6c1.4-5.7,2.5-11.5,3.8-17.2c1.1-5,2.4-10,3.3-15
				c1-5.3,1.8-10.6,2.6-15.9c0.4-2.9,0.5-5.8,0.8-8.7c0.2-2.9,0.5-5.9,0.7-8.8c0.2-2.5,0.5-6.6,0.5-7.5c-0.1-0.9-1-0.1-1.9-0.1
				c-0.9,0.1-0.4,8.4-1.4,12.8c-1,4.4-1.1,9.5-1.9,13.9c-0.9,4.6-1.9,9.1-2.8,13.7c-0.9,4.4-1.7,8.9-2.5,13.3
				c-0.9,4.6-1.9,9.1-2.9,13.6c-1,4.4-2,8.8-3.1,13.2c-1.1,4.5-3.6,12-3.4,13.6C587.4,541.1,589.3,541.9,589.7,540.4"/>
			<path class="st3" d="M577.5,536.4c1,0.6,2.3-0.3,2.3-0.5c2.8-13.5,4.4-27.3,7.1-40.8c2.1-10.1,4.2-20.1,6.2-30.1
				c1-4.8,1.7-9.6,2.6-14.4c0.2-1.2,0-1.9-1.5-1.9c-0.3,0.6-0.8,1.2-0.9,1.8c-1.6,6.6-3.3,13.3-4.7,20c-1.1,5.1-1.6,10.4-2.7,15.5
				c-1.3,6.6-2.8,13.1-4.2,19.7c-1.1,5.1-2,10.3-2.9,15.5c-0.7,3.6-1.3,7.2-1.8,10.9C577,533.4,576.5,535.8,577.5,536.4"/>
			<path class="st3" d="M581.8,454.5c-1.5,0.1-2.9,5.4-3.9,11c-1.6,8.8-3.3,17.5-5.1,26.3c-1,4.9-2,9.8-3,14.7
				c-1.5,7.6-3,15.1-4.4,22.7c-0.5,2.6-0.9,5.3-1.2,8c-0.1,0.7,0.6,1.4,1.7,2.1C567.1,539.9,583.3,454.4,581.8,454.5"/>
			<path class="st3" d="M630.3,530.8c1.8,0.5,3.2-1.3,3.2-2.4c0-1.2-0.7-1.7-1.8-1.6c-1.4,0.1-2.9,0.3-2.9,2
				C628.8,529.5,628.5,530.2,630.3,530.8"/>
			<path class="st3" d="M622.9,539.4c0-1.9-1.6-3.4-3-3.2c-1.2,0.2-2.5,0.6-2.7,2.1c-0.2,1.3,1.8,3.1,3.2,2.8
				C621.5,540.8,622.9,541.3,622.9,539.4"/>
			<path class="st3" d="M611.4,524.4c-0.2,2,0.4,2.4,2,2.5c1.2,0.1,2.6-0.5,3.6-1.2c0.9-0.6,1.8-1.8,1.1-3.1c-0.7-1.3-2-1.4-3.2-0.9
				C613.8,522.2,611.6,522.4,611.4,524.4"/>
			<path d="M638,371.9c-1.2-3.4-2.4-6.5-3.5-9.6c-0.6-1.7-1-3.6,0.5-4.8c1.6-1.3,3.8-1,5.5,0.3c1,0.7,1.8,1.6,2.6,2.5
				c0.7,0.8,1.1,1.8,2.1,3.4c0.3-1.8,0.4-2.9,0.5-3.9c0.5-3.4,3.7-5.4,7.5-4.5c2.9,0.7,4.9,4,4.1,6.8c-0.5,1.6-1.2,3.2-2,5.4
				c2.4-1.3,4.2-2.4,6.1-3.3c1.2-0.6,2.5-1,3.8-1.1c2.3-0.3,4.2,1,4.9,3c0.6,1.7,0,3.4-1.9,4.8c-2.2,1.6-4.5,3-6.8,4.5
				c-0.6,0.4-1.2,0.8-2.2,1.5c4.2,2.3,5.8,6.2,7.4,10.4c0.7-1.1,1.1-2,1.7-2.7c1.8-2.5,3.5-2.3,4.9,0.4c0.4,0.8,0.7,1.8,1.2,3.3
				c0.4-2.5,0.8-4.3,1.1-6.1c8,0,10.2,3.5,7.9,12.2c1.1-1.3,2.2-2.8,3.4-4c1.4-1.4,2.7-2.8,4.4-3.9c3-1.9,6.1-0.2,6.2,3.4
				c0.1,3.9-1,7.3-4.4,9.6c-1.9,1.3-3.9,2.5-6,3.7c0.9,2.2,1.7,4.5,2.7,6.6c1,2.2,1,4.4,0.6,6.8c-1.2,7.2-4.1,13.4-8.6,19.1
				c-4.6,6-8.8,12.3-13.1,18.6c-4.8,6.9-10.6,13-15.8,19.5c-3.8,4.8-7.8,9.5-12.6,13.3c-4.2,3.3-8.6,6.5-12.9,9.8
				c-1,0.7-11.6,7.6-14,6c-0.1-4.1,1.4-8,3-11.8c1.1-2.5,1.2-4.9,1.3-7.5c0.3-6.6,0.6-13.2,0.9-19.8c0.2-5.6,0.4-11.2,0.6-16.8
				c0.1-2.6,0.3-5.1,0.3-7.7c-0.2-7.7-0.6-15.4-0.9-23.1c-0.3-7.5-0.6-14.9-0.9-22.4c0-1.1,0.2-2.2,0.2-3.3
				c0.6-10.5,6.4-14.7,15-17.6C634.3,372.4,636,372.3,638,371.9 M645.1,454.2c0.8-0.1,0.9-2.8,1.3-2.4c3.2,2.7,10.2,4.7,12.4,9
				c0.8-0.8,1.2-1.2,1.6-1.7c7.2-9.8,14.4-19.5,21.4-29.4c3.1-4.3,5-9.2,5.6-14.6c0.5-4.5-2.1-10-5.4-11.2c-1.3-0.5-7.7-2.6-11.7-2
				c-1.2,4.7-2.4,9.1-3.5,13.4c2,1.3,4,2.6,6,4c1,0.8,1,3.2-0.1,2.6c-1.1-0.6-4.6-3.1-7.5-3c-2.3,4.2-4.5,8.2-6.6,12.2
				c5.1,3.3,5.7,4.3,5.1,5.8c-0.6,1.4-4.5-1.7-6.8-2.6c-1.8,3.1-3.4,5.9-5,8.6c1.5,1.5,5.6,2.1,4.5,3.8c-1.1,1.7-2.5,0.4-4-0.3
				c-1.5-0.7-1.8-1.4-2.8,1c-1.3,2-2.6,4.9-3.7,7.1c-2.4,3.8-4.4,7-6.7,10.8c-4.2,7-8.4,14.1-12.6,21.1c-2,3.3-6.9,11.2-2.9,8.4
				c8.8-5.7,15.8-12.1,23-19.3c-1.4-0.7-2.6-1.2-3.7-1.8c-1.4-0.8-1.9-2.3-1.2-3.2c0.7-0.9,4.7,1.7,7,3c3-3.6,5.9-7.2,9.1-11.2
				c-2.3-1.2-4.1-2.6-6.2-3.3C648.8,458,646.1,456.7,645.1,454.2 M662.4,407.8c0.4-2,0.7-4.4,1.4-6.7c1.5-4.7,0.6-9.3-0.6-13.7
				c-0.8-2.8-1.7-6.1-5.2-7c-3.4-0.9-6.8-1.8-10.2-2.7c-2.6-0.7-5.2-1.8-7.7-1.8c-6.8,0-12.7,2.3-16.7,8.1c-1.7,2.4-2,5.3-1.7,8.3
				c2.8-0.5,5.2-1.2,7.6-1.4c2.5-0.2,6.2,0,8.7,0.5c2.3,0.4,2.7,5.2,0.5,4.4c-2.1-0.9-11-1.9-17.5,0.9c0.4,6.9,0.7,13.7,1.1,20.6
				c3.4,0,6.3-0.1,9.2,0c1.7,0,3.4,0.2,5.1,0.5c1.5,0.3,2.3,1.8,1.8,3.1c-0.5,1.5-1.7,1-2.7,0.7c-4.3-1.1-8.5-0.8-13-0.5
				c0.1,1.6,0.2,2.7,0.4,4c2.4-0.2,4.5-0.6,6.5-0.5c2,0.1,4.1,0.4,6.1,0.9c2.4,0.1,3.3,2.4,1.1,2.5c-2.1,0.1-9,0.4-13.6,0.7
				c0,8.4-0.1,16.5-0.1,24.8c2.5,0.2,4.7,0.4,6.9,0.6c3.8,0.1,3.8,3.6,1.8,3.5c-2-0.1-5.8-0.2-9-0.3c-0.6,9.3-1.1,18.3-1.7,27.3
				c0.2,0,0.3,0,0.5,0c7.6-13.3,15.2-26.6,23-40.1c-0.9-0.3-1.6-0.5-2.2-0.7c-2.3-0.7-4.7-1.3-7-2c-1.4-0.4-3.4-2.4-1.4-3.1
				c2-0.7,8.4,1.1,12.4,3c2.3-4.2,4.7-8.2,6.8-12.3c2.4-4.9,4.8-9.9,6.8-15c1.3-3.2,0.5-4.4-2.8-5.2c-2-0.5-4.1-0.6-6.2-0.9
				c-3.2-0.4-3.2-2.4-2.3-3.8c0.7-1.2,4.8,0.2,7,0.7C657.5,405.7,659.7,406.8,662.4,407.8 M650,374.3c1.4-5.3,4.8-14.6,2.9-15.2
				c-2.9-0.9-4.2,0.2-4.6,4.1c-0.3,3.3-0.6,6.5-0.9,9.8C648.4,373.6,649.2,373.9,650,374.3 M683.6,399.9c7.3-1.7,10.7-5.1,10.6-10.8
				C688.9,391.2,686.8,396.1,683.6,399.9 M676.8,398.3c0.4,0.1,0.7,0.2,1.1,0.2c1-3.2,2.3-6.4,3-9.7c0.5-2.3,0.1-2.5-3.2-2.6
				C677.2,390.2,676,394.1,676.8,398.3 M642.5,372.1c0.2-2,0.6-3.6,0.4-5.2c-0.2-1.5-0.9-3-1.6-4.4c-0.7-1.5-1.8-3.6-3.9-2.6
				C635,361.2,639.7,368.7,642.5,372.1 M672.3,397.6c-0.4-3.5-0.8-6.9-1.3-10.5c-2.5,3.1-3.1,6.2-1.8,9
				C669.9,397.4,670.8,398.2,672.3,397.6 M666.7,367.2c-1.8-2.2-13,4.8-11.2,6.2C657.3,374.9,668.5,369.3,666.7,367.2"/>
			<path d="M583.7,550c0.4-1.5,1.4-5.1,2-7.5c-2.9-2.2-2.7-2.2-1.7-5.4c1.3-4.2,2.3-8.5,3.4-12.7c0.8-3.4,1.6-6.9,2.3-10.4
				c2.7-13.2,5.4-26.3,8.1-39.5c0.6-3.1,1.4-6.2,2-9.3c0.5-2.5,0.7-5.1,1-7.6c0.4-4,0.6-8,1.3-12c0.2-1.3,1.4-2.5,2.6-4.5
				c-0.2-6.4,0.1-20.2,1.4-21.1c1.3-0.9,1.6,1.6,1.5,2.8c-0.8,5.9-0.2,11.7,0.5,17.5c0.1,0.6-0.1,1.5,0.2,1.8c2.7,2.5,2,5.8,1.8,8.6
				c-0.3,7.5-1.1,14.9-1.9,22.3c-1.2,10.2-3.3,20.2-6,30.1c-1,3.5-1.4,7.2-2.3,10.7c-1.7,6.5-3.6,12.9-5.3,19.4
				c-0.5,1.6-0.8,3.3-1.3,5c-0.8,2.9-1.9,5.5-4.7,7.2c-0.9,0.6-1.3,2-1.9,3.1C585.9,550.7,583.3,551.6,583.7,550 M589.7,540.4
				c0.4-1.5,3.9-14.3,5.8-21.6c1.4-5.7,2.5-11.5,3.8-17.2c1.1-5,2.4-10,3.3-15c1-5.3,1.8-10.6,2.6-15.9c0.4-2.9,0.5-5.8,0.8-8.7
				c0.2-2.9,0.5-5.9,0.7-8.8c0.2-2.5,0.5-6.6,0.5-7.5c-0.1-0.9-1-0.1-1.9-0.1c-0.9,0.1-0.4,8.4-1.4,12.8c-1,4.4-1.1,9.5-1.9,13.9
				c-0.9,4.6-1.9,9.1-2.8,13.7c-0.9,4.4-1.7,8.9-2.5,13.3c-0.9,4.6-1.9,9.1-2.9,13.6c-1,4.4-2,8.8-3.1,13.2
				c-1.1,4.5-3.6,12-3.4,13.6C587.4,541.1,589.3,541.9,589.7,540.4"/>
			<path d="M594,444.6c0.4-4,0.5-10.6,1.1-11.8c0.5-1.2,2.3-0.6,2.4,0.9c0,2-0.2,3.9-0.1,5.9c0.1,2.9-0.4,5.8,1.5,8.4
				c0.5,0.8,0.6,2.1,0.4,3.2c-0.5,3.4-1.2,6.7-1.8,10.1c-1.2,6.1-2.3,12.3-3.7,18.3c-2.3,10.1-8,39.3-9,43.7
				c-1.3,5.8-2.9,16.9-3.7,17.7c-0.8,0.7-1.5,0.2-2.3,0.3c-1.7,3.2-3.6,10.1-5,9.8c-1.4-0.4-0.3-5.8,2.1-11.8
				c-2.1-1.8-2.3-4.2-1.8-6.9c1.2-7.1,2.3-14.3,3.5-21.4c1.1-6.3,2.5-12.5,3.7-18.7c2.1-10.7,4-21.4,6.1-32.1
				c0.8-4.1,1.9-8.1,3.2-12.1C591,446.7,593.8,444.5,594,444.6 M577.5,536.4c1,0.6,2.3-0.3,2.3-0.5c2.8-13.5,4.4-27.3,7.1-40.8
				c2.1-10.1,4.2-20.1,6.2-30.1c1-4.8,1.7-9.6,2.6-14.4c0.2-1.2,0-1.9-1.5-1.9c-0.3,0.6-0.8,1.2-0.9,1.8c-1.6,6.6-3.3,13.3-4.7,20
				c-1.1,5.1-1.6,10.4-2.7,15.5c-1.3,6.6-2.8,13.1-4.2,19.7c-1.1,5.1-2,10.3-2.9,15.5c-0.7,3.6-1.3,7.2-1.8,10.9
				C577,533.4,576.5,535.8,577.5,536.4"/>
			<path d="M563.3,541.3c-3.1-1.8-2.9-4.5-2.2-7.8c1.7-8,3.9-15.8,4.7-24c0.4-4.5,1.7-8.9,2.6-13.3c1-5.3,1.9-10.6,3-15.8
				c1.6-7.7,3.2-15.3,4.9-22.9c1-4.6,1.2-4.5,5.4-6.6c1.7-7.7,6.2-12,7.1-11.5c0.9,0.5-1.9,4.1-2.4,6.1c-0.6,2.3-0.8,4.8-1.1,7.1
				c-0.6,3.7-1,7.5-1.7,11.2c-1.2,6.5-2.6,12.9-3.8,19.4c-1,5.4-2,10.8-3,16.2c-1.2,6.6-2.4,13.2-3.7,19.8
				c-1.4,7.4-2.8,14.9-4.3,22.3c-0.1,0.8-0.7,2-1.2,2c-2.7,0.3-2.6,2.5-3.2,4.2c-0.4,1.3-0.7,2.6-1.2,3.8c-0.2,0.4-0.7,0.6-1.7,0.6
				c-1.1,0.1-0.7-1-0.6-1.4C561.7,547.7,562.5,544.8,563.3,541.3 M581.8,454.5c-1.5,0.1-2.9,5.4-3.9,11c-1.6,8.8-3.3,17.5-5.1,26.3
				c-1,4.9-2,9.8-3,14.7c-1.5,7.6-3,15.1-4.4,22.7c-0.5,2.6-0.9,5.3-1.2,8c-0.1,0.7,0.6,1.4,1.7,2.1
				C567.1,539.9,583.3,454.4,581.8,454.5"/>
			<path d="M613.5,530.7c-2.8,0.2-6.5-2.1-5.6-6c0.9-3.8,6.7-7.3,10.6-5.1c3.5,2.1,4.1,5.9,1,8.5
				C618.1,529.4,616.4,530.6,613.5,530.7 M611.4,524.4c-0.2,2,0.4,2.4,2,2.5c1.2,0.1,2.6-0.5,3.6-1.2c0.9-0.6,1.8-1.8,1.1-3.1
				c-0.7-1.3-2-1.4-3.2-0.9C613.8,522.2,611.6,522.4,611.4,524.4"/>
			<path d="M636.7,529.3c-0.2,2.8-2.6,4.8-5.5,4.6c-2.8-0.2-6-3.6-5.8-6.1c0.2-2.5,3.1-4.6,5.9-4.3
				C634.4,523.8,636.9,526.5,636.7,529.3 M630.3,530.8c1.8,0.5,3.2-1.3,3.2-2.4c0-1.2-0.7-1.7-1.8-1.6c-1.4,0.1-2.9,0.3-2.9,2
				C628.8,529.5,628.5,530.2,630.3,530.8"/>
			<path d="M619.5,544c-2.7-0.2-4.3-2.5-5.4-5.1c-0.3-0.7,0.1-1.9,0.5-2.7c1.1-1.9,4.7-3.1,6.8-2.3c2.6,0.9,4.7,4,4.4,6.5
				C625.6,542.7,622.8,544.5,619.5,544 M622.9,539.4c0-1.9-1.6-3.4-3-3.2c-1.2,0.2-2.5,0.6-2.7,2.1c-0.2,1.3,1.8,3.1,3.2,2.8
				C621.5,540.8,622.9,541.3,622.9,539.4"/>
			<path d="M683.4,370.8c-2.7-0.3-5.3-2.8-5-4.7c0.4-2.3,4-5,6.3-4.8c2,0.2,4.3,3.1,3.9,5C688.1,369.2,685.9,371.1,683.4,370.8
				 M685.8,364.5c-1.9-1.8-6.4,0.3-3.3,3.3C685.1,370.4,687.7,366.3,685.8,364.5"/>
			<path d="M672.7,359.9c-2.1-0.2-5-3.7-4.8-5.8c0.1-1.6,2.9-3.8,4.5-3.5c2.3,0.4,4.8,3.5,4.5,5.5
				C676.7,358,674.3,360.1,672.7,359.9 M674.9,355.1c-0.1-1.2-0.8-1.4-1.8-1.9c-1-0.5-2.1-0.9-2.8,0.2c-0.7,1.1,0.4,3,1.7,3.3
				C673.3,356.9,675,356.3,674.9,355.1"/>
			<path d="M684.6,357.3c-2.1-0.2-3.7-2.3-3.6-4.3c0.1-1.8,3.8-4.6,5.6-4.3c2,0.3,3.8,2.9,3.5,4.9
				C689.8,355.8,687.1,357.6,684.6,357.3 M687.3,351.8c-1.5-1.9-5.7,0.9-4,2.8C684.9,356.5,689.2,354.3,687.3,351.8"/>
		</g>
		<path class="st2" d="M226.3,413.8c2.4,1.8,3.4,1.7,5.8-0.4C229.5,410.7,228.3,410.8,226.3,413.8"/>
		<path class="st2" d="M241.8,416.2c2.1,1.1,3.6,1.9,5.2,2.8c0.6-2.2,0.6-2.2-1.3-4.9C244.6,414.7,243.4,415.3,241.8,416.2"/>
		<path class="st2" d="M235.8,428.4c0.3,0.3,1.3,0.5,1.6,0.2c0.5-0.5,1-1.3,1-1.9c-0.1-1.2-1.3-1.5-4.2-0.7
			C234.8,427.1,235.2,427.9,235.8,428.4"/>
		<path class="st2" d="M178.6,428.9c0.1,3.5,0.4,7,0.7,10.5c0.1,1.2,0.8,1.8,1.8,2.3c10.5,5.6,21.7,9.3,32.6,13.9
			c10,4.1,20.4,7.1,30.8,9.8c6,1.5,12.2,2.2,18.3,3.1c8.2,1.2,16.4,2.5,24.7,3.2c7.7,0.7,15.4,0.8,23.2,1.2c0.9,0,1.8-0.3,3-0.5
			c0.4-4.4,0.8-8.6,1.3-13.3c-4.5,0.3-8.9,0.7-13.3,0.8c-3.4,0.1-6.7,0-10.1-0.2c-4.1-0.2-8.2-0.5-12.2-1c-2.8-0.3-5.5-1-8.3-1.5
			c-5.4-0.9-10.9-1.7-16.3-2.7c-8.2-1.6-16.3-3.2-24.1-6.2c-6.2-2.4-12.7-4.3-18.8-6.9c-10.6-4.5-20.7-9.9-29.7-17.1
			c-0.7-0.6-1.5-1-2.9-1.9C178.9,424.9,178.5,426.9,178.6,428.9"/>
		<path class="st2" d="M313.4,497.6c0-1.2-0.2-2.3-0.3-3.5c-10.4,0.6-20.7-0.7-30.9-2.1c-3.8-0.5-7.7-0.5-11.6-0.8
			c-8.1-0.8-16.3-1.8-24.2-3.9c-3.3-0.8-6.7-1.3-9.9-2.3c-13-4.2-26-8.6-38.9-13.1c-4.7-1.6-9.3-3.8-14.3-6
			c0.7,4.1,1.2,7.9,5.2,10.4c9.2,5.7,18.8,10.5,29,14c13.1,4.5,26.6,7.4,40.1,10.3c2.4,0.5,4.9,0.6,7.3,0.9c6.5,0.6,13,1.4,19.6,1.6
			c7.8,0.3,15.6,0.1,23.4,0.1c1.7,0,3.4,0,5.4,0C313.4,500.9,313.5,499.2,313.4,497.6"/>
	</g>
	<g>
		<g>
			<path class="st2" d="M874.9,116.9c-4.6,0-7.9-1-10-3s-3.1-5.4-3.1-10v-3.8c0-8.6,4.4-12.8,13.1-12.8c8.1,0,12.4,3.4,13,10.2
				c0,0.1,0,0.2,0.1,0.5s0,0.4,0.1,0.5c0,0.5-0.1,0.9-0.4,1.2s-0.7,0.4-1.2,0.4h-3.9c-0.6,0-1-0.1-1.3-0.4s-0.4-0.7-0.5-1.2
				c-0.1-0.5-0.1-0.8-0.1-0.8c-0.3-1.4-0.9-2.3-1.8-3s-2.2-0.9-3.9-0.9c-1.4,0-2.5,0.2-3.3,0.6s-1.5,1.1-1.9,2.1s-0.7,2.4-0.7,4.1
				v3.3c0,2.5,0.5,4.2,1.4,5.2s2.4,1.5,4.5,1.5c1.8,0,3.1-0.3,4-1s1.5-1.8,1.7-3.5c0-0.1,0.1-0.3,0.1-0.7c0.1-1.1,0.6-1.6,1.7-1.6
				h3.9c0.5,0,0.9,0.1,1.2,0.4s0.4,0.7,0.4,1.2l-0.1,0.9c-0.2,3.7-1.4,6.4-3.6,8.2S879,116.9,874.9,116.9z"/>
			<path class="st2" d="M905.7,111c0,1.9-0.6,3.4-1.8,4.4s-3.2,1.5-5.8,1.5c-2.6,0-4.6-0.6-5.9-1.7s-2-2.9-2-5.1v-0.4
				c0-1,0.1-2,0.4-2.8s0.7-1.5,1.1-2s1-1,1.7-1.4s1.4-0.7,2.1-0.9s1.5-0.4,2.5-0.6s1.8-0.3,2.6-0.4s1.6-0.2,2.6-0.3s1.8-0.2,2.4-0.4
				v-0.7c0-1.4-0.3-2.3-0.9-2.8s-1.6-0.7-3.1-0.7c-0.9,0-1.7,0.1-2.1,0.3s-0.8,0.5-1,0.9c-0.2,0.2-0.3,0.4-0.4,0.7
				c-0.2,0.8-0.7,1.1-1.7,1.1h-3.7c-1.2,0-1.8-0.6-1.8-1.7c0-0.4,0-0.7,0.1-1c0.2-2,1.2-3.6,3-4.8s4.2-1.7,7.4-1.7
				c4,0,6.9,0.7,8.7,2.2s2.7,3.9,2.7,7.3v14.8c0,0.6-0.2,1-0.5,1.3s-0.8,0.5-1.4,0.5h-3.6c-0.6,0-1-0.2-1.3-0.5s-0.5-0.8-0.5-1.3
				V111z M900.7,112.5c0.8,0,1.4,0,2-0.1s1.1-0.2,1.6-0.4s0.9-0.4,1.1-0.8s0.4-0.8,0.4-1.3v-4.6c-0.2,0-0.5,0.1-0.9,0.1
				c-1.1,0.2-1.9,0.3-2.4,0.4s-1.1,0.2-1.8,0.4s-1.2,0.3-1.5,0.5s-0.6,0.4-0.9,0.6s-0.6,0.6-0.7,0.9s-0.2,0.7-0.2,1.2v0.3
				C897.4,111.6,898.5,112.5,900.7,112.5z"/>
			<path class="st2" d="M921.2,116.8h-3.6c-0.6,0-1-0.2-1.3-0.5s-0.5-0.8-0.5-1.3V89.2c0-0.6,0.2-1,0.5-1.3s0.8-0.5,1.3-0.5h3.6
				c0.6,0,1,0.2,1.3,0.5s0.5,0.8,0.5,1.3V115c0,0.6-0.2,1-0.5,1.3S921.7,116.8,921.2,116.8z"/>
			<path class="st2" d="M937.5,116.9c-4,0-7-1-8.9-3s-2.9-5-2.9-9v-2.3c0-4,1-7,2.9-9s4.9-3,8.9-3c3.2,0,5.8,0.6,7.8,1.8
				s3.3,3,3.8,5.2c0.2,0.8,0.2,1.6,0.2,2.3c0,1.1-0.6,1.6-1.7,1.6h-3.7c-0.6,0-1-0.1-1.2-0.3s-0.4-0.5-0.6-1
				c-0.1-0.3-0.2-0.7-0.3-1.1c-0.3-0.8-0.8-1.3-1.5-1.6s-1.6-0.5-2.8-0.5c-1.1,0-2,0.2-2.6,0.5s-1.1,0.9-1.5,1.8s-0.5,2-0.5,3.5v1.6
				c0,2.2,0.4,3.8,1.1,4.6s1.9,1.3,3.5,1.3c1.2,0,2.1-0.1,2.8-0.4s1.2-0.8,1.5-1.5c0.2-0.6,0.4-1.1,0.5-1.4c0.1-0.4,0.3-0.7,0.6-0.9
				s0.7-0.3,1.2-0.3h3.6c1.1,0,1.7,0.6,1.7,1.7c0,0.8-0.1,1.5-0.2,2.1c-0.4,2.3-1.7,4.1-3.7,5.4S940.7,116.9,937.5,116.9z"/>
			<path class="st2" d="M957.9,89.7h-4.5c-0.9,0-1.3-0.4-1.3-1.3v-0.1c0-0.9,0.4-1.3,1.3-1.3h4.5c0.9,0,1.3,0.4,1.3,1.3v0.1
				C959.2,89.2,958.7,89.7,957.9,89.7z M957.4,116.8h-3.6c-0.6,0-1-0.2-1.3-0.5s-0.5-0.8-0.5-1.3V92.6c0-0.6,0.2-1,0.5-1.3
				s0.8-0.5,1.3-0.5h3.6c0.6,0,1,0.2,1.3,0.5s0.5,0.8,0.5,1.3V115c0,0.6-0.2,1-0.5,1.3S957.9,116.8,957.4,116.8z"/>
			<path class="st2" d="M977.6,106.7c0,3.5-0.6,6.1-1.7,7.8s-3,2.5-5.7,2.5c-2.8,0-4.9-0.8-6.2-2.3s-2-4.1-2-7.6V92.6
				c0-0.6,0.2-1,0.5-1.3s0.8-0.5,1.3-0.5h3.6c0.6,0,1,0.2,1.3,0.5s0.5,0.8,0.5,1.3v13c0,1.5,0.3,2.6,0.9,3.3s1.5,1,2.9,1
				c0.7,0,1.3-0.1,1.8-0.2s1-0.4,1.4-0.7s0.8-0.9,1-1.6s0.3-1.5,0.3-2.6V92.6c0-0.6,0.2-1,0.5-1.3s0.8-0.5,1.3-0.5h3.6
				c0.6,0,1,0.2,1.3,0.5s0.5,0.8,0.5,1.3V115c0,0.6-0.2,1-0.5,1.3s-0.8,0.5-1.3,0.5h-3.6c-0.6,0-1-0.2-1.3-0.5s-0.5-0.8-0.5-1.3
				V106.7z"/>
			<path class="st2" d="M994.9,100.9c0-3.5,0.6-6.1,1.7-7.8s3-2.5,5.7-2.5c2.6,0,4.6,0.7,5.9,2s2,3.4,2.2,6.4c0.2-2.9,0.9-5,2.1-6.4
				s3-2,5.4-2c2.8,0,4.9,0.8,6.2,2.3s1.9,4,1.9,7.5v14.5c0,0.6-0.2,1-0.5,1.3s-0.8,0.5-1.3,0.5h-3.6c-0.6,0-1-0.2-1.4-0.5
				s-0.5-0.8-0.5-1.3v-13c0-1.5-0.3-2.6-0.9-3.3s-1.5-1-2.9-1c-0.7,0-1.3,0.1-1.8,0.2s-1,0.4-1.4,0.8s-0.8,0.9-1,1.7
				s-0.4,1.7-0.4,2.8V115c0,0.6-0.2,1-0.5,1.3s-0.8,0.5-1.3,0.5h-3.6c-0.6,0-1-0.2-1.3-0.5s-0.5-0.8-0.5-1.3v-13
				c0-1.5-0.3-2.6-0.9-3.3s-1.5-1-2.9-1c-0.7,0-1.3,0.1-1.8,0.2s-1,0.4-1.4,0.7s-0.8,0.9-1,1.5s-0.4,1.5-0.4,2.6V115
				c0,0.6-0.2,1-0.5,1.3s-0.8,0.5-1.3,0.5h-3.6c-0.6,0-1-0.2-1.3-0.5s-0.5-0.8-0.5-1.3V92.6c0-0.6,0.2-1,0.5-1.3s0.8-0.5,1.3-0.5
				h3.6c0.6,0,1,0.2,1.3,0.5s0.5,0.8,0.5,1.3V100.9z"/>
		</g>
	</g>
	<g>
		<path class="st7" d="M579.2,100.2h-15.7c-0.6,0-1-0.2-1.3-0.5s-0.5-0.8-0.5-1.3V72.7c0-0.6,0.2-1,0.5-1.3s0.8-0.5,1.3-0.5h15.7
			c0.6,0,1,0.2,1.4,0.5s0.5,0.8,0.5,1.3v3.1c0,0.6-0.2,1-0.5,1.3s-0.8,0.5-1.4,0.5h-10.3V82h9.6c0.6,0,1,0.2,1.4,0.5
			s0.5,0.8,0.5,1.3v2.6c0,0.6-0.2,1-0.5,1.3s-0.8,0.5-1.4,0.5h-9.6v5.4h10.3c0.6,0,1,0.2,1.4,0.5s0.5,0.8,0.5,1.3v3.1
			c0,0.6-0.2,1-0.5,1.3S579.8,100.2,579.2,100.2z"/>
		<path class="st7" d="M598.7,94.4c0,1.9-0.6,3.4-1.8,4.4s-3.2,1.5-5.8,1.5c-2.6,0-4.6-0.6-5.9-1.7s-2-2.9-2-5.1v-0.4
			c0-1,0.1-2,0.4-2.8s0.7-1.5,1.1-2s1-1,1.7-1.4s1.4-0.7,2.1-0.9s1.5-0.4,2.5-0.6s1.8-0.3,2.6-0.4s1.6-0.2,2.6-0.3s1.8-0.2,2.4-0.4
			v-0.7c0-1.4-0.3-2.3-0.9-2.8s-1.6-0.7-3.1-0.7c-0.9,0-1.7,0.1-2.1,0.3s-0.8,0.5-1,0.9c-0.2,0.2-0.3,0.4-0.4,0.7
			c-0.2,0.8-0.7,1.1-1.7,1.1h-3.7c-1.2,0-1.8-0.6-1.8-1.7c0-0.4,0-0.7,0.1-1c0.2-2,1.2-3.6,3-4.8s4.2-1.7,7.4-1.7
			c4,0,6.9,0.7,8.7,2.2s2.7,3.9,2.7,7.3v14.8c0,0.6-0.2,1-0.5,1.3s-0.8,0.5-1.4,0.5h-3.6c-0.6,0-1-0.2-1.3-0.5s-0.5-0.8-0.5-1.3
			V94.4z M593.7,95.9c0.8,0,1.4,0,2-0.1s1.1-0.2,1.6-0.4s0.9-0.4,1.1-0.8s0.4-0.8,0.4-1.3v-4.6c-0.2,0-0.5,0.1-0.9,0.1
			c-1.1,0.2-1.9,0.3-2.4,0.4s-1.1,0.2-1.8,0.4s-1.2,0.3-1.5,0.5s-0.6,0.4-0.9,0.6s-0.6,0.6-0.7,0.9s-0.2,0.7-0.2,1.2v0.3
			C590.4,95,591.5,95.9,593.7,95.9z"/>
		<path class="st7" d="M624.3,90.2c0,3.5-0.6,6.1-1.7,7.8s-3,2.5-5.7,2.5c-2.8,0-4.9-0.8-6.2-2.3s-2-4.1-2-7.6V76.1
			c0-0.6,0.2-1,0.5-1.3s0.8-0.5,1.3-0.5h3.6c0.6,0,1,0.2,1.3,0.5s0.5,0.8,0.5,1.3v13c0,1.5,0.3,2.6,0.9,3.3s1.5,1,2.9,1
			c0.7,0,1.3-0.1,1.8-0.2s1-0.4,1.4-0.7s0.8-0.9,1-1.6s0.3-1.5,0.3-2.6V76.1c0-0.6,0.2-1,0.5-1.3s0.8-0.5,1.3-0.5h3.6
			c0.6,0,1,0.2,1.3,0.5s0.5,0.8,0.5,1.3v22.3c0,0.6-0.2,1-0.5,1.3s-0.8,0.5-1.3,0.5h-3.6c-0.6,0-1-0.2-1.3-0.5s-0.5-0.8-0.5-1.3
			V90.2z"/>
	</g>
	<g>
		<g>
			<path class="st2" d="M33.3,340.7c-0.3,0.8-0.7,1.5-1.2,2.1s-1.1,1.2-1.9,1.7s-1.7,0.9-2.8,1.2s-2.3,0.4-3.6,0.4
				c-4.3,0-7.5-1-9.5-3.1s-3-5.5-3-10.2v-3.8c0-4.1,1.1-7.3,3.2-9.4s5.4-3.2,9.9-3.2c4,0,7,0.7,9.2,2.2s3.4,3.6,3.7,6.4
				c0.1,0.2,0.1,0.6,0.2,1.2c0,0.5-0.1,0.9-0.4,1.2s-0.7,0.4-1.2,0.4H32c-0.6,0-1-0.1-1.3-0.3s-0.4-0.6-0.5-1.1
				c-0.1-0.4-0.2-0.7-0.2-0.9c-0.4-1-1-1.7-1.9-2.1s-2.2-0.7-3.7-0.7c-1.4,0-2.5,0.2-3.3,0.6s-1.5,1.1-1.9,2.1s-0.7,2.4-0.7,4.1v3.3
				c0,2.5,0.5,4.2,1.4,5.2s2.4,1.5,4.5,1.5c0.7,0,1.3,0,1.9-0.1s1.1-0.2,1.6-0.4s0.9-0.5,1.3-0.8s0.6-0.8,0.8-1.3s0.3-1.2,0.3-2
				v-0.2H26c-0.5,0-0.9-0.2-1.2-0.5s-0.4-0.7-0.4-1.3v-1.4c0-0.6,0.2-1,0.5-1.3s0.8-0.5,1.3-0.5h9.5c0.6,0,1,0.2,1.4,0.5
				s0.5,0.8,0.5,1.3v12.8c0,0.9-0.5,1.4-1.4,1.4h-0.2c-0.5,0-0.8-0.1-1-0.2s-0.4-0.5-0.5-0.9L33.3,340.7z"/>
			<path class="st2" d="M45.7,345.9h-3.6c-0.6,0-1-0.2-1.3-0.5s-0.5-0.8-0.5-1.3v-25.8c0-0.6,0.2-1,0.5-1.3s0.8-0.5,1.3-0.5h3.6
				c0.6,0,1,0.2,1.3,0.5s0.5,0.8,0.5,1.3v25.8c0,0.6-0.2,1-0.5,1.3S46.2,345.9,45.7,345.9z"/>
			<path class="st2" d="M65.9,335.8c0,3.5-0.6,6.1-1.7,7.8s-3,2.5-5.7,2.5c-2.8,0-4.9-0.8-6.2-2.3s-2-4.1-2-7.6v-14.4
				c0-0.6,0.2-1,0.5-1.3s0.8-0.5,1.3-0.5h3.6c0.6,0,1,0.2,1.3,0.5s0.5,0.8,0.5,1.3v13c0,1.5,0.3,2.6,0.9,3.3s1.5,1,2.9,1
				c0.7,0,1.3-0.1,1.8-0.2s1-0.4,1.4-0.7s0.8-0.9,1-1.6s0.3-1.5,0.3-2.6v-12.3c0-0.6,0.2-1,0.5-1.3s0.8-0.5,1.3-0.5h3.6
				c0.6,0,1,0.2,1.3,0.5s0.5,0.8,0.5,1.3v22.3c0,0.6-0.2,1-0.5,1.3s-0.8,0.5-1.3,0.5h-3.6c-0.6,0-1-0.2-1.3-0.5s-0.5-0.8-0.5-1.3
				V335.8z"/>
			<path class="st2" d="M87.6,346c-4,0-7-1-8.9-3s-2.9-5-2.9-9v-2.3c0-4,1-7,2.9-9s4.9-3,8.9-3c3.2,0,5.8,0.6,7.8,1.8s3.3,3,3.8,5.2
				c0.2,0.8,0.2,1.6,0.2,2.3c0,1.1-0.6,1.6-1.7,1.6H94c-0.6,0-1-0.1-1.2-0.3s-0.4-0.5-0.6-1c-0.1-0.3-0.2-0.7-0.3-1.1
				c-0.3-0.8-0.8-1.3-1.5-1.6s-1.6-0.5-2.8-0.5c-1.1,0-2,0.2-2.6,0.5s-1.1,0.9-1.5,1.8s-0.5,2-0.5,3.5v1.6c0,2.2,0.4,3.8,1.1,4.6
				s1.9,1.3,3.5,1.3c1.2,0,2.1-0.1,2.8-0.4s1.2-0.8,1.5-1.5c0.2-0.6,0.4-1.1,0.5-1.4c0.1-0.4,0.3-0.7,0.6-0.9s0.7-0.3,1.2-0.3h3.6
				c1.1,0,1.7,0.6,1.7,1.7c0,0.8-0.1,1.5-0.2,2.1c-0.4,2.3-1.7,4.1-3.7,5.4S90.8,346,87.6,346z"/>
			<path class="st2" d="M108,318.8h-4.5c-0.9,0-1.3-0.4-1.3-1.3v-0.1c0-0.9,0.4-1.3,1.3-1.3h4.5c0.9,0,1.3,0.4,1.3,1.3v0.1
				C109.3,318.3,108.8,318.8,108,318.8z M107.5,345.9h-3.6c-0.6,0-1-0.2-1.3-0.5s-0.5-0.8-0.5-1.3v-22.3c0-0.6,0.2-1,0.5-1.3
				s0.8-0.5,1.3-0.5h3.6c0.6,0,1,0.2,1.3,0.5s0.5,0.8,0.5,1.3v22.3c0,0.6-0.2,1-0.5,1.3S108,345.9,107.5,345.9z"/>
			<path class="st2" d="M128.6,328.3v-10c0-0.6,0.2-1,0.5-1.3s0.8-0.5,1.3-0.5h3.6c0.6,0,1,0.2,1.3,0.5s0.5,0.8,0.5,1.3V344
				c0,0.6-0.2,1-0.5,1.3s-0.8,0.5-1.3,0.5h-3.6c-0.6,0-1-0.2-1.3-0.5s-0.5-0.8-0.5-1.3v-6.7c0,3-0.6,5.1-1.7,6.5s-3.1,2.1-5.7,2.1
				c-3.2,0-5.5-0.9-6.9-2.7s-2.1-4.7-2.1-8.8v-3.4c0-3.9,0.7-6.8,2.1-8.6s3.7-2.8,6.8-2.8c2.6,0,4.6,0.7,5.7,2.2
				S128.6,325.5,128.6,328.3z M124,325.6c-1.1,0-2,0.2-2.6,0.6s-1.2,1.1-1.5,2.1s-0.5,2.4-0.5,4.2v0.8c0,1.8,0.2,3.2,0.5,4.2
				s0.8,1.7,1.5,2.1s1.5,0.6,2.6,0.6c0.7,0,1.3-0.1,1.8-0.2s1-0.3,1.4-0.6s0.8-0.8,1-1.3s0.3-1.3,0.3-2.2v-6c0-0.7-0.1-1.3-0.2-1.8
				s-0.4-0.9-0.6-1.2s-0.6-0.6-1-0.7s-0.8-0.3-1.2-0.4S124.5,325.6,124,325.6z"/>
			<path class="st2" d="M161.8,339.8c-0.5,2-1.8,3.5-3.8,4.6s-4.6,1.6-7.7,1.6c-4,0-7-1-8.9-3s-2.9-5-2.9-9v-2.3c0-4,1-7,2.9-9
				s4.9-3,9-3c3.8,0,6.7,0.8,8.7,2.5s3,4.2,3,7.4v2.5c0,0.5-0.1,1-0.4,1.2s-0.7,0.4-1.2,0.4h-14.8c0,2.3,0.4,3.9,1.1,4.8
				s1.9,1.3,3.5,1.3c1.2,0,2.1-0.1,2.8-0.4s1.2-0.7,1.5-1.4c0.1-0.1,0.1-0.4,0.2-0.7c0.1-0.6,0.3-1.1,0.6-1.3s0.8-0.4,1.4-0.4h3.5
				c1.1,0,1.7,0.6,1.7,1.9C162,338.5,161.9,339.2,161.8,339.8z M150.5,325.7c-1.5,0-2.6,0.3-3.3,1s-1.2,1.8-1.4,3.4h9.1v-0.1
				c0-1.6-0.4-2.7-1.1-3.3S152,325.7,150.5,325.7z"/>
			<path class="st2" d="M164.6,339.8c-0.1-0.3-0.1-0.8-0.2-1.4c0-0.6,0.1-1,0.4-1.3s0.8-0.4,1.5-0.4h3.1c0.6,0,1,0.1,1.2,0.2
				s0.5,0.4,0.6,0.8c0.2,0.6,0.4,1,0.5,1.2c0.3,0.6,0.8,1.1,1.5,1.4s1.5,0.4,2.6,0.4c1.4,0,2.4-0.2,3.1-0.6s1.1-0.9,1.1-1.7v-0.1
				c0-0.7-0.1-1.2-0.4-1.5s-0.8-0.6-1.6-0.8s-2.1-0.4-3.8-0.6c-1-0.1-1.9-0.2-2.6-0.3s-1.5-0.3-2.2-0.5s-1.3-0.4-1.8-0.7
				s-0.9-0.6-1.4-0.9s-0.7-0.8-1-1.3s-0.4-1.1-0.6-1.7s-0.2-1.4-0.2-2.2v-0.1c0-2.7,0.9-4.6,2.8-6s4.7-2,8.5-2
				c2.9,0,5.3,0.4,7.2,1.3s3,2.2,3.6,4c0.2,0.8,0.3,1.4,0.4,2.1c0,0.5-0.1,0.9-0.4,1.2s-0.7,0.5-1.2,0.5h-3.3c-0.6,0-1-0.1-1.2-0.3
				s-0.5-0.5-0.6-0.9l-0.5-1.1c-0.7-1.1-2-1.6-4-1.6c-1.5,0-2.6,0.2-3.3,0.6s-1,1.1-1,1.9v0.1c0,0.6,0.1,1,0.4,1.3s0.8,0.6,1.7,0.7
				s2.1,0.4,3.9,0.5c1.9,0.1,3.4,0.4,4.6,0.7s2.2,0.8,3,1.4s1.4,1.4,1.7,2.4s0.5,2.2,0.5,3.6v0.2c0,2.6-0.9,4.5-2.7,5.7
				s-4.7,1.8-8.5,1.8c-3.3,0-5.8-0.5-7.7-1.5S165,342,164.6,339.8z"/>
		</g>
	</g>
	<g>
		<g>
			<path class="st2" d="M235.7,568.4c0,1.5-0.2,2.8-0.6,3.9s-1,2-1.9,2.8s-2.1,1.3-3.5,1.7s-3.2,0.5-5.3,0.5h-4.6v7
				c0,0.6-0.2,1-0.5,1.3s-0.8,0.5-1.3,0.5h-3.6c-0.6,0-1-0.2-1.3-0.5s-0.5-0.8-0.5-1.3v-25.8c0-0.6,0.2-1,0.5-1.3s0.8-0.5,1.3-0.5
				h10c4.1,0,7,0.8,8.8,2.3s2.6,3.9,2.6,7.2V568.4z M224.3,563.2h-4.6v8.5h4.6c1.5,0,2.6-0.3,3.2-0.8s1-1.6,1-3.1v-0.5
				c0-1.6-0.3-2.7-1-3.3S225.8,563.2,224.3,563.2z"/>
			<path class="st2" d="M245.4,562v8.2c0-3.5,0.6-6.1,1.7-7.7s3-2.4,5.6-2.4c0.5,0,0.9,0.1,1.1,0.4s0.4,0.7,0.4,1.4v4.3
				c0,1.5-0.8,2.2-2.3,2.1c-0.7-0.1-1.5-0.1-2.2,0s-1.5,0.3-2.1,0.5s-1.1,0.6-1.5,1.2s-0.6,1.3-0.6,2.1v12.3c0,0.6-0.2,1-0.5,1.3
				s-0.8,0.5-1.3,0.5H240c-0.6,0-1-0.2-1.3-0.5s-0.5-0.8-0.5-1.4V562c0-0.6,0.2-1,0.5-1.3s0.8-0.5,1.3-0.5h3.6c0.6,0,1,0.2,1.3,0.5
				S245.4,561.5,245.4,562z"/>
			<path class="st2" d="M279.2,572v2.3c0,3.9-1,6.9-3,8.9s-4.9,3.1-8.8,3.1c-4,0-7-1-8.9-3s-2.9-5-2.9-9V572c0-3.9,1-6.9,2.9-8.9
				s4.9-3,8.9-3c4,0,7,1,8.9,3S279.2,568.1,279.2,572z M272,574v-1.5c0-1.5-0.2-2.7-0.5-3.6s-0.8-1.5-1.5-1.8s-1.5-0.5-2.6-0.5
				c-1.6,0-2.8,0.4-3.5,1.3s-1.1,2.4-1.1,4.6v1.5c0,2.2,0.4,3.8,1.1,4.6s1.9,1.3,3.5,1.3c1.1,0,2-0.2,2.6-0.5s1.1-0.9,1.5-1.8
				S272,575.5,272,574z"/>
			<path class="st2" d="M290.8,584.3c0,0.6-0.2,1-0.5,1.4s-0.8,0.5-1.4,0.5h-3.6c-0.6,0-1-0.2-1.3-0.5s-0.5-0.8-0.5-1.3V566h-1.9
				c-1,0-1.5-0.6-1.5-1.7v-2.5c0-1.1,0.5-1.6,1.5-1.6h1.9v-1c0-0.6,0.2-1,0.5-1.3s0.8-0.5,1.3-0.5h3.6c0.6,0,1,0.2,1.4,0.5
				s0.5,0.8,0.5,1.4v1h3.2c1.1,0,1.6,0.6,1.6,1.8v2.2c0,0.6-0.1,1-0.4,1.3s-0.7,0.5-1.2,0.5h-3.2V584.3z"/>
			<path class="st2" d="M320,580.1c-0.5,2-1.8,3.5-3.8,4.6s-4.6,1.6-7.7,1.6c-4,0-7-1-8.9-3s-2.9-5-2.9-9V572c0-4,1-7,2.9-9
				s4.9-3,9-3c3.8,0,6.7,0.8,8.7,2.5s3,4.2,3,7.4v2.5c0,0.5-0.1,1-0.4,1.2s-0.7,0.4-1.2,0.4h-14.8c0,2.3,0.4,3.9,1.1,4.8
				s1.9,1.3,3.5,1.3c1.2,0,2.1-0.1,2.8-0.4s1.2-0.7,1.5-1.4c0.1-0.1,0.1-0.4,0.2-0.7c0.1-0.6,0.3-1.1,0.6-1.3s0.8-0.4,1.4-0.4h3.5
				c1.1,0,1.7,0.6,1.7,1.9C320.3,578.8,320.2,579.5,320,580.1z M308.7,566c-1.5,0-2.6,0.3-3.3,1s-1.2,1.8-1.4,3.4h9.1v-0.1
				c0-1.6-0.4-2.7-1.1-3.3S310.3,566,308.7,566z M311.5,558l-0.9,0.7c-0.2,0.2-0.4,0.3-0.5,0.3s-0.4,0.1-0.6,0.1h-2.4
				c-0.3,0-0.5-0.1-0.7-0.3s-0.1-0.5,0.1-0.8l0.1-0.3c0.2-0.4,0.3-0.6,0.5-0.7s0.5-0.1,0.8-0.1h3.1c0.4,0,0.7,0.1,0.7,0.4
				S311.8,557.7,311.5,558z"/>
			<path class="st2" d="M328.9,559.1h-4.5c-0.9,0-1.3-0.4-1.3-1.3v-0.1c0-0.9,0.4-1.3,1.3-1.3h4.5c0.9,0,1.3,0.4,1.3,1.3v0.1
				C330.2,558.7,329.8,559.1,328.9,559.1z M328.4,586.2h-3.6c-0.6,0-1-0.2-1.3-0.5s-0.5-0.8-0.5-1.3V562c0-0.6,0.2-1,0.5-1.3
				s0.8-0.5,1.3-0.5h3.6c0.6,0,1,0.2,1.3,0.5s0.5,0.8,0.5,1.3v22.3c0,0.6-0.2,1-0.5,1.3S329,586.2,328.4,586.2z"/>
			<path class="st2" d="M340.3,570.3c0-3.5,0.6-6.1,1.7-7.8s3.1-2.5,5.7-2.5c2.8,0,4.9,0.8,6.2,2.3s1.9,4,1.9,7.6v14.4
				c0,0.6-0.2,1-0.5,1.3s-0.8,0.5-1.3,0.5h-3.6c-0.6,0-1-0.2-1.3-0.5s-0.5-0.8-0.5-1.3v-13c0-1.5-0.3-2.6-0.9-3.3s-1.5-1-2.9-1
				c-0.7,0-1.3,0.1-1.8,0.2s-1,0.4-1.4,0.7s-0.8,0.9-1,1.5s-0.3,1.5-0.3,2.6v12.3c0,0.6-0.2,1-0.5,1.3s-0.8,0.5-1.3,0.5h-3.6
				c-0.6,0-1-0.2-1.3-0.5s-0.5-0.8-0.5-1.3V562c0-0.6,0.2-1,0.5-1.3s0.8-0.5,1.3-0.5h3.6c0.6,0,1,0.2,1.3,0.5s0.5,0.8,0.5,1.3V570.3
				z"/>
			<path class="st2" d="M381.7,580.1c-0.5,2-1.8,3.5-3.8,4.6s-4.6,1.6-7.7,1.6c-4,0-7-1-8.9-3s-2.9-5-2.9-9V572c0-4,1-7,2.9-9
				s4.9-3,9-3c3.8,0,6.7,0.8,8.7,2.5s3,4.2,3,7.4v2.5c0,0.5-0.1,1-0.4,1.2s-0.7,0.4-1.2,0.4h-14.8c0,2.3,0.4,3.9,1.1,4.8
				s1.9,1.3,3.5,1.3c1.2,0,2.1-0.1,2.8-0.4s1.2-0.7,1.5-1.4c0.1-0.1,0.1-0.4,0.2-0.7c0.1-0.6,0.3-1.1,0.6-1.3s0.8-0.4,1.4-0.4h3.5
				c1.1,0,1.7,0.6,1.7,1.9C382,578.8,381.9,579.5,381.7,580.1z M370.4,566c-1.5,0-2.6,0.3-3.3,1s-1.2,1.8-1.4,3.4h9.1v-0.1
				c0-1.6-0.4-2.7-1.1-3.3S372,566,370.4,566z"/>
			<path class="st2" d="M384.6,580.2c-0.1-0.3-0.1-0.8-0.2-1.4c0-0.6,0.1-1,0.4-1.3s0.8-0.4,1.5-0.4h3.1c0.6,0,1,0.1,1.2,0.2
				s0.5,0.4,0.6,0.8c0.2,0.6,0.4,1,0.5,1.2c0.3,0.6,0.8,1.1,1.5,1.4s1.5,0.4,2.6,0.4c1.4,0,2.4-0.2,3.1-0.6s1.1-0.9,1.1-1.7v-0.1
				c0-0.7-0.1-1.2-0.4-1.5s-0.8-0.6-1.6-0.8s-2.1-0.4-3.8-0.6c-1-0.1-1.9-0.2-2.6-0.3s-1.5-0.3-2.2-0.5s-1.3-0.4-1.8-0.7
				s-0.9-0.6-1.4-0.9s-0.7-0.8-1-1.3s-0.4-1.1-0.6-1.7s-0.2-1.4-0.2-2.2V568c0-2.7,0.9-4.6,2.8-6s4.7-2,8.5-2c2.9,0,5.3,0.4,7.2,1.3
				s3,2.2,3.6,4c0.2,0.8,0.3,1.4,0.4,2.1c0,0.5-0.1,0.9-0.4,1.2s-0.7,0.5-1.2,0.5h-3.3c-0.6,0-1-0.1-1.2-0.3s-0.5-0.5-0.6-0.9
				l-0.5-1.1c-0.7-1.1-2-1.6-4-1.6c-1.5,0-2.6,0.2-3.3,0.6s-1,1.1-1,1.9v0.1c0,0.6,0.1,1,0.4,1.3s0.8,0.6,1.7,0.7s2.1,0.4,3.9,0.5
				c1.9,0.1,3.4,0.4,4.6,0.7s2.2,0.8,3,1.4s1.4,1.4,1.7,2.4s0.5,2.2,0.5,3.6v0.2c0,2.6-0.9,4.5-2.7,5.7s-4.7,1.8-8.5,1.8
				c-3.3,0-5.8-0.5-7.7-1.5S385,582.3,384.6,580.2z"/>
		</g>
	</g>
	<g>
		<path class="st3" d="M132.4,142.1h-15.7c-0.6,0-1-0.2-1.3-0.5s-0.5-0.8-0.5-1.3v-25.8c0-0.6,0.2-1,0.5-1.3s0.8-0.5,1.3-0.5h3.6
			c0.6,0,1,0.2,1.3,0.5s0.5,0.8,0.5,1.3v20.8h10.3c0.6,0,1,0.2,1.4,0.5s0.5,0.8,0.5,1.3v3.1c0,0.6-0.2,1-0.5,1.3
			S133,142.1,132.4,142.1z"/>
		<path class="st3" d="M142.8,115h-4.5c-0.9,0-1.3-0.4-1.3-1.3v-0.1c0-0.9,0.4-1.3,1.3-1.3h4.5c0.9,0,1.3,0.4,1.3,1.3v0.1
			C144.1,114.5,143.7,115,142.8,115z M142.3,142.1h-3.6c-0.6,0-1-0.2-1.3-0.5s-0.5-0.8-0.5-1.3v-22.3c0-0.6,0.2-1,0.5-1.3
			s0.8-0.5,1.3-0.5h3.6c0.6,0,1,0.2,1.3,0.5s0.5,0.8,0.5,1.3v22.3c0,0.6-0.2,1-0.5,1.3S142.9,142.1,142.3,142.1z"/>
		<path class="st3" d="M154.2,124.3c0-2.7,0.6-4.8,1.8-6.2s3.1-2.1,5.7-2.1c3.1,0,5.4,0.9,6.8,2.7s2.1,4.6,2.1,8.3v2.7
			c0,3.9-0.7,6.7-2.1,8.4s-3.7,2.7-6.8,2.7c-2.7,0-4.6-0.7-5.8-2.1s-1.8-3.5-1.8-6.3v9.7c0,0.6-0.2,1-0.5,1.3s-0.8,0.5-1.3,0.5h-3.6
			c-0.6,0-1-0.2-1.3-0.5s-0.5-0.8-0.5-1.3v-24.1c0-0.6,0.2-1,0.5-1.3s0.8-0.5,1.3-0.5h3.6c0.6,0,1,0.2,1.3,0.5s0.5,0.8,0.5,1.3
			V124.3z M158.8,135.1c1.1,0,2-0.2,2.7-0.6s1.1-1.1,1.5-2.1s0.5-2.4,0.5-4.1v-0.1c0-1.7-0.2-3.1-0.5-4s-0.8-1.6-1.5-2
			s-1.5-0.6-2.6-0.6c-0.7,0-1.3,0.1-1.8,0.2s-1,0.3-1.4,0.6s-0.8,0.7-1,1.3s-0.4,1.3-0.4,2.1v5.2c0,0.8,0.1,1.6,0.4,2.1s0.6,1,1,1.3
			s0.9,0.5,1.4,0.6S158.1,135.1,158.8,135.1z"/>
		<path class="st3" d="M179.3,115h-4.5c-0.9,0-1.3-0.4-1.3-1.3v-0.1c0-0.9,0.4-1.3,1.3-1.3h4.5c0.9,0,1.3,0.4,1.3,1.3v0.1
			C180.7,114.5,180.2,115,179.3,115z M178.9,142.1h-3.6c-0.6,0-1-0.2-1.3-0.5s-0.5-0.8-0.5-1.3v-22.3c0-0.6,0.2-1,0.5-1.3
			s0.8-0.5,1.3-0.5h3.6c0.6,0,1,0.2,1.3,0.5s0.5,0.8,0.5,1.3v22.3c0,0.6-0.2,1-0.5,1.3S179.4,142.1,178.9,142.1z"/>
		<path class="st3" d="M200,124.5v-10c0-0.6,0.2-1,0.5-1.3s0.8-0.5,1.3-0.5h3.6c0.6,0,1,0.2,1.3,0.5s0.5,0.8,0.5,1.3v25.7
			c0,0.6-0.2,1-0.5,1.3s-0.8,0.5-1.3,0.5h-3.6c-0.6,0-1-0.2-1.3-0.5s-0.5-0.8-0.5-1.3v-6.7c0,3-0.6,5.1-1.7,6.5s-3.1,2.1-5.7,2.1
			c-3.2,0-5.5-0.9-6.9-2.7s-2.1-4.7-2.1-8.8v-3.4c0-3.9,0.7-6.8,2.1-8.6s3.7-2.8,6.8-2.8c2.6,0,4.6,0.7,5.7,2.2S200,121.7,200,124.5
			z M195.4,121.8c-1.1,0-2,0.2-2.6,0.6s-1.2,1.1-1.5,2.1s-0.5,2.4-0.5,4.2v0.8c0,1.8,0.2,3.2,0.5,4.2s0.8,1.7,1.5,2.1
			s1.5,0.6,2.6,0.6c0.7,0,1.3-0.1,1.8-0.2s1-0.3,1.4-0.6s0.8-0.8,1-1.3s0.3-1.3,0.3-2.2v-6c0-0.7-0.1-1.3-0.2-1.8s-0.4-0.9-0.6-1.2
			s-0.6-0.6-1-0.7s-0.8-0.3-1.2-0.4S195.9,121.8,195.4,121.8z"/>
		<path class="st3" d="M233.2,136c-0.5,2-1.8,3.5-3.8,4.6s-4.6,1.6-7.7,1.6c-4,0-7-1-8.9-3s-2.9-5-2.9-9v-2.3c0-4,1-7,2.9-9
			s4.9-3,9-3c3.8,0,6.7,0.8,8.7,2.5s3,4.2,3,7.4v2.5c0,0.5-0.1,1-0.4,1.2s-0.7,0.4-1.2,0.4h-14.8c0,2.3,0.4,3.9,1.1,4.8
			s1.9,1.3,3.5,1.3c1.2,0,2.1-0.1,2.8-0.4s1.2-0.7,1.5-1.4c0.1-0.1,0.1-0.4,0.2-0.7c0.1-0.6,0.3-1.1,0.6-1.3s0.8-0.4,1.4-0.4h3.5
			c1.1,0,1.7,0.6,1.7,1.9C233.4,134.7,233.3,135.4,233.2,136z M221.9,121.9c-1.5,0-2.6,0.3-3.3,1s-1.2,1.8-1.4,3.4h9.1v-0.1
			c0-1.6-0.4-2.7-1.1-3.3S223.4,121.9,221.9,121.9z"/>
		<path class="st3" d="M236,136.1c-0.1-0.3-0.1-0.8-0.2-1.4c0-0.6,0.1-1,0.4-1.3s0.8-0.4,1.5-0.4h3.1c0.6,0,1,0.1,1.2,0.2
			s0.5,0.4,0.6,0.8c0.2,0.6,0.4,1,0.5,1.2c0.3,0.6,0.8,1.1,1.5,1.4s1.5,0.4,2.6,0.4c1.4,0,2.4-0.2,3.1-0.6s1.1-0.9,1.1-1.7v-0.1
			c0-0.7-0.1-1.2-0.4-1.5s-0.8-0.6-1.6-0.8s-2.1-0.4-3.8-0.6c-1-0.1-1.9-0.2-2.6-0.3s-1.5-0.3-2.2-0.5s-1.3-0.4-1.8-0.7
			s-0.9-0.6-1.4-0.9s-0.7-0.8-1-1.3s-0.4-1.1-0.6-1.7s-0.2-1.4-0.2-2.2v-0.1c0-2.7,0.9-4.6,2.8-6s4.7-2,8.5-2c2.9,0,5.3,0.4,7.2,1.3
			s3,2.2,3.6,4c0.2,0.8,0.3,1.4,0.4,2.1c0,0.5-0.1,0.9-0.4,1.2s-0.7,0.5-1.2,0.5h-3.3c-0.6,0-1-0.1-1.2-0.3s-0.5-0.5-0.6-0.9
			l-0.5-1.1c-0.7-1.1-2-1.6-4-1.6c-1.5,0-2.6,0.2-3.3,0.6s-1,1.1-1,1.9v0.1c0,0.6,0.1,1,0.4,1.3s0.8,0.6,1.7,0.7s2.1,0.4,3.9,0.5
			c1.9,0.1,3.4,0.4,4.6,0.7s2.2,0.8,3,1.4s1.4,1.4,1.7,2.4s0.5,2.2,0.5,3.6v0.2c0,2.6-0.9,4.5-2.7,5.7s-4.7,1.8-8.5,1.8
			c-3.3,0-5.8-0.5-7.7-1.5S236.4,138.2,236,136.1z"/>
	</g>
	<g>
		<path class="st3" d="M726.6,635.6H719c-0.5,0-0.9-0.1-1.2-0.4s-0.5-0.6-0.6-1.1l-6.6-25.9c-0.1-0.6-0.1-1,0.3-1.4s0.8-0.6,1.4-0.6
			h3.3c0.5,0,0.9,0.1,1.2,0.4s0.5,0.6,0.6,1.1l5.4,22.9l5.4-22.9c0.1-0.5,0.3-0.8,0.6-1.1s0.7-0.4,1.2-0.4h3.4c0.6,0,1,0.2,1.3,0.6
			s0.4,0.8,0.3,1.4l-6.6,25.9c-0.1,0.5-0.3,0.8-0.6,1.1S727.1,635.6,726.6,635.6z"/>
		<path class="st3" d="M743.6,608.5h-4.5c-0.9,0-1.3-0.4-1.3-1.3v-0.1c0-0.9,0.4-1.3,1.3-1.3h4.5c0.9,0,1.3,0.4,1.3,1.3v0.1
			C745,608.1,744.5,608.5,743.6,608.5z M743.2,635.6h-3.6c-0.6,0-1-0.2-1.3-0.5s-0.5-0.8-0.5-1.3v-22.3c0-0.6,0.2-1,0.5-1.3
			s0.8-0.5,1.3-0.5h3.6c0.6,0,1,0.2,1.3,0.5s0.5,0.8,0.5,1.3v22.3c0,0.6-0.2,1-0.5,1.3S743.7,635.6,743.2,635.6z"/>
		<path class="st3" d="M757.8,633.8c0,0.6-0.2,1-0.5,1.4s-0.8,0.5-1.4,0.5h-3.6c-0.6,0-1-0.2-1.3-0.5s-0.5-0.8-0.5-1.3v-18.3h-1.9
			c-1,0-1.5-0.6-1.5-1.7v-2.5c0-1.1,0.5-1.6,1.5-1.6h1.9v-1c0-0.6,0.2-1,0.5-1.3s0.8-0.5,1.3-0.5h3.6c0.6,0,1,0.2,1.4,0.5
			s0.5,0.8,0.5,1.4v1h3.2c1.1,0,1.6,0.6,1.6,1.8v2.2c0,0.6-0.1,1-0.4,1.3s-0.7,0.5-1.2,0.5h-3.2V633.8z"/>
		<path class="st3" d="M779.4,629.8c0,1.9-0.6,3.4-1.8,4.4s-3.2,1.5-5.8,1.5c-2.6,0-4.6-0.6-5.9-1.7s-2-2.9-2-5.1v-0.4
			c0-1,0.1-2,0.4-2.8s0.7-1.5,1.1-2s1-1,1.7-1.4s1.4-0.7,2.1-0.9s1.5-0.4,2.5-0.6s1.8-0.3,2.6-0.4s1.6-0.2,2.6-0.3s1.8-0.2,2.4-0.4
			V619c0-1.4-0.3-2.3-0.9-2.8s-1.6-0.7-3.1-0.7c-0.9,0-1.7,0.1-2.1,0.3s-0.8,0.5-1,0.9c-0.2,0.2-0.3,0.4-0.4,0.7
			c-0.2,0.8-0.7,1.1-1.7,1.1h-3.7c-1.2,0-1.8-0.6-1.8-1.7c0-0.4,0-0.7,0.1-1c0.2-2,1.2-3.6,3-4.8s4.2-1.7,7.4-1.7
			c4,0,6.9,0.7,8.7,2.2s2.7,3.9,2.7,7.3v14.8c0,0.6-0.2,1-0.5,1.3s-0.8,0.5-1.4,0.5h-3.6c-0.6,0-1-0.2-1.3-0.5s-0.5-0.8-0.5-1.3
			V629.8z M774.4,631.3c0.8,0,1.4,0,2-0.1s1.1-0.2,1.6-0.4s0.9-0.4,1.1-0.8s0.4-0.8,0.4-1.3v-4.6c-0.2,0-0.5,0.1-0.9,0.1
			c-1.1,0.2-1.9,0.3-2.4,0.4s-1.1,0.2-1.8,0.4s-1.2,0.3-1.5,0.5s-0.6,0.4-0.9,0.6s-0.6,0.6-0.7,0.9s-0.2,0.7-0.2,1.2v0.3
			C771,630.4,772.2,631.3,774.4,631.3z"/>
		<path class="st3" d="M796.7,619.7c0-3.5,0.6-6.1,1.7-7.8s3-2.5,5.7-2.5c2.6,0,4.6,0.7,5.9,2s2,3.4,2.2,6.4c0.2-2.9,0.9-5,2.1-6.4
			s3-2,5.4-2c2.8,0,4.9,0.8,6.2,2.3s1.9,4,1.9,7.5v14.5c0,0.6-0.2,1-0.5,1.3s-0.8,0.5-1.3,0.5h-3.6c-0.6,0-1-0.2-1.4-0.5
			s-0.5-0.8-0.5-1.3v-13c0-1.5-0.3-2.6-0.9-3.3s-1.5-1-2.9-1c-0.7,0-1.3,0.1-1.8,0.2s-1,0.4-1.4,0.8s-0.8,0.9-1,1.7
			s-0.4,1.7-0.4,2.8v11.8c0,0.6-0.2,1-0.5,1.3s-0.8,0.5-1.3,0.5h-3.6c-0.6,0-1-0.2-1.3-0.5s-0.5-0.8-0.5-1.3v-13
			c0-1.5-0.3-2.6-0.9-3.3s-1.5-1-2.9-1c-0.7,0-1.3,0.1-1.8,0.2s-1,0.4-1.4,0.7s-0.8,0.9-1,1.5s-0.4,1.5-0.4,2.6v12.3
			c0,0.6-0.2,1-0.5,1.3s-0.8,0.5-1.3,0.5h-3.6c-0.6,0-1-0.2-1.3-0.5s-0.5-0.8-0.5-1.3v-22.3c0-0.6,0.2-1,0.5-1.3s0.8-0.5,1.3-0.5
			h3.6c0.6,0,1,0.2,1.3,0.5s0.5,0.8,0.5,1.3V619.7z"/>
		<path class="st3" d="M836.5,608.5H832c-0.9,0-1.3-0.4-1.3-1.3v-0.1c0-0.9,0.4-1.3,1.3-1.3h4.5c0.9,0,1.3,0.4,1.3,1.3v0.1
			C837.8,608.1,837.4,608.5,836.5,608.5z M836,635.6h-3.6c-0.6,0-1-0.2-1.3-0.5s-0.5-0.8-0.5-1.3v-22.3c0-0.6,0.2-1,0.5-1.3
			s0.8-0.5,1.3-0.5h3.6c0.6,0,1,0.2,1.3,0.5s0.5,0.8,0.5,1.3v22.3c0,0.6-0.2,1-0.5,1.3S836.6,635.6,836,635.6z"/>
		<path class="st3" d="M847.9,619.7c0-3.5,0.6-6.1,1.7-7.8s3-2.5,5.7-2.5c2.8,0,4.9,0.8,6.2,2.3s1.9,4,1.9,7.6v14.4
			c0,0.6-0.2,1-0.5,1.3s-0.8,0.5-1.3,0.5H858c-0.6,0-1-0.2-1.3-0.5s-0.5-0.8-0.5-1.3v-13c0-1.5-0.3-2.6-0.9-3.3s-1.5-1-2.9-1
			c-0.7,0-1.3,0.1-1.8,0.2s-1,0.4-1.4,0.7s-0.8,0.9-1,1.5s-0.3,1.5-0.3,2.6v12.3c0,0.6-0.2,1-0.5,1.3s-0.8,0.5-1.3,0.5h-3.6
			c-0.6,0-1-0.2-1.3-0.5s-0.5-0.8-0.5-1.3v-22.3c0-0.6,0.2-1,0.5-1.3s0.8-0.5,1.3-0.5h3.6c0.6,0,1,0.2,1.3,0.5s0.5,0.8,0.5,1.3
			V619.7z"/>
		<path class="st3" d="M889.3,629.6c-0.5,2-1.8,3.5-3.8,4.6s-4.6,1.6-7.7,1.6c-4,0-7-1-8.9-3s-2.9-5-2.9-9v-2.3c0-4,1-7,2.9-9
			s4.9-3,9-3c3.8,0,6.7,0.8,8.7,2.5s3,4.2,3,7.4v2.5c0,0.5-0.1,1-0.4,1.2s-0.7,0.4-1.2,0.4h-14.8c0,2.3,0.4,3.9,1.1,4.8
			s1.9,1.3,3.5,1.3c1.2,0,2.1-0.1,2.8-0.4s1.2-0.7,1.5-1.4c0.1-0.1,0.1-0.4,0.2-0.7c0.1-0.6,0.3-1.1,0.6-1.3s0.8-0.4,1.4-0.4h3.5
			c1.1,0,1.7,0.6,1.7,1.9C889.6,628.3,889.5,629,889.3,629.6z M878,615.4c-1.5,0-2.6,0.3-3.3,1s-1.2,1.8-1.4,3.4h9.1v-0.1
			c0-1.6-0.4-2.7-1.1-3.3S879.6,615.4,878,615.4z"/>
		<path class="st3" d="M892.2,629.6c-0.1-0.3-0.1-0.8-0.2-1.4c0-0.6,0.1-1,0.4-1.3s0.8-0.4,1.5-0.4h3.1c0.6,0,1,0.1,1.2,0.2
			s0.5,0.4,0.6,0.8c0.2,0.6,0.4,1,0.5,1.2c0.3,0.6,0.8,1.1,1.5,1.4s1.5,0.4,2.6,0.4c1.4,0,2.4-0.2,3.1-0.6s1.1-0.9,1.1-1.7v-0.1
			c0-0.7-0.1-1.2-0.4-1.5s-0.8-0.6-1.6-0.8s-2.1-0.4-3.8-0.6c-1-0.1-1.9-0.2-2.6-0.3s-1.5-0.3-2.2-0.5s-1.3-0.4-1.8-0.7
			s-0.9-0.6-1.4-0.9s-0.7-0.8-1-1.3s-0.4-1.1-0.6-1.7s-0.2-1.4-0.2-2.2v-0.1c0-2.7,0.9-4.6,2.8-6s4.7-2,8.5-2c2.9,0,5.3,0.4,7.2,1.3
			s3,2.2,3.6,4c0.2,0.8,0.3,1.4,0.4,2.1c0,0.5-0.1,0.9-0.4,1.2s-0.7,0.5-1.2,0.5h-3.3c-0.6,0-1-0.1-1.2-0.3s-0.5-0.5-0.6-0.9
			l-0.5-1.1c-0.7-1.1-2-1.6-4-1.6c-1.5,0-2.6,0.2-3.3,0.6s-1,1.1-1,1.9v0.1c0,0.6,0.1,1,0.4,1.3s0.8,0.6,1.7,0.7s2.1,0.4,3.9,0.5
			c1.9,0.1,3.4,0.4,4.6,0.7s2.2,0.8,3,1.4s1.4,1.4,1.7,2.4s0.5,2.2,0.5,3.6v0.2c0,2.6-0.9,4.5-2.7,5.7s-4.7,1.8-8.5,1.8
			c-3.3,0-5.8-0.5-7.7-1.5S892.6,631.8,892.2,629.6z"/>
	</g>
	<g>
		<g>
			<path class="st11" d="M641.5,163.4c-17.9-5-37.4-23.5-42.9-51.5"/>
			<g>
				<polygon class="st7" points="636.8,157.1 640.6,163.2 634.5,167 638.7,168 644.8,164.2 641,158.1 				"/>
			</g>
		</g>
	</g>
	<g>
		<g>
			<path class="st10" d="M131.2,416.7C114.7,408.4,99,386.5,99,358"/>
			<g>
				<polygon class="st2" points="127.9,409.6 130.4,416.3 123.7,418.9 127.6,420.7 134.4,418.1 131.8,411.4 				"/>
			</g>
		</g>
	</g>
	<g>
		<g>
			<path class="st12" d="M278.8,156.4c-14.7,11.3-41.2,15.9-66.9,3.6"/>
			<g>
				<polygon class="st3" points="271,156.3 278.1,156.9 277.5,164.1 280.8,161.3 281.4,154.2 274.3,153.5 				"/>
			</g>
		</g>
	</g>
	<g>
		<g>
			<path class="st12" d="M961.4,582.2c8.3,17.7-4.2,46.2-35.2,41"/>
			<g>
				<polygon class="st3" points="959.8,589.9 961.8,583 968.7,585 966.6,581.2 959.7,579.2 957.7,586.1 				"/>
			</g>
		</g>
	</g>
	<g>
		<g>
			<path class="st10" d="M486.1,478.3c7.3,69.8-41.7,96.9-67.8,94.7"/>
			<g>
				<polygon class="st2" points="481.7,484.8 486.2,479.2 491.8,483.7 491.3,479.4 485.7,474.9 481.2,480.5 				"/>
			</g>
		</g>
	</g>
	<g>
		<g>
			<path class="st10" d="M978.9,181.4c17.6-10.8,31.1-24.7,31.1-53.3"/>
			<g>
				<polygon class="st2" points="986.7,182.5 979.7,180.8 981.3,173.8 977.6,176.1 976,183.1 983,184.8 				"/>
			</g>
		</g>
	</g>
	<g>
		<g>
			<path class="st10" d="M73.7,244.6c-28,5.7-43.8,24-46.7,59.9"/>
			<g>
				<polygon class="st2" points="66.9,240.8 72.8,244.8 68.8,250.8 73.1,250 77.1,244 71.1,240 				"/>
			</g>
		</g>
	</g>
	<g>
		<g>
			<path class="st12" d="M603.7,543.4c-5.6,42.9,38.6,86.7,96.2,78.9"/>
			<g>
				<polygon class="st3" points="597.8,548.5 603.6,544.3 607.8,550.1 608.5,545.8 604.2,540 598.4,544.3 				"/>
			</g>
		</g>
	</g>
</g>
</svg>
