<?xml version="1.0" encoding="utf-8"?>
<!-- Generator: Adobe Illustrator 19.1.0, SVG Export Plug-In . SVG Version: 6.00 Build 0)  -->
<svg version="1.1" id="Calque_1" xmlns="http://www.w3.org/2000/svg" xmlns:xlink="http://www.w3.org/1999/xlink" x="0px" y="0px"
	 viewBox="1635.8 921 70.3 66.9" style="enable-background:new 1635.8 921 70.3 66.9;" xml:space="preserve">
<style type="text/css">
	.st0{fill:#6F9BBB;}
	.st1{fill:#E46D65;}
	.st2{fill:#1D1D1B;}
	.st3{fill:#FFFFFF;stroke:#E46D65;stroke-width:3;stroke-miterlimit:10;}
	.st4{fill:#6EA2C2;}
	.st5{fill:none;stroke:#E46D65;stroke-width:3;stroke-miterlimit:10;}
	.st6{fill:#C2C2C2;}
	.st7{fill:#F3F6ED;}
	.st8{fill:#EA6C65;}
	.st9{fill:#80BA40;}
	.st10{fill:#B9B8B8;}
	.st11{fill:#1A94C1;}
	.st12{fill:none;stroke:#B9B8B8;stroke-width:3;stroke-miterlimit:10;}
	.st13{fill:none;}
	.st14{fill:#EC6C65;}
	.st15{fill:none;stroke:#EC6C65;stroke-width:4;stroke-miterlimit:10;}
	.st16{fill:#169BC9;}
	.st17{fill:#FFFFFF;}
	.st18{fill:#C0C0C0;}
	.st19{fill:none;stroke:#C0C0C0;stroke-width:3;stroke-miterlimit:10;}
	.st20{fill:none;stroke:#EC6C65;stroke-width:3;stroke-miterlimit:10;}
	.st21{fill:none;stroke:#80BA40;stroke-width:3;stroke-miterlimit:10;}
	.st22{fill:#4D4D4D;}
	.st23{fill:#6DA0C0;}
	.st24{fill:#FFFFFF;stroke:#80BA40;stroke-width:3;stroke-miterlimit:10;}
	.st25{fill:#D9EAC5;}
	.st26{fill:#A6CF7A;}
	.st27{fill:#BFDC9F;}
</style>
<g>
	<path class="st2" d="M1635.8,953.4c1.7-11.7,6.7-22,18.5-28c10.5-5.3,21.4-5.8,32.4-1.6c6.4,2.5,10.6,7.6,14.4,13
		c9.1,18.8,3.1,31.5,2.1,34.4c-3.2,6.2-11.7,14.3-22.4,15.9c-12.7,1.9-25.4,1-35.7-9.8C1639.1,970.9,1636.4,963,1635.8,953.4
		 M1694,953.6c-0.5-3.6-1-7.5-1.8-11.4c-0.7-3.7-2.2-7.3-4.9-10c-5.7-5.8-12.8-8-20.8-6.3c-9.8,2.1-16.8,7.8-21,16.9
		c-3.3,7.2-4.4,14.6-1.6,22.4c2.1,5.8,4.7,11.1,10.8,13.4C1674.9,987,1694,971,1694,953.6"/>
</g>
</svg>
