<?xml version="1.0" encoding="utf-8"?>
<!-- Generator: Adobe Illustrator 19.1.0, SVG Export Plug-In . SVG Version: 6.00 Build 0)  -->
<svg version="1.1" id="Calque_1" xmlns="http://www.w3.org/2000/svg" xmlns:xlink="http://www.w3.org/1999/xlink" x="0px" y="0px"
	 viewBox="1925.6 921 70.3 66.9" style="enable-background:new 1925.6 921 70.3 66.9;" xml:space="preserve">
<style type="text/css">
	.st1{fill:#71519d;}
	.st2{fill:#1D1D1B;}
</style>
<g>
	<path class="st2" d="M1925.6,953.4c1.7-11.7,6.7-22,18.5-28c10.5-5.3,21.4-5.8,32.4-1.6c6.4,2.5,10.6,7.6,14.4,13
		c9.1,18.8,3.1,31.5,2.1,34.4c-3.2,6.2-11.7,14.3-22.4,15.9c-12.7,1.9-25.4,1-35.7-9.8C1928.9,970.9,1926.2,963,1925.6,953.4
		 M1983.8,953.6c-0.5-3.6-1-7.5-1.8-11.4c-0.7-3.7-2.2-7.3-4.9-10c-5.7-5.8-12.8-8-20.8-6.3c-9.8,2.1-16.8,7.8-21,16.9
		c-3.3,7.2-4.4,14.6-1.6,22.4c2.1,5.8,4.7,11.1,10.8,13.4C1964.7,987,1983.8,971,1983.8,953.6"/>
	<path class="st1" d="M1983.8,953.6c-0.5-3.6-1-7.5-1.8-11.4c-0.7-3.7-2.2-7.3-4.9-10c-5.7-5.8-12.8-8-20.8-6.3
		c-9.8,2.1-16.8,7.8-21,16.9c-3.3,7.2-4.4,14.6-1.6,22.4c2.1,5.8,4.7,11.1,10.8,13.4C1964.7,987,1983.8,971,1983.8,953.6"/>
</g>
</svg>
