<?xml version="1.0" encoding="utf-8"?>
<!-- Generator: Adobe Illustrator 19.1.0, SVG Export Plug-In . SVG Version: 6.00 Build 0)  -->
<svg version="1.1" id="Calque_1" xmlns="http://www.w3.org/2000/svg" xmlns:xlink="http://www.w3.org/1999/xlink" x="0px" y="0px"
	 viewBox="0 0 154.9 154.4" style="enable-background:new 0 0 154.9 154.4;" xml:space="preserve">
<style type="text/css">
	.st0{display:none;fill:#F7B5AC;}
	.st1{fill:#F7B5AC;}
	.st2{fill:#EB5C5F;}
	.st3{fill:#84B974;}
	.st4{fill:#010202;}
	.st5{fill:#AB7613;}
	.st6{fill:#C0BFBF;}
	.st7{fill:#6FA4C3;}
	.st8{fill:#1E1E1C;}
	.st9{fill:none;}
	.st10{fill:none;stroke:#EB5C5F;stroke-width:3;stroke-miterlimit:10;}
	.st11{fill:none;stroke:#6FA4C3;stroke-width:3;stroke-miterlimit:10;}
	.st12{fill:none;stroke:#84B974;stroke-width:3;stroke-miterlimit:10;}
	.st13{fill:none;stroke:#C0BFBF;stroke-width:3;stroke-miterlimit:10;}
	.st14{fill:none;stroke:#F7B5AC;stroke-width:3;stroke-miterlimit:10;}
</style>
<g>
	<path class="st2" d="M79.7,75.9c0.9,7.3,1.7,14,2.5,20.7c0.7,6.7,1.3,13.4,2,20.1c0.8,6.6,0.9,13.9,2.5,20.4
		c7.8-0.5,10.7-2,17.8-5.8c10.6-5.6,19.7-12.9,26.4-23c0.6-0.9,1.1-1.9,1.7-3C115.5,94.7,97.7,85.8,79.7,75.9"/>
	<path class="st2" d="M75.5,70.3c0.2-4.5-5-50.2-5.9-52.2c-6.9,1.8-12.6,2.2-20.7,5.4c-3.4,1.4-7,2.6-10.2,4.4
		c-4.2,2.4-7.8,5.7-11.1,9.3c-1.2,1.4-2.4,2.8-3.8,4.4C41,51.1,58,60.6,75.5,70.3"/>
	<path class="st2" d="M138.9,62.9c-3.6-16.3-10.7-29.3-26-36.8c-5.5,7.7-11.1,15.3-16.7,23c-5.6,7.6-12,14.7-16.7,22.7
		c-0.8,1.4,2.2,1.2,3.5,0.9c10.3-1.9,20.6-3.9,30.9-5.7c6.1-1.1,12.1-1.9,18.2-2.8C134.4,63.8,136.6,63.3,138.9,62.9"/>
	<path class="st2" d="M74.7,73.5C56.6,63.5,39.1,53.8,21.4,44c-1.7,3.2-3.4,6.3-5,9.4c-0.6,1.2-1,2.7-1.2,4
		c-0.4,2.3-0.7,4.7-0.9,7.1c-0.2,2.6-0.4,5.2-0.2,7.7c0.4,3.9,1.3,7.7,2,11.6c0.1,0.7,0.5,1.5,0.7,2.1c1.1-0.3,2-0.5,2.9-0.7
		c5.2-1,10.5-1.8,15.7-2.9c4.2-0.9,8.4-2.2,12.6-3.1c7.9-1.7,15.8-3.1,23.7-4.7C72.6,74.4,73.4,74,74.7,73.5"/>
	<path class="st2" d="M83.4,138.5c-0.7-6.9-1.5-13.8-2.2-20.7c-0.7-6.8-1.1-13.7-2.1-20.5c-0.9-6.8-1.4-13.7-2.6-20.7
		c-1.6,1.2-33.9,45.7-35.4,48.6C50.6,132.3,75.5,140.5,83.4,138.5"/>
	<path class="st2" d="M17.7,88.5c2.6,14.4,9.3,25.9,20.8,35.1c10.9-15.3,21.6-30.4,32.7-46c-6.7,1.3-12.6,2.3-18.5,3.6
		c-5.8,1.2-11.5,2.8-17.3,4C29.5,86.5,23.6,87.4,17.7,88.5"/>
	<path class="st2" d="M83.1,74.9c0,0.2,32.9,17.4,47.8,25.8c0.7,0.4,1.4,0.7,2.1,1c6.4-11.2,9-22.9,6.3-35.6"/>
	<path class="st2" d="M110.2,24.2c-0.6-0.4-1-0.7-1.5-0.9c-4.7-1.6-9.3-3.5-14-4.6c-4.9-1.2-18.8-1.2-20.5-1.2
		c-0.4,0-0.7,0.2-1.4,0.4c1.9,16.4,3.8,32.8,5.8,49.9C89.3,53,99.6,38.7,110.2,24.2"/>
	<path d="M149.9,97.7c-1.6,7.9-6.7,16.3-10.9,21.6c-3.8,4.7-15.9,16.8-20.1,19.1c-4.2,2.3-14.7,7.2-22.7,8.8
		c-8.1,1.6-16.4,2.2-24.6,0.6c-2-0.4-15.7-2.6-20.4-4.4c-11.3-4.4-23.9-13.5-27.9-18.5c-4-5-7.1-8.5-10-13.2
		c-4.8-8.1-7.3-17-8.5-26.3C4,79.8,3.2,74.2,3.1,68.6C3,64.8,3.6,60.9,4.5,57.2c4.3-17.6,15.1-30.1,30.8-38.4
		c4.2-2.2,8.7-3.7,13-5.8c5.2-2.6,10.7-4.2,16.3-5.5c4-0.9,8.2-1.4,12.3-1.7c5-0.4,10.7-0.2,15.7,0.1c10.3,0.7,19.4,3.7,28.1,9.5
		c7.4,4.9,14.3,9.9,19.3,17.4c5,7.5,8.1,15.7,10,24.5c1.4,6.3,2,12.5,1.8,19C152,82.7,151.3,91.1,149.9,97.7z M146.6,87.5
		c0.3-3.4,0.7-6.8,0.9-10.3c0.1-1.1-0.2-2.2-0.3-3.3c-0.1-1.2-0.4-2.4-0.4-3.6c-0.2-8.4-3.1-16-6.2-23.6c-2.1-5.1-5-10-8.5-14.3
		c-2.4-3.1-5.2-5.9-8-8.6c-3.7-3.7-15.3-10.5-29-13.7c-6.8-1.6-28.9,1.3-33.4,2c-3,0.5-5.9,1.1-8.7,2.1c-3.2,1.1-6.3,2.8-9.4,4.1
		c-8.5,3.6-16.2,8.3-22.5,15C14.3,40.5,9.5,48.5,7.6,58.1c-0.5,2.6-1.3,5.2-1.1,7.7c0.4,6.7,1.1,13.4,2,20.1
		c1.1,7.2,3.6,14,6.6,20.7c2.2,4.8,5.5,8.7,8.8,12.6c5.8,6.9,14,11.4,18.1,13.7c1.6,0.9,3.3,1.5,4.9,2.3c4.8,2.5,9.8,4.3,15,5.4
		c2.2,0.5,4.3,1.1,6.5,1.6c2.6,0.5,5.1,1,7.7,1.4c6.5,0.9,12.8-0.3,19.2-1.3c1.9-0.3,3.8-0.5,5.6-1.1c7.7-2.7,14.5-7,20.9-12
		c9.5-7.4,16.6-16.7,21-28C143,101,146.3,91.3,146.6,87.5"/>
	<path d="M82,14.2c5.7-0.5,11,1,16.4,2.3c2,0.5,3.9,1.2,5.8,1.8c7.4,2.2,13.7,6.5,19.7,11c4.3,3.3,7.3,7.8,10.1,12.3
		c4.7,7.5,7.3,15.8,8.4,24.4c0.9,7.4,1.3,14.8-0.7,22.3c-0.8,3-1.3,6.1-2.3,9c-2.6,8.2-7.2,15.3-12.9,21.7
		c-4.2,4.6-9.1,8.3-14.5,11.4c-3.2,1.8-6.4,3.8-9.8,5.5c-2.2,1.1-4.6,1.9-7,2.8c-2.5,0.9-5.1,1.7-7.7,2.5c-4.1,1.3-8.3,1.1-12.5,0.4
		c-11.5-2-22.5-5.8-32.7-11.5c-7.2-4-12.9-9.5-17.7-16.2c-5.4-7.4-8.5-15.5-10.3-24.3c-1.1-5.3-2.5-10.6-3.2-16
		c-1.3-10.3,0.3-20.1,6-29c4.9-7.8,11.2-14.4,19.1-19c5.3-3.1,11.5-4.8,17.4-6.9c2.5-0.9,5.3-1.4,7.9-2.1
		C70.9,14.1,75.3,14.1,82,14.2 M79.7,75.9c0.9,7.3,1.7,14,2.5,20.7c0.7,6.7,1.3,13.4,2,20.1c0.8,6.6,0.9,13.9,2.5,20.4
		c7.8-0.5,10.7-2,17.8-5.8c10.6-5.6,19.7-12.9,26.4-23c0.6-0.9,1.1-1.9,1.7-3C115.5,94.7,97.7,85.8,79.7,75.9 M75.5,70.3
		c0.2-4.5-5-50.2-5.9-52.2c-6.9,1.8-12.6,2.2-20.7,5.4c-3.4,1.4-7,2.6-10.2,4.4c-4.2,2.4-7.8,5.7-11.1,9.3c-1.2,1.4-2.4,2.8-3.8,4.4
		C41,51.1,58,60.6,75.5,70.3 M138.9,62.9c-3.6-16.3-10.7-29.3-26-36.8c-5.5,7.7-11.1,15.3-16.7,23c-5.6,7.6-12,14.7-16.7,22.7
		c-0.8,1.4,2.2,1.2,3.5,0.9c10.3-1.9,20.6-3.9,30.9-5.7c6.1-1.1,12.1-1.9,18.2-2.8C134.4,63.8,136.6,63.3,138.9,62.9 M74.7,73.5
		C56.6,63.5,39.1,53.8,21.4,44c-1.7,3.2-3.4,6.3-5,9.4c-0.6,1.2-1,2.7-1.2,4c-0.4,2.3-0.7,4.7-0.9,7.1c-0.2,2.6-0.4,5.2-0.2,7.7
		c0.4,3.9,1.3,7.7,2,11.6c0.1,0.7,0.5,1.5,0.7,2.1c1.1-0.3,2-0.5,2.9-0.7c5.2-1,10.5-1.8,15.7-2.9c4.2-0.9,8.4-2.2,12.6-3.1
		c7.9-1.7,15.8-3.1,23.7-4.7C72.6,74.4,73.4,74,74.7,73.5 M83.4,138.5c-0.7-6.9-1.5-13.8-2.2-20.7c-0.7-6.8-1.1-13.7-2.1-20.5
		c-0.9-6.8-1.4-13.7-2.6-20.7c-1.6,1.2-33.9,45.7-35.4,48.6C50.6,132.3,75.5,140.5,83.4,138.5 M17.7,88.5
		c2.6,14.4,9.3,25.9,20.8,35.1c10.9-15.3,21.6-30.4,32.7-46c-6.7,1.3-12.6,2.3-18.5,3.6c-5.8,1.2-11.5,2.8-17.3,4
		C29.5,86.5,23.6,87.4,17.7,88.5 M83.1,74.9c0,0.2,32.9,17.4,47.8,25.8c0.7,0.4,1.4,0.7,2.1,1c6.4-11.2,9-22.9,6.3-35.6 M110.2,24.2
		c-0.6-0.4-1-0.7-1.5-0.9c-4.7-1.6-9.3-3.5-14-4.6c-4.9-1.2-18.8-1.2-20.5-1.2c-0.4,0-0.7,0.2-1.4,0.4c1.9,16.4,3.8,32.8,5.8,49.9
		C89.3,53,99.6,38.7,110.2,24.2"/>
	<path d="M99.3,118.5c1.8,0,3.6,2.1,3.6,4.1c0,1.6-2.4,3.5-4.3,3.5c-1.8,0-3.9-2.2-3.9-3.9C94.7,120,96.6,118.5,99.3,118.5"/>
	<path d="M121.2,111.9c0,1-1,2.1-2.1,2.1c-1.4,0.1-2.4-1-2.5-2.5c-0.1-1.3,0.7-2.2,1.8-2.3C119.6,109.2,121.2,110.7,121.2,111.9"/>
	<path d="M47.8,38.9c-0.1,2.1-2.3,4-4.8,3.9c-2,0-3.2-1.7-3.1-4c0.1-1.9,2.3-4,4.2-4C45.8,34.9,47.8,37,47.8,38.9"/>
	<path d="M63,46c-2.1,0-3.5-1.5-3.6-3.6c0-1.5,1.5-3.3,2.9-3.3c1.8,0,3.8,2.2,3.7,4.4C66.1,44.9,64.8,46,63,46"/>
	<path d="M69.1,55.4c1.4,0,2.4,1,2.3,2.2c-0.1,1.3-1.5,2.9-2.7,2.9c-1.3,0.1-2.6-1.4-2.6-2.8C66.2,56.2,67.3,55.3,69.1,55.4"/>
	<path d="M57,35.6c0.3-0.9-1-2.2-1.9-2.1c-1.1,0.1-1.9,1-1.8,2c0.1,0.8,0.3,1.6,1.5,1.6C55.9,37.1,56.7,36.4,57,35.6z"/>
	<path d="M37.8,63.8c0.3-0.9-1-2.2-1.9-2.1c-1.1,0.1-1.9,1-1.8,2c0.1,0.8,0.3,1.6,1.5,1.6C36.8,65.3,37.6,64.6,37.8,63.8z"/>
	<path d="M71.6,93.8c0.2-0.7-0.8-1.7-1.5-1.6c-0.9,0.1-1.5,0.7-1.3,1.5c0.1,0.6,0.3,1.3,1.1,1.3C70.8,94.9,71.4,94.4,71.6,93.8z"/>
	<path d="M92.5,104.2c0.2-0.7-0.8-1.7-1.5-1.6c-0.9,0.1-1.5,0.7-1.3,1.5c0.1,0.6,0.3,1.3,1.1,1.3S92.3,104.7,92.5,104.2z"/>
	<path d="M52.4,90.9c0.4-1.2-1.3-2.9-2.5-2.8c-1.5,0.2-2.5,1.2-2.3,2.6c0.1,1,0.4,2.1,1.9,2.1S52.1,91.9,52.4,90.9z"/>
	<path d="M76.4,105.2c0.4-1.2-1.3-2.9-2.5-2.8c-1.5,0.2-2.5,1.2-2.3,2.6c0.1,1,0.4,2.1,1.9,2.1C75,107.2,76.1,106.2,76.4,105.2z"/>
	<path d="M96,63.8c0.3-0.9-1-2.2-1.9-2.1c-1.1,0.1-1.9,1-1.8,2c0.1,0.8,0.3,1.6,1.5,1.6C94.9,65.3,95.7,64.6,96,63.8z"/>
	<path d="M126,55.8c0.4-1.1-1.2-2.7-2.4-2.6c-1.4,0.1-2.3,1.2-2.2,2.5c0.1,0.9,0.4,2,1.8,2S125.7,56.7,126,55.8z"/>
	<path d="M129.8,76.5c0.4-0.9-1.2-2.1-2.4-2c-1.4,0.1-2.3,0.9-2.2,1.9c0.1,0.7,0.4,1.6,1.8,1.6C128.5,77.9,129.5,77.2,129.8,76.5z"
		/>
	<path d="M55.6,48.6c0.3-0.9-1-2.2-1.9-2.1c-1.1,0.1-1.9,1-1.8,2c0.1,0.8,0.3,1.6,1.5,1.6C54.6,50.1,55.4,49.3,55.6,48.6z"/>
	<path d="M84.1,53.2c0.2-0.5-0.5-1.2-1.1-1.2c-0.6,0.1-1.1,0.5-1,1.1c0.1,0.4,0.2,0.9,0.8,0.9C83.5,54,84,53.6,84.1,53.2z"/>
	<path d="M61.4,71.3c0.2-0.8-0.8-1.8-1.6-1.7c-0.9,0.1-1.5,0.8-1.4,1.6c0.1,0.6,0.3,1.3,1.2,1.3C60.6,72.5,61.2,71.9,61.4,71.3z"/>
	<path d="M118.4,44.9c0,1.8-1.6,3.3-3.6,3.3c-2.2,0-3.9-1.7-3.9-4.1c0-2.2,1.2-3.7,3-3.7C116.1,40.4,118.4,42.7,118.4,44.9"/>
	<path d="M108.1,64.2c-1.8,0.1-3.5-1.3-3.6-3c-0.2-2.2,1.1-4.3,2.7-4.4c1.9-0.1,4.2,1.9,4.3,3.9C111.6,62.6,110.1,64.1,108.1,64.2"
		/>
	<path d="M43.6,73.2c0.1-2,1.7-3.7,3.3-3.7c1.6,0,3.3,1.8,3.2,3.4c-0.1,1.7-2.3,3.9-3.8,3.8C45,76.6,43.5,74.7,43.6,73.2"/>
	<path d="M86.3,90.6c0.1-2,1.7-3.7,3.3-3.7c1.6,0,3.3,1.8,3.2,3.4c-0.1,1.7-2.3,3.9-3.8,3.8C87.7,93.9,86.2,92,86.3,90.6"/>
	<path d="M23.6,67.8c1.8,0,2.6,0.9,2.6,2.9c-0.1,2.1-1.5,3.8-3.2,3.7c-1.4-0.1-3.1-2.2-3.1-3.7C20,69.2,21.8,67.7,23.6,67.8"/>
	<path d="M70.8,113.4c-1.5-0.9-2.9-1.5-5.8-1.8c-2.8-0.3-6.4,3.5-7.3,7.4c-0.4,1.6,0,3.3,1.3,4.4c1.9,1.7,4,3.1,6.6,3.4
		c3.8,0.4,6.2-1,7.7-4.8C74.8,118.6,74,115.4,70.8,113.4 M63.2,113.6c1-0.2,1.6,4.6,1.6,4.6c-1.8-1.1-4-1.9-3.8-2.7
		C61.1,115,62.8,113.7,63.2,113.6z M60.5,117.3c0.8,0,2,1.9,3.2,3c-1.5,0.2-3.6,0.8-4,0.5C59.2,120.4,59.6,117.3,60.5,117.3z
		 M61.1,123.4c-0.3-0.5,2.9-2.2,3.2-2.1c0.3,0.1,0.3,3.5-0.2,3.8C63.7,125.5,61.7,123.8,61.1,123.4z M68.1,113.9
		c0.3,0.7-1.6,2.8-2,3.4C64.8,113.8,65,113.2,68.1,113.9 M66.7,124.8c-0.3-0.3-1-3.4-0.5-3.6c0.5-0.3,3.4,1.7,3.5,2.4
		C69.7,124.2,67,125.2,66.7,124.8z M70.8,121.9c-0.8,0.1-2.9-1.4-3.7-1.9c0-0.2,3.4-0.1,4.3-0.2C72.4,119.9,71.6,121.8,70.8,121.9z
		 M67.1,118.3c1-1.1,2.1-3.2,3.2-3.2c1.1,0,2.5,2.6,1.7,2.9c-0.8,0.3-2.8,0.1-4.4,0"/>
	<path d="M84.8,25.3c-1.2,1.3-2,2.6-2.8,5.4c-0.8,2.7,2.3,7,5.9,8.6c1.5,0.7,3.2,0.6,4.6-0.5c2-1.6,3.7-3.3,4.5-5.9
		c1.1-3.6,0.1-6.3-3.3-8.5C90.5,22.3,87.3,22.5,84.8,25.3 M83.6,32.8c0-1,4.8-0.7,4.8-0.7c-1.4,1.6-2.6,3.6-3.4,3.3
		C84.5,35.1,83.6,33.2,83.6,32.8z M86.7,36.1c0.2-0.8,2.2-1.6,3.5-2.6c-0.1,1.5,0.1,3.7-0.3,4C89.5,37.9,86.5,36.9,86.7,36.1z
		 M92.8,36.6c-0.6,0.2-1.6-3.2-1.5-3.5c0.1-0.3,3.5,0.4,3.7,0.9C95.3,34.5,93.2,36.1,92.8,36.6z M84.7,28c0.7-0.2,2.4,2.1,2.9,2.6
		C84,31.2,83.4,30.9,84.7,28 M95.2,31.4c-0.4,0.3-3.5,0.3-3.7-0.2c-0.2-0.5,2.3-3,2.9-3C95.1,28.3,95.6,31.1,95.2,31.4z M93.1,26.8
		c-0.1,0.8-1.9,2.6-2.5,3.3c-0.2,0,0.5-3.3,0.6-4.3C91.4,24.9,93.2,26,93.1,26.8z M88.8,29.8c-0.9-1.2-2.8-2.6-2.6-3.7
		c0.2-1.1,3-2,3.2-1.2c0.1,0.9-0.4,2.8-0.8,4.4"/>
	<path d="M38.3,96.8c0,2.4-0.5,4.4-2.8,5.7c-1.7,0.9-3.1,0.8-4.5-0.3c-1.6-1.3-2.7-3.1-2.5-5.2c0.2-2.5,1.6-4.4,3.9-5.4
		c2.2-1,4.5,0.1,5.4,2.4C38.1,94.8,38.1,95.8,38.3,96.8"/>
	<path d="M38.1,112.4c-1.1-0.3-1.8-0.8-1.7-2c0.1-1.5,1-2.7,2-2.4c1.1,0.3,1.7,1,1.6,2.2C39.8,111.5,39,112.5,38.1,112.4"/>
	<path d="M111.5,83c-2.1,0-3.5-1.4-3.5-3.4c0.1-2.2,1.6-3.5,4.1-3.5c2,0,3.7,1.4,3.7,3.2C115.9,81.4,113.9,83.1,111.5,83"/>
	<path d="M104,105.9c-2.1,0-3.5-1.4-3.5-3.4c0.1-2.2,1.6-3.5,4.1-3.5c2,0,3.7,1.4,3.7,3.2C108.4,104.2,106.4,106,104,105.9"/>
	<path d="M129.8,89.3c0,1.7-1.1,2.9-2.8,2.9c-1.7,0-3.3-1.7-3.3-3.6c0-1.5,1.7-3.1,3.2-3C128.4,85.7,129.8,87.5,129.8,89.3"/>
	<path d="M85.9,47.1c-1.5,0.1-2.7-0.9-2.8-2c-0.1-1,0.8-2.1,1.8-2.1c1.1,0,2,0.7,2,1.8C86.8,45.7,86.2,46.5,85.9,47.1"/>
</g>
</svg>
