<?xml version="1.0" encoding="utf-8"?>
<!-- Generator: Adobe Illustrator 19.1.0, SVG Export Plug-In . SVG Version: 6.00 Build 0)  -->
<svg version="1.1" id="Calque_1" xmlns="http://www.w3.org/2000/svg" xmlns:xlink="http://www.w3.org/1999/xlink" x="0px" y="0px"
	 viewBox="0 0 61.2 65.3" style="enable-background:new 0 0 61.2 65.3;" xml:space="preserve">
<style type="text/css">
	.st0{fill:#E01220;}
</style>
<g>
	<path d="M2.4,46.7c-2.7,0-3.5-23-0.5-23s12.2-0.7,17.7-1.1c0.7-2.8,0.8-5.4,0.4-8.2c-0.5-3.3-0.6-6.7-0.5-10.1
		c0-1.2,0.8-2.4,1.5-3.5c0.3-0.4,1.2-0.7,1.7-0.7C27.1,0,32.1,0.5,36.9,0c3.2-0.3,5.7,1.6,5.9,4.8c0.3,4.6,0.6,9.2,0.9,13.7
		c0.1,0.7,0.2,1.5,0.4,2.5c4-0.4,7.9-0.6,11.7-1.1c1.8-0.2,3.6,0.5,4.4,2.2c1.2,2.5,1,5,0.8,7.7c-0.4,4.7,1,14.1-2.1,14.4
		s-9.9,0.9-15.8,1.5c0.7,6.6,2.2,17.7-0.7,18.4c-5.2,1.2-15.3,1.8-20.5,0c-2.1-0.7-2.4-13.8-2.5-17.5C13.9,46.7,5.1,46.7,2.4,46.7z
		 M4.3,39.1c1,0.1,1.6,0.2,2.3,0.2c3.8-0.1,7.6-0.3,11.4-0.5c2.3-0.1,4.8,2.5,4.8,4.7c0,4,0.1,8,0.2,12c0.1,2,0.6,2.4,2.6,2.2
		c2.2-0.3,9.9,0.2,11.7-1.3s-2.2-17.7,0.3-17.9c2.5-0.3,14.9-1,16.3-1.2c1.4-0.3,3.1-13.1,0-13c-3.1,0.2-17.5,2.7-17.6,0.5
		c-0.1-2.5,1.4-19.8-1.1-19.8s-8.4,0-12.7,0c-0.1,1.3-0.3,2.5-0.2,3.7c0.2,3.9,0.5,7.8,0.6,11.8c0.1,2.1-0.3,4.1-1.6,6
		c-5.5,0.3-11,0.7-16.5,1C3.8,31.4,4.2,35.1,4.3,39.1z"/>
	<path class="st0" d="M4.3,39.1c1,0.1,1.6,0.2,2.3,0.2c3.8-0.1,7.6-0.3,11.4-0.5c2.3-0.1,4.8,2.5,4.8,4.7c0,4,0.1,8,0.2,12
		c0.1,2,0.6,2.4,2.6,2.2c2.2-0.3,9.9,0.2,11.7-1.3s-2.2-17.7,0.3-17.9c2.5-0.3,14.9-1,16.3-1.2c1.4-0.3,3.1-13.1,0-13
		c-3.1,0.2-17.5,2.7-17.6,0.5c-0.1-2.5,1.4-19.8-1.1-19.8s-8.4,0-12.7,0c-0.1,1.3-0.3,2.5-0.2,3.7c0.2,3.9,0.5,7.8,0.6,11.8
		c0.1,2.1-0.3,4.1-1.6,6c-5.5,0.3-11,0.7-16.5,1C3.8,31.4,4.2,35.1,4.3,39.1z"/>
</g>
</svg>
