<?xml version="1.0" encoding="utf-8"?>
<!-- Generator: Adobe Illustrator 19.1.0, SVG Export Plug-In . SVG Version: 6.00 Build 0)  -->
<svg version="1.1" id="Calque_1" xmlns="http://www.w3.org/2000/svg" xmlns:xlink="http://www.w3.org/1999/xlink" x="0px" y="0px"
	 viewBox="0 0 847.1 304.5" style="enable-background:new 0 0 847.1 304.5;" xml:space="preserve">
<style type="text/css">
	.st0{fill:#009DBF;}
	.st1{fill:#D0095B;}
	.st2{fill:#009EC0;}
	.st3{fill:#D1005A;}
	.st4{fill:#C0BFBF;}
	.st5{enable-background:new    ;}
	.st6{fill:none;stroke:#D0095B;stroke-width:3;stroke-miterlimit:10;}
	.st7{fill:#FFFFFF;stroke:#D0095B;stroke-width:3;stroke-miterlimit:10;}
	.st8{fill:#FFFFFF;}
</style>
<g>
	<g>
		<path class="st0" d="M43.1,149.9c-0.5,1.4-1,2.8-1.5,4.2c-3.1,7.7-6.2,15.5-9.3,23.2c-2.9,7.2-5.7,14.3-8.7,21.4
			c-3.9,9-8,18-11.9,27c-1.3,2.9-1,4,1.8,5.2c10.4,4.7,20.7,9.7,32.2,11.6c1.6-10.9,3.5-21.9,4.9-33c1.1-8.9,1.8-17.8,2.6-26.7
			c0.1-1-0.2-2.2-0.6-3.2C48.7,169.9,44.5,160.3,43.1,149.9z"/>
		<path class="st0" d="M46.2,145.7c1.5,10.5,4.2,20,8.1,28.9c5.7-6,11.2-11.9,16.9-18C62,155.5,54.1,151.2,46.2,145.7z"/>
		<path class="st0" d="M79.1,158.2c3.8,6.1,7.5,12.1,11.3,18.2c7.2-5.8,13.7-12.3,18.4-21.2c-5.6,1.1-10.4,2.4-15.3,2.9
			C88.7,158.6,83.7,158.2,79.1,158.2z"/>
		<path class="st0" d="M128.1,182.7c-3.2-10.8-4.2-22.2-10.9-31.6c-0.8,0.5-1.5,0.8-2.1,1.3c-0.6,0.4-1.1,0.9-1.6,1.2
			c3.7,10.4,5.5,21,7.1,31.9C123.4,184.5,125.8,183.6,128.1,182.7z"/>
		<path class="st0" d="M41.5,143.2c-0.3-0.1-0.5-0.1-0.8-0.2c-2.5,4.3-5.2,8.4-7.5,12.8c-3,5.9-5.5,11.9-8.3,17.9
			c-1.8,4-1.8,4,2.2,6.5C32.2,168,37.8,155.9,41.5,143.2z"/>
		<path class="st0" d="M121,222.9c-0.7-8.2-1.8-16.3-2.6-24.5c-1.2-11.6-2.3-23.2-5.2-35.1c-0.3,0.6-0.5,1-0.7,1.3
			c-3.8,5.9-8.2,11.2-13.6,15.7c-3.2,2.7-6.6,4.9-11.4,3.9c-3-5-3.8-11.2-7.1-16.3c-5.7,4.3-7.8,4.5-12.5,1.2
			c-2.6,2.7-5.2,5.3-7.7,8.1c-0.7,0.8-1.1,1.9-1.2,3c-0.4,3.5-0.5,6.9-0.9,10.4c-0.9,8.2-1.9,16.3-2.9,24.5
			c-0.7,6.3-1.3,12.6-2.8,18.8c-0.8,3.1-0.7,6.4-1.1,9.9c7.1,1.8,13.1,3.1,20.4,3.1s24.7,0.6,34.8-2.1c3.3-0.9,6.7-1.8,9.7-3.2
			c2.7-1.3,5.2-3.2,5.1-6.7C121.2,230.9,121.3,226.9,121,222.9z M108.8,209.4c-0.5,4.9-3.7,7.5-7.9,10.9c-2.9-4-5.9-7.6-5.5-13
			c0.2-3-0.4-6.2-0.6-9.1c2.8-1.2,5-2.1,7.5-3.2c1.6,2.6,4.7,3.1,8.1,3.7C110.1,200.3,109.1,206.7,108.8,209.4z"/>
	</g>
	<g>
		<path class="st0" d="M238,160.1c-10.2,27.1-18.5,53.8-24.5,81.1c10,8.4,22,9.9,33.9,12.1c0.2-1,0.4-1.7,0.5-2.4
			c0.7-8.4,1.4-16.8,2-25.3c0.4-5.5,0.5-10.9,0.8-16.4c0.2-4.3,0.5-8.7,0.7-13c0.3-5.3,0.7-10.7,1-16c0.1-2-0.3-3.7-1.7-5.1
			c-0.8-0.8-1.4-1.8-2.1-2.6C245.2,168.4,241.8,164.5,238,160.1z"/>
		<path class="st0" d="M300.8,146.7c-7.4,6.4-16.1,10.1-25.4,12c3.6,5.6,7.1,10.8,10.4,15.8C292.6,166.4,298.1,157.3,300.8,146.7z"
			/>
		<path class="st0" d="M310.4,177.2c2.7-0.5,5.6-0.8,7.2-3.3c-0.4-1.3-0.8-2.4-1.1-3.4c-1.8-5.2-3.4-10.4-5.3-15.5
			c-1-2.7-1.9-5.5-4.9-7.3c-0.3,2-0.9,3.8-0.6,5.4C307.1,161.1,308.8,169.1,310.4,177.2z"/>
		<path class="st0" d="M261.4,159.6c-7.4-1.1-14.6-2.2-22.3-3.4c0.9,1.3,1.5,2.4,2.3,3.4c3.1,3.4,6.2,6.8,9.3,10.2
			c0.9,1,1.8,2.1,3,3.7C254.9,167.6,258.2,163.7,261.4,159.6z"/>
		<path class="st0" d="M235.8,154.2c-0.2-0.1-0.3-0.2-0.5-0.3c-1,1.1-2,2.1-2.8,3.2c-0.7,1-1,2.3-1.6,3.3c-2.9,4.6-5,9.4-6.5,14.6
			c-0.7,2.4-1.8,4.6-2.6,7c-0.9,2.7-1.6,5.4-2.5,8.1c1.3,0.6,2.4,1.1,3.8,1.8C227.3,179.2,231.5,166.7,235.8,154.2z"/>
		<path class="st0" d="M320.4,237.4c-1.6-6.5-3.1-13.1-4.6-19.6c-2.4-10.3-4.8-20.6-7-30.9c-1.9-8.9-3.5-17.8-5.2-26.7
			c-3.2,8.7-8.6,15.6-16.1,21c-0.6-0.4-1.2-1-1.6-0.9c-2.6,0.6-3.1-1.2-3.8-3c-0.7-2-1.3-4-2.1-6c-1.5-3.5-3.7-6.3-7-9
			c-1,1.1-1.5,2.2-2.4,2.8c-1.1,0.8-2.6,1.8-3.6,1.6c-3-0.8-4,0.9-5.1,3c-1.3,2.5-2.7,5.1-3.9,7.6c-0.3,0.6-0.5,1.4-0.6,2.1
			c-0.4,9.4-0.9,18.8-1.3,28.3c-0.3,9.7-0.5,19.4-0.8,29.1c-0.1,3.1-0.5,6.2-0.7,9.3c-0.2,2.8-0.5,5.6-0.7,8.7
			c8.4-0.5,16,1.3,23.9,1.1c15.2-0.4,28.7-5.2,41-14C320.5,240.7,320.9,239.3,320.4,237.4z M304,216.9c-0.1,3.6-2.1,5.4-5.5,7.4
			c-9.1-4.5-9.4-13.4-10.9-21c2.8-2.6,5-4.7,7.4-6.8c2.1,0.5,6.4,1.3,9.1,1.9C304,204,304.2,210.9,304,216.9z"/>
	</g>
	<g>
		<path class="st0" d="M419,147.8c-0.6,1.6-1.2,2.8-1.6,4c-1.4,5-2.6,10.1-3.9,15.2c-2,7.5-3.9,15.1-6.1,22.6
			c-3.8,13.3-7.6,26.5-11.6,39.8c-0.6,2,0,3.2,1.8,3.8c7,2.5,13.4,6.5,20.8,8.2c7,1.6,14,3.1,21.5,3.4c0-3.6-0.3-6.9,0.1-10.2
			c1.2-9.8,0.6-19.7,0.1-29.5c-0.4-7.1-1.3-14.1-1.3-21.2c0-3.6-0.4-7.2-0.8-10.8c-0.2-1.2-0.8-2.6-1.7-3.5
			c-6-6.1-12.2-12.1-16.2-19.9C419.8,149.1,419.5,148.6,419,147.8z"/>
		<path class="st0" d="M457.2,146.8c3.4,4.7,6.7,9.2,10.2,14.2c6.4-8.8,14-16.7,14.5-29C474.4,139,466.1,143.3,457.2,146.8z"/>
		<path class="st0" d="M445.8,148c-8.1-0.1-16.1-1.6-24.3-4c3.2,9.5,9.5,15.9,16.3,22.1C440.6,159.9,443.2,154.1,445.8,148z"/>
		<path class="st0" d="M509.2,156.8c-6.1-11.8-15.6-23.6-20.7-25.8c3.9,10.5,7.8,21.1,11.8,32C503.2,161,506.3,158.9,509.2,156.8z"
			/>
		<path class="st0" d="M406.1,179c2.9-6.8,8.2-26.5,8.5-31.7c-3.4,3.4-12.3,21.7-14.5,30.1C402.2,177.9,404.2,178.5,406.1,179z"/>
		<path class="st0" d="M513.4,216.5c-1.2-3.5-2.3-7.1-3.5-10.6c-4.4-13.5-8.8-27-13.1-40.5c-2.8-8.6-5.6-17.3-8.5-26.3
			c-0.6,0.7-0.7,0.8-0.8,0.9c-0.2,0.6-0.4,1.1-0.7,1.7c-3.3,9-7.8,17.2-14.7,23.9c-3.1,3-6.2,2.1-7.7-1.8c-1.6-4-3.8-7.8-7.1-11
			c-2,2.3-4.1,4-7.1,2.4c-2,3.5-3.8,6.7-5.8,9.9c-1.2,2-1.4,4.2-1.2,6.5c0.5,9.7,1,19.4,1.5,29.1c0.2,3.7,0,7.5,0.1,11.2
			c0.2,9.7,0.5,19.4,0.7,29.1c0,1.3,0,2.7,0,4.3c1.7,0.2,3.2,0.5,4.6,0.5c5.5-0.2,11-0.1,16.4-0.8c13-1.6,25.4-5.1,36.4-12.5
			c3.7-2.5,7.3-5.1,9.5-9.3C513.6,221.1,514.3,219,513.4,216.5z M485.7,205.5c-5.2-0.3-8.1-2.7-9.5-7.3c-0.9-3.2-5.2-8.9-3-9.6
			c3.2-1,3-4.9,6.1-6.5c3.6,0.5,7.3,1.9,10,1.5C492.2,183.1,490.1,198.6,485.7,205.5z"/>
	</g>
	<g>
		<path class="st0" d="M601.3,241.9c2.7-20.4,2.7-40.7,4.4-60.4c-10.8-5.9-14-16.5-18.5-26.7c-1,2.2-1.7,3.7-2.3,5.3
			c-5.6,13.9-11.2,27.7-16.6,41.6c-2.7,7.1-4.9,14.3-7.3,21.6c-0.3,1-0.3,2.7,0.3,3.4c3.7,4,16.1,8.5,17.8,9.1
			C585.8,238.6,593.6,240.3,601.3,241.9z"/>
		<path class="st0" d="M657.2,152.7c-9.6,4.4-19.5,6.5-30,6.6c2.6,6.3,5.8,11.9,5.9,19C643.3,171.4,652.2,164,657.2,152.7z"/>
		<path class="st0" d="M606.2,178.5c0.8-1.7,1.7-3,1.9-4.4c0.6-5.6,1.7-11,5.9-15.7c-8.5-1.8-16.8-3-23.9-7.8
			C592.8,161.4,596.9,171.3,606.2,178.5z"/>
		<path class="st0" d="M574.8,176.6c2.1-5.4,4.1-10,5.8-14.6c1.6-4.5,4.4-8.7,5-13.6c-6.3,6.4-10.8,13.9-15.1,21.6
			c-0.3,0.5-0.2,1.6,0.2,2C571.7,173.4,573.1,174.7,574.8,176.6z"/>
		<path class="st0" d="M667.6,176.6c4-1.5,4.3-2,3.3-5.2c-0.2-0.7-0.5-1.4-0.8-2.1c-1.1-2.5-2.2-5-3.2-7.5
			c-1.6-3.9-3.1-7.8-4.7-11.7c-0.1-0.3-0.5-0.4-0.8-0.5c-0.2,0.1-0.5,0.2-0.7,0.3C663,158.7,666.3,167.3,667.6,176.6z"/>
		<path class="st0" d="M676.8,221.7c-0.9-3-1.7-6-2.5-9c-2.1-7.7-4.2-15.4-6.4-23c-1-3.3-2.5-6.5-3.3-9.8c-0.9-3.5-1.1-7.1-1.8-10.6
			c-0.6-2.9-1.3-5.7-2-8.5c-1.7,2.9-2.9,5.9-4.9,8.3c-3.8,4.6-8.4,8.4-13.6,11.4c-2.9,1.7-5.6,3.8-9.1,4.2c-2.1,0.2-3.4-0.4-3.9-2.5
			c-0.3-1.4-0.4-3-0.2-4.5c0.7-5.4-2-9.7-4-14.6c-2,3.7-2.3,3.8-7.9,2.9c-0.6,2.1-1.2,4.2-1.8,6.4c-0.8,3-1.1,6.3-2.6,8.9
			c-1.1,1.9-1.8,3.6-2,5.7c-0.4,5.8-0.9,11.6-1.4,17.5c-0.9,10.8-1.8,21.6-2.8,32.3c-0.2,1.9-0.7,3.8-1.1,6.2
			c5,0.7,10.1,1.7,15.3,2.1c14.2,1,27.9-1.1,40.7-7.3c4.2-2.1,8.3-4.6,12.2-7.2C677.2,228.5,677.9,225.4,676.8,221.7z M659.3,208.3
			c-0.1,2.7-0.3,5.5-1,8.1c-0.8,3-1.6,6.3-4.6,8.3c-7-5.9-9.1-13.9-10.9-22.4c5.7-1.6,6.8-2.2,9.2-5.4c2.5,0.8,5,1.6,7.4,2.3
			C659.4,202,659.5,205.2,659.3,208.3z"/>
	</g>
	<g>
		<path class="st0" d="M814.6,190.3c1.7-1,3.2-0.6,4.8,0c1.9,0.8,3.8,2,5.9,0.4c0.4-0.3,1.5,0.4,2.5,0.7c-0.6-2.4-1.1-9-1.5-10.9
			c-0.3-1.7,0-3.5-0.1-5.2c-0.3-3.8-0.6-7.5-0.9-11.3c-2.1,1.8-3.5,3.8-4.9,5.8c-4.1,5.7-9.3,10-16,12.2c-1.6,0.5-2.7,0-3.9-1.2
			c-2.7-2.7-3-6.2-4.1-9.5c-0.7-2.2-0.9-4.6-3-6.5c-2.2,3.5-4.9,5.5-9,2.8c-0.6,2.6-1,4.8-1.6,6.9c-1,3.5-1.1,7.5-5.2,9.3
			c0.2,4.6,0.7,9.1,0.7,13.6c-0.1,7.8-0.5,15.7-0.8,23.5c-0.2,4.2-0.4,8.4-0.9,12.6c-0.8,7.3-1.7,14.5-2.6,22c1.2,0,1.8,0,2.4,0
			c7.7-0.4,15.4-0.7,23.1-1.3c4.3-0.3,8.7-0.6,13-1.4c5.5-1.1,11-2.3,16.2-4.3c3.2-1.2,7-1.8,9.1-4.5c-1.6-7.7-3.2-15-4.6-22.3
			c-1.4-7.3-2.7-14.6-4.1-21.9c-0.4,4-0.4,8-0.4,12c-0.2,7.8-3.8,13.3-10.7,16.9c-1.3,0.7-2.4,0.4-2.8-0.6c-0.9-2.4-3.1-3.2-4.7-4.6
			c-0.9-0.8-1.8-1.8-2.3-2.8c-0.8-2.1-1.5-4.2-1.8-6.4c-0.7-4.8-1-9.7-1.9-14.4c-0.4-2.3-0.2-4.1,1.3-5.6c2.1-0.5,3.4,2.5,5.7,0.9
			C813.2,194,814.3,192.4,814.6,190.3z"/>
		<path class="st0" d="M768.4,254.8c0.4-3.3,0.8-6.5,1.1-9.7c0.4-4.7,0.8-9.4,1.1-14.1c0.6-8.7,1.3-17.3,1.6-26
			c0.2-6.3-0.5-12.7-0.3-19c0.1-4-0.9-6.9-4.2-9.2c-4.6-3.3-8.2-7.5-10.4-12.9c-0.7-1.6-1.6-3.2-2.4-4.8c-0.5,2.5-0.3,4.8-0.6,7.1
			c-1.1,7.5-2.2,15-3.9,22.4c-2.6,11.6-5.3,23.2-9.4,34.5c-2.1,5.8-3.8,11.8-5.5,17.8c-0.6,1.9-0.8,3.8-1.2,5.6
			C740.9,250.3,761.7,255.4,768.4,254.8z"/>
		<path class="st0" d="M791.9,157.8c5.5,4.8,8.1,11.1,9.7,18c10.8-7,23-23,21.1-32.2c-4,4.3-9.1,6.6-14.3,8.5
			C803,154.1,797.7,155.8,791.9,157.8z"/>
		<path class="st0" d="M781.4,159.8c-4.2-0.5-8.1-0.9-11.8-1.6c-3.7-0.6-7.4-1.6-11.2-2.4c0.5,7.9,10.5,20.8,17.3,21.8
			C775.5,171.2,777.6,165.5,781.4,159.8z"/>
		<path class="st0" d="M751.5,153.7c-5.6,11.6-5.3,23.8-9.3,35.1c1.3,0.7,2.4,1.2,3.9,2C748.2,178.4,750.7,166.5,751.5,153.7z"/>
		<path class="st0" d="M829,161.8c-0.1,0-0.3,0-0.4,0c0.6,6.9,1.2,13.7,1.8,20.6c2.4,0,2.3-1.7,2-3.1
			C831.3,173.4,830.1,167.6,829,161.8z"/>
	</g>
	<g>
		<path d="M737,213.7c2.2-7.1,4.2-13.8,6.4-20.8c-1.2-0.4-2.2-0.7-3.2-1.1c-2.6-1-2.9-2.2-2.2-4.8c1.8-6.6,3.3-13.3,5-19.9
			c1-3.7,2.1-7.4,3.1-11.1c0.4-1.4,0.8-2.8,1.2-4.2c-27.9-12.1-29.6-42.8-14.8-62.2c-5.9-6.7-13.3-11-22-13c-5-1.1-10-1.9-15.2-1.5
			c-1.4,0.1-2.4-0.4-3-1.7c-0.7-1.6,0.6-2.3,1.5-3c2.3-1.5,4.4-3.3,6.8-4.7c6.3-3.5,11.7-8.2,15-14.7c3.4-6.7,5.1-13.8,2.1-21.2
			c-0.4-1-1.7-2.5-0.1-3.7c18.4,6.1,44.8-0.6,57.1-18.7c4.1,3.6,8.1,7.3,13.4,9c5.3,1.8,10.6,3.7,16.1,4.7
			c5.3,0.9,10.8,0.7,16.6,1.1c0.6,1.4,0.5,2.8-0.8,4.4c-2.6,3.3-5.3,6.7-7.3,10.3c-4.4,8.2-5.7,17.1-4.9,26.4
			c0.1,0.6,0.3,1.2,0.3,1.8c0,0.6-0.1,1.2-0.2,2.1c15,5.1,25,15.5,29.3,30.5c4.3,15.1,0.7,29-9.6,41c2.4,3,2.5,6.7,3.2,10.1
			c2,10,3.8,20,5.8,30c0.6,3.2,0.3,4.4-3,6.6c0.7,8.1,2.8,16,4.9,24c1.8-0.7,3.6-1.3,5.3-2c1.4-0.6,2.2,0,2.7,1.1
			c1.1,2.6,0.5,5.4-1.7,7.4c-1.9,1.6-3.7,3.3-5.8,4.6c-1.7,1-2.3,2.3-1.9,4c1.2,5.5,2.3,11,4,16.3c2.1,6.3,1.1,7.2-4.4,10.2
			c-7.8,4.4-16.4,6.2-25.3,7.1c-4,0.4-8,1.6-12.4,2.4c-1.5,7.4-0.9,14.9-0.9,22.7c1.5,0,2.7,0,3.9,0c4.3-0.2,8.7-0.5,13-0.6
			c2.1,0,2.8,1.4,2.1,3.6c-1.1,3.2-2.2,6.5-3.4,10.3c-0.8,0-2.2,0.2-3.6,0c-4.3-0.8-8.6-1.5-13-0.6c-2.1,0.4-3.1-0.4-3.4-2.5
			c-0.2-1.6-0.2-3.2-0.1-4.8c0.2-4.3,0.5-8.7,0.7-13c0.2-4.1,0.4-8.2,0.6-12.3c0-0.7,0-1.4,0-2.2c-8.6,0.9-16.9,1.7-25.7,2.6
			c-0.6,5-2,10.3-1.7,15.6c0.3,4.3-1.2,8.2-1.3,12.4c-0.1,2.1-0.8,2.5-3,2.1c-4.1-0.7-8.3-1.7-12.4-1.9c-3.5-0.2-7.1,0.4-11.2,0.7
			c-0.1-0.3-0.7-0.9-0.9-1.7c-0.3-2.1-0.5-4.2-0.6-6.3c-0.1-1.5,0.5-2.7,2.3-2.7c2.2,0,4.5-0.1,6.7-0.1c4-0.1,7.9-0.3,11.9-0.4
			c1.2,0,2.5,0.1,4.2,0.2c0.7-6.1,1.4-12.3,2.2-18.6c-2.8-0.6-5.4-1.3-8.1-1.8c-9-1.7-17.5-4.8-25.7-8.8c-3.5-1.7-3.7-2.9-2-6.4
			c0.9-1.9,1.4-4,2-6c1.4-4.8,2.7-9.5,3.9-13.7c-3.5-3.1-6.6-5.9-9.8-8.8c0.4-1.3,0.7-2.4,1.1-3.4c1.3-3.6,1.8-3.8,5.4-2.3
			C733.8,212.3,735.1,212.9,737,213.7z M730.9,100.1c-2.8,5.3-3.4,8.1-3.6,17c-0.3,12.8,5,22.6,16.3,28.9c6.9,3.8,14.2,6.4,21.9,8
			c6.7,1.3,13.4,2.7,20.3,0.7c4.8-1.4,9.7-2.4,14.4-3.8c8.6-2.7,16.6-6.3,23-13.3c4.9-5.4,8.9-11.1,10.8-18.1c1.6-5.9,2.2-12,1-18.1
			c-1.5-8.2-5.6-15-11.2-21.2c-3.4-3.7-7.3-6.1-12-7.6c0,1.6,0.4,3.1-0.1,4.2c-2.1,4.7-4.4,9.3-9.4,11.6c-8.9,4.1-18,7.7-27.8,9.3
			c-4.9,0.8-9.7,2.1-14.5,3.4c-4,1-7.8,2.5-11.8,3.4C741.9,106,735.8,105.5,730.9,100.1z M814.6,190.3c1.7-1,3.2-0.6,4.8,0
			c1.9,0.8,3.8,2,5.9,0.4c0.4-0.3,1.5,0.4,2.5,0.7c-0.6-2.4-1.1-9-1.5-10.9c-0.3-1.7,0-3.5-0.1-5.2c-0.3-3.8-0.6-7.5-0.9-11.3
			c-2.1,1.8-3.5,3.8-4.9,5.8c-4.1,5.7-9.3,10-16,12.2c-1.6,0.5-2.7,0-3.9-1.2c-2.7-2.7-3-6.2-4.1-9.5c-0.7-2.2-0.9-4.6-3-6.5
			c-2.2,3.5-4.9,5.5-9,2.8c-0.6,2.6-1,4.8-1.6,6.9c-1,3.5-1.1,7.5-5.2,9.3c0.2,4.6,0.7,9.1,0.7,13.6c-0.1,7.8-0.5,15.7-0.8,23.5
			c-0.2,4.2-0.4,8.4-0.9,12.6c-0.8,7.3-1.7,14.5-2.6,22c1.2,0,1.8,0,2.4,0c7.7-0.4,15.4-0.7,23.1-1.3c4.3-0.3,8.7-0.6,13-1.4
			c5.5-1.1,11-2.3,16.2-4.3c3.2-1.2,7-1.8,9.1-4.5c-1.6-7.7-3.2-15-4.6-22.3c-1.4-7.3-2.7-14.6-4.1-21.9c-0.4,4-0.4,8-0.4,12
			c-0.2,7.8-3.8,13.3-10.7,16.9c-1.3,0.7-2.4,0.4-2.8-0.6c-0.9-2.4-3.1-3.2-4.7-4.6c-0.9-0.8-1.8-1.8-2.3-2.8
			c-0.8-2.1-1.5-4.2-1.8-6.4c-0.7-4.8-1-9.7-1.9-14.4c-0.4-2.3-0.2-4.1,1.3-5.6c2.1-0.5,3.4,2.5,5.7,0.9
			C813.2,194,814.3,192.4,814.6,190.3z M768.4,254.8c0.4-3.3,0.8-6.5,1.1-9.7c0.4-4.7,0.8-9.4,1.1-14.1c0.6-8.7,1.3-17.3,1.6-26
			c0.2-6.3-0.5-12.7-0.3-19c0.1-4-0.9-6.9-4.2-9.2c-4.6-3.3-8.2-7.5-10.4-12.9c-0.7-1.6-1.6-3.2-2.4-4.8c-0.5,2.5-0.3,4.8-0.6,7.1
			c-1.1,7.5-2.2,15-3.9,22.4c-2.6,11.6-5.3,23.2-9.4,34.5c-2.1,5.8-3.8,11.8-5.5,17.8c-0.6,1.9-0.8,3.8-1.2,5.6
			C740.9,250.3,761.7,255.4,768.4,254.8z M735.8,85c0.5-0.4,0.9-0.7,1.2-1.1c4.2-4.4,9.1-7.6,15-9.4c2-0.6,4-1.2,6-2
			c12.8-4.7,26.2-6.7,39.7-7.8c2.2-0.2,4.5,0.3,6.9,0.6c-0.1-0.7-0.2-1.3-0.2-2c-0.2-7.2-2.6-6.5-7.3-6.4c-3.2,0.1-6.4,0.5-9.7,0.8
			c-10.8,1-21.2,3.9-31.4,7.5c-2.9,1-5.9,2.1-8.5,3.7c-4.7,2.8-9.2,6-13.7,9.1c-1.1,0.7-2,1.7-3.1,2.6
			C732.5,82.3,734.1,83.6,735.8,85z M791.9,157.8c5.5,4.8,8.1,11.1,9.7,18c10.8-7,23-23,21.1-32.2c-4,4.3-9.1,6.6-14.3,8.5
			C803,154.1,797.7,155.8,791.9,157.8z M808,198.9c0.6,4.8,1.5,9.2,1.7,13.6c0.2,5,1.7,9,6.7,11.2c3.5-2.8,6.8-5.8,6.7-11.1
			c0-2.3,1.7-11.5,1.9-14.3c0,0-5.4-2.8-8.1-2.5C814.3,196.3,812,199.7,808,198.9z M781.4,159.8c-4.2-0.5-8.1-0.9-11.8-1.6
			c-3.7-0.6-7.4-1.6-11.2-2.4c0.5,7.9,10.5,20.8,17.3,21.8C775.5,171.2,777.6,165.5,781.4,159.8z M751.5,153.7
			c-5.6,11.6-5.3,23.8-9.3,35.1c1.3,0.7,2.4,1.2,3.9,2C748.2,178.4,750.7,166.5,751.5,153.7z M829,161.8c-0.1,0-0.3,0-0.4,0
			c0.6,6.9,1.2,13.7,1.8,20.6c2.4,0,2.3-1.7,2-3.1C831.3,173.4,830.1,167.6,829,161.8z"/>
		<path d="M40.7,285c-1.1,0.5-2.1,1.3-3.1,1.2c-5,0-10.1-0.1-15.1-0.5c-4.3-0.3-4.9-1.1-4.6-5.4c0.1-1.6,0.6-3.2,1-5.2
			c6,0.2,12,0.5,18.3,0.7c1-8.8,2.1-17.5,3.1-26.4c-3.3-1.3-6.6-2.5-9.7-3.9c-7-3.4-14-7-21-10.5c-1.1-0.6-2.1-1.4-2.9-2.3
			c-1.5-1.6-1.5-3.7-0.5-5.5c2.3-4.3,4.4-8.6,6.4-12.5c-4.4-5-11.2-6.9-12.6-13.9c0.7-0.9,1.4-1.8,2.2-2.6c1.3-1.4,2.3-1.4,3.7-0.1
			c1.5,1.4,3,2.9,4.8,4.6c3.9-7.1,7.7-14.1,11.3-20.8c-1-1.4-2.4-2.6-2.6-4c-0.2-1.4,0.6-3.1,1.3-4.5c2.1-4.8,4.1-9.6,6.5-14.3
			c3.4-6.5,7-12.9,10.7-19.6c-2-2.2-4.2-4.8-6.6-7.1c-9.2-8.8-10.5-19.7-8.6-31.4c1.1-7.2,4.2-13.5,9.2-18.9c1-1,1.7-2,1.7-3.5
			c0.1-1.4,1-2.9,0.9-4.3c-0.2-2.4-0.7-4.9-1.6-7.1c-1.4-3.4-3.3-6.6-4.8-10c-1.9-4.5-3.6-9-5.4-13.5c-0.7-1.8-1.8-3.5-2.4-5.4
			c-0.4-1.3,0-2.8,0-4c13.7-1.7,26.6-4.3,37.9-11.8c2.1-1.4,3.9-3.1,5-5.4c1-2,2.3-3.8,3.7-6.2c1.7,1.2,3.3,2.2,4.6,3.4
			c2.8,2.7,6.5,3.7,10,4.8c7.5,2.3,15.3,3.1,23.2,3.7c6.5,0.5,12.9,1.4,19.4,0.5c2.1-0.3,3.1,1.3,4,2.8c2.5,4.4,4.6,9.1,7.4,13.3
			c4.2,6.5,10,11.4,16.6,15.2c2.6,1.5,3.5,3.3,1.9,5.9c-1.9,2.9-4.1,5.7-6.2,8.4c-3.7,4.8-8.1,9.1-10,15.2c-0.3,1-1.2,1.9-1.7,2.9
			c-0.4,0.9-0.6,1.8-0.8,2.7c-0.3,1.4-0.6,2.8-1,4.2c10,21.9,4.2,40.1-13.8,55.5c0.6,1.4,1.2,2.7,1.9,4c4.3,7.9,6.6,16.6,8.7,25.3
			c0.1,0.5,0.2,1,0.3,1.5c0.7,4.4-0.1,5.8-4.6,7.3c0.6,9.3,1.2,18.7,1.9,28.5c1.4-0.6,2.7-1.2,4.1-1.7c2.6-1,3.8-0.5,4.4,2.1
			c0.6,2.9,0.9,5.8,1.3,8.4c-4.9,1.4-9.1,2.6-13.5,3.8c-0.3,4.1-0.6,8.1-0.8,12.2c-0.1,1.4-0.5,2.3-1.7,3c-1.5,0.8-2.8,2-4.2,2.9
			c-1.4,0.9-2.7,1.8-4.2,2.3c-4.2,1.1-8.4,2-12.7,2.9c-0.5,0.1-1,0-1.5,0.2c-4.8,2.1-10,1.4-15,1.6c-0.8,0-1.7,0.4-2.9,0.7
			c-1,6.9-1.9,14-3,21.4c5.3,0.6,17,0.9,18.3,0.4c0.2,0.3,0.5,0.7,0.7,1.1c0.9,1.8-0.3,9.2-1.8,10.5c-0.5,0.4-1.3,0.5-2,0.5
			c-5.6,0-11.2-0.2-16.8-0.1c-2.2,0-3.6-1.1-3.2-3.3c0.8-6,1.8-12,2.6-18c0.5-3.9,0.9-7.9,1.5-12.3c-5.9-0.1-11.7,0-17.4-0.2
			c-5.7-0.2-11.2-1.9-16.5-3.7C42.9,253.5,40.1,279.8,40.7,285z M131.2,96c-2.7,2.2-5.4,3.1-8.7,3.1c-4.1,0-7.8-1-11.7-1.9
			C100,94.5,89.1,92,78.2,89.6c-7.4-1.6-14.8-3.3-22.5-3.2c-6.9,0-13.9,0-20.6-2.3c-9,10.6-11.7,22.4-7.9,35.6
			c0.5,1.7,1.5,3.4,2.5,4.9c3.6,5.6,8.3,10.2,13.7,14.1c4.1,3,8.3,5.9,12.7,8.5c5.8,3.4,12.3,4.6,18.9,5.6c3.9,0.6,7.9,1.5,11.8,1.4
			c4.7,0,9.4-0.6,14-1.5c9.3-1.9,17.6-5.7,24.2-13c8.5-9.2,12.1-19.8,11-32.2C135.7,103.4,134.6,99.3,131.2,96z M51.2,243.8
			c7.1,1.8,13.1,3.1,20.4,3.1c7.3,0,24.7,0.6,34.8-2.1c3.3-0.9,6.7-1.8,9.7-3.2c2.7-1.3,5.2-3.2,5.1-6.7c-0.1-4,0-7.9-0.3-11.9
			c-0.7-8.2-1.8-16.3-2.6-24.5c-1.2-11.6-2.3-23.2-5.2-35.1c-0.3,0.6-0.5,1-0.7,1.3c-3.8,5.9-8.2,11.2-13.6,15.7
			c-3.2,2.7-6.6,4.9-11.4,3.9c-3-5-3.8-11.2-7.1-16.3c-5.7,4.3-7.8,4.5-12.5,1.2c-2.6,2.7-5.2,5.3-7.7,8.1c-0.7,0.8-1.1,1.9-1.2,3
			c-0.4,3.5-0.5,6.9-0.9,10.4c-0.9,8.2-1.9,16.3-2.9,24.5c-0.7,6.3-1.3,12.6-2.8,18.8C51.5,236.9,51.5,240.2,51.2,243.8z
			 M43.1,149.9c-0.5,1.4-1,2.8-1.5,4.2c-3.1,7.7-6.2,15.5-9.3,23.2c-2.9,7.2-5.7,14.3-8.7,21.4c-3.9,9-8,18-11.9,27
			c-1.3,2.9-1,4,1.8,5.2c10.4,4.7,20.7,9.7,32.2,11.6c1.6-10.9,3.5-21.9,4.9-33c1.1-8.9,1.8-17.8,2.6-26.7c0.1-1-0.2-2.2-0.6-3.2
			C48.7,169.9,44.5,160.3,43.1,149.9z M37.6,71.9c1.5-0.9,2.6-1.6,3.7-2c10.7-4.6,21.9-6.6,33.5-6c7.2,0.4,14.3,1.2,21.4,2.7
			c9,2,17.3,5.5,24.8,10.8c3.8,2.7,7.8,5.2,11.9,7.9c0.8-1.3,1.8-2.9,2.7-4.3c-1.8-3.5-4.4-5.9-7.3-7.7c-7-4.3-14.3-8.2-22.2-10.6
			c-5.2-1.6-10.5-3.2-15.9-4c-8.7-1.4-17.6-1.7-26.4-0.8c-8.1,0.8-16,2.1-23.3,5.8c-1.4,0.7-2.9,1.2-4.5,1.9
			C36.5,67.8,37,69.7,37.6,71.9z M46.2,145.7c1.5,10.5,4.2,20,8.1,28.9c5.7-6,11.2-11.9,16.9-18C62,155.5,54.1,151.2,46.2,145.7z
			 M79.1,158.2c3.8,6.1,7.5,12.1,11.3,18.2c7.2-5.8,13.7-12.3,18.4-21.2c-5.6,1.1-10.4,2.4-15.3,2.9
			C88.7,158.6,83.7,158.2,79.1,158.2z M128.1,182.7c-3.2-10.8-4.2-22.2-10.9-31.6c-0.8,0.5-1.5,0.8-2.1,1.3
			c-0.6,0.4-1.1,0.9-1.6,1.2c3.7,10.4,5.5,21,7.1,31.9C123.4,184.5,125.8,183.6,128.1,182.7z M41.5,143.2c-0.3-0.1-0.5-0.1-0.8-0.2
			c-2.5,4.3-5.2,8.4-7.5,12.8c-3,5.9-5.5,11.9-8.3,17.9c-1.8,4-1.8,4,2.2,6.5C32.2,168,37.8,155.9,41.5,143.2z"/>
		<path d="M360.5,28.7c9.1,2.9,17.9,1,26.5-2.5c4.4-1.8,7.9-4.9,10.5-8.7c1.9-2.8,2.9-6.2,4-9.5c0.9-2.9,1.2-3.2,3.6-1.5
			c5.3,3.7,11.3,5.1,17.6,5.6c12.6,0.9,24.5-1.5,35.7-7.5c1.5-0.8,2.7-2.1,4-3.3c0.9-0.8,1.8-1.8,2.9-0.9c0.9,0.7,1.6,1.8,2,2.9
			c0.4,1.1,0,2.5,0.3,3.7c0.9,4.2,3.4,7.1,7.2,9c5.4,2.7,11.2,4.2,17.2,4.3c3.1,0.1,6.1-0.3,9.5-0.4c1.7,2.3,1.5,2.8-0.6,4.7
			c-2.8,2.4-5.7,4.9-8,7.8c-3,3.6-6.7,6.9-8,11.6c-1.2,4.6-2,9.5-2.6,14.2c-0.1,1.1,1.1,2.4,1.6,3.7c0.8,2.1,1.5,4.2,2.3,6.2
			c0.2,0.7,0.5,1.5,1,1.9c4.5,4,6,9.7,7.8,15c1.8,5.5,1.8,11.4,1,17c-1.1,8.3-3.1,16.3-8.2,23.6c10.4,7.5,17.6,17.6,24,28.3
			c0.8,1.3,1.1,3,1.6,4.5c-2.6,1.9-5.1,3.7-7.8,5.8c2.4,6.4,4.7,12.6,7.2,19.4c2.8-1.4,5.5-2.7,8.5-4.1c4.3,1.5,2.3,7.3,2.5,9.8
			c-3.9,2.3-8.3,4.8-13,7.5c1.3,4,2.6,8,3.9,12c1.4,4.2,3,8.5,4.4,12.7c0.7,1.9-0.1,3.5-1.3,4.8c-2.2,2.7-4.5,5.3-6.8,7.9
			c-5.2,5.8-11.7,9.5-19,12c-4,1.4-8,2.6-12.5,4.1c0.7,12.5,1.4,25,2.1,37.8c1.8,0,3.3,0.1,4.7,0c6.3-0.4,12.6-0.2,18.8-1.6
			c1.9-0.4,3.6,0.5,4.1,2.3c0.7,2.8,1.1,5.7,1.6,8.8c-0.9,0.2-1.7,0.4-2.5,0.6c-7.9,1.4-15.8,3-23.8,4.1c-5.5,0.7-6.9,1.2-6.6-5.6
			c0.3-6.1-0.4-12.2-0.6-18.3c-0.3-8.6-0.7-17.2-1-25.8c0-0.5-0.1-1-0.2-1.4c-10.8,0.8-21.5,1.7-32.7,2.5c0.3,2.7,0.5,5.6,0.8,8.5
			c0.3,3.1,0.7,6.2,0.8,9.3c0.1,5.7,0,11.4,0.1,17.1c0,2.1,0.3,4.2,0.7,6.3c0.6,3.4-1.4,6.4-4.7,6.8c-5.3,0.6-10.6,1.2-15.9,1.7
			c-3.4,0.3-4.3-0.5-4.8-3.7c-0.4-2.8-0.8-5.6-1.2-8.7c7.3-1.5,14.4-0.9,21.7-0.4c1.1-12.7,0.5-24.9-0.7-37.1
			c-5.1-0.9-9.8-1.5-14.6-2.5c-8.7-1.8-17.1-4.6-24.9-8.7c-2.6-1.4-5.2-3-7.4-5c-2.1-1.8-1.7-4.5-1.2-7c0.9-4.1,2.1-8.2,3.1-12.3
			c0.2-0.7,0.2-1.4,0.4-2.3c-3.7-1.3-7.3-2.5-10.9-3.8c-2.1-0.8-4.3-1.4-6.2-2.4c-2.7-1.5-2.9-2.4-1.5-5.2c0.9-1.9,2.1-3.6,3.3-5.6
			c3.9-0.4,7.1,2.4,11.3,3c2.9-6.6,5.8-13.2,8.7-19.9c-0.6-0.5-0.9-0.7-1.2-0.9c-3.8-1.8-3.6-1.7-2.2-5.8
			c3.3-9.9,8.3-18.9,13.6-27.8c1.3-2.1,2.8-4.1,4.5-6.4c-6.3-3.2-10.9-8.6-15.9-13.3c-7.6-7.1-12.7-15.8-15.3-25.7
			c-1.2-4.6-1.3-9.6-0.4-14.4c0.6-3,1.8-5.7,3.8-8c1.3-1.5,2.3-3,2.5-5.2c0.1-1.5,1.2-2.9,2.1-4.3c0.9-1.3,1.2-2.4,0.3-3.8
			c-1-1.5-2-3.1-3-4.7c-1.6-2.4-3.2-5-5-7.3c-2.5-3-5.1-5.8-7.8-8.5c-3.8-3.7-7.9-7.1-13.1-9.1C360.6,35.2,359.5,31.4,360.5,28.7z
			 M389.5,82.3c-2.1,2.7-2.9,5.3-3.1,8.1c-0.7,9.3,1.5,17.7,7,25.3c3.2,4.5,7,8.4,11,12.2c5.8,5.6,12,10.6,20,12.7
			c4.1,1.1,8.2,1.9,12.3,2.7c4.9,0.9,9.9,1.3,14.8,0.4c9.9-1.9,18.4-6.8,26.1-13.1c4.8-3.9,8.5-8.7,11-14.4
			c3.5-8.1,4.6-16.5,4.4-25.2c-0.1-6.6-3.2-12-6.7-17.6c-0.8,0.7-1.4,1.1-1.9,1.6c-2.8,2.7-6.3,3.9-10,4.4c-3.2,0.5-6.4,0.6-9.7,0.7
			c-5.1,0.1-10.2,0.1-15.3,0.2c-2.3,0.1-17.4,0.6-22.5,1.1c-8.8,0.9-17.4,2.7-26.2,3.8C396.9,85.8,392.6,86.7,389.5,82.3z
			 M488.4,139.1c-0.6,0.7-0.7,0.8-0.8,0.9c-0.2,0.6-0.4,1.1-0.7,1.7c-3.3,9-7.8,17.2-14.7,23.9c-3.1,3-6.2,2.1-7.7-1.8
			c-1.6-4-3.8-7.8-7.1-11c-2,2.3-4.1,4-7.1,2.4c-2,3.5-3.8,6.7-5.8,9.9c-1.2,2-1.4,4.2-1.2,6.5c0.5,9.7,1,19.4,1.5,29.1
			c0.2,3.7,0,7.5,0.1,11.2c0.2,9.7,0.5,19.4,0.7,29.1c0,1.3,0,2.7,0,4.3c1.7,0.2,3.2,0.5,4.6,0.5c5.5-0.2,11-0.1,16.4-0.8
			c13-1.6,25.4-5.1,36.4-12.5c3.7-2.5,7.3-5.1,9.5-9.3c1.1-2.2,1.8-4.3,0.9-6.7c-1.2-3.5-2.3-7.1-3.5-10.6
			c-4.4-13.5-8.8-27-13.1-40.5C494,156.8,491.3,148.2,488.4,139.1z M419,147.8c-0.6,1.6-1.2,2.8-1.6,4c-1.4,5-2.6,10.1-3.9,15.2
			c-2,7.5-3.9,15.1-6.1,22.6c-3.8,13.3-7.6,26.5-11.6,39.8c-0.6,2,0,3.2,1.8,3.8c7,2.5,13.4,6.5,20.8,8.2c7,1.6,14,3.1,21.5,3.4
			c0-3.6-0.3-6.9,0.1-10.2c1.2-9.8,0.6-19.7,0.1-29.5c-0.4-7.1-1.3-14.1-1.3-21.2c0-3.6-0.4-7.2-0.8-10.8c-0.2-1.2-0.8-2.6-1.7-3.5
			c-6-6.1-12.2-12.1-16.2-19.9C419.8,149.1,419.5,148.6,419,147.8z M396.1,65.7c5.2-1.5,10.3-3.2,15.4-4.4c7-1.6,14.1-3.1,21.2-4.1
			c6.5-0.9,13.1-1.1,19.6-1.7c8.7-0.8,17.4-1.1,26.3,1.4c0.5-3,0.9-5.9,1.4-9.1c-1.3-0.2-2.4-0.3-3.4-0.4c-3.5-0.5-7.1-1.1-10.6-1.6
			c-4.3-0.6-8.6-1.3-12.9-1.4c-7.2-0.2-14.3,0.1-21.5,1.5c-7.8,1.5-15.6,2.9-23.1,5.5c-2.3,0.8-4.8,1.3-7,2.3
			c-3.5,1.5-7.5,1.9-10.4,4.6C392.8,60.9,394.5,63.4,396.1,65.7z M457.2,146.8c3.4,4.7,6.7,9.2,10.2,14.2c6.4-8.8,14-16.7,14.5-29
			C474.4,139,466.1,143.3,457.2,146.8z M445.8,148c-8.1-0.1-16.1-1.6-24.3-4c3.2,9.5,9.5,15.9,16.3,22.1
			C440.6,159.9,443.2,154.1,445.8,148z M509.2,156.8c-6.1-11.8-15.6-23.6-20.7-25.8c3.9,10.5,7.8,21.1,11.8,32
			C503.2,161,506.3,158.9,509.2,156.8z M406.1,179c2.9-6.8,8.2-26.5,8.5-31.7c-3.4,3.4-12.3,21.7-14.5,30.1
			C402.2,177.9,404.2,178.5,406.1,179z"/>
		<path d="M208.8,105.4c-2.2-1.2-4-2.5-6.1-3.4c-3.6-1.6-6.3-4.3-9-7c-1.5-1.5-3.2-2.8-4.8-4.1c-1.6-1.3-3.4-2.6-5-3.9
			c-3.2-2.5-4.4-5.6-3-9.7c6.1-1.3,10.5-5.6,15.4-9.2c3-2.2,4.6-5.1,5.1-8.7c0.4-2.7,0.9-5.4,1.5-8.1c0.1-0.7,0.5-1.4,0.9-2.3
			c0.6,0.3,1.1,0.5,1.6,0.8c2.5,1.5,5.1,1.9,8.1,1.7c13.9-0.7,25.7-6.6,36.7-14.4c1.3-0.9,2.3-2.2,3.5-3.4c0.9-0.8,1.8-1.6,2.7-2.3
			c2.4,1.7,4.4,3.4,6.6,4.8c6.8,4.1,14.4,4.8,22,4.3c6.4-0.3,12.5-1.9,18.4-4.6c3.5-1.6,3.5-1.6,6.1,1.4c-1.5,8.4-3,16.8-4.3,25.3
			c-0.8,4.9-1.2,9.9-1.8,14.8c-0.2,2,0.5,3.5,2.1,4.9c4,3.4,7.8,7.1,9.5,12.2c1.8,5.2,2.8,10.6,2.7,16.1c-0.2,11-3.9,20.9-10.6,29.6
			c-0.2,0.3-0.3,0.7-0.6,1.3c1.2,1.7,2.4,3.6,3.9,5.2c2.9,3.1,4.3,6.9,5.5,10.9c1.6,5,3.5,9.9,5.3,14.8c0.2,0.6,0.4,1.2,0.7,1.7
			c0.8,1.7,0.5,2.8-1.4,3.4c-1.6,0.6-3.1,1.4-4.8,2.3c2.3,8.4,4.5,16.5,6.9,25.1c1.2-0.8,2.3-1.5,3.4-2.2c2.2-1.4,3.6-0.8,4.3,1.8
			c0.1,0.2,0,0.5,0.1,0.7c1.3,5,1.2,5-3.3,7.5c-2.7,1.5-5.2,3.3-8.1,5.1c1.6,6.2,3.5,12.3,4.8,18.5c0.6,2.7,0.1,5.6-0.1,8.4
			c-0.1,0.7-0.9,1.5-1.6,2c-2.3,1.6-4.7,3.2-7.2,4.6c-4.3,2.5-8.5,5.2-13,7.1c-4.1,1.7-8.5,2.5-12.8,3.6c-0.6,0.2-1.2,0.3-2,0.6
			c-0.3,10.2-0.6,20.4-1,31c1.9-0.1,3.7-0.2,5.5-0.4c3.3-0.5,6.6-1.1,9.9-1.7c0.7-0.1,1.3-0.5,1.9-0.7c2-0.7,3.4,0.3,3.4,2.4
			c0,2.7,0.1,5.3,0.3,8c0.1,1.9-0.7,2.6-2.6,2.5c-2.7-0.2-5.4-0.3-8.1-0.1c-4,0.3-7.9,0.9-11.9,1.2c-2.4,0.2-3.4-0.5-3.4-2.8
			c0-2.8,0.5-5.7,0.8-8.5c1.2-10,1.3-20.1,1.3-30.5c-12.3,0.9-24.3-0.4-36.6-3c-0.5,3.9-1,7.5-1.6,11.2c-1,6.8-2.1,13.5-3,20.3
			c-0.2,1.7,0.1,3.4,0.1,5.1c0,2.2-0.9,3.4-3.2,3.9c-2.1,0.4-4,1.1-6.2,0.5c-1-0.3-2.2,0.1-3.3,0.1c-3.4-0.1-6.7-0.2-10.1-0.5
			c-3-0.4-4.8-2.4-5.2-5.3c-0.2-1.8-0.5-3.7-0.5-5.6c0-1.4,0.8-2.3,2.4-2.2c3.6,0.4,7.1,0.7,10.7,1.2c3.7,0.5,7.3,1.3,11.1,2
			c1.7-2.9,4.7-25.8,4.7-31c-3.2-0.9-6.3-2-9.6-2.6c-5.7-1-10.5-3.9-15.4-6.5c-2.4-1.3-4.7-2.9-6.8-4.5c-2.4-1.9-2.3-2.6-1.3-5.4
			c1.2-3.6,2.1-7.4,3.2-11.5c-2.8-1.2-5.7-2.3-8.5-3.6c-2-0.9-4-2-5.8-3.4c-2-1.6-1.7-2.8,0.5-4.3c0.8-0.5,1.7-1.1,2.2-1.9
			c1.2-1.7,2.5-2.3,4.4-1.3c1.3,0.6,2.7,1,4.5,1.7c2.6-7.6,5.3-15.2,7.9-22.7c-0.9-0.9-1.8-1.6-2.4-2.5c-0.4-0.5-0.6-1.5-0.4-2
			c4.4-11.9,8.2-24,14.9-34.9c0.4-0.6,0.6-1.3,0.9-2c-2.6-1.7-5.1-3.3-7.7-4.8c-4.9-3-8.9-6.9-11.8-11.8c-3.6-6.2-5.7-13-4.1-20.4
			C207.9,112,208.3,108.9,208.8,105.4z M210.9,114.7c-1.4,7-0.7,13.3,2.8,18.9c4.2,6.6,10.2,11.1,17.3,14.2c4.1,1.8,8.1,4.2,12.4,5
			c7,1.4,14.3,2.2,21.5,2.3c12.5,0.3,23.5-4.1,33.3-12c7.1-5.8,11.8-13.1,14.6-21.6c2.6-7.9,2.7-15.8,0.4-23.8
			c-1-3.5-2.8-6.3-5.6-8.7c-5.4,5.8-12.4,8-19.7,9.1c-8.8,1.3-17.8,2-26.7,2.6c-6.5,0.5-12.7,2.1-18.9,3.9c-6.1,1.9-11.5,5.4-17,8.5
			C221,115.5,216.4,117.9,210.9,114.7z M303.6,160.2c-3.2,8.7-8.6,15.6-16.1,21c-0.6-0.4-1.2-1-1.6-0.9c-2.6,0.6-3.1-1.2-3.8-3
			c-0.7-2-1.3-4-2.1-6c-1.5-3.5-3.7-6.3-7-9c-1,1.1-1.5,2.2-2.4,2.8c-1.1,0.8-2.6,1.8-3.6,1.6c-3-0.8-4,0.9-5.1,3
			c-1.3,2.5-2.7,5.1-3.9,7.6c-0.3,0.6-0.5,1.4-0.6,2.1c-0.4,9.4-0.9,18.8-1.3,28.3c-0.3,9.7-0.5,19.4-0.8,29.1
			c-0.1,3.1-0.5,6.2-0.7,9.3c-0.2,2.8-0.5,5.6-0.7,8.7c8.4-0.5,16,1.3,23.9,1.1c15.2-0.4,28.7-5.2,41-14c1.7-1.2,2-2.6,1.6-4.5
			c-1.6-6.5-3.1-13.1-4.6-19.6c-2.4-10.3-4.8-20.6-7-30.9C306.9,178,305.3,169.1,303.6,160.2z M238,160.1
			c-10.2,27.1-18.5,53.8-24.5,81.1c10,8.4,22,9.9,33.9,12.1c0.2-1,0.4-1.7,0.5-2.4c0.7-8.4,1.4-16.8,2-25.3
			c0.4-5.5,0.5-10.9,0.8-16.4c0.2-4.3,0.5-8.7,0.7-13c0.3-5.3,0.7-10.7,1-16c0.1-2-0.3-3.7-1.7-5.1c-0.8-0.8-1.4-1.8-2.1-2.6
			C245.2,168.4,241.8,164.5,238,160.1z M300.2,72.1c-0.7-0.3-1.1-0.7-1.5-0.8c-4.4-0.5-8.9-1.2-13.3-1.3c-8.3-0.1-16.7-0.1-25,0.6
			c-6,0.5-12.1,1.5-17.9,3.3c-10.3,3.2-19.7,8.4-27.9,15.4c-2.8,2.4-5.4,5-8.2,7.6c2.3,1.3,4.1,2.3,5.9,3.3c0.5-0.7,0.9-1.2,1.2-1.8
			c5.8-8.6,14.2-13.3,24.1-15.7c9.2-2.3,18.3-4.4,27.7-5.7c11-1.5,21.8-1.2,32.8,0.8C298.8,75.9,299.5,74,300.2,72.1z M300.8,146.7
			c-7.4,6.4-16.1,10.1-25.4,12c3.6,5.6,7.1,10.8,10.4,15.8C292.6,166.4,298.1,157.3,300.8,146.7z M310.4,177.2
			c2.7-0.5,5.6-0.8,7.2-3.3c-0.4-1.3-0.8-2.4-1.1-3.4c-1.8-5.2-3.4-10.4-5.3-15.5c-1-2.7-1.9-5.5-4.9-7.3c-0.3,2-0.9,3.8-0.6,5.4
			C307.1,161.1,308.8,169.1,310.4,177.2z M261.4,159.6c-7.4-1.1-14.6-2.2-22.3-3.4c0.9,1.3,1.5,2.4,2.3,3.4
			c3.1,3.4,6.2,6.8,9.3,10.2c0.9,1,1.8,2.1,3,3.7C254.9,167.6,258.2,163.7,261.4,159.6z M235.8,154.2c-0.2-0.1-0.3-0.2-0.5-0.3
			c-1,1.1-2,2.1-2.8,3.2c-0.7,1-1,2.3-1.6,3.3c-2.9,4.6-5,9.4-6.5,14.6c-0.7,2.4-1.8,4.6-2.6,7c-0.9,2.7-1.6,5.4-2.5,8.1
			c1.3,0.6,2.4,1.1,3.8,1.8C227.3,179.2,231.5,166.7,235.8,154.2z"/>
		<path d="M637.5,252.9c-1.7,9.3,0.6,18.6-0.4,28.1c2.1,0,3.9,0,5.8,0c3.6,0,7.2-0.1,10.7-0.2c2.6-0.1,5.2-0.4,7.8-0.4
			c4.8,0,7,2.3,5.8,7c-0.3,1.2-0.6,2.3-0.9,3.6c-2.4,1.1-25.9,2.9-32.3,2.4c-1.9-1.8-1.2-4.2-1.1-6.4c0.2-5.3,0.6-10.7,0.7-16
			c0.1-6,0-12,0-18.2c-7.1,0-14.4,0-22.1,0c-0.2,1.5-0.4,3.1-0.5,4.6c-0.4,6.7-0.9,13.4-1.2,20.1c-0.1,2.1,0,4.2-0.1,6.4
			c-0.1,2.7-0.5,3.5-3.1,3.8c-7.4,0.9-14.8,1.7-22.2,2.3c-2.7,0.2-3.6-0.8-4.1-3.7c-0.3-1.8-0.6-3.6-0.9-6c8.7-0.6,17-1.1,25.8-1.7
			c0.5-8.5,1-17.1,1.5-25.9c-2.2-0.6-4-1.2-6-1.6c-7.8-1.7-15.4-4-22.6-7.4c-5.4-2.5-10.7-5.3-15.8-8.3c-2.1-1.2-3.6-3.4-5.3-5.2
			c-0.3-0.3-0.4-0.9-0.4-1.4c0.4-3.1,0.7-6.2,1.5-9.2c1.1-4.2,2.7-8.3,4-12.1c-3.4-2.1-6.8-3.9-9.9-6.1c-2.4-1.7-2.4-2.6-1-5.4
			c1.3-2.5,1.7-2.7,4.6-1.9c1.3,0.3,2.6,0.5,4.1,0.8c1.5-3.4,2.9-6.7,4.5-9.9c1.6-3.2,3.5-6.3,5-9.1c-0.2-0.8-0.2-1.1-0.4-1.2
			c-3.8-4.3-3.9-4.6-0.9-9.3c4.4-6.9,8.9-13.8,13.6-21c-1.3-1.1-3-2.7-4.7-4c-4.4-3.4-7.4-7.7-9.4-12.8c-2-5.1-3.7-10.3-3.8-15.9
			c-0.2-8.8,3.7-15.8,8.8-22.5c0.6-0.8,1.7-1.7,1.6-2.4c-0.5-3.6,2.2-5,4.4-7.1c-1.2-3.7-2.1-7.5-4.3-10.9c-2.2-3.3-4-6.9-6.4-10.1
			c-2.3-3.1-5.2-5.8-7.8-8.7c2-2.7,4.1-1.9,6.5-1.6c8.6,0.8,17-0.5,24.2-5.7c3.4-2.5,6.6-5.2,9.8-8.1c1.1-1,1.7-2.7,2.5-4.1
			c1.4-2.5,3.1-2.7,5.3-0.7c3.4,3.1,7.2,5.7,12.1,6.1c3.2,0.3,6.4,0.7,9.6,0.9c6.6,0.6,12.9-1.1,19-3.4c1.1-0.4,2.2-1.2,3.2-1.8
			c1-0.6,2.2-1,3,0.1c0.5,0.7,1,2.1,0.7,2.6c-1.2,1.9-0.2,3.4,0.4,5c1.9,4.6,4.8,8.3,9.1,11.1c3.9,2.5,7.8,5,12.5,5.5
			c2.7,0.3,5.4,0.1,8.2,0c2.1,0,4.3-0.2,5.3,2.6c-9.2,8.3-17,17.9-25,28.1c1.5,2.8,3,5.7,4.8,8.5c5.4,8.8,8.6,18.2,6.7,28.7
			c-1.6,8.8-5.4,16.5-12,22.7c-0.3,0.2-0.5,0.5-0.9,1c2.8,6.6,5.6,13.2,8.3,19.9c1.3,3.3,2.7,6.6,2.4,10.3c-1.3,0.3-2.3,0.5-3.9,0.9
			c1.7,8.3,4.7,16.2,6.3,24.7c1.8-0.9,3.3-1.8,4.9-2.5c2.3-1,3.2-0.6,4.1,1.8c0.5,1.2,1.2,2.2,1.5,3.4c0.3,1.2,2,3.2,0.4,4
			c-1.6,0.8-7.2,2.5-10.5,4.6c0.6,3,1.2,6.1,1.8,9.1c0.4,1.7,1.1,3.3,1.3,5c0.1,1.1-0.2,2.7-1,3.3c-3.9,3.3-7.1,7.7-12.1,9.6
			c-1,0.4-1.9,1.1-2.8,1.8c-2.8,2.1-5.8,3.6-9.3,4.4C650.2,249.1,644,251.1,637.5,252.9z M668.3,94.9c-2.6,3.5-5.4,5.6-9.3,6.5
			c-4.6,0.9-9.1,1-13.7,0.4c-6.5-0.9-13.1-1.2-19.6-2.3c-6-1.1-12.1-1.1-18.2-1.6c-0.7-0.1-1.5,0-2.2,0.1
			c-8.2,0.7-16.4,1.1-24.5-0.8c-2-0.5-3.4-1.4-4.6-3c-0.4-0.6-0.8-1.1-1.4-1.9c-2,3.8-4,7.2-5.6,10.8c-2,4.3-2.7,8.8-2,13.5
			c1.4,9.9,5.7,18.1,14.2,24c8.1,5.6,16,11.3,26.1,13.1c7.6,1.4,15.1,3,22.8,2.3c10.4-1,20.2-3.8,29.2-9.5
			c9.8-6.2,14.3-15.4,16-26.2C677,110.8,673.6,102.7,668.3,94.9z M660.9,160.8c-1.7,2.9-2.9,5.9-4.9,8.3c-3.8,4.6-8.4,8.4-13.6,11.4
			c-2.9,1.7-5.6,3.8-9.1,4.2c-2.1,0.2-3.4-0.4-3.9-2.5c-0.3-1.4-0.4-3-0.2-4.5c0.7-5.4-2-9.7-4-14.6c-2,3.7-2.3,3.8-7.9,2.9
			c-0.6,2.1-1.2,4.2-1.8,6.4c-0.8,3-1.1,6.3-2.6,8.9c-1.1,1.9-1.8,3.6-2,5.7c-0.4,5.8-0.9,11.6-1.4,17.5
			c-0.9,10.8-1.8,21.6-2.8,32.3c-0.2,1.9-0.7,3.8-1.1,6.2c5,0.7,10.1,1.7,15.3,2.1c14.2,1,27.9-1.1,40.7-7.3
			c4.2-2.1,8.3-4.6,12.2-7.2c3.2-2.1,3.9-5.3,2.9-8.9c-0.9-3-1.7-6-2.5-9c-2.1-7.7-4.2-15.4-6.4-23c-1-3.3-2.5-6.5-3.3-9.8
			c-0.9-3.5-1.1-7.1-1.8-10.6C662.3,166.4,661.5,163.6,660.9,160.8z M601.3,241.9c2.7-20.4,2.7-40.7,4.4-60.4
			c-10.8-5.9-14-16.5-18.5-26.7c-1,2.2-1.7,3.7-2.3,5.3c-5.6,13.9-11.2,27.7-16.6,41.6c-2.7,7.1-4.9,14.3-7.3,21.6
			c-0.3,1-0.3,2.7,0.3,3.4c3.7,4,16.1,8.5,17.8,9.1C585.8,238.6,593.6,240.3,601.3,241.9z M665.6,78.4c-0.3-0.4-0.4-0.7-0.6-0.8
			c-0.5-0.4-1-0.7-1.6-1c-9.7-5.2-20.1-8.7-31.1-9.9c-6-0.7-12.2-0.1-18.2,0.2c-9.7,0.4-19.3,1.7-28.5,5c-1.6,0.6-3,1.5-4.6,2.4
			c0.6,1.8,1,3.2,1.6,4.8c12.9-5.5,26.2-6.8,39.9-6.2c13.8,0.6,26.4,5.4,38.8,11.1C662.7,81.9,664.2,80.1,665.6,78.4z M657.2,152.7
			c-9.6,4.4-19.5,6.5-30,6.6c2.6,6.3,5.8,11.9,5.9,19C643.3,171.4,652.2,164,657.2,152.7z M606.2,178.5c0.8-1.7,1.7-3,1.9-4.4
			c0.6-5.6,1.7-11,5.9-15.7c-8.5-1.8-16.8-3-23.9-7.8C592.8,161.4,596.9,171.3,606.2,178.5z M574.8,176.6c2.1-5.4,4.1-10,5.8-14.6
			c1.6-4.5,4.4-8.7,5-13.6c-6.3,6.4-10.8,13.9-15.1,21.6c-0.3,0.5-0.2,1.6,0.2,2C571.7,173.4,573.1,174.7,574.8,176.6z M667.6,176.6
			c4-1.5,4.3-2,3.3-5.2c-0.2-0.7-0.5-1.4-0.8-2.1c-1.1-2.5-2.2-5-3.2-7.5c-1.6-3.9-3.1-7.8-4.7-11.7c-0.1-0.3-0.5-0.4-0.8-0.5
			c-0.2,0.1-0.5,0.2-0.7,0.3C663,158.7,666.3,167.3,667.6,176.6z"/>
		<path d="M795.5,120.9c-1.7,0-2.8-1-2.9-2.7c-0.1-1.5,1.7-3.2,3.4-3.2c1.4,0,3.3,1.8,3.2,3.1C799.2,119.8,797.7,120.9,795.5,120.9z
			"/>
		<path d="M768.5,118.9c3.5-1.1,5.1-0.4,5.5,2c0.3,1.5-0.3,2.6-1.7,3.3c-1.7,0.8-2.7-0.3-3.3-1.5
			C768.5,121.6,768.6,120.3,768.5,118.9z"/>
		<path d="M793.6,200.9c0.1,2.5-2.7,5.4-5.2,5.4c-2.6,0-5.2-2.3-5.4-4.8c-0.2-3.1,2.4-6.4,4.9-6.4
			C790,195.3,793.5,198.9,793.6,200.9z"/>
		<path d="M794,233.5c0.1,2.5-3.2,5.7-5.8,5.9c-2.2,0.1-4.3-2-4.4-4.7c-0.2-2.9,2.6-6.4,5.2-6.4C791,228.2,794,231.3,794,233.5z"/>
		<path d="M94.1,123.8c-1.1,1.9-2.2,4-5,3.5c-1.3-0.2-2.4-2.5-2.2-3.9c0.3-1.8,1.2-3,3.1-3.3C92.1,119.6,92.8,120.3,94.1,123.8z"/>
		<path d="M60.4,119.2c0-1.9,1.5-3.7,3-3.6c1.6,0.1,3.6,2.2,3.6,3.7c0,1.7-2.3,3.6-4.2,3.5C61.4,122.8,60.4,121.3,60.4,119.2z"/>
		<path d="M91.9,192.6c1.1,0.4,1.8,0.6,2.5,0.8c1.7,0.4,3.2,0.2,4.1-1.5c0.3-0.7,1-1.2,1.2-1.9c1.1-3,4.3-2.7,6.9-1.8
			c0.4,0.2,0.8,0.8,1,1.4c1.8,3.6,1.8,3.6,5.9,3.3c0.5,0,1,0.1,1.7,0.1c0.2,0.5,0.6,1.1,0.6,1.6c-0.4,5.9-0.8,11.8-1.5,17.7
			c-0.6,5.5-4.4,9-8.3,12.3c-0.5,0.5-1.9,0.7-2.3,0.4c-2.3-1.9-5.7-2-7.1-5.2c-1.1-2.6-3.1-4.8-4.1-7.4c-0.9-2.5-1-5.3-1.1-8
			c-0.2-3.3-0.1-6.7,0-10C91.4,193.9,91.7,193.4,91.9,192.6z M94.8,198.2c0.2,3,0.8,6.1,0.6,9.1c-0.4,5.4,2.7,9,5.5,13
			c4.2-3.3,7.4-6,7.9-10.9c0.3-2.7,1.3-9.1,1.6-10.7c-3.4-0.6-6.4-1.1-8.1-3.7C99.8,196,97.6,197,94.8,198.2z"/>
		<path d="M71.2,207.3c0.9-0.1,1.8,0.3,2.5,1.3c0.4,0.6,0.9,1.2,1.3,1.8c1.3,2.2,1,3.7-0.8,5.3c-1.6,1.4-3.6,1.5-5.4,0.1
			c-2.2-1.6-2.6-3.9-1.6-6.5C67.8,208,69.1,207.3,71.2,207.3z"/>
		<path d="M64.4,236.6c0-2.5,1.8-4.7,3.8-4.8c2.4-0.1,5.6,3.1,5.6,5.4c0,2.1-2.8,4.8-4.9,4.6C66,241.5,64.2,238.8,64.4,236.6z"/>
		<path d="M76.8,186.7c0,3.4-4.2,6.1-6.9,5c-2.5-1-3.7-3.2-4.1-5.8c-0.4-2.3,1.1-3.7,2.8-4.9c1.3-0.9,2.8-1.2,4.2-0.3
			C75.2,182.2,76.3,184.6,76.8,186.7z"/>
		<path d="M426.7,117.2c-3.1,0-4.1-1-4.6-4.4c-0.3-2.1,1.2-4.9,2.9-5.4c1.9-0.6,4.1,1.2,5.2,4.3c0.8,2.2-0.1,4.7-2,5.3
			C427.6,117.1,427,117.2,426.7,117.2z"/>
		<path d="M450.3,111.4c-0.1-2.5,2.1-4.8,4.4-5.2c2-0.4,4.6,3.3,4.6,5.5c0,1.9-1.7,3.7-3.5,3.7C452.4,115.6,450.4,114.1,450.3,111.4
			z"/>
		<path d="M467.6,184.3c0.6-2.2,3.9-0.3,4.8-2c0.7-1.4,1.3-3,2.1-4.4c1.9-3.2,3.8-3.8,7.5-2.8c2.8,0.8,5.5,2,8.7,1
			c1.9-0.6,4.3,1.6,4.6,3.7c1.1,7.4,0.8,14.7-1.5,21.7c-2.7,8.2-5.9,9.4-13.8,5.9c-3.9-1.7-6.1-4.9-7.4-8.9
			C471.3,195.3,466.9,186.5,467.6,184.3z M479.4,182.1c-3.1,1.6-2.9,5.6-6.1,6.5c-2.3,0.7,2,6.3,3,9.6c1.3,4.6,4.3,7.1,9.5,7.3
			c4.3-6.9,6.4-22.4,3.6-21.9C486.7,184,482.9,182.6,479.4,182.1z"/>
		<path d="M460.5,226.1c0,3-2.3,5.3-5.2,5.3c-2.8,0-5.1-2.5-5-5.4c0.1-2.3,2.8-5.3,5-5.3C457.6,220.6,460.5,223.6,460.5,226.1z"/>
		<path d="M452.9,206c-3.8-0.2-4-6.3-0.7-8.3c1.9-1.2,4.1-0.5,5.7,1.8C459.6,202,458.6,206.3,452.9,206z"/>
		<path d="M453,180.9c-2.6,0-5-2.3-4.9-4.6c0.1-2.4,2.9-5.4,5-5.3c2.1,0.1,4.7,2.9,4.6,5.1C457.6,178.9,455.6,180.9,453,180.9z"/>
		<path d="M272.4,129.5c0.1-2,0.4-3.5,2.2-4.3c1.7-0.7,2.9-0.4,3.8,1.1c0.6,1,0.9,2,1.3,3.1c0.8,2.2,0.3,3.4-1.9,4.4
			c-1.8,0.8-3.3,0.4-4.4-1.5C272.9,131.4,272.7,130.2,272.4,129.5z"/>
		<path d="M246.3,131.8c0-2.3,2-4.9,3.8-4.8c1.4,0.1,3.1,2.3,3.1,4.1c0.1,2.2-1.7,4.4-3.5,4.5C247.8,135.8,246.4,134.2,246.3,131.8z
			"/>
		<path d="M299,228.9c-8-4.2-12.9-10.6-14.4-19.6c-0.4-2.6-1-5.1-1.8-7.6c-0.4-1.4-0.6-2.6,0.4-3.8c5.1,0.8,7.7-2.1,8.4-7.5
			c1.5,0.3,3.1,0.4,4.6,0.9c1.9,0.7,3.5,1.4,5.6,0.5c1.8-0.7,5,2,6,4.6c1.6,4.3,1.3,8.8,1.5,13.3c0.3,5.5-1.2,10.4-4.3,15
			C303.4,227.2,300.8,226.9,299,228.9z M287.5,203.2c1.5,7.6,1.9,16.5,10.9,21c3.4-2,5.4-3.8,5.5-7.4c0.2-5.9,0-12.9,0-18.5
			c-2.7-0.6-7-1.4-9.1-1.9C292.6,198.5,290.4,200.6,287.5,203.2z"/>
		<path d="M268.5,211.6c-2.8,0-5.1-2.6-5.1-5.7c0.1-2.8,1.7-5.4,3.5-5.5c3.5-0.1,6.8,3,6.8,6.4C273.7,209.3,271.2,211.6,268.5,211.6
			z"/>
		<path d="M273.1,243.7c-0.1,2.1-2.2,3.8-4.4,3.4c-2.2-0.5-3.8-1.6-4.6-3.8c-0.8-2.3,0.4-4.1,1.4-5.9c0.2-0.4,1.3-0.7,1.9-0.5
			C270.7,237.5,273.1,240.6,273.1,243.7z"/>
		<path d="M631.3,123.3c-0.1-1.7,1.2-3.1,3-3.1c1.8,0,3.8,1.9,3.8,3.5c0,1.5-1.8,3.1-3.6,3.3C632.5,127.2,631.4,125.8,631.3,123.3z"
			/>
		<path d="M603.7,119.8c0-1.6,1.4-2.8,3.2-2.8c1.9,0,3.5,1.6,3.5,3.5c0,1.8-1.1,2.6-3.3,2.7C605,123.2,603.7,121.9,603.7,119.8z"/>
		<path d="M655.9,229.8c-1.8-0.2-3.3-0.9-4.2-2.6c-0.1-0.2-0.2-0.5-0.4-0.6c-8-5.7-9.8-14.6-12.1-23.3c-0.4-1.5-0.9-3-1.3-4.6
			c-0.1-0.5-0.1-1.3,0.2-1.6c0.3-0.3,1.1-0.3,1.7-0.2c1.4,0.2,2.9,1,4.3,0.7c2.5-0.4,4.4-2.2,5.1-4.5c0.8-2.5,2.2-2.9,4.5-2.8
			c2.5,0.2,5,0.1,7.5,0.2c3.3,0.1,5,2.4,4.6,5.7c-0.5,4.2-0.6,8.4-1.1,12.6c-0.8,6.8-2.5,13.4-6.8,19c-0.3,0.4-0.6,0.8-1,1.1
			C656.5,229.4,656.2,229.6,655.9,229.8z M642.8,202.3c1.8,8.5,3.9,16.5,10.9,22.4c3-2,3.8-5.3,4.6-8.3c0.7-2.6,0.9-5.4,1-8.1
			c0.2-3.2,0-6.3,0-9.1c-2.5-0.8-4.9-1.5-7.4-2.3C649.6,200.1,648.5,200.7,642.8,202.3z"/>
		<path d="M617.6,209.4c-2.9-0.1-4.9-1.8-5.6-4.7c-0.6-2.7,0.7-6.1,3-7c0.8-0.3,2.1-0.1,3,0.3c1.1,0.5,2,1.4,3,2.1
			c2.4,1.8,3.1,3.6,2.3,5.7C622.3,208.3,620.5,209.5,617.6,209.4z"/>
		<path d="M619.1,237.8c-2.6,0.1-5.4-2-6.2-4.5c-0.6-1.9,0-4,1.4-5.1c1.5-1.2,4.6-1.3,6.3-0.1c1,0.7,1.8,1.7,2.5,2.7
			C625.1,234.4,623.1,237.7,619.1,237.8z"/>
	</g>
</g>
</svg>
