<?xml version="1.0" encoding="utf-8"?>
<!-- Generator: Adobe Illustrator 19.1.0, SVG Export Plug-In . SVG Version: 6.00 Build 0)  -->
<svg version="1.1" id="Calque_1" xmlns="http://www.w3.org/2000/svg" xmlns:xlink="http://www.w3.org/1999/xlink" x="0px" y="0px"
	 viewBox="0 0 471.5 476.1" style="enable-background:new 0 0 471.5 476.1;" xml:space="preserve">
<style type="text/css">
	.st0{display:none;fill:#F7B5AC;}
	.st1{fill:#F7B5AC;}
	.st2{fill:#EB5C5F;}
	.st3{fill:#84B974;}
	.st4{fill:#010202;}
	.st5{fill:#AB7613;}
	.st6{fill:#C0BFBF;}
	.st7{fill:#6FA4C3;}
	.st8{fill:#1E1E1C;}
	.st9{fill:none;}
	.st10{fill:none;stroke:#EB5C5F;stroke-width:3;stroke-miterlimit:10;}
	.st11{fill:none;stroke:#6FA4C3;stroke-width:3;stroke-miterlimit:10;}
	.st12{fill:none;stroke:#84B974;stroke-width:3;stroke-miterlimit:10;}
	.st13{fill:none;stroke:#C0BFBF;stroke-width:3;stroke-miterlimit:10;}
	.st14{fill:none;stroke:#F7B5AC;stroke-width:3;stroke-miterlimit:10;}
</style>
<g>
	<path d="M241.7,253.2c1.6,0.8,2.2,1.7,1.9,3.1c-0.4,2.2-0.7,4.3-0.9,6.5c-0.6,6.5,0.4,12.7,3.6,18.6c0.8,1.5,1,3.4,1.7,5
		c0.3,0.8,1.1,1.5,1.8,2c2.7,2,5.2,4.2,5.7,7.8c0.3,2.4,1,4.9-0.7,7c-1.6,2.1-3.7,3.9-6.4,4.2c-0.7,0.1-1.5-1.2-2.4-2
		c1.9-1.1,3.4-1.9,4.7-2.9c2.7-2,2.9-6.5,0.4-8.9c-1-0.9-2.1-1.8-3-2.5c-0.9,2.1-1.6,4.2-2.6,6.3c-1.6,3.1-4.8,3.9-7.8,4.8
		c-0.5,0.1-1.6-0.6-1.7-1.1c-0.1-0.5,0.4-1.5,0.9-1.9c1.7-1.2,4-1.9,5.4-3.4c2.9-3.2,3.5-7.1,1.9-11.2c-1.1-2.8-2.5-5.4-3.4-8.3
		c-0.7-2.3-1.3-4.7-1.2-7.1c0.2-4.7,0.9-9.4,1.4-14.1C241.1,254.6,241.4,254,241.7,253.2"/>
	<path d="M208.6,302c-1.5-0.9-2.9-1.5-4-2.5c-5.1-4.5-5.2-10.4-0.3-15.3c1.8-1.9,2.5-1.7,3.1,0.5c0.1,0.5-0.3,1.2-0.6,1.7
		c-0.8,1.2-1.9,2.2-2.6,3.5c-1.4,2.6-0.5,4.5,1.9,6.5c1,0.8,2.2,1.5,3.4,2.1c1.2,0.6,1.1,1.6,0.8,2.4
		C210,301.3,209.2,301.6,208.6,302"/>
	<path d="M191.7,335.5c-2.9-3.6-9.3-14.9-9.9-17.7c-0.1-0.2,0.6-1.2,0.9-1.2c3,0.2,3.6,0,6.6,0.1c2.9,0.1,5.9-0.2,8.9-0.5
		c5.1-0.6,10.1-1.8,15.3-1.3c2.5,0.3,4.9,0.7,7.3,1.9c3.6,1.9,7.7,1.7,11.7,1.4c4.4-0.4,8.7-0.6,13.1,1.1c3.7,1.4,7.7,2,11.6,3
		c2.1,0.5,4.4,1.5,6.5,2.2c2.4,0.8,3.2,3.8,2,6c-4.5,8.5-12.2,15.3-20.4,19.3c-7.1,3.5-25.8,5-39.6-1.7
		C199.6,345.1,194.4,339,191.7,335.5 M187.1,323.9c-0.8,0,5.2,8.1,7.6,10.9c1.7,2,5.9,6.2,8.1,7.5c9.7,7.3,18.7,6.7,22.9,7.1
		c7,0.6,14,0.1,20.3-3.8c4.4-2.7,8.7-5.4,12.1-9.4c0.7-0.9,3.7-3.9,3-4c-0.4,0-4.4,2.9-5.8,3.9c-5.8,3.9-12.5,5.2-19.2,6.2
		c-0.6,0.1-12-0.2-15.7-0.9c-4.3-0.8-8.8-1.9-12.7-3.9C201.7,334.5,187.8,323.9,187.1,323.9 M188.9,322.2c-0.1,0.2,5.2,3.3,5.8,3.7
		c3.4,2.2,6.8,4.4,10.3,6.5c6.4,3.9,13.5,5.7,20.9,6.2c7.6,0.5,15.2,0,22.3-3.1c2.4-1,5.5-2.5,7.8-3.7
		C235,331.6,209,328.5,188.9,322.2 M188,319.6c-1.8,0.7,50.9,9.2,72.3,9.2c1.2-0.9,0.7-1.5-0.2-1.8c-1.2-0.4-2.5-0.6-3.7-0.9
		c-3.5-0.9-7-1.8-10.4-2.9c-3.9-1.2-7.9-2-12-1.4c-5,0.7-10,0.9-14.4-1.7c-3.7-2.1-7.5-1.8-11.3-1.7
		C203.2,318.6,194,319.6,188,319.6"/>
	<path d="M203.4,227.4c-3.5-0.4-7-0.9-10.4-1.3c-4.4-0.6-8.9-1.1-13.3-1.7c-2.5-0.3-4.9-0.9-7.3-1.2c-4-0.4-7.9,0-11.7,1.2
		c-0.6,0.2-1.2,0.4-1.8,0.5c-1.4,0.4-2.7,0.5-3.4-1.1c-0.7-1.5,0-3.2,1.4-3.9c4.8-2.4,10-3.5,15.1-4.9c6.4-1.7,12.9-1.7,19.3-1.5
		c2.7,0.1,5.3,1,8,1.6c2,0.4,4.1,0.8,6.1,1.4c1.6,0.5,3.1,1.3,4.5,2.1c0.9,0.5,1.8,1,2.4,1.8c1.4,1.9,0,4.2-1.5,5.1
		C208.5,226.9,206.1,227.7,203.4,227.4 M208.7,222.6c0-0.3,0-0.7,0-1c-0.5,0-1.1,0.1-1.6,0c-0.6-0.1-3.7-1.1-9.3-2.6
		c-5.6-1.5-13.2-1.5-19.9-1.1c-1.5,0.1-3,0.7-5.1,1.2c1.2,0.3,1.8,0.6,2.4,0.6c5.7,0.8,11.3,1.7,17,2.3c4.5,0.5,9.1,0.8,13.6,1.1
		C206.7,223.3,207.7,222.9,208.7,222.6"/>
	<path d="M266,226.6c9.8,0.9,18.9,0.5,27.5,3.8c3.3,1.3,6.4,2.8,8.1,6.2c0.7,1.4,1.9,2.6,2.6,4c0.3,0.6,0.4,1.8,0,2.3
		c-0.4,0.5-1.7,0.9-2.3,0.7c-7.5-3.2-15.3-3.6-23.3-3.8c-4.2-0.1-8.5-0.7-12.6-2c-5.7-1.8-5.3-4.4-3-8.8
		C263.8,227.7,265.4,227.1,266,226.6 M264.4,233c0.1,1.9,2.3,1.5,3.4,1.6c6,0.5,11.9,0.8,17.9,1.3c2.1,0.2,4.2,0.4,6.3,0.7
		c2.1,0.3,4.2,0.7,6.2,1.1c-0.3-0.8-0.7-1.2-1.2-1.5c-5.8-3.5-12.4-4.4-19-5.1c-3.1-0.3-6.1-0.5-9.2-0.8
		C267.6,230.4,264.3,231.1,264.4,233"/>
	<path d="M206.6,248.5c0.4,1.8-1,1.9-2.1,2.2c-1.8,0.4-3.6,0.8-5.5,0.8c-5.5,0-10.9,0.6-16.4-0.5c-4.4-0.9-8.5-2.1-12.5-3.9
		c-3.3-1.5-6.3-3.5-9.7-4.9c-1.7-0.7-3.8-0.7-5.7-0.8c-1.5-0.1-3.1,0.4-4.6,0.2c-0.8-0.1-1.7-1.2-2.1-2c-0.4-0.9,4.5-3.6,5.8-4
		c0.8-0.2,1.6-0.4,2.4-0.7c5.8-1.8,11.7-3.1,17.7-3.6c7.3-0.6,14.5,0.2,21.1,3.4c4.3,2.1,8.5,4.8,10.3,9.8
		C206,245.7,206.2,247.1,206.6,248.5 M179.5,234.8c-1.8,0-2.9,1.1-3.4,3.8c-0.5,2.7-0.9,6.5,1.6,7.2c3.2,0.9,8.1,1.7,11.4,1.8
		c4.5-2.4,3.1-7,2.6-8.4c-0.6-1.4-3.8-3.2-5.1-3.3C184,235.6,181.4,234.8,179.5,234.8 M172.6,244.3c0-1.8-0.2-3.3,0-4.8
		c0.2-1.5,0.8-3,1.2-4.5c-4.3,0.8-8.8,1.7-13.3,2.5c0,0.2,0,0.4,0,0.5C164.5,240.1,168.4,242.1,172.6,244.3 M192.6,248
		c3.3-0.2,6.7-0.4,10-0.6l0.4-0.7c-0.6-1-1.1-2.2-1.9-3c-2.1-2.2-4.2-4.5-7.6-5.4C195.1,241.8,196.3,245,192.6,248"/>
	<path d="M180.8,241.1c0-1.6,1-2.5,2.7-2.5c1.4,0,3.5,2,3.5,3.2c-0.1,1.6-1.6,3.3-3.1,3.3C182.1,245.3,180.8,243.6,180.8,241.1"/>
	<path d="M304.5,258c0,1.4,0.3,1.9,0,3.2c-0.1,0.5-1.7,1.2-3.2,1c-2-0.4-4.2,0.3-6.3,0.3c-3,0-6-0.3-9-0.5c-0.6,0-1.1-0.3-1.7-0.3
		c-4.9-0.7-9.9-1.1-14.8-2.1c-3.3-0.7-6.4-2.3-9.6-3.5c-1.6-0.6-3.3-1.1-4.9-1.8c-0.5-0.2-1.3-0.9-1.2-1.2c0.2-0.9,0.6-2,1.2-2.4
		c4.3-2.5,8.6-5,13.6-6c3-0.6,5.9-1.7,8.9-1.9c4.5-0.3,8.7,1,12.8,3.1c4.2,2.2,8.3,4.4,11.6,7.9C302.8,254.5,304.7,258,304.5,258
		 M278.1,246.4c-1.7-0.2-3.1,0.3-4.3,1.6c-1.4,1.5-2.2,3.2-1.6,5c0.6,1.5,1.8,3.2,3.2,3.9c1.5,0.8,3.5,0.5,5.2,1
		c2.8,0.8,4.1-0.9,5.5-2.8c0.9-1.2,2.2-2.5,1.4-4.1c-0.9-1.9-2.3-3.7-4.7-4.1C281.3,246.6,279.7,246.5,278.1,246.4 M287.8,258.5
		h13.4c-2.4-4.8-7-5.9-10.7-8.9C291.2,253.3,290.3,255.9,287.8,258.5 M259.3,251.9c4,1.6,7.5,3,11.1,4.4c0.2-0.2,0.3-0.3,0.5-0.5
		c-2-2.4-1.5-5-1-8.1C266.2,249.1,263,250.4,259.3,251.9"/>
	<path d="M276.9,252.1c0-1.3,1.3-2.7,2.6-2.8c1.2,0,2.9,1.2,2.9,3.3c0,1.5-1.9,2.2-2.9,2.2C278.2,254.8,277,253.4,276.9,252.1"/>
	<path d="M471.5,122.2c0-3.7-0.1-7.5-0.2-11.2c-0.1-2.9-0.1-5.8-0.2-8.7C471,98.8,471,95.4,471,92c-0.1-5.7-0.1-11.7-0.3-17.5
		c-0.1-3.4-0.2-6.9-0.4-10.2c-0.1-2.6-0.2-5.1-0.3-7.7c-0.3-8.6-0.6-17.8-0.8-26.8c-0.1-4.9-0.1-10,0-14.9l0-2.3
		c0-0.2,0.1-0.6,0.2-0.9c0.1-0.5,0.3-1.1,0.3-1.7c0-0.3,0-0.6,0-0.9c0-1.5,0.1-3.2-1-4.3c-1.7-1.7-4.1-2.6-6.8-2.4
		c-0.8,0-1.6,0.1-2.3,0.1c-2,0.1-4,0.2-5.9,0.2c-4.6,0-9.2-0.2-13.7-0.3l-4.2-0.1c-1.8,0-3.6-0.1-5.4-0.2C427,2.1,423.6,2,420.2,2
		c-6.2,0-12.4,0-18.5,0c-2.6,0-5.2,0-7.8,0l-0.4,0c-0.3,0-0.6,0-0.9,0c-1.7-0.1-3.3-0.2-5-0.3c-3.6-0.2-7.4-0.4-11.1-0.5
		c-2.1,0-4.2,0.1-6.3,0.1c-2,0.1-4.1,0.2-6.1,0.1c-2,0-4-0.2-5.9-0.3c-2.1-0.2-4.2-0.3-6.4-0.4c-2.5,0-5,0.1-7.4,0.2
		c-2.4,0.1-4.9,0.2-7.3,0.2c-2.2,0-4.4-0.2-6.5-0.3c-2.3-0.2-4.6-0.3-6.9-0.3c-6.3,0-12.6,0.2-18.6,0.4c-2.2,0.1-4.5,0.2-6.7,0.3
		c-3.4,0.2-6.9,0.4-10.3,0.4c-6.3-0.1-12.8,0-19,0c-13.2,0.1-26.9,0.2-40.3-0.8c-3.6-0.3-7.3-0.3-10.9-0.4c-1.2,0-2.5,0-3.7-0.1
		c-0.6,0-1.1,0.1-1.6,0.2c-0.4,0.1-0.8,0.1-1.1,0.1c-8.9-0.1-17.8-0.2-26.8-0.3c-1.2,0-2.4-0.1-3.6-0.1c-1.6-0.1-3.3-0.1-5-0.1
		l-1.1,0c-8.1,0-16.5,0.1-24.8,0.3c-3.1,0.1-6.3,0.2-9.3,0.4c-3.4,0.2-6.8,0.3-10.3,0.4c-3.1,0-6.3-0.1-9.4-0.2
		c-1.7-0.1-3.4-0.1-5.1-0.2l-3.2-0.1c-5.6-0.1-11.3-0.3-16.9-0.3c-3.3,0-6.6,0-10,0c-3.3,0-6.5,0-9.8,0c-3.5,0-6.9-0.1-10.4-0.2
		C61.3,0.1,56.4,0,51.6,0c-5.8,0-11.7,0.1-17.4,0.3c-1.8,0-3.5,0.1-5.3,0.1C24,0.5,19.1,0.6,14.4,0.8c-0.7,0-1.5,0.1-2.1,0.2L12,1
		C9.8,1.4,7.6,1.8,5.2,2.2L2.6,2.6C1.9,2.7,1.3,3.4,1.4,4.2c0,0.4,0.1,0.9,0.1,1.3c0.1,0.9,0.2,1.9,0.1,2.8
		c-0.2,3.1-0.4,6.2-0.6,9.3c-0.2,3.5-0.5,7.2-0.6,10.8c-0.1,1.3,0,2.6,0,3.8c0,1.1,0.1,2.1,0.1,3.2c0,1.4-0.1,2.9-0.2,4.3
		c-0.1,2-0.3,4-0.3,6.1c0,2.2,0.2,4.4,0.3,6.6c0.1,1.5,0.2,3,0.3,4.4c0,0.5-0.1,1-0.2,1.6c-0.1,0.6-0.2,1.3-0.2,2
		c0,1.4,0.1,2.8,0.2,4.2c0.1,1.8,0.2,3.6,0.2,5.4c0,4.2-0.1,8.5-0.2,12.7c-0.1,3.2-0.1,6.4-0.2,9.6c0,0.8,0.1,1.5,0.2,2.2
		c0.1,0.6,0.2,1.2,0.2,1.7c0,1.5,0,2.9-0.1,4.4c0,1.8-0.1,3.7-0.1,5.5c0,2.8,0.1,5.6,0.2,8.5C0.8,118.6,1,122.8,1,127
		c0,5.4-0.1,10.9-0.2,16.2c-0.1,6-0.2,12.1-0.2,18.2c0,2.3,0,4.6,0,6.9c0,7.7-0.1,15.6,0.7,23.4c0.5,5.6,0.5,11.4,0.5,17
		c0,1.6,0,3.2,0,4.8c0,2.8-0.1,5.7-0.2,8.5c-0.1,2.5-0.1,5-0.2,7.5c0,1.7,0.1,3.5,0.2,5.2c0.1,1.6,0.2,3.3,0.2,4.9
		c0,1.9-0.1,3.9-0.2,5.8c-0.1,1.7-0.2,3.4-0.2,5.2c0,3.8,0,7.7,0,11.4c0,1.6,0,3.2,0,4.8l0,3.6c0,2.6,0,5.2,0,7.9
		c0,5.1-0.1,10.2-0.1,15.3c-0.1,8.7-0.2,17.3-0.2,26c0,1.3,0.1,2.5,0.2,3.7c0.1,1.2,0.2,2.4,0.2,3.5c0,2.1-0.1,4.3-0.2,6.4
		c-0.1,2-0.1,4.2-0.2,6.2c-0.1,6.4,0,11.2,0.1,15.8c0.1,2.9,0.2,5.8,0.3,8.7c0.2,3.8,0.3,7.7,0.4,11.5c0,3.6-0.1,7.3-0.2,10.9
		c-0.1,2.8-0.2,5.6-0.2,8.4c0,5.7,0,11.5,0.2,17.3c0.1,3.8,0.3,7.5,0.4,11.3c0.2,5.3,0.4,10.8,0.5,16.2c0.1,3.9-0.1,7.9-0.2,11.8
		c-0.1,2.4-0.1,4.7-0.2,7.1c0,3.3,0,6.7,0,9.9c0,1.4,0,2.9,0,4.3c0,0.6,0.4,1.2,0.9,1.4c0.5,0.2,0.9,0.4,1.3,0.6
		c0.9,0.5,1.8,0.9,2.8,1c3,0.2,6.1,0.1,9,0.1c1.3,0,2.6-0.1,3.9-0.2c0.9-0.1,1.8-0.1,2.7-0.2c4-0.2,7.4-0.3,10.6-0.4
		c1,0,1.9,0,2.9,0c1.3,0,2.6,0,3.9-0.1c3.5-0.2,7-0.4,10.4-0.6c3.3-0.2,6.6-0.4,9.9-0.5c0.9,0,1.7,0,2.7,0c0.9,0,1.9,0,2.9,0
		c1.5-0.1,3.1-0.2,4.6-0.3c2.2-0.2,4.6-0.3,6.8-0.4c1.4,0,2.8,0.1,4.3,0.2c1.5,0.1,3.1,0.2,4.6,0.2c3-0.1,6-0.2,9-0.4
		c2.2-0.1,4.4-0.2,6.7-0.3c0.8,0,1.5,0,2.3,0.1c0.9,0.1,1.8,0.1,2.7,0.1c1.3,0,2.7-0.2,4-0.3c1.9-0.2,3.7-0.3,5.5-0.3
		c4.3,0.1,8.6,0.3,12.8,0.4c1.9,0.1,3.9,0.2,5.8,0.2c0.3,0,0.7,0,1.1,0c0.4,0,0.8,0,1.2,0c0.4,0,0.8,0.1,1.2,0.2
		c0.5,0.1,1,0.3,1.6,0.3c0.9,0.1,5.7,0.1,12.7,0.2l1.3,0c6.7,0,13.6,0,20.2,0c6,0,12,0,18,0c10.4,0.1,21,0.2,31.3,0.2
		c5,0,10,0.1,15,0.1c0.8,0,1.6,0,2.4,0c1.1,0,2.2,0,3.4,0c2.4,0.1,4.8,0.1,7.2,0.2c2.1,0.1,4.1,0.1,6.2,0.2l2.7,0.1
		c4.6,0.1,9.4,0.2,14.1,0.3c3.7,0.1,7.5,0,11.2,0l2,0c0.5,0,0.9-0.1,1.3-0.1c0.4-0.1,0.8-0.1,1.2-0.1c0.9,0.1,1.9,0.1,2.8,0.2
		c1.6,0.2,3.2,0.3,4.9,0.3c2.4,0,4.8-0.1,7.2-0.2c2.8-0.1,5.7-0.3,8.5-0.3c4,0,8.1,0.1,12.1,0.3c2.9,0.1,5.8,0.2,8.7,0.2
		c3.5,0.1,7.1,0,10.5,0c1.6,0,3.3,0,4.9,0c0.5,0,0.9,0,1.4,0c1.1,0,2.2,0,3.3,0c1,0.1,2.1,0.2,3.1,0.3c1.7,0.2,3.4,0.4,5.1,0.4
		c0.1,0,0.2,0,0.3,0c2.7,0,5.3-0.2,7.9-0.4c1.6-0.1,3.1-0.2,4.7-0.3l1.5-0.1c3.2-0.2,6.6-0.3,9.8-0.3c7.6,0,15.3,0.2,22.8,0.3
		c2.9,0,5.9,0.1,8.8,0.1l0.1,0c0.3,0,0.5,0,0.8,0c1.1,0.1,2.2,0.2,3.3,0.3c2.4,0.2,4.9,0.4,7.3,0.4c6.7-0.1,13.5-0.3,20.1-0.5
		l4.3-0.1c2.8-0.1,5.6-0.2,8.6-0.4c1.4-0.1,2.8-0.1,4.4-0.2c0.8,0,1.4-0.7,1.4-1.5c0-2.6,0-5.1,0-7.7c0-5.9,0-12-0.1-17.9
		c0-3.1-0.2-6.2-0.4-9.2c-0.1-2.3-0.3-4.8-0.3-7.1c-0.2-6.6-0.4-13.6-0.4-20.6c0-6.4,0.1-13,0.2-19.3c0.1-3.2,0.1-6.3,0.1-9.5
		l0.1-5.3c0.1-5.4,0.2-10.9,0.2-16.4c0-4.2-0.1-8.5-0.1-12.6c0-2.9-0.1-5.8-0.1-8.8l-0.1-7c-0.1-17.4-0.3-35.4-0.3-53.1
		c0-2.8,0.1-5.7,0.2-8.5c0.1-2.4,0.2-5,0.2-7.4c0-1.9-0.1-3.8-0.2-5.6c-0.1-1.5-0.1-3.1-0.2-4.6c-0.1-5.7-0.1-11.6,0-17.5
		c0.1-6.1,0.4-12.3,0.6-18.3l0.2-5.2c0.1-2,0.2-3.9,0.3-5.9l0.1-1.5c0.2-2.9,0.3-5.7,0.5-8.6c0.4-6.2,0.8-12.7,1-19
		c0.2-6.4,0.3-12.8,0.3-19.1c0-3.5,0.1-7,0.1-10.6c0-1.7,0.1-3.5,0.2-5.3c0.1-1.8,0.2-3.7,0.2-5.6
		C471.5,131.5,471.5,126.8,471.5,122.2 M140.8,466.6c-0.5-0.1-1-0.2-1.5-0.3c-0.6-0.1-1.1-0.1-1.6,0c-0.3,0-0.6,0-0.8,0
		c-1.9-0.1-3.8-0.2-5.7-0.2c-4.2-0.2-8.5-0.4-12.7-0.4c-1.9,0-3.9,0.1-5.8,0.3c-1.3,0.1-2.6,0.2-3.8,0.3c-0.7,0-1.5,0-2.3-0.1
		c-0.9-0.1-1.8-0.1-2.7-0.1c-2.2,0.1-4.4,0.2-6.6,0.3c-2.9,0.2-5.9,0.3-8.8,0.4c-1.4,0-2.8-0.1-4.3-0.2c-1.5-0.1-3-0.2-4.5-0.2
		c-2.3,0.1-4.7,0.2-6.9,0.4c-1.5,0.1-3,0.2-4.5,0.3c-0.9,0-1.7,0-2.7,0c-0.9,0-1.9,0-2.8,0c-3.3,0.2-6.5,0.3-9.8,0.5
		c-3.4,0.2-6.9,0.4-10.3,0.6c-1.2,0.1-2.5,0.1-3.7,0.1c-1,0-2,0-3,0c-2.8,0.1-5.9,0.2-9.3,0.3c1.9-7.6,11.7-51.3,13.1-56.1
		c0.9-3,1.8-6,3.3-8.7c3.1-5.2,6.7-10,9.8-15.2c2.4-4,4.1-8.3,6.4-12.3c1.9-3.3,4.7-6.5,8.8-7.3c4.1-0.7,14.8-1.3,19-1.9
		c3.2-0.4,6.4-0.8,9.6-1.1c5.3-0.5,10.6-0.9,15.9-1.3c3.2-0.2,6.4-0.3,9.6-0.4c4.4-0.1,8.8,0,13.1,0c-1.3,5-2.7,9.8-3.8,14.7
		c-0.7,3.4-1.3,6.9-1.4,10.4c-0.1,6,0,12,0.4,17.9c0.4,5.7,0.8,11.4,2,16.9c2,9.7,4.4,19.3,7,28.8c1.4,5.3,2.9,8.5,4.7,13.6
		c0,0,0,0,0,0c-1.2,0-2.1,0-2.3-0.1C141.6,466.8,141.2,466.7,140.8,466.6 M98.1,244.8c-0.2-2.7-0.5-5.4-0.7-7.9
		c1.6-0.5,2.8-0.8,4.1-1.3c2.3-0.8,3.8-0.4,5.1,1.6c1.2,1.7,2.5,3.2,3.6,4.9c1.6,2.5,3,5,4.4,7.6c0.6,1.1,0.5,2.5,0.9,3.7
		c0.6,1.7,1.7,3.3,2.2,5c2.3,7.4,2.2,27,2.3,29.2c0,0.8,0,1.7,0,2.4c-3-3.2-5.9-6.3-8.8-9.5c-2.6-2.8-5.4-5.5-7.7-8.5
		c-4-5.3-6.2-11.1-5-18C99,250.9,98.3,247.8,98.1,244.8 M119.1,249.7c-2.2-3.5-4.2-6.9-6.5-10c-2.6-3.6-5.5-6.9-8.5-10.3
		c-0.6-0.6-1.8-0.7-2.8-1c-0.1,0.2-0.2,0.4-0.3,0.5c0.4,1.1,0.8,2.3,1.2,3.5c-1.8,0.1-3.6,0.5-5.2,0.2c-3.2-0.5-5.3-2.6-6.8-5.3
		c-1.7-3-3.6-6-4.5-9.2c-1.2-4.5-1.4-9.3-1-14.1c0.4-6.1,2.6-11.8,3.2-17.8c0.3-3,0.1-6,0-9c0-0.5-0.4-1.1-0.5-1.6
		c-0.2-0.7-0.6-1.4-0.4-2c2.2-6.8,3.3-13.7,4.1-20.8c0.7-5.8,1.7-11.6,2.3-17.5c0.4-4.4,0.5-8.8,2-13c2.5-7.2,6.4-13.6,11.5-19.2
		c2.3-2.5,5.3-4.4,8.1-6.4c3.9-2.8,8-5.4,11.9-8.1c0.1,0.1,0.3,0.2,0.4,0.4c-0.6,1-1.2,2.1-1.9,3.1c-0.9,1.3-0.5,2.5,0.5,3.2
		c1.2,0.7,2.1-0.1,2.7-1.3c1.7-3.2,3.5-6.3,5.4-9.3c1.8-2.8,3.4-5.9,5.7-8.3c4.5-4.8,10.1-8.2,16-11c4.6-2.2,9.3-4,13.9-6.1
		c9.6-4.5,25-6.9,31.8-8.2c3.5-0.6,7.1-1.1,10.6-1.5c0.7-0.1,1.5,0.2,2.3,0.3c3.6,0.9,7-0.4,10.5-0.9c3.9-0.6,7.7-1.2,11.6-1.4
		c4.3-0.2,8.6,0.1,13-0.1c5.8-0.2,11.5-1,17.3-1.1c4.2-0.1,8.2,1,12.1,2.9c6.1,2.9,12.5,5.3,18.5,8.4c6.4,3.3,12.7,7,18.7,10.9
		c3.2,2.1,5.8,5.2,8.6,7.9c2.3,2.3,4.7,4.6,6.7,7.1c2.5,3.3,5,6.6,6.9,10.3c2.5,4.9,4.5,10.1,6.2,15.3c1.1,3.4,1.5,7.1,2,10.6
		c0.7,4.8,1.1,9.7,1.6,14.5c0.1,0.5,0.1,1.1,0.4,1.4c0.3,0.4,0.8,0.9,1.2,0.9c0.4,0,1-0.6,1-1c0.1-1.4,0.1-2.7,0.1-4.1
		c0-1.2,0-2.4,0-3.6c0.2,0,0.3-0.1,0.5-0.1c0.3,0.7,0.8,1.4,1,2.2c1.9,5.2,4,10.4,5.6,15.7c1,3.3,1.1,6.8,1.5,10.2
		c0.3,2.7,0.7,5.5,0.3,8.1c-0.6,4.5-1.6,9-2.7,13.4c-1,4.1-2.3,8.2-3.3,12.3c-0.2,0.8,2.3,1.7,2.9,1.1c0.3-0.3,0.4-0.8,0.8-1.5
		c0.3,1.2,0.5,2,0.6,2.8c0.5,2.9,1.3,5.8,1.3,8.7c0,4.1-0.4,8.3-1.3,12.3c-1,4.3-2.4,8.6-4.1,12.7c-4.3,10.4-9.1,20.6-15.4,30
		c-4.2,6.3-8.7,12.3-13,18.5c-0.7,1-1.1,2.1-2.1,3c0.2-1.7,0.4-3.4,0.5-5.2c0.2-2.8,0.2-5.5,0.4-8.3c0.5-5.6,0.8-11.2,1.6-16.7
		c0.7-4.8,2-9.6,2.8-14.4c0.1-0.6-0.4-1.7-1-2.1c-0.8-0.5-1.9-0.6-2.3,0.7c-0.4,1.2-0.7,2.4-1.1,3.6c-0.3,0.9-0.8,1.7-1.2,2.6
		c-0.3-0.1-0.6-0.2-0.8-0.2c0.2-2.5,0.5-5,0.6-7.5c0.2-3.5,0.4-7,0.3-10.5c-0.1-2.9-0.3-5.8-0.9-8.6c-0.5-2.2-1.2-8.5-5.4-7.1
		c-1.5,0.5,0.4,7.4,0.6,10.8c-0.4,0.2-0.5,0.3-0.6,0.3c-6-3-13.5-6.5-20.9-14.3c-2.9-3.1-5.6-1.8-4.9-0.3c1.8,4.2,4.8,7.3,8.5,9.9
		c0.8,0.6,1.7,1.2,2.8,2c-0.9,0.4-7.4,4.7-14.7,3.8c-7.3-0.9-15.1-5.9-16.2-6.9c-7-6.3-12.1-13.7-14.8-22.9
		c-1.8-6-2.5-11.9-2.4-18.1c0.1-3.6,1.9-16.3,2.6-18.9c0.3-1,0.5-2.1,0.7-3.1c0.2-1.1-0.4-1.7-1.3-1.6c-0.6,0-1.4,0.5-1.7,1
		c-1.8,3.5-3.6,7-5.3,10.5c-1.2,2.5-2.2,5.1-3.6,7.5c-1.9,3.3-3.9,6.8-6.3,9.7c-2.6,3.1-5.6,5.9-8.7,8.4c-2.9,2.2-6.3,4.1-9.7,5.6
		c-4.1,1.9-8.4,3.7-12.7,5.1c-12.4,2.5-24.2,0.9-28.9,0.7c3.6-5.1,8-11.5,9.7-15.6c1-2.4-2.1-3.7-3.4-2.1
		c-2.4,4.9-13.1,22.2-16.3,25.8c-2.1,2.4-4.6,4.4-6.9,6.6c-0.2,0.2-0.5,0.4-0.8,0.5c-0.2,0.1-0.4,0.2-0.8,0.1
		c3.1-4.4,4.4-14.7,3.1-18.4c-1.3-3.7-1.7-4.3-2.9-6.2c-0.5-0.7-1.9-0.9-2.9-1.2c-0.2,0.2-0.4,0.4-0.6,0.6c0.5,1.2,0.9,2.3,1.3,3.3
		c-4.8-1.2-8.5,1.5-11.4,5.1c-3.3,4.1-5.8,8.8-6.6,14.2c-0.5,3.3-0.1,6.6,2.4,10.6c-1.8-0.6-3.1-0.9-4.3-1.4
		c-2.2-0.9-4.4-1.6-6.4-2.7c-2.5-1.4-4.5-3.2-5-6.4c-0.1-0.8-1.7-1.3-2.6-1.9c-0.2,0.1-0.4,0.3-0.6,0.4c0,2.2,0.9,6.9,0.9,9.2
		c-2.4-2.4-2.4-2.4-3.2-2.3C125.1,224.4,121.9,236.9,119.1,249.7 M121.4,254.4c1-3.6,2.3-7.1,3.1-10.8c0.8-3.8,1.2-7.7,1.7-11.5
		c0.4-3.1,0.6-6.3,0.8-9.4c0.1-1.4-0.4-2.8-0.3-4.2c0.1-1.9,0.5-3.7,0.7-5.9c5,4.8,15.6,7.8,17.9,7.2c2.3-0.6,4.3-1.6,3.4-2.4
		c-2.8-2.8-5-6.7-4.2-11c1-5.4,3.2-10.3,7.1-14.3c0.8-0.8,1.8-1.5,2.7-2.1c1.3-0.8,3.2-1.8,5.3-1.3c1.6,2.2,0.4,10.1,0,11.6
		c-0.8,2.5-1.5,5.1-2.7,7.4c-1.7,3-3.9,5.6-5.7,8.5c-0.3,0.5,0.1,1.6,0.3,2.4c0,0.1,1.1,0.2,1.3,0c2.4-3,6.2-4,9.1-6.2
		c5.4-4,10.1-8.7,14-14.3c0.5-0.7,1.1-1.5,1.7-2.4c0.1,0,0.1,0.1,0.2,0.1c8.4,2.2,22.7,2.1,28.5,0.9c12.2-2.5,20.6-7.2,30.2-15
		c3.5-3.4,6.4-7.4,9.4-11.3c1.8-2.3,3.2-4.9,4.7-7.4c0,1.4,0,3,0,4.5c0,5.8,0.1,11.6,1.6,17.3c1.6,6.5,4.2,12.6,8.2,18.1
		c3.3,4.6,7.4,8.4,12.1,11.5c2.9,1.9,6.4,2.9,9.7,4.2c0.6,0.2,7.9,1.3,11.2,0.7c4.8-0.9,10.1-3.8,12.3-4.8c0.6-0.2,1.4-0.3,1.9,0
		c3.1,1.5,6.1,3.3,9.3,4.7c1.5,0.7,1.6,1.6,1.6,2.8c0,3,0,6,0,9c0,1.4-0.2,9.9-0.3,10.9c-0.2,1.3-0.5,2.7-0.3,4
		c0.1,0.7,1.2,1.2,1.9,1.9c0.5-0.6,1.1-1.2,1.5-1.9c0.3-0.4,0.4-1,1-1.5c-0.4,2.9-0.7,5.8-1.1,8.7c-0.1,0.8-0.2,1.5-0.3,2.3
		c-0.3,3-0.6,6-0.7,9c-0.2,4.1-0.6,9-1,15.9c-0.4,6.9-6.3,30.8-7.6,34.9c-1.5,4.7-2.9,9.5-4.8,14c-1.2,2.8-3.1,5.2-5,7.6
		c-2.2,2.7-4.5,5.3-7,7.8c-4.8,4.7-9.8,9.3-15.5,12.9c-4.2,2.6-8.2,5.6-12.3,8.4c-4.7,3.2-9.2,6.6-14,9.6c-3,1.8-6.4,3.3-9.7,4.4
		c-5.3,1.8-10.9,2.9-16.2,4.9c-3.2,1.2-6.5,1.7-9.8,2.1c-4,0.5-8.1-0.2-11.9-1.8c-4.8-1.9-9.5-4-13.6-7.1c-2.5-1.8-4.7-3.9-7.3-5.6
		c-4-2.5-8-4.9-12.2-7.1c-2.2-1.1-4.6-1.7-7-2.4c-3.7-1.1-7-2.8-9.8-5.5c-4.6-4.6-9.3-9-13.9-13.6c-5.3-5.3-9.5-11.4-12.1-18.4
		c-1.3-3.6-2-7.5-2.6-11.3c-0.8-4.6-1.4-9.3-1.9-14c-0.5-4.8-0.7-9.6-0.9-14.4c-0.2-5.7,0-11.5-0.5-17.3c-0.3-3.6-1.7-7-2.4-10.6
		C120.9,256.8,121.1,255.5,121.4,254.4 M157.5,430.2c-0.1-2.6-0.3-5.3-0.4-7.9c-0.1-5.7-1.3-11.4-1.6-17.1
		c-0.3-6.3-2.2-37.3-2.8-41.4c-0.2-1,0-2.1,0-3.3c2.1,1.5,3.7,2.8,5.5,4c0.4,0.3,0.9,0.5,1.3,0.7c5.5,2.1,11.2,3.7,16.4,6.3
		c3.8,1.9,7.1,4.9,10.7,7.4c3,2.1,5.9,4.6,9.1,6.3c4.1,2.1,8.6,3.5,13,5.2c0.5,0.2,7,1.9,9.9,0.9c3.1-1,6.4-1.7,9.5-2.7
		c8.3-2.6,17-3.9,24.6-8.2c5.3-3,10.2-6.6,15.3-10c4.2-2.8,8.5-5.6,12.6-8.6c3.7-2.6,7.2-5.4,10.8-8.2c1.1-0.9,1.9-2.1,3-2.9
		c1.1-0.8,1.2,0.4,1.4,1.1c0.7,2.4,1.1,4.9,2.1,7.1c1.5,3,3.5,5.7,5.4,8.9c-1.9,3.1-4.1,6.6-6.3,10.2c-5.4,8.6-11.7,16.5-18.3,24.2
		c-6,6.9-12.7,13-19.6,18.9c-5.4,4.6-11.7,8.1-17.8,11.8c-5.2,3.2-10.5,6.2-16,8.8c-5.7,2.7-11.6,4.8-17.4,7.2
		c-3.2,1.3-6.3,2.9-9.5,3.8c-4.5,1.2-9.2,2-13.8,2.8c-3.2,0.6-6.4,1.4-9.6,1.5c-4.2,0.1-7.9-1.5-11.1-4.4c-3.2-2.9-5-6.5-6.5-10.4
		c-0.4-1.1,0.1-2.6,0-3.9C157.6,435.4,157.6,432.8,157.5,430.2 M72.3,365.8c22.2-7.4,44.6-13.2,68.1-13.5c-1,2.4-2.1,5.1-3.4,7.8
		c-0.2,0.4-1.2,0.7-1.8,0.7c-2,0-18.9,1.2-26.4,1.3C102,362.2,74.4,365.6,72.3,365.8 M224.2,467.3c-10.1-0.1-20.6-0.2-30.9-0.2
		c-5.9,0-11.9,0-17.8,0c-6.5,0-13.3,0-19.9,0l-1.3,0c-1.4,0-3.7,0-5.9,0c-0.1-0.8-0.5-1.6-0.8-2.4c-1.4-3.8-2.9-7.6-4-11.5
		c-2.3-8.1-4.6-16.3-6.5-24.5c-1.3-5.6-1.8-11.5-2.5-17.2c-0.4-2.9-0.6-5.9-0.8-8.9c-0.2-2-0.3-5.3-0.3-7.3
		c0.1-3.7,0.3-9.8,1.6-15.4c1.5-6.1,2.7-10.6,3.9-13.7c1.5-4.1,3.2-8.1,4.9-12.1c0.4-0.9,0.7-1.3,1.8-0.3c1.6,1.4,1.8,3.3,2.5,5
		c1,2.1,1.1,4.3,0.4,6.6c-0.8,2.5-5,19.7-5.3,26.1c-0.3,5.3,0,10.5,0.7,15.6c1.1,7.2,3,14.3,4.7,21.4c1.5,6.1,3.8,11.9,6.7,17.5
		c2,4,4.2,7.9,8,10.6c4.9,3.5,10.1,5.1,16,4c3.5-0.6,6.9-1.7,10.4-2.4c3.4-0.7,7-1,10.2-2.1c5.1-1.8,10-4.3,15.1-6.3
		c8.2-3.1,16.4-6.2,23.8-11.1c4.8-3.2,9.8-6.1,14.7-9.2c3.9-2.5,8-4.9,11.4-8c5.6-5.1,11.1-10.4,16.1-16.1c5-5.5,9.6-11.4,13.9-17.5
		c4.1-5.8,7.7-12,11.5-18c2.3-3.7,4.5-7.5,7.9-10.3c1.6-1.3,2.6-3.8,5.5-2.4c2.3,1.1,4.8,1.8,7.1,3c1.7,0.9,10.8,6.1,13.9,7.6
		c-2.4,3.5-4.4,6.6-6.6,9.6c-2.2,3.1-4.5,6.2-6.8,9.2c-1.6,2.1-3.5,4-5.1,6.1c-1.6,2.2-3.1,4.5-4.7,6.7c-5.6,7.8-11.3,15.6-17,23.2
		c-1.6,2.2-3.3,4.3-5.1,6.4c-2.5,2.9-5,5.9-8,8.1c-6.9,5.2-14.1,10.1-21.4,14.7c-6,3.7-12.3,6.9-18.5,10.3c-1.4,0.8-6.2,3.6-9.3,5.5
		C233.7,467.4,229,467.3,224.2,467.3 M408.1,468.5c-7.4-0.1-15-0.2-22.5-0.3c-3.3,0-6.6,0.1-9.9,0.3l-1.4,0.1
		c-1.6,0.1-3.1,0.2-4.7,0.3c-2.5,0.2-5.1,0.4-7.6,0.4c-1.6,0-3.2-0.2-4.9-0.4c-1-0.1-2.1-0.2-3.2-0.3c-0.7,0-1.4-0.1-2.1-0.1
		c-0.5,0-0.9,0-1.4,0c-0.4,0-0.9,0-1.3,0c-1.6,0-3.2,0-4.8,0c-3.4,0-6.9,0-10.3,0c-2.9,0-5.7-0.1-8.6-0.2c-3.9-0.1-8-0.3-12-0.3
		c-2.9,0-5.8,0.1-8.6,0.3c-2.3,0.1-4.7,0.2-7,0.2c-1.5,0-2.9-0.1-4.5-0.3c-1-0.1-1.9-0.2-2.9-0.3c-0.6,0-1.2,0-1.7,0.1
		c-0.3,0-0.7,0.1-1,0.1l-2,0c-3.6,0-7.4,0-11,0c-4.6-0.1-9.4-0.2-13.9-0.3l-2.7-0.1c-2-0.1-4-0.1-6.1-0.2c-1.5,0-3.1-0.1-4.6-0.1
		c4-2.4,8.8-5.8,12.4-7.8c3.7-2,7.4-4.2,11-6.5c5.5-3.5,10.9-7.1,16.3-10.7c5.5-3.6,9.6-8.6,13.7-13.5c6.2-7.5,11.6-15.7,17.3-23.6
		c3.6-5.1,7.2-10.2,10.4-14.7c3.5,0.9,24.3,6.2,30.9,9.3c11.9,5.5,26.6,15.7,30.7,20.8c4.8,6,8.8,12.4,11.9,19.3
		c2.9,6.3,7.9,21.4,10.5,28.3C410.9,468.5,409.5,468.5,408.1,468.5 M428.2,469.3c-2.3,0-4.7-0.2-7-0.4c-1.1-0.1-2.2-0.2-3.3-0.3
		c-0.3,0-0.6,0-0.9,0l-0.1,0c-0.2,0-0.4,0-0.6,0c0-0.2-0.1-0.3-0.1-0.5c-1.9-5.2-6.9-19.2-9-24.4c-2.9-7.3-6.5-14.4-11.3-20.7
		c-2.9-3.8-5.6-7.8-9.6-10.7c-2.9-2-16.4-10.8-20.5-12.9c-5.8-3-29.5-10.1-34.5-11.2c4.4-6.4,8.6-12.4,12.6-18.2
		c2,0.9,3.8,1.8,5.6,2.5c2.5,1,34.7,17.6,38.1,19.6c4,2.4,16.4,10.7,18.1,12.7c6,5.2,10.1,10.3,13.8,16.7c5.1,9,13.4,26.7,16.8,36.5
		c1.1,3.2,2.2,6.5,3.1,9.8c0.1,0.4,0.2,0.8,0.4,1.1C435.8,469.1,432,469.2,428.2,469.3 M465.9,137.4c0,1.8-0.1,3.6-0.2,5.4
		c-0.1,1.7-0.2,3.5-0.2,5.3c-0.1,3.5-0.1,7-0.1,10.4c-0.1,6.1-0.1,12.5-0.3,18.7c-0.2,6.2-0.6,12.5-1,18.7c-0.2,2.8-0.4,5.7-0.5,8.5
		l-0.1,1.5c-0.1,2-0.2,3.9-0.3,5.9l-0.2,5.1c-0.2,5.9-0.5,12-0.6,18c-0.1,5.8-0.1,11.6,0,17.3c0,1.6,0.1,3.1,0.2,4.6
		c0.1,1.8,0.2,3.6,0.2,5.4c0,2.4-0.1,4.9-0.2,7.2c-0.1,2.8-0.2,5.6-0.2,8.5c0.1,17.4,0.2,35.2,0.3,52.3l0.1,6.9
		c0,2.9,0.1,5.8,0.1,8.6c0.1,4,0.1,8.2,0.1,12.3c0,5.4-0.1,10.8-0.2,16.1l-0.1,5.2c0,3.1-0.1,6.2-0.1,9.3
		c-0.1,6.3-0.2,12.7-0.2,19.1c0,6.9,0.2,13.9,0.4,20.4c0.1,2.4,0.2,4.8,0.3,7.1c0.2,2.9,0.3,5.9,0.4,8.9c0.1,5.9,0.1,11.8,0.1,17.6
		c0,2,0,4.1,0,6.2c-1,0-2,0.1-2.9,0.1c-3,0.1-5.7,0.3-8.5,0.4l-4.2,0.1c-1.3,0-2.6,0.1-4,0.1c-2-5.7-9.6-25.7-11.8-30.7
		c-2-4.6-4.5-9-7-13.3c-2.2-3.8-4.7-7.5-7.3-11.2c-1.4-1.9-3-3.7-4.6-5.4c-2.5-2.7-4.8-5.6-7.6-7.9c-3.2-2.7-19.1-13-24-15
		c-5.1-2.2-33.3-17.1-34.2-17.7c-3.7-2.1-21-12.6-23.2-13.2c-2.3-0.6-6.7-2.2-10-0.4c-5.6-2.2-7.1-3.5-12-11.1
		c2.3-3.1,5.2-5.8,6.6-9.2c8.2-20.3,12.4-42.2,13-44.4c0.3-1.1,1.5-1.8,1.9-2.9c2.4-6.2,6.1-11.6,10.1-16.8
		c3.1-4.1,6.2-8.2,8.9-12.7c3.1-5.1,5.6-10.5,8.4-15.8c3.8-7.2,7-14.7,9.4-22.6c1.6-5.3,2.3-10.7,2.2-16.2
		c-0.1-3.9-1.7-15.2-3.9-15.8c0.9-3.2,1.7-6.4,2.6-9.5c1.2-4.5,2.8-8.9,2.5-13.7c-0.3-4.5-0.4-9-1.2-13.4c-0.9-4.5-2.3-9-3.8-13.3
		c-1.1-3.3-5.7-12.6-7.2-12.5c-0.9-5-1.4-9.9-2.7-14.6c-1.3-4.7-3.2-9.2-5.2-13.6c-2.3-5-4.8-10-8.8-14c-2.1-2.2-4.4-4.2-6.2-6.7
		c-3.4-4.5-7.9-7.8-12.5-10.9c-4.8-3.3-10-6-15.2-8.6c-5.8-2.9-24.4-12.4-28.9-13c-2.1-0.3-5.6-1-7.7-0.8c-3.2,0.2-6.5,0.8-9.7,1.1
		c-0.5,0-17,0.2-20,0.5c-2.7,0.2-16,3.4-20.2,2.3c-0.6-0.2-1.3-0.2-1.9-0.1c-2.7,0.3-5.4,0.8-8,0.9c-17.3,2.1-39.7,8.3-56.7,20.1
		c-3.2,2.4-10.1,6.4-12.1,9.9c-2.1,3.8-4.9,6.7-8.4,9c-4.4,2.8-9,5.4-13.5,8.1c-6.5,3.8-11.9,9.2-15.7,15.7c-2.3,3.8-4.5,7.8-5.6,12
		c-1.6,5.9-2,12.1-2.9,18.1c-0.4,2.9-0.5,5.9-0.9,8.8c-0.5,3.8-1.3,7.5-1.8,11.3c-0.8,6.1-2.3,12-5,17.5c-1,2.1-1.9,4.2-2.7,6.3
		c-0.6,1.4,0.4,2.4,1.4,2.9c1.2,0.6,1.8-0.5,2.2-1.5c0.3-0.8,0.6-1.5,1-2.3c0.3-0.7,0.6-1.5,0.9-2.2c0.3,0.1,0.5,0.1,0.8,0.2
		c-0.8,4.5-1.2,9-2.4,13.4c-1.4,5.1-1.8,10.4-1.9,15.6c0,3.8,1.1,7.8,2.3,11.5c1.6,5,4.2,9.7,8.4,13.1c2.1,1.7,2.9,3.8,2.8,6.5
		c0,0.7,0.2,1.4,0.2,2.1c0.2,3.3,0.8,6.6,0.4,9.8c-0.8,6.2,0.1,12,3.3,17.2c3.9,6.4,8.8,12.1,13.9,17.5c0.4,0.4,4,2.3,4.7,3.8
		c0.4,0.9,1.4,1.4,2.1,2.2c0.6,0.6,1.3,1.3,1.4,2c0.4,1.9,0.6,3.8,0.9,5.7c0.8,6.3,1.4,12.7,2.4,18.9c1.4,8.8,5.8,16.1,11.5,22.7
		c1.6,1.8,3,3.7,4.8,5.9c-2.7,0.1-5,0.1-7.2,0.4c-7,0.8-14.1,1.7-21.1,2.7c-4.1,0.6-8.2,1.3-12.2,2.3c-4.1,1-21.8,5.4-26.4,7.2
		c-5.3,2.1-10.8,4.3-14.5,9.2c-1.4,1.9-3.1,3.7-3.8,5.9c-2.3,6.5-6.5,12-10.4,17.5c-3.9,5.4-6.4,11.3-8.4,17.4
		c-1.5,4.6-11.7,51.2-12.8,55.9c-0.1,0.6-0.1,1.2,0.1,1.8c-0.2,0-0.3,0-0.5,0c-1.2,0.1-2.5,0.2-3.7,0.2c-2.9,0.1-5.8,0.1-8.7-0.1
		c-0.4,0-1-0.3-1.6-0.6c-0.2-0.1-0.4-0.2-0.6-0.3c0-1.1,0-2.2,0-3.3c0-3.2,0-6.5,0-9.7c0-2.3,0.1-4.6,0.2-7
		c0.1-3.8,0.2-7.8,0.2-11.7c-0.1-5.3-0.3-10.8-0.5-16c-0.1-3.7-0.3-7.4-0.4-11.1c-0.2-5.7-0.2-11.4-0.2-16.9c0-2.7,0.1-5.5,0.2-8.2
		c0.1-3.6,0.2-7.2,0.2-10.9c0-3.8-0.2-7.7-0.4-11.5c-0.1-2.8-0.2-5.7-0.3-8.5c-0.1-4.5-0.1-9.2-0.1-15.4c0-2,0.1-4.1,0.2-6.1
		c0.1-2.1,0.1-4.3,0.2-6.4c0-1.3-0.1-2.5-0.2-3.7c-0.1-1.2-0.2-2.3-0.2-3.5c0.1-8.5,0.1-17,0.2-25.6c0-5,0.1-10.1,0.1-15.1
		c0-2.6,0-5.2,0-7.8l0-3.6c0-1.6,0-3.2,0-4.8c0-3.7,0-7.5,0-11.2c0-1.7,0.1-3.4,0.2-5c0.1-1.9,0.2-3.9,0.2-5.9c0-1.7-0.1-3.3-0.2-5
		c-0.1-1.6-0.2-3.3-0.2-4.9c0-2.4,0.1-4.9,0.2-7.3c0.1-2.8,0.2-5.6,0.2-8.4c0-1.6,0-3.1,0-4.7c0-5.6,0.1-11.4-0.5-17
		c-0.7-7.6-0.7-15.3-0.6-22.8c0-2.3,0-4.5,0-6.8c0-6,0.1-12,0.2-17.9c0.1-5.2,0.2-10.6,0.2-16c0-4.1-0.1-8.4-0.3-12.4
		c-0.1-2.8-0.2-5.5-0.2-8.3c0-1.8,0-3.6,0.1-5.3c0-1.5,0.1-2.9,0.1-4.4c0-0.7-0.1-1.4-0.2-2.1c-0.1-0.6-0.2-1.2-0.2-1.7
		c0-3.2,0.1-6.3,0.2-9.5c0.1-4.1,0.2-8.3,0.2-12.5c0-1.8-0.1-3.7-0.2-5.5c-0.1-1.3-0.1-2.7-0.2-4.1c0-0.5,0.1-1,0.2-1.5
		c0.1-0.7,0.2-1.4,0.2-2.1c-0.1-1.5-0.2-3-0.3-4.5c-0.1-2.1-0.3-4.2-0.3-6.3c0-1.9,0.1-3.9,0.3-5.8c0.1-1.4,0.2-2.9,0.3-4.3
		c0-1.1,0-2.3-0.1-3.3c-0.1-1.2-0.1-2.3,0-3.5c0.2-3.5,0.4-7.1,0.6-10.6c0.2-3.1,0.4-6.1,0.6-9.2c0.1-1.1,0-2.1-0.1-3l1.2-0.2
		C11,8,13.2,7.6,15.4,7.3l0.2,0c0.6-0.1,1.2-0.2,1.7-0.2c4.7-0.1,9.6-0.3,14.3-0.4c1.7,0,3.5-0.1,5.2-0.1C42.5,6.4,48.3,6.3,54,6.3
		c4.7,0,9.6,0.1,14.2,0.2c3.4,0.1,6.9,0.1,10.3,0.2c3.2,0,6.4,0,9.7,0c3.3,0,6.5,0,9.8,0c5.6,0.1,11.2,0.2,16.7,0.3l3.1,0.1
		c1.7,0,3.3,0.1,5,0.2c3.1,0.1,6.3,0.2,9.5,0.2c3.4-0.1,6.9-0.2,10.2-0.4c3-0.1,6.1-0.3,9.1-0.3c8.1-0.2,16.4-0.2,24.4-0.2l1.1,0
		c1.6,0,3.2,0.1,4.8,0.1c1.2,0,2.5,0.1,3.7,0.1c8.8,0.1,17.6,0.2,26.5,0.3c0.5,0,1.1-0.1,1.6-0.2c0.4-0.1,0.8-0.1,1.1-0.1
		c1.2,0,2.4,0,3.7,0.1c3.5,0,7.1,0.1,10.6,0.3c13.4,1,26.9,0.9,40,0.8c6.1-0.1,12.5-0.1,18.7,0c3.5,0,7-0.2,10.4-0.4
		c2.1-0.1,4.3-0.3,6.5-0.3c5.9-0.2,12.1-0.4,18.3-0.3c2.2,0,4.5,0.2,6.7,0.3c2.2,0.2,4.4,0.3,6.6,0.3c2.5,0,4.9-0.1,7.3-0.2
		c2.3-0.1,4.8-0.2,7.1-0.1c2,0,4.1,0.2,6.1,0.3c2,0.2,4,0.3,6,0.3c2.1,0,4.2-0.1,6.2-0.1c2-0.1,4-0.2,6.1-0.1
		c3.6,0.1,7.3,0.3,10.9,0.5c1.6,0.1,3.3,0.2,4.9,0.3c0.4,0,0.7,0,1.1,0l0.4,0c2.6,0,5.1,0,7.7,0c6,0,12.2,0,18.3,0
		c3.3,0,6.7,0.1,9.9,0.2c1.8,0.1,3.6,0.1,5.4,0.1l4.1,0.1c4.4,0.1,9,0.2,13.6,0.3c2,0,4.1-0.1,6.1-0.2c0.8,0,1.5-0.1,2.3-0.1
		c1.8-0.1,3.4,0.5,4.4,1.5c0.2,0.3,0.1,1.4,0.1,2c0,0.4,0,0.7,0,1c0,0.2-0.1,0.6-0.2,0.9c-0.1,0.5-0.3,1-0.3,1.6l0,2.3
		c0,4.8-0.1,9.8,0,14.7c0.2,8.9,0.5,17.9,0.8,26.4c0.1,2.5,0.2,5.1,0.3,7.6c0.2,3.3,0.3,6.7,0.4,10c0.1,5.7,0.2,11.6,0.3,17.2
		c0,3.4,0.1,6.8,0.1,10.2c0,2.9,0.1,5.7,0.2,8.6c0.1,3.7,0.2,7.3,0.2,11C465.9,128.3,465.9,132.9,465.9,137.4"/>
	<path class="st5" d="M119.1,249.7c-2.2-3.5-4.2-6.9-6.5-10c-2.6-3.6-5.5-6.9-8.5-10.3c-0.6-0.6-1.8-0.7-2.8-1
		c-0.1,0.2-0.2,0.4-0.3,0.5c0.4,1.1,0.8,2.3,1.3,3.5c-1.8,0.1-3.6,0.5-5.2,0.2c-3.2-0.5-5.3-2.6-6.8-5.3c-1.7-3-3.6-6-4.5-9.2
		c-1.2-4.5-1.4-9.3-1-14.1c0.4-6.1,2.6-11.8,3.2-17.8c0.3-3,0.1-6,0-9c0-0.5-0.4-1.1-0.5-1.6c-0.2-0.7-0.6-1.4-0.4-2
		c2.2-6.8,3.3-13.7,4.1-20.8c0.7-5.8,1.7-11.6,2.3-17.5c0.4-4.4,0.5-8.8,2-13c2.5-7.2,6.4-13.6,11.5-19.2c2.3-2.5,5.3-4.4,8.1-6.4
		c3.9-2.8,8-5.4,11.9-8.1c0.1,0.1,0.3,0.2,0.4,0.4c-0.6,1-1.2,2.1-1.9,3.1c-0.9,1.3-0.5,2.5,0.5,3.2c1.2,0.7,2.1-0.1,2.7-1.3
		c1.7-3.2,3.5-6.3,5.4-9.3c1.8-2.8,3.4-5.9,5.7-8.3c4.5-4.8,10.1-8.2,16-11c4.6-2.2,9.3-4,13.9-6.1c9.6-4.5,25-6.9,31.8-8.2
		c3.5-0.6,7.1-1.1,10.6-1.5c0.7-0.1,1.5,0.2,2.3,0.3c3.6,0.9,7-0.4,10.4-0.9c3.9-0.6,7.7-1.2,11.6-1.4c4.3-0.2,8.6,0.1,13-0.1
		c5.8-0.2,11.6-1,17.3-1.1c4.2-0.1,8.2,1,12.1,2.9c6.1,2.9,12.5,5.3,18.5,8.4c6.4,3.3,12.7,7,18.7,10.9c3.2,2.1,5.8,5.2,8.6,7.9
		c2.3,2.3,4.7,4.6,6.7,7.1c2.5,3.3,5,6.6,6.9,10.3c2.5,4.9,4.5,10.1,6.2,15.3c1.1,3.4,1.5,7.1,2,10.6c0.7,4.8,1.1,9.7,1.6,14.5
		c0.1,0.5,0.1,1.1,0.4,1.4c0.3,0.4,0.8,0.9,1.2,0.9c0.4,0,1-0.6,1-1c0.1-1.4,0.1-2.7,0.1-4.1c0-1.2,0-2.4,0-3.6
		c0.2,0,0.3-0.1,0.5-0.1c0.3,0.7,0.8,1.4,1,2.2c1.9,5.2,4,10.4,5.6,15.7c1,3.3,1.1,6.8,1.5,10.2c0.3,2.7,0.7,5.5,0.3,8.1
		c-0.6,4.5-1.6,9-2.7,13.4c-1,4.1-2.3,8.2-3.3,12.3c-0.2,0.8,2.3,1.7,2.9,1.1c0.3-0.3,0.4-0.8,0.8-1.5c0.3,1.2,0.5,2,0.6,2.8
		c0.5,2.9,1.3,5.8,1.3,8.7c0,4.1-0.4,8.3-1.3,12.3c-1,4.3-2.5,8.6-4.1,12.7c-4.3,10.4-9.1,20.6-15.4,30c-4.2,6.3-8.7,12.3-13,18.5
		c-0.7,1-1.1,2.1-2.1,3c0.2-1.7,0.4-3.4,0.5-5.2c0.2-2.8,0.2-5.5,0.4-8.3c0.5-5.6,0.8-11.2,1.6-16.7c0.7-4.8,2-9.6,2.8-14.4
		c0.1-0.6-0.4-1.7-1-2.1c-0.8-0.5-1.9-0.6-2.3,0.7c-0.4,1.2-0.7,2.4-1.1,3.6c-0.3,0.9-0.8,1.7-1.2,2.6c-0.3-0.1-0.6-0.2-0.8-0.2
		c0.2-2.5,0.5-5,0.6-7.5c0.2-3.5,0.4-7,0.3-10.5c-0.1-2.9-0.3-5.8-0.9-8.6c-0.5-2.2-1.2-8.5-5.4-7.1c-1.5,0.5,0.4,7.4,0.6,10.8
		c-0.4,0.2-0.5,0.3-0.6,0.3c-6-3-13.5-6.5-20.9-14.3c-2.9-3.1-5.6-1.8-4.9-0.3c1.8,4.2,4.8,7.3,8.5,9.9c0.8,0.6,1.7,1.2,2.8,2
		c-0.9,0.4-7.4,4.7-14.7,3.8c-7.3-0.9-15.1-5.9-16.2-6.9c-7-6.3-12.1-13.7-14.8-22.9c-1.8-6-2.5-11.9-2.4-18.1
		c0.1-3.6,1.9-16.3,2.6-18.9c0.3-1,0.5-2.1,0.7-3.1c0.2-1.1-0.4-1.7-1.3-1.6c-0.6,0-1.4,0.5-1.7,1c-1.8,3.5-3.6,7-5.3,10.5
		c-1.2,2.5-2.2,5.1-3.6,7.5c-1.9,3.3-3.9,6.8-6.3,9.7c-2.6,3.1-5.6,5.9-8.7,8.4c-2.9,2.2-6.3,4.1-9.7,5.6c-4.1,1.9-8.4,3.7-12.7,5.1
		c-12.4,2.5-24.2,0.9-28.9,0.7c3.6-5.1,8-11.5,9.7-15.6c1-2.4-2.1-3.7-3.4-2.1c-2.4,4.9-13.1,22.2-16.3,25.8
		c-2.1,2.4-4.6,4.4-6.9,6.6c-0.2,0.2-0.5,0.4-0.8,0.5c-0.2,0.1-0.4,0.2-0.8,0.1c3.1-4.4,4.4-14.7,3.1-18.4c-1.3-3.7-1.7-4.3-2.9-6.2
		c-0.5-0.7-1.9-0.9-2.9-1.2c-0.2,0.2-0.4,0.4-0.6,0.6c0.5,1.2,0.9,2.3,1.3,3.3c-4.8-1.2-8.5,1.5-11.4,5.1c-3.3,4.1-5.8,8.8-6.6,14.2
		c-0.5,3.3-0.1,6.6,2.4,10.6c-1.8-0.6-3.1-0.9-4.3-1.4c-2.2-0.9-4.4-1.6-6.4-2.7c-2.5-1.4-4.5-3.2-5-6.4c-0.1-0.8-1.7-1.3-2.6-1.9
		c-0.2,0.1-0.4,0.3-0.6,0.4c0,2.2,0.9,6.9,0.9,9.2c-2.4-2.4-2.4-2.4-3.2-2.3C125.1,224.4,121.9,236.9,119.1,249.7"/>
	<path class="st5" d="M208.7,222.6c0-0.3,0-0.7,0-1c-0.5,0-1.1,0.1-1.6,0c-0.6-0.1-3.7-1.1-9.3-2.6c-5.6-1.5-13.2-1.5-19.9-1.1
		c-1.5,0.1-3,0.7-5.1,1.2c1.2,0.3,1.8,0.6,2.4,0.6c5.7,0.8,11.3,1.7,17,2.3c4.5,0.5,9.1,0.8,13.6,1.1
		C206.7,223.3,207.7,222.9,208.7,222.6"/>
	<path class="st5" d="M264.4,233c0.1,1.9,2.3,1.5,3.4,1.6c6,0.5,11.9,0.8,17.9,1.3c2.1,0.2,4.2,0.4,6.3,0.7c2.1,0.3,4.2,0.7,6.2,1.1
		c-0.3-0.8-0.7-1.2-1.2-1.5c-5.8-3.5-12.4-4.4-19-5.1c-3.1-0.3-6.1-0.5-9.2-0.8C267.6,230.4,264.3,231.1,264.4,233"/>
	<path class="st3" d="M140.8,466.6c-0.5-0.1-1-0.2-1.5-0.3c-0.6-0.1-1.1-0.1-1.6,0c-0.3,0-0.6,0-0.8,0c-1.9-0.1-3.8-0.2-5.7-0.2
		c-4.2-0.2-8.5-0.4-12.7-0.4c-1.9,0-3.9,0.1-5.8,0.3c-1.3,0.1-2.6,0.2-3.8,0.3c-0.7,0-1.5,0-2.3-0.1c-0.9-0.1-1.8-0.1-2.7-0.1
		c-2.2,0.1-4.4,0.2-6.6,0.3c-2.9,0.2-5.9,0.3-8.8,0.4c-1.4,0-2.8-0.1-4.3-0.2c-1.5-0.1-3-0.2-4.5-0.2c-2.3,0.1-4.7,0.2-6.9,0.4
		c-1.5,0.1-3,0.2-4.5,0.3c-0.9,0-1.7,0-2.7,0c-0.9,0-1.9,0-2.8,0c-3.3,0.2-6.5,0.4-9.8,0.5c-3.4,0.2-6.9,0.4-10.3,0.6
		c-1.2,0.1-2.5,0.1-3.7,0.1c-1,0-2,0-3,0c-2.8,0.1-5.9,0.2-9.3,0.3c1.9-7.6,11.7-51.3,13.1-56.1c0.9-3,1.8-6,3.3-8.7
		c3.1-5.2,6.7-10,9.8-15.2c2.4-4,4.1-8.3,6.4-12.3c1.9-3.3,4.7-6.5,8.8-7.3c4.1-0.7,14.8-1.3,19-1.9c3.2-0.4,6.4-0.8,9.6-1.1
		c5.3-0.5,10.6-0.9,15.9-1.3c3.2-0.2,6.4-0.3,9.6-0.4c4.4-0.1,8.8,0,13.1,0c-1.3,5-2.7,9.8-3.8,14.7c-0.7,3.4-1.3,6.9-1.4,10.4
		c-0.1,6,0,12,0.4,17.9c0.4,5.7,0.8,11.4,2,16.9c2,9.7,4.4,19.3,7,28.8c1.4,5.3,2.9,8.5,4.7,13.6c0,0,0,0,0,0c-1.2,0-2.1,0-2.3-0.1
		C141.6,466.8,141.2,466.7,140.8,466.6"/>
	<path class="st3" d="M72.3,365.8c22.2-7.4,44.6-13.2,68.1-13.5c-1,2.4-2.1,5.1-3.4,7.8c-0.2,0.4-1.2,0.7-1.8,0.7
		c-2,0-18.9,1.2-26.4,1.3C102,362.2,74.4,365.6,72.3,365.8"/>
	<path class="st3" d="M224.2,467.3c-10.1-0.1-20.6-0.2-30.9-0.2c-5.9,0-11.9,0-17.8,0c-6.5,0-13.3,0-19.9,0l-1.3,0
		c-1.4,0-3.7,0-5.9,0c-0.1-0.8-0.5-1.6-0.8-2.4c-1.4-3.8-2.9-7.6-4-11.5c-2.3-8.1-4.6-16.3-6.5-24.5c-1.3-5.7-1.8-11.5-2.5-17.2
		c-0.4-2.9-0.6-5.9-0.8-8.9c-0.2-2-0.3-5.3-0.3-7.3c0.1-3.7,0.3-9.8,1.6-15.4c1.5-6.1,2.7-10.6,3.9-13.7c1.5-4.1,3.2-8.1,4.9-12.1
		c0.4-0.9,0.7-1.3,1.8-0.3c1.6,1.4,1.8,3.3,2.5,5c1,2.1,1.1,4.3,0.4,6.6c-0.8,2.5-5,19.7-5.3,26.1c-0.3,5.3,0,10.5,0.7,15.6
		c1.1,7.2,3,14.3,4.7,21.4c1.5,6.1,3.8,11.9,6.7,17.5c2,4,4.2,7.9,8,10.6c4.9,3.5,10.1,5.1,16,4c3.5-0.6,6.9-1.7,10.4-2.4
		c3.4-0.7,7-1,10.2-2.1c5.1-1.8,10-4.3,15.1-6.3c8.2-3.1,16.4-6.2,23.8-11.1c4.8-3.2,9.8-6.1,14.7-9.2c3.9-2.5,8-4.9,11.4-8
		c5.6-5.1,11.1-10.4,16.1-16.1c5-5.5,9.6-11.4,13.9-17.5c4.1-5.8,7.7-12,11.5-18c2.3-3.7,4.5-7.5,7.9-10.3c1.6-1.3,2.6-3.8,5.5-2.4
		c2.3,1.1,4.8,1.8,7.1,3c1.7,0.9,10.8,6.1,13.9,7.6c-2.4,3.5-4.4,6.6-6.6,9.6c-2.2,3.1-4.5,6.2-6.8,9.2c-1.6,2.1-3.5,4-5.1,6.1
		c-1.6,2.2-3.1,4.5-4.7,6.7c-5.6,7.8-11.3,15.6-17,23.2c-1.6,2.2-3.3,4.3-5.1,6.4c-2.5,2.9-5,5.9-8,8.1
		c-6.9,5.2-14.1,10.1-21.4,14.7c-6,3.7-12.3,6.9-18.5,10.3c-1.4,0.8-6.2,3.6-9.3,5.5C233.7,467.4,229,467.3,224.2,467.3"/>
	<path class="st3" d="M408.1,468.5c-7.4-0.1-15-0.2-22.5-0.3c-3.3,0-6.6,0.1-9.9,0.3l-1.4,0.1c-1.6,0.1-3.1,0.2-4.7,0.3
		c-2.5,0.2-5.1,0.4-7.6,0.4c-1.6,0-3.2-0.2-4.9-0.4c-1-0.1-2.1-0.2-3.2-0.3c-0.7,0-1.4-0.1-2.1-0.1c-0.5,0-0.9,0-1.4,0
		c-0.4,0-0.9,0-1.3,0c-1.6,0-3.2,0-4.8,0c-3.4,0-6.9,0-10.3,0c-2.9,0-5.7-0.1-8.6-0.2c-3.9-0.1-8-0.3-12-0.3c-2.9,0-5.8,0.1-8.6,0.3
		c-2.3,0.1-4.7,0.2-7,0.2c-1.5,0-2.9-0.1-4.5-0.3c-1-0.1-1.9-0.2-2.9-0.3c-0.6,0-1.2,0-1.7,0.1c-0.3,0-0.7,0.1-1,0.1l-2,0
		c-3.6,0-7.4,0-11,0c-4.6-0.1-9.4-0.2-13.9-0.3l-2.7-0.1c-2-0.1-4-0.1-6.1-0.2c-1.5,0-3.1-0.1-4.6-0.1c4-2.4,8.8-5.8,12.4-7.8
		c3.7-2,7.4-4.2,11-6.5c5.5-3.5,10.9-7.1,16.3-10.7c5.5-3.6,9.6-8.6,13.7-13.5c6.2-7.5,11.6-15.7,17.3-23.6
		c3.6-5.1,7.2-10.2,10.4-14.7c3.5,0.9,24.3,6.2,30.9,9.3c11.9,5.5,26.6,15.7,30.7,20.8c4.8,6,8.8,12.4,11.9,19.3
		c2.9,6.3,7.9,21.4,10.5,28.4C410.9,468.5,409.5,468.5,408.1,468.5"/>
	<path class="st3" d="M428.2,469.3c-2.3,0-4.7-0.2-7-0.4c-1.1-0.1-2.2-0.2-3.3-0.3c-0.3,0-0.6,0-0.9,0l-0.1,0c-0.2,0-0.4,0-0.6,0
		c0-0.2-0.1-0.3-0.1-0.5c-1.9-5.2-6.9-19.2-9-24.4c-2.9-7.3-6.5-14.4-11.3-20.7c-2.9-3.8-5.6-7.8-9.6-10.7
		c-2.9-2-16.4-10.8-20.5-12.9c-5.8-3-29.5-10.1-34.5-11.2c4.4-6.4,8.6-12.4,12.6-18.2c2,0.9,3.8,1.8,5.6,2.5
		c2.5,1,34.7,17.6,38.1,19.6c4,2.4,16.4,10.7,18.1,12.7c6,5.2,10.1,10.3,13.8,16.7c5.1,9,13.4,26.7,16.8,36.5
		c1.1,3.2,2.2,6.5,3.1,9.8c0.1,0.4,0.2,0.8,0.4,1.1C435.8,469.1,432,469.2,428.2,469.3"/>
	<path class="st6" d="M465.9,137.4c0,1.8-0.1,3.6-0.2,5.4c-0.1,1.7-0.2,3.5-0.2,5.3c-0.1,3.5-0.1,7-0.1,10.4
		c-0.1,6.1-0.1,12.5-0.3,18.7c-0.2,6.2-0.6,12.5-1,18.7c-0.2,2.8-0.4,5.7-0.5,8.5l-0.1,1.5c-0.1,2-0.2,3.9-0.3,5.9l-0.2,5.1
		c-0.2,5.9-0.5,12-0.6,18c-0.1,5.8-0.1,11.6,0,17.3c0,1.6,0.1,3.1,0.2,4.6c0.1,1.8,0.2,3.6,0.2,5.4c0,2.4-0.1,4.9-0.2,7.2
		c-0.1,2.8-0.2,5.6-0.2,8.5c0.1,17.4,0.2,35.2,0.3,52.3l0.1,6.9c0,2.9,0.1,5.8,0.1,8.6c0.1,4,0.1,8.2,0.1,12.3
		c0,5.4-0.1,10.8-0.2,16.1l-0.1,5.2c0,3.1-0.1,6.2-0.1,9.3c-0.1,6.3-0.2,12.7-0.2,19.1c0,6.9,0.2,13.9,0.4,20.4
		c0.1,2.4,0.2,4.8,0.3,7.1c0.2,2.9,0.3,5.9,0.4,8.9c0.1,5.9,0.1,11.8,0.1,17.6c0,2,0,4.1,0,6.2c-1,0-2,0.1-2.9,0.1
		c-3,0.1-5.7,0.3-8.5,0.4l-4.2,0.1c-1.3,0-2.6,0.1-4,0.1c-2-5.7-9.6-25.7-11.8-30.7c-2-4.6-4.5-9-7-13.3c-2.2-3.8-4.7-7.5-7.3-11.2
		c-1.4-1.9-3-3.7-4.6-5.4c-2.5-2.7-4.8-5.6-7.6-7.9c-3.2-2.7-19.1-13-24-15c-5.1-2.2-33.3-17.1-34.2-17.7
		c-3.7-2.1-21-12.6-23.2-13.2c-2.3-0.6-6.7-2.2-10-0.4c-5.6-2.2-7.1-3.5-12-11.1c2.3-3.1,5.2-5.8,6.6-9.2
		c8.2-20.3,12.4-42.2,13-44.4c0.3-1.1,1.5-1.8,1.9-2.9c2.4-6.2,6.1-11.6,10.1-16.8c3.1-4.1,6.2-8.2,8.9-12.7
		c3.1-5.1,5.6-10.5,8.4-15.8c3.8-7.2,7-14.7,9.4-22.6c1.6-5.3,2.3-10.7,2.2-16.2c-0.1-3.9-1.7-15.2-3.9-15.8
		c0.9-3.2,1.7-6.4,2.6-9.5c1.2-4.5,2.8-8.9,2.5-13.7c-0.3-4.5-0.4-9-1.2-13.4c-0.9-4.5-2.3-9-3.8-13.3c-1.1-3.3-5.7-12.6-7.2-12.5
		c-0.9-5-1.4-9.9-2.7-14.6c-1.3-4.7-3.2-9.2-5.2-13.6c-2.3-5-4.8-10-8.8-14c-2.1-2.2-4.4-4.2-6.2-6.7c-3.4-4.5-7.9-7.8-12.5-10.9
		c-4.8-3.3-10-6-15.2-8.6c-5.8-2.9-11.8-5.3-17.5-8.1c-4.1-2-8.2-3.6-12.7-4.2c-2.1-0.3-4.2-0.6-6.3-0.5c-3.2,0.2-6.5,0.8-9.7,1.1
		c-0.5,0-17,0.2-20,0.5c-2.7,0.2-16,3.4-20.2,2.3c-0.6-0.2-1.3-0.2-1.9-0.1c-2.7,0.3-5.4,0.8-8,0.9c-17.3,2.1-39.7,7.3-56.7,19.1
		c-3.2,2.4-10.1,6.4-12.1,9.9c-2.1,3.8-4.9,6.7-8.4,9c-4.4,2.8-9,5.4-13.5,8.1c-6.5,3.8-11.9,9.2-15.7,15.7c-2.3,3.8-4.5,7.8-5.6,12
		c-1.6,5.9-2,12.1-2.9,18.1c-0.4,2.9-0.5,5.9-0.9,8.8c-0.5,3.8-1.3,7.5-1.8,11.3c-0.8,6.1-2.3,12-5,17.5c-1,2.1-1.9,4.2-2.7,6.3
		c-0.6,1.4,0.4,2.4,1.4,2.9c1.2,0.6,1.8-0.5,2.2-1.5c0.3-0.8,0.6-1.5,1-2.3c0.3-0.7,0.6-1.5,0.9-2.2c0.3,0.1,0.5,0.1,0.8,0.2
		c-0.8,4.5-1.2,9-2.4,13.4c-1.4,5.1-1.8,10.4-1.9,15.6c0,3.8,1.1,7.8,2.3,11.5c1.6,5,4.2,9.7,8.4,13.1c2.1,1.7,2.9,3.8,2.8,6.5
		c0,0.7,0.2,1.4,0.2,2.1c0.2,3.3,0.8,6.6,0.4,9.8c-0.8,6.2,0.1,12,3.3,17.2c3.9,6.4,8.8,12.1,13.9,17.5c0.4,0.4,4,2.3,4.7,3.8
		c0.4,0.9,1.4,1.4,2.1,2.2c0.6,0.6,1.3,1.3,1.4,2c0.4,1.9,0.6,3.8,0.9,5.7c0.8,6.3,1.4,12.7,2.4,18.9c1.4,8.8,5.8,16.1,11.5,22.7
		c1.6,1.8,3,3.7,4.8,5.9c-2.7,0.1-5,0.1-7.2,0.4c-7,0.8-14.1,1.7-21.1,2.7c-4.1,0.6-8.2,1.3-12.2,2.3c-4.1,1-21.8,5.4-26.4,7.2
		c-5.3,2.1-10.8,4.3-14.5,9.2c-1.4,1.9-3.1,3.7-3.8,5.9c-2.3,6.5-6.5,12-10.4,17.5c-3.9,5.4-6.4,11.3-8.4,17.4
		c-1.5,4.6-11.7,51.2-12.8,55.9c-0.1,0.6-0.1,1.2,0.1,1.8c-0.2,0-0.3,0-0.5,0c-1.2,0.1-2.5,0.2-3.7,0.2c-2.9,0.1-5.8,0.1-8.7-0.1
		c-0.4,0-1-0.3-1.6-0.6c-0.2-0.1-0.4-0.2-0.6-0.3c0-1.1,0-2.2,0-3.3c0-3.2,0-6.5,0-9.7c0-2.3,0.1-4.6,0.2-7
		c0.1-3.8,0.2-7.8,0.2-11.7c-0.1-5.3-0.3-10.8-0.5-16c-0.1-3.7-0.3-7.4-0.4-11.1c-0.2-5.7-0.2-11.4-0.2-16.9c0-2.7,0.1-5.5,0.2-8.2
		c0.1-3.6,0.2-7.2,0.2-10.9c0-3.8-0.2-7.7-0.4-11.5c-0.1-2.8-0.2-5.7-0.3-8.5c-0.1-4.5-0.1-9.2-0.1-15.4c0-2,0.1-4.1,0.2-6.1
		c0.1-2.1,0.1-4.3,0.2-6.4c0-1.3-0.1-2.5-0.2-3.7c-0.1-1.2-0.2-2.3-0.2-3.5c0.1-8.5,0.1-17,0.2-25.6c0-5,0.1-10.1,0.1-15.1
		c0-2.6,0-5.2,0-7.8l0-3.6c0-1.6,0-3.2,0-4.8c0-3.7,0-7.5,0-11.2c0-1.7,0.1-3.4,0.2-5c0.1-1.9,0.2-3.9,0.2-5.9c0-1.7-0.1-3.3-0.2-5
		c-0.1-1.6-0.2-3.3-0.2-4.9c0-2.4,0.1-4.9,0.2-7.3c0.1-2.8,0.2-5.6,0.2-8.4c0-1.6,0-3.1,0-4.7c0-5.6,0.1-11.4-0.5-17
		c-0.7-7.6-0.7-15.3-0.6-22.8c0-2.3,0-4.5,0-6.8c0-6,0.1-12,0.2-17.9c0.1-5.2,0.2-10.6,0.2-16c0-4.1-0.1-8.4-0.3-12.4
		c-0.1-2.8-0.2-5.5-0.2-8.3c0-1.8,0-3.6,0.1-5.3c0-1.5,0.1-2.9,0.1-4.4c0-0.7-0.1-1.4-0.2-2.1c-0.1-0.6-0.2-1.2-0.2-1.7
		c0-3.2,0.1-6.3,0.2-9.5c0.1-4.1,0.2-8.3,0.2-12.5c0-1.8-0.1-3.7-0.2-5.5c-0.1-1.3-0.1-2.7-0.2-4.1c0-0.5,0.1-1,0.2-1.5
		c0.1-0.7,0.2-1.4,0.2-2.1c-0.1-1.5-0.2-3-0.3-4.5c-0.1-2.1-0.3-4.2-0.3-6.3c0-1.9,0.1-3.9,0.3-5.8c0.1-1.4,0.2-2.9,0.3-4.3
		c0-1.1,0-2.3-0.1-3.3c-0.1-1.2-0.1-2.3,0-3.5c0.2-3.5,0.4-7.1,0.6-10.6c0.2-3.1,0.4-6.1,0.6-9.2c0.1-1.1,0-2.1-0.1-3l1.2-0.2
		C11,8,13.2,7.6,15.4,7.3l0.2,0c0.6-0.1,1.2-0.2,1.7-0.2c4.7-0.1,9.6-0.3,14.3-0.4c1.7,0,3.5-0.1,5.2-0.1C42.5,6.4,48.3,6.3,54,6.3
		c4.7,0,9.6,0.1,14.2,0.2c3.4,0.1,6.9,0.1,10.3,0.2c3.2,0,6.4,0,9.7,0c3.3,0,6.5,0,9.8,0c5.6,0.1,11.2,0.2,16.7,0.3l3.1,0.1
		c1.7,0,3.3,0.1,5,0.2c3.1,0.1,6.3,0.2,9.5,0.2c3.4-0.1,6.9-0.2,10.2-0.4c3-0.1,6.1-0.3,9.1-0.3c8.1-0.2,16.4-0.2,24.4-0.2l1.1,0
		c1.6,0,3.2,0.1,4.8,0.1c1.2,0,2.5,0.1,3.7,0.1c8.8,0.1,17.6,0.2,26.5,0.3c0.5,0,1.1-0.1,1.6-0.2c0.4-0.1,0.8-0.1,1.1-0.1
		c1.2,0,2.4,0,3.7,0.1c3.5,0,7.1,0.1,10.6,0.3c13.4,1,26.9,0.9,40,0.8c6.1-0.1,12.5-0.1,18.7,0c3.5,0,7-0.2,10.4-0.4
		c2.1-0.1,4.3-0.3,6.5-0.3c5.9-0.2,12.1-0.4,18.3-0.3c2.2,0,4.5,0.2,6.7,0.3c2.2,0.2,4.4,0.3,6.6,0.3c2.5,0,4.9-0.1,7.3-0.2
		c2.3-0.1,4.8-0.2,7.1-0.1c2,0,4.1,0.2,6.1,0.3c2,0.2,4,0.3,6,0.3c2.1,0,4.2-0.1,6.2-0.1c2-0.1,4-0.2,6.1-0.1
		c3.6,0.1,7.3,0.3,10.9,0.5c1.6,0.1,3.3,0.2,4.9,0.3c0.4,0,0.7,0,1.1,0l0.4,0c2.6,0,5.1,0,7.7,0c6,0,12.2,0,18.3,0
		c3.3,0,6.7,0.1,9.9,0.2c1.8,0.1,3.6,0.1,5.4,0.1l4.1,0.1c4.4,0.1,9,0.2,13.6,0.3c2,0,4.1-0.1,6.1-0.2c0.8,0,1.5-0.1,2.3-0.1
		c1.8-0.1,3.4,0.5,4.4,1.5c0.2,0.3,0.1,1.4,0.1,2c0,0.4,0,0.7,0,1c0,0.2-0.1,0.6-0.2,0.9c-0.1,0.5-0.3,1-0.3,1.6l0,2.3
		c0,4.8-0.1,9.8,0,14.7c0.2,8.9,0.5,17.9,0.8,26.4c0.1,2.5,0.2,5.1,0.3,7.6c0.2,3.3,0.3,6.7,0.4,10c0.1,5.7,0.2,11.6,0.3,17.2
		c0,3.4,0.1,6.8,0.1,10.2c0,2.9,0.1,5.7,0.2,8.6c0.1,3.7,0.2,7.3,0.2,11C465.9,128.3,465.9,132.9,465.9,137.4"/>
</g>
</svg>
