<?xml version="1.0" encoding="utf-8"?>
<!-- Generator: Adobe Illustrator 19.1.0, SVG Export Plug-In . SVG Version: 6.00 Build 0)  -->
<svg version="1.1" id="Calque_1" xmlns="http://www.w3.org/2000/svg" xmlns:xlink="http://www.w3.org/1999/xlink" x="0px" y="0px"
	 viewBox="0 0 465.3 471.6" style="enable-background:new 0 0 465.3 471.6;" xml:space="preserve">
<style type="text/css">
	.st0{fill:#72B52B;}
	.st1{fill:#71519B;}
	.st2{fill:#C0BFBF;}
	.st3{fill:#EDE5F2;}
	.st4{fill:none;stroke:#72B52B;stroke-width:4;stroke-linecap:round;stroke-miterlimit:10;}
	.st5{fill:none;stroke:#71519B;stroke-width:4;stroke-linecap:round;stroke-miterlimit:10;}
	.st6{fill:#6EA1C1;}
	.st7{fill:#BFBEBE;}
	.st8{fill:#55358A;}
	.st9{fill:#FFFFFF;}
	.st10{fill:#FFFFFF;stroke:#71519B;stroke-width:3;stroke-miterlimit:10;}
	.st11{fill:#FFFFFF;stroke:#72B52B;stroke-width:3;stroke-miterlimit:10;}
	.st12{fill:none;stroke:#FFFFFF;stroke-width:3;stroke-miterlimit:10;}
	.st13{fill:#F2BF00;}
</style>
<g>
	<g>
		<path d="M204.1,230c0.6,1.3,1.2,2.6,1.9,4.1c2.6,0.6,5.5,0.4,8.2-1c3.8-1.8,7.5-2.8,11.7-0.9c2.3,1.1,4.9,1,7-1.2
			c1.9-1.9,4.5-2.6,7.1-2c5.9,1.3,11.7,0.8,17.4-1.1c0.2-0.1,0.5,0,0.6,0c-0.5-0.8-1.1-1.7-1.9-3c1.2-0.3,2-0.7,2.6-0.6
			c3.2,0.8,5,6.8,2.8,9.4c-0.7,0.8-2,0.7-2.4-0.4c-0.2-0.5,0-1.1,0-1.4c-2.2,1.4-4.3,2.9-6.6,4.1c-10.6,5.4-21.8,6.6-33.5,5.3
			c-2.8-0.3-5.5-1-8.1-1.9c-2.6-0.9-5.3-1.7-8.3-2.7c-0.2,1.2-0.5,2.4-0.7,3.6C197.9,238.2,198.8,233.5,204.1,230z M215.1,237.2
			c11.3,1.7,22.4,1.8,32.9-3.4c-2-0.5-4.1-0.4-6-0.9c-3-0.8-5.3-0.3-7.7,1.7c-2.7,2.3-6.1,2.7-9.3,1.1
			C221.3,233.9,218.1,234.9,215.1,237.2z"/>
		<path d="M247.2,127.8c0.9-0.2,1.6-0.5,2.4-0.6c5.7-0.4,11.4-1.1,17.2-1.2c5-0.1,9.5,1.7,12.9,5.4c1.5,1.7,2.6,3.7,3.9,5.6
			c-0.4,1.4-1.2,1.9-2.6,1.7c-1.4-0.3-2.8-0.4-4.1-0.9c-5.2-2-10.5-1.7-15.9-1.1c-2.7,0.3-5.3,0.7-7.9,1.2c-4.9,0.9-6.8-2.5-6.6-6.5
			C246.5,130.4,246.9,129.3,247.2,127.8z M249.6,134.5c2-0.2,3.7-0.3,5.5-0.4c4.2-0.4,8.3-1.1,12.5-1.1c3.3,0,6.7,0.7,10.1,1.1
			c-0.1-0.2-0.2-0.6-0.5-0.9c-3.6-3.1-7.8-4-12.4-3.7c-4.2,0.3-8.4,0.6-12.5,0.8C249.4,130.5,249.3,130.6,249.6,134.5z"/>
		<path d="M240.7,246.3c-0.9,0.8-1.7,1.9-2.7,2.3c-3.2,1.3-6.5,2-10,1.8c-1.8-0.1-2.5-0.9-2.2-2.8c4.8-0.7,9.6-1.4,14.5-2.1
			C240.4,245.7,240.6,246,240.7,246.3z"/>
		<path d="M239.4,210.8c6.2-2.1,6.2-2.1,6.9-7.8c2.6,0.9,3.8,4.3,2.3,6.6c-1.5,2.3-4,3.2-6.5,3.5
			C241.3,213.1,240.5,211.9,239.4,210.8z"/>
		<path d="M223.4,213.6c2.8,0.7,5.5,0.4,7.9-2.1c0.6,1,1.1,1.8,1.6,2.5c-1.8,2.7-4.2,3.6-7,3.4C223.6,217.2,223.3,216.7,223.4,213.6
			z"/>
		<path d="M213.5,214c-5.3,0.3-7.4-2.8-5-7.7c0.8,0.7,2.1,1.5,1.9,2c-0.6,2.5,1.2,3.3,2.7,4.4C213.4,212.9,213.4,213.5,213.5,214z"
			/>
		<g>
			<path class="st0" d="M341.6,303.7c0.1,1.5,0.1,2.4,0.2,3.4c0.1,1.4,0.5,2.9,0.2,4.2c-1.2,5.5-2.6,10.9-4,16.3
				c-0.7,2.8-1.9,5.6-2.4,8.5c-1.6,10.2-6,19.5-9.2,29.1c-2.4,7.1-5.7,13.9-8.8,20.8c-0.8,1.8-2,3.6-3.2,5.2
				c-4.8,6.1-9.6,12.2-14.6,18.2c-3.9,4.7-7.7,9.5-12,13.8c-5.8,5.8-13.1,9.7-20.5,13.2c-5.3,2.6-10.6,5.1-16.5,5.6
				c-4.6,0.4-9,1.5-13.7,1c-6.7-0.8-13.4-1.6-19.8-3.9c-5.5-2-11.1-3.7-16.4-6.3c-8.1-4-15.4-9.5-21.7-16.1
				c-1.2-1.3-2.3-2.7-3.6-3.9c-9.8-9.2-18.7-19.3-27.1-29.7c-7.5-9.2-15.2-18.2-23.3-26.9c-5.9-6.3-9.7-14-12-22.4
				c-0.6-2.1-0.7-4.3-1.1-6.8c-2,2.2-3.9,3.9-5.4,5.9c-6.2,8.3-14,15.1-20.4,23.3c-5.5,7-11.9,13.3-17.9,19.9
				c-0.9,0.9-1.7,1.9-2.5,2.9c-5,5.7-10.9,10.7-14.6,17.6c-1.2,2.1-1.5,3.6-0.4,5.9c4.9,9.6,11,18.4,17.8,26.7
				c8,9.8,16.4,19.2,24.6,28.9c1.5,1.7,3.3,2.1,5.4,2.1c7,0,14,0,21-0.1c5.5,0,10.9-0.1,16.4,0c6.1,0.1,12.2,0.3,18.3,0.6
				c3.8,0.2,7.6,0.7,11.4,0.9c9.9,0.4,19.9,0.4,29.8,1.1c7.9,0.6,15.8,0.2,23.7,0.1c6.5-0.1,13-0.5,19.5-0.1
				c11.8,0.8,23.6,0.8,35.5,0.6c9.7-0.2,19.3-0.1,29-0.2c3.9,0,7.9-0.2,11.8-0.4c7.1-0.3,14.2,0,21.3-0.8c5.1-0.6,10.4,0.2,15.7,0.3
				c2.9,0.1,5.8,0,8.4,0c2.5-4.8,4.7-9.2,7.2-13.5c4.2-7.3,9-14.2,12.7-21.7c5.3-10.6,10.1-21.5,14.6-32.4
				c3.9-9.3,7.2-18.8,10.7-28.3c0.8-2.1,0.8-4.2-0.5-6.2c-4.7-7.7-9.3-15.6-14.2-23.2c-2.3-3.6-5-7.1-8.1-10.1
				c-4.7-4.6-9.4-9.5-15.5-12.3c-5.1-2.4-10.2-4.7-15.3-6.9C348.8,306,345.4,305,341.6,303.7z"/>
			<path class="st0" d="M87.1,9.2c-3.9,0-8.1-0.3-12.2,0.1C71,9.7,67.3,9.2,63.5,8.8c-5.4-0.6-10.9-0.9-16.4-0.8
				c-6.9,0-13.7,0.9-20.6,0.2C23.3,7.8,20.1,7.8,17,8c-2.2,0.2-4.4,0.7-6.5-0.2C10.3,7.7,10,7.9,9.5,8.2c0.2,3.7,0.7,7.5,0.7,11.3
				c0,4.8-0.4,9.7-0.6,14.5c-0.1,2,0.1,4.1-0.3,6.1c-1.7,8.4-1.8,17-1.8,25.5c0,7,0.8,14,1.3,21c0.3,4.7,0.5,9.4,0.8,13.9
				c4.1,2.4,7.3,4.9,8.6,9.6c0.6,2.2,2.2,4.3,4.8,4.9c3.5-3.8,5.3-3.8,8.8-0.2c0.3,0.3,0.5,0.6,0.8,0.9c1.2,1.6,2.9,2.1,4.8,1.8
				c4.4-0.5,8.4-1.8,11.8-4.8c0.9-0.8,1.7-1.6,2.6-2.2c2.2-1.5,4.1-1.1,5.7,0.9c0.5,0.7,1,1.5,1.3,2.3c0.6,2.2,2.1,3.1,4.3,2.9
				c0.9-0.1,1.8,0,2.7,0.2c3,0.8,5.1-0.7,6.4-3c1.3-2.1,2.1-4.6,2.7-7.1c0.5-2.5-0.3-5.3-2.4-6.5c-4.1-2.6-3.1-6.4-3.8-10
				c5.8-1.3,9.1-0.1,11.8,4.4c0.8,1.4,1.4,3,2.2,4.4c2.1,3.6,3.9,7.6,6.6,10.7c3.4,3.9,8.4,4.2,11.5-1.5c2.5-4.4,3.8-9.1,3.9-14.2
				c0.1-3.3,0.6-6.2,4.7-6.6c0.2,0,0.4-0.3,0.2-0.2c2.1-4.5,2.4-9.5,7.7-11.6c2.7-1.1,2.8-6.2,0.1-7.4c-3.4-1.4-5-4.1-6.8-6.9
				c-2.3-3.8-2.2-6.5,0.3-10.1c2-2.7,3.8-5.5,5.7-8.4c6,1.5,12,2.6,17.4,6.5c2.3-2,4.4-3.5,6.1-5.5c1.9-2.1,1.6-3.5-0.3-5.7
				c-1.1-1.3-2-2.8-2.8-3.9c2.8-4.2,5.2-7.8,7.6-11.4c-1.3-2.1-2.6-1.8-4.2-1.1c-3,1.4-6.1,2.6-9.1,3.9c-1.3,0.5-2.4,0.4-3.5-0.7
				c-3.2-3.2-5.1-3.3-8.6-0.6c-1.5,1.2-3,2.2-4.9,1.5c-2.2-0.7-4.3-0.4-6.4-0.1c-1,0.2-2,0.3-3,0.2c-2.1-0.2-2.9-1.6-1.9-3.4
				c0.7-1.3,1.9-2.3,3-3.3c1.2-1.1,2.1-2.1,1.6-3.9c-5.8-0.5-10.6,2.8-15.6,3.6C88,16.9,89.6,12.4,87.1,9.2z"/>
			<path class="st0" d="M363.9,462.3c3.5-0.3,6.2-0.8,8.9-0.8c8.4,0.1,16.8,0.6,25.1,0.8c8.4,0.2,16.8,0.3,25.3,0.5
				c1.4,0,2.3-0.4,3.2-1.5c3.6-4.4,6-9.5,7.3-15c0.8-3.3,0.6-6.5-0.5-9.8c-2.9-8.3-5.5-16.7-8.4-25c-3.7-11-7.4-22-11.3-32.9
				c-1.2-3.6-2.9-7-4.4-10.6c-6.6,16.3-13,32.3-19.5,48.1C383.2,432.3,372.6,446.3,363.9,462.3z"/>
			<path class="st0" d="M8,201.1c1.6,0.1,2.7,0.4,3.8,0.3c3.7-0.4,7,0.7,10.1,2.7c1.1,0.7,2.6,1.3,3.9,1.4c5.6,0.7,11.1,1.6,16.5,3
				c7,1.8,14.3,2.6,21.3,4.1c2.9,0.6,5.2,0.4,7.8-1.2c5.9-3.6,7.6-6.4,6.6-13.2c-0.1-0.8-0.7-1.4-1.2-2.3c-1.3,0.9-2.3,1.8-3.4,2.3
				c-2.9,1.5-5.4,0.3-6-2.9c-0.3-1.5-0.5-3.1-0.3-4.6c0.5-2.8-0.9-4.3-3-5.6c-0.9-0.5-1.7-1.1-2.7-1.5c-1.6-0.8-2.6-1.9-2.9-3.7
				c-0.7-3.5-2.9-6-5.7-7.7c-5.4-3.2-11.2-5.7-17.8-3.6c-0.7,0.2-1.6,0.2-2.3,0c-4.9-2-8.6,1.1-12.4,3.1c-1.4,0.7-2.7,1.2-4.2,1.3
				c-3.1,0.2-6.2,0.5-9.7,0.7C6.8,183.1,7.2,192.1,8,201.1z"/>
			<path class="st0" d="M33.2,460.4c19.1,1,37.7,1.7,56.8-0.3c-0.7-1.2-1.2-2.2-1.9-3c-4.2-4.8-8.4-9.6-12.6-14.3
				c-9.9-11-18.8-22.8-25.9-35.8c-0.6-1.1-1.1-2.3-1.6-3.4c-0.2,0.1-0.4,0.2-0.7,0.2C42.6,422.4,38,441.1,33.2,460.4z"/>
		</g>
		<path class="st1" d="M450.1,160.6c-2.1,0.3-4,0.4-5.8,0.8c-8.5,1.8-16.8,4.1-25.4,5.3c-8.1,1.1-16,3.5-23.9,5.2
			c-1.6,0.4-3.2,0.7-4.8,1c-8.7,1.4-17.4,2.7-26,4.3c-7.8,1.4-15.6,2.8-23.3,4.6c-3.7,0.8-7.2,2.5-10.8,3.7c-1.4,0.5-2,1.5-2.2,2.9
			c-0.8,8.2-4,15.5-7.3,22.8c-0.4,0.8-0.8,1.9-1.4,2.1c-0.9,0.2-1.9-0.4-3.1-0.6c-0.6,0.9-1.1,1.9-1.8,2.8c-0.4,0.5-1.2,1.3-1.7,1.2
			c-1.6-0.3-1.9,0.7-2.6,1.7c-1.1,1.7-2.3,3.4-3.5,5c-2.9,3.7-5.7,7.4-7.1,12.1c4.2,2.3,8.4,4.1,13.1,4.3c2,0.1,4,0.9,5.9,1.5
			c5,1.3,10,2.8,15.1,4c9.3,2.1,18.8,1.3,28.2,1.2c4.7-0.1,9.3-1.3,14-0.1c1.7,0.4,3.5,0.8,5.1,1.5c5.9,2.3,12.1,2.8,18.3,3.7
			c10.4,1.5,20.1,5.7,29.6,10.1c5.1,2.3,10.1,4.9,15.3,7c2.5,1,5.3,1.3,8.4,2c0.2-9.2,0.4-17.9,0.5-26.7c0-4.7-0.2-9.4-0.4-14.2
			c-0.1-3.2-0.2-6.4-0.4-9.6c-0.5-8.3-2.1-16.6-1.5-25c0.4-5.5,0.1-11,0.1-16.5c0-5.2,0-10.4,0-15.6
			C450.4,162.2,450.2,161.5,450.1,160.6z"/>
		<path class="st2" d="M452.1,275c-1.7-0.5-3.2-1-4.8-1.5c-2-0.6-4.2-1.1-6.1-2c-9-3.9-17.9-8-26.9-11.9c-6.3-2.7-12.8-4-19.6-4.9
			c-4.9-0.6-9.8-1.7-14.5-3.4c-3.9-1.4-7.7-2.1-11.6-1.7c-6.7,0.7-13.5,0.4-20.2,0.6c-10.4,0.4-20.2-2.2-30-5.2
			c-7-2.1-14.1-4-21.4-6.1c-1.9,2.8-3.8,5.8-5.9,8.6c-2.2,2.8-3.3,6-3.4,9.5c-0.1,3,0,6.1,0,9.4c2.5,0.7,5,1.5,7.6,2.1
			c4.9,1.2,10,2.2,14.8,3.7c7.1,2.2,13.9,4.9,21,7.1c5.3,1.7,10.8,3,16.3,4.2c8.2,1.8,16,5,24.1,7c12.3,2.9,24.3,6.7,36.4,10.4
			c7.2,2.2,14.2,4.9,21.4,7.3c4.1,1.4,8.2,2.7,12.3,4c3.4,1.1,6.8,2.1,10.6,3.3C452.1,301.9,452.1,288.6,452.1,275z"/>
		<path class="st1" d="M329.7,181.3c2.4-0.8,5.2-2,8-2.6c3.9-0.9,8-1.5,12-2.3c6-1.2,12-2.4,18-3.6c10.8-2.2,21.9-3.1,32.6-6.2
			c2.5-0.7,5-1.4,8.3-2.2c-6.6-2.2-12.4-4-18.2-6c-4.1-1.4-8.4-2.4-12.3-4.2c-6.7-3-13.1-6.8-20.5-8.4c-1.6-0.3-3.1-1.2-4.5-2.1
			c-3.5-2.1-6.8-4.4-10.3-6.6c-2.3-1.4-4.6-2.7-6.9-4c-0.6-0.3-1.4-0.2-2.4-0.3c-0.1,0.8-0.3,1.4-0.3,2c-0.4,6.9-0.5,13.9-1.1,20.8
			C331.4,164.1,330.5,172.7,329.7,181.3z"/>
		<path class="st1" d="M132.5,199.2c-16.5,6.4-33.5,7.7-50.4,8.3c-1.6,2.5-3.2,4.9-4.9,7.4c0.6,0.2,1.2,0.5,1.8,0.7
			c4.6,1.1,9.1,2.2,13.7,3.2c1.1,0.2,2.3,0.1,3.4-0.2c3-0.8,6-2.2,9-2.7c8.4-1.3,16.9-2.3,25.4-3.4c3.9-0.5,7.7-1.3,12.4-2.2
			C139,206.2,135.7,202.7,132.5,199.2z"/>
		<path class="st1" d="M154,226.3c-0.6-3.4-1.4-6.6-5-8.3c-1-0.4-1.8-1.5-2.4-2.4c-0.9-1.4-2-1.8-3.6-1.4c-2.5,0.6-5,1.1-7.5,1.4
			c-6.2,0.7-12.4,1.1-18.6,1.8c-4.5,0.5-9,1.2-13.3,3.2C120.3,222.5,137.1,224.4,154,226.3z"/>
		<g>
			<path class="st2" d="M8.9,215.2c0.2,2.4,0.6,4.4,0.5,6.4C9.4,228.3,9.1,235,9,241.8c-0.1,9.7,0,19.4-0.1,29.1
				c0,3.7,0,7.4,0.1,11.1c0,2.5,0.6,5.1,0.3,7.6c-0.5,4.4-0.3,8.6,0.4,13c0.3,1.7,1,2.8,2.4,3.6c1.6,1,3.1,2.2,4.7,3.3
				c2,1.4,3.9,2.8,5.9,4.1c3.1,1.9,6.5,3.5,9.5,5.6c3.2,2.1,5.9,4.8,9.1,6.9c12.4,8,25,15.8,37.4,23.8c1.8,1.1,3.5,2.4,5,3.5
				c5.6-6.3,11.2-12.5,16.7-18.7c1.4-1.6,2.9-3.2,4.4-4.8c3.8-4.2,8.1-8.1,11.4-12.7c3.2-4.3,6.8-8.2,10.7-11.8
				c6.2-5.6,13.1-8.5,21.6-7.4c1.3,0.2,2.9-0.3,3.9-1c5.8-3.9,11.6-8,17.2-12.1c0.9-0.7,1.6-2,1.9-3.1c0.4-2.2,0.5-4.5,0.7-6.8
				c0.4-6,0.6-12,1.2-17.9c0.2-1.7-0.3-2.6-1.3-3.7c-2.4-2.4-4.8-4.9-7.3-7.3c-0.6-0.6-1.4-1.2-2.2-1.4c-2.6-0.7-5.2-1.3-7.7-1.9
				c-12-3.1-24.1-5.6-36.3-7.4c-12.6-1.8-25.1-4.1-37.6-6.2c-0.5-0.1-1-0.1-1.5-0.1c-8.8-0.5-17.4-2.3-26-4.1
				c-9-1.9-17.8-4.4-27.1-5c-1.8-0.1-3.5-0.7-5.2-1.1C17.4,217.6,13.5,216.5,8.9,215.2z"/>
			<path class="st2" d="M452.1,321.5c-7.1-2.5-14-5-21-7.3c-9.3-3-18.8-5.6-28.1-8.7c-4.5-1.5-8.8-3.2-13.5-4.2
				c-2.9-0.6-5.8-1.2-8.6-1.9c-8.5-2.2-16.9-4.8-25.5-6.8c-7.7-1.7-15.2-4.3-22.9-6c-6.8-1.5-13.4-4.3-19.7-7.3
				c-8.1-4-16.6-6.2-25.5-8.1c0,1.6,0,2.9,0,4.7c10.5,4.7,20.3,10.8,31.5,14c1.4-2.3,3-2.6,5.3-1c2,1.3,4.1,2.5,6.1,3.9
				c1.8,1.2,3.6,2.4,5.1,4c1.3,1.4,2.8,2.1,4.4,2.7c8.5,3.1,17.1,5.9,25.4,9.3c11.6,4.7,21,12.3,28.5,22.4
				c6.9,9.3,12.2,19.5,17.6,29.6c2.5,4.6,4.6,9.4,6.3,14.4c5.3,15.4,10.3,30.9,15.3,46.4c1.9,5.8,3.7,11.7,5.5,17.5
				c1.9,6.1,2.4,11.9-2.7,17c-1.6,1.6-2.4,4-3.8,6.4c4.7,0.5,8.7,1.2,12.7,1.3c4.6,0.1,6.8-2.2,6.6-5.9c-0.3-5.2-0.6-10.5-0.6-15.7
				c0.1-10.7,0.5-21.4,0.6-32.2c0.2-10,0.2-20,0.4-29.9c0.1-9.6,0.3-19.2,0.5-28.7c0-0.5,0.1-1,0.1-1.5
				C452.1,340.5,452.1,331,452.1,321.5z"/>
			<path class="st2" d="M9.5,311.1c-0.3,2.8-0.2,5.4-0.8,8c-2.2,9.8-2,19.7-2.6,29.6c-0.5,7.5-0.5,15.1-0.4,22.6
				c0.1,14.2,0.5,28.4,0.7,42.5c0,1.7,0.5,2.9,1.7,4c4.3,4,7.9,8.6,11.2,13.5c2.1,3.2,3.6,6.8,6.5,9.3c2.3,2,4.4,4.1,7.1,6.6
				c0.7-3.3,1.3-6.3,2-9.2c2.7-10.9,5.5-21.7,8.2-32.6c1.7-6.8,5.2-12.9,9.6-18.1c8-9.2,16.5-18,24.8-27c0.9-1,1.6-2.1,2.8-3.7
				c-3.6,0-5.8-1.7-8-3.3c-4.5-3.2-9-6.2-13.5-9.3c-5.3-3.5-10.6-7-16-10.5c-5.5-3.6-10.3-8.4-16.4-11.2c-0.8-0.4-1.4-1.1-2.1-1.6
				C19.9,317.2,15.3,313.6,9.5,311.1z"/>
			<path class="st2" d="M159.5,239.1c-1-2.4-1.8-4.2-2.6-6.1c-0.5-1.1-1.2-1.7-2.5-1.9c-3.5-0.5-7-1.4-10.5-1.9
				c-7.1-1-14.2-1.8-21.2-2.7c-7.5-1-14.9-1.7-22.3-3c-8.9-1.6-17.8-3.6-26.6-5.5c-3.3-0.7-6.6-1.6-10-2.3
				c-8.1-1.6-16.3-3.1-24.4-4.6c-2.9-0.5-5.8-1.4-8.6-1.4c-4,0-7.6-1.1-10.9-3.1c-3.6-2.2-7.5-1.6-11.4-1.7c0,4.7,0.3,5.4,3.6,5.9
				c5.1,0.8,9.9,2.3,14.8,3.6c7.4,2,14.7,4.4,22.4,4.5c2.9,0.1,5.8,0.7,8.7,1.2c6.2,1,12.3,2,18.4,3c11.4,1.9,22.9,3.7,34.3,5.7
				c5.6,1,11.2,2.2,16.9,3.3c5.6,1.1,11.3,2.2,16.9,3.4C149.2,236.7,154.2,237.9,159.5,239.1z"/>
			<path class="st2" d="M5.7,422.3c0.5,2.9,1,5.1,1.2,7.3c0.9,7.6,0.9,15.2,0.6,22.9c-0.3,6.1,0,6.3,6.1,7.1
				c5.3,0.7,10.6,1.1,15.3,0.4c3.6-5.1,1-8.3-2.3-11.7c-3.9-4-7.5-8.3-11-12.7c-3-3.9-5.6-8.2-8.4-12.3C7.2,423,6.7,422.9,5.7,422.3
				z"/>
		</g>
		<path class="st0" d="M144.3,301.6c-0.1-0.3-0.2-0.6-0.3-0.9c-1.7,0.4-3.4,0.7-5,1.2c-4.5,1.3-7.5,4.7-10.9,7.5
			c-3.6,3-6.5,6.4-8.7,10.6c-3.7,7.3-4.8,14.4,0.1,21.6c0.6,0.8,1,1.8,1.4,2.7c1.7,4.2,4.3,7.8,7.5,11c7.3,7.5,14.2,15.4,20.7,23.6
			c5,6.3,10.2,12.4,15.6,18.4c5.8,6.3,12,12.2,17.9,18.4c4.9,5.2,10.5,9.5,16.6,12.8c11.2,6.1,23.3,9.4,36,11
			c5.4,0.7,10.3-0.4,15.4-2c2.5-0.8,5.2-1.6,7.8-1.7c2-0.1,3.4-0.8,4.9-1.8c1.7-1.1,3.4-2.3,5.1-3.4c5.2-3.5,10.5-6.8,15.5-10.5
			c2.6-1.8,5.1-3.9,7.2-6.3c4.7-5.2,9.4-10.5,13-16.6c1-1.6,2.1-3.2,3.3-4.7c4.4-5.5,7.8-11.7,10.4-18.2c2.2-5.4,4.1-11,6.2-16.5
			c5.3-14.5,9.9-29.2,12.6-44.5c1.7-9.9-2.9-17.1-12.6-19.7c0.2,2.4,0.2,4.7,0.5,6.9c1.5,9.9,2.1,19.8-0.6,29.6
			c-0.8,2.9-1.9,5.8-2.9,8.7c-2.7,7.9-5.1,16-8.4,23.7c-3.8,8.9-8.1,17.6-12.5,26.3c-4.2,8.3-9.3,16-17.1,21.5
			c-2.7,1.9-5.5,3.8-7.6,6.3c-2.1,2.4-4.6,4-7.1,5.7c-1.4,1.1-2.9,2.1-4.5,3c-3.4,1.8-6.7,3.6-10.3,5c-6.3,2.4-12.9,2.6-19.5,1.2
			c-4.1-0.9-8.5-1.4-12.2-3.2c-8.3-4-16.4-8.3-23.6-14.2c-6.1-5-12.2-10.1-18.1-15.3c-4.3-3.8-8.5-7.7-12.2-12
			c-6.3-7.5-12.1-15.4-18.3-23c-5.6-6.8-11.5-13.3-17.3-20c-2.7-3.2-5.3-6.5-7.9-9.8c-1.8-2.3-3-4.8-2.5-7.8
			c0.7-3.9,1.5-7.8,2.5-11.6c0.3-1.1,1.4-2.1,2.4-2.8c4.2-2.7,8.4-5.2,12.6-7.7C141,303.3,142.7,302.4,144.3,301.6z"/>
		<g>
			<path d="M465.3,28.3c-0.1,0-0.2,0-0.3,0c0-3.4-0.3-6.9,0.1-10.3c0.4-3.8-0.6-7-2.9-9.9c-0.8-1.1-1.5-1.8-3-1.9
				c-3.6-0.3-7.2-1.2-10.9-1.6c-6.7-0.6-13.4-1.4-20.2-0.9c-5.8,0.4-11.7,0.4-17.5-0.2C401.1,2.7,391.6,1.3,382,2c-6,0.4-12,0-18,0
				c-5,0-10-0.1-14.9,0.1c-5.9,0.3-11.7,0.9-17.6,1.4c-1.7,0.1-3.3,0-5-0.1c-6.2-0.4-12.5-1-18.7-1.2c-6.9-0.2-13.8,0.1-20.7,0
				c-5.2,0-10.5,0-15.7-0.4c-8.5-0.6-17-1.7-25.6-1.2c-8,0.5-16,0.1-24,0.1c-4.6,0-9.2,0-13.8-0.1c-10.6-0.2-21.2-0.8-31.8-0.6
				c-12.6,0.2-25.3,1-37.9,1.5c-0.6,0-1.3,0.1-1.9,0.2c-6,0.5-11.9,1-17.9,1.3c-8.5,0.4-17.1,0.6-25.7,0.8C83,3.9,73,3.9,63.1,3.8
				C54.1,3.7,45,3.5,36,2.9c-8.7-0.6-17.3-0.5-26,0c-2.8,0.2-4.6,2-4.8,4.8c-0.3,2.8-0.6,5.6-0.8,8.4c-0.4,6.6-0.7,13.2-1,19.8
				c-0.4,7.9-1,15.8-1.2,23.7C1.8,70.8,2.7,82,3.2,93.2c0.6,12.5,0.4,25.1,0.3,37.6c0,6.2-0.6,12.4-1,18.6c-0.1,1.4-0.4,2.8-0.5,4.2
				c-0.3,7.3-0.7,14.5-0.7,21.8c0,13,0.3,26.1,0.5,39.1c0,1.9,0.2,3.8,0.5,5.7c1.7,10.3,2.4,20.8,2.4,31.3c0,18.1,0.6,36.3-1.1,54.4
				c-1.2,12.2-1.7,24.4-2.5,36.6c-0.6,9.5-1.7,19-1.1,28.6C1,384.3,1,397.6,1.4,410.9c0.1,2.7,0.5,5.3,0.6,8
				c0.3,9,0.5,18.1,0.6,27.1c0,3.8,0,7.6-0.7,11.3c-0.8,4.7,2.4,8.7,7.2,8.7c3.6,0,7.1,0.2,10.7,0.3c3.6,0.1,7.1,0.3,10.7,0.4
				c3.2,0.1,6.4,0.2,9.5,0.4c2.5,0.2,5,0.5,7.6,0.7c5.3,0.4,10.7,0.8,16,1.1c1.8,0.1,3.6,0,5.4,0c4.6,0,9.2-0.3,13.8,0.1
				c5.2,0.5,10.4,1.6,15.6,0.8c8.4-1.3,16.8-0.3,25.1,0c6.6,0.3,13.3,0.7,19.9,0.7c6.9,0.1,13.8-0.3,20.6-0.3
				c8.2-0.1,16.3-0.1,24.5,0c7,0.1,14,0.7,21.1,0.7c7.1,0.1,14.2-0.1,21.3-0.3c4-0.1,7.9-0.5,11.9-0.5c5,0,9.9,0.6,14.9,0.6
				c7.8,0,15.5-0.4,23.3-0.6c4.1-0.1,8.1-0.2,12.2-0.1c7.9,0.2,15.8,1.2,23.7,0.3c3.7-0.4,7.4-0.6,11.1-0.5
				c16.9,0.4,33.7,1.1,50.5,1.5c9.4,0.2,18.9,0.3,28.3,0.3c9.2,0,18.4,0.1,27.6-0.4c5.7-0.3,11.4,0.6,17-1.3
				c2.7-0.9,5.9-3.4,6.2-6.3c0.7-5.3,1.3-10.6,1.5-15.9c0.4-7.8,0.5-15.6,0.6-23.3c0-3.7-0.4-7.4-0.5-11.1
				c-0.1-9.8-0.2-19.6-0.3-29.4c-0.1-4.6-0.5-9.2-0.4-13.7c0.1-5.2,0.8-10.4,1-15.6c0.2-6.9,0.1-13.8,0.2-20.7c0.1-4.3,0-8.7,0.4-13
				c0.9-10.2,1.4-20.4,1.1-30.6c-0.1-3.2-0.4-6.4-0.4-9.5c0-2.9,0.6-5.8,0.6-8.8c0.2-17.6,0.3-35.3,0.5-52.9
				c0.2-18.4,0.6-36.8,0.7-55.2c0-5.5-0.5-11-0.4-16.5c0.1-6.6,0.5-13.3,0.7-19.9c0.3-10.6,0.5-21.2,0.8-31.8
				c0.2-6.5,0.6-13,0.7-19.5c0.1-10,0-20.1,0.1-30.1C464.6,40,465.1,34.2,465.3,28.3z M9.4,40.1c0.4-2,0.2-4.1,0.3-6.1
				c0.2-4.8,0.6-9.7,0.6-14.5c0-3.8-0.4-7.6-0.7-11.3c0.5-0.2,0.7-0.5,0.9-0.4c2.2,1,4.3,0.4,6.5,0.2c3.1-0.2,6.4-0.2,9.5,0.1
				C33.4,8.9,40.2,8,47.1,7.9c5.5,0,11,0.3,16.4,0.8c3.8,0.4,7.5,1,11.4,0.5c4.1-0.4,8.4-0.1,12.2-0.1c2.5,3.2,0.9,7.7,5,9.8
				c5.1-0.8,9.8-4.2,15.6-3.6c0.5,1.8-0.4,2.8-1.6,3.9c-1.1,1-2.2,2.1-3,3.3c-1,1.8-0.2,3.2,1.9,3.4c1,0.1,2,0,3-0.2
				c2.1-0.3,4.2-0.7,6.4,0.1c1.8,0.6,3.4-0.4,4.9-1.5c3.4-2.7,5.4-2.5,8.6,0.6c1.1,1.1,2.2,1.3,3.5,0.7c3.1-1.2,6.1-2.5,9.1-3.9
				c1.6-0.7,2.9-1,4.2,1.1c-2.4,3.5-4.8,7.2-7.6,11.4c0.8,1.1,1.7,2.6,2.8,3.9c1.9,2.3,2.2,3.6,0.3,5.7c-1.7,1.9-3.9,3.5-6.1,5.5
				c-5.4-3.9-11.4-5-17.4-6.5c-2,2.9-3.8,5.7-5.7,8.4c-2.6,3.5-2.6,6.2-0.3,10.1c1.7,2.9,3.3,5.5,6.8,6.9c2.7,1.1,2.6,6.2-0.1,7.4
				c-5.2,2.2-5.6,7.1-7.7,11.6c0.2-0.2,0,0.1-0.2,0.2c-4.1,0.5-4.6,3.3-4.7,6.6c-0.1,5.1-1.5,9.7-3.9,14.2
				c-3.1,5.7-8.1,5.4-11.5,1.5c-2.7-3.1-4.5-7.1-6.6-10.7c-0.8-1.4-1.3-3-2.2-4.4c-2.7-4.4-5.9-5.7-11.8-4.4c0.7,3.5-0.3,7.4,3.8,10
				c2,1.3,2.9,4.1,2.4,6.5c-0.5,2.4-1.4,4.9-2.7,7.1c-1.3,2.2-3.5,3.7-6.4,3c-0.9-0.2-1.8-0.2-2.7-0.2c-2.2,0.1-3.6-0.7-4.3-2.9
				c-0.2-0.8-0.7-1.6-1.3-2.3c-1.7-2.1-3.5-2.4-5.7-0.9c-1,0.6-1.8,1.5-2.6,2.2c-3.4,3-7.5,4.3-11.8,4.8c-1.9,0.2-3.6-0.3-4.8-1.8
				c-0.2-0.3-0.5-0.6-0.8-0.9c-3.5-3.6-5.3-3.6-8.8,0.2c-2.6-0.6-4.2-2.8-4.8-4.9c-1.3-4.6-4.5-7.2-8.6-9.6
				C9.4,96,9.1,91.3,8.8,86.6c-0.4-7-1.3-14-1.3-21C7.6,57.1,7.7,48.6,9.4,40.1z M16.3,172.9c1.5-0.1,2.8-0.6,4.2-1.3
				c3.8-2,7.5-5.1,12.4-3.1c0.7,0.3,1.6,0.3,2.3,0c6.6-2,12.3,0.4,17.8,3.6c2.9,1.7,5.1,4.3,5.7,7.7c0.3,1.8,1.3,3,2.9,3.7
				c0.9,0.4,1.8,1,2.7,1.5c2.1,1.3,3.5,2.8,3,5.6c-0.3,1.5,0,3.1,0.3,4.6c0.6,3.2,3.1,4.3,6,2.9c1.1-0.6,2.1-1.4,3.4-2.3
				c0.5,0.9,1.1,1.6,1.2,2.3c1,6.8-0.7,9.6-6.6,13.2c-2.6,1.6-4.9,1.8-7.8,1.2c-7.1-1.5-14.3-2.3-21.3-4.1c-5.5-1.4-11-2.3-16.5-3
				c-1.3-0.2-2.8-0.7-3.9-1.4c-3.1-2-6.4-3.1-10.1-2.7c-1.1,0.1-2.3-0.1-3.8-0.3c-0.7-9-1.1-18-1.3-27.4
				C10.1,173.4,13.2,173.2,16.3,172.9z M122.2,108.1c-0.5-0.4-1.6-0.2-2.3,0.2c-0.7,0.3-1.3,1.1-1.8,1.7c-1.8,2.2-3.6,4.5-6,6.3
				c3.7-8.4,7.2-17,11.3-25.2c5.3-10.6,11.2-20.9,18.6-30.3c3.4-4.4,6.3-9.3,9.9-13.6c3.9-4.6,8.2-8.7,12.6-12.8
				c1.9-1.8,4.2-3.2,6.4-4.5c2.4-1.5,4.8-2.9,7.3-4.1c2.5-1.2,5.2-2.2,7.8-3.1c2.6-0.9,5.3-2,8.1-2.3c4.5-0.6,9.1-1,13.6-0.9
				c9.9,0.3,19.8,1.6,29.7,1.5c7.3,0,14.4,1,21.5,2.4c1.9,0.4,3.8,1.5,5.5,2.5c10.5,6.1,19.2,14.3,27.2,23.3
				c6.2,6.9,11.3,14.5,15.6,22.6c4.2,7.9,8.6,15.6,12.2,23.8c3.7,8.4,7,17,8,26.2c0.5,4.2,0.9,8.4,1,12.6c0.2,7.3,0.2,14.6,0,21.9
				c-0.1,4.2-1,8.3-1.6,12.5c-0.9,6.3-1.8,12.6-2.7,18.9c-0.9,5.6-2.2,11-4.8,16c-2.9-1.2-3.4-1-4.3,1.6c-0.5,1.6-1.1,3.1-1.7,4.5
				c-1.3-0.1-2.5-0.5-3.4-0.1c-0.9,0.4-1.6,1.6-2.1,2.5c-1.3,2.4-2.4,4.9-3.6,7.4c-0.2-0.1-0.5-0.2-0.7-0.3c0.1-0.9,0-2,0.3-2.8
				c2.3-6.6,3.2-13.4,3.7-20.3c0.5-6.6,1.1-13.3,0.7-19.9c-0.6-9.6-1.1-19.3-4-28.7c-0.2-0.6-0.3-1.2-0.5-1.8
				c-0.6-1.9-1.7-2.7-3.9-1.6c-0.4-6.5-2.9-12.1-5.4-17.6c-0.9-2-2.5-3.9-4.2-5.3c-4.8-4.2-9.1-8.7-12.3-14.4
				c-2.2-3.9-4-7.9-5.5-12.1c-0.8-2.2-2.6-3.3-4.5-4.8c-5.2,8.3-12.8,14-20.3,20c1-3,2-6,3-9.2c-2.1-2.7-3.1-2.8-5.6-0.5
				c-4.9,4.5-9.7,9.1-14.9,13.3c-5.8,4.6-11.6,9.1-18.5,12.2c-1.1,0.5-2.2,1-4.1,1.7c0.6-1.4,0.9-2.2,1.2-2.9c0.7-1.4,1.4-2.7,2-4.1
				c0.5-1.4,0.7-3-0.7-3.8c-1.3-0.8-2.8-1-4.2,0.4c-1.9,1.9-3.8,3.8-5.8,5.5c-1.9,1.6-3.9,3.3-6,4.6c-8.5,5.3-17.1,10.6-25.8,15.7
				c-2.5,1.5-5.3,2.5-7.8,3.9c-5.1,2.7-9.6,6.2-13.7,10.4c-2.2,2.3-3.7,5-4.2,8.4c-0.7,5.2-1,10.2,0.4,15.5c2.5,9.3,4.4,18.8,6,28.7
				c-0.5-0.7-1-1.4-1.5-2.1c-1.9-2.8-4.4-4.9-7.2-6.8c-3.7-2.5-6.9-5.6-8.9-9.8c-1.1-2.4-2.7-4.6-3.9-7c-2-3.9-3.6-7.8-4.2-12.2
				c-1-7.7-2.7-15.3-3.9-23c-0.7-4.6-0.8-9.3-1.3-14.3c-0.6-0.1-1.6-0.4-3.2-0.8c0.7-1.6,1.4-3,1.9-4.5c2.1-6.3,4.1-12.6,6-18.9
				C122.9,109.7,122.7,108.5,122.2,108.1z M324.4,300.5c-0.3-2.2-0.4-4.5-0.5-6.9c9.7,2.7,14.3,9.8,12.6,19.7
				c-2.6,15.3-7.2,30-12.6,44.5c-2,5.5-4,11.1-6.2,16.5c-2.6,6.5-6,12.7-10.4,18.2c-1.2,1.5-2.3,3-3.3,4.7
				c-3.6,6.1-8.2,11.4-13,16.6c-2.1,2.3-4.6,4.4-7.2,6.3c-5.1,3.6-10.4,7-15.5,10.5c-1.7,1.1-3.4,2.3-5.1,3.4
				c-1.5,1-2.9,1.7-4.9,1.8c-2.6,0.1-5.3,0.9-7.8,1.7c-5,1.6-10,2.7-15.4,2c-12.7-1.6-24.8-4.9-36-11c-6.1-3.3-11.8-7.6-16.6-12.8
				c-5.8-6.3-12.1-12.1-17.9-18.4c-5.4-5.9-10.6-12.1-15.6-18.4c-6.5-8.2-13.4-16-20.7-23.6c-3.1-3.2-5.8-6.8-7.5-11
				c-0.4-0.9-0.8-1.9-1.4-2.7c-4.9-7.2-3.9-14.3-0.1-21.6c2.2-4.2,5.1-7.6,8.7-10.6c3.4-2.9,6.5-6.2,10.9-7.5c1.7-0.5,3.4-0.8,5-1.2
				c0.1,0.3,0.2,0.6,0.3,0.9c-1.6,0.9-3.3,1.7-4.8,2.6c-4.2,2.5-8.5,5.1-12.6,7.7c-1,0.6-2.1,1.7-2.4,2.8c-1,3.8-1.8,7.7-2.5,11.6
				c-0.5,3,0.7,5.5,2.5,7.8c2.6,3.3,5.1,6.6,7.9,9.8c5.7,6.7,11.7,13.2,17.3,20c6.2,7.6,12,15.5,18.3,23c3.7,4.3,7.9,8.2,12.2,12
				c5.9,5.3,12,10.3,18.1,15.3c7.2,5.8,15.3,10.2,23.6,14.2c3.7,1.8,8.1,2.3,12.2,3.2c6.6,1.4,13.2,1.2,19.5-1.2
				c3.5-1.4,6.9-3.2,10.3-5c1.6-0.8,3-1.9,4.5-3c2.4-1.8,5-3.3,7.1-5.7c2.1-2.5,4.9-4.4,7.6-6.3c7.8-5.6,12.9-13.2,17.1-21.5
				c4.3-8.7,8.7-17.3,12.5-26.3c3.2-7.7,5.6-15.8,8.4-23.7c1-2.9,2.1-5.8,2.9-8.7C326.4,320.3,325.8,310.4,324.4,300.5z M9,282
				C9,278.3,9,274.6,9,270.9c0-9.7,0-19.4,0.1-29.1c0.1-6.7,0.3-13.4,0.4-20.2c0-2-0.3-4-0.5-6.4c4.6,1.3,8.5,2.4,12.4,3.5
				c1.7,0.5,3.5,1,5.2,1.1c9.2,0.6,18.1,3.1,27.1,5c8.6,1.8,17.2,3.6,26,4.1c0.5,0,1,0,1.5,0.1c12.5,2.1,25,4.4,37.6,6.2
				c12.3,1.8,24.3,4.3,36.3,7.4c2.6,0.7,5.2,1.2,7.7,1.9c0.8,0.2,1.6,0.8,2.2,1.4c2.5,2.4,4.8,4.9,7.3,7.3c1,1,1.5,2,1.3,3.7
				c-0.6,6-0.8,12-1.2,17.9c-0.2,2.3-0.2,4.6-0.7,6.8c-0.2,1.1-1,2.5-1.9,3.1c-5.7,4.1-11.4,8.2-17.2,12.1c-1.1,0.7-2.7,1.2-3.9,1
				c-8.5-1.1-15.4,1.8-21.6,7.4c-4,3.6-7.5,7.5-10.7,11.8c-3.4,4.5-7.6,8.5-11.4,12.7c-1.5,1.6-2.9,3.2-4.4,4.8
				c-5.5,6.2-11,12.4-16.7,18.7c-1.6-1.1-3.3-2.4-5-3.5c-12.5-7.9-25-15.8-37.4-23.8c-3.2-2.1-6-4.8-9.1-6.9c-3-2-6.4-3.7-9.5-5.6
				c-2-1.2-4-2.7-5.9-4.1c-1.6-1.1-3-2.3-4.7-3.3c-1.4-0.9-2.1-1.9-2.4-3.6c-0.7-4.3-0.9-8.6-0.4-13C9.6,287.1,9.1,284.5,9,282z
				 M122.5,226.6c7.1,0.9,14.2,1.7,21.2,2.7c3.5,0.5,7,1.4,10.5,1.9c1.4,0.2,2.1,0.8,2.5,1.9c0.8,1.9,1.6,3.7,2.6,6.1
				c-5.3-1.3-10.3-2.5-15.2-3.5c-5.6-1.2-11.2-2.3-16.9-3.4c-5.6-1.1-11.2-2.3-16.9-3.3c-11.4-2-22.9-3.8-34.3-5.7
				c-6.1-1-12.3-2-18.4-3c-2.9-0.5-5.8-1.1-8.7-1.2c-7.8-0.2-15.1-2.5-22.4-4.5c-4.9-1.3-9.7-2.9-14.8-3.6c-3.3-0.5-3.6-1.2-3.6-5.9
				c3.9,0.1,7.7-0.5,11.4,1.7c3.3,2,6.9,3.1,10.9,3.1c2.9,0,5.8,0.9,8.6,1.4c8.2,1.5,16.3,3,24.4,4.6c3.3,0.7,6.6,1.6,10,2.3
				c8.9,1.9,17.7,3.9,26.6,5.5C107.6,224.9,115.1,225.6,122.5,226.6z M103.6,220.6c4.3-2.1,8.8-2.8,13.3-3.2
				c6.2-0.7,12.4-1.1,18.6-1.8c2.5-0.3,5-0.9,7.5-1.4c1.6-0.4,2.7,0,3.6,1.4c0.6,0.9,1.4,2,2.4,2.4c3.6,1.7,4.4,4.9,5,8.3
				C137.1,224.4,120.3,222.5,103.6,220.6z M322.1,321.6c-0.4,3.6-1.4,7.3-2.4,10.8c-1.9,6.5-3.9,12.9-6.1,19.3
				c-1.2,3.6-2.9,7-4.5,10.4c-3.1,6.7-6.3,13.4-9.6,20c-3.6,7.1-7.4,14.1-12.9,19.8c-3.5,3.7-7.8,6.6-11.7,9.8
				c-2.3,1.9-4.5,3.8-6.7,5.7c-11.2,9.6-23.8,13.8-38.6,9.9c-10-2.6-18.2-8.4-26.6-13.8c-8.3-5.3-15.3-12.3-22.6-18.9
				c-1.7-1.5-3.1-3.4-4.6-5.1c-0.1-0.1-0.1-0.3-0.2-0.3c-6.9-5.6-10.9-13.6-16.9-19.9c-6.4-6.8-12.4-13.8-18.6-20.8
				c-1.6-1.8-3.1-3.7-4.6-5.6c-2.8-3.4-5.6-6.9-8.5-10.3c-1.3-1.5-1.7-3.2-1.5-5c0.3-4.5,1-8.9,3.4-12.7c0.6-1,1.9-1.7,2.9-2.3
				c9.2-5.3,18.4-10.4,27.5-15.8c3.6-2.1,6.8-4.9,10.3-7.3c0.3-0.2,0.6-0.3,1.5-0.6c-0.2,2.6-0.4,4.8-0.6,7
				c-0.1,1.4-0.4,2.8-0.5,4.2c-0.1,1.5,0.7,2.3,2.4,2.6c1.6-3.2,1.5-6.6,1.7-10c0.8-11.7,1.6-23.3,2.5-35.6c2.5,1.6,4.7,2.8,6.7,4.3
				c8.7,6.1,18.2,10.6,27.9,15c6.3,2.9,12.8,5,19.4,7.1c4.7,1.6,9.2,0.6,13.3-1.5c6.6-3.3,13.2-6.6,19.3-10.7
				c6.7-4.4,12.7-9.8,19.1-14.7c0.3-0.2,0.6-0.4,1.4-0.9c-0.2,2.1-0.6,3.9-0.6,5.7c0,8.8-0.8,17.6,0.7,26.4c0.3,2.1,0.7,4.3,1.2,6.4
				c0.5,2.2,1.9,3.5,4.1,3.8c1.5-1.6,0.3-3.1-0.1-4.4c-1.3-4-2.3-8.1-1.9-12.4c0-0.3,0.1-0.5,0.2-1.1c11.3,3.9,21.1,11.4,32.8,13.7
				C321.9,303.3,323.2,312.4,322.1,321.6z M276.5,255.7c-6.7,6.4-14.1,11.9-21.9,16.7c-6.4,4-13.4,7.9-21.5,7.2
				c-6.1-0.5-12.1-1.9-17.5-5.1c-1.4-0.8-3-1.4-4.5-2.1c-7-3.6-14.1-7.2-21-10.9c-2.3-1.3-4.5-3-6.6-4.6c-4.6-3.7-9.2-7.3-13.6-11.1
				c-4.3-3.7-7.4-8.4-9.7-13.5c-4.1-9.3-6.5-19-7.8-29c-0.2-1.6-0.5-3.3-1.1-4.8c-3.2-7.5-4.1-15.5-5.7-23.3
				c-1.7-8.7,4.4-17.5,11.4-21.1c3.4-1.7,6.7-3.6,10.1-5.3c1.4-0.7,3.1-1.2,4.7-1.3c4.7-0.2,9.5-0.1,14.2,0c5.9,0,11.2-2.1,16.3-4.8
				c2-1,2.9-3,2.3-4.4c-0.9-1.9-2.6-2.2-4.5-2c-0.5,0.1-1,0.2-1.5,0.3c-2.9,0.1-5.9,0.1-8.8,0.1c-0.5,0-1-0.3-1.7-0.5
				c4.3-2.8,8.3-5.5,12.3-8.1c0.5,2.2,0.9,4.3,1.3,6.3c3.2,0.8,5.6-0.2,7.9-1.1c6-2.6,11.4-6.3,16.2-10.7c1.9-1.7,4.1-3,6.1-4.6
				c3.6-3,7.2-6,11.1-8.8c-1.7,3.4-3.3,6.7-5.1,10.4c0.6,0.7,1.3,1.5,2.1,2.3c10.4-7.6,19.9-15.8,28.4-25.7c0.6,1.3,1.2,2.2,1.5,3.3
				c2,5.8,5.1,11.1,9,15.8c2.6,3.2,5.7,6.1,8.9,8.8c1.6,1.4,2.9,2.8,3.6,4.8c1.8,5.9,3.8,11.6,5.3,17.5c0.6,2.5,1.4,4,4.6,3.9
				c0.8,5.3,2,10.4,2.3,15.5c0.6,7.9,1,15.8,0.8,23.7c-0.2,7.7-0.7,15.6-2.9,23.1c-0.4,1.3-1.2,2.5-1.6,3.7
				c-0.3,0.9-0.7,1.9-0.6,2.9c0.1,2.3-0.4,4.4-1.5,6.6C292,236.5,285.6,246.9,276.5,255.7z M175.3,143.8c3.5-2.9,6.5-4.6,10.6-4.2
				c3.9,0.3,7.8,0.1,11.6,0.1C190.8,144.2,183.4,143.7,175.3,143.8z M132.5,199.2c3.2,3.4,6.5,6.9,10.3,11
				c-4.7,0.8-8.5,1.6-12.4,2.2c-8.5,1.2-17,2.1-25.4,3.4c-3.1,0.5-6,1.9-9,2.7c-1.1,0.3-2.3,0.5-3.4,0.2c-4.6-1-9.1-2.1-13.7-3.2
				c-0.6-0.1-1.2-0.4-1.8-0.7c1.7-2.5,3.2-4.9,4.9-7.4C99.1,207,116,205.6,132.5,199.2z M28.9,460c-4.7,0.7-10,0.3-15.3-0.4
				c-6.1-0.8-6.4-1-6.1-7.1c0.3-7.7,0.3-15.3-0.6-22.9c-0.3-2.2-0.7-4.4-1.2-7.3c1,0.6,1.5,0.7,1.7,1c2.8,4.1,5.3,8.4,8.4,12.3
				c3.4,4.4,7.1,8.6,11,12.7C29.9,451.6,32.5,454.9,28.9,460z M25.8,440.8c-3-2.6-4.4-6.2-6.5-9.3c-3.2-4.9-6.9-9.5-11.2-13.5
				c-1.2-1.1-1.7-2.4-1.7-4c-0.2-14.2-0.6-28.4-0.7-42.5c-0.1-7.5-0.1-15.1,0.4-22.6c0.6-9.9,0.4-19.9,2.6-29.6
				c0.6-2.6,0.5-5.2,0.8-8c5.9,2.4,10.5,6.1,15,9.8c0.7,0.6,1.3,1.3,2.1,1.6c6.1,2.8,10.9,7.6,16.4,11.2c5.3,3.5,10.7,7,16,10.5
				c4.5,3,9.1,6.1,13.5,9.3c2.3,1.6,4.4,3.3,8,3.3c-1.2,1.6-1.9,2.7-2.8,3.7c-8.3,9-16.8,17.8-24.8,27c-4.5,5.2-7.9,11.2-9.6,18.1
				c-2.7,10.9-5.5,21.7-8.2,32.6c-0.7,2.9-1.3,5.9-2,9.2C30.2,444.9,28.1,442.7,25.8,440.8z M33.2,460.4c4.8-19.3,9.4-38,14-56.7
				c0.2-0.1,0.4-0.2,0.7-0.2c0.5,1.1,1,2.3,1.6,3.4c7.1,13,16.1,24.7,25.9,35.8c4.2,4.7,8.4,9.5,12.6,14.3c0.7,0.8,1.2,1.8,1.9,3
				C71,462.1,52.4,461.3,33.2,460.4z M352.1,462c-5.2-0.1-10.5-0.9-15.7-0.3c-7.1,0.8-14.2,0.5-21.3,0.8c-3.9,0.2-7.9,0.4-11.8,0.4
				c-9.7,0.1-19.3,0.1-29,0.2c-11.8,0.2-23.6,0.2-35.5-0.6c-6.5-0.4-13,0-19.5,0.1c-7.9,0.1-15.8,0.5-23.7-0.1
				c-9.9-0.8-19.9-0.7-29.8-1.1c-3.8-0.2-7.6-0.7-11.4-0.9c-6.1-0.3-12.2-0.5-18.3-0.6c-5.5-0.1-10.9,0-16.4,0c-7,0-14,0-21,0.1
				c-2.1,0-4-0.3-5.4-2.1c-8.2-9.6-16.6-19.1-24.6-28.9c-6.8-8.3-12.9-17.1-17.8-26.7c-1.2-2.3-0.8-3.7,0.4-5.9
				c3.7-6.9,9.6-11.9,14.6-17.6c0.8-1,1.7-1.9,2.5-2.9c6-6.6,12.4-12.9,17.9-19.9c6.4-8.2,14.2-15,20.4-23.3c1.5-2,3.4-3.8,5.4-5.9
				c0.4,2.5,0.5,4.8,1.1,6.8c2.3,8.3,6.1,16.1,12,22.4c8.1,8.7,15.8,17.7,23.3,26.9c8.4,10.4,17.3,20.5,27.1,29.7
				c1.3,1.2,2.4,2.6,3.6,3.9c6.4,6.6,13.6,12.1,21.7,16.1c5.2,2.6,10.9,4.4,16.4,6.3c6.4,2.3,13.1,3,19.8,3.9
				c4.7,0.6,9.1-0.6,13.7-1c5.9-0.5,11.2-3,16.5-5.6c7.4-3.6,14.6-7.4,20.5-13.2c4.3-4.3,8.2-9.1,12-13.8c4.9-6,9.8-12.1,14.6-18.2
				c1.2-1.6,2.4-3.3,3.2-5.2c3-6.9,6.4-13.7,8.8-20.8c3.3-9.6,7.6-19,9.2-29.1c0.5-2.9,1.7-5.6,2.4-8.5c1.4-5.4,2.8-10.9,4-16.3
				c0.3-1.3-0.1-2.8-0.2-4.2c-0.1-1-0.1-2-0.2-3.4c3.8,1.3,7.2,2.3,10.4,3.7c5.2,2.2,10.3,4.5,15.3,6.9c6.1,2.9,10.8,7.7,15.5,12.3
				c3.1,3,5.8,6.5,8.1,10.1c4.9,7.6,9.5,15.5,14.2,23.2c1.2,2,1.3,4.1,0.5,6.2c-3.5,9.4-6.8,19-10.7,28.3
				c-4.6,10.9-9.3,21.8-14.6,32.4c-3.7,7.5-8.5,14.5-12.7,21.7c-2.5,4.3-4.7,8.7-7.2,13.5C357.9,462,355,462.1,352.1,462z
				 M423.2,462.8c-8.4-0.2-16.8-0.3-25.3-0.5c-8.4-0.2-16.8-0.6-25.1-0.8c-2.7,0-5.4,0.5-8.9,0.8c8.7-16.1,19.3-30,25.9-46.2
				c6.5-15.9,12.9-31.8,19.5-48.1c1.5,3.6,3.1,7,4.4,10.6c3.8,10.9,7.6,21.9,11.3,32.9c2.8,8.3,5.5,16.7,8.4,25
				c1.1,3.3,1.3,6.4,0.5,9.8c-1.3,5.5-3.7,10.6-7.3,15C425.6,462.4,424.7,462.8,423.2,462.8z M452.1,349.9c0,0.5-0.1,1-0.1,1.5
				c-0.2,9.6-0.4,19.2-0.5,28.7c-0.1,10-0.2,20-0.4,29.9c-0.2,10.7-0.5,21.4-0.6,32.2c0,5.2,0.3,10.5,0.6,15.7
				c0.2,3.7-2.1,6-6.6,5.9c-4-0.1-8.1-0.8-12.7-1.3c1.4-2.4,2.2-4.8,3.8-6.4c5.1-5.1,4.6-10.9,2.7-17c-1.8-5.9-3.6-11.7-5.5-17.5
				c-5-15.5-10-31-15.3-46.4c-1.7-4.9-3.9-9.8-6.3-14.4c-5.4-10.1-10.7-20.3-17.6-29.6c-7.5-10.1-16.9-17.7-28.5-22.4
				c-8.4-3.4-16.9-6.2-25.4-9.3c-1.6-0.6-3.2-1.3-4.4-2.7c-1.4-1.6-3.3-2.8-5.1-4c-2-1.4-4.1-2.6-6.1-3.9c-2.3-1.5-3.9-1.3-5.3,1
				c-11.2-3.2-21-9.4-31.5-14c0-1.8,0-3.1,0-4.7c8.9,1.9,17.4,4.2,25.5,8.1c6.3,3.1,12.9,5.9,19.7,7.3c7.7,1.7,15.2,4.2,22.9,6
				c8.6,1.9,17,4.5,25.5,6.8c2.8,0.7,5.7,1.3,8.6,1.9c4.6,1,9,2.7,13.5,4.2c9.3,3.1,18.8,5.7,28.1,8.7c7,2.2,13.9,4.8,21,7.3
				C452.1,331,452.1,340.5,452.1,349.9z M452.1,315.8c-3.9-1.2-7.3-2.2-10.6-3.3c-4.1-1.3-8.3-2.6-12.3-4
				c-7.1-2.4-14.2-5.1-21.4-7.3c-12.1-3.7-24.1-7.5-36.4-10.4c-8.2-1.9-15.9-5.2-24.1-7c-5.5-1.2-10.9-2.5-16.3-4.2
				c-7-2.2-13.9-4.9-21-7.1c-4.9-1.5-9.9-2.4-14.8-3.7c-2.6-0.6-5.1-1.4-7.6-2.1c0-3.3,0-6.4,0-9.4c0.1-3.5,1.2-6.7,3.4-9.5
				c2.2-2.8,4-5.9,5.9-8.6c7.3,2.1,14.4,3.9,21.4,6.1c9.8,3,19.6,5.6,30,5.2c6.7-0.3,13.5,0.1,20.2-0.6c3.9-0.4,7.7,0.3,11.6,1.7
				c4.6,1.7,9.6,2.8,14.5,3.4c6.8,0.8,13.4,2.1,19.6,4.9c9,3.9,17.9,8,26.9,11.9c2,0.9,4.1,1.3,6.1,2c1.6,0.5,3.1,1,4.8,1.5
				C452.1,288.6,452.1,301.9,452.1,315.8z M452.2,270.5c-3-0.7-5.9-1-8.4-2c-5.2-2.1-10.2-4.7-15.3-7c-9.5-4.3-19.2-8.5-29.6-10.1
				c-6.2-0.9-12.4-1.4-18.3-3.7c-1.6-0.6-3.4-1-5.1-1.5c-4.7-1.2-9.3,0-14,0.1c-9.4,0.2-18.9,1-28.2-1.2c-5.1-1.2-10.1-2.7-15.1-4
				c-2-0.5-3.9-1.4-5.9-1.5c-4.7-0.3-8.9-2-13.1-4.3c1.4-4.6,4.2-8.4,7.1-12.1c1.3-1.6,2.4-3.3,3.5-5c0.6-1,1-2,2.6-1.7
				c0.5,0.1,1.3-0.7,1.7-1.2c0.7-0.9,1.3-1.9,1.8-2.8c1.1,0.3,2.2,0.8,3.1,0.6c0.6-0.1,1.1-1.3,1.4-2.1c3.3-7.3,6.6-14.7,7.3-22.8
				c0.1-1.3,0.7-2.4,2.2-2.9c3.6-1.2,7.1-2.9,10.8-3.7c7.7-1.8,15.5-3.2,23.3-4.6c8.7-1.5,17.4-2.8,26-4.3c1.6-0.3,3.2-0.6,4.8-1
				c8-1.8,15.9-4.2,23.9-5.2c8.6-1.2,16.9-3.5,25.4-5.3c1.9-0.4,3.8-0.5,5.8-0.8c0.1,0.9,0.3,1.6,0.3,2.3c0,5.2,0,10.4,0,15.6
				c0,5.5,0.3,11-0.1,16.5c-0.6,8.4,0.9,16.7,1.5,25c0.2,3.2,0.3,6.4,0.4,9.6c0.2,4.7,0.4,9.5,0.4,14.2
				C452.6,252.6,452.3,261.3,452.2,270.5z M329.7,181.3c0.8-8.5,1.8-17.1,2.4-25.7c0.5-6.9,0.7-13.9,1.1-20.8c0-0.6,0.2-1.2,0.3-2
				c0.9,0.1,1.8,0,2.4,0.3c2.4,1.2,4.7,2.5,6.9,4c3.4,2.2,6.8,4.5,10.3,6.6c1.4,0.9,2.9,1.8,4.5,2.1c7.4,1.6,13.8,5.4,20.5,8.4
				c3.9,1.8,8.2,2.9,12.3,4.2c5.8,1.9,11.6,3.8,18.2,6c-3.3,0.9-5.8,1.5-8.3,2.2c-10.7,3.2-21.8,4-32.6,6.2c-6,1.2-12,2.5-18,3.6
				c-4,0.8-8,1.4-12,2.3C334.8,179.3,332.1,180.4,329.7,181.3z M456.1,73c-0.2,2.8-0.2,5.6-0.2,8.4c0,11-0.6,21.9-2,32.8
				c-0.8,5.7-0.7,11.5-1.1,17.2c-0.5,7-1,14-1.6,21c-0.1,1.1-0.4,2.2-0.8,3.7c-2.8,0.6-5.6,1.2-8.5,1.8c-6.2,1.4-12.4,2.8-18.6,4.3
				c-3.1,0.7-6.1,0.1-9-0.8c-11.5-3.5-22.9-7.1-34.3-10.9c-3.8-1.3-7.4-3.4-11.1-5.1c-2.4-1-4.9-2.1-7.5-2.7
				c-5.4-1.4-10.1-4.3-14.7-7.3c-3.9-2.5-7.8-5.1-12.2-6.8c-0.6-0.2-1.2-1.3-1.3-2c-1.3-9.9-4.5-19.3-7.8-28.7
				c-3.6-10.2-8.9-19.5-14-28.9c-4.2-7.9-9.7-15-15.7-21.6c-3.2-3.5-6.2-7.1-9.3-10.6c-4.9-5.3-10.9-9.2-16.8-13.3
				c-1-0.7-1.9-1.7-3-2.3c-0.9-0.5-2.1-0.6-3.1-0.9c-1.7-0.4-3.4-1.1-5.1-1.3c-9.6-1.2-19.2-2.3-28.9-3.4
				c-5.5-0.6-10.9-0.6-16.4-0.1c-3.9,0.3-7.9-0.4-11.8,0c-8.4,0.8-16.6,2.4-24.4,6c-9,4.1-16.1,10.7-23.3,17c-1.1,1-2.1,2.2-3,3.5
				c-3.8,5.4-8.9,9.7-12.2,15.5c-0.7,1.2-1.9,2-1.6,3.7c0.1,0.5-0.5,1.1-0.9,1.6c-9.5,13.3-13.7,21.7-19.7,34.1
				c-3.4,7-6.1,14.3-9,21.5c-1.3,3.1-1.1,3.4,2.1,5.7c1.2-0.8,2.4-1.6,3.8-2.5c0.1,0.5,0.3,0.8,0.3,1.1c-1.5,5-3,10-4.6,15
				c-0.8,2.4,0.1,4.4,2.1,4.3c1-0.1,2-0.9,3.3-1.6c0.1,1,0.1,1.9,0.2,2.8c0.6,7,1.2,14,1.8,20.9c0.2,1.9,0.1,3.9,0.5,5.7
				c1.8,9.5,5.6,18,12.4,25.1c0.4,0.4,0.8,0.9,1.4,1.6c-15.5,5.1-31.2,6.9-47.6,7.7c0.2-3.9-0.1-7-2.2-9.8c-2.4-3.2-3.4-3.5-6.9-1.6
				c-0.4,0.2-0.9,0.5-1.6,1c0-0.7-0.1-1.2,0-1.5c1.6-4.9-0.5-8.5-4.4-11.2c-2.8-1.9-4.8-4.3-6.7-7.1c-2.4-3.6-5.6-6.6-10.2-7.5
				c-0.5-0.1-1.1-0.2-1.4-0.5c-3.7-2.9-7.9-2.3-12.1-1.5c-1.2,0.2-2.6,0.3-3.8,0c-3.7-1-7,0-10.4,1.2c-4.1,1.4-7.9,3.6-12.3,3.7
				c-1.2,0-2.4,0-3.8,0c-0.4-6.2-0.1-12,0.6-17.9c0.7-5.4,1-10.9,1.2-16.4c0.2-8.3,0.2-16.6,0.3-24.9c0-0.9,0.2-1.7,0.3-2.6
				c2.1-0.3,2.9,1,3.6,2.4c1,1.9,2,3.9,3.3,5.6c3.3,4.6,6.4,5.6,13,4.3c5,4.9,10.6,3.8,16.1,0.9c2.7-1.4,5.1-3.3,7.7-4.9
				c0.8-0.5,1.7-1,2.8-1.7c0.4,0.9,0.5,1.7,1,2.2c1.1,1.1,2.2,2.7,3.6,3.1c3.1,0.7,6.5,1.2,9.7,1.1c1.5,0,3.3-1.3,4.5-2.4
				c1.9-1.8,3.2-4,4.2-6.3c0.1-0.7,0.2-1.5,0.3-2.3c1.4-7.8-4.4-9.9-2.5-13.8c1.2-2.3,1.4,0.9,2.5,2.9s3.2,7.5,6.1,12.3c0,0,0,0,0,0
				c2.3,3.6,5.5,7.5,10.5,7.7s7.4-3.5,9.8-6.7c2.9-4,4.5-8.8,5.1-13.9c0.3-2.7,0.8-5.1,3-7.1c1.6-1.5,2.3-3.9,3.6-5.8
				c1.1-1.7,2.1-3.5,3.5-4.8c3.8-3.4,5.3-10.6,1.1-14.8c-1.6-1.6-2.8-3.6-4.1-5.5c-1.2-1.9-1.2-3.9,0-5.8c1.3-2.2,2.8-4.2,4.2-6.4
				c2.7,0.1,4.9,1,6.9,2.5c4.5,3.5,8.4,1,12.3-1.1c3.6-2,5.7-5.2,5.5-9.4c-0.1-1.7-0.9-3.3-1.6-5.5c1.1-1.9,2.5-4.4,4-6.9
				c1.2-2.1,1.8-4.2-0.1-6.3c-1.8-2-5.7-3.3-8-2.3c-1.9,0.8-3.7,1.8-5.7,2.7c-0.9-0.6-1.6-1.4-2.5-1.8c-4.6-2.1-9-1.1-13.2,1.1
				c-3.8,2.1-3.7,2.4-8.2,1.3c1-1.8,2-3.7,3.1-5.7c-6.2-6.3-12.4-3.4-19.1-0.8c-0.3-1.8-0.5-3.4-0.7-5.1c0.6-0.1,0.9-0.3,1.3-0.2
				c7.9,1,15.7-0.8,23.6-0.9c5.2-0.1,10.4-0.1,15.7-0.2c6.1-0.1,12.3,0,18.4-0.5c5.7-0.5,11.4-1.7,17.1-2.4
				c3.9-0.5,7.9-0.8,11.8-0.8c10.2,0,20.4,0.1,30.6,0.3c7.5,0.2,15,0.5,22.6,0.8c6.7,0.2,13.5,0.4,20.2,0.7
				c9.2,0.4,18.4,0.9,27.5,1.2c6,0.2,12,0.2,18,0.3c6.1,0.1,12.3,0.5,18.4,0.4c6-0.1,12-0.9,18-1.1c6-0.2,11.9,0.1,17.9,0.1
				c3.7,0,7.4-0.3,11.1-0.2c2.5,0.1,5,0.6,7.5,0.9c0.8,0.1,1.5,0.3,2.3,0.3c5.9,0.1,11.7,0.2,17.6,0.4c14.9,0.5,29.9,0.9,44.8,1.6
				c5.2,0.2,10.4,0.9,16.2,1.4c0.3,4.4,0.7,8.8,0.9,13.2c0.2,3.7,0.4,7.4,0.5,11.1c0,2.5-0.4,5.1-0.3,7.6c0.2,6.1,0.6,12.2,0.7,18.3
				C456.8,65.9,456.3,69.5,456.1,73z"/>
		</g>
		<path class="st13" d="M249.6,134.5c2-0.2,3.7-0.3,5.5-0.4c4.2-0.4,8.3-1.1,12.5-1.1c3.3,0,6.7,0.7,10.1,1.1
			c-0.1-0.2-0.2-0.6-0.5-0.9c-3.6-3.1-7.8-4-12.4-3.7c-4.2,0.3-8.4,0.6-12.5,0.8C249.4,130.5,249.3,130.6,249.6,134.5z"/>
		<path d="M263.5,312.8c2.6,1.2,2,3.2,1.5,4.7c-1.1,3.5-2.5,6.8-4,10.1c-1.5,3.3-3.3,6.6-5,9.9c-2.6,5.3-5.1,10.8-8,16
			c-1.3,2.4-3.6,4.2-5.5,6.2c-0.4,0.4-1.4,0.4-2.1,0.5c0-0.7-0.3-1.6,0-2.1c1.2-2.2,2.6-4.3,3.8-6.5c2-3.5,4-7.1,5.9-10.7
			c3.7-7.4,7.3-14.9,10.9-22.4C261.9,316.7,262.7,314.7,263.5,312.8z"/>
		<path d="M233,354.2c-1,2.1-1.6,3.7-2.6,5.2c-0.9,1.3-2.3,0.9-2.5-0.6c-1-6.3-4.4-11.2-8.9-15.6c-1.9-1.9-3.3-4.3-5-6.5
			c-2.2-2.8-4.6-5.5-6.8-8.4c-0.9-1.2-1.7-2.5-2.3-3.8c-0.7-1.6,0.8-3.9,2.7-3.9c0.5,0,1.5,0.8,1.5,1c-0.5,4,2.8,6,4.6,8.6
			c2,3,4.4,5.6,6.7,8.3c2.8,3.2,5.8,6.3,8.6,9.6C230.5,350.1,231.7,352.2,233,354.2z"/>
		<path d="M277.4,148.6c-4.8-3-9.9-3.6-15.4-2.3c-5.3,1.3-9.5,4.1-13.4,7.6c-2.8,2.5-2.5,5.3,0.9,6.7c2.9,1.2,5.9,2.3,9,2.9
			c8.6,1.7,16.3-0.8,23.3-5.9c1.2-0.9,3.3-2.8,3.2-3.9C285,152.5,279.8,150.1,277.4,148.6z M249.8,157.3c2.4-1.8,4.3-3.2,5.9-4.4
			c0.9,3.4,2.6,5.3,5.9,7.6C257.4,160.4,254,158.9,249.8,157.3z M269.7,157.5c-1.9,1.4-5.4,1.1-7.4-0.8c-1.1-1.1-2-2.7-2.1-4.3
			c-0.1-2,0.6-1.9,3.5-2.5c-1.4,2.5,0.1,6.8,3.4,5.8c2.4-0.7,2.5-4.6,0.8-6.3c2.4-0.3,3.1,0.7,3.6,2.5
			C272.3,154.6,271.6,156.1,269.7,157.5z M273,159c1.5-2.3,2.5-5.2,2-7.8c1.6,0.9,3.1,1.8,4.8,2.8C278.1,156.6,275.6,157.5,273,159z
			"/>
		<path d="M203.5,162.1c-1.6-1.3-3.2-2.5-4.8-3.8c-4.8-3.6-10.2-5.5-16.1-3.6c-6,1.9-11.5,4.8-16.5,9.3c0.3,0.8,0.4,1.6,0.8,2
			c3.4,2.8,6.8,5.6,11.2,6.9c5.9,1.8,11.7,0.4,17.3-1.4c3.1-1,6.6-1.9,8.6-5.1C205,164.7,205.1,163.4,203.5,162.1z M170.1,165
			c2.6-1.5,4.5-2.6,6.7-3.9c0.8,3.4,1.8,6.4,5.6,8.3C177.2,170.3,174.2,167.3,170.1,165z M190.2,167.1c-3.5,1.6-6.5,0.3-7.8-1.1
			c0,0,0,0,0,0c-0.8-0.5-1.4-1.3-1.8-2.4c-1-2.8-0.2-4,3.7-5.3c-0.7,2.7-1,4.5,0.6,5.7c0,0,1.9,1.7,3.6,0.9c1.7-0.9,3.2-4.1,1.3-6.2
			C194.8,158.4,194,165.4,190.2,167.1z M195.3,167.1c1.3-3,0.8-4.1,0.9-7.3c2.2,1.4,4,3.2,4.5,4.8
			C199.4,165.9,198.1,167.1,195.3,167.1z"/>
	</g>
	<path class="st13" d="M122.2,108.1c-0.5-0.4-1.6-0.2-2.3,0.2c-0.7,0.3-1.3,1.1-1.8,1.7c-1.8,2.2-3.6,4.5-6,6.3
		c3.7-8.4,7.2-17,11.3-25.2c5.3-10.6,11.2-20.9,18.6-30.3c3.4-4.4,6.3-9.3,9.9-13.6c3.9-4.6,8.2-8.7,12.6-12.8
		c1.9-1.8,4.2-3.2,6.4-4.5c2.4-1.5,4.8-2.9,7.3-4.1c2.5-1.2,5.2-2.2,7.8-3.1c2.6-0.9,5.3-2,8.1-2.3c4.5-0.6,9.1-1,13.6-0.9
		c9.9,0.3,19.8,1.6,29.7,1.5c7.3,0,14.4,1,21.5,2.4c1.9,0.4,3.8,1.5,5.5,2.5c10.5,6.1,19.2,14.3,27.2,23.3
		c6.2,6.9,11.3,14.5,15.6,22.6c4.2,7.9,8.6,15.6,12.2,23.8c3.7,8.4,7,17,8,26.2c0.5,4.2,0.9,8.4,1,12.6c0.2,7.3,0.2,14.6,0,21.9
		c-0.1,4.2-1,8.3-1.6,12.5c-0.9,6.3-1.8,12.6-2.7,18.9c-0.9,5.6-2.2,11-4.8,16c-2.9-1.2-3.4-1-4.3,1.6c-0.5,1.6-1.1,3.1-1.7,4.5
		c-1.3-0.1-2.5-0.5-3.4-0.1c-0.9,0.4-1.6,1.6-2.1,2.5c-1.3,2.4-2.4,4.9-3.6,7.4c-0.2-0.1-0.5-0.2-0.7-0.3c0.1-0.9,0-2,0.3-2.8
		c2.3-6.6,3.2-13.4,3.7-20.3c0.5-6.6,1.1-13.3,0.7-19.9c-0.6-9.6-1.1-19.3-4-28.7c-0.2-0.6-0.3-1.2-0.5-1.8
		c-0.6-1.9-1.7-2.7-3.9-1.6c-0.4-6.5-2.9-12.1-5.4-17.6c-0.9-2-2.5-3.9-4.2-5.3c-4.8-4.2-9.1-8.7-12.3-14.4c-2.2-3.9-4-7.9-5.5-12.1
		c-0.8-2.2-2.6-3.3-4.5-4.8c-5.2,8.3-12.8,14-20.3,20c1-3,2-6,3-9.2c-2.1-2.7-3.1-2.8-5.6-0.5c-4.9,4.5-9.7,9.1-14.9,13.3
		c-5.8,4.6-11.6,9.1-18.5,12.2c-1.1,0.5-2.2,1-4.1,1.7c0.6-1.4,0.9-2.2,1.2-2.9c0.7-1.4,1.4-2.7,2-4.1c0.5-1.4,0.7-3-0.7-3.8
		c-1.3-0.8-2.8-1-4.2,0.4c-1.9,1.9-3.8,3.8-5.8,5.5c-1.9,1.6-3.9,3.3-6,4.6c-8.5,5.3-17.1,10.6-25.8,15.7c-2.5,1.5-5.3,2.5-7.8,3.9
		c-5.1,2.7-9.6,6.2-13.7,10.4c-2.2,2.3-3.7,5-4.2,8.4c-0.7,5.2-1,10.2,0.4,15.5c2.5,9.3,4.4,18.8,6,28.7c-0.5-0.7-1-1.4-1.5-2.1
		c-1.9-2.8-4.4-4.9-7.2-6.8c-3.7-2.5-6.9-5.6-8.9-9.8c-1.1-2.4-2.7-4.6-3.9-7c-2-3.9-3.6-7.8-4.2-12.2c-1-7.7-2.7-15.3-3.9-23
		c-0.7-4.6-0.8-9.3-1.3-14.3c-0.6-0.1-1.6-0.4-3.2-0.8c0.7-1.6,1.4-3,1.9-4.5c2.1-6.3,4.1-12.6,6-18.9
		C122.9,109.7,122.7,108.5,122.2,108.1z"/>
	<path class="st13" d="M175.3,143.8c3.5-2.9,6.5-4.6,10.6-4.2c3.9,0.3,7.8,0.1,11.6,0.1C190.8,144.2,183.4,143.7,175.3,143.8z"/>
</g>
</svg>
