<?xml version="1.0" encoding="utf-8"?>
<!-- Generator: Adobe Illustrator 19.1.0, SVG Export Plug-In . SVG Version: 6.00 Build 0)  -->
<svg version="1.1" id="Calque_1" xmlns="http://www.w3.org/2000/svg" xmlns:xlink="http://www.w3.org/1999/xlink" x="0px" y="0px"
	 viewBox="0 0 480.5 478" style="enable-background:new 0 0 480.5 478;" xml:space="preserve">
<style type="text/css">
	.st0{fill:#009DBF;}
	.st1{fill:#D0095B;}
	.st2{fill:#009EC0;}
	.st3{fill:#D1005A;}
	.st4{fill:#C0BFBF;}
	.st5{enable-background:new    ;}
	.st6{fill:none;stroke:#D0095B;stroke-width:3;stroke-miterlimit:10;}
	.st7{fill:#FFFFFF;stroke:#D0095B;stroke-width:3;stroke-miterlimit:10;}
	.st8{fill:#FFFFFF;}
</style>
<g>
	<g>
		<path d="M461.2,478c-0.5-2.6-2.7-2.3-4.6-2.4c-8-0.3-15.9-0.6-23.9-0.9c-9.1-0.4-18.2-0.9-27.4-1.1c-9.5-0.3-19-0.6-28.5,1
			c-13.4,2.2-27,2.5-40.6,2.2c-8.5-0.2-16.9-0.6-25.4-0.7c-6.6-0.1-13.3,0.3-19.9,0.2c-5.3-0.1-10.7-0.8-16-1.2
			c-5.7-0.5-11.4-0.8-17.2-1.3c-10-0.9-20-1.9-30-2.6c-4.3-0.3-8.6-0.2-12.9-0.2c-4.6,0-9.1-0.3-13.7,0c-9.2,0.5-18.4,1.4-27.7,2.1
			c-9,0.7-17.9,1.3-26.9,1.9c-3.3,0.2-6.5,0-9.8,0.1c-2,0.1-4,0.5-5.8,0.7c-2.9-0.5-5.7-1.2-8.5-1.4c-10.7-0.9-21.3-2.1-32.1-1.7
			c-3.5,0.1-7,0.2-10.6,0.1c-6.9-0.2-13.8-0.6-20.7-0.8c-3.5-0.1-7,0.4-10.6,0.3c-9.3-0.3-18.5-0.6-27.8-1.2
			c-3.6-0.3-7.2-1.2-10.7-2.3c-2.3-0.7-4.3-2.3-6.4-3.6c-0.5-0.3-1.1-1.1-1.1-1.6c0.2-3.5-2.5-6.2-2.5-9.6c0-3.4,0.2-6.8,0.3-10.2
			c0.5-12.5,1.9-25.1,0.2-37.6c-1.5-11.3-0.8-22.4-0.1-33.6c0.8-12,1.5-24,2-36c0.3-6.6,0.6-13.3-0.4-19.9
			c-0.8-5.5-1.3-11.2-1.3-16.8c-0.1-6.3,0.5-12.5,0.7-18.8c0.2-7.2,0.4-14.3,0.4-21.5c0-11.1-0.6-22.2-0.4-33.3
			c0.2-10.3,1.3-20.6,1.8-30.9c0.2-4.2-0.2-8.3-0.3-12.5c0-1.8,0-3.7,0-5.5c0.1-9.8,0.5-19.6,0.4-29.4c-0.1-8.2-0.7-16.4-1.2-24.6
			c-0.2-3.9-0.6-7.8-0.9-11.7c-0.6-6.1,0.2-12,1.5-17.9c0.4-1.9,0.5-3.9,0.7-5.8c0.2-1.6,0-3.3,0.7-4.6c1.3-2.6,1.2-5.3,1.1-8.1
			c-0.2-7.7-1-15.3-1.9-22.9C3.4,48.8,3.3,45.4,3.3,42c0.1-6,0.5-11.9,0.8-17.9c0.1-2.1,0.3-4.2,0.8-6.2c1.6-5.6,1.1-11.8,5.4-17.3
			C19.4,0.4,29.1,0,38.7,0c5.5,0,10.9,1,16.4,1c6,0.1,12-0.6,18-0.7c5.3-0.1,10.7-0.2,16,0.4c13,1.6,26,1.9,39.1,0.9
			c8.3-0.6,16.7-1.2,25-1.3c4.8-0.1,9.6,0.8,14.4,1.3c1.2,0.1,2.3,0.1,3.5,0.1c12.9,0.1,25.8,0.3,38.7,0.3c3.4,0,6.8-0.4,10.2-0.4
			c4.4,0,8.9-0.1,13.3,0.6c8,1.2,16.1,1.9,24.2,1.4c7.7-0.4,15.3-0.9,23-1.1c4.3-0.1,8.6,0.1,12.9,0.6c9.1,1,18.2,1.3,27.3,1.3
			c11.1-0.1,22.2,0.1,33.2,0c9.5-0.1,19-0.5,28.5-0.7c4.2-0.1,8.3,0.2,12.5,0.1c6.6-0.1,13.3-0.6,19.9-0.6c5.3,0,10.7,0.7,16,1.1
			c2.7,0.2,5.5,0.3,8.2,0.5c2.6,0.2,5.2,0.5,7.8,0.7c3.4,0.3,6.8,0.8,10.1,0.7c7.2-0.1,14.3-0.1,21.3,1.9c1.8,0.5,2.5,1.2,2.3,2.8
			c-0.4,3.9-0.8,7.8-1.2,11.7c-1.1,11.3-3.2,22.5-3,33.9c0.2,17.9,0.2,35.8,0.5,53.6c0.1,4.5,0.9,9.1,1.1,13.6
			c0.1,2.3-0.4,4.7-0.4,7c-0.1,2.7,0,5.5,0.1,8.2c0,1.6,0.2,3.1,0.3,4.7c0.3,5.1,0.6,10.2,0.8,15.2c0.1,1,0.1,2.1,0,3.1
			c-0.2,9.1-0.4,18.3-0.8,27.4c-0.2,4.9-1,9.8-1.5,14.8c-0.8,8.6-1.2,17.2-2.2,25.7c-1,7.8-0.5,15.6-0.2,23.5
			c0.3,10.7,0.8,21.3,1,32c0.1,2.9-0.4,5.7-0.3,8.6c0,7.6,0.3,15.1,0.2,22.7c-0.1,8.1-0.7,16.2-0.9,24.3c-0.1,2.9-0.2,5.8,0.2,8.6
			c1,7.6,0.4,15.1,0.2,22.7c-0.4,13.1-0.6,26.1-1.1,39.2c-0.1,3.9-1,7.8-1.2,11.6c-0.4,7.7-0.5,15.4-0.8,23.1
			c-0.4,8.5-0.7,16.9-2.7,25.2c-0.1,0.5-0.3,1-0.3,1.5c-0.4,3-0.4,2.9-3.3,3.3C463.6,476.4,462.6,477.2,461.2,478z M474,12.6
			c-3.4,0.2-5.9,0.3-8.4,0.4c-1.6,0.1-3.1,0.1-4.7,0c-7.7-0.6-15.4-1.4-23-1.8c-5.6-0.3-11.2-0.2-16.8-0.3
			c-14.5-0.2-29-0.6-43.5-0.6c-10.7,0-21.4,0.5-32.1,0.7c-6.7,0.1-13.3-0.2-20,0.1c-27.3,1.3-54.6-0.5-81.8-2.4
			c-9.6-0.6-19.3-0.3-28.9,0.4c-9.8,0.7-19.6,1-29.3,0.1c-9.3-0.9-18.5-1.6-27.8-1.2c-11.4,0.5-22.7,1.2-34,2.1
			c-9.2,0.8-18.2-0.9-27.3-1.7c-8.1-0.7-16.1-1.9-24.2-1.2c-4,0.4-8.1,0.7-12.1,0.7C50.7,7.7,41.5,7.4,32.2,7
			c-3.9-0.2-7.8-0.5-11.7-1.3c-5.6-1.1-8.4,0.6-9.5,6.2c-1.6,8-1.7,16.1-1.5,24.2C9.8,40.8,9.8,45.6,11,50c1.3,5.3,2,10.5,1.6,15.9
			c-0.2,3.1-0.4,6.3-0.6,9.4c-0.5,6.1-1.2,12.2-1.6,18.3c-0.5,7.6-0.6,15.1-1,22.7c-0.6,11.2-0.9,22.4,1.5,33.5
			c0.1,0.6,0.1,1.3,0.1,1.9c-0.2,2.3-0.5,4.7-0.5,7c0.1,8,0.6,15.9,0.5,23.9c-0.1,11.4-0.1,22.7-0.9,34.1c-0.9,12.5-3,24.9-1.4,37.5
			c0.2,1.3,0,2.6,0,3.9c-0.4,7.4-1.3,14.9-1.2,22.3c0.1,12.7,0.8,25.3,1.2,38c0.1,3.7,0.3,7.3,0,11c-0.9,12-1.3,24,0,36
			c0.1,1.3,0.1,2.6,0.1,3.9c0.1,8.8-0.8,17.5-1.3,26.2c-0.6,12.3-0.3,24.6-0.3,36.8c0,1,0.1,2,0.2,3.7c3.7-1.9,7-3.5,10.1-5.2
			c10.8-6.1,21.8-11.9,33.5-16.2c8.6-3.1,17.5-5.3,26.2-8c4.4-1.4,8.5-3.4,11.4-7.2c1.4-1.7,2.6-3.6,4-5.3c1.6-1.9,2.9-4.1,4.9-5.5
			c4.6-3.4,8.2-7.6,11.5-12.1c4.2-5.6,8.6-10.7,15.4-13.5c2.3-0.9,4.3-3,5.8-5c4.2-5.7,10.1-9.3,15.7-13.3c0.3-0.2,0.7-0.3,1.1-0.4
			c1.9-0.3,2.9-1.6,3.5-3.2c1-2.8,3.1-4.9,5.5-6.5c3.6-2.3,7.3-4.4,10.8-6.4c-1.9-7.2-4.4-14.5-5.8-21.9
			c-2.6-13.6-3.7-27.4-3.9-41.3c-0.1-11.2,0.5-22.4,0.7-33.6c0.2-10.6,0.4-21.1,0.5-31.7c0-0.6,0-1.4-0.3-1.9
			c-2.9-4-2.3-8.3-1.4-12.8c0.8-4.2,1.9-8.7-0.7-12.6c-1.9-2.8-1.3-5.1,0.1-7.6c0.5-0.9,1.1-1.7,1.6-2.3c-0.9-2.8-1.8-5.4-2.6-7.9
			c0.8-0.6,1.3-0.8,1.7-1.1c2.4-1.9,2.5-2.1,0.9-4.7c-0.7-1.1-1.2-2.3-1.8-3.5c-0.7-1.4-0.4-2.5,1.1-3.2c1.2-0.5,2.3-1.2,3.3-1.8
			c0.1-1.5,0.2-2.8,0.3-4.1c0.3-4.4,0.3-4.4,4.8-5.2c-1.8-2-3.3-3.7-5-5.5c1.5-1,2.6-1.7,4.2-2.7c-1.3-0.8-2.3-1.1-3-1.8
			c-0.8-0.9-1.8-2-1.9-3c-0.1-0.6,1.5-1.4,2.5-1.9c0.5-0.3,1.2-0.2,1.9-0.4c0.4-4.2-3.9-7-3-11.2c1.3-0.3,2.5-0.6,4-1
			c-0.6-1.4-1-2.5-1.5-3.6c1.5-1.7,3.7-3.1,3.9-4.7c0.4-2.9,2-4,4.2-5.2c-0.7-1.3-1.3-2.6-1.9-3.8c1.3-1.3,2.5-1.7,3.8-0.3
			c0.5,0.6,1.1,1.1,1.7,1.6c1.4,1,2.5,0.4,2.7-1.3c0.1-0.6-0.2-1.3-0.1-2c0.2-1.2,0.2-2.7,0.9-3.5c1.1-1.4,2.9-2,5-0.5
			c0.2-2.2,0.7-3.9,0.5-5.5c-0.2-2.5,2.3-2.5,3.2-3.9c1.2-1.8,2.7-1.5,3.8,0.4c0.6,1.1,1.3,2.3,2.1,3.6c1.2-1.8,1.8-3.5,3-4.2
			c1.1-0.7,2.8-0.4,4.5-0.6c1-1.9,2.1-4.1,3.4-6.7c2.4,0.8,4.6,1.6,7,2.4c2.1-2.6,4.6-5.2,8.6-3c3.3-5.7,6.4-4.6,10.9,0.4
			c1.9-0.5,3.8-1.6,5.2-1.2c3.2,1,6.1-0.3,9,0.1c1-1.6,1.8-3.1,2.9-4.4c1.2-1.5,3.4-2,4-0.8c1.3,2.4,3.5,1.6,5.3,2.2
			c0.6,1.3,1.1,2.4,1.8,3.9c2.1-1.8,4.3-3.1,6.4-0.5c3.3-1.6,3.4-1.7,5.3,1.2c1.2,1.7,2.5,2.6,4.6,2.1c1.6-0.4,2.8,0.4,3.7,1.7
			c0.7,1,1.3,1.9,1.6,2.4c2.1,0.8,3.7,1.6,5.4,2c1,0.3,2.2,0.3,3.3,0.1c2-0.3,4-1,6.1-1.2c2.3-0.2,4.1,1,4.3,3.1
			c0.3,3,1.6,4,4.5,4.1c2.8,0.1,3.6,1.3,4.1,4.3c0.2,1,0.4,2,0.6,3c3.2-0.5,3.2-0.5,6.8,1c1.9,0.8,3.8,1.6,5.7,2.5
			c1.5,0.6,2.1,1.8,2.2,3.4c0.1,1.7,0.2,3.3,0.4,4.8c1.6,0.8,3.2,1.1,4.1,2c1.1,1.3,2.1,1.9,3.8,2c3,0.2,3.7,1.7,2.8,4.6
			c-0.2,0.9-0.6,1.8-0.4,2.6c0.5,2.8,1.3,5.5,2,8.6c3.3-0.7,4.1,2.2,4.4,4.5c0.3,2.3-0.5,4.8-0.9,7.5c2.9,1.3,3.4,4.2,3.8,7.1
			c5.6,0.9,3.1,4.9,3,7.8c1.6,0.9,3.1,1.4,4.3,2.4c0.6,0.5,1,1.8,0.9,2.6c-0.4,3.9-1,7.7-1.5,11.7c1,0.4,1.9,0.8,2.9,1.3
			c0,1.7-0.2,3.3,0,4.8c0.4,2.7-0.4,5.8,2.5,7.8c1.2,0.9,0.9,2.2-0.1,3.4c-0.8,1-1.9,2.6-1.6,3.4c1,2.5-0.5,4-1.6,5.7
			c0.3,1,0.3,2.2,0.9,3c2.2,3,1.2,6,0.4,9c-0.3,1.3-0.6,2.5-0.8,3.8c-0.3,2.2-0.3,4.4-0.7,6.5c-1,5.3-2.6,10.5-0.5,16.1
			c4,0.9,6.7,3.8,8.1,7.8c1.1,3.2,1.2,6.3,0.6,9.6c-1,5.6-3,11.1-2.5,17c0.5,6.8,1.1,13.5,1.1,20.3c0,4.3-0.7,8.6-1.8,12.7
			c-1,3.7-3.2,6.9-8.2,6.5c0,5.8,0,11.4,0,16.5c2.6,2.6,4.9,5,7.3,7.3c1.8,1.8,3.5,3.2,6.4,2.8c5.6-0.8,9.9,1.6,12.7,6.9
			c4.4,0.1,8,2.3,11.8,4.3c1.7,0.9,2.8,2,3.6,3.8c0.6,1.3,1.7,2.6,2.9,3.5c1.9,1.3,4.1,2.4,6.3,3.2c4.8,1.6,7.9,4.9,10.3,9.1
			c0.6,1.1,1.3,2.4,2.3,3.1c5,3.2,9,7.5,13,11.7c3.5,3.7,6.5,7.9,9,12.3c2.5,4.4,6.4,6.2,10.8,7.8c1.5,0.5,3,1,4.3,1.9
			c3.9,2.7,7.6,5.7,13,3.7c0.4-4,0.9-8.4,1.4-12.8c0.8-7.1,2.4-14.1,2-21.4c-0.4-7.2-0.6-14.4-0.7-21.5c-0.3-20.2-0.7-40.5,1.3-60.7
			c0.3-3,0-6-0.2-9c-0.1-2.9-0.5-5.7-0.6-8.6c-0.3-6.8-0.5-13.6-0.8-20.3c-0.1-2.5-0.6-5-0.5-7.4c0.3-6.1,0.7-12.3,1.5-18.3
			c0.8-6,0.8-12.1,2.3-18c0.7-2.7,0.4-5.7,0.4-8.6c0.1-11,0.3-21.9,0.1-32.9c-0.2-9.4-1-18.8-1.2-28.2c-0.2-9.9-1-19.9,0.8-29.7
			c0.3-1.8,0.4-3.6,0.5-5.5c0.4-9.7,0.7-19.3,1-29c0.1-2,0.4-3.9,0.4-5.9c-0.1-7.6-0.3-15.1-0.3-22.7c0-2.2,0.2-4.4,0.4-6.6
			c0.2-2.3,0.8-4.7,0.7-7C471.3,19.5,471.2,16.2,474,12.6z M300.6,293.3c3.4-0.1,5.2,2.1,7.4,3.7c1.1,0.8,1.5,1.6,1.5,2.9
			c0,2.4,0,4.9,0,7.3c0.2,0,0.4,0,0.5,0c0-2.7,0-5.3,0-8.2c0.9,0.1,1.6,0,1.8,0.3c1.4,1.5,2.8,3.2,3.9,4.7c1.4,1.9,1.7,4.3,4.5,5.2
			c0.7,0.2,0.8,2.3,1.1,3.6c4.6-1.6,3.1,2.3,3.6,4.5c0.8-0.6,1.4-1.1,2-1.6c3.4,2.2,3.4,5.7,3.7,9.3c2.8,0.3,3.7,2.4,3.9,4.9
			c0.2,1.4,0.5,2.8,0.8,4.3c0.5-2.8-0.3-5.8,0.7-8.1c1.2-3-1.2-5.9,0.4-8.9c1,0.2,1.9,0.4,3.7,0.9c-2.2-2.8-3.9-4.9-6.1-7.7
			c2.2,0.2,3.6,0.3,5.1,0.4c1-2.3,3-4.5-0.2-6.8c-0.2-0.2-0.1-1,0-1.5c0.4-3.3,0.6-6.6-0.9-9.7c-0.2-0.4-0.1-1-0.1-1.4
			c2.2-1.1,2.6,1.2,4.1,2c0.1-0.9,0.3-1.8,0.1-1.9c-1.3-0.6-1.3-1.6-0.8-2.6c0.8-1.6,0.2-3-0.2-4.5c-0.3-1.1-1-2.9-0.5-3.3
			c2-1.8,0.7-3.6,0.4-5.3c-0.4-2.1-1.1-4.2-0.2-6.6c1,0.3,1.8,0.5,2.9,0.9c-0.2-2.4-0.5-4.7-0.7-7c1.1-0.4,2-0.7,3.1-1.1
			c-0.4-1.3-0.9-2.5-1-3.7c-0.2-2.1-0.9-4.6-0.1-6.3c0.6-1.3,1-2.5,1-3.9c0.1-2.5,0.1-5.1,0.2-7.8c2.8,0,2.9,1.4,2.9,3.1
			c0,8.8,0.2,17.5,0.2,26.3c0,7.2-0.1,14.4-0.1,21.5c0,1,0.1,2,0.2,3.1c3.3-2,4.6-3.5,4.6-7c0.1-4.4,0.4-9-0.6-13.3
			c-2-8.7-0.9-17.1,0-25.7c0.4-4,0.6-8.1,0.3-12.1c-0.2-3-2.2-4.1-5.2-3.8c-1.3,0.1-2.6,0-3.9,0c-0.5-5.3-0.7-10.2-1.6-14.9
			c-2.1-10.8-4.4-21.5-7-32.1c-1.4-5.6-3-11.1-5.3-16.3c-5.3-11.6-11-23.1-16.9-34.4c-4.5-8.6-9.5-16.9-17.1-23.2
			c-1.8-1.5-3.8-3-5.9-3.7c-6.4-1.9-13.2-1.5-19.4,0.3c-7.6,2.2-15.1,2.6-22.8,2.6c-6.4,0-12.8,0-19.1,0c-2.5,0-5,0.3-7.4,0
			c-4.7-0.5-9.3,0-13.9,0.9c-3.8,0.7-7.4,1.9-10.2,4.6c-0.9,0.9-1.3,2.4-2.4,2.8c-4.3,2-6.6,5.7-9,9.4c-4.9,7.6-8.1,16-11.6,24.4
			c-1.9,4.5-4.2,8.8-5.5,13.4c-2.3,7.7-4.1,15.6-5.9,23.5c-0.6,2.9-0.7,6-0.7,9c0,9.4,0.2,18.8,0.1,28.2c-0.1,8.2-0.5,16.4-0.8,24.6
			c0,1.2-0.3,2.8,0.3,3.4c2.5,2.3,1,4.5,0.3,6.8c-0.2,0.5-0.2,1-0.3,1.4c0.9,0.8,1.7,1.4,2.4,2.1c-0.6,3.1-3.2,5.3-2.8,8.7
			c2.8-3.4,2.8-3.4,5.1-1.5c-1.2,3.3-2.3,6.6-3.5,9.9c1.7-0.8,3.1-1.2,4.5,0.6c-0.9,2.7-1.9,5.5-2.8,8.3c4.2,0.5,4.2,0.6,2.7,4.2
			c-0.8,1.8-1.4,3.7-2.1,5.6c0.7,0,0.9-0.1,1-0.3c0.8-1.5,1.9-1.6,3.3-0.8c1.3,0.8,1.1,1.9,0.6,3.1c-0.7,1.8-1.4,3.7-1.9,5.5
			c-0.4,1.4-0.8,2.9,0.4,4.9c0.8-2.5,1.4-4.4,2-6.3c1.4-0.2,2.6,0.9,3.8-0.5c1.1-1.3,2-0.3,2.6,0.6c-0.6,2.2-1.2,4.2-1.8,6.2
			c3.1,0.9,2.9-2,4.2-2.9c2.2,0.5,2,1.9,1.8,3.4c-0.5,3.2-1,6.4-1.4,9.6c3,0.6,3.1,0.8,2.8,3.5c-0.2,1.6-0.4,3.1-0.6,4.7
			c0.2,0,0.4,0.1,0.5,0.1c0.7-1.1,1.4-2.2,2.1-3.4c4,1.6,0.7,4.3,1.6,6.3c3.2,1.5,3.5,2.1,3.1,5.9c-0.2,1.7,0,3.4,0,5.8
			c1.4-1.6,2.2-2.6,3.1-3.6c2.3,1.7,0.3,5.5,3.4,5.9c0.7,1.6-1.4,3.4,1.3,4.3c0.9-2.1,1.8-4,2.8-6.1c2.6,1.6,0.8,3.8,1.5,6.1
			c0.6-1.2,1.1-2.1,1.6-3c0.3,0.2,0.6,0.4,0.9,0.5c0,2,0,4,0,6.3c1.4-0.5,2.6-2.8,3.9-0.4c-1.3,3.7-1.3,5.9-0.1,6.3
			c0.5-0.7,1-1.5,1.5-2.1c4.7,0.5,5.2,1,5.5,5.4c0.5-1.2,1.1-2.5,1.9-4.3c1.5,1,2.6,1.7,3.8,2.4c1.6-0.8,3.2-1.5,4.7-2.2
			c1.3,0.5,2.5,1,3.6,1.5c2.8-5.5,2.2-11,0.8-16.6c-1.1-4.4-2.3-8.8-3.3-13.3c-0.3-1.6-0.2-3.2-0.3-5c3.1-0.1,4.9,1.7,6.4,3.3
			c1.5,1.7,2,4.3,5,5c-1.2-2.7-2.3-5.5-3.6-8.4c2.7,0.3,2.7,0.3,5.2,2.7c0.4-0.9,0.8-1.8,1.2-2.6c4-0.3,4-0.3,6.1,4.8
			c0.2-1.8,0.3-3.6,0.6-6.2c1.8,1.4,3.1,2.4,4.5,3.5c2.2-2.3,5.1-2.4,8.2-1.3c0.3,0.1,0.8-0.3,1.2-0.4c1.8-0.8,2.8-0.5,3.1,1.2
			c0.2,0.9,0.1,1.8,0,2.7c-0.2,4.3-0.4,8.6-0.7,12.9c2.3-5.9,2.1-12.4,4.8-18.6c1.4,1,2.4,1.8,3.4,2.5c0.4-0.3,0.7-0.5,1-0.8
			c1.1-0.9,2.1-1.1,3,0.1c0.8,1.1,0.1,1.8-0.5,2.8c-1.1,1.9-2.1,3.9-2.7,6c-2.2,7.7-1,15.5-0.8,23.6c1.8-0.1,3.1,2.1,5,0.3
			c0.2-0.2,1.2,0.4,1.7,0.8c0.8,0.7,1.4,1.5,2.5,2.7c0.1-3.4,4.6-2.8,3.8-6.5c0.3,0,0.6,0,0.8,0.1c1.2,1.7,2.4,3.5,3.6,5.2
			c1.8-3.3,2-6.7,1.4-10c3.1-0.3,3.1,2.1,4.1,3.4c0.2,0.2,0.6,0.2,1.1,0.3c-0.1-0.9-0.1-1.7-0.3-3.5c2,1.5,3.3,2.5,5,3.8
			c-0.5-2.8-0.9-5-1.3-7.2c3.4-0.5,2.7,3.1,4.8,3.9c1-3,0-5.8-0.5-8.7c3.1-0.6,3.7,3,6.4,3.1c0.2-4.4,0.4-8.6,0.6-13.2
			c3.9,1,3.6,4.6,4.9,7.4c1.6-3.2,1.9-6.7-0.1-9.3c-1.1-1.5-1.2-2.6-1.2-4c-0.1-1.1,0-2.2,0-3.9c-0.7,1.4-1.1,2.4-1.5,3.4
			c-0.3,0-0.6,0-0.8,0c-0.5-4.7-1-9.3-1.5-14c-1.1-0.6-2.2-1.5-3.4-1.8c-1.5-0.3-1.9-1.2-2.1-2.4c-0.4-3.2-2.2-5.8-3.6-8.6
			c-0.2-0.3-0.4-0.6-0.7-0.9c-0.4,0.7-0.7,1.4-1,2.1c-1.5,0.3-2.5-2.5-4-0.4c-1.7-1.3-3.6-2-5.7-2.2c-0.4,0-0.9-0.9-1.1-1.5
			c-0.6-1.6-1.2-3.2-1.7-4.8c-0.4-1.3-0.6-2.6-0.9-3.9c-0.3,0.1-0.6,0.1-0.9,0.2c0.6,3.2,1.1,6.3,1.7,9.5c-0.3,0.1-0.5,0.2-0.8,0.3
			c-1-0.8-2-1.6-2.9-2.4c-1.3,1.9-1.3,1.9-3.7-0.3c-0.5,0.6-1,1.8-1.6,1.8c-0.7,0.1-1.5-0.8-2.1-1.3c-0.4-0.3-0.6-0.9-0.7-1.4
			c-0.4-4.2-0.8-8.5,0.1-12.6c2.3-0.7,2.1,2.2,3,2c1.7-0.4,2.7,0.1,3.6,1.4c0.6-1,1.1-1.9,2-3.4c0.9,1.1,1.5,1.9,2,2.7
			c0.3,0.5,0.5,1.5,0.9,1.6c3,0.3,2.6,2.9,3.2,4.7c0.4,1.1,0.6,2.2,0.9,3.3c0.4-2.5-0.9-5.4,2.3-7.2c2.9,2.5,0.9,6,2.3,8.7
			c0.5-2.2-0.8-4.6,0.5-6.8c2.6,0.6,2.4,2.8,3.1,4.5C299.9,294.9,300.3,294,300.6,293.3z M325.2,366.1c-1.4,1.3-2.7,2.4-3.8,3.6
			c-6.9,7.7-12.8,16.2-17.7,25.3c-0.8,1.6-2.2,3-3.5,4.1c-5.5,4.7-12.1,7.1-18.8,9.2c-11.4,3.7-23.2,3.2-34.9,1.7
			c-6.7-0.9-13.3-2.6-19.8-4.4c-8-2.2-15.4-5.8-20.5-12.9c-0.2-0.3-0.8-0.3-1.8-0.7c0.4,2,0.7,3.5,1,5c1.3,6.5,2.7,13,1.3,19.8
			c-0.3,1.5-0.6,8.4-1.3,9.2c1.3,0.7,2.4,1.2,3.4,1.8c5.2,3.1,10.4,5.9,16.3,7.4c2.9,0.7,5.8,1.4,8.7,2.2c9.9,2.7,20.1,3,30.3,2.4
			c10.2-0.6,20-3.4,29.8-6.2c1.6-0.5,8.9-4.7,9.7-5c5.4-2.6,10.8-5.3,16.1-8c1.5-0.8,2.7-2,4-3.1c1.9-1.5,2.9-3.2,1.4-5.7
			c-0.6-0.9-0.4-2.3-0.7-3.4c-1.7-7.7-0.5-15.4-0.3-23C324.3,379,324.8,372.8,325.2,366.1z M193.4,436.2c-3.4-5.2-6.3-9.9-9.3-14.4
			c-4.7-7.1-9.7-13.9-14.2-21.1c-5.1-8.1-9.6-16.5-10.9-26.1c-0.2-1.1-0.7-2.2-1.1-3.3c-0.5-1.6-1.2-3.2-1.7-4.8
			c-1.8-5.8-3.6-11.6-6.8-17.4c-5.3,4.2-10.4,8.3-15.5,12.3c-1.2,0.9-1.6,2.1-1.3,3.4c0.7,3.4,1.1,7.1,2.4,10.2
			c4.2,9.7,9,19.1,14.8,28c8.2,12.7,17.7,24.5,27.4,36.2c2.6,3.1,5.5,5.9,8.6,9.2C188.6,444,191.1,440.1,193.4,436.2z M169.2,334.3
			c-3.1,2.4-5.4,4.5-7.9,6.2c-2.5,1.7-3.5,4-3.1,6.7c0.7,5.6,1.8,11.1,4,16.3c2.2,5,4.3,10,6.6,15c1,2.2,2.4,4.3,3.5,6.6
			c2.4,5.2,4.8,10.4,7.1,15.6c1.2,2.6,2,5.5,3.5,7.8c4.4,6.6,9.2,13,13.8,19.4c0.1,0.1,0.5,0.1,1.2,0.2c0.9-3.3,2.6-6.6,2.6-10
			c0-8.2-0.8-16.4-1.4-24.6c-0.1-2-0.4-3.9-0.5-5.8c-0.2-5.6-1.5-10.8-4.6-15.5c-2.4-3.5-4.5-7.4-7.1-10.7c-2.4-3-5.5-5.6-8.2-8.4
			c-3.2-3.2-5.5-6.8-6.6-11.3C171.5,339.5,170.4,337.3,169.2,334.3z M127.7,368.1c-0.5,0.1-0.8,0.1-0.9,0.2
			c-5.5,5.2-11,10.3-16.4,15.6c-1.4,1.4-1.3,2.9-0.4,4.6c6.7,12.6,14.3,24.6,24.4,34.7c10.3,10.4,20.6,20.7,32.2,29.6
			c3.6,2.8,7,5.7,10.6,8.7c1.6-2.6,3.1-4.8,4.7-7.3c-1.1-1.3-1.9-2.4-2.9-3.5c-5.5-6.3-11-12.5-16.6-18.8
			c-10.1-11.3-18.2-23.7-23.8-37.9C135.1,385.6,131.4,377,127.7,368.1z M364.7,469.1c1.5-0.4,3-0.5,4.1-1.2
			c4.2-2.4,8.6-4.5,12.4-7.4c9.3-7.1,18.2-14.8,27.6-21.9c10.3-7.8,19-17,27.4-26.8c1.8-2,2.3-3.9,0.8-6.3c-1.2-2-2-4.2-3.1-6.3
			c-1.6-3.1-3.3-6.1-5.6-10.1c-0.7,1.2-0.9,1.9-1.3,2.3c-2.8,3.2-5.7,6.4-8.6,9.6c-4.1,4.5-8.6,8.8-12.5,13.5
			c-12.5,15.4-25.5,30.4-39,45c-1.5,1.6-2.9,3.2-4.4,4.9C363.3,466,363.9,467.4,364.7,469.1z M360.5,459.9
			c4.6-4.9,9.1-9.5,13.3-14.3c7.6-8.6,13.6-18.5,21.4-27c8.4-9.2,16.3-18.7,24.4-28.1c1.9-2.2,3.5-4.4,5.5-6.9
			c-4.6-5.5-9-10.6-14.1-15.6c-1.1,1.7-1.8,3.2-2.8,4.3c-7.3,8.4-13.3,17.7-18.9,27.3c-1.3,2.2-2.4,4.7-3.9,6.8
			c-9.3,13.4-17,27.8-27,40.8c-0.6,0.8-1.3,1.7-1.6,2.7c-0.3,0.9-0.5,2.1-0.1,2.9C357.8,455.2,359.1,457.4,360.5,459.9z
			 M104.9,390.1c-1.8,1.3-3.2,2.1-4.4,3.2c-1.9,1.8-3.7,3.7-5.3,5.7C92,403,92,409,95.5,412.8c6.4,6.8,12.9,13.7,19.8,20.1
			c10.1,9.4,20.6,18.4,30.9,27.7c3.8,3.4,8.2,6.2,13.1,6.8c4.4,0.6,9.1-0.7,14.5-1.2c-3.8-2.9-7.1-4.9-9.7-7.5
			c-9.1-8.8-19.1-16.6-27.4-26.1c-7.1-8.1-14.7-15.9-20.9-24.7C111.8,402.2,107.2,397.2,104.9,390.1z M405.7,363.2
			c-3.6-3.9-6.8-7.5-10.2-10.9c-2.6-2.6-4.2-2.4-6.2,0.9c-3,5-6.1,10.1-8.6,15.4c-7.1,15-14,30-20.8,45.1c-3.5,7.6-6.6,15.3-9.9,23
			c-0.6,1.3-1.2,2.6-0.2,4.1c1.3,1.9,2.4,3.9,3.9,6.4c2.9-4,5.8-7.5,8-11.3c4.6-7.9,8.7-16.1,13.3-23.9c4.7-8.1,9.7-16.1,14.8-24
			c4.8-7.5,9.8-14.8,14.7-22.2C405,364.7,405.5,363.6,405.7,363.2z M75.2,430.6c0.5,0.7,1.2,1.7,2,2.5c5.9,6.3,12.6,11.7,19.3,17.1
			c1.8,1.5,3.7,2.9,5.7,4.1c6.6,3.8,13.3,7.6,20,11.3c2.5,1.4,5.1,3,7.8,3.3c4.2,0.5,8.6,0,12.9-0.1c0.8,0,1.6-0.4,2.9-0.7
			c-5.9-4.8-11.3-9.2-16.7-13.7c-7.5-6.2-15-12.4-22-19.3c-6.7-6.5-12.1-13.9-17.4-21.5c-0.6-0.8-1.1-1.6-1.8-2.6
			C81.9,416.5,76.9,422.1,75.2,430.6z M346.2,434.4c1.3-3.4,2.4-6.2,3.4-9c1.9-5.3,3.7-10.6,5.7-15.8c1.8-4.9,3.6-9.8,5.7-14.6
			c2.5-5.9,4.8-11.9,8-17.4c4.8-8.1,10.4-15.6,14.9-23.9c1-1.8,2-3.7,2.8-5.6c0.5-1.3,0.8-2.9-0.8-3.8c-3.2-1.9-6.4-3.9-9.8-5.9
			c-1,1.1-1.9,1.9-2.5,2.9c-2.6,4.1-5.3,8-7.6,12.3c-5.7,10.7-11.1,21.6-14.9,33.2c-3.5,10.9-6.4,22-8.9,33.2
			c-1,4.4-0.7,8.2,2.2,11.7C344.8,432.2,345.2,432.9,346.2,434.4z M381.7,467.2c3.9,0,7.8-0.1,11.7,0c5.2,0.2,9.8-0.4,14.4-3.6
			c6.2-4.3,13-7.8,19.5-11.6c7.9-4.6,13.7-11.2,19.1-18.3c0.6-0.8,1.1-2.3,0.8-3.2c-1.8-5.1-3.9-10.2-6-15.7
			C421.6,433.2,403.7,452.5,381.7,467.2z M333.3,415.2c1-1.3,1.4-1.7,1.6-2.3c0.9-2.6,1.8-5.2,2.6-7.7c3.3-9.6,5.9-19.4,10.6-28.5
			c2.2-4.4,4.3-8.9,6-13.6c2.1-5.8,4.9-11.2,8.5-16.2c2.6-3.5,4.8-7.3,7.3-11.2c-2.3-1.2-4.1-2.2-6-3c-2.5-1-4.5-0.4-5.9,2
			c-1.7,2.8-3.3,5.6-4.8,8.5c-8.9,16.8-16.4,34-18.9,53.1c-0.6,4.4-1.2,8.8-1.6,13.2C332.6,411.1,333,412.7,333.3,415.2z M107,466.5
			c-3-2.3-5.6-4.4-8.3-6.3c-7.5-5.4-15.6-10-22.1-16.7c-2.5-2.6-5.1-5.1-8-8.1c-2.8,5.5-5.4,10.6-8.1,15.9c5.3,3.4,10,6.7,14.9,9.7
			c5.2,3.2,10.7,5.4,16.9,5.5C96.9,466.6,101.7,466.5,107,466.5z M321.2,427.8c-0.2-0.2-0.4-0.4-0.5-0.6c-0.4,0.2-0.7,0.3-1.1,0.5
			c-16,7.8-38.4,17.4-71.6,16.8c-6.8-1.2-13.7-1.8-20.4-3.7c-7.8-2.2-15.9-4.2-22.6-9.8c-0.2,1.1-0.4,2-0.6,2.8
			c8.5,5.8,17.3,10,27,12.7c11.9,3.3,24,5.3,36.3,5.2c12.6-0.1,24.1-4,34.7-10.7c5.4-3.5,10.6-7.1,15.9-10.7
			C319.4,429.5,320.3,428.6,321.2,427.8z M411.3,467.2c1.9,0.2,2.9,0.5,3.9,0.3c6.1-0.9,12.3-1.5,18.3-2.9
			c6.7-1.6,12.4-5.3,17.6-9.8c1-0.8,2.2-2.4,2-3.4c-0.9-4.5-2.2-8.9-3.6-14.3C439.6,451.2,425.3,458.2,411.3,467.2z M331.7,383.6
			c0.8-3.1,1.7-6.2,2.5-9.3c2.9-11.1,6.8-21.9,12.4-31.9c2-3.5,4.3-6.8,6.3-10.3c1.9-3.2,1-5.1-2.5-6.2c-2.1,5.2-4,10.4-6.3,15.5
			c-1.5,3.3-3.3,6.6-5.4,9.5c-1.7,2.4-3.3,4.7-4.5,7.5C330.8,366.6,331,375,331.7,383.6z M454.9,458.6c-6.1,3.4-11.7,6.5-17.5,9.8
			c7.4,1.3,15.4,1.5,19.2,0.3C456.1,465.4,455.5,462.1,454.9,458.6z M54.5,464.9c5.1,0,9.9,0,14.7,0c0-0.2,0.1-0.4,0.1-0.5
			c-3.9-2.2-7.7-4.4-11.8-6.8C56.5,460.2,55.5,462.5,54.5,464.9z"/>
		<path d="M304.8,173.7c1-0.3,2-0.6,3.2-1c0.4,0.6,0.9,1.2,1.5,2c0.6-0.8,1.1-1.6,1.8-2.6c1.4,1.4,2.8,2.5,3.8,4
			c0.7,1,1,1.7,2.1,0.6c1.2,1.3,3.2,0.7,4.3,1.4c1.8,1.1,3.2,3,4.3,4.9c1,1.6,1.4,3.6-0.7,5.4c-1.1-1.3-1.9-2.9-3.2-3.4
			c-3.3-1.3-6.6-3.5-10.4-2.5c-1.2,0.3-1.9,0.1-2.7-0.7c-0.2-0.2-0.9-0.1-1.3-0.1c-0.4,0-0.9,0.4-1.1,0.3c-2-2-4.7,0.2-6.8-1.4
			c-1.1-0.8-2.3,0.9-3.9,0.9c-1.8,0-2.8-0.6-4-1.4c-2.2,1.3-4.4,1.6-6.8,1.1c-1.1-0.2-2.4-0.6-3.3-0.2c-3.3,1.4-5.5-0.5-7.8-2.2
			c-0.4,0.5-0.8,0.9-1.6,1.8c-2-4.7-1.4-9.2-1.2-14.2c2.1,1,3.7,1.8,5.7,2.9c0.3-0.6,0.7-1.4,1.3-2.7c0.9,1.6,1.4,2.5,2,3.4
			c0.8-0.4,1.7-0.9,3-1.7c0.6,1.2,1.1,2.4,1.7,3.8c0.5-1.2,1.1-2.5,1.7-3.9c1.8,0,3.2,2.2,5.1,0.7c0.1,0,1.3,1.3,2,2.2
			c1.6-1.2,3.4-2.5,5.6-0.5c0.3,0.2,1,0.1,1.4,0C302.5,170.1,304.3,171.4,304.8,173.7c-0.2,1.5-0.5,2.9-0.8,4.3c0.3,0,0.5,0,0.8,0.1
			C304.8,176.6,304.8,175.1,304.8,173.7z"/>
		<path d="M298.3,310.8c-0.6,1.4-1,2.5-1.5,3.7c-3.6,0.2-7.2,0.4-10.8-0.4c-6.7-1.5-13.5-2.8-20.3-3.9c-1.7-0.3-3.6,0.4-5.3,0.8
			c-3,0.7-6,1.6-9.1,2.1c-4,0.7-8.2,0.3-12-1c-4.9-1.8-9.2-0.5-13.6,1.2c-5.7,2.1-11.4,4.5-17.1,6.6c-1.8,0.6-3.8,0.8-5.7,0.9
			c-0.5,0-1.2-0.8-1.5-1.4c-0.2-0.4,0.3-1.3,0.7-1.5c1.1-0.8,2.4-1.5,3.7-1.9c4.3-1.5,8.7-2.8,13-4.3c2.1-0.7,4.2-1.5,6.2-2.5
			c4.9-2.4,9.9-2.2,15.2-1.5c7,0.9,14,1.4,20.8-1.4c1.6-0.6,3.5-0.5,5.3-0.5c8.1,0.2,16,2.5,24.1,2C293,307.6,296,308.3,298.3,310.8
			z"/>
		<path d="M318.5,211.9c-2.8,3.3-6.9,3.9-10.8,4.6c-5.5,0.9-11.1,1.2-16.7,0.1c-0.4-0.1-0.8,0-1.2-0.2c-4-1.9-8-3.7-11.9-5.8
			c-2.4-1.3-2.2-2.1,0-3.8c5.7-4.3,12.3-6.3,19.2-6.7c5.3-0.3,10.3,1.1,14.7,4.1c0.6,0.4,1.3,0.9,2,1.2
			C317,206.4,318.6,208.4,318.5,211.9z M307.9,212.3c2.5-0.4,5.1-0.5,7.4-3c-3.4-0.8-5.2-3.9-8.6-3.4
			C307.2,208.2,307.5,210.2,307.9,212.3z M286.8,205.7c-2.4,0.8-4.4,1.3-5.6,3.3c2.1,0.8,4,1.5,6.3,2.4
			C287.3,209.3,287.1,207.7,286.8,205.7z M295.7,207.4c0.9,1.8,2,1.7,3.4,0.7C298.2,206,297.2,206,295.7,207.4z"/>
		<path d="M191,221.5c-5.8,0.2-11-1.6-15.8-4.8c-2.1-1.4-2.2-2.3-0.2-3.7c3.5-2.5,7-5,11.3-6c2.9-0.7,5.7-1.7,8.6-2.4
			c5.2-1.2,10,0.4,14.7,2.6c0.9,0.4,1.8,1.1,2.4,1.9c0.9,1.1,1.3,2.3,3,2.7c1.3,0.3,1.3,1.8,0,2.7c-4.1,2.6-8.3,4.9-13.1,5.8
			C198.2,220.9,194.6,221.1,191,221.5z M204,216c2.2-0.9,4.3-1.7,6.4-2.5c-1.3-3.4-3.5-4.9-6.9-5C203.6,210.9,203.8,213.1,204,216z
			 M177.7,214.9c2.8,1.6,4.9,2.7,7.7,2.1c-0.1-2.1-0.2-4-0.4-6.4C182.5,212.1,180.4,213.4,177.7,214.9z M192.8,213.1
			c2.5,1.5,2.5,1.5,4.4-0.3C195.6,212,194.2,211.6,192.8,213.1z"/>
		<path d="M185.5,189.2c-2.6,0.3-4-0.7-4.2-3.1c-0.2-1.5-0.5-3.1-0.6-4.6c-0.1-1.3,2.1-4.1,3.1-3.7c1.7,0.6,2.7-0.8,3.8-0.8
			c3.1-0.1,5-1.6,6.6-3.8c1.8,1,3.3,1.9,4.8,2.8c0.5-1.1,1.1-2.1,2.2-4.3c0.8,1.4,1.3,2.2,1.9,3.2c0.5-0.6,0.9-1,1.6-1.8
			c1.6,1,3.2,2,5.1,3.1c0.3-0.4,0.8-1.1,1.5-2.2c1.1,1.6,1.9,2.8,2.7,4c0.5-0.7,1.1-1.4,1.6-2.1c1.9,0.6,2.1,1.8,1.6,3.4
			c-1.1,2.9-2.2,5.9-3.2,8.6c-2.1,0.4-4,0.7-6.1,1c0,0-0.2,0-0.2-0.1c-1.5-2.9-3.8-3.2-6.5-2c-1.8,0.8-2.3-0.5-3-1.8
			c-0.7,0.9-1.4,1.8-2.5,3.1c-1.6-1.2-3.1-2.4-4.8-3.7c0,0.9,0,1.8,0,2.7c-3.8,1.5-4.3,1.3-4.8-2.4c-0.1-0.9-0.2-1.8-0.7-2.7
			C185.5,184.2,185.5,186.5,185.5,189.2z"/>
		<path d="M223.1,278.7c1.3,0.9,2,1.4,2.7,1.8c0.8-1.7,1.7-3.4,2.6-5.2c1.9,0.9,2.5,1.8,1.9,3.6c-2.2,6.5-4.1,13.2-4.7,20.1
			c-0.1,0.6-0.3,1.3-0.5,1.9c-0.1,0.3-0.5,0.6-0.7,0.9c-3.9-1.2-0.4-4.4-1.7-6.1c-0.7,2.5-1.5,5.2-2.3,8.2c-4.2-2.9-0.9-6.1-1.7-9.3
			c-0.5,1.9-0.9,3.4-1.3,4.9c-0.4,1.5-0.9,2.9-1.6,4.8c-1.3-0.8-2.2-1.4-3.1-2.1c-0.1,0.1-0.4,0.1-0.5,0.3c-0.7,1.2-0.3,3.4-2.8,2.9
			c-0.3-0.1-0.9,1.4-1.5,2c-0.5,0.5-1.3,1.1-1.8,0.9c-0.6-0.2-1.3-1.2-1.2-1.7c1.1-4.8,2.4-9.6,3.6-14.3c0.1-0.4,0.7-1.1,1-1.1
			c1.7,0.2,2.8-0.9,4.2-1.4c0.4-0.2,1.2,0.3,1.9,0.6c0.6-1.5,1.3-3.2,2.1-5c1,0.3,1.8,0.6,2.6,0.9
			C221.2,284.1,222,281.7,223.1,278.7z"/>
		<path d="M226.3,230c3.2,2.6,3.2,2.6,2.1,5.6c-1.5,4.1-2.6,8.3-5.3,12.1c-2.1,2.9-3.3,6.7-4.2,10.2c-0.7,2.4-0.6,5.2-0.3,7.7
			c0.3,2.7,2.1,3.9,4.9,3.7c2.2-0.1,4.4-0.3,6.6-0.4c1.7-0.1,3,0.4,3.9,2.7c-2.6,1.1-5,2.6-7.5,3c-6,0.8-9-1.8-11.3-8.4
			c-1.6-4.7-0.7-9.4,1.1-13.8C219.3,244.9,222.9,237.6,226.3,230z"/>
		<path d="M252.7,294.7c-2.4-0.5-2-2.8-3.3-4.9c-0.3,2.6-0.4,4.4-0.7,6.9c-1.1-1.4-1.9-2.4-2.8-3.4c-0.4,1.3-0.7,2.5-1.1,3.8
			c-2.1,0-2.4-1.3-2.2-2.8c0.2-1.8,0.5-3.6,0.9-5.4c1-4.3,2.1-8.5,3.1-12.9c2.7,0.3,2.3,2.6,2.5,4.4c0.1-1.3,0.2-2.5,0.4-4.6
			c1.2,1.1,1.9,1.6,2.4,2.4c0.4,0.6,0.6,1.5,0.6,2.2C252.8,285.1,252.7,289.9,252.7,294.7z"/>
		<path d="M233.6,276.3c0.5,0.7,1,1.5,1.3,2.1c0.6-0.4,1.2-1,1.8-1.1c0.4,0,0.9,0.8,1.2,1.3c0.2,0.4,0.3,1,0.2,1.5
			c-1.1,6-2.3,11.9-3.5,18.1c-2.6-0.5-2.6-2.1-2.3-3.6c0.6-3.6,1.3-7.2,1.9-10.7c0.1-0.7,0.2-1.5,0.2-2.3c-2.5,6.2-2.9,12.9-5,19.2
			c-2-0.3-2.5-1.4-2.3-2.6c1.2-6.1,2.5-12.2,3.9-18.3c0.2-1.1,1-2.1,1.6-3.1C232.9,276.6,233.3,276.4,233.6,276.3z"/>
		<path d="M273,249.6c7.3,3,10.3,11.9,7.3,17.1c-1.7,2.9-4.2,3.8-7.1,4c-3.3,0.2-5.2-1-7.2-4.4c1.3,0.3,2.2,0.4,3.1,0.6
			c3,0.7,6.2-0.6,8.1-3.4c1.5-2.3,1.2-4.7-0.4-6.9c-0.7-1-1.5-1.8-2-2.9C274,252.4,273.5,251,273,249.6z"/>
		<path d="M270.6,292.2c0,0.9,0.1,1.8,0.1,2.7c-2.1-0.3-5.3-2.2-6-3.4c-1.5-2.7-2.8-13.5-2.1-17.1c2.3,0.8,2.3,0.8,3,6.9
			c0.7-1.8,1.1-3,1.6-4.3c2.1,0.2,2,1.7,2.1,3.1c0.2,3.5,0.4,7,0.6,10.5c0,0.6,0.4,1.1,0.7,1.7L270.6,292.2z"/>
		<path d="M194.2,312.8c-0.4,0.9-0.9,1.8-1.3,2.6c-1.4,0.5-2.6-0.2-2.5-1.2c0.6-3.4,1.4-6.8,2.5-10.1c0.5-1.7,1.9-1.2,3.2-0.2
			c0.8-1.6,1.5-3.2,2.3-4.9c2.3,0.8,2,2.4,1.8,3.7c-0.5,2.9-1.1,5.9-1.9,8.7C197.5,314,197.2,314,194.2,312.8z"/>
		<path d="M175.6,183.7c0,1.4-0.1,2.8,0,4.1c0.1,1,0.3,2,0.6,3c0.2,0.8,0.7,1.6,1,2.4c-3.7,1.2-3.7,1.2-6.5-0.9
			c2,2.8-2.2,4.2,0.8,6.8c-4.4-1.2-5.7-3.4-4.1-6.2c0.7-1.2,0.3-3.3,2.6-3.2c0.1,0,0.3-0.2,0.3-0.2c-0.3-1.9,1.7-2.4,2.2-3.4
			C173.2,184.4,174.5,184.4,175.6,183.7L175.6,183.7z"/>
		<path d="M241.7,274c2.1,0.7,2.5,2,2.1,3.7c-0.6,2.9-1.1,5.9-1.9,8.7c-1,3.7-2.3,7.3-3.5,11c-2-0.3-2.4-1.5-2.2-2.9
			c0.2-1.5,0.6-3,1-4.5c1.2-4.6,2.4-9.2,3.7-13.9C241.2,275.5,241.5,274.8,241.7,274z"/>
		<path d="M253.9,273.9c2.2-0.1,2.8,0.9,2.9,2.2c0.1,1.3,0.3,2.6,0.2,3.9c-0.4,4-0.6,8,0.2,12c0.1,0.5-0.2,1.2-0.4,2.5
			c-1-1.1-1.9-1.7-2.2-2.5c-0.5-1.4-0.8-3-1-4.5C253.1,283,253.5,278.5,253.9,273.9z"/>
		<path d="M258.6,273.6c1.7,0.4,1.7,1.6,1.8,3c0,3.2,0,6.5,0.3,9.7c0.2,2.2,0.9,4.4,1.4,6.8c-2.9-0.3-3.2-2.5-3.9-4.4
			C256.6,284.2,256.9,276.5,258.6,273.6z"/>
		<path d="M270.7,292.4c0-3.5,0-6.9,0-10.3c1.8-0.7,2.9,0.1,3,1.3c0.4,5.1,0.6,10.3,0.8,15.4c0,0.2-0.4,0.3-0.7,0.7
			c-1.5-0.4-2.1-1.5-2.3-3c-0.2-1.4-0.6-2.7-0.9-4.1C270.6,292.2,270.7,292.4,270.7,292.4z"/>
		<path d="M185,322.7c-0.4-0.7-1.2-1.3-1.3-2c-0.2-2.2-0.6-4.6,0.1-6.6c0.8-2.2,2.6-4,4.1-5.8c0.7-0.8,2.3,0,2.1,1.2
			c-0.4,2-0.6,4.9-2,5.7c-2,1.2-1.3,2.5-1.7,3.9c-0.3,1.2-0.4,2.4-0.6,3.6C185.6,322.6,185.3,322.7,185,322.7z"/>
		<path d="M203.6,295.6c0.8,1,1.6,1.5,1.5,1.9c-0.8,4.4-1.6,8.8-2.7,14.3c-1.4-1.3-2.7-2-2.6-2.6C200.5,304.8,201,300.3,203.6,295.6
			z"/>
		<path d="M175.6,183.8c0.5-0.9,0.9-1.9,1.5-3c1.9,0.1,2.6,1.2,2.7,3c0.1,2.3,0.3,4.6,0.4,7c-2.3,0.7-2.8,0.4-3.4-1.7
			C176.3,187.3,176,185.5,175.6,183.8C175.6,183.7,175.6,183.8,175.6,183.8z"/>
	</g>
	<path class="st0" d="M474,12.6c-3.4,0.2-5.9,0.3-8.4,0.4c-1.6,0.1-3.1,0.1-4.7,0c-7.7-0.6-15.4-1.4-23-1.8
		c-5.6-0.3-11.2-0.2-16.8-0.3c-14.5-0.2-29-0.6-43.5-0.6c-10.7,0-21.4,0.5-32.1,0.7c-6.7,0.1-13.3-0.2-20,0.1
		c-27.3,1.3-54.6-0.5-81.8-2.4c-9.6-0.6-19.3-0.3-28.9,0.4c-9.8,0.7-19.6,1-29.3,0.1c-9.3-0.9-18.5-1.6-27.8-1.2
		c-11.4,0.5-22.7,1.2-34,2.1c-9.2,0.8-18.2-0.9-27.3-1.7c-8.1-0.7-16.1-1.9-24.2-1.2c-4,0.4-8.1,0.7-12.1,0.7
		C50.7,7.7,41.5,7.4,32.2,7c-3.9-0.2-7.8-0.5-11.7-1.3c-5.6-1.1-8.4,0.6-9.5,6.2c-1.6,8-1.7,16.1-1.5,24.2C9.8,40.8,9.8,45.6,11,50
		c1.3,5.3,2,10.5,1.6,15.9c-0.2,3.1-0.4,6.3-0.6,9.4c-0.5,6.1-1.2,12.2-1.6,18.3c-0.5,7.6-0.6,15.1-1,22.7
		c-0.6,11.2-0.9,22.4,1.5,33.5c0.1,0.6,0.1,1.3,0.1,1.9c-0.2,2.3-0.5,4.7-0.5,7c0.1,8,0.6,15.9,0.5,23.9
		c-0.1,11.4-0.1,22.7-0.9,34.1c-0.9,12.5-3,24.9-1.4,37.5c0.2,1.3,0,2.6,0,3.9c-0.4,7.4-1.3,14.9-1.2,22.3c0.1,12.7,0.8,25.3,1.2,38
		c0.1,3.7,0.3,7.3,0,11c-0.9,12-1.3,24,0,36c0.1,1.3,0.1,2.6,0.1,3.9c0.1,8.8-0.8,17.5-1.3,26.2c-0.6,12.3-0.3,24.6-0.3,36.8
		c0,1,0.1,2,0.2,3.7c3.7-1.9,7-3.5,10.1-5.2c10.8-6.1,21.8-11.9,33.5-16.2c8.6-3.1,17.5-5.3,26.2-8c4.4-1.4,8.5-3.4,11.4-7.2
		c1.4-1.7,2.6-3.6,4-5.3c1.6-1.9,2.9-4.1,4.9-5.5c4.6-3.4,8.2-7.6,11.5-12.1c4.2-5.6,8.6-10.7,15.4-13.5c2.3-0.9,4.3-3,5.8-5
		c4.2-5.7,10.1-9.3,15.7-13.3c0.3-0.2,0.7-0.3,1.1-0.4c1.9-0.3,2.9-1.6,3.5-3.2c1-2.8,3.1-4.9,5.5-6.5c3.6-2.3,7.3-4.4,10.8-6.4
		c-1.9-7.2-4.4-14.5-5.8-21.9c-2.6-13.6-3.7-27.4-3.9-41.3c-0.1-11.2,0.5-22.4,0.7-33.6c0.2-10.6,0.4-21.1,0.5-31.7
		c0-0.6,0-1.4-0.3-1.9c-2.9-4-2.3-8.3-1.4-12.8c0.8-4.2,1.9-8.7-0.7-12.6c-1.9-2.8-1.3-5.1,0.1-7.6c0.5-0.9,1.1-1.7,1.6-2.3
		c-0.9-2.8-1.8-5.4-2.6-7.9c0.8-0.6,1.3-0.8,1.7-1.1c2.4-1.9,2.5-2.1,0.9-4.7c-0.7-1.1-1.2-2.3-1.8-3.5c-0.7-1.4-0.4-2.5,1.1-3.2
		c1.2-0.5,2.3-1.2,3.3-1.8c0.1-1.5,0.2-2.8,0.3-4.1c0.3-4.4,0.3-4.4,4.8-5.2c-1.8-2-3.3-3.7-5-5.5c1.5-1,2.6-1.7,4.2-2.7
		c-1.3-0.8-2.3-1.1-3-1.8c-0.8-0.9-1.8-2-1.9-3c-0.1-0.6,1.5-1.4,2.5-1.9c0.5-0.3,1.2-0.2,1.9-0.4c0.4-4.2-3.9-7-3-11.2
		c1.3-0.3,2.5-0.6,4-1c-0.6-1.4-1-2.5-1.5-3.6c1.5-1.7,3.7-3.1,3.9-4.7c0.4-2.9,2-4,4.2-5.2c-0.7-1.3-1.3-2.6-1.9-3.8
		c1.3-1.3,2.5-1.7,3.8-0.3c0.5,0.6,1.1,1.1,1.7,1.6c1.4,1,2.5,0.4,2.7-1.3c0.1-0.6-0.2-1.3-0.1-2c0.2-1.2,0.2-2.7,0.9-3.5
		c1.1-1.4,2.9-2,5-0.5c0.2-2.2,0.7-3.9,0.5-5.5c-0.2-2.5,2.3-2.5,3.2-3.9c1.2-1.8,2.7-1.5,3.8,0.4c0.6,1.1,1.3,2.3,2.1,3.6
		c1.2-1.8,1.8-3.5,3-4.2c1.1-0.7,2.8-0.4,4.5-0.6c1-1.9,2.1-4.1,3.4-6.7c2.4,0.8,4.6,1.6,7,2.4c2.1-2.6,4.6-5.2,8.6-3
		c3.3-5.7,6.4-4.6,10.9,0.4c1.9-0.5,3.8-1.6,5.2-1.2c3.2,1,6.1-0.3,9,0.1c1-1.6,1.8-3.1,2.9-4.4c1.2-1.5,3.4-2,4-0.8
		c1.3,2.4,3.5,1.6,5.3,2.2c0.6,1.3,1.1,2.4,1.8,3.9c2.1-1.8,4.3-3.1,6.4-0.5c3.3-1.6,3.4-1.7,5.3,1.2c1.2,1.7,2.5,2.6,4.6,2.1
		c1.6-0.4,2.8,0.4,3.7,1.7c0.7,1,1.3,1.9,1.6,2.4c2.1,0.8,3.7,1.6,5.4,2c1,0.3,2.2,0.3,3.3,0.1c2-0.3,4-1,6.1-1.2
		c2.3-0.2,4.1,1,4.3,3.1c0.3,3,1.6,4,4.5,4.1c2.8,0.1,3.6,1.3,4.1,4.3c0.2,1,0.4,2,0.6,3c3.2-0.5,3.2-0.5,6.8,1
		c1.9,0.8,3.8,1.6,5.7,2.5c1.5,0.6,2.1,1.8,2.2,3.4c0.1,1.7,0.2,3.3,0.4,4.8c1.6,0.8,3.2,1.1,4.1,2c1.1,1.3,2.1,1.9,3.8,2
		c3,0.2,3.7,1.7,2.8,4.6c-0.2,0.9-0.6,1.8-0.4,2.6c0.5,2.8,1.3,5.5,2,8.6c3.3-0.7,4.1,2.2,4.4,4.5c0.3,2.3-0.5,4.8-0.9,7.5
		c2.9,1.3,3.4,4.2,3.8,7.1c5.6,0.9,3.1,4.9,3,7.8c1.6,0.9,3.1,1.4,4.3,2.4c0.6,0.5,1,1.8,0.9,2.6c-0.4,3.9-1,7.7-1.5,11.7
		c1,0.4,1.9,0.8,2.9,1.3c0,1.7-0.2,3.3,0,4.8c0.4,2.7-0.4,5.8,2.5,7.8c1.2,0.9,0.9,2.2-0.1,3.4c-0.8,1-1.9,2.6-1.6,3.4
		c1,2.5-0.5,4-1.6,5.7c0.3,1,0.3,2.2,0.9,3c2.2,3,1.2,6,0.4,9c-0.3,1.3-0.6,2.5-0.8,3.8c-0.3,2.2-0.3,4.4-0.7,6.5
		c-1,5.3-2.6,10.5-0.5,16.1c4,0.9,6.7,3.8,8.1,7.8c1.1,3.2,1.2,6.3,0.6,9.6c-1,5.6-3,11.1-2.5,17c0.5,6.8,1.1,13.5,1.1,20.3
		c0,4.3-0.7,8.6-1.8,12.7c-1,3.7-3.2,6.9-8.2,6.5c0,5.8,0,11.4,0,16.5c2.6,2.6,4.9,5,7.3,7.3c1.8,1.8,3.5,3.2,6.4,2.8
		c5.6-0.8,9.9,1.6,12.7,6.9c4.4,0.1,8,2.3,11.8,4.3c1.7,0.9,2.8,2,3.6,3.8c0.6,1.3,1.7,2.6,2.9,3.5c1.9,1.3,4.1,2.4,6.3,3.2
		c4.8,1.6,7.9,4.9,10.3,9.1c0.6,1.1,1.3,2.4,2.3,3.1c5,3.2,9,7.5,13,11.7c3.5,3.7,6.5,7.9,9,12.3c2.5,4.4,6.4,6.2,10.8,7.8
		c1.5,0.5,3,1,4.3,1.9c3.9,2.7,7.6,5.7,13,3.7c0.4-4,0.9-8.4,1.4-12.8c0.8-7.1,2.4-14.1,2-21.4c-0.4-7.2-0.6-14.4-0.7-21.5
		c-0.3-20.2-0.7-40.5,1.3-60.7c0.3-3,0-6-0.2-9c-0.1-2.9-0.5-5.7-0.6-8.6c-0.3-6.8-0.5-13.6-0.8-20.3c-0.1-2.5-0.6-5-0.5-7.4
		c0.3-6.1,0.7-12.3,1.5-18.3c0.8-6,0.8-12.1,2.3-18c0.7-2.7,0.4-5.7,0.4-8.6c0.1-11,0.3-21.9,0.1-32.9c-0.2-9.4-1-18.8-1.2-28.2
		c-0.2-9.9-1-19.9,0.8-29.7c0.3-1.8,0.4-3.6,0.5-5.5c0.4-9.7,0.7-19.3,1-29c0.1-2,0.4-3.9,0.4-5.9c-0.1-7.6-0.3-15.1-0.3-22.7
		c0-2.2,0.2-4.4,0.4-6.6c0.2-2.3,0.8-4.7,0.7-7C471.3,19.5,471.2,16.2,474,12.6z"/>
	<path class="st1" d="M193.4,436.2c-3.4-5.2-6.3-9.9-9.3-14.4c-4.7-7.1-9.7-13.9-14.2-21.1c-5.1-8.1-9.6-16.5-10.9-26.1
		c-0.2-1.1-0.7-2.2-1.1-3.3c-0.5-1.6-1.2-3.2-1.7-4.8c-1.8-5.8-3.6-11.6-6.8-17.4c-5.3,4.2-10.4,8.3-15.5,12.3
		c-1.2,0.9-1.6,2.1-1.3,3.4c0.7,3.4,1.1,7.1,2.4,10.2c4.2,9.7,9,19.1,14.8,28c8.2,12.7,17.7,24.5,27.4,36.2c2.6,3.1,5.5,5.9,8.6,9.2
		C188.6,444,191.1,440.1,193.4,436.2z"/>
	<path class="st1" d="M169.2,334.3c-3.1,2.4-5.4,4.5-7.9,6.2c-2.5,1.7-3.5,4-3.1,6.7c0.7,5.6,1.8,11.1,4,16.3c2.2,5,4.3,10,6.6,15
		c1,2.2,2.4,4.3,3.5,6.6c2.4,5.2,4.8,10.4,7.1,15.6c1.2,2.6,2,5.5,3.5,7.8c4.4,6.6,9.2,13,13.8,19.4c0.1,0.1,0.5,0.1,1.2,0.2
		c0.9-3.3,2.6-6.6,2.6-10c0-8.2-0.8-16.4-1.4-24.6c-0.1-2-0.4-3.9-0.5-5.8c-0.2-5.6-1.5-10.8-4.6-15.5c-2.4-3.5-4.5-7.4-7.1-10.7
		c-2.4-3-5.5-5.6-8.2-8.4c-3.2-3.2-5.5-6.8-6.6-11.3C171.5,339.5,170.4,337.3,169.2,334.3z"/>
	<path class="st1" d="M127.7,368.1c-0.5,0.1-0.8,0.1-0.9,0.2c-5.5,5.2-11,10.3-16.4,15.6c-1.4,1.4-1.3,2.9-0.4,4.6
		c6.7,12.6,14.3,24.6,24.4,34.7c10.3,10.4,20.6,20.7,32.2,29.6c3.6,2.8,7,5.7,10.6,8.7c1.6-2.6,3.1-4.8,4.7-7.3
		c-1.1-1.3-1.9-2.4-2.9-3.5c-5.5-6.3-11-12.5-16.6-18.8c-10.1-11.3-18.2-23.7-23.8-37.9C135.1,385.6,131.4,377,127.7,368.1z"/>
	<path class="st1" d="M364.7,469.1c1.5-0.4,3-0.5,4.1-1.2c4.2-2.4,8.6-4.5,12.4-7.4c9.3-7.1,18.2-14.8,27.6-21.9
		c10.3-7.8,19-17,27.4-26.8c1.8-2,2.3-3.9,0.8-6.3c-1.2-2-2-4.2-3.1-6.3c-1.6-3.1-3.3-6.1-5.6-10.1c-0.7,1.2-0.9,1.9-1.3,2.3
		c-2.8,3.2-5.7,6.4-8.6,9.6c-4.1,4.5-8.6,8.8-12.5,13.5c-12.5,15.4-25.5,30.4-39,45c-1.5,1.6-2.9,3.2-4.4,4.9
		C363.3,466,363.9,467.4,364.7,469.1z"/>
	<path class="st1" d="M360.5,459.9c4.6-4.9,9.1-9.5,13.3-14.3c7.6-8.6,13.6-18.5,21.4-27c8.4-9.2,16.3-18.7,24.4-28.1
		c1.9-2.2,3.5-4.4,5.5-6.9c-4.6-5.5-9-10.6-14.1-15.6c-1.1,1.7-1.8,3.2-2.8,4.3c-7.3,8.4-13.3,17.7-18.9,27.3
		c-1.3,2.2-2.4,4.7-3.9,6.8c-9.3,13.4-17,27.8-27,40.8c-0.6,0.8-1.3,1.7-1.6,2.7c-0.3,0.9-0.5,2.1-0.1,2.9
		C357.8,455.2,359.1,457.4,360.5,459.9z"/>
	<path class="st1" d="M104.9,390.1c-1.8,1.3-3.2,2.1-4.4,3.2c-1.9,1.8-3.7,3.7-5.3,5.7C92,403,92,409,95.5,412.8
		c6.4,6.8,12.9,13.7,19.8,20.1c10.1,9.4,20.6,18.4,30.9,27.7c3.8,3.4,8.2,6.2,13.1,6.8c4.4,0.6,9.1-0.7,14.5-1.2
		c-3.8-2.9-7.1-4.9-9.7-7.5c-9.1-8.8-19.1-16.6-27.4-26.1c-7.1-8.1-14.7-15.9-20.9-24.7C111.8,402.2,107.2,397.2,104.9,390.1z"/>
	<path class="st1" d="M405.7,363.2c-3.6-3.9-6.8-7.5-10.2-10.9c-2.6-2.6-4.2-2.4-6.2,0.9c-3,5-6.1,10.1-8.6,15.4
		c-7.1,15-14,30-20.8,45.1c-3.5,7.6-6.6,15.3-9.9,23c-0.6,1.3-1.2,2.6-0.2,4.1c1.3,1.9,2.4,3.9,3.9,6.4c2.9-4,5.8-7.5,8-11.3
		c4.6-7.9,8.7-16.1,13.3-23.9c4.7-8.1,9.7-16.1,14.8-24c4.8-7.5,9.8-14.8,14.7-22.2C405,364.7,405.5,363.6,405.7,363.2z"/>
	<path class="st1" d="M75.2,430.6c0.5,0.7,1.2,1.7,2,2.5c5.9,6.3,12.6,11.7,19.3,17.1c1.8,1.5,3.7,2.9,5.7,4.1
		c6.6,3.8,13.3,7.6,20,11.3c2.5,1.4,5.1,3,7.8,3.3c4.2,0.5,8.6,0,12.9-0.1c0.8,0,1.6-0.4,2.9-0.7c-5.9-4.8-11.3-9.2-16.7-13.7
		c-7.5-6.2-15-12.4-22-19.3c-6.7-6.5-12.1-13.9-17.4-21.5c-0.6-0.8-1.1-1.6-1.8-2.6C81.9,416.5,76.9,422.1,75.2,430.6z"/>
	<path class="st1" d="M346.2,434.4c1.3-3.4,2.4-6.2,3.4-9c1.9-5.3,3.7-10.6,5.7-15.8c1.8-4.9,3.6-9.8,5.7-14.6
		c2.5-5.9,4.8-11.9,8-17.4c4.8-8.1,10.4-15.6,14.9-23.9c1-1.8,2-3.7,2.8-5.6c0.5-1.3,0.8-2.9-0.8-3.8c-3.2-1.9-6.4-3.9-9.8-5.9
		c-1,1.1-1.9,1.9-2.5,2.9c-2.6,4.1-5.3,8-7.6,12.3c-5.7,10.7-11.1,21.6-14.9,33.2c-3.5,10.9-6.4,22-8.9,33.2
		c-1,4.4-0.7,8.2,2.2,11.7C344.8,432.2,345.2,432.9,346.2,434.4z"/>
	<path class="st1" d="M381.7,467.2c3.9,0,7.8-0.1,11.7,0c5.2,0.2,9.8-0.4,14.4-3.6c6.2-4.3,13-7.8,19.5-11.6
		c7.9-4.6,13.7-11.2,19.1-18.3c0.6-0.8,1.1-2.3,0.8-3.2c-1.8-5.1-3.9-10.2-6-15.7C421.6,433.2,403.7,452.5,381.7,467.2z"/>
	<path class="st1" d="M333.3,415.2c1-1.3,1.4-1.7,1.6-2.3c0.9-2.6,1.8-5.2,2.6-7.7c3.3-9.6,5.9-19.4,10.6-28.5
		c2.2-4.4,4.3-8.9,6-13.6c2.1-5.8,4.9-11.2,8.5-16.2c2.6-3.5,4.8-7.3,7.3-11.2c-2.3-1.2-4.1-2.2-6-3c-2.5-1-4.5-0.4-5.9,2
		c-1.7,2.8-3.3,5.6-4.8,8.5c-8.9,16.8-16.4,34-18.9,53.1c-0.6,4.4-1.2,8.8-1.6,13.2C332.6,411.1,333,412.7,333.3,415.2z"/>
	<path class="st1" d="M107,466.5c-3-2.3-5.6-4.4-8.3-6.3c-7.5-5.4-15.6-10-22.1-16.7c-2.5-2.6-5.1-5.1-8-8.1
		c-2.8,5.5-5.4,10.6-8.1,15.9c5.3,3.4,10,6.7,14.9,9.7c5.2,3.2,10.7,5.4,16.9,5.5C96.9,466.6,101.7,466.5,107,466.5z"/>
	<path class="st1" d="M411.3,467.2c1.9,0.2,2.9,0.5,3.9,0.3c6.1-0.9,12.3-1.5,18.3-2.9c6.7-1.6,12.4-5.3,17.6-9.8
		c1-0.8,2.2-2.4,2-3.4c-0.9-4.5-2.2-8.9-3.6-14.3C439.6,451.2,425.3,458.2,411.3,467.2z"/>
	<path class="st1" d="M331.7,383.6c0.8-3.1,1.7-6.2,2.5-9.3c2.9-11.1,6.8-21.9,12.4-31.9c2-3.5,4.3-6.8,6.3-10.3
		c1.9-3.2,1-5.1-2.5-6.2c-2.1,5.2-4,10.4-6.3,15.5c-1.5,3.3-3.3,6.6-5.4,9.5c-1.7,2.4-3.3,4.7-4.5,7.5
		C330.8,366.6,331,375,331.7,383.6z"/>
	<path class="st1" d="M454.9,458.6c-6.1,3.4-11.7,6.5-17.5,9.8c7.4,1.3,15.4,1.5,19.2,0.3C456.1,465.4,455.5,462.1,454.9,458.6z"/>
	<path class="st1" d="M54.5,464.9c5.1,0,9.9,0,14.7,0c0-0.2,0.1-0.4,0.1-0.5c-3.9-2.2-7.7-4.4-11.8-6.8
		C56.5,460.2,55.5,462.5,54.5,464.9z"/>
</g>
</svg>
