<?xml version="1.0" encoding="utf-8"?>
<!-- Generator: Adobe Illustrator 19.1.0, SVG Export Plug-In . SVG Version: 6.00 Build 0)  -->
<svg version="1.1" id="Calque_1" xmlns="http://www.w3.org/2000/svg" xmlns:xlink="http://www.w3.org/1999/xlink" x="0px" y="0px"
	 viewBox="0 0 474.3 629.7" style="enable-background:new 0 0 474.3 629.7;" xml:space="preserve">
<style type="text/css">
	.st0{fill:#254B86;}
	.st1{fill:#254B87;}
	.st2{fill:#492E1F;}
	.st3{fill:#DFB76A;}
	.st4{fill:#BFBEBE;}
	.st5{fill:#6EA2C2;}
	.st6{fill:#224E89;}
	.st7{fill:none;stroke:#224E89;stroke-width:3;stroke-miterlimit:10;}
	.st8{fill:#F5F9F8;}
	.st9{fill:#F5F9F8;stroke:#224E89;stroke-width:3;stroke-miterlimit:10;}
	.st10{fill:#F9CB00;}
	.st11{fill:#DF111A;}
	.st12{fill:#0B6EB1;}
	.st13{fill:#8D1514;}
	.st14{fill:#679FD0;}
	.st15{fill:#008549;}
	.st16{fill:#CB9831;}
	.st17{filter:url(#Adobe_OpacityMaskFilter);}
	.st18{fill:#1D1C1A;}
	.st19{fill:#C99730;}
</style>
<g>
	<path class="st1" d="M357.9,546.2c-0.3-6.7,2.5-19.3,3.6-24c1.6-7.3,2.2-22.1,4.8-31.1c3.9-13.1,11.1-29.1,12.7-43.3
		c0.3-2.7-0.4-19.7-1.2-35.9c-0.4-10-2.6-22.8-4.4-35.3c6.7,24,11.5,59.1,7,80.6c-2.2,9.2-5.3,15.3-7.7,32.3c0,0,0,0,0,0
		c-0.6,7-1.9,16-4.5,26.9c-1,4-5.6,16.7-5.7,17.9c2.4-0.8,4.3-5.7,5.1-7.4c3.7-8.3,5.2-17.3,5.8-21c0.9-5.2,2.2-12.2,2.2-18.1
		c-0.1-9.9,3.9-17.5,6.3-26.6c1.5-5.9,2.9-11.8,2.9-17.9c0-6.6-1.1-22.5-2.4-31.9c-1.2-9.3-7.2-36.2-8.1-45
		c2.4,7.4,9.1,36.8,11.4,49c1.7,8.5,3,22.7,1.4,39.2c-0.6,6-1.8,12.4-4.6,17.9c-2.4,4.6-3,9.6-4.1,14.4c-1,4.2-0.5,8.7-0.9,13.1
		c-0.4,4.5-2,11.8-4.2,18.6c-1.8,5.8-9.5,19.1-8.6,19.6c0.9,0.5,10.4-15.9,12-21.2c1.6-5.3,3.4-14.6,3.3-26
		c0-11.1,7.2-21.1,8.2-27.1c1.7-9.6,2-19.3,1.6-29.1c-0.2-5.3-1.5-11.3-1.8-16.5c-0.3-7.5-6.6-30.7-7.1-32.6c-2.1-8.7-5.9-26-5.7-28
		c1.9,2.7,5.2,19.5,7,27.1c1.4,6,6.2,23,7.4,32.1c1.2,9.1,2.3,18.2,2.4,27.3c0.2,12.1-1.9,23.9-6.8,35.1c-2.5,5.6-4.1,11.6-2.9,18.1
		c0.9,5.3-0.6,11.9-2.2,17.5c-1.6,5.6-12,26-11.7,31.2c0.1,1.5,13.2-17.9,14.7-21.3c2.7,0.7,7.7-3.1,13.5-16.2
		c-0.7,12.7-12.2,21.9-16.4,27.6c-3.8,5.1-6.1,7.3-4.1,14.2c1.2,4-0.6,7.5-4.3,10c-2.7,1.8-5.4,4.3-8,6.8
		C362.6,562.4,358.1,550.9,357.9,546.2z"/>
	<path class="st2" d="M431.2,272.3l-7.7-23.1l-0.6-14v-13l-3.7-27.9L407.9,160l-6.4-20.2l-13.2-19.5l-23.8-21.6L347,91.9l-11.7-1.5
		l-6.8,3.6l1.1,15l2.8,13.1l-15.1-7.7L305,90.5l-9.2-9.2l-39.3-15.2l-20.7-7.5L211,60.4l-30.3,14l-43.6,34l-13.5,16l-10.4,18.4
		l-7.3,32.7l2.1,18.7v18.9l0.9,16.8l5.1,12.1l5.5,8.8l6.8,5.3l-4.8-24.1v-11.6l2.3-8.1l5.1-10.4l3.1-10.8l4.5-19.4l5.4-15.6l7.3-14
		l18.9,3.3l17.4-1.2l19.5-3.3l19.6-6.3l16.3-1l22,3.6l26.2,0.9l19.4,1.7l13.8,6.8l10.6,15.4l5.3,19.5l0.9,22.5l6.9-3.8l2.6,5.8
		l-2.6,20.7l1.9,26.5l-6.7,13.8l-4.4,5.2l-1.7,42.6l-4,19.9l-7.8,13.4L312,366l-9.3,17.7l-11.8,16.2l-10.3,12.3l2.2,15.6l7,13.6
		l13.1,11.2l13.6,8.4l4.7,1.7l2.1,9l-2.3,10l-3.2,14.5l-4.6,16.6l11.3,13.8l3.7-1.9c0.7,0,1.4,0.1,2,0.4c-0.1-0.4-0.1-0.9-0.4-1.2
		l5.4,1.2l20,15.5l4.1-17l1.7,0.2c0.2,5.8,0.7,10.1,1.8,10.7c3,1.7,2.4,15.7,6.2,12c3.7-3.7,5.5-12.2,9.1-17.3c0,0,0,0,0,0
		c0.3,0.3,1.9-2.4,3.6-5.2l5.3-0.8l4.4-6.1l4.2-10.1l2.5-12l3.5-13.3l9.2-27l-1.6-20.9l6.1-26.7l2.6-10.1l6.9-17.4l-1.8-13.6
		l-7.5-23.7l10.5-11.5l7.2-13.2l1.4-25.5L431.2,272.3z"/>
	<g>
		<path d="M156.1,244.8c-2.9-0.5-3.4-3.9-1.4-7.3c3.8-6.3,8.2-9.5,15.8-10.6c4-0.6,7.7,0.2,11.5,0.7c7,1.1,30.1,8.1,34.1,9.9
			c3.6,1.6,4.7,2.3,3.3,6.1c-1.7,4.9-5.9,6.9-10.8,5.3c-5.4-1.8-10.8-3.4-16.2-5.2c-2.6-0.9-5.1-1.8-7.5-3.1
			c-6.2-3.3-12.4-4.1-18.8-0.9C162.8,241.5,159,245.3,156.1,244.8z"/>
		<path d="M294.8,245c5.8,0.5,8.4,1.6,12.5,2.7c2.9,0.8,2.8,2.7,2.7,4.5c-2.9,17.2-27.2,26.9-42,14.1c0.6-3.8,2.2-7.1,4.3-10.3
			C277.5,247.9,288.9,244.5,294.8,245z M295.4,249.1c4.9,8.9,1.3,14.2-2,16.2c-3.4,2.1-7.5,2.9-12.2,1.1c-3.3-1.2-5-3.8-6-8
			c-1.6,2.9-3.3,4.7-3.2,7.8c14.6,7.4,25.3,0.1,28.3-2.5c3.6-3,5.4-7.7,6.1-12.6c-2.2-0.6-3.9-1.2-5.7-1.5
			C299.1,249.4,297.4,249.3,295.4,249.1z"/>
		<path d="M166.5,273.5c5-6.6,12.2-14.1,26.3-11.7c6.8,1.8,13.3,4.4,17.2,10.9c0.5,0.8,1,1.5,1.5,2.3c2.5,4.3,0.7,5-3.6,7.4
			c-7.3,3.9-15.1,5-23.9,3.3C175.1,283.8,168.2,277.1,166.5,273.5z M170.6,274.1c10.4,13.5,28.6,11.1,38.7,3.6
			c-1.4-3-3.6-5.4-6.4-8.4c-0.3,1.9-0.3,3.1-0.7,4.1c-0.6,3.6-4.1,7.7-12.3,7.7c-10.2,0-10.4-11.6-9.2-14.1
			C176.4,268.5,173.3,270.9,170.6,274.1z"/>
		<path d="M260.7,236.6c-0.3-2.4,0.6-4.2,2.8-5.4c8.3-4.4,29.9-16.1,33.4-16.5c3.5-0.4,8.8,0.8,13.7,1.8c1.6,0.3,7.6,7,0.7,6.9
			c-9,0-10.5,1.1-15.2,3.6c-6.1,3.3-12.1,6.9-18.1,10.4c-2.4,1.4-4.7,3.1-7.1,4.8c-2.2,1.5-4.4,2.9-7.1,1.4
			C261.1,242.2,260.5,239.6,260.7,236.6z"/>
		<path d="M240.6,337.6c2.6,0.7,5,1.1,7.3,1.9c4.2,1.6,7.8,0.8,11.3-1.7c1.4-1,2.9-2,4.4-3c1.2,1.6,0.9,2.8,0,3.8
			c-3,3.8-8.7,7.5-14.6,5c-2-0.8-4.1-1.4-6.2-2.1C241.1,341,239.9,340.2,240.6,337.6z"/>
		<path d="M229.4,334.4c-1,2.4-2.7,1.9-3.8,1.4c-5.3-2.3-7.8-8.6-3.1-13.6c0.9-0.9,1.9-1.5,3-0.4c1.1,1.1,0.7,1.9-0.4,2.9
			c-0.8,0.6-1.3,1.6-1.7,2.5c-1,2.2-0.3,4,1.7,5.3c0.7,0.4,1.3,0.8,2,1.1C227.8,333.8,228.5,334,229.4,334.4z"/>
		<path d="M276.5,329.5c-1.4-0.7-1.6-1.5-1-2.6c0.5-0.9,1.2-1.7,1.6-2.6c1-2.3,0.5-3.9-1.7-5.1c-1.7-1-1.7-1-2.3-2.9
			c3.2-1,4.4-0.4,6.2,3C281.5,323.4,280.9,325.9,276.5,329.5z"/>
	</g>
	<path d="M213,369.7c1.3-0.5,2.2-0.8,3.1-1.1c4.5-1.3,9-2.2,13.4-3.8c6.7-2.5,13.3-2.7,20.1-1.2c3.8,0.8,7,0.1,10.2-2
		c4.4-2.9,9.3-4.5,14.6-4.7c5.8-0.2,11.6-0.4,17.4-0.6c0.7,0,1.7-0.1,2.2,0.3c0.6,0.5,1.1,1.5,1.1,2.2c0,0.4-0.9,1.3-1.5,1.3
		c-3.3,0.3-5.3,2.1-6.9,4.9c-1.8,3.3-3.8,6.4-5.7,9.6c-2.5,5.7-11.2,10.1-14.1,10.9c-2.9,0.8-10.5,2.2-15.1,2.1
		c-6.8-0.3-12.2-3.5-17.5-7.3c-4.4-3.1-9.3-5.5-14-8.1c-0.7-0.4-2-0.2-2.9,0.1C215.3,372.8,213.9,372.3,213,369.7z M281.8,366
		c-4.7,2.4-8.5,4.5-12.5,6.4c-5,2.5-10.4,3.9-15.9,4.1c-4.6,0.2-9.3-0.5-13.9-0.8c-1.6-0.1-3.2,0-5.7,0c5,3.8,9.4,6.7,15.1,7.5
		c7.2,1.1,13.8-0.7,20.4-3c3.1-1.1,5.4-3.1,7.2-5.6C278.3,372.1,279.7,369.4,281.8,366z M225.9,369.1c6.1,3.4,26.9,4.4,35.4,2
		c7.3-2,19-7.6,20.8-10.7c-0.6,0-2.7,0-3.2,0c-6.5-0.1-12.5,1.2-18,5.1c-2.8,2-6.3,3.2-10.2,1.8c-3-1-6.4-1.8-9.5-1.5
		C236.8,366.3,230.8,367.9,225.9,369.1z"/>
	<g>
		<path d="M330.8,473.7C330.8,473.7,330.8,473.7,330.8,473.7C330.8,473.7,330.8,473.7,330.8,473.7z"/>
		<path d="M469.6,170.3c0.2-11.4,0.7-22.7,1.8-34.1c0.7-6.7,1.1-13.4,1.1-20.1c0-14,1.8-109.8,1.8-112.7C473,3.6,446.6,5,439.3,5
			c-10.2,0-92.8-3.2-93.3-3.3c-13.3-0.3-71-1.2-82.2-1.4c-9.1-0.2-56.6-0.4-64.4-0.3c-11.6,0.2-23.3,0.3-34.9,0.4
			C159.4,0.5,81.1,0,72.4,0.3C60.1,0.6,47.9,0.7,35.6,0.8C29.9,0.9,10.8,0.5,8.8,1.6c-0.4,1.9-1.1,49.5-1.5,55
			c-0.6,7.7-0.8,15.5-1.1,23.2c-0.2,4.4-0.5,26.6-0.6,33.3c-0.1,8,0.8,16.2-0.1,24.1c-1,8.5-1.4,16.9-1.3,25.4
			c0.1,12.9,0.3,25.8,0.4,38.7c0.1,6.1,0.1,12.2,0.4,18.3c0.3,9.7,0.9,19.4,1.2,29.1c0.1,4.5,0,9.1-0.5,13.6
			C5,269,6.1,275.7,5,282.4c-1.1,7-0.7,14.2-0.9,21.3C4,309.7,4,315.6,3.8,321.5c-0.1,4.8-0.4,9.5-0.4,14.3
			c-0.1,10.7,0,21.5-0.4,32.2c-0.4,12.9-1.8,71.2-1.5,77c0.1,2.5,0.2,4.9,0.2,7.4c0.2,5.8,0.1,23.9,0.1,27.1
			c-0.1,14,0.2,28-0.8,41.9c-0.2,2.8,0,5.6,0,8.4c0,6,0,11.9,0,17.9c-0.1,7.9-0.1,15.8-0.2,23.7c-0.1,11.3-0.1,22.5-0.6,33.8
			c-0.2,4.3-0.2,17.8,0.4,19.8c1.6,0.7,172.3-1,177.2-0.9c6.6,0.1,13.2,0.2,19.8,0.4c6.2,0.2,53.3-0.9,66.8,0.4
			c5.5-0.4,57.6,1.9,63.2,2.1c5.9,0.1,11.8,0.5,17.7,0.7c9,0.3,18.1,0.5,27.1,0.9c6.4,0.2,12.9,0.8,19.3,0.9
			c6.8,0.2,13.7,0.3,20.5,0.2c5.6,0,11.1-0.3,16.7-0.4c8-0.3,32.2-2,33.8-2.9c1.9-4.8,2.5-56.2,3-68.4c0.4-9.3,0.3-18.7,0.4-28
			c0-2.7-0.1-5.5,0-8.2c0.4-8,1-16,1.2-24c0.2-12.2,0-24.3,0.7-36.5c0.7-12.8,0.7-25.6,0.9-38.5c0-2.8-0.4-5.7-0.4-8.5
			c0.1-9,0.2-18.1,0.5-27.1c0.3-8.4,0.7-16.8,1.1-25.2c0.4-8.4,0.8-16.8,1.2-25.2c0.3-5.2,0.8-10.3,0.7-15.5
			c0-7.6-0.5-15.3-0.7-22.9c-0.1-2.3-0.1-4.6-0.1-6.9c-0.2-6.7-0.4-13.4-0.6-20.2c-0.1-6.1,0-12.2-0.1-18.2
			c-0.3-11.6-0.9-23.3-1.2-34.9c-0.2-7.5-0.1-15,0-22.5C469.2,187.2,469.5,178.8,469.6,170.3z M8.2,546.9c0-4.6,0.1-9.3,0-13.9
			c0-2,0.6-3.4,1.8-4.9c7.6-9.6,16.6-17.7,26.6-24.8c4.8-3.4,8.3-8.1,11.8-12.8c4.8-6.4,9.9-12.7,14.9-18.9
			c3.4-4.2,7.1-8.3,10.7-12.3c8.3-9.2,16.7-18.3,25.1-27.5c6.6-7.3,13.2-14.5,19.6-21.9c2.7-3.1,5-6.6,7.5-9.9
			c0.2-0.3,0.5-0.5,1.2-1.1c0.1,2.3,0.3,4.2,0.4,6.3c-5.2,4.8-18.3,22.2-21.1,26.1c-8.4,12-16.9,23.9-26.8,34.7
			c-8,8.7-15.7,17.5-23.4,26.4c-4.9,5.7-9.3,11.7-14.1,17.5c-1.9,2.3-4.1,4.3-6.1,6.5c-6.1,6.5-12.1,13.2-18.3,19.5
			c-3.4,3.5-5.7,7.6-8.3,11.7c-0.3,0.5-0.7,1.1-1.5,2.4C8.2,548.5,8.2,547.7,8.2,546.9z M6.5,588c-0.1-2.2-0.4-3.9,1.4-5.9
			c1.9-2.1,2.6-5.3,3.9-7.9c1.1-2.2,2-4.5,3.3-6.5c5.1-7.6,10.1-15.3,15.6-22.7c4.1-5.6,8.9-10.8,13.4-16.1c2.5-2.9,5.1-5.9,7.8-8.6
			c11.2-11.4,20.9-24,31.4-36c9.3-10.6,17.8-21.9,26-33.4c3.7-5.2,7.3-10.3,11.2-15.4c3.1-4.1,6.5-8,9.8-12c0.7-0.9,1.7-1.6,3-2.8
			c1,2.1,1.8,3.7,2.7,5.4c-1.6,1.8-3.1,3.6-4.6,5.3c-3.9,4.4-7.7,8.7-11.6,13.1c-1.4,1.6-2.7,3.4-4,5.2
			c-6.5,8.4-12.8,16.9-19.5,25.1c-8.4,10.5-17.1,20.8-25.7,31.1c-4,4.8-8.1,9.4-12.1,14.1c-2.4,2.9-4.6,5.9-7.2,8.7
			c-6.1,6.7-12.5,13.1-18.5,19.8c-3.3,3.6-6.5,7.4-9.1,11.5C17.8,569.2,12.3,578.6,6.5,588z M139,129.5c1.1,6,3.3,11.8,5.1,17.7
			c-0.1,0.2-0.3,0.3-0.4,0.5c-0.7-1.2-1.7-2.4-2.2-3.7c-2.8-7.8-5.1-15.7-5.4-24c-0.1-3.1-0.5-6.5,3.4-9.3
			C137.7,117.4,137.9,123.5,139,129.5z M409.2,393.8c-0.9-4.3-1.8-8.6-3.3-12.7c-1.9-5.3-4.4-10.4-6.7-15.6
			c-0.1-0.1-0.2-0.2-0.2-0.3c-0.8-2-1.7-3.9-2.5-5.9c0,0,0,0,0-0.1c-0.8-1.9-1.7-3.8-2.5-5.9c-1.5-3.6-15-37.9-16.7-52.4
			c-0.9-4.3-2.2-25-2.6-32.4c-0.8-12.2-1.8-24.4-2.6-36.7c-0.5-9-3.3-17.5-5.2-26.1c-2-9.5-5.1-18.7-8.6-27.7
			c-1-2.7-2.7-5.2-4.3-7.8c-1.7-2.7-3.9-5.1-5.3-8c-1.2-2.6-1.6-5.6-1.7-8.7c2.7,4.5,5.7,8.9,8.2,13.6c7.1,13.2,12.9,27.1,15.9,41.8
			c1.7,8.2,2.1,16.6,2.8,25c1,12.2,1.8,24.5,2.7,36.7c0.4,6.3,2.5,23.5,3.6,31.5c2.1,16,21.2,57.9,25.2,67.3
			c3.4,8.1,6.2,15.8,7.6,24.2c1.3,8.4,1,17.2-0.6,25.4c-0.1,0.5-0.4,0.9-1.3,1.2C411.2,419.2,410.8,401.1,409.2,393.8z M392.4,496.7
			c-0.8-4.1,0.6-7.6,1.5-11.2c1.4,11.4,1.9,23.9-5.9,34.9c1.4-4.7,3.3-10.1,4.1-14.1C392.6,503.1,393,499.7,392.4,496.7z
			 M391.3,481.5c-1.6,5-3,10-2.2,15.5c1.1,7.4-0.5,14.3-4.2,21c-1.2,2.1-6.2,11.6-6.8,11c-0.4-0.3,3.8-10.1,4.5-11.4
			c3.6-7.3,4.7-15,3.5-23c-0.9-5.8,1.4-11,3.7-15.9c4.5-9.9,6.1-20.2,6.2-30.9c0.1-6.3-0.6-14.5-2.1-22.7
			c-5.4-29.8-14.3-60.7-15.8-66.4c-1.5-5.8-2.5-14.2-2.2-14.3c0.5,1.2,18.8,69.6,20.9,84.6c1.6,11.8,2,23.5-0.1,35.1
			C395.5,470.1,393.1,475.8,391.3,481.5z M399.7,430.5c-0.6-6.1-17.9-69.6-18.2-70.7c0.2-0.1-4.7-21.3-4.5-21.4
			c12.6,37.3,22.3,72.8,24.5,90.3c1.1,8.6,6.8,28.2-4.5,47C400.2,465,402.1,455.2,399.7,430.5z M406,445.1
			c-0.4-5.7-1.5-11.3-2.3-16.8c-1.4-10.6-3.1-18.7-6.2-31.6c-0.9-3.6-3-11.2-4.3-14.7c-2.6-6.9-4.9-13.9-7.1-20.9
			c-1.6-5-3-10.2-4.7-15.2c-4-11.5-4.8-15.4-4.8-17.4c3.7,8.7,19.7,49.3,23.4,63c3.2,11.9,8.6,48.4,8.9,53.7
			c0.4,7.9-0.8,15.7-4,23.1c-2,4.7-7.1,13.3-7.4,13.2C401.1,473.5,407.1,460.4,406,445.1z M402.1,388c-1.7-5.8-3.5-11.7-5.7-17.3
			c-2.6-6.9-5.8-13.5-8.6-20.3c-2.2-5.2-4.3-10.5-6.2-15.9c-1.4-3.8-11.7-29.9-13-35.6c-1.5-6.9-4.1-22.6-4.5-31.8
			c-0.4-7.8-1.4-13-2.3-19.6c-0.4-2.8-2.4-18.7-3.2-23.6c-1-6.1-1.7-11.7-3-17.7c-0.9-4-1.6-8.1-2.6-12.1c-1-3.7-2.4-7.3-3.5-11
			c-0.4-1.3-0.4-2.7-0.3-4.2c2.6,2.5,3.6,5.9,4.6,9.1c3.1,9.7,5.2,19.7,6.8,29.8c1.5,9.3,3,18.6,4.2,28c0.7,5.6,0.7,11.3,1.3,17
			c1,10.4,2.7,29.7,4.7,37.3c1.4,5.3,5.3,15.6,6.4,18.8c4.5,12,8.9,23.9,14.2,35.5c4.5,9.6,8.6,19.4,12.3,29.3
			c6,15.8,5.6,40.2,5.4,43.6C407.7,426.3,406.4,402.2,402.1,388z M375.6,405.3c0.5,3.6,0.6,7.8,0.6,12.1c0.1,1.6-0.9,13.5-1.2,15
			c0,0.1,0,0.1,0,0.2c-1.6,8.9-8.4,38-8.4,38s-0.2-5.9,0-7.8c0.2-1.9,3.3-16.7,3.8-19.5c0.5-2.8,2.7-12.7,2.6-27.9
			c-0.1-12.5-1.5-17.9-2.6-25.2c-1-7.3-2-12.2-1.8-16.8c0,0,0,0,0-0.1c0-2.4,0.6-7.4,0.8-9.8c1.1-10.1,2.7-18,2.5-28.2
			c-0.1-6.3-0.4-12.2-1.6-23.8c0.6,2.7,1.7,6.5,2.4,9.2c2.5,9.7,1.8,14.4,1.3,23c-0.4,8.8-0.2,10.6-1.7,22.7
			C371,378.3,373.2,389.2,375.6,405.3z M377,432.6c2,11.9-5.1,39.1-10.4,46.9C369.5,471.7,376.1,439.3,377,432.6z M367.5,414.9
			c-0.4-10.7-1.3-21.4-3.3-32c-1.1-5.9-1.3-11.7-0.7-17.7c1.7-15.4,2.5-31,2-46.5c-0.3-10.4-1.5-20.6-3.3-30.8
			c-1.5-8.6-2.2-17.4-3.2-26.1c-0.2-1.9-0.4-3.8-0.6-5.7c-0.3-1-0.5-2.2-0.8-3.9c-1.2-7.8-4.6-34.9-5.4-40.4l0,0
			c-1-4.8-1.5-12-4.4-12.7c0.2-2.6,0.4-5.1,0.6-7.5c0.2,0,0.4-0.1,0.6-0.1c0.5,2.3,1.4,6.2,2.3,10.4l0,0c0,0,0,0,1.6,7.3
			s5.1,37.2,6.9,45.7c1.1,5.1,1.2,14.9,2.1,20.8c1,7.3,2.4,14.5,3.3,21.8c1,7.8,1.6,15.7,2.4,23.5c0.9,8.5,1.8,17,0.7,25.5
			c-0.6,5-1.4,10-2.1,15c-0.5,4.1-1.2,8.2-1.2,12.3c0,3.6,0.9,7.2,1.6,10.7c1.5,7.6,2,13.3,2.8,19.9c0.9,7.4,1.2,14.8,0.4,22.2
			c-0.5,4.8-2.4,21.2-4.6,22.7C367,437.2,367.8,423.7,367.5,414.9z M338.8,524.6c0.1,0.6,0.2,1.3,0.3,2c-2.5-2.1-4.5-6.7-5-10
			c-0.7-5.2,0.4-10.2,1.4-15.3c1.6-7.8,2.7-15.8,4.1-23.6c1.5-8.4,1.1-16.8,0.6-25.2c0-0.5,0.1-1,0.2-1.5c1,5.8,3,11.4,2.4,17.3
			c-0.5,5.3-0.4,10.6-1.1,15.8c-0.7,5.9-1.8,11.7-3,17.5C337.2,509.4,337.8,517,338.8,524.6z M331.5,521c-2.9-4.6-2.9-9.7-2.8-14.9
			c0.3-8.1,2.7-15.7,4-23.6c1.4-8.6,4-17.1,2.5-26c-0.1-0.3,0.1-0.8,0.3-1.1c0.1-0.2,0.4-0.3,0.8-0.7c0.2,0.7,0.5,1.3,0.6,2
			c0.7,6.6,0.2,13.2-0.9,19.7c-1.5,9.1-3,18.3-4.6,27.4C330.6,509.5,330.2,515.2,331.5,521z M326.8,521.6c-3.2-3.2-3.8-7.3-3.4-11.5
			c0.4-4.1,6.6-35.6,6.8-39.2c0.2-3.7,0.8-7.8,0.8-11.8c0-0.2,0.6-0.3,1.4-0.8c0,5.5-0.2,10.5-1.4,15.4c0,0,0,0-0.1,0
			c-1.6,10.4-5.3,31.4-5.4,34.6c-0.2,5.6,0.2,11.1,4.3,15.6c0.3,0.3,0.3,0.8,0.4,1.2c-1.8-1-4.3,0.5-6.4-1.8c1.4,0,2.7,0.3,3.4,0
			C327.8,522.9,327,521.9,326.8,521.6z M322.4,521.4c-2.3-1-3.9-3.2-4.6-5.3c-2.4-7.4-1.4-16.2,1.9-24.3c0.8-1.9,2.1-6,3.5-12.3
			c2-8.9,0-17.4,0-17.4c2.1,0,4.4-1.4,4.6-1c0.1,0.4,0.4,1.8,0,9.6c-0.3,3.8-1.9,11.8-2.5,14.4c-1.7,6.7-3.7,13.4-4.9,20.2
			C319.3,510.6,319.1,516.3,322.4,521.4z M307.8,454.6c-3.3-3-3.8-17.5-1.1-28.8c2.6-11.3,8.1-27.8,11-35.9
			c3.3-9.1,6.4-18.3,9.5-27.4c2.1-6.2,4.5-14,6.7-24.1c2.2-10.1,5.6-58.9,5.2-64.6c1,14.2,1.9,46.4-5.2,74.2
			c-1.8,7-9.8,30.5-11.3,35.6c-3.5,12.2-7.6,24.4-10.8,36.6c-1.5,5.6-2.5,11.3-3.6,17C307.6,440.8,307.3,449.4,307.8,454.6z
			 M302.6,440.7c1.1,13.5,0.6,8.6,0.6,8.6s-6.4-9.5-0.7-30c5.7-20.5,18.9-60,20.1-64.3c1.3-4.3,4.7-9.5,5.5-11.2
			c0.7-1.8-2.2,9.7-2.2,9.7c-1.2,5-10.3,33-13.7,44.5C308.6,409.5,301.5,427.2,302.6,440.7z M292.2,441.4c-1.1-1.2-1.8-2-2.4-2.6
			c0.7-0.9,4.5-24.1,7.3-34.7c1.2-4.5,1.7-7.5,3.1-11.9c0.3-1.1,4.3-10,4.9-11c0.2,0.2-2,6.9-1.8,7.1
			C297.8,405.4,292.9,422.6,292.2,441.4z M287.8,435.3c-2-3.7-0.9-7.4-0.6-10.9c0.6-8.9,5.5-24.6,8-27.5
			C293.2,407.9,289.7,423.9,287.8,435.3z M295.9,443.2c-0.3,2.2,0-16.1,4.2-34.6c0.8-3.6,8-24.5,9.4-28c2.2-5.5,4.5-10.9,6.8-16.3
			c0.4-1,1.2-1.9,1.8-2.8c0.2,0.1,0.4,0.2,0.5,0.3c-4.3,10.5-7.2,20.6-11.4,31.9C301.6,408.8,297.7,427.8,295.9,443.2z M411.5,253.5
			c1.9,7.3,3.6,15.8,5.7,23.7c2,7.1,2.5,11.6,2.5,19.8c-0.1,7-0.2,14.2-1.8,20.8c-1.1,4.7-2,7.2-5.5,12.9c-3.9-3.9-3.2-3.9-1.6-8.2
			c1-2.6,1.6-5.4,2.4-8.1c2.9-10.4,2.7-21,1.9-31.5c-0.3-3.7-1.8-7.2-2.5-10.9c-1.3-5.9-2.4-11.8-3.5-17.8c-0.4-2-2.2-18.5-3.4-28.6
			c-0.1-0.2-0.1-0.4-0.2-0.8c-0.9-10-2.3-20-4.8-29.7c-3.5-13.3-7-26.7-11.8-39.6c-3.6-9.5-8.7-18.1-14.9-26.2
			c-5.3-6.8-11.4-12.8-19.4-16.2c-6.4-2.8-12.6-6.3-19.5-8.1c-1.3-0.4-2.7-0.5-4-0.7c0.2-2.4,0.4-2.7,2.6-2.1
			c3.7,1,7.5,2.1,11.2,3.3c3.1,1,6.1,2.1,9,3.6c3.2,1.6,6.4,3.5,9.1,5.7c9.7,8,17.3,17.8,22.9,29c1.7,3.3,2.6,7,4,10.4
			c3.7,9.4,8,18.5,11,28.2c4.5,14.7,8.2,25.5,7.3,35.1C406.8,228.9,409.6,246.3,411.5,253.5z M337.3,109c5.3,2.4,10.6,4.7,15.8,7.3
			c7.6,3.9,13.6,10,18.4,16.9c3.8,5.4,7.4,11,10,17c4,9.4,7.1,19.1,10.3,28.8c1.9,5.6,3.4,11.4,4.6,17.2c1.6,7.2,2.9,14.4,3.9,21.7
			c1.1,8.3,1.2,16.7,2.6,24.9c1.8,11.1,3,22.2,6.5,33c2.6,8.1,2.5,16.7,2.1,25.3c-0.3,5.9-1.9,11.4-2.8,17.2
			c-0.1,0.8-0.6,1.6-1.2,3.1c-1.8-2.6-2.4-4.6-1.9-7.1c1.7-8.5,2.6-17.2,1.7-25.9c-0.6-6-1.6-12-2.4-18c-0.7-6-4.3-16.1-4.3-29.9
			c0-5.1-4.1-31.6-6.6-42.8c-1-4.4-2.7-12.1-4.1-16.4c-3.9-12.9-9.4-25.2-16.4-36.7c-3.8-6.3-8.5-12-14.3-16.7
			c-4-3.2-7.5-7.2-11.9-9.7c-3.8-2.2-7-5.6-11.8-6c-2.3-0.2-2.1-2.6-3.2-4.1C334.5,107.1,335.9,108.4,337.3,109z M399.8,277.1
			c-0.7-4.8-0.6-11.9,0.2-17.7c1.8,14.3,5.7,35.7,2.4,50.7c-2-5-1-9.7-1-14.3C401.5,289.5,400.8,283.5,399.8,277.1z M345.6,333.2
			c0.1,3.2-0.4,6.4-0.4,9.6c0,8.9-3.1,44.4-4.3,57.1c0.1-1.5-0.1-20.1,1.2-33.3c0.8-8.1,1.1-16.2,1.3-24.4c0.2-9.2,0.2-18.4,0-27.6
			c-0.2-7.9-0.8-15.8-1.1-23.6c-0.1-2.3-0.2-12.6-0.4-15.4c-0.1-1.3,0.1-2.6,0.1-3.8c0.3,0,1.4-4.8,1.7-4.8
			c-0.1,5.6-0.1,15.9,0,21.5c0.1,4.6,1.5,25.9,1.9,32.6C345.8,324.6,345.5,329.7,345.6,333.2z M328.1,437.8c0.1,1,0.2,2,0.4,3.1
			c0.5,4.4,2,8.3,5.6,11c-1.1,1.1-2.1,2.2-3.4,3.6c-0.6-1-1.3-1.9-1.8-2.8c-3.1-5.8-4.2-9.8-4.5-19.5c-0.3-12.7,3.5-24.1,7.2-35.4
			c1.8-5.5,3.4-11.1,5-16.6c0.2,0,0.5,0,0.7,0c-0.2,3.6-0.3,7.2-0.5,10.3c-1,1.2-5.4,16-7.3,22.5
			C327.3,421.8,327.4,429.8,328.1,437.8z M331.8,439.4c-1.9-10.7-0.5-21.1,2.8-31.4c0.5-1.4,2.8-7.7,3.8-9.1c0,1.9,0.3,4.6,0.7,7.6
			c-1.5,3-5.2,11.8-6.3,22c-0.5,5.1,0.6,10,3,14.6c0.7,1.4,1.3,2.8,2,4.2c-0.5,0.6-1.1,1.3-1.6,2c-0.3-0.2-0.6-0.4-0.9-0.7
			C332.8,446.1,332.4,442.7,331.8,439.4z M336.2,427.5c0.5-6.1,2.4-14.2,3.2-18.7c0.4,2.8,0.9,5.8,1.4,8.8
			c-5.6,17.9,2.4,27.2,0.5,29.1C338,440.5,335.6,434.6,336.2,427.5z M341.5,420.9c1.8,10,3.6,17.9,3.6,18.5
			C344.5,440.4,340,436.2,341.5,420.9z M344.7,215.6c-0.5,3.8-1.3,7.7-1.3,11.5c-0.1,5.4,0.6,10.9,0.5,16.3
			c-0.1,6.6-0.8,13.1-2.8,19.5c-0.1,0.4-0.5,0.7-1,1.4c-0.2-0.7-0.5-1-0.4-1.3c0.9-5.8,2.3-21.2,2.2-23c-0.1-6.6-0.4-13.1-0.4-19.7
			c0-4.5,0.3-9,0.5-13.5c0.1-2,1.6-4.3,3.3-4C347,203,345.1,212.1,344.7,215.6z M343.3,189.3c-0.9,1-1.6,2.2-2.7,3.8
			c-0.5-3.7,1.8-5.6,3.8-7.9C345.1,187.2,344.3,188.2,343.3,189.3z M340.4,200.2c0.2-3,2.1-4.4,3.6-6.6
			C344.9,197.2,343.2,198.8,340.4,200.2z M340.4,184.1c-0.8-3.6,2.2-5.3,3.6-8.5C345.4,180.1,341.9,181.6,340.4,184.1z M341.1,136.6
			c-1.4-2.6-3-5.1-4.8-7.5c-1-1.2-1.5-2.3-0.4-4.5c0.5,0.8,1,1.7,1.5,2.5c4.9,7.7,16.2,21.6,23.2,34.8c2.7,5.1,5.6,10.2,8.1,15.4
			c4.9,10.5,7.3,21.8,9.4,33.1c0.5,2.7,0.4,5.4,0.6,8.1c0.8,8.9,1.6,17.8,2.3,26.7c0.5,6.6,1.2,13.1,1.3,19.7
			c0,9.5,0.8,18.9,1.6,28.3c1.2,12.6,5,24.5,10.7,35.7c1,2,1.7,4.1,2.7,6c1.3,2.5,12.4,30.4,10.4,33.1c-6.2-14.3-14-32.7-18-41.6
			c-6.7-14.8-8.2-31-8.8-47.1c-0.2-6.3-1.1-12.6-1.7-18.9c-0.2-2.7-0.4-5.4-0.6-8.1c-0.8-11-1.6-21.9-2.6-32.9
			c-0.5-5.1-1.1-10.3-2.2-15.3c-1-4.2-2.8-8.3-4.3-12.4c-1.2-3.3-2.5-6.5-3.7-9.8C363.1,174.6,342.4,139,341.1,136.6z M334.2,133.1
			c0.2,0.2,0.9,1.6,1.1,1.8c-2.5,1-15.4,5.1-17.9,6.1C319,138.1,331.1,133.3,334.2,133.1z M321.4,143.9c4.2-1.7,11.2-5,15.4-6.7
			c0.1,0.2,1,1.3,1.1,1.4c-3.7,2.1-11,4.9-14.8,6.8c-0.4,0.2-1.1-0.3-1.7-0.5C321.3,144.6,321.4,144.2,321.4,143.9z M336.3,142.6
			c2.6-1.6,3.2-0.9,3.4-0.7c-2.7,2.3-8.2,5.9-11.2,8.5c-0.9-0.9-1.5-1.6-2.2-2.3C329.7,146.2,333,144.4,336.3,142.6z M331.8,152.6
			c2.9-2.2,5.7-4.7,8.5-7.2c1,0.7,0.6,1.7-0.2,2.5c-2.7,2.7-5.5,5.3-8.5,8.3C330.8,154.6,330.3,153.7,331.8,152.6z M334.4,158.4
			c1.1-1.5,6.6-4.9,7.9-6.9c0.4,3.4-1.6,6.9-7,10.6C335.3,160.8,333.3,160,334.4,158.4z M342.9,160c1.1,1.6,1.5,2.6,0.1,3.9
			c-2,1.9-3.6,4.2-5.4,6.3c-0.3-0.2-0.6-1.4-0.9-1.6C337.2,164.4,341.3,163.7,342.9,160z M340.9,171.8c1.1-1.7,2.1-3.5,3.2-5.4
			c1.2,4.9-2.6,7.3-4.2,11C337.8,174.7,339.9,173.4,340.9,171.8z M313.1,425.8c5.6-26.2,16.4-55.5,17-57.5
			c7.3-23.3,10.6-40.6,10.7-40.6c0,2.7-0.6,13.7-0.8,16.4c-0.1,0.8-7,25-9.1,30.7c-0.2,0.5-10.4,33.3-10.4,33.3
			c-1.9,6.3-4.6,16.6-5.1,23c-0.5,7.2-1,14.5,1.8,21.4c0.9,2.4,2.2,3.6,3.5,6.3c-1.8,0.2-3.6,0.4-5.5,0.6c-0.7-0.7-2-1.1-3.1-7
			C309.9,441.1,311.2,434.8,313.1,425.8z M317.2,441.4c-0.3-14.1,2.8-25.6,7.2-39.2c3.2-9.9,9.5-30.3,10.6-33.4
			c1-3.2,3.8-13.2,4.7-16.2c0.2,0-0.8,12.4-1.1,15.8c-0.7,3-9.4,28-11,33.8c-1.7,6.1-6.3,13.1-5.6,38.2c0.1,5.1,4.2,11.7,6.7,16.4
			c-0.6,0.5-2.9,1.1-4.3,1.5C320.5,452.8,317.3,447.4,317.2,441.4z M342.4,499.1c2.6-9.7,4.2-36.4,2.5-53.3
			c4.1,12.3,3.3,35.5,3,40.4c-0.7,11.1-3.9,26.8-4.6,42.3C342.4,521.7,340.3,507.1,342.4,499.1z M348,514.1c1.3-7.2,2.6-14.5,3-21.8
			c0.5-9.9,0.5-19.9,0.1-29.8c-0.3-6.1-1.8-12.2-2.7-18.3c-0.1-0.4-7.4-46.7-0.7-11.5c1.9,7.7,5.3,25.8,6.5,33.6
			c1.3,8.8,0.8,17.6-0.4,26.5c-1.2,8.8-2.4,34.5-2.5,35.3c-0.1,2.6-0.7,4-1.8,7.4c-0.5-1.2-1.8-3.9-1.8-5.1
			C347.4,524.9,347,519.5,348,514.1z M354.3,526.1c0.2-4.4,0.5-11.1,0.9-16.1c0.5-6.6,1.3-13.1,2-19.7c0.4-4.8,1-9.5,1.1-14.3
			c0-5.8-0.6-11.4-2.2-17.1c-2.4-8.4-6.6-29.5-7.1-31.3c-2.5-9.5-3.6-16.9-4.2-25.4c-0.4-5.3,0-10.6,0.1-15.9
			c0.2-10.8,1.6-22.9,2.4-33.7c0.7-9.7,0.7-18.8,0.6-27.3c-0.1-6.4,0-13.2-0.4-19.7c-0.1-1.5-2.3-22.4-0.4-26.1
			c0.2,1.4,1,24.4,1.3,25.8c1.8,10.4,2.3,20.4,2.3,30.9c-0.1,9.4-0.8,19.4-2,28.7c-0.7,5.7-0.9,11.5-0.8,17.3c0,1.7,0.2,3.3,0.3,5
			c0.5,7,1,13.9,1.5,20.9c0.9,14.9,4.9,29.3,8.4,43.7c1.8,7.4,3.7,14.8,3.7,22.5c0,5.7,0.4,15.6,0,21.2c-0.6,8.4-2.2,12.5-3.1,20.8
			c0,0,0,0.1,0,0.1c0,0,0,0.1,0,0.1c0,0.3-0.1,0.6-0.1,0.9c-0.1,1-0.3,2.1-0.6,3.1c-1.7,9.6-3.6,15.7-3.6,17
			C352.7,536.2,354.1,530.5,354.3,526.1z M356.2,435.3c-1.3-6.6-1.8-14.3-3-20.9c-0.6-3.3-2.9-21.4-2.3-44.1
			c0.1-2.6,0.3-5.2,0.7-7.7c1.9-14.9,1.8-29.9,1.5-44.9c-0.1-5.5-1-11.1-1.9-16.5c-2-11.9-2.4-23.9-1.6-35.9
			c0.4-6.3,0-13.9-0.5-20.3c-0.4-5.9-1.8-19.4-1.2-20.9c0.3,3.3,3,24.2,3.2,27.5c0.3,6.3,0.7,12.7,0.7,19c0,10.1,1.4,20,2.6,30
			c0.7,6.1,0.6,12.4,0.9,18.6c0.3,6.6,0.7,13.2,0.7,19.8c0,6.5-0.5,12.9-0.9,19.4c-0.4,7.6,0,16.3,0,23.9c0,31.8,9.5,85.4,9.5,86.7
			C364.5,468.9,356.3,435.4,356.2,435.3z M362.4,441.7c-0.4-2.4-0.9-4.1-1-5.9c-0.7-12.5-1.4-25.1-2.1-37.6
			c-0.1-2.4-0.5-4.9-0.8-7.3c-1.4-10.3-0.4-20.6,0.3-31c0.7-9.4,1.4-18.8,0.7-28.3c-0.7-8.9-0.5-17.9-1-26.8
			c-0.3-5.3-2.3-13.2-2.6-19.3c-0.3-6.1-2.5-48-6.6-67c-0.2-0.8-0.2-5.4,0-6.2c1.5,8.6,6.8,41.1,7.4,47.6c0.6,5.7,2.9,32.9,3.8,39.5
			c0.5,3.3,0.6,6.7,0.8,10c0.7,12.4,1,24.8,0,37.2c-0.7,8.4-1.8,16.7-2.1,25.1c-0.2,4.5,0.8,9,1.6,13.4c1.8,9.7,2.9,19.4,3,29.3
			c0,5.3,0.5,10.6,0.7,15.9C364.7,434.1,364.3,437.7,362.4,441.7z M348.5,168.6c3.6,3,7.6,11.4,8.2,16.8c-2.4-4-4.1-8.3-7.4-11.8
			C348.4,172.7,348.8,170.4,348.5,168.6z M356.8,185.7c0.7,1.2,1.8,2.4,2.1,3.7c3,11.9,6.2,23.7,8.6,35.7c1.6,8.1,1.9,16.4,2.5,24.6
			c0.7,9.5,2.9,28.6,2.4,48.6c-0.6-7.5-2.5-33-3.3-40.5c-0.9-9-1.8-18-3.2-26.9c-1.7-11-3.8-21.9-6-32.8
			C359.1,194,357.9,189.9,356.8,185.7z M408,355.5c-1.7-5.7-9.1-24.4-13.3-34.3c-1.1-2.6-2-5.3-2.8-8c-3.7-11.7-5.3-23.7-5.7-35.9
			c-0.5-18-1.5-35.9-3.1-53.8c-1.2-14.1-3.3-28.2-8.8-41.2c-8.6-20.2-22.3-42.9-30.9-51.6c-1.4-1.4-6.3-6.4-6.7-8.5
			c3.6,2,10.1,9.2,13,12.3c2.8,3,5.5,6.1,8.2,9.2c4.9,5.7,8.9,12.1,12,18.9c2.7,5.8,5.4,11.8,7.6,17.8c2,5.7,3.6,11.6,4.9,17.5
			c2,9.1,3.8,18.2,5.5,27.4c1.6,8.2,2,16.4,2,24.7c0.1,13.7,0,27.5,0.3,41.2c0.1,6.6,1.6,13.1,3.4,19.4
			c3.4,12.5,13.4,32.8,16.4,39.8c3.2,7.6,5.6,15.5,7,23.3c0.9,5.4,2.4,10.6,2,16.1c-0.1,1.2-0.3,2.4-0.8,3.6
			C417.1,388.6,411.7,367.4,408,355.5z M402.7,327.5c-4.7-10.1-7.9-25.1-8.7-29.1c-1.5-8.4-0.5-37.6-0.4-48.2
			c0.2-13.1-1.6-26-4.6-38.8c-1.6-6.8-2.6-13.7-4.4-20.5c-1.5-5.8-3.7-11.5-5.7-17.2c-1-2.8-2.6-5.4-3.5-8.2
			c-2.5-7-6.8-13.1-10.7-19.3c-1.2-1.9-2.9-3.6-4.4-5.4c-1.9-2.2-3.9-4.5-5.9-6.6c-3.8-4-7.6-8.1-11.6-12c-1.5-1.5-3.6-2.6-5.6-3.5
			c-1.5-0.7-1.7-1.7-1.5-3.5c1.9,1.1,3.7,2.1,5.4,3.1c4.6,2.8,9,6,12.8,9.9c3,3,6.2,5.7,9,9c6.1,7.3,10,15.9,14.6,24.2
			c7.4,13.5,13.3,32.2,16.7,53.9c0.3,1.8,0.8,3.5,1,5.3c1,9.1,2.7,18.2,2.1,27.4c-0.4,6,0,12.4-0.4,18.4c-0.4,5.8-0.5,31.7,1.6,40
			c2.1,8.3,15,35.2,18.3,43.6c6.3,15.8,7.4,38.6,5,27.3C419.3,366.1,407.4,337.6,402.7,327.5z M428.3,282.3
			c-2.2-11.4-9.1-27.7-10-39.4c0-0.1,0-0.1,0-0.2c-0.7-5.1-1-10.3-0.8-15.5c0.3-9.7-0.2-19.4-2.3-28.9c-1.3-5.8-3.4-11.3-5.2-17
			c-0.2-0.6-5.6-12.9-5.7-13.5c-2.6-7.1-5-14.3-7.5-21.4c0-0.1-9.6-27.1-28.7-38.1c-5-2.9-18.3-9.8-23.7-11.9
			c-2.1-0.8-4.5-0.8-6.9-1c-1.7-0.1-3.4,0-5.4,0c1.1-2.6,6.7-3.5,8.4-3.4c9.4,0.8,20.9,7.5,26.3,11.7c2.8,2.2,25.7,17.3,32.4,38.3
			c1.2,3.2,9.9,27.1,10.7,29.9c4.8,16.1,9.9,28.4,10.4,45.6c0.2,8,1.2,18.4,1.2,26.2c0,8.7,5.6,18.4,8.7,31.9
			c3.1,13.1,3.8,32,0.8,43.7c-2.1,7.9-11.2,17.3-13.8,20c1.5-3.8,9.6-16.1,10.5-20C429.9,310.4,430.5,293.6,428.3,282.3z
			 M332.6,97.8c3.5,0.2,7.2-0.1,10.3,1.1c10.4,4,20.3,8.9,29.5,15.3c4.2,2.9,8.9,9.4,11.4,13.4c3.2,5,8.2,16.9,8.9,18.8
			c3.1,8.6,5.7,17.4,9.4,25.8c3.9,8.9,7.5,17.9,9.3,27.5c1,5.3,1.5,10.7,1.9,16.1c0.3,4.9,0.2,9.8,0.1,14.7c-0.1,6.8,1,13.4,2.2,20
			c1.2,6.6,3.7,12.6,5.8,18.8c2.2,6.3,3.3,13,4.6,19.6c1.5,7.6,0.6,15.3-0.4,22.8c-1,6.9-3.5,13.5-7.4,19.4c-1,1.6-2.6,2.7-3.9,4.1
			c-0.3-0.2-0.5-0.4-0.8-0.6c0.1-0.4,0.1-1,0.4-1.3c4.2-3.7,5.9-8.7,6.7-14c0.7-4.3,1.3-8.7,1.8-13c1-8,1.5-16,0.3-23.9
			c-0.8-5.3-2.5-10.6-4-15.8c-1.8-6.1-4.2-12-5.5-18.1c-1.7-7.9-3.3-15.9-2.3-24.2c0.8-7,0-13.9-1.1-20.9c-1.7-11-6-21.1-9.8-31.3
			c-2.4-6.5-5.8-13-7.7-19.6c-2-7-3.9-11.8-8.1-19.7c-4.5-8.3-11.1-15.5-18.9-20.8c-7.3-4.9-19.5-10.1-27.1-11.5
			c-2.5-0.5-5.1-1-8.1-1.6C331.1,98.4,331.9,97.8,332.6,97.8z M330.2,129c0.3-0.1,0.8,0.5,1.9,1.2c-2.6,1-4.7,1.7-6.8,2.5
			c-4.3,1.6-8.7,3.2-13,4.9c-2.1,0.8-2.1,0.9-5.2-0.5C314.2,132.3,322.4,131.2,330.2,129z M270.6,132c7.9-6.7,16.7-12,26.2-16.2
			c4.4-1.9,9.1-3.4,13.6-5c1.4-0.5,2.5-0.4,3.2,1.3c-17.5,3.8-32.2,12.1-45.9,23.8C268.2,133.7,269.6,132.9,270.6,132z M263.1,134.3
			c-0.6,0.5-3-0.1-3.2-0.5c3.9-3.5,7.6-7.4,11.9-10.3c6.4-4.3,13-8.4,19.9-11.7c4.9-2.4,10-4.8,15.5-5.7c0.6-0.1,1.3,0,1.9,0
			c0.3,0.3,0.5,0.6,0.8,0.9c-0.5,0.1-1,0.1-1.4,0.3c-4,1.4-8.1,2.6-12,4.4c-9.1,4.3-17.6,7.7-25.1,14.8
			C268.9,128.9,265.7,132.1,263.1,134.3z M286.5,127c4.9-2.7,9.7-5.6,15.1-7.3c3.7-1.2,7.3-2.5,11-3.4c1.3-0.4,2.9,0,4.3,0.1
			c0.1,0.3,0.1,0.6,0.2,1c-1.6,0.6-3.2,1.3-4.9,1.6c-8.7,1.9-16.4,6.1-23.9,10.8c-3.2,2-6.2,4.2-9.4,6.1c-1.2,0.7-2.9,0.7-4.3,1
			c-0.1-0.3-0.2-0.6-0.2-1C278.1,132.5,282.1,129.5,286.5,127z M321.1,120.9c-0.9,0.4-10.9,3.6-11.8,4c-7.2,2.9-13.8,6.9-20.3,11.1
			c-1.1,0.7-2.5,0.9-4,1C293.3,130.9,302.7,123.2,321.1,120.9z M326.2,124.4c0.1,0.3,0.3,0.7,0.4,1c-5,1.6-10.2,2.9-15.1,4.8
			c-4.8,1.9-9.4,4.4-14.3,6.2C306.1,130.6,315.3,125.4,326.2,124.4z M327.4,117c-5.3-5.4-12.8-8.6-15.3-17.3c1.2,0.4,2.2,0.5,3,0.9
			c2.5,1.3,5.1,2.6,7.3,4.2c1.4,1,2.7,2.5,3.4,4.1c1.1,2.4,1.6,5.1,2.3,7.6C328,116.7,327.7,116.9,327.4,117z M318.5,98.4
			c-2.8-1.3-6.2-1.8-8.3-3.8c-2-1.8-2.6-5.1-3.9-7.8c0-0.1,0-0.2,0.1-0.7c9.7-1.7,16.8,5.2,17.2,15
			C321.8,100.1,320.2,99.1,318.5,98.4z M307.1,102.3c-3.1,0.9-6,1.5-8.7,2.5c-2.8,1-5.5,2.3-8.1,3.6c-2.6,1.3-5.2,2.7-7.8,4.1
			c-1.9,1.1-20.2,12.6-25.1,20.9c-0.5,0.8-2.1-0.1-3.4-0.4c7.4-7.5,15.1-14.5,23.9-20.3c8.7-5.7,17.9-10.5,28.4-12.5
			C306.5,100.9,306.7,101.5,307.1,102.3z M249.8,132.7c-0.3,0-1.7-0.2-3-0.3c6.7-8,23-20.1,36.3-28.4c6.1-3.8,12.8-6.6,19.3-10
			c0.7,0.9,1.2,1.6,1.9,2.5C293,99.9,263.5,117.2,249.8,132.7z M243.8,131.8c-0.2-0.2-2.7,0.2-2.9,0c16.2-18.7,52.7-40.4,56.4-42.2
			c2.1-1.1,2.2-0.9,3.7,2C279.1,101.1,258.4,117.2,243.8,131.8z M275.3,99.3c-7,4.8-13.9,9.9-20.4,15.4
			c-6.4,5.4-12.3,11.4-18.4,17.1c-0.3-0.2-0.5-0.5-0.8-0.7c1.5-1.8,3-3.6,4.7-5.3c5.9-5.6,11.7-11.1,17.7-16.6
			c2.2-2,4.6-3.7,6.9-5.5c4.5-3.4,8.8-7,13.4-10.3c5-3.6,10.5-6.5,16.3-8.6c1-0.4,1.7-0.6,2.1,0.6C289.5,90.2,282.2,94.5,275.3,99.3
			z M269.7,96c-7.2,5.3-13.9,11.2-20.7,16.9c-6.8,5.7-13.1,11.9-19,19.6c-0.3,0-1.5,0.1-3.4,0.3c1.9-2.3,3.2-4.1,4.7-5.7
			c2.7-3,5.7-5.9,8.3-9c3.9-4.7,8.7-8.4,13.5-12.1c4.3-3.3,8.2-7.1,12.5-10.4c6.5-5,13.1-9.9,20.5-13.5c1.6-0.8,3.6-0.7,5.5-0.5
			C284.3,86.3,276.7,90.8,269.7,96z M278.5,81.9c-9.9,5.7-18.1,13.7-27.1,20.5c-11.2,8.5-20.5,18.8-28.8,30.1c-1,1.4-2,2.7-4.4,2.1
			c0.9-1.5,1.7-2.9,2.6-4.2c5.7-7.8,11.9-15.2,19-21.8c2.3-2.2,4.2-4.9,6.7-6.9c6.8-5.5,13.6-11,20.8-15.9c4.7-3.2,9.6-6.4,15.3-7.8
			c0.5-0.1,1.1,0,2.6,0C282.4,79.7,280.5,80.8,278.5,81.9z M270.1,80.2c-10.4,5.9-20.1,12.6-28.3,21.4c-4.2,4.4-8.9,8.3-12.8,12.9
			c-5.4,6.5-10.2,13.4-15.1,20.2c-1.2,1.7-2.5,2.9-5,2.4c1.5-4.9,4.9-8.4,7.7-12.2c1.6-2.2,3.2-4.3,4.9-6.4c2.1-2.6,4.2-5.3,6.6-7.6
			c4.4-4.3,9-8.5,13.5-12.7c3.5-3.3,6.9-6.5,10.4-9.8c4.9-4.6,10.5-8.2,16.4-11.3c2.4-1.3,5.2-1.9,7.9-2.6c0.6-0.2,1.4,0.4,2.4,0.8
			C275.7,77,272.9,78.6,270.1,80.2z M256,80.7c-4.7,3.5-9.2,7.2-13.4,11.2c-7.2,6.9-14.4,13.7-21,21.2c-6.6,7.5-13.2,15.3-17.3,24.7
			c-0.3,0.7-0.3,0.7-2.1,0.7c0.9-4.3,3.3-7.8,5.4-11.4c8.1-13.8,18.9-25.2,30.7-35.9c4.7-4.2,9.3-8.5,14.3-12.3
			c3.5-2.7,7.4-4.7,11.2-7c1.9-1.1,3.7-1.1,5.4,0.4C264.6,75.1,260.1,77.6,256,80.7z M199.4,137.3c-1,2.2-3.2,4.2-4.7,3.5
			c4.9-19.5,30.9-46.1,37.1-52.1c5.9-5.7,14.7-13.4,21.3-18.1c3-2.1,4,0.1,7.5-0.5C241.1,82.3,212.2,109.3,199.4,137.3z M229.8,85.4
			c-7.8,7.7-25,29-29.3,37.1c-2.5,4.6-5.2,10.2-7.1,15c-0.4,1.1-1.1,4-3.5,3.5c1.2-6.6,6-14.1,8.8-19.7c5.1-10.3,12.4-19,20-27.6
			c8-9.2,17.3-16.9,26.9-24.3c1.5-1.2,3.2-2.2,4.9-3c0.7-0.3,1.8,0,2.7,0.3C244.4,71.9,237,78.3,229.8,85.4z M230.8,76.7
			c-7.2,6.1-12.1,12.9-18.3,20c-12.3,14.4-22.3,31.2-24.9,45c-0.2,0-2.5,0.1-3.6,0.2c2.1-8,4.4-15.4,8.8-22.1
			c4.6-7,9.1-14.1,14-20.9c2.7-3.8,6-7.1,9-10.6c3-3.4,5.9-6.9,9-10.1c5.9-6.2,10.1-9.9,16.7-14.2c1.4-0.9,3-1.5,4.3,0
			C240.9,68.3,235.8,72.4,230.8,76.7z M199,104.7c-8,12-14,22.7-16.8,37.2c0,0.2-3.3,0.7-3.6,0.7c0.5-2,7.8-24.4,13.6-33.2
			c9.6-14.6,33.3-39.5,38.6-44.4c0.9-0.8,1.9-1.4,2.5-2.3c1.4-2.1,3.2-2.3,4.9-1.5C234,64.8,206.6,93.3,199,104.7z M230.8,62.3
			c-2.6,2-29.3,25.9-39.7,43.8c-12.5,21.4-14.7,35.3-14.7,35.3c-0.4,1.5-2.5,2.3-4.4,1.2c2.1-5.1,6.8-19,9.7-25.6
			c2.9-6.7,20.5-36.3,46.5-55.5C228.2,61.5,233.5,60.3,230.8,62.3z M180.1,115.1c-1.4,2.5-9.2,19.8-12.3,28.1
			c-1.6,0.2-2.1-0.6-1.5-2.2c2.3-5.6,4.6-11.2,6.9-16.7c0.9-2,4.2-13.8,22.9-38.9c3.2-4.3,10.7-11.5,14.7-15.1
			c3.9-3.5,8.1-6.6,12.2-9.9c0.3,0.3,0.5,0.7,0.8,1C200.2,81.3,184.1,107.9,180.1,115.1z M207.6,68.8C200.1,75,193.3,82,187.7,90
			c-4.9,7.1-9.7,14.4-13.2,22.3c-2.3,5.3-11.3,29.6-12.3,30.3s-1.9,0.2-1.9-0.7s7.5-25.2,13.5-35.8c5.2-9.1,12.5-19,19.1-27.1
			c4.8-5.9,10.8-10.4,16.7-14.9c1.1-0.9,2.7-1.2,4.1-1.7c0.1,0.2,0.1,0.3,0.2,0.5C211.8,64.8,209.8,66.9,207.6,68.8z M169.4,105.8
			c-5.5,10.8-9.3,24.1-12.6,35.7c0.7-24.5,13-42.6,19.8-54.1c5.4-9.2,15.3-17.6,19.8-19.9C189.2,77.3,174.8,94.9,169.4,105.8z
			 M157.5,119.3c-1.6,5.6-3.1,10.8-3.9,16.5c-0.1,0.9-0.3,1.8-0.4,2.8c-1.9-3.9,1.1-21.5,4.8-30.6c4.1-10,8.2-20.5,18.1-28.6
			C171.7,87.6,162.1,103.6,157.5,119.3z M149,139.8c-4.8-13.3-0.3-37.3,13.7-50.8C154.6,103.3,148.2,123.5,149,139.8z M144.2,118.1
			c-1,6.8-0.4,13.6,0.5,20.4c-2-3.7-2.9-7.6-3.2-11.7c-0.4-6.2-1-12.4,1.1-18.4c0.6-1.6,1.6-3.2,2.7-4.6c1.5-1.9,3.3-3.6,5.3-5.2
			C147.7,105,145.2,111.3,144.2,118.1z M137.6,142.7c0.8,2.7,1.6,5.5,4.2,7.2c0.3,0.2,0.2,1.2,0.3,2.3c-7.9-8-13.5-27.7-9.7-34.1
			c0.5,3.7,0.7,6.9,1.4,10C134.8,133,136.2,137.8,137.6,142.7z M138.6,153.4c1.5,1.5,1.9,3,0.5,5c-2.8-2-4.8-4.6-5.9-7.8
			c-2.1-5.8-4.1-11.7-6.1-17.6c-0.7-2-0.9-4.2,0.1-6.9c1.1,4,2.2,7.2,2.9,10.6C131.5,142.9,134,148.7,138.6,153.4z M137.2,162.6
			c-11.1-9.7-14.4-22.8-13.7-31.9C127.1,141.6,132.2,155.3,137.2,162.6z M130.4,158.7c1.7,2.3,3.7,4.3,5.4,6.5
			c0.5,0.6,1.2,1.2,0.7,2.5c-0.5,1.3-8.8-9.3-12.2-14.5c-3.1-4.8-4.5-10.3-4.7-16.1c0.8,2.6,1.4,5.2,2.3,7.7
			C123.8,150,127.2,154.3,130.4,158.7z M124.5,158.9c2.3,2.8,4.3,5.8,6.6,8.6c0.9,1.1,3,2.6,3.8,3.8c0.5,0.6,0.1,2.5-1.1,2.1
			c-2-2.3-4.1-4.5-5.9-6.9c-3-3.8-6-7.7-8.9-11.7c-2.5-3.4-3.3-7.2-2.7-12c0.5,1.1,0.8,1.8,1,2.5
			C118.6,150.5,121.2,154.8,124.5,158.9z M118.7,160.2c2,2.8,4.5,5.3,6.6,8.1c2.2,2.9,4.4,5.6,8.4,7.1c-0.2,0.9-0.4,1.9-0.6,3.4
			c-1.3-1.2-2.4-2.1-3.2-3.2c-3.8-4.5-7.6-9.1-11.3-13.6c-2.6-3.1-4.6-6.5-5.1-10.6C115.1,154.4,116.7,157.4,118.7,160.2z
			 M132.2,181.5c-0.1,0.4-0.1,0.9-0.2,1.4c-0.1,0.5-0.4,0.9-0.7,1.7c-7-3.8-12.4-9.1-16.3-15.8c-1.9-3.2-4.3-6.4-3.6-10.8
			C118.4,166,123.1,175.6,132.2,181.5z M130.9,187.1c0,0.3,0.2,0.7,0.1,1.1c0,0.4-0.2,0.7-0.3,1.1c-9.9-1.8-21.4-14-21.1-22.8
			C114.8,175.6,120.8,183.4,130.9,187.1z M130.3,192.2c-0.3,0.7-0.6,1.3-0.9,2c-7.7-1.8-12.5-4.9-14.6-6.9c-3.7-3.7-4.6-5.4-5.1-7.2
			c-0.2-0.6-0.3-1.5-0.6-2.9C121.5,190.9,122.6,189.6,130.3,192.2z M119.4,192.9c3.1,2,8.5,2.7,9.7,2.9l-1,2.5
			c-1.4,0.8-16.9-6.8-19-9.5c-1.1-1.4-0.9-4.8-0.9-4.8C109.6,186.1,116.7,191.1,119.4,192.9z M119.1,220.1c0.2,0.9,0.5,1.8,0.6,2.8
			c0.3,3.1-1.6,4.3-4.4,2.9c-3.2-1.6-5.2-4.1-5.2-8.1C113.3,218.5,116.1,219.3,119.1,220.1z M110.5,210.8c3.6,1.5,6.8,2.8,10.2,4.2
			c0,0.1-0.1,0.6-0.3,1.1c-0.2,0.5-0.5,0.9-0.6,1.2c-3.5,0.2-6.1-1.6-8.4-3.7C110.8,213.2,110.8,211.9,110.5,210.8z M119.3,228.3
			c0.3,2.3,0.6,4.5,0.9,6.8c-5.2-0.5-8.9-3.8-10.6-10.4C112.5,228.4,117.6,229,119.3,228.3z M120.4,237.7c0,1.8,0.3,3.3,0.8,5.2
			c-3.3-0.4-8-5.2-9-7.7C115.6,237.3,118.5,237.7,120.4,237.7z M121.5,244.8c0.3,1.3,0.6,2.5,1,3.7c-0.2,0.1,0.6,2.3,0.4,2.4
			c-1-0.9-5.1-4.3-6.7-7C118.4,245.1,120.5,245.2,121.5,244.8z M121.4,212.3c-3-0.4-9.8-3.2-11.8-7.3c4.6,1.6,10.8,3.2,14.4,3
			C123.4,209,122.6,210.3,121.4,212.3z M113.8,203.8c-2-1.4-3.7-2.9-2.8-5.9c4.1,2,8.6,6.8,13.7,7.2
			C121.3,207,116.4,205.6,113.8,203.8z M122.3,201.7c-2.8-1.4-9.8-4.7-12.7-8.4c5.2,1.4,13.6,5.5,17.6,6.9
			C125.7,202,124.2,202.7,122.3,201.7z M109.9,236.6c3,8.6,8.1,15.7,14.9,21.7c2,1.8,2,1.8,2.3,5.3c-1.9-1.1-2.5-2.9-3.7-4.2
			c-3.4-3.7-6.7-7.5-10.2-11.1c-2.3-2.3-4.9-4.2-8.4-3.7c-4.4-7-4.5-11.9-1.3-12.5C106.8,231.5,109,234,109.9,236.6z M107.1,247.5
			c4.7,4.1,8.5,8.2,12.2,12.5c2.4,2.8,5,5.6,7.4,8.4c0.5,0.6,0.9,1.3,1.1,2c1.3,4.5,3.6,8.5,5.9,12.6c2.8,5.1,4.7,10.6,7,15.9
			c0.9,2.1,1.8,4.3,2.7,6.3c-4.7,4.9-12.5,2-13.9-3.7c-0.6-2.4-1.1-4.8-1.4-7.2c-0.4-3.1-2-5.4-4.3-7.1c-2.1-1.6-3-3.6-3.8-6
			c-1.3-4.3-2.9-8.5-4.7-12.7c-2-4.5-4.3-8.8-6.5-13.2C107.7,253,106.5,250.8,107.1,247.5z M138.4,283.2c-0.9-2-2.3-3.8-3.4-5.6
			c-1.9-3-3-6.3-2.9-9.9c0.2-4.8-1.8-9.1-3.1-13.5c-1.1-3.6-2.9-7-3.5-10.7c-0.9-5.1-1.1-10.2-1.5-15.4c-0.2-1.8-0.2-3.6-0.2-5.4
			c0-4,0.9-7.9,3.1-11c4.5-6.3,6.8-13.4,8-20.8c1.8-11.6,5.4-22.6,9.3-33.6c1.2-3.5,3.3-6.7,5.2-9.9c1.4-2.3,3.7-2.9,6.5-2.2
			c11.1,2.9,22.2,3.1,33.4,0.4c2.4-0.6,4.9-0.5,7.3-1c10.7-2.5,21.3-5.2,32-7.7c5.5-1.3,11.2-1.7,16.9-0.7
			c10.8,1.8,21.6,3.6,32.5,4.8c6,0.7,12.2-0.1,18.3,0.2c5.1,0.3,10.3,0.7,15.3,1.8c5.6,1.2,13.6,8.3,16.4,13.3
			c3.9,7,6.2,14.5,7.9,22.2c1.1,4.7,1.2,9.7,1.4,12.3c-0.8,16.8-1,31.3,0.6,45.7c0.4,3.9-0.2,8-0.5,12c-0.6,8.4-1.6,16.7-2,25.1
			c-0.4,8,0,16-0.6,24c-0.6,8.9-1.5,17.7-3.3,26.5c-1.4,6.8-3.7,13.2-7,19.2c-2.6,4.7-5.8,9.2-8.7,13.8c-3.3,5.1-6.5,10.2-9.8,15.3
			c-2.2,3.5-3.5,7.7-5.7,11.2c-0.8,1.2-12.3,18.6-19.1,24.9c-4.9,4.6-10.9,6.9-17,8.9c-4.2,1.4-8.8,1.3-13.1,0.2
			c-5-1.4-10-3-14.6-5.2c-3.5-1.7-6.7-4.4-9.8-6.9c-6.8-5.6-13.9-10.7-21.5-15.2c-6.2-3.7-12.2-7.8-18.2-11.9
			c-5-3.5-8.1-8.6-11.4-13.5c-6.5-9.7-11-20.5-15.7-31.2c-4.2-9.4-7.9-19.1-11.9-28.6C144.9,297.8,141.7,290.5,138.4,283.2z
			 M285.9,410.1c-0.8,3.9-1.4,7.3-2.1,10.7c-0.1,0-0.3,0.1-0.4,0.1c-0.2-2.6-0.4-5.2-0.6-8C283.6,412.2,284.5,411.3,285.9,410.1z
			 M177.2,373.2c3.4,4.8,7.8,8.5,12.8,11.7c9.5,6,18.9,12.1,28.2,18.4c3.5,2.4,6.8,5.2,10,7.9c6.8,5.7,14.9,8.2,23.2,10
			c8.1,1.8,15.9-0.2,23.3-3.9c1.4-0.7,2.7-1.4,3.9-2c1.3,7.7,2.2,15.5,6.1,22.3c2,3.5,5.3,6.3,8.1,9.4c0.8,0.8,1.8,1.5,3,2.5
			c-0.5,1.4-1,2.8-1.7,4.1c-6.5,13.2-10.8,21-23.4,35c-2.1,2.3-4.3,2.9-6.8,2.5c-5.1-0.9-27.2-9.4-33.3-13.6
			c-13.1-9-71.1-52.9-77.3-104.4c-0.1-0.4,11.4-9.7,15-12.8C169.6,362.6,176.8,372.4,177.2,373.2z M156.2,401.2
			c9.1,26.4,48.9,63.6,56.5,70.4c6.2,5.6,13.8,10.2,21.1,14.1c6.6,3.5,31.7,12.9,36.5,11.4c5.5-1.5,18.8-20.9,23.3-29.7
			c1.8-3.6,3.7-8.9,5.4-12.7c2.3,3.7,14.3,8.2,14.1,9c-3.1,7.8-16.3,36.2-18.8,43.7c-0.9,2.8-1.9,5.6-3,8.4
			c-2.3,5.9-4.7,11.7-7.1,17.6c-0.1,0.3-0.4,0.6-0.8,1.1c-1.7-0.4-3.5-0.8-5.2-1.3c-5.9-1.9-11.8-3.8-17.6-6
			c-7.7-2.8-14.7-7-21.6-11.4c-8.5-5.5-17.2-10.6-24.7-17.4c-7.5-6.9-15.8-12.9-22.1-21.2c-2-2.7-4.8-4.7-7-7.3
			c-7.7-9-15.2-18.2-22.9-27.2c-3.4-4-7.4-7.6-10.7-11.8c-3.8-4.7-7.8-9.5-10.5-14.8c-2.5-5.1-4.7-10.6-5.5-16.5
			c-0.1-0.9-1.1-7.2-0.7-8c1.9-3.4,12.9-13.1,14.9-14.5C150.1,378.2,152.9,391.7,156.2,401.2z M24.8,616.9c-2.4,0.1-6.4,0.5-9.5,0.8
			c0.9-4.8,2.8-8.3,4.6-11.8c5.9-12.4,13.4-23.9,20.7-35.5c2.9-4.6,6.5-8.6,9.8-13c5.6-7.4,11.1-14.9,17-22.1
			c6-7.4,12.6-14.4,18.7-21.8c6.7-8.2,13.1-16.6,19.7-24.9c4-5.1,7.8-10.4,12.1-15.2c8.2-9.2,16.6-18.1,25-27c1-1.1,2.3-2,3.6-3.1
			c2.1,2.5,4.1,4.8,6.3,7.5c-4.4,4.8-8.6,9.2-12.6,13.7c-4.7,5.3-9.3,10.8-13.8,16.2c-4.6,5.5-9.1,10.9-13.6,16.5
			c-3.2,3.9-6.1,8-9.3,11.9c-4,4.8-8.1,9.4-12.2,14.1c-5.9,6.7-12,13.2-17.7,20c-4.2,5-7.8,10.6-11.7,15.8c-1.5,2.1-3.2,4.1-4.8,6.1
			c-8.8,10.8-15.3,23-21.7,35.3C32.8,604.8,27,616.8,24.8,616.9z M49.5,617.4c1.1-1.9,2.1-3.6,3.1-5.2c5.2-8.3,10.5-16.6,15.6-25
			c5-8.1,10.6-15.6,16.5-23c6.7-8.4,13.6-16.6,20.4-24.9c2.1-2.6,3.9-5.5,5.9-8.1c7.2-9.4,14.4-18.9,21.8-28.2
			c4.9-6.1,10.1-12,15.3-17.9c4-4.6,8.2-8.9,12.2-13.5c1.7-1.9,3.2-4,5-6.3c16.5,15.8,33,31.6,49.7,47.6c-2.7,2.4-5.4,4.7-8.1,7.1
			c-6,5.3-12,10.6-17.9,16c-4.6,4.2-9.1,8.4-13.5,12.9c-5.7,5.8-11.5,11.5-16.5,17.9c-8.3,10.7-16.5,21.5-23.2,33.4
			c-3.2,5.6-6.7,11-10.1,16.6C115.4,617,58.9,618.4,49.5,617.4z M353.8,597.8c0.2,7.6-0.6,15.2-2.6,23c-6.5,0-12.9,0.2-19.4,0
			c-9.8-0.4-19.6-1.1-29.4-1.6c-6.2-0.3-12.4-0.6-18.6-0.9c-8.4-0.3-16.8-0.6-25.2-0.9c-8.8-0.2-17.6-0.5-26.4-0.5
			c-9.3,0-18.6,0.4-28,0.5c-17.1,0.1-34.2,0-51.3,0c-6.3,0-12.7-0.3-19-0.5c-0.9,0-1.7-0.1-3-0.2c1.1-2.2,1.9-4.1,2.9-5.8
			c4.5-7.3,8.8-14.6,13.5-21.7c7.8-11.8,16.6-22.8,26.6-32.7c7.9-7.8,15.8-15.7,23.7-23.4c2.3-2.2,5-4.1,7.4-6.2
			c3.3-2.9,6.5-5.9,9.9-8.7c1.3-1.1,2.8-1.9,4.1-2.7c2.6,1.9,4.9,3.8,7.4,5.4c3.1,2.1,6.4,2.7,10.2,1.9c3.3-0.6,6.3,0.9,9.1,2.3
			c6.5,3.1,12.9,6.6,19.5,9.6c4.8,2.2,9.8,3.9,14.8,5.7c3.5,1.3,6.2,0.2,7.6-3.3c3.1-7.8,21.2-48.2,25.1-60.3
			c1.5-4.7,4.6-8.7,4.8-13.9c0.8-0.1,1.6-0.1,2.3-0.2c2.6,4.5,1.8,9.1,0.3,13.5c-1.7,5.1-3.8,10.2-5.8,15.2c-2,4.9-4.1,9.7-4.2,15.2
			c-0.1,9.1,4.4,15.4,11.7,20.1c2.4,1.5,5.2,1.4,7.8,0c0.3-0.2,0.4-0.9,0.6-1.4c1.6,0.7,3.6,1.1,4.6,2.2c4.3,4.7,9,8.8,14.3,12.4
			c1.4,1,3,2.3,3.5,4.5c0.9,4.4,3.2,13,4.9,17.9c1.7,4.9,2.5,13.5,0.3,20.3c-1.2,3.7-2.6,7.3-3.8,10.9
			C353.6,594.9,353.7,596.4,353.8,597.8z M359.2,620.4c-0.8,0-1.8,0-3.1,0c2.2-4.9,2-10,2.2-15.1c0.2-4.6,0.8-9.2,1.6-13.8
			c0.4-2,1.7-3.8,3.3-5.5C361.9,597.3,360.6,608.6,359.2,620.4z M357.9,546.2c-0.3-6.7,2.5-19.3,3.6-24c1.6-7.3,2.2-22.1,4.8-31.1
			c3.9-13.1,11.1-29.1,12.7-43.3c0.3-2.7-0.4-19.7-1.2-35.9c-0.4-10-2.6-22.8-4.4-35.3c6.7,24,11.5,59.1,7,80.6
			c-2.2,9.2-5.3,15.3-7.7,32.3c0,0,0,0,0,0c-0.6,7-1.9,16-4.5,26.9c-1,4-5.6,16.7-5.7,17.9c2.4-0.8,4.3-5.7,5.1-7.4
			c3.7-8.3,5.2-17.3,5.8-21c0.9-5.2,2.2-12.2,2.2-18.1c-0.1-9.9,3.9-17.5,6.3-26.6c1.5-5.9,2.9-11.8,2.9-17.9
			c0-6.6-1.1-22.5-2.4-31.9c-1.2-9.3-7.2-36.2-8.1-45c2.4,7.4,9.1,36.8,11.4,49c1.7,8.5,3,22.7,1.4,39.2c-0.6,6-1.8,12.4-4.6,17.9
			c-2.4,4.6-3,9.6-4.1,14.4c-1,4.2-0.5,8.7-0.9,13.1c-0.4,4.5-2,11.8-4.2,18.6c-1.8,5.8-9.5,19.1-8.6,19.6
			c0.9,0.5,10.4-15.9,12-21.2c1.6-5.3,3.4-14.6,3.3-26c0-11.1,7.2-21.1,8.2-27.1c1.7-9.6,2-19.3,1.6-29.1
			c-0.2-5.3-1.5-11.3-1.8-16.5c-0.3-7.5-6.6-30.7-7.1-32.6c-2.1-8.7-5.9-26-5.7-28c1.9,2.7,5.2,19.5,7,27.1c1.4,6,6.2,23,7.4,32.1
			c1.2,9.1,2.3,18.2,2.4,27.3c0.2,12.1-1.9,23.9-6.8,35.1c-2.5,5.6-4.1,11.6-2.9,18.1c0.9,5.3-0.6,11.9-2.2,17.5
			c-1.6,5.6-12,26-11.7,31.2c0.1,1.5,13.2-17.9,14.7-21.3c2.7,0.7,7.7-3.1,13.5-16.2c-0.7,12.7-12.2,21.9-16.4,27.6
			c-3.8,5.1-6.1,7.3-4.1,14.2c1.2,4-0.6,7.5-4.3,10c-2.7,1.8-5.4,4.3-8,6.8C362.6,562.4,358.1,550.9,357.9,546.2z M466.2,60.2
			c-0.2,7.4-0.9,14.7-1.1,22.1c-0.2,4.2,0.2,8.5,0.1,12.7c-0.1,5.1-0.1,10.4-0.9,15.4c-1.4,9.5-2.2,19-2.4,28.6
			c-0.1,5.7-0.7,11.4-0.7,17.1c-0.1,16-0.2,32,0,48c0.1,11.4,0.8,22.8,1.2,34.2c0.4,9.7,0.7,19.4,1.1,29.1
			c0.4,9.3,0.9,18.6,1.3,27.9c0,0.9,0.2,1.8,0.2,2.7c0,18.4,0.1,36.8-0.2,55.3c-0.2,11-1.3,21.9-2,32.9c-0.1,2.3-0.2,4.7-0.3,7
			c-0.3,8.8-0.6,17.6-0.9,26.4c-0.2,6.7-0.9,13.5-0.7,20.2c0.5,11.9-0.6,23.8-0.9,35.7c-0.2,10.6-0.6,21.2-0.7,31.8
			c-0.2,15.2-0.1,30.3-0.6,45.5c-0.5,13.6-1.6,27.1-2.4,40.7c-0.4,6.9-0.5,13.7-0.6,20.6c0,1.7,0,3.4,0,5.4c-10,1.4-20,0.9-29.8,1.3
			c-10,0.4-19.9,0.8-29.9,0.8c-9.9,0-19.9-0.6-30.2-0.9c0.1-1.7,0.2-3.2,0.3-4.7c0.4-8.1,0.9-16.3,1.2-24.4c0.1-3.1,0-6.2-0.2-9.2
			c-0.1-1.9,0.5-3.2,2.2-4.1c4.7-2.4,8.1-6.3,11.3-10.4c2.4-3.1,2.6-6.4,1.6-9.9c-1-3.5-2-7-3.1-10.4c-0.6-1.9-0.3-3.5,1-5.1
			c4.4-5.3,8.2-10.9,12.8-16.1c6.6-7.6,10.2-16.7,9.1-27.2c-0.6-5.4-0.9-10.8,1.3-16c2.3-5.4,4.5-10.8,6.8-16.1
			c2.2-4.8,3.5-9.8,3.9-14.9c0.5-6.5,0.9-12.9-0.4-19.3c-0.8-3.6,0.8-6.9,1.3-10.3c1.1-6.9,2.2-13.8,3.4-20.7c0.1-0.6,0-1.5,0.4-1.8
			c4.2-3.3,4.5-8.6,6.3-13c1.2-3.1,1.6-6.9,1.3-10.3c-0.6-5.9-1.7-11.7-3.2-17.5c-1.4-5.4-3.4-10.6-5.3-16.1
			c0.6-0.7,1.3-1.7,2.2-2.4c4.9-3.8,8.2-8.9,11.7-13.9c1.7-2.5,2.8-6.7,3.2-9.8c1-8.1,1.5-14.7,1.3-22.9c-0.3-9.2-1.5-18.3-4.7-27
			c-1.6-4.5-3.6-8.8-5.3-13.3c-2.2-5.7-2.6-11.7-2-17.6c0.8-8.2,0.5-16.3-0.7-24.4c-1.1-7.9-2.6-15.8-4.6-23.6
			c-1.6-6.5-4.2-12.8-6.3-19.1c-1.1-3.4-2.3-6.9-3.2-10.4c-2.7-9.8-6.4-19.2-11.4-27.9c-2.5-4.3-6-8-9.2-12
			c-2-2.5-11-11.7-16.4-15.8s-17.1-10.9-22-12.5c-7.3-2.4-14.7-2-21.8,1.2c-1.6-2-4.8-7.3-11.4-9.8c-3.8-1.4-9.2-2.6-17.6,0
			c-0.1,0-0.6-0.4-0.9-0.6c-0.7-0.5-11.6-6-16.8-8.7c-0.8-0.4-28.4-11.7-38.8-14.3c-7-1.8-18-1.6-24-0.8
			c-10.4,1.4-19.9,5.4-29.3,9.7c-3.1,1.4-21.3,11.6-29.4,17.4c-9.7,6.9-24.6,22.8-30.1,29.6c-7.3,9-14.6,18.2-19,29.1
			c-1.7,4.3-2.6,8.9-3.6,13.4c-0.9,3.9-1.7,7.8-2.2,11.8c-0.8,6.2-0.2,12.4,0.5,18.6c0.4,3.8,1,15.8,1.1,19.6
			c0.1,3.5-0.2,16.4,0.4,22.3c-1.1,0.1-2.2,0-3.3,0.2c-5.1,0.8-7.9,4.2-5.8,10.7c2,6.4,5.2,12.4,8,18.5c3.8,8.3,8.3,16.4,10.3,25.5
			c0.4,1.8,2.1,3.6,3.6,4.9c2.2,1.9,3.6,4,4,6.9c0.2,1.3,0.3,2.6,0.6,3.8c0.9,5.1,3.9,8.6,8.5,10.9c0.3,0.2,0.7,0.4,1.1,0.4
			c3.8,1.1,6.8,1.1,9.7-1.6c0.2-0.2,0.7-0.2,1.2-0.4c1.6,3,9.2,22,12,28.4c2.8,6.4,5.8,12.7,9,19.5c-1.4,0.7-39.6,36.6-47,46
			c-2.6,3.3-5.4,6.3-8,9.5c-8.1,10.3-17.5,19.4-26.2,29.1c-8.7,9.7-17.8,19.2-26.3,29.1c-4.9,5.8-23.2,28.4-28.8,32.7
			c-7.5,5.8-15.1,11.6-20.7,19.6c-0.2-0.1-0.5-0.2-0.7-0.3c0-4.1-0.1-8.2,0-12.3c0.2-5.4,0.6-10.9,0.7-16.3
			c0.2-17.6,0.5-35.2,0.4-52.8c-0.1-13.6-1-27.2-0.8-40.8c0.1-12,1.3-24,1.7-36.1c0.3-7.9-0.1-15.8,0-23.7c0.1-7.5,0.5-15,0.8-22.5
			c0.1-1.7,0.2-3.4,0.2-5c0.3-8.8,0.6-17.6,0.7-26.4c0.1-5.8,0-11.7,0-17.5c0.1-12.3,0.3-24.6,0.3-36.8c0-11.3-0.4-22.6-0.5-33.9
			c-0.1-6.4,0.1-12.9,0.3-19.3c0.1-8.5,0.3-17,0.5-25.5c0.1-11.6,0.3-23.3,0.3-34.9c0-4.5-0.2-22.9,0.1-27.5
			c0.2-4.4,0.5-8.8,0.8-13.2c0.3-6.3,0.6-12.7,0.9-19c0.5-8.6,1.1-17.3,1.4-25.9c0.2-4.9-0.2-9.8-0.1-14.7c0.1-3.3,0.5-6.7,0.8-9.9
			c2.7,0,5.4-0.1,8.1,0c4.4,0.3,8.7,1.1,13.1,1c10-0.1,20-0.7,30.1-1.1c6.7-0.3,13.4-0.6,20.1-0.9c6.1-0.2,12.2-0.5,18.2-0.6
			c6.1-0.1,12.2-0.2,18.2,0c9.3,0.3,51.2,2.1,55.6,1.9c8-0.2,54.7-0.9,60.8-1.3c11-0.7,22-1.1,33-0.4c9.2,0.5,18.4,0.4,27.6,0.6
			c13.9,0.4,27.9,0.6,41.8,1.2c15.5,0.7,31,1.7,46.5,2.5c6.7,0.3,13.4,0.5,20.2,0.7c8.5,0.3,17.1,0.7,25.6,0.7
			c9.7,0,19.3-0.5,29.7-0.9c0.2,4.7,0.4,9.3,0.5,13.8c0.1,4,0.3,8,0.4,12c0,2.1-0.3,4.1-0.3,6.2C465.9,49.3,466.4,54.8,466.2,60.2z"
			/>
		<path d="M330.9,473.5c0,0.1,0,0.1,0,0.2c0,0,0,0,0,0C330.9,473.6,330.9,473.6,330.9,473.5z"/>
	</g>
	<path class="st3" d="M327.4,117c-5.3-5.4-12.8-8.6-15.3-17.3c1.2,0.4,2.2,0.5,3,0.9c2.5,1.3,5.1,2.6,7.3,4.2c1.4,1,2.7,2.5,3.4,4.1
		c1.1,2.4,1.6,5.1,2.3,7.6C328,116.7,327.7,116.9,327.4,117z"/>
	<path class="st3" d="M318.5,98.4c-2.8-1.3-6.2-1.8-8.3-3.8c-2-1.8-2.6-5.1-3.9-7.8c0-0.1,0-0.2,0.1-0.7c9.7-1.7,16.8,5.2,17.2,15
		C321.8,100.1,320.2,99.1,318.5,98.4z"/>
	<path class="st4" d="M466.2,60.2c-0.2,7.4-0.9,14.7-1.1,22.1c-0.2,4.2,0.2,8.5,0.1,12.7c-0.1,5.1-0.1,10.4-0.9,15.4
		c-1.4,9.5-2.2,19-2.4,28.6c-0.1,5.7-0.7,11.4-0.7,17.1c-0.1,16-0.2,32,0,48c0.1,11.4,0.8,22.8,1.2,34.2c0.4,9.7,0.7,19.4,1.1,29.1
		c0.4,9.3,0.9,18.6,1.3,27.9c0,0.9,0.2,1.8,0.2,2.7c0,18.4,0.1,36.8-0.2,55.3c-0.2,11-1.3,21.9-2,32.9c-0.1,2.3-0.2,4.7-0.3,7
		c-0.3,8.8-0.6,17.6-0.9,26.4c-0.2,6.7-0.9,13.5-0.7,20.2c0.5,11.9-0.6,23.8-0.9,35.7c-0.2,10.6-0.6,21.2-0.7,31.8
		c-0.2,15.2-0.1,30.3-0.6,45.5c-0.5,13.6-1.6,27.1-2.4,40.7c-0.4,6.9-0.5,13.7-0.6,20.6c0,1.7,0,3.4,0,5.4c-10,1.4-20,0.9-29.8,1.3
		c-10,0.4-19.9,0.8-29.9,0.8c-9.9,0-19.9-0.6-30.2-0.9c0.1-1.7,0.2-3.2,0.3-4.7c0.4-8.1,0.9-16.3,1.2-24.4c0.1-3.1,0-6.2-0.2-9.2
		c-0.1-1.9,0.5-3.2,2.2-4.1c4.7-2.4,8.1-6.3,11.3-10.4c2.4-3.1,2.6-6.4,1.6-9.9c-1-3.5-2-7-3.1-10.4c-0.6-1.9-0.3-3.5,1-5.1
		c4.4-5.3,8.2-10.9,12.8-16.1c6.6-7.6,10.2-16.7,9.1-27.2c-0.6-5.4-0.9-10.8,1.3-16c2.3-5.4,4.5-10.8,6.8-16.1
		c2.2-4.8,3.5-9.8,3.9-14.9c0.5-6.5,0.9-12.9-0.4-19.3c-0.8-3.6,0.8-6.9,1.3-10.3c1.1-6.9,2.2-13.8,3.4-20.7c0.1-0.6,0-1.5,0.4-1.8
		c4.2-3.3,4.5-8.6,6.3-13c1.2-3.1,1.6-6.9,1.3-10.3c-0.6-5.9-1.7-11.7-3.2-17.5c-1.4-5.4-3.4-10.6-5.3-16.1c0.6-0.7,1.3-1.7,2.2-2.4
		c4.9-3.8,8.2-8.9,11.7-13.9c1.7-2.5,2.8-6.7,3.2-9.8c1-8.1,1.5-14.7,1.3-22.9c-0.3-9.2-1.5-18.3-4.7-27c-1.6-4.5-3.6-8.8-5.3-13.3
		c-2.2-5.7-2.6-11.7-2-17.6c0.8-8.2,0.5-16.3-0.7-24.4c-1.1-7.9-2.6-15.8-4.6-23.6c-1.6-6.5-4.2-12.8-6.3-19.1
		c-1.1-3.4-2.3-6.9-3.2-10.4c-2.7-9.8-6.4-19.2-11.4-27.9c-2.5-4.3-6-8-9.2-12c-2-2.5-11-11.7-16.4-15.8s-17.1-10.9-22-12.5
		c-7.3-2.4-14.7-2-21.8,1.2c-1.6-2-4.8-7.3-11.4-9.8c-3.8-1.4-9.2-2.6-17.6,0c-0.1,0-0.6-0.4-0.9-0.6c-0.7-0.5-11.6-6-16.8-8.7
		c-0.8-0.4-28.4-11.7-38.8-14.3c-7-1.8-18-1.6-24-0.8c-10.4,1.4-19.9,5.4-29.3,9.7c-3.1,1.4-21.3,11.6-29.4,17.4
		c-9.7,6.9-24.6,22.8-30.1,29.6c-7.3,9-14.6,18.2-19,29.1c-1.7,4.3-2.6,8.9-3.6,13.4c-0.9,3.9-1.7,7.8-2.2,11.8
		c-0.8,6.2-0.2,12.4,0.5,18.6c0.4,3.8,1,15.8,1.1,19.6c0.1,3.5-0.2,16.4,0.4,22.3c-1.1,0.1-2.2,0-3.3,0.2c-5.1,0.8-7.9,4.2-5.8,10.7
		c2,6.4,5.2,12.4,8,18.5c3.8,8.3,8.3,16.4,10.3,25.5c0.4,1.8,2.1,3.6,3.6,4.9c2.2,1.9,3.6,4,4,6.9c0.2,1.3,0.3,2.6,0.6,3.8
		c0.9,5.1,3.9,8.6,8.5,10.9c0.3,0.2,0.7,0.4,1.1,0.4c3.8,1.1,6.8,1.1,9.7-1.6c0.2-0.2,0.7-0.2,1.2-0.4c1.6,3,9.2,22,12,28.4
		c2.8,6.4,5.8,12.7,9,19.5c-1.4,0.7-39.6,36.6-47,46c-2.6,3.3-5.4,6.3-8,9.5c-8.1,10.3-17.5,19.4-26.2,29.1
		c-8.7,9.7-17.8,19.2-26.3,29.1c-4.9,5.8-23.2,28.4-28.8,32.7c-7.5,5.8-15.1,11.6-20.7,19.6c-0.2-0.1-0.5-0.2-0.7-0.3
		c0-4.1-0.1-8.2,0-12.3c0.2-5.4,0.6-10.9,0.7-16.3c0.2-17.6,0.5-35.2,0.4-52.8c-0.1-13.6-1-27.2-0.8-40.8c0.1-12,1.3-24,1.7-36.1
		c0.3-7.9-0.1-15.8,0-23.7c0.1-7.5,0.5-15,0.8-22.5c0.1-1.7,0.2-3.4,0.2-5c0.3-8.8,0.6-17.6,0.7-26.4c0.1-5.8,0-11.7,0-17.5
		c0.1-12.3,0.3-24.6,0.3-36.8c0-11.3-0.4-22.6-0.5-33.9c-0.1-6.4,0.1-12.9,0.3-19.3c0.1-8.5,0.3-17,0.5-25.5
		c0.1-11.6,0.3-23.3,0.3-34.9c0-4.5-0.2-22.9,0.1-27.5c0.2-4.4,0.5-8.8,0.8-13.2c0.3-6.3,0.6-12.7,0.9-19c0.5-8.6,1.1-17.3,1.4-25.9
		c0.2-4.9-0.2-9.8-0.1-14.7c0.1-3.3,0.5-6.7,0.8-9.9c2.7,0,5.4-0.1,8.1,0c4.4,0.3,8.7,1.1,13.1,1c10-0.1,20-0.7,30.1-1.1
		c6.7-0.3,13.4-0.6,20.1-0.9c6.1-0.2,12.2-0.5,18.2-0.6c6.1-0.1,12.2-0.2,18.2,0c9.3,0.3,51.2,2.1,55.6,1.9c8-0.2,54.7-0.9,60.8-1.3
		c11-0.7,22-1.1,33-0.4c9.2,0.5,18.4,0.4,27.6,0.6c13.9,0.4,27.9,0.6,41.8,1.2c15.5,0.7,31,1.7,46.5,2.5c6.7,0.3,13.4,0.5,20.2,0.7
		c8.5,0.3,17.1,0.7,25.6,0.7c9.7,0,19.3-0.5,29.7-0.9c0.2,4.7,0.4,9.3,0.5,13.8c0.1,4,0.3,8,0.4,12c0,2.1-0.3,4.1-0.3,6.2
		C465.9,49.3,466.4,54.8,466.2,60.2z"/>
	<path class="st1" d="M156.2,401.2c9.1,26.4,48.9,63.6,56.5,70.4c6.2,5.6,13.8,10.2,21.1,14.1c6.6,3.5,31.7,12.9,36.5,11.4
		c5.5-1.5,18.8-20.9,23.3-29.7c1.8-3.6,3.7-8.9,5.4-12.7c2.3,3.7,14.3,8.2,14.1,9c-3.1,7.8-16.3,36.2-18.8,43.7
		c-0.9,2.8-1.9,5.6-3,8.4c-2.3,5.9-4.7,11.7-7.1,17.6c-0.1,0.3-0.4,0.6-0.8,1.1c-1.7-0.4-3.5-0.8-5.2-1.3c-5.9-1.9-11.8-3.8-17.6-6
		c-7.7-2.8-14.7-7-21.6-11.4c-8.5-5.5-17.2-10.6-24.7-17.4c-7.5-6.9-15.8-12.9-22.1-21.2c-2-2.7-4.8-4.7-7-7.3
		c-7.7-9-15.2-18.2-22.9-27.2c-3.4-4-7.4-7.6-10.7-11.8c-3.8-4.7-7.8-9.5-10.5-14.8c-2.5-5.1-4.7-10.6-5.5-16.5
		c-0.1-0.9-1.1-7.2-0.7-8c1.9-3.4,12.9-13.1,14.9-14.5C150.1,378.2,152.9,391.7,156.2,401.2z"/>
	<path class="st3" d="M8.2,546.9c0-4.6,0.1-9.3,0-13.9c0-2,0.6-3.4,1.8-4.9c7.6-9.6,16.6-17.7,26.6-24.8c4.8-3.4,8.3-8.1,11.8-12.8
		c4.8-6.4,9.9-12.7,14.9-18.9c3.4-4.2,7.1-8.3,10.7-12.3c8.3-9.2,16.7-18.3,25.1-27.5c6.6-7.3,13.2-14.5,19.6-21.9
		c2.7-3.1,5-6.6,7.5-9.9c0.2-0.3,0.5-0.5,1.2-1.1c0.1,2.3,0.3,4.2,0.4,6.3c-5.2,4.8-18.3,22.2-21.1,26.1
		c-8.4,12-16.9,23.9-26.8,34.7c-8,8.7-15.7,17.5-23.4,26.4c-4.9,5.7-9.3,11.7-14.1,17.5c-1.9,2.3-4.1,4.3-6.1,6.5
		c-6.1,6.5-12.1,13.2-18.3,19.5c-3.4,3.5-5.7,7.6-8.3,11.7c-0.3,0.5-0.7,1.1-1.5,2.4C8.2,548.5,8.2,547.7,8.2,546.9z"/>
	<path class="st3" d="M6.5,588c-0.1-2.2-0.4-3.9,1.4-5.9c1.9-2.1,2.6-5.3,3.9-7.9c1.1-2.2,2-4.5,3.3-6.5
		c5.1-7.6,10.1-15.3,15.6-22.7c4.1-5.6,8.9-10.8,13.4-16.1c2.5-2.9,5.1-5.9,7.8-8.6c11.2-11.4,20.9-24,31.4-36
		c9.3-10.6,17.8-21.9,26-33.4c3.7-5.2,7.3-10.3,11.2-15.4c3.1-4.1,6.5-8,9.8-12c0.7-0.9,1.7-1.6,3-2.8c1,2.1,1.8,3.7,2.7,5.4
		c-1.6,1.8-3.1,3.6-4.6,5.3c-3.9,4.4-7.7,8.7-11.6,13.1c-1.4,1.6-2.7,3.4-4,5.2c-6.5,8.4-12.8,16.9-19.5,25.1
		c-8.4,10.5-17.1,20.8-25.7,31.1c-4,4.8-8.1,9.4-12.1,14.1c-2.4,2.9-4.6,5.9-7.2,8.7c-6.1,6.7-12.5,13.1-18.5,19.8
		c-3.3,3.6-6.5,7.4-9.1,11.5C17.8,569.2,12.3,578.6,6.5,588z"/>
	<path class="st3" d="M24.8,616.9c-2.4,0.1-6.4,0.5-9.5,0.8c0.9-4.8,2.8-8.3,4.6-11.8c5.9-12.4,13.4-23.9,20.7-35.5
		c2.9-4.6,6.5-8.6,9.8-13c5.6-7.4,11.1-14.9,17-22.1c6-7.4,12.6-14.4,18.7-21.8c6.7-8.2,13.1-16.6,19.7-24.9
		c4-5.1,7.8-10.4,12.1-15.2c8.2-9.2,16.6-18.1,25-27c1-1.1,2.3-2,3.6-3.1c2.1,2.5,4.1,4.8,6.3,7.5c-4.4,4.8-8.6,9.2-12.6,13.7
		c-4.7,5.3-9.3,10.8-13.8,16.2c-4.6,5.5-9.1,10.9-13.6,16.5c-3.2,3.9-6.1,8-9.3,11.9c-4,4.8-8.1,9.4-12.2,14.1
		c-5.9,6.7-12,13.2-17.7,20c-4.2,5-7.8,10.6-11.7,15.8c-1.5,2.1-3.2,4.1-4.8,6.1c-8.8,10.8-15.3,23-21.7,35.3
		C32.8,604.8,27,616.8,24.8,616.9z"/>
	<path class="st1" d="M49.5,617.4c1.1-1.9,2.1-3.6,3.1-5.2c5.2-8.3,10.5-16.6,15.6-25c5-8.1,10.6-15.6,16.5-23
		c6.7-8.4,13.6-16.6,20.4-24.9c2.1-2.6,3.9-5.5,5.9-8.1c7.2-9.4,14.4-18.9,21.8-28.2c4.9-6.1,10.1-12,15.3-17.9
		c4-4.6,8.2-8.9,12.2-13.5c1.7-1.9,3.2-4,5-6.3c16.5,15.8,33,31.6,49.7,47.6c-2.7,2.4-5.4,4.7-8.1,7.1c-6,5.3-12,10.6-17.9,16
		c-4.6,4.2-9.1,8.4-13.5,12.9c-5.7,5.8-11.5,11.5-16.5,17.9c-8.3,10.7-16.5,21.5-23.2,33.4c-3.2,5.6-6.7,11-10.1,16.6
		C115.4,617,58.9,618.4,49.5,617.4z"/>
	<path class="st3" d="M353.8,597.8c0.2,7.6-0.6,15.2-2.6,23c-6.5,0-12.9,0.2-19.4,0c-9.8-0.4-19.6-1.1-29.4-1.6
		c-6.2-0.3-12.4-0.6-18.6-0.9c-8.4-0.3-16.8-0.6-25.2-0.9c-8.8-0.2-17.6-0.5-26.4-0.5c-9.3,0-18.6,0.4-28,0.5
		c-17.1,0.1-34.2,0-51.3,0c-6.3,0-12.7-0.3-19-0.5c-0.9,0-1.7-0.1-3-0.2c1.1-2.2,1.9-4.1,2.9-5.8c4.5-7.3,8.8-14.6,13.5-21.7
		c7.8-11.8,16.6-22.8,26.6-32.7c7.9-7.8,15.8-15.7,23.7-23.4c2.3-2.2,5-4.1,7.4-6.2c3.3-2.9,6.5-5.9,9.9-8.7
		c1.3-1.1,2.8-1.9,4.1-2.7c2.6,1.9,4.9,3.8,7.4,5.4c3.1,2.1,6.4,2.7,10.2,1.9c3.3-0.6,6.3,0.9,9.1,2.3c6.5,3.1,12.9,6.6,19.5,9.6
		c4.8,2.2,9.8,3.9,14.8,5.7c3.5,1.3,6.2,0.2,7.6-3.3c3.1-7.8,21.2-48.2,25.1-60.3c1.5-4.7,4.6-8.7,4.8-13.9c0.8-0.1,1.6-0.1,2.3-0.2
		c2.6,4.5,1.8,9.1,0.3,13.5c-1.7,5.1-3.8,10.2-5.8,15.2c-2,4.9-4.1,9.7-4.2,15.2c-0.1,9.1,4.4,15.4,11.7,20.1c2.4,1.5,5.2,1.4,7.8,0
		c0.3-0.2,0.4-0.9,0.6-1.4c1.6,0.7,3.6,1.1,4.6,2.2c4.3,4.7,9,8.8,14.3,12.4c1.4,1,3,2.3,3.5,4.5c0.9,4.4,3.2,13,4.9,17.9
		c1.7,4.9,2.5,13.5,0.3,20.3c-1.2,3.7-2.6,7.3-3.8,10.9C353.6,594.9,353.7,596.4,353.8,597.8z"/>
</g>
</svg>
