<?xml version="1.0" encoding="utf-8"?>
<!-- Generator: Adobe Illustrator 19.1.0, SVG Export Plug-In . SVG Version: 6.00 Build 0)  -->
<svg version="1.1" id="Calque_1" xmlns="http://www.w3.org/2000/svg" xmlns:xlink="http://www.w3.org/1999/xlink" x="0px" y="0px"
	 viewBox="-192 263.5 893.5 275.5" style="enable-background:new -192 263.5 893.5 275.5;" xml:space="preserve">
<style type="text/css">
	.st0{enable-background:new    ;}
	.st1{fill:#8D1514;}
	.st2{fill:#DF111A;}
	.st3{fill:#679FD0;}
	.st4{fill:#F5F9F8;}
	.st5{fill:#0B6EB1;}
</style>
<g>
	<path d="M701.5,332.6c-0.3,3.6-0.7,6.9-0.9,10.2c-0.1,2.2,0,4.4-0.1,6.5c0,6.6,0,13.3,0,19.9c0,1.4,0,2.8-0.1,4.2
		c-0.2,19.4-0.2,38.8-0.8,58.2c-0.5,14.4-1.9,28.7-2.8,43c-0.2,3.1,0,6.3-0.1,9.5c-0.2,13.8-0.5,18.9-0.7,32.7
		c-0.1,4.1-0.2,8.2,0,12.2c0.3,5.2-3.4,8.4-9.4,8.8c-7.5,0.5-14.9,1-22.4,1c-24.8,0.1-49.5,0.2-74.3,0c-29.4-0.2-58.8-0.8-88.2-1.1
		c-17.2-0.1-186.7,0.1-203.9,0.2c-15,0-100.7-1.3-110.1-1.5c-15.4-0.4-30.7-0.8-46.1-1c-4.5-0.1-9.1,0.6-13.6,0.9
		c-0.8,0.1-1.7,0.1-2.5,0c-5.5-0.2-11.1-0.6-16.6-0.5c-17.9,0.3-192-4.4-208.5-5c-15.3-0.5-30.7-0.8-46-1.3
		c-8.2-0.3-16.5-0.9-24.7-1.3c-2.9-0.1-5.8,0.1-8.7,0.5c-6,0.7-8.7-1.8-10.5-7.2c-1.7-4.8,1.8-36.8,1.6-48.9
		c-0.2-16.2-0.4-32.4-0.7-48.6c-0.2-9.9-0.3-19.8-0.7-29.6c-0.3-10.9-0.4-21.8-1.9-32.5c-2-14.5,0.3-28.8,1-43.1
		c0.2-3.4,1.4-5.7,4.3-7.3c1.4,0.2,2.9,0.4,4.3,0.5c23.8,0.3,47.6,0.9,71.4,0.9c18.1,0,36.3-0.8,54.4-0.8c8.5,0,17,1.1,25.5,1.7
		c0.2,0,0.4,0,0.6,0c22.1,0.1,44.2,0.1,66.3,0.2c8.5,0,17.1,0,25.6-0.1c7.5-0.2,15.1-0.7,22.6-0.9c9.6-0.1,19.1,0,28.7,0
		c20.4,0,40.9-0.2,61.3,0c13.1,0.1,26.2,0.6,39.4,1c3.5,0.1,7,0.4,10.5,0.5c12.5,0.4,25,0.6,37.5,1.1c19.5,0.7,191.4,1.6,210.9,2.4
		c5.2,0.2,10.4,0,15.7,0.1c12.9,0.3,25.8,0.5,38.7,1.1c16,0.7,32,1.5,48,2.5c10.1,0.6,20.2,1.8,30.4,2.7c3.9,0.3,7.9,0.6,11.8,0.8
		c12.6,0.9,25.2,2,37.9,2.8c6.9,0.4,13.8,0.1,20.6,0.9C684.3,329.9,692.8,328.9,701.5,332.6z M-185.4,318.6
		c-0.7,7.3-1.9,13.5-1.8,19.8c0.2,15.2,1.1,30.4,1.6,45.7c0.7,19.4,1.4,38.8,1.9,58.1c0.3,11.7-0.1,23.3,0.2,35
		c0.1,7.1-0.9,21.9-1.6,38.5c-0.2,0.3,0.1,0.7,0.2,1.6c5.9,0.2,331.7,8.1,341.7,8.2c6,0.1,11.9-0.7,18-0.1c9.9,1,20,1,29.9,1.1
		c16.9,0.2,33.8,0,50.7,0.1c37.8,0.2,227.8-0.8,265.6,1.6c11.8,0.7,23.6,0.9,35.4,1c16.1,0.2,32.1,0,48.2,0c23,0,46,0,69,0
		c2.3,0,4.5,0,7.2,0c0.5-3.2,1.2-5.9,1.3-8.6c0.3-17.2,0.8-25.6,0.7-42.8c-0.2-18.2,0.7-36.4,2-54.5c0.9-12.4,0.8-24.9,1.1-37.4
		c0.1-2.2,0-4.4,0-6.5c0.4-14,0.9-28.1,1.3-42.1c-12.3-0.8-24.2-1.5-36-2.2c-5.2-0.3-10.4-0.5-15.6-1c-8.5-0.8-16.9-1.9-25.4-2.5
		c-11-0.8-22-1.4-33-2c-12.7-0.7-25.3-1.5-38-2.2c-11.4-0.7-22.8-1.5-34.2-2c-13.5-0.5-179.4-0.6-193-1c-17.5-0.5-34.9-1.1-52.4-1.7
		c-16.4-0.5-32.8-1.2-49.2-1.5c-13.3-0.2-26.7,0.3-40,0.5c-2.1,0-4.1-0.3-6.2-0.5c-1.4-0.1-2.9-0.4-4.3-0.3
		c-7.2,0.2-14.4,0.7-21.6,0.8c-7.7,0-15.4-0.5-23.1-0.5c-21,0.1-42.1,0.4-63.1,0.5c-4.9,0-9.8-0.6-14.8-0.6c-7.5,0-15,0.7-22.5,0.5
		c-27.9-0.7-55.7-1.9-83.6-2.4c-14.2-0.3-28.5,0.7-42.8,0.9c-10.2,0.2-20.4,0.1-30.7,0c-6.6,0-13.2-0.1-19.8-0.3
		C-169.5,319.5-176.9,319-185.4,318.6z"/>
	<g>
		<g class="st0">
			<path d="M-144.5,512.4c-0.1,0.4-0.2,0.6-0.5,0.8s-0.5,0.3-0.9,0.3h-2.5c-0.4,0-0.8-0.1-1-0.4c-0.2-0.3-0.3-0.6-0.2-1.1l5.1-19.4
				c0.1-0.3,0.2-0.6,0.5-0.8c0.2-0.2,0.5-0.3,0.9-0.3h5.7c0.4,0,0.7,0.1,0.9,0.3s0.4,0.5,0.5,0.8l5.1,19.4c0.1,0.4,0,0.8-0.2,1.1
				c-0.2,0.3-0.6,0.4-1,0.4h-2.5c-0.4,0-0.7-0.1-0.9-0.3s-0.4-0.5-0.5-0.8l-0.8-3.3h-6.8L-144.5,512.4z M-137.8,505.2l-2.5-10.2
				l-2.5,10.2H-137.8z"/>
			<path d="M-123.6,501.6c0-2.7,0.4-4.6,1.3-5.8c0.9-1.2,2.3-1.8,4.3-1.8c2.1,0,3.7,0.6,4.6,1.7s1.5,3,1.5,5.7v10.8
				c0,0.4-0.1,0.7-0.4,1c-0.2,0.2-0.6,0.4-1,0.4h-2.7c-0.4,0-0.7-0.1-1-0.4c-0.2-0.2-0.4-0.6-0.4-1v-9.8c0-1.1-0.2-1.9-0.6-2.5
				c-0.4-0.5-1.2-0.8-2.2-0.8c-0.5,0-1,0-1.3,0.2c-0.4,0.1-0.7,0.3-1.1,0.5c-0.3,0.3-0.6,0.6-0.8,1.2c-0.2,0.5-0.3,1.2-0.3,1.9v9.2
				c0,0.4-0.1,0.7-0.4,1c-0.2,0.2-0.6,0.4-1,0.4h-2.7c-0.4,0-0.7-0.1-1-0.4c-0.2-0.2-0.4-0.6-0.4-1v-16.7c0-0.4,0.1-0.7,0.4-1
				c0.2-0.2,0.6-0.4,1-0.4h2.7c0.4,0,0.7,0.1,1,0.4s0.4,0.6,0.4,1V501.6z"/>
			<path d="M-97.6,499.8v-4.4c0-0.4,0.1-0.8,0.4-1c0.2-0.2,0.6-0.4,1-0.4h2.7c0.4,0,0.7,0.1,1,0.4c0.2,0.2,0.4,0.6,0.4,1V510
				c0,1.7-0.7,3-2.1,3.8c-1.4,0.8-3.6,1.2-6.7,1.2c-4.7,0-7.4-0.9-8.2-2.7c-0.1-0.4-0.2-0.7-0.2-1.1c0-0.7,0.4-1.1,1.2-1.1h2.5
				c0.4,0,0.7,0.1,0.8,0.2s0.4,0.3,0.6,0.7c0.1,0.2,0.2,0.4,0.4,0.6c0.2,0.3,0.6,0.4,1,0.5c0.5,0.1,1.1,0.1,1.9,0.1
				c1.2,0,2.1-0.2,2.6-0.5c0.5-0.3,0.8-1,0.8-1.9v-5.9c0,2-0.4,3.4-1.3,4.4s-2.3,1.5-4.3,1.5c-2.4,0-4.1-0.6-5.1-1.8
				c-1-1.2-1.6-3.1-1.6-5.8v-0.7c0-2.6,0.5-4.5,1.6-5.7c1-1.2,2.8-1.9,5.1-1.9c2,0,3.4,0.5,4.3,1.5C-98,496.4-97.6,497.8-97.6,499.8
				z M-104.5,501.7v0.3c0,1.5,0.3,2.5,0.8,3.1c0.5,0.6,1.4,0.9,2.7,0.9c2.3,0,3.4-0.9,3.4-2.8v-2.7c0-1.8-1.1-2.7-3.4-2.7
				c-1.2,0-2.1,0.3-2.6,0.9C-104.2,499.2-104.5,500.3-104.5,501.7z"/>
			<path d="M-86.1,513.5h-2.7c-0.4,0-0.7-0.1-1-0.4c-0.2-0.2-0.4-0.6-0.4-1v-19.3c0-0.4,0.1-0.7,0.4-1c0.2-0.2,0.6-0.4,1-0.4h2.7
				c0.4,0,0.7,0.1,1,0.4c0.2,0.2,0.4,0.6,0.4,1v19.3c0,0.4-0.1,0.7-0.4,1C-85.3,513.4-85.7,513.5-86.1,513.5z"/>
			<path d="M-65.3,509c-0.4,1.5-1.3,2.6-2.8,3.4c-1.5,0.8-3.4,1.2-5.8,1.2c-3,0-5.2-0.8-6.7-2.3c-1.4-1.5-2.2-3.8-2.2-6.8v-1.7
				c0-3,0.7-5.2,2.2-6.7c1.5-1.5,3.7-2.2,6.8-2.2c2.9,0,5.1,0.6,6.5,1.9c1.5,1.3,2.2,3.1,2.2,5.5v1.9c0,0.4-0.1,0.7-0.3,0.9
				c-0.2,0.2-0.5,0.3-0.9,0.3h-11.1c0,1.7,0.3,2.9,0.8,3.6c0.5,0.7,1.4,1,2.6,1c0.9,0,1.6-0.1,2.1-0.3c0.5-0.2,0.9-0.5,1.1-1
				c0-0.1,0.1-0.3,0.2-0.5c0.1-0.5,0.3-0.8,0.5-1c0.2-0.2,0.6-0.3,1-0.3h2.6c0.9,0,1.3,0.5,1.3,1.4C-65.1,508-65.2,508.5-65.3,509z
				 M-73.8,498.4c-1.1,0-1.9,0.2-2.5,0.7s-0.9,1.3-1,2.5h6.8v-0.1c0-1.2-0.3-2-0.8-2.5S-72.6,498.4-73.8,498.4z"/>
			<path d="M-56.2,512.1c0,0.4-0.1,0.8-0.4,1c-0.2,0.2-0.6,0.4-1,0.4h-2.7c-0.4,0-0.8-0.1-1-0.4c-0.2-0.2-0.4-0.6-0.4-1v-13.8H-63
				c-0.8,0-1.2-0.4-1.2-1.2v-1.9c0-0.8,0.4-1.2,1.2-1.2h1.4v-0.8c0-0.4,0.1-0.8,0.4-1c0.2-0.2,0.6-0.4,1-0.4h2.7
				c0.4,0,0.8,0.1,1,0.4c0.2,0.2,0.4,0.6,0.4,1v0.8h2.4c0.8,0,1.2,0.4,1.2,1.3v1.6c0,0.4-0.1,0.8-0.3,1s-0.5,0.4-0.9,0.4h-2.4V512.1
				z"/>
			<path d="M-34.4,509c-0.4,1.5-1.3,2.6-2.8,3.4c-1.5,0.8-3.4,1.2-5.8,1.2c-3,0-5.2-0.8-6.7-2.3c-1.4-1.5-2.2-3.8-2.2-6.8v-1.7
				c0-3,0.7-5.2,2.2-6.7c1.5-1.5,3.7-2.2,6.8-2.2c2.9,0,5.1,0.6,6.5,1.9c1.5,1.3,2.2,3.1,2.2,5.5v1.9c0,0.4-0.1,0.7-0.3,0.9
				c-0.2,0.2-0.5,0.3-0.9,0.3h-11.1c0,1.7,0.3,2.9,0.8,3.6c0.5,0.7,1.4,1,2.6,1c0.9,0,1.6-0.1,2.1-0.3c0.5-0.2,0.9-0.5,1.1-1
				c0-0.1,0.1-0.3,0.2-0.5c0.1-0.5,0.3-0.8,0.5-1c0.2-0.2,0.6-0.3,1-0.3h2.6c0.9,0,1.3,0.5,1.3,1.4C-34.2,508-34.2,508.5-34.4,509z
				 M-42.8,498.4c-1.1,0-1.9,0.2-2.5,0.7s-0.9,1.3-1,2.5h6.8v-0.1c0-1.2-0.3-2-0.8-2.5S-41.7,498.4-42.8,498.4z"/>
			<path d="M-26.8,495.4v6.1c0-2.6,0.4-4.6,1.3-5.8s2.2-1.8,4.2-1.8c0.4,0,0.7,0.1,0.8,0.3s0.3,0.6,0.3,1v3.2c0,1.1-0.6,1.6-1.7,1.5
				c-0.6-0.1-1.1-0.1-1.7,0c-0.6,0.1-1.1,0.2-1.6,0.4c-0.5,0.2-0.8,0.5-1.1,0.9c-0.3,0.4-0.4,0.9-0.4,1.6v9.2c0,0.4-0.1,0.8-0.4,1
				c-0.2,0.2-0.6,0.4-1,0.4h-2.7c-0.4,0-0.8-0.1-1-0.4c-0.2-0.2-0.4-0.6-0.4-1v-16.7c0-0.4,0.1-0.8,0.4-1c0.2-0.2,0.6-0.4,1-0.4h2.7
				c0.4,0,0.7,0.1,1,0.4S-26.8,495-26.8,495.4z"/>
			<path d="M-13,495.4v6.1c0-2.6,0.4-4.6,1.3-5.8s2.2-1.8,4.2-1.8c0.4,0,0.7,0.1,0.8,0.3s0.3,0.6,0.3,1v3.2c0,1.1-0.6,1.6-1.7,1.5
				c-0.6-0.1-1.1-0.1-1.7,0c-0.6,0.1-1.1,0.2-1.6,0.4c-0.5,0.2-0.8,0.5-1.1,0.9c-0.3,0.4-0.4,0.9-0.4,1.6v9.2c0,0.4-0.1,0.8-0.4,1
				c-0.2,0.2-0.6,0.4-1,0.4H-17c-0.4,0-0.8-0.1-1-0.4c-0.2-0.2-0.4-0.6-0.4-1v-16.7c0-0.4,0.1-0.8,0.4-1c0.2-0.2,0.6-0.4,1-0.4h2.7
				c0.4,0,0.7,0.1,1,0.4S-13,495-13,495.4z"/>
			<path d="M12,509c-0.4,1.5-1.3,2.6-2.8,3.4c-1.5,0.8-3.4,1.2-5.8,1.2c-3,0-5.2-0.8-6.7-2.3c-1.4-1.5-2.2-3.8-2.2-6.8v-1.7
				c0-3,0.7-5.2,2.2-6.7c1.5-1.5,3.7-2.2,6.8-2.2c2.9,0,5.1,0.6,6.5,1.9c1.5,1.3,2.2,3.1,2.2,5.5v1.9c0,0.4-0.1,0.7-0.3,0.9
				c-0.2,0.2-0.5,0.3-0.9,0.3H0c0,1.7,0.3,2.9,0.8,3.6c0.5,0.7,1.4,1,2.6,1c0.9,0,1.6-0.1,2.1-0.3c0.5-0.2,0.9-0.5,1.1-1
				c0-0.1,0.1-0.3,0.2-0.5c0.1-0.5,0.3-0.8,0.5-1c0.2-0.2,0.6-0.3,1-0.3h2.6c0.9,0,1.3,0.5,1.3,1.4C12.2,508,12.2,508.5,12,509z
				 M3.6,498.4c-1.1,0-1.9,0.2-2.5,0.7s-0.9,1.3-1,2.5h6.8v-0.1c0-1.2-0.3-2-0.8-2.5S4.7,498.4,3.6,498.4z"/>
		</g>
	</g>
	<g>
		<g class="st0">
			<path d="M106.4,513.5h-2.7c-0.4,0-0.8-0.1-1-0.4c-0.2-0.2-0.4-0.6-0.4-1v-19.3c0-0.4,0.1-0.8,0.4-1c0.2-0.2,0.6-0.4,1-0.4h7.2
				c1.6,0,2.9,0.1,3.9,0.3c1,0.2,1.8,0.6,2.5,1.2c0.6,0.5,1.1,1.2,1.3,2c0.2,0.8,0.4,1.9,0.4,3.2v0.6c0,2.8-1,4.7-2.9,5.8l2.7,7.3
				c0.2,0.4,0.1,0.8-0.1,1.1s-0.5,0.5-1,0.5h-3.1c-0.7,0-1.1-0.3-1.3-1l-2.4-6.9h-3.2v6.5c0,0.4-0.1,0.8-0.4,1
				C107.2,513.4,106.8,513.5,106.4,513.5z M111,496.2h-3.2v5h3.2c1,0,1.7-0.2,2.1-0.5c0.4-0.3,0.6-0.9,0.6-1.8v-0.5
				c0-0.9-0.2-1.5-0.6-1.8C112.6,496.4,111.9,496.2,111,496.2z"/>
			<path d="M132.7,506c0,2.7-0.4,4.6-1.3,5.8c-0.9,1.2-2.3,1.8-4.3,1.8c-2.1,0-3.7-0.6-4.6-1.7c-1-1.2-1.5-3-1.5-5.7v-10.8
				c0-0.4,0.1-0.7,0.4-1c0.2-0.2,0.6-0.4,1-0.4h2.7c0.4,0,0.7,0.1,1,0.4s0.4,0.6,0.4,1v9.7c0,1.1,0.2,1.9,0.6,2.5
				c0.4,0.5,1.2,0.8,2.2,0.8c0.5,0,1-0.1,1.3-0.2c0.4-0.1,0.7-0.3,1.1-0.5s0.6-0.7,0.8-1.2c0.2-0.5,0.3-1.2,0.3-1.9v-9.2
				c0-0.4,0.1-0.8,0.4-1c0.2-0.2,0.6-0.4,1-0.4h2.7c0.4,0,0.7,0.1,1,0.4s0.4,0.6,0.4,1v16.7c0,0.4-0.1,0.7-0.4,1
				c-0.2,0.2-0.6,0.4-1,0.4H134c-0.4,0-0.7-0.1-1-0.4c-0.2-0.2-0.4-0.6-0.4-1V506z"/>
			<path d="M140,509c-0.1-0.2-0.1-0.6-0.1-1.1c0-0.4,0.1-0.7,0.3-0.9s0.6-0.3,1.1-0.3h2.3c0.4,0,0.7,0.1,0.9,0.2
				c0.2,0.1,0.3,0.3,0.4,0.6c0.2,0.5,0.3,0.8,0.3,0.9c0.3,0.5,0.6,0.8,1.1,1c0.5,0.2,1.1,0.3,2,0.3c1,0,1.8-0.1,2.4-0.4
				c0.5-0.3,0.8-0.7,0.8-1.3v-0.1c0-0.5-0.1-0.9-0.3-1.2c-0.2-0.3-0.6-0.5-1.2-0.6c-0.6-0.2-1.6-0.3-2.9-0.5c-0.8-0.1-1.4-0.2-2-0.2
				c-0.6-0.1-1.1-0.2-1.6-0.3c-0.5-0.1-1-0.3-1.4-0.5s-0.7-0.4-1-0.7c-0.3-0.3-0.6-0.6-0.7-1c-0.2-0.4-0.3-0.8-0.4-1.3
				c-0.1-0.5-0.1-1-0.1-1.6v-0.1c0-2,0.7-3.5,2.1-4.5c1.4-1,3.5-1.5,6.4-1.5c2.2,0,4,0.3,5.4,1c1.4,0.7,2.3,1.7,2.7,3
				c0.2,0.6,0.2,1.1,0.3,1.5c0,0.4-0.1,0.7-0.3,0.9s-0.5,0.4-0.9,0.4H153c-0.4,0-0.7-0.1-0.9-0.2c-0.2-0.1-0.4-0.3-0.5-0.7l-0.4-0.8
				c-0.5-0.8-1.5-1.2-3-1.2c-1.1,0-2,0.2-2.5,0.5c-0.5,0.3-0.8,0.8-0.8,1.4v0.1c0,0.4,0.1,0.8,0.3,1s0.6,0.4,1.3,0.6
				c0.6,0.1,1.6,0.3,2.9,0.4c1.4,0.1,2.5,0.3,3.4,0.5c0.9,0.2,1.6,0.6,2.2,1c0.6,0.5,1,1.1,1.3,1.8c0.2,0.7,0.4,1.6,0.4,2.7v0.2
				c0,2-0.7,3.4-2.1,4.3s-3.5,1.3-6.4,1.3c-2.4,0-4.4-0.4-5.7-1.1C141.2,511.8,140.3,510.6,140,509z"/>
			<path d="M158.4,509c-0.1-0.2-0.1-0.6-0.1-1.1c0-0.4,0.1-0.7,0.3-0.9s0.6-0.3,1.1-0.3h2.3c0.4,0,0.7,0.1,0.9,0.2
				c0.2,0.1,0.3,0.3,0.4,0.6c0.2,0.5,0.3,0.8,0.3,0.9c0.3,0.5,0.6,0.8,1.1,1c0.5,0.2,1.1,0.3,2,0.3c1,0,1.8-0.1,2.4-0.4
				c0.5-0.3,0.8-0.7,0.8-1.3v-0.1c0-0.5-0.1-0.9-0.3-1.2c-0.2-0.3-0.6-0.5-1.2-0.6c-0.6-0.2-1.6-0.3-2.9-0.5c-0.8-0.1-1.4-0.2-2-0.2
				c-0.6-0.1-1.1-0.2-1.6-0.3c-0.5-0.1-1-0.3-1.4-0.5s-0.7-0.4-1-0.7c-0.3-0.3-0.6-0.6-0.7-1c-0.2-0.4-0.3-0.8-0.4-1.3
				c-0.1-0.5-0.1-1-0.1-1.6v-0.1c0-2,0.7-3.5,2.1-4.5c1.4-1,3.5-1.5,6.4-1.5c2.2,0,4,0.3,5.4,1c1.4,0.7,2.3,1.7,2.7,3
				c0.2,0.6,0.2,1.1,0.3,1.5c0,0.4-0.1,0.7-0.3,0.9s-0.5,0.4-0.9,0.4h-2.5c-0.4,0-0.7-0.1-0.9-0.2c-0.2-0.1-0.4-0.3-0.5-0.7
				l-0.4-0.8c-0.5-0.8-1.5-1.2-3-1.2c-1.1,0-2,0.2-2.5,0.5c-0.5,0.3-0.8,0.8-0.8,1.4v0.1c0,0.4,0.1,0.8,0.3,1s0.6,0.4,1.3,0.6
				c0.6,0.1,1.6,0.3,2.9,0.4c1.4,0.1,2.5,0.3,3.4,0.5c0.9,0.2,1.6,0.6,2.2,1c0.6,0.5,1,1.1,1.3,1.8c0.2,0.7,0.4,1.6,0.4,2.7v0.2
				c0,2-0.7,3.4-2.1,4.3s-3.5,1.3-6.4,1.3c-2.4,0-4.4-0.4-5.7-1.1C159.6,511.8,158.7,510.6,158.4,509z"/>
			<path d="M181.3,493.2h-3.4c-0.7,0-1-0.3-1-1v-0.1c0-0.7,0.3-1,1-1h3.4c0.7,0,1,0.3,1,1v0.1C182.3,492.9,182,493.2,181.3,493.2z
				 M181,513.5h-2.7c-0.4,0-0.7-0.1-1-0.4c-0.2-0.2-0.4-0.6-0.4-1v-16.7c0-0.4,0.1-0.7,0.4-1c0.2-0.2,0.6-0.4,1-0.4h2.7
				c0.4,0,0.7,0.1,1,0.4s0.4,0.6,0.4,1v16.7c0,0.4-0.1,0.7-0.4,1C181.7,513.4,181.4,513.5,181,513.5z"/>
			<path d="M201.7,509c-0.4,1.5-1.3,2.6-2.8,3.4c-1.5,0.8-3.4,1.2-5.8,1.2c-3,0-5.2-0.8-6.7-2.3c-1.4-1.5-2.2-3.8-2.2-6.8v-1.7
				c0-3,0.7-5.2,2.2-6.7c1.5-1.5,3.7-2.2,6.8-2.2c2.9,0,5.1,0.6,6.5,1.9c1.5,1.3,2.2,3.1,2.2,5.5v1.9c0,0.4-0.1,0.7-0.3,0.9
				c-0.2,0.2-0.5,0.3-0.9,0.3h-11.1c0,1.7,0.3,2.9,0.8,3.6c0.5,0.7,1.4,1,2.6,1c0.9,0,1.6-0.1,2.1-0.3c0.5-0.2,0.9-0.5,1.1-1
				c0-0.1,0.1-0.3,0.2-0.5c0.1-0.5,0.3-0.8,0.5-1c0.2-0.2,0.6-0.3,1-0.3h2.6c0.9,0,1.3,0.5,1.3,1.4C201.9,508,201.9,508.5,201.7,509
				z M193.3,498.4c-1.1,0-1.9,0.2-2.5,0.7s-0.9,1.3-1,2.5h6.8v-0.1c0-1.2-0.3-2-0.8-2.5S194.4,498.4,193.3,498.4z"/>
		</g>
	</g>
	<g>
		<g class="st0">
			<path d="M258.8,502.7c0,1.1-0.1,2.1-0.4,2.9c-0.3,0.8-0.8,1.5-1.5,2.1c-0.7,0.6-1.6,1-2.6,1.3s-2.4,0.4-4,0.4h-3.5v5.2
				c0,0.4-0.1,0.7-0.4,1c-0.2,0.2-0.6,0.4-1,0.4h-2.7c-0.4,0-0.7-0.1-1-0.4c-0.2-0.2-0.4-0.6-0.4-1v-19.3c0-0.4,0.1-0.7,0.4-1
				c0.2-0.2,0.6-0.4,1-0.4h7.5c3.1,0,5.3,0.6,6.6,1.7c1.3,1.1,2,2.9,2,5.4V502.7z M250.2,498.7h-3.4v6.4h3.4c1.1,0,1.9-0.2,2.4-0.6
				c0.5-0.4,0.7-1.2,0.7-2.3v-0.3c0-1.2-0.2-2-0.7-2.4C252.2,498.9,251.4,498.7,250.2,498.7z"/>
			<path d="M271.6,511.6c0,1.4-0.5,2.5-1.4,3.3c-0.9,0.8-2.4,1.2-4.4,1.2c-1.9,0-3.4-0.4-4.4-1.3c-1-0.9-1.5-2.1-1.5-3.8v-0.3
				c0-0.8,0.1-1.5,0.3-2.1c0.2-0.6,0.5-1.1,0.8-1.5c0.3-0.4,0.8-0.8,1.3-1.1c0.5-0.3,1.1-0.5,1.6-0.7s1.2-0.3,1.9-0.4
				c0.7-0.1,1.4-0.2,1.9-0.3s1.2-0.1,2-0.2c0.7-0.1,1.3-0.2,1.8-0.3v-0.5c0-1-0.2-1.7-0.7-2.1c-0.4-0.4-1.2-0.5-2.3-0.5
				c-0.7,0-1.2,0.1-1.6,0.2c-0.4,0.2-0.6,0.4-0.7,0.7c-0.1,0.1-0.2,0.3-0.3,0.5c-0.1,0.6-0.5,0.9-1.3,0.9h-2.8
				c-0.9,0-1.3-0.4-1.3-1.3c0-0.3,0-0.6,0.1-0.7c0.2-1.5,0.9-2.7,2.3-3.6c1.3-0.8,3.2-1.3,5.5-1.3c3,0,5.2,0.6,6.5,1.7
				c1.3,1.1,2,2.9,2,5.4v11.1c0,0.4-0.1,0.8-0.4,1c-0.2,0.2-0.6,0.4-1,0.4h-2.7c-0.4,0-0.8-0.1-1-0.4c-0.2-0.2-0.4-0.6-0.4-1V511.6z
				 M267.8,512.7c0.6,0,1.1,0,1.5-0.1c0.4-0.1,0.8-0.1,1.2-0.3c0.4-0.1,0.6-0.3,0.8-0.6c0.2-0.3,0.3-0.6,0.3-1v-3.5
				c-0.1,0-0.4,0.1-0.7,0.1c-0.8,0.1-1.4,0.2-1.8,0.3c-0.4,0.1-0.8,0.2-1.4,0.3s-0.9,0.2-1.1,0.4c-0.2,0.1-0.5,0.3-0.7,0.5
				c-0.3,0.2-0.4,0.4-0.5,0.7c-0.1,0.2-0.1,0.5-0.1,0.9v0.2C265.3,512.1,266.1,512.7,267.8,512.7z"/>
			<path d="M281.5,517.3c-0.4,0-0.7-0.1-1-0.4c-0.2-0.2-0.4-0.6-0.4-1v-1.3c0-0.5,0.1-0.8,0.4-1.1c0.2-0.3,0.6-0.4,1-0.4h0.6
				c1.5,0,2.5-0.6,3.1-1.8l0.1-0.1h-1.5c-0.7,0-1.1-0.3-1.4-0.9l-4.6-12.3c-0.1-0.4-0.1-0.8,0.1-1.1c0.2-0.3,0.6-0.5,1-0.5h2.8
				c0.3,0,0.6,0.1,0.9,0.3s0.4,0.4,0.5,0.8l3.4,10.7l3.3-10.7c0.2-0.7,0.7-1.1,1.4-1.1h2.8c0.4,0,0.8,0.1,1,0.4
				c0.2,0.3,0.3,0.6,0.1,1.1l-4.3,12.6c-0.8,2.5-1.9,4.2-3.3,5.2C286,516.8,284,517.3,281.5,517.3z"/>
			<path d="M296,511.5c-0.1-0.2-0.1-0.6-0.1-1.1c0-0.4,0.1-0.7,0.3-0.9s0.6-0.3,1.1-0.3h2.3c0.4,0,0.7,0.1,0.9,0.2
				c0.2,0.1,0.3,0.3,0.4,0.6c0.2,0.5,0.3,0.8,0.3,0.9c0.3,0.5,0.6,0.8,1.1,1c0.5,0.2,1.1,0.3,2,0.3c1,0,1.8-0.1,2.4-0.4
				c0.5-0.3,0.8-0.7,0.8-1.3v-0.1c0-0.5-0.1-0.9-0.3-1.2c-0.2-0.3-0.6-0.5-1.2-0.6c-0.6-0.2-1.6-0.3-2.9-0.5c-0.8-0.1-1.4-0.2-2-0.2
				c-0.6-0.1-1.1-0.2-1.6-0.3c-0.5-0.1-1-0.3-1.4-0.5c-0.4-0.2-0.7-0.4-1-0.7c-0.3-0.3-0.6-0.6-0.7-1c-0.2-0.4-0.3-0.8-0.4-1.3
				c-0.1-0.5-0.1-1-0.1-1.6v-0.1c0-2,0.7-3.5,2.1-4.5c1.4-1,3.5-1.5,6.4-1.5c2.2,0,4,0.3,5.4,1c1.4,0.7,2.3,1.7,2.7,3
				c0.2,0.6,0.2,1.1,0.3,1.5c0,0.4-0.1,0.7-0.3,0.9s-0.5,0.4-0.9,0.4h-2.5c-0.4,0-0.7-0.1-0.9-0.2c-0.2-0.1-0.4-0.3-0.5-0.7
				l-0.4-0.8c-0.5-0.8-1.5-1.2-3-1.2c-1.1,0-2,0.2-2.5,0.5c-0.5,0.3-0.8,0.8-0.8,1.4v0.1c0,0.4,0.1,0.8,0.3,1s0.6,0.4,1.3,0.6
				c0.6,0.1,1.6,0.3,2.9,0.4c1.4,0.1,2.5,0.3,3.4,0.5c0.9,0.2,1.6,0.6,2.2,1c0.6,0.5,1,1.1,1.3,1.8c0.2,0.7,0.4,1.6,0.4,2.7v0.2
				c0,2-0.7,3.4-2.1,4.3s-3.5,1.3-6.4,1.3c-2.4,0-4.4-0.4-5.7-1.1C297.1,514.3,296.3,513.1,296,511.5z"/>
			<path d="M333.9,502.8v-7.5c0-0.4,0.1-0.7,0.4-1c0.2-0.2,0.6-0.4,1-0.4h2.7c0.4,0,0.7,0.1,1,0.4c0.2,0.2,0.4,0.6,0.4,1v19.3
				c0,0.4-0.1,0.8-0.4,1c-0.2,0.2-0.6,0.3-1,0.3h-2.7c-0.4,0-0.8-0.1-1-0.3c-0.2-0.2-0.4-0.6-0.4-1v-5c0,2.2-0.4,3.9-1.3,4.9
				c-0.9,1.1-2.3,1.6-4.3,1.6c-2.4,0-4.1-0.7-5.1-2c-1-1.4-1.5-3.5-1.5-6.6v-2.6c0-2.9,0.5-5.1,1.6-6.5c1-1.4,2.8-2.1,5.1-2.1
				c2,0,3.4,0.5,4.3,1.6C333.4,499.1,333.9,500.7,333.9,502.8z M330.5,500.8c-0.8,0-1.5,0.1-2,0.4c-0.5,0.3-0.9,0.8-1.1,1.6
				c-0.3,0.8-0.4,1.8-0.4,3.1v0.6c0,1.4,0.1,2.4,0.4,3.2s0.6,1.3,1.1,1.6c0.5,0.3,1.1,0.4,2,0.4c0.5,0,1,0,1.3-0.1
				c0.4-0.1,0.7-0.2,1.1-0.5s0.6-0.6,0.8-1c0.2-0.4,0.3-1,0.3-1.6v-4.5c0-0.5-0.1-1-0.2-1.4c-0.1-0.4-0.3-0.7-0.5-0.9
				c-0.2-0.2-0.5-0.4-0.8-0.6c-0.3-0.1-0.6-0.2-0.9-0.3C331.2,500.8,330.9,500.8,330.5,500.8z"/>
			<path d="M358.7,511.4c-0.4,1.5-1.3,2.6-2.8,3.4c-1.5,0.8-3.4,1.2-5.8,1.2c-3,0-5.2-0.8-6.7-2.3c-1.4-1.5-2.2-3.8-2.2-6.8v-1.7
				c0-3,0.7-5.2,2.2-6.7c1.5-1.5,3.7-2.2,6.8-2.2c2.9,0,5.1,0.6,6.5,1.9c1.5,1.3,2.2,3.1,2.2,5.5v1.9c0,0.4-0.1,0.7-0.3,0.9
				c-0.2,0.2-0.5,0.3-0.9,0.3h-11.1c0,1.7,0.3,2.9,0.8,3.6c0.5,0.7,1.4,1,2.6,1c0.9,0,1.6-0.1,2.1-0.3c0.5-0.2,0.9-0.5,1.1-1
				c0-0.1,0.1-0.3,0.2-0.5c0.1-0.5,0.3-0.8,0.5-1c0.2-0.2,0.6-0.3,1-0.3h2.6c0.9,0,1.3,0.5,1.3,1.4
				C358.9,510.5,358.8,511,358.7,511.4z M350.2,500.8c-1.1,0-1.9,0.2-2.5,0.7s-0.9,1.3-1,2.5h6.8V504c0-1.2-0.3-2-0.8-2.5
				S351.4,500.8,350.2,500.8z"/>
			<path d="M384.3,512.1c-0.2,0.6-0.5,1.1-0.9,1.6c-0.4,0.5-0.8,0.9-1.4,1.3c-0.6,0.4-1.3,0.7-2.1,0.9c-0.8,0.2-1.7,0.3-2.7,0.3
				c-3.3,0-5.6-0.8-7.1-2.4c-1.5-1.6-2.2-4.1-2.2-7.6v-2.9c0-3.1,0.8-5.4,2.4-7c1.6-1.6,4.1-2.4,7.4-2.4c3,0,5.3,0.6,6.9,1.7
				c1.6,1.1,2.5,2.7,2.8,4.8c0,0.1,0.1,0.4,0.1,0.9c0,0.4-0.1,0.7-0.3,0.9c-0.2,0.2-0.5,0.3-0.9,0.3h-2.9c-0.5,0-0.8-0.1-1-0.2
				c-0.2-0.1-0.3-0.4-0.4-0.8c-0.1-0.3-0.1-0.5-0.2-0.6c-0.3-0.7-0.7-1.2-1.4-1.6s-1.6-0.5-2.8-0.5c-1,0-1.9,0.2-2.5,0.4
				c-0.6,0.3-1.1,0.8-1.4,1.6s-0.5,1.8-0.5,3.1v2.4c0,1.8,0.3,3.1,1,3.9c0.7,0.8,1.8,1.1,3.4,1.1c0.5,0,1,0,1.4-0.1
				c0.4-0.1,0.8-0.2,1.2-0.3c0.4-0.1,0.7-0.3,0.9-0.6c0.2-0.3,0.4-0.6,0.6-1s0.2-0.9,0.2-1.5v-0.2h-3.1c-0.4,0-0.7-0.1-0.9-0.3
				c-0.2-0.2-0.3-0.5-0.3-0.9v-1c0-0.4,0.1-0.8,0.4-1c0.2-0.2,0.6-0.4,1-0.4h7.1c0.4,0,0.8,0.1,1,0.4c0.2,0.2,0.4,0.6,0.4,1v9.6
				c0,0.7-0.3,1-1,1h-0.2c-0.4,0-0.6-0.1-0.8-0.2c-0.2-0.1-0.3-0.3-0.4-0.7L384.3,512.1z"/>
			<path d="M400.8,511.6c0,1.4-0.5,2.5-1.4,3.3c-0.9,0.8-2.4,1.2-4.4,1.2c-1.9,0-3.4-0.4-4.4-1.3c-1-0.9-1.5-2.1-1.5-3.8v-0.3
				c0-0.8,0.1-1.5,0.3-2.1c0.2-0.6,0.5-1.1,0.8-1.5c0.3-0.4,0.8-0.8,1.3-1.1c0.5-0.3,1.1-0.5,1.6-0.7s1.2-0.3,1.9-0.4
				c0.7-0.1,1.4-0.2,1.9-0.3s1.2-0.1,2-0.2c0.7-0.1,1.3-0.2,1.8-0.3v-0.5c0-1-0.2-1.7-0.7-2.1c-0.4-0.4-1.2-0.5-2.3-0.5
				c-0.7,0-1.2,0.1-1.6,0.2c-0.4,0.2-0.6,0.4-0.7,0.7c-0.1,0.1-0.2,0.3-0.3,0.5c-0.1,0.6-0.5,0.9-1.3,0.9h-2.8
				c-0.9,0-1.3-0.4-1.3-1.3c0-0.3,0-0.6,0.1-0.7c0.2-1.5,0.9-2.7,2.3-3.6c1.3-0.8,3.2-1.3,5.5-1.3c3,0,5.2,0.6,6.5,1.7
				c1.3,1.1,2,2.9,2,5.4v11.1c0,0.4-0.1,0.8-0.4,1c-0.2,0.2-0.6,0.4-1,0.4h-2.7c-0.4,0-0.8-0.1-1-0.4c-0.2-0.2-0.4-0.6-0.4-1V511.6z
				 M397,512.7c0.6,0,1.1,0,1.5-0.1c0.4-0.1,0.8-0.1,1.2-0.3c0.4-0.1,0.6-0.3,0.8-0.6c0.2-0.3,0.3-0.6,0.3-1v-3.5
				c-0.1,0-0.4,0.1-0.7,0.1c-0.8,0.1-1.4,0.2-1.8,0.3c-0.4,0.1-0.8,0.2-1.4,0.3s-0.9,0.2-1.1,0.4c-0.2,0.1-0.5,0.3-0.7,0.5
				c-0.3,0.2-0.4,0.4-0.5,0.7c-0.1,0.2-0.1,0.5-0.1,0.9v0.2C394.5,512.1,395.4,512.7,397,512.7z"/>
			<path d="M412.3,516h-2.7c-0.4,0-0.7-0.1-1-0.4c-0.2-0.2-0.4-0.6-0.4-1v-19.3c0-0.4,0.1-0.7,0.4-1c0.2-0.2,0.6-0.4,1-0.4h2.7
				c0.4,0,0.7,0.1,1,0.4c0.2,0.2,0.4,0.6,0.4,1v19.3c0,0.4-0.1,0.7-0.4,1C413.1,515.8,412.7,516,412.3,516z"/>
			<path d="M419.8,516h-2.7c-0.4,0-0.7-0.1-1-0.4c-0.2-0.2-0.4-0.6-0.4-1v-19.3c0-0.4,0.1-0.7,0.4-1c0.2-0.2,0.6-0.4,1-0.4h2.7
				c0.4,0,0.7,0.1,1,0.4c0.2,0.2,0.4,0.6,0.4,1v19.3c0,0.4-0.1,0.7-0.4,1C420.5,515.8,420.2,516,419.8,516z"/>
			<path d="M440.6,511.4c-0.4,1.5-1.3,2.6-2.8,3.4c-1.5,0.8-3.4,1.2-5.8,1.2c-3,0-5.2-0.8-6.7-2.3c-1.4-1.5-2.2-3.8-2.2-6.8v-1.7
				c0-3,0.7-5.2,2.2-6.7c1.5-1.5,3.7-2.2,6.8-2.2c2.9,0,5.1,0.6,6.5,1.9c1.5,1.3,2.2,3.1,2.2,5.5v1.9c0,0.4-0.1,0.7-0.3,0.9
				c-0.2,0.2-0.5,0.3-0.9,0.3h-11.1c0,1.7,0.3,2.9,0.8,3.6c0.5,0.7,1.4,1,2.6,1c0.9,0,1.6-0.1,2.1-0.3c0.5-0.2,0.9-0.5,1.1-1
				c0-0.1,0.1-0.3,0.2-0.5c0.1-0.5,0.3-0.8,0.5-1c0.2-0.2,0.6-0.3,1-0.3h2.6c0.9,0,1.3,0.5,1.3,1.4
				C440.7,510.5,440.7,511,440.6,511.4z M432.1,500.8c-1.1,0-1.9,0.2-2.5,0.7s-0.9,1.3-1,2.5h6.8V504c0-1.2-0.3-2-0.8-2.5
				S433.2,500.8,432.1,500.8z"/>
			<path d="M442.6,511.5c-0.1-0.2-0.1-0.6-0.1-1.1c0-0.4,0.1-0.7,0.3-0.9s0.6-0.3,1.1-0.3h2.3c0.4,0,0.7,0.1,0.9,0.2
				c0.2,0.1,0.3,0.3,0.4,0.6c0.2,0.5,0.3,0.8,0.3,0.9c0.3,0.5,0.6,0.8,1.1,1c0.5,0.2,1.1,0.3,2,0.3c1,0,1.8-0.1,2.4-0.4
				c0.5-0.3,0.8-0.7,0.8-1.3v-0.1c0-0.5-0.1-0.9-0.3-1.2c-0.2-0.3-0.6-0.5-1.2-0.6c-0.6-0.2-1.6-0.3-2.9-0.5c-0.8-0.1-1.4-0.2-2-0.2
				c-0.6-0.1-1.1-0.2-1.6-0.3c-0.5-0.1-1-0.3-1.4-0.5c-0.4-0.2-0.7-0.4-1-0.7c-0.3-0.3-0.6-0.6-0.7-1c-0.2-0.4-0.3-0.8-0.4-1.3
				c-0.1-0.5-0.1-1-0.1-1.6v-0.1c0-2,0.7-3.5,2.1-4.5c1.4-1,3.5-1.5,6.4-1.5c2.2,0,4,0.3,5.4,1c1.4,0.7,2.3,1.7,2.7,3
				c0.2,0.6,0.2,1.1,0.3,1.5c0,0.4-0.1,0.7-0.3,0.9s-0.5,0.4-0.9,0.4h-2.5c-0.4,0-0.7-0.1-0.9-0.2c-0.2-0.1-0.4-0.3-0.5-0.7
				l-0.4-0.8c-0.5-0.8-1.5-1.2-3-1.2c-1.1,0-2,0.2-2.5,0.5c-0.5,0.3-0.8,0.8-0.8,1.4v0.1c0,0.4,0.1,0.8,0.3,1s0.6,0.4,1.3,0.6
				c0.6,0.1,1.6,0.3,2.9,0.4c1.4,0.1,2.5,0.3,3.4,0.5c0.9,0.2,1.6,0.6,2.2,1c0.6,0.5,1,1.1,1.3,1.8c0.2,0.7,0.4,1.6,0.4,2.7v0.2
				c0,2-0.7,3.4-2.1,4.3s-3.5,1.3-6.4,1.3c-2.4,0-4.4-0.4-5.7-1.1C443.8,514.3,442.9,513.1,442.6,511.5z"/>
		</g>
	</g>
	<g>
		<g class="st0">
			<path d="M496.3,500.3c3,0.2,5.1,0.7,6.3,1.7c1.2,1,1.9,2.6,1.9,4.8v0.2c0,2.2-0.8,3.9-2.4,5c-1.6,1.1-3.9,1.7-7.1,1.7
				c-3,0-5.3-0.5-6.8-1.6c-1.5-1-2.4-2.6-2.5-4.7c0,0,0-0.1,0-0.3c0-0.1,0-0.2,0-0.3c0-0.4,0.1-0.6,0.3-0.8c0.2-0.2,0.5-0.3,0.9-0.3
				h2.9c0.4,0,0.8,0.1,0.9,0.2s0.3,0.4,0.4,0.8c0,0.1,0.1,0.3,0.1,0.5c0.2,0.7,0.7,1.2,1.3,1.5c0.6,0.3,1.5,0.5,2.6,0.5
				c1.3,0,2.3-0.2,3-0.5c0.6-0.3,1-0.8,1-1.6V507c0-0.3,0-0.6-0.1-0.8c-0.1-0.2-0.2-0.4-0.4-0.6c-0.2-0.2-0.5-0.3-0.9-0.4
				c-0.4-0.1-0.9-0.2-1.5-0.3c-0.6-0.1-1.3-0.2-2.2-0.3c-1.5-0.1-2.8-0.3-3.8-0.6c-1-0.3-1.9-0.6-2.5-1.1c-0.7-0.5-1.2-1.1-1.5-1.8
				c-0.3-0.7-0.4-1.7-0.4-2.8V498c0-2.2,0.8-3.9,2.3-5s3.9-1.7,7.1-1.7c2.9,0,5.1,0.5,6.7,1.6c1.6,1,2.4,2.5,2.7,4.4
				c0.1,0.2,0.1,0.4,0.1,0.6c0,0.4-0.1,0.6-0.3,0.8c-0.2,0.2-0.5,0.3-0.9,0.3h-2.9c-0.5,0-0.8-0.1-1-0.2c-0.2-0.1-0.3-0.4-0.4-0.8
				c-0.1-0.3-0.1-0.5-0.2-0.6c-0.6-1.1-1.8-1.6-3.9-1.6c-2.6,0-3.9,0.7-3.9,2v0.1c0,0.5,0.1,0.9,0.4,1.2c0.2,0.3,0.8,0.5,1.5,0.7
				S494.8,500.2,496.3,500.3z"/>
			<path d="M510.5,513.5h-2.7c-0.4,0-0.7-0.1-1-0.4c-0.2-0.2-0.4-0.6-0.4-1v-19.3c0-0.4,0.1-0.7,0.4-1c0.2-0.2,0.6-0.4,1-0.4h2.7
				c0.4,0,0.7,0.1,1,0.4c0.2,0.2,0.4,0.6,0.4,1v19.3c0,0.4-0.1,0.7-0.4,1C511.2,513.4,510.9,513.5,510.5,513.5z"/>
			<path d="M531.5,502.9v1.7c0,2.9-0.8,5.2-2.3,6.7c-1.5,1.5-3.7,2.3-6.6,2.3c-3,0-5.2-0.8-6.7-2.3c-1.4-1.5-2.2-3.8-2.2-6.8v-1.7
				c0-3,0.7-5.2,2.2-6.7c1.4-1.5,3.7-2.3,6.7-2.3c3,0,5.2,0.8,6.7,2.3C530.7,497.7,531.5,499.9,531.5,502.9z M526.1,504.3v-1.2
				c0-1.1-0.1-2-0.4-2.7c-0.3-0.6-0.6-1.1-1.1-1.4c-0.5-0.3-1.2-0.4-2-0.4c-1.2,0-2.1,0.3-2.6,1c-0.5,0.6-0.8,1.8-0.8,3.5v1.2
				c0,1.7,0.3,2.8,0.8,3.5s1.4,0.9,2.6,0.9c0.8,0,1.5-0.1,2-0.4c0.5-0.2,0.9-0.7,1.1-1.3C525.9,506.4,526.1,505.5,526.1,504.3z"/>
			<path d="M543.5,513.5h-5.6c-0.4,0-0.6-0.1-0.9-0.3c-0.2-0.2-0.4-0.5-0.5-0.8l-4.5-17c-0.1-0.4,0-0.7,0.2-1s0.5-0.4,1-0.4h2.8
				c0.4,0,0.7,0.1,0.9,0.3s0.4,0.5,0.5,0.8l3.3,14.9l3.3-14.9c0.1-0.4,0.2-0.6,0.5-0.8c0.2-0.2,0.5-0.3,0.9-0.3h2.9
				c0.4,0,0.7,0.1,0.9,0.4c0.2,0.3,0.2,0.6,0.2,1l-4.5,16.9c-0.1,0.3-0.2,0.6-0.5,0.8C544.2,513.4,543.9,513.5,543.5,513.5z"/>
			<path d="M561.5,509.1c0,1.4-0.5,2.5-1.4,3.3c-0.9,0.8-2.4,1.2-4.4,1.2c-1.9,0-3.4-0.4-4.4-1.3c-1-0.9-1.5-2.1-1.5-3.8v-0.3
				c0-0.8,0.1-1.5,0.3-2.1c0.2-0.6,0.5-1.1,0.8-1.5c0.3-0.4,0.8-0.8,1.3-1.1c0.5-0.3,1.1-0.5,1.6-0.7s1.2-0.3,1.9-0.4
				c0.7-0.1,1.4-0.2,1.9-0.3s1.2-0.1,2-0.2c0.7-0.1,1.3-0.2,1.8-0.3v-0.5c0-1-0.2-1.7-0.7-2.1c-0.4-0.4-1.2-0.5-2.3-0.5
				c-0.7,0-1.2,0.1-1.6,0.2c-0.4,0.2-0.6,0.4-0.7,0.7c-0.1,0.1-0.2,0.3-0.3,0.5c-0.1,0.6-0.5,0.9-1.3,0.9h-2.8
				c-0.9,0-1.3-0.4-1.3-1.3c0-0.3,0-0.6,0.1-0.7c0.2-1.5,0.9-2.7,2.3-3.6c1.3-0.8,3.2-1.3,5.5-1.3c3,0,5.2,0.6,6.5,1.7
				c1.3,1.1,2,2.9,2,5.4v11.1c0,0.4-0.1,0.8-0.4,1c-0.2,0.2-0.6,0.4-1,0.4h-2.7c-0.4,0-0.8-0.1-1-0.4c-0.2-0.2-0.4-0.6-0.4-1V509.1z
				 M557.7,510.3c0.6,0,1.1,0,1.5-0.1c0.4-0.1,0.8-0.1,1.2-0.3c0.4-0.1,0.6-0.3,0.8-0.6c0.2-0.3,0.3-0.6,0.3-1v-3.5
				c-0.1,0-0.4,0.1-0.7,0.1c-0.8,0.1-1.4,0.2-1.8,0.3c-0.4,0.1-0.8,0.2-1.4,0.3s-0.9,0.2-1.1,0.4c-0.2,0.1-0.5,0.3-0.7,0.5
				c-0.3,0.2-0.4,0.4-0.5,0.7c-0.1,0.2-0.1,0.5-0.1,0.9v0.2C555.2,509.6,556,510.3,557.7,510.3z"/>
			<path d="M581.2,500.1v-2.8c0-0.8,0.4-1.2,1.1-1.4c1.3-0.4,2.4-0.9,3.1-1.6c0.1-0.2,0.3-0.3,0.6-0.3c0.4,0,0.6,0.2,0.6,0.5v19
				c0,0.4-0.1,0.8-0.4,1c-0.2,0.2-0.6,0.4-1,0.4h-2.7c-0.4,0-0.8-0.1-1-0.4c-0.2-0.2-0.4-0.6-0.4-1v-7.2c0,2.1-0.4,3.7-1.3,4.7
				c-0.9,1-2.3,1.5-4.3,1.5c-2.4,0-4.1-0.7-5.1-2c-1-1.3-1.6-3.4-1.6-6.3v-2c0-2.8,0.5-4.9,1.6-6.3c1-1.4,2.8-2,5.1-2
				c2,0,3.4,0.5,4.3,1.6C580.8,496.6,581.2,498.1,581.2,500.1z M574.3,503.1v0.1c0,1.3,0.1,2.3,0.4,3.1c0.3,0.7,0.6,1.3,1.1,1.5
				c0.5,0.3,1.1,0.4,2,0.4c0.5,0,1,0,1.3-0.1c0.4-0.1,0.7-0.2,1.1-0.5s0.6-0.5,0.8-1c0.2-0.4,0.3-1,0.3-1.6v-3.9
				c0-0.5-0.1-0.9-0.2-1.3c-0.1-0.4-0.3-0.7-0.5-0.9c-0.2-0.2-0.5-0.4-0.8-0.5c-0.3-0.1-0.6-0.2-0.9-0.3c-0.3,0-0.7-0.1-1.1-0.1
				c-0.8,0-1.5,0.1-2,0.4c-0.5,0.3-0.9,0.8-1.1,1.5C574.5,500.8,574.3,501.8,574.3,503.1z"/>
			<path d="M600.4,506c0,2.7-0.4,4.6-1.3,5.8c-0.9,1.2-2.3,1.8-4.3,1.8c-2.1,0-3.7-0.6-4.6-1.7c-1-1.2-1.5-3-1.5-5.7v-10.8
				c0-0.4,0.1-0.7,0.4-1c0.2-0.2,0.6-0.4,1-0.4h2.7c0.4,0,0.7,0.1,1,0.4s0.4,0.6,0.4,1v9.7c0,1.1,0.2,1.9,0.6,2.5
				c0.4,0.5,1.2,0.8,2.2,0.8c0.5,0,1-0.1,1.3-0.2c0.4-0.1,0.7-0.3,1.1-0.5s0.6-0.7,0.8-1.2c0.2-0.5,0.3-1.2,0.3-1.9v-9.2
				c0-0.4,0.1-0.8,0.4-1c0.2-0.2,0.6-0.4,1-0.4h2.7c0.4,0,0.7,0.1,1,0.4c0.2,0.2,0.4,0.6,0.4,1v16.7c0,0.4-0.1,0.7-0.4,1
				c-0.2,0.2-0.6,0.4-1,0.4h-2.7c-0.4,0-0.7-0.1-1-0.4c-0.2-0.2-0.4-0.6-0.4-1V506z"/>
			<path d="M612.3,493.2h-3.4c-0.7,0-1-0.3-1-1v-0.1c0-0.7,0.3-1,1-1h3.4c0.7,0,1,0.3,1,1v0.1C613.3,492.9,612.9,493.2,612.3,493.2z
				 M611.9,513.5h-2.7c-0.4,0-0.7-0.1-1-0.4c-0.2-0.2-0.4-0.6-0.4-1v-16.7c0-0.4,0.1-0.7,0.4-1c0.2-0.2,0.6-0.4,1-0.4h2.7
				c0.4,0,0.7,0.1,1,0.4s0.4,0.6,0.4,1v16.7c0,0.4-0.1,0.7-0.4,1C612.6,513.4,612.3,513.5,611.9,513.5z"/>
			<path d="M632.7,509c-0.4,1.5-1.3,2.6-2.8,3.4c-1.5,0.8-3.4,1.2-5.8,1.2c-3,0-5.2-0.8-6.7-2.3c-1.4-1.5-2.2-3.8-2.2-6.8v-1.7
				c0-3,0.7-5.2,2.2-6.7c1.5-1.5,3.7-2.2,6.8-2.2c2.9,0,5.1,0.6,6.5,1.9c1.5,1.3,2.2,3.1,2.2,5.5v1.9c0,0.4-0.1,0.7-0.3,0.9
				c-0.2,0.2-0.5,0.3-0.9,0.3h-11.1c0,1.7,0.3,2.9,0.8,3.6c0.5,0.7,1.4,1,2.6,1c0.9,0,1.6-0.1,2.1-0.3c0.5-0.2,0.9-0.5,1.1-1
				c0-0.1,0.1-0.3,0.2-0.5c0.1-0.5,0.3-0.8,0.5-1c0.2-0.2,0.6-0.3,1-0.3h2.6c0.9,0,1.3,0.5,1.3,1.4C632.8,508,632.8,508.5,632.7,509
				z M624.2,498.4c-1.1,0-1.9,0.2-2.5,0.7s-0.9,1.3-1,2.5h6.8v-0.1c0-1.2-0.3-2-0.8-2.5S625.3,498.4,624.2,498.4z"/>
		</g>
	</g>
	<g class="st0">
		<path d="M256.2,304.5h-12.5c-1.4,0-2.1-0.7-2.1-2.1v-32.7c0-1.4,0.7-2.1,2.1-2.1h12.7c7.5,0,11.3,2.7,11.3,8v2.1
			c0,2-0.6,3.5-1.9,4.7c-1.3,1.2-3.3,1.8-6,1.9c3.5,0.1,6.1,0.8,7.8,2.2s2.5,3.4,2.5,5.8v2.4C270,301.3,265.4,304.5,256.2,304.5z
			 M255.8,273.7h-7v8.5h7c1.7,0,2.9-0.3,3.6-0.8c0.7-0.6,1.1-1.6,1.1-3.1v-0.9c0-1.4-0.4-2.4-1.1-2.9
			C258.6,274,257.4,273.7,255.8,273.7z M256.1,288h-7.3v10.5h7.3c2.4,0,4.1-0.4,5.1-1.1s1.6-2.1,1.6-4v-0.8c0-1.7-0.5-2.9-1.6-3.5
			C260.2,288.3,258.4,288,256.1,288z"/>
	</g>
	<g id="Russie_1_">
		<path d="M200.3,427c-4.3-3.2-8.5-6.4-13.1-10c-2.6,4-1.9,8.2-1.4,12.1c1.7,11.7-0.3,22.9-3.3,34c-0.7,2.6-3.8,4.8-6.3,6.6
			c-10.7,7.9-22.9,7.2-35.1,5c-6.6-1.2-13-3.5-19.6-5.2c-5.8-1.4-11.7-2.3-17.3-4.1c-4.3-1.3-8.4-3.5-12.5-5.5
			c-3.4-1.6-3.2-4.9-2.6-7.8c1.4-6.8,3.2-13.5,4.6-20.4c1.6-8.1,3-16.3,4.6-25.1c-6.2,1.4-11.5,2.5-17.2,3.8
			c-1.6-3.1-3.2-6.1-4.6-9.1c-4.4-9.1-8.7-18.3-13.2-27.5c-2.6-5.3-1.3-9.7,4.5-12c8.9-3.7,18.1-6.8,27-10.4c5-2,9.8-4.4,14.7-6.6
			c1.3-0.6,2.6-1,3.7-1.7c2.4-1.7,4-0.8,5.5,1.2c1.4,1.7,2.8,3.4,4.2,5c7.8,8.5,18,11.1,29,11.4c6.4,0.2,12.8,0.2,19.1-0.1
			c2.5-0.1,5.1-0.9,7.3-2.1c3.3-1.8,6.2-4.1,9.6-6.5c5.5,4.5,10.6,8.6,15.6,12.8c8.2,6.9,16.3,13.9,24.5,20.8
			c0.7,0.6,1.8,0.7,2.7,1.1c5.6,2.2,7.1,8.9,3,13.3C224.4,410.5,213.5,419.3,200.3,427z M226.1,394.1c-3.4-3-5.9-5.2-8.5-7.4
			c-6.6-5.7-13.1-11.6-20-17.1c-5.1-4.1-10.4-6.2-17.5-3.3c-11.8,4.9-24.4,6.1-36.9,3.1c-9-2.1-18.5-3.4-25.6-10.5
			c-2.2-2.2-4.5-5.4-7.1-5.8c-2.7-0.4-5.9,1.9-8.9,3c-9.1,3.4-18.3,6.7-27.4,10.2c-2.3,0.9-4.5,2.3-6.8,3.6c1,2.4,1.6,4.3,2.4,6.1
			c2.7,5.9,5.6,11.9,8.4,17.8c0.8,1.6,1.3,3.5,2.5,4.7c0.9,0.9,2.8,1.8,3.9,1.5c5.2-1.6,10.3-3.6,15.4-5.6c1.9-0.7,3.7-1.4,5.4,0.6
			c1.5,1.8,1.9,3.7,1.2,6.1c-2,6.8-3.8,13.7-5.5,20.7c-1.2,4.8-1.9,9.7-2.9,14.6c-1.1,5.6-2.3,11.2-3.5,17c3,1.1,5.3,2.3,7.8,2.8
			c17.6,3.3,34.9,7.8,52.9,9c3.5,0.2,7.9,0.8,10.5-0.9c5.5-3.6,10.1-8.9,11.3-15.7c1.3-7.4,1.7-15,1.8-22.6c0.1-6.5-0.7-13-1.2-19.4
			c-0.2-2.7,1.5-3.4,3.6-4.1c5.8,4.7,8.6,12.6,16,15.5c4.8-3.6,9.6-7.1,14.2-10.9C216.4,403.1,220.8,398.8,226.1,394.1z"/>
		<path class="st1" d="M226.1,394.1c-3.4-3-5.9-5.2-8.5-7.4c-6.6-5.7-13.1-11.6-20-17.1c-5.1-4.1-10.4-6.2-17.5-3.3
			c-11.8,4.9-24.4,6.1-36.9,3.1c-9-2.1-18.5-3.4-25.6-10.5c-2.2-2.2-4.5-5.4-7.1-5.8c-2.7-0.4-5.9,1.9-8.9,3
			c-9.1,3.4-18.3,6.7-27.4,10.2c-2.3,0.9-4.5,2.3-6.8,3.6c1,2.4,1.6,4.3,2.4,6.1c2.7,5.9,5.6,11.9,8.4,17.8c0.8,1.6,1.3,3.5,2.5,4.7
			c0.9,0.9,2.8,1.8,3.9,1.5c5.2-1.6,10.3-3.6,15.4-5.6c1.9-0.7,3.7-1.4,5.4,0.6c1.5,1.8,1.9,3.7,1.2,6.1c-2,6.8-3.8,13.7-5.5,20.7
			c-1.2,4.8-1.9,9.7-2.9,14.6c-1.1,5.6-2.3,11.2-3.5,17c3,1.1,5.3,2.3,7.8,2.8c17.6,3.3,34.9,7.8,52.9,9c3.5,0.2,7.9,0.8,10.5-0.9
			c5.5-3.6,10.1-8.9,11.3-15.7c1.3-7.4,1.7-15,1.8-22.6c0.1-6.5-0.7-13-1.2-19.4c-0.2-2.7,1.5-3.4,3.6-4.1c5.8,4.7,8.6,12.6,16,15.5
			c4.8-3.6,9.6-7.1,14.2-10.9C216.4,403.1,220.8,398.8,226.1,394.1z"/>
	</g>
	<g id="Pays_de_Galles_1_">
		<path d="M450,400.1c-2.6,11.4-11.5,16.6-19.2,22.7c-2.5,2-5.3,3.6-7.9,5.4c-3.5,2.4-5.2,2.1-8.7-0.8c-5.5-4.5-11.2-8.7-17.4-13.5
			c-0.5,5-1.4,9.4-1.4,13.8c0,7.6,0.8,15.1,0.9,22.7c0,3.7-0.8,7.5-1.3,11.2c-0.1,0.8-0.4,1.5-0.5,2.3c-1,8.1-1,8-8.6,9.3
			c-2.9,0.5-5.8,1.6-8.7,1.9c-7.5,0.9-15,2.2-22.5,2.2c-11.7,0.1-23.4-0.5-35.1-1.1c-3.7-0.2-7.5-1-11.2-1.7
			c-2.5-0.5-4.8-3.9-4.5-6.8c0.2-2.2,0.8-4.3,1.1-6.4c0.5-2.7,1.2-5.5,1.2-8.2c-0.1-9.6,1.3-19,3.4-28.4c1.3-5.8,1.9-11.7,2.9-18.3
			c-8.1,3.6-15.7,7-23.2,10.3c-2.6,1.1-5.2,2.1-7.7,3.2c-2.7,1.1-4.7,0.3-6-2.2c-4.7-9-9.4-18.1-13.9-27.2c-0.9-1.7-1-3.8-1.3-5.8
			c-0.5-3.2,0.5-5.6,3.6-7.4c12.2-7.2,24.1-14.8,36.3-22c7.7-4.6,15.7-8.7,23.5-13.1c2.8-1.6,4.9-1.8,8.1,0.3
			c13.4,9.1,28.5,13.3,44.7,12.5c5.7-0.3,11.6-1.6,16.8-3.8c5.1-2.2,9.8,0,14.6-0.7c0.8-0.1,1.8,1.3,2.7,2.1
			c2.8,2.5,5.6,4.9,8.3,7.6c3.4,3.4,6.8,6.7,9.8,10.4c5.8,7.1,11.5,14.3,17,21.6C447.5,394.6,448.6,397.5,450,400.1z M402.4,356.4
			c-5.1,2.6-9.4,4.8-13.7,6.9c-1.8,0.8-3.7,1.7-5.6,2c-7.9,0.9-15.9,1.8-23.8,0.1c-10.4-2.3-21.5-2.9-29.9-10.7
			c-4.6-4.3-8.4-4.4-14-0.9c-15,9.5-30.6,18-45.8,27c-2,1.2-3.6,2.9-5.9,4.9c5.1,9.7,10,18.9,15,28.2c11.4-8,22.8-15.3,36.7-18.6
			c2.4,1.2,3,4,2.7,6.8c-0.7,6.9-1.2,13.9-2.7,20.7c-2.7,12.3-4.2,24.7-5,37.2c-0.1,1.9-0.3,3.9-0.5,6.6c7.1,0.6,13.7,1.3,20.4,1.7
			c8.7,0.5,17.5,1,26.2,0.8c6.5-0.1,13-1.2,19.5-2c5.2-0.6,7.9-3.7,8.5-9.1c0.4-4.3,1.1-8.7,1.6-13c1.5-12.3,1.9-24.7-0.6-37
			c-0.3-1.6-1.2-3.5-2.4-4.4c-2.9-2.2-2.4-4.5-1.3-8.1c12.1,9.1,23.6,17.9,35.3,26.7c8.4-6.1,17.7-10,23.4-19.3
			C427.8,387.5,415.2,372.2,402.4,356.4z"/>
		<path class="st2" d="M402.4,356.4c-5.1,2.6-9.4,4.8-13.7,6.9c-1.8,0.8-3.7,1.7-5.6,2c-7.9,0.9-15.9,1.8-23.8,0.1
			c-10.4-2.3-21.5-2.9-29.9-10.7c-4.6-4.3-8.4-4.4-14-0.9c-15,9.5-30.6,18-45.8,27c-2,1.2-3.6,2.9-5.9,4.9c5.1,9.7,10,18.9,15,28.2
			c11.4-8,22.8-15.3,36.7-18.6c2.4,1.2,3,4,2.7,6.8c-0.7,6.9-1.2,13.9-2.7,20.7c-2.7,12.3-4.2,24.7-5,37.2c-0.1,1.9-0.3,3.9-0.5,6.6
			c7.1,0.6,13.7,1.3,20.4,1.7c8.7,0.5,17.5,1,26.2,0.8c6.5-0.1,13-1.2,19.5-2c5.2-0.6,7.9-3.7,8.5-9.1c0.4-4.3,1.1-8.7,1.6-13
			c1.5-12.3,1.9-24.7-0.6-37c-0.3-1.6-1.2-3.5-2.4-4.4c-2.9-2.2-2.4-4.5-1.3-8.1c12.1,9.1,23.6,17.9,35.3,26.7
			c8.4-6.1,17.7-10,23.4-19.3C427.8,387.5,415.2,372.2,402.4,356.4z"/>
	</g>
	<g id="Angleterre_1_">
		<path d="M33.4,375c-1.6-1.4-3.7-2.4-5.6-3.4c-5.7-2.8-11.6-5.3-17.2-8.3c-8.6-4.6-17.2-9.1-24.4-15.9c-2.8-2.7-5.6-2.7-8.8-0.8
			c-2,1.2-4,2.7-6.2,3.6c-8.7,3.7-17.8,6-27.4,5.1c-11.1-1-21.6-3.6-30.3-11.1c-1.9-1.6-4-3.1-5.9-4.6c-0.9,0.3-1.6,0.3-2,0.6
			c-7.9,6-16.4,10.9-25.3,15.6c-8.3,4.3-16,9.6-24,14.5c-6.1,3.7-7.5,6.2-5.1,12.7c3.7,10.1,7.9,20,12,29.9c1.3,3.1,3.5,4,6.8,3.3
			c1.9-0.4,3.8-1.2,5.7-1.7c5-1.3,9.9-2.5,15.8-4c-0.7,9.1-1.3,17-1.8,24.8c-0.6,9.9-1.1,19.9-1.5,29.8c-0.2,4.4,2.5,7.3,6.2,8.6
			c9.7,3.3,19.8,4.4,29.9,4.9c5.7,0.3,11.4-0.1,17-0.6c7.5-0.7,15.1-1.5,22.4-2.9c3.8-0.7,7.1-3.4,10.9-4.4c10-2.6,9.7-7.3,8.5-13.6
			c-1.7-8.9-5.4-42.9-5.9-47.1c8,0.2,16.3,2.9,22.8,5.8c2.2,1,4.3,1.9,6.8,0.9c4.9-1.9,9.4-4.3,12.1-9.1c1.3-2.2,3-4.2,4.5-6.4
			c3.8-5.3,7.8-10.5,11.4-16C37.9,380.9,37.3,378.3,33.4,375z M-133,409.5c-2.8-6.7-6.9-16-8.8-22.2c-1.9-6.2-3.5-8,4.1-13
			c7.5-4.9,15.4-9.2,23.1-13.8c5.1-3,10.3-5.9,15.3-8.8c0.3,9-1.5,41.6-4,46.5C-105.7,403.3-124.6,409.2-133,409.5z M-40.3,465.8
			c-11.3,1.2-22.6,1.4-33.9,2.2c-10.7,0.8-20.9-2.2-31.1-4.1c-1.5-4.9,0.8-41.7,3.3-58.4c6.5-1.8,7.6-37.8,7.6-53.6
			c25.1,15.8,50.1,15.5,75.6,0.9c-4.7,16.5-8.1,32.1-9.8,48.3c0,0.3-0.1,0.4-0.1,0.4h0.1c-0.5,19.9,3.8,38.8,5.7,58.3
			C-27.9,463.6-34.2,465.2-40.3,465.8z M19.7,390c-3.9,5.3-8,10.4-11.7,15.8c-1.9,2.8-3.5,2.5-6.5,1.4c-6.1-2.2-21.8-5.5-25.9-6.5
			c0.1-7.8,6.7-35.1,10.2-46.5c12.2,10.3,26.8,16.9,41.5,25.1C24.8,383,22.3,386.5,19.7,390z"/>
		<path class="st3" d="M-133,409.5c-2.8-6.7-6.9-16-8.8-22.2c-1.9-6.2-3.5-8,4.1-13c7.5-4.9,15.4-9.2,23.1-13.8
			c5.1-3,10.3-5.9,15.3-8.8c0.3,9-1.5,41.6-4,46.5C-105.7,403.3-124.6,409.2-133,409.5z"/>
		<path class="st3" d="M19.7,390c-3.9,5.3-8,10.4-11.7,15.8c-1.9,2.8-3.5,2.5-6.5,1.4c-6.1-2.2-21.8-5.5-25.9-6.5
			c0.1-7.8,6.7-35.1,10.2-46.5c12.2,10.3,26.8,16.9,41.5,25.1C24.8,383,22.3,386.5,19.7,390z"/>
		<path class="st4" d="M-40.3,465.8c-11.3,1.2-22.6,1.4-33.9,2.2c-10.7,0.8-20.9-2.2-31.1-4.1c-1.5-4.9,0.8-41.7,3.3-58.4
			c6.5-1.8,7.6-37.8,7.6-53.6c25.1,15.8,50.1,15.5,75.6,0.9c-4.7,16.5-8.1,32.1-9.8,48.3c0,0.3-0.1,0.4-0.1,0.4h0.1
			c-0.5,19.9,3.8,38.8,5.7,58.3C-27.9,463.6-34.2,465.2-40.3,465.8z"/>
	</g>
	<g id="Slovaquie_1_">
		<path d="M647.3,396.5c-7.6-9-15.3-17.8-23-26.7c-5.7-6.6-11.6-13.1-17.3-19.8c-2.9-3.4-5.5-4.2-9.3-2c-6.4,3.7-13.4,5-20.6,5.4
			c-16.8,0.9-33-1.2-48-9.5c-3-1.7-5.6-1.5-8.2,0.9c-8.2,7.8-16.7,15.2-24.5,23.4c-7.6,8.1-14.5,16.9-21.6,25.5
			c-3.9,4.7-2.8,10.6,2,14.4c5,4,9.9,8.1,14.2,12.8c3.7,4.1,7.1,8,13.4,8.7c5-4.2,10.2-8.6,16.4-13.9c0,2.8,0.1,4.5,0,6.2
			c-0.5,5.3-1.3,10.6-1.7,16c-0.5,7.2-0.7,14.3-1.2,21.5c-0.5,6.7,2.8,11.6,9.4,13c5.6,1.2,11.3,2.4,17,2.7
			c14.4,0.6,28.7,0.7,43.1,0.7c2.8,0,5.9-1,8.5-2.2c7.1-3.4,9.8-9.5,9.6-17.1c-0.3-9-0.6-18-1-26.9c-0.1-2.6-0.5-5.1-0.7-7.7
			c-0.3-3.4-0.3-6.8,0-11c3.8,4.1,6.7,7.3,9.8,10.5c4.5,4.6,7.6,5,13.1,1.7c5.1-3.1,10.1-6.3,14.9-9.8c2.5-1.9,4.6-4.4,6.2-7.1
			C649.7,403,649.8,399.4,647.3,396.5z M501.5,418.3c-1.7,1.2-3.2,0.7-4.7-0.9c-5.6-6.2-11.4-12.3-17.2-18.6
			c11.3-17.5,26.3-31.4,40.4-45.1c2.7,10.4,4.3,34.7,3.1,46.9C517.5,408.6,509.1,413,501.5,418.3z M595.9,460.7c0,2.4-1,4.1-2.9,4.7
			c-3.6,1.1-7.2,2.2-10.9,2.4c-12.8,0.8-25.4-1.2-38.1-2.9c-4.5-0.6-9.1-0.9-13.6-1.6c-2.1-0.3-4.1-1.2-6.7-1.9c0-2.2-0.1-4.2,0-6.2
			c0.6-10.6,0.6-21.2,1.8-31.7c1.6-14.3,1.4-53.7-1.1-69.7c25.1,11,49.7,12.9,74.5,2.2c-4,9.6-8.2,32.4-6.5,40.8
			c0.1,0.3,0.1,0.6,0.2,0.9c3.4,14,4.1,28,4.1,42.1C596.7,446.8,596.1,453.8,595.9,460.7z M617.9,418c-6.9-8-13.9-16-21.1-24.3
			c-1.8-12.8,0.8-22,6.1-38.7c10.1,10.9,20.5,21.9,30.6,33.1c3.3,3.7,6.1,7.8,9.6,12.2C634.7,406.1,626.6,411.8,617.9,418z"/>
		<path class="st5" d="M501.5,418.3c-1.7,1.2-3.2,0.7-4.7-0.9c-5.6-6.2-11.4-12.3-17.2-18.6c11.3-17.5,26.3-31.4,40.4-45.1
			c2.7,10.4,4.3,34.7,3.1,46.9C517.5,408.6,509.1,413,501.5,418.3z"/>
		<path class="st5" d="M617.9,418c-6.9-8-13.9-16-21.1-24.3c-1.8-12.8,0.8-22,6.1-38.7c10.1,10.9,20.5,21.9,30.6,33.1
			c3.3,3.7,6.1,7.8,9.6,12.2C634.7,406.1,626.6,411.8,617.9,418z"/>
		<path class="st4" d="M595.9,460.7c0,2.4-1,4.1-2.9,4.7c-3.6,1.1-7.2,2.2-10.9,2.4c-12.8,0.8-25.4-1.2-38.1-2.9
			c-4.5-0.6-9.1-0.9-13.6-1.6c-2.1-0.3-4.1-1.2-6.7-1.9c0-2.2-0.1-4.2,0-6.2c0.6-10.6,0.6-21.2,1.8-31.7c1.6-14.3,1.4-53.7-1.1-69.7
			c25.1,11,49.7,12.9,74.5,2.2c-4,9.6-8.2,32.4-6.5,40.8c0.1,0.3,0.1,0.6,0.2,0.9c3.4,14,4.1,28,4.1,42.1
			C596.7,446.8,596.1,453.8,595.9,460.7z"/>
	</g>
</g>
</svg>
