<?xml version="1.0" encoding="utf-8"?>
<!-- Generator: Adobe Illustrator 19.1.0, SVG Export Plug-In . SVG Version: 6.00 Build 0)  -->
<svg version="1.1" id="Calque_1" xmlns="http://www.w3.org/2000/svg" xmlns:xlink="http://www.w3.org/1999/xlink" x="0px" y="0px"
	 viewBox="-190 264.8 897.9 273.2" style="enable-background:new -190 264.8 897.9 273.2;" xml:space="preserve">
<style type="text/css">
	.st0{enable-background:new    ;}
	.st1{fill:#0B6EB1;}
	.st2{fill:#DF111A;}
	.st3{fill:#008549;}
	.st4{fill:#F5F9F8;}
	.st5{fill:#F9CB00;}
</style>
<g>
	<path d="M706.5,316.2c-0.1,8.3-0.4,16.7-0.3,25c0.2,10.7,1.2,21.3,1.2,32c0,15.5,1.7,31.1-0.8,46.6c0,0.2,0,0.4,0,0.6
		c0,14,0.2,27.9-0.1,41.9c-0.2,11-1,22-1.4,33c-0.2,6.2,0,12.5-0.2,18.7c-0.2,7-0.7,14-1.1,20.7c-8.7,4.8-17.5,2.3-26,2.7
		c-11.9,0.5-23.7,0.8-35.6,0.8c-7.9,0-15.8-0.7-23.6-1c-9.6-0.3-19.1-0.5-28.7-0.6c-16.4-0.3-32.8-0.6-49.2-0.7
		c-12.5-0.1-25,0.4-37.5,0.4c-8.9,0-17.8-0.6-26.7-0.9c-1,0-2.1,0-3.1,0c-11.9-0.1-23.7,0.1-35.6-0.3c-12.9-0.4-179.6-1.6-192.5-2
		c-10.6-0.3-21.1-0.1-31.7,0c-19.6,0.1-39.2,0.2-58.7,0.6c-6.6,0.1-13.2,1.2-19.7,1.5c-6.2,0.2-12.4,0.1-18.6-0.1
		c-9.7-0.4-19.4-1.1-29.1-1.6c-3.1-0.1-6.2,0.3-9.3,0.2c-12.6-0.2-25.3-0.5-37.9-0.7c-2.5,0-4.9,0-7.4,0.1
		c-11.2,0.1-22.5,0.3-33.7,0.3c-15,0.1-30.1,0.8-45,0c-21.5-1.1-42.9,0.1-64.3,0.6c-15.8,0.3-31.6-0.4-47.4-0.7
		c-6.6-0.1-13.2-0.4-19.9-0.2c-3.2,0.1-4.6-0.8-4.8-4.1c-0.5-7.3-1.5-14.5-2.1-21.7c-1.3-16.4-2.8-32.8-3.8-49.2
		c-0.5-9.1-1.3-18.2-1.6-27.3c-0.3-10.4,0.4-20.7,0-31.1c-0.3-8.1,0.8-16.2,0.9-24.2c0.2-13.3,0-26.7,0.1-40c0-2.5,0.3-5,0.7-7.4
		c0.7-3.9,3-5.7,7.1-5.9c22.5-1,44.9-2.2,67.4-3.1c19.9-0.8,39.9-1.4,59.8-1.9c19.2-0.5,38.4-1.1,57.5-1.2
		c14.8-0.1,29.5,0.6,44.3,0.7c12.1,0.1,24.1-0.2,36.2-0.2c6.2,0,12.5,0.3,18.7,0.4c7.3,0.2,14.5,0.4,21.8,0.4
		c10.4,0.1,20.8,0.2,31.2-0.1c33.8-0.9,67.5-2.2,101.3-2.9c9.5-0.2,173,1.1,182.5,1.4c9.2,0.3,18.3,0.2,27.5,0.2
		c13.1,0,26.2,0,39.3-0.2c6.9-0.1,13.8-0.6,20.7-0.8c14.1-0.3,28.1-0.3,42.2-0.7c15.4-0.4,30.7-1.3,46.1-1.8
		c13.2-0.4,26.4-0.5,39.5-0.6c11.4-0.1,22.9,0.2,34.3,0.3c0.6,0,1.4,0.3,1.9,0.1C697.2,308.8,701.3,312.5,706.5,316.2z
		 M-181.4,328.7c-0.3,3.8-0.8,7-0.8,10.3c0,10.2,0.9,20.5,0.3,30.7c-0.7,12-2,24-1.4,36.1c0.1,2.1,0,4.2,0.1,6.3
		c0.3,11.5,0.4,23,1,34.4c0.8,14.1,2.3,28.2,3.2,42.3c0.3,5.4,0.8,26.1,1.4,31.1c0.1,1,0.4,1.9,0.8,3.3c10.8-0.4,21.3-0.9,31.9-1.3
		c0.6,0,1.2,0.3,1.8,0.3c13.1,0.1,26.2,0.3,39.4,0.4c8.3,0.1,16.7-0.5,25,0.2c18.2,1.6,36.3,0.4,54.4,0.2c20.7-0.2,41.3-1.4,62-1.9
		c17.1-0.4,34.2-0.3,51.2-0.5c12.5-0.1,25-0.3,37.5-0.5c0.4,0,0.8,0,1.3,0c17.1,0.2,34.1,0.5,51.2,0.6c10.2,0.1,20.4-0.2,30.6-0.2
		c4.8,0,9.6,0,14.4,0.2c14.3,0.4,182.6,0.9,196.9,1.2c5.2,0.1,10.4,0,15.6,0.1c13.3,0.4,26.6,1,39.9,1.4c7.5,0.2,15-0.2,22.5-0.1
		c10.8,0.1,21.6,0.5,32.4,0.7c6.9,0.1,13.7,0,20.6,0.3c12.4,0.6,24.9,2,37.3,1.9c16.9-0.1,33.6,1.2,50.5,1.7
		c16.2,0.5,32.5,0,48.7-0.1c1.8,0,3.6-0.4,5.6-0.6c0.4-14.4,1.1-28.3,1.2-42.2c0.1-14-0.4-27.9-0.6-41.9c0-0.4,0-0.8,0-1.3
		c-0.1-25.2-0.2-50.4-0.4-75.7c0-4.2-0.4-8.4-0.4-12.5c0-10.2,0.1-20.4,0.2-31.3c-9.2,0.3-17.7,0.5-26.2,0.8
		c-11.3,0.4-22.6,1.3-33.8,1.4c-19.4,0.1-38.7-0.3-58.1-0.3c-12.9,0-25.9,0.4-38.8,0.5c-0.8,0-1.7,0-2.5,0
		c-14.1-0.3-28.3-0.7-42.4-0.9c-8.3-0.1-16.7,0-25,0c-4.6,0-9.2-0.1-13.7-0.3c-9.1-0.5-257.8,1.4-271.2,1.8
		c-22.3,0.8-44.6,0.7-66.9,1c-11,0.1-22.1,0.5-33.1,0.3c-7-0.1-14.1-1.3-21.1-1.6c-8.5-0.4-17-0.8-25.5-0.7
		c-13.3,0.1-26.6,0.8-39.9,1.1c-5.2,0.1-10.4,0.1-15.6,0c-10.8-0.2-21.6-0.5-32.4-0.7c-6-0.1-12,0.2-18,0.3
		c-12.7,0.3-25.4,0.5-38.1,0.9c-17.3,0.6-34.5,1.4-51.7,2.1C-167.1,328.1-173.9,328.4-181.4,328.7z"/>
	<g>
		<g class="st0">
			<path d="M-109.8,511.7h-7.5c-0.4,0-0.7-0.1-1-0.4c-0.2-0.2-0.4-0.6-0.4-1v-19.3c0-0.4,0.1-0.7,0.4-1c0.2-0.2,0.6-0.4,1-0.4h7.7
				c2.5,0,4.3,0.4,5.5,1.2c1.1,0.8,1.7,2,1.7,3.6v1c0,1.2-0.4,2.1-1.1,2.9s-2,1.2-3.6,1.3c2.1,0.1,3.6,0.6,4.5,1.5
				c0.9,0.9,1.4,2,1.4,3.5v1.4c0,1.9-0.7,3.3-2,4.3C-104.7,511.2-106.8,511.7-109.8,511.7z M-110.2,493.7h-3v4.7h3
				c0.9,0,1.5-0.1,1.8-0.4c0.4-0.3,0.5-0.9,0.5-1.7v-0.6c0-0.8-0.2-1.3-0.5-1.6C-108.8,493.9-109.4,493.7-110.2,493.7z
				 M-109.9,502.1h-3.4v5.7h3.4c1.1,0,1.9-0.2,2.4-0.6s0.7-1.1,0.7-2.2v-0.4c0-1-0.2-1.6-0.7-2
				C-107.9,502.2-108.7,502.1-109.9,502.1z"/>
			<path d="M-82.2,507.2c-0.4,1.5-1.3,2.6-2.8,3.4c-1.5,0.8-3.4,1.2-5.8,1.2c-3,0-5.2-0.8-6.7-2.3c-1.4-1.5-2.2-3.8-2.2-6.8v-1.7
				c0-3,0.7-5.2,2.2-6.7c1.5-1.5,3.7-2.2,6.8-2.2c2.9,0,5.1,0.6,6.5,1.9c1.5,1.3,2.2,3.1,2.2,5.5v1.9c0,0.4-0.1,0.7-0.3,0.9
				c-0.2,0.2-0.5,0.3-0.9,0.3h-11.1c0,1.7,0.3,2.9,0.8,3.6c0.5,0.7,1.4,1,2.6,1c0.9,0,1.6-0.1,2.1-0.3c0.5-0.2,0.9-0.5,1.1-1
				c0-0.1,0.1-0.3,0.2-0.5c0.1-0.5,0.3-0.8,0.5-1c0.2-0.2,0.6-0.3,1-0.3h2.6c0.9,0,1.3,0.5,1.3,1.4C-82,506.2-82,506.7-82.2,507.2z
				 M-90.6,496.6c-1.1,0-1.9,0.2-2.5,0.7s-0.9,1.3-1,2.5h6.8v-0.1c0-1.2-0.3-2-0.8-2.5S-89.5,496.6-90.6,496.6z"/>
			<path d="M-75.9,511.7h-2.7c-0.4,0-0.7-0.1-1-0.4c-0.2-0.2-0.4-0.6-0.4-1v-19.3c0-0.4,0.1-0.7,0.4-1c0.2-0.2,0.6-0.4,1-0.4h2.7
				c0.4,0,0.7,0.1,1,0.4c0.2,0.2,0.4,0.6,0.4,1v19.3c0,0.4-0.1,0.7-0.4,1C-75.2,511.6-75.5,511.7-75.9,511.7z"/>
			<path d="M-60.2,498v-4.4c0-0.4,0.1-0.8,0.4-1c0.2-0.2,0.6-0.4,1-0.4h2.7c0.4,0,0.7,0.1,1,0.4c0.2,0.2,0.4,0.6,0.4,1v14.6
				c0,1.7-0.7,3-2.1,3.8c-1.4,0.8-3.6,1.2-6.7,1.2c-4.7,0-7.4-0.9-8.2-2.7c-0.1-0.4-0.2-0.7-0.2-1.1c0-0.7,0.4-1.1,1.2-1.1h2.5
				c0.4,0,0.7,0.1,0.8,0.2s0.4,0.3,0.6,0.7c0.1,0.2,0.2,0.4,0.4,0.6c0.2,0.3,0.6,0.4,1,0.5c0.5,0.1,1.1,0.1,1.9,0.1
				c1.2,0,2.1-0.2,2.6-0.5c0.5-0.3,0.8-1,0.8-1.9v-5.9c0,2-0.4,3.4-1.3,4.4s-2.3,1.5-4.3,1.5c-2.4,0-4.1-0.6-5.1-1.8
				c-1-1.2-1.6-3.1-1.6-5.8v-0.7c0-2.6,0.5-4.5,1.6-5.7c1-1.2,2.8-1.9,5.1-1.9c2,0,3.4,0.5,4.3,1.5C-60.6,494.6-60.2,496.1-60.2,498
				z M-67.1,499.9v0.3c0,1.5,0.3,2.5,0.8,3.1c0.5,0.6,1.4,0.9,2.7,0.9c2.3,0,3.4-0.9,3.4-2.8v-2.7c0-1.8-1.1-2.7-3.4-2.7
				c-1.2,0-2.1,0.3-2.6,0.9C-66.8,497.5-67.1,498.5-67.1,499.9z"/>
			<path d="M-48.3,491.4h-3.4c-0.7,0-1-0.3-1-1v-0.1c0-0.7,0.3-1,1-1h3.4c0.7,0,1,0.3,1,1v0.1C-47.3,491.1-47.7,491.4-48.3,491.4z
				 M-48.7,511.7h-2.7c-0.4,0-0.7-0.1-1-0.4c-0.2-0.2-0.4-0.6-0.4-1v-16.7c0-0.4,0.1-0.7,0.4-1c0.2-0.2,0.6-0.4,1-0.4h2.7
				c0.4,0,0.7,0.1,1,0.4s0.4,0.6,0.4,1v16.7c0,0.4-0.1,0.7-0.4,1C-47.9,511.6-48.3,511.7-48.7,511.7z"/>
			<path d="M-32.9,498.4v-2.8c0-0.8,0.4-1.2,1.1-1.4c1.3-0.4,2.4-0.9,3.1-1.6c0.1-0.2,0.3-0.3,0.6-0.3c0.4,0,0.6,0.2,0.6,0.5v19
				c0,0.4-0.1,0.8-0.4,1c-0.2,0.2-0.6,0.4-1,0.4h-2.7c-0.4,0-0.8-0.1-1-0.4c-0.2-0.2-0.4-0.6-0.4-1v-7.2c0,2.1-0.4,3.7-1.3,4.7
				c-0.9,1-2.3,1.5-4.3,1.5c-2.4,0-4.1-0.7-5.1-2c-1-1.3-1.6-3.4-1.6-6.3v-2c0-2.8,0.5-4.9,1.6-6.3c1-1.4,2.8-2,5.1-2
				c2,0,3.4,0.5,4.3,1.6S-32.9,496.3-32.9,498.4z M-39.9,501.4v0.1c0,1.3,0.1,2.3,0.4,3.1c0.3,0.7,0.6,1.3,1.1,1.5
				c0.5,0.3,1.1,0.4,2,0.4c0.5,0,1,0,1.3-0.1c0.4-0.1,0.7-0.2,1.1-0.5s0.6-0.5,0.8-1c0.2-0.4,0.3-1,0.3-1.6v-3.9
				c0-0.5-0.1-0.9-0.2-1.3c-0.1-0.4-0.3-0.7-0.5-0.9c-0.2-0.2-0.5-0.4-0.8-0.5c-0.3-0.1-0.6-0.2-0.9-0.3c-0.3,0-0.7-0.1-1.1-0.1
				c-0.8,0-1.5,0.1-2,0.4c-0.5,0.3-0.9,0.8-1.1,1.5C-39.7,499.1-39.9,500.1-39.9,501.4z"/>
			<path d="M-13.8,504.2c0,2.7-0.4,4.6-1.3,5.8c-0.9,1.2-2.3,1.8-4.3,1.8c-2.1,0-3.7-0.6-4.6-1.7c-1-1.2-1.5-3-1.5-5.7v-10.8
				c0-0.4,0.1-0.7,0.4-1c0.2-0.2,0.6-0.4,1-0.4h2.7c0.4,0,0.7,0.1,1,0.4s0.4,0.6,0.4,1v9.7c0,1.1,0.2,1.9,0.6,2.5
				c0.4,0.5,1.2,0.8,2.2,0.8c0.5,0,1-0.1,1.3-0.2c0.4-0.1,0.7-0.3,1.1-0.5s0.6-0.7,0.8-1.2c0.2-0.5,0.3-1.2,0.3-1.9v-9.2
				c0-0.4,0.1-0.8,0.4-1c0.2-0.2,0.6-0.4,1-0.4h2.7c0.4,0,0.7,0.1,1,0.4s0.4,0.6,0.4,1v16.7c0,0.4-0.1,0.7-0.4,1
				c-0.2,0.2-0.6,0.4-1,0.4h-2.7c-0.4,0-0.7-0.1-1-0.4c-0.2-0.2-0.4-0.6-0.4-1V504.2z"/>
			<path d="M11,507.2c-0.4,1.5-1.3,2.6-2.8,3.4c-1.5,0.8-3.4,1.2-5.8,1.2c-3,0-5.2-0.8-6.7-2.3c-1.4-1.5-2.2-3.8-2.2-6.8v-1.7
				c0-3,0.7-5.2,2.2-6.7c1.5-1.5,3.7-2.2,6.8-2.2c2.9,0,5.1,0.6,6.5,1.9c1.5,1.3,2.2,3.1,2.2,5.5v1.9c0,0.4-0.1,0.7-0.3,0.9
				c-0.2,0.2-0.5,0.3-0.9,0.3H-1.1c0,1.7,0.3,2.9,0.8,3.6c0.5,0.7,1.4,1,2.6,1c0.9,0,1.6-0.1,2.1-0.3c0.5-0.2,0.9-0.5,1.1-1
				c0-0.1,0.1-0.3,0.2-0.5c0.1-0.5,0.3-0.8,0.5-1c0.2-0.2,0.6-0.3,1-0.3h2.6c0.9,0,1.3,0.5,1.3,1.4C11.2,506.2,11.1,506.7,11,507.2z
				 M2.5,496.6c-1.1,0-1.9,0.2-2.5,0.7s-0.9,1.3-1,2.5h6.8v-0.1c0-1.2-0.3-2-0.8-2.5S3.7,496.6,2.5,496.6z"/>
		</g>
	</g>
	<g>
		<g class="st0">
			<path d="M119,511.7h-2.7c-0.4,0-0.7-0.1-1-0.4c-0.2-0.2-0.4-0.6-0.4-1v-19.3c0-0.4,0.1-0.7,0.4-1c0.2-0.2,0.6-0.4,1-0.4h2.7
				c0.4,0,0.7,0.1,1,0.4c0.2,0.2,0.4,0.6,0.4,1v19.3c0,0.4-0.1,0.7-0.4,1C119.8,511.6,119.5,511.7,119,511.7z"/>
			<path d="M129.9,510.3c0,0.4-0.1,0.8-0.4,1c-0.2,0.2-0.6,0.4-1,0.4h-2.7c-0.4,0-0.8-0.1-1-0.4c-0.2-0.2-0.4-0.6-0.4-1v-13.8h-1.4
				c-0.8,0-1.2-0.4-1.2-1.2v-1.9c0-0.8,0.4-1.2,1.2-1.2h1.4v-0.8c0-0.4,0.1-0.8,0.4-1c0.2-0.2,0.6-0.4,1-0.4h2.7
				c0.4,0,0.8,0.1,1,0.4c0.2,0.2,0.4,0.6,0.4,1v0.8h2.4c0.8,0,1.2,0.4,1.2,1.3v1.6c0,0.4-0.1,0.8-0.3,1s-0.5,0.4-0.9,0.4h-2.4V510.3
				z"/>
			<path d="M146,507.4c0,1.4-0.5,2.5-1.4,3.3c-0.9,0.8-2.4,1.2-4.4,1.2c-1.9,0-3.4-0.4-4.4-1.3c-1-0.9-1.5-2.1-1.5-3.8v-0.3
				c0-0.8,0.1-1.5,0.3-2.1c0.2-0.6,0.5-1.1,0.8-1.5c0.3-0.4,0.8-0.8,1.3-1.1c0.5-0.3,1.1-0.5,1.6-0.7s1.2-0.3,1.9-0.4
				c0.7-0.1,1.4-0.2,1.9-0.3s1.2-0.1,2-0.2c0.7-0.1,1.3-0.2,1.8-0.3v-0.5c0-1-0.2-1.7-0.7-2.1c-0.4-0.4-1.2-0.5-2.3-0.5
				c-0.7,0-1.2,0.1-1.6,0.2c-0.4,0.2-0.6,0.4-0.7,0.7c-0.1,0.1-0.2,0.3-0.3,0.5c-0.1,0.6-0.5,0.9-1.3,0.9h-2.8
				c-0.9,0-1.3-0.4-1.3-1.3c0-0.3,0-0.6,0.1-0.7c0.2-1.5,0.9-2.7,2.3-3.6c1.3-0.8,3.2-1.3,5.5-1.3c3,0,5.2,0.6,6.5,1.7
				c1.3,1.1,2,2.9,2,5.4v11.1c0,0.4-0.1,0.8-0.4,1c-0.2,0.2-0.6,0.4-1,0.4h-2.7c-0.4,0-0.8-0.1-1-0.4c-0.2-0.2-0.4-0.6-0.4-1V507.4z
				 M142.3,508.5c0.6,0,1.1,0,1.5-0.1s0.8-0.1,1.2-0.3c0.4-0.1,0.6-0.3,0.8-0.6c0.2-0.3,0.3-0.6,0.3-1v-3.5c-0.1,0-0.4,0.1-0.7,0.1
				c-0.8,0.1-1.4,0.2-1.8,0.3c-0.4,0.1-0.8,0.2-1.4,0.3s-0.9,0.2-1.1,0.4c-0.2,0.1-0.5,0.3-0.7,0.5c-0.3,0.2-0.4,0.4-0.5,0.7
				c-0.1,0.2-0.1,0.5-0.1,0.9v0.2C139.8,507.8,140.6,508.5,142.3,508.5z"/>
			<path d="M157.6,511.7h-2.7c-0.4,0-0.7-0.1-1-0.4c-0.2-0.2-0.4-0.6-0.4-1v-19.3c0-0.4,0.1-0.7,0.4-1c0.2-0.2,0.6-0.4,1-0.4h2.7
				c0.4,0,0.7,0.1,1,0.4c0.2,0.2,0.4,0.6,0.4,1v19.3c0,0.4-0.1,0.7-0.4,1C158.3,511.6,158,511.7,157.6,511.7z"/>
			<path d="M165.4,491.4H162c-0.7,0-1-0.3-1-1v-0.1c0-0.7,0.3-1,1-1h3.4c0.7,0,1,0.3,1,1v0.1C166.4,491.1,166.1,491.4,165.4,491.4z
				 M165,511.7h-2.7c-0.4,0-0.7-0.1-1-0.4c-0.2-0.2-0.4-0.6-0.4-1v-16.7c0-0.4,0.1-0.7,0.4-1c0.2-0.2,0.6-0.4,1-0.4h2.7
				c0.4,0,0.7,0.1,1,0.4s0.4,0.6,0.4,1v16.7c0,0.4-0.1,0.7-0.4,1C165.8,511.6,165.5,511.7,165,511.7z"/>
			<path d="M185.8,507.2c-0.4,1.5-1.3,2.6-2.8,3.4c-1.5,0.8-3.4,1.2-5.8,1.2c-3,0-5.2-0.8-6.7-2.3c-1.4-1.5-2.2-3.8-2.2-6.8v-1.7
				c0-3,0.7-5.2,2.2-6.7c1.5-1.5,3.7-2.2,6.8-2.2c2.9,0,5.1,0.6,6.5,1.9c1.5,1.3,2.2,3.1,2.2,5.5v1.9c0,0.4-0.1,0.7-0.3,0.9
				c-0.2,0.2-0.5,0.3-0.9,0.3h-11.1c0,1.7,0.3,2.9,0.8,3.6c0.5,0.7,1.4,1,2.6,1c0.9,0,1.6-0.1,2.1-0.3c0.5-0.2,0.9-0.5,1.1-1
				c0-0.1,0.1-0.3,0.2-0.5c0.1-0.5,0.3-0.8,0.5-1c0.2-0.2,0.6-0.3,1-0.3h2.6c0.9,0,1.3,0.5,1.3,1.4
				C186,506.2,185.9,506.7,185.8,507.2z M177.3,496.6c-1.1,0-1.9,0.2-2.5,0.7s-0.9,1.3-1,2.5h6.8v-0.1c0-1.2-0.3-2-0.8-2.5
				S178.5,496.6,177.3,496.6z"/>
		</g>
	</g>
	<g>
		<g class="st0">
			<path d="M306.5,511.7h-2.7c-0.4,0-0.7-0.1-1-0.4c-0.2-0.2-0.4-0.6-0.4-1v-19.3c0-0.4,0.1-0.7,0.4-1c0.2-0.2,0.6-0.4,1-0.4h2.7
				c0.4,0,0.7,0.1,1,0.4c0.2,0.2,0.4,0.6,0.4,1v19.3c0,0.4-0.1,0.7-0.4,1C307.3,511.6,306.9,511.7,306.5,511.7z"/>
			<path d="M315.4,493.6v6.1c0-2.6,0.4-4.6,1.3-5.8s2.2-1.8,4.2-1.8c0.4,0,0.7,0.1,0.8,0.3c0.2,0.2,0.3,0.6,0.3,1v3.2
				c0,1.1-0.6,1.6-1.7,1.5c-0.6-0.1-1.1-0.1-1.7,0c-0.6,0.1-1.1,0.2-1.6,0.4c-0.5,0.2-0.8,0.5-1.1,0.9c-0.3,0.4-0.4,0.9-0.4,1.6v9.2
				c0,0.4-0.1,0.8-0.4,1c-0.2,0.2-0.6,0.4-1,0.4h-2.7c-0.4,0-0.8-0.1-1-0.4c-0.2-0.2-0.4-0.6-0.4-1v-16.7c0-0.4,0.1-0.8,0.4-1
				c0.2-0.2,0.6-0.4,1-0.4h2.7c0.4,0,0.7,0.1,1,0.4S315.4,493.2,315.4,493.6z"/>
			<path d="M327.8,511.7h-2.7c-0.4,0-0.7-0.1-1-0.4c-0.2-0.2-0.4-0.6-0.4-1v-19.3c0-0.4,0.1-0.7,0.4-1c0.2-0.2,0.6-0.4,1-0.4h2.7
				c0.4,0,0.7,0.1,1,0.4c0.2,0.2,0.4,0.6,0.4,1v19.3c0,0.4-0.1,0.7-0.4,1C328.5,511.6,328.2,511.7,327.8,511.7z"/>
			<path d="M342.6,507.4c0,1.4-0.5,2.5-1.4,3.3c-0.9,0.8-2.4,1.2-4.4,1.2c-1.9,0-3.4-0.4-4.4-1.3c-1-0.9-1.5-2.1-1.5-3.8v-0.3
				c0-0.8,0.1-1.5,0.3-2.1c0.2-0.6,0.5-1.1,0.8-1.5c0.3-0.4,0.8-0.8,1.3-1.1c0.5-0.3,1.1-0.5,1.6-0.7s1.2-0.3,1.9-0.4
				c0.7-0.1,1.4-0.2,1.9-0.3s1.2-0.1,2-0.2c0.7-0.1,1.3-0.2,1.8-0.3v-0.5c0-1-0.2-1.7-0.7-2.1c-0.4-0.4-1.2-0.5-2.3-0.5
				c-0.7,0-1.2,0.1-1.6,0.2c-0.4,0.2-0.6,0.4-0.7,0.7c-0.1,0.1-0.2,0.3-0.3,0.5c-0.1,0.6-0.5,0.9-1.3,0.9h-2.8
				c-0.9,0-1.3-0.4-1.3-1.3c0-0.3,0-0.6,0.1-0.7c0.2-1.5,0.9-2.7,2.3-3.6c1.3-0.8,3.2-1.3,5.5-1.3c3,0,5.2,0.6,6.5,1.7
				c1.3,1.1,2,2.9,2,5.4v11.1c0,0.4-0.1,0.8-0.4,1c-0.2,0.2-0.6,0.4-1,0.4h-2.7c-0.4,0-0.8-0.1-1-0.4c-0.2-0.2-0.4-0.6-0.4-1V507.4z
				 M338.8,508.5c0.6,0,1.1,0,1.5-0.1c0.4-0.1,0.8-0.1,1.2-0.3c0.4-0.1,0.6-0.3,0.8-0.6c0.2-0.3,0.3-0.6,0.3-1v-3.5
				c-0.1,0-0.4,0.1-0.7,0.1c-0.8,0.1-1.4,0.2-1.8,0.3c-0.4,0.1-0.8,0.2-1.4,0.3s-0.9,0.2-1.1,0.4c-0.2,0.1-0.5,0.3-0.7,0.5
				c-0.3,0.2-0.4,0.4-0.5,0.7c-0.1,0.2-0.1,0.5-0.1,0.9v0.2C336.3,507.8,337.1,508.5,338.8,508.5z"/>
			<path d="M355.4,499.8c0-2.7,0.4-4.6,1.3-5.8c0.9-1.2,2.3-1.8,4.3-1.8c2.1,0,3.7,0.6,4.6,1.7s1.5,3,1.5,5.7v10.8
				c0,0.4-0.1,0.7-0.4,1c-0.2,0.2-0.6,0.4-1,0.4H363c-0.4,0-0.7-0.1-1-0.4c-0.2-0.2-0.4-0.6-0.4-1v-9.8c0-1.1-0.2-1.9-0.6-2.5
				c-0.4-0.5-1.2-0.8-2.2-0.8c-0.5,0-1,0-1.3,0.2c-0.4,0.1-0.7,0.3-1.1,0.5c-0.3,0.3-0.6,0.6-0.8,1.2c-0.2,0.5-0.3,1.2-0.3,1.9v9.2
				c0,0.4-0.1,0.7-0.4,1c-0.2,0.2-0.6,0.4-1,0.4h-2.7c-0.4,0-0.7-0.1-1-0.4c-0.2-0.2-0.4-0.6-0.4-1v-16.7c0-0.4,0.1-0.7,0.4-1
				c0.2-0.2,0.6-0.4,1-0.4h2.7c0.4,0,0.7,0.1,1,0.4s0.4,0.6,0.4,1V499.8z"/>
			<path d="M381.4,498.6v-7.5c0-0.4,0.1-0.7,0.4-1c0.2-0.2,0.6-0.4,1-0.4h2.7c0.4,0,0.7,0.1,1,0.4c0.2,0.2,0.4,0.6,0.4,1v19.3
				c0,0.4-0.1,0.8-0.4,1c-0.2,0.2-0.6,0.3-1,0.3h-2.7c-0.4,0-0.8-0.1-1-0.3c-0.2-0.2-0.4-0.6-0.4-1v-5c0,2.2-0.4,3.9-1.3,4.9
				c-0.9,1.1-2.3,1.6-4.3,1.6c-2.4,0-4.1-0.7-5.1-2c-1-1.4-1.5-3.5-1.5-6.6v-2.6c0-2.9,0.5-5.1,1.6-6.5c1-1.4,2.8-2.1,5.1-2.1
				c2,0,3.4,0.5,4.3,1.6C381,494.9,381.4,496.5,381.4,498.6z M378,496.5c-0.8,0-1.5,0.1-2,0.4c-0.5,0.3-0.9,0.8-1.1,1.6
				c-0.3,0.8-0.4,1.8-0.4,3.1v0.6c0,1.4,0.1,2.4,0.4,3.2s0.6,1.3,1.1,1.6c0.5,0.3,1.1,0.4,2,0.4c0.5,0,1,0,1.3-0.1
				c0.4-0.1,0.7-0.2,1.1-0.5s0.6-0.6,0.8-1c0.2-0.4,0.3-1,0.3-1.6v-4.5c0-0.5-0.1-1-0.2-1.4c-0.1-0.4-0.3-0.7-0.5-0.9
				c-0.2-0.2-0.5-0.4-0.8-0.6c-0.3-0.1-0.6-0.2-0.9-0.3C378.7,496.5,378.4,496.5,378,496.5z"/>
			<path d="M406.2,507.2c-0.4,1.5-1.3,2.6-2.8,3.4c-1.5,0.8-3.4,1.2-5.8,1.2c-3,0-5.2-0.8-6.7-2.3c-1.4-1.5-2.2-3.8-2.2-6.8v-1.7
				c0-3,0.7-5.2,2.2-6.7c1.5-1.5,3.7-2.2,6.8-2.2c2.9,0,5.1,0.6,6.5,1.9c1.5,1.3,2.2,3.1,2.2,5.5v1.9c0,0.4-0.1,0.7-0.3,0.9
				c-0.2,0.2-0.5,0.3-0.9,0.3h-11.1c0,1.7,0.3,2.9,0.8,3.6c0.5,0.7,1.4,1,2.6,1c0.9,0,1.6-0.1,2.1-0.3c0.5-0.2,0.9-0.5,1.1-1
				c0-0.1,0.1-0.3,0.2-0.5c0.1-0.5,0.3-0.8,0.5-1c0.2-0.2,0.6-0.3,1-0.3h2.6c0.9,0,1.3,0.5,1.3,1.4
				C406.4,506.2,406.3,506.7,406.2,507.2z M397.7,496.6c-1.1,0-1.9,0.2-2.5,0.7s-0.9,1.3-1,2.5h6.8v-0.1c0-1.2-0.3-2-0.8-2.5
				S398.9,496.6,397.7,496.6z"/>
		</g>
	</g>
	<g>
		<g class="st0">
			<path d="M510.4,498.5c3,0.2,5.1,0.7,6.3,1.7c1.2,1,1.9,2.6,1.9,4.8v0.2c0,2.2-0.8,3.9-2.4,5c-1.6,1.1-3.9,1.7-7.1,1.7
				c-3,0-5.3-0.5-6.8-1.6c-1.5-1-2.4-2.6-2.5-4.7c0,0,0-0.1,0-0.3c0-0.1,0-0.2,0-0.3c0-0.4,0.1-0.6,0.3-0.8c0.2-0.2,0.5-0.3,0.9-0.3
				h2.9c0.4,0,0.8,0.1,0.9,0.2s0.3,0.4,0.4,0.8c0,0.1,0.1,0.3,0.1,0.5c0.2,0.7,0.7,1.2,1.3,1.5c0.6,0.3,1.5,0.5,2.6,0.5
				c1.3,0,2.3-0.2,3-0.5c0.6-0.3,1-0.8,1-1.6v-0.1c0-0.3,0-0.6-0.1-0.8c-0.1-0.2-0.2-0.4-0.4-0.6c-0.2-0.2-0.5-0.3-0.9-0.4
				c-0.4-0.1-0.9-0.2-1.5-0.3c-0.6-0.1-1.3-0.2-2.2-0.3c-1.5-0.1-2.8-0.3-3.8-0.6c-1-0.3-1.9-0.6-2.5-1.1c-0.7-0.5-1.2-1.1-1.5-1.8
				c-0.3-0.7-0.4-1.7-0.4-2.8v-0.2c0-2.2,0.8-3.9,2.3-5s3.9-1.7,7.1-1.7c2.9,0,5.1,0.5,6.7,1.6c1.6,1,2.4,2.5,2.7,4.4
				c0.1,0.2,0.1,0.4,0.1,0.6c0,0.4-0.1,0.6-0.3,0.8c-0.2,0.2-0.5,0.3-0.9,0.3h-2.9c-0.5,0-0.8-0.1-1-0.2c-0.2-0.1-0.3-0.4-0.4-0.8
				c-0.1-0.3-0.1-0.5-0.2-0.6c-0.6-1.1-1.8-1.6-3.9-1.6c-2.6,0-3.9,0.7-3.9,2v0.1c0,0.5,0.1,0.9,0.4,1.2c0.2,0.3,0.8,0.5,1.5,0.7
				S508.9,498.4,510.4,498.5z"/>
			<path d="M532.1,504.2c0,2.7-0.4,4.6-1.3,5.8c-0.9,1.2-2.3,1.8-4.3,1.8c-2.1,0-3.7-0.6-4.6-1.7c-1-1.2-1.5-3-1.5-5.7v-10.8
				c0-0.4,0.1-0.7,0.4-1c0.2-0.2,0.6-0.4,1-0.4h2.7c0.4,0,0.7,0.1,1,0.4s0.4,0.6,0.4,1v9.7c0,1.1,0.2,1.9,0.6,2.5
				c0.4,0.5,1.2,0.8,2.2,0.8c0.5,0,1-0.1,1.3-0.2c0.4-0.1,0.7-0.3,1.1-0.5s0.6-0.7,0.8-1.2c0.2-0.5,0.3-1.2,0.3-1.9v-9.2
				c0-0.4,0.1-0.8,0.4-1c0.2-0.2,0.6-0.4,1-0.4h2.7c0.4,0,0.7,0.1,1,0.4c0.2,0.2,0.4,0.6,0.4,1v16.7c0,0.4-0.1,0.7-0.4,1
				c-0.2,0.2-0.6,0.4-1,0.4h-2.7c-0.4,0-0.7-0.1-1-0.4c-0.2-0.2-0.4-0.6-0.4-1V504.2z"/>
			<path d="M556.9,507.2c-0.4,1.5-1.3,2.6-2.8,3.4c-1.5,0.8-3.4,1.2-5.8,1.2c-3,0-5.2-0.8-6.7-2.3c-1.4-1.5-2.2-3.8-2.2-6.8v-1.7
				c0-3,0.7-5.2,2.2-6.7c1.5-1.5,3.7-2.2,6.8-2.2c2.9,0,5.1,0.6,6.5,1.9c1.5,1.3,2.2,3.1,2.2,5.5v1.9c0,0.4-0.1,0.7-0.3,0.9
				c-0.2,0.2-0.5,0.3-0.9,0.3h-11.1c0,1.7,0.3,2.9,0.8,3.6c0.5,0.7,1.4,1,2.6,1c0.9,0,1.6-0.1,2.1-0.3c0.5-0.2,0.9-0.5,1.1-1
				c0-0.1,0.1-0.3,0.2-0.5c0.1-0.5,0.3-0.8,0.5-1c0.2-0.2,0.6-0.3,1-0.3h2.6c0.9,0,1.3,0.5,1.3,1.4
				C557.1,506.2,557.1,506.7,556.9,507.2z M548.5,496.6c-1.1,0-1.9,0.2-2.5,0.7s-0.9,1.3-1,2.5h6.8v-0.1c0-1.2-0.3-2-0.8-2.5
				S549.6,496.6,548.5,496.6z M549.4,491.4h-1.8c-0.2,0-0.4,0-0.5,0c-0.1,0-0.2-0.1-0.4-0.2l-0.6-0.5c-0.2-0.2-0.3-0.4-0.2-0.6
				c0.1-0.2,0.3-0.3,0.6-0.3h2.3c0.3,0,0.5,0,0.6,0.1s0.3,0.2,0.4,0.5l0.1,0.2c0.1,0.3,0.1,0.5,0,0.6
				C549.8,491.3,549.7,491.4,549.4,491.4z"/>
			<path d="M571.4,498.6v-7.5c0-0.4,0.1-0.7,0.4-1c0.2-0.2,0.6-0.4,1-0.4h2.7c0.4,0,0.7,0.1,1,0.4c0.2,0.2,0.4,0.6,0.4,1v19.3
				c0,0.4-0.1,0.8-0.4,1c-0.2,0.2-0.6,0.3-1,0.3h-2.7c-0.4,0-0.8-0.1-1-0.3c-0.2-0.2-0.4-0.6-0.4-1v-5c0,2.2-0.4,3.9-1.3,4.9
				c-0.9,1.1-2.3,1.6-4.3,1.6c-2.4,0-4.1-0.7-5.1-2c-1-1.4-1.5-3.5-1.5-6.6v-2.6c0-2.9,0.5-5.1,1.6-6.5c1-1.4,2.8-2.1,5.1-2.1
				c2,0,3.4,0.5,4.3,1.6C571,494.9,571.4,496.5,571.4,498.6z M568,496.5c-0.8,0-1.5,0.1-2,0.4c-0.5,0.3-0.9,0.8-1.1,1.6
				c-0.3,0.8-0.4,1.8-0.4,3.1v0.6c0,1.4,0.1,2.4,0.4,3.2s0.6,1.3,1.1,1.6c0.5,0.3,1.1,0.4,2,0.4c0.5,0,1,0,1.3-0.1
				c0.4-0.1,0.7-0.2,1.1-0.5s0.6-0.6,0.8-1c0.2-0.4,0.3-1,0.3-1.6v-4.5c0-0.5-0.1-1-0.2-1.4c-0.1-0.4-0.3-0.7-0.5-0.9
				c-0.2-0.2-0.5-0.4-0.8-0.6c-0.3-0.1-0.6-0.2-0.9-0.3C568.8,496.5,568.4,496.5,568,496.5z"/>
			<path d="M596.2,507.2c-0.4,1.5-1.3,2.6-2.8,3.4c-1.5,0.8-3.4,1.2-5.8,1.2c-3,0-5.2-0.8-6.7-2.3c-1.4-1.5-2.2-3.8-2.2-6.8v-1.7
				c0-3,0.7-5.2,2.2-6.7c1.5-1.5,3.7-2.2,6.8-2.2c2.9,0,5.1,0.6,6.5,1.9c1.5,1.3,2.2,3.1,2.2,5.5v1.9c0,0.4-0.1,0.7-0.3,0.9
				c-0.2,0.2-0.5,0.3-0.9,0.3h-11.1c0,1.7,0.3,2.9,0.8,3.6c0.5,0.7,1.4,1,2.6,1c0.9,0,1.6-0.1,2.1-0.3c0.5-0.2,0.9-0.5,1.1-1
				c0-0.1,0.1-0.3,0.2-0.5c0.1-0.5,0.3-0.8,0.5-1c0.2-0.2,0.6-0.3,1-0.3h2.6c0.9,0,1.3,0.5,1.3,1.4
				C596.4,506.2,596.4,506.7,596.2,507.2z M587.8,496.6c-1.1,0-1.9,0.2-2.5,0.7s-0.9,1.3-1,2.5h6.8v-0.1c0-1.2-0.3-2-0.8-2.5
				S588.9,496.6,587.8,496.6z"/>
		</g>
	</g>
	<g class="st0">
		<path d="M274.8,305.8h-19.6c-1.4,0-2.1-0.7-2.1-2.1v-32.7c0-1.4,0.7-2.1,2.1-2.1h19.6c1.4,0,2,0.7,2,2.1v2.8c0,1.4-0.7,2.1-2,2.1
			h-14.5v7.4h13.8c1.4,0,2,0.7,2,2.1v2.4c0,1.4-0.7,2.1-2,2.1h-13.8v9h14.5c1.4,0,2,0.7,2,2.1v2.8
			C276.9,305.1,276.2,305.8,274.8,305.8z"/>
	</g>
	<g id="Italie_1_">
		<path d="M188.1,346.1c5.5,5.5,10.6,10.6,15.6,15.7c2.4,2.4,4.4,5.2,6.7,7.6c4.2,4.3,8.5,8.4,12.7,12.6c1.2,1.3,2.4,2.7,3.2,4.2
			c2.1,4.4,1.2,8.6-2.2,11.9c-4.1,4-8.5,7.7-12.9,11.4c-3.5,3-7.1,5.7-10.6,8.8c-3.5,3.1-6.8,3.4-10.5,0.4c-1.8-1.5-3.5-3.1-6-5.2
			c-0.3,1.8-0.5,2.9-0.5,3.9c-0.7,12.5-1.2,25.1-2.2,37.6c-0.2,2.8-1.5,5.7-2.8,8.3c-1.1,2.3-3.3,3.1-6,3
			c-8.9-0.4-17.9-0.5-26.8-0.8c-7.8-0.2-15.5-0.2-23.3-1c-5.5-0.5-10.8-2.1-16.8-3.3c-0.5-5.2-0.5-10.2,0.2-15.3
			c1.7-12,3.1-24,4.6-36.1c0.2-1.6,0-3.2,0-5.7c-4.6,2.8-8.5,5.2-12.4,7.7c-1,0.6-2,1.3-3.1,1.8c-2.6,1.2-4.6,0.6-6-2
			c-0.4-0.7-0.9-1.3-1.2-2.1c-3.9-9.1-10-16.8-15.7-24.7c-1.7-2.4-2.8-5.1-4.5-8.2c6.6-5.5,12.7-11,19.1-15.9
			c8-6.2,16.3-12.1,24.4-18.2c5.3-3.9,6.9-3.9,12.1-0.1c5.7,4.2,11.7,7.5,18.7,8.9c12.7,2.4,25.4,1.9,37.8-1.3
			C182.7,349.4,185.3,347.4,188.1,346.1z M191.6,412.2c6.5-3.2,26.6-20,28.9-24c-10.8-11.5-21.5-23.1-32.3-34.6
			c-9.8,7.7-9.9,7.4-16.5,9.2c-11.6,3.3-23.2,2.5-34.7-0.3c-9.3-2.3-18.4-5.1-24.2-14.4c-13.1,10.3-25.9,20.4-38.8,30.6
			c6,9,11.6,17.6,17,25.7c5.4-4,10.7-7.8,15.8-11.8c2.5-2,4.8-4.3,7.6-6.9c1.6,0.4,2.1,2.3,2.2,4.3s0.1,4-0.1,6
			c-0.5,5.1-1.3,10.3-1.5,15.4c-0.6,11.3-0.7,22.7-3.5,33.8c-0.7,2.6-0.5,5.3-0.9,8.6c11,0.3,21.5,0.9,32,0.8
			c10.5,0,21,1.9,31.3-0.3c0.2-3.6,0.6-6.7,0.6-9.8c0.1-13.8,0.3-27.5-2.6-41.1c-0.7-3.4-1.6-7.4,0.8-10.8c1.8,0.5,3.3,1.1,4.8,1.5
			c3.4,0.9,5.2,3.1,4.8,6.5c-0.5,4.3,1.4,6.8,4.9,8.6C188.8,410.1,190,411.1,191.6,412.2z"/>
		<path class="st1" d="M191.6,412.2c6.5-3.2,26.6-20,28.9-24c-10.8-11.5-21.5-23.1-32.3-34.6c-9.8,7.7-9.9,7.4-16.5,9.2
			c-11.6,3.3-23.2,2.5-34.7-0.3c-9.3-2.3-18.4-5.1-24.2-14.4c-13.1,10.3-25.9,20.4-38.8,30.6c6,9,11.6,17.6,17,25.7
			c5.4-4,10.7-7.8,15.8-11.8c2.5-2,4.8-4.3,7.6-6.9c1.6,0.4,2.1,2.3,2.2,4.3s0.1,4-0.1,6c-0.5,5.1-1.3,10.3-1.5,15.4
			c-0.6,11.3-0.7,22.7-3.5,33.8c-0.7,2.6-0.5,5.3-0.9,8.6c11,0.3,21.5,0.9,32,0.8c10.5,0,21,1.9,31.3-0.3c0.2-3.6,0.6-6.7,0.6-9.8
			c0.1-13.8,0.3-27.5-2.6-41.1c-0.7-3.4-1.6-7.4,0.8-10.8c1.8,0.5,3.3,1.1,4.8,1.5c3.4,0.9,5.2,3.1,4.8,6.5
			c-0.5,4.3,1.4,6.8,4.9,8.6C188.8,410.1,190,411.1,191.6,412.2z"/>
	</g>
	<g id="Belgique">
		<path class="st2" d="M-27.4,411.3c-0.3,12.4-0.4,45.4-0.9,48.3c-0.9,4.7-3.2,6.6-8.1,6.8c-8.8,0.3-47.6-1.1-58.4-5.5
			c-2.1-0.9-5.3-6.9-5.3-9.2c-0.3-14.8,0.1-29.5,1.8-44.2c0.2-1.9,3.2-9.5,5.3-10.4c3.9-1.7,55.3,2.5,62.1,3.9
			C-28,403.8-27.3,407.3-27.4,411.3z"/>
		<path d="M27,395.1c-3-5.2-6.2-10.2-9.5-15.2c-7.7-11.2-17.9-20.2-26.9-30.3c-1.7-1.9-3.5-3.7-5.4-5.7c-1.8,0.9-3.5,1.5-4.9,2.5
			c-3.7,2.6-7.5,4.4-12.2,4.4c-4.6,0-9.2,0.6-13.8,0.3c-12.1-0.7-23.3-3.4-30.4-14.6c-2.3-3.6-7.1-4.4-10.3-1.6
			c-6.4,5.6-14.3,8.5-21.5,12.8c-11.7,6.9-23.2,14-34.8,21.1c-0.3,0.2-0.7,0.4-1,0.7c-4.7,3.8-5.3,5.7-3.1,11.3
			c1.2,2.9,2.9,5.7,4.5,8.4c2.9,5,5.8,9.9,8.7,15c1.9,3.4,3.7,6.9,5.4,10.2c8.3-2.4,17.5-5.9,25.9-11.3c-0.5,5.2-2.1,13.6-2.3,17.9
			c-0.3,6.2-0.6,12.4-0.6,18.6c0,5.2-0.1,10.5,0.7,15.5c0.8,4.9,3.2,8.7,8.5,11.2c9.8,4.5,43,6.2,49.2,6.6
			c8.3,0.5,21.2-0.6,23.3-3.1s2-38.6,1.8-44.2c-0.1-4-0.3-8.1,0.3-13.4c2.6,3.2,4.2,5.2,5.8,7.2c2.6,3.3,3.5,3.6,7.5,1.9
			c8.2-3.5,16.4-7,24.6-10.6c2.5-1.1,5-2.5,7.3-4C27.2,404.4,28.9,398.4,27,395.1z M-27.4,411.3c-0.3,12.4-0.4,45.4-0.9,48.3
			c-0.9,4.7-3.2,6.6-8.1,6.8c-8.8,0.3-47.6-1.1-58.4-5.5c-2.1-0.9-5.3-6.9-5.3-9.2c-0.3-14.8,0.1-29.5,1.8-44.2
			c0.2-1.9,3.2-9.5,5.3-10.4c3.9-1.7,55.3,2.5,62.1,3.9C-28,403.8-27.3,407.3-27.4,411.3z"/>
	</g>
	<g id="Irlande_1_">
		<path d="M446.1,387.9c-0.7-1.4-1.3-3-2.3-4.1c-2.4-2.7-4.9-5.2-7.4-7.7c-10.4-10.4-20.8-20.9-31.2-31.3c-4.7-4.7-6.3-5-11.9-1.4
			c-6.5,4.1-16.8,13.8-25,14.7c-17.8,1.8-36,0-50.2-17.8c-2-2.5-4.5-1.5-7,0c-5.8,3.5-11.7,6.8-17.6,10.1
			c-8.8,5.1-17.5,10.2-26.4,15.2c-5.5,3.1-7.1,5.6-5,11.7c2.3,6.6,4.9,13.2,8.3,19.2c2.9,5.2,5.4,11.1,11.4,14.1
			c4.9-1.5,9.9-5.6,15.9-7.5c0.6,13,0.3,27.1,0.8,39.9c0.2,5.4,0.2,10.7,0.5,16.1c0.1,2.4,0.6,5,3.6,5.5c3.5,0.7,7,1.6,10.6,1.7
			c13.2,0.4,26.3,0.8,39.5,0.8c9.3,0,18.6-0.5,27.9-0.6c2.6,0,11.3-0.6,12.2-3.1s1.9-7.1,2-11.6c0.3-11.4,0.1-22.8,0.1-34.2
			c0-1.6,0.3-3.3,0.5-5.5c4.1,3.3,7.6,5.9,11,8.7c3.3,2.8,5.2,3,9,0.4c7.9-5.4,15.8-10.7,23.6-16.3c4-2.8,8.4-5.4,9.9-10.5
			C447.8,391.8,447,389.8,446.1,387.9z M306.1,395.6l5.8-3L313,458c-2,0-4,0.1-6,0.1C306.9,455.2,305.1,398.4,306.1,395.6z
			 M387,449.3c-0.3,4.9-2.6,6.3-7.6,6.9c-0.5,0.1-1.1,0.1-1.6,0.2l4.7-57.1c1.7,1.5,3.4,3,4.2,3.7C388.7,404.8,387.7,438,387,449.3z
			 M409.2,413.3c-9.8-5.8-18.6-13.6-26.5-22.2c-2.4,1.6-3,2-5.3,3.5l-3.5,61.8c-0.2,0-0.4,0-0.6,0c-13.7,0.4-27.4,0.7-41.2,1.1
			c-4.4,0.1-9.6,0.2-14.9,0.3l-2.7-71.6l-7.5,3.4c-0.5,0.1-1.1,0.5-2.2,1c-7.9,3.7-15.8,7.5-24.3,11.6c-5.4-8.3-12.5-18-14.7-28
			c3.9-4.2,31.4-20.2,45.3-26.5c7.1,11.2,18.5,15.8,30.2,18.1c15.6,3.1,31.4,2.1,45.1-7.9c1.9-1.4,3.7-3,5.5-4.6c4-3.7,5-3.7,9-0.2
			c8.1,7.1,16.5,13.8,24.4,21.1c4.9,4.6,9,10,14,15.7C429.3,397.8,419.5,405.4,409.2,413.3z"/>
		<path class="st3" d="M409.2,413.3c-9.8-5.8-18.6-13.6-26.5-22.2c-2.4,1.6-3,2-5.3,3.5l-3.5,61.8c-0.2,0-0.4,0-0.6,0
			c-13.7,0.4-27.4,0.7-41.2,1.1c-4.4,0.1-9.6,0.2-14.9,0.3l-2.7-71.6l-7.5,3.4c-0.5,0.1-1.1,0.5-2.2,1c-7.9,3.7-15.8,7.5-24.3,11.6
			c-5.4-8.3-12.5-18-14.7-28c3.9-4.2,31.4-20.2,45.3-26.5c7.1,11.2,18.5,15.8,30.2,18.1c15.6,3.1,31.4,2.1,45.1-7.9
			c1.9-1.4,3.7-3,5.5-4.6c4-3.7,5-3.7,9-0.2c8.1,7.1,16.5,13.8,24.4,21.1c4.9,4.6,9,10,14,15.7C429.3,397.8,419.5,405.4,409.2,413.3
			z"/>
		<path class="st4" d="M306.1,395.6l5.8-3L313,458c-2,0-4,0.1-6,0.1C306.9,455.2,305.1,398.4,306.1,395.6z"/>
		<path class="st4" d="M387,449.3c-0.3,4.9-2.6,6.3-7.6,6.9c-0.5,0.1-1.1,0.1-1.6,0.2l4.7-57.1c1.7,1.5,3.4,3,4.2,3.7
			C388.7,404.8,387.7,438,387,449.3z"/>
	</g>
	<g id="Suède">
		<path d="M646.7,387.3c-12.8-14-25.6-27.9-38.3-41.9c-3.4-3.7-7.2-5.2-12.1-3.5c-3,1.1-6.1,2-9.1,3c-9.4,3-19.2,3.9-29,3.1
			c-11.7-1-20.7-7.2-28.2-15.9c-3.1-3.6-6.5-4.1-10.5-1.6c-1.7,1-3.3,2.3-4.8,3.5c-4.6,3.8-9.3,7.6-13.6,11.7
			c-9.4,8.9-18.8,17.9-26.4,28.6c-1.4,2-1.9,3.5-1.2,5.9c2.8,10.1,9.5,18.3,13.8,27.6c0.3,0.7,0.8,1.4,1.4,2
			c1.7,1.6,4.8,1.8,6.6,0.4c4-3.2,7.9-6.6,12-9.7c1.3-1,3-1.6,5-2.7c0,1.5,0.1,2.3,0,3c-1.4,6.6-7.7,46.3-9.6,59.5
			c-1.1,8.2,0.7,11.5,9,12.8c10.4,1.7,20.9,3.4,31.4,3.5c16.5,0.2,33,1.2,49.5-0.6c5.1-0.5,7.4-2.4,9.1-7.7c2.2-7,0-13.9-0.3-20.7
			c-0.5-12-2.2-24-3.4-36c0.5-0.3,1-0.7,1.5-1c2.4,2.8,4.9,5.5,7.1,8.4c2.8,3.7,7.1,4.8,11,2.5c3.9-2.4,7.7-4.9,11.7-7
			c6.1-3.3,12.4-6.4,18.7-9.3c3-1.4,3.9-3.4,4.2-6.5C652.6,393.6,649.6,390.5,646.7,387.3z M507.8,462.8
			c0.3-4.8,10.1-72.3,10.4-73.8l6.3-4l-8.6,79.7C511.5,464.6,512.3,464.6,507.8,462.8z M587.5,467.6c-2.4,0.1-1.6-0.5-4-0.5
			l-0.3-75.5l3.6,2.6c0.1,1.9,0.5,3.7,0.5,5.5c0.2,5.9,1.2,11.8,1.7,17.8c1.2,14.7,2.4,29.4,3.6,44
			C593,465.4,591.6,467.5,587.5,467.6z M626.7,402.3c-5.7,3.2-11.4,6.5-17,9.7c-7.2-8.2-27.2-30.9-29.7-29.4s-2.7,84.5-2.7,84.5
			c-4.2,0-11.4,0.5-15.6,0.3c-11.8-0.5-28.8-1.8-40.6-2.4c0,0,11.3-89.4,8.7-90.7c-2.6-1.2-21.1,19.8-38.3,30.8
			c-3.7-7.1-9-15.9-12.6-22.8c-1.1-2.2-0.1-3.8,1.3-5.4c4.2-4.8,8.1-9.9,12.6-14.3c8.6-8.5,17.6-16.7,27.3-25.7
			c1.6,2.1,2.5,3.6,3.7,4.9c9.3,10.2,21.5,13.9,34.7,15.2c3,0.3,5.9,0.9,8.9,0.9c10.7,0.2,20.9-2,30.5-6.8c1.7-0.9,3.5-1.6,5.5-2.5
			c13.3,14.7,26.5,29.3,40.3,44.4C638,396.1,632.3,399.1,626.7,402.3z"/>
		<path class="st1" d="M507.8,462.8c0.3-4.8,10.1-72.3,10.4-73.8l6.3-4l-8.6,79.7C511.5,464.6,512.3,464.6,507.8,462.8z"/>
		<path class="st1" d="M587.5,467.6c-2.4,0.1-1.6-0.5-4-0.5l-0.3-75.5l3.6,2.6c0.1,1.9,0.5,3.7,0.5,5.5c0.2,5.9,1.2,11.8,1.7,17.8
			c1.2,14.7,2.4,29.4,3.6,44C593,465.4,591.6,467.5,587.5,467.6z"/>
		<path class="st5" d="M626.7,402.3c-5.7,3.2-11.4,6.5-17,9.7c-7.2-8.2-27.2-30.9-29.7-29.4s-2.7,84.5-2.7,84.5
			c-4.2,0-11.4,0.5-15.6,0.3c-11.8-0.5-28.8-1.8-40.6-2.4c0,0,11.3-89.4,8.7-90.7c-2.6-1.2-21.1,19.8-38.3,30.8
			c-3.7-7.1-9-15.9-12.6-22.8c-1.1-2.2-0.1-3.8,1.3-5.4c4.2-4.8,8.1-9.9,12.6-14.3c8.6-8.5,17.6-16.7,27.3-25.7
			c1.6,2.1,2.5,3.6,3.7,4.9c9.3,10.2,21.5,13.9,34.7,15.2c3,0.3,5.9,0.9,8.9,0.9c10.7,0.2,20.9-2,30.5-6.8c1.7-0.9,3.5-1.6,5.5-2.5
			c13.3,14.7,26.5,29.3,40.3,44.4C638,396.1,632.3,399.1,626.7,402.3z"/>
	</g>
</g>
</svg>
