<?xml version="1.0" encoding="utf-8"?>
<!-- Generator: Adobe Illustrator 19.1.0, SVG Export Plug-In . SVG Version: 6.00 Build 0)  -->
<svg version="1.1" id="Calque_1" xmlns="http://www.w3.org/2000/svg" xmlns:xlink="http://www.w3.org/1999/xlink" x="0px" y="0px"
	 viewBox="241 379 1081.1 324" style="enable-background:new 241 379 1081.1 324;" xml:space="preserve">
<style type="text/css">
	.st0{fill:none;}
	.st1{enable-background:new    ;}
	.st2{fill:#84B974;}
	.st3{fill:#EB5C5F;}
</style>
<g>
	<g>
		<rect x="398" y="615.6" class="st0" width="104.9" height="26.4"/>
		<g class="st1">
			<path class="st2" d="M428.1,623.7c0,1.1-0.1,2-0.4,2.7c-0.3,0.8-0.7,1.4-1.3,1.9c-0.6,0.5-1.4,0.9-2.4,1.2
				c-1,0.3-2.2,0.4-3.7,0.4H417v4.9c0,0.4-0.1,0.7-0.3,0.9c-0.2,0.2-0.5,0.3-0.9,0.3h-2.5c-0.4,0-0.7-0.1-0.9-0.3
				c-0.2-0.2-0.3-0.5-0.3-0.9v-17.9c0-0.4,0.1-0.7,0.3-0.9c0.2-0.2,0.5-0.3,0.9-0.3h7c2.9,0,4.9,0.5,6.1,1.6c1.2,1.1,1.8,2.7,1.8,5
				V623.7z M420.2,620H417v5.9h3.2c1,0,1.8-0.2,2.2-0.6c0.4-0.4,0.7-1.1,0.7-2.2v-0.3c0-1.1-0.2-1.9-0.7-2.3
				C422,620.2,421.2,620,420.2,620z"/>
			<path class="st2" d="M446,626.1v1.6c0,2.7-0.7,4.8-2.1,6.2c-1.4,1.4-3.4,2.1-6.1,2.1c-2.8,0-4.9-0.7-6.2-2.1
				c-1.3-1.4-2-3.5-2-6.3v-1.6c0-2.7,0.7-4.8,2-6.2c1.3-1.4,3.4-2.1,6.2-2.1c2.8,0,4.8,0.7,6.2,2.1C445.3,621.3,446,623.4,446,626.1
				z M441,627.5v-1.1c0-1-0.1-1.9-0.4-2.5c-0.2-0.6-0.6-1-1-1.3c-0.5-0.2-1.1-0.4-1.8-0.4c-1.1,0-1.9,0.3-2.4,0.9
				c-0.5,0.6-0.7,1.7-0.7,3.2v1.1c0,1.5,0.2,2.6,0.7,3.2s1.3,0.9,2.4,0.9c0.8,0,1.4-0.1,1.8-0.3c0.5-0.2,0.8-0.6,1-1.2
				C440.9,629.4,441,628.5,441,627.5z"/>
			<path class="st2" d="M458.7,629c0,2.5-0.4,4.3-1.2,5.4c-0.8,1.1-2.1,1.7-4,1.7c-2,0-3.4-0.5-4.3-1.6c-0.9-1.1-1.4-2.8-1.4-5.2
				v-10c0-0.4,0.1-0.7,0.3-0.9c0.2-0.2,0.5-0.3,0.9-0.3h2.5c0.4,0,0.7,0.1,0.9,0.3c0.2,0.2,0.3,0.5,0.3,0.9v9c0,1,0.2,1.8,0.6,2.3
				c0.4,0.5,1.1,0.7,2,0.7c0.5,0,0.9,0,1.2-0.1c0.3-0.1,0.7-0.3,1-0.5c0.3-0.2,0.5-0.6,0.7-1.1c0.2-0.5,0.2-1.1,0.2-1.8v-8.5
				c0-0.4,0.1-0.7,0.3-0.9c0.2-0.2,0.5-0.3,0.9-0.3h2.5c0.4,0,0.7,0.1,0.9,0.3c0.2,0.2,0.3,0.5,0.3,0.9v15.5c0,0.4-0.1,0.7-0.3,0.9
				c-0.2,0.2-0.5,0.3-0.9,0.3h-2.5c-0.4,0-0.7-0.1-0.9-0.3c-0.2-0.2-0.3-0.5-0.3-0.9V629z"/>
			<path class="st2" d="M469.4,636h-2.5c-0.4,0-0.7-0.1-0.9-0.3c-0.2-0.2-0.3-0.5-0.3-0.9v-17.9c0-0.4,0.1-0.7,0.3-0.9
				c0.2-0.2,0.5-0.3,0.9-0.3h2.5c0.4,0,0.7,0.1,0.9,0.3c0.2,0.2,0.3,0.5,0.3,0.9v17.9c0,0.4-0.1,0.7-0.3,0.9
				C470.1,635.8,469.8,636,469.4,636z"/>
			<path class="st2" d="M488.7,631.8c-0.4,1.4-1.2,2.4-2.6,3.2c-1.4,0.8-3.2,1.1-5.3,1.1c-2.8,0-4.9-0.7-6.2-2.1
				c-1.3-1.4-2-3.5-2-6.3v-1.6c0-2.8,0.7-4.8,2-6.2c1.4-1.4,3.4-2.1,6.2-2.1c2.7,0,4.7,0.6,6.1,1.8c1.4,1.2,2.1,2.9,2.1,5.1v1.8
				c0,0.4-0.1,0.7-0.3,0.9c-0.2,0.2-0.5,0.3-0.8,0.3h-10.3c0,1.6,0.3,2.7,0.8,3.3c0.5,0.6,1.3,0.9,2.4,0.9c0.8,0,1.5-0.1,2-0.3
				c0.5-0.2,0.8-0.5,1-0.9c0-0.1,0.1-0.3,0.2-0.5c0.1-0.4,0.2-0.7,0.4-0.9c0.2-0.2,0.5-0.3,1-0.3h2.4c0.8,0,1.2,0.4,1.2,1.3
				C488.9,630.9,488.8,631.3,488.7,631.8z M480.9,622c-1,0-1.8,0.2-2.3,0.7s-0.8,1.2-1,2.4h6.3v-0.1c0-1.1-0.2-1.9-0.7-2.3
				S481.9,622,480.9,622z"/>
		</g>
	</g>
	<g>
		<rect x="763.5" y="675.5" class="st0" width="182.4" height="26.4"/>
		<g class="st1">
			<path class="st3" d="M826.4,683.6c0,1.1-0.1,2-0.4,2.7c-0.3,0.8-0.7,1.4-1.3,1.9c-0.6,0.5-1.4,0.9-2.4,1.2
				c-1,0.3-2.2,0.4-3.7,0.4h-3.2v4.9c0,0.4-0.1,0.7-0.3,0.9c-0.2,0.2-0.5,0.3-0.9,0.3h-2.5c-0.4,0-0.7-0.1-0.9-0.3
				c-0.2-0.2-0.3-0.5-0.3-0.9v-17.9c0-0.4,0.1-0.7,0.3-0.9c0.2-0.2,0.5-0.3,0.9-0.3h7c2.9,0,4.9,0.5,6.1,1.6c1.2,1.1,1.8,2.7,1.8,5
				V683.6z M818.4,679.9h-3.2v5.9h3.2c1,0,1.8-0.2,2.2-0.6c0.4-0.4,0.7-1.1,0.7-2.2v-0.3c0-1.1-0.2-1.9-0.7-2.3
				C820.2,680.1,819.5,679.9,818.4,679.9z"/>
			<path class="st3" d="M844.3,686.1v1.6c0,2.7-0.7,4.8-2.1,6.2c-1.4,1.4-3.4,2.1-6.1,2.1c-2.8,0-4.9-0.7-6.2-2.1
				c-1.3-1.4-2-3.5-2-6.3v-1.6c0-2.7,0.7-4.8,2-6.2c1.3-1.4,3.4-2.1,6.2-2.1c2.8,0,4.8,0.7,6.2,2.1
				C843.6,681.3,844.3,683.3,844.3,686.1z M839.3,687.4v-1.1c0-1-0.1-1.9-0.4-2.5c-0.2-0.6-0.6-1-1-1.3c-0.5-0.2-1.1-0.4-1.8-0.4
				c-1.1,0-1.9,0.3-2.4,0.9c-0.5,0.6-0.7,1.7-0.7,3.2v1.1c0,1.5,0.2,2.6,0.7,3.2s1.3,0.9,2.4,0.9c0.8,0,1.4-0.1,1.8-0.3
				c0.5-0.2,0.8-0.6,1-1.2C839.1,689.3,839.3,688.5,839.3,687.4z"/>
			<path class="st3" d="M856.9,688.9c0,2.5-0.4,4.3-1.2,5.4c-0.8,1.1-2.1,1.7-4,1.7c-2,0-3.4-0.5-4.3-1.6c-0.9-1.1-1.4-2.8-1.4-5.2
				v-10c0-0.4,0.1-0.7,0.3-0.9c0.2-0.2,0.5-0.3,0.9-0.3h2.5c0.4,0,0.7,0.1,0.9,0.3c0.2,0.2,0.3,0.5,0.3,0.9v9c0,1,0.2,1.8,0.6,2.3
				s1.1,0.7,2,0.7c0.5,0,0.9,0,1.2-0.1s0.7-0.3,1-0.5c0.3-0.2,0.5-0.6,0.7-1.1c0.2-0.5,0.2-1.1,0.2-1.8v-8.5c0-0.4,0.1-0.7,0.3-0.9
				c0.2-0.2,0.5-0.3,0.9-0.3h2.5c0.4,0,0.7,0.1,0.9,0.3c0.2,0.2,0.3,0.5,0.3,0.9v15.5c0,0.4-0.1,0.7-0.3,0.9
				c-0.2,0.2-0.5,0.3-0.9,0.3h-2.5c-0.4,0-0.7-0.1-0.9-0.3c-0.2-0.2-0.3-0.5-0.3-0.9V688.9z"/>
			<path class="st3" d="M867.7,695.9h-2.5c-0.4,0-0.7-0.1-0.9-0.3c-0.2-0.2-0.3-0.5-0.3-0.9v-17.9c0-0.4,0.1-0.7,0.3-0.9
				c0.2-0.2,0.5-0.3,0.9-0.3h2.5c0.4,0,0.7,0.1,0.9,0.3c0.2,0.2,0.3,0.5,0.3,0.9v17.9c0,0.4-0.1,0.7-0.3,0.9
				C868.4,695.8,868.1,695.9,867.7,695.9z"/>
			<path class="st3" d="M887,691.7c-0.4,1.4-1.2,2.4-2.6,3.2c-1.4,0.8-3.2,1.1-5.3,1.1c-2.8,0-4.9-0.7-6.2-2.1c-1.3-1.4-2-3.5-2-6.3
				v-1.6c0-2.8,0.7-4.8,2-6.2s3.4-2.1,6.2-2.1c2.7,0,4.7,0.6,6.1,1.8s2.1,2.9,2.1,5.1v1.8c0,0.4-0.1,0.7-0.3,0.9
				c-0.2,0.2-0.5,0.3-0.8,0.3h-10.3c0,1.6,0.3,2.7,0.8,3.3c0.5,0.6,1.3,0.9,2.4,0.9c0.8,0,1.5-0.1,2-0.3c0.5-0.2,0.8-0.5,1-0.9
				c0-0.1,0.1-0.3,0.2-0.5c0.1-0.4,0.2-0.7,0.4-0.9c0.2-0.2,0.5-0.3,1-0.3h2.4c0.8,0,1.2,0.4,1.2,1.3
				C887.1,690.8,887.1,691.3,887,691.7z M879.1,681.9c-1,0-1.8,0.2-2.3,0.7s-0.8,1.2-1,2.4h6.3v-0.1c0-1.1-0.2-1.9-0.7-2.3
				S880.2,681.9,879.1,681.9z"/>
			<path class="st3" d="M895.5,694.6c0,0.4-0.1,0.7-0.3,0.9c-0.2,0.2-0.5,0.3-0.9,0.3h-2.5c-0.4,0-0.7-0.1-0.9-0.3
				c-0.2-0.2-0.3-0.5-0.3-0.9v-12.7h-1.3c-0.7,0-1.1-0.4-1.1-1.1V679c0-0.8,0.4-1.1,1.1-1.1h1.3v-0.7c0-0.4,0.1-0.7,0.3-0.9
				s0.5-0.3,0.9-0.3h2.5c0.4,0,0.7,0.1,0.9,0.3c0.2,0.2,0.3,0.5,0.3,0.9v0.7h2.2c0.8,0,1.1,0.4,1.1,1.2v1.5c0,0.4-0.1,0.7-0.3,0.9
				s-0.5,0.3-0.8,0.3h-2.2V694.6z"/>
		</g>
	</g>
	<g>
		<path class="st3" d="M380.3,516.6c-2.2-2.4-6.9-5.8-12.5-3.4c-3.6,1.5-4.1,4.1-0.9,6.3c2.1,1.4,4.5,2.3,6.8,3.5
			c1.8,0.9,2.7,3,1.8,4.2c-1.1,1.6-2,0.9-3.5,0.1c-2.4-1.3-5.3-0.1-6.1,2.1c-0.7,2,0.4,4.7,2.9,5.4c3.1,0.9,6.1,2.8,9.5,1.2
			c3.6-1.8,5.9-0.4,8.3,2.5c5,6.3,11.3,11.3,18.4,14.9c17.9,9.1,37.1,11.4,56.9,8.3c14.5-2.3,26.2-9.6,36.3-20c2-2,4-4,5.6-6.4
			c2.8-4.1,5-8.6,7.9-12.7c7.8-11,11.6-23.7,16-36.1c0.3-0.9,0.4-2.1,0-2.8c-1.4-2.4-3.7-7.7-5-7.5c-1.3,0.2-1.7,3.6-2.4,5.1
			c-2,3.7-6,4-8.4,0.4c-0.8-1.1-1-2.6-1.6-3.9c-0.3-0.7,0-2.6-1.3-2.5c-1.4,0.1-1.3,3.3-1.5,4.6c-0.6,4.6-4.1,5.3-8,4.1
			c-2.2-0.7-5.4-4.6-6.7-3.6c-2.8,2.1-5.6,6.9-10.5,2.2c-0.1-0.1-0.2-0.2-0.3-0.3c-3.2-4-7.8-6.1-12.1-8.4
			c-7.6-4.1-16.1-5.1-24.7-5.7c-10.3-0.7-20.1,1.6-29.6,5c-4.9,1.8-9.9,3.9-13.6,7.8c-3.1,3.3-6.2,6.7-8.6,10.5
			c-4.9,7.5-8.7,15.4-5.9,24.8c0.2,0.8,0.5,1.5-0.6,2.6C385.6,520,382.5,518.9,380.3,516.6z"/>
		<path class="st3" d="M497,394c-1.5,0.7-1.9-1.8-2.6-2.5c-1-1-2-2-3.2-2.8c-2.4-1.6-6.9-1.3-8.6,0.7c-1.7,2-2.1,4.2-0.1,6.5
			c0.4,0.4,1,2.3-0.1,2.5c-1.1,0.2-1.7-0.2-2.3-0.3c-3.2-0.5-6,1.2-7.1,4c-1.2,3.2,0.4,6.1,3.7,6.9c1.3,0.3,2.6,0.9,4,1.4
			c1.8-1.5,3.6-3.2,5.5-4.6c5.6-4,11.6-7,18.9-6.5c3.2,0.2,4-0.5,4.2-3.7c0.1-1,0.1-2,0-3c-0.2-3-2.3-5.7-4.6-5.8
			c-2.9-0.2-5.5,1.5-6.5,4.4C498,392,498.5,393.4,497,394z"/>
		<g>
			<path d="M537.2,441.8c0.3,5.7,0.8,10.8,0.9,15.9c0.1,5.8-0.9,11.6-2.4,17.2c-0.1,0.4-4.4,11-6,16.1c-2,6.5-3.7,13.1-6.3,19.4
				c-2.2,5.3-5.3,10.3-8.1,15.4c-1.6,2.8-3.6,5.4-5.3,8.2c-7.7,12.5-18.3,21.5-31.5,27.6c-1.9,0.9-2.7,1.9-2.7,3.7
				c0.1,4-1.7,6.5-5.8,7.2c-0.4,5.2-0.8,10.2-1.1,15.5c1.2,0.2,2.5,0,3.5,0c3.3-0.1,5.7,1.6,8.2,3.8c2.3,2,2.3,5.4,0.8,6
				s-1.6-0.1-1.8-0.5c-3.2-5.1-8-4.5-12.9-3.8c-0.6,0.1-1.1,0.2-1.6,0.5c-1.5,0.8-2.5,0.1-3.2-1.1c-0.8-1.4-0.6-3.3,0.8-3.7
				c2.8-0.8,2.7-3,3.1-4.9c0.5-2.4,0.7-4.8,0.8-7.2c0.1-3.1-1.3-3-1.9-3.3c-3.1-1.8-2.9-4.3-4.5-7.3c-2.4,0.2-4.9,0.5-7.5,0.8
				c-0.8,3.7,0,8.2-5.3,9.1c0,4.2,0,8.1,0,12.3c0.9,0.4,1.9,0.8,2.9,1.2c4.4,1.8,6.8,5.5,8.5,9.6c0.7,1.6-0.4,3.6-2.1,3.4
				c-1-0.1-1.5-2-1.9-3.1c-2.6-5.8-7.2-7.1-12.9-6.1c-1.7,0.3-3.3,0.8-5,1.2c-1.1,0.2-1.7,0.8-3.1,0.7c-1.5-0.1-0.9-4.2,1.9-5.1
				c2.4-0.7,4.9-1.2,7.8-1.9c0.2-3.4,0.4-8.1,0.6-11.4c-0.7-0.1-4.2,3.7-5.6,2c-1.3-1.5-2-3.7-2.2-5.7c-0.3-1.9,0.4-3.9,0.6-6.3
				c-10.5-1.3-20.8-3.5-30.3-8c-9.6-4.6-17.3-11.9-24.6-19.6c-5.6,3.6-10.5,0.7-15.2-1.2c-5.8-2.3-6.7-10-2.1-15.2
				c-1.9-2.1-3.9-4.3-3.6-7.6c0.3-4,2.4-6.6,6.4-7.3c4.8-0.9,9.3-0.5,13.3,2.8c0.3,0.3,0.7,0.5,1,0.7c0.1,0.1,0.3,0,0.4,0
				c0.6-3.7,1-7.5,1.9-11.1c0.6-2.4,1.6-4.9,2.9-7c4.9-9.9,15.7-19.8,20.5-22c6.5-2.9,13.2-5.5,20.2-6.7c7.8-1.3,15.7-2,23.7-0.6
				c7.5,1.3,14.8,2.5,21.5,6.3c2.7,1.5,6.4,4,9,5.6c1.5-1.7,0.9-4.5,0.4-6.5c-1.1-4.1-2.5-8.1-3.6-12.2c-2.8-10.6-4.2-21.4-2.9-32.3
				c0.4-3.7,1.7-7.4,2.5-11.1c-7.2-2.6-9.3-5.2-9.4-11.4c-0.1-5.4,3.7-7.5,8.6-9.1c-0.4-4.7,1.5-7.9,6.2-9.7c5-2,8.1,0.9,11.6,3.4
				c1.6-2.5,3.8-4.3,6.8-4.7c4.8-0.6,10.1,4.3,10.4,9.7c0.2,2.5,0,5.1,0,7.7c2.1,0.9,4.4,1.3,5.9,2.6c3.5,2.8,6.9,5.9,9.9,9.3
				c2.5,2.8,5.4,5.5,6,9.6c0.1,0.5,0.9,1.1,1.5,1.3c3.1,1,6.2,1.9,9.3,2.8c3.2,1,6.6,1.8,9.7,3c2.9,1.1,3.2,3.3,0.6,5
				c-3.1,1.9-6.5,3.4-9.8,4.9C542.9,439.7,540.1,440.6,537.2,441.8z M467.6,565.7c1.2-0.1,1.5,2.4,2.7,2.5c1.2,0,2.8-2.1,1.5-4.5
				c-3.8,0.8-5.8,1.6-8.2,2.1c0.8,1.6,0.5,3.8,1.8,3.8C466.8,569.6,466.4,565.9,467.6,565.7z M380.3,516.6
				c-2.2-2.4-6.9-5.8-12.5-3.4c-3.6,1.5-4.1,4.1-0.9,6.3c2.1,1.4,4.5,2.3,6.8,3.5c1.8,0.9,2.7,3,1.8,4.2c-1.1,1.6-2,0.9-3.5,0.1
				c-2.4-1.3-5.3-0.1-6.1,2.1c-0.7,2,0.4,4.7,2.9,5.4c3.1,0.9,6.1,2.8,9.5,1.2c3.6-1.8,5.9-0.4,8.3,2.5c5,6.3,11.3,11.3,18.4,14.9
				c17.9,9.1,37.1,11.4,56.9,8.3c14.5-2.3,26.2-9.6,36.3-20c2-2,4-4,5.6-6.4c2.8-4.1,5-8.6,7.9-12.7c7.8-11,11.6-23.7,16-36.1
				c0.3-0.9,0.4-2.1,0-2.8c-1.4-2.4-3.7-7.7-5-7.5c-1.3,0.2-1.7,3.6-2.4,5.1c-2,3.7-6,4-8.4,0.4c-0.8-1.1-1-2.6-1.6-3.9
				c-0.3-0.7,0-2.6-1.3-2.5c-1.4,0.1-1.3,3.3-1.5,4.6c-0.6,4.6-4.1,5.3-8,4.1c-2.2-0.7-5.4-4.6-6.7-3.6c-2.8,2.1-5.6,6.9-10.5,2.2
				c-0.1-0.1-0.2-0.2-0.3-0.3c-3.2-4-7.8-6.1-12.1-8.4c-7.6-4.1-16.1-5.1-24.7-5.7c-10.3-0.7-20.1,1.6-29.6,5
				c-4.9,1.8-9.9,3.9-13.6,7.8c-3.1,3.3-6.2,6.7-8.6,10.5c-4.9,7.5-8.7,15.4-5.9,24.8c0.2,0.8,0.5,1.5-0.6,2.6
				C385.6,520,382.5,518.9,380.3,516.6z M515.8,480.5c2.5-3.5,5-9.4,7.7-9.1c2.7,0.3,3.4,4.9,5.2,7.4c0.3-0.6,0.7-1,0.9-1.5
				c5.1-9.6,5.1-19.9,4.1-30.3c-0.2-1.8-0.8-3.5-2.5-4.7c-2.1-1.5-1.6-4.8-0.9-7.1c0.7-2.4-0.6-3.7-0.9-6.1
				c-0.4-2.8-1.4-5.9,1.3-8.6c-1.5-1.9-2.9-3.6-4.3-5.4c-4.6-6-10-10-17.9-10.7c-8.6-0.8-15.7,1.9-21.9,7.2c-5.7,4.9-7.2,12-7.2,19
				c-0.1,6.6,1,13.3,2.1,19.8c1,5.7,3,11.2,4.3,16.8c1,4.5,2.6,9.1,0,14.1c2.1-0.3,2.6-1.8,3.6-2.9c1.1-1.2,0.8-2.9,3.7-3.3
				c2.9-0.4,3.5,3.1,5.3,4.2c2.6,1.6,4.2,1.1,5.5-1.6c0.4-0.8,0.6-1.6,0.8-2.4c0.6-2.4,1-5.2,3.9-5.2S511.9,477.6,515.8,480.5z
				 M497,394c-1.5,0.7-1.9-1.8-2.6-2.5c-1-1-2-2-3.2-2.8c-2.4-1.6-6.9-1.3-8.6,0.7c-1.7,2-2.1,4.2-0.1,6.5c0.4,0.4,1,2.3-0.1,2.5
				c-1.1,0.2-1.7-0.2-2.3-0.3c-3.2-0.5-6,1.2-7.1,4c-1.2,3.2,0.4,6.1,3.7,6.9c1.3,0.3,2.6,0.9,4,1.4c1.8-1.5,3.6-3.2,5.5-4.6
				c5.6-4,11.6-7,18.9-6.5c3.2,0.2,4-0.5,4.2-3.7c0.1-1,0.1-2,0-3c-0.2-3-2.3-5.7-4.6-5.8c-2.9-0.2-5.5,1.5-6.5,4.4
				C498,392,498.5,393.4,497,394z M533.6,427c-0.3,1.3,0,11,1.9,11s11-2.7,14.9-6.5C545.2,430,533.9,425.7,533.6,427z M445.1,569.9
				c1.2,0,1.8,1.9,3.1,1.9s0.5-3.1,0.7-4.3c-3.1,0-5.9,0-8.6,0c-0.4,2.8-1,6.9-1,7.8c0,0.9,0.3,1.2,0.9,0.5
				C440.8,575.1,443.9,569.9,445.1,569.9z"/>
			<path d="M414.2,513.3c4.5-2,8.5-2.8,12.7-2.4c3.5,0.4,5.8,5.2,3.4,5.6c-2.4,0.4-6.7-3.6-15.9,1.9c-2.8,1.7-3.7,4.8-4.4,8.2
				c2.2-0.8,4-1.6,5.8-2c6.8-0.5,8.4,6.6,5.3,5.1c-3.2-1.4-8.7,0-11.9,3.5c-1.4,1.5-1.2,2.8,0.3,4c1.1,0.9,2.3,1.8,3.7,2.1
				c7.6,1.9,15.2,2.7,23,0.5c16.6-5,28-17.6,29.3-18c1.3-0.5,3,3.2,0.9,4.9c-4.6,3.7-9.3,7.4-14.2,10.9c-7.4,5.2-16.1,6-24.7,7.6
				c-1.5,0.3-14.2-0.4-18.4-3.2c-3.7-2.4-4.9-5.6-3.8-9.8c0.4-1.7,0.7-3.5,0.9-5.3c0.3-2.7,0.7-5.3,2.2-7.7c1.3-2,1.9-4.2,2.4-6.7
				c2.1-10.1,8.7-16.6,18.2-20c12.3-4.4,22.1,0.6,31.1,8.4c1.7,1.5,1.7,5,0.4,5.1c-1.3,0.1-4.7-3.6-7-5.3c-4.2-3-9-4.9-14.1-5.4
				c-4.6-0.4-9,1-13.1,3c-5.3,2.7-8.8,7.1-11.5,12.2C414.4,511.2,414.5,512,414.2,513.3z"/>
			<path d="M513.9,413.7c3.8,0,3.8,5,4.8,8.6c1,3.9-0.9,5.7-3.1,4.2s-7.7-8-6.2-10c1.7-2.2,3.2,1.3,4.3,0.6
				C514.8,416.6,511.2,413.7,513.9,413.7z"/>
		</g>
	</g>
	<g>
		<path class="st3" d="M1086.9,612.5c0.2-8.7-2.4-16.5-5.8-24c-3-6.3-6.9-12-13.1-15.9c-2.6-1.6-4.7-4-7-6.1c-1.9-1.8-6.8-5-10.1-5
			c-3.3,0-8.3,2.3-10.7,4.5s-5.1,6.8-6.6,10.6c-7.9,20.2-7.8,40.1,2.5,59.6c2,3.7,4.5,6.7,8.1,8.7c3.8,2.1,7.7,4.4,11.8,5.6
			c6.5,1.9,13.1,3.1,19.9,1c4.6-1.5,5.1-2,5.2-6.9c0-2.9-0.1-5.8-0.4-8.7c-0.4-4.3-1.4-8.7-1.6-13
			C1078.9,615.1,1079,615.1,1086.9,612.5z"/>
		<path class="st3" d="M1123.4,547.9c1.4-0.2,4.3-6.5,6.3-9.5c8.4-12.5,13.6-26.2,15.3-41.1c0.3-3,0.4-6.2-0.2-9.1
			c-1.1-5.4-3.8-10.3-7.1-14.7c-2.5-3.3-6.2-5.5-13.6-6.6c-7.4-1.1-17.1,1.4-21,6.3c-7.9,10-10.1,21.6-8.2,34
			c0.9,5.9,2.9,11.7,4.6,17.4c2.3,7.9,7.9,13.8,12.5,20.3C1120.8,538.3,1122,548.1,1123.4,547.9z"/>
		<g>
			<path d="M991.1,568.4c-0.4-12.4-3.9-75.7-4.3-90.9c-0.3-10.3,0.9-20.4,2.1-30.6c0.8-7.2,3-13.9,7-20c4.8-6.8,13.9-11.7,20.6-14.2
				c6.7-2.5,12.2-3.2,18.5-4.1c10.4-1.6,20.9-2.2,31.5-2.6c8.1-0.4,16.4-0.1,24.5,0.6c8.2,0.7,16.3,1.5,24.4,2.5
				c10.8,1.3,21,2.4,32.5,4.3c11.4,2,23.7,6.2,28.5,8c5.6,2.1,8.8,6.4,11.2,10.8c2.8,5.2,4.8,11.1,6,16.9c3.3,16.1,5.4,32.4,6,48.9
				c0.4,11.5,2.2,22.9,2.4,34.4c0.3,16-0.2,32-0.4,47.9c-0.1,9.3,0.2,18.6-0.7,27.9c-1.1,11.6-1.3,23.2-1.7,34.9
				c-0.2,5.6,0.2,11.3-0.3,16.9c-0.7,9.1-4.7,16.3-12.3,22c-9.7,7.2-20.8,9.5-32.2,11.3c-6.7,1.1-13.4,2-20.1,2.4
				c-12.2,0.6-61.7-1-74.1-2.8c-9-1.3-17.4-3.8-25.7-7.1c-6.4-2.5-31-7.8-35.4-35.3c-2.2-9.9-3.3-20.2-4.4-30.3
				c-1.2-11.4-1.8-22.9-2.6-34.4c-0.4-5.8-0.8-11.7-1.2-17.5C991,568.4,991.1,568.4,991.1,568.4z M1102.8,686.9
				c3.5,0,6.8,0.1,10.1,0c8-0.4,16-1,24.1-1.3c16.5-0.7,32.1-4.8,46.8-12.2c6-3.4,7.4-11,7.5-12.9c0.7-8.7,1.7-17.4,2-26.1
				c0.6-17.4-0.1-34.8,0.2-52.1c0.2-10.6,0.3-21.2-0.2-31.7c-1-20.1-2.4-40.1-3.9-60.1c-0.9-12.2-1.9-24.4-3.5-36.5
				c-1-7.8-3.2-15.5-7.7-22.1c-1.5-2.2-3.4-4.5-5.7-5.6c-4-2-8.4-3.6-12.8-4.5c-9.5-1.8-19-3.5-28.7-4.5c-8.1-0.8-52.4-3.6-52.4-3.6
				s-49.7-0.9-70.5,11.3c-1.1,0.7-2.1,1.4-3.2,2c-3.7,2.2-6.5,5.3-8,9.2c-5,9.1-5.3,31-5,41.1c0.3,8.8,0,17.6,0.5,26.3
				c0.4,7.8,3.3,48.8,3.9,61.6c0.4,7.5,0.9,15,1.4,22.4c0.4,6.7,0.6,13.4,1.2,20.1c1.2,12.7,2.3,25.4,4.2,38
				c0.8,5.3,3.2,10.4,5.4,15.4c7.5,11.6,23.2,16.3,33.5,19.2c11,3.1,22.1,4.5,33.4,5.6C1084.8,686.6,1094,686.6,1102.8,686.9z"/>
			<path d="M1070.9,419c12.2,0.5,25.1,0.4,37.8,1.9c13.6,1.6,45.2,5.7,51.7,8.6c8,3.6,18.5,12.7,21,24.7c1.5,7.5,2.5,15.1,3.4,22.7
				s1.7,15.2,2.1,22.9c0.5,9.1,0.5,18.2,0.8,27.3c0.1,6.2,0.4,12.3,0.3,18.5c-0.1,8.7-0.4,17.4-0.5,26.1
				c-0.2,10.4-0.2,20.9-0.5,31.3c-0.3,15.2-0.5,30.3-1.2,45.5c-0.4,8.9-6.2,14.2-13.9,17.2c-6.6,2.5-13.5,4.1-20.4,5.9
				c-10.4,2.8-21.1,4.1-31.9,4.3c-10.7,0.2-21.5,0.9-32.2,0.6c-15.8-0.5-31.2-3.2-46.1-8.5c-6-2.1-12-4.3-17.7-7
				c-6.7-3.1-10.8-9.1-12.5-15.9c-2.2-8.8-3.4-17.9-4.6-27c-1.6-11.9-2.8-23.9-3.9-35.9c-1.3-14.2-2.3-28.4-3.5-42.6
				c-0.7-9.1-1.6-18.2-2.1-27.3c-0.4-6.6-0.1-13.2-0.5-19.8c-0.4-7.3-1.1-44.1,3.6-51.2c5.5-9.7,14.4-14,19.8-15.9
				c6.3-2.2,30.5-6.2,42.7-6.4C1065.2,419,1067.7,419,1070.9,419z M1047.6,473.5c1-1.3,1.6-2,2.1-2.7c4.2-5.6,12.9-7.2,18-2.8
				c6.2,5.3,10.3,18.2,1.1,24.2c-0.9,0.6-1.7,1.5-2.6,2c-1.8,1-2.4,2.5-2.5,4.5c-0.3,9.1-0.8,18.3-1.1,27.4
				c-0.2,8.2,0.4,16.5-0.5,24.7c-0.5,4.6,0.5,7.6,3.9,10.5c4.4,3.8,8.6,7.9,12.9,11.8c8.5,7.7,12.9,17.5,14.6,28.6
				c0.5,3.2,1,6.4,1.5,9.6c2.8-0.4,5.5-0.8,8.1-1.2c-0.5-6.6,1.7-11,6.7-14c0.1-1,0.2-2,0.2-2.9c-0.3-12.4-0.7-24.9-0.9-37.3
				c0-5.1-1.8-9.1-4.9-12.9c-5.2-6.4-9.5-13.4-11.5-21.6c-0.9-3.7-1.8-7.5-3-11.1c-3.8-12.1-1.4-23.5,4.1-34.5
				c1.8-3.5,6-8.5,11.9-11.8s17.1-3.9,22.5-2.7c14.6,3.5,22.7,14.7,24.8,27.7c2.1,12.9,1.1,25.6-4.9,37.4c-4.1,8.1-8,16.4-14.2,23.3
				c-2,2.2-3.1,4.9-3,8c0.3,9.8,0.6,19.6,0.9,29.4c0.1,2.3,0.3,4.7,0.4,7c8.8-0.5,8.4,6.8,10.5,11.6c12.9-0.5,25.6-1,38.5-1.4
				c0.1-1,0.2-2.1,0.2-3.1c0-7.7-0.2-15.4,0.1-23.1c0.4-13.5,0.5-27,0.3-40.5c-0.2-16.1,0.1-32.2-2.1-48.2
				c-1.3-9.2-1.5-18.6-2.5-27.8c-1.5-14.1-12.7-25.9-26.4-29.5c-7.5-1.9-15-2.7-22.6-3.7c-5.9-0.7-11.8-1.8-17.8-2.2
				c-12.4-0.7-24.8-1.2-37.2-1.6c-13.4-0.4-48.7,4.8-52.4,5.8c-6.3,1.7-12,7.5-16,14s-3.3,40.5-2.9,46.3c0.4,6.5,0.3,13.1,0.7,19.6
				c0.8,12.9,1.7,25.8,2.7,38.7c0.9,11.3,2.1,22.5,3.2,33.8c1.1,11.6,2.2,23.3,3.6,34.9c1,8.1,2,16.3,3.9,24.3
				c1.6,6.9,5.1,13,13,14.9c0.7,0.2,1.4,0.5,2,0.9c12.7,6.3,26.3,9.8,40.3,11.9c2.8,0.4,5.8,0.1,8.7,0.1c0-4.9,0-9.7,0-14.5
				c-3,0.7-5.7,1.6-8.4,1.8c-2.7,0.2-5.5,0.1-8.2-0.3c-23.4-3.6-33.5-12.2-38.7-33.6c-4.2-17.1-3.1-34.5,5.1-50.7
				c1.9-3.7,4.2-7.5,7.2-10.2c3.3-3,4.5-6.4,4.6-10.5c0.4-16.8,0.7-33.5,1.2-50.3c0.2-5.2-0.7-9.4-5.3-12.9
				c-3.6-2.7-6.2-6.8-6.9-11.6c-0.7-5.4,1.5-7.9,6.8-8.3C1041.6,468.6,1044.4,470.7,1047.6,473.5z M1088.6,670.6
				c0.4,0.2,0.9,0.5,1.4,0.5c1.3,0.1,2.6,0.2,3.8,0.2c13.5-0.6,27-1,40.5-2c13.2-1.1,25.8-4.6,38-9.6c5.5-2.2,8.1-6.3,8.1-12.4
				c-0.1-9.3,0.2-18.6,0.3-27.9c0-2.9,0-5.7,0-8.4c-4.7,0.3-8.8,0.7-12.9,0.7c-18.1-0.1-36,1.6-53.9,4.6c-6.2,1.1-12.5,1.7-18.7,2.7
				c-1.7,0.3-3.3,1.2-5,1.9c-1.4,0.6-2.8,1.2-4,1.7C1087,638.5,1087.8,654.5,1088.6,670.6z M1086.9,612.5c0.2-8.7-2.4-16.5-5.8-24
				c-3-6.3-6.9-12-13.1-15.9c-2.6-1.6-4.7-4-7-6.1c-1.9-1.8-6.8-5-10.1-5c-3.3,0-8.3,2.3-10.7,4.5s-5.1,6.8-6.6,10.6
				c-7.9,20.2-7.8,40.1,2.5,59.6c2,3.7,4.5,6.7,8.1,8.7c3.8,2.1,7.7,4.4,11.8,5.6c6.5,1.9,13.1,3.1,19.9,1c4.6-1.5,5.1-2,5.2-6.9
				c0-2.9-0.1-5.8-0.4-8.7c-0.4-4.3-1.4-8.7-1.6-13C1078.9,615.1,1079,615.1,1086.9,612.5z M1123.4,547.9c1.4-0.2,4.3-6.5,6.3-9.5
				c8.4-12.5,13.6-26.2,15.3-41.1c0.3-3,0.4-6.2-0.2-9.1c-1.1-5.4-3.8-10.3-7.1-14.7c-2.5-3.3-6.2-5.5-13.6-6.6
				c-7.4-1.1-17.1,1.4-21,6.3c-7.9,10-10.1,21.6-8.2,34c0.9,5.9,2.9,11.7,4.6,17.4c2.3,7.9,7.9,13.8,12.5,20.3
				C1120.8,538.3,1122,548.1,1123.4,547.9z M1052.9,555.8c0.3-14,0.6-27.5,0.9-41c0.2-6.6,0.8-13.1,0.9-19.7c0-3.1,1.3-5,3.6-6.9
				c2.2-1.8,4.5-3.9,5.9-6.3c2.3-3.8,0.7-9.1-2.7-10.5c-2.8-1.2-6.8,1.2-8.5,5.2c-0.5,1.2,0,5.4-3.1,5.9c-1.5,0.2-3-2.7-4.3-4
				c-4.2-4.4-7.9-5.5-9.7-2.9c-1.8,2.6,10.4,14.5,12,17.1c1.6,2.6,0,42.1,0,63.3C1049.3,555.8,1050.9,555.8,1052.9,555.8z
				 M1116.6,548.3c-2.2-0.2-2.1,4.2-2.2,6c-0.2,6.6-0.1,13.1,0.2,19.7c0.2,5.1,0.8,10.1,1.2,15.2c0.2,2.7,0.4,5.3,0.7,8
				c0.2,1.9-0.1,3.1-2.2,3.7c-5.5,1.5-5.4,1.5-6,8c8.9,0.4,17.6-1,26.3-2.6c-0.1-8.4-6.6-3.9-10.2-5.2c-0.8-16.4-1.5-32.7-2.3-49.2
				C1120.7,550.9,1118.8,548.4,1116.6,548.3z"/>
			<path d="M1056.3,612.8c-2.7,1.4-5.3,0.9-5.9-0.9c-0.6-1.7-1.4-5.6,1.1-7.9c1.3-1.2,3-1.6,4.4-0.2
				C1058.6,606.4,1059,611.4,1056.3,612.8z"/>
			<path d="M1042.7,605.5c-0.1,2.4-2.3,4.5-4.7,4.3c-2-0.1-4-2.1-3.9-3.9c0.1-2,2.8-4.7,4.6-4.7
				C1041.2,601.2,1042.8,603,1042.7,605.5z"/>
			<path d="M1068.4,593.5c-1.7,0.9-5.5-0.8-5.6-3.9c0-1.3,1-3.6,2-3.8c1.5-0.4,3.9,0.1,4.9,1.1
				C1071.9,589.1,1070.1,592.6,1068.4,593.5z"/>
			<path d="M1048.5,629.7c-1.7,1-5.2-0.4-5.3-3.6c0-1.3,0.9-3.1,2-3.9c0.9-0.6,3.1-0.4,3.9,0.3
				C1051.4,624.7,1050.2,628.7,1048.5,629.7z"/>
			<path d="M1076.8,607.9c-1.8,1.3-5.3-0.7-5.5-3.7c-0.2-1.9,0.3-3.9,2.4-4.3c1.4-0.2,3.5,0.3,4.3,1.2
				C1080.1,603.6,1078.6,606.6,1076.8,607.9z"/>
			<path d="M1069.1,616.3c1.6,0.3,2.1,2,2.5,3.5c0.6,2-2.3,5.2-4,4.8c-1.8-0.4-3.3-1.6-3.2-3.8
				C1064.5,618.3,1067.5,616,1069.1,616.3z"/>
			<path d="M1052.5,573.3c2.8-0.1,3,2.2,3.3,4.1c0.4,2.3-1.2,3.3-3.2,3.5c-2.1,0.2-4.1-1.5-4.2-3.4
				C1048.4,575.3,1050.3,573.3,1052.5,573.3z"/>
			<path d="M1037.8,587.1c-0.5-1.5,0-5.3,3-5.8c1-0.2,2.6,1.1,3.3,2.1c1.3,1.6,1,3.7-0.6,4.9
				C1041.4,590.1,1038.3,588.6,1037.8,587.1z"/>
			<path d="M1064.3,641.4c-1.1,1.5-2.9,0.9-3.6,0c-0.8-0.9-0.8-0.9-0.9-1.4c-0.5-1.7-1.4-3.6,0.5-4.9c0.6-0.4,2,0,2.9,0.4
				c2.1,1,2.8,2.7,1.9,5C1064.9,640.8,1065.4,640,1064.3,641.4z"/>
			<path d="M1054,589c3,0.1,2.9,3.4,3.3,4.9c0.5,1.6-0.7,2.7-2.5,2.7c-2.2,0.1-3.8-0.9-3.7-3C1051.2,592.4,1051,588.9,1054,589z"/>
			<path d="M1111.8,491.2c-2,0-3.6-1.9-3.7-4.5c-0.1-3.2,2.7-6.7,5.2-6.5c2.2,0.1,4.1,2.1,4.1,4.2
				C1117.4,487.6,1114.5,491.2,1111.8,491.2z"/>
			<path d="M1126.8,495.5c-1.5-1.5,0-5.4,2.8-6.3c1.1-0.4,3,0.9,4.1,1.9c0.5,0.6,0.3,2.5-0.2,3.4
				C1131.7,497.3,1128.4,497,1126.8,495.5z"/>
			<path d="M1117.6,528.8c0,1.4-1.5,2.3-2.8,2.7c-1.7,0.6-3.7-2.1-3.8-4.4c0-2.1,0.8-3.5,3.2-3.4
				C1116.6,523.9,1117.6,527.4,1117.6,528.8z"/>
			<path d="M1126.7,521.5c-0.2-1.7,0.6-5.6,4.4-5.4c1,0.1,2.2,0.3,2.9,1.7c0.7,1.4-0.2,3.9-1.3,4.9
				C1130.6,524.8,1126.9,523.2,1126.7,521.5z"/>
			<path d="M1134.7,510c-2.6-0.2-3.1-1.8-2.5-4.9c0.6-3.1,4.7-3.8,6.4-2.1C1140.3,504.6,1137.3,510.2,1134.7,510z"/>
			<path d="M1120.8,506.9c0.6,1.5-0.9,4.1-3.5,3.6c-1.8-0.4-3.7-1-3.8-3.2c-0.1-0.9,0.4-2.4,1.1-2.8
				C1117.3,503,1120.3,505.4,1120.8,506.9z"/>
			<path d="M1105.8,505.6c0.5,1.7-1.2,4.5-3.2,5s-4-1.2-3.6-3.5c0.3-1.4,1.4-3.4,2.4-3.6C1102.7,503.4,1105.3,503.9,1105.8,505.6z"
				/>
		</g>
		<rect x="1082" y="629.7" class="st0" width="104.9" height="26.4"/>
		<g class="st1">
			<path class="st3" d="M1108.5,637.1c0,1-0.1,1.8-0.4,2.5c-0.3,0.7-0.7,1.3-1.2,1.8c-0.6,0.5-1.3,0.8-2.3,1.1
				c-0.9,0.2-2.1,0.3-3.4,0.3h-2.9v4.5c0,0.4-0.1,0.6-0.3,0.8c-0.2,0.2-0.5,0.3-0.8,0.3h-2.3c-0.4,0-0.6-0.1-0.8-0.3
				s-0.3-0.5-0.3-0.8v-16.5c0-0.4,0.1-0.6,0.3-0.8s0.5-0.3,0.8-0.3h6.4c2.6,0,4.5,0.5,5.6,1.5c1.1,1,1.7,2.5,1.7,4.6V637.1z
				 M1101.2,633.7h-2.9v5.5h2.9c1,0,1.7-0.2,2.1-0.5c0.4-0.4,0.6-1,0.6-2v-0.3c0-1-0.2-1.7-0.6-2.1
				C1102.8,633.9,1102.1,633.7,1101.2,633.7z"/>
			<path class="st3" d="M1124,639.4v1.5c0,2.5-0.6,4.4-1.9,5.7c-1.3,1.3-3.2,2-5.6,2c-2.6,0-4.5-0.6-5.7-1.9
				c-1.2-1.3-1.8-3.2-1.8-5.8v-1.5c0-2.5,0.6-4.4,1.8-5.7c1.2-1.3,3.1-1.9,5.7-1.9c2.6,0,4.4,0.6,5.7,1.9S1124,636.9,1124,639.4z
				 M1119.4,640.7v-1c0-1-0.1-1.7-0.3-2.3c-0.2-0.6-0.5-0.9-1-1.2s-1-0.3-1.7-0.3c-1,0-1.8,0.3-2.2,0.8c-0.5,0.6-0.7,1.5-0.7,2.9v1
				c0,1.4,0.2,2.4,0.7,2.9s1.2,0.8,2.2,0.8c0.7,0,1.3-0.1,1.7-0.3c0.4-0.2,0.7-0.6,1-1.1C1119.3,642.4,1119.4,641.6,1119.4,640.7z"
				/>
			<path class="st3" d="M1134.7,642c0,2.3-0.4,3.9-1.1,5c-0.7,1-1.9,1.6-3.7,1.6c-1.8,0-3.1-0.5-4-1.5c-0.8-1-1.2-2.6-1.2-4.8V633
				c0-0.4,0.1-0.6,0.3-0.8c0.2-0.2,0.5-0.3,0.8-0.3h2.3c0.4,0,0.6,0.1,0.8,0.3c0.2,0.2,0.3,0.5,0.3,0.8v8.3c0,1,0.2,1.6,0.5,2.1
				c0.4,0.4,1,0.7,1.9,0.7c0.4,0,0.8,0,1.1-0.1c0.3-0.1,0.6-0.2,0.9-0.5c0.3-0.2,0.5-0.6,0.6-1c0.1-0.4,0.2-1,0.2-1.6V633
				c0-0.4,0.1-0.6,0.3-0.8c0.2-0.2,0.5-0.3,0.9-0.3h2.3c0.4,0,0.6,0.1,0.8,0.3c0.2,0.2,0.3,0.5,0.3,0.8v14.3c0,0.4-0.1,0.6-0.3,0.8
				c-0.2,0.2-0.5,0.3-0.8,0.3h-2.3c-0.4,0-0.6-0.1-0.8-0.3c-0.2-0.2-0.3-0.5-0.3-0.8V642z"/>
			<path class="st3" d="M1143.7,648.4h-2.3c-0.4,0-0.6-0.1-0.8-0.3s-0.3-0.5-0.3-0.8v-16.5c0-0.4,0.1-0.6,0.3-0.8s0.5-0.3,0.8-0.3
				h2.3c0.4,0,0.6,0.1,0.8,0.3c0.2,0.2,0.3,0.5,0.3,0.8v16.5c0,0.4-0.1,0.6-0.3,0.8C1144.3,648.3,1144.1,648.4,1143.7,648.4z"/>
			<path class="st3" d="M1160.5,644.6c-0.3,1.2-1.1,2.2-2.4,2.9s-2.9,1-4.9,1c-2.6,0-4.5-0.6-5.7-1.9c-1.2-1.3-1.8-3.2-1.8-5.8v-1.5
				c0-2.5,0.6-4.4,1.9-5.7c1.2-1.3,3.2-1.9,5.8-1.9c2.4,0,4.3,0.5,5.6,1.6c1.3,1.1,1.9,2.7,1.9,4.7v1.6c0,0.3-0.1,0.6-0.3,0.8
				c-0.2,0.2-0.4,0.3-0.8,0.3h-9.4c0,1.5,0.2,2.5,0.7,3.1c0.5,0.6,1.2,0.8,2.2,0.8c0.8,0,1.4-0.1,1.8-0.3c0.4-0.2,0.8-0.5,0.9-0.9
				c0-0.1,0.1-0.2,0.2-0.5c0.1-0.4,0.2-0.7,0.4-0.9c0.2-0.2,0.5-0.2,0.9-0.2h2.2c0.7,0,1.1,0.4,1.1,1.2
				C1160.7,643.8,1160.6,644.2,1160.5,644.6z M1153.3,635.6c-0.9,0-1.7,0.2-2.1,0.6s-0.8,1.1-0.9,2.2h5.8v-0.1c0-1-0.2-1.7-0.7-2.1
				S1154.3,635.6,1153.3,635.6z"/>
			<path class="st3" d="M1167.4,647.3c0,0.4-0.1,0.7-0.3,0.9c-0.2,0.2-0.5,0.3-0.9,0.3h-2.3c-0.4,0-0.6-0.1-0.8-0.3
				s-0.3-0.5-0.3-0.9v-11.7h-1.2c-0.7,0-1-0.4-1-1.1v-1.6c0-0.7,0.3-1,1-1h1.2v-0.7c0-0.4,0.1-0.7,0.3-0.9s0.5-0.3,0.8-0.3h2.3
				c0.4,0,0.7,0.1,0.9,0.3c0.2,0.2,0.3,0.5,0.3,0.9v0.7h2c0.7,0,1,0.4,1,1.1v1.4c0,0.4-0.1,0.6-0.3,0.8c-0.2,0.2-0.4,0.3-0.8,0.3h-2
				V647.3z"/>
		</g>
	</g>
	<g>
		<g>
			<path class="st3" d="M848.1,507.8l-3-0.3c2.3-21.9,16.4-39.7,37.8-47.6c26.3-9.7,56.6-2.6,79.2,18.7l-2.1,2.2
				c-21.7-20.5-50.9-27.4-76.1-18.1C863.7,470.1,850.3,487,848.1,507.8z"/>
			<g>
				<polygon class="st3" points="960.1,471.8 960.3,479 953.1,479.2 956.2,482.1 963.4,482 963.3,474.8 				"/>
			</g>
		</g>
	</g>
	<g>
		<g>
			<g>
				<path d="M902.1,594.7c-0.7-0.5-1.8-1-2-1.7c-0.9-5.1-4.5-6.4-8.7-6.6c-0.9-1.5-1.6-2.9-2.5-4c-2.1-2.4-3.7-2.6-6.3-0.7
					c-1.2,0.9-2.3,2-3.4,3c-1.4,1.3-2.7,2.6-4.7,4.5c0-4.2-2.9-6.9-2-10.7c1.2-4.9,1.5-9.8,1.1-14.9c-0.5-6.4-2.3-12.1-5.6-17.6
					c-3.6-6.2-8.5-10.2-15.8-11c-1.2-0.1-2.3-0.6-3.7-0.9c0.8-3.1,0.4-5.9-1.6-8.5c-2.5-3.2-5.7-4-8.9-1.7c-1.8,1.3-3.8,4.6-5.1,4.5
					c-1.3-0.1-2.8-3.2-5.3-1.8c-1.8,1.1-2.9,2.7-2.7,4.9c0.1,1,0.3,2.1,0.7,3.1c0.5,1.1,1.2,2,1.8,2.9c-2.7,1.9-5.2,3.5-7.6,5.4
					c-4.8,3.7-7.8,8.5-8,14.8c-0.2,5.1,0.6,10.1,2.6,14.8c2.1,4.8,4.4,9.6,6.7,14.6c-2,2.2-4,4.6-6.3,7.1c-3.9-3.1-8.2-3.5-12.4-1
					c-2.4,1.5-2.8,4.2-1.4,7c-2.5,1.7-4.8,3.8-3.8,6.8c0.8,2.5,3.4,4.1,0.5,6.2c-4.7,3.5-0.2,9.2,5.6,8.3c1.1-0.2,2.2-0.4,3.5-0.6
					c0.6,5.3,3.5,9,7,12.3c5.3,4.8,11.5,7.9,18.5,9.4c2.4,0.5,4,1.4,4,4c0,2.9,0.3,7.7,0,8.7s-4.2,0.8-6.2,1.1
					c-1.5,0.2-2.2,1.1-2,2.5c0.3,1.7,1.1,2.9,3.1,2.5c1.2-0.2,2.4-0.4,3.6-0.6c6.5-1.3,12-4,18.6-0.6c0.5,0.3,2.4,0.2,3.1,0
					c5.7-0.9,11.5-1.6,17.1,0.4c1.3,0.5,5,1.4,5.7,0.4s-0.2-2.2-0.6-2.5c-0.7-0.5-1.6-0.9-2.4-1.2c-3.7-1.2-10.6-2.5-11.3-3.4
					c-0.7-0.9,0-7.9,0-12c17-5.2,28.4-14.3,25.6-34c4,0.7,7.2,0,10.6-2.3C906,602.7,906.2,597.9,902.1,594.7z M831.5,532.4
					c3.1,2.9,3,2.8,5.1-0.5c0.9-1.4,2.1-2.6,3.3-3.6c1.4-1.2,2.9-1.6,4.5-0.3c1.5,1.3,1,2.7,0.2,4.1c-0.4,0.7-0.8,1.3-1.1,1.8
					c-4.6,0.8-8.7,1.4-12.9,2.1c-0.6-1-2.3-2.1-2.3-3.7C828.3,530.7,830.6,531.5,831.5,532.4z M815.9,564.8c-1.5-7,0.7-13,6.4-17.4
					c4.7-3.6,9.5-7,15.7-7.8c6.7-0.8,13.2,0.1,19.6,2.1c3.7,1.1,5.6,4.3,7.2,7.3c4.6,8.6,5.6,17.9,3.5,27.4c-0.4,1.8-1.1,2.9-3,3.5
					c-1.4,0.4-2.7,1.4-4,2.2c-1.5,0.8-2.6,0.3-3.6-0.9c-3.9-4.6-4.4-4.6-8.7-0.6c-0.8,0.7-1.5,1.4-2.2,2.1c-1.7-1.8-3.3-5.8-5.3-5.7
					c-2,0.2-2.4,3.5-3.4,5c-1.9,2.6-3.2,2.7-5.6,0.5c-0.1-0.1-0.2-0.2-0.3-0.3c-5-4.9-5-4.9-9.2,0.8
					C819.7,577.3,817.3,571.2,815.9,564.8z M807,616c-2.4,0.4-6.1,3.9-7.4,1.4c-1.1-2.1,4.8-3.3,5.2-5.2c0.4-1.9-4-3-4-5.4
					c0-3.1,5.7-1.5,7.3-4.3c-0.4-2.5-3.4-3.6-3.1-4.8s3.6-1.9,7.4,0C810.9,601.4,806.8,610.6,807,616z M861,654
					c-6.3,3.9-9.2-1.3-20.3,0.4c-0.2-3.4-0.4-6.6-0.6-10c7.1-0.6,13.9-1.3,20.9-1.9C861,646.8,861,650.3,861,654z M880.1,629.5
					c-6.4,5.3-14.1,7.7-22.3,8.4c-5.2,0.5-10.3,1.3-15.5,1.1c-9.3-0.5-18-2.6-25.6-8.8c-5.7-4.6-6.4-10-5.5-16.3
					c1-6.8,4.6-12.6,8.2-18.1c1.7-2.7,4.8-4.5,6.4-7.5c0.7-1.3,1.6-2.5,2.7-4.1c8.6,5.9,8.9,2.9,14.2-1c1.2-0.9,5.2,5.6,8.7,1.5
					c0.7-0.8,1.2-1.7,1.7-2.6c6.4,5.8,6.9,5.8,12.9,2.2c0.7,0.4,1.4,0.9,2.2,1.1c0.8,0.3,1.2,0,1.9-0.1c1.3,5.3,4.6,8.7,9.1,11.9
					C890.2,605.4,891.2,620.3,880.1,629.5z M889.4,604c-2.4-5.1-5.5-9.5-10.6-12.6c2.4-2.6,5.8-8.2,8.5-6.4s-3.2,6.2-1.3,7.7
					s7.2-3.5,9.3-0.4c0.8,1.2-1.2,1.4-1.9,1.7c-1.6,0.6-2.4,1.7-1.7,3.1c0.6,1,2.9,0.9,4.9,0.9s4.9-0.5,4.9,1.6
					C901.5,601.7,893.9,603.4,889.4,604z"/>
			</g>
			<path d="M845.8,553.8c0.3,0.4,0.5,0.5,0.5,0.6c0.6,1.4,1.5,2.7,1.9,4.3c0.3,1.5-4,7.7-6.2,11.9c-3.9-3-6.9-5.8-7.7-10.3
				c-0.3-1.8,0.1-2.9,1.5-3.9C838.8,554.4,842,552.9,845.8,553.8z M837.4,560.6c0,1.8,2.4,2.6,3.5,3.8c0.9-2.2,3.6-6.1,2.6-6.7
				C842.5,557.1,837.4,558.8,837.4,560.6z"/>
			<path d="M824.9,554.8c2.6-1.2,5.5,9,2.7,10C824.8,565.7,822.3,556,824.9,554.8z"/>
			<path d="M857.9,560c-3.2,1.7-4.9-8.2-2.3-8.2S861.1,558.3,857.9,560z"/>
		</g>
		<path class="st3" d="M831.5,532.4c3.1,2.9,3,2.8,5.1-0.5c0.9-1.4,2.1-2.6,3.3-3.6c1.4-1.2,2.9-1.6,4.5-0.3c1.5,1.3,1,2.7,0.2,4.1
			c-0.4,0.7-0.8,1.3-1.1,1.8c-4.6,0.8-8.7,1.4-12.9,2.1c-0.6-1-2.3-2.1-2.3-3.7C828.3,530.7,830.6,531.5,831.5,532.4z"/>
		<path class="st3" d="M807,616c-2.4,0.4-6.1,3.9-7.4,1.4c-1.1-2.1,4.8-3.3,5.2-5.2c0.4-1.9-4-3-4-5.4c0-3.1,5.7-1.5,7.3-4.3
			c-0.4-2.5-3.4-3.6-3.1-4.8s3.6-1.9,7.4,0C810.9,601.4,806.8,610.6,807,616z"/>
		<path class="st3" d="M880.1,629.5c-6.4,5.3-14.1,7.7-22.3,8.4c-5.2,0.5-10.3,1.3-15.5,1.1c-9.3-0.5-18-2.6-25.6-8.8
			c-5.7-4.6-6.4-10-5.5-16.3c1-6.8,4.6-12.6,8.2-18.1c1.7-2.7,4.8-4.5,6.4-7.5c0.7-1.3,1.6-2.5,2.7-4.1c8.6,5.9,8.9,2.9,14.2-1
			c1.2-0.9,5.2,5.6,8.7,1.5c0.7-0.8,1.2-1.7,1.7-2.6c6.4,5.8,6.9,5.8,12.9,2.2c0.7,0.4,1.4,0.9,2.2,1.1c0.8,0.3,1.2,0,1.9-0.1
			c1.3,5.3,4.6,8.7,9.1,11.9C890.2,605.4,891.2,620.3,880.1,629.5z"/>
		<path class="st3" d="M889.4,604c-2.4-5.1-5.5-9.5-10.6-12.6c2.4-2.6,5.8-8.2,8.5-6.4s-3.2,6.2-1.3,7.7s7.2-3.5,9.3-0.4
			c0.8,1.2-1.2,1.4-1.9,1.7c-1.6,0.6-2.4,1.7-1.7,3.1c0.6,1,2.9,0.9,4.9,0.9s4.9-0.5,4.9,1.6C901.5,601.7,893.9,603.4,889.4,604z"/>
	</g>
	<g>
		<rect x="539" y="675.5" class="st0" width="104.9" height="26.4"/>
		<g class="st1">
			<path class="st2" d="M573.2,696c-3.2,0-5.5-0.7-6.9-2.1c-1.4-1.4-2.2-3.7-2.2-7v-2.6c0-5.9,3-8.9,9.1-8.9c5.6,0,8.6,2.4,9,7.1
				c0,0.1,0,0.2,0,0.3c0,0.2,0,0.3,0,0.3c0,0.3-0.1,0.6-0.3,0.8c-0.2,0.2-0.5,0.3-0.8,0.3h-2.7c-0.4,0-0.7-0.1-0.9-0.3
				c-0.2-0.2-0.3-0.5-0.3-0.8c0-0.3-0.1-0.5-0.1-0.6c-0.2-0.9-0.6-1.6-1.3-2.1c-0.6-0.4-1.6-0.6-2.7-0.6c-1,0-1.7,0.1-2.3,0.4
				c-0.6,0.3-1,0.8-1.3,1.5c-0.3,0.7-0.5,1.6-0.5,2.8v2.3c0,1.7,0.3,2.9,1,3.6s1.7,1.1,3.1,1.1c1.2,0,2.2-0.2,2.8-0.7s1-1.3,1.2-2.4
				c0-0.1,0.1-0.2,0.1-0.5c0-0.8,0.4-1.1,1.2-1.1h2.7c0.4,0,0.6,0.1,0.8,0.3c0.2,0.2,0.3,0.5,0.3,0.8l-0.1,0.6
				c-0.2,2.6-1,4.5-2.5,5.7C578.2,695.4,576,696,573.2,696z"/>
			<path class="st2" d="M600.4,686.1v1.6c0,2.7-0.7,4.8-2.1,6.2c-1.4,1.4-3.4,2.1-6.1,2.1c-2.8,0-4.9-0.7-6.2-2.1
				c-1.3-1.4-2-3.5-2-6.3v-1.6c0-2.7,0.7-4.8,2-6.2c1.3-1.4,3.4-2.1,6.2-2.1c2.8,0,4.8,0.7,6.2,2.1
				C599.8,681.3,600.4,683.3,600.4,686.1z M595.4,687.4v-1.1c0-1-0.1-1.9-0.4-2.5c-0.2-0.6-0.6-1-1-1.3c-0.5-0.2-1.1-0.4-1.8-0.4
				c-1.1,0-1.9,0.3-2.4,0.9c-0.5,0.6-0.7,1.7-0.7,3.2v1.1c0,1.5,0.2,2.6,0.7,3.2s1.3,0.9,2.4,0.9c0.8,0,1.4-0.1,1.8-0.3
				c0.5-0.2,0.8-0.6,1-1.2C595.3,689.3,595.4,688.5,595.4,687.4z"/>
			<path class="st2" d="M613.7,683.5V681c0-0.7,0.3-1.1,1-1.3c1.2-0.4,2.2-0.9,2.9-1.5c0.1-0.2,0.3-0.3,0.6-0.3
				c0.3,0,0.5,0.1,0.5,0.4v17.6c0,0.4-0.1,0.7-0.3,0.9s-0.5,0.3-0.9,0.3H615c-0.4,0-0.7-0.1-0.9-0.3c-0.2-0.2-0.3-0.5-0.3-0.9v-6.7
				c0,2-0.4,3.4-1.2,4.4c-0.8,1-2.1,1.4-4,1.4c-2.2,0-3.8-0.6-4.8-1.8c-1-1.2-1.4-3.2-1.4-5.9v-1.8c0-2.6,0.5-4.5,1.5-5.8
				c1-1.3,2.6-1.9,4.7-1.9c1.8,0,3.1,0.5,4,1.5C613.3,680.2,613.7,681.7,613.7,683.5z M607.3,686.3L607.3,686.3
				c0,1.3,0.1,2.3,0.4,2.9c0.2,0.7,0.6,1.2,1,1.4c0.5,0.3,1.1,0.4,1.8,0.4c0.5,0,0.9,0,1.2-0.1c0.4-0.1,0.7-0.2,1-0.4
				c0.3-0.2,0.5-0.5,0.7-0.9c0.2-0.4,0.2-0.9,0.2-1.5v-3.6c0-0.5-0.1-0.9-0.2-1.2c-0.1-0.3-0.3-0.6-0.4-0.8
				c-0.2-0.2-0.4-0.4-0.7-0.5c-0.3-0.1-0.6-0.2-0.9-0.3c-0.3,0-0.6-0.1-1-0.1c-0.8,0-1.4,0.1-1.8,0.4c-0.5,0.3-0.8,0.7-1,1.4
				C607.4,684.2,607.3,685.1,607.3,686.3z"/>
		</g>
	</g>
	<g>
		<path class="st3" d="M521.9,569.5c-1.2,0.1-0.1-22.3-0.4-31.7c-0.3-9.9-2.6-19.5-6-28.8c-1.4-3.6-10.1-20.9-11.8-21.6
			c-1-0.4,7.8,28.5,9,36.5c0.7,4.4,1.7,12,2.3,18.1c0.5,5.7,1.6,19.1,0.5,19.7c-1.2,0.6-5.6-1.8-6-6.3c-0.4-3.9-2-9.1-3.5-11.2
			c2.5,7.8,2.2,15.9,2.8,23.9c0.5,6.9,0.6,10.7,6.2,19.5c5.6,8.9,18,18.1,24.6,21.7c7.7,4.2,16,6.9,24.4,9.4
			c10.5,3,20.9,2.8,31.3,0.3c8.5-2,15.9-6.4,23.2-11.1c15-9.5,25.1-23,32.4-38.7c1.9-4,3.2-8.3,4.4-12.5c1.3-4.4,2.3-9,3.4-13.7
			c-3.2,1.5-6.3-0.5-7.1-1.7c-0.8-1.2-0.6-6.9-3.1-9.8c-0.6,1.6-0.9,2.9-1.5,4.2c-0.9,1.8-2.2,3.5-4.3,3.4c-2.2-0.2-3.8-1.6-4.3-3.9
			c-0.1-0.6-0.3-1.1-0.6-1.9c-1.2,1.8-2,3.4-3.1,4.8c-2.2,2.7-4.6,2.4-6.3-0.6c-0.5-0.9-0.9-1.8-1.4-2.9c-1.1,1.1-1.8,1.9-2.6,2.6
			c-0.8,0.7-1.7,1.5-2.6,2.1c-2.2,1.5-3.8,1.2-5.4-0.8c-0.6-0.8-1-1.6-1.5-2.5c-6.4-11.3-17.4-15.8-29.1-18
			c-11-2.1-21.9-0.7-32.4,3.8c-8.7,3.7-15.3,9.6-19.9,17.6c-4.3,7.4-5.8,15.8-7.2,24.2C525.6,566.1,523.1,569.4,521.9,569.5z"/>
		<path class="st3" d="M617.4,451.1c-2.1,0-9.4,7-0.9,13.6c0.7-0.8,1.5-1.6,2.2-2.5c6.1-7.6,13.5-12.1,23.7-10.8
			c0.8,0.1,2.2-0.8,2.5-1.5c3.6-7.7,5-15.4,0.9-23.5c-1.6-3.3-4.5-4.4-7.5-1.2c-3.9,4.1-4.7,9-3.1,14.3c0.5,1.7,0.3,3.8-1.2,4.2
			s-2.3-1.4-3.6-1.9c-2.3-0.8-4.9-0.9-6.7,0.6c-2,1.6-2.9,4-1.8,6.8c0.3,0.9,1.1,2,0,3C620.6,453.2,619.5,451.2,617.4,451.1z"/>
		<path class="st3" d="M671.2,496.1c-0.2,0.2-0.4,5-0.6,7.6c-0.1,2.6,1.5,6.5,3.2,9.3c1.2,1.9,2.2,2.1,4.1,0.9
			c2.5-1.6,3.2-4.8,1.2-7.6C677.2,503.4,673.6,498.8,671.2,496.1z"/>
		<g>
			<path d="M613.2,616.7c0,3.9,0.1,7.4,0,10.8s-1.2,6.4-4.2,8.6c-2.5,1.8-1.8,4.7-1.8,7.7c7.5-0.6,11.7,3.9,14.8,9.9
				c0.5,0.9,0.2,2.6-1.2,2.4c-1.4-0.2-5.1-5.7-7.3-7.3c-2.3-1.7-3.7-1.7-5.8-0.3c-3.1,2-8.9,6-10,6.2c-1.1,0.2-3-0.6-3.3-2
				c-0.3-1.4,4.5-3.9,6.7-5.2c1.9-1.2,2.7-2.6,2.4-4.8c-0.2-1.3,0-2.7,0-4.1c-4.5-0.1-6.6-1.7-7.1-5.9c-0.4-3-0.4-6.1-0.5-9.2
				c-1.7,0.3-3.4,0.6-4.7,0.8c-0.9,3.1-1.7,6-2.6,8.8c-0.3,1.9-3.8,5.8-7.5,4.5c0.3,3.8,0.5,6.5,0.8,10.7c7.2-0.3,10.6,4.6,13.9,9.7
				c0.7,1.1,1.7,2.2,0.2,3.2c-1.3,0.9-2.3-0.2-3.1-1.2c-1.2-1.4-2.2-2.8-3.4-4.2c-3.6-4.3-5.3-4.7-10.4-2.4
				c-2.5,1.1-8.3,7.3-9.8,7.3s-3.2-2.6-1-4.7c2-1.9,4.1-3.9,6.5-5.1c2.4-1.2,3.2-2.8,2.9-5.3c-0.3-2.8-0.5-5.5-0.7-8.3
				c-4.3-3.4-4.4-3.6-6-12.5c-6.8-2.1-13.6-4-20.2-6.4c-5.1-1.8-10.2-3.8-14.9-6.5c-11.8-6.7-21.5-15.7-27.8-27.8
				c-2.2-4.3-3.6-9-3.8-14c-0.3-7.4-0.3-14.7-1.8-22c-1.2-5.8-2.9-11.3-5.7-16.5c-1.2-2.3-0.6-5.3,0.4-6.1c1-0.9,2.7,0.6,3.7,1.9
				c3.8,5.1,7.5,10.3,10.1,16.4c-0.8-5.6-1.5-11.2-2.5-16.8c-1-5.7-2.2-11.4-3.5-17.1c-1.3-5.5-2.4-11.2-4.2-16.5
				c-1.8-5.4-6.5-13.8-6-16s3.5-1.3,6.1,1.7c3.7,4.3,7.8,8.3,11.2,12.8c1.9,2.5,2.9,5.6,4.3,8.5c4.7,9.6,6.9,19.9,8.7,30.3
				c0.7,4.1,0.8,8.2,1.2,12.2c2.2-3.6,4.2-7.5,6.7-11c6.2-8.6,14.8-13.8,24.9-16.4c12.7-3.3,25.6-3.9,38.1,1.1
				c7.3,2.9,14.6,6.3,19.2,13.3c0.4,0.6,0.9,1,1.6,2c1-4,1.2-7.5,0.5-11.2c-1.3-7.2-2.4-14.5-3.5-21.7c-0.2-1.2-0.4-2.5-0.8-3.7
				c-2.9-8.9-1.9-17.5,1.3-26.1c0.1-0.3,0.1-0.5,0.2-0.9c-1.2-1.4-2.5-2.9-3.6-4.4c-4.7-6.7-1.8-14.1,6.2-15.8
				c0.7-8.2,2.6-9.6,13-9.9c0.4-2.7,0.6-5.4,1.2-8.1c0.6-2.7,2-5.1,4.1-7.1c3.5-3.2,7.1-3.9,10.8-0.9c1.9,1.5,3.7,3.7,4.3,5.9
				c1.9,6.5,2.3,13.1-0.3,19.6c-0.6,1.4-1,2.9-1.6,4.6c10.2,3.9,16,11.8,20.2,21.7c5.2,2.3,11.2,2.3,17.1,2.4c1.4,0,3-0.7,4.3-1.3
				c2.2-0.9,3.7-0.5,5,2.1c-7.2,5.7-16.3,7.8-23.8,13c1.1,3.9,3.5,6.3,6.1,8.6c2.9,2.5,5.1,5.4,6.2,9.1c0.9,3-0.1,8-3.5,9.4
				c-2,0.9-4,1.3-6.9,0.7c-0.5,2.1-1,5.7-1.9,8.4c-1.1,3.4-2.5,6.7-3.7,10.1c-0.2,0.6-0.8,1.4-1.6,2.3c-4.8,3.5-4.2,8.6-5.5,13.6
				c-1.1,4.3-2.6,8.4-3.9,12.7c-0.3,0.9-0.8,1.8-1.1,2.7c-2.2,7.5-6.2,14.1-10.7,20.5c-4.2,6.1-8.6,11.9-14.5,16.5
				c-3.3,2.6-6.7,5-10,7.4C617.9,613.6,615.4,615.3,613.2,616.7z M521.9,569.5c-1.2,0.1-0.1-22.3-0.4-31.7c-0.3-9.9-2.6-19.5-6-28.8
				c-1.4-3.6-10.1-20.9-11.8-21.6c-1-0.4,7.8,28.5,9,36.5c0.7,4.4,1.7,12,2.3,18.1c0.5,5.7,1.6,19.1,0.5,19.7
				c-1.2,0.6-5.6-1.8-6-6.3c-0.4-3.9-2-9.1-3.5-11.2c2.5,7.8,2.2,15.9,2.8,23.9c0.5,6.9,0.6,10.7,6.2,19.5
				c5.6,8.9,18,18.1,24.6,21.7c7.7,4.2,16,6.9,24.4,9.4c10.5,3,20.9,2.8,31.3,0.3c8.5-2,15.9-6.4,23.2-11.1
				c15-9.5,25.1-23,32.4-38.7c1.9-4,3.2-8.3,4.4-12.5c1.3-4.4,2.3-9,3.4-13.7c-3.2,1.5-6.3-0.5-7.1-1.7c-0.8-1.2-0.6-6.9-3.1-9.8
				c-0.6,1.6-0.9,2.9-1.5,4.2c-0.9,1.8-2.2,3.5-4.3,3.4c-2.2-0.2-3.8-1.6-4.3-3.9c-0.1-0.6-0.3-1.1-0.6-1.9c-1.2,1.8-2,3.4-3.1,4.8
				c-2.2,2.7-4.6,2.4-6.3-0.6c-0.5-0.9-0.9-1.8-1.4-2.9c-1.1,1.1-1.8,1.9-2.6,2.6c-0.8,0.7-1.7,1.5-2.6,2.1
				c-2.2,1.5-3.8,1.2-5.4-0.8c-0.6-0.8-1-1.6-1.5-2.5c-6.4-11.3-17.4-15.8-29.1-18c-11-2.1-21.9-0.7-32.4,3.8
				c-8.7,3.7-15.3,9.6-19.9,17.6c-4.3,7.4-5.8,15.8-7.2,24.2C525.6,566.1,523.1,569.4,521.9,569.5z M654.9,540.1
				c0.8,0.6,8.2-2.1,10.7-8.2c2.6-5.5,3-11.5,4-17.3c0.1-0.5-0.1-1.1-0.4-1.6c-2.1-4-2.2-8.1-1.6-12.5c0.4-2.7-0.1-7.7-1.8-8.9
				c-1.4-1-2.4-8.3-2.4-10.3c0-2.4,1.2-4.8,1.8-7.2c-2.3-4.2-4.6-8.5-8.1-12.3c-5.9-6.4-16.6-9.3-24.7-5.6
				c-7.2,3.3-12.3,9.2-15.2,16.4c-2.6,6.3-2.4,13-0.9,19.7c1.3,5.8,2.7,11.6,3.6,17.5c1.1,6.7,2.6,13.4,1.3,20.2
				c-0.3,1.6-0.5,3.3-0.7,5c1.7-1.5,2.8-3.2,3.9-4.9c0.8-1.2,1.6-2.3,3.4-1.8c1.5,0.4,2.4,1.3,2.6,2.9c0.2,1.4,0.6,2.7,1,4.1
				c1.8-2.2,2.8-4.4,3.9-6.6c1.1-2.2,2.9-2.4,4.4-0.6c0.7,0.8,1.1,1.8,1.5,2.8c0.4,1.4,0.6,2.9,0.9,4.3c0.9-1,1.3-2,1.7-3
				c0.4-1.1,0.6-2.1,1-3.2c1.1-2.6,3.1-3.2,5.2-1.3c2.4,2.2,4.1,4.9,4.4,8.2C654.6,537.1,654.1,539.4,654.9,540.1z M617.4,451.1
				c-2.1,0-9.4,7-0.9,13.6c0.7-0.8,1.5-1.6,2.2-2.5c6.1-7.6,13.5-12.1,23.7-10.8c0.8,0.1,2.2-0.8,2.5-1.5c3.6-7.7,5-15.4,0.9-23.5
				c-1.6-3.3-4.5-4.4-7.5-1.2c-3.9,4.1-4.7,9-3.1,14.3c0.5,1.7,0.3,3.8-1.2,4.2s-2.3-1.4-3.6-1.9c-2.3-0.8-4.9-0.9-6.7,0.6
				c-2,1.6-2.9,4-1.8,6.8c0.3,0.9,1.1,2,0,3C620.6,453.2,619.5,451.2,617.4,451.1z M671.2,496.1c-0.2,0.2-0.4,5-0.6,7.6
				c-0.1,2.6,1.5,6.5,3.2,9.3c1.2,1.9,2.2,2.1,4.1,0.9c2.5-1.6,3.2-4.8,1.2-7.6C677.2,503.4,673.6,498.8,671.2,496.1z M600.6,634.5
				c2,0.4,2.1-6.4,3.6-6.4s1.6,3.9,3.4,3.9c1.8,0,1.4-8.1,0.9-12.6c-2.7,0.9-6.3,2.1-8.5,2.9C599,626.5,598.5,634.1,600.6,634.5z
				 M668.9,477c-2.3,3.8-2.1,7.2-1.3,10.8c5.1-2.8,9.7-5.3,14.8-8.1C677.4,479.2,673,479.9,668.9,477z M575.9,625.1
				c0.1,2.4-0.9,6.8,0.3,6.8c1.2,0,3.1-2.1,4.2-1.9c1.3,0.3,2.8,2.7,3.7,2.7s2.8-4.6,1.6-7.7C582.5,625.1,579.4,625.1,575.9,625.1z"
				/>
			<path d="M544,579.8c-1.9-1.7-1.7-3.5-0.5-5.4c0.4-0.7,0.7-1.5,1.1-2.3c1.5-2.5,2.8-5,2.2-8.1c-0.2-1,0.3-2.2,0.6-3.2
				c2.7-8.3,8.1-14.1,16.5-16.9c4.1-1.4,8.3-2.5,12.7-2c6.3,0.6,11.8,3.2,16.4,7.4c1.3,1.2,3.3,3.7,2.3,4.9c-1,1.3-3-0.7-3.9-1.7
				c-3.3-3.7-7.6-5.5-12.2-6.5c-2.3-0.5-4.9-0.3-7.3,0.1c-2.3,0.3-4.6,1.2-6.8,2c-7.9,2.6-12,8.4-14.1,16.8c6-1.9,11.5-4.4,17.4-2
				c1,0.4,2.3,0.7,2.8,2c0.5,1.4-2.4,1.4-3.5,1.1c-5.5-1.2-10.4,0.5-15.1,3.1c-2.6,1.4-4.2,4-4.8,7.2c10.1-4.3,20.4-0.3,19.8,1.5
				c-0.6,1.8-2.7,0.6-3.6,0.6c-1.8-0.1-3.6-0.5-5.3-0.5c-7.2,0.1-12.4,4-14.9,11.4c5.7,2.9,11.6,4.5,18.3,4.1
				c6.1-0.3,11.8-1.3,17.5-3c10.2-3.1,18.1-9,23.9-17.8c1.4-2.2,2.4-4.7,3.7-7c0.6-1.2,1.5-3.7,2.8-3.9c1.2-0.2,2.9,1.4,2.9,2.9
				s-8.4,15.7-15.5,21.1c-5.5,4.2-11.4,7.1-18,9.3c-6.7,2.3-13.4,2.3-20.1,2.5c-4.4,0.1-8.9-1.7-13.3-3c-1.8-0.5-3.5-1.7-5.2-2.6
				c-2.3-1.3-2.6-2.4-1.4-4.7c0.7-1.2,1.2-2.5,2-3.7C541.9,582.4,542.8,581.3,544,579.8z"/>
			<path d="M652.4,469.4c3.6,0,3.9,9.6,0.9,10.7s-3.7-3.6-4.6-6.6C647.8,470.5,648.8,469.4,652.4,469.4z"/>
		</g>
	</g>
</g>
</svg>
