<?xml version="1.0" encoding="utf-8"?>
<!-- Generator: Adobe Illustrator 19.1.0, SVG Export Plug-In . SVG Version: 6.00 Build 0)  -->
<svg version="1.1" id="Calque_1" xmlns="http://www.w3.org/2000/svg" xmlns:xlink="http://www.w3.org/1999/xlink" x="0px" y="0px"
	 viewBox="-190 264.5 897.9 272.5" style="enable-background:new -190 264.5 897.9 272.5;" xml:space="preserve">
<style type="text/css">
	.st0{enable-background:new    ;}
	.st1{fill:#F9CB00;}
	.st2{fill:#DF111A;}
	.st3{fill:#254B87;}
	.st4{fill:#0B6EB1;}
	.st5{fill:#F5F9F8;}
</style>
<g>
	<path d="M706.5,315.2c-0.1,8.3-0.4,16.7-0.3,25c0.2,10.7,1.2,21.3,1.2,32c0,15.5,1.7,31.1-0.8,46.6c0,0.2,0,0.4,0,0.6
		c0,14,0.2,27.9-0.1,41.9c-0.2,11-1,22-1.4,33c-0.2,6.2,0,12.5-0.2,18.7c-0.2,7-0.7,14-1.1,20.7c-8.7,4.8-17.5,2.3-26,2.7
		c-11.9,0.5-23.7,0.8-35.6,0.8c-7.9,0-15.8-0.7-23.6-1c-9.6-0.3-19.1-0.5-28.7-0.6c-16.4-0.3-32.8-0.6-49.2-0.7
		c-12.5-0.1-25,0.4-37.5,0.4c-8.9,0-17.8-0.6-26.7-0.9c-1,0-2.1,0-3.1,0c-11.9-0.1-23.7,0.1-35.6-0.3c-12.9-0.4-179.6-1.6-192.5-2
		c-10.6-0.3-21.1-0.1-31.7,0c-19.6,0.1-39.2,0.2-58.7,0.6c-6.6,0.1-57.7,0.2-67.5-0.3c-3.1-0.1-6.2,0.3-9.3,0.2
		c-12.6-0.2-25.3-0.5-37.9-0.7c-2.5,0-4.9,0-7.4,0.1c-11.2,0.1-22.5,0.3-33.7,0.3c-15,0.1-30.1,0.8-45,0
		c-21.5-1.1-42.9,0.1-64.3,0.6c-15.8,0.3-31.6-0.4-47.4-0.7c-6.6-0.1-13.2-0.4-19.9-0.2c-3.2,0.1-4.6-0.8-4.8-4.1
		c-0.8-7.4-1.7-14.6-2.3-21.8c-1.3-16.4-2.8-32.8-3.8-49.2c-0.5-9.1-1.3-18.2-1.6-27.3c-0.3-10.4,0.4-20.7,0-31.1
		c-0.3-8.1,0.8-16.2,0.9-24.2c0.2-13.3,0-26.7,0.1-40c0-2.5,0.3-5,0.7-7.4c0.7-3.9,3-5.7,7.1-5.9c22.5-1,44.9-2.2,67.4-3.1
		c19.9-0.8,39.9-1.4,59.8-1.9c19.2-0.5,38.4-1.1,57.5-1.2c14.8-0.1,29.5,0.6,44.3,0.7c12.1,0.1,24.1-0.2,36.2-0.2
		c6.2,0,12.5,0.3,18.7,0.4c7.3,0.2,14.5,0.4,21.8,0.4c10.4,0.1,20.8,0.2,31.2-0.1c33.8-0.9,67.5-2.2,101.3-2.9
		c9.5-0.2,173,1.1,182.5,1.4c9.2,0.3,18.3,0.2,27.5,0.2c13.1,0,26.2,0,39.3-0.2c6.9-0.1,13.8-0.6,20.7-0.8
		c14.1-0.3,28.1-0.3,42.2-0.7c15.4-0.4,30.7-1.3,46.1-1.8c13.2-0.4,26.4-0.5,39.5-0.6c11.4-0.1,22.9,0.2,34.3,0.3
		c0.6,0,1.4,0.3,1.9,0.1C697.2,307.7,701.3,311.5,706.5,315.2z M-181.4,327.7c-0.3,3.8-0.8,7-0.8,10.3c0,10.2,0.9,20.5,0.3,30.7
		c-0.7,12-2,24-1.4,36.1c0.1,2.1,0,4.2,0.1,6.3c0.3,11.5,0.4,23,1,34.4c0.8,14.1,2.3,28.2,3.2,42.3c0.3,5.4,0.8,26.1,1.4,31.1
		c0.1,1,0.4,1.9,0.8,3.3c10.8-0.4,21.3-0.9,31.9-1.3c0.6,0,1.2,0.3,1.8,0.3c13.1,0.1,26.2,0.3,39.4,0.4c8.3,0.1,16.7-0.5,25,0.2
		c18.2,1.6,36.3,0.4,54.4,0.2c20.7-0.2,41.3-1.4,62-1.9c17.1-0.4,34.2-0.3,51.2-0.5c12.5-0.1,25-0.3,37.5-0.5c0.4,0,0.8,0,1.3,0
		c17.1,0.2,34.1,0.5,51.2,0.6c10.2,0.1,20.4-0.2,30.6-0.2c4.8,0,9.6,0,14.4,0.2c14.3,0.4,182.6,0.9,196.9,1.2
		c5.2,0.1,10.4,0,15.6,0.1c13.3,0.4,26.6,1,39.9,1.4c7.5,0.2,15-0.2,22.5-0.1c10.8,0.1,21.6,0.5,32.4,0.7c6.9,0.1,13.7,0,20.6,0.3
		c12.4,0.6,24.9,2,37.3,1.9c16.9-0.1,33.6,1.2,50.5,1.7c16.2,0.5,32.5,0,48.7-0.1c1.8,0,3.6-0.4,5.6-0.6c0.4-14.4,1.1-28.3,1.2-42.2
		c0.1-14-0.4-27.9-0.6-41.9c0-0.4,0-0.8,0-1.3c-0.1-25.2-0.2-50.4-0.4-75.7c0-4.2-0.4-8.4-0.4-12.5c0-10.2,0.1-20.4,0.2-31.3
		c-9.2,0.3-17.7,0.5-26.2,0.8c-11.3,0.4-22.6,1.3-33.8,1.4c-19.4,0.1-38.7-0.3-58.1-0.3c-12.9,0-25.9,0.4-38.8,0.5
		c-0.8,0-1.7,0-2.5,0c-14.1-0.3-28.3-0.7-42.4-0.9c-8.3-0.1-16.7,0-25,0c-4.6,0-9.2-0.1-13.7-0.3c-9.1-0.5-257.8,1.4-271.2,1.8
		c-22.3,0.8-44.6,0.7-66.9,1c-11,0.1-22.1,0.5-33.1,0.3c-7-0.1-14.1-1.3-21.1-1.6c-8.5-0.4-17-0.8-25.5-0.7
		c-13.3,0.1-26.6,0.8-39.9,1.1c-5.2,0.1-10.4,0.1-15.6,0c-10.8-0.2-21.6-0.5-32.4-0.7c-6-0.1-12,0.2-18,0.3
		c-12.7,0.3-25.4,0.5-38.1,0.9c-17.3,0.6-34.5,1.4-51.7,2.1C-167.1,327.1-173.9,327.4-181.4,327.7z"/>
	<g>
		<g class="st0">
			<path d="M-92.3,497.8v2.3c0,0.4-0.1,0.7-0.4,1c-0.2,0.2-0.6,0.4-1,0.4h-7.2v6.4c0,0.4-0.1,0.7-0.4,1c-0.2,0.2-0.6,0.4-1,0.4h-2.7
				c-0.4,0-0.7-0.1-1-0.4c-0.2-0.2-0.4-0.6-0.4-1v-19.3c0-0.4,0.1-0.7,0.4-1c0.2-0.2,0.6-0.4,1-0.4h11.8c0.4,0,0.8,0.1,1,0.4
				c0.2,0.2,0.4,0.6,0.4,1v2.7c0,0.4-0.1,0.7-0.4,1c-0.2,0.2-0.6,0.4-1,0.4h-7.7v3.9h7.2c0.4,0,0.8,0.1,1,0.4
				C-92.4,497-92.3,497.3-92.3,497.8z"/>
			<path d="M-84.5,491v6.1c0-2.6,0.4-4.6,1.3-5.8s2.2-1.8,4.2-1.8c0.4,0,0.7,0.1,0.8,0.3s0.3,0.6,0.3,1v3.2c0,1.1-0.6,1.6-1.7,1.5
				c-0.6-0.1-1.1-0.1-1.7,0c-0.6,0.1-1.1,0.2-1.6,0.4c-0.5,0.2-0.8,0.5-1.1,0.9c-0.3,0.4-0.4,0.9-0.4,1.6v9.2c0,0.4-0.1,0.8-0.4,1
				c-0.2,0.2-0.6,0.4-1,0.4h-2.7c-0.4,0-0.8-0.1-1-0.4c-0.2-0.2-0.4-0.6-0.4-1V491c0-0.4,0.1-0.8,0.4-1c0.2-0.2,0.6-0.4,1-0.4h2.7
				c0.4,0,0.7,0.1,1,0.4S-84.5,490.6-84.5,491z"/>
			<path d="M-65.3,504.8c0,1.4-0.5,2.5-1.4,3.3c-0.9,0.8-2.4,1.2-4.4,1.2c-1.9,0-3.4-0.4-4.4-1.3c-1-0.9-1.5-2.1-1.5-3.8v-0.3
				c0-0.8,0.1-1.5,0.3-2.1c0.2-0.6,0.5-1.1,0.8-1.5c0.3-0.4,0.8-0.8,1.3-1.1c0.5-0.3,1.1-0.5,1.6-0.7s1.2-0.3,1.9-0.4
				c0.7-0.1,1.4-0.2,1.9-0.3s1.2-0.1,2-0.2c0.7-0.1,1.3-0.2,1.8-0.3v-0.5c0-1-0.2-1.7-0.7-2.1c-0.4-0.4-1.2-0.5-2.3-0.5
				c-0.7,0-1.2,0.1-1.6,0.2c-0.4,0.2-0.6,0.4-0.7,0.7c-0.1,0.1-0.2,0.3-0.3,0.5c-0.1,0.6-0.5,0.9-1.3,0.9h-2.8
				c-0.9,0-1.3-0.4-1.3-1.3c0-0.3,0-0.6,0.1-0.7c0.2-1.5,0.9-2.7,2.3-3.6c1.3-0.8,3.2-1.3,5.5-1.3c3,0,5.2,0.6,6.5,1.7
				c1.3,1.1,2,2.9,2,5.4v11.1c0,0.4-0.1,0.8-0.4,1c-0.2,0.2-0.6,0.4-1,0.4h-2.7c-0.4,0-0.8-0.1-1-0.4c-0.2-0.2-0.4-0.6-0.4-1V504.8z
				 M-69,505.9c0.6,0,1.1,0,1.5-0.1s0.8-0.1,1.2-0.3c0.4-0.1,0.6-0.3,0.8-0.6c0.2-0.3,0.3-0.6,0.3-1v-3.5c-0.1,0-0.4,0.1-0.7,0.1
				c-0.8,0.1-1.4,0.2-1.8,0.3c-0.4,0.1-0.8,0.2-1.4,0.3s-0.9,0.2-1.1,0.4c-0.2,0.1-0.5,0.3-0.7,0.5c-0.3,0.2-0.4,0.4-0.5,0.7
				c-0.1,0.2-0.1,0.5-0.1,0.9v0.2C-71.5,505.2-70.7,505.9-69,505.9z"/>
			<path d="M-52.4,497.2c0-2.7,0.4-4.6,1.3-5.8c0.9-1.2,2.3-1.8,4.3-1.8c2.1,0,3.7,0.6,4.6,1.7s1.5,3,1.5,5.7v10.8
				c0,0.4-0.1,0.7-0.4,1c-0.2,0.2-0.6,0.4-1,0.4h-2.7c-0.4,0-0.7-0.1-1-0.4c-0.2-0.2-0.4-0.6-0.4-1V498c0-1.1-0.2-1.9-0.6-2.5
				c-0.4-0.5-1.2-0.8-2.2-0.8c-0.5,0-1,0-1.3,0.2c-0.4,0.1-0.7,0.3-1.1,0.5c-0.3,0.3-0.6,0.6-0.8,1.2c-0.2,0.5-0.3,1.2-0.3,1.9v9.2
				c0,0.4-0.1,0.7-0.4,1c-0.2,0.2-0.6,0.4-1,0.4h-2.7c-0.4,0-0.7-0.1-1-0.4c-0.2-0.2-0.4-0.6-0.4-1V491c0-0.4,0.1-0.7,0.4-1
				c0.2-0.2,0.6-0.4,1-0.4h2.7c0.4,0,0.7,0.1,1,0.4s0.4,0.6,0.4,1V497.2z"/>
			<path d="M-30,509.2c-3,0-5.2-0.8-6.7-2.3c-1.4-1.5-2.2-3.8-2.2-6.8v-1.7c0-3,0.7-5.2,2.2-6.7c1.4-1.5,3.7-2.3,6.7-2.3
				c2.4,0,4.3,0.5,5.8,1.4s2.4,2.2,2.8,3.9c0.1,0.6,0.2,1.2,0.2,1.7c0,0.8-0.4,1.2-1.3,1.2h-2.8c-0.4,0-0.7-0.1-0.9-0.2
				c-0.2-0.1-0.3-0.4-0.4-0.8c0-0.3-0.1-0.5-0.3-0.9c-0.2-0.6-0.6-1-1.1-1.2s-1.2-0.3-2.1-0.3c-0.8,0-1.5,0.1-2,0.4
				c-0.5,0.3-0.9,0.7-1.1,1.4c-0.3,0.6-0.4,1.5-0.4,2.7v1.2c0,1.7,0.3,2.8,0.8,3.5s1.4,0.9,2.6,0.9c0.9,0,1.6-0.1,2.1-0.3
				c0.5-0.2,0.9-0.6,1.1-1.1c0.2-0.5,0.3-0.8,0.4-1c0.1-0.3,0.2-0.6,0.4-0.7c0.2-0.1,0.5-0.2,0.9-0.2h2.7c0.8,0,1.3,0.4,1.3,1.3
				c0,0.6,0,1.1-0.1,1.5c-0.3,1.7-1.3,3.1-2.8,4C-25.6,508.8-27.6,509.2-30,509.2z"/>
			<path d="M-1.9,504.6c-0.4,1.5-1.3,2.6-2.8,3.4c-1.5,0.8-3.4,1.2-5.8,1.2c-3,0-5.2-0.8-6.7-2.3c-1.4-1.5-2.2-3.8-2.2-6.8v-1.7
				c0-3,0.7-5.2,2.2-6.7c1.5-1.5,3.7-2.2,6.8-2.2c2.9,0,5.1,0.6,6.5,1.9c1.5,1.3,2.2,3.1,2.2,5.5v1.9c0,0.4-0.1,0.7-0.3,0.9
				c-0.2,0.2-0.5,0.3-0.9,0.3H-14c0,1.7,0.3,2.9,0.8,3.6c0.5,0.7,1.4,1,2.6,1c0.9,0,1.6-0.1,2.1-0.3c0.5-0.2,0.9-0.5,1.1-1
				c0-0.1,0.1-0.3,0.2-0.5c0.1-0.5,0.3-0.8,0.5-1c0.2-0.2,0.6-0.3,1-0.3H-3c0.9,0,1.3,0.5,1.3,1.4C-1.7,503.6-1.8,504.1-1.9,504.6z
				 M-10.4,494c-1.1,0-1.9,0.2-2.5,0.7s-0.9,1.3-1,2.5h6.8v-0.1c0-1.2-0.3-2-0.8-2.5S-9.2,494-10.4,494z"/>
		</g>
	</g>
	<g>
		<g class="st0">
			<path d="M84.9,509.1h-2.7c-0.4,0-0.8-0.1-1-0.4c-0.2-0.2-0.4-0.6-0.4-1v-19.3c0-0.4,0.1-0.8,0.4-1c0.2-0.2,0.6-0.4,1-0.4h7.2
				c1.6,0,2.9,0.1,3.9,0.3c1,0.2,1.8,0.6,2.5,1.2c0.6,0.5,1.1,1.2,1.3,2c0.2,0.8,0.4,1.9,0.4,3.2v0.6c0,2.8-1,4.7-2.9,5.8l2.7,7.3
				c0.2,0.4,0.1,0.8-0.1,1.1s-0.5,0.5-1,0.5h-3.1c-0.7,0-1.1-0.3-1.3-1l-2.4-6.9h-3.2v6.5c0,0.4-0.1,0.8-0.4,1
				C85.7,509,85.3,509.1,84.9,509.1z M89.4,491.9h-3.2v5h3.2c1,0,1.7-0.2,2.1-0.5c0.4-0.3,0.6-0.9,0.6-1.8v-0.5
				c0-0.9-0.2-1.5-0.6-1.8C91.1,492,90.4,491.9,89.4,491.9z"/>
			<path d="M116.8,498.5v1.7c0,2.9-0.8,5.2-2.3,6.7c-1.5,1.5-3.7,2.3-6.6,2.3c-3,0-5.2-0.8-6.7-2.3c-1.4-1.5-2.2-3.8-2.2-6.8v-1.7
				c0-3,0.7-5.2,2.2-6.7c1.4-1.5,3.7-2.3,6.7-2.3c3,0,5.2,0.8,6.7,2.3C116.1,493.3,116.8,495.5,116.8,498.5z M111.4,500v-1.2
				c0-1.1-0.1-2-0.4-2.7c-0.3-0.6-0.6-1.1-1.1-1.4c-0.5-0.3-1.2-0.4-2-0.4c-1.2,0-2.1,0.3-2.6,1c-0.5,0.6-0.8,1.8-0.8,3.5v1.2
				c0,1.7,0.3,2.8,0.8,3.5s1.4,0.9,2.6,0.9c0.8,0,1.5-0.1,2-0.4c0.5-0.2,0.9-0.7,1.1-1.3C111.3,502,111.4,501.1,111.4,500z"/>
			<path d="M130.4,501.6c0,2.7-0.4,4.6-1.3,5.8c-0.9,1.2-2.3,1.8-4.3,1.8c-2.1,0-3.7-0.6-4.6-1.7c-1-1.2-1.5-3-1.5-5.7V491
				c0-0.4,0.1-0.7,0.4-1c0.2-0.2,0.6-0.4,1-0.4h2.7c0.4,0,0.7,0.1,1,0.4s0.4,0.6,0.4,1v9.7c0,1.1,0.2,1.9,0.6,2.5
				c0.4,0.5,1.2,0.8,2.2,0.8c0.5,0,1-0.1,1.3-0.2c0.4-0.1,0.7-0.3,1.1-0.5s0.6-0.7,0.8-1.2c0.2-0.5,0.3-1.2,0.3-1.9V491
				c0-0.4,0.1-0.8,0.4-1c0.2-0.2,0.6-0.4,1-0.4h2.7c0.4,0,0.7,0.1,1,0.4s0.4,0.6,0.4,1v16.7c0,0.4-0.1,0.7-0.4,1
				c-0.2,0.2-0.6,0.4-1,0.4h-2.7c-0.4,0-0.7-0.1-1-0.4c-0.2-0.2-0.4-0.6-0.4-1V501.6z"/>
			<path d="M143.3,497.2c0-2.7,0.4-4.6,1.3-5.8c0.9-1.2,2.3-1.8,4.3-1.8c2,0,3.4,0.5,4.4,1.5s1.5,2.6,1.6,4.8
				c0.2-2.2,0.7-3.8,1.5-4.8c0.9-1,2.2-1.5,4.1-1.5c2.1,0,3.7,0.6,4.6,1.7s1.5,3,1.5,5.6v10.9c0,0.4-0.1,0.8-0.4,1
				c-0.2,0.2-0.6,0.4-1,0.4h-2.7c-0.4,0-0.8-0.1-1-0.4c-0.2-0.2-0.4-0.6-0.4-1V498c0-1.1-0.2-1.9-0.6-2.5c-0.4-0.5-1.2-0.8-2.2-0.8
				c-0.5,0-1,0.1-1.3,0.2c-0.4,0.1-0.7,0.3-1.1,0.6c-0.3,0.3-0.6,0.7-0.8,1.3c-0.2,0.6-0.3,1.2-0.3,2.1v8.9c0,0.4-0.1,0.7-0.4,1
				c-0.2,0.2-0.6,0.4-1,0.4h-2.7c-0.4,0-0.7-0.1-1-0.4c-0.2-0.2-0.4-0.6-0.4-1V498c0-1.1-0.2-1.9-0.6-2.5c-0.4-0.5-1.2-0.8-2.2-0.8
				c-0.5,0-1,0-1.3,0.2c-0.4,0.1-0.7,0.3-1.1,0.5c-0.3,0.3-0.6,0.6-0.8,1.2c-0.2,0.5-0.3,1.2-0.3,1.9v9.2c0,0.4-0.1,0.7-0.4,1
				c-0.2,0.2-0.6,0.4-1,0.4h-2.7c-0.4,0-0.7-0.1-1-0.4c-0.2-0.2-0.4-0.6-0.4-1V491c0-0.4,0.1-0.7,0.4-1c0.2-0.2,0.6-0.4,1-0.4h2.7
				c0.4,0,0.7,0.1,1,0.4s0.4,0.6,0.4,1V497.2z"/>
			<path d="M180,504.8c0,1.4-0.5,2.5-1.4,3.3c-0.9,0.8-2.4,1.2-4.4,1.2c-1.9,0-3.4-0.4-4.4-1.3c-1-0.9-1.5-2.1-1.5-3.8v-0.3
				c0-0.8,0.1-1.5,0.3-2.1c0.2-0.6,0.5-1.1,0.8-1.5c0.3-0.4,0.8-0.8,1.3-1.1c0.5-0.3,1.1-0.5,1.6-0.7s1.2-0.3,1.9-0.4
				c0.7-0.1,1.4-0.2,1.9-0.3s1.2-0.1,2-0.2c0.7-0.1,1.3-0.2,1.8-0.3v-0.5c0-1-0.2-1.7-0.7-2.1c-0.4-0.4-1.2-0.5-2.3-0.5
				c-0.7,0-1.2,0.1-1.6,0.2c-0.4,0.2-0.6,0.4-0.7,0.7c-0.1,0.1-0.2,0.3-0.3,0.5c-0.1,0.6-0.5,0.9-1.3,0.9h-2.8
				c-0.9,0-1.3-0.4-1.3-1.3c0-0.3,0-0.6,0.1-0.7c0.2-1.5,0.9-2.7,2.3-3.6c1.3-0.8,3.2-1.3,5.5-1.3c3,0,5.2,0.6,6.5,1.7
				c1.3,1.1,2,2.9,2,5.4v11.1c0,0.4-0.1,0.8-0.4,1c-0.2,0.2-0.6,0.4-1,0.4h-2.7c-0.4,0-0.8-0.1-1-0.4c-0.2-0.2-0.4-0.6-0.4-1V504.8z
				 M176.2,505.9c0.6,0,1.1,0,1.5-0.1s0.8-0.1,1.2-0.3c0.4-0.1,0.6-0.3,0.8-0.6c0.2-0.3,0.3-0.6,0.3-1v-3.5c-0.1,0-0.4,0.1-0.7,0.1
				c-0.8,0.1-1.4,0.2-1.8,0.3c-0.4,0.1-0.8,0.2-1.4,0.3s-0.9,0.2-1.1,0.4c-0.2,0.1-0.5,0.3-0.7,0.5c-0.3,0.2-0.4,0.4-0.5,0.7
				c-0.1,0.2-0.1,0.5-0.1,0.9v0.2C173.7,505.2,174.6,505.9,176.2,505.9z"/>
			<path d="M192.9,497.2c0-2.7,0.4-4.6,1.3-5.8c0.9-1.2,2.3-1.8,4.3-1.8c2.1,0,3.7,0.6,4.6,1.7s1.5,3,1.5,5.7v10.8
				c0,0.4-0.1,0.7-0.4,1c-0.2,0.2-0.6,0.4-1,0.4h-2.7c-0.4,0-0.7-0.1-1-0.4c-0.2-0.2-0.4-0.6-0.4-1V498c0-1.1-0.2-1.9-0.6-2.5
				c-0.4-0.5-1.2-0.8-2.2-0.8c-0.5,0-1,0-1.3,0.2c-0.4,0.1-0.7,0.3-1.1,0.5c-0.3,0.3-0.6,0.6-0.8,1.2c-0.2,0.5-0.3,1.2-0.3,1.9v9.2
				c0,0.4-0.1,0.7-0.4,1c-0.2,0.2-0.6,0.4-1,0.4h-2.7c-0.4,0-0.7-0.1-1-0.4c-0.2-0.2-0.4-0.6-0.4-1V491c0-0.4,0.1-0.7,0.4-1
				c0.2-0.2,0.6-0.4,1-0.4h2.7c0.4,0,0.7,0.1,1,0.4s0.4,0.6,0.4,1V497.2z"/>
			<path d="M211,488.8h-3.4c-0.7,0-1-0.3-1-1v-0.1c0-0.7,0.3-1,1-1h3.4c0.7,0,1,0.3,1,1v0.1C212,488.5,211.7,488.8,211,488.8z
				 M210.6,509.1h-2.7c-0.4,0-0.7-0.1-1-0.4c-0.2-0.2-0.4-0.6-0.4-1V491c0-0.4,0.1-0.7,0.4-1c0.2-0.2,0.6-0.4,1-0.4h2.7
				c0.4,0,0.7,0.1,1,0.4s0.4,0.6,0.4,1v16.7c0,0.4-0.1,0.7-0.4,1C211.4,509,211.1,509.1,210.6,509.1z"/>
			<path d="M231.4,504.6c-0.4,1.5-1.3,2.6-2.8,3.4c-1.5,0.8-3.4,1.2-5.8,1.2c-3,0-5.2-0.8-6.7-2.3c-1.4-1.5-2.2-3.8-2.2-6.8v-1.7
				c0-3,0.7-5.2,2.2-6.7c1.5-1.5,3.7-2.2,6.8-2.2c2.9,0,5.1,0.6,6.5,1.9c1.5,1.3,2.2,3.1,2.2,5.5v1.9c0,0.4-0.1,0.7-0.3,0.9
				c-0.2,0.2-0.5,0.3-0.9,0.3h-11.1c0,1.7,0.3,2.9,0.8,3.6c0.5,0.7,1.4,1,2.6,1c0.9,0,1.6-0.1,2.1-0.3c0.5-0.2,0.9-0.5,1.1-1
				c0-0.1,0.1-0.3,0.2-0.5c0.1-0.5,0.3-0.8,0.5-1c0.2-0.2,0.6-0.3,1-0.3h2.6c0.9,0,1.3,0.5,1.3,1.4
				C231.6,503.6,231.5,504.1,231.4,504.6z M222.9,494c-1.1,0-1.9,0.2-2.5,0.7s-0.9,1.3-1,2.5h6.8v-0.1c0-1.2-0.3-2-0.8-2.5
				S224.1,494,222.9,494z"/>
		</g>
	</g>
	<g>
		<g class="st0">
			<path d="M304.1,508c-0.1,0.4-0.2,0.6-0.5,0.8s-0.5,0.3-0.9,0.3h-2.5c-0.4,0-0.8-0.1-1-0.4c-0.2-0.3-0.3-0.6-0.2-1.1l5.1-19.4
				c0.1-0.3,0.2-0.6,0.5-0.8c0.2-0.2,0.5-0.3,0.9-0.3h5.7c0.4,0,0.7,0.1,0.9,0.3s0.4,0.5,0.5,0.8l5.1,19.4c0.1,0.4,0,0.8-0.2,1.1
				c-0.2,0.3-0.6,0.4-1,0.4h-2.5c-0.4,0-0.7-0.1-0.9-0.3s-0.4-0.5-0.5-0.8l-0.8-3.3h-6.8L304.1,508z M310.8,500.8l-2.5-10.2
				l-2.5,10.2H310.8z"/>
			<path d="M323.7,509.1H321c-0.4,0-0.7-0.1-1-0.4c-0.2-0.2-0.4-0.6-0.4-1v-19.3c0-0.4,0.1-0.7,0.4-1c0.2-0.2,0.6-0.4,1-0.4h2.7
				c0.4,0,0.7,0.1,1,0.4c0.2,0.2,0.4,0.6,0.4,1v19.3c0,0.4-0.1,0.7-0.4,1C324.4,509,324.1,509.1,323.7,509.1z"/>
			<path d="M332.5,496c0-2.1,0.4-3.7,1.3-4.8c0.9-1.1,2.3-1.6,4.3-1.6c2.4,0,4.1,0.7,5.1,2.1c1,1.4,1.6,3.5,1.6,6.5v2.6
				c0,3-0.5,5.2-1.5,6.6c-1,1.4-2.7,2-5.1,2c-2,0-3.5-0.5-4.3-1.6c-0.9-1.1-1.3-2.7-1.3-4.9v5c0,0.4-0.1,0.7-0.4,1
				c-0.2,0.2-0.6,0.4-1,0.4h-2.7c-0.4,0-0.8-0.1-1-0.4c-0.2-0.2-0.4-0.6-0.4-1v-19.3c0-0.4,0.1-0.8,0.4-1c0.2-0.2,0.6-0.4,1-0.4h2.7
				c0.4,0,0.7,0.1,1,0.4c0.2,0.2,0.4,0.6,0.4,1V496z M339.4,499c0-1.3-0.1-2.4-0.4-3.1c-0.3-0.8-0.6-1.3-1.1-1.6
				c-0.5-0.3-1.1-0.4-2-0.4c-0.5,0-1,0-1.3,0.1s-0.7,0.2-1.1,0.5s-0.6,0.5-0.8,1c-0.2,0.4-0.3,1-0.3,1.6v4.5c0,0.7,0.1,1.2,0.3,1.6
				c0.2,0.4,0.4,0.8,0.8,1s0.7,0.4,1.1,0.5s0.8,0.1,1.3,0.1c0.8,0,1.5-0.1,2-0.4c0.5-0.3,0.9-0.8,1.1-1.6c0.2-0.8,0.4-1.8,0.4-3.2
				V499z"/>
			<path d="M358.1,504.8c0,1.4-0.5,2.5-1.4,3.3c-0.9,0.8-2.4,1.2-4.4,1.2c-1.9,0-3.4-0.4-4.4-1.3c-1-0.9-1.5-2.1-1.5-3.8v-0.3
				c0-0.8,0.1-1.5,0.3-2.1c0.2-0.6,0.5-1.1,0.8-1.5c0.3-0.4,0.8-0.8,1.3-1.1c0.5-0.3,1.1-0.5,1.6-0.7s1.2-0.3,1.9-0.4
				c0.7-0.1,1.4-0.2,1.9-0.3s1.2-0.1,2-0.2c0.7-0.1,1.3-0.2,1.8-0.3v-0.5c0-1-0.2-1.7-0.7-2.1c-0.4-0.4-1.2-0.5-2.3-0.5
				c-0.7,0-1.2,0.1-1.6,0.2c-0.4,0.2-0.6,0.4-0.7,0.7c-0.1,0.1-0.2,0.3-0.3,0.5c-0.1,0.6-0.5,0.9-1.3,0.9h-2.8
				c-0.9,0-1.3-0.4-1.3-1.3c0-0.3,0-0.6,0.1-0.7c0.2-1.5,0.9-2.7,2.3-3.6c1.3-0.8,3.2-1.3,5.5-1.3c3,0,5.2,0.6,6.5,1.7
				c1.3,1.1,2,2.9,2,5.4v11.1c0,0.4-0.1,0.8-0.4,1c-0.2,0.2-0.6,0.4-1,0.4h-2.7c-0.4,0-0.8-0.1-1-0.4c-0.2-0.2-0.4-0.6-0.4-1V504.8z
				 M354.3,505.9c0.6,0,1.1,0,1.5-0.1c0.4-0.1,0.8-0.1,1.2-0.3c0.4-0.1,0.6-0.3,0.8-0.6c0.2-0.3,0.3-0.6,0.3-1v-3.5
				c-0.1,0-0.4,0.1-0.7,0.1c-0.8,0.1-1.4,0.2-1.8,0.3c-0.4,0.1-0.8,0.2-1.4,0.3s-0.9,0.2-1.1,0.4c-0.2,0.1-0.5,0.3-0.7,0.5
				c-0.3,0.2-0.4,0.4-0.5,0.7c-0.1,0.2-0.1,0.5-0.1,0.9v0.2C351.8,505.2,352.7,505.9,354.3,505.9z"/>
			<path d="M371,497.2c0-2.7,0.4-4.6,1.3-5.8c0.9-1.2,2.3-1.8,4.3-1.8c2.1,0,3.7,0.6,4.6,1.7s1.5,3,1.5,5.7v10.8
				c0,0.4-0.1,0.7-0.4,1c-0.2,0.2-0.6,0.4-1,0.4h-2.7c-0.4,0-0.7-0.1-1-0.4c-0.2-0.2-0.4-0.6-0.4-1V498c0-1.1-0.2-1.9-0.6-2.5
				c-0.4-0.5-1.2-0.8-2.2-0.8c-0.5,0-1,0-1.3,0.2c-0.4,0.1-0.7,0.3-1.1,0.5c-0.3,0.3-0.6,0.6-0.8,1.2c-0.2,0.5-0.3,1.2-0.3,1.9v9.2
				c0,0.4-0.1,0.7-0.4,1c-0.2,0.2-0.6,0.4-1,0.4h-2.7c-0.4,0-0.7-0.1-1-0.4c-0.2-0.2-0.4-0.6-0.4-1V491c0-0.4,0.1-0.7,0.4-1
				c0.2-0.2,0.6-0.4,1-0.4h2.7c0.4,0,0.7,0.1,1,0.4s0.4,0.6,0.4,1V497.2z"/>
			<path d="M389.1,488.8h-3.4c-0.7,0-1-0.3-1-1v-0.1c0-0.7,0.3-1,1-1h3.4c0.7,0,1,0.3,1,1v0.1C390.1,488.5,389.8,488.8,389.1,488.8z
				 M388.7,509.1H386c-0.4,0-0.7-0.1-1-0.4c-0.2-0.2-0.4-0.6-0.4-1V491c0-0.4,0.1-0.7,0.4-1c0.2-0.2,0.6-0.4,1-0.4h2.7
				c0.4,0,0.7,0.1,1,0.4s0.4,0.6,0.4,1v16.7c0,0.4-0.1,0.7-0.4,1C389.5,509,389.2,509.1,388.7,509.1z"/>
			<path d="M409.5,504.6c-0.4,1.5-1.3,2.6-2.8,3.4c-1.5,0.8-3.4,1.2-5.8,1.2c-3,0-5.2-0.8-6.7-2.3c-1.4-1.5-2.2-3.8-2.2-6.8v-1.7
				c0-3,0.7-5.2,2.2-6.7c1.5-1.5,3.7-2.2,6.8-2.2c2.9,0,5.1,0.6,6.5,1.9c1.5,1.3,2.2,3.1,2.2,5.5v1.9c0,0.4-0.1,0.7-0.3,0.9
				c-0.2,0.2-0.5,0.3-0.9,0.3h-11.1c0,1.7,0.3,2.9,0.8,3.6c0.5,0.7,1.4,1,2.6,1c0.9,0,1.6-0.1,2.1-0.3c0.5-0.2,0.9-0.5,1.1-1
				c0-0.1,0.1-0.3,0.2-0.5c0.1-0.5,0.3-0.8,0.5-1c0.2-0.2,0.6-0.3,1-0.3h2.6c0.9,0,1.3,0.5,1.3,1.4
				C409.7,503.6,409.6,504.1,409.5,504.6z M401,494c-1.1,0-1.9,0.2-2.5,0.7s-0.9,1.3-1,2.5h6.8v-0.1c0-1.2-0.3-2-0.8-2.5
				S402.2,494,401,494z"/>
		</g>
	</g>
	<g>
		<g class="st0">
			<path d="M507.8,495.9c3,0.2,5.1,0.7,6.3,1.7c1.2,1,1.9,2.6,1.9,4.8v0.2c0,2.2-0.8,3.9-2.4,5c-1.6,1.1-3.9,1.7-7.1,1.7
				c-3,0-5.3-0.5-6.8-1.6c-1.5-1-2.4-2.6-2.5-4.7c0,0,0-0.1,0-0.3c0-0.1,0-0.2,0-0.3c0-0.4,0.1-0.6,0.3-0.8c0.2-0.2,0.5-0.3,0.9-0.3
				h2.9c0.4,0,0.8,0.1,0.9,0.2s0.3,0.4,0.4,0.8c0,0.1,0.1,0.3,0.1,0.5c0.2,0.7,0.7,1.2,1.3,1.5c0.6,0.3,1.5,0.5,2.6,0.5
				c1.3,0,2.3-0.2,3-0.5c0.6-0.3,1-0.8,1-1.6v-0.1c0-0.3,0-0.6-0.1-0.8c-0.1-0.2-0.2-0.4-0.4-0.6c-0.2-0.2-0.5-0.3-0.9-0.4
				c-0.4-0.1-0.9-0.2-1.5-0.3c-0.6-0.1-1.3-0.2-2.2-0.3c-1.5-0.1-2.8-0.3-3.8-0.6c-1-0.3-1.9-0.6-2.5-1.1c-0.7-0.5-1.2-1.1-1.5-1.8
				c-0.3-0.7-0.4-1.7-0.4-2.8v-0.2c0-2.2,0.8-3.9,2.3-5s3.9-1.7,7.1-1.7c2.9,0,5.1,0.5,6.7,1.6c1.6,1,2.4,2.5,2.7,4.4
				c0.1,0.2,0.1,0.4,0.1,0.6c0,0.4-0.1,0.6-0.3,0.8c-0.2,0.2-0.5,0.3-0.9,0.3H512c-0.5,0-0.8-0.1-1-0.2c-0.2-0.1-0.3-0.4-0.4-0.8
				c-0.1-0.3-0.1-0.5-0.2-0.6c-0.6-1.1-1.8-1.6-3.9-1.6c-2.6,0-3.9,0.7-3.9,2v0.1c0,0.5,0.1,0.9,0.4,1.2c0.2,0.3,0.8,0.5,1.5,0.7
				S506.3,495.8,507.8,495.9z"/>
			<path d="M529.6,501.6c0,2.7-0.4,4.6-1.3,5.8c-0.9,1.2-2.3,1.8-4.3,1.8c-2.1,0-3.7-0.6-4.6-1.7c-1-1.2-1.5-3-1.5-5.7V491
				c0-0.4,0.1-0.7,0.4-1c0.2-0.2,0.6-0.4,1-0.4h2.7c0.4,0,0.7,0.1,1,0.4s0.4,0.6,0.4,1v9.7c0,1.1,0.2,1.9,0.6,2.5
				c0.4,0.5,1.2,0.8,2.2,0.8c0.5,0,1-0.1,1.3-0.2c0.4-0.1,0.7-0.3,1.1-0.5s0.6-0.7,0.8-1.2c0.2-0.5,0.3-1.2,0.3-1.9V491
				c0-0.4,0.1-0.8,0.4-1c0.2-0.2,0.6-0.4,1-0.4h2.7c0.4,0,0.7,0.1,1,0.4c0.2,0.2,0.4,0.6,0.4,1v16.7c0,0.4-0.1,0.7-0.4,1
				c-0.2,0.2-0.6,0.4-1,0.4h-2.7c-0.4,0-0.7-0.1-1-0.4c-0.2-0.2-0.4-0.6-0.4-1V501.6z"/>
			<path d="M541.5,488.8h-3.4c-0.7,0-1-0.3-1-1v-0.1c0-0.7,0.3-1,1-1h3.4c0.7,0,1,0.3,1,1v0.1C542.5,488.5,542.1,488.8,541.5,488.8z
				 M541.1,509.1h-2.7c-0.4,0-0.7-0.1-1-0.4c-0.2-0.2-0.4-0.6-0.4-1V491c0-0.4,0.1-0.7,0.4-1c0.2-0.2,0.6-0.4,1-0.4h2.7
				c0.4,0,0.7,0.1,1,0.4s0.4,0.6,0.4,1v16.7c0,0.4-0.1,0.7-0.4,1C541.9,509,541.5,509.1,541.1,509.1z"/>
			<path d="M544.4,504.6c-0.1-0.2-0.1-0.6-0.1-1.1c0-0.4,0.1-0.7,0.3-0.9s0.6-0.3,1.1-0.3h2.3c0.4,0,0.7,0.1,0.9,0.2
				c0.2,0.1,0.3,0.3,0.4,0.6c0.2,0.5,0.3,0.8,0.3,0.9c0.3,0.5,0.6,0.8,1.1,1c0.5,0.2,1.1,0.3,2,0.3c1,0,1.8-0.1,2.4-0.4
				c0.5-0.3,0.8-0.7,0.8-1.3v-0.1c0-0.5-0.1-0.9-0.3-1.2c-0.2-0.3-0.6-0.5-1.2-0.6c-0.6-0.2-1.6-0.3-2.9-0.5c-0.8-0.1-1.4-0.2-2-0.2
				c-0.6-0.1-1.1-0.2-1.6-0.3c-0.5-0.1-1-0.3-1.4-0.5c-0.4-0.2-0.7-0.4-1-0.7c-0.3-0.3-0.6-0.6-0.7-1c-0.2-0.4-0.3-0.8-0.4-1.3
				c-0.1-0.5-0.1-1-0.1-1.6v-0.1c0-2,0.7-3.5,2.1-4.5c1.4-1,3.5-1.5,6.4-1.5c2.2,0,4,0.3,5.4,1c1.4,0.7,2.3,1.7,2.7,3
				c0.2,0.6,0.2,1.1,0.3,1.5c0,0.4-0.1,0.7-0.3,0.9s-0.5,0.4-0.9,0.4h-2.5c-0.4,0-0.7-0.1-0.9-0.2c-0.2-0.1-0.4-0.3-0.5-0.7
				l-0.4-0.8c-0.5-0.8-1.5-1.2-3-1.2c-1.1,0-2,0.2-2.5,0.5c-0.5,0.3-0.8,0.8-0.8,1.4v0.1c0,0.4,0.1,0.8,0.3,1s0.6,0.4,1.3,0.6
				c0.6,0.1,1.6,0.3,2.9,0.4c1.4,0.1,2.5,0.3,3.4,0.5c0.9,0.2,1.6,0.6,2.2,1c0.6,0.5,1,1.1,1.3,1.8c0.2,0.7,0.4,1.6,0.4,2.7v0.2
				c0,2-0.7,3.4-2.1,4.3s-3.5,1.3-6.4,1.3c-2.4,0-4.4-0.4-5.7-1.1C545.6,507.4,544.8,506.2,544.4,504.6z"/>
			<path d="M562.8,504.6c-0.1-0.2-0.1-0.6-0.1-1.1c0-0.4,0.1-0.7,0.3-0.9s0.6-0.3,1.1-0.3h2.3c0.4,0,0.7,0.1,0.9,0.2
				c0.2,0.1,0.3,0.3,0.4,0.6c0.2,0.5,0.3,0.8,0.3,0.9c0.3,0.5,0.6,0.8,1.1,1c0.5,0.2,1.1,0.3,2,0.3c1,0,1.8-0.1,2.4-0.4
				c0.5-0.3,0.8-0.7,0.8-1.3v-0.1c0-0.5-0.1-0.9-0.3-1.2c-0.2-0.3-0.6-0.5-1.2-0.6c-0.6-0.2-1.6-0.3-2.9-0.5c-0.8-0.1-1.4-0.2-2-0.2
				c-0.6-0.1-1.1-0.2-1.6-0.3c-0.5-0.1-1-0.3-1.4-0.5c-0.4-0.2-0.7-0.4-1-0.7c-0.3-0.3-0.6-0.6-0.7-1c-0.2-0.4-0.3-0.8-0.4-1.3
				c-0.1-0.5-0.1-1-0.1-1.6v-0.1c0-2,0.7-3.5,2.1-4.5c1.4-1,3.5-1.5,6.4-1.5c2.2,0,4,0.3,5.4,1c1.4,0.7,2.3,1.7,2.7,3
				c0.2,0.6,0.2,1.1,0.3,1.5c0,0.4-0.1,0.7-0.3,0.9s-0.5,0.4-0.9,0.4h-2.5c-0.4,0-0.7-0.1-0.9-0.2c-0.2-0.1-0.4-0.3-0.5-0.7
				l-0.4-0.8c-0.5-0.8-1.5-1.2-3-1.2c-1.1,0-2,0.2-2.5,0.5c-0.5,0.3-0.8,0.8-0.8,1.4v0.1c0,0.4,0.1,0.8,0.3,1s0.6,0.4,1.3,0.6
				c0.6,0.1,1.6,0.3,2.9,0.4c1.4,0.1,2.5,0.3,3.4,0.5c0.9,0.2,1.6,0.6,2.2,1c0.6,0.5,1,1.1,1.3,1.8c0.2,0.7,0.4,1.6,0.4,2.7v0.2
				c0,2-0.7,3.4-2.1,4.3s-3.5,1.3-6.4,1.3c-2.4,0-4.4-0.4-5.7-1.1C564,507.4,563.2,506.2,562.8,504.6z"/>
			<path d="M598.7,504.6c-0.4,1.5-1.3,2.6-2.8,3.4c-1.5,0.8-3.4,1.2-5.8,1.2c-3,0-5.2-0.8-6.7-2.3c-1.4-1.5-2.2-3.8-2.2-6.8v-1.7
				c0-3,0.7-5.2,2.2-6.7c1.5-1.5,3.7-2.2,6.8-2.2c2.9,0,5.1,0.6,6.5,1.9c1.5,1.3,2.2,3.1,2.2,5.5v1.9c0,0.4-0.1,0.7-0.3,0.9
				c-0.2,0.2-0.5,0.3-0.9,0.3h-11.1c0,1.7,0.3,2.9,0.8,3.6c0.5,0.7,1.4,1,2.6,1c0.9,0,1.6-0.1,2.1-0.3c0.5-0.2,0.9-0.5,1.1-1
				c0-0.1,0.1-0.3,0.2-0.5c0.1-0.5,0.3-0.8,0.5-1c0.2-0.2,0.6-0.3,1-0.3h2.6c0.9,0,1.3,0.5,1.3,1.4
				C598.9,503.6,598.8,504.1,598.7,504.6z M590.2,494c-1.1,0-1.9,0.2-2.5,0.7s-0.9,1.3-1,2.5h6.8v-0.1c0-1.2-0.3-2-0.8-2.5
				S591.4,494,590.2,494z"/>
		</g>
	</g>
	<g class="st0">
		<path d="M255.9,303.9c-0.3,1.1-1,1.6-2.1,1.6h-3.1c-0.7,0-1.2-0.2-1.5-0.6s-0.4-0.9-0.2-1.6l10.7-33c0.3-1,0.9-1.5,2-1.5h6.4
			c1,0,1.7,0.5,2,1.5l10.7,33c0.2,0.7,0.2,1.2-0.1,1.6c-0.3,0.4-0.8,0.6-1.5,0.6h-3.1c-1.1,0-1.8-0.5-2.1-1.6l-2.1-6.9H258
			L255.9,303.9z M270.1,291l-5.1-16.7l-5.1,16.7H270.1z"/>
	</g>
	<g id="Roumanie_1_">
		<path d="M117.6,338.8c7.9,8.3,18.3,11.3,29.3,12.5c1.8,0.2,3.8,0.5,5.6,0.2c12.4-1.9,24.9-2.8,36.9-7c3.6-1.3,7.7-2.1,8.7-8.1
			c3.1,3.2,5.3,5.2,7.1,7.5c7.8,10.3,15.5,20.8,23.3,31.2c3.6,4.8,7.2,9.5,10.7,14.3c0.8,1.1,1.3,2.5,1.5,3.9
			c0.4,3.4-0.3,6.1-3.6,8.1c-6.8,4.2-12.6,10-20.1,13.2c-1.9,0.8-3.6,2-5.6,3.3c-5.7-0.8-7.8-7.3-13.3-9.7c-0.1,1.1-0.3,1.8-0.2,2.5
			c1.6,12,3.3,24,4.7,36c1.4,12.7,1.2,13-11.3,16.4c-6.9,1.9-13.9,3.5-20.9,4.9c-2.6,0.5-5.5-0.4-8.2-0.2
			c-7.4,0.5-14.7,1.8-22.1,1.9c-5.7,0.1-11.5-0.8-17-1.9c-3.8-0.8-6.5-3.7-7-7.7c-1-7.5-1.9-15.1-2.7-22.6c-0.7-6.3-1.3-12.7-1.9-19
			c-0.5-5.5-1-11-1.5-16.3c-6.1,1.6-12.1,3.4-18.3,4.7c-7.3,1.5-9.5,0-12.1-7c-2.7-7.3-5.2-14.7-7.8-22.1c-0.9-2.5-1.9-4.9-2.6-7.4
			s0.4-4.1,2.8-5.4c8-4.2,15.9-8.5,23.7-13c6.2-3.6,12.2-7.5,18.3-11.2C114.9,339.8,116.1,339.4,117.6,338.8z M83.5,397.9
			c8.3-2,15.9-4,23.5-5.5c6.1-1.2,7.7,0.5,7.9,6.7c0.1,4.3-0.2,8.7,0.2,13c1.3,13.7,3,27.3,4.4,41c0.7,6.4,2.7,8.8,9.3,9
			c11.9,0.3,23.8,0.1,35.7-1.7c5.6-0.8,11.5-0.3,17-1.3c3.9-0.7,7.8-2.6,11.1-5c1.4-1,1.6-4.5,1.3-6.8c-1.4-13.9-3.1-27.7-4.7-41.5
			c-0.2-2-0.6-4.2-1.6-5.9c-1.7-3.1-0.4-5.4,1.3-8.2c8.2,5,14.6,12.1,23,16.1c6.8-4.8,13.1-9.3,19.9-14.2
			c-6.3-7.8-12.3-14.8-17.8-22.2c-5.5-7.3-10.6-15-15.9-22.7c-2.4,1.3-4.5,2.1-6.3,3.5c-4.2,3.2-9,5.2-14,5.9
			c-8.4,1.2-16.7,2.8-25.4,1.5c-13.3-1.9-26.5-3.3-37.4-12c-13.5,7.9-26.9,15.6-40.3,23.4C77.5,379.9,80.4,388.6,83.5,397.9z"/>
		<path class="st1" d="M83.5,397.9c8.3-2,15.9-4,23.5-5.5c6.1-1.2,7.7,0.5,7.9,6.7c0.1,4.3-0.2,8.7,0.2,13c1.3,13.7,3,27.3,4.4,41
			c0.7,6.4,2.7,8.8,9.3,9c11.9,0.3,23.8,0.1,35.7-1.7c5.6-0.8,11.5-0.3,17-1.3c3.9-0.7,7.8-2.6,11.1-5c1.4-1,1.6-4.5,1.3-6.8
			c-1.4-13.9-3.1-27.7-4.7-41.5c-0.2-2-0.6-4.2-1.6-5.9c-1.7-3.1-0.4-5.4,1.3-8.2c8.2,5,14.6,12.1,23,16.1
			c6.8-4.8,13.1-9.3,19.9-14.2c-6.3-7.8-12.3-14.8-17.8-22.2c-5.5-7.3-10.6-15-15.9-22.7c-2.4,1.3-4.5,2.1-6.3,3.5
			c-4.2,3.2-9,5.2-14,5.9c-8.4,1.2-16.7,2.8-25.4,1.5c-13.3-1.9-26.5-3.3-37.4-12c-13.5,7.9-26.9,15.6-40.3,23.4
			C77.5,379.9,80.4,388.6,83.5,397.9z"/>
	</g>
	<g id="Albanie_1_">
		<path d="M387.2,401.3c0.9,7.2,1.8,14.5,2.8,21.7c1.1,7.9,2.7,15.8,3.3,23.8c0.3,4.6-0.6,9.4-1.5,14c-0.6,3.1-2.8,5.5-6.3,6.1
			c-7.1,1.1-14.2,2.9-21.3,3.1c-11.9,0.3-23.9-0.3-35.8-0.9c-3.6-0.2-7.3-1.2-10.8-2.3c-3.6-1.1-5.8-3.9-5.9-7.9
			c-0.4-15.4-0.8-30.9-1-46.4c0-3.6,1-7.2,1.6-11.9c-4.5,2.3-8.3,4.2-12.1,6.1c-4.6,2.3-8.8,1.1-11.3-3.3
			c-5.8-10.3-13-19.5-21.8-27.4c-3.4-3.1-3.2-6.8,0.6-9.7c5.6-4.1,11.3-8.1,17.2-11.8c8.5-5.3,17.2-10.3,25.9-15.2
			c2.6-1.5,5.5-3,8.4-3.6c1.6-0.3,4.2,0.7,5.3,2c6.2,7,14.4,8.5,23.2,9.8c9.3,1.4,18-0.9,26.8-2.6c3.4-0.6,6.5-3.4,9.4-5.5
			c4.5-3.3,7.9-3.5,11.5,0.6c8.9,10,17.7,20.1,26.5,30.1c2.7,3.1,5.6,6.1,8.5,9c5.3,5.4,5.7,11.8,0.1,16.6
			c-5.7,4.9-12,9.3-18.3,13.5c-4.2,2.8-8.8,3-13.2-0.6c-3.3-2.7-7-5.1-10.5-7.6C388.2,401.1,387.7,401.2,387.2,401.3z M387.3,451.8
			c-0.4-4-0.8-8.5-1.2-12.9c-1.3-13.1-2.5-26.2-3.8-39.2c-0.1-1.4-0.9-2.7-1.4-4.1c-0.7-2.2-1.3-4.4,1.3-6.4c0.9,0.5,2.1,0.9,3,1.6
			c4.8,3.5,9.7,7,14.4,10.6c1.9,1.4,3.6,1.7,5.6,0.3c5.5-3.7,11-7.3,16.4-11c2.2-1.6,4.2-3.5,5.9-4.8
			c-12.3-14.1-24.1-27.7-36.2-41.5c-11.3,9.9-24.3,13.9-38.4,14.5c-14.4,0.6-27.1-3.6-37.2-14.3c-12.7,4.4-39,21-43.3,27.2
			c7,9.2,14,18.3,21.4,27.9c8.3-4.1,17-8.4,26.8-13.3c0.1,3,0.9,5.3,0.1,6.3c-4.2,5.4-4.2,12-4.5,18.1c-0.6,12.5-0.3,25.1-0.2,37.7
			c0,5.6,1.1,6.8,6.8,7.5c3.7,0.5,7.4,0.8,11.1,0.7c6.8,0,13.6-0.5,20.4-0.6c7.4-0.1,14.8,0.1,22.2-0.1
			C380.2,455.9,383.9,455.1,387.3,451.8z"/>
		<path class="st2" d="M387.3,451.8c-0.4-4-0.8-8.5-1.2-12.9c-1.3-13.1-2.5-26.2-3.8-39.2c-0.1-1.4-0.9-2.7-1.4-4.1
			c-0.7-2.2-1.3-4.4,1.3-6.4c0.9,0.5,2.1,0.9,3,1.6c4.8,3.5,9.7,7,14.4,10.6c1.9,1.4,3.6,1.7,5.6,0.3c5.5-3.7,11-7.3,16.4-11
			c2.2-1.6,4.2-3.5,5.9-4.8c-12.3-14.1-24.1-27.7-36.2-41.5c-11.3,9.9-24.3,13.9-38.4,14.5c-14.4,0.6-27.1-3.6-37.2-14.3
			c-12.7,4.4-39,21-43.3,27.2c7,9.2,14,18.3,21.4,27.9c8.3-4.1,17-8.4,26.8-13.3c0.1,3,0.9,5.3,0.1,6.3c-4.2,5.4-4.2,12-4.5,18.1
			c-0.6,12.5-0.3,25.1-0.2,37.7c0,5.6,1.1,6.8,6.8,7.5c3.7,0.5,7.4,0.8,11.1,0.7c6.8,0,13.6-0.5,20.4-0.6c7.4-0.1,14.8,0.1,22.2-0.1
			C380.2,455.9,383.9,455.1,387.3,451.8z"/>
	</g>
	<g id="France_1_">
		<path d="M39.1,396.1C28.6,383.9,20,370.4,11.2,357c-3.6-5.5-7.4-10.8-11.2-16.3c-26.4,12.2-51.4,14.4-75.9-2.3
			c-5.4,4.1-10.7,8-15.9,12c-6.6,5-13.1,9.9-19.6,15c-2.7,2.1-5.1,4.5-7.8,6.7c-3.8,3.1-3.3,6.6-1.3,10.4
			c3.7,7.1,7.5,14.2,10.7,21.6c1.5,3.4,3.6,5.9,7.1,7.6c7.6-2.5,15.5-5,23.6-7.6c-0.3,5.5-0.3,10.4-0.8,15.2
			c-1.1,10.8-2.3,21.6-3.6,32.4c-0.9,7.7,2.9,11.9,9.8,12.8c10.6,1.4,21.3,2.1,31.9,2.8c3.2,0.2,6.6-0.8,9.8-0.8
			c8.8,0,16.9-2.7,24.3-5.4c5.1-23.6,4.9-35.8,4-54.1c5.2,5.1,10.5,10.2,16.3,15.8c10.1-3.2,19.3-10.2,29-16.1
			C42.3,402.6,41.7,399.1,39.1,396.1z M-104.5,403.1c-3.5-6.6-7-13.1-10.4-19.7c-2.4-4.6-2.1-6.2,2.4-9.4
			c11.2-8,22.8-15.5,34.1-23.3c0.4-0.3,0.7-0.5,1.1-0.6c1.5,23.5,1,35.5,0.5,41.6C-86.2,395.8-94.5,401-104.5,403.1z M-14.8,457.4
			c-3.8,2.1-19.9,2.4-22.7,2.4c-6,0.1-11.9-0.2-17.9-0.6c-5.7-0.4-11.4-1.2-17.1-2c-1.8-0.2-3.5-0.9-5.5-1.5
			c1-11.2,2.2-21.9,2.9-32.7c0.6-10.6,3.1-21.2,1.8-32.6l0,0c0.5-10.7-0.5-26.3-0.2-40.6c0.7,0.2,1.3,0.5,2.1,1
			c5.5,3.8,11.8,5.6,18.5,6.2c6.5,0.6,13.1,2.2,19.6,2c10.2-0.4,20.5-1.3,29.3-8.1c-5.7,14.7-9.2,29.8-8.5,40.8
			c0.1,1.6,0.2,2.8,0.4,3.8c-0.2,2.1-0.4,3.7-0.4,5.2C-12.8,414.5-11,455.3-14.8,457.4z M19.5,409.8c-7.5,4.6-7.5,4.3-14-1.6
			c-3.2-2.9-6.9-5.2-10.2-7.9c-1.6-1.4-3.1-2.9-4.9-4.8c0.1-1,0.1-2.1,0-3.3c-0.5-6.1,0.6-21,9.5-43.1
			c11.7,17.1,22.8,33.4,34.2,50.1C30.3,403.8,24.7,406.6,19.5,409.8z"/>
		<path class="st3" d="M-104.5,403.1c-3.5-6.6-7-13.1-10.4-19.7c-2.4-4.6-2.1-6.2,2.4-9.4c11.2-8,22.8-15.5,34.1-23.3
			c0.4-0.3,0.7-0.5,1.1-0.6c1.5,23.5,1,35.5,0.5,41.6C-86.2,395.8-94.5,401-104.5,403.1z"/>
		<path class="st4" d="M-14.8,457.4c-3.8,2.1-19.9,2.4-22.7,2.4c-6,0.1-11.9-0.2-17.9-0.6c-5.7-0.4-11.4-1.2-17.1-2
			c-1.8-0.2-3.5-0.9-5.5-1.5c1-11.2,2.2-21.9,2.9-32.7c0.6-10.6,3.1-21.2,1.8-32.6l0,0c0.5-10.7-0.5-26.3-0.2-40.6
			c0.7,0.2,1.3,0.5,2.1,1c5.5,3.8,11.8,5.6,18.5,6.2c6.5,0.6,13.1,2.2,19.6,2c10.2-0.4,20.5-1.3,29.3-8.1
			c-5.7,14.7-9.2,29.8-8.5,40.8c0.1,1.6,0.2,2.8,0.4,3.8c-0.2,2.1-0.4,3.7-0.4,5.2C-12.8,414.5-11,455.3-14.8,457.4z"/>
		<path class="st3" d="M19.5,409.8c-7.5,4.6-7.5,4.3-14-1.6c-3.2-2.9-6.9-5.2-10.2-7.9c-1.6-1.4-3.1-2.9-4.9-4.8
			c0.1-1,0.1-2.1,0-3.3c-0.5-6.1,0.6-21,9.5-43.1c11.7,17.1,22.8,33.4,34.2,50.1C30.3,403.8,24.7,406.6,19.5,409.8z"/>
	</g>
	<g id="Suisse_1_">
		<path d="M631.5,368.4c-1.5-1.4-3.4-2.4-5.3-3.4c-5.3-2.8-10.8-5.3-16.1-8.3c-8-4.6-16.1-9.1-22.8-16c-2.6-2.7-5.2-2.7-8.2-0.8
			c-1.9,1.2-3.7,2.7-5.8,3.6c-8.2,3.8-16.6,6-25.6,5.1c-10.4-1-20.2-3.6-28.4-11.1c-1.8-1.7-3.7-3.1-5.5-4.6
			c-0.9,0.3-1.5,0.3-1.9,0.6c-7.4,6-15.4,11-23.6,15.6c-7.7,4.3-15,9.7-22.4,14.5c-5.7,3.7-7,6.2-4.8,12.8
			c3.5,10.1,7.4,20.1,11.3,30c1.2,3.1,3.2,4,6.4,3.4c1.8-0.4,3.5-1.2,5.3-1.7c4.6-1.3,9.3-2.5,14.8-4c-0.6,9.1-1.2,17-1.6,24.9
			c-0.5,10-1,20-1.4,29.9c-0.2,4.5,2.3,7.4,5.8,8.6c9,3.3,18.5,4.4,28,4.9c5.3,0.3,10.6-0.1,15.9-0.6c7-0.7,14.1-1.5,21-2.9
			c3.5-0.7,6.7-3.5,10.2-4.4c9.3-2.6,9.1-7.3,8-13.6c-1.6-8.9-1.9-17.9-2.1-26.9c-0.1-2.8-0.5-5.5-0.7-8.3
			c-0.4-3.9-0.7-7.8-1.1-11.9c7.5,0.2,13.7,2.8,19.9,5.6c2.1,1,4,1.9,6.3,0.9c4.6-1.9,8.7-4.4,11.4-9.2c1.2-2.2,2.8-4.3,4.2-6.4
			c3.6-5.3,7.3-10.5,10.6-16C635.7,374.4,635.2,371.7,631.5,368.4z M478.6,402.2c-0.7,0.2-1.4,0.5-2.7,0.9
			c-2.6-6.8-5.1-13.3-7.6-19.9c-0.3-0.7-0.3-1.6-0.7-2.3c-4.3-8-3.3-8,3.8-13c7-5,14.4-9.3,21.6-13.8c5-3.1,10-6.2,14.8-9.1
			c0.4,9,0,42.8-4.9,47.8C496.5,399.2,486.5,399.7,478.6,402.2z M562.5,459.6c-10.5,1.2-21.2,1.4-31.8,2.2
			c-10,0.8-19.5-2.2-29.1-4.2c-1.4-4.9,0.3-37.6,2.7-54.4c5-6.2,8.3-30.9,7.8-57.7c23.4,15.7,46.8,15.2,70.6,0.6
			c-4,13.3-8.1,29.5-9.1,47.2c-0.1,0-0.1,0-0.2,0c-0.8,20.7,3.4,40.2,5.3,60.4C574.2,457.3,568.3,458.9,562.5,459.6z M618.7,383.5
			c-3.6,5.3-7.5,10.4-11,15.8c-1.8,2.8-3.5,3-6.1,1.4c-4.1-2.6-8.5-3.8-13.3-4.2c-3.7-0.3-7.4-1.4-11.4-2.4
			c0.6-12.8,7.5-39.3,10-46.6c11.4,10.3,25.1,17,38.8,25.2C623.4,376.4,621.1,380,618.7,383.5z"/>
		<path class="st2" d="M562.5,459.6c-10.5,1.2-21.2,1.4-31.8,2.2c-10,0.8-19.5-2.2-29.1-4.2c-1.4-4.9,0.3-37.6,2.7-54.4
			c5-6.2,8.3-30.9,7.8-57.7c23.4,15.7,46.8,15.2,70.6,0.6c-4,13.3-8.1,29.5-9.1,47.2c-0.1,0-0.1,0-0.2,0
			c-0.8,20.7,3.4,40.2,5.3,60.4C574.2,457.3,568.3,458.9,562.5,459.6z"/>
		<path class="st5" d="M478.6,402.2c-0.7,0.2-1.4,0.5-2.7,0.9c-2.6-6.8-5.1-13.3-7.6-19.9c-0.3-0.7-0.3-1.6-0.7-2.3
			c-4.3-8-3.3-8,3.8-13c7-5,14.4-9.3,21.6-13.8c5-3.1,10-6.2,14.8-9.1c0.4,9,0,42.8-4.9,47.8C496.5,399.2,486.5,399.7,478.6,402.2z"
			/>
		<path class="st5" d="M618.7,383.5c-3.6,5.3-7.5,10.4-11,15.8c-1.8,2.8-3.5,3-6.1,1.4c-4.1-2.6-8.5-3.8-13.3-4.2
			c-3.7-0.3-7.4-1.4-11.4-2.4c0.6-12.8,7.5-39.3,10-46.6c11.4,10.3,25.1,17,38.8,25.2C623.4,376.4,621.1,380,618.7,383.5z"/>
	</g>
</g>
</svg>
