<?xml version="1.0" encoding="utf-8"?>
<!-- Generator: Adobe Illustrator 19.1.0, SVG Export Plug-In . SVG Version: 6.00 Build 0)  -->
<svg version="1.1" id="Calque_1" xmlns="http://www.w3.org/2000/svg" xmlns:xlink="http://www.w3.org/1999/xlink" x="0px" y="0px"
	 viewBox="-189 264.9 901 273.1" style="enable-background:new -189 264.9 901 273.1;" xml:space="preserve">
<style type="text/css">
	.st0{enable-background:new    ;}
	.st1{fill:#F9CB00;}
	.st2{fill:#008549;}
	.st3{fill:#F5F9F8;}
	.st4{fill:#DF111A;}
</style>
<g>
	<path d="M-185.7,311.3c17.2,0.4,33.9,0.8,50.6,1.2c6.2,0.1,12.3,0.3,18.5,0.5c13.7,0.5,27.5,1.2,41.2,1.7c3.3,0.1,6.5,0.1,9.8,0.1
		c26.6,0,53.3-0.1,79.9-0.1c12.3,0,24.6-0.1,36.9,0.2c12.7,0.2,25.4,0.8,38.1,1.3c1.8,0.1,3.5,0,5.3,0.1c26.3,0.2,52.6,0.4,78.9,0.5
		c9.3,0,18.6-0.2,27.9-0.3c13.3-0.2,26.7-0.3,40-0.5c32.4-0.5,64.9-1.2,97.3-1.7c23.9-0.3,47.8-0.4,71.7-0.5c20.6,0,41.2,0,61.8,0.2
		c16.5,0.2,33,0.8,49.6,1.1c7.5,0.1,14.9-0.3,22.4-0.2c30.6,0.3,61.2,1.4,91.9,0.5c11.8-0.3,23.6,0.1,35.4,0.4
		c10.6,0.2,21.3,0.5,31.5,5.7c-0.4,12.4-0.8,25.2-1.2,37.9c0,1.5,0,3.1,0,4.6c-0.4,20.9-0.9,41.8-1.3,62.6
		c-0.2,8.8-0.7,17.5-0.8,26.3c-0.2,19.9,1.1,70.3,2,75.5c0.6,3.2-2.5,7.4-7.1,8.5c-3.1,0.7-6.4,1.1-9.6,1.1
		c-6.7,0-13.5-0.4-20.2-0.4c-18.6-0.2-37.1-0.2-55.7-0.4c-10-0.1-20.1,0-30.1-0.2c-15.3-0.3-30.5-1-45.8-1.2
		c-14-0.2-28-0.1-42.1-0.1c-21.1-0.1-42.2,0-63.3-0.2c-18.8-0.2-37.6-0.9-56.4-1.3c-4.5-0.1-9,0.2-13.5,0c-20.5-0.7-40.9-2-61.5-1.9
		c-21.3,0.1-42.6,0-63.9-0.1c-10.5-0.1-21-0.1-31.5-0.5c-8.5-0.3-16.9-1.2-25.4-1.6c-5.2-0.2-10.5,0.2-15.7,0.2
		c-27.4,0.4-54.8,0.8-82.2,1c-9.2,0.1-18.3-0.8-27.5-0.9c-3.7-0.1-7.4,0.8-11.1,0.8c-24.8,0.4-49.6-0.3-74.4-1.6
		c-8.2-0.5-16.5,0.1-24.6-0.6c-10.5-0.8-20.9-1.1-31.4,0.3c-6.5,0.8-13.3,0.3-20,0.2c-4.7-0.1-9.5-0.5-14.2-0.5
		c-14.8-0.2-29.6-0.2-44.4-0.4c-9.3-0.1-13.7-3.9-14.8-12.2c-0.8-6-2.1-12-3-18.1c-0.3-1.9-0.5-3.8-0.5-5.7
		c-0.2-16.1-0.7-32.2-0.5-48.4c0.1-8.8,1.3-17.5,1.8-26.3c0.2-4.2,0.1-8.4-0.1-12.7c-0.5-13.2-1.5-26.4-1.5-39.6
		c0-15.5,0.8-31,1.4-46.5C-187.3,316.7-186.3,314.1-185.7,311.3z M681.6,322.9c-10.7-0.4-20.7-0.9-30.7-1
		c-13.6-0.1-27.2,0.5-40.8,0.3c-22.5-0.3-45-1.1-67.5-1.4c-19.8-0.3-39.7-0.2-59.5-0.3c-23.6,0-47.2,0-70.9,0
		c-8.2,0-16.5-0.5-24.7-0.5c-10.2,0-20.3,0.5-30.5,0.6c-21.4,0.2-42.7,0.4-64.1,0.5c-63.4,0.5-126.7,2.6-190.1,0.8
		c-11.5-0.3-23.1-0.4-34.6-0.5c-14.8-0.1-29.7-0.2-44.5-0.3c-2.5,0-5,0-7.6,0.1c-23.8,0.1-47.6,0.2-71.3,0.3c-3.3,0-6.6,0.3-9.8,0
		c-20.6-2-41.4-3-62.2-2.5c-2.8,0.1-5.7,0.5-8.3,0c-14.6-3.1-29.5-0.7-44.9-1.3c-0.4,2.1-1,3.9-1.1,5.7c0,3.8,0.5,7.6,0.4,11.4
		c-0.3,12.8-1.1,25.5-1,38.3c0.1,12.4,1.4,24.8,1.5,37.3c0.2,20.1-0.2,40.2-0.3,60.4c0,5.9,1.4,12.1-0.1,17.8
		c-2.4,9.4,2.3,18.1,2.2,27.6c3.8,0.5,7.2,1.3,10.6,1.4c15.5,0.2,31.1,0.1,46.6,0.1c6.8,0,13.5-0.6,20.3-0.6
		c23.1,0.1,46.1,0.3,69.2,0.4c10.3,0,20.6-0.5,30.9-0.3c19,0.4,38.1,1,57.1,1.6c10.7,0.3,21.4,0.8,32.1,1.2c9.5,0.3,19,0.6,28.6,0.7
		c9,0.1,18-0.3,27.1-0.2c14.9,0.2,29.8,0.7,44.7,0.9c16.5,0.2,33.1,0.2,49.6,0.4c11.5,0.1,23.1,0.4,34.6,0.4c15.6,0.1,31.1,0,46.7,0
		c28.9,0,57.8,0,86.7-0.1c7.8,0,15.6-0.3,23.3-0.3c20.3,0,40.5,0.1,60.8,0.1c18.5,0.1,37,0.1,55.5,0.2c27.5,0.2,55,0.4,82.6,0.6
		c3,0,6,0.3,9,0.4c11.8,0.5,23.5,1.1,35.3,1.4c4.6,0.1,9.3-0.3,14.3-0.5c0-3.5,0.1-6.4-0.2-9.2c-1-10.1-3-20.1-3.2-30.2
		c-0.4-21,0-42,0.2-63c0.1-11.1,0.2-22.1,0.5-33.2c0.1-4-0.2-45.9-0.7-51.2C682.7,332.4,682.1,327.7,681.6,322.9z"/>
	<g>
		<g class="st0">
			<path d="M-144.6,507.1c-0.1,0.4-0.2,0.6-0.5,0.8s-0.5,0.3-0.9,0.3h-2.5c-0.4,0-0.8-0.1-1-0.4c-0.2-0.3-0.3-0.6-0.2-1.1l5.1-19.4
				c0.1-0.3,0.2-0.6,0.5-0.8c0.2-0.2,0.5-0.3,0.9-0.3h5.7c0.4,0,0.7,0.1,0.9,0.3s0.4,0.5,0.5,0.8l5.1,19.4c0.1,0.4,0,0.8-0.2,1.1
				c-0.2,0.3-0.6,0.4-1,0.4h-2.5c-0.4,0-0.7-0.1-0.9-0.3s-0.4-0.5-0.5-0.8l-0.8-3.3h-6.8L-144.6,507.1z M-138,500l-2.5-10.2
				l-2.5,10.2H-138z"/>
			<path d="M-125.1,508.2h-2.7c-0.4,0-0.7-0.1-1-0.4c-0.2-0.2-0.4-0.6-0.4-1v-19.3c0-0.4,0.1-0.7,0.4-1c0.2-0.2,0.6-0.4,1-0.4h2.7
				c0.4,0,0.7,0.1,1,0.4c0.2,0.2,0.4,0.6,0.4,1v19.3c0,0.4-0.1,0.7-0.4,1C-124.4,508.1-124.7,508.2-125.1,508.2z"/>
			<path d="M-117.6,508.2h-2.7c-0.4,0-0.7-0.1-1-0.4c-0.2-0.2-0.4-0.6-0.4-1v-19.3c0-0.4,0.1-0.7,0.4-1c0.2-0.2,0.6-0.4,1-0.4h2.7
				c0.4,0,0.7,0.1,1,0.4c0.2,0.2,0.4,0.6,0.4,1v19.3c0,0.4-0.1,0.7-0.4,1C-116.9,508.1-117.2,508.2-117.6,508.2z"/>
			<path d="M-96.9,503.7c-0.4,1.5-1.3,2.6-2.8,3.4c-1.5,0.8-3.4,1.2-5.8,1.2c-3,0-5.2-0.8-6.7-2.3c-1.4-1.5-2.2-3.8-2.2-6.8v-1.7
				c0-3,0.7-5.2,2.2-6.7c1.5-1.5,3.7-2.2,6.8-2.2c2.9,0,5.1,0.6,6.5,1.9c1.5,1.3,2.2,3.1,2.2,5.5v1.9c0,0.4-0.1,0.7-0.3,0.9
				c-0.2,0.2-0.5,0.3-0.9,0.3h-11.1c0,1.7,0.3,2.9,0.8,3.6c0.5,0.7,1.4,1,2.6,1c0.9,0,1.6-0.1,2.1-0.3c0.5-0.2,0.9-0.5,1.1-1
				c0-0.1,0.1-0.3,0.2-0.5c0.1-0.5,0.3-0.8,0.5-1c0.2-0.2,0.6-0.3,1-0.3h2.6c0.9,0,1.3,0.5,1.3,1.4
				C-96.7,502.7-96.7,503.3-96.9,503.7z M-105.3,493.1c-1.1,0-1.9,0.2-2.5,0.7s-0.9,1.3-1,2.5h6.8v-0.1c0-1.2-0.3-2-0.8-2.5
				S-104.2,493.1-105.3,493.1z"/>
			<path d="M-89.3,496.3c0-2.7,0.4-4.6,1.3-5.8c0.9-1.2,2.3-1.8,4.3-1.8c2,0,3.4,0.5,4.4,1.5s1.5,2.6,1.6,4.8
				c0.2-2.2,0.7-3.8,1.5-4.8c0.9-1,2.2-1.5,4.1-1.5c2.1,0,3.7,0.6,4.6,1.7s1.5,3,1.5,5.6v10.9c0,0.4-0.1,0.8-0.4,1
				c-0.2,0.2-0.6,0.4-1,0.4H-70c-0.4,0-0.8-0.1-1-0.4c-0.2-0.2-0.4-0.6-0.4-1v-9.7c0-1.1-0.2-1.9-0.6-2.5c-0.4-0.5-1.2-0.8-2.2-0.8
				c-0.5,0-1,0.1-1.3,0.2c-0.4,0.1-0.7,0.3-1.1,0.6c-0.3,0.3-0.6,0.7-0.8,1.3c-0.2,0.6-0.3,1.2-0.3,2.1v8.9c0,0.4-0.1,0.7-0.4,1
				c-0.2,0.2-0.6,0.4-1,0.4h-2.7c-0.4,0-0.7-0.1-1-0.4c-0.2-0.2-0.4-0.6-0.4-1v-9.8c0-1.1-0.2-1.9-0.6-2.5c-0.4-0.5-1.2-0.8-2.2-0.8
				c-0.5,0-1,0-1.3,0.2c-0.4,0.1-0.7,0.3-1.1,0.5c-0.3,0.3-0.6,0.6-0.8,1.2c-0.2,0.5-0.3,1.2-0.3,1.9v9.2c0,0.4-0.1,0.7-0.4,1
				c-0.2,0.2-0.6,0.4-1,0.4h-2.7c-0.4,0-0.7-0.1-1-0.4c-0.2-0.2-0.4-0.6-0.4-1v-16.7c0-0.4,0.1-0.7,0.4-1c0.2-0.2,0.6-0.4,1-0.4h2.7
				c0.4,0,0.7,0.1,1,0.4s0.4,0.6,0.4,1V496.3z"/>
			<path d="M-52.6,503.9c0,1.4-0.5,2.5-1.4,3.3c-0.9,0.8-2.4,1.2-4.4,1.2c-1.9,0-3.4-0.4-4.4-1.3c-1-0.9-1.5-2.1-1.5-3.8V503
				c0-0.8,0.1-1.5,0.3-2.1c0.2-0.6,0.5-1.1,0.8-1.5c0.3-0.4,0.8-0.8,1.3-1.1c0.5-0.3,1.1-0.5,1.6-0.7s1.2-0.3,1.9-0.4
				c0.7-0.1,1.4-0.2,1.9-0.3s1.2-0.1,2-0.2c0.7-0.1,1.3-0.2,1.8-0.3v-0.5c0-1-0.2-1.7-0.7-2.1c-0.4-0.4-1.2-0.5-2.3-0.5
				c-0.7,0-1.2,0.1-1.6,0.2c-0.4,0.2-0.6,0.4-0.7,0.7c-0.1,0.1-0.2,0.3-0.3,0.5c-0.1,0.6-0.5,0.9-1.3,0.9h-2.8
				c-0.9,0-1.3-0.4-1.3-1.3c0-0.3,0-0.6,0.1-0.7c0.2-1.5,0.9-2.7,2.3-3.6c1.3-0.8,3.2-1.3,5.5-1.3c3,0,5.2,0.6,6.5,1.7
				c1.3,1.1,2,2.9,2,5.4v11.1c0,0.4-0.1,0.8-0.4,1c-0.2,0.2-0.6,0.4-1,0.4h-2.7c-0.4,0-0.8-0.1-1-0.4c-0.2-0.2-0.4-0.6-0.4-1V503.9z
				 M-56.3,505c0.6,0,1.1,0,1.5-0.1s0.8-0.1,1.2-0.3c0.4-0.1,0.6-0.3,0.8-0.6c0.2-0.3,0.3-0.6,0.3-1v-3.5c-0.1,0-0.4,0.1-0.7,0.1
				c-0.8,0.1-1.4,0.2-1.8,0.3c-0.4,0.1-0.8,0.2-1.4,0.3s-0.9,0.2-1.1,0.4c-0.2,0.1-0.5,0.3-0.7,0.5c-0.3,0.2-0.4,0.4-0.5,0.7
				c-0.1,0.2-0.1,0.5-0.1,0.9v0.2C-58.8,504.3-58,505-56.3,505z"/>
			<path d="M-32.8,494.5v-4.4c0-0.4,0.1-0.8,0.4-1c0.2-0.2,0.6-0.4,1-0.4h2.7c0.4,0,0.7,0.1,1,0.4c0.2,0.2,0.4,0.6,0.4,1v14.6
				c0,1.7-0.7,3-2.1,3.8c-1.4,0.8-3.6,1.2-6.7,1.2c-4.7,0-7.4-0.9-8.2-2.7c-0.1-0.4-0.2-0.7-0.2-1.1c0-0.7,0.4-1.1,1.2-1.1h2.5
				c0.4,0,0.7,0.1,0.8,0.2s0.4,0.3,0.6,0.7c0.1,0.2,0.2,0.4,0.4,0.6c0.2,0.3,0.6,0.4,1,0.5c0.5,0.1,1.1,0.1,1.9,0.1
				c1.2,0,2.1-0.2,2.6-0.5c0.5-0.3,0.8-1,0.8-1.9v-5.9c0,2-0.4,3.4-1.3,4.4s-2.3,1.5-4.3,1.5c-2.4,0-4.1-0.6-5.1-1.8
				c-1-1.2-1.6-3.1-1.6-5.8v-0.7c0-2.6,0.5-4.5,1.6-5.7c1-1.2,2.8-1.9,5.1-1.9c2,0,3.4,0.5,4.3,1.5
				C-33.2,491.1-32.8,492.6-32.8,494.5z M-39.7,496.4v0.3c0,1.5,0.3,2.5,0.8,3.1c0.5,0.6,1.4,0.9,2.7,0.9c2.3,0,3.4-0.9,3.4-2.8
				v-2.7c0-1.8-1.1-2.7-3.4-2.7c-1.2,0-2.1,0.3-2.6,0.9C-39.4,494-39.7,495-39.7,496.4z"/>
			<path d="M-19.9,496.3c0-2.7,0.4-4.6,1.3-5.8c0.9-1.2,2.3-1.8,4.3-1.8c2.1,0,3.7,0.6,4.6,1.7s1.5,3,1.5,5.7v10.8
				c0,0.4-0.1,0.7-0.4,1c-0.2,0.2-0.6,0.4-1,0.4h-2.7c-0.4,0-0.7-0.1-1-0.4c-0.2-0.2-0.4-0.6-0.4-1v-9.8c0-1.1-0.2-1.9-0.6-2.5
				c-0.4-0.5-1.2-0.8-2.2-0.8c-0.5,0-1,0-1.3,0.2c-0.4,0.1-0.7,0.3-1.1,0.5c-0.3,0.3-0.6,0.6-0.8,1.2c-0.2,0.5-0.3,1.2-0.3,1.9v9.2
				c0,0.4-0.1,0.7-0.4,1c-0.2,0.2-0.6,0.4-1,0.4H-24c-0.4,0-0.7-0.1-1-0.4c-0.2-0.2-0.4-0.6-0.4-1v-16.7c0-0.4,0.1-0.7,0.4-1
				c0.2-0.2,0.6-0.4,1-0.4h2.7c0.4,0,0.7,0.1,1,0.4s0.4,0.6,0.4,1V496.3z"/>
			<path d="M11.1,503.7c-0.4,1.5-1.3,2.6-2.8,3.4c-1.5,0.8-3.4,1.2-5.8,1.2c-3,0-5.2-0.8-6.7-2.3c-1.4-1.5-2.2-3.8-2.2-6.8v-1.7
				c0-3,0.7-5.2,2.2-6.7c1.5-1.5,3.7-2.2,6.8-2.2c2.9,0,5.1,0.6,6.5,1.9c1.5,1.3,2.2,3.1,2.2,5.5v1.9c0,0.4-0.1,0.7-0.3,0.9
				c-0.2,0.2-0.5,0.3-0.9,0.3H-1c0,1.7,0.3,2.9,0.8,3.6c0.5,0.7,1.4,1,2.6,1c0.9,0,1.6-0.1,2.1-0.3c0.5-0.2,0.9-0.5,1.1-1
				c0-0.1,0.1-0.3,0.2-0.5c0.1-0.5,0.3-0.8,0.5-1c0.2-0.2,0.6-0.3,1-0.3H10c0.9,0,1.3,0.5,1.3,1.4C11.3,502.7,11.2,503.3,11.1,503.7
				z M2.6,493.1c-1.1,0-1.9,0.2-2.5,0.7s-0.9,1.3-1,2.5h6.8v-0.1c0-1.2-0.3-2-0.8-2.5S3.8,493.1,2.6,493.1z"/>
		</g>
	</g>
	<g>
		<g class="st0">
			<path d="M115.1,498c0,1.6-0.1,2.9-0.3,4c-0.2,1.1-0.5,2.1-1,2.9c-0.4,0.8-1,1.5-1.7,2c-0.7,0.5-1.6,0.9-2.6,1.1
				c-1,0.2-2.2,0.3-3.6,0.3c-1.7,0-3.1-0.2-4.3-0.5s-2.1-0.9-2.8-1.8c-0.7-0.8-1.3-1.9-1.6-3.2s-0.5-2.9-0.5-4.9v-10.4
				c0-0.4,0.1-0.8,0.4-1c0.2-0.2,0.6-0.4,1-0.4h2.7c0.4,0,0.8,0.1,1,0.4c0.2,0.2,0.4,0.6,0.4,1v10c0,1.5,0.1,2.6,0.4,3.5
				s0.7,1.5,1.2,1.8c0.5,0.4,1.2,0.5,2.1,0.5s1.6-0.2,2.1-0.5c0.5-0.3,0.9-1,1.2-1.8c0.3-0.9,0.4-2,0.4-3.5v-10c0-0.4,0.1-0.8,0.3-1
				c0.2-0.2,0.6-0.4,1-0.4h2.7c0.4,0,0.8,0.1,1,0.4c0.2,0.2,0.4,0.6,0.4,1V498z"/>
			<path d="M122.6,506.9c0,0.4-0.1,0.7-0.4,1c-0.2,0.2-0.6,0.4-1,0.4h-2.7c-0.4,0-0.7-0.1-1-0.4c-0.2-0.2-0.4-0.6-0.4-1v-19.3
				c0-0.4,0.1-0.7,0.4-1c0.2-0.2,0.6-0.4,1-0.4h2.7c0.4,0,0.8,0.1,1,0.4c0.2,0.2,0.4,0.6,0.4,1v10.6l5.7-8.6
				c0.3-0.5,0.7-0.8,1.3-0.8h2.7c0.5,0,0.9,0.2,1.1,0.5c0.2,0.4,0.2,0.7-0.1,1.2l-5.3,8l5.4,8.1c0.2,0.4,0.2,0.8,0,1.2
				c-0.2,0.4-0.5,0.6-1,0.6h-2.9c-0.6,0-1-0.2-1.3-0.8l-5.7-8.6V506.9z"/>
			<path d="M141.4,490.2v6.1c0-2.6,0.4-4.6,1.3-5.8s2.2-1.8,4.2-1.8c0.4,0,0.7,0.1,0.8,0.3s0.3,0.6,0.3,1v3.2c0,1.1-0.6,1.6-1.7,1.5
				c-0.6-0.1-1.1-0.1-1.7,0c-0.6,0.1-1.1,0.2-1.6,0.4c-0.5,0.2-0.8,0.5-1.1,0.9c-0.3,0.4-0.4,0.9-0.4,1.6v9.2c0,0.4-0.1,0.8-0.4,1
				c-0.2,0.2-0.6,0.4-1,0.4h-2.7c-0.4,0-0.8-0.1-1-0.4c-0.2-0.2-0.4-0.6-0.4-1v-16.7c0-0.4,0.1-0.8,0.4-1c0.2-0.2,0.6-0.4,1-0.4h2.7
				c0.4,0,0.7,0.1,1,0.4S141.4,489.7,141.4,490.2z"/>
			<path d="M160.6,503.9c0,1.4-0.5,2.5-1.4,3.3c-0.9,0.8-2.4,1.2-4.4,1.2c-1.9,0-3.4-0.4-4.4-1.3c-1-0.9-1.5-2.1-1.5-3.8V503
				c0-0.8,0.1-1.5,0.3-2.1c0.2-0.6,0.5-1.1,0.8-1.5c0.3-0.4,0.8-0.8,1.3-1.1c0.5-0.3,1.1-0.5,1.6-0.7s1.2-0.3,1.9-0.4
				c0.7-0.1,1.4-0.2,1.9-0.3s1.2-0.1,2-0.2c0.7-0.1,1.3-0.2,1.8-0.3v-0.5c0-1-0.2-1.7-0.7-2.1c-0.4-0.4-1.2-0.5-2.3-0.5
				c-0.7,0-1.2,0.1-1.6,0.2c-0.4,0.2-0.6,0.4-0.7,0.7c-0.1,0.1-0.2,0.3-0.3,0.5c-0.1,0.6-0.5,0.9-1.3,0.9h-2.8
				c-0.9,0-1.3-0.4-1.3-1.3c0-0.3,0-0.6,0.1-0.7c0.2-1.5,0.9-2.7,2.3-3.6c1.3-0.8,3.2-1.3,5.5-1.3c3,0,5.2,0.6,6.5,1.7
				c1.3,1.1,2,2.9,2,5.4v11.1c0,0.4-0.1,0.8-0.4,1c-0.2,0.2-0.6,0.4-1,0.4h-2.7c-0.4,0-0.8-0.1-1-0.4c-0.2-0.2-0.4-0.6-0.4-1V503.9z
				 M156.8,505c0.6,0,1.1,0,1.5-0.1s0.8-0.1,1.2-0.3c0.4-0.1,0.6-0.3,0.8-0.6c0.2-0.3,0.3-0.6,0.3-1v-3.5c-0.1,0-0.4,0.1-0.7,0.1
				c-0.8,0.1-1.4,0.2-1.8,0.3c-0.4,0.1-0.8,0.2-1.4,0.3s-0.9,0.2-1.1,0.4c-0.2,0.1-0.5,0.3-0.7,0.5c-0.3,0.2-0.4,0.4-0.5,0.7
				c-0.1,0.2-0.1,0.5-0.1,0.9v0.2C154.3,504.3,155.1,505,156.8,505z"/>
			<path d="M172.4,487.9H169c-0.7,0-1-0.3-1-1v-0.1c0-0.7,0.3-1,1-1h3.4c0.7,0,1,0.3,1,1v0.1C173.4,487.6,173.1,487.9,172.4,487.9z
				 M172.1,508.2h-2.7c-0.4,0-0.7-0.1-1-0.4c-0.2-0.2-0.4-0.6-0.4-1v-16.7c0-0.4,0.1-0.7,0.4-1c0.2-0.2,0.6-0.4,1-0.4h2.7
				c0.4,0,0.7,0.1,1,0.4s0.4,0.6,0.4,1v16.7c0,0.4-0.1,0.7-0.4,1C172.8,508.1,172.5,508.2,172.1,508.2z"/>
			<path d="M180.9,496.3c0-2.7,0.4-4.6,1.3-5.8c0.9-1.2,2.3-1.8,4.3-1.8c2.1,0,3.7,0.6,4.6,1.7s1.5,3,1.5,5.7v10.8
				c0,0.4-0.1,0.7-0.4,1c-0.2,0.2-0.6,0.4-1,0.4h-2.7c-0.4,0-0.7-0.1-1-0.4c-0.2-0.2-0.4-0.6-0.4-1v-9.8c0-1.1-0.2-1.9-0.6-2.5
				c-0.4-0.5-1.2-0.8-2.2-0.8c-0.5,0-1,0-1.3,0.2c-0.4,0.1-0.7,0.3-1.1,0.5c-0.3,0.3-0.6,0.6-0.8,1.2c-0.2,0.5-0.3,1.2-0.3,1.9v9.2
				c0,0.4-0.1,0.7-0.4,1c-0.2,0.2-0.6,0.4-1,0.4h-2.7c-0.4,0-0.7-0.1-1-0.4c-0.2-0.2-0.4-0.6-0.4-1v-16.7c0-0.4,0.1-0.7,0.4-1
				c0.2-0.2,0.6-0.4,1-0.4h2.7c0.4,0,0.7,0.1,1,0.4s0.4,0.6,0.4,1V496.3z"/>
			<path d="M211.9,503.7c-0.4,1.5-1.3,2.6-2.8,3.4c-1.5,0.8-3.4,1.2-5.8,1.2c-3,0-5.2-0.8-6.7-2.3c-1.4-1.5-2.2-3.8-2.2-6.8v-1.7
				c0-3,0.7-5.2,2.2-6.7c1.5-1.5,3.7-2.2,6.8-2.2c2.9,0,5.1,0.6,6.5,1.9c1.5,1.3,2.2,3.1,2.2,5.5v1.9c0,0.4-0.1,0.7-0.3,0.9
				c-0.2,0.2-0.5,0.3-0.9,0.3h-11.1c0,1.7,0.3,2.9,0.8,3.6c0.5,0.7,1.4,1,2.6,1c0.9,0,1.6-0.1,2.1-0.3c0.5-0.2,0.9-0.5,1.1-1
				c0-0.1,0.1-0.3,0.2-0.5c0.1-0.5,0.3-0.8,0.5-1c0.2-0.2,0.6-0.3,1-0.3h2.6c0.9,0,1.3,0.5,1.3,1.4
				C212.1,502.7,212,503.3,211.9,503.7z M203.4,493.1c-1.1,0-1.9,0.2-2.5,0.7s-0.9,1.3-1,2.5h6.8v-0.1c0-1.2-0.3-2-0.8-2.5
				S204.6,493.1,203.4,493.1z"/>
		</g>
	</g>
	<g>
		<g class="st0">
			<path d="M295.2,495c0,1.1-0.2,2.1-0.4,2.9c-0.3,0.8-0.8,1.5-1.5,2.1c-0.7,0.6-1.6,1-2.6,1.3s-2.4,0.4-4,0.4h-3.5v5.2
				c0,0.4-0.1,0.7-0.4,1c-0.2,0.2-0.6,0.4-1,0.4h-2.7c-0.4,0-0.7-0.1-1-0.4c-0.2-0.2-0.4-0.6-0.4-1v-19.3c0-0.4,0.1-0.7,0.4-1
				c0.2-0.2,0.6-0.4,1-0.4h7.5c3.1,0,5.3,0.6,6.6,1.7c1.3,1.1,2,2.9,2,5.4V495z M286.6,491h-3.4v6.4h3.4c1.1,0,1.9-0.2,2.4-0.6
				c0.5-0.4,0.7-1.2,0.7-2.3v-0.3c0-1.2-0.2-2-0.7-2.4C288.6,491.2,287.8,491,286.6,491z"/>
			<path d="M314.4,497.6v1.7c0,2.9-0.8,5.2-2.3,6.7c-1.5,1.5-3.7,2.3-6.6,2.3c-3,0-5.2-0.8-6.7-2.3c-1.4-1.5-2.2-3.8-2.2-6.8v-1.7
				c0-3,0.7-5.2,2.2-6.7c1.4-1.5,3.7-2.3,6.7-2.3c3,0,5.2,0.8,6.7,2.3S314.4,494.7,314.4,497.6z M309.1,499.1v-1.2
				c0-1.1-0.1-2-0.4-2.7c-0.3-0.6-0.6-1.1-1.1-1.4c-0.5-0.3-1.2-0.4-2-0.4c-1.2,0-2.1,0.3-2.6,1c-0.5,0.6-0.8,1.8-0.8,3.5v1.2
				c0,1.7,0.3,2.8,0.8,3.5s1.4,0.9,2.6,0.9c0.8,0,1.5-0.1,2-0.4c0.5-0.2,0.9-0.7,1.1-1.3C308.9,501.1,309.1,500.2,309.1,499.1z"/>
			<path d="M320.4,508.2h-2.7c-0.4,0-0.7-0.1-1-0.4c-0.2-0.2-0.4-0.6-0.4-1v-19.3c0-0.4,0.1-0.7,0.4-1c0.2-0.2,0.6-0.4,1-0.4h2.7
				c0.4,0,0.7,0.1,1,0.4c0.2,0.2,0.4,0.6,0.4,1v19.3c0,0.4-0.1,0.7-0.4,1C321.2,508.1,320.8,508.2,320.4,508.2z"/>
			<path d="M341.4,497.6v1.7c0,2.9-0.8,5.2-2.3,6.7c-1.5,1.5-3.7,2.3-6.6,2.3c-3,0-5.2-0.8-6.7-2.3c-1.4-1.5-2.2-3.8-2.2-6.8v-1.7
				c0-3,0.7-5.2,2.2-6.7c1.4-1.5,3.7-2.3,6.7-2.3c3,0,5.2,0.8,6.7,2.3C340.7,492.4,341.4,494.7,341.4,497.6z M336,499.1v-1.2
				c0-1.1-0.1-2-0.4-2.7c-0.3-0.6-0.6-1.1-1.1-1.4c-0.5-0.3-1.2-0.4-2-0.4c-1.2,0-2.1,0.3-2.6,1c-0.5,0.6-0.8,1.8-0.8,3.5v1.2
				c0,1.7,0.3,2.8,0.8,3.5s1.4,0.9,2.6,0.9c0.8,0,1.5-0.1,2-0.4c0.5-0.2,0.9-0.7,1.1-1.3C335.9,501.1,336,500.2,336,499.1z"/>
			<path d="M355.7,494.5v-4.4c0-0.4,0.1-0.8,0.4-1c0.2-0.2,0.6-0.4,1-0.4h2.7c0.4,0,0.7,0.1,1,0.4c0.2,0.2,0.4,0.6,0.4,1v14.6
				c0,1.7-0.7,3-2.1,3.8c-1.4,0.8-3.6,1.2-6.7,1.2c-4.7,0-7.4-0.9-8.2-2.7c-0.1-0.4-0.2-0.7-0.2-1.1c0-0.7,0.4-1.1,1.2-1.1h2.5
				c0.4,0,0.7,0.1,0.8,0.2s0.4,0.3,0.6,0.7c0.1,0.2,0.2,0.4,0.4,0.6c0.2,0.3,0.6,0.4,1,0.5c0.5,0.1,1.1,0.1,1.9,0.1
				c1.2,0,2.1-0.2,2.6-0.5c0.5-0.3,0.8-1,0.8-1.9v-5.9c0,2-0.4,3.4-1.3,4.4s-2.3,1.5-4.3,1.5c-2.4,0-4.1-0.6-5.1-1.8
				c-1-1.2-1.6-3.1-1.6-5.8v-0.7c0-2.6,0.5-4.5,1.6-5.7c1-1.2,2.8-1.9,5.1-1.9c2,0,3.4,0.5,4.3,1.5
				C355.2,491.1,355.7,492.6,355.7,494.5z M348.8,496.4v0.3c0,1.5,0.3,2.5,0.8,3.1c0.5,0.6,1.4,0.9,2.7,0.9c2.3,0,3.4-0.9,3.4-2.8
				v-2.7c0-1.8-1.1-2.7-3.4-2.7c-1.2,0-2.1,0.3-2.6,0.9C349,494,348.8,495,348.8,496.4z"/>
			<path d="M368.6,496.3c0-2.7,0.4-4.6,1.3-5.8c0.9-1.2,2.3-1.8,4.3-1.8c2.1,0,3.7,0.6,4.6,1.7s1.5,3,1.5,5.7v10.8
				c0,0.4-0.1,0.7-0.4,1c-0.2,0.2-0.6,0.4-1,0.4h-2.7c-0.4,0-0.7-0.1-1-0.4c-0.2-0.2-0.4-0.6-0.4-1v-9.8c0-1.1-0.2-1.9-0.6-2.5
				c-0.4-0.5-1.2-0.8-2.2-0.8c-0.5,0-1,0-1.3,0.2c-0.4,0.1-0.7,0.3-1.1,0.5c-0.3,0.3-0.6,0.6-0.8,1.2c-0.2,0.5-0.3,1.2-0.3,1.9v9.2
				c0,0.4-0.1,0.7-0.4,1c-0.2,0.2-0.6,0.4-1,0.4h-2.7c-0.4,0-0.7-0.1-1-0.4c-0.2-0.2-0.4-0.6-0.4-1v-16.7c0-0.4,0.1-0.7,0.4-1
				s0.6-0.4,1-0.4h2.7c0.4,0,0.7,0.1,1,0.4s0.4,0.6,0.4,1V496.3z"/>
			<path d="M399.5,503.7c-0.4,1.5-1.3,2.6-2.8,3.4c-1.5,0.8-3.4,1.2-5.8,1.2c-3,0-5.2-0.8-6.7-2.3c-1.4-1.5-2.2-3.8-2.2-6.8v-1.7
				c0-3,0.7-5.2,2.2-6.7c1.5-1.5,3.7-2.2,6.8-2.2c2.9,0,5.1,0.6,6.5,1.9c1.5,1.3,2.2,3.1,2.2,5.5v1.9c0,0.4-0.1,0.7-0.3,0.9
				c-0.2,0.2-0.5,0.3-0.9,0.3h-11.1c0,1.7,0.3,2.9,0.8,3.6c0.5,0.7,1.4,1,2.6,1c0.9,0,1.6-0.1,2.1-0.3c0.5-0.2,0.9-0.5,1.1-1
				c0-0.1,0.1-0.3,0.2-0.5c0.1-0.5,0.3-0.8,0.5-1c0.2-0.2,0.6-0.3,1-0.3h2.6c0.9,0,1.3,0.5,1.3,1.4
				C399.7,502.7,399.7,503.3,399.5,503.7z M391.1,493.1c-1.1,0-1.9,0.2-2.5,0.7c-0.6,0.5-0.9,1.3-1,2.5h6.8v-0.1
				c0-1.2-0.3-2-0.8-2.5S392.2,493.1,391.1,493.1z"/>
		</g>
	</g>
	<g>
		<g class="st0">
			<path d="M442.3,508.2h-2.7c-0.4,0-0.7-0.1-1-0.4c-0.2-0.2-0.4-0.6-0.4-1v-19.3c0-0.4,0.1-0.7,0.4-1c0.2-0.2,0.6-0.4,1-0.4h2.7
				c0.4,0,0.7,0.1,1,0.4c0.2,0.2,0.4,0.6,0.4,1v19.3c0,0.4-0.1,0.7-0.4,1C443.1,508.1,442.8,508.2,442.3,508.2z"/>
			<path d="M451.2,490.2v6.1c0-2.6,0.4-4.6,1.3-5.8s2.2-1.8,4.2-1.8c0.4,0,0.7,0.1,0.8,0.3s0.3,0.6,0.3,1v3.2c0,1.1-0.6,1.6-1.7,1.5
				c-0.6-0.1-1.1-0.1-1.7,0c-0.6,0.1-1.1,0.2-1.6,0.4c-0.5,0.2-0.8,0.5-1.1,0.9c-0.3,0.4-0.4,0.9-0.4,1.6v9.2c0,0.4-0.1,0.8-0.4,1
				c-0.2,0.2-0.6,0.4-1,0.4h-2.7c-0.4,0-0.8-0.1-1-0.4c-0.2-0.2-0.4-0.6-0.4-1v-16.7c0-0.4,0.1-0.8,0.4-1c0.2-0.2,0.6-0.4,1-0.4h2.7
				c0.4,0,0.7,0.1,1,0.4S451.2,489.7,451.2,490.2z"/>
			<path d="M463.6,508.2h-2.7c-0.4,0-0.7-0.1-1-0.4c-0.2-0.2-0.4-0.6-0.4-1v-19.3c0-0.4,0.1-0.7,0.4-1c0.2-0.2,0.6-0.4,1-0.4h2.7
				c0.4,0,0.7,0.1,1,0.4c0.2,0.2,0.4,0.6,0.4,1v19.3c0,0.4-0.1,0.7-0.4,1C464.3,508.1,464,508.2,463.6,508.2z"/>
			<path d="M478.4,503.9c0,1.4-0.5,2.5-1.4,3.3c-0.9,0.8-2.4,1.2-4.4,1.2c-1.9,0-3.4-0.4-4.4-1.3c-1-0.9-1.5-2.1-1.5-3.8V503
				c0-0.8,0.1-1.5,0.3-2.1c0.2-0.6,0.5-1.1,0.8-1.5c0.3-0.4,0.8-0.8,1.3-1.1c0.5-0.3,1.1-0.5,1.6-0.7s1.2-0.3,1.9-0.4
				c0.7-0.1,1.4-0.2,1.9-0.3s1.2-0.1,2-0.2c0.7-0.1,1.3-0.2,1.8-0.3v-0.5c0-1-0.2-1.7-0.7-2.1c-0.4-0.4-1.2-0.5-2.3-0.5
				c-0.7,0-1.2,0.1-1.6,0.2c-0.4,0.2-0.6,0.4-0.7,0.7c-0.1,0.1-0.2,0.3-0.3,0.5c-0.1,0.6-0.5,0.9-1.3,0.9h-2.8
				c-0.9,0-1.3-0.4-1.3-1.3c0-0.3,0-0.6,0.1-0.7c0.2-1.5,0.9-2.7,2.3-3.6c1.3-0.8,3.2-1.3,5.5-1.3c3,0,5.2,0.6,6.5,1.7s2,2.9,2,5.4
				v11.1c0,0.4-0.1,0.8-0.4,1c-0.2,0.2-0.6,0.4-1,0.4h-2.7c-0.4,0-0.8-0.1-1-0.4c-0.2-0.2-0.4-0.6-0.4-1V503.9z M474.6,505
				c0.6,0,1.1,0,1.5-0.1c0.4-0.1,0.8-0.1,1.2-0.3c0.4-0.1,0.6-0.3,0.8-0.6c0.2-0.3,0.3-0.6,0.3-1v-3.5c-0.1,0-0.4,0.1-0.7,0.1
				c-0.8,0.1-1.4,0.2-1.8,0.3c-0.4,0.1-0.8,0.2-1.4,0.3c-0.5,0.1-0.9,0.2-1.1,0.4c-0.2,0.1-0.5,0.3-0.7,0.5
				c-0.3,0.2-0.4,0.4-0.5,0.7c-0.1,0.2-0.1,0.5-0.1,0.9v0.2C472.1,504.3,472.9,505,474.6,505z"/>
			<path d="M491.2,496.3c0-2.7,0.4-4.6,1.3-5.8c0.9-1.2,2.3-1.8,4.3-1.8c2.1,0,3.7,0.6,4.6,1.7s1.4,3,1.4,5.7v10.8
				c0,0.4-0.1,0.7-0.4,1c-0.2,0.2-0.6,0.4-1,0.4h-2.7c-0.4,0-0.7-0.1-1-0.4c-0.2-0.2-0.4-0.6-0.4-1v-9.8c0-1.1-0.2-1.9-0.6-2.5
				c-0.4-0.5-1.2-0.8-2.2-0.8c-0.5,0-1,0-1.3,0.2c-0.4,0.1-0.7,0.3-1.1,0.5c-0.3,0.3-0.6,0.6-0.8,1.2c-0.2,0.5-0.3,1.2-0.3,1.9v9.2
				c0,0.4-0.1,0.7-0.4,1c-0.2,0.2-0.6,0.4-1,0.4h-2.7c-0.4,0-0.7-0.1-1-0.4c-0.2-0.2-0.4-0.6-0.4-1v-16.7c0-0.4,0.1-0.7,0.4-1
				c0.2-0.2,0.6-0.4,1-0.4h2.7c0.4,0,0.7,0.1,1,0.4s0.4,0.6,0.4,1V496.3z"/>
			<path d="M517.2,495.1v-7.5c0-0.4,0.1-0.7,0.4-1c0.2-0.2,0.6-0.4,1-0.4h2.7c0.4,0,0.7,0.1,1,0.4c0.2,0.2,0.4,0.6,0.4,1v19.3
				c0,0.4-0.1,0.8-0.4,1c-0.2,0.2-0.6,0.3-1,0.3h-2.7c-0.4,0-0.8-0.1-1-0.3c-0.2-0.2-0.4-0.6-0.4-1v-5c0,2.2-0.4,3.9-1.3,4.9
				c-0.9,1.1-2.3,1.6-4.3,1.6c-2.4,0-4.1-0.7-5.1-2c-1-1.4-1.5-3.5-1.5-6.6v-2.6c0-2.9,0.5-5.1,1.6-6.5c1-1.4,2.8-2.1,5.1-2.1
				c2,0,3.4,0.5,4.3,1.6C516.8,491.4,517.2,493,517.2,495.1z M513.8,493c-0.8,0-1.5,0.1-2,0.4c-0.5,0.3-0.9,0.8-1.1,1.6
				c-0.3,0.8-0.4,1.8-0.4,3.1v0.6c0,1.4,0.1,2.4,0.4,3.2s0.6,1.3,1.1,1.6c0.5,0.3,1.1,0.4,2,0.4c0.5,0,1,0,1.3-0.1
				c0.4-0.1,0.7-0.2,1.1-0.5s0.6-0.6,0.8-1c0.2-0.4,0.3-1,0.3-1.6v-4.5c0-0.5-0.1-1-0.2-1.4c-0.1-0.4-0.3-0.7-0.5-0.9
				c-0.2-0.2-0.5-0.4-0.8-0.6c-0.3-0.1-0.6-0.2-0.9-0.3C514.5,493.1,514.2,493,513.8,493z"/>
			<path d="M542,503.7c-0.4,1.5-1.3,2.6-2.8,3.4c-1.5,0.8-3.4,1.2-5.8,1.2c-3,0-5.2-0.8-6.7-2.3c-1.4-1.5-2.2-3.8-2.2-6.8v-1.7
				c0-3,0.7-5.2,2.2-6.7c1.5-1.5,3.7-2.2,6.8-2.2c2.9,0,5.1,0.6,6.5,1.9c1.5,1.3,2.2,3.1,2.2,5.5v1.9c0,0.4-0.1,0.7-0.3,0.9
				c-0.2,0.2-0.5,0.3-0.9,0.3h-11.1c0,1.7,0.3,2.9,0.8,3.6c0.5,0.7,1.4,1,2.6,1c0.9,0,1.6-0.1,2.1-0.3c0.5-0.2,0.9-0.5,1.1-1
				c0-0.1,0.1-0.3,0.2-0.5c0.1-0.5,0.3-0.8,0.5-1c0.2-0.2,0.6-0.3,1-0.3h2.6c0.9,0,1.3,0.5,1.3,1.4
				C542.2,502.7,542.1,503.3,542,503.7z M533.5,493.1c-1.1,0-1.9,0.2-2.5,0.7c-0.6,0.5-0.9,1.3-1,2.5h6.8v-0.1c0-1.2-0.3-2-0.8-2.5
				S534.7,493.1,533.5,493.1z"/>
			<path d="M563.6,495.1v-7.5c0-0.4,0.1-0.7,0.4-1c0.2-0.2,0.6-0.4,1-0.4h2.7c0.4,0,0.7,0.1,1,0.4c0.2,0.2,0.4,0.6,0.4,1v19.3
				c0,0.4-0.1,0.8-0.4,1c-0.2,0.2-0.6,0.3-1,0.3h-2.7c-0.4,0-0.8-0.1-1-0.3c-0.2-0.2-0.4-0.6-0.4-1v-5c0,2.2-0.4,3.9-1.3,4.9
				c-0.9,1.1-2.3,1.6-4.3,1.6c-2.4,0-4.1-0.7-5.1-2c-1-1.4-1.5-3.5-1.5-6.6v-2.6c0-2.9,0.5-5.1,1.6-6.5c1-1.4,2.8-2.1,5.1-2.1
				c2,0,3.4,0.5,4.3,1.6C563.2,491.4,563.6,493,563.6,495.1z M560.2,493c-0.8,0-1.5,0.1-2,0.4c-0.5,0.3-0.9,0.8-1.1,1.6
				c-0.3,0.8-0.4,1.8-0.4,3.1v0.6c0,1.4,0.1,2.4,0.4,3.2c0.3,0.8,0.6,1.3,1.1,1.6c0.5,0.3,1.1,0.4,2,0.4c0.5,0,1,0,1.3-0.1
				s0.7-0.2,1.1-0.5s0.6-0.6,0.8-1c0.2-0.4,0.3-1,0.3-1.6v-4.5c0-0.5-0.1-1-0.2-1.4c-0.1-0.4-0.3-0.7-0.5-0.9
				c-0.2-0.2-0.5-0.4-0.8-0.6c-0.3-0.1-0.6-0.2-0.9-0.3C560.9,493.1,560.6,493,560.2,493z"/>
			<path d="M582.7,500.7c0,2.7-0.4,4.6-1.3,5.8c-0.9,1.2-2.3,1.8-4.3,1.8c-2.1,0-3.7-0.6-4.6-1.7c-1-1.2-1.5-3-1.5-5.7v-10.8
				c0-0.4,0.1-0.7,0.4-1c0.2-0.2,0.6-0.4,1-0.4h2.7c0.4,0,0.7,0.1,1,0.4s0.4,0.6,0.4,1v9.7c0,1.1,0.2,1.9,0.6,2.5
				c0.4,0.5,1.2,0.8,2.2,0.8c0.5,0,1-0.1,1.3-0.2c0.4-0.1,0.7-0.3,1.1-0.5s0.6-0.7,0.8-1.2c0.2-0.5,0.3-1.2,0.3-1.9v-9.2
				c0-0.4,0.1-0.8,0.4-1c0.2-0.2,0.6-0.4,1-0.4h2.7c0.4,0,0.7,0.1,1,0.4s0.4,0.6,0.4,1v16.7c0,0.4-0.1,0.7-0.4,1
				c-0.2,0.2-0.6,0.4-1,0.4h-2.7c-0.4,0-0.7-0.1-1-0.4c-0.2-0.2-0.4-0.6-0.4-1V500.7z"/>
			<path d="M614.2,508.2h-2.5c-0.6,0-1-0.2-1.3-0.7l-8.1-11.9v11.3c0,0.4-0.1,0.7-0.4,1c-0.2,0.2-0.6,0.4-1,0.4h-2.3
				c-0.4,0-0.7-0.1-1-0.4c-0.2-0.2-0.4-0.6-0.4-1v-19.3c0-0.4,0.1-0.7,0.4-1c0.2-0.2,0.6-0.4,1-0.4h2.6c0.5,0,1,0.2,1.3,0.7
				l8.1,11.5v-10.8c0-0.4,0.1-0.8,0.3-1c0.2-0.2,0.6-0.4,1-0.4h2.3c0.4,0,0.8,0.1,1,0.4c0.2,0.2,0.4,0.6,0.4,1v19.3
				c0,0.4-0.1,0.7-0.4,1C615,508.1,614.7,508.2,614.2,508.2z"/>
			<path d="M635.2,497.6v1.7c0,2.9-0.8,5.2-2.3,6.7c-1.5,1.5-3.7,2.3-6.6,2.3c-3,0-5.2-0.8-6.7-2.3c-1.4-1.5-2.2-3.8-2.2-6.8v-1.7
				c0-3,0.7-5.2,2.2-6.7c1.4-1.5,3.7-2.3,6.7-2.3c3,0,5.2,0.8,6.7,2.3C634.5,492.4,635.2,494.7,635.2,497.6z M629.9,499.1v-1.2
				c0-1.1-0.1-2-0.4-2.7c-0.3-0.6-0.6-1.1-1.1-1.4c-0.5-0.3-1.2-0.4-2-0.4c-1.2,0-2.1,0.3-2.6,1c-0.5,0.6-0.8,1.8-0.8,3.5v1.2
				c0,1.7,0.3,2.8,0.8,3.5s1.4,0.9,2.6,0.9c0.8,0,1.5-0.1,2-0.4c0.5-0.2,0.9-0.7,1.1-1.3C629.7,501.1,629.9,500.2,629.9,499.1z"/>
			<path d="M642.6,490.2v6.1c0-2.6,0.4-4.6,1.3-5.8s2.2-1.8,4.2-1.8c0.4,0,0.7,0.1,0.8,0.3c0.2,0.2,0.3,0.6,0.3,1v3.2
				c0,1.1-0.6,1.6-1.7,1.5c-0.6-0.1-1.1-0.1-1.7,0c-0.6,0.1-1.1,0.2-1.6,0.4c-0.5,0.2-0.8,0.5-1.1,0.9s-0.4,0.9-0.4,1.6v9.2
				c0,0.4-0.1,0.8-0.4,1c-0.2,0.2-0.6,0.4-1,0.4h-2.7c-0.4,0-0.8-0.1-1-0.4c-0.2-0.2-0.4-0.6-0.4-1v-16.7c0-0.4,0.1-0.8,0.4-1
				c0.2-0.2,0.6-0.4,1-0.4h2.7c0.4,0,0.7,0.1,1,0.4S642.6,489.7,642.6,490.2z"/>
			<path d="M662.6,495.1v-7.5c0-0.4,0.1-0.7,0.4-1c0.2-0.2,0.6-0.4,1-0.4h2.7c0.4,0,0.7,0.1,1,0.4c0.2,0.2,0.4,0.6,0.4,1v19.3
				c0,0.4-0.1,0.8-0.4,1c-0.2,0.2-0.6,0.3-1,0.3H664c-0.4,0-0.8-0.1-1-0.3c-0.2-0.2-0.4-0.6-0.4-1v-5c0,2.2-0.4,3.9-1.3,4.9
				c-0.9,1.1-2.3,1.6-4.3,1.6c-2.4,0-4.1-0.7-5.1-2c-1-1.4-1.5-3.5-1.5-6.6v-2.6c0-2.9,0.5-5.1,1.6-6.5c1-1.4,2.8-2.1,5.1-2.1
				c2,0,3.4,0.5,4.3,1.6C662.2,491.4,662.6,493,662.6,495.1z M659.2,493c-0.8,0-1.5,0.1-2,0.4c-0.5,0.3-0.9,0.8-1.1,1.6
				c-0.3,0.8-0.4,1.8-0.4,3.1v0.6c0,1.4,0.1,2.4,0.4,3.2s0.6,1.3,1.1,1.6c0.5,0.3,1.1,0.4,2,0.4c0.5,0,1,0,1.3-0.1
				c0.4-0.1,0.7-0.2,1.1-0.5s0.6-0.6,0.8-1c0.2-0.4,0.3-1,0.3-1.6v-4.5c0-0.5-0.1-1-0.2-1.4c-0.1-0.4-0.3-0.7-0.5-0.9
				c-0.2-0.2-0.5-0.4-0.8-0.6c-0.3-0.1-0.6-0.2-0.9-0.3C659.9,493.1,659.6,493,659.2,493z"/>
		</g>
	</g>
	<g class="st0">
		<path d="M269,306.1c-3,0-5.6-0.3-7.7-0.9c-2.1-0.6-3.9-1.6-5.3-2.9s-2.4-3.1-3.1-5.2c-0.7-2.1-1-4.7-1-7.8v-3.9
			c0-2.6,0.3-4.8,1-6.8c0.7-2,1.7-3.7,3-5.2c1.3-1.5,3.1-2.6,5.3-3.4c2.2-0.8,4.8-1.2,7.8-1.2c5,0,9,1,11.8,3.1c2.8,2.1,4.5,5,5,8.9
			c0.1,0.7,0.2,1.2,0.2,1.6c0.1,1.3-0.5,1.9-1.8,1.9h-3.3c-0.7,0-1.2-0.1-1.5-0.4c-0.3-0.3-0.5-0.8-0.6-1.5
			c-0.1-0.7-0.2-1.1-0.3-1.3c-0.5-1.9-1.6-3.3-3.1-4.2c-1.6-0.9-3.7-1.4-6.4-1.4c-2.3,0-4.1,0.3-5.5,0.9c-1.4,0.6-2.4,1.7-3.2,3.2
			c-0.7,1.5-1.1,3.6-1.1,6.2v3c0,3.7,0.8,6.4,2.3,8c1.5,1.6,4,2.4,7.4,2.4c2.9,0,5.1-0.5,6.6-1.4c1.5-0.9,2.5-2.5,3-4.7
			c0.1-0.4,0.2-0.8,0.2-1.3c0.1-0.7,0.3-1.2,0.6-1.5c0.3-0.3,0.8-0.4,1.5-0.4h3.3c1.3,0,1.9,0.6,1.9,1.9c0,0,0,0.5-0.1,1.5
			c-0.5,4.3-2,7.5-4.8,9.5C278.3,305.1,274.3,306.1,269,306.1z"/>
	</g>
	<g id="Ukraine_1_">
		<path d="M192.7,425.6c-2-3.8-3.7-6.9-5.4-10.1c-0.3,0-0.6,0-0.9,0.1c0,1.4,0.1,2.8,0,4.2c-0.6,11.7-1.1,23.5-1.8,35.2
			c-0.3,4.3-1.2,8.6-1.8,13c-0.2,1.5-4.7,6.1-6.4,6.2c-4.5,0.4-9.1,0.9-13.6,0.7c-6.7-0.2-13.4-0.8-20-1.5c-6.1-0.6-12.2-1.2-18.2-2
			c-5.3-0.7-10.6-1.5-15.9-2.6c-6.1-1.2-8.5-5.3-7.6-11.4c1.3-9.4,2.2-18.9,3.5-28.4c0.9-6.5,2.1-12.9,3.2-19.4
			c0.2-0.9,0.1-1.9,0.2-3.1c-7.5,2.3-14.6,4.6-21.8,6.8c-4.7,1.4-6.5,0.7-8.8-3.6c-4.9-8.9-9.5-17.9-13.2-27.3
			c-1.9-4.8-1.5-5.9,2.3-9.2c11.8-10.2,24.7-18.7,37.8-27.1c4.1-2.6,8-5.6,11.7-8.2c11.4,7,22.4,12.8,34.8,14.3
			c12.5,1.6,24.9,0.7,37.1-3.1c2.7-0.8,5.1-4.5,8.1-2.1c2.2,1.8,3.5,4.7,5.1,7.2c8.7,14.6,18.6,28.3,29.7,41.1c3.1,3.6,3.1,9.4,0,13
			c-0.6,0.8-1.3,1.5-2.2,2c-9.6,5.6-18.8,12-29.8,14.9C196.8,425.7,194.8,425.5,192.7,425.6z M110.9,389c2.5,3.9,5.3,7.1,3.3,12.2
			c-1.2,3-1.3,6.6-1.7,10c-1.8,15-3.5,30-5.2,45c-0.4,3.3,0.2,4.3,3.7,4.6c3.2,0.3,6.4-0.1,9.6,0.2c14.2,1.4,28.4,3.1,42.6,4.5
			c2.5,0.3,5,0,7.9,0c0.4-7,0.7-13.2,1-19.3c0.3-4.4,0.4-8.8,0.9-13.1c1.6-11.8,4.4-23.5,3.3-35.6c-0.2-2.3,0-4.4,3.3-5.5
			c2.1,4.3,4,8.8,6.4,13c2.6,4.4,5.7,8.5,8.8,13c10.4-6.3,21.4-11.1,30.9-18.5c-10.7-15-21.2-29.6-31.9-44.5
			c-1.2,0.6-2.8,1.5-4.3,2.3c-2.8,1.5-5.4,3.5-8.4,4.5c-15.8,5.6-31.6,3.5-47.4-0.6c-8.2-2.2-15.3-6.7-21.6-12.4
			c-4.5,2.8-9.1,5.2-13.2,8.2c-9,6.5-17.9,13.3-26.7,20c-3.7,2.8-4,4.5-1.9,8.7c2.8,5.5,5.7,10.9,8.5,16.4c1.8,3.6,2.7,3.9,6.5,2.3
			c4.6-1.9,9.5-3.5,13.6-6.1C103.1,395.6,109.5,395.8,110.9,389z"/>
		<path class="st1" d="M110.9,389c2.5,3.9,5.3,7.1,3.3,12.2c-1.2,3-1.3,6.6-1.7,10c-1.8,15-3.5,30-5.2,45c-0.4,3.3,0.2,4.3,3.7,4.6
			c3.2,0.3,6.4-0.1,9.6,0.2c14.2,1.4,28.4,3.1,42.6,4.5c2.5,0.3,5,0,7.9,0c0.4-7,0.7-13.2,1-19.3c0.3-4.4,0.4-8.8,0.9-13.1
			c1.6-11.8,4.4-23.5,3.3-35.6c-0.2-2.3,0-4.4,3.3-5.5c2.1,4.3,4,8.8,6.4,13c2.6,4.4,5.7,8.5,8.8,13c10.4-6.3,21.4-11.1,30.9-18.5
			c-10.7-15-21.2-29.6-31.9-44.5c-1.2,0.6-2.8,1.5-4.3,2.3c-2.8,1.5-5.4,3.5-8.4,4.5c-15.8,5.6-31.6,3.5-47.4-0.6
			c-8.2-2.2-15.3-6.7-21.6-12.4c-4.5,2.8-9.1,5.2-13.2,8.2c-9,6.5-17.9,13.3-26.7,20c-3.7,2.8-4,4.5-1.9,8.7
			c2.8,5.5,5.7,10.9,8.5,16.4c1.8,3.6,2.7,3.9,6.5,2.3c4.6-1.9,9.5-3.5,13.6-6.1C103.1,395.6,109.5,395.8,110.9,389z"/>
	</g>
	<g id="Irlande_du_Nord_1_">
		<path class="st2" d="M583.8,451.8c-0.1,3-0.7,5.9-1.2,8.8c-0.9,4.7-3.2,6.6-8.1,6.8c-8.8,0.3-17.8,1.7-26.4,0.5
			c-11.3-1.6-22.8-3.8-33.6-8.1c-2.1-0.9-2.8-2.4-2.9-4.7c-0.3-14.8,0.8-52.4,2.9-53.3c1.1-0.5,1.9-1.2,2.3-1.9l0,0
			c7.8-11.5,11.4-35.8,10.7-50.6c8.7,9.9,20.9,11.9,33.8,13.8c10.6,1.6,20.1-0.6,29.9-3.1c0.2,0,0.3-0.1,0.5-0.2
			c-5.2,10.1-12.4,26.7-11.8,37.6c-0.2,0.3,0,1.3,0.3,2.6l0,0c0.4,2.3,1,3.9,1.6,5.1c1.2,3.7,2.5,7.7,2.5,9.7
			C584,427.1,584,439.4,583.8,451.8z"/>
		<path d="M638.7,398.5c-3-5.2-6.2-10.2-9.5-15.2c-7.7-11.2-17.9-20.2-26.9-30.3c-1.7-1.9-3.5-3.7-5.4-5.7c-1.8,0.9-3.5,1.5-4.9,2.5
			c-3.7,2.6-7.5,4.4-12.2,4.4c-4.6,0-9.2,0.6-13.8,0.3c-12-0.6-23.2-3.4-30.4-14.6c-2.3-3.6-7.1-4.4-10.3-1.6
			c-6.4,5.6-14.3,8.5-21.5,12.8c-11.7,6.9-23.2,14-34.8,21.1c-0.3,0.2-0.7,0.4-1,0.7c-4.7,3.8-5.3,5.7-3.1,11.3
			c1.2,2.9,2.9,5.7,4.5,8.4c2.9,5,11.1,19.7,12.9,20.2c1.9,0.5,16-4.6,24.8-7.2c-0.5,5.2,0.2,14.5,0,18.9
			c-0.3,6.2-0.6,12.4-0.6,18.6c0,5.2-0.1,10.5,0.7,15.5c0.8,4.9,3.2,8.7,8.5,11.2c9.8,4.5,43,6.2,49.2,6.6
			c8.3,0.5,23.1-0.9,23.4-4.6c0.3-3.7,1.9-37.1,1.7-42.7c-0.1-4,0.1-10.1-1.3-16.4c2.6,3.2,5.8,8.1,7.3,10.2
			c2.6,3.3,3.5,3.6,7.5,1.9c8.2-3.5,16.4-7,24.6-10.6c2.5-1.1,5-2.5,7.3-4C638.9,407.8,640.6,401.8,638.7,398.5z M583.8,451.8
			c-0.1,3-0.7,5.9-1.2,8.8c-0.9,4.7-3.2,6.6-8.1,6.8c-8.8,0.3-17.8,1.7-26.4,0.5c-11.3-1.6-22.8-3.8-33.6-8.1
			c-2.1-0.9-2.8-2.4-2.9-4.7c-0.3-14.8,0.8-52.4,2.9-53.3c1.1-0.5,1.9-1.2,2.3-1.9c7.8-11.5,11.4-35.8,10.7-50.6
			c8.7,9.9,20.9,11.9,33.8,13.8c10.6,1.6,20.1-0.6,29.9-3.1c0.2,0,0.3-0.1,0.5-0.2c-5.2,10.1-12.4,26.7-11.8,37.6
			c-0.2,0.3,0,1.3,0.3,2.6c0.4,2.3,1,3.9,1.6,5.1c1.2,3.7,2.5,7.7,2.5,9.7C584,427.1,584,439.4,583.8,451.8z"/>
	</g>
	<g id="Allemagne_1_">
		<path d="M-18.7,415.1c1.2,12,2.9,24,3.4,36c0.3,6.9,2.5,13.8,0.3,20.7c-1.7,5.3-4,7.1-9.1,7.7c-16.5,1.8-33,0.8-49.5,0.6
			c-10.5-0.1-21-1.8-31.4-3.5c-8.3-1.3-10.1-4.6-9-12.8c1.8-13.2,3.4-26.4,5.4-39.6c1-6.7,2.8-13.2,4.2-19.8c0.2-0.7,0-1.5,0-3
			c-2,1.1-3.6,1.7-5,2.7c-4.1,3.2-8,6.5-12,9.7c-1.7,1.4-4.9,1.3-6.6-0.4c-0.6-0.5-1-1.3-1.4-2c-4.3-9.4-10.9-17.5-13.8-27.6
			c-0.7-2.5-0.2-4,1.2-5.9c7.5-10.7,17-19.7,26.4-28.6c4.3-4.1,9-7.8,13.6-11.7c1.5-1.3,3.1-2.5,4.8-3.5c4.1-2.5,7.4-2,10.5,1.6
			c7.5,8.7,16.5,14.9,28.2,15.9c9.8,0.8,19.5-0.1,29-3.1c3-1,6.1-1.9,9.1-3c4.9-1.7,8.7-0.2,12.1,3.5c12.7,14,25.5,28,38.3,41.9
			c3,3.2,6,6.3,5.4,11.4c-0.4,3.1-1.3,5.1-4.2,6.5c-6.3,2.9-12.6,6-18.7,9.3c-4,2.1-7.8,4.7-11.7,7c-3.8,2.3-8.2,1.2-11-2.5
			c-2.2-2.9-4.7-5.6-7.1-8.4C-17.7,414.4-18.2,414.7-18.7,415.1z M-13.1,352c-2,0.9-3.8,1.6-5.5,2.5c-9.6,4.7-19.8,6.9-30.5,6.8
			c-3,0-5.9-0.6-8.9-0.9c-13.2-1.3-25.4-5.1-34.7-15.2c-1.2-1.3-2.1-2.8-3.7-4.9c-9.6,9.1-18.6,17.2-27.3,25.7
			c-4.5,4.5-8.4,9.5-12.6,14.3c-1.4,1.6-2.4,3.2-1.3,5.4c3.6,6.8,7.2,13.6,10.9,20.7c11.9-5.4,19.2-15.5,29.2-22.6
			c2.2,1.3,2.3,3.4,1.9,5.6c-0.3,1.8-1.1,3.4-1.5,5.2c-3.6,19.1-7.3,38.3-10.7,57.5c-0.8,4.6-0.7,9.4-1.1,14.1
			c6,2.3,11.8,2,17.6,2.3c12.1,0.6,24.2,1.7,36.4,2.2c8.6,0.4,17.2,0.4,25.7,0.2c4.2-0.1,5.5-2.1,5.2-6.1c-1.2-14.7-2.3-29.4-3.6-44
			c-0.5-5.9-1.5-11.8-1.7-17.8c-0.2-3.8-1.6-7.8,0.9-12.3c7.3,8.4,14.3,16.4,21.4,24.6c5.6-3.2,11.3-6.5,17-9.7
			c5.6-3.1,11.3-6.2,17.1-9.3C13.5,381.3,0.3,366.7-13.1,352z"/>
		<path class="st3" d="M-13.1,352c-2,0.9-3.8,1.6-5.5,2.5c-9.6,4.7-19.8,6.9-30.5,6.8c-3,0-5.9-0.6-8.9-0.9
			c-13.2-1.3-25.4-5.1-34.7-15.2c-1.2-1.3-2.1-2.8-3.7-4.9c-9.6,9.1-18.6,17.2-27.3,25.7c-4.5,4.5-8.4,9.5-12.6,14.3
			c-1.4,1.6-2.4,3.2-1.3,5.4c3.6,6.8,7.2,13.6,10.9,20.7c11.9-5.4,19.2-15.5,29.2-22.6c2.2,1.3,2.3,3.4,1.9,5.6
			c-0.3,1.8-1.1,3.4-1.5,5.2c-3.6,19.1-7.3,38.3-10.7,57.5c-0.8,4.6-0.7,9.4-1.1,14.1c6,2.3,11.8,2,17.6,2.3
			c12.1,0.6,24.2,1.7,36.4,2.2c8.6,0.4,17.2,0.4,25.7,0.2c4.2-0.1,5.5-2.1,5.2-6.1c-1.2-14.7-2.3-29.4-3.6-44
			c-0.5-5.9-1.5-11.8-1.7-17.8c-0.2-3.8-1.6-7.8,0.9-12.3c7.3,8.4,14.3,16.4,21.4,24.6c5.6-3.2,11.3-6.5,17-9.7
			c5.6-3.1,11.3-6.2,17.1-9.3C13.5,381.3,0.3,366.7-13.1,352z"/>
	</g>
	<g id="Pologne_1_">
		<path d="M436.8,397c-0.6-0.8-1.4-1.4-2.1-2.2c-3.9-4.5-8-8.9-11.7-13.6c-6.7-8.4-12.8-17.3-19.7-25.5c-4.1-4.9-6.4-12-13.2-13.5
			c-2.2,1.6-3.9,3.3-6,4.1c-13.4,5-27.1,8.1-41.5,7.3c-7.3-0.4-14.1-2.1-20.2-6.1c-3.8-2.5-7.7-4.7-12.1-7.4
			c-3.6,2.3-7.6,4.9-11.7,7.4c-12,7.2-23.8,14.6-34.4,23.7c-4.1,3.5-4.8,6.4-2.2,11c5.7,9.8,11.5,19.6,17.3,29.3
			c3.4,5.7,4.6,6,10.5,3.4c1.3-0.6,2.4-1.4,3.6-2.1c3.1-1.7,6.2-3.3,9.6-5.1c-0.6,10.5-1.6,20.4-1.8,30.4
			c-0.2,9.8-3.5,19.4-1.6,30.4c9.5,1.1,18.6,2.6,27.6,3.1c17,1,34,1.9,51.1,0.7c4.7-0.3,7.1-2.6,7.3-7.6c0.3-9.3,0.5-18.6,0.7-27.9
			c0-1.9,0.7-15.7,1.1-20.6c0.2-2.1,0.2-4.2,0.3-6.3c5.1,5.3,9.6,10.6,15.7,13.8c10.6-5,20.9-9.7,31.1-14.6
			C439.7,406.6,440.5,402.1,436.8,397z M309,403.2c0.1-0.7,0.1-3.1-0.3-5.9l2.9-1.1c0,0-0.5,24.9-2,63.6c-1.5-0.1-3-0.1-4.6-0.1
			C304.8,457.2,307.5,419.8,309,403.2z M378.3,395.1c-0.2,9.1-1.1,18.3-1.8,27.4c-0.4,5.5-1.2,11.1-1.5,16.6
			c-0.3,7.9-0.3,15.8-0.4,24.3c-1.4,0-2.8,0-4.2,0c3.6-38.9,6.3-73,6.3-73l2.4,0.7C378.5,392.2,378.4,393.5,378.3,395.1z M401.4,415
			c-9.3-6.8-12.7-17.4-18-26.1c0,0-7.9-4.5-8.6-2.5c-0.7,1.7-5.9,65.1-6.9,77.1c-18.5-0.2-36.8-2.6-55.5-3.5
			c0.4-11.6,2.4-65.8,1.9-67.6c-0.5-2-6.1,1.8-6.1,1.8c-6.2,4.8-19.8,9.9-25.6,13.6c-5.9-10.4-11.3-19.7-16.8-29.3
			c5.4-5.3,11-10,17.3-13.9c7.1-4.4,14.3-8.7,21.3-13.2c1.9-1.2,3.8-2,5.5-0.4c8.3,8,19.1,9.3,29.7,11.2c16.7,3.1,32.4,0.2,46.9-8.9
			c1-0.6,2.1-1.1,3.7-2c4.2,9.6,21.6,31.8,24.1,34.9c4.2,5.1,8.5,10,13.4,15.8C418.3,406.6,409.9,410.8,401.4,415z"/>
		<path class="st4" d="M309,403.2c0.1-0.7,0.1-3.1-0.3-5.9l2.9-1.1c0,0-0.5,24.9-2,63.6c-1.5-0.1-3-0.1-4.6-0.1
			C304.8,457.2,307.5,419.8,309,403.2z"/>
		<path class="st4" d="M378.3,395.1c-0.2,9.1-1.1,18.3-1.8,27.4c-0.4,5.5-1.2,11.1-1.5,16.6c-0.3,7.9-0.3,15.8-0.4,24.3
			c-1.4,0-2.8,0-4.2,0c3.6-38.9,6.3-73,6.3-73l2.4,0.7C378.5,392.2,378.4,393.5,378.3,395.1z"/>
		<path class="st3" d="M401.4,415c-9.3-6.8-12.7-17.4-18-26.1c0,0-7.9-4.5-8.6-2.5c-0.7,1.7-5.9,65.1-6.9,77.1
			c-18.5-0.2-36.8-2.6-55.5-3.5c0.4-11.6,2.4-65.8,1.9-67.6c-0.5-2-6.1,1.8-6.1,1.8c-6.2,4.8-19.8,9.9-25.6,13.6
			c-5.9-10.4-11.3-19.7-16.8-29.3c5.4-5.3,11-10,17.3-13.9c7.1-4.4,14.3-8.7,21.3-13.2c1.9-1.2,3.8-2,5.5-0.4
			c8.3,8,19.1,9.3,29.7,11.2c16.7,3.1,32.4,0.2,46.9-8.9c1-0.6,2.1-1.1,3.7-2c4.2,9.6,21.6,31.8,24.1,34.9c4.2,5.1,8.5,10,13.4,15.8
			C418.3,406.6,409.9,410.8,401.4,415z"/>
	</g>
</g>
</svg>
