<?xml version="1.0" encoding="utf-8"?>
<!-- Generator: Adobe Illustrator 19.1.0, SVG Export Plug-In . SVG Version: 6.00 Build 0)  -->
<svg version="1.1" id="Calque_1" xmlns="http://www.w3.org/2000/svg" xmlns:xlink="http://www.w3.org/1999/xlink" x="0px" y="0px"
	 viewBox="-190 263.1 898.2 274.9" style="enable-background:new -190 263.1 898.2 274.9;" xml:space="preserve">
<style type="text/css">
	.st0{enable-background:new    ;}
	.st1{fill:#8D1514;}
	.st2{fill:#DF111A;}
	.st3{fill:#0B6EB1;}
	.st4{fill:#F5F9F8;}
</style>
<g>
	<path d="M703.5,331.7c-0.3,3.6-0.7,6.9-0.9,10.2c-0.1,2.2,0,4.4-0.1,6.5c0,6.6,0,13.3,0,19.9c0,1.4,0,2.8-0.1,4.2
		c-0.2,19.4-0.2,38.8-0.8,58.2c-0.5,14.4-1.9,28.7-2.8,43c-0.2,3.1,0,6.3-0.1,9.5c-0.2,13.8-0.5,18.9-0.7,32.7
		c-0.1,4.1-0.2,8.2,0,12.2c0.3,5.2-3.4,8.4-9.4,8.8c-7.5,0.5-14.9,1-22.4,1c-24.8,0.1-49.5,0.2-74.3,0c-29.4-0.2-58.8-0.8-88.2-1.1
		c-17.2-0.1-186.7,0.1-203.9,0.2c-15,0-30-0.3-44.9,0.1c-12.4,0.4-24.8-0.3-37.2-0.9c-9.3-0.4-18.6-0.5-28-0.8
		c-15.4-0.4-30.7-0.8-46.1-1c-4.5-0.1-9.1,0.6-13.6,0.9c-0.8,0.1-1.7,0.1-2.5,0c-5.5-0.2-11.1-0.6-16.6-0.5
		c-17.9,0.3-119.8-1.3-131.3-1.9c-9.3-0.5-18.5-1.3-27.8-1.4c-16.4-0.1-32.9-1.2-49.3-1.7c-15.3-0.5-30.7-0.8-46-1.3
		c-8.2-0.3-16.5-0.9-24.7-1.3c-2.9-0.1-5.8,0.1-8.7,0.5c-6,0.7-8.7-1.8-10.5-7.2c-1.7-4.8,1.8-36.8,1.6-48.9
		c-0.2-16.2-0.4-32.4-0.7-48.6c-0.2-9.9-0.3-19.8-0.7-29.6c-0.5-10.8-0.6-21.8-2.1-32.5c-2-14.5,0.3-28.8,1-43.1
		c0.2-3.4,1.4-5.6,4.3-7.3c1.4,0.2,2.9,0.4,4.3,0.5c23.8,0.3,47.6,0.9,71.4,0.9c18.1,0,36.3-0.8,54.4-0.8c8.5,0,17,1.1,25.5,1.7
		c0.2,0,0.4,0,0.6,0c22.1,0.1,44.2,0.1,66.3,0.2c8.5,0,17.1,0,25.6-0.1c7.5-0.2,15.1-0.7,22.6-0.9c9.6-0.1,19.1,0,28.7,0
		c20.4,0,40.9-0.2,61.3,0c13.1,0.1,26.2,0.6,39.4,1c3.5,0.1,7,0.4,10.5,0.5c12.5,0.4,25,0.6,37.5,1.1c19.5,0.7,191.4,1.6,210.9,2.4
		c5.2,0.2,10.4,0,15.7,0.1c12.9,0.3,25.8,0.5,38.7,1.1c16,0.7,32,1.5,48,2.5c10.1,0.6,20.2,1.8,30.4,2.7c3.9,0.3,7.9,0.6,11.8,0.8
		c12.6,0.9,25.2,2,37.9,2.8c6.9,0.4,13.8,0.1,20.6,0.9C686.3,328.9,694.8,328,703.5,331.7z M-183.4,317.7
		c-0.7,7.3-1.9,13.5-1.8,19.8c0.2,15.2,1,30.4,1.6,45.6c0.7,19.4,1.4,38.8,1.9,58.1c0.3,11.7-0.1,23.3,0.2,35
		c0.1,7.1-0.9,21.9-1.6,38.5c-0.2,0.3,0.1,0.7,0.2,1.6c5.9,0.2,154.3,3.3,173.7,3.8c17.3,0.4,34.6,0.5,51.8,0.8
		c19.2,0.3,38.4,0.7,57.6,1.1c9.6,0.2,19.2,0.6,28.7,1c10,0.4,19.9,1.4,29.9,1.5c6,0.1,11.9-0.7,18-0.1c9.9,1,20,1,29.9,1.1
		c16.9,0.2,33.8,0,50.7,0.1c37.8,0.2,227.8-0.8,265.6,1.6c11.8,0.7,23.6,0.9,35.4,1c16.1,0.2,32.1,0,48.2,0c23,0,46,0,69,0
		c2.3,0,4.5,0,7.2,0c0.5-3.2,1.2-5.9,1.3-8.6c0.3-17.2,0.8-25.6,0.7-42.8c-0.2-18.2,0.7-36.4,2-54.5c0.9-12.4,0.8-24.9,1.1-37.4
		c0.1-2.2,0-4.4,0-6.5c0.4-14,0.9-28.1,1.3-42.1c-12.3-0.8-24.2-1.5-36-2.2c-5.2-0.3-10.4-0.5-15.6-1c-8.5-0.8-16.9-1.9-25.4-2.5
		c-11-0.8-22-1.4-33-2c-12.7-0.7-25.3-1.5-38-2.2c-11.4-0.7-22.8-1.5-34.2-2c-13.5-0.5-179.4-0.6-193-1c-17.5-0.5-34.9-1.1-52.4-1.7
		c-16.4-0.5-32.8-1.2-49.2-1.5c-13.3-0.2-26.7,0.3-40,0.5c-2.1,0-4.1-0.3-6.2-0.5c-1.4-0.1-2.9-0.4-4.3-0.3
		c-7.2,0.2-14.4,0.7-21.6,0.8c-7.7,0-15.4-0.5-23.1-0.5c-21,0.1-42.1,0.4-63.1,0.5c-4.9,0-9.8-0.6-14.8-0.6c-7.5,0-15,0.7-22.5,0.5
		c-27.9-0.7-55.7-1.9-83.6-2.4c-14.2-0.3-28.4,0.6-42.7,0.9c-10.2,0.1-20.5,0-30.7,0c-6.6,0-13.2-0.1-19.8-0.3
		C-167.5,318.5-174.9,318.1-183.4,317.7z"/>
	<g>
		<g class="st0">
			<path d="M-111.5,497c0,1.1-0.1,2.1-0.4,2.9c-0.3,0.8-0.8,1.5-1.5,2.1c-0.7,0.6-1.6,1-2.6,1.3s-2.4,0.4-4,0.4h-3.5v5.2
				c0,0.4-0.1,0.7-0.4,1c-0.2,0.2-0.6,0.4-1,0.4h-2.7c-0.4,0-0.7-0.1-1-0.4c-0.2-0.2-0.4-0.6-0.4-1v-19.3c0-0.4,0.1-0.7,0.4-1
				c0.2-0.2,0.6-0.4,1-0.4h7.5c3.1,0,5.3,0.6,6.6,1.7c1.3,1.1,2,2.9,2,5.4V497z M-120.1,493h-3.4v6.4h3.4c1.1,0,1.9-0.2,2.4-0.6
				c0.5-0.4,0.7-1.2,0.7-2.3v-0.3c0-1.2-0.2-2-0.7-2.4C-118.2,493.2-119,493-120.1,493z"/>
			<path d="M-92.3,499.7v1.7c0,2.9-0.8,5.2-2.3,6.7c-1.5,1.5-3.7,2.3-6.6,2.3c-3,0-5.2-0.8-6.7-2.3c-1.4-1.5-2.2-3.8-2.2-6.8v-1.7
				c0-3,0.7-5.2,2.2-6.7c1.4-1.5,3.7-2.3,6.7-2.3c3,0,5.2,0.8,6.7,2.3C-93,494.4-92.3,496.7-92.3,499.7z M-97.7,501.1V500
				c0-1.1-0.1-2-0.4-2.7c-0.3-0.6-0.6-1.1-1.1-1.4c-0.5-0.3-1.2-0.4-2-0.4c-1.2,0-2.1,0.3-2.6,1c-0.5,0.6-0.8,1.8-0.8,3.5v1.2
				c0,1.7,0.3,2.8,0.8,3.5s1.4,0.9,2.6,0.9c0.8,0,1.5-0.1,2-0.4c0.5-0.2,0.9-0.7,1.1-1.3C-97.8,503.2-97.7,502.3-97.7,501.1z"/>
			<path d="M-85,492.2v6.1c0-2.6,0.4-4.6,1.3-5.8s2.2-1.8,4.2-1.8c0.4,0,0.7,0.1,0.8,0.3s0.3,0.6,0.3,1v3.2c0,1.1-0.6,1.6-1.7,1.5
				c-0.6-0.1-1.1-0.1-1.7,0c-0.6,0.1-1.1,0.2-1.6,0.4c-0.5,0.2-0.8,0.5-1.1,0.9c-0.3,0.4-0.4,0.9-0.4,1.6v9.2c0,0.4-0.1,0.8-0.4,1
				c-0.2,0.2-0.6,0.4-1,0.4H-89c-0.4,0-0.8-0.1-1-0.4c-0.2-0.2-0.4-0.6-0.4-1v-16.7c0-0.4,0.1-0.8,0.4-1c0.2-0.2,0.6-0.4,1-0.4h2.7
				c0.4,0,0.7,0.1,1,0.4S-85,491.8-85,492.2z"/>
			<path d="M-69,508.9c0,0.4-0.1,0.8-0.4,1c-0.2,0.2-0.6,0.4-1,0.4H-73c-0.4,0-0.8-0.1-1-0.4c-0.2-0.2-0.4-0.6-0.4-1v-13.8h-1.4
				c-0.8,0-1.2-0.4-1.2-1.2V492c0-0.8,0.4-1.2,1.2-1.2h1.4V490c0-0.4,0.1-0.8,0.4-1c0.2-0.2,0.6-0.4,1-0.4h2.7c0.4,0,0.8,0.1,1,0.4
				c0.2,0.2,0.4,0.6,0.4,1v0.8h2.4c0.8,0,1.2,0.4,1.2,1.3v1.6c0,0.4-0.1,0.8-0.3,1s-0.5,0.4-0.9,0.4H-69V508.9z"/>
			<path d="M-52,502.7c0,2.7-0.4,4.6-1.3,5.8c-0.9,1.2-2.3,1.8-4.3,1.8c-2.1,0-3.7-0.6-4.6-1.7c-1-1.2-1.5-3-1.5-5.7v-10.8
				c0-0.4,0.1-0.7,0.4-1c0.2-0.2,0.6-0.4,1-0.4h2.7c0.4,0,0.7,0.1,1,0.4s0.4,0.6,0.4,1v9.7c0,1.1,0.2,1.9,0.6,2.5
				c0.4,0.5,1.2,0.8,2.2,0.8c0.5,0,1-0.1,1.3-0.2c0.4-0.1,0.7-0.3,1.1-0.5s0.6-0.7,0.8-1.2c0.2-0.5,0.3-1.2,0.3-1.9v-9.2
				c0-0.4,0.1-0.8,0.4-1c0.2-0.2,0.6-0.4,1-0.4h2.7c0.4,0,0.7,0.1,1,0.4s0.4,0.6,0.4,1v16.7c0,0.4-0.1,0.7-0.4,1
				c-0.2,0.2-0.6,0.4-1,0.4h-2.7c-0.4,0-0.7-0.1-1-0.4c-0.2-0.2-0.4-0.6-0.4-1V502.7z"/>
			<path d="M-32.2,496.5v-4.4c0-0.4,0.1-0.8,0.4-1c0.2-0.2,0.6-0.4,1-0.4h2.7c0.4,0,0.7,0.1,1,0.4c0.2,0.2,0.4,0.6,0.4,1v14.6
				c0,1.7-0.7,3-2.1,3.8c-1.4,0.8-3.6,1.2-6.7,1.2c-4.7,0-7.4-0.9-8.2-2.7c-0.1-0.4-0.2-0.7-0.2-1.1c0-0.7,0.4-1.1,1.2-1.1h2.5
				c0.4,0,0.7,0.1,0.8,0.2s0.4,0.3,0.6,0.7c0.1,0.2,0.2,0.4,0.4,0.6c0.2,0.3,0.6,0.4,1,0.5c0.5,0.1,1.1,0.1,1.9,0.1
				c1.2,0,2.1-0.2,2.6-0.5c0.5-0.3,0.8-1,0.8-1.9v-5.9c0,2-0.4,3.4-1.3,4.4s-2.3,1.5-4.3,1.5c-2.4,0-4.1-0.6-5.1-1.8
				c-1-1.2-1.6-3.1-1.6-5.8v-0.7c0-2.6,0.5-4.5,1.6-5.7c1-1.2,2.8-1.9,5.1-1.9c2,0,3.4,0.5,4.3,1.5
				C-32.6,493.2-32.2,494.6-32.2,496.5z M-39.1,498.5v0.3c0,1.5,0.3,2.5,0.8,3.1c0.5,0.6,1.4,0.9,2.7,0.9c2.3,0,3.4-0.9,3.4-2.8
				v-2.7c0-1.8-1.1-2.7-3.4-2.7c-1.2,0-2.1,0.3-2.6,0.9C-38.8,496-39.1,497-39.1,498.5z"/>
			<path d="M-13.4,505.9c0,1.4-0.5,2.5-1.4,3.3c-0.9,0.8-2.4,1.2-4.4,1.2c-1.9,0-3.4-0.4-4.4-1.3c-1-0.9-1.5-2.1-1.5-3.8V505
				c0-0.8,0.1-1.5,0.3-2.1c0.2-0.6,0.5-1.1,0.8-1.5c0.3-0.4,0.8-0.8,1.3-1.1c0.5-0.3,1.1-0.5,1.6-0.7s1.2-0.3,1.9-0.4
				c0.7-0.1,1.4-0.2,1.9-0.3s1.2-0.1,2-0.2c0.7-0.1,1.3-0.2,1.8-0.3v-0.5c0-1-0.2-1.7-0.7-2.1c-0.4-0.4-1.2-0.5-2.3-0.5
				c-0.7,0-1.2,0.1-1.6,0.2c-0.4,0.2-0.6,0.4-0.7,0.7c-0.1,0.1-0.2,0.3-0.3,0.5c-0.1,0.6-0.5,0.9-1.3,0.9h-2.8
				c-0.9,0-1.3-0.4-1.3-1.3c0-0.3,0-0.6,0.1-0.7c0.2-1.5,0.9-2.7,2.3-3.6c1.3-0.8,3.2-1.3,5.5-1.3c3,0,5.2,0.6,6.5,1.7
				c1.3,1.1,2,2.9,2,5.4v11.1c0,0.4-0.1,0.8-0.4,1c-0.2,0.2-0.6,0.4-1,0.4H-12c-0.4,0-0.8-0.1-1-0.4c-0.2-0.2-0.4-0.6-0.4-1V505.9z
				 M-17.2,507c0.6,0,1.1,0,1.5-0.1s0.8-0.1,1.2-0.3c0.4-0.1,0.6-0.3,0.8-0.6c0.2-0.3,0.3-0.6,0.3-1v-3.5c-0.1,0-0.4,0.1-0.7,0.1
				c-0.8,0.1-1.4,0.2-1.8,0.3c-0.4,0.1-0.8,0.2-1.4,0.3s-0.9,0.2-1.1,0.4c-0.2,0.1-0.5,0.3-0.7,0.5c-0.3,0.2-0.4,0.4-0.5,0.7
				c-0.1,0.2-0.1,0.5-0.1,0.9v0.2C-19.7,506.4-18.8,507-17.2,507z"/>
			<path d="M-1.9,510.3h-2.7c-0.4,0-0.7-0.1-1-0.4c-0.2-0.2-0.4-0.6-0.4-1v-19.3c0-0.4,0.1-0.7,0.4-1c0.2-0.2,0.6-0.4,1-0.4h2.7
				c0.4,0,0.7,0.1,1,0.4c0.2,0.2,0.4,0.6,0.4,1v19.3c0,0.4-0.1,0.7-0.4,1C-1.1,510.1-1.5,510.3-1.9,510.3z"/>
		</g>
	</g>
	<g>
		<g class="st0">
			<path d="M91.3,510.3h-2.7c-0.4,0-0.7-0.1-1-0.4c-0.2-0.2-0.4-0.6-0.4-1v-19.3c0-0.4,0.1-0.7,0.4-1c0.2-0.2,0.6-0.4,1-0.4h2.7
				c0.4,0,0.7,0.1,1,0.4c0.2,0.2,0.4,0.6,0.4,1v19.3c0,0.4-0.1,0.7-0.4,1C92,510.1,91.7,510.3,91.3,510.3z"/>
			<path d="M94.6,505.8c-0.1-0.2-0.1-0.6-0.1-1.1c0-0.4,0.1-0.7,0.3-0.9s0.6-0.3,1.1-0.3h2.3c0.4,0,0.7,0.1,0.9,0.2
				c0.2,0.1,0.3,0.3,0.4,0.6c0.2,0.5,0.3,0.8,0.3,0.9c0.3,0.5,0.6,0.8,1.1,1c0.5,0.2,1.1,0.3,2,0.3c1,0,1.8-0.1,2.4-0.4
				c0.5-0.3,0.8-0.7,0.8-1.3v-0.1c0-0.5-0.1-0.9-0.3-1.2c-0.2-0.3-0.6-0.5-1.2-0.6c-0.6-0.2-1.6-0.3-2.9-0.5c-0.8-0.1-1.4-0.2-2-0.2
				c-0.6-0.1-1.1-0.2-1.6-0.3c-0.5-0.1-1-0.3-1.4-0.5s-0.7-0.4-1-0.7c-0.3-0.3-0.6-0.6-0.7-1c-0.2-0.4-0.3-0.8-0.4-1.3
				c-0.1-0.5-0.1-1-0.1-1.6v-0.1c0-2,0.7-3.5,2.1-4.5c1.4-1,3.5-1.5,6.4-1.5c2.2,0,4,0.3,5.4,1c1.4,0.7,2.3,1.7,2.7,3
				c0.2,0.6,0.2,1.1,0.3,1.5c0,0.4-0.1,0.7-0.3,0.9s-0.5,0.4-0.9,0.4h-2.5c-0.4,0-0.7-0.1-0.9-0.2c-0.2-0.1-0.4-0.3-0.5-0.7
				l-0.4-0.8c-0.5-0.8-1.5-1.2-3-1.2c-1.1,0-2,0.2-2.5,0.5c-0.5,0.3-0.8,0.8-0.8,1.4v0.1c0,0.4,0.1,0.8,0.3,1s0.6,0.4,1.3,0.6
				c0.6,0.1,1.6,0.3,2.9,0.4c1.4,0.1,2.5,0.3,3.4,0.5c0.9,0.2,1.6,0.6,2.2,1c0.6,0.5,1,1.1,1.3,1.8c0.2,0.7,0.4,1.6,0.4,2.7v0.2
				c0,2-0.7,3.4-2.1,4.3s-3.5,1.3-6.4,1.3c-2.4,0-4.4-0.4-5.7-1.1C95.8,508.6,94.9,507.4,94.6,505.8z"/>
			<path d="M117.1,510.3h-2.7c-0.4,0-0.7-0.1-1-0.4c-0.2-0.2-0.4-0.6-0.4-1v-19.3c0-0.4,0.1-0.7,0.4-1c0.2-0.2,0.6-0.4,1-0.4h2.7
				c0.4,0,0.7,0.1,1,0.4c0.2,0.2,0.4,0.6,0.4,1v19.3c0,0.4-0.1,0.7-0.4,1C117.9,510.1,117.6,510.3,117.1,510.3z"/>
			<path d="M131.9,505.9c0,1.4-0.5,2.5-1.4,3.3c-0.9,0.8-2.4,1.2-4.4,1.2c-1.9,0-3.4-0.4-4.4-1.3c-1-0.9-1.5-2.1-1.5-3.8V505
				c0-0.8,0.1-1.5,0.3-2.1c0.2-0.6,0.5-1.1,0.8-1.5c0.3-0.4,0.8-0.8,1.3-1.1c0.5-0.3,1.1-0.5,1.6-0.7s1.2-0.3,1.9-0.4
				c0.7-0.1,1.4-0.2,1.9-0.3s1.2-0.1,2-0.2c0.7-0.1,1.3-0.2,1.8-0.3v-0.5c0-1-0.2-1.7-0.7-2.1c-0.4-0.4-1.2-0.5-2.3-0.5
				c-0.7,0-1.2,0.1-1.6,0.2c-0.4,0.2-0.6,0.4-0.7,0.7c-0.1,0.1-0.2,0.3-0.3,0.5c-0.1,0.6-0.5,0.9-1.3,0.9h-2.8
				c-0.9,0-1.3-0.4-1.3-1.3c0-0.3,0-0.6,0.1-0.7c0.2-1.5,0.9-2.7,2.3-3.6c1.3-0.8,3.2-1.3,5.5-1.3c3,0,5.2,0.6,6.5,1.7
				c1.3,1.1,2,2.9,2,5.4v11.1c0,0.4-0.1,0.8-0.4,1c-0.2,0.2-0.6,0.4-1,0.4h-2.7c-0.4,0-0.8-0.1-1-0.4c-0.2-0.2-0.4-0.6-0.4-1V505.9z
				 M128.1,507c0.6,0,1.1,0,1.5-0.1s0.8-0.1,1.2-0.3c0.4-0.1,0.6-0.3,0.8-0.6c0.2-0.3,0.3-0.6,0.3-1v-3.5c-0.1,0-0.4,0.1-0.7,0.1
				c-0.8,0.1-1.4,0.2-1.8,0.3c-0.4,0.1-0.8,0.2-1.4,0.3s-0.9,0.2-1.1,0.4c-0.2,0.1-0.5,0.3-0.7,0.5c-0.3,0.2-0.4,0.4-0.5,0.7
				c-0.1,0.2-0.1,0.5-0.1,0.9v0.2C125.6,506.4,126.5,507,128.1,507z"/>
			<path d="M144.8,498.4c0-2.7,0.4-4.6,1.3-5.8c0.9-1.2,2.3-1.8,4.3-1.8c2.1,0,3.7,0.6,4.6,1.7s1.5,3,1.5,5.7v10.8
				c0,0.4-0.1,0.7-0.4,1c-0.2,0.2-0.6,0.4-1,0.4h-2.7c-0.4,0-0.7-0.1-1-0.4c-0.2-0.2-0.4-0.6-0.4-1v-9.8c0-1.1-0.2-1.9-0.6-2.5
				c-0.4-0.5-1.2-0.8-2.2-0.8c-0.5,0-1,0-1.3,0.2c-0.4,0.1-0.7,0.3-1.1,0.5c-0.3,0.3-0.6,0.6-0.8,1.2c-0.2,0.5-0.3,1.2-0.3,1.9v9.2
				c0,0.4-0.1,0.7-0.4,1c-0.2,0.2-0.6,0.4-1,0.4h-2.7c-0.4,0-0.7-0.1-1-0.4c-0.2-0.2-0.4-0.6-0.4-1v-16.7c0-0.4,0.1-0.7,0.4-1
				c0.2-0.2,0.6-0.4,1-0.4h2.7c0.4,0,0.7,0.1,1,0.4s0.4,0.6,0.4,1V498.4z"/>
			<path d="M170.8,497.1v-7.5c0-0.4,0.1-0.7,0.4-1c0.2-0.2,0.6-0.4,1-0.4h2.7c0.4,0,0.7,0.1,1,0.4c0.2,0.2,0.4,0.6,0.4,1v19.3
				c0,0.4-0.1,0.8-0.4,1c-0.2,0.2-0.6,0.3-1,0.3h-2.7c-0.4,0-0.8-0.1-1-0.3c-0.2-0.2-0.4-0.6-0.4-1v-5c0,2.2-0.4,3.9-1.3,4.9
				c-0.9,1.1-2.3,1.6-4.3,1.6c-2.4,0-4.1-0.7-5.1-2c-1-1.4-1.5-3.5-1.5-6.6v-2.6c0-2.9,0.5-5.1,1.6-6.5c1-1.4,2.8-2.1,5.1-2.1
				c2,0,3.4,0.5,4.3,1.6C170.3,493.4,170.8,495,170.8,497.1z M167.3,495.1c-0.8,0-1.5,0.1-2,0.4c-0.5,0.3-0.9,0.8-1.1,1.6
				c-0.3,0.8-0.4,1.8-0.4,3.1v0.6c0,1.4,0.1,2.4,0.4,3.2s0.6,1.3,1.1,1.6c0.5,0.3,1.1,0.4,2,0.4c0.5,0,1,0,1.3-0.1
				c0.4-0.1,0.7-0.2,1.1-0.5s0.6-0.6,0.8-1c0.2-0.4,0.3-1,0.3-1.6v-4.5c0-0.5-0.1-1-0.2-1.4c-0.1-0.4-0.3-0.7-0.5-0.9
				c-0.2-0.2-0.5-0.4-0.8-0.6c-0.3-0.1-0.6-0.2-0.9-0.3C168.1,495.1,167.7,495.1,167.3,495.1z"/>
			<path d="M195.6,505.7c-0.4,1.5-1.3,2.6-2.8,3.4c-1.5,0.8-3.4,1.2-5.8,1.2c-3,0-5.2-0.8-6.7-2.3c-1.4-1.5-2.2-3.8-2.2-6.8v-1.7
				c0-3,0.7-5.2,2.2-6.7c1.5-1.5,3.7-2.2,6.8-2.2c2.9,0,5.1,0.6,6.5,1.9c1.5,1.3,2.2,3.1,2.2,5.5v1.9c0,0.4-0.1,0.7-0.3,0.9
				c-0.2,0.2-0.5,0.3-0.9,0.3h-11.1c0,1.7,0.3,2.9,0.8,3.6c0.5,0.7,1.4,1,2.6,1c0.9,0,1.6-0.1,2.1-0.3c0.5-0.2,0.9-0.5,1.1-1
				c0-0.1,0.1-0.3,0.2-0.5c0.1-0.5,0.3-0.8,0.5-1c0.2-0.2,0.6-0.3,1-0.3h2.6c0.9,0,1.3,0.5,1.3,1.4
				C195.7,504.8,195.7,505.3,195.6,505.7z M187.1,495.1c-1.1,0-1.9,0.2-2.5,0.7s-0.9,1.3-1,2.5h6.8v-0.1c0-1.2-0.3-2-0.8-2.5
				S188.2,495.1,187.1,495.1z"/>
		</g>
	</g>
	<g>
		<g class="st0">
			<path d="M287.7,509.2c-0.1,0.4-0.2,0.6-0.5,0.8s-0.5,0.3-0.9,0.3h-2.5c-0.4,0-0.8-0.1-1-0.4c-0.2-0.3-0.3-0.6-0.2-1.1l5.1-19.4
				c0.1-0.3,0.2-0.6,0.5-0.8c0.2-0.2,0.5-0.3,0.9-0.3h5.7c0.4,0,0.7,0.1,0.9,0.3s0.4,0.5,0.5,0.8l5.1,19.4c0.1,0.4,0,0.8-0.2,1.1
				c-0.2,0.3-0.6,0.4-1,0.4h-2.5c-0.4,0-0.7-0.1-0.9-0.3s-0.4-0.5-0.5-0.8l-0.8-3.3h-6.8L287.7,509.2z M294.4,502l-2.5-10.2
				l-2.5,10.2H294.4z"/>
			<path d="M313.9,502.7c0,2.7-0.4,4.6-1.3,5.8c-0.9,1.2-2.3,1.8-4.3,1.8c-2.1,0-3.7-0.6-4.6-1.7c-1-1.2-1.5-3-1.5-5.7v-10.8
				c0-0.4,0.1-0.7,0.4-1c0.2-0.2,0.6-0.4,1-0.4h2.7c0.4,0,0.7,0.1,1,0.4s0.4,0.6,0.4,1v9.7c0,1.1,0.2,1.9,0.6,2.5
				c0.4,0.5,1.2,0.8,2.2,0.8c0.5,0,1-0.1,1.3-0.2c0.4-0.1,0.7-0.3,1.1-0.5s0.6-0.7,0.8-1.2c0.2-0.5,0.3-1.2,0.3-1.9v-9.2
				c0-0.4,0.1-0.8,0.4-1c0.2-0.2,0.6-0.4,1-0.4h2.7c0.4,0,0.7,0.1,1,0.4c0.2,0.2,0.4,0.6,0.4,1v16.7c0,0.4-0.1,0.7-0.4,1
				c-0.2,0.2-0.6,0.4-1,0.4h-2.7c-0.4,0-0.7-0.1-1-0.4c-0.2-0.2-0.4-0.6-0.4-1V502.7z"/>
			<path d="M328.9,508.9c0,0.4-0.1,0.8-0.4,1c-0.2,0.2-0.6,0.4-1,0.4h-2.7c-0.4,0-0.8-0.1-1-0.4c-0.2-0.2-0.4-0.6-0.4-1v-13.8h-1.4
				c-0.8,0-1.2-0.4-1.2-1.2V492c0-0.8,0.4-1.2,1.2-1.2h1.4V490c0-0.4,0.1-0.8,0.4-1c0.2-0.2,0.6-0.4,1-0.4h2.7c0.4,0,0.8,0.1,1,0.4
				c0.2,0.2,0.4,0.6,0.4,1v0.8h2.4c0.8,0,1.2,0.4,1.2,1.3v1.6c0,0.4-0.1,0.8-0.3,1c-0.2,0.2-0.5,0.4-0.9,0.4h-2.4V508.9z"/>
			<path d="M339.6,492.2v6.1c0-2.6,0.4-4.6,1.3-5.8s2.2-1.8,4.2-1.8c0.4,0,0.7,0.1,0.8,0.3c0.2,0.2,0.3,0.6,0.3,1v3.2
				c0,1.1-0.6,1.6-1.7,1.5c-0.6-0.1-1.1-0.1-1.7,0c-0.6,0.1-1.1,0.2-1.6,0.4c-0.5,0.2-0.8,0.5-1.1,0.9c-0.3,0.4-0.4,0.9-0.4,1.6v9.2
				c0,0.4-0.1,0.8-0.4,1c-0.2,0.2-0.6,0.4-1,0.4h-2.7c-0.4,0-0.8-0.1-1-0.4c-0.2-0.2-0.4-0.6-0.4-1v-16.7c0-0.4,0.1-0.8,0.4-1
				c0.2-0.2,0.6-0.4,1-0.4h2.7c0.4,0,0.7,0.1,1,0.4S339.6,491.8,339.6,492.2z"/>
			<path d="M352.4,490H349c-0.7,0-1-0.3-1-1v-0.1c0-0.7,0.3-1,1-1h3.4c0.7,0,1,0.3,1,1v0.1C353.4,489.6,353.1,490,352.4,490z
				 M352,510.3h-2.7c-0.4,0-0.7-0.1-1-0.4c-0.2-0.2-0.4-0.6-0.4-1v-16.7c0-0.4,0.1-0.7,0.4-1c0.2-0.2,0.6-0.4,1-0.4h2.7
				c0.4,0,0.7,0.1,1,0.4s0.4,0.6,0.4,1v16.7c0,0.4-0.1,0.7-0.4,1C352.8,510.1,352.4,510.3,352,510.3z"/>
			<path d="M364.2,510.4c-3,0-5.2-0.8-6.7-2.3c-1.4-1.5-2.2-3.8-2.2-6.8v-1.7c0-3,0.7-5.2,2.2-6.7c1.4-1.5,3.7-2.3,6.7-2.3
				c2.4,0,4.3,0.5,5.8,1.4s2.4,2.2,2.8,3.9c0.1,0.6,0.2,1.2,0.2,1.7c0,0.8-0.4,1.2-1.3,1.2H369c-0.4,0-0.7-0.1-0.9-0.2
				c-0.2-0.1-0.3-0.4-0.4-0.8c0-0.3-0.1-0.5-0.2-0.9c-0.2-0.6-0.6-1-1.1-1.2s-1.2-0.3-2.1-0.3c-0.8,0-1.5,0.1-2,0.4
				c-0.5,0.3-0.9,0.7-1.1,1.4c-0.3,0.6-0.4,1.5-0.4,2.7v1.2c0,1.7,0.3,2.8,0.8,3.5s1.4,0.9,2.6,0.9c0.9,0,1.6-0.1,2.1-0.3
				c0.5-0.2,0.9-0.6,1.1-1.1c0.2-0.5,0.3-0.8,0.4-1c0.1-0.3,0.2-0.6,0.4-0.7c0.2-0.1,0.5-0.2,0.9-0.2h2.7c0.8,0,1.3,0.4,1.3,1.3
				c0,0.6,0,1.1-0.1,1.5c-0.3,1.7-1.3,3.1-2.8,4C368.6,509.9,366.6,510.4,364.2,510.4z"/>
			<path d="M380.4,489.6v8.8c0-2.7,0.4-4.6,1.3-5.8c0.9-1.2,2.3-1.8,4.3-1.8c2.1,0,3.7,0.6,4.6,1.7s1.5,3,1.5,5.7v10.8
				c0,0.4-0.1,0.7-0.4,1c-0.2,0.2-0.6,0.4-1,0.4H388c-0.4,0-0.7-0.1-1-0.4c-0.2-0.2-0.4-0.6-0.4-1v-9.8c0-1.1-0.2-1.9-0.6-2.5
				c-0.4-0.5-1.2-0.8-2.2-0.8c-0.5,0-1,0-1.3,0.2c-0.4,0.1-0.7,0.3-1.1,0.5c-0.3,0.3-0.6,0.6-0.8,1.2c-0.2,0.5-0.3,1.2-0.3,1.9v9.2
				c0,0.4-0.1,0.7-0.4,1c-0.2,0.2-0.6,0.4-1,0.4h-2.7c-0.4,0-0.7-0.1-1-0.4c-0.2-0.2-0.4-0.6-0.4-1v-19.3c0-0.4,0.1-0.7,0.4-1
				c0.2-0.2,0.6-0.4,1-0.4h2.7c0.4,0,0.7,0.1,1,0.4C380.2,488.9,380.4,489.2,380.4,489.6z"/>
			<path d="M411.4,505.7c-0.4,1.5-1.3,2.6-2.8,3.4c-1.5,0.8-3.4,1.2-5.8,1.2c-3,0-5.2-0.8-6.7-2.3c-1.4-1.5-2.2-3.8-2.2-6.8v-1.7
				c0-3,0.7-5.2,2.2-6.7c1.5-1.5,3.7-2.2,6.8-2.2c2.9,0,5.1,0.6,6.5,1.9c1.5,1.3,2.2,3.1,2.2,5.5v1.9c0,0.4-0.1,0.7-0.3,0.9
				c-0.2,0.2-0.5,0.3-0.9,0.3h-11.1c0,1.7,0.3,2.9,0.8,3.6c0.5,0.7,1.4,1,2.6,1c0.9,0,1.6-0.1,2.1-0.3c0.5-0.2,0.9-0.5,1.1-1
				c0-0.1,0.1-0.3,0.2-0.5c0.1-0.5,0.3-0.8,0.5-1c0.2-0.2,0.6-0.3,1-0.3h2.6c0.9,0,1.3,0.5,1.3,1.4
				C411.5,504.8,411.5,505.3,411.4,505.7z M402.9,495.1c-1.1,0-1.9,0.2-2.5,0.7s-0.9,1.3-1,2.5h6.8v-0.1c0-1.2-0.3-2-0.8-2.5
				S404,495.1,402.9,495.1z"/>
		</g>
	</g>
	<g>
		<g class="st0">
			<path d="M512,510.3h-2.7c-0.4,0-0.8-0.1-1-0.4c-0.2-0.2-0.3-0.6-0.3-1v-7.5h-7.5v7.5c0,0.4-0.1,0.7-0.4,1c-0.2,0.2-0.6,0.4-1,0.4
				h-2.7c-0.4,0-0.7-0.1-1-0.4c-0.2-0.2-0.4-0.6-0.4-1v-19.3c0-0.4,0.1-0.7,0.4-1c0.2-0.2,0.6-0.4,1-0.4h2.7c0.4,0,0.7,0.1,1,0.4
				c0.2,0.2,0.4,0.6,0.4,1v6.4h7.5v-6.4c0-0.4,0.1-0.8,0.3-1c0.2-0.2,0.6-0.4,1-0.4h2.7c0.4,0,0.8,0.1,1,0.4c0.2,0.2,0.4,0.6,0.4,1
				v19.3c0,0.4-0.1,0.7-0.4,1C512.8,510.1,512.4,510.3,512,510.3z"/>
			<path d="M533,499.7v1.7c0,2.9-0.8,5.2-2.3,6.7c-1.5,1.5-3.7,2.3-6.6,2.3c-3,0-5.2-0.8-6.7-2.3c-1.4-1.5-2.2-3.8-2.2-6.8v-1.7
				c0-3,0.7-5.2,2.2-6.7c1.4-1.5,3.7-2.3,6.7-2.3c3,0,5.2,0.8,6.7,2.3C532.3,494.4,533,496.7,533,499.7z M527.6,501.1V500
				c0-1.1-0.1-2-0.4-2.7c-0.3-0.6-0.6-1.1-1.1-1.4c-0.5-0.3-1.2-0.4-2-0.4c-1.2,0-2.1,0.3-2.6,1c-0.5,0.6-0.8,1.8-0.8,3.5v1.2
				c0,1.7,0.3,2.8,0.8,3.5s1.4,0.9,2.6,0.9c0.8,0,1.5-0.1,2-0.4c0.5-0.2,0.9-0.7,1.1-1.3C527.5,503.2,527.6,502.3,527.6,501.1z"/>
			<path d="M540.4,498.4c0-2.7,0.4-4.6,1.3-5.8c0.9-1.2,2.3-1.8,4.3-1.8c2.1,0,3.7,0.6,4.6,1.7s1.5,3,1.5,5.7v10.8
				c0,0.4-0.1,0.7-0.4,1c-0.2,0.2-0.6,0.4-1,0.4H548c-0.4,0-0.7-0.1-1-0.4c-0.2-0.2-0.4-0.6-0.4-1v-9.8c0-1.1-0.2-1.9-0.6-2.5
				c-0.4-0.5-1.2-0.8-2.2-0.8c-0.5,0-1,0-1.3,0.2c-0.4,0.1-0.7,0.3-1.1,0.5c-0.3,0.3-0.6,0.6-0.8,1.2c-0.2,0.5-0.3,1.2-0.3,1.9v9.2
				c0,0.4-0.1,0.7-0.4,1c-0.2,0.2-0.6,0.4-1,0.4h-2.7c-0.4,0-0.7-0.1-1-0.4c-0.2-0.2-0.4-0.6-0.4-1v-16.7c0-0.4,0.1-0.7,0.4-1
				c0.2-0.2,0.6-0.4,1-0.4h2.7c0.4,0,0.7,0.1,1,0.4s0.4,0.6,0.4,1V498.4z"/>
			<path d="M566.3,496.5v-4.4c0-0.4,0.1-0.8,0.4-1c0.2-0.2,0.6-0.4,1-0.4h2.7c0.4,0,0.7,0.1,1,0.4c0.2,0.2,0.4,0.6,0.4,1v14.6
				c0,1.7-0.7,3-2.1,3.8c-1.4,0.8-3.6,1.2-6.7,1.2c-4.7,0-7.4-0.9-8.2-2.7c-0.1-0.4-0.2-0.7-0.2-1.1c0-0.7,0.4-1.1,1.2-1.1h2.5
				c0.4,0,0.7,0.1,0.8,0.2s0.4,0.3,0.6,0.7c0.1,0.2,0.2,0.4,0.4,0.6c0.2,0.3,0.6,0.4,1,0.5c0.5,0.1,1.1,0.1,1.9,0.1
				c1.2,0,2.1-0.2,2.6-0.5c0.5-0.3,0.8-1,0.8-1.9v-5.9c0,2-0.4,3.4-1.3,4.4s-2.3,1.5-4.3,1.5c-2.4,0-4.1-0.6-5.1-1.8
				c-1-1.2-1.6-3.1-1.6-5.8v-0.7c0-2.6,0.5-4.5,1.6-5.7c1-1.2,2.8-1.9,5.1-1.9c2,0,3.4,0.5,4.3,1.5
				C565.9,493.2,566.3,494.6,566.3,496.5z M559.4,498.5v0.3c0,1.5,0.3,2.5,0.8,3.1c0.5,0.6,1.4,0.9,2.7,0.9c2.3,0,3.4-0.9,3.4-2.8
				v-2.7c0-1.8-1.1-2.7-3.4-2.7c-1.2,0-2.1,0.3-2.6,0.9C559.7,496,559.4,497,559.4,498.5z"/>
			<path d="M579.2,492.2v6.1c0-2.6,0.4-4.6,1.3-5.8s2.2-1.8,4.2-1.8c0.4,0,0.7,0.1,0.8,0.3c0.2,0.2,0.3,0.6,0.3,1v3.2
				c0,1.1-0.6,1.6-1.7,1.5c-0.6-0.1-1.1-0.1-1.7,0c-0.6,0.1-1.1,0.2-1.6,0.4c-0.5,0.2-0.8,0.5-1.1,0.9c-0.3,0.4-0.4,0.9-0.4,1.6v9.2
				c0,0.4-0.1,0.8-0.4,1c-0.2,0.2-0.6,0.4-1,0.4h-2.7c-0.4,0-0.8-0.1-1-0.4c-0.2-0.2-0.4-0.6-0.4-1v-16.7c0-0.4,0.1-0.8,0.4-1
				c0.2-0.2,0.6-0.4,1-0.4h2.7c0.4,0,0.7,0.1,1,0.4S579.2,491.8,579.2,492.2z"/>
			<path d="M592,490h-3.4c-0.7,0-1-0.3-1-1v-0.1c0-0.7,0.3-1,1-1h3.4c0.7,0,1,0.3,1,1v0.1C593,489.6,592.7,490,592,490z
				 M591.6,510.3h-2.7c-0.4,0-0.7-0.1-1-0.4c-0.2-0.2-0.4-0.6-0.4-1v-16.7c0-0.4,0.1-0.7,0.4-1c0.2-0.2,0.6-0.4,1-0.4h2.7
				c0.4,0,0.7,0.1,1,0.4s0.4,0.6,0.4,1v16.7c0,0.4-0.1,0.7-0.4,1C592.4,510.1,592,510.3,591.6,510.3z"/>
			<path d="M612.4,505.7c-0.4,1.5-1.3,2.6-2.8,3.4c-1.5,0.8-3.4,1.2-5.8,1.2c-3,0-5.2-0.8-6.7-2.3c-1.4-1.5-2.2-3.8-2.2-6.8v-1.7
				c0-3,0.7-5.2,2.2-6.7c1.5-1.5,3.7-2.2,6.8-2.2c2.9,0,5.1,0.6,6.5,1.9c1.5,1.3,2.2,3.1,2.2,5.5v1.9c0,0.4-0.1,0.7-0.3,0.9
				c-0.2,0.2-0.5,0.3-0.9,0.3h-11.1c0,1.7,0.3,2.9,0.8,3.6c0.5,0.7,1.4,1,2.6,1c0.9,0,1.6-0.1,2.1-0.3c0.5-0.2,0.9-0.5,1.1-1
				c0-0.1,0.1-0.3,0.2-0.5c0.1-0.5,0.3-0.8,0.5-1c0.2-0.2,0.6-0.3,1-0.3h2.6c0.9,0,1.3,0.5,1.3,1.4
				C612.6,504.8,612.5,505.3,612.4,505.7z M603.9,495.1c-1.1,0-1.9,0.2-2.5,0.7s-0.9,1.3-1,2.5h6.8v-0.1c0-1.2-0.3-2-0.8-2.5
				S605.1,495.1,603.9,495.1z"/>
		</g>
	</g>
	<g class="st0">
		<path d="M273.5,284.4v2.8c0,1.4-0.7,2.1-2,2.1h-13.8V302c0,1.4-0.7,2.1-2.1,2.1h-3.1c-1.4,0-2.1-0.7-2.1-2.1v-32.7
			c0-1.4,0.7-2.1,2.1-2.1h19.6c1.4,0,2,0.7,2,2.1v3.1c0,1.4-0.7,2.1-2,2.1h-14.5v7.8h13.8C272.9,282.4,273.5,283,273.5,284.4z"/>
	</g>
	<g id="Hongrie_1_">
		<path d="M596.5,345c5.7,5.8,11.1,11,16.3,16.4c2.5,2.5,4.6,5.4,7,7.9c4.3,4.5,8.9,8.7,13.2,13.2c1.3,1.3,2.5,2.8,3.3,4.4
			c2.2,4.6,1.2,8.9-2.3,12.4c-4.3,4.2-8.9,8-13.5,11.9c-3.6,3.1-7.5,6-11,9.2c-3.7,3.3-7.1,3.5-10.9,0.4c-1.9-1.6-3.7-3.2-6.2-5.5
			c-0.3,1.9-0.5,3-0.6,4.1c-0.7,13.1-1.3,26.2-2.3,39.2c-0.2,3-1.5,6-2.9,8.7c-1.2,2.4-3.5,3.2-6.3,3.1c-9.3-0.4-18.7-0.5-28-0.8
			c-8.1-0.3-16.2-0.3-24.3-1c-5.7-0.5-11.3-2.1-17.6-3.4c-0.6-5.4-0.6-10.6,0.2-16c1.8-12.5,3.2-25.1,4.8-37.6c0.2-1.6,0-3.3,0-5.9
			c-4.8,2.9-8.9,5.5-13,8c-1.1,0.7-2.1,1.4-3.2,1.9c-2.7,1.2-4.8,0.6-6.3-2.1c-0.4-0.7-0.9-1.4-1.3-2.2c-4-9.5-10.4-17.5-16.4-25.8
			c-1.8-2.5-2.9-5.4-4.7-8.6c6.9-5.8,13.2-11.4,19.9-16.6c8.3-6.5,17-12.7,25.5-19c5.5-4.1,7.2-4.1,12.7-0.1
			c5.9,4.4,12.2,7.9,19.5,9.3c13.3,2.5,26.5,2,39.5-1.4C590.8,348.4,593.6,346.4,596.5,345z M600.1,414c6.8-3.3,27.8-20.8,30.2-25
			c-11.2-12-22.5-24.1-33.7-36.1c-10.2,8-10.3,7.7-17.2,9.6c-12.2,3.4-24.2,2.6-36.2-0.3c-9.6-2.4-19.2-5.3-25.2-15.1
			c-13.7,10.8-27,21.3-40.5,32c6.2,9.4,12.1,18.4,17.7,26.8c5.6-4.2,11.1-8.1,16.5-12.3c2.6-2.1,5-4.5,8-7.2
			c1.6,0.4,2.1,2.4,2.3,4.5c0.1,2.1,0.1,4.2-0.1,6.3c-0.5,5.4-1.3,10.7-1.6,16.1c-0.6,11.8-0.7,23.7-3.7,35.3
			c-0.7,2.7-0.6,5.6-0.9,9c11.5,0.3,22.5,0.9,33.4,0.8c10.9,0,21.9,2,32.7-0.4c0.3-3.7,0.6-7,0.7-10.2c0.1-14.4,0.3-28.7-2.7-42.9
			c-0.7-3.5-1.6-7.8,0.9-11.3c1.8,0.6,3.4,1.1,5,1.5c3.5,0.9,5.5,3.3,5,6.8c-0.6,4.5,1.5,7.1,5.1,9
			C597.2,411.8,598.5,412.9,600.1,414z"/>
		<path class="st1" d="M600.1,414c6.8-3.3,27.8-20.8,30.2-25c-11.2-12-22.5-24.1-33.7-36.1c-10.2,8-10.3,7.7-17.2,9.6
			c-12.2,3.4-24.2,2.6-36.2-0.3c-9.6-2.4-19.2-5.3-25.2-15.1c-13.7,10.8-27,21.3-40.5,32c6.2,9.4,12.1,18.4,17.7,26.8
			c5.6-4.2,11.1-8.1,16.5-12.3c2.6-2.1,5-4.5,8-7.2c1.6,0.4,2.1,2.4,2.3,4.5c0.1,2.1,0.1,4.2-0.1,6.3c-0.5,5.4-1.3,10.7-1.6,16.1
			c-0.6,11.8-0.7,23.7-3.7,35.3c-0.7,2.7-0.6,5.6-0.9,9c11.5,0.3,22.5,0.9,33.4,0.8c10.9,0,21.9,2,32.7-0.4c0.3-3.7,0.6-7,0.7-10.2
			c0.1-14.4,0.3-28.7-2.7-42.9c-0.7-3.5-1.6-7.8,0.9-11.3c1.8,0.6,3.4,1.1,5,1.5c3.5,0.9,5.5,3.3,5,6.8c-0.6,4.5,1.5,7.1,5.1,9
			C597.2,411.8,598.5,412.9,600.1,414z"/>
	</g>
	<g id="Portugal_1_">
		<path d="M25.8,391.1c-7.9-9.3-16-18.6-24-27.9c-6-6.9-12.1-13.7-18-20.7c-3-3.6-5.7-4.4-9.7-2.1c-6.7,3.9-14,5.3-21.5,5.7
			c-17.5,1-34.5-1.2-50.1-9.9c-3.2-1.8-5.9-1.6-8.5,0.9c-8.6,8.2-17.5,16-25.6,24.5c-8,8.4-15.1,17.6-22.5,26.6
			c-4.1,5-2.9,11,2.1,15.1c5.2,4.1,10.4,8.4,14.8,13.3c3.9,4.2,7.4,8.3,14,9.1c5.2-4.4,10.6-9,17.1-14.5c0,2.9,0.1,4.7,0,6.5
			c-0.5,5.6-1.3,11.1-1.7,16.7c-0.5,7.5-0.7,15-1.2,22.4c-0.5,7,2.9,12.1,9.8,13.6c5.8,1.2,11.8,2.5,17.7,2.8c15,0.6,30,0.7,45,0.7
			c3,0,6.1-1,8.8-2.3c7.4-3.5,10.3-9.9,10-17.9c-0.3-9.4-0.6-18.7-1-28.1c-0.1-2.7-0.5-5.4-0.7-8.1c-0.3-3.5-0.3-7.1,0-11.4
			c3.9,4.2,7,7.7,10.2,10.9c4.7,4.8,8,5.3,13.7,1.7c5.3-3.2,10.6-6.5,15.5-10.2c2.6-1.9,4.8-4.6,6.5-7.4
			C28.2,397.8,28.4,394.2,25.8,391.1z M-126.4,413.9c-1.8,1.3-3.3,0.8-4.9-0.9c-5.9-6.5-11.9-12.8-18-19.4
			c12.1-18.7,28.3-33.6,43.4-48.2c0.9,9.3,0.9,41.1,0.7,51.9C-111,404.4-119,408.7-126.4,413.9z M-27.8,458.2c0,2.5-1,4.3-3,4.9
			c-3.7,1.2-7.6,2.3-11.4,2.5c-13.4,0.8-26.6-1.2-39.7-3c-4.7-0.7-9.5-1-14.2-1.7c-2.2-0.3-4.3-1.2-7-2c0-2.3-0.1-4.4,0-6.4
			c0.6-11,1.3-22,1.8-33c0.3-5,0.4-10,0.6-14.9l0,0c0,0,0-0.3,0-0.8c0-1.3,0.1-2.7,0.1-4c0-0.5,0-1,0-1.5
			c0.3-11.9,0.6-37.3-1.3-51.1c25.9,11.2,51.4,13.1,77.1,2c-6.8,14.8-7.5,30.4-6.7,42.6c0,0.8,0.2,1.6,0.5,2.2
			c3.3,14.2,4,28.4,4,42.7C-27,443.6-27.7,450.9-27.8,458.2z M-4.9,413.5c-3-1.3-19.7-20.1-22.1-25.4c-2.6-5.9,1.9-29.5,6.5-40.3
			c10.5,11.3,21.3,22.8,31.8,34.4c3.5,3.8,8.4,9.8,10,12.7C22.9,397.8-1.8,414.8-4.9,413.5z"/>
		<path class="st1" d="M-126.4,413.9c-1.8,1.3-3.3,0.8-4.9-0.9c-5.9-6.5-11.9-12.8-18-19.4c12.1-18.7,28.3-33.6,43.4-48.2
			c0.9,9.3,0.9,41.1,0.7,51.9C-111,404.4-119,408.7-126.4,413.9z"/>
		<path class="st2" d="M-27.8,458.2c0,2.5-1,4.3-3,4.9c-3.7,1.2-7.6,2.3-11.4,2.5c-13.4,0.8-26.6-1.2-39.7-3
			c-4.7-0.7-9.5-1-14.2-1.7c-2.2-0.3-4.3-1.2-7-2c0-2.3-0.1-4.4,0-6.4c0.6-11,1.3-22,1.8-33c0.3-5,0.4-10,0.6-14.9l0,0
			c0,0,0-0.3,0-0.8c0-1.3,0.1-2.7,0.1-4c0-0.5,0-1,0-1.5c0.3-11.9,0.6-37.3-1.3-51.1c25.9,11.2,51.4,13.1,77.1,2
			c-6.8,14.8-7.5,30.4-6.7,42.6c0,0.8,0.2,1.6,0.5,2.2c3.3,14.2,4,28.4,4,42.7C-27,443.6-27.7,450.9-27.8,458.2z"/>
		<path class="st1" d="M-4.9,413.5c-3-1.3-19.7-20.1-22.1-25.4c-2.6-5.9,1.9-29.5,6.5-40.3c10.5,11.3,21.3,22.8,31.8,34.4
			c3.5,3.8,8.4,9.8,10,12.7C22.9,397.8-1.8,414.8-4.9,413.5z"/>
	</g>
	<g id="Islande_1_">
		<path d="M231,378.5c-7.7-6.4-15.7-12.2-23.7-18.3c-2.2-1.6-4.5-3-6.7-4.6c-6.4-5-12.7-10.1-18.9-15.3c-2.8-2.4-6.4-2.2-8.3-0.6
			c-3.1,2.6-6.7,3.1-10,4.6c-10.8,5.1-21.6,6-33.4,2.9c-8.5-2.2-15.5-6.4-23.2-11.5c-4.7,2.5-9.9,5-14.9,7.9
			c-12.4,7.2-24.6,14.7-36.9,22c-5.4,3.3-7.2,7.8-4.8,13.7c3.4,8.5,7.7,16.6,13.3,24c1.2,1.7,2.8,3.3,3.4,5.2
			c1.7,5.1,5.2,7.7,10.1,8.5c6.6-4.1,12.9-8,19.2-12c0,9-0.1,17.7,0,26.3c0.1,9.6,0,19.2-2.5,28.5c-0.4,1.4-0.5,3-0.1,4.3
			c0.3,1.3,1,3,2,3.6c2.7,1.4,5.7,3.1,8.6,3.3c10.3,1,20.7,2.2,31,1.9c13.8-0.4,27.6-2.3,41.4-3.3c8-0.5,12.4-3.6,12.3-13.7
			c0-9.7-1.7-19.4-2.9-29.1c-0.5-4.2-1.5-8.4-2.4-13.5c5.5,3,10.2,5.5,14.9,8c1.9-1,4.1-1.9,5.9-3.2c9.3-7.1,19.4-13.3,26.8-22.7
			C235.2,390.5,235.6,382.4,231,378.5z M140.4,463.1c-10.4,0.3-20.8,0.8-31.2,0.8c-3.4,0-6.8-1.1-10.5-1.8c0.4-2.2,0.6-3.6,1-5
			c3.2-12.7,1.7-25.6,1.6-38.5c-0.1-6.6,1.1-13.2,1.9-19.8c0.5-4.4,0.5-4.8-1.9-8.6c-9.7,3.8-17.6,11.2-28.1,15
			c-5.5-9.2-10.6-18-16-26.6c-2.2-3.5-1.4-5.7,2.1-7.7c14.2-8.6,28.5-17.1,43-25.8c1.2,1,2.3,1.9,3.3,2.9c7.8,8.3,18,10.9,28.8,11.3
			c3.3,0.1,6.6,0,9.9-0.3l5.1,103.7c-0.9,0-1.8,0-2.6,0C144.6,462.8,142.5,463.1,140.4,463.1z M158.4,462.7c-1.6,0-3.1,0-4.7,0
			l-4.5-104.3c2.1-0.4,4.2-0.8,6.2-1.4l5.2,105.7C159.8,462.7,159.1,462.7,158.4,462.7z M195.1,410.2c-9.1-3.5-15.8-10.9-24.7-17.3
			c-0.3,3.5-1,5.3-0.6,6.6c3.7,10.1,3.5,20.8,5.3,31.2c1.3,7.6,2.2,15.2,2.7,22.9c0.4,6.5-0.5,7.6-7,8.8c-1.9,0.3-3.9,0.4-5.8,0.4
			l-4.5-107.3c4.3-1.6,8.5-3.6,12.6-6.1c4.8-3,4.8-2.8,9.6,0.8c11.8,8.8,23.8,17.5,35.6,26.3c3,2.2,5.7,4.8,9.1,7.6
			C216.1,393.1,205.7,401.6,195.1,410.2z"/>
		<path class="st2" d="M158.4,462.7c-1.6,0-3.1,0-4.7,0l-4.5-104.3c2.1-0.4,4.2-0.8,6.2-1.4l5.2,105.7
			C159.8,462.7,159.1,462.7,158.4,462.7z"/>
		<path class="st3" d="M195.1,410.2c-9.1-3.5-15.8-10.9-24.7-17.3c-0.3,3.5-1,5.3-0.6,6.6c3.7,10.1,3.5,20.8,5.3,31.2
			c1.3,7.6,2.2,15.2,2.7,22.9c0.4,6.5-0.5,7.6-7,8.8c-1.9,0.3-3.9,0.4-5.8,0.4l-4.5-107.3c4.3-1.6,8.5-3.6,12.6-6.1
			c4.8-3,4.8-2.8,9.6,0.8c11.8,8.8,23.8,17.5,35.6,26.3c3,2.2,5.7,4.8,9.1,7.6C216.1,393.1,205.7,401.6,195.1,410.2z"/>
		<path class="st3" d="M140.4,463.1c-10.4,0.3-20.8,0.8-31.2,0.8c-3.4,0-6.8-1.1-10.5-1.8c0.4-2.2,0.6-3.6,1-5
			c3.2-12.7,1.7-25.6,1.6-38.5c-0.1-6.6,1.1-13.2,1.9-19.8c0.5-4.4,0.5-4.8-1.9-8.6c-9.7,3.8-17.6,11.2-28.1,15
			c-5.5-9.2-10.6-18-16-26.6c-2.2-3.5-1.4-5.7,2.1-7.7c14.2-8.6,28.5-17.1,43-25.8c1.2,1,2.3,1.9,3.3,2.9c7.8,8.3,18,10.9,28.8,11.3
			c3.3,0.1,6.6,0,9.9-0.3l5.1,103.7c-0.9,0-1.8,0-2.6,0C144.6,462.8,142.5,463.1,140.4,463.1z"/>
	</g>
	<g id="Autriche_1_">
		<path d="M432.7,401.1c-0.8-2.9-2.4-5.7-4.1-8.1c-2.9-4-6.8-7.4-9.4-11.6c-7.7-12.8-18.2-23.2-27.5-34.6c-2.1-2.6-5.1-2.6-7.7-2.2
			c-5.3,0.8-10.5,2.6-15.8,3.4c-16.5,2.5-32.3,1.7-46-9.4c-2.9-2.3-6.1-2.5-9.3-0.5c-1.6,1-3.2,1.9-4.8,3
			c-14.9,9.9-29.2,20.5-42.5,32.5c-3.4,3-3.8,4.7-1.3,8.5c3.3,4.8,6.6,9.6,9.9,14.4s6.3,9.8,9.6,14.6c2.3,3.3,5.1,4.1,8.9,2.8
			c3.5-1.2,7.1-2.3,11.4-3.7c-0.4,2.6-0.5,4.3-0.9,5.9c-3.2,12.7-6.4,25.4-9.7,38c-1.4,5.2,0.2,8.9,5.2,11c1.5,0.7,3.1,1.2,4.7,1.5
			c3.9,0.7,7.8,1.2,11.6,1.8c5.5,0.9,11,2.4,16.6,2.9c9.6,0.7,19.3,0.9,29,1.2c0.8,0,1.7-0.1,2.5-0.1c3-0.1,6.1-0.4,9.1-0.2
			c11.4,1,17.3-4.2,17.2-15.5c0-7.7-0.5-15.4-0.7-23.1c-0.1-3.3,0-6.5,0-11.8c4,5.7,7.7,3.1,10.7,2c8.5-3.1,16.8-7.1,25.1-10.8
			c1.5-0.7,2.8-1.8,4.3-2.6C432.7,408.1,433.7,404.7,432.7,401.1z M298.4,401.3c-3.7,1.9-7.4,3.5-11.1,5.3
			c-6.2-9.5-11.8-18-17.9-27.2c13-11.6,26.2-22.8,41.3-31.6c1.5,13.5-0.5,35.7-2.4,44.5C306.2,396.7,302.9,399,298.4,401.3z
			 M382.3,457.8c0,3.7-3.8,5.5-8.8,5.5c-10.7,0-28.9,0.1-35-0.6c-11.9-1.4-36.8-5.5-39.1-5.9c2.4-10.2,4.7-19.6,7-29.1
			c2.4-9.7,9.8-42.9,8.2-78.6c22.6,15.8,46.4,13.1,71.2,4.3c-0.3,0.7-0.6,1.5-0.9,2.5c-3.4,10.5-7.5,38.2-6.3,42.9
			c0.5,7.9,0.6,15.8,2,23.6C382.9,434.2,382.2,446,382.3,457.8z M395.4,411.8c-5.9-3.5-8.8-9.7-13.4-15.3c-0.5-11.9,5.3-34,7.9-43.2
			c12.1,13.2,22.4,28.2,33.7,43.2C415.1,403.3,405.4,407.8,395.4,411.8z"/>
		<path class="st2" d="M382.3,457.8c0,3.7-3.8,5.5-8.8,5.5c-10.7,0-28.9,0.1-35-0.6c-11.9-1.4-36.8-5.5-39.1-5.9
			c2.4-10.2,4.7-19.6,7-29.1c2.4-9.7,9.8-42.9,8.2-78.6c22.6,15.8,46.4,13.1,71.2,4.3c-0.3,0.7-0.6,1.5-0.9,2.5
			c-3.4,10.5-7.5,38.2-6.3,42.9c0.5,7.9,0.6,15.8,2,23.6C382.9,434.2,382.2,446,382.3,457.8z"/>
		<path class="st4" d="M298.4,401.3c-3.7,1.9-7.4,3.5-11.1,5.3c-6.2-9.5-11.8-18-17.9-27.2c13-11.6,26.2-22.8,41.3-31.6
			c1.5,13.5-0.5,35.7-2.4,44.5C306.2,396.7,302.9,399,298.4,401.3z"/>
		<path class="st4" d="M395.4,411.8c-5.9-3.5-8.8-9.7-13.4-15.3c-0.5-11.9,5.3-34,7.9-43.2c12.1,13.2,22.4,28.2,33.7,43.2
			C415.1,403.3,405.4,407.8,395.4,411.8z"/>
	</g>
</g>
</svg>
