<?xml version="1.0" encoding="utf-8"?>
<!-- Generator: Adobe Illustrator 19.1.0, SVG Export Plug-In . SVG Version: 6.00 Build 0)  -->
<svg version="1.1" id="Calque_1" xmlns="http://www.w3.org/2000/svg" xmlns:xlink="http://www.w3.org/1999/xlink" x="0px" y="0px"
	 viewBox="-190 265.5 898.6 271.5" style="enable-background:new -190 265.5 898.6 271.5;" xml:space="preserve">
<style type="text/css">
	.st0{enable-background:new    ;}
	.st1{fill:#DF111A;}
	.st2{fill:#F9CB00;}
	.st3{fill:#F5F9F8;}
</style>
<g>
	<path d="M-186.7,309.7c17.2,0.4,34,0.8,50.7,1.2c6.2,0.1,12.4,0.3,18.6,0.5c13.8,0.5,27.5,1.2,41.3,1.7c3.3,0.1,6.6,0.2,9.8,0.1
		c26.7,0,53.4-0.1,80.2-0.1c12.3,0,24.7-0.1,37,0.2c12.7,0.2,25.5,0.8,38.2,1.3c1.8,0.1,3.5,0,5.3,0.1c26.4,0.2,52.7,0.4,79.1,0.5
		c9.3,0,18.7-0.2,28-0.3c13.4-0.2,26.8-0.3,40.1-0.5c32.5-0.5,65.1-1.2,97.6-1.7c24-0.3,47.9-0.4,71.9-0.5c20.6,0,41.3,0,61.9,0.2
		c16.6,0.2,33.1,0.8,49.7,1.1c7.5,0.1,15-0.3,22.5-0.2c30.7,0.3,61.4,1.4,92.1,0.5c11.8-0.3,23.6,0.1,35.5,0.4
		c10.6,0.2,21.3,0.5,31.6,5.8c-0.4,12.5-0.8,25.3-1.2,38.1c0,1.5,0,3.1,0,4.6c-0.4,20.9-0.9,41.9-1.3,62.8
		c-0.2,8.8-0.7,17.6-0.8,26.4c-0.2,20-0.5,40-0.3,59.9c0,5.3,1.4,10.5,2.4,15.8c0.6,3.2-2.5,7.4-7.2,8.5c-3.1,0.7-6.4,1.1-9.6,1.1
		c-6.8,0-13.5-0.4-20.3-0.4c-18.6-0.2-37.2-0.2-55.8-0.4c-10.1-0.1-20.2,0-30.2-0.2c-15.3-0.3-30.6-1-45.9-1.2
		c-14.1-0.2-28.1-0.1-42.2-0.1c-21.2-0.1-42.3,0-63.5-0.2c-18.8-0.2-37.7-0.9-56.5-1.3c-4.5-0.1-9,0.2-13.5,0
		c-20.5-0.7-41-2-61.6-1.9c-21.4,0.1-42.7,0-64.1-0.1c-10.5-0.1-21.1-0.1-31.6-0.5c-8.5-0.3-17-1.2-25.5-1.6
		c-5.2-0.2-10.5,0.2-15.8,0.2c-27.5,0.4-54.9,0.8-82.4,1c-9.2,0.1-18.4-0.8-27.5-0.9c-3.7-0.1-7.4,0.8-11.1,0.8
		c-24.9,0.4-49.8-0.3-74.6-1.6c-8.2-0.5-16.5,0.1-24.7-0.6c-10.6-0.8-20.9-1.1-31.5,0.3c-6.5,0.8-13.4,0.3-20.1,0.2
		c-4.8-0.1-9.5-0.5-14.3-0.5c-14.8-0.2-29.7-0.2-44.5-0.4c-9.4-0.1-13.7-3.9-14.8-12.2c-0.8-6.1-2.1-12.1-3-18.1
		c-0.3-1.9-0.5-3.8-0.5-5.7c-0.2-16.2-0.7-32.3-0.5-48.5c0.1-8.8,1.3-17.6,1.8-26.3c0.2-4.2,0.1-8.5-0.1-12.7
		c-0.5-13.2-1.5-26.4-1.5-39.7c0-15.5,0.8-31.1,1.4-46.6C-188.3,315.1-187.3,312.5-186.7,309.7z M686,321.3
		c-10.7-0.4-23.7-0.9-33.7-1c-13.6-0.1-27.3,0.5-40.9,0.3c-22.6-0.3-45.1-1.1-67.7-1.4c-19.9-0.3-39.8-0.2-59.7-0.3
		c-23.7,0-47.4,0-71.1,0c-8.3,0-16.5-0.5-24.7-0.5c-10.2,0-20.4,0.5-30.6,0.6c-21.4,0.2-42.9,0.4-64.3,0.5
		c-63.5,0.5-127.1,2.6-190.6,0.8c-11.6-0.3-23.1-0.4-34.7-0.5c-14.9-0.1-29.7-0.2-44.6-0.3c-2.5,0-5,0-7.6,0.1
		c-23.8,0.1-47.7,0.2-71.5,0.3c-3.3,0-6.6,0.3-9.8,0c-20.7-2-41.5-3-62.4-2.6c-2.8,0.1-5.7,0.5-8.3,0c-14.7-3.1-29.6-0.7-45-1.3
		c-0.4,2.1-1,3.9-1.1,5.7c-0.1,4,0.3,7.8,0.2,11.6c-0.3,12.8-1.1,25.6-1,38.4c0.1,12.5,1.4,24.9,1.5,37.4
		c0.2,20.2-0.2,40.4-0.3,60.5c0,6,2.2,36,2.1,45.5c3.8,0.5,7.2,1.3,10.7,1.4c15.6,0.2,31.2,0.1,46.8,0.1c6.8,0,13.6-0.6,20.4-0.6
		c23.1,0.1,46.2,0.3,69.4,0.4c10.3,0,20.7-0.5,31-0.3c19.1,0.4,38.2,1,57.3,1.6c10.7,0.3,21.5,0.9,32.2,1.2
		c9.5,0.3,19.1,0.7,28.6,0.7c9,0.1,18.1-0.3,27.1-0.2c14.9,0.2,29.9,0.7,44.8,0.9c16.6,0.2,33.2,0.2,49.7,0.4
		c11.6,0.1,23.1,0.4,34.7,0.4c15.6,0.1,31.2,0,46.8,0c29,0,57.9,0,86.9-0.1c7.8,0,15.6-0.3,23.4-0.3c20.3,0,40.6,0.1,60.9,0.1
		c18.6,0.1,37.1,0.1,55.7,0.2c27.6,0.2,55.2,0.4,82.8,0.6c3,0,6,0.3,9,0.4c11.8,0.5,23.6,1.1,35.4,1.4c4.6,0.1,9.3-0.3,14.3-0.5
		c0-3.5-0.2-29.4-0.4-39.5c-0.4-21.1,0-42.1,0.2-63.2c0.1-11.1,0.2-22.2,0.5-33.3c0.1-4,0-22.2-0.2-27.4c-0.1-2.6,0-18.6-0.5-23.9
		C687.1,330.9,686.6,326.2,686,321.3z"/>
	<g>
		<g class="st0">
			<path d="M-124.9,508h-11.8c-0.4,0-0.7-0.1-1-0.4c-0.2-0.2-0.4-0.6-0.4-1v-19.3c0-0.4,0.1-0.7,0.4-1c0.2-0.2,0.6-0.4,1-0.4h11.8
				c0.4,0,0.8,0.1,1,0.4c0.2,0.2,0.4,0.6,0.4,1v2.3c0,0.4-0.1,0.8-0.4,1c-0.2,0.2-0.6,0.4-1,0.4h-7.7v3.3h7.2c0.4,0,0.8,0.1,1,0.4
				c0.2,0.2,0.4,0.6,0.4,1v2c0,0.4-0.1,0.7-0.4,1c-0.2,0.2-0.6,0.4-1,0.4h-7.2v4h7.7c0.4,0,0.8,0.1,1,0.4c0.2,0.2,0.4,0.6,0.4,1v2.3
				c0,0.4-0.1,0.7-0.4,1C-124.2,507.8-124.5,508-124.9,508z"/>
			<path d="M-122,503.4c-0.1-0.2-0.1-0.6-0.1-1.1c0-0.4,0.1-0.7,0.3-0.9s0.6-0.3,1.1-0.3h2.3c0.4,0,0.7,0.1,0.9,0.2
				c0.2,0.1,0.3,0.3,0.4,0.6c0.2,0.5,0.3,0.8,0.3,0.9c0.3,0.5,0.6,0.8,1.1,1c0.5,0.2,1.1,0.3,2,0.3c1,0,1.8-0.1,2.4-0.4
				c0.5-0.3,0.8-0.7,0.8-1.3v-0.1c0-0.5-0.1-0.9-0.3-1.2c-0.2-0.3-0.6-0.5-1.2-0.6c-0.6-0.2-1.6-0.3-2.9-0.5c-0.8-0.1-1.4-0.2-2-0.2
				c-0.6-0.1-1.1-0.2-1.6-0.3c-0.5-0.1-1-0.3-1.4-0.5s-0.7-0.4-1-0.7c-0.3-0.3-0.6-0.6-0.7-1c-0.2-0.4-0.3-0.8-0.4-1.3
				c-0.1-0.5-0.1-1-0.1-1.6v-0.1c0-2,0.7-3.5,2.1-4.5c1.4-1,3.5-1.5,6.4-1.5c2.2,0,4,0.3,5.4,1c1.4,0.7,2.3,1.7,2.7,3
				c0.2,0.6,0.2,1.1,0.3,1.5c0,0.4-0.1,0.7-0.3,0.9s-0.5,0.4-0.9,0.4h-2.5c-0.4,0-0.7-0.1-0.9-0.2c-0.2-0.1-0.4-0.3-0.5-0.7
				l-0.4-0.8c-0.5-0.8-1.5-1.2-3-1.2c-1.1,0-2,0.2-2.5,0.5c-0.5,0.3-0.8,0.8-0.8,1.4v0.1c0,0.4,0.1,0.8,0.3,1s0.6,0.4,1.3,0.6
				c0.6,0.1,1.6,0.3,2.9,0.4c1.4,0.1,2.5,0.3,3.4,0.5c0.9,0.2,1.6,0.6,2.2,1c0.6,0.5,1,1.1,1.3,1.8c0.2,0.7,0.4,1.6,0.4,2.7v0.2
				c0,2-0.7,3.4-2.1,4.3s-3.5,1.3-6.4,1.3c-2.4,0-4.4-0.4-5.7-1.1C-120.8,506.3-121.7,505.1-122,503.4z"/>
			<path d="M-98.1,494.6c0-2,0.4-3.6,1.3-4.6s2.3-1.6,4.3-1.6c2.3,0,4,0.7,5.1,2s1.6,3.4,1.6,6.3v2c0,2.9-0.5,5-1.6,6.3
				c-1,1.3-2.7,2-5.1,2c-2,0-3.4-0.5-4.3-1.5c-0.9-1-1.3-2.6-1.3-4.7v7.3c0,0.4-0.1,0.7-0.4,1c-0.2,0.2-0.6,0.4-1,0.4h-2.7
				c-0.4,0-0.7-0.1-1-0.4c-0.2-0.2-0.4-0.6-0.4-1v-18.1c0-0.4,0.1-0.7,0.4-1c0.2-0.2,0.6-0.4,1-0.4h2.7c0.4,0,0.7,0.1,1,0.4
				s0.4,0.6,0.4,1V494.6z M-94.7,502.7c0.8,0,1.5-0.1,2-0.4c0.5-0.3,0.9-0.8,1.1-1.5c0.2-0.7,0.4-1.8,0.4-3.1v-0.1
				c0-1.3-0.1-2.3-0.4-3s-0.6-1.2-1.1-1.5c-0.5-0.3-1.1-0.4-2-0.4c-0.5,0-1,0-1.3,0.1c-0.4,0.1-0.7,0.2-1.1,0.4s-0.6,0.5-0.8,0.9
				s-0.3,0.9-0.3,1.6v3.9c0,0.6,0.1,1.2,0.3,1.6s0.4,0.8,0.8,1s0.7,0.4,1.1,0.5C-95.6,502.7-95.2,502.7-94.7,502.7z"/>
			<path d="M-72.5,503.6c0,1.4-0.5,2.5-1.4,3.3c-0.9,0.8-2.4,1.2-4.4,1.2c-1.9,0-3.4-0.4-4.4-1.3c-1-0.9-1.5-2.1-1.5-3.8v-0.3
				c0-0.8,0.1-1.5,0.3-2.1c0.2-0.6,0.5-1.1,0.8-1.5c0.3-0.4,0.8-0.8,1.3-1.1c0.5-0.3,1.1-0.5,1.6-0.7s1.2-0.3,1.9-0.4
				c0.7-0.1,1.4-0.2,1.9-0.3s1.2-0.1,2-0.2c0.7-0.1,1.3-0.2,1.8-0.3v-0.5c0-1-0.2-1.7-0.7-2.1c-0.4-0.4-1.2-0.5-2.3-0.5
				c-0.7,0-1.2,0.1-1.6,0.2c-0.4,0.2-0.6,0.4-0.7,0.7c-0.1,0.1-0.2,0.3-0.3,0.5c-0.1,0.6-0.5,0.9-1.3,0.9h-2.8
				c-0.9,0-1.3-0.4-1.3-1.3c0-0.3,0-0.6,0.1-0.7c0.2-1.5,0.9-2.7,2.3-3.6c1.3-0.8,3.2-1.3,5.5-1.3c3,0,5.2,0.6,6.5,1.7
				c1.3,1.1,2,2.9,2,5.4v11.1c0,0.4-0.1,0.8-0.4,1c-0.2,0.2-0.6,0.4-1,0.4h-2.7c-0.4,0-0.8-0.1-1-0.4c-0.2-0.2-0.4-0.6-0.4-1V503.6z
				 M-76.3,504.7c0.6,0,1.1,0,1.5-0.1s0.8-0.1,1.2-0.3c0.4-0.1,0.6-0.3,0.8-0.6c0.2-0.3,0.3-0.6,0.3-1v-3.5c-0.1,0-0.4,0.1-0.7,0.1
				c-0.8,0.1-1.4,0.2-1.8,0.3c-0.4,0.1-0.8,0.2-1.4,0.3s-0.9,0.2-1.1,0.4c-0.2,0.1-0.5,0.3-0.7,0.5c-0.3,0.2-0.4,0.4-0.5,0.7
				c-0.1,0.2-0.1,0.5-0.1,0.9v0.2C-78.8,504-77.9,504.7-76.3,504.7z"/>
			<path d="M-52.7,494.2v-4.4c0-0.4,0.1-0.8,0.4-1c0.2-0.2,0.6-0.4,1-0.4h2.7c0.4,0,0.7,0.1,1,0.4c0.2,0.2,0.4,0.6,0.4,1v14.6
				c0,1.7-0.7,3-2.1,3.8c-1.4,0.8-3.6,1.2-6.7,1.2c-4.7,0-7.4-0.9-8.2-2.7c-0.1-0.4-0.2-0.7-0.2-1.1c0-0.7,0.4-1.1,1.2-1.1h2.5
				c0.4,0,0.7,0.1,0.8,0.2s0.4,0.3,0.6,0.7c0.1,0.2,0.2,0.4,0.4,0.6c0.2,0.3,0.6,0.4,1,0.5c0.5,0.1,1.1,0.1,1.9,0.1
				c1.2,0,2.1-0.2,2.6-0.5c0.5-0.3,0.8-1,0.8-1.9v-5.9c0,2-0.4,3.4-1.3,4.4s-2.3,1.5-4.3,1.5c-2.4,0-4.1-0.6-5.1-1.8
				c-1-1.2-1.6-3.1-1.6-5.8v-0.7c0-2.6,0.5-4.5,1.6-5.7c1-1.2,2.8-1.9,5.1-1.9c2,0,3.4,0.5,4.3,1.5
				C-53.2,490.9-52.7,492.3-52.7,494.2z M-59.6,496.2v0.3c0,1.5,0.3,2.5,0.8,3.1c0.5,0.6,1.4,0.9,2.7,0.9c2.3,0,3.4-0.9,3.4-2.8
				v-2.7c0-1.8-1.1-2.7-3.4-2.7c-1.2,0-2.1,0.3-2.6,0.9C-59.4,493.7-59.6,494.7-59.6,496.2z"/>
			<path d="M-39.8,496.1c0-2.7,0.4-4.6,1.3-5.8c0.9-1.2,2.3-1.8,4.3-1.8c2.1,0,3.7,0.6,4.6,1.7s1.5,3,1.5,5.7v10.8
				c0,0.4-0.1,0.7-0.4,1c-0.2,0.2-0.6,0.4-1,0.4h-2.7c-0.4,0-0.7-0.1-1-0.4c-0.2-0.2-0.4-0.6-0.4-1v-9.8c0-1.1-0.2-1.9-0.6-2.5
				c-0.4-0.5-1.2-0.8-2.2-0.8c-0.5,0-1,0-1.3,0.2c-0.4,0.1-0.7,0.3-1.1,0.5c-0.3,0.3-0.6,0.6-0.8,1.2c-0.2,0.5-0.3,1.2-0.3,1.9v9.2
				c0,0.4-0.1,0.7-0.4,1c-0.2,0.2-0.6,0.4-1,0.4h-2.7c-0.4,0-0.7-0.1-1-0.4c-0.2-0.2-0.4-0.6-0.4-1v-16.7c0-0.4,0.1-0.7,0.4-1
				c0.2-0.2,0.6-0.4,1-0.4h2.7c0.4,0,0.7,0.1,1,0.4s0.4,0.6,0.4,1V496.1z"/>
			<path d="M-8.9,503.4c-0.4,1.5-1.3,2.6-2.8,3.4c-1.5,0.8-3.4,1.2-5.8,1.2c-3,0-5.2-0.8-6.7-2.3c-1.4-1.5-2.2-3.8-2.2-6.8v-1.7
				c0-3,0.7-5.2,2.2-6.7c1.5-1.5,3.7-2.2,6.8-2.2c2.9,0,5.1,0.6,6.5,1.9c1.5,1.3,2.2,3.1,2.2,5.5v1.9c0,0.4-0.1,0.7-0.3,0.9
				c-0.2,0.2-0.5,0.3-0.9,0.3h-11.1c0,1.7,0.3,2.9,0.8,3.6c0.5,0.7,1.4,1,2.6,1c0.9,0,1.6-0.1,2.1-0.3c0.5-0.2,0.9-0.5,1.1-1
				c0-0.1,0.1-0.3,0.2-0.5c0.1-0.5,0.3-0.8,0.5-1c0.2-0.2,0.6-0.3,1-0.3h2.6c0.9,0,1.3,0.5,1.3,1.4C-8.7,502.5-8.7,503-8.9,503.4z
				 M-17.3,492.8c-1.1,0-1.9,0.2-2.5,0.7s-0.9,1.3-1,2.5h6.8V496c0-1.2-0.3-2-0.8-2.5S-16.2,492.8-17.3,492.8z"/>
		</g>
	</g>
	<g>
		<g class="st0">
			<path d="M56.3,508h-2.7c-0.4,0-0.8-0.1-1-0.4c-0.2-0.2-0.4-0.6-0.4-1v-19.3c0-0.4,0.1-0.8,0.4-1c0.2-0.2,0.6-0.4,1-0.4h7.2
				c1.6,0,2.9,0.1,3.9,0.3c1,0.2,1.8,0.6,2.5,1.2c0.6,0.5,1.1,1.2,1.3,2c0.2,0.8,0.4,1.9,0.4,3.2v0.6c0,2.8-1,4.7-2.9,5.8l2.7,7.3
				c0.2,0.4,0.1,0.8-0.1,1.1s-0.5,0.5-1,0.5h-3.1c-0.7,0-1.1-0.3-1.3-1l-2.4-6.9h-3.2v6.5c0,0.4-0.1,0.8-0.4,1
				C57,507.8,56.7,508,56.3,508z M60.8,490.7h-3.2v5h3.2c1,0,1.7-0.2,2.1-0.5c0.4-0.3,0.6-0.9,0.6-1.8v-0.5c0-0.9-0.2-1.5-0.6-1.8
				C62.5,490.9,61.8,490.7,60.8,490.7z"/>
			<path d="M87.9,503.4c-0.4,1.5-1.3,2.6-2.8,3.4c-1.5,0.8-3.4,1.2-5.8,1.2c-3,0-5.2-0.8-6.7-2.3c-1.4-1.5-2.2-3.8-2.2-6.8v-1.7
				c0-3,0.7-5.2,2.2-6.7c1.5-1.5,3.7-2.2,6.8-2.2c2.9,0,5.1,0.6,6.5,1.9c1.5,1.3,2.2,3.1,2.2,5.5v1.9c0,0.4-0.1,0.7-0.3,0.9
				c-0.2,0.2-0.5,0.3-0.9,0.3H75.8c0,1.7,0.3,2.9,0.8,3.6c0.5,0.7,1.4,1,2.6,1c0.9,0,1.6-0.1,2.1-0.3c0.5-0.2,0.9-0.5,1.1-1
				c0-0.1,0.1-0.3,0.2-0.5c0.1-0.5,0.3-0.8,0.5-1c0.2-0.2,0.6-0.3,1-0.3h2.6c0.9,0,1.3,0.5,1.3,1.4C88.1,502.5,88,503,87.9,503.4z
				 M79.4,492.8c-1.1,0-1.9,0.2-2.5,0.7s-0.9,1.3-1,2.5h6.8V496c0-1.2-0.3-2-0.8-2.5S80.6,492.8,79.4,492.8z M81.5,486.8l-0.6,0.5
				c-0.2,0.1-0.3,0.2-0.4,0.2c-0.1,0-0.3,0-0.5,0h-1.8c-0.2,0-0.4-0.1-0.5-0.2c-0.1-0.1-0.1-0.3,0-0.6l0.1-0.2
				c0.1-0.3,0.2-0.4,0.4-0.5c0.1-0.1,0.3-0.1,0.6-0.1h2.3c0.3,0,0.5,0.1,0.6,0.3C81.8,486.4,81.7,486.6,81.5,486.8z"/>
			<path d="M95.5,494.6c0-2,0.4-3.6,1.3-4.6s2.3-1.6,4.3-1.6c2.3,0,4,0.7,5.1,2s1.6,3.4,1.6,6.3v2c0,2.9-0.5,5-1.6,6.3
				c-1,1.3-2.7,2-5.1,2c-2,0-3.4-0.5-4.3-1.5c-0.9-1-1.3-2.6-1.3-4.7v7.3c0,0.4-0.1,0.7-0.4,1c-0.2,0.2-0.6,0.4-1,0.4h-2.7
				c-0.4,0-0.7-0.1-1-0.4c-0.2-0.2-0.4-0.6-0.4-1v-18.1c0-0.4,0.1-0.7,0.4-1c0.2-0.2,0.6-0.4,1-0.4h2.7c0.4,0,0.7,0.1,1,0.4
				s0.4,0.6,0.4,1V494.6z M98.9,502.7c0.8,0,1.5-0.1,2-0.4c0.5-0.3,0.9-0.8,1.1-1.5c0.2-0.7,0.4-1.8,0.4-3.1v-0.1
				c0-1.3-0.1-2.3-0.4-3s-0.6-1.2-1.1-1.5c-0.5-0.3-1.1-0.4-2-0.4c-0.5,0-1,0-1.3,0.1c-0.4,0.1-0.7,0.2-1.1,0.4s-0.6,0.5-0.8,0.9
				s-0.3,0.9-0.3,1.6v3.9c0,0.6,0.1,1.2,0.3,1.6s0.4,0.8,0.8,1s0.7,0.4,1.1,0.5C97.9,502.7,98.4,502.7,98.9,502.7z"/>
			<path d="M113.4,505v1.6c0,0.4-0.1,0.7-0.4,1c-0.2,0.2-0.6,0.4-1,0.4h-1.8c-0.4,0-0.7-0.1-1-0.4c-0.2-0.2-0.4-0.6-0.4-1V505
				c0-0.4,0.1-0.7,0.4-1s0.6-0.4,1-0.4h1.8c0.4,0,0.7,0.1,1,0.4C113.2,504.3,113.4,504.6,113.4,505z"/>
			<path d="M127.7,491.3h-4.2c-0.4,0-0.7-0.1-1-0.4c-0.2-0.2-0.4-0.6-0.4-1v-2.7c0-0.4,0.1-0.7,0.4-1c0.2-0.2,0.6-0.4,1-0.4h13.8
				c0.4,0,0.8,0.1,1,0.4c0.2,0.2,0.4,0.6,0.4,1v2.7c0,0.4-0.1,0.8-0.4,1c-0.2,0.2-0.6,0.4-1,0.4H133v15.3c0,0.4-0.1,0.8-0.4,1
				c-0.2,0.2-0.6,0.4-1,0.4H129c-0.4,0-0.7-0.1-1-0.4c-0.2-0.2-0.4-0.6-0.4-1V491.3z"/>
			<path d="M147.1,508.1c-3,0-5.2-0.8-6.7-2.3c-1.4-1.5-2.2-3.8-2.2-6.8v-1.7c0-3,0.7-5.2,2.2-6.7c1.4-1.5,3.7-2.3,6.7-2.3
				c2.4,0,4.3,0.5,5.8,1.4s2.4,2.2,2.8,3.9c0.1,0.6,0.2,1.2,0.2,1.7c0,0.8-0.4,1.2-1.3,1.2h-2.8c-0.4,0-0.7-0.1-0.9-0.2
				c-0.2-0.1-0.3-0.4-0.4-0.8c0-0.3-0.1-0.5-0.3-0.9c-0.2-0.6-0.6-1-1.1-1.2s-1.2-0.3-2.1-0.3c-0.8,0-1.5,0.1-2,0.4
				c-0.5,0.3-0.9,0.7-1.1,1.4c-0.3,0.6-0.4,1.5-0.4,2.7v1.2c0,1.7,0.3,2.8,0.8,3.5s1.4,0.9,2.6,0.9c0.9,0,1.6-0.1,2.1-0.3
				c0.5-0.2,0.9-0.6,1.1-1.1c0.2-0.5,0.3-0.8,0.4-1c0.1-0.3,0.2-0.6,0.4-0.7c0.2-0.1,0.5-0.2,0.9-0.2h2.7c0.8,0,1.3,0.4,1.3,1.3
				c0,0.6,0,1.1-0.1,1.5c-0.3,1.7-1.3,3.1-2.8,4C151.5,507.6,149.5,508.1,147.1,508.1z"/>
			<path d="M163.3,487.3v8.8c0-2.7,0.4-4.6,1.3-5.8c0.9-1.2,2.3-1.8,4.3-1.8c2.1,0,3.7,0.6,4.6,1.7s1.5,3,1.5,5.7v10.8
				c0,0.4-0.1,0.7-0.4,1c-0.2,0.2-0.6,0.4-1,0.4h-2.7c-0.4,0-0.7-0.1-1-0.4c-0.2-0.2-0.4-0.6-0.4-1v-9.8c0-1.1-0.2-1.9-0.6-2.5
				c-0.4-0.5-1.2-0.8-2.2-0.8c-0.5,0-1,0-1.3,0.2c-0.4,0.1-0.7,0.3-1.1,0.5c-0.3,0.3-0.6,0.6-0.8,1.2c-0.2,0.5-0.3,1.2-0.3,1.9v9.2
				c0,0.4-0.1,0.7-0.4,1c-0.2,0.2-0.6,0.4-1,0.4h-2.7c-0.4,0-0.7-0.1-1-0.4c-0.2-0.2-0.4-0.6-0.4-1v-19.3c0-0.4,0.1-0.7,0.4-1
				c0.2-0.2,0.6-0.4,1-0.4h2.7c0.4,0,0.7,0.1,1,0.4C163.1,486.6,163.3,486.9,163.3,487.3z"/>
			<path d="M194.3,503.4c-0.4,1.5-1.3,2.6-2.8,3.4c-1.5,0.8-3.4,1.2-5.8,1.2c-3,0-5.2-0.8-6.7-2.3c-1.4-1.5-2.2-3.8-2.2-6.8v-1.7
				c0-3,0.7-5.2,2.2-6.7c1.5-1.5,3.7-2.2,6.8-2.2c2.9,0,5.1,0.6,6.5,1.9c1.5,1.3,2.2,3.1,2.2,5.5v1.9c0,0.4-0.1,0.7-0.3,0.9
				c-0.2,0.2-0.5,0.3-0.9,0.3h-11.1c0,1.7,0.3,2.9,0.8,3.6c0.5,0.7,1.4,1,2.6,1c0.9,0,1.6-0.1,2.1-0.3c0.5-0.2,0.9-0.5,1.1-1
				c0-0.1,0.1-0.3,0.2-0.5c0.1-0.5,0.3-0.8,0.5-1c0.2-0.2,0.6-0.3,1-0.3h2.6c0.9,0,1.3,0.5,1.3,1.4
				C194.4,502.5,194.4,503,194.3,503.4z M185.8,492.8c-1.1,0-1.9,0.2-2.5,0.7s-0.9,1.3-1,2.5h6.8V496c0-1.2-0.3-2-0.8-2.5
				S186.9,492.8,185.8,492.8z M186.7,487.6H185c-0.2,0-0.4,0-0.5,0c-0.1,0-0.2-0.1-0.4-0.2l-0.6-0.5c-0.2-0.2-0.3-0.4-0.2-0.6
				c0.1-0.2,0.3-0.3,0.6-0.3h2.3c0.3,0,0.5,0,0.6,0.1s0.3,0.2,0.4,0.5l0.1,0.2c0.1,0.3,0.1,0.5,0,0.6
				C187.2,487.6,187,487.6,186.7,487.6z"/>
			<path d="M208.7,494.6v-2.8c0-0.8,0.4-1.2,1.1-1.4c1.3-0.4,2.4-0.9,3.1-1.6c0.1-0.2,0.3-0.3,0.6-0.3c0.4,0,0.6,0.2,0.6,0.5v19
				c0,0.4-0.1,0.8-0.4,1c-0.2,0.2-0.6,0.4-1,0.4h-2.7c-0.4,0-0.8-0.1-1-0.4c-0.2-0.2-0.4-0.6-0.4-1v-7.2c0,2.1-0.4,3.7-1.3,4.7
				c-0.9,1-2.3,1.5-4.3,1.5c-2.4,0-4.1-0.7-5.1-2c-1-1.3-1.6-3.4-1.6-6.3v-2c0-2.8,0.5-4.9,1.6-6.3c1-1.4,2.8-2,5.1-2
				c2,0,3.4,0.5,4.3,1.6S208.7,492.6,208.7,494.6z M201.8,497.6v0.1c0,1.3,0.1,2.3,0.4,3.1c0.3,0.7,0.6,1.3,1.1,1.5
				c0.5,0.3,1.1,0.4,2,0.4c0.5,0,1,0,1.3-0.1c0.4-0.1,0.7-0.2,1.1-0.5s0.6-0.5,0.8-1c0.2-0.4,0.3-1,0.3-1.6v-3.9
				c0-0.5-0.1-0.9-0.2-1.3c-0.1-0.4-0.3-0.7-0.5-0.9c-0.2-0.2-0.5-0.4-0.8-0.5c-0.3-0.1-0.6-0.2-0.9-0.3c-0.3,0-0.7-0.1-1.1-0.1
				c-0.8,0-1.5,0.1-2,0.4c-0.5,0.3-0.9,0.8-1.1,1.5C202,495.3,201.8,496.3,201.8,497.6z"/>
			<path d="M227.9,500.4c0,2.7-0.4,4.6-1.3,5.8c-0.9,1.2-2.3,1.8-4.3,1.8c-2.1,0-3.7-0.6-4.6-1.7c-1-1.2-1.5-3-1.5-5.7v-10.8
				c0-0.4,0.1-0.7,0.4-1c0.2-0.2,0.6-0.4,1-0.4h2.7c0.4,0,0.7,0.1,1,0.4s0.4,0.6,0.4,1v9.7c0,1.1,0.2,1.9,0.6,2.5
				c0.4,0.5,1.2,0.8,2.2,0.8c0.5,0,1-0.1,1.3-0.2c0.4-0.1,0.7-0.3,1.1-0.5s0.6-0.7,0.8-1.2c0.2-0.5,0.3-1.2,0.3-1.9v-9.2
				c0-0.4,0.1-0.8,0.4-1c0.2-0.2,0.6-0.4,1-0.4h2.7c0.4,0,0.7,0.1,1,0.4s0.4,0.6,0.4,1v16.7c0,0.4-0.1,0.7-0.4,1
				c-0.2,0.2-0.6,0.4-1,0.4h-2.7c-0.4,0-0.7-0.1-1-0.4c-0.2-0.2-0.4-0.6-0.4-1V500.4z"/>
			<path d="M252.7,503.4c-0.4,1.5-1.3,2.6-2.8,3.4c-1.5,0.8-3.4,1.2-5.8,1.2c-3,0-5.2-0.8-6.7-2.3c-1.4-1.5-2.2-3.8-2.2-6.8v-1.7
				c0-3,0.7-5.2,2.2-6.7c1.5-1.5,3.7-2.2,6.8-2.2c2.9,0,5.1,0.6,6.5,1.9c1.5,1.3,2.2,3.1,2.2,5.5v1.9c0,0.4-0.1,0.7-0.3,0.9
				c-0.2,0.2-0.5,0.3-0.9,0.3h-11.1c0,1.7,0.3,2.9,0.8,3.6c0.5,0.7,1.4,1,2.6,1c0.9,0,1.6-0.1,2.1-0.3c0.5-0.2,0.9-0.5,1.1-1
				c0-0.1,0.1-0.3,0.2-0.5c0.1-0.5,0.3-0.8,0.5-1c0.2-0.2,0.6-0.3,1-0.3h2.6c0.9,0,1.3,0.5,1.3,1.4
				C252.9,502.5,252.8,503,252.7,503.4z M244.2,492.8c-1.1,0-1.9,0.2-2.5,0.7s-0.9,1.3-1,2.5h6.8V496c0-1.2-0.3-2-0.8-2.5
				S245.4,492.8,244.2,492.8z"/>
		</g>
	</g>
	<g>
		<g class="st0">
			<path d="M308.3,491.3h-4.2c-0.4,0-0.7-0.1-1-0.4c-0.2-0.2-0.4-0.6-0.4-1v-2.7c0-0.4,0.1-0.7,0.4-1c0.2-0.2,0.6-0.4,1-0.4h13.8
				c0.4,0,0.8,0.1,1,0.4c0.2,0.2,0.4,0.6,0.4,1v2.7c0,0.4-0.1,0.8-0.4,1c-0.2,0.2-0.6,0.4-1,0.4h-4.2v15.3c0,0.4-0.1,0.8-0.4,1
				c-0.2,0.2-0.6,0.4-1,0.4h-2.7c-0.4,0-0.7-0.1-1-0.4c-0.2-0.2-0.4-0.6-0.4-1V491.3z"/>
			<path d="M332.9,500.4c0,2.7-0.4,4.6-1.3,5.8c-0.9,1.2-2.3,1.8-4.3,1.8c-2.1,0-3.7-0.6-4.6-1.7c-1-1.2-1.5-3-1.5-5.7v-10.8
				c0-0.4,0.1-0.7,0.4-1c0.2-0.2,0.6-0.4,1-0.4h2.7c0.4,0,0.7,0.1,1,0.4s0.4,0.6,0.4,1v9.7c0,1.1,0.2,1.9,0.6,2.5
				c0.4,0.5,1.2,0.8,2.2,0.8c0.5,0,1-0.1,1.3-0.2c0.4-0.1,0.7-0.3,1.1-0.5s0.6-0.7,0.8-1.2c0.2-0.5,0.3-1.2,0.3-1.9v-9.2
				c0-0.4,0.1-0.8,0.4-1c0.2-0.2,0.6-0.4,1-0.4h2.7c0.4,0,0.7,0.1,1,0.4c0.2,0.2,0.4,0.6,0.4,1v16.7c0,0.4-0.1,0.7-0.4,1
				c-0.2,0.2-0.6,0.4-1,0.4h-2.7c-0.4,0-0.7-0.1-1-0.4c-0.2-0.2-0.4-0.6-0.4-1V500.4z"/>
			<path d="M345.7,489.9v6.1c0-2.6,0.4-4.6,1.3-5.8s2.2-1.8,4.2-1.8c0.4,0,0.7,0.1,0.8,0.3c0.2,0.2,0.3,0.6,0.3,1v3.2
				c0,1.1-0.6,1.6-1.7,1.5c-0.6-0.1-1.1-0.1-1.7,0c-0.6,0.1-1.1,0.2-1.6,0.4c-0.5,0.2-0.8,0.5-1.1,0.9c-0.3,0.4-0.4,0.9-0.4,1.6v9.2
				c0,0.4-0.1,0.8-0.4,1c-0.2,0.2-0.6,0.4-1,0.4h-2.7c-0.4,0-0.8-0.1-1-0.4c-0.2-0.2-0.4-0.6-0.4-1v-16.7c0-0.4,0.1-0.8,0.4-1
				c0.2-0.2,0.6-0.4,1-0.4h2.7c0.4,0,0.7,0.1,1,0.4S345.7,489.5,345.7,489.9z"/>
			<path d="M365.8,494.6v-2.8c0-0.8,0.4-1.2,1.1-1.4c1.3-0.4,2.4-0.9,3.1-1.6c0.1-0.2,0.3-0.3,0.6-0.3c0.4,0,0.6,0.2,0.6,0.5v19
				c0,0.4-0.1,0.8-0.4,1c-0.2,0.2-0.6,0.4-1,0.4h-2.7c-0.4,0-0.8-0.1-1-0.4c-0.2-0.2-0.4-0.6-0.4-1v-7.2c0,2.1-0.4,3.7-1.3,4.7
				c-0.9,1-2.3,1.5-4.3,1.5c-2.4,0-4.1-0.7-5.1-2c-1-1.3-1.6-3.4-1.6-6.3v-2c0-2.8,0.5-4.9,1.6-6.3c1-1.4,2.8-2,5.1-2
				c2,0,3.4,0.5,4.3,1.6C365.3,491,365.8,492.6,365.8,494.6z M358.9,497.6v0.1c0,1.3,0.1,2.3,0.4,3.1c0.3,0.7,0.6,1.3,1.1,1.5
				c0.5,0.3,1.1,0.4,2,0.4c0.5,0,1,0,1.3-0.1c0.4-0.1,0.7-0.2,1.1-0.5s0.6-0.5,0.8-1c0.2-0.4,0.3-1,0.3-1.6v-3.9
				c0-0.5-0.1-0.9-0.2-1.3c-0.1-0.4-0.3-0.7-0.5-0.9c-0.2-0.2-0.5-0.4-0.8-0.5c-0.3-0.1-0.6-0.2-0.9-0.3c-0.3,0-0.7-0.1-1.1-0.1
				c-0.8,0-1.5,0.1-2,0.4c-0.5,0.3-0.9,0.8-1.1,1.5C359,495.3,358.9,496.3,358.9,497.6z"/>
			<path d="M384.9,500.4c0,2.7-0.4,4.6-1.3,5.8c-0.9,1.2-2.3,1.8-4.3,1.8c-2.1,0-3.7-0.6-4.6-1.7c-1-1.2-1.5-3-1.5-5.7v-10.8
				c0-0.4,0.1-0.7,0.4-1c0.2-0.2,0.6-0.4,1-0.4h2.7c0.4,0,0.7,0.1,1,0.4s0.4,0.6,0.4,1v9.7c0,1.1,0.2,1.9,0.6,2.5
				c0.4,0.5,1.2,0.8,2.2,0.8c0.5,0,1-0.1,1.3-0.2c0.4-0.1,0.7-0.3,1.1-0.5s0.6-0.7,0.8-1.2c0.2-0.5,0.3-1.2,0.3-1.9v-9.2
				c0-0.4,0.1-0.8,0.4-1c0.2-0.2,0.6-0.4,1-0.4h2.7c0.4,0,0.7,0.1,1,0.4c0.2,0.2,0.4,0.6,0.4,1v16.7c0,0.4-0.1,0.7-0.4,1
				c-0.2,0.2-0.6,0.4-1,0.4h-2.7c-0.4,0-0.7-0.1-1-0.4c-0.2-0.2-0.4-0.6-0.4-1V500.4z"/>
			<path d="M396.8,487.7h-3.4c-0.7,0-1-0.3-1-1v-0.1c0-0.7,0.3-1,1-1h3.4c0.7,0,1,0.3,1,1v0.1C397.8,487.3,397.4,487.7,396.8,487.7z
				 M396.4,508h-2.7c-0.4,0-0.7-0.1-1-0.4c-0.2-0.2-0.4-0.6-0.4-1v-16.7c0-0.4,0.1-0.7,0.4-1c0.2-0.2,0.6-0.4,1-0.4h2.7
				c0.4,0,0.7,0.1,1,0.4s0.4,0.6,0.4,1v16.7c0,0.4-0.1,0.7-0.4,1C397.2,507.8,396.8,508,396.4,508z"/>
			<path d="M417.2,503.4c-0.4,1.5-1.3,2.6-2.8,3.4c-1.5,0.8-3.4,1.2-5.8,1.2c-3,0-5.2-0.8-6.7-2.3c-1.4-1.5-2.2-3.8-2.2-6.8v-1.7
				c0-3,0.7-5.2,2.2-6.7c1.5-1.5,3.7-2.2,6.8-2.2c2.9,0,5.1,0.6,6.5,1.9c1.5,1.3,2.2,3.1,2.2,5.5v1.9c0,0.4-0.1,0.7-0.3,0.9
				c-0.2,0.2-0.5,0.3-0.9,0.3h-11.1c0,1.7,0.3,2.9,0.8,3.6c0.5,0.7,1.4,1,2.6,1c0.9,0,1.6-0.1,2.1-0.3c0.5-0.2,0.9-0.5,1.1-1
				c0-0.1,0.1-0.3,0.2-0.5c0.1-0.5,0.3-0.8,0.5-1c0.2-0.2,0.6-0.3,1-0.3h2.6c0.9,0,1.3,0.5,1.3,1.4
				C417.4,502.5,417.3,503,417.2,503.4z M408.7,492.8c-1.1,0-1.9,0.2-2.5,0.7s-0.9,1.3-1,2.5h6.8V496c0-1.2-0.3-2-0.8-2.5
				S409.9,492.8,408.7,492.8z"/>
		</g>
	</g>
	<g>
		<g class="st0">
			<path d="M513,508.1c-3.4,0-5.9-0.8-7.5-2.3c-1.6-1.5-2.3-4-2.3-7.5v-2.8c0-6.4,3.3-9.6,9.8-9.6c6,0,9.3,2.5,9.7,7.6
				c0,0.1,0,0.2,0,0.3c0,0.2,0,0.3,0,0.3c0,0.4-0.1,0.7-0.3,0.9c-0.2,0.2-0.5,0.3-0.9,0.3h-2.9c-0.4,0-0.7-0.1-0.9-0.3
				s-0.3-0.5-0.4-0.9c-0.1-0.4-0.1-0.6-0.1-0.6c-0.2-1-0.7-1.8-1.4-2.2c-0.7-0.5-1.7-0.7-2.9-0.7c-1,0-1.9,0.2-2.5,0.4
				c-0.6,0.3-1.1,0.8-1.4,1.6s-0.5,1.8-0.5,3.1v2.4c0,1.8,0.3,3.1,1,3.9c0.7,0.8,1.8,1.1,3.4,1.1c1.3,0,2.3-0.2,3-0.7
				c0.7-0.5,1.1-1.4,1.3-2.6c0-0.1,0.1-0.3,0.1-0.5c0.1-0.8,0.5-1.2,1.3-1.2h2.9c0.4,0,0.7,0.1,0.9,0.3c0.2,0.2,0.3,0.5,0.3,0.9
				l-0.1,0.6c-0.2,2.8-1.1,4.8-2.7,6.1S516.1,508.1,513,508.1z"/>
			<path d="M530.2,489.9v6.1c0-2.6,0.4-4.6,1.3-5.8s2.2-1.8,4.2-1.8c0.4,0,0.7,0.1,0.8,0.3c0.2,0.2,0.3,0.6,0.3,1v3.2
				c0,1.1-0.6,1.6-1.7,1.5c-0.6-0.1-1.1-0.1-1.7,0c-0.6,0.1-1.1,0.2-1.6,0.4c-0.5,0.2-0.8,0.5-1.1,0.9c-0.3,0.4-0.4,0.9-0.4,1.6v9.2
				c0,0.4-0.1,0.8-0.4,1c-0.2,0.2-0.6,0.4-1,0.4h-2.7c-0.4,0-0.8-0.1-1-0.4c-0.2-0.2-0.4-0.6-0.4-1v-16.7c0-0.4,0.1-0.8,0.4-1
				c0.2-0.2,0.6-0.4,1-0.4h2.7c0.4,0,0.7,0.1,1,0.4S530.2,489.5,530.2,489.9z"/>
			<path d="M555.5,497.3v1.7c0,2.9-0.8,5.2-2.3,6.7c-1.5,1.5-3.7,2.3-6.6,2.3c-3,0-5.2-0.8-6.7-2.3c-1.4-1.5-2.2-3.8-2.2-6.8v-1.7
				c0-3,0.7-5.2,2.2-6.7c1.4-1.5,3.7-2.3,6.7-2.3c3,0,5.2,0.8,6.7,2.3C554.7,492.1,555.5,494.4,555.5,497.3z M550.1,498.8v-1.2
				c0-1.1-0.1-2-0.4-2.7c-0.3-0.6-0.6-1.1-1.1-1.4c-0.5-0.3-1.2-0.4-2-0.4c-1.2,0-2.1,0.3-2.6,1c-0.5,0.6-0.8,1.8-0.8,3.5v1.2
				c0,1.7,0.3,2.8,0.8,3.5s1.4,0.9,2.6,0.9c0.8,0,1.5-0.1,2-0.4c0.5-0.2,0.9-0.7,1.1-1.3C549.9,500.8,550.1,499.9,550.1,498.8z"/>
			<path d="M568.6,503.6c0,1.4-0.5,2.5-1.4,3.3c-0.9,0.8-2.4,1.2-4.4,1.2c-1.9,0-3.4-0.4-4.4-1.3c-1-0.9-1.5-2.1-1.5-3.8v-0.3
				c0-0.8,0.1-1.5,0.3-2.1c0.2-0.6,0.5-1.1,0.8-1.5c0.3-0.4,0.8-0.8,1.3-1.1c0.5-0.3,1.1-0.5,1.6-0.7s1.2-0.3,1.9-0.4
				c0.7-0.1,1.4-0.2,1.9-0.3s1.2-0.1,2-0.2c0.7-0.1,1.3-0.2,1.8-0.3v-0.5c0-1-0.2-1.7-0.7-2.1c-0.4-0.4-1.2-0.5-2.3-0.5
				c-0.7,0-1.2,0.1-1.6,0.2c-0.4,0.2-0.6,0.4-0.7,0.7c-0.1,0.1-0.2,0.3-0.3,0.5c-0.1,0.6-0.5,0.9-1.3,0.9h-2.8
				c-0.9,0-1.3-0.4-1.3-1.3c0-0.3,0-0.6,0.1-0.7c0.2-1.5,0.9-2.7,2.3-3.6c1.3-0.8,3.2-1.3,5.5-1.3c3,0,5.2,0.6,6.5,1.7
				c1.3,1.1,2,2.9,2,5.4v11.1c0,0.4-0.1,0.8-0.4,1c-0.2,0.2-0.6,0.4-1,0.4H570c-0.4,0-0.8-0.1-1-0.4c-0.2-0.2-0.4-0.6-0.4-1V503.6z
				 M564.9,504.7c0.6,0,1.1,0,1.5-0.1c0.4-0.1,0.8-0.1,1.2-0.3c0.4-0.1,0.6-0.3,0.8-0.6c0.2-0.3,0.3-0.6,0.3-1v-3.5
				c-0.1,0-0.4,0.1-0.7,0.1c-0.8,0.1-1.4,0.2-1.8,0.3c-0.4,0.1-0.8,0.2-1.4,0.3s-0.9,0.2-1.1,0.4c-0.2,0.1-0.5,0.3-0.7,0.5
				c-0.3,0.2-0.4,0.4-0.5,0.7c-0.1,0.2-0.1,0.5-0.1,0.9v0.2C562.3,504,563.2,504.7,564.9,504.7z"/>
			<path d="M583,506.6c0,0.4-0.1,0.8-0.4,1c-0.2,0.2-0.6,0.4-1,0.4H579c-0.4,0-0.8-0.1-1-0.4c-0.2-0.2-0.4-0.6-0.4-1v-13.8h-1.4
				c-0.8,0-1.2-0.4-1.2-1.2v-1.9c0-0.8,0.4-1.2,1.2-1.2h1.4v-0.8c0-0.4,0.1-0.8,0.4-1c0.2-0.2,0.6-0.4,1-0.4h2.7
				c0.4,0,0.8,0.1,1,0.4c0.2,0.2,0.4,0.6,0.4,1v0.8h2.4c0.8,0,1.2,0.4,1.2,1.3v1.6c0,0.4-0.1,0.8-0.3,1c-0.2,0.2-0.5,0.4-0.9,0.4
				H583V506.6z"/>
			<path d="M592.7,487.7h-3.4c-0.7,0-1-0.3-1-1v-0.1c0-0.7,0.3-1,1-1h3.4c0.7,0,1,0.3,1,1v0.1C593.7,487.3,593.4,487.7,592.7,487.7z
				 M592.4,508h-2.7c-0.4,0-0.7-0.1-1-0.4c-0.2-0.2-0.4-0.6-0.4-1v-16.7c0-0.4,0.1-0.7,0.4-1c0.2-0.2,0.6-0.4,1-0.4h2.7
				c0.4,0,0.7,0.1,1,0.4s0.4,0.6,0.4,1v16.7c0,0.4-0.1,0.7-0.4,1C593.1,507.8,592.8,508,592.4,508z"/>
			<path d="M613.1,503.4c-0.4,1.5-1.3,2.6-2.8,3.4c-1.5,0.8-3.4,1.2-5.8,1.2c-3,0-5.2-0.8-6.7-2.3c-1.4-1.5-2.2-3.8-2.2-6.8v-1.7
				c0-3,0.7-5.2,2.2-6.7c1.5-1.5,3.7-2.2,6.8-2.2c2.9,0,5.1,0.6,6.5,1.9c1.5,1.3,2.2,3.1,2.2,5.5v1.9c0,0.4-0.1,0.7-0.3,0.9
				c-0.2,0.2-0.5,0.3-0.9,0.3h-11.1c0,1.7,0.3,2.9,0.8,3.6c0.5,0.7,1.4,1,2.6,1c0.9,0,1.6-0.1,2.1-0.3c0.5-0.2,0.9-0.5,1.1-1
				c0-0.1,0.1-0.3,0.2-0.5c0.1-0.5,0.3-0.8,0.5-1c0.2-0.2,0.6-0.3,1-0.3h2.6c0.9,0,1.3,0.5,1.3,1.4
				C613.3,502.5,613.3,503,613.1,503.4z M604.7,492.8c-1.1,0-1.9,0.2-2.5,0.7s-0.9,1.3-1,2.5h6.8V496c0-1.2-0.3-2-0.8-2.5
				S605.8,492.8,604.7,492.8z"/>
		</g>
	</g>
	<g class="st0">
		<path d="M261.6,306.5H249c-1.4,0-2.1-0.7-2.1-2.1v-32.7c0-1.4,0.7-2.1,2.1-2.1h12.5c5.9,0,10.3,1.4,13,4.1
			c2.7,2.7,4.1,6.8,4.1,12.3v4c0,5.5-1.4,9.6-4.1,12.3C271.8,305.1,267.5,306.5,261.6,306.5z M261.5,276.4h-7.3v23.4h7.3
			c1.8,0,3.2-0.2,4.4-0.5s2.2-0.9,3.1-1.7c0.8-0.8,1.5-1.9,1.9-3.3c0.4-1.4,0.6-3.1,0.6-5.1V287c0-2-0.2-3.8-0.6-5.1
			c-0.4-1.4-1-2.5-1.9-3.3c-0.8-0.8-1.9-1.4-3.1-1.7C264.7,276.5,263.2,276.4,261.5,276.4z"/>
	</g>
	<g id="République_Tchèque_1_">
		<path d="M114.1,409.8c-6.2,5.2-11.4,9.7-16.4,13.9c-6.3-0.7-9.8-4.6-13.4-8.7c-4.3-4.7-9.2-8.8-14.2-12.8c-4.8-3.9-6-9.7-2-14.4
			c7.1-8.6,14-17.4,21.6-25.5c7.7-8.2,16.3-15.6,24.5-23.4c2.5-2.4,5.1-2.6,8.2-0.9c15,8.3,31.2,10.4,48,9.5
			c7.2-0.4,14.2-1.7,20.6-5.4c3.9-2.2,6.4-1.4,9.3,2c5.7,6.7,11.5,13.2,17.3,19.8c7.7,8.9,15.4,17.7,23,26.7
			c2.5,2.9,2.3,6.4,0.5,9.4c-1.6,2.7-3.7,5.2-6.2,7.1c-4.7,3.6-9.8,6.7-14.9,9.8c-5.5,3.4-8.6,2.9-13.1-1.7c-3.1-3.1-6-6.4-9.8-10.5
			c-0.3,4.2-0.3,7.6,0,11c0.2,2.6,0.6,5.1,0.7,7.7c0.4,9,0.7,18,1,26.9c0.2,7.6-2.5,13.7-9.6,17.1c-2.6,1.2-5.6,2.2-8.5,2.2
			c-14.4,0-28.8-0.1-43.1-0.7c-5.7-0.2-11.4-1.5-17-2.7c-6.6-1.4-9.8-6.3-9.4-13c0.5-7.2,0.6-14.3,1.2-21.5c0.4-5.3,1.2-10.6,1.7-16
			C114.3,414.4,114.1,412.6,114.1,409.8z M190,387.8c7.2,8.3,14.2,16.4,21.1,24.3c8.7-6.1,16.8-11.8,25.2-17.7
			c-3.5-4.4-6.3-8.5-9.6-12.2c-10.3-11.3-20.8-22.5-31.1-33.6c-27,13-53.7,10.8-81.1-1.9c-14.6,14.1-30.1,28.4-41.8,46.4
			c5.8,6.3,11.6,12.3,17.2,18.6c1.5,1.6,2.9,2.1,4.7,0.9c7.9-5.5,16.6-10.1,22.2-18.5c2.6,0.6,2.6,2.7,2.6,4.7
			c-0.2,6.3-0.4,12.7-0.8,19c-0.5,10.6-1.2,21.1-1.8,31.7c-0.1,2,0,3.9,0,6.2c2.5,0.7,4.6,1.6,6.7,1.9c4.5,0.7,9.1,1,13.6,1.6
			c12.6,1.8,25.3,3.7,38.1,2.9c3.7-0.2,7.4-1.3,10.9-2.4c1.9-0.6,2.9-2.3,2.9-4.7c0.1-7,0.8-14,0.8-20.9c0-14.4-0.7-28.7-4.3-43
			C187.1,389.9,188.5,388.9,190,387.8z"/>
		<path class="st1" d="M190,387.8c7.2,8.3,14.2,16.4,21.1,24.3c8.7-6.1,16.8-11.8,25.2-17.7c-3.5-4.4-6.3-8.5-9.6-12.2
			c-10.3-11.3-20.8-22.5-31.1-33.6c-27,13-53.7,10.8-81.1-1.9c-14.6,14.1-30.1,28.4-41.8,46.4c5.8,6.3,11.6,12.3,17.2,18.6
			c1.5,1.6,2.9,2.1,4.7,0.9c7.9-5.5,16.6-10.1,22.2-18.5c2.6,0.6,2.6,2.7,2.6,4.7c-0.2,6.3-0.4,12.7-0.8,19
			c-0.5,10.6-1.2,21.1-1.8,31.7c-0.1,2,0,3.9,0,6.2c2.5,0.7,4.6,1.6,6.7,1.9c4.5,0.7,9.1,1,13.6,1.6c12.6,1.8,25.3,3.7,38.1,2.9
			c3.7-0.2,7.4-1.3,10.9-2.4c1.9-0.6,2.9-2.3,2.9-4.7c0.1-7,0.8-14,0.8-20.9c0-14.4-0.7-28.7-4.3-43
			C187.1,389.9,188.5,388.9,190,387.8z"/>
	</g>
	<g id="Espagne_1_">
		<path d="M12.6,378.6c-7.4-6.1-15.1-11.7-22.7-17.5c-2.1-1.6-4.4-2.8-6.4-4.4c-6.1-4.8-12.2-9.6-18.1-14.6c-2.7-2.3-6.2-2.1-8-0.6
			c-3,2.5-6.4,2.9-9.6,4.4c-10.3,4.9-20.7,5.7-32,2.8c-8-2.2-14.8-6.2-22.1-11.1c-4.5,2.4-9.5,4.8-14.3,7.6
			c-11.9,6.9-23.6,14-35.4,21.1c-5.2,3.1-6.9,7.5-4.6,13.2c3.3,8.2,13.9,34.9,23.1,35.3c2.2,0.1,14.9-7,20.9-10.8
			c0,8.6-0.1,16.9,0,25.2c0.1,9.2,0,18.4-2.4,27.3c-0.3,1.3-0.4,2.8-0.1,4.2c0.3,1.3,0.9,2.9,1.9,3.4c2.6,1.4,5.4,2.9,8.3,3.2
			c9.9,0.9,19.9,2.1,29.7,1.8c13.2-0.4,26.4-2.2,39.6-3.1c7.7-0.5,11.9-3.5,11.8-13.2c0-9.3-1.7-18.6-2.8-27.9
			c-0.5-4.1-1.4-8.1-2.3-12.9c5.3,2.9,9.7,5.3,14.2,7.7c1.8-1,4-1.8,5.7-3.1c8.9-6.8,18.6-12.8,25.7-21.7
			C16.7,390,17.1,382.3,12.6,378.6z M-114.1,458.7c0.4-2.1,0.6-3.5,0.9-4.8c3-12.2,2.6-49.6,3.3-55.9c0.4-3.4,0.5-4.3-0.6-6.3
			l2.7-1.4V460C-109.9,459.7-111.9,459.1-114.1,458.7z M-45.1,458.9c-0.1,0-0.2,0-0.3,0l-2.8-64.9l2.9,2.3c0.7,7.8,3,24.2,4.3,32.2
			c1.2,7.2,2.1,14.6,2.6,21.9C-37.9,456.7-38.8,457.8-45.1,458.9z M-21.8,408.9c-8.7-3.4-15.1-10.5-23.7-16.5l-4.9-3.6l2.1,70.4
			c-2.9,0.2-5.8,0-8.7,0c-3.8,0-7.5,0-11.3,0c-2,0-4,0.3-6,0.4c-10,0.3-19.9,0.8-29.9,0.8c-0.4,0-0.9,0-1.3-0.1v-73.6l-7.7,3.5l0,0
			c-8.7,3.7-16,10.4-25.6,13.8c-5.3-8.9-10.2-17.3-15.4-25.5c-2.1-3.4-1.3-5.4,2-7.4c13.6-8.2,27.3-16.3,41.2-24.7
			c1.1,1,2.2,1.8,3.1,2.8c7.5,8,17.3,10.4,27.6,10.8c13.2,0.5,25.7-2.6,37-9.7c4.6-2.9,4.6-2.7,9.2,0.7
			c11.3,8.4,22.8,16.8,34.1,25.2c2.8,2.1,5.5,4.6,8.7,7.3C-1.6,392.5-11.6,400.7-21.8,408.9z"/>
		<path class="st2" d="M-114.1,458.7c0.4-2.1,0.6-3.5,0.9-4.8c3-12.2,2.6-49.6,3.3-55.9c0.4-3.4,0.5-4.3-0.6-6.3l2.7-1.4V460
			C-109.9,459.7-111.9,459.1-114.1,458.7z"/>
		<path class="st2" d="M-45.1,458.9c-0.1,0-0.2,0-0.3,0l-2.8-64.9l2.9,2.3c0.7,7.8,3,24.2,4.3,32.2c1.2,7.2,2.1,14.6,2.6,21.9
			C-37.9,456.7-38.8,457.8-45.1,458.9z"/>
		<path class="st1" d="M-21.8,408.9c-8.7-3.4-15.1-10.5-23.7-16.5l-4.9-3.6l2.1,70.4c-2.9,0.2-5.8,0-8.7,0c-3.8,0-7.5,0-11.3,0
			c-2,0-4,0.3-6,0.4c-10,0.3-19.9,0.8-29.9,0.8c-0.4,0-0.9,0-1.3-0.1v-73.6l-7.7,3.5l0,0c-8.7,3.7-16,10.4-25.6,13.8
			c-5.3-8.9-10.2-17.3-15.4-25.5c-2.1-3.4-1.3-5.4,2-7.4c13.6-8.2,27.3-16.3,41.2-24.7c1.1,1,2.2,1.8,3.1,2.8
			c7.5,8,17.3,10.4,27.6,10.8c13.2,0.5,25.7-2.6,37-9.7c4.6-2.9,4.6-2.7,9.2,0.7c11.3,8.4,22.8,16.8,34.1,25.2
			c2.8,2.1,5.5,4.6,8.7,7.3C-1.6,392.5-11.6,400.7-21.8,408.9z"/>
	</g>
	<g id="Turquie_1_">
		<path d="M443.3,400.2c-0.7-2.8-2.3-5.5-4-7.8c-2.8-3.9-6.5-7.1-9-11.1c-7.3-12.2-17.5-22.2-26.3-33.2c-2-2.5-4.9-2.5-7.4-2.1
			c-5.1,0.8-10.1,2.5-15.2,3.3c-15.8,2.4-30.9,1.6-44.1-9.1c-2.8-2.2-5.8-2.4-8.9-0.5c-1.5,0.9-3.1,1.8-4.6,2.8
			c-14.2,9.5-28,19.7-40.7,31.2c-3.2,2.9-3.6,4.5-1.2,8.1c3.1,4.6,6.4,9.2,9.5,13.8c3.1,4.6,6.1,9.4,9.2,14c2.2,3.2,4.9,3.9,8.6,2.7
			c3.4-1.1,6.8-2.2,11-3.6c-0.4,2.5-0.5,4.1-0.8,5.6c-3.1,12.2-6.2,24.3-9.3,36.5c-1.3,5,0.2,8.5,5,10.6c1.4,0.6,3,1.1,4.5,1.4
			c3.7,0.7,7.4,1.1,11.2,1.8c5.3,0.9,10.6,2.3,15.9,2.7c9.2,0.7,18.5,0.8,27.8,1.2c0.8,0,1.6-0.1,2.4-0.1c2.9-0.1,5.9-0.4,8.7-0.2
			c10.9,0.9,16.6-4,16.5-14.8c0-7.4-4.3-38.8-4.3-43.9c3.8,5.4,9,13.1,11.8,12c8.2-3,18.1-6.5,26.1-10.1c1.4-0.6,2.7-1.7,4.1-2.5
			C443.3,406.9,444.2,403.6,443.3,400.2z M407.6,410.5c-7.4-7.5-10.5-13.1-13.5-16.2c-1.3-1.3-7.7-4.2-7.7-4.2l-2.5,69.6
			c-5-0.3-10-0.6-14.9-1.2c-11.4-1.3-23.1,0-34.5-2.7c-1.7-0.4-3.4-0.5-5.1-0.6l9.5-70.1c0,0-18.8,12.6-24.2,15.3
			c-3.5,1.8-7.1,3.4-10.7,5c-6-9.1-11.3-17.2-17.1-26.1c12.8-11.4,25.7-22.4,40.7-30.9c23.3,18,48.1,14.6,74,5
			c12,12.8,22,27.6,33.1,42.3C426.4,402.3,417.2,406.6,407.6,410.5z"/>
		<path class="st1" d="M407.6,410.5c-7.4-7.5-10.5-13.1-13.5-16.2c-1.3-1.3-7.7-4.2-7.7-4.2l-2.5,69.6c-5-0.3-10-0.6-14.9-1.2
			c-11.4-1.3-23.1,0-34.5-2.7c-1.7-0.4-3.4-0.5-5.1-0.6l9.5-70.1c0,0-18.8,12.6-24.2,15.3c-3.5,1.8-7.1,3.4-10.7,5
			c-6-9.1-11.3-17.2-17.1-26.1c12.8-11.4,25.7-22.4,40.7-30.9c23.3,18,48.1,14.6,74,5c12,12.8,22,27.6,33.1,42.3
			C426.4,402.3,417.2,406.6,407.6,410.5z"/>
	</g>
	<g id="Croatie_1_">
		<path d="M659.8,386.4c-5.5-7.3-11.2-14.5-17-21.6c-3-3.7-6.4-7.1-9.8-10.4c-2.7-2.6-5.5-5.1-8.3-7.6c-0.9-0.8-9.7-8.4-17.3-1.4
			c-5.2,2.2-11.1,3.5-16.8,3.8c-16.2,0.8-31.3-3.4-44.7-12.5c-3.1-2.1-5.2-1.9-8.1-0.3c-7.8,4.4-15.8,8.5-23.5,13.1
			c-12.2,7.2-24.1,14.8-36.3,22c-3.1,1.8-4.1,4.2-3.6,7.4c0.3,2,0.5,4.1,1.3,5.8c4.5,9.1,9.2,18.2,13.9,27.2c1.3,2.5,3.3,3.3,6,2.2
			c2.6-1.1,5.2-2.1,7.7-3.2c7.5-3.3,15.1-6.7,23.2-10.3c-1,6.6-1.6,12.5-2.9,18.3c-2.1,9.4-4.2,33.9-4.6,36.7
			c-0.4,2.2-0.9,4.3-1.1,6.4c-0.3,2.9,2,6.3,4.5,6.8c3.7,0.7,7.4,1.5,11.2,1.7c11.7,0.5,23.4,1.2,35.1,1.1c7.5-0.1,15-1.3,22.5-2.2
			c2.9-0.4,5.8-1.4,8.7-1.9c7.6-1.3,7.6-1.2,8.6-9.3c0.1-0.8,0.4-1.5,0.5-2.3c0.5-3.7,1.3-42.7,1.9-47.7c6.2,4.8,11.9,9,17.4,13.5
			c3.5,2.9,5.2,3.2,8.7,0.8c2.6-1.8,5.4-3.4,7.9-5.4c7.7-6.2,16.6-11.4,19.2-22.7C662.7,391.7,661.6,388.8,659.8,386.4z
			 M597.2,359.4c1.9-0.2,3.8-1.1,5.6-2c3-1.4,5.9-2.9,9.1-4.5c-1.8,4.8-3.2,9.2-4.5,13.5c-5.3,0.5-10.4,0.8-15.4,0.9
			c0.3-3.7,0.5-6.3,0.6-7.6C593.8,359.7,596,359.6,597.2,359.4z M600.4,425.5c-3.8,0.3-8.5,0.4-13.5,0.3c0.4-4.1,0.7-8.4,1.1-12.6
			c5.6-0.1,10-0.2,12.6-0.4C600.5,416.8,600.4,421,600.4,425.5z M582.3,407.1c-4.2,0-8.5-0.2-12.9-0.4c0.5-4.8,1-9.1,1.4-12.7
			c4.5,0.2,8.8,0.3,12.7,0.4C583,398.8,582.7,403.1,582.3,407.1z M562.7,406.2c-4.2-0.3-8.5-0.8-12.8-1.3c0.4-4.3,0.8-8.6,1.1-12.7
			c4.3,0.6,8.6,1,12.7,1.3C563.3,398,563,402.3,562.7,406.2z M562.2,412.3c-0.1,0.8-0.1,1.5-0.2,2.2c-0.2,3.3-0.5,6.7-0.7,10.3
			c-4.6-0.3-9-0.6-13.1-0.9c0.4-4.2,0.8-8.6,1.2-12.9C553.7,411.6,558,412,562.2,412.3z M568.8,412.8c4.6,0.3,9,0.4,13.1,0.4
			c-0.1,1.6-0.2,3-0.3,4.4c-0.2,2.6-0.4,5.3-0.6,8.1c-4.4-0.1-8.9-0.3-13.5-0.5C567.9,421,568.4,416.8,568.8,412.8z M600.9,406.4
			c-4,0.3-8.1,0.6-12.4,0.6c0.4-4.3,0.8-8.6,1.1-12.7c5.8-0.1,10.1-0.3,12.2-0.4C601.5,398,601.2,402.1,600.9,406.4z M584,388.3
			c-4.1-0.1-8.3-0.2-12.5-0.5c0.1-0.5,0.1-0.9,0.1-1.2c0.4-3.6,0.9-8,1.2-12.6c4.4,0.2,8.6,0.3,12.5,0.4
			C584.9,378.8,584.5,383.5,584,388.3z M564.3,387.3c-4.2-0.3-8.5-0.8-12.8-1.3c0.4-4.9,0.8-9.5,1.2-13.6c4.3,0.5,8.7,0.8,12.9,1.1
			C565.2,378,564.8,382.6,564.3,387.3z M545.5,385.2c-4-0.6-8.1-1.2-12.1-1.9c0.6-4,1.3-8.7,2-13.5c3.7,0.7,7.5,1.3,11.4,1.9
			C546.4,376,545.9,380.6,545.5,385.2z M531.9,392.7c0.2-1,0.4-2.3,0.6-3.8c4.1,1,8.2,1.8,12.4,2.5c-0.4,4.4-0.8,8.8-1.1,12.8
			c-4-0.6-8.1-1.2-12.2-1.9c0.2-2,0.4-4,0.6-5.9C532.3,395.1,532.2,393.8,531.9,392.7z M531,407.6c4,1,8.1,1.8,12.3,2.5
			c-0.1,1.6-0.2,3.1-0.3,4.5c-0.2,2.8-0.4,5.8-0.6,8.9c-6.3-0.5-11.3-1-13.9-1.4c0.3-1.7,0.7-3.4,1.1-5.1
			C530.2,413.9,530.7,410.8,531,407.6z M541.9,429.1c-0.4,4.5-0.8,8.9-1.1,13.1c-4.9-0.6-9.9-1.3-15.1-2c0.5-4.4,1.1-8.8,1.8-13.1
			C531.3,427.9,536.3,428.6,541.9,429.1z M547.7,429.6c4.2,0.3,8.7,0.5,13.2,0.7c-0.4,4.7-0.8,9.4-1.2,13.7
			c-4.3-0.3-8.7-0.7-13.1-1.2C546.9,438.8,547.3,434.3,547.7,429.6z M567,430.5c4.7,0.1,9.3,0.2,13.6,0.3c-0.4,4.8-0.8,9.7-1.2,14.2
			c-4.5-0.1-9.1-0.2-13.8-0.5C566,440.1,566.5,435.3,567,430.5z M586.5,430.8c5.9,0,10.8,0,13.8,0c0,2.7-0.1,5.5-0.1,8.4
			c0,1.8-0.2,3.5-0.5,5.2c-4.8,0.3-9.6,0.5-14.5,0.5C585.6,440.6,586,435.9,586.5,430.8z M590.2,388.3c0.4-5.1,0.8-9.8,1.2-13.9
			c6.7,0,11.8-0.1,13.9-0.2c-1.1,4.6-1.9,9.1-2.6,13.5C598.7,388,594.5,388.2,590.2,388.3z M586.8,360.4c-0.2,2.1-0.5,4.5-0.7,7.1
			c-4.4,0-8.7-0.1-12.7-0.3c0.2-2.7,0.4-5.2,0.5-7.6C578.2,360.5,582.5,360.6,586.8,360.4z M567.2,358.3c-0.3,2.5-0.6,5.3-0.9,8.4
			c-4.8-0.4-9.2-0.8-13-1.4c0.4-5,0.7-8.5,0.8-9.9C558,356.8,563.1,357.6,567.2,358.3z M538.6,345.7c1.6,0.5,3.2,1.5,4.9,3.1
			c1.7,1.6,3.4,2.8,5.3,3.9c-0.3,2.9-0.7,7-1.2,11.9c-5-0.8-8.8-1.6-11-2.1C537.5,355.4,538.3,349.1,538.6,345.7z M526.1,390.4
			c-12.4,3.6-22.9,10.4-33.4,17.7c-4.9-9.3-9.8-18.6-15-28.2c2.3-1.9,3.9-3.7,5.9-4.9c15.3-9,30.8-17.6,45.8-27c1-0.6,2-1.1,2.9-1.5
			C531.9,355.6,528.5,380.5,526.1,390.4z M524,460.8c0.2-2.8,0.4-4.7,0.5-6.6c0.2-2.9,0.4-5.9,0.7-8.8c5,1,10,1.9,15.1,2.5
			c-0.6,6.6-1.2,11.9-1.4,14.2C534,461.8,529.1,461.3,524,460.8z M544.7,462.6c0.2-2.4,0.7-7.4,1.3-13.9c4.4,0.5,8.9,0.9,13.1,1.2
			c-0.7,7.1-1.2,12.3-1.3,13.4C553.4,463.1,549,462.8,544.7,462.6z M570.6,463.4c-2.3,0-4.6,0-6.9,0c0.3-2.6,0.7-7.3,1.3-13.2
			c4.9,0.3,9.5,0.4,13.8,0.5c-0.5,5.1-0.9,9.4-1.2,12.3C575.3,463.2,572.9,463.4,570.6,463.4z M590.1,461.3
			c-2.2,0.3-4.4,0.6-6.6,0.9c0.3-2.6,0.6-6.6,1.1-11.5c5.8,0,10.6-0.1,14.2-0.2c-0.1,0.6-0.2,1.2-0.2,1.8
			C598,457.7,595.3,460.7,590.1,461.3z M631.1,416.4c-10.1-7.7-14.7-13.4-24.7-21c1.1-10.1,6.7-35.1,12-42.4
			c12.2,14.9,24.1,29.5,36.1,44.1C648.8,406.4,639.4,410.3,631.1,416.4z"/>
		<path class="st1" d="M597.2,359.4c1.9-0.2,3.8-1.1,5.6-2c3-1.4,5.9-2.9,9.1-4.5c-1.8,4.8-3.2,9.2-4.5,13.5
			c-5.3,0.5-10.4,0.8-15.4,0.9c0.3-3.7,0.5-6.3,0.6-7.6C593.8,359.7,596,359.6,597.2,359.4z"/>
		<path class="st1" d="M562.7,406.2c-4.2-0.3-8.5-0.8-12.8-1.3c0.4-4.3,0.8-8.6,1.1-12.7c4.3,0.6,8.6,1,12.7,1.3
			C563.3,398,563,402.3,562.7,406.2z"/>
		<path class="st1" d="M568.8,412.8c4.6,0.3,9,0.4,13.1,0.4c-0.1,1.6-0.2,3-0.3,4.4c-0.2,2.6-0.4,5.3-0.6,8.1
			c-4.4-0.1-8.9-0.3-13.5-0.5C567.9,421,568.4,416.8,568.8,412.8z"/>
		<path class="st1" d="M600.9,406.4c-4,0.3-8.1,0.6-12.4,0.6c0.4-4.3,0.8-8.6,1.1-12.7c5.8-0.1,10.1-0.3,12.2-0.4
			C601.5,398,601.2,402.1,600.9,406.4z"/>
		<path class="st1" d="M584,388.3c-4.1-0.1-8.3-0.2-12.5-0.5c0.1-0.5,0.1-0.9,0.1-1.2c0.4-3.6,0.9-8,1.2-12.6
			c4.4,0.2,8.6,0.3,12.5,0.4C584.9,378.8,584.5,383.5,584,388.3z"/>
		<path class="st1" d="M545.5,385.2c-4-0.6-8.1-1.2-12.1-1.9c0.6-4,1.3-8.7,2-13.5c3.7,0.7,7.5,1.3,11.4,1.9
			C546.4,376,545.9,380.6,545.5,385.2z"/>
		<path class="st1" d="M531,407.6c4,1,8.1,1.8,12.3,2.5c-0.1,1.6-0.2,3.1-0.3,4.5c-0.2,2.8-0.4,5.8-0.6,8.9
			c-6.3-0.5-11.3-1-13.9-1.4c0.3-1.7,0.7-3.4,1.1-5.1C530.2,413.9,530.7,410.8,531,407.6z"/>
		<path class="st1" d="M547.7,429.6c4.2,0.3,8.7,0.5,13.2,0.7c-0.4,4.7-0.8,9.4-1.2,13.7c-4.3-0.3-8.7-0.7-13.1-1.2
			C546.9,438.8,547.3,434.3,547.7,429.6z"/>
		<path class="st1" d="M586.5,430.8c5.9,0,10.8,0,13.8,0c0,2.7-0.1,5.5-0.1,8.4c0,1.8-0.2,3.5-0.5,5.2c-4.8,0.3-9.6,0.5-14.5,0.5
			C585.6,440.6,586,435.9,586.5,430.8z"/>
		<path class="st1" d="M567.2,358.3c-0.3,2.5-0.6,5.3-0.9,8.4c-4.8-0.4-9.2-0.8-13-1.4c0.4-5,0.7-8.5,0.8-9.9
			C558,356.8,563.1,357.6,567.2,358.3z"/>
		<path class="st1" d="M526.1,390.4c-12.4,3.6-22.9,10.4-33.4,17.7c-4.9-9.3-9.8-18.6-15-28.2c2.3-1.9,3.9-3.7,5.9-4.9
			c15.3-9,30.8-17.6,45.8-27c1-0.6,2-1.1,2.9-1.5C531.9,355.6,528.5,380.5,526.1,390.4z"/>
		<path class="st1" d="M524,460.8c0.2-2.8,0.4-4.7,0.5-6.6c0.2-2.9,0.4-5.9,0.7-8.8c5,1,10,1.9,15.1,2.5c-0.6,6.6-1.2,11.9-1.4,14.2
			C534,461.8,529.1,461.3,524,460.8z"/>
		<path class="st1" d="M570.6,463.4c-2.3,0-4.6,0-6.9,0c0.3-2.6,0.7-7.3,1.3-13.2c4.9,0.3,9.5,0.4,13.8,0.5
			c-0.5,5.1-0.9,9.4-1.2,12.3C575.3,463.2,572.9,463.4,570.6,463.4z"/>
		<path class="st1" d="M631.1,416.4c-10.1-7.7-14.7-13.4-24.7-21c1.1-10.1,6.7-35.1,12-42.4c12.2,14.9,24.1,29.5,36.1,44.1
			C648.8,406.4,639.4,410.3,631.1,416.4z"/>
		<path class="st3" d="M600.4,425.5c-3.8,0.3-8.5,0.4-13.5,0.3c0.4-4.1,0.7-8.4,1.1-12.6c5.6-0.1,10-0.2,12.6-0.4
			C600.5,416.8,600.4,421,600.4,425.5z"/>
		<path class="st3" d="M582.3,407.1c-4.2,0-8.5-0.2-12.9-0.4c0.5-4.8,1-9.1,1.4-12.7c4.5,0.2,8.8,0.3,12.7,0.4
			C583,398.8,582.7,403.1,582.3,407.1z"/>
		<path class="st3" d="M562.2,412.3c-0.1,0.8-0.1,1.5-0.2,2.2c-0.2,3.3-0.5,6.7-0.7,10.3c-4.6-0.3-9-0.6-13.1-0.9
			c0.4-4.2,0.8-8.6,1.2-12.9C553.7,411.6,558,412,562.2,412.3z"/>
		<path class="st3" d="M564.3,387.3c-4.2-0.3-8.5-0.8-12.8-1.3c0.4-4.9,0.8-9.5,1.2-13.6c4.3,0.5,8.7,0.8,12.9,1.1
			C565.2,378,564.8,382.6,564.3,387.3z"/>
		<path class="st3" d="M531.9,392.7c0.2-1,0.4-2.3,0.6-3.8c4.1,1,8.2,1.8,12.4,2.5c-0.4,4.4-0.8,8.8-1.1,12.8
			c-4-0.6-8.1-1.2-12.2-1.9c0.2-2,0.4-4,0.6-5.9C532.3,395.1,532.2,393.8,531.9,392.7z"/>
		<path class="st3" d="M541.9,429.1c-0.4,4.5-0.8,8.9-1.1,13.1c-4.9-0.6-9.9-1.3-15.1-2c0.5-4.4,1.1-8.8,1.8-13.1
			C531.3,427.9,536.3,428.6,541.9,429.1z"/>
		<path class="st3" d="M567,430.5c4.7,0.1,9.3,0.2,13.6,0.3c-0.4,4.8-0.8,9.7-1.2,14.2c-4.5-0.1-9.1-0.2-13.8-0.5
			C566,440.1,566.5,435.3,567,430.5z"/>
		<path class="st3" d="M590.2,388.3c0.4-5.1,0.8-9.8,1.2-13.9c6.7,0,11.8-0.1,13.9-0.2c-1.1,4.6-1.9,9.1-2.6,13.5
			C598.7,388,594.5,388.2,590.2,388.3z"/>
		<path class="st3" d="M586.8,360.4c-0.2,2.1-0.5,4.5-0.7,7.1c-4.4,0-8.7-0.1-12.7-0.3c0.2-2.7,0.4-5.2,0.5-7.6
			C578.2,360.5,582.5,360.6,586.8,360.4z"/>
		<path class="st3" d="M538.6,345.7c1.6,0.5,3.2,1.5,4.9,3.1c1.7,1.6,3.4,2.8,5.3,3.9c-0.3,2.9-0.7,7-1.2,11.9
			c-5-0.8-8.8-1.6-11-2.1C537.5,355.4,538.3,349.1,538.6,345.7z"/>
		<path class="st3" d="M544.7,462.6c0.2-2.4,0.7-7.4,1.3-13.9c4.4,0.5,8.9,0.9,13.1,1.2c-0.7,7.1-1.2,12.3-1.3,13.4
			C553.4,463.1,549,462.8,544.7,462.6z"/>
		<path class="st3" d="M590.1,461.3c-2.2,0.3-4.4,0.6-6.6,0.9c0.3-2.6,0.6-6.6,1.1-11.5c5.8,0,10.6-0.1,14.2-0.2
			c-0.1,0.6-0.2,1.2-0.2,1.8C598,457.7,595.3,460.7,590.1,461.3z"/>
	</g>
</g>
</svg>
