<?xml version="1.0" encoding="utf-8"?>
<!-- Generator: Adobe Illustrator 19.1.0, SVG Export Plug-In . SVG Version: 6.00 Build 0)  -->
<svg version="1.1" id="Calque_1" xmlns="http://www.w3.org/2000/svg" xmlns:xlink="http://www.w3.org/1999/xlink" x="0px" y="0px"
	 viewBox="0 0 52.6 53.3" style="enable-background:new 0 0 52.6 53.3;" xml:space="preserve">
<style type="text/css">
	.st0{display:none;fill:#F7B5AC;}
	.st1{fill:#F7B5AC;}
	.st2{fill:#EB5C5F;}
	.st3{fill:#84B974;}
	.st4{fill:#010202;}
	.st5{fill:#AB7613;}
	.st6{fill:#C0BFBF;}
	.st7{fill:#6FA4C3;}
	.st8{fill:#1E1E1C;}
	.st9{fill:none;}
	.st10{fill:none;stroke:#EB5C5F;stroke-width:3;stroke-miterlimit:10;}
	.st11{fill:none;stroke:#6FA4C3;stroke-width:3;stroke-miterlimit:10;}
	.st12{fill:none;stroke:#84B974;stroke-width:3;stroke-miterlimit:10;}
	.st13{fill:none;stroke:#C0BFBF;stroke-width:3;stroke-miterlimit:10;}
	.st14{fill:none;stroke:#F7B5AC;stroke-width:3;stroke-miterlimit:10;}
</style>
<g>
	<path class="st4" d="M19.5,36.4c-2.2-2.5-4.3-4.9-6.6-7.5c-0.8,0.2-1.7,0.3-2.6,0.6c-5.6,1.9-11.4-3-10.1-8.8
		C1.5,15.5,4.2,10.9,8,7c1.6-1.6,3.3-3.1,5-4.6c3.2-3,7.1-2.5,10.9-2c2.5,0.4,3.8,2.6,3.8,5c0,2.8-0.6,5.7-1.1,9.2
		c1.9,1.5,4.3,3.5,6.9,5.6c1.7-2.4,4.2-3.9,7.1-4.3c1.7-0.2,3.7,0.3,5.4,1c2.8,1.1,4.5,5,3.8,8c-1.4,5.7-3.6,10.9-9.3,14.2
		c4.1,4.1,8.1,8.1,12.1,12c-3.6,2.8-3.5,2.8-6.5,0.8c-3.9-2.6-7.8-5.1-11.9-7.7c-1.8,1.2-3.3,2.4-5,3.4c-2.1,1.2-4.1,2.6-6.4,3.2
		c-3.8,1.1-6.9-1.2-7.3-5.2c-0.2-2.2,0-4.3,1.5-6C17.8,38.7,18.5,37.7,19.5,36.4z M18.5,5.1C17.2,5.5,16,5.5,15.3,6
		c-5.4,3.8-9,9-10.7,15.4c-0.4,1.6-0.6,3.4,1,4.4c1.3,0.9,2.8,0.3,4-0.6c1.8-1.3,3.5-1,5,0.5c3.1,3.1,6.2,6.2,9.3,9.4
		c0.6,0.6,0.9,1.5,1.4,2.4c-3.5,2.5-6.7,5.1-5.3,10.6c1.7-0.9,3.1-1.3,4.1-2.2c2.7-2.3,5.6-4.6,7.9-7.3c3.1-3.5,5.8-7.3,8.5-11.1
		c1.3-1.8,1.3-3.8,0.1-6.3c-2,3.4-6,4.7-6.4,9.1c-1-0.3-2-0.4-2.6-0.9c-4.7-4.1-9.2-8.4-13.9-12.6c-1.4-1.3-1.7-2.5-0.7-4.2
		C18.3,10.5,19.3,8.3,18.5,5.1z"/>
	<path class="st3" d="M18.5,5.1C17.2,5.5,16,5.5,15.3,6c-5.4,3.8-9,9-10.7,15.4c-0.4,1.6-0.6,3.4,1,4.4c1.3,0.9,2.8,0.3,4-0.6
		c1.8-1.3,3.5-1,5,0.5c3.1,3.1,6.2,6.2,9.3,9.4c0.6,0.6,0.9,1.5,1.4,2.4c-3.5,2.5-6.7,5.1-5.3,10.6c1.7-0.9,3.1-1.3,4.1-2.2
		c2.7-2.3,5.6-4.6,7.9-7.3c3.1-3.5,5.8-7.3,8.5-11.1c1.3-1.8,1.3-3.8,0.1-6.3c-2,3.4-6,4.7-6.4,9.1c-1-0.3-2-0.4-2.6-0.9
		c-4.7-4.1-9.2-8.4-13.9-12.6c-1.4-1.3-1.7-2.5-0.7-4.2C18.3,10.5,19.3,8.3,18.5,5.1z"/>
</g>
</svg>
