<?xml version="1.0" encoding="utf-8"?>
<!-- Generator: Adobe Illustrator 19.1.0, SVG Export Plug-In . SVG Version: 6.00 Build 0)  -->
<svg version="1.1" id="Calque_1" xmlns="http://www.w3.org/2000/svg" xmlns:xlink="http://www.w3.org/1999/xlink" x="0px" y="0px"
	 viewBox="0 0 128.8 151.4" style="enable-background:new 0 0 128.8 151.4;" xml:space="preserve">
<style type="text/css">
	.st0{display:none;fill:#F7B5AC;}
	.st1{fill:#F7B5AC;}
	.st2{fill:#EB5C5F;}
	.st3{fill:#84B974;}
	.st4{fill:#010202;}
	.st5{fill:#AB7613;}
	.st6{fill:#C0BFBF;}
	.st7{fill:#6FA4C3;}
	.st8{fill:#1E1E1C;}
	.st9{fill:none;}
	.st10{fill:none;stroke:#EB5C5F;stroke-width:3;stroke-miterlimit:10;}
	.st11{fill:none;stroke:#6FA4C3;stroke-width:3;stroke-miterlimit:10;}
	.st12{fill:none;stroke:#84B974;stroke-width:3;stroke-miterlimit:10;}
	.st13{fill:none;stroke:#C0BFBF;stroke-width:3;stroke-miterlimit:10;}
	.st14{fill:none;stroke:#F7B5AC;stroke-width:3;stroke-miterlimit:10;}
</style>
<g>
	<path d="M127.3,0c-1.6,1.3-3,2.8-4.6,3.8c-4.9,3.1-10.4,5-15.8,6.9c-4.3,1.5-8.2,3.6-10.9,7.4c-1.1,1.5-1.9,3.2-2.7,4.5
		c-6.5,0-12.9,0-19.5-0.1c-0.1-2.1-0.3-4-0.3-5.9c0-1.8,0.1-3.6,0.2-5.4c0.1-1.4-0.4-2.3-2.2-2.7c-0.2,4.9-0.3,9.5-0.4,14.4
		c-9.1,0-17.9,0.1-26.9,0.1c-0.1-3.5-0.2-6.7-0.3-9.9c0-1.6,0-3.2-2.3-3.9c-0.6,4.7,0.2,9.3,0.1,14c-5.1,0.4-10.1,0.7-15.1,1.1
		c-0.5-1.1-1-2.1-1.5-3.1c-2.2-4.2-5.3-7.6-9.2-10.3c-3.9-2.8-8-5.3-12.4-8.2C3.3,3.6,2.9,4.3,3,5c0.3,4-0.7,7.9-1.6,11.7
		c-1.1,4.7-1.8,9.4-1,14.3c0.7,4.2,1.8,8.4,4.4,11.9c2.1,2.7,4.6,5,6.8,7.6c0.4,0.4,0.7,1.1,0.7,1.7c0,3.6,0,7.2-0.1,10.8
		c-0.2,5.7-0.8,11.4-0.8,17.1c0,5.4-0.1,10.8,1.6,16.1c0.4,1.2,0.5,2.5,0.7,3.8c-5.4,2-6.3,3.5-6,9.1c0,0.3,0,0.6,0,0.9
		c0.4,5.8,0.8,11.5,1.1,17.3c0.3,6,0.3,12.1,0.5,18.1c0.1,2.3,1.7,3.9,3.9,4c1.5,0.1,3,0.1,4.6,0.2c5.6,0.1,11.2,0.2,16.7-0.9
		c3.3-0.7,4.1-1.4,4.6-4.8c0.3-2.2,0.4-4.4,0.3-6.5c-0.1-4.2,1.6-7.2,5.4-9.2c4-2.1,5.3-5.9,3.8-10.2c-1-2.9-2.8-5.4-5.1-7.4
		c-0.7-0.6-1.7-1.1-2.1-2.2c6.9,0,13.6,0,20.4-0.2c4-0.1,8-0.3,11.9-0.6c6.5-0.4,13-0.8,19.6-1.3c3.7-0.3,13-2,14.4-2.8
		c2.1-0.3,4.7-0.6,7.3-1.1c1.9-0.4,3.3,0.4,4.1,1.8c1,1.6,1.7,3.4,2.2,5.2c1.3,4.8,1.5,9.7,1.2,14.7c-0.1,2.5-0.2,5-0.3,7.5
		c-2.7-3.3-6.2-5.3-9.3-7.8c-4.6-3.6-9.8-4.4-15.3-4.1c-6.3,0.3-10.6,4-12.1,10.1c-0.5,1.9-1.7,2.5-3.2,2.7
		c-3.5,0.6-6.4,2.3-9.3,4.1c-4.9,3.1-6.8,9.4-4.5,14.1c3.2,0.1,6.3,0.2,9.4,0.3c4.5,0.1,9.1,0.2,13.6,0.4c7.9,0.3,15.7,0.4,23.6-0.9
		c2.3-0.4,4.6-0.5,7.3-0.8c0.5-2.1,1.6-9.8,1.7-11.3c0.3-6.1,0.7-12.3,1.1-18.4c0.3-4.5-0.4-8.9-1.7-13.2c-1.2-3.9-3.8-6.6-7.4-8.1
		c0.2-5.5,0.4-10.9,0.5-16.3c0-4.1-0.1-8.2-0.4-12.2c-0.4-7.2-1-14.4-1.6-21.6c-0.1-1.9-0.4-3.7-0.6-5.6l0,0
		c0.7-0.5,2.8-2.3,3.4-2.6c3.4-1.9,5.7-4.7,7-8.3c0.6-1.7,1.4-3.3,2-5c1.5-4.1,2.2-8.4,2.1-12.8c-0.1-3.5-0.1-7,0.3-10.5
		C129,1.9,128.8,0.8,127.3,0z M7.8,25.2c0,0.8,0.1,1.6-0.1,2.3c-0.2,0.8-0.5,1.6-1,2.2c-1,1.1-2.2,2-3.4,3.1
		c-1.2-4.1-0.7-8.1,0-12.1C4.1,16.4,5,12.2,6,7.5C11.2,11,16.5,14,20.4,19.1c-0.9-0.3-1.9-0.7-2.8-0.9C13.5,17,7.8,19.5,7.8,25.2z
		 M113.6,92.4c-0.1,1.7-0.5,3.4-0.9,5c-0.3,1.4-1.3,2.1-2.5,2.5c-4.2,1.4-8.3,2.7-12.8,2.9c-9.2,0.4-18.3,1.3-27.5,1.7
		c-6.3,0.3-12.6,1-18.9,0.4c-3.5-0.3-7,0.2-10.5-0.1c-5.4-0.3-10.7-0.9-16.1-1.4c-0.3,0-0.6-0.1-0.8-0.1c-4.5-0.8-7.5-2.9-8.4-7.9
		c-0.9-4.8-1.3-9.6-1.4-14.4c-0.1-4.2,0.2-8.4,0.4-12.6c0.1-3.1,0.5-6.2,0.6-9.4c0.1-1.8-0.1-3.6-0.2-5.4c0-0.5,0.1-1.1,0.2-2
		c0.6,0.4,1,0.6,1.3,0.9c2,1.6,4.8,2,6.8,0.6c2.1-1.4,3.5-3.3,2.9-6c-0.6-2.9,0.1-5,2.3-7.1c3-2.8,3.5-8.7,1.4-12.7
		c2.4-0.1,4.6-0.1,6.8-0.4c8-1,16-0.6,24.1-0.8c6.4-0.1,12.8-0.4,19.3-0.4c6.5,0,13.1,0,19.5,1.7c4,1.1,6.2,2.7,9.1,7.3
		c-1.7-0.1-3-0.2-4.3-0.1c-5.9,0.7-11,4.5-9.1,11.8c0.6,2.3,0.6,4.1-0.7,6.1c-2.4,3.9-1.2,9,2.6,12.4c1.3,1.1,2.6,2.2,3.9,3.3
		c2.2,1.8,4.8,2.7,7.6,2.6c1.6,0,3.1-0.8,4.9-1.4c0.1,3.3,0.2,7,0.3,10.7C113.7,84.3,113.8,88.3,113.6,92.4z M121.9,30.2
		c-1.5,3.1-3.3,5.8-6.4,7.4c-0.7,0.4-1.7,0.9-2.3,1.5c-1.5-5-4.7-8.8-8.5-12.3c-1.7-1.6-3.9-2.3-6.2-2.7c-0.8-0.2-1.6-0.3-2.7-0.5
		c0.8-3.1,3.1-4.9,5.4-6.5c2.2-1.5,4.8-2.6,7.3-3.7C114.2,10.9,120,8.5,126,6c0,1.2,0,2.6,0.1,4.1C126.3,17.1,125,23.8,121.9,30.2z"
		/>
	<path d="M51.4,45.7c0.2-6.2,6.9-9.6,12.5-6.5c4.5,2.5,5.2,8.9,1.6,12.7c-2,2.1-6.2,2.4-8.9,1.2C53.2,51.6,51.1,49.4,51.4,45.7
		 M62.8,46.5c0.1-2.1-2.2-5.6-3.7-5.3c-1.4,0.3-2.8,1-4,1.9c-0.7,0.5-1,1.8-1.1,2.8c-0.3,2.7,1.3,4.5,4,4.8
		C60.2,50.8,62.7,48.7,62.8,46.5"/>
	<path d="M43.7,72.5c-0.1,2.1-0.7,3.1-1.9,3.2c-1,0.2-2.3-0.7-2.7-2c-0.6-1.9-0.3-3.7,0.3-5.5c0.4-1.2,1.5-1.4,2.4-0.4
		C43,69.2,43.7,71,43.7,72.5"/>
	<path d="M85.5,75.1c-0.2,1.1-1.6,2-2.5,2.1c-1.4,0.2-1.8-1.3-2-2.5c-0.3-1.9-0.6-3.9,0.6-5.6c0.9-1.3,2-1.3,2.8,0
		C85.2,70.3,85.8,73.2,85.5,75.1z"/>
	<path class="st2" d="M62.8,46.5c0.1-2.1-2.2-5.6-3.7-5.3c-1.4,0.3-2.8,1-4,1.9c-0.7,0.5-1,1.8-1.1,2.8c-0.3,2.7,1.3,4.5,4,4.8
		C60.2,50.8,62.7,48.7,62.8,46.5"/>
</g>
</svg>
