<?xml version="1.0" encoding="utf-8"?>
<!-- Generator: Adobe Illustrator 19.1.0, SVG Export Plug-In . SVG Version: 6.00 Build 0)  -->
<svg version="1.1" id="Calque_1" xmlns="http://www.w3.org/2000/svg" xmlns:xlink="http://www.w3.org/1999/xlink" x="0px" y="0px"
	 viewBox="0 0 154 165.6" style="enable-background:new 0 0 154 165.6;" xml:space="preserve">
<style type="text/css">
	.st0{display:none;fill:#F7B5AC;}
	.st1{fill:#F7B5AC;}
	.st2{fill:#EB5C5F;}
	.st3{fill:#84B974;}
	.st4{fill:#010202;}
	.st5{fill:#AB7613;}
	.st6{fill:#C0BFBF;}
	.st7{fill:#6FA4C3;}
	.st8{fill:#1E1E1C;}
	.st9{fill:none;}
	.st10{fill:none;stroke:#EB5C5F;stroke-width:3;stroke-miterlimit:10;}
	.st11{fill:none;stroke:#6FA4C3;stroke-width:3;stroke-miterlimit:10;}
	.st12{fill:none;stroke:#84B974;stroke-width:3;stroke-miterlimit:10;}
	.st13{fill:none;stroke:#C0BFBF;stroke-width:3;stroke-miterlimit:10;}
	.st14{fill:none;stroke:#F7B5AC;stroke-width:3;stroke-miterlimit:10;}
</style>
<g>
	<g>
		<path d="M153.7,133.2c-0.4-0.5-0.7-1.2-1.2-1.6c-1.7-1-3.4-2-5.2-2.8c-3.7-1.6-7.4-3-11.1-4.5c-4.9-2-9.9-4.2-14.8-6.1
			c-5.9-2.3-11.9-4-18.1-5.2c-3.7-0.7-7.3-1.7-11.2-2.6c0.9-0.5,1.6-0.9,2.4-1.3c2.9-1.3,5.3-3.4,7.5-5.6c2.3-2.3,3.6-5.2,4.6-8.2
			c0.6-1.8,1.4-3.2,2.8-4.4c0.8-0.7,1.5-1.4,2.3-2c4.4-3.5,7.6-8,10.1-13c1.4-2.8,2.8-5.6,4.1-8.5c1.3-3,2.2-6.1,1.2-9.4
			c-0.4-1.4-0.8-2.8-1.3-4.1c-1.6-3.9-3.2-7.7-2-12c0.2-0.5,0.1-1.2-0.1-1.7c-1.2-2.5-6.2-6.5-9.6-5c-0.8,0.4-1.7,0.4-2.6,0.6
			c0.6-6.3-1.5-10.6-7.5-12.3c0.1-1,0.2-1.9,0.1-2.7c-0.1-1.8-0.9-3.4-2.7-3.9c-1.4-0.4-3-0.5-4.5-0.5c-2,0-3.2,1.4-4.4,2.9
			c0.1-1.2,0.2-2.2,0.1-3.2c-0.3-3.2-1.8-6-3.5-8.7c-1.8-2.7-4-3.2-7.1-2.3c-1.4,0.4-2.7,1-4,1.5c-3.7-3.5-6.8-2-9.2,1.1
			c-1,1.3-1.7,2.7-2.5,4.1c-0.9,0.1-1.9,0.1-2.9,0.4c-1,0.3-1.9,0.9-2.9,1.5c-0.6-1.6-2.4-1.9-3.9-2.4c-3.1-1-6.8,0.8-7.6,3.8
			c-0.6,2.2-1.4,4.4-0.8,6.7c0.3,1.1,0.2,2.4,0.2,3.6c0,0.6-0.2,1.4-0.5,1.9c-0.8,1.2-1.9,2.4-2.8,3.5c-1.7-2.5-3.7-4.4-6.3-5.6
			c-4.4-2-10.7,1.2-12.2,6.1c-1.2,4.2-1.2,8.4,0.4,12.5c1.4,3.7,1.4,7.2-0.8,10.7c-2.4,3.8-3.1,8-2.6,12.4
			c0.9,7.5,4.3,13.5,10.5,17.9c3.1,2.2,6.5,3.9,9,6.9c1.8,2.1,3.9,4.1,5.7,6.2c1.8,2.1,4.2,3.3,6.7,4.5c3.5,1.7,7,3.5,10.5,5.2
			c0,0.2-0.1,0.4-0.1,0.6c-0.7,0.1-1.4,0.2-2.1,0.2c-7.1,0.1-14,1.2-20.9,2.8c-8.9,2.1-17.2,5.6-25.5,9.5c-5.8,2.7-11,6.4-16.4,9.8
			c-1.3,0.8-1.2,1.1,0,2.8c0.2-0.1,0.5-0.2,0.7-0.3c3.6-2.2,7.2-4.5,10.9-6.6c10.7-5.9,21.8-10.6,33.9-13.1
			c5.7-1.2,11.4-1.9,17.1-2.1c7.5-0.2,14.9,0.5,22.3,1.3c7.8,0.8,15.3,2.9,22.9,4.6c7.3,1.7,14.2,4.7,21.2,7.3
			c3.2,1.2,6.2,2.7,9.3,4.1c2.9,1.2,5.8,2.3,8.7,3.7c1.4,0.6,2.5,1.8,3.8,2.6c0.5,0.3,1.3,0.5,1.8,0.2
			C154.2,134.6,154.1,133.8,153.7,133.2z M89.2,23.9c1.5,0.4,2.4-0.1,3.4-1c0.9-1,1.9-1.9,2.9-2.9c1.5-1.6,1.5-1.6,3.9-0.8
			c0.1,1.4,0.3,2.9,0.4,4.4c0.1,2.1,0.9,3.1,2.9,3.5c0.7,0.1,1.3,0.2,2,0.4c1.4,0.5,2.2,1.4,2.3,3c0.4,3.1-0.2,5.9-2.2,8.4
			c-1.4,1.8-1.7,3.5-0.8,5.7c1,2.1,0.8,4.6-0.1,6.7c-0.4,0.9-1.3,1.7-2.2,2.3c-2.7,1.8-3.9,4.2-3.2,7.4c0.2,0.7,0.1,1.5,0.2,2.3
			c0.2,1.8-0.4,3.1-1.9,4.1c-0.7,0.5-1.4,1-2,1.6c-1.1,1-1.5,2.1-1.2,3.7c0.3,1.5,0.4,3-1.4,4.5c0-1.1,0-1.8,0-2.5
			c0.4-5.8,0.6-11.7,1.2-17.5c0.3-2.8,1.2-5.6,1.8-8.4c0.7-3.8,2.2-7.5,1.5-11.5c-0.1-0.9,0-1.9,0.3-2.8c0.6-1.7-0.5-2.4-1.8-3.4
			c-0.2,0.5-0.5,0.9-0.5,1.2c-0.1,2.3-0.7,4.5-1.7,6.6c-3.4,7.1-4.9,14.6-5.5,22.4c-0.5,6.8-1.2,13.5-2.1,20.3
			c-0.3,2.2,0.1,3.6-1.2,5.7c-0.9,1.4-3.7,4.5-3.7,4.5c0.8-1.2,2.8-5.6,3.1-6.4c1.9-5.9,1-11.8-0.4-17.6c-1-4.1-2.4-8.1-3.7-12.4
			c1.5-1.2,1.6-3.1,1.5-4.9c-0.1-2.3-0.3-4.6-0.4-6.8c-0.1-1.6,0-3.2,0-4.6c0.4-0.2,0.6-0.4,0.7-0.4c2.2,0.2,3-0.3,3.2-2.4
			c0.2-1.7,0.2-3.4,0.5-5.1c0.3-1.9,0.7-3.8,1.3-5.7C86.9,23.7,87.4,23.4,89.2,23.9z M71.9,7.8c2-1.3,2.7-1.3,4.4,0.3
			c0.5,0.5,1.1,0.9,1.6,1.2c1,0.6,1.9,0.6,2.8-0.1c0.6-0.5,1.2-1,1.8-1.4C84.1,6.9,85.1,7,86,8.6c2,3.5,3,7.2,1.5,11.2
			c-0.2,0.5-0.5,1.1-1,1.4c-3.2,2.3-4.1,5.7-4.5,9.3c-0.2,1.4-0.1,2.9-0.2,4.3c-0.1,1.3-0.9,1.9-2.4,1.4c0-0.7-0.1-1.3-0.1-2
			c-0.2-4.5-0.3-9-0.5-13.5c-0.1-1.9-0.4-2.2-2.6-3.8c-0.3,0.8-0.7,1.5-0.8,2.3c-0.6,4.6-1.3,14.2-2,14.3c-0.7,0.1-1-1.7-0.8-2.8
			c0.5-2.8,0.9-5.7,1.2-8.5c0.5-4.3-1.6-7.2-5-9.6C69.6,10.8,70.2,9,71.9,7.8z M75.7,33.8c0.5-1.7,0.6-3.6,1.1-5.4
			c0.2,3.8,0.9,9.4,1.1,13.3c0,0.5,0,1,0,1.5C77.5,42.4,75.1,35.9,75.7,33.8z M78.3,46.6V51C77.2,49.6,77.1,48.6,78.3,46.6z
			 M45.5,34.8c1.2-1.8,2.7-3.5,4.1-5.2c1.2-1.5,1.8-3.1,1.4-5.2c-0.5-2.3-0.5-4.8,0.3-7.1c0.4-1,0.7-2.2,1.4-2.9
			c1.8-2,5-1.3,6.2,1.2c0.7,1.4,1.3,1.6,2.5,0.8c0.8-0.5,1.5-1.1,2.2-1.6c1.1-0.7,2.1-0.5,2.9,0.5c1.1,1.4,2.1,3,2,4.9
			c-0.2,3-0.2,5.9-0.7,8.9c-0.5,3.2,0.2,5.8,2.6,8.1c1.9,1.9,2.8,4.5,3.2,7.1c0.1,1-0.2,2.2-0.6,3.2c-1,2.4-0.8,4.7,0.8,6.7
			c0.7,0.9,1,1.9,1.1,3c0.5,3.4,1.4,6.8,2.7,10c1.1,2.7,1.6,5.7,2.3,8.6c0.3,1.2,0.5,2.4,0.7,3.7c0.3,2.5-1.4,9.9-3,12.7
			C75.8,86.5,73.4,81.3,71,76c-2.6-5.8-5-11.7-7.2-17.7c-1.6-4.5-2.5-9.1-2.9-13.9c-0.3-3.3-0.6-6.6,0-9.9c0.3-1.5-1.6-3.8-2.1-3.8
			c-0.6,0-1.1,2-1.4,2.8c-1.4,4-1.9,8.1-2.1,12.2C55,52.2,56,58.3,58.1,64.4c2.4,7,5.5,13.7,9.1,20.2c2.2,4,4.1,11.2,4.4,12.9
			c0.3,1.7-1,2.1-2.3,1.3c-1.2-0.9-5-2.8-7.4-4.2c-3.1-1.7-4.5-4.6-4.9-7.9c-0.3-1.9-0.3-4,0.1-5.8c1.1-5-0.7-8.8-4.3-12
			c-4.8-4.2-8.7-9.1-11.1-15.1c-0.4-1-0.7-2.2-0.6-3.2C41.4,45,42.4,39.6,45.5,34.8z M58,101.2c-3.7-1.4-6.3-3.9-8.8-6.7
			c-1.7-1.9-3.6-3.6-5.3-5.5c-2-2.3-4.8-3.5-7.2-5.1c-7.1-4.5-10.1-11.3-10.4-19.3c-0.1-2.9,0.4-6.1,2.3-8.5c3-3.9,2.8-8.1,1.2-12.3
			c-1.3-3.5-1.3-7-0.8-10.6c0.3-1.9,1.4-3.1,3-3.8c2.6-1.1,6-1.5,8,1.5c0.7,1,1.6,2,2.3,2.8c-1,3.1-2.1,6-2.9,9.1
			c-0.6,2.3-1,4.6-1.3,7c-0.1,1,0.1,2.1,0.5,3c1.9,4.7,4.3,9.3,7.6,13.2c1.7,2,3.8,3.7,5.7,5.4c2.2,1.9,2.8,4.4,2.5,7.1
			c-0.3,2.7-0.5,5.5-0.8,8.5c-1.1-1.4-2.3-2.7-3.2-4.1c-1.2-1.8-2.2-3.8-3.1-5.8c-1.4-2.8-2.9-5.5-4.1-8.4c-1.2-3.1-2.2-6.3-3.2-9.4
			c-0.3-0.9-0.6-1.8-0.8-2.7c-0.3-1.4-1.1-2.3-2.8-2.5c-0.2,0.6-0.5,1.2-0.5,1.8c0.1,2.1,0.3,4.2,0.6,6.3c0.9,6.4,3.5,12.2,6.3,18
			c2.1,4.4,5.4,8.2,8.5,12c3.3,4,7.4,7,11.4,10.1c0.3,0.2,0.3,1.1,0.3,1.6C61.3,102.9,59.8,101.8,58,101.2z M68.9,108.3
			c-0.4-1.8-1.9-2.5-3.4-3.2c0.1-0.1,0.2-0.2,0.4-0.3c1.1-1.2-1.8-4.1-2.9-5c-1.2-1.1-2.6-1.9-3.8-3c-4.7-4.1-8.6-8.9-12.3-13.9
			c-3.8-5.2-6.1-11-7.9-17c-0.9-3-2.3-6-1.9-9.9c0.4,1.2,0.7,2,0.9,2.8c1.1,5.2,3.1,10,5.3,14.8c1.5,3.3,2.6,6.8,4.9,9.8
			c1.4,1.8,2.7,3.7,4.4,5.3c1.6,1.6,3.2,3,4.4,4.9c0.7,1.1,2,1.9,3.1,2.6c2.6,1.5,5.4,2.9,8.1,4.4c2.3,1.2,5.2-0.2,5.5-2.7
			c0.1-1.3,0-2.7-0.4-4c-1.4-4.5-3-8.8-5.3-12.9c-3.4-6.2-6.4-12.5-8.5-19.3c-2.1-6.9-2.6-14-1.5-21.1c0-0.1,0.1-0.1,0.3-0.3
			c0.2,2.5,0.2,5,0.6,7.4c1.3,8.4,3.8,16.4,7.3,24.1c1.5,3.2,2.8,6.6,4.4,9.8c2.1,4.2,3.5,8.6,4.9,13c0.2,0.7,0.3,2.2,1.3,2.1
			c1-0.1,0.9-0.6,1.5-1c0.3,0.1,1.2,1.2,1.8,0.4c0.6-0.8,3-3.6,4.5-5.4c1.6-1.9,2.4-4.1,2.8-6.4c0.9-5,1.5-10.1,1.8-15.2
			c0.4-7.7,1.3-15.4,3.8-22.8c0,0.5,0.1,1,0,1.4c-2.2,8.4-3.1,17-3.1,25.7c0,5.5-0.6,10.9-2.9,16.1c-1.5,3.3-7.9,10-6.9,10.1
			c1,0.1,2.5-0.7,3.4-1.5c4.6-3.8,9.1-7.7,12.6-12.5c0.2-0.3,0.5-0.4,1.1-0.4c-1.3,1.9-2.4,3.9-3.9,5.7c-3.6,4.3-7.5,8.4-12.2,11.5
			c-0.3,0.2-0.7,0.5-1,0.7C77.3,104.7,70.8,108.7,68.9,108.3z M83,108.3c-2.1,0.3-4.2,1.2-6.5,0.6c-0.5-0.1-1.1-0.2-2-0.4
			c5.1-2.7,9.6-5.6,13.5-9.2c4.2-3.8,8-8.1,11-13c2.1-3.4,4.4-6.7,6.6-10c2.2-3.3,3.4-7,4.5-10.7c0.2-0.6,0.3-1.1,0.5-1.7
			c0.4-1.3,0-1.9-1.5-2c-3.9,8.3-15.2,24.2-19.9,27.8c1.3-2.5,2.3-4.8,2.4-7.4c0-0.5,0.6-1.1,1-1.3c3.7-2,5.8-4.8,5.6-9.2
			c0-0.2,0.1-0.5,0.3-0.9c2.2-0.3,3.8-1.3,4.6-3.6c0.7-2.1,1-4,0.3-6.2c-0.9-2.7-0.7-3.6,1.9-4.7c2.3-1,3.5-2.9,4.5-5
			c1.2-2.5,0.5-5-0.4-7.4c-1.1-3-0.6-4.4,2.4-5.7c1.1-0.5,2.3-0.7,3.4-1.2c2.6-1.1,4.9,1.4,4.6,4c-0.1,1-0.5,2-0.7,3
			c-0.5,2-0.3,4,0.7,5.9c0.8,1.6,1.6,3.2,2.3,4.8c1.3,3.4,0.9,6.8-0.1,10.2c-1.4,5.1-4.2,9.4-7.1,13.8c-2.4,3.5-5.8,5.9-8.7,9
			c-1,1.1-1.8,2.4-2.5,3.8c-1.2,2.1-2.2,4.4-3.5,6.5c-1.7,2.9-7.2,7.3-11.1,8.5C87,107.3,85,107.9,83,108.3z"/>
	</g>
	<path class="st3" d="M89.2,23.9c1.5,0.4,2.4-0.1,3.4-1c0.9-1,1.9-1.9,2.9-2.9c1.5-1.6,1.5-1.6,3.9-0.8c0.1,1.4,0.3,2.9,0.4,4.4
		c0.1,2.1,0.9,3.1,2.9,3.5c0.7,0.1,1.3,0.2,2,0.4c1.4,0.5,2.2,1.4,2.3,3c0.4,3.1-0.2,5.9-2.2,8.4c-1.4,1.8-1.7,3.5-0.8,5.7
		c1,2.1,0.8,4.6-0.1,6.7c-0.4,0.9-1.3,1.7-2.2,2.3c-2.7,1.8-3.9,4.2-3.2,7.4c0.2,0.7,0.1,1.5,0.2,2.3c0.2,1.8-0.4,3.1-1.9,4.1
		c-0.7,0.5-1.4,1-2,1.6c-1.1,1-1.5,2.1-1.2,3.7c0.3,1.5,0.4,3-1.4,4.5c0-1.1,0-1.8,0-2.5c0.4-5.8,0.6-11.7,1.2-17.5
		c0.3-2.8,1.2-5.6,1.8-8.4c0.7-3.8,2.2-7.5,1.5-11.5c-0.1-0.9,0-1.9,0.3-2.8c0.6-1.7-0.5-2.4-1.8-3.4c-0.2,0.5-0.5,0.9-0.5,1.2
		c-0.1,2.3-0.7,4.5-1.7,6.6c-3.4,7.1-4.9,14.6-5.5,22.4c-0.5,6.8-1.2,13.5-2.1,20.3c-0.3,2.2,0.1,3.6-1.2,5.7
		c-0.9,1.4-3.7,4.5-3.7,4.5c0.8-1.2,2.8-5.6,3.1-6.4c1.9-5.9,1-11.8-0.4-17.6c-1-4.1-2.4-8.1-3.7-12.4c1.5-1.2,1.6-3.1,1.5-4.9
		c-0.1-2.3-0.3-4.6-0.4-6.8c-0.1-1.6,0-3.2,0-4.6c0.4-0.2,0.6-0.4,0.7-0.4c2.2,0.2,3-0.3,3.2-2.4c0.2-1.7,0.2-3.4,0.5-5.1
		c0.3-1.9,0.7-3.8,1.3-5.7C86.9,23.7,87.4,23.4,89.2,23.9z"/>
	<path class="st3" d="M71.9,7.8c2-1.3,2.7-1.3,4.4,0.3c0.5,0.5,1.1,0.9,1.6,1.2c1,0.6,1.9,0.6,2.8-0.1c0.6-0.5,1.2-1,1.8-1.4
		C84.1,6.9,85.1,7,86,8.6c2,3.5,3,7.2,1.5,11.2c-0.2,0.5-0.5,1.1-1,1.4c-3.2,2.3-4.1,5.7-4.5,9.3c-0.2,1.4-0.1,2.9-0.2,4.3
		c-0.1,1.3-0.9,1.9-2.4,1.4c0-0.7-0.1-1.3-0.1-2c-0.2-4.5-0.3-9-0.5-13.5c-0.1-1.9-0.4-2.2-2.6-3.8c-0.3,0.8-0.7,1.5-0.8,2.3
		c-0.6,4.6-1.3,14.2-2,14.3c-0.7,0.1-1-1.7-0.8-2.8c0.5-2.8,0.9-5.7,1.2-8.5c0.5-4.3-1.6-7.2-5-9.6C69.6,10.8,70.2,9,71.9,7.8z"/>
	<path class="st3" d="M45.5,34.8c1.2-1.8,2.7-3.5,4.1-5.2c1.2-1.5,1.8-3.1,1.4-5.2c-0.5-2.3-0.5-4.8,0.3-7.1c0.4-1,0.7-2.2,1.4-2.9
		c1.8-2,5-1.3,6.2,1.2c0.7,1.4,1.3,1.6,2.5,0.8c0.8-0.5,1.5-1.1,2.2-1.6c1.1-0.7,2.1-0.5,2.9,0.5c1.1,1.4,2.1,3,2,4.9
		c-0.2,3-0.2,5.9-0.7,8.9c-0.5,3.2,0.2,5.8,2.6,8.1c1.9,1.9,2.8,4.5,3.2,7.1c0.1,1-0.2,2.2-0.6,3.2c-1,2.4-0.8,4.7,0.8,6.7
		c0.7,0.9,1,1.9,1.1,3c0.5,3.4,1.4,6.8,2.7,10c1.1,2.7,1.6,5.7,2.3,8.6c0.3,1.2,0.5,2.4,0.7,3.7c0.3,2.5-1.4,9.9-3,12.7
		C75.8,86.5,73.4,81.3,71,76c-2.6-5.8-5-11.7-7.2-17.7c-1.6-4.5-2.5-9.1-2.9-13.9c-0.3-3.3-0.6-6.6,0-9.9c0.3-1.5-1.6-3.8-2.1-3.8
		c-0.6,0-1.1,2-1.4,2.8c-1.4,4-1.9,8.1-2.1,12.2C55,52.2,56,58.3,58.1,64.4c2.4,7,5.5,13.7,9.1,20.2c2.2,4,4.1,11.2,4.4,12.9
		c0.3,1.7-1,2.1-2.3,1.3c-1.2-0.9-5-2.8-7.4-4.2c-3.1-1.7-4.5-4.6-4.9-7.9c-0.3-1.9-0.3-4,0.1-5.8c1.1-5-0.7-8.8-4.3-12
		c-4.8-4.2-8.7-9.1-11.1-15.1c-0.4-1-0.7-2.2-0.6-3.2C41.4,45,42.4,39.6,45.5,34.8z"/>
	<path class="st3" d="M58,101.2c-3.7-1.4-6.3-3.9-8.8-6.7c-1.7-1.9-3.6-3.6-5.3-5.5c-2-2.3-4.8-3.5-7.2-5.1
		c-7.1-4.5-10.1-11.3-10.4-19.3c-0.1-2.9,0.4-6.1,2.3-8.5c3-3.9,2.8-8.1,1.2-12.3c-1.3-3.5-1.3-7-0.8-10.6c0.3-1.9,1.4-3.1,3-3.8
		c2.6-1.1,6-1.5,8,1.5c0.7,1,1.6,2,2.3,2.8c-1,3.1-2.1,6-2.9,9.1c-0.6,2.3-1,4.6-1.3,7c-0.1,1,0.1,2.1,0.5,3
		c1.9,4.7,4.3,9.3,7.6,13.2c1.7,2,3.8,3.7,5.7,5.4c2.2,1.9,2.8,4.4,2.5,7.1c-0.3,2.7-0.5,5.5-0.8,8.5c-1.1-1.4-2.3-2.7-3.2-4.1
		c-1.2-1.8-2.2-3.8-3.1-5.8c-1.4-2.8-2.9-5.5-4.1-8.4c-1.2-3.1-2.2-6.3-3.2-9.4c-0.3-0.9-0.6-1.8-0.8-2.7c-0.3-1.4-1.1-2.3-2.8-2.5
		c-0.2,0.6-0.5,1.2-0.5,1.8c0.1,2.1,0.3,4.2,0.6,6.3c0.9,6.4,3.5,12.2,6.3,18c2.1,4.4,5.4,8.2,8.5,12c3.3,4,7.4,7,11.4,10.1
		c0.3,0.2,0.3,1.1,0.3,1.6C61.3,102.9,59.8,101.8,58,101.2z"/>
	<path class="st3" d="M83,108.3c-2.1,0.3-4.2,1.2-6.5,0.6c-0.5-0.1-1.1-0.2-2-0.4c5.1-2.7,9.6-5.6,13.5-9.2c4.2-3.8,8-8.1,11-13
		c2.1-3.4,4.4-6.7,6.6-10c2.2-3.3,3.4-7,4.5-10.7c0.2-0.6,0.3-1.1,0.5-1.7c0.4-1.3,0-1.9-1.5-2c-3.9,8.3-15.2,24.2-19.9,27.8
		c1.3-2.5,2.3-4.8,2.4-7.4c0-0.5,0.6-1.1,1-1.3c3.7-2,5.8-4.8,5.6-9.2c0-0.2,0.1-0.5,0.3-0.9c2.2-0.3,3.8-1.3,4.6-3.6
		c0.7-2.1,1-4,0.3-6.2c-0.9-2.7-0.7-3.6,1.9-4.7c2.3-1,3.5-2.9,4.5-5c1.2-2.5,0.5-5-0.4-7.4c-1.1-3-0.6-4.4,2.4-5.7
		c1.1-0.5,2.3-0.7,3.4-1.2c2.6-1.1,4.9,1.4,4.6,4c-0.1,1-0.5,2-0.7,3c-0.5,2-0.3,4,0.7,5.9c0.8,1.6,1.6,3.2,2.3,4.8
		c1.3,3.4,0.9,6.8-0.1,10.2c-1.4,5.1-4.2,9.4-7.1,13.8c-2.4,3.5-5.8,5.9-8.7,9c-1,1.1-1.8,2.4-2.5,3.8c-1.2,2.1-2.2,4.4-3.5,6.5
		c-1.7,2.9-7.2,7.3-11.1,8.5C87,107.3,85,107.9,83,108.3z"/>
	<path d="M77.2,159.6c-7.8,0-13.1-7.7-10.4-15.2c0.7-2,2.4-3.7,4-5.2c1.2-1.2,2.2-2.6,2.2-4.1c0-2.8,1.7-4.5,3.5-6
		c2.9-2.3,5.8-4.7,9.8-5.1c0.6-0.1,1.2-0.2,1.8-0.1c4.2,0.4,8.4,1,12.2,2.7c4.6,2.1,8.4,5.2,9.9,10.3c0.9,3.3,0.1,6.4-2,9.3
		c-2.9,4-6.8,5.5-11.3,5.8c-5,0.3-9.1,2.6-13,5.4C81.5,159,79.5,159.7,77.2,159.6 M93.9,132.9c-2.2,0.5-5.9,4.1-6.2,4.2
		c-1.8,1.1-3.5,2.3-5.3,3.4c-2.1,1.3-4.5,2.4-6.4,4.1c-3,2.6-4.3,6-3.2,10c0.3,1,0.9,1.6,1.8,1.9c2.6,0.6,5,0.6,7.3-1.1
		c1.6-1.2,3.4-2.2,5.1-3.3c2.9-1.7,5.9-2.8,9.4-2.9c1.9-0.1,3.8-0.7,5.6-1.3c3.1-1.1,4.4-3.6,4.9-6.7c0.4-2.4-0.4-4.1-2.1-5.6
		C102.4,133.4,97.3,132.2,93.9,132.9z"/>
	<path d="M23.5,150.6c-5.8,0.9-8.9-6.7-7.5-10.7c1.4-3.9,9-6.7,11.2-6.9c4-0.2,6.9,2.1,8.2,5.9c0.8,2.5,0.1,4.8-0.8,7.1
		c-0.2,0.4-0.5,0.7-0.8,1C30.6,149.2,27.5,151.3,23.5,150.6 M22.8,147.9c3.6,0.3,5.9-0.3,8.5-2.3c1.6-1.2,2.6-4.4,1.9-6.2
		c-0.5-1.5-1-1.8-2.7-1.6C25.7,138.2,22.1,142.8,22.8,147.9"/>
	<path class="st6" d="M22.8,147.9c3.6,0.3,5.9-0.3,8.5-2.3c1.6-1.2,2.6-4.4,1.9-6.2c-0.5-1.5-1-1.8-2.7-1.6
		C25.7,138.2,22.1,142.8,22.8,147.9"/>
	<path class="st6" d="M93.9,132.9c-2.2,0.5-5.9,4.1-6.2,4.2c-1.8,1.1-3.5,2.3-5.3,3.4c-2.1,1.3-4.5,2.4-6.4,4.1c-3,2.6-4.3,6-3.2,10
		c0.3,1,0.9,1.6,1.8,1.9c2.6,0.6,5,0.6,7.3-1.1c1.6-1.2,3.4-2.2,5.1-3.3c2.9-1.7,5.9-2.8,9.4-2.9c1.9-0.1,3.8-0.7,5.6-1.3
		c3.1-1.1,4.4-3.6,4.9-6.7c0.4-2.4-0.4-4.1-2.1-5.6C102.4,133.4,97.3,132.2,93.9,132.9z"/>
</g>
</svg>
