<?xml version="1.0" encoding="utf-8"?>
<!-- Generator: Adobe Illustrator 19.1.0, SVG Export Plug-In . SVG Version: 6.00 Build 0)  -->
<svg version="1.1" id="Calque_1" xmlns="http://www.w3.org/2000/svg" xmlns:xlink="http://www.w3.org/1999/xlink" x="0px" y="0px"
	 viewBox="0 0 154.9 252.5" style="enable-background:new 0 0 154.9 252.5;" xml:space="preserve">
<style type="text/css">
	.st0{display:none;fill:#F7B5AC;}
	.st1{fill:#F7B5AC;}
	.st2{fill:#EB5C5F;}
	.st3{fill:#84B974;}
	.st4{fill:#010202;}
	.st5{fill:#AB7613;}
	.st6{fill:#C0BFBF;}
	.st7{fill:#6FA4C3;}
	.st8{fill:#1E1E1C;}
	.st9{fill:none;}
	.st10{fill:none;stroke:#EB5C5F;stroke-width:3;stroke-miterlimit:10;}
	.st11{fill:none;stroke:#6FA4C3;stroke-width:3;stroke-miterlimit:10;}
	.st12{fill:none;stroke:#84B974;stroke-width:3;stroke-miterlimit:10;}
	.st13{fill:none;stroke:#C0BFBF;stroke-width:3;stroke-miterlimit:10;}
	.st14{fill:none;stroke:#F7B5AC;stroke-width:3;stroke-miterlimit:10;}
</style>
<g>
	<path class="st3" d="M91.5,78.1c-0.9-4.4,0.2-8.1,3-11.1c1.3-1.4,2.9-2.6,4.5-3.6c1.3-0.8,1.8-1.7,1.3-3.1
		c-1.1-3.1-2.4-6.2-4.9-8.5c-3.7-3.2-7.8-6-12.5-7.5c-3.8-1.2-7.7-1.2-11.1,1.2C66,49.7,61.4,57.7,61.3,62.3c-0.1,4.6-0.1,2,0.2,3
		c1.9,7.9,5.9,11,14,13C80.7,79.6,85.9,78.4,91.5,78.1"/>
	<path class="st3" d="M90.9,168.3c2.7-11,4.5-21.9,4.7-33.1c-3.1,3.9-5.9,7.7-8.9,11.4c-2.4,3-5,5.9-7.5,8.9
		c-0.6,0.8-1.3,1.7-1.4,2.6c-0.1,2.3,0.2,4.7,0.3,7C82.5,166.1,86.5,167.1,90.9,168.3"/>
	<path class="st3" d="M65.9,78.9c-0.7,1.6-1.3,2.9-1.7,4.3c-1.5,5.2,0.4,9.7,3.2,13.8c1.8,2.7,5.1,3.1,8.2,1.9
		c1.9-0.8,2.4-2.5,3.6-3.7c3.5-3.7,4.7-8.2,5.9-12.8c-3.5-0.2-6.6-0.2-9.5-0.7C72.5,81,69.5,79.9,65.9,78.9"/>
	<path class="st3" d="M67.7,173.7c1.4,10,2.8,19.4,4.1,28.9c1.2,9.4,2,18.8,3.8,28.1c1-5.2,0.1-49.6-0.9-55.1
		C72.5,174.9,70.2,174.4,67.7,173.7"/>
	<path class="st3" d="M67.3,101.1c-0.1,5.2-0.1,9.9-0.3,14.5c-0.2,4.7-0.6,9.4-0.8,14.1c3.2-3.2,5.9-6.6,8.5-10
		c0.6-0.8,0.8-1.8,1-2.8c0.6-3.6,1.1-7.2,1.6-10.8c0.2-1.5,0.4-3,0.6-4.7C74.1,102.4,70.8,103.4,67.3,101.1"/>
	<path class="st3" d="M85.6,109.3c-1.8-2.3-1.4-4.7-0.4-6.8c1.6-3.4,3.5-6.6,7.1-8.4c1.4-0.7,2.7-1.5,4.4-2.5c-0.1-1.4,0-3-0.5-4.3
		c-0.9-2-2.3-3.9-3.4-5.6c-1.3,0-2.5,0.1-3.6,0.1c-1,4.4-2.1,8.7-4.6,12.5c-1,1.5-2,3.1-2.4,4.9c-0.9,4.5-1.4,9.1-2.1,14
		C81.9,111.8,83.6,110.7,85.6,109.3"/>
	<path class="st3" d="M79.3,197.4c2.9-6.2,7.1-11.7,8.3-18.6c-3-0.8-5.8-1.6-8.7-2.3C79,183.6,79.2,190.5,79.3,197.4"/>
	<path class="st3" d="M74.6,160.1c-1.6,1.2-2.9,2.2-4.7,3.5c2,0.4,3.2,0.7,4.6,1C74.5,163,74.5,161.8,74.6,160.1"/>
	<path d="M79,40.2c6.1,0.1,11.1,3.1,15.9,6.7c5,3.7,8.4,8.2,9.1,14.6c4.1,0.4,8.5,0.9,12.9,1.3c1.4-3.2-0.9-7.2,1.9-10.1
		c2.5-0.2,3.3,1.3,3.2,3.2c-0.2,4.1,0.6,11.4-0.8,12.5c-1.4,1.1-14.5,1.4-15,3c-0.5,1.6,2,4,3.1,6c2.7,4.9,0,11-5.5,12.4
		c-1.1,0.3-2.4,0.1-3.9,0.1c0.4,0.6,0.5,1.1,0.9,1.4c0.6,0.4,1.2,0.6,1.9,0.8c5.3,1.3,6.9,8.3,3.2,12.8c-1,1.2-2.2,2.2-3.7,3.7
		c3.9,1.1,7.4,2.3,11,3.1c2.1,0.4,3.3,1.3,3.6,3.3c1,6.3,3.3,17.7,3,19c-0.3,1.3-2.3,2.6-3.2,1.6c-0.9-0.9-1.3-8.4-1.9-12.9
		c-4.4-0.7-8.8-1.4-13.2-2c-0.7,2-1.3,3.9-1.9,5.8c-0.3,0.9-0.6,1.8-0.5,2.7c0.5,12.1-1,24.1-3.5,35.9c-0.3,1.3-0.5,2.7-0.8,4.3
		c2.2,0.9,4.4,1.8,6.6,2.5c5.3,1.6,10.1,4.1,14.7,7c0.8,0.5,1.4,1.4,1.9,2.3c1.8,3.2,2.2,6.7,2.2,10.2c0,6.4,0.9,17.9-0.3,19.5
		c-1.2,1.5-2.8,1.7-3.4,0.3s0.7-25.4-0.3-26c-2-1.2-10-2.7-14.6-3.7c-3.2-0.7-6.5-1.1-9.9-1.7c-1.1,2.8-2.1,5.6-3.3,8.2
		c-1.6,3.4-3.3,6.8-5,10.1c-0.6,1-1.5,2.1-2.5,2.6c-1.3,0.6-1.5,1.5-1.5,2.7c0.2,7.5,0.4,15,0.5,22.5c0.1,5.5-0.5,13.2-0.1,16.4
		c0.4,4-5.3,4.2-5.8,0.5c-0.5-3.7-1.6-10.8-2.3-16.2c-1-7.1-1.9-14.2-2.8-21.3c-0.9-6.9-1.9-13.8-2.9-20.7
		c-0.6-3.9-1.2-7.9-1.7-11.9c-1.4-0.8-2.8-1.5-4.1-2.4c-2.4-1.7-4.2-3.8-4-7c0.5-6.9,6.2-29.5,6.7-34.2c0.5-5.8,1-11.6,1.2-17.4
		c0.1-4.5,0-9.1-0.4-13.6c-0.2-1.8-1.5-3.5-2.1-5.4c-1.7-5.6-1.5-10.9,2-15.5c-1.4-2.5-2.9-4.8-4.2-7.3c-2.9-5.7-1.6-11.1,1.3-16.3
		c2.2-3.8,4.2-7.8,8.1-10.4c0.7-0.5,1.2-2,1.1-3c-0.6-6.1-1.3-12.3-6.4-16.8c-0.7-0.7-1.4-1.4-2.3-1.9c-2.5-1.2-3.1-1-5.1,0.9
		c-3,2.8-4.5,6.2-5.1,10.2c-1.8,10.8-2.8,21.7-3,32.6c-0.1,9.1-0.5,18.2-0.1,27.3c0.7,13.5,1.1,27,1.5,40.5
		c0.2,6.4,0.4,12.7,0.6,19.1c0.1,1.9-0.6,1.9-1.9,2.1c-1.4,0.2-1.6-1.5-1.6-2.4c-0.3-9.8-0.5-19.6-0.7-29.3
		c-0.2-8.1-0.3-16.1-0.5-24.2c-0.1-4.7-0.7-9.3-0.7-14c0-9,0.1-18,0.6-27c0.4-7.7,1.4-15.4,2.2-23.1c0.5-4.5,2-8.7,5.1-12.1
		c0.9-1,1.9-2,3.1-2.7c3.6-2.1,6.5-1.6,10,1.2c4.2,3.4,6.2,8,7.1,13.2c0.4,2.2,0.6,4.4,0.9,6.8c0.9-0.1,1.5-0.3,2.4-0.4
		c-0.1-0.5-0.2-8.1-0.5-11.5c-0.5-5.3-1.7-10.6-5-15c-1.8-2.4-3.7-4.9-7.2-5.3c-3.7-0.4-6.6,1.3-8.8,3.7
		c-5.8,6.5-9.2,14.3-11.8,22.4c-3.1,9.4-4.1,19.1-5.1,28.9c-1.5,14.5-1.5,29.1-0.9,43.7c0.5,11.2,0.5,22.3,1.2,33.5
		c0.5,8.7,1.7,17.4,2.4,26.2c0.5,5.9,0.9,11.8,1.4,17.7c0,0.6,0.7,3.2-1.9,3.2c-1.6,0-1.7-2.9-1.8-3.7c-1.1-13.2-2.3-26.3-3.1-39.5
		c-0.8-12.5-1.3-25.1-1.6-37.6c-0.2-10.1-0.5-20.3,0.1-30.4c0.7-11.2,1.7-22.5,3.8-33.6c2.1-10.9,6.2-21.2,13-30.2
		c4.3-5.7,11.4-7.3,16.7-6.3c2.8,0.6,4.4,2.8,6,4.8c3.9,5.1,5.6,11.1,6.1,17.5C79.1,32.6,79,36.3,79,40.2 M91.5,78.1
		c-0.9-4.4,0.2-8.1,3-11.1c1.3-1.4,2.9-2.6,4.5-3.6c1.3-0.8,1.8-1.7,1.3-3.1c-1.1-3.1-2.4-6.2-4.9-8.5c-3.7-3.2-7.8-6-12.5-7.5
		c-3.8-1.2-7.7-1.2-11.1,1.2C66,49.7,61.4,57.7,61.3,62.3c-0.1,4.6-0.1,2,0.2,3c1.9,7.9,5.9,11,14,13C80.7,79.6,85.9,78.4,91.5,78.1
		 M90.9,168.3c2.7-11,4.5-21.9,4.7-33.1c-3.1,3.9-5.9,7.7-8.9,11.4c-2.4,3-5,5.9-7.5,8.9c-0.6,0.8-1.3,1.7-1.4,2.6
		c-0.1,2.3,0.2,4.7,0.3,7C82.5,166.1,86.5,167.1,90.9,168.3 M65.9,78.9c-0.7,1.6-1.3,2.9-1.7,4.3c-1.5,5.2,0.4,9.7,3.2,13.8
		c1.8,2.7,5.1,3.1,8.2,1.9c1.9-0.8,2.4-2.5,3.6-3.7c3.5-3.7,4.7-8.2,5.9-12.8c-3.5-0.2-6.6-0.2-9.5-0.7C72.5,81,69.5,79.9,65.9,78.9
		 M67.7,173.7c1.4,10,2.8,19.4,4.1,28.9c1.2,9.4,2,18.8,3.8,28.1c1-5.2,0.1-49.6-0.9-55.1C72.5,174.9,70.2,174.4,67.7,173.7
		 M67.3,101.1c-0.1,5.2-0.1,9.9-0.3,14.5c-0.2,4.7-0.6,9.4-0.8,14.1c3.2-3.2,5.9-6.6,8.5-10c0.6-0.8,0.8-1.8,1-2.8
		c0.6-3.6,1.1-7.2,1.6-10.8c0.2-1.5,0.4-3,0.6-4.7C74.1,102.4,70.8,103.4,67.3,101.1 M84.8,109.9c-0.9-3.1-0.6-5.3,0.4-7.4
		c1.6-3.4,3.5-6.6,7.1-8.4c1.4-0.7,2.7-1.5,4.4-2.5c-0.1-1.4,0-3-0.5-4.2c-0.9-2-2.3-3.9-3.4-5.6c-1.3,0-2.5,0.1-3.6,0.1
		c-1,4.4-2.1,8.7-4.6,12.5c-1,1.5-2,3.1-2.4,4.9c-0.9,4.5-1.4,9.1-2.1,14C81.9,111.8,82.8,111.3,84.8,109.9 M79.3,197.4
		c2.9-6.2,7.1-11.7,8.3-18.6c-3-0.8-5.8-1.6-8.7-2.3C79,183.6,79.2,190.5,79.3,197.4 M74.6,160.1c-1.6,1.2-2.9,2.2-4.7,3.5
		c2,0.4,3.2,0.7,4.6,1C74.5,163,74.5,161.8,74.6,160.1"/>
	<path d="M72.9,59.5c-2.2-1.8-2.5-3.9-0.4-5.8c1.5-1.3,3.4-2.5,5.2-2.9c3.5-0.8,7.2-1.4,10.3,1.5c1.9,1.8,2.3,4.7,0.6,6.5
		C85.7,61.8,76.1,62.2,72.9,59.5"/>
	<path class="st3" d="M86.8,113.2c0,0,3,4.4,9.9,6.9c0,0-0.9,14.4-29,40c0,0-5.9,4.3,0,6c5.9,1.8,46.4,10.8,46.4,14.5
		c0,2.3-48.3-8.1-54.7-15.2C56.1,161.6,65.8,128.9,86.8,113.2"/>
	<path class="st3" d="M100.4,94.6c4.2,0.5,5.7,3.5,3.7,6.5c-2,3-6.4,5-6,7c0.6,3,15,4.6,15.8,6.4c0.9,2.1,1.5,6.1-0.8,5.9
		s-23.8-2-25.5-12.9C85.9,96.6,100.4,94.6,100.4,94.6"/>
	<path class="st3" d="M105.3,86.1c2.1-1.6,2.7-4,2-6.6c-0.7-2.5-4.7-7-4.2-8.9c0.6-2.5,12.9-2.9,14-3.1c1.1-0.2,2.5-2-3.3-2.4
		c-7-0.5-10.5-0.8-13.2,0.6c-2.7,1.5-6.4,3.1-6.5,8.1c-0.1,5,2.1,7.7,4.7,11.4C100.3,87.1,103.2,87.7,105.3,86.1"/>
</g>
</svg>
