<?xml version="1.0" encoding="utf-8"?>
<!-- Generator: Adobe Illustrator 19.1.0, SVG Export Plug-In . SVG Version: 6.00 Build 0)  -->
<svg version="1.1" id="Calque_1" xmlns="http://www.w3.org/2000/svg" xmlns:xlink="http://www.w3.org/1999/xlink" x="0px" y="0px"
	 viewBox="0 0 141.5 128.8" style="enable-background:new 0 0 141.5 128.8;" xml:space="preserve">
<style type="text/css">
	.st0{display:none;fill:#F7B5AC;}
	.st1{fill:#F7B5AC;}
	.st2{fill:#EB5C5F;}
	.st3{fill:#84B974;}
	.st4{fill:#010202;}
	.st5{fill:#AB7613;}
	.st6{fill:#C0BFBF;}
	.st7{fill:#6FA4C3;}
	.st8{fill:#1E1E1C;}
	.st9{fill:none;}
	.st10{fill:none;stroke:#EB5C5F;stroke-width:3;stroke-miterlimit:10;}
	.st11{fill:none;stroke:#6FA4C3;stroke-width:3;stroke-miterlimit:10;}
	.st12{fill:none;stroke:#84B974;stroke-width:3;stroke-miterlimit:10;}
	.st13{fill:none;stroke:#C0BFBF;stroke-width:3;stroke-miterlimit:10;}
	.st14{fill:none;stroke:#F7B5AC;stroke-width:3;stroke-miterlimit:10;}
</style>
<g>
	<path class="st2" d="M121.2,40.2c-0.9-7.1-3.2-13.5-7.6-19c-2.9-3.6-6.7-6.2-10.8-8.4c-2-1.1-4.4-1.9-6.1-3.3
		c-4.5-3.7-10-5.4-15.4-7c-2.5-0.8-13.8-0.1-14.9-0.1c-2.2,0.1-4.5,0.2-6.7,0.5c-2.6,0.3-5.1,0.7-7.6,1.4C50,5,47.9,6,46,7.1
		c-3,1.7-6,3.3-8.7,5.4c-2.9,2.2-5.5,4.6-8,7.2c-1.8,1.9-3.4,4.1-4.6,6.5c-1.8,3.5-2.8,7.3-3.5,11.2c-1.3,7.1-1.5,14.1,0.9,21
		c1.4,4,3.1,7.9,6.7,10.7c4.6,3.5,9,7.1,14.8,8.5c3.3,0.8,6.5,2,9.8,2.9c2.3,0.7,4.6,1.4,7,1.7c3.4,0.5,6.8,0.6,10.2,0.9
		c8.8,0,17.3-1.6,25.6-4.4c4.7-1.6,9.1-3.7,13.4-6.1c6.1-3.3,9-10,9.8-12.8C121.2,53.4,122,47,121.2,40.2z M83.6,67.9
		c-4.6,4.8-9.1,6.8-18.6,6.5c-2.1-0.3-5.6-0.8-8.6-2.6c-2.3-1.4-4-2.7-5.3-4.7c-1-1.6-1.2-3.3-0.7-5.2c1-3.6,3.2-6.1,6.3-8
		c4.1-2.5,8.6-3.2,13.3-3c5.5,0.2,9.6,3.5,13.6,6.8C86.2,60,86,65.4,83.6,67.9z M94.7,57.7c-1.4,0.1-2.1-0.5-2.3-2
		c-0.3-2.1,0.7-3.8,1.9-5.9c0.7,2.1,1.4,3.8,1.8,5.5C96.4,56.8,95.8,57.6,94.7,57.7z"/>
	<path class="st2" d="M128.5,114.1c2-1.2-0.9-7-0.9-9.4c0.1-9.2-2.8-17.4-8.1-24.8c-1.1-1.6-2.6-3-4.1-4.6c-0.4,0.3-0.9,0.6-1.3,1
		c-3.7,3.4-8.2,5.3-12.7,7.3C96.3,86,91,87.6,85.4,88.2c-3.8,0.4-13.3,1.3-14.3,1.2C62.2,88.5,53.3,87.5,45,84c-2.3-1-4.7-1.7-7-2.8
		c-2.3-1-4.6-2.1-6.6-3.5c-2-1.3-3.7-3.1-5.6-4.7c-3.4,2.3-6.4,5.3-9,8.7c-6.4,8.1-12.8,23.8-13.5,27.2c-0.4,2.2-2.8,4.5-1.5,5.1
		C29.3,127.7,87.7,139,128.5,114.1z"/>
	<path class="st2" d="M130.2,18.4c0.1-1.7-0.5-3.2-1.8-4.4c-2.1-2-4.5-3.5-7.2-4.3c-5.4-1.6-10.8-3.4-16.5-4
		c-3.5-0.4-7-0.8-10.5-1.2c0.6,0.8,1.2,1.4,1.9,1.8c2.7,1.5,5.3,3.1,8,4.6c1.5,0.8,3.1,1.6,4.7,2.3c2.4,1.1,5,2.1,7.3,3.4
		c3.3,1.9,6.9,2.5,10.5,2.8C127.8,19.5,129.1,19.6,130.2,18.4"/>
	<path class="st2" d="M39.7,7.2L39.5,7c-0.2,0.1-0.5,0.1-0.7,0.2c-4.4,1.9-8.9,3.7-13.3,5.7c-5.9,2.6-11.2,6.2-16,10.5
		c-1.5,1.3-2.8,2.8-3.2,5c-0.3,1.6,0.7,3,2.3,3.3c2.3,0.5,4.3-0.5,6-1.9c2.1-1.7,4.1-3.6,6.1-5.5c1.5-1.4,3.2-2.7,4.5-4.3
		c3.7-4.6,7.8-8.7,13-11.5C38.6,8,39.1,7.6,39.7,7.2"/>
	<path d="M113,17.7c3.4,3.9,5.9,7.7,7.5,12c1.6,4.1,2.5,8.4,2.9,12.9c0.4,5.1-0.5,10-1.2,14.9c-0.3,2.3-4.7,12.2-6.6,13.3
		c3.1,3.5,6,6.9,8.9,10.2c0.7-1.5,1.6-3.1,2.3-4.7c0.2-0.6,0.3-1.3,0.2-1.9c-0.5-2.9,0.1-5.6,1.7-8.1c0.5-0.8,0.6-1.5,0.3-2.3
		c-0.7-2.4-0.7-4.9-0.3-7.4c0.3-2,4.7-8.9,5.9-9c1.2-0.1,1.8,0.8,2.1,1.4c0.3,0.6-6.2,4-5.5,14.5c2.2-2.2,5.4-1.7,6.3-1.2
		c1.7,0.9,2.9,1.6,3.6,3.1c0.8,1.8-0.1,3.5-2.1,4.1c-3,0.9-5.6,0.3-7.9-2c-1.8,1.7-1.6,3.9-1.9,5.7c1.8-0.4,3,0.2,4.4,0.7
		c1.8,0.6,2.9,1.8,3.8,3.4c1.1,2.1,0.9,3.7-0.8,5.2c-1.3,1.2-3.9,1.5-5.3,0.3c-1.2-1-2.2-2.2-3.4-3.5c-1.4,2.6-1.6,5.3-0.6,7.9
		c2.2,6.1,3.8,12.2,4.2,18.7c0.2,2.5,0,6.2,0,7.4c-0.1,1.3-2.1,0.9-2.6,1c-1.7,0.3-1.5-0.6-1.5-2.3c0-2.3,0-4.7,0-7
		c0.1-9.2-2.8-17.4-8.1-24.8c-1.1-1.6-2.6-3-4.1-4.6c-0.4,0.3-0.9,0.6-1.3,1c-3.7,3.4-8.2,5.3-12.7,7.3C96.3,86,91,87.6,85.4,88.2
		c-3.8,0.4-13.3,1.3-14.3,1.2C62.2,88.5,53.3,87.5,45,84c-2.3-1-4.7-1.7-7-2.8c-2.3-1-4.6-2.1-6.6-3.5c-2-1.3-3.7-3.1-5.6-4.7
		c-3.4,2.3-6.4,5.3-9,8.7c-6.4,8.1-12.8,23.8-13.5,27.2c-0.4,2.2,0,5.1-1.5,5.1c-1.5,0-2-2.1-1.6-3.5c0.4-1.9,0.9-3.8,1.6-5.5
		c1.9-4.9,3.8-9.8,6.1-14.5c4.3-8.5,10.4-15.5,18.2-21c-1-1.4-2.1-2.8-2.9-4.2c-4.3-7.4-5.6-15.5-4.8-23.9c0.4-4.2,1.3-8.2,2.6-12.2
		c0.2-0.4,0.2-0.9,0.5-1.9c-1.9,1.5-3.3,2.9-4.9,3.9c-1.5,1-3.1,1.9-4.8,2.5c-2.5,0.8-4.9-0.3-6.6-2.9c-1.3-2-1.5-4.1,0.1-6
		c1.5-1.8,3-3.6,4.7-5.1c5.1-4.2,10.8-7.6,16.9-10.2c3.9-1.7,7.8-3.4,11.8-4.8c2.3-0.8,4.9-1.8,7.2-1.6c2.4,0.2,4.3-1,6.5-1.3
		c3-0.5,6.1-1.1,9.1-1.3C65.7,0.1,70,0,74.4,0c3.3,0,6.6,0.4,9.9,0.7C89.5,1.3,94.7,2,99.9,2.4c5.9,0.5,11.7,1.8,17.4,3.5
		c1.2,0.4,2.4,0.7,3.6,1c3.5,0.9,6.5,2.7,9.1,5.1c1.8,1.7,2.3,4,2.6,6.4c0.2,1.8-1.5,3.4-3.6,3.4c-2.2,0.1-4.5-0.1-6.7-0.5
		c-2.5-0.5-5.1-0.9-7.2-2.7C114.6,18.3,114,18.2,113,17.7 M70.7,83c8.8,0,17.3-1.6,25.6-4.4c4.7-1.6,9.1-3.7,13.4-6.1
		c6.1-3.3,9-10,9.8-12.8c1.8-6.3,2.6-12.8,1.7-19.5c-0.9-7.1-3.2-13.5-7.6-19c-2.9-3.6-6.7-6.2-10.8-8.4c-2-1.1-4.4-1.9-6.1-3.3
		c-4.5-3.7-10-5.4-15.4-7c-2.5-0.8-13.8-0.1-14.9-0.1c-2.2,0.1-4.5,0.2-6.7,0.5c-2.6,0.3-5.1,0.7-7.6,1.4C50,5,47.9,6,46,7.1
		c-3,1.7-6,3.3-8.7,5.4c-2.9,2.2-5.5,4.6-8,7.2c-1.8,1.9-3.4,4.1-4.6,6.5c-1.8,3.5-2.8,7.3-3.5,11.2c-1.3,7.1-1.5,14.1,0.9,21
		c1.4,4,3.1,7.9,6.7,10.7c4.6,3.5,9,7.1,14.8,8.5c3.3,0.8,6.5,2,9.8,2.9c2.3,0.7,4.6,1.4,7,1.7C63.8,82.6,67.3,82.7,70.7,83
		 M130.2,18.4c0.1-1.7-0.5-3.2-1.8-4.4c-2.1-2-4.5-3.5-7.2-4.3c-5.4-1.6-10.8-3.4-16.5-4c-3.5-0.4-7-0.8-10.5-1.2
		c0.6,0.8,1.2,1.4,1.9,1.8c2.7,1.5,5.3,3.1,8,4.6c1.5,0.8,3.1,1.6,4.7,2.3c2.4,1.1,5,2.1,7.3,3.4c3.3,1.9,6.9,2.5,10.5,2.8
		C127.8,19.5,129.1,19.6,130.2,18.4 M39.7,7.2L39.5,7c-0.2,0.1-0.5,0.1-0.7,0.2c-4.4,1.9-8.9,3.7-13.3,5.7
		c-5.9,2.6-11.2,6.2-16,10.5c-1.5,1.3-2.8,2.8-3.2,5c-0.3,1.6,0.7,3,2.3,3.3c2.3,0.5,4.3-0.5,6-1.9c2.1-1.7,4.1-3.6,6.1-5.5
		c1.5-1.4,3.2-2.7,4.5-4.3c3.7-4.6,7.8-8.7,13-11.5C38.6,8,39.1,7.6,39.7,7.2 M131.7,75.5c-0.9-0.1-1.1,0.3-1.3,0.8
		c-0.3,1.1-0.1,1.3,0.2,1.8c0.4,0.8,3,3.2,3.9,2.8c1-0.5,1.6-1.2,1.3-2.4C135.3,76.9,133.9,75.7,131.7,75.5 M132.8,65.9
		c0,1,3.2,1.6,4.9,1.2c0.5-0.1,1.4-0.6,1.4-1.2c0-0.7-0.9-1.2-1.5-1.4C135.8,64.1,134.2,64.8,132.8,65.9"/>
	<path d="M65.7,76.8c-3.1,0-7.8-1.4-12-3.8c-3.2-1.9-5.5-4.7-5.8-8.6c-0.3-4,1.3-7.4,4.1-10.1c3.4-3.2,7.7-5.3,12.4-5.5
		c3.3-0.1,6.9-0.7,10,0.7c3,1.4,5.7,3.3,8.6,5c0.4,0.3,0.7,0.7,1.1,1c4.5,3.8,4.7,10.9,0.3,15C79.9,74.8,74.7,76.7,65.7,76.8
		 M65,74.5c9.5,0.2,14-1.7,18.6-6.5c2.5-2.6,2.6-8,0-10.2c-3.9-3.3-8-6.5-13.6-6.8c-4.7-0.2-9.2,0.5-13.3,3c-3.1,1.9-5.3,4.4-6.3,8
		c-0.5,1.9-0.3,3.7,0.7,5.2c1.3,2.1,3.1,3.4,5.3,4.7C59.4,73.7,62.9,74.2,65,74.5"/>
	<path d="M90.1,54.1c0.2-2.1,1.6-4.5,3.1-6.7c0.3-0.5,1.3-0.8,1.9-0.7c4.5,1,6.9,8.5,4.1,12.1c-0.2,0.3-0.4,0.5-0.7,0.7
		c-1.3,0.9-5.4,0.6-6.6-0.4C90.8,58.1,90.1,56.5,90.1,54.1 M94.3,49.8c-1.2,2.2-2.3,3.8-1.9,5.9c0.2,1.5,0.9,2.1,2.3,2
		c1.1-0.1,1.7-0.9,1.3-2.4C95.6,53.6,95,51.9,94.3,49.8"/>
	<path d="M39.1,45.3c-3.2,0-2.9-6.9-0.4-7.1C41.3,37.9,41.7,43,39.1,45.3"/>
	<path d="M93.2,41.1c-2.3,0-1.6-6.9,0.5-6.6C95.9,34.7,95.2,41.1,93.2,41.1"/>
	<path d="M71.3,65.8c-1.3,0-2.5-5.6,0.1-5.6c2.6,0,1.7,1.5,1.8,2.8C73.3,64.2,72.6,65.8,71.3,65.8z"/>
	<path d="M61.8,60.1c2.2,0,2.3,5.8,0.1,5.7C59.2,65.8,58.4,60.3,61.8,60.1z"/>
</g>
</svg>
