<?xml version="1.0" encoding="utf-8"?>
<!-- Generator: Adobe Illustrator 19.1.0, SVG Export Plug-In . SVG Version: 6.00 Build 0)  -->
<svg version="1.1" id="Calque_1" xmlns="http://www.w3.org/2000/svg" xmlns:xlink="http://www.w3.org/1999/xlink" x="0px" y="0px"
	 viewBox="0 0 154.9 163.9" style="enable-background:new 0 0 154.9 163.9;" xml:space="preserve">
<style type="text/css">
	.st0{display:none;fill:#F7B5AC;}
	.st1{fill:#F7B5AC;}
	.st2{fill:#EB5C5F;}
	.st3{fill:#84B974;}
	.st4{fill:#010202;}
	.st5{fill:#AB7613;}
	.st6{fill:#C0BFBF;}
	.st7{fill:#6FA4C3;}
	.st8{fill:#1E1E1C;}
	.st9{fill:none;}
	.st10{fill:none;stroke:#EB5C5F;stroke-width:3;stroke-miterlimit:10;}
	.st11{fill:none;stroke:#6FA4C3;stroke-width:3;stroke-miterlimit:10;}
	.st12{fill:none;stroke:#84B974;stroke-width:3;stroke-miterlimit:10;}
	.st13{fill:none;stroke:#C0BFBF;stroke-width:3;stroke-miterlimit:10;}
	.st14{fill:none;stroke:#F7B5AC;stroke-width:3;stroke-miterlimit:10;}
</style>
<g>
	<path class="st2" d="M112.8,12.2c-1.7-0.3-3.4-0.3-5.6-0.6c-1.7,0.2-4,0.2-6.1,0.9c-3.7,1.1-7.4,2.6-11,4c-1.2,0.5-2.3,1.2-3.3,1.8
		c-4.5,2.9-9.2,5.7-13.6,8.8c-5.2,3.7-10.3,7.4-15.1,11.6c-5.8,5.1-11.3,10.6-16.1,16.6c-1.8,2.3-3.6,4.8-4.9,7.4
		c-2.1,4.2-3.7,8.5-5.5,12.8c-5,11.7-6.3,23.9-5.6,36.4c0.2,4.3,1.2,8.6,2.4,12.7c2.9,10.3,8.2,18.7,18.8,22.8
		c4.6,1.8,9.2,2.6,13.9,1.4c6.7-1.8,13.6-3.4,20-6c10.4-4.1,16.4-9.5,17.4-15.2c0.8-4.4,2.1-8.8,1.4-13.4
		c-1.2-8.7-2.3-17.4-5.1-25.8c-1-2.9-1.7-6-1.9-9c-0.4-7.6,0.4-15,4.4-21.7c1.7-2.8,3.6-5.5,5.5-8.2c3.4-4.7,7-9.3,10.4-14
		c3.1-4.3,4.7-9.2,5.5-14.4C119.7,16.9,116.9,12.9,112.8,12.2z M73.4,54.3c-1,2.8-3.7,7.4-6.3,4.9c-0.5-4.2,0.8-6.4,4.2-7.2
		c0.6-0.2,1.6-0.1,1.9,0.3C73.6,52.7,73.6,53.7,73.4,54.3z"/>
	<path d="M22.9,105.6c-0.6-7.2,0.7-13.9,2.2-20.5c1.8-8.1,5.2-15.7,8.7-23.1c1.6-3.3,3.9-6.2,6.2-9.2c5-6.6,11-12.3,17.2-17.8
		c4.4-3.9,9.3-7.3,14.2-10.7c4.1-2.9,8.6-5.4,12.7-8.4c5.1-3.6,11.1-5.1,16.8-7c4.6-1.5,9.7-1.1,14.6,0.5c4.3,1.4,6.5,4.5,9.1,7.7
		c3,3.7,4.9,7.9,6.8,12.1c0.9,2,0.9,4,0.5,6.2c-1.6,7.9-4.8,15.1-8,22.3c-2.3,5.1-4.4,10.3-4.7,16c-0.3,6-0.1,12,0.9,18
		c1.2,7.2,2.6,14.4,3.4,21.6c0.6,5.2-0.5,10-2.2,15.1c-2.4,7.2-10.4,18.8-35.1,29c-3.8,1.6-8,2.4-12,2.7c-4.1,0.3-8.3-0.3-12.3-2.2
		c-4.1-1.8-8-3.8-11.6-6.5c-1.6-1.2-3.7-1.6-5.5-2.4c-7.2-3.1-12.3-8.6-15.8-15.5c-4.3-8.3-6.3-17.2-5.9-26.6
		C23,106.5,22.9,105.9,22.9,105.6 M107.2,11.6c-1.7,0.2-4,0.2-6.1,0.9c-3.7,1.1-7.4,2.6-11,4c-1.2,0.5-2.3,1.2-3.3,1.8
		c-4.5,2.9-9.2,5.7-13.6,8.8c-5.2,3.7-10.3,7.4-15.1,11.6c-5.8,5.1-11.3,10.6-16.1,16.6c-1.8,2.3-3.6,4.8-4.9,7.4
		c-2.1,4.2-3.7,8.5-5.5,12.8c-5,11.7-6.3,23.9-5.6,36.4c0.2,4.3,1.2,8.6,2.4,12.7c2.9,10.3,8.2,18.7,18.8,22.8
		c4.6,1.8,9.2,2.6,13.9,1.4c6.7-1.8,13.6-3.4,20-6c10.4-4.1,16.4-9.5,17.4-15.2c0.8-4.4,2.1-8.8,1.4-13.4
		c-1.2-8.7-2.3-17.4-5.1-25.8c-1-2.9-1.7-6-1.9-9c-0.4-7.6,0.4-15,4.4-21.7c1.7-2.8,3.6-5.5,5.5-8.2c3.4-4.7,7-9.3,10.4-14
		c3.1-4.3,4.7-9.2,5.5-14.4c0.7-4.2-2.1-8.2-6.2-8.9C111.1,11.9,109.4,11.9,107.2,11.6 M57.9,153.1c6.6,3.4,13.1,3.7,19.9,1.2
		c1.7-0.6,3.5-0.9,5.2-1.6c2.9-1.1,5.8-2.1,8.5-3.6c6.8-3.7,12.3-9,17.2-14.9c3.1-3.7,5.4-7.9,6.3-12.6c0.3-1.3,0.2-2.8,0.5-4.1
		c0.8-3.3,0.5-6.5,0.1-9.8c-1.2-9.8-3.2-19.4-3.3-29.3c-0.1-8,0.6-15.7,5.6-22.3c0.8-1.1,1.4-2.4,2-3.6c2.2-4.5,4.7-8.8,6.1-13.6
		c1.9-6.3-0.1-11.7-3.5-17.6c-1.2,9.3-5.5,16.4-10.5,23.1c-2.8,3.7-5.8,7.3-8.5,11.1c-7.2,10.2-8.7,21.3-5.1,33.2
		c3.1,10.2,5.5,20.6,5.7,31.4c0.2,9.7-4.4,16.6-12.1,21.6c-3.8,2.4-8.1,4.2-12.2,5.9c-3.2,1.3-6.6,2.2-9.9,3.1
		C65.9,151.6,62,152.2,57.9,153.1"/>
	<path d="M38.8,102.2c-0.6-6.1,1.3-11.8,2.8-17.6c2.4-9.3,6.8-17.7,12.3-25.6c3.6-5.2,7.3-10.5,11.9-14.8c4.5-4.1,9.1-8.2,14.1-11.7
		c3.2-2.2,6.3-4.7,10.4-5.6c2.5-0.5,4.7-0.5,6.8,1.3c2,1.8,2.6,3.3,1.7,5.9c-1.1,3.2-2.6,6.1-5,8.7c-3.1,3.3-5.8,7-8.6,10.6
		c-2.1,2.7-4.3,5.5-5.9,8.5c-3,5.8-4.3,12.1-3.1,18.7c1.4,7.7,2.7,15.4,3.8,23.2c0.9,6.6,0.6,13.2-1.4,19.5c-1,3-2.8,6.1-5,8.4
		c-2.6,2.7-6.3,3.8-10.1,4c-8.5,0.5-14.4-3.9-18.4-10.9C41.1,117.9,38.5,110.4,38.8,102.2 M67.1,59.3c2.6,2.4,5.3-2.2,6.3-4.9
		c0.2-0.6,0.2-1.6-0.2-2c-0.3-0.4-1.3-0.5-1.9-0.3C67.9,52.8,66.6,55,67.1,59.3"/>
</g>
</svg>
