<?xml version="1.0" encoding="utf-8"?>
<!-- Generator: Adobe Illustrator 19.1.0, SVG Export Plug-In . SVG Version: 6.00 Build 0)  -->
<svg version="1.1" id="Calque_1" xmlns="http://www.w3.org/2000/svg" xmlns:xlink="http://www.w3.org/1999/xlink" x="0px" y="0px"
	 viewBox="0 0 234.9 248.5" style="enable-background:new 0 0 234.9 248.5;" xml:space="preserve">
<style type="text/css">
	.st0{fill:#009DBF;}
	.st1{fill:#D0095B;}
	.st2{fill:#009EC0;}
	.st3{fill:#D1005A;}
	.st4{fill:#C0BFBF;}
	.st5{enable-background:new    ;}
	.st6{fill:none;stroke:#D0095B;stroke-width:3;stroke-miterlimit:10;}
	.st7{fill:#FFFFFF;stroke:#D0095B;stroke-width:3;stroke-miterlimit:10;}
	.st8{fill:#FFFFFF;}
</style>
<g>
	<g>
		<path d="M164.8,159c1.9,4.4,3.9,9.1,5.9,13.8c3.2,7.8,5.3,15.9,6.5,24.2c1.2,8,2.7,16,4.1,24c0.5,3.1,0.9,6.1,1.5,9.8
			c2.8,0.5,5.8,1,8.8,1.4c1.7,0.3,3.5,0.3,5.2,0.6c2.8,0.4,3.6,1.3,3.9,4.1c0.1,0.8,0,1.6,0.2,2.4c0.2,0.8,0.6,1.5,1.1,2.5
			c3.9,0.1,7.9,0.3,12,0.5c5.3,0.2,10.5,0.5,15.8,0.8c0.8,0,1.6,0.2,2.4,0.4c2.9,0.8,3.3,1.8,1.9,5c-11.5-1.5-23.1-1.4-34.7-2.1
			c-10.7-0.6-21.3-1.7-31.9-2.6c-7.3-0.7-14.5-1.4-21.8-2.2c-7.8-0.8-15.6-1.7-23.4-2.6c-5.8-0.7-11.5-1.3-17.3-2
			c-7.1-0.9-14.2-1.9-21.3-2.8c-9.6-1.3-19.3-2.4-28.9-3.7c-4-0.5-8-1.6-12-2c-4.9-0.5-9.9-0.5-14.9-0.8c-1.5-0.1-3-0.3-4.4-0.4
			c-6.4-0.3-12.7-0.6-19.1-0.8c-1.2-0.1-2.4-0.1-3.8-0.2c-0.2-1.4-0.3-2.5-0.5-4.2c2.4-0.1,4.4-0.2,6.5-0.3c0.5-1.9,1-3.7,1.6-5.5
			c0.9-2.6,1.4-5.3,0.3-7.9c-1-2.3-0.1-4.2,1.3-6c0.6-0.8,1.1-1.5,1.7-2.3c2.7-3.5,3.5-7.4,1.4-11.4c-2-3.9-1.2-7.1,1.8-9.9
			c3.3-3.2,3.7-6.7,1.6-10.7c-0.6-1.2-0.9-2.6-1.3-3.8c-1.3-3.9,0.1-6.8,3.2-9.2c1.3-1,2.9-2.3,3.4-3.7c0.6-1.6,0.2-3.7-0.1-5.5
			c-0.4-2.5-1.3-5-1.7-7.5c-0.6-3.4,0.6-6,3.7-7.8c3.9-2.2,4.4-3.4,3.3-7.9c-0.5-2.2-1.2-4.4-1.7-6.7c-0.8-3.6-0.7-7.1,1.5-10.2
			c1.2-1.7,1-3.4,0.5-5c-1.5-5.1-2.7-10.2-2.6-15.6c0-1.2-0.1-2.4,0-3.6c1.3-11.9,6-22.3,12.5-32.2c6.4-9.7,14.2-18.2,23.2-25.4
			c9.1-7.3,19.4-12.9,30.3-17C101,3,112,0.5,123.3,0c5.9-0.3,11.8,0.7,17.7,1.5c8.2,1.1,16.2,3.1,23.9,6.3
			c15,6.1,26.9,15.9,35.9,29.3c9.3,13.7,13.6,29,16.2,45.1c1.4,8.6,1.9,17.2,1.6,25.9c-0.1,4.1-1.1,8.1-3.2,11.6
			c-0.9,1.5-1.1,2.7-0.5,4.1c1.3,3.7-0.1,6.2-3.1,8.4c-3.5,2.6-7.5,3-11.5,3c-1.7,0-3.1,0.3-4.4,1.4c-3.4,3.1-7.4,5.5-11.9,6.8
			c-2.4,0.7-4.3,2.1-6.1,3.8C173.7,151.2,169.4,154.9,164.8,159z M41.5,94.3c4.2-4.3,8.5-8.8,12.8-13.2c1.3-1.3,2.7-2.6,3.8-4.1
			c6.7-9,15.1-15.8,25.6-19.9c4-1.6,8.3-2.5,12.7-1.9c0.7,0.1,1.6,0.7,1.8,1.3c0.1,0.5-0.6,1.3-1.1,1.9c-0.2,0.3-0.7,0.3-1.1,0.5
			c-4.7,2-9.5,3.9-14.2,6c-10,4.6-16.6,12.5-20.2,22.7c-3.6,10.1-2.9,20.6-1.2,30.9c1.6,9.6,5.4,18.4,11.9,25.9
			c1.5,1.7,2.9,3.5,5.1,4.5c0.9,0.4,1.5,1.4,2.2,2.1c0.6,0.7,1,1.7,1.7,2.1c5.4,3,10.6,6.8,16.5,8.6c9,2.8,18.5,4.2,28.1,3.2
			c3.4-0.4,6.7-0.8,10-1.4c14.4-2.6,27.6-7.6,37.3-19.4c2.2-2.7,5-5,6.9-7.9c7.1-10.6,9.3-22.3,6-34.5c-3.2-12-8.2-23.1-17.3-32.1
			c-3.7-3.7-7.8-6.4-12.7-7.6c-5.6-1.4-11.4-2.2-17.1-3.4c-2.3-0.5-5-0.4-6.2-3.4c0.7-1.3,1.3-2.3,3.3-1.9
			c6.6,1.4,13.4,2.1,19.9,3.8c4.8,1.2,9.6,3.2,13.2,6.9c3.4,3.5,6.7,7.1,9.6,10.9c2.8,3.7,5,7.7,7.4,11.6c2,3.4,3.4,7.1,5.8,10.2
			c2.9,3.8,5.9,7.4,7.7,11.8c0.9,2.4,1.9,4.7,2.5,6.3c3.3,1.1,6.1,2.1,9.3,3.2c0.7-2.9,1.7-5.6,1.9-8.4c0.3-4.1,0.2-8.3,0.1-12.5
			c-0.2-15.4-3-30.4-9.1-44.6C198.1,37.3,188.2,25,174,16.5c-8.6-5.2-18.2-8.1-28.1-10.2c-10.8-2.2-21.7-3-32.6-1.1
			C93.7,8.7,76.1,16.6,61,29.6c-10.9,9.3-20.1,20-26.2,33.2c-3.6,7.9-6.5,15.9-6,24.9c0.2,3.9,0.8,7.4,2.1,10.7
			C34.5,97,38,95.7,41.5,94.3z M38.5,223.1c45.6,7.7,91.1,12.1,136.6,16.8c-3.2-21.5-4.1-42.7-10.1-63.3
			c-33.7,8.5-65.4,4.6-95.4-13.9C58.4,182,47.9,201.9,38.5,223.1z M30.3,109.1c-1.9,3.3-1.6,6.4-0.8,9.5c0.4,1.6,0.9,3.1,1.3,4.7
			c1.6,6.4,1,7.9-4.5,11.4c-1.6,1-2.5,2.1-2.2,3.9c0.6,3.3,1.2,6.6,1.9,9.9c1,4.4,0.1,6.9-3.5,9.4c-3.3,2.3-4.1,4-3.1,7.9
			c0.3,1.2,0.7,2.4,1.2,3.5c2.3,4.9,1.6,9.2-2.4,12.8c-1.9,1.7-2.5,3.9-1.3,6.3c2.8,5.8,1.8,11-2.3,15.8c-0.3,0.3-0.5,0.7-0.7,1
			c-1.1,1.4-1.4,3-0.8,4.6c1.1,2.8,0.6,5.6-0.4,8.3c-0.4,1.1-0.7,2.2-1.1,3.6c1.2,0.1,2.1,0.1,3.3,0.2c-0.2-1-0.3-1.6-0.4-2.2
			c-0.7-4.2,0.2-5.8,4.2-7.5c4.2-1.8,8.6-0.8,12.8-0.6c4,0.2,4,0.4,5.6-3.3c3.2-7,5.9-14.3,9.6-21c6.9-12.6,14.3-24.8,21.3-37
			c-3-5.2-6.2-10.4-8.9-15.8c-1.8-3.5-3.1-7.1-7-8.9c-0.7-0.3-1.3-1-1.8-1.6c-2.9-3.2-5.8-6.4-8.8-9.7
			C34.8,115.5,34.1,115.3,30.3,109.1z M51.3,91.9c-8.4,5.6-10.9,14.2-4.9,21.4c2.5,3,5.1,5.8,7.7,8.7C50.5,112.1,50.9,102,51.3,91.9
			z M192.2,103.6c3.2,12.1,0.3,23-6.1,33.3c3.7-1.7,6.9-3.8,9.3-6.9c1.4-1.9,3.1-4.1,3.4-6.3C199.9,116,196.5,109.7,192.2,103.6z
			 M202,130.1c0.6-0.3,1.2-0.8,1.4-0.6c2.6,1.2,4.3-0.7,6.2-1.8c1.2-0.7,2.2-1.8,1.6-3.4c-0.6-1.7-1.7-2.7-3.7-2.5
			c-1.3,0.2-2.6,0.2-3.8,0.4C203.1,124.9,202.6,127.2,202,130.1z M38.7,100.7c-4.7,0.7-5.7,1.9-4.4,7c0.7,2.7,1.6,2.9,5.2,1.5
			C39.2,106.4,38.9,103.7,38.7,100.7z"/>
		<path d="M134.5,123.8c0.1-2.3,3.9-5.8,6.4-5.8c2.3,0,5.3,4.1,5.2,7c-0.1,2.3-3.4,4.9-6.2,5C137.2,129.9,134.4,126.7,134.5,123.8z"
			/>
		<path d="M105.9,124.6c-2.9-0.1-4.8-2.2-4.7-5.4c0-2.8,3.1-5.8,5.8-5.7c2.3,0.1,4.6,3.1,4.5,5.9C111.2,122.6,109,124.7,105.9,124.6
			z"/>
		<path class="st1" d="M38.5,223.1c45.6,7.7,91.1,12.1,136.6,16.8c-3.2-21.5-4.1-42.7-10.1-63.3c-33.7,8.5-65.4,4.6-95.4-13.9
			C58.4,182,47.9,201.9,38.5,223.1z"/>
	</g>
	<path class="st0" d="M51.3,91.9c-8.4,5.6-10.9,14.2-4.9,21.4c2.5,3,5.1,5.8,7.7,8.7C50.5,112.1,50.9,102,51.3,91.9z"/>
	<path class="st0" d="M192.2,103.6c3.2,12.1,0.3,23-6.1,33.3c3.7-1.7,6.9-3.8,9.3-6.9c1.4-1.9,3.1-4.1,3.4-6.3
		C199.9,116,196.5,109.7,192.2,103.6z"/>
	<path class="st0" d="M202,130.1c0.6-0.3,1.2-0.8,1.4-0.6c2.6,1.2,4.3-0.7,6.2-1.8c1.2-0.7,2.2-1.8,1.6-3.4
		c-0.6-1.7-1.7-2.7-3.7-2.5c-1.3,0.2-2.6,0.2-3.8,0.4C203.1,124.9,202.6,127.2,202,130.1z"/>
	<path class="st0" d="M38.7,100.7c-4.7,0.7-5.7,1.9-4.4,7c0.7,2.7,1.6,2.9,5.2,1.5C39.2,106.4,38.9,103.7,38.7,100.7z"/>
</g>
</svg>
