<?xml version="1.0" encoding="utf-8"?>
<!-- Generator: Adobe Illustrator 19.1.0, SVG Export Plug-In . SVG Version: 6.00 Build 0)  -->
<svg version="1.1" id="Calque_1" xmlns="http://www.w3.org/2000/svg" xmlns:xlink="http://www.w3.org/1999/xlink" x="0px" y="0px"
	 viewBox="0 0 228.6 240.2" style="enable-background:new 0 0 228.6 240.2;" xml:space="preserve">
<style type="text/css">
	.st0{fill:#254B86;}
	.st1{fill:#254B87;}
	.st2{fill:#492E1F;}
	.st3{fill:#DFB76A;}
	.st4{fill:#BFBEBE;}
	.st5{fill:#6EA2C2;}
	.st6{fill:#224E89;}
	.st7{fill:none;stroke:#224E89;stroke-width:3;stroke-miterlimit:10;}
	.st8{fill:#F5F9F8;}
	.st9{fill:#F5F9F8;stroke:#224E89;stroke-width:3;stroke-miterlimit:10;}
	.st10{fill:#F9CB00;}
	.st11{fill:#DF111A;}
	.st12{fill:#0B6EB1;}
	.st13{fill:#8D1514;}
	.st14{fill:#679FD0;}
	.st15{fill:#008549;}
	.st16{fill:#CB9831;}
	.st17{filter:url(#Adobe_OpacityMaskFilter);}
	.st18{fill:#1D1C1A;}
	.st19{fill:#C99730;}
</style>
<g>
	<path d="M29.3,164.9c-0.1-9.1-0.7-18.2-0.3-27.3c0.7-15.5,3.7-30.7,9.7-45.1c5.6-13.6,12.8-26.4,20.9-38.7
		c4.8-7.2,9.8-14.2,16.1-20.2c1.6-1.5,2.9-3.4,4.4-5.2c4.4,0,8.8-0.2,13.2,0.1c3,0.2,5.9,1,8.9,1.6c3.7,0.7,7.6,1.1,11.2,2.2
		c5.7,1.7,11.4,3.4,16.7,6c8.9,4.4,17.5,9.5,26.3,14.4c0.7,0.4,1.3,0.8,2,1.1c0.2-0.4,0.4-0.6,0.4-0.7c-1.6-2.6,1.5-20.6,0.8-27.1
		c-0.7-0.3-1.4-0.6-2.1-1c-2.4-1.3-3.3-3.4-2.8-6.1c0.5-2.8,2.2-4.9,4.3-6.6c2.1-1.7,6.6-1.8,8.2-0.4c1.5,1.4,2,5.6,0.7,7.9
		c-0.8,1.4-1.5,7-1.7,9c-0.6,6.6-1,13.1-1.5,19.7c-0.2,2.2-0.4,4.5-0.9,6.6c-0.4,1.6,0.6,1.9,1.7,2.5c0.3-0.3,0.7-0.5,0.9-0.8
		c5.5-7.6,12.1-14.2,18.7-20.7c1.5-1.5,2.8-3.2,4.3-4.7c2.6-2.4,5.6-2.7,8.8-1.4c2.7,1.1,4.8,4.2,2.2,7.7c-2.3,3.1-5,5.7-8.5,5.6
		c-3.5-0.1-5.6-0.6-6.7-1.4c-5.5,5.9-10.7,11.9-15.3,18.8c2.9,2,5.7,3.9,8.4,5.8c4.1,3,8.1,6,12.2,9c1.6,1.2,3.1,2.6,4.8,3.6
		c7.2,4.7,18.7,17.7,20.8,21.1c2.4,3.5,12.8,49.9,12.8,63.2c0,0.4-27.3,52.6-32.8,57.1c-1.5,1.2-40.5,18.6-46.3,19.5
		c-0.6,0.1-13.5-0.4-19.1-1.8c-1.7-0.4-3.5-0.7-5.2-1.1c-4.4-1-8.8-1.8-13.1-3c-3.8-1.1-7.5-2.4-11-4.1c-4.7-2.1-9.2-4.6-13.8-7.1
		c-3.5-2-6.9-4.1-10.3-6.3c-6.2-4-12.6-7.8-18.5-12.2c-5.1-3.8-9.9-8.1-14.3-12.8c-4.6-4.9-8.4-10.5-12.5-15.9
		C30.7,174.4,29.3,166.2,29.3,164.9z M208.2,97.8c-1.8-1.6-3.4-3-4.9-4.4c-2-2-3.8-4.1-5.8-6c-7-6.8-14.5-13.1-22.8-18.3
		c-2.3-1.4-4.6-2.8-6.7-4.4c-2.8-2-12.7-8.3-14.3-9.2c-6.3-3.4-12.9-6.4-18.9-10.3c-5.7-3.7-12.1-5.2-18.3-7.5
		c-2.9-1.1-6-1.5-9.1-2.1c-5.1-1-10.2-2-15.4-2.7c-2.9-0.4-5.8,0.1-8.7,0c-1.5-0.1-2.6,0.5-3.4,1.6c-2.8,3.6-6.1,6.8-8.6,10.7
		c-2.7,4.4-6.2,8.2-9,12.6c-7.8,12.3-15,25-20,38.7c-5.2,14.4-8,29.1-8.3,44.4c0,1.7,0,3.4-0.1,5.1c0,4.6-0.1,9.2,0,13.8
		c0.1,3,0.5,13.2,1.8,14.8c4.2,5.2,8.5,10.5,12.8,15.6c6.7,7.8,15.2,13.4,23.7,18.7c8.7,5.4,17.3,11.2,27,15.1
		c6,2.4,11.9,4.9,18.2,6.6c7.7,2,15.4,4,23.2,4.1c2.6-3.8,5.2-7.7,7.8-11.6c4-5.8,8.2-11.5,12-17.5c5.6-8.9,10.8-18.1,16.5-27
		c7.4-11.7,13.6-24.1,18.8-36.8c4.1-9.8,7.2-20,10.4-30.2C207.8,107,209.5,102.4,208.2,97.8z M190.3,39.1c2.6-0.3,4.2-1.3,5.5-2.9
		c0.7-0.9,1.2-1.9,0.2-3c-0.8-0.7-2.3-0.2-3.1,1c-0.7,1.1-1.5,2.1-2.2,3.1C190.5,37.7,190.5,38.2,190.3,39.1z M163.7,14.9
		c-3,0.9-3.9,2-3.7,5C163.6,19,163.6,19,163.7,14.9z"/>
	<path d="M3.5,33.2c-1.3-0.9,1.3-6.8,3.6-6.4C8,27,8.8,27.4,9.6,27.8c4.9,2.5,9.3,5.7,13.5,9.4c2.1,1.8,4.4,3.4,6.6,5.1
		c0.9,0.7,1.7,1.4,2.5,2.1c-3.2,4.2-5,4.7-8.9,2.1c-5.2-3.4-10.2-7-15.2-10.4C6.6,35,4.8,34.1,3.5,33.2z"/>
	<path d="M28.3,0.9c2.8-1.5,3.5-1.2,4.7,1.8c3.8,9.6,6.8,19.6,11.4,28.8c1.3,2.7,0.2,4.9-2.5,4.4C39.3,35.4,27.5,10.6,26.3,6
		C25,2.2,28,1,28.3,0.9z"/>
	<path d="M0.3,65.4c-0.9-1.9,0.2-6.7,3.5-6.7s21.8,1.2,24,1.5c0.7,0.1,1.6,0.8,1.9,1.5c0.3,0.8-3,6.3-4.5,6.3
		C21.9,68.2,1.3,67.4,0.3,65.4z"/>
	<path d="M186.7,107.7c1,2.2-3.8,11.8-6,17.4c-2.9,7.9-6,15.7-9.3,23.4c-2.3,5.5-5.1,10.7-7.5,16.1c-2.2,4.9-4.2,9.9-7.4,14.3
		c-2.5,3.5-16.5,27.5-19,32.1c-1.1,2-2.8,3.8-4.5,5.3c-1.7,1.6-4.1,1.7-6.4,1.4c-6.3-0.8-12.3-2.7-18-5.4
		c-9.3-4.3-18.4-8.8-26.8-14.8c-3.8-2.7-7.7-5.4-11.4-8.3c-7.2-5.7-14.2-11.6-21.3-17.5c-1-0.8-1.9-1.7-2.6-2.6
		c-1.2-1.5-1.6-3.1-1-5c0.3-11.6,2.8-32.4,6.7-45.4c4-13.2,8.6-26.2,15.4-38.3c3.9-7,15.9-28.9,18.3-28.9s9.2,0.2,13.5,1.8
		c6.7,2.4,13.5,4.3,20.1,6.8c9.1,3.4,17.4,8.3,25.3,13.9c9.9,6.9,19.7,14.1,29.4,21.3C176.8,97.4,185.6,105.6,186.7,107.7z
		 M89.7,57.2c-3.4,4.4-6.7,8.3-9.7,12.5c-5.3,7.3-9.3,15.4-13.1,23.5c-3.4,7.3-5.9,15-8.6,22.6c-2.6,7.2-4,14.7-5.3,22.2
		c-1.5,8.3-1.6,16.7-1.6,25.2c0,2.6,0.9,4.4,2.9,6c5.9,4.8,11.7,9.8,17.7,14.5c4.3,3.4,8.6,6.9,13.2,9.8c7,4.3,14.1,8.2,21.4,12
		c5.8,3,11.8,5.4,18.3,6.6c1.7,0.3,3.6,0.7,5.1,0.2c1.4-0.5,2.5-2.1,3.6-3.4c0.4-0.5,11.6-20.3,15.4-26.2
		c5.7-8.8,10.4-18.1,14.4-27.7c4.7-11.2,10.1-22.3,13.7-34c0.2-0.5,0.5-1,0.7-1.5c1.3-3.2,2.6-6.4,2.8-9.3c-2-2.4-3.7-4.3-5.3-6.3
		c-0.7-0.8-1.4-1.8-2.2-2.5c-4.4-3.6-8.8-7.3-13.3-10.7c-5.1-3.8-10.4-7.5-15.8-10.9c-5.6-3.6-11.3-7.4-17.3-10.4
		c-10.7-5.3-22-8.8-33.5-11.7C92,57.4,90.9,57.3,89.7,57.2z"/>
	<path class="st16" d="M89.7,57.2c-3.4,4.4-6.7,8.3-9.7,12.5c-5.3,7.3-9.3,15.4-13.1,23.5c-3.4,7.3-5.9,15-8.6,22.6
		c-2.6,7.2-4,14.7-5.3,22.2c-1.5,8.3-1.6,16.7-1.6,25.2c0,2.6,0.9,4.4,2.9,6c5.9,4.8,11.7,9.8,17.7,14.5c4.3,3.4,8.6,6.9,13.2,9.8
		c7,4.3,14.1,8.2,21.4,12c5.8,3,11.8,5.4,18.3,6.6c1.7,0.3,3.6,0.7,5.1,0.2c1.4-0.5,2.5-2.1,3.6-3.4c0.4-0.5,11.6-20.3,15.4-26.2
		c5.7-8.8,10.4-18.1,14.4-27.7c4.7-11.2,10.1-22.3,13.7-34c0.2-0.5,0.5-1,0.7-1.5c1.3-3.2,2.6-6.4,2.8-9.3c-2-2.4-3.7-4.3-5.3-6.3
		c-0.7-0.8-1.4-1.8-2.2-2.5c-4.4-3.6-8.8-7.3-13.3-10.7c-5.1-3.8-10.4-7.5-15.8-10.9c-5.6-3.6-11.3-7.4-17.3-10.4
		c-10.7-5.3-22-8.8-33.5-11.7C92,57.4,90.9,57.3,89.7,57.2z"/>
	<path d="M144.3,157.7c1.1,1.1-2.7,6.4-4.9,5.5c-0.8-0.3-1.5-0.9-2.2-1.4c-4.3-3.5-7.9-7.5-11.2-12c-1.7-2.2-3.6-4.2-5.5-6.4
		c-0.7-0.8-1.4-1.7-2-2.5c3.9-3.4,5.8-3.5,9.1-0.2c4.3,4.4,8.5,8.9,12.8,13.4C141.6,155.4,143.1,156.6,144.3,157.7z"/>
	<path d="M101.5,184.1c-3.2-0.1-3.6-0.7-3.1-3.9c1.5-10.2,4-20.3,4.6-30.7c0.2-3,2.3-4.3,4.3-2.6c2.1,1.8-0.2,29.1-1.5,33.7
		C105,184.6,101.8,184.1,101.5,184.1z"/>
	<path d="M158.8,124.2c1.1,1.9,0.2,6.7-3.1,6.9s-21.8,0.2-24,0c-0.7-0.1-1.7-0.7-2-1.3c-0.4-0.8,2.6-6.5,4.1-6.6
		C137.1,122.9,157.7,122.3,158.8,124.2z"/>
</g>
</svg>
