<?xml version="1.0" encoding="utf-8"?>
<!-- Generator: Adobe Illustrator 19.1.0, SVG Export Plug-In . SVG Version: 6.00 Build 0)  -->
<svg version="1.1" id="Calque_1" xmlns="http://www.w3.org/2000/svg" xmlns:xlink="http://www.w3.org/1999/xlink" x="0px" y="0px"
	 viewBox="-337 213.4 74.6 74.6" style="enable-background:new -337 213.4 74.6 74.6;" xml:space="preserve">
<style type="text/css">
	.st0{fill:#000000;}
    .st0:hover{fill:#ffffff;}
</style>
<path class="st0" d="M-265.9,228.7c-1.1,0.5-2.3,0.9-3.5,1.4c1.7-2.1,3.1-4.5,4.3-6.9c0.6-1.2-0.7-3-2.1-2.1
	c-3.2,2.1-8.1,6.8-12.1,5.7c-3.4-0.9-6.1-2.5-9.8-2.3c-9.3,0.5-13.3,8.4-13.3,16.6c-9.8-1.2-20.1-7-25.3-15.5
	c-0.5-0.9-2.1-1.1-2.6,0c-3.1,7-2.4,12.5,1.4,17.2c-0.7-0.3-1.3-0.5-2-0.8c-1-0.4-2.2,0.1-2.3,1.3c-0.1,6,3.6,11.3,8.7,14
	c-0.8,0-1.6,0-2.4-0.1c-1.2-0.1-1.8,1.3-1.3,2.3c2.6,4.7,6.9,7.5,11.9,8.5c-5.2,3.2-11.2,5.5-17.3,5.5c-1.8,0-2,2.4-0.4,2.9
	c17.6,6.4,37.4,6.6,50-9.1c4.1-5.2,7-11.2,9-17.5c0.8-2.5,1.4-5.1,1.8-7.8c0.3-2.1,0.5-2.1,2.3-3.5c2.7-2,4.9-4.8,6.7-7.6
	C-263.6,229.9-264.7,228.2-265.9,228.7z M-274.3,237.4c-1.5,1.4-1.3,1.1-1.7,2.9c-0.5,2.2-0.8,4.3-1.3,6.5c-1.6,6-4,11.7-7.6,16.8
	c-10.1,14.4-26.3,16.1-41.8,12c5.7-1.4,11.1-4.2,15.7-7.6c1.4-1.1,0.1-3.6-1.3-2.7c-4.6,0.1-8.8-1.6-11.7-4.9
	c1.9-0.1,3.7-0.5,5.6-1.2c1.2-0.5,1.6-2.6,0-2.9c-5.7-1-10.6-5-11.7-10.6c2,0.8,4.1,1.4,6.3,2c1.7,0.4,2.5-1.8,1.2-2.7
	c-0.1-0.1-0.2-0.2-0.3-0.3c0,0,0,0,0,0c0,0-0.1,0-0.1,0c-5.1-4.2-7.4-8.9-5.7-14.8c6.4,8.5,17.2,13.8,27.7,14.6
	c0.8,0.1,1.5-0.7,1.5-1.5c-0.3-5.3,0.6-11.3,5.7-14.1c4.5-2.4,8.6-0.9,12.9,0.7c3.3,1.2,6.4,0,9.4-1.8c-1.5,1.9-3.2,3.6-5.3,4.8
	c-1.5,0.9-0.5,3.2,1.2,2.7c1.9-0.5,3.7-1.1,5.4-1.8C-271.5,234.9-272.9,236.1-274.3,237.4z"/>
</svg>
