<?xml version="1.0" encoding="utf-8"?>
<!-- Generator: Adobe Illustrator 19.1.0, SVG Export Plug-In . SVG Version: 6.00 Build 0)  -->
<svg version="1.1" id="Calque_1" xmlns="http://www.w3.org/2000/svg" xmlns:xlink="http://www.w3.org/1999/xlink" x="0px" y="0px"
	 viewBox="241 379 1081.1 324" style="enable-background:new 241 379 1081.1 324;" xml:space="preserve">
<style type="text/css">
	.st0{fill:none;}
	.st1{fill:#EB5C5F;}
	.st2{enable-background:new    ;}
</style>
<g>
	<g>
		<path d="M272.7,497c6.4,2,7.9,7,7.9,12.7c0,7-1,13.8-4,20.2c-1.1,2.3-0.4,4.2-2.6,6.9c-2.2,2.8-5.5,0.5-6.9-4
			c-1.2-3.8-3.1-7.5-4.4-11.3c-1.1-3.5-2.3-7.1-2.6-10.7c-0.6-6.1,0.6-11.6,8-13.4c0-4.3-0.2-8.3,0-12.3c0.6-8.9,1.1-17.8,2.2-26.7
			c0.3-2.2,2.3-4.5,4-6.2c4.6-4.5,12.6-7.7,17.8-2.7c3.2-3.4,7.4-4.5,11.8-5.2c10.3-1.4,20.6-3.4,31-3.8c10.1-0.5,20.1-1.2,30.2-2.1
			c5.7-0.6,11.5-0.1,17.2-0.3c7.7-0.2,15.4-0.7,23.6-1c-1.4-2.8-2.4-5.3-3.7-7.6c-5.5-9.8-5.1-20.1-2.6-30.5c0.8-3.3,3.3-6.3,5.6-9
			c2.4-2.8,4.5-5.4,4-10.3c2.8,1.6,5.2,2.5,7,4c5.7,4.6,10.2,10.3,12.8,17.3c1.9,5,3.7,10.1,5.6,15.3h25.5c0.4-7-3-20.8-0.4-20.4
			c2.7,0.4,3.2,2,3.4,4.3c0.4,5.4,1,10.7,1.6,16.3h12.9c0.1-13.4-0.5-17.9,2.5-18.9c3-0.9,2.7,2.9,2.4,5.3c-0.4,2.7-0.7,5.4-0.7,8
			c0,1.8,0.5,3.6,0.9,5.7h19.7c3-8.3,8.9-14.1,17.3-17.4c6.1-2.4,12.1-5.1,18.2-7.3c5-1.8,9.1-4.3,11-9.5c3.1-0.1,3.6,2,3.4,4
			c-0.8,9.4-1.6,18.8-2.8,28.1c-0.4,3.7-1.7,7.2-2.6,10.8c-0.8,3.1-2.9,5.3-5.5,7c-4,2.5-8,5-12.3,7.7c0,6.6,0.1,13.7,0,20.7
			c-0.2,8.8-1.6,17.4-3.7,26c-1.9,7.8-6.7,11.9-14.7,12.3c-6.3,0.3-12.7,0-19.1,0.2c-7.2,0.2-14.4,0.7-21.9,1
			c0.1,1.6,0.2,2.7,0.2,3.8c0.2,2.7,0.6,5.4,0.5,8.1c0,8.6-0.9,17.3-0.1,25.8c1.1,12.2-0.6,24.1-1,36.1c-0.1,2.5,0.1,5.1-0.2,7.6
			c-0.1,0.9-1.2,1.7-1.9,2.6c-0.9-0.8-2.5-1.6-2.6-2.5c-0.4-2.6-0.2-5.4-0.1-8.1c0.3-7.2,0.6-14.5,0.9-21.7c0-0.6-0.2-1.3-0.3-2h-10
			v30.8c-4-1.1-4.2-1.4-4.2-5.3c0-5.2,0.1-10.5-0.1-15.7c-0.1-3.1-0.5-6.3-0.8-9.5c-47.8,2.9-95.3,2.6-143.4,0
			c0.2,3.8,0.4,7.9,0.6,12c0.2,3.4,0.6,6.7,0.8,10.1c0.1,2.7-0.2,7.8-3,7.8c-2.8,0-1.5-20.1-2.6-30.2h-7.9
			c0.3,10.4,1.5,29.3,0.1,30.8c-1.4,1.4-3.6-0.5-3.8-4.2c-0.3-6.9-0.5-13.8-0.5-20.7c0.1-14.1,0.5-28.2,0.4-42.2
			c0-7.7-0.9-15.5-0.9-23.2c0-9.4,0.4-18.9,0.6-28.3c0-1.5,0.1-3,0.1-4.6c-0.1-3.9-1.7-5.4-5.7-5.2c-5,0.2-9.9,4.3-10.4,9.5
			C273,473.1,271.5,484.7,272.7,497 M319.9,545.3c5.6,0.3,11,0.9,16.3,1c13.2,0.2,26.3,0.3,39.5,0.3c13.3,0,26.6-0.2,39.9-0.2
			c0.8,0,1.7,0,2.5-0.1c3.1-0.3,3.7-1.4,2.7-4.3c-0.6-1.7-1.1-3.5-1.3-5.3c-0.6-6.8,3.6-11.3,7.8-15.8c2.6-2.7,5.6-4.3,9.4-4
			c2.7,0.2,4.7-0.8,6.9-2.3c5.6-3.9,11.7-5.9,18.5-2.7c1.1,0.5,2.2,1.1,4,2c-0.4-5-1-11.3-1.4-15c-9.5-1.4-29.2-2-30.4-2
			c-4.4,0-8.4-1.2-11.7-4c-2.1-1.8-4.1-3.8-6-5.6c-4.8,2.1-9.3,4.8-14.8,4.8c-6.6,0-11.5-3.4-16-7.6c-4.2-3.9-5.8-12.5-2.9-17.3
			c2.7-4.4,3.2-8.8,1.6-13.5c-0.8-2.4-0.6-4.6,0.2-6.9c0.3-1,0.6-2.1,1.1-4c-10.4,0.5-20.2,0.8-30,1.4c-10,0.6-19.9,1.5-29.7,2.3
			c1.1,2.9,2,5.4,2.9,7.9c2.1,5.6,0.7,10.3-3.6,14.2c-2.6,2.4-5.5,4.4-8.2,6.7c-4,3.2-8.5,4.4-13.6,4.2c-2.5-0.1-4.9,0.8-7.4,1.3
			c-2,0.4-2.8,1.8-2.7,3.7c0.2,3,0.6,6,0.7,9.1c0.2,8.6,0.3,17.1,0.5,25.7c0,0.4,0.4,0.9,0.5,1.3c7.4-1.1,14.4-0.2,20.1,4.6
			C321.7,530.5,322.3,537.6,319.9,545.3 M524,436.9c-0.6-8.2-3.4-12.3-7.5-13c-3.3-0.6-6.6-1-10-1.3c-5.2-0.4-10.4-0.6-15.7-0.8
			c-2.3-0.1-4.5,0-7.3,0c4.3,7.9,0.7,19.3-3.6,19.3s-10.1-2.7-11.5-9.8c-0.7-3.2-1.6-6.4-2.4-9.6c-1.1-0.1-1.8-0.3-2.4-0.3
			c-7.4,0-14.9,0-22.3,0.2c-5.5,0.2-11.1,0.6-16.6,1.1c-5.9,0.5-7.8,2.2-7.1,8c0.6,4.8,0.2,9.3-0.3,14c-0.2,2.1,0.3,4.4,0.4,6.6
			c0.4,8,1.1,16.1,1.2,24.1c0.1,6.7,2,13.6,11.9,15.4c5.8,1.1,11.6,2.2,17.4,2.7c7.2,0.6,14.5,0.8,21.7,0.8c5.9,0,11.8-0.6,17.7-0.8
			c7.4-0.2,14.9,0.2,22.2-0.4c7-0.5,10.7-4.6,12.3-11.3c2.1-8.9,2.7-18,2.9-27.1c0.1-5.9-0.6-11.8-0.9-17.6c0-0.3-0.3-0.5-0.3-0.6
			L524,436.9z M507.5,415.8c5,1.5,10.1,2.3,14.4,4.6c4.9,2.6,4.5,8.7,6.3,13.9c4-2.8,7.9-5.1,11.5-7.9c1.5-1.2,2.8-3.1,3.3-4.9
			c1.2-4.5,2.2-9.1,2.9-13.8c0.7-4.6,0.8-9.2,1.3-14.2c-3.5,1.5-6.3,3.1-9.3,3.9c-7.9,2.2-15.1,5.6-22.1,9.8
			C511.9,409.3,509.3,412.4,507.5,415.8 M429.3,416.7c-1-11.9-6.6-22.2-15.2-28.2c-17.3,13.1-13.9,37.4-0.3,48.6
			c0.2-3.8-1.3-7.1-0.8-10.9c0.8-5.8,2.3-7.5,9-8.8C424.4,416.8,426.7,416.9,429.3,416.7"/>
		<path d="M368.6,536.5c-7.8-0.2-16-1.3-23.7-4.2c-5-1.9-9.9-4.2-13-9.7c-4.9-8.9-7.1-18.2-5.7-28.2c0.9-6,3.3-11.7,9.4-14.1
			c4.1-1.6,8.8-2.4,13.2-2.1c2.6,0.1,5.5,2.6,7.5,4.7c3.2,3.4,6.4,7.1,8.5,11.1c2.4,4.5,6,6.4,10.5,6.7c6.7,0.5,12.9,2.2,18.6,5.6
			c1.4,0.8,2.8,2,3.5,3.4c2.3,4.3,3.4,9.2,2,13.6c-1.3,4.2-5.1,7.5-9.3,9.3C383.5,535.6,376.5,537.3,368.6,536.5"/>
		<path d="M454.5,450c2.8,0,4.2,5.4,5,5.4s1.8-6.3,2.7-6.3c1.9-0.1,2,1.7,1.9,3.4c-0.2,3.1-0.7,6.2-0.8,9.3
			c-0.1,3.4-1.2,6.7-4.5,6.7s-4.5-3.8-1.8-10.4C457,455.1,451.7,450,454.5,450z"/>
		<path d="M486.7,449.2c1.9,0,2.5,4.3,3.5,4.3s0.8-4.7,2.5-4.7c1.7,0,2.5,1,1.3,3.9c-1.3,3.1-0.7,6.2-1.1,9.4
			c-0.2,2.1-0.4,3.6-1.4,5.5c-0.9,1.9-3.4,1.4-4.1,1.2c-0.8-0.2-1.8-1.1-1.9-2.5c-0.1-1.4,1-5.9,1.3-8.8
			C487.1,454.9,484.8,449.2,486.7,449.2z"/>
		<path d="M347.7,603.2c7.1,2.3,10.4,8.3,9.1,15.3c-0.9,5-2.2,9.8-4.8,14.2c-0.9,1.5,0.1,4.9-0.8,6.1c-1,1.3-3,2-3.7,1.4
			c-0.7-0.6-3.2-2.7-4.5-4.1c-1.1-1.2-2.3-2.5-2.9-4c-1.7-4.8-3.1-9.6-4.5-14.4c-0.2-0.8-0.4-1.6-0.5-2.5c-0.4-5.5,1.4-9.7,7.8-10.9
			c-0.3-3.1-0.4-5.9-0.8-8.7c-1.5-9.6-1.9-19.2,1.8-28.4c4.7-11.6,19.6-17.3,30.9-11.8c3.4,1.6,6,1.6,9.4,0c7.2-3.4,14.9-4.8,22.9-5
			c11.4-0.3,22.8-1.3,34.2-1.9c9.8-0.5,19.5-0.8,29.3-1.2c5.6-0.2,11.1-0.5,17.2-0.7c-0.7-3.1-1.1-6.2-2-9.1c-2.5-7.9-2.3-16-2.4-24
			c0-6.1-1.4-11.6-4.3-16.9c-0.8-1.5-0.8-3.3-1.4-5.8c5.3,2.7,9.5,4.9,13.8,7.1c3.8,1.9,7.5,3.7,11.4,5.4
			c5.9,2.6,11.4,5.9,16.1,11.6c1.3-12.6,7.7-21.2,17.5-27.6c3.5,3.4,3.5,3.4,1.5,7.2c-1.2,2.2-2.5,4.4-3.5,6.7
			c-1.7,3.9-1.1,8-0.6,12c1,8.2,3.1,16,10.1,21.3c1.3,1,2.9,1.9,4.4,2c8.3,0.5,16.5,0.7,24.8,1c3,0.1,4.5-2.4,6-4.2
			c8.9-10.8,7.1-21.3,7-25.6c-0.1-3.8-0.6-7.1-3.4-9.6c-2.5-2.3-3.5-6.8-2.1-7.8c1.4-1,5.8,0.6,7.9,2.5c4.1,3.5,7,7.8,7.7,13.3
			c0.6,4.8,1.3,9.6,1.9,14.1c6.8-6.7,13.9-13.8,21.1-20.7c1.9-1.9,4.2-3.4,6.3-5c3.9-2.8,6.9-6.4,8.5-11.1c3.3,0.5,4,2.9,4.1,5.2
			c0.4,9.2,2.6,18.4,1.3,27.7c-0.9,6.7-2,13.4-4.1,19.8c-3.1,9.5-9.3,16.6-18.6,20.9c-1.5,0.7-2.9,1.7-5,2.9
			c0.4,5.5,1.1,11.1,1.3,16.8c0.4,10.1,0.6,20.2-1.7,30.2c-1,4.3-3.6,7.1-7,8.8c-3.7,1.9-7.8,2.9-12.2,2.6
			c-7.2-0.5-14.3-0.6-21.7-0.9c-1.5,11.9-2.3,23.3-2.2,34.7c0,2.5,0.1,5.1,0.2,7.6c0.1,4.7,0.3,9.4,0.4,14.1c0,1.7,0.3,3.5-0.2,5
			c-0.3,1-0.6,2.3-2.8,2.3c-2.2,0-1.8-1.7-1.8-2.6c-0.2-7.6-0.2-15.2-0.3-22.7c0-2,0.1-3.9,0.2-6.3c-4.6,0.6-8.7,0.3-13,0.8
			c0.5,8.7,2,25.5,1.8,26.9c-0.2,1.4-3.6,1.5-4.1-1.3c-0.3-2.1-0.6-4.3-0.8-6.5c-0.5-6-0.8-13-1.2-19c-7.5,0.5-13.7,0.3-20.3,0.2
			c-9.2-0.1-18.5-0.1-27.7-0.1c-14.7,0.1-29.3,0-44,0.4c-16.7,0.4-33.3,1.2-50-0.6c-2.8-0.3-5.7,0.1-8.9,0.2
			c0.1,7,0.9,17.4,1.7,20.8c0.6,2.7-0.2,5-3.1,2.9c-2.8-2.1-2.6-15.8-3.3-23.5c-2.8-0.1-5.2-0.2-8-0.3c-0.1,3.1-0.5,6.1-0.3,9
			c0.3,4.2,1.1,8.3,1.7,12.5c0,0.3,0.2,0.6,0.3,1c0.1,1.6-0.1,3.4-2,3.3c-0.9,0-2.4-1.4-2.6-2.4c-0.8-3.3-1.2-6.6-1.6-10
			c-1.1-10.9-2.3-21.8-3.2-32.7c-1.1-13.6-4.1-27-3.6-40.7c0.2-4.9-0.5-9.7,0.7-14.5c1.2-4.6,2.2-9.2,3.3-14
			c-4.1-2.5-8.2-3.5-13.3-2.4c-5.9,1.3-11,3.4-14,8.8c-1.4,2.4-2.8,5.2-3,7.9c-0.4,5.7-0.3,11.4,0,17.1
			C346.1,596.4,347.1,599.9,347.7,603.2 M489.7,550.7c-0.5,2.5-0.9,3.5-0.8,4.4c0.8,6.2,1.6,12.4,2.5,18.5c0.8,5.3,1.2,10.5-1,15.8
			c-4.5,11-16.5,14.9-26.5,8.4c-0.8-0.6-1.7-1.2-2.6-1.6c-3.4-1.4-6.2-0.8-8.6,2c-0.7,0.8-1.2,1.7-1.9,2.4
			c-3.7,3.8-7.4,7.8-13.1,7.8c-10.2,0.1-19.1-3-25.7-11.3c-4.3-5.2-7-11.2-8.2-17.7c-1.4-7.7-2-15.5-3-23.4
			c-5.8,0.5-11,2.5-16.1,4.8c-2.4,1.1-4.2,2.9-5.1,5.4c-2.3,6.9-4.4,13.8-3.8,21.2c0.2,2.3,0.2,4.7,0.4,7c0.7,7.7,1.6,15.4,2.4,23.5
			c11.4-8,22.3-6.1,30.9-1.2c3.5,2,5.2,5,5.2,9.1c0,1.5,0.6,3.1,0.9,4.6c4.9,0.3,9.7-1.2,13.1,2.3c3.3,3.3,3.1,7.9,2.5,12.9
			c14.5-0.2,28.3-0.4,42.2-0.7c-0.1-3.9-0.4-7-0.2-10.2c0.5-6.7,4.1-11.5,10.1-14.6c5.7-3,10.9-2,15.3,2.1c3.8,3.4,7.4,3,11.6,1.3
			c2.9-1.2,6-2.5,9.1-2.8c4.9-0.4,10.1-0.4,13.4,4.1c4.1,5.8,7.8,11.9,4.5,20.2c9.4-0.5,18.1-1,27.4-1.5c0.4-9.1,0.7-17.6,1-26.4
			c-2.5-0.1-5-0.1-7.5-0.3c-9.7-0.7-19.5-0.2-29-3.3c-7.2-2.3-12.4-6.3-13.6-14c-0.8-5.6-1.2-11.4-1.3-17.1
			c-0.1-6.7,0.4-13.4,0.7-20.4C504.3,563.2,497,558.2,489.7,550.7 M547.1,610.8c6.3,0.2,12.3,0.5,18.3,0.7
			c5.2,0.2,10.4,0.6,15.6,0.7c5.7,0.1,11.5,0.3,17.1-0.3c4.9-0.5,8.9-3,9.9-8.6c0.3-2,1-3.9,1-5.9c0.1-8.8,0.4-17.5-0.1-26.3
			c-0.4-7.4-2.5-14.6-2.5-22.1c0-3.1-2.3-5.4-4.9-5.5c-7.1-0.4-14.3-0.6-21.9-0.9c2,3.9,1.8,7.1,0.7,10.4c-1.4,3.9-2.2,8.1-3.9,11.9
			c-1.3,3-3,6-5.2,8.4c-2.4,2.7-5.8,2.8-8.8,0.6c-1.9-1.5-4-3.6-4.6-5.8c-1.6-6.1-4.6-11.3-8.3-16.5c-1.9-2.7-2.3-6.5-3.5-10.1
			c-9.4,0.5-19-1.3-27.8,2.8c0.3,13.4,0.5,26.3,0.8,39.2c10.6,0,13.7,1.9,16.6,9.4c1.4,3.4,3.3,5.6,6.6,6.9c2.9,1.1,4.5,3.4,4.5,6.7
			C546.7,607.7,546.9,608.9,547.1,610.8 M486.4,500.4c0.6,7.4,1.6,14,1.4,20.7c-0.1,7.8,2,15,4.3,22.2c1.9,5.8,5.7,9,11.2,12.2
			c2.9,1.6,7,2.4,10.1,2.4c0.9-3.1,0.9-6-0.2-9.2c-2-6-0.5-8.6,5.5-10.8c0.9-0.3,1.8-0.7,2.9-1.1c-0.9-4-1.9-7.7-2.6-11.5
			c-1-5.5-4.1-9.8-8.7-12.5C502.6,508.3,494.4,504.5,486.4,500.4 M611.4,554.2c7.5-3.3,12.4-8.8,16.8-14.8
			c4.1-5.6,5.3-12.2,6.4-18.9c1.4-9.2,1.1-18.3-0.3-26.9c-3,2.4-6.1,5-9.1,7.5c-1.4,1.2-2.8,2.4-4.1,3.7c-2.9,2.8-5.5,6-8.6,8.4
			c-6.3,4.7-10.8,10.5-13.1,18c-0.6,2-1.5,3.9-2.4,6.4c5.6-0.6,9.7,0.8,12,5.3c1,2,1.4,4.4,2,6.7C611.1,551,611.2,552.5,611.4,554.2
			 M539.6,536.6c-7.5-8.7-10.5-17.3-9.5-36.8c-8.7,10.2-9.4,25.1-1.8,36.4C531.8,536.3,535.3,536.4,539.6,536.6 M590.7,503.8
			c0.3,11.8,0.6,23.5-8,33.5c1.7,0.1,2.5,0.1,3.4,0.1c1,0,2-0.1,2.9-0.2C595.4,526.3,593.6,515.1,590.7,503.8"/>
		<path d="M583,573.6c5.2,0,4.2,12.6,1,16c-1.3,1.4-2.5,1.1-3.7-0.4C576.4,583.8,577.8,573.6,583,573.6z"/>
		<path d="M551.7,588c-2.7,1.9-6.4-1.7-6.4-7.8c0-1.5,1-4.3,1.7-5.4c0.6-0.8,1.7-2,2.5-1.9c0.9,0.1,2.3,0.4,3.8,3.2
			C554.8,578.9,554.5,586.1,551.7,588z"/>
	</g>
	<path d="M994.8,551.7c0.2-3.3-1.1-8.7,1.6-8.9s1.9,5.5,2.6,8.3c5.5,0.4,10.8,0.7,15.6,1.1c3.3-3.6,6-7.1,9.3-9.9
		c3.3-2.8,9.7-8.1,11.3-7.3c1.6,0.8,4.7,10.9,4.1,16.8c-0.6,5.8-2.7,10.7-6.8,13.6c0.6,7.4,1.4,14.1,1.7,20.8
		c0.3,6.8-0.9,13.3-3.5,19.8c4.9,0.8,7.3,4,8.7,8.6c2.2,7.2,2.7,14.5,2.5,22c-0.4,10.3-0.7,20.5-1.2,30.8c-0.1,1.9,1.5,6.6-2.8,6.6
		s-0.3-11.5-2.2-16.9c-2.2,0.2-4.4,0.4-6.9,0.7c-2,4.5,1.4,13.5-2.6,14c-3.6,0.4-2.6-3-2.7-5.5c0-2.6,0.2-5.3,0.3-8
		c-17.4,0.3-34.3,0.7-51.6,1c0,3.7,1.3,12.7-2.3,12.1c-3.6-0.6-1-8.2-2.7-12.5c-1.9,0-3.9-0.1-6.2-0.1c-0.2,2.2-0.2,4.2-0.4,6.2
		c-0.2,1.9,0.3,5.2-2.3,5.7c-2.5,0.5-1.8-2.6-1.9-4.5c-0.4-5-0.6-10.1-0.9-15.1c-0.6-9.6-1.5-19.1-1.9-28.7
		c-0.2-4.5,0.2-9.1,0.7-13.7c0.3-3,2.5-4.7,5.9-5.5c-5.7-8.7-2.5-18.4-3.9-27.9c-4.3-1.2-5.2-5-6.3-8.8c-1.1-4.1-2.4-8.1-3.3-12.2
		c-0.7-3.1-2-6.7,1-9c3.1-2.4,6.9-1.7,10.1-0.1c4.2,2.1,8.5,4.3,10.5,8.8c4.6-1.1,8.8-2.1,13.5-3.2c0.2-3-0.5-9.7,1.7-9.5
		c2.2,0.2,1.5,6.6,2.8,9.9C988.8,551.3,991.4,551.5,994.8,551.7 M987.9,556.9c-9-0.8-16.8,0.8-23.6,6.2c-2.1,1.6-3.4,3.6-3.3,6.4
		c0.1,6.9,0,13.8,0.3,20.7c0.1,3,0.3,6.2,1.5,8.8c2.6,5.9,7.9,8.4,13.8,9.9c7.5,1.9,15,1.2,22.6,1.4c6.2,0.1,12.4,0.6,18.6-1
		c6.4-1.6,10.4-5.7,11.8-11.8c2.3-10.4,2.1-20.8-2.5-30.7c-1-2-2.6-3.9-4.3-5.4c-5.1-4.8-11.5-4.4-18.2-4.3c-0.3,4.2-0.5,8-0.8,11.8
		c-0.2,2.3-1.2,4.5-3.7,4.8c-2.5,0.3-5.1,0.5-6.5-2.6c-0.4-1-1.6-1.7-2.5-2.4c-2.2-1.8-3.3-4.2-3.3-7.1
		C987.8,560.3,987.9,558.9,987.9,556.9 M1038,623.7c-1.1-3.3-2.2-8-3.5-9.9c-0.5-0.8-2.2-1.4-3.1-1.7c-5.2-1.8-8.4-0.1-12.9,1.9
		c-1.5,0.7-4.5,1.3-6.2,1.3c-11.7-0.3-23.4,1.1-35.3-1c0.2,1.2,0.4,2.1,0.5,3.1c0.5,4.4-3.4,10.3-7.9,10.9
		c-4.1,0.6-7.8,1.7-11.3,4.3c0.7,6.5,0,13.3,2.7,19.9c1.8,0,3.4,0.1,5.1,0.1c-1.6-9.5,4.8-15.2,12.7-15.7c5.6-0.4,8.4,1.3,9.8,6.9
		c0.7,3,0.8,6.1,1.3,9.6c8.1-0.3,16.6-0.7,25.2-1.1c-0.1-2.1-0.3-4.1-0.2-6.1c0.2-2.1,0.7-4.3,1.1-6.1c-2.1-0.9-4.5-1.1-5.9-2.5
		c-4.4-4.4-2.8-11.9,3.1-14.3C1021.2,620.2,1029.2,620.5,1038,623.7 M1028.6,544.8c-1.9,5.9,1.1,9.9,3.3,14.5
		c4.5-5.5,4.7-11.3,2.6-17.9c-1.6,0.7-3,1.3-4.2,2C1029.4,544,1028.7,544.7,1028.6,544.8 M955.9,549.5c-4.6-0.5-6.2,0-5.7,2.2
		c0.6,3.1,1.8,6.1,2.7,9.3C957.4,557.7,954.2,553.3,955.9,549.5"/>
	<path d="M1007.5,583.4c3.6,0,3.6,4.8,3.6,7.5c0,1.1-0.2,3.3-2.5,3.3c-2.2,0-2.6-1.7-2.9-2.8C1005,588.8,1003.9,583.4,1007.5,583.4z
		"/>
	<path d="M977.4,580.6c3,0,3.9,2.2,3.9,3.9c0,2.8,0.6,7-2.8,7c-0.7,0-1.6-0.8-1.8-1.4C975.9,587.3,975.7,580.6,977.4,580.6z"/>
	<path class="st0" d="M732.5,563c-12-20.1-10.7-41.7-7.9-63.8C713.7,507.4,717.7,554.6,732.5,563z"/>
	<g>
		<path d="M776.9,693.5c-9.5-1.5-18.8-4.6-27.9-7.7c-8.9-3.1-21.8-8.9-26.3-11c-4.4-2.1-11.2-8.3-14.8-11.5
			c-5.9-5.3-8.5-12.4-9.7-19.9c-2.1-13.8-4.2-27.6-6-41.5c-1.1-8.7-1.9-17.5-2.7-26.2c-1.2-12.7-2.5-25.3-3.2-38
			c-0.7-12.4-0.8-24.8-1.2-37.1c-0.4-14.9,0.9-29.6,1.9-44.4c0.6-9.3,3.1-18,7-26.3c3.3-6.9,11.8-13.8,15.8-16.3
			c7.6-4.7,37.9-9.1,48.4-9c9.5,0,19,0.5,28.4,1.2c16.3,1.2,32.5,2.7,48.7,4.1c5.2,0.4,10.3,1.2,15.5,1.4
			c18.3,0.7,22.5,5.6,28.7,11.2c6.5,5.9,11.8,11.1,14,18.1c2.6,8.2,4.8,14.5,5.3,23.1c0.5,8.8,0.9,17.6,1.3,26.3
			c0.3,7.5,0.7,15.1,0.7,22.6c0.2,22.6,0.3,45.2,0.3,67.9c0,10.6-0.1,21.2-0.4,31.8c-0.3,9.9-1,19.9-1.6,29.8
			c-0.5,8.6-2.8,16.7-8,23.8s-11.2,10.5-16.3,13.5c-8.6,5-30.1,11.3-31.4,11.8C835.9,694.1,796,696.6,776.9,693.5z M690.7,520.9
			c0.1,0,0.2,0,0.3,0c0,5.9-0.4,11.9,0.1,17.8c1.1,13.1,2.7,26.2,4.1,39.4c0.8,7.3,1.4,14.6,2.4,21.9c2,14.5,4.2,29.1,6.2,43.6
			c1.2,8.7,5,15.6,13,19.8c4.6,2.5,9,5.3,13.7,7.5c8.6,4,17.2,7.5,26.5,10.1c14,4,39.7,5.9,50.1,5.3c2.9-0.2,5.7-0.6,8.6-0.7
			c18.6-0.8,36.6-4.2,53.4-12.8c5.9-3,10.9-6.9,13.8-12.9c2-4.2,3.5-8.6,4.9-13c1.1-3.5,2.1-7.2,2.5-10.8c0.5-4.6,0.6-9.3,0.7-14
			c0.2-9.7,0.5-19.4,0.4-29.1c-0.1-10.9-0.9-21.9-0.9-32.8c-0.1-25.3,0.3-50.5,0.3-75.8c0-11.5-0.9-22.9-3.6-34.1
			c-2.1-9-5.3-17.4-12.4-23.9c-5.8-5.3-12.8-8-20.2-9.3c-5.1-0.9-10.3-1-15.5-1.5c-12.1-1.1-24.1-2.5-36.2-3.3
			c-13.9-1-27.9-1.8-41.9-2.1c-6.2-0.1-12.4,0.8-18.5,1.9c-7.2,1.3-30.7,2.3-38.5,13.4c-1,1.4-3.3,4-4.2,5.5c-4,7.1-6.1,14.9-6.9,23
			c-0.6,6.4-1.3,12.8-1.7,19.3c-0.5,8.1-1.1,16.1-1.1,24.2C689.9,505.2,690.4,513,690.7,520.9"/>
		<path class="st0" d="M865.9,597c1.5-5,0.1-10-0.7-14.8c-0.7-4.1-2.5-8.1-4.2-12c-0.7-1.7-2.3-3.3-5.1-2.2
			c6.6,9.9,11.2,19.8,6.2,31.7C864.3,600,865.3,599,865.9,597z"/>
		<path d="M886.2,491.4c1.3-11.4-2.3-25.8-5.3-40.1c-2.3-10.7-8.8-18.6-19.1-22.1c-7.9-2.7-16.4-4.7-24.7-6.2
			c-7.9-1.4-28.6-5.6-45.1-5.1c-8.4,0.2-16.8-0.4-25.3-0.1c-7.3,0.3-14.6,1.2-21.8,1.8c-7.9,0.7-15.9,1.6-23.8,2.1
			c-7.7,0.5-13.4,4.1-16.1,11.2c-2.4,6.1-4.1,12.6-5.6,19c-2.5,10.7-1.3,21.7-1.8,32.6c-0.3,6.8,0.3,13.6,0.6,20.4
			c0.3,8.6,0.6,17.2,1.1,25.8c0.5,7.3,1.3,14.6,2,21.9c0.9,9.5,1.7,18.9,2.7,28.3c0.7,6.4,1.5,12.8,2.6,19.1
			c1.8,10.4,4.2,20.7,5.8,31.2c1.8,11.8,7.3,20.8,17.8,26.7c3.3,1.8,6.5,3.8,10,5.2c5.8,2.4,11.5,5.5,17.6,6.5
			c11.3,1.9,22.7,3.2,34.1,3.4c16.2,0.3,32.4-0.4,48.5-3.6c7.8-1.5,15.3-3.7,22.5-6.9c5.2-2.3,12.9-7.3,15.2-12.7c0.9-2,3-7,4.3-16
			c1.8-13.1,0.9-26.1,1.8-39.3c0.7-10.2,1.4-20.3,1.8-30.5c0.5-11.4,0.9-22.9,0.9-34.3C886.9,518.2,886.5,506.5,886.2,491.4z
			 M777.7,648.1c-0.7,0.1-34-3.6-45.4-19.3c-7-9.8-10.5-34.8-5-43.2c0.5-0.8,4-3.1,4.7-3.7c-3.7,12.2-3.2,23.7-0.7,35.5
			c0.9,4.5,3.3,8,6.8,10.6c5.3,3.9,15.8,11.6,24.2,13.2c5.2,1,10.3,2.4,15.5,3.6L777.7,648.1L777.7,648.1z M855.9,568
			c2.8-1.1,4.4,0.4,5.1,2.2c1.7,3.9,3.4,7.9,4.2,12c0.9,4.8,2.2,9.7,0.7,14.8c-0.6,2-1.6,3-3.8,2.8C867,587.8,862.4,577.9,855.9,568
			z M793.4,573.6c3.9-0.9,7.5-1.8,11-2.7c9.9-2.6,20-4.3,30.1-4.1c6.4,0.1,13.3,1.4,18.2,6.6c5.3,5.6,6.5,12.6,6,19.9
			c-0.1,2.1-0.4,4.2-0.7,6.5c-20.7,1.5-41.7,3-63.2,4.6C792.9,594,793.7,583.6,793.4,573.6z M792.4,545.3c-0.1-8.2,0-16.4-0.2-24.6
			c-0.1-3.2-0.7-6.4-1.1-10.1c1.6,0,2.7,0.3,3.6,0c8.1-2.7,16.5-2.2,24.8-2.8c6.6-0.5,12.7,0.6,18.9,2.8c6.8,2.4,10.8,7.3,13.4,13.7
			c4.8,11.9,4.1,23.8-0.2,35.7c-0.5,1.3-0.9,2.7-1.4,4.5c-19.5-7-37.9,0.3-56.9,4.1c-0.9-2.6-0.8-5.8-0.5-9.3
			C793.2,554.6,792.4,550,792.4,545.3z M790.2,473.8c-0.1-2.8,0.9-4.7,3-6.5c6-5.2,12.6-9.6,20.6-10.9c8.4-1.3,16.4,1,23.7,5.2
			c7.4,4.4,11.5,11.3,11.5,19.4c0,9-2.6,17.8-10.5,23.2c-15.9-2.7-31.4-2.5-47.3,1.8C790.9,495.2,790.6,484.5,790.2,473.8z M862,545
			c-0.7,13.5-1.1,13.9-4.6,17.2c-0.4-3.3,0.8-6.1,1.4-8.9c3.2-14.2,1.1-27.4-7.2-39.4c-1.3-1.8-2.9-3.5-4.6-5.5h5.7
			C862.7,519,862.7,532,862,545z M858.1,489.9c-1,3.6-1.9,7.2-3.3,10.7c-1.1,2.6-1.4,2.4-5.3,2.7c1.6-5,3.6-10,4.7-15.1
			c2.7-13.1-4.8-26.4-16.8-32.1c-7.1-3.4-11.2-4-19.2-4.5c-8.6-0.6-18.3,4.4-30.1,13.6c-0.5-0.3-2.4-0.6-2.9-1.2
			c-2.7-3.1-6.2-4.6-9.9-6.3c-7.1-3.2-14.4-5.4-22.2-5.6c-9.8-0.2-17.6,3.2-24.8,10.5c-10,10-6.8,34.2-5.1,37.8
			c1.4,3.2,0.1,5.6-3.1,7.2c-2.5-7.1-5.3-14-3.6-21.8c0.6-2.8,0.6-5.7,1-8.5c1.5-12.8,9.7-19.8,20.9-24.1c16.9-6.5,32.1-1.5,47,6.6
			c0.6,0.3,1.2,0.8,2,1.3c14.3-8.2,37-19.8,57.4-5C857.1,465.2,861.5,477.4,858.1,489.9z M726.5,514.4c4.8-6.2,10.5-11.1,18-13.9
			c8.5-3.1,16.9-2.8,25.3-0.3c3.2,1,6.4,2.3,9.6,3.3c2.1,0.7,4.2,1.2,7.1,2c0.4,20.9,0.8,42.3,1.2,63.9c-18.1-4-35.6-6.3-50.9,6.9
			c-7.2-4.1-8.4-11.4-10.3-18.2c-2.7-9.8-2.6-19.8-2.4-29.8c0-0.2,0-0.4,0-0.5C724.3,523.3,723.2,518.6,726.5,514.4z M726.1,481.2
			c1.2-10,10.1-21.1,19.1-22.7c12.1-2.1,32.5,3,40.6,12.8v28.5c-5.2-1.7-10.2-3.6-15.3-5c-5.9-1.5-11.7-2.8-18-2.1
			c-8,0.9-14.7,4.5-21.2,8.7c-1,0.7-2,1.4-3.6,2.5C727.6,501.9,724.9,491.5,726.1,481.2z M720.6,513.3c-2.8,22.1-4.1,43.7,7.9,63.8
			C713.7,568.7,709.7,521.6,720.6,513.3z M777.2,615.9c0,7.7,0,15.4,0,23.5c-5.2-1.9-25.9-7.4-32.6-13.2c-5.9-5.1-9.6-9.8-9.7-17.4
			c0-4-0.1-7.9-0.1-11.9c0.2-13.2,5.5-18.5,16.2-22.6c5.8-2.2,12.1-2.7,18.5-2.1c4.7,0.5,9.6,0,14.1,2c1.5,0.6,2.9,1.3,4.2,1.9
			c0.5,9.6,1.1,18.9,1.6,28.2c-2.8,1.5-5.7,3-8.7,4.6C778,610.6,777.2,613.1,777.2,615.9z M875.4,632.8
			c-0.5,11.6-6.5,19.4-16.5,24.5c-9.2,4.7-19.2,6.7-29.4,8c-14.4,1.9-28.9,2-43.4,1.8c-0.7,0-1.4-0.2-2.6-0.5
			c-0.1-2.6-0.3-5.2-0.4-7.8c-0.2-8.6-0.4-17.2-0.6-25.8c-0.1-5-0.2-10,0-15.1c0.1-4,4.9-7.5,10.1-7.9c8-0.7,16-1.6,24-2.2
			c7.8-0.6,15.6-1,23.4-1.4c12.1-0.7,24.3-1.4,36.9-2.1C876.5,614.3,875.8,623.5,875.4,632.8z M880.8,546.9
			c-0.5,16.1-1.6,32.2-2.4,48.2c-0.1,1.6,0.4,5-1.6,4.8c-2-0.2-1-12-2.4-22.7c-0.5-3.9-2.4-7.5-3.8-11.7c0.7-2.3,7.8-2.6,6.6-4.5
			s-6.3-1.9-6.3-1.9c0.1-10.3,0.4-20.7,0.2-31.1c-0.1-5.6-1.7-11-4.3-16c-0.5-1.1-1-2.2-1.5-3.4c1.5-1.6,3.1-1.7,4.9-1.5
			c0.8,0.1,3.1,0.6,2.6-1.8c-0.5-2.4-4.4-2.7-6-3c0.3-1.4,0.4-2.7,0.8-4c2.8-9.3,0.7-18.5-1.1-27.6c-0.6-3-2.7-5.9-4.6-8.4
			c-5-6.6-11-11.9-18.8-15.1c-9-3.7-18.5-4.9-28.5-3c-9.6,1.8-18.2,5.2-25.5,10.5c-7-2.8-13.4-6-20.2-8c-16.3-4.9-31.6-2.5-45,8.4
			c-6.3,5.1-9.7,12.1-11.1,19.8c-1.2,7-1.3,14.3-1.3,21.4c0,3.3,1.5,6.6,2.3,9.9c0.3,1.2,0.7,2.4,1.2,4.3c-4.1-0.4-7.8-2.1-8.6-0.8
			c-0.8,1.3-0.9,3.7,1.5,4.3c2.5,0.6,1.5,0.6,4.3,1.3c-2.7,11.4-3.6,22.5-2.2,33.9c1.3,11.3,5.2,21.5,12.2,31
			c-2.6,0.8-5.2-0.1-6.8,2.1c-1.6,2.2-0.2,4.5,6.2,4.1c0.1,0.3,0.5,0.7,0.4,0.9c-3,9.2-1.4,18.2-0.7,27.8
			c0.4,4.9,5.3,15.3,10.7,21.2c13.7,14.8,37.1,19.3,45.9,19.3l-0.5,10.9c-7.7-1.5-15.3-0.2-22.4-3.4c-1.7-0.8-3.8-0.8-5.6-1.5
			c-9.8-3.8-19.9-7.3-26.5-16.3c-3.5-4.7-3.4-10.5-4.6-15.8c-1.7-7.1-2.6-14.4-4.1-21.6c-1.9-8.9-3.5-17.9-4.2-27
			c-0.9-12.8-2.7-25.6-4-38.4c-0.8-8-1.3-16.1-2-24.1c-0.1-1.4,0-2.8,0-5.1l-0.4-3.8c0-9.1,0-18.7,0-28.2c0-6.3,0.1-12.6,0.4-18.8
			c0.4-8.5,2.6-16.7,5.2-24.7c0.9-2.8,2.7-5.5,4.8-7.7c3.4-3.3,21.3-4.5,26.1-4.8c7.7-0.5,15.4-1.8,23-1.9c12-0.1,24,0.6,35.9,0.8
			c11.7,0.2,23,3.3,34.5,4.9c7.8,1.1,15.6,2.3,23.2,4.2c11.1,2.8,17.5,10.1,20,21.5c3.6,16.6,4.5,33.3,4.3,50.2
			C880.8,518.9,881.2,532.9,880.8,546.9z"/>
		<path class="st1" d="M793.4,573.6c3.9-0.9,7.5-1.8,11-2.7c9.9-2.6,20-4.3,30.1-4.1c6.4,0.1,13.3,1.4,18.2,6.6
			c5.3,5.6,6.5,12.6,6,19.9c-0.1,2.1-0.4,4.2-0.7,6.5c-20.7,1.5-41.7,3-63.2,4.6C792.9,594,793.7,583.6,793.4,573.6z"/>
		<path class="st1" d="M792.4,545.3c-0.1-8.2,0-16.4-0.2-24.6c-0.1-3.2-0.7-6.4-1.1-10.1c1.6,0,2.7,0.3,3.6,0
			c8.1-2.7,16.5-2.2,24.8-2.8c6.6-0.5,12.7,0.6,18.9,2.8c6.8,2.4,10.8,7.3,13.4,13.7c4.8,11.9,4.1,23.8-0.2,35.7
			c-0.5,1.3-0.9,2.7-1.4,4.5c-19.5-7-37.9,0.3-56.9,4.1c-0.9-2.6-0.8-5.8-0.5-9.3C793.2,554.6,792.4,550,792.4,545.3z"/>
		<path class="st1" d="M790.2,473.8c-0.1-2.8,0.9-4.7,3-6.5c6-5.2,12.6-9.6,20.6-10.9c8.4-1.3,16.4,1,23.7,5.2
			c7.4,4.4,11.5,11.3,11.5,19.4c0,9-2.6,17.8-10.5,23.2c-15.9-2.7-31.4-2.5-47.3,1.8C790.9,495.2,790.6,484.5,790.2,473.8z"/>
		<path class="st1" d="M726.5,514.4c4.8-6.2,10.5-11.1,18-13.9c8.5-3.1,16.9-2.8,25.3-0.3c3.2,1,6.4,2.3,9.6,3.3
			c2.1,0.7,4.2,1.2,7.1,2c0.4,20.9,0.8,42.3,1.2,63.9c-18.1-4-35.6-6.3-50.9,6.9c-7.2-4.1-8.4-11.4-10.3-18.2
			c-2.7-9.8-2.6-19.8-2.4-29.8c0-0.2,0-0.4,0-0.5C724.3,523.3,723.2,518.6,726.5,514.4z"/>
		<path class="st1" d="M726.1,481.2c1.2-10,10.1-21.1,19.1-22.7c12.1-2.1,32.5,3,40.6,12.8v28.5c-5.2-1.7-10.2-3.6-15.3-5
			c-5.9-1.5-11.7-2.8-18-2.1c-8,0.9-14.7,4.5-21.2,8.7c-1,0.7-2,1.4-3.6,2.5C727.6,501.9,724.9,491.5,726.1,481.2z"/>
		<path class="st1" d="M777.2,615.9c0,7.7,0,15.4,0,23.5c-5.2-1.9-25.9-7.4-32.6-13.2c-5.9-5.1-9.6-9.8-9.7-17.4
			c0-4-0.1-7.9-0.1-11.9c0.2-13.2,5.5-18.5,16.2-22.6c5.8-2.2,12.1-2.7,18.5-2.1c4.7,0.5,9.6,0,14.1,2c1.5,0.6,2.9,1.3,4.2,1.9
			c0.5,9.6,1.1,18.9,1.6,28.2c-2.8,1.5-5.7,3-8.7,4.6C778,610.6,777.2,613.1,777.2,615.9z"/>
		<rect x="776.5" y="623.5" class="st0" width="104.9" height="26.4"/>
		<g class="st2">
			<path class="st1" d="M799.3,643.9h-7c-0.4,0-0.7-0.1-0.9-0.3c-0.2-0.2-0.3-0.5-0.3-0.9v-17.9c0-0.4,0.1-0.7,0.3-0.9
				s0.5-0.3,0.9-0.3h7.2c2.3,0,4,0.4,5,1.1c1,0.7,1.6,1.8,1.6,3.4v1c0,1.1-0.4,2-1,2.7c-0.7,0.7-1.8,1.1-3.3,1.2
				c1.9,0.1,3.3,0.5,4.2,1.3c0.9,0.8,1.3,1.9,1.3,3.2v1.3c0,1.7-0.6,3-1.9,3.9C804,643.5,802,643.9,799.3,643.9z M798.9,627.2h-2.8
				v4.4h2.8c0.8,0,1.3-0.1,1.7-0.4c0.3-0.3,0.5-0.8,0.5-1.6v-0.5c0-0.7-0.2-1.2-0.5-1.5S799.7,627.2,798.9,627.2z M799.2,635h-3.2
				v5.2h3.2c1,0,1.8-0.2,2.2-0.5c0.4-0.4,0.7-1,0.7-2v-0.4c0-0.9-0.2-1.5-0.7-1.8C801,635.1,800.3,635,799.2,635z"/>
			<path class="st1" d="M836.3,639.8c-0.4,1.3-1.3,2.4-2.6,3.1c-1.4,0.7-3.2,1.1-5.3,1.1c-1.3,0-2.4-0.2-3.3-0.5s-1.7-0.8-2.4-1.5
				c-0.7,0.7-1.5,1.2-2.4,1.5s-2,0.5-3.3,0.5c-2.8,0-4.9-0.7-6.2-2.1s-2-3.5-2-6.3v-1.6c0-2.7,0.7-4.8,2-6.2s3.4-2.1,6.2-2.1
				c1.3,0,2.4,0.2,3.3,0.5c0.9,0.3,1.7,0.8,2.4,1.5c1.3-1.3,3.3-2,5.8-2c2.7,0,4.7,0.6,6.1,1.8s2.1,2.9,2.1,5.1v1.8
				c0,0.4-0.1,0.7-0.3,0.9s-0.5,0.3-0.8,0.3h-10.3c0,1.6,0.3,2.7,0.8,3.3c0.5,0.6,1.3,0.9,2.4,0.9c0.8,0,1.4-0.1,1.9-0.2
				c0.5-0.2,0.8-0.4,1-0.8c0-0.1,0.1-0.3,0.2-0.6c0.1-0.4,0.2-0.7,0.4-0.9c0.2-0.2,0.5-0.3,1-0.3h2.4c0.8,0,1.2,0.4,1.2,1.3
				C836.5,638.8,836.5,639.3,836.3,639.8z M820.2,635.5v-1.1c0-1.1-0.1-1.9-0.4-2.5c-0.2-0.6-0.6-1-1-1.3s-1.1-0.4-1.8-0.4
				c-1.1,0-1.9,0.3-2.4,0.9s-0.7,1.7-0.7,3.2v1.1c0,1.5,0.2,2.6,0.7,3.2s1.3,0.9,2.4,0.9c0.8,0,1.4-0.1,1.8-0.3
				c0.5-0.2,0.8-0.6,1-1.2C820.1,637.3,820.2,636.5,820.2,635.5z M828.5,629.9c-1,0-1.8,0.2-2.3,0.7s-0.8,1.2-1,2.4h6.3v-0.1
				c0-1.1-0.2-1.9-0.7-2.3S829.6,629.9,828.5,629.9z"/>
			<path class="st1" d="M849.2,637c0,2.5-0.4,4.3-1.2,5.4s-2.1,1.7-4,1.7c-2,0-3.4-0.5-4.3-1.6s-1.4-2.8-1.4-5.2v-10
				c0-0.4,0.1-0.7,0.3-0.9c0.2-0.2,0.5-0.3,0.9-0.3h2.5c0.4,0,0.7,0.1,0.9,0.3c0.2,0.2,0.3,0.5,0.3,0.9v9c0,1,0.2,1.8,0.6,2.3
				c0.4,0.5,1.1,0.7,2,0.7c0.5,0,0.9,0,1.2-0.1c0.3-0.1,0.7-0.3,1-0.5s0.5-0.6,0.7-1.1c0.2-0.5,0.2-1.1,0.2-1.8v-8.5
				c0-0.4,0.1-0.7,0.3-0.9c0.2-0.2,0.5-0.3,0.9-0.3h2.5c0.4,0,0.7,0.1,0.9,0.3c0.2,0.2,0.3,0.5,0.3,0.9v15.5c0,0.4-0.1,0.7-0.3,0.9
				c-0.2,0.2-0.5,0.3-0.9,0.3h-2.5c-0.4,0-0.7-0.1-0.9-0.3c-0.2-0.2-0.3-0.5-0.3-0.9V637z"/>
			<path class="st1" d="M858.5,642.7v-10.8H857c-0.7,0-1.1-0.4-1.1-1.2v-1.5c0-0.8,0.4-1.2,1.1-1.2h1.5v-0.1c0-1.4,0.3-2.4,1-3.2
				s1.7-1.1,3-1.1h3.5c0.4,0,0.7,0.1,0.9,0.3s0.3,0.5,0.3,0.9v0.7c0,0.4-0.1,0.7-0.2,0.9s-0.4,0.3-0.8,0.3h-1.8
				c-0.3,0-0.5,0.1-0.7,0.3s-0.2,0.5-0.2,0.8v0.2h2.5c0.7,0,1.1,0.4,1.1,1.3v1.5c0,0.8-0.4,1.2-1.1,1.2h-2.5v10.8
				c0,0.4-0.1,0.7-0.3,0.9c-0.2,0.2-0.5,0.3-0.9,0.3h-2.5c-0.4,0-0.7-0.1-0.9-0.3C858.6,643.4,858.5,643.1,858.5,642.7z"/>
		</g>
	</g>
	<rect x="416.4" y="676.2" class="st0" width="104.9" height="26.4"/>
	<g class="st2">
		<path class="st1" d="M435.6,696.5h-5.2c-0.3,0-0.6-0.1-0.8-0.3s-0.4-0.4-0.4-0.8l-4.6-18c-0.1-0.4,0-0.7,0.2-1
			c0.2-0.3,0.5-0.4,0.9-0.4h2.3c0.3,0,0.6,0.1,0.8,0.3c0.2,0.2,0.4,0.4,0.4,0.8l3.7,15.9l3.7-15.9c0.1-0.3,0.2-0.6,0.4-0.8
			s0.5-0.3,0.8-0.3h2.3c0.4,0,0.7,0.1,0.9,0.4c0.2,0.3,0.3,0.6,0.2,1l-4.6,18c-0.1,0.3-0.2,0.6-0.4,0.8S436,696.5,435.6,696.5z"/>
		<path class="st1" d="M452.2,692.5c0,1.3-0.4,2.4-1.3,3.1c-0.8,0.7-2.2,1.1-4.1,1.1c-1.8,0-3.2-0.4-4.1-1.2s-1.4-2-1.4-3.5v-0.3
			c0-0.7,0.1-1.4,0.3-1.9c0.2-0.6,0.5-1,0.8-1.4s0.7-0.7,1.2-1c0.5-0.3,1-0.5,1.5-0.7c0.5-0.2,1.1-0.3,1.7-0.4
			c0.7-0.1,1.3-0.2,1.8-0.3c0.5-0.1,1.1-0.1,1.8-0.2c0.7-0.1,1.2-0.2,1.7-0.2V685c0-1-0.2-1.6-0.6-1.9c-0.4-0.3-1.1-0.5-2.1-0.5
			c-0.7,0-1.2,0.1-1.5,0.2c-0.3,0.1-0.6,0.4-0.7,0.6c-0.1,0.1-0.2,0.3-0.3,0.5c-0.1,0.5-0.5,0.8-1.2,0.8h-2.6
			c-0.8,0-1.2-0.4-1.2-1.2c0-0.3,0-0.5,0.1-0.7c0.2-1.4,0.9-2.5,2.1-3.3s2.9-1.2,5.1-1.2c2.8,0,4.8,0.5,6,1.5c1.2,1,1.9,2.7,1.9,5
			v10.3c0,0.4-0.1,0.7-0.3,0.9c-0.2,0.2-0.5,0.3-0.9,0.3h-2.5c-0.4,0-0.7-0.1-0.9-0.3c-0.2-0.2-0.3-0.5-0.3-0.9V692.5z M448.7,693.6
			c0.5,0,1,0,1.4-0.1c0.4,0,0.7-0.1,1.1-0.3c0.3-0.1,0.6-0.3,0.8-0.5c0.2-0.2,0.3-0.5,0.3-0.9v-3.2c-0.1,0-0.3,0.1-0.6,0.1
			c-0.8,0.1-1.3,0.2-1.7,0.3c-0.3,0.1-0.8,0.1-1.3,0.3c-0.5,0.1-0.8,0.2-1,0.3c-0.2,0.1-0.4,0.3-0.7,0.4c-0.2,0.2-0.4,0.4-0.5,0.6
			c-0.1,0.2-0.1,0.5-0.1,0.8v0.2C446.4,692.9,447.2,693.6,448.7,693.6z"/>
		<path class="st1" d="M467.3,696.7c-2.8,0-4.9-0.7-6.2-2.1c-1.3-1.4-2-3.5-2-6.3v-1.6c0-2.8,0.7-4.8,2-6.2c1.3-1.4,3.4-2.1,6.2-2.1
			c2.2,0,4,0.4,5.4,1.3c1.4,0.8,2.3,2.1,2.6,3.6c0.1,0.6,0.2,1.1,0.2,1.6c0,0.7-0.4,1.1-1.2,1.1h-2.6c-0.4,0-0.7-0.1-0.8-0.2
			c-0.2-0.1-0.3-0.4-0.4-0.7c0-0.2-0.1-0.5-0.2-0.8c-0.2-0.5-0.5-0.9-1-1.1c-0.5-0.2-1.1-0.3-2-0.3c-0.8,0-1.4,0.1-1.8,0.4
			c-0.4,0.2-0.8,0.7-1,1.3c-0.2,0.6-0.3,1.4-0.3,2.5v1.1c0,1.5,0.2,2.6,0.7,3.2s1.3,0.9,2.4,0.9c0.8,0,1.5-0.1,1.9-0.3
			c0.5-0.2,0.8-0.6,1-1.1c0.2-0.4,0.3-0.7,0.3-1c0.1-0.3,0.2-0.5,0.4-0.6c0.2-0.1,0.5-0.2,0.8-0.2h2.5c0.8,0,1.2,0.4,1.2,1.2
			c0,0.6,0,1.1-0.1,1.4c-0.3,1.6-1.2,2.8-2.6,3.7C471.3,696.2,469.5,696.7,467.3,696.7z"/>
		<path class="st1" d="M482.4,677.4v8.1c0-2.5,0.4-4.3,1.2-5.4c0.8-1.1,2.1-1.7,4-1.7c2,0,3.4,0.5,4.3,1.6c0.9,1.1,1.3,2.8,1.3,5.3
			v10c0,0.4-0.1,0.7-0.3,0.9c-0.2,0.2-0.5,0.3-0.9,0.3h-2.5c-0.4,0-0.7-0.1-0.9-0.3c-0.2-0.2-0.3-0.5-0.3-0.9v-9
			c0-1-0.2-1.8-0.6-2.3c-0.4-0.5-1.1-0.7-2-0.7c-0.5,0-0.9,0-1.2,0.1c-0.4,0.1-0.7,0.3-1,0.5c-0.3,0.2-0.5,0.6-0.7,1.1
			c-0.2,0.5-0.2,1.1-0.2,1.8v8.5c0,0.4-0.1,0.7-0.3,0.9c-0.2,0.2-0.5,0.3-0.9,0.3h-2.5c-0.4,0-0.7-0.1-0.9-0.3
			c-0.2-0.2-0.3-0.5-0.3-0.9v-17.9c0-0.4,0.1-0.7,0.3-0.9c0.2-0.2,0.5-0.3,0.9-0.3h2.5c0.4,0,0.7,0.1,0.9,0.3
			C482.2,676.7,482.4,677,482.4,677.4z"/>
		<path class="st1" d="M511.1,692.3c-0.4,1.4-1.2,2.4-2.6,3.2c-1.4,0.8-3.2,1.1-5.3,1.1c-2.8,0-4.9-0.7-6.2-2.1
			c-1.3-1.4-2-3.5-2-6.3v-1.6c0-2.8,0.7-4.8,2-6.2c1.4-1.4,3.4-2.1,6.2-2.1c2.7,0,4.7,0.6,6.1,1.8c1.4,1.2,2.1,2.9,2.1,5.1v1.8
			c0,0.4-0.1,0.7-0.3,0.9c-0.2,0.2-0.5,0.3-0.8,0.3h-10.3c0,1.6,0.3,2.7,0.8,3.3c0.5,0.6,1.3,0.9,2.4,0.9c0.8,0,1.5-0.1,2-0.3
			c0.5-0.2,0.8-0.5,1-0.9c0-0.1,0.1-0.3,0.2-0.5c0.1-0.4,0.2-0.7,0.4-0.9c0.2-0.2,0.5-0.3,1-0.3h2.4c0.8,0,1.2,0.4,1.2,1.3
			C511.3,691.4,511.2,691.9,511.1,692.3z M503.3,682.5c-1,0-1.8,0.2-2.3,0.7s-0.8,1.2-1,2.4h6.3v-0.1c0-1.1-0.2-1.9-0.7-2.3
			S504.4,682.5,503.3,682.5z"/>
	</g>
	<g>
		<rect x="945.7" y="676.2" class="st0" width="104.9" height="26.4"/>
		<g class="st2">
			<path class="st1" d="M974.1,696.5h-5.2c-0.3,0-0.6-0.1-0.8-0.3s-0.4-0.4-0.4-0.8l-4.6-18c-0.1-0.4,0-0.7,0.2-1
				c0.2-0.3,0.5-0.4,0.9-0.4h2.3c0.3,0,0.6,0.1,0.8,0.3c0.2,0.2,0.4,0.4,0.4,0.8l3.7,15.9l3.7-15.9c0.1-0.3,0.2-0.6,0.4-0.8
				s0.5-0.3,0.8-0.3h2.3c0.4,0,0.7,0.1,0.9,0.4c0.2,0.3,0.3,0.6,0.2,1l-4.6,18c-0.1,0.3-0.2,0.6-0.4,0.8S974.4,696.5,974.1,696.5z"
				/>
			<path class="st1" d="M996.3,692.3c-0.4,1.4-1.2,2.4-2.6,3.2c-1.4,0.8-3.2,1.1-5.3,1.1c-2.8,0-4.9-0.7-6.2-2.1
				c-1.3-1.4-2-3.5-2-6.3v-1.6c0-2.8,0.7-4.8,2-6.2c1.4-1.4,3.4-2.1,6.2-2.1c2.7,0,4.7,0.6,6.1,1.8c1.4,1.2,2.1,2.9,2.1,5.1v1.8
				c0,0.4-0.1,0.7-0.3,0.9c-0.2,0.2-0.5,0.3-0.8,0.3h-10.3c0,1.6,0.3,2.7,0.8,3.3c0.5,0.6,1.3,0.9,2.4,0.9c0.8,0,1.5-0.1,2-0.3
				c0.5-0.2,0.8-0.5,1-0.9c0-0.1,0.1-0.3,0.2-0.5c0.1-0.4,0.2-0.7,0.4-0.9c0.2-0.2,0.5-0.3,1-0.3h2.4c0.8,0,1.2,0.4,1.2,1.3
				C996.5,691.4,996.4,691.9,996.3,692.3z M988.4,682.5c-1,0-1.8,0.2-2.3,0.7s-0.8,1.2-1,2.4h6.3v-0.1c0-1.1-0.2-1.9-0.7-2.3
				S989.5,682.5,988.4,682.5z"/>
			<path class="st1" d="M1008.8,692.5c0,1.3-0.4,2.4-1.3,3.1c-0.8,0.7-2.2,1.1-4.1,1.1c-1.8,0-3.2-0.4-4.1-1.2s-1.4-2-1.4-3.5v-0.3
				c0-0.7,0.1-1.4,0.3-1.9c0.2-0.6,0.5-1,0.8-1.4s0.7-0.7,1.2-1c0.5-0.3,1-0.5,1.5-0.7c0.5-0.2,1.1-0.3,1.7-0.4
				c0.7-0.1,1.3-0.2,1.8-0.3c0.5-0.1,1.1-0.1,1.8-0.2c0.7-0.1,1.2-0.2,1.7-0.2V685c0-1-0.2-1.6-0.6-1.9c-0.4-0.3-1.1-0.5-2.1-0.5
				c-0.7,0-1.2,0.1-1.5,0.2c-0.3,0.1-0.6,0.4-0.7,0.6c-0.1,0.1-0.2,0.3-0.3,0.5c-0.1,0.5-0.5,0.8-1.2,0.8h-2.6
				c-0.8,0-1.2-0.4-1.2-1.2c0-0.3,0-0.5,0.1-0.7c0.2-1.4,0.9-2.5,2.1-3.3s2.9-1.2,5.1-1.2c2.8,0,4.8,0.5,6,1.5c1.2,1,1.9,2.7,1.9,5
				v10.3c0,0.4-0.1,0.7-0.3,0.9c-0.2,0.2-0.5,0.3-0.9,0.3h-2.5c-0.4,0-0.7-0.1-0.9-0.3c-0.2-0.2-0.3-0.5-0.3-0.9V692.5z
				 M1005.3,693.6c0.5,0,1,0,1.4-0.1s0.7-0.1,1.1-0.3c0.3-0.1,0.6-0.3,0.8-0.5c0.2-0.2,0.3-0.5,0.3-0.9v-3.2c-0.1,0-0.3,0.1-0.6,0.1
				c-0.8,0.1-1.3,0.2-1.7,0.3c-0.3,0.1-0.8,0.1-1.3,0.3c-0.5,0.1-0.8,0.2-1,0.3c-0.2,0.1-0.4,0.3-0.7,0.4c-0.2,0.2-0.4,0.4-0.5,0.6
				c-0.1,0.2-0.1,0.5-0.1,0.8v0.2C1003,692.9,1003.7,693.6,1005.3,693.6z"/>
			<path class="st1" d="M1026.5,689.6c0,2.5-0.4,4.3-1.2,5.4c-0.8,1.1-2.1,1.7-4,1.7c-2,0-3.4-0.5-4.3-1.6c-0.9-1.1-1.4-2.8-1.4-5.2
				v-10c0-0.4,0.1-0.7,0.3-0.9c0.2-0.2,0.5-0.3,0.9-0.3h2.5c0.4,0,0.7,0.1,0.9,0.3c0.2,0.2,0.3,0.5,0.3,0.9v9c0,1,0.2,1.8,0.6,2.3
				c0.4,0.5,1.1,0.7,2,0.7c0.5,0,0.9,0,1.2-0.1c0.3-0.1,0.7-0.3,1-0.5s0.5-0.6,0.7-1.1c0.2-0.5,0.2-1.1,0.2-1.8v-8.5
				c0-0.4,0.1-0.7,0.3-0.9c0.2-0.2,0.5-0.3,0.9-0.3h2.5c0.4,0,0.7,0.1,0.9,0.3c0.2,0.2,0.3,0.5,0.3,0.9v15.5c0,0.4-0.1,0.7-0.3,0.9
				c-0.2,0.2-0.5,0.3-0.9,0.3h-2.5c-0.4,0-0.7-0.1-0.9-0.3c-0.2-0.2-0.3-0.5-0.3-0.9V689.6z"/>
		</g>
	</g>
	<g>
		<path d="M1301,501.3c0,9.4,1.3,71.6,2.2,94c0.4,10.3,0,40.9-7.1,52.6c-4.4,7.1-24.3,29.8-54,37.5c-17.3,4.4-49.3,5.5-59.4,4.7
			c-10.5-0.9-40.7-8.8-47.3-11.8c-9.3-4.3-20.9-10.7-26.2-16.8c-4.9-5.7-7.2-25.3-8.8-34.1c-2-11.4-3.7-22.9-5.2-34.4
			c-1.9-14.1-3.6-28.3-5.1-42.5c-1.4-13.3-2.4-26.6-3.5-40c-0.8-10.9-1.6-21.7-2-32.6c-0.2-6.2,0.6-12.5,0.7-18.7
			c0-8.7,2.2-16.9,4.5-25.2c3.6-13.2,11.9-22.5,23.6-28.9c3-1.7,6.7-2.2,10.2-3c9.6-2.1,19.1-4.3,29-4.3c4.8,0,9.5,0.4,14.3,0.4
			c9.7,0.1,19.3,0,29,0.1c9.8,0.1,19.5-0.3,29.3,0.4c14.8,1.1,29.6,2.3,43.8,6.8c4.2,1.3,8.6,2.5,12.5,4.2
			c5.5,2.3,10.3,6.7,11.3,13.4C1294.8,436.7,1300.7,489.5,1301,501.3z M1293.4,568.7c-0.3-10.2-0.7-20.8-1-31.5
			c-0.5-21.1-0.9-42.2-1.5-63.3c-0.4-14.4-1.8-28.8-4.3-43.1c-2-11.5-9-17.9-20-20.3c-15.9-3.5-31.9-5.8-48.3-5.5
			c-5.9,0.1-11.8-0.2-17.6-0.3c-16.2-0.3-32.5-0.6-48.7-0.7c-4.2,0-8.4,0.7-12.6,1.3c-5.1,0.8-10.1,2.2-15.2,2.7
			c-10,1-20.6,11.7-24,16.6c-3.4,4.9-4.4,10.6-5.9,16.1c-1.4,5-2,10.1-2.6,15.3c-1.2,11.2-1.3,22.4-0.5,33.7
			c0.7,9.3,1.4,18.5,1.8,27.8c0.5,11.2,1.7,22.3,3.2,33.4c1.3,9.5,2.1,19.1,3.3,28.7c1.1,8.8,2.3,17.7,3.7,26.5
			c1.7,10.9,4.6,47.9,20.6,57.4c9,5.3,30.3,12.1,39.8,14.1c9.3,2,20.4,4.5,30,4.5c12,0.1,38.6-3.8,47.5-5.6c9.7-2,18.6-6,26.5-12.1
			c16.9-13.1,22.7-29.7,24.4-37.4c3.1-13.9,1.8-28.1,1.4-42.2C1293.2,579.6,1293.4,574.4,1293.4,568.7"/>
		<path d="M1284.1,512.8c-0.2-14.6-0.6-29.3-1.5-43.9c-0.7-11.2-1.8-22.4-5.5-33.1c-2.9-8.6-9.4-13.6-17.1-16.5
			c-12.6-4.7-25.9-6.3-39.3-7.1c-8.7-0.5-74.5-0.3-86.3,0.5c-10.5,0.7-22,6-25,9.7c-3,3.7-4.6,9.5-5.3,12
			c-2.2,8.5-3.7,17.1-4.2,25.8c-0.5,8.7-0.6,17.5-1.1,26.2c-1.1,19,0.6,37.8,2.4,56.7c1.6,16.9,4,33.6,6.3,50.4
			c1.7,12.9,3.4,25.8,5.5,38.7c0.6,3.8,2.2,7.6,4.1,10.9c3.2,5.3,8.5,8.6,14.1,11c7.5,3.2,15.2,6,22.9,8.9c13.5,5,27.6,7.1,41.9,8.1
			c5.3,0.4,10.8,1.1,16,0.2c15.3-2.7,30.4-6.1,45-11.5c6.5-2.4,11.4-6.4,15.6-11.6c4.1-5.1,6.9-21.3,7.3-23.3
			c0.5-2.4,1.3-4.9,1.5-7.3c1.1-13.5,2.6-27,2.9-40.5C1284.7,555.6,1284.4,534.2,1284.1,512.8 M1239.4,469.3
			c-3.5-11.4-11.8-17.5-22.7-21.5c-15.2-5.6-30.8-5.7-46.5-5.1c-2.8,0.1-5.8,1.7-8.3,3.2c-4.1,2.6-4.3,5.4-1.2,9.2
			c0.5,0.5,0.9,1.1,1.5,1.9c-3.1,3.4-6.1,6.8-9.2,10.2c-0.7,0.8-1.5,1.5-2.3,2.3c-3.9,4.2-3.9,4.2-9.8,2.6
			c-3.1,6.8-2.8,14.1-2.2,21.3c0.2,2.3,1,4.5,1.5,6.8c0.5,1.9,0.5,3.5-2.2,4.9c-2.9-5.5-6.4-10.7-6.3-17.1c0.1-4.2,0.4-8.6,1.6-12.7
			c2.2-7.1,3.9-14.4,9.3-20.2c5-5.5,10.8-9.8,17.3-13.3c1.1-0.6,2.3-1,3.5-1.2c17.6-3.5,35.1-2.8,52.3,2.1
			c6.8,1.9,12.3,6.3,17.7,10.7c1.9,1.6,3.7,3.3,5.5,5.1c5,5.2,7.5,10.8,7.2,18.6c-0.2,4.8,0.4,10.1-2.2,15.2c-1.7-1.4-5.3-3-5.9-3.5
			c0.8-5.2,1.6-10,2-14.7C1240.4,472.5,1239.9,470.8,1239.4,469.3 M1178.8,472.9c-3,1.6-4.8,4.2-4.9,7.8c-3.4,1.4-6.8,2.4-9.9,4.1
			c-3,1.6-6,2.9-8.4,6.1c-2.4,3.2-7,4.7-10.7,7.1c-2.4-6-0.9-12.1-0.9-18.8c2,0.5,3.4,2.8,5.5,1.5c2.1-1.3,18.6-17.8,19.9-18.7
			c1.4-1,0.4-2.3-4.3-9.7c2-2.4,4.6-3.6,7.8-3.5c10.6,0.3,21.3-0.9,31.9,2.1c7.1,2,14,3.9,20.3,7.7c4.6,2.9,7.7,7.1,9.3,12.1
			c1.8,5.3-0.2,10.4-1.9,15.5c-5.7-1.7-10.9-3.4-16.3-4.8c-2.9-0.8-6.3-0.4-8.9-1.6c-2.6-1.2-4.2-4.3-6.6-5.9
			C1193.7,469.2,1186.2,469.1,1178.8,472.9 M1194.8,478.7c-3.8,0.2-7.6,0.4-11.4,0.6C1187,476.6,1190.8,476.1,1194.8,478.7
			 M1142.9,509.1c5.1-6.3,11.2-11.3,18.3-14.5c7.2-3.2,19.6-8.2,27.2-8.7c13.1-0.9,26.5,2.1,38.6,6.9c6,2.4,11.9,5.7,16.4,10.8
			c3,3.3,5.6,7.9,6.4,12.3c1.4,7,0.2,13.2,0,20c-0.1,1.5-1,5.5-3.6,4c-1.3-0.7-0.3-3.1,0-4.6c1.9-9.3-1.4-17.2-6.1-24.7
			c-7-11-17.7-15.5-30-17.4c-11.7-1.8-23.1-0.8-34.4,2.2c-3.3,0.9-6.7,1.2-9.9,2c-4.7,1.1-5.4,3.3-2.6,7.3c1,1.4,2.2,2.7,3.6,4.3
			c-8.3,5.4-14.5,12-19.9,19.6c-0.6-0.1-1.3-0.1-2-0.2c-4.8-1.1-5-0.7-6.7,3.9c-2.8,7.2-1.9,14.5-0.3,21.6c0.7,2.9,2.9,5.5,4.5,8.5
			c-1.5,2.9-3.4,6.4-5.6,10.5c-1.3-2.3-2.8-4-3.4-6.1c-3.3-10.5-4.3-21.4-2-32.2C1133.2,525.4,1136.7,516.7,1142.9,509.1
			 M1186.9,526.9c-3.6,0.8-6,3.5-8,6.7c-0.8,1.4-2.4,2.6-3.9,3.2c-11.7,4.4-22.4,10.1-29.8,20.7c-0.2,0.3-0.6,0.4-1.3,0.8
			c-3.2-8.4-3.7-16.5,0-25c1.9,1.2,4.2,6,5.6,3.5c4.2-7.4,14.7-20.7,23.4-23.8c3-1.1-2.7-6.5-5.8-9.5c9.8-2.2,18.8-5.4,28.4-5.1
			c5.7,0.2,11.4,0.5,17,1.5c4.7,0.8,9.4,2.3,13.7,4.3c7.9,3.6,19,19.3,15.1,32.1c-0.2,0.7-0.6,1.3-1.2,2.3c-2.1-0.6-4.4-0.9-6.4-1.7
			c-6.9-2.7-14.1-3.9-21.4-4.3c-2.5-0.1-4.3-0.9-6.2-2.5C1200.5,525,1193.7,525.4,1186.9,526.9 M1201.4,532.7
			c-2.3,0-12,0.7-16.3,1.7c0,0,2-4.5,7.3-4.5C1197.6,529.9,1203.8,532.7,1201.4,532.7 M1139.9,579.5c2-4.2,4.1-8.3,6-12.5
			c2.8-6.1,7.6-10.1,12.8-13.9c14.2-10.3,30.2-13.1,47.3-10.9c7.2,1,14.5,1.9,21.6,3.5c4.5,1,8.7,3,12.9,5.1
			c3.1,1.5,6.1,4.5,7.9,7.6c3.7,6.3,3.7,13.1,4.6,19.6c0.6,4.4,0.6,10.8,0.8,15.3c0,0.8-2.9,0.7-4.2,1c-1.3,0.3-1-3.1-1.3-4.7
			c-1.5-8.4-2.9-16.9-7.1-24.6c-4.6-8.4-11.9-12.8-21-14.7c-5-1.1-9.9-1.9-15.1-2.1c-12.6-0.5-30.9,1.9-41.1,9.7
			c-1.7,1.3-3,5.1-1.4,6.5c1.5,1.4,2.7,3.7,2.5,3.9c-7.5,6.4-13.1,14.2-15.4,23.9c-0.6,2.3-2,3.1-3.7,4.1c-4.2,2.4-4.7,3.8-3.3,8.3
			c0.7,2.2,1.5,4.4,2.3,6.5c2.7,7.2,8.5,11.4,14.8,14.7c4.3,2.3,8.4,5.6,14.1,5.1c0.3,4.5,0.7,8.9,1.1,14.4
			c-9.2-2.9-17.9-4-24.8-9.5c-8.2-6.5-12.9-15.1-13.6-25.6c-0.3-4.9-1.1-10.2-0.4-14.9C1136.9,589.4,1137.6,584.3,1139.9,579.5
			 M1174,611.9c-0.2,3.9,0,7.8,0,11.7c-12.7-1.1-26.5-16.3-25.5-20c0.9-3.7,6-4.6,6.5-7.4c1.1-6.4,5.1-11.2,9.9-15.5
			c2.6-2.4,5.1-5,7.1-7.8c2.1-3,2.1-6.3-0.2-9.4c-0.5-0.7-1.6-1.6-1.1-2.7c0.5-1.1,10-4.3,15.2-5.2c11.9-2,23.8-1.8,35.6,0.7
			c5.1,1.1,9.4,3.4,12.1,8.7c4,7.7,5.9,16,8.1,24.3c0.4,1.7,0.7,3.4,1.2,5.6c-6.8,0-13.1,0-19.5,0c-2,0-3.4-0.7-4.3-2.5
			c-3.6-7.3-10.2-9.3-17.4-8.8c-6.5,0.4-11.1,4.8-14.3,10.1c-1.9,3.1-3.9,5.6-7.2,7.4C1175.9,603.3,1174.2,607.4,1174,611.9
			 M1215.4,593.8c-7.4,0.9-14.5,1.8-22.5,2.8C1199.8,587.1,1208.3,586.3,1215.4,593.8 M1271.9,633.9c-1.8,10.2-8.2,16.6-17.4,20
			c-15.3,5.7-31.1,9.3-47.2,11.6c-5.5,0.8-11.4-0.5-17.1-0.9c-2.6-0.2-5.3-0.7-8.2-1c-0.6-6.6-1.4-13.1-1.8-19.6
			c-0.5-9.3-0.9-18.6-1.1-27.9c-0.2-7.2,2.3-10.5,9.3-12.4c10.9-3,22-4.1,33.4-3.6c12.5,0.6,25-0.1,37.4-1.5c6-0.7,12.1-0.7,19.1-1
			C1276.1,610,1274,622,1271.9,633.9 M1278.3,591.7c-6.1,0.5-11.6,1-17.4,1.5c0.8-8.2,1.7-15.9,0.4-23.7c-1.3-7.9-3-15.5-10.1-20.7
			c3.4-9,4.4-18.2,5.1-27.4c0.6-7.2-2-19.6-6.7-24.8c1-5.8,3.2-11,3.8-16.2c0.9-7.3-0.9-14.1-4.2-20.7c-2.1-4-19.4-19.4-36.4-23.8
			c-16.1-4.1-32.2-4.3-48.4-1.7c-9.9,1.6-17.5,7.6-24.2,14.9c-10.6,11.6-13.8,25.6-12.6,40.7c0.4,5.6,3.2,10.6,6.4,15.2
			c0.7,1,1.4,2,2.1,2.9c-1.9,3.6-3.7,7.1-5.4,10.6c-6.8,14.6-7,29.6-3.3,44.9c1.2,5,3,9.6,7.5,12.6c-0.7,1.9-1.3,3.5-1.8,5.2
			c-4.5,16.3-4,32.1,4,47.3c3.8,7.2,9.9,12.2,17,15.6c6.6,3.2,13.8,5.1,21.4,7.8c0.3,3.1,0.6,6.7,1,11.2c-3.2-0.5-5.6-0.7-7.9-1.3
			c-8.7-2.6-17.4-5.2-26.1-8c-6.9-2.2-13.1-5.8-18.7-10.3c-1.8-1.4-3.2-4-3.6-6.3c-2.2-11.6-4.1-23.2-5.8-34.9
			c-1.8-11.8-3.5-23.6-4.8-35.5c-1.5-13.3-2.7-26.6-3.8-40c-0.8-9.8-1.7-19.6-1.7-29.4c0-10.2,1-20.3,1.6-30.5
			c0.3-5.9,0.5-11.8,1.2-17.6c0.6-4.9,1.7-9.9,3.1-14.6c2.9-9.8,10.6-15.2,20.9-15.8c10.5-0.7,80-1.4,87.3-1.1
			c13.8,0.7,27.3,2.7,40.5,6.5c6.1,1.8,10.4,6.4,12,12.7c1.6,6.4,2.7,12.9,3.8,19.4c2.5,15.2,2.3,30.6,2.5,46
			c0.2,14.1,1.4,28.2,1.5,42.2C1279.1,560,1278.5,575.4,1278.3,591.7"/>
		<path class="st1" d="M1178.8,472.9c-3,1.6-4.8,4.2-4.9,7.8c-3.4,1.4-6.8,2.4-9.9,4.1c-3,1.6-6,2.9-8.4,6.1
			c-2.4,3.2-7,4.7-10.7,7.1c-2.4-6-0.9-12.1-0.9-18.8c2,0.5,3.4,2.8,5.5,1.5c2.1-1.3,18.6-17.8,19.9-18.7c1.4-1,0.4-2.3-4.3-9.7
			c2-2.4,4.6-3.6,7.8-3.5c10.6,0.3,21.3-0.9,31.9,2.1c7.1,2,14,3.9,20.3,7.7c4.6,2.9,7.7,7.1,9.3,12.1c1.8,5.3-0.2,10.4-1.9,15.5
			c-5.7-1.7-10.9-3.4-16.3-4.8c-2.9-0.8-6.3-0.4-8.9-1.6c-2.6-1.2-4.2-4.3-6.6-5.9C1193.7,469.2,1186.2,469.1,1178.8,472.9"/>
		<path class="st1" d="M1186.9,526.9c-3.6,0.8-6,3.5-8,6.7c-0.8,1.4-2.4,2.6-3.9,3.2c-11.7,4.4-22.4,10.1-29.8,20.7
			c-0.2,0.3-0.6,0.4-1.3,0.8c-3.2-8.4-3.7-16.5,0-25c1.9,1.2,4.2,6,5.6,3.5c4.2-7.4,14.7-20.7,23.4-23.8c3-1.1-2.7-6.5-5.8-9.5
			c9.8-2.2,18.8-5.4,28.4-5.1c5.7,0.2,11.4,0.5,17,1.5c4.7,0.8,9.4,2.3,13.7,4.3c7.9,3.6,19,19.3,15.1,32.1
			c-0.2,0.7-0.6,1.3-1.2,2.3c-2.1-0.6-4.4-0.9-6.4-1.7c-6.9-2.7-14.1-3.9-21.4-4.3c-2.5-0.1-4.3-0.9-6.2-2.5
			C1200.5,525,1193.7,525.4,1186.9,526.9"/>
		<path class="st1" d="M1174,611.9c-0.2,3.9,0,7.8,0,11.7c-12.7-1.1-26.5-16.3-25.5-20c0.9-3.7,6-4.6,6.5-7.4
			c1.1-6.4,5.1-11.2,9.9-15.5c2.6-2.4,5.1-5,7.1-7.8c2.1-3,2.1-6.3-0.2-9.4c-0.5-0.7-1.6-1.6-1.1-2.7c0.5-1.1,10-4.3,15.2-5.2
			c11.9-2,23.8-1.8,35.6,0.7c5.1,1.1,9.4,3.4,12.1,8.7c4,7.7,5.9,16,8.1,24.3c0.4,1.7,0.7,3.4,1.2,5.6c-6.8,0-13.1,0-19.5,0
			c-2,0-3.4-0.7-4.3-2.5c-3.6-7.3-10.2-9.3-17.4-8.8c-6.5,0.4-11.1,4.8-14.3,10.1c-1.9,3.1-3.9,5.6-7.2,7.4
			C1175.9,603.3,1174.2,607.4,1174,611.9"/>
		<g>
			<rect x="1175.3" y="618.5" class="st0" width="104.9" height="26.4"/>
			<g class="st2">
				<path class="st1" d="M1203.7,638.9h-5.2c-0.3,0-0.6-0.1-0.8-0.3c-0.2-0.2-0.4-0.4-0.4-0.8l-4.6-18c-0.1-0.4,0-0.7,0.2-1
					c0.2-0.3,0.5-0.4,0.9-0.4h2.3c0.3,0,0.6,0.1,0.8,0.3c0.2,0.2,0.4,0.4,0.4,0.8l3.7,15.9l3.7-15.9c0.1-0.3,0.2-0.6,0.4-0.8
					s0.5-0.3,0.8-0.3h2.3c0.4,0,0.7,0.1,0.9,0.4c0.2,0.3,0.3,0.6,0.2,1l-4.6,18c-0.1,0.3-0.2,0.6-0.4,0.8
					C1204.3,638.8,1204,638.9,1203.7,638.9z"/>
				<path class="st1" d="M1225.9,634.7c-0.4,1.4-1.2,2.4-2.6,3.2c-1.4,0.8-3.2,1.1-5.3,1.1c-2.8,0-4.9-0.7-6.2-2.1
					c-1.3-1.4-2-3.5-2-6.3v-1.6c0-2.8,0.7-4.8,2-6.2c1.4-1.4,3.4-2.1,6.2-2.1c2.7,0,4.7,0.6,6.1,1.8s2.1,2.9,2.1,5.1v1.8
					c0,0.4-0.1,0.7-0.3,0.9c-0.2,0.2-0.5,0.3-0.8,0.3h-10.3c0,1.6,0.3,2.7,0.8,3.3c0.5,0.6,1.3,0.9,2.4,0.9c0.8,0,1.5-0.1,2-0.3
					c0.5-0.2,0.8-0.5,1-0.9c0-0.1,0.1-0.3,0.2-0.5c0.1-0.4,0.2-0.7,0.4-0.9c0.2-0.2,0.5-0.3,1-0.3h2.4c0.8,0,1.2,0.4,1.2,1.3
					C1226,633.8,1226,634.3,1225.9,634.7z M1218,624.9c-1,0-1.8,0.2-2.3,0.7s-0.8,1.2-1,2.4h6.3v-0.1c0-1.1-0.2-1.9-0.7-2.3
					S1219.1,624.9,1218,624.9z"/>
				<path class="st1" d="M1238.3,634.9c0,1.3-0.4,2.4-1.3,3.1c-0.8,0.7-2.2,1.1-4.1,1.1c-1.8,0-3.2-0.4-4.1-1.2s-1.4-2-1.4-3.5V634
					c0-0.7,0.1-1.4,0.3-1.9c0.2-0.6,0.5-1,0.8-1.4s0.7-0.7,1.2-1c0.5-0.3,1-0.5,1.5-0.7c0.5-0.2,1.1-0.3,1.7-0.4
					c0.7-0.1,1.3-0.2,1.8-0.3c0.5-0.1,1.1-0.1,1.8-0.2c0.7-0.1,1.2-0.2,1.7-0.2v-0.5c0-1-0.2-1.6-0.6-1.9c-0.4-0.3-1.1-0.5-2.1-0.5
					c-0.7,0-1.2,0.1-1.5,0.2c-0.3,0.1-0.6,0.4-0.7,0.6c-0.1,0.1-0.2,0.3-0.3,0.5c-0.1,0.5-0.5,0.8-1.2,0.8h-2.6
					c-0.8,0-1.2-0.4-1.2-1.2c0-0.3,0-0.5,0.1-0.7c0.2-1.4,0.9-2.5,2.1-3.3c1.2-0.8,3-1.2,5.1-1.2c2.8,0,4.8,0.5,6,1.5
					c1.2,1,1.9,2.7,1.9,5v10.3c0,0.4-0.1,0.7-0.3,0.9c-0.2,0.2-0.5,0.3-0.9,0.3h-2.5c-0.4,0-0.7-0.1-0.9-0.3
					c-0.2-0.2-0.3-0.5-0.3-0.9V634.9z M1234.9,635.9c0.5,0,1,0,1.4-0.1c0.4,0,0.7-0.1,1.1-0.3c0.3-0.1,0.6-0.3,0.8-0.5
					c0.2-0.2,0.3-0.5,0.3-0.9V631c-0.1,0-0.3,0.1-0.6,0.1c-0.8,0.1-1.3,0.2-1.7,0.3c-0.3,0.1-0.8,0.1-1.3,0.3
					c-0.5,0.1-0.8,0.2-1,0.3c-0.2,0.1-0.4,0.3-0.7,0.4c-0.2,0.2-0.4,0.4-0.5,0.6c-0.1,0.2-0.1,0.5-0.1,0.8v0.2
					C1232.5,635.3,1233.3,635.9,1234.9,635.9z"/>
				<path class="st1" d="M1256.1,632c0,2.5-0.4,4.3-1.2,5.4c-0.8,1.1-2.1,1.7-4,1.7c-2,0-3.4-0.5-4.3-1.6c-0.9-1.1-1.4-2.8-1.4-5.2
					v-10c0-0.4,0.1-0.7,0.3-0.9c0.2-0.2,0.5-0.3,0.9-0.3h2.5c0.4,0,0.7,0.1,0.9,0.3c0.2,0.2,0.3,0.5,0.3,0.9v9c0,1,0.2,1.8,0.6,2.3
					c0.4,0.5,1.1,0.7,2,0.7c0.5,0,0.9,0,1.2-0.1c0.3-0.1,0.7-0.3,1-0.5c0.3-0.2,0.5-0.6,0.7-1.1c0.2-0.5,0.2-1.1,0.2-1.8v-8.5
					c0-0.4,0.1-0.7,0.3-0.9c0.2-0.2,0.5-0.3,0.9-0.3h2.5c0.4,0,0.7,0.1,0.9,0.3c0.2,0.2,0.3,0.5,0.3,0.9v15.5c0,0.4-0.1,0.7-0.3,0.9
					c-0.2,0.2-0.5,0.3-0.9,0.3h-2.5c-0.4,0-0.7-0.1-0.9-0.3c-0.2-0.2-0.3-0.5-0.3-0.9V632z"/>
			</g>
		</g>
	</g>
	<g>
		<g>
			<path class="st1" d="M560.9,469.5l-2.7-1.2c7-15.6,22.4-27.7,41.1-32.4c24.2-6.1,50.6,0.6,74.2,18.7l-1.8,2.4
				c-22.9-17.6-48.3-24-71.6-18.2C582.1,443.3,567.5,454.8,560.9,469.5z"/>
			<g>
				<polygon class="st1" points="670.9,448.2 671.8,455.3 664.7,456.2 668.1,458.9 675.2,458 674.3,450.8 				"/>
			</g>
		</g>
	</g>
	<g>
		<g>
			<path class="st1" d="M992.9,531.5l-2.7-1.2c6.4-14.2,19.6-23.8,36.3-26.3c17.7-2.7,35.4,3.3,46.3,15.5l-2.2,2
				c-10.2-11.5-26.9-17.1-43.6-14.5C1011.2,509.3,998.8,518.3,992.9,531.5z"/>
			<g>
				<polygon class="st1" points="1071.7,512.7 1071,519.9 1063.8,519.2 1066.6,522.5 1073.8,523.2 1074.4,516 				"/>
			</g>
		</g>
	</g>
</g>
</svg>
