<?xml version="1.0" encoding="utf-8"?>
<!-- Generator: Adobe Illustrator 19.1.0, SVG Export Plug-In . SVG Version: 6.00 Build 0)  -->
<svg version="1.1" id="Calque_1" xmlns="http://www.w3.org/2000/svg" xmlns:xlink="http://www.w3.org/1999/xlink" x="0px" y="0px"
	 viewBox="0 0 120.5 116.2" style="enable-background:new 0 0 120.5 116.2;" xml:space="preserve">
<style type="text/css">
	.st0{display:none;fill:#F7B5AC;}
	.st1{fill:#F7B5AC;}
	.st2{fill:#EB5C5F;}
	.st3{fill:#84B974;}
	.st4{fill:#010202;}
	.st5{fill:#AB7613;}
	.st6{fill:#C0BFBF;}
	.st7{fill:#6FA4C3;}
	.st8{fill:#1E1E1C;}
	.st9{fill:none;}
	.st10{fill:none;stroke:#EB5C5F;stroke-width:3;stroke-miterlimit:10;}
	.st11{fill:none;stroke:#6FA4C3;stroke-width:3;stroke-miterlimit:10;}
	.st12{fill:none;stroke:#84B974;stroke-width:3;stroke-miterlimit:10;}
	.st13{fill:none;stroke:#C0BFBF;stroke-width:3;stroke-miterlimit:10;}
	.st14{fill:none;stroke:#F7B5AC;stroke-width:3;stroke-miterlimit:10;}
</style>
<g>
	<path class="st3" d="M112,63c1.5,0.3,2.9,0.8,4.7,1.3c0-1.7,0.1-3.2,0.1-4.6c-0.1-2.7-0.1-2.8-2.4-3.6c-2.1-0.7-4.2-1.3-6.3-2
		c-4.7-1.6-9.5-2.7-14-4.9c-3.8-1.8-7.8-3.1-11.9-4.6c-0.2,0.8-0.5,1.7-0.8,2.6c-0.2,0.6-0.3,1.3-0.7,1.8c-2.4,3-5.4,4.4-9.3,3.7
		c-1.3-0.2-2.6-0.5-3.9-0.9c-3.2-1-5.5-3.1-7-6c-1.1-2.1-1.6-4.5-0.5-6.9c0.3-0.6,0.4-1.2,0.6-2c-17-6.4-34-11.8-51.9-16.1
		C8.2,22,7.7,23,7.5,24.1c-2.3,8.5-3.2,17.3-3.9,26c-0.6,6.6-0.4,13.3-0.7,20C2.7,75,3.6,79.8,5.1,84.5C5.5,86,6.3,87,7.7,87.6
		c2.7,1.2,5.2,2.7,7.6,4.4c0.2,0.1,0.5,0.2,0.7,0.2c4-4.3,10.3-4.1,13.9,0.5c1,1.3,1.9,2.9,2.6,4.4c0.5,0.9,1,1.3,1.9,1.8
		c3.8,2.2,8.1,2.8,12.3,3.7c7.2,1.6,14.1,4,21.4,5c5.8,0.8,11.4,2.2,17.2,3.1c4,0.6,8.2,0.8,12.2,1.2c4.9,0.5,9.8,0.5,14.8-1.6
		c0.9-8.7,1.8-17.6,2.7-26.7c-3.7,0.4-6.9-0.1-10-1.5c-3.3-1.6-6.7-6.3-6.3-9.6C99.7,65.4,104.9,61.4,112,63z M12,79.8
		c-0.4-2.1,0-5.4,1.9-4.9C15.8,75.3,14.2,80.5,12,79.8z M19.9,58.7c-4.3,0.6-6.8-5.1-3.8-9.7c1.4-2.1,3.4-3.8,5.7-5.1
		c2.7-1.5,3.7-0.9,5.5,1.6C31.2,51.1,25.8,57.8,19.9,58.7z M42.3,72c-0.4,0.4-1.2,0.7-1.7,0.5c-0.4-0.1-0.9-0.9-1-1.5
		c-0.6-3.3,1.3-9.1,3.3-8.9C45.6,66.2,45.4,69.2,42.3,72z M83.4,92.2c-3.4,3.5-7.6,3.2-10.4-0.7c-0.8-1.1-1.5-2.2-1.9-3.4
		c-1.2-3.4,1.1-7.6,4.6-8.5c0.5-0.1,1.2,0,1.6,0.1c3.5,0.8,7.8,6.8,7.9,9.8C84.6,90.2,84.2,91.4,83.4,92.2z"/>
	<path class="st3" d="M111.4,51.1c-0.9-1.3-1.8-2.6-2.7-3.9c-1-1.5-2.1-3-3.2-4.4c-3.3-4.4-6.6-8.8-10.1-13.1c-0.7-0.9-1.9-1.6-3-2
		c-3.1-1.2-4.5-3.3-4.3-6.7c0-0.6-0.1-1.1-0.2-1.7c-0.9-5.2-3.2-9.8-5.7-14.3c-1.3-2.3-1.5-2.5-4-1.9c-2.9,0.7-5.9,0.6-8.8,0.5
		c-6.2-0.2-12.2,0.5-18,2.3c-2.8,0.8-5.7,1.7-8.5,2.3c-4.8,1.1-9.7,1.9-14.6,2.9c-1.7,0.3-3.3,0.8-4.9,1.2c-2.3,0.6-4.6,1-6.9,1.8
		c-1.7,0.6-3.4,1.5-4.6,3.2c4.2,1.4,8.1,2.6,12.1,3.9c6.5,2.2,13.3,3.1,19.7,5.9c6.3,2.7,13,4.5,19.4,6.7c0.7,0.3,1.1,0.2,1.8-0.1
		c2.8-1.4,5.8-2.6,9-2.3c2.2,0.2,4.7,0.1,6.2,2.1c1.6,2.3,3.1,4.7,3,7.7C92.3,45.4,101.6,48.5,111.4,51.1"/>
	<path d="M119.8,68.2c-1.1,0.6-1.9,0.1-2.8-0.6c-0.8-0.7-2-1.4-2.9-1.3c-2.2,0.3-4.6,0.4-6.1,2.5c-2.6,3.9-2.6,7.1,0.2,10.8
		c0.4,0.5,1.2,1.2,1.7,1.2c1.9,0,3.8-0.1,5.6-0.5c2.1-0.4,2.8,0.1,2.6,2.2c-0.5,5.6-1.1,11.2-1.6,16.8c-0.3,2.8-0.4,5.7-0.6,8.5
		c-0.1,1.5-0.3,3.1-0.8,4.5c-0.6,1.7-1.9,2.8-3.7,3.2c-5.6,1.1-11.2,0.4-16.8-0.2c-6.6-0.7-13.2-1.8-19.8-2.8
		c-3.9-0.6-7.8-1.6-11.7-2.4c-0.5-0.1-0.9-0.2-1.4-0.3c-5.3-1-10.8-1.6-16-3c-4.6-1.2-8.9-3.3-13.4-5c-0.9-0.3-1.3-0.9-1.6-1.8
		c-0.5-1.5-1.2-3-1.8-4.5c-0.6-1.3-1.9-1.8-3.1-1.7c-1.9,0.1-3.8,0.5-5.5,1.2c-2.2,0.9-4,1.1-6-0.6c-1.7-1.4-3.9-2.3-6-3.3
		c-3-1.5-5.2-3.6-6.3-7C0.7,79.8-0.2,75.4,0,70.7c0.3-6.3,0.1-12.6,0.6-18.9C1.3,42.9,2.1,34,4.2,25.2c0.6-2.4,1.9-4.5,1.8-7.1
		c0-0.5,0.9-1.2,1.4-1.7c4.4-3.3,9.1-5.9,14.6-6.9c6.8-1.2,13.6-2.7,20.4-4.3c3.8-0.9,7.5-2.1,11.3-3.1c4.9-1.3,9.9-1.7,15-1.5
		c3.2,0.1,6.5-0.3,9.7-0.6c2.3-0.2,4.3-0.2,5.6,2.3c2.2,4.2,4.7,8.3,7,12.4c0.3,0.6,0.5,1.3,0.8,1.8c0.7,0.9,0.5,1.7,0.1,2.7
		c-1.3,2.7-0.7,4.7,1.9,5.9c3.9,1.8,6.5,4.9,9.1,8.1c3.7,4.6,7.6,9,11.2,13.7c2.2,2.9,4,6.2,6,9.3c0.3,0.5,0.5,1.3,0.3,1.8
		C119.3,61.4,119.4,64.8,119.8,68.2 M8.7,20.8C8.2,22,7.7,23,7.5,24.1c-2.3,8.5-3.2,17.3-3.9,26c-0.6,6.6-0.4,13.3-0.7,20
		C2.7,75,3.6,79.8,5.1,84.5C5.5,86,6.3,87,7.7,87.6c2.7,1.2,5.2,2.7,7.6,4.4c0.2,0.1,0.5,0.2,0.7,0.2c4-4.3,10.3-4.1,13.9,0.5
		c1,1.3,1.9,2.9,2.6,4.4c0.5,0.9,1,1.3,1.9,1.8c3.8,2.2,8.1,2.8,12.3,3.7c7.2,1.6,14.1,4,21.4,5c5.8,0.8,11.4,2.2,17.2,3.1
		c4,0.6,8.2,0.8,12.2,1.2c4.9,0.5,9.8,0.5,14.8-1.6c0.9-8.7,1.8-17.6,2.7-26.7c-3.7,0.4-6.9-0.1-10-1.5c-3.3-1.6-6.7-6.3-6.3-9.6
		c0.8-7.1,6-11.1,13.1-9.6c1.5,0.3,2.9,0.8,4.7,1.3c0-1.7,0.1-3.2,0.1-4.6c-0.1-2.7-0.1-2.8-2.4-3.6c-2.1-0.7-4.2-1.3-6.3-2
		c-4.7-1.6-9.5-2.7-14-4.9c-3.8-1.8-7.8-3.1-11.9-4.6c-0.2,0.8-0.5,1.7-0.8,2.6c-0.2,0.6-0.3,1.3-0.7,1.8c-2.4,3-5.4,4.4-9.3,3.7
		c-1.3-0.2-2.6-0.5-3.9-0.9c-3.2-1-5.5-3.1-7-6c-1.1-2.1-1.6-4.5-0.5-6.9c0.3-0.6,0.4-1.2,0.6-2C43.6,30.5,26.6,25,8.7,20.8
		 M111.4,51.1c-0.9-1.3-1.8-2.6-2.7-3.9c-1-1.5-2.1-3-3.2-4.4c-3.3-4.4-6.6-8.8-10.1-13.1c-0.7-0.9-1.9-1.6-3-2
		c-3.1-1.2-4.5-3.3-4.3-6.7c0-0.6-0.1-1.1-0.2-1.7c-0.9-5.2-3.2-9.8-5.7-14.3c-1.3-2.3-1.5-2.5-4-1.9c-2.9,0.7-5.9,0.6-8.8,0.5
		c-6.2-0.2-12.2,0.5-18,2.3c-2.8,0.8-5.7,1.7-8.5,2.3c-4.8,1.1-9.7,1.9-14.6,2.9c-1.7,0.3-3.3,0.8-4.9,1.2c-2.3,0.6-4.6,1-6.9,1.8
		c-1.7,0.6-3.4,1.5-4.6,3.2c4.2,1.4,8.1,2.6,12.1,3.9c6.5,2.2,13.3,3.1,19.7,5.9c6.3,2.7,13,4.5,19.4,6.7c0.7,0.3,1.1,0.2,1.8-0.1
		c2.8-1.4,5.8-2.6,9-2.3c2.2,0.2,4.7,0.1,6.2,2.1c1.6,2.3,3.1,4.7,3,7.7C92.3,45.4,101.6,48.5,111.4,51.1 M74.9,35.7
		c-3-0.1-5.3,1.1-6.8,3.3c-1.7,2.3-1.8,4.9-0.7,7.6c1,2.5,3,3.2,5.4,3.3c2.9,0.1,5.1-1.4,5.9-4.2c0.5-1.8,1-3.7,1.4-5.5
		c0.1-0.6-0.1-1.3-0.3-1.9C79,35.8,76.7,36.1,74.9,35.7"/>
	<path d="M29.5,44.9c3.6,7.2-1,15.1-6.8,16.5c-4.7,1.1-8.6,0.3-12-3.3c-1.6-1.8-2.1-4-1.9-6.1c0.5-5.3,2.9-9.4,7.9-11.7
		c1-0.5,2.2-0.6,3.3-0.7c1.4-0.1,3.4-0.6,5.7,0.4C28,41.1,28.5,43,29.5,44.9z M19.9,58.7c5.9-0.9,11.3-7.7,7.4-13.2
		c-1.8-2.5-2.8-3.1-5.5-1.6c-2.3,1.3-4.3,3-5.7,5.1C13.1,53.6,15.6,59.3,19.9,58.7z"/>
	<path d="M78.8,97.7c-2.3,0.3-6.8,0-11.5-3.3c-2.2-1.6-2.9-4.1-3.4-6.7c-1-5.6,2.7-12.1,9.1-12.5c2.9-0.2,5.3,1.1,7.4,3
		c1.4,1.3,2.8,2.7,3.9,4.2c1.1,1.5,1.9,3.3,2.6,5c1.6,4.1-1.2,7.8-4.7,9.2C80.9,97.2,79.5,97.5,78.8,97.7 M85.1,89.4
		c0-3-4.3-8.9-7.9-9.8c-0.5-0.1-1.1-0.2-1.6-0.1c-3.5,1-5.8,5.1-4.6,8.5c0.4,1.2,1.2,2.3,1.9,3.4c2.8,3.9,7,4.2,10.4,0.7
		C84.2,91.4,84.6,90.2,85.1,89.4"/>
	<path d="M34.3,67.8c0-2.2,0.5-4.2,1.8-5.9c2.3-3,5.9-4.2,9.2,0.1c3,3.9,2,10.4-2,13.3c-2.9,2.1-7.5,0.6-8.4-2.9
		C34.6,70.8,34.5,69.3,34.3,67.8 M42.9,62.2c-2-0.2-3.9,5.6-3.3,8.9c0.1,0.6,0.5,1.3,1,1.5c0.5,0.2,1.3-0.2,1.7-0.5
		C45.4,69.2,45.6,66.2,42.9,62.2"/>
	<path d="M7.8,77.1c0.1-3.2,1.8-5.3,4.4-5.3c2.6,0,5.4,2.7,5.4,5.3c0,2.8-2.8,5.8-5.3,5.8C9.6,82.8,7.7,80.4,7.8,77.1 M12,79.8
		c2.2,0.7,3.8-4.5,1.9-4.9C12,74.4,11.6,77.7,12,79.8"/>
</g>
</svg>
