<?xml version="1.0" encoding="utf-8"?>
<!-- Generator: Adobe Illustrator 19.1.0, SVG Export Plug-In . SVG Version: 6.00 Build 0)  -->
<svg version="1.1" id="Calque_1" xmlns="http://www.w3.org/2000/svg" xmlns:xlink="http://www.w3.org/1999/xlink" x="0px" y="0px"
	 viewBox="0 0 128 140.1" style="enable-background:new 0 0 128 140.1;" xml:space="preserve">
<style type="text/css">
	.st0{display:none;fill:#F7B5AC;}
	.st1{fill:#F7B5AC;}
	.st2{fill:#EB5C5F;}
	.st3{fill:#84B974;}
	.st4{fill:#010202;}
	.st5{fill:#AB7613;}
	.st6{fill:#C0BFBF;}
	.st7{fill:#6FA4C3;}
	.st8{fill:#1E1E1C;}
	.st9{fill:none;}
	.st10{fill:none;stroke:#EB5C5F;stroke-width:3;stroke-miterlimit:10;}
	.st11{fill:none;stroke:#6FA4C3;stroke-width:3;stroke-miterlimit:10;}
	.st12{fill:none;stroke:#84B974;stroke-width:3;stroke-miterlimit:10;}
	.st13{fill:none;stroke:#C0BFBF;stroke-width:3;stroke-miterlimit:10;}
	.st14{fill:none;stroke:#F7B5AC;stroke-width:3;stroke-miterlimit:10;}
</style>
<g>
	<g>
		<path d="M17.5,16.9c2.2,6.7,5.6,12.8,5.1,19.8c1.4,0.1,2.6,0,3.7,0.2c1.4,0.2,1.8,1.3,1.9,2.9c1.9-3.1,2.6-6.2,3.1-9.4
			c1.2,0.4,1,1.1,1.1,2c0.2,4.4-1.7,8-3.8,11.5c-0.2,0.4-0.4,0.7-0.6,1.1c0,0.1,0,0.2-0.1,0.4c1.8,0.8,1.7,2.5,1.8,4.5
			c2.9-3,4.5-6.5,5.8-10.8c0.5,0.6,1.1,0.9,1.1,1.2c-0.2,2.4-0.6,4.8-2,6.9c-2.1,3.1-4.1,6.1-6.1,9.1c0.6,0.8,1.4,1.4,2.2,2.9
			c1-0.8,3.3-4.6,3.7-8.1c0.6,0.7,1.2,1,1.2,1.4c0,2.1-0.3,4.1-1.6,5.9c-1.9,2.5-3.8,5.1-5.6,7.5c0.9,1.4,2.1,2.2,2.8,4.2
			c0.8-1.2,4-6.4,6.1-9.6c0.9,1.5,0.1,4.4-2.5,8c-1.7,2.5-3.6,4.8-5.4,7.3c2,0,2.5,1.3,3.2,2.9c1.3-1.5,2.8-3.2,4.4-4.9
			c1.6-1.7,2.3-4,4.3-5.4c-0.6,3.1-1.9,5.8-3.9,8.2c-2.6,3-5.3,5.8-7.9,8.7c2,0.6,2.9,2,3.4,3.8c1.3-1.6,2.7-3.4,4.4-5.4
			c0.6,1.6,0.3,2.7-0.3,3.8c-1.7,3.4-4.7,5.4-7.4,7.8c-0.4,0.3-0.7,0.7-1.2,1.1c1.9,1.9,2.4,4,1.3,6.5c3.8-2.6,7.4-5.1,9.6-9.1
			c0.5,2.7-0.5,4.9-2.4,6.6c-4.8,4.3-10,8.1-15.9,11.6c0,2.6-0.1,5.4,0,8.3c0.1,4.7,0.4,9.4,0.5,14.1c0,0.7,0.1,1.6-0.3,2.2
			c-0.2,0.5-1.1,0.9-1.6,0.9c-0.4-0.1-1-0.9-1-1.4c-0.2-4.9-0.2-9.9-0.3-14.8c-0.1-3.7-0.3-7.4-0.5-11.5c-2.6-0.8-5.3-1.5-8-2.4
			c-2.2-0.8-4.4-1.7-6.4-2.8c-1.5-0.8-1.6-1.3-1.5-3.2c1.9,1.1,3.7,2.1,6,3.4c-0.2-3.3-0.2-6.2,3.7-6.5c-7.1-5.5-9.5-9.1-8.2-12.7
			c1.6,1.7,2.1,3.8,3.6,5.6c0.2-1.4-0.3-2.7,0.7-4.2c-1.1-1.4-2.3-3-3.4-4.7c-0.8-1.3-1.5-2.6-2.1-4c-0.4-0.8-1-1.9,0.1-2.4
			c1.2-0.6,1.5,0.7,1.9,1.5c0.7,1.4,1.4,2.8,2.2,4.5c0.4-2,0.8-3.7,1.1-5.3c-1.5-2.4-3-4.8-4.4-7.3c-0.9-1.6-1.3-3.3-1-5.1
			c0.1-0.4,0.5-0.8,1.1-1.7c0.5,4.9,3.1,8.2,5.5,12c-0.2-1.6-0.6-2.8-0.4-3.9c0.1-1.1,0.8-2.1,1.2-3.2c-1.9-2.5-4-5-5.8-7.7
			c-1-1.4-1.6-3.1-2.2-4.8c-0.1-0.4,0.2-1.1,0.5-1.4c0.2-0.2,1,0.1,1.3,0.4c0.4,0.4,0.6,1,0.9,1.5c1.1,2.1,2.2,4.3,3.5,6.7
			C8.5,60,9,58.4,9.6,56.6c-8.7-8.9-10.1-11-9.4-14.4c1.8,0.7,2.5,2.2,3.1,3.7c1.3,2.7,3.2,4.8,5.7,7.5c-0.9-2.9-0.3-4.7,1.9-6
			c-3.5-5-8-9.3-7.5-16.1c1.3,0,1.5,0.7,1.6,1.5c0.5,4.7,3.3,8.1,5.9,12.1c-0.8-5.8-0.8-5.8,2.5-7c-0.5-2.5-1.2-5-1.5-7.5
			c-0.3-2.5-0.3-5-0.3-7.5c0-0.6,0.2-1.3,0.5-1.9c0.4-0.8,1.2-1.2,1.2,0.2c0,1.4,0.7,10.5,0.7,10.5c2.2-2.2,3.9-2.2,6-1
			c-0.6-4.6-2.9-8.6-2.8-13C17.1,17.3,17.3,17.1,17.5,16.9 M17.9,77c-0.1-6,0.9-4.5-4.4-7.4c-1.4-0.8-2.6-0.2-2.6,1.4
			c0,1.2,0.4,2.6,1.1,3.5c1.6,2,4,4.2,5.8,6.1L17.9,77z M17.8,83.4c-2.5-1.6-5.2-3.4-8-5.2C9.1,79.7,9.1,80.9,10,82
			c1.1,1.5,2.2,3,3.5,4.3c1.2,1.3,2.7,2.4,4.3,3.9V83.4z M27.7,87.5c-1.4,0.2-2.9,1.9-4.3,2.8c-0.6,0.4-1.3,0.7-1.9,1.2
			c-0.4,0.4-0.8,0.9-0.8,1.4c-0.1,1.3,0,2.6,0,4.3c1.9-0.9,3.5-1.6,5.1-2.4c1.8-0.8,2.8-2.3,3.5-4.1C30.1,88.5,29.1,87.3,27.7,87.5z
			 M18.1,69.3c0-1.5-0.1-2.6,0-3.7c0.2-3-1.4-5-3.9-6.4c-0.9-0.5-1.7-0.7-2.6-0.1c-0.9,0.7-0.9,1.8-0.7,2.8c0.1,0.5,0.6,1,0.8,1.5
			C13.1,66,15.4,67.4,18.1,69.3 M20.6,79.8c1.5-1.2,3-2.1,4.2-3.3c1.2-1.3,2.3-2.9,3.1-4.6c0.7-1.4,0.3-2.3-1.1-3.3
			c-1.8,1.6-3.6,3.2-5.4,4.9c-0.4,0.4-0.8,1-0.8,1.5C20.5,76.5,20.6,78.1,20.6,79.8 M18.1,107.5c0-1.6,0-2.8,0-4.1
			c0-0.5,0-1.1-0.3-1.5c-0.9-1.6-3.7-2.1-6-1.1c-1.6,0.6-1.7,1.1-1.2,3.8C13,105.6,15.4,106.5,18.1,107.5 M20.8,87.9
			c2.3-1.6,4.6-2.9,6.6-4.5c0.9-0.7,1.3-1.9,1.8-2.9c0.4-0.8,0.7-1.7-0.3-2.2c-0.9-0.5-1.5-0.1-2.2,0.6c-1.3,1.3-2.6,2.7-4.1,3.7
			C20.5,83.8,20.4,85.5,20.8,87.9 M21,107.4c1.3-0.7,2.1-1.2,2.9-1.5c2.3-1.1,3.4-3.1,4-5.5c0.3-1,0-1.6-1-2.2
			c-1.2,0.6-2.7,1.2-3.8,2.1c-0.9,0.7-2,1.3-2,2.7C21,104.2,21,105.6,21,107.4 M12,49.3c-1.4,0.9-1.4,2.2-0.8,3.3
			c1.5,2.7,3.8,4.6,6.9,6.3c-0.2-2,0.1-3.9-0.7-5C16.1,51.9,14.6,49.9,12,49.3 M17.9,92.9c-2.6-1.4-5.2-3.3-7.9-4.2
			c-1.1,0.5-0.7,2.9-0.1,3.5c2.1,2.5,4.9,4.3,8,6.1V92.9z M26.5,47.2c-1.3,1.8-2.5,3.6-3.9,5.4c-0.6,0.8-1.3,1.5-2.2,2.6
			c0,1.4-0.1,3.2,0.5,5.3c1.5-2.3,2.9-4.1,4.1-6.2C26.3,52.3,27.7,50.1,26.5,47.2 M23.1,62.4c-2,2-2.9,2.8-2.2,7.4
			c3.3-2.9,7-5.7,7-11C25.5,59.2,25.1,60.5,23.1,62.4z M12.9,39.8c-0.1,1.1-0.1,3,0.1,3.7c1,2.9,1.3,4.9,4.3,6.6
			C17.9,44.3,17.9,43.2,12.9,39.8 M25.6,38.5c-2.2,0.9-3,2.5-3.6,4.3c-0.5,1.5-1.1,2.9-1.7,4.4c-0.4,1-0.4,1.9-0.1,3.2
			C23.3,46.8,25.8,43.5,25.6,38.5 M17,31.5c-2.1,2.6-1.6,5.6,2.1,10.9c0-2.9,0-5.6,0-8.3C19.1,32.8,18.4,32,17,31.5"/>
		<path class="st3" d="M17.9,77c-0.1-6,0.9-4.5-4.4-7.4c-1.4-0.8-2.6-0.2-2.6,1.4c0,1.2,0.4,2.6,1.1,3.5c1.6,2,4,4.2,5.8,6.1
			L17.9,77z"/>
		<path class="st3" d="M17.8,83.4c-2.5-1.6-5.2-3.4-8-5.2C9.1,79.7,9.1,80.9,10,82c1.1,1.5,2.2,3,3.5,4.3c1.2,1.3,2.7,2.4,4.3,3.9
			V83.4z"/>
		<path class="st3" d="M27.7,87.5c-1.4,0.2-2.9,1.9-4.3,2.8c-0.6,0.4-1.3,0.7-1.9,1.2c-0.4,0.4-0.8,0.9-0.8,1.4
			c-0.1,1.3,0,2.6,0,4.3c1.9-0.9,3.5-1.6,5.1-2.4c1.8-0.8,2.8-2.3,3.5-4.1C30.1,88.5,29.1,87.3,27.7,87.5z"/>
		<path class="st3" d="M18.1,69.3c0-1.5-0.1-2.6,0-3.7c0.2-3-1.4-5-3.9-6.4c-0.9-0.5-1.7-0.7-2.6-0.1c-0.9,0.7-0.9,1.8-0.7,2.8
			c0.1,0.5,0.6,1,0.8,1.5C13.1,66,15.4,67.4,18.1,69.3"/>
		<path class="st3" d="M20.6,79.8c1.5-1.2,3-2.1,4.2-3.3c1.2-1.3,2.3-2.9,3.1-4.6c0.7-1.4,0.3-2.3-1.1-3.3c-1.8,1.6-3.6,3.2-5.4,4.9
			c-0.4,0.4-0.8,1-0.8,1.5C20.5,76.5,20.6,78.1,20.6,79.8"/>
		<path class="st3" d="M18.1,107.5c0-1.6,0-2.8,0-4.1c0-0.5,0-1.1-0.3-1.5c-0.9-1.6-3.7-2.1-6-1.1c-1.6,0.6-1.7,1.1-1.2,3.8
			C13,105.6,15.4,106.5,18.1,107.5"/>
		<path class="st3" d="M20.8,87.9c2.3-1.6,4.6-2.9,6.6-4.5c0.9-0.7,1.3-1.9,1.8-2.9c0.4-0.8,0.7-1.7-0.3-2.2
			c-0.9-0.5-1.5-0.1-2.2,0.6c-1.3,1.3-2.6,2.7-4.1,3.7C20.5,83.8,20.4,85.5,20.8,87.9"/>
		<path class="st3" d="M21,107.4c1.3-0.7,2.1-1.2,2.9-1.5c2.3-1.1,3.4-3.1,4-5.5c0.3-1,0-1.6-1-2.2c-1.2,0.6-2.7,1.2-3.8,2.1
			c-0.9,0.7-2,1.3-2,2.7C21,104.2,21,105.6,21,107.4"/>
		<path class="st3" d="M12,49.3c-1.4,0.9-1.4,2.2-0.8,3.3c1.5,2.7,3.8,4.6,6.9,6.3c-0.2-2,0.1-3.9-0.7-5
			C16.1,51.9,14.6,49.9,12,49.3"/>
		<path class="st3" d="M17.9,92.9c-2.6-1.4-5.2-3.3-7.9-4.2c-1.1,0.5-0.7,2.9-0.1,3.5c2.1,2.5,4.9,4.3,8,6.1V92.9z"/>
		<path class="st3" d="M26.5,47.2c-1.3,1.8-2.5,3.6-3.9,5.4c-0.6,0.8-1.3,1.5-2.2,2.6c0,1.4-0.1,3.2,0.5,5.3
			c1.5-2.3,2.9-4.1,4.1-6.2C26.3,52.3,27.7,50.1,26.5,47.2"/>
		<path class="st3" d="M23.1,62.4c-2,2-2.9,2.8-2.2,7.4c3.3-2.9,7-5.7,7-11C25.5,59.2,25.1,60.5,23.1,62.4z"/>
		<path class="st3" d="M12.9,39.8c-0.1,1.1-0.1,3,0.1,3.7c1,2.9,1.3,4.9,4.3,6.6C17.9,44.3,17.9,43.2,12.9,39.8"/>
		<path class="st3" d="M25.6,38.5c-2.2,0.9-3,2.5-3.6,4.3c-0.5,1.5-1.1,2.9-1.7,4.4c-0.4,1-0.4,1.9-0.1,3.2
			C23.3,46.8,25.8,43.5,25.6,38.5"/>
		<path class="st3" d="M17,31.5c-2.1,2.6-1.6,5.6,2.1,10.9c0-2.9,0-5.6,0-8.3C19.1,32.8,18.4,32,17,31.5"/>
	</g>
	<g>
		<path d="M75.8,85.2c4.6,1.4,5.1,2,5.5,6.4c2.4-3.2,3.8-6.7,5-10.4c0.1,0.3,0.4,0.7,0.4,1c0.1,4.2-1.2,7.9-3.8,11.2
			c-1.7,2.2-3.3,4.4-5,6.7c-0.3,0.4-0.4,0.9-0.8,1.6c1.8,0,3.5,0.1,4.3,1.6c0.6,1.3,0.8,2.8,1.2,4.3c2.6-3.8,3.7-8.5,6.1-12.5
			c0.2,0,0.4,0.1,0.5,0.1c0,0.4,0.2,0.9,0.1,1.2c-1.8,4.5-3.2,9.2-5.5,13.5c-1.6,3.1-4.2,5.7-6.6,8.2c-2.7,2.9-5.7,5.5-8.5,8.2
			c-0.4,0.3-2.5,2.4-2.3,3.6c0.3,2.9-0.6,10-1.8,10c-1.1,0-1.1-1.7-1.1-2.1c0.1-2.4,0.3-4.9,0.5-7.3c0.2-3.5-0.1-3.7-3.3-5.2
			c-2.3-1.1-4.6-2.5-6.5-4.2c-4.5-4.1-7-9.3-7.9-15.3c1.9-0.6,2.1-0.5,2.4,0.9c0.3,1.4,0.6,2.7,1.1,4.2c0.9-2.1,1.8-3.8,4.8-3.7
			c-3.7-4.8-7.5-9.1-9.1-14.8c1.1-0.4,1.9-0.5,2.4,0.8c0.5,1.2,1.1,2.4,1.8,3.8c0-2,0.4-3,1.6-4c-2.4-3.8-4.8-7.5-7-11.2
			c-0.8-1.3-1.2-2.8-1.6-4.2c-0.1-0.4,0.1-0.9,0.7-1.5c0.6,1.4,1,2.9,1.8,4.2c0.7,1.3,1.8,2.4,2.8,3.7c0.4-1.2,0.5-2.5,1.2-3.4
			c0.6-0.9,1.8-1.3,3-2.2c-0.4-0.4-0.9-1-1.4-1.5c-4.1-3.5-6.2-8.3-7.8-13.3c-0.1-0.2,0-0.5,0-0.7c0-0.1,0.1-0.1,0.3-0.3
			c1.2,0.3,2,1.1,2.5,2.3c0.7,1.8,1.5,3.5,2.6,5.3c0.5-2.8,2.1-4.2,5.1-4.5c-5.8-3.4-8.9-8.2-10.1-14.9c1.8,1.3,1.7,3,2.4,4.2
			c0.7,1.2,1.5,2.4,2.5,3.5c-0.2-1.1-0.3-2.1-0.5-3.2c-0.3-2.6,0.2-4.9,2.8-6.2c-2.3-4-5.4-7.6-5.8-12.5c1.4-0.6,2,0.1,2.3,1.2
			c0.4,1.1,0.7,2.2,1.1,3.5c0.2-2.7,1-4.4,2.6-5.5c-2.1-3.2-5.3-6.1-7.1-10.3c3-0.7,2.8,2.3,4.3,3.1c0.5-2,1.1-3.4,2.5-4.4
			c-5-4.1-6-9.7-5.6-15.9c0-0.9,0.1-1.7,1.3-2.1c0.5,5.5-0.1,11.2,4.3,15.7c-0.1-1.3-0.3-2.3-0.2-3.3c0.2-3.6,2.6-4.9,6.4-3.5
			c0.2-4.4,1.2-8.6,2.8-12.8c1.4,1.1,1,2.5,0.8,3.7c-0.2,1.2-1.4,3.6-0.8,3.6c2.2-1.1,4.6,0,4.6,0c0-3.5-1.5-6.6-3.8-9.9
			c0.9,0.2,1.4,0.2,1.8,0.5c1.8,1.4,2.7,3.4,3.5,5.4c1.4,3.8,1,7.8,0.6,11.7c0,0.4-0.1,0.8-0.1,1.1c1.3-0.2,2.7-0.7,3.8-0.5
			c1,0.2,1.9,1.3,2.9,2.2c0.9-2.8,1.9-5.7,3.1-9.2c0.6,2.5,1.1,4.5,0.1,6.7c-1.7,3.5-3.3,7.2-5,10.8c1.7,0.1,3.9,0.9,4.5,3.4
			c1.6-2.2,1.4-4.9,2.3-7.4c1.2,0.9,1.6,2.1,1.4,3.4c-0.5,3.3-1.8,6.2-3.9,8.8c-1.2,1.5-2.3,3-3.6,4.6c3.2,0.3,5.2,1.8,5.9,5.2
			c2.2-3.7,2.5-7.5,3.3-11.2c1.1,1.4,1.2,3,1.2,4.5c-0.2,3.7-1.8,7-3.8,10c-0.9,1.3-1.8,2.6-2.8,4.2c2.8,0.6,4.3,2.2,4,5.1
			c2.6-3.8,3.9-8,4.8-12.5c1,1.7,1.1,1.9,0.9,3c-0.9,5.7-3,10.8-6.7,15.3c-0.8,1-1.5,2.1-2.3,3.4c3.7,0.4,4.2,0.8,5,4.7
			c2.2-2.9,2.8-6.1,3.7-9.5c0.3,0.5,0.8,1.1,0.8,1.6c0.2,2,0.1,4-0.8,5.9c-2,4.4-5,8.2-8,11.9c-0.4,0.5-0.7,0.9-1.1,1.4
			C75.8,84.9,75.8,85.1,75.8,85.2 M66.8,108.5c1.8-1.7,3.8-3.3,5.4-5.2c1.6-1.8,3.2-3.7,4.5-5.8c1.6-2.5,2.4-5.2,1.6-8.1
			c-0.4-1.5-0.8-1.9-2.2-1.7c-0.8,0.1-1.7,0.5-2.2,1.1c-1.6,1.6-3.1,3.3-4.4,5.2c-0.8,1-1.4,2-2.7,2V108.5z M67,124.1
			c0.8-0.7,1.3-1.1,1.9-1.7c3.1-3.1,6.4-5.9,8.8-9.6c1.3-2.1,2.2-4.4,2-6.9c-0.1-1.7-0.9-2.4-2.5-1.9c-1.4,0.5-2.8,1.2-3.9,2.2
			c-2.1,1.9-3.9,4.1-5.7,6.3c-0.4,0.4-0.5,1.2-0.6,1.8C67,117.5,67,120.7,67,124.1 M52.2,50.9c-0.3,0.2-0.6,0.3-0.7,0.4
			c-1.6,1.7-1.7,5.7-0.2,8c1.6,2.4,3.5,4.5,5.9,6.1c1,0.7,4.7,6.5,6,8.5c0.1,0,0.2-0.1,0.3-0.1c-0.2-4.3-0.4-8.6-0.6-12.6
			c-1.1-0.8-2.9-2.9-3.4-3.7C56.7,53.6,55,53.5,52.2,50.9 M66.6,90.9c0.8-0.7,1.5-1.1,1.9-1.6c1.9-2.2,3.8-4.5,5.6-6.8
			c1.9-2.4,5.1-10.4,3.9-11.2c-1.2-0.8-3.5,1-4.7,2.2c-2.3,2.3-4.5,4.7-6.7,7.2c-0.3,0.4-0.5,1.1-0.5,1.6
			C66.2,85,66.4,87.7,66.6,90.9 M63.7,99c0.8-4.5,0.7-5-1.4-8.3c-1.2-1.8-2.3-3.7-3.8-5.3c-1.6-1.6-3.5-2.9-5.3-4.2
			c-0.8-0.6-1.7-0.2-2,0.8c-0.7,2.1-0.6,4.1,0.9,5.9c1.1,1.3,2.1,2.6,3.3,3.8C56,92.7,61.4,97.3,63.7,99 M66.1,66.6v10.2
			c2.4-2.8,4.5-5.4,6.6-7.8c2.1-2.4,4-4.8,4.3-8c0.1-1.2,0.9-3.5-0.7-4c-1.6-0.5-2.8,0-3.7,1.4C70.4,61.2,68.1,64,66.1,66.6
			 M53.8,94.1c-1.9,3.8-1.8,5.8,0.4,8.1c3.3,3.6,6.6,7.1,10,10.7c0-2.7,0-5.4,0-8c0-0.9-0.2-1.5-1-2.1c-1.1-0.9-2.1-1.9-3-3
			C58.3,97.5,56,95.9,53.8,94.1 M65.6,62c1.8-2,3.2-3.8,4.8-5.4c2.4-2.5,3.3-5.6,4.3-8.7c0.2-0.5,0.1-1.2,0-1.8
			c-0.3-1.9-1.4-2.6-3-1.4c-2.1,1.5-4,3.3-5.9,5.1c-0.5,0.5-0.8,1.3-0.8,2C65.2,55,65.4,58.3,65.6,62 M62.6,47.5
			c-2.3-0.8-3.4-2.2-4.3-4.1c-1.1-2.4-3-4.2-5.9-5.2c-0.3,0.7-0.8,1.4-1,2.1c-0.6,3.1,1.1,5.4,3.3,7.2c2.5,2.2,4.7,4.6,6.2,7.5
			c0.4,0.8,0.9,1.7,1.5,2.6c0.1-0.4,0.2-0.5,0.2-0.7C62.7,53.9,62.6,50.8,62.6,47.5 M64.3,116.6c-1.1-0.6-1.9-0.9-2.5-1.5
			c-1.2-1.2-2.2-2.5-3.4-3.7c-1.2-1.2-2.9-2.4-4.3-2.2c-1.4,0.2-1.7,4.2,0,6.4c0.9,1.2,2,2.2,3.2,3.2c2.2,1.9,4.5,3.6,7,5.6V116.6z
			 M63.4,85.5v-7.5c-1.2-1.2-4-4.9-4.8-5.9c-1.5-1.8-4.4-4-5.9-4c-1.5-0.1-0.8,2.9-0.7,3.7C54,77.2,61.6,84.2,63.4,85.5 M62.1,44.4
			c0.1,0,0.3-0.1,0.4-0.1c-0.2-2.9-0.3-5.8-0.5-8.7c0-0.2-0.1-0.5-0.2-0.7c-1.1-1.3-2.2-2.7-3.5-3.9c-1.8-1.7-3.9-3.1-5.9-4.7
			c-1.4,1.1-1.6,2.4-0.8,4.2c1.2,2.6,3.1,4.6,5.1,6.5c2,1.8,3.4,3.6,4.6,6.3C61.5,43.7,61.8,44.1,62.1,44.4 M72.7,31.7
			c-1.8-0.7-2.6,0.4-3.4,1.3c-1,1.1-1.8,2.5-2.9,3.5c-1.4,1.2-2,2.4-1.5,4.3c0.4,1.4-0.1,2.9,0.3,4.7C69,41.3,72.7,37.5,72.7,31.7
			 M54.4,16.5c-1.4-0.4-2.4,3-1.1,5.2c1.9,3.2,5.2,5,8.1,7.9c0.1-1.8,0.5-3.2-0.3-4.5C59.3,21.9,57.6,18.8,54.4,16.5 M64.5,33.3
			c1.9-2.3,3.1-4.6,4-7c0.6-1.5,0.9-3.2,1.2-4.9c0.1-0.4,0.4-1-0.4-1.3c-0.8-0.3-0.9,0.3-1.3,0.5c-0.2,0.1-0.3,0.4-0.5,0.6
			C65.5,24.9,63.2,28.4,64.5,33.3 M62.1,11.8c-3.2,0-2.7,6.6,0.7,10.7C64.2,18.7,65.3,11.7,62.1,11.8z"/>
		<path class="st3" d="M66.8,108.5c1.8-1.7,3.8-3.3,5.4-5.2c1.6-1.8,3.2-3.7,4.5-5.8c1.6-2.5,2.4-5.2,1.6-8.1
			c-0.4-1.5-0.8-1.9-2.2-1.7c-0.8,0.1-1.7,0.5-2.2,1.1c-1.6,1.6-3.1,3.3-4.4,5.2c-0.8,1-1.4,2-2.7,2V108.5z"/>
		<path class="st3" d="M67,124.1c0.8-0.7,1.3-1.1,1.9-1.7c3.1-3.1,6.4-5.9,8.8-9.6c1.3-2.1,2.2-4.4,2-6.9c-0.1-1.7-0.9-2.4-2.5-1.9
			c-1.4,0.5-2.8,1.2-3.9,2.2c-2.1,1.9-3.9,4.1-5.7,6.3c-0.4,0.4-0.5,1.2-0.6,1.8C67,117.5,67,120.7,67,124.1"/>
		<path class="st3" d="M52.2,50.9c-0.3,0.2-0.6,0.3-0.7,0.4c-1.6,1.7-1.7,5.7-0.2,8c1.6,2.4,3.5,4.5,5.9,6.1c1,0.7,4.7,6.5,6,8.5
			c0.1,0,0.2-0.1,0.3-0.1c-0.2-4.3-0.4-8.6-0.6-12.6c-1.1-0.8-2.9-2.9-3.4-3.7C56.7,53.6,55,53.5,52.2,50.9"/>
		<path class="st3" d="M66.6,90.9c0.8-0.7,1.5-1.1,1.9-1.6c1.9-2.2,3.8-4.5,5.6-6.8c1.9-2.4,5.1-10.4,3.9-11.2
			c-1.2-0.8-3.5,1-4.7,2.2c-2.3,2.3-4.5,4.7-6.7,7.2c-0.3,0.4-0.5,1.1-0.5,1.6C66.2,85,66.4,87.7,66.6,90.9"/>
		<path class="st3" d="M63.7,99c0.8-4.5,0.7-5-1.4-8.3c-1.2-1.8-2.3-3.7-3.8-5.3c-1.6-1.6-3.5-2.9-5.3-4.2c-0.8-0.6-1.7-0.2-2,0.8
			c-0.7,2.1-0.6,4.1,0.9,5.9c1.1,1.3,2.1,2.6,3.3,3.8C56,92.7,61.4,97.3,63.7,99"/>
		<path class="st3" d="M66.1,66.6v10.2c2.4-2.8,4.5-5.4,6.6-7.8c2.1-2.4,4-4.8,4.3-8c0.1-1.2,0.9-3.5-0.7-4c-1.6-0.5-2.8,0-3.7,1.4
			C70.4,61.2,68.1,64,66.1,66.6"/>
		<path class="st3" d="M53.8,94.1c-1.9,3.8-1.8,5.8,0.4,8.1c3.3,3.6,6.6,7.1,10,10.7c0-2.7,0-5.4,0-8c0-0.9-0.2-1.5-1-2.1
			c-1.1-0.9-2.1-1.9-3-3C58.3,97.5,56,95.9,53.8,94.1"/>
		<path class="st3" d="M65.6,62c1.8-2,3.2-3.8,4.8-5.4c2.4-2.5,3.3-5.6,4.3-8.7c0.2-0.5,0.1-1.2,0-1.8c-0.3-1.9-1.4-2.6-3-1.4
			c-2.1,1.5-4,3.3-5.9,5.1c-0.5,0.5-0.8,1.3-0.8,2C65.2,55,65.4,58.3,65.6,62"/>
		<path class="st3" d="M62.6,47.5c-2.3-0.8-3.4-2.2-4.3-4.1c-1.1-2.4-3-4.2-5.9-5.2c-0.3,0.7-0.8,1.4-1,2.1
			c-0.6,3.1,1.1,5.4,3.3,7.2c2.5,2.2,4.7,4.6,6.2,7.5c0.4,0.8,0.9,1.7,1.5,2.6c0.1-0.4,0.2-0.5,0.2-0.7
			C62.7,53.9,62.6,50.8,62.6,47.5"/>
		<path class="st3" d="M64.3,116.6c-1.1-0.6-1.9-0.9-2.5-1.5c-1.2-1.2-2.2-2.5-3.4-3.7c-1.2-1.2-2.9-2.4-4.3-2.2
			c-1.4,0.2-1.7,4.2,0,6.4c0.9,1.2,2,2.2,3.2,3.2c2.2,1.9,4.5,3.6,7,5.6V116.6z"/>
		<path class="st3" d="M63.4,85.5v-7.5c-1.2-1.2-4-4.9-4.8-5.9c-1.5-1.8-4.4-4-5.9-4c-1.5-0.1-0.8,2.9-0.7,3.7
			C54,77.2,61.6,84.2,63.4,85.5"/>
		<path class="st3" d="M62.1,44.4c0.1,0,0.3-0.1,0.4-0.1c-0.2-2.9-0.3-5.8-0.5-8.7c0-0.2-0.1-0.5-0.2-0.7c-1.1-1.3-2.2-2.7-3.5-3.9
			c-1.8-1.7-3.9-3.1-5.9-4.7c-1.4,1.1-1.6,2.4-0.8,4.2c1.2,2.6,3.1,4.6,5.1,6.5c2,1.8,3.4,3.6,4.6,6.3
			C61.5,43.7,61.8,44.1,62.1,44.4"/>
		<path class="st3" d="M72.7,31.7c-1.8-0.7-2.6,0.4-3.4,1.3c-1,1.1-1.8,2.5-2.9,3.5c-1.4,1.2-2,2.4-1.5,4.3c0.4,1.4-0.1,2.9,0.3,4.7
			C69,41.3,72.7,37.5,72.7,31.7"/>
		<path class="st3" d="M54.4,16.5c-1.4-0.4-2.4,3-1.1,5.2c1.9,3.2,5.2,5,8.1,7.9c0.1-1.8,0.5-3.2-0.3-4.5
			C59.3,21.9,57.6,18.8,54.4,16.5"/>
		<path class="st3" d="M64.5,33.3c1.9-2.3,3.1-4.6,4-7c0.6-1.5,0.9-3.2,1.2-4.9c0.1-0.4,0.4-1-0.4-1.3c-0.8-0.3-0.9,0.3-1.3,0.5
			c-0.2,0.1-0.3,0.4-0.5,0.6C65.5,24.9,63.2,28.4,64.5,33.3"/>
		<path class="st3" d="M62.1,11.8c-3.2,0-2.7,6.6,0.7,10.7C64.2,18.7,65.3,11.7,62.1,11.8z"/>
	</g>
	<g>
		<path d="M116.1,48.9c1.7-3.5,2.7-7,2.8-11c1.4,2.2,1.7,4.2,0.6,8.6c-0.7,2.8-2.2,5.4-3.3,8.1c1.8,1.1,1.8,1.1,2.7,4.6
			c1.4-3.8,2.8-7.4,4.2-11.1c1.3,3.4-1.1,11-5.9,18.9c1.2,0.3,2,1.2,2.4,3.2c0.4-0.7,0.8-1.5,1.4-2.6c0.8,1.3,0.9,2.4,0.4,3.5
			c-1,2.3-2,4.6-3.1,6.9c-0.5,1-1.1,1.9-1.8,2.9c1.9,0.5,3.4,1.2,4.1,3.4c1.5-3.3,3.1-6.6,4.6-9.9c1.3,0.6,1,1.6,0.8,2.3
			c-0.9,2.6-1.7,5.3-2.9,7.7c-1.1,2.2-2.6,4.1-3.9,6.2c-0.4,0.6-0.6,1.1-1.1,1.9c2.1,0.2,3.4,1.3,3.8,3.9c2-3.3,3.7-6.2,5.7-9.4
			c0.1,0.8,0.3,1.3,0.3,1.8c-0.4,2.8-1.6,5.3-3.2,7.6c-1.9,2.8-3.7,5.6-5.6,8.4c1.4,0.3,2,1,2.4,2.6c1.7-2.5,3.5-5.1,5.3-7.8
			c1,1.5,0.1,2.6-0.4,3.4c-3.3,6.7-7.5,12.9-12.3,18.7c-0.7,0.8-1.6,1.4-2.5,2.2c0,3,0,6.1,0,9.2c0,0.7-0.1,1.5,0,2.2
			c0.1,1.5-0.6,2.3-2.3,2.7c-0.1-1-0.3-1.9-0.4-2.9c-0.1-3.7-0.2-7.4-0.4-11.1c0-0.7-0.4-1.4-0.8-2c-2.5-3.2-4.7-6.5-7.6-9.4
			c-2.9-2.9-2.4-6.9,0.7-9.9c-1.5-1.8-3-3.6-4.4-5.4c-0.9-1.2-1.7-2.5-2.4-3.9c-0.4-0.9-0.8-2.1,0.8-2.7c0.4,0.4,0.7,0.9,1.1,1.3
			c0.6-1.4,1.2-2.7,1.8-4.3c-2.5-2.7-5.4-5.4-6.2-9.5c1.9-1.1,1.9-1.1,3.6,2.2c-0.3-1.8-0.5-2.8,0.4-3.6c-1.7-1.8-3.5-3.6-5.2-5.5
			c-0.6-0.7-1.1-1.5-1.5-2.3c-0.4-0.7-0.4-1.5,0.6-1.9c0.9-0.3,1.4,0.1,1.8,0.9c0.3,0.6,0.6,1.2,1.1,1.8c-0.3-2.6,0.7-4.4,3.2-5.7
			c-1.5-1.4-3-2.6-4.2-4c-1.2-1.3-3-2.5-2.4-4.9c2.2-0.1,2.5,2,3.8,2.8c0.4-1.8,0.9-2.7,2.4-3.1c-0.6-0.5-1.2-1.2-1.8-1.8
			c-1.2-1-2.5-2-3.6-3.1c-0.5-0.5-0.9-1.2-1.2-1.9c-0.2-0.4,0-0.9,0.1-1.4c0.5,0.1,1.2,0,1.5,0.3c0.7,0.6,1.3,1.3,1.9,2
			c0.6,0.7,1.3,1.3,2.1,2c0.7-2.2,1.8-3.6,4.4-3.1c-0.6-2.1-1.1-3.9-1.6-5.7c-0.3-1.4-0.6-2.8-0.8-4.2c-0.1-0.7,0.1-1.5,0.3-2.2
			c0.1-0.4,0.6-1,0.9-0.9c0.4,0,0.9,0.5,1,0.9c0.3,1.2,0.4,2.5,0.6,3.7c0.1,0.8,0.3,1.6,0.5,2.9c2-2.8,4.4-2.3,7.1-1.4
			c-0.6-3.5-1.1-6.9-1.6-10.3c0.6-0.6,1.2-0.4,1.7,0.2c0.4,0.5,0.9,1.1,1,1.7c0.6,3.6,1.1,7.3,1.5,11c0.1,1.3,0.4,2.6,0.3,3.8
			c1.1-1.4,2.3-1.6,3.7-1.6C114.4,46,115.6,47.1,116.1,48.9 M107,81c0-3.9,0.1-7.7-3.5-10.6c-1.7-1.4-3.3-2.8-5.3-3.7
			c-1.7-0.8-3.3,0.3-3.2,2.1c0,0.8,0.3,1.7,0.8,2.3c0.7,1,1.5,1.8,2.4,2.6C100.9,76.1,103.9,78.5,107,81 M99.3,90
			c-1,1.5-0.9,2.8-0.4,4.2c1.7,4.6,5.4,7.3,9.1,10.3c0-1.4,0.1-2.4,0-3.5c-0.2-2.4-0.8-5.9-1.1-6.2C105.4,93.3,101.4,90.6,99.3,90
			 M118.7,94.7c-1.7-1.2-5.7,5.2-7.9,8.3c0.1,2.1,0.2,4.3,0.3,6.9c3.8-3.5,6.6-7,8.1-11.4C119.8,97.1,120,95.8,118.7,94.7z
			 M97.6,78.6c-0.9,4.9,4.8,10.7,9.5,12.6c0-1.5,0-3.1,0-4.7c0-0.5-0.1-1.1-0.3-1.4C105.5,83.6,99.3,79.5,97.6,78.6 M116.3,69.6
			c-1.4-0.4-3.8,4.6-5.4,6.9c-2.1,2.9-1.1,5.8-0.6,8.9c2.1-2.9,4.1-5.8,5.7-8.9C117,74.3,117.8,72.1,116.3,69.6 M110.7,97.3
			c0.3-0.1,0.6-0.2,0.8-0.3c2.9-3,4.7-6.7,6-10.7c0.2-0.5,0.2-1.2,0.1-1.7c-0.1-0.4-0.3-1-0.6-1.2c-0.3-0.2-1,0-1.3,0.2
			c-0.5,0.4-1,0.9-1.4,1.4c-1,1.3-2,2.7-3,4c-0.4,0.6-1.2,1.2-1.1,1.9C110.2,93,109.8,95.2,110.7,97.3 M108.5,118.5
			c0-2.9,0-5.3,0-7.7c0-0.4-0.2-0.8-0.5-1.1c-1.6-1.5-3.1-3-4.7-4.4c-0.8-0.7-1.6-0.6-2,0.4c-0.6,1.3-1.1,2.6,0.1,4
			C103.6,112.5,105.9,115.3,108.5,118.5 M109.1,72.8c3.7-4.2,5.9-8.5,7-13.5c0.2-0.8,0.9-2.8-0.5-3.2c-1.4-0.4-2.8,1.8-3.1,2.5
			c-1.1,1.9-3.6,5.8-4.2,7.4C108.6,68.3,108.8,70.2,109.1,72.8 M105.9,69.4c0-1.1,0-1.6,0-2.2c-0.1-2.9-1.1-5.2-3.8-6.5
			c-1.2-0.6-2.2-1.5-3.4-2.2c-0.9-0.5-1.9-1.7-3.1-0.6c-0.7,0.6-0.4,1.9,1,3.3C99.5,63.9,102.6,66.5,105.9,69.4 M111.5,120.7
			c2-2.6,3.9-4.8,5.5-7.2c1.1-1.8,3.7-4.9,1.5-6.1C116.3,106.3,109.8,114.2,111.5,120.7 M112.6,47.9c-0.7-0.3-1.9,0.6-2.2,0.9
			c-1.1,1.4-1.1,2.6-1.3,4.5c-0.2,2,0.1,4-1.3,5.7c-0.3,0.3,0,1.2,0,1.8c2.9-3,5-6.2,5.8-10.2C113.8,49.6,113.7,48.6,112.6,47.9
			 M105.3,52.4c1.3-2.9,1.2-5.6,0.1-8.4c-0.4-1.1-1.4-1.7-2.6-1.6c-1.2,0.2-1.8,1.1-1.9,2.4c0,0.5-0.1,1.1,0.1,1.5
			C102.3,48.4,103.3,50.7,105.3,52.4 M105.1,57.5c-0.6-1.3-0.7-2.2-1.3-2.8c-1.2-1.4-2.5-2.7-3.9-3.9c-1.1-1-2.3-0.9-3,0.2
			c-0.7,1-0.4,1.7,1.1,2.5C100.1,54.8,102.3,56,105.1,57.5"/>
		<path class="st3" d="M107,81c0-3.9,0.1-7.7-3.5-10.6c-1.7-1.4-3.3-2.8-5.3-3.7c-1.7-0.8-3.3,0.3-3.2,2.1c0,0.8,0.3,1.7,0.8,2.3
			c0.7,1,1.5,1.8,2.4,2.6C100.9,76.1,103.9,78.5,107,81"/>
		<path class="st3" d="M99.3,90c-1,1.5-0.9,2.8-0.4,4.2c1.7,4.6,5.4,7.3,9.1,10.3c0-1.4,0.1-2.4,0-3.5c-0.2-2.4-0.8-5.9-1.1-6.2
			C105.4,93.3,101.4,90.6,99.3,90"/>
		<path class="st3" d="M118.7,94.7c-1.7-1.2-5.7,5.2-7.9,8.3c0.1,2.1,0.2,4.3,0.3,6.9c3.8-3.5,6.6-7,8.1-11.4
			C119.8,97.1,120,95.8,118.7,94.7z"/>
		<path class="st3" d="M97.6,78.6c-0.9,4.9,4.8,10.7,9.5,12.6c0-1.5,0-3.1,0-4.7c0-0.5-0.1-1.1-0.3-1.4
			C105.5,83.6,99.3,79.5,97.6,78.6"/>
		<path class="st3" d="M116.3,69.6c-1.4-0.4-3.8,4.6-5.4,6.9c-2.1,2.9-1.1,5.8-0.6,8.9c2.1-2.9,4.1-5.8,5.7-8.9
			C117,74.3,117.8,72.1,116.3,69.6"/>
		<path class="st3" d="M110.7,97.3c0.3-0.1,0.6-0.2,0.8-0.3c2.9-3,4.7-6.7,6-10.7c0.2-0.5,0.2-1.2,0.1-1.7c-0.1-0.4-0.3-1-0.6-1.2
			c-0.3-0.2-1,0-1.3,0.2c-0.5,0.4-1,0.9-1.4,1.4c-1,1.3-2,2.7-3,4c-0.4,0.6-1.2,1.2-1.1,1.9C110.2,93,109.8,95.2,110.7,97.3"/>
		<path class="st3" d="M108.5,118.5c0-2.9,0-5.3,0-7.7c0-0.4-0.2-0.8-0.5-1.1c-1.6-1.5-3.1-3-4.7-4.4c-0.8-0.7-1.6-0.6-2,0.4
			c-0.6,1.3-1.1,2.6,0.1,4C103.6,112.5,105.9,115.3,108.5,118.5"/>
		<path class="st3" d="M109.1,72.8c3.7-4.2,5.9-8.5,7-13.5c0.2-0.8,0.9-2.8-0.5-3.2c-1.4-0.4-2.8,1.8-3.1,2.5
			c-1.1,1.9-3.6,5.8-4.2,7.4C108.6,68.3,108.8,70.2,109.1,72.8"/>
		<path class="st3" d="M105.9,69.4c0-1.1,0-1.6,0-2.2c-0.1-2.9-1.1-5.2-3.8-6.5c-1.2-0.6-2.2-1.5-3.4-2.2c-0.9-0.5-1.9-1.7-3.1-0.6
			c-0.7,0.6-0.4,1.9,1,3.3C99.5,63.9,102.6,66.5,105.9,69.4"/>
		<path class="st3" d="M111.5,120.7c2-2.6,3.9-4.8,5.5-7.2c1.1-1.8,3.7-4.9,1.5-6.1C116.3,106.3,109.8,114.2,111.5,120.7"/>
		<path class="st3" d="M112.6,47.9c-0.7-0.3-1.9,0.6-2.2,0.9c-1.1,1.4-1.1,2.6-1.3,4.5c-0.2,2,0.1,4-1.3,5.7c-0.3,0.3,0,1.2,0,1.8
			c2.9-3,5-6.2,5.8-10.2C113.8,49.6,113.7,48.6,112.6,47.9"/>
		<path class="st3" d="M105.3,52.4c1.3-2.9,1.2-5.6,0.1-8.4c-0.4-1.1-1.4-1.7-2.6-1.6c-1.2,0.2-1.8,1.1-1.9,2.4
			c0,0.5-0.1,1.1,0.1,1.5C102.3,48.4,103.3,50.7,105.3,52.4"/>
		<path class="st3" d="M105.1,57.5c-0.6-1.3-0.7-2.2-1.3-2.8c-1.2-1.4-2.5-2.7-3.9-3.9c-1.1-1-2.3-0.9-3,0.2c-0.7,1-0.4,1.7,1.1,2.5
			C100.1,54.8,102.3,56,105.1,57.5"/>
	</g>
</g>
</svg>
