<?xml version="1.0" encoding="utf-8"?>
<!-- Generator: Adobe Illustrator 19.1.0, SVG Export Plug-In . SVG Version: 6.00 Build 0)  -->
<svg version="1.1" id="Calque_1" xmlns="http://www.w3.org/2000/svg" xmlns:xlink="http://www.w3.org/1999/xlink" x="0px" y="0px"
	 viewBox="0 0 205.8 195.1" style="enable-background:new 0 0 205.8 195.1;" xml:space="preserve">
<style type="text/css">
	.st0{fill:#009DBF;}
	.st1{fill:#D0095B;}
	.st2{fill:#009EC0;}
	.st3{fill:#D1005A;}
	.st4{fill:#C0BFBF;}
	.st5{enable-background:new    ;}
	.st6{fill:none;stroke:#D0095B;stroke-width:3;stroke-miterlimit:10;}
	.st7{fill:#FFFFFF;stroke:#D0095B;stroke-width:3;stroke-miterlimit:10;}
	.st8{fill:#FFFFFF;}
</style>
<g>
	<g>
		<path d="M202.1,195.1c-5.4,0-27.8-4-41.6-5.9c-11.3-1.6-89.4-15.4-107.6-20.8c-12-3.6-18.5-4.7-30.6-7.7c-4.5-1.1-21.8-3.2-22.4-7
			s5.4-9.9,7-11.9c12.5-14.4,22.3-23.5,34.8-37.9c10.2-11.8,20-24,30.2-35.9C89.4,48,106.7,28.1,124.2,8.5c2.8-3.1,6.8-5.4,10.6-7.3
			c5.8-3,11.1,0,13.2,6.4c4,12.4,8.3,24.7,12.5,37.1c4.4,13.2,8.9,26.5,13.3,39.7c2.3,6.9,4.4,13.8,6.5,20.8
			c4.7,15.4,9.3,30.9,14.1,46.3c2.1,6.6,4.5,13,6.7,19.6c1.3,4.1,2.5,8.3,3.6,12.5C205.7,187.5,207.6,195.1,202.1,195.1z
			 M171.7,137.6c-2.4-14.3-30.6-113.9-33.9-119.4c-1,1.2-1.9,2.2-2.9,3.3c-8.8,10.1-17.7,20.2-26.5,30.4C101,60.4,93.8,69,86.3,77.3
			c-7.7,8.4-28.2,33-31.2,36.8C94.1,122.1,132.4,130.8,171.7,137.6z M26.6,145.8c52.3,14.3,103.3,22.3,155.4,32
			c-0.4-2.3-3.8-19.1-4.7-23.7c-0.9-4.5-3.4-6.1-7.7-6.8c-10.2-1.6-20.3-3.6-30.5-5.6c-3.4-0.6-6.7-1.6-10.1-2.2
			c-11.6-2.3-23.2-4.3-34.7-6.9c-14.5-3.2-28.9-6.6-43.4-10.1c-4-1-6.6,0.3-9,3.3c-2.4,3.2-5,6.2-7.5,9.4
			C32.1,138.5,29.8,141.6,26.6,145.8z"/>
		<path class="st1" d="M171.7,137.6c-2.4-14.3-30.6-113.9-33.9-119.4c-1,1.2-1.9,2.2-2.9,3.3c-8.8,10.1-17.7,20.2-26.5,30.4
			C101,60.4,93.8,69,86.3,77.3c-7.7,8.4-28.2,33-31.2,36.8C94.1,122.1,132.4,130.8,171.7,137.6z"/>
	</g>
	<g>
		<path d="M57.6,149l-2.7-0.5c-0.4-0.1-0.7-0.4-0.7-0.8l-1.7-14.7c0-0.3,0-0.5,0.2-0.7c0.2-0.1,0.4-0.2,0.7-0.1l1.3,0.2
			c0.5,0.1,0.7,0.4,0.7,0.8l1.4,13.1l6.1-11.6c0.2-0.4,0.5-0.6,1-0.5l1.3,0.2c0.3,0.1,0.5,0.2,0.6,0.4c0.1,0.2,0.1,0.4-0.1,0.7
			l-7.1,13C58.4,148.9,58,149,57.6,149z"/>
		<path d="M67.6,150.9l-1.3-0.2c-0.6-0.1-0.8-0.5-0.7-1l2.6-13.7c0.1-0.6,0.5-0.8,1-0.7l1.3,0.2c0.6,0.1,0.8,0.5,0.7,1l-2.6,13.7
			C68.5,150.8,68.1,151,67.6,150.9z"/>
		<path d="M83.7,151.2c-1.2,1.7-3.1,2.3-5.9,1.8c-2.5-0.5-4.1-1.4-5-2.7c-0.9-1.3-1.1-3.3-0.6-5.9l0.3-1.6c0.9-4.5,3.7-6.3,8.4-5.3
			c2.1,0.4,3.6,1.1,4.6,2.1c1,1,1.5,2.2,1.5,3.7c0,0.4,0,0.7-0.1,0.9c-0.1,0.5-0.4,0.8-0.9,0.7l-1.4-0.3c-0.3-0.1-0.5-0.2-0.6-0.3
			c-0.1-0.1-0.2-0.3-0.1-0.6c0-0.3,0-0.5,0-0.6c-0.1-0.7-0.5-1.3-1-1.7c-0.6-0.4-1.4-0.8-2.5-1c-1-0.2-1.7-0.2-2.4,0
			c-0.6,0.2-1.2,0.5-1.6,1.1s-0.7,1.4-0.9,2.5l-0.2,1.3c-0.3,1.6-0.2,2.7,0.3,3.5c0.5,0.8,1.5,1.3,2.9,1.6c0.5,0.1,0.9,0.2,1.3,0.2
			s0.8,0,1.2-0.1c0.4-0.1,0.7-0.2,1-0.4c0.3-0.2,0.5-0.4,0.7-0.8c0.2-0.3,0.4-0.8,0.5-1.3l0-0.1l-3.3-0.6c-0.5-0.1-0.8-0.4-0.7-1
			l0.1-0.7c0.1-0.6,0.5-0.8,1-0.7l5.4,1c0.6,0.1,0.8,0.5,0.7,1l-1.3,6.8c0,0.2-0.1,0.4-0.3,0.5c-0.1,0.1-0.3,0.1-0.5,0.1l-0.1,0
			c-0.2,0-0.4-0.1-0.5-0.2c-0.1-0.1-0.1-0.3-0.1-0.5L83.7,151.2z"/>
		<path d="M89.8,155.2l-1.3-0.2c-0.6-0.1-0.8-0.5-0.7-1l2.6-13.7c0.1-0.6,0.5-0.8,1-0.7l1.3,0.2c0.6,0.1,0.8,0.5,0.7,1l-2.6,13.7
			C90.7,155,90.3,155.3,89.8,155.2z"/>
		<path d="M106.9,148.7c-0.3,1.5-1,2.5-2,3.1c-1.1,0.6-2.6,0.7-4.6,0.3l-3.1-0.6l-0.8,4c-0.1,0.6-0.5,0.8-1,0.7L94,156
			c-0.6-0.1-0.8-0.5-0.7-1l2.6-13.7c0.1-0.6,0.5-0.8,1-0.7l5.3,1c2,0.4,3.4,1.1,4.2,2c0.8,1,1,2.2,0.7,3.8L106.9,148.7z
			 M101.7,144.4l-3.1-0.6l-1,5.1l3.1,0.6c1,0.2,1.7,0.2,2.2-0.1c0.5-0.3,0.8-0.8,1-1.7l0.1-0.3c0.2-0.9,0.1-1.6-0.3-2
			C103.3,144.9,102.6,144.5,101.7,144.4z"/>
		<path d="M109.6,159l-1.3-0.2c-0.6-0.1-0.8-0.5-0.7-1l2.6-13.7c0.1-0.6,0.5-0.8,1-0.7l1.3,0.2c0.6,0.1,0.8,0.5,0.7,1l-2.6,13.7
			C110.5,158.8,110.2,159.1,109.6,159z"/>
		<path d="M115.1,160l-1.3-0.2c-0.6-0.1-0.8-0.5-0.7-1l2.6-13.7c0.1-0.6,0.5-0.8,1-0.7l5,1c1.1,0.2,1.9,0.4,2.6,0.7
			c0.7,0.3,1.1,0.7,1.5,1.1c0.3,0.4,0.5,0.9,0.6,1.5c0.1,0.6,0,1.3-0.2,2.1l-0.1,0.4c-0.2,1-0.5,1.8-1.1,2.4c-0.5,0.6-1.3,1-2.2,1.2
			l1.3,6c0.1,0.3,0,0.5-0.1,0.7c-0.1,0.2-0.4,0.2-0.6,0.2l-1.6-0.3c-0.4-0.1-0.7-0.3-0.8-0.7l-1.2-6.1l-2.7-0.5l-1,5.3
			C116,159.9,115.7,160.1,115.1,160z M121.2,148.1l-2.8-0.5l-0.7,3.8l2.8,0.5c0.8,0.2,1.5,0.2,1.9,0c0.4-0.2,0.6-0.6,0.8-1.3
			l0.1-0.3c0.1-0.7,0.1-1.2-0.2-1.5S122.1,148.3,121.2,148.1z"/>
		<path d="M129.6,162.1c-0.2,0.4-0.5,0.6-1,0.5l-1.3-0.2c-0.3-0.1-0.5-0.2-0.6-0.4c-0.1-0.2-0.1-0.4,0.1-0.7l7.1-13
			c0.2-0.4,0.5-0.6,1-0.5l2.7,0.5c0.4,0.1,0.7,0.4,0.7,0.8l1.8,14.7c0,0.3,0,0.5-0.2,0.7c-0.2,0.1-0.4,0.2-0.7,0.1l-1.3-0.2
			c-0.5-0.1-0.7-0.4-0.7-0.8l-0.3-3.1l-5.8-1.1L129.6,162.1z M136.6,157.9l-0.8-7.4l-3.5,6.6L136.6,157.9z"/>
		<path d="M145.7,153.1l-3.6-0.7c-0.6-0.1-0.8-0.5-0.7-1l0.2-1.3c0.1-0.6,0.5-0.8,1-0.7l10.3,2c0.6,0.1,0.8,0.5,0.7,1l-0.2,1.3
			c-0.1,0.6-0.5,0.8-1,0.7l-3.6-0.7l-2.2,11.5c-0.1,0.6-0.5,0.8-1,0.7l-1.3-0.2c-0.6-0.1-0.8-0.5-0.7-1L145.7,153.1z"/>
		<path d="M162.4,169.1l-8.2-1.6c-0.6-0.1-0.8-0.5-0.7-1l2.6-13.7c0.1-0.6,0.5-0.8,1-0.7l8.2,1.6c0.6,0.1,0.8,0.5,0.7,1l-0.2,1.2
			c-0.1,0.6-0.5,0.8-1,0.7l-6.1-1.2l-0.6,3.1l5.8,1.1c0.6,0.1,0.8,0.5,0.7,1l-0.2,1c-0.1,0.6-0.5,0.8-1,0.7l-5.8-1.1l-0.7,3.8
			l6.1,1.2c0.6,0.1,0.8,0.5,0.7,1l-0.2,1.2C163.3,169,163,169.2,162.4,169.1z"/>
	</g>
</g>
</svg>
