<?xml version="1.0" encoding="utf-8"?>
<!-- Generator: Adobe Illustrator 19.1.0, SVG Export Plug-In . SVG Version: 6.00 Build 0)  -->
<svg version="1.1" id="Calque_1" xmlns="http://www.w3.org/2000/svg" xmlns:xlink="http://www.w3.org/1999/xlink" x="0px" y="0px"
	 viewBox="0 0 228.1 269.8" style="enable-background:new 0 0 228.1 269.8;" xml:space="preserve">
<style type="text/css">
	.st0{fill:#009DBF;}
	.st1{fill:#D0095B;}
	.st2{fill:#009EC0;}
	.st3{fill:#D1005A;}
	.st4{fill:#C0BFBF;}
	.st5{enable-background:new    ;}
	.st6{fill:none;stroke:#D0095B;stroke-width:3;stroke-miterlimit:10;}
	.st7{fill:#FFFFFF;stroke:#D0095B;stroke-width:3;stroke-miterlimit:10;}
	.st8{fill:#FFFFFF;}
</style>
<g>
	<path id="" class="st0" d="M224.1,106.6c-0.4-2.2-0.6-4.4-1.3-6.5c-1.6-5.3-3.6-10.5-5.1-15.8c-4.3-15.1-12.1-28.3-20.9-41.1
		c-4.6-6.6-10.8-11.7-16.9-16.9c-9.4-8.1-19.8-14.3-31.6-17.8c-9.7-2.8-19.6-5-29.6-7c-7.9-1.6-16.1-2.2-24.1-0.4
		c-6.9,1.5-13.6,3.6-20.3,5.8c-3.8,1.2-7.6,2.8-11,5c-4.9,3.1-23.1,14.5-36.1,32C23,48.7,20.1,54.9,17,60.7
		c-2.8,5.3-5.2,10.8-7.2,16.4c-2,5.8-3.5,11.8-4.9,17.7c-1.3,5.7-2.7,11.4-3.4,17.2c-0.9,8.2-1.1,16.4-1.6,24.6
		c-0.2,10.7,1.8,21.1,3.2,31.7c1.5,11.1,5.6,21.2,9.2,31.6c2.9,8.4,7.7,15.8,13.4,22.5c9.8,11.6,20.3,22.4,33.1,30.8
		c5.6,3.7,11,7.8,17.6,9.7c3.9,1.1,7.8,1.9,11.7,2.9c11.9,3.1,23.9,4.7,36.2,3.4c2.5-0.3,5-1,7.5-1.1c5.9-0.3,11.3-2,16.6-4.4
		c4.8-2.2,9.2-5.1,13.9-7.6c8.7-4.6,17.2-9.8,24.9-15.9c3.7-2.9,7.4-6.1,10.4-9.7c3.7-4.5,6.9-9.6,10.1-14.5c2.8-4.2,5.6-8.5,7.8-13
		c2-4.1,3.3-8.7,5-13c4.6-12.1,7.1-24.6,7.7-37.5C228.6,137.1,226.9,121.8,224.1,106.6z M114.4,222.2c-4,0.3-8.1,0.9-12.2,0.9
		c-5.4,0-10.7-0.5-16.1-0.7c-1.8-0.1-2.4-1-2.4-2.7c0.1-5,0.2-9.9,0.1-14.9c0-1.9,0.8-2.2,2.4-2.3c6.5-0.3,12.9-0.7,19.4-0.9
		c2.1-0.1,4.2,0.1,6.4,0.1c1.8,0,2,1.3,2.1,2.6c0.2,4.3,0.3,8.5,0.4,12.8C114.5,218.6,114.4,220.1,114.4,222.2z M137.8,142.7
		c-2.5,2.4-5.2,4.6-7.8,6.9c-9.1,8-13.7,18.2-14.9,30c-0.1,0.8-0.4,1.6-0.3,2.3c0.1,1.6-0.9,2.1-2.1,2.2c-3.5,0.3-7.1,0.5-10.6,0.6
		c-4.3,0-8.5-0.2-12.8-0.3c-2,0-3.6,0.4-3.8-3c-0.5-6.3,0-12.4,1.4-18.4c1.4-5.9,4.5-10.7,9.7-14c4.6-3,9.2-6.2,13.6-9.5
		c7.9-6,14.8-12.9,18.6-22.2c4.1-10.1,6.7-20.5,3.6-31.5c-1.3-4.4-3.5-8.4-6.5-11.7c-1.5-1.7-3.9-2.7-6.1-3.5
		c-6.7-2.3-13.5-1.8-19.9,1c-5.9,2.6-9.6,7.5-11.6,13.5c-1.6,4.9-2.4,10-3.4,15c-0.3,1.2-0.4,2.1-2,2c-7.3-0.7-14.7-1.3-22-2
		c-0.1,0-0.3-0.1-0.5-0.3c-1.6-8.4,0.2-16.6,1.6-24.8c0.8-4.7,2.6-9.1,5.5-12.9c3.9-5.1,7.6-10.2,13.1-13.9c7-4.7,14.7-6.1,23-6.2
		c6-0.1,11.7,1.7,17.4,3c2.4,0.5,4.8,1.1,7.2,1.7c9.5,2.2,16.7,7.9,22.4,15.5c2.8,3.8,5.7,7.9,7,12.3c1.6,5.5,2.3,11.5,2.3,17.3
		c0,11.2-2.5,21.9-7.3,32.2C148.8,131.2,143.5,137.1,137.8,142.7z"/>
	<path d="M119.8,41c8.3,1.8,17.8,4.9,26.2,10.2c9.9,6.3,16,15.7,18.9,26.9c3.6,14.1,2.6,28-2.6,41.5c-2,5.1-4.1,10.4-7,15
		c-2.8,4.3-6.8,7.9-10.3,11.7c-2.8,3-5.9,5.7-8.6,8.8c-1.2,1.4-2,3.4-2.7,5.2c-2.9,7.5-4,15.3-3.3,23.3c0.2,2.8-1.5,5-4.2,5.2
		c-10.6,0.8-21.3,1.6-31.9,2.3c-2,0.1-4.1-0.1-6.1-0.5c-2.1-0.4-6.3-4.6-6.2-6.4c0.3-5.9-0.5-11.8,1.2-17.6c0.6-2.1,0.9-4.2,1.4-6.2
		c1.7-6.2,5.6-10.5,10.9-14.2c7.6-5.3,14.9-11,21.8-17.1c4.5-3.9,7.3-9.4,9.2-15.1c2-6.1,4.2-12.1,4.3-18.7c0-4.9-0.3-9.7-2.7-14.1
		c-3.1-5.6-6.4-8.6-14.4-7.7c-8.1,1-12.3,5.8-15.3,12.7c-2,4.8-2.9,9.8-3.4,15c-0.3,2.6-1.2,5.2-2,7.8c-0.2,0.5-1.3,1.1-2,1.1
		c-5.1-0.2-10.1-0.6-15.1-0.9c-2.1-0.2-4.1-0.3-6.1-0.8c-3.5-0.9-6.9-2-10.4-3.1c-0.5-0.1-1.1-0.6-1.1-1.1c-0.5-2.7-1.4-5.4-1.2-8
		c0.6-8.1,0.6-16.5,2.8-24.2c4.5-16,14.6-27.5,31.3-31.5C100,38.5,109.3,38.9,119.8,41z M60.2,99.8c0.3,0.2,0.4,0.3,0.5,0.3
		c7.3,0.7,14.7,1.3,22,2c1.5,0.1,1.7-0.8,2-2c1-5,1.8-10.2,3.4-15c1.9-6,5.6-10.9,11.6-13.5c6.4-2.8,13.2-3.3,19.9-1
		c2.2,0.7,4.6,1.8,6.1,3.5c3,3.3,5.2,7.3,6.5,11.7c3.2,11,0.6,21.4-3.6,31.5c-3.8,9.3-10.8,16.2-18.6,22.2
		c-4.4,3.4-8.9,6.5-13.6,9.5c-5.2,3.4-8.3,8.1-9.7,14c-1.4,6.1-1.9,12.1-1.4,18.4c0.3,3.4,1.8,3,3.8,3c4.3,0.1,8.5,0.3,12.8,0.3
		c3.5,0,7.1-0.3,10.6-0.6c1.2-0.1,2.3-0.6,2.1-2.2c-0.1-0.8,0.2-1.6,0.3-2.3c1.2-11.9,5.8-22.1,14.9-30c2.6-2.3,5.4-4.5,7.8-6.9
		c5.7-5.6,11.1-11.5,14.5-18.9c4.8-10.2,7.3-21,7.3-32.2c0-5.8-0.7-11.8-2.3-17.3c-1.3-4.4-4.2-8.5-7-12.3
		c-5.7-7.6-12.9-13.2-22.4-15.5c-2.4-0.6-4.8-1.1-7.2-1.7c-5.8-1.3-11.4-3-17.4-3c-8.2,0.1-16,1.5-23,6.2
		c-5.5,3.7-9.2,8.8-13.1,13.9c-2.9,3.9-4.7,8.2-5.5,12.9C60.3,83.2,58.6,91.4,60.2,99.8z"/>
	<path d="M114.3,198.8c3.2,1,6.3,1.8,9.4,2.9c1.9,0.7,3.1,2.2,3.3,4.3c0.6,5.2,1.3,10.3,1.9,15.5c0.2,1.5-0.6,2.6-1.3,4
		c-2.1,4.3-6.1,3.7-9.5,4.1c-6.7,0.8-13.4,1-20.1,1.2c-4.6,0.1-9-1-13.1-2.8c-3.1-1.4-4.6-3-4.4-8.7c0.2-5.2,0.5-10.4,0.6-15.6
		c0-2.3,0.9-3.2,3.2-3.3c9.3-0.5,18.6-1.1,27.9-1.7C112.9,198.5,113.6,198.7,114.3,198.8z M114.4,222.2c0.1-2.1,0.2-3.6,0.1-5.2
		c-0.1-4.3-0.2-8.5-0.4-12.8c-0.1-1.3-0.3-2.6-2.1-2.6c-2.1,0-4.2-0.2-6.4-0.1c-6.5,0.3-12.9,0.7-19.4,0.9c-1.6,0.1-2.4,0.4-2.4,2.3
		c0.1,5,0,9.9-0.1,14.9c0,1.8,0.5,2.6,2.4,2.7c5.4,0.2,10.7,0.7,16.1,0.7C106.3,223.1,110.4,222.5,114.4,222.2z"/>
	<path d="M0,136.8c0.5-8.2,0.7-16.5,1.6-24.6c0.6-5.8,2-11.5,3.4-17.2c1.4-6,2.9-12,4.9-17.7c2-5.6,4.4-11.2,7.2-16.4
		c3.1-5.9,6-12,10.3-16.9c13-17.5,31.2-28.9,36.1-32c3.4-2.1,7.2-3.7,11-5c6.7-2.2,13.5-4.3,20.3-5.8c8-1.8,16.1-1.2,24.1,0.4
		c9.9,2,19.8,4.2,29.6,7c11.9,3.4,22.3,9.7,31.6,17.8c6.1,5.2,12.3,10.3,16.9,16.9c8.8,12.8,16.6,26,20.9,41.1
		c1.5,5.3,3.5,10.5,5.1,15.8c0.6,2.1,0.9,4.3,1.3,6.5c2.8,15.2,4.5,30.5,3.9,46c-0.6,12.9-3.1,25.4-7.7,37.5c-1.7,4.3-2.9,8.9-5,13
		c-2.2,4.5-5,8.8-7.8,13c-3.2,4.9-6.4,10-10.1,14.5c-3,3.6-6.7,6.8-10.4,9.7c-7.7,6.1-17.9,13.2-38.8,23.5
		c-5.2,2.4-10.7,4.1-16.6,4.4c-2.5,0.1-5,0.8-7.5,1.1c-12.3,1.3-24.3-0.3-36.2-3.4c-3.9-1-7.8-1.8-11.7-2.9c-6.6-1.9-12-6-17.6-9.7
		c-12.7-8.4-23.3-19.2-33.1-30.8c-5.7-6.7-10.6-14.2-13.4-22.5c-3.5-10.4-7.7-20.5-9.2-31.6C1.8,157.9-0.1,147.5,0,136.8z
		 M5.3,128.4c-0.1,4.1-0.6,8.3-0.3,12.4c0.8,9.8,1.8,19.5,2.9,29.3c1.3,11.8,5.9,22.7,10.9,33.2c2.2,4.6,5.5,8.7,8.6,12.8
		c10.8,14,22.2,27.3,37.9,36.2c5.5,3.1,11.1,5.8,17.3,7c8.5,1.7,17,2.6,25.7,2.1c9.7-0.6,19.2-1.8,28.6-4.1
		c1.1-0.3,17.1-8.2,21.2-10.9c7-4.7,13.8-9.6,20.1-15c5.1-4.4,10-9.3,14.1-14.6c3.6-4.6,6.1-10.1,9.1-15.3c1.1-1.9,2.5-3.7,3.3-5.8
		c2.3-6.3,4.6-12.6,6.6-19c1.2-3.9,2.2-7.9,2.9-11.9c1.1-6.5,1.8-13.2,2.9-19.7c1.2-16.4-3.8-42.9-13.3-72.2
		c-2.5-5.4-4.4-11.1-7.3-16.2c-4.7-8.2-11.1-15.2-17.7-21.9c-4.9-4.9-10-9.7-16.4-12.3c-9-3.7-18.1-7.1-27.3-10.3
		c-4.1-1.4-15.6-3.3-17-3.6c-12-2.5-23.8-2.6-35.5,1.8c-8.4,3.2-17,6-24.6,11C44.8,29.8,34,40.6,25.8,54c-6,9.8-11.1,19.9-14.1,31
		c-1.8,6.8-3.6,13.6-5,20.5C5.5,112.1,5.3,127.6,5.3,128.4z"/>
	<g>
		<circle cx="70.6" cy="152.8" r="1.3"/>
		<path d="M65.9,148c-0.8,1-2.7,0.6-3.2,0.3c-3.6-2.8-7.2-5.6-10.7-8.5c-0.5-0.4-1-1.8,0-2.8c1.1-1.1,2-1.5,3-0.7
			c1.1,0.8,2,1.9,3,2.8c2.1,1.9,4.2,3.7,6.3,5.6C65,145.1,67,146.6,65.9,148z"/>
		<path d="M55.2,152.6c2.1,0,4.2-0.1,6.2,0.2c1,0.2,2.4,1.2,2.6,2c0.3,1.5-1,1.8-2.4,1.8c-3.9-0.1-7.8-0.1-11.8-0.2
			c-0.6,0-1.9-1.1-1.9-2.5C47.9,152.6,53,152.7,55.2,152.6z"/>
		<path d="M72,130.5c1.5,0.3,2.5,1.5,2.3,3.7c-0.3,3-0.5,5.9-1,8.8c-0.1,0.8-0.5,2.2-1.4,2.3c-1.8,0.2-2-1.7-1.9-2.6
			C70,138.8,70.4,130.2,72,130.5z"/>
	</g>
	<g>
		<path d="M134.6,227.1c0.7-1.4,3-1.6,3.6-1.3c5.1,2.1,10.2,4.3,15.2,6.6c0.7,0.3,1.7,1.7,0.8,3.3c-0.9,1.6-1.8,2.3-3.3,1.8
			c-1.6-0.6-2.9-1.6-4.4-2.4c-3-1.5-6.1-3-9.1-4.5C136.6,230.1,133.7,229,134.6,227.1z"/>
		<path d="M145.6,218.3c-2.4,0.7-4.9,1.5-7.4,1.7c-1.2,0.1-3.2-0.6-3.7-1.6c-0.8-1.7,0.6-2.5,2.3-2.9c4.6-1.1,9.2-2.4,13.8-3.4
			c0.7-0.2,2.5,0.7,3,2.3C154.2,216,148.2,217.5,145.6,218.3z"/>
		<path d="M132.9,249.4c-1.8,0.2-3.4-1-3.9-3.6c-0.6-3.5-1.2-7.1-1.6-10.7c-0.1-1-0.1-2.7,1-3.1c2-0.8,2.8,1.4,3.1,2.4
			C132.6,239.1,134.8,249.2,132.9,249.4z"/>
	</g>
	<g>
		<circle cx="75.2" cy="37.8" r="1.5"/>
		<circle cx="79.3" cy="36.2" r="1"/>
		<path d="M76.1,32.4c-0.7,0.2-1.5-0.7-1.5-1c-0.6-2.6-1.2-5.2-1.7-7.8c-0.1-0.4,0.2-1.2,1.1-1.3c0.9-0.1,1.4,0,1.6,0.8
			c0.2,0.8,0.2,1.6,0.3,2.4c0.3,1.6,0.6,3.2,0.8,4.8C76.7,30.8,77.1,32.2,76.1,32.4z"/>
		<path d="M69.5,30.6c1,0.7,2,1.5,2.8,2.4c0.4,0.4,0.7,1.4,0.4,1.9c-0.4,0.8-1.1,0.5-1.8-0.1c-1.7-1.5-3.5-2.9-5.3-4.4
			c-0.3-0.2-0.5-1.2,0-1.8C66.2,28,68.5,29.9,69.5,30.6z"/>
	</g>
	<g>
		<circle cx="175.3" cy="98.3" r="1.9"/>
		<circle cx="177.9" cy="103.3" r="1.3"/>
		<path d="M182.2,98.7c-0.3-0.9,0.7-2,1.1-2.1c3.2-1.2,6.5-2.3,9.8-3.3c0.5-0.1,1.5,0.1,1.8,1.2c0.2,1.1,0.1,1.8-0.8,2.2
			c-1,0.4-2,0.5-3,0.8c-2,0.6-4.1,1.2-6.1,1.7C184.4,99.3,182.6,99.9,182.2,98.7z"/>
		<path d="M183.6,90c-0.8,1.3-1.6,2.7-2.7,3.9c-0.5,0.6-1.7,1.1-2.4,0.8c-1.1-0.4-0.8-1.4-0.1-2.3c1.7-2.4,3.2-5,4.9-7.4
			c0.3-0.4,1.5-0.8,2.4-0.2C186.6,85.3,184.5,88.6,183.6,90z"/>
	</g>
</g>
</svg>
