<?xml version="1.0" encoding="utf-8"?>
<!-- Generator: Adobe Illustrator 19.1.0, SVG Export Plug-In . SVG Version: 6.00 Build 0)  -->
<svg version="1.1" id="Calque_1" xmlns="http://www.w3.org/2000/svg" xmlns:xlink="http://www.w3.org/1999/xlink" x="0px" y="0px"
	 viewBox="0 0 247.8 245.7" style="enable-background:new 0 0 247.8 245.7;" xml:space="preserve">
<style type="text/css">
	.st0{fill:#254B86;}
	.st1{fill:#254B87;}
	.st2{fill:#492E1F;}
	.st3{fill:#DFB76A;}
	.st4{fill:#BFBEBE;}
	.st5{fill:#6EA2C2;}
	.st6{fill:#224E89;}
	.st7{fill:none;stroke:#224E89;stroke-width:3;stroke-miterlimit:10;}
	.st8{fill:#F5F9F8;}
	.st9{fill:#F5F9F8;stroke:#224E89;stroke-width:3;stroke-miterlimit:10;}
	.st10{fill:#F9CB00;}
	.st11{fill:#DF111A;}
	.st12{fill:#0B6EB1;}
	.st13{fill:#8D1514;}
	.st14{fill:#679FD0;}
	.st15{fill:#008549;}
	.st16{fill:#CB9831;}
	.st17{filter:url(#Adobe_OpacityMaskFilter);}
	.st18{fill:#1D1C1A;}
	.st19{fill:#C99730;}
</style>
<g>
	<path d="M4,89c2.3-5.8,4.5-11.6,7.1-17.3c4.2-9.2,9.8-17.5,16.1-25.4c6.6-8.3,27.4-26.7,39.8-32.1c21.9-9.7,35.6-12,41.1-13
		C112,0.5,116,0,119.9,0c7.9,0,21.6,0.4,26.4,1.3s8.6,1.7,12.8,2.8c3.1,0.8,6.2,1.8,9.1,3.1c6,2.7,11.9,5.5,17.8,8.5
		c6.1,3.1,11.2,7.6,16.6,11.7c3.4,2.5,6.8,5,9.9,7.9c3.6,3.4,7,7,10.1,10.8c5,6.1,9.1,12.8,12.9,19.7c16.9,39.1,13.1,76.8,8,93.3
		c-2.6,7.5-5.4,14.9-8.7,22.1c-3.5,7.7-7.4,15.4-12.6,22.1c-5.1,6.7-10.5,13.2-17.1,18.5c-3.1,2.4-6.5,4.3-9.8,6.5
		c-1.7,1.1-3.4,2.1-5.1,3.2c-6.4,4.5-21.6,8.5-27.6,9.8c-4.7,1-9.4,2.1-14.2,3c-2.9,0.6-5.8,1-8.7,1.2c1.2,0.6-21.5-0.1-33.8-2
		c-12.2-1.9-33-10.5-37.5-12.6c-8.8-4-16.1-10.3-23.7-16.1c-3.1-2.4-24.2-20.8-31-35.2c-1.3-2.2-2.4-4.6-3.2-7
		c-2.1-6.2-4.3-12.5-5.9-18.8c-1.5-6.4-2.3-12.9-3.5-19.4C-1.2,120.8,0.5,100.5,4,89z M131.7,165.8c1.3,0,2,0,2.8,0
		c7,0.1,13.7-1,20.1-3.7c5.5-2.2,10.7-5,15.3-8.9c2.7-2.4,5.8-4.1,7.9-7.4c3.8-6.3,7.7-12.4,9-19.8c0.7-3.9,2.2-17.5-4.5-30.3
		c-2.8-6.1-6-11.9-10.4-17c-2.5-3-5.8-5.1-9.2-6.8c-2.8-1.4-10.4-6.4-25-9.5c-4.9-0.6-9.5-2.4-14.5-2.9c-4.5-0.4-8.7,0.1-13.1,0.3
		c-1.3,0-2.5,0.3-3.8,0.6c-6,1.3-11.5,4-16.8,7.2c-6.7,4.1-12.3,9.6-17,15.7c-4.5,5.9-8.1,12.2-9.7,19.8c-1.3,6.6-2.1,13.1-1.3,19.8
		c0.8,7,3.1,13.3,6.9,19.2c2.9,4.5,7,7.7,11.1,11c3.9,3.2,8.4,5.3,13.1,6.7c6.2,1.7,12.4,3.7,18.9,4.4
		C118.5,164.9,125.3,165.9,131.7,165.8z M136.6,10.9c0.7,0.5,1.5,1.1,2.4,1.7c0.9,0.5,1.2,1.2,1,2.3c-0.9,3.1-1.7,6.2-2.6,9.2
		c-1.1,3.7-2.3,7.3-3.3,11c-1.4,4.8-2.7,9.7-4,14.5c-0.7,2.4-1.3,4.9-2,7.5c3,0.6,5.9,1,8.7,1.6c3.4,0.7,16.6,2,30.6,11.2
		s20.4,23,23.2,40.2c2.1,8.1,0.6,18-2,24.4c-0.7,1.8-1.4,3.6-2.3,5.2c-1,1.8-1.9,3.5-2.8,5.3c3.6-0.8,6.9-1.5,10.2-2.2
		c6.8-1.4,13.6-2.8,20.4-4.3c6.1-1.3,12.2-2.4,18-4.7c2.2-0.9,4.5-1.6,6.7-2.2c2-0.5,2.1-0.4,2.1-2.5c-0.1-3.6-0.8-26.2-6-44.5
		c-2.1-7.4-4.1-14.6-8.1-21.2c-5.2-8.7-11.4-16.6-18.5-23.8c-2.1-2.1-4-4.3-6.3-6.1c-3.7-3-7.6-5.7-11.5-8.4
		c-10.1-7.1-21.4-11.7-33.2-14.8c-6.3-1.7-12.7-2.8-19-3.9c-4-0.7-8-0.7-12-1.2c-4.7-0.6-9.5-0.8-14.2-0.4
		c-4.5,0.4-8.9,1.2-13.3,1.8c-1.5,0.2-2.9,0.6-4.9,1c7.7,1.4,14.8,2.6,21.9,3.9c5.6,1,11.2,1.9,16.8,0.4
		C133.9,11.8,135.3,11.3,136.6,10.9z M61.9,21.3c-6.3,3.7-11.5,8.1-16.5,12.9c-4.8,4.6-9.4,9.5-13.8,14.4
		c-3.6,4.1-11,13.1-14.7,19.7s-8.5,21-9.6,23.8c-0.8,2.1-1.5,4.3-1.9,6.5c-4,20.1,0.2,40,1.5,48.9c0.3,2,0.6,4,1,5.9
		c0.7,3,4.4,16.6,11.6,27.6c8.8,13.4,25.3,27.9,29.3,31.6c5.9,5.3,12.5,9.5,19.3,13.5c0.7,0.4,1.4,0.7,2.3,1.1
		c1.6-7.7,3.2-15.2,4.7-22.8c1.4-7.5,3.8-30.3,4-31.4c0.3-2.1,0.5-4.2,0.9-6.2c0.2-1.3,0.7-2.5,0.8-3.7c0.1-0.7-0.1-1.7-0.6-2.2
		c-1.7-1.6-3.6-3.1-5.5-4.5c-5-3.9-9.7-8.1-13.3-13.4c-2.3-3.3-4.6-6.6-7-9.9c-4.9-6.8-8.9-14.1-11.4-22.1c-2-6.7-3.6-13.4-3.1-20.5
		c0.1-1.5-0.7-2.1-1.9-2.6c-1.8,5.5-3.1,11.2-5.2,16.6c-2-0.3-3.6-0.5-5.8-0.8c2.2-6,4.3-11.5,6.4-17c2.1-5.5,4-11.2,6.4-16.6
		c2.5-5.4,4.5-10.9,6.8-16.3c2.3-5.5,4.9-10.8,7.4-16.2C56.7,32.3,59.2,27,61.9,21.3z M186,225.3c-0.4-1.4-0.7-2.3-0.9-3.2
		c-2.1-6.4-4.1-12.7-6.2-19.1c-1-2.8-5.4-13-6-15.5c-0.6-2.2-1.5-4.4-2.2-6.6c-1.3,0.8-2.5,1.7-3.8,2.4c-5.4,3.1-11.3,4.8-17.3,6
		c-7.5,1.5-15,3-22.6,4.3c-3.5,0.6-7.2,0.9-10.7,0.5c-6.8-0.8-13.7-0.9-20.4-2.5c-4.3-1-8.5-2-12.1-4.7c-0.3-0.3-2.1-1.2-2.8-1.6
		c-0.3,9.5-1.4,15.1-3,22.1c-1.6,7.1-3.5,14.2-5.2,21.3c0.9,0.4,1.5,0.7,2.2,0.9c4.1,1.4,8.3,2.8,12.5,4.3c20.2,6.2,43.7,6.7,51,6.2
		c6.3-0.4,12.5-1.4,18.6-3.3c3.8-1.2,7.5-2.3,11.2-3.8C174.2,230.7,180,228,186,225.3z M85.9,66.2c-3.9-0.8-5-0.8-9.1-2.1
		c-3.4-1-6.1-2.5-7.9-3.3c-4.9-2.3-10.1-3-15.5-2.2c-1.6,0.2-3.7,0.3-4.5,2.2c-1.1,2.6-2,5.2-2.9,7.5c0.7,0.9,1.6,1.5,1.6,2.1
		c0.1,1.5,0.1,3.2-0.4,4.6c-1.4,4.5-3.2,8.9-4.6,13.4c-0.3,1-0.2,2.1-0.1,3.2c0.7,4.4,1.5,8.8,2.4,13.2c0.7,3.3,1.3,6.7,2.7,9.7
		c2.2,5.1,4.9,10,7.6,14.9c1.1,2,2.7,3.7,4.1,5.4c1.4,1.7,2.9,3.2,4.4,4.9c0-0.9-0.2-1.6-0.5-2.2c-1.5-3-2.8-6.1-3.3-9.5
		c-1.3-7.5-2.1-15-0.3-22.6c0.9-3.8,1.5-7.8,3.1-11.3c3.4-7.4,7.8-14.2,14-19.8C79.8,71.6,82.7,69.1,85.9,66.2z M77.1,60
		c5,2.1,10,2.8,15.2,2.2c0.6-0.1,1.3-0.1,1.9-0.4c5.8-2.5,5.8-2.5,7.4-8.8c0.1-0.4,0.1-0.7,0.2-1.1c2.5-9.5,5.1-19.1,7.6-28.6
		c0.8-3.1,1.4-6.2,2.1-9.3C105,13,99.1,12,92.8,10.9C87.5,27.4,82.3,43.6,77.1,60z M89.5,10.8c-3.3-0.6-6-0.2-8.5,1
		c-3.8,1.7-7.7,3.2-11.5,5c-1,0.5-1.9,1.4-2.5,2.4c-1,1.7-1.8,3.6-2.7,5.4c-3.1,6.8-6.2,13.7-9.2,20.5c-1.5,3.3-2.7,6.7-4.2,10.5
		c7.7-2,14.6,0.4,21.9,2.8C78.4,42.5,83.9,26.8,89.5,10.8z M229.6,160.1c1.9-0.3,3.6-0.7,5.4-1c0.4-1.6,1.2-3,1-4.7
		c-4,1.3-3.2,1.5-4.5-1.1c1.3-0.3,2.5-0.5,3.7-0.9c2.4-0.6,2.6-1,2.3-3.7c-1.1,0.4-2.3,0.8-3.4,1.1c-1.5,0.3-1.8,0.1-2.3-1.9
		c2.1-0.6,3.9-2.2,6.4-1.5c0.2-0.9,0.5-1.9,0.8-3.2c-1.7,0.6-3,1.2-4.4,1.6c-1.6,0.5-1.9,0.4-2.7-1.8c2.7-1,5.4-2.1,8-3.1
		c0.1-1.1,0.2-1.9,0.3-2.8c-2.1,0.8-3.9,1.7-5.8,2.3c-8.6,2.7-17.4,4.3-26.3,5c-3.2,0.3-6.3,0.8-9.4,1.2c-0.3,6.8-0.6,13.4-0.9,20.1
		c1.9,0.2,3.7,0.5,5.5,0.6c6.6,0.5,13.3,0.4,19.9-0.1c3-0.2,6-1.3,9.1-2c1.1-0.2,1.4-0.9,1.4-2C230.9,162.4,230.7,162.3,229.6,160.1
		z M135.4,14.4c-6.3,1.9-12.4,1.9-18.8,0.5c-4.3,14.4-8.5,28.6-12.7,42.8c6.9-1.4,13.5-3,20.7-1.1C128.2,42.5,131.7,28.6,135.4,14.4
		z M115,187.4c6.6,0.8,31.2-2,34.7-3.9c-0.7-5.1-1.5-10.2-2.2-15.4c-10.5,1.9-20.7,1.8-31,0.6C115.3,174.9,114.9,181.1,115,187.4z
		 M83.7,162.8c-0.4,1.7-0.9,3.2-1.1,4.7c-0.4,2.3-0.6,4.5-0.9,6.8c-0.4,3.1-0.1,4.1,2.6,5.2c6.4,2.7,12.7,5.6,19.6,6.9
		c2.3,0.4,4.6,0.6,6.9,0.9c0.9-3.8,1.9-17.3,1.4-19C102.9,166.5,93.5,164.7,83.7,162.8z M177.4,185.4c-0.2,0.2-0.4,0.4-0.7,0.6
		c3.5,10.4,7,20.8,10.6,31.4c4.7-2.5,9.1-4.8,13.8-7.2c0.9,1.3,1.7,2.5,2.5,3.8c4.2-3.3,6.7-8.1,10-12.5c-5.9,0-12.5-2.5-17.1-5.7
		c-3.6-2.4-7-4.9-10.6-7.4C183.4,186.7,180.3,186.3,177.4,185.4z M195.9,191.4c3.7-6.9,6.7-14.2,6.9-17.1
		c-6.6-4.1-20.7-7.2-25.8-5.6c-0.3,2.3-0.3,4.7-1.1,6.8c-1,2.4-0.5,4.4,0.7,6.5c0.6,0.1,1.2,0.2,1.9,0.3c4.5,0.8,8.6,2.4,12.2,5.2
		C192.3,188.9,194,190,195.9,191.4z M200.5,193.3c1.9,1.8,4.6,2.8,7.3,3.4c2.7,0.7,5.5,1,8.3,1.5c0.6-1.1,1.2-2.2,1.9-3.3
		c-3.8-1.1-3.9-1.3-2.8-3.7c1.6,0.3,3.2,0.6,4.9,0.9c0.4-0.8,0.8-1.6,1.2-2.4c-3.5-0.4-3.7-0.7-2.8-3.2c1.5,0.1,3,0.3,4.7,0.5
		c0.3-0.5,0.6-1.1,1.1-2c-1-0.1-1.6-0.3-2.3-0.3c-1,0-1.6-0.7-1.6-1.5c0-0.8,0.5-1.5,1.6-1.4c1.3,0.1,2.5,0.2,4,0.3
		c0.3-0.7,0.6-1.5,1-2.6c-6.9,1-12.9-1.2-19-3C205.4,182.1,203,187.6,200.5,193.3z M194.6,145.9c-8.3,1.5-15.8,4-22,10
		c1.3,2.6,2.5,5.1,3.5,7.4c5.7,0.4,11,0.8,16.3,1.2C194.5,158.5,194.1,152.3,194.6,145.9z M152.1,167.2c0.6,5.1,1.1,10.2,1.7,15.4
		c5.3-1.7,10.1-3.4,14.5-6.4c2.8-1.9,3.9-4.2,3.2-7.3c-0.8-3.4-1.4-6.8-4.7-9.2c-1.4,1.1-2.6,2.5-4.4,3.1c-1.7,0.6-3.2,1.8-4.8,2.5
		C155.9,166.1,154.1,166.6,152.1,167.2z M232.1,168.3c-0.2-0.2-0.3-0.4-0.5-0.6c-8.7,2.9-17.8,2.6-26.8,2.8c2.8,1.4,5.5,2.5,8.3,3.6
		c4.7,1.7,9.7,1.6,14.6,1.7c0.4,0,1.1-0.4,1.3-0.8C230,172.8,231.1,170.5,232.1,168.3z"/>
	<path d="M147.9,126.7c6.1-0.1,20.1-3.3,22.4-3.5c2.3-0.1,3,1.6,2.9,3c-0.7,5.1-1.5,14.1-1.9,16.7c-0.4,2.6-0.5,3.6-1.9,4.4
		c-0.9,0.5-2,1-3.1,1.1c-3.8,0.3-7.7,0.5-11.5,0.7c-0.8,0-1.6,0.1-2.4,0c-1.4-0.1-2.7-0.1-4-0.4c-0.5-0.1-1.2-0.9-1.3-1.4
		c-0.4-2.3-0.7-4.6-0.8-7C146.2,137.7,146.3,126.7,147.9,126.7z M149.9,146.3c1.1,0,2,0,2.9,0c2.9,0,3,0,3-3.1c0-3.5,0-7,0-10.4
		c0-0.7,0-1.5,0-2.2c0-1.1-0.5-1.7-1.7-1.6c-1.5,0.2-3,0.4-4.5,0.6C148.9,136,148.4,137.7,149.9,146.3z M164.3,127.8
		c-0.1,6.2-0.3,12.1-0.4,18.2c1-0.2,2-0.5,2.9-0.7c1.6-0.4,2.2-1.3,2.1-3c-0.1-1.4,0.2-2.9,0.3-4.3c0.4-3.7,0.7-7.4,1.1-11.3
		C168.1,127.1,166.3,127.4,164.3,127.8z M158.5,145.9c1.3,0,2.4,0,3.3,0c-0.3-5.5,0.1-11-0.5-17.6c-1.1,0.2-2,0.4-2.9,0.6
		C158.5,134.7,158.5,140.2,158.5,145.9z"/>
	<path d="M70.2,117.4c5,1.3,18.1,3.3,21.8,3.3c1.9,0,1.6,2.4,1.5,3.7c-0.3,3.6-0.9,7.3-1.3,10.9c-0.2,1.4-0.4,2.9-0.4,4.4
		c0,1.6,0.4,4.3-1.8,4.3c-2.2,0-7.9-0.6-11.9-1.2c-2.1-0.3-4.1-0.8-6.1-1.5c-0.9-0.3-3.3-0.9-3.3-3.8c0-1.4-0.2-3.8-0.1-5.2
		C68.8,127.2,68.5,117,70.2,117.4z M75.5,139.4c0.4-6,0.9-11.8,1.3-17.4c-1.7-0.4-3.1-0.8-4.8-1.2c-1.7,5.7-1.1,11.4-1.1,17.6
		C72.3,138.8,74.3,139,75.5,139.4z M86.3,123.2c-0.5,6-2.3,11.5-1.4,17.5c1.4,0.1,2.6,0.2,4.1,0.3c0.7-5.8,1.3-11.5,2-17.4
		C89.5,123.5,88.1,123.4,86.3,123.2z M79.9,122.5c-1.3,5.9-2.3,11.6-1.1,17.7c1.2,0.1,2.2,0.2,3.2,0.2c0.5-5.9,1-11.6,1.6-17.4
		C82.2,122.8,81.1,122.7,79.9,122.5z"/>
	<path d="M109,127.5c0-1.9,1.5-4,3.3-4.7c1-0.3,2.8,0.4,3.3,1.3c0.8,1.7-0.4,5.1-2,6C111.1,131.4,109,130.1,109,127.5z"/>
	<path d="M126.1,129.9c0-1.9,1.5-4,3.3-4.7c1-0.3,2.8,0.4,3.3,1.3c0.8,1.7-0.4,5.1-2,6C128.2,133.8,126.1,132.5,126.1,129.9z"/>
	<path id="" d="M186,225.3c-0.4-1.4-0.7-2.3-0.9-3.2c-2.1-6.4-4.1-12.7-6.2-19.1c-1-2.8-5.4-13-6-15.5
		c-0.6-2.2-1.5-4.4-2.2-6.6c-1.3,0.8-2.5,1.7-3.8,2.4c-5.4,3.1-11.3,4.8-17.3,6c-7.5,1.5-15,3-22.6,4.3c-3.5,0.6-7.2,0.9-10.7,0.5
		c-6.8-0.8-13.7-0.9-20.4-2.5c-4.3-1-8.5-2-12.1-4.7c-0.3-0.3-2.1-1.2-2.8-1.6c-0.3,9.5-1.4,15.1-3,22.1c-1.6,7.1-3.5,14.2-5.2,21.3
		c0.9,0.4,1.5,0.7,2.2,0.9c4.1,1.4,8.3,2.8,12.5,4.3c20.2,6.2,43.7,6.7,51,6.2c6.3-0.4,12.5-1.4,18.6-3.3c3.8-1.2,7.5-2.3,11.2-3.8
		C174.2,230.7,180,228,186,225.3z"/>
	<path id="" d="M229.6,160.1c1.9-0.3,3.6-0.7,5.4-1c0.4-1.6,1.2-3,1-4.7c-4,1.3-3.2,1.5-4.5-1.1c1.3-0.3,2.5-0.5,3.7-0.9
		c2.4-0.6,2.6-1,2.3-3.7c-1.1,0.4-2.3,0.8-3.4,1.1c-1.5,0.3-1.8,0.1-2.3-1.9c2.1-0.6,3.9-2.2,6.4-1.5c0.2-0.9,0.5-1.9,0.8-3.2
		c-1.7,0.6-3,1.2-4.4,1.6c-1.6,0.5-1.9,0.4-2.7-1.8c2.7-1,5.4-2.1,8-3.1c0.1-1.1,0.2-1.9,0.3-2.8c-2.1,0.8-3.9,1.7-5.8,2.3
		c-8.6,2.7-17.4,4.3-26.3,5c-3.2,0.3-6.3,0.8-9.4,1.2c-0.3,6.8-0.6,13.4-0.9,20.1c1.9,0.2,3.7,0.5,5.5,0.6
		c6.6,0.5,13.3,0.4,19.9-0.1c3-0.2,6-1.3,9.1-2c1.1-0.2,1.4-0.9,1.4-2C230.9,162.4,230.7,162.3,229.6,160.1z"/>
	<path id="" d="M83.7,162.8c-0.4,1.7-0.9,3.2-1.1,4.7c-0.4,2.3-0.6,4.5-0.9,6.8c-0.4,3.1-0.1,4.1,2.6,5.2
		c6.4,2.7,12.7,5.6,19.6,6.9c2.3,0.4,4.6,0.6,6.9,0.9c0.9-3.8,1.9-17.3,1.4-19C102.9,166.5,93.5,164.7,83.7,162.8z"/>
	<path id="" d="M195.9,191.4c3.7-6.9,6.7-14.2,6.9-17.1c-6.6-4.1-20.7-7.2-25.8-5.6c-0.3,2.3-0.3,4.7-1.1,6.8
		c-1,2.4-0.5,4.4,0.7,6.5c0.6,0.1,1.2,0.2,1.9,0.3c4.5,0.8,8.6,2.4,12.2,5.2C192.3,188.9,194,190,195.9,191.4z"/>
	<path id="" d="M152.1,167.2c0.6,5.1,1.1,10.2,1.7,15.4c5.3-1.7,10.1-3.4,14.5-6.4c2.8-1.9,3.9-4.2,3.2-7.3
		c-0.8-3.4-1.4-6.8-4.7-9.2c-1.4,1.1-2.6,2.5-4.4,3.1c-1.7,0.6-3.2,1.8-4.8,2.5C155.9,166.1,154.1,166.6,152.1,167.2z"/>
	<path id="" d="M75.5,139.4c0.4-6,0.9-11.8,1.3-17.4c-1.7-0.4-3.1-0.8-4.8-1.2c-1.7,5.7-1.1,11.4-1.1,17.6
		C72.3,138.8,74.3,139,75.5,139.4z"/>
	<path id="" d="M86.3,123.2c-0.5,6-2.3,11.5-1.4,17.5c1.4,0.1,2.6,0.2,4.1,0.3c0.7-5.8,1.3-11.5,2-17.4
		C89.5,123.5,88.1,123.4,86.3,123.2z"/>
	<path id="" d="M149.9,146.3c1.1,0,2,0,2.9,0c2.9,0,3,0,3-3.1c0-3.5,0-7,0-10.4c0-0.7,0-1.5,0-2.2c0-1.1-0.5-1.7-1.7-1.6
		c-1.5,0.2-3,0.4-4.5,0.6C148.9,136,148.4,137.7,149.9,146.3z"/>
	<path id="" d="M164.3,127.8c-0.1,6.2-0.3,12.1-0.4,18.2c1-0.2,2-0.5,2.9-0.7c1.6-0.4,2.2-1.3,2.1-3c-0.1-1.4,0.2-2.9,0.3-4.3
		c0.4-3.7,0.7-7.4,1.1-11.3C168.1,127.1,166.3,127.4,164.3,127.8z"/>
	<path id="" d="M89.5,10.8c-3.3-0.6-6-0.2-8.5,1c-3.8,1.7-7.7,3.2-11.5,5c-1,0.5-1.9,1.4-2.5,2.4c-1,1.7-1.8,3.6-2.7,5.4
		c-3.1,6.8-6.2,13.7-9.2,20.5c-1.5,3.3-2.7,6.7-4.2,10.5c7.7-2,14.6,0.4,21.9,2.8C78.4,42.5,83.9,26.8,89.5,10.8z"/>
	<path id="" d="M135.4,14.4c-6.3,1.9-12.4,1.9-18.8,0.5c-4.3,14.4-8.5,28.6-12.7,42.8c6.9-1.4,13.5-3,20.7-1.1
		C128.2,42.5,131.7,28.6,135.4,14.4z"/>
</g>
</svg>
