<?xml version="1.0" encoding="utf-8"?>
<!-- Generator: Adobe Illustrator 19.1.0, SVG Export Plug-In . SVG Version: 6.00 Build 0)  -->
<svg version="1.1" id="Calque_1" xmlns="http://www.w3.org/2000/svg" xmlns:xlink="http://www.w3.org/1999/xlink" x="0px" y="0px"
	 viewBox="0 0 283.9 290" style="enable-background:new 0 0 283.9 290;" xml:space="preserve">
<style type="text/css">
	.st0{fill:#EC6C65;}
</style>
<g>
	<path id="" class="st0" d="M272.1,102.7c-3.6-11.6-8.5-22.6-16.1-32.2c-7.2-9.1-41.9-70.7-123.1-63.4c-6.9-0.4-15.8,1.8-24.5,4.2
		c-5.6,1.5-11,3.9-16.4,6.1c-7.9,3.3-15.2,8-22.3,12.8c-9.5,6.3-18.5,13.1-26.3,21.3C31.8,63.6,22.9,77.7,17.1,93.6
		c-3.6,9.8-6.1,19.9-7.9,30.1c-2.3,12.8-2.4,25.7-1.5,38.8c1,14.6,4.1,28.4,9.8,42c7.7,18.3,19.1,33.8,33.1,47.5
		c8.7,8.5,19.2,14.4,30.1,19.8c17.5,8.7,36.1,12.7,55.4,13.3c15.2,0.5,29.9-3.4,44.4-7.4c6.5-1.8,12.9-4.3,19.3-6.4
		c5.6-1.9,10.9-4.5,15.4-8.4c7.2-6.4,16.7-10.6,23.8-17.1c12.4-11.4,19.7-27,26-42.7c5.3-13.1,7.7-27,9.8-40.8
		c1.1-7.4,0.6-15.1,1.4-22.5C277.6,127,275.8,114.7,272.1,102.7z M143.7,249.3c-8.9,8.4-24.1,7-30.8-3.1c-3.3-5-3.8-10.3,0.3-15
		c1.1-1.3,2-2.6,3.1-3.9c3.4-4.2,7.6-6.4,13.1-4.9c4.5,1.3,9.2,2.1,13.3,5C149,231.8,148.9,244.4,143.7,249.3z M192,132.7
		c-3,8.1-8.7,14.1-14.5,20c-5.3,5.4-11.4,9.9-18.1,13.4c-2.4,1.2-3.6,2.8-4,5.5c-1,6.1-2.2,12.2-3.2,18.2c-0.3,1.4-0.3,2.9-0.5,5
		c-10.4-1-20.8-2-31.1-3c-1.7-5.5-0.5-10.3,0.3-15.2c0.6-3.9,1.4-7.7,2.1-11.6c0.4-2.2,1.3-4,3.1-5.3c3.2-2.3,6.3-4.6,9.4-7
		c10.4-7.8,17.5-17.9,20-30.7c1.5-7.9,1.5-15.9-3.3-23.1c-4.7-7-11-11.2-19.6-10.5c-4.9,0.4-9.9,1.2-14.5,2.7
		c-6.1,1.9-9.5,6.8-10.6,13c-0.7,4.3-0.8,8.7-1.1,13c-0.1,1.5,0,3,0.1,4.6c-9.4-1.5-18.3-2.9-27.6-4.4c-1.8-2.6-2.2-6.2-2.5-9.8
		c-0.6-9,0.8-17.7,4.1-26.1c3.3-8.5,9.2-14.8,16.7-19.7c9.5-6.2,20.1-9.7,31.4-10.5c7-0.5,14,0.1,21,1.5c15.2,3,26.5,11.8,36.1,23.2
		c4.2,5,5.9,11.1,7.7,17.2C197,106.5,196.8,119.7,192,132.7z"/>
	<g>
		<path d="M0,147c0-19.6,4.9-38.2,11.2-56.5c3.3-9.6,7.6-18.9,14.2-26.8c5.5-6.7,10.5-13.9,16.6-20.1c4.4-4.6,10-8.2,15.3-11.9
			c5.9-4.2,12-8,18.1-11.9c3.1-2,6.3-3.8,9.7-5.3c7.1-3.1,14.3-6.3,21.7-8.9c4.8-1.7,10-2.3,15-3.3c2-0.4,4.1-0.6,6.1-1.1
			c14.7-3.4,32.5,1.1,47,4.6c42.6,8.8,70.4,40.6,75.9,47.3c7.8,9.5,16,18.3,21.5,29.3c2.2,4.5,3.8,9.2,5.5,13.9
			c7.4,21,7.3,42.5,4.1,64.1c-2.9,20.3-5.8,41.8-16.3,59.6c-4.8,8.2-22.1,29.5-25.2,32.1c-4.8,3.9-9.6,7.8-14.8,11.2
			c-4.3,2.8-9,5-13.6,7.3c-5,2.5-10,5-15.2,7.1c-5.4,2.2-11.1,3.8-16.6,5.9c-7.4,2.8-15.1,3.9-22.9,4.7c-13,1.4-26.1,2.7-39.3,0.8
			c-3.6-0.5-7.4-0.6-11-1.2c-12.5-2.2-24-7.1-34.7-13.7c-4.8-2.9-9.8-5.6-14.2-9c-5.4-4.2-10.6-8.9-15.5-13.8
			c-4.9-4.9-9.4-10.1-13.8-15.5c-6.8-8.3-13.3-16.9-18-26.7c-3.5-7.2-5.2-15-6.9-22.8C1.7,177,0.3,167.4,0,157.6
			C0,154.1,0,150.5,0,147z M132.9,7.1c-6.9-0.4-15.8,1.8-24.5,4.2c-5.6,1.5-11,3.9-16.4,6.1c-7.9,3.3-15.2,8-22.3,12.8
			c-9.5,6.3-18.5,13.1-26.3,21.3C31.8,63.6,22.9,77.7,17.1,93.6c-3.6,9.8-6.1,19.9-7.9,30.1c-2.3,12.8-2.4,25.7-1.5,38.8
			c1,14.6,4.1,28.4,9.8,42c7.7,18.3,19.1,33.8,33.1,47.5c8.7,8.5,19.2,14.4,30.1,19.8c17.5,8.7,36.1,12.7,55.4,13.3
			c15.2,0.5,29.9-3.4,44.4-7.4c6.5-1.8,12.9-4.3,19.3-6.4c40.1-22.1,58.8-52.5,65.2-68.2c5.3-13.1,7.7-27,9.8-40.8
			c1.1-7.4,0.6-15.1,1.4-22.5c1.3-12.7-0.4-25-4.2-37c-3.6-11.6-8.5-22.6-16.1-32.2C226.2,32.8,186,7,132.9,7.1z"/>
		<path d="M71.8,86.4c0-8.8,6.9-15.7,12-23.4c2.1-3.2,5.5-5.6,8.6-7.9c13.2-9.6,28-14.7,44.5-13.4c11,0.9,21.9,3.2,31.6,8.7
			c12.9,7.3,23.6,16.8,29.8,30.9c5.8,13,8.9,26.3,7.3,40.4c-1.2,11.2-4.7,21.9-11,31.3c-5,7.5-11.6,13.9-19.4,18.6
			c-4,2.5-6.5,5.3-6.7,10.3c-0.3,5.8-1.4,11.7-2,17.5c-0.2,1.6-0.6,2.5-2.1,3c-3.6,1.2-7.1,2.1-11,1.4c-3.1-0.5-6.3-0.7-9.4-0.5
			c-7.5,0.4-14.7-0.8-21.9-2.7c-3.7-1-6.8-2.9-9.2-6.1c-1.8-2.3-2.5-4.6-1.4-7.1c2.7-6.7,2.9-13.8,4.5-20.7
			c1.2-5.5,3.6-9.7,8.5-13.2c8.6-6.3,17-12.9,21.7-23.1c3.4-7.2,4.4-14.6,3.9-22.4c-0.6-9.2-9.4-15.9-17.7-14.7
			c-6.5,1-10,3.5-12.1,10c-2.2,6.7-1.6,13.4,0.1,20.1c1.4,5.7-0.8,9-6.5,8.8c-8.6-0.4-17.1-1.2-25.7-1.9c-1.8-0.2-3.5-0.7-5.3-1.2
			c-6.3-1.7-9.9-6.5-11.3-12.3C69.2,107.2,69,97.4,71.8,86.4z M106.1,121.8c0-1.6-0.2-3.1-0.1-4.6c0.3-4.3,0.4-8.7,1.1-13
			c1-6.2,4.5-11,10.6-13c4.7-1.5,9.6-2.3,14.5-2.7c8.6-0.7,14.9,3.5,19.6,10.5c4.8,7.2,4.8,15.2,3.3,23.1
			c-2.4,12.8-9.5,22.9-20,30.7c-3.1,2.3-6.3,4.7-9.4,7c-1.8,1.3-2.7,3.1-3.1,5.3c-0.6,3.9-1.5,7.7-2.1,11.6c-0.8,4.8-2,9.7-0.3,15.2
			c10.3,1,20.7,2,31.1,3c0.2-2.1,0.3-3.5,0.5-5c1.1-6.1,2.3-12.1,3.2-18.2c0.4-2.7,1.7-4.3,4-5.5c6.8-3.5,12.8-7.9,18.1-13.4
			c5.8-5.9,11.5-11.9,14.5-20c4.8-13.1,5-26.2,1.1-39.5c-1.8-6.1-3.5-12.3-7.7-17.2c-9.6-11.4-21-20.2-36.1-23.2c-7-1.4-14-2-21-1.5
			c-11.3,0.8-21.9,4.3-31.4,10.5C89.4,66.6,83.5,73,80.2,81.5c-3.3,8.4-4.7,17.1-4.1,26.1c0.3,3.6,0.7,7.2,2.5,9.8
			C87.8,118.9,96.7,120.3,106.1,121.8z"/>
		<path d="M138.3,213.7c16.4,2.9,23.8,19,22.2,32c-1.1,9.1-7.2,14.6-15.3,18.1c-6.4,2.7-13.2,3-20,2.2c-7.2-0.8-12.4-4.8-15.8-10.8
			c-2.4-4.3-3.8-9.1-5.6-13.8c-0.3-0.7-0.4-1.5-0.3-2.2c1-7.2,3.4-14,9-18.7C119.9,214.4,128.7,212.1,138.3,213.7z M129.4,222.4
			c-5.6-1.5-9.7,0.7-13.1,4.9c-1,1.3-2,2.7-3.1,3.9c-4.1,4.7-3.6,10-0.3,15c6.7,10.1,21.9,11.6,30.8,3.1c5.2-4.9,5.3-17.5-1-21.9
			C138.6,224.5,133.9,223.8,129.4,222.4z"/>
		<path d="M54.4,105.6c-0.4,1.1-0.6,2.3-1.3,3.2c-5.3,7.4-3.8,15.1-0.9,22.8c0.5,1.3,1.5,2.4,1.7,3.7c0.2,1-0.2,2.6-0.9,3.2
			c-0.7,0.5-2.2,0.4-3.2,0c-0.9-0.3-1.6-1.3-2.2-2.2c-4.1-6.6-6-13.9-5.4-21.6c0.4-4.5,2.5-8.7,5.7-12c0.8-0.8,1.9-1.5,3-1.8
			C53.7,100.2,54.7,101.8,54.4,105.6z"/>
		<path d="M186.3,244.9c-2.6-0.6-3.4-2.2-3.3-4.9c0.2-6.2-1.3-11.9-5.3-16.8c-1.8-2.2-2.5-4.4-0.8-6.9c6.8-0.3,11.6,3.8,14.2,12.1
			C193.5,236.1,192,241.2,186.3,244.9z"/>
		<path d="M232.5,84.7c-5.3,0.9-6.4-0.1-7-4.8c-0.5-4.1-1.1-8.3-2.2-12.3c-0.7-2.4-2.6-4.3-3.7-6.6c-0.4-0.9-0.5-2.4,0-3.3
			c0.8-1.3,2.4-1.2,3.6-0.4c1.2,0.8,2.5,1.8,3.3,3c4.2,6.4,6.8,13.3,6.7,21.1C233.1,82.5,232.7,83.6,232.5,84.7z"/>
		<path d="M211.2,67.2c3.9,0.6,5.6,2.5,7.1,4.5c3.2,4.2,3.4,9.2,3.7,14.1c0.2,2.3-1.7,3.4-3.5,4.2c-1.4,0.7-2.7-0.1-3.3-1.5
			c-0.5-1.1-0.7-2.3-0.8-3.5c-0.6-4.6-2.1-8.7-5.4-12.1c-1.2-1.2-2.4-2.9-1.1-4.4C208.8,67.7,210.6,67.5,211.2,67.2z"/>
		<path d="M174.5,249.1c-3.1-0.2-4.1-1.9-4.2-4.5c-0.2-2.5-0.4-5.1-0.9-7.6c-0.7-3.5-1-7.1-3.5-10.1c-0.5-0.6-0.4-2.2,0.1-2.8
			c0.4-0.5,2-0.5,2.7-0.1c1.6,0.8,3.1,1.8,4.4,3.1C177.9,232.1,178.6,242.8,174.5,249.1z"/>
		<path d="M62.4,113.5c-0.9,5.2-0.9,10.1,2.5,14.5c0.9,1.2,2.6,2.8,0.7,4.3c-1.7,1.3-3.4,0.1-4.8-1.2c-5.3-4.7-7.4-16.9-4-23.1
			c0.9-1.7,2.2-3.1,4.3-2.3c1.9,0.7,1.9,2.5,1.8,4.2C62.9,111.1,62.6,112.3,62.4,113.5z"/>
	</g>
</g>
</svg>
