<?xml version="1.0" encoding="utf-8"?>
<!-- Generator: Adobe Illustrator 19.1.0, SVG Export Plug-In . SVG Version: 6.00 Build 0)  -->
<svg version="1.1" id="Calque_1" xmlns="http://www.w3.org/2000/svg" xmlns:xlink="http://www.w3.org/1999/xlink" x="0px" y="0px"
	 viewBox="0 0 210 269.5" style="enable-background:new 0 0 210 269.5;" xml:space="preserve">
<style type="text/css">
	.st0{fill:#72B52B;}
	.st1{fill:#71519B;}
	.st2{fill:#C0BFBF;}
	.st3{fill:#EDE5F2;}
	.st4{fill:none;stroke:#72B52B;stroke-width:4;stroke-linecap:round;stroke-miterlimit:10;}
	.st5{fill:none;stroke:#71519B;stroke-width:4;stroke-linecap:round;stroke-miterlimit:10;}
	.st6{fill:#6EA1C1;}
	.st7{fill:#BFBEBE;}
	.st8{fill:#55358A;}
	.st9{fill:#FFFFFF;}
	.st10{fill:#FFFFFF;stroke:#71519B;stroke-width:3;stroke-miterlimit:10;}
	.st11{fill:#FFFFFF;stroke:#72B52B;stroke-width:3;stroke-miterlimit:10;}
	.st12{fill:none;stroke:#FFFFFF;stroke-width:3;stroke-miterlimit:10;}
	.st13{fill:#F2BF00;}
</style>
<g>
	<path id="" class="st0" d="M203,67.5c0.1-4.7,0.6-9.5,0.6-14.2c0-7.4-0.3-14.7-0.5-22.1c-0.1-5.1-0.3-10.2-0.6-15.3
		c-0.2-2.2-1-4.3-1.5-6.5c-1.8,0.1-3.2,0.3-4.5,0.3c-5.1,0.2-10.3,0.8-15.3,0.3C174,9.3,167,8.5,159.8,9.1c-0.7,0.1-1.5,0-2.2-0.1
		c-4.9-0.3-9.7-0.6-14.6-0.9c-4.8-0.2-9.7-0.4-14.5-0.6c-8.8-0.4-17.7-0.9-26.5-1.1C91.4,6.1,80.8,6.2,70.2,6.1
		c-5.4,0-10.7,0.2-16.1,0c-7.1-0.2-14.2-0.9-21.3-1C24.7,5.1,16.6,5.5,8.5,5.7c-0.2,0-0.4,0.2-0.9,0.5C7.3,8.5,7.1,11,6.8,13.4
		C5.5,23.6,5.5,33.8,5.9,44c0.4,10.3,0.9,20.7,1.4,31c0.2,4.4,0.2,8.7,0.4,13.1c0.2,6.7,0.4,13.5,0.5,20.2c0,6.6-0.1,13.2-0.3,19.8
		c-0.3,8.1-0.3,16.2-1.1,24.3c-0.7,7.3-1.4,14.7-1.3,22c0.2,13,0.1,26,0.2,39c0.1,6.4,0.4,12.7,0.8,19.1c0.3,4.9,0.7,9.7,1.1,14.5
		c0.3,3.8,0.6,7.6,0.9,11.5c1,0.3,1.9,0.6,2.7,0.7c7.3,0.4,14.7,0.9,22,1.1c8.1,0.2,16.2-0.1,24.3,0.3c7.3,0.4,14.6,1.8,22,1.1
		c1.8-0.2,3.7-0.5,5.5-0.5c12.3,0,24.7,0.3,37,0.2c8.5-0.1,17-0.5,25.5-0.7c2.1-0.1,4.2,0.2,6.4,0.1c2.8-0.1,3.3-0.5,3.4-3.3
		c0.5-9.6,1.1-19.2,1.3-28.8c0.1-3.9-0.4-8-2.6-11.6c-1-1.6-1-3.3,0.1-4.9c0.4-0.1,0.8-0.1,1.2-0.2c4.2-0.7,8.5-1,12.5-2.2
		c4.8-1.4,9.5-3.2,14-5.3c5.4-2.6,10.5-5.6,15.7-8.6c1.4-0.8,2.3-2.1,2.3-4c0-12.4,0-24.7,0-37.1c0-3.1-0.3-6.2-0.3-9.4
		c0.1-5.1,0.5-10.2,0.6-15.3c0.2-7.6,0.1-15.2,0.3-22.9c0.2-9.6,1.1-19.2,0.4-28.8C202.9,75,202.9,71.2,203,67.5z M132.1,223.8
		c-6.4,4.2-13,7.8-20.5,9.6c-1.8,0.4-3.6,1-5.4,1.5c-4.9,1.5-7.1,0.5-9.3-4.1c-2.1-4.5-3.9-8.9-2.6-14c0.3-1.1,0.7-2.1,0.9-2.8
		c1.4-0.2,2.5-0.1,3.4-0.5c6.2-2.8,12.4-5.9,18.6-8.7c2.6-1.2,5.3-2,8-2.9c2.4-0.9,5-0.3,6,2c1.8,4.1,3.7,8.1,4.3,12.7
		C136,219.9,134.6,222.1,132.1,223.8z M153.6,113.2c-3.7,8.3-9.4,15.2-15.9,21.5c-5.1,4.9-10.2,9.9-14.9,15.2
		c-3.7,4.1-4.8,9.3-3.9,14.7c0.9,4.9,2.2,9.7,3.5,14.9c-10.9,4.5-21.9,9-33,13.6c-0.4-0.8-0.9-1.4-1-2.1c-0.8-3.9-2.1-7.7-3.3-11.5
		c-1.2-4.1-1.3-8.6-1-12.9c0.6-8.7,4.8-16,10.5-22.4c4.9-5.6,10.6-10.5,15.8-15.9c4.6-4.7,9.1-9.5,13.6-14.4
		c1.9-2.1,2.1-4.9,2.6-7.6c0.9-5,1-9.9-0.1-14.9c-1.2-5.5-3.3-10.7-7.3-14.9c-4.8-5.1-11-7-17.7-7.9c-6.6-0.9-12.9,0.6-18.9,3
		c-5.1,2-9.1,5.6-12,10.3c-1,1.7-2,3.4-3,5.2c-2,3.9-2.5,7.9-2.1,12.3c0.4,3.8,0.9,7.4,2.3,10.9c0.9,2.3,0.1,4-2.3,4.4
		c-4,0.6-7.2,2.7-10.6,4.6c-2.4,1.4-4.9,2.5-7.4,3.6c-1.4,0.6-2.7,0.5-3.5-1c-1.1-2.1-2.6-4-3.3-6.2c-1.4-4.5-2.8-9.1-3.5-13.8
		c-2.1-12.6-0.3-24.7,5.8-35.9c3.8-7,10-12.1,16.4-16.7c3.5-2.6,7.3-4.7,11.2-6.8c6.7-3.7,14-5.1,21.5-5.9c2.1-0.2,4.2-1,6.3-1.1
		c9.6-0.4,19.2-0.3,28.2,3.9c13.9,6.4,22.4,17.1,25.8,32c2.5,10.9,3.4,21.9,3.7,33C155.9,107.5,154.8,110.5,153.6,113.2z"/>
	<path d="M165,94.2c-0.4,3.3-1.1,6.8-1.1,10.3c0,6.1-2.3,11.2-5.6,16c-2.9,4.2-6.2,8.2-9.6,11.9c-5.2,5.6-10.6,10.9-16,16.3
		c-5.7,5.7-7.5,12.5-5.2,20.3c0.6,1.9,1.3,3.8,1.8,5.7c0.4,1.6,0.9,3.1,1,4.7c0.2,1.8-0.4,3.3-2.2,4.4c-7.4,4.6-15,8.9-23.2,12
		c-4.5,1.7-9.2,3.1-13.8,4.6c-3,0.9-3.5,0.4-5.1-2.5c-2.2-4-3.4-8.3-4.4-12.6c-0.4-1.8-1.3-3.5-1.9-5.3c-1.5-4.3-2.1-8.8-1.8-13.3
		c0.1-2.7,0.9-5.4,1.9-7.9c3.8-9.1,9.8-16.8,16.2-24.2c4-4.6,8.5-8.8,12.5-13.3c3.7-4.2,7.4-8.5,10.6-13c3.5-4.9,4-10.5,2-16.1
		c-1.4-3.8-3.4-7.5-5.3-11.1c-2.3-4.3-6.5-5.6-10.9-6.3c-3.7-0.6-7.5-0.5-11,1.2c-4.2,2.1-8.6,3.8-12.7,6.1c-3.3,1.9-4.6,5.1-5.3,9
		c-1,5.8,0.1,11.1,1.6,16.5c0.3,1.2,0.4,2.5,0.6,3.7c0.5,4.7-0.1,5.7-4.4,8c-5.8,3.2-11.5,6.4-17.2,9.7c-2.7,1.5-5.5,1.9-8.3,1.1
		c-1.6-0.5-3.3-1.4-4.4-2.5c-3.9-4-7.1-8.3-8.3-13.9c-1.4-6.5-3.6-12.8-3.5-19.5c0.2-10.9,1.4-21.7,7.6-31.2
		c2.9-4.5,6.8-8,10.6-11.5c6.3-5.8,13.2-10.8,21.3-13.6c5.5-1.9,11.3-3.2,17-4.2c5.1-0.9,10.4-1,15.6-1.5c10.6-1,20.8,0.8,30.7,4.5
		c4.7,1.7,8.5,5.2,12,8.8c7.1,7.1,11.2,15.8,13.7,25.4c1.1,4.2,2.3,8.4,3.1,12.7C164.3,86.8,164.6,90.4,165,94.2z M122.3,179.5
		c-1.2-5.2-2.6-10-3.5-14.9c-1-5.4,0.2-10.6,3.9-14.7c4.7-5.3,9.8-10.2,14.9-15.2c6.5-6.3,12.3-13.1,15.9-21.5
		c1.2-2.7,2.3-5.7,2.2-8.6c-0.3-11.1-1.2-22.1-3.7-33c-3.4-14.9-11.8-25.6-25.8-32c-9-4.2-18.6-4.3-28.2-3.9
		c-2.1,0.1-4.2,0.9-6.3,1.1C84.3,37.6,77,39,70.3,42.7c-3.8,2.1-7.6,4.3-11.2,6.8c-6.4,4.6-12.6,9.7-16.4,16.7
		C36.8,77.4,35,89.6,37,102.1c0.8,4.7,2.1,9.2,3.5,13.8c0.7,2.2,2.2,4.1,3.3,6.2c0.8,1.5,2.1,1.7,3.5,1c2.5-1.1,5-2.3,7.4-3.6
		c3.4-1.9,6.6-4,10.6-4.6c2.4-0.4,3.3-2.1,2.3-4.4c-1.4-3.5-1.9-7.2-2.3-10.9c-0.5-4.4,0-8.5,2.1-12.3c0.9-1.8,1.9-3.5,3-5.2
		c2.9-4.7,6.8-8.3,12-10.3c6.1-2.4,12.3-3.8,18.9-3c6.7,0.9,12.9,2.8,17.7,7.9c4,4.2,6,9.4,7.3,14.9c1.1,4.9,1,9.9,0.1,14.9
		c-0.5,2.7-0.7,5.5-2.6,7.6c-4.4,4.9-9,9.7-13.6,14.4c-5.2,5.3-10.9,10.3-15.8,15.9c-5.6,6.3-9.9,13.7-10.5,22.4
		c-0.3,4.3-0.2,8.9,1,12.9c1.1,3.8,2.4,7.6,3.3,11.5c0.1,0.7,0.6,1.3,1,2.1C100.4,188.5,111.4,184,122.3,179.5z"/>
	<path d="M107.9,241.2c-7.8,0-12.7-4-15.7-10.6c-2.3-5.1-3.2-10.1-1.9-15.6c0.6-2.8,1.9-4.8,4.5-6c8.2-3.9,16.3-8,24.7-11.7
		c3.2-1.4,6.6-2.6,10.5-2c3.8,0.6,6,2.8,7.7,5.9c1.4,2.8,2.8,5.6,4,8.5c1.8,4.3,3.1,8.8,0.3,13.2c-0.7,1-1.4,2.1-2.3,2.8
		c-8.1,6.6-17.2,11.4-27.2,14.5C110.9,240.8,109.4,241,107.9,241.2z M95.2,214c-0.2,0.7-0.6,1.7-0.9,2.8c-1.3,5.1,0.5,9.6,2.6,14
		c2.2,4.6,4.4,5.6,9.3,4.1c1.8-0.5,3.6-1.1,5.4-1.5c7.5-1.8,14.2-5.4,20.5-9.6c2.5-1.7,3.9-3.9,3.5-7.3c-0.6-4.6-2.5-8.6-4.3-12.7
		c-1-2.2-3.6-2.8-6-2c-2.7,1-5.4,1.8-8,2.9c-6.2,2.8-12.4,5.8-18.6,8.7C97.7,213.9,96.6,213.8,95.2,214z"/>
	<path d="M73,228.9c-0.3,1.1-0.5,2.1-0.6,2.6c-4.5,1.6-8.8,2.7-12.8,4.6c-3.9,1.8-7.5,4.4-11.1,6.7c-2.7-2.5-2.4-2.4-1.1-5
		c1.7-3.3,4.8-4.4,7.6-6c3.7-2.1,7.5-3.8,11.8-4.5C69,226.8,71,227.1,73,228.9z"/>
	<path d="M189.7,29.1c0.5,0.8,1,1.3,1.3,2c1,2.1,0.5,3.6-1.6,3.9c-6.9,1-11.2,6-16.1,10.1c-0.5,0.4-0.8,1-1.3,1.3
		c-1.2,0.9-2.4,1.6-3.9,0.2c-1.4-1.3-1.5-2.7-0.4-4c1.8-2.1,3.7-4,5.8-5.8C178,33.1,183.4,30.7,189.7,29.1z"/>
	<path d="M68.1,221.4c-1.2-0.2-2.5-0.3-3.6-0.6c-2.5-0.8-5-1.3-7.7-0.7c-1.7,0.4-3.2-0.9-3.4-2.6c-0.1-1.2,0.2-2.3,1.7-2.5
		c2.4-0.2,4.9-0.5,7.3-0.4c2.3,0.1,4.6,0.7,6.9,1.3c0.9,0.2,1.9,0.8,2.4,1.5c0.5,0.7,0.9,1.8,0.7,2.6c-0.1,0.5-1.3,0.9-2.1,1.1
		c-0.7,0.2-1.5,0-2.2,0C68.1,221.2,68.1,221.3,68.1,221.4z"/>
	<path d="M165.2,37.6c-3.2-2.4-3.5-3.4-1.3-6.8c1.4-2.1,3-4,4.4-6c1.1-1.6,2.6-1.4,4-1c1.4,0.4,1.7,1.7,1.4,3
		c-0.2,0.7-0.7,1.3-1.1,1.9C170.1,31.8,167.7,34.7,165.2,37.6z"/>
	<path d="M74.7,236.9c0.7,0.6,1.8,1.2,2.4,2.2c0.6,1-0.2,1.7-1.2,2.3c-3.1,1.8-5.9,4-7.8,7.2c-0.3,0.6-1.9,1.1-2.4,0.8
		c-0.8-0.5-1.2-1.6-1.6-2.6c-0.1-0.3,0.1-1,0.4-1.4c2.7-2.7,5.4-5.4,8.2-8C73.2,237.2,73.8,237.2,74.7,236.9z"/>
	<path d="M185.3,49.9c0,1.9-0.6,2.8-2.3,3.2c-2.9,0.6-5.8,1.4-8.7,2c-1.4,0.3-2.6-0.5-3.2-2c-0.6-1.6,0.5-2.4,1.7-2.8
		c3.1-1,6.1-2,9.3-2.7C184.6,47,185.4,47.9,185.3,49.9z"/>
	<path d="M0,187.8c0.3-12,0.5-24,0.8-36c0.2-9.1,0.4-18.2,0.7-27.3c0.3-7.6,1.3-15.2,1.2-22.8c-0.1-9.1-1.2-18.2-1.4-27.3
		c-0.1-9.7-1-19.4-0.5-29.2C1.5,32.5,1.1,19.8,0.9,7C0.9,2.3,2.3,0.1,7.2,0c5.3-0.1,10.7,0.1,16.1,0.2c8.1,0,16.2-0.1,24.3,0
		c2.2,0,4.5,0.3,6.7,0.3c5.6,0,11.2,0,16.9,0c4.6,0,9.2-0.1,13.8,0.1C91.3,0.7,97.7,1,104,1.4c7.7,0.5,15.4,1.1,23.2,1.5
		c6,0.3,12,0,17.9,0.6c16.8,1.6,33.7,0.5,50.5,0.3c3.4,0,6.3,1.5,9,3.2c1.3,0.8,2.2,3.1,2.5,4.8c0.8,4.8,1,9.7,1.6,14.5
		c1.3,12.3,1.4,24.7,1.3,37.1c0,3.6-0.6,7.2-0.6,10.8c0,6.6,0.3,13.2,0.3,19.9c0,4-0.5,8-0.6,12c-0.1,4.2-0.2,8.5-0.2,12.7
		c0.1,10,0.1,20,0.3,30c0.1,7.9,0.4,15.7,0.4,23.6c0,5.5-0.3,11-0.3,16.5c0,5.8,0.4,11.7,0.4,17.5c-0.1,9.5-0.2,18.9-0.6,28.4
		c-0.3,8.2-0.8,16.4-1.3,24.6c-0.2,3.4-0.6,3.8-4.2,4.2c-0.2,0-0.5,0.1-0.7,0.3c-5.8,3.3-12.4,3-18.6,3.4
		c-10.6,0.7-21.2,0.5-31.7,0.9c-7.7,0.2-15.5,0.8-23.2,1c-9.6,0.3-19.2,0.6-28.9,0.5c-6.7,0-13.5-0.7-20.2-1
		c-6.5-0.3-13-0.4-19.4-0.9c-14.4-1-29-0.3-43.4-1.9c-2.6-0.3-5.2-0.1-7.9-0.2c-4-0.1-6.1-1.9-6.4-5.8c-0.5-6.7-1-13.4-1.3-20.2
		c-0.6-11.6-1.2-23.2-1.6-34.8c-0.2-5.6-0.1-11.2-0.1-16.9C0.1,187.8,0.1,187.8,0,187.8z M200.9,9.4c-1.8,0.1-3.2,0.3-4.5,0.3
		c-5.1,0.2-10.3,0.8-15.3,0.3C174,9.3,167,8.5,159.8,9.1c-0.7,0.1-1.5,0-2.2-0.1c-4.9-0.3-9.7-0.6-14.6-0.9
		c-4.8-0.2-9.7-0.4-14.5-0.6c-8.8-0.4-17.7-0.9-26.5-1.1C91.4,6.1,80.8,6.2,70.2,6.1c-5.4,0-10.7,0.2-16.1,0
		c-7.1-0.2-14.2-0.9-21.3-1C24.7,5.1,16.6,5.5,8.5,5.7c-0.2,0-0.4,0.2-0.9,0.5C7.3,8.5,7.1,11,6.8,13.4C5.5,23.6,5.5,33.8,5.9,44
		c0.4,10.3,0.9,20.7,1.4,31c0.2,4.4,0.2,8.7,0.4,13.1c0.2,6.7,0.4,13.5,0.5,20.2c0,6.6-0.1,13.2-0.3,19.8
		c-0.3,8.1-0.3,16.2-1.1,24.3c-0.7,7.3-1.4,14.7-1.3,22c0.2,13,0.1,26,0.2,39c0.1,6.4,0.4,12.7,0.8,19.1c0.3,4.9,0.7,9.7,1.1,14.5
		c0.3,3.8,0.6,7.6,0.9,11.5c1,0.3,1.9,0.6,2.7,0.7c7.3,0.4,14.7,0.9,22,1.1c8.1,0.2,16.2-0.1,24.3,0.3c7.3,0.4,14.6,1.8,22,1.1
		c1.8-0.2,3.7-0.5,5.5-0.5c12.3,0,24.7,0.3,37,0.2c8.5-0.1,17-0.5,25.5-0.7c2.1-0.1,4.2,0.2,6.4,0.1c2.8-0.1,3.3-0.5,3.4-3.3
		c0.5-9.6,1.1-19.2,1.3-28.8c0.1-3.9-0.4-8-2.6-11.6c-1-1.6-1-3.3,0.1-4.9c0.4-0.1,0.8-0.1,1.2-0.2c4.2-0.7,8.5-1,12.5-2.2
		c4.8-1.4,9.5-3.2,14-5.3c5.4-2.6,10.5-5.6,15.7-8.6c1.4-0.8,2.3-2.1,2.3-4c0-12.4,0-24.7,0-37.1c0-3.1-0.3-6.2-0.3-9.4
		c0.1-5.1,0.5-10.2,0.6-15.3c0.2-7.6,0.1-15.2,0.3-22.9c0.2-9.6,1.1-19.2,0.4-28.8c-0.3-3.7-0.2-7.5-0.2-11.2
		c0.1-4.7,0.6-9.5,0.6-14.2c0-7.4-0.3-14.7-0.5-22.1c-0.1-5.1-0.3-10.2-0.6-15.3C202.2,13.7,201.4,11.6,200.9,9.4z M160.3,217.2
		c3,6,3.3,12.5,3.7,18.8c0.4,6.2-0.2,12.6-0.4,19.7c13.6-16.8,27.2-32.7,35.2-52.4C187.2,211,174.2,214.6,160.3,217.2z"/>
</g>
</svg>
