<?xml version="1.0" encoding="utf-8"?>
<!-- Generator: Adobe Illustrator 19.1.0, SVG Export Plug-In . SVG Version: 6.00 Build 0)  -->
<svg version="1.1" id="Calque_1" xmlns="http://www.w3.org/2000/svg" xmlns:xlink="http://www.w3.org/1999/xlink" x="0px" y="0px"
	 viewBox="0 0 192.5 239.8" style="enable-background:new 0 0 192.5 239.8;" xml:space="preserve">
<style type="text/css">
	.st0{fill:#6D9DBD;}
	.st1{fill:#F2A73B;}
	.st2{fill:#6DA3C3;}
	.st3{fill:none;}
	.st4{fill:none;stroke:#F2A73B;stroke-width:3;stroke-miterlimit:10;}
	.st5{fill:#6DA1C1;}
	.st6{fill:#F6AB3B;}
	.st7{fill:none;stroke:#F6AB3B;stroke-width:3;stroke-miterlimit:10;}
	.st8{fill:#F8AD3B;}
	.st9{fill:#C6C6C6;}
	.st10{fill:#F4901E;}
	.st11{fill:none;stroke:#F8AD3B;stroke-width:3;stroke-miterlimit:10;}
	.st12{fill:#FFFFFF;}
	.st13{fill:#FFFFFF;stroke:#C6C6C6;stroke-width:3;stroke-miterlimit:10;}
	.st14{fill:none;stroke:#C6C6C6;stroke-width:3;stroke-miterlimit:10;}
</style>
<g>
	<path class="st0" id="d" d="M190.4,4.2l-10.7-1.1L155.2,5h-46.7L34.3,5.8c0,0-25.7,0-29.4,1.4l-3.5,8.2l4,69.3l2.7,23.8l0.4,45.3v72.6
		l3.7,9.5h15.4l46.3,2.8l34.3-2.8h71.4l8.2-3.6l-1.2-18.1l0.8-86.4V59.3l-0.7-25.3l1.4-18.4L190.4,4.2z M81.2,208l-4.2-9l2.7-7.6
		L106,193l2.6,15H81.2z M134.4,120.2l-10.4,18l-11.5,11.8l-1.7,24l-31.3,1.9v-19l3.4-13.3l16.4-16.1l12.2-13.5l1.2-13.1l-1.6-10.2
		l-5.1-2.9l-9.7-2.1l-22.3,22.1l-21.3-5.3v-8.7l4.6-14.4l13.7-15.3l22-8l24.7,1.4l16.9,19.3l4.5,18.2L134.4,120.2z"/>
	<g>
		<path d="M189.9,236.8c-1.4,3-15.2,1.9-22.9,1.8c-19-0.2-37.9-0.6-56.9-0.5c-6.5,0-12.9,1.4-19.4,1.5c-11.6,0.3-23.1,0.1-34.7,0.1
			c-8.7,0-17.4,0.3-26-0.2c-6.8-0.4-19-1.6-20.2-2.8s-1.7-1.8-1.9-2.8c-0.6-3.8-1.2-7.6-1.3-11.5c-0.2-9.1-0.1-18.2-0.2-27.4
			c-0.1-6-0.4-11.9-0.4-17.9c0-6.3,0.3-12.6,0.4-18.9c0.2-15.3,0.5-30.7,0.5-46c0-3.9-0.4-7.9-0.9-11.8c-0.8-6.6-2.2-13.2-2.7-19.8
			c-0.8-10.1-1-20.3-1.5-30.4C1.4,42.5,1,34.7,0.6,26.9C0.5,25-0.1,23.1,0,21.2C0.3,17.4-0.2,6.4,2.8,5.1s17-1.3,25.6-1.8
			C44.2,2.4,60,4,75.8,2.2c8.3-1,16.8-0.8,25.2-0.8c14.3-0.1,28.6,0.2,42.8,0.1c7-0.1,13.9-1.1,20.9-1.4c4.9-0.2,9.8,0.1,14.7,0.2
			c1.5,0,3,0.2,4.5,0.3c7.1,0,9.3,2.2,8.6,9.2c-0.7,6.8-2,13.5-2.4,20.3c-0.4,6.2-0.4,12.5,0.3,18.6c1.2,12,1,23.9,0.4,35.9
			c-0.7,13.7-0.7,27.5-0.5,41.3c0.2,11.3,1.7,22.6,1.7,33.9c0,17.5-0.9,35.1-1.3,52.6c-0.1,5,0,10-0.1,14.9
			C190.5,230.4,191.3,233.8,189.9,236.8z M187,5.2c-7.6,0-15.2-0.2-22.9,0.1C157,5.6,150,6.8,142.9,7c-11,0.2-21.9-0.2-32.9-0.4
			C99,6.4,88,6.1,77.1,6.2C61.5,6.4,45.9,6.8,30.3,7.1C22.6,7.2,15,6.8,7.8,10.1c-1.1,0.5-2.4,1.7-2.7,2.8c-0.5,2.2-0.6,4.5-0.6,6.8
			c0.2,11.7,0.3,23.3,0.9,35C6,64.3,7,73.9,8,83.5c1,10.6,2.4,21.1,3,31.6c0.4,7.1-0.4,14.2-0.5,21.3c-0.1,11.8,0,23.7,0,35.5
			c0,14.3,0,28.6,0,42.9c0,4.3-0.2,8.6-0.2,12.9c0,5.1,0.9,5.9,5.9,5.9c6.1,0,12.1-0.2,18.2,0.1c5.8,0.2,11.5,1.3,17.3,1.4
			c8.7,0.1,17.4-0.2,26.1-0.5c20.9-0.7,41.8-1.5,62.7-2c14.2-0.4,28.5-0.4,42.7-0.5c2.2,0,3-0.5,2.8-2.8c-0.4-6.4-0.8-12.8-0.9-19.2
			c-0.2-9.7-0.1-19.3-0.1-29c0-8.9-0.1-17.7-0.2-26.6c-0.1-13.3-0.1-26.7-0.2-40c0-8.3-0.4-16.7-0.1-25c0.4-13.3,1.4-26.6,1.7-40
			c0.2-6.9-0.9-13.8-0.8-20.8C185.6,21.1,186.5,13.5,187,5.2z"/>
		<path d="M116.7,179.6c-1.1,0.5-1.5,0.5-3,0.5c-10.9-0.2-29.8-0.4-32.3-0.3c-4,0.3-3.1-1.5-3.2-6c0-0.7,0.1-1.3,0.2-2
			c0.5-7.8,0.5-15.6,1.5-23.3c0.9-7,5.5-12.2,10.9-16.5c3.8-3,7.9-5.9,11.5-9.2c7.7-7.1,11.7-18,8.1-28.4c-1.6-4.5-3.8-5.4-8.4-4.1
			c-3.3,0.9-6.6,3.3-9.1,5.9c-3.5,3.7-6.3,8.1-9.4,12.3c-0.5,0.7-0.8,1.5-1.2,2.4c-0.7,1.6-1.2,4.4-1.9,4.5
			c-2.1,0.2-4.4-0.6-6.5-1.3c-3.6-1.2-7.2-2.7-10.8-4.1c-4.2-1.6-8.3-3.2-12.4-4.9c-0.5-0.2-1-1.4-0.9-2.1c0.6-4.4,0.9-8.9,2.2-13.1
			c2.6-8.3,6.5-15.9,12.7-22.2c5.4-5.5,12.2-8.5,19.3-10.8c9.4-3.1,18.9-2.6,28.4-1c3.3,0.6,6.8,2.1,9.6,4
			c10.6,7.2,16.6,17.5,17.9,30.1c0.5,4.8-0.8,26-4.7,33.5c-3,5.8-5.5,10.8-8.9,15.6c-3.4,4.7-7.8,9-8.6,15.1
			c-0.7,4.7-0.6,9.6-0.7,14.4c0,1.9,0.2,3.8,0.4,5.8C117.6,175.8,117.8,179.1,116.7,179.6z M104.3,174c-0.3-1.6-0.7-2.6-0.7-3.6
			c0-3.7,0.2-7.4,0.2-11c0-3.3,0.4-6.6,2.7-9.1c3.5-3.8,7.2-7.3,11.1-10.8c6.5-5.9,12.1-12.5,14.6-21.1c1.5-5.1,3-8.2,3.5-15.6
			c2.1-16.5-2.4-31.6-15.6-40.4c-2.3-1.5-5-2.9-7.6-3.4c-9.5-1.5-19-2.2-28.3,1.2c-5.8,2.1-11.4,4.5-16,8.8
			c-8.7,8.1-13,18.5-15.4,29.9c-0.4,1.8,0.5,2.4,1.9,2.8c3.7,1.1,7.5,2,11.1,3.3c2,0.7,3,0.2,3.9-1.7c2.4-5.1,5.7-9.7,10.1-13.3
			c5.8-4.7,11.9-8.8,19.9-7.8c4,0.5,7.4,2.1,10.1,5.4c4.1,5.1,5.3,11,5.1,17.3c-0.3,7.5-3.4,14-8.7,19.2c-4.2,4.1-8.9,7.7-13.6,11.2
			c-6.8,5.1-10.1,12-10.4,20.3c-0.2,6.1,0,12.2,0,18.5C89.3,174,96.7,174,104.3,174z"/>
		<path d="M81.6,212.5c-2.2,0.1-3-1.4-3.5-2.9c-1.9-5.9-2.4-12-1.4-18.1c0.1-0.5,1.2-1.3,1.8-1.3c4.7-0.1,9.4-0.1,14.1,0.1
			c5.9,0.2,11.9,0.6,17.8,0.9c3.6,0.2,4.9,1.6,4.7,5.2c-0.1,3.2,0.1,6.5,0.1,9.7c0.1,4.1-1.4,5.7-5.4,5.8
			C105.4,212,86.5,212.4,81.6,212.5z M103.2,205.8c-0.3-3.3-0.6-6.2-0.8-9c-0.1-1.7-1.1-2.3-2.5-2.3c-5.9-0.1-11.9-0.1-17.8-0.3
			c-2.1-0.1-2.6,0.7-2.6,2.5c0.1,2.2,0.1,4.5,0.2,6.7c0.1,1.9,1,2.9,3,2.8c1.3-0.1,2.6-0.1,3.9-0.1C92,206,97.4,205.9,103.2,205.8z"
			/>
		<path d="M22.6,210.8c-0.7-0.8,0.4-2.1,1-2.7c3.3-3.4,6.7-6.7,10.1-10c7.5-7,15-14,22.6-20.9c0.7-0.6,2-1.7,3.4-0.4
			c1.3,1.3-0.9,3.6-1.1,3.8c-6.7,6.5-13.4,13-20.2,19.4c-4,3.8-8.4,7.2-12.6,10.8C25.3,211.3,23.7,211.9,22.6,210.8z"/>
		<path d="M144.5,54c-1.1-1.2-2.1-2.1-2.8-3.2c-0.1-0.2,1.1-1.5,1.9-2c8.8-6.2,17.6-12.4,26.5-18.6c1.2-0.8,2.6-2.3,3.8-0.5
			c0.9,1.3,1.2,3-0.9,4.4c-8.6,6-17,12.3-25.5,18.4C146.6,53,145.7,53.4,144.5,54z"/>
		<path d="M137.6,186.9c1.5,0,2.6,1.1,3.6,1.9c4.5,3.9,8.9,7.9,13.3,11.9c4.8,4.4,9.6,8.9,14.4,13.4c0.4,0.4,0.4,2,0.2,2.1
			c-0.8,0.3-2,0.6-2.6,0.2c-1.5-1-2.8-2.4-4.2-3.5c-8.4-7-16.8-14-25.2-21.1c-0.8-0.7-1.5-1.1-1.5-2.4
			C135.6,188,136.1,186.9,137.6,186.9z"/>
		<path d="M21.6,34.5c1.2-1.2,2.6-0.9,3.2-0.4c7.1,5.5,14.2,11.1,21.3,16.7c0.7,0.5,1.4,1.1,2.1,1.6c1.4,0.9,1.8,2,0.9,3.3
			c-0.9,1.4-2.2,1.2-3.4,0.3c-3.6-2.8-7.2-5.7-10.8-8.4c-4.1-3.1-8.2-6-12.3-9.1C21.9,37.9,20.5,35.7,21.6,34.5z"/>
		<path d="M48.2,203.9c-1.1-0.5-0.5-2.1-0.2-2.5c4.7-5.6,9.5-11.2,14.3-16.8c0.5-0.6,1.3-1.2,1.9-1.2c0.7-0.1,1.8,0.3,2.2,0.8
			c0.3,0.5,0.2,1.8-0.2,2.2c-4.5,5.1-9.2,10-13.7,15.1C51.6,202.5,49.3,204.4,48.2,203.9z"/>
		<path d="M54.4,170.5c-0.3,0.3-0.7,0.8-1.3,1.1c-5.2,3.6-10.3,7.1-15.5,10.6c-0.6,0.4-1.9,0.6-2.6,0.1c-0.7-0.5,0-2.2,0.6-2.7
			c3.1-2.5,6.4-4.8,9.7-7.1c2-1.4,4-2.9,6-4.1C52.8,167.5,54.5,168.6,54.4,170.5z"/>
		<path d="M129.1,196.4c1.2-1.3,3.1,0.4,4,0.9c5.1,3.3,10.1,6.6,15.1,9.9c1,1.1,1.4,1.9,0.8,2.8s-3.3-0.5-3.9-0.8
			c-5.3-3.3-10.6-6.6-15.8-9.9C128.7,198.9,128.1,197.5,129.1,196.4z"/>
		<path d="M145.4,62.8c-0.6-1.1,0.7-2.4,1.3-2.6c4.8-1.8,9.7-3.4,14.6-5c0.9-0.3,2.2-0.4,3,0c1.2,0.6,1.6,2,0.1,2.6
			c-5.6,2.2-10.2,3.9-15.8,5.9C146.9,64.2,145.8,63.4,145.4,62.8z"/>
		<path d="M58,48.7c-1,0.9-2.8,0.2-3.2-0.2c-3.2-3.3-6.3-6.6-9.3-10c-0.4-0.5-0.8-1.9,0.5-2.8c1.2-0.9,2.2-1.2,3.1-0.3
			c1,1,1.7,2.2,2.6,3.3c1.8,2.2,3.6,4.3,5.4,6.4C57.5,45.7,59.3,47.5,58,48.7z"/>
		<path d="M143,38.9c-1.5,1.5-3,3-4.7,4.1c-0.8,0.6-2.6,0.8-3.3,0.3c-1.3-0.9-0.5-2.1,0.5-3c2.9-2.6,5.7-5.3,8.7-7.9
			c0.5-0.4,2.1-0.5,3.1,0.5C148.3,33.9,144.6,37.4,143,38.9z"/>
		<path d="M157,193.2c-1,0.6-2.8-0.4-3.8-1.1c-3.2-2.2-6.3-4.7-9.3-7.2c-0.5-0.4-1.7-1.4-0.8-2.4c0.9-1,2.4-0.6,3-0.2
			c3.5,2.5,6.8,5.2,10.1,7.8C156.7,190.6,158.1,192.6,157,193.2z"/>
		<path d="M29.8,61.8c0.6-1.4,2.1-2,4.2-1.3c2.8,1.1,5.6,2.1,8.3,3.3c0.8,0.3,2,1,1.8,2c-0.3,1.7-2.2,1.4-3,1.2
			C37.3,65.9,29.1,63.2,29.8,61.8z"/>
	</g>
</g>
</svg>
