<?xml version="1.0" encoding="utf-8"?>
<!-- Generator: Adobe Illustrator 19.1.0, SVG Export Plug-In . SVG Version: 6.00 Build 0)  -->
<svg version="1.1" id="Calque_1" xmlns="http://www.w3.org/2000/svg" xmlns:xlink="http://www.w3.org/1999/xlink" x="0px" y="0px"
	 viewBox="0 0 235 267.5" style="enable-background:new 0 0 235 267.5;" xml:space="preserve">
<style type="text/css">
	.st0{fill:#FFFFFF;}
	.st1{fill:#41AB87;}
	.st2{fill:#E2EFE8;}
	.st3{fill:#010202;}
	.st4{fill:#DB5556;}
	.st5{fill:#6FA4C3;}
	.st6{fill:none;stroke:#DB5556;stroke-width:7;stroke-miterlimit:10;}
	.st7{fill:none;}
	.st8{fill:#FFFFFF;stroke:#DB5556;stroke-width:3;stroke-miterlimit:10;}
	.st9{fill:none;stroke:#DB5556;stroke-width:3;stroke-miterlimit:10;}
	.st10{fill:#C1C0C0;}
	.st11{fill:none;stroke:#C1C0C0;stroke-width:3;stroke-miterlimit:10;}
	.st12{fill:#FFFCFA;}
	.st13{fill:#F5D1CA;}
</style>
<g>
	<g>
		<path d="M19.9,267.4c-4.2,0.1-8.5,0.3-12.5-2.1c-3.9-2.3-6.4-5.6-6.9-9.9c-1-8.9,0.1-17.6,3-26.2c5.4-16.1,12.3-31.5,19-47.1
			c5.3-12.4,10.4-24.9,15.7-37.3c3-6.9,5.9-13.9,9.2-20.6C55,108.8,85,54.3,89.1,45.1c2.5-5.6,5.2-11,8-16.4c1.8-3.5,4-6.9,6.1-10.2
			c1.8-2.9,3.9-5.6,5.8-8.5c2.1-3.3,5.3-5.3,8.1-7.7c0.3-0.3,3.3-2.2,8.2-2.2c4.9,0,7.5,1.4,11.3,2.9c1.8,0.7,3.3,2.6,4.7,4.1
			c3.1,3.4,5.1,7.5,6.7,11.7c3.9,10.2,24.6,64.3,26.6,68.9c0.9,2.1,34,82.6,37.4,91.7c2.5,6.6,5.3,13.1,7.9,19.7
			c3.7,9.2,12.8,38.6,13.5,43.9c0.5,3.6,6.6,20.2-10.4,23.3C216.6,267.9,30.1,267.2,19.9,267.4z M217.2,260.2
			c3.6-0.1,6.2-1.6,7.7-4.7c0.8-1.5,1.2-3.3,1.3-5.1c0.3-3.4-0.1-6.8-1.3-10.1c-1.2-3.4-7.3-23.8-9.7-30.3
			c-3.2-8.6-16.9-42.9-20.4-51.5c-4.5-11-9.1-22.1-13.7-33.1c-4.4-10.6-32.2-82.5-35.1-91.6c-1.1-3.5-2.9-6.7-3.7-10.3
			c-1.3-5.9-4.5-10.8-7.8-15.6c-0.5-1.6-6.9-3.9-12.3-3c-4.3,0.8-7.1,3.2-9.6,6.4C104.2,22.1,98.1,33.8,92.7,46
			c-3.5,8-29.5,54-34.2,63.6c-5.1,10.4-10.1,20.9-14.8,31.5c-4.1,9.1-7.6,18.4-11.5,27.5c-2.8,6.6-5.8,13.1-8.7,19.7
			c-1.6,3.6-3.1,7.3-4.6,11c-4.5,10.9-9.1,21.8-12.6,33.1C4.2,239.2,3.1,246,3.8,253c0.4,4.5,2,7.8,12.2,8.5
			C25.9,262.2,208.9,260.5,217.2,260.2z"/>
		<path d="M207.3,242c1.9-1.3,2.5,0.8,3.7,1.2c1.4-1.6,1.8-4.3,0.3-5.4c-2.4-1.9-6.1-4.3-9-0.9c-3.9,2.5-4.4,8.8-4.4,9.6
			c-0.1,1.6,1,3.3,2,3.5c0.9,0.2,2.9,0.8,3.6-0.9c0.6-1.6-1.3-1.9-1.6-1.9c-1.1-0.2-2.3-0.4-2.1-1.9c0.2-1.3,2-2.5,3.2-2.3
			c2.5,0.5,5.1,3.2,5.5,5.6c0.4,2.4-2.4,5.4-5.2,5.3c-1.8-0.1-3.7-0.7-5.3-1.5c-1.2-0.6-2.2-1.1-3.7-1c-6.5,0.2-13,0-19.5-0.1
			c-7.1-0.2-14.3-0.5-21.4-0.6c-4.7-0.1-9.5,0.2-14.2,0.4c-0.7,0-1.3,0.1-2,0c-7.7-0.9-15.4-0.1-23.2,0.2c-9,0.3-18.1,0.1-27.2,0.1
			c-8.1,0-16.3,0-24.4,0c-4,0-8,0.5-11.9,0.3c-4.7-0.2-9.4-0.7-14.5-1.1c-1.9,2.3-4.4,3.5-7.9,2.5c-2.3-0.7-4.7-2.7-4.5-4.6
			c0.2-2.2,2.1-4.4,4.1-3.8c2,0.6-0.5,3,1.2,3.8c1.4-0.5,1.7-2,2.1-3.3c1.7-4.6,0.2-8.7-4-11c-2.4-1.3-5.2-0.7-7,1.4
			c-0.5,0.6-1.1,1-1.6,1.6c-1.1,1.2-1,2.2,0.8,2.9c0.4-0.4,0.8-0.9,1.1-1.4c1.2-2,2.4-2.5,4.3-1.7c1.4,0.6,2.2,2.5,1.5,4.3
			c-0.8,2.2-2.4,3.9-4.6,4.5c-2.1,0.6-3.7-1.1-5.2-2.4c-1.2-1.1-4.7-3-3.4-7.3c1.6-2.3,3.2-4.5,6-5.5c0.7-0.2,1.3-1.2,1.6-1.9
			c2.7-6.1,5.6-12,7.9-18.2c4.5-11.7,9.3-23.2,14.6-34.5c2.7-5.8,34.4-71.9,39.5-81.3c6.5-12,24.5-46.7,26.9-52.1c0.9-2,1.8-4,2.6-6
			c-1-2.1-2-4.1-3-6c-1.3-2.4-0.2-6.7,2.2-8.3c2.5-1.7,6.3-1.2,8.6,1.2c2.2,2.3,2.3,5.3,0.4,7.8c-1,1.3-2.2,1-3.3,0.4
			c-1.2-0.6-2.3-1.5-1.7-3.2c0.2-0.6,0.5-1.1,0.7-1.7c-3.3-0.1-4.5,1.3-3.3,3.8c1.3,3,3.6,4.8,6.9,5.7c3.8,1,7.2,0.8,10.4-1.5
			c1.9-1.4,3.1-3.3,3-5.6c0-0.9-0.7-2.1-1.4-2.6c-0.4-0.3-1.8,0.5-2.4,1.1c-0.6,0.7-0.8,1.8-1.2,2.7c-0.7,1.6-1.9,1.9-3,0.5
			c-0.6-0.8-1-2-0.9-3c0.8-5.9,8.6-7,11.7-4.7c5.3,3.7,5.9,7.9,2,13.1c-0.7,1-1.5,1.9-2.4,3c2.1,5,4.3,10,6.3,15.2
			c2.8,7.3,5.3,14.8,8,22.2c2.2,5.9,4.6,11.8,6.9,17.6c3.1,7.7,6.3,15.3,9.5,23c1.5,3.7,3.2,7.3,4.6,11
			c5.4,14.2,10.8,28.3,15.9,42.6c5.1,13.9,9.9,27.9,14.8,41.9c1.8,5.2,3.6,10.4,5.3,15.7c6.7,1.5,9.1,6.1,10.7,8.8
			c1.5,2.7,0.9,6.8-1.3,8.8c-1.9,1.7-4.2,1.2-6.2,0.6C208.2,246,205.2,243.5,207.3,242z M162.9,239.6c1.8,0.3,3.2,0.7,4.6,0.7
			c3.2-0.1,6.5-0.5,9.7-0.6c2.4-0.1,3.3,1.3,2.6,3.6c-0.3,1.2-0.7,2.5-1,3.6c5.1,0,10,0,15.1,0c-1.9-7.4,2.9-15,9.7-17.9
			c-1.8-5-3.8-10.2-5.6-15.5c-5.2-14.8-10.3-29.7-15.6-44.5c-2.4-6.7-5-13.3-7.4-19.9c-2.9-7.9-5.7-15.8-8.8-23.6
			c-4.4-10.8-9.2-21.3-13.5-32.1c-3.2-8-5.9-16.2-9-24.3c-3.3-8.8-6.8-17.5-10.2-26.3c-1.1-2.8-1.5-3.3-4.3-2.9
			c-3.7,0.5-7.4,1-11.2-0.5c-1.3,2.4-2.5,4.5-3.5,6.7c-2.4,5.3-4.5,10.8-7.1,16C94.1,84.6,54.9,166.6,44.6,191.9
			c-4.5,10.9-9.3,21.8-13.9,32.6c-0.7,1.7-1.3,3.4-2,5.1c8.8,3,11.8,10,9.8,17.3c1.3,0.3,2.6,0.7,3.8,0.8c1.8,0.2,3.5,0.2,5.3,0.2
			c4.8-0.2,9.6-0.4,14.7-0.6c0-1,0-2,0-3c-0.1-3.9,1.1-5.2,5-5.1c0.8,0,1.5,0.3,2.3,0.4c1.8,0.1,3.7,0.2,5.6,0.3
			c0.3-1.7,0.6-3,0.9-4.2c0.9-5.6,1.7-11.1,2.7-16.7c1.5-8.2,2.7-16.6,5.3-24.6c0.6-1.9,0.8-3.9,1.4-5.8c1.4-4.3,2.9-8.6,4.4-12.9
			c0.5-1.4,0.3-2.5-1.1-3.4c-1.5-1-2.7-2.3-4.1-3.4c-8.8-7-11-16.8-10.6-27.3c0.2-6,1.9-11.8,5.2-17.2c2.9-4.9,6-9.2,11.3-11.7
			c1.7-0.8,3.3-1.7,5-2.6c3.8-2,7.6-4.1,12-4.7c2-0.3,5.6-1.2,6.1,0.4c0.4,1.6-3.1,1.8-4.7,2.3c-3.9,0.9-7.6,2.2-11.2,4.1
			c-4.7,2.5-9.7,4.6-12.9,9.1c-1.5,2.1-2.7,4.5-3.9,6.9c-3.5,7-5,14.4-3.6,22.1c1.2,6.6,3.6,12.8,9.6,16.9c2.1,1.4,4.1,3,6.2,4.4
			c6.3,4,13.3,5.8,20.7,6.1c7.2,0.2,14.1-0.8,20.8-3.3c8.9-3.3,16.4-8.4,21.5-16.8c3.5-5.8,5.7-27.6-12.2-42.2
			c-3.8-3.1-8.6-4.9-13.4-6.2c-1.9-0.5-3.3-1.7-2.7-3.2c1-2.1,4.5-0.3,6.1,0.4c2.7,1.2,5.3,2.7,8,4c5.4,2.7,9.6,6.6,12.8,11.7
			c4.1,6.3,6.6,13.3,7.5,20.7c0.7,5.3,0.2,10.4-2.6,15.4c-2.3,4.1-5.2,7.6-8.4,10.8c1,4.9,2.2,9.5,2.9,14.2
			c1.4,8.4,2.6,16.8,3.8,25.2c0.9,6.7,2.8,13.2,3.1,20C161.1,232,162.2,235.7,162.9,239.6z M80.1,247.5c26.1-0.2,51.7-0.5,77.7-0.7
			c-3-22.6-6-45-9-67.7c-9.2,4.5-18.8,5.6-28.3,6.6c-9.7,1-19.3,0.3-28.6-3.1c-1.4,5.7-2.7,11.1-4,16.5c-2.2,8.9-3.5,18-4.3,27.1
			c-0.6,6.2-1,12.6-3.2,18.6C80.1,245.5,80.2,246.3,80.1,247.5z"/>
		<path d="M133.4,153.9c0,2.1-1.9,4-4.2,4.1c-2.1,0.1-3.8-1.7-3.9-4c-0.1-1.9,2.4-4.7,4.2-4.7C132,149.2,133.4,150.9,133.4,153.9z"
			/>
		<path d="M103.2,151.7c0-2.3,1.7-3.7,4.2-3.7c1.7,0,3.6,2.5,3.5,4.5c-0.1,2-2,3.7-4,3.6C104.9,156,103.2,153.9,103.2,151.7z"/>
	</g>
	<path id="" d="M80.1,247.5c26.1-0.2,51.7-0.5,77.7-0.7c-3-22.6-6-45-9-67.7c-9.2,4.5-18.8,5.6-28.3,6.6
		c-9.7,1-19.3,0.3-28.6-3.1c-1.4,5.7-2.7,11.1-4,16.5c-2.2,8.9-3.5,18-4.3,27.1c-0.6,6.2-1,12.6-3.2,18.6
		C80.1,245.5,80.2,246.3,80.1,247.5z"/>
</g>
</svg>
