<?xml version="1.0" encoding="utf-8"?>
<!-- Generator: Adobe Illustrator 19.1.0, SVG Export Plug-In . SVG Version: 6.00 Build 0)  -->
<svg version="1.1" id="Calque_1" xmlns="http://www.w3.org/2000/svg" xmlns:xlink="http://www.w3.org/1999/xlink" x="0px" y="0px"
	 viewBox="0 0 282.4 251" style="enable-background:new 0 0 282.4 251;" xml:space="preserve">
<style type="text/css">
	.st0{fill:#E01220;}
	.st1{fill:#1F7CAD;}
	.st2{fill:#C0BFBF;}
	.st3{fill:#1F7CAD;stroke:#000000;stroke-width:2;stroke-miterlimit:10;}
	.st4{fill:#6DA3C3;}
	.st5{fill:none;stroke:#E01220;stroke-width:3;stroke-miterlimit:10;}
	.st6{fill:#F5FBF9;}
	.st7{fill:#1D1D1B;}
</style>
<g>
	<path d="M178.9,137.8c-2,1-3.1,2-3.9,4.1c-2,5.8-11.3,26.5-16,26.5c-4.7,0-34.3-0.9-42.8-3.1c-2.9-1.2-5.6-3.5-5.1-6.6
		c4.2-25.4,3-36.1,15.8-42.3c8.4-4,20.4-6.3,22.4-12.8c0.8-5.6,5.5-17.8,0.6-21.5c-4.9-3.7-9.6-2.4-12.2-2.5
		c-1.4,0-13.4,2.8-15.3,15.7c-2,5.7-5.2,8.4-11.6,7.6c-9.2-1.1-18.4-1.9-27.2-4.6c-5.6-1.7-7.7-6.7-8.7-12.1
		c-1.6-8.1,1.3-15.2,5.6-21.8c3.4-5.2,7.8-9.4,12.5-13.5c6.6-5.7,11.1-8,22.2-12.6c18.3-7.4,42.6-3.1,54.4,1.2
		c34.1,12.4,38,46.2,34.5,59.5C201.5,110,196.4,128.2,178.9,137.8z M116,160.1c4.6,1.1,26.3,2.3,33.4,2.3c3.9,0,5.5-2.3,6.6-5.5
		c1.8-5,3.5-9.9,5.6-14.8c1.7-4,4-7.6,7.9-9.8c12.4-6.9,20-17.6,25.3-30.6c6.8-16.6,3.8-31.3-6.9-45c-9.7-12.4-23.3-16.9-38.3-18.6
		c-7.8-0.9-15.5-0.7-23.1,1.1c-5.4,1.2-11,2.5-16,4.8c-5.2,2.4-10,5.8-14.6,9.2c-5.9,4.3-10.9,9.6-14.6,16c-3,5.1-4.7,10.6-3.7,16.6
		c0.6,3.7,2.5,6.7,6.2,7.6c7.2,1.7,14.5,2.9,22,2.3c3-0.2,4.8-1.5,6-4.3c1.2-2.9,2.6-5.7,4.3-8.3c5.9-9.3,17.2-12,24.5-11.5
		c4.8,0.3,7.3,0.3,13.5,7.1c6.1,6.7,1.8,23,0.3,26.9c-1.4,3.5-4.1,6-7.6,7.4c-4.6,1.7-23.1,6.1-25.5,16.4
		C120.5,131.8,117.9,151.3,116,160.1z"/>
	<path d="M108.1,182c1.9-3.7,37,2.9,44.7,3.6c3.8,0.3,4.5,4.7,5.1,9.7c0.3,3-2,20.9-7.8,23.3c-5.8,2.5-20.2,1.5-23.1,0.9
		c-4.5-0.9-9.2-1.4-13.5-2.8c-4.4-1.4-6.8-5-7.6-9.6C104.6,199.9,106.1,185.8,108.1,182z M111.7,187.1c-0.5,2-1.2,3.5-1.4,5.1
		c-0.3,3.3-0.4,6.5-0.3,9.8c0.1,1.9,1.3,3.2,3.3,3.9c10,3.5,20.2,4,30.6,3c1-0.1,2.4-0.9,2.7-1.7c1.3-4,2.6-8.1,3.4-12.3
		c0.5-2.7-1-3.9-3.7-3.8c-1.1,0.1-12.8-1.5-17.5-2.1C123.1,188.3,117.4,187.8,111.7,187.1z"/>
	<path d="M0,124.9c2.6-4.8,5-9.4,7.6-13.9c4.2-7.3,8.8-14.4,12.9-21.7c4.7-8.4,9.1-16.9,13.7-25.4c3.3-6.1,6.8-12.1,10.1-18.3
		c2-3.7,3.5-7.7,5.5-11.4c3.2-5.8,6.6-11.4,9.8-17.1c2.1-3.8,4.1-7.6,6.1-11.4C66.1,5,66.6,4.2,67,3.4c0.7-1.5,1.6-2.2,3.4-2.2
		c4.1-0.1,8.2-0.4,12.3-0.5c7.4-0.2,14.7-0.3,22.1-0.3c6.4,0,12.7,0.3,19.1,0.2C134.9,0.5,146,0,157.1,0c14.4,0,28.8,0.2,43.3,0.3
		c2.5,0,4.9-0.2,7.4-0.2c1.9,0,3.9,0.2,5.8,0.5c0.8,0.1,1.7,0.6,2.2,1.3c1.8,2.2,3.6,4.4,5.1,6.8c4,6.6,8,13.3,11.8,20
		c4.1,7.2,7.9,14.5,11.9,21.7c4.4,7.8,8.5,15.7,13.4,23.2c5.7,8.8,10.5,18.1,15.5,27.4c2.7,5,5.3,10.1,8,15.1c1.3,2.4,1.5,4.8,0,7.2
		c-1.8,3-3.5,6.1-5.2,9.2c-1.4,2.7-2.5,5.5-3.8,8.3c-5.3,11.5-10.6,23-16.8,34c-5.3,9.3-10.1,18.8-15.2,28.2
		c-3.5,6.5-7.1,12.9-10.6,19.4c-2,3.7-3.8,7.5-5.6,11.4c-1.7,3.6-3.6,7.2-5,11c-1,2.7-3.3,3.9-5.1,5.6c-0.5,0.4-1.5,0.4-2.3,0.4
		c-8.6,0.1-17.3,0.2-25.9,0.3c-7.3,0.1-14.5,0.2-21.8,0.2c-2.8,0-5.7-0.1-8.5-0.2c-4.7-0.2-9.4-0.5-14.1-0.6
		c-4.8-0.1-9.6,0-14.4-0.1c-7.4-0.1-14.9-0.4-22.3-0.4c-5.3,0-10.6,0.2-15.9,0.2c-6,0-11.9-0.2-17.9-0.3c-1.5,0-2.5-0.7-3.4-1.9
		c-1.1-1.5-2.5-2.7-3.7-4.2c-3.5-4.2-6-8.9-8.4-13.8c-5.9-12.1-12.6-23.7-19.1-35.5c-3.9-6.9-8-13.7-11.8-20.7
		c-4.1-7.6-8.1-15.2-12-22.9C8.4,142,4.1,133.3,0,124.9z M3,124c2.2,4.9,4,9.5,6.3,14c5.8,11.3,11.7,22.5,17.6,33.6
		c4.9,9.1,9.9,18,15,27c3.9,7,8,14,11.8,21c2.9,5.2,5.4,10.7,8.3,15.9c1.6,2.8,3.6,5.3,5.6,7.9c0.8,1,1.8,1.8,3.2,1.8
		c1.8,0,3.5,0.2,5.3,0.3c13.8,0.6,27.6,0.7,41.5,0.4c15.5-0.3,31,0,46.5,0.7c13.6,0.6,27.3,0.2,40.9,0.4c2.9,0,4.5-0.9,5.7-3.5
		c2-4.2,4.3-8.4,6.4-12.6c3.6-7.4,7.2-14.8,10.8-22.2c1.6-3.3,3-6.9,5.1-9.9c1.8-2.7,3.4-5.5,4.7-8.4c0.4-0.9,0.8-1.8,1.2-2.7
		c4.3-8.2,8.7-16.5,13-24.7c3.2-6.1,6.4-12.2,9.6-18.2c0.8-1.6,1.8-3,2.8-4.5c3.4-5.3,7-10.4,10-15.9c3.3-5.9,3.1-4.4-0.3-10.9
		c-2.1-4-4.6-7.7-6.9-11.6c-6.1-10.7-12.1-21.5-18.3-32.3c-4.5-7.8-9.1-15.6-13.7-23.4c-4.3-7.2-8.8-14.4-13.1-21.6
		c-3.9-6.6-7.7-13.2-11.5-19.9c-0.9-1.6-2-2.2-3.8-2.1c-3.3,0.1-6.7,0.1-10,0.1c-5.7-0.1-11.4-0.5-17-0.5
		c-11.6,0.1-23.1,0.3-34.7,0.5C139,2.8,132.7,2.9,126.5,3c-5.2,0.1-10.4,0-15.6,0c-4.4,0-8.8-0.2-13.2-0.1C88.4,3,79.1,3.2,69.5,3.3
		C68.8,4.6,68,6,67.2,7.5c-1.9,3.6-3.6,7.4-5.7,10.9c-4.6,7.4-9,14.9-12.6,22.9c-1.8,3.8-3.8,7.5-5.7,11.3
		c-3.3,6.2-6.7,12.4-10.1,18.6c-1.9,3.5-3.5,7-5.5,10.4c-4,6.8-8.2,13.4-12.1,20.2C11.2,109,7.1,116.5,3,124z"/>
	<path id="" d="M116,160.1c4.6,1.1,26.3,2.3,33.4,2.3c3.9,0,5.5-2.3,6.6-5.5c1.8-5,3.5-9.9,5.6-14.8c1.7-4,4-7.6,7.9-9.8
		c12.4-6.9,20-17.6,25.3-30.6c6.8-16.6,3.8-31.3-6.9-45c-9.7-12.4-23.3-16.9-38.3-18.6c-7.8-0.9-15.5-0.7-23.1,1.1
		c-5.4,1.2-11,2.5-16,4.8c-5.2,2.4-10,5.8-14.6,9.2c-5.9,4.3-10.9,9.6-14.6,16c-3,5.1-4.7,10.6-3.7,16.6c0.6,3.7,2.5,6.7,6.2,7.6
		c7.2,1.7,14.5,2.9,22,2.3c3-0.2,4.8-1.5,6-4.3c1.2-2.9,2.6-5.7,4.3-8.3c5.9-9.3,17.2-12,24.5-11.5c4.8,0.3,7.3,0.3,13.5,7.1
		c6.1,6.7,1.8,23,0.3,26.9c-1.4,3.5-4.1,6-7.6,7.4c-4.6,1.7-23.1,6.1-25.5,16.4C120.5,131.8,117.9,151.3,116,160.1z"/>
	<path id="" d="M111.7,187.1c-0.5,2-1.2,3.5-1.4,5.1c-0.3,3.3-0.4,6.5-0.3,9.8c0.1,1.9,1.3,3.2,3.3,3.9c10,3.5,20.2,4,30.6,3
		c1-0.1,2.4-0.9,2.7-1.7c1.3-4,2.6-8.1,3.4-12.3c0.5-2.7-1-3.9-3.7-3.8c-1.1,0.1-12.8-1.5-17.5-2.1
		C123.1,188.3,117.4,187.8,111.7,187.1z"/>
</g>
</svg>
