<?xml version="1.0" encoding="utf-8"?>
<!-- Generator: Adobe Illustrator 19.1.0, SVG Export Plug-In . SVG Version: 6.00 Build 0)  -->
<svg version="1.1" id="Calque_1" xmlns="http://www.w3.org/2000/svg" xmlns:xlink="http://www.w3.org/1999/xlink" x="0px" y="0px"
	 viewBox="0 0 236 268.5" style="enable-background:new 0 0 236 268.5;" xml:space="preserve">
<style type="text/css">
	.st0{fill:#FFFFFF;}
	.st1{fill:#41AB87;}
	.st2{fill:#E2EFE8;}
	.st3{fill:#010202;}
	.st4{fill:#DB5556;}
	.st5{fill:#6FA4C3;}
	.st6{fill:none;stroke:#DB5556;stroke-width:7;stroke-miterlimit:10;}
	.st7{fill:none;}
	.st8{fill:#FFFFFF;stroke:#DB5556;stroke-width:3;stroke-miterlimit:10;}
	.st9{fill:none;stroke:#DB5556;stroke-width:3;stroke-miterlimit:10;}
	.st10{fill:#C1C0C0;}
	.st11{fill:none;stroke:#C1C0C0;stroke-width:3;stroke-miterlimit:10;}
	.st12{fill:#FFFCFA;}
	.st13{fill:#F5D1CA;}
</style>
<g>
	<path d="M151.9,265.6c-10.4,0.5-20.8,0.9-31.2,1.3c-6.9,0.3-13.7,0.5-20.6,0.6c-11.6,0.2-23.2,0.4-34.8,0.3
		c-6.5,0-13.1-0.5-19.6-0.9c-5.5-0.3-10.9-0.7-16.3-1.3c-4.5-0.5-9-0.8-13.1-3c-4.8-2.6-8.5-6-9.2-11.9c-0.3-2.7-1.4-5.4-1.8-8.1
		C4.5,236.8,6,231.4,7.5,226c3-10.1,6.3-20.1,10.8-29.6c2.9-6.1,5.2-12.5,7.7-18.8c5.1-12.6,10-25.3,15.2-37.9
		c5.9-14.3,12.1-28.4,18.1-42.7c2.9-7,5.3-14.2,8.2-21.3c1.9-4.7,4.2-9.1,6.2-13.7c0.7-1.5,1.2-3,1.9-4.4c3-6.5,6.1-13,9-19.6
		c3.5-7.7,7.9-15,13-21.7c3.9-5.1,8.5-9.6,14.1-13c2.5-1.5,5-2.3,7.8-2.4c2.6-0.1,5.2-0.3,7.7-0.2c4.9,0.1,8.9,2.2,11.7,6.3
		c6.7,10.1,13.5,20.2,20,30.4c2.5,4,4.5,8.3,6.5,12.6c4.3,9.3,8.4,18.6,12.6,27.9c2.9,6.4,6.1,12.8,8.9,19.3
		c3.3,7.5,6.5,14.9,9.6,22.5c3.8,9.4,6.8,19,9.5,28.7c3.8,14,8.4,27.7,12.1,41.7c3.7,14.1,6.6,28.4,9.8,42.6
		c0.7,3.2,1.5,6.4,1.9,9.7c0.3,2.5,2.1,8.6,0,11.9c-2.1,3.3-9.6,6.1-14,6.6c-3,0.3-5.9,1-8.9,1.3c-9.8,0.9-19.7,1.7-29.5,2.4
		c-8.6,0.6-17.1,0.9-25.7,1.4C151.9,265.8,151.9,265.7,151.9,265.6z M223.4,245.2c-1.1-4.9-2.4-12.1-3.6-16.9
		c-0.8-3.1-1.9-6.1-2.7-9.2c-2.3-8.6-4.5-17.2-7-25.8c-2.7-9.3-5.7-18.5-8.7-27.6c-4.2-12.9-8.5-25.7-12.9-38.5
		c-4.6-13.3-10.1-26.2-15.4-39.2c-2-5-3.9-10-6-14.9c-2.8-6.6-5.7-13.2-8.9-19.6c-4-7.9-8.2-15.9-12.9-23.4
		c-3.9-6.2-8.5-11.9-13-17.6c-3.2-4.2-7-7.4-12.9-7.1c-2.1,0.1-4,0.4-5.8,1.4c-6.6,3.8-11.3,9.6-15.6,15.6
		c-6.3,8.7-10.4,18.5-14.9,28.1c-2.3,4.9-4.1,9.9-6.5,14.7c-4.6,9.3-7.9,19-11.7,28.6c-3.7,9.3-7.3,18.6-11.1,27.8
		c-2.8,6.8-5.9,13.6-8.7,20.4c-4.2,10.1-8.3,20.3-12.4,30.4C27.1,186,21.4,199.7,16,213.5c-2.3,6.1-4.1,12.4-5.7,18.8
		c-1.3,4.9-1.6,10,0.1,14.9c1.5,4.2,4,7.6,8.4,8.7c4,1,8.2,1.2,12.4,1.6c4.2,0.4,8.4,0.6,12.5,0.9c3.4,0.3,6.8,0.8,10.2,1
		c7.1,0.4,14.1,0.6,21.2,0.8c5.8,0.2,11.6,0.4,17.4,0.5c2.9,0.1,5.8,0,8.7,0c11.1-0.2,22.1-0.3,33.2-0.6c4.1-0.1,8.1-0.8,12.2-1.1
		c5.8-0.4,11.6-0.6,17.4-0.8c2.6-0.1,5.2,0,7.7-0.1c9.2-0.4,18.5-0.8,27.7-1.2c5.3-0.2,10.7-0.1,15.8-2.1
		C219.4,253.1,224.6,250.1,223.4,245.2z"/>
	<path d="M200.4,242.5c-0.6,0.5-1.2,1-1.8,1.4c-2.3,1.5-3.9,1.5-5.8-0.4c-1-1-2-1.3-3.4-1.2c-2.8,0.1-5.6-0.1-8.3-1.5
		c-1.9,2-4.5,3.3-7.3,4c-2.9,0.7-5.8,0.2-8-2.6c-2.4,2.4-5.2,3.7-8.3,4c-5.7,0.6-10.5-2.3-8.9-10.1c-3.7,1.7-24.8,9.8-32.5,9.7
		c-11.4-1.7-19.5-7.8-24.3-18.3c-0.2-0.4-0.4-0.7-0.7-1.1c-3,1.1-5.9,2-9.1,2c-5.5,0-9.3-3.7-7.6-9.4c0.1-0.4,0.2-0.8,0.3-1.4
		c-1.1-0.6-2.4-1-3.4-1.7c-3.1-2.1-4.2-5.5-4.7-8.8c-0.4-2.6,1.4-4.9,3.5-6.5c0.6-0.5,1.3-0.7,1.7-0.9c0.5-2.1,0.7-4.1,1.6-5.7
		c0.9-1.5,2.7-2.4,4.3-3.6c0,0,0.2-0.2,0.1-0.4c-0.7-5.3,0.5-7.2,5.4-9c2.1-0.8,4.3-1.4,6.6-0.4c1.5-4.5,5.5-5,9.1-5.8
		c1.7-0.4,3.5,0.7,4.7,2.3c0.6,0.7,0.9,1.6,1.5,2.6c0.2-0.4,0.4-0.7,0.4-0.9c-0.1-5,4.6-7.8,8.8-6.8c1.5,0.3,2.8,0.5,4.4,0.2
		c2-0.4,4.6,1.6,5.3,3.9c0.5,1.7,0.7,3.5,1,5.2c4.8-2.3,9.4-4.7,14.1-6.9c6.9-3.2,13.8-6.4,20.9-9.3c2.7-1.1,5.7-0.6,8.5,0.1
		c4.3,1,7.9,3.4,10.9,6.5c0.8,0.9,1.7,1.6,2.5,2.5c4.9,4.9,8.2,10.7,9.9,17.4c0.8,3.1,0.2,6.2-0.3,9.3c-0.2,1.1-0.4,2.3-0.6,3.6
		c3.3,0.2,5.6,1.9,7.9,3.7c1.1,0.8,2.4,1.3,3.7,1.7c2.5,0.8,4.5,1.9,5,4.8c0.1,0.8,1,1.6,1.8,2.1c4.2,3.1,5.6,7.8,3.6,12.7
		c-0.1,0.3-0.5,0.7-0.4,0.9c1.4,2.9-0.3,6.2,1.2,9.1c1.3,2.6,0.9,5.2-0.6,7.7c-2.3,3.9-7.5,4.1-10,0.2
		C202.4,245.8,201.5,244.2,200.4,242.5z M102.8,203.2c0,0.2,0.2,0.7,0.3,1.2c1.3,4.2,3.5,7.8,7,10.5c2,1.6,4.1,3.1,6.3,4.4
		c1.9,1.1,4,2,6.1,2.7c0.8,0.3,2,0,2.7-0.4c6-3.2,11.9-6.4,17.8-9.8c5.9-3.4,11.6-6.9,17.4-10.4c6.9-4,13.9-8,20.9-12
		c0.4-0.2,0.7-0.5,1.1-0.7c2.5-1.9,3.2-3.7,1.5-6.3c-1.4-2.2-3.3-4.2-5.1-6.1c-1.8-1.8-3.8-3.4-5.7-5.2c-1.2-1.1-7.8-4.6-11.9-2.5
		c-3,1.6-6.4,2.5-9.5,3.8c-1.8,0.7-3.5,1.7-5.2,2.5c-4.1,1.9-8.3,3.5-12.3,5.5c-4,2-8,4.2-11.7,6.7c-6,3.9-11.9,8-17.8,12.1
		C103.5,200.1,102.7,201.3,102.8,203.2z M187.8,191.9c-7.5,4.3-14.5,8.5-21.7,12.2c-8.8,4.5-17.7,8.7-26,14
		c-3.5,2.2-7.2,4.3-10.8,6.3c-1.6,0.9-2.5,2.3-2.5,4.2c0,4.4-0.3,8.6-2.8,12.9c1.6-0.6,2.6-0.8,3.6-1.3c10.7-4.7,21.5-9.2,32.1-14.1
		c7.9-3.7,15.2-8.3,21.6-14.4c1.4-1.4,4.1-4.5,4.4-4.9C188.8,202.7,186.9,196.6,187.8,191.9z M154.5,237.1c-0.5,0.3-1,0.6-1.4,0.7
		c-1.6,0.3-1.6,1.6-1.6,2.7c0,1.2,1,1.6,2,1.7c2.7,0.3,5.3,0.2,7.9-1c2-0.9,2.4-2.9,3.1-4.7c0.1-0.3,0.4-0.5,0.7-0.7
		c1.6,0.2,1.9,1.5,2.3,2.7c0.8,2.1,1.7,2.6,3.9,2.6c2.7-0.1,5-1,6.8-3c0.8-0.8,1.6-1.6,2.4-2.3c3.4,2.9,3.4,2.9,9.7,2.5
		c1.4-1.2,2.5-2.4,3.9-3.2c1.6-1,3.7-1,4.7,0.5c1.8,2.6,4.7,4.4,5.4,7.8c0.3,1.5,1.4,2.9,3.3,3.3c0.7-0.5,1.4-0.9,2.1-1.5
		c1.3-1.1,1.3-2.1,0-3.2c-0.5-0.4-1.1-0.6-1.7-1c-1.4-1.1-1.6-2.4-0.5-3.9c1.6-2.3,1.7-2.8,0-5c-1.5-2.1-1.4-3,0.7-4.7
		c0.3-0.3,0.7-0.5,0.9-0.9c1.4-1.9,0.7-3.2-1.2-4.5c-1.5-1.1-2.3,0.8-3.5,0.1c-1.3-1.2-0.9-2.6-0.5-4.1c0.3-1.2-0.1-2.3-1.2-2.7
		c-0.8-0.3-1.9-0.1-2.6,0.3c-1.8,1.1-3.3,2.6-5.1,3.8c-0.4,0.3-1.5,0.5-1.7,0.2c-0.5-0.6-1-1.4-0.9-2.2c0-0.6,0.6-1.4,1.2-1.8
		c1.6-1.2,1.2-2.6,0.7-4.1c-0.5-1.6-1.9-1.6-3.2-1.6c-0.8,0-1.7-0.1-1.9-0.1c-11,9.7-22.6,17.7-35.6,23.7
		C154,234.9,154.3,235.9,154.5,237.1z M75.8,198.4c1.8,0.7,3.4,1.2,4.8,2.1c0.4,0.2,0.5,1.3,0.4,1.9c-0.1,0.3-1,0.6-1.6,0.6
		c-1.6,0.1-3.2-0.1-4.7,0c-2.4,0.2-4.1,1.8-4.5,4.3c-0.3,2.1,0.4,3.8,2.2,5c1.4,0.9,2.7,1.7,4.5,1.5c0.7-0.1,1.5,0.1,2.1,0.5
		c1.7,1.2,1.7,2.8,0,4.4c-1.2,1.1-2.1,2.5-1.6,4c0.6,1.7,2.2,2.3,3.9,2.1c2.1-0.2,4.3-0.4,6.3-1c3.1-0.9,4.5-2.8,4.7-6.3
		c0.6-8.7,4.6-16.1,11.2-21.6c5.2-4.3,10.9-7.9,16.6-12c-0.1-1.9-0.6-6.9-6.4-7.3c-1.5-0.1-3.1-0.6-4.3,1.1
		c-1.1,1.6-1.1,3.2,0.1,4.8c0.2,0.2,0.3,0.5,0.5,0.8c0.8,1.9,0.6,3.1-0.9,4.3c-0.9,0.7-2,1.3-3.1,1.6c-2.7,0.7-5.4-1-5.9-3.8
		c-0.3-1.6-0.1-3.2-0.1-4.8c-3.9,0.3-4.1,0.5-4.7,4.4c-0.1,0.6-0.5,1.6-1,1.7c-0.5,0.2-1.4-0.3-1.8-0.8c-2.6-2.5-5.5-2.6-8.6-1.2
		c-3,1.4-3.8,2.7-2.5,5.8c0.5,1.3,0.6,2.4-0.2,3.6C77.5,194.4,76.5,195.2,75.8,198.4z M99.6,206.3c-0.4,0.7-0.9,1.3-1,2
		c-0.9,3.5-1.7,7.1-2.7,10.6c-1.6,5.7-1.7,9.6,4.6,14.8c6.2,5.3,8.8,6.7,14.2,8.2c3.9,1,4.2,0.7,5.6-3.2c0.6-1.6,1.3-3.2,1.6-4.9
		c0.4-2,0.6-4.2,0.8-6C111.8,223.7,104.8,216.2,99.6,206.3z M107,185.1c0-2-5.8-1.8-4.2,0.5S107,187,107,185.1z M194.8,238.6
		c0.9-1.2-1.2,1.9,0.6,2.9c1.8,1,2.9-1.2,2.1-2.9C196.9,237.2,193.9,239.9,194.8,238.6z"/>
	<path d="M106.6,71.2c2-4.1,3.9-7.9,5.8-11.8c-1.2-0.9-2.4-1.6-3.4-2.5c-0.7-0.6-1.5-1.6-0.5-2.5c0.5-0.4,1.7-0.5,2.3-0.2
		c3.6,1.7,7.1,3.5,10.6,5.4c1.8,1,3.5,2.1,5.2,3.2c0.9,0.6,2.1,1.1,1.8,2.4c-0.4,1.3-1.7,1.2-2.8,1.1c-1.5-0.2-3.1-0.7-4.8-1.1
		c-1.8,3.4-3.7,7-5.7,10.8c1.4,0.6,2.5,1,3.6,1.6c1.7,0.9,1.9,1.4,0.9,3c-2.7,4.4-5.4,8.8-8,13.2c-4.5,7.6-9,15.1-13.4,22.7
		c-3,5.2-6.1,10.3-9,15.6c-1.8,3.2-3.4,6.4-5.1,9.7c-0.5,0.9-1,1.9-1.7,2.7c-2,2.4-4.2,2.5-6.7,0.5c-0.7-0.6-1.5-1.2-2.4-1.9
		c-5.1,8.9-10.1,17.7-15.2,26.8c-0.9-0.7-1.7-1.3-2.5-2c4.9-8.8,9.6-17.5,14.4-26c-1.9-2.4-5.6-1.8-6.7-4.6
		c4.8-8,9.1-15.9,13.2-24.1c4.7-9.5,9.6-18.9,14.5-28.3c2.4-4.7,4.9-9.2,7.4-13.9c0.3-0.6,0.6-1.2,0.9-1.7c1.1-1.6,1.8-1.7,3.5-0.7
		C103.9,69.1,105,70,106.6,71.2z M86.2,100.2c-3.1,6.4-6.1,12.5-9,18.7c-2.8,6.2-6.8,11.7-9.4,17.8c4,2.2,7.5,4.3,11.2,6.4
		c0.7-1.2,1.3-2.3,1.9-3.4c-1.6-1.4-4.2-1.7-4-4.4c2.4-1.3,3.8,1.9,6.1,1.2c0.4-0.8,0.7-1.6,1.2-2.7c-1.1-0.7-2.2-1.1-3-1.9
		c-0.5-0.5-1.1-1.5-0.9-2.1c0.3-1.1,1.4-0.7,2.2-0.3c1.1,0.5,2.1,1,3.2,1.5c0.8-1.4,1.5-2.7,2.2-3.9c-2.9-1.9-6.6-2.7-7.8-6.7
		c0.3-0.2,0.5-0.5,0.8-0.5c3.5,0.1,5.6,3.3,8.9,4.2c0.6-1.1,1.2-2.1,1.8-3.2c-1-0.8-1.9-1.5-2.8-2.3c-0.7-0.6-1.7-1.3-1-2.4
		c0.9-1.2,2-0.3,2.9,0.1c0.9,0.4,1.6,1.2,2.7,2c0.8-1.7,1.4-3,1.8-3.9c-0.9-2.2-4.1-2.2-3.4-5c2.3-0.9,3.6,1.2,5.4,1.7
		c0.6-1.1,1.2-2.1,1.9-3.4c-0.9-0.8-1.6-1.7-2.5-2.2C93.2,103.8,89.8,102.1,86.2,100.2z M103.3,79.3c3.3,1.9,6.5,3.8,9.9,5.8
		c1-2,1.7-3.5,2.5-5.2c-4.7-2.8-9-5.5-13.7-8.3c-4.6,8.4-9.1,16.3-13.5,24.4c1.4,0.9,2.3,1.6,3.3,2.2c2.5,1.6,5,3.2,7.5,4.8
		c0.6,0.4,1.2,0.8,2,1.3c1-1.8,1.9-3.3,2.8-4.8c-1.6-1.8-4.1-2.2-4.6-4.7c2.6-1.3,4.2,1,6.4,1.5c0.4-0.9,0.9-1.7,1.2-2.4
		c-0.8-2-3.2-2.9-2.9-5.3c2.4-0.6,3.5,1.3,5.3,2.4c0.7-1.1,1.3-2.1,2-3.2c-1.5-0.9-2.6-1.6-3.8-2.3c-1.3-0.8-2.6-1.5-3.8-2.4
		C102.5,82.3,102.1,81.2,103.3,79.3z M115.5,60.9c-1.8,3.6-3.5,7-5,10.3c-0.8,1.6-0.6,1.7,1.7,2.4c1.6-3.9,4.6-7,5.7-11.3
		C117,61.8,116.4,61.5,115.5,60.9z"/>
	<path d="M134.5,91.1c4.1-1.4,7.2,3.8,8.7,7.7c1.6,4,3.7,7.3,7.7,9.3c2.6,1.4,4.2,3.9,5.4,6.6c1.5,3.4,2.7,7,4,10.5
		c0.5,1.2,1.3,2.3,2.1,3.8c1-0.9,1.6-1.5,2.2-2c2.3-1.9,4.6-1.5,6,1.2c1.1,2.1,1.4,4.1-0.2,6c-2,2.6-6.8,12-18.3,15
		c-1.4,0.5-2.9,0.6-4.4,0.6c-5.6,0.3-11.1,0.2-16.4-2.3c-2.3-1.1-3.1-2.4-2.8-4.5c0.4-2.5,1.8-3.9,4.2-4.2c0.6-0.1,1.3,0,1.8,0
		c1.2-2.2,0.7-4.3,0.2-6.4c-0.6-2.7-1.5-5.4-2.2-8c-1.4-5.1-1.3-10.3,1.2-15c1-1.9,1.1-3.6,0.3-5.5c-0.5-1.3-1-2.6-1.6-3.9
		C130.9,96.4,130.4,92.5,134.5,91.1z M160.9,132.3c-4.1-4-5.6-8.7-7.2-13.6c-1.4-4.4-3.8-8.1-8.2-10.2c-1.8-0.8-3.1-2.3-3.9-4.1
		c-1.2-2.8-2.6-5.7-3.8-8.5c-0.4-0.8-0.9-1.8-1.8-1.2c-0.6,0.4-1,1.5-1.1,2.3c0,0.8,0.5,1.6,0.8,2.4c0.7,1.6,1.3,3.2,2.1,4.7
		c1,2,0.9,3.9-0.1,5.8c-1.6,2.9-2.4,6-2,9.3c0.3,2.5,0.8,5,1.4,7.5c0.4,1.9,1.2,3.7,1.5,5.6c0.3,2.7,0.3,5.5,0.5,8.7
		C147.2,140.7,154.4,138,160.9,132.3z M167.7,129.6c-1.3-1.2-1.9,2-2.6,2.8c-1.4,1.6-2.6,3.4-4.1,4.8c-3,2.7-6.5,4.2-10.3,5.5
		c-5.2,1.7-10.1,2.6-15.2,0.2c-1.1-0.5-2.3-0.7-2.9,0.8c3.3,2.5,14.6,3,19.9,0.9C159.4,141.8,170.8,132.4,167.7,129.6z"/>
	<path d="M68,187.8c2.4-0.2,4.3,1.6,4.4,4.3c0.1,2.6-1.5,4.3-4.3,4.5c-2.6,0.2-4.4-1.5-4.6-4.6C63.4,189.8,65.3,188,68,187.8z
		 M66.6,193c1.6,0.2,2.6,0,3.1-1.7C67.5,191.5,67.5,191.5,66.6,193z"/>
	<path d="M83.6,175.1c0.2,2.5-0.8,3.6-2.3,4.2c-1.9,0.8-3.8,1-5.4-0.4c-1.3-1.1-1.7-2.7-1.4-4.4c0.1-0.4,0.3-1,0.6-1.1
		c1.6-0.6,3.3-1.3,4.9-1.5c1-0.1,2.1,0.8,3,1.5C83.4,174,83.5,175,83.6,175.1z M79.7,175.8c-0.1-0.2-0.2-0.3-0.2-0.3
		c-0.5,0-1,0-1.5,0.1c-0.1,0-0.2,0.3-0.3,0.5c0.5,0.1,1,0.3,1.5,0.2C79.3,176.3,79.5,175.9,79.7,175.8z"/>
	<path d="M185.5,231.5c-4.5,0.1-7.2-3.4-6-7.2c0.4-1.1,1-2.2,2.5-2.1c0.6,0,1.4,0,1.9-0.3c1.8-1,3.3-0.5,4.7,0.9
		c1.5,1.5,2.2,3.3,1.9,5.2c-0.2,1-1.2,2-2.1,2.6C187.4,231.3,186.1,231.4,185.5,231.5z M187.8,227c0.2-3-2.1-3.5-3.8-2.5
		c-1.1,0.6-2.1,1.5-1.4,3.2C184.6,228.5,187.6,230,187.8,227z"/>
	<path d="M192.6,225.9c0.3-1.9,2.3-3,4.3-3.3c2.4-0.4,4.3,0.7,5.1,3.2c0.8,2.7,0.1,4.8-2.1,5.7c-2.5,1-4.8,0.2-5.9-2.1
		C193.5,228.3,192.3,227.8,192.6,225.9z M199.6,227.2c0.3-1.3-1.8-1.5-2.6-1c-0.4,0.3-0.6,1-0.9,1.5c0.5,0.2,1.1,0.7,1.6,0.6
		C198.2,228.1,199.3,228.5,199.6,227.2z"/>
	<path d="M85.8,215.2c-2.7-0.1-5.4-3.8-4.8-6.5c0.1-0.3,0.2-0.8,0.4-0.8c1.9-0.5,3.9-1.3,5.8-1.1c1,0.1,2.3,1.9,2.7,3.2
		C90.9,213.2,89.1,215.3,85.8,215.2z M83.8,210.7c2.3,1.5,2.3,1.5,3.3-0.8C85.9,210.2,85,210.4,83.8,210.7z"/>
	<path d="M89,190.5c2.2,0,4.1,2.1,4.1,4.5c0,2.2-1.6,3.6-4,3.6c-2.3,0-4.3-2.3-4.2-4.8C84.9,192.1,86.8,190.5,89,190.5z M88,194.4
		c0,0.2,0.1,0.3,0.1,0.5c0.4-0.1,0.9-0.1,1.3-0.2c-0.1-0.2-0.1-0.5-0.2-0.7C88.9,194.2,88.5,194.3,88,194.4z"/>
	<path id="" d="M102.8,203.2c0,0.2,0.2,0.7,0.3,1.2c1.3,4.2,3.5,7.8,7,10.5c2,1.6,4.1,3.1,6.3,4.4c1.9,1.1,4,2,6.1,2.7
		c0.8,0.3,2,0,2.7-0.4c6-3.2,11.9-6.4,17.8-9.8c5.9-3.4,11.6-6.9,17.4-10.4c6.9-4,13.9-8,20.9-12c0.4-0.2,0.7-0.5,1.1-0.7
		c2.5-1.9,3.2-3.7,1.5-6.3c-1.4-2.2-3.3-4.2-5.1-6.1c-1.8-1.8-3.8-3.4-5.7-5.2c-1.2-1.1-7.8-4.6-11.9-2.5c-3,1.6-6.4,2.5-9.5,3.8
		c-1.8,0.7-3.5,1.7-5.2,2.5c-4.1,1.9-8.3,3.5-12.3,5.5c-4,2-8,4.2-11.7,6.7c-6,3.9-11.9,8-17.8,12.1
		C103.5,200.1,102.7,201.3,102.8,203.2z"/>
	<path id="" d="M187.8,191.9c-7.5,4.3-14.5,8.5-21.7,12.2c-8.8,4.5-17.7,8.7-26,14c-3.5,2.2-7.2,4.3-10.8,6.3
		c-1.6,0.9-2.5,2.3-2.5,4.2c0,4.4-0.3,8.6-2.8,12.9c1.6-0.6,2.6-0.8,3.6-1.3c10.7-4.7,21.5-9.2,32.1-14.1
		c7.9-3.7,15.2-8.3,21.6-14.4c1.4-1.4,4.1-4.5,4.4-4.9C188.8,202.7,186.9,196.6,187.8,191.9z"/>
	<path id="" d="M99.6,206.3c-0.4,0.7-0.9,1.3-1,2c-0.9,3.5-1.7,7.1-2.7,10.6c-1.6,5.7-1.7,9.6,4.6,14.8
		c6.2,5.3,8.8,6.7,14.2,8.2c3.9,1,4.2,0.7,5.6-3.2c0.6-1.6,1.3-3.2,1.6-4.9c0.4-2,0.6-4.2,0.8-6C111.8,223.7,104.8,216.2,99.6,206.3
		z"/>
	<path id="" d="M160.9,132.3c-4.1-4-5.6-8.7-7.2-13.6c-1.4-4.4-3.8-8.1-8.2-10.2c-1.8-0.8-3.1-2.3-3.9-4.1
		c-1.2-2.8-2.6-5.7-3.8-8.5c-0.4-0.8-0.9-1.8-1.8-1.2c-0.6,0.4-1,1.5-1.1,2.3c0,0.8,0.5,1.6,0.8,2.4c0.7,1.6,1.3,3.2,2.1,4.7
		c1,2,0.9,3.9-0.1,5.8c-1.6,2.9-2.4,6-2,9.3c0.3,2.5,0.8,5,1.4,7.5c0.4,1.9,1.2,3.7,1.5,5.6c0.3,2.7,0.3,5.5,0.5,8.7
		C147.2,140.7,154.4,138,160.9,132.3z"/>
	<path id="" d="M86.2,100.2c-3.1,6.4-6.1,12.5-9,18.7c-2.8,6.2-6.8,11.7-9.4,17.8c4,2.2,7.5,4.3,11.2,6.4
		c0.7-1.2,1.3-2.3,1.9-3.4c-1.6-1.4-4.2-1.7-4-4.4c2.4-1.3,3.8,1.9,6.1,1.2c0.4-0.8,0.7-1.6,1.2-2.7c-1.1-0.7-2.2-1.1-3-1.9
		c-0.5-0.5-1.1-1.5-0.9-2.1c0.3-1.1,1.4-0.7,2.2-0.3c1.1,0.5,2.1,1,3.2,1.5c0.8-1.4,1.5-2.7,2.2-3.9c-2.9-1.9-6.6-2.7-7.8-6.7
		c0.3-0.2,0.5-0.5,0.8-0.5c3.5,0.1,5.6,3.3,8.9,4.2c0.6-1.1,1.2-2.1,1.8-3.2c-1-0.8-1.9-1.5-2.8-2.3c-0.7-0.6-1.7-1.3-1-2.4
		c0.9-1.2,2-0.3,2.9,0.1c0.9,0.4,1.6,1.2,2.7,2c0.8-1.7,1.4-3,1.8-3.9c-0.9-2.2-4.1-2.2-3.4-5c2.3-0.9,3.6,1.2,5.4,1.7
		c0.6-1.1,1.2-2.1,1.9-3.4c-0.9-0.8-1.6-1.7-2.5-2.2C93.2,103.8,89.8,102.1,86.2,100.2z"/>
</g>
</svg>
