<?xml version="1.0" encoding="utf-8"?>
<!-- Generator: Adobe Illustrator 19.1.0, SVG Export Plug-In . SVG Version: 6.00 Build 0)  -->
<svg version="1.1" id="Calque_1" xmlns="http://www.w3.org/2000/svg" xmlns:xlink="http://www.w3.org/1999/xlink" x="0px" y="0px"
	 viewBox="0 0 289.7 258.6" style="enable-background:new 0 0 289.7 258.6;" xml:space="preserve">
<style type="text/css">
	.st0{fill:#F4A300;}
	.st1{fill:#C0C0C0;}
	.st2{fill:#008A90;}
	.st3{fill:#6DA3C3;}
	.st4{fill:none;stroke:#F8AD3B;stroke-width:3;stroke-miterlimit:10;}
	.st5{fill:#F8AD3B;}
	.st6{fill:none;}
	.st7{fill:#E2F7EF;}
	.st8{fill:#FFFFFF;}
</style>
<g>
	<path id="" class="st0" d="M208.6,223.5c-0.5-2.2,0.6-4.3,1.5-6.4c0.6-1.4,1.5-2,3-2.3c4.1-0.7,4.1-0.7,4.3-4.7c0.2-3.1,1.8-4.6,4.9-4.4
		c4.4,0.3,6.2,2.4,5.9,6.9c0,0.7,0.1,1.5-0.1,2.1c-2.6,5.4-3.1,11.5-6.4,16.6c-1.8,2.8-4.4,3.5-7.3,3.2c-1.1-0.1-2.4-1.1-3.2-2.1
		C209.1,230,208.2,227.1,208.6,223.5z"/>
	<path id="" class="st0" d="M235.1,81.4c-1.7-1.7-4-2.4-6.2-3c-2.9-0.8-5.9-1.6-8.7-2.5c-4.8-1.5-9.6-3.1-14.4-4.8
		c-3.6-1.3-7.2-2.8-8.9-6.8c-1-2.3-2.3-4.5-3.5-6.7c-1.6-3.3-3.9-4.6-7.6-4.2c-0.7,0.1-1.5,0-2.1,0.3c-2,1.1-3.3,0-4.4-1.4
		c-0.9-1-1.7-2-2.4-3.1c-1.3-2-2.5-4.1-3.7-6.2c-1-1.7-2.3-2.6-4.3-2.9c-3.5-0.6-6.1-2-6.9-6.1c-0.3-1.6-2.3-3-3.6-4.4
		c-0.2-0.2-0.8-0.3-1.1-0.1c-2,1.1-4.5,1.7-5,4.4c-0.5,2.3-1.9,3.8-3.8,4.8c-2,1-2.8,2.6-3.2,4.5c-0.2,0.9-0.2,1.8-0.4,2.7
		c-0.7,3.3-3.3,4.6-6.4,3.3c-1.3-0.5-2.6-1-4-1.3c-1.7-0.5-3.2,0-4.4,1.3c-0.7,0.7-1.4,1.5-1.8,2.4c-1,1.9-2.7,2.8-4.6,3.1
		c-3.1,0.6-6.2,0.4-9.3-0.3c-3.4-0.8-6.9-1.6-10.4-2.1c-3.5-0.5-6.7,1.8-7.8,5.3c-0.5,1.6-1.2,3.2-1.6,4.9c-0.6,3.3-2.8,4.8-5.7,4.8
		c-3.7,0.1-7.5-0.1-11.1-0.8c-3.7-0.7-7.3-1.2-11.1-1.1c-3.6,0.1-7.2,0.3-10.8-0.7c-1.3-0.4-2.9-0.7-4.1,0.4
		c0.7,1.2,1.6,2.1,1.9,3.2c0.5,1.6-0.9,2.2-2.1,2.7c2.1,2.5,2,3.1-0.4,4.7c-0.8,0.5-1.7,1.1-2.8,1.8c1.2,1,2,2.1,3.1,2.7
		c4.6,2.4,9.2,4.7,13.8,6.9c0.8,0.4,1.7,0.6,2.6,0.8c7.5,1.9,9.6,5.4,10.3,11.1c0.7,6.3,3.7,10.8,9.5,13.4c1.1,0.5,2.2,1.6,2.6,2.7
		c1.4,3.3,1.8,6.8,1,10.4c-0.4,1.8-0.8,3.6-1.3,5.3c-1,3.5-1,6.7,1.5,9.7c1.6,2,2.5,4.4,2.5,7c0,1,0.2,2.1-1,2.6
		c-1.1,0.5-1.9,0-2.7-0.8c-1.1-1-2.3-1.6-4-1.2c0,0.8-0.1,1.6-0.1,2.4c-0.1,5,0.1,9.9-0.7,14.8c-1.2,6.8-1.8,13.6-2.6,20.5
		c-0.2,1.6,0.1,3.2,0.2,4.8c0.2,3.1,1.9,4.8,4.8,5.9c2.6,1,5,2.6,7.5,3.9c1,0.5,2,1.1,3,1.5c2.8,1.3,5.7,1.2,8.6,0.9
		c4.4-0.5,8.8,0,12.7,2.1c3.8,2.1,7.8,3.6,11.9,5.2c4.6,1.8,8.7,1.2,12.8-0.9c3-1.5,6-3,8.9-4.6c2.6-1.5,5.6-2.3,7.2-5.3
		c0.3-0.6,1.4-1.1,2.1-1c2.1,0.2,3.3-0.7,4.6-2.2c1.9-2.3,5.3-2.3,7.9-0.8c1.7,1,3.7,1.5,5.6,2.1c1.2,0.3,2.4,0.4,3.6,0.5
		c5.3,0.5,10.7,1.2,16,1.5c3.9,0.2,7.8-0.4,11.3-2.1c6.8-3.3,8.4-6.2,6-13c-1-3-2-6-3.4-8.8c-2-4-2.3-8.2-2.4-12.4
		c0-3.4-0.7-6.6-1.9-9.7c-1.1-2.8-1.8-5.8-2.5-8.7c-0.5-1.8-0.8-3.7-1.2-6c-1.1,1.1-1.9,2-2.8,2.8c-0.9,0.8-1.7,1.8-2.7,2.4
		c-1.4,1-2.9,1-3.9,0c-1.1-1.1-1.4-2.2-0.7-3.8c3.2-6.4,7.9-11.6,13.1-16.2c2.7-2.5,5.3-4.9,7.2-8.1c1.5-2.5,2.2-4.8-0.1-7
		c0.1-2,1.1-3,2.9-3.6c2.5-1,5.2-1.9,6.2-4.9c1-3.1,3.2-5.3,5.5-7.5c1.9-1.7,3.6-3.6,5-5.6C237.7,84.9,237.4,83.7,235.1,81.4z
		 M158.3,172.7c-3.1,1.3-6.2,1.8-9.6,1.9c-6.4,0.1-12.7,0.7-19.1,1c-1.9,0.1-3.8-0.3-5.9-0.4c2.6-9.6,5.1-18.7,7.5-27.8
		c7.9,1.2,15.8,2.3,23.8-0.6c0.4,1.1,1,2.1,1.2,3.1c1.3,6.7,2.6,13.5,3.9,20.2C160.3,171.7,159.5,172.2,158.3,172.7z M172.9,128.5
		c-0.5,2.2-1,4.4-2.9,6.9c-1.9,2.5-4.9,4.4-9.9,5.8c-5,1.4-12.9,3.8-21.3,3.3s-17.8-6.5-20.2-10.4c-2.4-3.9-1-7.1,0-9.8
		s3.8-6,7.2-8.5s7.8-1.5,11.2-1.5c12.8,0,26,4,30.5,6S173.4,126.2,172.9,128.5z"/>
	<g>
		<path d="M73.6,0c13.2,1.7,26.5,1.1,39.7,1.1c5.1,0,10.1,0,15.2-0.1c8.9-0.1,17.8-0.6,26.7-0.5c9.6,0.1,19.2,0.6,28.9,0.8
			c9.2,0.1,18.4,0,27.7,0c1.2,0,2.4,0.1,3.6,0.2c1,0,2,0.2,3,0.1c4.3-0.5,4.4-0.5,6,3.2c3.9,9.3,8.6,18.1,13.6,26.8
			c2.6,4.5,4.8,9.1,7.3,13.6c4,7.2,8.2,14.2,12,21.5c5.9,11.2,11.4,22.6,17.2,33.9c4.4,8.6,9.1,17.2,13.7,25.7
			c0.3,0.6,0.7,1.3,1,1.9c0.8,1.8,1,3.5-0.2,5.4c-4.9,8.2-9.9,16.3-14.2,24.7c-7.8,15.1-17.3,29.1-25.7,43.7
			c-2.5,4.4-4.7,9-7.1,13.4c-6.6,12.1-13.5,24-21.4,35.3c-1,1.5-2.1,3-3.1,4.5c-0.6,0.9-1.3,1.3-2.5,1.2c-1.9-0.2-3.8-0.1-5.7-0.1
			c-10.5,0.3-54.9,2-66.5,2.1c-10.2,0.1-20.4-0.4-30.7-0.5c-6.4-0.1-12.8,0-19.2,0c-3.4,0-6.9-0.2-10.3-0.3c-1.1,0-2.3-0.3-3.3,0.1
			c-3.1,1.1-4.8-0.7-6.2-2.8c-3.5-5.3-6.9-10.8-10.2-16.2c-4.8-7.7-9.5-15.5-14.4-23.2c-6.1-9.7-12.6-19.1-18.5-28.9
			c-4.1-6.8-7.5-13.9-11.2-20.9c-2.1-3.8-4.3-7.6-6.3-11.5c-2.9-6-5.6-12.1-8.5-18.2c-0.9-1.8-1.8-3.6-2.9-5.3
			c-1.2-2-1.1-3.7,0.3-5.5c5.9-8.4,43.4-74.1,49.2-84.3c6.7-11.9,13.9-23.6,21-35.2C72.2,4,72.7,2.1,73.6,0z M75.7,3.4
			C73,7.6,70.4,11.6,68,15.7c-6.1,10.5-12.1,21.1-18.3,31.6c-5.8,9.9-35.1,62.8-40.4,70.5c-1.7,2.5-3.3,5.1-5,7.6
			c-1.3,1.9-1.1,3.8-0.1,5.7c0.6,1.1,1.1,2.1,1.7,3.2c2.8,5.9,5.5,12,8.5,17.8c5.1,9.8,10.4,19.5,15.9,29.1
			c4.6,8.1,9.6,16,14.5,23.9c4,6.4,8.4,12.7,12.4,19.1c5.7,9.1,11.2,18.3,16.7,27.5c0.6,1.1,1.4,1.7,2.7,1.6c0.8,0,1.6,0,2.4,0
			c17-0.2,34.1-0.6,51.1-0.6c13.3,0,26.6,0.5,39.8,0.4c13.4-0.1,26.7-0.8,40.1-1.2c1.8-0.1,2.7-1,3.6-2.3
			c4.5-7.3,9.5-14.3,13.6-21.9c5.7-10.7,11.9-21.2,18-31.6c9.1-15.4,18.4-30.8,27.6-46.2c3.2-5.4,6.4-10.8,9.5-16.3
			c0.6-1.1,1.3-2.2,0.4-3.6c-4.9-8.5-9.8-17-14.7-25.5c-2.9-5.1-6-10.1-8.9-15.2c-4.7-8.4-9.2-16.9-13.7-25.3
			c-3.4-6.2-6.9-12.4-10.1-18.7c-2.8-5.6-5.4-11.3-8-17c-3.1-6.7-6.2-13.4-9.1-20.2c-1.1-2.5-2.7-3.9-5.5-3.7c-0.3,0-0.6,0-0.9,0
			c-11.1,0-22.3,0-33.4-0.2c-12.2-0.2-24.3-0.9-36.5-1c-10.3-0.1-20.7,0.6-31,0.6c-10.1,0-20.2,0.7-30.4-0.3
			C79.1,3.2,77.4,3.4,75.7,3.4z"/>
		<path d="M201,140.3c1-1.1,1.9-2.2,2.9-3.3c1.1-1.1,2.3-2.5,4.2-1.8c2,0.7,3.2,2.1,3.5,4.2c0.6,3.8,1.1,7.6,1.9,11.4
			c0.3,1.7,1.2,3.2,1.6,4.9c0.8,3.7,2,7.5,2.1,11.3c0.1,5.1,1.4,9.8,4,14.1c1.7,3,2,6.1,2.2,9.3c0.1,2.8-1.6,4.8-3.9,6.1
			c-4.8,2.6-9.6,5.4-15.2,5.8c-2.7,0.2-5.5,0.3-8.2,0.1c-5.2-0.4-10.5-1.1-15.7-1.8c-1.5-0.2-3-0.6-4.4-1.2
			c-1.8-0.8-3.4-0.4-4.9,0.6c-2.5,1.6-4.6,3.8-7.7,4.8c-1.4,0.4-2.4,2.1-3.7,3c-5.6,3.7-11.9,5.6-18.3,7.3c-2,0.5-4.5,0.3-6.6-0.2
			c-3.4-0.8-6.8-1.9-10.2-3.1c-4.6-1.5-9.1-3.4-13.8-4.7c-2.3-0.6-4.8-0.3-7.2-0.4c-2.2-0.1-4.4-0.3-6.6-0.4
			c-2.9-0.2-5.1-1.6-7.3-3.4c-1.4-1.2-3.2-2.2-4.8-3.2c-4.2-2.5-5.7-6.5-5.5-11c0.4-6.1,1.1-12.1,1.9-18.1c1-7.2,2.2-14.4,1.8-21.8
			c0-0.9,0.1-1.8,0.2-2.7c0-0.4,0.3-0.7,0.6-1.5c2,0.3,4.1,0.5,6.7,0.9c-0.8-1.6-1.3-2.9-2.1-4c-2.6-3.4-2.6-7.1-1.6-11
			c0.7-2.8,1.3-5.5,1.8-8.3c0.6-3.5-0.7-6-4-7.7c-5.8-3-8.8-7.8-9.4-14.3c-0.4-4.8-2.7-7.4-7.4-8.8c-1.7-0.5-3.4-1.3-5-2.1
			c-2.8-1.3-5.7-2.5-8.4-4.1c-2.6-1.5-5.1-3.2-7.4-5.2C45.9,79,45,77.2,45.6,75c1-0.5,2-1,3.2-1.6c-0.4-0.9-0.9-1.7-1.2-2.5
			c-0.2-0.8-0.5-1.9-0.1-2.3c1.1-1.3,1-2.8,1.1-4.3c0.2-1.9,1.4-3.5,3.3-3.8c1.7-0.3,3.5-0.5,5.1-0.1c3.3,0.8,6.7,0.7,10,0.3
			c2.9-0.4,5.7-0.2,8.4,0.4c3.2,0.6,6.3,1.3,9.5,1.9c0.8,0.2,1.6,0.2,2.4,0.2c3.3,0.1,4-0.5,4.9-3.6c0.5-1.5,1.1-3.1,1.5-4.6
			c1.1-4,4-5.8,7.7-7c2.4-0.8,4.8-0.5,7.2,0c3.3,0.7,6.5,1.7,9.7,2.6c1.2,0.3,2.4,0.5,3.5,0.7c1.9,0.3,3.2-0.6,4.3-2.2
			c3.8-5.6,6.6-6.5,12.9-4.2c0.4,0.1,0.7,0.4,1.1,0.5c1.2,0.4,1.9-0.1,2.1-1.4c0.2-1.3,0.6-2.5,0.9-3.8c0.5-2,1.4-3.5,3.5-4.2
			c1.5-0.5,2.5-1.6,2.9-3.3c0.4-1.6,0.9-3.2,2.5-4c2.8-1.4,5.4-3.4,8.8-2.9c2.1,0.3,3.3,2,4.3,3.6c1,1.5,1.2,3.6,2.4,4.8
			c1.1,1.1,3.1,1.3,4.5,2.1c2.6,1.6,5,3.3,6,6.5c0.5,1.6,1.9,2.9,2.7,4.4c1.2,2.3,3,3.1,5.5,2.4c0.8-0.2,1.6-0.3,2.4-0.3
			c4.7,0,7.8,2.3,9.6,6.5c1,2.3,2.3,4.5,3.1,6.9c1.1,3.1,3.5,4.6,6.4,5.6c7.3,2.4,14.7,4.6,22,7.1c3,1,6,2.4,8.8,3.9
			c1.5,0.7,3.2,6.2,2.6,8.1c-0.6,1.8-1.2,3.6-2.9,4.9c-1.1,0.8-2.1,1.9-3.3,2.7c-3.2,2.2-5.2,5.2-6.9,8.7c-1.1,2.1-3.4,3.7-5.2,5.3
			c-0.7,0.6-1.3,1.1-1.3,2.2c-0.3,4.6-3.1,8-5.4,11.6c-2.3,3.7-6.1,5.8-8.9,9.1c-2.1,2.5-4.3,4.8-6.5,7.2c-0.2,0.3-0.3,0.7-0.5,1
			C200.7,140.1,200.9,140.2,201,140.3z M86.1,148.2c0,0.8-0.1,1.6-0.1,2.4c-0.1,5,0.1,9.9-0.7,14.8c-1.2,6.8-1.8,13.6-2.6,20.5
			c-0.2,1.6,0.1,3.2,0.2,4.8c0.2,3.1,1.9,4.8,4.8,5.9c2.6,1,5,2.6,7.5,3.9c1,0.5,2,1.1,3,1.5c2.8,1.3,5.7,1.2,8.6,0.9
			c4.4-0.5,8.8,0,12.7,2.1c3.8,2.1,7.8,3.6,11.9,5.2c4.6,1.8,8.7,1.2,12.8-0.9c3-1.5,6-3,8.9-4.6c2.6-1.5,5.6-2.3,7.2-5.3
			c0.3-0.6,1.4-1.1,2.1-1c2.1,0.2,3.3-0.7,4.6-2.2c1.9-2.3,5.3-2.3,7.9-0.8c1.7,1,3.7,1.5,5.6,2.1c1.2,0.3,2.4,0.4,3.6,0.5
			c5.3,0.5,10.7,1.2,16,1.5c3.9,0.2,7.8-0.4,11.3-2.1c6.8-3.3,8.4-6.2,6-13c-1-3-2-6-3.4-8.8c-2-4-2.3-8.2-2.4-12.4
			c0-3.4-0.7-6.6-1.9-9.7c-1.1-2.8-1.8-5.8-2.5-8.7c-0.5-1.8-0.8-3.7-1.2-6c-1.1,1.1-1.9,2-2.8,2.8c-0.9,0.8-1.7,1.8-2.7,2.4
			c-1.4,1-2.9,1-3.9,0c-1.1-1.1-1.4-2.2-0.7-3.8c3.2-6.4,7.9-11.6,13.1-16.2c2.7-2.5,5.3-4.9,7.2-8.1c1.5-2.5,2.2-4.8-0.1-7
			c0.1-2,1.1-3,2.9-3.6c2.5-1,5.2-1.9,6.2-4.9c1-3.1,3.2-5.3,5.5-7.5c1.9-1.7,3.6-3.6,5-5.6c1.9-2.7,1.6-3.8-0.7-6.1
			c-1.7-1.7-4-2.4-6.2-3c-2.9-0.8-5.9-1.6-8.7-2.5c-4.8-1.5-9.6-3.1-14.4-4.8c-3.6-1.3-7.2-2.8-8.9-6.8c-1-2.3-2.3-4.5-3.5-6.7
			c-1.6-3.3-3.9-4.6-7.6-4.2c-0.7,0.1-1.5,0-2.1,0.3c-2,1.1-3.3,0-4.4-1.4c-0.9-1-1.7-2-2.4-3.1c-1.3-2-2.5-4.1-3.7-6.2
			c-1-1.7-2.3-2.6-4.3-2.9c-3.5-0.6-6.1-2-6.9-6.1c-0.3-1.6-2.3-3-3.6-4.4c-0.2-0.2-0.8-0.3-1.1-0.1c-2,1.1-4.5,1.7-5,4.4
			c-0.5,2.3-1.9,3.8-3.8,4.8c-2,1-2.8,2.6-3.2,4.5c-0.2,0.9-0.2,1.8-0.4,2.7c-0.7,3.3-3.3,4.6-6.4,3.3c-1.3-0.5-2.6-1-4-1.3
			c-1.7-0.5-3.2,0-4.4,1.3c-0.7,0.7-1.4,1.5-1.8,2.4c-1,1.9-2.7,2.8-4.6,3.1c-3.1,0.6-6.2,0.4-9.3-0.3c-3.4-0.8-6.9-1.6-10.4-2.1
			c-3.5-0.5-6.7,1.8-7.8,5.3c-0.5,1.6-1.2,3.2-1.6,4.9c-0.6,3.3-2.8,4.8-5.7,4.8c-3.7,0.1-7.5-0.1-11.1-0.8
			c-3.7-0.7-7.3-1.2-11.1-1.1c-3.6,0.1-7.2,0.3-10.8-0.7c-1.3-0.4-2.9-0.7-4.1,0.4c0.7,1.2,1.6,2.1,1.9,3.2c0.5,1.6-0.9,2.2-2.1,2.7
			c2.1,2.5,2,3.1-0.4,4.7c-0.8,0.5-1.7,1.1-2.8,1.8c1.2,1,2,2.1,3.1,2.7c4.6,2.4,9.2,4.7,13.8,6.9c0.8,0.4,1.7,0.6,2.6,0.8
			c7.5,1.9,9.6,5.4,10.3,11.1c0.7,6.3,3.7,10.8,9.5,13.4c1.1,0.5,2.2,1.6,2.6,2.7c1.4,3.3,1.8,6.8,1,10.4c-0.4,1.8-0.8,3.6-1.3,5.3
			c-1,3.5-1,6.7,1.5,9.7c1.6,2,2.5,4.4,2.5,7c0,1,0.2,2.1-1,2.6c-1.1,0.5-1.9,0-2.7-0.8C89,148.4,87.8,147.8,86.1,148.2z"/>
		<path d="M208.6,223.5c-0.5-2.2,0.6-4.3,1.5-6.4c0.6-1.4,1.5-2,3-2.3c4.1-0.7,4.1-0.7,4.3-4.7c0.2-3.1,1.8-4.6,4.9-4.4
			c4.4,0.3,6.2,2.4,5.9,6.9c0,0.7,0.1,1.5-0.1,2.1c-2.6,5.4-3.1,11.5-6.4,16.6c-1.8,2.8-4.4,3.5-7.3,3.2c-1.1-0.1-2.4-1.1-3.2-2.1
			C209.1,230,208.2,227.1,208.6,223.5z M211.1,224.3c0.2,2.6,1.3,4.8,3,6.8c0.8,0.9,1.8,0.9,2.6,0c0.7-0.8,1.4-1.8,1.7-2.8
			c1.7-4.9,3.4-9.8,4.9-14.7c0.3-0.8,0.3-1.9,0.1-2.7c-0.2-0.6-0.9-1.3-1.5-1.5c-1-0.3-1.7,0.4-1.8,1.5c-0.1,0.4-0.1,0.8-0.1,1.2
			c-0.3,4.1-1.1,5.1-5.1,5.8c-2.1,0.4-3,1.5-3.4,3.3C211.3,222.2,211.2,223.3,211.1,224.3z"/>
		<g>
			<path d="M149,86c1.7-1.1,3.5-2.3,5.3-3.4c3.3-2.1,4.2-4.1,3.6-7.9c-0.2-0.9-0.5-1.7-0.8-2.6c-0.6-1.9-1.6-3.3-3.7-3.4
				c-2.3-0.2-4.7,1.1-5.3,3.3c-0.5,1.6-0.3,3.4-0.3,5c0,1.3,0.3,2.6,0.4,3.9c0.2,1.6-0.8,2.3-2.1,2.3c-1.7,0.1-3.4,0-5.2-0.1
				c-1.2-0.1-2-0.8-2.4-2c-1.1-3.2-1.4-6.5-1.2-9.8c0.3-6.6,4.3-11.3,11.1-13c2.9-0.7,5.8-1.9,8.9-0.7c2.9,1.1,5.9,2.2,7.8,5
				c1.2,1.7,2.7,3.3,3.6,5.2c2.1,4.5,1.4,9,0.1,13.6c-1.3,4.5-4,7.6-8.2,9.6c-1.3,0.6-2,1.6-2.2,3c-0.6,3.2-0.6,3.1-4,3.2
				c-0.6,0-1.2,0.1-1.8,0.2c-1.9,0.1-3-0.5-3.5-2.5c-0.3-1.1-0.4-2.4-0.4-3.6C148.6,89.6,148.8,88,149,86z"/>
			<path d="M151.4,100.5c4.4-0.3,5.7,2.9,6,5.7c0.1,1.5-0.5,2.7-2.1,3.3c-2.1,0.8-4.2,0.7-6.2-0.3c-2.2-1.1-3.2-3.4-2.6-5.6
				C147.2,101.5,148.9,100.4,151.4,100.5z"/>
		</g>
		<g>
			<path d="M146.2,177.5c-3,0.3-5.9,0.6-9.2,1c0.4,1.8,0.8,3.3,1.2,4.8c1,3.6,0.1,4.9-3.6,5.2c-0.9,0.1-1.8,0.4-2.7,0.5
				c-1.2,0.2-2.4,0.3-3.6,0.4c-1.4,0.1-2.4-0.6-2.7-1.9c-0.4-1.5,0.9-2.2,1.9-2.7c1.3-0.5,2.7-0.8,4.1-1.1c1-0.2,2-0.3,3.4-0.6
				c-0.3-1.5-0.5-2.8-0.8-4.4c-1.8,0-3.4,0.1-5,0c-1.9-0.1-3.8-0.2-5.7-0.5c-3.2-0.6-3.8-1.7-2.6-4.9c0.6-1.7,1.2-3.4,1.8-5.2
				c0.2-0.7,0.3-1.5,0.4-2.5c-1.1-0.2-2-0.3-2.8-0.5c-1.4-0.4-2.3-1.3-2.2-2.8c0.1-1.5,1.2-2.1,2.4-2.4c1.1-0.3,2.4-0.2,3.8-0.3
				c0.3-0.9,0.6-1.9,0.9-2.8c0.6-2.1,1.3-4.2,1.8-6.4c0.5-2.2,0.9-4.4,1.3-6.5c0.2-1.3-0.7-1.8-1.7-2.2c-2.4-0.9-4.4-2.5-6.2-4.3
				c-4.2-4.1-5.3-9.2-2.4-14.6c4.2-7.7,10.9-10.7,18.3-9.5c1.1,0.2,2.2,0.3,2.3,2.2c-1.2,0-2.3,0-3.3,0c-7.5-0.3-12.4,3.8-15.7,10
				c-1.9,3.6-1.5,6.6,1.9,9.9c4,3.9,9,5.9,14.4,6.7c5.4,0.8,10.9,1.2,16.3,0.1c5-1,10.1-2.1,14.7-4.7c3.5-2,4.9-5.1,5.4-8.7
				c0.3-2.6-1.4-4.7-3.5-6c-2.1-1.3-4.6-2.1-6.9-3c-1-0.4-2.3-0.4-2-2.4c1.2,0.1,2.5,0.1,3.7,0.4c3.7,1,6.7,2.9,9,6.2
				c3,4.6,0.6,13-5.4,15.2c-2.9,1.1-5.7,2.4-8.9,3.8c1,4.8,1.9,9.9,3.7,15c1.3-0.2,2.2-0.5,3.2-0.6c1.9-0.2,3.3,1,3.6,2.9
				c0.2,1.6-0.6,2.8-2.4,3.3c-1.3,0.3-2.7,0.5-4.5,0.8c0.5,2.3,1,4.4,1.3,6.4c0.2,1.2,0.5,3.1,0,3.4c-1.6,1.1-2.4,3.5-5,3.2
				c-1.7-0.2-3.4,0-5.2,0.1c-1,0-2,0-3.2,0c0.4,2,0.7,3.5,1.1,5.3c1.5,0,3,0,4.5,0c1.4,0.1,2.8,0.1,4.2,0.4c1.2,0.2,2,1.1,2,2.4
				c0,1.3-1,1.7-2,1.9c-2.7,0.5-5.4,1.1-8.1,1.3c-2.4,0.2-4.4-2.3-3.8-4.6C148,181.8,147.6,179.7,146.2,177.5z M123.6,175.2
				c2.2,0.2,4,0.5,5.9,0.4c6.4-0.3,12.7-0.9,19.1-1c3.4-0.1,6.5-0.6,9.6-1.9c1.3-0.5,2.1-1.1,1.8-2.6c-1.3-6.7-2.5-13.5-3.9-20.2
				c-0.2-1-0.7-2-1.2-3.1c-8,2.9-15.8,1.8-23.8,0.6C128.7,156.6,126.2,165.6,123.6,175.2z"/>
			<path d="M151.3,129.3c1.2,0.1,2.6,1.8,2.4,3c-0.1,1-1.3,1.9-2.4,1.8c-1.2-0.1-2.2-1.2-2.2-2.4
				C149.2,130.4,150.2,129.2,151.3,129.3z"/>
			<path d="M140.6,130.2c0,1.2-0.9,2.3-1.9,2.2c-1.4-0.1-1.7-1.3-1.8-2.3c-0.1-1.1,0.4-2,1.6-2.1
				C139.6,127.8,140.6,128.9,140.6,130.2z"/>
			<path d="M151.2,165.2c-2.4,0.6-4.3,0.9-6,1.5c-3,1.1-5.1-0.6-7.1-2.1c-1.5-1.1-1.1-3.2,0.5-4.2c1.2-0.8,2.3-1.6,3.6-2.2
				c0.8-0.4,2.1-0.8,2.7-0.4c2.2,1.4,4.5,2.7,5.8,5.1C150.9,163.6,151,164.4,151.2,165.2z M141.3,162.6c3,2.3,3,2.3,4.8,0.2
				C143.9,161,143.9,161,141.3,162.6z"/>
		</g>
	</g>
</g>
</svg>
