<?xml version="1.0" encoding="utf-8"?>
<!-- Generator: Adobe Illustrator 15.0.2, SVG Export Plug-In . SVG Version: 6.00 Build 0)  -->
<!DOCTYPE svg PUBLIC "-//W3C//DTD SVG 1.1//EN" "http://www.w3.org/Graphics/SVG/1.1/DTD/svg11.dtd">
<svg version="1.1" id="Layer_1" xmlns="http://www.w3.org/2000/svg" xmlns:xlink="http://www.w3.org/1999/xlink" x="0px" y="0px"
	 viewBox="0 0 250 247.322" enable-background="new 0 0 250 247.322" xml:space="preserve">
<path fill-rule="evenodd" clip-rule="evenodd" d="M194.368,247.322c-6.764,0-13.528,0-20.293,0c-2.739-1.399-6.26-1.941-9.867-2.606
	c-3.744-0.691-7.714-0.01-11.915-0.373c-1.625-0.14-3.256-0.965-4.841-1.117c-2.982-0.286-6.22,0-9.495,0
	c-3.246,0-6.793-0.376-9.682,0c-1.646,0.215-2.369,0.969-4.096,1.117c-4.254,0.368-8.732-0.482-13.218,0
	c-1.237,0.134-2.479,0.8-3.724,0.932c-3.462,0.365-7.457,0.356-10.984,0c-1.339-0.136-2.679-0.798-4.096-0.932
	c-2.568-0.241-5.479,0.203-8.378,0c-1.829-0.128-3.619-0.967-5.399-1.117c-9.527-0.805-20.48,0-30.905,0c-5.11,0-10.408,0-15.453,0
	c-5.413,0-11.092-0.709-15.639,0c-1.246,0.195-2.068,0.96-3.352,1.117c-4.429,0.544-9.393,0.206-13.032-0.931
	c2.305-8.961,2.234-19.576,2.234-29.975c0-5.095-0.095-10.161-0.559-15.452c-0.458-5.233,0.551-10.597-0.373-15.453
	c-0.459-2.413-1.069-4.477-1.117-6.889c-0.158-7.997,0.541-15.438,1.676-22.527c1.617-10.099,1.945-19.346,0-29.229
	c-0.941-4.784-0.373-10.373-0.373-15.639c0-5.337-0.184-10.796-0.372-15.825C0.716,81.703,1.508,70.72,1.489,60.586
	C1.48,55.684,1.428,50.811,2.42,45.878c1.012-5.033,1.117-9.825,1.117-15.081c0-10.436,0.116-20.942-1.303-30.719
	c0.461,1.224,1.258-0.448,2.979,0c1.334,0.348,0.015,0.695,0,0.559C5.446,2.771,9.66,1.94,13.032,1.94c2.384,0,4.999,0.035,6.889,0
	c4.363-0.079,8.273,1.366,12.66,0.931c1.892-0.188,3.973-1.067,6.516-1.117c1.309-0.026,2.413,0.03,3.538-0.186
	c1.199-0.23,2.144-0.655,3.165-0.745c7.997-0.701,17.283,0,26.065,0c8.983,0,18.185-0.769,26.065,0
	c2.105,0.205,4.492,0.931,7.261,0.931c2.836,0,5.877-0.296,8.378,0c1.592,0.189,3.08,0.979,4.84,1.117
	c6.549,0.512,14.002-0.675,21.038,0c2.58,0.248,4.828,0.931,7.447,0.931c5.515,0,11.511-0.028,16.756,0
	c4.52,0.024,9.918,1.962,15.08,1.117c1.353-0.222,2.21-0.989,3.537-1.117c3.564-0.343,7.093,0.341,10.984,0
	c1.189-0.104,2.072-0.741,3.165-0.931c3.97-0.69,8.554,0,12.475,0c5.65,0,11.724,0.787,16.569,0c1.465-0.238,2.2-0.999,3.724-1.117
	c1.676-0.13,3.81-0.335,4.282-0.186c0.694,0.219,0.659,0.14,1.303,0.186c4.89,0.348,8.481,0.452,12.847,1.489
	c-1.803,4.97,0.396,9.973-0.187,15.081c-0.145,1.269-0.801,2.441-0.931,3.724c-0.465,4.577,0.187,9.655,0.187,14.708
	c0,10.376,0,20.633,0,30.905c0,5.174-0.661,10.683,0,15.453c0.195,1.41,1.026,2.662,1.116,4.096c0.218,3.441-0.354,6.928,0,10.612
	c0.138,1.432,0.812,2.806,0.932,4.282c0.462,5.764,0,12.246,0,18.432c0,6.456,0.413,12.928,0,18.431
	c-0.104,1.384-0.925,2.442-1.117,3.724c-0.306,2.035,0.39,4.265,0.186,6.33c-0.152,1.542-0.975,3.078-1.116,4.654
	c-0.173,1.915,0.239,3.893,0,5.771c-0.17,1.329-1.02,2.574-1.117,3.91c-0.264,3.587,0.515,7.494,0,11.356
	c-0.15,1.125-0.8,2.175-0.932,3.352c-0.352,3.156,0,7.089,0,10.612c0,3.905-0.391,7.905,0,10.798
	c0.138,1.014,0.721,2.034,0.932,3.165c0.232,1.251-0.025,2.62,0.186,3.909c0.178,1.087,0.815,2.031,0.932,3.165
	c0.204,1.998-0.258,4.17,0,6.145c0.169,1.298,0.98,2.604,1.116,3.909c0.186,1.781-0.199,3.598,0,5.399
	c0.159,1.433,0.848,2.866,0.932,4.282c0.192,3.281-0.438,6.582,0,9.681c0.207,1.47,2.188,4.632,0.744,6.33
	c-0.802,0.943-1.75,0.248-3.165,0c-1.782,0.889-3.957,0.537-5.957,0.559c-2.017,0.021-4.026,0.375-5.958,0.187
	c-1.681-0.164-3.254-0.968-4.841-1.117c-2.107-0.198-4.19,0.341-6.33,0.187c-2.63-0.19-4.894-1.505-8.005-1.117
	c-1.183,0.146-1.99,0.933-3.352,1.117c-1.365,0.185-2.996-0.22-4.654,0c-1.227,0.162-2.473,0.828-3.724,0.931
	C200.157,246.478,196.156,245.785,194.368,247.322z M236.631,3.616c-0.824,0.062-1.841,0.448-2.793,0.559
	c-1.072,0.125-2.219-0.177-3.165,0c-1.109,0.208-1.992,0.983-3.165,1.117c-9.065,1.033-19.527-1.215-28.299,0
	c-1.074,0.148-2.072,0.797-3.165,0.931c-3.964,0.486-8.013-0.617-11.729,0c-0.978,0.162-1.978,0.959-2.979,1.117
	c-2.701,0.426-7.483,0.353-10.798,0c-1.536-0.164-3.084-0.975-4.654-1.117c-7.001-0.633-14.378,0.675-21.41,0
	c-1.301-0.125-2.467-0.776-3.724-0.931c-7.401-0.908-14.925,0.788-21.969,0c-1.393-0.156-2.762-0.955-4.096-1.117
	c-3.487-0.423-7.763,0.407-11.543,0c-1.282-0.138-2.567-0.802-3.91-0.931c-7.623-0.731-17.15,0-26.065,0c-4.291,0-8.699,0-13.032,0
	c-4.465,0-9.316-0.617-13.033,0c-0.165,0.027-0.373,0.1-0.558,0.187c-2.565,1.199-5.116,0.405-7.82,0.745
	c-1.202,0.151-2.478,0.96-3.723,1.117c-4.293,0.539-7.281-0.789-10.24-1.117C18.487,3.478,12.05,4.857,6.144,3.989
	c0.703,11.162,1.293,22.871,1.117,34.442c-0.055,3.638-1.293,6.917-1.675,10.426C4.419,59.556,5.027,71.445,5.027,82.741
	c0,11.375,0.335,22.086,0.373,32.022c0.009,2.462-0.338,4.999,0,7.447c0.333,2.417,1.077,4.718,1.303,7.26
	c0.491,5.528,0.661,10.83,0.186,16.384c-0.867,10.134-3.739,21.034-2.793,31.464c0.225,2.479,1.052,4.819,1.304,7.261
	c0.284,2.76,0.186,5.586,0.186,8.564c0,5.351,0.789,10.744,0.745,16.197c-0.088,10.919-0.154,21.923-1.676,32.581
	c2.084-0.289,4.035,0.322,5.958,0c1.26-0.212,2.078-0.97,3.165-1.117c4.603-0.623,10.349,0,16.011,0c10.576,0,21.504,0,32.022,0
	c5.612,0,11.258-0.587,16.011,0c1.512,0.187,2.995,0.975,4.468,1.117c3.054,0.296,6.326-0.321,9.123,0
	c1.24,0.143,2.51,0.803,3.724,0.931c3.192,0.338,6.998,0.405,10.054,0c1.11-0.146,2.238-0.805,3.351-0.931
	c4.787-0.541,9.537,0.743,14.149,0c1.215-0.195,2.32-0.986,3.537-1.117c3.177-0.342,6.811,0,10.24,0c3.478,0,7.153-0.365,10.239,0
	c1.505,0.179,2.918,0.962,4.469,1.117c3.185,0.318,6.473-0.331,9.681,0c4.758,0.491,9.36,2.545,13.591,2.979
	c2.479,0.254,5.509,0,8.564,0c2.782,0,5.987,0.435,8.564,0.187c1.46-0.141,2.78-1.003,4.282-1.117c1.993-0.152,4.121,0.229,5.957,0
	c1.116-0.139,2.095-0.782,3.165-0.931c1.653-0.229,3.271,0.261,4.841,0c1.058-0.176,2.096-0.973,3.165-1.117
	c3.897-0.528,6.576,0.843,9.495,1.117c2.279,0.214,4.719-0.211,6.702,0c1.35,0.144,2.626,0.857,3.909,0.931
	c2.447,0.141,4.865-0.324,7.262-0.931c-0.002,0.431-1.442,0.995-0.559,1.117c2.074-0.027,3.983,0.112,5.585,0.559
	c0.265-1.953-0.882-3.548-1.117-5.399c-0.427-3.363,0.438-6.899,0-10.426c-0.214-1.722-0.988-2.744-1.117-4.282
	c-0.145-1.731,0.238-3.427,0-5.213c-0.146-1.094-0.804-2.235-0.931-3.352c-0.24-2.109,0.353-4.391,0-6.516
	c-0.18-1.08-0.958-1.995-1.117-3.165c-0.156-1.157,0.193-2.459,0-3.724c-0.153-1.002-0.802-1.925-0.931-2.979
	c-0.402-3.276,0-7.323,0-11.171c0-3.815-0.525-8.005,0-11.171c0.156-0.943,0.793-1.837,0.931-2.793
	c0.574-3.994-0.629-8.007,0-11.915c0.174-1.078,0.975-2.207,1.117-3.351c0.258-2.073-0.257-4.237,0-6.33
	c0.149-1.214,0.805-2.349,0.931-3.538c0.252-2.358-0.34-4.683,0-6.888c0.169-1.094,0.95-2.068,1.117-3.165
	c0.834-5.467,0-12.429,0-18.804c0-6.302,0.787-13.272,0-18.99c-0.192-1.401-0.975-2.759-1.117-4.282
	c-0.322-3.464,0.603-7.2,0.187-10.612c-0.14-1.147-0.971-2.275-1.117-3.351c-0.65-4.773,0-10.321,0-15.453
	c0-10.62,0-20.594,0-30.905c0-5.147-0.487-10.637,0.187-15.453c0.169-1.208,0.973-2.382,1.117-3.724
	c0.461-4.283-1.292-9.042,0-13.405C241.07,4.538,239.088,3.43,236.631,3.616z"/>
<path fill-rule="evenodd" clip-rule="evenodd" d="M93.088,74.922c-0.76,0.132-1.154-0.367-1.489,0.745
	c2.291,0.25,4.274,1.546,6.144,1.862c1.083,0.183,1.902-0.577,3.165,0.559c0.5,0.449,2.374,3.505,2.793,4.282
	c1.601,2.969,3.402,7.327,3.91,10.426c0.113,0.692-0.141,1.571,0,2.234c0.189,0.893,0.958,1.51,1.117,2.234
	c0.175,0.793-0.127,1.616,0,2.42c0.146,0.919,0.853,1.443,1.117,2.234c0.589,1.763,0.433,3.49,1.117,4.841
	c0.5-0.868,0.796-2.75,0.931-3.91c4.329-1.829,3.566-9.208,5.213-14.149c0.353-1.058,0.959-2.121,1.303-3.165
	c1.054-3.196,1.406-4.737,3.537-7.261c1.455-1.722,4.229-3.638,4.469-5.399c0.119-0.876-0.415-1.397-0.559-2.234
	c-0.108-0.631,0.309-1.538,0.187-1.862c-0.455-1.201-2.168-2.292-2.421-4.096c-0.8-5.703-0.302-15.126,1.304-19.921
	c2.148,0.411,2.971-0.504,3.724-1.489c4.302-1.135,6.202,1.57,10.239,1.303c1.311,1.337,2.562,2.076,2.979,3.724
	c0.557,2.196-0.797,4.366-0.931,6.516c-0.079,1.28,0.87,4.002,0.745,6.516c-0.089,1.777-0.301,3.562-0.745,5.027
	c-0.401,1.325-1.534,2.469-1.676,3.91c-0.124,1.275,0.542,4.084,1.117,5.771c0.572,1.676,1.898,2.806,2.606,4.096
	c1.14,2.073,2.054,4.838,3.165,7.447c0.473,1.109,0.937,2.34,1.304,3.537c0.966,3.147,2.401,6.592,3.351,11.171
	c0.191,0.919,0.522,1.865,0.745,2.792c1.745,7.259,3.858,15.282,4.841,23.272c0.461,3.75,0.885,8.274,0.372,11.543
	c-1.377,0.236-1.861,1.365-2.793,2.048c-0.928-0.515-1.284-1.48-2.233-0.559c-1.302-0.933-3.181-1.288-5.027-1.676
	c-0.373,1.289,0.817,1.938,1.304,2.979c2.184,4.673,2.291,11.869,4.841,16.197c1.761,9.27,5.354,17.218,6.702,27.555
	c0.256,1.961-0.328,4.205,0,6.33c0.219,1.421,1.502,7.555,0.186,9.867c-0.926,1.627-4.296,2.635-6.144,3.909
	c-0.958-0.271-1.123-1.052-2.42-0.558c-0.797-1.084-4.144-0.976-5.771-2.234c-0.195-2.178,0.732-7.235,0.186-10.984
	c-0.13-0.892-0.69-1.651-0.744-2.421c-0.083-1.186,0.312-2.753,0.186-3.724c-0.221-1.696-1.229-3.86-1.861-5.957
	c-0.648-2.152-0.871-4.523-1.489-6.517c-0.242-0.779-0.847-1.479-1.117-2.234c-1.168-3.258-1.167-6.319-2.793-9.122
	c-1.666,6.543-2.306,15.39-3.165,23.271c-0.187,1.715-0.927,3.371-1.117,5.027c-0.55,4.798-0.242,9.107-1.861,12.846
	c-2.258,1.151-2.568,2.812-6.33,1.676c-0.609-0.184-1.425-0.856-2.234-1.117c-3.997-1.287-5.596-1.659-5.026-7.446
	c0.254-2.587,1.46-5.404,2.048-8.378c0.915-4.632,1.036-9.492,1.676-14.895c0.253-2.14,1.003-3.96,1.117-5.771
	c0.114-1.809-0.261-2.968,0-4.841c0.488-3.515-0.095-6.433,0.931-9.681c0.315-1.001,1.337-2.403,1.489-3.352
	c0.681-4.24,0.102-10.373-0.372-13.777c-0.358-2.569,0.217-4.746,0.559-7.261c0.506-3.719,0.247-7.403,0.559-10.984
	c0.202-2.334,0.695-6.208,0.931-9.495c-0.555-0.376-1.785-0.076-2.234-0.558c-2.942,6.584-2.651,15.252-4.096,23.272
	c-1.368,0.369-1.836,1.64-2.979,2.234c-0.713-0.91-1.151-0.909-2.42-0.559c-0.566-0.923-2.146-0.833-3.165-1.304
	c-1.452,1.295-2.672,3.881-4.841,4.096c-0.861,0.086-0.797-0.364-1.489-0.559c-0.46-0.129-1.021,0.099-1.49,0
	c-1.241-0.259-2.231-1.338-3.537-1.303c-0.285-2.261-0.43-5.65-1.303-6.702c0.414-6.91-1.691-18.812-5.399-25.693
	c0.141,14.268-0.142,24.297,0.931,38.539c0.104,1.386,0.913,2.911,1.117,4.469c0.259,1.976-0.218,4.667,0,6.889
	c0.248,2.529,1.295,5.008,1.675,7.633c1.737,11.996,6.072,24.31,7.447,35.56c0.136,1.117,0.207,4.852-0.559,6.33
	c-0.798,1.542-5.493,4.306-6.889,4.469c-2.511,0.292-4.25-1.309-6.33-1.676c-2.047-4.469-1.872-11.16-4.654-14.895
	c0.25-3.332-0.731-6.611-1.117-9.309c-0.23-1.609,0.139-3.222,0-4.841c-0.07-0.822-0.444-1.58-0.558-2.42
	c-0.273-2.008,0.273-4.105,0-5.771c-0.828-5.048-1.029-9.955-1.49-13.964c-0.89,1.452-0.6,3.036-0.931,4.655
	c-0.296,1.449-1.148,2.688-1.49,4.096c-0.505,2.085-0.594,4.417-1.117,6.702c-0.477,2.085-0.901,4.254-1.303,6.33
	c-0.837,4.316-2.271,8.597-2.793,12.66c-0.633,4.925-0.499,9.957-2.979,14.149c-1.172,0.441-1.929,1.298-2.793,2.048
	c-1.909-0.295-2.758,0.469-3.351,1.489c-1.905-1.269-3.844-1.198-6.889-2.048c-1.048-1.559-3.417-1.796-4.654-3.165
	c0.261-4.133,2.08-6.271,2.42-10.426c0.078-0.953-0.134-2.04,0-3.165c0.566-4.76,2.814-10.12,4.468-15.639
	c1.603-5.347,2.274-11.268,4.096-16.012c0.735-1.914,1.535-3.562,1.862-5.585c0.476-2.945,1.208-5.858,1.676-9.309
	c0.397-2.932,0.167-5.902,0.559-8.564c0.062-0.427,0.656-1.261,0.745-1.862c0.202-1.37-0.23-2.695,0-4.096
	c0.656-3.984,1.689-7.946,1.117-14.335c-0.382-4.263-1.656-8.31-2.234-12.474c-2.583,4.252-4.305,10.528-6.33,15.639
	c-2.738,6.911-1.673,16.311-5.585,22.713c-1.064,0.551-1.756,1.472-2.793,2.048c-1.796-0.675-2.806-0.525-4.654-1.489
	c-0.161-3.877-2.773-5.933-2.792-10.239c-0.012-2.614,0.475-3.856,0.931-6.517c1.102-6.428,2.035-13.473,3.351-19.921
	c0.572-2.8,0.735-5.948,1.49-8.378c1.565-5.04,7.227-7.776,9.681-11.543c1.492-0.167,2.134-1.388,3.723-1.675
	c1.089-0.197,2.234,0.312,3.352,0.186c1.71-0.194,3.298-1.697,5.026-0.745c0.771-0.471,0.835-1.647,1.117-2.606
	c-0.526-0.383-1.882-0.447-2.606-1.117c-0.857-3.311-1.197-4.979-1.117-7.633c0.038-1.25-0.059-3.08,0.187-4.654
	c0.936-6.01,5.054-11.278,6.33-17.314c1.493-0.507,1.342-1.793,2.606-2.234c2.323-0.809,4.44,1.827,7.075,1.117
	c3.07,2.517,5.065,6.736,5.958,12.288c0.452,2.812-0.166,5.999,0.186,8.75c0.232,1.817,1.085,3.772,0.559,5.585
	C95.204,71.957,92.154,72.407,93.088,74.922z M145.218,135.243c-2.565-6.354-2.62-17.583-5.213-24.389
	c0.041,2.561-0.033,3.957-0.372,5.958c0.57,0.468,0.979-0.621,1.489,0.186C141.793,123.523,142.021,131.467,145.218,135.243z"/>
<path fill-rule="evenodd" clip-rule="evenodd" d="M185.99,44.575c2.883,5.215,7.334,8.271,6.33,17.314
	c-0.133,1.195-0.624,2.008-0.931,3.351c-0.952,0.537-1.657,1.321-2.234,2.234c0.37,1.294,0.766,4.515-0.372,4.655
	c5.383,1.444,11.007,2.646,16.197,4.282c1.994,2.537,2.667,6.394,4.282,9.309c1.525,7.072,3.972,17.233,5.213,25.878
	c0.424,2.952,1.161,6.122,0.372,9.681c-0.473,2.134-1.368,4.678-2.233,7.075c-0.313,0.867-0.828,1.606-1.117,2.42
	c-0.579,1.627-0.635,2.937-1.862,3.909c-0.644-0.57-0.876,0.286-1.303-0.744c-2.714,1.287-5.962-0.068-6.33-2.793
	c-1.361,0.121-1.939-0.543-2.793-0.931c-0.484-1.718,1.277-2.635,1.862-4.096c0.549-1.373-0.242-3.87-0.559-6.144
	c-0.113-0.809,0.239-1.661,0.186-2.234c-0.102-1.085-0.61-1.894-0.744-2.793c-0.41-2.757,0.312-4.521-0.373-8.191
	c-0.174-0.931,0.155-2.079,0-2.793c-0.528-2.444-1.778-4.99-2.233-7.633c-0.368-2.135-0.317-4.157-1.489-5.958
	c-0.785,1.531-0.605,3.13-0.373,4.841c0.575,4.22-0.147,8.546,0.559,13.032c0.559,3.552,1.233,8.149,1.676,11.729
	c0.448,3.626-0.023,7.454,0.372,11.17c0.073,0.684,0.462,1.332,0.559,2.048c0.337,2.489,0.169,5.217,0.559,7.634
	c0.113,0.702,0.679,1.339,0.931,2.234c0.439,1.56,0.519,3.566,0.932,5.026c0.353,1.251,1.179,2.859,1.861,4.282
	c0.487,1.015,1.474,1.854,1.861,2.979c0.336,0.974,0.252,2.023,0.559,2.979c0.272,0.846,0.977,1.524,1.304,2.421
	c0.617,1.695,1.196,4.101,1.676,6.144c0.508,2.163,1.416,4.353,1.675,6.144c0.188,1.298-0.126,2.364,0,3.91
	c0.425,5.168,1.135,11.3,0.559,16.197c-0.604,5.142-3.699,8.717-8.005,10.984c-1.002-0.551-1.633-0.74-2.421-0.372
	c-1.169-1.438-4.26-0.953-5.585-2.234c-0.984-5.215,0.853-13.668-0.187-22.155c-0.073-0.602-0.475-1.2-0.559-1.861
	c-0.444-3.521,0.31-7.876-0.744-10.799c-3.641,5.05-4.958,12.868-5.958,20.666c-0.684,5.333-3.134,8.87-5.771,12.66
	c0.06,0.866-0.371,1.242-0.372,2.048c-1.587-0.098-1.625,1.354-2.793,1.676c-1.222-0.466-1.044-0.777-2.606-0.373
	c-0.638-1.351-4.238-1.007-5.585-2.233c0.518-1.371-0.049-3.357,0.186-5.213c0.199-1.569,0.916-3.013,1.117-4.469
	c0.134-0.966-0.28-1.992-0.186-2.792c0.107-0.915,0.662-1.709,0.744-2.607c0.08-0.873-0.305-1.863-0.186-2.792
	c0.099-0.769,0.591-1.448,0.744-2.234c0.894-4.585,1.345-9.969,2.793-15.452c0.194-0.737,0.754-1.461,0.931-2.234
	c0.16-0.7,0.01-1.511,0.187-2.234c0.211-0.863,0.849-1.547,1.117-2.42c0.373-1.219,0.42-2.618,0.744-3.91
	c0.325-1.294,0.975-2.492,1.304-3.724c0.224-0.838,0.053-1.867,0.372-2.792c0.813-2.354,2.578-4.027,1.861-7.075
	c0.879-1.198,0.559-2.904,1.304-3.909c-0.087-3.084,0.523-6.85,1.117-9.868c-0.242-0.812-1.464-0.646-1.676-1.489
	c0.327-8.022-0.636-14.755-2.793-20.293c-0.549,2.476-0.16,6.225-0.186,9.681c-0.022,2.961,0.158,7.461-0.931,13.033
	c-4.439,0.607-1.445,10.166-8.751,8.75c-2.503-0.485-3.543-3.037-3.351-6.144c0.214-3.461-0.342-7.224,0-11.171
	c0.219-2.538,0.956-5.175,1.116-8.006c0.158-2.771,0.114-5.593,0.187-8.378c0.063-2.441,0.37-4.806,0.559-7.075
	c0.502-6.022-0.188-9.835,0.559-14.708c0.241-1.574,1.978-3.349,3.352-4.654c1.083-1.03,2.942-1.604,3.537-2.606
	c0.654-1.104-0.793-5.268,1.861-5.958c-2.382-2.814-4.316-6.292-4.468-10.426c-0.099-2.676-0.489-5.717,0-7.82
	c0.258-1.109,1.378-1.656,2.048-2.792c0.722-1.227,1.575-3.727,3.352-4.096C181.157,42.729,182.851,45.479,185.99,44.575z"/>
<path fill-rule="evenodd" clip-rule="evenodd" id="" fill="#E3BA6B" d="M141.122,116.998c-0.51-0.807-0.919,0.282-1.489-0.186
	c0.339-2.001,0.413-3.396,0.372-5.958c2.593,6.805,2.647,18.034,5.213,24.389C142.021,131.467,141.793,123.523,141.122,116.998z"/>
<path fill-rule="evenodd" clip-rule="evenodd" id="" fill="#E3BA6B" d="M243.52,4.361c-1.292,4.363,0.461,9.122,0,13.405
	c-0.145,1.341-0.948,2.516-1.117,3.724c-0.674,4.815-0.187,10.306-0.187,15.453c0,10.311,0,20.286,0,30.905
	c0,5.132-0.65,10.679,0,15.453c0.146,1.076,0.978,2.204,1.117,3.351c0.416,3.413-0.509,7.148-0.187,10.612
	c0.143,1.523,0.925,2.88,1.117,4.282c0.787,5.718,0,12.688,0,18.99c0,6.375,0.834,13.337,0,18.804
	c-0.167,1.097-0.948,2.071-1.117,3.165c-0.34,2.205,0.252,4.529,0,6.888c-0.126,1.189-0.781,2.324-0.931,3.538
	c-0.257,2.093,0.258,4.257,0,6.33c-0.143,1.144-0.943,2.272-1.117,3.351c-0.629,3.908,0.574,7.921,0,11.915
	c-0.138,0.956-0.774,1.85-0.931,2.793c-0.525,3.166,0,7.355,0,11.171c0,3.848-0.402,7.895,0,11.171
	c0.129,1.054,0.777,1.977,0.931,2.979c0.193,1.265-0.156,2.566,0,3.724c0.159,1.17,0.938,2.085,1.117,3.165
	c0.353,2.125-0.24,4.406,0,6.516c0.127,1.116,0.785,2.258,0.931,3.352c0.238,1.786-0.145,3.481,0,5.213
	c0.129,1.538,0.903,2.561,1.117,4.282c0.438,3.526-0.427,7.062,0,10.426c0.235,1.852,1.382,3.446,1.117,5.399
	c-1.602-0.446-3.511-0.586-5.585-0.559c-0.884-0.122,0.557-0.687,0.559-1.117c-2.396,0.606-4.814,1.071-7.262,0.931
	c-1.283-0.073-2.56-0.787-3.909-0.931c-1.983-0.211-4.423,0.214-6.702,0c-2.919-0.274-5.598-1.646-9.495-1.117
	c-1.069,0.145-2.107,0.941-3.165,1.117c-1.57,0.261-3.188-0.229-4.841,0c-1.07,0.148-2.049,0.792-3.165,0.931
	c-1.836,0.229-3.964-0.152-5.957,0c-1.502,0.114-2.822,0.977-4.282,1.117c-2.577,0.248-5.782-0.187-8.564-0.187
	c-3.056,0-6.086,0.254-8.564,0c-4.23-0.434-8.833-2.487-13.591-2.979c-3.208-0.331-6.496,0.318-9.681,0
	c-1.551-0.155-2.964-0.938-4.469-1.117c-3.086-0.365-6.762,0-10.239,0c-3.43,0-7.063-0.342-10.24,0
	c-1.217,0.131-2.322,0.922-3.537,1.117c-4.612,0.743-9.363-0.541-14.149,0c-1.113,0.126-2.241,0.784-3.351,0.931
	c-3.056,0.405-6.861,0.338-10.054,0c-1.213-0.128-2.484-0.788-3.724-0.931c-2.796-0.321-6.068,0.296-9.123,0
	c-1.473-0.143-2.956-0.931-4.468-1.117c-4.753-0.587-10.399,0-16.011,0c-10.518,0-21.446,0-32.022,0c-5.662,0-11.408-0.623-16.011,0
	c-1.087,0.147-1.905,0.905-3.165,1.117c-1.923,0.322-3.874-0.289-5.958,0c1.521-10.658,1.588-21.662,1.676-32.581
	c0.044-5.453-0.745-10.847-0.745-16.197c0-2.979,0.098-5.805-0.186-8.564c-0.251-2.441-1.079-4.781-1.304-7.261
	c-0.946-10.43,1.926-21.33,2.793-31.464c0.475-5.554,0.305-10.855-0.186-16.384c-0.226-2.542-0.97-4.844-1.303-7.26
	c-0.338-2.448,0.009-4.985,0-7.447c-0.037-9.937-0.373-20.647-0.373-32.022c0-11.296-0.607-23.186,0.559-33.884
	c0.382-3.508,1.62-6.788,1.675-10.426c0.177-11.572-0.414-23.28-1.117-34.442c5.906,0.869,12.343-0.511,18.618,0.186
	c2.959,0.329,5.947,1.656,10.24,1.117c1.246-0.157,2.521-0.966,3.723-1.117c2.704-0.34,5.255,0.454,7.82-0.745
	c0.186-0.087,0.394-0.159,0.558-0.187c3.716-0.617,8.568,0,13.033,0c4.333,0,8.742,0,13.032,0c8.915,0,18.442-0.731,26.065,0
	c1.343,0.129,2.628,0.793,3.91,0.931c3.78,0.407,8.056-0.423,11.543,0c1.333,0.162,2.703,0.961,4.096,1.117
	c7.044,0.788,14.568-0.908,21.969,0c1.257,0.154,2.423,0.806,3.724,0.931c7.032,0.675,14.409-0.633,21.41,0
	c1.57,0.142,3.118,0.954,4.654,1.117c3.314,0.353,8.097,0.426,10.798,0c1.002-0.158,2.002-0.955,2.979-1.117
	c3.716-0.617,7.765,0.486,11.729,0c1.093-0.134,2.091-0.782,3.165-0.931c8.771-1.215,19.233,1.033,28.299,0
	c1.173-0.134,2.056-0.91,3.165-1.117c0.946-0.177,2.093,0.125,3.165,0c0.952-0.111,1.969-0.496,2.793-0.559
	C239.088,3.43,241.07,4.538,243.52,4.361z M95.695,70.268c0.527-1.813-0.326-3.769-0.559-5.585c-0.352-2.752,0.266-5.938-0.186-8.75
	c-0.893-5.552-2.887-9.771-5.958-12.288c-2.635,0.71-4.752-1.926-7.075-1.117c-1.265,0.44-1.113,1.727-2.606,2.234
	c-1.276,6.037-5.394,11.304-6.33,17.314c-0.246,1.575-0.148,3.405-0.187,4.654c-0.08,2.655,0.26,4.323,1.117,7.633
	c0.725,0.67,2.081,0.734,2.606,1.117c-0.282,0.959-0.347,2.135-1.117,2.606c-1.728-0.952-3.316,0.551-5.026,0.745
	c-1.118,0.126-2.262-0.383-3.352-0.186c-1.589,0.287-2.231,1.509-3.723,1.675c-2.454,3.767-8.116,6.503-9.681,11.543
	c-0.755,2.43-0.918,5.578-1.49,8.378c-1.316,6.448-2.25,13.493-3.351,19.921c-0.456,2.66-0.942,3.902-0.931,6.517
	c0.019,4.307,2.631,6.362,2.792,10.239c1.849,0.964,2.858,0.814,4.654,1.489c1.037-0.576,1.729-1.497,2.793-2.048
	c3.912-6.402,2.847-15.802,5.585-22.713c2.025-5.111,3.747-11.387,6.33-15.639c0.579,4.164,1.852,8.211,2.234,12.474
	c0.572,6.389-0.461,10.351-1.117,14.335c-0.23,1.4,0.202,2.726,0,4.096c-0.088,0.602-0.682,1.436-0.745,1.862
	c-0.392,2.662-0.162,5.633-0.559,8.564c-0.467,3.45-1.2,6.363-1.676,9.309c-0.327,2.023-1.127,3.671-1.862,5.585
	c-1.821,4.744-2.493,10.665-4.096,16.012c-1.654,5.519-3.902,10.879-4.468,15.639c-0.134,1.125,0.078,2.212,0,3.165
	c-0.341,4.154-2.159,6.293-2.42,10.426c1.237,1.369,3.606,1.606,4.654,3.165c3.045,0.85,4.984,0.779,6.889,2.048
	c0.593-1.021,1.442-1.784,3.351-1.489c0.864-0.75,1.621-1.606,2.793-2.048c2.48-4.192,2.346-9.225,2.979-14.149
	c0.522-4.063,1.956-8.344,2.793-12.66c0.402-2.076,0.826-4.245,1.303-6.33c0.522-2.285,0.611-4.617,1.117-6.702
	c0.341-1.407,1.193-2.646,1.49-4.096c0.331-1.619,0.041-3.203,0.931-4.655c0.46,4.009,0.662,8.916,1.49,13.964
	c0.273,1.666-0.273,3.764,0,5.771c0.114,0.84,0.488,1.598,0.558,2.42c0.139,1.619-0.23,3.231,0,4.841
	c0.386,2.697,1.368,5.977,1.117,9.309c2.782,3.734,2.607,10.426,4.654,14.895c2.08,0.367,3.819,1.968,6.33,1.676
	c1.396-0.163,6.091-2.927,6.889-4.469c0.765-1.479,0.695-5.213,0.559-6.33c-1.375-11.25-5.71-23.563-7.447-35.56
	c-0.38-2.625-1.427-5.104-1.675-7.633c-0.218-2.222,0.259-4.913,0-6.889c-0.205-1.558-1.013-3.083-1.117-4.469
	c-1.073-14.241-0.79-24.271-0.931-38.539c3.708,6.881,5.813,18.783,5.399,25.693c0.873,1.052,1.018,4.441,1.303,6.702
	c1.306-0.035,2.296,1.044,3.537,1.303c0.469,0.099,1.029-0.129,1.49,0c0.692,0.194,0.628,0.645,1.489,0.559
	c2.169-0.215,3.389-2.801,4.841-4.096c1.019,0.471,2.598,0.381,3.165,1.304c1.269-0.351,1.708-0.352,2.42,0.559
	c1.143-0.595,1.611-1.865,2.979-2.234c1.444-8.02,1.153-16.688,4.096-23.272c0.449,0.482,1.68,0.182,2.234,0.558
	c-0.235,3.287-0.729,7.161-0.931,9.495c-0.312,3.581-0.053,7.266-0.559,10.984c-0.342,2.515-0.917,4.691-0.559,7.261
	c0.474,3.404,1.053,9.537,0.372,13.777c-0.152,0.948-1.174,2.351-1.489,3.352c-1.025,3.248-0.442,6.166-0.931,9.681
	c-0.261,1.873,0.114,3.032,0,4.841c-0.114,1.812-0.864,3.632-1.117,5.771c-0.64,5.402-0.761,10.263-1.676,14.895
	c-0.588,2.974-1.793,5.791-2.048,8.378c-0.57,5.787,1.029,6.159,5.026,7.446c0.81,0.261,1.625,0.934,2.234,1.117
	c3.762,1.137,4.072-0.524,6.33-1.676c1.619-3.738,1.312-8.048,1.861-12.846c0.19-1.656,0.931-3.312,1.117-5.027
	c0.859-7.882,1.499-16.729,3.165-23.271c1.626,2.803,1.625,5.864,2.793,9.122c0.271,0.756,0.875,1.455,1.117,2.234
	c0.618,1.993,0.841,4.364,1.489,6.517c0.632,2.097,1.641,4.261,1.861,5.957c0.127,0.971-0.269,2.538-0.186,3.724
	c0.054,0.77,0.614,1.529,0.744,2.421c0.547,3.749-0.381,8.807-0.186,10.984c1.628,1.259,4.975,1.15,5.771,2.234
	c1.297-0.494,1.462,0.286,2.42,0.558c1.848-1.274,5.218-2.282,6.144-3.909c1.316-2.312,0.033-8.446-0.186-9.867
	c-0.328-2.125,0.256-4.369,0-6.33c-1.348-10.337-4.941-18.285-6.702-27.555c-2.55-4.328-2.657-11.524-4.841-16.197
	c-0.486-1.041-1.677-1.689-1.304-2.979c1.847,0.388,3.726,0.743,5.027,1.676c0.949-0.922,1.306,0.044,2.233,0.559
	c0.932-0.683,1.416-1.812,2.793-2.048c0.513-3.269,0.089-7.793-0.372-11.543c-0.982-7.99-3.096-16.014-4.841-23.272
	c-0.223-0.927-0.554-1.874-0.745-2.792c-0.949-4.579-2.385-8.024-3.351-11.171c-0.367-1.197-0.831-2.428-1.304-3.537
	c-1.111-2.609-2.025-5.375-3.165-7.447c-0.708-1.29-2.034-2.42-2.606-4.096c-0.575-1.687-1.241-4.496-1.117-5.771
	c0.142-1.44,1.274-2.584,1.676-3.91c0.444-1.465,0.656-3.25,0.745-5.027c0.125-2.514-0.824-5.236-0.745-6.516
	c0.134-2.15,1.487-4.32,0.931-6.516c-0.417-1.648-1.668-2.386-2.979-3.724c-4.037,0.267-5.938-2.438-10.239-1.303
	c-0.753,0.985-1.575,1.9-3.724,1.489c-1.605,4.795-2.104,14.218-1.304,19.921c0.253,1.804,1.966,2.895,2.421,4.096
	c0.122,0.324-0.295,1.231-0.187,1.862c0.144,0.837,0.678,1.358,0.559,2.234c-0.239,1.761-3.014,3.677-4.469,5.399
	c-2.131,2.523-2.483,4.064-3.537,7.261c-0.344,1.044-0.95,2.107-1.303,3.165c-1.647,4.941-0.884,12.321-5.213,14.149
	c-0.134,1.16-0.43,3.042-0.931,3.91c-0.685-1.351-0.528-3.078-1.117-4.841c-0.264-0.791-0.971-1.315-1.117-2.234
	c-0.127-0.804,0.175-1.626,0-2.42c-0.159-0.725-0.927-1.342-1.117-2.234c-0.141-0.663,0.113-1.542,0-2.234
	c-0.507-3.099-2.309-7.457-3.91-10.426c-0.419-0.777-2.293-3.833-2.793-4.282c-1.263-1.136-2.083-0.375-3.165-0.559
	c-1.869-0.316-3.853-1.612-6.144-1.862c0.335-1.111,0.729-0.612,1.489-0.745C92.154,72.407,95.204,71.957,95.695,70.268z
	 M178.544,43.272c-1.776,0.369-2.63,2.869-3.352,4.096c-0.67,1.137-1.79,1.684-2.048,2.792c-0.489,2.103-0.099,5.144,0,7.82
	c0.151,4.133,2.086,7.612,4.468,10.426c-2.654,0.69-1.207,4.854-1.861,5.958c-0.595,1.002-2.454,1.577-3.537,2.606
	c-1.374,1.305-3.11,3.08-3.352,4.654c-0.747,4.873-0.057,8.686-0.559,14.708c-0.188,2.269-0.495,4.633-0.559,7.075
	c-0.072,2.785-0.028,5.607-0.187,8.378c-0.16,2.831-0.897,5.468-1.116,8.006c-0.342,3.947,0.214,7.71,0,11.171
	c-0.192,3.106,0.848,5.658,3.351,6.144c7.306,1.416,4.312-8.143,8.751-8.75c1.089-5.571,0.908-10.071,0.931-13.033
	c0.025-3.457-0.363-7.205,0.186-9.681c2.157,5.538,3.12,12.271,2.793,20.293c0.212,0.844,1.434,0.677,1.676,1.489
	c-0.594,3.019-1.204,6.784-1.117,9.868c-0.745,1.005-0.425,2.711-1.304,3.909c0.717,3.048-1.048,4.721-1.861,7.075
	c-0.319,0.925-0.148,1.954-0.372,2.792c-0.329,1.231-0.979,2.43-1.304,3.724c-0.324,1.292-0.371,2.691-0.744,3.91
	c-0.269,0.873-0.906,1.557-1.117,2.42c-0.177,0.724-0.026,1.534-0.187,2.234c-0.177,0.773-0.736,1.497-0.931,2.234
	c-1.448,5.483-1.899,10.867-2.793,15.452c-0.153,0.786-0.646,1.466-0.744,2.234c-0.119,0.929,0.266,1.919,0.186,2.792
	c-0.082,0.898-0.637,1.692-0.744,2.607c-0.095,0.8,0.319,1.826,0.186,2.792c-0.201,1.456-0.918,2.899-1.117,4.469
	c-0.234,1.855,0.332,3.842-0.186,5.213c1.347,1.227,4.947,0.883,5.585,2.233c1.562-0.404,1.385-0.093,2.606,0.373
	c1.168-0.322,1.206-1.773,2.793-1.676c0.001-0.806,0.432-1.182,0.372-2.048c2.638-3.79,5.088-7.327,5.771-12.66
	c1-7.798,2.317-15.616,5.958-20.666c1.054,2.923,0.3,7.277,0.744,10.799c0.084,0.661,0.485,1.26,0.559,1.861
	c1.039,8.487-0.798,16.94,0.187,22.155c1.325,1.281,4.416,0.797,5.585,2.234c0.788-0.368,1.419-0.179,2.421,0.372
	c4.306-2.268,7.4-5.843,8.005-10.984c0.576-4.897-0.134-11.029-0.559-16.197c-0.126-1.546,0.188-2.612,0-3.91
	c-0.259-1.791-1.167-3.98-1.675-6.144c-0.479-2.043-1.059-4.448-1.676-6.144c-0.327-0.896-1.031-1.575-1.304-2.421
	c-0.307-0.955-0.223-2.005-0.559-2.979c-0.388-1.125-1.374-1.964-1.861-2.979c-0.683-1.423-1.509-3.031-1.861-4.282
	c-0.413-1.46-0.492-3.467-0.932-5.026c-0.252-0.896-0.817-1.532-0.931-2.234c-0.39-2.417-0.222-5.145-0.559-7.634
	c-0.097-0.716-0.485-1.364-0.559-2.048c-0.396-3.717,0.076-7.544-0.372-11.17c-0.442-3.58-1.117-8.177-1.676-11.729
	c-0.706-4.486,0.017-8.812-0.559-13.032c-0.232-1.71-0.412-3.31,0.373-4.841c1.172,1.8,1.121,3.822,1.489,5.958
	c0.455,2.643,1.705,5.189,2.233,7.633c0.155,0.714-0.174,1.862,0,2.793c0.686,3.671-0.037,5.434,0.373,8.191
	c0.134,0.899,0.643,1.708,0.744,2.793c0.054,0.573-0.299,1.425-0.186,2.234c0.316,2.274,1.107,4.771,0.559,6.144
	c-0.585,1.461-2.347,2.378-1.862,4.096c0.854,0.388,1.432,1.052,2.793,0.931c0.368,2.725,3.616,4.08,6.33,2.793
	c0.427,1.03,0.659,0.174,1.303,0.744c1.228-0.973,1.283-2.282,1.862-3.909c0.289-0.813,0.804-1.553,1.117-2.42
	c0.865-2.397,1.761-4.941,2.233-7.075c0.789-3.56,0.052-6.729-0.372-9.681c-1.241-8.645-3.688-18.806-5.213-25.878
	c-1.615-2.915-2.288-6.772-4.282-9.309c-5.19-1.636-10.814-2.838-16.197-4.282c1.138-0.14,0.742-3.36,0.372-4.655
	c0.577-0.913,1.282-1.697,2.234-2.234c0.307-1.343,0.798-2.156,0.931-3.351c1.004-9.043-3.447-12.099-6.33-17.314
	C182.851,45.479,181.157,42.729,178.544,43.272z"/>
</svg>
