<?xml version="1.0" encoding="utf-8"?>
<!-- Generator: Adobe Illustrator 19.1.0, SVG Export Plug-In . SVG Version: 6.00 Build 0)  -->
<svg version="1.1" id="Calque_1" xmlns="http://www.w3.org/2000/svg" xmlns:xlink="http://www.w3.org/1999/xlink" x="0px" y="0px"
	 viewBox="0 0 227.8 269.1" style="enable-background:new 0 0 227.8 269.1;" xml:space="preserve">
<style type="text/css">
	.st0{fill:#009DBF;}
	.st1{fill:#D0095B;}
	.st2{fill:#009EC0;}
	.st3{fill:#D1005A;}
	.st4{fill:#C0BFBF;}
	.st5{enable-background:new    ;}
	.st6{fill:none;stroke:#D0095B;stroke-width:3;stroke-miterlimit:10;}
	.st7{fill:#FFFFFF;stroke:#D0095B;stroke-width:3;stroke-miterlimit:10;}
	.st8{fill:#FFFFFF;}
</style>
<g>
	<path id="" class="st0" d="M79.7,170.8c-1.7,0.1-9.3,19.9-10.5,23.4c-2.4,6.5-4.6,13.1-6.9,19.6c-1.3,3.6-2.7,7.2-4,10.8
		c-1.4,3.8-2.8,7.7-4.1,11.5c-0.6,1.6-0.4,3,0.9,4.5c3.5,3.9,7.7,7,12,9.7c4.1,2.6,8.2,5,12.5,7c2.8,1.3,6,1.9,8.9,3
		c1.2,0.5,2,0.3,2.6-0.7c0.4-0.8,0.8-1.6,0.9-2.5c0.5-4.3,0.9-8.5,1.2-12.8c0.6-7.3,1.1-14.7,1.5-22.1c0.4-6.1,0.6-12.2,0.9-18.3
		c0.1-1.8,0.1-3.7-1.8-4.8c-0.4-0.2-0.6-0.8-0.7-1.2c-0.5-1.2-0.8-2.5-1.3-3.7c-2-4.4-4.1-8.8-6.2-13.2
		C84,178.1,81.2,173.8,79.7,170.8z"/>
	<path id="" class="st0" d="M70.1,107.3c2.2-0.1,8.5-3.8,18.6-5.7c12.8-2.3,22.7-1,25.9-0.9c2,0.1,4.1,0.2,6.1,0.5
		c3.6,0.6,7.2,1.2,10.8,2.1c3.4,0.8,6.7,1.8,10,3c2.4,0.8,4.7,2.1,7,3.1c1.5-2.9,0.9-4.1-1.9-5.2c-3.3-1.3-6.6-2.8-9.9-4
		c-3.4-1.2-6.8-2.3-10.3-3.1c-7.7-1.4-17-1.7-21.6-1.5c-4.5,0.2-9,0.9-13.4,1.7c-3.2,0.6-6.4,1.4-9.5,2.5c-3.4,1.2-6.6,3-10,4.3
		C70.4,104.8,69.9,105.7,70.1,107.3z"/>
	<path id="" class="st0" d="M95.6,193.3c1.7,0,2.7-5.6,4.1-7.6c2.8-3.8,5.6-7.6,8.4-11.4c0.9-1.2,0.2-1.6-0.7-2c-0.5-0.2-1.2-0.2-1.8-0.3
		c-4.8-0.5-9.6-1-14.4-1.5c-1.8-0.2-3.5-0.6-5.3-0.8c-1.8-0.1-2.3,0.5-1.6,2.2c0.7,1.8,1.8,3.5,2.6,5.3
		C88.5,180.7,93.9,193.3,95.6,193.3z"/>
	<path id="" class="st0" d="M114.4,172.4c1,1.8,1.6,3.3,2.5,4.5c2.9,3.4,5,7.4,6.9,11.4c0.2,0.5,0.8,1.2,1.1,1.2c0.6-0.1,1.3-0.6,1.7-1.1
		c1.2-2,2.3-4.1,3.5-6.1c2.5-4.2,5.1-8.3,7.6-12.5c0.4-0.7,0.3-1.8,0.4-2.7C130,168.9,122.4,170.6,114.4,172.4z"/>
	<path id="" class="st0" d="M76.4,168c-0.6-0.7-1.1-1.8-1.9-2.3c-1.2-0.8-2,0.3-2.6,1.2c-0.9,1.3-1.8,2.5-2.7,3.8c-2.2,3-4.5,5.9-6.6,8.9
		c-2.2,3.2-4.3,6.6-6.5,9.9c-1.4,2.1-1.5,3.4,0.4,5.1c1.2,1.1,2.4,2.2,3.7,3.1c0.9,0.7,1.7,0.9,2.4-0.5c1.4-3,3-5.9,4.4-8.9
		c0.9-1.9,1.6-3.9,2.5-5.8c1.8-3.8,3.6-7.5,5.5-11.3C75.4,170.2,75.8,169.3,76.4,168z"/>
	<path id="" class="st0" d="M148,163.2c-1.7,0-2.5,1.1-2.2,2.5c0.6,2.4,1.3,4.8,2.1,7.2c0.9,2.5,2,4.9,2.8,7.5c1,3.2,1.6,6.6,2.4,9.8
		c0.4,1.8,1.2,2.4,2.4,1.7c1.6-0.8,3.2-1.5,4.6-2.5c0.7-0.5,1.2-1.6,1.2-2.4c-0.1-1.3-0.7-2.5-1.3-3.7c-1.5-3.2-2.9-6.3-4.7-9.4
		c-1.9-3.3-4-6.5-6.1-9.8C148.9,163.7,148.3,163.4,148,163.2z"/>
	<path id="" class="st0" d="M164.1,246.2c-1.4-6-2.8-12.1-4.3-18.1c-1.3-5-2.7-9.9-4.1-14.8c-0.9-3.2-2-6.3-2.9-9.6
		c-1.3-4.6-2.3-9.3-3.6-13.9c-1.1-3.7-2.4-7.3-3.8-10.9c-0.8-2-1.8-3.9-2.8-5.9c-0.6,0.4-0.9,0.5-0.9,0.6
		c-3.5,5.6-6.9,11.2-10.5,16.8c-1.1,1.7-2.4,3.2-3.8,4.6c-1.6,1.6-3.2,1.3-4.2-0.7c-0.9-1.7-1.6-3.5-2.4-5.3c-0.8-1.9-2.1-2.4-4-2
		c-2.1,0.4-8.3,0.6-9.9-0.1c-3.4-1.2-5.6,5.4-6.2,10.5c-0.4,4.7-0.3,9.4-0.7,14.1c-0.8,9.8-1.9,19.5-2.7,29.2
		c-0.5,6.5-0.7,13-1.1,19.6c-0.1,1.3,0.6,1.8,1.5,2.1c1,0.4,2.1,0.6,3.2,0.6c5.5,0.3,11.1,0.6,16.6,0.9c5.5,0.3,11-0.4,16.3-2
		c4.2-1.2,8.4-2.8,12.5-4.4c5.4-2.1,10.8-4.4,16.1-6.8C164.6,249.6,164.7,248.9,164.1,246.2z M145.8,226.9c-1.7,1.7-3.8,1.5-5.5,0.6
		c-1.9-1-4-1.8-4.8-4.1c-0.3-0.8-0.6-1.7-0.8-2.6c-0.6-2.7-1-5.5-1.6-8.1c-0.3-1.2-0.1-1.7,1.2-2.1c3.8,0.9,4.7-3,6.2-3.5
		c0.9-0.3,1.6,1.8,4.1,1.9s2.5-1.4,3.4-0.8C149.2,222.6,148.6,224,145.8,226.9z"/>
	<g>
		<path d="M227.6,125.3c0,4.7,0.1,9.4,0,14.1c-0.1,5.1-0.2,10.3-0.7,15.4c-0.7,7.3-1.6,14.6-2.8,21.9c-1.4,9-4.9,20.4-7.7,27.7
			c-2.8,7.2-12.6,20.6-21.9,30.6s-21.7,19.3-28.6,23.2c-4,2.7-27.9,14.2-63.8,10.1c-2.1-0.3-4.2-0.5-6.2-0.9
			c-2.3-0.5-4.5-1.2-6.8-1.7c-5.2-1.3-10-3.3-14.8-5.6c-4.7-2.2-9.1-4.6-13.2-7.7c-5-3.8-9.6-8.2-14.3-12.4
			c-5.4-4.8-9.8-10.6-14.2-16.3c-4-5.2-7.5-10.9-11.1-16.5c-2.6-4.1-4.8-8.3-7.1-12.5c-1.9-3.4-3.7-6.8-5.3-10.4
			c-0.9-2-7.4-22.5-8.2-36.7C0.6,141.7,0,135.9,0,130c0-5.9,0.4-11.8,0.8-17.7c0.2-3.9,0.7-7.8,1.2-11.7c0.4-2.9,0.9-5.9,1.7-8.7
			c1.1-3.6,6.4-17.4,7.9-20.7c1.7-3.7,3.6-7.2,5.3-10.9c2-4.3,4.9-7.9,7.7-11.6c1.9-2.5,7.9-10,9.2-11.2c1.9-1.8,3.7-3.6,5.7-5.3
			c2.8-2.3,5.7-4.6,8.6-6.8c2.6-2,5.3-4.1,8-5.9c2.8-1.8,5.7-3.5,8.6-5.1c7.4-3.1,21.5-10.1,30.9-12.1c8.1-1.9,18.6-2.5,25.1-2.3
			c8.2,0.3,13.4,2.2,19.5,3.6c2.8,0.7,5.4,2.1,8.2,3.2c2.1,0.8,4.4,1.5,6.4,2.5c4,2,8,4.2,11.8,6.5c2.5,1.5,4.7,3.5,7.1,5.2
			c2.8,2,5.7,3.9,8.5,6c2.2,1.6,4.3,3.3,6.2,5.2c3.8,3.7,7.5,7.4,11,11.3c2.2,2.6,4,5.5,5.9,8.4c0.2,0.2,0.2,0.6,0.4,0.8
			c3,3.8,5.2,8.1,7,12.6c1.3,3.1,3.1,6,4.3,9.1c1.4,3.6,2.5,7.4,3.5,11.2c1.4,5.4,2.8,10.8,3.9,16.3c1,5,1.8,10,2.6,15
			c0.4,2.8,0.6,5.6,0.9,8.5C227.8,125.3,227.7,125.3,227.6,125.3z M6.9,158.9c-0.6-3.6,1.3,5.4,2,8c0.5,2,0.9,4,1.5,5.9
			c2.6,9,5.8,14.9,6.9,16.9c1.9,3.5,4,7,6,10.4c3.8,6.3,7.7,12.6,11.6,18.8c0.5,0.8,2.1,1.6,2.9,1.3c2.4-0.7,4.3-0.3,6.2,1.4
			c1.5,1.3,3,1,3.8-0.9c1-2.2,1.7-4.5,2.5-6.7c1.4-4.1,2.8-8.3,4.3-12.4c0.8-2.2,0.2-3.9-1.5-5.4c-2.8-2.5-3-4.8-1-7.8
			c1.6-2.4,3.2-4.6,4.8-7c2.4-3.6,4.9-7.1,7.3-10.7c1.2-1.8,2.5-3.7,3.7-5.6c0.9-1.3,0.7-2.3-0.5-3.5c-2.3-2.2-4.8-4.4-6.4-7
			c-4.3-7.1-5.9-15-4.9-23.4c0.6-5.2,2.5-9.9,6.2-13.7c1.6-1.7,3.1-3.4,4.4-5.3c0.5-0.7,0.5-1.8,0.4-2.7c-0.2-1.2-0.8-2.4-1.2-3.6
			c-0.4-1.2-0.5-2.7-1.2-3.7c-1.8-2.8-3.9-5.5-5.8-8.3c-1.3-1.9-2.8-3.8-3.8-5.9c-1.1-2.3-1.7-4.8-2.7-7.2c-0.9-2.1-0.3-3.7,0.8-5.5
			c1.5-2.3,4.1-2.9,6.2-4.3c3.2-2.2,6.8-3.7,9.8-6.1c3-2.3,5.6-5.2,8-8.1c1.7-1.9,3.1-4.2,4.2-6.5c1.6-3.3,2.9-2.9,5.6-3
			c1.2,0,2.4,0.5,3.5,0.8c5.9,1.4,11.4,4,17.5,4.9c5.9,0.9,11.8,0.9,17.6,0.3c3.4-0.3,6.8-1.7,10.1-2.9c4.1-1.6,7.8-1,10,1.9
			c2.5,3.3,4.8,6.7,7.2,10.1c0.3,0.4,0.6,0.9,0.9,1.4c1.5,2.3,3,4.6,4.6,6.9c0.3,0.4,0.7,0.7,1.1,0.9c1.9,0.9,4,1.6,5.7,2.8
			c1.4,1,2.4,2.3,2.5,4.3c0.2,3.1-1.2,5.6-2.5,8.2c-1.9,3.9-4.1,7.6-6.2,11.4c-0.7,1.2-1.2,2.5-2.1,3.6c-2.2,2.8-3.9,5.8-4.9,9.1
			c-0.1,0.5,0.1,1.2,0.4,1.6c12.2,15.4,8.2,26.7,8.1,31.8c-1.8,5.7-2.7,9.8-5.6,14c-0.5,0.5-0.8,1.8-0.6,2.5c0.8,2.3,2,4.6,3,6.8
			c2.6,5.7,5.3,11.3,7.9,17c1.5,3.4,1,5.7-1.9,7.9c-1.2,1-1.8,2.1-1.4,3.6c0.3,1.4,0.7,2.8,1.1,4.2c1.4,4.1,2.9,8.2,4.2,12.3
			c0.5,1.5,0.7,3,1.1,4.5c1.4,4.6,2.9,9.3,4.3,13.9c0.6,1.9,1,2,2.7,0.7c1.6-1.3,3.2-2.5,5-3.5c0.7-0.4,2-0.3,2.6,0.2
			c1.7,1.3,4-1.8,4.4-2.2c5.4-6.5,10.3-13.3,14.5-20.5c2.1-3.6,4.1-7.3,5.6-11.1c1.7-4.4,2.9-8.9,4.2-13.4c0.8-2.8,1.4-5.7,1.8-8.6
			c0.6-3.7,1-7.5,1.4-11.3c0.6-6.2,1.4-12.4,1.7-18.6c0.3-6.3,0-12.6,0-18.8c0-1.9-0.2-3.8-0.4-5.7c-0.3-2.4-0.5-4.9-0.9-7.3
			c-1-6-1-12.2-2.9-18.2c-1.9-5.9-7.7-21.1-10.4-25.8c-2.7-4.8-7.1-12.5-9.6-16.2c-1.8-2.7-4-5.2-6.3-7.6c-2.6-2.7-5.5-5-8.2-7.5
			c-1.7-1.5-3.4-2.8-5-4.4c-1.2-1.1-2.5-2-3.7-3c-1.2-1-2.5-2.1-3.7-3c-2.1-1.5-4.2-3-6.4-4.3c-2.6-1.6-5.2-3-7.8-4.5
			c-1.9-1.1-3.8-2.1-5.7-3.1c-0.9-0.5-1.8-0.9-2.7-1.3c-1.2-0.4-2.4-0.7-3.6-1c-3-0.8-5.9-2.1-9-2.4c-3.5-0.3-12.7-1.5-17.7-1.5
			c-5,0-16.7,1.9-27.5,5.7c-5.6,2.6-28.6,13.2-40.6,22.7c-2,1.6-13.1,13.6-17,18.3c-2.6,3.1-4.8,6.7-6.9,10.2
			c-2.5,4.2-4.8,8.5-6.9,12.9c-2.2,4.7-4,9.5-5.7,14.4c-0.9,2.6-1.3,5.4-1.8,8.1c-0.8,5-1.7,10-2,15c-0.4,6.8-0.3,13.7-0.2,20.5
			C3.9,139.4,7.4,162.5,6.9,158.9z M142.6,173.1c-0.6,0.4-0.9,0.5-0.9,0.6c-3.5,5.6-6.9,11.2-10.5,16.8c-1.1,1.7-2.4,3.2-3.8,4.6
			c-1.6,1.6-3.2,1.3-4.2-0.7c-0.9-1.7-1.6-3.5-2.4-5.3c-0.8-1.9-2.1-2.4-4-2c-2.1,0.4-8.3,0.6-9.9-0.1c-3.4-1.2-5.6,5.4-6.2,10.5
			c-0.4,4.7-0.3,9.4-0.7,14.1c-0.8,9.8-1.9,19.5-2.7,29.2c-0.5,6.5-0.7,13-1.1,19.6c-0.1,1.3,0.6,1.8,1.5,2.1c1,0.4,2.1,0.6,3.2,0.6
			c5.5,0.3,11.1,0.6,16.6,0.9c5.5,0.3,11-0.4,16.3-2c4.2-1.2,8.4-2.8,12.5-4.4c5.4-2.1,10.8-4.4,16.1-6.8c2.5-1.1,2.6-1.8,2-4.5
			c-1.4-6-2.8-12.1-4.3-18.1c-1.3-5-2.7-9.9-4.1-14.8c-0.9-3.2-2-6.3-2.9-9.6c-1.3-4.6-2.3-9.3-3.6-13.9c-1.1-3.7-2.4-7.3-3.8-10.9
			C144.6,177,143.6,175.1,142.6,173.1z M64.9,119.6c-1.2,1.4-2.4,2.4-3.1,3.6c-2.4,3.8-3.4,8.1-3.1,12.5c0.2,4.5,1.2,9,3,13.2
			c2.1,5.1,5.4,9.1,10.2,11.7c0.9,0.5,2,0.8,3,1.2c2.6,1.1,5.2,2.3,7.8,3.4c4.3,1.8,8.9,2.2,13.4,2.7c3.5,0.4,7.1,0.8,10.6,0.8
			c8.4,0.1,16.7-1,24.7-3.4c3.5-1.1,7.1-2.4,10.2-4.3c2.8-1.6,9.3-6.7,10.6-8.9s3.4-7,4-9.6c0.6-2.4,0.8-4.9,0.7-7.4
			c-0.1-2.6-0.8-5.2-1.2-7.8c-0.4-3.4-2.5-5.9-4.3-8.6c-0.7-1-1.6-1.1-2.3,0c-1.8,2.7-4.4,4.3-7.3,5.4c-4.1,1.6-8.2,3.3-12.8,3.3
			c-2.7,0-5.3,0.5-8,0.6c-2.1,0.1-9.9-1.2-11.6-1.2c-8.5-0.1-17-0.5-25.5,1.1c-3.5,0.6-7.1,0.9-10.7-0.4c-2.8-1.1-5.1-2.6-6.4-5.4
			C66.3,121.3,65.6,120.5,64.9,119.6z M79.7,170.8c-1.7,0.1-9.3,19.9-10.5,23.4c-2.4,6.5-4.6,13.1-6.9,19.6c-1.3,3.6-2.7,7.2-4,10.8
			c-1.4,3.8-2.8,7.7-4.1,11.5c-0.6,1.6-0.4,3,0.9,4.5c3.5,3.9,7.7,7,12,9.7c4.1,2.6,8.2,5,12.5,7c2.8,1.3,6,1.9,8.9,3
			c1.2,0.5,2,0.3,2.6-0.7c0.4-0.8,0.8-1.6,0.9-2.5c0.5-4.3,0.9-8.5,1.2-12.8c0.6-7.3,1.1-14.7,1.5-22.1c0.4-6.1,0.6-12.2,0.9-18.3
			c0.1-1.8,0.1-3.7-1.8-4.8c-0.4-0.2-0.6-0.8-0.7-1.2c-0.5-1.2-0.8-2.5-1.3-3.7c-2-4.4-4.1-8.8-6.2-13.2
			C84,178.1,81.2,173.8,79.7,170.8z M70.1,107.3c2.2-0.1,8.5-3.8,18.6-5.7c12.8-2.3,22.7-1,25.9-0.9c2,0.1,4.1,0.2,6.1,0.5
			c3.6,0.6,7.2,1.2,10.8,2.1c3.4,0.8,6.7,1.8,10,3c2.4,0.8,4.7,2.1,7,3.1c1.5-2.9,0.9-4.1-1.9-5.2c-3.3-1.3-6.6-2.8-9.9-4
			c-3.4-1.2-6.8-2.3-10.3-3.1c-7.7-1.4-17-1.7-21.6-1.5c-4.5,0.2-9,0.9-13.4,1.7c-3.2,0.6-6.4,1.4-9.5,2.5c-3.4,1.2-6.6,3-10,4.3
			C70.4,104.8,69.9,105.7,70.1,107.3z M95.6,193.3c1.7,0,2.7-5.6,4.1-7.6c2.8-3.8,5.6-7.6,8.4-11.4c0.9-1.2,0.2-1.6-0.7-2
			c-0.5-0.2-1.2-0.2-1.8-0.3c-4.8-0.5-9.6-1-14.4-1.5c-1.8-0.2-3.5-0.6-5.3-0.8c-1.8-0.1-2.3,0.5-1.6,2.2c0.7,1.8,1.8,3.5,2.6,5.3
			C88.5,180.7,93.9,193.3,95.6,193.3z M114.4,172.4c1,1.8,1.6,3.3,2.5,4.5c2.9,3.4,5,7.4,6.9,11.4c0.2,0.5,0.8,1.2,1.1,1.2
			c0.6-0.1,1.3-0.6,1.7-1.1c1.2-2,2.3-4.1,3.5-6.1c2.5-4.2,5.1-8.3,7.6-12.5c0.4-0.7,0.3-1.8,0.4-2.7
			C130,168.9,122.4,170.6,114.4,172.4z M76.4,168c-0.6-0.7-1.1-1.8-1.9-2.3c-1.2-0.8-2,0.3-2.6,1.2c-0.9,1.3-1.8,2.5-2.7,3.8
			c-2.2,3-4.5,5.9-6.6,8.9c-2.2,3.2-4.3,6.6-6.5,9.9c-1.4,2.1-1.5,3.4,0.4,5.1c1.2,1.1,2.4,2.2,3.7,3.1c0.9,0.7,1.7,0.9,2.4-0.5
			c1.4-3,3-5.9,4.4-8.9c0.9-1.9,1.6-3.9,2.5-5.8c1.8-3.8,3.6-7.5,5.5-11.3C75.4,170.2,75.8,169.3,76.4,168z M148,163.2
			c-1.7,0-2.5,1.1-2.2,2.5c0.6,2.4,1.3,4.8,2.1,7.2c0.9,2.5,2,4.9,2.8,7.5c1,3.2,1.6,6.6,2.4,9.8c0.4,1.8,1.2,2.4,2.4,1.7
			c1.6-0.8,3.2-1.5,4.6-2.5c0.7-0.5,1.2-1.6,1.2-2.4c-0.1-1.3-0.7-2.5-1.3-3.7c-1.5-3.2-2.9-6.3-4.7-9.4c-1.9-3.3-4-6.5-6.1-9.8
			C148.9,163.7,148.3,163.4,148,163.2z"/>
		<path d="M150.8,209c0.2,3.6,0.5,7.2,0.7,10.8c0.1,2.6-0.9,4.9-2.1,7.2c-1.3,2.3-3.6,5.3-6.3,5.3c-2.6,0-10.1-2.4-10.9-6.7
			c-0.5-2.8-2.3-11.2-2.9-14.1c-0.1-0.7-0.4-1.3-0.4-2c-0.2-2.2,0.5-2.7,2.6-2.1c2.9,0.9,5.3-0.4,6.4-3.4c0.9-2.5,2.7-3,4.6-1.2
			c1.3,1.2,2.8,1.6,4.5,1.3c2.7-0.5,3.9,0.5,3.8,3.3C150.9,208,150.9,208.5,150.8,209C150.9,209,150.8,209,150.8,209z M148,208.3
			c-0.9-0.6-0.9,0.9-3.4,0.8s-3.2-2.1-4.1-1.9c-1.5,0.5-2.4,4.4-6.2,3.5c-1.2,0.4-1.5,0.9-1.2,2.1c0.6,2.7,1.1,5.4,1.6,8.1
			c0.2,0.9,0.5,1.7,0.8,2.6c0.8,2.2,2.8,3.1,4.8,4.1c1.8,0.9,3.9,1.1,5.5-0.6C148.6,224,149.2,222.6,148,208.3z"/>
		<path d="M107.7,239.3c-4.6,0.4-9.2-4.1-8.1-9.7c0.8-3.9,6.6-7.3,10.4-6c3.9,1.3,6.5,3.5,6.9,7.8c0.3,3.7-2,5.7-4.6,6.8
			C110.8,238.7,109.2,238.9,107.7,239.3z"/>
		<path d="M95.5,149.4c-1.7,0-2.8-1.4-2.9-3.3c0-1.4,1.8-2.7,3.7-2.8c1.4,0,2.8,1.4,2.8,2.8C99.2,148,97.7,149.4,95.5,149.4z"/>
		<path d="M115.5,149.9c-1.8-0.1-3.1-1.2-3-2.6c0.2-1.8,1.9-3.5,3.4-3.4c1.3,0.1,2.9,2.2,2.8,3.6C118.6,148.8,117.1,150,115.5,149.9
			z"/>
	</g>
</g>
</svg>
