<?xml version="1.0" encoding="utf-8"?>
<!-- Generator: Adobe Illustrator 19.1.0, SVG Export Plug-In . SVG Version: 6.00 Build 0)  -->
<svg version="1.1" id="Calque_1" xmlns="http://www.w3.org/2000/svg" xmlns:xlink="http://www.w3.org/1999/xlink" x="0px" y="0px"
	 viewBox="0 0 287.7 258.2" style="enable-background:new 0 0 287.7 258.2;" xml:space="preserve">
<style type="text/css">
	.st0{fill:#F4A300;}
	.st1{fill:#C0C0C0;}
	.st2{fill:#008A90;}
	.st3{fill:#6DA3C3;}
	.st4{fill:none;stroke:#F8AD3B;stroke-width:3;stroke-miterlimit:10;}
	.st5{fill:#F8AD3B;}
	.st6{fill:none;}
	.st7{fill:#E2F7EF;}
	.st8{fill:#FFFFFF;}
</style>
<g>
	<g>
		<path d="M0,128.6c1.9-3.8,3.6-7.4,5.4-10.9c5.2-9.7,10.4-19.4,15.6-29.1c2.3-4.3,4.3-8.8,6.7-13.1c4.5-8.1,9-16.3,13.8-24.2
			c6.2-10.2,12.8-20.1,19-30.2c2.5-4,4.4-8.3,6.6-12.4c1.1-2.1,2.5-4,3.7-5.9c2.3,0,4.2,0.3,6.1-0.1c6.5-1.2,13.1-1.5,19.7-1.3
			c2.9,0.1,5.8,0,8.7-0.1c1.7-0.1,3.4-0.4,5.1-0.5c5-0.3,10-0.8,15-0.7c9.7,0.2,19.4,0.8,29.1,1c8.4,0.2,16.8,0,25.2,0
			c6.5,0,13,0,19.5-0.1c2.2,0,4.4,0.4,6.5-0.8c0.5-0.3,1.3,0,2,0.1c0.3,0,0.6,0.4,0.8,0.4c3.3-0.5,4.2,2.1,5.8,4.1
			c6.6,7.9,12.2,16.6,17.7,25.3c4.3,6.8,8.2,13.7,12.4,20.5c2.9,4.8,6.1,9.4,9,14.2c5.6,9.2,11.1,18.5,16.4,27.9
			c4.9,8.6,9.6,17.2,14.4,25.9c1.1,2,2.1,4.1,3.1,6.1c0.8,1.6,0.7,3.1,0,4.6c-1.2,2.5-2.4,5-3.9,7.4c-3.1,5.3-6.4,10.6-9.6,15.9
			c-4.7,8-9.5,15.9-14.1,24c-2.3,4-4.1,8.2-6.3,12.3c-2.5,4.9-5,9.8-7.7,14.5c-4.2,7.4-8.6,14.6-12.9,21.9
			c-5.3,9-10.7,18.1-15.9,27.2c-1.1,1.8-2.5,2.8-4.5,3c-4,0.2-7.9,0.4-11.9,0.5c-3.4,0.2-6.8,0.3-10.2,0.5
			c-10.2,0.4-20.4,0.8-30.5,1.2c-4.3,0.2-8.6,0.5-12.9,0.5c-5.1,0.1-10.2,0-15.3,0c-8.6,0-17.2,0.1-25.7,0.1
			c-7.3-0.1-14.6-0.3-21.9-0.5c-2.1-0.1-4.2-0.3-6.3-0.1c-1.8,0.1-3.3-0.5-4.3-1.7c-1.3-1.6-3.8-2.1-3.9-4.6c-2.6-2-3.2-5.3-5.3-7.7
			c-2-2.4-3.4-5.2-5-7.8c-1.7-2.7-3.2-5.5-4.9-8.2c-2.7-4.5-5.3-8.9-8-13.4c-3.5-5.8-7.2-11.5-10.5-17.4
			c-5.4-9.6-10.6-19.2-15.9-28.9c-3.1-5.7-6-11.5-8.9-17.3C7.2,143.1,3.6,135.7,0,128.6z M280.7,126.8c-0.8-1.4-1.5-2.6-2.3-3.8
			c-1.5-2.5-3.1-4.9-4.6-7.4c-6.8-11.8-13.6-23.6-20.4-35.4c-7.1-12.3-14.2-24.6-21.4-36.8c-3.4-5.9-7-11.7-10.8-17.3
			c-2-2.9-3.8-5.8-5.6-8.8c-2.4-3.9-5.2-7.6-7.8-11.4c-0.9-1.3-2-1.7-3.6-1.4c-2.9,0.4-5.7,0.8-8.6,0.8c-4.1,0.1-8.2,0-12.3-0.3
			c-10.1-0.7-20.2-0.4-30.2-0.2C142.8,5,132.4,5,122,5.1c-7.2,0.1-14.4,0.4-21.6,0.6C93.2,6,86,6.5,78.8,6.6c-8.6,0.1-7-1.1-11,6.7
			c-1.6,3.1-3.1,6.3-4.9,9.3c-7.3,11.9-14.7,23.8-22,35.7c-1.6,2.6-3.1,5.4-4.6,8.1c-2.5,4.3-5.2,8.5-7.6,12.9
			c-5.5,10.4-10.8,20.9-16.3,31.4c-3.2,6.1-6.4,12.2-9.4,18.1c3.8,7.6,7.5,14.8,11.1,22.1c2.3,4.6,4.4,9.2,6.8,13.7
			c4.4,8.1,9,16,13.5,24c0.7,1.2,1.2,2.5,1.9,3.7c2.7,4.7,5.3,9.4,8.1,14c3.4,5.7,7,11.4,10.5,17.1c3.8,6.2,7.6,12.4,11.5,18.6
			c0.5,0.9,1.1,1.8,2.4,2.1c1.6-7.3,3.2-14.3,4.8-21.8c-1.4,0-2.2,0-3.1,0c-2.5,0-5,0-7.5-0.2c-2-0.1-2.4-0.8-2.3-2.7
			c0.1-1.4,0.2-2.8,0.2-4.2c0.2-3.5,1.2-4.6,4.8-4.7c0.8,0,1.6,0,2.4,0.1c2.6,0.2,5.1,0.4,7.8,0.6c0.3-0.8,0.6-1.4,0.8-2
			c1-3.7,1.9-7.4,2.8-11c3-11.7,6-23.4,9-35.1c1.6-6,3.4-11.9,4.8-18c1.4-6,3.1-11.8,5.5-17.4c0.1-0.2,0-0.6,0-0.9
			c-3.4-1.7-6.8-3.4-10.2-5c-8.2-3.9-15-9.4-19.1-17.8c-2.1-4.3-3.6-8.8-3-13.6c1.6-12.3,8.1-21.7,18.4-28.2
			c9.1-5.7,19.2-8.8,30-9.7c2-0.2,4,0.1,6,0.3c0.7,0.1,1.4,0.7,2.5,1.2c-5.1,0.7-9.7,1.3-14.2,2c-8.3,1.3-16.2,4.1-23.2,8.5
			C78.7,69,73.4,76,70.5,84.5c-1.3,3.8-2.3,7.8-1.4,11.8c1.5,6.2,4.3,11.7,9.2,15.8c10.7,8.8,22.9,14,36.9,13.7
			c13.3-0.2,26.3-1.8,38.9-6.5c9.8-3.6,18.4-9.1,25.7-16.6c5.7-5.9,9.2-12.7,10.7-20.7c0.6-3.4,0.8-6.8-0.6-10
			c-2.8-6.5-7.5-10.8-14.3-12.6c-3.6-1-7.3-1.4-10.9-2c-1.5-0.3-3-0.5-3.1-2.8c2.4,0.2,4.6,0.4,6.9,0.7c4.8,0.8,9.7,1.5,13.8,4.5
			c8,5.8,12,13.4,10.1,23.3c-0.9,4.9-2.6,9.7-5.2,14c-4.8,7.9-12.2,13.3-19.2,19.4c0.5,1.4,1.1,3,1.7,4.5c1.1,2.8,2.4,5.5,3.5,8.3
			c3,7.8,5.8,15.7,8.8,23.6c2.6,6.7,5.4,13.3,7.9,20c2.4,6.8,4.5,13.6,6.7,20.5c1.9,5.9,3.8,11.8,5.7,17.7c0.7,2.1,1.6,4,2.5,6.2
			c2.2-0.6,4.2-1.1,6.2-1.6c5.8-1.5,6.9-1,9.2,4.5c0.1,0.2,0.2,0.4,0.2,0.5c0.6,2.1,0.2,3.1-1.8,4c-0.8,0.4-1.6,0.7-2.5,1.1
			c-2.8,1.1-5.5,2.2-8.7,3.5c1.9,5.5,3.7,10.9,5.7,16.9c1-1.5,1.7-2.4,2.2-3.3c4-6.9,8-13.9,11.9-20.8c3.7-6.6,7.5-13.2,11.1-19.9
			c4.7-8.7,9.3-17.5,14.1-26.1c4.7-8.6,9.5-17.1,14.4-25.6c2.8-5,5.7-9.9,8.6-14.8C277.1,132.8,278.9,129.9,280.7,126.8z
			 M144.4,250.5c4.2,0,7.9,0.1,11.7,0c12.4-0.3,24.8-0.7,37.1-1c3.8-0.1,7.6-0.2,11.4-0.4c1-0.1,2.1-0.4,3.6-0.6
			c-8.5-27.4-16.9-54.5-25.3-81.6c0-0.1-0.3-0.2-0.6-0.4C170.5,194.8,156.6,222.1,144.4,250.5z M100.9,151.4
			c-1.2-0.1-2.2-0.3-3.1-0.3c-1,0-1.6,0.5-1.9,1.6c-1.1,4.4-2.3,8.7-3.4,13c-1.3,5.1-2.6,10.3-4.1,15.4c-2.5,8.5-5.3,17-7.1,25.7
			c-1.2,5.8-1.9,11.8-4.3,17.4c-0.7,1.5-1.3,3.1-1.7,4.8c-1.4,5.8-2.7,11.7-4.1,17.5c-0.3,1.1-0.1,1.8,0.4,2.8c1.1,2,3,2.2,4.9,2.3
			c3.4,0.1,6.8,0,9.8,0c8.9-16.7,17.6-33.1,26.1-49.1c-2.5-4.1-5-7.6-6.9-11.4c-3.2-6.3-6.5-12.6-8.4-19.5c-0.4-1.3-1.1-2.6-1.7-3.8
			c-1.2-2.3-1.6-4.6,0.1-7c1.7-2.4,3.1-5.1,4.6-7.6C100.3,152.6,100.5,152.1,100.9,151.4z M96.9,251.6c2.8,0.1,5.2,0.2,7.7,0.2
			c0.6,0,1.4-0.8,1.6-1.3c2.5-5.5,4.7-11.2,7.3-16.7c5.7-12.1,11.5-24.2,17.2-36.2c4.3-9.1,8.7-18.2,12.9-27.4
			c4.2-9.4,8.2-18.9,12-28.4c2.9-7.2,5.5-14.5,8.3-21.8c0.2-0.5,0.2-1.1,0.4-2c-3,1.3-5.6,2.5-8.1,3.6c-0.3,1.1-0.5,2.1-0.8,3
			c-0.9,2.5-2,5-2.8,7.6c-2.1,6.4-3.9,13-7,19.1c-3.4,7-6.8,14-10.2,21c-6.2,12.9-12.3,25.8-18.6,38.6
			c-5.3,10.8-10.9,21.6-16.3,32.4C99.3,245.8,98.2,248.6,96.9,251.6z M114.3,197.7c1.9-3.5,3.5-6.6,5.1-9.7c2.5-5,2.6-3.4,0.3-8.5
			c-0.2-0.4-0.3-0.7-0.4-1.1c-2.8-8.5-4.3-17.1-4.5-26c-0.1-4.7,0-9.4-0.1-14.1c0-1.6-0.2-3.1-0.3-5c-4.3,0-8.2,0-12.5,0
			c-1.2,3.8-2.5,7.8-3.8,11.9c2,0.6,3.7,1,5.4,1.6c3.3,1,3.4,1.3,3.3,5.1c-3,1.6-5,4.4-6.7,7.3c-1.6,2.6-2.4,5.1-1.4,8.5
			c3,9.9,7.7,18.8,13.2,27.4C112.5,195.8,113.3,196.6,114.3,197.7z M176.3,144.8c-0.2,0-0.4,0-0.6,0c-0.3,0.7-0.6,1.4-0.9,2.1
			c-3,7.7-6,15.5-9.2,23.1c-3.4,8-6.9,16-10.5,23.9c-2.6,5.6-5.3,11.2-8,16.8c-2.7,5.7-5.6,11.2-8.3,16.9c-2.6,5.5-5,11.1-7.5,16.6
			c-0.9,2-1.6,4.2-2.5,6.4c0.8,0.1,1.2,0.1,1.6,0.2c2.9,0.5,4.4-0.7,5.7-3.4c5.4-11.9,10.9-23.8,16.5-35.6
			c3.2-6.9,6.5-13.7,9.8-20.6c5.9-12.6,11.3-25.4,15.3-38.7c0.3-0.9,0.5-2,0.2-2.9C177.6,148,176.9,146.4,176.3,144.8z M138.3,250.6
			c1.6,0.6,2.3,0.2,2.8-0.9c1.5-3.4,3.2-6.6,4.8-10c7.2-15.7,14.3-31.5,21.5-47.2c3.1-6.7,6.1-13.5,9.1-20.2
			c1.5-3.4,2.7-6.9,4.3-10.2c1-2.1,0.9-3.9-0.7-5.9c-0.5,1.2-1,2.2-1.3,3.2c-0.8,2.3-1.3,4.6-2.2,6.8c-2.7,6.8-5.4,13.5-8.4,20.2
			c-4.5,10.2-9.2,20.4-14,30.5c-4.2,9-8.6,18-12.9,27.1C140.2,246,139.3,248.2,138.3,250.6z M121.4,175.9c2.1-9.1,4.2-18.1,5.6-27.2
			c-1.6-0.8-2.9-1.4-4.1-2c-1.6,2.6-3.3,5.1-4.8,7.7c-0.4,0.7-0.5,1.7-0.4,2.6c0.6,4.4,1.2,8.9,1.9,13.3
			C120,172.2,120.8,174,121.4,175.9z M152.6,123.5c-0.2-0.1-0.5-0.2-0.7-0.3c-1.4,2.9-2.9,5.8-4.2,8.8c-2.7,6.3-5,12.8-7.8,19.1
			c-4.8,10.8-9.8,21.6-14.9,32.3c-2.1,4.5-4.6,8.8-6.9,13.3c-0.8,1.5-1.4,3.1-2,4.7c-0.2,0.5,0.2,1.2,0.3,1.8
			c1.3-1.4,2.1-2.9,2.8-4.4c4.7-9.8,9.4-19.6,14.1-29.4c4.7-9.7,9.8-19.2,13.4-29.4c1.3-3.6,2.5-7.2,3.7-10.7
			C151.2,127.4,151.9,125.5,152.6,123.5z M116.5,204c-2.2,0.2-2.6,1.5-3.1,2.5c-2.6,5.1-5.1,10.4-7.8,15.4
			c-4.3,8.1-8.8,16.1-13.1,24.2c-0.9,1.7-1.7,3.4-2.6,5.2c3.9,0.4,3.8,0.4,4.6-3c0.3-1.1,0.8-2.3,1.3-3.3c1.5-2.9,3.1-5.8,4.5-8.7
			c4.3-8.3,8.5-16.7,12.8-25.1C114.2,209.1,115.2,206.8,116.5,204z M117.3,146.3c0.2,0.1,0.5,0.2,0.7,0.3c3-4.4,6.8-8.4,9.4-13.7
			c-3.6,0.2-6.9,0.3-10.1,0.5C117.3,138,117.3,142.2,117.3,146.3z M132.7,132.2c2.9,2.9,5.5,5.4,8.3,8.1c1.3-3.7,3.2-6.7,3.8-10.5
			C140.7,130.6,136.9,131.4,132.7,132.2z"/>
		<path d="M137.4,87.5c1.4-0.1,3.2,1.9,3.4,3.7c0.1,1.3-1.8,2.9-3.6,2.9c-1.6,0-2.8-1.2-2.9-2.8C134.2,89.5,135.8,87.6,137.4,87.5z"
			/>
		<path d="M112.8,90.7c0-1.7,1.3-3.1,2.7-3c1.1,0.1,2.5,1.7,2.5,3c0,1.4-1.4,2.9-2.9,2.9C113.7,93.6,112.7,92.4,112.8,90.7z"/>
	</g>
	<path id="" class="st0" d="M144.4,250.5c4.2,0,7.9,0.1,11.7,0c12.4-0.3,24.8-0.7,37.1-1c3.8-0.1,7.6-0.2,11.4-0.4c1-0.1,2.1-0.4,3.6-0.6
		c-8.5-27.4-16.9-54.5-25.3-81.6c0-0.1-0.3-0.2-0.6-0.4C170.5,194.8,156.6,222.1,144.4,250.5z"/>
	<path id="" class="st0" d="M100.9,151.4c-1.2-0.1-2.2-0.3-3.1-0.3c-1,0-1.6,0.5-1.9,1.6c-1.1,4.4-2.3,8.7-3.4,13
		c-1.3,5.1-2.6,10.3-4.1,15.4c-2.5,8.5-5.3,17-7.1,25.7c-1.2,5.8-1.9,11.8-4.3,17.4c-0.7,1.5-1.3,3.1-1.7,4.8
		c-1.4,5.8-2.7,11.7-4.1,17.5c-0.3,1.1-0.1,1.8,0.4,2.8c1.1,2,3,2.2,4.9,2.3c3.4,0.1,6.8,0,9.8,0c8.9-16.7,17.6-33.1,26.1-49.1
		c-2.5-4.1-5-7.6-6.9-11.4c-3.2-6.3-6.5-12.6-8.4-19.5c-0.4-1.3-1.1-2.6-1.7-3.8c-1.2-2.3-1.6-4.6,0.1-7c1.7-2.4,3.1-5.1,4.6-7.6
		C100.3,152.6,100.5,152.1,100.9,151.4z"/>
	<path id="" class="st0" d="M114.3,197.7c1.9-3.5,3.5-6.6,5.1-9.7c2.5-5,2.6-3.4,0.3-8.5c-0.2-0.4-0.3-0.7-0.4-1.1
		c-2.8-8.5-4.3-17.1-4.5-26c-0.1-4.7,0-9.4-0.1-14.1c0-1.6-0.2-3.1-0.3-5c-4.3,0-8.2,0-12.5,0c-1.2,3.8-2.5,7.8-3.8,11.9
		c2,0.6,3.7,1,5.4,1.6c3.3,1,3.4,1.3,3.3,5.1c-3,1.6-5,4.4-6.7,7.3c-1.6,2.6-2.4,5.1-1.4,8.5c3,9.9,7.7,18.8,13.2,27.4
		C112.5,195.8,113.3,196.6,114.3,197.7z"/>
</g>
</svg>
