<?xml version="1.0" encoding="utf-8"?>
<!-- Generator: Adobe Illustrator 19.1.0, SVG Export Plug-In . SVG Version: 6.00 Build 0)  -->
<svg version="1.1" id="Calque_1" xmlns="http://www.w3.org/2000/svg" xmlns:xlink="http://www.w3.org/1999/xlink" x="0px" y="0px"
	 viewBox="0 0 287.9 252.2" style="enable-background:new 0 0 287.9 252.2;" xml:space="preserve">
<style type="text/css">
	.st0{fill:#E01220;}
	.st1{fill:#1F7CAD;}
	.st2{fill:#C0BFBF;}
	.st3{fill:#1F7CAD;stroke:#000000;stroke-width:2;stroke-miterlimit:10;}
	.st4{fill:#6DA3C3;}
	.st5{fill:none;stroke:#E01220;stroke-width:3;stroke-miterlimit:10;}
	.st6{fill:#F5FBF9;}
	.st7{fill:#1D1D1B;}
</style>
<g>
	<path id="" d="M69.6,163.3c-1.2,3.6-2.5,7.6-3.9,11.6c-1.7,4.9-3.6,9.8-5.2,14.7c-2.3,6.9-4.5,13.8-6.8,20.7
		c-0.4,1.1-0.3,1.9,0.2,2.8c4.5,8.1,8.2,16.5,11.4,25.2c0.5,1.5,1.4,2.8,2.2,4.2c0.7,1.2,1.5,1.9,3.1,1.7c1.7-0.2,3.5-0.3,5.3-0.3
		c5.9-0.1,11.8-0.2,17.7-0.3c7.3-0.1,14.5-0.2,21.8-0.3c5.1-0.1,10.2,0,15.3-0.1c7.6-0.2,15.1-0.6,22.7-0.9c1.2,0,2.3-0.1,3.6-0.1
		c-0.1-0.9,0-1.4-0.2-2c-1.1-5.2-2.4-10.4-3.4-15.6c-1.7-8.6-3.2-17.2-5-25.7c-2.4-11.2-4.9-22.5-7.4-33.7c-0.4-1.6-1.1-3-1.6-4.4
		c-4.6,1.4-8.9,2.7-13.3,3.9c-4.6,1.2-9.4,2-14.2,2c-5.1,0-10.2,0.1-15.3,0.1c-1.3,0-2.6,0-3.8-0.1c-3.4-0.3-6.8-0.6-10.2-1.1
		C78.2,164.9,74,164.1,69.6,163.3z"/>
	<path d="M72.5,0.5c19.1-0.6,38.2-0.6,57.4-0.3c14.3,0.3,28.7,0.2,43,0.4c4.2,0,8.5,0.2,12.7,0.3c2.5,0,5.1-0.2,7.6-0.1
		c6.2,0.2,12.4,0.4,18.6,0.7c0.6,0,1.2,0.2,1.8,0c2.4-0.7,3.9,0.6,5.2,2.4c2.1,2.9,3.9,5.8,5.1,9.2c1.3,3.7,3.3,7.1,5.2,10.6
		c4.1,7.6,8.1,15.3,12.3,22.9c3,5.4,6.2,10.7,9.3,16.1c4.6,8.2,9.3,16.5,13.8,24.7c4,7.2,7.9,14.5,12,21.7c2.4,4.3,5,8.5,7.4,12.8
		c1.3,2.3,2.4,4.7,3.6,7c0.9,1.7,0.5,3.2-0.4,4.7c-4.6,7.9-9.2,15.8-13.9,23.7c-1.9,3.1-4,6.1-5.9,9.2c-3.1,4.9-6,9.9-9.1,14.9
		c-3.1,4.9-6.3,9.7-9.4,14.6c-1.9,2.9-3.5,5.9-5.5,8.7c-3.9,5.6-7.9,11-11.8,16.5c-2.8,3.9-5.4,8-8,12c-2.9,4.3-5.7,8.7-8.6,13
		c-0.5,0.8-1.2,1.6-1.6,2.5c-1.1,2.5-3.1,3.5-5.6,3.5c-7,0-14,0.2-20.9,0c-9.3-0.3-18.6-0.9-28-1.3c-3.9-0.2-7.8-0.4-11.7-0.4
		c-5.4,0-10.7,0.3-16.1,0.4c-4.9,0.1-9.8,0.2-14.7,0.1c-4.2-0.1-8.4-0.6-12.6-0.7c-4.3-0.1-8.6,0.2-12.8,0.3c-2.5,0-4.9,0-7.4,0
		c-3.9,0-7.9,0-11.8-0.1c-3.3-0.1-5-1.6-6.4-4.9c-4.1-9.9-8-19.9-13.2-29.3c-6.3-11.4-12.6-22.9-18.8-34.4c-1.4-2.6-2.6-5.3-4-7.9
		c-4.9-9.1-9.7-18.2-14.9-27.2c-4.2-7.3-8.8-14.4-13.3-21.6c-1-1.6-1.3-3.1-0.3-4.8c2.1-3.8,4.4-7.5,6.2-11.4
		c2.5-5.3,5.9-9.9,9-14.7c3-4.8,6.4-9.5,9.4-14.3c5.5-8.6,11-17.3,16.3-26c5.4-8.8,10.7-17.7,15.8-26.6c4-6.9,7.7-14,11.5-20.9
		C69.9,4.5,71.1,2.7,72.5,0.5z M150.8,161.3L150.8,161.3c-2.8-1-5.7-2.1-8.8-3.2c1.1,4,2.1,7.8,3.1,11.7c0.7,2.7,0.7,2.6,3.4,2.5
		c3.1-0.1,6.3-0.6,9.2-1.5c3.7-1.1,6.8-3.2,9.3-6.5c-1.4-0.2-2.4-0.4-3.5-0.6c-1.1-0.2-2.3-0.4-3.6-0.7c0,0.5,0.1,0.9-0.1,1.2
		c-0.3,0.6-0.8,1.2-1.2,1.8c-0.6-0.5-1.2-0.9-1.7-1.4c-0.1-0.1-0.2-0.3-0.3-0.5c-0.4-1.8-1.7-2.2-3.2-2.4
		C152.5,161.6,151.6,161.4,150.8,161.3z M54.8,141.7c0.5,0.5,1,1.1,1.5,1.6c0.2-0.2,0.3-0.4,0.5-0.5c-0.3-0.2-0.7-0.4-1-0.6
		C55.5,142,55.1,141.9,54.8,141.7c-0.3-0.5-0.5-1.2-0.9-1.7c-2.2-3-4.1-6.2-5.4-9.8c-2.1-5.6-3.6-11.3-3.8-17.2
		c-0.2-4.3-0.2-8.7,0.6-12.9c0.5-2.7,0.6-5.2-0.5-7.8c-2.4,1.2-4.9,1.6-7.6,1.4c-2.6-0.2-5.3-0.2-8-0.3c-1,2.6-2,5-3,7.5
		c0.9,0.3,1.9,0.4,2.7,0.8c6.1,2.9,10.8,7.1,13.4,13.4c1.7,4.1,2.4,8.3,1.2,12.7c-1.5,5.4-4.7,9.7-9.5,12.6c-1.6,1-2.2,2.1-1.7,3.9
		c0.8,3.2,1.6,6.5,2.5,9.7c0.7,2.8,1.5,5.5,2.1,8.3c0.9,3.9,1.7,7.7,2.6,11.6c0.2,0,0.3,0,0.5,0c0.8-1.9,1.6-3.7,2.4-5.7
		c-3.6-2.7-4.8-6.5-5.2-10.6c-0.4-5,2.7-12.1,8.3-14.4C48.6,142,51.6,141.6,54.8,141.7z M145.3,141.5c-4.2,0.4-7.7,0.6-11.3,1
		c-2.6,0.3-5.4-0.8-5.2-3.9c0-0.7-0.1-1.4-0.1-2c0-2.8,0-5.5,0-8.3c0-7.2,0-14.5,0-21.7c0-3.7,0-7.5,0-11.2
		c0.1-8.2,0.2-16.3,0.2-24.5c0-4.1-0.5-8.2-0.8-12.3c-0.1-1.6-0.9-2.5-2.5-3.2c-3.5-1.5-7.1-1.2-10.7-1.7
		c-5.8-0.8-11.5-0.7-17.3-0.2c-8,0.7-15.4,3.2-22.1,7.4c-5.4,3.4-10.6,7-14.4,12.4c-4.5,6.3-7.8,13.2-10.4,20.4
		c-2.7,7.4-3.9,15-2.6,22.9c0.4,2.6,1.4,5.1,1.9,7.7c1.1,5.1,3,9.7,6.4,13.7C63,146,71.4,151.2,81.5,154c5.5,1.5,11.3,1.8,16.9,2.2
		c7.3,0.6,14.5-0.7,21.7-1.9c6.1-1.1,11.7-3.3,17.1-6.3C140.1,146.4,142.4,144,145.3,141.5z M69.6,163.3c-1.2,3.6-2.5,7.6-3.9,11.6
		c-1.7,4.9-3.6,9.8-5.2,14.7c-2.3,6.9-4.5,13.8-6.8,20.7c-0.4,1.1-0.3,1.9,0.2,2.8c4.5,8.1,8.2,16.5,11.4,25.2
		c0.5,1.5,1.4,2.8,2.2,4.2c0.7,1.2,1.5,1.9,3.1,1.7c1.7-0.2,3.5-0.3,5.3-0.3c5.9-0.1,11.8-0.2,17.7-0.3c7.3-0.1,14.5-0.2,21.8-0.3
		c5.1-0.1,10.2,0,15.3-0.1c7.6-0.2,15.1-0.6,22.7-0.9c1.2,0,2.3-0.1,3.6-0.1c-0.1-0.9,0-1.4-0.2-2c-1.1-5.2-2.4-10.4-3.4-15.6
		c-1.7-8.6-3.2-17.2-5-25.7c-2.4-11.2-4.9-22.5-7.4-33.7c-0.4-1.6-1.1-3-1.6-4.4c-4.6,1.4-8.9,2.7-13.3,3.9c-4.6,1.2-9.4,2-14.2,2
		c-5.1,0-10.2,0.1-15.3,0.1c-1.3,0-2.6,0-3.8-0.1c-3.4-0.3-6.8-0.6-10.2-1.1C78.2,164.9,74,164.1,69.6,163.3z M247.9,128.5
		c0.1-8.5,0.2-17.2,0.2-25.8c0-4.1-0.3-8.3-0.4-12.4c-0.1-2.6-0.2-5.1-0.4-7.7c-0.4-4.8-0.8-9.6-1.3-14.4c0-0.4,0-0.8-0.2-1.1
		c-2.3-4.3-4.6-8.6-6.7-12.4c-1.9-0.2-3.2-0.4-4.5-0.5c-0.6-0.1-1.2-0.2-1.8-0.2c-2.7-0.1-5.3-0.1-8-0.1c-5.7,0.1-11.4,0.3-17.1,0.4
		c-3.2,0.1-6.3-0.1-9.5,0c-7.7,0.4-15.4,0.9-23.2,1.2c-10.6,0.4-21.1,0.6-31.7,0.9c-4.1,0.1-8.2,0.5-12.2,0.8
		c-0.1,0.6-0.3,0.8-0.2,1.1c0.3,3.4,0.8,6.8,0.9,10.3c0.2,6.7,0.3,13.3,0.3,20c0,6.2-0.2,12.4-0.4,18.6c0,2.1-0.2,4.1-0.2,6.2
		c0,4.9,0,9.8,0.1,14.7c0.1,3.3,0.2,6.6,0.4,10.2c1.7,0.1,3.1,0.2,4.6,0.1c5.7-0.4,11.4-0.9,17-1.5c8.9-1,17.8-2.1,26.7-3
		c10.2-1,20.4-1.8,30.5-2.6C223.1,130.5,235.2,129.5,247.9,128.5z M197.2,193.6c-0.9,0.3-1.4,0.7-2,0.7c-1.1,0.1-2.1-0.1-3.2-0.1
		c-3-0.1-5.9,0-8.9-0.2c-2.2-0.1-3.1-1-3.6-3.2c-0.1-0.7-0.1-1.4-0.2-2.1c-0.4-4.6-0.7-9.1-1.1-13.8c-3,0-5.3,1.5-7.5,2.8
		c-4.8,2.7-8.5,6.3-8.9,12.3c-0.2,3,0.1,5.8,1.4,8.5c2.4,4.7,5.7,8.4,10.4,10.9c1.1,0.6,2.3,0.7,3.5,1.2c1.9,0.7,3.8,1.6,5.7,2.2
		c6.3,1.7,12.5,1.1,18.5-1.1c1.3-0.5,2.6-0.9,3.8-1.6c2-1.2,3.9-2.6,5.8-4c3.8-2.9,7.1-6.2,8-11.2c0.7-3.6,0.3-6.9-1.5-10
		c-2.8-5-7.4-6.7-12.7-7.5c-0.8-0.1-1.6-0.1-2.3-0.3c-1.8-0.7-3.7-0.4-5.9-0.6C196.9,182.4,197,187.9,197.2,193.6z M257.4,166
		c1.1-1.7,2.3-3.5,3.4-5.3c3.4-5.9,6.7-11.8,10-17.7c2-3.5,3.5-7.3,5.9-10.5c2.6-3.5,2.1-6.4-0.4-9.4c-0.1-0.1-0.3-0.3-0.4-0.4
		c-7.2-2.6-14.2-1.9-21,1.2c-0.3,2.7-0.5,5.2-0.7,7.8c-0.3,2.6-0.7,2.8-3.4,2.6c-1.3-0.1-2.5,0.1-3.8,0.2c-0.8,0.1-1.7,0.3-2.5,0.4
		c-1.8,0.1-3.7,0.1-5.6,0.1c-0.3,0.6-0.4,1.1-0.7,1.4c-0.3,0.5-0.8,0.8-1.2,1.3c-0.5,0.6-1.1,1.2-1.4,1.9
		c-2.4,6.8-2.8,13.4,1.9,19.6c0.8,1.1,1.5,2.4,2.5,3.3c3,2.8,6.3,5,10.7,4.4C252.9,166.5,255.1,166.3,257.4,166z M14.5,141.3
		c2-0.2,3.9-0.5,5.8-0.6c5.2-0.2,10.1-1.2,14-5.1c0.5-0.5,1.2-0.7,1.6-1.3c1.2-1.7,2.7-3.3,3.2-5.2c0.7-2.7,1-5.6,1-8.4
		c0-4.7-2-8.4-5.7-11.4c-3.3-2.7-7.4-3.2-11.3-3.9c-2.9-0.6-5.8-0.7-8.8,0.1c-1.4,0.4-2.4,1-3.2,2.3c-2.7,5-5.4,9.9-8.2,15
		C6.8,129,10.6,135.1,14.5,141.3z M167.1,242c0.6,0.1,1.2,0.2,1.8,0.2c6.4,0.1,12.8,0.2,19.2,0.3c5,0.1,9.9,0.2,14.9,0.2
		c1.2,0,2.3-0.1,3.1-1.3c2.9-4.2,5.8-8.4,8.7-12.6c0.4-0.5,0.7-1.3,0.5-1.9c-1.3-3.9-2.8-7.7-4.2-11.7c-1.7,0.7-3.1,1.3-4.5,2
		c-6.4,3-13.3,3.5-20.2,3.4c-4-0.1-7.9-0.8-11.7-1.2C172.1,227,169.6,234.4,167.1,242z M221.4,135.9c0,0.2,0,0.4,0,0.6
		c0.3,0.2,0.6,0.5,0.9,0.7c0.3,0.2,0.6,0.5,1,0.7c4,2.8,5.9,6.7,6.5,11.4c0.1,0.8,0.1,1.6,0.2,2.4c0.2,1.4-0.2,2.5-1.2,3.5
		c-0.6,0.6-1.1,1.4-1.8,2c-1,1-1.4,2.1-1.1,3.4c0.9,4.2,1.1,8.4,1,12.6c-0.1,3.3,0.3,6.7-0.1,10c-0.4,4.1-1,8.2-4,11.4
		c-0.4,0.4-0.4,1.1-0.6,1.6c-1.2,4.5-3.4,8.3-7.1,11.3c-1,0.8-2.1,1.7-3.2,2.6c1.9,5,3.7,9.8,5.6,14.8c6.7-9.7,13.2-18.9,19.5-28
		c-1.6-5.2,0.1-10,0.9-14.7c0.9-4.9,2.4-9.7,3.6-14.7c-5-3.3-8.5-8.4-10-14.3c-1.5-6-1-12.2,2.9-18.1
		C229.7,135.4,225.6,135.7,221.4,135.9z M173.9,213.2c-0.7-0.5-1.1-0.7-1.5-1c-4.2-3-8.1-6.2-10.6-10.9c-1.8-3.4-3.2-6.8-3-10.6
		c0.3-5,2.1-9.3,6-12.6c0.3-0.2,0.4-0.6,0.7-1.1c-0.3-0.6-0.7-1.2-1-1.9c-5.2,3.8-10.8,5-16.8,4.9c0.1,3.7,11.8,58.6,13.1,61.7
		c1,0,2,0.1,2.9,0.1C167.2,232.3,170.5,222.8,173.9,213.2z M61.3,26.6c1.2-0.1,1.9-0.3,2.6-0.2c1.5,0.1,3.2,0,4.6,0.5
		c4.6,1.6,7.6,5,9.2,9.6c1.3,3.6,0.6,6.7-1.9,9.6c-1.1,1.2-2.2,2.5-3.3,3.8c0.9,2.4,0.8,5.1,2.3,7.3c2-1.2,3.8-2.3,5.1-3.1
		c1.6-8.3,3.1-16,4.7-24c-0.3-0.4-1-1.1-1.4-1.8c-3.1-4.7-3.9-9.4-0.7-14.6c3.8-6.1,11.9-9.1,18.4-8.2c0.8,0.1,1.6,0.4,2.3,0.2
		c1.6-0.4,2.9-0.1,4.1,0.9c0.4,0.3,1.1,0.5,1.6,0.6c1.3,0.2,2.7,0.4,4.1,0.6c0.7-1.5,1.5-3.1,2.5-5.1c-13.9,0.2-27.4,0.3-41,0.5
		C70.2,10.9,65.9,18.5,61.3,26.6z M165,52.6c2-0.9,2-0.9,2.4-1.8c0.6-1.5,1-3.3,1.9-4.6c2.9-4.1,6.9-6.7,11.9-7.3
		c3.6-0.4,7.2-0.4,10.9-0.1c1.7,0.1,3.4,1,4.9,1.8c1.6,0.8,2.9,2.1,4.6,3.3c-0.9-8.6-3.8-16.2-7-23.5c-1.3,0.4-2.4,1-3.6,1.1
		c-4.8,0.5-9.5,1-14.3,1.4c-2.4,0.2-4.9,0.1-6.9-2.2C165.3,31.1,165.5,41.7,165,52.6z M97,30.6c5.3,0,11.2-1.2,15.8-6.1
		c1.1-1.1,2.2-2.3,2.9-3.6c1.9-3.5-0.2-8.9-4-9.9c-3.2-0.8-6.6-1-9.8-1.4c-1.3-0.2-2.9-0.1-4-0.7c-1-0.6-1.9-0.5-2.8-0.2
		c-2.4,0.9-4.8,1.8-6.9,3.1c-2.7,1.6-4,4.4-4.9,7.2c-0.9,3.1,1.3,7.6,4.1,9.4C90.1,30.1,92.9,30.8,97,30.6z M134.6,39.3
		c3.3-0.5,6.8-1.1,10.3-1.7c3.7-0.6,6.7-2.6,9.5-5c3.1-2.7,3.9-8.8-0.8-11.8c-1.4-0.9-3.2-1.8-4.8-2c-3.2-0.4-6.4-0.3-9.6-0.4
		c-1.9-0.1-3.8,0.3-5.5-0.3c-1.5-0.5-2.5-0.2-3.5,0.6c-4.2,3.2-7.4,7-6.6,12.9c0.4,2.8,2,5.6,4.6,6.3
		C130.1,38.4,132.2,38.8,134.6,39.3z M40.2,157.3c-0.8,5.5,3.8,10.2,9.6,10.9c1.3,0.2,2.5,0.5,3.8,0.5c5.6,0,11.5-2,13-9.5
		c0.7-3.6,0.1-7.2-3-9.9c-3.6-3.2-8.4-2.7-12.4-4.6c-0.1,0-0.2,0-0.3,0.1C44.5,145.7,39.5,152.3,40.2,157.3z M114.8,32.2
		c-9.2,6.2-18.6,5.7-28.2,3.6c-1,2.3-3.2,15-3,16.9c11.3-3.7,22.9-3.9,34.9-2.6C117.3,44.1,116.1,38.4,114.8,32.2z M136.5,3.1
		c-5.9,0-11.7,0-17.7,0c-1.1,2-2.3,4-3.4,6.1c4.8,6.2,6.1,12.2,0.1,18.2c3.1,7.5,4.7,15.1,5.8,23c0.6,0.2,1.6,0.4,2.6,0.7
		c1.2-3.2,2.3-6.4,3.4-9.5c-2.2-1.2-6.1-5.1-6.6-6.9c-0.8-3.1-0.8-6.2,0.1-9.3c1.4-4.9,5-7.9,9.2-10.2c1.6-0.8,3.4-1.3,5.3-0.3
		c1.4,0.8,2.8,0.3,4.5-0.2C138.7,10.7,137.6,7,136.5,3.1z M210.3,50.9c-1.4-7.9-2.2-15.8-1.3-23.8c0.7-6.1,1.1-12.3,3.6-18.1
		c0.4-0.9,0.5-1.8-0.2-2.7c-0.5-0.6-0.8-1.3-1.2-1.9c-1.7-0.2-3.4-0.6-5-0.7c-1.6-0.1-3.3,0-4.9-0.1c-0.7,7.1-2.2,8.2-5.9,11.7
		c2,4.1,4.1,8.2,6.1,12.3c0.5,1,1,2,1.2,3c0.8,3.5,1.6,7.1,2,10.7c0.2,1.8,0,3.9-0.9,5.4c-1,1.7-0.6,2.8,0.1,4.3
		C206.1,50.9,208.2,50.9,210.3,50.9z M47.5,50.5c0.9,1.8,2.4,1.6,3.7,1.6c2.5-0.1,4.9-0.1,7.4-0.3c5.9-0.5,10.6-3.4,14.3-7.9
		c3.1-3.7,2.8-7.5-0.4-11.1c-0.1-0.1-0.2-0.3-0.4-0.4c-2.8-2.1-5.6-4-9.4-2.7c-0.9,0.3-2,0.3-3.1,0.4C55.6,36.7,51.5,43.6,47.5,50.5
		z M215.3,137.8c-2.3,0.5-4.6,0.9-6.8,1.5c-0.9,0.2-1.6,1.5-2.4,1.5c-2.5,0-2.9,1.9-3.3,3.4c-0.9,3.8,0.6,10.1,5.6,12.1
		c1,0.4,1.9,1,3,1.3c4.1,1.3,8.2,1.3,11.8-1.4c1.8-1.3,3.6-2.9,3.7-5.4c0.1-4.2-0.9-7.9-4.6-10.6
		C220.2,138.8,217.9,138.2,215.3,137.8z M57.9,174.4c-4.9-0.7-9.5-1.3-14.3-2c-1.2,3.8-3.5,7.4-2.1,11.7c0.2,0.5,0,1.2,0.1,1.8
		c0.6,2.1-0.5,4.4,0.8,6.5c2.4,3.9,4.6,7.9,7.1,12.1c1.9-5,3.7-9.7,5.5-14.4C56.8,185.2,57.6,180.1,57.9,174.4z M169,160.8
		c0.3-0.4,0.5-0.7,0.5-0.9c1.2-4.9-2-14-9.1-16c-1.8-0.5-3.7-0.5-5.6-0.3c-4.3,0.5-8.8,0.9-11.9,4.5c-0.8,0.9-1.5,1.8-2.3,2.8
		C149.3,155.6,158.6,159.7,169,160.8z M162.1,52.5c0.3-13.4,0.3-26.4,7-37.9c-1.4-1.9-2.9-3.5-3.8-5.4c-0.9-1.8-1.1-3.9-1.5-5.9
		c-0.6,0.4-0.8,0.9-0.8,1.3c-0.1,3.2-0.1,6.5-0.4,9.7c-0.2,3.2-0.5,6.5-2.6,9.2c-0.7,0.9-0.4,1.8-0.3,2.8c0.1,3.6-0.4,7.1-3.7,9.4
		c-2.1,1.5-4.1,3-6,4.4c0.9,4.2,1.7,8.5,2.6,12.8C155.7,52.9,158.8,52.7,162.1,52.5z M254.1,85.1c0.2,6.1,0.4,11.9,0.5,17.6
		c0.1,5.7,0.1,11.4,0.2,17.3c6.5-1.9,12.7-3.5,19.3-1.4C267.4,107.4,260.8,96.4,254.1,85.1z M35,71.1c-1.9,2.9-4.1,6-6.1,9.2
		c-1,1.6-0.7,4.5,0.6,5.1c2.5,1.2,5,2.3,7.6,2.9c3.4,0.7,6.3-1,9-2.8c3.1-2,4.4-5,4.4-8.5c0-2.2-0.8-4.3-2.9-5.1
		c-2.4-0.9-5.1-1.2-7.7-1.4C38.5,70.3,36.9,70.8,35,71.1z M185.7,4.1c-1.7-0.1-3.4-0.1-5.3-0.2c0.1,1.6,0.9,3.2-1.7,3.9
		c-0.5-1.3-1-2.6-1.6-4c-3.4-0.1-7-0.2-10.5-0.4c0.2,1.1,0.3,2,0.6,3c1.1,3.7,3.4,6.6,7,7.7c4.6,1.4,9.3,1.3,14,0
		c1.9-0.5,3.9-1.1,5.4-2.2c2.7-1.9,4.9-4.2,4.3-7.9c-3.1-0.1-6-0.2-8.7-0.3c-0.7,1.3-1.2,2.4-1.7,3.4c-0.3,0-0.5,0-0.8,0
		C186.4,6.1,186.1,5.2,185.7,4.1z M70.8,55.1C63.1,57,55.7,59,47.7,57.8c-0.6,3.5-1.2,6.6-1.8,9.8c4,1.8,7.5,3.8,9.5,7.9
		c4.3-7.3,9.9-12.8,17-16.9C71.8,57.3,71.3,56.2,70.8,55.1z M201.7,173.8c9.4-0.2,15.8,3.9,19.7,12.5c1.5-7.5,1.8-14.6,1.1-21.9
		c-5.8-0.2-11.3-0.4-17-0.6C204.3,166.9,203.1,170.2,201.7,173.8z M170.2,52.3c10.3-0.4,20.3-0.9,30.4-1.3c-0.3-4.6-3.3-8.1-7.7-8.8
		c-2.7-0.4-5.4-0.2-8.2-0.3c-4-0.1-7.5,1.3-10.5,3.9C172.3,47.4,170.8,49.3,170.2,52.3z M216.6,50.7c5.6,0,11,0,16.3,0.1
		c1.3,0,2.5,0.3,4,0.4c-3.3-6-6.6-12.1-10-18.5c-1.1,0.2-2.3,0.1-3.3,0.6c-2.2,1-3.9,2.6-5.2,4.6C215.7,41.8,215.6,46.1,216.6,50.7z
		 M142.6,14.8c2.3,0.2,4.8,0,7.1,0.7c2.4,0.7,4.5,2.2,6.7,3.4c2-3.2,3.6-12,2.6-15.7c-6.4,0-12.9,0-19.7,0
		C140.4,7.1,141.4,10.8,142.6,14.8z M193.8,190.6c-0.1-4.7-0.2-9-0.4-13.3c0-0.9-0.6-1.7-1-2.5c0.3-0.6,0.7-1.2,1.2-2.1
		c-4.3-0.6-8.1-0.6-12.2,0.1c0.5,6.2,1,12.1,1.4,18C186.8,191.8,190.2,190.6,193.8,190.6z M225.3,29.1c-3.3-6.1-6.5-12-10.1-17.9
		c-3.5,7.5-4.8,34.1-1.5,39.9c-0.8-4.9-1.4-9.3,0.9-13.6C216.8,33.3,219.8,30.1,225.3,29.1z M29,146.7c-3.2,0.8-6.4,1.6-9.5,2.3
		c5.5,10.3,11.1,20.8,16.7,31.3C36.4,178,30.3,149.9,29,146.7z M192.7,144.3c-4.2,0.4-8.1,0.7-12.1,1.1c0.2,5,0.3,9.7,0.5,14.4
		c4.1,0.9,7.8,0,11.9-0.5C192.9,154.4,192.8,149.6,192.7,144.3z M177.4,138.9c-5.8,0.4-11.1,0.7-16.5,1c-0.1,0.2-0.2,0.4-0.3,0.6
		c9.1,3.9,12.6,11.1,12.3,20.7c1.6,0.3,3.2,0.6,4.9,0.9C177.6,154.1,177.5,146.6,177.4,138.9z M149.4,52.8c-0.3-3.5-0.7-6.6-1.9-9.6
		c-6,2.6-12,3.4-18.2,1.5c-0.9,2.5-1.7,4.9-2.4,6.9c1.6,2,3.4,2.3,5.4,2.2c3.3-0.2,6.7-0.3,10-0.5C144.6,53.2,146.8,53,149.4,52.8z
		 M196.5,158.8c3.3,0.3,3.2,0.3,4,3.2c0.3,1.2,0.8,2.5,1.3,4c1.2-3.1,2.2-5.9,3.1-8.5c-3.4-3.7-5.4-7.7-4.9-12.6
		c0.3-3.3,1.6-6.1,5.2-7c0.3-0.1,0.6-0.5,1.3-1c-3.7,0.1-6.9,0.2-10.2,0.3C196.3,144.6,196.4,151.6,196.5,158.8z M243.8,172.3
		c-2.7,6.4-4.2,14.6-3.8,20.5c4.3-6.5,8.5-12.8,12.9-19.4C249.5,173.5,246.5,174.6,243.8,172.3z M25.8,84.7
		c-3.9,5.6-7.6,10.8-10.9,16.9c3.2-0.4,5.9-0.7,8.9-1c1.3-4.2,2.6-8.6,4-13C27.3,86.8,26.7,86.1,25.8,84.7z M167.3,175.7
		c3.6-1.6,7-3.1,10.7-4.7c0-1.4,0.1-3.1,0.2-4.9c-2.5-0.4-4.9-0.8-6.9-1.1c-1.9,1.9-3.5,3.5-5.3,5.3
		C166.4,172.1,166.9,173.9,167.3,175.7z M42.3,67.1c1.4-4.7,2.7-9.4,4-14.1c-3.4,4.2-5.8,9-8.8,13.8c1,0.1,1.6,0.3,2.2,0.3
		C40.5,67.2,41.4,67.1,42.3,67.1z M49.2,87.1c-1.9,0.9-1.9,0.9-1,2.8c0.3-0.7,0.6-1.3,0.9-2C49.1,87.7,49.1,87.4,49.2,87.1z"/>
	<path d="M95.6,113.3c0-2.1,1.9-3.7,4.1-3.7c2,0.1,3.6,1.8,3.5,4c-0.1,2.3-1.8,4.1-3.8,4.1C97.3,117.6,95.5,115.6,95.6,113.3z"/>
	<path d="M81.9,111.1c-0.1,1.9-2.6,4.4-4.3,4.3c-1.7-0.2-3.4-2.3-3.3-4.3c0.1-1.8,2.6-4,4.5-3.9C80.7,107.2,82,109,81.9,111.1z"/>
	<path d="M225.4,65.8c4,0.1,7.5,0.2,11.1,0.3c0.6,0,1.2,0,1.8,0.2c3.7,0.8,4.4,1.9,3.9,5.7c-0.3,1.8-0.4,3.7-0.5,5.6
		c-0.3,6.8-0.6,13.5-1.7,20.2c-0.7,3.8-3.2,5.3-6.9,4.1c-1.3-0.4-2.6-0.7-4-1c-0.4-0.1-0.9-0.1-1.3,0.1c-1.9,0.7-2.4,0.6-2.9-1.1
		c-0.3-1.1-0.4-2.3-0.4-3.5c0.3-9.2,0.5-18.4-0.2-27.6C224.2,67.7,225.1,66.6,225.4,65.8z M227.5,98c1.2,0,2,0,2.9,0
		c3.9,0.1,4.8-0.6,5.3-4.9c0-0.3,0-0.6,0-0.9c0.1-4.1,0.2-8.2,0.2-12.4c0-3.1,0-6.2,0-9.6c-3,0-5.6,0-8.3,0
		C227.6,79.5,227.6,88.5,227.5,98z"/>
	<path d="M224.4,113c0.1-1.1,0-2.2,0.2-3.2c0.4-2,1.5-3.6,3.6-4.1c3.3-0.8,6.6-0.9,9.9-0.2c1.9,0.4,2.8,2,2.8,3.7
		c0,2.1-0.3,4.3-0.6,6.4c-0.1,0.5-0.5,1.1-1,1.4c-3.8,2.4-7.5,3.1-12.1,1.4C224,117.2,224.4,115.3,224.4,113z M235.1,115
		c0.2-1.9,0.4-3.5,0.5-5.1c-3.1-1.7-5-1.6-8,0.6c0.1,1.4,0.2,2.9,0.3,4.4C230.4,115,232.6,115,235.1,115z"/>
	<path d="M194,199.6c0.8-0.3,1.6-0.6,2.4-0.9c2,1.5,2.5,2.8,1.6,4.3c-0.7,1.2-1.9,1.8-2.8,1.4C193.7,203.8,193.3,202.2,194,199.6z"
		/>
	<path d="M182.9,203.5c-2.2-2.8-2.1-4,0.5-5.6c1.1,0.9,2.5,1.7,2.2,3.4C185.3,202.7,184.2,203.2,182.9,203.5z"/>
	<path d="M249.8,150.3c0.5-0.8,1.1-2.3,2.2-3.3c1.2-1.2,2.9-0.2,3.2,1.6c0.2,1.5-1.3,4.3-2.7,4.9
		C251.1,154.1,249.8,152.9,249.8,150.3z"/>
	<path d="M263.7,150.3c-0.1,1.2-1.3,2.1-2.8,2c-1.4-0.1-2.6-1.6-2.4-3.1c0.2-1.1,1.5-2.3,2.7-2.3
		C262.4,146.9,263.8,148.7,263.7,150.3z"/>
	<path d="M22.6,126.7c0.1-1.8,0.8-2.8,2-2.8c1.2,0,2.3,1.5,2.3,2.9c-0.1,1.7-1.1,3-2.2,2.9C23.4,129.7,22.5,128.4,22.6,126.7z"/>
	<path d="M14.1,128.6c-1.6,0-3.1-0.2-3.4-2c-0.1-0.7,0.7-1.7,1.4-2.3c0.9-0.7,1.9-0.3,2.5,0.6C15.7,126.2,15.1,127.4,14.1,128.6z"/>
	<path d="M95.5,19.1c2.5,1,2.8,2,1.3,4.1C94,21.7,93.9,21.5,95.5,19.1z"/>
	<path d="M103.1,18.9c0.8,0.6,1.5,0.8,1.7,1.3c0.3,0.7,0.3,1.6,0.2,2.4c0,0.2-1.2,0.6-1.4,0.4c-0.6-0.5-1.2-1.2-1.4-2
		C102.2,20.4,102.7,19.8,103.1,18.9z"/>
	<path d="M135.7,33.2c-1.1,0-2.1-1.4-2.1-2.8c0-1.3,1.2-2.7,2.2-2.7c1.1,0,2.5,1.8,2.4,2.9C138.1,31.8,136.7,33.2,135.7,33.2z"/>
	<path d="M142.7,29.2c1.1-1.1,1.9-2.6,3.4-1.9c0.8,0.3,1.6,1.8,1.5,2.5c-0.1,0.7-1.4,1.6-2.3,1.8C143.6,32.1,143.2,30.6,142.7,29.2z
		"/>
	<path d="M54.5,158.6c-0.4,0.4-0.8,1.4-1.6,1.7c-1.1,0.6-1.8-0.3-2.4-1.1c-0.2-0.3-0.4-0.7-0.5-1c-0.5-1.4-0.1-2.7,1.2-3.1
		c1.1-0.4,2.6,0.4,3,1.6C54.4,157.1,54.4,157.6,54.5,158.6z"/>
	<path d="M58.6,161.4c-3-1.5-3.5-3.3-1.5-4.6c0.6-0.4,1.8-0.6,2.3-0.3c0.5,0.4,0.8,1.6,0.7,2.3C59.9,159.7,59.2,160.5,58.6,161.4z"
		/>
	<path d="M63.5,40.1c2.3,2.5,2.3,2.5,0.2,4.1C61.4,42.2,61.3,41.6,63.5,40.1z"/>
	<path d="M58.1,43.8c-0.3,0.2-1.3,0.9-1.4,0.8c-0.7-0.6-1.2-1.4-1.5-2.2c-0.1-0.3,0.7-1.1,1.2-1.2C57.4,41,58.3,42.1,58.1,43.8z"/>
	<path d="M218.2,154c-0.4-1-1-1.8-0.9-2.4c0.2-0.9,0.9-1.8,1.6-2.3c0.4-0.3,1.7,0.1,1.9,0.5c0.3,0.6,0.4,1.7,0,2.3
		C220.5,152.8,219.5,153.1,218.2,154z"/>
	<path d="M215.1,149.6c-0.1,1.1-0.2,2.1-1.6,2.1c-1.2,0-2.2-1.1-2.1-2.3c0.1-1.1,0.8-1.7,1.9-1.8
		C214.5,147.6,215.2,148.4,215.1,149.6z"/>
	<path d="M35.9,82.1c-0.9-1.1-1.6-1.9-2.4-2.9c1.1-0.9,1.6-2.7,3.3-1.7C38.2,78.3,38,79.5,35.9,82.1z"/>
	<path d="M45.5,79.7c-1.5,0.7-2.4,1.1-3.3,1.4c-1.2-0.6-1.5-1.4-0.8-2.4c0.4-0.6,1.3-1.4,1.6-1.3C43.8,77.9,44.5,78.7,45.5,79.7z"/>
	<path d="M224.6,48.3c-0.3-1.2-0.7-2-0.8-2.8c-0.2-1.6,0.5-2.7,1.8-2.9c1.4-0.3,2.1,0.7,2.6,1.8c0.5,1.2,0.1,2.5-1.2,3.2
		C226.3,47.9,225.5,48,224.6,48.3z"/>
	<path d="M150.8,161.3c0.1,0.1,0.2,0.1,0.2,0.2c2.8,2,2.6,3.1-1,5.1c-0.2-0.4-0.6-1-0.9-1.6c-0.9-1.6-0.8-1.9,1-2.9
		C150.3,161.9,150.6,161.6,150.8,161.3C150.8,161.3,150.8,161.3,150.8,161.3z"/>
	<g>
		<g>
			<path class="st3" id="" d="M159.6,110.5h-3.3c-0.8,0-1.3-0.3-1.7-1l-10.7-15.8v15c0,0.5-0.2,1-0.5,1.3c-0.3,0.3-0.8,0.5-1.3,0.5H139
				c-0.5,0-1-0.2-1.3-0.5c-0.3-0.3-0.5-0.8-0.5-1.3V83.2c0-0.5,0.2-1,0.5-1.3c0.3-0.3,0.8-0.5,1.3-0.5h3.4c0.7,0,1.3,0.3,1.7,0.9
				l10.7,15.2V83.2c0-0.6,0.2-1,0.5-1.3c0.3-0.3,0.7-0.5,1.3-0.5h3c0.6,0,1,0.2,1.3,0.5c0.3,0.3,0.5,0.8,0.5,1.3v25.5
				c0,0.5-0.2,1-0.5,1.3C160.6,110.3,160.2,110.5,159.6,110.5z"/>
			<path class="st3" id="" d="M191.1,94.1v3.7c0,4.1-1.1,7.3-3.3,9.5c-2.2,2.2-5.4,3.4-9.7,3.4c-4.3,0-7.6-1.1-9.8-3.3
				c-2.2-2.2-3.2-5.4-3.2-9.6v-3.7c0-4.1,1.1-7.3,3.2-9.5c2.2-2.2,5.4-3.3,9.8-3.3s7.6,1.1,9.8,3.3C190,86.7,191.1,89.9,191.1,94.1z
				 M184,97.5v-3.2c0-1.7-0.2-3.1-0.7-4.1c-0.4-1-1.1-1.7-1.9-2.1c-0.8-0.4-1.9-0.6-3.3-0.6c-1.4,0-2.5,0.2-3.4,0.6
				c-0.8,0.4-1.5,1.1-1.9,2.1c-0.4,1-0.6,2.4-0.6,4.1v3.2c0,1.7,0.2,3.1,0.6,4.1c0.4,1,1.1,1.7,1.9,2.1c0.8,0.4,1.9,0.6,3.4,0.6
				c1.4,0,2.5-0.2,3.3-0.6c0.8-0.4,1.5-1.1,1.9-2.1C183.7,100.6,184,99.2,184,97.5z"/>
			<path class="st3" id="" d="M217.1,110.5h-3.3c-0.8,0-1.3-0.3-1.7-1l-10.7-15.8v15c0,0.5-0.2,1-0.5,1.3c-0.3,0.3-0.8,0.5-1.3,0.5h-3.1
				c-0.5,0-1-0.2-1.3-0.5c-0.3-0.3-0.5-0.8-0.5-1.3V83.2c0-0.5,0.2-1,0.5-1.3c0.3-0.3,0.8-0.5,1.3-0.5h3.4c0.7,0,1.3,0.3,1.7,0.9
				l10.7,15.2V83.2c0-0.6,0.2-1,0.5-1.3c0.3-0.3,0.7-0.5,1.3-0.5h3c0.6,0,1,0.2,1.3,0.5c0.3,0.3,0.5,0.8,0.5,1.3v25.5
				c0,0.5-0.2,1-0.5,1.3C218.1,110.3,217.7,110.5,217.1,110.5z"/>
		</g>
	</g>
	<path id="" d="M227.5,98c1.2,0,2,0,2.9,0c3.9,0.1,4.8-0.6,5.3-4.9c0-0.3,0-0.6,0-0.9c0.1-4.1,0.2-8.2,0.2-12.4
		c0-3.1,0-6.2,0-9.6c-3,0-5.6,0-8.3,0C227.6,79.5,227.6,88.5,227.5,98z"/>
	<path id="" d="M235.1,115c0.2-1.9,0.4-3.5,0.5-5.1c-3.1-1.7-5-1.6-8,0.6c0.1,1.4,0.2,2.9,0.3,4.4
		C230.4,115,232.6,115,235.1,115z"/>
</g>
</svg>
