<?xml version="1.0" encoding="utf-8"?>
<!-- Generator: Adobe Illustrator 19.1.0, SVG Export Plug-In . SVG Version: 6.00 Build 0)  -->
<svg version="1.1" id="Calque_1" xmlns="http://www.w3.org/2000/svg" xmlns:xlink="http://www.w3.org/1999/xlink" x="0px" y="0px"
	 viewBox="0 0 189 242.6" style="enable-background:new 0 0 189 242.6;" xml:space="preserve">
<style type="text/css">
	.st0{fill:#6D9DBD;}
	.st1{fill:#F2A73B;}
	.st2{fill:#6DA3C3;}
	.st3{fill:none;}
	.st4{fill:none;stroke:#F2A73B;stroke-width:3;stroke-miterlimit:10;}
	.st5{fill:#6DA1C1;}
	.st6{fill:#F6AB3B;}
	.st7{fill:none;stroke:#F6AB3B;stroke-width:3;stroke-miterlimit:10;}
	.st8{fill:#F8AD3B;}
	.st9{fill:#C6C6C6;}
	.st10{fill:#F4901E;}
	.st11{fill:none;stroke:#F8AD3B;stroke-width:3;stroke-miterlimit:10;}
	.st12{fill:#FFFFFF;}
	.st13{fill:#FFFFFF;stroke:#C6C6C6;stroke-width:3;stroke-miterlimit:10;}
	.st14{fill:none;stroke:#C6C6C6;stroke-width:3;stroke-miterlimit:10;}
</style>
<g>
	<polygon id="c15" class="st2" points="85.9,182.8 96.9,172.7 108.9,182.8 94.7,189.9 	"/>
	<polygon id="c14" class="st2" points="109.5,36.2 97.1,52.9 87.1,38.1 92.1,34.5 84.1,16.2 104.8,14.2 104.8,32.9 	"/>
	<polygon id="c13" class="st2" points="21.9,5.4 36,15.9 45.2,40.3 50.3,47.5 60.4,41.2 66.4,71.2 53.9,72.3 22.2,72.3 34.1,62.5 
		28.4,57.6 22.2,43.3 8.6,34.3 1.8,32.4 1.8,7.2 	"/>
	<polygon id="c12" class="st2" points="31.6,96.6 32.4,93.1 40.7,103.1 28.9,108.5 28.1,104.3 15.9,100.8 17.8,95.2 28.9,97.3 	"/>
	<polygon id="c11" class="st2" points="160.1,99.9 165.1,93.1 168.7,95.3 175.3,92.1 176.9,98.5 169.8,100.3 169.8,103.2 	"/>
	<polygon id="c10" class="st2" points="138.9,131.5 153.8,121.7 153.8,129.2 174.9,128.2 173.6,142.4 152.8,142.4 152.8,148.2 
		147.3,144.4 	"/>
	<polygon id="c8" class="st2" points="32.8,131.1 48.2,142.4 33.6,156.2 28.8,149.7 15.9,148 17,135.2 22.5,137.4 32.8,136.9 	"/>
	<polygon id="c7" class="st2" points="149.8,169.9 153.4,180.3 156.2,180.3 164.4,182.9 166.9,181.1 160.6,173.8 162.3,170.6 	"/>
	<polygon id="c6" class="st2" points="24,204 17.8,195 30.6,193.7 51.4,192.5 43.6,223.3 34.2,223.3 32.4,220.2 17.8,238.1 
		6.2,234.9 5.4,219.6 11.5,216.9 23.7,208 	"/>
	<polygon id="c5" class="st2" points="147.1,199.8 158.8,225.3 162.2,225.3 167.7,217.5 179.4,235.9 184.7,234.2 186.6,227.1 
		186,208.8 175.3,204.2 178.2,195.6 173.7,194.6 	"/>
	<polygon id="c4" class="st2" points="158.8,4.8 152.3,13.3 143.7,30 138.2,45.3 137.1,48.5 123.2,45.3 128.9,56.1 137.1,68.2 
		141.9,78.4 166.9,62 158.8,56.1 182.9,39.1 186.4,32.4 183.8,7.7 	"/>
	<path d="M19.4,0.6c1.9,0,3.9,0.1,5.8,0c2-0.1,4.1-0.4,6.1-0.4c3.9,0,7.8,0.2,11.7,0.2c2,0,4.1-0.2,6.1-0.2
		c4.6,0.1,9.1,0.3,13.7,0.3c3.3,0,6.5-0.3,9.8-0.4C80.4,0,88,0,95.6,0c5.5,0,11,0.1,16.5,0.2c4.8,0.1,9.6,0.5,14.4,0.6
		c4.3,0.1,8.6-0.2,12.8,0c6.5,0.2,13,0.6,19.5,0.9c6.3,0.3,12.5,0.6,18.8,1.1c2.2,0.2,4.5,0.7,6.7,1.4c2.8,0.8,2.9,3.5,3.5,5.7
		c1.2,4.3,1,8.7,1.1,13.1c0.1,3.4,0.1,14.3-0.1,16.4c-0.6,9.5-1.2,19.1-1.6,28.6c-0.4,8.3-0.5,16.6-0.7,24.9c-0.1,2.3-0.6,4.7-0.5,7
		c0.1,3.8,0.6,7.7,0.9,11.5c0.1,1.5,0.4,3,0.4,4.5c0,7-0.1,14.1-0.1,21.1c-0.1,8.3-0.5,16.6-0.3,24.9c0.1,6.7,1.1,13.4,1.4,20.1
		c0.3,6.7,0.2,13.4,0.3,20c0,3.7,0.2,7.5,0.2,11.2c0,2.8-0.2,5.5-0.3,8.3c0,1.7,0.1,3.4,0.2,5.1c-0.3,7.5-2.1,12.1-6.3,12.5
		c-1.7,0.3-3.5,0.1-5.2,0.4c-3.6,0.5-7.2,1.1-10.9,1.5c-3,0.3-6,0.5-8.9,0.6c-6,0.4-11.9,0.9-17.9,1c-4.5,0.1-9-0.5-13.5-0.7
		c-2.7-0.1-5.5-0.2-8.2-0.3c-3.3-0.1-6.7-0.3-10-0.3c-1.5,0-2.9,0.3-4.4,0.3c-2.9-0.1-5.9-0.1-8.8-0.5c-7.1-1-14.1-1-21.2-1
		c-9.5,0-19.1,0-28.6,0c-4.6,0-9.1-0.4-13.7-0.4c-3.5,0-7,0.5-10.5,0.4c-5.2-0.2-10.4-0.3-15.2-2.7c-1.7-0.8-2.5-2.1-2.6-4.2
		c-0.2-4.7-0.7-9.3-0.9-14c-0.2-5.4-0.3-10.8-0.4-16.2c-0.3-9.9-0.7-19.8-1-29.7c-0.2-5.3-0.3-10.7-0.3-16c0-6.3,0.1-12.7,0.3-19
		c0.2-6.5,0.6-13,0.9-19.5c0.2-5,0.4-10.1,0.8-15.1c0.3-3.8,0.7-7.7,1.3-11.5c0.7-4.5,1.2-9,0.5-13.6c-0.4-2.2-1.2-4.2-1.6-6.4
		c-1.3-7.7-3-15.4-1.6-23.3c0.3-1.6,0.1-3.3,0-4.9c-0.1-2.1-0.3-4.2-0.3-6.3c0.1-7.3,0.3-14.6,0.5-21.9c0-2.1-0.4-4.2-0.2-6.3
		C0.5,8.2,1,6.8,1.5,5.6c0.7-1.5,0.9-3.4,2.9-3.8c2-0.5,4-1,6-1.1C13.4,0.4,16.4,0.6,19.4,0.6C19.4,0.6,19.4,0.6,19.4,0.6z M8,217.1
		c2.6-1.5,5-2.7,7.1-4.2c2.5-1.9,4.7-4,6.9-6.2c1-1,1.4-2.2,0.2-3.6c-1.5-1.6-2.7-3.5-4-5.3c-1-1.4-1.5-3.5-0.3-4.5
		c2.2-1.8,13.1-1.1,17.7-1.5c4.4-0.4,8.8-1.1,13.3-1.4c2.3-0.2,4.9-0.8,7.3,3.5c1.6,2.3,3.1,3.7,2.5,5.9c-1.2,4.1-2.6,8.1-3.8,12.1
		c-1.7,5.6-3.2,11.3-4.8,16.9c-0.5,1.8-2.4,2.4-3.9,1.2c-1.7-1.4-3.5-2.7-5.3-4c-0.3-0.2-1.1-0.2-1.4,0c-1.1,0.9-2.1,1.8-3.1,2.8
		c-1.8,2-3.6,4.1-5.7,6.5c7.6,0.2,14.6,0.5,21.6,0.6c4.7,0.1,9.4-0.3,14.1-0.2c6.6,0.1,13.2,0.3,19.9,0.5
		c12.2,0.3,24.3,0.6,36.5,0.8c8.9,0.2,17.8,0.4,26.7,0.3c6.1-0.1,12.3-0.6,18.4-1.1c3.1-0.2,6.1-0.8,9.2-1.2
		c-2.1-5.6-5.5-10.1-9.1-14.7c-0.8,1.1-1.5,2-2.3,2.9c-1.7,2-3.1,4.7-6.4,3.7c-0.8-0.2-1.7-0.8-2-1.5c-0.7-1.3-1-2.9-1.7-4.2
		c-3.3-6.9-6.7-13.8-10.1-20.6c-1-2-0.5-3.1,1.8-3.4c4.3-0.5,8.7-1,13-1.7c3.5-0.5,7-1,10.3-2.1c2.4-0.8,4.7-1.1,7.1-0.4
		c2.9,0.7,4.1,2,3.5,4.2c-0.3,1.1-1,2.1-1.2,3.2c-0.2,0.8-0.3,2.1,0.2,2.4c1,0.8,2.4,1.2,3.9,1.9c-0.2-3.5-0.3-6.5-0.5-9.5
		c-0.3-7.1-0.7-14.2-0.9-21.3c-0.2-6.7-0.1-13.4-0.1-20c0-11.6,0-23.2,0-34.8c0-3.9,0.1-7.7,0-11.6c0-2.9-0.6-5.7-0.4-8.6
		c0.9-11.2,0.8-22.4,0.7-33.6c-0.1-5.4,0.1-10.8,0.1-16.2c0-1.7,0-3.3,0-5c-3.8,0.5-15.8,11-16.5,14.4c0.5,0.1,1.1,0.1,1.5,0.3
		c0.9,0.8,2.2,1.6,2.6,2.6c0.8,2.5,1.1,5.1,1.8,7.6c0.4,1.6,0.1,2.2-1.5,2.4c-0.8,0.1-1.7,0-2.4,0.4c-4.4,2.6-8.7,5.2-12.9,7.9
		c-2.6,1.7-4.9,3.9-7.5,5.7c-0.7,0.5-2.1,1.1-2.5,0.7c-2.1-1.6-4.2-3.4-5.9-5.4c-1-1.3-1.3-3.1-2-4.7c-1.6-3.9-2.8-8.1-4.8-11.8
		c-3.4-6-7.5-11.7-11.2-17.6c-0.4-0.6-0.5-1.7-0.2-2.3c0.2-0.4,1.3-0.6,2-0.6c1.3,0.1,2.5,0.5,3.8,0.7c2.9,0.5,5.8,1,8.9,1.5
		c2.9-14.9,10.5-27.3,19.6-39.4c-1,0-1.6,0-2.3,0c-12-0.1-24-0.2-36.1-0.3C105.4,6.3,93.7,6.1,82,6.1C68.3,6,54.5,6,40.8,6
		c-1.7,0-3.4,0.3-5.5,0.5c0.8,0.7,1.3,1,1.7,1.4c2.1,2.1,4.5,4,6.1,6.4c3.9,6.1,5.7,13,7.5,20c0.8,3.3,2,6.4,4.8,9.2
		c1.1-1.3,2.3-2.3,3-3.7c0.9-1.7,2-1.9,3.6-1.5c1.3,0.3,2.6,0.7,3.9,0.9c3.3,0.4,3.8,1.3,3.7,4.5c-0.2,5.6-0.1,11.2,0,16.8
		c0,1.5,0.5,3,1,4.4c0.5,1.4,1.1,2.7,1.9,3.9c1.1,1.7,0.9,3.5-0.5,4.9c-2.1,2.1-4.4,1.4-6.7,0.9c-1.9-0.4-3.7-1.2-5.6-1.4
		c-3.5-0.2-7.1-0.1-10.6-0.1c-7.4,0.1-14.9,0.3-22.3,0.4c-1.6,0-3.3-0.1-4.9-0.4c-1.6-0.3-1.9-1.4-0.8-2.5c0.4-0.4,0.8-0.8,1.3-1.2
		c2.9-2.1,5.8-4.2,8.9-6.4c-1-0.7-1.9-1.1-2.7-1.8c-3.8-3.4-5-8.1-6.6-12.7c-0.9-2.6-2.1-5.1-4.4-6.7c-2.4-1.7-5-3.1-7.6-4.5
		c-1.6-0.9-3.3-1.6-5.1-2.5c-0.1,0.5-0.2,0.7-0.2,0.9C5,42.2,5.4,48.6,5.7,54.9c0.1,2.7,0.1,5.5,0.2,8.3c0.1,2.4,0,5,0.6,7.3
		C8.4,77.6,9.2,84.6,8,91.9c-1.2,7.6-2.2,15.2-1.9,22.9c0.1,4.2,0.2,8.3,0.2,12.5c0,5.6-0.4,11.1-0.3,16.7c0,5.3,0.5,10.7,0.6,16
		c0.2,9.6,0.4,19.1,0.6,28.7c0.1,6.3,0,12.6,0.2,19C7.3,210.6,7.7,213.6,8,217.1z M163.7,61.8c-2.3-1.1-4.1-1.9-5.9-2.9
		c-1.2-0.7-1.6-1.7-0.8-2.9c1.3-1.9,2.6-3.9,4.2-5.6c4.6-4.7,9.3-9.3,15.2-12.4c2-1,4-2,6.3-3.1c0-0.6-0.1-1.5,0-2.4
		c0.3-2.7-0.6-5.2-0.6-7.9c0-5,1.3-10.1-0.8-15.1c-0.4-1-0.7-1.5-1.7-1.5c-5.1-0.3-10.3-0.5-15.4-1c-2.8-0.3-4.7,0.8-6.2,2.9
		c-2.3,3.2-4.6,6.3-6.6,9.6c-2.5,3.9-4.9,7.9-7,12.1c-2.8,5.6-4.6,11.5-5.2,17.8c-0.2,1.7-1.5,2.3-2.8,1.2
		c-2.9-2.5-6.4-2.5-10.1-2.4c0.1,0.5,0.1,0.9,0.3,1.2c2.5,3.8,4.8,7.7,7.5,11.4c2.9,4,4.5,8.4,6,12.9c0.7,2.1,1.1,2.2,2.9,0.9
		c3.8-2.6,7.6-5.3,11.6-7.8C157.5,65.1,160.5,63.6,163.7,61.8z M58.3,45.3c-0.2-0.1-0.4-0.2-0.6-0.3c-1.9,2.3-3.8,4.7-5.7,6.9
		c-0.4,0.5-1.2,0.8-1.8,0.9c-1.9,0.3-2.7-1.4-3.7-2.5c-4-4.1-7.3-8.5-8.2-14.3c-0.4-2.7-0.8-5.3-1.3-7.9
		c-1.4-7.1-5.2-12.7-11.1-16.9c-3.2-2.3-6.5-3.9-10.6-3.4c-1.3,0.2-2.7,0.3-4,0.2c-1.1,0-2.3-0.2-3.4-0.4c-2-0.4-3.5,1.1-3.5,3.6
		c0.1,2.7,0.3,5.4,0.3,8.1c0,3.5-0.2,6.9-0.2,10.4c0,0.5,0.6,1.5,1.1,1.6c5,1.2,9.6,3.3,13.7,6.5c3.8,2.8,6.5,6.4,7.8,10.9
		c0.9,3.1,1.9,6,3.9,8.5c1.2,1.5,2.9,2.7,4.6,3.7c0.8,0.5,2.2,0.5,1.9,1.7c-0.2,1-1,2.1-1.9,2.7c-1.9,1.2-8.1,4.7-8.9,5.5
		C38,71.7,49.5,69,60.4,69.3C58.8,61.3,56.8,53.4,58.3,45.3z M21.1,196.2c0.7,1,1,1.4,1.4,1.9c1.3,1.7,2.7,3.4,4,5.1
		c0.4,0.5,0.7,1.6,0.4,2.1c-0.9,1.8-1.8,3.6-3,5.1c-4,4.6-9,7.9-14.7,10.2c-1.1,0.4-1.6,1-1.6,2.2c0.1,3.1,0.2,6.2,0.3,9.3
		c0,0.3,0,0.6,0.2,0.8c0.6,0.8,6.7,2.1,7.5,1.6c0.1-0.1,0.2-0.1,0.3-0.2c1.2-1,2.5-1.9,3.6-3c4.4-4.5,8.5-9.3,11.6-14.9
		c0.9-1.7,1.9-1.8,3.2-0.3c0.2,0.2,0.3,0.4,0.4,0.6c1.6,1.8,3.6,3,5.9,4.1c1.3-9.3,5-17.7,8-26.3C39.5,195,30.6,195.6,21.1,196.2z
		 M160.5,223.1c2.4-1.7,4.1-3.9,4.9-6.7c0.4-1.4,1.1-1.8,2.3-0.9c1.1,0.8,2.2,1.8,3,2.9c2.2,2.9,4.4,5.9,6.3,9
		c1.4,2.2,2.4,4.7,3.8,7.4c0.5-0.7,0.9-1.2,1.3-1.8c1.4-2.3,1.7-4.9,1.7-7.6c0-3.3,0.3-6.6,0.3-9.9c0-0.8-0.1-2-0.6-2.3
		c-2.9-1.7-5.6-3.9-9.2-4c-1.1,0-2.2-0.3-3.1-0.8c-0.5-0.3-0.8-1.4-0.6-1.9c0.9-2.6,2.1-5.1,3.1-7.6c0.3-0.8,0.4-1.6,0.6-2.5
		c-8.3,1.5-16.4,2.9-24.9,4.4C153.2,208.2,156.8,215.6,160.5,223.1z"/>
	<path d="M126.5,161.7c0.8,2.3,1.6,4.7,2.3,7.1c1.3,3.9,2.6,7.8,3.9,11.6c0.8,2.4,1.9,4.7,2.6,7.1c0.5,1.8,1.7,3.6,0.7,5.5
		c-0.4,0.8-1,1.7-1.7,2c-4.2,2-8.5,3.9-12.9,5.9c-0.4,4.6-0.3,9.4,0.7,14.2c0.3,1.3,0.2,2.7,0.2,4c0,0.9,0.3,1.4,1.3,1.4
		c3.9,0,7.7,0.1,11.6-0.1c2-0.1,2.8,1,3.5,2.5c1.6,3.2,0.4,5.5-3.1,5.8c-3.3,0.3-6.6,0.4-10,0.6c-1.2,0.1-2.3,0.3-3.5,0.6
		c-1.8,0.4-3-0.7-4-2c-0.9-1.2-0.5-2.4,0.2-3.6c0.4-0.6,0.7-1.5,0.6-2.2c-0.3-5.6-0.7-11.1-1.1-16.6c-0.1-1.3,0-2.5,0-3.9
		c-2.6,0.5-4.9,1-7.4,1.3c-2.7,0.3-5.4,0.5-8.1,0.4c-3.9-0.1-7.7-0.4-11.6-0.8c-1.5-0.1-2.1,0.5-2,1.8c0.3,5.2,0.5,10.4,0.8,15.6
		c0.1,1.8,0.4,3.6,0.6,5.7c-0.6,0.2-1.3,0.5-2,0.6c-4.1,0.5-8.1,1-12.2,1.4c-1.1,0.1-2.3-0.2-3.4-0.5c-2.3-0.6-4-3.4-3.4-5.7
		c0.1-0.5,0.9-1.2,1.4-1.3c2.7-0.4,5.4-0.7,8.2-0.9c2.3-0.1,4.7,0,7.2,0c0-0.7,0.1-1.4,0.1-2c-0.2-4.5-0.4-8.9-0.5-13.4
		c0-1.6-0.5-2.3-2.3-2.5c-4.3-0.6-8.6-1.5-13-2.3c-3.2-0.6-4.8-3.5-4.4-6.4c0.9-6.5,1.3-13.1,1.8-19.6c0.2-2.1-0.4-2.5-2.5-2
		c-2.1,0.5-4.2,1.1-6.3,1.6c-1.3,0.3-3.2,1.1-3.9-0.4c-0.7-1.4-0.6-3.3-0.3-4.9c0.3-1.4,1.9-1.9,3.4-2c2.6-0.1,5.3-0.2,7.9,0
		c1.7,0.1,1.7-0.6,1.8-1.9c0.1-5.4-0.3-10.9,0.6-16.3c0.9-5.4,1.3-10.9,1.8-16.4c0.2-2.5,0-2.4-2.4-2.7c-5.2-0.8-10.2-2.3-14.3-5.8
		c-4.5-3.9-6.1-9.1-5.1-14.9C50,98.5,55.4,92,62.9,87.4c3.7-2.3,7.9-3.9,12-5.7c1-0.5,2.3-0.5,3.4-0.5c0.6,0,1.1,0.7,1.7,1
		c-0.4,0.6-0.7,1.5-1.2,1.7c-3.8,1.5-7.8,2.7-11.5,4.4c-4.2,1.9-7.7,4.8-10.3,8.7c-1.8,2.7-4.1,5.7-5,8.3s-0.6,5.3-0.6,7.5
		c0,3.6,2.3,6,5,7.8c4.3,2.8,9.2,4.2,14.3,4.3c2.2,0.1,4.4,0,6.6,0c4.5-0.1,9-0.9,13.4-1.7c7.3-1.5,13.9-4.8,20.3-8.8
		c3.7-2.3,7.3-4.7,10.7-7.2c3.2-2.4,4.8-6.1,5.5-9.9c0.5-2.6-1.4-4.9-3-6.9c-3.9-4.7-9.4-6-15-7.1c-1.4-0.3-2.9-0.2-4.3-0.5
		c-0.7-0.2-1.2-0.9-1.9-1.4c0.6-0.4,1.1-1.2,1.7-1.2c7.8-0.4,15,1.5,20.5,7.2c2.8,2.9,5.4,6.4,4.8,11c-0.1,0.5-0.1,1.1-0.3,1.5
		c-2.1,6-5.7,10.8-11.5,13.7c-0.4,0.2-0.7,0.5-1,0.7c-0.9,0.5-1,0.9-0.4,2c1.1,2.1,1.7,4.4,2.4,6.7c0.8,2.8,1.4,5.6,1.9,8.4
		c0.7,3.5,1.2,7.1,2,10.7c0.7,3.4,1.7,6.8,2.6,10.2c0.3,1.3,1.1,1.5,2.2,1.2c1.7-0.5,3.3-1.1,5-1.5c2.1-0.4,3.8,0.7,4.5,2.7
		c0.4,1.1,0.8,2.3,1,3.5c0.2,1-0.3,1.6-1.3,1.6c-0.3,0-0.6,0.1-0.9,0.2c-1.6,0.1-3.1-0.1-4.7,0.2
		C129.7,160.5,128.3,161.1,126.5,161.7z M69.3,195.2c5.5,1,10.7,2.2,16,3c4.3,0.6,8.7,0.9,13.1,1.3c11.6,1,22.6-1,32.8-6.9
		c1.9-1.1,2-1.6,1.1-3.7c-1.3-3.3-2.5-6.7-3.7-10c-1.3-4-2.5-8-3.8-12c-1.2-3.5-2.8-6.8-3.6-10.4c-1.5-7.3-2.5-14.7-3.9-22.1
		c-0.9-4.8-2.1-9.5-3.3-14.6c-5.7,3.8-11.3,6.5-17.1,9c-6.9,2.9-13.9,4-21.2,3.4c-1-0.1-1.3,0.2-1.4,1.2c-0.2,2-0.6,3.9-0.8,5.9
		c-0.7,7.3-1.4,14.7-1.9,22c-0.6,9-1.1,18-1.6,27C69.9,190.4,69.6,192.6,69.3,195.2z"/>
	<path d="M111.5,32.4c1.1,0,1.9,0,2.8,0c0.8,0,1.6-0.1,2.2,0.1c1.6,0.5,1.9,1.8,0.8,3.2c-2.3,3-4.4,6-6.6,9c-1.8,2.5-3.4,5-5.2,7.4
		c-0.5,0.7-1.5,1.4-2.3,1.5c-2.3,0.3-4.5,2.3-7,0.9c-0.8-0.5-1.6-1.1-2.1-1.8c-2-3.2-3.9-6.6-6-9.9c-1-1.5-2.4-2.6-3.5-4.1
		c-0.3-0.4-0.4-1.7-0.1-1.9c1.5-1,3.2-1.9,4.9-2.5c1.1-0.4,1.2-0.7,0.9-1.6c-1.2-3.4-2.3-6.9-3.7-10.2c-1.1-2.6-2.6-5-4.1-7.5
		c-0.7-1.2-0.6-1.9,0.9-2c1-0.1,1.9-0.1,2.9-0.1c4.5-0.2,9.1-0.3,13.6-0.5c1.3,0,2.7-0.4,4-0.2c3,0.4,5.9,1.1,8.9,1.7
		c1.2,0.3,1.5,1,1.3,2.2c-0.5,2.2-0.8,4.5-1.2,6.7C112.4,26.1,112,29,111.5,32.4z M87.9,16.5c0.1,0.5,0.1,0.9,0.2,1.1
		c0.8,1.6,1.8,3.1,2.5,4.7c1.7,4,3.3,8.1,4.8,12.1c0.4,1.1,0.3,1.9-1.1,2.2c-1.4,0.3-3.9,0.9-5.2,1.4c-0.4,0.2,0.4,1,0.6,1.2
		c2.1,3.2,4.4,6.4,6.8,9.8c2.8-4.1,5.5-8.2,8.5-12.6c-1-0.1-1.5-0.2-2-0.3c-2.6-0.3-3.2-1.1-2.3-3.6c0.1-0.4,0.3-0.8,0.3-1.2
		c0.8-4.7,1.5-9.3,2.3-14c0.1-0.5,0.1-1.1,0.2-1.7C98.2,16,93.1,16.2,87.9,16.5z"/>
	<path d="M178.1,140.6c0,2.5-0.9,3.6-3.4,3.7c-2.3,0-4.6-0.5-7-0.5c-3,0-6,0-8.9,0.5c-0.7,0.1-1.4,1.9-1.5,2.9
		c-0.4,2.5-0.4,2.5-2.9,2.3c-3.5-0.3-5.8-2.4-7.8-5c-2.8-3.4-5.6-6.7-8.4-10c-1.6-1.9-1.3-2.8,0.6-4.2c4.2-3,8.4-6.1,12.4-9.4
		c1.2-1,2.2-2.1,3.7-2.6c2.3-0.7,4.3,0.7,4.1,3.2c0,0.9,0,1.8-0.1,2.6c-0.1,1.1,0.4,1.4,1.4,1.4c4.5-0.1,9-0.1,13.5-0.2
		c3.2-0.1,3.7,0.2,4.1,3.4C178.2,130.6,178.2,138.5,178.1,140.6z M170.4,140.5c0-1.4-0.4-6.6-0.1-8.1c0.3-1.1-0.1-1.8-1.2-1.8
		c-4.7,0.2-9.3,0.5-14,0.8c-0.4,0-0.3,2.2-2.6,2.2c-0.5,0-1-0.7-1.3-1.2c-0.3-0.5-0.3-1.1-0.3-1.7c0-1.5,0-3,0-4.8
		c-3,2.1-5.9,4.1-8.8,5.9c-1.4,0.9-1.3,1.7-0.3,2.8c2.2,2.4,4.3,4.8,6.4,7.1c0.7,0.8,1.4,1.6,2.3,2.5c0.5-3.6,2.2-4.5,5.5-3.8
		c2.4,0.5,5-0.3,7.5-0.4C165.4,140.1,168.4,140.5,170.4,140.5z"/>
	<path d="M13.4,146c0.7-3.1,1.5-7.1,2.4-11.1c0.2-1.1,0.9-1.5,1.9-0.9c3.5,2.2,7.5,2,11.4,1.8c2.8-0.1,3.1-0.5,2.2-3.2
		c-0.5-1.5-0.4-2.8,0.9-3.7c0.3-0.2,1-0.2,1.3,0c2.4,1.7,4.8,3.5,7.2,5.2c2.7,1.9,5.5,3.7,8.1,5.7c2,1.5,2.1,3.9,2.6,6.1
		c0.1,0.3-0.3,0.8-0.6,1c-3,2.4-6,4.6-8.9,7.1c-1.8,1.5-3.3,3.5-5.1,5c-0.9,0.8-2.3,1-3.6,1.3c-0.4,0.1-1.2-0.5-1.3-0.9
		c-0.6-1.5-1.1-3.1-1.6-4.8c-0.4-1.4-1-1.8-2.5-1.6c-1.8,0.2-3.8,0.1-5.5-0.4c-2.5-0.6-4.9-1.6-7.3-2.5
		C13.6,149.7,13.3,149,13.4,146z M45.4,141.4c-3.5-2.2-6.6-4.2-10-6.3c-0.1,1.2-0.2,1.8-0.1,2.5c0.1,1.4-0.9,2-2,2
		c-4.1,0-8.3-0.2-12.4-0.4c-0.7,0-1.4,0-2.3,0c-0.7,2.5-1,3.7-0.7,5.4c0.1,0.3,1.9,0.6,2.2,0.7c3.1,0.6,6.1,1.8,9.3,0.7
		c0.6-0.2,1.7,0.1,2.1,0.6c0.7,0.8,1,2,1.5,3.1C36.9,147.1,40.9,144.4,45.4,141.4z"/>
	<path d="M26,104.6c-2.9-1.4-5.8-2-8.9-1.8c-2.2,0.1-3.2-1.2-2.6-3.4c0.3-1.3,0.7-2.6,1-3.9c0.3-1.3,0.9-2,2.3-1.7
		c3,0.6,6.1,1.1,9.1,1.8c2.2,0.5,3,0.1,3.6-2.1c0.1-0.5,0.2-0.9,0.3-1.4c0.7-2.3,2.9-2.9,4.6-1.2c0.9,0.9,1.6,2,2.5,2.9
		c1.4,1.6,2.6,3.3,4.1,4.7c2.5,2.6,2.1,6.1-1.1,7.7c-3.6,1.7-7.2,3.3-10.9,4.8c-0.7,0.3-1.5,0.3-2.2,0.3c-1.3,0-1.8-0.8-1.8-2.1
		C26.1,107.7,26,106.2,26,104.6z M33.1,96.8c-0.5,1.1-0.6,1.1-1,2.1c-0.5,1.1-1.4,1.9-2.4,1.4c-3.2-1.7-7.4-3.5-11.1-3.4
		c-0.5,0-0.2,2.4-0.7,2.7c4.3,1,12.4,2.3,12.2,5.4c3.1-0.4,6.4-1.4,8.9-2.5C37.6,100.9,34.3,97.9,33.1,96.8z"/>
	<path d="M163.6,173.2c1.8,2.2,3.8,4.1,5.2,6.4c0.5,0.8,0,2.7-0.7,3.6c-1.4,1.6-3.3,1.7-4.7,0.8c-1.6-1-3.3-2-5.1-2.7
		c-0.9-0.4-2.2-0.3-3.1,0c-1.8,0.5-2.9,0.3-3.5-1.4c-1-2.7-1.9-5.4-2.8-8.1c-0.1-0.3-0.2-0.6-0.3-0.8c-0.8-1.6-0.7-3.3,0.6-4.4
		c0.3-0.3,0.9-0.5,1.3-0.4c3.3,0.5,6.7,0.9,10,1.6C164,168.6,164.8,170.2,163.6,173.2z M152.3,170.4c0.6,2.7,1.1,4.9,2.1,6.9
		c0.1,0.2,1.3-0.6,1.5-0.5c1.5,0.7,3.1,1.4,4.6,2.1c1,0.5,2.5,1.5,3.4,2c0.1-0.2,1.2-0.9,1.4-1.1c-1.1-0.9-3.1-2-4.4-3.2
		c-2.1-1.9-2.3-2.6-0.6-4.9L152.3,170.4z"/>
	<path d="M179.3,97.4c0.1,3.5-0.2,3.8-4.8,4.7c-1.3,0.2-2.3,0.5-2.7,2c-0.1,0.4-1.4,0.9-2,0.7c-2.6-0.8-5.2-1.7-7.7-2.9
		c-4.4-2.1-4.3-2.2-1-5.9c1-1.1,2-2.1,3-3.2c0.8-0.9,1.6-0.9,2.7-0.4c0.6,0.3,1.6,0.4,2.3,0.2c1.9-0.5,3.8-1.1,5.7-1.7
		c2.3-0.7,3.8,0.2,4.1,2.5C179,94.1,179.3,96.7,179.3,97.4z M168.1,101c0.3-2.2,0.7-3,4-3.3c0.8-0.1,2.4-0.5,3.2-0.9
		c0.3-0.2-0.6-1.2-0.4-1.6c-0.4-0.1-0.4-1.5-0.7-1.4c-1.6,0.6-3.7,2.4-5.3,2.9c-0.8,0.3-2.2,0.8-2.4,0.1c-1.3-3.4-1.7-1.5-2.4-0.6
		c-0.4,0.5-1,2-1.7,2.7C164.4,99.7,166.2,100.4,168.1,101z"/>
	<path d="M96.3,108.5c-2.6,0-4.2-1.3-4.1-3.5c0.1-3,2.2-4.5,5.5-4.7c2.2-0.1,4,2.2,4,4.9C101.6,107,99.1,108.5,96.3,108.5z"/>
	<path d="M75.2,107.2c0-2,1.1-3.3,3.1-4c1.7-0.6,3.7,0,4.8,1.3c1.2,1.4,1.6,4.2,0.5,5.4c-0.6,0.7-1.7,1.1-2.7,1.4
		C78.6,111.9,75.2,109.4,75.2,107.2z"/>
	<path d="M111.1,182.9c-0.7,0.9-1.2,2-2.1,2.5c-2.6,1.4-5.3,2.6-8,3.9c-1.1,0.5-2.2,0.7-3.3,1.1c-0.3,0.1-0.8,0.1-1,0.3
		c-1,1.3-2.1,0.9-3.3,0.3c-2.6-1.5-5.3-2.9-7.8-4.5c-0.8-0.5-1.4-1.3-1.8-2.1c-0.6-1.1-0.5-2,0.5-3c3.7-3.4,7.3-6.9,10.9-10.4
		c0.9-0.9,1.8-0.6,2.7,0c3.6,2.7,7.2,5.5,10.8,8.3C109.6,180.1,110.9,180.9,111.1,182.9z M106.3,182c-3-2.2-5.6-4.3-8.4-6.2
		c-0.4-0.3-1.6-0.2-2,0.2c-2.4,2-4.7,4.2-7,6.3c-1.3,1.1-1.3,1.6,0.2,2.5c2,1.1,4.1,2.2,6.2,3.2c0.3,0.1,0.9-0.1,1.3-0.3
		c2-1.1,3.9-2.3,5.9-3.4C103.7,183.5,104.9,182.8,106.3,182z"/>
</g>
</svg>
