<?xml version="1.0" encoding="utf-8"?>
<!-- Generator: Adobe Illustrator 19.1.0, SVG Export Plug-In . SVG Version: 6.00 Build 0)  -->
<svg version="1.1" id="Calque_1" xmlns="http://www.w3.org/2000/svg" xmlns:xlink="http://www.w3.org/1999/xlink" x="0px" y="0px"
	 viewBox="0 0 228.4 278.7" style="enable-background:new 0 0 228.4 278.7;" xml:space="preserve">
<style type="text/css">
	.st0{fill:#009DBF;}
	.st1{fill:#D0095B;}
	.st2{fill:#009EC0;}
	.st3{fill:#D1005A;}
	.st4{fill:#C0BFBF;}
	.st5{enable-background:new    ;}
	.st6{fill:none;stroke:#D0095B;stroke-width:3;stroke-miterlimit:10;}
	.st7{fill:#FFFFFF;stroke:#D0095B;stroke-width:3;stroke-miterlimit:10;}
	.st8{fill:#FFFFFF;}
</style>
<g>
	<g>
		<path d="M110.2,0c4.7,0.4,9.3,0.8,13.9,1.3c3.3,0.4,6.6,0.9,9.9,1.5c1.3,0.2,2.5,0.8,3.7,1.1c2.2,0.6,4.4,1.1,6.5,1.8
			c2.5,0.8,5,1.5,7.3,2.8c4.2,2.3,8.2,4.9,12.3,7.4c5.9,3.6,10.9,8.3,15.6,13.3c4.1,4.2,7.7,8.8,11.3,13.4
			c6.7,8.6,12.7,17.6,18.5,26.8c4.9,7.8,8.4,16.2,11.6,24.7c1.4,5.3,5,20.8,5.8,27.6c0.4,3.4,0.9,6.9,1.1,10.3
			c0.3,7.8,0.9,15.6,0.3,23.4c-0.4,5.2-1,10.6-2,15.8c-2,9.3-4.7,18.5-7.7,27.6c-1.4,4.4-4.1,8.4-6.3,12.5c-2,3.7-4.2,7.3-6.5,10.9
			c-1.4,2.3-3,4.5-4.7,6.6c-2.8,3.6-5.5,7.3-8.6,10.6c-3,3.3-6.3,6.3-9.7,9.1c-5.3,4.4-10.8,8.7-16.3,12.9
			c-3.6,2.7-17.1,11.2-33.4,15.1c-6.6,1.5-13.3,2.4-20,2.2c-5.8-0.2-15.6-1.4-21.4-2.1c-18.3-4.2-22.9-6.3-38.3-17.3
			c-5.5-3.9-16-13.7-20.3-18.8s-7.1-9.4-10.2-14c-5.1-7.4-18.9-43.5-20.6-65.6c-1-12.6-3.5-31.9-1-47.2S5.4,84.2,11,70
			c3.1-7.7,7.4-16.6,16.5-28.1c9.7-12.3,22.1-22.6,28.1-26.4c5.4-3.4,10.9-6.6,16.9-9C83.9,0,105.4,0.5,110.2,0z M123.6,89.5
			c-0.6-3.4,0.4-4.9,3.4-4.7c8.6,0,19,4.1,23.4,8c6.2,4,9.4,10.6,12.2,20.1c2.8,9.6-3.1,28.3-8.7,36c-2.1,1.9-2.8,4.2-2.8,7
			c0,5.1-0.4,10.2-0.5,15.3c-0.2,5.8-0.7,11.6-0.2,17.3c0.5,7.4,1.8,14.8,2.8,22.2c0.5,3,1.3,6,2,9.1c3.4-0.3,6.2-0.6,9.3-0.9
			c0.5-0.9,1.2-1.8,1.7-2.9c4.2-9.3,10.8-17.9,14.6-30.9c4.4-15,7.1-40.1,6-52.1s-5.8-31.9-10.2-43.2c-2.8-7.2-6.1-14.2-9.2-21.2
			c-0.1-0.2-0.5-0.3-0.7-0.4c-5.5,3.4-11.1,3.2-16.5,0.2c-7.7-4.3-9.7-11.7-10.4-20c-0.3-0.1-0.9-0.5-1.5-0.7
			c-8.9-4.9-19.9-8.8-31.2-9.3S88,40.8,83.5,42.2c-3.6,1.1-7.3,2.3-10.3,5c0,0.7,0.1,1.5,0,2.2c-0.3,2-0.4,4.1-1,6
			c-1.7,5.4-5.7,8.8-10.4,11.6c-3.7,2.3-7.6,4.1-12.3,3.5c-1-0.1-1.7,0.3-2.5,1.2c-3.1,3.3-8.9,13.3-11.3,24.3
			c-1.3,5.9-3.9,23.5-4.5,33.2c-0.3,5.8-0.1,11.7,0.6,17.5c1.3,11.4,3,22.8,6.2,33.8c3,10.2,6.2,20.4,11.7,29.6
			c2.8,4.6,5.7,9.2,8.7,13.9c3.3-0.3,6.3-0.5,9.3-0.8c1.3-0.1,2.2-0.6,2.5-2.1c1.5-7.4,3.1-14.9,4.6-22.3c1.4-7.1,2.6-14.3,4-21.4
			c0.8-4.4,1.6-8.7,2.3-12.5c-4-3-7.9-5.5-11.1-8.6c-9.2-9-14.4-19.7-12.7-32.9c0.9-7,2.8-13.7,8.6-18.4c2.7-2.2,5.8-4.2,8.9-5.9
			c2-1.1,2.5-0.5,3.2,1.8c-8.5,4.1-15.2,9.7-17.1,19.5c-1.5,7.7-1.1,15,2.7,22.1c4.8,8.9,11.1,15.8,21,19.2c8.6,3,17.2,4.1,26.1,3.1
			c8.5-0.9,16.6-3.7,24.2-7.3c3.9-1.9,7.3-4.8,11.1-6.8c9.7-9.3,12.8-21.6,13.4-31.2c0.5-8.6-4.2-17.1-10.7-23.9
			C141.5,89.8,129.1,87,123.6,89.5z M59.5,236c-4.9-7.4-9.6-14.6-14.2-21.8c-1.2-1.9-2.4-3.9-3.5-5.9c-2.7-5.3-5.1-10.8-7.3-16.4
			c-1.8-4.8-3.7-9.5-4.8-14.5c-0.9-4.2-2.2-8.4-2.8-12.7c-1-6.5-1.8-13.1-2.2-19.7c-0.3-6,0-12,0.3-17.9c0.3-4.7,1.1-9.5,1.8-14.2
			c0.8-5.7,1.5-11.4,2.8-17c1.5-6.5,3.5-13,5.4-19.4c0.7-2.2,1.6-4.4,2.6-7.2c-6.1-5-9.8-11.9-10.3-21C23.2,54,18.7,60.7,15,71.2
			s-8,28.8-10.3,43.7c-1.9,12.3-1.7,39.7,3.2,59c6.1,24.3,14.2,45.8,18.7,52.2c4.5,6.4,13.9,17,18.7,21.7c1.7,1.7,3.8,3.1,6.4,5.2
			C50.7,245,53.7,239.7,59.5,236z M173.9,246.1c1.1-0.7,2-1.2,2.6-1.8c5-5,10.1-9.9,15-15c4.5-4.6,8-10.1,10.9-15.8
			c2.9-5.7,5.2-11.7,7.6-17.6c1.4-3.4,2.6-6.9,3.4-10.5c1.1-5.1,1.7-10.2,2.5-15.4c0.5-3.1,1.1-6.2,1.2-9.3
			c0.3-8.3,0.5-16.6,0.4-24.8c0-4.9-0.3-9.8-1-14.6c-1.7-11.8-4.4-23.5-8.8-34.6c-1.4-3.6-2.9-7.3-4.8-10.7c-2.9-5-5.3-10.2-9-14.7
			c-3.9-4.9-7.4-10.2-11-15.3c-0.2-0.3-0.7-0.4-1.3-0.7c-0.7,2.8-1.1,5.5-2,8.1c-0.8,2.4-1.9,4.9-3.3,7c-1.5,2.2-3.5,4-5.3,6.1
			c0.5,1,1.1,1.9,1.5,2.9c1.8,3.7,4,7.3,5.4,11.1c2.7,7.1,5.1,14.3,7.4,21.6c1.3,4.2,2.5,8.6,3.3,12.9c1.3,7.1,2.3,14.3,3.2,21.5
			c0.9,7.4,1.1,14.7,0.5,22c-0.6,7.8-2,15.4-3.9,23c-2.3,9.1-6.1,17.6-10.1,26c-2,4.1-4.4,8-6.6,12c-1.1,2-2,4-3.2,6
			c-0.8,1.3-1.8,2.4-2.8,3.6C169.9,234,173.3,239.2,173.9,246.1z M149.1,226.9c-4-19.3-3.8-38.6-3.9-58.1
			c-9.7,3.7-19.1,6.9-29.2,7.8c-10.1,0.8-20-0.4-29.7-2.8c-1.7,9.8-3.7,19.1-4.9,28.5c-1.2,9.6-5.3,18.5-6.4,28.2
			c0.7,0.1,1.1,0.3,1.5,0.3c8.1,0.7,14.2,6.7,15.1,14.9c0.2,1.6,0.5,3.2,0.9,5c3.1,0.4,6.1,1,9.1,1.2c3.4,0.2,6.9-0.1,10.3,0.1
			c7.4,0.3,14.2-1.5,20.5-5.2c1.5-0.9,2.3-1.9,1.8-4c-0.7-2.8,0.2-5.3,2-7.6c2.2-2.8,5-4.8,8.3-6.2
			C145.9,228.3,147.3,227.7,149.1,226.9z M161.5,51c-1.6-0.4-2.4-1.2-2.6-2.8c-0.1-0.7-0.3-1.5-0.6-2.2c-0.7-1.9-2.2-2.6-4.1-2.7
			c-1.8-0.1-3.3,0.3-4.3,2.2c-3.1,6.6-1.4,11.4,3,16c1,1.1,3.3,2,4.7,1.6c4.6-1.2,8.5-3.6,10.9-8c2.7-5,3-10.3,2.8-15.8
			c-0.2-3.9-1.2-7.5-4.2-10.1c-6.8-5.8-14.1-10.9-22.3-14.6c-11-5.1-22.7-7.3-34.6-8.4c-5.3-0.5-10.6-0.1-15.8,0.9
			c-4.5,0.8-8.9,2-13.3,3c-8.1,2-15.5,5.6-22.5,10.1c-6.1,3.8-11.7,8.3-16.9,13.3c-1.4,1.4-3.1,2.5-4.4,3.9
			c-3.9,4.4-5.5,9.3-3.7,15.3c1.3,4.3,3.9,7.4,7.1,10.3c1.6,1.5,3.2,2.8,5.5,3.3c7.3,1.3,12.7-2,17.3-7c1.8-2,2.8-4.7,2.3-7.6
			c-0.8-4-2.7-7.4-6.1-9.7c-1.2-0.8-2.9-1.3-4.2-1.1c-1.7,0.2-3.4,1-4.8,2c-2.2,1.6-3.9,3.7-4.1,6.7c0,0.7-0.5,1.5-0.8,2.2
			c-0.8-0.3-1.7-0.5-2.3-1c-1.3-1.1-1.8-2.6-0.9-4.1c1.5-2.3,2.9-4.6,4.8-6.6c3.7-4,8.1-6.4,13.6-4.4c2.4,0.8,4.6,2.5,6.6,4.1
			c1.3,1,2.3,1.4,3.8,0.5c3.3-2,0.7-1.5,10.4-4.5c14.5-4.6,28.1-3.9,40.4-0.5c6.8,2.5,13.5,5.2,20.5,8c0.2-0.2,0.6-0.7,1.1-1.1
			c5.7-5.5,12.9-5.2,17.9,0.6C163.6,45.1,163.6,48,161.5,51z M136.7,249.3c-0.6,0.2-1,0.4-1.4,0.6c-4.7,2.7-9.7,4.8-15.1,5.8
			c-2.9,0.5-5.8,1-8.6,1.6c-7.1,1.6-14.2,1.2-21.3,0.2c-1.7-0.2-3-0.1-4.5,0.9c-4.1,2.9-8.6,3.3-13.3,1.2c-1.6-0.7-2.7-1.8-3.1-3.5
			c-0.4-1.4,0.2-1.9,1.7-1.7c1.8,0.3,3.7,0.6,5.4,0.4c6.2-0.7,7.6-6.1,5.8-11c-1.6-4.3-5.3-6.2-9.7-6.4c-6.6-0.3-11.2,3.3-15,8.3
			c-0.8,1.1-1.6,2.5-1.7,3.7c-0.1,1.9,0.5,3.8,0.8,5.8c0.4,2.3,2.4,3,3.9,4.1c4.3,3,8.4,6.5,13.6,8.2c8.1,2.6,16.5,3.6,24.8,4.9
			c2.2,0.3,4.6,0.2,6.8,0.5c4.9,0.8,9.7,0.6,14.6,0c5.8-0.7,11.5-2.1,17.2-3.4c8.7-2,15.9-6.1,21.7-12.7c3.9-4.3,5.3-9.4,2.9-15.1
			c-1.4-3.4-4.1-5.6-7.3-7.1c-3.8-1.8-7.7-1.5-11.1,0.9c-4.1,3-5.4,7-4,11.5c1,3.3,2.4,4.4,5.8,4.7c2.8,0.3,4.5-1.1,6.1-3.1
			c1.7-2.1,1.7-2.1,3.7,0.1c-1.4,3.1-4,5.8-7.2,6C143.6,255.4,139.5,253.5,136.7,249.3z"/>
		<path d="M125.8,138.4c-1.4,0.1-3.5-2.5-3.5-4.2c0-1.7,1.6-3.5,3.2-3.6c1.6-0.1,3.9,2.2,4.1,4C129.7,136.4,127.9,138.3,125.8,138.4
			z"/>
		<path d="M96.7,136.3c-0.1-2.1,0.9-3,3.2-3.2c2-0.1,3.5,1.4,3.6,3.7c0.1,1.8-1.9,3.5-3.9,3.5C97.9,140.3,96.8,138.7,96.7,136.3z"/>
	</g>
	<path  id="" class="st0" d="M149.1,226.9c-4-19.3-3.8-38.6-3.9-58.1c-9.7,3.7-19.1,6.9-29.2,7.8c-10.1,0.8-20-0.4-29.7-2.8
		c-1.7,9.8-3.7,19.1-4.9,28.5c-1.2,9.6-5.3,18.5-6.4,28.2c0.7,0.1,1.1,0.3,1.5,0.3c8.1,0.7,14.2,6.7,15.1,14.9
		c0.2,1.6,0.5,3.2,0.9,5c3.1,0.4,6.1,1,9.1,1.2c3.4,0.2,6.9-0.1,10.3,0.1c7.4,0.3,14.2-1.5,20.5-5.2c1.5-0.9,2.3-1.9,1.8-4
		c-0.7-2.8,0.2-5.3,2-7.6c2.2-2.8,5-4.8,8.3-6.2C145.9,228.3,147.3,227.7,149.1,226.9z"/>
</g>
</svg>
