<?xml version="1.0" encoding="utf-8"?>
<!-- Generator: Adobe Illustrator 19.1.0, SVG Export Plug-In . SVG Version: 6.00 Build 0)  -->
<svg version="1.1" id="Calque_1" xmlns="http://www.w3.org/2000/svg" xmlns:xlink="http://www.w3.org/1999/xlink" x="0px" y="0px"
	 viewBox="0 0 299.6 290" style="enable-background:new 0 0 299.6 290;" xml:space="preserve">
<style type="text/css">
	.st0{fill:#EC6C65;}
</style>
<g>
	<path id="" class="st0" d="M229.2,216.7l-7.7,2.6l-13.2,6.3l-7.6,2.2l-4.4,1.3l-2.6,8v9l-4.1-0.7l-2.1-4.3l-2.3-5.8l-5.4-2l-6.7,9.7
		l-9.3,4.2l-7.5-3l-5.2,1.4l-8.1,7.6l-3.8,4.5h-6.4l-8.9-3.7l-6.8-4.8l-2.5-6.2l1.9-4.9l5.8-1.6l4.2-3.2l9.7-19.4l-6.3-4.1l-4.8-1.4
		l-0.6-2.4l5.6-3.3h8.5l2.8-2.2l5.6-5.8h5.2l6.2-2.9l6.5-5.3l3.8-5.6l4.5-10.5l6.4-11l4.1-5.2l-2.2-3.1l-17.8-14.5l-37.6-16.8
		l-33.8-6l-13.8,23.3v6.8l-3.7,11.4l-2.5,4.1l-3.7-3.1l-3.7-7.1l-2.9-6.5l-4.4-5.6v-9.9l-2.1-6.7l-2.8-6.7l-25.9,4.6l-24.2,9.1v10.5
		l5.2-1.2l7.2,2.7l6.8,7.9l3.5,6.7L19.6,167v7l3.8,6.6l5.6,7.1h7.1l6-3.6l4.5-5.5l7.5-7.2l3.7-1l4.7,4.9l0.9,6.9l0.3,5.5l-9.3,20.6
		l-6.4,11.9l-3.6,18.6l12.3,8.6l32.2,17.7l52.1,18.6l1.2-4.8l2.2-7.3l6.6-5.8l12.3-2.2l22.7-5.6l20.5-9.1l11.5-7.9l9.9-10.6l5.2-4.4
		L229.2,216.7z"/>
	<polygon id="" class="st0" points="184.7,85.8 193.2,82.5 205.3,76.1 208.1,66.1 205.6,60.3 201.3,55.3 196.6,47.1 192.3,43.2 
		186.3,41.9 181.7,43.6 180.3,48.4 178.8,47.7 175.3,46.4 172.3,48.2 169.5,50.1 165,46.2 159.8,42.2 156.3,40.8 149.6,40.8
		144.5,43.8 142.3,47.7 140.5,51.9 142.3,54.3 145.9,57.3 143,62.6 144.5,66.8 146.8,68.5 153.5,69.1 158.9,67.2 160.4,68.3
		164.1,71.9 172.3,70.6 176.8,67.4 178.4,65.7 182.9,69.3 186.1,72.4 179.6,76.7 177.9,81 177.7,84.1 181.7,85.8 	"/>
	<g>
		<path class="st0" d="M257.3,141.8c-0.4-0.3-1-0.5-1.2-0.9c-0.2-0.4-0.2-1.2,0.1-1.6c1.6-2.1,3.2-4.1,5-6c0.4-0.4,1.6-0.4,2.2-0.1
			c0.8,0.4,1.4,1.5,0.7,2.4c-1.7,2-3.6,3.9-5.4,5.8C258.4,141.5,257.9,141.6,257.3,141.8z"/>
		<path class="st0" d="M267.4,154.3c-1.5-0.1-2.6,0-3.8-0.3c-0.6-0.1-1.2-0.6-1.6-1c-0.6-0.7-0.2-1.4,0.7-1.5
			c3.3-0.1,6.5-0.3,9.8-0.3c0.5,0,1.2,0.7,1.4,1.2c0.2,0.8-0.2,1.5-1.2,1.5C270.9,154,269,154.2,267.4,154.3z"/>
		<path class="st0" d="M241.7,127.3c1.2-0.2,1.6,1,2,1.9c1,2.3,1,4.8,0.2,7.2c-0.1,0.4-0.7,0.9-1.1,0.9c-0.6,0-1.2-0.4-1.6-0.8
			c-0.3-0.3-0.3-0.9-0.3-1.4C241.1,132.5,241.4,130,241.7,127.3z"/>
		<path class="st0" d="M266.6,172.9c-2.1-0.9-4.2-1.8-6.2-2.8c-0.4-0.2-0.5-1-0.7-1.6c0.6-0.1,1.2-0.5,1.7-0.4
			c2,0.6,3.9,1.3,5.8,2.2c0.4,0.2,0.7,0.9,0.7,1.4C267.8,172,267.2,172.3,266.6,172.9z"/>
		<path class="st0" d="M227.1,130.4c0.5,0.6,0.8,1.1,1.1,1.6c0.8,1.5,1.7,3.1,2.3,4.7c0.2,0.6-0.1,1.3-0.2,2
			c-0.6-0.1-1.3-0.1-1.7-0.4C227,137,226.1,132.7,227.1,130.4z"/>
		<path d="M1.1,155.3c-0.2-7.7-0.4-14.8-0.6-21.8c0-0.9-0.5-1.8-0.5-2.7c0.2-3.2,0.3-6.5,0.9-9.7c0.6-3.7,1.6-7.3,2.5-10.8
			c0.9-3.4,1.9-6.9,3.1-10.2c1.5-4.1,3.1-8.2,5.1-12.1c2.5-5.1,5.3-10,8.2-14.9c1.7-2.9,3.5-5.8,5.7-8.4c4-4.8,8.2-9.3,12.4-14
			c1.2-1.3,2.4-2.7,3.7-3.9c2-1.9,4.1-3.7,6.2-5.4c4-3.3,8.1-6.7,12.2-9.8c2.7-2.1,5.7-3.9,8.5-5.8c2.1-1.4,4.1-3.1,6.4-4.2
			c4.2-2.3,8.6-4.2,13-6.4c2-1,3.9-2.1,5.9-3c3.2-1.4,6.4-2.6,9.6-3.8c2.8-1.1,5.8-2,8.6-2.9c0.5-0.2,1.1-0.6,1.6-0.6
			c4.4-0.2,8.2-2.7,12.4-3.3c2.4-0.4,4.9-0.5,7.4-0.7c3.1-0.2,6.3-0.3,9.4-0.3c4.5-0.1,9.2-0.7,13.6,0.2c3.6,0.8,7.2,1.1,10.8,1.8
			c4.4,0.8,8.8,1.2,13.2,2.1c3.8,0.8,7.5,2.1,11.3,3.1c1.4,0.4,2.8,0.6,4.2,1c2.7,0.8,5.3,1.8,8,2.7c2.1,0.7,4.2,1.1,6.2,1.9
			c2.8,1.1,5.5,2.4,8.2,3.5c2,0.8,4,1.4,6,2.1c0.5,0.2,1,0.4,1.5,0.6c1.6,0.6,3.2,1.4,4.8,1.8c2.8,0.6,5.2,2.3,7.8,3.3
			c3.3,1.3,6.1,3.3,8.7,5.6c0.8,0.7,2,1,2.9,1.6c3.6,2.4,7.2,4.9,10.7,7.4c1.4,1,2.8,2.2,4.1,3.5c3.1,2.9,5.7,6.1,8.1,9.6
			c1.2,1.8,2.6,3.6,4,5.3c3.1,3.9,5.8,8,8.1,12.5c1.6,3.2,3.2,6.3,4.5,9.6c1,2.5,1.6,5.1,2.4,7.7c0.5,1.7,1.2,3.4,1.7,5.2
			c1.3,4.3,2.5,8.6,2.8,13.1c0.1,2.1,0.7,4.2,1,6.3c0.4,2.4,0.8,4.7,1.1,7.1c0.4,3.1,0.9,6.3,1,9.5c0.2,5.4,0.3,10.7,0.3,16.1
			c0,4.1,0,8.3-0.2,12.4c-0.3,4.5-1,8.9-1.5,13.4c-0.2,2.1-0.1,4.3-0.5,6.3c-0.3,2-1.1,3.9-1.5,5.8c-0.5,1.9-0.7,4-1.3,5.9
			c-0.7,2.3-1.6,4.5-2.5,6.8c-0.9,2.2-1.7,4.4-2.7,6.5c-0.8,1.8-15.7,23.5-19.6,28.1c-2.5,2.9-5.1,5.7-7.7,8.6
			c-3.1,3.3-6.3,6.5-9.3,9.8c-3,3.3-20.2,17.7-32,25.8c-11.7,8.1-27.5,13.9-32,14.7c-5,0.9-10.2,1.4-15.3,1.5
			c-4.9,0.1-9.9-0.4-14.8-0.6c-3.2-0.1-6.5-0.1-9.7-0.2c-2.8-0.1-5.6-0.2-8.4-0.6c-1.5-0.2-2.9-1-4.4-1.3c-5.1-1.1-10.1-2.6-15-4.5
			c-1.9-0.8-4.1-1-6-1.7c-1.9-0.7-3.6-1.7-5.5-2.6c-0.9-0.4-1.9-0.8-2.8-1.3c-4.2-2.2-41-17.2-53-27.2c-2.8-2.1-5.8-3.9-8.5-6
			c-2.3-1.8-4.3-3.8-6.5-5.8c-2-1.9-4.1-3.6-6-5.6c-3.9-4.3-8.9-7.6-11.9-12.9c-0.5-0.9-1.5-1.6-2.2-2.5c-0.6-0.7-1.2-1.5-1.7-2.4
			c-3.1-5.6-6.2-11.1-9.1-16.8c-1.2-2.3-1.9-5-2.4-7.6c-0.8-3.7-1.3-7.5-1.8-11.3c-0.4-3-0.6-6.1-1-9.1c-0.3-2.7-0.6-5.4-1-8
			C1.7,159.5,1.3,157,1.1,155.3z M242.2,245.5c0.6-0.5,1.1-0.8,1.5-1.1c2.5-2.3,5.1-4.5,7.5-6.9c2.7-2.7,5.3-5.6,7.8-8.5
			c1.4-1.5,2.6-3.3,4-4.8c2.3-2.4,4.3-4.9,5.8-7.9c1.2-2.4,2.7-4.7,4.4-6.8c18.9-26.3,18.7-61.3,18.8-64.4
			c0.2-5.1-0.1-10.2-0.3-15.3c-0.1-3.4-0.5-6.7-0.8-10.1c-0.1-0.9-0.6-1.8-0.7-2.8c-0.6-5.1-0.9-10.2-1.7-15.2
			c-0.7-4.6-1.6-9.2-3-13.6c-1.2-3.9-3.3-7.5-4.8-11.3c-1.9-5-4.7-9.5-7.5-14c-1.6-2.5-3.2-5-4.8-7.5c-1.6-2.4-3.2-4.8-5.5-6.5
			c-2.3-1.7-4.6-3.5-6.8-5.3c-3.5-2.8-7-5.8-10.6-8.5c-1.4-1.1-3.1-1.8-4.7-2.6c-2.7-1.3-5-3.6-8.1-4.2c-2.1-0.4-4-1.7-6-2.5
			c-3-1.2-6.1-2.3-9.1-3.5c-1.5-0.6-2.8-1.6-4.2-2.2c-3-1.1-6.1-2-9.1-3.1c-2.9-1.1-5.7-2.6-8.7-3.5c-2.5-0.8-5.2-1.2-7.8-1.7
			c-2.5-0.4-5.1-0.4-7.7-0.9c-5.2-0.8-10.3-1.8-15.5-2.8c-1.5-0.3-3.1-0.3-4.5-0.8c-3.7-1.3-20.6-1-25.2-0.9c-1.8,0.1-3.7,0-5.4,0.4
			c-3.9,0.9-8,1.3-11.8,2.6c-1.8,0.6-3.7,0.8-5.4,1.4c-3.8,1.3-7.6,2.8-11.4,4.1c-1.4,0.5-2.9,0.6-4.3,1.2c-2.2,0.9-4.3,2-6.4,3.1
			c-2.3,1.2-4.6,2.5-6.9,3.8c-4.5,2.6-8.9,5.5-13.6,7.9c-4.7,2.4-8.5,5.8-12.5,9.1c-2.9,2.4-5.6,5.1-8.4,7.7c-2.9,2.7-6,5.2-8.6,8.2
			c-4.3,5.1-9.6,9.4-13,15.3c-1.8,3.2-3.7,6.4-5.3,9.7c-1.3,2.6-2.3,5.3-3.5,7.9c-0.9,2-2.2,3.8-3,5.9c-1.2,2.9-2,6-3.2,8.9
			c-2.2,5.5-3.9,11-5.2,16.8c-0.1,0.7,0,1.4,0,2.1c0.7-0.1,1.5,0,2.2-0.3c3-1.2,5.9-2.8,9-3.8c3.7-1.3,7.5-2.2,11.3-3.1
			c2.8-0.7,5.6-1.3,8.5-1.8c3.2-0.6,6.3-1.2,9.5-1.8c1.4-0.3,2.8-0.6,4.3-0.7c4.8-0.5,9.6-1,14.3-1.4c3.5-0.3,7.1-0.6,10.6-0.7
			c3.3-0.1,6.6-0.3,9.8-0.1c3,0.1,5.9,0.7,8.9,1c5.1,0.5,10.2,0.6,15.1,2.1c1.1,0.3,1.9,0,2.1-1.2c0.3-2.4,0.6-4.8,0.9-7.2
			c0.3-2.2,0.6-4.4,1.1-6.5c0.4-1.8,2.2-2.2,3.7-2.5c0.6-0.1,1.5,0.3,2,0.8c1.6,1.6,3,3.5,4.6,5.1c1,1,1.6,0.8,1.9-0.6
			c0.2-0.7,0.2-1.4,0.4-2c0.3-0.8,0.6-1.7,1.3-2.1c1.6-1.1,5,0.4,5.8,2.1c0.9,1.9,2.1,3.6,3.1,5.4c0.2,0,0.4,0,0.6,0
			c0.3-0.9,0.7-1.7,0.9-2.6c0.6-2.7,2.3-4.3,5-4.3c0.8,0,1.9,0.6,2.4,1.2c1.9,2.3,3.5,4.8,5.3,7.1c0.9,1.2,1.6,1.2,2.4-0.1
			c0.8-1.4,1.6-2.9,2.4-4.3c2.2-3.6,4.5-7.2,6.7-10.8c0.6-1,1.6-1.3,2.5-0.7c1.2,0.7,2.3,1.3,3.5,1.9c2.2,1.2,4.5,2.3,6.7,3.5
			c1,0.5,1.2,1.3,0.6,2.4c-2.2,3.5-4.3,7-6.3,10.5c-2.1,3.7-4.1,7.4-6.2,11.1c-1.6,2.8-3.3,5.6-4.9,8.4c-0.8,1.4-0.6,2.4,0.9,3.2
			c2.1,1.1,4.2,2,6.2,3.3c3.8,2.5,7.8,4.9,11.3,7.8c4.8,3.9,9.6,8.1,13.9,12.5c5.6,5.8,10.8,12.1,16,18.3c0.8,0.9,1.2,0.9,2.1,0.2
			c4.8-4,9.7-8,14.5-12c1.2-1,1.8-2.1,1.7-3.9c-0.2-3,0.4-6.1,2.3-8.5c2.2-2.7,5.4-3.9,8.8-4.2c3.9-0.4,7.7,0.4,11.1,2.4
			c1.7,1,3.3,2.3,4.7,3.7c0.8,0.8,1.1,2.2,1.8,3.2c2.5,3.8,2.3,7.8,0.2,11.5c-1.2,2.1-2.8,4-4.6,5.5c-3,2.5-6.5,3.6-10.4,2.2
			c-0.6-0.2-1.5,0-2,0.4c-1.7,1.3-3.3,2.7-4.9,4.1c-3.9,3.4-7.8,6.9-11.7,10.3c-1,0.8-1,1.3-0.3,2.4c1.6,2.3,3,4.6,4.3,7
			c2.1,4.1,4.1,8.2,6,12.3c1.6,3.4,3,6.9,4.3,10.4c1,2.6,1.5,5.4,2.3,8.2c1.4,5.2,2.8,10.3,4.2,15.5
			C241.8,243.1,241.9,244.2,242.2,245.5z M139.7,280c0.3-1.4,0.3-2.5,0.7-3.5c0.9-2.3,1.5-4.8,3-6.6c1.7-2,4.2-3.3,6.4-4.9
			c0.3-0.2,0.8-0.3,1.2-0.4c4.9-1.1,9.8-2.1,14.6-3.4c7.1-1.8,14.2-3.7,21.2-5.5c5.9-1.6,11.6-3.7,16.9-6.8c2.9-1.7,5.6-3.7,8.4-5.7
			c1.7-1.2,3.5-2.4,5.1-3.8c4.2-3.8,8.2-7.9,11.5-12.5c0.2-0.2,0.3-0.6,0.2-0.9c-0.6-1.9-1.3-3.8-2-5.7c-0.1-0.3-0.9-0.7-1.3-0.6
			c-1.4,0.4-2.9,0.8-4.2,1.5c-2.6,1.2-5.1,2.6-7.5,4c-3.8,2.1-7.8,3.6-12.1,3.9c-2,0.2-3.4,1.1-4.1,3c-0.4,1.3-1,2.6-1.2,4
			c-0.3,3-0.4,6.1-0.4,9.1c0,2.2-0.7,3.1-2.9,2.9c-0.3,0-0.7-0.1-1-0.1c-2.5-0.4-4.4-1.5-5.1-4c-0.3-1.2-0.6-2.4-0.9-3.5
			c-0.4-1.3-0.8-2.7-1.6-3.7c-1.8-2-3.3-2.5-5.1-0.2c-1,1.3-1.7,2.7-2.6,4.1c-1.1,1.7-1.8,3.5-3.8,4.4c-0.6,0.3-1.2,0.6-1.7,1.1
			c-3.4,2.9-7.3,2.8-11.3,1.7c-0.7-0.2-1.2-0.9-1.8-1.3c-0.4-0.3-0.9-0.5-1.4-0.6c-0.6-0.1-1.3,0.1-2,0.1c-1.2,0-2.3-0.2-2.9,1.2
			c-0.2,0.5-0.8,0.8-1.3,1.2c-2.2,1.8-4.3,3.5-6.5,5.4c-0.7,0.6-1.2,1.5-1.8,2.2c-2.3,2.3-5,3.2-8.3,2.6c-0.9-0.2-1.9-0.2-2.8-0.4
			c-1.7-0.4-3.6-0.6-5.1-1.5c-2.8-1.5-5.4-3.3-8-5.1c-1-0.7-2-1.5-2.5-2.5c-0.9-1.5-1.4-3.3-2-4.9c-1.2-3.6,0.6-7.2,4.1-8.5
			c0.8-0.3,1.6-0.6,2.5-0.9c1.9-0.7,3.2-2.8,3.4-4.8c0.1-2.2,0.2-4.4,1-6.4c1.3-3.2,3.1-6.1,5.6-8.5c0.7-0.7,1.3-1.4,2.3-2.5
			c-2-0.8-3.5-1.4-5.1-2c-1.1-0.4-2.2-0.7-3.2-1.3c-1.7-1-2-3-0.8-4.6c1.4-1.9,3.3-3.1,5.5-3.7c0.9-0.2,1.8-0.4,2.7-0.3
			c3.3,0.4,6.3,0.2,8.5-2.7c1-1.2,2.2-2.3,3.4-3.3c1.4-1.1,2.9-2.1,5-2c1.6,0.1,3.4-0.1,5-0.5c5.1-1.4,9.1-4.7,12-9
			c2-3,3.3-6.5,5-9.8c1.3-2.7,2.6-5.4,4.1-7.9c2.2-3.7,4.7-7.1,7-10.7c0.2-0.4,0.2-1.3,0-1.6c-1.7-1.7-3.4-3.3-5.2-4.8
			c-2.1-1.6-4.3-3.1-6.5-4.5c-2.7-1.8-5.4-3.6-8.2-5.2c-2.2-1.3-4.7-2.2-7-3.3c-2.3-1.1-4.6-2.2-6.9-3.3c-3.6-1.7-7.2-3.7-10.9-5.2
			c-4.2-1.7-8.5-3.2-12.8-4.4c-4.6-1.3-9.4-2.2-14.1-3.2c-1.5-0.3-2.9-0.5-4.4-0.7c-4-0.6-8-1.1-12-1.6c-0.4,0-1.1,0.3-1.3,0.7
			c-1.2,2.3-2.3,4.6-3.5,6.9c-0.8,1.5-1.6,3.1-2.6,4.5c-2.2,3.3-4.3,6.6-5.2,10.5c-0.2,0.8,0,1.6-0.2,2.4c-0.5,2.1-1.2,4.1-1.8,6.2
			c-0.4,1.3-0.6,2.7-1.1,4c-0.5,1.6-1.2,3.1-1.8,4.7c-0.4,1-0.6,2-1.1,2.9c-1.1,1.8-3.8,1.9-5.1,0.1c-1.1-1.5-2.2-2.9-3.2-4.5
			c-1.5-2.3-3.3-4.6-3.7-7.5c-0.4-2.5-1.5-4.6-3.2-6.4c-2.3-2.4-3-5.3-2.9-8.6c0-3,0.1-6.2-1.5-9c-0.9-1.6-1.6-3.4-2.4-5.1
			c-0.8-1.8-1.6-2.1-3.5-1.7c-4.8,0.9-9.5,1.8-14.3,2.7c-1.7,0.3-3.5,0.6-5.2,1c-3,0.8-5.9,1.7-8.8,2.6c-2.9,0.9-5.8,1.8-8.6,2.9
			c-2.4,0.9-4.6,2-7.1,3.1c-0.1,0.7-0.1,1.5-0.2,2.4c-0.4,2.4-0.2,3,2.1,3.2c3.8,0.3,6.5,2.4,9.3,4.6c2.3,1.8,4,4,5.3,6.5
			c1.2,2.3,2.6,4.5,4.2,6.5c1,1.3,1.2,2.6,0.5,4c-1,2-2.2,3.9-3,6c-0.8,2-1.1,4.3-1.9,6.3c-1.1,2.7,0,5.2,0.9,7.5
			c0.8,2,2.5,3.6,3.6,5.6c1.4,2.6,3.7,3.3,6.2,3.4c3.2,0.1,5.8-1.2,8-3.6c1.6-1.7,3.4-3.2,5-4.8c1.9-1.8,3.8-3.5,5.7-5.3
			c0.7-0.6,1.3-1.3,2.1-1.7c2.3-1.2,4.6-0.3,6.6,0.8c1.6,0.9,3.2,2.1,3.7,4.2c0.4,1.8,1,3.5,0.6,5.4c-0.1,0.8,0.2,1.6,0.3,2.4
			c0.1,1.3,0.4,2.6,0.3,3.8c-0.2,1.3-0.9,2.5-1.4,3.8c-0.8,2.2-1.5,4.4-2.5,6.4c-1.7,3.5-3.3,6.9-4.4,10.6c-0.9,2.7-2.4,5.2-3.8,7.7
			c-1.2,2.2-2.9,4.1-3.6,6.4c-1.2,4.1-1.7,8.4-2.5,12.7c-0.2,0.9,0.1,1.5,0.9,2c2.9,1.8,5.7,3.6,8.4,5.5c3.8,2.7,7.5,5.5,11.2,8.2
			c2,1.5,3.8,3.2,6,4.3c4.3,2.1,8.8,3.9,13.3,5.8c3.4,1.4,6.8,2.8,10.1,4.3c3.9,1.7,7.7,3.6,11.5,5.4c3.1,1.5,6.1,3.2,9.2,4.4
			c4.3,1.6,8.7,3,13.1,4.2C133.6,279.3,136.6,279.5,139.7,280z M43.7,233.4c0.5-2.8,0.9-5.3,1.4-7.8c0.7-3.4,1.7-6.7,3.6-9.7
			c1.8-2.7,3.4-5.6,4.8-8.5c1.2-2.6,2-5.4,3.1-8.1c0.8-1.9,1.8-3.6,2.6-5.5c1.2-2.6,2.3-5.3,3.3-8c0.3-0.7,0-1.6-0.1-2.4
			c-0.2-1.2-0.8-2.5-0.7-3.7c0.4-3.1-0.9-5-3.5-6.4c-1.7-0.9-2.6-0.9-4,0.4c-0.8,0.8-1.5,1.6-2.3,2.4c-1.2,1.2-2.5,2.3-3.7,3.4
			c-1.4,1.2-2.9,2.3-4.1,3.6c-3,3.4-6.6,5.7-11.2,5.3c-3.3-0.3-6.5-1.3-8.3-4.5c-0.4-0.7-0.8-1.3-1.4-1.9c-2.6-2.7-3.5-6.1-4.2-9.5
			c-0.7-3.7,0.8-7.2,1.4-10.7c0-0.3,0.4-0.6,0.5-0.9c0.9-1.8,1.9-3.6,2.8-5.4c0.5-0.9,0.2-1.7-0.4-2.5c-0.7-0.9-1.3-1.9-1.9-2.9
			c-1.9-2.8-3-6-5.7-8.2c-2.4-1.9-4.8-3.7-8-3.9c-1-0.1-1.5,0.2-1.4,1.3c0.3,3.3,0.6,6.5,0.8,9.8c0.2,4,0.2,7.9,0.6,11.9
			c0.5,4.5,1.6,8.9,2.1,13.4c0.6,5.3,1.1,10.5,2.4,15.7c0.9,3.9,2.7,7.1,5,10.1c0.6,0.9,1.4,1.6,1.9,2.6c1.7,3.8,3.8,7.5,6,11
			c3.4,5.3,7,10.4,12,14.4C39.1,230,41.3,231.6,43.7,233.4z M143,280.2c0.5,0.1,0.8,0.2,1.1,0.3c6.8,0.4,13.6,1.2,20.4,1.1
			c5.3,0,10.5-1,15.8-1.8c4.4-0.7,8.9-1.5,13.2-2.7c3.6-1,7.1-2.7,10.6-4.2c5.2-2.2,10.2-4.7,14.9-8c2.9-2,5.8-4,8.6-6.1
			c2.3-1.7,4.5-3.5,6.7-5.3c0.9-0.7,1.2-1.6,0.9-2.7c-0.5-2.2-1-4.5-1.5-6.7c-1.1-4.4-2.2-8.8-3.4-13.4c-0.5,0.5-0.8,0.7-1.1,1
			c-1.1,1.3-2.2,2.7-3.3,3.9c-3.6,3.9-7.2,7.7-11.7,10.4c-1.7,1-3.1,2.6-4.8,3.5c-4.8,2.6-9.3,5.7-14.7,7.2
			c-3.2,0.8-6.2,2.1-9.3,2.9c-4.6,1.2-9.2,2.2-13.7,3.4c-1.9,0.5-3.8,1.4-5.7,1.8c-3.6,0.9-7.3,1.8-10.9,2.4
			c-3.4,0.6-5.7,2.9-8.3,4.7c-0.7,0.5-1.3,1.2-1.6,2C144.1,275.9,143.6,278,143,280.2z M134.8,204.2c0-0.1,0-0.1,0-0.2
			c-0.9-0.1-1.8-0.2-2.8-0.1c-1.7,0.1-3.5,0.4-4.8,1.7c-1,1-0.9,1.7,0.5,2c2.2,0.4,4.1,1.3,5.7,2.7c0.9,0.8,1.3,0.7,2.3,0.1
			c2.2-1.4,4.4-3,6.8-3.7c3.7-1,7.5-1.8,11.5-1.3c3.1,0.4,6,0.6,8.5,2.7c0.3,0.3,1.2,0.3,1.5,0c2.5-1.6,4.9-3.3,7.3-5.1
			c2.4-1.8,4.6-3.8,7-5.7c2.5-2,5-3.9,7.5-5.9c2.5-2,5-4.1,7.5-6.1c3.2-2.7,6.5-5.3,9.7-8c0.7-0.6,0.8-1.4,0.2-2.2
			c-1.4-1.8-2.5-3.8-4.1-5.4c-3.7-4-7.6-7.9-11.4-11.8c-1.9-1.9-2.5-2-4.1,0.1c-2,2.6-3.8,5.3-5.4,8.2c-2.3,4.3-4.3,8.7-6.4,13.1
			c-1.4,3.1-3.2,6-5.5,8.6c-2.2,2.5-5,4.3-8,5.8c-2.4,1.2-4.8,1.9-7.4,1.9c-1.2,0-2.5,0.2-3.6,0.6c-2.8,1.2-4.1,3.9-6,6
			c-0.4,0.5-1,1.1-1.6,1.2C138.1,203.9,136.4,204,134.8,204.2z M161.3,244.7c0.6,0.3,1,0.5,1.4,0.6c3.2,0.5,6-0.6,8.2-2.9
			c1.3-1.4,2.3-3.1,3.5-4.6c1.5-1.8,2.9-3.7,4.5-5.4c0.5-0.5,1.6-0.9,2.2-0.6c1.7,0.7,3.6,1.3,4.9,2.6c1.8,1.7,2.8,4,3.3,6.4
			c0.3,1.3,1,2.6,1.6,3.8c0.1,0.3,0.9,0.4,1.2,0.3c0.3-0.1,0.7-0.7,0.7-1c-0.1-4.1,0.2-8.2,1.3-12.2c0.8-3,3.5-5.4,6.6-5.5
			c0.7,0,1.4-0.1,2-0.2c4-1,7.7-2.7,11.3-4.7c3.3-1.9,6.4-3.9,10.3-4.4c1.4-0.2,1.2-1.1,0.9-2.1c-1.5-4.2-3.2-8.3-4.5-12.5
			c-1.1-3.7-3.4-6.8-5.2-10.1c-0.4-0.8-1-1-1.8-0.4c-2,1.5-4,3-5.9,4.6c-2.1,1.7-4.1,3.6-6.2,5.4c-2,1.8-4.1,3.4-6.2,5.2
			c-2.6,2.3-5.2,4.8-7.8,7.1c-3.3,2.9-6.6,5.7-10,8.6c-0.6,0.5-1.3,1-1.9,1.5c-1.3,0.9-2.2,1.6-2,3.7c0.4,3.9-1.6,7.1-3.8,10.2
			c-0.5,0.8-1.3,1.4-2.1,2C165.8,241.5,163.7,243,161.3,244.7z M133.3,240.6c0.1,0.2,0.2,0.4,0.2,0.6c0.6-0.2,1.3-0.3,1.7-0.6
			c1.8-1.3,3.4-2.6,5.2-3.9c1.7-1.2,3.6-2.2,5.2-3.5c4-3.3,7.8-6.8,11.8-10.1c5.3-4.3,10.7-8.5,15.9-12.8c3.8-3.1,7.6-6.4,11.4-9.6
			c4.4-3.7,8.7-7.4,13.1-11.2c4.1-3.5,8.1-7.1,12.3-10.5c3.7-3,7.6-5.7,11.2-8.8c3.6-3,7-6.3,10.4-9.6c0.7-0.7,1.4-0.9,2.1-0.2
			c0.9,0.8,0.1,1.3-0.5,1.7c-2.5,2.2-4.9,4.4-7.4,6.6c-4.7,4.1-9.4,8.2-14.1,12.2c-2.5,2.1-5.1,4.1-7.6,6.2
			c-3.6,3.1-7.2,6.2-10.6,9.4c-2.5,2.3-2.8,2.4-0.2,4.3c0.2,0.1,0.3,0.3,0.5,0.5c1.5-0.8,1.8-1.5,0.8-2.6c-0.6-0.6-1.1-1.4-0.4-2
			c0.3-0.2,1.2,0.2,1.9,0.5c0.2,0.1,0.3,0.4,0.5,0.5c0.6,0.1,1.3,0.3,1.7,0c1-0.7,2.3-1.4,1.6-3.1c-0.1-0.4,0.2-0.9,0.3-1.4
			c0.4,0.1,1,0.1,1.3,0.4c0.7,0.6,1.1,0.5,1.7-0.1c0.6-0.6,0.8-1.1,0.2-2c-0.4-0.6-0.2-1.5-0.3-2.2c0.7,0.2,1.4,0.4,2,0.6
			c0.1,0,0.1,0.1,0.2,0.2c0.5,0.6,1.1,0.8,1.7,0.1c0.6-0.7,1.9-0.9,1.2-2.4c-0.3-0.6-0.2-1.5-0.3-2.2c0.2-0.1,0.3-0.1,0.5-0.2
			c0.6,0.3,1.1,0.7,1.7,0.9c0.4,0.1,1,0.2,1.3-0.1c2-1.3,2-1.5,1-3.6c-0.2-0.5,0-1.1,0-1.6c0.5,0.1,1.1,0.1,1.6,0.2
			c0.2,0.1,0.4,0.3,0.5,0.5c0.6,0.8,1.2,1.3,2.1,0.5c0.9-0.7,1.8-1.4,1.1-2.8c-0.2-0.5-0.2-1.1-0.4-2.1c1,0.4,1.6,0.5,2.1,0.8
			c0.8,0.6,1.4,0.4,2.1-0.1c1-0.8,1.3-1.7,1-3c-0.2-0.7-0.1-1.4-0.2-2.2c0.2-0.1,0.3-0.2,0.5-0.3c0.6,0.4,1.3,0.9,1.9,1.2
			c0.4,0.2,0.9,0.5,1.2,0.4c1.4-0.6,2-2.1,1.8-3.6c-0.1-0.5,0.1-1.2,0.4-1.5c0.2-0.2,1,0,1.3,0.3c0.8,0.7,1.4,0.4,2-0.1
			c0.9-0.8,1.8-1.6,2.7-2.4c0.7-0.7,1.3-0.4,2.1-0.3c1.9,0.4,4,0.7,6,0.6c3-0.1,4.8-2.4,6.6-4.3c2.4-2.6,2.5-5.8,1.6-8.9
			c-2.2-6.9-10.7-9.5-16.4-7.3c-1.6,0.6-3.2,1.8-4.5,3c-0.8,0.7-1,2-1.3,3.1c-0.3,1.2-0.7,2.6-0.4,3.8c0.5,2.2-0.3,3.5-1.9,4.7
			c-2.4,1.9-4.8,3.7-7.1,5.7c-4.9,4.1-9.6,8.4-14.5,12.5c-5.8,4.9-11.8,9.8-17.7,14.6c-3.3,2.8-6.7,5.5-10.1,8.2
			c-3.3,2.7-6.7,5.4-10,8.1c-0.8,0.6-1.2,1.6-2,2.2c-1.1,1-2.2,1.9-3.4,2.8c-0.8,0.6-1.7,1-2.5,1.7c-3.3,2.9-6.6,5.9-9.9,8.9
			c-0.7,0.6-1.4,1.2-2.1,1.9c-2.4,2.5-5.8,4.1-7.4,7.5c-0.1,0.2-0.3,0.3-0.5,0.5C137.3,237.6,135.3,239.1,133.3,240.6z M71.7,158.1
			c1.1-0.9,1.9-1.7,2.1-3.1c0.1-0.8,0.2-1.5,0.5-2.2c1.8-4.4,3.9-8.7,4-13.6c0-1.3,0.4-2.7,1-3.9c1.2-2.5,2.7-4.8,4-7.2
			c1.9-3.5,3.7-7,5.6-10.5c0.5-1,0.1-1.4-0.8-1.4c-1.7-0.1-3.4-0.2-5.1-0.3c-3.3-0.1-6.7-0.2-10-0.2c-5.1,0.1-10.2,0.4-15.3,0.6
			c-0.6,0-1.1,0.1-1.8,0.2c0.1,0.9,0.1,1.6,0.3,2.3c0.6,1.6,1.5,3.2,2.1,4.9c0.6,1.6,1.6,3.3,1.6,5c0,2.6-0.1,5.2,0.3,7.8
			c0.2,1.4,0.7,2.5,1.7,3.4c1.9,1.7,3.2,3.8,3.7,6.2c0.5,2.4,1.2,4.8,2.5,6.9C69.2,154.7,70.4,156.3,71.7,158.1z M129.9,102.8
			c-0.1,0.1-0.2,0.1-0.4,0.2c0.1,0.7,0.4,1.3,0.4,2c0,0.6,0,1.3-0.1,1.9c-0.2,0.7-0.6,1.2-0.8,1.9c-0.4,1.5-1.5,2.3-2.4,1.6
			c-1.3-1-2.5-2.1-3.6-3.3c-1.6-1.9-3.1-3.9-4.7-5.8c-0.2-0.3-0.7-0.5-0.9-0.5c-0.2,0.1-0.5,0.5-0.5,0.9c-0.4,3.2-0.8,6.4-1.2,9.6
			c-0.1,1,0.2,1.6,1.3,1.8c1.6,0.4,3.3,0.8,4.9,1.3c2.6,0.8,5.1,1.6,7.7,2.5c2.6,0.9,5.3,1.7,7.9,2.8c4,1.7,7.8,3.7,11.8,5.2
			c4.4,1.6,3.6,2.2,5.8-2.2c2.2-4.3,4.4-8.7,6.8-12.9c2.7-4.7,5.7-9.3,8.6-13.9c0.2-0.3,0.1-1.2-0.1-1.3c-1.5-0.8-3.1-1.4-4.8-2.1
			c-2.4,3.5-4.7,7-7,10.5c-2.2,3.6-4.3,7.2-6.4,10.9c-0.5,0.9-1.2,1.3-2,0.8c-0.8-0.5-1.8-1-1.3-2.4c0.2-0.5,0.4-1.2,0.2-1.6
			c-1.5-3.3-2.8-6.7-5.6-9.2c-0.7-0.6-1.1-0.8-1.4,0.2c-0.4,1.5-0.9,3-1.2,4.5c-0.4,2.2-0.6,4.5-1.1,6.7c-0.2,0.8-0.9,1.6-1.7,1.9
			c-0.3,0.2-1.4-0.7-1.8-1.3c-0.6-1-1.2-2.1-1.4-3.3c-0.6-2.8-2.5-4.8-4.1-7C130.5,103.1,130.2,103,129.9,102.8z M124.6,236.6
			c-1.5,0.6-3,1.5-4.6,1.9c-2.7,0.7-4.2,3.2-3.2,5.8c1,2.5,1.9,4.9,4.8,6.3c2.9,1.3,5,4,8.5,4.4c1.3,0.1,2.6,0.2,3.9,0.5
			c2.8,0.7,5-0.3,6.8-2.4c1.1-1.3,2.3-2.5,3.5-3.7c0.7-0.7,1.6-1.2,2.5-2c-0.7-0.1-1.1-0.2-1.5-0.3c-3.4-0.5-6.8-0.8-10.1-1.4
			c-1.9-0.4-3.8-1.2-5.1-2.8C128.3,240.7,126.5,238.6,124.6,236.6z M150.7,238.2c0.2-0.1,0.4-0.2,0.5-0.3c-0.4-0.9-0.8-1.8-1-2.7
			c-0.1-0.5,0.3-1.1,0.4-1.7c0.5,0.2,1,0.3,1.5,0.6c0.3,0.2,0.5,0.7,0.8,1c0.6,0.8,1.2,0.9,1.9,0.2c1.3-1.1,2.7-2.2,4-3.4
			c0.6-0.6,0.7-1.2,0.1-1.9c-0.4-0.6-0.7-1.4-0.9-2.2c-0.1-0.3,0.1-0.8,0.4-0.9c0.3-0.1,0.8,0,1,0.1c0.5,0.4,1,0.9,1.4,1.5
			c0.5,0.7,1,0.6,1.6,0.3c1.4-0.8,1.5-1.5,0.4-3.7c0.7-0.6,1.4-0.5,2.2,0c0.9,0.6,1.7,0.6,2.4-0.4c0.2-0.3,0.5-0.5,0.8-0.7
			c1.3-0.7,1.9-1.6,1.6-3.2c-0.1-0.6,0.2-1.2,0.4-1.9c0.5,0.3,0.9,0.7,1.4,0.8c0.5,0.1,1.2,0.2,1.5,0c0.3-0.2,0.6-1,0.5-1.3
			c-0.5-1.1-1.2-2-1.9-3.3c-11,8.8-21.7,17.7-32.2,27.5c1.8,0.2,3.1,0.3,4.5,0.4c-0.2-2.4-0.2-2.3,2-1.8c0.7,0.2,1.7-0.2,2.3-0.7
			c0.3-0.2,0.1-1.2,0-1.8c-0.2-0.9-0.9-1.9,0.3-2.9C149.2,236.7,150,237.4,150.7,238.2z M189.9,200c-5.8,4.9-11.7,9.7-17.7,14.7
			c0.9,0.4,1.7,0.5,2.1,1c1,1.4,2,1.2,3,0.1c0.4-0.5,0.9-0.9,1.4-1.2c1.5-1.2,2.4-2.5,1.5-4.5c-0.2-0.4,0.3-1,0.4-1.5
			c0.4,0.2,0.8,0.4,1.1,0.8c1.1,1.1,1.6,1.2,2.6,0.1c0.3-0.4,0.2-1.1,0.2-1.7c0-0.8-0.1-1.5-0.1-2.3c0.7,0.2,1.3,0.5,2,0.7
			c0.2,0.1,0.3,0.3,0.4,0.4c0.4,0,1,0.2,1.3,0c1-0.7,1.9-1.5,2.7-2.4c0.3-0.4,0.4-1.1,0.2-1.6C190.8,201.5,190.3,200.8,189.9,200z"
			/>
		<path d="M179,45.8c1.6-5,6.7-6.5,10.4-6c1.7,0.2,3.5,0.5,5.2,0.9c2.3,0.7,3.8,2.3,4.9,4.4c0.7,1.3,1.3,2.5,2,3.9
			c0.3,0.7,0.7,1.5,0.8,2.2c0.3,1.6,1.1,2.6,2.4,3.7c1.8,1.4,3.3,3.2,4.6,5.1c3,4.2,2.2,8.7,0.3,13c-2.4,5.6-7.1,8.4-12.7,10.2
			c-1.7,0.5-3.5,1.1-5,2.1c-2.8,1.8-5.8,2.2-9,2.4c-0.8,0.1-1.6,0.4-2.3,0.2c-1.1-0.2-2.1-0.8-3.2-1.3c-2.6-1.2-2.9-4.3-2.5-6.8
			c0.6-3.1,2.6-5,5.4-6.3c0.3-0.1,0.6-0.2,0.8-0.4c0.6-0.6,1.5-1.1,1.6-1.8c0.1-0.5-0.9-1.1-1.5-1.7c-0.3-0.3-0.8-0.3-1-0.6
			c-1.2-1.4-2.2-1.1-3.4,0.1c-2.7,2.4-6.1,3.4-9.6,3.9c-1.1,0.1-2.1,0.3-3.2,0.3c-2.1-0.1-3.2-1.8-4.2-3.2c-0.8-1.2-1.7-1.2-2.7-0.6
			c-1.9,1.2-3.8,0.8-5.7,0.5c-1.2-0.2-2.4-0.2-3.5-0.3c-2.1-0.1-3.6-1.2-4.6-3c-1.1-2.1-2.3-4.4-1-6.7c1-1.9,0.7-3.1-0.8-4.2
			c-3.4-2.4-2.2-6-0.8-8.7c1.4-2.7,3.3-4.9,5.8-6.6c1.8-1.3,3.8-2.3,5.8-3.3c0.5-0.2,1.1-0.1,1.7-0.1c4,0,7.8,1,11,3.2
			c2.1,1.5,3.8,3.7,5.4,5.8c0.7,0.9,1.5,0.9,2.1,0.4c1.5-1.3,3.1-1.6,5-1C177.9,46,178.5,45.8,179,45.8z M179.7,83.1
			c2.3,1.2,4.3,1.2,6.3,0.4c2.2-0.9,4.5-1.8,6.5-3c3.3-2.1,6.8-3.7,9.1-7.2c2.2-3.3,2.8-6.7,1.9-10.4c-0.4-1.6-1.6-2.7-3.1-2.9
			c-1.6-0.2-3.3,0-4.5,1.4c-0.8,0.9-1.6,0.8-2.4-0.2c-1-1.3-0.5-2.5-0.1-3.9c0.3-1.2,0.8-2.5,0.5-3.6c-0.8-3.3-1.7-6.7-5.1-8.6
			c-2.5-1.5-6.3-1.3-6.8,2.6c-0.1,0.8,0.1,1.6,0.1,2.4c0,0.6-0.3,1.2-0.4,1.7c-0.8-0.2-1.5-0.3-2.2-0.7c-0.4-0.2-0.6-0.7-0.9-1.1
			c-1.3-1.8-2.6-2-4.5-0.8c-2.1,1.2-3,3.2-3.9,5.3c-0.5,1.2-1.3,1.7-2.5,0.9c-0.6-0.4-1-1.1-1.4-1.8c-0.7-1.2-1-2.7-1.9-3.8
			c-1.7-1.9-3.5-3.8-5.5-5.4c-1.9-1.5-3.9-3.1-6.6-2.4c-1.9,0.5-3.3,1.8-5.1,2.5c-3.1,1.3-4.1,4.4-4.6,7.5c-0.2,1.4,0.9,2.3,2.3,2.2
			c0.8,0,1.6,0.1,2.4,0.1c1.2,0,2,0.5,2.4,1.6c0.4,1.2-0.6,1.6-1.3,2.1c-2.1,1.8-3.6,3.8-2.9,6.7c0.2,0.8,0.9,1.8,1.5,2
			c4,1.3,7.9,1.2,11.4-1.4c0.9-0.7,1.7-0.9,2.7-0.2c0.9,0.6,0.9,1.5,0.9,2.3c0.2,1.9,1.8,3.3,3.6,2.8c1.4-0.3,2.8-0.8,4.2-1.1
			c2.9-0.7,5.2-2,6.5-4.9c0.3-0.6,1.2-1.3,1.7-1.3c0.7,0.1,1.4,0.8,2.1,1.3c0.3,0.3,0.3,0.8,0.6,1.1c1.9,2.1,4.1,3.8,7.2,3.8
			c1.1,0,2.3,0.4,2.5,1.5c0.1,0.9-0.2,2.1-0.9,2.7c-2.7,2.6-5.7,5-8.5,7.6C180.4,81.8,180.1,82.5,179.7,83.1z"/>
		<path d="M256.1,141.8c-0.4-0.3-1-0.5-1.2-0.9c-0.2-0.4-0.2-1.2,0.1-1.6c1.6-2.1,3.2-4.1,5-6c0.4-0.4,1.6-0.4,2.2-0.1
			c0.8,0.4,1.4,1.5,0.7,2.4c-1.7,2-3.6,3.9-5.4,5.8C257.1,141.5,256.6,141.6,256.1,141.8z"/>
		<path d="M266.1,154.3c-1.5-0.1-2.6,0-3.8-0.3c-0.6-0.1-1.2-0.6-1.6-1c-0.6-0.7-0.2-1.4,0.7-1.5c3.3-0.1,6.5-0.3,9.8-0.3
			c0.5,0,1.2,0.7,1.4,1.2c0.2,0.8-0.2,1.5-1.2,1.5C269.6,154,267.7,154.2,266.1,154.3z"/>
		<path d="M240.4,127.3c1.2-0.2,1.6,1,2,1.9c1,2.3,1,4.8,0.2,7.2c-0.1,0.4-0.7,0.9-1.1,0.9c-0.6,0-1.2-0.4-1.6-0.8
			c-0.3-0.3-0.3-0.9-0.3-1.4C239.8,132.5,240.1,130,240.4,127.3z"/>
		<path d="M265.3,172.9c-2.1-0.9-4.2-1.8-6.2-2.8c-0.4-0.2-0.5-1-0.7-1.6c0.6-0.1,1.2-0.5,1.7-0.4c2,0.6,3.9,1.3,5.8,2.2
			c0.4,0.2,0.7,0.9,0.7,1.4C266.5,172,265.9,172.3,265.3,172.9z"/>
		<path d="M225.8,130.4c0.5,0.6,0.8,1.1,1.1,1.6c0.8,1.5,1.7,3.1,2.3,4.7c0.2,0.6-0.1,1.3-0.2,2c-0.6-0.1-1.3-0.1-1.7-0.4
			C225.7,137,224.8,132.7,225.8,130.4z"/>
		<path d="M31.4,153.4c0.2-2.6,0.9-6.3,2.9-9.7c1.6-2.8,3.2-5.7,4.8-8.5c1.3-2.4,1.8-4.8,1.3-7.5c-0.4-1.9,1.2-4,3.2-4.3
			c0.1,0,0.3,0,0.4,0c2.5-0.4,2.7-0.3,3.8,1.9c1.4,2.7,3,5.2,3.9,8c1.8,5.2,3.4,10.5,3.6,16c0,0.1,0,0.3,0,0.4
			c1.4,3.1,0,5.8-1.2,8.5c-0.1,0.2-0.1,0.4-0.3,0.5c-2.4,1.7-3.8,4.7-6.9,5.7c-1.1,0.4-2.1,0.6-3.3,0.1c-1.1-0.5-2.4-0.4-3.7-0.5
			C34.9,163.6,31.1,160,31.4,153.4z M43.5,134.7c-2.3,4.2-4.3,7.9-6.4,11.6c-1.6,2.8-2.3,5.7-2.3,8.9c0,2.8,0.5,3.5,3.2,4.1
			c0.3,0.1,0.6,0.1,0.8,0.3c1.3,1.3,2.7,0.9,4,0.3c4.6-2.2,5.9-5.3,5.2-10c-0.4-3.3-1.8-6.5-2.7-9.7
			C44.7,138.5,44.2,136.8,43.5,134.7z"/>
		<path d="M95.7,186.8c0-3.3,2.9-7,5.6-7.1c2.6-0.1,6.3,3.7,6.5,6.3c0.2,2.5-3,5.8-5.7,5.8C98,191.7,95.6,190.4,95.7,186.8z"/>
		<path d="M132.8,181.2c-0.1-3.4,2.1-4.7,4.1-5.6c0.6-0.3,1.7-0.3,2.2,0c1.6,0.9,3.2,1.9,4.6,3.2c1.3,1.2,1,3.2-0.5,5
			c-1.3,1.5-3,2.4-4.9,2.8C135.2,187.1,132.6,185,132.8,181.2z"/>
		<path d="M235.2,157.9c-0.1-3.9,4-6.5,7.4-4.8c1,0.5,1.5,2.1,1.1,3.5c-0.5,2-3,4.1-5.2,4.3C236.4,161.2,235.2,160.1,235.2,157.9z"
			/>
	</g>
</g>
</svg>
