<?xml version="1.0" encoding="utf-8"?>
<!-- Generator: Adobe Illustrator 19.1.0, SVG Export Plug-In . SVG Version: 6.00 Build 0)  -->
<svg version="1.1" id="Calque_1" xmlns="http://www.w3.org/2000/svg" xmlns:xlink="http://www.w3.org/1999/xlink" x="0px" y="0px"
	 viewBox="0 0 209.1 267.4" style="enable-background:new 0 0 209.1 267.4;" xml:space="preserve">
<style type="text/css">
	.st0{fill:#72B52B;}
	.st1{fill:#71519B;}
	.st2{fill:#C0BFBF;}
	.st3{fill:#EDE5F2;}
	.st4{fill:none;stroke:#72B52B;stroke-width:4;stroke-linecap:round;stroke-miterlimit:10;}
	.st5{fill:none;stroke:#71519B;stroke-width:4;stroke-linecap:round;stroke-miterlimit:10;}
	.st6{fill:#6EA1C1;}
	.st7{fill:#BFBEBE;}
	.st8{fill:#55358A;}
	.st9{fill:#FFFFFF;}
	.st10{fill:#FFFFFF;stroke:#71519B;stroke-width:3;stroke-miterlimit:10;}
	.st11{fill:#FFFFFF;stroke:#72B52B;stroke-width:3;stroke-miterlimit:10;}
	.st12{fill:none;stroke:#FFFFFF;stroke-width:3;stroke-miterlimit:10;}
	.st13{fill:#F2BF00;}
</style>
<g>
	<path id="" class="st0" d="M198.1,144.9c-1.6-0.4-3.4-0.6-5-0.4c-2.5,0.3-5.1,0.7-7.5,1.6c-3,1.2-6.1,2.5-8.6,4.5
		c-3.2,2.5-5.5,5.9-6,10.1c-0.7,6.1,0.8,11.3,6.1,15c1.6,1.1,3,2.8,4,4.6c2.2,4,1.8,7.9-0.9,11.7c-1.9,2.7-2.8,5.9-2.7,9.9
		c7.1-2.9,13.8-5.7,20.4-8.4c1.4-0.6,2-1.5,2-3.1c0.1-6.2,0-12.5,0.7-18.6c0.9-7.7,0.5-15.3,0.5-23
		C201.1,146.6,200.1,145.3,198.1,144.9z M188.9,169c-2.5,0-3.5-1-3.6-3.5c0-3.1,1.6-4.9,4.5-5c1.8-0.1,3.7,1.8,3.8,3.7
		C193.7,167.1,191.9,169,188.9,169z"/>
	<path id="" class="st0" d="M200.4,117.4c-0.4-10.5-0.8-21-1.3-31.5c-0.2-5.5-0.6-10.9-0.7-16.4c0-2.2-1-3.1-2.9-3.4
		c-2.2-0.3-4.4-0.5-6.5-1c-5.6-1.3-11.3-2.8-15.4-7.1c-6.6-7.2-12.6-14.9-14.4-25c-0.3-1.4-0.7-2.9-1.2-4.2
		c-2.3-6.4-2.9-12.8-0.5-19.3c0.1-0.2-0.1-0.4-0.2-0.7c-23.7-1.8-47.5-2.2-71.6-1.6c-0.4,2.8-0.9,5.5-1,8.1
		c-0.3,6.2-0.3,12.4-0.7,18.6c-0.6,9.6,1.9,18.5,5.7,27.4c1.2-0.3,2.4-0.7,3.5-1c3.9-1.1,7.7-2.3,11.6-3.4c8.9-2.6,17.8-5,26.7-7.7
		c3.4-1,5.5,0.1,6.3,3.8c0.6,2.7,1,5.5,1.7,8.2c1.5,5.8,3.3,11.5,4.8,17.2c3.5,13.3,6.9,26.7,10.3,40c0.6,2.2,1.1,4.4,1.7,6.7
		c5.2-4.1,7.7-2.6,10.4,2.6c1.3-0.3,2.6-0.7,3.9-0.8c1.7-0.1,2.6-0.8,3.2-2.4c1.2-3.6,4.3-4.9,7.7-5.2c3.3-0.4,6.2,0.7,7.5,4.1
		c2.9-0.7,5.5-1.2,8.1-1.9C200.5,120.8,200.5,120.7,200.4,117.4z M151.9,67.5c1-4.5,3.7-7.6,5.7-11.7c2.3,2.9,4.3,5.5,6.9,8.8
		C159.7,64.9,156.5,68.1,151.9,67.5z"/>
	<path d="M1.3,4.9c3.1-3.1,9.1-1.9,14-1.8c11.2,0.1,22.4-1.1,33.6-1C59.5,2.2,70,0.4,80.6,0c1.6-0.1,3.2,0.1,4.7,0.1
		c6.6,0.1,13.1,0,19.7,0.3c10.6,0.3,21.2,0.8,31.8,1.2c1.6,0.1,3.2,0.2,4.8,0.1c11.7-0.5,23.4,0.4,35.1,1.4
		c6.8,0.6,13.6,0.9,20.4,1.3c1.8,0.1,3.3,0.3,4.5,1.8c0.6,0.7,1.4,1.4,2.3,1.8c3.1,1.5,3.7,4.3,3.7,7.3c0,7.8,0,15.6-0.1,23.4
		c0,7.8,1.1,15.5,0.3,23.4c-0.5,5.1,0.1,10.2,0.1,15.3c0,11.1-0.1,22.2-0.1,33.3c0,7.1,0.4,14.1,0.5,21.2c0.1,4.3-0.1,8.5-0.1,12.8
		c0,3.2,0,6.3-0.1,9.5c-0.2,8-0.7,16.1-0.8,24.1c0,4.2,0.5,8.5,0.7,12.7c0,0.5,0.1,1,0.1,1.4c-0.3,5.6-0.9,11.2-0.7,16.8
		c0.3,11.7,1,23.4,1.4,35.1c0.2,3.9,0.3,7.8,0.2,11.7c0,1.4-0.5,3.2-1.5,3.9c-1.3,1-9.3,1.8-12.9,2.8c-9.7,2.7-19.7,3.4-29.7,3.6
		c-7.2,0.2-14.4,0.3-21.5,0.5c-10.2,0.2-20.4,0.5-30.6,0.5c-7.3,0-14.6-0.6-21.9-0.8c-4.5-0.1-9,0.3-13.4,0
		c-6.2-0.3-12.3,0.7-18.5-0.3c-4.5-0.7-9.2-0.1-13.9-0.2c-8.4-0.1-16.8-0.2-25.2-0.4c-1,0-2-0.2-2.9-0.1c-4.9,0.5-13.8,0.5-13.9-3.3
		s-0.3-7.8-0.3-11.8c0-8.1,0.1-16.1,0.1-24.2c0-8.3-0.1-16.5-0.2-24.8c0-2.4-0.5-4.9-0.5-7.3c0.1-9.3,0.4-18.5,0.6-27.8
		c0.2-8.7,0.8-17.3,0.6-26C3,128,2.2,115.4,1.7,102.9c-0.2-5.2-0.3-10.5-0.5-15.7c-0.3-6.5-0.9-13-1-19.5c0-7.3,0.4-14.6,0.7-21.9
		c0.2-6.5,0.5-12.9,0.8-19.4C1.8,22.2-1.9,8,1.3,4.9z M156.4,125.2c5.2-4.1,7.7-2.6,10.4,2.6c1.3-0.3,2.6-0.7,3.9-0.8
		c1.7-0.1,2.6-0.8,3.2-2.4c1.2-3.6,4.3-4.9,7.7-5.2c3.3-0.4,6.2,0.7,7.5,4.1c2.9-0.7,5.5-1.2,8.1-1.9c3.2-0.8,3.2-1,3.1-4.3
		c-0.4-10.5-0.8-21-1.3-31.5c-0.2-5.5-0.6-10.9-0.7-16.4c0-2.2-1-3.1-2.9-3.4c-2.2-0.3-4.4-0.5-6.5-1c-5.6-1.3-11.3-2.8-15.4-7.1
		c-6.6-7.2-12.6-14.9-14.4-25c-0.3-1.4-0.7-2.9-1.2-4.2c-2.3-6.4-2.9-12.8-0.5-19.3c0.1-0.2-0.1-0.4-0.2-0.7
		c-23.7-1.8-47.5-2.2-71.6-1.6c-0.4,2.8-0.9,5.5-1,8.1c-0.3,6.2-0.3,12.4-0.7,18.6c-0.6,9.6,1.9,18.5,5.7,27.4
		c1.2-0.3,2.4-0.7,3.5-1c3.9-1.1,7.7-2.3,11.6-3.4c8.9-2.6,17.8-5,26.7-7.7c3.4-1,5.5,0.1,6.3,3.8c0.6,2.7,1,5.5,1.7,8.2
		c1.5,5.8,3.3,11.5,4.8,17.2c3.5,13.3,6.9,26.7,10.3,40C155.2,120.7,155.8,122.8,156.4,125.2z M155,237.4c-3.3,0.8-6.4,1.6-9.6,2.3
		c-4,0.9-8.1,1.6-12.2,2.5c-4.5,1-8.6-2.5-9.9-6.3c-2.1-6.1-3.9-12.3-4.5-18.8c-0.4-4.4,1.3-7.3,4.8-9.4c3.5-2.1,7-3.9,10.4-6.1
		c6.8-4.3,10.4-10.5,10.1-18.7c-0.1-3.5-2.5-6.3-5.9-6.9c-1.4-0.2-2.6,0-3.7,1c-2.9,2.7-5.5,5.5-6,9.7c-0.1,1.1-0.5,2.2-0.8,3.2
		c-0.2,0.5-0.7,1.2-1.1,1.3c-4.8,1-9.3,3.2-14.3,2.7c-0.8-0.1-1.9-0.4-2.2-1c-1-2-3.6-3.4-2.5-6.3c0.3-0.7,0-1.7-0.2-2.5
		c-1-7.9,1.1-15,5.8-21.3c5.6-7.5,13.5-10.6,22.7-10.5c9,0.1,16.3,4.2,22.4,10.3c5.8,5.8,8.9,13.1,9.4,21.3
		c0.4,6.5-1.5,12.5-4.8,18.1c-1.1,1.9-2.2,3.7-3.6,6.1c5.3-0.8,9.4-3.3,14-4.8c-0.6-5.9,0.8-10.9,3.7-15.6c2.2-3.6,1.3-6.9-2.4-9.4
		c-4.6-3.2-7.2-7.6-8-13c-1.7-12.2,8-23.4,20.4-24.1c1-0.1,2-0.1,2.9-0.4c3-1.1,5.9-0.7,8.8,0.4c0.7,0.3,1.5,0.5,2.3,0.8
		c-0.1-5.6-0.3-10.9-0.4-16.4c-7.4,1.6-14.6,3.1-21.9,4.7c1.5,2.2,1.8,2.3,3.8,2.1c0.8-0.1,1.8-0.3,2.5,0c0.8,0.3,2,1.2,2,1.6
		c-0.1,0.9-0.9,2-1.7,2.4c-2.7,1.3-6.5,0.4-8.7-1.9c-1-1-1.9-2.2-3-3.4c-4.8,1.1-9.5,2.2-14.2,3.2c1.1,4.3,2.1,5,5.9,4.5
		c0.4,0,0.8-0.4,1-0.2c0.7,0.4,1.6,0.9,1.7,1.6c0.1,0.5-0.7,1.7-1.2,1.8c-1.9,0.2-3.9,0.5-5.8,0.1c-3.5-0.7-6.2-2.7-7-6.6
		c-5,1.1-9.7,2.1-15.4,3.3c1.7,1.4,2.6,2.3,3.6,2.9c0.8,0.5,1.8,0.6,2.7,0.9c1.4,0.5,2.5,1.1,1.9,3.2c-5.8,1.1-9.4-2.5-13.2-6.4
		c-4.1,1-8.3,2-12.8,3.1c0.4,1,0.5,1.8,0.9,2.3c1.3,1.3,2.7,2.4,4,3.7c0.5,0.5,0.6,1.2,0.9,1.9c-0.7,0.3-1.6,1.1-2.1,0.9
		c-1.7-0.6-3.5-1.3-4.8-2.5c-1.6-1.4-2.7-3.4-4.1-5.1c-2.6,0.6-5.2,0.9-7.7,1.8c-2.4,0.8-5.4,0.4-7.9,3.2c1.8,0.3,2.9,0.5,4.1,0.7
		c2,0.2,2.8,1.2,2.2,3.2c-4.7,1.6-8.5,0.3-11.5-4.1c-2.2,0.7-4.5,1.5-7.1,2.4c3.3,18.1,6.5,35.9,9.7,53.7
		c3.3,17.8,5.2,35.8,8.7,53.2c15.7-0.2,30.9-0.3,46.2-0.5C154,250.6,155.7,244.1,155,237.4z M8.6,80.7C20.9,77.6,33,74.6,45,71.6
		c12.2-3,24.4-5.8,36.5-8.7c-3-9.2-4.9-18.4-4.8-28.1c0.1-9.5-0.2-19,2.9-28.6c-3.2,0.1-6,0.1-8.7,0.2c-7.2,0.3-14.4,1.1-21.6,1
		c-5.5-0.1-11,0-16.4,1c-7,1.2-14,2.2-21.1,1.2c-1.5-0.2-3.1-0.1-5-0.2C7.4,33.1,8,56.5,8.6,80.7z M11.9,257.8
		c8.9,0,17.6,0.2,26.2,0.1c7.6-0.1,15.1-0.5,22.7,0.4c3.1,0.4,6.3,0.4,9.5,0.5c5.4,0.2,10.7,0.4,16.1,0.7c4,0.2,7.9-0.1,12-1
		c-2.8-16.7-5.5-33.2-8.2-49.4c-26.2,6.8-52.5,13.5-79,20.4C11.4,238.9,11.7,248.2,11.9,257.8z M32.6,111.2c0.7,3.3,1.2,6.3,1.9,9.3
		c2.2,8.5,4.6,16.9,6.7,25.4c1.8,7.2,3.3,14.4,5,21.7c0.6,2.4,1.3,4.7,1.8,7.1c2.3,10.2,4.5,20.4,6.8,30.7c0.3,1.5,0.9,2.9,1.4,4.7
		c10-3.1,20-4.3,29.6-7.4c-6.2-33.3-13.3-65.8-22.3-98.3C53.4,106.6,43.3,108.8,32.6,111.2z M9.6,118.8c0.8,34.3-0.6,68.4,1.3,102.7
		c13.8-3.7,27.2-7.2,41-10.9c-8.1-32.9-14.4-65.8-23.9-98.2C21.9,114.6,16,116.6,9.6,118.8z M130.7,55.9c-9,0.6-17.3,3.5-25.7,5.9
		c-6.9,2-13.7,4.3-20.7,6.2c-7.2,2-14.4,3.6-21.6,5.4c-3.2,0.8-6.3,1.7-9.6,2.3c-7.2,1.4-14.4,2.4-21.5,4.1
		c-7.7,1.8-15.3,4.1-23.1,6.2c-0.2,1.1-0.5,2.1-0.5,3.2c0.2,3.2,0.5,6.3,0.9,9.5c0.1,0.8,0.4,1.5,0.5,2c9.1-2.5,17.9-5,26.7-7.4
		c3.5-1,7.1-1.6,10.7-2.5c6.9-1.7,13.7-3.7,20.6-5.1c12.5-2.6,25.2-4.7,37.7-7.2c6.3-1.2,12.6-2.7,18.9-4c4-0.8,8.1-1.7,12.2-2.5
		C134.3,66.6,132.5,61.3,130.7,55.9z M67.9,103.1c8.1,29.3,14.4,58.7,20.2,86.3c-0.3-2.2-0.8-6.4-1.3-10.6
		c-1.2-9.4-2.4-18.8-3.6-28.2c-0.2-2,1.8-4.4,3.8-4.9c2.7-0.6,5.3-1.3,7.8-2c1.6-6.2,3.1-8.2,6.2-8.6c3.8-0.5,5.7,0.6,8.3,5.3
		c2.4-0.7,4.8-1.3,7.6-2.1c-4.5-14.6-4.6-29.8-9.9-44.2C94.1,97,81.3,100,67.9,103.1z M154.9,218.3c-1.6,0.6-2.8,1.2-4,1.4
		c-1.6,0.3-3.4,0.5-5,0.2c-2.1-0.4-2.7-2.7-1.3-4.3c0.7-0.8,1.5-1.6,2.4-2.2c5.4-3.8,9.3-8.8,12.5-14.6c3.2-5.9,5.1-12.2,3.5-18.7
		c-1.9-8-5.7-15-13.2-19.4c-7.3-4.4-15-5.1-22.8-2.4c-10.8,3.7-17.8,18.6-14.4,28.5c3.8-0.9,7.7-1.9,11.4-2.8
		c0.2-0.3,0.3-0.4,0.3-0.5c0.3-7.2,5-10.7,11-13c0.7-0.3,1.7-0.3,2.4-0.1c7.5,2.3,13,9.2,11,18.4c-1.7,7.6-5.8,13.3-12.7,17.1
		c-3.4,1.9-6.7,3.9-10,6c-0.9,0.6-2,1.8-2,2.7c0.2,4.1,0.5,8.3,1.4,12.3c0.9,3.9,3.1,5.6,6,5.2c5.9-0.8,11.8-1.6,17.4-4
		c1.9-0.8,4-1.3,6.4-2C155,223.9,154.9,221.3,154.9,218.3z M164,8.6c-0.4,2.6-1,5.1-1.2,7.6c-0.7,8.3,0.4,16.4,4,23.8
		c4.5,9.3,12.2,15.4,21.5,19.4c3,1.3,6.5,1.5,10.1,1c0.3-16.6,0.7-33,1-49.6c-0.8-0.5-1.6-1.3-2.4-1.4C186.1,8.4,175.3,8.3,164,8.6z
		 M111.8,93.2c2.7,13.3,5.4,26.3,8.1,39.4c3.9-1.1,7.1-1.2,8.8,3.1c1.7-0.4,3.2-0.8,4.7-1.2c0.8-4.1,2.8-7.1,7.1-7.5
		c3.7-0.3,6.2,1.5,7.3,5.1c1.5-0.4,2.8-0.7,4-1c-4-14.8-7.9-29.4-11.8-43.8C130.4,89.3,121,91.3,111.8,93.2z M177.5,201.9
		c7.1-2.9,13.8-5.7,20.4-8.4c1.4-0.6,2-1.5,2-3.1c0.1-6.2,0-12.5,0.7-18.6c0.9-7.7,0.5-15.3,0.5-23c0-2.2-1-3.5-3-3.9
		c-1.6-0.4-3.4-0.6-5-0.4c-2.5,0.3-5.1,0.7-7.5,1.6c-3,1.2-6.1,2.5-8.6,4.5c-3.2,2.5-5.5,5.9-6,10.1c-0.7,6.1,0.8,11.3,6.1,15
		c1.6,1.1,3,2.8,4,4.6c2.2,4,1.8,7.9-0.9,11.7C178.3,194.7,177.4,197.8,177.5,201.9z M9.6,113.7c1.8-0.5,3.2-0.9,4.6-1.3
		c6.9-2.1,13.7-4.5,20.6-6.3c10.3-2.6,20.6-4.9,30.9-7.2c6.6-1.5,13.3-2.9,19.9-4.5c7.5-1.8,14.9-3.8,22.4-5.4
		c9-2,18.1-3.8,27.2-5.7c1.3-0.3,2.5-0.7,3.9-1.2c-0.5-1.9-1-3.5-1.5-5.3c-4.1,0.7-7.9,1.3-11.8,2.1c-12.1,2.4-24.1,5-36.2,7.4
		c-8.1,1.6-16.2,2.9-24.3,4.7c-8.2,1.8-16.3,3.9-24.5,6c-8.7,2.2-17.4,4.6-26.1,6.9c-1.7,0.5-3.4,1.2-5.1,1.9
		c-0.1,0.9-0.2,1.6-0.2,2.3C9.5,109.8,9.6,111.5,9.6,113.7z M193.6,203c-17.3,8.5-20.3,9.6-34.2,12.4c2.6,13.1,2.9,26.2,0.2,39.4
		C164.4,250.2,190.4,210.9,193.6,203z M101.5,142.1c1.5-0.3,2.4-0.5,3.4-0.8c-0.4-0.8-0.8-1.3-1.2-2.2
		C103,140.1,102.4,140.8,101.5,142.1z M139.5,133.6c1.2-0.3,2.1-0.5,3.2-0.8C141.2,131.5,140.2,131.4,139.5,133.6z"/>
	<path d="M173.6,66c-1.8,0.6-3.2,1-4.7,1.5c0,1.5-0.9,2.3-2.5,2.8c-4.4,1.3-8.8,2.7-13.2,4.2c-2.4,0.8-4.4-0.1-6.1-1.5
		c-1.7-1.5-1.3-3.6-0.3-5.4c2.5-5,5-10,7.6-15c2.4-4.8,6.4-3.9,9.3-0.6c1.8,2.1,3.3,4.6,5,6.8c1.1,1.4,2.4,2.7,3.4,4.2
		C172.7,63.8,173,64.8,173.6,66z M164.6,64.7c-2.6-3.4-4.7-6-6.9-8.8c-2,4.1-4.7,7.2-5.7,11.7C156.5,68.1,159.7,64.9,164.6,64.7z"/>
	<path d="M197.7,164.6c0.3,3.4-0.3,6.4-3.8,8c-3.1,1.5-7.2,1-9.9-1.4c-3-2.7-3.4-6.1-2.5-9.7c1.1-3.9,4.2-6,7.7-7.1
		c1.3-0.4,3.4,0.5,4.6,1.4C196.7,157.9,198.1,161,197.7,164.6z M188.9,169c3,0,4.8-1.9,4.7-4.9c-0.1-1.9-2-3.7-3.8-3.7
		c-2.8,0.1-4.5,2-4.5,5C185.3,168,186.4,169.1,188.9,169z"/>
	<path id="" class="st0" d="M9.6,113.7c1.8-0.5,3.2-0.9,4.6-1.3c6.9-2.1,13.7-4.5,20.6-6.3c10.3-2.6,20.6-4.9,30.9-7.2
		c6.6-1.5,13.3-2.9,19.9-4.5c7.5-1.8,14.9-3.8,22.4-5.4c9-2,18.1-3.8,27.2-5.7c1.3-0.3,2.5-0.7,3.9-1.2c-0.5-1.9-1-3.5-1.5-5.3
		c-4.1,0.7-7.9,1.3-11.8,2.1c-12.1,2.4-24.1,5-36.2,7.4c-8.1,1.6-16.2,2.9-24.3,4.7c-8.2,1.8-16.3,3.9-24.5,6
		c-8.7,2.2-17.4,4.6-26.1,6.9c-1.7,0.5-3.4,1.2-5.1,1.9c-0.1,0.9-0.2,1.6-0.2,2.3C9.5,109.8,9.6,111.5,9.6,113.7z"/>
	<path id="" class="st0" d="M154.9,218.3c-1.6,0.6-2.8,1.2-4,1.4c-1.6,0.3-3.4,0.5-5,0.2c-2.1-0.4-2.7-2.7-1.3-4.3
		c0.7-0.8,1.5-1.6,2.4-2.2c5.4-3.8,9.3-8.8,12.5-14.6c3.2-5.9,5.1-12.2,3.5-18.7c-1.9-8-5.7-15-13.2-19.4c-7.3-4.4-15-5.1-22.8-2.4
		c-10.8,3.7-17.8,18.6-14.4,28.5c3.8-0.9,7.7-1.9,11.4-2.8c0.2-0.3,0.3-0.4,0.3-0.5c0.3-7.2,5-10.7,11-13c0.7-0.3,1.7-0.3,2.4-0.1
		c7.5,2.3,13,9.2,11,18.4c-1.7,7.6-5.8,13.3-12.7,17.1c-3.4,1.9-6.7,3.9-10,6c-0.9,0.6-2,1.8-2,2.7c0.2,4.1,0.5,8.3,1.4,12.3
		c0.9,3.9,3.1,5.6,6,5.2c5.9-0.8,11.8-1.6,17.4-4c1.9-0.8,4-1.3,6.4-2C155,223.9,154.9,221.3,154.9,218.3z"/>
</g>
</svg>
