<?xml version="1.0" encoding="utf-8"?>
<!-- Generator: Adobe Illustrator 19.1.0, SVG Export Plug-In . SVG Version: 6.00 Build 0)  -->
<svg version="1.1" id="Calque_1" xmlns="http://www.w3.org/2000/svg" xmlns:xlink="http://www.w3.org/1999/xlink" x="0px" y="0px"
	 viewBox="0 0 292.9 290" style="enable-background:new 0 0 292.9 290;" xml:space="preserve">
<style type="text/css">
	.st0{fill:#EC6C65;}
</style>
<g>
	<polygon id="" class="st0" points="3.6,146.9 21.5,145.2 43.6,132 50.2,129.7 54,165.2 54,174.5 41.2,179.8 24.4,187.5 12.2,195.7
		5.7,179.8 	"/>
	<path id="" class="st0" d="M274.8,136.1l-30.7-6.3l-18.3,40.5l-2.4,15L182.6,171l-2.9-5.8l-3-23.2l-6.3-31.7l-13.3,2.4l-17.5,3.9l-25.6-4
		l-7.2,23.5l-7,29.1l6.7-0.9l18.7,0.9l19.9,1.7l1.2,8l-4.4,6l-16.5,8.4l-9.5,6.4l-6.8-0.9l-4.2-3.5l-4.1,2l-6.8,3.9l-9.8-2.4
		l-0.4-5.6l2.6-1.8l6.1-8.2l10-8.3l4.4-4.1L96.1,167l-15.2,3.6l-13.7,18.7l-7.8,11.5l-8.9,2.2l-6.8,3.7l-4.6-0.8l-5.4-5.1l-2.2,2.2
		l-10.4,3.7l-4.4,3.6l13.7,21.1L61,264.7l25.9,14.2l31.1,10.1h23.7l13-18.2l6.1-2.6l10.3-2.6v-9.6l2.7-2.8l5.7,6.7l11.7,4.8l5.9-2.1
		l0.2-4.8l3.1-1.5l0.2-3.9l3-2.9l7.7-4.9l2.4-3.2l-3-2.7l-3.9,3.2H201l-1.1-5.3l3.6-4.7l1.1-3.9l-5.9-4.4l-6.1,0l-1.3,6.4l-3,11.1
		l-6.9,3.3l-4.1-4.1l-3-7.1l-7.8,2.1l-3.4-2v-4.8l7.3-7.9l7.6-5.9l4.8-6.7l6.5-3.5l4.8,2.2l9.4,9.3h3.2l2.7-3.6l5.8-6.4l9.5-12.3
		l5-4.9l39.1,22.6l9.6-5.5l14.8-63.9L274.8,136.1z M117.8,265h-4.3l-2.5-5v-5.5l4.1-2l2.9,1l2.2,4.4L117.8,265z M115.9,213.8
		l-3.5-3.5l-1.6-4.3h6l6-1.1l2.9,3.2l-1.4,4.2L115.9,213.8z M143,268.8l-6.4,2.2l-8.9,2.1l-2.1-6.4l1-7.1l3.3-4.8l-0.8-6.5l2.3-4.7
		l5.2-1.1l2.2,4.6l4.1,16.3V268.8z"/>
	<g>
		<path d="M292.2,147.1c-0.7,7.5-1.3,14.9-2.3,22.2c-0.7,5.4-2,10.8-3.3,16.2c-1.2,5.2-2.7,10.4-4.9,15.4c-2.5,6-5.6,11.6-8.8,17.2
			c-1.5,2.6-3.4,5.1-5.1,7.6c-6.2,9.2-13.5,17.3-21.8,24.6c-3.8,3.3-7.6,6.7-11.6,9.9c-2.2,1.8-4.6,3.3-7,4.9
			c-9.6,6.3-19.9,11.2-30.6,15.1c-3.5,1.3-6.8,2.9-10.3,4.1c-4.2,1.6-8.4,3.3-13,3.6c-3.1,0.2-6.3,0.9-9.4,1.4
			c-7.7,1.3-15.4,0.7-23.1,0.4c-8.2-0.3-16.5-0.6-24.6-2.2c-7.9-1.5-15.8-2.5-23.5-4.8c-4.8-1.5-9.7-2.8-14.4-4.9
			c-9-4-16.9-9.6-24-16.3c-6.1-5.8-11.7-12.2-17.8-18c-6.1-5.8-10.6-12.9-15.5-19.6c-3-4.1-5.5-8.5-7.6-13.1
			c-2.2-4.9-3.6-10.1-5.4-15.2c-4.8-13.6-7-27.6-8.2-41.9c-0.6-7.1,0.5-14.2,2-21.1c2.4-11.1,5.3-22,8.2-33c0.5-2.1,1.6-4.1,2.5-6.2
			c2.9-6.2,5.6-12.5,8.8-18.6c7.5-14.3,17.6-26.5,29.7-37.2c5.2-4.6,10.8-8.4,16.4-12.4c4.3-3,8.5-5.9,13.2-8
			c4.2-1.9,8.4-3.9,12.7-5.6c5.2-2.1,10.4-4.2,15.6-6.1c2-0.7,4.1-1.1,6.1-1.5c13.5-2.7,27.1-4.8,40.8-3.7c12.8,1,25.3,3.3,37.5,7.5
			c4.1,1.4,8.3,2.5,12.3,4.3c5.1,2.2,10,5.1,15,7.4c9.8,4.6,17.6,12,25.4,19.2c3.9,3.5,6.9,8,10.4,12c3.9,4.5,7.4,9.2,10.1,14.5
			c2.1,4.1,4.3,8.2,6.6,12.3c4.9,8.7,8,18.1,11.6,27.4c2.4,6.3,4.2,12.9,5.3,19.5C291.6,131.9,291.7,139.5,292.2,147.1z M268.6,81
			c-0.1-0.8-0.1-1.1-0.2-1.4c-3.7-7.4-7.7-14.6-13.6-20.6c-3.6-3.7-7-7.6-10.5-11.3c-1.5-1.6-3.4-3-4.8-4.7
			c-5.2-6.1-12-10.3-18.5-14.9c-6.3-4.4-13.5-7.4-20.8-10c-9.8-3.5-19.4-7.6-29.6-9.9C159.8,5.7,149.1,4,138,5
			c-9.5,0.8-18.7,2.6-27.8,5.3c-4.1,1.2-8,3.2-12,4.6c-9.7,3.4-18.9,7.6-27.3,13.6c-6.3,4.5-12.4,9.2-18.5,14
			c-7,5.5-13,11.9-17.6,19.6c-3.7,6.2-7.1,12.5-10.7,18.8c-1,1.7-1.8,3.5-2.7,5.3c3-0.7,5.4-1.9,8-2.9c7.7-3.1,15.6-4.6,23.9-2.4
			c7,1.8,11.9,6,13.8,13c1.6,5.8,1.4,11.5-1.7,16.8c-0.6,1-1.1,2.1-1.6,3.1c-2,4-4.9,7.3-8.6,9.8c-1.1,0.7-2,1.5-3,2.3
			c5,11.7,4.4,24.1,5.3,36.3c1.1-0.1,2-0.2,2.8-0.3c3.6-0.5,4.9,0.5,5.6,4c0.2,1.1,0.5,2.2,0.8,3.4c4.8-0.9,9.1-1.7,13.7-2.6
			c0.1-1.1,0.2-2,0.3-3c0.3-3.4,0.5-3.6,3.7-4.1c3.8-0.6,7.6-1.3,11.5-1.8c1.9-0.2,2.8-1.1,3.3-2.9c1-4.3,2.1-8.6,3.2-12.8
			c2.6-10.1,5.3-20.1,8-30.2c0.2-0.7,0.2-1.4,0.4-2.2c-0.9-0.4-1.7-0.8-2.5-1.1c-10.1-4.4-15.1-13.4-13-24.2
			c1.7-8.7,7-14.7,15.1-17.8c10.8-4.1,22-4.5,33.3-3.3c3.5,0.4,7.1,0.6,10.6,0.7c7.8,0.2,14.9,1.8,20.8,7.7
			c4.2,4.2,7.5,8.6,9.2,14.1c1.9,6,1.8,12.6-4.4,17.1c-2.2,1.6-4.3,3.2-6.4,4.8c0.2,0.7,0.2,1.3,0.5,1.9c2.3,5.5,3.3,11.3,3.9,17.2
			c1.1,9.9,2,19.9,3,29.8c0.2,2.4,0.4,2.7,2.7,3.3c0.6,0.1,1.3,0.1,1.9,0.3c2.5,0.7,5.3,0.8,7.6,2.6c0,2.7,0,5.3,0,8.1
			c6.3,1.9,12.3,3.6,18.5,5.5c0.4-1.9,0.8-3.5,1.2-5c1-3.6,1.9-4.2,5.6-3.2c1.6,0.5,3.2,1.1,4.9,1.7c6.4-14.8,12.8-29.4,19-43.6
			c-2.8-2.6-5.5-4.7-7.6-7.2c-4.2-4.9-5.8-11-6.5-17.2c-0.4-4,0.6-7.8,2.7-11.4c3.2-5.6,8.2-8.6,13.8-11.1c3.5-1.6,7.2-2.1,11-1.6
			c3.8,0.5,7.7,0.9,11.2,2.8C267.1,80.7,267.7,80.7,268.6,81z M204.4,212.9c4-1.5,6.9-3.9,9.9-8.3c1.7-2.5,3.4-5,5.1-7.4
			c1.7-2.3,3.4-4.5,5.2-6.8c-12.5-8-65.5-21.4-74.4-20.1c0.1,1.1,0.4,2.3,0.3,3.4c-0.1,1.5,0,3.2-0.8,4.3c-2.1,3.3-4.8,6-8.5,7.6
			c-2.5,1-5,1.9-7.5,3c-3.7,1.7-7.3,3.6-10.9,5.5c-1.9,1-3.7,2.3-5.6,3.2c-4,2-8.3,0.9-11.1-2.5c-0.1-0.1-0.4-0.1-0.8-0.2
			c-1.5,2.6-3.6,4.8-6.9,5c-1.5,0.1-3-0.3-4.4-0.1c-3.2,0.3-5.9-0.9-8.5-2.4c-4.3-2.5-4.9-8-1.2-11.3c0.6-0.6,1.4-1.1,1.9-1.7
			c2.5-3.7,5.7-6.5,9.3-9.1c2.3-1.6,4.2-3.6,6.3-5.5c-0.1-0.2-0.2-0.5-0.4-0.7c-3.5,0.4-7,0.9-10.5,1.2c-2.3,0.2-4.2,1-5.8,2.5
			c-2.3,2.3-4.9,4.6-6.6,7.4c-3.6,5.6-6.7,11.5-10,17.2c-2.5,4.5-6.5,6.8-11.5,7.2c-2.5,0.2-4.3,1-6,3c-3.1,3.6-9.1,4.1-12.4-0.1
			c-0.9-1.1-2-2.1-3.6-3.7c-0.3,4-2.9,5.1-5.3,6c-1.4,0.5-2.9,0.5-4.4,0.7c-1.2,0.2-2.4,0.4-4,0.7c1.4,2.4,2.5,4.4,3.7,6.2
			c1.8,2.9,3.6,5.8,5.7,8.5c2,2.6,4.5,4.9,6.5,7.6c5.8,7.6,12,14.9,18.7,21.7c1.7,1.8,3.6,3.5,5.6,4.9c10.1,6.9,20.8,12.6,32.5,16.1
			c8.5,2.6,17.3,4,26,6.1c5.9,1.4,11.8,2.2,17.9,1.6c1.2-0.1,2.8-0.3,3.5-1.1c3.6-3.8,7.1-7.7,10.3-11.8c1.3-1.7,2.6-3.1,4.7-3.5
			c1.7-0.3,3.4-0.9,5.1-0.9c3.1,0,5.8-1.2,8.5-2.2c-0.4-2.8-0.9-5.5-1-8.1c-0.1-4.9,4.1-7.4,8.3-5c2.8,1.6,5.3,3.6,7,6.5
			c2.7,4.5,4.3,5,9.3,3.8c2-0.5,2.3-0.7,1.9-2.9c-0.3-1.6,0.4-2.5,1.5-3.3c0.6-0.4,1.3-0.7,2.1-1.2c-0.6-4.2,2-6.4,5.5-7.9
			c1.7-0.7,3.3-1.6,4.8-2.6c0.9-0.5,1.6-1.2,2.6-1.9c-2-1.1-3.3,0.1-4.6,0.6c-2.8,1.2-6.1,0.7-7.8-1.1c-1.4-1.6-1.6-4.7-0.2-7.3
			c0.3-0.7,0.8-1.2,1.3-1.8c0.5-0.6,1-1.1,1.4-1.7c1.2-1.7,1.1-2.7-0.7-3.7c-1.5-0.8-3.1-1.3-4.5-1.9c-2,1.8-2.5,3.8-2.7,6
			c-0.3,2.6-0.6,5.1-1,7.7c-0.3,2.3-1.3,4.6-3.5,5.5c-2.5,1.1-5.3,1.5-8,2c-0.6,0.1-1.5-0.7-2.2-1.2c-2.6-1.9-4.4-4.4-4.6-8
			c-3.2,1.8-6,0.7-8.8,0.2c-2.5-0.4-3.8-2-4.4-4.2c-0.8-3.2-0.4-6.3,2-8.7c2.8-2.7,5.8-5.1,8.6-7.8c2.6-2.4,5.5-4.7,7.4-7.5
			c1.8-2.7,4.3-4,7-5.3c1.8-0.8,3.4-1,5.2,0.1C196.2,206.5,200.8,208.9,204.4,212.9z M265.2,212.8c-2.1-3.7-26.5-17.2-36.5-20.5
			c-1.4,1.1-3.1,2.1-4.3,3.6c-2.2,2.8-4.2,5.7-6,8.7c-2.4,3.8-5.2,7.4-8.6,10.3c-2.5,2.1-5,1.9-7.3-0.5c-0.7-0.8-1.5-1.6-2.4-2.2
			c-2.6-1.8-5.3-3.7-8.1-5.2c-1-0.6-2.6-0.7-3.7-0.3c-1.7,0.7-3.6,1.8-4.6,3.2c-2.8,3.9-6.4,6.9-10,10c-2.5,2.1-4.9,4.5-7.2,6.9
			c-1.7,1.8-2.5,4-1.2,6.8c1.1-0.3,2.3-0.5,3.3-0.9c0.9-0.4,1.6-1.1,2.5-1.5c2.9-1.4,5-0.6,6.1,2.5c0.5,1.4,0.7,2.9,0.9,4.4
			c0.2,1.7,0.5,3.3,2.3,3.9c1.9,0.7,3.3-0.4,4.6-1.7c1.2-1.3,2-2.8,1.9-4.6c0-1-0.1-1.9-0.1-2.9c-0.2-4,1.1-7.6,3.2-10.9
			c0.4-0.6,1.4-1.3,2-1.2c4.5,0.7,8.9,1.8,12.3,5.1c2.5,2.4,2.5,5.8,0.2,8c-0.8,0.7-1.5,1.6-2,2.5c-0.5,0.8-0.7,1.8-1.1,2.8
			c1.8,1,3.2,0.3,4.3-0.4c2.1-1.4,4.3-1.3,6.5-1c1.8,0.2,2.8,1.5,3.5,3c0.7,1.6-0.1,2.8-1.1,3.7c-1.3,1.2-2.9,2.2-4.4,3.2
			c-1.7,1-3.6,1.9-5.4,2.8c-1.5,0.7-2.4,1.8-2.3,3.5c0.1,2.7-1,4.5-3.9,4.9c0.1,0.7,0,1.3,0.2,1.8c0.9,2.5-0.2,4.1-2.4,5.2
			c-0.8,0.4-1.5,0.9-2.3,1.2c-2.9,1.4-5.9,1.8-9,0.4c-4.6-2.1-8.7-4.6-10.1-10c-0.1-0.5-1-0.9-1.5-1.3c-0.4,0.6-1.1,1.2-1,1.7
			c0.2,2.1,0.5,4.2,1,6.3c0.5,2.3-0.2,3.6-2.4,4c-3.7,0.7-7.4,1.4-11,2c-1.7,0.3-3.4,0.8-4.5,2.2c-2.1,2.5-4.1,4.9-6.1,7.4
			c-0.5,0.6-0.8,1.4-1.5,2.6c1.7-0.1,2.8,0,3.9-0.2c7.4-1.1,14.9-2,22.3-3.3c6.2-1.2,12.3-2.9,18.4-4.5c3.9-1.1,7.9-2.2,11.6-3.8
			c8.3-3.7,16-8.3,22.8-14.4c3.5-3.1,7.4-5.9,10.8-9.2c3.3-3.2,5.4-7.6,9.4-10.3C253.1,228.7,259.2,220.8,265.2,212.8z M147.2,67.6
			c-2.7-0.5-5.1-1-7.6-1.2c-8.7-1-17.1,0.1-25.4,2.6c-8,2.4-13.3,7.2-15.7,15.1c-1.1,3.6-1.8,7.5,0,11c3.5,6.8,8.9,10.9,16.7,11.1
			c0.5,0,0.9,0.3,1.4,0.5c1.2,0.6,2.4,1.4,3.7,1.7c11.3,2.6,22.7,3.4,34.2,1.5c8.9-1.5,16.8-4.9,23.8-10.7c3.3-2.7,4.8-5.9,3.9-10.2
			c-0.4-1.7-0.8-3.3-1.5-4.9c-1.8-3.9-4.5-7.2-7.7-10.2c-3.1-3-6.5-4.9-10.6-5.7c-3.9-0.7-7.8-1.2-11.8-1.9
			C149.1,66.1,147.9,66.6,147.2,67.6z M168.7,116.8c-1,0.3-2,0.7-3,0.9c-3,0.7-6,1.8-9.1,2c-6.2,0.2-12.4,0-18.7-0.2
			c-5.2-0.1-10.3-0.9-15.3-2.2c-1.4-0.4-3-0.6-4.4-0.7c-2.8-0.2-3.7,0.5-4.3,3.1c-0.7,2.8-1.5,5.6-2.1,8.4c-2.1,9.6-4.2,19.3-6.2,29
			c-0.4,1.8-0.5,3.7-0.8,5.9c23.6-2.6,46.4,0.9,69.6,4.1C173.8,150,172.9,133.3,168.7,116.8z M244.3,134
			c-7.2,15.9-12.4,31.8-18.6,47.5c15.3,7.7,30.2,15.1,45.3,22.7c5.1-9.5,9.8-18.7,11.7-29.1c1.7-9.4,2.8-18.9,1.8-28.8
			C270,145.8,257.3,140.2,244.3,134z M5.9,141.8c2.4,0,4.6,0.4,6.6-0.1c3.7-1,7.3-2.4,10.9-3.9c3.1-1.4,6.1-3.1,9.2-4.7
			c7.6-4,15.3-7.8,22-13.3c6.6-5.5,10.3-12.5,10.5-21.2c0.1-6-3.3-11.2-8.9-13.3c-4.3-1.6-8.8-2.4-13.6-1.9
			c-7.6,0.9-14.5,3.7-21.1,7.3c-2.2,1.2-3.8,2.9-4.8,5.4c-4.7,11.3-7.3,23.1-9.3,35.1C6.7,134.7,6.4,138.2,5.9,141.8z M284.4,134.5
			c0.6-4.6-0.9-17.4-2.6-22.4c-2.8-8.1-6-16.1-9.7-23.8c-0.6-1.2-1.8-2.4-3-3.1c-1.8-1.1-3.8-2-5.9-2.6c-5.2-1.5-10.5-2.3-15.8-0.5
			c-3.6,1.2-7,2.9-9.8,5.5c-4.2,3.9-7.2,8.6-6.5,14.7c0.2,1.6,0.5,3.2,1,4.7c2,6.6,5.6,11.9,11.9,15.3c11.5,6,23.5,10.5,36.4,12.2
			C281.7,134.7,283,134.5,284.4,134.5z M5.7,154.4c0,13.3,2.9,25.8,8.1,38.2c1.5-1.1,2.8-2,4.1-2.9c5.8-4.3,11.9-8.1,18.5-11
			c3.7-1.6,7.6-2.8,11.5-4c1.4-0.5,2.2-1.2,2.1-2.7c-0.1-1.5,0.1-3,0.1-4.5c-0.4-8.6-0.8-17.1-1.3-25.7c-0.1-1.2-0.4-2.4-0.7-3.9
			c-1.2,0.6-1.9,1-2.7,1.4c-4.4,2.5-8.6,5.3-13.1,7.4C23.9,150.5,15.5,154.2,5.7,154.4z M122.9,166.9c-3.9,0.2-7.8,0.5-11.6,0.7
			c-1.6,0.1-3.3,0.1-3.6,2.3c-0.1,0.4-0.7,0.7-1.1,1.1c-2.7,2-5.3,4-8,6c-4.7,3.5-8.7,7.6-12.3,12.2c-2.2,2.7-1.4,4.9,2,5.5
			c3.1,0.5,6.2,0.7,8.8-1.6c0.9-0.8,1.9-1.4,2.7-2.2c1-1,2.1-1.3,3.5-1.3c2.4,0,3.7,1.3,5,3c1.5,1.9,2.7,2.4,4.9,1.5
			c1.3-0.5,2.6-1.1,3.6-2.1c3.5-3.5,7.9-5.5,12.3-7.4c3.7-1.6,7.4-3.1,10.9-5.2c2.3-1.4,3.4-3,3-5.1c-0.5-2.7-2.8-5.4-5-5.6
			C132.9,167.9,127.9,167.4,122.9,166.9z M76.7,172.7c-1.6,0.2-2.5,0.2-3.3,0.4c-6.9,1.8-13.9,3.6-20.8,5.6
			c-10,2.9-19.7,6.8-28.7,12.1c-2.3,1.4-4.6,2.7-6.8,4.2c-1.1,0.8-2.3,1.7-1.6,3.4c1.1,2.4,2.2,4.8,3.3,7.4c1.4-0.5,2.5-0.9,3.5-1.3
			c1-0.4,2-1.2,2.9-1.1c3.6,0.3,5.8-1.4,7.4-4.3c0-0.1,0.2-0.1,0.6-0.3c1,0.7,2.3,1.5,3.4,2.4c1.1,0.9,2,1.9,3,2.9
			c2.4,2.2,3.5,2.2,5.5-0.3c0.4-0.5,0.8-1,1.2-1.5c1.5-1.5,3.3-2.5,5.4-2.6c4-0.3,6.9-2,8.3-5.9c0.3-0.8,0.8-1.5,1.3-2.1
			c0.8-1,1.7-1.9,2.4-3c3.3-4.8,6.5-9.6,10.7-13.6C75.3,174.6,75.7,173.9,76.7,172.7z"/>
		<path d="M129.2,274.2c-0.4,0.1-1.4,0.3-2.4,0.3c-2.2,0-2.9-1.3-2.3-3.4c0.3-1.1,0.4-2.3,0.4-3.4c0-2.1-0.3-4.3-0.2-6.4
			c0-0.9,0.6-1.8,1.1-2.6c0.4-0.6,0.9-1.2,1.4-1.8c2-2,2-4.3,1-6.8c-1.8-4.8,1.1-8.9,6.2-8.9c1.2,0,2.4-0.1,3.5,0.3
			c1,0.4,2.1,1.2,2.5,2.2c1.2,2.6,2.5,5.3,3.1,8.1c1.1,4.4,1.8,8.8,2.5,13.3c0.5,3.8-0.6,5.8-4.1,6.9c-3.1,1-6.4,1.5-9.7,2.2
			C131.4,274.2,130.6,274.2,129.2,274.2z M128.8,271c4.2-0.1,7.9-0.6,10.8-3.5c0.9-0.9,1.3-1.8,0.8-3.1c-1-3.1-1.8-6.3-2.5-9.6
			c-0.7-3.4-1.2-6.9-1.8-10.3c-4.6,0.2-6.2,2.1-5,6.2c0.2,0.6,0.3,1.2,0.6,1.8c0.9,2.7,0.2,5.2-1.8,7c-2.5,2.2-2.5,4.8-2,7.6
			C128.3,268.3,128.5,269.4,128.8,271z"/>
		<path d="M118.8,215.1c-2.4,0.6-4.6,0.4-6.1-2c-0.5-0.9-1.2-1.8-1.7-2.7c-2.2-4.3-1.2-6.1,3.6-6.4c2.3-0.2,4.6-0.5,6.9-0.8
			c0.2,0,0.4-0.1,0.6-0.1c2,0.1,6.5,4.2,6.9,6.2c0.2,1.3-0.2,2.3-1.2,3.1C125.4,214.6,122.4,215.9,118.8,215.1z M113.3,207.7
			c0,2.6,0.6,3.8,2.1,3.7c2.2-0.1,4.4-0.5,6.6-1.1c0.6-0.2,1.4-1.2,1.4-1.8c-0.1-0.6-1-1.2-1.7-1.6c-0.4-0.3-1-0.3-1.6-0.2
			C117.8,207,115.5,207.4,113.3,207.7z"/>
		<path d="M122.8,258.8c-0.4,2.3-1.4,4.9-3.6,6.8c-1.5,1.2-3.4,1.5-5.1,0.5c-1.9-1.1-3.3-2.7-3.3-5.1c0-1.5,0-3,0-4.5
			c0-2.4,1.9-3.7,3.1-5.4c0.1-0.2,0.6-0.2,0.9-0.3C118.5,250.6,122.8,254.7,122.8,258.8z M114.2,262.4c0.3,0.1,0.6,0.1,0.9,0.2
			c1.5-2.3,1.9-5,2.7-7.5c-2.5-0.5-3.5-0.1-3.7,1.7C113.9,258.6,114.1,260.5,114.2,262.4z"/>
	</g>
	<path d="M149.9,86.1c0.1,1.5-2,3.2-3.5,2.9c-0.8-0.2-1.5-1.1-1.5-2c0-1.6,1.8-3.1,3.3-2.7C149.3,84.5,149.9,85.1,149.9,86.1z"/>
	<path d="M132.6,87.5c-0.9,0.1-1.7-0.7-1.8-1.7c-0.1-1,1.1-2.4,2.1-2.4c0.8,0,1.7,1,1.8,1.9C134.7,86.3,133.7,87.4,132.6,87.5z"/>
	<path d="M271.1,104.2c0.1,1.5-2,3.2-3.5,2.9c-0.8-0.2-1.5-1.1-1.5-2c0-1.6,1.8-3.1,3.3-2.7C270.5,102.6,271.1,103.2,271.1,104.2z"
		/>
	<path d="M257.2,105.6c-0.9,0.1-1.7-0.7-1.8-1.7c-0.1-1,1.1-2.4,2.1-2.4c0.8,0,1.7,1,1.8,1.9C259.2,104.4,258.2,105.5,257.2,105.6z"
		/>
	<path d="M39.5,104.2c0.7,1.3-0.5,3.7-2,4c-0.8,0.2-1.8-0.4-2.2-1.2c-0.7-1.4,0.4-3.5,2-3.8C38.3,103,39,103.3,39.5,104.2z"/>
	<path d="M25,112.2c-0.8,0.4-1.9,0-2.4-0.9c-0.5-0.9,0-2.6,0.9-3c0.7-0.3,2,0.2,2.4,1C26.4,110.3,26,111.7,25,112.2z"/>
</g>
</svg>
