<?xml version="1.0" encoding="utf-8"?>
<!-- Generator: Adobe Illustrator 19.1.0, SVG Export Plug-In . SVG Version: 6.00 Build 0)  -->
<svg version="1.1" id="Calque_1" xmlns="http://www.w3.org/2000/svg" xmlns:xlink="http://www.w3.org/1999/xlink" x="0px" y="0px"
	 viewBox="0 0 236 268.5" style="enable-background:new 0 0 236 268.5;" xml:space="preserve">
<style type="text/css">
	.st0{fill:#FFFFFF;}
	.st1{fill:#41AB87;}
	.st2{fill:#E2EFE8;}
	.st3{fill:#010202;}
	.st4{fill:#DB5556;}
	.st5{fill:#6FA4C3;}
	.st6{fill:none;stroke:#DB5556;stroke-width:7;stroke-miterlimit:10;}
	.st7{fill:none;}
	.st8{fill:#FFFFFF;stroke:#DB5556;stroke-width:3;stroke-miterlimit:10;}
	.st9{fill:none;stroke:#DB5556;stroke-width:3;stroke-miterlimit:10;}
	.st10{fill:#C1C0C0;}
	.st11{fill:none;stroke:#C1C0C0;stroke-width:3;stroke-miterlimit:10;}
	.st12{fill:#FFFCFA;}
	.st13{fill:#F5D1CA;}
</style>
<g>
	<g>
		<path d="M184.5,267.7c-6.7,0-13.8,0-20.9,0c-5,0-10,0.3-15,0.3c-10.3,0-20.6,0-30.9-0.1c-4.9-0.1-9.8-0.4-14.7-0.5
			c-7.4-0.2-14.9-0.4-22.3-0.7c-8.9-0.3-17.8-0.8-26.6-1.1c-2.4-0.1-4.8-0.1-7.3-0.1c-4.7-0.1-9.4-0.2-14.1-0.5
			c-5-0.3-10-0.8-15-1.5c-3.8-0.6-7.9-0.8-11.1-3.5c-1.3-1.1-2.1-2.3-2.9-3.8c-4-8.7-2.7-17.2,0.6-25.6c2-5.2,4.3-10.3,6.5-15.4
			c4.7-10.8,9.4-21.5,14.3-32.2c2.9-6.4,6.2-12.6,9.2-19c5.3-11.1,10.4-22.3,15.8-33.3c3.9-7.9,8.2-15.6,12.1-23.4
			c5.1-10.3,10-20.8,15-31.2c3.4-7,6.9-14,10.3-21c1.5-3.1,2.9-6.2,4.3-9.2c1.6-3.3,3.1-6.6,4.7-9.8c2.3-4.5,4.8-8.9,7.3-13.3
			c2.1-3.8,4.2-7.7,6.5-11.5c0.9-1.6,2.2-3,3.4-4.4c4-4.9,9.8-5.4,15.5-6.1c1.4-0.2,3,0.6,4.4,1.2c6,2.7,10.1,7.2,13.5,12.9
			c5.6,9.1,10.3,18.7,14.3,28.5c3.2,7.8,12.2,32.3,13.8,36.6c3,7.9,5.7,15.9,8.6,23.8c1.6,4.4,3.5,8.7,5.3,13.1
			c3.4,8.1,29.7,81.9,33.7,94.9c2.4,7.8,5.1,15.4,7.4,23.2c1.1,3.8,7.1,20,3.3,25.2c-3.8,5.2-20.6,5.6-27,6.1
			C199.3,266.6,192.1,267.1,184.5,267.7z M224.7,248.6c0.1,0,0.1,0,0.2,0c-0.2-2.1-3.7-17.7-5.9-23.2c-4-9.9-6.9-20.1-10.3-30.2
			c-3.1-9.1-25.6-72.1-28.5-78.3c-5.2-11-28-76.8-29.7-81.3c-3.5-9.4-8.4-18-14.3-26.2c-3-4.2-11.7-6.2-16.1-3.1
			c-3.7,2.5-6.6,5.7-8.7,9.6c-2.6,4.8-5.3,9.6-7.9,14.4c-2.4,4.4-4.7,8.9-7,13.4c-1.3,2.6-2.3,5.4-3.6,8.1
			c-5.4,11.3-10.9,22.6-16.4,33.8c-5.6,11.5-11.3,23.1-17.1,34.6c-3.6,7.2-7.4,14.2-10.9,21.4c-4.6,9.4-8.9,18.9-13.3,28.3
			c-2.2,4.7-4.6,9.3-6.7,14c-3.7,8.2-7.4,16.4-11,24.7c-2.3,5.2-4.7,10.4-6.8,15.7c-1.6,3.9-3.1,7.8-4.3,11.8
			c-1.4,4.6-1.7,9.3-0.7,14c0.8,3.7,2.9,6.1,6.7,6.7c2,0.3,4.1,0.3,6.2,0.5c3.4,0.3,6.8,0.7,10.1,0.9c4.8,0.3,9.6,0.3,14.4,0.6
			c7.7,0.5,15.3,1.4,23,1.7c10.7,0.5,38.2,0.8,41.1,0.8c10.7,0.2,21.4,0.4,32.1,0.5c3.8,0,7.6-0.3,11.5-0.4
			c7.4-0.1,14.9-0.1,22.3-0.3c7-0.2,14-0.6,21-1c4.4-0.2,8.8-0.5,13.1-0.9c4.1-0.4,8.3-0.9,12.3-1.6c3-0.6,4.9-3.3,4.9-6.3
			C224.5,250.3,224.6,249.5,224.7,248.6z"/>
		<g>
			<path d="M126,199.9c0-2.9,2.1-5.5,4.5-5.6c2.7-0.1,5.6,3.1,5.6,6.3c0,2.1-2.9,4.8-5.1,4.9C128.7,205.6,126,202.6,126,199.9z"/>
			<path d="M95.7,200.7c0.5-1.3,0.9-2.7,1.6-3.8c1.3-1.9,3.4-2.4,5.4-1.3c3.5,1.9,5.1,5.5,3.5,8.3c-1.3,2.3-3.5,3.5-5.6,2.9
				C97.8,205.9,96,203.7,95.7,200.7z"/>
			<path d="M153.2,128.8c-7.1,6.5-13.8,13.3-18.6,21.6c-1.8,3.1-3.2,6.5-4.8,9.7c-1.7-1.5-3.5-2.8-5.1-4.4c-0.6-0.5-0.9-1.5-1-2.3
				c-0.2-1,0.1-2-0.1-3c-0.4-1.7-1-3.4-1.7-5.8c2.9-4.4-0.6-8.1-3.1-12.3c2.7-3,1.7-5.9-0.4-9c-1.5-2.1-0.2-4.2,0.6-6.2
				c0.8-2.1,0.8-2.3-1.3-4.2c-3.4,2.6-5.4,5.8-4.6,10.3c0.1,0.5,0,1.1-0.2,1.4c-2.4,2.2-2.4,4.8-1.3,7.7c-2.3,1.8-4.3,4.2-3.2,7.2
				c1,2.9,0.7,4.9-1.2,7.4c-1.8,2.4-1,5.5,0.5,8c-2.9,2.6-5.4,4.8-8,7.1c-0.8-1.3-1.8-2.7-2.5-4.3c-2.1-4.7-5.4-8.5-8.4-12.5
				c-2.9-3.8-6.5-7-11.3-8c-1.8-0.4-3.9,0-5.8,0.4c-0.5,0.1-1,1.3-1,2.1c-0.1,5.9,1.2,11.5,3.1,17.1c3.3,9.5,8.6,17.7,15.6,24.9
				c0.6,0.6,1.1,1.3,1.9,2.2c-0.8,0.8-1.6,1.6-2.3,2.3c-6.9,6.8-7.4,20.5,1.1,26.6c5.8,4.2,14.4,4.8,19.4,0.8
				c0.2-0.1,0.4-0.1,1.2-0.3c0.1,0.1,0.2,0.6,0.4,0.9c5.6,8.3,13.9,12.8,23.3,14.9c7.2,1.6,14.4,0.4,21-3.3c0.6-0.3,1.1-0.7,1.6-1.2
				c2.8-2.5,5.2-5.1,8.8-6.8c2.9-1.3,2.7-4.2-0.1-5.7c-2.2-1.2-4.6-2.1-7-2.9c-0.9-0.3-2.2-0.2-3.2,0c-1.5,0.4-2,1.5-1.6,3.1
				c1.9,7.1,0.2,8.1-5.6,10.2c-1.9,0.7-4,1.1-6.1,1.4c-5.6,0.7-13.5-2.9-16.4-7.4c8.5,1.7,15.5-1.9,21.6-7.1
				c4.4-3.7,5.2-9.1,3.7-14.5c-1.1-3.9-2.6-7.7-5.5-10.7c-0.8-0.8-1.3-1.7-1.8-2.4c11.3-14.9,18.2-43.9,18.7-47.1
				c1.1-6.7-1.9-9.1-1.9-9.1C156.9,124.7,155.2,127,153.2,128.8z M115.4,128.3c0.4,1.7-0.3,2.5-1.5,3.3
				C113.2,129.8,113.8,128.9,115.4,128.3z M113.1,136.5c2.2-1.3,3.2-0.8,5.4,2.7c-0.8,1.4-1.6,2.7-2.3,3.9c-1.3,0-2.5,0-3.7,0
				C110.5,139.8,110.6,138,113.1,136.5z M110.6,148.4c2.5-2.3,6.4-1.6,7.7,1.3c1.1,2.4,0.1,4.1-2.6,4.2c-0.7,0-1.3,0-2,0
				c0,0,0,0,0,0.1c-0.3,0-0.7-0.1-1,0c-1.6,0.3-2.9-0.1-3.5-1.6C108.6,150.8,109.4,149.5,110.6,148.4z M103.1,165.1
				c3.4-5.1,9-8.8,15.6-7.1c2.3,0.6,4,1.6,5.1,3.7c1,1.9,2.2,3.8,1.9,6.6c-7.9-2-15.5-0.4-23.2,2C101.6,168,102.2,166.4,103.1,165.1
				z M73.6,141.9c10.1,7.8,17.7,17.7,23.4,31.5c-1.8,2.2-3.4,4.3-5.3,6.7C81.9,169.3,74.8,157.3,73.6,141.9z M113.1,201.9
				c-1.2,4.5-3.9,8-8.1,10.2c-4.8,2.5-8.3,1.5-13.3-2.2c-3.4-2.5-4.4-5.4-4.4-11.3c-0.1-2.6,2-9.1,8.1-11c7.2-2.2,13.1,0.9,16.5,6
				C113.5,196.2,113.8,199.1,113.1,201.9z M106.9,183.7c-3.6-1.6-7.5-2.2-11.6-1.3c0.7-2.5,2.2-4.1,3.9-5.4
				c4.8-3.7,10.4-5.2,16.2-5.7c3.9-0.3,7.9-0.2,11.7,1.4c3.6,1.5,5.9,4,7.1,7.6c-13,0.8-15.5,2.9-19.2,11.8
				C113.4,188,110.6,185.3,106.9,183.7z M144,205.5c-2.8,4.2-6.4,7.8-14,7.7c-4.1,0-10.6-3.7-11.5-8.1c-0.9-4.7-0.7-9,0.8-13.5
				c0.9-2.7,2.4-4.7,5-5.7c2.5-1,5.2-1.6,7-2.2c3.9,0.3,6.6,1.2,8.8,3.5C144.2,191.7,147.3,200.5,144,205.5z M138.6,176.6
				c-1.6-3.7-3.8-6.6-7.5-8.4c-0.1-3.1,1-5.9,2.5-8.6c1.6-2.7,2.6-5.8,4.3-8.5c3-5,6.8-9.4,10.9-13.5c2.5-2.5,8.3-7.1,8.5-6.9
				C154.5,147.4,150.6,163.5,138.6,176.6z"/>
		</g>
	</g>
	<path id="" d="M115.4,128.3c0.4,1.7-0.3,2.5-1.5,3.3C113.2,129.8,113.8,128.9,115.4,128.3z"/>
	<path id="" d="M113.1,136.5c2.2-1.3,3.2-0.8,5.4,2.7c-0.8,1.4-1.6,2.7-2.3,3.9c-1.3,0-2.5,0-3.7,0
		C110.5,139.8,110.6,138,113.1,136.5z"/>
	<path id="" d="M110.6,148.4c2.5-2.3,6.4-1.6,7.7,1.3c1.1,2.4,0.1,4.1-2.6,4.2c-0.7,0-1.3,0-2,0c0,0,0,0,0,0.1
		c-0.3,0-0.7-0.1-1,0c-1.6,0.3-2.9-0.1-3.5-1.6C108.6,150.8,109.4,149.5,110.6,148.4z"/>
	<path id="" d="M103.1,165.1c3.4-5.1,9-8.8,15.6-7.1c2.3,0.6,4,1.6,5.1,3.7c1,1.9,2.2,3.8,1.9,6.6c-7.9-2-15.5-0.4-23.2,2
		C101.6,168,102.2,166.4,103.1,165.1z"/>
	<path id="" d="M106.9,183.7c-3.6-1.6-7.5-2.2-11.6-1.3c0.7-2.5,2.2-4.1,3.9-5.4c4.8-3.7,10.4-5.2,16.2-5.7
		c3.9-0.3,7.9-0.2,11.7,1.4c3.6,1.5,5.9,4,7.1,7.6c-13,0.8-15.5,2.9-19.2,11.8C113.4,188,110.6,185.3,106.9,183.7z"/>
</g>
</svg>
