<?xml version="1.0" encoding="utf-8"?>
<!-- Generator: Adobe Illustrator 19.1.0, SVG Export Plug-In . SVG Version: 6.00 Build 0)  -->
<svg version="1.1" id="Calque_1" xmlns="http://www.w3.org/2000/svg" xmlns:xlink="http://www.w3.org/1999/xlink" x="0px" y="0px"
	 viewBox="0 0 244.5 245.7" style="enable-background:new 0 0 244.5 245.7;" xml:space="preserve">
<style type="text/css">
	.st0{fill:#254B86;}
	.st1{fill:#254B87;}
	.st2{fill:#492E1F;}
	.st3{fill:#DFB76A;}
	.st4{fill:#BFBEBE;}
	.st5{fill:#6EA2C2;}
	.st6{fill:#224E89;}
	.st7{fill:none;stroke:#224E89;stroke-width:3;stroke-miterlimit:10;}
	.st8{fill:#F5F9F8;}
	.st9{fill:#F5F9F8;stroke:#224E89;stroke-width:3;stroke-miterlimit:10;}
	.st10{fill:#F9CB00;}
	.st11{fill:#DF111A;}
	.st12{fill:#0B6EB1;}
	.st13{fill:#8D1514;}
	.st14{fill:#679FD0;}
	.st15{fill:#008549;}
	.st16{fill:#CB9831;}
	.st17{filter:url(#Adobe_OpacityMaskFilter);}
	.st18{fill:#1D1C1A;}
	.st19{fill:#C99730;}
</style>
<g>
	<path d="M104.9,115.7c-0.7-4.3-2.9-7.1-5.8-9.6c-0.3-0.3-0.8-0.4-1.3-0.4c-4.7-0.6-9.2-0.2-13.5,1.8c-4.5,2.1-8.8,4.3-12.2,7.9
		c-9,8.5-15.6,21.5-17.7,33c-0.6,2.1-0.8,4.3-1.1,6.4c-0.1,0.6-0.2,1.3-0.5,1.8c-1.7,2.7-3.4,2.6-5-0.3c-1.7-3-2.7-6.3-3.4-9.7
		c-0.7-3.8-1.7-7.6-1.9-11.5c-0.1-13.6,6.7-23.9,9.4-28c2.9-4.4,10.5-11.4,15.4-14.2c9.7-5.6,23.2-6.3,27.7-6.1
		c10.3,0.5,19.6,3.8,27,11.2c4.3,4.3,6.7,9.9,8.6,15.6c1.4,4.3,2.4,8.8,2,13.4c-0.1,1.3,0.4,2,1.4,2.6c2.1,1.5,4.2,3.1,6.6,4.9
		c0.7-1.6,1.6-3,2.1-4.6c2.7-7.7,4.4-15.5,3.9-23.7c-0.2-3.3-0.3-6.5-0.6-9.8c-0.1-0.9-0.4-1.8-0.7-2.6c-0.9-2.4,0.4-4.4,3-4.3
		c0.4,0,0.8,0,1.1,0.2c2.7,1.3,5.6,2.3,7.6,4.6c3.2,3.7,6.1,7.8,7.9,12.3c1.1,2.9,1.8,6.1,2.2,9.2c0.9,6.3,0.6,12.7-1.1,18.9
		c-0.9,3.2-2.1,6.3-3.2,9.5c0.2,0.2,0.3,0.3,0.4,0.4c3.5,1.8,3.6,1.7,5.9-1.5c3.8-5.3,5.8-11.3,6.7-17.7c0.7-5,1.2-10.1,1.6-15.1
		c0.1-1.2-0.2-7.2-0.2-8.8c3.7-1.3,5.5-0.9,8,2c2.4,2.8,4.4,5.7,5.5,9.3c1.8,5.9,3,11.9,2.4,18c-0.6,5.1-2,10.2-4.8,14.6
		c-0.9,1.4-2,2.6-3.3,3.6c-5,4-10,8.1-16.1,10.6c-4.2,1.7-8.4,3.4-12.9,4.1c-1,0.2-2.1,0.1-3.6,0.2c-2.4,2.9-4.8,6.3-6.7,10.1
		c-3.1,6.2-5.5,12.6-7.2,19.4c-0.4,1.7-1.5,2.8-3.1,3c-1.8,0.3-3.4-0.4-4.4-2.1c-2.2-3.8-3.6-7.9-4.4-12.3c-1.4-7.6-0.6-15,1.8-22.3
		c0.3-0.9,1.9-3.9,1.8-4.6c-0.2,0-2-0.3-2.2-0.4c-0.4,0.5-0.6,1.1-0.9,1.7c-3.6,7.2-6.2,14.7-6,22.9c0.3,11.5,2.8,22.4,8,32.7
		c0.7,1.4,1.3,3,1.8,4.5c0.5,1.5,0,2.5-1.4,3.1c-2.2,0.9-4.4,1.1-6.6-0.1c-4.9-2.8-9.7-5.8-13.6-9.9c-4-4.2-7.8-8.6-10.4-13.9
		c-3.2-6.6-4.2-13.4-4.1-20.6c0.1-8.9,2.5-17.4,5.8-25.8c-0.6,0-1.1-0.2-1.4,0c-6.4,0.8-11.7,7-14.2,11.1
		c-2.5,4.1-6.8,16.2-7.7,21.7c-0.9,5.2-2.6,3.3-5.7,1.8c-3.1-1.4-7.9-6.4-9.9-10.9s-2.9-15.7-2.1-23.7c0.8-8,4.2-14.9,10-20.6
		c4.5-4.4,9.5-7.9,15.5-9.9c4.1-1.4,8.4-2.4,12.6-3.2C100.1,115.4,102.4,115.7,104.9,115.7z M131.9,151.9c2.2-5.3,5.5-9.6,7.3-14.9
		c-4.2-3.2-8.1-6.5-12.3-9.2c-6.2-4.1-12.9-7.1-20.1-8.6c-3.9-0.8-7.9-1.3-11.8,0.1c-0.9,0.3-1.9,0.5-2.9,0.7
		c-6.4,1.3-12.1,4-17.3,8.1c-9,7-13,16.2-12.7,27.4c0.1,3.6,0.2,7.3,1.1,10.8c1.6,6.6,4.9,11.5,9.1,14.5c0.8,0.5,1.6,1,2.6,1.8
		c0.5-2.3,0.9-4,1.3-5.8c1.9-8.3,4.5-16.3,9.8-23.1c3.9-5.1,9.1-8.8,15.3-10.3c5.8-1.4,11.8-0.9,17.4,1.1
		C123.2,146.1,127.7,148.4,131.9,151.9z M135.4,194.6c1.5,0,1.5-10.6,4.1-17.2c3.4-7.1,8-13.4,12.3-19.9c5-7.5,8.3-15.5,9.9-24.3
		c1-5.1,2.2-10.3,1.4-15.6c-1.2-7.6-3.5-14.8-8.4-20.9c-1.2-1.5-2.7-2.6-4.1-3.9c-0.9-0.7-1.9-1-2.9-0.2c0.6,2.2,1.3,4.3,1.6,6.4
		c0.7,5.8,0.8,11.6-0.1,17.3c-0.9,6.3-2.4,12.5-5.1,18.2c-1.4,3-3,6-4.6,8.9c-3.4,6.4-6.5,12.9-8.6,20c-1.2,4.3-1.6,8.6-1.6,12.9
		c0,5.9,1.9,11.4,4.6,16.6C134.1,193.4,134.3,194.6,135.4,194.6z M128,218c-0.8-1.7-1.2-2.7-1.6-3.7c-1.5-3.4-3-6.8-4.5-10.2
		c-4.1-9.2-5.7-18.9-5.1-28.9c0.2-2.9,0.8-5.7,1.5-8.5c0.8-3.4,2.4-6.5,4.2-9.4c1.2-1.9,1-2.2-0.7-3.6c-0.5-0.4-1-0.8-1.6-1
		c-4.6-1.8-9.3-3.1-14.3-2.7c-0.9,0.1-1.6,0.3-1.9,1.2c-1.4,4.2-3.2,8.3-4.1,12.6c-0.9,4.5-1.2,9.2-1.3,13.8
		c-0.3,8.1,2,15.7,6.4,22.4c5,7.6,12,13.3,20,17.6C125.7,217.9,126.6,217.8,128,218z M90.6,101.8c-0.2-0.4-0.3-0.6-0.4-0.7
		c-5.9-3.6-12.3-5.1-19.1-5.5c-1.2-0.1-2.6,0.2-3.6,0.8c-3.7,2.3-7.2,4.9-9.9,8.4c-4.3,5.3-7.2,11.3-9.4,17.7
		c-1.4,3.9-2.5,8-2.4,12.2c0.2,5.8,1.5,11.3,3.2,16.8c0.1,0.4,0.4,0.7,0.9,1.6c0.7-2.8,1.3-5.1,2-7.4c1-3.6,1.8-7.3,3.2-10.7
		c2.7-6.5,6-12.8,10.6-18.3c5.3-6.4,11.8-10.9,19.8-13.3C86.9,102.9,88.7,102.4,90.6,101.8z M75.8,92.2c0.3,0.3,0.4,0.4,0.4,0.4
		c0.3,0.1,0.5,0.1,0.8,0.1c5.2-0.2,9.9,1.3,14.1,4c2.8,1.8,5.4,3.9,8.1,5.9c4.7,3.4,7.8,7.8,8.8,13.8c7.8,1.8,14.9,5.4,22.1,10
		c-0.2-2-0.3-3.4-0.6-4.8c-1.3-7.5-3.8-14.6-8.7-20.6c-2.4-3-5.2-5.4-8.8-7.1c-4.5-2.1-9-3.9-13.9-4.4c-2.3-0.3-4.7-0.5-7-0.4
		c-2.3,0.1-4.7,0.4-7,0.9C81.5,90.5,78.5,90.4,75.8,92.2z M170.4,146.3c3.2,1.5,6.3,1.5,9.4,1.7c1.1,0.1,1.7-0.4,2.3-1.1
		c2.3-2.5,4.1-5.1,5-8.5c0.8-2.9,1.6-5.7,1.7-8.8c0.1-7.7-1.9-14.9-5.4-21.7c-0.8-1.6-2-3.1-3-4.6c-0.3,2.5,0,4.9-0.1,7.2
		c-0.4,6-0.7,11.9-2,17.8c-1.3,5.8-3.1,11.4-6.7,16.2C171.1,145.1,170.8,145.6,170.4,146.3z M177,151c-5.6-1.3-11.1-2.2-16.2-4.1
		c-2.5,4.6-4.9,9-7.5,13.7C162.2,159.4,170.1,156.5,177,151z"/>
	<path d="M139.5,83.8c0,1.5-6.1,1.7-8.5-1.9c-0.9-1.1-1.8-2.3-2.4-3.6c-1.4-2.9-1-4.2,1.5-6.4c-1.9-3.1-3.5-6.3-0.6-9.3
		c-0.3-2-0.7-3.8-0.7-5.6c0.1-1.9,0.9-3.6,3-4c-0.9-4.4,0.5-6.7,4.7-8.2c0.6-0.2,1.2-0.4,1.8-0.7c5.4-2.6,10.1-1,14.1,2.9
		c3.6,3.5,5.7,7.9,6.4,12.9c0.2,1.7-0.2,2.2-2,2.2c-2.1,0.1-4.2-0.1-6.2,0.4c-4.8,1.1-7.7,4.5-9.7,8.8
		C138.5,76.6,139.5,82.3,139.5,83.8z M154.3,59.3c-0.1-0.5-0.1-0.9-0.2-1.2c-1.1-4.5-4.1-7.5-7.7-10.1c-2.2-1.6-4.5-2.2-7.1-1
		c-0.6,0.3-1.4,0.5-2.1,0.6c-1.4,0.3-2.8,0.7-3,2.2c-0.2,1.6,2.9,3.9,4,6c-1.3,1.7-2.3,0.5-3.3-0.2c-1.8-1.1-2.9-0.5-3.2,1.6
		c-0.3,2.2,0.8,3.8,2.4,5.2c0.7,0.5,1.4,1,0.7,2c-1.1,0-2.2-0.7-3.4,0c-1.2,0.7-0.8,2.3-0.2,3.3c0.8,1.3,1.8,2.5,2.6,3.7
		c0.9,1.3,0.5,2.3-1,2.6c-0.7,0.1-1.8-0.9-2.2,0.3c-0.7,1.8,1.7,4.7,3.3,6.6c0.6,0.6,1.1,1.5,2.2,0.9
		C135.6,68.6,142.8,60.3,154.3,59.3z"/>
	<path d="M160.2,83.2c3.5-2.6,7.3-3.2,11.2-2.4c3.9,0.7,7.4,5.2,7.1,9.1c0,0.5,0.7-1-0.5,1.5c-1.1,2.6-3.5,4.4-6.4,5.2
		c-3.3,0.9-5.8,0.2-7.9-2.5C161.2,91,160.4,87.3,160.2,83.2z M163,84.1c-0.5,4.3,1.2,7.5,3.9,10.2c0.5,0.5,1.7,0.7,2.5,0.6
		c2.5-0.4,4.4-2.3,4.7-4.3c0.3-2.5-0.7-4.5-3.1-5.8C168.4,83.3,165.8,83.8,163,84.1z"/>
	<path d="M174.2,72.6c-2.9,4.3-8.9,5.2-12.7,2.5c-2.6-1.9-3.4-4.9-2.9-8c0.2-1.5,0.9-3,1.8-4.2c1.5-2.2,6.8-3.6,6.9-3
		c0.2,5.6,2,9.2,6.3,11.9C173.9,72,174.1,72.4,174.2,72.6z M169.8,72.8c-3.9-2.2-5.5-5.6-4.8-10.2c-3.4,1.5-4.8,5.7-3.2,9
		C163.3,74.6,167.1,75.3,169.8,72.8z"/>
	<path d="M150.1,68.3c1.6-0.7,3.4,1,3.5,2.7c0,0.6,0,1.4-0.6,1.6s-1.5,0.1-1.9-0.3C149.8,71.4,148.5,69,150.1,68.3z"/>
	<path id="" d="M169.8,72.8c-3.9-2.2-5.5-5.6-4.8-10.2c-3.4,1.5-4.8,5.7-3.2,9C163.3,74.6,167.1,75.3,169.8,72.8z"/>
	<path id="" d="M163,84.1c-0.5,4.3,1.2,7.5,3.9,10.2c0.5,0.5,1.7,0.7,2.5,0.6c2.5-0.4,4.4-2.3,4.7-4.3
		c0.3-2.5-0.7-4.5-3.1-5.8C168.4,83.3,165.8,83.8,163,84.1z"/>
	<path id="" d="M94.3,55.8c1.6,0,9.2,6.4,12.6,8.6c-0.1-0.8-2.5-8.8-3.7-12.3c-0.7-2.3-0.5-4.2,1.2-6c1.8-1.9,3.5-4,5.2-6
		c1-1.1,1.9-2.4,3.2-4c-3.1,0.5-5.7,0.6-8.1,1.2c-2.7,0.8-4.6,0-6.1-2.3c-1.3-2-2.8-4-4.3-6.2c-2.1,3.6-4.1,7.1-6,10.6
		c-0.7,1.4-1.5,2.1-3.1,2.1c-2.7,0-5.3,0-8,0c1.7,1.9,3.4,3.8,5,5.7c3.5,4,4.1,4,0.9,10c-1.2,2.2-2,3.7-3.4,7.5
		C82.6,63,92.1,58.2,94.3,55.8z"/>
	<path id="" d="M154.3,59.3c-0.1-0.5-0.1-0.9-0.2-1.2c-1.1-4.5-4.1-7.5-7.7-10.1c-2.2-1.6-4.5-2.2-7.1-1
		c-0.6,0.3-1.4,0.5-2.1,0.6c-1.4,0.3-2.8,0.7-3,2.2c-0.2,1.6,2.9,3.9,4,6c-1.3,1.7-2.3,0.5-3.3-0.2c-1.8-1.1-2.9-0.5-3.2,1.6
		c-0.3,2.2,0.8,3.8,2.4,5.2c0.7,0.5,1.4,1,0.7,2c-1.1,0-2.2-0.7-3.4,0c-1.2,0.7-0.8,2.3-0.2,3.3c0.8,1.3,1.8,2.5,2.6,3.7
		c0.9,1.3,0.5,2.3-1,2.6c-0.7,0.1-1.8-0.9-2.2,0.3c-0.7,1.8,1.7,4.7,3.3,6.6c0.6,0.6,1.1,1.5,2.2,0.9
		C135.6,68.6,142.8,60.3,154.3,59.3z"/>
	<path d="M82.2,51.9c-2.4-3.2-10-10.7-11-11.7c0.1-1.8,1.1-2.5,2.7-2.4c0.9,0.1,8.1,0.6,10.8,0.7c1,0.1,1.4-0.7,1.8-1.4
		c2.2-3.8,4.4-7.7,6.7-11.5c0.1-0.2,0.3-0.4,0.6-0.7c2,0.1,3.5,0.7,4.6,2.6c1.4,2.4,3.1,4.7,4.8,7.2c2.3-0.3,4.8-0.8,7.3-1.1
		c2.5-0.3,5-0.8,7.4,1.1c-0.6,2.1-2.1,3.7-3.4,5.4c-2.4,3.1-4.8,6.1-7.1,9.2c-0.4,0.5-0.3,1.6-0.1,2.3c0.5,1.8,1.2,3.6,1.7,5.4
		c0.7,2.3,1.3,4.5,1.8,6.8c0.3,1.3,0.7,2.7-0.9,3.6c-1.5,0.8-3.2,0.6-4.5-0.5c-2.8-2.2-5.6-4.3-8.4-6.4c-0.1-0.1-0.2-0.1-0.5-0.2
		c-5.2,2.4-10.6,4.9-16,7.5c-0.4,0.2-0.8,0.4-1.2,0.6c-0.9,0.4-1.7,0.1-2.5-0.6c-0.8-0.7-0.5-1.4-0.1-2.2c1.7-4.1,3.4-8.2,5.2-12.3
		C81.9,52.9,82,52.4,82.2,51.9z M94.3,55.8c1.6,0,9.2,6.4,12.6,8.6c-0.1-0.8-2.5-8.8-3.7-12.3c-0.7-2.3-0.5-4.2,1.2-6
		c1.8-1.9,3.5-4,5.2-6c1-1.1,1.9-2.4,3.2-4c-3.1,0.5-5.7,0.6-8.1,1.2c-2.7,0.8-4.6,0-6.1-2.3c-1.3-2-2.8-4-4.3-6.2
		c-2.1,3.6-4.1,7.1-6,10.6c-0.7,1.4-1.5,2.1-3.1,2.1c-2.7,0-5.3,0-8,0c1.7,1.9,3.4,3.8,5,5.7c3.5,4,4.1,4,0.9,10
		c-1.2,2.2-2,3.7-3.4,7.5C82.6,63,92.1,58.2,94.3,55.8z"/>
	<path d="M0,111.1c0.8-7.3,0.8-12,3-21.8c3.1-13.7,12.7-32.1,17.3-38.2c6-8,12.8-15.3,20.7-21.6c6.1-4.9,12.6-9.2,19.5-12.8
		c3.2-1.7,6.4-3.5,9.7-5C74,10,78,8.3,82,6.9c6.3-2.2,18.4-4.9,24.9-5.8C131.6-2,147,2,156.3,5c11.7,3.8,22.5,9.5,32.5,16.7
		c3.2,2.3,6.5,4.6,9.6,7.2c6.7,5.5,12.4,12,17.7,18.8c5.3,6.8,9.9,14.1,14.1,21.7c2.7,4.9,5.2,9.9,7.2,15.2c3.4,9,5,13.4,6.5,27.7
		s0.6,20-1,31.7c-7.8,27.5-16.9,40.1-19.8,44.5c-4.7,6.9-18.3,22.6-36.6,35.9c-8,5.8-18.4,11.2-22.6,12.8c-3,1.2-6.1,2.2-9.2,3.4
		c-7.3,2.9-40.4,13.3-84.8-8.5c-7.4-4.3-15.3-8-22.1-13.3c-5.7-4.4-11.2-8.9-15.9-14.4C27,199.2,0,173.6,0,111.1z M60.6,223.8
		c27.5,17.2,53.2,18,67.9,17.7c16.4-0.4,35.2-7.7,50.1-17.7c14.9-10,36.4-32,43.9-45.4c4.9-9.3,9.4-18.9,12.1-29.1
		c2.7-10,3.7-20.2,2.9-30.4c-0.5-7.4-4.7-29.6-9.9-42.5c-2.3-5.4-4.7-10.8-8-15.7c-5.8-8.9-11.9-17.5-19.8-24.8
		c-7.7-7.3-16.1-13.6-25.3-18.8c-4.6-2.6-9.5-4.6-14.1-7c-4.3-2.3-24.7-7.8-42.2-6.3c-7.2,0.6-14.4,1.2-21.6,2.6
		c-7.9,1.5-15.6,3.4-22.8,7c-3.6,1.8-7.1,3.7-10.5,5.6C54.3,23.7,45.7,29.1,38.2,36C31.5,42,25.3,48.6,20.5,56.2
		c-4.4,7-8.3,14.3-11.2,22c-4,9.4-6.5,26.2-6.8,33.4C4.2,165.8,22.8,200.1,60.6,223.8z"/>
	<path id="" d="M131.9,151.9c2.2-5.3,5.5-9.6,7.3-14.9c-4.2-3.2-8.1-6.5-12.3-9.2c-6.2-4.1-12.9-7.1-20.1-8.6
		c-3.9-0.8-7.9-1.3-11.8,0.1c-0.9,0.3-1.9,0.5-2.9,0.7c-6.4,1.3-12.1,4-17.3,8.1c-9,7-13,16.2-12.7,27.4c0.1,3.6,0.2,7.3,1.1,10.8
		c1.6,6.6,4.9,11.5,9.1,14.5c0.8,0.5,1.6,1,2.6,1.8c0.5-2.3,0.9-4,1.3-5.8c1.9-8.3,4.5-16.3,9.8-23.1c3.9-5.1,9.1-8.8,15.3-10.3
		c5.8-1.4,11.8-0.9,17.4,1.1C123.2,146.1,127.7,148.4,131.9,151.9z"/>
	<path id="" d="M135.4,194.6c1.5,0,1.5-10.6,4.1-17.2c3.4-7.1,8-13.4,12.3-19.9c5-7.5,8.3-15.5,9.9-24.3
		c1-5.1,2.2-10.3,1.4-15.6c-1.2-7.6-3.5-14.8-8.4-20.9c-1.2-1.5-2.7-2.6-4.1-3.9c-0.9-0.7-1.9-1-2.9-0.2c0.6,2.2,1.3,4.3,1.6,6.4
		c0.7,5.8,0.8,11.6-0.1,17.3c-0.9,6.3-2.4,12.5-5.1,18.2c-1.4,3-3,6-4.6,8.9c-3.4,6.4-6.5,12.9-8.6,20c-1.2,4.3-1.6,8.6-1.6,12.9
		c0,5.9,1.9,11.4,4.6,16.6C134.1,193.4,134.3,194.6,135.4,194.6z"/>
	<path id="" d="M128,218c-0.8-1.7-1.2-2.7-1.6-3.7c-1.5-3.4-3-6.8-4.5-10.2c-4.1-9.2-5.7-18.9-5.1-28.9
		c0.2-2.9,0.8-5.7,1.5-8.5c0.8-3.4,2.4-6.5,4.2-9.4c1.2-1.9,1-2.2-0.7-3.6c-0.5-0.4-1-0.8-1.6-1c-4.6-1.8-9.3-3.1-14.3-2.7
		c-0.9,0.1-1.6,0.3-1.9,1.2c-1.4,4.2-3.2,8.3-4.1,12.6c-0.9,4.5-1.2,9.2-1.3,13.8c-0.3,8.1,2,15.7,6.4,22.4c5,7.6,12,13.3,20,17.6
		C125.7,217.9,126.6,217.8,128,218z"/>
	<path id="" d="M90.6,101.8c-0.2-0.4-0.3-0.6-0.4-0.7c-5.9-3.6-12.3-5.1-19.1-5.5c-1.2-0.1-2.6,0.2-3.6,0.8
		c-3.7,2.3-7.2,4.9-9.9,8.4c-4.3,5.3-7.2,11.3-9.4,17.7c-1.4,3.9-2.5,8-2.4,12.2c0.2,5.8,1.5,11.3,3.2,16.8c0.1,0.4,0.4,0.7,0.9,1.6
		c0.7-2.8,1.3-5.1,2-7.4c1-3.6,1.8-7.3,3.2-10.7c2.7-6.5,6-12.8,10.6-18.3c5.3-6.4,11.8-10.9,19.8-13.3
		C86.9,102.9,88.7,102.4,90.6,101.8z"/>
	<path id="" d="M75.8,92.2c0.3,0.3,0.4,0.4,0.4,0.4c0.3,0.1,0.5,0.1,0.8,0.1c5.2-0.2,9.9,1.3,14.1,4c2.8,1.8,5.4,3.9,8.1,5.9
		c4.7,3.4,7.8,7.8,8.8,13.8c7.8,1.8,14.9,5.4,22.1,10c-0.2-2-0.3-3.4-0.6-4.8c-1.3-7.5-3.8-14.6-8.7-20.6c-2.4-3-5.2-5.4-8.8-7.1
		c-4.5-2.1-9-3.9-13.9-4.4c-2.3-0.3-4.7-0.5-7-0.4c-2.3,0.1-4.7,0.4-7,0.9C81.5,90.5,78.5,90.4,75.8,92.2z"/>
	<path id="" d="M170.4,146.3c3.2,1.5,6.3,1.5,9.4,1.7c1.1,0.1,1.7-0.4,2.3-1.1c2.3-2.5,4.1-5.1,5-8.5c0.8-2.9,1.6-5.7,1.7-8.8
		c0.1-7.7-1.9-14.9-5.4-21.7c-0.8-1.6-2-3.1-3-4.6c-0.3,2.5,0,4.9-0.1,7.2c-0.4,6-0.7,11.9-2,17.8c-1.3,5.8-3.1,11.4-6.7,16.2
		C171.1,145.1,170.8,145.6,170.4,146.3z"/>
	<path id="" d="M177,151c-5.6-1.3-11.1-2.2-16.2-4.1c-2.5,4.6-4.9,9-7.5,13.7C162.2,159.4,170.1,156.5,177,151z"/>
</g>
</svg>
