<?xml version="1.0" encoding="utf-8"?>
<!-- Generator: Adobe Illustrator 19.1.0, SVG Export Plug-In . SVG Version: 6.00 Build 0)  -->
<svg version="1.1" id="Calque_1" xmlns="http://www.w3.org/2000/svg" xmlns:xlink="http://www.w3.org/1999/xlink" x="0px" y="0px"
	 viewBox="0 0 289.6 253.9" style="enable-background:new 0 0 289.6 253.9;" xml:space="preserve">
<style type="text/css">
	.st0{fill:#E01220;}
	.st1{fill:#1F7CAD;}
	.st2{fill:#C0BFBF;}
	.st3{fill:#1F7CAD;stroke:#000000;stroke-width:2;stroke-miterlimit:10;}
	.st4{fill:#6DA3C3;}
	.st5{fill:none;stroke:#E01220;stroke-width:3;stroke-miterlimit:10;}
	.st6{fill:#F5FBF9;}
	.st7{fill:#1D1D1B;}
</style>
<g>
	<path d="M70.2,2.7c2.2,0,3.9-0.1,5.6,0c6.9,0.3,64.7-1.1,71.8-1.4c10.4-0.4,20.7-1.2,31.1-1.3c11.1-0.1,22.2,0.3,33.3,0.4
		c0.6,0,1.2-0.1,1.8,0c2,0.2,3.8,0.6,5.1,2.6c3.3,5.3,6.8,10.5,10.2,15.7c2.3,3.4,4.7,6.8,6.9,10.3c2.8,4.4,5.5,8.9,8.1,13.4
		c4,6.9,7.9,13.8,11.9,20.7c1.8,3.1,4,6,5.8,9.2c2.9,5,5.6,10,8.3,15c3.8,6.8,7.5,13.5,11.3,20.3c2.3,4.1,4.5,8.3,6.8,12.4
		c0.2,0.4,2.1,5.9,1,8.4c-3.9,9-9.4,17.1-14.2,25.6c-6.1,10.7-12.1,21.4-18.2,32c-3.9,6.7-8,13.3-11.9,20c-3.8,6.6-7.5,13.3-11.4,20
		c-4.1,7.1-14.2,26-15.5,26c-9.7-0.3-19.4-0.5-29.1-0.7c-3.6-0.1-7.2,0.1-10.8,0.1c-6-0.1-12.1-0.5-18.1-0.5c-7.7,0-59,2.6-66.9,2.7
		c-4.9,0.1-9.8-0.1-14.7,0.4c-3.2,0.3-5.1-1.4-6.5-3.4c-3.9-5.4-7.6-11-10.9-16.7c-3.6-6.3-7.6-12.5-10.6-19.2
		c-2.2-5-5.3-9.5-8-14.3c-4.2-7.4-8.4-14.9-12.8-22.3c-5.2-8.8-10.4-17.5-15.7-26.2c-2.8-4.6-6-9.1-8.8-13.7c-1.6-2.6-3-5.4-4.5-8.2
		c-0.8-1.5-0.5-2.9,0.3-4.3c2.7-4.8,5.3-9.7,7.9-14.6c3.2-6,6.4-12.1,9.7-18.1c7.1-13.1,14.2-26.3,21.5-39.3
		c3.4-6.1,7.2-11.9,10.8-17.9c3-5,6-10,9-15.1c3.3-5.6,6.5-11.3,9.8-17C69.7,3.1,70.2,2.7,70.2,2.7z M214.2,247.5
		c2.8-5.2,5.7-10.5,8.6-15.8c10.4-19,20.3-38.3,31.9-56.7c3.4-5.4,6.5-10.9,9.7-16.4c2.4-4.1,4.6-8.3,6.9-12.4
		c3.7-6.8,7.2-13.7,11.1-20.5c1.1-2,1.3-3.6,0.3-5.6c-5.7-10.9-11.5-21.7-18-32.3c-5-8.2-9.6-16.6-14.3-24.9
		c-3.2-5.6-6.1-11.4-9.6-16.8c-7.8-12.3-15.9-24.4-23.8-36.5c-1.3-1.9-2.5-3.8-3.7-5.6c-7.1-0.2-14-0.6-20.8-0.5
		c-11.6,0-23.2,0.3-34.8,0.6c-6.7,0.2-13.5,0.8-20.2,0.9c-9.6,0.2-59.2,1.5-64,1.3c-1.3-0.1-2.1,0.4-2.7,1.5
		c-2.3,3.9-4.6,7.8-6.9,11.7c-4.7,8.1-9.4,16.2-14.1,24.3C45,52.2,40,60.5,35.2,69.1c-7.3,13.2-14.4,26.5-21.6,39.8
		c-3.3,6-6.5,12.1-9.8,18.1c-0.5,1-0.7,1.8-0.1,2.8c1.4,2.3,2.6,4.8,4.1,7.1c2.6,4.2,5.5,8.2,8.1,12.4c7.5,12.4,15.1,24.8,22.3,37.4
		c5.5,9.6,11.2,19.1,16,29.2c4.1,8.6,9.5,16.4,14.8,24.2c2.3,3.3,4.4,6.7,6.6,10.1c7.1,0,39.2-2,48.5-2.1c7.9-0.1,15.7-0.8,23.6-0.9
		c11.6-0.2,23.2-0.4,34.8-0.3C192.9,246.8,203.3,247.2,214.2,247.5z"/>
	<path d="M24.8,130.8c4.8-9.2,9.7-18.4,14.6-27.7c5-9.5,9.8-19,14.8-28.5c3.5-6.6,7.2-13,10.5-19.7c3-6.1,5.6-12.5,8.4-18.8
		c1.1-2.4,2.1-4.8,3.2-7.1c0.5-1,1.3-1.4,2.4-1.4c4.6,0,9.3-0.2,13.9-0.1c5.9,0.1,11.8,0.5,17.7,0.4c9.5-0.1,19-0.2,28.5-0.5
		c11.1-0.4,22.1-0.9,33.2-1.4c6.7-0.3,13.5-0.7,20.2-1c3.4-0.2,6.8-0.4,10.5-0.7c5,8.8,10,17.5,15,26.2c2.4,4.2,5,8.2,7.4,12.4
		c2.5,4.4,4.8,8.9,7.4,13.1c4.6,7.5,9.4,15,14.2,22.4c2.3,3.5,4.9,6.9,7.3,10.3c1.8,2.5,3.5,5.1,5.2,7.7c0.9,1.3,0.9,2.5,0,3.9
		c-3.6,6.3-7.1,12.6-10.7,18.9c-2.2,3.9-4.6,7.6-6.6,11.6c-3.2,6.4-6.2,12.9-9.4,19.3c-1.9,4-3.9,8-5.8,12
		c-5.1,10.6-10.2,21.2-15.4,31.9c-1.8,3.8-3.9,7.5-5.7,11.3c-0.9,2-1.5,4.1-2.3,6.2c-3.4,0-7,0-10.6,0c-4.5-0.1-9-0.2-13.5-0.3
		c-5.7-0.1-11.5,0-17.2-0.1c-9.8-0.2-19.7-0.6-29.5-0.9c-4.8-0.1-9.6-0.1-14.4-0.3c-5-0.2-28.9-0.9-34.5-1.3
		c-1.8-0.1-2.9-1.2-3.7-2.7c-2.5-4.6-4.9-9.3-7.5-13.8c-2.9-5.1-6-10-9-15c-3.3-5.4-6.5-10.9-9.8-16.3c-3-4.9-6.3-9.6-9.3-14.5
		c-1.1-1.7-2-3.5-2.9-5.3c-5.3-9.4-10.6-18.8-15.9-28.2C25.6,132.5,25.3,131.9,24.8,130.8z M115.1,151.1c-1.2-0.4-2.2-0.6-3.1-1.1
		c-2.5-1.2-5.1-2.1-7.3-3.6c-5.5-3.9-9.3-9.2-11.8-15.4c-3.3-7.9-2.3-15.9,0.1-23.7c2.9-9.2,9.1-16.1,17-21.4c2-1.3,4.3-2.1,6.6-2.9
		c0.5-0.2,1.2,0.3,1.8,0.5c-0.3,0.6-0.4,1.3-0.9,1.6c-0.9,0.7-1.9,1.1-2.8,1.7c-10.1,6.3-17.9,14.4-20.2,26.6
		c-1.6,8.3-1,16,4.1,23.1c2.2,3.1,4.4,6.2,7.7,8c6.8,3.7,14.3,5.3,22,6.2c7.9,0.9,15.6-0.7,22.9-3c11.7-3.5,22-9.7,30.1-19
		c2.5-2.9,5.1-6,5.7-9.8c0.7-5.1,1.4-10.2,0.3-15.5c-1.8-8.4-6.1-15-12-20.9c-4-4-9.1-5.9-14.5-6.9c-2.8-0.5-5.8-0.8-8.7-0.9
		c-2.1,0-4.1,0.5-6.2,0.7c-3.9,0.4-7.7,1.5-11.4,2.9c-3.1,1.2-6.4,2.2-9.7,2.6c-0.5-1.4,0.2-1.8,1.1-2.3c9-5.3,19-7.3,29.3-7.2
		c7.2,0.1,13.9,2.6,19.5,7.3c8.6,7.3,13.9,16.6,15.6,27.8c0.6,3.7-0.5,7.3-0.7,11c-0.2,4.3-2.1,7.8-4.4,11.1
		c-1.7,2.4-3.6,4.5-5.5,6.8c1,3.2,2.4,6.5,3.2,9.9c2.8,13,5.3,26,6.9,39.2c0.7,6.2,1.7,12.4,2.2,18.6c0.4,5,0.4,10.1,0.6,15.1
		c0,1.1,0.2,2.2,0.3,3.5c2.6,0,5,0,7.4,0c0.8,0,1.7-0.1,2.4,0.2c0.6,0.3,0.9,1,1.3,1.6c1.2-2.3,2.5-4.3,3.5-6.5
		c4.8-10,9.6-20,14.4-30c4.1-8.6,7.9-17.2,12.2-25.7c3.7-7.5,7.8-14.8,11.8-22.2c3.5-6.4,7-12.7,10.5-19c0.8-1.4,0.8-2.6-0.1-3.9
		c-1.6-2.1-3-4.3-4.4-6.5c-5.1-7.4-10.3-14.7-15.2-22.2c-2.9-4.5-5.4-9.2-8.1-13.9c-4.2-7.3-8.6-14.6-12.7-22
		c-4.6-8.3-9.2-16.5-15.1-23.9c-2.1,0-4.1-0.1-6,0c-5.6,0.3-11.1,0.8-16.7,1.1c-7.9,0.4-15.8,0.7-23.8,1.1
		c-6.4,0.3-12.9,0.6-19.3,0.7c-8,0.2-16,0.4-23.9,0.4c-8.2,0-16.5-0.3-24.7-0.5c-2.3,0-4.5,1.7-5.4,3.8c-1,2.6-2.1,5.2-3.3,7.7
		c-2.4,5.1-4.9,10.2-7.3,15.3c-1.9,3.9-3.6,7.9-5.6,11.7c-5,9.3-10.1,18.6-15.2,27.9c-3.9,7.1-7.8,14.1-11.8,21.1
		c-1.6,2.8-3.1,5.7-4.7,8.5c-1.6,2.9-2.4,5.6,0.2,8.5c1.2,1.3,1.7,3.2,2.9,4.6c5.3,6.6,8.9,14.2,13.4,21.2c2.1,3.2,4.1,6.5,6,9.8
		c5.3,8.8,10.6,17.7,15.8,26.5c3.5,6,7.4,11.8,10.1,18.2c1.3,3.1,3.4,5.9,5,8.9c0.5,1,1.1,1,2,0.6c0.1-0.3,0.2-0.5,0.3-0.8
		c0.7-3.4,2-4.6,5.5-4.8c1.8-0.1,3.6-0.1,5.5-0.1c1,0,1.9,0,3.2,0C103.2,195.8,106.5,173.1,115.1,151.1z M117.6,156.8
		c-0.8,2.4-1.5,4.5-2.2,6.7c-3.2,10.8-4.4,21.9-5.5,33c-0.8,8.7-1.5,17.4-2.2,26.2c-0.1,1,0.3,2.1,0.4,3c7.2,0.3,14.1,0.7,20.9,0.9
		c6.3,0.2,12.7,0.4,19,0.5c3.9,0.1,7.9,0.1,11.8,0.1c8.4,0.1,16.7,0.3,25.1,0.4c0.7,0,1.3-0.2,1.9-0.3c1.5-23.4-2-63.2-8.7-82.4
		c-0.4,0.3-0.8,0.6-1.2,0.9c-8,6.2-17.2,9.9-27.1,11.4c-4.7,0.7-9.3,1.5-14,1.7c-3.5,0.1-7,0.6-10.5-0.5
		C122.9,157.8,120.3,157.4,117.6,156.8z"/>
	<path d="M150.2,120.3c-0.2,2.3-1.5,3.7-3.2,3.6c-1.6-0.1-3.1-2.1-2.9-4c0.2-1.9,1.5-3.3,2.9-3.3
		C148.8,116.8,150.3,118.4,150.2,120.3z"/>
	<path d="M127.4,121.3c0-1.5,1.3-2.8,2.9-2.8c1.5,0,3.4,2,3.3,3.7c0,1.5-1.6,3.4-2.9,3.4C129.3,125.7,127.4,123.3,127.4,121.3z"/>
	<path id="" d="M117.6,156.8c-0.8,2.4-1.5,4.5-2.2,6.7c-3.2,10.8-4.4,21.9-5.5,33c-0.8,8.7-1.5,17.4-2.2,26.2
		c-0.1,1,0.3,2.1,0.4,3c7.2,0.3,14.1,0.7,20.9,0.9c6.3,0.2,12.7,0.4,19,0.5c3.9,0.1,7.9,0.1,11.8,0.1c8.4,0.1,16.7,0.3,25.1,0.4
		c0.7,0,1.3-0.2,1.9-0.3c1.5-23.4-2-63.2-8.7-82.4c-0.4,0.3-0.8,0.6-1.2,0.9c-8,6.2-17.2,9.9-27.1,11.4c-4.7,0.7-9.3,1.5-14,1.7
		c-3.5,0.1-7,0.6-10.5-0.5C122.9,157.8,120.3,157.4,117.6,156.8z"/>
</g>
</svg>
