<?xml version="1.0" encoding="utf-8"?>
<!-- Generator: Adobe Illustrator 19.1.0, SVG Export Plug-In . SVG Version: 6.00 Build 0)  -->
<svg version="1.1" id="Calque_1" xmlns="http://www.w3.org/2000/svg" xmlns:xlink="http://www.w3.org/1999/xlink" x="0px" y="0px"
	 viewBox="0 0 285.2 249.4" style="enable-background:new 0 0 285.2 249.4;" xml:space="preserve">
<style type="text/css">
	.st0{fill:#E01220;}
	.st1{fill:#1F7CAD;}
	.st2{fill:#C0BFBF;}
	.st3{fill:#1F7CAD;stroke:#000000;stroke-width:2;stroke-miterlimit:10;}
	.st4{fill:#6DA3C3;}
	.st5{fill:none;stroke:#E01220;stroke-width:3;stroke-miterlimit:10;}
	.st6{fill:#F5FBF9;}
	.st7{fill:#1D1D1B;}
</style>
<g>
	<path d="M68.7,0.2c5.3,0,10.1,0,14.9,0C89.4,0.1,95.2,0,101,0c7,0,13.9,0.3,20.9,0.4c10.5,0.2,21,0.4,31.5,0.6
		c7.1,0.2,14.2,0.4,21.3,0.5c3,0,6-0.3,9-0.4c2.8-0.1,5.6,0,8.4-0.1c5.3-0.2,10.7-0.2,16-0.7c2.8-0.2,4.3,0.8,5.7,3
		c7.7,12.8,15.3,25.5,23.1,38.2c2.7,4.4,5.8,8.5,8.6,12.8c4.6,7.1,9.1,14.2,13.4,21.5c3.6,6.1,6.8,12.5,10.2,18.6
		c2.7,4.7,5.5,9.4,8.2,14.1c0.7,1.2,1.4,2.3,2,3.5c1.5,2.7,2.7,5.6,4.9,7.9c0.6,0.6,1.1,1.8,1,2.6c-0.2,2.1-0.5,4.1-1.6,6
		c-1.9,3.2-3.2,6.6-4.9,9.9c-1.8,3.4-3.8,6.7-5.8,10.1c-3.8,6.7-7.6,13.3-11.5,20c-2.1,3.6-4.2,7.2-6.3,10.8
		c-3.5,6.2-7,12.3-10.5,18.5c-7.1,12.5-14.2,25.1-21.2,37.6c-1.2,2.1-2.3,4.3-3.5,6.4c-1.3,2.3-2.8,4.6-3.9,6.6
		c-2.8,0.2-5.1,0.6-7.4,0.6c-6.3,0.2-12.5,0.3-18.8,0.3c-13.7,0-27.5,0.1-41.2,0c-7.2-0.1-14.3-0.6-21.5-0.8
		c-3.8-0.1-7.6,0.2-11.4,0.2c-7.3-0.2-14.7-0.6-22-0.7c-5.4-0.1-10.9,0.3-16.3,0.5c-1.2,0-2.5,0-3.8,0c-2,0-2.2-0.3-2.5-2.3
		c-0.2-1.1-0.4-2.3-1-3.2c-2.9-4.6-6.1-9-9-13.6c-4.7-7.7-9.2-15.5-13.9-23.3c-3.5-5.8-7.1-11.6-10.6-17.5
		c-7.4-12.6-14.8-25.3-22.2-38c-3.1-5.4-6.3-10.7-9.3-16.2c-1.9-3.4-3.5-6.9-5.2-10.3C21.6,81.7,46.1,41.2,68.7,0.2z M209.5,242.5
		c3.1-5.5,6.1-10.7,9-16c5.8-10.4,11.7-20.9,17.4-31.4c3.2-5.8,6-11.8,9.2-17.5c2.5-4.5,5.4-8.8,7.9-13.3c5-8.7,10-17.4,14.9-26.1
		c3.3-5.9,6.9-11.8,9-18.3c-0.1-0.3-0.2-0.5-0.3-0.8c-5-8.6-9.9-17.2-14.9-25.7c-5.6-9.6-11.3-19.1-17-28.6
		c-6.4-10.7-12.8-21.3-19.2-32c-2.5-4.1-5.1-8.1-7.6-12.1c-3.2-5.2-6.4-10.5-9.5-15.7c-0.8-1.4-1.8-1.6-3.4-1.5
		c-6.3,0.4-12.6,0.6-18.9,0.8c-3.2,0.1-6.4,0.3-9.5,0.4c-0.7,0-1.3,0.1-2,0.1c-7.1-0.3-14.1-0.6-21.2-0.8c-6.6-0.2-13.1,0-19.7-0.2
		c-4.5-0.1-8.9-0.4-13.4-0.5c-6-0.2-12-0.2-18-0.3c-4.6-0.1-9.1-0.3-13.7-0.2c-6,0.1-12,0.5-18.3,0.7c-3.7,6.7-7.6,13.5-11.4,20.4
		c-4.7,8.4-9.5,16.8-14.2,25.1c-5.8,10.1-11.6,20.2-17.3,30.4c-3.9,6.9-7.8,13.9-11.6,20.9c-3.9,7.3-7.7,14.6-11.5,21.9
		c-0.6,1.1-0.7,2.1-0.1,3.3c2.6,5,5,10.1,7.8,15c5,8.9,10.2,17.7,15.4,26.5c4.3,7.4,8.7,14.7,13.1,22.1
		c6.2,10.5,12.3,21.1,18.6,31.6c3.8,6.4,7.9,12.7,12,18.9c2.3,3.5,2.5,3.5,6.9,3.5c10.8,0,21.5-1.2,32.3-0.2
		c4.7,0.4,9.5,0.5,14.3,0.7c1.7,0.1,3.5,0.3,5.2,0.4c3.9,0.2,7.8,0.6,11.6,0.7c4.6,0.1,9.2,0,13.9,0c5.6,0,11.3,0.1,16.9,0
		c3.5-0.1,6.9-0.8,10.4-1c5.8-0.3,11.7-0.4,17.5-0.6C203.3,242.9,206.2,242.7,209.5,242.5z"/>
	<path d="M163.1,99.7c3.7,16.5,7.3,32.8,10.9,49.1c0.8,0.2,1.8,0.2,2.2,0.7c1.4,1.6,3.4,2,5.3,2.8c4.1,1.8,6.4,5.2,7.6,9.4
		c0.1,0.4,0.1,0.8,0.2,1.5c8-0.9,15.9-1.8,23.6-2.7c1.5,1.6,1.9,3,2,4.6c0.1,5.8,0.8,11.6,0.4,17.4c-0.4,6.5,0.4,13,0.4,19.5
		c0,0.7,0,1.4,0,2c-0.4,4-1.1,4.3-4.9,5.8c-7.5,3-15.3,2.4-23,3.4c-4.6,0.6-9.2,1.3-13.8,1.9c-2.7,0.3-5.4,0.6-8.1,0.9
		c-3.7,0.4-7.5,0.8-11.2,1.3c-0.8,0.1-1.6,0.5-3.1,1c1.7,0.4,2.7,0.7,3.7,0.9c2.1,0.4,2.8,1.1,2.6,3.1c-0.2,1.8-0.7,3.6-1.1,5.3
		c-2,0.4-3.5,0.3-5.3-0.5c-1.4-0.7-3.2-0.6-4.8-0.9c-3.1-0.6-6.3-1.2-9.4-1.9c-2.5-0.6-2.8-1.2-2.8-3.9c0-3.8-0.1-7.6,0.1-11.3
		c0.2-3.1,0.9-6.1,1.3-9.2c0.1-0.7,0.2-1.3,0.3-2.1c-6.4-0.4-12.6-0.8-19.1-1.2c0.1,1,0.2,2,0.4,3c0.9,4.3,0.4,8.7,1.7,13
		c0.5,1.6,0.1,3.5-0.2,5.2c-0.1,0.9-0.5,1.6-1.7,2c-5.2,1.7-10.4,3.1-15.8,3.8c-0.9,0.1-1.8,0-2.6,0.1c-1.6,0.2-2.4-0.6-2.8-2
		c-0.1-0.5-0.3-0.9-0.5-1.4c-1.3-2.9-0.8-4.5,2.2-5.3c4.9-1.3,9.8-2.4,14.7-3.6c1-0.2,2-0.5,3.1-0.7c-0.4-4.3-0.8-8.4-1-12.4
		c-0.1-1.7-0.8-2.4-2.4-2.6c-3.4-0.5-6.7-1.3-10-1.7c-6.1-0.7-11.6-3-17.4-4.9c-0.1,0-0.2-0.1-0.3-0.1c-5.1-2-5.8-3.5-4.7-8.9
		c0.9-4.4,1.5-8.8,2.1-12.8c-1.2-1.1-2.3-1.9-3-2.9c-0.9-1.2-0.5-2.5-0.1-3.9c0.4-1.5,0.5-3.1,0.7-4.6c0.1-0.6,0.1-1.2,0.3-1.7
		c1-4.3,1.7-4.9,6.2-4.8c0.7-2.3,1.5-4.6,2.3-7c3.4-11.2,6.8-22.3,10.2-33.5c0.6-2,1.5-4,2.2-6c0.3-1,0.5-2,0.8-3.1
		c-1.4-0.7-2.7-1.4-4-2.1c-4.3-2.3-7-6-9.6-9.9C81.4,78.3,78.9,68,81,56.7c0.5-2.7,1.2-5.5,2.4-8.1c3-6.4,6.3-12.8,12.1-17.3
		c2.8-2.1,5.7-4.1,8.9-5.4c7.4-3,14.9-5.5,22.7-7.2c0.7-0.1,1.3-0.3,2-0.3c4-0.2,7.9-0.4,11.9-0.5c4.5-0.1,8.6,1.3,12.5,3.4
		c4.4,2.5,8.8,5,13,7.9c6.8,4.6,11.4,11,14.8,18.4c1.8,3.9,2.3,8.2,3.2,12.3c1,4.7,0.4,9.3-0.5,13.9c-1,4.5-3.2,8.6-6.2,12.1
		c-3.2,3.6-6.1,7.5-10.1,10.4C166.1,97.2,164.7,98.4,163.1,99.7z M138.1,20.9c-5.3,0.7-10.6,1.2-15.8,2.3c-4.3,1-8.5,2.8-12.7,4.2
		c-6.2,2.1-11.7,5.2-15.9,10.3c-1.8,2.2-3.2,4.6-4.7,7c-3.2,5.1-5.3,10.5-5.7,16.6c-0.3,5.6-0.2,11.1,2.2,16.2
		c1.1,2.4,2.2,4.8,3.5,7.1c2.7,4.7,6.3,8.5,11.2,10.7c10.5,4.8,21.5,7,33,7.1c6.5,0,12.7-1.3,19-2.9c5.4-1.4,10.6-3.5,14.7-7.4
		c3.3-3.2,6.4-6.5,9.3-10c2.5-3.1,4.4-6.7,5.2-10.7c0.8-3.9,0.8-7.8,0.3-11.9c-1.5-11.3-6.6-20.5-15.8-27.2
		c-3.8-2.8-8.2-4.9-12.2-7.4C148.9,22.1,143.8,20.6,138.1,20.9z M160.3,165.4c1.7-3.1,3.1-5.6,4.6-8.1c0.5-0.8,0.7-1.4,0.6-2.4
		c-0.5-3.5-0.9-6.9-1.3-10.4c-0.9-8-1.7-16-2.6-24c-0.4-3.4-0.9-6.7-1.3-10c-4.2-1.8-8.3-0.2-12.3,0c-2.8,0.2-5.5,0.8-8.3,0.9
		c-5.2,0.2-10.3,0.2-15.5,0c-3.9-0.1-7.9-0.5-11.8-1.1c-3.3-0.5-6.6-1.3-10.1-2.1c-7.6,25.1-16.6,49.8-19.6,76
		c0.6,0.3,1.1,0.7,1.6,0.9c7.5,3,15.3,5.1,23.3,6.3c6,0.9,12.2,1.3,18.2,1.9c6.3,0.6,12.6,0.9,19.1-1.1c-0.8-8.2-1.6-16.4-2.5-24.7
		C148.8,166.9,154.8,166.1,160.3,165.4z M211.9,163.9c-22.2,2.9-44.4,3.3-66.2,6.6c0.9,8,1.7,15.8,2.6,23.9c4.6-0.5,9.2-1.1,14-1.7
		c0-0.9,0-1.6,0-2.4c-0.1-3.3,0.8-4.1,4-4.2c0.6,0,1.2,0,1.8,0c2.1,0,3,0.8,2.9,3c0,0.9-0.1,1.8-0.2,2.8c6.2-0.8,12.2-0.1,17.9-1.8
		c0-2.2,0-4,0-5.7c2.6-0.4,4.9-0.8,7.5-1.2c2.4,1.6,0.1,4.5,1.5,6.6c4.7-0.6,9.4-1.2,13.9-1.8C213,180,212.4,172.2,211.9,163.9z
		 M189.5,194.2c-0.4-0.2-0.5-0.3-0.7-0.3c-5,0.2-9.9,0.4-14.8,0.7c-1.1,0.1-2.2,0.5-3.4,0.8c0.1,1.8,0.3,3.3,0.4,5.1
		c-1.8,0.5-3.5,1.1-5.3,1.5c-1.5,0.4-2.5-0.4-2.9-1.8c-0.4-1.3-0.6-2.6-0.9-4.1c-4.6,0.6-9.1,1.1-13.5,1.7
		c-0.6,4.3,0.1,14.2,1.2,17.2c2.7-0.4,5.5-0.8,8.3-1.1c5.7-0.7,11.4-1.3,17.1-1.9c8.6-1,17.2-1.8,25.7-3c3.3-0.5,6.5-1.6,9.8-2.6
		c1.2-0.4,2-1.3,1.9-2.6c-0.1-4-0.3-8.1-0.4-12.4c-5,0.7-9.7,1.4-14.6,2c0.1,2,0.2,3.8,0.3,5.6c-1.5,0.6-2.7,1.1-4,1.5
		c-2.3,0.8-3.2,0.3-3.7-2.1C189.8,197,189.7,195.5,189.5,194.2z M137.3,215.3c2.9,0.9,5.6,2.4,8.9,2.3c-0.5-7.2-0.9-14.2-1.4-21.3
		c-2.3,0.5-4.2,0.9-6.1,1.4C137.9,203.5,136.7,209.3,137.3,215.3z M171.4,158.2c-2.5,1.9-2,4.1-1.3,6.4c4.7-0.5,9.4-0.9,14.1-1.4
		c0-3.4-1.4-5.3-4.3-6.2c-0.4,1.9,1.7,4-0.5,5.7C173.1,163.4,173.7,163,171.4,158.2z M166.1,129.1c-0.1,0.1-0.2,0.1-0.3,0.2
		c0.4,3.9,0.8,7.9,1.3,11.8c0.5,3.9,1.1,7.8,1.7,11.7c2.2-1.1,2.2-1.1,1.7-3.6C169.1,142.5,167.6,135.8,166.1,129.1z M191.1,187.2
		c0.5,3.5,0.9,6.8,1.4,10.2c1-0.1,1.7-0.2,2.5-0.3c-0.2-3.4-0.3-6.7-0.5-10.2C193.3,187,192.4,187.1,191.1,187.2z M168,198.2
		c0-3.2,0-6.1,0-9.1c-1.2,0.2-2.2,0.3-3.2,0.5c0.1,3.2,0.3,6.2,0.4,9.3C166.4,198.6,167.2,198.4,168,198.2z"/>
	<path d="M122.2,70.5c2.2,1.2,3.2,2.8,2.7,4.8c-0.2,0.8-0.9,1.7-1.7,2c-0.5,0.2-1.6-0.4-2.1-0.9C119.3,74.5,119.8,72.1,122.2,70.5z"
		/>
	<path d="M143.7,75.8c-0.1,1.5-0.9,2.4-2.4,2.3c-1.5,0-2.9-1.6-2.9-3.1c0-1.5,1.3-3.2,2.5-3.2C142.2,71.9,143.7,74,143.7,75.8z"/>
	<path id="" d="M160.3,165.4c1.7-3.1,3.1-5.6,4.6-8.1c0.5-0.8,0.7-1.4,0.6-2.4c-0.5-3.5-0.9-6.9-1.3-10.4
		c-0.9-8-1.7-16-2.6-24c-0.4-3.4-0.9-6.7-1.3-10c-4.2-1.8-8.3-0.2-12.3,0c-2.8,0.2-5.5,0.8-8.3,0.9c-5.2,0.2-10.3,0.2-15.5,0
		c-3.9-0.1-7.9-0.5-11.8-1.1c-3.3-0.5-6.6-1.3-10.1-2.1c-7.6,25.1-16.6,49.8-19.6,76c0.6,0.3,1.1,0.7,1.6,0.9
		c7.5,3,15.3,5.1,23.3,6.3c6,0.9,12.2,1.3,18.2,1.9c6.3,0.6,12.6,0.9,19.1-1.1c-0.8-8.2-1.6-16.4-2.5-24.7
		C148.8,166.9,154.8,166.1,160.3,165.4z"/>
	<path id="" d="M191.1,187.2c0.5,3.5,0.9,6.8,1.4,10.2c1-0.1,1.7-0.2,2.5-0.3c-0.2-3.4-0.3-6.7-0.5-10.2
		C193.3,187,192.4,187.1,191.1,187.2z"/>
	<path id="" d="M168,198.2c0-3.2,0-6.1,0-9.1c-1.2,0.2-2.2,0.3-3.2,0.5c0.1,3.2,0.3,6.2,0.4,9.3
		C166.4,198.6,167.2,198.4,168,198.2z"/>
</g>
</svg>
