<?xml version="1.0" encoding="utf-8"?>
<!-- Generator: Adobe Illustrator 19.1.0, SVG Export Plug-In . SVG Version: 6.00 Build 0)  -->
<svg version="1.1" id="Calque_1" xmlns="http://www.w3.org/2000/svg" xmlns:xlink="http://www.w3.org/1999/xlink" x="0px" y="0px"
	 viewBox="0 0 216.4 269.9" style="enable-background:new 0 0 216.4 269.9;" xml:space="preserve">
<style type="text/css">
	.st0{fill:#72B52B;}
	.st1{fill:#71519B;}
	.st2{fill:#C0BFBF;}
	.st3{fill:#EDE5F2;}
	.st4{fill:none;stroke:#72B52B;stroke-width:4;stroke-linecap:round;stroke-miterlimit:10;}
	.st5{fill:none;stroke:#71519B;stroke-width:4;stroke-linecap:round;stroke-miterlimit:10;}
	.st6{fill:#6EA1C1;}
	.st7{fill:#BFBEBE;}
	.st8{fill:#55358A;}
	.st9{fill:#FFFFFF;}
	.st10{fill:#FFFFFF;stroke:#71519B;stroke-width:3;stroke-miterlimit:10;}
	.st11{fill:#FFFFFF;stroke:#72B52B;stroke-width:3;stroke-miterlimit:10;}
	.st12{fill:none;stroke:#FFFFFF;stroke-width:3;stroke-miterlimit:10;}
	.st13{fill:#F2BF00;}
</style>
<g>
	<g>
		<path d="M0.1,2.6c0.9-1.1,2-1.9,4-1.9c4.7,0.1,9.3-0.1,14-0.1c9.9-0.1,19.8-0.3,29.6-0.1c8,0.1,15.9,0.7,23.9,0.9
			c5.2,0.1,10.3-0.1,15.5,0c9,0.3,18,0.5,26.9,1.3c9.6,0.8,19.3,0.3,28.9,0.1c11.4-0.2,22.7-0.9,34.1-1.1c5-0.1,23.5,0.1,27-1.3
			c4.3-1.8,6.6,2.5,8.3,7c2.8,7.7,3.4,15.9,3.9,23.9c0.6,8.3-0.1,16.7-0.1,25c0,5.7,0.2,11.3,0.1,17c-0.2,10.6-0.9,21.3-0.8,31.9
			c0.1,12.9-2,25.7-1.3,38.7c0.4,6.8-0.5,13.6-0.7,20.5c-0.2,5-0.2,10.1-0.4,15.1c-0.1,2.9-0.6,5.8-0.7,8.7
			c-0.3,7.2-0.5,14.4-0.6,21.6c0,3.7,0.6,7.3,0.8,11c0.3,8.1,0.5,16.2,0.8,24.3c0.2,3.5,0.7,7.1,1.1,10.6c0.6,5-1.2,8-6.2,8.8
			c-6,0.9-12,1.7-18,2.1c-9.4,0.6-18.9,0.7-28.4,1.3c-10.3,0.6-20.7,1.6-31,2.1c-6.2,0.3-12.4,0.2-18.6,0.1
			c-10.2-0.2-20.4-0.3-30.6-0.7c-11.4-0.5-22.7-1.3-34.1-1.9c-10.2-0.5-20.4-0.7-30.6-1.5c-4.8-0.4-9.4-1.8-14.2-2.5
			c-2.2-0.3-2.8-1.4-2.8-3.2c0-4.2-0.2-8.4,0-12.6c0.2-6.3,0.5-12.6,0.9-18.9c0.5-8.8,0.1-17.7,0.6-26.5c0.5-7.7,0.9-15.4,1.4-23.1
			c0.5-9.2,1-18.4,1.6-27.6C5,143.9,4.8,50.8,4,43.4C3.3,36.7,1.2,9.8,0.1,2.6z M40.6,102.9c0-1.5,0-2.9,0.1-4.3
			c0.4-6.9,0.9-13.7,4.8-19.7c1-1.5,1.8-3,4-3c0.7,0,1.6-0.7,2.1-1.3c2.6-2.8,4.9-5.8,7.6-8.5c2.8-2.8,5.6-5.6,8.8-7.7
			C79,51.5,91,48.5,103.7,47.5c15.6-1.3,28.3,1.2,35.4,3.7c9.2,3.3,17.5,8.5,25.3,14.5c0.9,0.7,1.8,1.4,2.9,1.7
			c5.3,1.6,10,4.3,13.7,8.3c2.3,2.5,3.8,5.6,5.9,8.6c0.9-1.1,1.7-2.1,2.7-3.1c1.7-1.7,5-1.5,5.9,0.5c1.1,2.4,2.2,4.9,2.4,7.5
			c0.2,3.9-0.4,7.8-0.6,12c4.9,1.6,7.1,5.7,7.2,10.9c0.1,3.2-0.4,6.6-1.4,9.7c-2.2,7-3.7,14.9-8.1,20.3
			c-4.4,5.4-14.4,18.5-23.4,22.9c-2.3,1.2-4.4,2.8-6.8,4.3c4.3,14.5,8.6,28.8,13,43.4c3-0.7,6-1.5,8.9-2.2c5.8-1.4,11.2-4,16.2-7.3
			c2.1-1.4,3.1-2.9,3.1-5.6c-0.1-6.3,0.2-12.7,0.3-19c0.3-10.2,0.6-20.5,1-30.7c0.2-4.9,0.2-9.9,0.7-14.8c1.3-13.6,2-27.3,2.1-40.9
			c0-2.7,0-5.3,0.1-8c0.2-7,0.9-13.9,0.7-20.9c-0.3-10.3-1-20.5-1.7-30.8c-0.3-5-1.3-24.1-3.3-26S183,6.4,178.9,6.4
			c-11.5,0.2-23,0.8-34.5,1.1c-6.8,0.2-13.7,0.4-20.5,0.2c-6.4-0.2-12.9-1.1-19.3-1.3C94.4,6.1,84.3,6.1,74.2,5.9
			c-2.9-0.1-5.8,0-8.7-0.1c-9.5-0.3-19-0.8-28.4-1c-6.8-0.1-13.7,0.3-20.5,0.5C12.7,5.5,8.9,5.6,5,5.7c0.3,2.1,0.6,4.1,0.9,6.1
			C6.7,17.5,6.6,23.3,7.4,29c2.9,22.7,1.9,116.1,0.1,144.7c-0.1,2.9,0.1,5.8-0.1,8.7c-0.2,3.4-0.8,6.7-1.1,10.1
			c-0.6,8.2-0.2,16.4-0.6,24.6c-0.5,11.2-0.8,22.5-1.2,33.8c-0.1,2.2-0.2,4.4-0.2,6.8c3.4,0.2,6.4,0.4,9.4,0.5
			c0.6-2.5,1.2-4.6,1.7-6.6c7.8-0.2,15.1-0.5,22.6-0.7c10.5-26.6,21.2-53.5,31.9-80.6c-3.5-1.9-6.7-3.6-9.8-5.4
			c-7-3.9-16.3-13.2-18.6-16.5c-2.3-3.3-4.9-11.2-5.5-14.8c-0.7-4.4-0.9-8.8-1.5-13.2c-0.6-4.3-0.1-8.6,0.8-12.8
			c0.3-1.6,0.6-3.1,0.9-5C37.5,102.7,38.8,102.8,40.6,102.9z M47.7,150.4c1.6,1.6,3.1,3.5,4.9,4.9c6.1,4.7,12.9,8.4,20.1,11.4
			c18,7.3,36.9,9.5,56.1,8c6.3-0.5,12.6-2.5,18.8-4.2c7.9-2.2,15.7-4.9,22.6-9.6c4-2.7,7.7-5.7,11.2-8.3c-1.8-1.9-3.7-3.5-5-5.4
			c-2.2-3.2-4.2-6.6-6-10.1c-2.2-4.3-3.5-9-2.7-13.9c0.3-1.7-0.5-2.9-1.3-4.2c-3.5-6-5.4-12.4-5.2-19.5c0.1-3,0.6-5.1,3.6-6.3
			c-4.1-7.7-4-15.5-1.4-23.8c-4.5-2.8-8.9-5.6-13.2-8.4c-6.6-4.3-13.9-6.5-21.5-8.3c-5.7-1.3-11.5-0.9-17.3-1
			c-8.5-0.1-16.9,0.7-25.1,3.3c-8.3,2.6-16,6.1-22.2,12.5c-1.8,1.9-3.8,3.7-5.6,5.6c-1.5,1.6-2.8,3.5-3.9,5c0.9,2.2,1.6,3.9,2.2,5.5
			c2.9-2.5,5.5-5.1,8.4-7.3c4.2-3.1,8.6-5.7,14-6.4c1.5-0.2,2.7,0.1,3.9,0.9c2.5,1.7,2.3,4,1.7,6.4c-1.3,5.9-3.9,11.2-7.2,16.2
			c-0.7,1-1.3,2-2.2,3.5c1.9,0,3.2,0,4.4,0.1c1.9,0.1,4.9,1.9,4.9,3.4c0,2-0.2,4.1-1,5.9c-0.9,2-2.7,3.7-3.8,5.7
			c-1.8,3.3-5,5.8-5.8,9.7c-0.3,1.4-0.5,2.7-1,4c-2.8,7-7.2,12.7-13.5,17C55.8,145.3,51.9,147.7,47.7,150.4z M44.6,260.3
			c38.4,2.5,76.6,1.4,115.4-1.4c1.3-4.4,3.2-8.8,3.8-13.3c1.3-9.8,0.3-19.4-3.4-28.7c-0.5-1.2-0.9-2.3,0.2-3.7
			c2.8,2,5.6,1.9,8.8,0.5c-2.6-10.8-5.1-21.4-7.6-32c-15.1,3.9-29.8,5.8-44.8,6c-15,0.2-29.6-2.1-44.2-6.6
			C63.4,207.5,54,233.8,44.6,260.3z M167.8,250.4c8.4-6.8,31.4-34.7,32.8-40c-11.1,6-23.3,7-35.1,9.3
			C168.3,230.8,169.1,235.8,167.8,250.4z M59.9,102.9c1.8-1,3.3-2,4.9-2.5c2.3-0.8,3.9-2.2,4.9-4.4c3-6,5.9-12,8.8-18.1
			c0.6-1.2,0.7-2.5,1-3.7c-0.6-0.2-0.7-0.4-0.8-0.3c-8.2,2.5-14.4,7.8-19.8,14.1c-0.4,0.4-0.7,1.1-0.6,1.7
			C58.8,93.9,59.4,98.1,59.9,102.9z M80.1,100.9c-2,0.1-3.7-0.1-5.2,0.2c-8.4,1.9-15.3,5.9-20.5,13.1c-2.9,3.9-2,7.3-1.2,11.9
			c7.1-5.2,13.7-9.8,20-14.9C76.4,108.7,79,105.4,80.1,100.9z M166.9,71.7c-2.3,6.1-2.1,14.5,0.6,19.5c0.5,1,1.6,1.9,2.6,2.5
			c2.6,1.5,5.2,2.8,7.8,4.1c0.7-1.6,1.5-3.3,2.3-5c0.3-0.6,0.5-1.4,0.5-2.1C179.6,81.8,173.4,76.8,166.9,71.7z M172.5,121.4
			c-2.5,7.6,4.2,23.8,11,27.5c1.6-1.8,3.7-3.4,2.9-6.4C184.1,134,180,126.8,172.5,121.4z M197.3,107c-5,3.3-10.9,11.9-11.5,16.8
			c-0.1,0.9,0.4,1.9,0.8,2.7c1.8,2.9,3.6,5.7,5.6,8.7C196.2,126.2,199.5,117.2,197.3,107z M49.7,113c3.2-2.2,4.2-4.8,3.4-8.3
			c-0.3-1.3-0.2-2.8-0.2-4.2c0.1-6.5-0.9-12.8-4.1-19.1c-0.8,1.6-1.7,3-2.1,4.5c-1.7,6-2.4,12.2-1.9,18.4c0.1,0.8,0.4,1.7,0.8,2.4
			C47,108.8,48.3,110.8,49.7,113z M169.6,116.9c2.5-1.4,5-1,7.1,0.1c2.1,1,3.8,2.7,5.7,4c1.9-2.5,1.6-4.9-0.5-7.1
			c-0.8-0.8-1.2-1.9-1.8-2.9c-3.3-5.6-8.4-8.5-14.9-9.9C164.4,107,166.8,111.8,169.6,116.9z M45.4,145.1c0.5-2.5,1.1-4.1,1.2-5.9
			c1-9.4-1.2-18.1-5.2-26.5c-0.5-1-0.7-2.4-2.2-3C37.8,122.1,38.7,133.7,45.4,145.1z M191.9,84.5c-4.2,3.7-7.2,7.3-9.1,11.6
			c-1.3,3.1-2.1,6.1,1,8.8c1,0.9,1.7,2.1,2.7,3.3C190.2,100.8,193.4,93.7,191.9,84.5z M52.9,133.2c-0.2,1.1-0.4,2.4-0.5,3.6
			c-0.1,1.1-0.1,2.3-0.2,3.9c5.8-3.7,9.6-8.2,12.7-14.3C60.6,128.8,56.8,131,52.9,133.2z"/>
		<path d="M129.8,142.6c-2.6,0-4.1-1.8-5.3-3.9c-1.2-2.2-0.9-4.7,0.7-6.3c0.4-0.4,1-0.8,1.6-0.9c2.8-0.8,6.7,0.6,8.5,2.9
			c2.1,2.7,0.9,6.5-2.3,7.6C132,142.2,131,142.4,129.8,142.6z"/>
		<path d="M98.6,141c-2.7,0.1-5.9-2.9-6-5.8c-0.1-2.2,2.4-5.2,4.5-5.4c2.2-0.2,6.9,3.9,7.1,6.1C104.3,138.3,101.6,140.9,98.6,141z"
			/>
	</g>
	<path id="" class="st0" d="M44.6,260.3c38.4,2.5,76.6,1.4,115.4-1.4c1.3-4.4,3.2-8.8,3.8-13.3c1.3-9.8,0.3-19.4-3.4-28.7
		c-0.5-1.2-0.9-2.3,0.2-3.7c2.8,2,5.6,1.9,8.8,0.5c-2.6-10.8-5.1-21.4-7.6-32c-15.1,3.9-29.8,5.8-44.8,6c-15,0.2-29.6-2.1-44.2-6.6
		C63.4,207.5,54,233.8,44.6,260.3z"/>
	<path id="" class="st0" d="M59.9,102.9c1.8-1,3.3-2,4.9-2.5c2.3-0.8,3.9-2.2,4.9-4.4c3-6,5.9-12,8.8-18.1c0.6-1.2,0.7-2.5,1-3.7
		c-0.6-0.2-0.7-0.4-0.8-0.3c-8.2,2.5-14.4,7.8-19.8,14.1c-0.4,0.4-0.7,1.1-0.6,1.7C58.8,93.9,59.4,98.1,59.9,102.9z"/>
	<path id="" class="st0" d="M80.1,100.9c-2,0.1-3.7-0.1-5.2,0.2c-8.4,1.9-15.3,5.9-20.5,13.1c-2.9,3.9-2,7.3-1.2,11.9
		c7.1-5.2,13.7-9.8,20-14.9C76.4,108.7,79,105.4,80.1,100.9z"/>
	<path id="" class="st0" d="M166.9,71.7c-2.3,6.1-2.1,14.5,0.6,19.5c0.5,1,1.6,1.9,2.6,2.5c2.6,1.5,5.2,2.8,7.8,4.1c0.7-1.6,1.5-3.3,2.3-5
		c0.3-0.6,0.5-1.4,0.5-2.1C179.6,81.8,173.4,76.8,166.9,71.7z"/>
	<path id="" class="st0" d="M172.5,121.4c-2.5,7.6,4.2,23.8,11,27.5c1.6-1.8,3.7-3.4,2.9-6.4C184.1,134,180,126.8,172.5,121.4z"/>
	<path id="" class="st0" d="M197.3,107c-5,3.3-10.9,11.9-11.5,16.8c-0.1,0.9,0.4,1.9,0.8,2.7c1.8,2.9,3.6,5.7,5.6,8.7
		C196.2,126.2,199.5,117.2,197.3,107z"/>
	<path id="" class="st0" d="M49.7,113c3.2-2.2,4.2-4.8,3.4-8.3c-0.3-1.3-0.2-2.8-0.2-4.2c0.1-6.5-0.9-12.8-4.1-19.1
		c-0.8,1.6-1.7,3-2.1,4.5c-1.7,6-2.4,12.2-1.9,18.4c0.1,0.8,0.4,1.7,0.8,2.4C47,108.8,48.3,110.8,49.7,113z"/>
	<path id="" class="st0" d="M169.6,116.9c2.5-1.4,5-1,7.1,0.1c2.1,1,3.8,2.7,5.7,4c1.9-2.5,1.6-4.9-0.5-7.1c-0.8-0.8-1.2-1.9-1.8-2.9
		c-3.3-5.6-8.4-8.5-14.9-9.9C164.4,107,166.8,111.8,169.6,116.9z"/>
	<path id="" class="st0" d="M45.4,145.1c0.5-2.5,1.1-4.1,1.2-5.9c1-9.4-1.2-18.1-5.2-26.5c-0.5-1-0.7-2.4-2.2-3
		C37.8,122.1,38.7,133.7,45.4,145.1z"/>
	<path id="" class="st0" d="M191.9,84.5c-4.2,3.7-7.2,7.3-9.1,11.6c-1.3,3.1-2.1,6.1,1,8.8c1,0.9,1.7,2.1,2.7,3.3
		C190.2,100.8,193.4,93.7,191.9,84.5z"/>
	<path id="" class="st0" d="M52.9,133.2c-0.2,1.1-0.4,2.4-0.5,3.6c-0.1,1.1-0.1,2.3-0.2,3.9c5.8-3.7,9.6-8.2,12.7-14.3
		C60.6,128.8,56.8,131,52.9,133.2z"/>
</g>
</svg>
