<?xml version="1.0" encoding="utf-8"?>
<!-- Generator: Adobe Illustrator 15.0.2, SVG Export Plug-In . SVG Version: 6.00 Build 0)  -->
<!DOCTYPE svg PUBLIC "-//W3C//DTD SVG 1.1//EN" "http://www.w3.org/Graphics/SVG/1.1/DTD/svg11.dtd">
<svg version="1.1" id="Layer_1" xmlns="http://www.w3.org/2000/svg" xmlns:xlink="http://www.w3.org/1999/xlink" x="0px" y="0px"
	 viewBox="0 0 250 247.663" enable-background="new 0 0 250 247.663" xml:space="preserve">
<path id="ttt" fill-rule="evenodd" clip-rule="evenodd" fill="#E3BA6B" d="M243.927,4.306c-1.671,4.596,0.601,9.256-0.187,14.172
	c-0.204,1.277-0.957,1.98-1.119,2.984c-0.746,4.631,0.058,10.32-0.187,15.478c-0.472,9.981,0,19.972,0,30.583
	c0,5.232-0.556,10.724,0,15.478c0.138,1.177,0.922,2.216,1.119,3.356c0.533,3.078-0.435,7.486,0,11.562
	c0.132,1.235,0.785,2.375,0.933,3.543c0.675,5.373,0,12.893,0,19.208c0,6.424,0.813,13.573,0,19.021
	c-0.151,1.015-0.773,1.704-0.933,2.611c-0.358,2.043,0.221,4.455,0,6.713c-0.144,1.474-0.938,2.855-1.119,4.289
	c-0.271,2.146,0.264,4.276,0,6.341c-0.126,0.989-0.786,2-0.933,2.983c-0.619,4.184,0.663,8.35,0,12.121
	c-0.226,1.284-0.925,1.615-1.118,2.611c-0.597,3.064,0,7.355,0,11.375c0,3.729-0.46,7.898,0,11.188
	c0.156,1.119,0.937,2.056,1.118,3.17c0.213,1.301-0.201,2.7,0,3.917c0.147,0.884,0.783,1.624,0.933,2.424
	c0.405,2.167-0.26,4.827,0,6.899c0.152,1.211,0.947,2.316,1.119,3.543c0.271,1.938-0.234,3.898,0,5.781
	c0.132,1.06,0.771,1.929,0.933,2.983c0.552,3.609-0.343,7.246,0,10.63c0.178,1.754,1.645,3.607,1.118,5.408
	c-0.857,0.396-3.965-0.118-5.594-0.187c-0.886-0.123,0.558-0.688,0.56-1.119c-2.353,0.843-4.994,1.084-7.46,0.933
	c-1.362-0.084-2.736-0.799-4.103-0.933c-2.268-0.222-4.567,0.217-6.713,0c-2.646-0.268-5.514-1.44-9.324-0.933
	c-0.971,0.13-1.688,0.74-2.797,0.933c-1.558,0.27-3.261-0.203-4.849,0c-1.108,0.142-2.15,0.797-3.17,0.933
	c-1.911,0.253-3.766-0.123-5.595,0c-1.577,0.105-3.001,0.881-4.662,1.119c-2.426,0.346-5.51,0-8.392,0
	c-5.633,0-9.693-0.202-13.986-1.306c-1.869-0.48-3.759-0.788-5.594-1.119c-4.364-0.786-8.603-0.333-12.867-0.746
	c-1.884-0.182-3.591-1.003-5.408-1.118c-2.127-0.136-4.252,0-6.526,0c-4.208,0-8.806-0.549-13.054,0
	c-1.218,0.156-2.345,0.952-3.544,1.118c-4.51,0.625-9.056-0.45-13.613,0c-1.201,0.119-2.3,0.768-3.543,0.933
	c-3.143,0.416-7.003,0.299-10.256,0c-1.342-0.123-2.583-0.777-3.916-0.933c-2.826-0.327-6.167,0.334-9.324,0
	c-1.515-0.16-2.894-0.945-4.289-1.118c-4.879-0.605-10.557,0-16.037,0c-10.666,0-21.246,0-32.075,0c-5.428,0-11.232-0.729-15.851,0
	c-0.858,0.135-1.51,0.892-2.61,1.118c-2.032,0.419-4.36-0.313-6.527,0c1.607-11.122,1.566-24.019,1.492-37.855
	c-0.017-3.183-0.597-6.422-0.746-9.697c-0.158-3.491,0.294-7.062,0-10.256c-0.195-2.124-1.118-4.372-1.305-6.714
	c-0.425-5.332,0.415-10.72,0.56-15.664c-0.016,3.392,0.803,5.863,2.051,8.392c2.24,4.536,6.774,10.021,12.121,10.816
	c2.743,0.407,6.775-0.513,8.765,1.118c1.197,0.982,1.862,4.277,1.492,6.527c-0.559,3.399-5.002,6.822-2.983,11.375
	c1.274,2.875,5.62,3.016,8.578,1.492c1.807-0.931,2.863-3.051,4.662-4.289c1.867-1.285,5.023-2.755,7.459-2.798
	c2.021-0.035,5.02,1.463,7.086,2.425c3.746,1.743,7.738,4.401,11.562,6.526c1.324,0.736,2.358,1.754,3.543,2.425
	c3.581,2.025,7.785,3.428,11.935,5.222c2.021,0.873,3.833,1.928,5.967,2.61c8.368,2.676,15.946,6.881,23.31,10.815
	c1.966,1.051,4.154,1.555,5.781,2.611c1.477,0.959,2.504,2.74,4.103,2.797c1.499,1.155,2.122,4.032,4.662,4.849
	c2.414,0.776,8.082,0.628,11.002,0.187c1.862-0.281,3.545-1.454,4.103-2.425c3.674,5.855,7.558-3.309,11.936-3.916
	c4.027,0.397,5.498,7.869,9.883,8.205c1.969,0.151,5.821-2.486,8.019-3.916c2.624-1.705,4.839-3.261,7.273-4.476
	c5.503-2.746,10.62-5.974,13.799-9.696c1.182-1.384,1.657-2.794,2.425-3.729c2.303-2.809,6.109-5.607,9.324-7.273
	c7.295-3.778,16.129-6.739,15.851-17.901c4.175-1.014,5.831-3.262,8.951-6.527c2.706-2.832,5.908-4.644,7.646-8.205
	c1.146-2.348,1.813-5.411,2.797-8.205c0.979-2.782,2.014-6.307,2.052-8.951c0.038-2.631-0.431-5.266-0.373-7.832
	c0.125-5.553,0.271-13.181-0.373-21.259c-0.42-5.268-1.296-10.472-1.865-15.851c-0.366-3.464-1.309-7.067-1.864-10.629
	c-1.397-8.949-3.921-16.388-6.341-24.615c-0.477-1.623-1.27-3.701-1.305-4.849c-0.041-1.31,0.629-1.615,0.56-2.797
	c-0.072-1.22-1.815-4.436-2.611-5.595c-3.191-4.649-11.049-6.009-13.24-11.935c-0.211-4.061,0.289-7.771,0-11.189
	c-0.096-1.143-0.614-2.197-0.746-3.356c-0.092-0.817,0.108-1.803,0-2.611c-0.565-4.246-3.097-8.292-5.221-11.748
	c-3.955-6.434-9.54-12.106-19.021-13.054c-2.33-0.233-5.096,0.357-7.272,0.373c-2.432,0.017-5.075-0.555-7.646-0.746
	c-4.088-0.304-8.743,0.264-13.24,0c-8.345-0.49-16.167-0.198-24.056,0.373c-6.067,0.439-11.926,0.63-17.157,1.305
	c-1.11,0.144-2.2,0.706-3.17,1.306c-3.141-0.034-6.272,0.274-8.765,0.932c-4.714,1.245-7.159,4.609-10.816,7.273
	c-3.701,2.696-7.525,4.417-11.189,6.899c-0.208-5.25-5.545-2.616-4.103,2.424c-5.98,4.021-11.421,9.888-18.088,13.986
	c-3.374,2.073-7.744,3.712-9.697,7.086c-1.18,2.038-1.654,4.608-2.051,6.9c-0.435,2.51-0.344,5.333-1.119,7.832
	c-1.079,3.481-3.389,6.554-5.035,9.884c-1.626,3.288-3.359,6.826-5.408,9.51c-1.335,1.75-3.526,3.09-4.849,5.035
	c-1.109,1.631-1.984,4.028-3.356,6.154c-2.742,4.246-5.477,9.661-6.154,15.851c-0.334,3.054-0.142,5.425-0.373,8.206
	c-0.563,6.758-3.719,12.266-6.9,16.97c-1.597,2.36-3.083,4.798-4.849,7.086c-2.467,3.198-5.247,5.894-6.527,10.257
	c1.219-8.192,2.455-18.22,0.933-27.973c-0.313-2.005-1.086-4.033-1.305-6.153c-0.692-6.705,0.172-14.053,0-21.259
	c-0.333-13.894-0.059-27.935,0-41.399c0.015-3.522-0.129-7.012,0.373-10.256c0.46-2.972,1.441-5.791,1.679-8.765
	c0.398-4.997-0.217-10.123-0.373-15.105C6.495,17.523,6.767,10.613,5.978,3.933c6.112,0.6,12.445-0.554,18.648,0.187
	c1.188,0.142,2.352,0.782,3.543,0.933c2.162,0.273,4.952,0.279,7.086,0c1.027-0.134,1.978-0.789,2.984-0.933
	c1.87-0.267,3.729,0.207,5.594,0c1.31-0.145,2.551-0.957,3.916-1.119c3.561-0.423,7.727,0.17,12.122,0.186
	c3.936,0.015,8.181,0,12.308,0c8.944,0,18.302-0.948,26.48-0.186c1.572,0.146,3.121,0.946,4.662,1.119
	c3.914,0.438,7.98-0.435,11.562,0c1.393,0.169,2.725,1.022,4.103,1.119c6.175,0.433,13.082-0.346,19.767-0.186
	c2.057,0.049,3.733,0.889,5.594,1.119c7.428,0.917,15.035-0.762,22.191,0c1.348,0.144,2.593,0.937,3.916,1.119
	c3.129,0.431,7.962,0.444,10.816,0c0.979-0.152,1.82-0.931,2.797-1.119c3.747-0.723,8.149,0.555,12.121,0
	c1.233-0.172,2.396-1.012,3.543-1.119c4.438-0.415,9.51,0.083,14.173,0.186c4.71,0.104,9.929,0.663,14.359-0.186
	c1.003-0.192,1.854-0.782,2.797-0.933c0.93-0.148,1.996,0.12,2.983,0c1.846-0.225,3.245-0.75,5.035-0.56
	C240.645,3.727,242.09,4.631,243.927,4.306z"/>
<path fill-rule="evenodd" clip-rule="evenodd" d="M156.467,135.588c-1.082,1.044-3.006,0.212-4.475-0.186
	c-2.454-0.665-4.388-1.704-6.341-2.611c-1.312-0.609-2.719-0.639-4.103-1.119c-2.045-0.71-4.923-2.673-5.781-3.916
	c-0.761-1.102-1-2.848-0.932-4.475c0.269-0.104,0.455-0.291,0.559-0.56c0.125,0,0.249,0,0.373,0c4.626,1.796,8.856,4.417,12.867,6.9
	c1.477,0.914,2.887,2.396,4.476,3.17C154.452,133.444,156.563,133.524,156.467,135.588z M144.719,129.808
	c-2.136-1.407-4.907-3.173-7.272-3.729C139.346,127.722,141.951,129.652,144.719,129.808z"/>
<path fill-rule="evenodd" clip-rule="evenodd" d="M194.137,247.663c-6.589,0-13.179,0-19.768,0
	c-3.339-1.325-8.306-2.824-12.867-3.17c-3.103-0.235-6.467,0.413-10.069,0c-1.398-0.161-2.787-0.838-4.289-0.933
	c-2.895-0.184-6.291,0-9.511,0c-3.185,0-6.489-0.348-9.324,0c-1.235,0.151-2.46,0.821-3.729,0.933c-4.454,0.39-8.916-0.372-13.054,0
	c-1.56,0.14-3.021,0.956-4.476,1.118c-3.182,0.355-8.184,0.5-12.121-0.373c-4.447-0.985-8.166-0.278-11.935-0.745
	c-1.547-0.192-3.116-0.821-4.662-0.933c-9.752-0.702-20.556,0-31.142,0c-4.994,0-10.344,0-15.478,0c-5.318,0-10.877-0.661-15.478,0
	c-1.146,0.165-2.174,0.966-3.543,1.119c-4.046,0.452-9.224,0.279-12.308-0.933c0.823-4.829,0.971-9.913,1.305-15.105
	c0.695-10.786,0.69-21.041,0-31.888c-0.349-5.489,0.009-10.835-0.932-15.664c-1.687-8.654-0.271-20.451,1.492-29.65
	c1.438-7.509,1.39-15.446,0.373-23.124c-0.305-2.302-1.111-4.6-1.306-6.899c-0.608-7.202,0.33-14.543,0-21.632
	c-0.655-14.082,0-26.741,0-40.093c0-3.588-0.014-7.008,0.373-10.443c0.336-2.983,1.386-5.921,1.678-8.951
	c0.62-6.425,0.139-12.917-0.187-20.326C2.962,14.995,3.284,9.136,2.621,3.56C2.368,1.43,2.037,0.143,4.113,0.017
	C6.8-0.146,3.897,0.89,5.791,1.882c7.181,0.047,13.754-0.385,20.699,0.746c1.851,0.301,3.55,0.251,5.222,0.187
	c1.575-0.062,2.666-0.706,4.289-0.933c1.667-0.233,3.537-0.027,5.221-0.187c1.864-0.176,3.087-0.806,5.035-0.932
	c9.243-0.599,19.181,0,28.904,0c7.237,0,14.367-0.354,21.632,0c2.065,0.101,3.886,0.958,5.967,1.119
	c3.696,0.285,7.391-0.347,11.002,0c2.07,0.199,3.896,0.892,5.967,0.933c6.372,0.126,14.04-0.843,20.326,0.187
	c6.558,1.073,12.037,0.708,19.395,0.746c2.119,0.011,4.324-0.217,6.34,0c2.17,0.234,3.829,1.03,5.781,1.119
	c2.226,0.102,4.562,0.239,6.899,0c1.508-0.154,2.601-0.971,4.103-1.119c3.593-0.354,7.409,0.432,11.189,0
	c2.283-0.261,4.084-0.932,7.086-0.932c7.563,0,16.105,0.453,23.869,0c1.393-0.082,1.975-0.594,3.171-0.933
	c1.236-0.35,2.525-0.097,3.729-0.187c0.361-0.027,1.206-0.593,1.491-0.56c0.324,0.038,0.597,0.695,1.119,0.746
	c1.211,0.119,2.42-0.273,3.729-0.187c1.632,0.108,3.21,0.665,5.035,0.746c1.75,0.078,3.407,0.27,4.849,0.746
	c-1.804,4.861,0.356,9.874-0.187,14.918c-0.154,1.429-1.05,2.794-1.119,4.289c-0.235,5.061,0.351,10.491,0.373,16.038
	c0.039,9.699,0.12,19.602-0.187,29.277c-0.164,5.181-0.191,10.672,0.187,15.292c0.104,1.264,0.797,2.47,0.933,3.729
	c0.346,3.209-0.321,7.472,0,10.816c0.167,1.744,1.119,3.295,1.119,5.221c0,5.374,0,11.816,0,18.089c0,6.614,0.649,13.421,0,18.647
	c-0.134,1.07-0.959,2.326-1.119,3.73c-0.207,1.81,0.122,3.789,0,5.78c-0.097,1.567-0.792,3.104-0.933,4.662
	c-0.182,2.016,0.262,4.052,0,5.968c-0.174,1.276-0.989,2.504-1.119,3.729c-0.388,3.671,0.433,7.397,0,11.188
	c-0.131,1.15-0.794,2.37-0.932,3.543c-0.387,3.276-0.012,7.062,0,10.63c0.012,3.826-0.392,7.816,0,11.002
	c0.141,1.151,0.783,2.168,0.932,3.356c0.167,1.326-0.298,2.813,0,4.104c0.25,1.08,0.997,1.704,1.119,2.797
	c0.235,2.105-0.27,4.224,0,6.34c0.153,1.206,0.814,2.391,0.933,3.543c0.198,1.933-0.241,3.807,0,5.595
	c0.185,1.368,0.99,2.598,1.119,3.916c0.346,3.55-0.512,6.698,0,10.257c0.192,1.342,1.98,4.548,0.373,6.153
	c-0.762,0.761-1.612,0.3-2.984-0.187c-3.707,1.035-8.132,1.099-12.121,0.746c-1.846-0.163-3.502-0.876-5.408-0.932
	c-2.007-0.06-4.167,0.218-6.153,0c-2.501-0.275-4.407-1.152-6.9-0.933c-1.253,0.11-2.424,0.783-3.729,0.933
	c-1.415,0.161-2.868-0.19-4.289,0c-1.419,0.189-2.681,0.987-4.103,1.118C200.084,246.872,196.553,246.02,194.137,247.663z
	 M32.645,154.982c1.167-1.836,2.5-3.409,3.543-5.222c1.114-1.937,1.786-3.978,2.797-6.153c1.058-2.276,2.781-4.367,4.103-6.527
	c1.348-2.202,3.139-4.185,4.289-6.34c0.636-1.193,0.945-2.499,1.678-3.73c0.665-1.116,1.529-2.184,2.238-3.356
	c1.485-2.458,2.393-4.806,4.476-6.154c-0.457,0.296-0.058,0.248,0.186,0c1.929-1.958,6.681-6.695,10.07-9.324
	c1.77-1.373,3.35-1.986,4.103-3.17c1.016-1.6,1.434-3.887,2.051-6.34c0.636-2.527,2.028-4.667,1.865-6.527
	c-0.057-0.643-0.704-1.177-1.119-2.051c-1.244-2.62-2.321-5.021-3.356-7.086c-3.83-2.511-7.355-5.326-10.629-8.392
	c-3.312-0.854-4.881-3.448-8.205-4.289c-3.331,6.442-6.661,14.368-11.375,19.58c-0.95,1.05-2.235,1.962-2.983,2.984
	c-0.97,1.324-1.918,3.86-3.17,5.967c-1.197,2.016-2.677,4.086-3.356,5.967c-1.93,5.343-2.065,10.884-2.611,17.343
	c-0.336,3.979-1.547,7.666-2.984,10.816c-2.881,6.319-7.065,11.74-11.002,16.97c-1.437,1.908-3.348,3.523-4.103,5.408
	c-0.917,2.287-1.354,7.583-0.933,9.883c0.301,1.644,1.642,3.661,2.797,5.408c2.174,3.289,4.413,6.353,8.578,7.086
	C25.106,171.129,28.004,162.28,32.645,154.982z M239.078,3.56c-1.79-0.19-3.189,0.334-5.035,0.56c-0.987,0.12-2.054-0.148-2.983,0
	c-0.943,0.15-1.794,0.74-2.797,0.933c-4.431,0.849-9.649,0.29-14.359,0.186c-4.663-0.103-9.735-0.601-14.173-0.186
	c-1.147,0.107-2.31,0.946-3.543,1.119c-3.972,0.555-8.374-0.723-12.121,0c-0.977,0.188-1.818,0.967-2.797,1.119
	c-2.854,0.444-7.688,0.431-10.816,0c-1.323-0.183-2.568-0.976-3.916-1.119c-7.156-0.762-14.764,0.917-22.191,0
	c-1.86-0.23-3.537-1.07-5.594-1.119c-6.686-0.16-13.592,0.619-19.767,0.186c-1.378-0.096-2.709-0.949-4.103-1.119
	c-3.582-0.435-7.648,0.438-11.562,0c-1.541-0.172-3.09-0.972-4.662-1.119c-8.178-0.762-17.536,0.186-26.48,0.186
	c-4.126,0-8.372,0.015-12.308,0c-4.395-0.016-8.561-0.609-12.122-0.186c-1.365,0.162-2.606,0.974-3.916,1.119
	c-1.865,0.207-3.725-0.267-5.594,0c-1.006,0.144-1.957,0.798-2.984,0.933c-2.134,0.279-4.924,0.273-7.086,0
	c-1.192-0.151-2.355-0.791-3.543-0.933C18.422,3.379,12.09,4.533,5.978,3.933c0.79,6.68,0.517,13.59,0.746,20.886
	c0.156,4.982,0.771,10.108,0.373,15.105c-0.237,2.974-1.219,5.792-1.679,8.765c-0.502,3.245-0.357,6.734-0.373,10.256
	c-0.059,13.464-0.333,27.505,0,41.399c0.172,7.206-0.692,14.554,0,21.259c0.219,2.121,0.992,4.148,1.305,6.153
	c1.522,9.753,0.286,19.78-0.933,27.973c1.28-4.363,4.06-7.059,6.527-10.257c1.765-2.288,3.252-4.726,4.849-7.086
	c3.181-4.704,6.337-10.212,6.9-16.97c0.231-2.78,0.039-5.152,0.373-8.206c0.677-6.189,3.412-11.604,6.154-15.851
	c1.373-2.125,2.247-4.522,3.356-6.154c1.323-1.945,3.513-3.286,4.849-5.035c2.048-2.684,3.782-6.223,5.408-9.51
	c1.646-3.33,3.956-6.402,5.035-9.884c0.774-2.499,0.684-5.322,1.119-7.832c0.397-2.292,0.872-4.862,2.051-6.9
	c1.954-3.374,6.324-5.013,9.697-7.086c6.667-4.098,12.108-9.965,18.088-13.986c-1.442-5.04,3.895-7.675,4.103-2.424
	c3.664-2.482,7.488-4.204,11.189-6.899c3.657-2.664,6.102-6.028,10.816-7.273c2.492-0.658,5.624-0.966,8.765-0.932
	c0.97-0.6,2.06-1.162,3.17-1.306c5.231-0.675,11.089-0.866,17.157-1.305c7.889-0.571,15.711-0.863,24.056-0.373
	c4.497,0.264,9.152-0.304,13.24,0c2.57,0.191,5.214,0.763,7.646,0.746c2.177-0.016,4.942-0.606,7.272-0.373
	c9.481,0.948,15.066,6.62,19.021,13.054c2.124,3.457,4.655,7.502,5.221,11.748c0.108,0.808-0.092,1.793,0,2.611
	c0.132,1.159,0.65,2.214,0.746,3.356c0.289,3.418-0.211,7.128,0,11.189c2.191,5.925,10.049,7.286,13.24,11.935
	c0.796,1.159,2.539,4.375,2.611,5.595c0.069,1.182-0.601,1.487-0.56,2.797c0.035,1.147,0.828,3.226,1.305,4.849
	c2.42,8.228,4.943,15.666,6.341,24.615c0.556,3.562,1.498,7.165,1.864,10.629c0.569,5.379,1.445,10.583,1.865,15.851
	c0.645,8.078,0.498,15.706,0.373,21.259c-0.058,2.566,0.411,5.201,0.373,7.832c-0.038,2.645-1.072,6.169-2.052,8.951
	c-0.983,2.794-1.651,5.857-2.797,8.205c-1.737,3.562-4.939,5.373-7.646,8.205c-3.12,3.266-4.776,5.514-8.951,6.527
	c0.278,11.162-8.556,14.123-15.851,17.901c-3.215,1.666-7.021,4.465-9.324,7.273c-0.768,0.936-1.243,2.346-2.425,3.729
	c-3.179,3.723-8.296,6.95-13.799,9.696c-2.435,1.215-4.649,2.771-7.273,4.476c-2.197,1.43-6.05,4.067-8.019,3.916
	c-4.385-0.336-5.855-7.808-9.883-8.205c-4.378,0.607-8.262,9.771-11.936,3.916c-0.558,0.971-2.24,2.144-4.103,2.425
	c-2.92,0.441-8.588,0.59-11.002-0.187c-2.54-0.816-3.163-3.693-4.662-4.849c-1.598-0.057-2.626-1.838-4.103-2.797
	c-1.627-1.057-3.815-1.561-5.781-2.611c-7.364-3.935-14.942-8.14-23.31-10.815c-2.134-0.683-3.947-1.737-5.967-2.61
	c-4.15-1.794-8.354-3.196-11.935-5.222c-1.185-0.671-2.219-1.688-3.543-2.425c-3.823-2.125-7.815-4.783-11.562-6.526
	c-2.067-0.962-5.065-2.46-7.086-2.425c-2.436,0.043-5.593,1.513-7.459,2.798c-1.799,1.238-2.855,3.358-4.662,4.289
	c-2.958,1.523-7.304,1.383-8.578-1.492c-2.019-4.553,2.424-7.976,2.983-11.375c0.371-2.25-0.294-5.545-1.492-6.527
	c-1.989-1.631-6.022-0.711-8.765-1.118c-5.347-0.795-9.881-6.28-12.121-10.816c-1.249-2.528-2.067-5-2.051-8.392
	c-0.145,4.944-0.985,10.332-0.56,15.664c0.187,2.342,1.11,4.59,1.305,6.714c0.294,3.194-0.158,6.765,0,10.256
	c0.149,3.275,0.729,6.515,0.746,9.697c0.074,13.837,0.116,26.733-1.492,37.855c2.167-0.313,4.495,0.419,6.527,0
	c1.101-0.227,1.752-0.983,2.61-1.118c4.619-0.729,10.423,0,15.851,0c10.829,0,21.409,0,32.075,0c5.48,0,11.158-0.605,16.037,0
	c1.395,0.173,2.774,0.958,4.289,1.118c3.157,0.334,6.499-0.327,9.324,0c1.333,0.155,2.574,0.81,3.916,0.933
	c3.253,0.299,7.113,0.416,10.256,0c1.243-0.165,2.342-0.813,3.543-0.933c4.557-0.45,9.103,0.625,13.613,0
	c1.199-0.166,2.326-0.962,3.544-1.118c4.248-0.549,8.846,0,13.054,0c2.274,0,4.399-0.136,6.526,0
	c1.817,0.115,3.524,0.937,5.408,1.118c4.265,0.413,8.503-0.04,12.867,0.746c1.835,0.331,3.725,0.639,5.594,1.119
	c4.293,1.104,8.354,1.306,13.986,1.306c2.882,0,5.966,0.346,8.392,0c1.661-0.238,3.085-1.014,4.662-1.119
	c1.829-0.123,3.684,0.253,5.595,0c1.02-0.136,2.062-0.791,3.17-0.933c1.588-0.203,3.291,0.27,4.849,0
	c1.108-0.192,1.826-0.803,2.797-0.933c3.811-0.508,6.679,0.665,9.324,0.933c2.146,0.217,4.445-0.222,6.713,0
	c1.366,0.134,2.74,0.849,4.103,0.933c2.466,0.151,5.107-0.09,7.46-0.933c-0.002,0.432-1.445,0.996-0.56,1.119
	c1.629,0.068,4.736,0.583,5.594,0.187c0.526-1.801-0.94-3.654-1.118-5.408c-0.343-3.384,0.552-7.021,0-10.63
	c-0.162-1.055-0.801-1.924-0.933-2.983c-0.234-1.883,0.271-3.843,0-5.781c-0.172-1.227-0.967-2.332-1.119-3.543
	c-0.26-2.072,0.405-4.732,0-6.899c-0.149-0.8-0.785-1.54-0.933-2.424c-0.201-1.217,0.213-2.616,0-3.917
	c-0.182-1.114-0.962-2.051-1.118-3.17c-0.46-3.29,0-7.459,0-11.188c0-4.02-0.597-8.311,0-11.375
	c0.193-0.996,0.893-1.327,1.118-2.611c0.663-3.771-0.619-7.938,0-12.121c0.146-0.983,0.807-1.994,0.933-2.983
	c0.264-2.064-0.271-4.194,0-6.341c0.182-1.434,0.976-2.815,1.119-4.289c0.221-2.258-0.358-4.67,0-6.713
	c0.159-0.907,0.781-1.597,0.933-2.611c0.813-5.447,0-12.597,0-19.021c0-6.315,0.675-13.834,0-19.208
	c-0.147-1.168-0.801-2.308-0.933-3.543c-0.435-4.076,0.533-8.484,0-11.562c-0.197-1.14-0.981-2.18-1.119-3.356
	c-0.556-4.754,0-10.246,0-15.478c0-10.61-0.472-20.602,0-30.583c0.244-5.158-0.56-10.847,0.187-15.478
	c0.162-1.004,0.915-1.707,1.119-2.984c0.787-4.917-1.484-9.576,0.187-14.172C242.09,4.631,240.645,3.727,239.078,3.56z
	 M146.211,13.257c-8.92,0.813-17.68,1.455-26.294,1.678c-2.706,12.088-4.158,25.391-5.408,38.415c2.281-2.33,5.216-2.22,8.205-0.746
	c2.929,1.444,5.423,4.391,8.206,5.035c3.311-1.156,6.943-3.347,11.375-3.73c6.206-0.536,12.854,0.203,19.021-0.373
	c0.747-2.881,2.223-5.381,3.171-7.459c1.509-3.31,2.835-7.403,4.289-10.443c0.82-1.715,2.295-2.999,2.61-4.662
	c0.7-3.69-1.476-7.536-1.865-11.562c-0.178-1.844,0.131-3.616,0-5.781C161.57,14.274,153.787,12.566,146.211,13.257z M214.09,60.064
	c-2.075-1.815-4.564-4.215-5.035-7.086c-0.724-4.417,0.375-8.201,0-11.749c-0.602-5.693-1.592-8.96-3.916-13.24
	c-3.026-5.572-7.018-10.736-12.867-12.867c-6.033-2.198-13.056,0.051-20.326-1.492c0.148,1.957-0.201,3.987,0,5.781
	c0.487,4.354,2.481,7.951,2.051,11.748c-0.214,1.887-1.732,3.492-2.61,5.408c-1.417,3.093-2.832,7.289-4.103,10.256
	c-0.835,1.949-2.178,3.531-2.424,5.781c2.297-0.338,5.227-0.347,6.526,1.119c0.915,1.032,1.284,3.596,1.865,5.408
	c1.729,5.396,2.939,12.298,5.594,16.224c0.857,1.268,2.13,1.733,3.17,2.611c0.574,0.484,0.686,1.552,1.679,1.492
	c4.246-2.499,7.714-5.372,13.427-6.154c5.627-0.77,10.58,1.483,15.291,0.746c4.536-0.71,7.562-4.584,11.189-5.781
	C221.936,63.791,217.559,63.098,214.09,60.064z M107.423,16.8c-4.317,0.862-7.432,4.994-10.629,7.273
	c-4.37,3.114-9.019,5.302-13.054,8.392c-0.231,11.42,1.15,21.228,2.797,30.769c8.15-2.603,17.196-4.311,24.615-7.646
	c1.39-13.777,3.201-27.133,5.781-39.721C113.342,16.143,110.472,16.191,107.423,16.8z M69.94,43.094
	c-2.296,1.719-4.809,3.414-7.273,4.848c-2.379,1.385-5.963,2.872-7.459,4.849c-2.63,3.476-1.911,8.874-3.17,14.172
	c6.667,2.657,10.992,7.657,16.597,11.375c0.696-1.856,0.405-3.529,0.933-5.035c1.213-3.464,5.824-3.849,8.392-5.967
	c0.44-11.123,2.323-22.056,1.678-32.634C76.153,36.887,73.871,40.152,69.94,43.094z M130.547,60.437
	c-3.551-0.248-6.06-3.936-9.324-5.408c-0.848-0.382-1.835-0.426-2.797-0.746c-1.39,0.724-2.726,1.501-3.916,2.424
	c-0.177,4.75,0.368,9.926,0.746,13.613c0.652,6.363-1.294,12.05-1.865,18.088c1.737,0.209,2.637-1.529,3.73-2.424
	c1.136-0.931,2.356-2.028,3.729-2.61c2.23-0.946,4.062-0.605,6.899-0.373c4.379,0.357,9.179-0.535,12.121,0.932
	c0.621-9.263,3.056-16.711,2.611-27.04C137.525,56.703,134.688,60.727,130.547,60.437z M162.435,56.334
	c-5.886,0.906-11.727-0.411-17.716,0.373c1.297,10.904-1.753,18.983-1.864,29.091c5.536,3.167,13.841,3.564,19.953,6.154
	c1.979-0.784,3.646-1.328,6.154-1.865c4.015-3.009,8.201-5.846,11.935-9.137c-7.645-4.788-7.976-16.889-11.748-25.548
	C166.77,54.871,163.93,55.372,162.435,56.334z M107.609,96.055c0.92-2.171,1.498-4.542,2.051-6.713
	c1.12-4.393,2.184-9.765,2.611-14.732c0.412-4.785-1.089-11.287-0.933-15.665c-7.295,3.334-16.332,4.927-24.056,7.832
	c1.671,5.229,1.976,10.396,3.356,15.478c0.887,3.265,2.792,6.327,3.916,9.511c1.214,3.437,2.265,6.709,3.916,9.697
	c2.653,0.456,4.205,1.624,6.605,2.333C105.462,101.754,106.455,98.777,107.609,96.055z M232.365,102.768
	c-1.719-11.298-5.856-20.896-7.646-31.515c-0.01-0.114-0.027-0.221-0.187-0.187c-0.01-0.114-0.027-0.221-0.187-0.187
	c-2.906,1.514-7.793,5.431-11.375,5.968c-5.377,0.806-10.433-1.454-15.478-0.746c-5.513,0.773-8.966,3.675-12.494,6.34
	c2.906,4.566,4.863,9.538,7.272,14.359c1.562,3.126,3.632,5.803,5.222,8.765c1.695,3.16,2.649,6.389,3.916,10.07
	c0.303,0.879,0.883,2.404,1.492,3.17c1.314,1.654,3.909,2.145,5.221,3.916c1.467,1.98,2.63,4.865,3.729,7.459
	c1.793,4.227,3.515,7.85,3.916,13.054c7.443,1.138,13.558,4.589,20.7,5.407C236.902,131.616,234.482,116.688,232.365,102.768z
	 M71.432,80.017c0.351,2.888,3.177,5.059,3.916,7.646c0.742-4.542,1.047-9.521,2.238-13.613c0.029,0.219-0.032,0.529,0.187,0.56
	c-0.121-0.936,0.245-2.358-0.187-2.984C74.271,73.18,70.893,75.569,71.432,80.017z M209.055,130.554
	c-1.137-2.548-2.361-5.519-3.916-6.9c-1.677-1.49-3.661-1.954-4.849-3.916c-1.913-3.162-2.485-7.947-4.476-11.748
	c-1.87-3.573-4.406-6.917-5.967-10.256c-0.552-1.179-0.753-2.559-1.306-3.73c-1.67-3.541-4.089-6.635-5.595-10.256
	c-0.124,0-0.248,0-0.373,0c-0.238,0.071-0.398,0.225-0.56,0.373c-2.783,2.569-7.479,4.441-9.51,7.086
	c-1.57,1.103-3.508,1.839-5.595,2.424c1.838,1.19,1.262,3.964,1.865,6.899c0.54,2.631,1.812,5.363,2.61,8.019
	c1.572,5.225,2.971,12.891,1.306,18.275c0.687,1.864,2.794,2.734,4.662,3.916c1.706,1.078,3.407,2.483,5.221,3.543
	c3.549,2.071,8.6,3.784,13.24,4.476c5.889,0.877,11.832,1.23,16.97,3.543C212.258,137.604,210.827,134.526,209.055,130.554z
	 M139.684,86.544c-3.702-1.279-10.766-0.299-15.104-1.119c-0.279-0.053-2.265,0.49-2.424,0.559
	c-1.204,0.524-4.393,2.862-4.476,4.289c-0.052,0.896,1.774,3.133,2.238,3.357c1.179,0.569,2.772,1.31,4.289,1.865
	c2.856,1.044,6.288,1.484,9.138,2.424c1.907,0.629,3.403,2.192,5.222,2.797c2.374,0.79,4.56,0.675,6.713,1.679
	c0.213-4.573,1.431-8.143,3.356-11.002C145.275,90.152,141.538,89.29,139.684,86.544z M79.824,89.9
	c0.078,2.002-1.157,3.252-1.305,5.222c-0.164,2.173,1.623,4.426,0.187,5.967c0.97-0.211,1.639-0.723,2.983-0.56
	c-0.078-3.496,0.332-6.506,0.187-10.07C80.811,90.701,80.437,89.519,79.824,89.9z M86.351,91.02
	c0.687,2.732,0.323,6.515,1.119,9.138c1.43,0,2.859,0,4.289,0c-1.46-2.954-1.991-6.836-3.17-10.07
	C88.268,90.823,87.062,90.674,86.351,91.02z M112.645,91.579c-0.761,1.623-2.023,3.619-2.891,5.734
	c-0.941,2.295-2.12,4.786-3.192,7.117c6.233,2.3,9.685,6.875,15.221,9.713c4.849,2.486,11.906,3.962,18.274,5.035
	c2.992-2.975,3.564-8.371,4.103-13.8c-4.319-1.15-8.929-2.01-11.935-4.476c-3.773-0.517-8.27-2.302-11.002-3.543
	c-0.837-0.38-1.812-0.389-2.424-0.746c-1.745-1.016-2.938-2.968-3.543-5.035C114.385,91.579,113.515,91.579,112.645,91.579z
	 M151.992,92.138c-2.673,2.119-2.908,6.79-3.544,10.443c-0.173,0.994-1.023,1.993-0.932,2.984c0.195,2.119,2.758,3.656,4.289,4.662
	c1.886,1.24,4.114,3.196,7.086,2.983c2.574,1.185,3.732,3.59,5.408,5.595c1.457,1.744,3.345,2.844,4.849,4.103
	c0.318,0.267,0.646,1.297,1.305,0.932c0.851-11.514-3.966-17.066-4.289-26.853C162.498,94.313,157.24,93.23,151.992,92.138z
	 M88.029,104.446c2.118-0.066,4.114-0.012,5.781,0.373c-0.047-1.072-0.57-1.668-0.746-2.61c-1.803,0-3.605,0-5.408,0
	C88,102.734,87.652,103.953,88.029,104.446z M76.467,102.954c-0.6,1.079-0.98,2.376-1.306,3.729c2.594,0.565,2.859-2.707,6.34-1.865
	c0.357-0.451,0.118-1.499,0.187-2.238c-1.724-0.107-2.432,0.801-3.916,0.933C78.041,102.111,77.075,102.766,76.467,102.954z
	 M102.574,107.989c3.003,0.909,4.902,2.621,7.273,3.916c5.096,2.784,11.085,4.484,15.851,7.459
	c5.439,3.396,8.889,9.508,14.545,12.494c3.036,1.604,6.689,1.989,9.884,3.357c5.149,2.204,7.646,6.188,10.629,10.256
	c1.229,1.674,2.349,3.494,3.544,5.222c2.348,3.396,5.375,6.371,7.832,9.697c2.416,3.271,4.717,6.939,6.899,10.629
	c1.077,1.82,1.944,3.842,3.17,5.595c1.203,1.721,2.854,3.323,3.73,5.035c0.289,0.565,0.286,1.264,0.559,1.864
	c0.442,0.972,1.421,1.668,1.865,2.611c0.331,0.702,0.276,1.573,0.56,2.237c0.293,0.688,0.989,1.214,1.306,1.865
	c0.382,0.788,0.362,1.714,0.745,2.424c2.461,4.558,7.164,7.484,8.765,12.867c1.463-0.589,2.67-1.434,4.289-1.865
	c-1.109-3.303-4.127-4.844-5.78-7.459c-0.657-1.038-1.027-2.189-1.679-3.17c-0.653-0.984-1.521-1.804-2.237-2.797
	c-3.561-4.935-6.906-9.797-10.63-14.546c-2.288-2.919-3.581-6.405-5.595-9.511c-3.974-6.128-8.898-11.496-13.799-16.41
	c-1.114-2.988-3.764-4.027-4.849-6.713c-1.232-3.049-0.635-7.159-1.865-9.884c-0.688-1.521-2.74-4.073-4.103-5.222
	c-1.564-1.319-4.658-2.59-7.272-3.729c-4.381-1.909-7.575-3.245-12.494-4.103c-4.687-0.817-8.218-2.006-12.308-4.103
	c-2.435-1.248-4.556-2.606-6.713-4.103c-2.119-1.469-4.115-3.416-6.34-4.662c-2.431-1.361-6.187-2.001-8.205-3.17
	C100.861,105.476,101.594,106.856,102.574,107.989z M88.961,108.735c1.178-0.501,2.565-0.792,3.543-1.492
	c-0.892-0.6-2.679-0.305-4.103-0.373C88.443,107.638,88.432,108.457,88.961,108.735z M78.705,108.176
	c0.986,0.293,2.211,1.219,3.17,0.932c0-0.622,0-1.243,0-1.865C80.555,107.291,79.405,107.508,78.705,108.176z M53.344,128.129
	c0.682,1.278,2.648-2.175,3.17-2.983c-0.157-0.465-0.244-0.999-0.187-1.678c5.454-3.56,9.664-8.362,12.308-14.732
	c-5.354,3.783-9.33,8.944-14.359,13.053c-0.513,2.928-3.028,4.925-4.289,7.459c-0.472,0.948-0.58,2.076-1.119,2.983
	c-2.499,4.207-6.138,7.785-8.205,12.121c-0.993,2.083-1.726,4.089-2.797,5.968c-3.196,5.602-7.032,10.897-9.883,16.97
	c-0.444,0.946-0.471,2.045-0.933,2.983c-1.249,2.541-3.604,4.717-4.662,7.459c1.036,0.021,1.717,0.397,2.797,0.373
	c2.851-6.426,5.178-12.824,8.392-18.647c3.193-5.786,7.368-10.917,10.07-16.97c3.684-3.899,6.55-8.618,9.511-13.24
	c0.4-0.478-0.171-1.058,0.187-1.306C53.344,128.005,53.344,128.067,53.344,128.129z M142.854,120.483
	c4.731,2.616,9.4,3.247,12.681,6.526c4.007,4.008,4.612,7.233,5.407,13.427c0.361,2.814,2.005,3.912,3.544,5.781
	c1.132,1.375,1.725,3.112,3.17,3.543c1.182-6.588,2.385-13.155,3.729-19.58c-1.388-2.612-3.722-4.153-6.341-6.341
	c-2.376-1.986-4.412-6.557-7.272-7.646c-0.592-0.226-1.246-0.033-1.864-0.187c-2.188-0.543-4.646-2.449-6.341-3.543
	c-1.67-1.078-2.434-1.885-3.17-3.17C146.204,114.012,144.911,117.63,142.854,120.483z M111.339,119.737
	c0.812,0.975,2.108,2.927,1.865,4.103c-0.248,1.197-2.858,2.342-3.729,3.17c-2.134,2.029-3.774,5.944-6.9,3.171
	c1.155-2.909,2.58-6.803,0.56-9.697c-1.354-1.939-8.379-2.607-11.002-0.933c-1.569,1.002-2.205,6.977-1.119,9.697
	c0.429,1.075,2.239,1.311,2.238,2.797c-0.001,3.112-6.804,2.238-9.324,2.425c-0.842-1.147-3.709-0.27-4.662-1.306
	c0.997-2.586,3.27-5.131,2.797-8.392c-0.584-4.04-5.666-7.274-10.07-4.289c-1.157,2.635-1.675,5.908-1.492,9.884
	c4.629,5.378,7.796,12.219,13.799,16.224c1.803-1.147,3.507-2.957,5.967-2.052c1.681,0.619,1.976,3.16,3.543,3.916
	c0.723-0.648,1.858-0.666,2.797-0.187c1.96-3.032,5.651-4.922,8.205-7.646c0.681-0.726,1-1.645,1.865-2.237
	c2.686-1.842,6.326-1.947,8.392-3.916c2.254-2.148,2.287-5.615,3.17-9.697c0.255-1.181,1.39-5.879,3.543-5.035
	c1.537,0.603-0.009,3.066-0.373,4.476c-0.889,3.436-1.333,8.204-2.984,10.816c-2.293,3.627-6.552,3.813-10.07,5.967
	c-2.52,3.696-6.932,5.501-9.324,9.324c5.316,2.517,11.415,4.25,14.918,8.578c6.362,1.812,9.438,7.379,15.105,9.884
	c1.454,0.643,3.01,0.701,4.476,1.678c3.137-2.658,6.487,0.824,9.697,1.306c2.894,0.434,8.414,0.671,11.002-0.373
	c3.834-1.547,4.986-5.065,6.899-8.205c0.936-1.535,1.902-2.854,3.171-4.476c-0.042-1.284,0.109-2.377,1.118-2.61
	c-2.795-3.75-4.993-7.192-7.646-10.63c-0.897-1.163-1.494-2.566-2.424-3.729c-1.204-1.506-2.903-2.435-4.476-3.356
	c-1.837-1.077-3.68-1.308-5.781-2.052c-3.784-1.339-7.073-3.397-10.256-5.407c-3.726-4.555-8.344-8.873-13.986-11.749
	c-2.661-1.356-4.909-3.139-7.646-3.17c-3.235-1.365-6.51-3.684-9.324-4.849C105.384,114.622,108.896,116.802,111.339,119.737z
	 M102.015,154.796c-0.991-0.428-2.041-1.18-2.984-1.492c-0.527-0.174-1.168,0.125-1.678,0c-0.534-0.13-0.911-0.897-1.492-1.118
	c-1.028-0.393-2.074-0.194-2.797-0.56c-1.487-0.751-3.053-3.986-4.476-4.103c-1.336-0.11-2.576,1.984-4.103,2.051
	c-2.477,0.108-5.344-3.104-6.713-4.849c-3.509-4.47-7.035-8.478-10.07-12.867c-4.193-0.53-6.444-3.004-9.324-4.849
	c-0.682,0.851-1.803,1.271-2.424,2.052c-1.238,1.558-1.986,3.779-3.17,5.595c-3.493,5.355-8.015,10.234-10.629,15.851
	c-5.599,8.697-10.95,17.645-14.918,27.972c3.782,1.541,5.893,5.949,5.035,11.189c-0.542,3.31-4.297,5.489-3.17,9.323
	c3.638,1.681,5.153-1.9,6.9-3.356c3.049-2.54,9.544-5.59,14.359-3.729c4.706,1.819,8.137,4.456,12.494,6.714
	c4.183,2.166,7.747,4.137,11.562,6.34c4.496-3.499,7.992-7.633,10.443-13.24c2.298-5.259,4.109-11.836,8.392-15.291
	c0.593-0.479,1.456-0.613,2.051-1.119c2.5-2.123,4.581-5.236,6.527-7.646c2.584-3.199,5.28-6.166,8.392-8.578
	C107.981,157.135,104.963,156.068,102.015,154.796z M171.945,141.929c-0.846,3.562-1.208,7.913-2.797,10.07
	c2.191,2.059,3.797,4.117,5.78,6.34c4.783,5.359,7.4,12.482,11.748,18.089c1.823,2.35,3.396,4.74,5.035,7.086
	c0.945,1.352,2.409,2.361,3.356,3.729c0.505,0.729,0.777,1.521,1.306,2.238c0.506,0.687,1.182,1.324,1.679,2.051
	c1.031,1.509,1.585,3.345,2.61,4.849c0.847,1.242,2.087,2.047,2.983,3.356c0.72,1.051,1.289,2.141,2.238,2.984
	c4.352-2.688,8.434-4.847,9.138-10.443c0.187-1.485-0.368-2.916,0.373-4.103c0.685-1.098,2.823-1.176,4.103-1.865
	c1.811-0.975,3.444-3.127,5.221-4.848c1.746-1.691,3.883-3.062,5.408-4.849c1.508-1.767,2.233-3.983,3.17-6.527
	c1.972-5.355,3.895-11.002,3.171-18.834c-5.442,0.038-9.291-2.125-13.8-3.356c-2.986-0.816-6.062-1.079-8.951-1.865
	c-2.107-0.573-4.034-1.633-5.968-2.238c-3.669-1.147-7.533-1.268-11.748-1.864c-9.523-1.348-16.256-5.882-22.937-10.07
	C172.991,135.842,172.702,138.741,171.945,141.929z M134.09,203.28c-0.057,1.039,0.586,2.049,0.746,3.171
	c0.244,1.72,0.158,3.563,0.373,5.407c0.597,5.147,2.629,9.377,2.61,14.359c0.672-0.021,1.149-0.896,2.051-0.746
	c1.788,0.296,2.152,4.101,2.798,5.781c3.282-2.003,4.867-5.989,9.51-5.595c1.765,0.149,4.543,2.311,5.595,3.543
	c1.387,1.624,2.318,4.335,4.103,4.476c1.438,0.114,5.133-2.711,6.9-3.916c6.331-4.317,14.816-7.523,19.394-13.054
	c0.986-1.191,1.769-2.889,2.61-3.916c2.015-2.457,5.251-3.91,7.273-6.34c-1.352-4.042-4.462-7.029-6.527-9.884
	c-2.954-4.084-4.982-9.727-7.459-14.173c-5.622-6.334-9.484-15.331-14.732-21.817c-0.713-0.883-1.394-2.247-2.61-2.425
	c-0.108,2.191-1.266,3.521-2.424,5.408c-0.764,1.243-1.82,2.367-2.425,3.543c-0.337,0.656-0.387,1.467-0.746,2.051
	c-1.012,1.648-3.588,3.896-5.78,4.849c-2.17,0.944-9.425,1.112-12.867,0.56c-2.226-0.357-3.59-2.016-6.341-2.237
	c0.179,3.578-0.077,7.21-0.373,10.629 M132.411,192.838c0.388-7.059,0.771-13.193,0.746-20.14c-2.957-0.58-5.034-1.673-7.086-2.798
	c-0.705-0.386-1.604-0.533-2.238-0.932c-2.332-1.471-4.159-3.921-5.967-5.222c-1.245-0.896-4.087-2.436-5.594-2.238
	c-0.798,0.104-2.222,1.237-3.17,2.052c-2.633,2.26-4.343,5.667-6.713,8.392c-0.871,1.001-1.958,1.897-2.797,2.797
	c-0.916,0.981-1.918,2.073-2.797,2.798c-0.577,0.475-1.646,0.952-2.051,1.305c-4.489,3.905-5.952,11.723-8.951,17.529
	c-2.214,4.286-5.465,6.852-8.205,10.07c4.303,2.104,9.119,3.545,13.8,5.221c1.513,0.543,2.821,1.524,4.289,2.052
	c0.636,0.229,1.419,0.119,2.051,0.373c0.686,0.275,1.417,1.084,2.238,1.491c2.913,1.447,6.387,2.979,9.697,4.849
	c1.43,0.809,3.034,1.831,4.662,2.611c2.774,1.328,5.713,1.566,6.154,4.476c2.326,0.168,2.535,3.79,5.035,4.476
	c1.014,0.277,3.049,0,4.849,0c3.839,0,7.029,0.358,7.459-2.425c-0.62-0.39-1.83-0.996-2.425-1.864
	c-0.774-1.134-0.565-2.619-0.745-4.476c-0.31-3.2-1.925-6.47-2.238-11.003c-0.039-0.57,0.208-1.264,0.187-1.864
	c-0.08-2.237-0.869-4.541-1.119-6.9L132.411,192.838z"/>
</svg>
