<?xml version="1.0" encoding="utf-8"?>
<!-- Generator: Adobe Illustrator 19.1.0, SVG Export Plug-In . SVG Version: 6.00 Build 0)  -->
<svg version="1.1" id="Calque_1" xmlns="http://www.w3.org/2000/svg" xmlns:xlink="http://www.w3.org/1999/xlink" x="0px" y="0px"
	 viewBox="0 0 213.2 237.8" style="enable-background:new 0 0 213.2 237.8;" xml:space="preserve">
<style type="text/css">
	.st0{fill:#6D9DBD;}
</style>
<g>
	<polygon id="zone_a_colorer" class="st0" points="89.7,132.9 120.8,132.9 135.7,128 141.1,162.4 151.9,219 131.7,220.1 82.4,221.9 
		63.7,219 84.7,132.9 	"/>
	<g>
		<path d="M11.6,32.7c-1.8-1-3.3-1.7-4.7-2.6c-7-4.8-8.4-10.5-5.4-18.4c2.1-5.7,10-8.9,15.9-7c1.8,0.6,3.8,1,5.5,1.7
			c4.7,2,9.1,1.1,13.4-1.2C41.6,2.4,47.2,1,53.1,0.4C64.5-0.8,75.7,1.2,87,1.5c8.4,0.2,16.7,1,25,1.6c7.3,0.5,14.6,1.4,22,1.7
			c3.4,0.2,6.8-0.5,10.2-0.8c9.8-0.7,19.4,0,29,2.4c6.7,1.6,13.5,2,20.5,1.4c9.7-1,13.5,1.9,18.4,10.6c2.7,4.8,0.3,8.2-3.7,11.9
			c-0.9,0.8-1.8,1.9-2.3,3c-2.1,5-2.2,10.4-3.1,15.6c-1.7,9.7,1.6,18.7,3.5,27.9c1.8,8.8,2.2,17.6,1.8,26.5
			c-0.5,11.1-2.9,21.8-5.5,32.5c-1.7,7-3.7,13.9-5.4,20.9c-2.3,9.7-1.9,19.6-0.9,29.4c0.8,7.7,2.3,15.3,3.6,22.9
			c0.3,1.7,0.9,3.4,1.4,5.1c0.2,0.5,0.7,1,1.2,1.1c9.1,2.1,9.4,8.3,6.7,14.5c-1.9,4.3-5.5,4.9-9.4,5.1c-3.4,0.2-6.9,0.2-10.4-0.1
			c-3.2-0.2-6.3-1.1-9.4-1.2c-3,0-5.9,0.7-8.9,1c-2.7,0.2-5.4,0.5-8,0.2c-5.4-0.7-10.7-2.4-16-2.5c-7.1-0.1-14.2,0.8-21.3,1.4
			c-8,0.7-16,1.6-24,2.1c-11.8,0.7-23.4-1.8-35.1-3.4c-4.7-0.7-9.3-1.5-14-2c-5.4-0.6-10.2,1.5-14.9,3.8c-7.5,3.7-15.3,4.6-23.3,2.5
			c-5.8-1.5-10.2-5.4-12.9-10.6c-2.4-4.7,1.1-11.3,6.8-13.4c1.3-0.5,2.8-0.5,3.9-1.2c0.9-0.6,1.8-1.7,2.2-2.7
			c1.6-4.8,1.5-9.8,0.7-14.7c-1.2-7.8-3.3-15.5-4-23.3c-0.8-8.7-0.5-17.5-0.5-26.2c0-6,0.1-12.1,0.6-18.1c0.8-9.2,1.8-18.3,2.9-27.5
			c0.8-6.7,0.5-13.3-0.6-19.9c-1.4-8.5-2.4-17.2-3.7-25.7C9.2,46.3,9.6,39.4,11.6,32.7z M203.5,225c-1,2.5-3.2,4.4-5.2,3.7
			c-2-0.7-4.3-2-5.5-3.6c-1.3-1.8,0.2-5.4,2.2-6.7c1.5-0.9,1.6-1.9,1.3-3.4c-2.5-11.7-4.9-23.3-5.2-35.3
			c-0.4-15.1,1.3-29.9,5.2-44.6c2.4-8.9,3.7-18,5.1-27.1c1.8-11.9-0.1-23.8-2-35.6c-0.9-5.9-1.5-11.9-1.2-17.8
			c0.4-7.1,1.9-14.1,3-21.1c0.2-1.5,0.2-2.5-1.1-3.6c-3.3-2.6-3.8-8.9-1.1-11.4c1.2-1.1,2.6-2.2,4-0.6c1.3,1.5,1,2.8-0.7,4.1
			c-0.7,0.5-0.7,1.8-1,2.7c1,0.3,2.2,1.1,3.1,0.9c3.1-0.6,4.5-3.8,3.3-6.7c-1.5-3.8-5.5-7.5-10-6.8c-2.4,0.4-4.8,1-7.3,1.4
			c-3.5,0.6-7,1.5-10.5,1.4c-3.4-0.1-6.7-1.5-10.1-2.2c-7.5-1.4-15.1-2.9-22.8-2.4c-6.1,0.3-12.2,1-18.3,0.8
			c-7.3-0.3-14.7-0.9-21.9-2.2c-11.5-2-23.1-3.5-34.8-3.6c-6,0-12,0.6-18.1,0.8C47.8,6.1,42,7,36.6,10c-4.6,2.6-9.6,3.1-14.8,1
			c-3-1.2-6.3-2.6-9.7-1.2c-1.9,0.8-3.8,1.8-5.5,2.9c-3.1,2.1-4.5,6.9-2.9,9.4c2.1,3.2,7.9,4.9,10.9,3c0.9-0.6,1.4-1.8,2.1-2.7
			c-0.9-0.5-1.8-1.2-2.8-1.5c-1.8-0.5-2.3-1.2-1.2-2.7c0.4-0.6,1.3-1.3,2-1.3c1.6,0,3.5-0.2,4.3,1.9c0.3,0.9,0.6,1.8,1,2.6
			c1.7,3.5,0.5,7.4-2.6,9.6c-0.8,0.5-1.6,1.6-1.7,2.5c-0.4,4.6-1.2,9.3-0.8,13.9C16,57,17.2,66.7,19,76.2c1.4,7.6,0.9,15.1,0.4,22.7
			c-0.8,12-1.9,23.9-2.5,35.9c-0.3,5.4,0.4,10.8,0.3,16.2c-0.2,12.2,1.3,24.3,3.6,36.2c1.3,6.9,2.1,13.8,0.4,20.7
			c-0.8,3.3-1.8,6.8,1.2,9.7c0.4,0.4,0.5,1.1,0.7,1.7c0.9,3.5-0.6,6.4-4,7.8c-3.3,1.3-6.1,0.4-7.6-2.7c-0.3-0.5-0.2-1.7,0.2-2
			c0.6-0.4,1.5-0.3,2.3-0.3c0.7,0,1.4,0.2,2,0.3c-0.3-1,0.9-2.6-1.2-2.9c-0.5-0.1-1-0.4-1.3-0.8c-1.7-2.1-3.6-2.5-5.8-1
			c-4,2.7-3.9,7.5,0.5,10.6c6.6,4.6,13.7,4.6,21,1.5c5.9-2.5,11.8-4.9,18.4-4.2c7.5,0.8,15,1.8,22.5,2.9c9.1,1.3,18.2,3,27.5,2.5
			c7-0.3,14.1-0.6,21.1-1c2.9-0.2,5.7-0.3,8.5-0.9c10.7-2.1,21.4-2.7,32,0c4.4,1.1,8.5,0.8,12.7-0.4c3.5-1,7-1,10.5,0.1
			c6.2,1.8,12.6,1.6,18.9,1.5c2,0,4.9-4.9,4.1-6.6c-0.3-0.6-0.9-1.3-1.5-1.4c-1.4-0.2-2.8-0.3-4.1-0.1c-0.5,0.1-0.8,1.1-1.2,1.7
			c0.5,0.3,1,0.8,1.6,0.9C201.1,225.1,202.1,225,203.5,225z"/>
		<path d="M173.7,221.9c-9.7,0-19.5-0.1-29.2,0c-7.5,0.1-15,0.4-22.5,0.5c-5.3,0.1-10.7-0.2-16-0.1c-6.7,0.1-13.5,0.8-20.2,0.8
			c-6.3,0-12.5-0.9-18.7-1.1c-7.5-0.2-15,0.1-22.5-0.2c-4.2-0.1-8.3-0.8-12.4-1.3c-1.8-0.2-3-1.2-3.3-3c-0.4-2.5-0.9-5.1-0.9-7.6
			c0.3-15.9,0.9-31.7,0.9-47.6c0-11.5-0.3-23.1-3.1-34.4c-1.8-7.2-0.9-14.6-0.4-22c0.8-11.7,3.1-23.2,2.4-35
			c-0.6-10.4-1.4-20.7-2.2-31c-0.2-3.2-0.4-6.5-0.6-9.7c-0.2-3.8,0.9-7.2,3.4-10.1c0.6-0.7,0.9-1.8,1.6-2.4c0.8-0.7,1.9-1.3,2.9-1.5
			c5.6-1.1,11.2-0.4,16.9,0c10,0.8,20.1,0.9,30.1-0.7c6-0.9,12-1.9,18-2c5.1-0.1,10.2,0.9,15.2,1.4c8.2,0.8,16.3,2.2,24.5,2.4
			c11.1,0.3,22.1-0.1,33.2-0.3c3.8,0,7.6,0.1,11.4-0.2c4.4-0.4,6.9,2.4,9.3,5.3c3.1,3.7,3.3,8.2,4,12.7c1.4,9.1,0.5,18.1-1,27
			c-1.6,9.3-1.3,18.7,0.1,28c1.1,7.1-0.2,13.8-2.2,20.6c-2.1,7-3.4,14.1-3.9,21.4c-0.7,11.4-1.7,22.7-2.1,34.1
			c-0.2,7.2,0.7,14.5,0.9,21.8c0.3,9.5,0.4,19,0.5,28.6c0,1-0.3,1.8,1.2,2.3c1.3,0.4,1.2,2.1-0.2,2.6c-1.3,0.5-2.7,0.7-4.1,0.7
			C181,221.9,177.3,221.8,173.7,221.9C173.7,221.9,173.7,221.9,173.7,221.9z M117.6,68.9c-0.1,0.2-0.2,0.5-0.3,0.7c-1,0-2,0-3,0
			c-4.1-0.2-8.2-0.8-12.3-0.5c-9.2,0.7-17.6,4.2-25.2,9.3c-5.2,3.5-9.6,7.6-10.2,14.4c-0.4,4.7-0.1,9.3,1.2,13.8
			c3.1,10.9,10.9,17.1,21.1,20.6c13.8,4.7,27.6,3.6,41-2.1c7.6-3.3,14-8.2,18.5-15.3c3.7-5.8,5-12.3,5.3-19c0.1-4.1-1.1-7.5-5.3-9.1
			c-0.5-0.2-0.6-1.1-0.9-1.6c0.6-0.3,1.1-0.7,1.7-0.7c0.6,0,1.2,0.3,1.7,0.7c2.3,1.8,4.2,3.9,4.5,6.8c0.3,3.4,0.7,6.8,0.3,10.1
			c-1.5,11.7-7.4,20.8-17.3,27.3c1,3.8,2.3,7.6,2.9,11.4c1.7,10.2,2.9,20.5,4.6,30.8c2.2,13.5,4.7,27,7.1,40.5
			c0.8,4.2,0.9,4.2,5.1,4.7c4.1,0.5,4.2,0.5,4.2,4.7c0,2.1,0.8,2.8,2.9,2.7c6.2-0.2,12.4-0.4,18.6-0.5c0.3,0,0.6-0.1,1-0.2
			c0-1.9,0-3.7,0-5.6c-0.1-8.5-0.2-17-0.5-25.5c-0.2-6.2-1-12.4-0.9-18.6c0.1-8.1,0.6-16.2,1.2-24.4c0.8-11.8,1.3-23.7,5-35.1
			c2.6-7.8,3-15.5,1.9-23.6c-1.1-8.3-1.3-16.7,0.2-25c1.8-10,1.8-19.9,0.6-30c-0.9-7.1-5.9-10.7-12.5-10.8
			c-7.4-0.2-14.9,0.2-22.3,0.2c-12.7,0-25.4,1.5-38-1.2c-12.7-2.8-25.5-2.8-38.3-0.5c-9.4,1.7-19,1.7-28.5,1
			c-4.3-0.3-8.6-0.6-12.9-1c-1.7-0.1-3.2,0.1-3.2,1.8c-2,0.6-4,0.7-5.4,1.6c-2.4,1.7-3.8,4.3-3.7,7.4c0.2,5.8,0.3,11.6,0.7,17.4
			c0.6,9.1,1.9,18.2,1.9,27.3c-0.1,10.9-1.1,21.8-2,32.7c-0.6,7.5-1.4,15,0.3,22.4c2.6,11.1,2.9,22.4,3,33.7c0.1,14-0.6,28-0.9,42.1
			c-0.1,3.4,0,6.8,0.3,10.2c0.1,0.9,0.9,2.4,1.7,2.6c6,1.9,12.2,1.9,18.4,1.4c1.3-0.1,1.8-0.9,1.6-2c-0.5-2.6,1-3.5,3.1-4
			c1.4-0.3,2.9-0.5,4.3-0.5c1.7,0,2.9-0.5,3.3-2.2c2-7.8,4.2-15.6,5.9-23.4c1.8-8,2.8-16.2,4.7-24.1c2.6-10.5,5.7-20.9,8.9-31.3
			c0.8-2.5,0.4-3.8-2-5.1c-13.4-7.3-18.8-22.9-16-36.1c0.6-3.1,2.4-6.3,4.5-8.7c4.4-4.9,10.2-8.1,16.2-10.7
			c9.6-4.1,19.5-4.2,29.6-2.7C116,68.1,116.8,68.6,117.6,68.9z M134.1,131.1c-15.9,8.2-32.2,7.4-48.7,5.2c-0.1,0.4-0.2,0.8-0.3,1.2
			c-2,8.4-4.1,16.7-5.9,25.1c-2,9.5-3.8,19.1-5.6,28.7c-1.6,8.6-3.1,17.2-4.5,25.8c-0.1,0.7,0.7,2.1,1.2,2.1
			c4.5,0.4,8.9,0.9,13.4,0.8c12.1-0.2,24.1-0.6,36.1-0.9c7.7-0.2,15.5-0.3,23.2-0.4c1.7,0,2.4-0.7,2.2-2.4c-0.3-2.3-0.4-4.6-0.7-6.9
			c-0.6-6.4-1.1-12.8-1.9-19.2c-2-15.2-4.2-30.3-6.4-45.5C135.6,140.3,134.8,135.9,134.1,131.1z"/>
		<path d="M112.3,102.4c0-2.2,1.6-3.9,3.7-3.9c1.9,0,3.1,1.3,3.1,3.3c0,2.3-1.6,3.9-3.7,3.9C113.5,105.6,112.3,104.4,112.3,102.4z"
			/>
		<path d="M95.2,100.5c0-2.1,1-3.3,2.7-3.3c1.5,0,3,1.8,3,3.6c0,1.7-1.8,4.3-2.9,4.3C96.6,104.9,95.2,102.7,95.2,100.5z"/>
	</g>
</g>
</svg>
