<?xml version="1.0" encoding="utf-8"?>
<!-- Generator: Adobe Illustrator 19.1.0, SVG Export Plug-In . SVG Version: 6.00 Build 0)  -->
<svg version="1.1" id="Calque_1" xmlns="http://www.w3.org/2000/svg" xmlns:xlink="http://www.w3.org/1999/xlink" x="0px" y="0px"
	 viewBox="0 0 288.4 250.6" style="enable-background:new 0 0 288.4 250.6;" xml:space="preserve">
<style type="text/css">
	.st0{fill:#E01220;}
	.st1{fill:#1F7CAD;}
	.st2{fill:#C0BFBF;}
	.st3{fill:#1F7CAD;stroke:#000000;stroke-width:2;stroke-miterlimit:10;}
	.st4{fill:#6DA3C3;}
	.st5{fill:none;stroke:#E01220;stroke-width:3;stroke-miterlimit:10;}
	.st6{fill:#F5FBF9;}
	.st7{fill:#1D1D1B;}
</style>
<g>
	<path d="M214.3,250c-5.1,1.1-127.9,0.3-131.3,0.4c-3,0-7.1,0-9,0S3.3,133.1,1.1,129.1c-1.3-2.3-1.5-4.7,0-7.2
		C5,115.4,68.3,6.7,69.5,3.8c0.4-1,0.9-1.5,1.9-1.5c3.4,0,140.2-1.7,144-2.2c1.7-0.2,3.3,0.2,4.3,1.9c1.8,3.1,3.6,6.2,5.3,9.3
		c4.1,7.3,61.1,108.9,61.8,109.7c1.9,2.5,2.2,5.2,0.7,8c-0.7,1.4-1.3,2.9-2.1,4.3c-3.6,6.5-7.3,12.9-11,19.4
		c-3.2,5.6-45.8,78.1-49.3,83.5C221.9,241.1,217.3,249.4,214.3,250z M127.6,164.4c-0.3,3,0.3,8.1-2,7.9s-1.8-0.4-2.9,1.8
		c-2.4,4.5-4.6,9.2-7.1,13.7c-1.8,3.4-4.2,6.3-7.7,8c-1.7,0.8-3.6,1.2-5.3-0.1c-2.2-1.6-4.4-3.1-6.4-4.8c-5.6-4.9-11.2-10-16.8-15
		c-1.5-1.4-3.2-2.5-5.4-4.2c0.4,1.7,0.6,2.7,0.9,3.6c0.5,1.6,1.2,3.2,1.7,4.8c2.3,7.5,17.3,58.3,22.2,65.1c1.6,0,3.4,0.1,5.2,0
		c7.9-0.3,94.7,0,104.3,0c1,0,1.6-0.3,2.2-1.2c2.2-3.8,4.6-7.4,6.8-11.2c3.6-6.5,7-13.1,10.6-19.6c3.8-6.9,7.6-13.9,11.6-20.7
		c6.9-11.8,14-23.5,20.9-35.2c3-5,5.8-10.2,8.8-15.1c3.3-5.4,6.8-10.7,10.2-16c0.9-1.4,1.1-2.5,0.2-4.1c-1.6-2.6-2.9-5.4-4.4-8.1
		c-3.6-6.4-7.1-12.8-10.7-19.2c-4.5-7.8-9.1-15.5-13.6-23.3c-2.8-4.9-5.5-9.8-8.3-14.7c-2.3-3.9-4.7-7.8-7-11.8
		c-2.9-5.3-5.7-10.7-8.6-15.9c-3.7-6.7-6.4-12.2-10.2-18.9c-1.2-2.2-2.5-4.4-3.6-6.3C211.3,3.8,78.4,5.7,74.4,5.5
		c-1.2,0-2,0.4-2.5,1.6c-1.7,3.6-3.4,7.2-5.3,10.6c-6.1,10.4-12.3,20.8-18.5,31.2c-2.5,4.2-5.3,8.4-7.8,12.6
		c-3.1,5.4-6.9,11.7-10.2,17.6c2.6-0.3,12.4-1.7,20.5-0.8c9.3,1.1,19.7,4.5,29.2,15.9c4.9,5.9,10.1,15.5,10.4,16.6
		c5.2-2.4,9.5-4.5,14.5-6.8c8.5-3.9,17.1-7.8,25.7-11.7c8.2-3.7,16.5-7.3,24.7-11.1c5.4-2.4,10.8-5,16.2-7.4
		c5.1-2.3,10.3-4.6,15.4-7c1.5-0.7,2.6-0.4,3.8,0.6c2.7,2.5,4.7,5.6,6.3,8.9c1.5,3.1,3.1,6.1,4.7,9.4c8-5,21.3-13.7,23.2-14.5
		c1.8-0.8,5.3,3.1,6,6.3c0.3,1.5,0.2,2.6-1.4,3.5c-3.1,1.6-6,3.5-9,5.1c-5.1,2.7-10.3,5.3-15.3,7.9c1.1,4.9,2.1,9.5,3.1,14
		c0.3,1.3,1.1,1.6,2.2,1.4c6.4-0.9,12.9-1.8,19.3-2.8c4.8-0.7,11.7-2.1,14.5-2.5c2.8-0.5,5.3,10.1,1.7,10.7c-4,0.6-7.9,1.2-11.9,1.7
		c-7.1,0.7-14.2,1.3-21.2,2c-0.8,0.1-1.6,0.1-2.3,0.1c0.2,2.3,0.7,6.8,0.7,12.7c6,1.4,13.2,3.1,19.3,4.5c6.1,1.4,12.2,2.7,18.2,4.1
		c2.5,0.6,3.7,1.8,3.2,3.8c-0.8,3.6-2.3,8.5-4.3,9.8c-2,1.3-24.1-7.7-36.3-11.5c-0.5,5-2.6,14.2-3.9,14.2c-1.4,0-2.6,0-3.9,0
		c-2.8-0.1-5.5-0.3-8.3-0.4c-5.6-0.3-11.3-0.6-16.9-0.8c-5.5-0.3-11.1-0.5-16.6-0.7c-4.6-0.2-9.1-0.3-13.7-0.4c-2.5-0.1-5.1,0-7.6,0
		c-0.7,2.8-1.4,5.2-2,7.7c-0.7,3-0.7,3.2-3.9,3.2C132.1,164.4,129.9,164.4,127.6,164.4z M183.1,72.1c-5.7,2.5-11.2,4.8-16.5,7.3
		c-4,1.8-7.8,3.9-11.7,5.7c-6.7,3.1-13.5,6-20.3,9c-5.3,2.3-10.5,4.6-15.7,7c-9.4,4.3-18.7,8.6-28.1,12.9c-1,0.4-2,1.1-2.5,1.9
		c-0.8,1.4-1.3,3.1-1.8,4.7c-1.3,4.2-1.3,8.5-0.7,12.9c0.7,4.8,1.1,9.6,4.2,13.9c2.9,0.2,5.9,0.3,9,0.6c4.9,0.4,9.8,1,14.8,1.2
		c5.6,0.3,11.1,0.2,16.7,0.4c8.1,0.2,16.3,0.4,24.4,0.6c4.6,0.1,9.1,0.2,13.7,0.4c5.1,0.2,10.2,0.6,15.3,0.9c0.4,0,0.8,0.1,1.2,0.1
		c4.2,0.2,8.4,0.4,12.6,0.5c-0.7-1.3-1.8-2-2.6-3c-3.3-3.6-5.8-7.7-8.1-12c-2.5-4.8-3.9-9.9-5.3-15.1c-1.6-6-2.5-12.2-2.6-18.5
		c0-4.3,0.2-8.5,0.5-12.8c0.2-2.7,0.5-5.3,1.1-7.9C181.1,79.6,182.1,76.1,183.1,72.1z M88.7,150.5c-2.2,0.1-3.7,0.2-5.3,0.3
		c-0.7,0-1.5,0.2-2-0.1c-2.2-1.1-4.1-2.4-5.4-4.8c-1.8-3.4-2.7-7.1-3.2-10.7c-0.7-5.1-1.3-10.2,1-15.2c0.7-1.5,1.4-2.5,2.8-3
		c2.6-1.1,5.1-2.1,7.7-3.2c1.8-0.8,2.7-2.1,2.2-3.7c-0.9-2.8-4.6-8.8-4.9-9.3c-2.7-4.1-5.6-8.2-9.7-11.1c-3.3-2.4-4.4-3.7-10.3-6.3
		S42.4,78.8,30.6,82c-1.5,0.1-2.2,0.5-3,1.8c-4.3,7.3-8.7,14.6-13.1,21.9c-3.4,5.8-6.7,11.7-10.2,17.4c-1,1.6-1,2.9-0.1,4.3
		c0.4,0.6,0.8,1.2,1.1,1.7c1.2,2,22.9,38.1,25.4,42.1c0.4,0.7,1.2,1.5,1.8,1.6c3.2,0.3,6.5,0.7,9.8,0.5c6-0.3,11.9-1.6,17.7-3.1
		c8-2,15.4-5.5,21.8-10.8C84.6,157.2,86.7,154.4,88.7,150.5z M37.5,182.7c0.3,0.9,0.3,1.5,0.6,1.9c3.9,6.9,33.6,55,34.9,57.8
		c1,2.3,2.7,2.8,5,2.7c4.8-0.2,9.7-0.3,14.6-0.5c0.6,0,1.3-0.1,1.6-0.1c-4.5-10.7-7.3-21.9-11-32.7c-3.8-10.9-6.9-22-10.3-33.2
		C61.3,181,49.8,183.4,37.5,182.7z M74.6,168.7c3.7,2.9,7.1,5.4,10.4,8.2c5.4,4.6,10.7,9.4,16.1,14c3.6,3.1,5.4,2.8,8.6-0.9
		c0.4-0.4,0.8-0.9,1.1-1.4c3.1-5.5,6.2-11,9.5-16.8c-3.3-1.9-1-4.6-1.3-7.1c-2.7-0.3-5.8-0.3-8.6-0.5c-1.8-0.2-2-2.5-2-4.3
		c0.1-2.5,0-4.9,0-7.7c-6.1-0.5-10.4-1-16.5-1.5c-0.6,3.6-9.2,13.5-12.7,15.4C77.8,166.9,76.3,167.8,74.6,168.7z M188.9,70.3
		c-0.7,1.5-1.3,2.6-1.6,3.8c-5.5,18.4-4.6,35.7-3.6,41.3c3,15.9,12.4,28.1,14.2,30.6c1.5,2,3.1,3.8,4.9,5.6c1.4,1.4,2.8,1,3.2-0.9
		c0.6-2.6,0.9-5.2,1.4-7.9c0.3-1.7-0.5-2.5-2.1-3c-2.7-0.9-5.4-2-8.1-3c-1-0.4-1.9-0.8-1.8-2c0.2-2.1-0.5-6.2,0.8-6.6
		c1.2-0.4,9.3,1.8,11.5,2.1c-0.4-4.2-0.8-8-1.2-11.8c-2.4,0-5.7,0.3-7.7,0.5c-3.5,0-3.5,0-5.6-4.1c-1.1-2.1-0.5-3,1.8-3.3
		c3.2-0.4,6.4-1,9.6-1.5c-0.5-5-1.6-9.6-3.3-14.4c-1.9,0.8-3.5,1.3-5.1,2.2c-3.4,1.8-4.3-0.2-5.6-1.6c-1.3-1.5-1.3-3.3,0-4
		c2.1-1.2,4.1-2.4,6.1-3.7c1.6-1,1.7-1.5,0.9-3.2c-0.5-1.1-1-2.1-1.6-3.2C193.7,78.4,192.2,74.1,188.9,70.3z M131.1,153
		c-4.6,0-9.6,0-13.9,0c-0.3,0.9-0.1,1.7,0,2.6c1.5,0.1,2.9,0.3,3.3-0.3c0.8-1.4,2.1-1.3,3.1-1.1c2.1,0.3,5.8,1.7,7.5,1.6
		C131.2,154.7,131.1,153.9,131.1,153z M111.3,158c0,0.5-0.6,2.7,0.3,3.4s5.8,0,7.5,0.2c0,0,0.2-1.7,0.4-3.9
		C117.2,158,113.5,157.5,111.3,158z M136.4,158c-3.4-0.3-7,0.2-7,0.2c-0.8,2.2-1.4,3.4-0.5,3.4c1.3,0,5.1,0.2,6.2-0.3
		C136.1,161,136.1,159.3,136.4,158z"/>
	<path d="M60,152.9c-3.3,1.8-6.8,3.1-10.6,3.4c-5.2,0.4-10-1.5-13.5-5.1c-2.5-2.6-3.7-6.4-2.7-10.2c1.1-4.4,3.2-8,7.3-10.3
		c4.5-2.5,9-4.2,14.4-3.6c5.9,0.6,9,3.5,10.7,9C67.4,141.7,64.5,150.5,60,152.9z M37.5,148.1c0.4,0.5,0.7,1.1,1.2,1.5
		c3.7,3.1,7.8,4.1,12.5,2.9c3.9-1,7.8-2.2,10.4-6c-1.3-2.1-2.1-3.6-4.4-3.8c-1.7-0.2-3.6-0.3-5,1.4c0.2,0.8,0.3,1.6,0.6,2.3
		c0.3,0.9,0.7,1.8-0.3,2.3c-1.2,0.7-1.6,0.4-2.8-1c-1.1-1.3-1.7-3.3-3.2-3C43.4,144.5,40.2,145.7,37.5,148.1z"/>
	<path d="M35,115.5c2.6,0,5.4,3.7,2.9,6.4c-1.5,1.2-3.9,1.2-5.5-1.1C30.6,118.1,32.3,115.5,35,115.5z"/>
	<path d="M53.8,117.9c-0.4-2.5,1.4-4.9,3.3-4.7c2,0.2,3.2,1.4,3.1,3.9c0,2.3-1.4,3.8-3.4,3.8S54,119.6,53.8,117.9z"/>
	<path id="" d="M183.1,72.1c-5.7,2.5-11.2,4.8-16.5,7.3c-4,1.8-7.8,3.9-11.7,5.7c-6.7,3.1-13.5,6-20.3,9
		c-5.3,2.3-10.5,4.6-15.7,7c-9.4,4.3-18.7,8.6-28.1,12.9c-1,0.4-2,1.1-2.5,1.9c-0.8,1.4-1.3,3.1-1.8,4.7c-1.3,4.2-1.3,8.5-0.7,12.9
		c0.7,4.8,1.1,9.6,4.2,13.9c2.9,0.2,5.9,0.3,9,0.6c4.9,0.4,9.8,1,14.8,1.2c5.6,0.3,11.1,0.2,16.7,0.4c8.1,0.2,16.3,0.4,24.4,0.6
		c4.6,0.1,9.1,0.2,13.7,0.4c5.1,0.2,10.2,0.6,15.3,0.9c0.4,0,0.8,0.1,1.2,0.1c4.2,0.2,8.4,0.4,12.6,0.5c-0.7-1.3-1.8-2-2.6-3
		c-3.3-3.6-5.8-7.7-8.1-12c-2.5-4.8-3.9-9.9-5.3-15.1c-1.6-6-2.5-12.2-2.6-18.5c0-4.3,0.2-8.5,0.5-12.8c0.2-2.7,0.5-5.3,1.1-7.9
		C181.1,79.6,182.1,76.1,183.1,72.1z"/>
	<path id="" d="M37.5,182.7c0.3,0.9,0.3,1.5,0.6,1.9c3.9,6.9,33.6,55,34.9,57.8c1,2.3,2.7,2.8,5,2.7c4.8-0.2,9.7-0.3,14.6-0.5
		c0.6,0,1.3-0.1,1.6-0.1c-4.5-10.7-7.3-21.9-11-32.7c-3.8-10.9-6.9-22-10.3-33.2C61.3,181,49.8,183.4,37.5,182.7z"/>
	<path id="" d="M111.3,158c0,0.5-0.6,2.7,0.3,3.4s5.8,0,7.5,0.2c0,0,0.2-1.7,0.4-3.9C117.2,158,113.5,157.5,111.3,158z"/>
	<path id="" d="M136.4,158c-3.4-0.3-7,0.2-7,0.2c-0.8,2.2-1.4,3.4-0.5,3.4c1.3,0,5.1,0.2,6.2-0.3
		C136.1,161,136.1,159.3,136.4,158z"/>
</g>
</svg>
