<?xml version="1.0" encoding="utf-8"?>
<!-- Generator: Adobe Illustrator 19.1.0, SVG Export Plug-In . SVG Version: 6.00 Build 0)  -->
<svg version="1.1" id="Calque_1" xmlns="http://www.w3.org/2000/svg" xmlns:xlink="http://www.w3.org/1999/xlink" x="0px" y="0px"
	 viewBox="0 0 252.5 245.6" style="enable-background:new 0 0 252.5 245.6;" xml:space="preserve">
<style type="text/css">
	.st0{fill:#254B86;}
	.st1{fill:#254B87;}
	.st2{fill:#492E1F;}
	.st3{fill:#DFB76A;}
	.st4{fill:#BFBEBE;}
	.st5{fill:#6EA2C2;}
	.st6{fill:#224E89;}
	.st7{fill:none;stroke:#224E89;stroke-width:3;stroke-miterlimit:10;}
	.st8{fill:#F5F9F8;}
	.st9{fill:#F5F9F8;stroke:#224E89;stroke-width:3;stroke-miterlimit:10;}
	.st10{fill:#F9CB00;}
	.st11{fill:#DF111A;}
	.st12{fill:#0B6EB1;}
	.st13{fill:#8D1514;}
	.st14{fill:#679FD0;}
	.st15{fill:#008549;}
	.st16{fill:#CB9831;}
	.st17{filter:url(#Adobe_OpacityMaskFilter);}
	.st18{fill:#1D1C1A;}
	.st19{fill:#C99730;}
</style>
<g>
	<path d="M140,124.5c-0.2,0.9-0.3,1.9-0.7,2.6c-0.8,1.6-2.6,1.7-3.4,0.1c-0.5-1.1-0.8-2.4-0.9-3.7c-0.1-1.7,0.4-2.2,1.8-2.5
		c1.5-0.4,2.2,0.6,2.8,1.6C139.9,123.1,139.9,123.8,140,124.5z"/>
	<path d="M119.5,123.4c0,0.7,0,1.1-0.1,1.6c-0.2,0.9-0.4,1.9-1.6,1.9c-1,0-2.1-0.2-2.4-1.4c-0.3-1.2-0.4-2.5-0.3-3.7
		c0.1-1.2,0.9-2.1,2.2-2c1.1,0.1,1.8,0.9,2,2C119.5,122.3,119.5,123,119.5,123.4z"/>
	<path id="" d="M157.4,159.8c-2.4,0.6-4.7,1.5-7,1.7c-10.3,1.1-20.7,1.9-31.1,1.2c-0.5,0-0.9,0-1.4,0
		c-4.9-0.2-9.9-0.6-14.7-1.8c-1-0.2-2.1-0.2-3-0.3c-5.8,16.6-11.5,33-17.2,49.4c4.4,2.3,8.5,4.4,12.9,5.1c1.7-1.4,3.2-2.7,4.8-3.9
		c4.9-3.8,9.7-7.6,14.7-11.2c3.1-2.3,6.4-4.3,9.4-6.6c1.3-1,2.4-0.8,3.5,0c1.6,1.2,3.2,2.4,4.8,3.7c4.8,4.1,9.6,8.3,14.4,12.4
		c2,1.7,4.2,3.2,6,5.2c1,1.2,2.3,2.1,3.4,3.1c5.6-2.8,11.1-5.6,16.8-8.4C167.2,192.9,161.5,176.7,157.4,159.8z"/>
	<path d="M251.9,109.9c-0.5-5.3-1.9-10.5-3.5-15.6c-1.8-5.9-4.3-11.5-6.6-17.3c-4.4-11.2-11.2-20.9-18.8-30
		c-3.6-4.3-7.5-8.4-11.1-12.6c-5.2-6-11.3-10.9-18-14.9c-6.5-3.9-24.4-12.3-26.5-12.9c-5.3-1.5-10.6-2.9-16-4.1
		c-4.1-0.9-8.3-1.6-12.5-2.1c-3.3-0.4-6.6-0.5-9.9-0.5c-4-0.1-19.5,0.6-23.3,1.1c-5.1,0.7-10.2,1.4-15.1,3c-2.7,0.9-5.3,2-8.1,2.8
		c-9.9,3.1-18.6,8.4-27.2,13.8c-5.9,3-26.6,22.5-35.5,36.1C11.8,69.2,7.8,80,6.1,86.1c-1.5,5.4-2.3,11-3.4,16.5
		C2,106.1-0.1,125.1,0,131c0.1,4.3,0.6,8.6,1.1,12.9c1,8.8,3.8,17.2,6.9,25.5c3,8,7.5,15.3,11.9,22.6c2.4,4,5.4,7.5,8,11.4
		c3.7,5.5,8.2,10.2,13.9,13.8c16.5,13.4,42.5,21.2,46.1,22.6c1.1,0.4,2.3,0.6,3.5,0.9c2.8,0.7,5.6,1.7,8.4,2.2
		c4.3,0.8,8.7,1.6,13,2.1c3.7,0.4,7.5,0.7,11.2,0.7c5.2-0.1,10.4-0.6,15.6-1c4.8-0.4,9.7-0.7,14.5-1.4c6.5-1,13-2.6,19.3-4.6
		c8-2.6,15.6-6.1,22.5-11c3.7-2.6,7.5-5.3,11.1-8.1c3.6-2.7,7.2-5.5,10.6-8.4c3.6-3.1,7.2-6.4,9.9-10.3c2.6-3.8,5.3-7.5,7.7-11.4
		c1.4-2.2,2.2-4.7,3.7-6.8c2.8-3.9,4.1-8.4,5.8-12.7c2.1-5.6,3.4-11.6,4.6-17.6c1.2-6.4,2.1-12.9,2.8-19.3
		C252.8,125.3,252.6,117.6,251.9,109.9z M147.6,209.3c-4.9-4.1-9.6-8.3-14.4-12.4c-1.5-1.3-3.1-2.5-4.8-3.7c-1.1-0.8-2.2-0.9-3.5,0
		c-3.1,2.3-6.3,4.3-9.4,6.6c-4.9,3.7-9.8,7.5-14.7,11.2c-1.6,1.2-3.1,2.6-4.8,3.9c-4.5-0.8-8.5-2.9-12.9-5.1
		c5.7-16.4,11.4-32.8,17.2-49.4c0.9,0.1,2,0.1,3,0.3c4.8,1.2,9.8,1.6,14.7,1.8c0.5,0,0.9,0,1.4,0c10.4,0.8,20.7-0.1,31.1-1.2
		c2.3-0.2,4.6-1.1,7-1.7c4.1,16.9,9.8,33.2,16.4,49.4c-5.7,2.8-11.1,5.6-16.8,8.4c-1.1-1-2.4-1.9-3.4-3.1
		C151.9,212.5,149.6,211,147.6,209.3z M100.3,152.2c-1.6-0.5-3.2-1.4-4.7-2.3c-6.1-3.6-11.7-7.8-15.1-14.2
		c-3.5-6.6-5.5-13.6-4.8-21.2c0.3-3.7,1.7-7.1,3.2-10.5c3.8-8.7,9.5-15.8,18-20.1c3.9-2,8.1-3.5,12.2-5c10.4-3.4,21.1-3.1,22.5-3.1
		c14.3,1,25.5,6.5,31.4,9.6c4.1,2.2,7.1,5.6,9.6,9.3c3.2,4.8,5.2,10.1,5.8,15.9c0.5,5.3-0.2,10.5-1.6,15.5
		c-2.3,8.3-7.1,15-13.4,20.5c-4.1,3.6-9,6-14.4,7.2c-6.7,1.6-13.4,3-20.4,3c-5.5-0.1-11,0.1-16.4-1.2
		C108.2,154.7,104.2,153.5,100.3,152.2z M158.8,153.2c3.9-1.4,7-4.3,9.7-7.3c4-4.5,7.6-9.3,9.7-15.2c1.8-5.2,2.7-10.5,2.9-15.9
		c0.1-4.3-0.8-8.6-2.3-12.7c-2.3-6.4-5.9-11.8-10.8-16.4c-2.3-2.1-4.8-3.7-7.7-4.8c-5-1.9-16.6-8.2-35-7.7
		c-5.5,0.1-15.2,2.5-15.5,2.6c-5.1,1.2-9.9,3.2-14.5,5.6c-7.6,4-12.9,10.2-16.9,17.7c-0.9,1.7-1.7,3.5-2.5,5.2
		c-3.2,6.7-3.4,13.6-1.8,20.7c1.5,7,4.4,13.2,9.2,18.6c3.1,3.4,6.8,5.9,10.6,8.3c1.6,1,3.3,2,5.1,3c-1.1,3.7-2,7.2-3.2,10.6
		c-4.5,12.5-9.1,25-13.7,37.4c-2.1-0.7-4.9-2.7-7.4-2.1c-2.3,0.6-5.2-1.5-7.4-3.4c-2.5-2.1-5-4.1-7.3-6.4
		c-6-6.1-11.5-12.6-15.5-20.3c-2-3.7-4.2-7.4-6.2-11c-0.8-1.4-1.5-3-2.3-4.4c-1-1.7-0.7-3,0.6-4.5c3.6-4,6.7-8.3,9.5-12.8
		c2.2-3.6,4.5-7.2,6.7-10.7c0.6-1,1.4-2,2.1-2.9c1.8-2.3,2.1-4.2,0.5-6.6c-3.4-5.2-6.8-10.3-10.3-15.4c-1.6-2.4-3.3-4.9-5-7.2
		c-1.6-2.1-3.4-4.1-5.1-6.2c3.9-10.3,9.6-19.8,16.9-28.3c5.9-6.8,12.6-12.5,20.8-16.5c7.5-3.7,15-7.4,23.1-9.9
		c2.2-0.7,4.4-1.1,6.7-1.4c0.8-0.1,1.8,0.3,2.4,0.8c1.8,1.3,3.5,2.7,5,4.3c2.7,2.8,5.2,5.7,7.8,8.5c1.1,1.2,2.5,2.2,3.7,3.3
		c1,0.9,2.1,1.8,3,2.8c1.7,2.2,4.3,2.8,6.7,1.5c10-5.5,19.5-11.8,28.6-18.8c0.4-0.3,0.8-0.5,1.2-0.9c5.6,2,11,4.5,15.8,8
		c3.3,2.4,6.3,5,9.5,7.5c6.3,5,11.1,11.2,15.4,17.9c3.3,5.3,6.2,10.8,8.3,16.8c1.6,4.6,3.4,9.1,5,13.7c1.1,3,2.2,6.1,2,9.4
		c0,0.7-0.3,1.7-0.8,2.1c-5.8,5.5-11.6,11-17.4,16.5c-0.4,0.4-3.3,3.5-3.5,5.3c-0.2,1.7,0.9,2.6,1.9,3.8c3.3,3.8,6.5,7.8,9.7,11.6
		c2.2,2.6,4.4,5.2,6.6,7.7c0.4,0.4,0.8,0.8,1.2,1.2c3.4,3.5,3.4,3.5,1.3,7.7c-3.4,6.8-8,12.8-12.9,18.5
		c-5.5,6.3-11.3,12.3-17.2,18.6c-0.8-0.9-0.5-2.6-2.1-2.2c-1.6,0.4-5.8,2.8-8.6,4.1C171,195.6,158.8,158.1,158.8,153.2z M157.6,10.6
		c7.5,2.6,15.1,4.8,22.1,8.6c7.5,4,14.4,8.9,20.7,14.6c5.7,5.2,11.1,10.7,16.1,16.7c5.6,6.7,10.7,13.8,14.7,21.6
		c3.1,6.1,6.4,12.1,9.1,18.5c1.5,3.5,2.7,7,3.4,10.7c0.9,5.1,1.9,10.2,2.9,15.8c-9.2-2.1-17.4-5.9-26.4-7.8
		c-0.2-1.1-0.4-2.3-0.6-3.4c-0.5-2.4-0.9-4.9-1.6-7.2c-0.9-3.1-1.9-6.1-3-9.1c-1.1-3-2.4-6-3.7-8.9c-1.6-3.4-3.1-6.9-5-10.1
		c-2-3.5-4.4-6.8-6.7-10.1c-6.2-8.9-14.6-15.4-23.4-21.5c-4.2-2.9-8.9-5.2-13.8-6.8c-2.2-0.7-3.2-1.8-3.2-4.3
		c-1.2-4.7-2.4-15.1-2.7-17.2C157,10.6,157.3,10.5,157.6,10.6z M9.1,85.1c3.3-17,20.1-36.8,24.7-41c3.3-3.1,6.2-6.6,9.4-9.7
		c4.5-4.3,9.2-8.5,14.6-11.7c6-3.6,11.8-7.5,18.3-10.1c5.8-2.3,11.5-5,17.7-6.1c5-0.8,10-1.6,15.4-1.4c-2.2,7.9-6.9,14.9-8.3,23.2
		c-17.2,2.3-32,10-45,21.1c-13,11.1-21.7,25.3-26.9,41.5c-6.8,2.2-13.9,4-21.1,4.9c-0.3,0-0.7,0-1.2,0.1C7,92.1,8,88.6,9.1,85.1z
		 M69.1,229.2c-2.7-1.2-5.4-2.3-8.1-3.5c-2-0.9-4-2-5.8-3.2c-5.7-3.7-11.7-6.9-16.9-11.3c-3.4-2.9-6.3-6.2-8.8-9.8
		c-2.8-4-5.7-7.9-8.2-12c-5.2-8.4-10.2-17-13-26.6c-1.2-4.2-2.7-8.4-3.7-12.7c-0.6-2.6-0.7-5.4-1.1-8.6c2.3,1,4,1.7,5.8,2.4
		c4.1,1.7,8.2,3.3,12.2,5.1c2.4,1.1,4.8,2.3,7.1,3.7c0.8,0.5,1.3,1.6,1.6,2.5c2.4,7.4,6.2,14.2,10.6,20.5c3.2,4.5,6.8,8.7,10.5,12.8
		c5.5,6,11.3,11.6,18,16.2c6.7,4.7,13.6,9.1,21.3,12.1c1.5,0.6,3.1,1.1,4.7,1.4c1.8,0.3,2.9,1.4,3.8,2.9c2.8,4.8,6.9,13.3,8.9,18.5
		C108.5,240.9,87.4,236.9,69.1,229.2z M240.7,162.1c-1.9,5.9-4.3,11.7-7.3,17.3c-3.4,6.5-7.7,12.5-12.6,18c-1.5,1.7-3,3.5-4.6,5.1
		c-3.2,3.2-6.4,6.4-9.8,9.3c-3.9,3.4-7.8,6.7-12.1,9.6c-3.2,2.2-6.8,3.9-10.3,5.6c-4.3,2.1-8.6,4.1-13,6c-1.8,0.8-3.6,1.3-5.5,1.9
		c-5.9,1.9-11.8,3.8-18.3,4.7c1.9-3.9,3.7-7.6,5.5-11.2c0.6-1.2,1.5-2.3,2-3.6c1.3-3.4,4.2-5,7.3-6.3c7.8-3.3,15.4-7.1,21.9-12.5
		c4.6-3.8,8.8-8,12.9-12.4c4.3-4.5,8.3-9.4,12.2-14.2c1.9-2.3,3.5-4.9,5.3-7.4c0.7-1,1.5-2.1,2.2-3.2c0.4-0.6,0.8-1.2,1.1-1.9
		c0.7-1.5,1.3-3,1.7-4.1c7.9-3,15.4-5.9,23.1-8.9C242.5,157,241.5,159.5,240.7,162.1z"/>
</g>
</svg>
