<?xml version="1.0" encoding="utf-8"?>
<!-- Generator: Adobe Illustrator 19.1.0, SVG Export Plug-In . SVG Version: 6.00 Build 0)  -->
<svg version="1.1" id="Calque_1" xmlns="http://www.w3.org/2000/svg" xmlns:xlink="http://www.w3.org/1999/xlink" x="0px" y="0px"
	 viewBox="0 0 296.9 259.6" style="enable-background:new 0 0 296.9 259.6;" xml:space="preserve">
<style type="text/css">
	.st0{fill:#F4A300;}
	.st1{fill:#C0C0C0;}
	.st2{fill:#008A90;}
	.st3{fill:#6DA3C3;}
	.st4{fill:none;stroke:#F8AD3B;stroke-width:3;stroke-miterlimit:10;}
	.st5{fill:#F8AD3B;}
	.st6{fill:none;}
	.st7{fill:#E2F7EF;}
	.st8{fill:#FFFFFF;}
</style>
<g>
	<path id="" class="st0" d="M287.1,126.5c-1.8-1.9-2.9-4.1-4-6.5c-1.3-2.8-2.6-5.5-4.1-8.2c-3.9-7-7.9-14-12-21
		c-5.1-8.7-10.3-17.4-15.5-26c-4.6-7.6-9.3-15.1-13.9-22.7c-1.3-2.1-2.3-4.3-3.5-6.5c-1.9-3.4-3.7-6.8-5.6-10.2
		c-0.7-1.2-1.6-2.4-2.3-3.6c-2.7-4.9-5.4-9.8-8-14.8c-0.9-1.7-2.1-2.6-4.1-2.6c-5.6-0.1-11.2-0.4-16.8-0.6
		c-10.2-0.2-20.4-0.4-30.6-0.6c-9.2-0.2-18.3-0.5-27.5-0.5c-4.9,0-9.8,0.3-14.7,0.4c-8.3,0.1-16.5,0.1-24.8,0.1
		c-5.9,0-11.8,0-17.7,0.1c-2.5,0-5.1,0.2-7.6,0.3c-1.2,0-2.1,0.6-2.7,1.7c-3.8,6.5-7.8,12.9-11.6,19.4c-3.4,5.9-6.5,12-9.8,18
		c-2.3,4.2-4.8,8.3-7.1,12.5C36.6,67.6,30,80.1,23.4,92.5c-0.9,1.6-1.8,3.2-2.7,4.8c-2.9,5.2-5.8,10.5-8.8,15.7
		c-1.9,3.3-4,6.4-6.1,9.5c-1.9,2.9-2.5,5.7-0.3,8.8c0.3,0.4,0.3,1,0.5,1.4c2.8,5.8,5.1,11.9,8.5,17.3c7.3,11.6,13.2,23.9,19.9,35.9
		c3.6,6.4,7.1,12.9,11,19.1c4,6.4,8.7,12.3,12.8,18.6c5.2,7.8,10.3,15.7,15.1,23.7c1.7,2.8,3.5,4.7,7,3.7c0.2-0.1,0.4,0,0.6,0
		c7.4,0.1,14.9,0.2,22.3,0.1c14.1-0.1,28.1-0.4,42.2-0.6c4.3-0.1,8.6,0.2,12.8,0.1c9.2-0.2,18-0.6,27.2-0.9c3.2-0.1,6.2,0,9.2,0
		c0,0,0,0,0,0c6,0,12.4,0,18.4,0c1.9,0,3-0.8,4-2.4c4.1-7.3,8.4-14.5,12.6-21.7c4.9-8.2,9.9-16.4,15-24.6
		c6.7-10.7,13.4-21.5,20.3-32c8-12.1,15.2-24.6,22.6-37.1C288.9,129.7,288.5,128,287.1,126.5z M133.2,212.2c-1.3,0-2.6,0-3.9,0.1
		c-1.9,0.1-2.9-0.9-3-2.8c-0.1-2.2-0.1-4.5-0.2-6.7c-0.1-1.9,0.5-2.6,2.5-2.5c5.9,0.2,11.9,0.2,17.8,0.3c1.5,0,2.5,0.6,2.5,2.3
		c0.2,2.8,0.5,5.7,0.8,9C144,212,138.6,212.1,133.2,212.2z M182.3,108.8c-0.5,7.5-2,10.5-3.5,15.6c-2.5,8.6-8.1,15.2-14.6,21.1
		c-3.8,3.4-7.5,7-11.1,10.8c-2.3,2.5-2.7,5.8-2.7,9.1c0,3.7-0.2,7.5-0.2,11.2c0,1,0.4,1.8,0.7,3.8c-7.7,0-15.1,0-22.2,0
		c0-6-0.2-12.6,0-18.7c0.3-8.3,3.6-15.3,10.4-20.4c4.7-3.5,9.4-7.2,13.6-11.3c5.2-5.2,8.4-11.7,8.7-19.2c0.2-6.2-1-12.2-5.1-17.3
		c-2.7-3.3-6.1-4.9-10.1-5.4c-8-1-14.1,3.1-19.9,7.8c-4.4,3.6-7.7,8.2-10.1,13.3c-0.9,1.9-1.8,2.4-3.9,1.7
		c-3.6-1.3-7.4-2.2-11.1-3.3c-1.4-0.4-2.3-1.1-1.9-2.8c2.4-11.4,6.7-21.8,15.4-29.9c4.6-4.2,10.2-6.7,16-8.8
		c9.4-3.3,18.9-2.6,28.3-1.2c2.7,0.4,5.3,1.8,7.6,3.4C179.9,77.3,184.4,92.3,182.3,108.8z"/>
	<g>
		<path d="M163.3,185.7c-1.1,0.5-1.5,0.5-3,0.5c-10.9-0.2-29.8-0.4-32.3-0.3c-4,0.3-3.1-1.5-3.2-6c0-0.7,0.1-1.3,0.2-2
			c0.5-7.8,0.5-15.6,1.5-23.3c0.9-7,5.5-12.2,10.9-16.5c3.8-3,7.9-5.9,11.5-9.2c7.7-7.1,11.7-18,8.1-28.4c-1.6-4.5-3.8-5.4-8.4-4.1
			c-3.3,0.9-6.6,3.3-9.1,5.9c-3.5,3.7-6.3,8.1-9.4,12.3c-0.5,0.7-0.8,1.5-1.2,2.4c-0.7,1.6-1.2,4.4-1.9,4.5
			c-2.1,0.2-4.4-0.6-6.5-1.3c-3.6-1.2-7.2-2.7-10.8-4.1c-4.2-1.6-8.3-3.2-12.4-4.9c-0.5-0.2-1-1.4-0.9-2.1c0.6-4.4,0.9-8.9,2.2-13.1
			c2.6-8.3,6.5-15.9,12.7-22.2c5.4-5.5,12.2-8.5,19.3-10.8c9.4-3.1,18.9-2.6,28.4-1c3.3,0.6,6.8,2.1,9.6,4
			c10.6,7.2,16.6,17.5,17.9,30.1c0.5,4.8-0.8,26-4.7,33.5c-3,5.8-5.5,10.8-8.9,15.6c-3.4,4.7-7.8,9-8.6,15.1
			c-0.7,4.7-0.6,9.6-0.7,14.4c0,1.9,0.2,3.8,0.4,5.8C164.2,181.9,164.4,185.2,163.3,185.7z M150.9,180.1c-0.3-1.6-0.7-2.6-0.7-3.6
			c0-3.7,0.2-7.4,0.2-11c0-3.3,0.4-6.6,2.7-9.1c3.5-3.8,7.2-7.3,11.1-10.8c6.5-5.9,12.1-12.5,14.6-21.1c1.5-5.1,3-8.2,3.5-15.6
			c2.1-16.5-2.4-31.6-15.6-40.4c-2.3-1.5-5-2.9-7.6-3.4c-9.5-1.5-19-2.2-28.3,1.2c-5.8,2.1-11.4,4.5-16,8.8
			c-8.7,8.1-13,18.5-15.4,29.9c-0.4,1.8,0.5,2.4,1.9,2.8c3.7,1.1,7.5,2,11.1,3.3c2,0.7,3,0.2,3.9-1.7c2.4-5.1,5.7-9.7,10.1-13.3
			c5.8-4.7,11.9-8.8,19.9-7.8c4,0.5,7.4,2.1,10.1,5.4c4.1,5.1,5.3,11,5.1,17.3c-0.3,7.5-3.4,14-8.7,19.2c-4.2,4.1-8.9,7.7-13.6,11.2
			c-6.8,5.1-10.1,12-10.4,20.3c-0.2,6.1,0,12.2,0,18.5C135.9,180.1,143.3,180.1,150.9,180.1z"/>
		<path d="M128.2,218.6c-2.2,0.1-3-1.4-3.5-2.9c-1.9-5.9-2.4-12-1.4-18.1c0.1-0.5,1.2-1.3,1.8-1.3c4.7-0.1,9.4-0.1,14.1,0.1
			c5.9,0.2,11.9,0.6,17.8,0.9c3.6,0.2,4.9,1.6,4.7,5.2c-0.1,3.2,0.1,6.5,0.1,9.7c0.1,4.1-1.4,5.7-5.4,5.8
			C152,218.1,133.1,218.5,128.2,218.6z M149.8,211.9c-0.3-3.3-0.6-6.2-0.8-9c-0.1-1.7-1.1-2.3-2.5-2.3c-5.9-0.1-11.9-0.1-17.8-0.3
			c-2.1-0.1-2.6,0.7-2.6,2.5c0.1,2.2,0.1,4.5,0.2,6.7c0.1,1.9,1,2.9,3,2.8c1.3-0.1,2.6-0.1,3.9-0.1C138.6,212.1,144,212,149.8,211.9
			z"/>
		<path d="M69.2,216.9c-0.7-0.8,0.4-2.1,1-2.7c3.3-3.4,6.7-6.7,10.1-10c7.5-7,15-14,22.6-20.9c0.7-0.6,2-1.7,3.4-0.4
			c1.3,1.3-0.9,3.6-1.1,3.8c-6.7,6.5-13.4,13-20.2,19.4c-4,3.8-8.4,7.2-12.6,10.8C71.9,217.4,70.3,218,69.2,216.9z"/>
		<path d="M191.1,60.1c-1.1-1.2-2.1-2.1-2.8-3.2c-0.1-0.2,1.1-1.5,1.9-2c8.8-6.2,17.6-12.4,26.5-18.6c1.2-0.8,2.6-2.3,3.8-0.5
			c0.9,1.3,1.2,3-0.9,4.4c-8.6,6-17,12.3-25.5,18.4C193.3,59.1,192.3,59.5,191.1,60.1z"/>
		<path d="M184.2,193c1.5,0,2.6,1.1,3.6,1.9c4.5,3.9,8.9,7.9,13.3,11.9c4.8,4.4,9.6,8.9,14.4,13.4c0.4,0.4,0.4,2,0.2,2.1
			c-0.8,0.3-2,0.6-2.6,0.2c-1.5-1-2.8-2.4-4.2-3.5c-8.4-7-16.8-14-25.2-21.1c-0.8-0.7-1.5-1.1-1.5-2.4S182.7,193,184.2,193z"/>
		<path d="M68.2,40.6c1.2-1.2,2.6-0.9,3.2-0.4c7.1,5.5,14.2,11.1,21.3,16.7c0.7,0.5,1.4,1.1,2.1,1.6c1.4,0.9,1.8,2,0.9,3.3
			c-0.9,1.4-2.2,1.2-3.4,0.3c-3.6-2.8-7.2-5.7-10.8-8.4c-4.1-3.1-8.2-6-12.3-9.1C68.5,44,67.1,41.8,68.2,40.6z"/>
		<path d="M94.8,210c-1.1-0.5-0.5-2.1-0.2-2.5c4.7-5.6,9.5-11.2,14.3-16.8c0.5-0.6,1.3-1.2,1.9-1.2c0.7-0.1,1.8,0.3,2.2,0.8
			c0.3,0.5,0.2,1.8-0.2,2.2c-4.5,5.1-9.2,10-13.7,15.1C98.2,208.6,96,210.5,94.8,210z"/>
		<path d="M101,176.6c-0.3,0.3-0.7,0.8-1.3,1.1c-5.2,3.6-10.3,7.1-15.5,10.6c-0.6,0.4-1.9,0.6-2.6,0.1c-0.7-0.5,0-2.2,0.6-2.7
			c3.1-2.5,6.4-4.8,9.7-7.1c2-1.4,4-2.9,6-4.1C99.4,173.6,101.1,174.6,101,176.6z"/>
		<path d="M175.7,202.5c1.2-1.3,3.1,0.4,4,0.9c5.1,3.3,10.1,6.6,15.1,9.9c1,1.1,1.4,1.9,0.8,2.8s-3.3-0.5-3.9-0.8
			c-5.3-3.3-10.6-6.6-15.8-9.9C175.3,205,174.7,203.6,175.7,202.5z"/>
		<path d="M192,68.9c-0.6-1.1,0.7-2.4,1.3-2.6c4.8-1.8,9.7-3.4,14.6-5c0.9-0.3,2.2-0.4,3,0c1.2,0.6,1.6,2,0.1,2.6
			c-5.6,2.2-10.2,3.9-15.8,5.9C193.5,70.3,192.4,69.5,192,68.9z"/>
		<path d="M104.6,54.7c-1,0.9-2.8,0.2-3.2-0.2c-3.2-3.3-6.3-6.6-9.3-10c-0.4-0.5-0.8-1.9,0.5-2.8s2.2-1.2,3.1-0.3
			c1,1,1.7,2.2,2.6,3.3c1.8,2.2,3.6,4.3,5.4,6.4C104.1,51.8,105.9,53.6,104.6,54.7z"/>
		<path d="M189.6,45c-1.5,1.5-3,3-4.7,4.1c-0.8,0.6-2.6,0.8-3.3,0.3c-1.3-0.9-0.5-2.1,0.5-3c2.9-2.6,5.7-5.3,8.7-7.9
			c0.5-0.4,2.1-0.5,3.1,0.5S191.2,43.4,189.6,45z"/>
		<path d="M203.6,199.3c-1,0.6-2.8-0.4-3.8-1.1c-3.2-2.2-6.3-4.7-9.3-7.2c-0.5-0.4-1.7-1.4-0.8-2.4c0.9-1,2.4-0.6,3-0.2
			c3.5,2.5,6.8,5.2,10.1,7.8C203.3,196.7,204.7,198.7,203.6,199.3z"/>
		<path d="M76.4,67.8c0.6-1.4,2.1-2,4.2-1.3c2.8,1.1,5.6,2.1,8.3,3.3c0.8,0.3,2,1,1.8,2c-0.3,1.7-2.2,1.4-3,1.2
			C83.9,72,75.8,69.3,76.4,67.8z"/>
	</g>
	<path d="M135.2,0c9.7,0.2,19.4,0.5,29.1,0.7c10.1,0.2,20.2,0.2,30.3,0.4c6.3,0.1,12.6,0.3,19,0.4c1.3,0,2.6-0.3,3.9-0.7
		c2.2-0.6,3.9,0.1,5.2,2c2.5,3.7,5.3,7.3,7.6,11.1c3.6,5.7,7.2,11.4,10.2,17.4c2.7,5.3,6.2,10,9.4,15c1.1,1.7,2,3.5,3,5.3
		c1.2,2,2.4,4,3.5,6.1c1.9,3.4,3.8,6.8,5.6,10.2c3.6,6.8,7,13.6,10.7,20.3c3.6,6.5,7.6,12.8,11.4,19.2c4.2,7.2,8.2,14.5,12.4,21.8
		c0.8,1.3,0.5,2.6,0,3.8c-0.8,2-1.6,4-2.6,5.8c-1.4,2.7-3,5.3-4.6,7.9c-3,4.8-6.2,9.6-9.3,14.4c-2.4,3.8-4.7,7.6-7,11.5
		c-4.2,7.1-8.3,14.2-13.1,21c-2.4,3.4-4.5,7-6.7,10.6c-6.5,10.6-13.1,21.2-19.6,31.8c-2.9,4.8-5.9,9.5-8.9,14.3
		c-0.3,0.4-4,5.7-6.6,5.8c-16.1,1.1-32.1,2.6-48.3,2.5c-6.9,0-13.9,0.1-20.8,0.3c-6.7,0.2-13.4,0.7-20.2,0.7
		c-6.2,0-12.4-0.4-18.7-0.5c-4.3-0.1-8.6,0-12.9,0c-3.9,0-7.8,0.2-11.6,0.1c-2.6-0.1-5.3-0.4-7.9-0.6c-1.8-0.1-7.7-6-8.6-7.5
		c-2.9-4.5-5.9-9-8.9-13.6c-6-9.1-12.2-18.1-17.9-27.4c-5.2-8.3-10.1-16.8-14.6-25.4c-4.8-9-9-18.3-13.6-27.4
		c-2.5-4.9-5.1-9.7-7.6-14.7c-2.1-4.3-4.1-8.7-6.1-13c-0.7-1.5-0.4-3,0.3-4.4c2.3-4,4.3-8.1,6.9-11.9c3.5-5.2,6.4-10.7,9.2-16.2
		c3.2-6.4,6.3-12.8,9.6-19.1c3.9-7.3,8.1-14.4,12.2-21.6c2.5-4.3,5-8.6,7.4-13c3.8-6.8,7.7-13.5,11.1-20.4
		c3.6-7.2,8.6-13.6,12.3-20.7c0.6-1.1,1.4-1.5,2.7-1.5c9.7,0,19.4-0.1,29.1-0.2c8.2,0,16.3,0,24.5,0c3.2,0,6.3,0,9.5,0
		C135.2,0.4,135.2,0.2,135.2,0z M195.4,249.7C195.4,249.7,195.4,249.7,195.4,249.7c6,0,12,0,18.1,0c1.9,0,2.9-0.8,3.8-2.4
		c4.1-7.3,8.3-14.5,12.5-21.7c4.9-8.2,9.9-16.4,14.9-24.6c6.7-10.7,13.3-21.5,20.3-32c8-12.1,15.2-24.6,22.6-37.1
		c1.3-2.2,1-3.9-0.5-5.5c-1.8-1.9-2.9-4.1-4-6.5c-1.3-2.8-2.6-5.5-4.1-8.2c-3.9-7-7.9-14-12-21c-5.1-8.7-10.3-17.4-15.5-26
		c-4.6-7.6-9.3-15.1-13.9-22.7c-1.3-2.1-2.3-4.3-3.5-6.5c-1.9-3.4-3.7-6.8-5.6-10.2c-0.7-1.2-1.6-2.4-2.3-3.6
		c-2.7-4.9-5.4-9.8-8-14.8c-0.9-1.7-2.1-2.6-4.1-2.6c-5.6-0.1-11.2-0.4-16.8-0.6c-10.2-0.2-20.4-0.4-30.6-0.6
		c-9.2-0.2-18.3-0.5-27.5-0.5c-4.9,0-9.8,0.3-14.7,0.4c-8.3,0.1-16.5,0.1-24.8,0.1c-5.9,0-11.8,0-17.7,0.1c-2.5,0-5.1,0.2-7.6,0.3
		c-1.2,0-2.1,0.6-2.7,1.7c-3.8,6.5-7.8,12.9-11.6,19.4c-3.4,5.9-6.5,12-9.8,18c-2.3,4.2-4.8,8.3-7.1,12.5
		C36.6,67.6,30,80.1,23.4,92.5c-0.9,1.6-1.8,3.2-2.7,4.8c-2.9,5.2-5.8,10.5-8.8,15.7c-1.9,3.3-4,6.4-6.1,9.5
		c-1.9,2.9-2.5,5.7-0.3,8.8c0.3,0.4,0.3,1,0.5,1.4c2.8,5.8,5.1,11.9,8.5,17.3c7.3,11.6,13.2,23.9,19.9,35.9
		c3.6,6.4,7.1,12.9,11,19.1c4,6.4,8.7,12.3,12.8,18.6c5.2,7.8,10.3,15.7,15.1,23.7c1.7,2.8,3.5,4.7,7,3.7c0.2-0.1,0.4,0,0.6,0
		c7.4,0.1,14.9,0.2,22.3,0.1c14.1-0.1,28.1-0.4,42.2-0.6c4.3-0.1,8.6,0.2,12.8,0.1c9.2-0.2,18.3-0.6,27.5-0.9
		C189,249.6,192.2,249.7,195.4,249.7z"/>
</g>
</svg>
