<?xml version="1.0" encoding="utf-8"?>
<!-- Generator: Adobe Illustrator 19.1.0, SVG Export Plug-In . SVG Version: 6.00 Build 0)  -->
<svg version="1.1" id="Calque_1" xmlns="http://www.w3.org/2000/svg" xmlns:xlink="http://www.w3.org/1999/xlink" x="0px" y="0px"
	 viewBox="0 0 284.4 290" style="enable-background:new 0 0 284.4 290;" xml:space="preserve">
<style type="text/css">
	.st0{fill:#EC6C65;}
</style>
<g>
	<g>
		<path d="M132.4,290c-7.4-1.1-15.4-2-23.3-3.5c-4.5-0.8-8.9-2.4-13.2-3.9c-4.5-1.6-9.1-3.2-13.3-5.4c-8.7-4.7-17.3-9.8-25.2-15.9
			c-3.6-2.7-6.9-5.7-10.1-8.8c-8.3-8-14.7-17.6-22.4-26.1c-1.6-1.8-3.2-3.6-4.7-5.5c-3.1-4-5.8-8.2-7.8-12.8
			c-5.9-13.5-10.2-27.5-11.4-42.2C0.3,157,0.1,148,0,139c0-4,0.6-8.1,1.5-12c2.2-9.4,4.7-18.8,8-27.9c4.1-11.8,9.6-23,15.6-33.9
			c3.9-7,9.1-13.1,14.9-18.6c6.6-6.2,13.2-12.5,20.1-18.3c4.7-4,9.7-7.9,15.1-11c5.1-2.9,10.6-5.2,16.1-7.1c8.6-2.9,17.4-5.2,26.3-7
			c7.5-1.5,14.9-3.6,22.6-3.1c8.4,0.5,16.8-0.4,25.2,0.6c10,1.1,19.1,4.3,27.9,8.9c4.3,2.2,8.8,3.8,13.1,6c6,3.1,12,6.4,17.8,9.9
			c3.1,1.9,5.7,4.4,8.5,6.7c4.5,3.8,8.7,8,12.4,12.6c2.6,3.3,5.5,6.5,8.2,9.8c6.3,7.9,11.2,16.7,16.1,25.5c0.4,0.7,0.7,1.4,1.1,2
			c4.6,6.8,7.7,14.3,9.8,22.1c1.4,5,2.1,10.3,2.6,15.5c0.7,6.2,0.9,12.4,1.2,18.6c0.5,10.4,0.5,20.8-0.6,31.1
			c-0.1,1-0.4,1.9-0.7,2.9c-1,3.8-2.2,7.6-2.9,11.4c-1.2,6.8-3.6,13.3-6.1,19.7c-1,2.5-2.2,5-3.6,7.4c-3.7,6.4-7.5,12.8-11.3,19.2
			c-2.2,3.7-4.8,7-8,9.9c-2.9,2.6-5.4,5.7-8.3,8.4c-3.6,3.3-20.7,16.6-23.5,18.5c-0.2,0.1-0.3,0.3-0.5,0.4
			c-4.4,2.8-8.8,5.7-13.3,8.4c-8.5,5-17.7,8.2-27.5,10c-10.9,2-21.8,3.4-32.8,3.9C141,289.5,137,289.8,132.4,290z M195.1,116.9
			c-0.7,0.6-1.1,1-1.5,1.4c-4.2,4.6-9.2,8.1-14.9,10.5c-2.2,0.9-3.7,2.3-5,4.2c-4.6,6.9-10.3,12.6-17.4,16.9
			c-1.4,0.8-3.1,1.5-4.7,1.6c-2.8,0.1-3.7-1.7-2.2-4.2c1.3-2.2,2.7-4.4,3.9-6.7c1-2.1,1.9-4.3,1.5-6.8c-2.9-0.3-5.7-0.4-8.3-1
			c-7.4-1.7-13.6-5.8-19-10.9c-3.8-3.5-7.2-7.5-11.1-11.5c-2.5,0.7-5.2,1.5-8,2.1c-3.1,0.7-5.9,1.1-8.3,3.8
			c-3.4,3.9-8.5,5.7-13.3,7.5c-2.8,1-5.9,1.1-8.8,1.5c-0.7,0.1-1.5-0.2-2.1-0.6c-1.2-0.9-1.2-2.2-0.2-3.6c1.6-2.1,3.2-4.1,5-6.4
			c-0.8-0.2-1.1-0.3-1.4-0.3c-6.7,0.3-13.2-1-19.6-3.1c-3.2-1.1-5.7-0.6-8.5,1.6c-7.6,5.8-16.4,8.7-25.8,9.4
			c-1.9,0.1-3.2,0.8-3.6,2.4c-0.6,2.1-0.9,4.4-1.1,6.6c-0.2,2.6,0.3,5.3-1,8c-2.5,0.5-5.2,0.7-7.4-0.9c-2.1-1.5-3.8-3.5-6.2-5.7
			c-0.4,2.5-0.9,4.5-0.9,6.6C5,150.3,5.5,161.2,7,172c1.4,9.9,3.9,19.5,7.7,28.8c2.9,7.1,6.4,13.7,11.6,19.5
			c4.3,4.8,8.2,9.9,12.3,14.8c1,1.2,2.1,2.2,3.3,3.4c0.4-0.6,0.7-0.8,0.8-1.1c0.3-1.1,0.6-2.3,0.9-3.4c0.3-1.1,0.4-2.3,0.9-3.4
			c4.1-8.9,5.6-18.6,8.4-27.9c0.8-2.7,0.4-5.3-2.1-7.2c-0.8-0.6-1.6-1.5-2.2-2.3c-6.8-9.5-10.6-19.8-7.4-31.7
			c0.9-3.5,2.1-7,3.6-10.3c2.2-4.7,6.3-7.6,10.8-10.1c6.1-3.3,12.6-4.8,19.4-4.8c1.5,0,3,0.3,4.4,0.7c1,0.3,2,0.8,2.8,1.5
			c0.5,0.5,0.6,1.4,0.9,2.2c-0.8,0.2-1.5,0.5-2.3,0.4c-2.3-0.2-4.7-0.7-7-0.7c-7.8,0.3-14.8,3.1-21.1,7.6c-2.9,2-5,4.8-6.1,8.1
			c-1.2,3.9-2.4,7.8-2.9,11.8c-1.3,9.5,2.4,17.6,8.5,24.3c5.2,5.7,12.5,7.7,20,8.2c6.9,0.4,13.6-1.2,20.2-3.2
			c10.2-3,19.4-7.6,26.1-16.3c2.5-3.2,4.1-6.8,4.4-10.8c0.3-3.4-0.1-6.9-0.7-10.2c-1-5.7-3.1-10.9-8.3-14.3c-1-0.6-1.7-1.6-2.5-2.5
			c-1.1-1.3-2.1-2.5-4.2-2.5c-1.6,0-2-1.5-0.9-2.7c0.7-0.8,1.6-1.3,2.4-2c2.5,1,5,2,6,4.3c0.8,2,2.3,3.2,3.6,4.7
			c1,1.2,2,2.5,2.8,3.9c3.7,6,4.6,12.8,5,19.7c0.3,4.8-1.6,9-3.6,13.1c-1.2,2.4-3,4.7-5.1,6.5c-2.6,2.3-5.6,4.2-8.5,6.2
			c-0.8,0.6-1.7,1.2-2.1,1.5c1.2,5.6,2.6,10.6,3.4,15.8c0.7,4.5,0.9,9.1,1.3,13.7c0.7,7.8,1.4,15.6,2.1,23.3c0.2,2.5,0.4,5,0.7,7.9
			c2.3-0.4,4.2-0.9,6.1-1.1c2.5-0.4,4.2,0.9,4.4,3.4c0.1,1.3,0,2.6-0.2,3.8c-0.4,3.2-1.8,4.5-5,4.8c-1.3,0.1-2.6,0.1-3.8,0.5
			c-0.7,0.2-1.6,0.9-1.8,1.5c-0.7,3.5-1.4,7.1-1,10.9c0.7,0.2,1.3,0.4,1.9,0.5c8.5,1.6,17,2,25.6,1.6c0.4,0,0.9-0.1,1.3-0.1
			c1.3-0.1,2-0.8,2-2.1c0.1-3.2,0-6.3,0-9.9c-1.9,0.3-3.6,0.7-5.4,0.8c-1,0.1-2.2-0.1-2.9-0.6c-2.1-1.5-3.1-4.5-2-6.9
			c1.8-4,3.8-6.2,8.1-6c0.3,0,0.6,0,1,0c2.7-0.1,2.9-0.2,3.6-2.7c0.5-2,0.8-4,1.2-6c1.6-7.2,3.3-14.4,5-21.6
			c0.7-3.1,1.6-6.2,2.6-9.2c0.7-2.2,1.7-4.4,2.4-6.6c1.9-5.6,4.1-11.1,8-15.6c1.7-2,2.1-3.6,1.1-6c-3.4-8.6-4.2-17.5-3.4-26.8
			c1-12.2,11.7-23.4,22.8-25.6c3.7-0.7,7.4-1.2,11.1-0.1c3,0.9,5.5,2.4,6.9,5.3c0.2,0.5-0.1,1.3-0.2,2c-0.6-0.2-1.5-0.1-1.9-0.5
			c-1.7-1.7-3.6-2.7-5.9-3c-11.8-1.6-22.1,4.9-27.2,15.3c-3.8,7.7-3.5,16.2-1.5,24.5c0.8,3.6,2.3,7.1,3.4,10.7
			c1,3.2,2.8,5.7,5.4,7.8c7.6,5.9,15.8,10.6,25,13.4c6.3,1.9,12.6,2.2,19,0.9c7.6-1.6,13.4-5.8,17.2-12.4c3.2-5.5,4.9-11.5,4.6-18.1
			c-0.4-12.4-4.1-23.3-13.5-31.9c-1.7-1.5-1.7-2.7-0.3-5.2c0.5,0.3,1.1,0.5,1.6,1c12.8,12.9,17.3,28.4,14.3,46.1
			c-0.4,2.6-1.7,5-2.7,7.5c-2.8,7.1-7.8,12.1-14.7,15.4c-0.5,0.2-0.9,0.5-1.3,0.7c-0.8,10.7,0,31.3,1.4,34c1-0.7,2-1.2,2.8-2
			c3.5-3.2,6.9-6.4,10.3-9.7c6.5-6.4,12.5-13.2,16.8-21.4c1.2-2.3,2.4-4.6,3.8-6.7c5.9-9.2,9.7-19.2,12-29.9
			c0.9-4.1,2.1-8.1,3.1-12.1c0.3-1,0.6-2.1,0.6-3.1c0.3-7.3,0.6-14.5,0.6-21.8c0-6.3-0.3-12.6-0.7-18.9c-0.4-6.3-0.9-12.6-2.5-18.7
			c-0.3-1.2-0.8-2.4-1.3-3.8c-1.6,1-2.8,1.8-4.1,2.6c-1.5,0.9-2.9,2-4.4,2.5c-1.9,0.7-2.5,1.9-2.3,3.7c0.3,2.3,0.7,4.6,1.2,6.9
			c0.4,2,0.2,3.5-1.1,3.9c-1.5,0.5-3.2,1-4.7,0.8c-5.1-0.5-9.4-2.7-12.4-7.1c-0.4-0.6-0.8-1.2-1.3-1.8c-7.2,3.4-14.4,6-22.2,6.7
			C212.2,122,203.2,122.8,195.1,116.9z M150.6,83c-21.2-20-33.5-44-38.6-72.2c-3.7,0.9-7.4,1.8-11.1,2.8c-7.1,2-14.2,4-20.8,7.6
			c-8.2,4.4-15.4,10.4-22.5,16.5c-5,4.3-9.7,9-14.5,13.6C37.6,56.6,33,62.8,29,69.4c-0.8,1.3-1.5,3.1-1.3,4.5c0.4,3.1,1,6.4,2.3,9.2
			c1.6,3.6,3.9,6.9,6.1,10.2c1.7,2.5,4.1,4.4,6.7,5.9c4.4,2.5,8.7,4.8,13.6,6.4c3.9,1.3,7.7,2.7,11.7,3.3c4.5,0.7,9.1,1.4,13.7,0.1
			c3.2-1,4.8,0.5,3.9,3.8c-0.6,2.4-1.5,4.7-2.4,7.4c3.2-0.6,5.9-2.1,8.6-3.4c2.7-1.3,4.7-3.5,5.8-6.2c0.8-2.1,2.2-2.6,4.1-2.8
			c2.1-0.2,4.3-0.2,6.3-0.9c5.8-1.9,11.5-4,17.2-6.2c2.8-1.1,5.5-2.4,8-4c3.3-2,6.5-4.2,9.5-6.6C145.5,88.1,147.8,85.6,150.6,83z
			 M249.9,61.1c-0.3-0.5-0.7-1.2-1.2-1.7c-3.5-4.3-7.1-8.6-10.7-12.8c-6-7.1-13-13-20.9-17.7C205.8,22,194,16.2,181.8,11.2
			c-4.6-1.9-9.6-3.2-14.5-3.9c-6.7-0.9-13.6-1.9-20.4-0.7c-0.5,0.1-1.1,0-1.6,0c-3.4,0-6.8-0.1-10.3-0.1c-5.3,0-10.3,1.7-15.5,2.6
			c-1.6,0.3-2.2,1.4-2,2.8c0.5,3.2,0.7,6.5,1.7,9.5c2.7,8,5.2,16.1,9.2,23.6c3.5,6.5,6.7,13.2,11.9,18.6c2.9,3.1,6.1,6,8.8,9.3
			c3.7,4.4,8.4,7.5,12.8,11c6.2,4.9,13.6,7.1,21.2,8.6c5.7,1.1,11.3-0.4,16.9-1.2c0.3,0,0.7-0.2,0.8-0.4c0.8-1.2,1.9-1.5,3.1-0.9
			c0.9,0.6,1.9,1.4,2.4,2.4c1.9,3.3,2.2,6.9,2.3,10.5c0,0.9,0.1,1.8,0.2,2.8c3.1-1.4,5.4-3.2,7.4-5.9c3.2-4.3,5.8-8.7,5.4-14.1
			C233.3,79.7,243.4,72.6,249.9,61.1z M165.8,211.7c-6.4,7.9-18.1,56-16.5,70.3c1.9-0.1,3.7-0.2,5.6-0.3c7.9-0.7,15.7-2,23.4-3.7
			c6.2-1.3,12.3-2.7,17.8-6.2c5.9-3.8,12-7.4,18-11.2c2-1.2,3.8-2.7,5.5-4c-0.2-1.8-0.5-3.3-0.5-4.7c0.1-6.1,0.4-12.2,0.5-18.3
			c0-1.1-0.3-2.2-0.4-3.4c-1.3-0.1-2.2-0.2-3.2-0.2c-5.9-0.4-11.8-0.5-17.4-2.4c-6.3-2.1-12.6-4.2-18.8-6.5
			c-4.4-1.7-8.5-3.9-11.8-7.5C167.4,212.8,166.6,212.3,165.8,211.7z M103.5,209.7c-3,0.6-6,1.1-9,1.9c-9.9,2.6-19.8,3.6-29.8,0.8
			c-3-0.8-6-1.3-9.1-2c-0.2,0.7-0.5,1.4-0.7,2.1c-1.4,5.8-2.8,11.7-4.2,17.5c-0.9,3.8-1.9,7.7-2.9,11.5c-0.5,2,0.1,3.4,1.3,4.9
			c3,3.7,6.7,6.5,10.5,9.4c7.2,5.6,15.1,10,23,14.6c5.9,3.5,12.6,5.2,19.1,7.5c1.2,0.4,2.4,0.5,3.6,0.8
			C107.7,268.5,107.6,219.2,103.5,209.7z M158.5,139.6c0.2,0.2,0.4,0.3,0.6,0.5c2.1-1.7,4.2-3.3,6.2-5c3-2.6,5.1-5.7,6.3-9.5
			c0.6-1.9,1.6-3.7,4-4.1c3.8-0.6,7.1-2.5,10.3-4.4c5.2-3.1,9.8-6.9,12.9-12.2c1.2-2.1,2.4-4.3,2.1-7.1c-1,0-2,0-2.9,0
			c-5.2-0.1-10.5,0.1-15.7-0.5c-6-0.7-11.6-2.8-17.1-5.3c-2.8-1.3-5.6-2.7-8.5-4.1c-10.2,10.1-22.7,16-35.9,20.7
			c0.4,2.4,1.8,3.8,3.1,5.2c1.6,1.7,3.4,3.3,5.1,4.9c7.1,6.6,14.9,11.5,25.1,11.1c3.5-0.1,5.5,2.3,5.1,5.8
			C158.9,136.8,158.7,138.2,158.5,139.6z M197.4,114c3.1,3.1,8.1,4,12,4c10.5,0,20.7-1.7,30.2-6.6c4.1-2.1,6.1-1.4,8.1,2.9
			c1.6,3.4,4.7,4.6,8.6,5.3c-0.5-1.3-0.8-2.2-1.1-3.1c-1.3-3.8-1.7-7.7-0.7-11.7c0.3-1.2,0.8-1.7,2.1-1.9c4.3-0.7,7.8-3,10.8-6
			c2.3-2.3,2.3-3.1,0.7-5.9c-3.9-6.8-7.9-13.5-11.8-20.2c-0.4-0.7-0.9-1.3-1.2-1.6c-3.3,3.4-6.3,6.7-9.5,9.8c-4,3.9-9.1,6-13.9,8.6
			c-1.6,0.9-2.5,2-3.2,3.7c-2.4,5.8-5.4,11.2-10.8,14.8c-2.6,1.7-5.3,3.1-8.1,4.6c-2.1,1.1-3.2,0.8-4.8-0.9c-0.5-0.6-1-1.3-1.7-2.2
			C201.1,109.7,199.3,111.7,197.4,114z M24.6,79.9c-0.2,0-0.5,0-0.7-0.1c-0.7,1.2-1.5,2.3-2,3.6c-3,7.1-6.2,14.1-8.8,21.3
			c-2,5.4-3.1,11.1-4.6,16.7c-0.9,3.4,1,8.5,4.2,10.5c0.1,0.1,0.4-0.1,0.1,0c0.9-3.2,1.7-6.2,2.7-9.2c0.5-1.5,1-3,1.8-4.4
			c0.6-1.1,1.4-2.2,2.4-2.9c0.6-0.4,1.8,0,2.7,0c0.9,0,1.7,0.1,2.5-0.1c5.6-1.4,11.3-2.6,16.5-5.2c1.7-0.8,3.8-1.4,5.1-3.5
			C34.6,101.1,27.3,92.3,24.6,79.9z"/>
		<path d="M194.1,175.6c-0.1,2-1.5,3.6-3.3,3.7c-1.9,0-3.2-1.7-3.1-4c0.1-1.6,2-3.3,3.7-3.3C192.8,171.9,194.2,173.7,194.1,175.6z"
			/>
		<path d="M104.8,176c-1.7,0.1-2.9-1.3-2.9-3.4c-0.1-2,1.1-3.2,3.1-3.2c1.9,0,3.8,1.8,3.7,3.7C108.7,174.8,107.1,175.9,104.8,176z"
			/>
		<path d="M203.8,184.3c-2.2,0-3.9-1.4-4-3.2c-0.1-2.2,0.8-3.2,2.6-3.2c2,0,4.2,2.1,4.3,4.1C206.7,183.3,205.5,184.3,203.8,184.3z"
			/>
		<path d="M86.1,172.6c2,0,2.9,1,3.3,2.2c0.3,0.9,0.5,2.4,0,2.9c-0.7,0.6-2.2,0.9-3.1,0.6c-0.7-0.2-1.5-1.7-1.4-2.5
			C84.9,174.7,85.7,173.6,86.1,172.6z"/>
	</g>
	<path id="" class="st0" d="M249.9,61.1c-0.3-0.5-0.7-1.2-1.2-1.7c-3.5-4.3-7.1-8.6-10.7-12.8c-6-7.1-13-13-20.9-17.7
		C205.8,22,194,16.2,181.8,11.2c-4.6-1.9-9.6-3.2-14.5-3.9c-6.7-0.9-13.6-1.9-20.4-0.7c-0.5,0.1-1.1,0-1.6,0
		c-3.4,0-6.8-0.1-10.3-0.1c-5.3,0-10.3,1.7-15.5,2.6c-1.6,0.3-2.2,1.4-2,2.8c0.5,3.2,0.7,6.5,1.7,9.5c2.7,8,5.2,16.1,9.2,23.6
		c3.5,6.5,6.7,13.2,11.9,18.6c2.9,3.1,6.1,6,8.8,9.3c3.7,4.4,8.4,7.5,12.8,11c6.2,4.9,13.6,7.1,21.2,8.6c5.7,1.1,11.3-0.4,16.9-1.2
		c0.3,0,0.7-0.2,0.8-0.4c0.8-1.2,1.9-1.5,3.1-0.9c0.9,0.6,1.9,1.4,2.4,2.4c1.9,3.3,2.2,6.9,2.3,10.5c0,0.9,0.1,1.8,0.2,2.8
		c3.1-1.4,5.4-3.2,7.4-5.9c3.2-4.3,5.8-8.7,5.4-14.1C233.3,79.7,243.4,72.6,249.9,61.1z"/>
	<path id="" class="st0" d="M165.8,211.7c-6.4,7.9-18.1,56-16.5,70.3c1.9-0.1,3.7-0.2,5.6-0.3c7.9-0.7,15.7-2,23.4-3.7
		c6.2-1.3,12.3-2.7,17.8-6.2c5.9-3.8,12-7.4,18-11.2c2-1.2,3.8-2.7,5.5-4c-0.2-1.8-0.5-3.3-0.5-4.7c0.1-6.1,0.4-12.2,0.5-18.3
		c0-1.1-0.3-2.2-0.4-3.4c-1.3-0.1-2.2-0.2-3.2-0.2c-5.9-0.4-11.8-0.5-17.4-2.4c-6.3-2.1-12.6-4.2-18.8-6.5
		c-4.4-1.7-8.5-3.9-11.8-7.5C167.4,212.8,166.6,212.3,165.8,211.7z"/>
	<path id="" class="st0" d="M24.6,79.9c-0.2,0-0.5,0-0.7-0.1c-0.7,1.2-1.5,2.3-2,3.6c-3,7.1-6.2,14.1-8.8,21.3c-2,5.4-3.1,11.1-4.6,16.7
		c-0.9,3.4,1,8.5,4.2,10.5c0.1,0.1,0.4-0.1,0.1,0c0.9-3.2,1.7-6.2,2.7-9.2c0.5-1.5,1-3,1.8-4.4c0.6-1.1,1.4-2.2,2.4-2.9
		c0.6-0.4,1.8,0,2.7,0c0.9,0,1.7,0.1,2.5-0.1c5.6-1.4,11.3-2.6,16.5-5.2c1.7-0.8,3.8-1.4,5.1-3.5C34.6,101.1,27.3,92.3,24.6,79.9z"
		/>
	<path id="" class="st0" d="M158.5,139.6c0.2,0.2,0.4,0.3,0.6,0.5c2.1-1.7,4.2-3.3,6.2-5c3-2.6,5.1-5.7,6.3-9.5c0.6-1.9,1.6-3.7,4-4.1
		c3.8-0.6,7.1-2.5,10.3-4.4c5.2-3.1,9.8-6.9,12.9-12.2c1.2-2.1,2.4-4.3,2.1-7.1c-1,0-2,0-2.9,0c-5.2-0.1-10.5,0.1-15.7-0.5
		c-6-0.7-11.6-2.8-17.1-5.3c-2.8-1.3-5.6-2.7-8.5-4.1c-10.2,10.1-22.7,16-35.9,20.7c0.4,2.4,1.8,3.8,3.1,5.2
		c1.6,1.7,3.4,3.3,5.1,4.9c7.1,6.6,14.9,11.5,25.1,11.1c3.5-0.1,5.5,2.3,5.1,5.8C158.9,136.8,158.7,138.2,158.5,139.6z"/>
</g>
</svg>
