<?xml version="1.0" encoding="utf-8"?>
<!-- Generator: Adobe Illustrator 19.1.0, SVG Export Plug-In . SVG Version: 6.00 Build 0)  -->
<svg version="1.1" id="Calque_1" xmlns="http://www.w3.org/2000/svg" xmlns:xlink="http://www.w3.org/1999/xlink" x="0px" y="0px"
	 viewBox="0 0 198.4 241.6" style="enable-background:new 0 0 198.4 241.6;" xml:space="preserve">
<style type="text/css">
	.st0{fill:#6D9DBD;}
	.st1{fill:#F2A73B;}
	.st2{fill:#6DA3C3;}
	.st3{fill:none;}
	.st4{fill:none;stroke:#F2A73B;stroke-width:3;stroke-miterlimit:10;}
	.st5{fill:#6DA1C1;}
	.st6{fill:#F6AB3B;}
	.st7{fill:none;stroke:#F6AB3B;stroke-width:3;stroke-miterlimit:10;}
	.st8{fill:#F8AD3B;}
	.st9{fill:#C6C6C6;}
	.st10{fill:#F4901E;}
	.st11{fill:none;stroke:#F8AD3B;stroke-width:3;stroke-miterlimit:10;}
	.st12{fill:#FFFFFF;}
	.st13{fill:#FFFFFF;stroke:#C6C6C6;stroke-width:3;stroke-miterlimit:10;}
	.st14{fill:none;stroke:#C6C6C6;stroke-width:3;stroke-miterlimit:10;}
</style>
<g>
	<polygon id="c2" class="st2" points="173.3,115.5 180.1,106.4 180.1,100.6 176.3,97.8 170.5,101.7 165.2,100.3 161.1,101.2 
		161.1,107.6 168.2,115.4 	"/>
	<polygon id="c1" class="st2" points="170.1,116.3 161.7,131.5 157.8,153.7 161.1,175.8 173.7,194.1 192.5,208.4 191,174.3 
		192.5,142.8 191,120.3 182.6,118 	"/>
	<path id="c" class="st2" d="M146,225.1l-3.4-35.4l-6.8-31.4l-6.3-13.2l-22.6,9.6l-17.3-2.6L77.3,149l-9,23.2l-5.8,24.7l-0.2,22
		l2.4,20.8l17.2-2.9l65.3-2.1L146,225.1z M96.7,223.5L78.8,216l14.5-11.4l19.4,10.8L96.7,223.5z"/>
	<g>
		<path d="M32.3,1C38.2,0.7,44,0.3,49.9,0c1.6-0.1,3.2,0.1,4.8,0.2c4.3,0.2,8.6,0.3,13,0.5c6.9,0.4,13.7,1,20.6,1.2
			c5.9,0.2,11.7,0,17.6-0.1c3.2-0.1,6.4-0.1,9.6-0.6c7-1.2,13.9-0.9,20.8,0.4c7.9,1.4,15.8,1.5,23.9,0.7c6.2-0.7,12.5-0.3,18.8-0.3
			c1.5,0,3.1-0.3,4.6-0.1c3.6,0.5,7.5-0.1,10.9,1.6c2.2,1.1,4,3.2,3.4,5.3c-1.4,5,1.3,9.7,0.6,14.5c-0.7,4.9-1.5,9.7-2.6,14.5
			c-1.1,4.6-1.2,9.1-0.9,13.7c0.3,4.4,0.3,8.9,0.5,13.3c0.1,2.5,0.4,5,0.5,7.4c0.2,4.3,0.4,8.5,0.4,12.8c0.1,5.8,0.1,11.6-0.1,17.4
			c-0.2,4.4-1,8.7-1.3,13c-0.3,4.1-0.2,8.3-0.3,12.4c0,2-0.2,4-0.2,6c0,3.3,0.2,6.6,0.2,9.9c-0.1,6.3-0.4,12.6-0.6,19
			c-0.1,3.1-0.3,6.3-0.4,9.4c-0.1,5-0.4,10.1-0.2,15.1c0.2,5.4,0.7,10.9,1.2,16.3c0.3,3.8,0.9,7.5,1.3,11.2
			c0.8,4.6-0.1,16.6-4.4,21.3c-4.8,4.2-18,5.4-25,4.9c-4.9-0.4-9.7-1.2-14.6-1.8c-1.1-0.1-2.2-0.3-3.4-0.3c-7.9,0-15.8-0.1-23.7,0.2
			c-4.2,0.2-8.4-0.2-12.5-0.7c-2.5-0.3-5.1-0.2-7.6-0.2c-4.8,0.1-9.6,0.6-14.4,0.4c-5.6-0.3-11.1,0.2-16.6,1
			c-3.7,0.6-7.4,1.3-11.2,1.6c-3.8,0.4-7.7,0.6-11.5,0.5c-2.4-0.1-4.9-0.8-7.3-1.3c-2-0.4-4-0.9-6-1.4c-0.7-0.2-1.4-0.3-2.1-0.3
			c-4.3,0.2-8.6,0.6-12.9,0.5c-2.8,0-5.7-0.5-8.4-1.3c-2-0.6-4-1.9-5.5-3.3c-0.9-0.8-1.1-2.4-1.3-3.8c-0.5-3.3-1.1-6.5-1.2-9.8
			c-0.1-2.3,0.5-4.6,0.7-6.9c0.2-2.6,0.4-5.3,0.3-8c-0.2-2.4-0.6-4.9-1.3-7.2c-1.1-3.3-0.7-6.7-0.4-10c0-0.6,0.1-1.3,0.1-1.9
			c0-1.3-0.1-2.6,0.2-3.8c0.7-4.2,1.5-8.4,2.3-12.5c0.9-4.9,0.4-9.8-0.4-14.7c-1.2-6.8-1.9-13.7-1.8-20.7c0.1-3,0.6-6,1-9
			c0.8-5.3,0-10.5-0.7-15.7c0-0.4-0.1-0.7-0.1-1.1c0-4.8,0-9.6-0.1-14.4c-0.2-4.7,0-9.3-1.2-13.9c-0.9-3.2-1.1-6.7-1.3-10
			C2.8,66,2.8,60.8,2.6,55.7c-0.1-4.1,0.1-8.2-0.3-12.2c-0.4-4.3-1.7-8.6-2.1-13c-0.3-4.2-0.3-8.5,0.1-12.7c0.3-3.3,1.2-6.6,2.3-9.7
			c0.7-1.9,2-3.8,3.5-5.2C7.1,2,9,2.1,10.4,1.7C17.6-0.3,25,0.8,32.3,1z M119,97.3c0.3-2.4,1.3-2.7,3-2.4c1.3,0.3,2.6,0.3,3.9,0.3
			c1.7,0.1,2-0.3,1.5-2c-0.5-1.6-1.1-3.2-1.4-4.9c-0.2-1.4-0.8-1.6-1.9-1c-0.5,0.2-1,0.6-1.6,0.7c-2.9,0.4-5.8,1.1-8.7,1
			c-1.3,0-1.5,0.3-1.8,1.2c-0.5,1.3-0.9,2.7-1.5,4c-0.2,0.4-0.7,0.7-1.1,1c-0.3-0.5-0.9-1-0.9-1.5c0-1.4,0.2-2.7,0.5-4
			c0.3-1.4,0.1-2.2-1.3-3c-4.9-2.6-6.3-7.7-2.9-12.2c1.4-1.7,1.6-3,0.9-5.1c-1.5-4.2-2.4-8.6-3.6-13c-0.4-1.6-1-3.1-1.5-4.6
			c-3.4,1.9-3.4,1.9-7.4,1.4c-0.7-0.1-1.5-0.1-2.1,0.2c-0.6,0.2-1.3,0.8-1.5,1.3c-1.6,5-3.1,10-4.6,15.1c-0.5,1.7-0.4,3.7-1.3,5.1
			c-1.1,1.8-0.5,3.3-0.1,5c0.7,3.2,1,6.4-1,9.4c-0.4,0.5-0.6,1.3-0.5,1.9c0.1,1.2,0.6,2.4,0.7,3.6c0.4,3.2,1.2,3.8,4.4,3.1
			c1.1-0.2,2.3-0.6,3.3-0.3c0.8,0.2,1.3,1.2,2,1.9c-0.6,0.4-1.2,1-1.9,1.1c-2.6,0.4-5.2,0.3-7.7,1c-4.8,1.3-9.4,3.3-13,7
			c-2.9,3-7.4,6.4-8.1,14.5c-0.5,6.1,0.3,12.4,5.2,15.8c6.2,4.4,12.6,8.5,20,10.5c4.1,1.1,8.3,1.7,12.5,2.1c2.7,0.3,5.6,0.1,8.3-0.4
			c18.9-3.5,22.4-8.6,26-11.5s4.9-6,5.8-9.2c0.9-3.2,1.1-6.6,1.7-9.9c1.1-6.6-1.5-12-5.7-16.8c-3.3-3.8-7.9-4.7-12.6-5.3
			C121.6,98,120.3,97.6,119,97.3z M114.3,157.3c-0.1-0.2-0.2-0.3-0.2-0.5c-0.8,0.1-1.6,0.2-2.4,0.3c-3.9,0.8-7.8,1.2-11.8,0.6
			c-4-0.5-7.9-1.2-11.9-2c-2.8-0.6-5.6-1.4-8.3-2.2c-1.1-0.3-1.5,0.2-1.9,1c-0.9,2-2,4-2.7,6.1c-1.7,4.7-3.4,9.4-4.9,14.2
			c-1,3.4-1.6,6.9-2.3,10.4c-1,5.2-2.6,10.3-2.9,15.5c-0.5,7.8-0.2,15.7,0,23.6c0,2.8,0.5,5.6,0.8,8.4c0.2,1.9,1.4,2.1,3.1,1.9
			c3.7-0.6,7.4-1.1,11.1-1.3c3.9-0.2,7.8,0,11.7-0.1c7.6-0.1,15.3-0.4,22.9-0.5c9.1-0.1,18.2-0.1,27.2-0.1c1.4,0,2.1-0.4,2-2
			c-0.4-5.4-0.6-10.7-1-16.1c-0.3-3.9-0.7-7.8-1.2-11.7c-0.9-7.1-2.1-14.2-2.9-21.3c-0.9-8.4-3.3-16.4-6.1-24.4
			c-0.6-1.7-1.6-3.3-2.4-5c-0.2,0-0.3,0.1-0.5,0.1c-0.1,0.5-0.3,1-0.4,1.4c-0.5,3.5-1,7-1.5,10.6c-0.6,3.9-1.1,7.7-1.7,11.6
			c-0.4,2.3-1.1,4.5-1.3,6.8c-0.5,5.7-0.9,11.3-1.1,17c-0.1,3,0.2,6,0.3,9c0.1,1,0.5,2.3-0.8,2.5c-0.9,0.1-2.2-0.4-2.8-1.1
			c-2-2.3-3.6-4.9-5.5-7.3c-3.9-5.1-7.9-10.1-11.8-15.2c-1.1-1.4-2.3-2-4.1-1.4c-1.2,0.4-3.1,0.7-3.9,0.1c-2.3-1.5-2.6,0.2-3.5,1.4
			c-0.2,0.3-0.4,0.6-0.6,0.9c-2.8,3.8-5.6,7.6-8.3,11.4c-1.5,2.1-2.9,4.2-4.5,6.2c-0.3,0.4-1.2,0.4-1.8,0.5
			c-0.1-0.6-0.6-1.3-0.4-1.7c2-3.3,4-6.7,6.2-9.9c3.4-4.7,6.9-9.2,10.5-13.6c5.7-7,11.3-14.2,18-20.5
			C111.9,159.9,113.1,158.6,114.3,157.3z M74.5,24.3c-0.2-0.1-0.4-0.3-0.6-0.4c0-1.9,0.1-3.9,0-5.8c-0.2-3-0.5-6-0.9-9
			c-0.4-2.7-0.9-3-3.6-2.7c-5.3,0.6-10.6,0.7-15.9,0C51,6.1,48.4,6.2,45.9,6c-1.9-0.1-2.9,0.6-3.3,2.4c-0.5,2.1-0.9,4.1-1.4,6.2
			c-0.4,1.7-0.7,3.4-1.1,5c2.2,0.3,4.2,1,5.9,0.8c3.1-0.4,6.1-0.4,9.3,0.1c2.6,0.4,4.9,1.2,6.7,2.9c3,2.8,3.9,7.4-0.1,10.4
			c-1.5,1.1-3.2,2.1-4.5,2.9c0.9,4.9,2,9.7,2.7,14.6c0.7,4.9,1.6,9.8-0.2,14.7c-0.4-0.6-0.6-1.2-0.7-1.8C58,57.1,57,50,55.8,42.9
			c-0.4-2.6-0.8-2.7-3.4-2.3c-4.5,0.6-9,1.1-13.6,0.6c-1.5-0.2-3.1-0.1-4.6-0.2c-1.2-0.1-1.9,0.4-2.1,1.6c-0.8,4.2-1.6,8.3-2.5,12.5
			c-0.4,1.9-0.8,3.7-1.2,5.6c-0.1,0.5-0.3,0.9-0.4,1.4c-0.3-0.2-0.6-0.4-0.9-0.6c-0.1-0.6-0.2-1.1-0.2-1.7
			c0.9-6.6,1.6-13.3,2.7-19.9c0.3-1.9,0-3-1.5-3.9c-2.4-1.5-2.5-4.8-1.4-7.3c1.9-4.3,5.8-5.8,9.6-7.5c1.3-0.6,1.7-1.2,1.8-2.4
			c0.4-3.6,0.9-7.2,1.4-10.7c0.2-1.3-0.2-1.7-1.4-1.8c-4.2-0.3-8.4-0.7-12.6-1c-1.6-0.1-3.3,0-5,0.2c-3.3,0.5-6.6,1.3-9.9,1.8
			c-3.3,0.5-5.3,3.9-4.2,7.1c1.1,0.1,2.2,0.2,3.3,0.2c3.8-0.1,7.4,5.1,7.4,8.4c-0.1,2.4-1.8,3.3-3.2,4.4c0.9,2.3,2,4.5,2.6,6.8
			c0.6,2.5,0.9,5.1,1.2,7.7c0.3,3.2,0.7,6.3,0.8,9.5c0,1.5-0.7,3.1-1,4.6c-0.2,0-0.4-0.1-0.6-0.1c-0.3-2-0.6-4.1-0.9-6.1
			c-0.8-5.5-1.6-11-2.5-16.5c-0.2-1.5-0.8-2.5-2.6-1.6c-0.8,0.4-1.7,0.6-2.6,0.7c-1.3,0.2-1.6,0.7-1.4,2c0.5,3.9,1,7.7,1.2,11.6
			c0.2,5.5-0.1,11.1,0.1,16.7c0.1,4.1,0.7,8.3,1.1,12.4c0.1,0.7,0.2,1.5,1.2,1c4.1-2.1,8.4-3.3,12.9-4.1c3.5-0.7,6.7-0.2,9.2,2.7
			c1,1.1,2,2.3,3.2,3.7c0.4-1,0.7-1.7,0.9-2.3c0.9-2.7,1.6-5.4,2.8-8c0.6-1.4,0.8-1.8-0.9-2.5c-3.7-1.5-5.4-4.8-3.5-8.4
			c1.4-2.6,4.1-4.3,6.5-5c3.6-1.1,7.5-0.5,10.8,2c3.2,2.6,3.7,5.6,1.6,9.2c-0.2,0.4-0.2,1-0.2,1.4c0.1,0.8,0.3,1.5,0.5,2.2
			c0.4,2.3,0.9,4.6,1.4,7.2c8.7-5.7,17.2-5.4,25.7,0.1c0.2-0.6,0.4-1.1,0.5-1.5c1.7-6.5,3.4-13,5.3-19.5c0.4-1.4,0.2-1.9-1.2-2.2
			c-2.1-0.4-3.8-1.3-5-3.2c-2.7-4.1,1.1-9.5,5.3-10.9c0.9-0.3,1.2-0.6,1.4-1.5c0.9-5.7,3-11.2,5.4-16.4c0.8-1.8,0.4-2.6-0.6-3.9
			c-1.5-2-2.5-4.2-1-6.7c0.2-0.4,0.2-0.9,0.4-1.6c-4.8-0.3-9.2-0.6-13.7-0.9c-2.2-0.1-2.6,0.3-2.1,2.4c1.1,4.6,1,9.3,0,13.9
			C75.6,23.1,75,23.7,74.5,24.3z M156.7,7.4c-3-0.1-5.6-0.4-8.1-0.3C139.3,7.5,130.1,8,121,8.4c-1,0-1.3,0.5-1.4,1.4
			c-0.2,2.6-1.2,4.9-3.4,6.3c-1.4,0.9-1.2,1.9-1,3.1c1.5,7.3,2.2,14.6,2,22.1c0,1.2-0.5,2.4-0.8,3.7c-0.2,0-0.4-0.1-0.5-0.1
			c-0.9-8-1.9-15.9-2.8-23.9c-1.5,0.4-2.8,0.9-4.1,1.1c-4.3,0.6-8.6,0.7-12.9-0.5c-0.4-0.1-1.1,0.2-1.2,0.5
			c-1.5,3.5-2.9,7.1-4.3,10.6c-0.4,1-0.5,2.1-0.9,3.3c3.3,0.2,6.4,0.5,9.5,0.6c3.3,0.1,6.3,1.9,7.2,4.8c0.9,2.8-0.6,4.8-2.8,6.5
			c-0.3,0.2-0.4,1-0.3,1.5c1.1,4.8,2.3,9.5,3.5,14.3c0.4,1.8,0.8,3.6,1.2,5.4c0.3,1.3,1,1.6,2.2,1C111,69.4,112,69,113,69
			c2.4,0,4.7,0.5,7.1,0.4c2.8-0.1,5.3,0.6,7.4,2.5c0.8,0.7,1.5,1.4,2.5,2.3c0.6-1.9,1-3.7,1.6-5.4c1.2-3.6,2.6-7.1,3.9-10.7
			c0.4-1.1,0.3-1.6-1-2.3c-3.5-1.7-6.1-4.1-5.9-8.6c0.3-5.1,3.9-7.8,7.6-10.3c3.4-2.3,7.4-2.7,11.4-1.9c1.1,0.2,1.6-0.1,1.9-1.2
			c0.7-2.7,1.7-5.4,2.4-8.2c0.7-2.6,1.4-5.2,0.8-8c-0.6-2.6-0.2-5.2,1.7-7.3C155.1,9.5,155.7,8.7,156.7,7.4z M189.5,204.6
			c0.2-0.1,0.5-0.3,0.7-0.4c0-4,0.4-8.1-0.1-12c-0.9-8-0.1-16-0.2-24c-0.1-7.9,0.7-15.8-0.5-23.7c-0.8-4.9-0.1-10.1,0-15.2
			c0.1-3.5,0.7-7-2.6-9.5c-0.4-0.3-0.8-0.5-1.2-0.6c-2.6-0.2-5.2-0.8-7.8-0.5c-3.6,0.3-7.8-0.2-9.4,4.6c0,0.1-0.3,0.2-0.4,0.4
			c-2,2.8-3.9,5.6-4.7,9c-1.1,4.8-2,9.6-2.9,14.4c-1.1,5.4-0.4,10.8,0.3,16.1c0.7,5.4,2.1,10.7,4.7,15.5c2,3.6,3.9,7.5,6.7,10.6
			c3.5,4,7.6,7.3,11.6,10.9C185.4,201.7,187.5,203.1,189.5,204.6z M151.2,35.7c0.1,0.1,0.1,0.3,0.2,0.4c2.6-1.5,5.1-1.1,7.7-0.4
			c2.9,0.8,5.1,2.3,5.9,5.1c2.1,7.1-0.7,11.8-7.7,14.1c0.6,1.6,1.2,2.8,1.4,4.1c1.1,5.9,2.3,11.7,3.1,17.6c0.2,1.7-0.1,3.6-0.7,5.2
			c-0.5,1.2-0.4,1.8,0.4,2.6c2.3,2.3,2.5,7.8-0.8,9.9c-0.8,0.5-1.7,1-2.5,1.6c-0.4,0.3-0.9,0.8-0.8,1.2c0.2,1.8,1.1,5.5,1.5,7.7
			c0.6-1.5,0.7-3.3,0.9-3.8c0.5-1.4,1.5-1.9,2.8-2.3c2-0.6,3.5,0.6,5.2,1.2c0.6,0.2,1.4,0.2,1.9-0.1c0.9-0.6,1.2-0.9,2-1.7
			c0.2-0.2-0.3-1.7,0.2-5.1s2.5-10.9,4.9-16.1c0.5-1.1,0.6-2-0.8-2.6c-0.8-0.4-1.6-1-2.3-1.6c-5.7-5.9-2.8-13.9,3.8-17.4
			c3.3-1.8,6.9-3.1,10.8-2.7c0.4,0,1.3-0.5,1.4-0.9c1.2-4.1,1.6-8.4,1.2-12.7c-0.6-6.9-0.2-13.5,1.8-20.1c0.8-2.7,0.8-5.6,0.9-8.4
			c0-2-1.3-3.7-3.1-3.7c-2.6-0.1-5.2,0.2-8.1,0.3c0.3,0.7,0.4,1,0.5,1.2c2.9,5.4,0.9,11.2-4.9,12.6c-1.6,0.4-1.8,1.1-1.7,2.5
			c0.4,3.7,0.8,7.4,1.1,11.1c0.2,2.5,0.3,5,0.2,7.6c-0.1,1.1-0.8,2.2-1.2,3.3c-0.1-0.1-0.2-0.1-0.3-0.2c-0.8-7-1.5-13.9-2.3-20.9
			c-6,2.2-7.6,1.5-11.1,0.8c-2.4-0.5-4.8-1-7.2-1.5C154,27.8,152.6,31.7,151.2,35.7z M23.7,150.3c4.8-1,8.8,1.1,12.9,2.8
			c8.4,3.5,9.9,17.9,1.4,22.5c-2.3,1.2-2.2,1.4-1.2,3.8c0.3,0.7,0.5,1.4,0.8,2.1c1.2,3,2.7,5.9,3.6,9c0.5,1.7,1,2.2,2.8,2.2
			c3.3-0.1,5.9,3,5.3,6.2c-0.4,2.1-1.3,4.2-2,6.2c-0.1,0.3-0.4,0.7-0.3,0.9c0.9,2,1.8,3.9,2.9,6.2c4.5-12.4,8.8-24.3,13.1-36.2
			c-1.5,0-3,0.1-4.5,0c-1.3-0.1-2,0.2-2.4,1.5c-1.7,5.6-3.5,11.3-5.3,16.9c-0.1,0.4-0.6,0.8-1,1.1c-0.1-0.4-0.5-0.9-0.4-1.3
			c1-6.7,1.9-13.5,4.2-19.9c0.1-0.4-0.2-1.4-0.6-1.5c-2.5-1.1-3.3-3.5-4.1-5.7c-0.5-1.6,0-3.1,1.1-4.4c1.7-1.9,3.6-3.4,6-4.2
			c1.2-0.4,1.3-1,0.9-2c-0.7-1.9-1.2-3.8-1.9-5.7c-2.1-5.4-4.3-10.8-6.6-16.2c-0.2-0.5-1.3-1-1.8-0.8c-2.6,0.7-5.2,1.6-7.8,2.3
			c-2.9,0.7-5.9,1-8.6-0.7c-1.8-1.1-2.6-0.9-3.2,1.3C26.2,141,25,145.4,23.7,150.3z M155.9,57.9c-1.8,0.6-3,1.2-4.3,1.4
			c-4.1,0.4-8.1,0.6-12.2,0.9c-0.7,0.1-1.6,0.6-1.9,1.2c-1,2.1-1.6,4.4-2.6,6.5c-2.3,4.7-3.4,9.8-4.1,14.9c-0.2,2-0.7,3.9-1.3,5.8
			c-0.4,1.3,0.2,6.5,1.3,7.4c0.1,0.1,0.3,0.2,0.4,0.3c3.1,1.2,5.1,3.6,7.2,6.1c1.5,1.8,3.1,3.5,4.8,5.5c0.2-0.3,0.4-0.6,0.5-0.9
			c1.1-3.6,2.2-7.2,3.2-10.9c0.2-0.6-0.2-1.6-0.6-2.2c-5.8-5,1.3-10.6,2.4-11c1.2-0.4,2.4-0.7,3.6-0.8c1.9-0.2,3.8-0.5,5.6-0.1
			c1.7,0.4,1.9,0,1.7-1.4C158.5,73.2,157.2,65.7,155.9,57.9z M34.1,180.6c-1.3,0.6-2.2,1.2-3.3,1.5c-5.6,1.3-11.2,3-17.1,2.4
			c-0.5,0-1.4,0.5-1.4,0.8c-0.2,3.4-0.2,6.7-0.2,10.1c0,3.7,0.6,7.5,0.1,11.2c-1.2,8.1-0.7,16.2-0.8,24.3c0,0.6,0.5,1.7,0.9,1.8
			c2.4,0.5,4.9,0.8,7.5,1.2c-0.4-1.5-0.9-2.4-0.8-3.4c0.2-7.5,1.9-14.6,5.8-21.1c0.8-1.2,0.9-2.2,0-3.3c-1.3-1.5-1.6-3.4-0.6-5.1
			c1-1.7,2.1-3.4,3.5-4.8c2.6-2.6,5.6-4.3,9.4-4.1c0.7,0,1.4,0,2.7,0C37.7,187.9,36,184.4,34.1,180.6z M49.6,108.5
			c-4.7-2.8-6.9-3.8-11.2-3.5c-5.6,0.6-10.2,3.2-14,7.3c-3.1,3.4-4.3,7.3-2.8,11.9c1.4,4.1,6.8,6.7,10.8,6.6c2.1,0,4.3-0.4,6.4-0.9
			c6.9-1.8,11.9-5.8,14-12.8C53.5,115.2,51.9,110.4,49.6,108.5z M29.4,176.9c1.2-0.3,2.3-1.3,3.3-2.1c2-1.4,4.2-2.6,6-4.3
			c3.1-3,2.7-11-0.8-13.5c-3.7-2.6-7.8-4.5-12.4-3.8c-3.5,0.5-6.9,1.6-10.3,2.7c-1.7,0.5-2.6,1.8-2.3,3.8c0.3,2.3,0.3,4.7,0.2,7.1
			c-0.1,3.2-0.5,6.3-0.8,9.5c-0.1,1.2,0.4,1.8,1.8,1.8C16,178,26.2,177.6,29.4,176.9z M11,98.8c-0.1,0.9-0.2,1.5-0.2,2
			c0.2,2.6,0.6,5.2,0.7,7.8c0.3,5.1,1,10.2,0.2,15.4c-0.5,2.9-0.8,5.8-0.6,8.7c0.3,6.4,0.9,12.9,1.4,19.3c0,0.3,0.8,0.9,1,0.9
			c2.3-0.6,4.5-1.3,6.7-2.1c0.5-0.2,0.9-0.8,1-1.3c1.3-5.3,2.5-10.6,3.8-15.8c0.3-1.2,0.2-1.8-0.8-2.5c-2.7-1.8-4.6-4.5-5.1-7.4
			c-1.1-5.6-0.4-10.9,5.2-15c1.8-1.3,3.7-2.6,5.5-4c0.4-0.3,0.7-1.1,0.5-1.5c-0.6-1.8-1.4-3.5-2.2-5.3
			C22.7,100.7,17.1,101.3,11,98.8z M79.6,94.1c-4.7,3.2-11.9,4.2-21.2,2.9c-1.4,3.1-2.8,6.4-4.3,9.5c-0.6,1.2-0.5,2.2,0.2,3.4
			c1.7,2.7,2.5,5.5,1.1,8.6c-0.6,1.2-0.8,2.6-1.4,3.8c-0.9,1.6-1.7,3.3-3,4.5c-1.4,1.2-1.6,2.3-0.9,3.8c1.6,3.6,3.3,7.1,4.7,10.7
			c1.8,4.7,3.4,9.5,5,14.4c0.4,1.3,0.9,1.7,2.2,1.5c1.1-0.1,2.2,0.1,3.2,0.3c1.2,0.2,2.3,0.6,3.5,0.8c0.5,0.1,1.3-0.2,1.5-0.6
			c1.3-2.5,2.5-5,3.6-7.6c0.2-0.5-0.2-1.5-0.6-1.9c-1.1-0.8-2.3-1.4-3.5-2.1c-6.5-3.5-10.1-9.4-12.1-16.1c-1.6-5.4-1.1-11,1.9-16.1
			c2-3.4,4.2-6.8,7.5-9c3.4-2.2,7.1-4,10.7-5.7C81.2,97.6,81.3,97.7,79.6,94.1z M51.3,106.4c1.4-3.7,2.6-7.3,4-10.9
			c0.4-1.1,0.2-1.6-1-2.1c-5-2.5-5.9-5.6-4.8-10.3c0.5-2,1.8-3.8,2.7-5.7c0.3-0.6,0.8-1.2,0.7-1.7c-0.3-2.2-0.8-4.4-1.4-6.6
			c-0.1-0.4-1-0.9-1.5-0.8c-2.1,0.1-4.2,0.4-6.3,0.8c-0.6,0.1-1.4,0.5-1.6,0.9c-1.7,3.6-3.3,7.3-4.8,11c-0.2,0.5,0.1,1.4,0.4,1.9
			c1.2,2.6,1.1,4.5-1,6.4c-1.4,1.3-2.9,2.4-4.5,3.4c-1.4,0.8-2.1,1.7-1.5,3.4c0.7,1.8,1.3,3.7,1.7,5.6c0.4,1.8,0.5,1.9,2.2,1.3
			c3.2-1.1,6.5-1.2,9.7,0.2C46.7,104.1,48.9,105.2,51.3,106.4z M108.8,167.4c0.1,0.7,0.4,1.3,0.2,1.7c-1,2-0.2,3.5,1.2,4.9
			c0.6,0.6,0.7,1.2-0.1,1.9c-1.6,1.4-3.2,3-4.7,4.5c4.1,7.9,13.4,21.7,15,22.1c-0.5-16.5,3.4-32.5,4.9-48.9c-1.9,0.7-3.7,1.3-5,2.5
			C116.4,159.8,112.6,163.7,108.8,167.4z M21.2,233.3c1.3-0.1,2.2-0.1,3.1-0.2c3.7-0.1,7.4-0.2,11.2-0.4c1.2-0.1,2.7-0.2,3.6-0.9
			c1.3-1,2.6-1.5,4.2-1.5c1.7,0,2.9-0.8,3.3-2.6c0.7-2.8,1.4-5.6,2.2-8.4c0.7-2.2,0.7-4.1-0.8-5.9c-0.7-0.8-1-1.9-1.6-2.7
			c-0.2-0.3-0.9-0.7-1.2-0.5c-5.6,2.4-11.5,2.4-17.4,1.8c-0.4,0-1,0.2-1.2,0.5c-0.8,1.7-1.7,3.3-2.1,5.1
			C23.2,222.7,22.3,227.8,21.2,233.3z M132.1,145.5c3.4,7.9,6.5,15.2,8.8,23c5.2-1.4,10.3-2.9,15.6-1.9c0.1-0.2,0.3-0.4,0.2-0.6
			c-0.5-3.6-0.9-7.3-1.4-10.9c0-0.2-0.3-0.5-0.5-0.6c-1.4-0.6-3.8,0.3-4.6,1.7c-1.8,3.3-3.7,6.7-5.5,10c-0.5-0.5-0.8-1.2-0.6-1.7
			c1.1-3.2,2.2-6.4,3.6-9.5c1.1-2.4,0.2-3.9-1.8-4.6c-2.5-0.9-4.2-3.3-4.1-5.5c0.1-2.8,2-5.7,4.6-6.5c1.7-0.6,3.5-1,5.3-1.3
			c1.9-0.3,3.8-0.4,6.2-0.7c1.5-4.3,3.2-9.2,5.1-14.6C152.4,130,142,137.8,132.1,145.5z M145.2,54.3c1.6-0.2,3.3-0.3,4.9-0.6
			c1.6-0.3,3.2-0.7,4.8-1.2c1.6-0.5,3.2-1.2,4.7-1.9c4.2-1.8,4.8-6.2,3.5-9.2c-1.3-3.1-7.2-4.4-9.9-3.9c-1.3,0.3-2.7,0.2-4.1,0.1
			c-1.3-0.1-2.6-0.6-3.8-0.5c-5.1,0.4-9.5,2.4-12.7,6.6c-2.5,3.3-3,7.5,2.2,9.4C138.3,54.4,141.7,54.6,145.2,54.3z M77.4,74.8
			c-0.4-0.3-1-0.5-1.4-0.7c-1.5-0.6-11.3-1.9-17.1,1.7c-2.7,1.7-5,4-6.2,7c-1.7,4.2-1,6.7,3,8c7.4,2.4,14.6,2.4,21.7-1.2
			c2.5-1.3,3.9-3.1,4.3-5.8C82.1,81.5,81,77.6,77.4,74.8z M175.8,224.2c0.1,0.3,0.1,0.6,0.2,0.9c1,2.5,2,4.9,3.1,7.4
			c0.2,0.4,1,0.8,1.5,0.8c2.1-0.1,4.1-0.3,6.2-0.7c0.9-0.2,2.2-0.7,2.6-1.4c0.7-1.2,1.1-2.8,1.1-4.2c0.1-5.4,0-10.7-0.1-16.1
			c0-0.9-0.4-2.1-1-2.6c-2.4-1.7-4.9-3.2-7.4-4.8c-4.9-3.3-9.1-7.4-13.1-11.8c-2.1-2.3-2.2-2.5-4.8-1.2c-0.4,0.2-0.7,0.4-1.5,0.8
			c1.6,4.9,3.2,9.7,4.8,14.4c3.7,0.8,7.3,1.3,10.8,2.3c3.3,0.9,5.9,2.6,6.6,6.5c0.5,3.3-0.3,5.9-3.2,7.5
			C179.8,222.8,177.8,223.4,175.8,224.2z M16.3,95.6c1.6-0.2,3.2-0.3,4.7-0.7c5.3-1.6,9.7-4.7,13.9-8.2c1-0.8-0.4-3.6-0.4-4
			c0-0.5-5.1-7.8-10.3-7.7c-4.1,0.1-7.9,2.3-11.7,3.8c-1,0.4-2.2,1.8-2.2,2.8c-0.1,3.9,0.2,7.8,0.5,11.7c0,0.5,0.7,1.2,1.2,1.4
			C13.4,95.1,14.9,95.3,16.3,95.6z M177.5,114.9c3.5,0.5,7.2,1,11,1.5c-0.1-1.1-0.3-2.3-0.2-3.3c0.1-3.4,0.2-6.9,0.4-10.3
			c0.5-7.3,0.9-14.7,1.5-22c0.1-1.3-0.2-1.7-1.5-1.7c-2.4,0-4.8,0.1-7-0.4c-1.7-0.4-2.2,0.3-2.7,1.6c-1.7,5.1-3.4,10.1-5.1,15.2
			c-0.1,0.4-0.1,0.9-0.2,1.5c0.9-0.3,1.6-0.4,2.2-0.7c1.8-0.9,3.3,0,4.5,1.1c3.1,2.9,3.7,8.2,1.3,11.7
			C180.3,111.1,178.8,113.1,177.5,114.9z M41.5,36.4c3.3-0.5,6.3-0.8,9.2-1.5c3.3-0.9,6.7-1.9,9.8-3.4c2.7-1.3,2.6-4.6,0.2-6.3
			c-2.9-2.1-6.3-2.8-9.7-2.8c-2.8,0-5.5,0.6-8.3,0.7c-5.1,0.3-9.5,1.8-12.7,5.9c-2.3,2.9-2.3,4.9,1.3,5.9
			C34.6,35.7,38.2,35.9,41.5,36.4z M159.3,111.4c-1.3-3.5-2.5-7-3.6-10.5c-0.6-2-1-2.3-3-1.6c-0.6,0.2-1.5,0.3-2.1,0
			c-0.9-0.3-1.1-0.1-1.4,0.7c-0.5,1.6-1.3,3-1.8,4.6c-1.1,3.6-1.5,11.4-1.5,11.6c0.5,4.2,0.5,8.4-0.6,12.5c-0.3,1-0.6,2.1-1,3.3
			c7.3-5.4,14.4-10.7,21.7-16c-1.5-1.3-2.9-2.5-4.3-3.8 M165.4,187.7c-1.1-1.9-2.1-3.4-2.8-5.1c-1.6-3.5-3.1-7.2-4.7-10.7
			c-0.4-0.8-1.1-1.8-1.8-2c-1.4-0.3-3-0.4-4.4-0.1c-3,0.6-5.9,1.4-8.9,2.3c-0.4,0.1-0.9,0.9-0.8,1.3c0.9,4.6,1.9,9.2,3,13.7
			c0.2,0.7,1.1,1.5,1.9,1.8C153.1,191.1,159.1,189.1,165.4,187.7z M148.9,233c0.9-0.7,1.9-1,2.2-1.7c1-2.2,1.7-4.5,2.6-6.8
			c0.5-1.2,0.2-2-0.7-2.9c-2.7-2.9-3.5-7.6,0.1-11c2.1-2,4.7-2.9,7.4-3.6c1.8-0.5,3.7-0.8,5.6-1.2c-1.8-3.7-3.5-7.2-5.3-10.6
			c-0.3-0.5-1.2-1-1.8-0.9c-3.8,0.2-7.5,0.6-11.3,1c-1.2,0.1-1.9,0.5-1.7,1.9c0.4,2.3,0.7,4.7,1,7c0.7,5.6,1.5,11.3,1.9,16.9
			C149.2,224.7,148.9,228.6,148.9,233z M164,222.6c4.1,0,8.9,0,13.1-2.3c1.6-0.4,3.1-1.5,4.3-2.6c1.7-1.6,1.5-3.4-0.4-4.8
			c-3.3-2.5-7.3-2.9-11.2-3.4c-1.6-0.2-3.3-0.4-4.9-0.1c-2.2,0.4-4.5,1-6.6,1.9c-1.7,0.8-3.8,1.8-4.5,3.5c-1.7,4.1,2.1,4.8,3.5,6.1
			C157.7,221.3,162.4,222.3,164,222.6z M172.6,7.5c0,0,0-0.1,0-0.1c-0.8,0-1.5,0.2-2.3,0.1c-1.9-0.1-10.5,1.1-13.1,4.1
			c-3.4,3-2.9,5.6,1.1,7.5c2.7,1.3,5.4,1.3,8.4,1c3.8-0.3,7.5-0.8,10.8-2.4c4.8-2.2,6-3.9,3.7-8.8c-0.4-0.9-1-1.8-2.4-1.7
			C176.7,7.4,174.6,7.4,172.6,7.5z M191,73c-0.1-1.9-0.1-3.6-0.3-5.3c-0.4-3.4-1-6.8-1.3-10.2c-0.1-1.6-0.7-2.2-2.1-2.1
			c-3.4,0.3-6.6,1.2-9.3,3.2c-2.1,1.6-4.1,3.3-4.5,6.2c-0.6,3.4,1.1,6.4,4.5,7.3c0.5,0.1,6.7,1.2,8,1.1
			C187.5,73.2,189.1,73.1,191,73z M61.6,191.5c-0.8,2.5-1.6,5-2.4,7.5c-1.5,4.8-3.1,9.5-4.5,14.3c-1,3.6-1.9,7.3-2.8,11
			c-0.3,1-1.5,4.8-0.5,5c1.6,0.3,1.6,1.4,1.6,2.7c0,0.9,0,1.9,0.1,2.8c0,0.4,0.5,1,0.7,1c2.6,0,5.1-0.1,7.7-0.1
			C60.3,220.6,59.9,206.1,61.6,191.5z M113.2,84.8c1.3-0.2,2.7-0.4,4.1-0.8c3.7-1,7.3-2.3,10.1-5.1c0.5-0.5,0.7-1.6,0.7-2.3
			c-0.2-2.9-2.7-3.5-4.8-4.2c-1.2-0.4-15.4-2.2-17.8,6.2c-0.8,3,0.2,4.8,3.3,5.5C110.2,84.3,111.7,84.5,113.2,84.8z M40,195.1
			c-6.5,0.1-9.7,1.6-12.6,6.1c-1.8,2.8-1.2,4.7,2.1,5.4c3.7,0.8,7.4,0.5,11-0.8c3.5-1.2,5.4-3.6,6.1-7.1c0.4-2.3-0.5-3.4-2.9-3.6
			C42.5,195,41.3,195.1,40,195.1z M89.5,48.9c1.5-0.2,2.9-0.3,4.2-0.5c1.9-0.4,3.9-0.6,5.6-1.3c1.5-0.6,2.7-1.8,4-2.8
			c1.6-1.2,1.6-3.1-0.2-4c-2.4-1.1-15.7-4.6-19.8,2.7c-1.9,1.9-1.3,4.2,1.2,5C86.2,48.5,87.9,48.6,89.5,48.9z M117.1,8.8
			c-0.2-0.1-0.4-0.1-0.5-0.2c-4.7-0.2-9.5-0.3-14.2-0.5c-2.1-0.1-4.1-0.3-6.2-0.1c-1.9,0.2-2.8,1.6-3.2,3.4c-0.4,1.7,0.6,2.5,2,3.3
			c2.8,1.7,5.9,1.8,9.1,1.9c4.5,0.1,8.3-1.3,11.6-4.3C116.7,11.4,117.5,10.3,117.1,8.8z M153.3,232.6c8,1.3,15.6,3.3,23.7,0.8
			c-0.9-1.9-1.8-3.6-2.7-5.3c-0.5-1-1.3-1.1-2.2-0.9c-4.8,1-9.5,0.7-14.1-0.9c-0.5-0.2-1.6-0.1-1.7,0.2
			C155.2,228.4,154.4,230.4,153.3,232.6z M68.4,161c-1.3-0.1-2.2-0.1-3.1-0.3c-4-1.1-7.5,0.2-10.9,2.3c-1.8,1.1-2.8,3.2-2.5,4.7
			c0.4,1.6,2.1,2.9,4.4,2.9c2.5,0,5.1-0.1,7.6-0.3c0.5,0,1.2-0.6,1.5-1.2c0.6-1.3,1.1-2.7,1.6-4.1C67.4,163.7,67.9,162.5,68.4,161z
			 M36.7,60.3c0.1,1.5,1.1,2.5,2.6,2.7c2.3,0.3,4.7,0.7,7,0.6c2.5-0.1,4.7-1.1,6.2-3.2c0.8-1.2,0.9-2.3-0.2-3.3
			c-2.1-1.9-4.7-2.5-7.3-2.8c-1.2-0.2-2.6-0.7-4.1,0C38,55.6,36.6,59,36.7,60.3z M152.9,93.5c1.5-0.4,3.3-0.7,5-1.3
			c2.5-0.9,3.7-3.3,2.9-5.1c-0.8-1.8-3-2.6-7-2.5c-4,0.1-10,3.5-5,7.9C150,93,151.3,93.2,152.9,93.5z M156.8,140.2
			c-2.1,0.2-3.9,0.3-5.7,0.6c-2.1,0.3-4.2,0.8-5.7,2.6c-1.6,1.9-1.2,3.4,1.2,4c1.3,0.3,2.6,0.3,3.8,0.5c0.8,0.2,1.6,0.6,2.4,0.8
			c0.7,0.2,1.5,0.5,2.3,0.4c0.2,0,0.5-0.9,0.6-1.4c0.1-0.5,0.2-1,0.3-1.6C156.3,144.1,156.6,142.2,156.8,140.2z M9.2,17.1
			c-2.8,0.3-4,0.8-3.4,3.4c0.4,1.8,0.4,3.8,0.4,5.7c0,1.6,0.7,1.6,1.8,1.1c1.6-0.9,3.1-1.9,4.6-2.9c2.9-1.9,2.8-4.9-0.3-6.5
			C11.3,17.4,10.2,17.4,9.2,17.1z M172.8,113.4c1.1-0.9,1.9-1.4,2.5-2.1c1.9-2.2,3.9-4.5,3.9-7.7c0-1.4-1.4-3.2-2.6-3.3
			c-1.4-0.1-2.1,0.9-2.9,1.9C171.2,105.6,172.9,109.2,172.8,113.4z M167.9,111.2c0.1-0.9,0.3-1.6,0.3-2.3c-0.1-2.3-0.2-4.6-1.9-6.5
			c-0.4-0.4-1-0.8-1.5-0.8c-0.3,0-0.7,0.8-0.8,1.3c-0.1,0.8,0,1.7,0.1,2.5C164.7,107.7,165.3,109.9,167.9,111.2z"/>
		<path d="M90.6,132.6c0,1.8-2,3.8-3.6,3.7c-1.3-0.1-2.9-2-2.9-3.5c0-1.5,1.7-3,3.3-3C89,129.8,90.6,131.2,90.6,132.6z"/>
		<path d="M107.6,136.3c-1.9-0.1-3.3-1.4-3.2-2.9c0.1-1.2,2.3-2.6,3.9-2.5c1.5,0.1,3.3,1.7,3.2,3
			C111.3,135.3,109.6,136.4,107.6,136.3z"/>
		<path d="M97.4,226.6c-2.3-0.9-4.8-1.9-7.3-3c-3.3-1.5-6.5-3.1-9.7-4.6c-2.9-1.3-3.3-3.9-0.9-5.9c4.1-3.3,8.1-6.6,12.2-9.8
			c2.2-1.7,2.8-1.3,4.9,0.2c2.2,1.6,4.8,2.7,7.2,4.1c3.2,1.9,6.5,3.8,9.5,6.1c0.8,0.6,0.9,2.4,1.1,3.7c0.1,0.3-0.6,0.9-1,1.1
			c-3.5,1.7-7.1,3.2-10.6,4.9c-1.4,0.7-3.2,0.9-4,2.7C98.7,226.3,98.1,226.3,97.4,226.6z M110.1,215.7c0-0.2,0.1-0.4,0.1-0.6
			c-1.4-1-2.8-2.1-4.3-2.9c-3-1.6-6.1-2.9-9.1-4.7c-2.3-1.3-2.9-1.6-5,0c-3,2.3-5.9,4.6-8.8,7c-1.7,1.5-1.6,1.8,0.5,2.8
			c2.7,1.2,5.6,2.2,8.2,3.6c3.2,1.8,5.9,1.9,9-0.2C103.8,218.8,107,217.4,110.1,215.7z"/>
	</g>
	<path d="M198.3,23.2c0.7-4.8-2-9.5-0.6-14.5c0.6-2.1-1.2-4.2-3.4-5.3c-3.5-1.7-7.3-1.1-10.9-1.6c-1.5-0.2-3,0.1-4.6,0.1
		c-6.3,0.1-12.6-0.3-18.8,0.3c-8,0.9-15.9,0.8-23.9-0.7c-6.9-1.3-13.8-1.5-20.8-0.4c-3.1,0.5-6.4,0.6-9.6,0.6
		C99.9,2,94.1,2.1,88.2,1.9c-6.9-0.2-13.7-0.8-20.6-1.2c-4.3-0.2-8.6-0.4-13-0.5c-1.6-0.1-3.2-0.2-4.8-0.2C44,0.3,38.2,0.7,32.3,1
		C25,0.8,17.6-0.3,10.4,1.7C9,2.1,7.1,2,6.2,2.8C4.7,4.2,3.4,6.1,2.7,8c-1.1,3.1-2,6.4-2.3,9.7c-0.4,4.2-0.5,8.5-0.1,12.7
		c0.4,4.3,1.6,8.6,2.1,13c0.4,4.1,0.2,8.2,0.3,12.2C2.8,60.8,2.8,66,3.1,71.1c0.2,3.4,0.4,6.8,1.3,10c1.2,4.6,1.1,9.3,1.2,13.9
		c0.2,4.8,0.1,9.6,0.1,14.4c0,0.4,0.1,0.7,0.1,1.1c0.6,5.2,1.5,10.4,0.7,15.7c-0.4,3-1,6-1,9c-0.1,6.9,0.6,13.8,1.8,20.7
		c0.8,4.9,1.3,9.8,0.4,14.7c-0.8,4.2-1.6,8.3-2.3,12.5c-0.2,1.2-0.1,2.5-0.2,3.8c0,0.6,0,1.3-0.1,1.9c-0.2,3.4-0.6,6.7,0.4,10
		c0.7,2.3,1.2,4.8,1.3,7.2c0.2,2.6-0.1,5.3-0.3,8c-0.2,2.3-0.8,4.6-0.7,6.9c0.2,3.3,0.7,6.5,1.2,9.8c0.2,1.3,0.4,3,1.3,3.8
		c1.6,1.4,3.5,2.7,5.5,3.3c2.7,0.8,5.6,1.3,8.4,1.3c4.3,0.1,8.6-0.3,12.9-0.5c0.7,0,1.4,0.1,2.1,0.3c2,0.4,4,1,6,1.4
		c2.4,0.5,4.9,1.2,7.3,1.3c3.8,0.1,7.7-0.1,11.5-0.5c3.7-0.4,7.5-1.1,11.2-1.6c5.5-0.8,11-1.3,16.6-1c4.8,0.3,9.6-0.3,14.4-0.4
		c2.5,0,5.1-0.1,7.6,0.2c4.2,0.6,8.3,0.9,12.5,0.7c7.9-0.3,15.8-0.2,23.7-0.2c1.1,0,2.2,0.1,3.4,0.3c4.9,0.6,9.7,1.5,14.6,1.8
		c7,0.5,20.2-0.7,25-4.9c4.3-4.7,5.2-16.7,4.4-21.3c-0.3-3.8-0.9-7.5-1.3-11.2c-0.5-5.4-1-10.8-1.2-16.3c-0.2-5,0.1-10.1,0.2-15.1
		c0.1-3.1,0.2-6.3,0.4-9.4c0.2-6.3,0.5-12.6,0.6-19c0.1-3.3-0.1-6.6-0.2-9.9c0-2,0.2-4,0.2-6c0.1-4.1,0-8.3,0.3-12.4
		c0.3-4.4,1.1-8.7,1.3-13c0.3-5.8,0.2-11.6,0.1-17.4c0-4.3-0.2-8.5-0.4-12.8c-0.1-2.5-0.4-5-0.5-7.4c-0.2-4.4-0.2-8.9-0.5-13.3
		c-0.3-4.6-0.2-9.2,0.9-13.7C196.8,33,197.6,28.1,198.3,23.2z M194.3,22.6l0,0.2c-0.7,4.6-1.4,9.4-2.5,13.9c-1,4.4-1.3,9-1,14.9
		c0.2,2.6,0.2,5.4,0.3,8c0,1.7,0.1,3.5,0.2,5.2c0.1,1.3,0.1,2.6,0.2,3.9c0.1,1.2,0.2,2.4,0.2,3.6l0,1.1c0.2,3.8,0.3,7.7,0.4,11.5
		l0,1.5c0,5.2,0.1,10.5-0.1,15.7c-0.1,2.2-0.4,4.4-0.7,6.7c-0.3,2-0.5,4.1-0.7,6.3c-0.2,2.8-0.2,5.7-0.2,8.4c0,1.4,0,2.8,0,4.2
		c0,0.8-0.1,1.6-0.1,2.4c-0.1,1.2-0.1,2.4-0.1,3.7c0,1.4,0,2.9,0.1,4.3c0.1,1.9,0.1,3.7,0.1,5.5c-0.1,4.8-0.3,9.6-0.4,14.3l-0.2,4.6
		c0,1.3-0.1,2.5-0.1,3.8c-0.1,1.9-0.2,3.8-0.2,5.7c0,1.2-0.1,2.5-0.1,3.7c-0.1,3.8-0.2,7.7-0.1,11.6c0.2,5.1,0.6,10.2,1,15.1
		l0.1,1.4c0.2,2,0.4,3.9,0.7,5.8c0.2,1.9,0.5,3.6,0.6,5.4c0,0.1,0,0.2,0,0.4c0.7,3.9-0.3,14.2-3.2,17.7c-2.8,2.2-10.8,3.9-18.8,3.9
		c-1.1,0-2.1,0-3.1-0.1c-3.1-0.2-6.2-0.7-9.5-1.1c-1.6-0.2-3.3-0.5-4.9-0.7c-1.1-0.1-2.4-0.3-3.8-0.3h-1.2c-1.7,0-3.3,0.1-5,0.1
		c-1.7,0-3.4,0-5,0c-3.5,0-8,0-12.6,0.2c-0.7,0-1.3,0-2,0c-2.9,0-6-0.2-9.9-0.7c-1.4-0.2-2.9-0.3-4.8-0.3c-0.9,0-1.8,0-2.6,0l-0.7,0
		c-1.8,0-3.5,0.1-5.2,0.2c-2.2,0.1-4.2,0.2-6.3,0.2c-0.9,0-1.8,0-2.6-0.1c-1.2-0.1-2.5-0.1-3.7-0.1c-4.2,0-8.7,0.4-13.7,1.1
		c-1.1,0.2-2.2,0.3-3.3,0.5c-2.6,0.4-5.1,0.8-7.6,1.1c-3.4,0.3-6.4,0.5-9.2,0.5c-0.6,0-1.3,0-1.9,0c-1.4,0-3-0.4-4.7-0.8
		c-0.6-0.1-1.3-0.3-1.9-0.4c-1.1-0.2-2.3-0.5-3.4-0.8c-0.8-0.2-1.7-0.4-2.5-0.6l-0.1,0c-0.7-0.2-1.6-0.4-2.7-0.4l-0.3,0
		c-1.5,0.1-3,0.1-4.5,0.2c-2.5,0.1-4.8,0.3-7.2,0.3c-0.3,0-0.7,0-1,0c-2.5,0-5-0.4-7.3-1.1c-1.2-0.4-2.5-1.1-3.7-2.2
		c-0.1-0.4-0.2-1-0.3-1.4l-0.2-1c-0.5-3-0.9-5.8-1.1-8.7c0-1,0.1-2.2,0.3-3.5c0.1-0.9,0.3-1.9,0.3-2.9l0.1-1.2
		c0.2-2.4,0.4-4.8,0.2-7.3c-0.2-2.9-0.7-5.6-1.5-8.2c-0.7-2.2-0.5-4.6-0.3-7.3l0.1-1.2c0-0.7,0.1-1.3,0.1-2c0-0.5,0-1,0-1.4
		c0-0.7,0-1.4,0.1-1.9c0.5-2.9,1-5.9,1.6-8.8c0.2-1.2,0.4-2.4,0.7-3.6c1.1-5.8,0.4-11.4-0.4-16.1c-1.3-7.7-1.8-14-1.7-19.9
		c0-2.3,0.4-4.6,0.8-7.1l0.2-1.4c0.8-5.3,0.1-10.3-0.5-15.1L9.9,110c0-0.2-0.1-0.4-0.1-0.6l0-0.1c0-1.5,0-3,0-4.5
		c0-3.2,0-6.6-0.1-9.9c0-1-0.1-1.9-0.1-2.9c-0.1-3.9-0.2-7.8-1.3-12c-0.7-2.7-1-5.8-1.2-9.2c-0.2-3.7-0.3-7.4-0.4-11.1
		c0-1.4-0.1-2.8-0.1-4.2c0-1.3,0-2.6,0-3.8c0-2.8,0-5.7-0.3-8.7c-0.2-2.3-0.6-4.4-1.1-6.6c-0.4-2.2-0.8-4.3-1-6.3
		c-0.3-3.9-0.3-8,0.1-12c0.3-2.6,1-5.5,2.1-8.8C6.9,8.3,7.7,7,8.6,6.1C8.9,6,9.2,6,9.4,5.9c0.6-0.1,1.3-0.2,2-0.4c2.6-0.7,5.4-1,9-1
		c2.2,0,4.4,0.1,6.7,0.2c1.6,0.1,3.3,0.2,5,0.2c0,0,0.3,0,0.3,0l4.8-0.3c4.3-0.2,8.5-0.5,12.8-0.7c0.2,0,0.4,0,0.6,0
		c0.7,0,1.5,0,2.3,0.1c0.5,0,1,0.1,1.6,0.1c1.3,0.1,2.6,0.1,4,0.1c2.9,0.1,6,0.2,8.9,0.4C69.9,4.9,72.5,5,75,5.2
		c4.3,0.3,8.7,0.6,13,0.7C89.9,6,91.7,6,93.8,6c3.4,0,6.7-0.1,10-0.1l2.7-0.1c3.1-0.1,6.3-0.1,9.5-0.7c2.7-0.4,5.5-0.7,8.4-0.7
		c3.6,0,7.2,0.3,11.1,1.1c4.7,0.9,9.6,1.3,14.7,1.3c3.3,0,6.8-0.2,10.3-0.6c3.1-0.3,6.2-0.4,8.5-0.4c1.3,0,2.6,0,3.9,0
		c1.3,0,2.7,0,4,0c0.7,0,1.3,0,2,0c0.6,0,1.2,0,1.8-0.1c0.5,0,1-0.1,1.5-0.1c0.3,0,0.5,0,0.7,0c1.3,0.2,2.6,0.2,3.9,0.3
		c2.3,0.1,4.2,0.2,5.8,0.9c0.7,0.3,1,0.7,1.2,0.9c-0.9,3.5-0.3,6.6,0.1,9.4C194.3,19.4,194.6,21.1,194.3,22.6z"/>
</g>
</svg>
