<?xml version="1.0" encoding="utf-8"?>
<!-- Generator: Adobe Illustrator 19.1.0, SVG Export Plug-In . SVG Version: 6.00 Build 0)  -->
<svg version="1.1" id="Calque_1" xmlns="http://www.w3.org/2000/svg" xmlns:xlink="http://www.w3.org/1999/xlink" x="0px" y="0px"
	 viewBox="0 0 251.5 245.5" style="enable-background:new 0 0 251.5 245.5;" xml:space="preserve">
<style type="text/css">
	.st0{fill:#254B86;}
	.st1{fill:#254B87;}
	.st2{fill:#492E1F;}
	.st3{fill:#DFB76A;}
	.st4{fill:#BFBEBE;}
	.st5{fill:#6EA2C2;}
	.st6{fill:#224E89;}
	.st7{fill:none;stroke:#224E89;stroke-width:3;stroke-miterlimit:10;}
	.st8{fill:#F5F9F8;}
	.st9{fill:#F5F9F8;stroke:#224E89;stroke-width:3;stroke-miterlimit:10;}
	.st10{fill:#F9CB00;}
	.st11{fill:#DF111A;}
	.st12{fill:#0B6EB1;}
	.st13{fill:#8D1514;}
	.st14{fill:#679FD0;}
	.st15{fill:#008549;}
	.st16{fill:#CB9831;}
	.st17{filter:url(#Adobe_OpacityMaskFilter);}
	.st18{fill:#1D1C1A;}
	.st19{fill:#C99730;}
</style>
<g>
	<path id="" d="M171.1,232.6c-0.4-2.3-0.5-4.6-1-6.8c-2.2-9.8-4.5-19.6-6.6-29.5c-1.6-7.9-2.9-15.8-4.4-23.7
		c-0.9-5-2-10-3.1-15.4c-20.9,9.5-41.2,8.2-61.4-1.7c-0.8,2.6-1.5,5.1-2.3,7.5c-2.5,7.3-5.2,14.6-7.7,22c-1.9,5.5-3.7,11-5.2,16.7
		c-1.8,6.9-3.4,13.8-4.9,20.8c-0.5,2.2-0.7,4.5-1,6.8c1.7,0.6,3.2,1.1,4.7,1.6c8.5,3.1,17.1,6.1,26,7.6c6.6,1.2,27.2,1.9,30.8,1.9
		c8.9-0.1,17.7-1,26.4-3c0.5-0.1,1.1-0.1,1.6-0.3c2.9-0.8,5.8-1.5,8.8-2.3C171.5,233.8,171.2,233.2,171.1,232.6z M127.4,223.4
		c-4.1,0-8.1,0-12.4,0c-0.1-2.1-0.3-4.3-0.3-6.4c0.1-7,0.3-14,2-20.9c0.6-2.2,0.2-2.6-1.7-3.2c-1.7,4.1-5.2,6.7-8.4,10.1
		c-1.2-2.6-2.2-5-3.3-7.4c1.4-1.3,2.6-2.4,3.9-3.5c2.9-2.6,5.9-5.1,8.7-7.7c1.7-1.5,3.2-2.8,5.8-2.2c2.9,0.7,5.8,1,9,1.5
		C127.4,196.8,128.8,210,127.4,223.4z"/>
	<path id="" d="M89.2,151.3c-0.3,0.3-0.7,0.7-1.1,1.2c-5.5,6.9-10.9,13.9-15.7,21.4c-1.9,3-3.4,6.4-4.8,9.7
		c-1.1,2.5-1,2.9,1.3,4.3c3,1.8,6.2,3.2,9.5,4.9c1.2-3.1,2.4-5.9,3.4-8.8c3.1-8.7,6.1-17.5,9.1-26.2c1.3-3.7,1.3-3.7-1.4-6.4
		C89.5,151.3,89.4,151.3,89.2,151.3z"/>
	<path id="" d="M165.6,193.6c3.4-1.5,6.5-2.9,9.6-4.4c0.7-0.3,1.4-0.7,1.8-1.3c0.4-0.5,0.7-1.4,0.5-2c-0.8-2.4-1.6-4.7-2.6-7
		c-2.7-6.7-5.5-13.3-8.2-20c-1.3-3.1-2.6-6.3-3.8-9.2c-1.7,1.5-3.3,2.9-5.2,4.5C161.1,167.1,162.8,180.3,165.6,193.6z"/>
	<path d="M0,133.5c0.4-5.2,0.7-10.5,1.3-15.7c0.7-6.8,1.4-13.6,3.2-20.3c0.7-2.5,1.6-4.9,2.4-7.4c0.5-1.5,0.6-3.1,1.2-4.5
		c2.3-5.7,4.3-11.6,7.4-17c2.8-4.9,5.5-9.9,8.5-14.6c2.1-3.3,4.6-6.2,7.2-9.2c3.4-3.9,6.8-7.9,10.4-11.5c4.9-4.9,10.4-9.2,16.3-12.9
		c8.8-5.5,18.3-9.7,27.9-13.6c6.9-2.7,14-3.9,21.1-5.5c8.9-2,17.8-1.1,26.7-0.9c8.7,0.2,17.3,1.4,25.7,3.9
		c11.6,3.5,22.9,7.8,33.4,14.1c2.8,1.7,5.8,3.3,8.6,5.1c4.8,3.2,8.6,7.6,12.4,11.9c4,4.5,8.1,8.9,11.7,13.7
		c3.3,4.4,5.9,9.2,8.8,13.8c5.4,8.9,8.8,18.5,11.4,28.5c1.5,5.5,3,11.1,4,16.7c3.1,13.4,1.4,35.6-0.2,41.8
		c-2.1,14.3-9.7,33.4-16.7,42.7c-1.7,2.5-3.4,5.1-5.5,7.3c-3.7,4-6.4,8.8-10.3,12.7c-5.3,5.3-10.4,10.8-16.4,15.3
		c-7.8,5.7-16.6,9.6-26,11.9c-4.7,1.1-20.1,3.9-23.1,4.3c-4.4,0.6-8.8,1.1-13.2,1.3c-7.2,0.2-14.3,0.3-21.5,0
		c-6.7-0.3-13.4-1.7-19.9-3.3c-11-2.8-21.6-6.6-31.9-11.2c-6.5-2.9-12.5-6.7-18.2-11.2c-5.8-4.5-10.7-9.7-15.4-15.2
		c-5.5-6.4-10.1-13.5-14.3-20.8c-3.2-5.5-6.3-11.1-9.1-16.8c-2-4.1-3.8-8.3-4.9-12.7C1.6,147.4,0,140.6,0,133.5z M89.7,146.3
		c-1.2-1.2-2.1-2.1-3-3c-4.9-4.6-9-9.8-11.1-16.3c-2.4-7.3-3.4-14.8-3-22.4c0.3-4.5,0.9-9.1,3.1-13.2c1.9-3.6,3.9-7.2,6.4-10.4
		c2.3-2.9,5-5.5,8-7.5c6.2-4.3,13.1-6.9,20.6-7.8c5-0.6,10.1-0.7,15.2-0.6c2.8,0,5.7,0.8,8.5,1c7.6,0.6,14.6,3.5,21.2,7.1
		c4.5,2.4,8.5,5.6,12.5,8.7c6.4,5.5,10,13.8,10.4,14.9c2.7,7.3,3.7,14.8,2.5,22.6c-1.3,8.2-4.7,15.3-10.7,21.1
		c-1.6,1.6-3,3.5-4.5,5.2c1.2,2.7,2.3,5.3,3.4,7.8c1.1,2.5,2.4,5,3.3,7.6c2.6,6.9,5.1,13.9,7.5,20.9c0.6,1.7,1.1,3.5,1.3,5.4
		c0.2,1.6-0.2,3-1.7,4c-2.6,1.7-5.1,3.7-8.3,4c-0.5,0-0.9,0.6-1.4,0.9c1.2,5.2,2.4,10.3,3.5,15.4c1.1,5.1,2.2,10.2,3.4,15.5
		c3.4-1.5,8.2-3.8,9.6-4.3c1.4-0.5,1.3,2.3,1.9,3.3c2.1-1,7.3-3.5,7.7-3.9c8.5-6.1,16.6-15.9,21-21.4c5.9-7.3,10.6-15.4,15.3-23.5
		c4.5-7.8,7.7-16.2,9.4-25.1c1.2-6.3,2.4-12.7,2.3-19.3c0-2.5-0.2-4.9-0.4-7.4c-0.4-6.5-4.8-40.8-14.2-57.5c-2.6-4.1-5.7-8-8-12.3
		c-3.1-5.6-7.1-10.6-11.4-15.3c-3.6-3.9-7.5-7.7-11.6-11.2c-5.4-4.6-11.1-9-17.9-11.5c-5.6-2.1-11.2-4.4-16.8-6.6
		c-4.8-1.9-9.8-3.4-15-3.9c-2-0.2-4-0.7-5.9-1c-5.7-0.8-11.4-1.5-17.1-1.2c-4,0.2-7.9-0.1-11.9,0.3c-5.1,0.5-10.1,1.4-15.1,2
		c-6,0.8-11.8,2.1-17.4,4.4c-4.9,2-9.5,4.5-14.2,6.9C57.5,23.5,48.9,29.4,41.8,37c-7.2,7.7-14.5,15.4-19.2,25
		c-1,2.1-2.6,3.8-3.7,5.9c-2.3,4.3-4.7,8.6-6.1,13.3c-1.5,4.9-3.5,9.8-5,14.7c-1.6,4.9-2.5,10-2.9,15.2c-0.5,6.3-2.8,23.8-0.7,35
		c1.3,9.1,6.3,18.3,10.4,26c4.1,7.7,10.3,17.6,13.9,22c2.9,3.6,6.1,7,9.2,10.4c2.4,2.6,4.9,5.1,7.5,7.4c2,1.8,4.2,3.3,6.3,4.9
		c2,1.5,4,3,5.9,4.4c3.1-3.3,6.3-1.1,9.2-0.6c3-9.1,6-18,8.2-26.9c-3-1.9-5.8-3.5-8.4-5.3c-2.6-1.8-2.9-3.5-1.6-6.5
		c2.6-5.8,5.9-11.1,9.5-16.3c2-2.9,4-5.8,6.2-8.5C83.5,153.6,86.6,150.1,89.7,146.3z M74.8,109.5c0.1,0,0.2,0,0.3,0
		c0.1,1.5,0.1,3,0.3,4.4c1,8.8,3.1,17,9.4,23.7c8.3,8.9,18.1,15,30.2,17c11.3,1.9,19.9,0.8,27-1c1.2-0.2,2.4-0.4,3.5-0.9
		c5.9-2.7,11.5-5.9,16.6-10c5.4-4.4,10-9.3,12.4-16c2.4-6.8,4.3-13.6,2.7-20.9c-0.7-3.3-1.4-6.8-2.7-9.9c-1.8-4.3-4.9-7.9-8.2-11.1
		c-4.4-4.4-9.7-7.3-15.4-9.8c-7.9-3.5-16.2-5.9-24.9-6.2c-8.4-0.3-16.8,0.2-24.9,2.9c-1.9,0.6-4,0.9-5.7,1.8
		c-4.4,2.1-7.9,5.3-10.9,9.2c-3.7,4.8-7,9.8-8.2,15.9C75.4,102.2,75.2,105.9,74.8,109.5z M156.1,157.2c-20.9,9.5-41.2,8.2-61.4-1.7
		c-0.8,2.6-1.5,5.1-2.3,7.5c-2.5,7.3-5.2,14.6-7.7,22c-1.9,5.5-3.7,11-5.2,16.7c-1.8,6.9-3.4,13.8-4.9,20.8c-0.5,2.2-0.7,4.5-1,6.8
		c1.7,0.6,3.2,1.1,4.7,1.6c8.5,3.1,17.1,6.1,26,7.6c6.6,1.2,27.2,1.9,30.8,1.9c8.9-0.1,17.7-1,26.4-3c0.5-0.1,1.1-0.1,1.6-0.3
		c2.9-0.8,5.8-1.5,8.8-2.3c-0.3-0.9-0.5-1.5-0.6-2.1c-0.4-2.3-0.5-4.6-1-6.8c-2.2-9.8-4.5-19.6-6.6-29.5c-1.6-7.9-2.9-15.8-4.4-23.7
		C158.2,167.6,157.1,162.6,156.1,157.2z M89.2,151.3c-0.3,0.3-0.7,0.7-1.1,1.2c-5.5,6.9-10.9,13.9-15.7,21.4c-1.9,3-3.4,6.4-4.8,9.7
		c-1.1,2.5-1,2.9,1.3,4.3c3,1.8,6.2,3.2,9.5,4.9c1.2-3.1,2.4-5.9,3.4-8.8c3.1-8.7,6.1-17.5,9.1-26.2c1.3-3.7,1.3-3.7-1.4-6.4
		C89.5,151.3,89.4,151.3,89.2,151.3z M165.6,193.6c3.4-1.5,6.5-2.9,9.6-4.4c0.7-0.3,1.4-0.7,1.8-1.3c0.4-0.5,0.7-1.4,0.5-2
		c-0.8-2.4-1.6-4.7-2.6-7c-2.7-6.7-5.5-13.3-8.2-20c-1.3-3.1-2.6-6.3-3.8-9.2c-1.7,1.5-3.3,2.9-5.2,4.5
		C161.1,167.1,162.8,180.3,165.6,193.6z"/>
	<path d="M204.2,150.8c-3.3,1.7-6.5,3.4-9.8,4.9c-1.4,0.7-2.9,1.2-4.3,1.8c-2,0.9-3.7,0.4-5.3-1.1c-1.9-1.8-2-2.8-0.5-5
		c2.9-4.1,5.9-8.3,8.9-12.5c-1.3-3.9-3.3-7.5-6-10.7c-1.5-1.8-1.5-1.9-1.8-4c0.9-0.9,1.8-1,3.1-0.6c3,0.8,6.1,1.3,9.2,1.8
		c1.4,0.2,2.6,0,3.7-1.1c4.1-4.1,8.3-8.2,12.6-12.4c0.9,0,2.1,0.1,3.2,0.1c1.9,0.1,2.2,0.4,2.2,2.4c-0.2,5,0.4,9.9,1.8,15.1
		c1.8,0.2,3.6,0.3,5.4,0.5c1.4,0.2,2.9,0.7,4.3,0.9c1.7,0.3,2.3,1.7,2.8,3c0.4,1.1,0.3,2-0.8,2.9c-3.3,2.8-6.5,5.8-9.9,8.5
		c-1.2,1-1.6,2.1-1.6,3.6c0.1,4.3,0.1,8.5,0.2,12.8c0,1.1,0.3,5.9-1.1,6.5C220,168.6,208.8,155.9,204.2,150.8z M228.7,133.6
		c-4.2-0.7-7.8-1.3-11.4-1.8c-2.8-0.3-3.6-1.3-3.3-4.1c0.1-0.9,0.3-1.8,0.2-2.7c0-2.4-0.1-4.8-0.1-7.2c0-0.5-0.1-1-0.2-1.8
		c-1.5,1.6-2.7,2.8-3.9,4.1c-1,1.1-2.1,2.1-3.1,3.2c-1.1,1.1-2.9,3.9-4,5.1c-1.3,1.8-4.9-0.1-6.1-0.2c-2.4-0.3-4.7-0.8-7-1.2
		c2.1,3.7,4,7.3,6,10.8c0.7,1.1,0.6,2.1-0.1,3c-0.5,0.8-1.2,1.4-1.7,2.2c-2.1,3-4.2,5.9-6.3,8.9c0.1,0.2,0.3,0.3,0.4,0.5
		c4.7-2.1,9.4-4.2,14.4-6.5c1,1,2.1,2.1,3.3,3.3c3.6,3.8,7.1,7.7,10.7,11.5c-0.2-5.2-0.2-10.2-0.5-15.1c-0.1-1.8,0.6-3,2-4
		c1.7-1.2,3.5-2.4,5.2-3.7C225,136.6,226.6,135.2,228.7,133.6z"/>
	<path d="M22.9,139.6c-1.6-2.2-3.2-4.3-4.6-6.5c-1.2-1.9-2.1-4.1-3-6.2c-0.2-0.4,0.1-1,0.3-1.8c4.4,1.4,8.7,2.8,13.5,4.3
		c3.6-3.1,7.7-6.4,11.6-9.9c1.8-1.6,4.1-1.8,5.5,0.1c0.7,1.1,1.3,2.5,1.3,3.8c0.2,2.4,0,4.8-0.1,7.2c0,1.5,0,2.9,0,4.7
		c3.2,0.8,6.3,1.7,9.4,2.5c0.1,0,0.2,0,0.3,0c2,0.3,3.5,1.6,3.7,2.9c0.2,1.6-1,3.2-2.8,4c-1.9,0.9-3.8,1.8-5.8,2.6
		c-1.3,0.5-1.6,1.3-1.4,2.6c0.5,3.8,0.9,7.7,1.4,11.6c0.3,2.5,0.3,4.1-1.9,5.4c-2.2,1.3-4.8-1.5-6.5-3.6c-2.3-2.9-4.9-5.5-7.3-8.4
		c-0.8-1-1.6-1.3-2.9-1c-2.9,0.7-5.7,1.3-8.6,1.9c-2.4,0.4-4.9,0.6-7.4,1c-2.6,0.4-3.2-1.6-4.2-3.2c-0.9-1.5-0.2-2.6,0.8-3.7
		c2.6-3,5.2-6,7.8-9C22.2,140.6,22.5,140.2,22.9,139.6z M29.5,133.5c-3.8-2.5-7-2.9-11-4.4c0.7,1,1.2,1.7,1.8,2.4
		c2.2,2.2,3.4,5,4.8,7.7c0.7,1.4,0.5,2.3-0.5,3.4c-2.1,2.2-4.1,4.5-6.1,6.8c-0.6,0.7-1.1,1.4-2.1,2.6c1.6-0.3,2.6-0.4,3.5-0.6
		c3.8-0.8,7.6-1.4,11.4-2.5c2.3-0.6,3.7,0.2,4.9,1.9c3,4.4,6.7,8,10.7,12c0-1,0.1-1.7,0-2.4c-0.7-3.6-1.5-7.2-2.3-10.8
		c-0.4-1.5-0.9-2.8-0.3-4.1c3.5-1.5,6.9-2.9,10.7-4.6c-2.7-0.9-4.9-1.7-7.1-2.3c-1.1-0.3-2.2-0.5-3.2-0.8c-2-0.6-2.5-1.2-2.6-3.4
		c-0.1-3.1,0-6.1,0-9.2c0-0.9-0.1-1.7-0.2-2.8c-3.2,2.6-6,4.9-8.8,7.4C31.8,130.7,30.9,132,29.5,133.5z"/>
	<path d="M164,37.7c-3.8,3-8.5,4.1-13.2,6.1c0,2.1,0,4.4,0,6.6c0,1.6,0.1,3.2,0,4.7c-0.2,1.8-1.2,2.4-3.1,2.1
		c-1.4-0.3-2.6-0.9-3.5-2c-2.1-2.6-4.2-5.1-6.3-7.7c-1.9-2.4-2.2-2.6-5.1-1.8c-6.2,1.7-12.5,3.2-18.9,3.9c-1.2,0.1-3.6-1.2-3.9-2.5
		c-0.3-1.2,0.2-2.3,1.2-3.2c1.6-1.4,3.3-2.7,4.8-4.2c1.7-1.8,3.3-3.6,5.2-5.7c-1.9-2.3-3.5-4.4-5.1-6.5c-1-1.2-2-2.5-2.8-3.8
		c-1.1-1.9-0.3-3.7,1.9-4.2c1-0.3,2.3-0.5,3.3-0.2c2.7,0.8,5.4,1.8,8.1,2.7c0.5,0.2,1,0.5,1.5,0.7c2,1,3.7,1,5.4-0.9
		c2.8-3,5.8-5.7,8.7-8.6c0.3-0.3,0.6-0.8,1-1c2.5-1.1,4.9-1.1,5.3,2.2c0.5,4.3,1.5,8.5,1.5,12.9c0,0.6,0.5,1.4,1,1.7
		c3.1,1.6,6.3,3.2,9.5,4.4C162.3,34.3,163.6,35.3,164,37.7z M116.7,23c-0.1,0.2-0.2,0.3-0.3,0.5c0.4,0.6,0.8,1.2,1.3,1.7
		c1.5,1.9,3,3.7,4.4,5.7c0.5,0.6,1,1.5,0.9,2.2c-0.3,1.6-0.3,3.3-1.6,4.6c-2,2.1-3.8,4.2-5.8,6.4c2.2-0.4,4.2-0.8,6.3-1.3
		c3.9-0.8,7.8-1.7,11.7-2.5c0.7-0.1,1.8,0.1,2.2,0.5c2.5,2.7,4.8,5.6,7.2,8.4c1,1.2,2,2.3,3.1,3.4c0.2-0.1,0.4-0.1,0.6-0.2
		c-0.2-2.3-0.3-4.7-0.7-7c-0.4-1.7-0.2-3.2,0.3-4.7c4.2-1.6,8.2-3.2,12.5-4.8c-1-0.6-1.6-1-2.2-1.3c-3.2-1.4-6.4-2.9-9.6-4.3
		c-1.4-0.6-2.3-1.4-2.4-3c-0.2-3-0.5-5.9-0.7-8.9c-0.1-1.1,0-2.3,0-3.5c-0.5,0-0.6,0-0.7,0.1c-3.8,4-7.7,8-11.6,11.9
		c-0.4,0.4-1.4,0.8-1.9,0.6c-3.3-1.2-6.4-2.7-9.7-3.9C118.9,23.4,117.8,23.3,116.7,23z"/>
	<path d="M26.1,72.6c3.5-2.2,6.7-4.4,10-6.5c1.5-1,2.9-2,4.4-2.9c1.4-0.8,1.9-1.7,1.7-3.3c-0.3-3.1-0.3-6.3-0.5-9.4
		c0-0.5-0.6-3.4,0.4-4.2c1.1-0.9,2.4-1.4,3.9-0.8c0.7,0.3,1.3,0.7,1.9,1.2c2.9,2.7,5.8,5.5,8.8,8.4c3.3-1.4,6.6-3.4,9.8-5.7
		c1.4-1,2.9-1.5,4.7-1.3c2,0.3,2.7,1.3,2,3.3c-1,3.1-2.1,6.1-3.2,9.2c-0.5,1.4-0.3,2.4,0.8,3.4c1.4,1.2,2.6,2.7,3.7,4.1
		c1.3,1.8,1.1,2.5-0.9,3.6c-0.8,0.4-1.6,0.8-2.5,0.9c-3.9,0.5-7.9,0.9-12.1,1.3c-0.4,0.6-0.8,1.5-1.3,2.4C54.5,82,51.4,87.5,48.2,93
		c-1.2,2.1-2,2-3.7,0.1c-0.9-1.1-1.2-2.1-1.2-3.5c-0.2-5.1-0.4-10.1-0.7-15.4C38.2,75,30.2,75.4,29,75.3
		C26.8,75.3,26.6,75,26.1,72.6z M45.4,65.5c-3.2,1.5-7.5,3.2-11.2,6.1c2.7,0,4.3,0.1,8.3-0.6c0.4-0.2,1.5,0.6,1.9,1.2
		c1.1,1.6,1,11.7,1.9,15c2.7-5.7,5.3-11.2,7.8-16.3c5.5-0.5,10.6,0,15.9-1.3c-1.7-2-3.1-3.5-5.8-5.7c-1.2-2.8,3.7-9.7,3.9-11.8
		c-3.7,2.1-7.5,4.1-11.2,6.4c-1.8,1.2-3.1,0.6-4.4-0.5c-1.7-1.4-3.4-2.9-5.2-4.2c-0.7-0.5-1.4-1.5-2.6-1.2
		C44.2,57,46.3,61.2,45.4,65.5z"/>
	<path d="M189.1,73.5c-2.4-1.1-4.7-2.1-6.9-3.1c-2.4-1.1-4.9-2.1-6.7-4.6c4.5-2.5,15.2-5,15.2-5c0.5-2.8,1.9-8.6,2.6-11.4
		c0.6-2.3,2.6-3.2,4.7-2.3c0.9,0.4,1.7,1.1,2.5,1.7c1.8,1.6,3.6,3.2,5.5,5c2.2-1,4.5-2,6.8-3c1.5,1.9,2.8,3.4,1.5,6
		c-0.8,2.4-0.8,3.6-1.4,5.3c-0.6,1.6-0.3,2.8,0.8,4.1c2.2,2.6,4.2,5.4,6.4,8c0.6,0.8,1.2,1.5,0.7,2.5c-0.6,1.1-1.2,2.2-2.7,2.1
		c-1.1-0.1-2.2-0.3-3.3-0.5c-3.5-0.5-6.9-1-10.6-1.6c-1.4,1.7-2.9,3.7-4.5,5.6c-5.2,5-8.3,7.3-10.8,5.9S188.8,75,189.1,73.5z
		 M192.3,72.6c-0.7,4-1.3,7.4-1.9,10.8c0.1,0,0.3,0.1,0.4,0.1c3.3-3.7,6.6-7.4,10-11.2c4.4,3.1,9.3,2.9,14.6,3.6
		c-3.1-3.6-5.5-7.1-9.4-9.5c1.2-3.6,3.2-7,4.2-11.4c-2.5,1.4-4.4,2.4-6.2,3.5c-4-1-5.5-4.9-8.5-7.9c-0.5,3.8-1.5,8.2-1.9,12.9
		c-2.7,0.7-10.3,1.8-13.7,3.7C184.4,69.1,188.5,70.9,192.3,72.6z"/>
	<path d="M135.5,129.8c-2.7,0-4.4-2.6-4.1-5.4c0.1-0.9,0.3-1.8,0.7-2.7c0.7-1.7,2.5-3,3.8-2.7c2,0.4,2.8,3.4,2.9,5.4
		C138.8,126.4,138.3,129.8,135.5,129.8z"/>
	<path d="M110.4,125.4c-0.9,1.8-2.6,2.1-4.1,0.9c-2.8-2-2.8-7.5,0.1-9.4c1.8-1.2,3.4-0.9,4.3,1.1C111.8,120.3,111,124.2,110.4,125.4
		z"/>
	<path d="M112.2,227.4c0-8,0-15.8,0-23.6c-1.4,1-2.9,2-4.3,3c-2.6-0.8-3.8-2.3-4.6-4.7c-0.9-2.8-2.3-5.4-3.3-7.9
		c6.4-5.4,12.5-10.6,18.2-15.5c3.9,0.7,7.4,1.3,10.9,1.9c0.5,0.1,0.9,0.1,1.4,0.1c4.6,0,4.6,2,4.4,5c-0.2,2.9-1,5.8-1.4,8.7
		c-0.3,2.2-0.4,4.4-0.6,6.6c-0.2,2.8-0.4,5.5-0.5,8.3c-0.2,4.7-0.4,9.4-0.3,14.2c0.1,3.4-1.3,4.4-4.1,5c-4.2,0.8-8.6,1.4-12.9,0.1
		C114.1,228.3,113.2,227.8,112.2,227.4z M115,192.9c2,0.5,2.3,1,1.7,3.2c-1.7,6.9-2,13.9-2,20.9c0,2.2,0.2,4.4,0.3,6.4
		c4.3,0,8.3,0,12.4,0c1.4-13.3,0-26.6,3.3-39.6c-3.2-0.5-6.2-0.8-9-1.5c-2.6-0.6-4.1,0.7-5.8,2.2c-2.9,2.6-5.8,5.1-8.7,7.7
		c-1.2,1.1-2.5,2.2-3.9,3.5c1.1,2.4,2.1,4.8,3.3,7.4C109.8,199.6,113.3,197,115,192.9z"/>
	<path id="" d="M192.3,72.6c-0.7,4-1.3,7.4-1.9,10.8c0.1,0,0.3,0.1,0.4,0.1c3.3-3.7,6.6-7.4,10-11.2c4.4,3.1,9.3,2.9,14.6,3.6
		c-3.1-3.6-5.5-7.1-9.4-9.5c1.2-3.6,3.2-7,4.2-11.4c-2.5,1.4-4.4,2.4-6.2,3.5c-4-1-5.5-4.9-8.5-7.9c-0.5,3.8-1.5,8.2-1.9,12.9
		c-2.7,0.7-10.3,1.8-13.7,3.7C184.4,69.1,188.5,70.9,192.3,72.6z"/>
	<path id="" d="M228.7,133.6c-4.2-0.7-7.8-1.3-11.4-1.8c-2.8-0.3-3.6-1.3-3.3-4.1c0.1-0.9,0.3-1.8,0.2-2.7
		c0-2.4-0.1-4.8-0.1-7.2c0-0.5-0.1-1-0.2-1.8c-1.5,1.6-2.7,2.8-3.9,4.1c-1,1.1-2.1,2.1-3.1,3.2c-1.1,1.1-2.9,3.9-4,5.1
		c-1.3,1.8-4.9-0.1-6.1-0.2c-2.4-0.3-4.7-0.8-7-1.2c2.1,3.7,4,7.3,6,10.8c0.7,1.1,0.6,2.1-0.1,3c-0.5,0.8-1.2,1.4-1.7,2.2
		c-2.1,3-4.2,5.9-6.3,8.9c0.1,0.2,0.3,0.3,0.4,0.5c4.7-2.1,9.4-4.2,14.4-6.5c1,1,2.1,2.1,3.3,3.3c3.6,3.8,7.1,7.7,10.7,11.5
		c-0.2-5.2-0.2-10.2-0.5-15.1c-0.1-1.8,0.6-3,2-4c1.7-1.2,3.5-2.4,5.2-3.7C225,136.6,226.6,135.2,228.7,133.6z"/>
	<path id="" d="M116.7,23c-0.1,0.2-0.2,0.3-0.3,0.5c0.4,0.6,0.8,1.2,1.3,1.7c1.5,1.9,3,3.7,4.4,5.7c0.5,0.6,1,1.5,0.9,2.2
		c-0.3,1.6-0.3,3.3-1.6,4.6c-2,2.1-3.8,4.2-5.8,6.4c2.2-0.4,4.2-0.8,6.3-1.3c3.9-0.8,7.8-1.7,11.7-2.5c0.7-0.1,1.8,0.1,2.2,0.5
		c2.5,2.7,4.8,5.6,7.2,8.4c1,1.2,2,2.3,3.1,3.4c0.2-0.1,0.4-0.1,0.6-0.2c-0.2-2.3-0.3-4.7-0.7-7c-0.4-1.7-0.2-3.2,0.3-4.7
		c4.2-1.6,8.2-3.2,12.5-4.8c-1-0.6-1.6-1-2.2-1.3c-3.2-1.4-6.4-2.9-9.6-4.3c-1.4-0.6-2.3-1.4-2.4-3c-0.2-3-0.5-5.9-0.7-8.9
		c-0.1-1.1,0-2.3,0-3.5c-0.5,0-0.6,0-0.7,0.1c-3.8,4-7.7,8-11.6,11.9c-0.4,0.4-1.4,0.8-1.9,0.6c-3.3-1.2-6.4-2.7-9.7-3.9
		C118.9,23.4,117.8,23.3,116.7,23z"/>
	<path id="" d="M45.4,65.5c-3.2,1.5-7.5,3.2-11.2,6.1c2.7,0,4.3,0.1,8.3-0.6c0.4-0.2,1.5,0.6,1.9,1.2c1.1,1.6,1,11.7,1.9,15
		c2.7-5.7,5.3-11.2,7.8-16.3c5.5-0.5,10.6,0,15.9-1.3c-1.7-2-3.1-3.5-5.8-5.7c-1.2-2.8,3.7-9.7,3.9-11.8c-3.7,2.1-7.5,4.1-11.2,6.4
		c-1.8,1.2-3.1,0.6-4.4-0.5c-1.7-1.4-3.4-2.9-5.2-4.2c-0.7-0.5-1.4-1.5-2.6-1.2C44.2,57,46.3,61.2,45.4,65.5z"/>
	<path id="" d="M29.5,133.5c-3.8-2.5-7-2.9-11-4.4c0.7,1,1.2,1.7,1.8,2.4c2.2,2.2,3.4,5,4.8,7.7c0.7,1.4,0.5,2.3-0.5,3.4
		c-2.1,2.2-4.1,4.5-6.1,6.8c-0.6,0.7-1.1,1.4-2.1,2.6c1.6-0.3,2.6-0.4,3.5-0.6c3.8-0.8,7.6-1.4,11.4-2.5c2.3-0.6,3.7,0.2,4.9,1.9
		c3,4.4,6.7,8,10.7,12c0-1,0.1-1.7,0-2.4c-0.7-3.6-1.5-7.2-2.3-10.8c-0.4-1.5-0.9-2.8-0.3-4.1c3.5-1.5,6.9-2.9,10.7-4.6
		c-2.7-0.9-4.9-1.7-7.1-2.3c-1.1-0.3-2.2-0.5-3.2-0.8c-2-0.6-2.5-1.2-2.6-3.4c-0.1-3.1,0-6.1,0-9.2c0-0.9-0.1-1.7-0.2-2.8
		c-3.2,2.6-6,4.9-8.8,7.4C31.8,130.7,30.9,132,29.5,133.5z"/>
</g>
</svg>
