<?xml version="1.0" encoding="utf-8"?>
<!-- Generator: Adobe Illustrator 19.1.0, SVG Export Plug-In . SVG Version: 6.00 Build 0)  -->
<svg version="1.1" id="Calque_1" xmlns="http://www.w3.org/2000/svg" xmlns:xlink="http://www.w3.org/1999/xlink" x="0px" y="0px"
	 viewBox="0 0 190.6 242.9" style="enable-background:new 0 0 190.6 242.9;" xml:space="preserve">
<style type="text/css">
	.st0{fill:#6D9DBD;}
	.st1{fill:#F2A73B;}
	.st2{fill:#6DA3C3;}
	.st3{fill:none;}
	.st4{fill:none;stroke:#F2A73B;stroke-width:3;stroke-miterlimit:10;}
	.st5{fill:#6DA1C1;}
	.st6{fill:#F6AB3B;}
	.st7{fill:none;stroke:#F6AB3B;stroke-width:3;stroke-miterlimit:10;}
	.st8{fill:#F8AD3B;}
	.st9{fill:#C6C6C6;}
	.st10{fill:#F4901E;}
	.st11{fill:none;stroke:#F8AD3B;stroke-width:3;stroke-miterlimit:10;}
	.st12{fill:#FFFFFF;}
	.st13{fill:#FFFFFF;stroke:#C6C6C6;stroke-width:3;stroke-miterlimit:10;}
	.st14{fill:none;stroke:#C6C6C6;stroke-width:3;stroke-miterlimit:10;}
</style>
<g>
	<polygon id="c27" class="st2" points="91.3,168 115.3,168 114.6,184 95.3,184 89.6,181.9 	"/>
	<polygon id="c26" class="st2" points="77.7,86.3 60.1,91.9 55.2,82.5 53,63.2 58.2,43.6 69,31 94.6,23.3 111,25.7 128.1,36.7 
		140.7,54.5 137.6,98.6 119.2,121.2 116.4,153.2 106.9,156.3 91.9,155.2 90.5,121.2 95.7,108.7 114.1,90 117.8,68.7 115.6,54.1 
		105.2,43 92.2,43 77.4,57.5 	"/>
	<g>
		<path d="M179.6,237.4c-5.2,0.5-10.4,1.2-15.7,1.6c-6.1,0.4-12.1,0.5-18.2,0.7c-4.1,0.1-8.2-0.1-12.4,0.1
			c-4.9,0.2-9.7,0.6-14.6,0.7c-5,0.1-10.1-0.1-15.1-0.1c-7.3,0-14.5-0.2-21.8,0c-3.9,0.1-7.7,0.8-11.6,1.2c-0.1,0-0.2,0-0.3,0.1
			c-6.9,0.4-13.7,0.9-20.6,1c-8.7,0.2-17.4,0.2-26.1,0c-3.4-0.1-6.7-1.2-10.1-1.8c-0.4-0.1-0.9-0.1-1.4-0.2
			c-0.3-0.1-0.9-0.2-0.9-0.3c-0.4-2.5-3.1-3.7-3.3-6.5c-0.2-3.6-1.2-7.1-1.6-10.7c-0.3-2.5-0.1-5-0.1-7.5c0-5,0-10.1,0-15.1
			c-0.2-11.6-0.4-23.3-0.7-34.9c-0.1-4.2-0.6-8.5-0.4-12.7c0.2-4.7,1-9.3,1.3-13.9c0.2-3.5,0.1-7,0.2-10.5c0.1-3.1-0.6-6-1-9
			c-0.7-4.9-0.7-9.9-1.1-14.8c-0.4-4.9-0.8-9.8-1.2-14.7c-0.1-1.8,0.1-3.6,0.1-5.4c-0.1-5.9-0.1-11.9-0.3-17.8
			C2.7,61,2.5,55.1,2.1,49.3C1.8,44.4,1,39.5,0.5,34.6c-0.2-2.3-0.4-4.7-0.4-7C0,23.5-0.2,19.3,0.2,15.2c0.2-2.6,1.2-4.9,3-8.3
			s8.2-5.7,11.1-5.8c1.1-0.1,2.4,0.1,3.4-0.2c3.4-1.1,6.9-0.8,10.4-0.7c2.2,0.1,4.4,0.1,6.7,0.3c3.2,0.3,6.3,0.8,9.5,1.2
			c5,0.5,10.1,1.1,15.2,1.4c3.4,0.2,6.7,0.2,10.1,0c2.4-0.2,4.7-0.8,7-1.3c7.3-1.7,14.7-2.3,22.1-1.3c1.9,0.3,3.9,0.3,5.8,0.6
			c4.2,0.6,8.3,1.1,12.5,1.8c5.8,0.9,11.5,2,17.2,2.7c2.3,0.3,4.8-0.2,7.2-0.4c3-0.4,6-1,9-1.3c4.5-0.4,9-0.9,13.5-1
			c6.8-0.1,13.6,0.2,20.4,0.4c1.5,0.1,3,0.6,4.5,1c1.3,0.4,2,1.9,1.7,3.2c-1.2,5.6-1.7,11.2-1.6,16.9c0.1,3.3-0.1,6.6-0.2,10
			c-0.2,3.8-0.3,7.6-0.7,11.4c-0.4,3.8-1.3,7.6-1.8,11.5c-0.5,4.1-1,8.3-1.3,12.4c-0.2,3.1,0,6.2,0.1,9.2c0.1,3.5,0.6,7,0.6,10.5
			c0.1,4.6,0,9.3,0,13.9c-0.1,6.6-0.4,13.2-0.5,19.7c0,5.2,0.3,10.4,0.2,15.6c0,3-0.5,5.9-0.8,8.9c-0.5,6.5-1.1,13-1.5,19.5
			c-0.2,2.6,0.1,5.2,0.1,7.8c0,1.7-0.2,3.4-0.2,5.1c0.3,8.6,0.4,17.2,1.1,25.7c0.5,6.3,1.8,12.6,2.5,18.9c0.4,3.4,0.3,6.9,0.3,10.4
			c0,0.9-2.2,2.8-3.2,2.9c-1.4,0-2.8,0-4.1,0C179.6,237.6,179.6,237.5,179.6,237.4z M82.3,113.1c-0.7,1.1-1.5,2.1-1.8,3.3
			c-0.5,2-0.3,4.1-0.9,6c-0.4,1.3-1.3,2.7-2.4,3.4c-1.5,0.9-1.9,2-1.6,3.5c0.2,0.9,0.4,1.8,0.6,2.7c1.6,5.3,3.2,10.6,3.6,16.2
			c0.2,3,0.5,5.8,3.8,7.7c3,1.8,4,6.4,2.8,9c-0.6,1.3-1.3,2.6-1.9,4c-0.2,0.4-0.3,0.9-0.2,1.3c1.2,2.8,2.6,5.5,4,8.6
			c0.2-3.3,0.5-6.3,0.6-9.3c0.1-1.4,1.2-2.9,2.3-2.9c5.7-0.1,11.4-0.2,17.2-0.2c4.4,0,8.8,0,13.1,0.1c2,0,3,0.9,3.1,3
			c0.3,4.8,0.6,9.7,0.9,14.5c0.2,2.9-1.1,4.2-4.1,3.9c-1.7-0.2-3.5,0-5,0c2,5.5,4,10.6,5.8,15.8c0.8,2.3,1.5,4.7,2,7.1
			c0.1,0.6-0.3,1.8-0.8,2.1c-1,0.5-1.6-0.3-2-1.2c-1.2-3-2.4-5.9-3.7-8.9c-1.6-3.8-3.2-7.6-5.1-11.2c-1.2-2.1-2.5-4.8-5.9-3.6
			c-0.3,0.1-0.8-0.2-1.2-0.2c-1,0.1-2,0.2-3,0.4c-3.1,0.6-4.1,3.4-5.3,5.7c-2.1,3.9-3.6,8-5.4,12c-0.7,1.5-1.4,3-2.1,4.5
			c-0.2-0.1-0.4-0.1-0.7-0.2c0-1-0.2-2,0-2.8c1-2.9,2.1-5.7,3.2-8.5c0.9-2.4,1.7-4.8,2.7-7.2c0.5-1.2,1.2-2.3,1.8-3.2
			c-1.9-0.5-3.7-1-5.5-1.6c-0.6-0.2-1.1-0.7-1.7-1.1c-0.9-0.6-2.1-1.1-2.8-2c-1.6-1.9-2.9-4-4.3-6.1c-0.8-1.1-1.7-1.4-2.9-1
			c-4.4,1.6-8.9,1.3-13.4,0.9c-0.9-0.1-1.3,0.1-1.6,1c-0.7,2.4-1.4,4.7-2.2,7c9,4.8,8.7,5.4,13.3,11.7c2.2,3,2.9,7.8-0.4,10.9
			c-1.6,1.5-3.4,2.7-5,4.1c-0.3,0.3-0.7,0.9-0.6,1.3c1.1,4,2.4,7.9,3.3,11.9c0.7,3.1,2.7,6.1,0.7,9.5c0.7,0.1,1.2,0.2,1.7,0.2
			c5.2,0,10.4,0,15.6,0c3.3,0,3.3-0.1,4.3-3c1.1-3.3,1.2-3.3-1.8-5c-4.9-2.8-5.3-9.9-1.4-12.8c4.3-3.3,9.3-5,14.8-4.5
			c1.2,0.1,2.7,0.7,3.4,1.6c0.9,1.2,1.9,1.4,3.2,1.4c5.1,0.1,8.8,5.7,6.5,10.2c-0.9,1.8-2.4,4-4.2,4.5c-3.3,1.1-2.7,3-2.2,5.3
			c0.3,1.2,0.7,1.7,1.9,1.7c7.8-0.3,15.7-0.5,23.5-0.8c0.1,0,0.2-0.1,0.3-0.2c0.1-0.2,0.2-0.5,0.2-0.8c0.7-5.6,1.9-11,4.1-16.2
			c0.6-1.3,0.2-1.8-1-2.5c-2.1-1.1-4.4-2.2-5.8-4c-3.2-3.9-3-9.5,0.7-13.3c2.2-4.6,14.3-4.7,16.5-5c-1.1-2.7-2.1-5.1-3.1-7.5
			c-0.2-0.4-1-0.9-1.4-0.8c-4.7,0.5-9.4,0.9-13.9-1c-0.8,1.4-1.6,2.7-2.3,4c-2.3,4.3-4.6,8.5-7,12.8c-0.2,0.4-0.8,0.5-1.2,0.8
			c-0.1-0.5-0.4-1.1-0.3-1.5c1.2-2.9,2.4-5.9,3.8-8.8c1.9-3.9,3.8-7.7,5.8-11.5c0.4-0.8,0.4-1.4-0.3-2.1c-3.2-3-3.5-6.6-2.1-10.5
			c0.1-0.3,0.2-0.8,0.1-1.1c-0.2-0.9-0.7-1.8-0.8-2.8c-0.6-4.8,0.5-9.4,2.3-13.7c1-2.3,0.6-3.5-0.8-5.5c-2.4-3.4-1.7-7.7,3.2-8.5
			c2.8-0.5,5.7-1,8.8-1.5c0.1-4,1.8-7.8,3.9-11.5c0.2-0.4-0.1-1.3-0.5-1.7c-1-1.5-2.3-2.7-3-4.3c-1-2.1-1.3-4.4,0.2-6.4
			c1.2-1.7,2.8-3.2,4.5-4.6c1.3-1.1,2.2-2.1,1.6-3.8c-2.4,0-4.7,0-6.6,0c-2.1,3.6-3.7,7-6,9.9c-3.3,4.1-7.1,7.8-10.7,11.6
			c-0.7,0.8-1.8,1.6-1.9,2.5c-0.5,3.1-1.1,6.2-1,9.3c0.1,5.7,0.6,11.4,0.9,17.1c0.2,3.3-1.4,5-4.8,5.4c-2.1,0.2-4.1,0.5-6.2,0.8
			c-1.1,0.2-2.2,1-3.3,0.9c-3.6-0.3-17.9,0-19-0.4c-2.3-0.8-4.1-1-3.9-4.5c0.1-1.8-0.2-3.7-0.3-5.5c-0.2-3.4-0.5-6.9-0.6-10.3
			c-0.1-3.7,0.2-7.4,0-11.1c-0.2-3.8-0.3-7.5,1.8-11c0.2-0.3,0.1-0.9,0-1.3c0-0.1-0.7,0-1.1-0.1C86.8,113.8,84.5,114.9,82.3,113.1z
			 M73.5,86.4c-0.1-0.9-0.2-1.4-0.3-1.9c-2-7.7-2-15.4-0.5-23.2c1.1-5.4,3.2-10.3,7.2-14.1c2.3-2.1,5.1-3.8,8-5.2
			c4.9-2.5,10.3-2.6,15.4-1.3c5,1.3,8.7,4.7,11.6,9c2.3,3.4,3.6,7.1,4.5,11c0.6,2.7,1.3,5.5,1.2,8.3c0,5.2-0.7,10.4-2.9,15.2
			c-1.4,3-2.6,6-4.1,9c-0.5,1-1.5,1.8-2.1,2.8c-1.5,2.1-2.8,4.3-4.5,6.2c-1.9,2.2-4.1,4.3-6.2,6.3c-2.6,2.4-4.9,5.1-5.8,8.6
			c-1.5,5.7-2.2,11.5-2.1,17.5c0.1,5.4,0.1,10.8,0.2,16.2c0,2.7,0.5,3.2,3.2,3.2c3.6,0,7.1,0,10.7-0.1c3.6-0.1,3.8-0.1,3.6-3.8
			c-0.3-6.9-0.7-13.8-1-20.8c-0.1-2.1-0.2-4.2-0.1-6.4c0.1-1.3,0.4-2.8,1.2-3.9c0.9-1.3,2.4-2.2,3.6-3.3c2.4-2.2,4.8-4.3,7.1-6.5
			c1.5-1.5,2.8-3.3,4.2-5c4.6-5.6,8.1-11.9,9.8-19c1.6-6.5,2.4-13.2,2.6-19.9c0.1-3.7-0.4-7.4-1.4-11c-0.9-3.4-2.6-6.6-4.4-9.6
			c-2-3.3-4.1-6.5-7.4-8.8c-3.4-2.4-7.2-4.1-10.7-6.3c-3.1-1.9-6.4-3-9.7-3.7c-7-1.5-13.9-0.1-20.7,1.5c-3.8,0.9-7.7,1.9-11,3.8
			c-3.2,1.8-6,4.5-8.4,7.3c-2.2,2.6-3.7,5.8-5.4,8.8c-2.2,3.9-3.2,8.2-3.3,12.6c-0.1,4.7,0.2,9.5,0.5,14.2c0.3,4.4,0.8,8.9,2.8,13
			c0.3,0.7,1.4,1.5,2,1.4C65,88,69.2,87.2,73.5,86.4z M93.4,44.7c-1.1,0.6-2.2,1.1-3.3,1.8c-0.4,0.2-0.9,0.5-1.3,0.9
			c-2.2,2.5-4,5.2-4.9,8.6c-2,7.1-1.1,14,0.1,20.9c0.6,3.8,1.5,7.5,2.1,11.3c0.1,0.4-0.7,1.3-1.2,1.4c-3.5,1-7,2-10.5,2.9
			c-4.2,1-8.5,1.8-12.7,2.6c-0.8,0.1-2.1,0-2.5-0.6c-1.6-1.8-3.2-3.6-4.1-5.8c-1.1-2.5-1.6-5.4-2-8.1c-0.7-5.7-1.2-11.5-1.6-17.3
			c-0.1-1.4-0.5-1.8-1.9-1.8c-1.6,0-3.3-0.2-4.9-0.5c-2.4-0.4-2.6-0.4-3.1,2.1c0,0.2-0.1,0.5-0.1,0.7c-2.2,6.4-4.5,12.9-6.6,19.3
			c-0.3,0.8-0.3,1.8-0.4,2.7c-0.2,0-0.4,0-0.6,0.1c-0.2-0.6-0.5-1.2-0.4-1.8c0.3-2.4,0.5-4.9,1.2-7.2c1.8-6.6,3.8-13.1,5.7-19.7
			c0.1-0.5-0.1-1.4-0.5-1.6c-1.7-0.9-2.4-2.5-3.1-4.1c-1-2.3-0.2-5.7,1.7-7.3c1-0.9,2.2-1.6,3.1-2.3c-0.7-2.6-1.4-5.1-2.1-7.5
			c-0.4-1.2-0.7-2.4-2.7-2.1c-5.7,0.8-11.4,1.4-17.1,2.1c-0.6,0.1-1.4,0.7-1.7,1.3c-0.7,1.6-1.4,3.3-1.7,5c-0.6,2.9-1.1,5.9-1.4,8.9
			c-0.1,1.2,0.5,2.3,1.9,2.4c5.2,0.7,9.5,3.2,12.9,7.1c1.9,2.2,2.3,5.4,0,7.6c-1.4,1.3-2.8,2.5-4.4,3.4c-1.7,0.9-2,2.2-1.5,3.8
			c0.9,3.3,1.6,6.6,2.7,9.9c0.8,2.5,2,4.9,3,7.2c3.2-2.3,7.8-1.9,8.7-1.8c1.1,0.1,2.2,0.3,3.2,0.6c4.5,1.3,7,7.3,3.6,11.1
			c1.5,3.2,3,6.5,4.5,9.9c0.2-0.1,0.4-0.2,0.6-0.4c1.6-1.3,3-3,4.8-3.9c2-0.9,4.4-1.2,6.6-1.5c2-0.3,4.1-0.4,6.1-0.4
			c3.7,0,8.6,4,10,5.7c0.7,0.9,1.4,1.7,2.2,2.8c0.8-1.3,1.4-2.4,2.1-3.4c-2.3-3.3-2.3-5.7,0.6-8c1.6-1.3,3.7-2.1,5.5-3.2
			c0.5-0.3,1.2-0.9,1.3-1.4c0.9-3.2,1.6-6.5,2.6-9.7c0.8-2.5,2-4.9,3.1-7.4c-0.6-0.2-1-0.4-1.4-0.6c-5.1-1.8-6.2-9.2-2.1-12
			c1.6-1.1,3.3-2.1,4.6-3c-0.8-3.3-1.9-6.4-2.2-9.6C93.1,51.3,93.4,48,93.4,44.7z M15.6,161.2c1.5,0,2.7,0.1,4,0
			c4.6-0.5,8,1.5,10.5,5.2c2.2,3.2,2.5,5.7,0.4,8.7c-0.8,1.2-1.9,2.2-2.9,3.4c-0.3,0.3-0.6,0.8-0.5,1.1c0.6,1.6,1.3,3.1,2,4.6
			c1.4,3,2.9,5.9,4.4,8.9c0.3-0.2,0.5-0.3,0.7-0.4c3-1.9,5.9-4.2,9.1-5.6c4.7-2.2,9.8-2.4,15-2c0.8,0.1,1.5,0.1,1.8-1
			c0.9-3.3,2-6.7,2.9-10c0.1-0.4-0.3-1.2-0.6-1.3c-2.7-0.5-4.6-2.4-6.2-4.4c-2.5-3.4-3.6-6.2-0.4-9.8c3.2-3.6,7.5-5,12-5.6
			c3.1-0.4,6.3-0.1,9.6-0.1c-0.9-3.8-1.7-7.3-2.5-10.8c-0.8-3.5-1.4-7.1-2-10.2c-5.5,0-10.6,2.1-16.1,0.7c-0.6,1.5-1.3,3-1.9,4.6
			c-1.3,3.6-2.3,7.3-3.8,10.8c-1.4,3.2-2.2,6.1-1.6,9.7c0.6,3.6,0.3,7.3,0.4,10.9c0,1.8,0,3.7,0,5.5c-0.2,0.1-0.4,0.1-0.6,0.2
			c-0.4-0.6-0.9-1.1-1-1.7c-1-4.3-1.8-8.7-2.8-13c-1-4.5-2-9-3.3-13.4c-0.6-2-1.9-3.7-2.9-5.5c-1,0.3-1.6,0.6-2.3,0.8
			c-4.5,1.1-9.1,1.8-13.7,1.9c-0.5,0-1.3,0.5-1.6,0.9c-1.3,2.8-2.6,5.6-3.8,8.5C17,155.5,15.5,158.1,15.6,161.2z M142.6,31.6
			c-1.6,0.6-2.2,0.3-2.8-1.6c-1.1-3.5-2.2-6.9-3.2-10.4c-0.9-3.1-2.6-5.6-4.3-8.3c-0.1-0.2-0.5-0.3-0.7-0.3c-2.3-0.2-4.7-0.4-7-0.7
			c-1.4-0.2-2.8-0.3-4.2-0.6c-1.5-0.3-3.1-1.2-3.6,1.3c0,0.1-0.2,0.3-0.3,0.4c-1.4,2.5-3,4.8-4.2,7.4c-0.7,1.5-0.8,3.3-1.2,4.9
			c0.7-0.2,0.9-0.7,1.3-0.8c4.3-1.8,8.6-3.2,13.4-2.2c4.4,0.9,6.1,2.9,6.1,7.3c0,0.3,0.7,9.3,3.2,11.3c0.6,0.5,1,1.2,1.4,1.9
			c0.8,1.4,1.5,2.8,2.4,4.2c0.5,0.8,1.2,1.4,1.6,2.2c0.9,1.6,1.7,3.2,2.5,4.8c1,2.2,2,4.4,2.8,6.7c1.2,2.9,1.3,6,1.2,9.1
			c0,0.6,0.2,1.1,0.3,1.6c1.5-3.8,3-7.5,4.4-11.2c0.8-2.1,1.9-4,0.7-6.7c-2.1-4.4,2.7-8.3,4.7-9.3c2-0.9,7.4-2.6,9.7-1.4
			c0.5,0.3,1.1,0.4,2,0.7c-0.2-1.1-0.2-1.9-0.4-2.6c-0.5-1.9-1.3-3.8-1.7-5.7c-0.6-3.2-2-6-4.2-8.4c-1.1-1.1-2.3-1.7-4-1.3
			c-3,0.6-6.1,0.8-9.2,1.2c-0.4,0.1-1,0.3-1.2,0.7c-0.6,1.3-1.2,2.7-1.7,4.1c-0.8,2.5-1.4,5.1-2.1,7.6c-0.6,2.1-1.1,4.3-1.6,6.5
			c-0.2,1-0.3,2-0.5,2.9c-1.6-0.2-1.6-1.2-1.5-2.1C141.2,40.3,141.9,35.9,142.6,31.6z M51,211.1c3-0.1,6.4-0.1,9.7-0.5
			c4.4-0.5,8.7-1.2,12.1-4.5c1.9-1.9,2.5-4.2,0.9-6.4c-1.5-2.1-3.3-4.2-5.3-5.9c-6.6-4.8-15.5-5.9-22.3-3.7
			c-4.7,1.8-9.6,3.6-12.2,8.6c-0.7,1.4-1,2.6-0.5,4.1c1,2.9,3.3,4.5,5.7,5.9C42.7,210.8,46.8,210.7,51,211.1z M10.6,206.1
			c5.9-1.6,7.2-1.5,13,0.7c2.6,1,4,3.3,5.5,5.4c3.8,5.5,3.7,10.5-0.4,15.6c-0.1,0.2-0.3,0.3-0.5,0.5c-1,1.5-0.4,6.4,1,6.6
			c1.9,0.3,3.9-0.1,5.8-0.5c0.4-0.1,0.7-1.3,1-2c2.1-6.2,4.2-12.4,6.2-18.3c-2.6-1.6-5.2-2.9-7.4-4.7c-2.9-2.3-5-5.4-4.3-9.2
			c0.5-2.7-0.2-4.7-1.6-6.7c-0.4-0.5-0.7-1.1-1-1.6c-0.9-1.7-1.8-3.4-2.6-5.1c-0.7-1.6-1.6-1.2-2.6-0.4c-2.4,1.8-5.1,2.1-8,1.5
			c-0.5-0.1-1-0.2-1.5-0.3c-2.1-0.3-2.6,0.3-2.6,2.5c0.1,3.4,0,6.8-0.1,10.3C10.6,202.1,10.6,204.1,10.6,206.1z M178.6,178.8
			c0.4-8,0.7-15.8,1.1-23.9c-3.9,1.4-7.2,0.2-10.2-2.2c-1.7,3.4-3.4,6.5-4.8,9.7c-0.7,1.7-1.8,3.4-1.3,5.5
			c1.1,4.8-4.2,11.3-9.2,11.5c-0.3,0-0.5,0.2-0.8,0.3c0.1,0.4,0.1,0.7,0.2,1c1.3,3.6,2.6,7.2,3.9,10.7c0.1,0.4,0.8,0.7,1.3,0.8
			c2.5,0.5,5,0.9,6.9,2.8c1.7,1.6,3.3,3.3,4.9,5c0.8-2.4,1.7-5.1,2.6-7.8c-4.2-1.3-6.8-4.8-5.5-8
			C169.4,179.8,171.8,176.6,178.6,178.8z M50.7,8.3C49,7.8,48.3,9,47.5,10.2c-1.8,2.9-3.8,5.6-5.6,8.5c-0.2,0.4-0.2,0.9-0.1,1.4
			c0.4,2.1,0.1,4-1.7,5.4c-0.7,0.6-0.8,1-0.3,1.8c2.3,3.6,4.1,7.4,4.9,11.6c0.2,1.2,0.7,1.4,1.9,1.4c3,0,5.9,0.1,8.9,0.4
			c1.2,0.2,1.8-0.1,2.5-1c1.7-2.2,3.7-4.3,5.5-6.5c0.4-0.5,0.9-1.3,0.8-1.9c-0.8-4.1-1.5-8.3-2.7-12.3c-0.9-3.1-2.3-6-3.6-8.9
			c-0.3-0.6-1.1-1.3-1.8-1.4C54.4,8.5,52.6,8.5,50.7,8.3z M19.3,124.9c2.6-2.2,5.8-2.2,6.3-2.9c0.4-0.5-0.5-1.9-0.6-2.9
			c-0.5-4.3,0-8.6,1.5-12.7c1-2.7,2.8-5.4-0.3-7.9c-0.3-0.2-0.3-0.7-0.4-1.1c-0.3-1.3-0.7-2.5-1-3.8c-0.6-2.2-1.3-4.3-1.9-6.5
			c-0.8-2.9-1.8-5.8-2.5-8.7c-0.3-1.2-1-1.3-1.9-1.1c-3.2,0.7-6.4,1.4-9.6,2.1c0.1,2.4,0.3,4.9,0.3,7.4c0,4.1-0.1,8.2-0.2,12.3
			c0,1.2,0.4,1.8,1.8,1.9c3.8,0.2,5.6,2.6,4.7,6.4c-0.8,3.7-1.3,7.2,0.7,10.7C17.4,120.2,18.2,122.6,19.3,124.9z M161.7,163.1
			c2-4.9,3.8-9.5,5.7-14c-1.1-0.5-2-0.9-3-1.3c-5.8-2.7-8.6-9.6-2-14.3c2.6-1.9,5.5-3.2,8.3-4.8c-0.9-1.3-1.8-2.8-2.9-4.2
			c-0.2-0.3-0.9-0.4-1.1-0.3c-3.6,1.8-7.5,2.2-11.5,1.9c-1.5-0.1-3-0.7-4.9-1.2c-0.4,0.9-1.1,2.2-1.8,3.5c-1.4,2.9-2.5,5.7,0.5,8.3
			c0.2,0.1,0.3,0.3,0.4,0.5c0.9,2.1,1.7,4.8-0.9,6.4c-0.4,0.2-0.7,1.1-0.6,1.5c0.7,3.9,1.5,7.9,2.3,11.8c0.1,0.6,0.8,1.3,1.3,1.4
			C155.2,159.2,158.7,160.3,161.7,163.1z M48.3,148.4c0,0,0.2-0.2,0.3-0.4c1.8-6.1,3.6-12.3,5.5-18.3c0.5-1.5,0.1-2.1-1.1-2.9
			c-3.4-1.9-5.6-4.7-5.4-8.8c0-0.9,0.1-2.2-0.4-2.8c-2-2.2-3.2-4.9-4.1-7.6c-0.4-1.3-1.1-1.7-2.4-1.5c-1.6,0.2-3.3,0.2-5,0.4
			c-1.8,0.2-3.6,0.3-5.4,0.6c-0.4,0.1-0.9,0.6-1.2,1c-0.4,0.6-0.6,1.4-0.7,2.1c-0.5,3-1,6.1-1.2,9.1c-0.1,1.2,0.3,2.2,2.1,1.9
			c1.6-0.3,3.3-0.2,5-0.1c2.4,0.1,4.4,1.1,5.6,3.1c1.2,2.1,2.1,4.4,2.9,6.7c0.3,0.8,0.2,2.2-0.3,2.8c-1.7,1.8-0.9,3,0.2,4.7
			C44.6,141.4,46.4,144.9,48.3,148.4z M184,9.7c-1.6,1.7-3.1,2.9-4,4.4c-3.5,5.7-5.8,11.9-7.4,18.5c-0.2,0.9-0.2,2,0,2.9
			c0.3,2,0.8,3.9,1,5.9c0.1,0.5-0.6,1.4-1.1,1.6c-1.6,0.7-1.7,1-0.7,2.4c2.6,3.4,1.5,5.5-0.6,7.5c-0.4,0.3-0.3,1.2-0.3,1.8
			c0,0.3,0.5,0.5,0.6,0.8c1.4,3.6,2.8,7.2,4.3,10.7c0.9,2.1,2.4,2.9,5,2.5c0-0.7,0.1-1.5,0-2.2c-0.8-6.4,0.4-12.6,1.5-18.7
			c1.5-8.4,2.4-16.8,1.8-25.4C183.7,18.2,184,14.1,184,9.7z M38.8,234.3c0.3,0.1,0.4,0.2,0.6,0.2c9.8,0.1,19.6,0.3,29.4,0.4
			c1,0,1.2-0.4,1.1-1.3c-0.3-2-0.5-4.1-0.9-6.1c-0.6-3-1.2-6-1.8-9c-0.1-0.6-0.5-1.2-0.8-2c-6.6,2.7-13.3,1.7-19.9,1.4
			c-2.1-0.1-2.9,0.2-3.1,2.3c-0.2,1.4-0.8,2.7-1.3,4.1C41,227.5,39.9,230.8,38.8,234.3z M154.2,60.1c-2.2,3.3-4.6,10.7-4.8,14.3
			c-0.1,2.3,0.6,3,3,3.5c1.2,0.2,2.6,0.6,3.3,1.5c1.5,1.7,2.7,3.7,3.7,5.8c0.5,1.2,0.4,2.8,0.1,4.1c-0.6,2.4-2.2,4.2-4,5.8
			c-0.4,0.3-0.7,1-0.7,1.4c0.2,1.6,0.6,3.1,0.9,4.7c3-0.3,5.9-0.6,9-0.9c0-1.3-0.2-2.9,0-4.5c0.4-2.6,1.1-5.1,1.8-7.7
			c0.3-1,0.2-1.5-0.8-2c-2.7-1.5-4.1-3.9-4.2-7c-0.1-4.1,1.9-7.5,6.4-9.4c0.9-0.4,2.3-0.5,2.7-1.2c0.4-0.6-0.1-1.9-0.2-2.9
			c-0.2-1.8-0.4-3.6-0.6-5.4c-0.1-0.7-0.2-1.5-1.4-1.3c-1.9,0.4-3.8,0.9-5.7,1.1C159.9,60.5,157,61.7,154.2,60.1z M151.1,212.9
			c5.7-0.2,10.6-0.9,14.6-4.6c1.5-1.4,3.1-2.8,2.6-5c-0.5-2.5-1.8-4.8-4.2-5.9c-5.4-2.5-11-2.9-16.9-1.9c-3.6,0.6-6.4,2.4-8.4,5.4
			c-2.2,3.2-1.5,6.8,1.7,9C143.9,212.1,147.8,212.7,151.1,212.9z M21.8,15.2c-0.7-2.6-1.4-5.2-2.2-7.7c-0.2-0.5-1.2-1.2-1.7-1.2
			c-2.7,0.5-6-0.2-7.7,2.9c0,0.1-0.2,0.1-0.3,0.2C6.7,11,5.9,14,6.1,16.9c0.3,4.9,0.6,9.8,0.3,14.7C6.2,38.1,6.6,44.6,6.8,51
			c0,0.8,0.2,1.5,0.3,2.3c2.2-0.5,4.2-0.9,5.8-1.3c-0.2-2-0.7-3.8-0.4-5.5c0.7-4,1.7-8,2.8-12c0.6-2.2,1.4-4.3,2.2-6.5
			C11.4,22.5,14.5,17.8,21.8,15.2z M182,90.1c-0.5-0.1-0.7-0.1-0.8-0.1c-3.6,1.5-7.3,2.1-11.1,0.7c-0.9-0.3-1.5-0.1-1.7,1.1
			c-0.4,2.8-0.8,5.5-1.3,8.3c-0.3,1.5,0.2,2.3,1.4,3.1c4.3,2.9,5.5,9.8,2.5,14c-0.7,1-0.6,1.7,0,2.6c1.1,1.6,2.1,3.2,3.1,4.9
			c0.7,1.1,1,2.8,2,3.3c1.7,0.9,3.8,1,6.1,1.6C181.1,116.1,180.5,103.1,182,90.1z M66.6,107.1c-4-0.6-6.5,0.5-9.4,1.6
			c-4.2,1.5-6.8,4.3-7.1,8.9c-0.2,2,0.3,3.9,2.1,5.1c2.7,1.8,5.6,3.2,8.9,3c3-0.2,6-0.4,8.9-0.9c1.8-0.3,3.8-0.9,5.3-1.9
			c1.1-0.8,1.9-2.4,2.1-3.8c0.1-0.8,0.3-3.6,0.1-4C75.6,112.4,70.6,107.7,66.6,107.1z M183.2,231.6c-0.7-5.3-1.4-10.2-2.1-15
			c-0.9-6.1-2.7-12.2-1.9-18.5c0.1-0.9,0.3-2.1-0.1-2.7c-0.3-0.4-1.7-0.3-2.5-0.1c-0.7,0.1-1.5,0.6-1.8,1.1c-1.1,2.2-2.1,4.6-3,6.9
			c-0.2,0.4-0.3,0.8-0.3,1.2c0.1,3.9-2.2,6.3-5.2,8.3c-0.4,0.3-0.8,1.1-0.6,1.6c0.6,1.9,1.4,3.9,2.2,5.7c1.4,3.3,2.8,6.6,2.8,10.3
			c0,0.4,0.6,1.1,1,1.1C175.3,231.7,179,231.6,183.2,231.6z M113,82.5c0.4-0.7,0.6-1,0.8-1.4c2-4.2,2.5-8.8,2.7-13.3
			c0.3-6.6-2.3-12.4-6.1-17.6c-2.8-3.8-6.2-6.5-11.3-6.2c-1.6,0.1-1.8,0.7-1.7,2c0.2,3.1,0.3,6.3,0.6,9.4c0.2,2.6,0.6,5.3,0.9,8.1
			c4.3-0.9,7.7-0.4,11,2.3c3.9,3.2,4.6,8.5,0.7,11.7C111.2,79,112,80.6,113,82.5z M147.5,176.8c0.6,0,1.1,0,1.7,0
			c4.2,0,7.9-1.2,10.4-4.9c1.8-2.6,2.1-6.9-1.9-8.2c-2.1-0.7-4.2-1.3-6.3-2c-3.2-1.1-6.4-0.9-9.5,0.5c-0.8,0.4-1.6,0.7-2.4,1
			c-2.3,0.8-4,2.3-5.2,4.4c-1.4,2.5-0.4,5.8,2.1,7.1C140,176.5,143.7,176.8,147.5,176.8z M69.1,170.5c1.1,0,2.2,0.2,3.3,0
			c4.2-0.8,8.4-1.6,10.9-5.9c2.3-3.9-1.1-7.9-4.2-8.5c-2.1-0.4-4.3-0.5-6.4-0.7c-5.1-0.6-9.6,1-13.7,3.9c-2.6,1.9-3.7,4.5-0.9,7.5
			C61.4,169.9,65,170.7,69.1,170.5z M10.2,210.8c0.3,5.9,0.5,12.1,0.8,18.3c0,0.4,0.3,1,0.5,1c1.6,0.3,3.4,1,4.9,0.7
			c4-0.8,7.5-2.7,10.2-5.8c1.7-1.9,3.1-4.3,2.1-6.9c-1.5-3.8-3.3-7.6-7.9-8.5c-2.1-0.5-4.1-1.9-6.4-0.9
			C13.1,209.3,11.8,210,10.2,210.8z M95.6,21.1c-0.2-1-0.3-2.3-0.8-3.5c-1.2-3.3-2.6-6.5-4-9.8c-0.4-1.1-1.1-1.6-2.3-1.5
			c-2.9,0.3-5.8,0.6-8.7,0.8c-0.9,0.1-1.5,0.5-1.8,1.5c-1,2.9-2.2,5.7-3.3,8.5c-1.4,3.2-2.8,6.5-4.2,9.7c-0.1,0.3,0,0.6,0,0.9
			c4.1-1.6,8-3.5,12.1-4.6C86.7,22,91.1,21.7,95.6,21.1z M142.8,234.2c8-0.7,15.9-1.4,23.9-2.1c-0.7-4.4-2.1-8.7-3.8-12.9
			c-0.4-0.9-0.8-1-1.7-0.7c-4,1.2-8.1,1.3-12.2,1c-0.9-0.1-2-0.6-2.5-0.3c-0.7,0.5-0.8,1.7-1.1,2.6
			C143.9,225.6,142.8,229.6,142.8,234.2z M169.6,111.1c0-5.2-6.3-9.8-11.2-8.1c-4.1,1.4-7.5,4-10.2,7.4c-0.6,0.8-0.9,2-0.9,3
			c0,2.5,2.5,4.6,5.6,5.4c4,1,7.8,0.4,11.5-1.3C167.3,116.2,169.9,114.7,169.6,111.1z M7.6,57c0,4.7,0,9.1,0,13.5
			c0,0.9,0.3,1.3,1.3,1.2c3.6-0.2,7.1-0.8,10.3-2.4c2.9-1.5,5.6-3.5,8.2-5.5c1-0.8,1.2-2.3,0-3.1c-2.6-1.7-5.3-3.7-8.2-4.7
			C15.3,54.6,11.2,55.2,7.6,57z M175.6,131.1c-0.8,0.2-2.1,0.4-3.3,0.8c-3.5,1.3-7,2.4-9.2,5.7c-2.4,3.6-1,5.6,1.5,7
			c0.6,0.3,1.2,0.7,1.9,0.9c4,1.2,8,2.4,12.3,1.9c1.2-0.1,1.7-0.5,1.7-1.7c0.2-3.5,0.6-7,0.9-10.4c0.3-2.6-0.3-3.4-2.8-3.9
			C177.7,131.3,176.9,131.3,175.6,131.1z M11.2,162.1c1.8-0.1,1.7-0.2,2-1.6c0.6-2.9,1.2-5.8,2.2-8.6c1.1-3.2,2.8-6.2,3.9-9.4
			c0.6-1.7,1-4.1,0.2-5.4c-1.7-2.6-2.1-5.2-1.6-8.1c0.2-1.2-4.4-9.2-5.4-11.5c-0.1-0.3-0.5-0.5-0.7-0.7C12.2,132,9.7,147,11.2,162.1
			z M104.8,226.2c4.5,0.2,8.5-0.9,11.6-4.3c1.7-1.8,1.9-3.1,0-4.6c-1.1-0.9-2.8-1.2-4.2-1.4c-2.3-0.4-4.8-0.1-6.2-2.5
			c-0.1-0.2-0.7-0.4-1-0.3c-3.8,0.5-7.4,1.8-10.4,4.1c-2.9,2.2-2.4,5.4,1,7.1C98.5,225.8,101.5,226.4,104.8,226.2z M91.9,97.7
			c0.4,0.1,0.7,0.3,0.9,0.3c2.6,0.6,5.3,0.8,7.3,3c0.1,0.2,1.1-0.1,1.3-0.3c2.4-3,4.8-6.1,7.1-9.2c1.9-2.6,2.2-5.4,0.3-8.1
			c-0.4-0.6-1.5-1.1-2.2-1.1c-2.8,0.2-5.5,0.7-8.3,1.1c-0.2,0-0.5,0.1-0.6,0.2c-1.1,1.6-2.4,3.1-3.1,4.9
			C93.4,91.5,92.8,94.5,91.9,97.7z M92.3,181.7c5.6,1.5,11.3,1.1,16.9,1c1,0,1.4-0.4,1.4-1.5c0-2.9,0-5.7,0.1-8.6
			c0-1.1-0.4-1.7-1.5-1.7c-4.4-0.2-8.8-0.4-13.2-0.3c-1,0-2.5,0.7-2.8,1.5C92.2,175.1,91.6,178.3,92.3,181.7z M11.6,165.7
			c-0.2,4.5-0.5,8.5-0.6,12.6c0,0.5,0.7,1.3,1.2,1.4c6.6,1.3,13.6-2.7,16.3-7.6c0.3-0.5,0.5-1.1,0.4-1.6c-0.4-2.8-3.6-5.7-6.5-5.6
			C18.8,165,15.3,165.4,11.6,165.7z M173.1,85c2.8-0.4,5.2-0.8,7.6-1.1c1-0.1,1.1-0.7,1.1-1.5c-0.3-2.9-0.7-5.8-0.7-8.7
			c0-1.9-1-2.4-2.6-2.4c-2.7,0-5.4-0.1-8.1,0.9c-3,1.1-4.8,3-5.9,5.9c-0.7,1.9,0.7,5.1,2.4,5.5C169,84.2,171.2,84.6,173.1,85z
			 M114.1,8.6c-5.3-1.7-17.2-3.1-19.5-1.9c2.8,4.9,5.7,9.9,8.5,14.8c0.2,0.3,0.5,0.6,0.7,0.7c1.8,0.4,3.6,0.7,5,1
			c0.7-2.8,1.1-5.3,2-7.6C111.7,13.1,113,10.9,114.1,8.6z M31.5,123.6c-1.6,0.5-3.3,1-4.9,1.5c-3.9,1.3-5.7,1.5-6.1,6.8
			c-0.2,2.1,0.2,2.9,2.2,3.4c2.3,0.5,4.6,1.2,6.9,1.2c4.1,0.1,7.7-1.5,10.2-4.9c0.3-0.4,0.4-1.1,0.3-1.5
			C38.7,125.8,36.3,124.1,31.5,123.6z M97.1,76.9c4.9,0,8.7-0.8,12.4-2.5c1.3-0.6,1.8-1.7,1.5-3.3c-0.7-3.4-3.7-5.1-7.1-5.4
			c-3.3-0.3-6.2,1.3-9.1,2.5c-1.3,0.6-2.5,2-3.3,3.3c-1.2,2-0.5,3.8,1.7,4.5C94.7,76.5,96.3,76.7,97.1,76.9z M30.3,17
			c-3.1,0.6-6,0.9-8.7,1.8c-1.5,0.5-2.9,1.8-4,3c-1.3,1.4-1,2.7,0.6,3.7c1,0.6,2,1.1,3.1,1.3c5.9,1.1,11.3-0.4,16.5-3.2
			c1.3-0.7,1.7-2.1,1.4-3.4c-0.1-0.7-1.3-1.4-2.1-1.7C34.9,17.9,32.5,17.5,30.3,17z M40.4,17.7c1.7-3.3,3.3-6.5,5.1-10
			c-7.4-1.1-14.6-1.3-21.8-1.4c0.6,2.9,1.2,5.5,1.8,8.1c0.1,0.3,0.9,0.7,1.3,0.6C31.6,14.2,36.1,14.8,40.4,17.7z M62.2,8.4
			c2,7.1,3.9,14,5.8,21.1c0.5-0.3,1-0.6,1.1-0.7c0-1.2-0.2-2.1,0-2.9c1.2-3.8,2.6-7.6,3.9-11.4c0.8-2.3,1.7-4.5,2.6-7.1
			C71,7.7,66.6,8.1,62.2,8.4z M159,9.4c0-0.1,0-0.2,0-0.2c-3.5,0.3-7,0.7-10.6,1c-0.4,0-0.9,0.2-1.2,0.5c-1.7,2.2-0.8,4.9,1.8,5.9
			c3.2,1.3,6.4,1.2,9.6,0.7c2.5-0.4,5.2-0.9,6.8-3.1c0.7-0.9,0.9-2.4,0.7-3.5c-0.2-1.1-1.5-1.4-2.7-1.3C162.1,9.5,160.6,9.4,159,9.4
			z M179.5,9.4c-3.2,0-6.2,0-9.1,0c-1.3,0-2,0.1-1.4,1.7c0.9,2.7,0.2,4.8-2.1,6.6c-0.7,0.5-1.5,1-1.9,1.3c2,4,4,7.8,6,11.8
			C172.4,23,175.5,16,179.5,9.4z M55.1,44.8c-2.6-1.1-5.2-1.4-7.7-0.8c-2.6,0.7-5.4,1.2-7.3,3.4c-1.9,2.3-1.3,4.4,1.5,5.3
			c2.1,0.6,4.3,1.3,6.5,1.4c1.5,0.1,3.1-0.8,4.6-1.3c0.1,0,0.1-0.2,0.2-0.3C53.5,50,54.3,47.5,55.1,44.8z M147.8,81.3
			c-0.1,0.6-0.2,1.4-0.3,2.2c-0.3,3-0.6,6.1-1,9.1c-0.2,1.7-0.2,2,1.6,2c3.8,0,6.1-2.3,8-5.1c1.5-2.2,1.4-4.3-0.5-6.2
			c-0.2-0.2-0.3-0.4-0.4-0.6c-0.8-1.7-2.3-2-3.9-1.9C150.2,81,149.1,81.2,147.8,81.3z M157.7,53.3c1.4-0.2,2.6-0.3,3.9-0.6
			c1.7-0.4,3.4-0.9,5-1.6c1.2-0.5,2.3-1.2,3.4-1.9c0.4-0.3,0.6-1.2,0.4-1.6c-0.7-1.7-5.4-4.5-7.1-3.9c-2.6,0.9-5.2,2.1-7.6,3.4
			c-1.3,0.7-1.9,2.2-1.4,3.9C154.9,52.7,156.3,53,157.7,53.3z M132.6,163.8c0.2,0.1,0.4,0.3,0.7,0.4c3.3-4.6,8.1-6.1,13.5-6
			c-0.3-2.2-0.6-4.1-0.9-6.1c0-0.3-0.5-0.6-0.8-0.6c-2.7-0.3-5.3-0.5-8-0.7c-0.9-0.1-1.5,0.1-1.8,1.1c-0.5,1.9-1.2,3.7-1.7,5.6
			C133.1,159.5,132.9,161.7,132.6,163.8z M30.5,99.1c3.9,1.1,7.8,0.7,11.5-1c0.8-0.4,1.8-1.5,1.9-2.3c0-0.8-0.8-1.9-1.6-2.6
			c-1.1-0.9-2.4-1.9-3.8-2.2c-4.4-1-8.8,1.4-9.8,3.7C27.5,97.3,29.5,98.9,30.5,99.1z M137,11.1c2.3,6.3,4.5,12.4,6.5,18
			c1.1-2.7,2.4-5.9,3.6-9c0.2-0.4,0-1.2-0.3-1.5c-1.9-2-3.4-4.1-3.3-7.1c0-0.3-0.6-0.9-0.9-0.9C140.8,10.7,138.9,10.9,137,11.1z
			 M86.7,108.1c1.6-0.3,3.7-0.4,5.6-1.2c2-0.8,3.8-2.2,5.6-3.5c1-0.7,1-1.6-0.3-2.4c-1.8-1.2-3.8-0.6-5.7-0.7
			c-3.1-0.1-5.8,1.1-8,3.2c-0.8,0.8-1,2.1-1.5,3.2c1,0.4,2,0.8,3,1.2C85.7,108.1,86,108.1,86.7,108.1z M139.1,143.4
			c0.1,0.1,0.1,0.2,0.2,0.3c2.4-0.8,4.9-1.5,7.2-2.4c1.6-0.6,1.9-2,0.7-3.3c-0.6-0.7-1.6-1.3-2.5-1.6c-3.1-1-5.9,0.4-8.8,1.3
			c-1.1,0.4-1.9,1.4-1.7,2.8c0.2,1.4,1,2,2.2,2.3C137.3,143.1,138.2,143.2,139.1,143.4z M124.9,31c1.2-1,2.5-2.1,3.7-3.3
			c1.6-1.5,1.5-2.4-0.5-3.3c-4.2-1.9-8.3-1.1-12.3,0.8c-0.1,0.1-0.1,0.3-0.3,0.6C118.5,27.5,121.6,29.1,124.9,31z M178.9,181.9
			c-1.5-0.1-2.8-0.3-4.1-0.3c-0.5,0-1.3-0.2-1.6,0.1c-1,1-2.1,2-2.5,3.3c-0.7,1.8,0.1,3.8,1.5,4c2,0.2,4,0,5.9-0.2
			c0.3,0,0.7-0.6,0.7-0.9C179,185.8,178.9,183.9,178.9,181.9z M109.9,230.8c-3.6,1.9-7.2,2-10.8,1.3c-0.4,0.9-0.8,1.7-1.2,2.6
			c4.3,0,8.5,0,13,0C110.5,233.2,110.2,232.1,109.9,230.8z M10.5,109.9c0.2,0.1,0.4,0.2,0.6,0.2c0.8-1.3,1.7-2.5,2.4-3.9
			c0.5-1.2-0.4-1.7-1.4-1.8c-1-0.1-2.1-0.1-2,1.3C10.1,107.2,10.3,108.6,10.5,109.9z M126.8,32.3c1,0.7,1.6,1.2,2.2,1.6
			c0.1-0.1,0.3-0.2,0.4-0.2c-0.2-0.6-0.3-1.3-0.7-1.7C128.5,31.8,127.7,32.1,126.8,32.3z"/>
	</g>
</g>
</svg>
