<?xml version="1.0" encoding="utf-8"?>
<!-- Generator: Adobe Illustrator 19.1.0, SVG Export Plug-In . SVG Version: 6.00 Build 0)  -->
<svg version="1.1" id="Calque_1" xmlns="http://www.w3.org/2000/svg" xmlns:xlink="http://www.w3.org/1999/xlink" x="0px" y="0px"
	 viewBox="0 0 251.2 290" style="enable-background:new 0 0 251.2 290;" xml:space="preserve">
<style type="text/css">
	.st0{fill:#EC6C65;}
</style>
<g>
	<polygon id="" class="st0" points="88.8,176.2 155.6,178.4 184.5,240.7 181.2,247.9 156.1,257 137.3,260.2 119.5,262 97.2,256.7 
		78.1,247.9 62.4,240.7 64.4,231.6 	"/>
	<g>
		<path d="M146.1,289.3c-7,0.3-45.9,2.2-63.7-1.9c-4.6-1.3-9.3-2.2-13.6-4.2c-2.5-1.1-5.1-1.8-7.8-2.5c-0.7-0.2-1.6,0.1-2.3,0.2
			c-1.5,0.3-2.9,0.9-4.4,0.8c-5.5-0.4-10.5-2.2-14.8-5.8c-4.3-3.7-6.6-11.4-4.8-16.9c0.4-1.3,0.8-2.5-0.3-3.6
			c-3-3.2-3.7-7.4-4.7-11.4c-1.3-4.9-1.6-9.8-1.3-14.8c0.1-1.5-0.2-2.9-1.2-3.9c-3.3-3.5-5.7-7.6-8.1-11.7
			c-2.6-4.3-5.2-8.7-7.4-13.2c-1.7-3.4-2.9-7.1-4.4-10.7c-3.2-8.1-4.7-16.6-5.8-25.1c-0.7-5.5-1.1-11.1-1.3-16.6
			c-0.2-6.4-0.3-12.8-0.1-19.1c0.4-11.8,2.1-23.4,6.5-34.5c1.2-3,2.3-6.1,3.6-9c0.7-1.6,1.6-3.2,2.7-4.7c1.6-2.3,3.4-4.5,5-6.8
			c0.5-0.7,5.9-26.3,9.3-32.6c0.5-1,0.5-2.4,0.3-3.5c-1.1-7.9,1.1-14.6,7.1-20c3.8-3.6,13.4-2.2,13.8-2.6c3.9-3.5,8.5-5.4,13.3-7.2
			c6.9-2.6,14-4.6,21.4-5.8c9.5-1.6,19-1.9,28.5-2.1c10.9-0.3,21.7,0.8,32.4,2.9c6.6,1.3,13.2,2.4,19.8,3.5c0.2,0,0.4,0.1,0.6,0.1
			c8.3,2.2,16.7,4.3,24.9,6.7c4.4,1.3,8.7,3.1,13,4.9c3.1,1.3,6.2,3,9.2,4.7c1.1,0.6,2,0.6,3.2,0.4c4.5-0.8,8.9-0.8,13,1.5
			c4.1,2.3,7.6,8.7,7,13.4c-0.4,3-1.2,5.9-1.7,8.9c-0.2,0.9-0.4,2-0.1,2.9c2.7,8.1,2.4,32.8,3,34.1c3,6.9,6.5,13.5,9.1,20.5
			c3.5,9.5,6.6,19.2,6.4,29.5c-0.1,7.1-0.3,14.2-0.7,21.3c-0.7,11.3-3.7,22.2-6.9,33c-2.1,7-4.4,13.9-8,20.3
			c-3.9,7.2-14.4,22.4-14.1,23.7c0.2,0.9-7.6,17.7-11.8,24.7c-0.9,1.4-1.1,2.7-0.8,4.3c1.1,5.7-0.8,10.8-4.6,14.8
			c-3.8,4-8.6,6.7-14.6,5.9c-1.4-0.2-2.8-0.6-4-1.1C184.7,280.5,160.8,288.6,146.1,289.3z M245.3,134.6c-0.5-3.4-1-6.8-1.5-10.2
			c-1.2-8.4-2.9-16.6-6.8-24.2c-2.1-4.1-4-8.4-6.4-12.4c-3-5-6.5-9.7-9.8-14.6c-2.1-3.1-4.1-6.3-6.5-9.1c-6.6-8-14.3-14.9-22.3-21.4
			c-2.2-1.9-4.8-3.6-7.4-4.7c-6.8-2.9-13.7-5.6-20.6-8.1c-5.9-2.1-11.9-4.1-18.2-4.7c-7.4-0.7-14.8-1.1-22.1-1.7
			c-9-0.7-17.9-0.2-26.5,2.3c-6.5,1.9-13,4-19.4,6.3c-4.8,1.7-9.3,3.9-13.6,6.8c-4.7,3.1-9.5,6.2-14.2,9.3
			c-6.6,4.4-11.7,10.3-16.8,16.2c-3.5,4.1-6.5,8.8-9.7,13.2c-1,1.3-2.1,2.5-2.9,3.9c-5.8,9.6-10.3,19.7-12.3,30.8
			c-0.8,4.4-1.5,8.7-2.1,13.1c-0.8,5.6-0.7,11.3-0.6,17c0.1,9.3,1.5,18.6,2.7,27.9c0.9,7.3,3,14.4,6.2,20.9
			c4,8.4,8.9,16.3,13.5,24.4c2.9,5,6.6,9.5,10.6,13.6c6,6.1,12.8,11.3,20.1,15.6c6,3.6,12.3,6.7,18.5,9.9c5,2.5,9.9,5.1,15.4,6.3
			c1.9,0.4,3.7,1,5.6,1.5c4.1,1.1,8.1,2.5,12.4,2.8c2.1,0.1,4.1,0.9,6.2,1.3c1.6,0.3,25.6-0.4,28.2-1c7.4-1.7,14.6-4,21.6-7.2
			c8.4-3.9,16.7-7.7,25-11.8c7.5-3.7,14-8.9,19.7-15c2.3-2.5,4.4-5.3,6.6-7.9c3-3.7,6.3-7.2,8.9-11.1c3.5-5.4,6.5-11.2,9.5-16.9
			c1.2-2.2,1.9-4.7,2.4-7.2c1.3-6.5,2.3-13,3.5-19.5C244.1,157.7,245.3,146.2,245.3,134.6z M205.3,27.5c-3.7-1.7-7.5-3.5-11.5-5.1
			c-3.9-1.6-8-2.8-12-4.1c-4.1-1.3-8.3-2.9-12.5-3.8c-7.3-1.6-14.7-3-22.1-4.3c-10-1.7-20.1-2.6-30.3-3c-7.2-0.3-14.4-0.5-21.6,0.1
			c-9.2,0.8-18.2,2.8-27.2,5.2c-4.6,1.2-8.7,3.1-12.8,5.3c-0.6,0.3-1,0.9-1.5,1.4c0.4,0.7,0.7,1.3,1.1,1.7c2,2,1.6,4.3,0.9,6.5
			c-0.4,1.3-1.2,2.6-2.1,3.7c-2.9,3.7-7.9,4.1-11.6,1.2c-1.8-1.4-1.9-2.5-0.5-4.4c1.6,0.1,3.1,0.4,4.5,0.2c2.1-0.3,2.8-2.1,1.9-3.9
			c-0.7-1.5-3.3-2.7-4.9-2.3c-6.2,1.5-10.5,7.6-9.8,13.9c0.2,1.9,0.9,3.9,3,4.6c3.2,1.2,6.5,1.5,9.7-0.2c1.9-1,3.7-2,5.6-3
			c2-1,4-2,5.9-3.1c4.7-2.7,25.2-13.3,31.2-14.4c4-0.8,7.9-1.7,11.9-2.2c4.9-0.6,9.9-1,14.9-1.2c3.7-0.2,7.5-0.1,11.2,0.1
			c4.4,0.3,8.9,0.7,13.3,1.3c4.6,0.6,9.3,0.9,13.8,2.1c5,1.3,25.4,7.8,29.6,10c5.6,2.9,11,5.9,15.9,10c3.9,3.3,7.9,6.4,11.9,9.5
			c4.1,3.2,10.8,2.3,13.5-2c0.7-1.1,2.8-6.4,2.6-7.9c-0.2-1.4-0.6-2.8-1.2-4c-3.2-6.6-9.6-7.5-14.7-4.3c-2.3,1.5-2.7,4.1-1.1,6.4
			c0.5,0.7,1,1.3,1.6,1.8c1.3,1.2,2.3,1.3,3.8,0.3c1.9-1.3,2-3.2,1.7-4.6c-0.4-1.4,1.4-1.7,1.9-1.4c1.7,0.9,2.9,4.2,2.3,6.1
			c-1.5,7.6-11.9,6.7-15.3,1.9c-2.1-3-2.3-7.7-2.2-8.3C204.3,31.5,204.8,29.7,205.3,27.5z M128.2,283.6c0,0,0-0.1,0-0.1
			c3.4-0.2,6.9-0.1,10.3-0.5c7.1-0.8,14.3-1.9,21.4-2.9c6.6-0.9,12.9-2.6,19.1-4.9c1.5-0.6,2-1.3,1.7-2.9c-0.7-4.2,1.8-9.1,5.6-10.9
			c0.9-0.4,2.2-0.9,2.8-0.5c1.7,0.9,3.2,2.1,4.5,3.5c0.5,0.5,0.6,1.7,0.4,2.4c-0.1,0.4-1.4,0.7-2,0.6c-1.7-0.5-2.7,0.5-3,1.8
			c-0.5,1.8-0.9,4.1,0.6,5.5c1.4,1.4,3.2,0.1,4.9-0.3c0.2-0.1,0.4-0.1,0.6-0.2c1.4-1.4,3-2.7,4.1-4.4c0.9-1.4,4.6-8.8-1-11.6
			c-1.1-0.5-2.3-0.7-3.5-0.9c-5.1-0.8-9.6,1.5-14,3.5c-10,4.5-20.2,8.4-30.7,11.5c-6.4,1.9-12.9,3.3-19.7,2.7
			c-8.4-0.7-16.8-0.2-25.1-2.1c-9.4-2.1-18.8-3.9-27.5-8.5c-3.2-1.7-6.6-3-10-4.4c-1.3-0.6-2.6-1.3-3.9-1.4c-3-0.3-5.8-0.9-8.5-2.2
			c-2.8-1.4-5.8-1.7-8.9-1.4c-3.4,0.4-6.3,2-7.7,5.3c-2.7,6.7,0.9,13.4,9.7,16.2c2,1.1,3.8,0.2,5.4-0.9c1.6-1,2.8-2.5,2.3-4.6
			c-0.4-1.9-1.9-2.8-3.5-3.5c-1.1-0.5-2.2-0.5-3,0.7c-0.5,0.8-1.3,1.7-2.2,0.9c-0.6-0.5-1-1.9-0.7-2.7c0.6-1.7,1.4-3.3,3.3-4.2
			c2.8-1.4,8.6-0.3,10.7,2c0.1,0.1,0.1,0.2,0.2,0.3c1.9,2.6,3.2,5.3,3.3,8.6c0,2.3,0.3,2.6,2.5,3.2c5.6,1.5,11.1,3.2,16.8,4.5
			c9.5,2.1,19.2,3.3,29,3.3C117.7,283.9,122.9,283.7,128.2,283.6z M34.3,234.3c-0.9,2.4-1.1,3.2-0.3,5.5c1.3,3.8,2.8,7.6,4.3,11.3
			c0.6,1.5,1.7,1.6,3,0.9c2.7-1.4,5.6-1.7,8.5-1.4c0.4,0,0.9-0.1,1.7-0.3C45.6,244.8,40.1,239.6,34.3,234.3z M24.6,64.3
			c4.5-4.4,12-12,16.6-16.5c-3.1-1.4-5.9-2-9.1-1.9C28.3,51.2,26,59.2,24.6,64.3z M220.1,58.6c1.5,2,2.8,3.9,4.3,5.7
			c1.4,1.7,1.9,4.2,4.4,5.7c0.3-5.4,0.9-10.4-0.9-15.2C225.3,56,222.9,57.2,220.1,58.6z M198,250.8c2.2,1.6,4,3,5.8,4.3
			c2.6-2.9,7.7-11.7,8.3-14.4C207.4,244,202.9,247.3,198,250.8z"/>
		<path d="M8.6,148.1c0.2-5.9,0.2-11.8,0.5-17.6c0.3-5.3,0.5-10.5,1.2-15.7c0.4-3.4,1.2-6.8,2.3-10c1.5-4.7,3.3-9.4,5.3-13.9
			c3.2-7,6.8-13.7,12.1-19.5c4.1-4.5,7.9-9.3,12.7-13.1C46.7,55,50.8,52,55,49c3.1-2.2,6.4-4.2,9.4-6.6c5.3-4.1,11.2-6.8,17.5-8.9
			c9.6-3.1,19.2-5.9,29.3-6.8c4.8-0.4,9.7,0,14.6,0.4c5.8,0.5,11.5,1,17.2,2c9.4,1.7,18.8,3.5,27.8,6.7c7.2,2.5,14.2,5.5,20.3,10.1
			c3.2,2.4,6.3,5.1,9.2,7.9c1.6,1.5,2.7,3.4,4.1,5.1c4.5,5.3,9.2,10.5,13.6,15.9c2,2.5,3.8,5.3,5.4,8c3.9,6.8,7.9,13.4,11.3,20.5
			c3,6.1,4.8,12.7,5.7,19.5c0.4,2.9,1.2,5.8,1.3,8.7c0.3,7.3,0.1,14.5-1.8,21.7c-0.9,3.4-0.8,7-1.4,10.5c-0.6,3.5-1.6,6.9-2.3,10.4
			c-0.7,3.7-1.3,7.4-2,11.1c-1.3,6.4-3.1,12.6-6.6,18.2c-2.7,4.3-5.9,8.2-8.9,12.3c-5.7,7.5-12.6,13.9-19.3,20.5
			c-6.1,5.9-13.5,10-20.6,14.5c-3.5,2.3-7.8,3.3-11.7,5.1c-4.7,2.1-9.6,3.2-14.5,4.4c-3.6,0.9-7.3,1.5-11,1.9
			c-7.7,0.7-15.4,1.2-23,1.7c-0.7,0-1.4,0-2.1-0.2c-7.3-2-14.8-3.1-22.1-5.3c-5.8-1.8-11.1-4.3-16.4-7.1c-5.5-2.9-10.9-5.8-16.4-8.6
			c-4.6-2.3-8.6-5.6-12.8-8.7c-5.5-4.1-10.2-9-14.4-14.3c-2-2.5-3.6-5.4-5.3-8.1c-1.2-1.8-10.3-17-12.1-23.6
			c-1.2-4.3-2.9-8.5-3.8-12.8C11.4,166.1,8.6,157.3,8.6,148.1z M200.4,229.6c0.9-0.7,1.4-1,1.8-1.4c5.7-5.8,11.3-11.6,15.9-18.3
			c3-4.3,6.5-8.2,8.1-13.3c1.1-3.3,3-6.4,3.8-9.8c1.8-7.2,3.2-14.4,4.5-21.7c1.2-7.2,2-14.4,3.1-21.7c0.4-2.9,0.2-5.8,0.3-8.8
			c0.1-3.1-0.1-6-0.7-9c-1.4-7.4-3.2-14.7-6.6-21.4c-2.9-5.8-6-11.5-9.3-17.1c-2-3.5-4.3-6.9-6.7-10.1c-3.3-4.3-6.8-8.3-10.2-12.5
			c-2.3-2.9-4.6-5.8-7.4-8.4c-8.6-7.7-18.2-13.5-29.3-16.8c-7-2.1-14.1-3.8-21.2-5.1c-3.4-0.6-6.9-0.8-10.2-1.6
			c-6.7-1.6-34.7-0.8-41.8,0.9c-1.3,0.3-2.4,1.2-3.7,1.4c-3.5,0.6-6.8,1.8-10.1,3.2c-1.4,0.6-2.9,0.9-4.2,1.5c-2,0.9-4,2-5.9,3
			c-0.8,0.4-1.6,0.8-2.4,1.3c-2.9,1.9-5.6,4-8.6,5.8c-5.1,3-9.8,6.5-14.3,10.2c-1.7,1.4-3.5,2.8-4.9,4.5c-3.4,3.7-6.7,7.6-9.9,11.4
			c-1.3,1.5-2.6,3.1-3.6,4.9c-2,3.6-4,7.3-5.5,11.1c-1.8,4.5-3.4,9.1-4.8,13.7c-2.1,7-3.3,14.2-3.5,21.6c-0.1,3.7,0.4,7.5,0,11.2
			c-1.2,12.3,0.8,24.2,4.4,36c1.1,3.7,2.5,7.3,3.6,10.9c1.2,3.7,2,7.4,3.3,11.1c0.8,2.4,2,4.6,3.3,6.8c1.6,2.7,3.7,5.1,5.4,7.7
			c3.8,5.9,7.9,11.5,13.2,16.2c1,0.9,2.1,1.7,3.5,2.7c0.8-2.1,1.4-3.7,2-5.2c1.2-3.1,1.9-3.6,5.1-3.4c1,0.1,2,0.4,3,0.6
			c1.6,0.4,3.3,0.8,4.8,1.2c0.3-0.5,0.5-0.8,0.6-1.1c1.9-8.5,19.8-44.5,20.9-48.1c0.5-1.7,0.2-2.7-1.2-3.9
			c-4.4-3.7-8.8-7.6-11.6-12.7c-2.7-4.8-6.5-9.2-7.2-14.9c-0.9-7-1.3-14,2.6-20.4c3.2-5.3,7.3-9.8,12.8-12.7
			c6.3-3.2,13.2-4.7,20.1-5.7c10.6-1.6,21.4-2.5,32.1-0.6c4.3,0.8,8.4,2.2,12.5,3.6c1.4,0.5,3,1.4,3.6,3.4c-4.5-0.9-8.8-1.8-13-2.5
			c-4.3-0.7-8.6-1.4-13-1.5c-9.2-0.2-18.5,0.4-27.5,2.8c-7,1.9-13.9,3.8-19.3,9.1c-8.4,8.1-10.6,16.7-6.2,27.9
			c2,5.2,5,10.2,8.9,14.3c5.9,6.3,12.8,11.2,21.3,13.4c9.7,2.5,19.6,3.2,29.6,2c4.3-0.5,8.5-1.7,12.8-2.7
			c8.1-1.9,15.5-5.3,22.1-10.4c5.3-4.1,8.5-9.4,9.3-16.1c0.4-3.2,0.1-6.4-0.2-9.6c-0.6-6.7-3.5-12-8.3-16.4
			c-1.6-1.4-2.5-3.1-3.6-5.1c0.7,0.1,1,0,1.2,0.1c6.8,2.9,11,10.3,12.7,15.2c0.3,1.2,0.5,2.4,0.7,3.6c0.9,5.3,2.1,10.6,0.4,15.9
			c-0.2,0.5-0.2,1-0.2,1.5c-0.5,4.4-2.8,8.1-5.8,11.2c-3.8,3.9-8.1,7.4-13.1,9.8c-0.6,0.3-1.2,0.7-1.9,1.2c0.3,1.1,0.5,2,0.8,3
			c1.1,3.2,23,51.1,23.5,53.4c3-0.4,6.6-7.5,8.7-8.9c2.9-1.9,3.9-1.8,5.9,1.1c0.9,1.4,1.6,2.8,2.4,4.2
			C199.1,227.2,199.6,228.2,200.4,229.6z M179.1,245.5c-0.6-2-21-50.2-22.4-55.3c-0.5-1.9-1.1-3.8-1.6-5.7
			c-22.3,6.4-44.1,5.4-65.8-1.2c-0.3,0.6-0.5,1-0.6,1.4c-1.5,6-15,27.5-17.8,39.9c-1.2,5.3-1.4,10.8-4.7,15.9
			c2.4,1.3,4.5,2.6,6.8,3.7c3.2,1.7,6.4,3.4,9.8,4.8c4.3,1.9,8.3,4.2,13,5.2c4.3,1,8.5,2.5,12.8,3.6c3.7,0.9,7.5,1.9,11.3,2.2
			c9.2,0.6,18.2-1,27.2-2.7c8-1.6,16-3.6,23.6-6.9C173.7,249.1,176.5,247.5,179.1,245.5z"/>
		<path d="M137.3,140.8c0.1,2.9-3.8,6.1-6.6,5.5c-1.5-0.3-2.8-2-2.8-3.9c-0.1-3,3.4-5.9,6.4-5.2
			C136.2,137.7,137.2,138.9,137.3,140.8z"/>
		<path d="M110.5,143.5c-1.8,0.1-3.4-1.4-3.5-3.4c-0.2-1.9,2.1-4.6,3.9-4.7c1.5-0.1,3.3,1.9,3.4,3.7
			C114.4,141.2,112.5,143.3,110.5,143.5z"/>
	</g>
</g>
</svg>
