<?xml version="1.0" encoding="utf-8"?>
<!-- Generator: Adobe Illustrator 19.1.0, SVG Export Plug-In . SVG Version: 6.00 Build 0)  -->
<svg version="1.1" id="Calque_1" xmlns="http://www.w3.org/2000/svg" xmlns:xlink="http://www.w3.org/1999/xlink" x="0px" y="0px"
	 viewBox="0 0 252.8 245.5" style="enable-background:new 0 0 252.8 245.5;" xml:space="preserve">
<style type="text/css">
	.st0{fill:#254B86;}
	.st1{fill:#254B87;}
	.st2{fill:#492E1F;}
	.st3{fill:#DFB76A;}
	.st4{fill:#BFBEBE;}
	.st5{fill:#6EA2C2;}
	.st6{fill:#224E89;}
	.st7{fill:none;stroke:#224E89;stroke-width:3;stroke-miterlimit:10;}
	.st8{fill:#F5F9F8;}
	.st9{fill:#F5F9F8;stroke:#224E89;stroke-width:3;stroke-miterlimit:10;}
	.st10{fill:#F9CB00;}
	.st11{fill:#DF111A;}
	.st12{fill:#0B6EB1;}
	.st13{fill:#8D1514;}
	.st14{fill:#679FD0;}
	.st15{fill:#008549;}
	.st16{fill:#CB9831;}
	.st17{filter:url(#Adobe_OpacityMaskFilter);}
	.st18{fill:#1D1C1A;}
	.st19{fill:#C99730;}
</style>
<g>
	<path d="M252.4,117c-0.3-4.9-0.6-9.8-1.2-14.7c-0.9-7.5-3.4-14.6-5.9-21.7c-4.5-13-11.1-24.9-18.6-36.4c-1-1.5-12-14.8-22-21.9
		c-5.3-3.6-11-6.6-16.8-9.2c-8.2-3.7-16.7-6.5-25.4-8.9c-6.6-1.9-13.4-2.9-20.2-3.5c-29.4-2.4-51.1,1.7-70.1,11.4
		c-4.7,2.4-12.8,5.9-19,11.1s-14.3,12.6-19.2,18c-5.8,6.4-10.6,13.6-15.2,20.9c-3.4,5.4-5.5,11.4-7.9,17.2c-2.2,5.2-4.4,10.5-5.7,16
		c-1.7,6.9-2.7,14-3.7,21.1c-1,7.9-2,15.7-1.1,23.8c1,9.6,3.4,18.8,6.8,27.9c17.5,46.8,55.9,61.9,60.7,64.3
		c19,8.7,40.8,15.3,79.8,12.3c5.7-0.4,11.4-1.5,17.1-2.5c8.6-1.6,17-3.7,24.5-8.5c3.4-2.1,6.9-4.2,10.1-6.6c4.2-3,21-18.2,24.9-23.1
		c5.8-7.3,10.8-15.2,15.1-23.6c3-6,6.4-11.9,8-18.6c1-4.3,2.7-8.4,3.4-12.7c1-6.2,1.7-12.5,2.1-18.8
		C253,125.9,252.6,121.4,252.4,117z M245,101c-8-1.9-15.8-3.8-23.7-5.7c-0.6-2.2-1.3-4.4-1.8-6.6c-1.5-6.3-2.9-12.6-4.3-19
		c-0.8-3.6-1.6-7.1-2.5-10.6c-0.2-0.9,0-1.6,0.6-2.2c1.6-1.8,3.3-3.7,4.9-5.6c0.9-1,1.6-2.2,2.5-3.5C232.2,64,241.3,81,245,101z
		 M169.5,11.6c5.1,2.3,10.5,3.9,15.5,6.3c5.6,2.6,11.1,5.2,15.9,9.2c3.3,2.7,7,5.1,10,8.1c3,3,5.4,6.6,8.1,10
		c-3.1,3.3-6,6.4-8.7,9.2c-2.9,0.4-5.7,0.6-8.5,1.1c-6.3,1-12.6,2.1-18.9,3.1c-3.1,0.5-6.2,0.8-9.2,1.3c-1.2,0.2-1.9-0.3-2.6-1.1
		c-4-4.7-8.1-9.5-12.1-14.2c-0.4-0.5-0.7-1.3-0.7-1.9c0.5-4.5,1.2-9.1,1.7-13.6c0.4-3.6,0.6-7.3,0.8-10.9c0.1-1.9,0.3-3.8,0.5-5.7
		C164.1,10.1,166.6,10.3,169.5,11.6z M148,106.1c4.6-1.3,9.1-2.6,13.7-3.8c1.9-0.5,3.9-0.8,5.9-1.3c1.3-0.3,2.1,0.4,3,1
		c2.5,1.9,4.9,3.9,7.4,5.7c4.4,3.1,8.9,6.1,13.5,9.2c0,7,1.2,14.1,0.5,21.4c-0.3,0.1-0.6,0.3-0.8,0.2c-4.6-0.9-9.2-1.5-13.5-3.3
		c-7.7-3.2-14.6-7.6-21-12.9c-4.5-3.7-9-7.2-12.4-12c-0.5-0.7-1.1-1.5-1.8-2.5C144.5,107.2,146.2,106.6,148,106.1z M140.6,104.4
		c-7.8-12-13.1-30.7-5.9-53.5c6.9-1.8,13.7-3.6,20.5-5.4c2.2,3.1,4.3,6.1,6.4,9c2.2,3.1,4.3,6.1,6.4,9.3c0.5,0.7,0.9,1.6,0.9,2.5
		c0,3.5-0.2,7-0.4,10.4c-0.2,3.4-0.4,6.7-0.6,10.1c-0.2,3.5-0.4,7.1-0.7,10.8C158,98.9,149.7,103.5,140.6,104.4z M56.1,24.5
		c1.3,4,2.5,7.5,3.7,11.3c-9.5,3.8-18.7,8-27.2,13.7c-0.1-0.1-0.3-0.3-0.4-0.4C37.2,41.2,51.9,28.8,56.1,24.5z M122.6,161.8
		c-2.2,1-2.7,0.8-3.7-1.8c2.2-1.2,4.4-2.4,6.7-3.6c0.2,1.3,0.4,2.5,0.7,3.9C125.1,160.7,123.9,161.2,122.6,161.8z M127.1,163
		c0.2,0,0.4,0.5,0.9,1.1c-1-0.2-1.5-0.3-2.5-0.5C126.3,163.3,126.7,163,127.1,163z M117.8,157.1c-0.2-0.7-0.4-1.2-0.6-1.9
		c1,0,2.8,0.7,3.7,0.7C119.3,156.6,118.8,156.6,117.8,157.1z M118.3,162.3l-3.4-1l2.3-1.2L118.3,162.3z M108.9,159.4
		c-1.9-1-4.4-1.1-6.9-1.7c1.8-2,3.8-2.5,5.7-3.1c1-0.3,2.1-0.7,3.1-0.6c2.6,0.1,4,1.7,4.5,4.3C113.3,159.8,111.6,160.9,108.9,159.4z
		 M119.6,165.4c5,1.2,9.9,2.4,14.9,3.6c2.9,0.7,5.9,1.4,8.8,2c3.3,0.6,6.7,0.1,9.6-1.5c1.6-0.8,4.8-3.8,5.4-6.7
		c5.1,1.9,10.4,2.2,14.9,4.9c0.5,0.3,1,0.4,1.5,0.7c2.1,1.4,2.4,3.8,0.5,5.5c-1.9,1.7-3.9,3.3-6.1,4.7c-7.5,4.9-15.7,8.4-24.4,10.4
		c-8.2,2-16.6,3.4-25,4.2c-4.6,0.4-9,1.7-13.3,3.4c-4.7,1.8-9.2,3.9-13.9,5.7c-4.5,1.8-9.2,3-14.1,2.6c-1.3-0.1-2.6-0.3-3.8-0.1
		c-1.8,0.3-2.7-0.7-3.7-1.8c-4.1-4.9-7-10.5-8.7-16.6c-0.6-2.2-0.8-4.5-1.1-6.7c-0.3-1.9,0.2-3.7,1.2-5.3c0.8-1.2,2-2.4,3.3-3.1
		c0.8-0.5,2.1-0.2,3.2-0.1c3.1,0.3,6.2,0.7,9.3,0.9c4.8,0.3,8.7-1.8,12.2-4.8c2-1.6,3.9-3.3,5.7-5.2c1.4-1.4,3-1.7,4.8-1.3
		C107,162.3,113.3,163.8,119.6,165.4z M141.7,162.2c-0.4,0.2-0.8,0.3-1.4,0.5c-0.4-1.2-0.7-2.3-1.2-3.8c2.3,0.5,4.3,0.8,6.7,1.3
		C144.1,161,142.9,161.6,141.7,162.2z M149.2,161.6c0.8-0.4,4.1,0.3,5.9,0.7c-0.6,3.3-2.9,4.8-5.6,5.4c-1.9,0.4-4,0.3-6,0.2
		c-1.7,0-1.7-0.2-2.3-2.7C144,164.1,146.6,163,149.2,161.6z M140.3,167.6l-4-0.8l2.7-1.2L140.3,167.6z M130.1,162
		c2.2-0.9,4.4-1.9,6.7-2.9c0.3,1.6,0.6,3,0.8,4.3C132.8,166.7,131.2,166.4,130.1,162z M129.1,159.3c-0.4-0.8-0.7-1.5-1.1-2.4
		c1.4,0.2,2.5,0.4,4.3,0.7C130.9,158.3,130.1,158.8,129.1,159.3z M169.6,189.6c-1,0.2-2.8,0.5-3.2,0.5c-0.5,0-0.6-2-1-3.2
		c1.9-0.9,3.5-1.6,5-2.4c0.3,0.9,0.6,1.5,0.8,2.2C171.8,188.3,171.4,189.1,169.6,189.6z M155.6,191.2c0,1.2,0,2.3,0,3.2
		s-3.5,1.6-3.7,1c-0.2-0.6-0.7-1.9-1.2-3.1C152.5,191.9,153.9,191.6,155.6,191.2z M143.4,197.8c-0.7,0.1-2.7,0.7-3.5,1
		c-1.2,0.4-1.3,0.1-2.6-1.5c2.2-0.5,3.8-0.9,5.7-1.4C143.1,196.5,143.2,197.1,143.4,197.8z M128.1,200.9c-0.2,0-0.4,0-0.5,0.1
		c-0.5,0.1-1.1,0.2-1.7,0.3c-0.2-0.5-0.8-2.3-0.9-3c1.7,0,3.2,0,4.6,0C129.8,200.5,129.8,200.5,128.1,200.9z M96.6,209.9
		c-3.1,1.3-3.3,1.2-3.9-2.1c1-0.3,2-0.7,3.3-1.1C96.2,207.9,96.4,208.9,96.6,209.9z M86.6,212.5c-0.8,0.5-2.6,0.1-4,0.5
		c-0.9,0.3-0.4-1.2-1.1-2c1.6-0.5,3.1-0.9,4.8-1.4C86.4,210.3,87.4,212,86.6,212.5z M95.3,155.7c-2.5,2.1-5,4.3-7.2,6.7
		c-3.5,3.7-7.6,5.2-12.6,4.9c-2.7-0.2-5.5-0.2-8.2-0.2c-1.3,0-2.5,0.3-4,0.4c-0.4-0.6-1-1.3-1.4-2.1c-2.7-4.8-5.4-9.7-8.2-14.5
		c-2.9-5.1-5.8-10.2-8.9-15.2c-1.8-3-3.7-5.9-5.8-8.7c-6-8-11.8-16.1-17-24.6c-0.8-1.3-1-2.4,0-3.7c1.8-2.2,3.4-4.6,5.1-6.8
		c4.9-6.3,11.2-10.8,18.3-14.2c4.7-2.3,9.5-4.3,14.3-6.3c2-0.8,4.2-0.9,6.3-1.4c0.9-0.2,1.8-0.4,2.5-0.8c1.6-0.8,1.9-0.8,2.5,0.9
		c1,2.9,1.9,5.7,2.8,8.6C78,91.8,82,105,86.5,118c2.5,7.4,5.7,14.5,8.6,21.7c1.7,4.2,3.6,8.4,5.4,12.7
		C98.5,153.7,96.7,154.5,95.3,155.7z M54.4,70.2c-1.2,0.6-2.5,1.3-3.9,2c-3-8.3-6-16.5-9.1-24.9c1.6-0.8,3-1.6,4.5-2.4
		C48.8,53.4,51.6,61.7,54.4,70.2z M48.5,43.7c1.7-0.8,3.2-1.4,5-2.2c2.6,8.8,5.1,17.6,7.7,26.6c-1.5,0.4-2.8,0.7-4.2,1
		C54.1,60.6,51.3,52.2,48.5,43.7z M47.7,73.3c-1,0.6-2,1.1-3.2,1.7c-3-8.3-5.8-16.3-8.7-24.4c0.7-0.5,1.6-1.2,2.7-2.1
		C42.3,56.6,45,64.8,47.7,73.3z M64.1,67.4c-1.2-1.2-1.4-2.9-1.8-4.4c-2-7.5-4.1-14.9-6.3-22.8c1.6-0.4,3-0.9,4.7-1.3
		c3,9.1,5.9,18.2,8.9,27.4C67.8,66.6,66,67,64.1,67.4z M33,52.7c4.5,7.3,5.5,15.7,8.9,23.4c-0.7,0.6-1.4,1.1-2.3,1.8
		c-3.3-7.7-6.5-15.1-9.8-22.7C30.9,54.3,32,53.5,33,52.7z M27.9,57.1c3.2,7.6,6.3,14.8,9.3,22.1C36,80,35,80.6,33.7,81.4
		c-1.6-3.5-3.2-6.9-4.7-10.3c-1.5-3.3-2.9-6.7-4.4-10.4C25.5,59.7,26.5,58.6,27.9,57.1z M22.8,63.7c3,6.6,5.9,13.1,8.9,19.8
		c-1.1,1-2.3,2.1-3.6,3.2c-2.8-5.8-5.7-11.5-8.5-17.2C20.6,67.6,21.6,65.8,22.8,63.7z M17.9,72c2.8,5.7,5.5,11.2,8.3,16.8
		c-0.8,1-1.6,2.1-2.9,3.8c-2.7-5.8-5.3-11.1-7.7-16.2C16.4,74.8,17,73.6,17.9,72z M14.4,80.3c2.4,4.8,4.8,9.6,7.3,14.5
		c-0.6,0.9-1.4,1.9-2.2,3.1c-2.3-3.7-5-8.8-6.8-14C13.3,82.5,13.8,81.4,14.4,80.3z M246.2,136.6c-1,6.1-1.9,12.1-3,18.2
		c-2.2,12-7.1,22.9-13.8,33c-2.7,4.1-5.2,8.2-8.1,12.1c-3.1,4.1-21.7,21.9-26,24.3c-2.7,1.5-5.3,3.2-8.1,4.7c-2.6,1.4-5.2,2.6-8,3.7
		c-8.4,3.4-17.1,5.3-26,6.9c-5.1,0.9-10.4,1.3-15.6,1.5c-6.7,0.2-13.4,0.3-20.1-0.2c-5.1-0.4-10.2-0.5-15.2-1.7
		c-6.3-1.6-26.8-6.3-38.2-13c-13.5-8-38.1-22.8-53.9-59.1c-2.3-5.2-3.7-10.7-5.2-16.2c-0.9-3.1-1.1-6.5-1.6-9.7
		c-1.4-8.2,0.2-16.2,1.2-24.2c0.6-4.4,1.1-8.9,2.1-13.2c0.9-4.5,2.3-8.8,3.5-13.2c0.3-1.1,0.7-2.2,1.2-3.8c0.7,1.8,1.2,3.2,1.7,4.6
		c3.3,8.8,8.4,16.7,13.8,24.3c4.8,6.8,9.8,13.5,14.4,20.5c5.5,8.3,10.7,16.8,15.3,25.7c1.4,2.8,3.1,5.4,4.8,8.1
		c-3.6,4.6-3.5,9.9-2.4,15c1.6,7.3,4.6,14.1,9.6,19.9c1.7,2,3.5,3.5,6.3,3.4c2.2,0,3.4,1.2,4.1,3.3c1.4,3.8,1.6,4,4.9,3.6
		c3.2-0.4,5.3-0.4,5.2-1c-0.1-0.7-0.4-4.5-0.6-6.8c0.1-0.1,0.3-0.2,0.4-0.2c0.4,0.5,0.8,1,1.1,1.5c0.1,0.2,0.2,0.5,0.2,0.8
		c1,4,1.1,5.4,8.4,2.9c1.3-0.4-0.1-5.5-0.6-8.2c4.3-2.6,19-8.5,23.4-7.3c0.4,1.2,0.9,2.6,1.3,3.9c0.9,3.4,1.9,4.2,5.3,3.5
		c1.5-0.3,4.6-1.1,4.5-1.8c-0.1-0.7-0.5-4.7-0.8-7.1c0.8-0.2,1.5-0.4,2.3-0.6c0.4,1.4,0.8,2.6,1.1,3.8c0.5,2.2,2.1,3.1,4.1,3.5
		c2.1,0.4,4.1-0.4,5.7-1.6c0.7-0.6,0.8-2.3,0.8-3.5c0-1.4-0.4-2.9-0.6-4.5c1-0.3,1.7-0.5,2.8-0.7c0.3,1,0.6,2,0.8,2.9
		c0.8,3.5,1.6,4.2,5.1,3.7c1.2-0.2,2.3-0.5,3.4-1c0.5-0.2,0.9-1.1,0.9-1.7c0.1-1.3,0-2.6,0-3.8c0-1.2-0.2-2.3-0.2-3.6
		c1.5-0.6,3-1.2,4.7-1.9c0.4,1.4,0.6,2.7,1,3.9c0.9,2.7,1.4,3.1,4.4,2.9c1-0.1,3.3-0.7,4.1-1.1c3.1-1.6,2.6-2.6,1.8-6.4
		c-0.4-1.8-0.7-3.6-1.2-5.6c1.3-0.9,2.6-1.7,3.9-2.6c0.6-0.5,1.5-1,1.7-1.6c1.1-4.2,1.2-8.3-3.8-10.8c-5-2.5-10.4-3.8-15.8-5.1
		c-5.1-1.1-10.2-2.1-15.3-3.1c-4.6-0.9-9.1-1.8-13.7-2.5c-7.5-1.2-15-2.3-22.5-3.4c-1.3-0.2-1.8-0.8-2.5-1.8
		c-4-6.3-5.7-13.4-7.8-20.4c-2.1-7.1-4.6-14.1-7.2-21c-3.4-9.2-6.8-18.4-10-27.6c-2.3-6.6-4.3-13.2-6.5-19.8
		c-1.5-4.5-3.1-9-4.6-13.5c-2.7-7.9-5.4-15.7-8.1-23.6c-0.1-0.2,0-0.5-0.1-1c5.2-3.3,10.5-6.5,16.5-8.5c7.2-2.5,14.6-4.1,22-5.8
		c5.2-1.2,25.3-3.2,30-3.2c0.5,0,0.9,0.1,1.4,0.1c9.3,0,18.4,1.7,27.5,3.5c1.1,0.2,2.1,0.4,3.2,0.7c0,0.2,0.1,0.5,0,0.5
		c-5.8,3.6-10.7,8.3-15,13.6c-4.4,5.3-7.9,11.2-10.5,17.6c-3.3,8-5.1,16.4-6.3,24.9c-1.1,7.7-0.4,15.3,1.7,22.8
		c2.6,9.4,6.8,18,12.8,25.7c4,5.1,8.9,9.5,14.2,13.3c6.5,4.7,13.4,8.6,20.7,11.7c4.4,1.8,9,3,13.7,3.6c3.5,0.4,7,1.2,10.6,1.4
		c3.4,0.1,6.8-0.3,10.1-0.5c1.3-0.1,2.5-0.2,3.8-0.3c2.5-0.3,5.1-0.4,7.5-1c5.8-1.6,11.6-3.4,17.3-5.2c1.5-0.5,3-1.3,4.8-2.1
		C246.2,135.5,246.3,136,246.2,136.6z M244.7,130.1c-4.4,2.6-9,4.6-13.9,5.6c-8,1.8-16.1,3.7-24.3,4c-3.2,0.1-6.3-0.2-9.7-0.3
		c-0.1-1.5-0.3-2.9-0.2-4.2c0.4-3.8-0.2-7.5-0.9-11.2c-0.5-2.5-0.4-5-0.5-8c8.3-5.8,16.4-11.5,24.1-16.9c9.4,0.9,18,3,26.8,5.4
		c0.3,3.1,0.5,6.1,0.8,9.1c0.3,3.7,0.4,7.5,0.6,11.2C247.6,127.2,246.9,128.8,244.7,130.1z"/>
	<path id="" d="M119.6,165.4c5,1.2,9.9,2.4,14.9,3.6c2.9,0.7,5.9,1.4,8.8,2c3.3,0.6,6.7,0.1,9.6-1.5c1.6-0.8,4.8-3.8,5.4-6.7
		c5.1,1.9,10.4,2.2,14.9,4.9c0.5,0.3,1,0.4,1.5,0.7c2.1,1.4,2.4,3.8,0.5,5.5c-1.9,1.7-3.9,3.3-6.1,4.7c-7.5,4.9-15.7,8.4-24.4,10.4
		c-8.2,2-16.6,3.4-25,4.2c-4.6,0.4-9,1.7-13.3,3.4c-4.7,1.8-9.2,3.9-13.9,5.7c-4.5,1.8-9.2,3-14.1,2.6c-1.3-0.1-2.6-0.3-3.8-0.1
		c-1.8,0.3-2.7-0.7-3.7-1.8c-4.1-4.9-7-10.5-8.7-16.6c-0.6-2.2-0.8-4.5-1.1-6.7c-0.3-1.9,0.2-3.7,1.2-5.3c0.8-1.2,2-2.4,3.3-3.1
		c0.8-0.5,2.1-0.2,3.2-0.1c3.1,0.3,6.2,0.7,9.3,0.9c4.8,0.3,8.7-1.8,12.2-4.8c2-1.6,3.9-3.3,5.7-5.2c1.4-1.4,3-1.7,4.8-1.3
		C107,162.3,113.3,163.8,119.6,165.4z"/>
	<path id="" d="M54.4,70.2c-1.2,0.6-2.5,1.3-3.9,2c-3-8.3-6-16.5-9.1-24.9c1.6-0.8,3-1.6,4.5-2.4
		C48.8,53.4,51.6,61.7,54.4,70.2z"/>
	<path id="" d="M48.5,43.7c1.7-0.8,3.2-1.4,5-2.2c2.6,8.8,5.1,17.6,7.7,26.6c-1.5,0.4-2.8,0.7-4.2,1
		C54.1,60.6,51.3,52.2,48.5,43.7z"/>
	<path id="" d="M47.7,73.3c-1,0.6-2,1.1-3.2,1.7c-3-8.3-5.8-16.3-8.7-24.4c0.7-0.5,1.6-1.2,2.7-2.1
		C42.3,56.6,45,64.8,47.7,73.3z"/>
	<path id="" d="M64.1,67.4c-1.2-1.2-1.4-2.9-1.8-4.4c-2-7.5-4.1-14.9-6.3-22.8c1.6-0.4,3-0.9,4.7-1.3c3,9.1,5.9,18.2,8.9,27.4
		C67.8,66.6,66,67,64.1,67.4z"/>
	<path id="" d="M33,52.7c4.5,7.3,5.5,15.7,8.9,23.4c-0.7,0.6-1.4,1.1-2.3,1.8c-3.3-7.7-6.5-15.1-9.8-22.7
		C30.9,54.3,32,53.5,33,52.7z"/>
	<path id="" d="M27.9,57.1c3.2,7.6,6.3,14.8,9.3,22.1C36,80,35,80.6,33.7,81.4c-1.6-3.5-3.2-6.9-4.7-10.3
		c-1.5-3.3-2.9-6.7-4.4-10.4C25.5,59.7,26.5,58.6,27.9,57.1z"/>
	<path id="" d="M22.8,63.7c3,6.6,5.9,13.1,8.9,19.8c-1.1,1-2.3,2.1-3.6,3.2c-2.8-5.8-5.7-11.5-8.5-17.2
		C20.6,67.6,21.6,65.8,22.8,63.7z"/>
	<path id="" d="M17.9,72c2.8,5.7,5.5,11.2,8.3,16.8c-0.8,1-1.6,2.1-2.9,3.8c-2.7-5.8-5.3-11.1-7.7-16.2
		C16.4,74.8,17,73.6,17.9,72z"/>
	<path id="" d="M14.4,80.3c2.4,4.8,4.8,9.6,7.3,14.5c-0.6,0.9-1.4,1.9-2.2,3.1c-2.3-3.7-5-8.8-6.8-14
		C13.3,82.5,13.8,81.4,14.4,80.3z"/>
</g>
</svg>
