<?xml version="1.0" encoding="utf-8"?>
<!-- Generator: Adobe Illustrator 19.1.0, SVG Export Plug-In . SVG Version: 6.00 Build 0)  -->
<svg version="1.1" id="Calque_1" xmlns="http://www.w3.org/2000/svg" xmlns:xlink="http://www.w3.org/1999/xlink" x="0px" y="0px"
	 viewBox="0 0 236 268.5" style="enable-background:new 0 0 236 268.5;" xml:space="preserve">
<style type="text/css">
	.st0{fill:#FFFFFF;}
	.st1{fill:#41AB87;}
	.st2{fill:#E2EFE8;}
	.st3{fill:#010202;}
	.st4{fill:#DB5556;}
	.st5{fill:#6FA4C3;}
	.st6{fill:none;stroke:#DB5556;stroke-width:7;stroke-miterlimit:10;}
	.st7{fill:none;}
	.st8{fill:#FFFFFF;stroke:#DB5556;stroke-width:3;stroke-miterlimit:10;}
	.st9{fill:none;stroke:#DB5556;stroke-width:3;stroke-miterlimit:10;}
	.st10{fill:#C1C0C0;}
	.st11{fill:none;stroke:#C1C0C0;stroke-width:3;stroke-miterlimit:10;}
	.st12{fill:#FFFCFA;}
	.st13{fill:#F5D1CA;}
</style>
<g>
	<g>
		<g>
			<path d="M184.6,267.7c-6.7,0-13.8,0-20.9,0c-5,0-10,0.3-15,0.3c-10.3,0-20.6,0-30.9-0.1c-4.9-0.1-9.8-0.4-14.7-0.5
				c-7.4-0.2-14.9-0.4-22.3-0.7c-8.9-0.3-17.8-0.8-26.6-1.1c-2.4-0.1-4.8-0.1-7.3-0.1c-4.7-0.1-9.4-0.2-14.1-0.5
				c-5-0.3-10-0.8-15-1.5c-3.9-0.6-7.9-0.8-11.1-3.5c-1.3-1.1-2.1-2.3-2.9-3.8c-4-8.7-2.7-17.2,0.6-25.6c2-5.2,4.3-10.3,6.5-15.4
				c4.7-10.8,9.4-21.5,14.3-32.2c2.9-6.4,6.2-12.6,9.3-19c5.3-11.1,10.4-22.3,15.8-33.3c3.9-7.9,8.2-15.6,12.1-23.4
				c5.1-10.3,10-20.8,15-31.2c3.4-7,6.9-14,10.3-21c1.5-3.1,2.9-6.2,4.3-9.2c1.6-3.3,3.1-6.6,4.7-9.8c2.3-4.5,4.8-8.9,7.3-13.3
				c2.1-3.8,4.2-7.7,6.5-11.5c0.9-1.6,2.2-3,3.4-4.4c4-4.9,9.8-5.4,15.5-6.1c1.4-0.2,3,0.6,4.4,1.2c6,2.7,10.1,7.2,13.5,12.9
				c5.6,9.1,10.3,18.7,14.3,28.5c3.2,7.8,12.2,32.3,13.8,36.6c3,7.9,5.7,15.9,8.6,23.8c1.6,4.4,3.5,8.7,5.3,13.1
				c3.4,8.1,29.7,81.9,33.7,94.9c2.4,7.8,5.1,15.4,7.4,23.2c1.1,3.8,7.1,20.1,3.3,25.2c-3.8,5.2-20.6,5.6-27,6.2
				C199.4,266.7,192.2,267.2,184.6,267.7z M224.7,248.6c0.1,0,0.1,0,0.2,0c-0.2-2.1-3.8-17.7-5.9-23.2c-4-9.9-6.9-20.1-10.3-30.2
				c-3.1-9.1-25.6-72.1-28.5-78.3c-5.2-11-28-76.9-29.7-81.3c-3.5-9.4-8.4-18-14.3-26.2c-3-4.2-11.7-6.2-16.1-3.1
				c-3.7,2.5-6.6,5.7-8.7,9.6c-2.6,4.8-5.3,9.6-7.9,14.4c-2.4,4.4-4.7,8.9-7,13.4c-1.3,2.6-2.3,5.4-3.6,8.1
				c-5.4,11.3-10.9,22.6-16.4,33.8c-5.6,11.5-11.3,23.1-17.1,34.6c-3.6,7.2-7.4,14.2-10.9,21.4c-4.6,9.4-8.9,18.9-13.3,28.3
				c-2.2,4.7-4.6,9.3-6.7,14c-3.7,8.2-7.4,16.5-11,24.7c-2.3,5.2-4.7,10.4-6.8,15.7c-1.6,3.9-3.1,7.8-4.3,11.8
				c-1.4,4.6-1.7,9.3-0.7,14c0.8,3.7,2.9,6.1,6.7,6.7c2,0.3,4.1,0.3,6.2,0.5c3.4,0.3,6.8,0.7,10.1,0.9c4.8,0.3,9.6,0.3,14.4,0.6
				c7.7,0.5,15.3,1.4,23,1.7c10.7,0.5,38.2,0.8,41.2,0.8c10.7,0.2,21.4,0.4,32.1,0.5c3.8,0,7.6-0.3,11.5-0.4
				c7.4-0.1,14.9-0.1,22.3-0.3c7-0.2,14-0.6,21-1c4.4-0.2,8.8-0.5,13.1-0.9c4.1-0.4,8.3-0.9,12.3-1.6c3-0.6,4.9-3.3,4.9-6.3
				C224.6,250.4,224.7,249.5,224.7,248.6z"/>
		</g>
		<g>
			<path d="M90.9,202.1c-0.7,4.8,1.2,8.4,4.4,11.5c-2,1.3-2.8,1.4-3.9,0.2c-2.2-2.4-3.6-5.3-3.9-8.5
				C87.1,202.7,87.8,202.1,90.9,202.1z"/>
			<path d="M86.7,205.4c0.9,4.3,1.4,8.7,5.9,10.8c-2.2,1.6-3.4,1.7-4.8,0.2c-2.1-2.3-3.4-5.2-3.9-8.2
				C83.5,206.1,83.9,205.7,86.7,205.4z"/>
		</g>
		<g>
			<path d="M172.5,164.5c2.3-1.3,6.7-11.1,5.9-11.8c-0.8-0.7-2.8,1.3-3.3,2.5c-1.3,2.9-3.2,5.7-5.6,7.9c-1.2,1.1,1.1,1.2,1.6,1.4
				C171.6,164.6,172,164.6,172.5,164.5z"/>
			<path d="M179.1,152.5c0.2,2.8-1.8,10.3-5.4,13.3c-0.8,0.6,2.6,1.1,3.9-0.2c3.5-3.3,4.4-10.8,3.9-12.4
				C181.4,152.5,179.1,151.4,179.1,152.5z"/>
		</g>
	</g>
	<g>
		<path d="M123.5,206.6c-3.2,2.1-6.5,4.2-9.7,6.4c-2.2,1.5-4.3,3.1-6.6,4.5c-2.4,1.5-2.6,1.3-4.2-1c-0.8-1.1-1.8-2.1-2.6-3.2
			c-6.9-9.2-5.8-19.1-2.1-29c1-2.7,2.2-5.3,3.5-7.8c1.9-3.6,4.2-6.9,7.3-9.5c3.7-3.1,7.2-6.3,10.7-9.5c3.6-3.3,6.8-7,8.6-11.7
			c2.5-6.5,1.5-12.1-3.4-16.5c-2.4-2.1-5.5-3.8-8.7-2.6c-2.8,1.1-5.6,2.5-7.6,5c-3,3.8-4.7,8.1-4.8,12.9c-0.1,2.5,0.1,4.9,0.8,7.5
			c0.8,3.2,0.8,6.8,0.2,10.1c-0.3,1.8-2.4,3.5-4.1,4.6c-4.9,3.3-10,6.5-15.6,8.5c-2.9,1-6.5-0.2-8.3-2.7c-0.4-0.6-1-1.2-1.6-1.6
			c-5.3-3.3-8-8.4-9.8-14.1c-2.6-8.1-2.3-16.3-0.9-24.5c1-5.9,2.5-11.7,5.2-17c3.3-6.4,8.1-11.7,14.2-15.6c4.5-3,9.2-5.7,14.1-8.1
			c8.4-4,28.7-5.8,31.6-5.5c6.1,0.7,12,2.4,17.6,5.1c5.2,2.6,10.1,5.5,13.7,10.1c0.9,1.2,1.8,2.4,2.7,3.6c1.1,1.5,2.2,2.9,3.1,4.4
			c0.9,1.5,1.8,3.1,2.4,4.8c1,2.7,1.8,5.4,2.5,8.2c0.6,2.2,0.8,4.5,1.2,6.8c0.2,1.3,0.4,2.7,0.5,4c0.5,7.4-1.7,14.2-4.2,21
			c-2.8,7.6-7.5,13.9-12.9,19.9c-5,5.5-8,12-10.2,18.9c-1.7,5.6-1.5,11.3-0.4,17c1.2,6.1,0.3,7.1-5.9,7.4c-2.9,0.1-5.4-0.7-7.7-2.5
			c-1.5-1.2-3.1-2.2-4.5-3.5C126.3,209.8,125.1,208.3,123.5,206.6z M137.7,213.3c-0.5-2.1-0.8-3.7-1.2-5.3c-1.1-4.7-1.3-9.5,0-14.2
			c2.3-8.3,6.8-15.4,12.7-21.5c6.5-6.7,10.7-14.5,13.6-23.1c2.1-6.2,2.8-12.6,2.8-19.2c-0.1-5.5-1.7-10.5-3.9-15.3
			c-3.1-6.8-8-12.2-14.8-15.7c-4.7-2.4-9.5-4.9-14.4-6.7c-6.6-2.5-13.5-2.6-20.4-1.2c-3.7,0.8-7.6,1.3-11.1,2.8
			c-5.1,2.3-10,5.2-14.8,8.1c-2.3,1.4-4.4,3.4-6.3,5.3c-3.4,3.5-6.8,7.1-8.4,11.9c-1.3,3.9-2.6,7.9-3.4,11.9
			c-2.1,9.6-2.1,19.2,1.5,28.5c1.5,3.9,3.8,7.1,7.1,9.6c2.1,1.5,3.9,1.9,5.9,0c0.4-0.4,1.1-0.6,1.7-0.9c4.1-2.5,8.2-4.8,12.3-7.4
			c2.4-1.5,2.4-1.9,1.3-4.4c-1.7-4.2-2.5-8.6-1.9-13.1c0.4-2.9,0.7-6,2.6-8.4c1.9-2.5,4-5.1,6.3-7.1c5.6-4.9,11.9-6.4,19.1-3.1
			c6.7,3,10.9,11.3,8.9,19.5c-1.8,7.2-6.3,12.6-11.9,17.2c-4.2,3.4-8.4,7-11.8,11.1c-6.7,7.9-9.8,17.2-9.9,27.6c0,2.9,0.9,5.4,2,8
			c0.5,1.2,1.6,2.1,2.4,3.1c4.2-2.8,8-5.4,11.9-8c1.2-0.8,2.5-1.6,3.8-2.3c1.5-0.8,2.9-0.5,4.1,0.7c0.5,0.5,1,1.1,1.5,1.7
			c2.8,4,7,6.5,10.7,9.4C136,213.1,136.7,213.1,137.7,213.3z"/>
		<path d="M102.2,248.8c-1.2-3.8,0.5-6.5,1.9-9.1c3.4-6.8,7.7-13,12.2-19c1.1-1.5,2.4-2,4.3-2c3.8,0,6.8,1.2,9.1,4.2
			c3.4,4.2,7,8.3,10.3,12.5c1.1,1.4,2.1,3.1,2.5,4.8c0.9,4.1-2.9,8.7-7.2,9c-1.7,0.1-3.4,0.2-5,0.7c-6.9,1.9-13.7,0.9-20.6,0.1
			C107.2,249.7,104.6,249.1,102.2,248.8z M133.8,244c-3.2-8.2-9.5-14.3-15.2-21c-5,6.7-9.5,13.4-12.5,21.1
			C112,246.2,129.5,246.1,133.8,244z"/>
		<path id="" d="M137.7,213.3c-0.5-2.1-0.8-3.7-1.2-5.3c-1.1-4.7-1.3-9.5,0-14.2c2.3-8.3,6.8-15.4,12.7-21.5
			c6.5-6.7,10.7-14.5,13.6-23.1c2.1-6.2,2.8-12.6,2.8-19.2c-0.1-5.5-1.7-10.5-3.9-15.3c-3.1-6.8-8-12.2-14.8-15.7
			c-4.7-2.4-9.5-4.9-14.4-6.7c-6.6-2.5-13.5-2.6-20.4-1.2c-3.7,0.8-7.6,1.3-11.1,2.8c-5.1,2.3-10,5.2-14.8,8.1
			c-2.3,1.4-4.4,3.4-6.3,5.3c-3.4,3.5-6.8,7.1-8.4,11.9c-1.3,3.9-2.6,7.9-3.4,11.9c-2.1,9.6-2.1,19.2,1.5,28.5
			c1.5,3.9,3.8,7.1,7.1,9.6c2.1,1.5,3.9,1.9,5.9,0c0.4-0.4,1.1-0.6,1.7-0.9c4.1-2.5,8.2-4.8,12.3-7.4c2.4-1.5,2.4-1.9,1.3-4.4
			c-1.7-4.2-2.5-8.6-1.9-13.1c0.4-2.9,0.7-6,2.6-8.4c1.9-2.5,4-5.1,6.3-7.1c5.6-4.9,11.9-6.4,19.1-3.1c6.7,3,10.9,11.3,8.9,19.5
			c-1.8,7.2-6.3,12.6-11.9,17.2c-4.2,3.4-8.4,7-11.8,11.1c-6.7,7.9-9.8,17.2-9.9,27.6c0,2.9,0.9,5.4,2,8c0.5,1.2,1.6,2.1,2.4,3.1
			c4.2-2.8,8-5.4,11.9-8c1.2-0.8,2.5-1.6,3.8-2.3c1.5-0.8,2.9-0.5,4.1,0.7c0.5,0.5,1,1.1,1.5,1.7c2.8,4,7,6.5,10.7,9.4
			C136,213.1,136.7,213.1,137.7,213.3z"/>
		<path id="" d="M133.8,244c-3.2-8.2-9.5-14.3-15.2-21c-5,6.7-9.5,13.4-12.5,21.1C112,246.2,129.5,246.1,133.8,244z"/>
	</g>
</g>
</svg>
