<?xml version="1.0" encoding="utf-8"?>
<!-- Generator: Adobe Illustrator 19.1.0, SVG Export Plug-In . SVG Version: 6.00 Build 0)  -->
<svg version="1.1" id="Calque_1" xmlns="http://www.w3.org/2000/svg" xmlns:xlink="http://www.w3.org/1999/xlink" x="0px" y="0px"
	 viewBox="0 0 292.9 259" style="enable-background:new 0 0 292.9 259;" xml:space="preserve">
<style type="text/css">
	.st0{fill:#F4A300;}
	.st1{fill:#C0C0C0;}
	.st2{fill:#008A90;}
	.st3{fill:#6DA3C3;}
	.st4{fill:none;stroke:#F8AD3B;stroke-width:3;stroke-miterlimit:10;}
	.st5{fill:#F8AD3B;}
	.st6{fill:none;}
	.st7{fill:#E2F7EF;}
	.st8{fill:#FFFFFF;}
</style>
<g>
	<path id="" class="st0" d="M281.4,122c-4.8-9.1-9.3-18.3-14.1-27.3c-3.7-7.1-7.5-14.2-11.6-21.1c-5.2-8.5-10.7-16.8-16.2-25.1
		c-5-7.6-9.8-15.2-15.1-22.5c-4.5-6.1-8.7-12.3-12.3-18.9c-0.9-1.7-2.2-2.7-4.3-2.7c-12.3,0.1-24.5-0.1-36.8,0.2
		c-13.4,0.3-26.7,1.1-40.1,1.6c-9,0.3-18.1,0.4-27.1,0.7c0,0,0-0.1,0-0.1C97.3,7,91,7.3,84.7,7.7c-2.5,0.1-5,0.3-7.5,0.5
		c-1.9,0.1-3.3,0.7-4.3,2.6C70,16.3,67,21.7,64,27.1C60.7,33,57.5,39,54.1,44.8C51.2,49.9,48,54.9,45.1,60c-2.5,4.4-4.6,9-6.9,13.4
		c-4.4,8.2-8.8,16.3-13.2,24.4c-2.1,3.8-4.4,7.4-6.5,11.2c-3.6,6.4-7,12.8-10.8,19.1c-1.8,2.9-2.2,5.3-0.2,8.4
		c3,4.7,5.2,10,8.2,14.8c5.5,9.1,11.4,18,17,27c3.6,5.9,7,11.9,10.5,17.9c6.3,10.8,12.6,21.5,18.8,32.3c4.1,7.2,8,14.4,11.8,21.7
		c1,1.9,2.1,2.6,4.2,2.5c3.7-0.1,7.4,0.1,11.1,0.2c3.1,0,6.2,0.2,9.4,0.1c8.7-0.3,17.5-0.7,26.2-0.9c12.1-0.3,24.1-0.5,36.2-0.7
		c5.1-0.1,10.3-0.1,15.4-0.2c11.8-0.2,23.7,0.8,35.5-1c0.5-0.1,1-0.1,1.5,0c2.7,0.4,2.7,0.4,4-1.7c0.5-0.8,0.9-1.6,1.3-2.4
		c3.8-7.4,7.6-14.8,11.5-22.2c6.5-12.6,13.1-25.1,19.7-37.7c2.6-4.9,5.1-9.8,7.7-14.7c3.7-7,7.4-14,11.2-21
		c4.2-7.6,8.4-15.1,12.9-22.5C282.6,125.7,282.4,124.1,281.4,122z M99.6,140.7c-3,0.2-7.5-1.3-10.4-0.5c-5.7,1.7-6.1-3.8-6.8-7.9
		c4.6-0.5,12.2,0.6,16.2,0.5C98.7,134.4,99.6,139.2,99.6,140.7z M178.5,137.6c0-1.4,0-4.8,0-6.2c4-1.1,9.5-1,13.9-1.3
		c0.1,1.3,0.3,5.2,0.4,6.4C188.6,137.7,182.5,137.8,178.5,137.6z M174.1,66.5c0.4,23.3-0.9,46.7,0.5,69.9c-1.9,0.7-26.3,0.7-29.7,0
		c2.6-10.1-0.9-18.9-6.5-27.5c1-1.4,1.9-2.9,3-4.3c8.3-10.3,16.6-20.7,25-31c2.1-2.6,4.6-4.9,6.9-7.4
		C173.7,66.3,173.9,66.4,174.1,66.5z M137.8,65.3c11-0.8,21.8-3,33.6-3.4c-1.1,1.3-1.7,2.2-2.4,2.9c-4.8,5.1-9.8,10.1-14.4,15.4
		c-6.3,7.3-12.3,14.9-18.4,22.3c-0.4,0.5-0.9,1-1.5,1.7c-0.8-0.7-1.5-1.2-2.1-1.9c-9.2-11.3-18.5-22.7-28-34.3
		C116,66.8,126.9,66.1,137.8,65.3z M101.6,134c-0.3-4.5-0.5-9-0.7-13.5c-0.5-12.3-0.9-24.7-1.3-37c-0.1-3.8,0-7.6,0-12.1
		c1,0.9,1.5,1.3,1.9,1.8c5.7,7.2,11.3,14.4,17.1,21.5c3.6,4.3,7.5,8.4,11.2,12.6c5,5.8,8.7,12.2,10.3,19.8c0.7,3,0.1,6-0.4,9
		c-0.2,1.3-1.3,1.4-2.3,1.5c-3.9,0.3-7.8,0.7-11.7,0.9c-6.6,0.3-13.2,0.4-19.8,0.6c-1.2,0-2.4,0-3.8,0
		C102,137.1,101.7,135.6,101.6,134z M105.3,185.2c-0.4-6.1-0.8-12.2-1.3-18.3c-0.3-4.2-1-8.4-1.3-12.6c-0.2-3.5,0-7,0-10.7
		c11.9-0.4,23.2-0.8,35-1.2c-10,16.5-19.5,32.6-32.1,46.6C105.5,187.9,105.4,186.5,105.3,185.2z M110.5,192.1
		c8.5-9.5,15.4-19.8,22.2-30.5c11.3,10.8,23.6,19.5,35.8,29C149.1,192.2,130.1,192,110.5,192.1z M175.7,189.8
		c-13.8-11-27.1-21.5-39.7-32.6c2.6-5.1,5-9.9,7.6-15.1c2.9-0.1,6.1-0.3,9.3-0.4c6-0.1,12-0.1,18-0.2c4.4-0.1,4.5-0.1,4.5,4.4
		c0.2,9.8,0.5,19.7,0.6,29.5C176.1,179.9,175.9,184.4,175.7,189.8z"/>
	<g>
		<path d="M75.2,259c-0.6-0.4-0.7-0.4-0.8-0.5c-2.5-2.1-3.4-5-4.7-7.9c-2.9-6.3-6.5-12.2-9.9-18.3c-2.1-3.8-4.3-7.5-6.5-11.2
			c-5.9-10-11.8-20.1-17.8-30.1c-6.3-10.5-12.3-21.2-19-31.5C12,152.6,8.3,145.3,4.4,138c-0.8-1.4-1.4-2.8-3.3-3.3
			c-1.2-0.3-1.5-1.6-0.5-2.7c6.2-7,9-15.9,13.9-23.6C24.1,93.1,32.4,77,40.8,61c2.8-5.3,6.2-10.4,9.1-15.6
			c3.4-5.9,6.8-11.8,9.6-18.1c2.4-5.5,5.6-10.7,8.3-16c1-2,1.8-4,2.8-6.3c3.1-0.2,6.5-0.4,9.8-0.5c15.5-0.4,31-0.8,46.4-1.3
			c10.4-0.3,20.7-1,31-1.3C172,1.3,186.1,0.9,200.2,1c6.4,0,12.6-0.3,18.9-0.9c1.6-0.2,2.5,0.3,3.5,1.7c3.6,5.2,7.3,10.3,11,15.4
			c0.4,0.6,0.7,1.2,1,1.9c2.7,5.2,5.3,10.6,8.3,15.7c3.4,5.9,7,11.7,10.5,17.6c4.9,8.1,9.8,16.1,13.9,24.6c3.1,6.5,6.7,12.8,10,19.3
			c3.7,7.1,7.3,14.3,11,21.4c0.8,1.6,1.8,3.2,2.9,4.5c1.7,2.1,2.4,4.5,1.1,6.9c-2.1,4-4.5,7.8-6.7,11.7c-2.1,3.6-4.1,7.1-6.2,10.7
			c-1.1,1.8-2.3,3.5-3.4,5.3c-3.5,5.8-7.1,11.6-10.6,17.5c-2.1,3.5-4,7.2-5.9,10.8c-3.7,6.8-7.4,13.6-11.1,20.4
			c-2.6,4.9-5.1,9.8-7.7,14.7c-2.3,4.4-4.9,8.8-7.1,13.3c-2.9,6-6.5,11.5-10,17.2c-1,1.6-2,3.2-3.2,4.6c-0.4,0.5-1.4,0.9-2.1,0.9
			c-12.8,0.3-25.7,0.7-38.5,0.9c-16.4,0.3-32.8,0.4-49.2,0.6c-8.7,0.1-17.5,0.5-26.2,0.7C94.6,258.6,84.7,258.8,75.2,259z
			 M103.7,6.8C103.7,6.8,103.7,6.8,103.7,6.8C97.3,7,91,7.3,84.7,7.7c-2.5,0.1-5,0.3-7.5,0.5c-1.9,0.1-3.3,0.7-4.3,2.6
			C70,16.3,67,21.7,64,27.1C60.7,33,57.5,39,54.1,44.8C51.2,49.9,48,54.9,45.1,60c-2.5,4.4-4.6,9-6.9,13.4
			c-4.4,8.2-8.8,16.3-13.2,24.4c-2.1,3.8-4.4,7.4-6.5,11.2c-3.6,6.4-7,12.8-10.8,19.1c-1.8,2.9-2.2,5.3-0.2,8.4
			c3,4.7,5.2,10,8.2,14.8c5.5,9.1,11.4,18,17,27c3.6,5.9,7,11.9,10.5,17.9c6.3,10.8,12.6,21.5,18.8,32.3c4.1,7.2,8,14.4,11.8,21.7
			c1,1.9,2.1,2.6,4.2,2.5c3.7-0.1,7.4,0.1,11.1,0.2c3.1,0,6.2,0.2,9.4,0.1c8.7-0.3,17.5-0.7,26.2-0.9c12.1-0.3,24.1-0.5,36.2-0.7
			c5.1-0.1,10.3-0.1,15.4-0.2c11.8-0.2,23.7,0.8,35.5-1c0.5-0.1,1-0.1,1.5,0c2.7,0.4,2.7,0.4,4-1.7c0.5-0.8,0.9-1.6,1.3-2.4
			c3.8-7.4,7.6-14.8,11.5-22.2c6.5-12.6,13.1-25.1,19.7-37.7c2.6-4.9,5.1-9.8,7.7-14.7c3.7-7,7.4-14,11.2-21
			c4.2-7.6,8.4-15.1,12.9-22.5c1.3-2.1,1.1-3.8,0.1-5.9c-4.8-9.1-9.3-18.3-14.1-27.3c-3.7-7.1-7.5-14.2-11.6-21.1
			c-5.2-8.5-10.7-16.8-16.2-25.1c-5-7.6-9.8-15.2-15.1-22.5c-4.5-6.1-8.7-12.3-12.3-18.9c-0.9-1.7-2.2-2.7-4.3-2.7
			c-12.3,0.1-24.5-0.1-36.8,0.2c-13.4,0.3-26.7,1.1-40.1,1.6C121.7,6.5,112.7,6.6,103.7,6.8z"/>
		<path d="M178.4,121.3c4.2,0,8,0,11.9,0c3.1,0,4.4,0.7,4.9,3.9c0.5,3.2,0.7,6.4,0.9,9.6c0.1,1,0,2-0.2,3c-0.5,2.4-2.2,3.3-4.6,3.1
			c-3.3-0.2-6.6-0.1-9.9-0.1c-0.2,0.7-0.5,1.1-0.5,1.6c0.1,8.5,0.2,17.1,0.3,25.6c0,2.4,0.1,4.8,0,7.2c-0.1,2.8-0.5,5.6-0.7,8.4
			c-0.2,2.5-0.3,5-0.4,7.5c-0.2,2.6-0.6,2.9-3.1,2.6c-0.4-0.1-0.8-0.2-1.2-0.1c-5.6,1.6-11.4,0.7-17.1,1.1c-2.9,0.2-5.8,0.5-8.7,0.5
			c-3.9,0.1-7.8,0-11.8,0.1c-8,0.1-16.1,0.2-24.1,0.5c-3.3,0.1-6.5,1-10.2,1.6c-0.4-1.9-2.3-3.6-2.3-6.3c0-5.5-0.1-11.1-0.3-16.6
			c-0.1-2.7-0.2-5.4-0.7-8.1c-1.2-6.4-1.2-12.8-1.2-19.2c0-1.1-0.1-2.2-0.2-3.5c-5.8,0-11.3,0-17.3,0c-0.8-3.5-1.6-7-2.3-10.5
			c-0.3-1.8-0.3-3.6-0.4-5.4c-0.1-2.9,0.2-3.2,3.1-3.6c4.2-0.5,8.4-1,12.5-1.6c0.6-0.1,1.2-0.2,2.1-0.4c0.1-0.9,0.2-1.9,0.2-2.9
			c-0.3-11.3-0.7-22.5-1-33.8c-0.1-4.5-0.1-9-0.2-13.6c0-1.5-0.4-3-0.4-4.5c0-1.1,0.2-2.3,0.4-3.8c2.2,0.1,4,0.3,5.9,0.3
			c2.8,0,5.6-0.1,8.4-0.3c6.8-0.5,13.6-1,20.4-1.6c7-0.6,14-1.2,21-2.2c7.7-1.1,15.4-1.6,23.2-1.6c2,0,3.8,1.8,4,4.3
			c0.2,2,0.2,4,0.2,6c-0.2,16.3-0.4,32.6-0.6,48.8C178.2,118.8,178.3,119.8,178.4,121.3z M99.7,71.3c0,4.5-0.1,8.3,0,12.1
			c0.4,12.3,0.8,24.7,1.3,37c0.2,4.5,0.4,9,0.7,13.5c0.1,1.6,0.4,3.1,0.6,5c1.4,0,2.6,0,3.8,0c6.6-0.2,13.2-0.3,19.8-0.6
			c3.9-0.2,7.8-0.6,11.7-0.9c1-0.1,2.1-0.2,2.3-1.5c0.5-3,1-5.9,0.4-9c-1.6-7.5-5.3-14-10.3-19.8c-3.7-4.2-7.6-8.3-11.2-12.6
			c-5.8-7.1-11.4-14.3-17.1-21.5C101.2,72.6,100.6,72.2,99.7,71.3z M174.1,66.5c-0.2-0.1-0.4-0.2-0.7-0.2c-2.3,2.5-4.8,4.8-6.9,7.4
			c-8.4,10.3-16.7,20.6-25,31c-1.1,1.4-2.1,2.9-3,4.3c5.6,8.6,9,17.3,6.5,27.5c3.4,0.7,27.8,0.7,29.7,0
			C173.2,113.1,174.5,89.8,174.1,66.5z M134.8,104.3c0.6-0.6,1-1.1,1.5-1.7c6.1-7.4,12.1-15,18.4-22.3c4.6-5.3,9.6-10.3,14.4-15.4
			c0.7-0.8,1.3-1.6,2.4-2.9c-11.8,0.4-22.7,2.6-33.6,3.4c-10.9,0.8-21.9,1.5-33,2.7c9.5,11.7,18.7,23,28,34.3
			C133.3,103.1,134.1,103.6,134.8,104.3z M175.7,189.8c0.1-5.4,0.4-9.9,0.3-14.4c-0.1-9.8-0.4-19.7-0.6-29.5
			c-0.1-4.5-0.1-4.5-4.5-4.4c-6,0.2-12,0.1-18,0.2c-3.2,0.1-6.4,0.3-9.3,0.4c-2.6,5.2-5,10-7.6,15.1
			C148.6,168.3,161.9,178.8,175.7,189.8z M102.7,143.6c0,3.8-0.2,7.3,0,10.7c0.3,4.2,0.9,8.4,1.3,12.6c0.5,6.1,0.9,12.2,1.3,18.3
			c0.1,1.3,0.2,2.7,0.3,3.8c12.6-14,22.2-30.1,32.1-46.6C125.8,142.8,114.6,143.2,102.7,143.6z M168.5,190.5
			c-12.2-9.5-24.4-18.2-35.8-29c-6.8,10.7-13.7,21-22.2,30.5C130.1,192,149.1,192.2,168.5,190.5z M97.6,139.1c0-1.4,0-2.6,0-4.3
			c-4.8,0.1-9.4-0.3-14.1,0.2c0.6,4.1,1.2,4.7,4.7,4.5C91.2,139.4,94.2,139.2,97.6,139.1z M179.1,136.4c4.5,0.2,8.6-0.1,12.9-1.4
			c-0.1-1.2-0.2-2.4-0.3-3.7c-4.4,0.2-8.6,0.1-12.5,1.2C179.1,133.9,179.1,135,179.1,136.4z"/>
	</g>
</g>
</svg>
