<?xml version="1.0" encoding="utf-8"?>
<!-- Generator: Adobe Illustrator 15.0.2, SVG Export Plug-In . SVG Version: 6.00 Build 0)  -->
<!DOCTYPE svg PUBLIC "-//W3C//DTD SVG 1.1//EN" "http://www.w3.org/Graphics/SVG/1.1/DTD/svg11.dtd">
<svg version="1.1" id="Layer_1" xmlns="http://www.w3.org/2000/svg" xmlns:xlink="http://www.w3.org/1999/xlink" x="0px" y="0px"
	 viewBox="0 0 250 247.194" enable-background="new 0 0 250 247.194" xml:space="preserve">
<path fill-rule="evenodd" clip-rule="evenodd" d="M2.603,0.293c0.183,0.944,2.125-0.997,3.532,0c-0.139,0.445-0.728,0.675,0,1.673
	c5.522,0.165,11.557-0.428,16.73,0c2.954,0.245,6.176,1.433,10.224,0.93c1.362-0.169,2.665-0.968,4.09-1.115
	c1.577-0.163,3.221,0.16,4.833,0c1.319-0.131,2.521-0.943,3.904-1.116c1.782-0.222,4.064,0.21,6.32,0.186
	c5.848-0.062,12.604-0.083,19.147,0c9.266,0.117,18.886-0.787,26.955,0c1.391,0.136,2.611,0.791,3.904,0.93
	c3.897,0.42,7.833-0.347,11.339,0c1.587,0.157,3.096,0.95,4.647,1.115c7.095,0.755,14.274-0.682,21.378,0
	c1.463,0.141,2.814,0.795,4.275,0.929c7.627,0.702,15.063-0.726,22.121,0c1.617,0.167,3.137,0.96,4.647,1.116
	c2.561,0.263,5.71,0.41,8.179,0c1.25-0.208,1.662-0.914,2.789-1.116c4.032-0.721,8.104,0.544,12.083,0
	c1.066-0.146,2.061-0.792,3.16-0.929c4.639-0.577,9.758,0.041,14.499,0c4.625-0.04,9.5,0.648,13.942,0
	c1.03-0.15,1.896-0.924,2.974-1.115c6.333-1.124,13.046,0.903,19.333,1.301c-0.464,2.23-1.453,5.699-0.186,8.737
	c-0.28,2.349,0.384,4.484,0,6.878c-0.156,0.975-0.782,1.915-0.93,2.974c-0.306,2.21,0.149,4.691,0.186,7.25
	c0.182,12.608,0,25.87,0,38.666c0,5.243-0.667,10.656,0,15.429c0.166,1.187,0.968,2.342,1.116,3.532
	c0.413,3.322-0.298,7.153,0,10.782c0.118,1.441,0.784,2.733,0.929,4.089c0.615,5.774,0,12.899,0,19.147
	c0,6.539,0.766,13.717,0,18.961c-0.146,1.009-0.792,1.971-0.929,2.974c-0.29,2.122,0.235,4.318,0,6.507
	c-0.147,1.361-0.945,2.703-1.116,4.089c-0.255,2.079,0.281,4.24,0,6.321c-0.156,1.157-0.988,2.198-1.115,3.346
	c-0.39,3.524,0.642,7.68,0.187,11.339c-0.171,1.376-0.885,1.844-1.115,3.16c-0.551,3.142,0,7.21,0,10.968
	c0,3.687-0.385,7.688,0,10.782c0.146,1.186,0.94,2.293,1.115,3.532c0.167,1.19-0.196,2.562,0,3.718
	c0.156,0.919,0.785,1.707,0.929,2.603c0.338,2.091-0.271,4.329,0,6.506c0.15,1.203,0.937,2.282,1.116,3.532
	c0.276,1.928-0.229,4.053,0,5.948c0.143,1.186,0.789,2.222,0.929,3.347c0.47,3.776-0.503,7.093,0,10.596
	c0.279,1.943,1.998,3.896,0.93,6.32c-1.33,0.674-1.4,0.648-2.788,0.186c-4.099,0.18-8.477,1.026-12.827,0.558
	c-1.406-0.151-2.723-0.994-4.089-1.115c-2.264-0.2-4.837,0.485-7.25,0.186c-2.276-0.282-4.31-1.564-7.436-1.115
	c-1.141,0.164-1.63,0.878-2.789,1.115c-1.552,0.318-3.289-0.172-4.833,0c-1.242,0.139-2.475,0.765-3.718,0.93
	c-1.819,0.242-3.714-0.164-5.577,0c-1.503,0.133-2.813,0.922-4.275,1.115c-2.92,0.387-6.39,0-9.666,0
	c-3.143,0-7.724,0.604-10.596-0.186c-3.822-1.052-7.362-2.386-11.34-2.788c-3.327-0.337-6.797,0.365-10.41,0
	c-1.418-0.144-2.737-0.931-4.089-1.115c-2.756-0.377-6.334,0-9.667,0c-3.21,0-6.652-0.305-9.48,0
	c-1.375,0.147-2.582,0.943-3.904,1.115c-4.696,0.609-9.267-0.582-13.942,0c-1.079,0.134-2.097,0.76-3.16,0.929
	c-3.184,0.509-7.737,0.347-11.339,0c-1.265-0.121-2.455-0.774-3.718-0.929c-3.09-0.379-6.253,0.234-9.109,0
	c-1.642-0.135-3.012-0.918-4.461-1.115c-4.875-0.667-10.583,0-15.987,0c-12.135,0-25.43-0.038-37.922,0
	c-2.971,0.009-6.099-0.322-8.737,0.186c-0.963,0.186-1.799,0.782-2.602,0.93c-2.153,0.394-5.004,0-7.622,0
	c-2.217,0-4.586,0.16-6.321-1.115c0.536-1.312,1.266-2.696,1.487-4.09c0.754-4.75,0.721-10.038,0.93-15.243
	c0.217-5.408,0.186-10.925,0.186-16.358c0-5.371-0.812-10.655-0.743-15.802c0.032-2.375,0.179-4.552,0-6.691
	c-0.208-2.485-1.038-4.775-1.301-7.25c-0.449-4.21,0.307-8.567,0.558-12.827c0.711-12.102,3.829-23.938,2.045-36.62
	c-0.3-2.135-1.093-3.977-1.301-6.135c-0.542-5.604,0.086-11.777,0-18.032C1.699,92.257,1.092,79.627,1.673,66.843
	c0.274-6.03-0.107-11.986,0.372-17.474c0.294-3.371,1.603-6.506,1.859-9.667c0.465-5.74-0.186-12.457-0.186-18.961
	c0-7.698,0.149-14.736-1.301-20.634C2.575,0.073,2.592,0.18,2.603,0.293z M236.641,3.64c-0.931,0.055-1.745,0.612-2.788,0.744
	c-1.085,0.136-2.29-0.369-3.16-0.186c-1.104,0.232-1.871,0.98-2.975,1.115c-4.575,0.562-9.542,0-14.313,0
	c-4.626,0-9.729-0.701-14.313,0c-1.001,0.153-2.28,0.972-3.532,1.115c-3.725,0.426-7.681-0.708-11.339-0.186
	c-0.966,0.138-1.865,0.971-2.789,1.115c-2.88,0.45-7.787,0.435-11.153,0c-1.129-0.146-2.177-0.792-3.346-0.93
	c-7.183-0.848-14.83,0.774-21.936,0c-1.52-0.166-2.834-0.95-4.275-1.115c-7.242-0.831-15.15,0.963-22.122,0
	c-1.323-0.183-2.408-0.956-3.904-1.115c-3.378-0.36-7.551,0.383-11.339,0c-1.318-0.133-2.535-0.794-3.718-0.93
	c-3.893-0.446-8.53,0-13.013,0c-8.994,0-17.333,0-26.025,0c-4.307,0-10.866-0.869-13.57,0.186c-2.622,1.023-5.144,0.437-7.808,0.744
	c-1.278,0.147-2.57,0.95-3.904,1.115c-4.333,0.539-7.535-0.816-10.596-1.115c-6.171-0.602-12.327,0.61-18.218-0.186
	c1.126,6.48,0.491,13.33,0.744,20.262c0.194,5.342,0.791,10.734,0.372,15.987c-0.23,2.893-1.351,5.778-1.673,8.737
	c-1.219,11.19-0.558,23.746-0.558,36.249c0,5.872,0.372,12,0.372,18.031c0,6.263-0.643,12.795,0,18.589
	c0.229,2.066,1.008,4.039,1.301,6.135c0.315,2.256,0.448,4.713,0.558,7.063c0.465,9.982-2.01,18.676-2.602,27.513
	c-0.319,4.762-0.976,9.711-0.558,14.313c0.244,2.687,1.311,5.346,1.487,7.808c0.351,4.891-0.094,9.771,0.372,14.686
	c0.465,4.91,0.31,9.7,0.186,14.499c-0.241,9.304,0.223,18.592-1.487,27.513c2.171-0.269,4.167,0.358,6.32,0
	c0.936-0.156,1.797-0.796,2.788-0.93c4.583-0.621,10.346,0,15.987,0c10.593,0,21.484,0,31.974,0c5.623,0,11.247-0.581,15.987,0
	c1.333,0.163,2.617,0.816,3.904,0.93c3.283,0.288,6.346-0.311,9.108,0c1.636,0.184,3.085,0.966,4.647,1.115
	c3.09,0.295,6.783,0.399,9.667,0c1.071-0.148,2.069-0.772,3.16-0.93c4.675-0.672,9.368,0.644,13.942,0
	c1.474-0.207,2.265-0.952,3.532-1.115c3.18-0.41,6.974,0,10.411,0c3.616,0,7.327-0.353,10.409,0c1.14,0.13,2.237,0.756,3.347,0.93
	c3.104,0.485,6.399-0.145,9.666,0c2.418,0.106,5.313,0.996,7.808,1.487c2.431,0.478,5.258,1.673,7.25,1.673
	c5.158,0,11.925,0.612,16.916,0c1.278-0.157,2.462-0.814,3.718-0.93c2.023-0.187,4.224,0.271,6.32,0
	c0.973-0.126,2.011-0.777,3.16-0.93c1.595-0.211,3.496,0.298,5.02,0c0.915-0.179,1.81-0.966,2.788-1.115
	c3.725-0.568,7.009,0.847,9.666,1.115c2.277,0.23,4.702-0.212,6.692,0c1.338,0.143,2.646,0.854,3.904,0.93
	c2.498,0.151,4.916-0.529,7.249-0.743c-0.349,0.271-0.627,0.611-0.929,0.929c2.053-0.299,4.997,0.43,5.763,0.187
	c0.527-1.824-0.724-3.301-0.93-5.02c-0.427-3.553,0.542-7.174,0-10.781c-0.161-1.075-0.971-2.058-1.115-3.16
	c-0.255-1.938,0.273-3.97,0-5.949c-0.147-1.062-0.789-2.076-0.93-3.16c-0.288-2.223,0.368-4.581,0-6.692
	c-0.164-0.942-0.934-1.734-1.115-2.788c-0.195-1.13,0.196-2.622,0-3.903c-0.188-1.228-1.025-2.258-1.115-3.347
	c-0.267-3.203-0.005-7.364,0-11.153c0.004-3.709-0.38-8.081,0.186-11.153c0.171-0.93,0.795-1.854,0.93-2.789
	c0.569-3.963-0.55-7.777,0-11.711c0.149-1.072,0.955-2.344,1.115-3.532c0.271-2.005-0.283-4.1,0-6.134
	c0.164-1.178,0.802-2.38,0.93-3.532c0.267-2.399-0.428-4.584,0-7.063c0.204-1.188,0.915-1.678,1.115-2.975
	c0.815-5.287,0-12.165,0-18.589c0-6.167,0.578-12.875,0-18.589c-0.145-1.429-0.961-2.94-1.115-4.647
	c-0.331-3.663,0.435-7.825,0-10.968c-0.166-1.199-0.813-2.24-0.93-3.532c-0.441-4.904,0-10.167,0-15.429c0-10.106,0-20.879,0-30.858
	c0-5.332-0.507-10.714,0.186-15.243c0.16-1.042,0.785-1.837,0.93-2.789c0.721-4.735-1.106-9.587,0.186-14.127
	C241.251,4.624,238.765,3.513,236.641,3.64z"/>
<path id="" fill-rule="evenodd" clip-rule="evenodd" fill="#E3BA6B" d="M243.519,4.383c-1.292,4.541,0.535,9.393-0.186,14.127
	c-0.145,0.951-0.77,1.747-0.93,2.789c-0.692,4.529-0.186,9.912-0.186,15.243c0,9.979,0,20.752,0,30.858
	c0,5.262-0.441,10.524,0,15.429c0.116,1.292,0.764,2.333,0.93,3.532c0.435,3.143-0.331,7.305,0,10.968
	c0.154,1.707,0.971,3.218,1.115,4.647c0.578,5.714,0,12.422,0,18.589c0,6.424,0.815,13.302,0,18.589
	c-0.2,1.297-0.911,1.786-1.115,2.975c-0.428,2.479,0.267,4.664,0,7.063c-0.128,1.152-0.766,2.354-0.93,3.532
	c-0.283,2.034,0.271,4.129,0,6.134c-0.16,1.188-0.966,2.46-1.115,3.532c-0.55,3.934,0.569,7.748,0,11.711
	c-0.135,0.935-0.759,1.859-0.93,2.789c-0.565,3.072-0.182,7.444-0.186,11.153c-0.005,3.789-0.267,7.95,0,11.153
	c0.09,1.089,0.928,2.119,1.115,3.347c0.196,1.281-0.195,2.773,0,3.903c0.182,1.054,0.951,1.846,1.115,2.788
	c0.368,2.111-0.288,4.47,0,6.692c0.141,1.084,0.782,2.099,0.93,3.16c0.273,1.979-0.255,4.012,0,5.949
	c0.145,1.103,0.954,2.085,1.115,3.16c0.542,3.607-0.427,7.229,0,10.781c0.206,1.719,1.457,3.195,0.93,5.02
	c-0.766,0.243-3.71-0.485-5.763-0.187c0.302-0.317,0.58-0.658,0.929-0.929c-2.333,0.214-4.751,0.895-7.249,0.743
	c-1.259-0.076-2.566-0.787-3.904-0.93c-1.99-0.212-4.415,0.23-6.692,0c-2.657-0.269-5.941-1.684-9.666-1.115
	c-0.979,0.149-1.873,0.937-2.788,1.115c-1.523,0.298-3.425-0.211-5.02,0c-1.149,0.152-2.188,0.804-3.16,0.93
	c-2.097,0.271-4.297-0.187-6.32,0c-1.256,0.115-2.439,0.772-3.718,0.93c-4.991,0.612-11.758,0-16.916,0
	c-1.992,0-4.819-1.195-7.25-1.673c-2.494-0.491-5.39-1.381-7.808-1.487c-3.267-0.145-6.562,0.485-9.666,0
	c-1.109-0.174-2.207-0.8-3.347-0.93c-3.082-0.353-6.793,0-10.409,0c-3.437,0-7.23-0.41-10.411,0
	c-1.267,0.163-2.058,0.908-3.532,1.115c-4.574,0.644-9.267-0.672-13.942,0c-1.091,0.157-2.089,0.781-3.16,0.93
	c-2.883,0.399-6.577,0.295-9.667,0c-1.562-0.149-3.011-0.932-4.647-1.115c-2.763-0.311-5.826,0.288-9.108,0
	c-1.287-0.113-2.571-0.767-3.904-0.93c-4.74-0.581-10.364,0-15.987,0c-10.489,0-21.38,0-31.974,0c-5.641,0-11.404-0.621-15.987,0
	c-0.991,0.134-1.853,0.773-2.788,0.93c-2.153,0.358-4.149-0.269-6.32,0c1.709-8.921,1.246-18.209,1.487-27.513
	c0.125-4.799,0.28-9.589-0.186-14.499c-0.466-4.915-0.021-9.795-0.372-14.686c-0.176-2.462-1.243-5.121-1.487-7.808
	c-0.417-4.603,0.239-9.552,0.558-14.313c0.592-8.837,3.067-17.53,2.602-27.513c-0.109-2.351-0.242-4.808-0.558-7.063
	c-0.293-2.096-1.072-4.068-1.301-6.135c-0.643-5.794,0-12.326,0-18.589c0-6.031-0.372-12.159-0.372-18.031
	c0-12.503-0.662-25.059,0.558-36.249c0.322-2.959,1.442-5.844,1.673-8.737c0.419-5.252-0.177-10.645-0.372-15.987
	C6.998,17.341,7.632,10.491,6.506,4.011c5.891,0.796,12.047-0.416,18.218,0.186c3.061,0.299,6.263,1.654,10.596,1.115
	c1.333-0.166,2.625-0.968,3.904-1.115c2.664-0.307,5.186,0.279,7.808-0.744c2.704-1.055,9.263-0.186,13.57-0.186
	c8.692,0,17.031,0,26.025,0c4.483,0,9.12-0.446,13.013,0c1.183,0.136,2.4,0.796,3.718,0.93c3.788,0.383,7.961-0.36,11.339,0
	c1.496,0.159,2.581,0.933,3.904,1.115c6.972,0.963,14.879-0.831,22.122,0c1.441,0.166,2.756,0.95,4.275,1.115
	c7.105,0.774,14.753-0.848,21.936,0c1.169,0.138,2.217,0.784,3.346,0.93c3.366,0.435,8.273,0.45,11.153,0
	c0.924-0.144,1.823-0.978,2.789-1.115c3.658-0.523,7.614,0.612,11.339,0.186c1.252-0.143,2.531-0.962,3.532-1.115
	c4.584-0.701,9.688,0,14.313,0c4.771,0,9.738,0.562,14.313,0c1.104-0.135,1.87-0.883,2.975-1.115c0.87-0.183,2.075,0.322,3.16,0.186
	c1.043-0.131,1.857-0.688,2.788-0.744C238.765,3.513,241.251,4.624,243.519,4.383z M63.576,37.1
	c-1.949-0.02-4.256,2.728-5.391,4.647c-1.903,3.217-4.638,12.643-5.019,17.288c-0.441,5.369,1.669,10.459,3.904,12.827
	c1.191,1.261,2.85,1.97,4.461,2.788c-1.249,1.106-1.596,3.114-2.231,4.833c-1.008-0.141-0.988,0.747-1.673,0.929
	c-1.562,3.891-4.343,6.563-5.391,10.968c-2.506,1.473-2.788,4.162-3.903,7.064c-1.026,2.667-2.576,5.16-3.532,7.808
	c-0.532,1.474-1.246,2.804-1.673,4.089c-0.683,2.055-0.604,4.128-1.487,6.135c-0.806,1.831-1.705,3.299-2.974,4.833
	c-1.789-0.628-4.073-0.76-6.135-1.115c-2.043,2.33-3.228,6.39-3.16,10.224c2.889,0.892,5.358,2.202,8.737,2.603
	c2.968-1.62,2.808-7.14,3.16-10.781c1.847-2.414,2.934-5.711,4.461-8.365c0.486-0.845,1.166-1.669,1.673-2.603
	c1.306-2.404,1.784-5.271,2.974-7.808c0.772-1.645,1.834-3.306,2.603-5.019c0.777-1.733,1.07-3.858,2.603-4.833
	c-2.199,6.369-2.745,13.186-4.833,19.705c-0.758,2.365-1.793,4.79-2.417,7.25c-0.616,2.429-0.607,5.063-1.301,7.436
	c-0.395,1.348-1.292,2.533-1.673,3.903c-0.604,2.172-0.641,4.58-1.115,6.878c-1.37,6.636-2.941,13.215-4.09,20.076
	c0.371,0.798,1.156,1.347,1.487,1.674c5.287,2.148,14.008,0.863,20.634,1.673c1.094,10.067,1.02,21.636,1.859,30.301
	c-1.965-0.646-2.881,1.01-3.346,2.416c-1.899-0.227-3.938,0.979-5.949,1.115c-2.132,0.145-4.82-0.735-5.763,1.487
	c-0.803,2.494,1.042,4.54,0.558,7.064c4.005,2.113,10.563,1.498,15.615,0.743c3.58-0.968,3.054-6.571,1.673-9.666
	c2.301-1.564,1.017-7.063,0.744-9.48c-0.489-4.326,0.111-9.595-0.186-13.57c-0.256-3.444-1.174-6.852,0-9.853
	c5.711,0.3,10.66,1.361,16.544,1.487c-0.928,5.622,1.21,10.627,1.673,16.73c0.289,3.811-0.371,7.622,0.929,9.852
	c-1.727,4.429,0.91,8.888,1.301,13.013c0.905,0.272,2.047,0.308,2.789,0.744c1.44-0.266,2.42-0.86,3.718-1.302
	c1.36-0.462,2.922-0.206,4.275-0.743c2.018-0.801,2.427-3.74,2.603-6.507c0.099-1.557-0.438-3.209-0.186-4.833
	c-3.637-1.817-6.91,0.787-10.596,1.115c-0.051-5.737,0.383-11.048-0.186-15.986c-0.467-4.056-2.274-7.761-2.045-12.083
	c7.158-0.277,15.7,0.828,20.634-1.673c-0.104-3.207,0.743-6.204,0-9.481c-0.222-0.979-0.815-1.969-1.115-2.974
	c-1.255-4.202-2.198-8.185-2.789-13.013c-0.34-2.783-1.697-5.403-2.602-8.18c-1.868-5.726-3.542-11.965-5.205-17.474
	c-1.029-3.408-2.597-6.634-2.975-10.224c3.903,2.061,6.09,5.882,9.295,9.108c1.494,1.504,3.599,2.445,5.205,3.904
	c1.602,1.455,3.577,2.875,4.833,4.461c0.619,0.782,0.898,1.864,1.487,2.603c2.501,3.139,6.163,5.594,8.737,8.365
	c-1.879,2.896-4.117,6.412-5.763,8.923c3.876-0.014,5.237,2.953,7.808,4.09c1.146,0.506,3.33,1.291,4.461,1.115
	c2.806-0.438,2.646-4.819,4.461-6.692c2.224,1.681,4.115,3.692,5.392,6.32c4.989,2.657,8.591-0.446,10.038-4.275
	c-0.585-2.08-2.1-3.229-3.16-4.833c2.173-1.781,5.056-3.082,6.878-5.205c1.337-1.558,2.336-3.461,3.718-5.02
	c1.438-1.622,3.078-3.153,3.532-5.391c-1.689,0.14-2.426-0.673-3.904-0.744c-2.037,2.316-4.435,5.197-6.32,7.622
	c-0.694,0.893-1.19,1.975-1.858,2.788c-1.36,1.657-3.715,2.789-3.532,5.205c-2.962-1.141-5.825-3.407-8.737-0.743
	c-3.187-1.089-5.609-2.941-9.294-3.532c-1.91-2.918-4.818-4.911-7.064-7.25c-1.155-1.203-1.812-2.77-2.974-4.09
	c-2.493-2.831-5.864-4.813-8.737-7.25c-1.805-1.531-3.593-3.642-5.02-5.391c-1.6-1.962-3.391-3.589-5.019-5.391
	c-4.06-4.495-5.2-12.169-10.038-15.986c-0.603-1.566-0.833-3.505-1.859-4.647c7.62-3.24,15.279-7.863,13.384-19.705
	c-0.858-5.363-3.613-10.555-6.32-13.756c-1.264-1.494-3.414-3.372-5.205-4.647c-3.785-2.694-7.478-4.713-12.083-4.647
	 M63.589,37.782 M76.03,51.6c0.087,2.318-0.816,1.415-0.558,3.904c1.138,0.473,2.628,0.594,3.904,0.93
	c1.627-1.223,1.317-2.153,1.487-4.833C79.43,51.628,77.084,49.915,76.03,51.6z M68.595,54.388c0.729,0.448,1.792,0.562,2.788,0.744
	c0.867-0.643,1.412-2.099,0.93-3.532C69.846,50.45,68.617,52.068,68.595,54.388z M176.048,94.182l-6.514-2.243
	c-3.252-1.401-6.07,0.425-8.365,2.417c-3.765,3.266-6.703,10.215-5.763,16.544c0.794,5.348,5.318,6.79,9.294,9.295
	c-0.265,0.603-0.166,1.569-0.558,2.045c-0.304,4.867-2.628,9.395-2.974,14.871c-0.701,11.104-4.117,21.326-3.904,31.416
	c3.663,1.173,8.63,1.327,13.385,1.858c-0.86,2.492-0.108,4.82,0,7.437c0.042,1.018-0.227,2.147-0.187,3.16
	c0.115,2.862,0.849,6.024-0.558,8.179c-2.616,0.185-7.349-1.487-9.294-0.558c-1.488,0.711-0.524,2.117-0.372,3.532
	c0.258,2.392-0.207,4.176-0.744,5.948c3.637,1.135,7.784,1.759,11.897,2.417c2.925-1.688,3.271-5.96,2.23-9.667
	c-0.194-0.691-0.838-1.19-0.929-1.858c-0.148-1.08,0.446-2.512,0.558-3.904c0.172-2.164-0.243-4.699,0-6.506
	c0.302-2.254,1.377-5.621,1.486-7.993c1.969,0.634,5.188,0.018,7.064,0.743c0.015,6.926,0.356,13.523,2.045,18.775
	c0.729,0.633,1.171,1.556,2.23,1.858c-1.982,0.806-1.382,4.195-2.603,5.763c3.091,0.897,6.854,3.125,10.038,2.417
	c3.482-0.774,4.172-5.035,5.02-8.737c-3.174-0.898-7.121-2.432-10.968-1.486c-0.449-5.475-1.695-13.205-1.302-18.962
	c6.841-0.78,13.1-2.144,16.73-6.134c1.041,0.27,1.16-0.134,1.859-0.558c0.51-3.148-0.872-6.054-1.487-7.808
	c-0.83-2.366-1.332-4.626-2.23-6.692c-3.61-8.299-9.419-16.172-13.385-23.422c6.187,3.604,12.1,7.481,16.545,12.826
	c-1.272,1.443-1.374,4.876-1.673,6.692c2.096,0.931,4.951,1.729,7.436,1.115c0.334-1.174-0.741-2.325-0.372-3.532
	c0.341-1.114,1.59-0.606,1.673-1.858c-1.003-1.538-2.812-2.269-4.833-2.789c-2.458-1.68-3.041-4.766-5.205-6.692
	c-1.079-0.96-2.467-1.381-3.718-2.23c-4.363-2.963-9.4-6.027-13.013-9.294c-0.075-1.225-0.915-1.687-1.673-2.23
	c3.485-2.995,6.946-7.509,5.948-14.128c-0.566-3.761-3.94-5.856-5.576-8.551c-1.893-0.803-5.756-2.984-7.558-1.219 M169.535,91.938
	 M173.066,104.394c1.442,1.634,5.999,1.865,6.32-0.93C177.976,101.434,173.211,101.135,173.066,104.394z M167.303,103.65
	c0.277,0.697,0.427,0.682,0,1.301c1.459,0.771,4.904,1.438,4.647-1.301C170.827,102.815,168.156,102.194,167.303,103.65z"/>
<polygon id="" fill-rule="evenodd" clip-rule="evenodd" fill="#E3BA6B" points="68.099,138.894 73.676,133.393 87.68,138.163
	80.616,142.377 75.906,144.112 "/>
<polygon id="" fill-rule="evenodd" clip-rule="evenodd" fill="#E3BA6B" points="174.677,158.2 178.395,154.77 186.264,156.485
	183.294,160.842 "/>
<path fill-rule="evenodd" clip-rule="evenodd" d="M86.812,79.298c1.026,1.143,1.256,3.081,1.859,4.647
	c4.838,3.817,5.978,11.492,10.038,15.986c1.628,1.802,3.419,3.429,5.019,5.391c1.427,1.749,3.214,3.86,5.02,5.391
	c2.873,2.436,6.244,4.419,8.737,7.25c1.162,1.32,1.819,2.887,2.974,4.09c2.246,2.338,5.154,4.332,7.064,7.25
	c3.685,0.591,6.108,2.443,9.294,3.532c2.912-2.664,5.775-0.397,8.737,0.743c-0.183-2.416,2.172-3.548,3.532-5.205
	c0.668-0.813,1.164-1.896,1.858-2.788c1.886-2.424,4.283-5.305,6.32-7.622c1.479,0.071,2.215,0.883,3.904,0.744
	c-0.454,2.238-2.095,3.769-3.532,5.391c-1.382,1.559-2.381,3.462-3.718,5.02c-1.822,2.123-4.705,3.424-6.878,5.205
	c1.061,1.604,2.575,2.753,3.16,4.833c-1.447,3.829-5.049,6.933-10.038,4.275c-1.276-2.628-3.168-4.64-5.392-6.32
	c-1.814,1.873-1.655,6.255-4.461,6.692c-1.132,0.176-3.315-0.609-4.461-1.115c-2.571-1.137-3.931-4.104-7.808-4.09
	c1.646-2.511,3.884-6.027,5.763-8.923c-2.574-2.771-6.236-5.227-8.737-8.365c-0.589-0.739-0.869-1.821-1.487-2.603
	c-1.256-1.586-3.231-3.007-4.833-4.461c-1.606-1.459-3.711-2.4-5.205-3.904c-3.205-3.227-5.392-7.048-9.295-9.108
	c0.378,3.589,1.945,6.816,2.975,10.224c1.664,5.509,3.337,11.748,5.205,17.474c0.905,2.776,2.262,5.396,2.602,8.18
	c0.59,4.828,1.534,8.811,2.789,13.013c0.3,1.005,0.894,1.995,1.115,2.974c0.743,3.277-0.104,6.274,0,9.481
	c-4.934,2.501-13.476,1.396-20.634,1.673c-0.229,4.322,1.578,8.027,2.045,12.083c0.568,4.938,0.134,10.249,0.186,15.986
	c3.686-0.328,6.959-2.933,10.596-1.115c-0.253,1.624,0.285,3.276,0.186,4.833c-0.176,2.767-0.584,5.706-2.603,6.507
	c-1.353,0.537-2.915,0.281-4.275,0.743c-1.297,0.441-2.278,1.036-3.718,1.302c-0.742-0.437-1.883-0.472-2.789-0.744
	c-0.391-4.125-3.028-8.584-1.301-13.013c-1.3-2.229-0.64-6.041-0.929-9.852c-0.463-6.104-2.602-11.108-1.673-16.73
	c-5.885-0.126-10.833-1.188-16.544-1.487c-1.174,3.001-0.256,6.408,0,9.853c0.297,3.976-0.303,9.244,0.186,13.57
	c0.273,2.417,1.558,7.916-0.744,9.48c1.381,3.095,1.907,8.698-1.673,9.666c-5.052,0.755-11.61,1.37-15.615-0.743
	c0.485-2.524-1.36-4.57-0.558-7.064c0.942-2.223,3.63-1.343,5.763-1.487c2.01-0.137,4.049-1.342,5.949-1.115
	c0.465-1.406,1.381-3.062,3.346-2.416c-0.839-8.665-0.765-20.233-1.859-30.301c-6.626-0.81-15.348,0.476-20.634-1.673
	c-0.331-0.327-1.117-0.876-1.487-1.674c1.149-6.861,2.72-13.44,4.09-20.076c0.474-2.298,0.511-4.706,1.115-6.878
	c0.381-1.37,1.279-2.556,1.673-3.903c0.694-2.373,0.686-5.007,1.301-7.436c0.623-2.459,1.659-4.885,2.417-7.25
	c2.088-6.52,2.634-13.336,4.833-19.705c-1.533,0.975-1.826,3.1-2.603,4.833c-0.768,1.713-1.83,3.375-2.603,5.019
	c-1.19,2.536-1.668,5.403-2.974,7.808c-0.507,0.933-1.187,1.757-1.673,2.603c-1.528,2.654-2.614,5.951-4.461,8.365
	c-0.352,3.642-0.192,9.161-3.16,10.781c-3.379-0.4-5.848-1.711-8.737-2.603c-0.067-3.834,1.117-7.894,3.16-10.224
	c2.062,0.355,4.346,0.487,6.135,1.115c1.269-1.534,2.168-3.002,2.974-4.833c0.883-2.007,0.805-4.08,1.487-6.135
	c0.427-1.285,1.141-2.616,1.673-4.089c0.957-2.648,2.506-5.141,3.532-7.808c1.116-2.902,1.397-5.591,3.903-7.064
	c1.048-4.405,3.829-7.077,5.391-10.968c0.685-0.183,0.665-1.07,1.673-0.929c0.635-1.719,0.982-3.728,2.231-4.833
	c-1.611-0.818-3.271-1.527-4.461-2.788c-2.235-2.367-4.345-7.458-3.904-12.827c0.381-4.646,3.116-14.071,5.019-17.288
	c1.135-1.919,3.442-4.667,5.391-4.647c0.194,3.473-1.589,6.854-2.603,10.596c-1.463,5.398-3.508,11.844-1.116,17.66
	c0.828,2.012,2.437,4.771,4.09,6.134c1.148,0.946,3.16,1.662,4.647,2.603c0.984,0.623,1.59,1.552,2.23,1.859
	c6.115,2.929,14.545-0.012,18.403-3.346c1.35-1.166,3.288-3.458,3.718-5.391c0.437-1.961,0.31-4.801,0.186-6.506
	c-0.375-5.179-3.555-11.208-6.32-14.5c-2.989-3.558-7.316-5.961-10.968-8.179c0.365-0.786,0.361-0.786,0.744-1.487
	c4.605-0.066,8.298,1.954,12.083,4.647c1.792,1.275,3.941,3.153,5.205,4.647c2.708,3.202,5.462,8.393,6.32,13.756
	C102.091,71.435,94.432,76.058,86.812,79.298z M60.787,93.426c-0.776,4.082-2.144,7.893-2.974,11.897
	c-0.568,2.737-0.736,5.497-1.301,8.179c-0.531,2.52-1.606,4.894-2.231,7.436c-3.121,12.705-6.011,25.337-8.923,38.294
	c18.995-1.503,36.481,4.147,56.511,1.673c2.011-0.248,3.104-1.306,4.833-0.929c1.034-3.343-0.649-6.477-0.93-9.667
	c-3.355-4.297-3.31-10.06-5.391-15.243c-0.478-1.19-1.286-2.36-1.859-3.532c-1.274-2.604-2.285-5.243-3.346-7.807
	c-1.164-2.812-2.057-5.648-2.974-8.18c-3.637-10.034-6.392-20.917-9.295-31.416c-6.832,2.75-15.26-1.211-20.076-3.718
	C62.366,84.525,61.579,89.259,60.787,93.426z M32.903,129.675c0.611,0.504,1.621,0.61,2.603,0.743
	c1.28-2.313,2.444-4.743,2.974-7.807c-0.953-0.596-2.463-0.635-3.904-0.744C34.789,124.503,32.595,126.976,32.903,129.675z
	 M127.151,131.348c-1.288,2.307-2.883,4.306-4.276,6.506c2.501,0.04,3.65,1.432,5.391,2.231c0.568-3.088,2.526-4.786,4.275-6.692
	C130.482,132.974,129.273,131.704,127.151,131.348z M139.606,136.367c1.38,0.785,3.445,4.318,4.461,4.275
	c0.457-0.02,0.408-0.572,0.744-0.93c1.937-2.063-2.129-5.223-4.09-6.32c-0.761,0.912-2.3,1.047-2.789,2.23
	C138.404,136.602,138.867,135.946,139.606,136.367z M90.344,193.808c-0.288,3.447,0.899,5.422,1.301,8.18
	c1.537-0.508,3.2-0.891,5.02-1.115c0.031-2.458,1.19-5.736,0.186-7.994C94.667,193.837,93.062,193.98,90.344,193.808z
	 M61.716,196.41c-2.712,0.51-4.731,1.713-7.993,1.673c-0.573,1.899,0.228,3.968,0.372,5.763c3.303,0.267,5.312-0.761,8.18-0.93
	C62.879,200.649,62.152,198.242,61.716,196.41z"/>
<path fill-rule="evenodd" clip-rule="evenodd" d="M80.863,51.6c-0.17,2.681,0.14,3.61-1.487,4.833
	c-1.276-0.335-2.766-0.457-3.904-0.93c-0.258-2.489,0.645-1.586,0.558-3.904C77.084,49.915,79.43,51.628,80.863,51.6z"/>
<path fill-rule="evenodd" clip-rule="evenodd" d="M72.312,51.6c0.482,1.433-0.063,2.89-0.93,3.532
	c-0.996-0.182-2.059-0.295-2.788-0.744C68.617,52.068,69.846,50.45,72.312,51.6z"/>
<path fill-rule="evenodd" clip-rule="evenodd" d="M169.535,91.938c-3.218,2.601-8.059,5.54-9.295,10.224
	c-0.673,2.547-0.612,6.084-0.187,8.365c0.588,3.145,2.033,4.416,4.462,6.134c2.271,1.607,4.291,2.897,8.365,2.603
	c7.168-0.519,14.164-6.082,13.013-14.5c-0.622-4.545-5.905-9.019-10.41-10.038c1.667-2.272,5.822,0.087,7.808,0.929
	c1.636,2.695,5.01,4.79,5.576,8.551c0.998,6.619-2.463,11.133-5.948,14.128c0.758,0.543,1.598,1.005,1.673,2.23
	c3.612,3.267,8.649,6.332,13.013,9.294c1.251,0.85,2.639,1.271,3.718,2.23c2.164,1.927,2.747,5.013,5.205,6.692
	c2.021,0.521,3.83,1.251,4.833,2.789c-0.083,1.252-1.332,0.744-1.673,1.858c-0.369,1.207,0.706,2.358,0.372,3.532
	c-2.484,0.614-5.34-0.185-7.436-1.115c0.299-1.816,0.4-5.249,1.673-6.692c-4.445-5.345-10.358-9.223-16.545-12.826
	c3.966,7.25,9.774,15.123,13.385,23.422c0.898,2.066,1.4,4.326,2.23,6.692c0.615,1.754,1.997,4.659,1.487,7.808
	c-0.699,0.424-0.818,0.827-1.859,0.558c-3.631,3.99-9.89,5.354-16.73,6.134c-0.394,5.757,0.853,13.487,1.302,18.962
	c3.847-0.945,7.794,0.588,10.968,1.486c-0.848,3.702-1.537,7.963-5.02,8.737c-3.184,0.708-6.947-1.52-10.038-2.417
	c1.221-1.567,0.62-4.957,2.603-5.763c-1.06-0.303-1.501-1.226-2.23-1.858c-1.688-5.252-2.03-11.85-2.045-18.775
	c-1.877-0.726-5.096-0.109-7.064-0.743c-0.109,2.372-1.185,5.739-1.486,7.993c-0.243,1.807,0.172,4.342,0,6.506
	c-0.111,1.393-0.706,2.824-0.558,3.904c0.091,0.668,0.734,1.167,0.929,1.858c1.041,3.707,0.694,7.979-2.23,9.667
	c-4.113-0.658-8.261-1.282-11.897-2.417c0.537-1.772,1.002-3.557,0.744-5.948c-0.152-1.415-1.116-2.821,0.372-3.532
	c1.945-0.93,6.678,0.742,9.294,0.558c1.406-2.154,0.673-5.316,0.558-8.179c-0.04-1.013,0.229-2.143,0.187-3.16
	c-0.108-2.616-0.86-4.944,0-7.437c-4.755-0.531-9.722-0.686-13.385-1.858c-0.213-10.09,3.203-20.312,3.904-31.416
	c0.346-5.477,2.67-10.004,2.974-14.871c0.392-0.476,0.293-1.442,0.558-2.045c-3.976-2.505-8.5-3.947-9.294-9.295
	c-0.94-6.33,1.998-13.278,5.763-16.544C163.464,92.363,166.283,90.537,169.535,91.938z M177.528,168.154
	c2.688,0.207,4.908,0.578,7.621,0.187c7.409-1.072,12.816-3.098,15.43-7.622c0.272-1.61-0.97-2.95-1.487-4.275
	c-2.627-6.718-5.125-12.491-8.551-18.218c-1.089-1.82-2.62-3.479-3.718-5.391c-1.917-3.334-4.636-6.116-5.02-10.596
	c-0.187,0-0.222-0.151-0.372-0.186c-2.214,2.706-8.026,4.326-12.269,2.231c-1.313,4.927-2.74,10.012-3.904,15.429
	c-1.993,9.281-2.801,19.542-5.763,27.326C165.059,167.851,171.497,167.689,177.528,168.154z M206.899,145.661
	c0.567-0.134,0.677,0.19,1.115,0.187c0.534-1.263,0.142-3.452,1.115-4.275c-0.52-0.348-1.278-0.458-1.859-0.744
	C207.167,142.063,207.469,144.385,206.899,145.661z M164.33,196.968c1.342,0.145,2.216,0.758,3.718,0.743
	c0.751-1.975,0.464-4.988,0.93-7.249c-1.645-0.091-2.914-0.557-4.834-0.372C164.647,191.925,164.64,194.896,164.33,196.968z
	 M187.38,191.391c-0.137,0.483-0.753,0.487-1.116,0.744c1.12,0.903,0.215,3.152,0.372,5.019c4.945,1.972,7.557-1.399,8.18-5.391
	C192.382,190.574,189.935,192.214,187.38,191.391z"/>
<path fill-rule="evenodd" clip-rule="evenodd" d="M179.386,103.464c-0.321,2.795-4.878,2.564-6.32,0.93
	C173.211,101.135,177.976,101.434,179.386,103.464z"/>
<path fill-rule="evenodd" clip-rule="evenodd" d="M171.951,103.65c0.257,2.739-3.188,2.073-4.647,1.301
	c0.427-0.619,0.277-0.604,0-1.301C168.156,102.194,170.827,102.815,171.951,103.65z"/>
<path fill-rule="evenodd" clip-rule="evenodd" fill="#FFFFFF" d="M34.576,121.867c1.44,0.109,2.951,0.147,3.904,0.744
	c-0.53,3.064-1.694,5.494-2.974,7.807c-0.982-0.133-1.991-0.239-2.603-0.743C32.595,126.976,34.789,124.503,34.576,121.867z"/>
<path fill-rule="evenodd" clip-rule="evenodd" fill="#FFFFFF" d="M132.542,133.393c-1.75,1.906-3.708,3.604-4.275,6.692
	c-1.741-0.8-2.89-2.191-5.391-2.231c1.393-2.2,2.988-4.199,4.276-6.506C129.273,131.704,130.482,132.974,132.542,133.393z"/>
<path fill-rule="evenodd" clip-rule="evenodd" d="M90.158,138.598c-0.929,2.16-3.946,2.549-6.135,3.532
	c-0.905,0.406-2.252,0.82-3.346,1.486c-1.034,0.631-2.1,1.771-2.975,1.859c-3.482,0.354-7.216-3.633-9.666-4.833
	c-1.06-0.52-2.097-0.237-2.975-1.115c1.759-2.813,5.058-5.027,7.622-7.064c0.932-0.739,3.924,1.112,4.461,1.302
	C81.315,135.229,87.36,136.07,90.158,138.598z M74.729,134.693c-1.423,1.683-4.224,2.954-4.833,4.834
	c2.84,0.381,3.942,2.501,6.32,3.346c2.672-1.789,5.759-3.163,8.923-4.461C81.959,136.883,78.5,135.633,74.729,134.693z"/>
<path fill-rule="evenodd" clip-rule="evenodd" fill="#FFFFFF" d="M137.932,135.623c0.489-1.184,2.028-1.318,2.789-2.23
	c1.961,1.098,6.026,4.257,4.09,6.32c-0.336,0.357-0.287,0.91-0.744,0.93c-1.016,0.043-3.081-3.49-4.461-4.275
	C138.867,135.946,138.404,136.602,137.932,135.623z"/>
<path fill-rule="evenodd" clip-rule="evenodd" fill="#FFFFFF" d="M207.27,140.828c0.581,0.286,1.34,0.396,1.859,0.744
	c-0.974,0.823-0.581,3.013-1.115,4.275c-0.438,0.004-0.548-0.32-1.115-0.187C207.469,144.385,207.167,142.063,207.27,140.828z"/>
<path fill-rule="evenodd" clip-rule="evenodd" d="M188.309,156.815c-0.141,1.603-1.982,1.809-2.788,2.788
	c-0.789,0.96-0.825,2.395-2.045,2.975c-4.146-1.122-7.38-3.154-11.525-4.276c1.642-1.572,4.165-3.416,6.32-4.461
	c0.062-0.029,0.305-0.015,0.372,0C181.533,154.468,185.599,155.375,188.309,156.815z M179.944,155.699
	c-1.117,0.804-2.247,1.595-3.346,2.417c1.851,0.194,2.98,1.109,4.647,1.487c0.792-1.005,1.835-1.759,2.603-2.788
	C182.417,156.573,181.268,156.049,179.944,155.699z"/>
<path fill-rule="evenodd" clip-rule="evenodd" fill="#FFFFFF" d="M164.143,190.09c1.92-0.185,3.189,0.281,4.834,0.372
	c-0.466,2.261-0.179,5.274-0.93,7.249c-1.502,0.015-2.376-0.599-3.718-0.743C164.64,194.896,164.647,191.925,164.143,190.09z"/>
<path fill-rule="evenodd" clip-rule="evenodd" fill="#FFFFFF" d="M194.816,191.763c-0.623,3.991-3.234,7.362-8.18,5.391
	c-0.157-1.866,0.748-4.115-0.372-5.019c0.363-0.257,0.979-0.261,1.116-0.744C189.935,192.214,192.382,190.574,194.816,191.763z"/>
<path fill-rule="evenodd" clip-rule="evenodd" fill="#FFFFFF" d="M96.85,192.878c1.004,2.258-0.154,5.536-0.186,7.994
	c-1.82,0.225-3.482,0.607-5.02,1.115c-0.402-2.758-1.588-4.732-1.301-8.18C93.062,193.98,94.667,193.837,96.85,192.878z"/>
<path fill-rule="evenodd" clip-rule="evenodd" fill="#FFFFFF" d="M62.274,202.916c-2.868,0.169-4.877,1.196-8.18,0.93
	c-0.144-1.795-0.945-3.863-0.372-5.763c3.262,0.04,5.281-1.163,7.993-1.673C62.152,198.242,62.879,200.649,62.274,202.916z"/>
</svg>
