<?xml version="1.0" encoding="utf-8"?>
<!-- Generator: Adobe Illustrator 19.1.0, SVG Export Plug-In . SVG Version: 6.00 Build 0)  -->
<svg version="1.1" id="Calque_1" xmlns="http://www.w3.org/2000/svg" xmlns:xlink="http://www.w3.org/1999/xlink" x="0px" y="0px"
	 viewBox="0 0 234.2 303.5" style="enable-background:new 0 0 234.2 303.5;" xml:space="preserve">
<style type="text/css">
	.st0{fill:#72B52B;}
	.st1{fill:#71519B;}
	.st2{fill:#C0BFBF;}
	.st3{fill:#EDE5F2;}
	.st4{fill:none;stroke:#72B52B;stroke-width:4;stroke-linecap:round;stroke-miterlimit:10;}
	.st5{fill:none;stroke:#71519B;stroke-width:4;stroke-linecap:round;stroke-miterlimit:10;}
	.st6{fill:#6EA1C1;}
	.st7{fill:#BFBEBE;}
	.st8{fill:#55358A;}
	.st9{fill:#FFFFFF;}
	.st10{fill:#FFFFFF;stroke:#71519B;stroke-width:3;stroke-miterlimit:10;}
	.st11{fill:#FFFFFF;stroke:#72B52B;stroke-width:3;stroke-miterlimit:10;}
	.st12{fill:none;stroke:#FFFFFF;stroke-width:3;stroke-miterlimit:10;}
	.st13{fill:#F2BF00;}
</style>
<g>
	<g>
		<path d="M234.2,254.7c-0.2-4.9-0.5-9.7-0.7-14.6c-0.3-7.1-0.7-14.3-0.7-21.4c0-7.2,0.2-14.5,0.4-21.7c0.1-4.5,0.6-8.9,0.7-13.4
			c0.1-3.9-0.1-7.7-0.3-11.6c-0.3-8.6-0.7-17.2-1.1-25.9c-0.2-3.8-0.6-7.7-0.8-11.5c-0.3-4.7-0.8-9.5-0.9-14.2
			c-0.2-7.8-0.1-15.7-0.3-23.5c-0.2-7.6-0.6-15.2-1-22.9c-0.4-7-0.9-13.9-1.6-20.9c-0.8-8.6-1.9-17.1-2.9-25.7
			c-0.5-4.2-1.6-8.2-6.7-9.1c-1.5-0.3-3-0.2-4.5-0.4c-3.8-0.5-7.7-0.2-11.3-1.4c-0.3-1.6-0.4-2.8-0.7-4.1c-1.3-6.8-9.6-11-16-8.3
			c-5.1,2.2-9.8,5-13.4,9.4c-0.9,1.1-2.4,2.3-3.6,2.3c-5,0.1-10-0.2-15-0.3c-0.1-1.3,0.1-2.4-0.3-3.2c-0.9-2-2.5-5.1-5.1-6.5
			s-8.1-1.8-12.9,1.3c-2.6,1.7-5.2,3.5-7.5,5.5c-1.7,1.5-3.4,2-5.5,1.7c-3.1-0.4-6.1-0.7-9.5-1c0-0.5,0-1.1,0-1.7
			c0.4-4.6-1.6-7.5-5.8-9.2c-4.7-1.9-8.5,0-12.4,2.2c-3.4,2-6.2,4.7-8.5,7.8c-1.5,2-3.4,2.4-5.5,2.4c-4.2,0-8.4-0.2-12.9-0.3
			c1.2-4.3,0.9-8-2.5-11.1c-3.4-3-8.6-4.3-12.5-2.8c-4.9,1.8-8.7,5.3-12.5,8.6c-4.5,4-9,7.9-15.6,7.3c-0.4,0-0.7,0.1-1.1,0.1
			c-3.3,0-5.9,1-6,4.9c-2.3,0.4-4.4,0.5-6.4,1c-2.7,0.7-2.2,3.2-2,5.2c-2.5,0.4-4.7,0.8-7.1,1.3c-0.7,1.1-1.4,2-1.8,3.1
			c-0.3,0.7-0.5,1.6-0.4,2.4c0.4,6.1,1,12.2,1.2,18.3C1.3,58.5,0.8,64.2,0.6,70C0.4,75.6,0.2,81.2,0,86.8c0,1,0.1,2,0.2,3
			c0.2,1.6,0.5,3.2,0.5,4.9c0.1,7.8,0.1,15.5,0.1,23.3c0,5.4-0.2,10.7-0.1,16.1c0,2.7,0.6,5.5,0.7,8.2c0.2,4.6,0.4,9.2,0.4,13.9
			c0.2,15.5,0.5,31,0.2,46.5c-0.1,4.9,1,30.7,1.6,37.6c0.4,5.6,0.7,11.2,0.7,16.9c0,5.9-0.3,11.8-0.6,17.6c-0.2,4.5-0.7,9-0.9,13.5
			c-0.1,2.7,1.1,4.7,3.6,6.1c2.3,1.3,4.7,2.3,7.4,2.4c3.3,0.2,6.5,0,9.8,0.3c6.2,0.6,12.5,1.1,18.6,2.1c10,1.6,20,3.1,30.2,3.1
			c11.7,0,23.4-0.3,35.1-0.3c5.8,0,11.5-0.1,17.3,0.4c12.1,1.1,24.2,1.3,36.4,1.3c7.5,0,15,0,22.5-0.1c3,0,6-0.2,8.9-0.5
			c3.1-0.2,6.1-0.4,9.2-1c2.8-0.5,4.9-2.3,6.1-5c0.3-0.8,0.6-1.8,1.2-2.2c3.2-2.1,6.4-4.4,9.9-6.1c1.7-0.8,2.6-1.7,3-3.4
			c0.5-2.9,1-5.8,1.6-8.7c6.5-1.6,9.8-6.4,10.5-12.8C234.3,260.7,234.3,257.7,234.2,254.7z M195.7,16.4c-1.4,0-4.9,0-6.1,0
			C191.4,12.9,194,13.2,195.7,16.4z M147.6,15.4c-2.5-0.1-6-0.2-8-0.3C142.6,11.4,145.7,10.6,147.6,15.4z M136.8,21.2
			c4.5,0.8,23-0.1,27.8,0.1c-1,3.5-0.9,3.5-3.6,3.2c-1.6-0.2-3.2-0.3-4.8-0.2c-8.4,0.8-16.8,0.5-25.7-0.4
			C132.5,22,134.3,20.7,136.8,21.2z M127,28.9c10.8,0.3,21.5,0.6,32.8,0.9c-0.7,1.3-1.2,2.4-2,3.3c-0.5,0.6-1.6,1-2.4,0.9
			c-5.9-0.9-11.8,0.2-17.7,0.2c-4.3,0.1-8.5-0.2-13.6-0.4C125.5,31.6,126.2,30.3,127,28.9z M102.7,10.6c2.5,0,1.5,2.2,0.4,3.4
			c-1.4-0.2-3.8,0.3-5.4,0C99.1,13.1,100.2,10.6,102.7,10.6z M94.7,20.8c8.2-0.8,16.3,0.2,24.4,0.4c0,2.2-1.2,2.9-3.1,2.9
			c-6.6,0-13.2,0-19.8,0.1c-1.9,0-3.9,0.3-5.9,0.5C91.3,21.2,91.6,21.1,94.7,20.8z M87.3,28.5c9.1,0,18,0,27.4,0
			c-0.6,1.9-1.1,3.4-1.7,5.1c-2,0-4,0.3-5.8,0c-7.1-1.2-14.4,0.5-21.8-1.3C86.2,30.8,86.8,29.5,87.3,28.5z M57,10
			c1.9-0.4,2.8,1,3.5,4.7c-4,0.4-8,0.7-12.7,1.1C50.5,12.2,53.7,10.8,57,10z M45.6,19.6c4,0.2,7.9,0.5,11.9,0.7
			c1.9,0.1,3.7-0.3,5.6-0.3c5.7,0,11.4,0,17.4,0c-1.3,3.6-1.3,3.7-4.1,3.5c-5.2-0.4-10.4-0.8-15.6-1.2c-1.5-0.1-2.9,0.4-4.4,0.4
			c-4.7-0.2-9.4-0.6-14.3-0.9C42.6,19.6,44.1,19.5,45.6,19.6z M39.7,25.8c5.9,0.3,11.7,0.7,17.6,1c5.2,0.2,10.4,0.2,15.6,0.4
			c1.1,0,2.2,0.3,3.7,0.4c-2.1,4.7-3.6,5.3-8,4c-2-0.6-4.2-0.7-6.3-0.8c-6.5-0.3-13.1-0.3-19.6-0.6c-2.5-0.1-4.9-0.5-7.4-0.8
			C36.2,25.9,36.5,25.6,39.7,25.8z M27.5,20.4c0,0.1,0,0.3,0,0.4c-1.7,0.2-3.3,0.5-5,0.7c0-0.2-0.1-0.5-0.1-0.7
			C24.1,20.6,25.8,20.5,27.5,20.4z M24.7,26.5c0,2-0.7,3-2.4,2.8c-2.7-0.3-5.3-0.7-8-1.2c-0.3,0-0.4-0.8-0.9-1.7
			C17.3,26.5,20.8,26.5,24.7,26.5z M127.7,295.4c-9.7-1.2-19.3-1.1-29.1-1.2c-11.5-0.1-23-1-34.5-1.5c-3.6-0.1-7.2,0.1-10.8,0.2
			c-1.4,0.1-2.7,0.1-4.1,0.2c-6.5-0.5-12.5-1-17.8-1.4c0.9-3.5,2.5-10,3-11.7c0.6-2.2,1.1-4.5,1.8-6.8c0.7-2.4,1.7-4.6,2.5-7
			c0.7-2.2,1.2-4.5,1.9-6.8c0.7-2.4,1.4-4.7,2.1-7.1c0.7-2.2,1.4-4.5,2.1-6.7c0.7-2.4,1.4-4.7,2.1-7.1c0.6-2.2,1.2-4.5,1.8-6.7
			c0.6-2.4,1.2-4.8,2-7.1c0.7-2.2,1.6-4.4,2.3-6.6c0.8-2.3,1.6-4.7,2.3-7c0.7-2.2,1.5-4.4,2.2-6.6c0.7-2.4,1.4-4.7,2.1-7.1
			c0.7-2.2,1.4-4.4,2.2-6.8c22.5,3.8,44.9,3.5,67.5,0.1c0.4,1.6,0.8,2.8,1,4c4.2,33.5,8.4,67.1,12.6,100.8
			C137.5,295.6,132.5,296,127.7,295.4z M154.5,290.6c0.5-2.1,1.1-4.3,1.6-6.4c2.2-8.9,2.3-17.8-0.2-26.6c-0.8-2.6-1.3-5.3-2-8.5
			c16,1.6,28.8-5.9,41.7-13.8C185,256.2,168.9,272.8,154.5,290.6z M200.7,99.8c0,11.3,0,22.6,0,33.8c0,2.1,0.1,4.2,0,6.4
			c-0.2,14-0.5,28.1-0.8,42.1c-0.2,11-0.5,21.9-0.8,32.9c-0.1,4-0.5,8-0.7,12.5c-5.1,2.8-9.9,6.9-15.9,9c-1.9,0.7-3.7,1.6-5.5,2.4
			c-8.3,3.4-17,4.7-25.9,5.4c-3.5,0.3-3.9,0.9-3,4c0.6,2,1.1,4.1,1.2,6.2c0.5,7.9,0.9,15.7,1,23.6c0.1,3.2-0.6,6.4-1,9.9
			c-0.2,0-0.3,0.1-0.5,0.2c-0.3-4.2-0.6-8.5-1-12.7c-0.6-5.5-1.5-11-2.2-16.6c-0.8-5.8-1.5-11.6-2.2-17.4
			c-1.6-11.8-3.1-23.7-4.7-35.5c-0.9-6.5-2.1-13-3.1-19.6c-0.4-2.4-0.4-4.9-0.6-7.4c5.7-2.3,10.2-5.7,14.3-9.7
			c17.6-17,21.5-40.3,17.6-55.6c-1.8-8.6-7.4-14.7-13.6-20.4c-7.4-6.9-16.7-9.6-26.4-11.4c-1.5-0.3-3-0.3-3.4,1.6
			c-0.5,1.9,0.6,3.4,2.6,4c5.6,1.6,11.2,3.2,16.7,5c4.5,1.5,8.2,4.1,11,8.1c10.9,14.3,11.6,31,8.9,38.7c-2.9,6.7-6,13.2-10.3,19.1
			c-5,7-11.6,12.1-19.2,16c-8.9,4.5-18.3,6-28.1,6.8c-10.9,0.9-21.5-0.5-32-2.4c-10.2-1.9-18.9-6.9-25.7-14.8
			c-2.8-3.2-5.6-6.5-7.8-10.1c-5.2-8.3-6.1-17.4-4.7-27c1.7-11.6,8.2-20,16.9-27.5c9.7-8.3,21.4-10.6,33.4-12.4
			c2.9-0.4,5.9-0.9,8.9-1.1c10-0.6,14.1,1.7,15.3-1.2c1.7-4.1-2.5-3.8-6.6-4.4C93.3,79.1,84.1,80,75,82.5c-4.1,1.1-8.2,2-12.2,3.6
			c-6.5,2.6-12.4,6.2-17.4,10.9c-9.7,9-14.1,14.4-16.2,33.5c-2.1,19.1,10,34.9,23.1,45.3c1.7,1.7,3.8,3.1,5.8,4.6
			c-11.3,35.4-22.5,70.6-33.8,106c-3.3-0.2-6.2-0.4-9.2-0.5c-3.1,0-4.7-0.2-6-0.2s0.1-19.4-0.1-26.6c-0.3-10.8-2.7-57.1-2.9-65
			c-0.1-6-0.2-12-0.3-17.9c-0.1-6-0.3-11.9-0.5-17.9c-0.1-3.1,0.1-6.2,0-9.3c-0.3-19.8-0.8-39.5-1-59.3C4.3,84.3,4.9,78.9,5,73.6
			c0.1-11,0.1-22,0.1-33c0-2.2,0-4.5,0-7.1c5.5,0.2,10.8,0.5,16.4,0.7c-0.1,0.9,0.1,1.8-0.2,2.5c-2.9,8.2,1.8,15.2,9.7,16.4
			c2.5,0.4,5.5-0.2,7.9-1.2c1.1-0.4,1.9-2.7,2.1-4.2c0.2-1.5-0.3-3.3-0.9-4.7c-0.6-1.3-2-1.8-3.5-1.5c-0.9,0.2-1.7,0.6-2.5,0.7
			c-1.7,0.1-2.7-0.7-2.6-2.4c0.1-1.4,0.5-2.7,0.8-4.6c13.4,0.7,26.7,1.4,40,2.1c0.2,2.5,0.1,5,0.6,7.4c1.3,6.2,7.4,10.1,13.6,8.9
			c3-0.6,4.6-2.7,4.4-6c-0.2-2.9-2.2-5-5-5c-1.3,0-2.5,0.5-3.2-1.1C82,40,82,38.7,83.7,37c8.9,0.3,18.2,0.6,27.9,0.9
			c-0.2,1.4-0.2,2.6-0.5,3.7c-2.3,7.1,5.6,14.8,11,15.4c3.2,0.3,6.1-0.9,8.4-3.3c1.8-1.8,1.6-3.9,1-5.9c-0.6-2-2.3-2.7-4.4-2.8
			c-4.2-0.2-4.9-1.2-5.1-6.3c10.7,0.4,21.4,0.9,32.7,1.3c-0.9,2.6-1.5,4.4-2.1,6.3c-2.1,6.5,1.9,12.6,8.7,13.3
			c3.5,0.4,6.7-0.1,9.8-1.7c2.1-1.1,3.2-2.7,2.9-5.1c-0.4-2.4-0.6-4.8-3.5-5.5c-2-0.5-4.1-0.8-6.6-1.4c1.3-2.2,2.4-4.1,3.7-6.3
			c10.6,0.3,21.2,0.6,32.3,0.9c0.3,2,0.9,3.8,0.9,5.6c0.3,7,0.6,14,0.5,21c-0.1,8-0.7,16-0.9,24C200.2,94,200.7,96.9,200.7,99.8z
			 M213.4,286.1c-1.3,0.4-2.4,1.3-3.6,2c0.5-10.4,0.2-20.7,0.2-31c0-7.8,0-15.5-0.3-23.3c-0.5-10.2,0.2-20.3,0.7-30.5
			c0.4-8.6,0.2-17.3,0.1-25.9c-0.1-10-0.5-20-0.7-30c-0.1-7.4-0.1-14.7-0.2-22.1c-0.2-10.9-0.4-21.8-0.5-32.7
			c-0.1-8.4,0.3-16.8-0.1-25.2c-0.4-8.1-1.6-16.1-2.5-24.2c-0.1-1.2-0.6-2.5-1.2-3.5c-0.7-1.1-1.9-2.4-3-2.5c-5-0.7-9.9-2.3-15.1-2
			c-4.9,0.3-9.8-0.2-14.7-0.3c-0.5,0-0.9-0.1-2-0.3c1.1-1.8,1.9-3.2,2.8-4.7c11.6,0.3,23.1,0.6,35,1c0.4,1.3,1.2,2.8,1.4,4.3
			c0.9,5.9,1.8,11.9,2.4,17.8c0.9,9.2,1.7,18.4,2.2,27.6c0.5,8.9,0.5,17.8,0.7,26.6c0.2,8.3,0.5,16.5,0.7,24.8
			c0.1,4.1-0.1,8.2-0.1,12.3c0,6.6,0.1,13.2,0.2,19.7c0.1,8.4,0.3,16.7,0.4,25.1c0,5.6-0.2,11.2-0.2,16.8c0,7.7-0.1,15.5,0,23.2
			c0.1,9.3,0.5,18.5,0.7,27.8c0.2,7.5,0.5,15,0.8,22.4C217.7,282.6,216.8,285,213.4,286.1z M222.7,271.6
			c-0.4-11.3-0.8-22.7-1.1-34.1c-0.2-9.5-0.2-19-0.5-28.4c-0.2-6.5-0.7-13-1.1-19.4c-0.1-2.4-0.1-4.8-0.1-7.1
			c-0.1-12-0.1-24.1-0.3-36.1c-0.1-12.6-0.4-25.2-0.5-37.8c0-4.3,0.5-8.7,0.4-13c-0.1-9.6-0.2-19.3-0.8-28.9
			c-0.4-7-1.5-13.9-2.3-20.8c-0.4-3.2-0.8-6.4-1.2-9.6c-0.1-0.7-0.1-1.5-0.3-2.2c-1.7-5.5-2.5-6.8-8.9-7.4
			c-6.3-0.6-12.6-1.4-19.1-0.5c-2.8,0.4-5.8-0.8-8.9-1.3c1.3-2.6,2.8-3.9,5.7-3.6c5.3,0.6,10.6,0.8,16,1.2c4.2,0.3,8.4,0.7,12.7,1.1
			c1.8,0.2,3.6,0.4,5.5,0.5c0.3,1.3,0.7,2.3,0.8,3.4c0.4,5.1,0.7,10.2,1.1,15.3c0.6,7.3,1.1,14.7,1.8,22c0.8,7.8,2,15.6,2.5,23.4
			c0.6,9.2,0.7,18.4,0.9,27.7c0.3,11.4,0.6,22.8,0.7,34.2c0.2,13.2,0.2,26.5,0.2,39.7c0,7-0.3,14-0.4,21c-0.2,8-0.5,16-0.5,24
			c0,6.5,0.6,13,0.8,19.5c0.2,4.2,0.4,8.5,0.4,12.7C226.3,270.1,225.6,270.8,222.7,271.6z"/>
		<path d="M110,139c-4.3,0.9-6.6,0.7-5.3,7c0,0.2,0.2,0.5,0.3,0.9c2.1,1.3,4.2,1.5,6.5,0.9c2.5-0.7,3.8-2.6,3.4-5.2
			C114.4,139.8,112.9,138.4,110,139z"/>
		<path d="M85.5,134.6c-2.3,0.1-4.7,3.1-4.6,5.7c0.1,2.9,1.7,4.7,4.1,4.6c2.4-0.1,5.2-3,5.1-5.4C90,137,87.6,134.4,85.5,134.6z"/>
	</g>
	<path id="" class="st0" d="M127.7,295.4c-9.7-1.2-19.3-1.1-29.1-1.2c-11.5-0.1-23-1-34.5-1.5c-3.6-0.1-7.2,0.1-10.8,0.2
		c-1.4,0.1-2.7,0.1-4.1,0.2c-6.5-0.5-12.5-1-17.8-1.4c0.9-3.5,2.5-10,3-11.7c0.6-2.2,1.1-4.5,1.8-6.8c0.7-2.4,1.7-4.6,2.5-7
		c0.7-2.2,1.2-4.5,1.9-6.8c0.7-2.4,1.4-4.7,2.1-7.1c0.7-2.2,1.4-4.5,2.1-6.7c0.7-2.4,1.4-4.7,2.1-7.1c0.6-2.2,1.2-4.5,1.8-6.7
		c0.6-2.4,1.2-4.8,2-7.1c0.7-2.2,1.6-4.4,2.3-6.6c0.8-2.3,1.6-4.7,2.3-7c0.7-2.2,1.5-4.4,2.2-6.6c0.7-2.4,1.4-4.7,2.1-7.1
		c0.7-2.2,1.4-4.4,2.2-6.8c22.5,3.8,44.9,3.5,67.5,0.1c0.4,1.6,0.8,2.8,1,4c4.2,33.5,8.4,67.1,12.6,100.8
		C137.5,295.6,132.5,296,127.7,295.4z"/>
	<path id="" class="st0" d="M154.5,290.6c0.5-2.1,1.1-4.3,1.6-6.4c2.2-8.9,2.3-17.8-0.2-26.6c-0.8-2.6-1.3-5.3-2-8.5
		c16,1.6,28.8-5.9,41.7-13.8C185,256.2,168.9,272.8,154.5,290.6z"/>
	<g>
		<path id="" class="st0" d="M136.8,21.2c4.5,0.8,24.5-0.4,29.4-0.2c-1,3.5-2.5,3.8-5.1,3.5c-1.6-0.2-3.2-0.3-4.8-0.2
			c-8.4,0.8-16.8,0.5-25.7-0.4C132.5,22,134.3,20.7,136.8,21.2z"/>
		<path id="" class="st0" d="M127,28.9c10.8,0.3,21.5,0.6,32.8,0.9c-0.7,1.3-1.2,2.4-2,3.3c-0.5,0.6-1.6,1-2.4,0.9
			c-5.9-0.9-11.8,0.2-17.7,0.2c-4.3,0.1-8.5-0.2-13.6-0.4C125.5,31.6,126.2,30.3,127,28.9z"/>
		<path id="" class="st0" d="M94.7,20.8c8.2-0.8,16.3,0.2,24.4,0.4c0,2.2-1.2,2.9-3.1,2.9c-6.6,0-13.2,0-19.8,0.1c-1.9,0-3.9,0.3-5.9,0.5
			C91.3,21.2,91.6,21.1,94.7,20.8z"/>
		<path id="" class="st0" d="M87.3,28.5c9.1,0,18,0,27.4,0c-0.6,1.9-1.1,3.4-1.7,5.1c-2,0-4,0.3-5.8,0c-7.1-1.2-14.4,0.5-21.8-1.3
			C86.2,30.8,86.8,29.5,87.3,28.5z"/>
		<path id="" class="st0" d="M45.6,19.6c4,0.2,7.9,0.5,11.9,0.7c1.9,0.1,3.7-0.3,5.6-0.3c5.7,0,11.4,0,17.4,0c-1.3,3.6-1.3,3.7-4.1,3.5
			c-5.2-0.4-10.4-0.8-15.6-1.2c-1.5-0.1-2.9,0.4-4.4,0.4c-4.7-0.2-9.4-0.6-14.3-0.9C42.6,19.6,44.1,19.5,45.6,19.6z"/>
		<path id="" class="st0" d="M39.7,25.8c5.9,0.3,11.7,0.7,17.6,1c5.2,0.2,10.4,0.2,15.6,0.4c1.1,0,2.2,0.3,3.7,0.4c-2.1,4.7-3.6,5.3-8,4
			c-2-0.6-4.2-0.7-6.3-0.8c-6.5-0.3-13.1-0.3-19.6-0.6c-2.5-0.1-4.9-0.5-7.4-0.8C36.2,25.9,36.5,25.6,39.7,25.8z"/>
		<path id="" class="st0" d="M27.5,20.4c0,0.1,0,0.3,0,0.4c-1.7,0.2-3.3,0.5-5,0.7c0-0.2-0.1-0.5-0.1-0.7C24.1,20.6,25.8,20.5,27.5,20.4z"
			/>
		<path id="" class="st0" d="M24.7,26.5c0,2-0.7,3-2.4,2.8c-2.7-0.3-5.3-0.7-8-1.2c-0.3,0-0.4-0.8-0.9-1.7C17.3,26.5,20.8,26.5,24.7,26.5z
			"/>
		<path id="" class="st0" d="M213.4,286.1c-1.3,0.4-2.4,1.3-3.6,2c0.5-10.4,0.2-20.7,0.2-31c0-7.8,0-15.5-0.3-23.3
			c-0.5-10.2,0.2-20.3,0.7-30.5c0.4-8.6,0.2-17.3,0.1-25.9c-0.1-10-0.5-20-0.7-30c-0.1-7.4-0.1-14.7-0.2-22.1
			c-0.2-10.9-0.4-21.8-0.5-32.7c-0.1-8.4,0.3-16.8-0.1-25.2c-0.4-8.1-1.6-16.1-2.5-24.2c-0.1-1.2-0.6-2.5-1.2-3.5
			c-0.7-1.1-1.9-2.4-3-2.5c-5-0.7-9.9-2.3-15.1-2c-4.9,0.3-9.8-0.2-14.7-0.3c-0.5,0-0.9-0.1-2-0.3c1.1-1.8,1.9-3.2,2.8-4.7
			c11.6,0.3,23.1,0.6,35,1c0.4,1.3,1.2,2.8,1.4,4.3c0.9,5.9,1.8,11.9,2.4,17.8c0.9,9.2,1.7,18.4,2.2,27.6c0.5,8.9,0.5,17.8,0.7,26.6
			c0.2,8.3,0.5,16.5,0.7,24.8c0.1,4.1-0.1,8.2-0.1,12.3c0,6.6,0.1,13.2,0.2,19.7c0.1,8.4,0.3,16.7,0.4,25.1c0,5.6-0.2,11.2-0.2,16.8
			c0,7.7-0.1,15.5,0,23.2c0.1,9.3,0.5,18.5,0.7,27.8c0.2,7.5,0.5,15,0.8,22.4C217.7,282.6,216.8,285,213.4,286.1z"/>
		<path id="" class="st0" d="M222.7,271.6c-0.4-11.3-0.8-22.7-1.1-34.1c-0.2-9.5-0.2-19-0.5-28.4c-0.2-6.5-0.7-13-1.1-19.4
			c-0.1-2.4-0.1-4.8-0.1-7.1c-0.1-12-0.1-24.1-0.3-36.1c-0.1-12.6-0.4-25.2-0.5-37.8c0-4.3,0.5-8.7,0.4-13
			c-0.1-9.6-0.2-19.3-0.8-28.9c-0.4-7-1.5-13.9-2.3-20.8c-0.4-3.2-0.8-6.4-1.2-9.6c-0.1-0.7-0.1-1.5-0.3-2.2
			c-1.7-5.5-2.5-6.8-8.9-7.4c-6.3-0.6-12.6-1.4-19.1-0.5c-2.8,0.4-5.8-0.8-8.9-1.3c1.3-2.6,2.8-3.9,5.7-3.6c5.3,0.6,10.6,0.8,16,1.2
			c4.2,0.3,8.4,0.7,12.7,1.1c1.8,0.2,3.6,0.4,5.5,0.5c0.3,1.3,0.7,2.3,0.8,3.4c0.4,5.1,0.7,10.2,1.1,15.3c0.6,7.3,1.1,14.7,1.8,22
			c0.8,7.8,2,15.6,2.5,23.4c0.6,9.2,0.7,18.4,0.9,27.7c0.3,11.4,0.6,22.8,0.7,34.2c0.2,13.2,0.2,26.5,0.2,39.7c0,7-0.3,14-0.4,21
			c-0.2,8-0.5,16-0.5,24c0,6.5,0.6,13,0.8,19.5c0.2,4.2,0.4,8.5,0.4,12.7C226.3,270.1,225.6,270.8,222.7,271.6z"/>
	</g>
</g>
</svg>
