<?xml version="1.0" encoding="utf-8"?>
<!-- Generator: Adobe Illustrator 19.1.0, SVG Export Plug-In . SVG Version: 6.00 Build 0)  -->
<svg version="1.1" id="Calque_1" xmlns="http://www.w3.org/2000/svg" xmlns:xlink="http://www.w3.org/1999/xlink" x="0px" y="0px"
	 viewBox="0 0 284.6 290" style="enable-background:new 0 0 284.6 290;" xml:space="preserve">
<style type="text/css">
	.st0{fill:#EC6C65;}
</style>
<g>
	<path id="" class="st0" d="M60.3,181.3l1.6-15l33.8-18.4l25.7-6.1c0,0,2.9,10.8,5.5,11c19.1,1.1,43.2-15.8,43.2-15.8h41.2l16.7,21.4v24.8
		l-8.7,8.4L209,272.2l-31.3,10.9l-42.5,5.2l-25.4-5.2l-33.6-13l-8.5-63.6l-7.3-4.2L58.7,186L60.3,181.3z"/>
	<polygon id="" class="st0" points="15.4,94.2 35,93 47.6,93 53.1,101.2 56.3,126.2 51.4,133 27,137.7 3.9,141 7.4,118.7 	"/>
	<g>
		<path d="M145.1,0c3.8,0.2,7.6,0.3,11.3,0.8c5.7,0.8,11.5,1.4,17.1,2.9c6,1.6,11.7,4.1,17.5,6.1c11.1,3.7,21,9.8,30.8,15.8
			c10,6.2,19.9,12.6,28.5,20.8c7.1,6.8,13,14.6,18,23.1c2.3,3.9,4.4,7.9,6.4,11.9c2.9,5.8,3.9,12.2,5.4,18.4
			c1.5,6.4,2.5,13,3.6,19.5c1.5,8.6,1,17.2,0.7,25.8c-0.1,1.7-0.3,3.4-0.2,5c0.2,6.3-0.8,12.6-1.8,18.8c-1.5,9.9-3.8,19.6-6.9,29.1
			c-1.9,6-4.6,11.7-7.4,17.4c-3.4,6.6-7,13.2-11,19.5c-7.7,12.1-17.3,22.5-29.3,30.4c-1.6,1.1-3.6,1.7-5.4,2.6
			c-5.9,2.8-11.7,5.6-17.7,8.2c-8.1,3.5-16.2,7-24.6,9.7c-5.3,1.7-10.6,2.5-15.9,3.6c-1.6,0.3-3.3,0.2-5,0.3
			c-7.9,0.7-15.7,0.7-23.5-0.3c-11.8-1.5-23.4-4-34.8-7.2c-6.5-1.8-12.8-4.6-19.2-7c-2.9-1.1-5.8-2.3-8.7-3.7
			C61,266,51,258.4,42.4,249c-3.4-3.7-7-7.2-10.4-10.9c-5.4-5.9-9-12.9-12.5-20C13.9,206.6,9,194.8,5.2,182.5
			c-1.5-5-2.4-10.2-3.2-15.4c-1.4-9.1-2.2-18.4-1.9-27.6c0.3-9,2-17.7,4.3-26.4c2.1-8,5.3-15.5,8.6-23c2.6-5.9,6.3-11.4,9.7-16.9
			C29.3,62.8,37.3,53.5,46.3,45C59.1,32.8,74,23.5,90,16.1c7.3-3.4,14.9-6.3,22.2-9.7c10-4.5,20.6-5.5,31.3-6.2c0.5,0,1-0.1,1.6-0.1
			C145.1,0.1,145.1,0.1,145.1,0z M170.4,131.3c2.4-0.2,4.5-0.5,6.6-0.4c9.9,0.4,19.8,0,29.6,1.3c7.2,1,13.5,3.7,19.4,7.6
			c1.8,1.2,3.1,3.2,4.2,5.1c1.1,1.9,1.5,4.2,2.4,6.2c0.6,1.5,0.5,2.8,0.2,4.4c-0.9,3.8-1.8,7.7-2.3,11.6c-0.5,4.4-1,9-0.4,13.3
			c0.5,3.8-0.8,5.9-3.6,7.7c-1.4,0.9-1.9,2-2,3.7c-0.6,5.7-1.1,11.4-2.2,17.1c-3.3,16.9-6.3,33.9-8,51c-0.1,1.1,0,2.2,0,3.6
			c1.3-0.6,2-1,2.7-1.4c7.7-4.1,14.5-9.7,21.5-14.8c1.6-1.2,2.9-2.8,4.1-4.4c3.6-5.2,7.3-10.5,10.5-15.9c2.3-3.9,4-8.2,6-12.3
			c3.2-6.6,7.1-12.9,9-20.1c2-7.6,3.8-15.3,5.5-22.9c2.7-12,4.2-24.1,4.2-36.4c0.1-13.2-1.6-26.3-5.7-39
			c-4.3-13.3-10.9-25.1-20.2-35.5c-1-1.1-2-2.2-3-3.3c-4.6-4.8-9-10-14.1-14.3c-6.1-5.1-12.7-9.6-19.3-14.1
			c-5.4-3.6-10.9-7.1-16.6-10c-5.8-2.9-11.7-5.7-17.9-7.4c-14.2-4-28.7-6.1-43.5-4.9c-3.5,0.3-7.1,0.4-10.4,1.4
			c-6.2,1.7-12.6,3.1-18.5,5.7c-4.7,2-9.8,3-14.3,5.4c-9.2,4.9-18,10.4-26.9,15.8c-5.7,3.4-10.3,8.2-15.3,12.4
			c-7.4,6.2-13.6,13.4-19,21.3C28,75.7,24.3,83,20.6,90.2c-0.2,0.4-0.2,1-0.5,1.9c1.8-0.2,3.2-0.4,4.6-0.6
			c6.1-0.6,12.2-1.3,18.4-1.8c2.7-0.2,5.5,0.2,7.4,2.3c1.6,1.8,3.2,1.8,5.2,1.3c1.4-0.3,2.9-0.9,4.3-1.1c1.2-0.1,2.7-0.1,3.6,0.5
			c2,1.4,4,1.1,6.1,0.5c3.8-1.3,7.8-2.3,11.5-3.7c4.4-1.6,8.9-3,12.4-6.4c3.3-3.2,6.5-6.5,9.9-9.5c2-1.8,2.9-3.7,2.8-6.4
			c-0.2-3.9,1.2-7.3,4.3-9.8c1.2-0.9,2.2-2,3.4-2.9c1.5-1.3,2.1-2.6,1.5-4.8c-0.8-2.9-1.1-5.8-1.5-8.8c-0.4-2.3,0.8-4.2,2.6-5
			c2.6-1.2,5.4-2,8.2-2.4c1.5-0.2,3.4,0.4,4.9,1.1c4.1,2.1,5.3,6,5.3,10.2c0,2.3,0.6,3.8,2.6,4.9c3.8,2.1,7.6,4.3,11.4,6.4
			c4.1,2.3,6.6,5.6,7.2,10.3c0.3,2.3,0.4,4.7,0.7,7c0.1,0.9,0.2,2.1,0.8,2.7c2.4,2.4,2.8,5.4,3.4,8.4c1.2,5.7,0.8,11.4,1,17.2
			c0,1,0.3,2,0.6,3c0.4,1.4,1.4,2.7,1.5,4.1c0.2,2.9,0.2,5.7,2.1,8.1c0.2,0.2,0.2,0.6,0.2,0.9C166.4,122.7,169.4,126.6,170.4,131.3z
			 M69.3,211c0.2,2.1,0.4,3.7,0.6,5.3c1.8,14.3,3.8,28.6,5.4,43c0.3,3.2,1.8,4.3,4.4,5.3c4.9,1.8,9.7,3.8,14.5,5.8
			c4.8,2,9.4,4.6,14.3,6.1c10.8,3.2,21.8,5.7,33.1,6.4c6.2,0.4,12.3,0.5,18.4-0.9c6.8-1.5,13.6-3.3,20.5-4.9
			c7.9-1.8,15.4-4.8,22.8-8c0.6-0.2,1.1-0.7,1.3-0.8c1.7-12.3,3.2-24.3,5.1-36.3c1.9-12,4.3-24,6.5-36.2c-3.8,0.5-7.6,3.4-10.6-1.5
			c-4.6,1-9.2,2-13.8,3.2c-3.8,0.9-7.5,2.3-11.4,3c-8.7,1.6-17.4,3.1-26.1,4.4c-7.3,1.1-14.7,2.2-22.1,3.1c-8,0.9-16.1,1.6-24.1,2.3
			c-7.4,0.6-14.8,1.1-22.2-1c-1-0.3-2.1-0.2-3.1-0.3c0,3.3-0.6,3.8-3.7,3.3c-0.3-0.1-0.6-0.2-0.9-0.3
			C75.4,211.7,72.6,211.3,69.3,211z M116.1,118.7c-0.4,0-0.9-0.1-1.4-0.1c-6.5,0.6-12.9,0.3-19.4,0c-6.1-0.3-12.3-0.7-18.4,1
			c-2.2,0.6-4.2,1.4-5.7,3.2c-2.3,2.7-5.3,3.7-8.7,4c-1.9,0.2-3.7,0.6-5.4,0.9c-1.5,4.2-2.9,5.7-6.4,6.7c-6.2,1.8-12.5,3.2-19,4
			c-6.7,0.8-13.5,1.7-20.2,2.6c-1.2,0.2-2.4,0.6-3.6,1c-0.1,1.7-0.3,3-0.4,4.4c-0.6,9.9,0.9,19.5,2.9,29.1c2,9.3,4.8,18.4,7.9,27.4
			c3.3,9.3,7.8,18,13.8,25.7c5.1,6.6,11.1,12.5,16.8,18.8c2.7,3,5.9,5.2,9.3,7.1c2.6,1.5,5.3,2.8,7.9,4.1c1.6,0.8,3.2,1.3,5.2,2.2
			c-0.2-1.9-0.2-3.1-0.4-4.4c-0.4-3.4-0.9-6.7-1.3-10.1c-1.4-11.4-2.8-22.8-4.1-34.2c-0.3-2.2-1.1-3.8-3.4-4.5
			c-2.6-0.7-4-2.7-4.7-5.1c-0.3-1.1-0.8-2.2-1.1-3.3c-1.5-6.2-2.5-12.4-0.1-18.5c0.6-1.6,0.9-2.9,0.4-4.6c-0.8-2.7-0.5-5.4,1.1-7.6
			c2.3-3.2,4.7-6.3,7.4-9.1c4.1-4.3,9.6-6.5,14.9-9.2c9.9-5,20.5-8.2,31.2-10.8c2.4-0.6,5-1,7.4-1.5c0.3-2.9,1-5.6-0.6-8.2
			c-0.5-0.9-0.1-2.3-0.1-3.4c0-0.7,0.2-1.5,0-2.1C117.6,122.4,116.9,120.8,116.1,118.7z M120.8,144.5c-1.1,0.1-1.9,0.1-2.6,0.3
			c-10.1,3.2-20.4,6.1-30.4,9.6c-6.5,2.3-12.9,5.1-18.2,9.7c-3.4,2.9-5.7,6.5-6.9,10.8c-0.6,2.2,0,3.9,2,5.1c3,1.8,5.9,3.8,8.9,5.5
			c1.5,0.9,3.2,1.7,5,2.1c4.3,0.8,8.6,1.6,12.9,1.9c6.8,0.5,13.6,0.5,20.4,0.7c10.3,0.4,20.7-0.3,30.9-1.7c11.8-1.6,23.5-3.7,35.2-6
			c7.6-1.5,15.1-3.7,22-7.4c5.3-2.9,10.4-6.2,15.5-9.4c1.9-1.2,3.8-2.5,5.2-4.1c1.3-1.4,2.2-3.4,2.8-5.2c0.3-0.8,0-2.3-0.6-2.9
			c-1.6-1.7-3.4-3.3-5.4-4.4c-3.1-1.7-6.4-2.9-9.7-4.2c-6.5-2.5-13.3-4-20.2-4.2c-5.4-0.2-10.8,0.4-16.2,0.7c-0.5,0-1,0.3-1.4,0.6
			c-3.8,3.7-8.9,5.3-13.5,7.6c-6.3,3-13.2,4.1-19.9,5.4c-3.4,0.7-7,0.3-10.5,0.2c-2.3-0.1-3-1.2-3.5-3.7
			C122.4,149.4,121.6,147.1,120.8,144.5z M72.8,115.8c0.5,0.1,0.8,0.2,1.1,0.2c7.8-1.8,15.6-1.3,23.5-0.8c5.4,0.3,10.8,0.3,16.2,0
			c3.6-0.2,7.2-1,10.7-1.6c4.8-0.9,9.6-2.1,13.9-4.5c0.9-0.5,2-0.8,2.1-2.3c-0.8,0.1-1.4,0.1-2,0.2c-5.4,1-10.8,2.1-16.3,3
			c-1.9,0.3-3.8,0.4-5.7,0.6c-1.3,0.1-2.3-0.4-2.5-1.8c-0.2-1.4,0.9-1.8,1.9-2.1c1.1-0.3,2.3-0.5,3.4-0.7c8.6-1.1,16.7-3.9,24.9-6.7
			c1.4-0.5,2.7-1.2,4-2c0.8-0.5,1.9-1.1,1.5-2.9c-1.2,0.3-2.4,0.4-3.5,0.8c-6.1,2.2-12.3,4.1-18.8,4.7c-3,0.3-6,1.2-9,1.7
			c-2.9,0.4-5.9,0.7-8.8,0.9c-0.6,0-1.4-0.9-1.7-1.5c-0.1-0.3,0.6-1.3,1.1-1.6c1.1-0.5,2.4-0.9,3.6-1.1c6.6-1.5,13.3-2.7,19.9-4.5
			c4.3-1.1,8.4-2.8,12.6-4.4c1.2-0.5,2.6-1,2.7-2.7c-2.3-0.5-2.3-0.6-4.6,0.4c-8,3.2-16.4,5.3-24.7,7.3c-2.6,0.6-5.5,0.5-8.2,0.8
			c-0.3,0-0.7,0-0.9-0.2c-0.5-0.5-1.4-1-1.4-1.5c0-0.7,0.6-1.6,1.3-1.9c0.8-0.5,1.8-0.6,2.8-0.7c8.9-0.7,17.1-4,25.6-6.5
			c2.1-0.6,4.1-1.7,6.1-2.7c0.8-0.4,1.4-1.1,2.7-2.1c-1.6-0.2-2.4-0.4-3.2-0.3c-4,0.4-8,0.7-12,1.3c-3.3,0.5-6.7,1.3-9.9,2.2
			c-3.8,1-7.5,2.2-11.3,3.3c-1.8,0.5-3,0.3-4-1.5c-0.8-1.5-1.9-2.7-3.1-4.3c-0.9,0.8-1.9,1.7-2.7,2.5c-3.3,3.4-6.7,6.5-11.3,8.1
			c-3.8,1.3-7.6,2.7-11.4,4c-2.6,0.9-5.2,1.7-7.4,2.5C70.9,103.5,71.8,109.5,72.8,115.8z M8.6,137.7c2.2-0.2,4.1-0.4,6-0.6
			c11.7-1.5,23.4-2.6,34.6-6.6c3.7-1.3,4.1-2,3.8-5.8c-0.3-3.2-0.4-6.3-0.6-9.5c-0.3-5.5-0.6-11-2-16.4c-0.9-3.4-3-4.6-6-5.2
			c-0.6-0.1-1.3-0.1-1.9-0.1c-7.7-0.2-15.2,1.2-22.8,2c-1.3,0.1-1.9,0.9-2.2,2c-1.1,3.3-2.3,6.6-3.2,10c-1.1,3.9-1.9,7.8-3.1,11.7
			c-1.7,5.5-1.9,11.3-2.8,16.9C8.3,136.4,8.5,136.8,8.6,137.7z M82.3,193.6c-0.2,2.4-0.5,4.2-0.6,6.1c-0.1,2.2,0.3,2.6,2.5,2.9
			c7.1,1.1,14.3,2,21.6,1.5c9.9-0.6,19.7-1.1,29.5-2.3c11.7-1.4,23.3-3.3,34.9-5.5c10.3-1.9,20.6-4.4,30.8-6.7
			c1.2-0.3,2.5-0.5,3.7-1c0.6-0.2,1.4-0.9,1.5-1.4c0.1-2.6,0.3-5.2-0.4-8.2c-1.7,0.7-3.1,1.4-4.5,1.9c-6.2,2.3-12.2,5-18.5,6.8
			c-11.3,3.3-22.9,5.4-34.7,6.8c-8.5,1-16.9,1.1-25.4,1.1c-11,0-22.1,0.4-33.1-1.2C87.3,194.2,85.1,194,82.3,193.6z M149.9,74.8
			c-0.5-3.4-0.9-6.3-1.5-9.2c-0.8-3.6-3-6.2-6.3-7.9c-2.6-1.4-5.2-2.9-7.6-4.7c-1.3-0.9-2.3-1.2-3.8-0.7c-3.1,1-6.2,1.5-9.4,1.2
			c-0.6-0.1-1.6,0.2-2,0.6c-2.5,2.6-4.9,5.2-7.3,7.9c-1.4,1.6-2.2,3.5-1.8,5.9c0.3,2,0.3,4,0.3,6c0,2.5,0.3,5,1.2,7.6
			c1.6-0.3,3.1-0.6,4.5-1c1.6-0.5,3.2-1.1,4.8-1.6c8.1-2.4,16.5-3,24.8-3.4C147,75.4,148.1,75.1,149.9,74.8z M162.9,126
			c-1,0.3-1.7,0.4-2.2,0.7c-7.7,3.5-16.1,4.2-24.2,6.2c-0.5,0.1-1.1,0.1-1.6,0.2c-3,0.4-6.1,0.8-9.1,1.4c-3.1,0.6-3.5,1.2-2.7,4.4
			c0.6,2.5,1.7,4.8,2.2,7.3c0.8,4.2,2.6,4.6,6.4,4.2c0.7-0.1,1.5-0.3,2.2-0.4c6.9-1.6,13.9-3,20.3-6.2c3.1-1.5,6.2-3.2,9.2-5
			c0.7-0.4,1.3-1.4,1.4-2.2C165.1,133,164.1,129.6,162.9,126z M62.2,186c-0.1,0.1-0.3,0.3-0.3,0.4c-0.1,4.3-0.2,8.7-0.2,13
			c0,0.7,0.5,1.7,1.1,2.2c3.6,2.9,7.7,4.8,12.4,5c0.2,0,0.3-0.2,0.9-0.7c0-4.3,0-8.9,0-13.5C71.6,190.3,66.9,188.1,62.2,186z
			 M122.4,119.9c2.5,1,4.3-0.7,6.4-0.8c2.1-0.1,4.2-0.1,6.3-0.3c2.2-0.2,4.4-0.3,6.5-0.8c3.3-0.8,6.6-1.7,9.8-2.8
			c2.3-0.8,4.4-2.1,6.4-3.4c1.4-0.9,1.2-2.3,0.7-3.7c-0.6-1.4-1.7-1.4-2.9-1.1c-2,0.4-4,0.7-5.9,1.1c-1.6,0.3-2.9,1.1-4,2.4
			c-0.8,1-2.1,1.8-3.3,2.4c-5.3,2.8-11,4.4-17,4.8C124,117.6,122.7,117.9,122.4,119.9z M224,170.8c-3.8,2.4-7.3,4.7-10.8,6.8
			c-1.5,0.9-1.9,2-1.9,3.7c0.1,2.9,0,5.7,0,8.6c0,0.6,0.2,1.1,0.3,1.9c0.8-0.3,1.3-0.4,1.7-0.7c3.4-2.6,6.7-5.2,10-7.8
			c0.4-0.3,0.7-0.9,0.7-1.4C224.1,178.4,224,174.8,224,170.8z M160.6,117.1c-3.2,1-6.1,1.9-9,2.9c-5.3,1.7-10.6,3.6-16.4,3.5
			c-3.5,0-7.1,1.1-10.6,1.8c-2.2,0.5-2.4,1.2-2.1,3.9c1.1,0,2.2,0.1,3.4,0c2.4-0.3,4.9-0.5,7.3-0.9c3.6-0.7,7.3-1.3,10.9-2.2
			c4.9-1.4,9.7-3.1,14.5-4.6C160.8,120.8,161,120.4,160.6,117.1z M58.6,111.5c1.5,0,2.2-0.1,2.7,0c0.5,0.1,1.4,0.5,1.4,0.9
			c0.1,0.6-0.2,1.5-0.6,2c-0.4,0.5-1.3,0.7-1.9,1.2c-0.3,0.2-0.4,0.7-0.7,1.2c2-0.1,3.7-0.2,5.3-0.3c0.6,1.9-0.2,2.5-1.3,3.2
			c-1.4,0.8-3.2,1.1-3.8,3.2c2.6,0.4,4.8-0.1,6.8-1.4c0.9-0.6,1.2-1.3,0.9-2.4c-0.4-2.2-0.6-4.4-1.1-6.6c-1.3-5.6-2-11.5-5-17
			c-1.7,0.5-3.3,1-5.1,1.5c0.5,1.1,0.8,1.9,1.1,2.7c0.4,0,0.8-0.1,1.1,0c0.8,0.1,1.8,0.1,2.2,0.6c0.6,0.9,0,1.8-0.9,2.3
			c-0.3,0.2-0.6,0.3-0.8,0.5c-1.2,1.1-1.1,1.8,0.4,2.5c1.9,1,1.9,1.2,0.8,3C59.7,109.3,59.3,110.1,58.6,111.5z M118.4,47.9
			c4.5-0.1,9.3-1.1,11.4-2.2c-0.1-1.2-0.3-2.5-0.5-4.3c-4,0.7-7.7,1.4-11.7,2C117.9,45.1,118.2,46.4,118.4,47.9z M154.6,91.8
			c0.4-3.6,0-7-0.8-10.4c-0.2-0.9-1-1.7-1.6-2.4c0-0.1-0.7,0.1-0.8,0.4c-0.7,1.1,0,2,0.7,2.8c1.6,2,2.2,4.3,1.4,6.8
			C153.1,90,153.1,91.1,154.6,91.8z M126.9,37.9c-2.2-0.8-6.4,0.3-8.8,1.9C121.2,39.1,124.1,38.5,126.9,37.9z M155,98.5
			c-1.5,1.6-2.6,2.9-4.1,4.5C154.9,101.9,154.9,101.9,155,98.5z"/>
		<path d="M159.7,225.1c1.1-0.4,1.8-0.6,2.5-0.8c2.2-0.6,3.2,0.2,3.2,2.5c0,1.8,0.1,3.6,0.2,5.4c0.2,3.5-1.7,4.8-5,3.7
			c-2.9-1-5.9-1.9-7.3-5.5c0.8-0.8,1.7-1.7,2.9-3c-1.4-1.7-2.8-3.5-4.6-5.7c-2.6,7.1-5.7,13.4-9.6,19.3c-1.9,0-2.4-1.4-3.1-2.5
			c-1.6-2.7-1.6-2.6-4.7-2.3c-0.7,0.1-1.8-0.1-2.2-0.6c-0.8-0.9,0-1.7,0.7-2.4c5.5-6.1,11.1-12.3,16.5-18.5c2.2-2.4,3.6-2.4,5.2,0.5
			C156.2,218.2,157.9,221.5,159.7,225.1z"/>
		<path d="M153.4,255.6c0.5,0.5,0.8,0.9,1.1,1.3c0.3,0.3,0.5,0.7,0.8,1.1c3.4-1.2,6.8-2.3,10.5-3.6c-0.3-0.8-0.6-1.6-1-2.4
			c-1.4-3.1-2.8-6.1-4.1-9.3c-0.7-1.7-0.2-2.3,1.7-2.1c1,0.1,2.1,0.3,3,0.4c2.4-3.8,2.4-3.8,4.9-0.2c0.4,0.5,0.7,1.1,0.9,1.7
			c1.1,2.8,2.2,5.5,3.2,8.3c1.2,3.2,0.4,5.5-2.8,7c-2.5,1.2-5.1,2.1-7.7,3c-2.7,1-5.4,1.9-8,2.9c-0.2,1-0.2,1.8-0.4,2.5
			c-0.5,1.4-2.2,2.5-3.5,2.1c-2.4-0.7-4.9-1.5-7.2-2.5c-2.4-1-2.7-3.2-0.6-4.6c2.6-1.8,5.3-3.5,8-5.1
			C152.5,255.8,152.9,255.8,153.4,255.6z"/>
		<path d="M132.8,249.4c-0.9,2.2-1.7,4.2-2.7,6.6c1.9,0.3,3.3,0.5,4.7,0.7c2,0.3,4,0.5,6,0.9c0.6,0.1,1.5,0.8,1.5,1.3
			c0.1,0.7-0.3,1.7-0.9,2.1c-0.9,0.7-2,1.1-3.2,1.7c0.3,1,0.7,1.9,0.9,2.8c0.5,2.1-0.5,3.3-2.7,3.1c-0.7-0.1-1.5-0.3-2.1-0.7
			c-3.6-3-7.2-6-10.6-9.1c-1.4-1.3-1.2-2.6,0.1-4.1c1.5-1.7,2.9-3.4,4.3-5.1c0.3-0.4,0.6-0.9,0.8-1.2c-0.1-0.3,0-0.6-0.1-0.7
			c-2.4-2.7-2.3-3,0.5-5.1c1.6-1.2,3.2-2.4,4.9-3.6c1.4-1,2.7-0.6,2.9,1.2c0.3,2.1,0.4,4.2,0.6,6.3c0.2,3.1-0.6,3.8-3.6,3.1
			C133.8,249.4,133.5,249.5,132.8,249.4z"/>
	</g>
</g>
</svg>
