<?xml version="1.0" encoding="utf-8"?>
<!-- Generator: Adobe Illustrator 19.1.0, SVG Export Plug-In . SVG Version: 6.00 Build 0)  -->
<svg version="1.1" id="Calque_1" xmlns="http://www.w3.org/2000/svg" xmlns:xlink="http://www.w3.org/1999/xlink" x="0px" y="0px"
	 viewBox="0 0 276.1 244" style="enable-background:new 0 0 276.1 244;" xml:space="preserve">
<style type="text/css">
	.st0{fill:#E01220;}
	.st1{fill:#1F7CAD;}
	.st2{fill:#C0BFBF;}
	.st3{fill:#1F7CAD;stroke:#000000;stroke-width:2;stroke-miterlimit:10;}
	.st4{fill:#6DA3C3;}
	.st5{fill:none;stroke:#E01220;stroke-width:3;stroke-miterlimit:10;}
	.st6{fill:#F5FBF9;}
	.st7{fill:#1D1D1B;}
</style>
<g>
	<path d="M274.7,122.3c-2.3,3.8-60.3,107.9-62.5,112.4c-0.4,0.8-2.8,4.8-3.3,5.6c-0.6,0.9-4.3,3.9-5.7,3.8
		c-5.8-0.3-124.3-2.6-127.8-2.6c-3.3,0-5.6-1.1-7.3-4.2c-2.7-4.8-4.3-7.3-7.2-11.9c-1.6-2.7-3-5.5-4.6-8.1c-1.7-2.7-3.7-5.3-5.4-8
		c-4-6.7-7.9-13.4-11.8-20.1c-2.6-4.5-5-9.1-7.7-13.6c-3.1-5.2-6.5-10.2-9.7-15.4c-2.4-4-4.8-8-7-12.1c-2.8-5.3-5.3-10.7-8.1-16
		c-1.9-3.6-4.2-7-6.6-10.9c1-2,2.1-4.5,3.4-6.9c3.5-6.6,7.2-13.2,10.7-19.8c5.3-9.6,10.5-19.3,15.7-28.9c3.3-6,6.3-12.1,9.7-18.1
		c5.9-10.3,11.9-20.5,18-30.7c2.4-4,5.2-7.7,7.8-11.6C66.3,3.7,68.7,0,69.2,0c6,0.1,128.3,0.9,134.1,0.6c2.6,0,5.9,4.9,8,8
		c4.2,6.2,61.4,100.4,64,105.2C276,115,277,118.5,274.7,122.3z M70.1,3.8c-2.4,3.5-4.8,6.9-7,10.3c-2.3,3.5-4.6,7-6.8,10.6
		c-3.1,5.3-6.1,10.7-9.1,16c-3,5.3-6,10.5-8.9,15.8c-2.6,4.7-5.2,9.5-7.8,14.2c-3.9,7-7.8,14-11.6,21.1c-3.1,5.8-6.1,11.6-9.1,17.4
		c-1.7,3.3-3.4,6.6-5.2,9.8c-0.6,1.2-0.6,2.2,0.3,3.4c1.5,2.2,2.7,4.6,3.9,6.9c2.7,5.3,5.3,10.8,8.2,15.9c3.5,6.1,7.3,12,10.9,18
		c3.3,5.6,6.5,11.4,9.8,17c3.7,6.3,7.5,12.5,11.3,18.8c2,3.4,4,6.9,6.1,10.2c1.3,2,2.9,3.8,4.1,5.8c3.2,5.2,6.2,10.4,9.3,15.7
		c0.8,1.4,1.7,2.7,2.5,4.1c0.6,1.1,1.5,1.3,2.6,1.3c3,0.1,117.6,3.1,127.2,2.9c0.6,0,1.1-0.3,1.7-0.2c1.5,0.2,2.2-0.8,2.9-1.9
		c1.3-2.3,2.5-4.7,3.7-7.1c2-3.8,4.2-7.5,6.2-11.2c2.6-4.8,5.1-9.5,7.6-14.3c2-3.9,3.9-7.8,6-11.6c3.5-6.5,7.2-12.9,10.8-19.4
		c4.2-7.5,8.4-15.1,12.6-22.6c3.8-6.8,7.7-13.5,11.5-20.3c2.1-3.8,4.2-7.7,6.2-11.6c0.4-0.8,0.8-2,0.4-2.6c-2-3.9-4-7.8-6.4-11.4
		c-5.7-8.5-56.9-91.6-60.4-97c-1.5-2.3-1.9-3.3-6.4-3.3C192.4,4.5,72.3,3.8,70.1,3.8z"/>
	<g>
		<path d="M156.6,183.7c0,6.6,0,13,0,19.9c2.9-0.3,5.5-0.6,8-0.8c3.2-0.3,4.3-0.6,7.5-0.7c1.9-0.1,3.1,0.1,3.5,1.9
			c0.4,1.8,0.6,4.3,0.1,6.5c-0.3,1.6-16.8,2.4-19.4,1.8c-2.7-0.6-2.5-8.9-2.7-13.5c-0.2-3.8,0-7.6,0-11.5c0-1,0-1.9,0-2.8
			c-9.3,0.9-15.5,0.9-25.1,0.9c-4.1,10.8,2.1,25.6,2.3,27.7c0.1,1.3-20.6,3.6-21.6,3.6s-2-1.5-2.3-4c-0.2-1.7-0.4-2.5,1.5-3
			c2.8-0.7,15-2.4,17.9-2.8c-0.2-3.6-3.2-10.7-1.4-20.8c0.1-0.3,0.5-0.9-0.1-0.9c-9.7-1-21.9-3.6-30.9-8.6c-2.1-1.4-3.2-3.1-2.8-5.6
			c0.6-4.4,1.2-8.8,1.8-13.6c0,0-0.3-0.3-0.6-0.5c-3-2-2.8-4.9-2-7.8c1.1-3.7,2.7-7.3,4-10.9c1.5-4.3,2.9-8.7,4.4-13
			c0.6-1.7,1.4-3.4,2.1-5.1c0.1-0.4,0.4-0.7,0.5-1.1c2.2-5.3,1.4-7.8-3.4-11.1c-1-0.7-2.2-1.3-3.2-2.1c-0.5-0.4-0.8-1.3-0.7-2
			c0-0.3,1.1-0.6,1.7-0.7c2-0.3,4-0.5,6.4-0.8c-1.2-1.7-3.4-3.5-2.2-4.6c1.2-1.1,15-2.5,15-2.5s-1.7-0.9-5.2-2.4
			c-6.2-2.6-13.4-9.9-14.8-23.5c-1.3-12.6,3-22.2,12.6-30.4c9.2-7.8,18.2-9.6,28.9-10.9c14.1-1.6,27.1,5.9,32.6,10.9
			c4.6,4.2,5.9,5.8,8.3,9.3c3,4.3,6,14.3,6,19.6s-2.6,14.3-8.3,20.2c-1.6,1.6-0.6,1.9,0.5,4.8c1,2.9,2.8,7.7,3.5,11.6
			c0.9,4.6,6.5,40.2,6.7,44c0.3,6.5,0.4,13,0.5,19.5c0,0.8,0,1.6-0.1,2.3c-0.4,5-4.1,7.4-8,9.1C174.4,181,160.4,183.1,156.6,183.7z
			 M175.5,102.8c-0.2,0.8-0.4,1.6-0.6,2.5c2.4,3,2.5,21.6,1.7,22.4s-3.2,0.6-4.4,0.8c0,2.7,0.2,4.4,0.2,6.8
			c-1.1,0.2-2.6-0.1-3.9,0.2c1.9,1,1.5,2.5,1.3,4c2.7,0.2,2.7,2.2,2.4,3c0.5,0,0.8,0.1,1.1,0.1c2.5,0.2,2.4,0.2,2.6,2.7
			c0.1,1.1,0.3,2.1,0.4,2.6c1.3,1.2,1.5,2.1,2.5,3c2-1.4,3.3-2.2,3.1-4.9C181.4,140.2,178.7,116,175.5,102.8z M171.2,109.8
			c2,0.5,2.2,11.3,0.9,12.5c-1.3,1.2-41.5,2.5-62,6.5c0.1,0.5,0.1,0.9,0.2,1.6c3.8-0.2,63.4-4.2,64.3-5s0.7-16.7-1.1-17.6
			c-1.8-0.8-63.9,5.6-67.5,5.9c-0.6,0,0,2.6,0,2.6c0.9,0.1,45.6-4.9,50.1-5.5C159.1,110.4,169.2,109.3,171.2,109.8z M180.2,66.1
			c0-7.6-5.9-18.5-11.3-23.5c-3.6-3.3-14.7-11.5-31.1-11.5c-8.5,0-18.2,3.3-21.2,4.8c-5.7,2.7-10.6,6.7-14.3,11.8
			c-2,2.7-3.7,5.9-4.7,9.1c-0.9,2.7-0.9,5.7-0.7,8.5c0.3,5.2,1.6,10.2,3.6,15c1.4,3.2,3.2,6.2,6.4,8.1c4,2.4,8,4.9,12.6,5.9
			c1.7,0.4,3.2,1.1,5,0.8c21.5-2,37.4-4.5,43.1-5.4c0.8-0.1,4.9-3.8,6.1-5.2C178.2,79.3,180.2,73.7,180.2,66.1z M94.4,172.6
			c0.8,1.8,4.1,3.2,6.8,4.2c9.3,3.5,19,5,28.9,5c17.6,0,30.9-1.9,37.2-2.8c2.8-0.4,5.5-1.1,8.2-2.1c1.7-0.6,6.3-3.2,6.9-5.8
			c1.2-5.7,1.1-18.8,0.9-19.4c-4.2,3.5-9.7,4.7-14.8,5c-0.1,1.5-0.8,2.1-2.3,2.4c-3.9,0.7-7.8,1.4-11.6,2.5
			c-3.3,0.9-4.9-0.5-5.2-3.9c-0.1-1.1-0.1-2.3-0.1-3.6c-6.8,0.5-13.3,0.9-19.8,1.3c0.1,0.6,0.1,0.9,0.2,1.2c0.7,3.5,0,4.7-3.5,5.3
			c-3.3,0.6-6.7,0.9-10.1,1.3c-1.5,0.2-3,0.8-4.2-0.9c-0.3-0.4-1.2-0.4-1.9-0.4c-4.4,0.1-10.2-1.3-14.6-3
			C94.8,163.7,93.6,170.7,94.4,172.6z M104.7,153.3c1.5,0.5,61.1-3.6,67.5-4.2c0.6,0,1.1-0.2,2-0.3c-0.4-1-0.4-2.9-0.7-3.7
			c-4.9,0.2-58.2,4-64.7,4.6c-0.8-5.3-1.2-6.9-1-11.7c2.8-0.3,59.5-4.4,62.1-4.6c0.1-0.6-0.2-3.4-0.1-4.2c-4.7,0.4-43.9,3.6-48.8,4
			c-4.8,0.4-9.7,0.6-14.5,1c-3.1,0.3-3.5,0.4-3.4,4.4C103.1,142.7,103.1,152.7,104.7,153.3z M147.8,118.9c1.1,0,1.2,1.6-0.3,1.7
			c-11.2,1.1-32.6,2.8-34,3.4s-1.5,1.8-0.4,1.8s57.1-4.9,57.3-5.7c0.2-0.8-0.3-4.5-0.5-6.7c-0.1-1.3-0.9-1.9-2.2-1.8
			c-1.1,0.1-35.3,4-40.1,4.4c-2.8,0.2-5.6,0.6-8.4,0.8c-2.6,0.3-6.5,0.7-7.7,0.8s-1.9,0.6-1,1.2c0.9,0.7,30-2.6,31.8-2.5
			s1.1,1.7,0.1,1.7c-1.2,0-26.4,2.4-28,2.7c-1.6,0.3-1.2,0.9,0.8,0.8C117.2,121.5,146.6,118.9,147.8,118.9z M110.7,147.4
			c17-1.3,56.3-4.2,58.2-4.2c1.8,0,2.8-1.5-2.2-1c-4.7,0.5-51,3.1-52.5,3c-0.4,0-0.8-0.6-1.2-1c0.1-0.2,0.1-0.4,0.2-0.6
			c2-0.3,51.2-2.8,52.9-2.8c1.7,0,1.9-1.3,0-1.3s-44,2.4-50,2.5c-0.8,0-1.8,0.4-2.2-0.8c0.4-1.2,1.4-0.9,2.2-0.9
			c6.1-0.1,12.1-0.2,18.2-0.3c0.7,0,1.4,0,2.1-0.1c5.5-0.4,11-0.9,16.6-1.3c4.4-0.3,10.8-0.8,13.1-0.8s1.5-1.8-0.4-1.8
			c-1.8,0-54.1,3.8-55.6,3.9C110.2,142.5,110.4,144.8,110.7,147.4z M104.7,118.1c-0.6,1.9-1.1,3.6-1.6,5.3
			c-1.1,4.5-2.1,9.1-3.1,13.7c-0.4,1.6-0.6,3.2-1.1,4.8c-1.5,4.6-2.4,9.2-2.4,14c4.4,3.1,9.1,3.4,14.2,2.9c0-0.5,0-0.9-0.1-1.2
			c-0.1-0.4-0.3-0.8-0.4-1.3c-0.9,0.1-1.5,0.3-2.2,0.4c-0.8,0.1-1.6,0-2.3,0c-2.1-0.1-3.4-1.2-3.8-3.2c-0.1-0.6,0-1.2-0.1-1.8
			c-0.1-2.4-0.2-4.9-0.5-7.3c-0.3-3.3-0.9-6.5,0-9.8c0.5-1.9,1.3-2.9,3.3-3c0.9-0.1,1.9,0,2.9,0c0.2-1.8,0.3-3.3,0.5-5
			c0.7-0.2,2.4-0.1,3-0.3c-0.8-1.4-0.3-2.9,0-4.1c-1.7-0.5-2.8-2-3.2-4.1C106.7,118.1,105.7,118.1,104.7,118.1z M103.5,109
			c1.1,1.7,0.3,2.8,4.4,2.5c4-0.2,13.7-1.1,17.7-1.6c8.7-1,39.3-3.3,46.1-4.6c0.5-1.1,1.1-2.3,1.7-3.6
			C170.9,102.1,109.9,108.4,103.5,109z M170.7,92.2c-1.7,0.2-2.7,0.3-3.7,0.4c-3.7,0.6-60.7,6.6-62.7,7.3c2.3,2.3,4.9,1.7,7.4,1.5
			c7.9-0.7,48.3-4.4,57-6.1C169.2,94.5,169.8,93.7,170.7,92.2z M98.7,105.2c0,0.3,3.3,1.7,4.4,1.6c4.1-0.2,59.2-6.2,64.5-6.7
			c0-0.7,0.1-1.3,0.1-1.8c-3.1,0.3-57.8,5.9-62.7,6.3C103.2,104.8,100.5,104.9,98.7,105.2z M167.3,152.3c0.3,0.6,0.4,1.2,0.5,1.2
			c2.8,0,6.5-0.2,8.8-1.8C174,151.8,170.4,152.3,167.3,152.3z M172.5,93.7c-1,2.8-3.2,6.3-1.8,6.3c0.6,0,3.2-0.7,3.9-0.7
			C174.2,97.6,173.5,96,172.5,93.7z M94.4,147.4c-0.9,2-1.8,4-1.1,6.3C93.8,152.8,94.4,148.6,94.4,147.4z"/>
		<path d="M133.5,79.7c-0.1,1.9-1.7,3.3-3.2,3.1c-1.2-0.2-2.6-1.4-2.6-2.9c0-1.6,1.4-2.9,3.2-2.9C132.2,77,133.6,78.5,133.5,79.7z"
			/>
		<path d="M148.7,82.9c-1.3,0-2.7-1.5-2.7-3c0.1-2,2.2-4,4.3-2.6C153.3,79.3,151.4,82.8,148.7,82.9z"/>
		<path id="" d="M175.5,102.8c-0.2,0.8-0.4,1.6-0.6,2.5c2.4,3,2.5,21.6,1.7,22.4s-3.2,0.6-4.4,0.8c0,2.7,0.2,4.4,0.2,6.8
			c-1.1,0.2-2.6-0.1-3.9,0.2c1.9,1,1.5,2.5,1.3,4c2.7,0.2,2.7,2.2,2.4,3c0.5,0,0.8,0.1,1.1,0.1c2.5,0.2,2.4,0.2,2.6,2.7
			c0.1,1.1,0.3,2.1,0.4,2.6c1.3,1.2,1.5,2.1,2.5,3c2-1.4,3.3-2.2,3.1-4.9C181.4,140.2,178.7,116,175.5,102.8z"/>
		<path id="" d="M94.4,172.6c0.8,1.8,4.1,3.2,6.8,4.2c9.3,3.5,19,5,28.9,5c17.6,0,30.9-1.9,37.2-2.8c2.8-0.4,5.5-1.1,8.2-2.1
			c1.7-0.6,6.3-3.2,6.9-5.8c1.2-5.7,1.1-18.8,0.9-19.4c-4.2,3.5-9.7,4.7-14.8,5c-0.1,1.5-0.8,2.1-2.3,2.4c-3.9,0.7-7.8,1.4-11.6,2.5
			c-3.3,0.9-4.9-0.5-5.2-3.9c-0.1-1.1-0.1-2.3-0.1-3.6c-6.8,0.5-13.3,0.9-19.8,1.3c0.1,0.6,0.1,0.9,0.2,1.2c0.7,3.5,0,4.7-3.5,5.3
			c-3.3,0.6-6.7,0.9-10.1,1.3c-1.5,0.2-3,0.8-4.2-0.9c-0.3-0.4-1.2-0.4-1.9-0.4c-4.4,0.1-10.2-1.3-14.6-3
			C94.8,163.7,93.6,170.7,94.4,172.6z"/>
		<path id="" d="M104.7,118.1c-0.6,1.9-1.1,3.6-1.6,5.3c-1.1,4.5-2.1,9.1-3.1,13.7c-0.4,1.6-0.6,3.2-1.1,4.8
			c-1.5,4.6-2.4,9.2-2.4,14c4.4,3.1,9.1,3.4,14.2,2.9c0-0.5,0-0.9-0.1-1.2c-0.1-0.4-0.3-0.8-0.4-1.3c-0.9,0.1-1.5,0.3-2.2,0.4
			c-0.8,0.1-1.6,0-2.3,0c-2.1-0.1-3.4-1.2-3.8-3.2c-0.1-0.6,0-1.2-0.1-1.8c-0.1-2.4-0.2-4.9-0.5-7.3c-0.3-3.3-0.9-6.5,0-9.8
			c0.5-1.9,1.3-2.9,3.3-3c0.9-0.1,1.9,0,2.9,0c0.2-1.8,0.3-3.3,0.5-5c0.7-0.2,2.4-0.1,3-0.3c-0.8-1.4-0.3-2.9,0-4.1
			c-1.7-0.5-2.8-2-3.2-4.1C106.7,118.1,105.7,118.1,104.7,118.1z"/>
		<path id="" d="M172.5,93.7c-1,2.8-3.2,6.3-1.8,6.3c0.6,0,3.2-0.7,3.9-0.7C174.2,97.6,173.5,96,172.5,93.7z"/>
	</g>
</g>
</svg>
