<?xml version="1.0" encoding="utf-8"?>
<!-- Generator: Adobe Illustrator 19.1.0, SVG Export Plug-In . SVG Version: 6.00 Build 0)  -->
<svg version="1.1" id="Calque_1" xmlns="http://www.w3.org/2000/svg" xmlns:xlink="http://www.w3.org/1999/xlink" x="0px" y="0px"
	 viewBox="0 0 281 249.3" style="enable-background:new 0 0 281 249.3;" xml:space="preserve">
<style type="text/css">
	.st0{fill:#E01220;}
	.st1{fill:#1F7CAD;}
	.st2{fill:#C0BFBF;}
	.st3{fill:#1F7CAD;stroke:#000000;stroke-width:2;stroke-miterlimit:10;}
	.st4{fill:#6DA3C3;}
	.st5{fill:none;stroke:#E01220;stroke-width:3;stroke-miterlimit:10;}
	.st6{fill:#F5FBF9;}
	.st7{fill:#1D1D1B;}
</style>
<g>
	<path d="M66.3,1.4c6.9,0,139.1-1.4,143-1.3c2.4-0.3,3.7,0.9,4.8,2.5c1.2,1.9,2.3,3.9,3.4,5.8c1.9,3.6,28.2,48.4,31.5,54.7
		c5.3,10.2,11.2,20,17.1,29.8c4.6,7.7,8.9,15.7,13.2,23.6c0.9,1.6,1.3,3.5,1.8,5.2c0.1,0.5,0.1,1.2-0.2,1.7
		c-2.5,5.6-5,11.2-7.8,16.7c-1.7,3.5-4,6.7-5.9,10.1c-4.7,8.7-9.2,17.5-13.9,26.2c-4.1,7.7-8.4,15.2-12.7,22.8
		c-2.5,4.4-12.1,21.4-14.3,25.6c-2.1,4-4,8.1-6.1,12c-1.4,2.6-2.9,5.1-4.5,7.5c-0.5,0.7-1.4,1.4-2.2,1.6c-2.2,0.5-4.4,0.9-6.7,1
		c-11.1,0.5-136.7,2.2-137.6,2.2c-5.5-9.1-11-18.2-16.4-27.5c-3.9-6.8-7.6-13.7-11.2-20.6c-2.7-5.1-5.1-10.4-7.8-15.5
		c-2.6-4.9-5.4-9.8-8.1-14.6c-3.7-6.6-7.3-13.2-11-19.7c-1.2-2.2-2.7-4.3-3.9-6.6c-1.3-2.2-2.4-4.5-3.6-6.7
		c-0.7-1.4-1.4-2.8-2.1-4.2c-1.7-3.2-3.3-6.4-5-9.5c3.1-5.3,6.1-10.3,9-15.4c6.4-11.5,12.5-23.1,17.9-35.1
		c2.7-5.9,21.6-40.7,28.1-52.3C58.3,15.8,65.9,2.6,66.3,1.4z M207.5,4.1c-4.5,0-129.7,0.6-136,0.5c-1.6,0-2.6,0.3-3.5,1.9
		c-6.5,11.6-13.1,23.1-19.8,34.7C46.4,44.4,29.6,76,26.9,81.5c-4.2,8.3-8.2,16.7-12.5,24.9c-2.8,5.4-6.1,10.5-9.3,15.6
		c-0.9,1.4-1,2.6-0.2,4.1c2.6,4.9,17.1,31.3,19.9,36.3c4.1,7.4,8.4,14.6,12.3,22c6.2,11.6,12.1,23.3,18.4,34.8
		c4.2,7.6,9,14.9,13.3,22.5c1.3,2.3,2.9,3,5.5,2.7c2.3-0.3,129.5-3.7,136.9-4.3c0.5-1,1.1-2.2,1.8-3.4
		c3.8-7.1,53.4-100.3,56.4-105.8c1.4-2.6,2.9-5.1,4.4-7.6c0.5-0.8,0.5-1.5,0-2.4c-2.1-3.6-4-7.2-6-10.8c-3-5.4-5.9-10.8-8.9-16.2
		c-2.7-5-5.5-9.9-8.3-14.9c-2.7-5-5.4-10-8.1-15c-4.1-7.3-8.2-14.5-12.3-21.7c-2.7-4.8-14.1-22.6-16.7-26.9
		C211.3,11.8,209.6,8.2,207.5,4.1z"/>
	<path d="M192.4,42.4c3.2,5.3,3.2,11.2,3.4,17.1c0.2,5.4,0.1,10.8,0.3,16.2c0.2,5.5,0.7,10.9,0.9,16.4c0.3,6.1,0.6,12.1,0.8,18.2
		c0.2,7.6,2.1,41.2,2.2,41.9c0.3,4.7,0.8,9.4,0.9,14.1c0.1,4.3,0,8.6-0.3,12.9c-0.2,2.9-2.1,4.8-4.8,5.7c-1.7,0.6-3.5,1.1-5.4,1.7
		c0.1,1.9,0,3.8,0.3,5.7c0.2,1.2,0.8,2.3,1.3,3.5c0.6,1.4,0.4,1.9-1.1,2.4c-0.5,0.1-11.9,2.2-19.1,2.8s-23,1.2-34.5,1.1
		c-8.1-0.1-16.2-0.6-24.3-2c-3-0.5-18.8-1.4-23.7-1.5c-1.6-0.1-3.2,0.3-4.8-0.5c-1.3-0.6-2.2-1.3-2.5-2.6c-0.4-1.8-1-3.6-0.9-5.4
		c0.1-7.8,0.3-15.7,0.5-23.5c0.2-8.3,0.5-16.7,0.6-25c0.1-11.3,0-22.7-0.2-34c-0.1-5.6-0.5-11.1-1-16.7c-0.3-4.1-0.9-8.2-1.4-12.2
		c-0.4-4-0.7-8-1.2-12c-0.3-2.5-0.7-5-1-7.5c-0.1-0.9,0.3-1.8,0.5-2.8c2.6-0.1,4.9-0.3,7.3-0.4c0.8-2.7-1-5.6,1.3-8.4
		c2.1-0.2,4.7-0.5,7.3-0.7c9.4-0.6,18.7-1.3,28.1-1.7C129.6,44.6,191.3,42.5,192.4,42.4z M187.3,195c-0.6-1.7-1.2-2.8-1.3-3.9
		c-0.7-4.2-1.3-8.5-1.8-12.8c-0.7-7-1.3-14-1.8-21c-0.5-7.8-0.9-15.6-1.4-23.4c-0.3-5.8-0.7-11.5-1-17.3c-0.1-2.4-2.1-40-2.3-44.1
		c-0.2-3.8-0.5-7.6-0.8-11.4c-0.1-1.7-0.3-3.4-0.5-5.2c-13.4,0-26.5-0.1-39.6,0c-7.2,0.1-14.5,0.7-21.7,1.1
		c-8.6,0.5-17.2,1-25.8,1.5c-2.9,0.2-5.8,0.5-8.6,0.8c0.5,5.1,1,10.2,1.5,15.2c0.9,9.1,2.6,18.2,2.5,27.5c0,0.4,0.2,0.8,0.2,1.2
		c0.3,3.1,0.6,6.2,0.7,9.3c0.1,3.9,0,7.8,0,11.7c0,7.2,0,14.3,0,21.5c0,3-0.3,6-0.4,9c-0.1,7.2-0.1,14.3-0.2,21.5
		c-0.1,3-0.4,6.1-0.5,9.1c0,2.4,0.2,4.8,0.3,7.4c3.9,0,7.4,0,11,0c5.6,0,11.1,0.4,16.7,1.3c5.2,0.9,10.5,1.2,15.7,1.8
		c2.5,0.3,5,0.9,7.6,0.9c8.6,0,17.2-0.1,25.8-0.4c5.8-0.1,11.5-0.5,17.3-0.8C181.5,195.4,184.1,195.2,187.3,195z M180.7,55
		c1,1.3,1.7,3.1,2,4.8c0.5,2.6,0.6,5.2,0.7,7.9c0.3,7.8,0.5,15.7,0.8,23.5c0.2,5.5,0.7,10.9,0.9,16.4c0.3,7.9,0.3,15.8,0.7,23.7
		c0.4,8.5,1.2,17,1.8,25.5c0.4,5.5,0.8,10.9,1.3,16.4c0.2,2.3,0.5,4.6,0.8,6.8c0.3,0.1,0.4,0.2,0.4,0.2c0.5-0.1,0.9-0.2,1.4-0.3
		c4.2-0.1,3.9-1.8,3.7-4.7c-0.2-3.2-0.4-6.4-0.5-9.7c-0.1-5-0.1-10-0.3-15c-0.4-7.5-3.4-82.9-3.5-84.1c-0.4-5.2-0.8-10.3-1.3-15.5
		c-0.1-1.5-0.3-3.1-0.5-4.4c-34-0.4-67.7,1.7-101.4,3.8c0.1,1.8,0.2,3.3,0.3,5.2c1.1,0,2.2,0,3.2,0c3-0.1,18.3-1.1,22.9-1.3
		c9-0.5,33.2-1.2,36.3-1.2c7.2,0,14.5-0.2,21.7-0.3C173.5,52.6,179.6,53.7,180.7,55z"/>
	<path d="M219.6,92.4c2.1-0.1,3.7,0,5.3-0.3c3.2-0.5,6.3,0,9.4,0c2.2,0,2.3,0.6,2.5,2.9c0.2,2.4,0.6,4.8,1,7.2
		c0.1,0.4,0.3,0.8,0.3,1.1c0.1,1,0.5,2.3-1,2.7c-1.2,0.4-2.7-0.8-2.9-2.3c-0.3-2.1-0.4-4.3-0.7-6.4c-0.1-0.6-0.2-1.1-0.3-1.7
		c-1.1-0.4-1.8-0.2-1.9,1c-0.1,0.7-0.1,1.4,0,2.1c0.8,9.2,1.9,18.3,1.8,27.5c0,2.7,0.5,5.4,0.8,8.2c0,0.2,0.1,0.4,0.1,0.6
		c-0.8,4-1.5,8-2.5,12c-0.1,0.6-1.4,1.3-2,1.2c-0.7,0-1.5-0.8-1.8-1.5c-1.4-2.8-2.6-5.7-3.8-8.6c-0.2-0.5-0.4-1.1-0.4-1.7
		c-0.1-7.9-1.3-15.7-2.2-23.6c-0.5-4.4-0.5-8.8-0.9-13.2c-0.1-1.7-0.4-3.5-0.7-5.2C219.7,93.8,219.6,93,219.6,92.4z M223.8,102.7
		c0.7,10.7,2.2,21.1,3.4,31.5c1.1,0,1.8,0,2.4,0c0.2,0,0.3-0.2,0.6-0.3c-1-10.5-0.8-21-2.1-31.6
		C226.6,102.4,225.3,102.6,223.8,102.7z M228,95.9c-1.5,0-2.9,0-4.5,0c0.1,1.3,0.2,2.6,0.3,4c1.6-0.2,2.9-0.4,4.3-0.5
		C228,98.1,228,97,228,95.9z M227.5,137.6c-0.1,0.2-0.2,0.3-0.2,0.5c0.6,0.4,1.2,0.9,1.8,1.3c0.3-0.6,0.7-1.1,1.2-2
		C229,137.5,228.2,137.5,227.5,137.6z"/>
	<path d="M46.8,130.2c1,1.1,6.4,10.2,8.7,14c2.8,4.6,5.8,9,8.8,13.5c1.2,1.8,2.3,3.6,2.9,5.7c0.8,2.8,1.9,5.5,2.9,8.3
		c0.3,0.9,0.6,1.9,0.6,2.8c0,0.7-0.2,1.7-0.6,2c-0.5,0.4-1.6,0.4-2.2,0.1c-4.7-3-9.5-5.8-12.6-10.6c-2.8-4.2-5.6-8.5-8.4-12.7
		c-2-2.9-4.1-5.8-6.1-8.6c-0.5-0.7-0.9-1.5-1.4-2.2c-1-1.6-0.8-3,0.5-4.5C42,135.6,44.2,133.1,46.8,130.2z M63.4,162.4
		c-5.6-9.2-11-18.2-16.5-27.2c-1.8,2.1-3.6,4.2-5.4,6.4c6.6,7.9,11,17.1,17.7,24.7C60.7,164.8,62,163.6,63.4,162.4z M63,170.1
		c1-0.8,1.9-1.6,2.8-2.3c-0.3-0.7-0.6-1.3-1-2c-1,1.1-2,2-3,3.1C62.2,169.2,62.5,169.6,63,170.1z"/>
	<path d="M162,179.6c1.6,2.2,4.7,2,4.2,5.3c-1.2-0.3-2.4-0.6-3.6-0.8c-4.7-1-9.4-2-14.1-2.9c-0.7-0.1-1.6,0.4-2.3,0.8
		c-1.6,1.1-1.8,1.1-2.9-0.6c-1-1.6-1.8-1.6-3,0c-0.6,0.8-0.8,2.2-2.3,1.9c-0.9-0.2-1.1-1.3-0.8-3.4c-4.2-0.8-8.4-1.3-12.7-1.2
		c-1.4,0-2.8-0.1-4.1-0.4c-1.8-0.5-1.8-0.6-1.4-3.1c7.1,0.3,14.2,0.6,21.5,0.9c1.3-1.8,2.7-3.7,4.1-5.6c2.6,1.2,1.5,3.4,1.7,5.2
		c2.5,0.4,5.2,1.9,6.8-2c0.9,1.1,1.4,1.8,2.2,2.7c1-1.2,2-2.5,3.2-4.1c0.9,1.1,1.8,1.7,1.8,2.3c0.2,1.7,1.2,2.1,2.6,2.2
		c4.6,0.2,9.2,0.4,13.8,0.6c1.3,0.1,2.7-0.2,3.4,1.2c0.3,0.5,0.5,1.3,0.3,1.8c-0.1,0.3-1,0.6-1.5,0.5c-3.5-0.2-7-0.6-10.5-0.9
		C166.4,179.9,164.5,179.8,162,179.6z M159,180.3c0-0.2,0.1-0.5,0.1-0.7c-0.7-0.1-1.4-0.3-2.1-0.4c0,0.2-0.1,0.5-0.1,0.7
		C157.6,180,158.3,180.1,159,180.3z"/>
	<path d="M160.2,99c0.3,0.6,0.6,1.1,0.6,1.5c0.3,1.6-0.2,2.2-1.8,2.2c-2.2,0-4.3-0.1-6.5-0.1c-9.3-0.2-18.6-0.4-27.9-0.6
		c-9-0.2-18-0.3-27-0.4c-1.7,0-3.3,0-5.2,0c-0.2-1.2-0.4-2.3-0.6-3.7C114.9,98.2,137.6,98.6,160.2,99z"/>
	<path d="M93,124.8c21.3,2.2,42.8-0.1,64.5,2.2c0.1,0.2,0.5,0.7,0.7,1.2c0.7,1.9,0,2.8-2,2.7c-2.5-0.2-5-0.5-7.6-0.7
		c-4.4-0.3-8.8-0.7-13.1-0.9c-3.1-0.1-6.2,0.4-9.3,0.3c-9-0.2-18.1-0.6-27.1-0.9c-1.5,0-2.9,0.2-4.4,0
		C92.1,128.4,91.9,127.8,93,124.8z"/>
	<path d="M155.8,152.2c0.2,1.3,0.4,2.3,0.5,3.4c-0.6,0.2-0.9,0.5-1.3,0.5c-3.3-0.3-6.6-0.6-9.9-0.8c-3.2-0.2-6.5-0.2-9.7-0.4
		c-4.7-0.2-9.3-0.4-14-0.6c-5.5-0.2-10.9-0.2-16.4-0.3c-3.8,0-7.6,0.1-11.4,0c-2.7-0.1-2.8-0.4-2.2-3.4
		C112.8,149.9,134.1,151.4,155.8,152.2z"/>
	<path d="M91.8,78.6c-0.1-1-0.3-2-0.4-3.3c3.1-0.1,5.9-0.4,8.7-0.4c6.8,0,13.5-0.1,20.2-1c2.3-0.3,4.7,0.2,7,0.1
		c3.6-0.1,7.2-0.2,10.8-0.4c3.8-0.2,7.6-0.4,11.4-0.6c1,0,2-0.1,2.9-0.2c1.7-0.1,2.3,0.3,2.6,1.9c0.2,1.2-0.2,1.8-1.6,1.8
		c-4.7,0.2-9.3,0.4-14,0.5c-5.6,0.1-11.1,0.1-16.7,0.3c-4.7,0.2-9.4,0.7-14,0.9c-4.3,0.2-8.6,0.2-12.9,0.3
		C94.7,78.6,93.5,78.6,91.8,78.6z"/>
	<path d="M146.3,112.2c0.2,1.2,0.4,2.3,0.6,3.8c-18.4-0.7-36.4-0.1-54.5-1.1c-0.1-1.3-0.2-2.4-0.3-3.5
		C110.1,112.2,128,111.9,146.3,112.2z"/>
	<path d="M93,87.3c3.6,0,7.1,0,10.6,0c11.4-0.1,22.8-0.3,34.1-0.5c1.4,0,2.7-0.1,4.1,0c1.4,0.1,2.2,1.2,2,2.6
		c-0.2,1.4-1.2,1.3-2.2,1.3c-7.5,0-14.9,0-22.4,0c-5.9,0-11.7,0.1-17.6,0.3c-1.9,0-3.9,0.2-5.8,0.4C93,91.6,92.5,91.1,93,87.3z"/>
	<path d="M92.3,139.8c2.7,0,5.1-0.1,7.5,0c7.6,0.4,15.2,0.8,22.8,1.2c5.6,0.3,11.3,0.4,16.9,0.6c1.8,0.1,2.6,0.6,2.7,1.9
		c0.1,1.2-0.5,2-1.6,1.9c-5.7-0.3-11.3-0.6-16.9-0.8c-6-0.3-12.1-0.6-18.1-0.8c-3.5-0.2-7-0.2-10.4-0.4
		C92.3,143.2,92.3,143.1,92.3,139.8z"/>
	<path id="" d="M180.7,55c1,1.3,1.7,3.1,2,4.8c0.5,2.6,0.6,5.2,0.7,7.9c0.3,7.8,0.5,15.7,0.8,23.5c0.2,5.5,0.7,10.9,0.9,16.4
		c0.3,7.9,0.3,15.8,0.7,23.7c0.4,8.5,1.2,17,1.8,25.5c0.4,5.5,0.8,10.9,1.3,16.4c0.2,2.3,0.5,4.6,0.8,6.8c0.3,0.1,0.4,0.2,0.4,0.2
		c0.5-0.1,0.9-0.2,1.4-0.3c4.2-0.1,3.9-1.8,3.7-4.7c-0.2-3.2-0.4-6.4-0.5-9.7c-0.1-5-0.1-10-0.3-15c-0.4-7.5-3.4-82.9-3.5-84.1
		c-0.4-5.2-0.8-10.3-1.3-15.5c-0.1-1.5-0.3-3.1-0.5-4.4c-34-0.4-67.7,1.7-101.4,3.8c0.1,1.8,0.2,3.3,0.3,5.2c1.1,0,2.2,0,3.2,0
		c3-0.1,18.3-1.1,22.9-1.3c9-0.5,33.2-1.2,36.3-1.2c7.2,0,14.5-0.2,21.7-0.3C173.5,52.6,179.6,53.7,180.7,55z"/>
	<path id="" d="M223.8,102.7c0.7,10.7,2.2,21.1,3.4,31.5c1.1,0,1.8,0,2.4,0c0.2,0,0.3-0.2,0.6-0.3c-1-10.5-0.8-21-2.1-31.6
		C226.6,102.4,225.3,102.6,223.8,102.7z"/>
	<path id="" d="M63.4,162.4c-5.6-9.2-11-18.2-16.5-27.2c-1.8,2.1-3.6,4.2-5.4,6.4c6.6,7.9,11,17.1,17.7,24.7
		C60.7,164.8,62,163.6,63.4,162.4z"/>
</g>
</svg>
