<?xml version="1.0" encoding="utf-8"?>
<!-- Generator: Adobe Illustrator 19.1.0, SVG Export Plug-In . SVG Version: 6.00 Build 0)  -->
<svg version="1.1" id="Calque_1" xmlns="http://www.w3.org/2000/svg" xmlns:xlink="http://www.w3.org/1999/xlink" x="0px" y="0px"
	 viewBox="0 0 192.8 243.1" style="enable-background:new 0 0 192.8 243.1;" xml:space="preserve">
<style type="text/css">
	.st0{fill:#6D9DBD;}
	.st1{fill:#F2A73B;}
	.st2{fill:#6DA3C3;}
	.st3{fill:none;}
	.st4{fill:none;stroke:#F2A73B;stroke-width:3;stroke-miterlimit:10;}
	.st5{fill:#6DA1C1;}
	.st6{fill:#F6AB3B;}
	.st7{fill:none;stroke:#F6AB3B;stroke-width:3;stroke-miterlimit:10;}
	.st8{fill:#F8AD3B;}
	.st9{fill:#C6C6C6;}
	.st10{fill:#F4901E;}
	.st11{fill:none;stroke:#F8AD3B;stroke-width:3;stroke-miterlimit:10;}
	.st12{fill:#FFFFFF;}
	.st13{fill:#FFFFFF;stroke:#C6C6C6;stroke-width:3;stroke-miterlimit:10;}
	.st14{fill:none;stroke:#C6C6C6;stroke-width:3;stroke-miterlimit:10;}
</style>
<g>
	<path id="c28" class="st2" d="M187.4,13l-8.5-2.5l-46.1-2.3L81,9.6l1.8,11.1l-9.6,8.9l-19,4.4l-16,3.6L25.7,50.1l-11.3,4.4
		l-9.2,1.9L4.8,220.2l2,11.1l6.5,8.7l19.8-2h33.8l110.8,1.8l5.8-6.7l2.9-36.7l0.5-48.1l0.4-58.4l2.2-28.1L187.4,13z M151.4,213
		l-9.1-4l-8.9-12.2l-9.8-3.9l-20.4,20.5l-26.6-2.2L25.7,209l-6.4-0.7l5-8.3l18.6-10l13-14.6l4.6-20.2v-23.3l-2.8-15.7L44.1,108
		L20.9,97.2l-5.4-5.2V77.9l5.6-3.8L44.3,83h15.6l-0.6-12.6l-1.1-8.3l9.4,3.2l9,2.7L81,54.2L86,43l16.6-1l16.5,10.4l20.1,11.2
		l19.5-0.8l9.5,9.7l4.9,23.5l-8.2,10.3L147.6,120h6.3l10,6.8l1.7,30.3l12.6,33l4.2,13.8L151.4,213z"/>
	<g>
		<path d="M176.1,242.3c-2.2,0.3-4.3,0.5-6.5,0.8c-0.5,0.1-1,0-1.6,0c-4.3-0.1-8.5-0.3-12.8-0.4c-1,0-2.1,0.3-3.1,0.3
			c-3.2-0.1-6.4-0.3-9.5-0.4c-7.5-0.2-15-0.3-22.5-0.5c-4.9-0.1-9.9-0.4-14.8-0.6c-0.9,0-1.8,0.3-2.8,0.3c-2.3,0-4.6-0.2-6.9-0.2
			c-4.8,0-9.6,0.2-14.4,0.2c-5,0-10.1-0.2-15.1-0.2c-3.5,0-7,0.4-10.5,0.4c-3.4,0-6.8-0.1-10.1-0.7c-4-0.7-8-0.2-12,0.1
			c-4.1,0.2-8.2,0.7-12.3,0.9c-4.5,0.1-8.7-1.1-12.6-3.5c-3.6-2.1-5.9-4.9-6-9.1c0-1.5,0.3-3,0.3-4.5c-0.1-2.9-0.5-5.9-0.5-8.8
			c-0.1-5.2,0-10.4,0-15.7c0-1.8,0-3.6-0.1-5.4c-0.2-3.6-0.4-7.2-0.6-10.8c-0.7-10.4-2-20.8-1.3-31.3c0.4-6.2,0.7-12.4,0.9-18.7
			c0.1-4.3-0.2-8.6-0.2-12.9c0-2.7,0.2-5.3,0.2-8c0-5.9,0-11.9,0-17.8c0-2.6,0.4-5.2,0.4-7.8c0.1-2.6,0-5.2-0.1-7.8
			c-0.3-5.5-0.7-11-0.9-16.5c-0.1-3.7,0.1-7.4,0.1-11.2c0-7.2-0.4-14.5,0.1-21.6c0.6-8,0.8-16,2.9-23.8c0-0.2,0.1-0.4,0.1-0.5
			C3.5,4,4.8,3.4,7,2.7C12,1.1,17.1,0.5,22.3,0c0.8-0.1,1.7,0.3,2.6,0.4c5.2,0.4,10.2,1.8,15.3,3.2c2.7,0.8,5.6,1.1,8.4,1.4
			c6.7,0.7,13.4,1.5,20.1,1.7C81.3,7.1,94,7,106.7,7.2c4.5,0.1,9,0.7,13.6,0.9c4.1,0.2,8.3,0.1,12.4,0.1c4.5,0,9.1,0.1,13.6,0
			c5.5-0.1,10.9-0.3,16.4-0.3c7.1,0,14.1,0.2,21.2,0.5c1.2,0,2.5,0.9,3.5,1.6c2.8,2,3.3,5.1,3.3,8.1c0,4.9-0.4,9.8-0.4,14.6
			c0,4.5,0.4,8.9,0.7,13.4c0.2,3.1,0.5,6.3,0.8,9.4c0.2,1.8,0.5,3.6,0.6,5.4c0.2,3.8,0.4,7.5,0.3,11.3c-0.3,9.1-0.7,18.2-1.1,27.4
			c-0.3,6.9-0.5,13.8-0.9,20.7c-0.4,5.4-1.4,10.9-1.5,16.3c-0.4,10.8-0.3,44.1-0.3,49.9c0,5.5,0,11.1-0.2,16.6
			c-0.3,8.3-0.6,16.6-1.1,24.9c-0.2,3.1-0.8,6.2-1.3,9.3c-0.1,0.4-0.5,0.7-0.8,1.1c-0.3,0.3-0.7,0.6-0.9,1c-0.6,2.2-1.3,2.9-3.6,3
			c-1.6,0.1-3.3,0-4.9,0C176.1,242.4,176.1,242.3,176.1,242.3z M21.4,207c1,0.2,1.5,0.4,2.1,0.4c3.2,0,6.4,0,9.6,0
			c5.1,0,10.1-0.4,15.2-0.1c9,0.6,18,1.6,26.9,2.3c3,0.3,6.2-0.1,9.1,0.6c5,1.2,10.1,0.7,15.1,0.8c0.5,0,1.3-0.2,1.6-0.5
			c1.7-2,3.4-4,4.9-6.1c3.3-4.6,5.9-9.8,11.5-12.1c2.1-0.9,4.3-1.5,6.5-2.2c0.4-0.1,1.1,0,1.5,0.3c2.4,1.4,4.9,2.7,7.1,4.4
			c4.3,3.2,7,7.8,9.9,12.2c1.9,2.9,4.7,4.6,8.2,4.1c1.8-0.3,3.5-0.9,5.3-1.1c3.9-0.5,7.5-1.6,11-3.6c2.9-1.7,6-2.5,9.3-1.7
			c0.4,0.1,1.1-0.3,1.3-0.7c1.1-2,0.4-3.8-0.6-5.8c-1.5-2.9-3.3-5.9-3.8-9.1c-1-5.2-3.6-9.5-6.1-13.9c-2.2-3.7-4.2-7.5-4.9-11.8
			c-0.4-3-0.8-6-0.6-9c0.3-5.7-1.7-11.3-0.6-17c0.2-0.9-0.2-1.8-0.3-2.8c-0.1-0.9-0.3-1.7-0.2-2.6c0.4-3.9-1.3-7-3.8-9.7
			c-0.4-0.4-1.4-0.7-1.9-0.5c-2.5,1.1-4.6,2.8-6.1,5.2c-1.4,2.2-2.8,4.4-3.7,6.9c-1.1,3-2.5,5.9-2.8,9.2c0,0.5-0.3,1.1-0.6,1.3
			c-0.4,0.2-1.1,0-1.6-0.2c-1.5-0.6-1.5-2.2-2-3.5c-0.9-2.8-1.7-5.7-1-8.7c0.6-2.7,1.2-5.4,2-8c2.2-6.8,6.9-11.7,12.3-16
			c2.4-1.9,5.3-3,8-4.6c2.7-1.6,5.4-3.2,7.8-5.2c1.2-1,2.5-2.8,2.4-4.1c-0.3-4.1-1.1-8.2-2-12.3c-0.7-3.1-1.7-6.2-2.9-9.2
			c-1-2.6-2-5.5-5.3-6c-2.1-0.3-4.3-0.8-6.4-0.6c-3.6,0.2-7.2,0.8-10.7,1.3c-5.9,0.9-10.9-1-15.4-4.9c-1.9-1.6-4.2-2.8-6.3-4.3
			c-2.3-1.6-4.9-3-6.8-5c-3.5-3.9-8-6.6-12.5-8.9c-1.9-1-4.8-0.1-7.3,0.1c-0.8,0.1-1.5,0.6-2.3,0.8c-1.8,0.4-3.9,0.3-5.5,1.1
			c-3.2,1.6-3.7,5.2-5.2,8.1c0,0.1,0,0.2,0,0.3c-0.3,2.5-0.6,5.1-0.9,7.6c-0.1,0.9-0.6,1.8-0.6,2.7c0,1.9-1.9,5.1-3.7,5.6
			c-2.4,0.6-4.8,0.7-7-0.8c-2.5-1.6-4.9-3.3-7.3-4.9c-0.6-0.4-1.4-0.6-2.6-1c0.2,2.5-0.1,4.6,0.5,6.3c0.5,1.3,1,2.3,1,3.8
			c0.1,3,0.9,6,1.4,9.4c-1.5,0.8-3.2,2-5.1,2.7c-1.3,0.5-2.9,0.5-4.3,0.8c-4.5,1.1-8.8,0.2-12.9-1.6c-2.5-1-4.9-2.4-7.3-3.6
			c-3.8-2-7.8-2.9-12.1-2.8c-1.2,0-1.9,0.4-2.2,1.5c-0.4,1.4-0.7,2.8-1.1,4.2c-1.4,4.9,0.5,8.8,4.8,11c4.4,2.2,9,3.8,13.5,5.8
			c4.4,2,8.7,4.2,13,6.4c2.2,1.1,4.3,2.2,6.4,3.5c2.9,1.8,4.8,4.4,5.6,7.8c0.8,3.7,2.5,7.3,2.8,11c0.6,6.7,0.7,13.5,0.8,20.2
			c0,3.4-0.5,6.7-0.9,10.1c-0.2,1.7-0.6,3.3-1.1,4.9c-1.4,4-2.3,8.4-4.6,11.9c-4.4,6.7-9,13.5-16.3,17.7c-2.9,1.7-5.6,4.1-8.8,4.9
			c-3.8,0.9-6,3.9-9.2,5.5C22.3,205.3,22,206.1,21.4,207z M7.2,51.8c2.7-0.2,5.5-0.1,8.2-0.5c4-0.5,7.5-2.2,10.3-5.1
			c2.7-2.8,5.3-5.7,7.9-8.5c0.3-0.4,0.8-0.7,1.2-1c1.6-1,3.2-2,4.8-3c1-0.6,1.9-1.4,3-1.6c3.5-0.8,7-1.4,10.6-1.9
			c6-0.9,12-1.6,17.5-4.2c3-1.4,5.7-3.2,7-6.4c0.4-1,0.9-1.9,1.4-2.8c1.5-2.8,0.2-5.6-2.7-5.8c-4-0.2-8-0.4-12-0.6
			c-2.8-0.1-5.6-0.2-8.4-0.4c-3-0.2-6-0.5-9-0.8C43.4,8.7,39.8,9,36.3,7.5c-2.4-1-4.9-1.7-7.5-2.3c-5.9-1.3-11.7,0.1-17.5,1.1
			c-2,0.3-3.7,1.6-4.2,3.7c-0.4,1.6-0.4,3.3-0.4,5c0,1.2,0.3,2.5,0.1,3.6c-0.9,5-1,10.1-0.9,15.2C6.1,39.9,6.7,51.8,7.2,51.8z
			 M7,227.2C7,227.2,7.1,227.3,7,227.2c0.4-0.1,0.7-0.2,1-0.4c2.3-1.4,4.6-1.5,7.1-0.3c4,1.9,8.2,2.2,12.3,0.1
			c3.6-1.9,7-1.8,10.2,0.8c2.4,1.9,4.9,1.9,7.8,0.7c3.3-1.4,6.7-1.7,10.1,0.7c3,2.1,6.1,2.4,9.6,0.5c1.7-0.9,4.1-1,6.2-0.9
			c1.6,0.1,3.3,0.8,4.7,1.6c1.9,1.1,3.7,1,5.7,0.5c1.5-0.4,3.2-0.4,4.5-1.1c3.2-1.7,6.3-1.5,8.8,1.2c1.4,1.5,4.3,2,5.9,0.9
			c2.4-1.7,5.3-2.2,8.1-2.4c1.3-0.1,2.7,0.8,4,1.3c1.5,0.6,2.9,1.4,4.4,1.8c2.9,0.7,5.6-0.2,8.2-1.5c2.4-1.2,4.8-1.7,7.2,0.2
			c0.4,0.3,0.9,0.5,1.4,0.8c1.4,0.7,2.7,0.7,4.2-0.3c2.9-1.9,6-3.3,9.5-1.1c1.5,1,3.2,0.9,4.7,0.1c0.9-0.5,1.5-1.5,2.4-2
			c0.8-0.4,2.2-0.7,2.6-0.3c2.1,2.2,4.4,2.1,7,1.2c2.1-0.7,4.2-0.7,6.3,0.3c0.7,0.3,1.7,0.4,2.5,0.2c2.8-0.7,5.6-1.6,8.5,0.1
			c0.4,0.2,1,0,1.5,0c0.1-2.5,0.3-4.9,0.3-7.3c0-0.4-0.6-0.9-1-1c-0.6-0.2-1.3-0.1-1.9,0c-1.9,0.4-3.3-0.3-4.5-1.6
			c-2-2.2-2.4-2-4.7-0.1c-1.8,1.4-4,2.6-6.2,3.1c-1.9,0.4-3-1.7-4.1-3.1c-0.1-0.1-0.2-0.2-0.4-0.4c-0.8-0.9-1.7-1-2.7-0.2
			c-1.1,0.8-2.2,1.6-3.4,2.4c-2.2,1.5-4.7,1.6-6.7,0.1c-2.6-2-5.3-2.4-8.2-0.7c-1.2,0.7-2.4,1.4-3.7,1.9c-0.8,0.3-1.8,0.4-2.6,0.3
			c-2.6-0.4-4.4-2.2-5.8-4.2c-0.7-1-1.6-1.4-2.5-0.8c-1.4,0.9-2.7,2-4,3.1c-0.6,0.5-0.9,1.4-1.5,1.6c-1.4,0.6-6.7-0.1-7.9-2
			c-0.3-0.5-1.3-0.9-1.8-0.7c-1.7,0.5-3.4,1.3-5.1,1.8c-0.9,0.3-1.9,0.5-2.9,0.6c-0.9,0.1-1.8,0.2-2.6,0c-1.5-0.4-2.9-1.1-4.4-1.5
			c-2.4-0.7-4.8-0.9-7,0.5c-3.6,2.4-6.9,1.1-10-0.9c-2.7-1.7-3.7-1.8-6.2,0.5c-0.4,0.4-1,0.8-1.5,0.8c-2.8,0.2-5.6,0.6-7.8-1.8
			c-1-1-2.4-1.4-3.8-0.7c-1,0.5-2,0.8-3,1.3c-3.8,1.7-7.3,1-10-1.8c-2.1-2.1-3.9-2.1-6.3-1.1c-3.5,1.5-7,2.1-10.4-0.3
			c-0.3-0.2-0.7-0.5-1.1-0.5c-0.8-0.1-1.6-0.2-2.3,0.1c-1.7,0.6-3.2,1.6-4.9,2.1c-1.6,0.5-3.3,0.3-4.8-0.8c-0.8-0.6-1.7-1.2-2.6-1.7
			c-1.7-0.9-6.2,0.4-6.3,2C6.9,221.5,7,224.3,7,227.2z M184.4,207.3c-3.5,0.9-6.7,1.9-9.9,2.7c-5.7,1.4-11.6,2.1-17,4.7
			c-1.4,0.7-3.1,0.7-4.7,1.1c-1.9,0.5-3.2-0.8-4.6-1.5c-3-1.7-6.1-3.2-9-5.2c-2.2-1.5-3-1.8-5.1-0.2c-2,1.5-3.4,1.4-5.2-0.2
			c-0.7-0.6-1.5-1.6-2.3-1.8c-2.9-0.4-5.8,0.3-7.8,2.2c-1.6,1.5-3.1,3-5.3,3.6c-2.9,0.9-5.9,1.6-8.8,2.5c-3.2,1-6.3,0.3-9.5-0.1
			c-2.7-0.3-5.3-0.4-8-0.6c-3.1-0.3-6.1-0.8-9.2-0.9c-2.4-0.1-4.9,0.3-7.3,0.4c-2.5,0.2-5,0.3-7.5,0.5c-1,0-2,0.1-2.9-0.1
			c-3.8-0.6-7.6-1.4-11.5-1.9c-2.6-0.3-5.3,0-8-0.2c-3.8-0.2-7.5-0.6-11.3-0.9c-2.9-0.2-5.9-0.1-8.8-0.6c-3.7-0.6-5.1-2.4-3.5-6.1
			c0.7-1.6,2.1-3,3.2-4.4c0.3-0.4,0.6-0.7,0.9-1.1c-0.1-0.1-0.2-0.3-0.3-0.4c-1.4,0.5-2.8,1-4.1,1.7c-1,0.5-1.7,0.3-2.5-0.5
			c-0.8-0.8-1.5-1.7-2.5-2.3c-0.6-0.4-1.5-0.5-2.2-0.4c-0.9,0.1-1.8,0.6-2.8,0.9c0.2,5.2,0.5,10.3,0.7,15.2c1.7-0.1,3.3-0.4,4.8-0.1
			c1.2,0.2,2.5,1.1,3.5,1.9c2,1.6,4,1.7,6,0.2c2.6-1.9,5.1-2.9,8.2-0.3c1.8,1.5,4.4,2,6.8,0.2c0.8-0.6,1.8-0.8,2.8-0.9
			c2.2-0.2,4.5-0.8,6.2,1.3c2.6,3.3,6.2,4,10.2,1.7c2.2-1.2,4.4-1.4,6.6,0c0.8,0.5,1.6,1,2.3,1.5c1.6,1,3.8,0.9,5.3-0.4
			c2.4-2.1,5.5-2.3,8.1-0.4c2.8,2.1,5.7,2.6,9,1c1.5-0.7,3.5-1.1,5.2-1c2,0.1,4,0.9,5.9,1.5c2.8,0.9,5.4,0.4,7.8-1.1
			c2.6-1.7,5.8-1.3,7.8,1.1c1.1,1.3,4.4,1.1,5.3-0.3c1.4-2.1,3.5-3.2,5.9-3.6c1.9-0.4,3.4,0.3,4.4,2c1.6,2.7,3.7,3.4,6.5,2
			c0.6-0.3,1.2-0.5,1.7-0.8c2.9-1.4,6-3,8.9-0.9c3.2,2.3,5.9,2.1,8.7-0.4c0.3-0.3,0.8-0.5,1.2-0.7c2.4-1.3,4.9-1,6.3,1.3
			c1.1,1.9,2.5,1.9,4.1,1.2c1.3-0.5,2.4-1.4,3.5-2.3c2.4-1.9,5.1-2.6,7.1,0.5c0.3,0.4,0.8,0.9,1.2,1c1.6,0.1,3.1,0,4.9,0
			c0.2-3.2,0.3-6.3,0.5-9.5C184.5,208.4,184.4,207.9,184.4,207.3z M186.7,39.3c-0.6,0-1,0-1.4,0c-1.5-0.1-3.5,0.2-4.4-0.6
			c-1.8-1.6-3.5-1.2-5.1-0.4c-2.9,1.5-5.4,0.8-8-0.7c-0.2-0.2-0.5-0.3-0.7-0.5c-2-1.2-3.2-1-4.7,0.7c-0.4,0.4-1,0.8-1.6,0.8
			c-2.1,0-4.2-0.3-5.6-2.1c-1.2-1.5-2.1-1.2-3.5-0.2c-1.2,0.8-2.7,1.2-4.1,1.5c-1.2,0.2-2.6,0.2-3.8,0c-0.7-0.1-1.4-0.6-2.1-1
			c-0.7-0.4-1.4-1.1-2.1-1.2c-1.5-0.1-3,0.2-4.4,0.4c-2,0.3-3.9,1.5-6-0.5c-2.7-2.6-3.9-2.4-7.2-0.3c-2.8,1.8-5.5,2.1-8-0.4
			c-2.5-2.5-4.9-2.2-7.2,0.6c-1.3,1.6-4.3,1.6-5.3,0c-1.2-1.8-3.5-2.5-5.6-1.7c-2.2,0.8-4.5,1.5-6.7,2.2c-0.5,0.1-1.1,0.1-1.5-0.1
			c-1.7-0.7-3.5-1.4-5.1-2.4c-2-1.1-3.9-1.4-5.9-0.2c-0.9,0.5-2,0.8-3.1,1.2c-0.3,0.1-1,0.1-1.1-0.1c-0.9-2-2.3-0.9-3.4-0.5
			c-4.1,1.3-8.1,2.8-12.5,2.9c-1.8,0-3.6,0.4-5.5,0.6c2.8,2.8,5.8,3.6,9.2,2.4c1.6-0.6,3.3-1.1,5-1.7c3.8-1.3,7.5-1.1,11,1.1
			c1.8,1.2,3.5,1.1,5.2-0.4c1.8-1.6,5.5-2.1,6.9-1c3.2,2.4,7.1,2.5,10.8,2.2c3.6-0.3,6.8,0.4,10.1,1.4c1.3,0.4,2.3,0.4,3.4,0.1
			c1.6-0.5,3.4-0.9,5-1.4c1.9-0.6,3.4,0,4.6,1.3c3.1,3.2,4.1,2.5,7.3,1c3.2-1.5,5.9-1.2,8.5,0.7c1.8,1.4,3.6,2,5.8,0.8
			c0.4-0.3,1-0.4,1.4-0.6c2.5-0.8,4.9-1.8,7.5,0.3c2.6,2,5.4,2.7,8.7,0.7c1.6-0.9,3.9-1.5,5.8,0c3.3,2.8,3.7,2.9,7.6,1
			c2.2-1.1,4.6-1.8,7,0.2c1,0.8,2.7,0.9,4,1.2c0.9,0.1,1.4-0.4,1.3-1.4C187,43.4,186.8,41.4,186.7,39.3z M183.5,233.1
			c-0.1-0.2-0.2-0.4-0.3-0.7c-2.4,0-4.8-0.4-7.1,0.1c-2.3,0.5-4.4,0.5-6.6-0.3c-1.5-0.5-3.5-0.6-4.7,0.1c-2.7,1.4-4.7,0.6-6.7-0.9
			c-0.8-0.5-1.3-0.6-2.1,0c-2.6,2.1-5.7,2.9-8.8,1.3c-3.2-1.6-5.4-0.4-7.7,1.6c-0.4,0.4-1.2,0.8-1.6,0.7c-1.8-0.4-3.7-0.9-5.4-1.7
			c-2.1-0.9-3.9-1-5.9,0.2c-4.1,2.4-8.5,2.2-12.5,0c-4.2-2.3-7.8-2.2-11.6,0.5c-0.8,0.6-2,0.7-3,0.6c-2.6-0.1-4.8-1.1-6.7-3
			c-0.6-0.7-2.3-0.5-3.5-0.4c-1.1,0.1-2.1,0.8-3.2,1.1c-1.2,0.4-2.6,0.3-3.7,0.9c-1.7,0.9-3.1,0.8-4.7,0c-4.1-2-8.2-3.7-12.6-0.6
			c-1,0.7-2.6,0.9-3.8,0.7c-2.3-0.5-4.5-1.3-6.6-2.3c-2.6-1.2-5.1-0.8-7.6-0.1c-2.1,0.6-4.1,2.2-6.5,0.9c-1.3-0.7-2.7-1.4-3.8-2.3
			c-2.6-2-5.1-1.4-7.7-0.2c-3.3,1.5-6.6,2-10.3,1c-2.4-0.7-4.6-2.5-7.3-1.6c-1.1,0.4-2.2,1-3.2,1.5c-0.5,0.2-1.2,0.7-1.2,1
			c0.1,0.6,0.5,1.3,1,1.7c0.5,0.5,1.6,0.5,2,1.1c1.9,2.5,4.6,2.2,7.2,1.9c4-0.5,8-1.4,12.1-1.7c4.1-0.3,8.2-0.4,12.2,0
			c6.4,0.5,12.8,1.8,19.2,2.2c7.4,0.5,14.8,0.7,22.2,0.7c6.7,0,13.5-0.8,20.2-0.9c5.1-0.1,10.1,0.2,15.2,0.4c2.3,0.1,4.6,0.4,7,0.4
			c3.3,0.1,6.5,0,9.8,0.1c6,0.1,12,0.3,18,0.3c6.4,0,12.8-0.2,19.2,0c2.4,0.1,4.5-0.1,6.5-1.4c0.8-0.5,1.8-0.7,2.7-1.2
			C182,234.4,182.8,233.7,183.5,233.1z M80.1,29c1.9,1.2,3.3,2.3,4.9,3.1c1.1,0.5,2.5,1.1,3.6,0.9c2-0.4,4-1.2,5.9-2
			c2.3-1.1,6.6-0.4,8,1.4c1.2,1.7,1.6,1.6,3,0.1c0.7-0.8,1.6-1.8,2.5-2c2.5-0.4,5-0.4,7.1,1.7c1.9,1.9,3.2,1.8,5.6,0.5
			c2.9-1.6,5.8-3.2,8.9-0.3c2.2,2.1,4.7,1.3,6.8,0.3c1.6-0.8,2.9-0.5,4.3,0.1c0.9,0.4,1.7,0.9,2.6,1.5c1.9,1.2,5.3,1,6.9-0.6
			c2.1-2,4.7-1.8,6.6,0.4c1.4,1.7,3.3,1.8,5,0.3c1.3-1.1,5-1.7,6-0.6c2.5,2.7,5.4,2.1,8.4,1.4c0.6-0.1,1.3-0.4,1.7-0.8
			c1.1-1.2,2.4-0.8,3,0.2c1.4,2.5,3.6,1.7,5.7,1.9c0-0.5,0.1-0.8,0.1-1.1c0-1.5,0-3-0.1-4.5c-0.1-3.8-2.6-3.9-5.1-2.6
			c-0.9,0.5-2.3,0.8-3.2,0.4c-1.9-0.8-3.7-2.1-5.5-3.2c-0.8-0.5-1.3-0.7-2.1,0.1c-2.6,2.7-7.4,3.4-10.7,1.4
			c-3.4-2.1-6.6-2.3-9.6,0.7c-0.3,0.2-0.7,0.4-1.1,0.4c-2.7,0.2-5.2-0.6-7.5-1.8c-2-1.1-5.1-1.2-6.6-0.2c-2.6,1.8-5.4,2.9-8.4,0.8
			c-0.4-0.3-0.8-0.5-1.2-0.7c-2.2-1-4.5-2.1-6.8-0.6c-2.1,1.3-4.2,1.6-6.5,1.4c-1.5-0.1-2.6-0.7-3.4-2c-1.2-2-4.6-2.3-6.2-0.6
			c-2.7,2.9-6,3-9.2,0.8c-1.9-1.3-4.2-2.2-6.5-0.9C84.5,25.8,82.4,27.4,80.1,29z M6.4,169.2c2.7-1.4,4.4-0.7,6.2,0.7
			c2.2,1.8,4.6,2,7.2,0.5c3.9-2.3,7.9-2.5,11.7,0.3c0.5,0.3,1,0.5,1.6,0.7c2.4,1,4.5-0.1,6.5-1.1c2.2-1.1,4.3-1.8,6.7-0.9
			c2.5,1,5.2,1.4,7.9,1c0.9-0.1,2.1-0.8,2.3-1.6c0.9-2.4,1.5-4.9,2-7.4c0.5-2.4,0.1-2.4-2.3-2.5c-0.5,0-1.1,0.5-1.6,0.8
			c-0.3,0.2-0.7,0.6-1,0.5c-2.4-0.5-4.9-0.9-7.2-1.7c-2-0.7-3.7-0.8-5.5,0.1c-1.5,0.7-3,1.3-4.5,1.6c-1,0.2-2.1-0.2-3-0.6
			c-3.2-1.6-6.2-3.5-9.7-0.5c-0.9,0.8-2.6,1-3.9,1.2c-2.8,0.4-5.2-0.8-7.2-2.7c-1.5-1.5-3.3-0.9-4.7-0.2c-1.1,0.6-1.8,2-1.4,3.7
			c0.3,1.2,0.2,2.5,0.3,3.8C6.4,166.3,6.4,167.5,6.4,169.2z M185.4,19.8c-1.5,0-2.9,0-4.3,0c-1.8,0.1-3.3-0.4-4.1-2.3
			c-0.2-0.4-1-0.8-1.3-0.6c-1,0.4-1.9,1-2.8,1.5c-0.7,0.4-1.5,0.9-2.3,0.9c-2.1,0.2-4.1-0.2-5.6-1.8c-1-1.1-1.9-0.8-2.7,0.3
			c-1,1.4-2.3,2.3-4,1.9c-1.8-0.4-3.7-0.9-5.4-1.6c-1.6-0.7-3.2-1.4-4.8-0.5c-3.8,2-7.4,2.2-11.3-0.1c-0.8-0.5-2.5-0.1-3.4,0.5
			c-2.2,1.4-6.6,1.6-8.5,0c-2.6-2.1-6.1-2-8.5,0.1c-0.4,0.3-1,0.7-1.4,0.7c-2.2,0-4.2-0.5-6-1.9c-1.7-1.4-3.7-1.9-5.8-1.1
			c-1.6,0.6-3.1,1.3-4.6,1.9c-0.4,0.2-1,0.3-1.4,0.2c-1.5-0.5-3-1.1-4.3-1.8c-1.9-1.1-3.9-0.9-5.4,0.3c-1.2,1-1.6,3-1.3,5
			c2.4-1,4.6-0.9,6.6,0.5c0.8,0.5,1.5,1.1,2.3,1.5c1.6,0.9,3.8,0.8,4.7-0.4c2.1-2.9,5.1-2.7,8.1-2.1c0.8,0.1,1.6,0.8,2.1,1.4
			c1.4,1.9,3.7,2.7,5.6,1.5c3.5-2.1,6.9-2.5,10.5-0.2c2.8,1.9,5.6,1.6,8.6-0.3c2-1.3,4.7-1.2,7-0.1c1.3,0.6,2.6,1.3,4,1.6
			c1.1,0.2,2.4,0.1,3.5-0.2c2-0.6,4-1.6,6-2.1c0.9-0.2,2.1,0.2,3.1,0.6c1.4,0.5,2.6,1.6,4,1.9c2.3,0.5,4.7,0.4,6.5-1.4
			c1.8-1.8,3.8-1.9,5.7,0c2,2,4.1,2.4,6.6,1.3c0.5-0.2,1-0.3,1.5-0.4c1.1-0.2,2.9,0.1,3.2-0.5c0.5-0.9,0-2.3,0-3.6
			C185.6,20.5,185.5,20.3,185.4,19.8z M5.9,155.4c3.5-2.9,6-1.2,8.5,0.9c0,0,0.1,0.1,0.1,0.1c2.4,1.8,4.9,1.7,7.3,0.2
			c3.4-2.1,6.8-2.8,10.2-0.2c1.8,1.3,3.6,1.2,5.5,0.5c0.9-0.3,1.7-0.8,2.6-1.1c2.3-0.8,4.5-1,6.9,0.1c2.2,1,4.5,1.6,7.1,0.7
			c1.4-0.4,2.9-0.2,4.4-0.4c0.4,0,1.1-0.4,1.1-0.6c0.2-2.9,0.4-5.9,0.5-8.8c0-1.5-0.9-1.9-2.2-1.4c-1,0.4-1.9,1.3-2.8,1.2
			c-2.2-0.2-4.5-0.3-6.4-1.3c-1.9-0.9-3.3-0.9-5,0.2c-0.9,0.6-1.9,1.6-2.8,1.6c-2.1-0.1-4.3-0.3-6.2-1.2c-2.5-1.2-4.4-1.2-6.5,0.9
			c-2.2,2.2-7.4,1.9-9.5-0.2c-1.4-1.4-2.9-2.3-5-1.6c-2.5,0.8-5,1.4-7.8,2.3C5.9,149.6,5.9,152.2,5.9,155.4z M6.7,132.6
			c0.9-0.5,1.2-0.6,1.3-0.8c1.9-2,4-2.4,6.3-0.6c0.4,0.3,0.8,0.4,1.2,0.6c2.6,1.3,5.2,2.4,8,0.2c2.5-1.9,3.8-1.9,6.5-0.5
			c2.4,1.2,4.8,2.1,7.3-0.2c1.7-1.5,3.9-2,6.2-1.1c1.6,0.6,3.3,1.1,4.8,2c1.9,1.2,3.6,0.7,5.2-0.4c1.4-1.1,2.8-1.3,4.4-0.9
			c1.2,0.3,1.5-0.2,1.3-1.3c-0.2-1.2-0.6-2.4-0.8-3.6c-0.5-3.2-1.2-3.6-4.4-3.3c-1.6,0.1-3.5,0.1-4.8-0.7c-2.4-1.4-4.3-1.3-6.6,0
			c-0.9,0.5-2.1,1-3,0.8c-1.8-0.5-3.7-1.2-5.2-2.3c-1.6-1.2-2.8-0.8-4.1,0.2c-0.5,0.4-0.9,0.9-1.4,1.3c-2.4,2.3-7.6,2.6-9.7-1
			c-1.1-1.9-3.4-2.4-5.3-1.4c-1.5,0.8-3,1.7-4.7,2.1c-2.2,0.6-2.9,1.6-2.7,3.8C6.9,127.9,6.7,130,6.7,132.6z M6.5,144.2
			c1.8-0.7,3.3-1.1,4.7-1.7c2.7-1.3,5.2-1,7.5,1c2.8,2.5,5.4,2.8,7.7,0.7c2.6-2.3,5.1-2.9,8.3-0.9c2.3,1.5,4.8,1.7,7.2-0.1
			c0.7-0.5,1.7-0.8,2.5-1.1c1.3-0.5,2.4-0.3,3.8,0.3c1.8,0.8,4,1.2,6,1.2c1.5,0,3.1-0.7,4.6-1.3c0.4-0.1,0.9-0.7,0.9-1.1
			c0-1.9-0.1-3.7-0.2-5.6c0-0.4-0.3-1-0.7-1.2c-1.1-0.5-2.2-0.7-3.5,0c-2.8,1.7-5.6,2-8.5,0.1c-0.6-0.4-1.2-0.6-1.9-0.9
			c-2.8-1.1-5-0.9-6.3,0.9c-1,1.3-2.3,1.7-3.6,1.5c-1.8-0.3-3.5-0.9-5.2-1.4c-1.3-0.4-2.5-1.2-3.8-0.3c-3.5,2.3-6.9,2.7-10.6,0.2
			c-2.1-1.4-4.6-2.1-6.7,0.6c-0.7,0.9-1.8,1.4-1.8,2.7C6.7,139.8,6.6,141.7,6.5,144.2z M78.6,52.8c-3.5,0.1-6.5,0.1-9.1-1.6
			c-2.1-1.4-3.7-1.4-5.6,0.1c-0.3,0.2-0.6,0.5-1,0.6c-2.8,0.7-5.4,0.3-7.9-1.4c-2.7-1.9-5.2-1.9-8.2,0c-1.8,1.1-3.9,2.4-6.3,1.7
			c-1.4-0.4-2.7-1-4.1-1.5c-2.1-0.7-4.3-0.7-6.2,0.5c-1.2,0.8-9.4,2.3-11.6,3.6c-4.3,2.6-8.8,1.9-13.6,1.6c0.1,1,0.2,2.1,0.4,3.2
			c1-0.3,2-0.3,2.8-0.8c3.3-2,6.7-1.5,10.1-0.6c3.9,1.1,7.7,0.8,11.4-0.9c3.7-1.7,7.4-1.6,11.1,0.1c2.6,1.2,5.1,2.2,7.9,0.3
			c0.7-0.5,1.7-0.8,2.4-0.7c2.9,0.6,5.8,1.3,8.6,2.1c3.5,1.1,7.1,0.8,10.7,0.3c2.1-0.3,4.2-1.4,6.2,0.2c0.2,0.1,1.1-0.4,1.2-0.7
			C78.2,56.9,78.4,54.9,78.6,52.8z M187.4,51.1c-2.9-1.3-5.4-2.5-7.8-3.5c-0.5-0.2-1.3-0.4-1.8-0.2c-1.3,0.5-2.5,1.2-3.7,1.8
			c-0.6,0.3-1.2,0.7-1.7,0.6c-1.8-0.5-4.1-0.7-5.3-1.9c-2-2-3.8-1.3-5.7-0.3c-2.6,1.3-4.9,1.1-7.4-0.1c-1.9-0.9-3.6-2.8-6.1-1.8
			c-1.3,0.5-2.4,1.4-3.7,1.9c-1,0.4-2.2,0.7-3,0.4c-1.5-0.5-3-1.4-4.3-2.3c-2.1-1.4-4.2-1.6-6.4-0.5c-3.7,2-6.1,1.7-9.1-1.2
			c-1.6-1.5-4.6-1.4-6,0c3.2,2.3,6.6,4.5,9.6,7.1c1.7,1.4,3.3,1.4,5.1,0.8c0.7-0.2,1.5-0.4,2.1-0.7c2.1-1.1,3.8-0.3,5.5,0.8
			c0.5,0.3,1,0.9,1.6,1.1c1.1,0.4,2.4,1,3.5,0.8c2.1-0.4,4.1-1.2,6-2c2.1-0.9,4.7-0.6,6.3,1c1.5,1.6,3.7,1.9,5.7,0.8
			c0.7-0.4,1.3-0.7,2.1-1c1.6-0.6,3.2-1.1,4.6,0.4c2.3,2.3,4.9,2.5,7.9,1.5c3-1,6-1,8.7,1.1c0.7,0.5,1.5,0.8,2.5,1.4
			C187,54.6,187.2,52.5,187.4,51.1z M56.4,119.5c-1.2-2.8-3.2-4.7-5.5-6.3c-2.7-1.9-5.8-2.9-8.9-3.9c-1.2-0.4-2.6-0.4-3.7,0.8
			c-0.6,0.6-1.6,0.9-2.4,1.1c-2.6,0.6-4.9,0-7.1-1.6c-1.7-1.2-3.2-1.4-5.1,0.1c-1.2,1-3.1,1.3-4.7,1.5c-2.2,0.3-3.6-1.6-5.4-2.4
			c-1-0.5-2.4-1-3.1-0.6c-1.4,0.8-3.1,2.1-3.5,3.5c-0.6,2.5-0.2,5.2-0.2,7.7c0.2,0.1,0.4,0.3,0.7,0.4c1.3-0.7,2.7-1.2,3.8-2
			c3.3-2.4,7.3-1.9,9.6,1.5c1.5,2.2,3.9,2.6,6,0.9c1-0.8,2-1.7,3.2-2.4c2.1-1.4,3.1-1.2,5,0.3c2.2,1.9,4.6,2.6,7.3,0.9
			c2-1.3,4.2-1.7,6.3-0.3C51,120.4,53.6,120,56.4,119.5z M56.4,69.9c-0.2-1.5-0.4-2.8-0.4-4c0-1.3,0.3-2.6,0.4-4
			c0-0.3-0.2-0.7-0.5-0.8c-1.7-1.2-5.6-1.1-7.3,0.2c-0.3,0.3-0.8,0.6-1.2,0.5c-2.2-0.4-4.4-0.9-6.6-1.4c-1.6-0.4-3.2-1.4-4.8-1.2
			c-2.7,0.2-5.2,1.2-7.9,1.8c-3.3,0.7-6.6,1.2-9.9,0c-4.6-1.7-8.6-0.5-12.4,2.3c-0.3,0.2-0.5,0.7-0.5,1c0.1,1.4,0.3,2.7,0.4,4
			c0.4,0,0.5,0,0.6,0c0.3-0.1,0.6-0.3,0.9-0.5c3.6-1.8,7.4-2.4,11-0.5c3.7,2,7.4,1.5,11,0.2c3.4-1.2,6.2-0.8,9.3,0.9
			c2.4,1.3,5,2,7.8,0.7c2.5-1.1,5.2-1.8,7.8,0C54.8,69.6,55.5,69.6,56.4,69.9z M44.3,186.1c-1.7-0.8-3.2-1.2-4.4-2.1
			c-1.6-1.2-2.9-0.8-4.5,0.1c-2.5,1.6-6.6,1.7-8.5-0.5c-0.4-0.4-1.2-0.6-1.8-0.5c-0.9,0.2-1.8,0.6-2.7,1c-1.8,0.8-3.5,2.4-5.6,1.6
			c-1.3-0.5-2.7-1.2-3.7-2.2c-1.1-1-2-0.8-2.9-0.2c-1.1,0.8-2.5,1.8-2.9,2.9c-0.5,1.7-0.2,3.6-0.2,5.4c0,2.5,0,2.4,2.4,2.2
			c0.3,0,0.8-0.1,1,0.1c1.3,0.8,2.7,1.5,3.8,2.5c1,0.9,1.9,0.9,2.8,0.3c2.1-1.4,4.2-1.4,6.4,0c0.9,0.6,1.8,0.5,2.9-0.1
			c3.5-1.7,7.2-3.1,10.8-4.7C40,190.8,42.1,188.5,44.3,186.1z M54.2,174.1c-1.6-0.3-2.6-0.5-3.7-0.7c-3.5-0.5-6.8-2-10.4,0.1
			c-2.5,1.5-5.4,1.9-8.2,0.5c-1.2-0.6-2.4-1.4-3.7-2c-2.7-1.3-5.1,0.1-7.2,1.3c-3.9,2.1-7.1,1.1-10.2-1.4c-1.2-1-3.8-0.1-3.8,1.4
			c-0.1,2.6,0,5.2,0,8.1c0.6-0.3,0.9-0.4,1.1-0.6c2.2-1.7,3.1-1.7,5.3-0.1c0.6,0.4,1.1,0.8,1.7,1.2c1.4,1.1,2.9,1,4.4,0.2
			c0.7-0.4,1.4-0.9,2.1-1.3c2.3-1.4,4.7-1.2,6.8,0.7c0.3,0.3,0.8,0.5,1.2,0.6c1.8,0.6,3.3-0.2,4.8-1.1c1.5-0.9,3.1-1.5,4.8-0.6
			c2.2,1.1,4.1,2.8,6.9,2.4c0.8-0.1,1.5-0.1,2-0.6c0.5-0.5,1-1,1.4-1.6C50.9,178.6,52.5,176.5,54.2,174.1z M31.6,47.3
			c0.1,0.2,0.2,0.3,0.2,0.5c0.5,0,0.9-0.1,1.4-0.1c1.4,0,3.2-0.4,4.2,0.3c3,1.9,5.6,1,8.3-0.5c3.1-1.7,6.2-2.3,9.3-0.2
			c3,2,5.8,2.7,9.1,0.3c1.1-0.8,3.6-0.8,4.9-0.1c1.5,0.8,2.9,2.2,4.5,2.2c2.1-0.1,4.2-0.8,6.3-1.3c2-3.5,5.3-5.3,8.9-6.6
			c-1.8-1.7-3.2-1.8-4.9-0.4c-2.3,2-4.7,2.6-7.5,1c-2.4-1.4-4.9-2.5-7.8-1.8c-2.1,0.5-4.2,1-6.1,1.8c-3.6,1.4-7.1,1.4-10.1-0.8
			c-4.3-3-7.3-2.1-11.3,0.7c-0.6,0.4-1.5,0.9-2.1,0.8C35,42.2,33.8,45.4,31.6,47.3z M12,80c0.7-1.3,0.9-2.6,1.7-3.3
			c4.5-3.6,9.4-5.3,15.3-3.2c6.7,2.4,13.5,4.6,20.3,6.6c2.4,0.7,5,0.7,7.6,0.8c0.4,0,1.3-0.7,1.3-0.9c-0.2-2.1-0.2-4.4-1-6.3
			c-0.3-0.8-2.3-1-3.5-1.5c-0.2-0.1-0.4-0.2-0.6-0.3c-2.1-1.1-4.1-1-6,0.6c-0.3,0.2-0.7,0.5-1,0.5c-3.1-0.6-6.3-0.4-9.2-2.2
			c-1.1-0.7-2.8-0.9-4.1-0.8c-1.9,0.2-3.8,0.9-5.7,1.3c-2.7,0.6-5.3,0.6-7.8-0.7c-3.7-1.9-7.3-1.6-10.8,0.5
			c-0.9,0.6-2.1,1.5-2.2,2.5c-0.3,2-0.1,4.1-0.1,6.2C8.1,79.8,10.1,77.4,12,80z M186.6,60.1c-1.5-0.6-3-0.8-3.9-1.6
			c-1.9-1.7-3.9-1.6-6.1-1.1c-1,0.2-1.9,0.4-2.9,0.7c-1.7,0.5-3.4,0.6-4.9-0.6c-0.6-0.5-1.3-0.8-1.9-1.3c-1.4-1.4-3-1.1-4.2-0.1
			c-2.7,2.2-6.7,1.2-8.9-0.9c-1.7-1.6-3.1-1.2-4.6-0.4c-4.1,2.3-8.1,2.9-12,0c-2.2-1.6-4.2-1.6-6.3,0c0,0.1,0,0.3,0.1,0.4
			c0.2,0.2,0.5,0.3,0.7,0.5c2.9,1.4,5.8,2.7,9.2,2.9c4,0.2,8.1,0.6,12.1,0.9c1.5,0.1,3.2-0.2,4.6,0.2c3.1,1,6.2,2.2,9.2,3.5
			c0.7,0.3,1.4,1,1.9,1.7c0.7,0.9,1.3,1.1,2.1,0.3c0.4-0.3,0.9-0.5,1.3-0.8c2.5-1.7,2.8-1.6,4.6,0.8c1.4,1.9,2.4,2.3,4.1,0.9
			c1.7-1.5,3.4-2.3,5.7-1.7C186.6,62.5,186.6,61.1,186.6,60.1z M86.5,13.6c2.8-1.6,5.1-1.6,7.6,0.2c1.7,1.3,3.6,1,5.6,0.1
			c3.6-1.7,7.2-2.4,10.5,0.8c1.5,1.5,3.6,1.4,5.4,0.2c1-0.6,2-1.2,3.1-1.4c2.5-0.6,4.8,0.1,6.9,1.6c2.5,1.7,4.9,1.7,7.2-0.1
			c1.2-1,3.7-1.3,4.9-0.3c2.7,2.2,5.3,2,8.2,0.6c3-1.5,6-1.5,8.8,0.7c1.8,1.4,4.7,1,6.2-0.7c1.6-1.9,4.5-1.8,6,0.1
			c1.1,1.5,3.3,1.7,4.8,0.5c1.6-1.3,3.4-1.8,5.4-1.7c0.7,0,1.8,0.7,2,1.3c0.5,1.3,1.3,1.4,2.4,1.3c1.4-0.2,2.9-0.3,4.4-0.4
			c0.2-1.7-1.9-3.8-4.3-3.8c-5.6,0-11.3,0.2-16.9,0.3c-4,0.1-8,0.6-12,0.6c-5.4-0.1-10.8-0.7-16.2-0.9c-5.2-0.2-10.5-0.2-15.7-0.4
			c-10-0.3-32.9-1-34.4-1C86.1,11.9,86.3,12.6,86.5,13.6z M6.5,106.5c0.6-0.3,1.1-0.4,1.4-0.7c1.6-1.6,3.4-1.4,5.1-0.5
			c1.2,0.6,2.3,1.4,3.4,2.1c1.3,0.9,2.7,1,4.1,0.3c0.8-0.4,1.6-1,2.3-1.5c2.1-1.5,2.6-1.6,4.8-0.3c1.1,0.6,2.2,1.5,3.3,1.8
			c1.4,0.4,2.9,0.3,4.4,0.3c0.3,0,0.9-0.6,1-1c0.1-0.3-0.4-0.9-0.7-1.1c-4.1-2.1-8-4.4-12.3-6c-2.7-1-5.2-2.1-7.1-4.4
			c-0.9-1.2-2.1-1.7-3.5-2c-1.7-0.5-6.2,1.2-6.3,2.6C6.4,99.5,6.5,102.9,6.5,106.5z M156.4,117.1c0.1,0.1,0.2,0.3,0.3,0.4
			c0.5-0.1,1.1-0.1,1.6-0.3c1.3-0.5,2.7-1.1,4-1.7c1.5-0.6,3-0.6,4.2,0.6c2.7,2.5,4.3,2.3,7.5,0.6c3.5-1.8,6.8-2.5,10.2,0.2
			c1.1,0.9,1.6,0.3,1.7-0.8c0.2-1.7,0.4-3.4,0.5-5c0-1.4-0.7-2.7-2.3-2.4c-2.1,0.3-4.3,0.7-6,1.7c-1.7,1-2.8,0.6-4-0.5
			c-1.2-1.1-2.4-1.2-3.9-0.2c-1.4,0.9-2.9,2.2-4.6,1.4c-1.7-0.8-2.6-0.1-3.7,0.9c-1,0.9-2.1,1.8-3.1,2.7
			C157.8,115.5,157.1,116.3,156.4,117.1z M185.5,121.1c-1.2-0.8-2.1-1.6-3.1-2.1c-1-0.5-2.2-1-3.2-0.8c-1.6,0.2-3.3,0.8-4.8,1.6
			c-3.1,1.5-6,1.5-8.7-0.9c-1.5-1.3-2.9-1.1-3.8,0.3c0.2,0.1,0.3,0.3,0.5,0.4c2.6,1.3,4.5,3.3,6,5.9c0.4,0.7,0.6,1.7,1.1,1.9
			c0.6,0.2,1.6-0.2,2.3-0.6c2-1.2,3.9-0.8,5.7,0.4c2.1,1.5,4.4,1.4,6.7,0.8c0.4-0.1,0.8-0.7,0.8-1.1
			C185.3,124.9,185.4,122.9,185.5,121.1z M184.8,142.2c-3.1,1.9-5.3,0.9-7.4-1.2c-0.4-0.5-1.7-0.2-2.6-0.1c-1,0.1-2,0.3-3.2,0.6
			c0.3,2.8,0.7,6,1,9.1c0.1,1,0.6,1.1,1.5,1.2c1.3,0.1,2.6,0.4,3.8,0.9c1.8,0.8,3.6,0.8,5.4,0c0.3-0.1,0.7-0.7,0.7-1
			C184.3,148.6,184.5,145.6,184.8,142.2z M171.2,138.3c0.4,0.1,0.5,0.2,0.5,0.2c0.2-0.1,0.4-0.1,0.7-0.2c2.6-0.8,5.3-1.7,7.3,1.3
			c0.3,0.5,4.5,0.4,4.9,0c0.2-0.2,0.2-0.5,0.2-0.8c0-2.5,0-4.9,0-7.5c-0.1,0-0.3-0.1-0.4-0.1c-3.1,0.6-5.9-0.1-8.5-1.9
			c-1.7-1.1-3.5,0.2-5,1.1c-0.5,0.3-0.3,1.6-0.4,2.5c0,0.5,0.1,1,0.2,1.6C170.8,135.8,171,137.1,171.2,138.3z M186.9,71.1
			c0-0.7-0.1-0.9-0.1-1.1c-0.1-1,0.3-2.1-1-2.7c-1.3-0.6-2,0.2-3,0.8c-1.1,0.6-2.1,1.3-3.3,1.6c-2.2,0.6-3.2-1-4.3-2.5
			c-0.3-0.4-1.3-0.6-1.6-0.4c-0.8,0.5-2.3,0.8-1.6,2.4c0.6,1.6,1.4,3.2,1.9,4.8c0.3,1.1,0.8,1.5,1.8,1.3c2.8-0.7,5.2-0.2,7.4,1.7
			c0.2,0.2,0.4,0.3,0.6,0.4c1,0.4,2.9-0.6,3-1.6C186.8,74.1,186.9,72.4,186.9,71.1z M184.6,167.1c-0.3-3.7-0.5-6.9-0.9-10.1
			c0-0.3-0.8-0.6-1.3-0.7c-1.6-0.3-3.1-0.6-4.7-0.9c-1.1-0.2-2.1-0.6-3.2-0.6c-1,0-1.8,0.5-1.2,1.8c0.3,0.7,0.3,1.6,0.4,2.4
			c0.4,2.2,0.8,4.4,1.3,7.1C178.7,163,181.4,165.9,184.6,167.1z M186.5,105.9c0-1.2,0.2-5.8-2.3-6.3c-0.3-0.1-0.5-0.3-0.8-0.3
			c-0.8-0.2-1.7-0.6-2.5-0.6c-1.1,0-2.3,0.3-3.4,0.5c-0.4,0.1-1,0.2-1.2,0.5c-1.3,1.5-2.6,3.1-3.9,4.6c-0.6,0.7-0.7,1,0.3,1.6
			c2.5,1.5,4.8,2.4,7.2,0c0.1-0.1,0.3-0.1,0.5-0.1C182.3,105.9,184.3,105.9,186.5,105.9z M121.6,203.1c0.1,0.2,0.3,0.5,0.4,0.7
			c3.1-0.6,5.9-0.4,8.1,2.3c0.3,0.3,1.2,0.4,1.7,0.2c1.8-0.7,3.5-1.5,5.4-2.4c0,0.2,0.1-0.3-0.1-0.5c-2.1-2.3-4.2-4.7-6.5-6.8
			c-0.4-0.4-2-0.3-2.5,0.1C125.9,198.8,123.8,201,121.6,203.1z M184.6,169.7c-1.2-0.3-2.4-0.4-3.2-1c-1.5-1.1-2.9-0.9-4.4-0.2
			c-1,0.5-1.4,0.9-1.1,2.1c0.7,2.6,1.3,5.3,1.8,7.9c0.2,1.1,0.7,1.1,1.6,0.9c1.6-0.3,3.2-0.5,4.8-0.8c0.4-0.1,0.9-0.5,0.9-0.7
			C184.9,175.2,184.7,172.4,184.6,169.7z M186.5,96c-0.4-2.3,1.1-5.4-2.1-7.3c-1.1-0.6-5-0.7-5.9,0.1c-0.2,0.2-0.3,0.5-0.3,0.8
			c0,2,0,4,0,5.8C181,95.6,183.6,95.8,186.5,96z M186.6,81.2c-2.2-0.8-4.1-1.2-5.8-2.2c-1.9-1.1-3.5-0.7-5.5-0.2
			c0.6,2.1,1.2,4.1,1.8,5.9c3.1,1,6.4-1.1,9.2,1.8C186.4,84.4,186.5,82.7,186.6,81.2z M13.1,91c-0.3-2.8-0.5-4.9-0.8-7.1
			c-0.1-0.5-0.1-1.1-0.4-1.4c-1.5-1.4-5.4-0.4-5.7,1.6c-0.3,2.1-0.1,4.3,0,6.4c0,0.3,0.9,0.8,1.2,0.7C9.2,90.5,11,89.6,13.1,91z
			 M184.6,193.8c0.1,0,0.2,0,0.4-0.1c0-0.6,0.1-1.1,0.1-1.7c0-2.3,0-4.5,0.1-6.8c0.1-3.8-0.6-4.4-4.3-3.4c-0.2,0.1-0.4,0.2-0.7,0.2
			c-0.9,0.3-1.2,0.7-0.7,1.7C181.3,187.1,182.9,190.5,184.6,193.8z M69.9,63.4c2,0.7,3.7,1.4,5.5,1.8c0.2,0.1,0.8-0.9,1.1-1.5
			c0.1-0.3,0-1-0.2-1.2C75,61.5,71.8,61.8,69.9,63.4z"/>
		<path d="M96.7,149.8c0-2,0-4,0-6c0-1.2-0.5-1.6-1.9-1.4c-2.2,0.3-4.5,1-6.5-0.7c-0.4-0.4-0.7-1.1-0.7-1.6c0.2-2,0.5-3.9,0.8-5.9
			c0.2-1.4-0.3-1.9-1.6-1.5c-2.1,0.6-3.7-0.2-5-1.6c-0.5-0.5-0.8-1.5-0.8-2.3c0-0.4,1.1-0.8,1.8-0.9c5.9-0.8,5.8-0.4,6.1-6.3
			c0.2-3.8-0.2-7.7-0.4-11.5c0-0.5-0.7-1.2-1.3-1.4c-3-1-4.2-2.5-4.6-5.8c-0.5-4.7,1.8-8.5,6.2-9.7c3.4-1,6.8-1.9,10.2-2.8
			c0.5-0.1,1.2-0.2,1.7,0c0.4,0.1,0.8,0.7,0.9,1.1c0.1,0.2-0.5,0.8-0.8,0.9c-2.2,0.7-4.5,1.2-6.7,2c-2.4,0.9-4.9,2-7.1,3.4
			c-1.8,1.1-2.5,3.1-2.3,5.3c0.2,1.8,1,3,2.8,2.9c3.9-0.1,7.8-0.2,11.6-0.7c3.1-0.4,6.1-1.3,9-2.4c1.6-0.6,3.1-2,4.3-3.4
			c1.9-2.1,1.3-4.8-1.3-6c-1.8-0.9-3.8-1.5-5.7-2.1c-1.2-0.4-2.5-0.5-3-2.5c1.5,0.1,2.8,0.1,4.1,0.3c2.9,0.5,5.6,1.5,7.5,3.9
			c2.8,3.4,2.1,7.7-1.7,10.7c-0.4,0.3-0.7,0.6-0.8,0.7c0.9,3,1.6,5.9,2.6,8.7c1,2.8,2.2,5.6,3.4,8.6c0.6,0,1.5-0.1,2.4,0
			c0.6,0.1,1.5,0.6,1.7,1.1c0.2,0.5,0,1.6-0.4,2c-1.3,1.1-2.8,2.1-4.3,2.8c-1.1,0.5-1.6,0.9-1.1,2.2c0.6,1.5,1.2,3,1.6,4.6
			c0.3,1,0.5,2.1,0.6,3.2c0,0.5-0.2,1.3-0.6,1.5c-0.4,0.2-1.1,0-2-0.1c-1.4,1.7-3.7,0.1-5.3,0.7c0.2,3.1,0.4,6.2,0.6,9.3
			c0,1,0.4,1.5,1.5,1.4c1.1-0.1,2.3-0.2,3.4-0.2c0.9,0,1.9-0.2,2.5,0.3c0.7,0.5,1.7,1.8,1.5,2.3c-0.5,1.2-1.1,2.7-3,2.6
			c-2.1-0.1-4.2,0.3-6.2,0.3c-1.1,0-2.2-0.4-2.3-1.8c-0.2-3.5-0.4-7-0.6-10.5c0-0.5,0-0.9-0.1-1.4c-0.2-1.3-0.9-2.1-2.4-1.8
			c-1.5,0.3-3.1,0.5-4.7,0.7c-1,0.2-1.3,0.7-1.2,1.8c0.2,2,0.2,4.1,0.3,6.1c0,0.6,0,1.2,0.2,1.7c0.9,2.7,0.5,3.7-2.2,4.6
			c-2,0.7-4.2,1-6.3,1.2c-1.7,0.2-3-1-3-2.3c-0.1-1.7,1.1-3,2.9-3.2C93.2,150.6,94.8,150.2,96.7,149.8z M93.1,109.5
			c0,1.2,0.1,2.6,0,4c-0.3,3.6-0.6,7.1-0.9,10.7c-0.4,4.1-0.8,8.2-1.1,12.4c-0.1,0.6-0.1,1.3-0.1,1.9c0,1.4,0.7,1.9,2,1.4
			c1.4-0.4,2.8-1,4.3-1.3c3.2-0.5,6.3-0.9,9.5-1.2c1.8-0.2,3.6-0.2,5.4-0.4c2-0.2,2.7-1.3,2.1-3.1c-0.4-1.1-0.9-2.2-1.2-3.3
			c-0.8-3.7-1.5-7.4-2.3-11c-0.9-3.8-2-7.5-2.8-11.3c-0.3-1.3-0.8-1.6-2-1.4C101.8,107.7,97.7,108.6,93.1,109.5z"/>
		<path d="M96.2,78.9c0,1.5,0,2.9,0,4.4c0,0.8,0.1,1.8-1.1,1.7c-1-0.1-1.9-0.5-1.9-1.8c0-1.7,0-3.4,0.1-5.1
			c0.2-5.3-1.1-10.2-2.6-15.2c-0.4-1.3-1.1-1.5-2.2-0.7c-0.7,0.5-1.4,1-2.2,1.3c-0.5,0.2-1.3,0.4-1.6,0.1c-0.5-0.4-1-1.1-0.9-1.7
			c0.2-3.2,0.6-6.4,1-9.5c0.1-1.2,1.3-1.9,2.5-1.3c2.7,1.3,5.4,2.6,8,4.1c0.7,0.4,1.3,1.3,1.4,2c0,0.4-1,1-1.7,1.4
			c-0.5,0.3-1.2,0.3-1.6,0.6c-0.3,0.3-0.8,1-0.6,1.2c2,3.4,2.3,7.3,2.9,11.1c0.4,2.4,0.7,4.8,1,7.2C96.4,78.9,96.3,78.9,96.2,78.9z"
			/>
		<path d="M94.3,98.6c1.9-0.3,2.3,0.6,2.2,1.6c0,0.5-0.7,1-1,1.5c-0.7-0.7-1.4-1.3-1.9-2C93.4,99.5,94.2,98.8,94.3,98.6z"/>
		<path d="M103.2,98.9c-0.8,0.6-1.5,1.2-1.6,1.1c-0.6-0.6-1.1-1.3-1.7-2c0.4-0.3,1-0.9,1.2-0.8C101.7,97.5,102.3,98.1,103.2,98.9z"
			/>
		<path d="M104.5,131.6c-0.4,0.1-1,0.1-1.1,0.3c-0.8,1.6-1.8,0.8-2.9,0.3c-1.1-0.5-2.4-0.7-3.6-1.2c-0.8-0.3-1.6-0.7-2.2-1.3
			c-0.7-0.7-1-1.3,0.2-2.2c1.7-1.3,3.1-2.9,4.6-4.4c1.5-1.4,2.5-1.6,4.1-0.4c1.7,1.3,3.3,2.8,4.8,4.3c0.4,0.4,0.6,1.6,0.4,1.8
			c-1.2,1.2-2.7,2.1-4,3.2C104.7,131.9,104.6,131.8,104.5,131.6z M105.8,127.3c-0.8-0.5-1.4-1-2-1.2c-0.7-0.2-1.7-0.5-2.2-0.2
			c-2.9,1.6-2.9,2-0.2,3.7c0.5,0.3,1.4,0.7,1.8,0.5C104,129.6,104.6,128.7,105.8,127.3z"/>
	</g>
</g>
</svg>
