<?xml version="1.0" encoding="utf-8"?>
<!-- Generator: Adobe Illustrator 19.1.0, SVG Export Plug-In . SVG Version: 6.00 Build 0)  -->
<svg version="1.1" id="Calque_1" xmlns="http://www.w3.org/2000/svg" xmlns:xlink="http://www.w3.org/1999/xlink" x="0px" y="0px"
	 viewBox="0 0 236 268.5" style="enable-background:new 0 0 236 268.5;" xml:space="preserve">
<style type="text/css">
	.st0{fill:#FFFFFF;}
	.st1{fill:#41AB87;}
	.st2{fill:#E2EFE8;}
	.st3{fill:#010202;}
	.st4{fill:#DB5556;}
	.st5{fill:#6FA4C3;}
	.st6{fill:none;stroke:#DB5556;stroke-width:7;stroke-miterlimit:10;}
	.st7{fill:none;}
	.st8{fill:#FFFFFF;stroke:#DB5556;stroke-width:3;stroke-miterlimit:10;}
	.st9{fill:none;stroke:#DB5556;stroke-width:3;stroke-miterlimit:10;}
	.st10{fill:#C1C0C0;}
	.st11{fill:none;stroke:#C1C0C0;stroke-width:3;stroke-miterlimit:10;}
	.st12{fill:#FFFCFA;}
	.st13{fill:#F5D1CA;}
</style>
<g>
	<path id="" d="M77,206.6c-2.7,18.6-5.4,36.9-8,55.3c4,0.7,38.1-0.2,40.7-1.1c-0.1-1-0.2-2.1-0.5-3.1
		c-0.8-2.9-1.7-5.8-2.4-8.8c-3.1-11.8-7.3-23.2-13.5-33.7c-2.9-5-6.8-9.2-11.9-12.1c-0.9-0.5-1.6-1.6-2.5-2.5
		c3.3-4,6.4-7.7,9.7-11.8c-4.9,0-9.3,0-14.1,0c-0.3,0.7-0.7,1.5-0.9,2.4c-1.7,5.8-3.4,11.6-5.1,17.5c-2.1,7.3-4.4,14.5-6.1,21.9
		c-2,8.2-3.5,16.5-5.1,24.8c-0.4,2-0.7,4,0.3,6.1c2.1,0.1,4.1,0.3,6.1,0.4c0.2-0.5,0.3-0.8,0.3-1.1c0.9-5.9,1.8-11.8,2.8-17.6
		c1.2-7.8,2.4-15.6,3.8-23.4c0.7-4.2,1.6-8.3,2.7-12.4C74,205.1,74.6,205.1,77,206.6z"/>
	<path id="" d="M119.4,251c8.8-18.4,20.8-34.1,34.2-48.9c-3.8-3.8-6.7-8.4-11.9-10.6c-1.2-0.5-1.8-1.6-1.1-3.3
		c7.3-1.6,15-1.7,23.2-1.6c-6.7-9-13.9-16.5-24.3-20.9c-0.7,1-1.3,1.8-1.9,2.7c-3.2,5.1-5.5,10.6-7.5,16.2
		c-2.8,8.1-5.5,16.2-8.5,24.2c-1,2.6-1.4,5.1-0.8,7.7c0.1,0.3,0.1,0.6,0.1,1c0,6.1,0,12.1,0,18.2c0,0.2,0,0.4-0.1,0.6
		C120.4,241.1,119.9,245.9,119.4,251z"/>
	<path id="" d="M113.9,257.7c0.4-2.3,1.1-4.8,1.4-7.3c0.6-4.9,1.2-9.9,1.6-14.8c0.3-4,0.5-8,0.6-12c0.1-3.6,0.1-7.1-1.3-10.6
		c-0.7-1.7-1-3.5-1.4-5.3c-0.4-1.7-0.5-3.4-1-5.1c-1.1-3.4-2.4-6.7-3.6-10.1c-3.5-9.8-8.9-18.5-15.5-26.7c-7.3,4.6-14.3,9.5-20,16.6
		c4.1,0,7.6-0.2,11.2,0.1c3.3,0.2,6.7,0.7,9.9,1.4c0.9,0.2,1.9,1.1,2.3,1.9c0.4,1.1-0.9,1.5-1.7,2c-4.8,3.3-8.7,7.4-12,12.7
		c0.6,0.4,1.2,0.8,1.7,1.2c3.2,3.3,6.7,6.3,9.3,10c4.2,6,7.2,12.6,9.6,19.5C108.1,240,111,249,113.9,257.7z"/>
	<path id="" d="M151.2,193.4c-0.1,0.3-0.2,0.5-0.3,0.8c1.9,2.1,3.9,4.1,5.7,6.2c1.9,2.2,1.9,4,0.2,6.1
		c-2.9,3.4-5.8,6.7-8.7,10.1c-1.5,1.7-3,3.4-4.3,5.3c-3.2,4.8-6.4,9.5-9.4,14.5c-4.2,7.1-8.5,14.1-11.4,21.9c-0.4,1-1,1.9-0.6,3.2
		c16.1-1,32,1,48.2,0.1c-0.4-3.6-0.6-6.8-1-10c-0.4-3.2-1.1-6.4-1.7-9.6c-0.6-3.2-1.2-6.4-1.9-9.6c-0.7-3.3-1.3-6.6-2-9.9
		c-0.7-3.2-1.5-6.3-2.3-9.5c-0.8-3.2-1.2-6.5-2.5-9.4c-1.3-2.9-1.1-6.2-2.4-9.1C154.9,194,153,193.7,151.2,193.4z"/>
	<path id="" d="M173.1,202.3c0-1.7,0-2.7,0-3.8c0.2-5.7,0.4-11.5,0.7-17.2c0.3-7.1,0.7-14.3,1.1-21.4c0.1-1.6,0.2-3.3,0.2-4.9
		c-0.1-4.6-0.4-9.2-0.5-13.8c-2.6,0.4-4.7,0.8-6.8,1.2c-3.1,0.5-4.4,2.2-3.9,5.1c1.2,7,2.2,13.9,2.6,21c0.2,3.8,0.6,7.6,1,11.3
		c0.3,2.6-0.2,5.4,1.6,7.8c1.1,1.5,0.1,2.7-2,2.7c-2.1,0-4.2,0-6.7,0c0.6,2.3,1.1,4.4,1.7,6.4c0.2,0.6,0.6,1.2,1.1,1.5
		C166.3,199.5,169.5,200.8,173.1,202.3z"/>
	<path id="" d="M161.8,58.2c-3.2-7-6.4-13.7-9.5-20.5c-3.2-6.9-6.3-13.8-9.4-20.7c-1.6-3.6-3.8-6.8-6.6-9.6
		c-2.3-2.4-4.6-3.8-8.6-3.8c-4,0-9.1-0.5-15.5,4.4s-11.9,10.8-15.2,18.3c-0.5,1.1-1.2,2.1-1.7,3.2c-3.6,7.4-7.3,14.8-10.9,22.1
		c-0.7,1.3-0.5,2.4,0.3,3.6c2.3,3.4,5.5,5.2,9.3,6.1c2.9,0.7,5.4-0.1,7-2.8c0.7-1.2,1.5-2.4,2.1-3.7c0.6-1.1,1-2.5,2.4-2.2
		c0.8,0.2,1.6,1.3,2.2,2.1c0.9,1.5,1.6,3.1,2.4,4.6c3.7,7.2,9.1,10.1,17.2,9.3c3.8-0.4,6.3-2.4,8.3-5.6c2.1-3.5,1.6-7.6,2.6-11.3
		c0.3-1.3-0.1-3.1,1.9-3.2c1.9-0.1,2,1.7,2.3,3c0,0.1,0,0.2,0.1,0.3c1.1,3.6,2.1,7.3,6.3,8.7c0.2,0.1,0.4,0.2,0.6,0.3
		C153.7,63.4,158.6,62.4,161.8,58.2z"/>
	<path d="M112.6,92.9c-0.5,0-1.1,0.1-1.6,0c-3.4-0.4-6.2-3-5.9-5.8c0.5-3.8,2.7-7,6.8-6.9c1.8,0.1,3.6,0.5,5.4,0.8
		c2.6,0.5,3.8,2.4,4.3,4.8c0.5,2.3-0.9,3.9-2.7,5.1C116.4,92.6,115.5,92.9,112.6,92.9z M114.6,85c0-2.3-2.6-2.5-4.8-0.9
		c-1.6,1.2-0.9,3-0.5,4.1c0.6,1.5,1.7,1.7,3.9,1.1C115.5,88.6,114.6,87.3,114.6,85z"/>
	<path d="M119.1,42.6c0-0.8,0-1.5,0-2.3c-0.1-2.1,0.6-3.5,2.6-4.4c5-2.1,6.1-7.5,5.9-11.7c-0.1-2.4-1.5-3.9-3.1-4
		c-1.7-0.1-4.1,1.8-4.4,3.7c-0.3,1.6-0.4,3.2-0.3,4.8c0.1,2.9-1.1,4.4-3.9,4.2c-5.2-0.4-6.7-2.2-6.3-7c0.3-3.3,1.5-6.6,2.8-9.6
		c2.9-6.3,13.3-8.7,19.8-4.1c6.9,4.9,7.4,16.8,3.4,24c-0.9,1.7-2.2,3.3-3.7,4.4c-1.4,1.1-1.9,2.1-1.9,3.8c-0.1,4-2.3,5.7-6.1,4.6
		C118.2,47.4,119.4,48.8,119.1,42.6z"/>
	<path d="M123.6,52.2c0.2,0,0.9,0,1.6,0.2c2.9,0.7,4.3,4,2.8,6.5c-0.3,0.5-1,0.8-1.5,1c-0.6,0.2-1.3,0.1-1.9,0.2
		c-5.2,0.8-5.7,0.4-6.5-4.7c-0.3-2,0.1-2.6,1.9-2.9C121.1,52.3,122.1,52.3,123.6,52.2z"/>
	<path d="M161.8,231.4c-0.3,4.3-0.6,8.4-1,12.5c-0.1,1.3-0.2,2.6-0.4,3.9c-1.2,7.3-8.5,10.3-14.8,6.2c-2.8-1.9-4.5-4.3-5.1-7.5
		c-0.9-4.9-1.5-9.8-0.8-14.8c0.2-1.4,0.8-1.7,2.2-1.6c5.4,0.5,10.7,0.6,16-0.9C160.1,228.5,160.8,230.5,161.8,231.4z M143.4,234.4
		c-0.4,4.5,0.1,8.6,1.2,12.6c0.6,2.4,4,5.2,6.1,5.2c2.2,0,4.6-2.5,5.3-5.5c1-4.2,0.5-8.3-0.2-13
		C151.8,233.9,147.8,234.1,143.4,234.4z"/>
	<path d="M134.3,255c0,2.4-1.6,4.2-3.7,4.1c-1.9-0.1-4.1-2.5-4-4.5c0.1-1.8,2.5-4.1,4.4-4.1C132.9,250.5,134.2,252.4,134.3,255z"/>
	<path d="M109.8,145.8c0,1.5-0.9,2.8-2.2,3c-1.4,0.2-2.5-0.3-3.3-1.7s-0.7-3.2,0.6-4.2c0.5-0.4,1.6-0.5,2.4-0.3
		C108.9,142.9,109.5,144.3,109.8,145.8z"/>
	<path d="M119.4,146c0-1.5,1.6-2.8,3.1-2.7c1.5,0.1,2.8,2,2.7,3.7c-0.1,1.2-1.7,2.6-3.1,2.5C120.5,149.5,119.3,148,119.4,146z"/>
	<path id="" d="M114.6,85c0-2.3-2.6-2.5-4.8-0.9c-1.6,1.2-0.9,3-0.5,4.1c0.6,1.5,1.7,1.7,3.9,1.1
		C115.5,88.6,114.6,87.3,114.6,85z"/>
	<path d="M229.1,223.1c-2.1-8.1-4.9-21.9-8.4-29.6c-1.3-2.9-2.1-6.2-3-9.3c-2.2-7.1-4.4-14.3-6.6-21.4c-0.3-0.8-0.7-1.6-1.1-2.4
		c-1.9-4.3-4-8.4-5.7-12.8c-3.6-9.3-6.8-18.8-10.3-28.1c-2.4-6.4-5.2-12.6-7.7-19c-3-7.6-5.6-15.3-8.7-22.8
		c-4.4-10.7-9.1-21.3-13.7-32c-4.8-11.3-9.6-22.6-15.6-33.3c-2.7-4.8-11-12.4-18.9-12.5c-7.8-0.1-12.3,1.1-17.5,4.3
		c-4.1,2.5-7.4,6.3-10.8,9.8c-5.6,5.8-8.3,13.4-12.3,20.2c-2.3,4-4,8.4-6,12.6c-3.9,8.4-7.7,16.8-11.6,25.1
		c-3.5,7.6-7,15.2-10.6,22.7c-3,6.5-6.3,12.9-9.2,19.4c-4.5,10.2-8.7,20.6-13.1,30.9c-5.7,13.3-11.5,26.5-17.3,39.7
		C15.9,196.5,11,208.4,7.6,221c-2.5,9.3-3.8,18.7-2.8,28.3c0.5,5.1,1.7,10.2,7.5,12.2c7.5,2.5,28.5,6.2,37.1,6.2s56.9-0.1,63.9,0
		c6.7,0.1,88.5,1.2,98.5,0.6c8.5-0.5,14.5-4.5,18.1-12.2C233.6,248.5,230,226.9,229.1,223.1z M84.5,51.6c3.7-7.4,7.3-14.8,10.9-22.1
		c0.5-1.1,1.2-2.1,1.7-3.2c3.3-7.6,8.8-13.3,15.2-18.3c6.4-5,11.5-4.5,15.5-4.4c4,0,6.3,1.4,8.6,3.8c2.7,2.8,4.9,6,6.6,9.6
		c3.1,6.9,6.2,13.8,9.4,20.7c3.1,6.8,6.3,13.6,9.5,20.5c-3.2,4.2-8.1,5.2-12.4,2.7c-0.2-0.1-0.4-0.3-0.6-0.3
		c-4.3-1.3-5.2-5.1-6.3-8.7c0-0.1-0.1-0.2-0.1-0.3c-0.4-1.3-0.5-3.1-2.3-3c-2,0.1-1.5,1.8-1.9,3.2c-1,3.7-0.5,7.8-2.6,11.3
		c-1.9,3.2-4.5,5.2-8.3,5.6c-8.1,0.8-13.5-2.1-17.2-9.3c-0.8-1.5-1.5-3.1-2.4-4.6c-0.5-0.8-1.3-1.9-2.2-2.1
		c-1.4-0.3-1.8,1.2-2.4,2.2c-0.7,1.2-1.4,2.5-2.1,3.7c-1.7,2.7-4.2,3.5-7,2.8c-3.8-0.9-7-2.7-9.3-6.1C84,54,83.8,52.9,84.5,51.6z
		 M69,261.9c2.7-18.4,5.3-36.7,8-55.3c-2.5-1.5-3-1.5-3.6,0.9c-1.1,4.1-2,8.2-2.7,12.4c-1.4,7.8-2.6,15.6-3.8,23.4
		c-0.9,5.9-1.8,11.8-2.8,17.6c0,0.3-0.2,0.6-0.3,1.1c-2-0.1-4.1-0.2-6.1-0.4c-0.9-2.1-0.7-4.1-0.3-6.1c1.6-8.3,3.1-16.6,5.1-24.8
		c1.8-7.4,4-14.6,6.1-21.9c1.7-5.8,3.4-11.7,5.1-17.5c0.3-0.9,0.7-1.8,0.9-2.4c4.7,0,9.1,0,14.1,0c-3.4,4.1-6.4,7.8-9.7,11.8
		c0.9,0.9,1.6,1.9,2.5,2.5c5.1,3,9,7.2,11.9,12.1c6.2,10.5,10.4,21.9,13.5,33.7c0.8,2.9,1.7,5.8,2.4,8.8c0.3,1,0.3,2.1,0.5,3.1
		C107.1,261.7,73,262.6,69,261.9z M117.6,223.6c-0.1,4-0.3,8-0.6,12c-0.4,5-1,9.9-1.6,14.8c-0.3,2.5-1,5-1.4,7.3
		c-3-8.8-5.8-17.7-9-26.5c-2.4-6.8-5.4-13.5-9.6-19.5c-2.6-3.7-6.1-6.7-9.3-10c-0.4-0.5-1-0.8-1.7-1.2c3.2-5.3,7.2-9.4,12-12.7
		c0.8-0.6,2.1-0.9,1.7-2c-0.3-0.8-1.4-1.7-2.3-1.9c-3.3-0.6-6.6-1.1-9.9-1.4c-3.5-0.2-7.1-0.1-11.2-0.1c5.7-7.1,12.7-12,20-16.6
		c6.6,8.2,12,16.9,15.5,26.7c1.2,3.4,2.5,6.7,3.6,10.1c0.5,1.6,0.7,3.4,1,5.1c0.4,1.8,0.7,3.6,1.4,5.3
		C117.7,216.5,117.7,220.1,117.6,223.6z M139.5,130.7c0.5,1.9,1.8,2.6,3.9,2.3c4.9-0.7,5.2-1.5,10.5-2.3c2.5,7.1,1.5,19.2-2.7,24.3
		c-3.6,4.3-15.9,8.8-24.9,9.9c-6.2,0.7-12.6,0-18.8-0.8c-5.6-0.7-23.5-6-26.8-14.7c-3.3-8.7-2.6-23.7,3.3-30.4
		c5.8-6.6,14.3-10.8,14.7-11c8.6-3.5,14.6-2.4,23.4-2.9c13.5,1.2,23,9.8,26.5,14.9c-5.6,1.1-10.9,1.7-10.7,3.1
		S138.8,128,139.5,130.7z M157.3,129.6l3.6-0.9c0.5,1,1.4,3.2,2.3,5.5c0.3,0.7-1.7,1.5-2,2.1c-1,1.9,0.1,11.3,0.4,14.2c0,0,0,0,0,0
		c0.9,9.8,1.4,22,2.2,29.4c-6.2-6.5-12.2-12.1-19.7-16.5c7.3-3.4,11.5-8.9,12.5-12.8C158.1,144.9,158.3,134.2,157.3,129.6z
		 M174.4,141.1c0.2,4.6,0.4,9.2,0.5,13.8c0,1.6-0.1,3.3-0.2,4.9c-0.4,7.1-0.7,14.3-1.1,21.4c-0.3,5.7-0.5,11.5-0.7,17.2
		c0,1.1,0,2.1,0,3.8c-3.6-1.5-6.8-2.8-10-4.2c-0.5-0.2-1-0.9-1.1-1.5c-0.6-2.1-1.1-4.1-1.7-6.4c2.5,0,4.6,0,6.7,0
		c2.1,0,3.2-1.1,2-2.7c-1.8-2.4-1.4-5.2-1.6-7.8c-0.4-3.8-0.8-7.5-1-11.3c-0.4-7.1-1.4-14-2.6-21c-0.5-3,0.9-4.6,3.9-5.1
		C169.8,142,171.9,141.6,174.4,141.1z M168,134.9c1.7-0.3,3.2-0.7,4.8-0.8c0.5,0,1.3,0.6,1.4,1c0.1,0.5-0.2,1.4-0.7,1.6
		c-1.3,0.7-2.7,1.2-4.4,1.9C168.6,137.2,168.4,136.3,168,134.9z M163.9,138.7c-0.3-0.1-1.5,0.4-1.5-0.9c0.2-0.3,0.2-0.3,1.5-0.9
		C164.1,137.5,164.2,138.7,163.9,138.7z M104.4,173.3c9.5,0.9,18.5,2.2,26.8-2.6c-4.2,11.5-8.3,22.9-12.7,34.7
		C114.8,194.2,111,183.4,104.4,173.3z M121,216.6c-0.7-2.7-0.2-5.1,0.8-7.7c3.1-8,5.7-16.2,8.5-24.2c2-5.6,4.3-11.2,7.5-16.2
		c0.6-0.9,1.2-1.7,1.9-2.7c10.3,4.3,17.5,11.9,24.3,20.9c-8.3-0.1-15.9,0-23.2,1.6c-0.7,1.7-0.1,2.8,1.1,3.3
		c5.1,2.2,8,6.8,11.9,10.6c-13.4,14.9-25.4,30.6-34.2,48.9c0.5-5.1,1-9.8,1.5-14.5c0-0.2,0.1-0.4,0.1-0.6c0-6.1,0-12.1,0-18.2
		C121,217.3,121,216.9,121,216.6z M122.3,261.4c-0.4-1.3,0.2-2.2,0.6-3.2c2.9-7.8,7.2-14.8,11.4-21.9c2.9-4.9,6.2-9.7,9.4-14.5
		c1.3-1.9,2.8-3.6,4.3-5.3c2.9-3.4,5.8-6.7,8.7-10.1c1.7-2,1.7-3.9-0.2-6.1c-1.8-2.1-3.8-4.1-5.7-6.2c0.1-0.3,0.2-0.5,0.3-0.8
		c1.8,0.3,3.7,0.6,5.7,0.9c1.3,2.9,1.1,6.1,2.4,9.1c1.3,2.9,1.7,6.2,2.5,9.4c0.8,3.2,1.6,6.3,2.3,9.5c0.7,3.3,1.4,6.6,2,9.9
		c0.6,3.2,1.3,6.4,1.9,9.6c0.6,3.2,1.2,6.4,1.7,9.6c0.4,3.2,0.7,6.4,1,10C154.3,262.4,138.4,260.4,122.3,261.4z M223.3,253.3
		c-1.1,3.7-6.2,5.1-10,5.7c-5,0.8-10.1,1.5-15.1,1.9c-6.6,0.5-13.2,0.6-19.8,0.8c-1.1,0-2.2,0-3.4,0c-1.6-10.1-2.9-20-4.9-29.8
		c-2-9.9-4.6-19.6-6.9-29.4c2.3,0.1,7.5,2.1,9.6,3.6c0.6,0.4,1.2,0.9,1.9,1.1c1,0.3,1.7-0.2,1.9-1.3c0.1-0.6,0.1-1.3,0.1-1.9
		c-0.3-11,1.1-21.9,1.7-32.8c0.4-7.5,0.2-15,0.2-22.5c0-3.4-0.3-6.8-0.1-10.1c0.5-6.7-4.9-9.5-10.3-7.6c-0.4,0.1-0.8,0.2-1.8,0.4
		c-1.3-3.5-2.7-6.8-3.8-10.2c-1.1-3.5-6.6-2.6-10.1-2.8c-2.4-2.6-8.5-16.6-33-17c-15.5,0-24.7,3.9-34.4,11.7
		c-5.9,4.8-7.8,11.6-9.3,18.7c-1.4,6.5,0.8,20.4,6.7,25.3c3,2.5,6.3,4.1,8.8,6.4c0.6,0.1-5.6,4.1-7.8,5.7
		c-5.2,3.8-9.8,8.2-13.7,13.4c-1,1.3-1.3,2.6,0,3.7c1.1,0.9,0.8,1.8,0.5,2.9c-3.2,11.1-6.6,22.3-9.6,33.5
		c-1.6,5.7-2.7,11.6-3.9,17.5c-1.4,6.9-2.7,13.8-4.1,20.9c-0.6,0.1-1.2,0.2-1.8,0.2c-9.8,0.3-22.6,0.3-33.5-4.6
		C9.9,253,7.8,246,7.8,241.9c0.1-11.6,3.7-22.4,7.1-33.2c2.1-6.9,5.3-13.5,8.2-20.2c5.6-12.9,11.4-25.8,17.1-38.7
		c3.1-7,6-13.9,9-20.9c2.2-5.3,4.4-10.6,6.7-15.9c1.4-3.3,3.1-6.5,4.6-9.7c6.7-14.3,13.4-28.7,20.2-43c0.2-0.5,0.5-1,0.9-1.7
		c3.2,4.3,6.3,8.9,12.1,9.1c5.1,0.2,10.3,0,13.6-4.6c1.9,1.7,3.8,3.3,5.6,5.1c4.2,3.9,9.2,5.5,14.8,5.8c1.4,0.1,2.8-0.4,4.1-0.8
		c2-0.6,3.9-1.4,5.8-2.2c3.2-1.4,4.9-4.2,6.4-7.4c6.8,3.4,13.8,4.4,21.7,2.6c1.6,3.7,3.4,7.6,4.9,11.6c5.3,13.9,10.6,27.8,15.8,41.7
		c4.4,11.8,8.8,23.6,13,35.4c3.8,10.5,7.5,21,11.1,31.6c3.1,9.1,6,18.3,9,27.5C221.7,222,228.5,240.4,223.3,253.3z"/>
</g>
</svg>
