<?xml version="1.0" encoding="utf-8"?>
<!-- Generator: Adobe Illustrator 19.1.0, SVG Export Plug-In . SVG Version: 6.00 Build 0)  -->
<svg version="1.1" id="Calque_1" xmlns="http://www.w3.org/2000/svg" xmlns:xlink="http://www.w3.org/1999/xlink" x="0px" y="0px"
	 viewBox="0 0 245.9 245.8" style="enable-background:new 0 0 245.9 245.8;" xml:space="preserve">
<style type="text/css">
	.st0{fill:#254B86;}
	.st1{fill:#254B87;}
	.st2{fill:#492E1F;}
	.st3{fill:#DFB76A;}
	.st4{fill:#BFBEBE;}
	.st5{fill:#6EA2C2;}
	.st6{fill:#224E89;}
	.st7{fill:none;stroke:#224E89;stroke-width:3;stroke-miterlimit:10;}
	.st8{fill:#F5F9F8;}
	.st9{fill:#F5F9F8;stroke:#224E89;stroke-width:3;stroke-miterlimit:10;}
	.st10{fill:#F9CB00;}
	.st11{fill:#DF111A;}
	.st12{fill:#0B6EB1;}
	.st13{fill:#8D1514;}
	.st14{fill:#679FD0;}
	.st15{fill:#008549;}
	.st16{fill:#CB9831;}
	.st17{filter:url(#Adobe_OpacityMaskFilter);}
	.st18{fill:#1D1C1A;}
	.st19{fill:#C99730;}
</style>
<g>
	<g>
		<path id="" d="M124.7,20.5c5.6,1,9.7,3.8,12,9c1.9-3.2,3.5-6.1,5.2-8.9c0.5-0.9,0.6-1.6-0.3-2.4c-2.3-2-3.1-4.7-3.7-7.4
			c-0.3-1.4-0.2-2.8-0.3-4.3c-4.5-0.6-8.8-0.9-13.4-1.1c0.8,3.8,2.3,10,3,13.3c2,5.6,0.3,2.7-1.5,3.7c0.1-0.5-2.5-11.2-3.3-15.1
			c-0.1-0.5-0.3-0.9-0.6-1.5c-1.5,0.7-4.9,2.7-5.4,2.9c-5,1.6-10,1.4-15.1-0.6c-0.5,1.5-2.6,10.8-3.4,13.9
			c-1.5,6.1-3.1,12.2-4.6,18.1c8.2,8.8,5.5,14.6,0.2,19.9c0.3,2.4,1.4,6,1.9,8.5c6.2-2.3,12.4-3.1,18.6-3.9c6.2-0.8,12.5-0.5,19,0
			c-1.3-4.3-2.5-8.2-3.7-12.3c-7.3,3.6-14.7,3-22.2,0.9c-1.8,4.2-3.1,11-5.3,15.2c-1.3-1.4-2.4,0.4-1.8-0.9
			c1.8-4.7,4.8-14.8,6.5-19.5c-0.1-0.2-0.1-0.3-0.2-0.5c-0.3-0.4-0.6-0.7-0.9-1c-3.4-3.4-4.9-9.6-4.1-14.1s3.9-9.7,9.2-11.5
			c2.4-0.8,5-1.2,7.6-1.4C120.2,19.5,122.4,19.9,124.7,20.5z"/>
		<path id="" d="M200.5,161.6L200.5,161.6c2.5-7,11.1-28.1,13.4-34.7c-2-2.5-4.1-4.6-5.7-7c-6-9.3,0.7-17.1,6.5-20
			c3.5-1.7,9.3-3.2,14.5-2.5c-0.7-3.2-1.4-7.1-2.3-10.7c-0.7,1-11.1,2-21.7-1.1c-0.3,1.1-7.4,33.7-8.6,38.1
			c-0.2,0.8-3.9,0.7-3.6-0.7c1.6-6.5,8.9-34,9.6-40.6c-2.6-2.1-3.2-2.9-4.1-5.4c-0.4-1.1-0.7-2.2-1-3.4c-1.2-5.3-0.4-10.7,5-14
			c0.3-0.2,0.6-0.4,0.8-0.5c0-1-0.1-1.9,0-2.8c0.6-7,1-14-0.1-21c-0.2-1.4-0.8-2.3-2.1-3.1c-1-0.6-11.4-8.8-16.4-10.9
			c-4.2-1.8-8.4-3.5-12.6-5.2c-0.9,1.1-1.7,2.5-2.7,3.6c-1.1,1.1-2.5,1.8-3.8,2.8c0.7,2.4,1.4,4.6,2.1,7.1c4.4-1.7,8.8-1.6,13.1-1.2
			c5.5,0.4,10.1,2.5,13.3,6.9c4.8,6.6,4.5,10.9,0.2,16.3c-2.7,3.5-2.3,5.1-1.5,7.9c0.9,4.1,4.8,8.1,5.7,12.2
			c0.4,1.8,1.6,3.7,1.2,5.5c-0.4,0-1.1-0.1-1.5-0.1c-1.7-6.4-6.6-12.5-8.3-19.1c-5.7,5.6-12.5,7.2-20.2,5.8c-0.6,4-1.2,7.8-1.8,11.7
			c1.9,0.1,8.2,0,9.7,0.4c4.7,1.3,9.1,3.2,11.8,7.5c3.9,6.2,5.4,12.7,1.8,19.4c-1,1.8-2.6,3.2-4.1,4.9c0.7,4.2,1.5,8.7,2.3,13.2
			c6.4,1.6,6.4,1.6,10.7,5.6c1,1,1.8,2.2,2.7,3.4c4,5.7,3.5,13.3-1.2,18.5c-0.6,0.7-1.2,1.3-1.8,1.9c0.2,0.9,0.3,1.7,0.4,2.5
			c1.1,7.8,5.9,13.8,6.9,21.6c0.2,1.6,0.7,3.4-0.5,4.9c-1.2,0-0.6-1.8-0.7-2.6c-0.5-3.5-7.2-16.8-7.8-21.6
			c-7.9,3.4-15.9,4.1-24.1,1.9c-1.3,6.2-2.5,12.2-3.8,18.1c7.7,0.9,10,1.8,15.2,6.6c3.8,3.4,5,7.8,4.5,12.8
			c-0.4,3.3-2.3,5.9-4.2,8.4c-1.1,1.4-1.3,2.5-0.6,3.9c1.7,3.5,3.4,7,5.2,10.5c6-4.3,12.1-7.9,16.9-13.2c1.2-1.3,2.7-2.5,2.6-4.3
			c0.9-3.2,1.2-10.4,1.3-11.3c-3.2-2.1-4.8-4.9-5.8-8.3c-1.1-3.8-0.5-7.3,0.7-10.9c1.1-3.2,3.2-5.5,6.2-6.9
			c3.4-1.6,7.1-2.1,10.8-2.2c2.8-0.1,5.5,0.5,8,2.3c4.5-10.2,6.3-21,7.3-32.4c-7.8,4.6-15.4,4-23.1,0.9c-1.8,4-9.8,28.7-12.3,33.5
			C201.4,168.1,201.3,161,200.5,161.6z"/>
		<path id="" d="M167.5,176.3c-0.3,0.1-0.7,0.3-1,0.4c-1.3-2.1-3.4-5.8-4.6-8.1c-1.1-2.2-1.9-4.6-2.8-6.8
			c-3.8,2.7-7.4,5.5-11.2,8c-3.9,2.5-8.1,4.5-12.4,6.8c1.2,3.4,9,19.9,9.2,21.1c1.1,6-0.8,1.2-1,1.3c-1.7-4.8-8.5-17.2-10.3-22.2
			c-3.3,0.8-6.6,1.7-10.1,2.3c-3.5,0.6-7,0.8-10.5,1.2c-2.2,5.2-7,17.7-10.7,22.4c-0.1-0.8-0.6-2.7-0.3-3.4
			c1.4-3.4,5.7-13.2,7.1-16.6c0.4-0.9,0.7-1.8,1-2.7c-5-1-9.5-1.9-14.1-2.8c-1.2,5.7-1.1,12.2-2.4,16.1c-3.7-1-0.2-13.3-0.4-17.4
			c-6.9-3.1-13.4-6.9-19.3-11.9c-2.6,5-5.2,8.2-7.9,12.4c7.4,3.7,10,9.6,8.9,17.5c2.9-2.7,7.5-3.9,11.1-3.9
			c8.2,0.1,13.1,3.5,16.8,10.6c2.3,4.4,2.5,7.9-1.3,13.3c-1,1-1.1,2.2-0.8,3.5c0.8,3.2,1.5,6.5,2.2,9.8c0.8,4.3,1.6,8.7,2.4,13.1
			c1,0.1,1.9,0.2,3,0.3c1-2.5,1.9-5,3-7.4c1.1-2.5,2.3-4.9,3.5-7.3c-1.1-1.3-2.2-2.3-3-3.6c-4.9-7.6,0.3-16.8,3.8-18.8
			s9.9-3,18.4-1.3c8.5,1.7,9.6,9.9,10,11.6c0.8,3.5,0.3,6.6-2.6,9.1c-0.8,0.6-1.5,1.3-2.1,1.9c2.1,3.5,4.1,6.9,6.2,10.4
			c2.9-8.6,5.7-17,8.4-25.3c-2.3-1.5-4.3-2.6-6-4.1c-7-6.3-4-14.8-0.7-18.4s8.6-7.5,12-8.9c2.8-1.2,5.6-2.1,8.2-3.1
			c0.6-1.9,1.5-3.7,1.9-5.7c1-5,1.9-10.1,2.7-15.2c0.4-2.3,0.5-4.8-2.1-5.9c-3.1,4-6.3,8-9.3,12c1.1,2.4,2.2,4.8,3.2,7.2
			C164.6,170,166.9,173.8,167.5,176.3z"/>
		<path id="" d="M168.2,58.5c-6.6-2.3-9.5-7-10.2-13.4c-0.7-6.6,2.1-11.5,7.7-15c-0.4-1.5-0.8-2.8-1.2-4
			c-3.4,1.4-10.2,2.3-13.8,1.5c-2.2-0.5-4.4-1.2-6.6-2.1c-1.7-0.7-2-0.8-2.9,0.8c-0.9,1.6-1.7,3.2-2.7,4.7c-0.8,1.2-0.9,2.5-0.6,3.8
			c0.7,3.2-0.1,6-1.8,8.7c-1.4,2.2-2.8,4.2-5.4,5.5c1.6,5.5,3.2,11,4.8,16.5c9.9,1.7,18.4,5.7,25,12.6c1.7-0.9,3.1-1.6,4.8-2.6
			C166.4,70.1,167.3,64.3,168.2,58.5z"/>
		<path id="" d="M54.7,45.4c4.9,2.7,7.1,7.1,7.4,12.3c0.3,5.7-3.4,9.1-8,11.5c0.4,4.8,1,9.4,2.4,13.8
			c4.8,1.2,7.8,2.4,11.2,4.8c6.7-8.6,15.3-14.6,25.9-18.3c-0.4-1.9-0.8-3.6-1.2-5.4c-5.7,1.6-11.2,1.9-16.8-0.4
			c-1,6-3.8,20.3-6.1,26c-1.4-1.3-1.2-2.5-0.8-3.9c1.3-5.1,3.8-18.8,5.2-23.8c0.5-1.8,0.2-3.2-1.2-4.6c-2.9-2.9-2.8-6.6-1.7-10.3
			c2.1-4.6,6.6-6.7,8-7.7c-1.1-5.2-2.2-10.2-3.3-15.5c-4.5,2.3-8.9,3.2-13.7,2.3C59.5,32.7,57.1,39,54.7,45.4z"/>
		<path id="" d="M72.2,162.7c-3-3.5-6-6.8-8.7-10.2c-3.8-4.9-6.3-10.4-7.1-16.5c-0.5-4.5-0.8-8.9-1.1-13.4c0-0.6,0-1.3,0-1.9
			c0-1.1,0-2.2,0-3.6c-4.8,1.4-8.7-0.7-12.8-1.7c-0.5,1.4-1,2.6-1.5,3.9c-1.8,5.2-8.5,17.2-7.7,18.5c0.4,0.7,0.7,1.4,0.9,1.9
			c2.8-0.1,5.3-0.3,7.9-0.3c3.8,0.1,7.1,1.5,9.6,4.2c1.7,1.8,3.4,3.8,4.8,5.9c3,4.2,3.6,8.7,1.9,13.6c-1.2,3.4-2.7,6.3-6.3,7.8
			c-0.4,0.2-1,0.7-1.1,1.1c-0.2,1.6-1,3.3,0.2,4.6c4.1-0.3,7.9-0.6,12.3-0.9C66.4,171.5,69.4,167,72.2,162.7z"/>
		<path id="" d="M59.6,25.9c-1.4-1.8-2.4-1.6-3.6-0.7c-6.6,4.8-13.3,9.5-19.3,15c-4.4,4-8.1,8.4-11.6,13.1
			c-3.3,4.4-6.4,8.9-9.3,13.5c-1.6,2.5-2.8,5.3-4,8c-1.3,3-2.4,6.1-3.5,9.1c-0.4,1-0.6,2-1.1,3.3c7.2-0.9,13.9-0.8,19,4.2
			c0.3-1.7,0.5-3.4,0.9-5c0.4-1.5,1-2.9,1.4-4.4c1.1-3.8,2-7.6,3.3-11.4c0.6-1.8-0.3-2.4-1.4-3.3c-1.6-1.3-4.9-6.4-2.5-12.2
			c2.5-6.3,8.4-10.9,20.2-10.9c0.7,0.3,3.4,0.2,4.3,0.4C54.9,38.2,57.3,32,59.6,25.9z"/>
		<path id="" d="M31.6,134.5c1.1-2.4,2-4.7,3.3-6.8c2.9-4.9,4.7-10.2,6.6-15.4c0.6-1.7,0.6-3.1-0.8-4.7
			c-3.5-3.6-3.6-8.3-3-12.5c0.6-4.1,3.6-8.1,6.9-9.7s7-2.5,9.7-2.7c-0.7-3.3-1.4-6.3-2-9.4c-3.9,1.1-13.9,0.4-17.8-0.9
			c-1.3,3.5-3,8.3-4.2,11.6c-0.7,2-1.4,4.1-2.1,6.2c-0.4,1.2-0.4,2.3,0.5,3.5c2.6,3.6,3.4,7.5,2.1,11.8c-1.4,4.7-3.9,8.5-8.3,11.1
			c1.3,5.1,2.5,10,3.7,14.9C27.9,132.2,29.9,133,31.6,134.5z"/>
		<path id="" d="M183.5,208.2c-8.5,6.2-18,7-28,5.6c-2.3,8-4.6,15.9-6.9,23.8c9.7-1.4,32.8-12,40.2-19.2
			C187,215,185.3,211.7,183.5,208.2z"/>
		<path id="" d="M51.3,194.3c0.1-6.7-1.9-12.8-2.9-19c-7.3,2.5-13.8,0.3-20.4-2.6c-2.3,4.9-4.5,9.7-6.6,14.5
			c-0.4,0.9-0.2,1.7,0.5,2.5c2.5,3,5,6.1,7.2,8.9c1.4-0.7,2.7-1.6,4.1-2.2C39,194.3,44.8,192.8,51.3,194.3z"/>
		<path id="" d="M81.3,38.4c3.6-0.8,6.9-0.4,10,0.9c2.5-10.6,5-21,7.5-31.8c-5.2,1.4-10,2.4-14.4,4.2c-0.4,4.8-2.4,8.5-6.4,11
			C78,25.8,79.9,35,81.3,38.4z"/>
		<path id="" d="M71.7,230.9c5.3,2.5,23.7,7.7,30.6,8.6c-1.2-6.8-2.3-13.4-3.6-20.6c-3.1,4.2-7.4,4.7-11.6,5.2
			c-4.4,0.4-8.8-1.2-12.3-5.2C73.9,222.2,72.7,227.8,71.7,230.9z"/>
		<path id="" d="M138.4,228c-7.6,3.5-14.9,2.7-21.7,0c-1.4,3.6-4.1,9.1-5.6,12.9c11.2-0.1,22.1-0.2,33.2-2.2
			C142.2,235,140.3,231.5,138.4,228z"/>
		<path id="" d="M53.5,221.9c5.1,3.3,10,5.9,15.1,8c0.3-0.2,0.5-0.3,0.5-0.4c1-3,3.3-11.6,3.7-13.3c-1.4-2.3-4.8-4.5-5.2-10.8
			c-1.7,0.8-3.2,1.1-5.4,0.6c1,3.2,0.6,6.3-1.2,9.2C59.5,218,57.4,220.4,53.5,221.9z"/>
		<path id="" d="M20.9,120.3c-5.7,3.8-11.7,3.4-17.9,2c0.4,5.2,0.8,10.1,1.3,15.3c6.2-5.3,12.3-6.3,19.7-5.9
			C23,127.7,22,124.2,20.9,120.3z"/>
		<path id="" d="M205.7,35.4c0.2,1.8,0.4,3,0.4,4.2c0,3.3-0.2,12.7-0.8,18c0,0.1,0.2,0.2,0.1,0.2c8.4-3,13.8-1.8,16.9-0.7
			C218.3,48.5,211.7,42.5,205.7,35.4z"/>
		<path id="" d="M19,185.9c2.7-5.7,5.2-10.9,7.7-16c0.8-1.6,1.1-3.1-0.8-4.3c-4.4,2.8-9.4,3.7-14.9,3.9
			C13.6,174.9,16.2,180.2,19,185.9z"/>
		<path id="" d="M237.1,101c-2-6.8-2.2-13.8-4.8-20.3c-1.3,1.1-2.5,2.2-3.7,3.2c0.7,3.3,1.3,6.3,2.1,9.4
			c1.2,5.1,1.2,5.1,5.9,7.7C236.6,101,236.7,101,237.1,101z"/>
		<path id="" d="M178.8,114.1c0,2.8,0,5.6,0,8.3c3-0.7,5.8-1.3,8.6-1.9c-0.6-3.2-1.2-6.3-1.7-9.2
			C183.4,112.2,181.2,113.1,178.8,114.1z"/>
		<path id="" d="M213.2,192.2c-0.3,1.4-0.5,2.6-0.7,3.8c0.1,0,0.2,0.1,0.3,0.1c0.6-0.9,1.2-1.9,1.9-3
			C214.1,192.8,213.7,192.6,213.2,192.2z"/>
	</g>
	<path d="M245.7,120.7c-1-16.5-2.4-24.2-4.1-31.8c-1.4-6-3.4-12-5.1-17.9c-1.8-6-12.5-28.3-24.3-38.5c-4.5-3.9-9.3-7.4-14.1-10.9
		c-5.4-3.9-11.3-6.9-17.5-9.5c-5.1-2.2-10.6-3.7-15.9-5.6c-4.3-1.6-20.1-4.7-23.5-5.2c-6.9-1.1-13.8-1.4-20.8-1.2
		c-7-0.1-21.2,3.3-26.9,4.8C90,5.8,86.6,7.1,83.2,8.4c-2.4,0.9-4.7,2.2-7,3.3c-6.8,2.9-26.6,14.2-34.8,21.4
		c-3.7,3.1-7.3,6.4-10.8,9.8c-2.3,2.2-4.3,4.7-6.2,7.3c-2.5,3.3-4.7,6.9-7.1,10.3c-3.7,5.1-6.6,10.7-8.9,16.4
		c-0.9,2.2-1.7,4.4-2.6,6.5c-3.7,9.3-5.7,19-5.8,29c0,1.2-0.1,2.4,0,3.5c0.6,7.6,1.6,15.2,1.9,22.9c0.3,8.2,2.5,18.8,4.6,26.5
		c2.1,7.7,10.7,21.9,13,25.1c2.7,3.7,5.6,7.2,8.4,10.8c1.6,2,3,4.1,4.7,6c5,5.4,10.5,10.4,16.7,14.6c3.3,2.2,6.5,4.4,9.9,6.5
		c3.2,1.9,18.6,8.3,22,9.7c3.3,1.3,10.3,3,15.4,4.4c7.3,1.9,14.7,2.8,22.2,3.3c7.5,0.5,14.9-0.5,22.3-1.5c3.7-0.5,7.4-1.6,11.1-2.6
		c5-1.3,28.6-5.4,55.2-28.5C230.6,193,247.8,153.6,245.7,120.7z M237.1,101c-0.5,0-0.6,0-0.6,0c-4.6-2.6-4.6-2.6-5.9-7.7
		c-0.7-3.1-1.3-6.1-2.1-9.4c1.2-1.1,2.5-2.1,3.7-3.2C235,87.2,235.1,94.3,237.1,101z M208.2,119.8c1.6,2.4,3.6,4.5,5.7,7
		c-2,5.7-8.7,22.3-12,31.2c-0.6-1.7-1.1-3.5-1.3-5.3c-0.1-0.8-0.3-1.6-0.4-2.5c0.5-0.6,1.1-1.2,1.8-1.9c4.7-5.2,5.2-12.8,1.2-18.5
		c-0.8-1.2-1.6-2.4-2.7-3.4c-1.6-1.5-2.6-2.5-3.6-3.2c1.4-5.5,8.3-36.7,8.6-37.7c10.6,3.1,21,2.1,21.7,1.1c0.8,3.6,1.5,7.5,2.3,10.7
		c-5.2-0.7-11.1,0.8-14.5,2.5C208.9,102.7,202.2,110.5,208.2,119.8z M200.5,161.5C200.5,161.6,200.5,161.6,200.5,161.5L200.5,161.5
		C200.5,161.5,200.5,161.6,200.5,161.5z M52.3,182.6c-0.6-2.7-0.3-3.2,2.5-3.5c2.8-0.3,5.6-0.6,8.5-0.3c5.9,0.6,10.7,7,9.1,12.8
		c-0.9,3.2-1.9,5.9-4.7,8.1c-2.2,1.8-4.2,2.4-7,1.8c-1.4-3-4.7-5.7-7.6-7.1C54,190.5,53.1,186.5,52.3,182.6z M51.3,171.9
		c0-0.4,0.6-0.9,1.1-1.1c3.6-1.5,5.1-4.4,6.3-7.8c1.7-4.9,1-9.4-1.9-13.6c-1.5-2.1-3.1-4.1-4.8-5.9c-2.6-2.7-5.8-4.1-9.6-4.2
		c-2.6,0-5.1,0.2-7.9,0.3c-0.2-0.5-0.5-1.2-0.9-1.9c-0.8-1.3,5.9-13.3,7.7-18.5c0.4-1.3,1-2.5,1.5-3.9c4.1,1,8,3.1,12.8,1.7
		c0,1.4,0,2.5,0,3.6c0,0.6-0.1,1.3,0,1.9c0.4,4.5,0.6,9,1.1,13.4c0.7,6.1,3.2,11.7,7.1,16.5c2.7,3.4,5.7,6.7,8.7,10.2
		c-2.9,4.4-5.8,8.9-8.5,13c-4.3,0.3-8.2,0.6-12.3,0.9C50.3,175.2,51.1,173.5,51.3,171.9z M47.8,169.3c-2.5,0.5-5.2,0.7-7.7,0.4
		c-4.5-0.5-8.8-1.8-11.9-5.3c-3.7-4.1-4-11.9-1-15.9c3.2-4.2,8.1-6.4,13.5-6.4c5.3,0,9.2,2.2,12.3,6.2c0.6,0.7,1.1,1.5,1.6,2.2
		c3.5,4.8,2.8,9.7,0.2,14.5C53.5,167.6,50.6,168.7,47.8,169.3z M28.5,93.7c-0.9-1.2-1-2.2-0.5-3.5c0.7-2.1,1.4-4.1,2.1-6.2
		c1.2-3.3,2.9-8.1,4.2-11.6c3.9,1.3,13.9,2,17.8,0.9c0.7,3.1,1.3,6.2,2,9.4c-2.7,0.2-6.4,1.1-9.7,2.7c-3.3,1.6-6.3,5.5-6.9,9.7
		c-0.6,4.1-0.5,8.8,3,12.5c1.5,1.5,1.5,2.9,0.8,4.7c-1.9,5.3-3.6,10.6-6.6,15.4c-1.3,2.1-2.1,4.4-3.3,6.8c-1.6-1.5-3.7-2.3-5.5-3
		c-1.2-4.9-2.4-9.9-3.7-14.9c4.4-2.5,6.8-6.4,8.3-11.1C31.9,101.2,31.1,97.2,28.5,93.7z M92,190.7c-1.8-0.5-3.8-0.8-6-0.8
		c-3.5,0-8.2,1.2-11.1,3.9c1.1-7.9-1.5-13.8-8.9-17.5c2.7-4.2,5.3-7.4,7.9-12.4c5.9,5,12.3,8.8,19.3,11.9
		C93.3,178.9,91.3,186.7,92,190.7z M79.1,142c-3.3-2-6.8-3.2-10.4-4.4c-3.4-1.1-6.6-2.7-9.6-4c-1.9-11.1-1.6-21.6,3.5-31.3
		c1,0,16.1-4.2,22.8-5.9c1.5-0.4,3-0.9,4.3-1.3c2.8,1.6,5.5,3.2,8.3,4.5c3,1.4,5.6,3.2,7.6,5.7c0.1,0.1,3.1,4.1,2.7,6.7
		c-0.6,5.1-1,10.2-1.6,15.3c-0.2,1.4-0.4,2.8-0.6,4.3c-3.2,2.8-7.4,3.8-11.3,5.5c-3.8,1.7-7.6,3.3-11.3,5.1
		C81.8,143.2,80.3,142.8,79.1,142z M56.8,109.9c-4.8,1.7-9.1,0.3-13-2.5c-0.2-0.2-0.4-0.3-0.6-0.5c-6.8-5.8-4.9-17.4,3.6-20.2
		c5.1-1.7,10.4-1.7,15.4,0.7c1.3,0.6,2.6,1.4,4.2,2.3c-2.1,3.4-4.3,6.4-5.8,9.8C59,102.8,58,106.4,56.8,109.9z M71.4,83.5
		c1.8-6.7,3.5-15.5,4.2-19.9c5.6,2.3,11,1.9,16.8,0.4c0.4,1.8,0.8,3.5,1.2,5.4C84.9,72.5,77.5,77.2,71.4,83.5z M92.8,57.7
		c-3.5,2.1-7.6,2.1-10.8,1.6c-3.4-0.4-4.3-1-6.1-2.1c-4.2-2.7-4.9-6.9-3-10.1c1.9-3.2,4.5-5.8,9.1-6.8c2.6-0.6,9.4,0.1,12.4,3.6
		c1.6,1.8,2.2,4.3,2.3,7.1C96.9,53.9,95.2,56.3,92.8,57.7z M70.9,47.1c-1.2,3.7-1.2,7.4,1.7,10.3c1.4,1.4,1.7,2.8,1.2,4.6
		c-1.3,5.1-3.9,18.7-5.2,23.8c-0.1,0.3-0.2,0.7-0.2,1c-0.3,0.3-0.5,0.6-0.8,0.9c-3.4-2.3-6.4-3.6-11.2-4.8c-1.4-4.4-2-9-2.4-13.8
		c4.6-2.4,8.4-5.8,8-11.5c-0.3-5.2-2.5-9.6-7.4-12.3c2.4-6.4,4.9-12.7,7.3-19.1c4.8,0.8,9.2-0.1,13.7-2.3c1.1,5.3,2.2,10.2,3.3,15.5
		C77.6,40.4,73,42.5,70.9,47.1z M55.9,65.4c-4.1,3-12.4,5.6-21.6,1.6c-1.5-1-5.3-3.1-5.3-7.4c0-4.9,4-9.1,7.5-11.2
		C40,46.3,47.9,45,54,47.5C60.2,50,62.9,60.2,55.9,65.4z M70.4,203.4c4.4-9.6,10.3-12,17.7-11.1c12,1,13.3,11.9,13.5,13.1
		c0.8,3.9-6.4,12.6-15.2,13c-4.8,0.7-9.7-2.6-13-6.1C71.1,209.7,69.4,206.5,70.4,203.4z M94,191.5c0.8-3.9,0.9-9.5,1.9-14.4
		c4.6,0.9,9.2,1.8,14.1,2.8c-0.4,1-0.7,1.9-1,2.7c-1.4,3.4-5.7,13.1-7.1,16.6C99.8,195.5,97.3,193,94,191.5z M107.1,173.4
		c-1.2,0.9-2.2,1.9-3.4,3c-8-1.3-15.2-4.5-21.8-9.2c0-7.4,0-14.8,0-21.8c1.1-0.3,2-0.5,2.8-0.9c7.3-3.2,14.5-6.4,21.5-9.5
		c6.7,3.6,13.1,7.1,19.5,10.6c-0.3,5.1-1.1,10-2.3,14.8c-0.1,0.5-0.6,1.1-1,1.5C117.3,165.7,112.2,169.5,107.1,173.4z M114.2,105.5
		c-1.4,0.3-2.9,0.4-4.3,0.3c-0.7-0.1-1.5-0.6-2-1.2c-3-3.4-6.9-5.7-11.1-7.6c-4.6-2.1-4.7-2.3-3.2-6.9c1.1-3.5,2.1-7.1,3.2-10.6
		c0.3-1,0.8-2,1.2-3c0.4-1.1,2.9-7.2,5.5-7.6c14.4-2.6,27.9-1.5,32.6-0.9c2.6,0.3,4.5,1.4,5.3,4c0.9,2.8,2,5.6,2.9,8.5
		c0.2,0.6,0.1,1.4-0.2,2c-3,5.7-6.2,11.3-9.2,17c-0.7,1.4-1.6,1.9-3.1,2.2C125.9,102.8,120.1,104.2,114.2,105.5z M138,34.8
		c-0.3-1.3-0.2-2.6,0.6-3.8c1-1.5,1.7-3.2,2.7-4.7c0.9-1.5,1.2-1.4,2.9-0.8c2.1,0.8,4.3,1.6,6.6,2.1c3.6,0.7,10.3-0.2,13.8-1.5
		c0.4,1.3,0.8,2.6,1.2,4c-5.6,3.5-8.4,8.4-7.7,15c0.7,6.4,3.7,11.2,10.2,13.4c-0.9,5.9-1.8,11.6-2.7,17.1c-1.7,0.9-3.2,1.7-4.8,2.6
		c-6.6-7-15.1-11-25-12.6c-1.6-5.5-3.2-10.9-4.8-16.5c2.6-1.3,4.1-3.3,5.4-5.5C137.9,40.8,138.8,37.9,138,34.8z M174.3,96.3
		c1.3-0.4,1.2-1.7,0.8-2.8c-0.4-1-1.7-1-2.4-0.6c-2.2-4.5-4.8-9.3-9.3-12.9c1.9-1.6,4.1-2,6.4-2c2,0,4.1,0.1,6.1,0.3
		c8.7,0.6,14.6,6.8,15.2,15.1c0.5,6-2.2,10-7.7,12.5c-1.8,0.8-3.6,1.5-5.5,2.4C176.7,104.1,175.5,100.3,174.3,96.3z M172.1,126.5
		c-0.2,0.4-8.6,5.9-11.9,8.4c-3.1-1.5-10.2-4.6-13.3-6c-3.3-8.7-7.6-19.3-10.3-25.9c2.4-5.5,5.9-14.4,10.2-19.6
		c3.6-0.1,7.2,1,10.9,2c1.2,0.3,7.3,2,8.1,3.2c6.6,8.9,9.2,20.9,9.8,26.7C176,118.2,172.6,125.6,172.1,126.5z M178.8,114.1
		c2.4-1,4.6-1.9,6.9-2.8c0.5,2.9,1.1,6,1.7,9.2c-2.8,0.6-5.6,1.3-8.6,1.9C178.8,119.7,178.8,116.8,178.8,114.1z M187.4,107.6
		c1.5-1.7,3.1-3.2,4.1-4.9c3.7-6.8,2.2-13.2-1.8-19.4c-2.7-4.3-7.2-6.2-11.8-7.5c-1.5-0.4-7.8-0.3-9.7-0.4c0.6-3.9,1.2-7.7,1.8-11.7
		c7.7,1.4,14.5-0.2,20.2-5.8c1.5,5.9,5.6,11.3,7.7,17c0.2,0.7,0.4,1.4,0.7,2.1c0.9,2.6,1.6,3.4,4.1,5.4c-0.7,6.3-7.3,31.3-9.3,39.4
		c-1-0.3-2.1-0.6-3.7-0.9C188.9,116.3,188.1,111.8,187.4,107.6z M171.8,56.3c-2.4-0.3-5-1.2-6.9-2.5c-3.3-2.4-5.9-9.2-3.9-14.7
		c2.5-7.1,12.8-8.5,16.3-8.5c3.5,0,8.9,1.2,12.8,3.7c3.1,2,4.6,4.9,5.4,8.2c0.6,2.7-0.9,5-2.7,6.8C187,55.1,179.9,57.4,171.8,56.3z
		 M130.8,45.5c-3.2,2.2-11.2,3.9-20.2,0.9c-4.3-1.8-6.7-5.2-7.3-9.7c0-7.3,5.1-12.3,10.5-13.5c5.5-1.3,10.4-0.5,15.3,1.9
		c6.8,2.9,6.8,11,6.8,12C135.9,40.7,133.8,43.4,130.8,45.5z M107.1,53.4c7.5,2.1,14.9,2.7,22.2-0.9c1.2,4.1,2.4,8,3.7,12.3
		c-6.5-0.5-12.8-0.8-19,0c-3.8,0.5-7.5,0.9-11.3,1.8C104.4,62.4,105.5,57,107.1,53.4z M127.5,148.1c0.2-1.6,0.9-3,2.1-4
		c2.5-1.9,5-3.7,7.5-5.5c2.8-2.1,5.7-4.3,8.3-6.4c4.1,1.8,8.3,3.6,12.8,5.5c-0.2,1.9-0.4,3.9-0.7,5.9c-0.6,4-1.5,8-1.8,12
		c-0.3,2.9-2,4.6-4,6.2c-2.9,2.2-6,4.2-8.6,6c-6.3-1.9-11.8-3.6-17.4-5.3C125.8,161.5,127,151.9,127.5,148.1z M148,169.8
		c3.9-2.4,7.5-5.3,11.2-8c0.9,2.2,1.7,4.6,2.8,6.8c1,1.9,2.7,4.9,3.9,7c-2.2,0.8-4.5,1.6-6.8,2.6c-3.4,1.5-8.7,5.3-12,8.9
		c-1.5,1.7-3,4.5-3.4,7.7c-2.2-5.1-7.2-15.6-8.1-18.3C139.8,174.3,144,172.3,148,169.8z M147.3,192.7c4.6-9.9,19-15.1,25.6-14.7
		c6.3,0.4,13.5,5,15,11.2c0.5,2.2,0.3,4.2-0.5,6.3c-1.9,4.7-5.4,7.9-10.1,10c-4,1.8-8.2,2.8-12.6,2.9c-4.8,0.1-9.5-0.5-13.5-3.3
		c-1.3-0.9-2.4-2-3.4-3.1C144.9,199.1,145.8,195.9,147.3,192.7z M167.3,175.2c0,0-0.1,0-0.1,0c-0.9-2.4-2.7-5.5-3.6-7.6
		c-1-2.4-2.1-4.8-3.2-7.2c3-3.9,6.2-7.9,9.3-12c2.6,1.2,2.5,3.6,2.1,5.9c-0.8,5.1-1.7,10.1-2.7,15.2
		C168.8,171.5,168,173.3,167.3,175.2z M171.2,145.7c4-6.2,5.8-13.2,7.3-20.8c2.9-0.4,5.7-0.9,8.6-1.2c9-1,16,7.5,16.2,14.5
		c0.1,3.7-1.7,6.8-4.7,9.1c-3.1,2.4-6.8,3.6-10.7,4.2c-4.4,0.7-8.7,0.2-12.6-1.9C173.6,148.6,172,147.8,171.2,145.7z M225.5,62.4
		c1.9,4.6,3.8,9.2,5.6,13.8c0.5,1.3,0.1,2.3-1.1,3.3c-3.6,3-7.8,4.6-12.4,4.8c-2.1,0.1-4.2-0.4-6.2-1c-2.1-0.6-4.1-1.6-6.1-2.6
		c-2.5-1.2-4.3-3.4-5.3-5.9c-0.1-0.5-0.3-0.9-0.5-1.4c-0.4-1.5-0.4-3,0-4.3c1.2-8.2,10.2-10.4,13.6-10.5c3.7-0.2,8.4,0.9,11.1,2.1
		C224.7,61,225.2,61.8,225.5,62.4z M206.1,39.6c0-1.2-0.2-2.4-0.4-4.2c6,7.1,12.6,13.1,16.7,21.7c-3.1-1.1-8.5-2.3-16.9,0.7
		c0,0.1-0.1-0.1-0.1-0.2C205.9,52.3,206.1,42.9,206.1,39.6z M184.9,21.2c5,2.1,15.4,10.2,16.4,10.9c1.3,0.8,1.8,1.7,2.1,3.1
		c1.1,7,0.7,14,0.1,21c-0.1,0.9,0,1.8,0,2.8c-0.2,0.2-0.5,0.4-0.8,0.5c-3.3,2-4.9,4.9-5.3,8c-1.5-2.7-3.5-5.4-4.1-8.2
		c-0.8-2.7-1.3-4.3,1.5-7.9c4.2-5.4,4.5-9.7-0.2-16.3c-3.2-4.4-7.9-6.5-13.3-6.9c-4.3-0.3-8.7-0.5-13.1,1.2
		c-0.7-2.5-1.4-4.7-2.1-7.1c1.3-1,2.7-1.7,3.8-2.8c1.1-1.1,1.9-2.4,2.7-3.6C176.6,17.7,180.8,19.4,184.9,21.2z M170.1,14.8
		c-0.5,0.7-0.8,1.3-1.3,1.8c-3.4,3-7.6,3.8-12.1,3.7c-2.9-0.1-5.7-0.4-8.4-1.5c-5.7-2.2-8.1-5.4-8.2-11.8
		C150.5,8.2,160.3,10.9,170.1,14.8z M137.7,6.6c0.1,1.4,0,2.9,0.3,4.3c0.6,2.7,1.4,5.4,3.7,7.4c0.9,0.8,0.8,1.5,0.3,2.4
		c-1.7,2.9-3.4,5.8-5.2,8.9c-1.8-4.1-4.7-6.7-8.6-8.1c-0.1-0.5-0.4-1.4-0.8-2.7c-0.8-3.3-2.3-9.5-3-13.3
		C128.9,5.7,133.2,6,137.7,6.6z M116.5,8.7c0.5-0.2,3.9-2.1,5.4-2.9c0.2,0.6,0.5,1,0.6,1.5c0.6,3,2.3,10,3,13.3
		c-0.2-0.1-0.5-0.1-0.7-0.2c-2.3-0.7-4.5-1-6.7-0.9c-2.5,0.1-5.2,0.5-7.6,1.4c-5.2,1.8-8.4,7-9.2,11.5c-0.8,4.5,0.7,10.7,4.1,14.1
		c0.3,0.3,0.6,0.7,0.9,1c0.1,0.1,0.1,0.3,0.2,0.5c-1.7,4.6-4.5,14.1-6.3,19c-1.6,0.4-3.1,0.9-4.7,1.5c-0.5-2.5-1.6-6.1-1.9-8.5
		c5.3-5.2,8-11.1-0.2-19.9c1.5-5.9,3.1-12,4.6-18.1c0.8-3.2,2.9-12.4,3.4-13.9C106.5,10.1,111.5,10.3,116.5,8.7z M84.4,11.7
		c4.4-1.8,9.2-2.8,14.4-4.2c-2.5,10.7-5,21.2-7.5,31.8c-3.1-1.4-6.4-1.7-10-0.9C79.9,35,78,25.8,78,22.7C82,20.2,84,16.5,84.4,11.7z
		 M81.9,13C80.8,19.6,69,25.8,60.7,23C62.3,20.8,74.5,15,81.9,13z M8.3,83.9c1.1-3,2.2-6.1,3.5-9.1c1.2-2.7,2.4-5.5,4-8
		c2.9-4.6,6-9.2,9.3-13.5c3.5-4.6,7.3-9.1,11.6-13.1c6-5.5,12.7-10.3,19.3-15c1.3-0.9,2.3-1.1,3.6,0.7c-2.3,6.1-4.7,12.4-7.2,18.8
		c-0.8-0.2-3.5-0.1-4.3-0.4c-11.8,0-17.7,4.7-20.2,10.9c-2.3,5.7,1,10.9,2.5,12.2c1.1,0.9,2,1.5,1.4,3.3c-1.3,3.7-2.2,7.6-3.3,11.4
		c-0.4,1.5-1,2.9-1.4,4.4c-0.4,1.6-0.6,3.3-0.9,5c-5.1-5-11.8-5.1-19-4.2C7.6,85.9,7.9,84.9,8.3,83.9z M6.2,90.3
		c4.3-0.8,8.4-1.4,12.3-0.2c4.2,1.2,7.8,3.7,9.8,7.8c0.9,1.9,0.8,3.8,0.4,5.8c-1.4,6.3-5.8,10-11.9,12.1c-1.8,0.6-3.7,1.1-5.7,1.3
		c-2.1,0.3-5.9,0.5-8.9-1.2C2.6,107.3,3,98.7,6.2,90.3z M3,122.3c6.2,1.4,12.2,1.8,17.9-2c1.1,3.9,2,7.4,3.1,11.4
		c-7.5-0.4-13.6,0.6-19.7,5.9C3.9,132.3,3.5,127.4,3,122.3z M7.8,160c-0.8-4.4-1.8-8.8-2.6-13.2c-0.3-1.5-0.6-4-0.1-5.4
		c1.4-3.7,11.1-6.9,17.6-6.9c4.7,0,7.5,3,9.5,7.5c-4.9,1.4-11.1,9.5-8.7,18.5c0,0.2,0,0.4-0.1,0.8c-3.3,1.9-6.9,3.1-10.9,2.9
		C9.4,164.1,8.3,162.9,7.8,160z M19,185.9c-2.8-5.7-5.3-11-8-16.5c5.4-0.1,10.5-1,14.9-3.9c1.9,1.2,1.6,2.7,0.8,4.3
		C24.2,175,21.7,180.2,19,185.9z M21.9,189.7c-0.7-0.8-0.9-1.6-0.5-2.5c2.2-4.8,4.4-9.5,6.6-14.5c6.7,2.8,13.1,5,20.4,2.6
		c1,6.2,3,12.3,2.9,19c-6.5-1.6-12.4-0.1-18.1,2.1c-1.4,0.5-2.7,1.4-4.1,2.2C26.9,195.8,24.5,192.7,21.9,189.7z M30.5,200.5
		c3.2-1.2,6-2.2,8.8-3.1c4.6-1.5,9.2-1.3,13.7,0.3c4,1.4,5.8,4.7,6.8,8.4c1.3,5.1-0.8,9.5-5.6,12.3c-0.9,0.6-1.8,1.3-2.7,1.9
		C43.6,214.7,36.4,208.6,30.5,200.5z M68.6,229.9c-5.1-2.1-10-4.7-15.1-8c3.9-1.4,6-3.9,7.6-6.7c1.7-2.9,2.2-6,1.2-9.2
		c2.1,0.5,3.7,0.3,5.4-0.6c0.4,6.3,3.8,8.5,5.2,10.8c-0.4,1.7-2.7,10.3-3.7,13.3C69.1,229.6,68.9,229.7,68.6,229.9z M71.7,230.9
		c1-3.1,2.2-8.7,3.2-12c3.5,3.9,7.9,5.6,12.3,5.2c4.3-0.4,8.5-1,11.6-5.2c1.2,7.1,2.4,13.8,3.6,20.6
		C95.5,238.6,77.1,233.4,71.7,230.9z M111.1,240.9c1.5-3.8,4.2-9.3,5.6-12.9c6.9,2.7,14.1,3.5,21.7,0c1.9,3.5,3.9,7,5.9,10.7
		C133.2,240.7,122.3,240.8,111.1,240.9z M111.7,214.9c0.3-5.1,2.5-9.4,6.2-10.8c3.7-1.4,14.7-0.2,15.5,0c2.1,0.7,4.3,1.5,5.5,3.4
		c1.7,2.8,3,5.9,2.8,9.2c0,1.2-1,2.5-1.9,3.5c-3,3.3-9.2,5.6-14.7,5.3c-2.3,0-5.3-0.9-8.2-2.1C113.7,222,111.5,218.3,111.7,214.9z
		 M139.2,224.7c0.6-0.6,1.3-1.3,2.1-1.9c2.9-2.5,3.4-5.7,2.6-9.1c-0.4-1.7-1.5-9.9-10-11.6c-8.5-1.7-14.9-0.8-18.4,1.3
		c-3.5,2-8.7,11.2-3.8,18.8c0.8,1.3,2,2.4,3,3.6c-1.2,2.4-2.4,4.8-3.5,7.3c-1,2.4-1.9,4.8-3,7.4c-1.2-0.1-2.1-0.2-3-0.3
		c-0.8-4.5-1.5-8.8-2.4-13.1c-0.6-3.3-1.4-6.5-2.2-9.8c-0.3-1.3-0.2-2.5,0.8-3.5c3.5-5,3.6-8.4,1.7-12.4c3.5-5.4,7.8-16.4,9.8-21.2
		c3.6-0.4,7.1-0.6,10.5-1.2c3.4-0.6,6.8-1.5,10.1-2.3c1.8,5,8.6,17.4,10.3,22.2c0,0,0,0,0,0c0.5,2.3,1.7,4.6,4,6.7
		c1.7,1.5,3.8,2.6,6,4.1c-2.8,8.2-5.6,16.7-8.4,25.3C143.3,231.6,141.3,228.2,139.2,224.7z M148.6,237.5c2.3-7.8,4.6-15.7,6.9-23.8
		c10,1.4,19.4,0.6,28-5.6c1.8,3.5,3.5,6.9,5.3,10.2C181.4,225.5,158.3,236.1,148.6,237.5z M210.1,199.6c0.1,1.8-1.4,3-2.6,4.3
		c-4.8,5.3-10.9,8.9-16.9,13.2c-1.8-3.6-3.5-7-5.2-10.5c-0.7-1.4-0.5-2.5,0.6-3.9c1.9-2.5,3.8-5.1,4.2-8.4c0.6-5-0.7-9.3-4.5-12.8
		c-5.3-4.8-7.6-5.7-15.2-6.6c1.2-5.9,2.5-11.9,3.8-18.1c8.2,2.1,16.2,1.5,24.1-1.9c0.2,2.1,1.6,5.7,3.1,9.5c0.1,0.2,0.2,0.4,0.3,0.6
		c1.2,3.1,2.6,6.1,3.4,8.4c-0.3,2.1-0.3,4.3,0.4,6.6c1,3.4,2.6,6.1,5.8,8.3C211.3,189.2,211,196.4,210.1,199.6z M212.8,196.1
		c-0.1,0-0.2-0.1-0.3-0.1c0.2-1.2,0.4-2.4,0.7-3.8c0.5,0.3,1,0.6,1.5,0.9C214,194.3,213.4,195.2,212.8,196.1z M218.9,188
		c-4.9-0.7-10.6-5.6-11.3-10.8c0.1-0.5,0-1.1,0-1.6c0.2-3.4,0.9-6.7,3.8-9c1.2-1,2.6-1.9,4-2.3c2.5-0.7,5.1-1.2,7.6-1.4
		c1.6-0.1,4.1,0.2,7.2,1.8C229,167.2,219.4,188.1,218.9,188z M231.3,162.3c-2.5-1.8-5.2-2.4-8-2.3c-3.7,0.1-7.4,0.6-10.8,2.2
		c-3,1.5-5.2,3.8-6.2,6.9c0,0,0,0.1,0,0.1c-0.7-2.1-1.5-4.1-2.4-6.1c2.9-6.8,10-28.6,11.7-32.3c7.6,3.1,15.3,3.7,23.1-0.9
		C237.6,141.3,235.8,152.1,231.3,162.3z M233.1,125c-6.1,2.4-12,1.8-17.7-1.1c-1.5-0.8-7.4-5-7.1-11.5c0.5-10.4,11.8-12.6,16.5-12.6
		c4.7,0,7.1,1.2,10.2,3.2c2.1,1.3,3.1,3,3.1,5.4c0,4,0.3,7.9,0.6,11.9C238.8,121.4,234.4,124.5,233.1,125z"/>
	<path d="M123.1,39.6c0.1-1.3,0.9-2.2,1.9-2c0.6,0.1,1.3,1.2,1.2,2c-0.1,0.9-1.1,1.6-1.9,1.5C123.4,40.9,123,40.4,123.1,39.6z"/>
	<path d="M118.4,37.4c1.5,0.2,1.4,2.2,0.6,3.1c-0.3,0.4-1.1,0.7-1.5,0.6c-0.4-0.1-0.9-0.8-0.9-1.3C116.3,38.6,116.9,37.2,118.4,37.4
		z"/>
	<path d="M48.4,154.2c-0.2-1.3,0.3-2.3,1.3-2.4c0.6-0.1,1.5,0.8,1.7,1.6c0.2,0.8-0.6,1.9-1.4,2C49,155.5,48.5,155.1,48.4,154.2z"/>
	<path d="M43.5,151.7c1.5,0.2,1.4,2.2,0.6,3.1c-0.3,0.4-1.1,0.7-1.5,0.6c-0.4-0.1-0.9-0.8-0.9-1.3C41.4,152.8,42,151.5,43.5,151.7z"
		/>
	<path d="M64.9,187.6c0.1-1.3,0.9-2.2,1.9-2c0.6,0.1,1.3,1.2,1.2,2c-0.1,0.9-1.1,1.6-1.9,1.5C65.2,188.9,64.9,188.4,64.9,187.6z"/>
	<path d="M60.2,185.5c1.5,0.2,1.4,2.2,0.6,3.1c-0.3,0.4-1.1,0.7-1.5,0.6c-0.4-0.1-0.9-0.8-0.9-1.3C58.2,186.6,58.7,185.3,60.2,185.5
		z"/>
	<path d="M18.2,104.3c-0.5-1.3-0.1-2.3,0.8-2.6c0.6-0.2,1.7,0.5,2,1.3c0.3,0.8-0.2,1.9-1.1,2.2C19.1,105.4,18.5,105.1,18.2,104.3z"
		/>
	<path d="M12.8,101.6c1.4-0.5,2.3,1.4,2,2.5c-0.1,0.5-0.6,1.1-1.1,1.2c-0.4,0.1-1.2-0.3-1.4-0.7C11.4,103.5,11.3,102.1,12.8,101.6z"
		/>
	<path d="M177.1,48.6c-0.5-1.3-0.2-2.3,0.8-2.6c0.6-0.2,1.7,0.5,2,1.3c0.3,0.8-0.2,1.9-1.1,2.2C178,49.7,177.4,49.4,177.1,48.6z"/>
	<path d="M171.6,45.9c1.4-0.5,2.3,1.4,2,2.5c-0.1,0.5-0.6,1.1-1.1,1.2c-0.4,0.1-1.2-0.3-1.4-0.7C170.2,47.8,170.1,46.4,171.6,45.9z"
		/>
	<path d="M225.2,114.2c-1.9,0-1.5-4,0.6-4.1C228,110.1,227.1,114.2,225.2,114.2z"/>
	<path d="M209.8,69.9c2.1,0.2,1.1,3.9,0.1,4.2c-1.1,0.3-1.8-0.3-2.1-1.2C207.5,72.1,207.9,69.8,209.8,69.9z"/>
	<path d="M219.7,108.9c2.1,0.2,1.1,3.9,0.1,4.2c-1.1,0.3-1.8-0.3-2.1-1.2C217.5,111,217.8,108.7,219.7,108.9z"/>
	<path d="M22.9,145.9c-1.7,0.8-3.1-3-1.2-3.9S24.6,145.1,22.9,145.9z"/>
	<path d="M15.7,143.9c2-0.7,2.6,3.1,1.9,3.8c-0.9,0.8-1.7,0.5-2.4-0.3C14.6,146.8,13.8,144.5,15.7,143.9z"/>
	<path d="M172.7,191.4c-1.7,0.8-3.1-3-1.2-3.9C173.5,186.6,174.4,190.6,172.7,191.4z"/>
	<path d="M163.8,189.5c2-0.7,2.6,3.1,1.9,3.8c-0.9,0.8-1.7,0.5-2.4-0.3C162.7,192.4,162,190.1,163.8,189.5z"/>
	<path d="M51.5,206.2c-1.7,0.8-3.1-3-1.2-3.9C52.2,201.4,53.2,205.5,51.5,206.2z"/>
	<path d="M44.8,204.3c2-0.7,2.6,3.1,1.9,3.8c-0.9,0.8-1.7,0.5-2.4-0.3C43.7,207.2,43,205,44.8,204.3z"/>
	<path d="M214.1,72.6c0-2.3,2.1-1.9,2.5-1.6c0.7,0.7,0.9,3.8-0.4,4C214.7,75.1,214.1,74.5,214.1,72.6z"/>
	<path d="M84.6,199.2c2.1,0.3,0.9,3.9-0.1,4.2c-1.2,0.3-1.8-0.4-2-1.3C82.3,201.2,82.7,198.9,84.6,199.2z"/>
	<path d="M88.7,202.1c0.1-2.3,2.2-1.8,2.5-1.5c0.7,0.8,0.8,3.9-0.6,4S88.6,204,88.7,202.1z"/>
	<path d="M51.4,58.7c0.7,0,1.2,0.8,1.2,1.7c-0.1,0.9-1.1,1.8-2,1.8c-0.7,0-1-0.6-1-1.6C49.8,59.6,50.6,58.6,51.4,58.7z"/>
	<path d="M46.5,59.9c0,1.1-0.9,2.2-1.6,2.1c-1.1-0.1-1.2-0.9-1.1-1.8c0.3-1.1,0.8-1.8,1.6-1.8C46.3,58.5,46.4,59.2,46.5,59.9z"/>
	<path d="M178.3,97.5c-1.1,0-2.1-2.2-1.1-3.3c0.7-0.7,1.5-0.9,2-0.3C180.5,95.1,179.4,97.5,178.3,97.5z"/>
	<path d="M89.1,53.8c-1.2,0-1.1-2.7-0.1-3.3c0.9-0.4,1.5-0.1,1.9,0.6C91.6,52.1,90.3,53.8,89.1,53.8z"/>
	<path d="M83.1,53.8c-2.2,0-1.7-3.5,0.3-3.5C84.9,50.3,84.8,53.8,83.1,53.8z"/>
	<path d="M221.6,174.5c-1.2,0-1.1-2.7-0.1-3.3c0.9-0.4,1.5-0.1,1.9,0.6C224.1,172.9,222.8,174.5,221.6,174.5z"/>
	<path d="M215.6,174.5c-2.2,0-1.7-3.5,0.3-3.5C217.4,171,217.3,174.5,215.6,174.5z"/>
	<path d="M187,136.9c-1.2,0-1.1-2.7-0.1-3.3c0.9-0.4,1.5-0.1,1.9,0.6C189.5,135.3,188.2,136.9,187,136.9z"/>
	<path d="M181,136.9c-2.2,0-1.7-3.5,0.3-3.5C182.8,133.5,182.7,136.9,181,136.9z"/>
	<path d="M58.7,101.7c-1.2-0.1-0.8-2.9,0.3-3.3c0.9-0.3,1.5,0.1,1.8,0.8C61.5,100.3,59.9,101.8,58.7,101.7z"/>
	<path d="M54.4,101.3c-2.1-0.3-1.3-3.7,0.8-3.4C56.6,98.1,56.1,101.5,54.4,101.3z"/>
	<path d="M152.3,15.4c-1.5,0-2.3-1.8-1.7-2.9c0.3-0.5,1-1,1.6-1C154.6,11.5,153.9,15.4,152.3,15.4z"/>
	<path d="M157.9,12.1c2.7,0.6,1.7,4.2-0.1,3.7C156,15.3,156.2,11.7,157.9,12.1z"/>
	<path d="M123.3,213.1c-1.2,0-1.8-1.4-1.4-2.3c0.2-0.4,0.8-0.8,1.2-0.8C125.1,210,124.5,213.1,123.3,213.1z"/>
	<path d="M129,210.5c2.1,0.5,1.3,3.3-0.1,2.9C127.5,213,127.7,210.2,129,210.5z"/>
</g>
</svg>
