<?xml version="1.0" encoding="utf-8"?>
<!-- Generator: Adobe Illustrator 19.1.0, SVG Export Plug-In . SVG Version: 6.00 Build 0)  -->
<svg version="1.1" id="Calque_1" xmlns="http://www.w3.org/2000/svg" xmlns:xlink="http://www.w3.org/1999/xlink" x="0px" y="0px"
	 viewBox="0 0 234.8 273.8" style="enable-background:new 0 0 234.8 273.8;" xml:space="preserve">
<style type="text/css">
	.st0{fill:#009DBF;}
	.st1{fill:#D0095B;}
	.st2{fill:#009EC0;}
	.st3{fill:#D1005A;}
	.st4{fill:#C0BFBF;}
	.st5{enable-background:new    ;}
	.st6{fill:none;stroke:#D0095B;stroke-width:3;stroke-miterlimit:10;}
	.st7{fill:#FFFFFF;stroke:#D0095B;stroke-width:3;stroke-miterlimit:10;}
	.st8{fill:#FFFFFF;}
</style>
<g>
	<path id="" class="st0" d="M139.5,169.4l3.7-11.3l3.6-5.5l16.8,2.4l7.4-2.4l6.1,14.8c0,0-1.6,3.4-1.5,6.1s0,6.3,3.9,9
		c3.9,2.7,6.8,5.1,6.8,5.1l-2.3,5l-0.5,17.1l1.2,17.5l1.6,9.7l-6.8,7.5l-2.2-2c0,0-1.8-5.4-4-10.2c-2.2-4.8-7.5-12.9-7.5-12.9l1.7-3
		l5.2-6.5l-0.9-6.5l-4.2-4.5c0,0-5.6-1.4-9.8-1.4s-9.6,1.5-13.4,3.2s-5,3.8-5,3.8l-2.3-2.7l-3.5-10.1l6.2-5.9l3.4-5.3v-3.7
		L139.5,169.4z"/>
	<path id="" class="st0" d="M119.2,87.1l-2.5-12.6l9.2-15.5l6.8-16.4l11.4,4.8l12.1-0.7v5.5l1.7,8.3l-0.6,6.9l2.2,6.6l2.9,5.1l11.5,4.7
		l8.4,0.6l1.6,12.5l1.2,6.5l-2.7,5v5.6l2.7,5.1l8.7,6.8l-3,4.8l3,19.7c0,0-1.5,8.7-4.6,9.8c-3.1,1.2-3.7,4-6.8,5.2
		c-3.1,1.2-4.3,1.3-4.3,1.3l-2.4-2.3l-4.6-10.5v-4.5l5.6-3.8l2.9-5.1l-0.7-7l-6.2-6.1l-7.6-1.9c0,0-3.1-0.7-6.3-0.5
		s-14,5.3-15.7,7.5l-1.7-7.5l-2.2-12.1l6-4l6.2-4.4l1.7-5.2l-1.1-6.5l-4.8-5.9c0,0-4.5-3.1-9.3-3.3c-4.8-0.2-2.8-0.8-6.7,0
		C127.5,84.6,123.7,84.5,119.2,87.1z"/>
	<path id="" class="st0" d="M119.2,115l-1.8,2l-6,24l1.1,5.4l-1.1,4.7l-5.1,6.3l-4.9,1.6l3.7,5.4c0,0,0.8,5,1.4,5.7
		c0.6,0.7,8.9-4.7,19.2-4.3c10.3,0.3,13.8,3.7,13.8,3.7l2.9-8.5l5.6-8.3l-2.6-3.4l-4.7-6.2l0.5-4.5l1.2-5.9l0.9-4.2l-3.7-13.5H119.2
		z"/>
	<ellipse cx="156.2" cy="141" rx="1.7" ry="2"/>
	<ellipse cx="162.3" cy="140.6" rx="1.3" ry="1.5"/>
	<ellipse transform="matrix(0.2555 -0.9668 0.9668 0.2555 -146.3368 319.7133)" cx="134.4" cy="254.9" rx="2" ry="1.7"/>
	<ellipse transform="matrix(0.2555 -0.9668 0.9668 0.2555 -142.9097 326.4095)" cx="140.5" cy="256" rx="1.5" ry="1.3"/>
	<ellipse cx="28.5" cy="139.5" rx="1.3" ry="1.6"/>
	<ellipse cx="35" cy="139" rx="1.7" ry="2"/>
	<ellipse cx="28.5" cy="72.9" rx="1.7" ry="2"/>
	<ellipse cx="34.6" cy="72.5" rx="1.3" ry="1.5"/>
	<ellipse cx="101.5" cy="60.6" rx="1.7" ry="2"/>
	<ellipse cx="107.6" cy="60.1" rx="1.3" ry="1.5"/>
	<ellipse cx="190.8" cy="175.6" rx="1.7" ry="2"/>
	<ellipse cx="197" cy="175.1" rx="1.3" ry="1.5"/>
	<ellipse cx="150.4" cy="211.7" rx="1.7" ry="2"/>
	<ellipse cx="157.3" cy="211.7" rx="1.6" ry="2"/>
	<ellipse cx="198.7" cy="112.9" rx="1.7" ry="2"/>
	<ellipse cx="204.8" cy="112.5" rx="1.3" ry="1.5"/>
	<ellipse cx="172.8" cy="70.9" rx="1.7" ry="2"/>
	<ellipse cx="180.6" cy="70.9" rx="1.7" ry="2"/>
	<ellipse cx="78.9" cy="17.5" rx="1.7" ry="2"/>
	<ellipse cx="86.7" cy="17.5" rx="1.7" ry="2"/>
	<ellipse cx="142.4" cy="35" rx="1.7" ry="2"/>
	<ellipse cx="151.6" cy="36" rx="1.7" ry="2"/>
	<ellipse cx="126.5" cy="102.5" rx="1.7" ry="2"/>
	<ellipse cx="134.4" cy="102.5" rx="1.7" ry="2"/>
	<ellipse cx="87.1" cy="148.4" rx="1.7" ry="2"/>
	<ellipse cx="95" cy="148.4" rx="1.7" ry="2"/>
	<ellipse transform="matrix(0.3166 0.9486 -0.9486 0.3166 216.6853 83.3935)" cx="50.5" cy="192.1" rx="2" ry="1.7"/>
	<ellipse transform="matrix(0.3166 0.9486 -0.9486 0.3166 220.3804 73.3026)" cx="59.3" cy="189.6" rx="2" ry="1.7"/>

		<ellipse transform="matrix(-2.783025e-02 -0.9996 0.9996 -2.783025e-02 -60.7512 305.6002)" cx="118.2" cy="182.3" rx="2" ry="1.7"/>
	<ellipse transform="matrix(2.779950e-02 0.9996 -0.9996 2.779950e-02 306.3411 50.0902)" cx="127.4" cy="182.5" rx="2" ry="1.7"/>

		<ellipse transform="matrix(-2.779950e-02 -0.9996 0.9996 -2.779950e-02 -138.9766 319.2914)" cx="85.8" cy="227.2" rx="2" ry="1.7"/>
	<ellipse transform="matrix(-2.779992e-02 -0.9996 0.9996 -2.779992e-02 -129.7242 328.6759)" cx="95" cy="227.4" rx="2" ry="1.7"/>
	<ellipse cx="65.9" cy="101.4" rx="1.7" ry="2"/>
	<ellipse cx="73.8" cy="101.4" rx="1.7" ry="2"/>
	<path id="" class="st0" d="M67.6,30.6l12.9,1.2L91,29.4l1.2,6.6l1,13.9L89.5,51l-2.8,5.4v5.3l3.3,6.1l4.9,3.8H107l8-1.4l1.6,4.4l2.5,12.6
		l-5.8,4.1l-3.8,5l0.1,4.4l2.6,5.9l6.8,6.6l-3.8,11.1l-4,17l-4.2-4.1l-7.4-4.3l-9.2,0.1c0,0-8.9,1.9-13.1,6.3s-5.3,6.1-5.3,6.1
		L71,151l2,6.5l5.3,3.6l3.9,1.9l11.1-1l10.6-3.9l1.5,8.8l1,5.2l-2.9,4.5l-1.2,4.9l1.2,5.5l5.7,5.1l5.9,1.4l-2.6,5.3l-4.6,15
		c0,0-2-1.5-7.4-2.6s-13.8-0.9-19.8,1.4s-5.8-0.8-5.8-0.8l-5.6-12.9l6.1-8.7l-0.6-5.5l-4.5-5.6l-6.1-3.8c0,0-3.6-1.5-10.4-1.5
		S38,179.5,38,179.5l-0.1-25l-0.1-4.1l7-3.4l6.5-5.4l1.4-4.7l-1.4-6.2l-1.5-1.6l4.4-11.9l2.6-4.2l20.9,2l1.4-4l8.1-4.2l3.9-4.2
		l1.2-5.4L90.4,92l-3.3-3.2l-12.3-3.6c0,0-7.6-1.2-10.6-0.4c-2.9,0.9-11,8.1-13,11.2s-1,7.4-1,7.4l5.1,6l2,0.9l0.2,3.8l-6.3,9.3
		l-2.2,5l-1.8-1.5c0,0-8.1-4.6-13.2-5.3c-5.1-0.7-13.3,2.5-17.7,6.1c-2.1,1.8-3.8,4.4-3.8,4.4v6.4l2.9,7.9l-3.5,7l-6.4,13.5l-2.9-19
		V115l8.1-31.5l8.5,2.3l14.7,1.3l5.4-2.6l6.8-7.8l5.8-5.9l1.2-4.3l-1.2-6.1l2.5-5.7l8.2-23L67.6,30.6z"/>
	<path id="" class="st0" d="M37.4,228.8c-9.6-10.3-16.2-22.5-21.6-35.3c-3.2-7.7-5.1-15.9-7.6-24c-0.2-0.7-0.3-1.5-0.1-2.1
		c1.8-5,3.8-10,5.6-14.8c7.7,2.8,14.8,5.3,23,4.2c0,4.6-1.2,19-1.1,23.7v0c-4.1,4.5-6.1,12.4-1.5,18.4c2.3,2.9,5.2,4.8,8.7,5.9
		c1,0.3,1.9,0.6,2.7,0.9c-1.5,8.9-3,17.7-4.6,26.8C40,231.4,38.7,230.1,37.4,228.8z"/>
	<path id="" class="st0" d="M43.7,234.9c1.3-8.3,2.6-16.5,3.9-24.9c8.2,0,16.1-0.6,22.8-6.7c1.2,3.4,2.4,6.5,3.5,9.7
		c-1.2,0.9-2.2,1.6-3.2,2.3c-5.9,4.5-6.6,13.8-1.1,18.8c2.7,2.5,5.8,4.4,8.9,6.7c-1.5,4.6-3.2,9.5-5,14.8
		C62.3,249.9,52.7,242.7,43.7,234.9z"/>
	<path id="" class="st0" d="M98.5,264.8c-7-2-13.9-4.7-20.8-7.2c-0.5-0.2-1.2-1.2-1.1-1.6c0.9-3.3,2-6.5,2.9-9.8c0.4-1.5,1.1-1.6,2.6-1.4
		c6.4,1.1,12.7,1,19-1c0.9-0.3,1.7-0.8,3.1-1.5c2.2,7.9,4.4,15.6,6.8,23.9C106.7,265.8,102.5,265.9,98.5,264.8z"/>
	<path id="" class="st0" d="M123.4,261.3c-0.5,1.3-0.6,3.4-1.5,3.7c-1.9,0.8-4.2,0.9-6.3,0.9c-0.5,0-1.3-1.2-1.6-1.9
		c-0.9-2.7-1.5-5.5-2.3-8.2c-1.5-4.7-3.1-9.3-4.8-13.9c-0.7-2-0.5-3.3,1.5-4.5c2.3-1.4,4.5-3,6.1-5.1c3.1-4.1,1.8-8.4-0.6-12.4
		c-0.9-1.5-2.1-2.8-3-4.3c-0.5-1-1.1-2.3-0.9-3.2c1.1-4.5,2.4-8.9,3.7-13.4c7.4,2.2,14.1,2,20.9-0.5c1.1,1.9,2.2,3.7,3.2,5.6
		c0.1,0.2,0.1,0.6,0.1,0.9c-1.8,7.4,0.2,13.1,7.4,16.1c-1.8,7.3-3.6,14.4-5.5,21.5c-3.4,0.4-7.1,0.6-10.7,1.2c-5.3,1-8.3,4.3-8,9.3
		c0.2,2.4,1.5,4.8,2.3,7.2C123.6,260.2,123.6,260.9,123.4,261.3z"/>
	<path id="" class="st0" d="M174.7,245c-4.5,4.4-9.8,7.8-15.5,10.4c-2,0.9-3.9,1.8-6.1,2.8c1.2-6.2-1.6-11.2-7.5-13.4
		c-2.1-0.8-2.8-1.9-2.2-4.1c0.9-3.6,1.6-7.3,2.4-10.9c0.4-2,1-3,3.7-2.8c6,0.4,12-0.3,17.4-3.6c4.9,5.8,7,12.6,8.7,19.6
		C175.7,243.6,175.2,244.5,174.7,245z"/>
	<path id="" class="st0" d="M208.7,194.5c-3.9,10.7-16.3,30.1-20.2,35.7c-0.7,1-1.3,2-2.3,2.7c0,0,0,0,0,0c-0.5-11.8-1-23.6-1.4-35.4
		c0-0.1,0-0.3,0-0.4c0.3-4.6,0.2-4.5,4.6-4.3c5.1,0.2,12.8-0.8,18.4-5.3C208.4,189.9,209.9,191.9,208.7,194.5z"/>
	<path id="" class="st0" d="M211.2,188.5c-2-2.2-2.6-7-1.2-9.1c3.5-5.4,2.5-12.4-2.6-16.6c-3.7-3.1-8-5.1-12.8-5.8c-1-0.2-2.2-0.1-3.3,0.2
		c-0.3-6.2-1-18.8-0.3-23.5c0.2-1.6,0.8-2.1,2.6-1.9c5.9,0.6,11.9,0.2,17.5-2.1c1-0.4,1.8-1.2,2.8-1.9c3.7,5.6,6.1,16,10.1,22
		C222.3,163.2,216.5,177.6,211.2,188.5z"/>
	<path d="M230.9,100.8c-3.1-10.9-7.3-21.3-12.7-31.3c-5.9-10.9-13.4-20.4-20.7-30.1c-5.2-6.8-19.5-21-33.3-27.9
		C150.3,4.6,124.5-2.3,98.1,0.7c-9.2,1-25.8,7.6-32.5,10.9c-8.2,4.2-15.6,9.8-22.2,16.5C30.2,41.2,16.3,65.2,10.6,79.4
		c-4.6,9.1-6.7,19-8.3,28.9c-1.5,9.4-1.9,18.9-2.2,28.4c-0.2,7.2-0.1,14.5,1,21.5c2.7,16.5,9.3,32,14.7,47.8
		c0.6,1.7,1.4,3.4,2.4,4.9c8.8,13.3,18.8,25.7,31,36.1c7.2,6.1,13.5,10.4,23.4,15.6s28.1,10.6,38.4,11c5.9,0.5,12.1-0.1,17.9-1.2
		c10-1.8,19.8-4.5,29.3-8.7c12.5-5.5,23.7-12.8,33.1-22.6c7.3-7.4,22.9-33.2,25.3-37.8c7.5-14.5,13.5-29.4,16.2-45.5
		c1.4-8.4,2-19,2-25C234.8,126.7,233.9,111.2,230.9,100.8z M77.4,12.4c7-2.3,15.1-5.8,24.1-6.8c15.9-1.8,38,2.7,51.8,8
		c27.3,10.6,47.9,45,52.4,52.4s9.1,17.5,11.9,27c0.8,2.6,1.5,5.3,2.1,7.5c-2.5-1.8-4.9-4.1-7.8-5.5c-2-0.9-4.6-0.6-6.9-0.6
		c-2.8,0.5-2.1,2.7,0.9,2.7c5-1.1,8.6,1.4,11.2,5.1c1.7,2.4,2.8,5.6,3.1,8.5c0.2,1.7-1.3,3.9-2.6,5.5c-5,6.3-17.3,9.9-24.7,7.2
		c-4.4-1.6-7.7-4.4-8.8-9.2c-1.4-6,1.9-11.6,7.7-13.7c2.2-1,2-2.8-0.8-2.6c-1.9,0.5-3.6,1.4-5.6,2.3c-0.1-0.2-0.3-0.6-0.3-1
		c-0.4-4.6-0.7-9.2-1.2-13.7c-0.2-1.6,0.3-2.3,1.8-3c2.5-1.2,5.1-2.5,7.2-4.4c6.5-6.1,4.4-16.7-2.7-21.1c-5.1-3.3-8-5.2-9.7-4.6
		c-1.3,0.5-1.2,2,1.2,3c2.4,1,4.7,2.2,7,3.5c8.4,4.7,6.5,15-0.6,19.1c-6.6,3.8-13.6,4.1-20.7,1.9c-7-2.2-11-11.1-8.1-17.6
		c1.1-2.5,2.9-4.1,5.7-4.4c0.7-0.1,1.3-0.4,2-0.6c-1.6-3.4-3.6-3.3-8.2,1.2c-1-3.6-0.9-6.2-0.7-9.3c0-0.5,0.1-3.5,2.9-4.9
		c4.1-1.8,7.5-7,7.3-11.4c-0.2-4.5-2-7.9-6.5-9.5c-1.9-0.7-3.7-1.7-5.7-2.4c-0.7-0.2-2,0-2.3,0.4c-0.7,1.4,0.6,1.6,1.5,2
		c2.7,1.2,5.6,2.3,8.1,3.8c2.9,1.7,3.2,4.2,2.1,7.4c-2.4,7-8,8.9-14.4,9.1c-6.8,0.2-13.5-1-18.9-5.7c-3.1-2.7-2.9-6.3-2.2-9.9
		c0.6-3.1,2.4-5.1,5.6-5.7c0.7-0.1,1.8,0,1.6-1.4c-0.2-1.4-6.4-0.5-8,3c-2.3,5-2.6,10.2,0.8,14.9c1,1.4,1,2.4,0.4,3.8
		c-2.1,5.1-4,10.3-6,15.5c-0.3,0.8-6.4,11-7.4,13.7c-0.1,0.2-0.1,0.3-0.1,0.5c-0.1-0.5-0.3-1.1-0.4-1.6c-0.2-1-0.7-2.5-0.2-3.1
		c2.1-2.5,3.3-3.7,5.6-6.1c1.4-2.3,2.2-5.5,2.4-7.8c0.3-4-0.7-7.9-4.2-10.3c-5.7-3.8-12.2-3.9-18.7-2.8c-2.3,0.4-2.6,1.9-1.8,3.9
		c2.6-0.6,5.1-1.5,7.6-1.7c2.7-0.1,5.5,0.4,8.2,0.9c4,0.7,6.8,3.9,6.7,7.5c-0.1,4-1.1,7.9-4.2,10.8c-5.3,4.9-11.7,6.7-18.7,6.6
		c-3.7,0-7-1-9.8-3.7C86,61.6,87.5,53,92.3,51.2c0.5-0.2,1.3-0.2,1.7-0.6c0,0,0.1,0.1,0.1,0.1c0-0.1,0-0.2,0-0.2
		c0.1-0.1,0.1-0.3,0.1-0.6c0-0.1-0.1-0.2-0.1-0.3c0-8.3-0.6-15-1.9-22.2c7.1-3.1,11.8-7.6,12.3-15.2c0.1-1.8,0-4.3-2.8-5.5
		c-0.1,1-0.4,1.9-0.1,2.5c1.9,3.8,0.4,6.9-2.2,9.5c-2,2-4.4,3.9-7,5c-6.3,2.7-12.8,4.8-19.8,4.1c-1.2-0.1-2.4-0.4-3.5-0.8
		c-3.6-1.3-5.2-3.4-6.2-8.2C67.6,16.7,72.4,14.1,77.4,12.4z M177.9,165.4c-1.9-4.3-3.9-8.6-5.7-13c-0.2-0.4,0.3-1.4,0.7-1.8
		c1.1-1,2.4-1.8,3.6-2.8c3.5-2.7,5.3-8.8,3.6-12.9c-1.6-3.7-3.8-7.3-7.7-8.7c-3.9-1.4-8.6-2.2-11.9-2.5c-1.4-0.2-2.9-0.5-3.5,0.8
		c-0.4,0.8,1.2,1.5,3.2,1.6c4.8,0,8.6,0.6,12.5,2.9c5.8,3.3,6.5,8.8,4.9,13.4c-0.4,1.3-2,2.5-2.8,3.1c-7.8,5.9-14.2,7.7-24.9,4
		c-1.6-0.6-1.6-0.6-2.5-0.9c-4.8-1.7-7.2-5.4-6.2-10.3c0.4-1.9,2.1-3.6,3.4-5.8c-1.2-5.8-2.6-12.4-4-19.1c1.3-0.6,2.7-1.1,4.1-1.7
		c6.2-2.4,9.4-6.9,9.4-13.4c0-4.4,2.5-10.9,5.9-15.1c4.9,5.8,11.6,5.6,18.3,4.9c3.7-0.4,3.8-0.5,4,3.1c0.2,3.9,0.5,7.7,0.7,11.6
		c0,0.4-0.1,1-0.3,1.4c-4.2,7.3-0.2,15.9,6,20c1.1,0.7,1.1,1.3,0.9,2.5c-1.4,7.6-1.6,24-2.7,32.2c-0.1,0.2-0.2,0.6-0.1,0.9
		c0,0.1,0,0.2,0,0.3c0.1,0.5,0.3,1,0.8,1.4c0.4,0.4,1.4,0.1,2.5-0.4c0.1,0,0.2,0.1,0.2,0c0.2-0.1,0.4-0.2,0.6-0.4
		c1.3-0.5,2.8-1.1,3.9-0.9c5,0.9,9.7,2.5,13.1,6.4c2.3,2.6,2.3,7.6,0.3,10.4c-5.8,8-12.9,10.3-22.8,7.7c-4.3-1.1-7.1-3.1-8.2-7.7
		c-1.1-4.6,0.8-8.9,5.4-10.3c0.4-0.1,0.7-0.3,1-0.4C182.9,163.1,181.9,163,177.9,165.4z M123.5,166.3c0.3,1,0.7,1.6,2.1,1.1
		c6.4-2.4,15.9,3.2,16.7,10c0.2,1.4-0.4,3-1.1,4.2c-4.2,8.3-17.3,13-24.5,10.5c-1.8-0.6-3.7-0.7-5.6-1.2c-9.3-2.3-8.9-12.8-4.7-17
		c1.5-1.5,2.5-2.4,0.9-5c-1.6-2.6-1.8-6-2.5-9.1c-0.1-0.4,0.6-1.3,1.1-1.5c3.2-1.4,5.1-4.3,6.9-7c0.9-1.4,0.6-3.6,0.7-5.5
		c0-2.5-0.7-5-0.2-7.3c1.4-7.1,3.3-14.1,5-21.4c7,4.1,13.9,2,20.7,0.7c1,4.7,1.9,9.3,2.8,13.9c-6.1,4.9-2.9,15.8,3.5,19.2
		c-2.5,5.4-5,10.8-7.5,16.4c-3.2-2.7-7.6-3.1-11.9-3.4C124.1,163.7,123.1,164.8,123.5,166.3z M101.1,212.9c5.5,2,10,5,12.2,10.7
		c1.2,3.1,0.4,5.9-2.3,8.1c-8.8,7.2-18.7,8.8-29.7,6c-3.5-0.9-6.5-2.1-9.3-4.3c-4.9-4-5.2-11.1-0.2-15c1.8-1.4,4-2.5,6.1-3.4
		c2.1-0.8,4.4-1.1,7-1.8c-2.5-3.7-5.8-0.9-8.5-1.3c-1.8-4.1-3.6-8.1-5.2-12.2c-0.2-0.6,0.3-1.7,0.9-2.3c3.2-3.2,5.2-6.7,4-11
		c1.7-4.8,4.4-9.5,6.8-19.4c4,0.5,7.4,1.7,10.6,1.2c3.3-0.4,6.4-2.4,9.8-3.8c0.6,1.9,1.4,4,2,6.1c0.1,0.4-0.1,1.1-0.5,1.4
		c-7.4,6.5-2.9,20.3,6.9,22c0.2,0,0.4,0.2,0.7,0.4c-1.9,5.8-3.7,11.7-5.6,17.7c-1.6-0.6-3.3-1.4-5-2c-1.1-0.4-2.5-0.7-2.8,1
		C98.7,212.7,100.1,212.5,101.1,212.9z M40,177.8c0.1-2.8,0-9.2,0-10.2c-0.2-4.7-0.3-9.4-0.5-14.1c0-0.5-0.3-1-0.4-1.2
		c3.2-1.8,6.5-3.3,9.4-5.4c3.1-2.3,5.6-5.7,5.1-9.6c-0.3-2.7-1.1-5.6-2.8-7.9c1.2-3.4,3.2-7.9,4.1-10.7c1-3.3,2.2-3.9,5.2-2.5
		c3.3,1.6,6.7,1.8,10.2,1.6c2.4-0.2,4.8-0.4,7.6-0.6c0,4.4,0,8.5,0,12.7c0,4.1,0,6.4,0.2,7.7c-0.8-0.7-1.5-0.5-2.6,0.7
		c-3.5,3.5-6.2,7.5-5.6,12.8c0.7,5.9,3.9,10.1,9.6,12.1c1.6,0.6,1.4,1.6,1.2,2.8c-3.4,7.3-5.3,13.6-6,17c-2.7-4.9-6.8-8.4-12.4-10
		c-3.2-0.9-6.6-1.2-9.9-1.8c-0.5,3.1-0.1,3.3,2.3,3.3c7.5,0,13.9,2.3,18.1,9c2,3.1,1.8,6.3-0.5,9.3c-3.1,4.2-7.4,6.4-12.2,7.9
		c-4.5,1.4-9,3.2-13.9,2.4c-4.8-0.8-9.1-2.4-11.2-7.3c-2.4-5.5,1.2-13.2,6.8-15.2c0.3-0.1,0.6-0.4,1-0.6
		C41.8,178.5,41,177.9,40,177.8z M54.1,65c-0.1-1.2-0.4-2.3-0.7-3.3c2.9-9.2,6-20.1,10.4-28.4c9.3,5.1,18,1.4,26.4-1.4
		c1.4,5.3,0.8,11.3,2.1,17c-0.1,0-0.2,0-0.3,0c-0.8-0.1-1.7,0.1-2.4,0.5c-5.6,3.3-5.4,12.8-2.2,16.2c2.3,2.5,3.3,4.6,2.2,8.1
		c-1.4,4.4-2,9.1-3,13.8c-1.3-0.6-2.5-1.1-3.6-1.6c-6-2.7-12.3-3.5-18.8-2.6c-1.7,0.2-1.9,1.3-1.6,2.5c0.3,1.5,1.3,1.2,2.4,0.8
		c0.6-0.2,1.2-0.4,1.8-0.5c7.1-1.2,13.5,0.9,19.7,4c2.3,1.1,4.6,2.9,4.6,5.6c0,4.2-1.2,8-5.2,10.5c-7.4,4.6-15.4,5.6-23.8,3.7
		c-2.8-0.6-5.6-1.8-8-3.3c-2.9-1.8-4.2-7-2.5-9.2c1.7-2.1,0.2-2.4-1.1-3c-3.5,4.9-1.8,10.2,4.8,16.2c-0.9,2.5-1.8,4.9-2.6,7.3
		c-0.7,2.4-2.6,6.5-3.4,9.5c-0.2-0.2-0.4-0.3-0.6-0.5c-0.9-7.9-4.2-32.3-5-39.7c-0.2-1.4-0.3-2.9-0.2-4.3c0.1-0.9,0.7-1.9,1.3-2.6
		c2.4-2.3,5-4.3,7.5-6.6C54.9,71.5,54.5,68.1,54.1,65z M120,86.4c0-1.2,0-2.3-0.3-3.3c-0.5-2.4-1.1-4.7-1.6-7.1
		c4.9-8.5,11.7-20.6,14.2-30.2c7.6,3.2,14.7,6.6,23,4c0,1.6-0.1,3.2,0,4.7c0.3,2.1,0.8,4.3,1.2,6.4c0.1,0.4,0.2,0.8,0.1,1.1
		c-1.7,5.5,0,10.3,3,14.8c0.3,0.4,0.5,0.8,0.5,0.9c-2.7,4.5-5.2,8.8-7.9,13.2c-0.7-0.8-1.6-1.9-2.4-3c-3.6-4.4-8.7-5.1-13.8-5.9
		c-0.9-0.1-1.9-0.2-2.8-0.1c-0.9,0.1-2.3,0.2-2.6,0.8c-0.4,0.7,0.1,3.2,1.6,2.8c3.8-0.9,9.3-0.3,13.9,2.1c7,3.7,8.3,15.2,0.3,19.7
		c-8.8,5-18.2,7.3-27.9,2.6c-4.3-2.1-7.1-5.9-7.8-10.7c-0.6-3.7,5.6-9.8,9.9-11.2C120.6,87.1,120.4,86.6,120,86.4z M108.4,100
		c1.3,4.6,3.8,8.3,7.3,11.4c0.6,0.5,1.1,1.6,0.9,2.3c-1.9,8-4,15.9-6,23.9c0,0.1-0.2,0.2-0.3,0.5c-5.1-6.1-12.1-7-19.4-7.2
		c-2.8-0.1-3.4,1.1-2.1,3.8c5.5-1.8,10.7-0.3,15.8,1.7c3.3,1.3,5.3,4.2,6.5,7.5c1.8,4.6-1.1,7.9-4.3,10.1
		c-8.2,5.7-17.3,8.5-27.4,6.1c-5.5-1.3-8.7-7.9-6.6-13.2c1.4-3.5,2.7-6.6,6.6-7.9c1.6,0,1.2-7.8,1.1-10c-0.1-4.9-0.3-9.8-0.6-14.7
		c-0.1-1.8,0.6-2.5,2.2-3c2-0.7,3.9-1.7,5.7-2.8c5.4-3.5,6.9-11.6,3.5-17.1c-0.9-1.5-1.7-3.6-1.5-5.2c0.4-3.7,1.5-7.4,2.3-11.2
		c7.9,2.7,15.6,1.9,23-1.9c0.3,1,0.6,1.5,0.7,2c0.7,3.3,1.2,6.7,2,10c0.1,0.4,0.1,0.9,0.2,1.3C113.3,87.4,107.2,95.4,108.4,100z
		 M60.4,21.1c2.2,2.9,2.8,5.9,1.5,9.6c-2,5.4-7.9,21.9-9.7,28.3c-1.6-2.8-4.1-4.9-7.3-6.4c-4.8-2.3-9.6-0.6-14.3,1
		c-0.6,0.2-1.1,0.6-1.8,0.9C31.4,48.3,49,26.3,60.4,21.1z M15.3,78.3c3.1-6,6.3-12,9.5-18c0.4-0.7,1.5-1,2.3-1.5
		c0.7-0.4,1.4-0.8,2.1-1c3.4-1.2,6.8-2.5,10.3-3.3c4.8-1.1,8.9,2.6,11.2,6.1c2.1,3.4,1.9,8.6-0.7,11.1c-4.2,4.3-12.2,12.1-23.6,12.1
		c-4.2,0-6.6-1.1-9.7-1.9C14.4,81.3,14.2,80.5,15.3,78.3z M11.6,87.1c9.9,5.5,19.4,4,29.2,0.5c0.7,5.5,1.4,11.1,2.1,16.7
		c0.2,1.4,2.4,17.2,3.1,21.3c-2.8-1.6-5.9-2.9-8.8-4.3c-0.9-0.4-1.9-0.8-2.9-0.9c-0.7-0.1-1.9-0.1-2.1,0.2c-0.3,0.7-1.3,3.3,0.7,3.2
		c2.3-0.2,4.4,0.5,6.4,1c2,0.5,3.8,1.5,5.6,2.5c3.8,1.9,5.8,5.3,6.2,9.3c0.3,3.2-1.8,5.9-4.1,7.7c-8.3,6.4-17.4,7.9-27.2,3.9
		c-4.4-1.9-5.4-6-6.1-10.1c-0.3-1.6,0.1-3.5,0.4-5.1c0.5-2.2,1.8-2.9,3.6-4.5c1.8-1.6-1.3-2.9-3.2-0.9c-1.1,1.1-2.2,2.7-2.5,4.2
		c-0.8,4.3-0.6,8.7,1.5,12.7c0.7,1.4,0.7,2.5-0.1,3.9c-1.9,3.6-3.6,7.4-5.3,11.1c-0.2,0.4-0.4,0.8-0.9,1.7
		C4.1,135.6,3.3,110.9,11.6,87.1z M37.4,228.8c-9.6-10.3-16.2-22.5-21.6-35.3c-3.2-7.7-5.1-15.9-7.6-24c-0.2-0.7-0.3-1.5-0.1-2.1
		c1.8-5,3.8-10,5.6-14.8c7.7,2.8,14.8,5.3,23,4.2c0,4.6-1.2,19-1.1,23.7v0c-4.1,4.5-6.1,12.4-1.5,18.4c2.3,2.9,5.2,4.8,8.7,5.9
		c1,0.3,1.9,0.6,2.7,0.9c-1.5,8.9-3,17.7-4.6,26.8C40,231.4,38.7,230.1,37.4,228.8z M43.7,234.9c1.3-8.3,2.6-16.5,3.9-24.9
		c8.2,0,16.1-0.6,22.8-6.7c1.2,3.4,2.4,6.5,3.5,9.7c-1.2,0.9-2.2,1.6-3.2,2.3c-5.9,4.5-6.6,13.8-1.1,18.8c2.7,2.5,5.8,4.4,8.9,6.7
		c-1.5,4.6-3.2,9.5-5,14.8C62.3,249.9,52.7,242.7,43.7,234.9z M98.5,264.8c-7-2-13.9-4.7-20.8-7.2c-0.5-0.2-1.2-1.2-1.1-1.6
		c0.9-3.3,2-6.5,2.9-9.8c0.4-1.5,1.1-1.6,2.6-1.4c6.4,1.1,12.7,1,19-1c0.9-0.3,1.7-0.8,3.1-1.5c2.2,7.9,4.4,15.6,6.8,23.9
		C106.7,265.8,102.5,265.9,98.5,264.8z M123.4,261.3c-0.5,1.3-0.6,3.4-1.5,3.7c-1.9,0.8-4.2,0.9-6.3,0.9c-0.5,0-1.3-1.2-1.6-1.9
		c-0.9-2.7-1.5-5.5-2.3-8.2c-1.5-4.7-3.1-9.3-4.8-13.9c-0.7-2-0.5-3.3,1.5-4.5c2.3-1.4,4.5-3,6.1-5.1c3.1-4.1,1.8-8.4-0.6-12.4
		c-0.9-1.5-2.1-2.8-3-4.3c-0.5-1-1.1-2.3-0.9-3.2c1.1-4.5,2.4-8.9,3.7-13.4c7.4,2.2,14.1,2,20.9-0.5c1.1,1.9,2.2,3.7,3.2,5.6
		c0.1,0.2,0.1,0.6,0.1,0.9c-1.8,7.4,0.2,13.1,7.4,16.1c-1.8,7.3-3.6,14.4-5.5,21.5c-3.4,0.4-7.1,0.6-10.7,1.2c-5.3,1-8.3,4.3-8,9.3
		c0.2,2.4,1.5,4.8,2.3,7.2C123.6,260.2,123.6,260.9,123.4,261.3z M147.9,258.1c-7.5,5.1-14.8,3.4-22-0.4c-1.9-1-2.4-3.1-2.1-5.2
		c0.3-2.3,1.6-4.1,3.8-4.7c3.2-0.9,6.5-1.4,8.7-1.8c5.3,0.4,9.4,1,12.6,4.1C151.7,252.8,151.1,255.9,147.9,258.1z M174.7,245
		c-4.5,4.4-9.8,7.8-15.5,10.4c-2,0.9-3.9,1.8-6.1,2.8c1.2-6.2-1.6-11.2-7.5-13.4c-2.1-0.8-2.8-1.9-2.2-4.1c0.9-3.6,1.6-7.3,2.4-10.9
		c0.4-2,1-3,3.7-2.8c6,0.4,12-0.3,17.4-3.6c4.9,5.8,7,12.6,8.7,19.6C175.7,243.6,175.2,244.5,174.7,245z M178.5,241.6
		c-0.8-2.1-1.5-3.9-2-5.6c-1.6-5.3-4.2-10-7.5-14.4c-1.3-1.8-1.4-3.1,0.5-4.8c4.3-3.8,5.8-8.5,3.3-13.9c-0.9-1.8-2.3-4-4.1-4.6
		c-3.3-1.3-7-1.7-10.6-2.4c-0.5-0.1-1.4-0.1-1.6,0.9c-0.3,1.3,0.7,1.6,1.2,1.7c1.7,0.4,3.4,0.6,5.1,0.8c8.1,1,12,7.6,5.3,14.3
		c-4.8,4.8-10.7,6.6-17.3,5.8c-1.9-0.2-3.7-0.8-5.5-1.5c-3.6-1.3-5.6-4-5.7-7.9c-0.1-3.2,1-5.9,4-7.5c0.7-0.4,1.8,0,2.7-1.1
		s-1.1-1.9-1.4-1.9c-1.9,0.3-3.6,0.8-5.9,2.5c-1-2.6-2.6-6.6-3.6-9.3c2.7-3.1,5.4-5.8,7.6-8.8c2.9-4.1,2.2-8.3-0.9-12
		c-1.4-1.7-1.7-3.3-1-5.2c0.5-1.6,1.1-3.1,1.8-4.6c0.9-1.9,1.9-3.8,2.9-5.6c8,2.7,15.9,2.6,23.8-0.3c1.1-0.4,1.8-0.2,2.3,0.8
		c1.3,3.3,2.7,6.6,3.9,9.9c0.2,0.5,0.1,1.3-0.1,1.8c-2.9,8.1-0.1,14.7,7.7,18.5c0.1,0,0.1,0.1,0.3,0.4c-1.8,7.6-1.9,15.4-1.4,23.3
		c0.5,7.7,0.1,15.6,2.6,23.5C183.1,236.6,180.9,238.9,178.5,241.6z M208.7,194.5c-3.9,10.7-16.3,30.1-20.2,35.7
		c-0.7,1-1.3,2-2.3,2.7c0,0,0,0,0,0c-0.5-11.8-1-23.6-1.4-35.4c0-0.1,0-0.3,0-0.4c0.3-4.6,0.2-4.5,4.6-4.3
		c5.1,0.2,12.8-0.8,18.4-5.3C208.4,189.9,209.9,191.9,208.7,194.5z M211.2,188.5c-2-2.2-2.6-7-1.2-9.1c3.5-5.4,2.5-12.4-2.6-16.6
		c-3.7-3.1-8-5.1-12.8-5.8c-1-0.2-2.2-0.1-3.3,0.2c-0.3-6.2-1-18.8-0.3-23.5c0.2-1.6,0.8-2.1,2.6-1.9c5.9,0.6,11.9,0.2,17.5-2.1
		c1-0.4,1.8-1.2,2.8-1.9c3.7,5.6,6.1,16,10.1,22C222.3,163.2,216.5,177.6,211.2,188.5z M224.4,145.6c-2.7-6.9-7-15.9-9-21.3
		c2.9-2.9,7.1-8.2,6.9-8.5c0.1,0.2,0.4,0.3,0.4,0.5c0.7,6.8,1.8,19,1.9,25.8C224.5,143.3,224.4,144.4,224.4,145.6z"/>
</g>
</svg>
