<?xml version="1.0" encoding="utf-8"?>
<!-- Generator: Adobe Illustrator 19.1.0, SVG Export Plug-In . SVG Version: 6.00 Build 0)  -->
<svg version="1.1" id="Calque_1" xmlns="http://www.w3.org/2000/svg" xmlns:xlink="http://www.w3.org/1999/xlink" x="0px" y="0px"
	 viewBox="0 0 236 268.5" style="enable-background:new 0 0 236 268.5;" xml:space="preserve">
<style type="text/css">
	.st0{fill:#FFFFFF;}
	.st1{fill:#41AB87;}
	.st2{fill:#E2EFE8;}
	.st3{fill:#010202;}
	.st4{fill:#DB5556;}
	.st5{fill:#6FA4C3;}
	.st6{fill:none;stroke:#DB5556;stroke-width:7;stroke-miterlimit:10;}
	.st7{fill:none;}
	.st8{fill:#FFFFFF;stroke:#DB5556;stroke-width:3;stroke-miterlimit:10;}
	.st9{fill:none;stroke:#DB5556;stroke-width:3;stroke-miterlimit:10;}
	.st10{fill:#C1C0C0;}
	.st11{fill:none;stroke:#C1C0C0;stroke-width:3;stroke-miterlimit:10;}
	.st12{fill:#FFFCFA;}
	.st13{fill:#F5D1CA;}
</style>
<g>
	<path d="M194.5,263.4c-7,0.6-13.9,1.1-20.9,1.7c-3.2,0.3-6.4,0.6-9.6,0.7c-7.7,0.4-15.5,0.8-23.2,1c-6.5,0.2-13.1,0-19.7,0
		c-6.5,0-13,0-19.6,0.1c-5.9,0.1-11.8,0.2-17.7,0.6c-10.2,0.7-20.4,0.4-30.7,0.1c-4.7-0.2-9.5,0.2-14.2,0.2
		c-6.5-0.1-12.9-0.8-19.1-2.9c-5.7-2-9.7-6.2-11.5-11.8c-1-3.1-1.1-6.6-0.8-9.9c0.3-3.8,1.2-7.6,2.4-11.3c2.3-7.5,4.8-14.9,7.5-22.3
		c3.3-9.2,6.8-18.4,10.3-27.5c1.7-4.5,3.7-8.9,5.5-13.5c2.4-6.3,4.7-12.7,7.1-19.1c4-10.8,8-21.6,11.9-32.4c3-8.5,5.6-17.2,8.7-25.7
		c3.3-9,7-17.8,10.6-26.7c4.2-10.5,8.3-21,12.6-31.5c3.7-9.2,9.1-17.3,15.7-24.7c3.2-3.6,7.5-5.3,11.5-7.6c0.1-0.1,0.2-0.1,0.3-0.1
		c4-0.1,8.1-0.5,12.1-0.3c1.5,0.1,3.2,1.2,4.5,2.2c3.8,2.8,6.2,6.9,8.7,10.7c2.9,4.5,5.2,9.4,7.7,14.1c2,3.7,3.8,7.5,5.7,11.3
		c5.9,12.1,11.5,24.3,16.6,36.8c2.8,7,6.1,13.7,8.9,20.7c2.1,5.1,3.9,10.3,5.9,15.4c1.9,4.9,3.9,9.8,6,14.6
		c3.4,7.9,6.9,15.7,10.4,23.6c4.7,10.7,9.4,21.5,14,32.3c0.3,0.6,0.5,1.2,0.7,1.8c2.8,7.8,5.5,15.6,8.3,23.4
		c1.3,3.9,2.8,7.7,3.8,11.6c1.2,4.8,2,9.7,2.8,14.6c0.5,3.2,0.6,6.4,0.8,9.6c0.2,2.6-0.6,5.1-1.3,7.6c-1.3,4.5-4.4,7.1-8.5,8.5
		c-5.2,1.8-10.5,3.2-16,3.7c-2.7,0.2-5.3,0.6-8,0.9C194.6,263.7,194.5,263.6,194.5,263.4z M89.4,261.6c0-0.1,0-0.1,0-0.2
		c8.1,0.1,16.2,0.2,24.2,0.1c9.7,0,19.4,0,29-0.4c7.8-0.3,15.7-1.1,23.5-1.7c7.6-0.6,15.2-1.3,22.9-1.6c7.6-0.3,15.2-1.1,22.7-2.6
		c0.5-0.1,1.2-0.2,1.5-0.5c2.3-2.6,4.9-5.1,5.1-8.7c0.2-3.2,0.3-6.5,0-9.7c-0.6-7.2-2.6-14.2-4.7-21.1c-1.7-5.6-3.8-11-5.9-16.4
		c-1.8-4.7-3.5-9.5-5.4-14.2c-3-7.5-6.2-14.9-9.3-22.3c-3.3-8-6.3-16-9.6-24c-5.7-13.7-11.5-27.4-17.2-41.1
		c-5.1-12.3-10-24.7-15.1-37c-2.9-7-5.9-14.1-9-21c-4.9-11.2-11.4-21.5-18.8-31.2c-1.2-1.6-3.3-3.2-5.2-3.5
		c-6.2-0.8-11.6,1.5-15.8,6.1c-2.4,2.7-4.6,5.7-6.8,8.6c-5.1,6.8-8.1,14.7-11.3,22.5c-6.4,15.8-12.7,31.6-18.8,47.4
		c-2.6,6.7-4.5,13.7-6.9,20.5c-3.9,11.1-7.7,22.2-11.8,33.1c-4.2,11.3-8.7,22.5-13,33.7c-3.7,9.7-7.3,19.5-11.1,29.3
		c-3.9,10-7.6,20.1-10.3,30.5c-1.4,5.3-1.6,10.6-0.5,16c0.4,2.1,1.3,4.3,3.4,5.2c5.6,2.4,11.5,4.4,17.7,4.3c4-0.1,7.9-0.5,11.9-0.5
		C59.9,261.3,74.6,261.5,89.4,261.6z"/>
	<g>
		<path id="" d="M159.6,224.2c-1.9-3.5-4.7-5.8-6.8-8.4c-4.9,0-9.5,0.5-13.9-0.1c-8.4-1.1-16.7-1.6-24.6,1.9
			c-5.3,2.3-10.2,2.4-15.3-0.2c-4.2-2.1-13.2-3.6-19.2,1.7c-3.8,3.2-7,7-9.4,11.3c-0.5,0.9-1.3,1.4-0.7,3.3
			c0.6,1.9,14.3,1.2,19.8,1.4c6.1,0.2,12.2,0.5,18.4,0.5c7.2,0,14.3-0.3,21.5-0.4c5.1-0.1,10.2-0.1,15.3-0.3c3.4-0.2,6.8-0.4,10-1.3
			C159.1,232.4,162,228.6,159.6,224.2z M129,224.5c-2.1-0.8,0.5-4.2,2.4-3.2C133.4,222.3,131.2,225.3,129,224.5z"/>
		<g>
			<path d="M104.9,142.5c-1.5,0.3-9.1,0.1-10.2-4.6c-0.8-3.4,1-6.2,4.6-6.7c2.6-0.3,5.2-0.4,7.8-0.6c7-0.5,14-1.1,21.1-1.3
				c2.8-0.1,5.7,0.6,8.3,1.5c2.7,1,3.9,4,3.4,6.8c-0.4,2.5-2.1,4.2-5,4.8c-2,0.4-4.1,0.4-6.2,0.6c-1.7,0.1-2.5,0.7-2.5,2.7
				c-0.1,4.6-0.4,9.1-0.6,13.7c-0.2,4.4-0.5,8.8-0.6,13.3c-0.1,3.8,0.3,7.6,0,11.3c-0.2,3.2,1,5.9,1.8,8.7c0.3,0.9,1.5,1.6,2.4,2.1
				c2.5,1.4,5.1,2.6,7.5,4.1c5.2,3.4,10.5,6.8,15.4,10.7c4.6,3.6,9.1,7.4,11.2,13.2c1,2.8,1.3,5.6,0.5,8.4c-0.5,1.7-1.7,2.5-3,3.7
				c-3.5,3-7.6,2.9-11.6,3.2c-8.1,0.5-16.2,0.5-24.2,0.8c-7.5,0.3-33.2-0.4-37-0.5c-5.2-0.1-10.4-0.1-15.5-0.4
				c-5.8-0.4-8.6-6.2-5-10.8c4.4-5.6,9.2-11,14.3-16.1c5-5,10.1-9.8,15.7-14c4-3,4.5-6.6,4.5-10.8c0.2-9.5,0.3-19,1.5-28.5
				C104,152.9,104.4,147.9,104.9,142.5z M107.8,139.7c1.9,1.3,0.7,4.4,0.5,6.7c-0.2,3.4-0.3,6.8-0.6,10.1c-0.4,4.5-1.3,9-1.5,13.6
				c-0.4,7.7-0.4,15.4-0.6,23c0,1.3,0.1,2.4-1.2,3.4c-5.2,4.4-15.7,14.2-16.1,15c4.2-0.4,7.9,0,11.4,1.9c4.8,2.6,9.5,2.1,14.2-0.3
				c0.5-0.2,1-0.3,1.5-0.5c5-1.7,10.1-2.5,15.4-2c4.9,0.4,9.8,1.1,14.7,1.6c0.8,0.1,1.6,0,2.5,0c-0.6-1.1-16.3-12.1-21.3-14.5
				c-1.4-0.7-2.9-2-3.5-3.4c-1.1-2.6-2.1-5.4-2.3-8.2c-0.3-6-0.1-12,0.1-18c0.4-9.2-0.3-26.4,1.5-28.1s6.2-0.6,9.4-1
				c1-0.1,2.1-0.2,3-0.7c0.7-0.4,1.6-1.4,1.5-2c-0.2-0.8,0-2.5-3.4-2.4c-3.9,0-7.8-0.2-11.7,0c-6.3,0.2-12.6,0.6-18.9,0.9
				c-2.9,0.1-4.5,2.3-3.3,3.5C100.1,139.5,105.9,138.5,107.8,139.7z M152.8,215.9c-4.9,0-9.5,0.5-13.9-0.1
				c-8.4-1.1-16.7-1.6-24.6,1.9c-5.3,2.3-10.2,2.4-15.3-0.2c-4.2-2.1-13.2-3.6-19.2,1.7c-3.8,3.2-7,7-9.4,11.3
				c-0.5,0.9-1.3,1.4-0.7,3.3s14.3,1.2,19.8,1.4c6.1,0.2,12.2,0.5,18.4,0.5c7.2,0,14.3-0.3,21.5-0.4c5.1-0.1,10.2-0.1,15.3-0.3
				c3.4-0.2,6.8-0.4,10-1.3c4.4-1.2,7.3-4.9,4.9-9.4C157.8,220.7,154.9,218.4,152.8,215.9z"/>
			<path d="M99.6,88.9c0.2-3.7,4.2-7.6,7.6-7.3c3.8,0.4,7.6,5.3,6.6,9.1c-0.3,1.1-1.4,2.2-2.4,2.7c-1.6,0.8-3.4,1.3-5.1,1.7
				C102.3,95.8,99.4,93.1,99.6,88.9z M103.1,91.2c1.8,1.5,3.7,0,5-0.9c0.8-0.5,1.7-1.5,1.7-2.2c0-0.7-1.1-1.5-1.9-2
				c-0.4-0.3-0.4-0.4-1.8-0.4S101.3,89.7,103.1,91.2z"/>
			<path d="M129.7,114.3c-3.4-0.1-5-1.4-5.4-3.7c-0.4-2.3,0.6-3.9,3-4.8c3.8-1.5,6.6-0.6,7.9,2.4c0.6,1.3,0.8,2.7-0.5,3.5
				C132.9,112.9,130.9,113.7,129.7,114.3z M128.3,110.6c1.7,0.9,4.4-0.9,2.6-2C129.1,107.5,126.5,109.6,128.3,110.6z"/>
			<path d="M126.3,220.6c1.5-1.8,4.9-2.7,6.6-1.2c1.5,1.4,1.8,3.4,0.7,5.3c-1.2,2.1-3.2,3-5.2,2.4
				C126.3,226.5,124.8,222.4,126.3,220.6z M129,224.5c2.1,0.8,4.4-2.1,2.4-3.2S126.9,223.6,129,224.5z"/>
		</g>
	</g>
</g>
</svg>
