<?xml version="1.0" encoding="utf-8"?>
<!-- Generator: Adobe Illustrator 19.1.0, SVG Export Plug-In . SVG Version: 6.00 Build 0)  -->
<svg version="1.1" id="Calque_1" xmlns="http://www.w3.org/2000/svg" xmlns:xlink="http://www.w3.org/1999/xlink" x="0px" y="0px"
	 viewBox="0 0 224.2 277.9" style="enable-background:new 0 0 224.2 277.9;" xml:space="preserve">
<style type="text/css">
	.st0{fill:#72B52B;}
	.st1{fill:#71519B;}
	.st2{fill:#C0BFBF;}
	.st3{fill:#EDE5F2;}
	.st4{fill:none;stroke:#72B52B;stroke-width:4;stroke-linecap:round;stroke-miterlimit:10;}
	.st5{fill:none;stroke:#71519B;stroke-width:4;stroke-linecap:round;stroke-miterlimit:10;}
	.st6{fill:#6EA1C1;}
	.st7{fill:#BFBEBE;}
	.st8{fill:#55358A;}
	.st9{fill:#FFFFFF;}
	.st10{fill:#FFFFFF;stroke:#71519B;stroke-width:3;stroke-miterlimit:10;}
	.st11{fill:#FFFFFF;stroke:#72B52B;stroke-width:3;stroke-miterlimit:10;}
	.st12{fill:none;stroke:#FFFFFF;stroke-width:3;stroke-miterlimit:10;}
	.st13{fill:#F2BF00;}
</style>
<g>
	<path id="" class="st0" d="M170.1,179c0.4,0.1,0.7,0.2,0.9,0.2c10.3-4.6,19.3-11,26.9-19.4c4.2-4.7,8.4-9.3,12.6-13.9
		c1.7-1.9,2.8-3.8,2.7-6.6c-0.1-7.3,0.1-14.7,0.4-22c0.2-4.8,0.5-9.7,0.9-14.5c0.6-7.6,1.9-15,1.5-22.7c-0.3-5.2-0.2-10.5-0.2-15.7
		c0-2.7,0.2-5.5,0.2-8.2c-0.1-8-0.7-16-0.3-23.9c0.4-8.4-0.6-22.5-3.3-22.8c-2.7-0.3-5.4-0.3-6.6-0.3c-12.4,0.4-24.9,0.7-37.3,1.5
		c-7.8,0.5-15.9-0.6-22.5-0.3c-1.6,1.1-2.5,1.9-3.5,2.4c-2.8,1.4-5.9,2.4-8.5,4.1c-8.8,5.8-17.2,12-23.1,20.9
		c-3.5,5.2-7.2,10.4-10,16c-2.8,5.7-4.5,12-5.7,18.3c-1.5,8.1-1.7,16.2,0,24.2c1,4.9,2.5,10,5,14.3c9.1,15.6,22.2,27,38.7,34.2
		c3.8,1.7,7.9,3.1,12,3.4c7.7,0.5,17.3,0.7,21.6,0.2c4.3-0.5,6.8-1.6,6.7,1.4c-0.1,7.1-1,14.1-4.3,20.6
		C173.5,173.2,171.8,176.1,170.1,179z"/>
	<g>
		<path d="M3.3,7.4C2.5,6.4,2.9,1,9.3,1c4.8,0,9.6,0.1,14.5,0.1c8.9,0.1,17.8,0.2,26.6,0.2c8.2-0.1,16.5-0.5,24.7-0.7
			c3.3-0.1,6.5,0.4,9.8,0.4c3.2,0,6.5,0,9.7-0.5c6.6-1.1,13-0.4,19.5,0.2c1.6,0.2,3.1,0.4,4.7,0.5c11.8,0.2,23.5,0.8,35.3,2
			c5.6,0.5,11.2,0.3,16.8,0.4c8.4,0.2,16.7,0.5,25.1,0.7c2,0.1,4,0.2,5.9-0.2c4-0.9,7.8-0.1,11.7,0.7c4.5,1,6.1,3.3,6.7,7.9
			c1.3,9.4,1.9,18.7,2,28.2c0,5.2,1,10.4,0.9,15.6c-0.1,11.6-0.8,23.2-1,34.8c-0.2,8.4,0,16.7,0.1,25.1c0,4.8,0,9.6,0,14.5
			c0,5.2,0.1,10.5,0.1,15.7c0,2.1-0.1,4.2-0.1,6.2c0,9.6-0.1,19.1,0,28.7c0.1,4.8,0.6,9.7,0.7,14.5c0.2,7,0.2,14.1,0.5,21.1
			c0.1,1.9,0.5,26.3,0.4,36.6c0,3.7,0,7.3,0.3,11c0.5,5.8-3.3,10.2-9.1,10.5c-1.3,0.1-2.5,0.1-3.8,0.4c-5.1,1-48,2.2-55.4,2
			c-6.4-0.1-12.8,0.2-19.1,0.1c-8.4-0.1-16.8-0.6-25.1-0.8c-4.4-0.1-8.9-0.1-13.3,0c-0.9,0-10.3-0.2-11.4-0.2
			c-9.5-0.2-19.1-0.3-28.6-0.6c-3-0.1-6-0.7-9-0.8c-6-0.3-12-0.4-18.1-0.7c-9.7-0.4-19.3-0.8-29-1.3c-3.4-0.2-2.1-7.4-2.1-8.5
			c0.4-14.8,0.2-29.6,1.1-44.4c0.9-14,0.9-28,1.2-42c0.2-9.8,1.1-19.6,1.4-29.4c0.3-8.3,0.3-16.5,0.4-24.8c0.1-5.5,0.2-11,0.4-16.5
			c0.3-9,0.6-18,0.8-27c0.2-7.1,0.4-14.2,0.3-21.2C5.8,51.8,5.2,44,4.8,36.2c-0.2-4.7-0.2-9.4-0.5-14.1C4.1,17.2,3.7,12.4,3.3,7.4z
			 M7.2,230.3c0,13.2,0,25.5,0,38c0.6,0,1.3,0,1.9,0c8.1-0.1,16.2-0.5,24.4-0.3c11.4,0.3,22.8,1.1,34.1,1.7c8.1,0.4,16.2,0.6,24.3,1
			c2.3,0.1,4.2-0.5,5.9-2.4c2.4-2.6,5.1-4.9,7.6-7.4c2.1-2.2,3.8-5,6.3-6.8c4.2-2.9,5.5-7.2,7.3-12c-13.6-3.7-23.9-12.3-33.6-20.9
			c-8.6,3.5-16.6,6.7-24.8,10c2.4,6.9,7.4,11.4,13.5,14.9c-0.5,2.1,0,4.2-2.3,5.6c-4.1,2.4-8.5,3.7-13.1,3.1
			c-7.4-1-14.5-3.4-20.9-7.4c-5.1-3.2-10-6.7-14.8-10.2C18.4,234,13.1,232.6,7.2,230.3z M170.1,179c0.4,0.1,0.7,0.2,0.9,0.2
			c10.3-4.6,19.3-11,26.9-19.4c4.2-4.7,8.4-9.3,12.6-13.9c1.7-1.9,2.8-3.8,2.7-6.6c-0.1-7.3,0.1-14.7,0.4-22
			c0.2-4.8,0.5-9.7,0.9-14.5c0.6-7.6,1.9-15,1.5-22.7c-0.3-5.2-0.2-10.5-0.2-15.7c0-2.7,0.2-5.5,0.2-8.2c-0.1-8-0.7-16-0.3-23.9
			c0.4-8.4-0.6-22.5-3.3-22.8c-2.7-0.3-5.4-0.3-6.6-0.3c-12.4,0.4-24.9,0.7-37.3,1.5c-7.8,0.5-15.9-0.6-22.5-0.3
			c-1.6,1.1-2.5,1.9-3.5,2.4c-2.8,1.4-5.9,2.4-8.5,4.1c-8.8,5.8-17.2,12-23.1,20.9c-3.5,5.2-7.2,10.4-10,16
			c-2.8,5.7-4.5,12-5.7,18.3c-1.5,8.1-1.7,16.2,0,24.2c1,4.9,2.5,10,5,14.3c9.1,15.6,22.2,27,38.7,34.2c3.8,1.7,7.9,3.1,12,3.4
			c7.7,0.5,17.3,0.7,21.6,0.2c4.3-0.5,6.8-1.6,6.7,1.4c-0.1,7.1-1,14.1-4.3,20.6C173.5,173.2,171.8,176.1,170.1,179z M63.6,250.7
			c-1.3-1-1.9-1.4-2.5-1.8c-5.9-4.3-8.5-10.1-8.2-17.3c0.1-1.9,0.4-3.8,2.2-4.7c6-2.9,12-5.7,18-8.6c7.8-3.8,15.5-7.6,22.3-13
			c3.4-2.8,6.8-5.7,10.1-8.6c1.9-1.6,3.7-3.3,5.4-5.1c6.1-6.4,10.8-13.8,14.7-21.7c2.4-4.9,4.9-9.8,5.7-15.4c0.3-2-0.1-3-1.9-4.1
			c-4.3-2.7-8.8-5.3-12.4-8.8c-6.4-6.4-12.4-13.2-18-20.2c-4.4-5.5-7.7-11.8-8.4-19.2c-0.3-3.6-1.5-7.1-2.3-10.9
			c-3.3-0.8-6.4-1.9-9.6-2.4c-8.2-1.2-16.4-1.4-24.6-1.2c-14,0.3-27.4,3.7-40.5,8.4c-2.7,1-3.7,2.6-3.7,5.2
			c-0.1,7.4-0.2,14.9-0.3,22.3c0,2-0.3,18.1-0.2,24.3c0.2,11.4,0.1,22.7,0,34.1c0,5.2-0.5,10.5-0.7,15.7c-0.3,8-0.6,16-0.9,23.9
			c-0.1,1.7,0.5,2.8,2.1,3.4c1,0.4,2,0.7,3,1.1c3.3,1.5,7,1.9,10,4.2c5.6,4.3,11.3,8.4,17,12.6c0.3,0.2,3.3,3.3,4.9,4
			c2,0.9,4.1,1.9,6.2,2.5C54.9,250.3,58.6,251.6,63.6,250.7z M141.2,155.8c-1.6,4.8-3,9.1-4.5,13.4c-2.3,6.6-5.9,12.5-10.5,17.8
			c-9.2,10.6-19.9,19.7-31.2,28c-1.5,1.1-3.1,2.1-5,3.4c1.8,1.1,3,1.8,4.3,2.5c2.5,1.4,5,2.9,7.5,4.3c5.1,2.8,10.2,5.9,15.5,8.4
			c8.1,3.9,16.4,7.7,25.1,10c9.7,2.6,19.7,3,30.4,2.3c-0.9-4-1.5-7.7-2.7-11.2c-1.3-3.6-3.3-6.9-5.3-10.9c2-0.2,3.4-0.3,4.7-0.4
			c4.4-0.2,9,0.1,13.3-0.6c10.6-1.8,19.8-7.3,29.1-12.4c2.1-1.2,3.5-12.4,3.4-15.8c0-4.5-0.3-8.9-0.4-13.4c-0.2-7-0.5-14.1-0.7-22.1
			c-2.8,5.2-5.7,9.1-9.6,12.3c-5,4-10.4,7.1-16.3,9.3c-6.8,2.6-13.8,4.9-20.6,7.6c-3.5,1.4-4.7-1.4-6.4-3.1
			c-1.8-1.8-0.1-3.4,0.9-4.8c2.4-3.3,4.9-6.5,7.2-9.8c2.7-3.8,4-8.1,4.4-12.7C162.5,160.6,151.8,158.5,141.2,155.8z M10.8,88.5
			c24.8-8.4,42.3-10.7,76.5-3.4c0.2-6.9,0.6-13.8,2.2-20.6c3.6-15.4,12.2-27.6,24.1-37.6c0.8-0.7,1.5-1.4,2.3-2.1
			c1.3-1.2,1.4-2.6,0.8-4.3c-1.6-5.4-5.4-9.1-9.6-12.4c-1.4-1.1-3.2-2.1-4.8-2.2c-6.5-0.1-13,0-19.5,0.3C74.5,6.4,66.2,7.2,58,7.2
			c-12.6-0.1-25.1-0.7-37.7-1c-3.3-0.1-6.7,0-10.1,0c0.3,1.4,0.5,2.2,0.6,3.1c1.3,10.6,0.8,21.2,0.4,31.7c-0.1,1.7,0.1,3.4,0.1,5.1
			c0.1,6.8,0.4,13.6,0.3,20.4C11.5,73.8,11.1,81.1,10.8,88.5z M171.7,251.9c-1.4,0.3-2.6,0.8-3.8,0.8c-4.2-0.1-8.4,0-12.5-0.8
			c-8.5-1.6-16.8-3.8-25.2-5.7c-1.2-0.3-2.5-0.5-3.7-0.7c-4.7,10-12.9,16.6-20.5,24.5c8.9-0.2,17.1-0.4,25.2-0.6
			c2.6-0.1,5.2-0.1,7.8-0.1c8.6-0.1,17.2,0,25.9-0.2c1,0,2.7-0.6,3-1.4C170.1,262.7,172.1,257.6,171.7,251.9z M211.2,218
			c-5,2.2-9,4.1-13.1,5.8c-4.1,1.7-8.1,3.6-12.6,4.1c-4.3,0.5-8.6,1.1-13,1.7c7.1,10,5.4,21.2,4.5,32.4c3.7-1.2,5.5-4,7.3-6.4
			C193.4,243.4,203.1,231.8,211.2,218z M135.6,9.1c-5.3-0.5-9.6-1-14.3-1.5c-4.2-0.6-2.1-0.1-1.1,2.7s1.8,5.1,2.6,7.7
			C126.9,15.1,130.8,12.4,135.6,9.1z"/>
		<path d="M178.6,63.6c0.1-4.9,3.3-7.7,8.9-7.6c3,0,7.1,3.4,6.8,6c-0.6,4.6-4.5,9.1-8.5,8.9C181.9,70.7,178.6,67.5,178.6,63.6z"/>
		<path d="M143.4,96.4c-3.2-0.1-5.6-1.2-6.9-3.7c-1.3-2.5-1.1-5.1,0.7-7.4c1.4-1.7,2.5-3.7,5.1-4c4.2-0.5,8.4,3.1,8.9,8
			C151.5,93.3,148,96.4,143.4,96.4z"/>
		<path d="M165.9,83.2c-2.7-0.1-6.3-2.5-7.1-5c-0.8-2.3,1.1-6.4,3.8-8.5c2.6-2,6.8-2.3,8.7-0.5c2.5,2.3,3.2,6.5,1.4,9.3
			C171.3,81,169.8,83.6,165.9,83.2z"/>
		<path d="M73.3,143.3c0.2,6.2-0.7,11.3-2.7,16.5c-0.9,2.3-0.5,5.1-0.4,7.7c0.1,1.8,0.9,3.6,1.1,5.4c0.2,1.5-0.1,2.9-1.8,3.5
			c-4.5,1.6-9,3.2-13.7,4.6c-3.6,1-5.1,0.1-6.1-3.5c-0.7-2.5-1.3-5.1-1.5-7.7c-0.3-2.9,0.3-5.6,2.1-8.1c3.7-5,5.2-10.5,2.6-16.6
			c-1.3-3.1-6.4-5.9-9.7-5.1c-3.3,0.8-5.8,5-5.2,8.7c0.2,1.5,0.6,3.1,1.1,4.6c0.9,3.3,0.1,5.3-2.9,6.5c-2.1,0.8-4.3,1.3-6.4,1.8
			c-2.4,0.5-4.3-0.4-5.9-2.3c-2.8-3.4-3.8-7.5-4.3-11.6c-1.8-12.8,1.9-20.9,12.5-27.2c6.2-3.7,13.3-4.6,20.5-3.5
			c11,1.7,18.9,10.2,20.4,21.3C73.1,140.1,73.2,142.1,73.3,143.3z"/>
		<path d="M63.6,202.7c-5.9,0-9.6-5.7-7.4-10.9c2.1-5,7-7.4,11.2-7.4s6.7,1.5,7.5,2.1c2.7,2.2,2.6,6.9,1,9.9
			C73.4,200.9,69.5,202.7,63.6,202.7z"/>
		<path d="M35,23.4c5.8-2.7,11.2-5.1,16.4-7.8c2-1,3.9-1.1,5.4,0.5c1.1,1.2,2.4,9.2,3,11.5c0.6,2.5,1.7,4.9,2.4,7.4
			c1.8,6.2,3.6,12.5,5.4,18.8c1,3.4,0.8,3.7-2.5,4.5c-1.5,0.4-2.9,1.1-4.3,1.8c-0.7,0.3-1.3,0.9-1.9,1.3c-4.5,2.4-5.9,2.1-8.8-2
			c-1-1.5-1.8-3.1-2.7-4.7c-2.2-4.3-4.5-8.6-6.6-12.9C37.9,36,36.5,29.8,35,23.4z"/>
		<path d="M66.9,62.6c3.2,0.1,6.3,2.8,6.4,5.4c0,3.4-4.6,8.4-7.6,8.2c-3.6-0.2-7.2-4.4-6.9-8.3C58.9,65.1,63,62.5,66.9,62.6z"/>
	</g>
	<path id="" class="st0" d="M7.2,230.3c0,13.2,0,25.5,0,38c0.6,0,1.3,0,1.9,0c8.1-0.1,16.2-0.5,24.4-0.3c11.4,0.3,22.8,1.1,34.1,1.7
		c8.1,0.4,16.2,0.6,24.3,1c2.3,0.1,4.2-0.5,5.9-2.4c2.4-2.6,5.1-4.9,7.6-7.4c2.1-2.2,3.8-5,6.3-6.8c4.2-2.9,5.5-7.2,7.3-12
		c-13.6-3.7-23.9-12.3-33.6-20.9c-8.6,3.5-16.6,6.7-24.8,10c2.4,6.9,7.4,11.4,13.5,14.9c-0.5,2.1,0,4.2-2.3,5.6
		c-4.1,2.4-8.5,3.7-13.1,3.1c-7.4-1-14.5-3.4-20.9-7.4c-5.1-3.2-10-6.7-14.8-10.2C18.4,234,13.1,232.6,7.2,230.3z"/>
</g>
</svg>
