<?xml version="1.0" encoding="utf-8"?>
<!-- Generator: Adobe Illustrator 19.1.0, SVG Export Plug-In . SVG Version: 6.00 Build 0)  -->
<svg version="1.1" id="Calque_1" xmlns="http://www.w3.org/2000/svg" xmlns:xlink="http://www.w3.org/1999/xlink" x="0px" y="0px"
	 viewBox="0 0 310.5 85.3" style="enable-background:new 0 0 310.5 85.3;" xml:space="preserve">
<style type="text/css">
	.st0{fill:#72B52B;}
	.st1{fill:#71519B;}
	.st2{fill:#C0BFBF;}
	.st3{fill:#EDE5F2;}
	.st4{fill:none;stroke:#72B52B;stroke-width:4;stroke-linecap:round;stroke-miterlimit:10;}
	.st5{fill:none;stroke:#71519B;stroke-width:4;stroke-linecap:round;stroke-miterlimit:10;}
	.st6{fill:#6EA1C1;}
	.st7{fill:#BFBEBE;}
	.st8{fill:#55358A;}
	.st9{fill:#FFFFFF;}
	.st10{fill:#FFFFFF;stroke:#71519B;stroke-width:3;stroke-miterlimit:10;}
	.st11{fill:#FFFFFF;stroke:#72B52B;stroke-width:3;stroke-miterlimit:10;}
	.st12{fill:none;stroke:#FFFFFF;stroke-width:3;stroke-miterlimit:10;}
	.st13{fill:#F2BF00;}
	.st14{fill:#93C01F;}
	.st15{fill:none;stroke:#55358A;stroke-width:2;stroke-miterlimit:10;}
</style>
<path d="M122.5,84.5c-14.8,0.1-29.7,0.3-44.5,0.1c-10.2-0.1-20.4-0.7-30.6-1c-3.8-0.1-7.7,0.2-11.5,0.2c-9.7,0.1-19.4,0.2-29,0.2
	c-3.4,0-4.5-0.7-5-4.4C0.9,73.6,0,67.4,0,61.2c0-9.3,1.1-18.7,1.2-28c0.1-6.9-0.6-13.9-1-20.8C-0.2,8,1.2,6.8,5.4,6.9
	c14.2,0.2,28.5,0.4,42.7,0.4c9.9,0,19.8-0.1,29.7-0.1c12.6,0,25.2-0.3,37.8,0.2c15.6,0.6,31.1-0.9,46.6-1.6
	c14.6-0.6,29.3-0.8,43.9-1.4c10.2-0.4,20.4-1.1,30.7-1.7c10.8-0.6,21.6-1.1,32.4-1.7c7.1-0.4,14.2-0.7,21.4-1.1
	c5.4-0.3,10.1,2,14.4,4.6c1.7,1,3,3.7,3.3,5.9c1,5.4,1.7,10.9,1.9,16.3c0.4,11.9,0.3,23.8,0.4,35.7c0,3.6-0.7,6.7-3.6,9.4
	c-2.6,2.4-5,4.1-8.7,5c-16.5,3.8-33.4,4.4-50.1,5.4c-13.3,0.8-26.7,0.9-40,1.2c-12.8,0.3-25.6,0.5-38.4,0.7
	c-15.7,0.3-31.5,0.7-47.2,1C122.5,85,122.5,84.7,122.5,84.5z M5.1,73.1c2.4,0.1,4.2,0.2,6,0.2c9.1-0.1,18.3-0.2,27.4-0.3
	c5.1,0,10.3,0.1,15.4,0c7.1-0.2,14.3-0.7,21.4-0.8c11.4-0.2,22.7-0.2,34.1-0.3c18.3-0.3,36.6-1.4,54.9-0.9
	c25.5,0.6,50.9,1.1,76.4,0.1c8.8-0.3,17.6-0.5,26.3-1.3c9.5-0.9,19.2-0.9,28.5-4.3c5.3-1.9,6.1-2.3,6-8.1c-0.1-4.6-0.3-9.1-0.6-13.7
	c-0.7-10.4-1.5-20.8-2.3-31.2c-0.3-3.8-1.7-5.2-5.6-5.5c-4.4-0.3-8.8-0.3-13.2-0.1c-9.7,0.4-19.3,1.1-29,1.6
	c-7.7,0.4-15.4,0.5-23,0.9c-13.3,0.7-26.6,1.8-40,2.3c-14.6,0.6-29.3,0.9-43.9,1.1c-17.4,0.2-34.8,0.2-52.1,0.2
	c-10.8,0-21.6-0.1-32.3-0.1c-14.1,0-28.2,0.1-42.3,0.2c-4.2,0-8.3,0.4-12.6,0.6c2.3,14.5,1,28.8,0.6,43.1C4.9,62,5.1,67.3,5.1,73.1z
	"/>
<g>
	<g>
		<path class="st0" d="M37.5,55.6h-2.1c-0.5,0-0.9-0.2-1.3-0.7L23,39.3v14.9c0,0.9-0.5,1.4-1.4,1.4h-1.8c-0.9,0-1.4-0.5-1.4-1.4
			V32.6c0-0.9,0.5-1.4,1.4-1.4h2c0.6,0,1,0.2,1.3,0.7L34.3,47V32.6c0-0.9,0.5-1.4,1.4-1.4h1.9c0.9,0,1.3,0.5,1.3,1.4v21.7
			C38.8,55.2,38.4,55.6,37.5,55.6z"/>
		<path class="st0" d="M64.2,42.1v2.5c0,1.7-0.2,3.2-0.7,4.6c-0.5,1.4-1.2,2.5-2.1,3.5s-2.1,1.7-3.6,2.3s-3.1,0.8-5,0.8
			c-1.9,0-3.6-0.3-5-0.8c-1.4-0.5-2.6-1.3-3.6-2.3s-1.6-2.2-2.1-3.5c-0.5-1.4-0.7-2.9-0.7-4.6v-2.5c0-3.5,1-6.2,2.9-8.1s4.7-3,8.5-3
			c1.9,0,3.6,0.3,5,0.8s2.6,1.3,3.6,2.2s1.6,2.1,2.1,3.5C64,38.9,64.2,40.4,64.2,42.1z M59.4,44.4v-2c0-1.3-0.1-2.4-0.4-3.3
			s-0.7-1.6-1.2-2.1s-1.2-0.9-2-1.1c-0.8-0.2-1.8-0.3-2.9-0.3c-1.2,0-2.2,0.1-3,0.3c-0.8,0.2-1.5,0.6-2,1.1c-0.6,0.5-1,1.2-1.2,2.1
			c-0.3,0.9-0.4,2-0.4,3.3v2c0,1.3,0.1,2.4,0.4,3.3c0.3,0.9,0.7,1.6,1.2,2.1c0.6,0.5,1.2,0.9,2,1.1c0.8,0.2,1.8,0.3,3,0.3
			s2.2-0.1,2.9-0.3s1.5-0.6,2-1.1s1-1.2,1.2-2.1S59.4,45.7,59.4,44.4z"/>
		<path class="st0" d="M77.5,55.6h-4.2c-0.7,0-1.2-0.3-1.4-1l-7-22c-0.1-0.4-0.1-0.8,0.1-1.1s0.5-0.4,1-0.4h2c0.7,0,1.2,0.4,1.3,1.1
			l6,19.6l6-19.6c0.2-0.7,0.6-1.1,1.3-1.1h2.1c0.5,0,0.8,0.1,1,0.4s0.2,0.6,0.1,1.1l-7,22C78.6,55.3,78.2,55.6,77.5,55.6z"/>
		<path class="st0" d="M103.1,55.6H90c-0.9,0-1.4-0.5-1.4-1.4V32.6c0-0.9,0.5-1.4,1.4-1.4h13.1c0.9,0,1.3,0.5,1.3,1.4v1.8
			c0,0.9-0.4,1.4-1.3,1.4h-9.6v4.9h9.2c0.9,0,1.3,0.5,1.3,1.4v1.6c0,0.9-0.4,1.4-1.3,1.4h-9.2v6h9.6c0.9,0,1.3,0.5,1.3,1.4v1.8
			C104.4,55.2,104,55.6,103.1,55.6z"/>
		<path class="st0" d="M121.4,55.6h-1c-0.7,0-1.1-0.3-1.3-0.9l-7.3-17.8v17.3c0,0.9-0.5,1.4-1.4,1.4h-1.9c-0.9,0-1.4-0.5-1.4-1.4
			V32.6c0-0.9,0.5-1.4,1.4-1.4h4.4c0.7,0,1.1,0.3,1.3,0.9l6.6,15.8l6.7-15.8c0.2-0.6,0.7-0.9,1.4-0.9h4.4c0.9,0,1.4,0.5,1.4,1.4
			v21.7c0,0.9-0.5,1.4-1.4,1.4h-1.9c-0.9,0-1.4-0.5-1.4-1.4V36.9l-7.3,17.8C122.5,55.3,122,55.6,121.4,55.6z"/>
		<path class="st0" d="M147.1,55.6h-8.3c-0.9,0-1.4-0.5-1.4-1.4V32.6c0-0.9,0.5-1.4,1.4-1.4h8.5c5,0,7.5,1.8,7.5,5.3v1.4
			c0,1.3-0.4,2.4-1.3,3.1s-2.2,1.2-4,1.3c2.3,0,4.1,0.5,5.2,1.5s1.7,2.2,1.7,3.9v1.6C156.3,53.5,153.2,55.6,147.1,55.6z M146.8,35.2
			h-4.7v5.7h4.7c1.1,0,1.9-0.2,2.4-0.6s0.7-1.1,0.7-2.1v-0.6c0-0.9-0.2-1.6-0.7-1.9S147.9,35.2,146.8,35.2z M147,44.7h-4.9v6.9h4.9
			c1.6,0,2.7-0.2,3.4-0.7c0.7-0.5,1-1.4,1-2.7v-0.5c0-1.1-0.3-1.9-1-2.4C149.7,44.9,148.6,44.7,147,44.7z"/>
		<path class="st0" d="M162.3,55.6h-2c-0.9,0-1.4-0.5-1.4-1.4V32.6c0-0.9,0.5-1.4,1.4-1.4h7.9c1.7,0,3.1,0.1,4.1,0.4
			c1.1,0.2,1.9,0.7,2.6,1.2s1.1,1.3,1.3,2.1s0.4,1.9,0.4,3.2v0.6c0,1.5-0.3,2.9-0.9,4s-1.6,1.9-3,2.5l3.8,8.8c0.2,0.4,0.2,0.8,0,1.1
			c-0.2,0.3-0.5,0.5-0.9,0.5h-2.6c-0.7,0-1.1-0.3-1.4-0.9l-3.7-8.9h-4.2v8.5C163.7,55.2,163.2,55.6,162.3,55.6z M168.1,35.6h-4.5
			v6.1h4.5c1.3,0,2.3-0.2,2.8-0.6c0.5-0.4,0.8-1.1,0.8-2.3v-0.5c0-1.1-0.3-1.9-0.8-2.2S169.5,35.6,168.1,35.6z"/>
		<path class="st0" d="M193.7,55.6h-13.1c-0.9,0-1.4-0.5-1.4-1.4V32.6c0-0.9,0.5-1.4,1.4-1.4h13.1c0.9,0,1.3,0.5,1.3,1.4v1.8
			c0,0.9-0.4,1.4-1.3,1.4h-9.6v4.9h9.2c0.9,0,1.3,0.5,1.3,1.4v1.6c0,0.9-0.4,1.4-1.3,1.4h-9.2v6h9.6c0.9,0,1.3,0.5,1.3,1.4v1.8
			C195.1,55.2,194.6,55.6,193.7,55.6z"/>
		<path class="st8" d="M258,55.8c-2.9,0-5.3-0.4-7.1-1.3c-1.8-0.9-3-2.1-3.7-3.8c-0.3-0.7-0.4-1.4-0.5-2.1c0-0.4,0.1-0.8,0.3-1.1
			s0.5-0.4,0.9-0.4h2.1c0.5,0,0.8,0.1,1,0.3c0.2,0.2,0.4,0.5,0.5,1c0.1,0.4,0.2,0.7,0.4,0.9c0.8,1.6,2.8,2.4,5.9,2.4
			c2.2,0,3.8-0.3,4.8-0.9s1.5-1.5,1.5-2.6v-0.4c0-1-0.4-1.8-1.1-2.2c-0.7-0.4-1.8-0.7-3.4-0.7h-2.5c-0.9,0-1.3-0.4-1.3-1.3v-1.3
			c0-0.8,0.4-1.2,1.2-1.2h2.5c1.3,0,2.2-0.2,2.9-0.7s0.9-1.2,0.9-2.1V38c0-1-0.4-1.7-1.2-2.2c-0.8-0.5-2.2-0.7-4.1-0.7
			c-1.3,0-2.4,0.2-3.3,0.6s-1.5,0.9-1.9,1.7c-0.2,0.3-0.4,0.6-0.5,1c-0.1,0.5-0.3,0.9-0.4,1s-0.5,0.3-0.9,0.3h-2.2
			c-0.4,0-0.7-0.1-1-0.4c-0.2-0.2-0.3-0.6-0.3-1c0.1-0.6,0.2-1.3,0.4-1.9c0.5-1.7,1.7-3,3.4-4c1.7-0.9,4-1.4,6.8-1.4
			c6.7,0,10,2.1,10,6.3v0.4c0,1.3-0.4,2.4-1.2,3.2s-2.1,1.3-3.8,1.5c3.9,0.3,5.9,2.2,5.9,5.6v0.6c0,2.1-0.9,3.9-2.8,5.2
			C264.3,55.1,261.6,55.8,258,55.8z"/>
		<path class="st8" d="M294.2,42.1v2.5c0,1.7-0.2,3.2-0.7,4.6c-0.5,1.4-1.2,2.5-2.1,3.5s-2.1,1.7-3.6,2.3s-3.1,0.8-5,0.8
			c-1.9,0-3.6-0.3-5-0.8c-1.5-0.5-2.6-1.3-3.6-2.3s-1.6-2.2-2.1-3.5c-0.5-1.4-0.7-2.9-0.7-4.6v-2.5c0-3.5,1-6.2,2.9-8.1s4.7-3,8.5-3
			c1.9,0,3.6,0.3,5,0.8s2.6,1.3,3.6,2.2s1.6,2.1,2.1,3.5C294,38.9,294.2,40.4,294.2,42.1z M289.4,44.4v-2c0-1.3-0.1-2.4-0.4-3.3
			s-0.7-1.6-1.2-2.1s-1.2-0.9-2-1.1c-0.8-0.2-1.8-0.3-2.9-0.3c-1.2,0-2.2,0.1-3,0.3c-0.8,0.2-1.5,0.6-2,1.1c-0.6,0.5-1,1.2-1.2,2.1
			c-0.3,0.9-0.4,2-0.4,3.3v2c0,1.3,0.1,2.4,0.4,3.3c0.3,0.9,0.7,1.6,1.2,2.1c0.6,0.5,1.2,0.9,2,1.1c0.8,0.2,1.8,0.3,3,0.3
			s2.2-0.1,2.9-0.3s1.5-0.6,2-1.1s1-1.2,1.2-2.1S289.4,45.7,289.4,44.4z"/>
	</g>
</g>
</svg>
