<?xml version="1.0" encoding="utf-8"?>
<!-- Generator: Adobe Illustrator 19.1.0, SVG Export Plug-In . SVG Version: 6.00 Build 0)  -->
<svg version="1.1" id="Calque_1" xmlns="http://www.w3.org/2000/svg" xmlns:xlink="http://www.w3.org/1999/xlink" x="0px" y="0px"
	 viewBox="0 0 308.2 93.6" style="enable-background:new 0 0 308.2 93.6;" xml:space="preserve">
<style type="text/css">
	.st0{fill:#72B52B;}
	.st1{fill:#71519B;}
	.st2{fill:#C0BFBF;}
	.st3{fill:#EDE5F2;}
	.st4{fill:none;stroke:#72B52B;stroke-width:4;stroke-linecap:round;stroke-miterlimit:10;}
	.st5{fill:none;stroke:#71519B;stroke-width:4;stroke-linecap:round;stroke-miterlimit:10;}
	.st6{fill:#6EA1C1;}
	.st7{fill:#BFBEBE;}
	.st8{fill:#55358A;}
	.st9{fill:#FFFFFF;}
	.st10{fill:#FFFFFF;stroke:#71519B;stroke-width:3;stroke-miterlimit:10;}
	.st11{fill:#FFFFFF;stroke:#72B52B;stroke-width:3;stroke-miterlimit:10;}
	.st12{fill:none;stroke:#FFFFFF;stroke-width:3;stroke-miterlimit:10;}
	.st13{fill:#F2BF00;}
	.st14{fill:#93C01F;}
	.st15{fill:none;stroke:#55358A;stroke-width:2;stroke-miterlimit:10;}
</style>
<path d="M2.8,74.5C2.1,65.8,1.4,57,0.7,48.3c-0.1-0.7-0.3-1.5-0.3-2.2C0.2,36-0.1,25.9,0.1,15.8C0.2,9-0.8,7.1,8.9,7.5
	c14.8,0.7,29.7,0.9,44.5,0.7C71.7,8,89.9,7.1,108.2,6.6C129.6,6,151,5.5,172.4,5c12.6-0.3,25.3-0.5,37.9-1
	c21.2-0.8,42.5-1.8,63.7-2.8c6.6-0.3,13.2-0.9,19.7-1.2c2.1-0.1,4.4,0.4,6.5,1c3.1,1,4.6,3.4,4.7,6.7c0.7,16.5,1.6,32.9,2,49.4
	c0.1,5.3-0.2,10.5,1,15.8c1.2,5.4-2.2,9.3-7.8,9.5c-11.5,0.6-23,1-34.6,1.6c-14.3,0.7-28.5,1.2-42.8,2.2
	c-12.6,0.8-25.1,2.3-37.7,3.3c-8,0.6-16,0.7-24,0.9c-14.5,0.3-29,0.5-43.4,0.9c-10.2,0.3-20.5,1.2-30.7,1.7
	c-7.7,0.3-15.4,0.5-23.1,0.6c-5.3,0.1-10.6,0-15.8-0.1c-11.1-0.1-22.3-0.3-33.4-0.3c-5.2,0-8-3.9-11.7-6.3c-0.7-0.5-0.7-2.4-0.7-3.6
	c-0.1-2.9,0-5.9,0-8.8C2.4,74.5,2.6,74.5,2.8,74.5z M296.4,6.7c-1.2,0-2.1,0-3,0c-15.2,0.6-30.4,1.3-45.6,1.9
	C241.5,8.8,235,8.8,228.6,9c-15.7,0.5-31.4,1.2-47.1,1.7c-19.9,0.6-39.8,1-59.7,1.7c-13.7,0.4-27.4,1.3-41.1,1.6
	c-14.6,0.4-29.3,0.4-43.9,0.5c-7.7,0.1-15.4,0-23.1,0c-2.9,0-5.7,0-9.3,0c1.1,22.6,2.2,45,3.3,67.4c1.8,0.1,3.1,0.3,4.4,0.3
	c9.7-0.2,19.4-0.4,29.1-0.6c9.5-0.1,19,0.1,28.4-0.2c16.8-0.6,33.7-1.5,50.5-2.1c12.5-0.5,24.9-0.7,37.4-1.1
	c10.3-0.3,20.5-0.7,30.8-1.1c16.6-0.7,33.3-1.5,49.9-2.2c4.4-0.2,8.8-0.4,13.2-0.4c11.7-0.2,23.4-0.5,35.1-0.6c4.1-0.1,8.3,0,12.1,0
	C297.9,51.1,297.2,29.2,296.4,6.7z"/>
<g>
	<g>
		<path class="st0" d="M33.9,60.8h-8.3c-0.9,0-1.4-0.5-1.4-1.4V37.7c0-0.9,0.5-1.4,1.4-1.4h8.3c3.9,0,6.8,0.9,8.6,2.7
			s2.7,4.5,2.7,8.2v2.7c0,3.6-0.9,6.4-2.7,8.2S37.9,60.8,33.9,60.8z M33.9,40.8H29v15.6h4.9c1.2,0,2.2-0.1,3-0.3s1.5-0.6,2-1.1
			s1-1.3,1.2-2.2s0.4-2,0.4-3.4v-1.4c0-1.4-0.1-2.5-0.4-3.4s-0.7-1.6-1.2-2.2s-1.2-0.9-2-1.1S35.1,40.8,33.9,40.8z"/>
		<path class="st0" d="M62.4,60.8H49.4c-0.9,0-1.4-0.5-1.4-1.4V37.7c0-0.9,0.5-1.4,1.4-1.4h13.1c0.9,0,1.3,0.5,1.3,1.4v1.8
			c0,0.9-0.4,1.4-1.3,1.4h-9.6v4.9h9.2c0.9,0,1.3,0.5,1.3,1.4v1.6c0,0.9-0.4,1.4-1.3,1.4h-9.2v6h9.6c0.9,0,1.3,0.5,1.3,1.4v1.8
			C63.8,60.3,63.3,60.8,62.4,60.8z M58.2,34.5l-0.8,0.6c-0.2,0.1-0.4,0.2-0.5,0.2s-0.3,0-0.6,0h-1.6c-0.3,0-0.5-0.1-0.6-0.2
			s-0.1-0.4,0-0.7l0.1-0.3c0.1-0.3,0.3-0.5,0.4-0.6s0.4-0.1,0.7-0.1h2.4c0.3,0,0.5,0.1,0.6,0.3S58.4,34.3,58.2,34.5z"/>
		<path class="st0" d="M77.3,60.9c-2,0-3.7-0.2-5.1-0.6c-1.4-0.4-2.6-1-3.5-1.9s-1.6-2-2.1-3.5c-0.4-1.4-0.7-3.1-0.7-5.2v-2.6
			c0-1.7,0.2-3.2,0.7-4.5c0.4-1.3,1.1-2.5,2-3.4c0.9-1,2.1-1.7,3.5-2.2s3.2-0.8,5.2-0.8c3.3,0,6,0.7,7.8,2c1.9,1.4,3,3.3,3.3,5.9
			c0.1,0.4,0.1,0.8,0.1,1.1c0.1,0.9-0.3,1.3-1.2,1.3h-2.2c-0.5,0-0.8-0.1-1-0.3s-0.3-0.5-0.4-1c-0.1-0.5-0.2-0.8-0.2-0.9
			c-0.3-1.3-1-2.2-2.1-2.8s-2.5-0.9-4.3-0.9c-1.5,0-2.7,0.2-3.7,0.6c-0.9,0.4-1.6,1.1-2.1,2.1c-0.5,1-0.7,2.4-0.7,4.1v2
			c0,2.5,0.5,4.2,1.5,5.3c1,1.1,2.7,1.6,4.9,1.6c1.9,0,3.4-0.3,4.4-0.9s1.7-1.7,2-3.1c0.1-0.3,0.1-0.6,0.1-0.8c0-0.5,0.2-0.8,0.4-1
			s0.5-0.3,1-0.3h2.2c0.9,0,1.3,0.4,1.2,1.3c0,0,0,0.4-0.1,1c-0.3,2.9-1.4,5-3.2,6.3C83.5,60.3,80.8,60.9,77.3,60.9z"/>
		<path class="st0" d="M105.7,60.8H92.7c-0.9,0-1.4-0.5-1.4-1.4V37.7c0-0.9,0.5-1.4,1.4-1.4h13.1c0.9,0,1.3,0.5,1.3,1.4v1.8
			c0,0.9-0.4,1.4-1.3,1.4h-9.6v4.9h9.2c0.9,0,1.3,0.5,1.3,1.4v1.6c0,0.9-0.4,1.4-1.3,1.4h-9.2v6h9.6c0.9,0,1.3,0.5,1.3,1.4v1.8
			C107.1,60.3,106.6,60.8,105.7,60.8z"/>
		<path class="st0" d="M124,60.8h-1c-0.7,0-1.1-0.3-1.3-0.9l-7.3-17.8v17.3c0,0.9-0.5,1.4-1.4,1.4h-1.9c-0.9,0-1.4-0.5-1.4-1.4V37.7
			c0-0.9,0.5-1.4,1.4-1.4h4.4c0.7,0,1.1,0.3,1.3,0.9l6.6,15.8l6.7-15.8c0.2-0.6,0.7-0.9,1.4-0.9h4.4c0.9,0,1.4,0.5,1.4,1.4v21.7
			c0,0.9-0.5,1.4-1.4,1.4H134c-0.9,0-1.4-0.5-1.4-1.4V42.1l-7.3,17.8C125.1,60.5,124.7,60.8,124,60.8z"/>
		<path class="st0" d="M149.7,60.8h-8.3c-0.9,0-1.4-0.5-1.4-1.4V37.7c0-0.9,0.5-1.4,1.4-1.4h8.5c5,0,7.5,1.8,7.5,5.3v1.4
			c0,1.3-0.4,2.4-1.3,3.1s-2.2,1.2-4,1.3c2.3,0,4.1,0.5,5.2,1.5s1.7,2.2,1.7,3.9v1.6C158.9,58.7,155.9,60.8,149.7,60.8z M149.5,40.4
			h-4.7V46h4.7c1.1,0,1.9-0.2,2.4-0.6s0.7-1.1,0.7-2.1v-0.6c0-0.9-0.2-1.6-0.7-1.9S150.6,40.4,149.5,40.4z M149.7,49.8h-4.9v6.9h4.9
			c1.6,0,2.7-0.2,3.4-0.7s1-1.4,1-2.7v-0.5c0-1.1-0.3-1.9-1-2.4S151.3,49.8,149.7,49.8z"/>
		<path class="st0" d="M164.9,60.8h-2c-0.9,0-1.4-0.5-1.4-1.4V37.7c0-0.9,0.5-1.4,1.4-1.4h7.9c1.7,0,3.1,0.1,4.1,0.4
			s1.9,0.7,2.6,1.2s1.1,1.3,1.3,2.1s0.4,1.9,0.4,3.2V44c0,1.5-0.3,2.9-0.9,4s-1.6,1.9-3,2.5l3.8,8.8c0.2,0.4,0.2,0.8,0,1.1
			s-0.5,0.5-0.9,0.5h-2.6c-0.7,0-1.1-0.3-1.4-0.9l-3.7-8.9h-4.2v8.5C166.3,60.3,165.9,60.8,164.9,60.8z M170.8,40.8h-4.5v6.1h4.5
			c1.3,0,2.3-0.2,2.8-0.6s0.8-1.1,0.8-2.3v-0.5c0-1.1-0.3-1.9-0.8-2.2S172.1,40.8,170.8,40.8z"/>
		<path class="st0" d="M196.4,60.8h-13.1c-0.9,0-1.4-0.5-1.4-1.4V37.7c0-0.9,0.5-1.4,1.4-1.4h13.1c0.9,0,1.3,0.5,1.3,1.4v1.8
			c0,0.9-0.4,1.4-1.3,1.4h-9.6v4.9h9.2c0.9,0,1.3,0.5,1.3,1.4v1.6c0,0.9-0.4,1.4-1.3,1.4h-9.2v6h9.6c0.9,0,1.3,0.5,1.3,1.4v1.8
			C197.7,60.3,197.3,60.8,196.4,60.8z"/>
		<path class="st8" d="M260.7,60.9c-2.9,0-5.3-0.4-7.1-1.3s-3-2.1-3.7-3.8c-0.3-0.7-0.4-1.4-0.5-2.1c0-0.4,0.1-0.8,0.3-1.1
			s0.5-0.4,0.9-0.4h2.1c0.5,0,0.8,0.1,1,0.3s0.4,0.5,0.5,1c0.1,0.4,0.2,0.7,0.4,0.9c0.8,1.6,2.8,2.4,5.9,2.4c2.2,0,3.8-0.3,4.8-0.9
			s1.5-1.5,1.5-2.6V53c0-1-0.4-1.8-1.1-2.2s-1.8-0.7-3.4-0.7h-2.5c-0.9,0-1.3-0.4-1.3-1.3v-1.3c0-0.8,0.4-1.2,1.2-1.2h2.5
			c1.3,0,2.2-0.2,2.9-0.7s0.9-1.2,0.9-2.1v-0.3c0-1-0.4-1.7-1.2-2.2s-2.2-0.7-4.1-0.7c-1.3,0-2.4,0.2-3.3,0.6s-1.5,0.9-1.9,1.7
			c-0.2,0.3-0.4,0.6-0.5,1c-0.1,0.5-0.3,0.9-0.4,1s-0.5,0.3-0.9,0.3h-2.2c-0.4,0-0.8-0.1-1-0.4s-0.3-0.6-0.3-1
			c0.1-0.6,0.2-1.3,0.4-1.9c0.5-1.7,1.7-3,3.4-4s4-1.4,6.8-1.4c6.7,0,10,2.1,10,6.3v0.4c0,1.3-0.4,2.4-1.2,3.2s-2.1,1.3-3.8,1.5
			c3.9,0.3,5.9,2.2,5.9,5.6v0.6c0,2.1-0.9,3.9-2.8,5.2S264.3,60.9,260.7,60.9z"/>
		<path class="st8" d="M284.8,37.4v22c0,0.9-0.5,1.4-1.4,1.4h-2.1c-0.9,0-1.4-0.5-1.4-1.4V42.1l-5.3,2.2c-0.3,0.1-0.6,0.1-0.9,0
			s-0.4-0.4-0.4-0.8v-2.3c0-0.4,0.1-0.6,0.2-0.8s0.4-0.4,0.7-0.5l7.4-3.2c0.5-0.2,0.9-0.3,1.2-0.3h1c0.3,0,0.5,0.1,0.7,0.3
			S284.8,37.1,284.8,37.4z"/>
	</g>
</g>
</svg>
