<?xml version="1.0" encoding="utf-8"?>
<!-- Generator: Adobe Illustrator 19.1.0, SVG Export Plug-In . SVG Version: 6.00 Build 0)  -->
<svg version="1.1" id="Calque_1" xmlns="http://www.w3.org/2000/svg" xmlns:xlink="http://www.w3.org/1999/xlink" x="0px" y="0px"
	 viewBox="0 0 976.9 630.2" style="enable-background:new 0 0 976.9 630.2;" xml:space="preserve">
<style type="text/css">
	.st0{fill:#6D9DBD;}
	.st1{fill:#F2A73B;}
	.st2{fill:#6DA3C3;}
	.st3{fill:none;}
	.st4{fill:none;stroke:#F2A73B;stroke-width:3;stroke-miterlimit:10;}
	.st5{fill:#6DA1C1;}
	.st6{fill:#F6AB3B;}
	.st7{fill:none;stroke:#F6AB3B;stroke-width:3;stroke-miterlimit:10;}
	.st8{fill:#F8AD3B;}
	.st9{fill:#C6C6C6;}
	.st10{fill:#F4901E;}
	.st11{fill:none;stroke:#F8AD3B;stroke-width:3;stroke-miterlimit:10;}
	.st12{fill:#FFFFFF;}
	.st13{fill:#FFFFFF;stroke:#C6C6C6;stroke-width:3;stroke-miterlimit:10;}
	.st14{fill:none;stroke:#C6C6C6;stroke-width:3;stroke-miterlimit:10;}
</style>
<g>
	<g>
		<polygon class="st0" points="168.3,39 170.6,12.4 168.4,5.5 158.9,6.8 47.4,3.6 45.4,4 49.8,25.2 65.9,60.5 79.5,83.6 86.7,94 
			88.7,108 79.7,121.3 67,129.7 44.9,130.8 32.4,136.7 31.1,128.9 25.1,125.5 20.3,118.2 7.5,121.3 6.8,106.9 7.3,118.6 10.1,186.7 
			10.1,241.4 10.1,281.7 26.8,277.9 47.2,269.5 49.8,260.1 54,227.6 47.1,203.6 23.5,189.6 25.1,182.7 42.2,174.8 45.4,165.9 
			61.3,158.5 79.5,152.6 90.7,136.7 106.8,131.1 117.1,121.3 136.6,90 166.3,80.1 172.8,63.6 		"/>
	</g>
	<polygon class="st1" points="23,184.2 33.2,179 44.1,169.5 54,161.9 85.2,152.1 90.7,136.7 106.8,134.4 117.1,139.2 130.1,159.3 
		152.8,166.9 167.1,171.9 168.3,179 155.9,200.3 149.3,211.5 151.8,219.8 156.5,223.3 158.7,253.2 165.7,264.4 162.3,270.9 
		150.3,277 128.6,275.4 112.6,279.3 102.4,285 82.7,287.1 61.3,282.2 47.1,269.5 51.3,248.2 54,227.6 49.8,208.3 32.4,194.9 	"/>
	<polygon class="st0" points="661.6,491.9 680.5,521.3 702.9,553.4 721.8,564.9 734.9,562.2 753.1,546.8 762.3,542 765.9,558.3 
		793.5,574.2 807.8,583.7 803,597.8 786.8,609.9 782.3,619 880,623.6 949.2,626.3 957,621.8 959.4,608.2 942.5,603.6 924.9,583.7 
		910.3,559 901.1,549.2 870.1,547.4 807.8,545.2 784.2,537.9 771.4,523 753.1,524.3 732.7,525.4 710.3,507.3 688.2,481.8 
		678.7,481.8 668.3,483.2 	"/>
	<polygon class="st0" points="530.7,616.5 522.9,597.7 511.6,586.8 510.1,570.5 494.2,546.8 469.1,504.2 469.1,491.6 479.2,490.7 
		492.2,511.4 497,514.6 508.6,511.4 517.2,528.3 538.3,568 555.4,600.7 561,619 	"/>
	<polygon class="st0" points="716.3,211.5 725.5,217.9 727.4,227 717,233.7 704.4,242.1 699.1,252 699.1,265.1 705.8,277.5 
		721.7,288.5 731.5,294.8 742,308.3 745.3,317.7 739.4,322.6 726.8,324 725.3,332 734,350.5 742,369.2 737.1,378.2 728.7,384.4 
		713.3,380 701.5,370.7 691.5,366.4 680.7,362.6 675.3,352.4 677.2,335.9 682.7,318.9 680.7,309.3 668.3,292.7 664.4,284 
		660.5,266.7 652.8,254.8 656,242.1 684.6,225.2 	"/>
	<polygon class="st0" points="502.5,237 499.3,231 503.4,219.8 512.8,211.1 538.3,208.3 552,206.2 555.5,211.1 552.8,218.3 
		543.5,222.8 536.2,233.9 527.2,238.5 519.6,232.4 512.8,233.9 505.9,238.5 	"/>
	<polygon class="st0" points="432.5,311.8 415.1,301.3 412.2,292.7 419.4,277.9 420.2,264.4 422.2,256.6 439.4,240 442.3,225.9 
		450.8,218.3 470.6,221.5 479.1,226.9 479.1,241.4 484.3,242.9 490.7,250.7 503.3,252.3 516.3,244.8 536.2,250.3 549.4,256.7 
		559.8,269.5 582.4,285 586.4,299.4 580.3,312 552.8,315.1 512.8,306.5 487.6,300.6 471,304.4 445.1,313 	"/>
	<path class="st0" d="M487.7,391.7l-16.7-2.2l-11.6-5l-6.1,5l-21.2-3.3L409.2,372l-3.9-17.8l-12.3-12.1v-11.2l-2.8-9.5l-10-4
		L367,324l-7.1,11.9l9.9,11l3.4,12.2l-10.1,5.6l-7.4,15.2l-14.6,0.8l-6.4-13.2l-6.3-13.3l-15.4-18.3l-3.3-22.4l-8.5-17.3L275.6,279
		l-16.5-9.5l-4.7-11.3l-6.6-15.3l-8.4-9.1l-13,8.2l-3.8,14.5l12.5,15.6l33.5,27.2l18.5,12.6l11,12.2l-5.8,7.5l-6.7-4.9l-5.4,3.1
		l2.4,12l-4.6,8.5l-12.7,3.7l-3.9-10.6l-2.3-15.5l-9.2-10.5l-27.3-9.1l-12-9l-6.1-15.3l-8.2-19.6l-15.9-4.3l-10,3.6l-3.5,5
		l-16.7,8.9h-19.2h-13.9l-12.1,5.1v10.3l-4.5,13.4l-18,8.6l-8.7,15.8l0.9,12.7L59.4,358l-21.8,20.5l-12.1,5.3l-14.6,2l-1.3,22h12.8
		l38.7-3.8l51.4-16.6l43.8-4.1l38.3-10.4l9.8,7.1l4.2,30.2l6.7,25.2l21.7,5.9l19.8,6.6l25.8,20.3l20.5,6.6l17.4-2.7l1.8-10.1
		l6.2-14.1l17.3-6.5l31.2,12.2l29.3,14.1h21.2l20.7-7.5l11.2-2.9l15.3,8.2l13.7,2.8l2.6-5.4l17.7-40.8l4.1-37.6L487.7,391.7z
		 M180.1,285.6l5.1-3.4l5.5,11l1.5,6.2l-12.1-2l-2.6-5.4L180.1,285.6z M191.1,340l-10.5,2l-4.6-10.2l-2.3-17.1l11.1-6.3l7.3,6.7
		l3.1,14.3L191.1,340z M247.8,376.8h-8.7l-10.3-4.5l-2.5-7.4l13.1-7.3l13.1,4.4l4.4,4.7L247.8,376.8z"/>
	<polygon class="st0" points="259.1,3.1 259.1,13.5 257.4,21.5 248.8,29.4 244.9,37.8 239.4,42.4 231.2,37.8 221.2,32.7 216.8,27.2 
		206.4,25.2 198.1,29.4 198.1,34.2 200.4,42.4 202.6,45.5 199,50.8 196.4,53.9 194.7,60.6 204.6,61.8 213.9,61.8 212.8,66.5 
		210.7,73.4 216.8,76.9 223.7,72.5 231.2,65.7 237.3,66.1 243.3,73.4 250.5,76.8 262.6,73.4 270.4,63.9 280.3,62.6 301.3,63.9 
		320.6,62.6 331.5,50.8 336.8,40 334.6,25.2 331.5,14.1 333.8,3.6 	"/>
	<polygon class="st1" points="843.1,482.7 843.1,467.9 831.2,462 820.1,449.3 825.1,424.8 825.1,404.2 850.3,395.8 866.3,383.3 
		876,372 912.1,372.2 936.2,367.5 946.6,357.5 954.9,364.7 959.4,380 954.9,395.8 948.1,415.7 940.7,441.3 924.9,462 902.7,472.1 
		886.9,489.2 862.7,493.8 846.5,490.6 	"/>
	<g>
		<path d="M976.6,100.1c0.1-4.6,0.2-9.1,0.1-13.7c-0.2-9-0.9-18-0.7-26.9c0.4-11.7,2.3-23.5-1.3-35.1c-0.8-2.7-1.7-4.9-4.8-5.6
			c-8.9-1.9-17.8-4.2-26.7-5.9c-18.6-3.6-37.4-5.2-56.3-6.7c-25.1-2-50.2-1.9-75.3-1c-8.7,0.3-17.4,1.8-26.1,2.1
			c-10.9,0.4-21.8,0.2-32.7,0.3c-8.9,0-17.8-0.3-26.7,0.2c-20.9,1.1-41.8,3.2-62.7,3.9c-13.4,0.5-26.9-0.7-40.3-1.1
			c-7.6-0.2-15.2-0.6-22.8-0.5c-16.7,0.2-33.5,0.7-50.2,1.2c-8.5,0.3-16.7-0.1-25.2-1.5c-15.9-2.6-32-3.8-48-5.3
			c-4.6-0.5-9.3-0.3-14-0.2C453,4.4,443.1,5,433.2,4.9c-12.6,0-25.1-0.5-37.7-0.8c-7.1-0.2-14.2-0.4-21.3-0.9c-13-1-26-2.6-39-3.1
			c-11.2-0.4-22.5,0.6-33.8,0.6c-21.3-0.1-42.6-0.7-63.9-0.6c-8.9,0-17.7,1.2-26.6,1.5C199.8,2,188.7,2,177.5,2.2
			c-7,0.1-13.9,0.1-20.9,0.2c-1.9,0-3.8-0.2-5.7,0C128.4,4,105.8,2.9,83.3,1.6C59.9,0.1,36.6,2.2,13.8,7.8C9,9,4.7,11.7,3.5,16.5
			c-1.7,7-3,14.2-3.4,21.3c-0.4,7.9,0.4,15.9,0.8,23.8c0.4,7.1,0.4,14.2,1.4,21.2C4,94,4.6,105.2,4.6,116.5
			c0,17.6-1.3,35.2,1.1,52.8c0.6,4.1,0.6,8.3,0.9,12.5c0.8,10,2.2,20,2.2,29.9c0.1,20.6-0.5,41.1-0.8,61.7
			c-0.1,10.5-0.3,21.1-0.3,31.6c0.1,18.7,0.5,37.3,0.3,56c-0.1,8.2-1.7,16.4-2.1,24.6c-0.5,8.7-0.3,17.5-0.5,26.2
			c-0.3,12.3-1.2,24.6-0.8,36.9c0.4,14.1,2.4,28.1,2.9,42.1c0.6,16.3,0.4,32.7,0.3,49c-0.1,8.7-0.5,17.5-1.5,26.2
			c-2.3,18.3-2.6,36.4,3.8,54c0.4,1.1,1.8,2.5,2.8,2.6c5.8,0.4,11.6,1,17.4,0.6c13.2-0.9,26.3-2.8,39.4-3.3
			c26.8-1.2,53.6-1.7,80.3-2.5c9.9-0.3,19.8-0.6,29.7-0.8c13.1-0.2,26.1-0.1,39.2-0.6c10.8-0.4,21.5-1.5,32.3-1.9
			c15.9-0.6,31.7-0.8,47.6-1.3c29.7-0.9,59.4-1.1,89.1,1.2c11.8,0.9,23.4,2.9,35.2,3.5c28.4,1.5,56.8,2.9,85.2,3.6
			c27.8,0.7,55.6,0.5,83.4,0.4c25.3-0.1,50.5-0.8,75.8-0.9c19.4,0,38.8,0.4,58.2,0.8c15.9,0.3,31.7,1,47.6,1.2
			c4.3,0.1,25.7,2.7,28.9,2.8c10,0.2,20.1,0.2,30.1,0.6c11.4,0.5,22.8,1.5,34.2,2c16.1,0.7,32.2,1.2,48.3,1.7
			c8.2,0.2,16.5,0.3,24.7,0.1c4.2-0.1,8.3-1,12.4-1.6c1.8-0.3,4.1-0.3,5.3-1.4c1.4-1.2,2.2-3.4,2.7-5.3c4.1-17.9,5.8-36,3.6-54.4
			c-1.3-11.4-0.8-22.7,0.9-34.1c1.4-9.9,1.6-19.9,1.8-29.9c0.2-8.2-0.8-16.5-0.5-24.7c0.5-15.6,1.8-31.2,2.1-46.7
			c0.4-17.9,0.1-35.8,0.1-53.6c0-14.1-0.3-28.1-0.2-42.2c0-4.4,1.1-8.8,1.5-13.2c1.2-12,1.8-24.1,3.6-36c2.8-18.1,4.7-36.1,3.6-54.5
			c-1.2-19.7-0.4-39.5-0.4-59.3c0-12.4-0.1-24.8,0.1-37.2C976.1,123.7,976.4,111.9,976.6,100.1z M266.2,8.2
			c18.9,0.3,37.8,0.7,56.7,1c1.1,0,2.3,0.1,3.4,0.2c4.2,0.4,4.8,1.4,3.8,4.6c-3.5,0.8-6.4,1.9-9.3,2.1c-2.3,0.2-5.2,0-7-1.2
			c-3.8-2.6-7.2-2.4-10.6,0c-3.6,2.5-7,2.3-10.6,0.1c-4.7-2.8-9.4-3.2-14.3,0.1c-1.3,0.9-3.7,0.9-5.2,0.3c-3.4-1.5-6.5-3.6-10.5-5.9
			C263.9,9,265,8.2,266.2,8.2z M261.7,17.4c0.4-1.1,2.8-2.4,4.1-2.2c1.9,0.2,3.7,1.5,5.3,2.7c3.1,2.2,6.1,2.9,9.5,0.8
			c3.7-2.3,7.4-2.2,11.1,0.1c4.3,2.7,8.6,3.2,13.1-0.1c2.5-1.8,5.1-2.1,8,0c3,2.1,6.5,3.1,10.3,0.8c3.3-2,6.8,0,7.2,3.7
			c0.1,0.9,0.2,1.8,0.3,2.6c-0.1,0-0.2-0.1-0.2-0.1c-1.8-0.2-7.1,0.7-8.9,1.2c-2.9,0.8-5.5,0.6-7.9-1.3c-2.6-2.1-5.6-1.9-8.2-0.2
			c-5.4,3.4-10.2,3.1-15.6-0.5c-1.9-1.3-6-1.6-7.7-0.4c-7.3,5-13.6,1.3-19.8-1.7C261.5,22.3,261.2,19,261.7,17.4z M271.2,30.5
			c3.4,2,6.7,0.6,9.7-1.2c3.8-2.3,7.1-1.8,10.6,0.5c4.2,2.8,8.7,3.3,13.2,0.3c3.1-2.1,6-2.3,9.5-0.3c2.2,1.2,5.5,0.7,8.3,0.9
			c1.5,0.1,6.3-0.5,7.7-0.9c0.4-0.1,0.7-0.3,1-0.5c0.1,1.2,0.2,2.4,0.4,3.7c-0.1,0-0.2,0-0.3,0c0,1.3,0.1,2.5,0,3.8
			c-0.1,2-1.2,2.8-3.3,2.7c-2.2-0.1-4.5,0.6-6.8,0.5c-3.1-0.2-6.5-0.1-9.1-1.5c-4.4-2.2-8.3-2.1-12.3,0.1c-3.8,2.2-7.5,2.2-11.2,0.3
			c-5.5-2.9-11-2.8-16.9-1c-3.2,1-7.2,0.3-10.7-0.2c-3.3-0.4-6.6-1.4-9.9-2.2c-0.7-0.2-1.8-0.4-1.9-0.8c-0.2-0.7,0-2,0.5-2.3
			c2.1-1.3,4.3-2.3,6.5-3.4c0.2-0.1,0.6,0.2,0.7,0C262,25.5,266.6,27.9,271.2,30.5z M250.1,60.8c-4.4-1.7-8.5-1-13,0.3
			c-3.2,0.9-6.8,0.3-10.2,0.1c-2.3-0.1-4.5-0.6-6.8-1c-0.7-0.1-1.8-0.1-2.1-0.5c-3.1-4.2-7.3-2.5-11.2-2.1c-2.3,0.2-4.5,0.4-6.8,0.4
			c-2.4,0-3-1.5-1.7-3.2c0.9-1.2,2.4-2.8,3.7-2.8c7.1-0.4,14.1-0.4,21.2-0.4c1.2,0,2.5,0.4,3.7,0.9c6.9,3,13.8,2.6,20.7-0.1
			c3.9-1.5,7.5-2.2,11.7-0.2c4.6,2.2,9.6,1.3,14.6,0.7c3.9-0.4,8.1-0.4,11.9,0.6c5.8,1.5,11.3,2.4,17.1,0.3c6-2.1,11.2,0.9,17.7,3.1
			c-1.9,1.1-2.7,1.8-3.7,2c-10.5,2.1-21,5.1-31.9,1.6c-2.1-0.7-4.5-1.2-6.7-1c-4.1,0.4-8.2,1.1-12.2,2.2
			C260.6,63.2,255.3,62.8,250.1,60.8z M261.5,67.3c-2.8,4-6.4,6.2-10.8,6.1c-5.6,0-7.2-5.2-11.2-9.2
			C248.1,61.8,254.3,67.2,261.5,67.3z M225.8,64.8c-2.8,3.9-5.9,6.5-10.4,7.6C215.2,64.6,218,62.4,225.8,64.8z M205.7,30.2
			c6.2-2,10.4-0.3,14.8,6.1c-3.4,0.6-6.6,1.6-9.8,1.5c-3.1-0.1-6.2-1.2-9.7-1.9C200.6,32.8,202.7,31.1,205.7,30.2z M313.2,50.4
			c-3.7-0.3-7.6-0.9-11.1,0.1c-4.8,1.3-9.3,1.5-13.7-0.6c-5.5-2.5-11.1-2.5-16.7-0.9c-4.3,1.2-8.3,0.9-12.3-0.7
			c-4-1.7-7.9-1.6-11.8,0.1c-6.9,2.9-13.7,2.3-20.8,0.4c-4.3-1.2-8.9-0.9-13.4-1c-2.3-0.1-4.7,0.4-6.8,0.7c-0.7-2.8-1.3-5-2-7.5
			c0.2-0.1,0.7-0.4,1.1-0.4c4.9,0,9.8,0.2,14.7,0c4.4-0.2,8.4,0.1,12.4,2.4c4.7,2.8,9.4,2.3,13.7-1.3c3.5-2.9,7.5-3.4,11.7-1.3
			c5.2,2.6,10.4,2.7,16.2,0.9c3.4-1.1,8-0.8,11.3,0.6c6,2.4,11.3,2.7,17.1-0.2c1.9-1,5-0.7,7.2,0.2c4,1.6,7.7,3.2,12.1,1.8
			c0.4-0.1,0.8-0.1,1.1-0.1c2,0,4.6-0.8,5.2,2.1c0.5,2.3-2.6,6.4-4.9,6.3C320.1,51.7,316.7,50.6,313.2,50.4z M164.7,57.1
			c-3.2,0.4-6.6,0.8-9.7,0.2c-7.1-1.3-13.8-1.4-20.9,1.2c-3.9,1.5-9.1,0.8-13.4-0.4c-6.8-1.8-12.9-1.4-19.2,1.5
			c-5.8,2.7-11.8,2.1-17.9,0.5c-2.8-0.7-5.9-0.8-8.8-0.5c-2.3,0.3-3.6-0.1-4.5-2.2c-1.4-3.2-3-6.3-4.5-9.5c0.3-0.3,0.6-0.6,0.9-1
			c1.4,0.5,2.9,0.7,4.1,1.4c5.6,3.7,11.6,3.1,17.1,0.4c7.1-3.5,13.7-3.2,20.7,0.1c1.8,0.9,4.4,1.1,6.3,0.6
			c8.7-2.3,17.2-1.6,25.8,0.2c0.7,0.1,1.6,0.3,2.3,0c6.7-2.8,13.5-0.8,20.3-0.9c3.5-0.1,4.2,1.9,4.9,4.5
			C168.9,56.5,166.4,56.9,164.7,57.1z M150.6,223.2c2.6,1.5,3.7,3.4,3.8,6.4c0.2,8.1,0.8,16.2,1,24.3c0.1,3.4,1.4,5.6,4.2,7.6
			c1.3,0.9,2.3,2.8,2.6,4.4c0.3,2.3-0.7,4.2-3.2,5.4c-7.2,3.6-14.8,3.1-22.4,2.1c-8.5-1.2-16.9-0.8-24.9,2.6
			c-0.6,0.2-1.2,0.5-1.7,0.9c-12.4,9.9-28.5,10.5-40.1,5.8c-6-2.4-11.4-6.6-17-10.1c-0.6-0.4-1-1.8-0.8-2.7c1.5-9.5,3.2-19,4.6-28.6
			c0.7-4.6,0.6-9.3,1-13.9c0.2-1.7-2.3-11-2.7-12.5c-2.7-10.4-10.3-16.2-18.9-21.2c-2.6-1.5-5.5-2.7-8.1-4.3c-1-0.6-1.6-2-2.4-3
			c1.1-0.8,2.2-2,3.5-2.4c4.1-1.3,8.3-2.2,12.5-3.3c3.4-0.8,5.4-3,5.8-6.3c0.8-5.9,4.4-8.5,10-9.9c6.8-1.7,13.3-4.2,20-5.9
			c7.3-1.9,10.1-8,13.6-13.5c1.7-2.6,3.4-5.4,5.6-7.5c1.2-1.1,3.7-0.8,5.7-1c0.7-0.1,1.4,0.6,2.1,0.6c4.6,0,7.2,2.7,9.7,6.3
			c5.4,7.7,10.9,15.4,19.5,19.9c3.5,1.8,7.6,2.7,11.5,3.7c2.5,0.7,7.7,3.3,8.1,1.7c4.2,1.8,8.3,3.3,12.1,5.2
			c2.6,1.3,2.1,3.6,0.8,5.6c-4.8,7.4-9.6,14.9-14.7,22.2c-2.8,4-5,8-5.1,13.2C146.2,218.9,147.5,221.4,150.6,223.2z M187.6,270.3
			c1.8,0.5,3.8,0.6,5.6,0.1c2.5-0.6,4.4-0.8,4.8,2.2c0.3,2.8,3.2,6-1.3,8.2c-2.9,1.5-5.3,2.4-7.9-0.9c-1.9-2.4-4.5-2.6-6.4,0.7
			c-1.4,2.5-3.6,3.3-6.8,2.6c-3-0.6-6.2,0.2-9.3,0.2c-2.1,0-4.4,0.1-6.2-0.7c-6.3-2.8-12.1-2.8-17.9,1.3c-3.8,2.7-8.2,2.7-12.8,1.7
			c-5.6-1.1-11.3-1.6-16.8-2.4c0,0,0.4-1,1-1.3c5.1-2.3,9.9-5.3,16.1-4.1c12.3,2.5,24.2,1.8,35.8-4.4
			C172.1,270.2,179.7,268.2,187.6,270.3z M180.6,265.1c0.1-0.5,0.2-1.1,0.3-1.6c3,0.6,6,1.1,8.9,1.7c-0.1,0.5-0.1,1-0.2,1.5
			C186.6,266.2,183.6,265.6,180.6,265.1z M238.9,247.1c6.7,0,9.2,3,9,9.5c-5.4,0.3-10.4,0.6-15.3,0.9c-5.1,0.3-6.4-1.1-5.9-6.1
			c0.2-2.7,1.6-4.2,4.4-4.2C233.5,247.2,236.2,247.1,238.9,247.1z M231.2,242.8c0.6-1,2.9-5.8,5.7-5.9c2.8-0.1,5,4.9,6.5,5.9
			C238.9,242.8,235.2,242.8,231.2,242.8z M233.5,260.9c3.2-0.3,6.5-0.9,9.7-0.9c3.2,0,5.7,1.5,7.5,4.4c1.6,2.5,3.7,4.6,6.2,7.6
			c-3.9-0.7-6.9-2-9.6-1.5c-7.5,1.2-9.9-4.9-14.3-8.1C233.2,261.9,233.3,261.4,233.5,260.9z M280.3,287.6
			c-6.8,4.3-28.8-1.7-33.3-12.7C251.9,272.2,275.1,281,280.3,287.6z M266,290.1c6.5,4.7,13,1.3,19.5,1.1c6.2-0.2,11.7,3,15.1,8.8
			c1.6,2.8,0.7,4.7-2.3,4.5c-6-0.4-12.4-0.2-17.8-2.3c-5.5-2.1-10.1-6.7-15.1-10.2C265.6,291.3,265.8,290.7,266,290.1z M289.1,306.7
			c3.7,0.4,7.4,1.1,11.2,1.2c2.3,0,3.6,0.5,4.1,2.8c0.6,3.2,1.3,6.3,2,9.9c-4-0.4-7.2-0.8-10.4-1.2c-0.4-0.1-1-0.4-1.2-0.8
			c-2.9-3.8-5.7-7.7-9-12.1C287.1,306.6,288.1,306.6,289.1,306.7z M298.2,324.2c5-1.7,8.5,0.1,9.5,4.8c0.5,2.3,1,4.7,1.8,7
			c0.9,2.5,0,3.9-2.3,3.9c-3.6,0.1-7.2-0.3-10.8-0.5c-2.6-0.2-5.2-0.4-7.8-0.6c-1.5-0.1-4,0.2-4.5-0.7c-1-1.7-1-4-1.4-6.1
			c0.5-0.2,0.9-0.3,1.4-0.5c2.9,1.8,4.8,6.5,9.2,4.1C297.7,333.4,299.4,329.2,298.2,324.2z M285,345c1.8-3.5,5.8-3.2,9.2-2.7
			c5.2,0.9,10.4,2.5,15.7,0.6c0.9-0.3,2.5,0.4,3.3,1.1c3.6,3.3,7.2,6.8,10.6,10.3c0.9,0.9,1.4,2.1,2.6,4.2c-5-0.4-8.9-0.3-12.7-1.1
			c-6.9-1.5-13.1-0.4-19.6,2.2c-3.5,1.4-8.2,1.8-11.7,0.7c-6.5-2-12.5-1.4-18.7,0.4c-3.1,0.9-5.3,1.1-8.7-1.2
			c-8.9-5.9-19-6.1-29-1.8c-2.2,1-4.8,1.5-7.2,1.8c-6.4,0.7-12.9,1.2-19.3,1.6c-3.5,0.2-7.3,0.6-10.5-0.3c-8.3-2.3-16.4-1.7-24.5,0
			c-5.5,1.1-10.7,0.7-16.2-0.2c-4.8-0.8-10.3-0.9-14.9,0.4c-9.7,2.9-19.3,3.6-29.3,1.8c-4-0.7-8.7-0.1-12.6,1.3
			c-5.7,2.1-11.3,2.5-17.1,1.6c-3.5-0.6-6.9-1.4-10.4-2.1c3.5-7.5,14.8-14.4,22.3-12.5c10.1,2.6,19.9,1.8,29.7-0.4
			c7.8-1.8,15.4,0.2,23,0.9c4.9,0.5,10.3,0.4,15-0.9c9-2.5,17.7-2.2,26.7-0.8c4.5,0.7,9.2-0.4,13.9-0.6c3.9-0.2,8-1.3,11.6-0.3
			c6.3,1.6,12.1,1,17.9-1.2c7.8-3,15.5-4.4,23.8-1.8c2,0.6,4.5-0.1,6.8-0.3c2-0.2,3.3,0.2,3.9,2.5c0.6,2.2,1.5,4.3,2.7,6.2
			c2.2,3.4,5.6,4.6,8.9,3C276.1,354.6,281.7,351.4,285,345z M378,331.5c1.5-0.2,2.9-0.9,4.4-1.2c4.8-0.9,5.9-0.1,7.2,4.6
			c0.4,1.4,0.9,2.9,1.1,3.7c-7.4,1.1-14.4,2.3-21.4,3.1c-4.5,0.5-7.3-3-5.6-6.8c0.4-0.9,1.7-1.6,2.7-1.8
			C370.3,332.4,374.2,332.1,378,331.5z M367,329.4c1.9-5.1,5-7.4,9.3-7.9c4.1-0.4,8,0.5,12.1,3.6C380.8,326.6,374.3,327.9,367,329.4
			z M402.4,355.8c-4.5,2-8.2,3-12.1-1.3c-1.3-1.4-5-1.4-7.4-1c-8.2,1.4-8.2,1.5-12.6-5.5c-0.2-0.3-0.3-0.7-0.4-1
			C382.6,339.9,398.8,344.3,402.4,355.8z M372.8,362.7c4.1-5.6,13.7-6.9,19-2.6c2.3,1.9,4.8,2.7,7.8,1.7c1.4-0.5,2.9-0.8,4.9-1.4
			c0.5,3.1,1,6,1.6,9.7c-8-3.9-14.9-0.8-21.9,1.2c-1.7,0.5-3.6,0.9-5.2,0.5c-5.1-1.2-10.1-2.8-15.7-4.4c1.3-0.5,2.4-1.4,3.3-1.3
			C369.6,366.5,371.2,364.8,372.8,362.7z M364.9,373.2c4,0.1,7.9,1.2,11.9,1.7c2.8,0.4,5.6,0.5,8.5,0.5c1,0,2-0.4,2.9-0.8
			c10.9-4.7,19.9-0.1,28.6,5.8c2.8,1.9,5.4,3.9,8.1,5.9c-0.1,0.3-0.2,0.7-0.3,1c-3.6-0.4-7.2-0.7-10.7-1.2c-2.9-0.4-5.7-1.5-8.6-1.6
			c-2.6-0.1-5.3,0.9-7.9,1.3c-3.2,0.5-6.6,1.8-9.5,1c-9.4-2.5-18.7-3.3-28.2-1.8c-2.1,0.3-4.4,0-6.6,0c-0.1-0.5-0.1-0.9-0.2-1.4
			c1-0.3,1.9-0.7,2.9-1c2.9-0.9,4.8-2.3,5.3-5.7C361.3,375.4,363.6,373.2,364.9,373.2z M360.7,388.8c9.1-1.3,17.9-0.4,26.7,1.9
			c3.9,1,7.9,1.3,11.6-1.6c1.2-0.9,3.4-0.9,5.1-0.6c8.5,1.3,16.9,3,25.4,4.1c5.1,0.7,10.4,0.4,15.6,0.9c2.3,0.2,4.7,0.8,6.9,1.7
			c4.2,1.8,8.2,1.8,12.6,0.5c2.5-0.8,5.4-1.1,8-0.8c7.6,1,14.8,0.7,22.1-2.1c4.6-1.7,9.5-2.7,15.4-4.3c-1.2,6.4-2,11.6-3.3,16.7
			c-0.2,0.8-2.5,1.8-3.5,1.6c-4.5-1-8.7-0.6-13,1.3c-1.2,0.5-3,0.2-4.4-0.2c-8.1-2.7-16.2-2.3-24.5-1.5c-4.2,0.4-8.9,0.4-12.6-1.2
			c-8.4-3.6-16.9-3.7-25.4-1.7c-5.8,1.3-11.3,1.4-16.9-0.4c-10.2-3.2-20.5-2.2-30.9-1.3c-4.5,0.4-9.2,0.4-13.5-0.7
			c-9.3-2.4-18.4-3.3-27.8-1c-7.2,1.7-14.4,0.9-21.5-0.9c-8.9-2.3-17.6-2-26.3,0.4c-5.2,1.4-10.2,1.4-15.4-0.1
			c-10-3-20.2-3.5-30.5-1.5c-5.6,1.1-11,0.2-16.5-1.4c-3.3-1-6.9-1-10.4-0.8c-2.7,0.1-3.8-0.6-3.9-3.2c-0.1-2-0.3-4.1-0.8-6
			c-0.7-2.7,0.7-3.3,2.7-3.2c1.4,0.1,2.7,0.5,4,1c7.6,2.5,15.3,3.5,23.1,1.1c4.7-1.5,9.3-0.8,13.8,0.9c6.2,2.3,12.3,2.6,18.4-0.4
			c7.5-3.7,15.1-1.4,22.7,0.2c3.4,0.7,7,0.2,10.5,0.2c4.4,0,8.9-0.6,13.1,0.2c6.9,1.3,13.6,2.4,20.7,0.6c3.2-0.8,7,0.4,10.5,0.7
			C352.7,388.1,356.8,389.4,360.7,388.8z M453.4,394.8c3.2-6,6.6-6,10.1,0C459.8,394.8,456.8,394.8,453.4,394.8z M475.3,456.5
			c-7.4-0.7-14.7-2.1-22-3.1c-1.9-0.3-3.8-0.4-5.6-0.7c-5.5-0.9-11.1-1.5-16.4-3c-6.2-1.8-12-0.5-18,0c-5.3,0.5-11,0.4-16.1-1
			c-5.7-1.6-11.1-2.6-16.8-1.2c-6.6,1.6-12.7,0.3-18.8-2.5c-4.2-1.9-8.8-3.3-13.3-4.6c-7-1.9-13.9-0.8-19.6,3.4
			c-4.4,3.3-8.7,2.3-13.3,2c-4.7-0.3-9.7-0.6-14.2,0.4c-7.2,1.7-13.9,2.2-20.8-1.1c-2.1-1-5.1-1-7.4-0.4c-7.9,2.1-14.9,1.6-22.6-2.4
			c-7.5-3.9-16.3-5.1-24.6-7.5c-1-0.3-2.1-0.4-3.2-0.7c0-0.5,0-1,0-1.5c3.8-0.2,7.5-0.8,11.2-0.5c5.3,0.5,10.5,2.2,15.7,2.4
			c5.1,0.2,10.5-0.3,15.4-1.8c8-2.4,15.5-1.7,23,1.7c4.8,2.2,9.7,2.4,14.5,0.7c7.9-2.9,15.7-3.6,23.8-1.2c6.5,1.9,13.1,0.9,19.6,0.5
			c3.7-0.2,7.7,0.1,11.2,1.1c9.3,2.9,18.7,2.9,28.2,2.1c4-0.4,8.3,0.4,12.2,1.5c7.6,2.2,14.8,2.9,22.7,0.4
			c4.8-1.5,10.6-0.8,15.7,0.2c8,1.6,15.9,2.8,24.1,1.1c5.3-1.1,10.5-0.9,15.6,1.7c2.6,1.3,5.9,1.3,8.8,1.7c3.9,0.4,7.9,0.6,12.8,1
			c-1.8,3.9-2.8,6.6-4.2,9.2c-0.5,0.8-1.7,1.7-2.6,1.8C485.4,456.5,480.3,456.9,475.3,456.5z M487.7,462.8c-1,5-5.7,5-11.1,0
			C480.3,462.8,483.9,462.8,487.7,462.8z M444.1,457.5c-3.5,3.4-22.1,6.8-31.9,5.5c-6.3-0.8-29.1-8.9-32-12c4.5,0,8.4-1,11.5,0.2
			c9.4,3.6,18.7,3.7,28.4,1.6c2.7-0.6,5.8-0.3,8.6,0.3C433.9,454.3,439.1,456.1,444.1,457.5z M317.4,462.2
			c-3.6,0.1-7.6,0.6-10.9-0.5c-7.2-2.4-14.1-1.5-20.9,0.6c-3.9,1.2-6.5,0.4-9.1-2.4c-1.7-1.8-3.9-3.2-5.8-4.8
			c-1.5-1.2-2.8-2.6-4.6-4.2c5.3-3,10.1-4,14.8-1.6c6.5,3.3,13.1,3.1,19.6,1.1c6.9-2.1,13.5-0.8,20.2,0.5c0.5,0.1,1,0.4,1.3,0.7
			C323.6,453.8,320.3,462.1,317.4,462.2z M319.3,466.9c-4.4,7.6-25.8,6.4-32.1-0.6c4.9-2.4,9.7-2.4,14.7-1.8
			c5.2,0.6,10.5,1.2,15.7,1.8C318.1,466.4,318.7,466.7,319.3,466.9z M494.1,441.1c-3-0.5-6.1-0.3-9.1-0.6c-2.7-0.3-5.6-0.5-8.1-1.6
			c-5.2-2.3-10.3-2.5-15.9-1.7c-7.6,1.1-15.4,1.3-23-1.1c-7.3-2.2-14.2-1.4-21.6,0.7c-5.1,1.4-11.3,0.1-16.6-1.4
			c-5.5-1.6-10.9-2.3-16.5-1.5c-8.9,1.2-17.3,0-25.9-2.3c-5-1.4-10.5-0.5-15.8-0.7c-5.7-0.3-11.4-0.1-17-1.1
			c-7.3-1.4-14.3-1.5-21.2,1.5c-4.9,2.1-10,2.2-14.8-0.2c-7.9-4-15.9-4.2-24.4-1.8c-7.9,2.2-15.9,2.5-24.1,0.3
			c-7.2-1.9-14.5-2.3-21.6,0.9c-2.1,0.9-3.7,0.7-4.2-2c-0.4-2.2-1.3-4.4-1.7-6.6c-0.9-5.3,0.4-6.8,6.7-6.8c1.6,0.3,4.1,1.2,6.6,1.3
			c5.2,0.3,10.8,1.4,15.7,0.1c8.8-2.2,17.1-2.5,25.9,0c6.6,1.9,13.3,1.8,19.9-0.1c5.2-1.5,10.3-1.2,15.4,0.4
			c9,2.8,18.1,3.7,27.7,2.7c7.2-0.7,14.8,1.4,22,2.9c6.3,1.4,12.4,1.3,18.4-0.2c7.1-1.7,14-1.6,21,0.6c6.4,2,12.7,2.6,19.5,0.8
			c7.2-1.9,14.7-1.9,21.8,0.8c8.3,3.1,16.3,3.5,24.9,0.9c3.6-1.1,8.2-0.5,11.8,0.7c5.7,2,11.2,2.7,17.1,1.6c2.3-0.4,4.8-0.3,7.1,0.2
			c7,1.4,7.3,2.2,5.9,9.2C499.4,440.6,497.8,441.8,494.1,441.1z M499.6,424.7c-5.1-0.5-10.3-0.5-15.5-0.8c-3.4-0.2-7,0.1-10-1.1
			c-6.3-2.6-12.6-2.9-19-0.9c-6.3,1.9-12.4,1.6-18.6-1c-9.2-3.8-18.5-3.1-28-1.2c-3.8,0.8-8.2,0.7-11.9-0.4
			c-9.4-2.9-18.6-3.5-28.1-0.9c-5.7,1.5-11.3,1.1-16.9-0.7c-9.6-3.1-19.3-3.4-29.3-2c-5.1,0.7-10.9-0.6-15.9-2.3
			c-7.6-2.6-14.8-2.4-22.4-0.7c-7.2,1.6-14.3,1.2-21.3-1.4c-6.7-2.5-13.3-1.2-19.8,0.8c-5.9,1.8-11.7,1.7-17.6,0.1
			c-3-0.8-6.4-1.5-9.3-0.9c-4,0.8-4.8-0.7-4.7-4c0-0.8-0.1-1.5-0.1-2.3c-0.3-4.8,0.1-5.4,4.9-6c2-0.2,4.2-0.3,6,0.5
			c8,3.3,16.2,3,24.4,1.7c7.9-1.3,15.5-0.2,22.9,1.9c6.1,1.7,12.1,2.2,18.4,0.5c8.3-2.2,16.5-2.5,25.2-0.5c6.9,1.6,14.5,2,21.4,0.8
			c9.8-1.7,19-0.7,28.6,1.1c6,1.1,12.3,1,18.4,0.3c6.8-0.7,13.4-1.1,20,0.7c8.6,2.2,17,3.2,25.9,1c6.2-1.5,12.6-1,18.6,1.8
			c6.7,3.1,13.8,2.7,20.9,1.5c6.2-1.1,12.3-0.3,18.4,1.5c2.1,0.6,4.6-0.1,6.9-0.5c1.4-0.2,2.6-1.1,4-1.2c7.4-0.6,9,1.2,7.8,8.4
			c-0.2,1.5-0.6,3-0.9,4.5C502.6,424.8,501.5,424.9,499.6,424.7z M322.8,383.6c-7-2-13.8-2.4-21-1.3c-4.3,0.7-9.2-0.1-13.5-1.4
			c-6.9-2-13.4-1.3-19.6,1.6c-5,2.3-9.8,2.3-14.7,0.4c-5.8-2.3-11.7-3.1-17.8-0.8c-6.4,2.4-12.7,0.8-19.1-0.8
			c-6.5-1.6-12.6-3.2-17.4-8.7c-2.8-3.2-7.7-3.6-12.2-2.5c-3.3,0.8-6.6,1.7-10,2.5c-7,1.8-13.7,4.4-21.5,3c-6.1-1.1-12.7,1-18.8-0.1
			c-7.8-1.4-15-1.6-22.3,1.6c-4.7,2.1-9.6,0.9-14.2-0.5c-6.4-1.9-12.3-1.6-18.4,1.4c-6.1,3.1-12.8,3-19.4,2.1
			c-5.7-0.8-11.4-1.7-17.7-2.6c2.3-1.9,4.4-4.3,7-5.7c7-3.6,14.5-5.1,22.4-2.8c6.2,1.8,12.2,0.5,18.3-1.2c3.7-1,7.8-1.7,11.5-1.1
			c9.7,1.4,19.1,1.5,28.6-1.7c5.5-1.9,10.9-2.3,16.8-0.5c4,1.2,8.6,1,12.8,0.4c9.9-1.4,19.6-2.6,29.5,0c3.2,0.8,6.8,0,10.2-0.2
			c6.6-0.4,13.3-0.9,19.9-1.3c-0.2,0.6-0.4,1.1-0.6,1.7c1.2,1.4,2.4,2.8,3.8,4.1c2,1.9,4.2,3.6,6.3,5.4c5.9,5.1,14.9,6.3,20.4,2.2
			c2.2-1.7,3.8-4.6,4.9-7.2c0.9-2.1,1.7-3.5,3.9-4.1c7.1-2,14.1-3.5,21.7-1.3c5.1,1.5,10.5,0.2,15.5-2c4.1-1.8,8.1-2.9,12.8-1.6
			c4.3,1.2,9,1,13.6,1.3c2.7,0.2,4.2,1.5,4.9,4.3c1.4,6,2.9,12.2,9.7,15.8C333.2,384.5,327.9,385.1,322.8,383.6z M16.7,162.9
			c3.8-1.9,7-1.3,10.8,0.3c3.2,1.4,7.1,1.1,10.6,1.4c1,0.1,2.1-0.4,4-0.8c-1.9,5.1-2.5,9.9-7.8,11.4c-1,0.3-2.6,0.6-3.2,0.1
			c-3.1-2.6-6.2-1.5-9.3-0.3c-0.4,0.1-0.7,0.3-1.1,0.4c-2.9,0.9-6.5,3.5-8.6-0.4C9.6,169.9,11.9,165.3,16.7,162.9z M10.3,155.9
			c-1.2-5.2-1-5.3,4.3-6.3c1.5-0.3,2.7-1.6,4.2-2.2c5.5-2.2,11.3-3.8,17-1.6c4.8,1.9,9.3,1.4,13.6-0.7c5.5-2.7,10.7-4.1,17.1-2.6
			c4.1,0.9,8.8-1,13.2-1.7c1.4-0.2,2.8-0.8,5.4-1.6c-2,4.9-3.6,9-7.5,10.6c-8.9,3.5-18.1,6.7-27.3,9.2c-5.1,1.4-10.7,1.4-16.1,1.7
			c-2.3,0.1-5-0.1-7-1.2c-4.4-2.4-8.6-2.5-13.1-0.3c-0.6,0.3-1.4,0.4-2.6,0.8C11.1,158.3,10.6,157.1,10.3,155.9z M78.8,318.1
			c-3,2.4-5.4,5.5-7.7,8.6c-0.9,1.2-1.2,3.3-0.8,4.7c3.1,11.7-3.5,19.2-10.9,26.4c-3.3,3.2-7,6.1-10.2,9.5
			c-7.8,8.4-17.1,13.2-28.8,12.9c-1.1,0-1.9-0.2-3,0c-4.7,0.9-4.3,0.9-4.3-4c0-1,0-2,0-3c0-1,0-0.4,0-2.4c0,0-0.7,0-0.7,0
			c0-20,0-42.5,0-63.5c0-5.7-0.3-11.6-0.4-17.3c-0.1-3.5,1.7-5.4,5.1-6.1c9.7-1.9,19.7-2.6,28.3-8.2c0.9-0.6,3-0.2,4.2,0.5
			c5.2,2.9,10.2,6.1,15.3,9.2c11.5,6.9,23.6,8,36.2,3.7c3.7-1.3,5.4-0.3,3.9,3.2c-1.8,4.4-4.4,9-7.9,12.2
			C91.4,309.6,84.7,313.4,78.8,318.1z M96.6,319.9c8.6,2.3,16.7,1.2,24.9-2c6.4-2.6,13.3-2.2,19.9-0.4c5.6,1.5,10.6,1.7,16.2-0.8
			c4-1.8,9-1.1,13.5-1.5c0.8,3.7,1.4,6.4,1.9,9.1c0.8,4.1,0.3,4.7-3.9,4.6c-3,0-6.1-0.3-9.1-0.4c-7.2-0.4-14,0.9-20.7,3.9
			c-2.5,1.1-6.2,1.1-8.8,0.1c-10.5-3.9-20.3-2.9-30.2,1.8c-2,1-5.1,0.4-7.5-0.3c-4.4-1.2-8.7-2.9-13.2-4.5
			C79.7,323.7,90.4,318.3,96.6,319.9z M13.5,260.3c5.5,2.6,9.5,0.8,13.6-1.6c1.6-0.9,4.1-0.9,6-0.5c3.8,0.8,7.5,2.2,11.4,3.5
			c0.9,4.1,0.1,6.3-4,7.9c-3.7,1.5-7.6,2.7-11.5,3.8c-5.2,1.4-10.5,2.6-16.3,4C13,271.7,13.3,266.3,13.5,260.3z M13.5,244.5
			c0.5-1.3,1.6-2.6,2.7-3.2c2.5-1.3,5.5-1.9,8-3.4c2.5-1.5,4.7-1.8,7.1-0.5c5.1,2.8,10,4.8,15.7,1.5c1.8-1.1,3.1,0.2,2.7,2.5
			c-0.5,2.7-0.8,5.5-1.4,8.2c-1.4,6.6-6.1,9-12,5.8c-4.4-2.4-8.2-2.1-12.5,0c-8.4,4.1-10.5,2.6-10.4-6.8
			C13.4,247.3,13,245.7,13.5,244.5z M45,234.8c-3.3,1.5-6.5,3.4-10,0.7c-4.5-3.4-9.2-3.9-14-0.6c-0.5,0.3-1.2,0.5-1.7,0.8
			c-4.9,2-5.9,1.7-5.6-3.5c0.1-1.3,0-1.4,0-3.4c0,0,0,0,0.1,0c0,0,0-1.1,0-1.5c-0.1-6.3-0.1-6.3,5.9-7.4c2.2-0.4,4.3-1.4,6.5-2.2
			c2.8-1,5.2-0.6,7.3,1.6c3.6,3.8,7.7,4.3,12.5,2.2c3.5-1.6,4.4-0.9,4.9,2.9C51.8,231.4,51.4,232,45,234.8z M47.7,216.2
			c-2.7,2.4-10.4,2.6-13.1,0.2c-3.8-3.3-7.7-4.1-12.2-1.7c-0.9,0.5-1.9,0.7-2.9,1c-4.8,1.3-5.9,0.3-5.9-4.7c0-2.6,0-5.3,0-7.4
			c2.9-1,5.1-2.1,7.3-2.4c2.5-0.2,5.6-0.4,7.5,0.8c2.9,1.8,5.6,2.6,8.9,2.3c5.5-0.5,10.9,4.4,11.1,9.9
			C48.5,214.9,48.2,215.7,47.7,216.2z M29,198.8c-3-2.4-5.9-2.9-9.4-0.8c-3.8,2.2-5.1,1.3-5.5-3.1c-0.4-5.3-0.9-10.5-1.3-15.9
			c2.3,1,4.4,1.9,6.8,2.9c-1.4,5.7,2.6,8.3,6.7,10.8c3.4,2,6.9,3.9,11.2,6.3C33.7,200.8,31.3,200.7,29,198.8z M42.2,394.4
			c-4.5,1.6-9.9,0.3-15,0.2c-3.7-0.1-7.5-0.3-11.2-0.7c-1.4-0.2-3.5-0.7-3.9-1.7c-0.8-2-0.5-4.7,2.2-5.2c6.7-1.3,13.8-4.1,20.1-2.9
			c5.6,1.1,9.7-0.9,14.4-1.5c3.3-0.4,6.9-0.1,10.1,0.7c9.9,2.2,19.4,2.2,28.4-2.8c3.7-2,7.4-1.4,11.1-0.3c7.8,2.3,15.3,2.8,23-0.6
			c4.8-2.2,10.1-1.7,15,0.5c0,0.4,0.1,0.8,0.1,1.2c-2.3,0.3-4.6,0.8-6.9,0.9c-18.2,0.3-35.3,5.2-51.8,12.4
			c-5.3,2.3-10.3,2.8-15.8,0.5C55.6,392.2,49.2,392,42.2,394.4z M61.3,398.7c-1.5,0.7-2.3,1.1-3,1.3c-8.5,2.3-17,3.7-25.9,2.6
			c-5.5-0.6-11.1,0-16.7,0.3c-4.7,0.2-5-0.1-3.2-5.8c6.6,0.6,13.4,1,20.1,2c5.2,0.8,10-0.3,14.9-1.9
			C51.9,395.8,56.3,396.4,61.3,398.7z M228.8,366c4.3-3.5,9-4.1,14-4c1.8,0,3.6,0.2,5.3,0.7c1.6,0.5,4.3,1.4,4.4,2.4
			c0.3,2-0.3,4.7-1.6,6.2c-1.3,1.5-3.9,2.6-6,2.7C238.7,374.5,233.3,371.7,228.8,366z M248,342.3c-8.8-2.6-17.1-1.2-25.3,1.9
			c-5.6,2.1-11.2,2.5-17.1,1.2c-3.5-0.8-7.6-0.4-11.2,0.5c-5.3,1.4-10.5,1.7-15.8,0.4c-9.4-2.3-18.5-1.4-27.7,1.5
			c-4.5,1.4-10,1.3-14.6,0.1c-10.1-2.7-19.9-1.3-29.7,0.8c-5.6,1.2-11,0.9-16.6-0.4c-3.7-0.9-7.7-0.8-11.8-1.1
			c0.5-3.4,1-6.6,1.4-9.9c0.3-2.3,1.9-3,3.9-2.5c2.8,0.6,5.7,1.2,8.4,2.4c3.9,1.7,7.5,2,11.3,0.1c8.2-4,16.7-4.6,25.5-1.7
			c5,1.7,10.1,1.1,15.2-0.8c6.7-2.6,13.8-4.4,21.2-2.4c1,0.3,2,0.4,3,0.2c3.4-0.5,4.4,0.9,5,4.3c0.4,2.2,2.5,4.7,4.5,6
			c7.2,4.6,18.1-0.2,19.8-8.6c0.7-3.3,2.3-5,5.6-5c3.8,0,7.7-0.3,11.2,0.5c5.1,1.3,9.8,1.2,14.4-1.2c8.1-4.2,16.6-2.5,25-1.6
			c0.9,0.1,1.9,1.2,2.4,2.1c0.7,1.3,1,2.9,1.3,4.3C258.8,341.1,255.5,344.5,248,342.3z M177.5,321.9c0.1-2.5,0.2-5.5,1.6-7.2
			c1.1-1.3,4.2-1,6.4-0.9c4.5,0.1,5.2,3.4,5.5,7c0.3,3,0.7,6,1,9c0,5.6-2.6,9.1-7.3,10c-3,0.6-5.1-0.3-5.7-3.4
			c-0.4-2.1-0.4-4.2-0.7-6.4C178.1,327.3,177.4,324.6,177.5,321.9z M246,322.1c-1.1,0.1-2.3,0.2-3.4,0.1c-6.2-0.4-12,1-17.6,3.7
			c-2.1,1-4.9,1.2-7.4,1c-6-0.6-12-1.6-18.9-2.5c0.1,0.2-0.2-0.5-0.4-1.2c-0.6-2.5-2.5-6.6-1.7-7.2c2.3-1.8,5.7-2.5,8.8-3.1
			c2-0.4,4.3,0.2,6.4,0.4c1.6,0.1,3.6,0.7,4.8,0c4.7-2.7,8.8-0.5,13,1.2c5.5,2.2,10.9,4.5,16.4,6.7C246,321.5,246,321.8,246,322.1z
			 M212.2,309.3c-4.5-1.1-8.8-0.6-13.1,1c-3.3,1.2-6.3,1.1-9.2-1.4c-3.7-3.1-8.1-2.9-11.6-0.1c-3.5,2.8-7,3.1-10.9,2.4
			c-5.2-0.9-9.9,0.4-14.7,2.6c-2.4,1.1-6,1-8.7,0.2c-9.6-2.8-18.9-2.8-28.3,1.2c-6.3,2.7-12.8,2.7-19.6,0c5.1-7.9,18.3-13.8,26-11.2
			c7.7,2.6,15.5,2.4,22.6-2.5c3.6-2.5,7.9-2.9,12.1-1.6c6.1,1.9,12.1,1.7,18.4,0.5c3.8-0.8,8,0.5,12,0.7c3.2,0.1,6.7,0.5,9.7-0.2
			c11.7-2.9,10.5-1.3,19.7,8C215,309.2,213.5,309.7,212.2,309.3z M109.4,299.2c0.5-2.3,1-5.2,2-7.9c0.3-1,1.7-2.2,2.7-2.3
			c3.7-0.4,7.7-1.2,11.1-0.2c7.8,2.3,14.9,2.1,21.8-2.6c4.3-2.9,8.7-1.1,12.7,0.4c3.1,1.2,5.8,1.8,9.1,0.6c4.2-1.5,5.4-0.4,4.6,4
			c-0.3,1.8,0,4.7-1,5.2c-2.3,1.1-5.1,1.4-7.7,1.3c-2.3-0.1-4.7-0.9-7-1.6c-5-1.5-10-1.2-14.3,1.7c-5.8,4-11.9,4.3-18.6,3.2
			C119.9,300.2,114.8,299.8,109.4,299.2z M180.4,289.7c1.5-1.5,3.1-4.8,6.1-2.2c1.7,1.6,3,3.7,4.2,5.7c0.4,0.7,0.5,2.1,0.1,2.7
			c-0.6,0.8-1.8,1-2.7,1.4c-2.5-1.1-5-1.6-6.8-3.1C180.3,293.5,179.7,290.4,180.4,289.7z M198.1,295.8c-1.8-2.2-2.6-5.4-3.3-8.3
			c-0.2-0.7,1.7-2.6,2.6-2.5c1.5,0,3.6,0.7,4.3,1.9c1.4,2.3,2.1,5.1,3.5,8.4C202.3,295.6,198.9,296.8,198.1,295.8z M99,130.4
			c-2.9,0.9-5.6,2.2-8.3,3.4c-0.2,0.1-0.4,0.4-0.7,0.4c-9.5-0.3-18.1,7.8-28,3.1c-4.8,1.3-9.7,2.4-14.4,4.1
			c-3.8,1.4-7.2,1.9-11.5-0.4c5-4.7,10-7.9,16.5-8.1c3.9-0.1,7.8-0.2,11.8-0.2c8.1-0.1,13.7-4.9,18.8-10.2c5-5.1,11.9-5,18-7
			c0.6-0.2,1.5,0.2,2.1,0.5c2.7,1.4,5.4,2.9,8.4,4.6C108.8,125,104.7,128.6,99,130.4z M104.5,112.5c-1.3-0.9-3.6-1-5.4-0.8
			c-2.7,0.4-5.3,1.3-8.3,2.1c-0.9-6.6,1.2-9.5,6.6-11.4c4.9-1.7,9.3-2.4,14,1c1.9,1.4,5.3,0.7,8.1,0.8c1.1,0,2.2-0.3,3.4-0.5
			C120.5,112.3,113.1,118.5,104.5,112.5z M114.2,100.4c-1.1-0.2-2.4-0.4-3.2-1.1c-4-3.6-8.3-2.9-12.8-1.4c-1,0.3-2,0.5-2.9,0.8
			c-2.4,0.5-4.2,0.1-4.7-2.8c-0.4-2.5-1-5,2.5-5.6c3.1-0.5,6.4-1.5,9.3-0.9c7.8,1.6,15.3,1,22.9-1c3-0.8,6.3-0.7,10.2-1.1
			C131.4,96.4,122.2,101.7,114.2,100.4z M120.4,85.1c-4.9,1-10.1,1-15,0.4c-4.8-0.6-9.3-0.9-13.8,0.9c-2.8,1.2-5,0.8-6.9-1.8
			c-1.4-2-3.3-3.7-4.9-5.6c0.1-0.5,0.2-0.9,0.3-1.4c2,0,4.1-0.4,6,0.1c9.2,2.5,18.1,2.3,27.3-0.9c4-1.4,8.8-1.3,13.2-0.8
			c5.7,0.7,11.2,0.6,16.4-1.6c6.4-2.7,12.4,0.1,18.7,1.1c-8.4,3-15.1,11.2-25.5,8.4C130.8,82.3,125.7,84,120.4,85.1z M158.1,69.9
			c-7.6-2.1-14.5,0.2-21.7,1.8c-1.9,0.4-4.1,0.7-5.9,0.3c-7.4-1.7-14.6-1.5-21.7,1.4c-7.5,3.2-14.9,1.5-22.5,0.1
			c-2-0.4-4.2,0.1-6.4,0c-1.7-0.1-4.4,0.1-4.7-0.7c-1.1-2.3-1.8-5.1-1.5-7.6c0.1-1,3.2-1.7,4.1-2.1c5.2,1,9.3,2.3,13.4,2.3
			c4.3-0.1,8.8-0.9,12.9-2.4c4.9-1.8,9.5-2.5,14.5-1c7.1,2.1,14.1,2.6,21.1-0.7c2.2-1.1,5.2-0.8,7.8-0.7c6,0.1,12.1,0.4,18.1,0.8
			c0.9,0.1,2.6,1,2.6,1.2c-0.4,1.9-0.6,4.6-1.9,5.3C163.9,69.2,160.5,70.6,158.1,69.9z M62.1,32c4.3,3.5,9.1,3.9,14,2
			c6.4-2.5,12.4-1.4,18.5,0.6c5,1.6,10,1.9,15.3,0.4c3.2-0.9,7.1-0.7,10.3,0.2c6.1,1.6,11.8,2.3,17.7-0.6c2.1-1,5-1.1,7.3-0.6
			c5.5,1.2,10.9,2.3,16.3-0.6c2.2-1.2,3.7-0.4,3.9,2.6c0.8,8.9,0.5,9-8.7,8.3c-4.3-0.3-8.7,0.8-13.1,1c-2.6,0.1-5.4,0.4-7.8-0.3
			c-5.8-1.8-11.3-1.5-17.2-0.1c-3.9,1-8.7,0.5-12.4-0.9c-5.7-2.2-10.9-3-16.4-0.2c-6.9,3.5-13.8,3.9-20.6-0.3
			c-0.6-0.4-1.4-0.6-2.1-0.8c-6.4-1.5-8.7-4.4-9.1-12.2C59.5,31,61,31.2,62.1,32z M54,21.8c-0.1-1.2,0.3-3.5,0.8-3.6
			c2.5-0.5,5.1-0.5,7.6-0.4c0.8,0,1.6,1.2,2.5,1.7c3.7,2.3,7.5,3.6,11.8,1.7c6.4-2.9,12.4-2.4,18.6,1c5.5,3,11.3,3.3,17.2,0.6
			c5.4-2.5,10.7-0.8,16,0.4c5.8,1.4,11.2,1.4,16.1-2.7c1-0.9,3-1.1,4.5-0.9c5.4,0.7,10.8,1.7,16.8,2.6c0.8,4.5,0.6,4.4-4,6.7
			c-5.1,2.5-10.1,2.9-15.4,0.9c-3.9-1.4-7.6-0.6-11,1.3c-4.2,2.3-8.3,2.2-12.5,0.6c-5.6-2.2-10.9-1.8-16.7-0.2
			c-3.6,1-8.2,0.4-11.8-0.9c-6.3-2.3-12.3-3.5-18.8-0.9c-4.6,1.9-9.2,1.2-13.3-2c-1-0.8-2.3-1.7-3.4-1.6
			C55.8,26.3,54.3,24.7,54,21.8z M51.5,7.9c10.6,0.5,20.8,1.1,31,1.6c16.3,0.8,32.6,1.9,49,2.2c10.6,0.2,21.3-0.6,31.9-1
			c1.2,0,2.5,0,3.7,0c-0.4,4.4-2.3,6.4-7.2,6.6c-2.6,0.1-5.4-0.3-7.7-1.4c-3.4-1.6-6.3-1.6-9.1,0.8c-4.1,3.6-8.7,3.7-13.6,2.2
			c-7-2.1-13.8-2.4-20.8,0.6c-4.4,2-9.2,0.5-13.1-1.9c-6.2-3.7-12.4-4-18.9-1.1c-3.8,1.7-7.6,1.5-10.8-1.1
			c-3.1-2.6-6.6-3.1-10.4-2.4C51.7,13.6,51,12,51.5,7.9z M7.5,35.2c-0.1-5.3,0.8-10.6,1.7-15.8c0.6-3.8,2.8-5.9,7.2-6.4
			c7.8-0.8,15.6-2.3,23.3-3.8c2.9-0.6,4.6,0,5.2,3.1c1.3,5.9,2.2,12,4.2,17.7c2.3,6.6,5.3,13,8.2,19.5c2.9,6.3,6.7,12.2,8.8,18.8
			c2.8,8.8,6,16.9,14.3,22.1c5.3,3.3,6.6,8.6,6.2,14.6c-1.1,15.4-14.8,24.7-28.3,22.5c-6.9-1.1-12.6,1.9-18.3,5.1
			c-1.2,0.7-2.3,1.3-3.5,2c-0.4-2.1-0.7-3.8-1.1-5.5c-0.7-2.8-2.5-4-5.4-3.5c-2.4,0.4-3.9-0.2-4.3-2.9c-0.5-3-2.6-4.3-5.4-4.4
			c-2.4-0.1-4.8-0.3-7.2,0.1c-2.4,0.3-3.4-0.6-3.4-2.8c-0.1-5.8-0.2-11.7-0.2-17.5c0-2.8,0.2-5.6,0.1-8.4C8.9,71.4,8,53.3,7.5,35.2z
			 M17.9,127.9c-1.4,0.7-3.1,1.2-4.6,1.6c-3.1,0.7-3.5,0.2-3.4-3c0.1-3.4,5.4-6.3,8.5-4.7C20.2,122.8,20,126.7,17.9,127.9z
			 M9.7,135.9c0-0.6,1.3-1.6,2.1-1.8c4.6-1.1,9.3-2.1,14-3c2.2-0.4,2.9,0.7,2.7,2.9c-0.4,4.3-1.7,7.2-6.6,8
			c-3.9,0.6-7.6,2.2-12.3,3.5C9.6,142.5,9.5,139.2,9.7,135.9z M475.4,499.7c0.9-0.5,2.6-0.5,3.4,0.1c2.2,1.6,6.4,0.8,6.8,5.1
			c-2.7,0.2-5.1,0.7-7.4,0.4c-1.2-0.2-2.5-1.6-3.2-2.7C474.6,501.9,474.8,499.9,475.4,499.7z M473.7,495.2c0.2-1,0.4-1.9,0.8-3.5
			c2.2,1.4,3.9,2.6,5.6,3.7c-0.1,0.2-0.2,0.4-0.3,0.6C477.9,495.8,476.1,495.5,473.7,495.2z M484.6,509.2c2.5,0.7,5.2,1.4,5.6,4.8
			c-2.5,0.5-4.5,1.1-6.6,1.3c-0.9,0.1-2.5-0.4-2.7-1c-0.7-1.7-0.8-3.7-1.2-5.6C481.3,508.9,483.1,508.7,484.6,509.2z M484,520.4
			c0.3-1.1,3.7-2.4,5.1-2c6.1,2,12,3.3,18.5,2.1c1.4-0.3,3.7,1.3,4.7,2.6c1.7,2.2-0.7,2.9-2.1,3.8c-1.8,1.1-3.7,2.1-5.7,3.2
			c-1.7-0.9-3.2-1.4-4.5-2.4c-2.6-2.1-5.4-2.4-8.5-1.3C488.1,527.7,483,523.7,484,520.4z M501,518.3c2.5-4.1,4.5-4.7,7.8-2.4
			C506,516.8,503.9,517.4,501,518.3z M490.8,530.3c1.5-0.9,3.5-1.2,5.3-1.2c1.1,0,2.4,0.9,3.3,1.7c3.7,3.1,7.2,2.3,10.8,0
			c4.1-2.7,4.6-2.5,6.7,1.9c1.1,2.3,2.2,4.5,3.4,6.9c-2.1,2.2-4,2.4-6,0.6c-2.9-2.7-6.1-2.8-9.4-0.8c-0.9,0.5-1.8,0.9-2.7,1.4
			c-5,2.3-6.4,1.8-9.1-3.1c-0.6-1-1.3-1.9-1.6-3C491.1,533.2,490.4,530.6,490.8,530.3z M500.2,545c1.7-1.1,3.7-1.5,5.5-2.5
			c2.9-1.5,5.4-1.4,8.2,0.5c1.4,1,3.6,1.9,5.1,1.5c3.7-1.1,4.8,0.8,5.6,3.9c-2,1.2-3.8,2.6-5.7,3.3c-1.3,0.5-3.5,0.6-4.4-0.2
			c-2.7-2.3-5-2.1-8-0.8c-4.6,2-6.3,1.3-7.6-2.8C498.6,547.2,499.4,545.5,500.2,545z M514.1,555.1c1.8,0.9,4.8,0.9,6.6,0
			c4.7-2.3,6.1-2.2,8.4,2.6c0.6,1.2,1.2,2.5,1.7,3.7c-0.2,0.5-0.3,0.9-0.5,1.4c-2.1-0.2-4.1-0.6-6.2-0.7c-2.5-0.2-5.3-0.9-7.6-0.2
			c-8.1,2.5-9.3,2.1-12.8-6.1C507.8,552.6,509.7,552.8,514.1,555.1z M513.8,567c3.4-1.4,6.8-3.4,10.8-0.9c1.3,0.8,3.4,0.8,5.1,0.7
			c4.3-0.3,5.9,0.5,7.1,4.7c0.2,0.7-0.1,2-0.6,2.5c-2.8,2.6-7.4,2.7-11,1.1c-2.1-1-5-1.7-7-1.1c-4.3,1.3-5,1.7-5.7-4.9
			C512.7,568.6,513.1,567.3,513.8,567z M515.1,578.5c2.3-1.4,5-3.3,8.1-1.2c3.6,2.5,7.3,3.3,11.7,1.3c4.7-2.1,7.4-0.1,9.2,5.9
			c-3.6,2-7,3.3-11.2,0.8c-1.8-1.1-4.8-0.7-7.2-0.4c-3.4,0.3-6.9,1.1-10.6,1.8c-0.4-1.7-0.7-2.4-0.7-3.2
			C514.5,581.8,514.2,579.1,515.1,578.5z M532.8,588.8c3.2,1.5,6.2,2.2,9.8,0.9c4.1-1.6,5.2-0.5,7.4,6.3c-3.2,2.1-6.3,2.4-9.8,0.9
			c-2.2-0.9-5-1.1-7.3-0.6c-6.9,1.5-8.1,1.1-12.1-4.9C524,588.1,528.9,587,532.8,588.8z M530.7,605.2c-0.7-1.3-1-4-0.4-4.4
			c1.9-1.1,4.5-2.3,6.3-1.7c4.5,1.6,8.7,3,13.6,1.9c0.7-0.2,2.4,2.9,3.1,4.7c0.1,0.3-1.8,1.7-3,2.3c-0.5,0.3-1.6,0-2.2-0.3
			c-3.7-2.3-7.4-2-11.2-0.3c-0.7,0.3-1.5,0.3-3.1,0.7C533,607.4,531.4,606.6,530.7,605.2z M537.9,616.3c-1.5-0.1-2.9-2.1-4.1-3.6
			c4.7-1.8,9-4.2,13.9-1.5c1.2,0.7,2.8,1.1,4,0.9c3.5-0.7,3.8,1.4,3.9,4.4C549.5,616.4,543.7,616.7,537.9,616.3z M953.8,620.4
			c-0.8,1.5-4.1,1.9-6.3,2.2c-2.1,0.3-4.4-0.2-6.6,0c-18.9,1.9-37.7,0.5-56.6-0.8c-23-1.7-46.1-2.6-69.1-3.7c-7.7-0.3-15.5,0-23.2,0
			c-1.4,0-2.7-0.1-4.1-0.2c-0.3-0.4-0.6-0.8-0.9-1.2c1.9-2.3,3.9-4.6,6.1-7.2c2.6,3.5,5.1,2.5,8,1.7c2.9-0.8,6.3-0.7,9.3-0.3
			c11.2,1.7,22.3,2.1,33.6-0.3c5.6-1.2,11.8,0.2,17.6,1.2c7.1,1.2,14,1.6,21.1-0.2c6.1-1.5,12.4-1.9,18.8-0.4
			c6.6,1.5,13.2,2.4,20.1-0.8c3.3-1.6,7.9-0.8,11.9-0.3c4.6,0.6,8.8,2.5,13.7,0.5c2-0.8,6.5,0.1,7.2,1.5
			C955.4,614.3,955,618.1,953.8,620.4z M734.4,549.9c-2.8,0-5.8,0.2-8.5-0.3c-6.2-1.2-10.8,2-16.3,5c-2.5-2.3-5.4-5-8.3-7.7
			c0.2-0.4,0.3-0.9,0.5-1.3c8,0.4,15.1-5.2,23.7-2.9c3.5,0.9,8-0.7,11.8-1.9c5.4-1.7,10.4,0.2,15.8,0.7c-3.3,5.9-8.7,8.7-14.6,8
			C737.2,549.4,735.8,549.9,734.4,549.9z M738,553.7c-3.4,8.1-18.3,10.1-24.8,2.9c4.6-2.3,8.7-5,14.5-2.6
			C730.7,555.1,734.6,553.9,738,553.7z M743.8,536.6c-2.9-0.7-6.5,0.7-9.6,1.6c-4.2,1.2-8.3,1.7-12.7,0.6c-2.5-0.6-5.4,0.4-8.1,0.8
			c-4.3,0.7-8.6,1.6-12.9,2.3c-3.5,0.6-5-1.5-5.9-4.9c6-1,11.1-4.6,17.7-1.4c2.8,1.3,7-0.2,10.6-0.8c3.4-0.5,6.7-1.6,10.1-2.1
			c5.4-0.7,10.8-1.2,16.3-1.7c1.7-0.1,3.4,0.3,5.1,0.4c5.1,0.3,10.3,0.6,15.4,1c1.5,0.1,3,0.5,5.3,1c-1.2,1-1.4,1.3-1.6,1.3
			C763.6,534.7,754,539.1,743.8,536.6z M674.1,491.8c2.8,1.8,5.3,1.6,8.2,0.4c4.8-2,11.7,0,14.1,4c-2.7,1.4-5.1,2.9-7.7,3.8
			c-1.2,0.4-2.8-0.2-4.2-0.4c-2.2-0.2-4.5-1.1-6.5-0.6c-7.8,1.9-7.9,2-12.2-5.6C668.2,490.7,671,489.7,674.1,491.8z M670.9,485.9
			c4.9-4.6,12.7-4.4,16,0.7C681.3,488,675.9,492,670.9,485.9z M685,503.3c1.5,0.9,4.4,0.8,6-0.1c5.7-3.3,11.8-1.8,15.1,4.2
			c-2.7,1.1-5.2,2.4-7.8,3.2c-1.8,0.5-3.8,0.3-5.7,0.2c-2.2-0.1-4.5-0.9-6.5-0.4c-7.6,1.9-8.2,1.7-11.6-6.2
			C677.9,502.5,681,500.9,685,503.3z M693.9,515c1.6,0.9,4.9-0.7,7.2-1.7c5-2.2,11.9,0.7,13.4,5.4c-4.1,1.5-8.1,3.1-12.2,4.3
			c-1.3,0.4-2.9-0.3-4.3-0.5c-2.5-0.3-5.5-1.5-7.5-0.5c-3.8,1.8-5.6,0.4-7.2-2.6c-0.5-1-1.1-1.9-1.9-3.4
			C685.9,514.3,689.4,512.4,693.9,515z M699.5,526.2c1.8,1,5.1-1,7.8-1.6c1.9-0.4,3.8-1,5.7-0.9c2.8,0.1,5.6,0.6,8.2,1.3
			c1.7,0.5,3.2,1.8,4.8,2.7c-2.8,3.9-8.6,6.3-12.7,4.5c-5.3-2.4-10-1.4-15.1,0.1c-6.2,1.9-8,0.8-10-5.8
			C691.9,524.9,695.2,523.9,699.5,526.2z M762.3,526.9c1.9-0.5,3.8-1.4,5.7-1.4c1.1,0,2.2,1.3,3.3,2c-0.2,0.3-0.3,0.6-0.5,0.9
			c-2.7-0.2-5.4-0.3-8.2-0.5C762.6,527.5,762.4,527.2,762.3,526.9z M776.4,538.4c5.6,2,10.8,4.7,17.1,7.5
			c-9.7,3.6-17.9-2.4-26.7-0.6C767.9,539.4,771.6,536.6,776.4,538.4z M766,551.1c0.2-0.7,1.3-1.7,2.1-1.7c2.7-0.2,5.5-0.2,8.3-0.1
			c5.3,0.3,10.5,0.6,15.8,1c2.4,0.2,4.9,0.7,7.3,1.4c2.6,0.7,5.1,2.7,7.3-0.8c0.4-0.6,2.1-0.4,3.2-0.4c7.1,0.2,14.2,0.5,21.3,0.8
			c3.2,0.1,6.3,0.8,9.5,0.7c12.5-0.1,25.1-0.5,37.6-0.6c6-0.1,12,0.2,18,0.3c0,0.7,0,1.3,0,2c-1.3,0-2.6,0-3.9,0
			c-2.8,0-5.6,0.1-8.3-0.2c-9.6-0.9-19,1.6-28.3,1.5c-10-0.1-19.8-0.4-29.7,1.6c-3.2,0.7-6.9-1.2-10.4-1.6c-3.5-0.3-7.3-1.1-10.4,0
			c-6.1,2.2-12.1,1.9-18.4,1.3c-5-0.4-10-0.1-15,0.4C768.6,557.2,765.2,554.3,766,551.1z M777.2,559.3c2.1,0,4.2-0.3,6.2,0.1
			c8.1,1.4,16,2.2,24-0.8c2.3-0.8,5.3-0.4,7.8,0.3c6.7,1.8,13.2,1.6,19.9,0.1c3.8-0.8,7.8-1.3,11.6-0.7c6.4,0.9,12.5,0.2,18.9-0.4
			c8.7-0.8,17.4-0.2,26.2-0.4c3.1-0.1,6.2-0.9,9.3-1c1.3-0.1,3.1,0.3,3.9,1.2c1.3,1.5,2,3.6,3,5.5c-5.8,1-11.1,2.2-16.5,2.8
			c-2.7,0.3-5.6-0.1-8.2-0.9c-4.7-1.4-9.2-0.5-13.9,0.3c-5.2,0.9-10.5,1.1-15.7,1.3c-6,0.3-12.1,0.3-18.1,0.4
			c-5.6,0.2-11.6,1.6-16.9,0.3c-8.1-2.1-15.8-0.8-23.7,0c-2.7,0.3-5.7-0.3-8.3-1.3c-3.5-1.3-6.6-3.5-9.9-5.3
			C777,560.4,777.1,559.8,777.2,559.3z M813,570c8.8,2.2,17.5,2.2,26.4,0.2c4-0.9,8.4-0.7,12.5-0.2c7.1,0.9,14.1,1,21-1.5
			c2.3-0.8,5.3-0.7,7.8-0.1c6.6,1.7,13,1.4,19.5-0.5c6.9-2.1,12.2,0.5,14.4,6.6c-5.8,1.2-11.8,4.1-17.4,3.3
			c-8.7-1.3-16.5,0.7-24.7,2.1c-3.1,0.5-6.7-0.1-9.7-1.1c-6.5-2.1-12.8-1.5-19.1,0c-3,0.7-5.9,1.8-8.8,2.2c-2.1,0.3-4.7,0.5-6.3-0.5
			c-5.1-3.3-10.4-3-15.8-1.8c-3.3,0.7-5.8,0.3-8.1-2.3c-1.5-1.7-3.7-2.9-6.1-4.7C803.8,569.6,808.3,568.8,813,570z M921.3,585.7
			c1.2,2.1,2.4,4.2,3.6,6.3c-3.8-3.2-8.1-1.1-11.7,0c-4.2,1.3-8,1.4-11.8,0c-5.9-2.1-11.5-1.5-17,0.9c-5.6,2.5-11.1,2.3-16.7,0.5
			c-5.9-1.8-11.7-1.8-17.6,0.1c-3.7,1.2-7.6,2.3-11.5,2.7c-2.9,0.3-6.2,0.2-8.9-0.8c-4.9-1.9-9.6-2-14.5-0.5c-2.1,0.7-4.4,1-7.4,1.7
			c0.7-4.7,1.2-8.8,1.9-12.8c0.1-0.6,1-1.3,1.6-1.4c5.1-0.7,10.2-2.4,15.2,0.6c4.3,2.5,8.9,1.8,13.3,0.5c8.1-2.3,16.1-3.8,24.5-0.8
			c4.6,1.6,9.6,1.6,14.5-0.5c4.3-1.8,8.9-2.3,13.7-1.2c3.1,0.7,6.8,0.1,9.9-0.9C908.5,578.3,917,578.3,921.3,585.7z M808.1,599.8
			c9.1-1.8,17.7-1.8,26.9,0.1c5.3,1.1,11.4-1.3,17-2.9c4.9-1.4,9.5-1.6,14.2-0.1c7.1,2.2,13.8,1.8,20.8-0.8
			c3.8-1.4,8.5-1.3,12.6-0.6c5.2,0.9,10.1,2.1,15.3-0.1c1.9-0.8,4.3-0.9,6.4-0.7c2.2,0.2,3.3-0.5,3.8-2.5c0.5,0.4,1.2,0.6,1.4,1.1
			c2.7,4.9,6.8,8.1,11.5,10.8c1,0.6,1.9,1.6,2.8,2.4c-0.1,0.4-0.2,0.7-0.4,1.1c-2-0.4-4-0.5-5.8-1.3c-4.8-1.9-9.7-1.6-14.1,0.3
			c-5.9,2.7-11.6,2.4-17.5,1c-7.5-1.9-14.9-1.6-22.2,0.4c-7,1.9-13.9,1.3-20.7-0.4c-6.3-1.6-12.8-2.3-18.8-0.6
			c-10.8,3.1-21.4,1.5-32.1,0.2c-3.1-0.4-6.2-0.1-9.6-0.5C802.1,604,803.1,600.7,808.1,599.8z M972.2,37.8
			c-1.3,15.6-1.2,31.2-0.5,46.8c0.3,8-0.2,16-0.4,24c-0.4,16.9-0.7,33.7-1.2,50.6c-0.5,19.2-1.4,38.3-1.7,57.5
			c-0.1,11.4,0.8,22.8,1,34.2c0.4,23.3-2.8,46.3-5.3,69.4c-1.5,14.2-1.5,28.6-2.2,42.9c-0.1,1.4-0.2,2.9-0.3,5
			c-2.5-3-4.3-5.5-6.5-7.8c-4.1-4.3-7.7-5.4-12.5-2.2c-15.7,10.7-33.8,10.5-51.5,12.5c-2.3,0.3-4.8-0.3-7.2-0.6
			c-8.5-1.3-13.5,0.9-17.7,8.5c-2.8,5-5.4,10.3-11.2,12.4c-5.3,2-10.8,3.5-16.3,5c-2.9,0.8-6,1.1-8.9,2.1c-5.3,1.8-8.9,7.5-8.1,13.2
			c1.3,9.1,0.5,18-1,26.9c-0.6,3.6-0.7,7.3-0.9,11c-0.2,5.2,2.5,8.9,6.3,12c1.5,1.2,3.1,2.2,4.9,2.9c8.6,3.2,8.6,7.5,7.7,14.3
			c-1.1,8.8,2.4,13.6,11.1,16c9,2.5,17.9,1.3,26.8,0c2.7-0.4,5.4-1.5,8.1-2.2c5.9-1.6,9.5-5.7,12.6-10.9c1.4-2.3,3.8-4.2,6.2-5.6
			c6.3-3.5,12.8-6.6,19.2-9.8c10.7-5.3,16.4-14.7,20.8-25.2c0.5-1.3,0.5-2.7,1-4c1-3.1,1.6-6.5,3.4-9c4.3-6.2,7-12.8,7.5-20.4
			c0.6-7.7,2.2-15.2,6.3-22.2c0.2,1.3,0.5,2.6,0.5,3.9c-0.1,17.9-0.3,35.8-0.5,53.7c-0.2,17.4-0.2,34.8-0.9,52.1
			c-0.5,11.4-2.1,22.7-3,34.1c-1.3,16.4-2.6,32.9-3.4,49.3c-0.3,6.5,1.2,13.1,1.2,19.7c0,6.7-1,7.2-7.5,4.8
			c-6-2.2-9.8-7.1-13.8-11.6c-8.5-9.4-15.1-20-19.6-31.9c-3.7-9.7-11.5-14.3-21.6-14.5c-8.6-0.2-17.3,0.5-25.9,0.6
			c-4.1,0.1-8.1-0.3-12.2-0.4c-11.9-0.3-23.9-0.1-35.8-1.1c-8-0.7-15.8-3.3-23.7-5c-2.2-0.5-4.7-0.3-6.5-1.4c-2.5-1.5-4.5-3.9-6.4-6
			c-1.1-1.2-1.7-2.8-2.7-4.1c-6.6-9.3-6.9-9.2-17.9-6.8c-7.2,1.5-14.5,2.2-21.8,2.9c-6,0.5-10.7-2.8-15-6.5
			c-10.5-9-18.3-20.3-26.3-31.4c-6.8-9.5-16.5-12.2-26.6-6.6c-4,2.2-7.6,5.3-11.1,8.3c-2.4,2.1-2.4,5-0.7,7.6
			c2.5,3.9,5.3,7.7,7.8,11.7c6.2,10.2,12,20.6,18.4,30.6c6.2,9.6,13.5,18.4,22.5,25.7c10.1,8.1,19.7,7.5,29.6-1
			c5.8-4.9,12-9.3,18.1-13.9c0.6-0.4,1.3-0.6,2.5-1.1c0.5,1.8,1.1,3.3,1.3,4.8c0.9,7.6,5.8,11.1,12.4,13.9c8.1,3.5,16,7.7,23.6,12.1
			c2.5,1.5,4.4,4.5,5.8,7.3c0.8,1.7,0.8,4.6-0.2,6.2c-3.6,5.6-6.9,11.7-13.5,14.6c-3.9,1.7-6.3,4.7-7.3,8.7
			c-0.7,3.2-2.5,3.7-5.5,3.6c-31-0.8-61.9-1.8-92.9-2c-38-0.2-75.9,0.4-113.9,0.6c-6.7,0-6.6,0.1-8.5-6.4
			c-5.3-17.5-13.6-33.5-23.8-48.7c-3.8-5.7-6.2-12.2-9.3-18.3c-4.5-9.2-8.9-18.5-13.6-27.7c-3.6-6.9-8.2-8.6-15.5-5.8
			c-2.8,1.1-3.6,0.1-4.8-2.3c-2.9-5.6-5.8-11.3-9.8-16.1c-2.1-2.4-6.4-3.5-9.8-4c-3.2-0.5-6.9,6-5.9,10.4c0.7,3.2,1.9,6.3,3.4,9.2
			c2.8,5.7,5.9,11.2,8.9,16.8c4.7,8.7,9.3,17.4,13.9,26.1c3.5,6.7,7.1,13.5,10.4,20.3c1,2,1.4,4.4,1.4,6.6
			c0.3,7.5,3.4,13.6,9.6,17.7c4.2,2.8,6.5,6.6,7.8,11.3c0.9,3.1,1.8,6.3,2.9,10.2c-9.2-0.4-17.8-0.7-26.4-1.2
			c-15.8-0.9-31.7-1.8-47.5-2.9c-14-1-28-2.5-42.1-3.5c-9.4-0.6-18.8-0.7-28.2-0.9c-13.7-0.4-27.5-0.1-41.1-1.1
			c-21.5-1.6-42.8-1.3-64.2,0.9c-15.9,1.6-32,1.6-47.9,3.1c-20.8,2-41.6,0.4-62.4,1.4c-19.5,0.9-39.1,1.1-58.6,1.7
			c-13.8,0.4-27.7,0.7-41.5,1.6c-11.9,0.7-23.7,2.2-35.6,3.3c-3.7,0.3-7.4,0.5-11,0.6c-2.7,0.1-4.2-1.3-5.4-3.8
			c-2.5-4.9-2.7-10.1-3-15.4c-1.2-24.5,1.1-48.8,2.8-73.2c0.7-10.6-0.5-21.4-1.1-32.2c-1-18.3-2.4-36.7-3.3-55
			c-0.4-8.2,0.2-16.5,0.2-24.7c0-3.9,1.8-5.6,5.5-5.6c9.3,0,18.5,0.1,27.8-0.1c13.2-0.3,26.1-3.3,38.2-8c15-5.7,30.2-9.5,46-11.5
			c10.4-1.4,20.9-2.2,31.3-4.1c6.2-1.1,12.1-3.7,18.1-5.8c5.7-2.1,11.4-3.1,17.5-2.2c3.9,0.6,6.4,2.5,6.9,6.4
			c0.8,5.9,1.3,11.8,2.1,17.7c1,7.9,2.1,15.8,3.2,23.7c0.3,1.7,1,3.4,1.2,5.2c0.8,5.3,3.8,8.4,9.1,9.4c5,0.9,10,2,15,2.6
			c10.7,1.3,19.9,5.6,28.1,12.5c7.1,6,14.2,12.2,22.1,17.2c6.8,4.3,14.9,5.8,23,5.6c4.7-0.1,9.4,0.2,14.1-2.1c4.1-2,5.8-4.6,6-8.8
			c0.5-10.8,6.2-18.7,16.5-21.2c3.2-0.8,7.2-0.1,10.4,1.1c6.5,2.4,12.7,5.6,19.1,8.5c2.8,1.3,5.4,3,8.3,3.7
			c12.4,2.8,23.6,9.5,36.7,9.8c11.4,0.3,22.5-0.4,33.1-5.1c4.6-2,9.4-1.9,14.2-0.4c5.2,1.7,10.3,3.5,15.5,5.3c1,0.3,1.9,0.7,2.9,0.7
			c4.7,0,9.5,1.3,11.9-5.3c2.3-6.6,6.9-12.5,9.1-19.1c4.7-13.8,10.3-27.3,12.2-41.9c0.8-6.3,2-12.5,2.8-18.7c0.3-2.4-1.3-4-3.8-3.3
			c-9,2.5-18.1,5-26.9,8c-5.9,2-11,0.5-16.2-1.7c-2.4-1-4.5-2.8-6.8-4.2c-5.7-3.5-10.2-3.1-15,1.7c-2.5,2.4-4.9,2.8-8.3,2.2
			c-10.3-1.9-18.6-7.4-26.4-13.6c-1.8-1.4-2.8-4.6-2.9-7c-0.3-7.2-2.6-13.1-8.2-17.7c-3.6-3-6.4-6.7-6.5-11.6
			c-0.1-3.3,0.7-6.6,0.3-9.8c-0.3-2.5-1.2-5.6-2.9-7.3c-7.7-7.9-19.9-6.2-26.8,0.2c-2.9,2.7-6,5.5-8.2,8.8
			c-3.3,4.9-2.2,11.2,1.9,15.5c2.1,2.2,4.3,4.4,6.2,6.7c3.8,4.7,2.1,9.3-3.7,10c-4.5,0.5-6.6,3-7.8,7.1c-2.2,7.3-7.4,10.8-13.1,8.7
			c-1.7-0.6-3-2.6-4.3-4.2c-0.5-0.6-0.6-1.7-0.6-2.6c0.1-10.5-6.9-16.8-13.2-23.8c-2.9-3.2-5.8-6.9-7.1-10.9
			c-2.5-8.1-4.6-16.4-5.6-24.8c-0.9-6.9-4.1-11.8-9.1-16c-9.5-8.1-20.1-14.6-31.5-19.9c-9-4.1-13.9-11.1-15.7-20.6
			c-1.5-8.1-5.5-14.6-11.8-19.9c-2.5-2.1-5.5-3.4-8.4-1.4c-6.7,4.8-14,9.4-13.8,19.1c0.1,3.4,0.8,7.1,2.3,10.2
			c4.3,9.5,11.3,16.8,19.9,22.6c8.6,5.8,17.4,11.4,25.7,17.6c6.6,4.9,12.7,10.5,18.7,16.1c2.3,2.1,4.1,4.9,5.8,7.7
			c0.4,0.7-0.4,3-1.1,3.2c-1.2,0.3-3.1,0-3.8-0.9c-2.3-2.8-4.9-3.9-8.4-3c-5.3,1.3-7.1,5.3-4.5,10.1c0.1,0.2,0.3,0.4,0.4,0.7
			c4.8,8.2,3,12-6,16.1c-3.5,1.6-4.5,0.9-4.1-3c0.6-5.3-0.5-10.2-1.5-15.3c-1.6-8.7-8.3-12.4-15-16c-9.8-5.1-19.9-9.7-29.6-14.8
			c-6.6-3.5-11.4-8.5-12.1-16.6c-0.2-2.7-2.3-5.2-3.4-7.9c-0.7-1.6-1.1-3.4-1.6-5.1c-2.1-7.6-8.2-13.1-16.2-13.8
			c-6.2-0.6-12.7-2.7-17,1.6c-2.7-2-5.4-3.1-6.7-5c-1.6-2.5-2.7-5.8-2.8-8.8c-0.3-7.5,0-15,0.3-22.4c0.2-4.9-1.2-7.3-5.8-8.8
			c-2.7-0.9-3.6-2.8-2.3-5c3.2-5.5,6.9-10.8,10.3-16.3c3.1-5,6.2-10.1,9.1-15.2c2.7-4.7-1-9.5-5-10.9c-6.7-2.4-13.3-5.2-20.1-7.1
			c-9.6-2.7-17.7-7-23.2-15.8c-2.7-4.3-6.7-7.8-10.4-11.4c-1.8-1.9-2.3-3.2-0.2-5.3c8.1-7.9,14.9-16.9,20.6-26.7
			c3.3-5.7,8.1-10.3,14.9-12.3c5.3-1.6,10.7-3.3,15.7-5.7c8.4-3.9,13.1-10.7,12.1-21.2c-0.6-6-2.8-11.9-3.6-17.9
			c-0.5-3.5,0.3-7.3,0.4-10.9c0-3.4-0.1-6.8-0.2-10.1c-0.1-3.8-0.5-7.5-0.2-11.3c0.1-1,1.9-2.6,3.1-2.7c25.4-3,50.9-3.2,76.4-2.8
			c3.2,0,4.5,1.4,4.2,4.3c-0.5,4.7-1.1,9.3-6.7,11.1c-6,1.9-7.2,7.4-8.4,12.6c-0.9,3.9-1.8,3.7-5.7,2.6c-7.9-2.3-11.7-9.9-18.9-13.1
			c-4.7-2.1-9.2-2.8-14-1.7c-7.8,1.8-10.6,9.8-5.8,16.2c0.7,0.9,1.3,1.9,2.1,2.7c1.7,1.8,1.3,3.4-0.4,4.9c-1.5,1.3-3.2,2.5-4.6,3.9
			c-2.4,2.5-3.2,7.4-1.6,10.2c1.9,3.5,5,4.2,8.8,3.6c2.8-0.4,5.8-0.1,9.3-0.1c-0.6,1.4-0.9,2.1-1.2,2.8c-1.5,3.3-1.8,6.7,0.8,9.6
			c1.9,2.1,7.6,3.1,10.3,1.4c3.4-2.2,6.4-4.9,9.4-7.6c3.6-3.3,5-3.6,7.9,0.5c7.6,10.7,19.1,8.7,27.4,2.7c1.5-1.1,3-2.4,4.3-3.7
			c4.2-4.2,9.2-4.9,14.8-4.3c7.8,0.9,15.6,2,23.5,2.2c15.2,0.3,30.4-12.1,31.6-29.4c0.5-7.4-1.9-14-3.4-20.9
			c-1.7-7.9-1.8-7.7,6.1-7.6c13.5,0.1,26.9-0.1,40.4,0.1c15.9,0.3,31.7,1,47.6,1.3c13.6,0.2,27.2-0.3,40.7,0.3
			c22.2,0.9,44.3,2.4,66.2,6.7c6.5,1.3,13.4,1.5,20.1,1.4c24-0.4,48-1.2,71.9-1.7c12.4-0.3,24.9,0.1,37.3-0.5
			c16.4-0.7,32.7-2.4,49-3c17-0.6,34-0.3,51-0.7c12.2-0.3,24.4-1.2,36.5-1.4c26.5-0.2,53-0.3,79.6-0.1c23.6,0.1,46.6,5.1,69.9,8
			c2.4,0.3,4.8,0.7,7.2,0.9C969.9,22.1,973,28.5,972.2,37.8z M950.5,404.5c0.2,6.8-2.6,12.2-6,17.7c-2.4,3.8-4.3,8-6.2,12.1
			c-1.8,3.7-2.5,13.6-7.6,16.4c-7.4,4.1-15.6,15.5-27.2,17.1c-0.4-1.2-10.6,9.5-14.4,14.2c-1.6,2-3.8,3.7-6.1,4.8
			c-10.3,5-21.2,4.6-32,2.3c-6.1-1.3-7.7-3.9-7.2-10.1c0.9-11.8-1.2-15.2-12.1-19.7c-6.2-2.6-7.7-4.8-6.8-11.3c0.8-6,2.3-11.9,3-18
			c0.4-3.3-0.1-6.7-0.3-10c0-0.2-0.1-0.5-0.2-0.7c-2.4-9.6,0.7-13.6,10.8-14.7c6.8-0.7,12.8-2.4,18.1-6.7c1.6-1.3,3.3-2.3,5-3.4
			c4.3-2.7,7.7-5.9,9.1-11.1c1.7-6.1,3.9-7.3,10.3-7.1c11.4,0.2,17.9,0.6,29.3,0.6c6.2,0,14.5-3.2,20.7-3.8c3.8-0.4,13.2-7.4,14.8-9
			c2-1.9,4.3-1.7,5.8,0.8c3.5,6,5.8,12.7,2.3,19.1C950,390.5,950.3,397.5,950.5,404.5z"/>
		<path d="M483.3,237.3c5.1,2.4,8,6.1,10.1,10.9c1.7,3.9,2.8,3.7,6.2,1.2c5.7-4,11.8-6.4,19.1-6.5c9.5-0.1,17.9,3.1,26.3,6.6
			c6.3,2.7,9.5,8.6,13,13.9c2.7,4.1,5.3,7.5,10.6,9c8.3,2.3,13.9,8.3,18.4,15.6c6.8,11.1-1.7,26.5-14.1,28.3
			c-16.9,2.5-33.6,2-50-3.4c-10.9-3.6-22.1-6.6-33.3-9.4c-2.5-0.6-5.8,0.4-8.3,1.5c-7.4,3.3-14.5,7.4-21.9,10.6
			c-9.5,4.1-19.4,4.6-28.9,0.5c-8.5-3.6-16.8-8-20-17.8c-1.9-5.8-0.9-11.5,2-16.5c3.6-6.2,6-12.2,4.6-19.8c-0.6-3,1.1-7.2,3.2-9.7
			c3.1-3.8,7.2-6.9,11.3-9.8c3.3-2.4,5.3-5.7,4.7-10c-1-7.3,4.1-13.5,10.9-15.5c9.4-2.7,17.4,1.7,25.9,3.5c3.3,0.7,6.5,2.2,9.7,3.3
			c4.5,1.4,5.8,4.2,3.6,8.5C485.6,233.8,484.6,235.3,483.3,237.3z M580.5,292.7c-3.3-0.7-6.3-1.4-9.3-1.8c-2.7-0.4-5.7-1.3-8.2-0.6
			c-6.2,1.6-12,0.3-18-1.1c-3.5-0.8-7.3-1.2-10.8-0.7c-8.5,1.1-16.8,1.4-25.2-1.4c-2.9-0.9-6.3-0.6-9.4-0.3
			c-9.1,1.1-18.3,2.3-27.1-1.2c-4.8-1.9-9.1-1.7-14-0.6c-6.2,1.5-13.1,3.5-19,2.2c-7.7-1.7-14.2-0.2-21,2.2c-2.2,0.8-4,1.7-3.3,4.6
			c0.8,3.1,3.2,2.1,4.9,1.6c4.4-1.4,8.8-1.6,13,0.5c6.1,3,12.3,2.5,18.2,0.2c7.2-2.8,14-3.2,21.5-1.3c7.8,1.9,15.9,2.5,23.9,4
			c9.2,1.7,18.3,2.2,27.5-0.1c5.3-1.4,10.4-1.2,15.7,0.6c3.5,1.2,7.8,2,11.1,1c9.7-2.8,19-1.5,28.4,1c2.4,0.6,3.3-0.5,2.9-2.5
			C582,296.6,581.1,294.5,580.5,292.7z M576.9,286.4c-4.2-5.3-10-8.2-15.8-11c-1.3-0.6-3.5,0.6-5.4,0.8c-0.6,0.1-1.3,0.1-1.9-0.1
			c-3.2-0.7-6.4-1.5-9.6-2.1c-3.1-0.5-6.3-1.4-9.2-0.9c-5.4,0.9-10.4,1-15.7-0.5c-2.7-0.8-6-0.8-8.8-0.2c-5.3,1.2-10.4,2.3-15.6,0
			c-4.2-1.9-8.6-2.2-13-0.4c-6.2,2.5-12.3,1.7-18.6-0.1c-3.3-1-7.1-1.1-10.4-0.5c-5.2,1-10,1.5-15.3,0.3c-10.1-2.4-16,1.9-18.3,13.1
			c2.6-0.8,5-1.7,7.4-2.1c2.2-0.4,4.7-1.1,6.7-0.5c9.2,2.8,18,1.2,26.8-1.8c3.7-1.2,7.3-1.1,11.1,0.5c3.2,1.3,6.8,2.4,10.2,2.5
			c6.4,0.1,12.9-0.8,19.3-0.9c3.5-0.1,7.1,0.1,10.5,0.9c6.1,1.5,12.1,2.4,18.4,1.3c5.3-1,10.9-2.3,16.1,0.2
			c9.8,4.6,20.2-0.5,30.1,2.3C576.1,287.1,576.2,287,576.9,286.4z M554.8,272.2c0.2-0.4,0.4-0.9,0.7-1.3c-0.8-1.8-1.8-3.6-2.5-5.4
			c-1.7-4.4-4.9-6.4-9.5-6c-3.5,0.3-7.1,0.6-10.6,1.3c-5.6,1.1-10.7,0.9-15.5-2.8c-1.3-1-3.7-0.8-5.6-0.8c-2.4,0-5.1,1.2-7,0.4
			c-3.6-1.6-6.6-0.4-9.8,0.5c-0.6,0.2-1.3,0.6-1.8,0.4c-3.8-1.9-7.4-0.7-11.1,0c-1.5,0.3-3.5,0.2-4.8-0.5c-3.9-2.2-7.5-1.2-11.3,0.1
			c-5.5,2-11.4,3.8-17.1,1.7c-6.4-2.4-12.6-4.6-19.3-1.4c-0.1,0.1-0.3,0.1-0.4,0c-2-0.2-4.3-0.9-4.8,2.1c-0.3,2-0.6,4-0.3,6
			c0.1,0.7,2,1.5,3.1,1.5c3.6,0.2,7.2,0.1,10.8,0.1c4.1,0,8.3,0.4,12.3-0.3c4.6-0.9,9.1-1.5,13.4,0.4c5.6,2.5,11,2.2,16.6,0.3
			c5.2-1.8,10.2-1.4,15.6,0.2c4,1.2,8.8,0.8,13-0.1c3.6-0.8,6.8-1,10.4-0.1c3.9,0.9,8.4,2.3,11.9,1.2c5.6-1.7,10.4-0.9,15.5,0.9
			C549.4,271.5,552.1,271.7,554.8,272.2z M489.2,251.2c-1.7-1.3-3.4-2.7-5.2-4c-3.8-2.9-7.7-1-11.5,0c-4.6,1.2-9.1,1.2-13.7-0.8
			c-2.5-1.1-5.5-1.5-8.3-1.6c-2.9-0.1-5.8,0.7-8.7,0.9c-4.7,0.2-6.4,4-9.5,6.6c3.8,0.4,7.5-0.1,10.1,1.3c7.8,4.2,15.1,3.6,23.1,0.7
			c3.1-1.2,7.1-1.4,10.3-0.5C480.4,255,484.4,254.6,489.2,251.2z M420.2,300.2c9.3,12.5,37.2,11.7,48.2-1.1
			c-4.1-2.3-6.1-2.5-11.1-0.5c-8.7,3.3-17.2,4.8-26.2,0.7C427.5,297.6,423.8,298.5,420.2,300.2z M442.3,241.7
			c0.8,0.1,1.2,0.2,1.5,0.1c6.2-1.3,12.1-1.6,18,1.7c3.7,2.1,8.1,0.8,11.7-1.2c1.2-0.7,1.4-3.3,2.1-5c0.1-0.2,0.3-0.4,0.4-0.6
			c1.3-2.9,0.8-3.9-2.4-3.9c-1.3,0-2.7,0.7-4,0.8c-3.7,0.3-8.1,1.9-11,0.4c-5.6-2.9-10.8-1-16.3-1.2
			C442.3,235.9,442.3,238.6,442.3,241.7z M580.3,306.3c-0.1-0.5-0.2-1-0.4-1.5c-4.2-0.6-8.4-1.4-12.7-1.7c-3.5-0.3-7.2-0.8-10.6,0.1
			c-7,1.8-13.6,2-20.5-0.7c-4.1-1.6-8.5-0.7-12.5,1.2c5.1,1.5,10.1,2.7,15.2,3.6c11.3,1.9,22.7,2.7,34.1,1.1
			C575.5,308.2,577.8,307.1,580.3,306.3z M445.1,228.8c0.9,0.1,1.6,0.4,2.1,0.3c4-1.1,7.6-0.1,11.4,1.5c4.4,2,8.5,0.5,12.4-2.2
			C461.7,220.4,448,219.7,445.1,228.8z M505.9,252.8c1.2,0.8,1.4,1,1.6,1.1c0.4,0,0.8,0,1.1-0.1c4.6-1.4,8.5-0.5,12.8,2.2
			c5.5,3.4,11.3,0.4,16.9-1.3c-1.2-0.9-2.5-1.4-3.8-1.7c-4.4-1.2-8.9-1.9-13.2-3.5C515.5,247.3,511.5,251.1,505.9,252.8z"/>
		<path d="M725.2,386.2c-7.6-2-16.8-3.3-23.1-11c-2.5-3-5.3-4.6-9.3-5.1c-13.2-1.4-22.6-12.9-20.2-24.5c1-4.9,2.8-9.7,4.4-14.5
			c1.8-5.5,3.7-11,1.2-16.7c-1.5-3.4-3.9-6.5-6-9.6c-3.6-5.3-7.3-10.6-10.8-16c-0.8-1.2-1-2.9-0.9-4.4c0.3-7.9-1.7-15.1-6.4-21.4
			c-3.8-5.2-4.1-11-3.5-17c0.1-0.9,0.6-2,1.3-2.7c2.1-2.2,4.1-4.9,6.7-6.1c12.6-5.7,23-14.8,34.9-21.4c5.7-3.2,12-5.4,18.3-7.1
			c6.4-1.7,13.2,2.4,15.8,8.7c3.5,8.3,3.1,9.8-4.5,15c-3.6,2.5-7.7,4.4-11.3,6.8c-13.9,9.4-14.9,25-1.8,36c3.1,2.6,7.1,4,10.3,6.4
			c2.7,2.1,4.9,5,7.3,7.5c0.9,0.9,1.7,2.4,2.8,2.7c8.1,2,11.1,8.7,14.3,15.1c2.2,4.4,3.7,9.1,0.6,14.1c-2.6,4.1-5,5.3-9.8,4.2
			c-6.2-1.5-8,0.1-5.8,6.2c3.2,8.8,7.4,17.2,10.5,26.1c1.7,4.9,2.6,10.4,2.6,15.6C742.7,380,734.7,386.1,725.2,386.2z M680.5,357.9
			c2.5,3.6,4.8,6.1,8.8,6.5c3,0.3,6,1,9,1.3c3.4,0.3,6.9,0.3,10.4,0.2c4-0.1,8.2-1.2,12-0.4c5.8,1.3,10.2-1.4,15.6-3
			c-2.4-4.4-2.6-10.1-9.5-9.4c-0.9,0.1-2-0.7-2.9-0.7c-2.8,0.1-6-0.3-8.5,0.7c-6.6,2.8-13.4,3-20.2,2
			C690.1,354.3,685.9,356.2,680.5,357.9z M727.9,349.3c0.3-0.6,0.6-1.2,0.9-1.8c-1.7-2.5-2.9-6.3-5.3-7.3c-3.9-1.5-8.2-3.1-12.9-1.2
			c-3.8,1.5-7.9,2.1-11.8-0.1c-4.4-2.4-8.5-1.6-12.6,0.7c-1.9,1-3.8,1.9-5.8,2.6c-2.5,0.9-3.7,4.6-2.7,8.4c0.8,3.4,3,2.9,5.3,2.1
			c5-1.9,10-2.3,15.3-1.5c3,0.4,6.2,0.6,9.1-0.1C713.9,349.5,720.3,345.3,727.9,349.3z M684.9,320c4.6,0,8.8,0,13,0
			c5.2,0,10.3,0.1,15.5,0c8-0.1,16-0.6,24-0.5c2.8,0,4.4-1.1,4.6-3.3c0.2-2-0.4-4.4-1.5-5.9c-0.6-0.8-3.3-0.4-4.9-0.1
			c-5.4,1.1-10.7,2.5-16.3,0.5c-4.4-1.6-8.9-1.9-13.7-0.2c-2.4,0.9-5.8,0.3-8.4-0.6c-4-1.3-7.5-0.3-11.1,0.9
			c-0.7,0.2-1.5,1.2-1.5,1.9C684.6,315.4,684.8,318,684.9,320z M664.6,251c-2.2,0.9-4.6,2-7,3c0.9,2,1.7,4,2.6,5.9
			c0.2,0.3,0.4,0.6,0.6,1c2.9,5.2,4.6,6,10.3,4c4.9-1.7,9.3-1.7,14.4,0.1c2.6,1,6.4-0.3,9.3-1.5c0.9-0.4,0.5-3.8,0.6-5.9
			c0-0.6-0.1-1.3-0.2-1.9c-0.5-4.1-3.6-6.2-7.5-4.9c-2,0.7-4.1,1.5-6,2.5c-3.3,1.7-6.4,1.9-9.8,0.1
			C669.8,252.3,667.3,251.9,664.6,251z M706,235.6c-1.6,0.2-3.2,0.6-4.9,0.6c-2.6,0-5.8,0.5-7.6-0.7c-3.8-2.6-6.7-1.9-10.1,0.2
			c-0.9,0.6-2.1,1.1-3.1,1c-7.9-0.8-14,3.7-20.4,7.1c-1.2,0.7-1.8,2.4-2.7,3.7c0.2,0.3,0.5,0.6,0.7,0.8c4.5-2,9-1.9,13.2,0.5
			c3.8,2.2,7,1.7,10.6-0.6c3.6-2.3,7.5-3.5,11.9-1.1c0.8,0.4,2.8-0.4,3.6-1.3C700.1,242.8,702.8,239.4,706,235.6z M668.3,282.8
			c-0.3,6.5,1,8.3,5.8,9.2c1,0.2,2,0.5,2.8,1.1c3.3,2.3,6.6,2.2,10.1,0.4c5.2-2.6,10.4-3,16.2-1.2c5.4,1.7,10.8,0.4,15.7-3.4
			c-3.9-0.8-6.2-5.6-11.1-3.5c-0.7,0.3-2.1-0.2-2.7-0.8c-3.7-3.5-7.4-2.7-11.6-1.1c-2.8,1-6.1,1.2-9.1,1
			C679,284.3,673.7,283.5,668.3,282.8z M680.7,337c0.3,0.2,0.5,0.5,0.8,0.7c1.2-0.7,2.4-1.2,3.5-2c4.3-2.9,8.8-3.5,13.6-1.1
			c1.6,0.8,3.7,1.4,5.5,1.2c5.9-0.6,11.8-1.5,17.8-2.3c0.1-2.5,0.3-5.7,0.5-9.5c-1.3,0-2.5-0.1-3.7,0c-1.9,0.2-3.8,0.8-5.6,0.7
			c-6.3-0.2-12.6-1.1-18.8-0.8c-3.5,0.2-7.7,1.3-10.2,3.6C681.8,329.7,681.7,333.8,680.7,337z M725.6,294.8
			c-0.6-0.3-8.2,1.1-8.5,1.1c-0.5,0-1,0-1.5,0.1c-5.2,1.4-10.4,1.4-15.7-0.2c-2.6-0.7-5.9-0.4-8.5,0.6c-5.5,2.2-10.8,3.5-16.2,0.1
			c-0.1-0.1-0.4,0.2-1.4,0.7c2.4,2.8,4.4,5.6,7,7.9c1.2,1,3.6,1.5,5.1,1.1c9-2.6,18.4,2.5,27.3-1.3c0.5-0.2,1.3,0.3,1.9,0.1
			c0.7-0.2,19.7-0.1,19.8-0.6C735.4,301.9,733.2,297.4,725.6,294.8z M700.1,276.7c-0.6-1.5-1.3-2.9-1.7-4.5c-0.7-3.1-2.7-4-5.3-3.1
			c-3.7,1.3-7,0.8-10.6-0.7c-1.7-0.8-4-0.8-5.9-0.4c-3.8,0.7-7.5,2-11.2,3c0.4,7.2,1.5,9.1,5.9,8.4c5-0.7,9.8-0.5,14.5,1.3
			c1.2,0.4,2.8,0,4.1-0.4C693.2,279.3,696.5,278,700.1,276.7z M685.7,228.9c2.4,0.6,4.4,0.5,5.6,1.5c3.2,2.5,6.4,2.3,10.1,1.6
			c2.2-0.4,4.7-0.7,6.8-0.2c5.3,1.3,9.5-0.2,12.9-4c0.9-1,1.2-2.5,1.8-3.7c-1.3,0.1-2.9-0.3-4,0.3c-2.6,1.3-5.3,2.5-7.9,0.7
			c-2.6-1.9-5.2-1.7-8.2-1.4c-2.9,0.3-5.9-0.1-8.9-0.1c-0.9,0-2.1,0.2-2.8,0.8C689.4,225.5,687.7,227.1,685.7,228.9z M706.4,371.2
			c2,4,7.7,8,10.4,6.7c5.5-2.6,11.1-3.2,17-3.1c3.3,0.1,3.4-3.3,3.3-5.5c-0.2-2.7-2.6-1.7-4.2-1.2c-4.2,1.4-8.3,2.4-12.6,1
			C715.5,367.7,711.1,369.4,706.4,371.2z M720.1,218.5c-2.7-3-5.4-5.7-9.6-4.1c-3.4,1.3-6.8,2.9-10.2,4.3c2.9,0.9,6.2-0.1,7.9,1.1
			C712.9,223.2,716.2,221,720.1,218.5z"/>
		<path d="M496.9,231.1c0.8-5.2,2-11,5.9-15.9c0.8-1,2-1.9,3.2-2.6c8.8-5,18.4-6.9,28.4-7.1c4.6-0.1,9.3-1.1,13.9-1.8
			c5.1-0.8,9.9,3.9,9.1,9.1c-1.1,6.9-4,9.9-10.9,11.6c-2.3,0.5-3.8,1.6-4.2,4.2c-0.8,5.4-4.6,8.9-8.7,12c-3,2.2-8.3,0.8-12.1-2.6
			c-4.4-4-4.4-4-8.6,0.3c-3.5,3.6-6.4,4.4-10.1,2.7C498.8,239.4,496.8,236.2,496.9,231.1z M503.4,225.9c1.8-0.3,3.3-0.7,4.8-0.8
			c3.1-0.3,6.4-1.1,9.3-0.5c4.7,0.9,9.2,1.7,13.9,0.3c1.3-0.4,2.8-0.1,4.1-0.5c1.7-0.5,3.4-1.4,5-2.1c-0.2-0.6-0.4-1.3-0.6-1.9
			c-2.2,0.4-4.4,1.1-6.7,1.3c-3.2,0.2-6.8,1-9.5-0.3c-3.5-1.6-6.7-1.9-10.2-1.2c-1.6,0.3-3.3,0.3-4.9,0.2
			C504.8,220.1,503.8,221,503.4,225.9z M552.8,211.4c-0.7-0.1-1-0.3-1.4-0.3c-9.7,0.8-19.4,1.5-29,2.4c-0.9,0.1-8.4,0-9.5,0.4
			c6.5,2.3,14.4,5.1,19,4.3c4.4-0.8,8.9-1.1,13.4-1.2C548.6,217,551.6,215.3,552.8,211.4z M502.5,230.3c1,4.5,3.3,5.7,6.7,3.7
			c2.5-1.5,4.8-3.4,7.2-5.2c-0.1-0.4-0.2-0.8-0.3-1.2C511.5,228.5,507,229.4,502.5,230.3z M536.2,228.3c-4.8,0.8-8.8,1.4-13.2,2.2
			C528.1,235.3,533.5,234.7,536.2,228.3z"/>
	</g>
	<polygon class="st3" points="192.2,299.4 190.7,293.2 185.2,282.2 180.1,285.6 177.5,292 180.1,297.4 	"/>
	<polygon class="st0" points="10.6,385.5 11,385.5 11.1,383.6 	"/>
	<polygon class="st3" points="184.8,308.4 173.7,314.7 176,331.8 180.6,342 191.1,340 195.2,329.4 192,315.1 	"/>
	<polygon class="st3" points="192.2,299.4 190.7,293.2 185.2,282.2 180.1,285.6 177.5,292 180.1,297.4 	"/>
	<g>
		<path class="st1" d="M755.9,314.1c-0.1,0.4-0.2,0.6-0.5,0.8c-0.2,0.2-0.5,0.3-0.9,0.3H752c-0.5,0-0.8-0.1-1-0.4
			c-0.2-0.3-0.3-0.6-0.2-1.1l5.1-19.6c0.1-0.3,0.2-0.6,0.5-0.8c0.2-0.2,0.5-0.3,0.9-0.3h5.7c0.4,0,0.7,0.1,0.9,0.3
			c0.2,0.2,0.4,0.5,0.5,0.8l5.1,19.6c0.1,0.4,0,0.8-0.2,1.1c-0.2,0.3-0.6,0.4-1,0.4h-2.5c-0.4,0-0.7-0.1-0.9-0.3
			c-0.2-0.2-0.4-0.5-0.5-0.8l-0.8-3.3h-6.8L755.9,314.1z M762.6,306.9l-2.5-10.2l-2.5,10.2H762.6z"/>
		<path class="st1" d="M786.2,303.8v2.3c0,0.4-0.1,0.7-0.4,1c-0.2,0.2-0.6,0.4-1,0.4h-7.2v6.4c0,0.4-0.1,0.7-0.4,1
			c-0.2,0.2-0.6,0.4-1,0.4h-2.7c-0.4,0-0.7-0.1-1-0.4c-0.2-0.2-0.4-0.6-0.4-1v-19.4c0-0.4,0.1-0.7,0.4-1s0.6-0.4,1-0.4h11.9
			c0.4,0,0.8,0.1,1,0.4c0.2,0.2,0.4,0.6,0.4,1v2.7c0,0.4-0.1,0.7-0.4,1c-0.2,0.2-0.6,0.4-1,0.4h-7.8v3.9h7.2c0.4,0,0.8,0.1,1,0.4
			C786,303,786.2,303.3,786.2,303.8z"/>
		<path class="st1" d="M805.4,311.3c-0.2,0.6-0.5,1.1-0.9,1.6c-0.4,0.5-0.8,0.9-1.4,1.3s-1.3,0.7-2.1,0.9c-0.8,0.2-1.7,0.3-2.7,0.3
			c-3.3,0-5.7-0.8-7.2-2.4s-2.2-4.1-2.2-7.7v-2.9c0-3.1,0.8-5.5,2.4-7.1s4.1-2.4,7.5-2.4c3,0,5.3,0.6,6.9,1.7
			c1.6,1.1,2.6,2.7,2.8,4.8c0,0.1,0.1,0.4,0.1,0.9c0,0.4-0.1,0.7-0.3,0.9s-0.5,0.3-0.9,0.3h-2.9c-0.5,0-0.8-0.1-1-0.2
			s-0.3-0.4-0.4-0.8c-0.1-0.3-0.1-0.5-0.2-0.7c-0.3-0.7-0.7-1.3-1.4-1.6c-0.7-0.3-1.6-0.5-2.8-0.5c-1.1,0-1.9,0.2-2.5,0.5
			c-0.6,0.3-1.1,0.8-1.4,1.6c-0.3,0.8-0.5,1.8-0.5,3.1v2.5c0,1.9,0.3,3.2,1,3.9c0.7,0.8,1.8,1.1,3.4,1.1c0.5,0,1,0,1.4-0.1
			s0.8-0.2,1.2-0.3c0.4-0.1,0.7-0.3,1-0.6c0.2-0.3,0.4-0.6,0.6-1c0.2-0.4,0.2-0.9,0.2-1.5v-0.2h-3.2c-0.4,0-0.7-0.1-0.9-0.4
			c-0.2-0.2-0.3-0.6-0.3-0.9v-1c0-0.4,0.1-0.8,0.4-1c0.2-0.2,0.6-0.4,1-0.4h7.2c0.4,0,0.8,0.1,1,0.4c0.2,0.2,0.4,0.6,0.4,1v9.7
			c0,0.7-0.3,1-1,1h-0.2c-0.4,0-0.6-0.1-0.8-0.2c-0.2-0.1-0.3-0.3-0.4-0.7L805.4,311.3z"/>
		<path class="st1" d="M828.2,315.2h-2.7c-0.4,0-0.8-0.1-1-0.4c-0.2-0.2-0.4-0.6-0.4-1v-7.5h-7.5v7.5c0,0.4-0.1,0.7-0.4,1
			c-0.2,0.2-0.6,0.4-1,0.4h-2.7c-0.4,0-0.7-0.1-1-0.4c-0.2-0.2-0.4-0.6-0.4-1v-19.4c0-0.4,0.1-0.7,0.4-1s0.6-0.4,1-0.4h2.7
			c0.4,0,0.7,0.1,1,0.4c0.2,0.2,0.4,0.6,0.4,1v6.5h7.5v-6.5c0-0.4,0.1-0.8,0.4-1c0.2-0.2,0.6-0.4,1-0.4h2.7c0.4,0,0.8,0.1,1,0.4
			c0.2,0.2,0.4,0.6,0.4,1v19.4c0,0.4-0.1,0.7-0.4,1C829,315.1,828.7,315.2,828.2,315.2z"/>
		<path class="st1" d="M837.4,314.1c-0.1,0.4-0.2,0.6-0.5,0.8c-0.2,0.2-0.5,0.3-0.9,0.3h-2.5c-0.5,0-0.8-0.1-1-0.4
			c-0.2-0.3-0.3-0.6-0.2-1.1l5.1-19.6c0.1-0.3,0.2-0.6,0.5-0.8c0.2-0.2,0.5-0.3,0.9-0.3h5.7c0.4,0,0.7,0.1,0.9,0.3
			c0.2,0.2,0.4,0.5,0.5,0.8l5.1,19.6c0.1,0.4,0,0.8-0.2,1.1c-0.2,0.3-0.6,0.4-1,0.4h-2.5c-0.4,0-0.7-0.1-0.9-0.3
			c-0.2-0.2-0.4-0.5-0.5-0.8l-0.8-3.3h-6.8L837.4,314.1z M844.1,306.9l-2.5-10.2l-2.5,10.2H844.1z"/>
		<path class="st1" d="M870.6,315.2h-2.5c-0.6,0-1-0.2-1.3-0.7l-8.1-12v11.4c0,0.4-0.1,0.7-0.4,1c-0.2,0.2-0.6,0.4-1,0.4h-2.3
			c-0.4,0-0.7-0.1-1-0.4c-0.2-0.2-0.4-0.6-0.4-1v-19.4c0-0.4,0.1-0.7,0.4-1s0.6-0.4,1-0.4h2.6c0.5,0,1,0.2,1.3,0.7l8.2,11.6v-10.9
			c0-0.4,0.1-0.8,0.4-1c0.2-0.2,0.6-0.4,1-0.4h2.3c0.4,0,0.8,0.1,1,0.4c0.2,0.2,0.4,0.6,0.4,1v19.4c0,0.4-0.1,0.7-0.4,1
			C871.4,315.1,871.1,315.2,870.6,315.2z"/>
		<path class="st1" d="M878.8,315.2h-2.7c-0.4,0-0.7-0.1-1-0.4c-0.2-0.2-0.4-0.6-0.4-1v-19.4c0-0.4,0.1-0.7,0.4-1s0.6-0.4,1-0.4h2.7
			c0.4,0,0.7,0.1,1,0.4c0.2,0.2,0.4,0.6,0.4,1v19.4c0,0.4-0.1,0.7-0.4,1C879.5,315.1,879.2,315.2,878.8,315.2z"/>
		<path class="st1" d="M893.4,301.9c3,0.2,5.1,0.7,6.4,1.7c1.3,1,1.9,2.6,1.9,4.8v0.2c0,2.2-0.8,3.9-2.4,5s-4,1.7-7.1,1.7
			c-3,0-5.3-0.5-6.9-1.6c-1.5-1.1-2.4-2.6-2.6-4.7c0,0,0-0.1,0-0.3s0-0.2,0-0.3c0-0.4,0.1-0.6,0.3-0.8c0.2-0.2,0.5-0.3,0.9-0.3h2.9
			c0.5,0,0.8,0.1,0.9,0.2s0.3,0.4,0.4,0.8c0,0.1,0.1,0.3,0.1,0.5c0.2,0.7,0.7,1.2,1.3,1.5c0.6,0.3,1.5,0.5,2.6,0.5
			c1.3,0,2.3-0.2,3-0.5c0.6-0.3,1-0.8,1-1.6v-0.1c0-0.3,0-0.6-0.1-0.8c-0.1-0.2-0.2-0.4-0.5-0.6c-0.2-0.2-0.5-0.3-0.9-0.4
			c-0.4-0.1-0.9-0.2-1.5-0.3s-1.3-0.2-2.2-0.3c-1.6-0.1-2.8-0.3-3.9-0.6s-1.9-0.6-2.6-1.1c-0.7-0.5-1.2-1.1-1.5-1.9
			c-0.3-0.7-0.5-1.7-0.5-2.8v-0.2c0-2.3,0.8-4,2.3-5.1c1.6-1.1,3.9-1.7,7.1-1.7c2.9,0,5.1,0.5,6.7,1.6c1.6,1.1,2.5,2.5,2.7,4.5
			c0.1,0.2,0.1,0.4,0.1,0.6c0,0.4-0.1,0.6-0.3,0.8c-0.2,0.2-0.5,0.3-0.9,0.3h-2.9c-0.5,0-0.8-0.1-1-0.2c-0.2-0.1-0.3-0.4-0.4-0.8
			c-0.1-0.3-0.1-0.5-0.2-0.6c-0.6-1.1-1.9-1.6-3.9-1.6c-2.6,0-4,0.7-4,2v0.1c0,0.5,0.1,0.9,0.4,1.2s0.8,0.5,1.5,0.7
			S891.9,301.8,893.4,301.9z"/>
		<path class="st1" d="M908.8,298.5h-4.2c-0.4,0-0.7-0.1-1-0.4c-0.2-0.2-0.4-0.6-0.4-1v-2.7c0-0.4,0.1-0.7,0.4-1s0.6-0.4,1-0.4h13.8
			c0.4,0,0.8,0.1,1,0.4c0.2,0.2,0.4,0.6,0.4,1v2.7c0,0.4-0.1,0.8-0.4,1c-0.2,0.2-0.6,0.4-1,0.4h-4.2v15.4c0,0.4-0.1,0.8-0.4,1
			c-0.2,0.2-0.6,0.4-1,0.4h-2.7c-0.4,0-0.7-0.1-1-0.4c-0.2-0.2-0.4-0.6-0.4-1V298.5z"/>
		<path class="st1" d="M923.5,314.1c-0.1,0.4-0.2,0.6-0.5,0.8c-0.2,0.2-0.5,0.3-0.9,0.3h-2.5c-0.5,0-0.8-0.1-1-0.4
			c-0.2-0.3-0.3-0.6-0.2-1.1l5.1-19.6c0.1-0.3,0.2-0.6,0.5-0.8c0.2-0.2,0.5-0.3,0.9-0.3h5.7c0.4,0,0.7,0.1,0.9,0.3
			c0.2,0.2,0.4,0.5,0.5,0.8l5.1,19.6c0.1,0.4,0,0.8-0.2,1.1c-0.2,0.3-0.6,0.4-1,0.4h-2.5c-0.4,0-0.7-0.1-0.9-0.3
			c-0.2-0.2-0.4-0.5-0.5-0.8l-0.8-3.3h-6.8L923.5,314.1z M930.2,306.9l-2.5-10.2l-2.5,10.2H930.2z"/>
		<path class="st1" d="M956.7,315.2h-2.5c-0.6,0-1-0.2-1.3-0.7l-8.1-12v11.4c0,0.4-0.1,0.7-0.4,1c-0.2,0.2-0.6,0.4-1,0.4h-2.3
			c-0.4,0-0.7-0.1-1-0.4c-0.2-0.2-0.4-0.6-0.4-1v-19.4c0-0.4,0.1-0.7,0.4-1s0.6-0.4,1-0.4h2.6c0.5,0,1,0.2,1.3,0.7l8.2,11.6v-10.9
			c0-0.4,0.1-0.8,0.4-1c0.2-0.2,0.6-0.4,1-0.4h2.3c0.4,0,0.8,0.1,1,0.4c0.2,0.2,0.4,0.6,0.4,1v19.4c0,0.4-0.1,0.7-0.4,1
			C957.5,315.1,957.2,315.2,956.7,315.2z"/>
	</g>
	<g>
		<path class="st1" d="M198,141.5v2.3c0,0.4-0.1,0.7-0.4,1c-0.2,0.2-0.6,0.4-1,0.4h-7.2v6.4c0,0.4-0.1,0.7-0.4,1
			c-0.2,0.2-0.6,0.4-1,0.4h-2.7c-0.4,0-0.7-0.1-1-0.4c-0.2-0.2-0.4-0.6-0.4-1v-19.4c0-0.4,0.1-0.7,0.4-1s0.6-0.4,1-0.4h11.9
			c0.4,0,0.8,0.1,1,0.4c0.2,0.2,0.4,0.6,0.4,1v2.7c0,0.4-0.1,0.7-0.4,1c-0.2,0.2-0.6,0.4-1,0.4h-7.8v3.9h7.2c0.4,0,0.8,0.1,1,0.4
			C197.9,140.8,198,141.1,198,141.5z"/>
		<path class="st1" d="M205.1,153h-2.7c-0.4,0-0.8-0.1-1-0.4c-0.2-0.2-0.4-0.6-0.4-1v-19.4c0-0.4,0.1-0.8,0.4-1
			c0.2-0.2,0.6-0.4,1-0.4h7.3c1.6,0,2.9,0.1,4,0.3s1.9,0.6,2.5,1.2c0.6,0.5,1.1,1.2,1.3,2.1s0.4,1.9,0.4,3.2v0.6
			c0,2.8-1,4.7-2.9,5.8l2.7,7.3c0.2,0.4,0.2,0.8-0.1,1.1s-0.5,0.5-1,0.5h-3.1c-0.7,0-1.1-0.3-1.4-1l-2.5-6.9h-3.2v6.5
			c0,0.4-0.1,0.8-0.4,1C205.9,152.8,205.6,153,205.1,153z M209.7,135.6h-3.2v5h3.2c1,0,1.7-0.2,2.1-0.5c0.4-0.3,0.6-0.9,0.6-1.8
			v-0.5c0-0.9-0.2-1.5-0.6-1.8C211.4,135.8,210.7,135.6,209.7,135.6z"/>
		<path class="st1" d="M225.6,151.9c-0.1,0.4-0.2,0.6-0.5,0.8c-0.2,0.2-0.5,0.3-0.9,0.3h-2.5c-0.5,0-0.8-0.1-1-0.4s-0.3-0.6-0.2-1.1
			l5.1-19.6c0.1-0.3,0.2-0.6,0.5-0.8c0.2-0.2,0.5-0.3,0.9-0.3h5.7c0.4,0,0.7,0.1,0.9,0.3c0.2,0.2,0.4,0.5,0.5,0.8l5.1,19.6
			c0.1,0.4,0,0.8-0.2,1.1c-0.2,0.3-0.6,0.4-1,0.4h-2.5c-0.4,0-0.7-0.1-0.9-0.3s-0.4-0.5-0.5-0.8l-0.8-3.3h-6.8L225.6,151.9z
			 M232.3,144.6l-2.5-10.2l-2.5,10.2H232.3z"/>
		<path class="st1" d="M258.8,153h-2.5c-0.6,0-1-0.2-1.3-0.7l-8.1-12v11.4c0,0.4-0.1,0.7-0.4,1c-0.2,0.2-0.6,0.4-1,0.4h-2.3
			c-0.4,0-0.7-0.1-1-0.4c-0.2-0.2-0.4-0.6-0.4-1v-19.4c0-0.4,0.1-0.7,0.4-1s0.6-0.4,1-0.4h2.6c0.5,0,1,0.2,1.3,0.7l8.2,11.6v-10.9
			c0-0.4,0.1-0.8,0.4-1c0.2-0.2,0.6-0.4,1-0.4h2.3c0.4,0,0.8,0.1,1,0.4s0.4,0.6,0.4,1v19.4c0,0.4-0.1,0.7-0.4,1
			C259.6,152.8,259.2,153,258.8,153z"/>
		<path class="st1" d="M272.6,153.1c-3.4,0-6-0.8-7.5-2.3c-1.6-1.5-2.4-4-2.4-7.6v-2.9c0-6.5,3.3-9.7,9.9-9.7c6.1,0,9.3,2.6,9.8,7.7
			c0,0.1,0,0.2,0,0.4c0,0.2,0,0.3,0,0.4c0,0.4-0.1,0.7-0.3,0.9c-0.2,0.2-0.5,0.3-0.9,0.3h-2.9c-0.4,0-0.8-0.1-1-0.3
			s-0.3-0.5-0.4-0.9c-0.1-0.4-0.1-0.6-0.1-0.6c-0.2-1-0.7-1.8-1.4-2.2c-0.7-0.5-1.7-0.7-3-0.7c-1.1,0-1.9,0.2-2.5,0.5
			s-1.1,0.8-1.4,1.6c-0.3,0.8-0.5,1.8-0.5,3.1v2.5c0,1.9,0.3,3.2,1,3.9c0.7,0.8,1.8,1.1,3.4,1.1c1.3,0,2.3-0.2,3-0.7
			c0.7-0.5,1.1-1.4,1.3-2.6c0-0.1,0.1-0.3,0.1-0.5c0.1-0.8,0.5-1.2,1.3-1.2h2.9c0.4,0,0.7,0.1,0.9,0.3s0.3,0.5,0.3,0.9l-0.1,0.7
			c-0.2,2.8-1.1,4.9-2.7,6.2C278.1,152.4,275.7,153.1,272.6,153.1z"/>
		<path class="st1" d="M298.3,153h-11.9c-0.4,0-0.7-0.1-1-0.4c-0.2-0.2-0.4-0.6-0.4-1v-19.4c0-0.4,0.1-0.7,0.4-1s0.6-0.4,1-0.4h11.9
			c0.4,0,0.8,0.1,1,0.4c0.2,0.2,0.4,0.6,0.4,1v2.3c0,0.4-0.1,0.8-0.4,1c-0.2,0.2-0.6,0.4-1,0.4h-7.8v3.3h7.2c0.4,0,0.8,0.1,1,0.4
			c0.2,0.2,0.4,0.6,0.4,1v2c0,0.4-0.1,0.7-0.4,1c-0.2,0.2-0.6,0.4-1,0.4h-7.2v4h7.8c0.4,0,0.8,0.1,1,0.4c0.2,0.2,0.4,0.6,0.4,1v2.3
			c0,0.4-0.1,0.7-0.4,1C299.1,152.8,298.8,153,298.3,153z"/>
	</g>
	<g>
		<g>
			<path class="st4" d="M820.4,324.2c0,14.6,11.6,33.4,37.7,34.9"/>
			<g>
				<polygon class="st1" points="851.9,363.8 857.2,359 852.3,353.7 856.6,353.9 861.5,359.2 856.2,364 				"/>
			</g>
		</g>
	</g>
	<g>
		<g>
			<path class="st4" d="M216.8,161.8c0,11.1-3.1,29.4-30,30.9"/>
			<g>
				<polygon class="st1" points="192.6,187.3 187.7,192.5 193,197.4 188.7,197.6 183.4,192.7 188.3,187.4 				"/>
			</g>
		</g>
	</g>
</g>
</svg>
