<?xml version="1.0" encoding="utf-8"?>
<!-- Generator: Adobe Illustrator 19.1.0, SVG Export Plug-In . SVG Version: 6.00 Build 0)  -->
<svg version="1.1" id="Calque_1" xmlns="http://www.w3.org/2000/svg" xmlns:xlink="http://www.w3.org/1999/xlink" x="0px" y="0px"
	 viewBox="0 0 1021.3 904.7" style="enable-background:new 0 0 1021.3 904.7;" xml:space="preserve">
<style type="text/css">
	.st0{fill:#6D9DBD;}
	.st1{fill:#F2A73B;}
	.st2{fill:#6DA3C3;}
	.st3{fill:none;}
	.st4{fill:none;stroke:#F2A73B;stroke-width:3;stroke-miterlimit:10;}
	.st5{fill:#6DA1C1;}
	.st6{fill:#F6AB3B;}
	.st7{fill:none;stroke:#F6AB3B;stroke-width:3;stroke-miterlimit:10;}
	.st8{fill:#F8AD3B;}
	.st9{fill:#C6C6C6;}
	.st10{fill:#F4901E;}
	.st11{fill:none;stroke:#F8AD3B;stroke-width:3;stroke-miterlimit:10;}
	.st12{fill:#FFFFFF;}
	.st13{fill:#FFFFFF;stroke:#C6C6C6;stroke-width:3;stroke-miterlimit:10;}
	.st14{fill:none;stroke:#C6C6C6;stroke-width:3;stroke-miterlimit:10;}
</style>
<g>
	<polygon class="st1" points="859.9,758.4 841.7,768.9 830,776.5 826.7,794.1 823.6,809.5 822.9,819.9 826.7,826 837.8,826 
		849.4,817.8 864.6,822.8 893.5,826.8 909.6,838.2 927.3,858.4 933.1,861.1 939.8,856.4 925.8,839.3 896.6,816.8 877.9,798.2 
		868.8,780.4 	"/>
	<polygon class="st0" points="1013.7,838.1 996.9,841.2 977.6,848.7 963.7,856.7 949.3,848.7 941,816.3 933.1,784.7 924.2,761.4 
		905.3,730 883.1,709.7 870.4,689.9 866.3,665.3 859.8,650.3 842,640.9 838.6,621 825.4,588.3 807.2,565.3 800,561.7 787.5,565.3 
		779,561.7 767.7,539.5 756.7,532.8 753.5,536.4 768.1,570.2 782.1,599.9 810.7,644.1 810.7,660.2 833.4,693.4 847.5,748.8 
		861.5,761.4 874.7,794.1 905.3,824.5 936.8,847.2 946.4,872.5 951.8,887.4 953.8,900.1 1012.2,895.4 1018.4,882.7 	"/>
	<polygon class="st0" points="802.6,163.8 804.6,151.9 823.3,145.5 856,136 879.7,136 879.7,140.5 856.8,149.8 859.4,158.1 
		853.1,173.1 849.7,179.3 832.8,173.1 819.8,175.2 804.6,174.7 	"/>
	<polygon class="st0" points="725.9,155 735.9,146.8 744.8,150.8 756.6,158.4 769.6,163 775.4,163 772.8,168.5 764.1,175.8 
		772.8,179.6 775.4,188.5 778.8,199 787.1,200.6 798.2,194.7 821.8,190 839.4,190 856,197.3 867.1,209.3 882.3,223.3 901.4,233.6 
		911.6,241.7 919.4,257.3 921.3,264.3 909.2,277.3 888.5,286.5 870.6,289.4 839.4,285.1 819.8,277.3 804.6,271 782.2,269 766,269 
		747.4,278.8 728,285 698.9,285 687,276.8 677.5,257.9 672.8,243.7 681.1,230.4 688.8,219 693.1,200.6 696.4,192.1 704.8,190 
		711.4,173.1 718.4,158.1 	"/>
	<path class="st0" d="M825.6,388.1l-1.8-5h-21.1l-20.4,6.5l-19.5,1.7l-18-9l-16.8-2.1l-7.2,14.9h-9.3l-17.1-10.6l-22-4.7l-7.6-7.9
		l-3.4-14.9l-8.7-19.8l-7.8-23.4v-20.6l-14.4-6.6l-19.7,0l-4.1,6.7l-1.6,7.9l-10.6-3.8l-7.8,2.6l-2,16.7l18.1,18.2l9.4,10.3
		l-9.3,11.5l-9.1,8.8v10.1l-1.7,6.6l-9.2-6.6l-12.6,2.9l-6-11.7l-4.9-25.1l-16.8-18.4l-5.8-10.9v-29l-1.3-15.2l-26.5-15.1
		l-34.4-24.6l-24-24.6l-17.2-21.5l-9.4-13.9l-14.1,4.1l-6.7,9.8l7.8,19.3l22.4,41.9l17.2,16.3l18.8,3.6l4.8,12.3l33,21l3.5,6.3
		l-6.9,7.3l-8.7-8.8l-9.4-4.5l-6.2,13.3l7.3,16.1v5l-14.1-3.6l-8.8-17.6l-18.5-13.6l-9.7-13.4l-29.3-15.2l-24.1-19.8l-7.1-20.9
		l-8.5-17.4l-17.7-10.9l-12.7,2.6l-14.4,12.3l-14.2,13.4l-10.3,8.2l-25.2-8.1l-17.2-3.1l-11.8,7.2L240,245l4.8,11l-3.5,9.7
		l-18.9,9.9l-28.2,12.9l-13.5,25.2l5,15.7V341l-15.6,10.4L156,370l-26.8,11.9l-22.4,2L88.5,394l-18.7-15.8l-18.4-4.1l-18.9-1.9
		l-6.3-16.7l3.5-27.8v-29.4l2.9-15.2l3.1-25.6v-16.6l4.3-10.6l16.2-3l38.6-1.2l40.6,3.9h21.9l5.8-10.7l9.6-27.4v-24.6l-3.1-17.5
		l-15.9-20.1l-19.7-13.1l-16-2l-4-13.9l9-0.3l28-7.2l7.9-6.6l2.2-16.3l6-3.6l7.6,5.3l6.2,0.4L210.7,55l5.5-9.1l2.7-16.5l16-0.3
		l23.8-23h-40.2l-4.2,8.5l-17.7,14.3L179,30.5l-38.6,5.1l-19.4,8L102.3,53l-8.6-3.5l1.2-10.4l2.5-10l16.7-9.3l21.8-5.5l1.9-6.7
		L37.1,6H9L3.5,70.6l5.9,54.7l1.2,68.5L9.4,256l-2,57.7l1.2,58.1l-4.9,80.9V501v29.2l25.8-27.5l10.7-20.8l18.8-29.5l18.3-33l7-9.9
		l18.1,1.1l20.6,4.6l17.5,0.5l38.6-17.9l24.5-13.8l19-0.8l36.4,1.3l26.4-6.4h24.5l36.3-7.4l20.6-3l15.6,10.6l-7.1,13.1l2.3,12.1
		l4.8,12.7l-15.6,19.3l1.1,10.7l14.5,3.4l9.4,9l25.8,9.2l24.1,4.1l13.3,7.3l14.6,15l25.8,8.2l19.6,14.6h12l7.4-12.3l2.8-24.7
		l23.1-11h18.7l11.8,7l14.4,3.4l5.3,2.8l16.4,12.4l8.3,0.5h21.7l30.4,12.5l16,0.7l19.8-14.2l13.1,2.5l19.2,3.5l23.7-1.3l12.5-10.2
		l7.1-13.5l10.5-18.7l10.9-25.4l-4.6-27L825.6,388.1z M340.2,244.9l4.8-6.9h5.7l3.7,15.7l-1.8,13.5l-7.5,1l-8.8-9.9L340.2,244.9z
		 M357.7,321.5l-4.7,6.2l-6.3,0.7l-2,4.6h-4.8l-7.1-5l2.8-17.8l-2.8-18.4l9.2-11.9l6.2-3l5.7,3.7l3.9,19.2V321.5z M453.7,356.5v13.4
		l-2.5,6.9l-7.7,5.1l-10-7.8l-6.6-6.5l-16-8.6l-4.8-3.5l4.7-5.5l13.1-3.1l9.4,1.4l19.2-3.3l5.9,3.3L453.7,356.5z"/>
	<polygon class="st1" points="114.1,100.7 118,114.6 135.9,118.8 153.4,129.7 167.4,148.3 172.7,167.4 172.7,192 163.1,218.5 
		155.8,227.2 168.7,236.5 192,247 216.6,247 239.6,248.3 241.4,235.1 252.9,224.4 272,227.3 294.3,233.9 308.2,227.2 320.7,214.6 
		320.7,209.1 312.4,200.6 305.9,184.8 311.8,174.7 313.7,160.1 308.7,149.8 295,151.8 300.9,140.7 318.5,129.7 323.5,112.8 
		329.7,93.3 329.7,81.2 312.6,75.7 292.5,65.8 267.9,50.7 249.3,42.4 240,30.5 235,28.3 218.9,28.9 214.4,49.4 196.3,59.8 176,74.1 
		172.3,68.1 163.1,65.8 160.7,70.4 160.7,84.3 152.8,92.9 	"/>
	<g>
		<path class="st1" d="M352,48.6v2.3c0,0.4-0.1,0.7-0.4,1c-0.2,0.2-0.6,0.4-1,0.4h-7.2v6.4c0,0.4-0.1,0.7-0.4,1
			c-0.2,0.2-0.6,0.4-1,0.4h-2.7c-0.4,0-0.7-0.1-1-0.4c-0.2-0.2-0.4-0.6-0.4-1V39.2c0-0.4,0.1-0.7,0.4-1s0.6-0.4,1-0.4h11.9
			c0.4,0,0.8,0.1,1,0.4c0.2,0.2,0.4,0.6,0.4,1v2.7c0,0.4-0.1,0.7-0.4,1c-0.2,0.2-0.6,0.4-1,0.4h-7.8v3.9h7.2c0.4,0,0.8,0.1,1,0.4
			C351.9,47.8,352,48.2,352,48.6z"/>
		<path class="st1" d="M359.1,60h-2.7c-0.4,0-0.8-0.1-1-0.4c-0.2-0.2-0.4-0.6-0.4-1V39.2c0-0.4,0.1-0.8,0.4-1c0.2-0.2,0.6-0.4,1-0.4
			h7.3c1.6,0,2.9,0.1,4,0.3s1.9,0.6,2.5,1.2c0.6,0.5,1.1,1.2,1.3,2.1s0.4,1.9,0.4,3.2v0.6c0,2.8-1,4.7-2.9,5.8l2.7,7.3
			c0.2,0.4,0.2,0.8-0.1,1.1s-0.5,0.5-1,0.5h-3.1c-0.7,0-1.1-0.3-1.4-1l-2.5-6.9h-3.2v6.5c0,0.4-0.1,0.8-0.4,1
			C359.9,59.9,359.5,60,359.1,60z M363.7,42.6h-3.2v5h3.2c1,0,1.7-0.2,2.1-0.5c0.4-0.3,0.6-0.9,0.6-1.8v-0.5c0-0.9-0.2-1.5-0.6-1.8
			C365.4,42.8,364.7,42.6,363.7,42.6z"/>
		<path class="st1" d="M379.5,58.9c-0.1,0.4-0.2,0.6-0.5,0.8c-0.2,0.2-0.5,0.3-0.9,0.3h-2.5c-0.5,0-0.8-0.1-1-0.4s-0.3-0.6-0.2-1.1
			l5.1-19.6c0.1-0.3,0.2-0.6,0.5-0.8c0.2-0.2,0.5-0.3,0.9-0.3h5.7c0.4,0,0.7,0.1,0.9,0.3c0.2,0.2,0.4,0.5,0.5,0.8l5.1,19.6
			c0.1,0.4,0,0.8-0.2,1.1c-0.2,0.3-0.6,0.4-1,0.4h-2.5c-0.4,0-0.7-0.1-0.9-0.3s-0.4-0.5-0.5-0.8l-0.8-3.3h-6.8L379.5,58.9z
			 M386.2,51.7l-2.5-10.2l-2.5,10.2H386.2z"/>
		<path class="st1" d="M412.7,60h-2.5c-0.6,0-1-0.2-1.3-0.7l-8.1-12v11.4c0,0.4-0.1,0.7-0.4,1c-0.2,0.2-0.6,0.4-1,0.4h-2.3
			c-0.4,0-0.7-0.1-1-0.4c-0.2-0.2-0.4-0.6-0.4-1V39.2c0-0.4,0.1-0.7,0.4-1s0.6-0.4,1-0.4h2.6c0.5,0,1,0.2,1.3,0.7l8.2,11.6V39.2
			c0-0.4,0.1-0.8,0.4-1c0.2-0.2,0.6-0.4,1-0.4h2.3c0.4,0,0.8,0.1,1,0.4s0.4,0.6,0.4,1v19.4c0,0.4-0.1,0.7-0.4,1
			C413.5,59.9,413.2,60,412.7,60z"/>
		<path class="st1" d="M426.6,60.1c-3.4,0-6-0.8-7.5-2.3c-1.6-1.5-2.4-4-2.4-7.6v-2.9c0-6.5,3.3-9.7,9.9-9.7c6.1,0,9.3,2.6,9.8,7.7
			c0,0.1,0,0.2,0,0.4c0,0.2,0,0.3,0,0.4c0,0.4-0.1,0.7-0.3,0.9c-0.2,0.2-0.5,0.3-0.9,0.3h-2.9c-0.4,0-0.8-0.1-1-0.3
			s-0.3-0.5-0.4-0.9c-0.1-0.4-0.1-0.6-0.1-0.6c-0.2-1-0.7-1.8-1.4-2.2c-0.7-0.5-1.7-0.7-3-0.7c-1.1,0-1.9,0.2-2.5,0.5
			s-1.1,0.8-1.4,1.6c-0.3,0.8-0.5,1.8-0.5,3.1v2.5c0,1.9,0.3,3.2,1,3.9c0.7,0.8,1.8,1.1,3.4,1.1c1.3,0,2.3-0.2,3-0.7
			c0.7-0.5,1.1-1.4,1.3-2.6c0-0.1,0.1-0.3,0.1-0.5c0.1-0.8,0.5-1.2,1.3-1.2h2.9c0.4,0,0.7,0.1,0.9,0.3s0.3,0.5,0.3,0.9l-0.1,0.7
			c-0.2,2.8-1.1,4.9-2.7,6.2C432.1,59.5,429.7,60.1,426.6,60.1z"/>
		<path class="st1" d="M452.3,60h-11.9c-0.4,0-0.7-0.1-1-0.4c-0.2-0.2-0.4-0.6-0.4-1V39.2c0-0.4,0.1-0.7,0.4-1s0.6-0.4,1-0.4h11.9
			c0.4,0,0.8,0.1,1,0.4c0.2,0.2,0.4,0.6,0.4,1v2.3c0,0.4-0.1,0.8-0.4,1c-0.2,0.2-0.6,0.4-1,0.4h-7.8v3.3h7.2c0.4,0,0.8,0.1,1,0.4
			c0.2,0.2,0.4,0.6,0.4,1v2c0,0.4-0.1,0.7-0.4,1c-0.2,0.2-0.6,0.4-1,0.4h-7.2v4h7.8c0.4,0,0.8,0.1,1,0.4c0.2,0.2,0.4,0.6,0.4,1v2.3
			c0,0.4-0.1,0.7-0.4,1C453.1,59.9,452.7,60,452.3,60z"/>
	</g>
	<g>
		<g>
			<path class="st4" d="M372.6,70.5c0,11.7-3.3,31.1-31.8,32.6"/>
			<g>
				<polygon class="st1" points="346.6,97.7 341.7,103 347,107.8 342.7,108 337.4,103.2 342.2,97.9 				"/>
			</g>
		</g>
	</g>
	<g>
		<path d="M771.6,175c0.6,0.5,1.3,1,1.9,1.5c4.1,3.1,6.6,6.9,6.1,12.3c-0.1,1.1-0.1,2.1,0,3.2c0.4,4.6,4.6,7.2,8.3,4.5
			c9.7-7.2,21.2-9,32.3-11.8c5.3-1.3,11-1.6,16.4-1.3c9.7,0.5,17.6,5,23.4,13c1.9,2.6,4.1,4.8,6.3,7.2c3,3.3,5.8,6.8,9,9.8
			c3.1,2.9,6.3,5.8,10,7.8c9.9,5.1,19.2,10.8,27.3,18.5c2.1,2,4,4.5,5.5,7.1c2.6,4.3,4.7,8.8,7.1,13.1c1.6,2.9,1.2,5.4-1.1,7.6
			c-6.1,6-12.4,11.6-19.7,16.2c-4.9,3.1-10,5.1-15.5,6.8c-9.9,2.9-19.7,2.3-29.6,0.5c-7.7-1.4-15.4-2.7-23.1-4.1
			c-8.2-1.5-15.6-5-22.8-8.9c-8.8-4.8-18.3-6.7-28.2-7c-2.5-0.1-5,0.2-7.5-0.1c-9.5-1.2-18,1.3-25.6,6.9c-0.6,0.4-1.2,0.8-1.8,1.2
			c-7,5.9-15.6,7.8-24.4,8.1c-9.6,0.4-19.2,0.4-28.7-1.6c-9.9-2.1-16.5-8.1-20.2-17.1c-2.8-6.7-4.8-13.7-6.9-20.6
			c-0.6-1.9-0.6-4.4,0.1-6.3c1.3-3.7,2.9-7.3,4.9-10.6c1.1-1.8,3.3-3.4,5.3-4.1c2.9-1,3.7-2.8,4-5.5c0.3-3.3,1-6.6,1.7-9.9
			c0.9-4,2-7.9,3-11.9c0.6-2.2,1.2-4.5,2.1-6.6c1.9-4.6,2.4-4.9,7.5-4.2c2.1,0.3,3.5-0.4,4.3-2.2c0.8-1.8,1.4-3.7,2-5.5
			c1.5-4,3-8,4.4-12c2.4-7.3,7.5-12.5,13.2-17.1c12.1-9.6,21.3-8.5,33,1.1c3.8,3.1,7,5.2,11.8,4.2c0.9-0.2,1.8-0.1,2.7-0.2
			c6.1-0.4,9,3.4,6.5,9.1C775.6,169.2,773.5,171.9,771.6,175z M917,256.7c-1.4-2.9-2.7-5.8-4.2-8.5c-1.5-2.8-3.9-3.6-7.1-3.5
			c-4.8,0-9.5-0.7-14.3-1.1c-1.2-0.1-2.6-0.2-3.6,0.3c-6.5,3.7-13.1,2.7-19.6,0.4c-3.4-1.2-6.6-1.4-9.8,0.2
			c-6.6,3.3-13.1,2.8-19.5-0.4c-4-2-7.8-2.1-11.8-0.3c-1.6,0.7-3.2,1.7-4.9,2.1c-3.4,0.9-6.9,2.2-10.3,2c-3.8-0.3-7.6-1.7-11.1-3.2
			c-5.4-2.3-10.8-3-16.1-0.9c-7.4,3-14.5,2.9-21.9,0.4c-1.7-0.6-3.5-0.8-5.1-1.4c-4.2-1.7-8.3-1.3-12.4,0.5
			c-5.6,2.4-11.2,2.2-16.6-0.3c-3.7-1.7-7.2-1.6-10.9-0.3c-2.8,1-5.6,2.3-8.4,3.4c-1.8,0.7-3.7,1.3-5.6,1.6c-5,0.8-9.4-0.6-13.4-3.9
			c-2.8-2.4-9.2-2.3-11.5,0.1c-2.4,2.6-1,5.7,0,8.5c2.3,6.4,2.9,6.7,9.2,4.9c6.4-1.9,13-3.4,19.4-0.7c4.8,2,9.3,1.9,14.1,0.6
			c2.6-0.7,5.2-1.4,7.7-2.2c4.7-1.6,9.3-2.2,14.1-0.2c3.9,1.6,7.9,1.8,12,0.5c5.6-1.8,11.2-1.6,16.8,0.4c5,1.8,10.2,1.7,15.2,0.1
			c5.5-1.7,10.7-1.8,16.2,0.2c5.9,2.2,12.1,3.4,18.3,1.7c5.6-1.5,10.9-1.2,16.2,1.1c5.7,2.4,11.2,2.7,17,0.2
			c5-2.2,10.5-2.9,15.6-0.7c4.8,2.1,9.3,1.6,14-0.1c5-1.9,10.1-2,15.2-0.2C905.4,259.7,911,259.2,917,256.7z M681.1,237.7
			c4.7-1.2,8.1,0.9,11.8,3.3c2,1.4,5.1,2.2,7.5,1.9c3.4-0.3,6.9-1.5,10.1-2.9c6.6-2.9,13.1-4.3,20.1-1.2c3.5,1.6,7.3,1.8,10.9,0.3
			c6.6-2.8,13.1-2.6,19.8-0.2c1.7,0.6,3.4,0.9,5.1,1.5c4.2,1.3,8.5,1.3,12.6-0.3c8.8-3.2,17.3-3.3,25.8,1.2
			c5.4,2.8,10.9,2.6,16.3-0.7c6.2-3.8,12.6-4.2,19.3-0.9c4.8,2.4,10,2.6,15,0.4c4.8-2.1,9.4-2.2,14.5-0.3c4.6,1.7,9.8,2.7,14.5,0.1
			c3.1-1.7,5.9-1.9,9.2-0.9c2.3,0.7,4.9,1.6,7.9-0.1c-3.8-2.6-7.2-5-10.6-7.1c-3.5-2.1-7.1-4.1-10.8-5.9c-1.2-0.6-2.7-0.5-4.1-0.3
			c-6.5,0.8-13.1,0.1-19.4,2.6c-1.4,0.5-3.2,0-4.8-0.1c-1.4,0-2.9-0.3-4.2,0.1c-5.1,1.3-9.9,0.8-14.6-1.3c-2.5-1.1-5.2-1.2-7.7,0.2
			c-7,3.9-14,3.6-20.8-0.5c-3.5-2.1-6.8-1.9-9.9,0.5c-2.9,2.3-6.1,2.6-9.6,1.5c-1.8-0.6-3.8-1.1-5.5-2c-3.8-2.1-7.5-2.1-11.2-0.1
			c-4.1,2.2-8.3,2.1-12.4,0.3c-4.3-2-8.6-2.1-13-0.7c-5,1.6-10.2,1.3-14.6-1c-4.9-2.6-8.5-1.3-12.2,1.5c-3.4,2.6-6.8,2.3-10.5,0.6
			c-5.7-2.8-9.7-2.1-13.8,2.5c-2,2.2-4,4-7.1,4.3C682.8,234.1,681.3,234.9,681.1,237.7z M693,222.5c4.8-2.5,9.2-1.6,13.8,0.7
			c1.4,0.7,3.8,0.1,5.5-0.5c1.8-0.6,3.4-2.2,5.2-2.6c2.5-0.6,5.6-1.7,7.6-0.8c6.2,3,12.3,3.4,18.7,1.7c3.9-1,7.7-0.7,11.4,1
			c3.1,1.4,6.6,2.2,9.8,0.6c5.7-2.8,11.1-2.9,16.7,0.6c2.9,1.8,6.4,2.4,9.6,0.1c5.1-3.6,10-3.6,15.4-0.3c4.4,2.7,9.8,3.4,14.3,0.6
			c4.9-2.9,9.3-2.7,14.3-0.8c3.5,1.4,7.1,2.3,10.8,0.4c0.8-0.4,2.1-0.4,3.1-0.2c4.3,0.9,8.4,0.5,12.5-1.3c1.5-0.7,3.5-0.4,5.3-0.6
			c1.3-0.1,2.7-0.2,5.1-0.3c-2.9-3.2-5-5.7-7.3-8.1c-0.6-0.6-1.5-1.1-2.3-1.1c-5.1-0.5-10.2-0.9-15.3-1.2c-0.7,0-1.5,0.1-2.1,0.4
			c-4.8,2.8-9.5,1.5-14.4,0.1c-2.8-0.8-6.1-1.5-8.8-0.8c-4.7,1.1-9.1,0.8-13.7-0.2c-2.3-0.5-5.2-0.7-7.2,0.3
			c-3.6,1.7-6.8,1.1-10.3,0c-1.8-0.6-3.9-1.1-5.7-0.7c-7,1.5-13.9-0.1-20.8-0.5c-3.9-0.2-7.7-0.8-11.4,0.7c-3.3,1.4-6.4,1.5-9.8,0
			c-3.9-1.7-7.9-1.9-11.8,0.1c-1.3,0.6-2.7,0.9-4,1.4c-5.9,2.4-11.7,1.1-17-1.6c-3.3-1.7-6.3-1.8-9.7-1.3c-4.2,0.6-5.3,3.6-6.4,6.8
			C693.3,217.2,691.2,218.9,693,222.5z M787.1,262.5c2.4,0.4,4.7,1.1,7.1,1.3c10.6,0.6,20.1,4.5,29,9.9c3.3,2,6.2,2.3,9.6,1.3
			c1.4-0.4,2.8-0.7,4.1-1.1c5.1-1.6,10-1.9,15.1,0.4c3.8,1.6,7.9,2.4,12,1c6.6-2.3,12.9-1.7,19.3,0.8c2.7,1.1,5.8,1.4,8.8,1.8
			c2.4,0.3,4.8,0.1,8.2,0.1c5.2-3.9,11.4-8.6,17.5-13.2c-1.5-1.2-2.9-1.7-4.1-1.4c-4.7,1.5-9.3,0.8-13.7-0.6
			c-5.4-1.7-10.5-1.4-15.6,0.6c-4.3,1.7-8.6,1.8-13-0.1c-4.4-1.9-9-2-13.5-0.1c-7.5,3.2-14.7,3-22.2-0.2c-2.6-1.1-6.1-1.8-8.8-1.1
			c-9.2,2.1-18,1.3-26.8-1.9C795.5,258,791.3,259.4,787.1,262.5z M696.9,203.9c5.4-1.1,10.2-1.4,14.3,2c0.5,0.4,1.4,0.3,2,0.6
			c5.8,2.3,11.3,0.8,16.5-1.6c4-1.8,7.9-2.2,11.8-0.3c3.9,1.9,7.5,1.4,11.3-0.3c3.2-1.5,6.4-1.8,9.8-0.3c1.3,0.5,2.8,0.8,4.1,0.8
			c3.7-0.2,7.5-0.6,11.9-0.9c-1.2-0.9-2.4-1.5-3.1-2.4c-0.9-1.1-1.5-2.4-1.9-3.8c-1.7-4.8-2.5-5.6-7.5-5.5c-2.4,0-5,0.5-7.2,1.5
			c-3.4,1.7-6.5,1.3-9.7-0.2c-1.1-0.5-2.3-1.1-3.2-1.8c-2.8-2.1-5.6-1.9-8.5-0.3c-1.4,0.8-2.8,1.5-4.3,2.2c-4,2.1-8,1.9-11.6-0.7
			c-3.3-2.4-6.4-2.1-9.3,0.3c-3.2,2.7-7,3.2-11,3.3c-1.2,0-2.4,0.1-3.7,0.2c-0.4,1.5-0.7,2.6-0.9,3.9
			C696.8,201.4,696.9,202.3,696.9,203.9z M685.2,263.6c0.5,1.5,0.8,2.6,1.3,3.7c2.7,5.5,2.7,5.6,8.4,4.1c4.4-1.2,8.7-1.3,13.1,0.3
			c5.9,2.2,11.9,2.7,18.3,1.3c4.8-1,9.9-0.7,14.8-0.1c3.2,0.3,5.5-0.1,7.7-2.3c4.8-4.6,10.5-7.3,16.9-8.4c1.5-0.3,2.9-0.9,5.1-1.7
			c-4.5-2.2-8.2-2.5-12.1-1.2c-5.8,1.9-11.5,1.8-17.2-0.7c-3.1-1.3-6.2-1.4-9.3-0.1c-1.6,0.7-3.3,1.3-5,1.8
			c-6.3,1.9-12.4,3.4-19.2,0.7C700.3,257.8,692.8,260.5,685.2,263.6z M712.1,186.3c3.2,0.4,6.2,0,7.9,1.2c5,3.7,9.5,2.8,14.3-0.2
			c4.5-2.8,8.9-3,13.2,0.6c2.8,2.3,6,2.9,9.5,1c3.6-1.9,7.4-2.2,11.4-1.6c1.3,0.2,2.6,0,3.9,0c0.2-0.3,0.4-0.7,0.6-1
			c-0.9-1.1-1.9-3.1-2.9-3.1c-5.4-0.2-10-2.9-14.8-4.7c-0.7-0.2-1.4-0.2-2.1-0.4c-1.2-0.3-2.5-0.4-3.6-0.9c-3.3-1.6-6.3-1.4-9.6,0.4
			c-3,1.6-6.7,2.6-9.5,0c-4.1-3.9-8.4-3.7-13.3-2.3c-3.4,1-5.5,3-5.6,6.6C711.4,183.4,711.9,185,712.1,186.3z M769.6,165.4
			c-0.1-0.5-0.3-1.1-0.4-1.6c-5.1,1.5-9.5-0.1-14-2.1c-1.9-0.9-4.9-1.1-6.7-0.2c-4.1,2-7.5,2.2-11.4-0.3c-2.6-1.7-5.4-1.3-7.6,1.3
			c-0.7,0.8-2.1,1.6-3.1,1.6c-3.9-0.2-5.2,2.2-6.3,5.1c2.5,0.9,5.4,1.1,7.1,2.6c4.2,3.8,8.2,3.5,12.7,1.1c3.1-1.7,6-1.7,9,0.3
			c2.7,1.7,6.2,1.9,8.8,0.6C761.8,171.4,765.6,168.2,769.6,165.4z M790.6,204.2c2.5,2.6,4.6,2.4,6.9,1.5c4.3-1.8,8.5-1.9,13-0.5
			c2.1,0.6,4.6,0.8,6.8,0.4c5.7-1.1,11.2-0.9,16.7,1.2c1.7,0.7,4.2,1.2,5.6,0.5c4.6-2.3,9.2-2.4,14-1c0.6,0.2,1.3-0.2,2.5-0.3
			c-0.8-1-1.3-1.8-1.9-2.3c-3.3-2.8-12.2-4.3-17.2-2.6c-3.8,1.4-7.4,1.2-10.6-1.2c-3-2.2-6-2.5-9.5-1.7c-3.3,0.8-6.6,1.2-9.8-0.9
			c-0.7-0.5-2.2-0.6-3-0.2C799.7,199.2,795.4,201.6,790.6,204.2z M888.5,283.2c-0.1-0.4-0.1-0.7-0.2-1.1c-4.2-1.2-8.4-2.6-12.7-3.6
			c-2-0.4-4.3-0.5-6.2,0.1c-6.9,2.1-13.6,1.8-20.3-0.9c-4.2-1.7-8.3-1-12.3,1.7c0.8,0.6,1.3,1.1,2,1.3c13.4,3.7,26.9,6.7,40.9,5.5
			C882.7,285.9,885.6,284.3,888.5,283.2z M735.9,278.2c-3.8-2.1-7.6-1.5-11.3-0.3c-3.6,1.2-6.9,1.1-10.4-0.2c-3-1.1-6.1-1.9-9.2-2.6
			c-3.5-0.9-6.8-0.3-10.7,2.8C709,278.7,722.4,281.7,735.9,278.2z M845.3,194.5c-3.8-4.2-12.1-4.8-19.7-1c2.1,2.7,4.8,3.6,8,3
			C837.5,195.9,841.5,195.2,845.3,194.5z M747.4,156.1c-7.3-5.5-11.8-5.7-15-1c1.9,0.8,3.9,1.5,5.7,2.6
			C741.5,159.7,744.4,159,747.4,156.1z"/>
		<path d="M863.2,151.5c3.8,7.8,3.6,9.3-2.1,15.2c-1.7,1.8-2.7,3.6-3.2,5.9c-1.4,7-6.9,11-14,9.8c-3.3-0.5-6.6-1.6-9.7-2.7
			c-3.6-1.4-7.2-1.6-11-1.4c-4.6,0.2-9.2,0.2-13.8-0.1c-13.6-1-13.9-8.8-11.9-18.1c1.3-5.8,5.4-9.5,10.7-11.8
			c3.8-1.6,7.7-2.9,11.6-4.1c9.5-2.9,19-5.9,28.6-8.6c8.6-2.4,17.2-4.6,26.2-4.4c4.5,0.1,5.5,0.7,6.9,4.4c1.5,4,1.3,6-1.9,8.5
			c-2.5,1.9-5.5,3.2-8.4,4.5C868.7,149.8,866.1,150.5,863.2,151.5z M856,158.2c-1.4,0.4-3,0.6-4.1,1.4c-3.1,2.3-6,2.6-9.3,0.3
			c-4-2.7-8.2-2.4-11.9,0.7c-4.7,4-9.5,4.4-14.7,1.3c-2.7-1.6-5.5-1.4-8.2-0.4c-2.2,0.8-3.5,2.5-3.3,4.9c0.2,2.5,0.5,5.4,3.4,6
			c4.2,0.8,8.6,1.4,12.1-1.9c3.9-3.6,8.5-4.5,13.4-3.7c4.8,0.8,9.3,0.4,14.1-0.7C852.3,165.1,854.3,162.4,856,158.2z M848.9,148.2
			c-2.1-0.1-4.4,0.3-6.2-0.5c-3.1-1.4-5.7-1.2-8.6,0c-1.3,0.5-2.8,0.5-4.2,0.7c-6.6,0.8-12.8,2.8-18.7,5.8c-0.9,0.5-1.7,1.3-2.3,1.9
			c3.3,1.1,6.4,1.8,9.2,3.1c3.1,1.4,5.8,1.2,8.4-0.9c0.7-0.6,1.5-1,2.2-1.5c4.1-3,8.6-3.7,12.9-0.9c4.3,2.7,7.2,1.3,10.1-1.9
			C850.8,152.1,849.9,150.3,848.9,148.2z M852.9,142.5c4.8,1.9,8.2-0.1,12.4-1.8C860.5,139.2,856.9,139.6,852.9,142.5z M843.3,172.4
			c0.1,0.5,0.3,1,0.4,1.5c2.8,0.9,4.8,0,5.9-3.4C847.5,171.1,845.4,171.8,843.3,172.4z"/>
		<path d="M1021.2,876c-0.7-13-1.6-26-2.5-38.9c-0.7-9.1-2.2-18.1-2.4-27.1c-0.4-16.4-0.1-32.8-0.2-49.2c-0.1-11-0.1-22.1-0.6-33.1
			c-0.6-11.9-1.3-23.8-0.2-35.8c0.4-4.3,0.8-8.5,0.8-12.8c0.1-12.5,0.1-24.9-0.1-37.4c-0.1-4.4-0.9-8.8-1-13.3
			c-0.2-10.3-0.3-20.7-0.1-31c0.3-16,0.5-32.1,1.3-48.1c1.3-26.2,2.1-52.3,0.6-78.5c-0.7-12.3-1-24.5,0.4-36.8
			c2-17.8,0.1-35.5-2.5-53.2c-1.9-13-4.1-26.1-4.4-39.3c-0.4-15.4-2.1-31,2.4-46.2c0.3-0.8,0.3-1.8,0.3-2.7
			c0-12.8,0.5-25.7-0.2-38.4c-1.1-19.7-0.7-39.2,2.9-58.5c2.9-15.4,3-30.8,1.3-46.3c-0.8-7.8-1.9-15.6-2.5-23.4
			c-0.6-7.3-0.6-14.6,0.6-21.8c1.6-9.3,3-18.6,4.2-28c2.6-20,1.9-40.2,1.4-60.3c0-0.5,0-1.1-0.1-1.6c-0.6-2.5-1.5-4.8-4.5-5.2
			c-4.2-0.5-8.4-1.1-12.6-1.4C989,7,974.6,6.2,960.2,5.4c-6.6-0.4-13.1-0.8-19.7-1c-4.1-0.2-8.2-0.1-12.3-0.2
			c-17.1-0.4-34.1-2.4-51.2-1.6c-12.6,0.6-25.3,0.3-37.8,2.1c-9.5,1.4-19.1,2.4-28.7,2.8c-35.4,1.4-70.9,2.6-106.3,0.3
			c-22.4-1.5-44.9-1.7-67.2-3.7c-23-2-45.9-0.6-68.8,1.1C558,6,547.8,6,537.7,5.6c-17.3-0.6-34.5-2.1-51.8-2.4
			c-17.4-0.2-34.9,1.1-52.3,0.8c-22.1-0.3-44.1-1.7-66.2-2.3c-28.5-0.8-57-1.4-85.5-1.8c-14.8-0.2-29.6,0.2-44.3,0.4
			c-5.7,0.1-46.6,0.1-61.4,0.3c-26.9,0.4-53.8,1.8-80.7,1.3C67,1.6,38.6-0.2,10.1,2.2C8.3,2.3,6.4,2.3,5.9,4.5
			c-0.6,2.4-1.3,4.8-1.4,7.3c-0.8,11.5-1.4,23.1-2,34.7C1.9,57.1,1.3,67.8,1,78.4c-0.2,7.1-0.3,14.2,0.1,21.3
			c1.2,17.9,3.2,35.8,4.1,53.8c0.9,19,0.6,38.1,1.4,57.2C7.7,233.9,5.9,257,4.2,280c-0.8,11-0.6,22.1-0.4,33.1
			C4.1,327,5,340.9,5.5,354.8c0.2,6.2,0.4,12.5-0.2,18.7c-3.1,33.9-4,67.9-5.1,101.9c-0.4,11.9-0.4,23.9,0.4,35.8
			C1.3,523,1.1,534.9,3,546.7c1.7,10.3,1.8,20.9,2.8,31.4C7,591,8.5,604,9.8,616.9c1.4,14.2,2.6,28.3,0.8,42.6
			c-1.5,11.6-2.3,23.4-2.9,35.1c-1,19.2-1.2,38.5-2.4,57.7c-1.3,22.1-2.4,44.1-1.3,66.2c0.4,7.1,1.4,14.2,1.2,21.3
			c-0.3,8.5-1,17.1-2.5,25.5c-2.3,12.4,0,24.4,1.6,36.7c7.3-0.5,13.8-0.9,20.4-1.5c6-0.5,12-1.1,18-1.7c4.3-0.4,8.5-1.1,12.8-1.2
			c5.2-0.1,10.3,0.7,15.5,0.5c17.1-0.5,34.2-1.1,51.3-1.8c13.9-0.6,27.7-2.7,41.6-0.8c12,1.6,24.1,1.2,36.3,0.8
			c19.2-0.6,38.4-1.2,57.6,1.5c10.3,1.5,21,1.5,31.4,1.4c21.7-0.2,43.4-0.7,65.2,0.6c18.8,1.1,37.7,0.8,56.6,1
			c8.2,0.1,16.4,0,24.6,0.2c31.7,1.1,63.4,1.3,95.1-0.2c18-0.8,36-1.2,53.9,0.8c3.9,0.4,7.8,0.4,11.7,0.5
			c24.8,0.5,49.5,0.5,74.3,1.4c16.4,0.6,32.7,0.1,49.1-1c15.1-1,30.2-2.2,45.4-1.1c6.9,0.5,13.9,0.4,20.8,0.2
			c27.6-0.6,55.2-1.7,82.8,0.3c20.1,1.5,40.2,1.3,60.3,2.2c21.9,0.9,43.8,0.2,65.7-0.8c5.7-0.3,11.4-0.3,17.1-0.8
			c1.9-0.2,4.1-1.3,5.5-2.6c2.4-2.2,3.7-5.1,3.7-8.6C1021,886.3,1021.5,881.2,1021.2,876z M223.6,7.5c8.3-0.3,16.6-0.1,25.7,0.5
			c-2.1,3.4-3.8,4.9-6.7,4.2c-1-0.2-2.2,0.1-3.1,0.5c-3.6,1.5-6.7,1.8-9.6-1.6c-0.8-0.9-3.3-0.7-4.9-0.5c-1.3,0.1-2.5,0.8-4.1,1.4
			C220.4,9.2,221.4,7.6,223.6,7.5z M298.2,156.2c1.3-0.5,2.5-1.3,3.8-2c3.5-1.7,6-0.9,6.8,2.9c0.8,3.6,1.3,7.4,1,11.1
			c-0.3,3.9-1.6,7.6-2.6,11.4c-0.3,1-0.9,2.1-1.7,2.6c-3.4,2.1-3.3,5.1-2.4,8.4c0.8,2.9,1.4,5.9,2.4,8.7c1.7,4.8,4.4,8.9,9.3,11.2
			c3.5,1.6,3.8,3.1,1.6,6.2c-1.2,1.6-3.1,2.7-4.8,4c-2.1,1.6-4.7,2.9-6.1,5c-3.7,5.4-8.7,5.9-14.2,4.5c-6.5-1.7-12.9-4.2-19.4-5.9
			c-4.6-1.2-9.4-2-14.2-2c-12-0.1-19.4,7.8-21.5,19.1c-0.2,0.9-0.2,1.7-0.3,2.8c-2.8,1.1-5.4,0.2-7.8-0.7c-7.4-2.9-14.8-3.3-22.6-2
			c-7.1,1.2-14.2,0.2-21-2.3c-1-0.4-2-0.8-3-1c-7.9-1.7-14.4-5.8-20.1-12.2c1.4-2.1,2.9-4.5,4.5-6.8l-0.2,0.2
			c3.3-6.7,11.5-23.6,10.2-24.7c0.6-1,0.6-8.4,0.7-11c0.2-10,0.5-20-2.7-29.6c-0.8-2.4-1.5-4.9-2.9-6.9
			c-8.1-11.3-16.6-22.2-29.7-28.5c-5.7-2.7-11-6.4-17.4-8c-5.9-1.4-5.8-1.8-6.2-8.8c1.6-0.5,3.3-1.3,5.1-1.6c9-1,30.6-2.9,30.8-4.6
			c5.7-2.1,8.4-7.4,9.8-13.6c0.2-0.9-0.9-10.2,3.5-11.9c6,4.1,11.9,8.1,17.3,2.9c7-6.7,14.8-11.3,23.8-14.6c4.3-1.6,9-3.9,10.5-9.1
			c0.5-2,0.6-4.1,0.8-6.1c0.1-1.7-0.2-3.5,0.1-5.3c1-5.5,5.3-8.4,10.8-7.5c0.5,0.1,1.1,0.5,1.5,0.4c6.5-1.1,7.8,3.5,9.1,8.6
			c-1.1,0.5,4.1,3.7,6.2,5.3c1.2,1,2.8,1.5,4.4,2c6.4,2.2,11.9,5.7,16.5,10.5c6.5,6.8,14.5,10.8,23.1,13.9c2.3,0.8,4.7,1.8,6.7,3.1
			c6.6,4.5,13.9,7.2,21.8,8.3c8.3,1.1,8.3,4.7,6.2,10.2c-3.2,8.4-4.9,17-6.8,25.7c-1.3,6.1-5.1,10.8-10.9,13.8
			c-4.9,2.6-9.4,5.8-12.9,10.2c-2.1,2.7-3.6,5.7-3.6,9.3C291.9,156.2,294.3,157.8,298.2,156.2z M359.9,212c3.5,2.7,7.1,5,7.7,9.9
			c-3,1-5.6,0.5-7.9-0.9c-4.2-2.4-8.3-2.8-12.5,0.3c-2.5,1.9-5.7,2.5-8.5,0.5c-4.7-3.2-9.5-3.6-14.6-1.1c-0.4,0.2-1,0-2.3,0
			c2.5-4.8,5.3-7.8,10.3-8.4c2.2-0.2,4.4-1.4,6.4-2.4c2.1-1,3.9-1.1,5.9,0.3C349.3,214,354.4,215.3,359.9,212z M346.5,206.1
			c2.9-0.4,5.9-0.8,8.4,2.5C351.1,210.3,348.7,208.5,346.5,206.1z M325.6,225.7c4.4-2.1,8.4-2.3,12.6,0.6c3.6,2.5,7.5,2.1,11-0.4
			c3.1-2.2,6.1-2.1,9.5-0.7c2.9,1.2,6.1,2,9.2,2.3c3.1,0.3,4.4,1.8,5,4.5c0.7,3.5,1.4,6.9,2.2,10.6c-2,2.1-4.4,3-6.1,1.8
			c-4.1-2.8-8.2-2.9-13.1-1.1c-0.3-2.6-0.4-4.6-0.7-6.7c-0.6-3.7-1.8-4.8-5.4-3.6c-3,1-5.7,2.8-8.5,4.3c-1.2,0.6-2.5,1.9-3.7,1.8
			c-3.8-0.5-7.4,0.4-11.1,1.2c-2,0.4-4.4,0.1-6.2-0.7c-4.6-2-8.9-1.8-13.4,0.1c-3.3,1.4-6.4,0.6-9.6-1.3c6.2-1.2,10-5.3,13.7-9.6
			c0.7-0.8,2.3-1.3,3.3-1.1C318.3,228.6,322,227.4,325.6,225.7z M489.7,314.9c4.9,3,10,2.3,15,1.5c2.8-0.5,5.1-0.4,7.5,1.3
			c2.7,1.9,5.7,1.4,8.6,0c2.6-1.2,5.2-2.2,8-2.9c2-0.5,3.6,0.3,4.7,2.5c1.6,3.1,3.6,6,5.8,9.7c-1.9-0.2-2.9-0.2-3.9-0.5
			c-3.2-1.1-6.3-0.8-9.4,0.1c-5.3,1.6-10.5,1.8-15.4-1.4c-3.4-2.2-6.9-0.7-10.3,0.1c-2.6,0.6-5.2,1.4-7.8,1.6
			c-1.1,0.1-2.8-0.8-3.4-1.8c-1.8-3.4-3.3-7-5.2-11.2C486.4,314.3,488.4,314.1,489.7,314.9z M482.3,308c0.3-1.1,0.3-2.4,0.9-3.4
			c2.2-4.2,5.7-4.3,8.2-0.3c1.3,2.1,2.3,4.4,3.8,7.4C490.4,310.3,486.5,309.2,482.3,308z M419.6,179.3c4.8-0.3,7.6,2.2,10.2,9
			c-1.7,1.7-3.4,2.5-5.9,1.8c-4.9-1.3-10.2-2.6-15.2-4.1c0-1.5,0-3.8,0-5.8C412.7,179.9,416,179.6,419.6,179.3z M417.6,174.7
			c3.4-3,3.4-3,6.4-0.5C421.4,174.4,419.5,174.6,417.6,174.7z M421.3,193.6c3,1.2,5.5,1.8,8.6,0.5c1.4-0.6,3.8-0.4,5,0.5
			c5.3,4.1,10.3,8.6,15.4,13c0.2,0.2,0.1,0.7,0.2,1.4c-3-0.7-5.8-1.8-8.6-1.8c-2.8,0-5.5,1.3-8.3,1.6c-1.4,0.1-3.3-0.5-4.4-1.4
			c-2.6-2.4-5.4-2.6-8.4-1.8c-2.5,0.7-4.1,0-5.2-2.3c-1.5-3.3-3-6.7-4.7-10.4C415.3,191.2,418.5,192.4,421.3,193.6z M426.9,210.8
			c3.9,3,8,3.3,12.6,1.9c1.9-0.6,4.2-0.1,6.2,0.3c1.9,0.3,3.8,1.6,5.6,1.5c4.6-0.3,7.1,2.4,9.5,5.6c1.6,2.1,3.2,4.2,4.8,6.3
			c-0.2,0.2-0.4,0.5-0.5,0.7c-2.4-0.8-4.8-2.3-7.2-2.4c-2.4-0.1-4.7,1.4-7.1,2c-3.9,0.9-7.8,0.9-11.1-1.9c-2.8-2.3-5.8-3.3-9.4-2.4
			c-2.2,0.5-3.7-0.1-4.9-2.2c-1.5-2.8-3.3-5.4-5-8.3C422.7,209.6,424.7,209.1,426.9,210.8z M437.6,228c2.5,1.4,4.9,3.2,7.6,3.6
			c3,0.4,6.3-0.2,9.3-1c3.1-0.8,5.8-1.5,8.5,0.7c0.8,0.6,1.9,1,2.9,1.2c7.3,1.8,7.3,1.7,12.7,7.4c-1.4,1.6-3,0.8-4.3,0.2
			c-4.1-2-8.2-1.9-12.4-0.7c-5.4,1.6-10.7,2.1-16-0.9c-1.4-0.8-3.4-0.3-5.2-0.6c-1.3-0.2-3-0.4-3.7-1.2c-2.3-2.6-4.2-5.6-6.4-8.6
			C433.6,225.6,435.5,226.8,437.6,228z M441.7,242.6c1.7,0.4,3.6,0.5,5.2,1.2c4.1,1.9,8.2,2.3,12.5,1.3c6-1.4,11.8-2.1,17.6,0.9
			c1,0.5,2.6,0.7,3.6,0.2c5.5-2.5,8.5,1.1,12.3,4.4c-7.7,3.4-14.9,6.2-22.8,2.6c-2.7-1.2-5.4-1.1-8.3-0.4c-3.6,0.8-7.4,0.9-11,1.5
			c-2.5,0.4-4.2-0.6-5.4-2.5c-1.6-2.5-3-5.1-4.5-7.6C441,243.7,441.4,243.1,441.7,242.6z M468.7,257.9c6.5,2.8,13,2.9,19.7,0.2
			c2.3-0.9,5.2-0.5,7.8-0.5c1.2,0,2.6,0.6,3.7,0.3c6.9-2,11.7,2.8,17.2,5.4c-5.4-1.2-10.3,0.1-15.1,2.4c-3.1,1.5-6.1,1.8-9.1-0.2
			c-2.4-1.6-5.1-1.3-7.7-0.4c-2.3,0.8-4.7,1.5-6.6,2.1c-3.7-3.3-6.9-6.2-10.1-9.1C468.3,258.1,468.6,257.8,468.7,257.9z
			 M479.1,272.4c2.8-1,5.7-2.3,8.8-2.9c1.6-0.3,3.6,0.3,5.1,1.1c3.8,2,7.5,1.9,11.2-0.1c3.9-2.1,7.9-2.5,12.4-1.6
			c3.1,0.6,6.5-0.5,10.9-0.9c6.4,4.7,7.8,7.8,5.8,14.5c-1.6-0.4-3.3-0.5-4.9-1.1c-4-1.6-8-1.7-11.9,0.3c-4.3,2.2-8.3,2.1-12.7-0.4
			c-1.7-1-4.6-0.8-6.6,0c-5.9,2.2-10.8,0.2-15.5-3C480,276.9,478.6,275.3,479.1,272.4z M504.5,286.1c4.2,2.6,8.2,2.5,12.6,0.4
			c2.1-1,4.8-1.5,7.2-1.4c7.2,0.3,9,2.8,7.8,10.2c-2.8,2-5.5,2-8.3,0.1c-3.2-2.2-6.9-1.7-10.3-1c-3.3,0.7-5.8,0-8.3-2.1
			c-2.3-1.9-4.8-3.5-7.6-5.5C500.3,284.4,502.4,284.9,504.5,286.1z M532.7,302.6c0,1.5,0,3.7,0,5.9c-5,1.8-10,3.7-14.6,5.3
			c-2.4,0.8-3.3,0.5-6.7-2.7c1-3.7,1.8-7.4,3-11.8c2.6-1.5,6.2-0.9,9.4,0.5C526.3,300.8,529.7,301.5,532.7,302.6z M487.2,334.5
			c2.7-2,5.7-2.6,8.9-3c1.6-0.2,3.2-0.6,4.7-1.1c4-1.5,7.7-1.8,11.7,0.6c4.2,2.5,9,1.9,13.5,0.5c4.1-1.2,7.9-1.2,11.8,0.9
			c1.8,1,4,1.4,6.1,1.7c5.7,0.8,8,3.4,8.3,9.9c-3-0.3-6-0.9-8.8-0.6c-3,0.3-5.8,1.6-8.7,2.3c-0.8,0.2-1.8,0.1-2.6-0.2
			c-6.3-2.3-12.4-0.9-18.3,1.2c-4.4,1.5-8.6,1.8-13,0c-5-2-10-0.4-14.5,1.6c-5.8,2.5-11.4,3.6-17.6,1.9c-2.3-0.6-4.9-0.1-7.8-0.1
			c-1.4-7.3-4.3-9.1-11.6-7.3c-5,1.2-10.1,2.3-15.1,3c-2.2,0.3-4.6-0.3-6.7-0.9c-7-2-13.7-1.4-20.1,2.3c-1.3,0.8-2.6,2-3.1,3.3
			c-0.9,2.4-2.6,2.8-4.6,2.7c-1.9-0.1-3.9-0.3-5.8-0.8c-6-1.7-11.7-1.1-17.1,1.7c-2.6,1.3-5,1.6-7.7,0.6c-6.4-2.5-13-2-19.5-0.5
			c-5.9,1.4-11.6,1.6-17.4,0c-4.8-1.3-9.6-0.9-14.2,0.6c-7.4,2.4-14.7,2.5-22-0.1c-5.4-1.9-10.8-1.7-16.3-0.1
			c-7.3,2.1-14.7,2.5-22-0.4c-5.6-2.2-11.1-1.7-16.6,0.6c-5.6,2.3-11.4,2.6-17.1,0.1c-7.6-3.3-15.2-3.5-22.7,0.2
			c-4.4,2.2-8.5,1.7-12.7-0.7c-2.3-1.3-4.7-2.3-7.4-3.6c3.1-4.8,9.8-6.5,9.6-13.8c2.3,0.8,3.9,1,5.3,1.8c6.3,3.6,12.7,4.2,19.4,1
			c5.7-2.7,11.2-3,16.7,0.6c6.1,4,12.7,4.2,19.5,1.9c2-0.7,4.1-1.2,6.1-1.8c2.7-0.8,5.3-0.7,7.8,0.6c6.8,3.6,14.2,4,21.4,2.6
			c7.7-1.5,14.9-0.3,22,2.3c6,2.1,11.9,2.2,17.8,0.5c5.6-1.6,11.2-1.9,16.9-0.6c6.5,1.5,13,1.6,19.4-1c7.6-3.1,15.4-3.7,23.5-1.4
			c3.2,0.9,7-0.3,10.4-0.6c0.9-0.1,1.7-0.5,2.5-0.9c8.9-4.1,17.8-5.5,27.5-2.8c4.7,1.3,9.8,0.6,14.8-0.9c3.9-1.2,7.9-1.8,12-2.3
			c1.5-0.2,3.3,0,4.6,0.7c5.2,2.4,10.2,1.5,14.9-0.9c2.1-1.1,3.8-1.5,5.9-0.5C481.8,336.5,484.8,336.3,487.2,334.5z M596.8,375.1
			c-1.5-3.4-1.2-6.1,1.7-9.3c4,2.2,8,1.4,11.9,0.2c2.7-0.8,5.2-0.9,7.8,0.4c4.4,2.2,9,2.1,13.5,0.3c3.9-1.6,7.7-2.2,11.8-0.2
			c3,1.4,6.2,0.9,9.4-0.1c4.8-1.5,4.8-1.3,6.9,2.9c1.6,3.3,3.3,6.6,5.1,10c-5,2.5-10.1,4-15.7,3.4c-1-0.1-2.2,0-3.2,0.3
			c-4.1,1.7-8.1,1.7-12.5,0.3c-4-1.2-7.9,0.6-10.9,3.2c-3,2.6-6,2.9-9.3,1.4c-3.3-1.5-6.6-1.2-9.9,0.1c-2,0.8-4.1,1.2-6.1,2.1
			c-2.8,1.3-5.4,1.1-8.2-0.1c-5.4-2.1-10.9-1.8-16.2,0.1c-3.1,1.1-5.7,1.1-8.7-0.2c-6.4-2.9-12.8-2.9-18.9,0.9
			c-2.8,1.7-5.6,2-8.7,0.7c-1.8-0.8-3.7-1.2-5.6-1.7c-6.8-1.7-13.5-1.6-19.8,1.5c-4.3,2.1-8.6,2.5-12.9,0.8
			c-7.1-2.8-13.9-2.4-20.7,0.6c-5.2,2.3-10.5,1.2-15.8,0.3c-3-0.5-5.9-1.7-8.8-2c-3.3-0.4-6.9-0.9-10-0.1c-6.1,1.6-12,1.4-17.9-0.2
			c-5.6-1.5-10.9-1.9-16.7,0.2c-4.6,1.6-9.7,1.1-14.6-0.7c-3.5-1.3-7.4-1.5-11.5-2.2c0.6-2.3,1.3-5,2-7.9c3.2-1.7,6.5-2.3,10.1-0.9
			c5.2,2.1,10.6,1.5,15.7-0.4c5.2-2,10.3-2.6,15.5-0.3c1.1,0.5,2.4,0.8,3.6,0.8c3.2-0.1,5.7,1,8.4,2.7c3.5,2.3,7.5,2.5,11.1,0
			c3-2.1,6.2-3.2,9.9-3.4c1.9-0.1,3.8-1.1,5.7-1.2c3.5-0.3,7.2-0.8,10.6-0.2c4.9,1,9.6,0.7,14.1-1.1c4.5-1.8,8.8-2.1,13.5-0.6
			c4.5,1.4,9.2,1,13.7-0.6c5.5-1.9,10.9-2.6,16.8-1.6c4.3,0.7,8.9,0.3,12.9-2.2c2.4-1.6,5-1.5,7.7-0.6c1.7,0.6,3.4,1.2,5.1,1.5
			c2.5,0.4,4,1.5,5.3,3.7c2.7,4.8,7.4,6.8,12.7,5.3c2.2-0.6,3.8-0.9,5.2,0.9c3.1,4,7.6,3.3,11.8,3.5c2.4,0.1,3.6-1.8,3.9-3.7
			C597.6,379.6,597.7,377.1,596.8,375.1z M614.3,303.1c2.9-1.2,5.6-1.2,8,0.8c3.4,2.7,7.1,3,11.1,1.8c2.7-0.8,5.5-1.6,8.6,1.3
			c-0.4,2.2-0.8,4.5-1.3,6.7c-3.5,0.6-6.7,1.3-10,1.6c-1.1,0.1-2.6-0.2-3.5-0.9c-4-2.6-8.2-2.3-12.3-0.7c-4.5,1.7-8.3,1.6-12.6-1.1
			c-2.4-1.5-6.1-1.1-9.3-1.4c-1.4-0.1-2.7,0-4.4,0c-0.1-1.7-0.2-3.1-0.3-4.5c-0.4-6.2,3.1-5.6,6.7-3.9c1.1,0.5,2,1.4,3.1,2.1
			c2.3,1.6,4.8,2.1,7.6,1.1C608.5,304.8,611.5,304.2,614.3,303.1z M613.8,291.9c2.7-0.4,5.6-0.1,8.5,0.1c4.6,0.3,9.2,1,13.8,1.2
			c4.8,0.3,6.5,1.7,6.9,5.9c-4.1,0.7-8.2,1.4-12.3,1.9c-1.5,0.2-3.6,0.4-4.6-0.4c-4.5-3.6-9.3-4.1-14.4-2.2
			C609.3,293.8,609.7,292.6,613.8,291.9z M601.8,317.4c4.2,3,8.5,3.2,13.1,1.6c4.2-1.5,8.1-1.8,12.3,0.6c1.8,1,4.5,0.7,6.7,0.4
			c5-0.8,6.2-0.3,7.7,4.6c0.4,1.5,0.9,3,1.4,4.8c-1.1-0.1-1.9,0.1-2.4-0.1c-3.9-1.7-7.7-1.2-11.4,0.3c-3.5,1.4-6.9,1.5-10.3-0.2
			c-3-1.5-6.1-1.4-9.4-0.6c-9,2.3-10.2,1.8-15.6-5.8c-1.1-1.6-2.1-3.2-3.4-5.1C594.6,315.5,598.4,315,601.8,317.4z M617,333.7
			c5.2,2.3,10.2,2.4,15.5,0.2c1.4-0.5,3.1-0.3,4.7-0.2c1.2,0.1,2.4,0.9,3.6,1c7.4,0.2,10,5.4,12,11.4c-4,1.3-7.6,2.7-11.4,3.7
			c-1.3,0.3-3.4,0.2-4.4-0.6c-3.5-2.9-7.1-2.7-11.1-1.6c-2.2,0.6-4.4,1.2-6,1.6c-4-5-7.6-9.5-11.4-14.3
			C611.2,332.7,614.1,332.4,617,333.7z M625,352.9c4.3-1.5,8.2-1.6,12.2,0.8c2.6,1.6,5.4,1.6,8.1,0.2c2.8-1.5,5.9-1.8,8.8-0.5
			c1,0.5,2.1,1.8,2.4,2.9c0.5,1.6-0.3,3.1-2.2,3.7c-4.4,1.3-8.5,3-13.3,0.7c-2.3-1.1-6-0.4-8.7,0.5c-4.9,1.6-9.5,2.3-14.4-0.1
			c-1.7-0.9-4.1-0.5-6.2-0.3c-1.9,0.1-3.8,0.7-6.2,1.2c-0.9-3.8-0.7-6.6,1.4-9c0.5-0.1,0.7-0.2,0.8-0.1
			C613.4,356.9,619.3,354.9,625,352.9z M740.7,394c3,1,6,1.7,7.9-2c2.1,0.8,3.5,1.3,4.8,1.9c10.9,5.2,21.2,3.9,31.4-2.2
			c5.1-3,11.3-3.7,17.1-3.3c5.5,0.4,10.6-0.2,15.7-1.9c0.6-0.2,1.3-0.2,2.1-0.3c-2.4,6.5-4.8,12.8-7.2,19.3c-5.4,0-11.2-0.2-17,0.1
			c-3.5,0.2-7,0.8-10.4,1.8c-4,1.1-7.8,2.1-11.8-0.2c-2.8-1.6-6-0.7-8.7,0.8c-5.3,3.2-10.5,3.7-16.3,1.2c-4-1.7-8.4-0.8-11.5,2.1
			c-5.2,4.8-10.8,4.7-16.9,3c-7.7-2.2-15.1-1.8-22.1,2.4c-3.6,2.1-7.6,2.3-11.4,0.8c-8.2-3.2-15.7-1.7-23,2.5
			c-3.5,2-7.1,2.6-10.7,0.9c-8.1-4-15.5-2.8-22.6,2.4c-3.3,2.4-6.5,1.2-9.5-0.4c-4.6-2.4-9.5-3.2-14.5-2.1c-2.7,0.6-5.6,1.5-7.9,3
			c-4.1,2.6-8.2,2.9-12.8,1.5c-4.2-1.3-8.6-2.7-13-2.9c-4.5-0.3-9.2,0.4-13.7,1.4c-5.5,1.3-10.9,1.8-16.3-0.1
			c-4.6-1.6-9.1-1.6-13.4,1.1c-2.1,1.3-3.9,1.1-6,0c-6.5-3.2-12.6-2.5-18.7,1.4c-1.6,1-4,1.2-6,1c-1.9-0.1-3.7-1.1-5.6-1.8
			c-5.8-2.2-11.7-2.8-17.8-1.5c-8.4,1.9-16.7,1.5-24.7-1.4c-3.9-1.4-7.7-1.5-11.5-0.5c-5.7,1.6-11.2,1.5-16.5-1.6
			c-3-1.7-6.1-1.5-9.3-0.3c-1.8,0.7-3.7,1.4-5.5,2c-3.7,1.2-7,1.2-10.7-1c-3-1.8-6.9-2.1-10.9-3.2c0.1-1.3,0.2-3.4,0.3-5.4
			c4.5-3.5,9.3-4,14.2-1.8c4.2,1.9,8.3,1.5,12.5,0.1c4-1.3,7.7-1.7,11.8,0.2c5.3,2.5,11.2,2.2,16.8,0.6c7.3-2.2,14.3-2.5,21.1,1.5
			c3.8,2.2,8,1.9,11.9,0.3c6.4-2.6,12.8-2.5,19.3-0.3c5,1.8,10.2,1.7,15.2-0.1c4.9-1.8,9.7-1.9,14.7-0.6c5.3,1.5,10.6,1.2,15.8-0.4
			c4.6-1.4,9.1-1.2,13.6,0.3c4.5,1.6,9,1.4,13.7,0.1c2.5-0.7,5.3-0.9,7.8-0.5c6.1,1,12,0.9,17.9-1c2.4-0.8,5.3-0.9,7.9-0.6
			c4.7,0.6,9.2,0.2,13.7-1.4c3.9-1.4,7.7-2.1,12-0.8c5.3,1.6,10.7,0.8,15.5-2c3.8-2.2,7.6-2.6,11.8-1.2c4.9,1.6,9.5,1.1,13.5-2.5
			c2.1-1.9,4.5-2,7-1.2c5.2,1.5,10,1.2,15-1.4c2-1.1,4.8-0.8,7.2-0.7c2.8,0.1,5.5,1.2,8.2-1c0.8-0.7,2.6-0.2,4,0
			c3.2,0.4,6.3,1.2,9.4,1.2c1.8,0,4.1-0.7,5.4-1.9C728.1,392.5,734.1,391.8,740.7,394z M725.9,387.1c4.4-2.8,9.1-1.1,13.7,0.2
			c-4.5,0.6-9,1.1-13.5,1.7C726,388.3,726,387.7,725.9,387.1z M688.7,494.8c-2.2-0.4-4.6-0.3-6.8,0c-3.7,0.4-7.4,2-11,1.6
			c-3.5-0.4-6.9-2.5-10.3-3.9c-0.8-0.3-1.6-0.7-2.9-1.2c2.5-2.4,4.8-2.3,7.4-1.4c3.2,1,6.4,2.4,9.7,2.6c3.3,0.2,6.8-0.4,10-1.2
			c3.3-0.7,6.4-0.7,9.4,0.4c4,1.4,7.9,1.7,12.1,1.1c2.7-0.4,5.5,0,9.3,0.1c-3.8,3.9-6,7.2-11.4,5.3
			C699.3,496.5,693.9,495.7,688.7,494.8z M693.1,502.3c-4.3,2.2-7.7,1.8-12-1.2C685.4,498.6,689,500.8,693.1,502.3z M708.2,487.2
			c-4.1,0.5-8.1,0.6-12.1-0.9c-3.9-1.5-8-1.5-12.1-0.5c-5.7,1.3-11.2,1.5-16.7-1.2c-2.4-1.2-5-1.5-7.7-0.4c-5.3,2.2-10.8,2-16.3,0.6
			c-8.1-2-16.1-2.5-24.3-0.4c-1,0.3-2.7,0-3.3-0.7c-1.9-2.2-3.5-4.8-5.3-7.3c2.6-1.7,4.7-1.2,6.5-0.1c5.4,2.9,10.9,2.9,16.5,0.7
			c1.3-0.5,2.8-0.8,4.1-1.3c3.6-1.3,6.9-1,10.2,1c4.6,2.9,9.7,3.4,14.9,1.8c4.9-1.6,9.7-1.6,14.6,0.2c6.3,2.3,12.7,0.6,19-0.3
			c3.7-0.5,7-0.3,10.4,1c7.5,2.8,15.2,2.1,22.6,0c7.6-2.3,14.7-2,21.7,1.7c5.3,2.8,10.8,3,16.6,1.4c3.7-1.1,7.7-1.4,11.6-1.7
			c2.9-0.2,5.6,0.8,8.3,3.2c-3.8,5.4-8.7,9.1-14.6,11.1c-9.2,3.1-18.5,3.7-27.4-1.2c-5.5-3-11.2-4.4-17.5-4.1
			c-1.4,0.1-2.8-0.3-4.1-0.9C718.8,486.7,713.5,486.5,708.2,487.2z M634.8,489c-3.2,1.8-3.2,1.8-7.3-0.4
			C630.6,488.7,632.7,488.8,634.8,489z M764.7,477.6c-3.4,1-6.8,0.8-9.8-1c-8.4-4.9-17-5.1-26.2-2.4c-7.4,2.1-15,2.4-22.5-0.9
			c-2.7-1.2-6.2-0.6-9.4-0.5c-4.1,0.2-8.1,0.9-12.2,1.2c-1.9,0.1-4,0-5.8-0.8c-5.3-2.2-10.5-1.8-15.7-0.3c-5,1.5-9.5,0.9-13.9-1.7
			c-4.2-2.5-8.4-2.4-12.9-1c-2,0.6-4.1,1.2-6.2,1.8c-3.7,1.1-7.4,1-10.9-0.8c-3.1-1.7-6.3-1.8-9.8-1c-4.8,1.1-9.7,1.8-14.6,2.4
			c-1.4,0.2-3.4-0.4-4.4-1.4c-5.6-5.6-12.9-6.6-20.1-7.4c-6.3-0.6-12.5,0-18.2,3.1c-4.6,2.6-9.4,3.1-14.4,1.9
			c-3.4-0.8-6.6-0.8-10,0.3c-3.6,1.1-7.3,0.9-10.7-1.4c-3.2-2.2-6.8-2.8-10.6-1.2c-4,1.7-8.1,1.2-11.8-1c-5.2-3-10.4-2.9-15.9-0.9
			c-5.1,1.8-10.3,1.5-14.9-1.5c-4.5-2.9-8.8-3.1-13.6-0.8c-4.2,2-8.6,1.9-12.5-1.3c-4.2-3.4-8.9-4.2-14.1-2.4c-3,1-6.2,1.7-9.2,2.8
			c-3.2,1.1-6.3,0.9-9.3-0.6c-3.7-1.8-7.4-3.4-11-5.3c-2.6-1.4-2.5-1.6-3.9-5.7c1.4,0.6,2.6,0.8,3.5,1.5c5.2,3.9,10.8,3.6,16.3,1.3
			c5.7-2.3,10.9-2.2,16.5,0.2c3.6,1.5,7.3,0.8,10.9-0.6c1.7-0.6,4.2-1.4,5.5-0.6c6.3,3.9,13,4,19.6,2.5c5.6-1.3,10.6-0.8,15.5,1.6
			c4.3,2.2,8.6,2.1,12.9,0.2c2.6-1.1,5.2-1.1,7.8-0.1c5.2,2.1,10.4,2.3,15.7,0.6c3.9-1.3,7.7-0.9,11.5,0.4c6.9,2.4,13.9,3.2,21,1.5
			c6.2-1.5,12.1-0.4,17.6,2.3c4.3,2.2,8,2.3,12.6,0.1c5.9-2.8,12.2-3.7,18.4-0.1c4.2,2.4,8.8,2.7,13.4,1c1.7-0.6,3.4-1.1,5.1-1.5
			c2.7-0.7,5.2-0.5,7.7,0.9c7.3,4.2,14.8,4.5,22.6,1.5c5.7-2.2,11.3-2.8,17,0.3c4.4,2.3,8.9,2.1,13.4,0.2c4.8-2.1,9.8-3.6,15.1-2.9
			c3.6,0.5,7.4,1.3,10.7,2.9c3.6,1.7,6.5,1.3,9.5-0.7c1.3-0.9,2.6-1.8,4-2.6c3.4-2.1,6.7-2.7,10.5-0.6c5.3,2.9,10.8,2.8,16.4,0.1
			c3.6-1.8,7.4-2.1,11.3-0.1c5.5,2.8,11.1,2.3,16.5-0.1c3.5-1.5,6.7-1.8,10.2,0c3.7,2,7.6,1.7,11.4,0.5c4.4-1.4,8.4-0.5,12.3,2
			c-2.5,5.4-4.9,10.2-7,15c-1.1,2.4-2.8,3.5-5.1,2.2C782.1,473.8,773.4,475,764.7,477.6z M524.4,499.5c-1.2-0.3-2.5-0.6-3.5-1.2
			c-3.2-1.8-6.3-1.7-9.7-0.3c-3.3,1.3-6.4,1.4-9.4-1.4c-1-1-3.2-1.1-4.8-1.1c-1.9,0.1-3.8,1-5.7,1.2c-1.9,0.2-4.1,0.5-5.7-0.2
			c-6.2-2.7-12.2-5.7-18.2-8.9c-1.4-0.8-2.4-2.4-3.9-4c2.9-2.2,5.2-2.3,7.2-1c5.3,3.3,10.7,3.4,16.3,1.2c3.2-1.2,6.3-1.2,8.9,1.3
			c3.7,3.5,8.2,3.5,12.5,2.7c4-0.8,7.6-0.9,11.3,1.1c1.8,1,4.1,0.9,6.2,1.1c1.5,0.2,3.1,0,5,0c-0.1,2.1-0.2,3.6-0.4,5.2
			C530,500.1,529.1,500.7,524.4,499.5z M526.7,506.3c-3.2,8.4-11.2,5.6-17.2-1.2c3.1-2.1,5.9-3.5,9.7-1.3
			C521.4,505,524.2,505.4,526.7,506.3z M520.4,483.3c-3.4-1.6-6.6-2.1-10.3-1.3c-5,1-9.8,1.2-14-2.8c-2.1-2-4.9-1.9-7.6-1.1
			c-2.2,0.7-4.4,1.4-6.6,2c-2.9,0.8-5.7,0.6-8.2-1c-3.1-2.1-6.2-2.5-9.6-1.2c-2.6,1-4.6,0.5-6.9-1.2c-3.5-2.6-7.5-4.7-12.1-7.6
			c3.5-1.3,6.3-2.4,9.1-3.3c2.5-0.8,4.9-0.5,7.1,1.1c5.3,3.9,11.3,4.2,17.3,2.4c5.1-1.6,9.7-1.2,14.4,1.3c4.3,2.4,8.9,2.7,13.5,1.3
			c3.4-1,6.3-0.8,9.1,1.1c3.7,2.4,7.5,2.8,11.7,1.6c2.3-0.6,4.7-0.6,8.3-0.9c-1.2,2.5-1.7,3.6-2.3,4.7
			C530.4,484.4,526.4,486.1,520.4,483.3z M433.3,466c-2.2-0.6-4.3-1.1-6.5-1.7C429.7,462.6,431.9,463.1,433.3,466z M786.5,454.4
			c-2.2,0.5-4.9-0.7-7.1-1.7c-2.8-1.2-5.4-1.3-8.3-0.3c-2.2,0.8-4.4,1.4-6.6,2.1c-3.4,1-6.7,0.9-9.9-0.8c-4.4-2.4-8.8-2.3-13.4-0.4
			c-0.8,0.3-1.7,0.6-2.5,0.9c-4,1.9-8,1.7-11.8-0.5c-5.3-3.2-10.2-2.5-14.9,1c-0.7,0.5-1.6,0.9-2.3,1.4c-2.8,2.2-5.5,2.4-8.8,0.6
			c-6.2-3.5-13-3.4-19.7-1.7c-0.9,0.2-1.8,0.4-2.6,0.7c-6.5,2.9-12.7,3.5-19.4,0.2c-4.2-2-9.2-1.5-13.6,0.3
			c-7.9,3.3-15.4,3.4-23-1.1c-2.1-1.2-5.1-1.2-7.7-1c-2.6,0.2-5.2,1.3-7.7,2c-3.6,1-7.1,1-10.3-1c-6.6-4.1-13.4-3.5-20-0.5
			c-4.3,2-7.8,2.1-12.1-0.1c-5.2-2.7-10.9-3.2-16.7-2c-7.3,1.4-14.5,1.1-21.5-1.5c-4.3-1.6-8.8-1.5-13.1-0.1
			c-4.4,1.4-8.7,1.5-13-0.4c-3.4-1.5-6.9-1.6-10.4,0.1c-4.2,2-8.2,1.8-12.3-0.3c-4.8-2.5-9.7-2.9-15-1.3c-6,1.8-12,1.4-17.6-1.8
			c-2.8-1.6-5.4-1.7-8.1-0.3c-3.6,1.8-7.2,1.6-10.8,0.2c-5.2-2-10.4-2.2-15.6-0.1c-6,2.4-11.7,2.3-17.2-1.7
			c-1.6-1.2-4.4-1.2-6.6-1.1c-2.1,0.1-4.1,1.2-6.2,1.4c-1.9,0.2-4,0.2-5.7-0.4c-3.3-1.2-5.2-3.9-4.6-5.7c0.6-1.8,4.8-3.8,7.4-3.2
			c2,0.5,4.1,1.3,5.9,2.4c2.7,1.8,5.3,1.8,8.1,0.8c1.5-0.5,3.1-0.9,4.6-1.4c4-1.3,8.1-1.5,12,0.3c4.6,2.1,9.3,2,14,0.5
			c4.2-1.4,8.1-1.5,12.3,0.8c3.8,2,8.2,2.5,12.5,1.5c5.6-1.3,10.9-1.1,16.1,1.5c4.1,2,8.3,2,12.4,0.4c6.1-2.3,11.7-2.1,17.4,1.5
			c3.6,2.3,7.5,2.2,11.1-0.1c4.8-2.9,9.5-3.4,14.7-0.8c4,2,8.3,1.8,12.5,0.2c5.5-2.1,10.8-1.8,16,0.7c5.2,2.6,10.6,2.7,16.1,0.9
			c7.3-2.3,14.5-2.6,21.8,1c4.4,2.2,9.1,2.5,13.5-1.1c3.2-2.5,7.3-2.7,11.2-0.8c6.2,3,12.2,2.7,18.4-0.5c5.2-2.7,11-3.1,16.7-2.6
			c2,0.2,4.1,1.1,5.9,2.2c3.5,2.2,7,2.4,10.6,0.6c2.4-1.2,4.8-2.3,7.3-3.4c2.4-1.1,4.8-1.2,7.1,0.2c5.4,3.3,10.7,2.8,16.3,0.1
			c5.4-2.6,11-3.9,16.9-0.6c3.9,2.2,8,0.7,11.9-0.7c2.6-1,5.3-2.1,8.1-2.4c2.1-0.3,4.7,0.1,6.6,1.1c4.7,2.4,9.2,2.4,13.8,0.2
			c1.5-0.7,2.9-1.3,4.3-2.1c4.1-2.1,8-2.3,12.3-0.2c4.7,2.4,9.4,2.5,14.2-0.5c4-2.6,8.2-3.6,12.8,0.1c3.1,2.5,7.2,1.3,10.7-0.1
			c3.6-1.4,6.9-1.5,9.8,2.2c-1.2,6.2-4.1,11.7-7.3,16.8c-0.7,0.2-0.9,0.3-1.1,0.3C799.1,452.6,792.9,453,786.5,454.4z M803.8,431.1
			c-3.7,1.3-7.2,1.6-10.5-1.3c-1.1-0.9-2.9-1.3-4.5-1.3c-2.1,0-4.5,0.1-6.2,1.1c-5.6,3.3-10.9,4-17,0.7c-3.5-1.9-7.7-0.7-11.4,0.9
			c-2.1,0.9-4.2,2-6.3,2.9c-3.1,1.3-6.3,1.2-9.2-0.6c-4.7-3-9.5-2.4-14.4-0.6c-2.2,0.8-4.3,1.8-6.4,2.6c-2.6,0.9-5.2,1-7.7-0.5
			c-5.4-3.1-10.9-2.6-16.4-0.1c-1.3,0.6-2.6,1.2-3.9,1.8c-3.6,1.6-7.3,2-10.7-0.3c-4.3-2.8-8.4-2.1-12.6,0.2
			c-1.5,0.9-3.2,1.6-4.8,2.4c-3.1,1.5-5.8,1.4-9-0.6c-2.6-1.6-6-2.3-9-2.5c-5.9-0.3-11.7,0.6-17.1,3.3c-4.2,2-8.7,2.6-12.9,0.4
			c-6.1-3.2-11.8-2.4-17.2,1c-2.9,1.8-5.6,2-8.5,0.5c-8.3-4.4-16.8-3.8-25.4-1.1c-4.5,1.4-8.9,1.1-13-1c-6.3-3.1-12.6-3.3-19.1-0.5
			c-3.4,1.5-6.7,1-9.8-0.5c-6-2.9-11.7-2.5-17.3,1c-2.9,1.8-5.8,1.9-8.5,0c-6.3-4.2-12.8-3.8-19.4-1.3c-3.5,1.3-6.9,1.7-10.3-0.2
			c-5.4-3-11.3-3.1-17.1-2c-4.2,0.8-8.3,0.7-12-1.3c-4.4-2.4-8.8-2.4-13.4-1.1c-5.2,1.5-10,1.5-15-1.2c-1.9-1-4.5-1.1-6.7-1
			c-2.1,0.1-4.3,0.5-6.2,1.4c-6,2.8-11,0.9-15.8-2.7c3.9-6.4,11.5-8.7,17.9-4.6c5.1,3.2,9.8,2.8,14.7,0.6c4.4-2,8.4-2.3,12.7,0.2
			c4.2,2.5,8.9,2.5,13.5,1c4-1.3,8-1.3,12,0.1c8.3,2.9,16.8,3.5,25.3,1.4c5.8-1.4,11.3-0.3,16.8,1.4c2.5,0.8,5.1,1.8,7.7,1.8
			c2.3,0,5.1-0.5,7-1.7c4.8-3.3,9.7-3.6,14.6-1.1c4,2,7.5,2.6,11.5,0c2.8-1.9,6.2-1.3,9.3-0.2c5.6,1.9,11.3,1.9,16.8,0.2
			c8.2-2.6,16.2-2,24.1,0.7c1.8,0.6,3.8,1.2,5.7,1.4c3.9,0.4,7.6-0.1,11.2-2.4c5.7-3.5,11.9-4.5,18.3-1.3c1.6,0.8,3.2,1.6,4.9,2
			c3.3,0.8,6.4,0.9,9.5-1.6c5.4-4.6,11.5-5.9,18.3-2.5c5.1,2.5,10.4,2.2,15.2-1.2c5.6-4.1,11.6-4.2,17.8-2c5.9,2,11.5,1.7,17-1.1
			c5.4-2.8,11.1-3.6,17.1-1.5c2,0.7,4.1,1.1,6.3,1.4c4.8,0.7,9.2-0.4,12.9-3.7c3.4-3,7-3.8,11.3-2.3c6,2.1,11.8,2.1,17.4-1.7
			c2.1-1.4,4.6-2.2,7-0.5c3.7,2.5,7.6,1.8,11.3,0.6c5.1-1.7,10.1-2.9,15.6-1.7c3,0.6,6.3-0.4,9.5-0.2c4.4,0.2,5.1,0.5,5.6,4.8
			c0.5,4.7,0.1,9.5,0.1,15.5C810.5,428.8,807.2,429.9,803.8,431.1z M682.6,396.6c-2,0.5-4.3,0.7-6.2,0.1c-4.5-1.3-8.5-0.7-12.3,1.8
			c-3.7,2.4-7.4,3-11.6,1.2c-4-1.7-8.1-0.9-11.9,1.1c-5.3,2.9-10.6,3.1-16.5,1.7c-3.1-0.7-6.7-0.1-9.9,0.8
			c-4.9,1.4-9.6,2.3-14.7,1.6c-3.2-0.4-6.8,0.1-9.9,1.2c-4.4,1.4-8.7,1.7-13.1,0.6c-3.9-1-7.8-0.9-11.6,0.5c-3.7,1.4-7.3,1.4-11,0
			c-5.7-2.2-11.4-2.3-17.2-0.1c-4.5,1.7-9.2,1.2-13.7,0c-5-1.3-9.8-1.1-14.7,0.8c-4.6,1.8-9.4,2.1-14.1,0.3c-7-2.7-14-2.2-20.9,0.2
			c-4.3,1.5-8.4,1.5-12.3-0.9c-6-3.5-12.2-3.2-18.6-1.4c-3.2,0.9-6.6,1.5-9.9,1.5c-2.9-0.1-6-0.9-8.7-2c-3.7-1.5-7.2-1.9-10.9-0.3
			c-4.6,2.1-9.1,2.5-13.9,0.3c-3.1-1.5-6.6-1.3-9.9,0.1c-1.4,0.6-3,0.9-5,1.5c-2.3-3.7-4.4-7.3-6.9-11.3c5.9-2.6,10.9-5.2,16.9-1.5
			c4.4,2.7,9.6,3,14.5,1.4c6.6-2.1,12.9-0.9,19.5,0.2c4.1,0.7,8.5,0.9,12.6,0.2c5.1-0.9,9.8-0.8,14.7,0.5c4.6,1.2,9.4,2,14.2,2.1
			c3.6,0.1,7.5-0.6,10.9-1.7c4.9-1.6,9.7-2,14.6-0.4c6.3,2,12.4,2.3,18.6-0.8c6.4-3.2,13.3-2.1,19.8-0.1c5.6,1.7,10.6,2,15.8-1.3
			c3.4-2.1,7.4-2.2,11.3-0.5c4.9,2.2,9.8,2.8,15,0.5c3.6-1.6,7.4-1.3,11,0.1c5.3,2,10.4,1.6,15.5-0.8c4.1-2,8.1-2.2,12.4-0.4
			c3.4,1.4,6.5,0.9,9.4-1.7c3.4-3.1,7.3-3.8,11.9-2.8c3,0.6,6.3-0.2,9.5-0.4c2.8-0.2,5.6-0.6,8.4-0.9c0.7-0.1,1.6,0.3,2.1,0
			c5.3-2.8,11.1-0.1,16.5-1.5c0.6-0.2,1.4,0.1,2.1,0.1c3.2,0.2,6.3,0.7,9.5,0.6c6-0.2,8.2,0.7,12.2,5.7
			C691.6,393.9,687.2,395.5,682.6,396.6z M131.8,400.5c-2.7,1.1-6.7,0.1-9.9-0.8c-4.9-1.5-9.4-1.2-13.9,1.3
			c-5.5,3.1-11.4,3.5-17.5,2.3c-6.1-1.1-12.2-2.1-18.4-2.9c-1.9-0.2-3.9,0.2-5.7,0.8c-4.3,1.5-8.4,1.3-12.5-0.3
			c-4.4-1.8-8.6-1.7-12.9,0.6c-3.6,1.9-7.6,2.4-11.3,0.2c-5.2-3-10.1-3.4-15.5-0.6c-0.7,0.4-1.6,0.3-2.6,0.5c0-2.3,0-4.4,0-6.2
			c6-0.8,11.3-1.8,16.8-2.3c2-0.2,4.1,0.5,6.1,1.2c5.5,2.1,10.5,2.2,15.8-0.7c4.7-2.6,9.6-4,15.2-1.3c2.6,1.2,6.3,0.6,9.4,0.3
			c2.7-0.2,4.9-0.3,7.3,1.6c2.2,1.8,5.4,2.7,8.2,3.2c1.7,0.3,4-0.7,5.3-1.9c3.8-3.6,8.7-4.8,13.3-6.5c3.5-1.3,7-1,10.3,1.1
			c4.4,2.8,9,3.1,13.7,1c1.8-0.8,3.7-1.3,5.5-2c3.5-1.3,6.9-1.4,10.3,0.4c3.6,2,7.8,2.4,11.4,1c6.1-2.4,11.4-0.2,17.9,1.6
			c-2.1,1.2-3.5,1.9-4.8,2.6c-4,2-7.8,4.3-11.9,5.9c-2.4,0.9-5.1,1-7.7,1.1c-1.2,0.1-2.5-0.3-3.6-0.8
			C144.3,398.4,138.4,397.8,131.8,400.5z M149.4,406.4c-9.8,6.4-30.5,6.6-40.4,1.3c2.4-3.6,7.2-4.8,12.5-3.3
			c2.7,0.7,5.5,1.3,8.3,1.5c1.9,0.1,4-0.2,5.6-1C140.2,402.4,144.5,403.7,149.4,406.4z M285,241.3c-2.9,1.1-5.9,1.4-8.8-0.1
			c-4.3-2.3-8.6-2.2-12.8-0.2c-4,1.9-7.5,2-11.5-0.6c-2.1-1.3-5.4-0.7-8.6-1c0.2-3.8,2.2-6.8,5.8-8.7c5.8-3.1,12.1-2.9,18.2-1.3
			c4.8,1.2,9.4,3.1,14.2,4.8c3.5,1.2,7,2.4,11.1,3.8C289.8,239.2,287.5,240.3,285,241.3z M300,244.8c2.9,0.6,6.4,0.1,9.3-0.7
			c3.4-1,6.3-1.1,9.8,0.2c2.8,1.1,6.2,0.8,9.3,0.8c2.2,0,4.4-0.5,7.3-0.8c-0.5,3.9-0.8,6.7-1.2,9.6c-1.8,0.4-3.6,0.6-5.1,1.3
			c-3.7,1.7-7.1,1.6-10.8,0c-4.1-1.8-8.3-1.1-12.5,0c-2.4,0.6-4.9,1-7.2,1.7c-3.1,0.8-6,0.4-8.7-1.2c-4.8-2.8-9.7-2.6-14.9-0.8
			c-3,1.1-6.2,1.7-9.3,2c-2.4,0.2-4.9-0.3-7.3-0.8c-3.4-0.8-6.7-2-10.9-3.3c-0.7-1.5-1.7-3.9-2.7-6.3c2.7-2.8,5.5-2.7,7.9-0.8
			c3.8,2.9,7.5,2.6,11.5,0.7c4.1-2,8.1-2.4,12.2,0.1c3.2,1.9,6.6,1.7,9.7,0C290.6,243.9,295,243.7,300,244.8z M247.8,259.8
			c1.4-1.3,4.8-2,6.3-1.1c8.2,4.7,16.3,2.7,24.3,0.3c3.8-1.1,7.1-1.4,10.7,0.9c5.5,3.5,11.5,1.8,17.1,0.2c4.8-1.4,9.3-1.9,14,0.2
			c3,1.3,6.1,1.3,9.3,0.1c4.2-1.6,5.2-0.8,7.6,3.4c1.5,2.6,3.3,4.9,5,7.4c-0.1,0-0.6,0.1-1.1-0.1c-6-2.2-12-1.3-17.8,0.8
			c-3,1.1-5.9,1.2-8.8-0.2c-5.2-2.4-10.4-2-15.5,0c-6.7,2.5-13.2,2.7-19.6-0.8c-4.3-2.4-8.8-2.7-13.4-0.8c-0.8,0.3-1.7,0.4-2.6,0.8
			c-7,3.1-13.5,2.3-20.2-3.3C244.6,264.7,245.7,261.7,247.8,259.8z M335.9,299.8c-1.4-11.2,2.7-16.6,15.5-18.8
			c1,5.5,2.3,10.6,2.6,15.8c0.5,7.2,0.4,14.5,0.3,21.8c-0.1,3.6-1.2,4.8-4.9,5c-3.2,0.1-4.8,1.5-5.6,4.5c-0.4,1.8-1.6,3.3-3.8,3.1
			c-2.2-0.2-2.6-2.2-3-3.9c-0.2-1-0.5-2.2-0.3-3.2C338.8,316,336.9,307.9,335.9,299.8z M346.6,264.2c-2.1,0.3-3.9-0.1-4.5-2.6
			c-0.6-2.8-1.5-5.5-1.8-8.3c-0.4-5.9,4.2-11.3,10.1-12c0.5,5.1,1.1,10.2,1.4,15.3C352,260.8,349.8,263.8,346.6,264.2z M247.7,274.6
			c4.9,2.9,9.8,2.6,14.9,1c1.7-0.5,3.4-1.1,5.1-1.6c3.5-1,7-1,10.4,0.7c7.4,3.8,15,4.1,22.7,1.1c4-1.6,8-1.8,12-0.2
			c4.5,1.7,8.9,1.8,13.5,0.2c4.2-1.4,8.6-2.4,13.8,0.7c-3.6,2.6-6.4,4.7-9.2,6.8c-0.6,0.4-1.5,0.5-1.8,1c-3.3,5.1-8.3,4.4-12.9,3.2
			c-5.6-1.5-10.9-1.4-16.3,0.5c-3.7,1.3-7.4,1.1-11,0.2c-1.2-0.3-2.4-0.6-3.6-1.1c-5.8-2.6-11.7-2.6-17.7-0.4
			c-6.6,2.4-13.1,1.7-19.2-1.3c-4.7-2.3-9.3-2-13.9-0.1c-1,0.4-2,0.8-3,1.1c-5.9,1.8-10.8,0.6-14.9-5c2.2-0.9,4.1-1.7,6.1-2.4
			c4.4-1.5,8.9-2.8,13.1-4.6C240.1,272.4,244,272.4,247.7,274.6z M201,303.2c6,3,11.8,3.5,18,1.5c4.4-1.4,8.6,0,12.4,1.6
			c4.7,2,9.3,2.4,14.1,1.1c8.6-2.5,17-2.4,25.7,0.6c3.8,1.3,8.5,0.8,12.6,0c5.7-1.1,11.2-1.6,16.8,0.3c5.4,1.8,10.9,3.3,16.6,0.5
			c1.5-0.7,3.5-0.6,5.2-0.4c3.1,0.4,6.2,1.2,9.9,2c0.1,2.3,0.3,4.7,0.4,7.4c-6.4,0.4-11.6,3.8-17.7,2.8c-1.2-0.2-2.5-0.1-3.7-0.4
			c-4.5-1.4-8.8-1-13.1,0.4c-5.3,1.7-10.6,1.6-15.7-0.3c-3.9-1.4-7.7-1.4-11.6-0.5c-5.5,1.4-10.9,1.5-16.3-0.6c-4-1.6-8-1.3-12,0
			c-2,0.7-4.1,1.4-6.1,1.9c-3.9,1-7.8,1-11.3-1.3c-5.8-3.8-11.7-4.6-18.3-2.1c-4.3,1.6-8.7,1.3-12.9-1.1c-2.7-1.6-5.7-2.8-9-4.3
			c-0.1-0.3-0.2-0.5-0.1-0.6C186.8,301.2,191.5,298.5,201,303.2z M194.4,296.4c2.7-4,6.2-6.6,10-8.7c2.2-1.2,4.7-2.1,7.1-2.2
			c1.9-0.1,4.4,0.6,5.8,1.8c6,5.1,12.3,4.9,19,2.1c4-1.7,8-1.6,11.9,0.1c7.7,3.5,15.4,3.7,23.4,0.8c3.6-1.3,7.3-1.1,11,0.2
			c7.4,2.6,14.8,3.6,22.5,0.9c2.2-0.8,4.9-0.7,7.3-0.4c4.5,0.6,9,1.6,14,2.6c1,3,2.1,6.5,3.5,10.7c-1.7,0-3,0.3-4.2-0.1
			c-3.2-1.1-6.3-0.9-9.4,0.4c-4.7,1.9-9.4,1.4-14.1-0.3c-6.6-2.5-13.3-2.5-19.9-0.4c-4,1.2-7.8,1-11.5-0.5c-7.6-3.2-15.2-3.2-23-1.1
			c-6.2,1.7-12.2,1.8-18.2-1.1c-3.6-1.8-7.5-2.2-11.4-0.9c-6,1.9-11.9,1.9-17.5-1.4C199,297.8,197,297.4,194.4,296.4z M224.7,270
			c-5.2,1.7-10.7,2.9-15.6,5.4c-10.7,5.4-19.3,13.6-25.9,23.4c-4.9,7.2-6.6,15.7-3,24.4c0.8,1.8,1.6,3.6,2.3,5.4
			c2.6,6.2,1.6,9.7-3.9,13.8c-2.9,2.1-5.9,4-8.7,6.2c-1.3,1-2.5,2.1-3.3,3.4c-5.6,9.5-14.1,16-23.1,21.7c-3.8,2.4-8.4,4-12.9,4.7
			c-7.2,1.2-14.5,1.5-21.7,2.1c-5.5,0.5-10.3,2.7-14.3,6.5c-2.1,2-4.2,2.4-6.8,1.2c-4.3-2.1-8.7-4.1-11.8-8
			c-3.3-4.1-7.5-6.7-12.6-7.5c-7.2-1.1-14.5-1.8-21.7-2.7c-1.6-0.2-3.2-0.1-4.8-0.4c-2.6-0.6-4.5-2.1-5-4.9c-1.2-7-2.2-14-1.1-21.2
			c1-6.7,0.8-13.5,1.4-20.2c0.7-8.2-0.4-16.2-0.5-24.4c0-1.9,0-4,0.6-5.8c3.7-11.3,5.1-23.1,7.1-34.8c0.7-4,0.4-8.2,0.2-12.2
			c-0.5-15.1,2.7-14.2,13.5-16.5c6.3-1.4,13.1-0.6,19.7-0.8c16-0.3,32.1-1.5,48,0.6c8.7,1.1,17.3,1.9,26.1,1.6
			c3.8-0.1,7.8,0.3,11.4,1.5c2.3,0.8,4.4,3.1,5.9,5.2c4,5.6,9.7,7.5,16,8.4c6.9,1,13.7,2.3,20.6,3c5.3,0.5,10.7,0.4,16,0.2
			c4-0.2,7.7,0.3,11.6,1.3c4,1,8.3,1.1,13,1.6C240.6,262.7,233.5,267.1,224.7,270z M132.6,385.9c-1.6,0.5-3.1,1-4.7,1.5
			c-0.1-0.3-0.2-0.6-0.3-0.9c1.6-0.5,3.2-0.9,4.7-1.4C132.5,385.4,132.5,385.6,132.6,385.9z M21.5,341c-3.1-0.4-6-0.7-9.7-1.1
			c-0.1-2.2-0.5-5.2-0.1-8c0.1-1.3,1.6-2.7,2.8-3.4c0.5-0.3,2,0.8,3,1.4c0.7,0.5,1.2,1.3,1.8,1.9C23.3,335.2,23.5,335.9,21.5,341z
			 M18.2,356.8c-1.7,0.7-3.5,1.2-6.2,2.1c0-4.1-0.5-7.5,0.2-10.6c0.4-1.7,2.9-3,5.2-5.1c1.6,2,2.6,3.1,3.4,4.3
			C23.3,351,22.1,355.3,18.2,356.8z M21.4,376.8c1.3-0.1,2.6,0.9,4,1.2c2.2,0.4,5,1.7,6.6,0.9c5-2.6,9.7-0.7,14.5,0
			c2.8,0.4,5.3,0.4,8.3-0.3c3-0.7,6.7,0.4,9.7,1.6c3.1,1.3,5.8,3.9,9,6.2c-3.3,2.6-6.1,2.1-8.6,0.9c-4.8-2.4-9.2-1.6-13.7,0.7
			c-5.6,2.9-11.3,4.1-17.4,1.3c-3-1.4-6.1-1.1-9.4-0.5c-3.9,0.6-7.9,2.3-11.8,0.7c-0.3-0.6-0.6-0.9-0.6-1.2
			C11.1,381.1,14.3,377.2,21.4,376.8z M11.7,105.3c0.1-2.7,4.8-4.9,7.6-3.8c0.5,0.2,1,0.5,1.4,0.8c5.8,5.4,11.7,3.6,17.7,0.3
			c1.1-0.6,2.2-1.2,3.3-1.8c1.9-1,3.7-1.1,5.5,0.3c4.5,3.4,9.3,3.4,14,0.7c3.6-2,6.8-2,10.6-0.3c5.7,2.5,11.6,3.2,17.5,0
			c1.5-0.8,3.9-0.8,5.5-0.2c4,1.5,7.8,2.2,11.7-0.1c0.8-0.5,2-0.1,3.4-0.1c1.3,4.2,2.7,8.3,4.1,13c-7-1.4-13.5,2-20.3-0.6
			c-2.2-0.9-5.7,0.3-8.1,1.5c-3.5,1.7-6.8,2.3-10.2,0.5c-4.1-2.2-8.1-2-12.3-0.2c-5.2,2.2-10.5,2.1-15.6-0.1
			c-3.9-1.7-7.2-1.2-10.6,0.8c-0.8,0.4-1.6,0.8-2.4,1.3c-4.4,2.7-8.6,3.4-12.6-0.6c-2.7-2.7-5.7-0.3-8.8-0.3
			C11.6,112.7,11.5,108.9,11.7,105.3z M16,242.7c2.2-1.3,4.2-1.7,5.9,0.9c2.1,3,5,3.7,8.4,2.1c0.6-0.3,1.3-0.3,1.9-0.5
			c2,6.6,1.6,7.9-2.3,10.1c-2.5,1.4-4.6,0.9-6.9-0.5c-2.9-1.8-6.2-3.1-9.8-4.9C12.4,245.8,12.8,244.6,16,242.7z M11.8,260.8
			c0.3-3.9,2.2-5.3,6-4.6c0.9,0.2,1.8,0.5,2.4,1c3.6,2.8,7.6,4.5,12.5,3.3c-0.4,3.9-0.7,6.9-4.5,8.8c-3.2,1.6-5.7,2.3-8.6-0.6
			c-1.9-1.9-4.4-3-7.9-1.6C11.8,264.5,11.7,262.6,11.8,260.8z M148.1,224.3c-1.2,0.2-2.5,0.3-3.7,0.3c-8.2-0.4-16.4-0.6-24.5-1.3
			c-16-1.4-32-1.6-48-0.6c-6.9,0.4-13.9-0.2-20.8-0.4c-5.2-0.2-9.9,0.9-14,4.2c-2.6,2.1-4.2,4.7-4.1,8.3c0,2.8-2.6,5.9-5.3,6.3
			c-1.2,0.2-2.8-0.4-3.8-1.2c-4.3-3.5-4.2-3.5-10.2-2.8c0.4-4.2,0.7-7.9,1-11.5c0.1-0.7,0.4-1.4,0.8-1.9c2.2-2.7,9.5-4.8,12.7-3.3
			c5.4,2.5,10.4,1.5,15.3-1c1.4-0.7,2.9-1.3,4.4-2c2.6-1.2,5.3-1.2,7.7,0.1c4.7,2.6,9.6,2.2,14.5,0.9c2.2-0.6,4.4-1.3,6.7-1.9
			c3.8-1,7.6-1.3,11.5-0.2c5.5,1.6,11,0.6,16.3-1.2c4.9-1.7,9.7-2,14.7-1c6.1,1.1,12,1.1,17.7-1.9c1.1-0.6,2.9-1,4-0.5
			c5.1,2.3,10.4,2.1,15.7,1.9c0.7,0,1.4,0.2,2,0.3C157.2,221.1,155,223.3,148.1,224.3z M158.9,207.7c-1.4-0.2-2.8,0-4.2,0.2
			c-3.8,0.6-7.5,0.3-10.9-1.5c-2.8-1.5-5.5-1.2-8.2,0.2c-4.8,2.6-9.6,3.2-14.9,1.9c-5.6-1.4-11.2-1-16.8,0.9
			c-5.8,2-11.7,2.7-17.8,0.7c-2-0.7-4.6-0.3-6.8,0.1c-3,0.5-5.9,1.4-8.8,2.2c-4.9,1.4-9.7,2.1-14.5-0.6c-2.8-1.5-5.9-1.2-8.8,0
			c-2,0.8-3.9,1.7-5.9,2.6c-4.2,1.9-8.3,2.6-12.9,0.6c-1.7-0.8-4.1-0.6-6.1-0.3c-2.1,0.3-4,1.1-6.8,2c-0.1-2.8-0.4-5.3-0.1-7.6
			c0.4-3,6.8-5.9,10.6-5c1.5,0.4,3,1.1,4.5,1.5c6.6,2.1,13.1,1.8,19.2-1.5c4.3-2.3,8.5-3.2,13.2-1.3c6,2.4,11.9,1.5,17.5-1.5
			c5.1-2.7,10.1-3.8,15.8-1.2c5.7,2.6,11.7,1.1,17.1-1.1c5-2.1,9.7-2.8,15-1.1c4.4,1.4,9.2,1.5,13.4-1.1c2.5-1.6,5.1-1,7.7-0.3
			c4,1.1,7.9,1.9,11.8-0.7c1.9-1.3,3.7-0.2,5.8,1.5c-0.5,2.1-0.8,4.1-1.4,5.9C164.4,208.3,164.1,208.3,158.9,207.7z M158.3,191.5
			c-1.8,0.4-3.9,0.6-5.6,0.1c-4.6-1.6-8.9-2-13.3,0.6c-3.2,1.9-7,1.6-10.4,0.3c-5.8-2.2-11.2-1.2-16.6,1.1c-6,2.6-12,3.3-18,0.2
			c-3.5-1.8-7-1.1-10.4,0.2c-2.5,1-4.9,2.1-7.3,3.2c-4.3,2-8.6,2.3-12.9,0.3c-5-2.3-9.6-1.9-14.3,0.7c-6.6,3.7-13.5,4.4-20.5,1.3
			c-3.1-1.4-6.2-1.3-9.4-0.3c-1.1,0.4-2.4,0.5-4.7,1c0-3.8,0-6.8,0-9.8c0.1-4.6,3.8-7.4,8.2-6.3c0.9,0.2,1.8,0.4,2.5,0.9
			c5.5,3.5,11.1,2.3,16.3-0.4c4-2.1,7.7-2.4,11.7-0.9c4.8,1.8,9.5,1.3,13.9-1.1c5.3-2.9,10.6-3.5,16.4-1.2c5.5,2.2,11,0.6,16.1-1.6
			c3.8-1.7,7.4-2.1,11.4-1.2c5.3,1.2,10.7,1.1,15.4-2.3c1.9-1.4,3.9-1.4,6.1-0.6c1.8,0.7,3.7,1.3,5.6,1.9c3.7,1,7.4,1.3,10.8-1.1
			c2.2-1.5,4.5-1.6,7.1-1c4.1,0.9,8.2,1.4,12.7,2.1c0.8,3.5,0.6,5.1-1.1,11.3C164.3,189.9,161.4,190.9,158.3,191.5z M162.1,171.8
			c-1.6-0.2-3-1-4.6-1.4c-3.4-0.8-6.8-1.2-9.8,1c-2.8,2-5.6,1.8-8.6,0.8c-1.5-0.5-3-1-4.5-1.6c-3.5-1.4-6.9-1.4-10.1,1
			c-3.4,2.5-7.2,3.1-11.2,1.9c-5.6-1.7-10.8-1.1-16,1.5c-4.8,2.4-9.9,2.4-15,0.6c-4.2-1.6-8.4-1.5-12.5,0.3
			c-1.1,0.5-2.4,0.8-3.5,1.4c-4.7,2.5-9.4,3.1-14.3,0.6c-3.3-1.7-6.5-1.1-9.7,0.6c-1.9,1-3.9,1.8-5.9,2.5c-3.3,1.2-6.6,1.3-9.7-0.6
			c-3.8-2.3-7.7-2.2-12.9,0.7c0-6.4-0.2-11.3,0.1-16.3c0.1-3.1,4.7-5.2,7.8-3.8c0.8,0.4,1.6,0.9,2.2,1.5c4.6,4.5,9.9,4.3,15.3,1.9
			c1.3-0.6,2.6-1.2,3.8-1.9c2.9-1.6,5.7-1.7,8.7-0.4c2.1,0.9,4.4,1.4,6.6,1.9c2.9,0.6,5.6,0.3,8.2-1.4c1.6-1,3.4-1.8,5.1-2.8
			c3.9-2.2,7.6-2.4,11.6-0.1c5.3,3,11,2.4,16.6,0.9c2.1-0.6,4.1-1.3,6.1-1.9c3.3-1,6.7-1.2,10,0.1c4.8,1.9,9.4,1.6,13.9-1
			c4.8-2.8,9.5-3.4,14.6-0.3c3.7,2.3,7.8,2.4,11.5-0.5c0.7-0.5,1.5-0.9,2.3-1.2c5.1-2,9.1-0.1,10.7,5.1c0.3,0.8,0.5,1.7,0.8,2.6
			C171.2,169.1,168,172.7,162.1,171.8z M152,153.2c-1.5,0.5-3.7,0.2-5-0.7c-6.3-3.8-12.5-3.4-18.8-0.1c-4.1,2.2-8,2.1-12.3,0.6
			c-2.5-0.9-5.6-0.8-8.3-0.4c-3.5,0.5-6.9,1.9-10.3,2.8c-4.8,1.3-9.6,1-13.9-1.6c-3.8-2.3-7.4-2.2-11.1-0.4c-2.1,1-4.2,1.9-6.2,3.1
			c-3.6,2.2-7.4,2.8-11.2,0.9c-5.5-2.9-10.5-2.3-15.7,0.7c-1.5,0.9-3.2,1.5-5,2c-2.5,0.7-5.1,0.7-7.1-1.1c-3.6-3.4-7.8-4.7-13.2-3.2
			c0-3.1-0.1-5.8,0-8.4c0.2-5.3,4.7-8.1,9.6-6c1.4,0.6,2.7,1.7,3.9,2.7c3.1,2.8,6.5,3.5,10.4,2c2.8-1.1,5.6-2.2,8.4-3.4
			c2.6-1.1,5-1.3,7.6,0.1c5,2.7,10,3.1,15.3,0.3c4-2.1,8.3-2.2,12.5-0.7c5.3,1.9,10,1.3,14.7-1.8c5-3.3,10.2-4.4,16.2-1.8
			c4.2,1.9,8.8,1.5,12.9-0.7c3.1-1.7,6.1-1.7,9.2-0.1c2.8,1.5,5.4,0.9,8.2-0.4c7-3.4,13.3-1.3,17,5.3c1,1.8,2.3,3.5,3.6,5.3
			C159.3,150,155.8,151.9,152,153.2z M134.1,132.2c-2.9-1.7-6.3-1.1-9.3,0.5c-4.5,2.4-8.8,2.4-13.3,0.2c-4.6-2.2-9-1.5-13.3,0.6
			c-1.1,0.6-2.3,1.1-3.3,1.7c-4.4,2.7-8.8,3.4-13.7,1.3c-4.2-1.8-8.5-1-12.5,0.8c-5.3,2.3-10.2,2.6-15.2-0.6c-2.5-1.6-5.2-0.9-7.7,0
			c-3.2,1.2-6.3,2.7-9.5,3.5c-1.7,0.5-4,0.6-5.6-0.1c-2.7-1.2-5-3.7-7.7-4.5c-2.6-0.8-5.5-0.2-8.9-0.2c-0.1-3.6-0.5-6.9-0.3-10.2
			c0.2-3.5,4.2-5.6,7-3.4c5.6,4.3,10.9,3.7,16.3,0.1c3.7-2.4,7.4-2.9,11.6-1.1c4.9,2.1,10.1,2.1,15.1-0.1c4-1.7,7.8-1.8,11.8,0.1
			c3.7,1.8,7.5,1.9,11.2-0.6c2.8-1.8,5.9-2.1,9.2-1c3.4,1.1,6.8,1.1,10.5,0.3c3.7-0.8,7.8-0.4,11.7-0.4c3.4-0.1,6.7-0.2,10.1-0.1
			c5.4,0.2,9.8,3,14,5.9c1.6,1.1,2.8,2.6,4.6,4.3C142.6,132.2,139.4,135.3,134.1,132.2z M115.2,95.3c-1.2,0.1-2.5,0.5-3.7,0.3
			c-3-0.7-5.5,0.2-8.3,1c-1.9,0.5-4.3,0.5-6.1-0.3c-3.2-1.5-6.3-1.5-9.2,0C82,99.1,76.5,98.5,71,95.6c-2.6-1.4-5.1-1.3-7.7-0.3
			c-1.8,0.7-3.6,1.4-5.4,2.2c-3.2,1.3-6.3,1.4-9.1-0.9c-3.1-2.5-6.2-2-9.5-0.4c-2.7,1.3-5.3,3-8.2,3.7c-2.1,0.5-5,0.6-6.6-0.5
			c-4.1-2.9-8.1-4.1-14.1-1.3c0-5.1-0.2-8.8,0.1-12.4c0.2-2.4,2.3-3.7,4.6-2.9c1.4,0.5,2.8,1.6,4,2.6c4.1,3.5,7.3,4,12.2,1.5
			c2.1-1,4-2.3,6-3.4c2.3-1.4,4.6-1.7,7-0.1c5.7,4.1,11.2,3.6,16.8-0.2c3.3-2.3,6.7-2.6,10.6-0.8c4.3,2,8.9,2.4,13.4,0
			c3.2-1.8,6.5-1.7,9.8-0.5c4.7,1.7,9.3,2,13.9-0.5c2.7-1.5,5.7-1.4,8.8-0.7c2.9,0.7,6,1,9,1.2c1.4,0.1,3.1-0.1,4.1-0.9
			c3.5-2.9,7.1-2.5,11-1.1c1.6,0.6,3.8,0.7,5.2,0c4-2,7.6-0.6,11.3,0.2c-0.4,6.5-1.5,8-7.3,9.5c-6,1.5-12.1,3.1-18.2,4.4
			c-2.4,0.5-4.9,0.5-7.4,0.8C121.8,94.7,118.5,95,115.2,95.3z M10.9,274.6c0.4-2.7,3.5-4.3,6.1-3.4c0.8,0.3,1.7,0.7,2.3,1.3
			c2.7,2.8,5.8,4,9.9,1.6c0.9,4.8-0.1,8.3-2.7,11.2c-3-1.3-5.5-3.1-8-3.1c-2.4,0-4.9,1.7-8.4,3.1C10.4,281.2,10.4,277.9,10.9,274.6z
			 M12.2,289.9c8.8-4.1,6.8-5.9,14.3,2.2c-0.6,2.4-1.2,4.9-1.8,7.6c-2.5-1-4.7-2.5-6.9-2.5c-2.3-0.1-4.7,1.2-7.1,1.8
			C9,293.2,9.2,291.3,12.2,289.9z M26.6,373.7c-4.7-3.8-8.9-0.1-13.9,0.9c0-3.6,0-6.6,0-10c4-1.2,6-2.5,9.5-4
			C23.9,365.4,25.1,369.3,26.6,373.7z M23.6,329c-2.2-1.1-3.7-1.5-4.7-2.4c-3.5-3.1-3.5-3.2-7.7-3.3c-1.1-5.1,1.4-8.6,6.4-8.8
			c2.4-0.1,5.7,3.3,6,6.5C23.8,323.2,23.6,325.5,23.6,329z M11.9,406.4c5.9-1.2,15.4-0.8,21.5,0.9c3.1,0.9,6,0.8,8.7-0.8
			c3.6-2.2,7.3-2.4,11.3-1c5,1.7,9.9,2.5,15.1,0.4c3.7-1.5,7.3-0.2,11.2,2.2c-3.1,3.8-4.3,8.4-9.2,9.7c-2.9,0.8-5.5,1-8-1.1
			c-3.3-2.7-6.9-2.7-10.5-0.8c-4.2,2.3-8.1,2.4-12-0.5c-2.3-1.7-4.6-1.7-7-0.6c-1.6,0.7-3.2,1.5-4.8,2.3c-5,2.8-5.2,3.1-9.5-0.9
			c-2.7-2.4-5.3-0.9-8.7-0.8c0.1-3,0.3-5.7,0.4-8.4C11.1,406.8,11.5,406.5,11.9,406.4z M173,385.5c-4.2-1.7-8.3-1.2-12.5,0
			c-4.1,1.2-8.1,0.8-11.9-1.1c-1.7-0.9-3.6-1.4-6.2-2.4c6.3-3.5,11.8-6.6,17.4-9.6c3-1.6,6.1-1.5,9.2,0.1c5,2.5,10,2.2,14.8-0.5
			c3.7-2.1,7.1-2.6,11.1-0.5c4.4,2.3,9.3,2.2,14.1,0.8c3.7-1.1,7.2-1.2,10.8,0.8c3.7,2.1,7.8,2.5,11.9,0.8c3.7-1.5,7.3-1.4,10.8,0.4
			c4.7,2.4,9.2,3.1,14.2,0.4c2.8-1.5,4.6-0.8,8.1,1.8c-3.9,1.3-7.6,1.1-11.2,1.2c-13.1,0.5-26.3,0.7-39.4,1.9
			c-6.1,0.6-12.4,2.3-17.9,4.9c-5.7,2.6-11.2,1.9-16.9,2C177.2,386.5,174.9,386.3,173,385.5z M254.3,370.3
			c-3.5,1.6-6.9,1.3-10.3-0.3c-4.5-2.2-9.2-2.6-14-0.8c-3.4,1.3-6.7,0.9-9.8-0.9c-3.7-2.2-7.4-2.3-11.3-1.1
			c-5.2,1.6-10.1,1.6-15-0.9c-4-2.1-8-0.7-11.7,1.2c-5.6,2.9-10.8,2.6-16.1-1.6c3-3.7,5-8,9.9-9.6c2.5-0.8,4.8-1.3,7.2,0
			c1.1,0.6,2.4,0.8,3.4,1.5c5.7,3.8,11.5,4,17.7,1c6-2.9,12.2-2.6,18.1,0c7.6,3.3,14.9,2.6,22.3-0.4c3.3-1.3,6.6-1.8,9.9-0.5
			c9.7,4,19.4,3.3,29.3,0.6c2.6-0.7,5.8-0.6,8.4,0.2c9.5,2.9,18.8,3.5,28.3,0.4c3.8-1.3,7.7-1,11.6,0c5.8,1.5,11.6,1.4,17.4,0
			c6.3-1.4,12.6-2.2,18.9,0.4c3.3,1.4,6.8,1.2,10.2-1c3.7-2.4,7.8-3.3,12.3-1.7c1.3,0.5,2.8,0.9,4.2,0.8c6.7-0.4,12.1,2.4,17.5,5.9
			c3.9,2.5,8.1,4.4,12.2,6.7c1.5,0.8,2.8,2,4,3.7c-0.8-0.1-1.7,0-2.3-0.3c-6.2-2.9-12.3-1.5-18.2,0.5c-4.7,1.6-9.4,2.1-14.1,0.2
			c-2.7-1-5.2-0.7-7.8,0.3c-2.3,0.9-3.7,0.3-5.5-1.7c-8.3-9.4-18.3-12.5-30.2-7.7c-9.8,4-19.9,6.7-30.6,7c-2.8,0.1-5.6-0.5-8.5-0.8
			c-5.1-0.5-10.2-1.5-15.3-1.5c-8.2,0.1-16.3,1.1-24.5,1.5c-2,0.1-4.2-0.5-6.2-1.2C261.9,369,258.1,368.6,254.3,370.3z M409.9,354.7
			c4.2-3.2,8.6-3.5,12.2-2.3c8.5,2.6,16.6,0.7,24.9-0.4c1.7-0.2,3.4-0.4,5.6-0.6c-1,3.7-2,6.7-2.5,9.8c-0.5,3-0.3,6-0.5,9.1
			c-0.1,1-0.3,2.1-0.7,3.1c-1.9,4.2-6,5.2-8.3,1.4c-5.1-8.2-13.2-11.6-21.4-15C416,358.5,413.2,356.6,409.9,354.7z M559.2,366.6
			c-1.4-0.3-2.8-0.3-4-0.8c-3.9-1.6-7.7-1.4-11.3,0.7c-3.8,2.2-7.7,2.5-11.8,1.7c-5.2-1-10.2-0.5-15.2,1.2
			c-5.3,1.8-10.7,2.4-16.2,0.7c-3.8-1.2-7.7-0.7-11.5,0.7c-5.1,1.9-10.2,2.7-15.7,1.5c-2.7-0.6-5.6,0-8.4,0.3
			c-2.8,0.3-5.5,1-8.2,1.5c-0.7-4.1-1.3-7.5-1.8-11c-0.5-3.3,0.9-5.4,3.9-6.7c3.9-1.6,7.7-2.4,11.9-1.2c4.4,1.3,8.8,0.9,13.1-0.9
			c2.3-1,4.7-1.8,7-2.5c3.5-1.1,6.7-1.4,10.3,0.2c4.4,1.9,9.1,1.4,13.6-0.2c5.6-2.1,11.2-3.4,17.1-1.2c3,1.1,6.1,0.6,8.8-1
			c4.4-2.7,8.3-0.2,12.3,0.8c0.4,0.1,0.9,0.6,1.1,1.1c1.9,4.4,3.7,8.8,5.5,13.3C559.7,365.1,559.4,365.6,559.2,366.6z M460.7,332.2
			c-6.2-2.6-12.3-1.7-18.3,0.3c-6.1,2-12.2,2.6-18.4,1c-7.8-2.1-15.3-0.9-22.4,2.3c-6.6,2.9-13.2,4-20.2,1.9
			c-5.7-1.7-11.4-0.6-16.8,1.5c-7.4,2.9-14.8,3.4-22.5,1.5c-5.1-1.3-10.3-0.6-15.3,0.8c-6,1.7-11.9,1.8-17.8-0.3
			c-7.8-2.9-15.8-3.7-24.2-2.1c-6.4,1.2-12.8,0.6-18.7-2.6c-3.2-1.7-6.6-1.4-9.9-0.6c-2.6,0.6-5.1,1.5-7.7,2.2
			c-5.4,1.6-10.6,1.3-15.4-1.9c-6.2-4.1-12.7-4.3-19.3-1.2c-6.1,2.9-11.7,2.2-17.9-0.5c-4.7-2-6.7-5.1-8.2-9.4
			c-0.7-2.1-1.9-4.1-2.8-6.2c0.4-0.4,0.7-0.9,1.1-1.3c2.1,0.8,4.3,1.4,6.1,2.4c5.4,3.1,10.8,4.1,16.9,2.2c5.2-1.6,10.5-1.4,15.3,2
			c3.5,2.5,7.6,2.8,11.8,1.8c1.7-0.4,3.5-0.8,5.1-1.4c4.8-1.8,9.5-2.3,14.5-0.2c5.5,2.3,11.2,1.5,16.8,0.2c3.1-0.7,5.9-0.6,8.9,0.4
			c6.3,2.1,12.4,2.1,18.9,0.1c3.2-1,7.1-0.6,10.5-0.1c4.6,0.6,9.1,1.2,13.7-0.3c2.1-0.7,4.5-0.4,6.7-0.6c1,2.9,1.6,5.9,2.9,8.5
			c3,6.1,8.1,6.6,12.6,1.6c0.9-1,1.4-2.4,2.4-4.1c3.4,1.2,5.7-0.4,8.5-2.9c4.1-3.7,9.7-2.8,14.8-1.6c1.9,0.4,3.7,1.4,5.6,1.9
			c4.8,1.2,9.5,1.4,14.1-0.8c1.9-0.9,4-1.4,6-2.3c2.6-1.1,5.2-1.3,7.8-0.4c6.5,2.4,12.9,2.2,19.4,0c3.9-1.3,7.7-1.3,11.5-0.3
			c6,1.6,11.7,1.7,17.5-1.5c4.7-2.6,7.4-1.5,10.6,2.8c1.4,1.8,2.7,3.7,4.3,5.9C466.5,332.7,463.6,333.5,460.7,332.2z M448.3,319.2
			c-2.5,0.6-5.5,0.7-7.9-0.1c-6.6-2.2-13-1.3-19.4,0.5c-4.4,1.2-8.7,1.4-13.1-0.3c-4.4-1.6-8.9-1.5-13,0.7c-7.1,3.8-13.9,3.9-21.5,1
			c-4.1-1.6-9-1-14.3-1.5c-0.1-0.8-0.5-1.8-0.5-2.9c-0.3-5.7,0-6.4,5.8-7.3c4.7-0.7,9.6-1.1,14.3-0.4c6.2,0.9,12,0.2,17.7-2.1
			c4.6-1.8,9.3-2.7,14-0.8c4.6,1.9,9.1,1.4,13.5-0.5c4-1.7,7.8-2,11.9-0.7c1.6,0.5,3.5,0.7,5.3,0.5c8.1-1.1,13.4,4.7,19.6,8.1
			c0.3,0.2,0.3,0.9,0.5,1.4C456.9,316.4,452.7,318.2,448.3,319.2z M435.7,299.6c-4.1-1-8.1-0.9-12,0.9c-4.4,2-8.9,2.4-13.4,0.4
			c-4.4-2-8.8-1.1-13,0.6c-7.2,2.9-14.3,3.9-21.9,1.8c-2.7-0.7-6,0.3-8.9,0.6c-2.1,0.2-4.1,0.6-6.8,1c-0.1-3.6-0.4-6.6-0.2-9.5
			c0.1-0.9,1.2-2.3,2.1-2.6c3.9-1.3,7.9-2.5,12-0.7c4.4,1.9,8.8,1.4,12.9-0.6c5.1-2.4,10.1-3.1,15.3-0.3c2.8,1.5,6,1.5,8.8,0.4
			c4.9-2,9.9-2.5,15.1-1.7c2.4,0.3,5,0.3,7.4,0.2c3.5-0.1,5.7,1.4,6.6,4.9c0.4,1.5,1.1,3,1.7,4.6C439.3,301,437.5,300.1,435.7,299.6
			z M425,285.1c-4.7-1.3-9.2-0.3-13.6,1.3c-4.1,1.5-8,1.6-11.7-0.9c-2.6-1.7-5.4-1.6-8.2-0.7c-2.4,0.7-4.7,1.7-7,2.6
			c-3.6,1.4-7.1,1.5-10.9,0.2c-2.6-0.8-5.5-0.6-8.3-0.5c-1.7,0.1-3.4,0.7-5.4,1.1c-1.9-4.3-3.8-8.4-5.9-13.1
			c2.2-1.2,4.4-0.9,6.6-0.2c2.2,0.7,4.4,1.3,6.6,2.1c3.7,1.2,7.3,1.1,10.9-0.5c5.6-2.5,11.2-2.8,17-0.3c4,1.7,8.2,2.1,12.6,0.8
			c1.3-0.4,2.9-0.6,4.2-0.2c5.7,1.9,11.4,3.7,17.4,7.7C427.1,284.8,425.9,285.3,425,285.1z M396.3,271.7c-6.6-3-13.2-2.6-19.6,0.3
			c-3.5,1.5-6.8,1.5-10.3,0.3c-3.6-1.3-7.3-2.4-11-3.6c2.4-4.6,8-7.3,13.2-5.4c5,1.8,9.6,1.7,14.3-0.7c4.1-2.1,7.8-1.3,11.1,2.2
			c2.2,2.4,4.8,4.6,7.6,7.1C399.4,273.1,397.8,272.3,396.3,271.7z M368.1,258.3c-2.4-1.2-5.8-0.2-9.5-0.2c-0.4-1.8-0.9-3.5-1.2-5.2
			c-0.2-1.2,0-2.4,0-3.7c2.9-2,5.6-2.8,8.8-0.7c3.5,2.3,7.1,1.5,10.5-0.7c2.8,2.7,5.3,5,8.2,7.8
			C379.2,258.8,374.4,261.3,368.1,258.3z M148.4,48.3c5.1-2.7,9.7-2.8,14.7-0.3c4.6,2.3,9.3,2.2,13.9,0.1c3.8-1.7,7.4-2.1,11.4-0.6
			c3.4,1.3,6.9,1.2,10.4,0c3.7-1.3,7.6-1.6,11.9,1c-1.3,0.8-2.4,1.7-3.8,2.3c-4.2,1.9-8.4,3.9-12.7,5.5c-1.8,0.7-4.2,0.8-6.1,0.3
			c-5-1.3-9.7-1.1-14.5,1c-9.1,3.9-18.2,1.7-27.1-0.6c-3.2-0.9-6.1-1.3-9.3-0.1c-11.4,4-14.1,3.8-26.1-1c5.1-2.7,10-5.4,15.1-7.9
			c1.1-0.5,3-0.5,3.9,0.1C136.3,52,142.5,51.4,148.4,48.3z M136.2,43.9c3.4-0.6,5.5-1,8.5-1.5C141.5,45.1,141.5,45.1,136.2,43.9z
			 M159.9,40.4c1.9-0.6,3.2-1.1,4.5-1.3c10-1.8,20-3.4,29.9-5.5c3.2-0.7,6.4-2.3,9-4.2c2.6-2,5-3,8.3-2.1c1.5,0.4,3.1,0.2,4.8,0.3
			C214,32,212,36,210,39.9c-4.9,0.9-10,1.9-15.2,2.7c-1.7,0.2-3.6,0.1-5.2-0.5c-5-1.9-9.8-1.4-14.5,0.8
			C169.8,45.3,165.1,44,159.9,40.4z M185.7,62.1c-2.3,3.8-5.1,6.7-9.2,8c-2.6,0.8-3.8-1-4.2-5.9C176.4,61.5,180.5,60.5,185.7,62.1z
			 M219.5,17.1c1,0,2.2-0.3,3.1-0.8c3.3-1.8,6.1-1.9,8.9,1.3c1.1,1.2,3.4,1.3,5.2,2c-1.9,4.2-3.6,5.5-7.3,3.3
			c-4.7-2.8-8.8-2.7-13.4-0.5c-0.9,0.4-2,0.2-3.9,0.4C214.1,19.1,216.1,17.2,219.5,17.1z M142,9.4c24.2-0.7,48.2-1.5,72.2-2.2
			c0.1,1.1,0.2,1.3,0.2,1.5C208.6,19,196.2,30.3,183,29c-0.5-0.1-1.1-0.1-1.6,0c-10,1.2-20.1,2.5-30.1,3.8c-1.2,0.2-2.5,0.5-3.7,0.6
			c-11.9,0.4-22.4,5.3-32.8,10.3c-3.2,1.5-6.4,3.1-9.7,4.4c-2.1,0.8-4.4,0.9-6.6,1.4c-2.1-3.8-1-6.7,0.6-9.6
			c0.8-1.6,2.1-2.9,3.1-4.4c3.9-6.4,9.1-10.4,16.9-11.4c4.7-0.6,9.2-2.8,13.6-4.6C137.2,17.5,141,14.7,142,9.4z M129.4,9.6
			c-5.9,3.1-11.7,6.6-18.7,3.5c-4.8-2.1-9.3-2.5-14.3-0.2c-5.8,2.6-11.6,1.4-17-2C96.1,8.3,112.7,8.1,129.4,9.6z M16.3,8.3
			C23.4,6.4,30.8,7,38,7.5C48.5,8.2,59,9.3,69.4,10.2c0.7,0.1,1.4,0.3,2.1,0.4c-4.7,5.3-13.1,7.1-18.9,4c-4.8-2.6-9.8-2-14.5-0.1
			c-5.9,2.5-11.4,1.8-17-0.7c-2.5-1.1-5.4-1.5-8.4-2.3C12.6,8.9,14.6,8.8,16.3,8.3z M12.6,18c2.6-1.7,5.3-1,8,0.4
			c5.9,3.1,12.1,4,18.5,1.2c4.9-2.2,9.7-2.1,14.3,0.8c2.8,1.8,5.7,1.9,8.7,0.8c2.8-1.1,5.6-2.2,8.4-3.4c3.4-1.5,6.8-1.6,10.3-0.2
			c5.9,2.4,11.7,2.7,17.5-0.4c2.4-1.3,5-1.9,8.5,0.6c-5.3,1.2-8.2,5.8-13.7,5.6c-2.2-0.1-4.6,1.7-6.6,3.1c-3.5,2.6-7,3.3-11,1.4
			c-3.4-1.6-7-1.5-10.3,0.3c-5.1,2.8-10,3-15.1-0.2c-1.6-1-4.1-0.7-6.1-0.6c-1.4,0.1-2.7,0.9-4,1.5c-5,2.4-9.7,2.2-14.7-0.6
			c-2.8-1.6-6.4-1.8-9.6-2.5c-1.3-0.3-2.8-0.2-4.6-0.3C10.9,22.3,10.1,19.6,12.6,18z M22.8,31.4c2.6,1,5.3,2,7.8,3.4
			c2.1,1.2,4,1,6.1,0.1c1.3-0.5,2.6-1,4-1.6c3.9-1.7,7.6-2.5,11.5,0.5c3.1,2.3,6.8,1.6,10.3,0.5c1.9-0.6,3.6-1.7,5.5-2.1
			c1.8-0.4,4.1-0.8,5.6,0c5.7,2.8,10.6,1.9,15.4-1.9c0.5-0.4,1.2-0.8,1.8-1.1c0.3-0.1,0.7-0.1,1.5-0.3c0.7,2.7-0.9,5-1.2,7.5
			c-0.3,2.4-0.6,4.9-0.9,7.5c-3.1,0.7-5.8-0.1-8.2-1.6c-3.9-2.4-7.8-2.1-11.7-0.4c-0.7,0.3-1.4,0.5-2,0.8
			c-6.8,4.1-13.5,3.7-20.1-0.6c-3.5-2.2-7-2.3-10.7-0.6c-1.8,0.8-3.5,2-5.3,2.4c-2.1,0.5-4.8,1.3-6.6,0.5c-4.5-2.2-9-4.2-14.4-3
			C9.6,30.9,13.6,27.7,22.8,31.4z M10.7,49.4c0.5-2.5,4.8-3.8,8.2-2.6c1.5,0.5,2.9,1.4,4.2,2.2c3.1,1.9,6.4,2.4,9.6,0.5
			c6.1-3.6,11.9-4.2,18.4-0.3c4.9,3,10.6,2.6,15.9,0c1.9-0.9,3.9-1.6,5.9-2.5c2.3-1,4.4-0.9,6.6,0.3c2,1,4.2,2.1,6.4,2.4
			c3.8,0.5,7,1.1,9.4,4.7c1.3,1.9,4.5,2.5,6.9,3.6c-7.1,4.2-13.1,4.7-22.5,0.6c-4.8-2-8.8-1.7-13.2,0.7c-5.7,3.2-11.5,4.2-17.7,0.7
			c-4.7-2.7-9.4-2.2-14,1.1c-5.6,4-9.5,3.6-15.2,0.1c-2.8-1.7-6.1-2.7-9.7-4.2C10.2,54.5,10.2,51.9,10.7,49.4z M10.5,65
			c0.1-0.8,2.2-2.1,3.1-1.9c2.2,0.4,4.4,1.3,6.3,2.6c5.7,3.8,11.4,4.1,16.8,0.2c3.5-2.5,7-3.3,10.9-1.4c0.5,0.2,1.1,0.2,1.5,0.5
			c6.3,3.8,12.3,2,18.3-0.7c1.3-0.6,2.6-1.1,3.9-1.8c2.1-1,3.9-0.7,6.1,0.3c7.1,3.3,14.5,4.7,22.2,2.3c2.4-0.7,4.8-1.3,7.2-1.9
			c3.3-0.8,6.6-0.9,10,0.2c6.8,2.2,13.6,2.7,20.2-0.7c3-1.5,6.1-1.2,9.3-0.2c3.8,1.2,7.9,1.9,12.5,3c-0.2,2.7-0.3,5.1-0.5,8.1
			c-4.9-0.9-9.3-1.1-13.5,0.8c-1.2,0.5-3.1-0.2-4.6-0.8c-3.2-1.2-6.3-1.2-9.2,0.8c-3.2,2.2-6.7,2.2-10.2,1.2
			c-5.5-1.6-10.8-1.7-16.1,1.1c-2.9,1.5-5.9,1.1-8.8-0.1c-4.4-1.8-8.5-2-12.8,0.4c-3.7,2-7.7,1.5-11.4-0.1
			c-3.8-1.7-7.2-1.6-10.7,0.3c-0.9,0.5-2,0.7-2.9,1.3c-4.4,2.8-8.6,2.9-12.9-0.2c-3-2.2-6.3-2.1-9.5-0.2c-1.5,0.9-3.1,1.7-4.7,2.6
			c-4.2,2.4-8,2.9-12.1-0.9c-2-1.9-5.4-2.3-8.9-3.7C8.8,73,10,69,10.5,65z M11.2,304.5c2.8-1.4,5.7-4.5,9.3-2.2
			c3.5,2.2,4.3,5.5,2.6,9.4c-2.1-0.6-4.2-1.6-6.3-1.6c-2,0-4,1.2-6.2,1.9C9.8,309.1,8.1,306,11.2,304.5z M12.5,420.5
			c2.7-1.4,4.7-0.9,6.8,0.9c3.3,2.9,6.7,3.5,10.5,0.6c3.7-2.8,7.7-3.9,12.3-1c3.6,2.3,7.6,1.6,11.2-0.2c3.3-1.6,6.3-1.6,9.6,0.4
			c1.9,1.2,4.2,1.7,7,2.8c-0.5,1.6-0.9,3.2-1.5,4.7c-1.8,4.2-4.3,5.7-8.4,3.9c-4.2-1.8-7.9-1.4-11.6,0.7c-2.1,1.2-4,1.1-6.1,0.1
			c-4.5-2.2-8.8-2.4-13.1,0.4c-3.3,2.2-6.6,2.2-9.5-1c-1.7-1.9-4-2.1-6.4-1.2c-1.1,0.5-2.3,0.7-4.3,1.3c0-2.8,0.1-4.8,0-6.7
			C8.8,423.6,9.9,421.8,12.5,420.5z M13.5,437c2.2-1,4-1.1,5.8,0.6c3.8,3.5,7.8,3.7,12.1,0.8c3.6-2.4,7.5-2,11.2-0.3
			c2.6,1.2,5.2,1.6,7.6,0c4-2.7,7.7-1.7,12.1,1.4c-1.9,3.3-3.5,6.4-4.7,8.5c-4.7,0.5-8.3,0.9-12,1.1c-1.7,0.1-3.7,0.1-5.1-0.6
			c-3.6-1.9-6.8-1.3-10.2,0.4c-1.6,0.8-3.2,1.7-4.9,2c-1.5,0.3-3.6,0.7-4.6-0.1c-3.4-2.7-6.9-3.2-10.7-1.5
			C7.6,442.2,8.5,439.3,13.5,437z M52.6,452.8c-0.8,4-6.4,11.4-9.2,12c-1.3,0.3-2.9,0-4.1-0.6c-2.8-1.3-5.5-1.3-8.1,0.3
			c-4.1,2.4-8.1,2.6-11.9-0.3c-3.3-2.4-6.1,0.3-10.1,0.8c-0.1-2.6-0.5-4.9-0.3-7.1c0.2-3.2,4.9-6,7.9-4.9c1.2,0.4,2.2,1.1,3.3,1.8
			c2.8,1.7,5.7,1.9,8.5,0c4.3-2.8,8.7-3.4,13.6-1.4c1.5,0.6,3.4,0.1,5.1,0C49.1,453.3,50.8,453,52.6,452.8z M8.8,472.9
			c0.4-3.1,5.6-5.9,8.8-4.9c1.2,0.4,2.2,1.1,3.4,1.6c3.7,1.7,7.4,2.2,11.2-0.1c2.3-1.4,4.9-2.2,7.7,0.4c-1.5,2.7-2.3,6.5-4.6,8.1
			c-3.6,2.4-8.2,3.4-12.4,5c-0.1,0.1-0.4,0-0.5-0.1c-4-3.2-8.5-3-13.6-0.7C8.8,478.4,8.5,475.6,8.8,472.9z M14.8,484.7
			c1.5-0.2,3.3,0,4.6,0.7c4,2.5,7.9,2.7,12-0.1c-0.5,6.1-6,11.8-11.3,12.1c-0.7,0-1.6,0.1-2-0.3c-2.7-2.5-5.8-1.9-8.8-0.9
			C7.1,488.7,8.6,485.6,14.8,484.7z M9.6,501.1c3.2-2.3,4.4-2.1,10.2,1.6c-3.6,6-3.6,6-11.6,4.8C7.3,505.2,7.1,502.9,9.6,501.1z
			 M13.5,512.8c-1.6,2.3-3,4.3-4.4,6.3C7,512.7,7.5,512.1,13.5,512.8z M948.9,894.9c-2.5,0-5.1,0-7.8,0
			c-35.1-0.7-70.2-1.5-105.3-2.1c-16.4-0.3-32.8-0.1-49.2-0.3c-14.6-0.1-29.2-0.8-43.8-0.5c-17.5,0.3-34.9,1.5-52.3,2
			c-30.6,0.9-61.3,2-91.9,0.8c-20.5-0.8-41-1.4-61.5-1.5c-22.8-0.2-45.6,0.3-68.4,0.4c-5.7,0-11.4-0.6-17.1-0.6
			c-10.3-0.2-20.7,0-31-0.2c-22.4-0.5-44.9-1.3-67.3-1.8c-20.7-0.4-41.3-0.7-62-0.9c-10.3-0.1-20.7,0.4-31,0.3
			c-5,0-9.9-0.6-14.9-1.1c-17.1-1.5-34.2,0.5-51.3,0.6c-9.6,0-19.2-0.3-28.8-1.1c-15.1-1.1-30.2-1.1-45.3,0.8
			c-17.2,2.2-34.5,2-51.8,1.7c-10.3-0.2-20.7-0.1-31,0.1c-3,0.1-6.1,0.5-8.9,1.5c-6.1,2-11.9,0.3-18.1,0.1c-0.3-1.3-0.8-2.3-0.8-3.3
			c-0.4-10.3-0.4-20.6,1.2-30.9c2-13.5,2-27,0.5-40.5c-1.4-12.5-1.7-24.9-1.1-37.3c1.2-27.2,2.4-54.5,3.8-81.7
			c0.3-6.2,1.2-12.4,1.7-18.6c0.8-9.6,1.6-19.1,2.4-28.7c0.6-7.8,1.4-15.6,1.6-23.4c0.2-4.9,0-10-0.7-14.9
			c-2.2-16.2-4.8-32.4-7.1-48.6c-1.1-7.8-1.9-15.6-3-23.3c-0.9-5.8,1.2-10.4,4.7-14.7c6.9-8.4,13.8-16.7,20.4-25.4
			c3-3.9,5.9-8.3,7.2-13c2.3-8.7,7.3-15.7,12.5-22.7c9.6-12.7,17.9-26.1,24-40.9c1.4-3.3,3.1-6.4,4.7-9.6c0.8-1.5,1.8-2.4,4-2.6
			c5.2-0.5,9.7,0.9,14.5,2.3c8,2.3,16.1,4.4,24.4,5.7c8.1,1.3,15.9-1.9,23.4-4.5c13.9-4.8,26.5-12.1,39.1-19.5
			c4.5-2.6,9.7-4.5,14.8-5.8c10-2.5,20.2-3.7,30.7-3c8.5,0.6,17.1,0.4,25.6-0.2c4.7-0.4,9.5-1.9,13.7-3.9c8.9-4.2,17.7-5.9,27.4-3.4
			c6.8,1.7,13.7,0.7,20.7,0c7.8-0.8,15.5-1.9,23.1-3.6c2.8-0.6,5.6-1,8.3-1.9c6.9-2.3,13.7-1.6,20.5,0.4c4.1,1.2,4.8,3.1,2.4,6.6
			c-1,1.5-2.3,2.7-3.3,4.2c-3.5,4.6-3.7,9.4-0.9,14.5c1.9,3.4,3.7,6.9,5.5,10.3c1.8,3.4,1.5,6.6-1.2,9.3c-2.1,2.2-4.4,4.1-6.5,6.3
			c-1.7,1.8-3.5,3.6-4.7,5.7c-4.3,7.2-1.2,15.4,6.7,18.2c1.8,0.7,3.7,1.4,5.7,1.5c4.4,0.3,7.6,2.6,10.8,5.4
			c10.4,9.3,22.9,13.2,36.6,14.3c9.1,0.7,18,2,26,7.1c3.7,2.4,6,5.7,8,9.2c4.2,7.4,11.1,10.5,18.5,12.5c12,3.2,23.2,7.9,33.6,14.6
			c1.9,1.3,4,2.4,6.1,3.3c3.9,1.8,7.8,1.8,11.8-0.4c3.2-1.8,6.7-2.7,9-6.1c3.1-4.6,3.7-9.5,3.6-14.7c-0.1-1.6-0.3-3.2-0.3-4.8
			c0.5-10.9,7.9-18.8,19.4-20.4c5.1-0.7,10.3-0.9,15.5-0.9c4,0,7.7,1.2,11,3.7c1.9,1.4,3.7,3,5.8,3.9c2.2,0.9,4.8,1.9,7.1,1.6
			c4.1-0.7,6.8,0.8,9.3,3.7c3.6,4,7.6,7.3,12.3,10.2c4.7,2.9,9.6,3.3,14.9,2.8c11.9-1.2,23.3,0.2,34,6.1c5.9,3.2,12.4,5.5,18.8,7.5
			c9.3,2.9,17.9,0.3,26-4.6c3.5-2.1,6.9-4.5,10.5-6.3c4.3-2.2,9-2.3,13.5-0.4c12.8,5.3,26,5.4,38.7,1.1c8.6-2.9,17-7.5,22.8-15.2
			c1.4-1.8,2.5-4,3-6.2c1.3-6.8,4.7-12.7,8.4-18.3c8.6-13.3,12.9-27.6,11.7-43.5c-0.5-6-0.5-12.1,0.2-18.1c0.4-3.8,2.2-7.4,7.1-8
			c2.3-0.3,2.8-2.4,2.1-4.1c-0.9-2.3-2.3-4.4-3.7-6.4c-0.9-1.3-2.4-2.1-3.4-3.4c-1.8-2.2-3.8-2.5-6.6-2.2c-5.3,0.7-10.7,1.3-15.9,1
			c-7.3-0.5-13.7,1.5-19.7,5.3c-0.5,0.3-0.9,0.6-1.3,0.9c-8.9,6.5-18.1,6.6-27.5,1c-3.7-2.2-7.4-4.3-11.3-6c-2.7-1.1-5.8-1.8-8.7-2
			c-5.9-0.5-10.3,2.1-12.8,7.7c-0.4,1-0.7,2-1.1,3c-2.2,6-3.7,6.7-9.4,3.5c-4.1-2.4-7.9-5.4-11.7-8.3c-3.6-2.7-7.5-2.8-11.7-2.1
			c-1.2,0.2-2.4,0.6-3.6,0.9c-3.3,0.6-5.6-0.1-8.4-2.8c-5.4-5.1-8.2-11-9.2-18c-1.2-8.8-4.4-17-9.4-24.2c-5.9-8.5-6.4-17.8-6.1-27.5
			c0.1-2,0.3-3.9,0.3-5.9c0-7.8-5.1-13.8-12.8-15.4c-4.9-1-9.7-2.3-14.6-3.3c-2.1-0.4-4.2-0.6-6.4-0.5c-8.6,0.4-14.1,4.5-14.3,13.3
			c0,0.5-0.3,1-0.4,1.6c-3.2-1-6.2-2.4-9.4-3c-5.5-1.1-10.8,2.7-11.7,8.1c-1.2,7.5-0.2,14.5,5.4,20.3c4.8,5,9.4,10.3,14.2,15.2
			c2.2,2.2,4.8,4,7.4,6.2c-4.8,2.7-9.5,4.8-9.5,10.8c-5.1,2.1-8,6.5-11.4,10.3c-1.8,2-1.5,4.7-0.3,7.1c0.9,1.7,1.9,3.4,3.5,6
			c-1.8-0.9-3.1-1.1-3.7-1.8c-3.4-4.2-7.6-3.9-12.1-2.5c-1,0.3-2,0.7-3.1,1.1c-2.4-3.1-4.1-6.1-4-10.2c0.1-5.9-0.6-11.7-3.4-17.1
			c-0.5-0.9-1-1.9-1.3-2.9c-2.2-8.2-7.2-14.6-13.5-20c-1.7-1.5-3.2-3.3-4.8-5c-3.8-4-5.1-8.9-4.8-14.3c0.4-8.3,1.3-16.7,1.1-25
			c-0.2-7.3-3.2-13.9-8.8-18.7c-2.7-2.3-5.9-4-9.1-5.4c-23-10.5-43-25-60-43.7c-2.9-3.1-5.1-6.9-7.9-10c-4.6-5-9.3-9.8-14.2-14.3
			c-3.9-3.6-6.7-7.8-8.3-12.8c-0.8-2.5-1.8-5-2.7-7.5c-1-2.6-3-3.3-5.6-2.6c-5.1,1.5-10.3,2.9-15.4,4.5c-5.1,1.6-8.5,8.1-7.9,14.3
			c0.9,8.8,4.2,16.6,9.3,23.6c7.4,10.3,12.9,21.7,19.3,32.6c4,6.8,8.7,13.1,14.9,18c3.9,3.2,8.3,5.5,13.4,6.1
			c2.7,0.3,5.3,0.9,7.9,1.4c2.2,0.4,3.3,1.4,3.7,3.8c0.8,5,3.5,9,7.7,11.7c7.5,4.8,15.1,9.4,22.7,14.1c1.7,1,3.3,2.1,4.8,3.4
			c2.7,2.5,2.7,3.9-0.2,8.1c-1.2-1.1-2.3-2.1-3.4-3.2c-2.3-2.2-4.5-4.6-7-6.6c-4.8-3.6-9.2-3-13.3,1.4c-5.5,6-5.8,14-0.7,21.6
			c1.7,2.5,3.9,4.7,3.5,8.4c-4.2,0.1-7.6-1.3-9.7-5c-1.4-2.5-2.7-5.1-3.4-7.8c-1.6-6.3-5.8-10.2-11.6-12.3c-4.7-1.7-7.7-4.8-9.6-9.3
			c-3.6-8.6-9.8-14.2-18.7-17.1c-4.4-1.4-8.6-3.3-12.8-5.3c-5.8-2.8-11.1-6.3-15.8-10.8c-7.4-7.2-14.9-14.4-20.4-23.2
			c-1.4-2.2-2.4-4.8-2.9-7.3c-3.3-15.2-11.6-26.2-25.9-32.4c-4.2-1.9-8.6-2-12.9,0c-5.3,2.5-10.6,4.9-16.3,7.6
			c-4.9-2.9-9.9-6.2-12.4-12.2c-1.3-3-1.5-5.4,0.8-8.3c5.5-7.1,5.2-15.7,4.7-24.1c-0.2-2.8-0.9-5.6-1.9-8.3
			c-1.7-4.6-4.8-6.2-9.6-5.4c-1.4,0.2-2.7,0.6-4.8,1c0.8-3.4,3.1-5.1,5.2-6.6c3.2-2.3,6.5-4.4,9.9-6.4c6.3-3.9,9.7-9,10.4-16.8
			c0.5-6.2,3.1-12.4,5-18.4c1.8-5.5,2.8-11,2.1-16.8c-0.4-3.3-1.9-5.3-4.9-6.3c-4.7-1.7-9.5-3.1-14.1-5.1c-4.7-2-9.2-4.4-13.9-6.6
			c-3-1.4-6-3.1-9.2-4.2c-5.9-2-11.7-4.2-16.5-8.5c-3.2-2.8-6.7-5.3-10.4-7.5c-2.8-1.7-6-3.3-9.1-4.2c-5.2-1.4-8.9-4.1-10.8-9.3
			c-0.6-1.7-1.6-3.1-2.5-4.9c0.3-0.6,0.4-1.4,0.9-1.9c4.8-5,9.5-10.1,14.5-14.9c1.1-1.1,3-2,4.6-2c18.5-0.4,37.1-0.8,55.6-1
			c9.3-0.1,18.5,0.2,27.8,0.5c22.2,0.9,44.5,2.2,66.7,2.8c14.8,0.4,29.6-0.2,44.4,0c30.3,0.5,60.6,1.4,90.9,1.8
			c15.7,0.2,31.4,0.2,47-0.5c23.9-1.1,47.7-0.7,71.6,0.8c19.9,1.3,39.9,1.5,59.8,2.3c43,1.6,85.8-1.8,128.7-2.7
			c28.5-0.6,57,0.1,85.5,0.5c10.1,0.2,20.3,1.3,30.4,1.8c12.5,0.6,24.9,0.9,37.4,1.2c1.9,0.1,3.9,0,6.5,0c0.1,2.6,0.4,4.8,0.3,7
			c-0.2,7.6-0.3,15.3-0.7,22.9c-0.2,4.4-0.8,8.9-1.1,13.3c-0.2,2.7-0.3,5.3-0.3,8c0.2,7.7-0.7,15.3-2.1,22.8
			c-2.2,11.2-2.6,22.6-1.8,34.1c0.9,12.6,1.9,25.3,1.6,37.9c-0.4,21.7-1.5,43.4-3.6,65.1c-0.7,7.2-0.6,14.6,0.1,21.9
			c2.1,22.2,0,44.1-3.5,66c-1,6.1-0.7,12.1,0,18.1c2,17.3,4.4,34.6,6.4,51.9c0.8,7.2,1.2,14.5,1.5,21.8c0.3,6.4,0.3,12.8,0.1,19.2
			c-0.5,11.2-1.4,22.4-1.8,33.6c-0.2,5.1,0.2,10.3,0.8,15.4c1.6,14.7,2.5,29.5,1.5,44.3c-1.7,25.8-2.7,51.6-2.6,77.4
			c0.2,28.7,0.6,57.4,0.7,86c0,7.1-1,14.2-1.2,21.3c-0.3,11.7-0.7,23.5-0.4,35.2c0.9,28.5,2.2,57,3.3,85.5c0,0.2,0,0.4,0,0.5
			c-0.4,12.1,1.1,11-10.1,12c-7.8,0.7-14.5,4.3-20.9,8.8c-5.5,3.9-11.9,5.4-18.7,4.8c-2.4-0.2-3.9-1.4-5.1-3.4
			c-4.9-8.4-8.8-17.1-10.8-26.6c-2.5-12-4.9-24.1-7.2-36.1c-0.9-5-2.7-9.5-5.5-13.7c-5.3-8-9.8-16.5-14.1-25.1
			c-3.4-6.7-8.3-12.8-13.2-18.7c-6.5-7.8-14-14.7-20.3-22.7c-5-6.3-10.5-12.7-12.3-21c-0.8-3.7-1.6-7.3-1.9-11
			c-0.8-9-4.3-16.9-9.1-24.2c-1.6-2.5-4.5-4.5-7.3-5.9c-10.4-5.2-9.2-4.3-10.4-14.6c-0.4-3.6-2-7.2-3.2-10.7
			c-1.5-4.4-3.3-8.6-4.9-13c-4.3-11.8-9.8-23-17.2-33c-2.4-3.2-5.4-6.1-8.6-8.6c-5-3.9-10.8-4.1-16.7-2c-8.4,3-8.4,2.9-13-4.7
			c-3.8-6.2-7.6-12.5-11.6-18.5c-1.8-2.6-4-5-6.3-7.2c-2.1-2-4.9-2.9-7.9-2.3c-5.4,1.2-8.2,5.9-6.2,11.4c1.7,4.7,3.6,9.3,6,13.7
			c6.4,11.7,13.1,23.3,19.6,35c1.1,2,2,4.2,2.5,6.4c1.8,7.4,5.1,13.9,9.4,20.2c6.3,9.3,12,18.9,17.6,28.6c2.1,3.7,3.2,7.9,2.1,12.4
			c-1,4,0.4,7.5,2.7,10.5c2.3,3,4.8,5.7,7.5,8.3c6.8,6.4,11.3,14.1,13.3,23.2c2.7,12.3,5.4,24.7,8.4,36.9c2,8.4,4.8,16.5,12.6,21.6
			c0.9,0.6,1.5,1.8,2.4,3c-4,1.9-7.7,3.7-11.3,5.5c-2.1,1-4,2.3-6.1,3.4c-7.1,3.7-11,9.2-10.6,17.6c0.3,7-1.6,13.7-4.1,20.3
			c-2,5.3-2.6,10.7-0.3,16.1c1.9,4.6,5.1,7.1,10.2,7.1c5.8,0,10.9-1.6,14.9-5.8c2.2-2.2,4.5-2.7,7.3-1.9c5.3,1.7,10.5,3.5,15.8,5.1
			c3.7,1.1,7.6,1.9,11.4,2.5c4.2,0.7,9.6,1.4,13.7,2.8c3,1,8.2,3.9,11.1,7.7c3.7,4.8,6.5,7.1,10.4,11.7c2.6,3.1,5.6,6,8.4,8.9
			c4.6,4.7,9.7,7.4,16.4,3.5C946,873.4,949.7,886.2,948.9,894.9z M789.4,579c4.2,1.6,7.9,0.6,11.7-1.5c6.1-3.5,10.9-1.4,13.8,6.5
			c-2.9,1.4-5.8,3.1-8.9,4.1c-1.7,0.5-4.1,0.3-5.6-0.6c-4-2.3-7.8-1.9-11.7-0.2c-0.8,0.4-1.7,0.5-3.2,1c-1.3-2.9-2.5-5.6-3.7-8.3
			C784.6,577.7,787,578.1,789.4,579z M778.2,573.5c-0.6-1.2-1.6-3.2-2.6-5.2c0.2-0.3,0.5-0.7,0.7-1c1.1,0.3,2.5,0.2,3.3,0.9
			c4.5,3.9,8.4,2.3,12.5-0.7c4.6-3.4,8.8-2.9,13,1.7c-3.4,2-6.7,3.9-10,5.7c-1,0.5-2.4,0.4-3.6,0.2
			C787.3,574.6,783.2,574.1,778.2,573.5z M799.8,592.1c3.7,1.7,7.3,1.2,10.8-0.4c1.5-0.6,2.8-1.5,4.2-2.2c2-1,3.5-0.4,4.4,1.6
			c0.9,2.1,1.7,4.2,2.6,6.5c-3.7,3.6-7.8,5.9-12.5,3.7c-5.5-2.6-10.5-2.5-15.7,0.5c-0.5,0.3-1,0.4-1.5,0.6c-0.3,0.1-0.7,0.1-2,0.2
			c-0.8-2.9-1.5-5.5-2.2-8.1C792.8,589.9,794.3,589.5,799.8,592.1z M808.5,605.8c4,2.4,7.8,1.1,11.6-0.8c4-2,4.6-1.7,6.6,2.5
			c-3.3,1.7-6.4,3-9.1,4.8c-3.8,2.5-7.4,2.8-11.5,0.7c-1.6-0.8-3.7-1.5-5.4-1.3c-4.8,0.7-4.8,0.9-6.7-4
			C798.3,604,803.1,602.7,808.5,605.8z M804.2,616.8c1.1,0.5,2.2,1.2,3.3,1.7c4.1,1.8,7.9,1.5,11.5-1.2c1.4-1,2.9-2.1,4.5-2.8
			c4.2-1.6,8.2,0.8,10.1,6.1c-4.4,0.3-7.7,2.9-10.9,5.6c-1.5,1.2-3.4,2.4-5.3,1c-3.5-2.5-7-1.8-10.6-0.3c-0.5,0.2-1,0.1-2.1,0.2
			c-1.7-3.2-3.3-6.1-4.8-8.8C801.1,616.2,802.6,616.2,804.2,616.8z M816.2,632c3.1,2,6.1,1.2,8.8-1c1-0.8,1.9-1.6,2.9-2.4
			c5-3.9,9.6-2.1,10.6,4.1c0.1,0.9,0,1.7,0,3c-2.2,1-4.1,2.1-6.1,2.6c-1.8,0.4-4.1,0.6-5.5-0.2c-3.6-2-6.7-1.8-10,0.3
			c-1.3,0.8-2.9,1.4-4.9,2.4c-1.6-2.4-3.3-4.7-4.9-7.1C810.2,630.9,812.8,629.8,816.2,632z M815.6,645.1c2.6-1.7,5.5-4.4,8.7-2.6
			c4.9,2.7,9.2,1.4,13.8-0.3c0.5-0.2,1-0.2,0.6-0.2c4.4,2.5,8.1,4.5,13,7.3c-2.5-0.2-3.8-0.1-5-0.4c-4.2-1.2-8.2-0.5-11.7,1.9
			c-3.5,2.4-6.8,3.6-10.6,0.5c-3.1-2.5-6.1,0.1-9.8,1.4C814.7,649.5,813,646.9,815.6,645.1z M818.9,656.7c1.8-1.6,3.8-2,5.8-0.4
			c4,3.1,7.7,2.5,11.6-0.5c3-2.4,6.6-2.8,10.6-1.9c3.1,0.7,6.6,0.1,10.8,0.1c0.9,1.9,2.1,4.4,3.6,7.7c-1.8-0.2-2.8,0-3.4-0.4
			c-3.8-2.2-6.7-0.5-9.8,1.6c-2.2,1.5-4.5,2.8-7,3.7c-1.5,0.5-3.7,0.5-5.1-0.3c-5.1-2.9-10.1-3.2-15.3-0.6c-0.4,0.2-1,0.1-2.1,0.2
			c-1-1.8-2.1-3.8-3.4-6.1C816.6,658.7,817.7,657.7,818.9,656.7z M833,670c6.3,3.9,11.5,1.7,16.7-2.1c1.5-1.1,3.4-2.7,5-2.6
			c2.7,0.2,5.7,1,8,2.6c1.3,0.9,1.3,3.7,1.9,5.4c-4,1.8-7.2,3.6-10.7,4.8c-2.1,0.7-4.9,1.3-6.6,0.4c-4.4-2.3-8.2-1.4-12.1,0.8
			c-1.1,0.6-2.3,0.9-4.1,1.6c-2.6-3.5-5-6.7-7.5-10C826.9,668.2,830.1,668.2,833,670z M840.3,682.5c1.7-0.5,4-0.3,5.5,0.5
			c4,1.9,7.6,1.2,11.1-0.8c0.5-0.3,0.9-0.6,1.3-0.9c5.2-2.7,7.2-1.6,7.8,4.7c-1.5,0.9-3.2,1.8-4.7,3c-3.4,2.6-6.7,3.5-10.9,1.5
			c-1.5-0.7-3.8-0.2-5.5,0.2c-2.7,0.6-5.3,1.7-8.3,2.7c-1.3-2.6-2.4-4.7-3.8-7.4C835.5,684.7,837.8,683.2,840.3,682.5z M846.9,695.1
			c1.3-0.4,3.1,0.2,4.5,0.8c3.4,1.4,6.6,1.2,9.7-0.7c6.6-3.9,7.4-3.6,10.7,4.3c-1.9,1.1-3.6,2-5.3,3c-3.3,2-6.6,3.1-10.5,1
			c-1.3-0.7-3.4-0.3-5.1,0.1c-3.6,0.9-7.1,2.1-11.3,3.4c-0.7-3-1.3-5.4-2-8.2C841.1,697.5,843.9,696,846.9,695.1z M853,708.1
			c0.8-0.3,1.9-0.2,2.6,0.1c4.8,2.6,9.1,1.6,13.4-1.4c2.7-1.8,5.9-0.4,8.6,0.8c0.8,0.4,1.2,2,1.7,2.9c-3.3,1.7-6.3,3.2-9.3,4.7
			c-2.7,1.4-5.7,2.8-8.7,1.6c-5.6-2.3-10.8-0.9-16,1.1c-0.8,0.3-1.7,0.5-3.3,1c-0.7-2.4-1.2-4.2-1.8-6.4
			C844.7,711,848.8,709.4,853,708.1z M860.5,721.5c4.8,1.9,9-0.3,13.1-2.7c4.8-2.8,10.5-2,14.9,2.4c-3.5,2-6.6,3.7-9.6,5.6
			c-2.6,1.6-5.4,2.2-8.2,1.1c-3.4-1.3-6.6-0.6-9.9,0.2c-3.6,0.9-7.3,1.7-11,1.9c-4.7,0.3-5-0.2-5.9-5.8
			C849.3,722.2,854.3,719,860.5,721.5z M850.2,735.3c4.2-0.8,8.3-1.7,12.5-2.3c2.4-0.3,5-0.7,7.3-0.2c4.5,1,8.3,0.4,12.1-2.2
			c2.3-1.5,5-2.6,7.7-3.2c5.5-1.2,6.8-0.3,9.1,5.4c-1.3,2.3-3.3,3.1-5.8,2.8c-4.2-0.6-8.1,0.4-11.8,2.5c-3.8,2.2-8,3.1-12.3,2
			c-5.1-1.2-9.9,0.8-14.8,1.4c-5,0.7-5.8,0-7.1-5.7C848.3,735.7,849.2,735.5,850.2,735.3z M931.2,809.8c-0.8,0.5-2.2,0.8-3.1,0.4
			c-5.9-2.8-11.3-0.6-17,1.1c-4,1.2-8.5,1.5-12.6,1.1c-2.5-0.2-4.9-2.6-8.2-4.6c5.5-2.9,10-5.1,15.5-3.5c4.5,1.3,8.7,0.3,12.5-2.7
			c5.3-4.1,6-4,14-2.6c0.3,2.6,0.8,5.3,0.8,8.1C933.1,808,932.1,809.2,931.2,809.8z M934.8,814.5c0.7,2.7,1.3,4.9,2,7.2
			c-3.2,0-6-0.3-8.7,0.1c-2.8,0.4-5.4,1.7-8.2,2.3c-5.3,1.2-8.8-0.4-13.2-6c4.6-1.4,9.2-2.8,13.7-4.1c0.8-0.2,1.8-0.1,2.6,0.2
			C926.8,815.5,930.5,816.1,934.8,814.5z M930.4,792.5c-6.1-0.3-11.2,1.8-16.1,5.6c-1.7,1.3-4.9,2-7,1.4c-6.2-1.7-11.6,0-17,2.3
			c-1.3,0.6-2.6,1-4.6,1.8c-1.6-2.3-3.2-4.6-5.2-7.6c3.7-0.8,6.6-1.2,9.4-2c2.7-0.8,5.2-2.3,8-3c1.8-0.5,3.9-0.6,5.7-0.2
			c5.2,1.1,9.8-0.1,14.2-2.9c1.2-0.8,2.3-1.7,3.6-2.3c5.7-2.6,9.4-0.1,9.5,6.5C930.7,792.3,930.5,792.5,930.4,792.5z M917,782.9
			c-4.2,2.5-8.4,4.3-13.6,3c-3.9-1-7.7,0.1-11.4,1.8c-1.8,0.8-3.5,1.8-5.4,2.2c-6.9,1.6-9.8-0.3-12-7.5c4.4-1.2,8.7-2.5,13.1-3.5
			c1.4-0.3,3.2,0.1,4.6,0.7c5.4,2.4,10.8,2,15-1.8c4.7-4.3,10-2.5,15.1-2.7c1,0,2.1,1.9,3.4,3.1C922.2,780,919.5,781.4,917,782.9z
			 M916.8,769.2c-3.7-0.3-7,0.8-9.9,3.1c-4.5,3.7-9.2,4.8-14.8,2.1c-2.1-1-5.1-0.3-7.7,0c-1.9,0.2-3.7,1.3-5.6,1.7
			c-5.7,1.2-7.4-0.1-8.4-6.5c2.9-1.5,5.9-3,8.8-4.5c2.4-1.2,4.5,0,6.5,1.1c3.4,1.7,6.9,2.2,10.2,0.1c5.7-3.7,11.6-6,19.2-4.6
			c1.1,1.7,2.7,4.2,4.7,7.1C918.4,769,917.6,769.3,916.8,769.2z M910.6,755.9c-6.2-0.5-10.9,2.8-15.9,5.4c-2.8,1.4-5.4,1.8-8,0.1
			c-3.7-2.5-7.4-2.1-11,0c-0.5,0.3-1,0.5-1.5,0.7c-6.3,2.7-7,2.4-9.5-5.2c3.8-1.5,7.7-3.2,11.7-4.4c1.4-0.4,3.2-0.1,4.6,0.4
			c5.7,2.2,11,1.2,15.5-2.4c3.9-3.1,7.9-1.2,11.7-0.6c1.3,0.2,2.2,3.1,3.3,4.8C911.2,755.1,910.9,755.5,910.6,755.9z M892.8,747.1
			c-3.1,2.2-6.8,2.5-10.2,1c-4.2-1.8-7.9-1.2-11.8,0.5c-1.5,0.6-2.9,1.3-4.4,1.9c-5.9,2.4-6.6,2.2-11.6-3.2
			c4.4-1.9,8.8-3.1,13.4-2.2c5.7,1.1,10.9,0.3,15.8-2.8c1.4-0.9,3.3-1.6,5-1.7c4.6-0.2,9.2,0.6,13.7-3.6c1.1,3,1.7,4.5,2.6,6.9
			C899.8,742.3,896.3,744.5,892.8,747.1z M858.7,764.9c-0.6,4.1,7.5,21.5,11.2,28.7c0.8,1.6,2.2,3.1,3.4,4.6
			c3.5,4.3,6.9,8.6,10.4,12.8c0.9,1.1,7.3,5.1,11.3,10.1h0c0,0,16.7,11.2,20.1,13.7c0,0,0,0,0,0c2.1,1.3,4.7,3.4,7.3,6.1
			c2.8,3.1,10.3,9.4,12.5,11.8c2.2,2.4,2,7-5,4.2c-1.3-1.1-2.7-2.3-4.3-3.7c-2.2-4.3-10.7-10.5-14.1-14.9
			c-6.8-5.9-13.5-11.6-23.7-14.6c0,0-0.1,0-0.1,0c-13-1.7-26.5-4.9-38.4-10.1c0-0.2-7,2.8-8.4,4.2c-2.2,2.2-9.9,9-13.6,5.3
			c-3.7-3.7-1.9-9,0.9-16.9c3.2-7.4,5.8-14.9,6.2-23c0.1-1.8,1.7-3.9,3.2-5.1C840.9,775.4,855.5,767,858.7,764.9z M927.2,835
			c-1.7-1.7-3.8-3-5.8-4.5c5.9-4.7,12.3-5.2,16.7-1.1c1.5,1.4,1.9,4,2.9,6.4C935.6,838.7,931.3,839.3,927.2,835z M942.4,841.2
			c1.4,2.5,2.6,4.9,3.9,7.3c-5,2.8-5.8,2.4-9.2-5.4C939,842.4,940.4,841.9,942.4,841.2z M949.9,856.1c2.2,0.7,4.2,2,6.4,2.2
			c7.3,0.6,14.5,0.1,21.1-3.8c3-1.8,5.9-3,9.9-1c2.5,1.2,6.3,0.4,9.3-0.2c2.4-0.5,4.4-0.8,6.6,0.3c1.2,0.6,2.7,0.8,4.1,0.8
			c2.6,0.1,3.1,1.8,3.5,4.2c-1.9-0.1-3.5-0.4-4.9-0.2c-2.4,0.5-5,0.9-7,2.2c-3.9,2.4-7.7,2.9-11.6,0.6c-4.9-2.9-9.2-1.8-14,0.6
			c-5.3,2.6-11.1,3.3-16.9,0.7c-1.4-0.6-3.1-0.8-4.6-0.8c-5.6,0.1-5.6,0.1-7.2-6.7C946.8,855.5,948.4,855.7,949.9,856.1z
			 M991.9,848.7c4.6-3.2,10.6-4.3,18.2-3.7c0.3,3.4-0.7,5.1-3,4.2C1002,847.3,997.1,847.2,991.9,848.7z M774.7,561.6
			c-3.1,0.4-3.3,0.2-6.6-6.7C771.6,553.5,773.1,555,774.7,561.6z M767.7,548.4c-3.2,0.5-3.2,0.5-4.9-5.1
			C765.9,543.7,765.9,543.7,767.7,548.4z M952.4,876.7c-1.2-3.3-2.2-5.9-3.1-8.6c2.4-1.8,4.4-1.9,6.7-0.8c6.8,3.4,13.6,1.9,19.9-1.3
			c3.3-1.7,6-2.3,9.4-0.6c5.2,2.5,11.1,3.3,16.3-0.6c3.6-2.7,7.1-1,12.1,0.5c0,2.8,0,5.5,0,8.4c-5,1.2-7.6,1.3-10.9,0.1
			c-4.2-1.7-8.6-1.2-12.7,0.8c-6.2,3-12.9,3.4-19.1-0.1c-3.3-1.9-6.4-1.9-9.8-0.7C958.6,874.7,955.8,875.6,952.4,876.7z
			 M956.2,893.8c3.6-3.5,8.2-4.4,12.2-3c9,3.2,17.5,1.8,26.2-0.5c3.2-0.8,6.3-0.6,9.4,0.7c2.1,0.9,4.3,1.4,6.8,2.2
			C999.4,895.6,962.3,896,956.2,893.8z M1005.5,886.1c-4.5-1.9-9-1.8-13.6-0.5c-7.3,2-14.5,2.8-22,0.2c-2.8-1-6.3-0.1-9.5,0.2
			c-1.7,0.2-3.4,0.8-5.9,1.5c-0.3-2.2-0.5-3.7-0.7-5.7c3.7-1.2,7.2-2.6,10.8-3.5c1.4-0.3,3.2,0.2,4.5,0.9c7.4,3.8,14.8,3.4,22.2,0.2
			c3.5-1.5,6.6-1.8,10.3-0.6c3.5,1.1,7.3,1.2,11.2,1.7c0.3,2,0.5,4,0.8,6.2C1010.5,888,1007.9,887,1005.5,886.1z"/>
	</g>
	<g>
		<path class="st1" d="M692.2,747.6h-11.9c-0.4,0-0.7-0.1-1-0.4c-0.2-0.2-0.4-0.6-0.4-1v-19.4c0-0.4,0.1-0.7,0.4-1s0.6-0.4,1-0.4
			h11.9c0.4,0,0.8,0.1,1,0.4c0.2,0.2,0.4,0.6,0.4,1v2.3c0,0.4-0.1,0.8-0.4,1c-0.2,0.2-0.6,0.4-1,0.4h-7.8v3.3h7.2
			c0.4,0,0.8,0.1,1,0.4c0.2,0.2,0.4,0.6,0.4,1v2c0,0.4-0.1,0.7-0.4,1c-0.2,0.2-0.6,0.4-1,0.4h-7.2v4h7.8c0.4,0,0.8,0.1,1,0.4
			c0.2,0.2,0.4,0.6,0.4,1v2.3c0,0.4-0.1,0.7-0.4,1C693,747.5,692.7,747.6,692.2,747.6z"/>
		<path class="st1" d="M700.3,747.6h-2.7c-0.4,0-0.8-0.1-1-0.4c-0.2-0.2-0.4-0.6-0.4-1v-19.4c0-0.4,0.1-0.8,0.4-1
			c0.2-0.2,0.6-0.4,1-0.4h7.3c1.6,0,2.9,0.1,4,0.3s1.9,0.6,2.5,1.2c0.6,0.5,1.1,1.2,1.3,2.1s0.4,1.9,0.4,3.2v0.6
			c0,2.8-1,4.7-2.9,5.8l2.7,7.3c0.2,0.4,0.2,0.8-0.1,1.1c-0.2,0.3-0.5,0.5-1,0.5h-3.1c-0.7,0-1.1-0.3-1.4-1l-2.5-6.9h-3.2v6.5
			c0,0.4-0.1,0.8-0.4,1C701.1,747.5,700.7,747.6,700.3,747.6z M704.9,730.3h-3.2v5h3.2c1,0,1.7-0.2,2.1-0.5c0.4-0.3,0.6-0.9,0.6-1.8
			v-0.5c0-0.9-0.2-1.5-0.6-1.8C706.6,730.4,705.9,730.3,704.9,730.3z"/>
		<path class="st1" d="M724.4,747.6h-2.7c-0.4,0-0.8-0.1-1-0.4c-0.2-0.2-0.4-0.6-0.4-1v-6.7l-5.9-12.4c-0.2-0.4-0.2-0.8,0-1.1
			s0.6-0.5,1-0.5h2.7c0.7,0,1.1,0.3,1.3,1l3.6,8l3.5-8c0.2-0.7,0.7-1,1.4-1h2.7c0.4,0,0.8,0.2,1,0.5c0.2,0.3,0.2,0.7,0,1.1
			l-5.9,12.4v6.7c0,0.4-0.1,0.7-0.4,1C725.2,747.5,724.9,747.6,724.4,747.6z"/>
		<path class="st1" d="M740.2,730.9h-4.2c-0.4,0-0.7-0.1-1-0.4c-0.2-0.2-0.4-0.6-0.4-1v-2.7c0-0.4,0.1-0.7,0.4-1s0.6-0.4,1-0.4h13.8
			c0.4,0,0.8,0.1,1,0.4c0.2,0.2,0.4,0.6,0.4,1v2.7c0,0.4-0.1,0.8-0.4,1c-0.2,0.2-0.6,0.4-1,0.4h-4.2v15.4c0,0.4-0.1,0.8-0.4,1
			c-0.2,0.2-0.6,0.4-1,0.4h-2.7c-0.4,0-0.7-0.1-1-0.4c-0.2-0.2-0.4-0.6-0.4-1V730.9z"/>
		<path class="st1" d="M770.8,747.6h-2.7c-0.4,0-0.8-0.1-1-0.4c-0.2-0.2-0.4-0.6-0.4-1v-7.5h-7.5v7.5c0,0.4-0.1,0.7-0.4,1
			c-0.2,0.2-0.6,0.4-1,0.4h-2.7c-0.4,0-0.7-0.1-1-0.4c-0.2-0.2-0.4-0.6-0.4-1v-19.4c0-0.4,0.1-0.7,0.4-1s0.6-0.4,1-0.4h2.7
			c0.4,0,0.7,0.1,1,0.4c0.2,0.2,0.4,0.6,0.4,1v6.5h7.5v-6.5c0-0.4,0.1-0.8,0.4-1c0.2-0.2,0.6-0.4,1-0.4h2.7c0.4,0,0.8,0.1,1,0.4
			c0.2,0.2,0.4,0.6,0.4,1v19.4c0,0.4-0.1,0.7-0.4,1C771.5,747.5,771.2,747.6,770.8,747.6z"/>
		<path class="st1" d="M778.9,747.6h-2.7c-0.4,0-0.8-0.1-1-0.4c-0.2-0.2-0.4-0.6-0.4-1v-19.4c0-0.4,0.1-0.8,0.4-1
			c0.2-0.2,0.6-0.4,1-0.4h7.3c1.6,0,2.9,0.1,4,0.3s1.9,0.6,2.5,1.2c0.6,0.5,1.1,1.2,1.3,2.1s0.4,1.9,0.4,3.2v0.6
			c0,2.8-1,4.7-2.9,5.8l2.7,7.3c0.2,0.4,0.2,0.8-0.1,1.1c-0.2,0.3-0.5,0.5-1,0.5h-3.1c-0.7,0-1.1-0.3-1.4-1l-2.5-6.9h-3.2v6.5
			c0,0.4-0.1,0.8-0.4,1C779.7,747.5,779.4,747.6,778.9,747.6z M783.5,730.3h-3.2v5h3.2c1,0,1.7-0.2,2.1-0.5c0.4-0.3,0.6-0.9,0.6-1.8
			v-0.5c0-0.9-0.2-1.5-0.6-1.8C785.2,730.4,784.5,730.3,783.5,730.3z"/>
		<path class="st1" d="M807.5,747.6h-11.9c-0.4,0-0.7-0.1-1-0.4c-0.2-0.2-0.4-0.6-0.4-1v-19.4c0-0.4,0.1-0.7,0.4-1s0.6-0.4,1-0.4
			h11.9c0.4,0,0.8,0.1,1,0.4c0.2,0.2,0.4,0.6,0.4,1v2.3c0,0.4-0.1,0.8-0.4,1c-0.2,0.2-0.6,0.4-1,0.4h-7.8v3.3h7.2
			c0.4,0,0.8,0.1,1,0.4c0.2,0.2,0.4,0.6,0.4,1v2c0,0.4-0.1,0.7-0.4,1c-0.2,0.2-0.6,0.4-1,0.4h-7.2v4h7.8c0.4,0,0.8,0.1,1,0.4
			c0.2,0.2,0.4,0.6,0.4,1v2.3c0,0.4-0.1,0.7-0.4,1C808.3,747.5,808,747.6,807.5,747.6z M803.9,723.8l-0.6,0.5
			c-0.2,0.1-0.3,0.2-0.4,0.2s-0.3,0-0.5,0h-1.8c-0.2,0-0.4-0.1-0.5-0.2c-0.1-0.1-0.1-0.3,0-0.6l0.1-0.3c0.1-0.3,0.2-0.4,0.4-0.5
			c0.1-0.1,0.3-0.1,0.6-0.1h2.3c0.3,0,0.5,0.1,0.6,0.3C804.1,723.4,804.1,723.6,803.9,723.8z"/>
		<path class="st1" d="M824.8,747.6h-11.9c-0.4,0-0.7-0.1-1-0.4c-0.2-0.2-0.4-0.6-0.4-1v-19.4c0-0.4,0.1-0.7,0.4-1s0.6-0.4,1-0.4
			h11.9c0.4,0,0.8,0.1,1,0.4c0.2,0.2,0.4,0.6,0.4,1v2.3c0,0.4-0.1,0.8-0.4,1c-0.2,0.2-0.6,0.4-1,0.4H817v3.3h7.2
			c0.4,0,0.8,0.1,1,0.4c0.2,0.2,0.4,0.6,0.4,1v2c0,0.4-0.1,0.7-0.4,1c-0.2,0.2-0.6,0.4-1,0.4H817v4h7.8c0.4,0,0.8,0.1,1,0.4
			c0.2,0.2,0.4,0.6,0.4,1v2.3c0,0.4-0.1,0.7-0.4,1C825.6,747.5,825.2,747.6,824.8,747.6z"/>
	</g>
	<g>
		<g>
			<path class="st4" d="M762.2,760.2c0,15.4,12.3,35.3,39.9,36.8"/>
			<g>
				<polygon class="st1" points="795.9,801.8 801.2,796.9 796.4,791.6 800.7,791.8 805.5,797.1 800.2,802 				"/>
			</g>
		</g>
	</g>
</g>
</svg>
