<?xml version="1.0" encoding="utf-8"?>
<!-- Generator: Adobe Illustrator 19.1.0, SVG Export Plug-In . SVG Version: 6.00 Build 0)  -->
<svg version="1.1" id="Calque_1" xmlns="http://www.w3.org/2000/svg" xmlns:xlink="http://www.w3.org/1999/xlink" x="0px" y="0px"
	 viewBox="0 0 889 605.2" style="enable-background:new 0 0 889 605.2;" xml:space="preserve">
<style type="text/css">
	.st0{fill:#6D9DBD;}
	.st1{fill:#F2A73B;}
	.st2{fill:#6DA3C3;}
	.st3{fill:none;}
	.st4{fill:none;stroke:#F2A73B;stroke-width:3;stroke-miterlimit:10;}
	.st5{fill:#6DA1C1;}
	.st6{fill:#F6AB3B;}
	.st7{fill:none;stroke:#F6AB3B;stroke-width:3;stroke-miterlimit:10;}
	.st8{fill:#F8AD3B;}
	.st9{fill:#C6C6C6;}
	.st10{fill:#F4901E;}
	.st11{fill:none;stroke:#F8AD3B;stroke-width:3;stroke-miterlimit:10;}
	.st12{fill:#FFFFFF;}
	.st13{fill:#FFFFFF;stroke:#C6C6C6;stroke-width:3;stroke-miterlimit:10;}
	.st14{fill:none;stroke:#C6C6C6;stroke-width:3;stroke-miterlimit:10;}
</style>
<g>
	<g>
		<polygon class="st8" points="265.5,4.8 271.3,4.8 279.6,8.8 288.4,8.8 296.5,13 301.3,21.7 309.9,22.3 314.4,24.6 317.5,30.9 
			327.7,27.6 350.8,17.2 360.6,21.3 367,34.7 377.8,48.7 377.8,59.2 372.6,69.9 374,78.7 380.8,105 380.8,122.1 372.2,129 
			349.1,137.8 335.6,145 333.1,152.9 336.7,167.4 349.6,181 358,187.9 357.3,192.4 348.2,201.5 341.5,213.9 333.9,217.7 
			312.7,220.1 297.2,223 289.4,225.8 280.8,223 269.1,216.5 258.4,215.8 244.1,220.1 239.3,216.5 238.8,207.3 251.2,184.9 
			249.3,177.6 235.7,171.9 216.7,164.5 211.7,154.5 217.6,144 225,134.5 222.4,129.3 213.6,128.1 213.1,121.9 214.5,116.4 
			208.1,114.2 202.6,109.2 204.3,89.9 210.2,84.7 217.9,85.4 233.8,88 236.7,81.4 237.4,60.2 239.6,45.4 251.7,37.8 256,39.4 
			260.3,45.9 263.9,44.4 270.1,34.4 277.4,27.8 275.3,20.8 265.8,10.2 		"/>
		<path d="M261.5,42.4c1.4-2,2.5-3,3-4.3c1.3-3.2,3-6,6.8-6.9c0.8-0.2,1.5-0.7,2.2-1.2c2.4-1.6,3-3.2,1.6-5.7
			c-1.5-2.7-3.4-5.1-5.3-7.5c-2.2-2.7-4.8-5.1-7-7.8c-1.6-1.9-2.6-4.1-1-6.5c1.5-2.3,3.9-2.7,6.3-2.3c1.6,0.2,3.2,1,4.6,1.9
			c3,2.1,6.3,3.3,9.9,2.9c9.3-1.1,15.4,2.8,18.4,11.5c1,3,3.2,4,6.2,3.9c0.4,0,0.8,0,1.3-0.1c4.1-0.5,7,1.1,8.9,4.8
			c1.7,3.3,2.2,3.4,5.5,1.7c2.5-1.3,4.9-2.7,7.3-4.1c6.9-4,14-7.1,22.1-7c5,0.1,8.5,2.4,11.1,6.4c2,3,3.6,6.4,5.6,9.4
			c1.8,2.7,3.9,5.1,5.9,7.6c2,2.5,4.2,4.9,6,7.5c4,5.8,2.9,11.7-0.3,17.4c-0.3,0.6-0.8,1.2-1.3,1.7c-3.5,3.4-3.3,7.4-1.8,11.6
			c2.1,6.4,4.3,12.8,5.9,19.3c2.2,8.8,3.1,17.7,0.3,26.6c-0.5,1.5-1.1,2.5-2.6,3.4c-11.4,6.6-23.5,11.7-35.7,16.4
			c-2.3,0.9-4.5,2.2-6.8,3.4c-2.2,1.2-2.9,3.4-3,5.7c-0.5,7.4,1.7,13.9,7.1,19.1c3.9,3.8,8.4,7,12.5,10.5c1.5,1.3,2.8,2.7,3.9,4.3
			c1.7,2.6,1.3,5.8-0.7,8.2c-1.4,1.6-2.9,3.1-4.5,4.4c-3.4,2.7-5.9,6-7.3,10c-0.5,1.3-1.3,2.5-1.9,3.7c-3.6,7-9.6,9.1-17.1,9.2
			c-7,0.1-14,0.9-20.9,1.8c-3.1,0.4-6.2,1.8-9.1,3c-4.8,1.9-9.5,3.7-14.5,0.9c-1.3-0.7-2.7-1.5-3.8-2.5c-7.6-7.2-16.5-7.5-25.9-4.8
			c-1.6,0.5-3.1,1.2-4.8,1.7c-5.9,1.8-10.9-1.1-11.7-7.2c-0.5-3.8-0.2-7.6,1.8-11c2.5-4.4,5.2-8.6,7.8-12.9c0.6-1.1,1.3-2.1,1.8-3.3
			c2.4-5.6-0.5-7.9-4.5-10c-1.3-0.7-2.9-0.9-4.4-1.4c-5.9-1.9-11.7-3.8-17.6-5.6c-5-1.5-8.2-5.3-11.1-9.2c-2.5-3.4-1.8-9.7,0.9-13
			c1.6-2,3.4-3.7,5.2-5.5c1-1,2.2-1.8,3.1-2.8c1.4-1.4,2.8-2.9,2.1-5.1c-0.7-2.1-2.7-2.1-4.6-2.3c-6.9-0.9-8.9-4.2-6.6-10.7
			c1.3-3.7,0.8-4.5-3-5.7c-5-1.5-6.9-3.9-7.1-9.1c-0.1-2.4-0.4-4.8-0.2-7.1c0.2-2.6,0.7-5.3,1.3-7.8c1.8-7.4,9.1-9.4,14.8-8.8
			c2.5,0.3,4.9,1,7.4,1.6c1,0.2,1.9,0.5,2.9,0.6c5.4,0.8,6.5,0.1,7.2-5.3c0.6-4.6,0.7-9.2,1-13.8c0.3-4.7,0.5-9.5,0.9-14.2
			c0.6-7.7,5.6-12.3,11.7-15.9c4.1-2.4,9.1-1.4,11.5,1.7C260,38.5,260.4,40,261.5,42.4z M215.3,125c1.6,0.3,2.6,0.6,3.7,0.7
			c7.4,0.3,9.4,6.1,7.5,11.8c-1,2.8-2.9,4.7-5.1,6.5c-3.2,2.5-5.5,5.6-6.3,9.6c-0.8,3.5,0.6,6.7,3.5,8.3c2.5,1.5,5.1,2.9,7.6,4.4
			c3.4,2.1,6.9,3.6,10.7,4.6c3.5,0.9,7,2.1,10.3,3.6c6.2,2.8,8,9.4,4.4,15.1c-1.2,1.9-2.7,3.6-3.9,5.5c-1.9,3.1-3.9,6.2-5.2,9.5
			c-1.1,2.7-1.5,5.7-1.6,8.6c-0.1,3.6,1.8,5.1,5.4,4.4c2.1-0.4,4-1.1,6-1.8c9-2.9,17.7-2.8,25.5,3.4c6.6,5.3,13.7,4.4,20.7,1.9
			c9-3.2,18.3-3.9,27.6-4.9c3.2-0.3,6.4-0.7,9.5-1.2c2.8-0.5,4.7-2.2,5.8-4.9c2.7-6.8,6.7-12.5,12.6-17c3.9-3,3.6-5.3-0.7-7.5
			c-4.5-2.4-8.3-5.6-12-9c-5.7-5.3-8.4-12.2-9.6-19.6c-0.5-3.1,0-6.4,0.4-9.6c0.3-2.3,1.8-4,3.8-5.3c7-4.6,14.6-7.6,22.6-9.9
			c4.7-1.4,9.2-3.3,13.8-4.9c3.7-1.3,5.5-4.8,7.5-7.6c0.9-1.3,0.3-3.8,0.2-5.7c-0.2-3.9-0.6-7.8-0.9-11.7c-0.6-8.5-2.3-16.6-7-23.9
			c-0.3-0.5-0.6-1-0.8-1.5c-1.8-3.9-1.6-7.5,1.5-10.8c1.5-1.6,2.8-3.5,3.8-5.5c3.2-6.4,2.1-12.5-3.2-16.6
			c-5.2-4.1-8.5-9.6-11.7-15.1c-3.3-5.4-8.8-8.7-15-7.2c-3.9,1-7.7,2.6-11.3,4.3c-4,1.9-7.8,4.4-11.8,6.4c-6,3-9.9,1.7-11.2-3.8
			c-0.9-4-1.7-4.7-6.2-4.5c-4.4,0.2-6.8-1.9-8.4-5.5c-0.4-0.9-0.8-1.8-1.2-2.7c-2.4-5.1-6.4-7.5-12-7.5c-2.6,0-5.3-0.5-7.9-1
			c-2.3-0.4-4.6-1.3-6.9-1.7c-0.9-0.2-2.2,0.2-2.9,0.9c-0.4,0.3,0,1.9,0.5,2.6c1.4,1.9,3,3.7,4.6,5.5c1.6,1.8,3.5,3.3,4.9,5.1
			c4.7,6,3.5,12.8-2.9,16.6c-3.3,2-6.3,4.2-6.9,8.4c-0.1,0.4-0.2,0.8-0.4,1.2c-1.5,2.7-4.7,4.2-7.9,3.6c-2.7-0.5-3.3-1.5-3.6-5.7
			c-0.2-2.9-0.9-3.5-3.7-2.7c-8.6,2.4-11.9,6.5-11.2,15.2c0.6,7.5-0.2,14.8-1.4,22.1c-0.2,1.2-0.3,2.5-0.2,3.7
			c0.6,4.9-2.8,8.9-7.7,8.3c-4.6-0.6-9-1.8-13.5-2.8c-8.3-1.9-11.7,1-12.8,8.7c-0.5,3.6-0.4,7.3-0.3,10.9c0,3.2,1,4,4.2,4.7
			c2.2,0.4,4.4,1,6.3,2c3.2,1.5,3.9,3.6,2.7,6.9C217.1,121.8,216.3,123,215.3,125z"/>
	</g>
	<g>
		<polygon class="st9" points="134.8,124.4 137.7,125.3 139.8,130.2 143.9,135.3 154,145.7 157.8,153.7 156,173.2 157.8,183.7 
			156,187.6 146.5,190.5 141,195.7 137.2,209.8 134.2,217.8 115.1,237.7 107.7,248 104.7,259.8 109.2,274.5 115.1,287 114,294.9 
			108.8,300.9 99.9,308.6 99,322.9 93.4,336.2 81.6,339.5 76.4,346.9 71.4,348.7 65.8,343.1 62.8,328.5 62.8,321.1 55.8,305.8 
			58.7,296.8 62.1,289.7 67.8,278.1 67.3,267.4 66.3,254.5 64.8,242.1 70.9,221.2 76.7,218.4 80.8,215.9 80.8,212.5 79.3,206.6 
			86.2,185 95.4,170.5 103.4,149 111.8,145.3 114.9,139.6 115.4,134.9 120.9,134.6 126.3,138.1 132,135.8 132.2,125.9 		"/>
		<path d="M158.8,165.5c0,1,0,2-0.1,3c-0.6,4.4-0.2,8.8,0.9,13.1c1.1,4.3,0.1,6.1-3.9,7.8c-2.4,1-5,1.7-7.5,2.5
			c-3,0.8-4.7,3.1-5.7,5.6c-1.3,3.4-2.6,6.9-3,10.4c-0.7,6.2-3.2,11.4-7.7,15.6c-3.1,2.9-6.2,5.9-9.3,8.8
			c-6.7,6.5-12.8,13.3-15.2,22.7c-0.3,1.2-0.5,2.7-0.2,3.9c1.2,6.2,3.4,12.1,6,17.8c2,4.6,4,9.3,3.6,14.6c-0.4,4.6-2.6,8.1-6,10.9
			c-1.2,1-2.5,1.8-3.8,2.6c-2.6,1.8-4.1,4.3-4.5,7.4c-0.4,3.2-0.6,6.4-0.6,9.6c0,2-0.2,4-1.2,5.7c-1.5,2.7-3,5.4-4.6,8
			c-1.2,1.9-3,3.2-5.2,3.8c-1.7,0.5-3.3,1.3-5,1.7c-1.6,0.4-2.6,1.2-3.5,2.7c-1.7,2.6-4.1,4.6-7,5.8c-2.9,1.2-5,0.6-7-1.9
			c-2.6-3.2-3.9-6.9-4.6-10.8c-0.3-1.6-0.5-3.3-0.5-4.9c-0.1-4.8-1.7-9.1-3.7-13.3c-2.2-4.4-3.6-9-3.8-13.9
			c-0.1-2.2,0.3-4.3,1.6-6.3c0.7-1,1.2-2.4,1.3-3.6c0.1-2,0.7-3.6,1.9-5.2c0.9-1.1,1.6-2.4,2.4-3.6c2.6-3.7,3.5-7.8,2.7-12.3
			c-0.5-2.7-0.2-5.4-0.1-8.2c0.1-3.6-0.9-7.2-1.4-10.7c-0.5-3.2-1-6.3-1.4-9.5c-0.1-0.9,0.2-1.9,0.4-2.9c0.3-1.6,0.7-3.2,1.1-4.8
			c1.1-4.9,2.1-9.9,3.5-14.8c1-3.4,3.9-4.9,7.3-5.4c1.2-0.2,2.4-0.2,3.6-0.6c2.9-1,3.8-4,1.5-5.9c-2.4-2-2.1-3.9-1.4-6.4
			c1.3-4.3,2.3-8.7,3.2-13.1c0.8-3.9,2.2-7.4,5-10.3c5-5.2,7.5-11.6,9.4-18.3c1.1-3.7,2.2-7.4,3.4-11.1c1.2-3.7,4-5.8,7.7-6.4
			c3.8-0.6,5.5-2.7,5.3-5.9c0-0.5,0-1.1,0.1-1.7c0.3-4,2.4-5.8,6.3-5.1c2.2,0.4,4.3,0.9,5.8,2.8c0.9,1.1,2.3,1.8,3.5,1
			c0.9-0.6,1.6-1.8,1.8-2.9c0.4-2,0.4-4.2,0.4-6.3c0-1.9,1-3.4,2.3-4.6c2-1.8,5.2-1.4,6.6,0.9c0.8,1.3,1.6,2.7,1.9,4.2
			c0.6,3.6,2.9,5.9,5.6,7.9c4.3,3.1,7.7,7,10.1,11.6c1.8,3.4,2.8,7.1,2.5,11.1C159.1,160.8,159,163.2,158.8,165.5
			C158.9,165.5,158.8,165.5,158.8,165.5z M117.9,136.3c-0.3,1-0.7,2.1-0.8,3.1c-0.4,4.3-2.9,7.1-6.8,8.4c-4.6,1.5-6.4,5.2-7.7,9.2
			c-1.1,3.1-1.6,6.4-2.7,9.5c-1.6,4.5-3.3,8.9-6.6,12.5c-2.7,3-4.6,6.3-5.7,10.3c-1.3,4.9-2.9,9.7-4.6,14.4
			c-0.8,2.4-1.2,4.4,0.5,6.8c2.3,3.4,1.1,7-2.7,8.7c-1.5,0.6-3.2,0.9-4.8,1.1c-2.3,0.2-3.5,1.3-4.4,3.3c-1.8,3.9-2.8,7.9-3.3,12
			c-0.7,5.1-1.5,10.3-0.4,15.4c0.6,2.7,1.3,5.4,1.9,8c0.6,2.8,1.2,5.5-0.2,8.4c-0.6,1.2-0.6,2.8-0.5,4.2c0.8,6.8-0.7,12.9-5.1,18.3
			c-1,1.2-1.3,3-1.8,4.5c-0.6,1.5-0.8,3.3-1.6,4.6c-1.3,2-1.7,4-1.2,6.3c1,5,2.3,9.8,5.1,14.2c0.9,1.4,1.4,3,1.6,4.6
			c0.5,3.7,0.7,7.5,1.1,11.2c0.4,3.5,1.3,6.9,3.4,9.9c1.5,2.1,2.7,2.4,4.6,0.6c1-0.9,1.7-2.3,2.3-3.5c1.6-3.3,3.6-5.7,7.7-5.8
			c1.7,0,3.5-0.4,5.2-1.1c1.1-0.4,2.4-1.4,2.8-2.5c1.1-2.5,2-5.2,2.4-7.8c0.7-4.2,0.8-8.6,1.2-12.8c0.4-3.1,1.4-5.8,4.1-8
			c2.1-1.7,4.3-3.1,6.5-4.4c6-3.6,7.7-10.8,4.1-16.7c-0.9-1.4-1.9-2.7-2.8-4.1c-4-5.5-5.7-11.9-5.5-18.4c0.6-12.6,6.2-23,16-31.1
			c3.6-3,7.1-5.9,10.6-9c2.7-2.4,4.3-5.6,5-9.1c0.8-3.9,1.5-7.8,2.8-11.5c2.5-7.1,7-12.2,15-13.1c3.5-0.4,3.8-1,3.3-4.6
			c-0.3-2.6-0.9-5.3-0.8-7.9c0.2-5.6,0.8-11.2,1.1-16.8c0.3-5.7-1.6-10.6-5.7-14.6c-3.2-3.2-6.5-6.2-9.8-9.4
			c-1.7-1.6-3.2-3.3-3.6-5.8c-0.2-1.4-1.2-2-2.9-1.7c-0.1,1-0.3,1.9-0.4,2.9c-0.1,2-0.1,4,0,5.9c0,1.7-0.7,2.9-2.2,3.8
			c-2.6,1.5-5.2,1.4-7.9,0.2C121.8,138,120.3,136.5,117.9,136.3z"/>
	</g>
	<g>
		<polygon class="st10" points="511.8,353.6 515.8,348.1 524.1,349.4 532.5,351.5 545.1,349.4 551.2,346.7 552.4,350 549.1,358.8 
			548.9,364.8 550.2,371.7 545.8,375 541.5,373.1 533.6,368.8 528.6,368.8 520.7,359.9 		"/>
		<polygon class="st10" points="451.2,288.8 458.3,280.9 463.3,286.3 467.4,296.2 465.9,309.3 464.6,320.7 459.3,327.9 453.5,329.1 
			447.3,324.8 444,316.7 445.2,302.4 442.4,294.7 440.4,290.7 442.4,286.3 		"/>
		<polygon class="st10" points="453.6,215.8 448.7,217.8 440.4,226 435.9,223.8 429.7,220.7 426.6,217.5 428,208.7 424,203.7 
			422.3,197.6 430.5,192.4 425.7,187 424,183.2 433.3,178.7 442.4,177 457.1,169.2 476.7,170.8 486.7,160.3 504.1,155.8 510.9,157 
			517.7,164.9 529.8,174.6 529.8,184.2 525.4,188.2 514.3,192.1 511,199.4 514.4,205.4 510.9,215.2 514.4,219.6 529.3,231.1 
			534.6,252.5 545.5,265.9 557,271.1 568.6,273.8 571,280.9 587.7,290.2 597.2,298.6 600.1,305.3 598.3,309.8 588.4,305.7 
			578.5,302.6 572.8,305.7 572.8,315.7 578.9,325.2 581,331.8 571.4,340 564.8,349.8 560.1,349.8 560.8,338.1 562.4,324.6 
			554.1,307.2 525.5,282.9 502.4,266.4 481.7,246.6 475.7,226.6 468.1,220.6 		"/>
		<g>
			<path d="M603,304.2c-0.3,0.8-0.6,1.6-0.9,2.4c-1.5,4.2-4,5.6-8.2,4.2c-2-0.7-3.8-2-5.6-3.1c-1.6-0.9-3.2-2.2-4.9-2.9
				c-2.6-1-4-0.4-5.3,2c-2.4,4.4-1.9,9.5,1.1,13.5c1.4,1.8,2.6,3.8,3.6,5.8c1.8,3.7,1.2,7.4-2,9.5c-3.8,2.5-6.2,6.3-9.2,9.5
				c-1.8,1.9-3.7,3.8-5.9,5.2c-1.2,0.8-3.1,1-4.7,1c-2.5-0.1-3.8-1.5-3.5-4c0.5-3.9,1.3-7.7,2.1-11.6c2.1-9.8,0.5-18.9-6.4-26.2
				c-11.7-12.4-24.6-23.4-39-32.6c-11-7.1-21.2-15.3-30.3-24.7c-5.2-5.4-9.1-11.5-9.2-19.4c0-2.6-1.4-4.6-3.4-6.1
				c-3.2-2.3-6.3-4.7-9.5-6.9c-5.8-3.9-10.2-3.3-14.7,1.9c-1,1.1-2.1,2.2-3,3.5c-2.6,3.4-6,4-9.6,0c-1.3-1.5-2.5-2.4-4.6-2.8
				c-4.3-0.8-6.2-4.1-4.6-8.3c1.4-3.6,1.3-6.6-1.8-9.3c-0.7-0.6-1.1-1.4-1.6-2.1c-2.3-3.4-1.8-6.1,1.7-8.3c0.5-0.3,1.2-0.5,1.7-0.9
				c2-1.4,2.1-2.9,0.3-4.6c-0.6-0.6-1.3-1.2-1.9-1.8c-2.3-2.5-2.3-4.3,0.6-6.3c1.9-1.3,4.3-2.2,6.5-2.8c2.2-0.6,4.5-0.8,6.8-1.1
				c3.5-0.4,6.3-2,8.6-4.4c5.4-5.8,12-7.1,19.5-5.8c2.6,0.5,5.3,0.9,7.8,1.5c1.8,0.4,3.1,0,4.3-1.5c1.4-1.9,3-3.8,4.7-5.5
				c1.1-1.2,2.5-2.2,3.9-2.9c5.3-2.6,11.1-3.8,16.9-4.2c4.8-0.4,9,1.4,12.2,5.1c1.4,1.6,2.6,3.5,4.2,4.9c2.4,2.1,4.9,3.9,7.5,5.7
				c5.8,3.9,7.3,9.2,4.5,15.5c-1.4,3.1-4,4.6-7.1,5c-3.1,0.4-5.8,1.7-8.4,3.3c-3.4,2.1-3.8,4.7-1,7.8c2.9,3.2,2.9,4,0.2,7.3
				c-0.3,0.4-0.7,0.7-1,1.1c-2.2,2.8-2.1,5.3,0.7,7.6c1.9,1.5,3.9,2.8,5.9,4.2c7.1,4.8,11.9,11,13.6,19.8c1.3,6.6,3.4,13.1,8.1,18.2
				c2.6,2.8,5.3,5.5,8.4,7.7c3.5,2.6,7.8,3.6,12.2,3.9c1.3,0.1,2.5,0.1,3.8,0.3c3.2,0.6,4.9,2.3,5.2,5.6c0.2,2.5,1.5,3.8,3.6,4.9
				c5.6,3,11.1,6.1,16.5,9.5c3.6,2.2,6.3,5.5,8.5,9.1C601.5,301.5,602.2,302.8,603,304.2z M565.7,274.3c-1.1-0.1-2.2-0.4-3.3-0.4
				c-12.9-1-22.5-7.2-28.9-18.3c-2.7-4.7-4.7-9.8-5.8-15.2c-0.4-2.1-1.1-4.2-1.7-6.2c-1-3.2-2.9-6-5.8-7.8c-2.6-1.6-5.3-3-7.9-4.6
				c-5-3-6.6-8.8-3.5-13.8c1.5-2.4,2.1-4.3-0.2-6.7c-2.2-2.3-1.9-4.8,0.4-7.1c1.7-1.7,3.5-3.3,5.6-4.5c2.9-1.6,6.1-2.5,9.1-3.8
				c1.1-0.5,2.5-0.9,3.2-1.8c2.8-3.4,1.1-10.3-2.7-12.6c-2.8-1.7-5.4-3.7-7.9-5.8c-1.5-1.3-2.7-3-4-4.5c-3.3-3.6-7.2-5.1-12-3.4
				c-3.7,1.3-7.5,2.4-11.1,3.9c-1.3,0.5-2.5,1.7-3.4,2.8c-2,2.5-3.8,5.1-5.7,7.6c-1.8,2.4-3.9,3.4-6.9,2.6c-3.5-1-7.1-1.8-10.7-2.6
				c-4.7-1.1-9.1-0.9-12.8,2.7c-3.8,3.8-8.2,6.2-13.7,6.5c-1.6,0.1-3.3,0.3-4.9,0.4c-1.9,0.1-3.6,0.8-4.2,2.6
				c-0.6,1.8,1,2.7,2.2,3.6c0.2,0.2,0.4,0.3,0.6,0.4c1.7,1.4,1.9,2.3,0.8,4.2c-1,1.8-2.5,3.1-4.4,4c-2.4,1.2-2.8,3.2-0.8,4.8
				c4.6,3.7,5.7,8,3.6,13.5c-1,2.7,0,3.7,2.7,4.8c2,0.8,3.9,1.8,5.6,3c2,1.4,2.7,1.6,4.6-0.1c1.1-1,2-2.2,3.1-3.4
				c4.8-5.3,9.6-6.4,15.7-4.2c5.3,1.9,9.7,5.4,14.5,8.2c2,1.2,3.4,3.3,3.9,5.9c0.5,3,1.4,5.9,2.1,8.9c1.2,5.1,3.5,9.5,7.2,13.1
				c3.7,3.5,7.3,7,11.3,10.2c5.4,4.4,10.9,8.6,16.5,12.8c5.4,4,11.1,7.5,16.5,11.6c7.3,5.5,14.1,11.6,20.5,18.1
				c7.6,7.6,11.4,16.6,12,27.1c0.1,1.9-0.7,3.9-1.2,5.8c-0.7,2.7-1.5,5.3-2.1,8c-0.2,0.8,0.3,1.8,0.5,3.4c1.3-1.1,2.1-1.7,2.7-2.3
				c4.4-4.2,7.1-9.8,12.3-13.4c2.2-1.5,2.3-4,0.8-6.5c-1.2-1.9-2.6-3.8-4.1-5.4c-1.6-1.8-2.6-3.8-2.6-6.2c0.1-2.7,0.2-5.4,0.8-7.9
				c1.5-6,7.8-8.7,13.2-5.6c2,1.1,3.7,2.7,5.5,4c1.2,0.9,2.4,1.9,3.8,2.5c2.3,1,4.1-0.7,3.5-3.1c-0.3-1.2-1.1-2.3-1.8-3.3
				c-4-6.6-10.3-9.9-17.2-12.5c-2.5-0.9-5-1.9-7.4-3c-3.9-1.8-6.4-4.5-5.8-9.2C566,275.7,565.8,275.2,565.7,274.3z"/>
			<path d="M442.3,311.3c0.3-2.3,0.6-4.6,0.8-7c0.3-3.3-0.2-6.3-2.6-8.8c-2.1-2.2-2.3-4.7-1.4-7.4c1-2.7,3-3.7,5.7-2.8
				c0.7,0.2,1.4,0.6,2.1,0.8c2.5,0.7,3.2,0.5,4.8-1.7c0.5-0.6,0.9-1.3,1.4-1.8c3.4-3.6,7.3-3.3,10.3,0.7c1.3,1.8,2.7,3.7,3.7,5.8
				c1.8,3.4,2.4,7,1.7,11c-0.7,3.9-0.6,8-0.8,12.1c-0.1,1,0.1,2,0.1,3c-0.1,7.6-4.9,13.4-12.4,15.1c-2.4,0.6-4.5,0.2-6.5-1.2
				c-3.6-2.5-5.8-6-6.4-10.4C442.5,316.3,442.4,313.9,442.3,311.3z M443.9,288.4c-1.8,2.9-2,3.4-0.4,5.3c3.3,3.8,3.7,8.2,3.3,12.8
				c-0.2,2.5-0.6,5-0.7,7.6c-0.1,3.7,0.6,7.3,2.9,10.4c1.5,2,3.4,2.8,5.9,2.5c4.9-0.7,8.6-5.3,7.9-10.8c-0.8-6.1-0.2-12.1,1.4-18
				c1.3-5-0.6-8.9-3.6-12.6c-1.1-1.4-2.4-1.3-3.6-0.2c-1.1,1.1-1.9,2.3-3,3.4c-2.7,2.8-4.7,3-8,0.8
				C445.5,289.2,444.8,288.9,443.9,288.4z"/>
			<path d="M518.8,346.5c1.9,0.5,5.2,1,8.1,2.3c3.5,1.5,6.8,1.8,10.3,0.4c3-1.1,5.9-2.2,8.9-3.3c2.1-0.8,4.5-1.9,6.4,0
				c1.9,1.9,1.7,4.4,0.9,6.8c-0.3,0.8-0.6,1.7-1,2.5c-1.4,3.3-1.9,6.7-1.3,10.4c0.4,2.3,0.2,4.8-0.4,7.1c-1.1,3.9-5,5.2-8.5,3.1
				c-0.2-0.1-0.4-0.3-0.6-0.4c-3.3-3.3-7.3-4.7-11.9-4.9c-2.5-0.1-4.4-1.8-5.9-3.8c-2.2-3.1-4.9-5.4-8.4-6.8
				c-3.1-1.3-4.7-3.6-4.6-7.1C511,348.6,513.3,346.3,518.8,346.5z M550.2,349.4c-3.3,1-6.1,1.7-8.9,2.7c-5.2,1.8-10.3,2.2-15.5-0.4
				c-1.3-0.7-2.8-1.1-4.3-1.4c-1.6-0.3-3.3-0.5-4.9-0.3c-2.2,0.3-3,2.9-1.5,4.6c0.5,0.6,1.2,1,1.7,1.5c2.8,2.3,5.5,4.7,8.4,7
				c1.6,1.2,3.3,2.7,5.1,3c2.6,0.4,4.9,1.3,7,2.6c1.7,1,3.3,2.3,5,3.4c2.4,1.6,4.6,1,5.2-1.8c0.4-1.7,0.4-3.6,0-5.2
				c-1-4.2-0.3-8,1.3-11.8C549.5,352.1,549.8,350.9,550.2,349.4z"/>
		</g>
	</g>
	<g>
		<path class="st2" d="M839.1,419.6l7.7-1.6l5.3-5.6l2.6-9.3c0,0,0-5.9,1.1-8.8l5-12.2v-9.3l-15.6-2.4l-15.9-9.3l-11.9-2.8
			l-20.7-10.5l-13.6-10.5l-11-11.3l-13.2-5.9l-11.1-1.1l-3.1,0.7l-1.2,9.4l-4.6,9.4l-24.5,13.5l-4.8,10.1l-14.3,3l-10.4-7.1
			l-6.1-0.2l-4.5,0.5l6.3,20.3l-2.9,6.4l-12.2,1.1l-15.7-2.3l-12,1.6l-9.5,6.3l4.1,7.5l-5.9,4.5l1.8,6.3l5.4,4.5l21.4,3.6l15.5,7.5
			l5,13.8l10,8l5.7,7.5l-2.5,3.4l-1.3,4.3l4.5,12.9l-1.4,46.4l-5.2,3.9l-1.8,2.8l5.4,4.9l7.9,3.8l22.5,6.4l14.8,0.2h9.1l12.9,6h14.3
			l4.5-15l9.5-12.4l8.9-1.4l21.6,5.7l15.9,3.8l20.7-19.4l4.6-8.3H847l-3.8-4l-0.5-10.5l-5-9.4l5-8.3l-2.9-16.5l-7-10.4l-11.6,5.2
			l12.5-21.1L839.1,419.6z M795.7,478.3l-10,2.5h-5l-0.2,12.9l-24.4,1.4l-1.8-17l-32.8-0.5l-2.8-33.1l15.5-61.7l2.9-2.1l15.1,2
			l11,1.7l-9.9,50.2h28.4v10.3l15.9,3.7L795.7,478.3z"/>
		<polygon class="st2" points="883.6,519.2 885.3,521.1 887.2,531.4 885.4,549.5 883.6,556.4 880.8,558.5 876,554.7 872.6,548.1 
			870.7,533 875.3,525.7 881.5,523.1 		"/>
		<g>
			<path d="M828.6,442.7c0.5-0.2,1.1-0.4,1.6-0.6c3.2-1.3,5.3-0.8,6.7,2.4c2.2,4.8,4.1,9.7,5.9,14.6c1.1,3.1,1.8,6.4,2.5,9.7
				c0.8,4-0.2,7.4-3.5,9.9c-0.4,0.3-0.6,0.7-1,1.1c0.1,0.5,0.1,1,0.4,1.4c2.8,3.6,3.2,7.9,3.6,12.2c0.1,1.6,0.8,3.2,1.6,4.6
				c0.8,1.4,2.3,1.9,4.1,1.6c1.6-0.3,3.3-0.6,5-0.6c1.1,0,2.4,0.4,3.3,1.1c1.2,0.8,1.6,2.1,0.6,3.4c-0.2,0.3-0.4,0.6-0.6,0.9
				c-6.3,8-12.6,16-20.4,22.6c-7.1,6.1-8,6.3-16.9,3.6c-2.6-0.8-5.2-1.7-7.9-2.6c-3.3-1.1-6.5-2.5-9.9-3.3
				c-6.9-1.5-13.8-1.6-20.1,2.4c-3.8,2.4-6.2,6-7.7,10.1c-1,2.9-1.8,6-2.6,9c-0.7,2.7-1.6,3.5-4.4,3.8c-6.2,0.5-12.2,0.3-18-2.3
				c-4.9-2.2-10.1-2.1-15.2-1.2c-6.4,1.1-12.7,0.3-18.9-0.8c-6.9-1.2-13.4-3.4-19.6-6.8c-2-1.1-4.1-1.9-6.3-2.7
				c-2.9-1-5.2-3-7.2-5.2c-2.2-2.4-2-5.6,0.9-7c4.6-2.1,5.2-5.8,5.2-10.1c-0.2-10.7-0.2-21.3,0.8-32c0.4-3.9-0.4-7.6-2.4-11
				c-1.1-1.9-1.7-4.2-2.4-6.3c-1-3-0.4-5.7,2-7.9c0.3-0.3,0.6-0.7,1-1.2c-1.1-3-2.8-5.5-5.5-7.3c-5.7-3.7-9.9-8.4-11.7-15.3
				c-0.9-3.6-3.8-6.3-7.3-8c-4.8-2.2-9.7-3.9-15-4.8c-5.9-0.9-11.8-1.8-17.3-4.5c-2.8-1.4-4.9-3.3-6.2-6.2c-1.8-3.8-1.2-6.9,2-9.6
				c0.5-0.4,1-0.9,1.7-1.5c-0.7-1-1.3-1.8-1.9-2.7c-2.3-3.1-2.1-5.3,1-7.7c1.6-1.2,3.4-2.4,5.2-3.1c6.7-2.7,13.7-3.3,20.8-2.1
				c3.2,0.5,6.4,1.3,9.6,1.5c3.3,0.3,6.7,0.4,10-0.1c4-0.5,4.7-1.9,3.6-5.6c-1.1-3.8-2.7-7.5-3.6-11.3c-0.7-2.9-0.7-5.9-0.9-8.9
				c-0.1-1.7,1-2.7,2.6-2.9c3.9-0.5,7.6-0.2,10.9,2.3c2.6,1.9,4.9,4.1,8.3,4.8c5.9,1.2,10.8-0.7,13.6-5.9c2.3-4.5,5.8-7.8,10.3-10.2
				c5.8-3.1,11.5-6.4,17.2-9.7c3-1.7,4.2-4.4,4-7.9c-0.1-2.9,0.7-5.6,1.9-8.3c1.6-3.7,4.7-5.1,8.1-4.5c5.3,0.8,10.6,2.1,15.7,3.8
				c5.1,1.7,9,5.3,12.4,9.4c4.3,5.2,9.4,9.6,15.1,13.2c2.5,1.6,4.7,3.7,7.3,5.1c5.2,2.9,10.5,5.7,15.9,8.2c2.5,1.2,5.5,1.7,8.3,2
				c3.2,0.4,6.1,1.2,8.8,2.8c3.2,1.9,6.4,3.9,9.7,5.4c5.2,2.4,10.6,4.3,16.6,3.6c1.6-0.2,3,1.1,3.9,3.2c1.6,3.7,0.4,7.3-0.6,10.9
				c-0.2,0.8-0.6,1.6-1,2.3c-3.1,5.1-4.3,10.9-5.6,16.6c-0.5,2.2-0.5,4.5-1,6.7c-1.2,5.8-4.3,9.8-10.6,10.7c-1.2,0.2-2.3,0.7-3.5,1
				c-1.7,0.4-2.8,1.3-3.5,2.8c-0.4,0.8-0.9,1.7-1.3,2.6c-1.8,5.1-4.7,9.7-7.8,14.1c-0.4,0.5-0.6,1.2-0.9,1.8
				C828.3,442.4,828.5,442.6,828.6,442.7z M676.3,359.8c0.3,1,0.5,2,1,2.9c3.1,5,4.2,10.7,4.8,16.4c0.6,4.9-1.3,9.9-7.4,9.6
				c-6.4-0.3-13.1-0.3-19.2-1.9c-8.8-2.4-16.3,0.1-23.8,3.8c-2.2,1.1-2.4,2.9-0.7,4.7c0.7,0.8,1.6,1.5,2.2,2.3
				c1.6,2.3,1.3,3.1-1.2,4.4c-1,0.5-2,0.9-2.8,1.6c-0.5,0.5-1,1.6-0.8,2.1c1.2,2.4,2.3,5,5.6,5.4c3.8,0.5,7.6,1.3,11.3,1.9
				c8.3,1.5,16.2,4.1,23.6,8.4c3.9,2.3,6.5,5.2,6.4,10c-0.1,5.2,2.3,8.8,6.7,11.4c2.3,1.3,4.4,2.9,6.6,4.4c2.5,1.8,4,4.3,4.8,7.4
				c0.5,1.9-0.1,3.2-1.5,4.5c-2.9,2.7-2.9,3.3-1.4,7.1c1.6,3.9,3.2,7.8,3.1,12.1c0,5.4-0.3,10.8-0.6,16.2c-0.2,4.5-0.6,9.1-0.7,13.6
				c-0.1,5.4,0,10.7,0,16.1c-1,0.3-1.7,0.5-2.3,0.8c-1.5,0.8-3.9,0.9-4,3.1c-0.1,2.2,1.9,3.2,3.5,4.1c0.1,0.1,0.2,0.1,0.3,0.2
				c8.4,3.3,16.5,7.2,25.4,8.9c4.2,0.8,8.5,1.6,12.8,1c5-0.7,10-1.1,15-0.1c3.9,0.8,7.7,1.9,11.5,2.9c5,1.3,10,2.3,15.3,0.4
				c-0.5-4,0.4-7.5,2.5-10.7c1.4-2.1,2.7-4.3,4.3-6.2c3.7-4.4,7.4-8.8,13.7-9.7c3.8-0.6,7.4,0.1,10.9,1.2c1.7,0.5,3.4,1.5,5.1,1.6
				c4.8,0.1,9.1,1.6,13.4,3.7c0.5,0.3,1.1,0.5,1.7,0.6c4.1,0.8,8.4,2,12.1-1c3.4-2.8,6.6-5.9,9.8-8.9c1.7-1.6,3.2-3.5,5-5.2
				c2.1-2,3.7-4.2,4.5-7c-0.4-0.2-0.7-0.4-0.9-0.4c-1.1,0.1-2.1,0.3-3.2,0.3c-1.2,0-2.5,0-3.5-0.4c-4.4-2.2-7.2-8.4-6-12
				c1.1-3,0-5.6-2.1-7.9c-1-1.2-1.8-2.5-2.6-3.8c-0.7-1.2-0.4-2.2,0.8-3.1c4.2-3,5.2-6.1,3.9-11c-0.2-0.7-0.4-1.4-0.4-2.1
				c0.1-6.2-3.2-11.1-5.9-16.7c-1.1,0.6-2,1.1-2.9,1.6c-2.6,1.4-5.2,3.1-7.9,4.2c-2.6,1.1-4.2-0.5-3.7-3.3c0.1-0.7,0.4-1.4,0.7-2
				c0.9-1.8,1.7-3.7,2.8-5.4c1.9-2.9,3.7-5.9,6-8.5c2.3-2.6,4.2-5.3,5.2-8.5c1.8-5.5,5.4-8.5,11.2-9.2c1.3-0.2,2.7-1,3.7-1.9
				c2.5-2.3,3.3-5.3,3.6-8.7c0.6-6.6,0.2-13.5,3.5-19.7c1.1-2.1,2.2-4.3,2.9-6.6c1.1-3.4,0.2-4.5-3.3-4.3c-7.8,0.4-14.7-2.2-20.6-7
				c-3.9-3.2-8.2-4.8-13.1-5.1c-4.2-0.2-7.8-2.2-11.3-4.4c-4.5-2.9-8.8-6.1-14.2-7.4c-1.5-0.4-3.3-1-4-2.2c-2.4-3.6-5.6-6.2-9.1-8.5
				c-3.5-2.2-6.5-4.9-9-8.2c-5.7-7.7-14-10.5-23-11.5c-3-0.3-4,0.7-4.6,3.7c-0.7,3.4-1.3,6.9-2.5,10.1c-2,5.2-5.2,9.8-10.3,12.4
				c-3.9,2-8.1,3.6-12.2,5.2c-5,1.9-8.6,5.1-9.6,10.7c-0.4,2.2-1.8,3.6-4,4.2c-2,0.5-3.9,1.1-5.9,1.6c-6.2,1.5-12-0.7-15.7-5.8
				C683.8,359.3,680.6,358.5,676.3,359.8z"/>
			<path d="M888.7,537c-0.2,3.6-0.4,7.2-0.6,10.7c-0.2,3.5-1.2,6.8-3.2,9.8c-1.9,2.7-4.5,3.3-7.1,1.2c-3.2-2.6-5.8-5.7-6.7-9.9
				c-0.6-3-1.4-6.1-2.1-9.1c-1.3-5.8,0.5-10.6,4.6-14.7c0.4-0.4,0.8-1,1.4-1.1c2.8-0.9,4.5-2.6,5.7-5.3c0.7-1.5,2.5-2.2,4.3-1.9
				c1.7,0.3,2.2,1.7,2.4,3.2c0.5,2.8,1.1,5.6,1.3,8.4c0.2,2.8,0.1,5.7,0.1,8.6C888.8,537,888.8,537,888.7,537z M884.8,523.2
				c-0.3,0-0.5-0.1-0.8-0.1c-1.1,2.4-2.4,4.5-5.4,5.1c-4.8,1-6.3,3.1-6,8.2c0.3,3.6,1.4,7.1,1.6,10.6c0.2,3.4,1.9,5.9,4,8.2
				c1.6,1.8,3.1,1.7,4.2-0.5c0.8-1.6,1.4-3.4,1.5-5.1c0.6-7.6,0.9-15.3,1.3-22.9C885.3,525.5,885,524.4,884.8,523.2z"/>
		</g>
		<g>
			<path d="M739,378.7c5-0.2,24.2,2.1,27.8,3.3c1.6,0.6,2.5,2,2.6,3.7c0.1,4.3-1.3,8.3-2.5,12.3c-3.3,10.7-6.9,21.4-10.4,32.1
				c-0.6,1.7-0.3,2.2,1.4,2.1c4.9-0.1,19.3-0.7,20.3-0.7c1.1,0,8.5,1.9,9.5,3.3c0.2,0.3,0.2,0.9,0.2,1.4c-0.2,2.9-0.5,5.7-0.6,8.6
				c0,0.3,0.7,0.9,1.1,0.9c2.4-0.2,8.1,0.4,9.2,0.8c0.3,0.1,0.5,0.3,0.7,0.4c2.8,0.7,2.8,0.7,2.7,3.5c-0.1,2.6,0,5.1-0.1,7.7
				c-0.3,6.4-0.6,12.9-1,19.3c0,0.7-0.8,1.4-1.5,1.9c-2.9,2-9.7,2.3-12.6,2.3c0,3.4-0.2,6.8,0.1,10c0.2,2.4-1.5,4.7-4.1,4.9
				c-4.8,0.4-20.6,0.4-26.5,0.4c-0.7,0-1.7-0.5-2.2-1.1c-0.4-0.5-0.3-1.5-0.3-2.3c0-0.7,0.4-8.2,0.5-11.2c0-1.4-0.5-1.9-1.9-1.8
				c-0.9,0.1-1.9,0.2-2.8,0.3c-7.7,0.8-15.3,0.6-23,0.2c-1.5-0.1-5-0.2-5.5-0.7c-0.5-0.5-0.8-1.2-1.2-1.8c-2.6-4.9-2-25-2.1-29.9
				c-0.1-1.8-0.4-3.7,0-5.5c1-4.4,3.8-22.8,5.3-27.7c1.9-6.1,3.9-12.2,5.7-18.3c1.2-4.1,2.3-8.3,3.4-12.5
				C731.5,383.4,733.9,378.2,739,378.7z M748,475.5c0,0,0-0.1,0-0.1c0.9,0,1.9,0,2.8,0c1,0,2,0,3,0.1c2.2,0.1,3.9,2.4,3.7,4.3
				c-0.2,4-0.2,7.9-0.2,11.9c0,0.4,0.9,1.2,1.4,1.2c3.7-0.1,14.3-0.4,16-0.4c1.4-0.1,1.9-0.6,1.9-1.9c0-3.3,0-7.7,0-11
				c0-1.5,0.6-2.1,1.9-1.9c1.7,0.3,3.5,0.7,5.2,0.8c1.7,0.1,3.4,0.1,5.2-0.1c0.5,0,1.3-0.6,1.3-0.9c0.3-2.4,0.4-4.8,0.4-7.2
				c0-1.5-0.3-3.1-0.3-4.6c0-4.2,0.1-8.4,0.1-12.7c0-4.8,0-4.8-4.9-4.8c-1.8,0-3.7-0.2-5.5-0.5c-1.5-0.3-2.5-1.2-2.3-3.1
				c0.3-2.3,0.3-4.5,0.5-6.8c0.1-1.3-0.4-1.8-1.7-1.8c-5.7,0.2-11.4,0.4-17.1,0.6c-1.1,0-1.3,0.4-1.3,1.5c-0.1,3.1-0.4,6.2-0.6,9.3
				c-0.1,1-0.6,1.7-1.7,1.6c-2-0.1-10.3,0.8-12.1-0.4c-0.5-0.3-0.8-3.5-0.6-4.2c0.7-3.2,1.5-6.4,2.2-9.6c0.8-3.6,1.4-7.3,2.3-10.9
				c1-4.2,2.2-8.3,3.3-12.4c1.2-4.2,2.4-8.3,3.6-12.5c1.1-4,2-8,3.2-11.9c0.4-1.4,0.2-1.8-1.2-1.9c-1.9-0.1-3.9,0-5.8-0.3
				c-3.6-0.5-7.1-1.3-10.6-1.8c-3.1-0.5-3.9,0.1-4.7,3.2c-0.8,3-1.6,6-2.4,9c-1.8,7-3.8,14-5.4,21.1c-1.2,5.1-2,10.3-2.9,15.5
				c-0.6,3.1-1.1,6.2-1.7,9.3c-0.4,2.2-1.3,4.3-1.3,6.5c0,3.9,0.4,7.8,0.6,11.8c0.2,4.3,0.3,8.6,0.6,12.8c0.2,3.1,0.3,3.1,3.4,3.2
				C733.3,475.5,740.6,475.5,748,475.5z"/>
		</g>
	</g>
	<g>
		<polygon class="st10" points="425.7,468.8 437.1,468.8 488.8,472.8 488.8,481.8 469.1,508.3 491.4,527.1 497.2,553.2 484.7,569.5 
			469.7,573.6 431.8,575.2 420.9,572.4 422,546.8 431.9,548.3 445,545 451.9,537.1 447.8,526.4 429.8,521.7 429.8,517.6 
			443.3,494.4 425.2,494.9 423.6,486.1 		"/>
		<g>
			<path d="M438.7,500.1c-1.5-0.2-2.5-0.3-3.4-0.4c-3.1-0.4-6.7,0.7-9.8,0.3c-1.3-0.2-2.5-4.4-2.9-6.1c-1-4.4,0.2-8.7,0.6-13
				c0.1-1.9-0.2-3.8-0.2-5.6c0-2.6,0-5.2,0.1-7.8c0-1.2,0.9-3,2.1-2.6c1.2,0.3,2.5,0.7,3.7,0.7c7.3-0.4,14.5,0.4,21.8,1.3
				c3.9,0.5,7.9,0.6,11.8,1c7.9,0.6,15.7,1.1,23.6,1.9c8.3,0.3,6.9,3.3,8.8,5.6c2,2.4,0.9,6.4-0.9,8.8c-3,3.9-6.2,7.6-9.4,11.4
				c-2.9,3.5-5.7,6.9-8.5,10.4c-1.4,1.7-1.2,2.1,0.8,3c24.1,12.1,26.6,27.9,27.2,32.2c4.2,26.8-17,31.5-27,33.7
				c-12.1,2.4-24.3,2.2-36.5,2.3c-5.2,0-10.5-0.2-15.7-0.5c-1.4-0.1-2.7-0.5-4.1-0.9c-2.2-0.7-3.3-3.6-2.5-6.7
				c1.4-5.5,1.7-11.2,2-16.8c0.1-1.9,0.3-3.9,0.4-5.8c0.1-1.6,0.9-2.1,2.4-1.9c2,0.3,3.9,0.6,5.9,1.1c6.5,1.4,12.3,0.4,17.3-4.3
				c0.9-0.8,1.7-1.7,2.5-2.7c1.5-2.1,1.4-4.2-0.2-6.2c-3-3.6-6.9-5.7-11.4-6.7c-1.9-0.4-3.9-0.6-5.9-1.1c-1.7-0.4-2.1-1.9-2.5-3.4
				c-0.2-0.8-0.6-1.6-0.8-2.5c-0.1-0.6-0.1-1.3,0.2-1.7c0.9-1.5,2-2.8,2.9-4.3C433.6,508.7,436,504.6,438.7,500.1z M489.9,544.5
				c-0.2-3.7-1.3-9.8-2.9-13.3c-1-2.2-2.3-4.4-3.7-6.4c-4.8-7.1-11.2-12.1-19.2-15.2c-1.8-0.7-2.1-2-0.7-3.4
				c0.8-0.9,1.7-1.8,2.4-2.7c2.5-3.3,5-6.7,7.5-9.9c4.7-6,9.5-11.9,14.2-17.8c0.4-0.5,0.5-1.1,0.8-1.6c-0.3-0.2-0.4-0.3-0.5-0.3
				c-8.2-0.7-16.5-1.5-24.7-2.1c-3.8-0.3-7.7-0.4-11.5-0.8c-7.3-0.7-14.6-1.7-21.9-1.3c-4,0.2-3.9,0.1-3.9,4.2
				c0,5.7-0.1,11.4-0.2,17.4c0.3,0,0.9,0.2,1.5,0.2c1.8,0.1,3.7,0,5.5,0.2c3.8,0.3,7.5,0.6,11.3,1c1.6,0.2,2.4,1.6,1.6,2.8
				c-4.3,6.9-8.6,13.9-12.9,20.7c-0.8,1.3-0.3,1.5,0.8,1.7c2.3,0.3,4.6,0.5,7,0.9c8.4,1.3,14.2,6.9,14,15.9c0,2.6-0.1,5.3-1.8,7.5
				c-3.3,4.4-7.8,6.6-13,7.7c-4.5,0.9-8.9,1.2-13.4,0c-0.8-0.2-1.6-0.7-2.6-1.1c-0.5,6.8-1,13.9-1.6,21.1c1.1,0.3,2.2,0.8,3.4,0.9
				c8.3,0.7,16.6,1.7,24.9,1.8c8.4,0.2,18.1,0.2,24.8-3.8C482.3,564.7,490.1,558.9,489.9,544.5z"/>
		</g>
	</g>
	<g>
		<polygon class="st9" points="45.8,461.1 56.8,485.8 63.9,485.8 81.3,475.5 87.5,482 86.1,489.5 78,501.6 66.3,515.7 50.6,529.5 
			50.4,547.8 50.8,554.9 61.8,558.8 119.7,558.8 126.4,534.5 121.4,529.8 112.5,528.8 89.7,528.8 92.5,521.1 114.7,503.4 
			122.6,476.9 111.6,457.5 101,447.8 82.9,443.8 70.1,445.5 51.1,455.8 		"/>
		<g>
			<path d="M97,527.2c3.2,0,6.4,0,9.6,0c4.6,0,9.1-0.4,13.7-0.1c2.3,0.1,7.5,1.1,9.7,2c1.2,0.5,1.7,1.7,1.6,3
				c-0.6,5.1-1.2,10.1-1.8,15.2c-0.1,1.3-1,9.3-3.3,10.8c-1.4,1-6.1,1.6-7.9,1.7c-6.3,0.3-12.6,0.5-18.8,0.5
				c-3.4,0-6.8-0.4-10.1-0.6c-6.5-0.3-13-0.4-19.5-0.9c-6-0.4-12-1-18.1-1.6c-1.4-0.1-1.9-1.2-2.6-2.4c-2.2-3.8-0.5-7.7-0.4-11.5
				c0-1.9,0.1-3.9,0.1-5.8c0-2.7-0.2-5.5-0.1-8.2c0-0.8,0.7-1.9,1.4-2.4c4.5-3.1,8.3-6.9,12.1-10.8c2.2-2.2,4.7-4.2,6.9-6.4
				c1.8-1.8,3.6-3.8,5.2-5.8c2.9-3.6,5.8-7.1,8.2-11c1.4-2.2,2.2-5,2.7-7.6c0.6-3.1-1.4-4.8-4.5-4.2c-5.3,1.1-10.1,3.2-14.1,7
				c-2.8,2.7-2.7,2.6-6,0.8c-4.2-2.4-6.4-6.2-8.6-10.1c-0.9-1.6-2.1-3-2.8-4.7c-1.4-3.1-2.7-6.3-4-9.5c-0.5-1.2-1.1-2.4-1.8-3.5
				c-0.9-1.5-0.7-2.2,0.7-3.1c1.7-1.1,3.3-2.4,5-3.6c5.8-4.1,12.1-7.4,18.8-9.6c5.6-1.9,11.4-2.9,17.4-1.9c2.9,0.5,5.8,1.4,8.7,2.2
				c6,1.6,11.1,5,15.7,9c1.8,1.6,3.2,3.7,4.6,5.7c2,3,4.1,6,5.8,9.3c1,1.9,4.4,9.6,4.6,11.8c2.5,20.5-10.6,31.4-17.9,39.6
				C105,523.1,97,527,97,527.2z M101.1,531.3c-4.7,0.2-9.5,0.4-14.1-0.9c-1-0.3-2.2-1-2.7-1.9c-1-1.9,0.3-5.8,1.9-7.3
				c7.2-6.4,14.2-13,20.2-20.7c4.7-6,8.7-12.3,9.7-20.1c0.7-5.4,1-10.7-1.3-15.9c-1.7-3.8-4.2-7-7.4-9.5c-4.2-3.3-8.9-6-14.2-7.3
				c-3-0.7-5.9-1.5-8.9-1.9c-3.9-0.6-7.9-0.3-11.7,1.1c-4.3,1.5-8.8,2.8-12.9,4.8c-4.1,2.1-7.7,4.9-11.6,7.5
				c-0.8,0.5-1.4,1.2-0.9,2.2c2,4.4,3.9,8.8,6,13.1c0.9,1.9,2.2,3.6,3.2,5.4c1.1,1.9,1.3,2,3.1,0.8c4.8-3.2,9.5-6.4,14.6-9.1
				c5.5-2.9,11-0.2,13.5,4.2c2.3,4.2,2.3,8.6,0.5,13.3c-2.9,7.4-7.9,13.1-13,18.8c-4,4.4-8.4,8.5-12.8,12.6
				c-2.9,2.7-5.9,5.3-8.9,7.9c-1.2,1-1.9,2.1-1.8,3.9c0.1,5.3-0.1,10.7-0.1,16c-0.1,4.1-0.1,4,4.1,3.9c4.6-0.1,9.2,0.2,13.8,0.3
				c4.8,0.1,9.6,0.1,14.3,0.1c1.7,0,3.4-0.1,5.1-0.1c8.8,0.2,17.7,0.4,26.5,0.7c1.3,0,1.8-0.5,1.8-1.8c0.4-6.3,0.9-12.5,1.4-18.8
				c0.1-2-0.1-2.2-2.1-2.1C111.4,530.8,106.2,531.1,101.1,531.3z"/>
		</g>
	</g>
	<g>
		<polygon class="st8" points="227.6,353.4 248.9,345.7 262.2,334.8 272.6,322.8 294.1,322.8 296.6,349.8 295.2,428.3 262.1,429.9 
			260,424.4 259.2,371.6 246.8,379.4 227.6,383 225.5,379.2 224.4,370.1 225.5,354.4 		"/>
		<g>
			<path d="M257.4,379.7c-3.4,1.6-6.1,2.9-8.9,4.1c-6,2.5-12.1,3.8-18.6,2.1c-1.6-0.4-3-0.4-4.8-2.5c-2.6-0.4-1.7-26.4,0.2-31.4
				c6.5-1.9,10.4-2.9,16.4-5.9c10.6-5.3,19.8-12.6,25.6-23.4c0.5-0.9,3.3-5.8,5.5-5.7c6.3,0.5,12.5,0.8,18.8,1.2
				c4.7,0.3,8.9,2.2,12.8,4.8c0.7,0.5,1.1,1.9,1.1,2.9c0.6,20.9,1.2,41.7,0,62.6c-0.7,12.3-0.8,24.6-1.1,36.9
				c-0.1,5-1.6,6.8-6.7,7.3c-4.4,0.4-8.8,0.7-13.2,0.8c-7.2,0.2-14.4,0.2-21.6,0.2c-0.8,0-2.1-0.2-2.4-0.8c-1.2-2.6-2.9-5.3-3-8
				c-0.3-9.3-0.1-18.7-0.1-28.1C257.4,391.3,257.4,385.8,257.4,379.7z M262.2,415.1c0,0-0.1,0-0.1,0c0,1,0,2,0,3c0,1,0.1,2,0.1,3
				c0.2,4.1,0.4,4.5,4.6,4.3c7.2-0.2,14.4-0.6,21.5-0.9c1.9-0.1,2.8-1.2,2.9-2.9c0.4-9.8,0.5-44.3,0.5-51.9
				c-0.1-4.8,0.3-9.6,0.4-14.5c0-2.9-0.5-5.7-0.4-8.6c0.3-6.4,0.7-12.7,1.3-19.1c0.4-4.2-0.1-5-4.3-5.2c-3.9-0.2-7.9,0.1-11.9-0.1
				c-2.3-0.1-3.6,1-4.7,2.9c-7.2,12.7-17.8,21.6-31.1,27.3c-3.6,1.5-7.6,2-11.3,3.3c-1.2,0.4-2.8,1.6-2.9,2.5
				c-0.6,5.5-0.9,11-1.1,16.6c-0.1,3,0.8,3.7,3.7,3.4c9-1,16.9-4.4,23.7-10.4c1.5-1.3,3-2.6,4.7-3.5c0.9-0.5,2.4-0.6,3.2-0.1
				c0.8,0.5,1.4,1.8,1.5,2.8c0.1,2.9,0,5.7-0.1,8.6c-0.3,6.5-0.8,13-0.8,19.5C261.4,401.9,261.9,408.5,262.2,415.1z"/>
		</g>
	</g>
	<path d="M595.8,510.4c0,12.7,0.3,34.8,0.1,47.5c-0.1,10.6-0.5,23.1-0.8,33.7c-0.1,3.1-3.4,6.6-6.5,6.7c-4,0.1-8.1-0.2-12,0.1
		c-6.2,0.5-12.3,1.6-18.4,2.2c-2.2,0.2-4.4-0.1-6.6,0c-14.3,0.7-37.7,1.6-52,2c-9.2,0.3-18.5-0.6-27.7-0.4
		c-11.1,0.3-22.1,1.2-33.1,1.8c-4.6,0.2-9.2,0.2-13.8,0.7c-9.2,1-18.4,0.3-27.7-0.2c-11.3-0.6-22.7-0.5-34.1-0.8
		c-7.9-0.2-15.8-0.4-23.7-0.5c-4.2,0,6.7,0.3,2.5,0.3c-12.3,0.1-24.5,0-36.8-0.1c-14.9,0-22.3-0.2-37.2-0.2c-17.1,0-34.3-2-51.4-1.7
		c-10.4,0.1-20.8,0.9-31.1,1.3c-5.9,0.2-11.8,0-17.7,0.2c-23.7,0.6-39.7,1.2-63.4,1.6c-15.7,0.3-15.9-0.3-31.5-0.4
		c-11.1,0-22.3-0.1-33.4-0.2c-8.9-0.1-17.7-0.3-26.6-0.6c-0.9,0-1.8-0.7-2.5-1.2c-1.2-1-2.5-2-3.5-3.2c-0.6-0.7-0.9-1.7-0.9-2.6
		c-0.6-10.3-1.3-20.6-1.6-30.9C3.8,550,3.6,525,3,509.4c-0.5-12.9-1.6-25.7-2.2-38.6c-0.6-12.4-1.3-38.1-0.1-50.6
		c0.4-4.2,0.7-8.4,2.6-12.3c1.8-3.6,5.2-4.8,8.6-6.1c5.1,2,10.3-0.9,15.5,0.2c1.4,0.3,3-0.1,4.5-0.2c3.6-0.1,7.2-0.4,10.9-0.4
		c7.7,0.1,15.3,0.4,23,0.5c18.2,0.2,27.6,1,39.1,0.5c7.7-0.5,15.4-1.6,23.1-1.9c9.2-0.4,10.8-0.1,19.9-0.2
		c6.6-0.1,13.2,0.4,19.7-1.5c2.2-0.6,4.7-0.3,7-0.3c1.6,0,2.4-0.6,2.6-2.2c0.2-2.5,0.6-5,0.6-7.5c0.3-10.4,0.8-17,0.8-27.3
		c0-10.2-0.4-10.8-0.6-21c-0.2-13.8-0.3-27.6-0.3-41.4c0-3.5,0.6-7.1,1.2-10.6c0.3-2.1,4.3-4.6,6.9-4.7c17-0.6,34.1-1.1,51.1-1.7
		c9.8-0.3,19.6-0.9,29.3-0.9c11.4-0.1,15.2,0.5,26.5,0.4c12.4,0,24.8-0.4,37.3-0.5c4.5-0.1-6.1,0.4-1.5,0.3
		c4.1-0.1,8.3-0.6,12.4-0.6c4.8,0,9.7,0.3,14.5,0.3c1.8,0,3.7-0.9,5.5-0.8c5.4,0.2,10.9,0.9,16.3,1.2c5.1,0.2,10.1,0.1,15.2,0.2
		c2.5,0.1,5,0.4,7.5,0.8c6.1,0.8,5.7,1.1,6.5,6.5c0.9,5.6,0.5,11.4,0.7,17.2c0.2,5.9,0.5,11.8,0.6,17.7c0.2,10.1,0.3,20.2,0.4,30.3
		c0.1,9.2-0.3,10.9,0,20.2c0.4,12.3,1.3,20.7,1.8,33c0.3,7,0.2,14.1,0,21.1c-0.1,2.4,0.7,3.3,3,3.3c5.5,0.1,10.9,0.4,16.4,0.4
		c9.7-0.1,19.4-0.4,29.1-0.4c4,0,8,0.4,12,0.5c18.5,0.3,49.9,0.6,68.4,0.9c5,0.1,6.2,0.6,11.2,0.4c4.8-0.1,9.6-0.9,14.5-1.1
		c5.2-0.2,10.4-0.1,15.7-0.1c3,0,6,0,9,0c1.7,0,4.9,3.2,5,5.3c0.2,6.1,0.4,12.1,0.5,18.2c0.2,13.3,0.6,37.9,0.8,51.2
		c0,1.1,0,2.3,0.1,3.4C595.6,510.4,595.7,510.4,595.8,510.4z M519.1,594.6c0,0,0,0.1,0,0.1c8.1-0.2,25.3-0.3,33.4-0.4
		c1.8,0,2.6-0.7,2.5-2.6c-0.1-3.3,0.1-6.5-0.1-9.8c-0.8-18.3-1.9-48-2.6-66.4c-0.4-11.1-0.6-29.9-0.8-41c-0.1-7-0.1-17.8-0.2-24.7
		c0-2.5-0.2-5-0.4-7.5c-0.1-1.3-0.5-2.3-2.2-2.4c-7.2-0.2-23.5-0.7-30.6-0.8c-10-0.2-20-0.1-30-0.3c-5-0.1-10-0.7-14.9-0.8
		c-18.2-0.2-36.4-0.2-54.6-0.2c-5.8,0-11.7,0.3-17.5-0.3c-7.6-0.7-15.2-2.1-22.8-0.9c-0.4,0.1-0.9,0-1.4-0.1
		c-2.6-0.2-5.2-0.4-7.8-0.6c-0.9-0.1-1.9,0.2-2.7-0.1c-0.6-0.2-1.3-1-1.4-1.6c-0.4-7.9-0.6-15.9-0.8-23.8c-0.1-4.4,0.1-8.8-0.1-13.1
		c-0.3-9.2-0.7-10.8-0.9-20.1c-0.2-8.1,0-12.4-0.1-20.5c-0.1-14.9-0.2-29.7-0.4-44.6c-0.1-6.9-0.3-13.8-0.6-20.7
		c-0.1-2.6-1.5-4.2-3.4-4.2c-9.3-0.2-18.6-0.5-28-0.4c-11.2,0.1-7.2,0.3-18.5,0.5c-11.7,0.2-15.8,0.3-27.4,0.4
		c-12.1,0.1-24.1,0-36.2-0.1c-7.4,0-14.8-0.2-22.2-0.2c-10.5,0-21,0-31.6,0.2c-3,0.1-6-0.4-9,1.8c-2.3,1.6-3.1,3.2-3.2,5.6
		c-0.1,3.6-0.1,7.3-0.1,10.9c0.1,16,0.2,32,0.4,48c0.1,8,0.4,6.4,0.5,14.4c0.1,5.8-0.2,7.9-0.4,13.7c-0.2,5.6-0.5,11.2-0.8,16.8
		c-0.2,2.5-2.1,4.5-4.5,4.8c-3.5,0.5-7,1.2-10.5,1.5c-12.9,1-18.3,2.1-31.2,2.5c-16.3,0.5-17.1,0.1-33.4,0.2c-1.7,0-3.3,0.1-5,0
		c-16.2-1.1-32.4-1.6-48.6-1.2c-12.1,0.4-24.2,0.8-36.4,1.3c-1.3,0.1-3,0.4-3.7,1.2c-1.3,1.8-2.5,3.9-2.9,6
		c-1.7,8.4-1.7,26.5-1.4,35.1c0.2,5.8,0.2,15.3,0.6,21.1c0.5,6.7,1.6,13.4,2,20.1c0.7,14.5,0.9,29,1.4,43.4
		c0.6,16.6,1.7,42.6,2.3,59.2c0.1,2,0.8,2.1,2.4,2.1c5.3-0.1,10.6-0.4,15.9,0.1c8.8,0.8,17.5,1.7,26.3,0.3c2-0.3,4.1-0.2,6.1-0.1
		c10.1,0.3,20.3,0.6,30.4,0.9c5.8,0.2,11.6,0.2,17.5,0.5c8.3,0.4,4.9-0.5,13.2-0.5c11.8,0,15.9-0.3,27.7-0.7
		c7.7-0.2,37.2-0.6,46.2-1c15.9-0.6,31.8-0.9,47.8-1.2c10.6-0.2,21.3,2,31.9,1.8c10.2-0.2,12.9-0.6,23.1-0.8
		c5.8-0.1,11.7,0.3,17.5,0.3c17.4-0.1,19.5,0,36.9-0.1c5.3,0,10.6,0.3,15.9,0.5c6,0.3,12,0.7,17.9,0.8c6.3,0.1,12.5,0.1,18.8,0
		c5.4-0.1,10.9-0.3,16.3-0.6c3.8-0.2,7.5-0.8,11.3-0.9c4.6-0.1,9.2,0.3,13.9,0.2c6.7-0.2,13.5-0.8,20.2-0.9
		C485.3,594.7,502.2,594.7,519.1,594.6z"/>
	<g>
		<path class="st1" d="M210.8,262.4c-0.1,0.4-0.2,0.6-0.5,0.8c-0.2,0.2-0.5,0.3-0.9,0.3h-2.5c-0.5,0-0.8-0.1-1-0.4
			c-0.2-0.3-0.3-0.6-0.2-1.1l5.1-19.6c0.1-0.3,0.2-0.6,0.5-0.8c0.2-0.2,0.5-0.3,0.9-0.3h5.7c0.4,0,0.7,0.1,0.9,0.3
			c0.2,0.2,0.4,0.5,0.5,0.8l5.1,19.6c0.1,0.4,0,0.8-0.2,1.1c-0.2,0.3-0.6,0.4-1,0.4h-2.5c-0.4,0-0.7-0.1-0.9-0.3s-0.4-0.5-0.5-0.8
			l-0.8-3.3h-6.8L210.8,262.4z M217.5,255.2L215,245l-2.5,10.2H217.5z"/>
		<path class="st1" d="M240.2,263.6h-11.9c-0.4,0-0.7-0.1-1-0.4c-0.2-0.2-0.4-0.6-0.4-1v-19.4c0-0.4,0.1-0.7,0.4-1s0.6-0.4,1-0.4
			h2.7c0.4,0,0.7,0.1,1,0.4s0.4,0.6,0.4,1v15.7h7.8c0.4,0,0.8,0.1,1,0.4c0.2,0.2,0.4,0.6,0.4,1v2.3c0,0.4-0.1,0.7-0.4,1
			C241,263.4,240.6,263.6,240.2,263.6z"/>
		<path class="st1" d="M257.4,263.6h-11.9c-0.4,0-0.7-0.1-1-0.4c-0.2-0.2-0.4-0.6-0.4-1v-19.4c0-0.4,0.1-0.7,0.4-1s0.6-0.4,1-0.4
			h2.7c0.4,0,0.7,0.1,1,0.4s0.4,0.6,0.4,1v15.7h7.8c0.4,0,0.8,0.1,1,0.4c0.2,0.2,0.4,0.6,0.4,1v2.3c0,0.4-0.1,0.7-0.4,1
			C258.2,263.4,257.8,263.6,257.4,263.6z"/>
		<path class="st1" d="M274.6,263.6h-11.9c-0.4,0-0.7-0.1-1-0.4c-0.2-0.2-0.4-0.6-0.4-1v-19.4c0-0.4,0.1-0.7,0.4-1
			c0.2-0.2,0.6-0.4,1-0.4h11.9c0.4,0,0.8,0.1,1,0.4s0.4,0.6,0.4,1v2.3c0,0.4-0.1,0.8-0.4,1s-0.6,0.4-1,0.4h-7.8v3.3h7.2
			c0.4,0,0.8,0.1,1,0.4c0.2,0.2,0.4,0.6,0.4,1v2c0,0.4-0.1,0.7-0.4,1c-0.2,0.2-0.6,0.4-1,0.4h-7.2v4h7.8c0.4,0,0.8,0.1,1,0.4
			s0.4,0.6,0.4,1v2.3c0,0.4-0.1,0.7-0.4,1C275.4,263.4,275,263.6,274.6,263.6z"/>
		<path class="st1" d="M292,263.6h-1.3c-0.7,0-1.1-0.3-1.4-1l-5.5-14.8v14.4c0,0.4-0.1,0.7-0.4,1c-0.2,0.2-0.6,0.4-1,0.4H280
			c-0.4,0-0.7-0.1-1-0.4c-0.2-0.2-0.4-0.6-0.4-1v-19.4c0-0.4,0.1-0.7,0.4-1c0.2-0.2,0.6-0.4,1-0.4h5.4c0.7,0,1.2,0.3,1.4,1l4.6,12.2
			l4.6-12.2c0.2-0.7,0.7-1,1.4-1h5.3c0.4,0,0.7,0.1,1,0.4s0.4,0.6,0.4,1v19.4c0,0.4-0.1,0.7-0.4,1c-0.2,0.2-0.6,0.4-1,0.4h-2.5
			c-0.4,0-0.8-0.1-1-0.4c-0.2-0.2-0.4-0.6-0.4-1v-14.4l-5.5,14.8C293.1,263.2,292.6,263.6,292,263.6z"/>
		<path class="st1" d="M311.8,262.4c-0.1,0.4-0.2,0.6-0.5,0.8c-0.2,0.2-0.5,0.3-0.9,0.3h-2.5c-0.5,0-0.8-0.1-1-0.4
			c-0.2-0.3-0.3-0.6-0.2-1.1l5.1-19.6c0.1-0.3,0.2-0.6,0.5-0.8c0.2-0.2,0.5-0.3,0.9-0.3h5.7c0.4,0,0.7,0.1,0.9,0.3
			c0.2,0.2,0.4,0.5,0.5,0.8l5.1,19.6c0.1,0.4,0,0.8-0.2,1.1c-0.2,0.3-0.6,0.4-1,0.4h-2.5c-0.4,0-0.7-0.1-0.9-0.3s-0.4-0.5-0.5-0.8
			l-0.8-3.3h-6.8L311.8,262.4z M318.5,255.2L316,245l-2.5,10.2H318.5z"/>
		<path class="st1" d="M343,259.6c-0.2,0.6-0.5,1.1-0.9,1.6c-0.4,0.5-0.8,0.9-1.4,1.3c-0.6,0.4-1.3,0.7-2.1,0.9
			c-0.8,0.2-1.7,0.3-2.7,0.3c-3.3,0-5.7-0.8-7.2-2.4c-1.5-1.6-2.2-4.1-2.2-7.7v-2.9c0-3.1,0.8-5.5,2.4-7.1c1.6-1.6,4.1-2.4,7.5-2.4
			c3,0,5.3,0.6,6.9,1.7c1.6,1.1,2.6,2.7,2.8,4.8c0,0.1,0.1,0.4,0.1,0.9c0,0.4-0.1,0.7-0.3,0.9s-0.5,0.3-0.9,0.3H342
			c-0.5,0-0.8-0.1-1-0.2s-0.3-0.4-0.4-0.8c-0.1-0.3-0.1-0.5-0.2-0.7c-0.3-0.7-0.7-1.3-1.4-1.6s-1.6-0.5-2.8-0.5
			c-1.1,0-1.9,0.2-2.5,0.5c-0.6,0.3-1.1,0.8-1.4,1.6c-0.3,0.8-0.5,1.8-0.5,3.1v2.5c0,1.9,0.3,3.2,1,3.9c0.7,0.8,1.8,1.1,3.4,1.1
			c0.5,0,1,0,1.4-0.1s0.8-0.2,1.2-0.3c0.4-0.1,0.7-0.3,1-0.6c0.2-0.3,0.4-0.6,0.6-1c0.2-0.4,0.2-0.9,0.2-1.5v-0.2h-3.2
			c-0.4,0-0.7-0.1-0.9-0.4s-0.3-0.6-0.3-0.9v-1c0-0.4,0.1-0.8,0.4-1c0.2-0.2,0.6-0.4,1-0.4h7.2c0.4,0,0.8,0.1,1,0.4
			c0.2,0.2,0.4,0.6,0.4,1v9.7c0,0.7-0.3,1-1,1H345c-0.4,0-0.6-0.1-0.8-0.2c-0.2-0.1-0.3-0.3-0.4-0.7L343,259.6z"/>
		<path class="st1" d="M365.8,263.6h-2.5c-0.6,0-1-0.2-1.3-0.7l-8.1-12v11.4c0,0.4-0.1,0.7-0.4,1c-0.2,0.2-0.6,0.4-1,0.4h-2.3
			c-0.4,0-0.7-0.1-1-0.4c-0.2-0.2-0.4-0.6-0.4-1v-19.4c0-0.4,0.1-0.7,0.4-1s0.6-0.4,1-0.4h2.6c0.5,0,1,0.2,1.3,0.7l8.2,11.6v-10.9
			c0-0.4,0.1-0.8,0.4-1c0.2-0.2,0.6-0.4,1-0.4h2.3c0.4,0,0.8,0.1,1,0.4c0.2,0.2,0.4,0.6,0.4,1v19.4c0,0.4-0.1,0.7-0.4,1
			C366.6,263.4,366.3,263.6,365.8,263.6z"/>
		<path class="st1" d="M383.1,263.6h-11.9c-0.4,0-0.7-0.1-1-0.4c-0.2-0.2-0.4-0.6-0.4-1v-19.4c0-0.4,0.1-0.7,0.4-1s0.6-0.4,1-0.4
			h11.9c0.4,0,0.8,0.1,1,0.4c0.2,0.2,0.4,0.6,0.4,1v2.3c0,0.4-0.1,0.8-0.4,1c-0.2,0.2-0.6,0.4-1,0.4h-7.8v3.3h7.2
			c0.4,0,0.8,0.1,1,0.4c0.2,0.2,0.4,0.6,0.4,1v2c0,0.4-0.1,0.7-0.4,1c-0.2,0.2-0.6,0.4-1,0.4h-7.2v4h7.8c0.4,0,0.8,0.1,1,0.4
			c0.2,0.2,0.4,0.6,0.4,1v2.3c0,0.4-0.1,0.7-0.4,1C383.9,263.4,383.6,263.6,383.1,263.6z"/>
	</g>
	<g>
		<path class="st2" d="M725.7,579.9v2.3c0,0.4-0.1,0.7-0.4,1s-0.6,0.4-1,0.4H717v6.4c0,0.4-0.1,0.7-0.4,1c-0.2,0.2-0.6,0.4-1,0.4
			h-2.7c-0.4,0-0.7-0.1-1-0.4c-0.2-0.2-0.4-0.6-0.4-1v-19.4c0-0.4,0.1-0.7,0.4-1c0.2-0.2,0.6-0.4,1-0.4h11.9c0.4,0,0.8,0.1,1,0.4
			c0.2,0.2,0.4,0.6,0.4,1v2.7c0,0.4-0.1,0.7-0.4,1c-0.2,0.2-0.6,0.4-1,0.4H717v3.9h7.2c0.4,0,0.8,0.1,1,0.4S725.7,579.5,725.7,579.9
			z"/>
		<path class="st2" d="M732.8,591.3h-2.7c-0.4,0-0.8-0.1-1-0.4c-0.2-0.2-0.4-0.6-0.4-1v-19.4c0-0.4,0.1-0.8,0.4-1
			c0.2-0.2,0.6-0.4,1-0.4h7.3c1.6,0,2.9,0.1,4,0.3s1.9,0.6,2.5,1.2c0.6,0.5,1.1,1.2,1.3,2.1s0.4,1.9,0.4,3.2v0.6
			c0,2.8-1,4.7-2.9,5.8l2.7,7.3c0.2,0.4,0.2,0.8-0.1,1.1c-0.2,0.3-0.5,0.5-1,0.5h-3.1c-0.7,0-1.1-0.3-1.4-1l-2.5-6.9h-3.2v6.5
			c0,0.4-0.1,0.8-0.4,1C733.5,591.2,733.2,591.3,732.8,591.3z M737.3,574h-3.2v5h3.2c1,0,1.7-0.2,2.1-0.5c0.4-0.3,0.6-0.9,0.6-1.8
			v-0.5c0-0.9-0.2-1.5-0.6-1.8C739,574.1,738.3,574,737.3,574z"/>
		<path class="st2" d="M753.2,590.2c-0.1,0.4-0.2,0.6-0.5,0.8c-0.2,0.2-0.5,0.3-0.9,0.3h-2.5c-0.5,0-0.8-0.1-1-0.4
			c-0.2-0.3-0.3-0.6-0.2-1.1l5.1-19.6c0.1-0.3,0.2-0.6,0.5-0.8c0.2-0.2,0.5-0.3,0.9-0.3h5.7c0.4,0,0.7,0.1,0.9,0.3
			c0.2,0.2,0.4,0.5,0.5,0.8l5.1,19.6c0.1,0.4,0,0.8-0.2,1.1c-0.2,0.3-0.6,0.4-1,0.4H763c-0.4,0-0.7-0.1-0.9-0.3s-0.4-0.5-0.5-0.8
			l-0.8-3.3H754L753.2,590.2z M759.9,583l-2.5-10.2l-2.5,10.2H759.9z"/>
		<path class="st2" d="M786.4,591.3h-2.5c-0.6,0-1-0.2-1.3-0.7l-8.1-12V590c0,0.4-0.1,0.7-0.4,1c-0.2,0.2-0.6,0.4-1,0.4h-2.3
			c-0.4,0-0.7-0.1-1-0.4c-0.2-0.2-0.4-0.6-0.4-1v-19.4c0-0.4,0.1-0.7,0.4-1s0.6-0.4,1-0.4h2.6c0.5,0,1,0.2,1.3,0.7l8.2,11.6v-10.9
			c0-0.4,0.1-0.8,0.4-1c0.2-0.2,0.6-0.4,1-0.4h2.3c0.4,0,0.8,0.1,1,0.4c0.2,0.2,0.4,0.6,0.4,1V590c0,0.4-0.1,0.7-0.4,1
			C787.2,591.2,786.8,591.3,786.4,591.3z"/>
		<path class="st2" d="M800.3,591.5c-3.4,0-6-0.8-7.5-2.3c-1.6-1.5-2.4-4-2.4-7.6v-2.9c0-6.5,3.3-9.7,9.9-9.7c6.1,0,9.3,2.6,9.8,7.7
			c0,0.1,0,0.2,0,0.4c0,0.2,0,0.3,0,0.4c0,0.4-0.1,0.7-0.3,0.9c-0.2,0.2-0.5,0.3-0.9,0.3H806c-0.4,0-0.8-0.1-1-0.3
			c-0.2-0.2-0.3-0.5-0.4-0.9c-0.1-0.4-0.1-0.6-0.1-0.6c-0.2-1-0.7-1.8-1.4-2.2c-0.7-0.5-1.7-0.7-3-0.7c-1.1,0-1.9,0.2-2.5,0.5
			c-0.6,0.3-1.1,0.8-1.4,1.6c-0.3,0.8-0.5,1.8-0.5,3.1v2.5c0,1.9,0.3,3.2,1,3.9c0.7,0.8,1.8,1.1,3.4,1.1c1.3,0,2.3-0.2,3-0.7
			s1.1-1.4,1.3-2.6c0-0.1,0.1-0.3,0.1-0.5c0.1-0.8,0.5-1.2,1.3-1.2h2.9c0.4,0,0.7,0.1,0.9,0.3s0.3,0.5,0.3,0.9l-0.1,0.7
			c-0.2,2.8-1.1,4.9-2.7,6.2C805.7,590.8,803.4,591.5,800.3,591.5z"/>
		<path class="st2" d="M826,591.3h-11.9c-0.4,0-0.7-0.1-1-0.4c-0.2-0.2-0.4-0.6-0.4-1v-19.4c0-0.4,0.1-0.7,0.4-1
			c0.2-0.2,0.6-0.4,1-0.4H826c0.4,0,0.8,0.1,1,0.4s0.4,0.6,0.4,1v2.3c0,0.4-0.1,0.8-0.4,1s-0.6,0.4-1,0.4h-7.8v3.3h7.2
			c0.4,0,0.8,0.1,1,0.4c0.2,0.2,0.4,0.6,0.4,1v2c0,0.4-0.1,0.7-0.4,1c-0.2,0.2-0.6,0.4-1,0.4h-7.2v4h7.8c0.4,0,0.8,0.1,1,0.4
			s0.4,0.6,0.4,1v2.3c0,0.4-0.1,0.7-0.4,1C826.7,591.2,826.4,591.3,826,591.3z"/>
	</g>
	<g>
		<path class="st10" d="M464.8,418.1h-2.7c-0.4,0-0.7-0.1-1-0.4c-0.2-0.2-0.4-0.6-0.4-1v-19.4c0-0.4,0.1-0.7,0.4-1s0.6-0.4,1-0.4
			h2.7c0.4,0,0.7,0.1,1,0.4s0.4,0.6,0.4,1v19.4c0,0.4-0.1,0.7-0.4,1C465.5,418,465.2,418.1,464.8,418.1z"/>
		<path class="st10" d="M474.3,401.4h-4.2c-0.4,0-0.7-0.1-1-0.4c-0.2-0.2-0.4-0.6-0.4-1v-2.7c0-0.4,0.1-0.7,0.4-1
			c0.2-0.2,0.6-0.4,1-0.4h13.8c0.4,0,0.8,0.1,1,0.4c0.2,0.2,0.4,0.6,0.4,1v2.7c0,0.4-0.1,0.8-0.4,1c-0.2,0.2-0.6,0.4-1,0.4h-4.2
			v15.4c0,0.4-0.1,0.8-0.4,1c-0.2,0.2-0.6,0.4-1,0.4h-2.7c-0.4,0-0.7-0.1-1-0.4c-0.2-0.2-0.4-0.6-0.4-1V401.4z"/>
		<path class="st10" d="M489,417c-0.1,0.4-0.2,0.6-0.5,0.8c-0.2,0.2-0.5,0.3-0.9,0.3h-2.5c-0.5,0-0.8-0.1-1-0.4s-0.3-0.6-0.2-1.1
			l5.1-19.6c0.1-0.3,0.2-0.6,0.5-0.8c0.2-0.2,0.5-0.3,0.9-0.3h5.7c0.4,0,0.7,0.1,0.9,0.3c0.2,0.2,0.4,0.5,0.5,0.8l5.1,19.6
			c0.1,0.4,0,0.8-0.2,1.1c-0.2,0.3-0.6,0.4-1,0.4h-2.5c-0.4,0-0.7-0.1-0.9-0.3c-0.2-0.2-0.4-0.5-0.5-0.8l-0.8-3.3h-6.8L489,417z
			 M495.7,409.8l-2.5-10.2l-2.5,10.2H495.7z"/>
		<path class="st10" d="M518.5,418.1h-11.9c-0.4,0-0.7-0.1-1-0.4c-0.2-0.2-0.4-0.6-0.4-1v-19.4c0-0.4,0.1-0.7,0.4-1
			c0.2-0.2,0.6-0.4,1-0.4h2.7c0.4,0,0.7,0.1,1,0.4c0.2,0.2,0.4,0.6,0.4,1v15.7h7.8c0.4,0,0.8,0.1,1,0.4c0.2,0.2,0.4,0.6,0.4,1v2.3
			c0,0.4-0.1,0.7-0.4,1C519.2,418,518.9,418.1,518.5,418.1z"/>
		<path class="st10" d="M526.5,418.1h-2.7c-0.4,0-0.7-0.1-1-0.4c-0.2-0.2-0.4-0.6-0.4-1v-19.4c0-0.4,0.1-0.7,0.4-1s0.6-0.4,1-0.4
			h2.7c0.4,0,0.7,0.1,1,0.4s0.4,0.6,0.4,1v19.4c0,0.4-0.1,0.7-0.4,1C527.2,418,526.9,418.1,526.5,418.1z"/>
		<path class="st10" d="M543.8,418.1h-11.9c-0.4,0-0.7-0.1-1-0.4c-0.2-0.2-0.4-0.6-0.4-1v-19.4c0-0.4,0.1-0.7,0.4-1s0.6-0.4,1-0.4
			h11.9c0.4,0,0.8,0.1,1,0.4c0.2,0.2,0.4,0.6,0.4,1v2.3c0,0.4-0.1,0.8-0.4,1c-0.2,0.2-0.6,0.4-1,0.4H536v3.3h7.2
			c0.4,0,0.8,0.1,1,0.4c0.2,0.2,0.4,0.6,0.4,1v2c0,0.4-0.1,0.7-0.4,1c-0.2,0.2-0.6,0.4-1,0.4H536v4h7.8c0.4,0,0.8,0.1,1,0.4
			c0.2,0.2,0.4,0.6,0.4,1v2.3c0,0.4-0.1,0.7-0.4,1C544.6,418,544.2,418.1,543.8,418.1z"/>
	</g>
	<g>
		<path class="st9" d="M54.2,373.7c3,0.2,5.1,0.7,6.4,1.7c1.3,1,1.9,2.6,1.9,4.8v0.2c0,2.2-0.8,3.9-2.4,5c-1.6,1.1-4,1.7-7.1,1.7
			c-3,0-5.3-0.5-6.9-1.6c-1.5-1.1-2.4-2.6-2.6-4.7c0,0,0-0.1,0-0.3s0-0.2,0-0.3c0-0.4,0.1-0.6,0.3-0.8c0.2-0.2,0.5-0.3,0.9-0.3h2.9
			c0.5,0,0.8,0.1,0.9,0.2c0.2,0.1,0.3,0.4,0.4,0.8c0,0.1,0.1,0.3,0.1,0.5c0.2,0.7,0.7,1.2,1.3,1.5c0.6,0.3,1.5,0.5,2.6,0.5
			c1.3,0,2.3-0.2,3-0.5c0.6-0.3,1-0.8,1-1.6v-0.1c0-0.3,0-0.6-0.1-0.8c-0.1-0.2-0.2-0.4-0.5-0.6c-0.2-0.2-0.5-0.3-0.9-0.4
			c-0.4-0.1-0.9-0.2-1.5-0.3c-0.6-0.1-1.3-0.2-2.2-0.3c-1.6-0.1-2.8-0.3-3.9-0.6s-1.9-0.6-2.6-1.1c-0.7-0.5-1.2-1.1-1.5-1.9
			c-0.3-0.7-0.5-1.7-0.5-2.8v-0.2c0-2.3,0.8-4,2.3-5.1c1.6-1.1,3.9-1.7,7.1-1.7c2.9,0,5.1,0.5,6.7,1.6c1.6,1.1,2.5,2.5,2.7,4.5
			c0.1,0.2,0.1,0.4,0.1,0.6c0,0.4-0.1,0.6-0.3,0.8c-0.2,0.2-0.5,0.3-0.9,0.3h-2.9c-0.5,0-0.8-0.1-1-0.2c-0.2-0.1-0.3-0.4-0.4-0.8
			c-0.1-0.3-0.1-0.5-0.2-0.6c-0.6-1.1-1.9-1.6-3.9-1.6c-2.6,0-4,0.7-4,2v0.1c0,0.5,0.1,0.9,0.4,1.2s0.8,0.5,1.5,0.7
			S52.7,373.6,54.2,373.7z"/>
		<path class="st9" d="M83.4,376.7c0,1.6-0.1,2.9-0.3,4.1c-0.2,1.1-0.5,2.1-1,3c-0.4,0.8-1,1.5-1.8,2c-0.7,0.5-1.6,0.9-2.6,1.1
			c-1,0.2-2.2,0.4-3.6,0.4c-1.7,0-3.2-0.2-4.3-0.5c-1.2-0.4-2.1-1-2.8-1.8c-0.7-0.8-1.3-1.9-1.6-3.2c-0.3-1.3-0.5-3-0.5-4.9v-10.4
			c0-0.4,0.1-0.8,0.4-1c0.2-0.2,0.6-0.4,1-0.4h2.7c0.4,0,0.8,0.1,1,0.4s0.4,0.6,0.4,1v10.1c0,1.5,0.1,2.7,0.4,3.5
			c0.3,0.9,0.7,1.5,1.2,1.8c0.5,0.4,1.2,0.5,2.1,0.5c0.9,0,1.6-0.2,2.1-0.5c0.5-0.3,1-1,1.2-1.8c0.3-0.9,0.4-2.1,0.4-3.5v-10.1
			c0-0.4,0.1-0.8,0.4-1c0.2-0.2,0.6-0.4,1-0.4H82c0.4,0,0.8,0.1,1,0.4s0.4,0.6,0.4,1V376.7z"/>
		<path class="st9" d="M99.4,387H87.5c-0.4,0-0.7-0.1-1-0.4c-0.2-0.2-0.4-0.6-0.4-1v-19.4c0-0.4,0.1-0.7,0.4-1s0.6-0.4,1-0.4h11.9
			c0.4,0,0.8,0.1,1,0.4c0.2,0.2,0.4,0.6,0.4,1v2.3c0,0.4-0.1,0.8-0.4,1c-0.2,0.2-0.6,0.4-1,0.4h-7.8v3.3h7.2c0.4,0,0.8,0.1,1,0.4
			c0.2,0.2,0.4,0.6,0.4,1v2c0,0.4-0.1,0.7-0.4,1c-0.2,0.2-0.6,0.4-1,0.4h-7.2v4h7.8c0.4,0,0.8,0.1,1,0.4c0.2,0.2,0.4,0.6,0.4,1v2.3
			c0,0.4-0.1,0.7-0.4,1C100.1,386.9,99.8,387,99.4,387z M94.6,364h-1.8c-0.2,0-0.4,0-0.5,0s-0.2-0.1-0.4-0.2l-0.6-0.5
			c-0.2-0.2-0.3-0.4-0.2-0.6c0.1-0.2,0.3-0.3,0.6-0.3h2.3c0.3,0,0.5,0,0.6,0.1c0.1,0.1,0.3,0.2,0.4,0.5l0.1,0.3
			c0.1,0.3,0.1,0.5,0,0.6C95,363.9,94.8,364,94.6,364z"/>
		<path class="st9" d="M112.3,387h-7.6c-0.4,0-0.7-0.1-1-0.4c-0.2-0.2-0.4-0.6-0.4-1v-19.4c0-0.4,0.1-0.7,0.4-1s0.6-0.4,1-0.4h7.6
			c1.8,0,3.3,0.2,4.6,0.6c1.3,0.4,2.3,1,3.1,1.8s1.4,1.9,1.7,3.1s0.5,2.7,0.5,4.5v2c0,1.8-0.2,3.3-0.5,4.5s-0.9,2.3-1.7,3.1
			s-1.8,1.4-3.1,1.8C115.6,386.8,114.1,387,112.3,387z M112.3,369.7h-3.4v12.6h3.4c1.1,0,1.9-0.2,2.6-0.5c0.6-0.3,1.1-0.9,1.4-1.7
			c0.3-0.8,0.5-2,0.5-3.4v-1.4c0-1.1-0.1-2-0.3-2.7c-0.2-0.7-0.5-1.3-0.8-1.7s-0.8-0.7-1.4-0.9S113.1,369.7,112.3,369.7z"/>
		<path class="st9" d="M138,387h-11.9c-0.4,0-0.7-0.1-1-0.4c-0.2-0.2-0.4-0.6-0.4-1v-19.4c0-0.4,0.1-0.7,0.4-1s0.6-0.4,1-0.4H138
			c0.4,0,0.8,0.1,1,0.4c0.2,0.2,0.4,0.6,0.4,1v2.3c0,0.4-0.1,0.8-0.4,1c-0.2,0.2-0.6,0.4-1,0.4h-7.8v3.3h7.2c0.4,0,0.8,0.1,1,0.4
			c0.2,0.2,0.4,0.6,0.4,1v2c0,0.4-0.1,0.7-0.4,1c-0.2,0.2-0.6,0.4-1,0.4h-7.2v4h7.8c0.4,0,0.8,0.1,1,0.4c0.2,0.2,0.4,0.6,0.4,1v2.3
			c0,0.4-0.1,0.7-0.4,1C138.7,386.9,138.4,387,138,387z"/>
	</g>
</g>
</svg>
