<?xml version="1.0" encoding="utf-8"?>
<!-- Generator: Adobe Illustrator 19.1.0, SVG Export Plug-In . SVG Version: 6.00 Build 0)  -->
<svg version="1.1" id="Calque_1" xmlns="http://www.w3.org/2000/svg" xmlns:xlink="http://www.w3.org/1999/xlink" x="0px" y="0px"
	 viewBox="0 0 1032.3 658" style="enable-background:new 0 0 1032.3 658;" xml:space="preserve">
<style type="text/css">
	.st0{fill:#6D9DBD;}
	.st1{fill:#F2A73B;}
	.st2{fill:#6DA3C3;}
	.st3{fill:none;}
	.st4{fill:none;stroke:#F2A73B;stroke-width:3;stroke-miterlimit:10;}
	.st5{fill:#6DA1C1;}
	.st6{fill:#F6AB3B;}
	.st7{fill:none;stroke:#F6AB3B;stroke-width:3;stroke-miterlimit:10;}
	.st8{fill:#F8AD3B;}
	.st9{fill:#C6C6C6;}
	.st10{fill:#F4901E;}
	.st11{fill:none;stroke:#F8AD3B;stroke-width:3;stroke-miterlimit:10;}
	.st12{fill:#FFFFFF;}
	.st13{fill:#FFFFFF;stroke:#C6C6C6;stroke-width:3;stroke-miterlimit:10;}
	.st14{fill:none;stroke:#C6C6C6;stroke-width:3;stroke-miterlimit:10;}
</style>
<g>
	<path class="st5" d="M978.8,327.6l-11.8-9.1l-15.3-6.8l-15.2-11.9l-18.2-11.1l-17.3-16.9l-9-7l-21.2-1.4l-13.9,1.7l-22.3,13
		l-7.9,2.9l-8.1-6.3l-2.5-10.8l-14.5-9.4l2.7-8.3l9.7-5.8l-3.3-11.2l-14.2,0.2l-18.6-6l-16.7-1.5l-15.9,13.5l-17.7,26.4l-6.4,14.2
		l-1.8,13.1l-16.4,15.8l-11,16.6l0.2,19.5l8.9,12.1l15.3,14.4l2,8.8l-20.8,7.5l-22.5,6.9l-37.6-6.1l-12,0.1l-8.2,4.6l1.3,11.5
		l-5.7,1.8l-0.7,9.5l-12.7-7.1l-4.2-2.3l0.1,12.7l7.4,19.5l11.7,11.5l6.8,7.9l0.1,10.4l-13.4,11.7l-2.9,6.8l3.4,13.5l-2.1,3.3
		l-9.7-3.2l-7.3,3.4l-9.2-4.7l-6.7,4.9l-4.9-7.9l-1-17.6l-6.4-16.5l-6.7-19.1l-20.5-35.9l-4.7-31.9l-27.4-36l-22.5-9.8l-18.5-8.8
		l-18.7-24.7l-29.8-21.8l-6.5-22.4l-4.2,0l-18.2,10.9l-5.5,13.7l5.9,23.6l29.1,31.3l27.5,32.8l11,9.9l28.5,12.7l22.5,17.2l1.5,9.9
		l-4.5,3.3l-11.8-9.4l-17.2-4.6l-4,4.9l4.2,18.4l3.5,10.7l-1,12.3l-17,21.1l-12.7-5.2l2.7-15.7l1.7-16.5l-15.3-24.7l-27.3-25.9
		l-37.5-25.7l-20.1-15.7L333.3,305l-14-14.4l-16.4-1.8l-23.1,9.5l-17.4,17.4l-14.4,5.8l-30.3-4l-19,6.2l-9.8,23l-15.1,5l-11.9-2.7
		l-4.5,14.3l-10.4,22.6l-19,18.1l-13.8,26.1l-13.6,24.2l-12.5,25.5l-11.2,21l-17.6,6L13,510l4.3,39.4l18.5-8.1l17.7-0.2l29.6,0.5
		l27.1-11.2l32.1-16.8l38.3-4.1l50.5-3.4l31.7-7.1l44.6-6.6l11.3-4.3l15.8,6.9l11-0.1l0.1,4.8l-3.6,14.9l9.9,18.2l-1.7,14.2
		l-11.1,9.2l-1.7,11.3l13.1,5l17.5,20.2l50.9,11.2l21.4,7.4l18,22.8l17.3,9.2l66,1.4l-7-13.3l-0.7-9.4l5.5-11.7l35.4-12.5l21,2.8
		l19.5,14.2l18.5,8.8l33.3,3.6l22.1,7.8l16,8.2l30.4-0.3l10.1-6.4l22.1-7.2l11.9,1.7l20.9,6.8l22-2.1l11-13.4l9.2-25.3l11.4-32.9
		l8.7-32.9l4.9-14.5l-8-13l-12.7-5.9l-10.2,2.1l-10.6,8.5l-13.9,6.1L800,512L789.1,500l-12.9-6.6l-15.6,1.6l-8.7,8.1l-10.3,9.4
		l-10.7-1.4l-18.6-12.3l-17.9-13.1l-13.1-21.3l-2.8-18.7l-13.7-23.1l-4.4-8.3l11.4-12.5L700,401l22.2-1.5l10.6-7l-0.1-12.2l15.9-4.5
		l21-6.7l33-11.9l37.5-2.4l32.5,14.6l28.2,12.1l57.1-3.8l27-13.3l1.8-18.3L978.8,327.6z M318.4,432.7l-2.8,4.8l-10.7,0.1l-6.3-4.6
		l-3.5-14.6l-3-14.4l4.1-10.3l16.3-9.7l5.6,12.8l2.6,22.2L318.4,432.7z M433.6,470.1l-2.4,18.4l-2.9,3.7l-7.7,0.1l-12-8.9
		l-18.6-10.8l-7.6-0.8l0.9-9.9l1.9-0.3l6.1-2.4l9.8,2.4l15.2,3.1l13.6-2.8l6.5-0.1L433.6,470.1z"/>
	<polygon class="st6" points="317.9,326 320.7,339.7 320.7,365.1 311.8,375.4 303.6,369.5 297.7,356.5 300.3,339.7 307.1,335.3 
		311.6,325.3 	"/>
	<polygon class="st5" points="842.2,234.5 851.8,227.1 877.6,219.4 896.8,210.8 925.3,204.7 905.7,217.5 904.7,222.5 912.1,228.4 
		916.5,233.3 912.1,239.9 901.7,243.4 899.4,251.3 892.8,255.5 871.6,253 854.7,256.6 847.5,253 	"/>
	<path class="st5" d="M132.6,9.9l85.2-0.2l-9.4,15l-5,20.9l-11.8,14.6l-5.2,14.5l-13.1,9.5l-16,0.2l-6.2,6l-1.3,18.1l-13,10.7
		l-15.7,7.9l-15,8.3l-13.6-8l-7.4-5l-3.6,6.5l-2.7,26.5l-5.5,8.7l-9.8-3l-12.1-5.4l-16.1,1.6l-7.6,3.5l-1.7,16.1l5,10l26.7,3.7
		l15.5,13.7l12,15.5l8.4,20.9l2.1,25.1l-0.2,23.2L89.9,313l-5.8,6.3L61.5,319l-22.3,3.2l-21.7,0.2l-4.8-29l-1-43.4l-2.7-42l0.1-25.8
		l-6.3-33.9l2.1-30l13.1-4.5l34.3-13.9l14-0.1l39.2-4.3l27-5.4l15.1-11.2l-0.1-8.7l-6.5-0.2l-3.7-2.8l3.9-10.9l12.6-14.4l1-11.1
		l-9.9-8.7l-13-1.6c-4.8-2.3-2.1-5.8-2.1-5.8L132.6,9.9z"/>
	<polygon class="st5" points="27,5.8 27.1,20.2 32.4,26.4 26.4,38.3 13,50.7 12,57.5 19,59.6 29.6,61.7 31.1,68.2 44.1,73.6 
		41.7,78.5 27.4,84 10.1,92.3 4.8,99.7 7.9,61.9 10.1,38.5 7.4,14 21.5,5.9 	"/>
	<polygon class="st6" points="867.9,516.4 877.9,510.5 883.8,493.9 887.4,493.8 892,498.8 899.7,492.5 907.5,493.7 920.2,496.8 
		942.9,489.7 991.3,476 999.1,479 999.2,487.8 983.7,500.7 980.3,510 984.7,543.6 978.4,554.8 945.6,567.5 927.8,579.7 904.5,595.9 
		886.8,601.9 871.7,596.3 864.3,586.8 871.4,567.5 876.8,557.6 871.2,551.1 859.9,549.3 	"/>
	<polygon class="st6" points="27.6,160.7 41.8,154.2 57.3,155.6 69.6,163.7 78.6,159.4 81.4,140 82.1,125.1 87.4,125.1 106,135.3 
		116.6,133.1 144.3,113.6 151.1,98.5 156.5,86 170.1,85.8 182.2,86.5 188.6,102.1 224.8,123 286.7,151.5 282.1,170.6 269.3,201.5 
		252.3,227.2 264.3,227.1 269.6,227.8 268.1,243.3 271.8,256.4 265.1,260.4 266.8,271.6 264,275.9 266.9,287.1 267.4,295.6 
		279.8,298.3 266.4,312.2 248,321.5 215.7,316.2 198.7,323.7 185,348.8 166.7,351.8 144.3,339.3 129.9,336.6 113.1,339.6 
		94.5,331.1 84,319.3 93.8,280.8 93.4,243.3 81.8,211.9 57.6,190.5 30.9,186.8 24,172.9 	"/>
	<g>
		<path d="M1029.3,38.2c-0.8,9.4-1.6,18-2.2,26.5c-0.4,5.4-0.7,10.9-0.7,16.4c0,11.8-0.1,23.6,0.3,35.5c0.2,5,1.5,9.9,2.6,14.8
			c1.9,8.2,3,16.5,2.4,25c-0.7,8.7-1,17.3-0.9,26c0.2,9.7-1.5,19.4-2.2,29.2c-0.7,10.9-1.4,21.8-1.7,32.7c-0.1,5.3,0.7,10.7,1.5,16
			c1.5,10,0.8,19.9-0.2,29.9c-0.8,7.9-1.1,15.9-1.1,23.9c0,8.6,0.4,17.2,1.1,25.7c0.6,8.2,2,16.3,2.6,24.4
			c0.7,10.6,1.5,21.3,1.3,31.9c-0.3,16.2-2,32.4-2.2,48.6c-0.3,14.8,0.6,29.7,0.9,44.6c0.2,8,0.5,15.9,0.2,23.9
			c-0.5,14-1.2,28.1-2.3,42.1c-1,13.7-2.4,27.3-1.9,41c0.2,5.9,1.3,11.7,1.6,17.6c0.5,10.4,0.7,20.7,0.9,31.1c0.1,2.5-3.4,5.3-6,5.6
			c-5.2,0.6-10.3,1.6-15.5,2.2c-1.9,0.2-3.9,0-5.9,0c-11.3,0-22.6,0-33.9,0c-11.1,0-22.3-0.8-33.2,0.5c-12.3,1.4-24.7,2.3-37.1,3.9
			c-5.7,0.7-11.3,0.9-17.1,0.5c-8.4-0.5-16.8,0.4-25.2,0.3c-5.6,0-11.2-0.7-16.9-1c-2.2-0.1-4.5,0.3-6.7,0.4c-0.5,0-1-0.1-1.5-0.3
			c-0.7-0.2-1.3-0.6-2-0.7c-9.5-1.1-18.9-2.6-28.4-3.1c-9-0.5-18,0-27.1-0.2c-6.4-0.2-12.9-0.7-19.3-1.4c-13-1.4-26-2.3-39.1-2.1
			c-9,0.1-18.1-0.8-27.1-0.6c-15.8,0.3-31.5,1.4-47.2,1.7c-9.1,0.2-18.3-0.2-27.4-0.8c-8.7-0.6-17.4-2.1-26.2-2.7
			c-4.6-0.3-9.3,0.2-13.9,0.4c-8.9,0.4-17.9,1-26.8,1.2c-17.2,0.3-34.4,0.4-51.6,0.5c-17.2,0.2-34.4,0.3-51.6,0.5
			c-6.8,0.1-13.6,0.2-20.4,0.4c-6.6,0.2-12.9-0.5-19.3-2.2c-3.8-1.1-8.2-0.7-12.2-0.2c-12.2,1.3-24.5,1.5-36.7,0.5
			c-6.7-0.5-13.5-0.4-20.1-1.5c-9.1-1.5-18.2-0.7-27.3-0.5c-10.4,0.2-20.8-0.4-31.2-0.7c-13.6-0.3-27.2-0.8-40.8-0.9
			c-6.9-0.1-13.7,0.6-20.6,0.9c-9.1,0.5-18.2,0.9-27.3,1.5c-3.9,0.2-7.8,0.9-11.8,1.1c-6.3,0.2-12.7,0.2-19,0.2
			c-2.6,0-5.3-0.3-7.9-0.3c-2.3,0-4.6,0.4-6.9,0.7c-8.4,1-16.8,2.3-25.3,3c-7.2,0.5-14.5,0.2-21.7,0.4c-7.4,0.2-14.8,0.5-22.3,0.8
			c-1.9,0.1-3.7-0.2-5.6-0.2c-8,0-15.9,0.1-23.9,0.1c-5.4,0-10.9,0.1-16.3-0.3c-2.9-0.2-5.5-1.3-7.7-4.1c-1.8-2.3-3.1-4-2.6-6.9
			c0.1-0.4-0.5-1.1-0.9-1.5c-2.2-2.1-3-4.7-3.5-7.6c-0.6-3.8-2.3-7.4-2.4-11.2c-0.3-14-1.9-28,1.1-42c1.7-7.8,2.1-16,2.4-24
			c0.2-4.9-1-9.9-1.7-14.9c-1.3-8.7-0.9-17.5-0.7-26.3c0.4-18.5,0.6-37.1,0.9-55.6c0.2-11.5,0.4-22.9,0.3-34.4
			c-0.1-6.5-0.9-13-1.1-19.6c-0.2-8.4-1-16.9,0.1-25.2c1-7.7,1.1-15.5,1.8-23.2c0.8-7.8,1.3-15.7,1.2-23.5c0-6.3-0.7-12.7-1.7-18.9
			c-2-11.7-1.9-23.5-2-35.3c0-6.1-0.7-12.1-1.1-18.2c-0.3-4.5-0.4-8.9-0.7-13.4c-0.7-10.2-1.8-20.3-2.2-30.5
			c-0.4-8.7,0.1-17.5-0.1-26.3c-0.1-4-0.6-8.1-1.7-11.9c-2.7-8.8-3.4-17.9-3.7-27c-0.3-12.1,0.1-24.3,0.6-36.5
			C1.2,103.1,2,91.6,2.9,80.3c0.5-5.4,1.6-10.8,2.5-16.1c0.1-0.9,0.2-1.8,0.3-2.7c0.5-3.2,1.4-6.5,1.5-9.7c0.2-4.4,0.2-8.9-0.3-13.2
			c-0.7-5.7-2.3-11.4-2.7-17.1c-0.2-3.1,1.2-6.4,2-9.6c0.1-0.5,0.5-1,0.9-1.3c4.6-3.6,9.5-6.3,15.6-6.5c7.7-0.2,15.4-0.6,23.1-0.3
			c11.1,0.5,22.1,2,33.2,2.5c9.5,0.4,19,0.2,28.4-0.1c9.7-0.3,19.4-1.2,29.1-1.6c6.2-0.3,12.3-0.3,18.5-0.3c8.9-0.1,17.9-0.1,26.8,0
			c4.5,0.1,8.9,0.8,13.3,0.9c6.9,0.2,13.8,0.4,20.7,0.1c6.5-0.3,12.9-1.2,19.4-1.9c10.6-1.1,21.3-2.6,32-3.1
			c10.2-0.5,20.5,0.1,30.8,0.2c2.9,0,5.7,0.2,8.6,0.3c7.2,0.2,14.5,0.4,21.7,0.6c1,0,2,0,2.9,0c4.5,0,9.1-0.1,13.6,0.1
			c7.5,0.3,15,0.8,22.5,1.2c3.7,0.2,7.5,0.4,11.2,0.8c10.6,1.3,21.1-1,31.5-2.1c7-0.7,13.9-0.6,20.8,0.2c7.9,0.8,15.7,2.3,23.7,3
			c6.5,0.5,13.1,0.2,19.6,0.5c4.1,0.1,8.2,0.8,12.3,0.9c7.3,0.2,14.7,0.9,22,0.3c9.9-0.8,19.8-1.8,29.7-0.5
			c13.7,1.9,27.3-0.2,40.9-0.2c9.3,0,18.6-0.8,27.8-1.2c5-0.2,10-0.7,14.9-0.7c9.9-0.1,19.8,0.2,29.7,0.1
			c14.9-0.2,29.7-0.7,44.6-0.7c9.3,0,18.6,1,27.8,1.1c10,0,20-0.5,30-0.9c11.4-0.4,22.9-1.2,34.3-1.3c10.6,0,21.2,0.2,31.7,1.3
			c22,2.2,44,1.4,66.1,1.9c12.5,0.3,25.1,0.4,37.6,0.6c3.2,0,6.4,0.1,9.6,0.1c15.7,0.1,31.3,0.2,47,0.3c6.7,0.1,13.4,0.1,20.1,0.2
			c5.6,0.1,11.2,0.2,16.8,0.3c5.9,0.1,8,1.9,8.8,7.7c0.3,1.9,1,3.6,1.2,5.5C1028.1,26.2,1028.7,32.6,1029.3,38.2z M95.6,231.4
			L95.6,231.4c0.5,2.9,1.3,5.8,1.5,8.8c0.7,9.2,1.1,18.4,1.6,27.6c0,0.7-1.1,14.6-1.2,17.8c-0.6,10.6-3.2,20.6-7.4,30.3
			c-0.6,1.3-0.9,3.4-0.2,4.4c2.4,3.4,4.9,6.8,7.9,9.6c2.5,2.4,5.4,4.7,8.5,5.8c6.5,2.4,13.2,1.5,19.8-0.5c5-1.5,10.4-1.8,15.3,0
			c5.4,2,10.6,4.7,15.7,7.4c6.1,3.2,12.4,5,19.3,4.6c2.6-0.2,5.1-0.5,7-2.8c1.3-1.7,6.8-12,7.9-15.1c1.5-4.1,3.3-8.3,7.4-10.5
			c3.4-1.9,7.1-3.2,10.6-4.8c5.2-2.4,10.3-1.3,15.5-0.1c7.6,1.7,14.9,5.1,23,4.6c2.3-0.1,4.7-0.4,6.8-1.1c6.5-2.2,11.4-6.9,16-11.8
			c1.3-1.3,2.3-2.9,3.6-4.5c-0.9-0.4-1.3-0.7-1.8-0.9c-1.3-0.4-2.6-0.8-3.8-1.2c-3.2-0.9-4.3-2.3-4.3-5.5c0-3.2,0-6.5,0.1-9.7
			c0-3.6-0.6-4.6-4-5.7c-2.4-0.8-3.8-3-2.6-4.9c0.8-1.3,2.2-2.4,3.6-2.9c2.1-0.7,1.8-1.9,1.3-3.3c-0.2-0.8-0.8-1.4-1.2-2.1
			c-1.8-3.7-0.3-7.3,3.8-8.2c2.8-0.6,3.5-2.1,3-4.6c-0.3-1.2-0.9-2.3-1.3-3.4c-1-2.2-2.8-4.5-2.7-6.7c0.2-3,1.6-6,2.9-8.9
			c0.8-1.9,1.9-4.1,0.2-5.3c-1.2-0.8-3.6,0.1-5.4,0.4c-0.3,0-0.6,0.4-0.9,0.5c-3.5,2.1-7,4.3-10.7,6.1c-1.1,0.6-3.1,0.6-4.1,0
			c-1.4-0.9-2.1-2.6-1.3-4.5c1.1-2.8,12.7-20.3,16.2-24.4c4.2-4.9,7.2-9.4,8.8-12.8c2.4-5.1,4.2-10.8,5-16.4
			c1.2-8.1,4.1-15.5,6.8-23.1c0.6-1.8,0.1-2.5-1.5-2.8c-7.9-1.5-15.2-4.5-22.5-7.6c-3.8-1.6-15.6-6.7-16.6-7.3
			c-4.6-2.5-9.4-4.7-14.1-7.1c-3.6-1.8-7.3-3.4-10.7-5.5c-2.6-1.6-17.2-8.4-17.5-8.5c-5.1-2.9-10.2-5.7-15.1-8.9
			c-3-2-3.2-6.9-4.2-10.5c-0.6-2.3-1.1-4.7-2-6.9c-0.5-1.2-0.9-3.3-3.1-1.2c-0.8,0.8-3.2,0.7-4.3,0.1c-3.8-2.3-7.6-2.2-11.4-0.2
			c-4.2,2.2-4.7,6.4-4.3,10.4c0.5,5.5-0.6,10.8-4.2,14.7c-3.2,3.5-7.4,6.4-11.7,8.5c-6.8,3.2-13.5,5.5-17.5,11.8
			c-6.3,5.5-9.9,9.8-17.2,6.6c-2.8-1.2-5.7-2.2-8.3-3.6c-3.3-1.8-4.9-4-6.4-7.3c-0.8-1.9-2.2-2.9-3.7-2.3c-0.6,2.1-1,3.7-1.2,4.8
			c0.5,1.4,0,8.1,0.1,10.4c0,0.8,0.1,1.6,0.1,2.4c-0.2,4.5-0.3,9-0.9,13.4c-0.3,2.2-1.2,4.6-2.5,6.2c-2.5,3.1-6.3,4.1-10.2,4.3
			c-1.7,0.1-3.6-0.3-5-1.2c-3-1.9-5.8-4.2-8.5-6.5c-12.5-5.2-23-1.8-27.6,4.1c-1.6,2.1-1,6.6-1.2,8.2c-0.3,3.5,3.4,12.5,7.7,12.6
			c4.4,0.1,5.3,0,7.2,0.1c3,0.2,6.1,0.1,9,0.9c6.7,1.7,12,6.2,17.4,10.3c4.5,3.4,7.8,8.2,12.1,11.8c4.3,3.6,7.1,8.1,9.3,13.1
			C92.6,224.3,94.1,227.8,95.6,231.4z M820.5,647.7c4.3,0.5,7.8,1.2,11.3,1.3c8.6,0.2,17.2,0.1,25.8,0.3c17,0.5,33.8-0.7,50.7-2.3
			c7.6-0.7,15.2-1.2,22.8-1.7c8.9-0.5,17.9-0.8,26.8-1.5c5.5-0.4,11-1.7,16.5-1.8c10.4-0.2,20.8,0.2,31.2,0.1c4.5,0,8.9-0.5,13.3-1
			c0.9-0.1,2.3-1.3,2.3-2c0.1-2.8-0.1-5.6-0.4-8.5c-0.2-2.5-0.9-5.1-0.8-7.6c0.3-6.5,1-13,1.3-19.5c0.4-11.4,0.6-22.9,1-34.3
			c0.5-14.1,1.2-28.3,1.6-42.4c0.2-6.2,0.3-12.5,0.1-18.7c-0.2-5.8-1.2-11.6-1.1-17.4c0.3-20.9,0.9-41.7,1.5-62.6
			c0.4-13.7,1.3-27.4,1.5-41.1c0.1-5.9-1-11.9-1.8-17.8c-0.6-4.5-1.9-8.9-2.2-13.5c-0.8-11.3-1.5-22.5-1.8-33.8
			c-0.4-11.9-1-23.9-0.2-35.7c1.2-17.1,1.9-34.1,0-51.2c-1.2-10.6-0.5-21.1,1-31.6c1.1-8.1,1.4-16.2,1.1-24.4
			c-0.3-7.2-0.4-14.5,0.1-21.7c0.6-8.9,0.8-17.7-1.3-26.4c-2.2-9.2-3.3-18.5-2.9-27.9c0.4-10,1.2-20,1.7-30
			c0.6-12.4,0.9-24.9,1.7-37.3c0.4-6.2,1.1-12.3,0.1-18.4c-0.5-3-1.6-3.5-4.8-3.3c-2.4,0.2-4.8-0.5-7.2-0.9
			c-1.2-0.2-2.4-1.3-3.5-1.2c-7.5,0.3-15,1-22.5,1.1c-4.7,0-9.4-1.2-14.1-1.2c-16.3-0.2-32.6-0.3-48.9-0.2c-6.3,0-12.7,0.7-19,0.7
			c-9.7-0.1-19.3-0.6-29-0.8c-19.5-0.4-39-0.7-58.5-1.1c-11.5-0.3-22.9-1-34.4-1.1c-9.1-0.1-18.3,0.3-27.4,0.5
			c-7.3,0.1-14.7,0.3-22,0.4c-10.3,0.1-20.6,0.8-30.9,0.3c-21.9-1-43.7-1.1-65.6-0.1c-20.2,0.9-40.4,2.2-60.7,2.7
			c-20.4,0.5-40.9,0.4-61.3,0.3c-13.3,0-26.7,0-40-0.6c-11-0.5-21.9-2.6-32.9-3.1C428.3,9.2,418,9.8,407.7,10
			c-8.8,0.2-17.5,1.1-26.3,1c-14.1-0.2-28.3-1.1-42.4-1.5c-16.7-0.5-33.5-0.8-50.2-1c-9.7-0.1-19.3,0.1-29,0.6
			c-10.4,0.5-20.7,1.6-31.1,2.5c-1.1,0.1-2.2,0.6-3.2,1.2c-6.2,3.9-9.7,9.7-11.3,16.7c-0.8,3.5-1.4,7.1-2.8,10.3
			c-1.6,3.5-3.6,7-6.2,9.9c-4.6,5-8.7,10.1-10.6,16.7c-1.8,6.1-5.4,10.8-11,13.8c-1.9,1-2,2-0.6,3.5c2.3,2.5,4.2,5.2,4.6,8.8
			c0.2,2.2,0.9,5,2.4,6.4c3.1,2.9,6.6,5.5,10.4,7.3c5.9,2.7,12.3,4.3,18.1,7c5.9,2.7,11.3,6.3,17,9.4c4.7,2.6,9.4,5.3,14.2,7.7
			c2.2,1.1,4.7,1.8,6.9,2.8c9.6,4.5,18.7,10,28.9,13.1c3.7,1.1,4.7,3.9,3.4,7.3c-0.8,2-1.6,4.1-2.1,6.3c-1.3,5.7-2.3,11.4-3.6,17
			c-1.4,6.1-3.1,12.1-6.7,17.4c-0.7,1-1.1,2.2-1.7,3.3c-2.5,4.3-4.9,8.7-7.8,12.7c-2.3,3.4-5.2,6.4-7.9,9.5c0.8,0.4,1.1,0.4,1.5,0.3
			c6.5-1,12.2,3.3,12.3,9.9c0,3-0.8,6-1.5,8.9c-0.7,2.7-0.6,5,0.8,7.6c1.5,2.8,2.2,6.2,2.6,9.5c0.5,3.9-3,5.4-5.5,7.2
			c-1.5,1.1-1.6,1.9-0.8,3.5c1.3,2.8,2.2,5.7-0.8,8.3c-0.4,0.4-0.6,1.6-0.3,2.1c2.4,3.5,2.1,7.2,1.8,11.1c-0.4,5.9-0.3,6.1,5.5,6.6
			c2.7,0.2,5.9,0.3,8-1c4.9-3,10-4.9,15.5-6.2c11-2.6,20.9-0.7,29.5,6.8c6.1,5.3,9.6,12.6,13.6,19.3c2.1,3.4,6.8,11.7,7.1,12.5
			c0.8,2.2,1.5,4.6,2.6,6.7c11,12.5,23.1,18.8,31.6,24.6c5,3.4,9.9,6.9,14.9,10.3c6.3,4.3,13.3,7.7,18.4,13.6
			c0.2,0.2,0.4,0.3,0.6,0.5c2.2,2,4.3,4.1,6.5,6c3.6,3.1,13.3,14.8,14.1,16c4,6,8.3,11.8,12.1,17.9c3.2,5.1,4.3,10.8,3.1,16.8
			c-1,4.9-2.5,9.7-3.5,14.6c-1.2,5.7,0.8,8.6,6.7,10.3c4.7-6.5,9.6-12.9,14.1-19.6c2.6-3.9,3.9-8.5,1.9-13c-3.7-8.4-7-16.8-8.3-25.9
			c-0.4-2.9,0.3-5.1,2.6-7.1c3.6-3,7.6-2.9,11.6-2c3,0.7,5.7,2.3,8.6,3.3c4.5,1.5,9,2.9,12.3,6.7c0.4,0.5,1.1,0.8,1.7,1.1
			c0.2-0.2,0.4-0.3,0.5-0.5c-1.5-2-2.8-4.2-4.5-6c-7-7.7-16-12.4-25.4-16.4c-5.8-2.5-11.8-4.6-17-8.3c-4.5-3.3-9.4-6.1-13.6-9.7
			c-2.8-2.5-4.8-6-7.1-9c-2.5-3.3-4.8-6.9-7.6-10c-7.4-8-14.9-15.8-22.4-23.7c-3-3.1-6.4-6-9.2-9.2c-4-4.6-7.6-9.6-11.7-14.2
			c-2.7-3-4-6.5-4.7-10.3c-0.2-1.1-0.4-2.1-0.6-3.2c-1.7-8.2-3.4-16.2,0.7-24.3c2.5-5.1,5.8-9.1,10.4-12.1c2.8-1.8,6.1-3.1,8.6-5.3
			c1.8-1.6,3.3-2.2,5.5-1.8c2.8,0.5,5.6,1.3,8.4,1.6c1.6,0.2,1.9,0.9,2.1,2.2c0.7,4.8,1.4,9.6,2.4,14.4c0.8,4.3,3.3,7.1,7,9.6
			c5.8,3.8,11.1,8.5,16.6,12.9c1.9,1.6,3.7,3.3,5.5,5c2.5,2.4,5.1,4.7,7.2,7.4c2.5,3.1,4.4,6.7,6.8,9.8c5.8,7.6,13.3,12.8,22.3,15.9
			c4.9,1.7,9.8,3.1,14.6,5.2c6,2.6,10.7,6.6,14.6,12.3c6,8.9,12.9,17.3,20.1,25.4c3.4,3.8,5.3,8,6.2,12.7c1,5.4,1.5,10.9,2.4,16.3
			c0.5,3.5,0.7,7.2,1.9,10.4c2.1,5.7,5.1,11,7.5,16.6c2,4.7,4,9.2,7.4,13.2c3.9,4.7,6.9,10.1,7.9,16.2c0.6,3.8,1.9,7.2,4.2,10.2
			c4.1,5.4,7.2,11.1,4.8,18.2c-0.1,0.3-0.1,0.7-0.1,1.1c0.4,4,1,8.1,1.2,12.1c0.1,2.3,1.4,3.4,3.3,4.8c0.5-2.3,0.8-4.4,1.4-6.3
			c0.2-0.8,0.7-1.9,1.3-2c0.6-0.1,1.7,0.5,2.2,1.1c0.9,1,1.6,2.1,2.2,3.3c2.3,4.5,7.5,5.6,11.2,2.1c2.1-2,3.8-1.8,5.9-0.3
			c1.4,1,3,1.6,5.2,2.8c-0.2-1.7,0.1-3-0.4-3.5c-3-3.3-3.3-7.5-3.6-11.5c-0.2-2.3,0.5-5.1,1.8-6.9c1.6-2.1,4.3-3.3,6.6-4.8
			c2.1-1.4,4.3-2.6,6.3-4.1c5.2-4,4-13.7-1.5-16.1c-3.1-1.4-6.1-3.5-8.6-5.8c-7.7-6.8-10.4-16.2-12.6-25.7
			c-1.3-5.8-2.3-11.7-3.6-17.5c-0.5-2.2,0.8-4.9,2.4-4.7c3.5,0.4,6.9,0.9,9.6,3.5c2,2,4.1,4,5.9,5.8c0.2-2.2-0.2-4.7,0.8-6.4
			c1.1-1.7,3.6-2.4,5.7-3.7c-0.2-0.4-0.6-1.4-0.8-2.5c-0.4-2.6-1.2-5.3,1.2-7.6c1-1,1.9-2.1,3-3.1c3-2.6,6.3-4.7,10.6-3.9
			c5,0.9,10,1.9,15,2.7c6.4,1,12.8,1.7,19.1,2.6c10.8,1.6,21.6,1.4,32-2.2c4.3-1.5,8.6-2.9,12.8-4.8c2.9-1.3,5.4-3.4,8.7-5.5
			c-1.6-2.2-3.1-4.9-5.1-6.9c-2.3-2.3-5.3-3.9-7.7-6.1c-3-2.8-6.2-5.7-8.5-9.1c-3.4-5-6.5-10.4-5.9-16.9c0.3-3.7,0.5-7.4,1.4-10.9
			c1.8-7.7,5-14.9,10.9-20.4c3.5-3.3,7.2-6.4,10.6-9.7c3.7-3.5,6.1-7.7,6.1-12.9c0.1-6,1.7-11.5,4.8-16.5c3.5-5.5,7.4-10.7,11.2-16
			c5-7,9.3-14.6,15.7-20.6c1-1,2-2.2,3.2-2.8c3.5-1.8,7.1-3.7,10.9-5c2-0.7,4.7-0.9,6.7-0.2c6.4,2.1,12.6,4.9,19,7
			c4.5,1.5,9.1,2.6,13.9,1.1c4.1-1.3,10.7,1.1,13,4.7c1,1.5,2.1,3.5,1.9,5.1c-0.7,4.7-1.2,9.7-5.6,12.8c-1.4,1-2.9,2-4.4,3
			c-1.8,1.2-1.9,2.6,0,3.7c0.8,0.5,1.6,0.7,2.5,1c7.1,2.4,12,6.7,12.7,14.5c0.3,3.5,1.4,6.2,4.6,8.1c0.2-0.1,0.6-0.2,0.8-0.4
			c1.3-1.1,2.7-2.1,3.9-3.2c9-8.7,19.5-13.7,32.2-13.4c4.3,0.1,8.6-0.2,12.8-0.1c5.8,0.1,11.6,0.3,17.4,0.4c0.6,0,1.3,0.3,1.6,0.7
			c2.4,2.6,4.9,5.2,7.2,7.9c8.8,10.2,19.5,17.8,31.5,23.9c4.2,2.1,8.1,5.2,11.5,8.5c5.1,4.8,10,9.6,17.1,11.3
			c6.1,1.5,11.4,4.7,15.1,9.9c3.1,4.4,6,8.9,8.4,13.6c1.6,3,2.7,6.5,2.9,9.8c0.3,4.1-0.8,8.3-0.7,12.5c0.1,5.3-3.5,7.9-7.1,10.6
			c-0.7,0.5-1.6,0.9-2,1.6c-2.6,4.4-6.5,6.9-11.2,8.6c-3.4,1.2-6.6,2.8-10,3.8c-5.2,1.5-10.6,3.6-15.8,3.6c-12.7,0-25.4,1.3-38.1-1
			c-3.8-0.7-7.8-0.3-11.4-1.5c-7.1-2.5-14.1-5.4-20.9-8.7c-7.2-3.4-14.2-7.4-21.3-11.2c-7.3-3.9-14.8-7-23.3-6.2
			c-3.1,0.3-6.2,0.6-9.3,1c-7.4,0.9-14.7,1.7-22.1,2.9c-5.8,1-11.7,2.1-17.2,4c-6,2.1-11.7,5.3-17.4,8.1c-4.9,2.4-9.9,4.2-15.6,3.9
			c-3-0.1-6.1,0.9-9,1.9c-0.9,0.3-1.7,1.9-1.8,3c-0.3,2.3-0.1,4.6,0,7c0.1,4.1-2.1,7.2-5.4,9c-7.7,4.2-15.9,6.2-24.7,5.6
			c-8.5-0.6-17.1-2-25.6,0.2c-4.1,1.1-8.4,1.9-12.2,3.7c-5.5,2.7-5.7,5.8-1.5,10.2c2.5,2.7,5,5.3,7.1,8.3c3,4.3,5.5,9,8.2,13.4
			c1.4,2.3,2.1,4.6,1.5,7.4c-0.6,2.6-0.4,5.3,1.3,7.7c0.6,0.8,0.6,2,0.8,3c0.2,1.7,0,3.6,0.6,5.2c2.1,5.8,4.8,11.2,9,16
			c4,4.6,8.4,8.4,13.4,11.7c7.4,4.9,14.8,9.7,22.4,14.4c1.9,1.2,4.2,2.3,6.3,2.4c6.1,0.3,9.9-3.6,13.3-8.2c1.3-1.9,2.5-4.1,4.4-5.3
			c5.1-3.2,10.9-4.7,16.9-5.3c5.3-0.5,9.7,2.1,14.3,3.8c4.9,1.8,8.6,4.9,11.8,9.6c2.4,3.5,6.4,6.2,11.4,6.7
			c5.6,0.5,10.2-1.3,14.6-4.4c3.4-2.4,6.4-5.4,9.8-7.7c6.7-4.6,14.1-5.7,21.3-2.1c6.7,3.3,11.8,8.6,14.1,16.1
			c3.7-0.5,7.1-4.1,8.2-8.1c1.3-4.5,2.7-9.1,4.4-13.4c1.5-3.8,4.7-4.3,7.6-1.6c0.8,0.8,1.6,1.7,2.3,2.6c1.5,1.8,3.1,2,4.3-0.1
			c1.4-2.5,3.5-3.5,6.2-3.2c2.4,0.3,5.2,0.1,7.2,1.3c7.4,4.3,14.7,5.1,22.7,1.3c8.3-3.9,16.9-7.2,25.5-10.3c7.5-2.7,15.3-4.7,23-7.1
			c5.2-1.6,10.3-2.6,15.8-1.8c6.8,1,10.8,9,7.4,15c-2.7,4.8-6.8,8-11.2,10.8c-7.2,4.7-9,9.1-7.3,18.3c1.6,8.9,4.1,17.6,3.9,26.7
			c-0.1,5.7-2.6,10.2-7.6,12.7c-6.2,3.1-12.6,6-19.2,8.1c-10.5,3.2-19.8,8.6-28.5,15c-10,7.4-19.9,15-30.9,21
			c-6.3,3.4-12.9,4.7-19.9,4c-2.1-0.2-4.5-0.8-6.2-2.1c-3.5-2.5-6.6-5.4-9.8-8.3c-5.9-5.5-6.1-14.8-1.2-21.4c3-4,5.2-8.7,7.7-13.1
			c1.3-2.3,0.5-4.1-1.9-4.9c-2.5-0.8-5.2-1.2-7.8-1.7c-2.6-0.5-3.5,1-3.8,3.2c-0.2,1.7-0.1,3.5-0.6,5c-2.4,7.3-4.9,14.5-7.4,21.8
			c-2.1,6.2-4.3,12.5-6.2,18.8c-0.9,2.8-1,5.8-1.8,8.6c-2.2,7.1-5.6,13.7-10.1,19.6c-3.1,4.1-6,8.3-9.1,12.5
			C823.3,643.9,822.1,645.6,820.5,647.7z M345.1,497.4c-0.2-0.3-0.4-0.5-0.6-0.8c-1.5,0.2-3,0.1-4.4,0.6c-6.3,2.1-11.9,0.7-17.2-2.9
			c-2.6-1.8-5.4-2.2-8.3-0.7c-8.1,4.1-16.9,5.6-25.7,7.2c-6.8,1.3-13.6,2.8-20.5,4.1c-5.4,1-10.7,1.8-16.2,1.4
			c-3-0.3-6.3,0.9-9.3,1.7c-3.6,1-7,2.7-10.6,3.4c-3.3,0.6-6.8,0.3-10.2,0.3c-9.7,0.2-19.3,0.2-29,0.6c-8.3,0.4-16.6,1.1-24.9,1.8
			c-8.4,0.8-16.9,0.7-25.2,2.8c-4.1,1.1-7.9,2.4-11.5,4.6c-9.5,5.7-19.3,11-29.1,16.4c-8.9,4.9-18.7,6-28.6,6.1
			c-6.2,0-12.5-1.3-18.7-1.6c-5.2-0.3-10.7-0.8-15.7,0.3c-5.7,1.3-11.1,4.3-16.6,6.7c-0.9,0.4-1.9,1.5-2,2.3
			c-0.7,7.7-1.2,15.5-1.8,23.2c-0.2,3-0.3,6.1-0.6,9.1c-0.4,5-1.1,9.9-1.4,14.9c-0.2,3.7,0,7.3,0.4,11c0.2,2.3,0.5,4.7,1.4,6.8
			c2.8,6.4,3.2,13.2,4,19.9c0.2,2,0,4.1,3.1,3.7c0.4-0.1,1.2,0.3,1.4,0.7c1.3,2.7,3.8,2.2,6,2.2c9.3,0,18.6,0,27.9-0.2
			c12.6-0.2,25.2-0.5,37.9-1c10.6-0.5,21.2-1.7,31.9-2.3c14.2-0.8,28.4-1.4,42.7-2.1c10.5-0.5,20.9-1.5,31.4-1.6
			c15.2-0.2,30.5,0.2,45.7,0.4c18.4,0.3,36.9,0.4,55.3,1c12.1,0.4,24.1,2.1,36.2,2.5c21.8,0.6,43.7,0.6,65.6,0.8
			c11.9,0.1,23.8,0.2,35.7,0.3c6.3,0.1,12.7,0.1,19,0.1c1.1,0,2.2-0.2,3.3-0.3c0-0.2,0-0.4,0-0.7c-1.5-0.4-3.1-0.7-4.6-1.3
			c-2.9-1.1-6.6-1.7-8.3-3.8c-2.7-3.1-8.2-4.4-7.5-10.1c0-0.3-0.5-0.7-0.8-1.1c-1-1.4-2.2-2.6-3-4.1c-4.6-7.8-12-10.8-20.4-12.2
			c-8.1-1.3-16.3-2.3-24.4-3.9c-6.7-1.2-13.2-3-19.9-4.5c-1.3-0.3-2.6-0.6-3.8-1.1c-3.9-1.7-7.4-3.7-10.1-7.1
			c-3.8-4.7-7.9-9.1-12.1-13.4c-1.4-1.4-3.2-2.5-5-3.2c-2.5-0.9-5.2-1.2-7.8-2c-2.6-0.9-5.1-2.1-5.1-5.4c0.1-6.3,2.1-11.8,7-16.1
			c3.1-2.7,6.1-5.7,8.9-8.7c2-2.2,2-10.6,0.4-13.1c-3.3-5.1-6.5-10.2-9.6-15.3c-0.4-0.6-0.7-1.6-0.5-2.3c0.7-2.6,1.3-5.1,2.4-7.5
			C342.4,501.5,343.9,499.5,345.1,497.4z M17.7,479.6c-0.2,0-0.5,0-0.7,0c0.3,7.7,0.7,15.4,1,23.1c0.1,1.7,0.9,2.5,2.5,2.6
			c5.5,0.1,10.9,0.5,16.4,0c6.3-0.5,12.6-1.7,18.8-2.8c4.5-0.8,8.9-1.8,13.2-3.2c2.9-0.9,6.3-7.2,6.7-7.6
			c1.4-1.4,9.5-16.3,12.2-22.3c1.5-3.2,2.5-6.9,4.7-9.5c9.2-11.1,15.4-23.6,20.2-37.1c4.5-12.7,11.2-24,23.5-31
			c7.1-4.1,11-11.1,14-18.4c2.6-6.2,4.4-12.6,6.7-18.9c1-2.8-0.1-4.8-2.2-6.2c-9-6.1-18.4-10.1-29.7-6.4c-3.8,1.2-8.2,1.5-12.1,1.1
			c-4.5-0.5-8.8-2.1-13.1-3.4c-3.3-1-5.4-3.4-7-6.3c-2-3.6-9.6-6.6-9.8-6.6c-4.1-0.5-11.2-3.6-15.4-3.6c-5.9-0.1-14.6,2.8-20.4,2.8
			c-9.5,0-13.2-0.3-22.6-0.6c-2.1-0.1-3.5,0.4-3.7,3.1c-0.8,13.8-1.8,27.7-2.7,41.5c-0.4,6.3-0.6,12.7-0.7,19.1
			c-0.1,7.3,0.2,14.5,0.1,21.8c-0.1,17.9-0.3,35.8-0.4,53.7C17.2,469.4,17.6,474.5,17.7,479.6z M127.5,13c-3.6,0-7.2-0.1-10.7-0.1
			c-12.7,0-25.4,0.5-38.1-0.1c-7.3-0.4-14.6-1.2-21.9-0.5c-1.9,0.2-3.9,0-5.9-0.1c-5.7-0.5-11.4-1-17.1-1.7
			c-2.2-0.2-3.8,0.2-4.7,2.5c-1,2.4-0.1,4.1,1.8,5.6c5.6,4.5,5.7,13.9,0.3,18.8c-5,4.6-10,9.2-15,13.9c-1.9,1.7-1.9,3,0.4,4.4
			c1.4,0.9,3.1,1.4,4.8,1.8c2.4,0.6,4.9,0.8,7.3,1.6c2.7,0.9,4.3,3.9,4.6,6.7c0.1,1.1,1,2.5,2,3c2.7,1.3,5.6,2.1,8.5,3.3
			c3.1,1.2,4.2,5.2,1.7,7.4c-1.9,1.7-4.1,3.1-6.4,4.1c-5.8,2.4-12.4,2.2-18,5.7c-7.1,4.4-12.5,9.3-12.2,18.4c0.1,2.1,0,4.1-0.1,6
			c2.6-0.8,4.8-1.4,6.9-2.1c3.3-1,6.6-1.9,9.9-2.8c0.8-0.2,1.8-0.3,2.5-0.7c5.2-2.6,10.4-5.1,15.4-8c6.5-3.8,13.2-4.4,20.4-2.6
			c1.3,0.3,2.7,0.4,4,0.4c3.9-0.2,7.8-0.5,11.7-0.9c4.2-0.5,8.3-1.3,12.4-1.8c2.8-0.3,5.8,0,8.6-0.4c10.6-1.7,21.1-3.1,31.3-6.9
			c4.4-1.6,8.5-3.6,12-6.6c1.4-1.2,2.5-2.8,3.1-4.5c1-2.4-0.6-3.9-3.2-3.8c-3.8,0.2-6.6-1.9-8.4-4.8c-1.6-2.4-1.1-5.3,0.6-7.6
			c2-2.7,4.2-5.4,6.6-7.7c4.1-4,7.5-8.4,9.5-13.7c1.2-3.3,2.3-7.4-0.7-10.1c-3.5-3.1-7.7-5.5-12.8-5.5c-1.7,0-3.4-0.1-5.1-0.5
			c-3-0.6-4.8-2.7-6.6-5.1c-1.3-1.8,0.4-2.8,0.7-4.1C127.5,13.6,127.5,13.3,127.5,13z M979.5,515c-0.3-5.3-0.6-10.5,1-15.7
			c0.7-2.1,1.7-3.4,3.8-4.4c5.3-2.4,10.1-5.5,13.7-10.2c0.5-0.7,0.7-2.2,0.4-3c-0.5-1.4-1.1-3.1-3.4-2.6c-8.4,1.9-16.9,3.4-25.3,5.6
			c-7.4,2-14.6,4.7-21.8,7.3c-4.4,1.6-8.5,3.7-12.9,5.2c-4.1,1.4-8.3,2.8-12.6,3.4c-5,0.8-9.2-2.1-13.6-4.1c-3.4-1.6-7-1.4-9.6,1.2
			c-1.9,1.9-3.9,2.7-6.5,3.2c-2.7,0.5-4.1-0.4-5-2.7c-0.4-0.9-0.9-1.7-1.5-3c-0.7,1.3-1.2,2-1.3,2.7c-0.4,2.2-0.1,4.7-1,6.6
			c-2.6,5.1-4.6,10.7-10.2,13.7c-1.7,0.9-3.8,2.2-4.5,3.9c-2.7,6.9-4.8,13.9-7.4,20.9c-0.7,1.8,0.1,2.6,1.3,3.2
			c1.1,0.5,2.4,0.4,3.6,0.8c2.5,0.8,5.2,1.3,7.5,2.6c5.5,3.3,5.9,11.1,2.4,17.3c-2.8,5-5.7,10-8.4,15.1c-1.9,3.6-1.3,6.5,2,8.9
			c2.7,1.9,5.8,3.4,8.9,4.9c6.8,3.2,13.5,2.3,20-1c11-5.6,20.5-13.2,30.1-20.7c6.3-4.9,12.8-9.2,20.4-12.1
			c9.9-3.7,19.4-8.4,28.3-14.3c2.8-1.9,4.2-5,3.7-7.8c-0.4-2.7-0.6-5.5-0.9-8.2C980.5,528.7,979.5,516.3,979.5,515z M434.3,474.1
			c3.8,0,6.8,0.4,9.8,0.1c3.6-0.4,6.6,0.2,9.9,2.1c3,1.8,6.6,3.1,10.3,0.8c5-3.1,10.5-2.9,15.5-0.9c6,2.4,11.2,2,16.6-1.2
			c0.5-0.3,1.2-0.4,1.8-0.4c3.7-0.3,7.1,0.2,10.5,2.2c1.9,1.1,5.1,1.6,7.1,0.8c6.3-2.8,12.5-3.1,19-1.3c2.4,0.6,5.3,0.7,7.6-0.2
			c3.7-1.4,7.3-1.2,11.1-0.7c2.8,0.3,5.6,0.1,8.4,0.1c1.5,0,1.8-0.9,1.9-2.2c0.7-5.3-2.9-8.5-5.4-12.4c-1.3-2-2.8-2.3-4.7-1.6
			c-4.8,1.6-9.6,1.2-14.2-0.1c-4.7-1.3-9.2-2-14-0.5c-1.8,0.6-3.6,1.7-5.3,1.4c-2.9-0.4-5.9-1.4-8.6-2.6c-2.9-1.2-5.7-2.6-9-1.5
			c-1.9,0.6-3.8,1.2-5.5,2c-3.5,1.8-7.3,1.6-10.3-0.3c-4.5-2.8-8.8-2.3-13.3-0.8c-2,0.7-4.4,1-5.8,2.3c-2.1,1.9-3.8,4.4-5,6.9
			c-2.1,4.1-4.9,6-9.6,4.8c-4.7-1.2-9.5-2.3-12.1-6.5c-1.4-2.3-1.3-5.5-1.6-8.3c-0.1-1.5-0.7-1.6-2-1.8c-2.6-0.3-5.2-0.4-7.6-1.3
			c-4.2-1.5-8.2-0.9-12.2,0.5c-4.6,1.6-9.6,1.8-13.7,0.2c-5.1-2-9.8-1.7-14.6-0.2c-5.5,1.7-10.7,1.3-16-0.6
			c-4.1-1.5-8.4-1.5-12.3,0.5c-4.9,2.6-9.6,2.1-14.4-0.3c-0.8-0.4-1.6-1-2.4-1c-4.7-0.5-9.3-0.2-13.5,2.3c-3.6,2.1-7.4,2.7-11.4,1.5
			c-2.1-0.7-4-1.9-6.1-2.8c-7-2.9-14.1-1.7-21,0.2c-3.7,1-7.3,1.5-11-0.1c-4.5-2-9.3-3.3-14-1.5c-6.3,2.4-12.4,1.6-18.7,0
			c-3.8-1-7.6-2.3-11.5-2.4c-4.2-0.2-8.5,0.8-12.8,1.4c-5.4,0.8-10.6,0.1-15.6-1.6c-4.6-1.6-9.2-3.1-14.1-2.3
			c-3.8,0.6-7.5,1.6-11.3,2.2c-8,1.2-15.3-1-22.4-4.7c-4.2-2.2-9-2.7-13.4-0.5c-8.2,4.1-16.5,3.9-24.9,0.8
			c-5.7-2.1-10.8-0.1-13.2,5.4c-0.9,1.9-2.1,3.7-2.8,5.1c3.1,0.8,6,1.3,8.6,2.4c4.5,1.8,8.5,1.1,12.6-1c4-2.1,8.1-3.1,12.6-1
			c5.8,2.7,11.5,4.2,17.9,1.2c3.4-1.7,7.4-1.1,10.8,1.2c2.8,1.9,5.8,2.2,9,1.9c2.6-0.2,5.1-0.7,7.7-1.1c4.8-0.7,9.3,0.2,13.6,2.4
			c5.3,2.7,11.1,3.3,16.7,1.6c6.3-1.9,12.4-2.6,18.6-0.1c5,2,10.1,2.9,15.5,1.6c4.1-1,8.3-1.5,12.4,0c5.9,2.1,11.9,2,18,0.7
			c4.4-0.9,8.6-1.1,13.1,0.6c5.9,2.4,12.1,3.1,18.6,1c5.1-1.6,10.4-1.1,15.5,0.7c5.4,1.9,10.9,3.6,16.7,1c4.3-2,8.6-2.3,13.2-0.4
			c1.3,0.6,3.3-0.1,4.9-0.5c3.2-1,6.4-2.4,9.9-1.8c2.8,0.5,5.6,0.9,8.5,1.4c0.1-0.4,0.2-0.7,0.2-1.1c0.1-8.1,8.6-10,14.1-8.2
			c7.2,2.3,14.7,3.7,22.2,5c4.6,0.8,9-0.9,13.3-2.3c2.1-0.7,4.4-1.5,6.2,0.5c2,2.2,1.9,4.3,0.3,7.3
			C435.8,469.5,435.3,471.5,434.3,474.1z M356.9,534.1c0.9-0.3,2-0.5,3.1-0.9c3.2-1.3,6.3-1.8,9.7-0.1c3.5,1.7,7.5,1.7,11.3,0.7
			c2.1-0.6,4.2-1.7,6.4-1.9c3.1-0.3,6.4-0.5,9.4,0.1c2.8,0.6,5.3,2.5,8.1,3.5c4.3,1.6,8.7,1.9,13-0.1c4.4-2,8.6-2,12.8,0.6
			c5.8,3.7,12.2,4.2,18.9,3.2c8.1-1.3,16.2-1.2,24,2c5.9,2.5,11.8,3.5,18,1.1c6.7-2.6,13.3-2.6,20.1,0.3c6.3,2.8,12.9,2.1,19.5,0.6
			c2.2-0.5,4.8-0.3,7,0.3c3.9,1,7.6,2.9,11.5,3.7c3,0.6,6.2,0.6,9.3,0.3c3.5-0.4,7-1.7,10.5-2.1c6.7-0.9,13.3-0.7,19.8,1.9
			c7.3,2.9,14.6,3.8,21.6-1.4c5.3-3.9,11.2-4.4,17.3-2.4c1.5,0.5,2.9,1.4,4.4,2c5.3,2,10.2,0.3,14.9-2.2c4.2-2.2,8.5-3.3,12.9-0.4
			c4.1,2.6,8.3,2.1,12.6,0.3c5.7-2.3,11.5-4.8,17.6-2.9c7.3,2.3,13.7,1.2,19.6-3.6c1-0.8,3-1,4.3-0.6c2.9,0.8,5.7,2,8.5,3.2
			c1.8,0.8,3.3,0.4,4.7-0.8c1.6-1.4,3.2-3,5-3.9c4.8-2.5,9.8-3.5,14.8-0.6c3.7,2.1,7.5,2.9,10.9-0.2c3.9-3.6,8.4-3,12.9-2.4
			c2,0.3,3.9,1.4,5.9,1.8c1.2,0.2,2.7,0.2,3.7-0.4c2.5-1.4,4.8-3.1,7-4.9c1.4-1.1,2.3-1.4,3.9-0.3c1.9,1.4,4.1,2.5,6.4,3.3
			c3.8,1.2,7.5,1.3,10.6-2c1-1.1,2.6-2,4.1-2.3c5.1-1,10.2-1.8,15.3-2.6c1.3-0.2,2.8-0.2,3.9,0.4c3.6,1.9,6.6,1.5,9.4-1.5
			c2-2.1,4.3-2.8,7.3-1.2c2.9,1.6,5.3,1,7.3-1.2c1.2-1.3,2.5-2.6,3.6-4c0.3-0.3,0.4-1.1,0.3-1.5c-0.8-1.6-1.6-3.4-3.9-2.8
			c-1.4,0.3-2.7,0.8-4.1,1.2c-4.2,1.1-8.4,3.2-12.6-0.7c-1.1-1-3.5-1.6-5-1.3c-4,1-7.7,2.7-11.6,4c-2.9,0.9-5.8,1.5-8.8,2.1
			c-2.1,0.4-4.2,0.7-6.3,0.6c-3.7-0.2-7.3-0.9-11-1.2c-1.5-0.1-3,0.2-4.5,0.4c-3.9,0.7-7.9,2.1-11.9,0.4c-2.7-1.2-5.1-0.7-7.5,1
			c-2.4,1.7-5.1,2.1-8.2,1.7c-2.4-0.4-5,0.1-7.5,0.2c-3,0.1-6.2,0.9-8.9,0.1c-4.5-1.4-8.5-0.5-12.9,0.4c-3.9,0.9-8.1,1.2-12.1,1.1
			c-4.2-0.1-8.2-0.7-11.4,2.9c-0.8,0.9-2.4,1.6-3.6,1.5c-3.1-0.1-6.2-0.6-9.2-1c-1.4-0.2-2.8-0.7-4.1-0.4c-3.6,0.8-7,2-10.6,2.7
			c-2.9,0.6-6,1.4-8.7,0.8c-5.3-1.2-10.2-1.3-15.2,0.8c-0.8,0.3-1.7,0.6-2.5,0.9c-5.2,2.1-10.6,3-15.8,0.2c-5.3-2.8-9.9-0.9-14,2
			c-3.3,2.3-6.5,3.3-10.3,2.7c-2.4-0.4-4.8-1-6.9-2c-3.5-1.7-6.9-1.6-10.4-0.5c-2.4,0.7-4.8,2.2-7.1,2c-3.5-0.3-6.9-1.3-10.2-2.6
			c-3.5-1.4-6.6-2.8-10,0c-3.8,3.2-10.8,3.6-15.1,1.3c-2.1-1.1-4.6-2.6-6.8-2.5c-3.5,0.3-6.9,1.7-10.3,2.8
			c-5.2,1.6-10.1,2.4-15.3-0.5c-4.1-2.2-8.8-2.3-13.3-0.7c-5.7,2-11.4,2.2-17,0c-5.1-2-10.3-2.9-15.8-1.7c-7.8,1.8-15.1,1-22.2-3.1
			c-4.2-2.4-9-2.2-13.5-0.3c-4.9,2.1-9.7,2.5-14.5-0.1c-5.6-3.1-11.6-3.8-17.6-1.8c-5.9,2-11.1,0.9-15.7-3c-2.6-2.2-5.1-2-8-0.7
			c-2.9,1.3-5.9,2.8-8.9,3.6c-3.1,0.8-6.4,1.9-9.6-0.1c-2-1.2-4.2-2-6.1-3.2c-4-2.7-7.6-0.9-11.3,0.7
			C353.6,526.9,355.2,530.3,356.9,534.1z M355,546.2c4.6-1.9,8.1,0,11.7,2c0.2,0.1,0.3,0.1,0.5,0.1c5.3,1.5,10.3,0.7,14.9-2.3
			c3.9-2.5,7.9-3.3,11.9-0.1c4.2,3.3,8.7,4.2,14,2.7c7-2,13.8-0.6,20.2,2.8c1.6,0.9,3.6,1.4,5.4,1.4c3.6-0.1,7.2-0.9,10.9-1.3
			c6.5-0.6,13-0.9,19.2,2.1c4.7,2.2,9.9,3.5,14.9,1.9c9.9-3.1,19.3-1.8,28.4,2.3c6.9,3.1,14.1,3.7,21.3,2.2c5.4-1.2,10-0.3,14.9,1.6
			c2.7,1.1,5.4,2,8.3,0.9c2.3-0.9,4.7-1.7,7-2.6c3.2-1.2,6.4-2.1,9.7-0.7c8.3,3.5,16.5,1.5,24.6-0.6c4-1,8.1-1.9,12.1,0
			c4.6,2.1,9.3,2.3,13.9,0.6c6.5-2.4,12.8-2.4,19.4,0c5.3,2,10.9,1.7,16.3-0.2c4.5-1.6,9-2.1,13.7-0.8c3.4,1,6.9,2.1,10.4,2.4
			c5.5,0.4,10.8,0.1,16.1-2.6c6.6-3.2,13.8-0.6,20.6,0.5c4.9,0.7,9.3,0.4,13.6-2.3c6.1-3.7,12.8-4.2,19.6-2.1
			c5.7,1.8,11.4,1.7,16.7-1.2c5.9-3.3,11.8-3.6,18.1-1.7c3.5,1.1,6.9,0.8,9.6-1.6c4.8-4.3,10.5-5.2,16.3-4.1
			c7.1,1.3,13.4-1.2,19.5-3.6c3.4-1.4,6.1-1.6,9.4-1c4.2,0.9,7.9,0,10.4-3.8c1.4-2.1,2.8-2.7,5.2-1.8c0.8,0.3,2.5,0.3,2.8-0.2
			c1.3-2.1,2.4-4.4,3.3-6.7c0.3-0.8-0.1-1.9-0.2-2.8c-1,0.2-2.3,0-3,0.5c-2.8,2-5.8,2-8.7,0.9c-2.5-1-4.5-0.6-6.3,1.3
			c-2.8,3.1-6.1,2.6-9.6,1.7c-2.1-0.5-4.4-0.5-6.6-0.3c-3.6,0.4-7.1,1-10.6,1.9c-2.2,0.6-4.3,1.9-6.4,2.9c-1.3,0.6-2.6,1.6-4,1.8
			c-4.6,0.9-8.9-0.2-12.8-2.7c-1.8-1.2-3.4-1.3-5,0.4c-0.9,1-2,1.7-3,2.6c-2.6,2.3-5.5,2.3-8.5,1.3c-1.1-0.4-2.1-1.1-3.2-1.3
			c-3.9-0.9-8-1.9-11.5,1c-4.9,4.1-9.9,3.7-15.2,0.7c-1.3-0.7-3.1-1.2-4.5-1.1c-3.9,0.3-7.5,1.6-10.3,4.5c-2.5,2.5-5.4,3.1-8.6,2.1
			c-1.3-0.4-2.4-1.1-3.7-1.5c-2.6-0.8-5.3-2.9-8.1-0.4c-4.5,4-9.5,5.2-15.4,4.2c-5-0.8-10.1-1.9-15.1-0.1c-2.2,0.8-4.4,1.6-6.5,2.5
			c-4.3,1.8-8.7,1.7-12.7-0.4c-4.3-2.2-8-2-12.2,0.1c-6.2,3.2-12.3,4.4-19.2,0.8c-4.8-2.5-10.6-2.6-15.4,0.9c-8,5.8-16.5,5.4-25,2.1
			c-6.2-2.4-12.3-2.9-18.7-1.7c-3.7,0.7-7.3,1.5-11,2.2c-5.8,1-11.4-0.3-16.7-2.6c-4-1.7-7.7-2.6-12.3-1.3c-6.1,1.7-12.5,1.9-18.6-1
			c-5.5-2.6-11.1-2.8-16.9-0.6c-6.9,2.6-13.8,2.2-20.4-0.6c-7.8-3.3-15.6-3.5-23.7-2.1c-7.1,1.2-13.9,0.6-20-3.7
			c-3.5-2.4-7.2-2.2-10.9-0.3c-0.9,0.4-1.8,0.8-2.7,1c-4.8,1-9.3,0.6-13.7-2c-2.7-1.6-6-2.9-9-3.1c-3.2-0.2-6.5,1.1-9.6,2
			c-5,1.4-10,1.8-14.7-0.1c-3.2-1.3-5.7-0.3-8.7,0.4C356.4,539.6,355.7,542.2,355,546.2z M341.2,559.4c1.1,0.1,1.7,0.3,2.1,0.2
			c4.6-1,8.9-0.2,13,1.8c4.5,2.2,8.9,1.9,13.1-0.3c5.7-3,11.3-2.8,16.9,0.1c7.8,4.1,16,5.6,24.6,2.9c4-1.3,7.9-0.7,11.8,0.7
			c9.1,3.1,18.4,4.2,27.8,2.2c4.9-1.1,9.2,0,13.5,1.5c5.7,2,11.5,3.5,17.5,0.9c4.1-1.8,8.1-1.4,12.3-0.2c5.1,1.5,10.2,3,15.5,3.8
			c4.1,0.6,8.4,0.1,12.6-0.1c7.4-0.3,14.8-0.3,22.1,1.9c4.2,1.3,8.6,1.8,12.9,0.2c6.9-2.6,13.7-2.5,20.6,0.2
			c5,1.9,10.2,1.7,15.6,1.1c5.7-0.7,11.7-0.6,17.3,0.3c3.6,0.6,6.7,0.5,9.8-1.1c3.6-1.8,7.2-2.5,11.1-0.8c2.2,1,4.4,1,6.7,0.1
			c3.1-1.1,6.3-2,9.5-2.7c4-0.9,7.9-0.7,11.9,0.8c3,1.1,6.5,2.1,9.6,1.7c5.7-0.6,11.4-2.1,17-3.6c4.6-1.2,9.1-3.1,13.9-1.5
			c7.1,2.3,14,1.6,21.2,0.4c3.7-0.6,7.7-0.9,11.3-0.3c7.4,1.2,14.5,2,21.6-1.2c2.7-1.2,5.4-2,8.6-1.6c4.7,0.7,9.5,1.1,14.2,0.9
			c3.3-0.2,6.9-1,9.6-2.7c5.2-3.2,10.4-3.4,15.9-1.8c5.1,1.5,10.2,1.7,14.9-0.7c3.9-2.1,7.5-1.7,11.6-0.9c3,0.6,6.5,0.7,9.4-0.1
			c2.7-0.8,5.2-1.7,8-1.1c2.1,0.5,3.3-0.3,3.9-2.5c1.2-4.6,2.5-9.1,3.7-13.7c0.2-0.7-0.3-2.2-0.7-2.3c-1.1-0.3-2.9-0.4-3.5,0.2
			c-3.5,3.9-7.6,5.8-12.9,4.7c-0.9-0.2-1.8-0.3-2.7-0.1c-1.8,0.3-3.6,0.6-5.3,1.2c-6.3,2.1-12.4,5-19.2,3.7
			c-5.8-1.1-11-0.5-15.6,3.5c-4,3.4-8.7,3.5-13.2,1.7c-5.1-2-9.7-0.9-13.9,1.3c-6.5,3.4-13.1,4-20,1.8c-5.7-1.9-11.2-1.4-16.3,1.5
			c-5.8,3.4-11.7,3.7-18.1,2.4c-6.9-1.4-13.8-2.3-20.4,1.4c-0.6,0.3-1.4,0.4-2,0.6c-6.9,1.6-13.7,0.8-20.4-1.4
			c-4.5-1.5-9.2-1.6-13.7,0c-7,2.5-13.8,2.2-20.7-0.3c-4.3-1.6-9-1.7-13.4,0.2c-5.9,2.5-11.6,2.1-17.5,0c-2.2-0.8-4.9-0.8-7.2-0.6
			c-3.2,0.3-6.3,1.8-9.4,1.9c-6.6,0.2-13.1,1.5-19.8-1.1c-4.6-1.7-9.3,0.4-13.2,3.5c-0.6,0.5-1.4,0.9-2.1,0.9
			c-3.1-0.3-6.3-0.3-9.1-1.3c-5.6-2.1-11-2.8-16.8-1.3c-4.7,1.2-9.4,1-14.1-0.5c-4.8-1.6-9.5-3.7-14.5-4.8
			c-5.8-1.3-11.7-1.5-17.5,0.1c-4.8,1.4-9.8,1.4-14.2-0.6c-8.2-3.8-16.5-4.5-25.1-2.3c-5.4,1.4-10.3,0.4-15.1-1.9
			c-1.3-0.6-2.6-1.7-3.8-1.7c-5.7-0.1-11.5-0.2-17.1,0.5c-2.6,0.4-4.7,0-6.9-0.9c-1.5-0.7-3-1.5-4.3-2.6c-3.6-2.9-7.1-2.3-10.6,0
			c-6.1,4.1-12.5,4.5-18.8,1.1c-3.2-1.7-5.9-1.4-8.9-0.3c-1.7,0.6-3.4,1.6-5.1,2.3c-0.8,0.3-1.7,0.8-2.5,0.7
			C344.9,554.6,343.6,557.1,341.2,559.4z M342.9,566.9c2.2,0.3,4.4,0.6,6.6,0.9c0.9,0.1,2,0,2.6,0.6c2.9,2.8,5.7,5.6,8.2,8.6
			c1.2,1.4,1.9,2,3.7,1.2c5.4-2.3,10.8-3.9,16.2,0.1c3.7,2.7,7.6,2,11.5,0.3c5.5-2.4,11-3.6,15.7,1.5c3,3.2,6.5,3,10.1,2
			c3.3-0.9,6.4-2.3,9.7-3c5-1.1,10-1.4,14.1,2.5c5.2,5,11.5,4.9,17.6,3c5.4-1.6,10.3-1.5,15.4,0.5c6.2,2.4,12.4,2.6,18.7-0.4
			c5-2.4,10.2-2.1,15.3,0.4c4.6,2.3,9.4,2.8,14.2,0.6c4.7-2.1,9.1-1.9,14-0.2c3.7,1.3,8,1.5,12,1.6c4,0.1,8-1.2,11.9-0.7
			c4.9,0.6,9.7,0.1,14.4-1.1c2.1-0.5,3.7-0.5,5.6,0.4c4.5,2,9.1,2.1,13.7,0.1c3.9-1.7,7.9-2.6,12.2-0.8c5.1,2.2,10.6,2.9,16.1,2
			c4.8-0.8,9.3-0.1,14,1.2c5.6,1.5,11.3,2.6,17.1,0.1c4.4-2,9.2-2.4,13.9-1.3c2.4,0.6,4.8,1.4,7.2,2.1c4.3,1.2,8.3,2.6,13,0.4
			c8.7-4.1,17.8-4,27-1.4c6.2,1.8,12.3,1.8,18.3-1.1c6.6-3.2,13.5-3.7,20.7-2.2c3.2,0.7,6.7,0.6,10.1,0.3c3.9-0.4,7.7-1.4,11.6-2.1
			c6.2-1.2,12.3-2.3,18.5,0.2c3.9,1.5,7.8,0.6,11.5-0.8c4.5-1.7,8.9-3.6,13.5-5.1c2.4-0.7,5.2-1.5,7.3,0.7c3,3.1,6.6,3.7,10.6,3.1
			c2-0.3,4.1-0.4,6.1-0.9c0.8-0.2,2-0.8,2.2-1.5c1.2-3.6,2.2-7.2,3-10.8c0.1-0.6-0.7-1.9-1.1-1.9c-2.3-0.1-4.8-0.4-6.9,0.3
			c-4.2,1.5-8.4,1.6-12.4,0.3c-3.7-1.3-6.8-0.5-10,1.2c-3.7,2-7.5,2.8-11.6,1.7c-2.2-0.6-4.3-1.1-6.5-1.4c-3.6-0.6-7.1-0.9-10.3,1.4
			c-1.6,1.1-3.3,2.3-5.2,2.7c-6.9,1.7-13.9,1.6-20.8,0.3c-3.1-0.6-5.7-0.4-8.2,1c-6.1,3.6-12.8,3.2-19.1,1.8
			c-4.9-1.1-9.4-1.1-14.2-0.1c-6.9,1.4-13.7,2.3-20.7,0c-2.4-0.8-5.3-0.8-7.8-0.3c-5,1-9.8,2.8-14.8,3.9c-6.1,1.4-12.3,2.3-18.4-0.6
			c-2.2-1.1-5.1-1.7-7.5-1.3c-4.6,0.7-9.2,2.2-13.7,3.5c-2.8,0.8-5.3,2-8.2-0.4c-2.1-1.7-5.1-1.6-7.6-0.1c-3.9,2.2-7.8,3.1-12.3,2.1
			c-5.9-1.2-11.8-1.6-17.8-0.2c-5,1.1-9.9,0.5-14.8-1.3c-2.2-0.9-4.6-1.5-6.9-2.1c-4.7-1.2-9,0.1-13.3,1.8
			c-3.5,1.3-7.1,1.6-10.8,0.5c-7.4-2.2-15-3.1-22.8-2.5c-8,0.6-15.9,1-23.6-1.7c-6.8-2.4-13.7-4.4-20.9-1c-0.2,0.1-0.5,0.1-0.8,0.1
			c-5.8,1-11.1-0.8-16.5-2.5c-2.9-0.9-6.4-2.3-9.1-1.6c-9.5,2.7-18.6,1.9-27.8-0.9c-5.6-1.7-10.7-2.7-16.7-0.9
			c-6.9,2.1-14.1,0.6-20.5-2.9c-6.6-3.7-12.9-3.2-19.4,0c-3.2,1.6-6.6,1.4-9.9,0.2c-1.7-0.6-3.3-1.5-5-2
			C350.1,564.3,346.4,563.9,342.9,566.9z M734.8,517.4c-3.6-2.5-6.6-4.5-9.5-6.6c-1.4-1-2.5-2.2-4.5-1.3c-0.6,0.2-1.5-0.4-2.2-0.5
			c-1.2-0.2-2.5-0.5-3.7-0.3c-1.5,0.2-2.8,1.1-4.3,1.4c-3.1,0.7-6.2,1.7-9.4-0.3c-0.7-0.4-2,0-2.9,0.3c-3.5,1.5-7.1,2.8-10.6,1.1
			c-3.4-1.6-5.8-0.5-8.6,1.3c-3.5,2.2-7.4,3.4-11.7,1.5c-3.3-1.4-6.7-0.9-10.1,0.7c-5.4,2.5-11.2,3.4-16.8,0.5
			c-4.4-2.3-8.3-1.8-12.5,0.4c-3.1,1.6-6.4,2.9-10,2.3c-3.8-0.6-7.6-1.2-11.3-2.1c-4.4-1-8.2-0.5-11.5,3.1c-2.4,2.7-5.6,3.4-9.1,2.1
			c-2.9-1.1-5.8-2.3-8.7-3.3c-4.4-1.6-8.8-3-13.5-0.6c-1.4,0.7-3,1.1-4.5,1.8c-6.1,3-11.9,1.5-17.5-1.4c-7.7-4.1-7.6-4-14.2-0.5
			c-2.4,1.3-5.5,2.2-8.1,1.8c-4.9-0.6-9.8-1.9-14.5-3.6c-5.5-2-10.9-2.6-16.5-0.8c-7.2,2.3-14.3,2.5-21.3-1.2
			c-5.3-2.8-10.6-3.7-16.4-0.7c-4.1,2.1-8.5,1.3-12.7-0.8c-1.8-0.9-3.8-2.4-5.6-2.3c-5.1,0.2-10.4,0.5-15.3,1.9
			c-5.4,1.5-10.1,1.6-14.6-2c-2.8-2.2-5.9-4-9.6-3.3c-3.9,0.8-8,1.4-11.7,3c-7.5,3.2-13.9,1.4-20.1-3c-0.8-0.6-1.7-1.3-2.6-1.3
			c-5,0.4-10.1,0.5-12.8,6.2c-1.4,2.9,0.5,4.1,1.3,6c0.8,1.8,2.3,1.6,3.9,1.1c0.8-0.2,1.6-0.2,2.4-0.5c4.4-2.1,8.4-1,12.1,1.6
			c5.9,4.2,12.1,3.8,17.8,0.5c5.3-3.1,9.8-4.1,14.9,0.2c3.4,2.8,7.4,3.7,11.8,1.9c1.5-0.6,3.1-0.8,4.7-1.1c5.9-1,11.3,0.8,16.5,3.4
			c3.2,1.6,6.6,1.8,9.8,0.3c6.8-3.3,13.4-3,19.9,0.8c3.5,2,7.3,3,11.4,2.5c2.2-0.3,4.5-0.4,6.7-0.8c5.9-1.1,11.4-0.6,17.1,1.6
			c4.5,1.8,9.7,2.1,14.5,0.3c5.6-2.2,10.9-1.3,16.4,0.4c2.8,0.9,5.9,1.7,8.8,1.5c3-0.3,5.8-1.9,8.7-3c5.1-1.8,10-2,14.8,1.3
			c3.6,2.5,8.7,1.8,12.1-1.1c2.7-2.3,5.7-2.9,9-1.8c1.5,0.5,2.9,1.5,4.3,2.1c3.8,1.6,7.5,3,11.8,1.1c5.6-2.5,11.3-2.7,17.1,0.1
			c3.9,1.8,8.1,2,12.1-0.4c2.5-1.6,5.3-3,8.1-3.8c3-0.9,6-0.5,9.1,0.8c4.9,2,9.8,2.1,14.9-0.2c4.3-1.9,8.9-3.1,13.8-2.2
			c3.2,0.6,6.6,0.6,9.8,0.3c5.1-0.6,10.2-1.7,15.3-2.4c1.2-0.2,2.6,0.6,3.9,0.7c4.1,0.3,8.3,1.9,11.9-1.6c1.9-1.9,4.3-2.7,7.1-2.6
			c3.3,0.2,6.6,0.3,9.9,0.3C731.2,517.9,732.9,517.6,734.8,517.4z M715.3,503.9c-3.6-2.3-6.6-4.6-10-6.1c-4.4-1.9-9.1-3-13.8,0
			c-2.7,1.7-5.8,1.6-8.8,0.3c-3-1.3-6-1-8.8,0.4c-4.9,2.5-9.9,3-14.9,0.5c-5.8-2.8-11.6-1.6-17.1,0.6c-4.1,1.6-7.5,1.6-11.2-0.7
			c-3.4-2-6.9-3.5-10.9-1.7c-3,1.4-6.3,1.5-9.2,3.7c-4.5,3.5-7.3,2.9-11.7-0.4c-0.4-0.3-1.5-0.1-1.9,0.2c-3.5,3.1-7.4,4.3-11.8,2.4
			c-1.7-0.7-2.8-0.4-4.4,0.3c-4.2,2-5.9,2-8.5-0.4c-5.9-5.3-12.7-8-20.5-4.2c-3.9,1.9-7.5,1.7-11.3,0.1c-2.1-0.9-4.5-1.3-6.7-1.1
			c-2.6,0.2-5.2,1.3-7.8,2c-5.9,1.5-11.9,1.7-17.6-0.6c-5-2-10.1-3.3-15.2-1.8c-5.9,1.7-11.1,0.7-16.2-2c-2.1-1.1-4.1-1.5-6.4-0.8
			c-6.4,1.9-12.9,3-19.6,1.9c-4.9-0.8-9.8-1.7-14.8-2.6c-2.1-0.4-4.3-0.7-5.8,1.6c-0.3,0.5-1.4,0.6-2.2,0.7
			c-6.7,0.5-12.9-1.6-19-3.9c-3.2-1.2-5.8-0.8-8.3,0.7c-2.2,1.3-4.4,1.5-6.7,0.7c-2.3-0.8-4.6-1.7-6.5-3c-3-2.1-5.9-2-9.1-0.8
			c-6,2.3-12,2.5-18-0.4c-3.3-1.6-6.6-1.1-9.8,0.5c-0.5,0.3-0.9,1.2-0.9,1.8c0.1,2,0.6,4,0.6,6c0,1.9,0.6,2.6,2.5,2.3
			c4.5-0.7,8.5-0.1,12.2,3c2.7,2.2,6.3,3.5,10,2.6c3.3-0.8,6.4-2.1,9.7-3.1c6.3-2,12.6-3.2,18.2,1.8c4.4,4,9.4,3.6,14.4,1.9
			c7.1-2.4,14-3.2,21,0.4c4.6,2.3,9.3,2.3,14.2,0.1c4.1-1.9,8.4-1.8,12.7,0.3c7.6,3.7,15.3,5,23.6,2.2c5-1.7,10.4-1.6,15.5,0.4
			c2.7,1.1,5.5,2.2,8.3,3c5.1,1.4,10.1,2.3,15.2-0.9c4.4-2.8,8.8-3.7,13.9,0.1c5.1,3.8,11.3,5,17.5,2c1.3-0.6,2.7-1,4-1.6
			c3.8-1.7,7.9-1.2,11.7-0.5c3.4,0.6,6.5,2.4,9.7,3.7c3.7,1.5,7.4,1.4,9.8-1.6c2.6-3.3,6.5-3.5,10.3-3.3c2.5,0.2,5,0.7,7.4,1.4
			c5.5,1.6,10.5,1.2,15.8-1.2c3.8-1.8,8-2.4,12.3-0.2c5.4,2.8,11.2,2.6,16.7,0.1c3.2-1.4,6.4-2.6,9.5-1.2c6.1,2.8,10.8-0.7,15.9-2.8
			c1.2-0.5,2.9-1,3.9-0.5c4.7,2.3,9.2,1.4,13.7-0.5c0.7-0.3,1.8-0.3,2.5,0C706.8,507.4,710.8,507,715.3,503.9z M114.1,439
			c2.3,0.2,4.5,0.2,6.5,0.7c3.6,0.8,7,2.1,10.6,2.7c4.9,0.9,9.6,0.1,13.9-2.5c2.8-1.7,5.8-2.6,9-1.9c2.8,0.6,5.8,1.4,8.3,2.6
			c4.8,2.4,9.7,4.4,15.1,4.1c4-0.3,7.9-1.2,11.9-1.8c5-0.8,10-1.7,15,0.6c7.2,3.3,14.7,4,22.5,2.2c6.9-1.6,13.7-1.4,20.6,1.1
			c5.8,2.1,11.9,2.8,18.1,0.4c5-1.9,10-1,14.9,1.1c3.6,1.5,7.2,1.6,10.9,0c2-0.9,4.2-1.7,6.4-1.8c6.9-0.4,13.5,0.6,19.6,4.2
			c3.2,1.9,7,1.8,10.5-0.1c6.4-3.4,13.1-4.4,20.1-1.4c3.3,1.5,6.8,1.6,10.3-0.2c1.9-1,4.2-1.7,6.4-1.7c3.3,0,6.8,0.4,9.9,1.4
			c4.6,1.5,8.9,1.3,13.4-0.1c4.3-1.3,8.7-2.1,12.9-0.5c5.9,2.3,11.6,1.8,17.6,0.5c3.5-0.8,7.7-1.2,11-0.1c4.1,1.4,7.7-0.1,11.5,0.2
			c0.5,0,1.4-1,1.5-1.6c0.6-3.1,1-6.3,1.3-9.4c0.2-2-0.9-2.8-3-2.8c-7.2,0.1-14.3,0-21.5,0.1c-2.7,0.1-5.6,0.4-8.2,1.1
			c-8,2.1-15.8,1.4-23.8-0.8c-4.5-1.2-9.7-0.4-14.6-0.2c-2.9,0.1-5.8,1.2-8.7,1.5c-5.7,0.6-11.2-0.4-16.6-2.2
			c-2.7-0.9-5.4-1.9-8.2-2.3c-6.5-1-12.5,1.4-18.6,3.2c-0.7,0.2-1.2,1.3-1.6,2c-1.4,2.8-3.6,4-6.6,4.3c-5.9,0.5-10.6-1.9-14.8-5.6
			c-0.5-0.5-1.1-1.1-1.7-1.1c-3.7-0.1-7.5-0.6-10.9,0.2c-5.2,1.3-10,0.4-14.8-1.1c-4-1.3-7.8-1.5-11.8-0.4
			c-3.5,0.9-6.9,1.9-10.4,2.4c-10.5,1.5-20.4-1.1-30.3-4.1c-1.3-0.4-2.6-0.8-3.9-0.7c-4.5,0.4-9.1,0.9-13.6,1.5
			c-5,0.7-10,1.7-15-0.1c-5-1.7-10.3-2.9-15.4-4.3c-0.9-0.3-2-0.5-2.9-0.4c-4.8,0.7-9.5,1.7-14.2,2.4c-5.9,0.9-11.7,0.6-17.1-1.9
			c-5-2.4-10.2-2.5-15.4-1.2c-0.9,0.2-2.2,0.9-2.5,1.7C116.4,432.1,115.4,435.5,114.1,439z M978.2,337.2c0.2-0.5,0.5-1,0.7-1.5
			c-1.5-1.4-2.9-2.8-4.4-4.2c-0.8-0.8-1.7-1.5-2.4-2.3c-0.8-1-1.2-2.3-2.2-3c-5-3.9-10.7-6-17-6.6c-3.6-0.4-7.3-0.7-10.9-0.8
			c-1.6-0.1-3.3,0.2-4.9,0.7c-3.9,1.1-7.5,3.6-11.8,2.2c-1.8-0.6-3.6-1.1-5.4-1.6c-4.4-1.1-8.1,1.3-12.2,2.2
			c-6.1,1.3-12.4,1.8-18.4-0.7c-3.4-1.4-6.2-1.6-9.6,0.3c-3.5,1.9-7.3,3.8-11.7,2.9c-2.7-0.5-5.5-0.3-8.2-0.8
			c-3.4-0.6-6.7-1.4-10-2.2c-1.2,0.1-2.6,0.7-4,1.1c-4.7,1.1-9.5,2.7-14.3,3c-3.7,0.3-7.6-1-11.3-1.7c-3.2-0.6-6.2-0.8-9.4,0.7
			c-6.2,3-12.8,3.5-19.4,1.3c-5.8-1.9-11-0.9-16.7,1.1c-5.7,2-11.9,3.1-17.7-0.1c-4.7-2.6-9.4-3.2-14.3-0.8c-2.1,1-4,2.4-6.2,3
			c-5.1,1.5-10.3,2.1-15.5-0.2c-0.8-0.3-1.8-0.3-2.6-0.5c-7.3-1.6-13.4,2-19.7,4.4c-0.4,0.1-0.7,0.8-0.8,1.2
			c-0.8,3.7-0.2,7.1,1.7,10.3c0.8,1.4,1.9,1.9,3.6,1.2c2.4-1,5-1.5,7.2-2.8c3.6-2.1,7.2-2.1,10.9-0.9c5.4,1.7,10.9,1.8,16.5,1.2
			c2.2-0.2,4.4-0.8,6.4-1.7c4.4-2,8.7-3,13.5-1.5c7.3,2.3,14.6,2.6,22-0.2c6.6-2.5,13.5-2.8,20.5-0.8c5.5,1.6,11.3,1.6,16.8-0.7
			c5.7-2.4,11.5-2.7,17.6-0.8c5.5,1.8,11,1.8,16.5-0.8c4.2-2,8.5-1.9,13-0.3c5.9,2.1,11.9,2.8,18.2,1.1c5.7-1.5,11.6-2.5,17.4-0.2
			c1.7,0.7,3.6,1.1,5.4,1.5c3.1,0.7,6,0.8,9-1.1c4.9-3.1,10.3-4,16.1-2.1c3.4,1.1,7.2,1.2,10.9,1.6c1.2,0.1,2.5-0.2,3.6-0.6
			c6.5-2.4,12.7-2.9,19.6-0.7C968.4,337.4,973.4,336.8,978.2,337.2z M380.8,470.8c-2.7-0.2-4.9-0.5-7.1-0.5c-2.9,0-5.9-0.1-8.6,0.7
			c-3.6,1-6.8,1.4-10.5,0.4c-2.2-0.6-5.2-0.7-7.2,0.3c-6.7,3-13.3,2.1-19.9,0c-4.3-1.4-8.7-2.5-13.1-1.1c-6.8,2.2-13.7,2.2-20.2-0.4
			c-5-2-9.7-1.8-14.7-0.8c-5.5,1.1-11,1.3-16.4-0.7c-3.3-1.2-6.7-1.5-10.3-0.7c-6.3,1.5-12.7,1.6-18.7-1.1c-5.5-2.5-11-2.3-16.5-0.5
			c-6.7,2.1-13,1.2-19-1.8c-3-1.5-6-2.2-9.3-2.1c-2.9,0.1-5.8,0.1-8.5,0.7c-4.7,1.1-8.9,0.2-13.1-2.2c-2.6-1.5-5.6-2.2-8.7-0.7
			c-1.7,0.8-3.5,1.2-5.3,1.8c-5,1.6-9.2-1.4-13.6-2.6c-3.6-1-6.9-1.3-10.3,0.5c-5.2,2.8-10.5,3.6-16.1,0.7c-4.5-2.4-9.2-0.4-13,1.8
			c-3.5,2.1-3.5,6.9-4.6,10.8c0.7,0.1,1.1,0.3,1.4,0.2c2.7-1,5.2-0.5,7.7,0.8c1.8,0.8,4.1,1.4,5.9,1c3.2-0.7,6.4-2.1,9.4-3.5
			c3.5-1.7,6.9-2.5,10.5-0.6c6,3.2,12.5,3.3,18.8,2c5.2-1.1,9.9-1.3,14.8,1.4c2.1,1.1,4.8,1.6,7.2,1.5c2.8,0,5.6-0.9,8.4-1.3
			c1.4-0.2,2.9-0.5,4.2,0c2.5,0.8,4.8,2.4,7.4,3.2c2.8,0.8,5.7,1.5,8.5,1.4c3.8-0.1,7.6-1.2,11.4-1.6c4.9-0.5,9.5,0.8,14.1,2.5
			c3.9,1.4,7.9,1.8,11.8,0.2c4.9-2,9.6-2.3,14.5,0.3c3.4,1.8,7,2.5,10.8,0.9c5.6-2.3,11.3-2.1,17.1-0.1c3.8,1.3,7.7,1.3,11.6-0.1
			c2.6-0.9,5.5-1.7,8.3-1.8c2-0.1,4.5,0.3,6,1.5c2.9,2.2,6,3.2,9.5,2.6c4.2-0.7,7.7,0.4,11.3,2.7c2.7,1.8,5.7,4.3,9.3,3.3
			c5.1-1.3,10.1-2.9,15.1-4.6c3.5-1.2,6.8-1.4,10.1,0.2c3.1,1.5,6.4,2.4,9.9,1.8c2.3-0.4,4.5-1.1,6.7-1.8c4.2-1.3,7.9-0.8,11.7,1.7
			c2.2,1.4,5.2,2.6,7.7,2.3c3.2-0.3,6.2-2.2,9.6-3.5c-1.9-1.2-3.7-2.3-5.5-3.4c-4.6-2.7-8.9-5.9-14.3-7
			C384.1,474.7,381.7,473.6,380.8,470.8z M704.5,351.3c0.9,1,1.6,1.8,2.4,2.6c2.5,2.3,5.4,4.4,7.6,7c2,2.5,3.8,2.7,6.6,1.4
			c4.6-2.2,9.5-2.6,14.3-0.4c3.6,1.6,7.1,1.1,9.8-1.3c4-3.6,7.8-3.6,12.2-0.9c5.6,3.4,11.6,2.8,17.5,0.9c3.9-1.3,7.7-3,11.6-4
			c6.1-1.5,12.3-2.7,18.5-3.8c7.6-1.4,15.3-2.6,23-3.8c2.3-0.4,4.6-1,6.9-0.7c3.8,0.5,7.6,1.5,11.2,2.7c3.9,1.3,7.5,3.2,11.3,4.8
			c2.6,1.1,5.1,2.1,8.2,1.1c5.1-1.8,10.3-1.4,15.1,1.2c6,3.3,12.3,4.6,19.1,3.6c0.9-0.1,2-0.3,2.8-0.8c6.4-3.5,13.1-2.8,19.7-1
			c3.8,1.1,7.1,2.1,11-0.7c4.4-3.1,9.6-3.9,15.1-2c4.5,1.6,9.1,1.8,14,1c5-0.9,10.1-1.2,15,0.9c2.7,1.2,4.4,0.2,4.9-2.7
			c0.5-2.6,0.8-5.3,0.7-8c-0.1-3.5-1.3-5.1-4.6-5.8c-2.9-0.6-6-0.5-9-0.7c-2.2-0.2-4.7,0.2-6.6-0.7c-5.1-2.6-10.1-1.9-15.1-0.3
			c-5.7,1.9-11.4,2.4-17.1,0.6c-5.4-1.7-10.7-2.5-15.9,1c-4.2,2.9-8.7,2.1-13.1,0.7c-6.8-2.2-13.8-2.4-20.6-0.5
			c-6.3,1.8-12.2,1-18.1-1.1c-3.6-1.3-7-1.5-10.7-0.3c-3.7,1.2-7.5,2.4-11.3,2.6c-3.3,0.2-6.7-1-10-1.7c-3.9-0.9-7.8-1.1-11.5,0.7
			c-5.6,2.7-11.5,3.2-17.5,1.7c-2.4-0.6-4.9-1.9-7.2-1.7c-5.4,0.3-11,0.7-16.1,2.3c-7.1,2.3-14,1.5-20.9,0c-4-0.9-7.6-0.9-11.2,0.8
			c-7.4,3.3-15.3,3.9-22.8,1.6C716.2,345.2,710.6,347.8,704.5,351.3z M689.2,640.2c-1.2-0.8-1.7-1.2-2.2-1.4
			c-4.1-1.3-8.1-2.8-12.3-3.9c-9.8-2.5-19.8-3.9-29.9-4.7c-4.8-0.4-9.7-1.3-14.4-2.5c-8.9-2.3-16.2-7.6-23.1-13.5
			c-6.1-5.3-12.7-9.6-20.1-12.8c-2.3-1-4.8-2.2-7.1-2c-4.7,0.4-9.5,1-13.9,2.6c-6.2,2.2-12.2,5-18.1,8c-3.6,1.9-6.8,4.6-10,7.1
			c-1.8,1.5-2.6,3.4-0.4,5.5c0.7,0.7,1.4,1.9,1.3,2.8c-0.3,5,2.3,9.1,4.1,13.3c0.3,0.8,1.7,1.7,2.5,1.7c5.1,0,10.2-0.2,15.3-0.3
			c20.8-0.7,41.5,1.5,62.2,2.8c9.5,0.6,19.2,0.6,28.7,0.3c9.6-0.3,19.1-1.2,28.7-1.9C683.2,641.1,685.8,640.7,689.2,640.2z
			 M699.2,325.9c0.2,0.2,0.5,0.4,0.7,0.6c0.8-0.3,1.7-0.5,2.5-0.8c6-2.6,12.2-3.8,18.5-1.4c6.4,2.5,12.3,1.6,18.2-1.5
			c5.6-2.9,11.5-4.3,17.5-0.3c2.6,1.7,5.6,1.8,8.8,1.8c4.9,0,9.2-2.1,13.6-3.5c3.7-1.2,7.4-1.2,11,0c5.8,2,11.5,2.2,17.3,0.2
			c4.4-1.5,8.7-3.4,13.7-2.1c4,1.1,8.2,1.4,12.4,1.8c1.6,0.1,3.3-0.7,4.9-0.9c4.8-0.7,9.6-2.1,14.4-2c5.2,0.1,10.3,1.7,15.5,2.4
			c1.9,0.3,4.6,0.6,5.6-0.4c3.3-3.2,7.7-3.1,11.4-4.8c0.5-0.2,1.2,0,1.8,0.1c1.9,0.6,3.8,1.6,5.8,1.9c5.8,0.9,11.7,1.6,17.2-0.9
			c4.8-2.2,9.3-2.1,14-0.3c3.1,1.1,6.1,1.5,9.3-0.2c3.6-1.9,7.7-2.9,11.9-1.9c0.8,0.2,1.6,0,2.8,0.1c-0.4-0.8-0.5-1.2-0.8-1.4
			c-4-3.3-7.9-6.6-12-9.7c-0.8-0.6-2.2-0.7-3.3-0.8c-3.2-0.3-6.4-0.5-9.6-0.6c-2.5-0.1-5.2-0.5-7.6,0c-5.2,1.2-10.2,1.5-15.3-0.5
			c-2.3-0.9-4.6-0.9-6.9,0.7c-1.3,0.9-2.9,2-4.3,2c-5.1-0.1-10.2,0.9-15.2-1.5c-1.7-0.8-4.3-0.3-6.4,0.3c-3.9,1.1-7.8,3.6-11.9,2.1
			c-5.5-1.9-10.3-0.8-15.6,1c-3.8,1.3-8.3,1.8-12.3,1.2c-6.4-0.9-12.6-1-18.9,0.3c-6.7,1.4-13.4,1.4-20.2,0.7
			c-5-0.5-10.4,0.4-15.2,2c-4.4,1.5-8.5,2.6-13,0.9c-6.8-2.6-13.4-2.4-20.3,0.3c-6.2,2.4-12.8,2.7-19.5,1c-3.3-0.8-6.9-0.5-10.3-0.3
			c-2.1,0.1-4.2,1-6.2,1.6c-0.3-0.3-0.6-0.6-0.9-0.9C701.5,316.7,700.4,321.3,699.2,325.9z M588.6,594c0.7,0.4,1.3,0.8,1.9,1
			c3.7,1.3,7.4,2.6,11.1,3.9c1.1,0.4,2.5,0.7,3.6,0.4c4.9-1.3,9.3-0.6,13.7,1.9c1.6,1,3.7,1.8,5.5,1.6c5.7-0.4,11.4-1.2,17-2
			c5.5-0.7,10.8-0.4,15.7,2.3c4.5,2.6,9.1,3,14,2.4c3-0.4,6-0.9,8.9-1.8c5.4-1.6,10.3-0.6,15.4,1.4c6.7,2.6,13.6,4.1,20.4-0.1
			c1-0.6,2.2-0.8,3.3-1.1c5.5-1.5,10.7-0.1,15.7,2c5.6,2.4,11.1,2.7,16.6,0.1c7.3-3.3,14.6-3.2,22-0.6c4.8,1.7,9.6,1.1,14.1-0.9
			c6.2-2.8,12.3-4.5,19.1-2.1c2.4,0.8,5.7,0.6,8.2-0.2c4.8-1.5,9.5-1.5,14.3-1.3c2.5,0.1,5.1-0.4,7.7-0.9c0.9-0.2,1.9-1.1,2.2-2
			c1.2-3.1,2.2-6.4,3.3-9.6c0.5-1.7-0.1-2.4-1.9-2.1c-2.1,0.3-4.3,0.6-6.4,0.7c-3.4,0.1-6.6-0.1-9.1-2.9c-0.8-0.8-2.5-1.5-3.5-1.3
			c-4.6,1.2-9.4,2.1-13.5,4.3c-6.2,3.3-12.3,3-18.7,1.4c-2-0.5-4.2-0.9-6.3-0.7c-4.1,0.4-8.1,1.2-12.2,2c-5.8,1.1-11.5,2.3-17.5,1
			c-6.2-1.4-12.6-1.6-18.4,1.5c-7,3.7-14.1,3.8-21.3,1.5c-8.1-2.5-16.2-2.3-23.8,1.1c-5.2,2.3-10,1.9-15,0.1
			c-6.4-2.3-12.9-3.8-19.6-0.9c-5.8,2.5-11.7,1.9-17.6,0.3c-4-1.1-7.9-2.7-12.3-1.9c-6.8,1.4-13.5,0.4-20.1-1.7
			c-2.3-0.7-5.1-0.3-7.6,0.1C594.5,591.7,591.8,592.9,588.6,594z M707,306.1c1,0.1,1.4,0.2,1.7,0.1c4.3-1.6,8.4-0.1,12.5,1
			c6.3,1.6,12.6,1.2,18.7-1.3c4.6-1.9,9.2-2.8,14.1-1.4c1.5,0.4,3,1.2,4.6,1.5c3.9,0.8,7.6,1.5,11.7-0.3c6-2.7,12.4-4.1,19.3-3.5
			c5.7,0.5,11.6,0.2,17.3-0.5c6.6-0.8,13.3-2,19.7-0.2c5.5,1.5,10.2,0.2,15-1.7c3.8-1.5,7.4-2.2,11.3-0.6c3.8,1.5,12.2-0.6,12.5-0.8
			c5.9-2.5,11.5,1.7,17.4,0.5c2.8-0.6,5.9-0.4,8.3-1.6c3.8-2,7.3-1.9,11.3-0.9c3.3,0.8,6.9,0.6,10.3,0.4c2.5-0.1,5-1,7.5-1.5
			c0.6-0.1,1.2-0.3,2.4-0.5c-2.6-1.7-4.7-2.9-6.7-4.4c-2.3-1.8-4.7-3-7.8-2.9c-2.1,0-4.3-0.5-6.3-1.1c-2.9-0.9-5.5-0.5-8.3,0.7
			c-2.1,0.9-4.7,1.1-6.9,0.7c-2.7-0.5-5.2-2.2-7.9-2.8c-2.4-0.5-5.6-1.2-7.5-0.2c-5.6,3.2-11.3,2.9-16.9,1.2
			c-5.8-1.8-11.2-1.7-16.8,0.3c-2.1,0.7-4.3,1-6.3-0.7c-0.4-0.3-1.2-0.3-1.8-0.2c-5.3,0.9-10.6,2.2-15.9,2.5
			c-4.9,0.4-9.8-0.4-14.7-0.4c-2.3,0-5,0.1-6.7,1.3c-6.7,4.8-13.8,5.1-21.2,3.1c-5.1-1.4-10-0.9-14.6,1.4c-5.5,2.8-11,2.9-16.7,1.2
			c-4-1.2-7.8-1.5-11.8,0.1c-2.6,1-5.5,1.5-8.2,2.3c-1,0.3-2,0.9-2.8,1.5c-1.9,1.4-3.7,3-5.6,4.5C710,303.8,708.7,304.7,707,306.1z
			 M740.6,613.8c-2-0.5-4-0.9-5.9-1.7c-7-2.6-13.9-4.4-20.8,0.2c-0.4,0.2-0.8,0.3-1.3,0.4c-6.5,1.5-12.8,1-18.8-2
			c-4.6-2.3-9.3-2-14.1-0.9c-2.3,0.6-4.7,1.2-7.1,1.6c-5.5,0.8-10.7,0.7-15.9-2.3c-4.2-2.5-9.1-3-14-2.4c-5.9,0.7-11.7,1.4-17.6,1.7
			c-2.1,0.1-4.3-0.8-6.4-1.4c-2.4-0.7-4.5-2.9-7.8-2.1c0.7,0.8,1.1,1.4,1.6,1.8c2.3,1.7,4.7,3.2,6.8,5.1
			c8.4,7.5,18.2,11.4,29.4,11.9c2,0.1,4.4,0.5,5.3-2.3c0.1-0.4,0.8-0.7,1.3-0.8c6.9-2.2,14-3.5,21-0.7c6.8,2.8,13.8,3.5,21,2.3
			c4.1-0.7,8.2-1.9,12.3-2.6c5.3-0.9,10.8-1.8,15.9,0.3c5.6,2.3,10.8,0.9,16-0.6c2.4-0.7,4.7-1.2,7-0.6c4.5,1.3,8.6,1.1,13.1-0.9
			c3.1-1.4,7.2-1.2,10.8-1.2c2.4,0,4.9,0.6,7.3,1.2c4.4,1,8.3,3,13.3,1.2c6.2-2.2,12.7-2.7,19.2-0.3c2.3,0.8,4.9,1.1,7.3,1
			c3.3-0.2,6.5-0.9,9.8-1.5c0.4-0.1,1-0.2,1.2-0.4c2-3.2,4-6.5,3.7-10.7c-3.1,0-6,0.2-8.8-0.2c-3.7-0.5-7,0.5-10.6,1.2
			c-3.3,0.6-7.1,1.2-10.2,0.3c-5.4-1.4-10.2-1-15.3,1.4c-6.3,3-12.9,3.6-19.8,1.1c-4.1-1.5-8.6-2-12.9-0.5c-2.1,0.7-4.2,1.6-6.2,2.5
			C748.8,613.6,742.6,614.3,740.6,613.8z M365.1,583.6c7.1,5.3,14.5,8.6,22.5,10.6c4.7,1.1,9.4,2.3,14.1,3.1
			c3.6,0.6,7.3,1.8,11.1,0.4c2.8-1,5.8-1.8,8.7-2.6c5.4-1.5,10.4-1.6,14.3,3.4c0.8,1,2.1,1.9,3.3,2.1c5.2,1,10.4,1.6,15.3-1.5
			c2.6-1.7,5.5-1.9,8.6-0.1c3.4,2,7.2,3.5,10.9,5c2.4,0.9,4.7,1.1,7.4-0.4c8-4.6,16.1-5.3,24.3,0.1c4.4,3,9.5,3.3,14.1,1.3
			c4.6-2.1,8.7-2.5,13.5-1.1c1.6,0.5,3.6,0.4,5.2-0.2c6.8-2.7,13.4-5.8,20.1-8.6c1.2-0.5,2.5-0.7,4.4-1.3c-4-3-7.8-2.1-11.2-1.3
			c-5.6,1.2-10.9,1.2-16-1.1c-4.4-2.1-8.4-1.3-12.6,0.3c-4.6,1.8-9.4,1.9-13.8-0.2c-5.1-2.4-10-3-15.5-0.9c-7.9,3.2-15.8,1.4-23.6-1
			c-2.1-0.7-4.6-0.6-6.8-0.4c-3.3,0.3-6.5,1.1-9.7,1.7c-4.4,0.8-8.5-0.7-11.7-3.4c-3.2-2.7-6.7-3.7-10.7-3c-4,0.8-7.9,2.1-11.9,3
			c-4.3,1-8.4,1.3-11.9-2.4c-3.6-3.8-8.2-4.3-12.5-2c-5.7,2.9-11,2.5-16.2-0.7C374,579.5,369.9,581.2,365.1,583.6z M130.6,406.4
			c0.3,0.4,0.6,0.7,1,1.1c2.7,0.6,5.5,0.9,8,2c6.5,2.8,12.9,2.8,19.1-0.6c5.6-3.1,11-2.3,16.5-0.3c4.3,1.5,8.6,3.6,12.9,3.9
			c4,0.3,8.2-1.4,12.2-2.3c6.7-1.5,13.1-1.9,19.3,2.3c4.7,3.2,10.2,3.4,15.7,1.3c4.2-1.6,8.5-2.7,13.1-1.1c2.4,0.9,4.9,1.6,7.5,2.2
			c5,1.1,9.9,1.6,14.6-1.1c4.9-2.8,9.8-2.5,14.9-0.3c2,0.9,4.1,1.6,6.2,2.4c0.2-0.3,0.5-0.5,0.7-0.8c-0.6-2.5-1.5-4.9-1.8-7.5
			c-0.3-3-2.2-4.1-4.5-5c-1.9-0.7-4-1.1-5.9-1.8c-5.3-1.9-10.4-2.4-16-0.4c-3.7,1.4-7.7,1.9-12,0.4c-3.8-1.4-8.3-1.3-12.4-1.3
			c-3.5,0.1-7,1.6-10.5,1.5c-4.2-0.1-8.5-0.9-12.5-2c-5.2-1.4-10.4-3.2-15.7-0.5c-5.5,2.8-10.9,0.9-15.7-1.2
			c-4.9-2.1-9.5-2.4-14-0.6c-6.1,2.5-11.6,1.6-17.1-1.6c-4.7-2.8-7.3-2.3-11.1,1.2c-3,2.9-6.2,5.7-9.3,8.4
			C132.8,405.5,131.6,405.9,130.6,406.4z M309.1,383.2c-0.1-0.3-0.3-0.6-0.4-1c-4.1-0.9-8,0-11.8,1.7c-1.3,0.6-2.9,1.3-4.3,1.1
			c-4-0.5-8.1-0.9-11.7-2.4c-5-2-9.8-1.9-14.2,0.3c-3.6,1.8-7.2,2.2-10.9,1.6c-3.8-0.6-7.5-1.5-11.1-2.9c-4.2-1.6-8.3-1.3-12.3-0.2
			c-6.4,1.8-12.5,2.5-18.6-1c-6.5-3.8-13.4-4.7-20.5-1.5c-1,0.4-1.9,1.1-2.9,1.3c-8.1,1.8-16.1,2.4-23.7-2c-1.3-0.7-3.1-0.8-4.6-0.6
			c-5.5,0.5-8.7,4-10.3,9c-0.2,0.6,0,1.9,0.5,2.2c5.5,3.4,11.1,5.6,17.7,2.8c5.3-2.3,10.7-1.8,16.1,0.6c4,1.7,8.5,3.5,13,1.4
			c6.2-2.9,12.2-2,18.2,0.3c6.2,2.4,12.6,2.3,18.7,0.9c5.3-1.2,10.5-1.5,15.6,0.1c4.9,1.6,9.5,1.1,14.1-0.5c1.6-0.6,3.3-1.3,4.9-1.2
			c6.5,0.6,12.8,2,18.6,5.2c1.7,1,2.5,0.8,3.2-1c1.2-3,2.4-5.9,5.7-7.4c2.3-1,4.4-2.3,6.6-3.6C306.1,385.5,307.6,384.3,309.1,383.2z
			 M306.4,486.4c-0.8-0.7-1.3-1.2-1.9-1.5c-3.8-1.8-7.5-0.8-11.1,0.6c-1.2,0.4-2.4,1.1-3.5,1.1c-6-0.3-11.9-0.4-17.8-1.2
			c-2.6-0.4-4.7-0.6-7.2,0.5c-4.6,2.1-9.1,1-13.5-0.9c-3.4-1.5-6.8-2.7-10.5-0.7c-6.3,3.3-12.5,1.3-18.5-0.6
			c-5.8-1.8-11.5-2-17.2-0.6c-5.5,1.3-10.5,1.2-15.5-1.7c-4.2-2.4-8.7-3.5-13.5-1.6c-3.2,1.3-6.6,0.8-9.7-0.3
			c-4.8-1.8-9.4-4-14.7-2.1c-1.2,0.4-2.5,0.6-3.7,0.6c-4.6,0.2-9.2,0.8-13.7-1.4c-4-1.9-8.4-3.1-12.8-0.2
			c-5.6,3.7-11.3,4.4-17.8,1.7c-5.5-2.3-10.9,1.6-11.4,7.1c1.9,1.1,3.6,2.2,5.4,3c1.5,0.7,3.2,1.3,4.8,1.3c3.9,0,7.5-0.9,10.9-3
			c3.9-2.4,9-1.9,11.9,1.3c3.6,3.9,6.9,3.4,11.8,0.8c5.9-3.1,12.4-3.4,17.7,0c5.3,3.4,10.1,3.1,15.2,0.9c5.8-2.5,11.5-1.7,17.2,0.2
			c4.3,1.5,8.5,2.5,13.1,1c4.1-1.3,8.4-1.2,12.6,0.5c3.7,1.5,7.5,1.7,11.5,0.1c2.6-1.1,5.4-0.9,8.3,0.4c3.5,1.6,7.2,2.9,11,3.3
			c4.4,0.4,9-0.3,13.5-0.5c8.2-0.5,16.5-0.7,24.6-1.8c7.8-1.1,15.5-3.2,23.3-4.9C305.4,487.4,305.7,486.9,306.4,486.4z M121.5,421.7
			c6.5-1,11.8,1.5,17.4,3.1c5.4,1.6,11,1.6,16.7-0.1c7-2.1,14.2-2.4,21.4,0.1c3.5,1.3,7,3.1,10.6,3.4c5,0.4,10.3,0.3,15.1-0.9
			c6.6-1.6,12.9-0.6,19.3,0.6c4.4,0.9,8.7,2.1,13.1,2.8c5.4,0.8,10.8,0.7,16.2-0.8c5.4-1.5,10.8-3.3,16.6-1.9
			c2.2,0.5,4.3,1.2,6.4,1.8c7,2.1,13.5-2.3,21-0.9c-0.5-2.9-0.8-5.2-1.4-7.4c-0.1-0.5-1.2-0.9-2-1.1c-1.7-0.5-3.6-0.5-5.1-1.3
			c-5.1-2.6-10.2-3.6-15.3-0.8c-6.2,3.4-12.5,2.4-18.7,0.5c-5.9-1.8-11.5-2.3-17.5-0.1c-4.4,1.6-9.1,1.5-13.6-0.7
			c-2.5-1.2-4.9-3.2-7.6-3.7c-4.9-0.9-9.9-1-14.8,1.1c-2.2,0.9-4.6,1.4-6.9,1.8c-4.9,0.8-9.5-0.5-14-2.5c-7-3.2-13.8-4.1-21-0.1
			c-4.3,2.4-9.1,2.9-14,0.9c-5.6-2.3-11.2-3.6-17.3-1.1C122.7,416.1,122.6,418.5,121.5,421.7z M303.9,375.9c-1.6-2.1-3.5-4-4.7-6.4
			c-1-2-2.3-2.2-4.2-2.4c-4.6-0.5-9.5-0.6-13.6-2.3c-4.3-1.8-8-1.5-12.1-0.1c-5.5,2-10.9,2.5-16.4,0c-2.5-1.1-5.1-2.3-7.8-2.8
			c-4.1-0.7-8.1-1-12.3,1c-8.1,3.9-16,3.7-23.4-2.2c-0.9-0.7-2.6-1.1-3.7-0.9c-2.8,0.5-5.5,1.4-8.2,2.2c-2.3,0.7-4.5,1.7-6.9,2.1
			c-6.2,1-12.2,0.1-18.3-1.5c-2.6-0.7-5.5-0.5-8.2,0.1c-4.6,0.9-6.7,5.2-5.3,10.2c4.2-2.2,7.6,0.1,11.3,1.8c2.1,1,4.6,1.8,6.9,1.7
			c5.8-0.1,11.7-0.3,16.9-3.4c0.6-0.4,1.3-0.4,2-0.6c6.5-1.8,12.5,0,18.1,3c5.3,2.7,10.3,3,16,1.2c5.3-1.7,10.9-2,16.3,0.3
			c2.4,1,5.1,1.8,7.7,2.2c3.9,0.6,7.6,0.6,11.4-1.3c5.2-2.5,10.8-2.4,16.4-0.4c3.7,1.3,7.8,2.4,11.7,2.2
			C297,379.5,300.2,377.3,303.9,375.9z M240.7,500c0-0.3-0.1-0.5-0.1-0.8c-2-0.7-3.9-1.4-5.9-2c-3-1-5.9-3-9.3-1.6
			c-5.1,2-9.9,1-14.9-0.5c-2.4-0.7-5.4-0.9-7.8-0.3c-5.4,1.4-10.4,0.8-15.5-0.9c-5.6-1.8-11.1-2.6-17,0c-4.1,1.8-8.9,2.8-13.2,0
			c-6.6-4.3-13.2-3.7-19.9-0.7c-4.2,1.9-8,2.4-11.8-1.2c-3.4-3.2-7.6-3.1-11.8-0.9c-5.9,3.1-11.9,4.3-17.9,0.1
			c-2.4-1.7-5.6-1.4-7.2,1c-2.1,3.3-3.8,7-5.8,10.8c3.1,0.6,5.7,0.4,8.1-0.8c4.1-2.2,8.1-2.1,12,0.6c2.5,1.7,4.9,3.3,8.2,1.9
			c6.7-2.9,13.4-4.4,20.1,0c0.4,0.2,0.8,0.5,1.2,0.5c4.3,0,8.5,0.8,12.8,1.5c4.7,0.8,9.5-0.1,14.3-0.6c9.8-1.1,19.6-1.1,29.5-1.3
			c10.5-0.1,20.9,0.3,31.3-1.5c5.4-0.9,10.8-1.2,16.2-1.9C237.8,501.3,239.2,500.5,240.7,500z M565.9,493.7c-0.5-3.3-1-6.5-1.4-9.7
			c-0.3-2.7-2-3.3-4.5-3.4c-2.7,0-5.5-0.7-8.2-0.8c-2.5-0.1-5.3-0.5-7.4,0.5c-4,1.9-7.6,1.4-11.4,0.3c-5.2-1.5-10.2-1.2-15.1,1.2
			c-3.5,1.7-7,1.8-10.1-0.6c-4.2-3.1-8.3-2.6-12.6-0.7c-4.9,2.1-9.7,2.8-15,0.3c-4.5-2.2-9.5-2.3-14,0.2c-4.3,2.4-8.4,1.6-12.5-0.2
			c-1.9-0.8-3.8-2.1-5.9-2.3c-4.3-0.4-8.7-0.2-13.1-0.3c-0.4,3-0.9,6-1,9c0,0.7,1.2,1.9,2,2.1c2.9,0.7,5.8,1,8.7,1.5
			c7.2,1.1,14.2,3,21.6,0c3.9-1.6,8.5-1.6,12.9,0.8c2.8,1.6,6.9,2.3,10,1.6c6.9-1.5,13.4-1.3,19.9,1.3c5.5,2.2,11.1,2.2,16.8,0.3
			c5.6-1.8,11.3-3.1,16.9,0.1c1.9,1.1,3.6,0.8,5.6,0.1c5.4-1.8,10.8-4.7,16.6-1.2C565,493.9,565.4,493.7,565.9,493.7z M441.5,428.3
			c-0.8-4.1-3.3-7.4-5.7-10.7c-2.5-3.5-8.4-4.8-12.1-2.4c-5.4,3.5-11.2,2.8-16.8,1.2c-4.3-1.2-8.1-0.8-11.9,1
			c-5.1,2.4-10.2,3.6-15.5,1.1c-4.7-2.2-9.5-2.5-14.6-1.2c-5.2,1.3-10.5,2.1-15.7,3.2c-3.1,0.6-6,0.4-8.9-0.8
			c-5.8-2.4-11.5-1.7-17,1.1c-0.5,0.2-1,0.9-1.1,1.3c-0.1,2.2-0.1,4.4-0.1,6.6c0.6,0,1,0.1,1.5,0.1c0.7-0.1,1.4-0.2,2.1-0.4
			c7-1.7,13.8-2.6,21,0.4c7.9,3.3,16.2,3,24.5,0.9c5.8-1.5,11.9-1.6,17.5,0.3c7.9,2.7,15.6,2.2,23.5,0.7c3.6-0.7,7.3-0.9,10.9-0.8
			C429.3,430.2,435.4,430.6,441.5,428.3z M416.7,394.2c-0.4-0.7-0.5-1.1-0.8-1.4c-3.5-3.1-7-6.3-10.6-9.3c-0.8-0.7-2.3-0.6-3.5-0.7
			c-3.9-0.3-7.9,0-11.7-0.8c-2.9-0.6-5.6-1-8.4-0.1c-2.2,0.7-4.4,1.4-6.6,2.2c-3.2,1.3-6.5,1.9-10,1.1c-2.3-0.5-4.4-1.5-6.7-2
			c-4.3-0.8-8.7-1.2-12.9,0.9c-5.5,2.8-10.6,2.3-15.6-1.3c-1-0.8-2.3-1.7-3.5-1.7c-3.8,0.1-7.6,0.6-11.4,1c-0.1,0-0.2,0.3,0,0
			c2.2,5.4,4.3,10.5,6.4,15.9c1-0.2,2.2-0.2,3.3-0.5c5.6-1.6,10.9-1.4,16.6,0.2c3.9,1.1,8.8,1.2,12.5-0.2c5.9-2.3,11.2-3,17.1-1
			c3.3,1.1,6.5,2.6,10.2,1.5c2.8-0.8,5.7-1.9,8.6-2.1c4.1-0.3,8.3-2.5,12.4-0.2C407.4,398.9,411.8,396.3,416.7,394.2z M163.2,357.6
			c4.6-1.5,8.8,0,13,1c6.4,1.5,12.9,1.7,19.2-1.1c2.3-1,4.7-1.8,7.1-2.3c2.9-0.6,5.9-0.8,8.4,1.4c5.6,4.8,12,4.3,18.5,2.4
			c3.2-0.9,6.4-2.6,9.6-2.8c4.6-0.2,9.1,0.8,13.4,3c5.3,2.7,10.8,2.4,16.3,0.2c3.8-1.5,7.8-1.8,11.8-0.5c2.9,1,5.9,2.2,8.9,2.7
			c6.1,1,6.6,0.4,6.1-5.7c-0.1-1.6-0.8-2.3-2.4-2.6c-3.1-0.6-6.3-1-9-2.4c-4.7-2.4-8.8-0.9-13.4,0.1c-5.7,1.2-11.7,0.6-16.7-2.9
			c-5.3-3.6-10.8-3.9-16.6-2c-8.8,2.8-17.3,2.8-25.9-1c-2.9-1.3-6.3-1.8-9.6-1.9c-2.8-0.1-6.1,0.3-7.6,3.5
			c-3.5,7.3-9.5,10.2-17.2,9.8c-3.6-0.2-7.2-1.1-10.8-1.8C163.7,353.9,163.2,354.3,163.2,357.6z M625,476.6
			c-1.7,0.3-3.1,0.5-4.4,0.8c-2.8,0.6-5.5,1.4-8.3,1.7c-3.3,0.4-4.2,1.5-3,4.7c0.8,2.1,1.7,4.1,2.4,6.3c1.2,4.1,1.2,4.1,5.4,3.3
			c0.9-0.2,1.8-0.3,2.6-0.6c3.9-1.4,7.7-0.9,11,1.4c3.5,2.5,6.8,2.2,10.6,0.9c6.6-2.3,13.3-3.4,20,0c2.9,1.4,5.9,1.3,9-0.2
			c3.8-1.8,8-3.7,12.1-1.8c3.9,1.8,7.1,0.6,10.5-0.7c2-0.8,2.2-2,0.9-3.4c-2.6-2.7-5.1-5.5-7.9-8c-0.9-0.8-2.7-1.3-3.9-1
			c-3.5,0.8-6.7,0.2-10-0.6c-1.8-0.5-4-0.7-5.7-0.2c-4.9,1.6-9.4,2.1-14.1-0.7c-3.1-1.8-6.4-1.7-9.9,0.1c-3.9,2-8.2,2.4-12.3-0.1
			C628.3,477.5,626.4,477.1,625,476.6z M554.9,453.7c-1.3-3.7-2.6-7.6-4-11.4c-0.2-0.5-0.6-1.1-1-1.2c-3.6-0.4-7.4-1.6-10.8-0.8
			c-6,1.3-11.2,0.4-16.7-1.9c-4.9-2.1-9.9-3.3-14.8,0.3c-0.7,0.5-1.8,0.8-2.8,0.9c-4.3,0.4-8.2-0.5-11.9-3
			c-4.1-2.7-8.5-2.2-12.8-0.6c-0.6,0.2-1.3,1.1-1.4,1.8c-0.8,4.7-2.4,8.9-5.1,12.9c-0.2,0.2-0.1,0.6-0.1,1.2
			c1.2-0.2,2.3-0.5,3.3-0.4c2.8,0.2,5.9-0.1,8.3,1.1c4.4,2.1,8.4,2.5,12.9,0.2c4.7-2.4,9.5-2.3,14.4,0.4c3.4,1.9,7,3.2,11.4,1.1
			c3.7-1.7,8.1-2.7,12.3-0.9C542.2,455.9,548.4,455.4,554.9,453.7z M429.5,408.7c-1-1.6-1.6-2.6-2.2-3.6c-3.3-5.5-6.6-6.8-12.5-4.4
			c-4.6,1.9-9,2.6-13.7,0.4c-1.2-0.5-2.7-0.7-3.9-0.5c-4.1,0.5-8.2,0.9-12.1,2.1c-4.9,1.4-9.5,1.6-14.1-0.5c-4.7-2.1-9.4-1.9-14,0
			c-5.7,2.4-11.3,2.5-17.2,0.5c-2.6-0.9-5.6-1-8.4-0.9c-2.6,0.1-5.1,0.8-7.6,1.5c-0.8,0.2-1.8,1.5-1.8,2.3c-0.1,2.5,0.2,5,0.3,7.5
			c0.1,1.6,0.7,2.3,2.4,1.7c4.8-1.8,9.6-1.8,14.6-0.3c2.7,0.8,5.8,1.3,8.6,1c5-0.7,10-2.1,14.9-3.2c5.4-1.2,10.6-1.8,16,0.7
			c4.5,2.1,9.3,2,14-0.4c4.7-2.5,9.6-2.6,14.8-1.3c5.2,1.3,10.6,3,15.4-1.7c0.8-0.7,2.3-0.7,3.6-0.9
			C427.4,408.6,428.1,408.7,429.5,408.7z M869.2,360.3c0.8,1.2,1,1.6,1.3,1.8c3.7,2.4,7.2,5,11.1,6.9c5,2.5,10.1,5.6,15.5,6.3
			c12.5,1.6,25.1,2.4,37.7,2.7c8.1,0.2,16.3-0.4,24.1-3c5-1.6,9.8-3.8,14.5-6c1.8-0.9,2.9-2.7,3-5.4c-3.9-0.3-7.8-1.3-11.3-0.6
			c-6.2,1.2-12.1,1.3-18-0.9c-4.5-1.7-8.7-0.8-12.3,1.6c-4.6,3.2-8.8,2.6-13.6,0.8c-4.8-1.8-10.1-2.1-14.7-0.1
			c-4.1,1.7-8,2.3-12.2,2.2c-2.1,0-4.4,0.2-6.4-0.5c-4.5-1.6-8.8-3.8-13.3-5.5C873.2,360.1,871.5,360.4,869.2,360.3z M440.2,606.6
			c2.8,3.2,5.5,6.1,8,9c0.9,1,1.7,2.1,2.6,3.1c2.4,2.6,3.6,2.9,6.9,1.3c1-0.5,1.9-1,2.9-1.4c5-2.2,9.8-1.9,14.2,1.5
			c3,2.2,6.3,3.4,9.8,2.6c3.1-0.7,6.2-2.1,9.1-3.5c5.4-2.7,10.5-4,15.6,0.6c1,0.9,2.2,1.7,3.4,2.1c1.6,0.6,3.4,1.4,5,1.1
			c4-0.7,7.9-1.8,11.8-2.9c0.3-0.1,0.7-0.6,0.8-1c0.7-2.4,1.4-4.8,1.8-7.3c0.1-0.7-0.7-2.1-1.3-2.3c-2.6-1-5.3-1.2-8,0.3
			c-5.7,3.1-11.8,3.4-17.1,0c-6.8-4.3-13.6-5.2-20.8-1.8c-6.2,3-11.9,2-17.5-1.4c-1.4-0.8-2.8-1.5-4.2-2.3c-2.4-1.3-4.5-1.2-7.1,0
			c-2.6,1.3-5.7,1.9-8.6,2.4C445,607,442.5,606.6,440.2,606.6z M670.4,436.3c-2.8-3.9-5-7.6-7.8-10.7c-2.5-2.6-5.5-4.8-9.9-3.7
			c-1.8,0.5-4.2-0.5-6.1-1.4c-4.8-2.2-9.3-3.5-14.6-0.9c-3.5,1.7-7.4,1.4-10.9-1.3c-1.3-1-3-1.8-4.6-1.9c-4.2-0.3-8.3-0.2-12.5-0.3
			c-1.8,0-2.7,0.9-2.3,2.7c0.7,3.1,1.6,6.2,2.3,9.4c0.5,2,1.5,2.7,3.6,2.4c5.5-0.7,10.7,0.7,15.5,3.1c4.9,2.4,9.7,3,14.6,0.4
			c6.2-3.2,11.5-0.7,16.9,2.3c1.6,0.9,3.6,1.9,5.3,1.8C663.1,438,666.3,437.1,670.4,436.3z M662.8,623.9c0,0.4,0,0.8,0,1.2
			c6.7,1.1,13.4,2,20,3.4c5.2,1.1,10.3,2.9,15.4,4.1c1.6,0.4,3.5,0.6,5,0.1c4.3-1.3,8.4-2.9,13-1c1.6,0.6,3.5,0.3,5.3,0.4
			c3,0.1,5.9-0.1,8.9,0.2c2.3,0.2,4.9,0.5,6.5,1.9c1.8,1.5,2.7,1,4.1,0.1c9.2-5.6,19.1-9.2,29.9-9.7c2.4-0.1,5,0.3,7.3,1.1
			c4.3,1.5,8.5,3.3,12.5,5.3c8.4,4.1,17.1,4.7,26.1,3.3c6.1-1,10.3-5.1,10.7-10.4c-1.2,0.2-2.3,0.2-3.4,0.5
			c-4.2,1.2-8.3,1.1-12.4-0.4c-5.6-2-11.3-1.6-16.8,0.2c-3.4,1.2-6.7,1.2-10,0.5c-2.4-0.5-4.6-1.4-6.9-2c-5.4-1.4-11-1.1-16.1,0.8
			c-3.5,1.3-6.6,1.8-10.1,1.2c-3.2-0.6-6.1-1.1-9.4,0.1c-3.4,1.3-7.1,1.6-10.7,2.1c-0.8,0.1-1.7-0.3-2.6-0.5
			c-3.2-0.8-6.4-2.3-9.6-2.1c-5.4,0.2-10.8,1.1-16.1,2.3c-8.1,1.7-16,2.5-24-0.4c-2.7-1-5.5-1.9-8.3-2.2
			C668.4,623.6,665.6,623.9,662.8,623.9z M607.5,435.2c0.3,0.7,0.4,1.4,0.8,1.8c2.7,2.3,5.5,4.5,8.3,6.6c2.7,2.1,6.2,3.5,7.1,7.2
			c0.6,2.2,1.8,2.6,3.8,2.7c2.7,0.2,5.6,0.5,7.9,1.8c5.8,3.1,11.3,3.6,17.2,0.3c4.5-2.5,9.4-2.4,14.2-0.1c1.2,0.6,2.4,1.2,3.6,1.7
			c2.9,1.2,5.7-0.4,5.4-2.9c-0.2-1.8-0.5-3.5-0.5-5.3c0.2-6.6-5.7-8.1-10.6-7c-2.9,0.6-6.2,0.5-9.1-0.2c-2.4-0.5-4.5-2.6-6.9-3.5
			c-3.5-1.4-7.2-1.8-10.7-0.1c-3.5,1.7-6.9,2.7-10.8,1.1c-2.4-1-5-2-7.5-2.7C615.9,435.6,612,433.7,607.5,435.2z M545.7,434.4
			c-2.1-3.1-3.8-5.6-5.4-8.1c-1.8-2.8-3.2-6.1-7.5-5.3c-0.2,0-0.5-0.2-0.8-0.2c-2.2,0-4.5-0.5-6.5,0c-4.3,1-8.1,0.6-11.8-1.7
			c-2.5-1.6-5.3-2.5-8.4-2.2c-3,0.3-6,1.8-9.2,0c-0.5-0.3-1.5,0.5-2.3,0.5c-3.2,0-6.5,0.5-9.4-0.4c-3.1-1-5.8-1.2-8.7,0.1
			c-1.3,0.6-1.8,1.2-1.2,2.7c1,2.4,1.9,4.8,2.5,7.3c1.1,4.1,1.1,4.3,5.2,2.9c4.3-1.4,8-0.5,11.7,1.8c4,2.4,8.6,4.1,12.7,1.6
			c5.1-3.1,9.8-2.4,14.9-1c2.1,0.6,4.3,1.3,6.3,2.2C533.6,437.3,539.2,433.9,545.7,434.4z M723.9,290.4c1.1-0.3,2.1-0.4,3-0.8
			c3.7-2,7.5-1.9,11.2-0.5c6,2.3,11.4,1.7,17.1-1.2c5.2-2.6,10.7-2.8,16.4-1.2c5.3,1.5,10.5,1.9,15.8-1.2c4.5-2.7,9.5-4.5,15.1-2.9
			c2.1,0.6,4.4,0.2,6.7,0.2c2.8,0,4.9-0.7,4.1-4.3c-0.2-0.7,0.6-1.7,0.7-2.5c0.1-0.6-0.3-1.7-0.6-1.7c-4.7-0.2-9.5-0.8-14.1-0.1
			c-3.6,0.6-7.2,1.4-10.5,0c-4.3-1.8-7.9-1.4-11.4,1.6c-2.2,1.9-4.8,2.9-7.7,1.6c-6.3-2.7-12.1-1.5-18,1.4
			c-3.2,1.6-6.6,2.5-10.5,0.6C733.7,275.6,723.3,281,723.9,290.4z M312.2,388.6c-3.1,1.8-6.1,3.5-9,5.4c-2.2,1.5-4.7,3-6.3,5
			c-2.6,3.3-2.5,7.2-1.4,11.2c1.6,6.2,2.9,12.5,4.1,18.8c1,5.1,11.1,9.2,15.2,6c0.3-0.3,0.7-0.6,0.8-1c0.6-1.7,1.4-3.3,1.7-5
			c1.3-7,0.7-14,0.6-21.1C317.8,400.9,316,394.8,312.2,388.6z M297.6,338.4c-5.9-3.6-12-0.9-18,0c-2.1,0.3-4,1-5.9-0.5
			c-1.7-1.4-3.5-2.6-5.3-3.9c-1.8-1.3-3.6-1.2-5.6-0.3c-2.7,1.1-5.5,2-8.3,2.9c-4.6,1.4-8.5,0.3-11.6-3.4c-1.9-2.3-4.3-2.8-6.9-1.5
			c-6.5,3.3-13.1,3-19.8,1c-2.9-0.8-5.8-2-8.7-2.5c-5.3-1-8.9,2.1-8.7,7.5c0.7,0.1,1.4,0.1,2,0.2c3.7,0.7,7.8,0.9,11.1,2.4
			c8,3.8,15.9,3,23.9,0.5c6.2-1.9,12.2-2,17.8,1.7c6,4,12.4,4.4,19.2,2.5c3.5-1,6.9-1.1,10.5,0.3c3.3,1.2,6.9,1.7,10.4,2.4
			c0.6,0.1,1.8-0.6,1.9-1.1C296.4,344,296.9,341.3,297.6,338.4z M676.8,461.7c-2.6,0-4.5,0.2-6.3-0.2c-2-0.4-3.7-1.7-5.7-2.3
			c-3.6-1.2-7-1.3-10.6,0.5c-5.8,3-11.8,3.9-17.9,0.3c-2-1.2-4.5-1.6-6.8-2.2c-2.4-0.6-3.8,0.3-3.8,2.9c0,2.6-0.9,4.8-2.9,6.6
			c-1.3,1.2-2.1,2.9-3.3,4.6c1,0.2,1.3,0.4,1.6,0.4c3.9-0.4,7.4,0.3,10.8,2.3c2.7,1.5,5.8,1.3,8.5-0.3c4.4-2.5,8.7-2.3,13-0.1
			c2.8,1.4,5.6,2.1,8.8,1c4.2-1.5,8.5-1.7,12.8,0c1.4,0.5,3.2,0.2,4.7,0.1c2.1-0.1,2.1-1,1.3-2.6c-1.1-2.1-1.9-4.3-2.7-6.6
			C677.7,464.6,677.2,463,676.8,461.7z M16.6,247.5c0,3.9-0.1,7-0.1,10.1c0,2.2,1,2.8,3.1,1.8c4.4-2,8.7-2.6,13.7-0.8
			c4.2,1.5,9,1.7,13.2-1.1c3.2-2.2,6.4-2.2,9.9-0.6c4.3,2,8.9,1.9,13.1,0.2c4.1-1.7,7.8-1.4,11.5,0.6c2.8,1.5,5.6,1.1,8.3,0.1
			c1.5-0.5,2.4-1.7,2.1-3.6c-0.4-1.8-0.6-3.7-0.7-5.6c-0.1-1.6-1-1.7-2.3-1.8c-3.2-0.3-6.4-1.1-9.6-1.5c-2-0.2-4.3-0.6-5.9,0.2
			c-5.2,2.8-10.2,2.8-15.3,0c-1.6-0.9-2.9-1-4.5,0.1c-1.1,0.8-2.5,1.4-3.7,2.1c-4.2,2.5-8.5,2.5-12.8,0.4c-3.2-1.5-6.1-2.2-9.7-0.9
			C23.8,248.6,20.4,250.5,16.6,247.5z M12.6,215.6c0.3,0.2,0.5,0.5,0.8,0.7c3.9-3.2,8-2.6,12-0.9c4.8,2,8.7,1.2,12.5-2.2
			c1.9-1.7,5.4-1.3,7.8,0c3.5,1.9,7,4,11,0.4c2-1.8,6.9-1.9,8.3-0.4c1.9,2.1,4.1,1.9,6.4,1.6c2.2-0.3,2.9-1.8,1.6-3.6
			c-2.1-2.9-4.3-5.7-6.5-8.5c-1.7-2.2-3.5-2.5-6.1-1.2c-3.7,2-7.9,2.6-11.6,0.5c-4.5-2.7-8.3-2.9-12.3,0.9c-2.1,2-4.8,1.8-7.2,0.1
			c-1.2-0.9-2.4-1.8-3.5-2.9c-1.3-1.3-2.6-1.9-4.3-1.1c-2.8,1.4-5.7,2.9-8.4,4.4c-0.3,0.2-0.5,0.9-0.5,1.4
			C12.6,208.5,12.6,212,12.6,215.6z M394.3,377.4c0.1-0.2,0.1-0.4,0.2-0.6c-1.3-0.8-2.8-1.5-3.9-2.5c-5.4-4.9-12.6-5.8-18.9-8.8
			c-1-0.5-2.5-0.4-3.7-0.1c-2.1,0.5-4.2,1.1-6.1,2c-6.7,3.1-13.3,4.5-20.2,0.5c-1.6-0.9-4-0.9-5.9-0.6c-3.3,0.5-6.6,1.9-9.9,2.1
			c-2.5,0.1-4.1,0.5-5.2,2.9c-0.7,1.6-2,2.9-3.1,4.3c0.1,0.2,0.3,0.4,0.4,0.6c1.7-0.1,3.3-0.2,5-0.4c3.3-0.5,6.2-0.4,8.9,2.1
			c3.3,3.1,7.9,3.1,11.3,1.2c6.2-3.4,12.2-2.8,18.4-1c5,1.5,9.5,1.5,14.5-0.8c4.9-2.2,10.4-3.6,15.9-1.2
			C392.7,377.4,393.5,377.3,394.3,377.4z M432.4,465.2c-1.4,0.2-2.3,0.3-3.2,0.5c-3.8,0.6-7.7,1.9-11.5,1.8
			c-7.6-0.1-15-1.9-22.1-4.8c-3.9-1.6-7.5-1-9.6,1.5c-2.1,2.4-1.6,4,1.3,5.3c5.2,2.4,10.5,4.7,15.6,7.5c4.2,2.3,8.3,4.9,11.7,8.2
			c2.6,2.4,5.3,4.2,8.5,5.3c4.2,1.4,6.2,0.2,6.8-4.1c0.7-5,1.1-10.1,1.7-15.1C431.6,469.4,432,467.5,432.4,465.2z M19.3,300.3
			c3.7-1.4,6.9-2.6,10.1-3.8c2.3-0.9,4.5-1.1,6.7,0.1c1.8,1,3.7,1.8,5.5,2.7c4.1,2.2,7.9,1.8,11.8-0.8c3.1-2,6.4-3.1,10.2-0.6
			c3.4,2.2,7.3,3,11.4,0.6c3.1-1.8,6.6-2.1,10.1-1c0.6,0.2,1.3,0.4,1.8,0.2c0.7-0.2,1.7-0.6,1.8-1.1c0.7-3.1,1.1-6.2,1.8-10.2
			c-2.5,0.7-4.2,1.1-5.8,1.6c-1.8,0.6-3.7,2.2-5.4,2.1c-4.1-0.3-8.3-0.6-12.1-2.1c-4.3-1.8-7.7-0.8-11.3,1.4c-1.8,1.1-4.1,2.1-6,1.8
			c-4.7-0.9-9.4-2.3-13.9-4c-2.5-0.9-4.6-1-7-0.2c-3.5,1.1-7,2.2-10.9,3.4C18.5,293,18.9,296.3,19.3,300.3z M83.1,225.9
			c-0.1-0.6-0.1-0.9-0.3-1.1c-1.5-2.1-3.3-4-4.6-6.2c-0.9-1.6-1.5-1.5-2.9-0.6c-2.4,1.6-9.1,1.7-10.5,0.1c-2.1-2.6-4.2-1.7-6.3-0.4
			c-4.2,2.5-8.3,2.4-12.4,0.1c-3.3-1.8-4.7-1.9-7.6,0.3c-4,3.1-8.2,3.5-12.8,1.5c-1.8-0.7-3.8-1-5.7-1.1c-3.7-0.2-6.8,3.2-6.4,6.9
			c0.6,5.6,0.6,5.6,5.9,3.8c2.5-0.9,4.6-1.1,7.1,0.5c4.7,3.1,7.3,2.9,11.9-0.5c2.2-1.6,4.4-2.2,7-0.9c4.4,2.2,8.6,1.7,12.9-0.8
			c2.2-1.3,4.7-1.6,7.3,0.2c1.6,1.1,3.9,2.2,5.6,1.9C75.3,228.9,79.1,227.2,83.1,225.9z M85.7,243.3c3.3-0.3,3.9-0.9,3.1-4
			c-0.4-1.5-0.9-2.9-1.3-4.4c-0.8-2.8-4.1-4.8-6.9-4c-1.4,0.4-2.8,0.8-4,1.5c-4.1,2.5-8,1.9-11.8-0.6c-1.5-1-2.7-1.3-4.4-0.4
			c-4.5,2.2-9.3,3.9-14.1,1.6c-2.9-1.4-4.7-0.8-6.9,1c-4,3.2-8.7,3.3-12.8,0.1c-1.7-1.3-3.2-1.5-5-0.9c-1.8,0.6-3.5,1.3-5.2,2.1
			c-0.5,0.2-1.2,0.6-1.2,0.9c0.1,2.1-0.1,4.5,0.8,6.2c0.6,1.1,3,1.5,4.7,1.8c0.9,0.2,1.9-0.5,2.8-0.7c4.3-1.2,8.4-2.7,13,0.3
			c3.1,2,7.1,2.1,10.7-0.3c4.4-3,8.9-4,13.9-0.9c2.3,1.4,5.2,1,8-0.2c3-1.4,6.1-3.1,9.7-1.6C81,241.8,83.4,242.5,85.7,243.3z
			 M91.9,261.3c-4.8,1.9-8.9,2-13.2-0.1c-2.1-1-5.2-0.9-7.5-0.2c-5.1,1.5-10,2.3-15.2,0c-2.2-1-4.8-1.6-7.1,0.3
			c-2.9,2.3-6.2,3-9.8,2.6c-2-0.3-4.1-0.6-6-1.1c-3-0.7-6-1.7-9.2-0.4c-1.8,0.7-3.8,1.1-5.6,1.8c-0.6,0.2-1.4,1-1.4,1.6
			c-0.2,1.9-0.1,3.8-0.1,6.3c1.5-0.6,2.4-0.9,3.3-1.3c4-1.8,7.6-3.5,11.5,0.8c2.9,3.2,8.6,3.2,12.3,0.1c2.6-2.2,5.5-2.1,8.3-0.7
			c3.8,1.8,7.4,2.1,11.3,0.3c4.5-2,9.1-3,13.9-0.8c1.1,0.5,2.7,0.6,4,0.4c3.6-0.5,7.2-1.2,11.1-2C92.2,266.6,92,264.2,91.9,261.3z
			 M76.2,154.8c0-2.2,0-4.1,0.1-6c0.2-4-0.6-5.2-4.7-5.4c-1.8-0.1-3.7,0.4-5.4,0.9c-3.3,1.1-6.5,1.6-9.5-0.5
			c-2.2-1.6-4.2-2.3-6.9-1.3c-4,1.5-8.1,2.2-11.8-1.2c-2.5-2.3-4.7-1.3-7,0.6c-3.3,2.6-5.8,2.6-9.2,0.4c-4.7-3-5.2-3-10.2,0.6
			c-3.6,2.5-4.2,4.2-3.1,8.9c0.2,0.1,0.3,0.2,0.5,0.1c0.3,0,0.7-0.1,1-0.3c4.4-2.4,8.5-2.5,12.7,0.6c3,2.2,6.4,2.6,9.7,0.1
			c2.6-2,5.6-2.2,8.7-2.1c3.3,0.2,6.7,0.6,10,0.7c3.7,0.1,6.6,1.8,9.5,3.9c0.6,0.5,1.9,0.6,2.7,0.3c3.5-1.5,7-2.8,10.8-0.8
			C74.6,154.8,75.4,154.7,76.2,154.8z M442.7,355.9c4.6,8.2,8.3,9.5,14.8,8.2c2.3-0.5,4.6-1.4,6.9-2.2c4.7-1.8,9.4-2.2,13.8,0.8
			c3.2,2.2,6.5,2.4,10,1.2c1.9-0.6,3.7-1.9,5.7-2.2c5.1-0.7,10.3-1.1,15.4-1.6c1-0.1,2,0,3.5,0c-3-4.2-5.5-7.7-8.1-11.3
			c-0.1,0.4-0.2,0.7-0.3,1.1c-1.8,0.3-3.5,0.7-5.3,1c-1.6,0.3-3.3,0.5-4.9,0.9c-2.5,0.7-4.9,2-7.5,0.7c-5.3-2.8-10.6-1.8-15.6,0.5
			c-5.8,2.6-11.7,4.4-17.7,1.2C449.1,352.1,446.2,354.8,442.7,355.9z M812.4,268.4c0.1-0.5,0.3-1.1,0.4-1.6c-2.2-1-4.3-2.2-6.7-2.8
			c-3.7-1-7.5-1.3-11.2-2.4c-3.6-1.1-6.5-0.5-9.6,1.6c-3.7,2.5-7.7,2.9-11.9,0.9c-3.9-1.8-8-3.2-12.3-0.8
			c-5.3,2.9-10.8,2.2-16.3,0.2c-3.3-1.2-6.1-0.5-8.6,2c-1,1-2.2,1.8-3.5,2.3c-3.6,1.4-5.6,4.3-4.9,7.7c0.8-0.3,1.5-0.5,2.2-0.8
			c3.4-1.8,6.8-2.1,10.2-0.2c4.2,2.4,8,1.1,11.8-1.2c4.7-2.8,9.9-4,15-1.5c3.8,1.9,6.7,0.7,9.6-1.6c3.5-2.8,7.1-3.3,11.4-1.3
			c2.4,1.1,5.8,1.7,8.2,0.9c3.3-1.1,6.3-1.5,9.6-1.3C808.2,268.4,810.3,268.4,812.4,268.4z M34.7,110.4c4.5,4.5,11.2,4.5,15.7,2.8
			c2.6-1,5.5-2.2,8.1-1.9c2.7,0.2,5.2,2.1,7.7,3.3c2.8,1.3,5.3,1.6,8.3,0c4-2.1,8.4-3.1,12.7-0.3c3.3,2.1,6.8,2.3,10.5,1.6
			c2.6-0.4,5.1-1.1,7.9-0.3c3.3,1,6.8,1.6,10.2,1.5c3.4-0.1,6.8-1.3,10.1-2.2c1.1-0.3,2-1,3-1.5c-0.9-0.8-1.8-0.9-2.6-1.1
			c-1.7-0.4-3.7-0.4-5.2-1.2c-2-1.2-3.9-1.2-6.1-1.1c-2.8,0.1-5.9,0.1-8.4-0.9c-3.3-1.3-6.1-1-9.2,0.4c-3,1.4-6.2,1.3-8.8-1.2
			c-2.9-2.9-6.2-2.1-9.4-1.3c-2.4,0.5-4.8,1.4-7.2,1.9c-2.8,0.6-5.4-0.2-7-2.3c-2.7-3.5-6-3.6-9.8-2.7c-2.9,0.7-5.9,2.2-8.8,2
			C41.5,105.4,38.7,108.9,34.7,110.4z M91.6,278c0.3-4.2-0.3-4.7-4.5-3.7c-1.1,0.3-2.2,0.8-3.4,0.9c-2.1,0.1-4.4,0.5-6.3-0.1
			c-3.7-1.4-7.1-1.3-10.7-0.2c-3.4,1-6.6,2.9-10.4,2c-1.9-0.5-3.8-1-5.6-1.7c-2-0.9-3.5-0.2-5.3,0.7c-1.9,1-4,1.9-6.1,2.4
			c-4.3,1-7.3-1.9-10.7-3.9c-1.2-0.7-2.9-0.6-4.4-0.5c-0.8,0-1.6,0.8-2.4,1.1c-4.7,2-4.6,2-4.5,7.1c0,2.2,1.1,2.8,2.8,2.3
			c2.4-0.6,4.7-1.7,7.2-2.1c2.4-0.5,5-1,7.3-0.5c3.5,0.8,7,2.1,10.3,3.6c3.7,1.7,6.7,1.1,10-1c3.7-2.3,7.7-3.3,12.2-1.1
			c5.1,2.4,10.5,3.1,16,0.6c2.1-1,4.6-1.1,6.9-1.8c0.6-0.2,1.3-0.9,1.5-1.5C91.8,279.8,91.6,278.9,91.6,278z M20.6,312.1
			c0.9-0.2,1.4-0.2,1.8-0.4c5.9-2.4,11.7-2,17.5,0.3c2,0.8,4,2,6,1.8c3.2-0.2,6.5-1,9.5-2.2c3.7-1.4,7.2-3,11.3-1.1
			c2.6,1.2,5.3,2.1,7.9,3.3c5.8,2.5,8.9,1.1,10.6-5c0-0.2,0.1-0.4,0.1-0.5c2-6.2,0.7-7.7-5.7-6.8c-0.9,0.1-1.9,0.6-2.7,1.1
			c-2.7,1.4-5.4,2.4-8.4,1.4c-1.6-0.5-3.4-0.8-4.8-1.7c-3-2-5.8-1.4-8.5,0.4c-4.8,3.4-9.8,3.2-14.6,0.3c-4.9-2.9-9.6-3.1-14.5-0.2
			c-1.9,1.1-4,1.6-6.2-0.2C20,305.7,20.3,308.8,20.6,312.1z M502.2,346.7c-2.1-4.2-4.4-7.4-8.4-9.5c-4-2.2-7.8-2.4-11.2,0.5
			c-3.3,2.7-6.7,3-10.5,1.4c-2.7-1.1-5.5-1-8,0.6c-6.8,4.1-13.8,5.1-21.2,1.5c-3.2-1.6-5.6,1-8.2,2c-0.2,0.1-0.4,1-0.3,1.4
			c0.7,4.6,5.3,7.7,9.5,6c4.2-1.6,8.1-2.3,12,0.5c0.3,0.2,0.9,0.2,1.3,0.3c4.6,1.2,8.6-0.6,12.6-2.3c5.1-2.1,10.2-3.6,15.8-1
			c1.8,0.8,4.6,1.3,6,0.4C495,346.5,498.3,346.3,502.2,346.7z M307,328.1c-4.2-1.3-8.2-2.7-12.3-3.6c-2.2-0.5-4.7-0.2-7,0.1
			c-3.5,0.4-6.9,3-10.6,1.1c-5.5-2.7-10.8-3.3-16.7-0.9c-7.6,3.1-15.4,0.4-23-0.8c-8.1-1.3-16.1-3.4-24.4-1.2
			c-1.5,0.4-2.9,1.1-4.4,1.6c0,0.3,0.1,0.6,0.1,0.9c1.4,0.5,2.8,1,4.1,1.5c7.3,2.6,14.5,4,21.9-0.2c3.6-2.1,6.4-0.9,9.6,2.2
			c1.2,1.2,2.8,3.1,4.2,3c4.1-0.2,8.4-0.7,12.2-2.1c3.6-1.3,6.6-1.8,9.7,0.7c1,0.8,1.8,1.7,2.9,2.4c0.8,0.6,1.7,1.3,2.6,1.3
			c3.3-0.2,6.7-0.2,9.8-1.2c3.9-1.2,7.3-1.3,11.1,0.2C301.5,335,305.5,335.1,307,328.1z M617.6,407.7c0.5,1.6,0.6,3,1.3,3.9
			c3,3.9,8.5,5.1,12.8,2.8c4.2-2.3,8.3-1.9,12.6-0.1c2.6,1.1,5.3,2,8.1,2.4c1.3,0.2,3.6-0.8,4-1.8c1.8-4.8,4-9.3,8.4-13.2
			c-2.6-0.7-4.8-1.6-7-1.9c-2.3-0.3-4.9-0.7-7,0.1c-4.4,1.5-8.8,1.2-12.5-0.9c-3.9-2.1-7.1-2-10.9-0.5c-1.8,0.7-2.4,1.3-1.9,3.3
			c0.9,3.5-1.5,6.1-5.1,5.9C619.6,407.8,618.9,407.8,617.6,407.7z M8.7,138.7c8.3-3.5,8.3-3.5,13-0.6c3.3,2,4.9,1.9,8-0.5
			c4-3.1,4.2-3.2,8.3-0.3c3,2.1,5.9,2.9,9.5,1.3c3.3-1.5,6.5-1.2,9.6,1.1c1.4,1,4.1,1.9,5.4,1.2c3.5-1.6,6.8-2.4,10.6-1.4
			c0.6,0.1,2-0.7,2-1.3c0.2-2.3,0.2-4.7,0.2-7.3c-4.5,1.4-7.8,0.4-11-1.8c-0.8-0.5-2-0.7-2.9-0.5c-2.2,0.5-4.5,1.3-6.6,2.2
			c-3.9,1.7-7.2,1-10.2-2c-1.2-1.3-2.6-1.7-4.3-0.9c-2.2,1.1-4.6,1.8-6.9,2.8c-4.3,1.9-8.7,1.1-12-2.2c-3-3-5.2-3.3-8.9-1.4
			c-1.4,0.7-3.4,1.6-3.6,2.7C8.4,132.7,8.8,135.5,8.7,138.7z M62.5,513.7c2.6,2.8,5.5,2.4,8.2,1.5c4.2-1.3,8.1-1.2,12.3,0.4
			c3.6,1.4,7.4,2.3,11.5,1c2-0.6,4.5-0.5,6.7-0.2c4.8,0.7,9.6,1.6,14.4,2.6c2.8,0.6,5-0.1,7.3-1.7c1.7-1.1,3.5-2,5.4-2.8
			c2.8-1.2,5.6-2.3,8.2-3.4c-3.2-1.4-6-2.7-8.9-4c-0.5-0.2-1-0.3-1.6-0.4c-4.3-0.2-8.8-0.2-12.6,1.8c-3.8,2-7.1,1-10.1-1
			c-4-2.7-7.9-2.6-11.9-0.7c-3.6,1.7-7.1,1.4-10.7,0.2c-0.9-0.3-2-0.2-2.9,0.2c-4.5,1.7-8.9,3.5-13.4,5.3
			C63.9,513,63.3,513.3,62.5,513.7z M10.4,122.6c0.2,0.2,0.4,0.5,0.5,0.7c1-0.3,2-0.4,3-0.8c3.1-1.3,5.7-0.5,7.8,1.8
			c3.3,3.6,6.5,4.6,12.8,1.4c4.3-2.2,8.7-4.2,12.7,0.9c0.6,0.7,2.4,0.9,3.5,0.6c3.6-0.8,7.1-1.7,10.6-2.8c1.7-0.5,3-0.6,4.3,0.9
			c0.7,0.8,1.8,1.4,2.9,1.8c3.6,1.2,6.8-0.1,9-4.1c1.5-2.6,3.3-4.1,6.4-3.6c1.2,0.2,2.5-0.1,4.2-0.1c-3.5-2.9-7.8-3.1-11.6-0.9
			c-3.9,2.3-7.8,2.1-11.6-0.3c-3.8-2.4-7.4-3.4-12-1.2c-4.3,2-9.1,3.3-13.9,0.6c-5.6-3.2-11.3-3.9-17.3-0.8c-2.1,1.1-4.8,3-7.5,0
			C12.8,118.8,11.6,120.7,10.4,122.6z M743.1,640.9c1.1,0.2,1.6,0.4,2.2,0.4c6.7,0.4,13.4,0.8,20.1,1.1c11.1,0.6,22.2,1.2,33.2,1.9
			c4.2,0.3,8.3,1.3,12.5,1.7c1.2,0.1,2.8-0.2,3.5-0.9c1-1.1,1.2-2.8,1.9-4.6c-2.8,0.2-5.3,0.6-7.9,0.6c-9.2-0.1-17.6-3.5-25.7-7.4
			c-4.2-2-8.3-3.9-13.1-2.9c-4.7,1-9.5,1.7-14.1,3.2C751.3,635.4,747,637.2,743.1,640.9z M799.4,246.5c-4-2.7-7.1-0.6-9.9,1.3
			c-4.7,3.1-9.5,3.9-14.7,1.6c-3.1-1.4-6-1.4-9.2,0.2c-5,2.6-10.6,2.3-15.3-0.1c-5.9-3-12.3,2.2-13.2,7.9c3.6,0.8,7.2,1.7,10.8,2.3
			c3.4,0.5,6.9,0.9,10.2-0.9c3-1.6,6.3-2.7,9.8-1.9c2.2,0.5,4.3,1.6,6.5,2.4c2.9,1,6,1.4,8.4-0.5c3.2-2.5,6.7-3.6,10.7-3
			c0.5,0.1,1-0.1,2-0.2C794.2,251.4,797,249,799.4,246.5z M458,626.2c0.9,0.8,1.7,1.8,2.8,2.3c3.6,1.8,7.3,3.4,10.8,5.3
			c3.8,2.1,7.2,2,11.1,0c2-1,4.8-1.1,7.2-0.8c5.1,0.5,10.1,1.5,15.1,0c6.2-1.8,12.4-3.3,18.8-0.3c1.8,0.8,4,0.7,6.1,0.9
			c1.5,0.1,2.5-0.5,1.8-2.3c-0.2-0.6-0.4-1.2-0.5-1.8c-0.7-3.4-1.9-4-5.2-2.7c-5.7,2.3-11.2,3.5-16.3-1.5c-0.9-0.9-2-1.5-3.2-2
			c-1.4-0.6-3.1-1.6-4.5-1.3c-2.9,0.7-5.8,1.8-8.4,3.2c-6.6,3.5-12.8,4.3-19.3-0.3C469.2,621.4,462.6,622,458,626.2z M459.3,368.2
			c0,0.4,0,0.8,0,1.3c3.4,1.6,6.8,3.2,10.3,4.7c2.5,1.1,5.1,2.4,8,1.6c2.6-0.8,5.1-1.6,7.6-2.5c4.5-1.6,9-3.3,13.5-0.1
			c3.2,2.3,6.7,1.9,10,0.6c3.4-1.4,6.8-2.6,10.6-2.4c2,0.1,2.4-1,1.2-2.5c-1.7-2.1-3.7-4.1-5-5.5c-2.4,0.4-4.2,0.9-6,0.9
			c-6,0.3-11.9,0.2-17.7,2.4c-5.2,2-10.4,2.3-15.5-0.7c-1.6-0.9-3.8-1.8-5.4-1.5C467,365.4,463.2,367,459.3,368.2z M338.3,324
			c0.2-0.3,0.3-0.5,0.5-0.8c-0.9-1.9-1.6-3.9-2.6-5.8c-1.7-3.4-3-3.8-6.4-2.2c-0.7,0.3-1.4,0.7-2.2,1c-5.3,2.3-10.2,1.8-15-1.4
			c-1-0.7-2.5-1.3-3.6-1.2c-2.1,0.2-4.2,0.8-6.2,1.5c-6.6,2.2-13,2.9-19.3-0.8c-3.2-1.8-10.3-0.5-12.5,2.2c-0.3,0.4-0.3,1.8,0,1.9
			c4.5,2.8,9.2,4.4,14.7,2.8c3-0.9,6.3-1.3,9.3-1.1c3.3,0.3,6.6,1.6,9.8,2.4c1.1,0.3,2.6,0,3.3,0.6c1.8,1.4,3.5,1,5.3,0.2
			c2.3-1,4.8-1,6.6,0.7c1.8,1.7,3.5,1.6,5.4,0.9C329.4,323.4,333.5,321.1,338.3,324z M621.5,395c1-0.3,1.9-0.4,2.7-0.7
			c4.7-1.8,9.1-2.8,14,0.3c3.4,2.1,7.6,2.1,11.7,0.3c1.6-0.7,3.7-0.9,5.4-0.6c3.7,0.7,7.2,2.3,10.9,2.8c4.4,0.7,9.1,1.6,13.2,0.6
			c4.7-1.1,9.3-0.5,13.9-0.9c3.6-0.3,7.4,1.5,11.1,1.2c4.7-0.3,9.3-1.6,13.8-2.7c1.3-0.3,2.6-1.1,4.3-1.8c-3.7-0.6-6.8-1.1-9.9-1.6
			c-2.4-0.4-4.7-1-7.1-1.3c-3.1-0.4-6.2-0.3-9.3-0.9c-2.7-0.5-5.2-0.3-7.4,1.4c-3.7,2.9-8.2,2.7-12.3,2.8
			c-6.6,0.2-13.1-0.9-19.7-1.5c-3-0.3-6-0.6-9-1c-2.4-0.3-4.8-0.4-7.2-0.8c-4.6-0.7-9.2-1.6-13.8-2.2
			C622.5,388.1,620.5,390.3,621.5,395z M42.8,525.9c0.1,0.5,0.2,0.9,0.2,1.4c2.5-0.3,5.2,0.1,7.3-0.9c5-2.3,9.8-2.3,14.8-0.2
			c2.9,1.2,5.9,1.1,8.9,0.3c2.6-0.7,5.1-0.9,7.7,0.5c1.8,1,4.4,1.6,6.4,1.2c5.8-1.2,11.6-0.8,17.4-0.4c3.1,0.2,5-1.6,7.5-3.6
			c-1.2-0.5-1.9-0.8-2.7-1c-2.4-0.6-4.8-1.1-7.3-1.6c-1.8-0.4-3.8-1.1-5.5-0.7c-5.3,1.3-10.2,0.5-15.3-1c-2.6-0.8-5.8-1.1-8.3-0.4
			c-4.8,1.4-9.1,0.9-13.5-1c-2.1-0.9-4-0.5-5.8,0.6C50.8,521.3,46.8,523.6,42.8,525.9z M208.2,14c-0.4-0.2-0.6-0.4-0.7-0.4
			c-11.5-0.2-23.1-0.5-34.6-0.7c-11.6-0.2-23.3-0.2-34.9-0.3c-3.1,0-5.4,2.1-6.2,5.4c2.3,1.4,3.4-0.8,4.8-1.7c2.3-1.6,4.5-3.5,7.5-2
			c2.3,1.2,4.5,2.5,6.5,4.2c4.2,3.6,6.6,3.8,10.7,0c4.2-3.8,9.5-4.8,13.9,1.2c2.7,3.8,6.7,3.7,9.7,0.2c2.8-3.3,5.5-3.7,9.4-1.6
			c2.3,1.3,4.8,2.5,7.3,3.2c1.2,0.4,3.4,0,4-0.9C206.8,18.8,207.3,16.4,208.2,14z M839.4,279.5c0.1,0.3,0.2,0.5,0.3,0.8
			c1.3-0.3,2.5-0.7,3.8-0.9c1.2-0.2,2.5-0.4,3.7-0.2c2.8,0.6,5.5,1.7,8.2,2.4c5,1.1,10,2.3,14.6-1.1c2.3-1.7,4.7-1.4,7.2-0.5
			c1.6,0.6,3.1,1.4,4.7,1.9c3.7,1.3,7.3,2.4,11.1,0.2c2.7-1.6,5.6-2.3,8.7-1.1c0.7,0.3,1.6,0.1,2.4,0.1c-1-1.6-2.1-3.2-3.5-3.5
			c-5.4-1.3-10.6-3.8-16.4-2.5c-6.2,1.4-12.2,0.9-18-2c-1.5-0.7-3.5-0.9-5.2-0.7c-4.3,0.5-8.7,2.1-13,1.9
			C843.5,274.1,841.9,277.1,839.4,279.5z M793.2,512.2c-3-5.4-6.1-7-11.6-5.5c-5.3,1.4-10.3,1.9-15.2-1.4c-1-0.7-2.4-0.9-3.6-0.9
			c-4.3,0-8.4-0.3-11.4,4.1c-1.7,2.5-4.5,4.1-7.2,6.3c2.2,0.7,4.1,1,5.9,1.8c2.2,1,4.2,1,6.4,0c1.5-0.7,3.4-0.6,5.2-0.7
			c3.6-0.2,7.6,1.7,10.9-1.1c2.8-2.5,5.8-2.5,9.3-1.6C785.6,514.3,789.5,514.3,793.2,512.2z M428.4,334.4c0.8,4.1,2.3,5,5.9,3.8
			c1.1-0.4,2.2-1.1,3.3-1.2c2.3-0.1,4.9-0.7,6.7,0.2c6.3,3.2,12,2.2,17.8-1.1c3.1-1.8,6.5-3.1,10.4-1.3c2.7,1.3,5.6,1.7,8.1-1
			c1.5-1.6,1.6-2.5-0.6-3.2c-3.7-1.2-7.5-2.5-11.3-3.1c-4.9-0.8-9.7-1.4-14.1,2.4c-3.1,2.7-7.2,2.7-11.2,1.2
			c-1.3-0.5-3.1-0.7-4.4-0.4C435.3,331.8,431.9,333.2,428.4,334.4z M368.2,359.7c-2.7-1.9-4.7-3.5-7-4.9c-3.2-2-6.4-1.7-9.9-0.3
			c-2.9,1.1-6.2,1.8-9.3,1.8c-2.6,0-5.2-1.8-7.7-1.7c-3.6,0.2-7.5,1-10.7,2.7c-1.2,0.6-0.8,4.2-1.1,6.5c0,0.2,0.1,0.3,0.3,0.9
			c1.5-0.1,3.4,0.2,4.8-0.4c6.6-2.6,12.7-2.3,19.4,0.4C354.3,367.4,360.8,362.5,368.2,359.7z M745.4,242.7c1.7,0.6,3.2,0.9,4.5,1.5
			c5,2,9.9,2.9,14.9,0.1c3.1-1.7,6.2-2.4,9.6-0.4c3.7,2.2,7.6,2.5,11.5,0.3c1.2-0.7,2.2-1.8,3.5-2.4c3-1.2,5.9-3,9.6-1.1
			c1.3,0.7,3.6-0.5,5.5-1c1.6-0.4,3.1-0.8,4.7-1.3c0.6-0.2,1.2-0.7,1.7-1c-0.5-0.5-0.8-1.4-1.4-1.5c-0.8-0.2-1.7,0.1-2.6,0.1
			c-3,0.1-6.2,0.7-9,0c-3.6-0.8-6.7-0.4-9.8,1.2c-4.3,2.1-8.4,2.9-12.5-0.3c-0.4-0.3-1.5-0.2-2.1,0c-3,0.9-5.9,2-8.9,2.8
			c-3,0.7-5.6,0-7.7-2.5c-1.8-2.1-5.6-2.1-7.4-0.1C748,238.8,746.9,240.6,745.4,242.7z M482.7,379.3c0,0.3,0,0.5,0,0.8
			c4.6,2.6,8.5,6.8,14.6,5.7c1.1-0.2,2.3-0.2,3.4-0.6c4.6-1.5,8.6-0.4,12.8,1.8c2.9,1.6,6.2,2.4,9.5,0.8c1.3-0.6,3.1-1.1,2.3-2.9
			c-1.2-2.9,0.9-7.6-3.2-8.5c-3.4-0.7-7.5,0-10.9,1.1c-4.7,1.5-9.2,2.4-13.6-0.4c-2.3-1.5-4.7-1.7-7.2-0.8
			C487.7,377,485.2,378.2,482.7,379.3z M203.3,37.5c-0.2-0.3-0.5-0.6-0.7-1c-0.6,0.1-1.2,0.1-1.7,0.4c-4.2,2.3-7.9,1.8-11.4-1.7
			c-2.1-2.1-4.5-2.4-7.3-0.6c-4.7,3-9.7,3.5-14.3,0.2c-2.6-1.9-5.3-1.9-8.1-1.5c-0.8,0.1-2,0.7-2.1,1.3c-0.8,2.9-1.3,5.8-1.9,9.1
			c2-0.7,3.5-1.2,5-1.8c1.9-0.8,3.3-0.7,5.1,0.7c5.3,4.1,6.5,4.4,11.6,1c3.1-2,6.3-1.6,9.2,0.7c1.3,1.1,2.6,1.7,4.3,0.7
			c1.7-0.9,3.9-1.1,5.5-2.1C198.8,41.3,201,39.3,203.3,37.5z M276.8,308.1c3.3,1.1,6.1,2.1,9,2.9c1.7,0.5,3.5,0.8,5.2,1.2
			c4.8,1,9.1-1.4,13.5-2.5c3.2-0.8,6.1-0.9,9,0.9c5,3.1,10,2.9,14.9-0.1c0.9-0.5,2-2.2,1.8-2.5c-1-1.6-1.6-4.3-4.4-3.2
			c-5.8,2.3-10.6,0.5-15.2-3c-1.5-1.1-2.9-1.2-4.4-0.2c-1,0.6-2,1.2-3,1.8c-3.9,2.6-7.7,2.8-11.7,0.1c-0.4-0.3-1-0.7-1.4-0.7
			C285.3,303.5,280.8,305,276.8,308.1z M155.9,26.7c0.6,0.6,0,3.3,2.6,2.4c4-1.4,7.2-0.1,10.6,1.9c3.2,1.9,6.8,2.1,10.2,0.1
			c5.6-3.3,7-3.3,11.8,1c1.8,1.7,3.8,2,6,1.4c2.2-0.6,4.4-1.4,6.5-2.4c0.6-0.3,1.1-1.5,1.1-2.3c0-0.8-0.6-1.9-1.2-2.2
			c-3-1.5-6.2-2.7-9.2-4.2c-3.6-1.8-5.2-1.5-7.7,1.9c-1.3,1.8-3,2.6-5.2,2.7c-3.5,0.3-5.6-1.5-7.7-4c-3.2-3.8-5.6-3.9-9.6-1
			C161.5,23.8,158.8,25,155.9,26.7z M188.1,59.5c-0.8,0.4-1.2,0.5-1.6,0.8c-3.1,2-5.8,2.2-8.6-0.1c-2.4-2-4.7-1.6-7.1-0.6
			c-0.9,0.4-1.8,0.8-2.6,1.3c-4,2.7-7.3,2.4-10.8-1.1c-1.5-1.5-3.1-1.5-5.1-1.4c-2.7,0.2-5.3,2.5-8.1,0.3c-0.2-0.2-1,0.1-1.2,0.4
			c-1.4,2-2.7,3.9-3.9,6c-0.2,0.5,0.2,1.6,0.6,2c0.5,0.5,1.5,0.8,2.1,0.6c1.8-0.4,3.6-0.8,5.3-1.5c4.4-1.8,8.4-1.1,12.2,1.5
			c2.9,1.9,5.5,2,8.4-0.1c2.6-1.8,5.3-2.3,8.1,0c2.5,2,5.6,1.9,8,0.3C186.6,66.2,187.7,63.2,188.1,59.5z M315.5,342.6
			c-0.7,0.5,0.3-10.3-3.1-11.2c-1-0.3-4.2,8.3-4.6,8.5c-1.7,1.1-3.7,2.3-4.7,4c-1.2,2-1.8,4.5-2.2,6.8c-0.9,5.4-0.7,10.8,2.8,15.3
			c1.5,1.9,3.4,3.7,5.4,5.2c0.8,0.7,2.1,0.7,2.7-1c0.3-0.9,1.4-1.5,2.1-2.2c0.4-0.4,1-0.8,1.1-1.2c0.4-2.6,0.9-5.2,0.8-7.7
			C315.4,353.4,316.2,348.3,315.5,342.6z M84.8,100.5c0.1,0.3,0.2,0.5,0.3,0.8c1.6,1.1,3.2,2.4,5,3.3c1.4,0.7,3,1.3,4.5,1.1
			c1.9-0.2,3.7-1.3,5.5-1.9c2.1-0.6,3.9-0.9,6.1,0.4c1.8,1.1,4.4,1.7,6.4,1.4c3.6-0.5,6.7-0.3,10,1.3c6.3,3,12.8,0,19.2-0.1
			c0.7,0,1.5-1.5,2-2.5c0.1-0.2-0.6-1.3-1.1-1.4c-3.8-1.2-7.7-2.7-11.7-0.7c-2.8,1.3-5.5,1.3-8.2-0.1c-1.8-0.9-3.6-1.9-5.5-2.7
			c-1.3-0.5-2.9-1.5-3.9-1.1c-4.5,1.8-9.1,0.3-13.6,0.8C94.8,99.7,89.8,100,84.8,100.5z M191.5,51c-2.1-1.1-4.1-1.7-5.7-3
			c-2.5-2-4.7-1.4-7.1,0c-5.4,3.2-8.2,3.2-12.9-0.8c-2-1.7-3.7-1.4-5.6-0.6c-2.1,0.8-4.1,2-6.2,2.4c-3,0.5-3.5,2.7-4.9,5
			c1.1,0,1.7,0.1,2.4,0c2.5-0.2,4.8-0.3,6.9,1.7c3.2,3.1,4.3,2.9,8.2,0.8c4.1-2.3,8.3-4.3,12.6,0.1c1.4,1.5,3.3,1.4,5-0.2
			c1-0.9,2.5-1.7,3.8-1.8C190.6,54.4,191.5,53.2,191.5,51z M13.4,198.1c1.3-0.6,2.3-1.1,3.2-1.6c5.3-2.6,7.3-4,11.6,1.2
			c1.8,2.1,4,2.3,6.3,1.2c0.9-0.4,1.6-1.1,2.4-1.7c3.7-3,5.4-3.2,9.3-0.8c3.5,2.2,7.1,2.9,11.6,1.2c-1.7-0.9-2.9-1.7-4.3-2.2
			c-3.7-1.3-7.3-3.1-11.1-3.4c-6.4-0.6-12.4-1.5-17.3-6c-0.3-0.3-0.7-0.5-1.1-0.8c-1.7-1-9.5,1.2-10.4,2.9c-0.1,0.2-0.1,0.3-0.1,0.5
			C13.5,191.6,13.5,194.6,13.4,198.1z M762.1,367.6c-0.1-0.3-0.1-0.6-0.2-0.8c-1.5-0.7-3.1-1.3-4.6-2.2c-4.4-2.6-6.4-2.3-10.4,0.6
			c-3.3,2.4-7.2,3.7-11.1,1.7c-4.1-2.1-8.2-2.3-12.4-0.9c-1.8,0.6-2.2,1.7-1.9,3.5c0.4,3.6,3.6,4.1,5.8,5.6c1.8,1.3,3.7,1.1,5.8,0.1
			c2-0.9,4.1-1.6,6.3-1.9c4.6-0.8,9.2-1.2,13.7-2.2C756.2,370.4,759.1,368.8,762.1,367.6z M436.6,296c0.1-0.3,0.1-0.5,0.2-0.8
			c-3.3-1.9-5.1-6.3-9.9-5.5c-0.4,0.1-0.9-0.2-1.2-0.5c-4.5-3.8-9.1-2.5-13.4-0.1c-4.4,2.5-8.5,4.6-13.6,1.7
			c-2.5-1.5-5.5-1.6-8.3-0.1c-0.5,0.3-1.4,1.2-1.3,1.3c1.3,1.9,2.4,4,4.1,5.5c0.6,0.5,2.8-0.4,4-1.1c2.8-1.4,5.7-1.7,8.2-0.1
			c4,2.5,7.6,2.2,11.6,0.2c5.8-2.9,11.8-4,17.9-0.7C435.4,296.1,436.1,295.9,436.6,296z M321.7,351.6c1.7-0.4,3.2-0.6,4.6-1.1
			c4.4-1.6,8.6-1.7,13,0.2c5,2.2,9.4-0.2,13.8-2.6c-2.3-4.4-4.4-5.7-8.8-6.2c-1.7-0.2-3.5-0.7-5.1-1.3c-3.2-1.3-6.3-1.8-9.5-0.3
			c-1.4,0.6-2.8,1.1-4.3,1.5c-3.9,1.1-4.8,2.3-4.3,6.3C321.1,349.2,321.4,350.1,321.7,351.6z M445,304.5c-1.5-3.1-2.4-3.5-5.4-3.5
			c-1.8,0-4,0.2-5.5-0.7c-5.1-2.9-10-2.2-14.9,0.2c-5,2.5-9.8,3.8-14.8,0.1c-2.2-1.6-4.5-0.4-6.5,0.7c-0.5,0.2-0.7,1.8-0.4,2.3
			c2.1,3.9,3.7,4.5,8,3.4c0.9-0.2,1.7-0.7,2.6-0.8c4,0,8.2-0.8,11.9,0.3c5,1.5,9.4,1.8,14.2-0.4c2.5-1.1,5.5-1.2,8.2-1.7
			C443.1,304.3,443.9,304.5,445,304.5z M460.5,322.2c0-0.4,0.1-0.7,0.1-1.1c-1.5-0.5-2.9-1.2-4.4-1.5c-1.2-0.3-2.8,0.2-3.8-0.4
			c-2.5-1.5-4.8-0.8-7.1,0.1c-1.9,0.7-3.7,1.7-5.6,2.5c-2.6,1.1-5.2,1.5-8.1,0.5c-4.4-1.5-8.9-1.5-13.4-0.2c0.9,5,5.7,8.4,10.4,7.3
			c0.7-0.2,1.4-0.3,2-0.6c5.3-2.4,10.6-3.6,16.3-1.1c0.6,0.3,1.7,0.1,2.3-0.2C453.1,325.9,456.8,324,460.5,322.2z M451.2,312.6
			c-0.5-0.4-1-1.2-1.7-1.5c-5.4-1.9-10.7-3.1-16.1,0.2c-3.3,2-7.2,2.2-10.8,0.5c-3.7-1.8-7.5-1.5-11.3-1.3c-1.7,0.1-3.3,0.8-5.8,1.5
			c2,1.8,3.2,3.1,4.6,4.2c2.1,1.7,4.1,2.3,7,1.3c4.6-1.6,9.6-1.5,14.2,0.1c2.7,0.9,5,0.9,7.5-0.1
			C442.6,315.9,446.7,314.4,451.2,312.6z M497.7,390.5c2.3,2.7,4.5,5,6.4,7.6c1,1.4,2,1.7,3.6,1.4c3.5-0.8,7-1.2,10.3,0.9
			c0.9,0.6,2,0.8,3,1c3.8,1,5.8-0.9,5.3-4.6c-0.1-0.8-0.3-1.6-0.2-2.4c0.1-1.9-0.7-2.4-2.6-2.1c-3.9,0.7-8,1.1-11.4-1.3
			C507.4,387.7,502.8,389.2,497.7,390.5z M420.3,280.9c-0.9-0.4-1.8-0.8-2.8-1.1c-0.5-0.2-1.3-0.2-1.6-0.6c-2.6-2.9-5.6-2.8-8.8-1.3
			c-1.8,0.8-3.6,1.6-5.2,2.6c-2.7,1.6-5.1,2.3-8.3,0.4c-2-1.2-4.9-1.1-7.4-1c-1.8,0.1-2.9,1.8-1.9,3.6c0.7,1.3,0.3,4.6,3.4,3.2
			c5.1-2.4,9.8-1.6,14.7,0.7c1.1,0.5,2.9,0.5,4.1,0C410.8,285.4,415.2,283.2,420.3,280.9z M532.3,414.3c-1.1-2.1-2-4.3-3.3-6.4
			c-0.5-0.8-1.9-1.6-2.6-1.4c-4,0.9-7.4-0.3-10.7-2.1c-4-2.1-7.5-0.2-7.7,4.2c-0.1,0.9-0.1,1.9-0.2,2.3c2.6,1.3,4.8,2.6,7.2,3.5
			c2.3,0.8,4.8,1.7,7.1,1.7C525.3,416,528.5,415,532.3,414.3z M12.2,77.2c1.5-0.2,3-0.7,4.5-0.7c6.1,0.3,12.2,0.8,18.3,1.2
			c0.3,0,0.5,0.2,0.7,0.3c2.5,1.1,4.8,0,6-3c-1.3-0.6-2.5-1.3-3.9-1.7c-1.9-0.6-4.2-1.8-5.8-1.3c-3.3,1-5.6,0.2-8.1-1.8
			c-2.3-1.9-4.7-1.7-7.1,0.1c-0.9,0.7-1.8,1.5-2.8,2C11.9,73.5,11.6,75,12.2,77.2z M119.3,120.2c-4.5,2.1-8.7,1.1-13-0.2
			c-1.4-0.4-2.8-0.7-4.2-0.6c-3.3,0.2-6.5,0.8-9.8,1.2c0.7,1.4,1.5,2.1,2.2,2.7c2.1,2.2,8.9,3.8,9.3,4.1c2.7,1.8,5.2,1.4,7.8-0.2
			c0.8-0.5,1.8-0.7,2.8-0.9C117.3,125.7,118.9,123.9,119.3,120.2z M46.8,533c2.2,0.1,4.6-0.3,6.6,0.5c6.7,2.8,13.3,2.8,20.2,0.8
			c1.2-0.3,2.8-0.3,3.8,0.2c3.5,1.9,12.1,0.9,15.4-2c-0.5-0.1-1-0.1-1.4-0.1c-3.7-0.4-7.4-1-11.1-1.3c-1.9-0.1-3.8,0.3-5.7,0.5
			c-1.8,0.2-3.6,0.6-5.4,0.4c-1.7-0.2-3.5-0.8-5.1-1.6C57.6,527.4,52.3,531.7,46.8,533z M343.7,336.8c-0.5-1.8-0.9-3.5-1.5-5
			c-0.3-0.8-1.1-1.8-1.8-2.1c-4.4-1.7-8.6-3.4-13.5-1.1c-4.1,1.9-5.7,3.8-4.5,8.8c3.5-0.9,7-2.5,10.5-2.6
			C336.2,334.7,339.8,336,343.7,336.8z M178.3,74.1c-5.1-4.3-5.8-4.5-9.4-2.1c-3.2,2.2-6.2,2.2-9.4,0.2c-1.5-0.9-3.1-1.9-4.8-2.3
			c-1.2-0.3-2.6,0.2-3.9,0.3c0.4,1.7,0.4,4.6,1.4,5c3.4,1.4,6.6,3.9,10.8,3c3.2-0.7,6.6-0.7,9.8-1.4
			C174.6,76.4,176.2,75.2,178.3,74.1z M9.4,167c2.1-0.3,4-0.8,6-0.9c5.3-0.4,5.4-0.3,6.5-5.6c0-0.1,0-0.2,0.1-0.3
			c0.8-3.5-2-6.3-5.8-5.8c-6.9,1-8.5,3.2-7.2,10C9.1,165.1,9.2,165.8,9.4,167z M289.9,297.4c4,3.4,7.9,5.2,12.4,2.1
			c1.2-0.8,2.5-1.4,3.6-2.3c1.8-1.3,3.3-1.3,5.2,0.1c2.4,1.7,5.3,2.8,8.1,3.8c1,0.4,2.4-0.4,3.6-0.6c0-0.3,0.1-0.7,0.1-1
			c-3-4.1-4.5-8.4-19-6.6c-0.9-0.1-1.8,0.6-2.7,1.1c-1.2,0.6-2.3,1.7-3.6,2C295.1,296.7,292.5,297,289.9,297.4z M40.7,521.5
			c-1.7-0.8-3-1.2-4.2-2c-3.3-2-6.5-2.4-10.1-0.7c-1.7,0.8-3.6,0.9-5.4,1.6c-0.8,0.3-1.6,1.3-1.8,2.1c-0.3,1.1,0.1,2.3,0.1,3.5
			c0.1,1.8,0.9,2.1,2.5,1.5c3.5-1.4,7.1-2.7,10.9-2.1C36.1,525.7,38.1,523.8,40.7,521.5z M490,413.4c0.2-0.4,0.3-0.7,0.5-1.1
			c-2.1-2.7-3.8-5.8-7.3-7c-2.9-1-5.9-1.5-8.9-1.9c-0.8-0.1-2.1,0.8-2.6,1.6c-1.4,2.6-1.1,5.3,0.4,8.1c0.9-0.4,1.7-0.7,2.5-1
			c3.1-1.2,6.1-1.5,9.3-0.1C485.9,412.7,488,412.9,490,413.4z M483,640.1c16.7,1.2,33.4,0.3,50.2-0.1c-3.4-0.8-6.9-1.1-10.1-2.1
			c-4.4-1.5-8.6-2.1-13-0.4c-0.7,0.3-1.4,0.3-2.1,0.5c-6.1,1.8-12.1,1.7-18.2-0.1C487.2,637.1,484.9,637.4,483,640.1z M384.1,275.1
			c4.2-1,7.9,0.1,11.3,2.3c0.6,0.4,1.8,0.1,2.5-0.2c2.4-1.2,4.7-2.4,7.1-3.8c0.5-0.3,0.9-1.1,1.3-1.6c-0.8-0.5-1.6-1.1-2.4-1.3
			c-0.6-0.1-1.4,0.4-1.9,0.9c-2.5,2-4.8,1.3-7-0.5c-1-0.8-2-1.8-3.2-2.4c-1.2-0.5-2.8-1-4-0.8C384.2,268.4,383.5,270.1,384.1,275.1z
			 M120.6,95.5c2.5,2.9,5.7,3.6,8.7,2.2c0.6-0.3,1.2-0.6,1.8-0.5c3.9,0.2,7.7,0.5,11.6,0.8c0.8,0.1,2.3,0.4,2.4,0.1
			c0.5-0.9,0.7-2.1,0.5-3c-0.5-2-5.3-4.6-7.4-4.1c-4.6,1.1-9.1,2.4-13.7,3.6C123.3,94.9,122,95.2,120.6,95.5z M24.3,32
			c3.5-0.4,6.8-4,6.3-7.4c-0.1-0.5-0.8-1.4-1.2-1.4c-1.6,0.1-3.3,0.1-4.6,0.8c-2.4,1.3-4.5,1.2-6.6-0.4c-0.9-0.7-1.8-1.5-2.8-2.1
			c-1.5-0.9-2.8-0.6-2.7,1.3c0.2,2.1,0.9,4.1,1.6,6.2c0.1,0.2,1.2,0.4,1.5,0.2c2.1-1.7,3.5-0.5,5.1,0.9C21.9,31,23.2,31.4,24.3,32z
			 M18,170.3c-6.4-0.1-7.6,1.3-6,7.3c0,0.1,0,0.2,0.1,0.3c1.2,5,1.2,4.9,6.2,3c2.5-1,3.6-5.7,3.6-6C22.4,170.7,22.1,170.3,18,170.3z
			 M837,504.9c3.8,4.3,7.9,6.5,13.5,4.1c3.9-1.7,4-1.9,1.2-5C847.8,499.6,838.7,500.4,837,504.9z M755.5,230.6
			c2.7,1.3,3.9,5,7.7,4.4c3.8-0.6,11.3-3.5,15.2-3.9C768.9,222.9,758,225.3,755.5,230.6z M713.1,386.6c5.4,1.8,10.8,1.3,16.6,0.1
			c-1.8-2.8-1.3-6.9-5.8-7.5c-0.3,1-0.4,1.9-0.9,2.6c-0.6,0.7-1.6,1.8-2.3,1.7C717.3,382.7,715.6,385.5,713.1,386.6z M22.7,11.5
			c-3.1,0.8-6.2,1.5-9.1,2.3c-0.5,0.1-0.9,0.8-1.1,1.3c-0.1,0.2,0.3,0.8,0.6,1c2.1,1.3,4.1,2.8,6.4,3.6c1.2,0.4,2.9-0.2,4.2-0.7
			c1.6-0.6,1-2,0.5-3.1C23.7,14.7,23.3,13.4,22.7,11.5z M732.2,639.2c0-0.2-0.1-0.5-0.1-0.7c-0.3-0.1-0.6-0.3-0.9-0.4
			c-0.6-0.1-1.2-0.1-1.9-0.1c-6.1-0.1-12.1,0.2-18.1-1.7c-1.2-0.4-2.7,0.4-4.1,0.6c0,0.4-0.1,0.8-0.1,1.1c1.7,0.7,3.5,1.8,5.2,1.9
			c5.3,0.4,10.7,0.4,16.1,0.4C729.6,640.4,730.9,639.6,732.2,639.2z M12.4,67c2.9-0.8,5.6-2.1,8.1-1.9c2.5,0.2,4.8,2,7.3,3.1
			c1.3-5.4,0.8-6.1-4.3-6.2c-3.2-0.1-6.3-0.1-9.8-0.1C13.3,63.2,12.9,65,12.4,67z M402.1,263.4c-0.4,0.1-0.8,0.2-1.2,0.2
			c-1.4-0.4-2.9-0.6-4.2-1.3c-1.1-0.5-1.9-1.6-2.9-2.3c-1-0.7-2.5-1.9-3.2-1.6c-1.3,0.6-2.2,2.1-2.9,2.8c3,2.1,5.6,3.7,8,5.6
			c1.7,1.3,3.2,1.2,4.5-0.1C401.1,266,401.5,264.6,402.1,263.4z M782.7,500.4c-6.3-2.1-12.2-2.6-18.4-1.7
			C770,502.6,775.6,505.1,782.7,500.4z M24.9,81.2c-1.1-0.4-2-1.2-3-1.2c-2.4,0.1-4.8,0.4-7.1,1c-3.9,1-5.1,3.7-3.8,7
			C15.5,85.9,20,83.7,24.9,81.2z M15.5,42.7c0.3,0.2,0.6,0.4,0.9,0.6c2-1.9,4.1-3.7,6.1-5.6c0.2-0.2-0.1-1.3-0.5-1.7
			c-0.6-0.6-1.4-1.1-2.1-1.6c-1.9-1.4-4-0.6-4.2,1.7C15.4,38.2,15.5,40.4,15.5,42.7z M30,530.4c-6.8-0.7-10.6,3-8.2,8.8
			C24.6,536.1,27.2,533.4,30,530.4z M153.7,79.8c-0.9,0.2-1.9,0-2.4,0.5c-2.3,1.9-4.5,3.9-6.7,5.9c-0.4,0.4-0.7,1.4-0.5,1.8
			c0.4,0.7,1.2,1.3,1.9,1.6c0.3,0.2,1.2-0.2,1.5-0.6C149.5,86.1,151.4,83.2,153.7,79.8z M397.4,258.9c4.5-3.8,4.6-3.9,3.9-8.1
			c-2.1,1.3-4.2,2.3-5.6,3.8C395.2,255.1,396.7,257.3,397.4,258.9z M435.1,604.7c-3-5.4-6.1-6.3-11.8-3.8
			C427.1,602.1,431,603.4,435.1,604.7z M25.6,316c2.9,1.5,12,1.4,13.6-0.1C34.6,315,30.2,313.7,25.6,316z M66,102.3
			c2.8,3,9.3,2.4,12-0.8C74.1,101.8,70.3,102,66,102.3z M48.4,515.3c0-0.3,0-0.7,0-1c-3.3,0.2-6.6,0.4-9.9,0.6c0,0.3,0,0.6,0,0.9
			C41.8,517.3,45.1,516.8,48.4,515.3z M73,159.4c-1.9-1.9-4.4-1.8-6.8,0.2C68.8,161.4,70.7,161.3,73,159.4z M35.7,533.1
			c2.3,0,4.3,0.1,6.5,0.1C39.9,529.9,37.5,529.8,35.7,533.1z M148.6,21.9c-1.9-3.1-4.2-4-7.7-3.1C143.5,19.9,145.8,20.8,148.6,21.9z
			 M599.6,407.6c-0.3,0.3-0.6,0.6-0.9,0.9c-0.2,2.8,0.3,3.2,2.7,2.3C600.8,409.7,600.2,408.6,599.6,407.6z"/>
		<path d="M935.1,200c-2-3.4-4.8-4.6-8.7-3.6c-5,1.3-9.9,3-15,4.1c-5.7,1.3-11.7,1.7-17.3,3.2c-4.1,1.1-8,3.3-11.8,5.3
			c-3.2,1.7-6,4.4-9.4,5.5c-6.8,2.3-13.9,3.9-20.9,5.8c-1.5,0.4-3.1,0.9-4.5,1.5c-4.7,1.8-7.7,5.7-11.1,9c-2.5,2.3-2.1,3.9,0.5,6.1
			c1,0.8,2,2,2.5,3.2c1.6,4.2,2.9,8.4,4.3,12.7c1,3.1,3.2,4.8,6.3,4.9c3.5,0.1,6.8-0.6,10-2.2c5.4-2.7,11.2-3.9,17.4-2.9
			c5.3,0.9,15.9,2.1,15.9,2.3c0.6-0.1,1.2-0.3,1.8-0.4c3.2-0.7,7-5.3,7-9.6c0.1-4.7,2.1-6.6,6.7-7.4c1.6-0.3,3.2-0.7,4.5-1.5
			c2.5-1.6,5-3.5,4.8-6.9c-0.2-3-2.4-4.9-5-6.1c-1.5-0.7-3.2-1.2-4.6-2.1c-0.9-0.5-2-1.4-2.2-2.3c-0.1-0.6,1-1.8,1.9-2.2
			c1.8-1,3.7-2,5.6-2.5c6.7-1.4,11.1-6.6,16.7-9.8c1.1-0.6,2.2-1.3,3.4-1.6C935.6,202.1,935.8,201.3,935.1,200z M894.5,210.6
			c0.6-0.2,1.6,0.5,2.3,0.9c1.3,0.8,2.4,1.7,3.6,2.6c-3.7,8.9-9.2,7.1-17.8,1.6C886.9,213.9,890.6,212.1,894.5,210.6z M882.1,222.4
			c2.7-1.5,4.5,0.5,6.9,1.4c-2,2-3.7,3.8-5.5,5.6c-1.8,1.8-3.7,1.9-5.8,0.7c-1.8-1-3.7-2-4.9-2.7C875.8,225.9,879,224.2,882.1,222.4
			z M857.2,225.8c0.9-0.2,1.8-0.1,2.6-0.3c5.5-1.9,5.4-2,10.7,0.9c-3.4,1.8-6.5,3.8-9.8,5.3c-3.8,1.7-6.1,0.7-10.1-4.2
			C852.9,226.9,855,226.3,857.2,225.8z M896.7,246.4c-1.3,2.8-7.4,1.2-14.4-0.2c-0.9-0.1-2.1-0.3-3.4-0.6c-6.1-1-13.2,1.1-16.8,1.7
			c-3.6,0.6-6.7,1.6-8.8,2.1c-0.7,0.2-2.4-2.1-3.3-2.7c0.6-0.8,1.2-2.1,1.9-2.2c2.2-0.3,13.1-0.6,15.3-0.5c2.2-0.3,3-2.4,6.5-2
			c2.2,0.2,4.3,0.5,6.5,0.7c0,0,0,0.2,0.1,0.3c3,0.5,6.3,1,9.2,1.3C895.2,244.7,898,243.7,896.7,246.4z M897.7,238.4
			c-0.2,0.5-3,0.7-3.6,0.9c-1.7,0.4-3.5,1.1-5.2,0.9c-2.9-0.3-5.9-0.9-8.7-2c-3.3-1.3-6.4-1.8-9.4,0.3c-4.2,2.9-8.9,1.9-13.5,1.8
			c-3.5-0.1-7-0.1-11-0.2c-1.9-3.7-1-6.1,2.9-7.4c0.4-0.1,0.9,0,1.2,0.1c0.6,0.3,1,0.7,1.5,1.1c4.8,3.7,8.4,3.8,13.5,0.4
			c3.4-2.3,6.5-2.9,10.4-0.8c6.1,3.4,7.8,2.9,12.4-2.4c1.7-1.9,3.1-2.4,5.2-0.6c1.7,2.5,7.3,2.6,11.3,3.8
			C904.2,236,898.4,236.7,897.7,238.4z M908.4,226.3c1.9,0.6,2.7,1.7,2.6,4c-2-0.6-3.7-1.3-5.5-1.7c-1.5-0.3-3.2-0.5-4.6-0.1
			c-3,0.8-5.4,0-7.2-2.9c2.1-0.9,3.9-1.8,5.8-2.4c0.7-0.2,1.7,0,2.5,0.3C904.2,224.5,906.2,225.6,908.4,226.3z"/>
	</g>
	<g>
		<path class="st6" d="M797,438.2c3,0.2,5.1,0.7,6.4,1.7s1.9,2.6,1.9,4.8v0.2c0,2.2-0.8,3.9-2.4,5c-1.6,1.1-4,1.7-7.1,1.7
			c-3,0-5.3-0.5-6.9-1.6c-1.5-1.1-2.4-2.6-2.6-4.8c0,0,0-0.1,0-0.3c0-0.1,0-0.2,0-0.3c0-0.4,0.1-0.6,0.3-0.8
			c0.2-0.2,0.5-0.3,0.9-0.3h2.9c0.5,0,0.8,0.1,0.9,0.2s0.3,0.4,0.4,0.8c0,0.1,0.1,0.3,0.1,0.5c0.2,0.7,0.7,1.2,1.3,1.5
			c0.6,0.3,1.5,0.5,2.6,0.5c1.3,0,2.3-0.2,3-0.5c0.6-0.3,1-0.8,1-1.6v-0.1c0-0.3,0-0.6-0.1-0.8c-0.1-0.2-0.2-0.4-0.5-0.6
			c-0.2-0.2-0.5-0.3-0.9-0.4c-0.4-0.1-0.9-0.2-1.5-0.3c-0.6-0.1-1.3-0.2-2.2-0.3c-1.6-0.1-2.8-0.3-3.9-0.6c-1-0.3-1.9-0.6-2.6-1.1
			c-0.7-0.5-1.2-1.1-1.5-1.9c-0.3-0.7-0.5-1.7-0.5-2.8v-0.2c0-2.3,0.8-4,2.3-5.1s3.9-1.7,7.1-1.7c2.9,0,5.1,0.5,6.7,1.6
			s2.5,2.5,2.7,4.5c0.1,0.2,0.1,0.4,0.1,0.6c0,0.4-0.1,0.6-0.3,0.8c-0.2,0.2-0.5,0.3-0.9,0.3h-2.9c-0.5,0-0.8-0.1-1-0.2
			c-0.2-0.1-0.3-0.4-0.4-0.8c-0.1-0.3-0.1-0.5-0.2-0.6c-0.6-1.1-1.9-1.6-3.9-1.6c-2.6,0-4,0.7-4,2v0.1c0,0.5,0.1,0.9,0.4,1.2
			c0.3,0.3,0.8,0.5,1.5,0.7S795.4,438.1,797,438.2z"/>
		<path class="st6" d="M816.1,451.5h-2.7c-0.4,0-0.8-0.1-1-0.4c-0.2-0.2-0.4-0.6-0.4-1v-6.7l-5.9-12.4c-0.2-0.4-0.2-0.8,0-1.1
			c0.2-0.3,0.6-0.5,1-0.5h2.7c0.7,0,1.1,0.3,1.3,1l3.6,8l3.5-8c0.2-0.7,0.7-1,1.4-1h2.7c0.4,0,0.8,0.2,1,0.5c0.2,0.3,0.2,0.7,0,1.1
			l-5.9,12.4v6.7c0,0.4-0.1,0.7-0.4,1C816.8,451.4,816.5,451.5,816.1,451.5z"/>
		<path class="st6" d="M830.4,451.5h-2.7c-0.4,0-0.8-0.1-1-0.4c-0.2-0.2-0.4-0.6-0.4-1v-19.4c0-0.4,0.1-0.8,0.4-1
			c0.2-0.2,0.6-0.4,1-0.4h7.3c1.6,0,2.9,0.1,4,0.3s1.9,0.6,2.5,1.2c0.6,0.5,1.1,1.2,1.3,2.1s0.4,1.9,0.4,3.2v0.7
			c0,2.8-1,4.7-2.9,5.8l2.7,7.3c0.2,0.4,0.2,0.8-0.1,1.1c-0.2,0.3-0.5,0.5-1,0.5h-3.1c-0.7,0-1.1-0.3-1.4-1l-2.5-6.9h-3.3v6.5
			c0,0.4-0.1,0.8-0.4,1C831.2,451.4,830.9,451.5,830.4,451.5z M835,434.1h-3.2v5h3.2c1,0,1.7-0.2,2.1-0.5c0.4-0.3,0.6-0.9,0.6-1.8
			v-0.5c0-0.9-0.2-1.5-0.6-1.8C836.7,434.3,836,434.1,835,434.1z"/>
		<path class="st6" d="M849.9,451.5h-2.7c-0.4,0-0.7-0.1-1-0.4c-0.2-0.2-0.4-0.6-0.4-1v-19.4c0-0.4,0.1-0.7,0.4-1s0.6-0.4,1-0.4h2.7
			c0.4,0,0.7,0.1,1,0.4c0.2,0.2,0.4,0.6,0.4,1v19.4c0,0.4-0.1,0.7-0.4,1C850.6,451.4,850.3,451.5,849.9,451.5z"/>
		<path class="st6" d="M867.2,451.5h-11.9c-0.4,0-0.7-0.1-1-0.4c-0.2-0.2-0.4-0.6-0.4-1v-19.4c0-0.4,0.1-0.7,0.4-1s0.6-0.4,1-0.4
			h11.9c0.4,0,0.8,0.1,1,0.4c0.2,0.2,0.4,0.6,0.4,1v2.3c0,0.4-0.1,0.8-0.4,1c-0.2,0.2-0.6,0.4-1,0.4h-7.8v3.3h7.2
			c0.4,0,0.8,0.1,1,0.4c0.2,0.2,0.4,0.6,0.4,1v2c0,0.4-0.1,0.7-0.4,1c-0.2,0.2-0.6,0.4-1,0.4h-7.2v4h7.8c0.4,0,0.8,0.1,1,0.4
			c0.2,0.2,0.4,0.6,0.4,1v2.3c0,0.4-0.1,0.7-0.4,1C868,451.4,867.6,451.5,867.2,451.5z"/>
	</g>
	<g>
		<path class="st6" d="M319,120.5v2.3c0,0.4-0.1,0.7-0.4,1s-0.6,0.4-1,0.4h-7.2v6.4c0,0.4-0.1,0.7-0.4,1c-0.2,0.2-0.6,0.4-1,0.4
			h-2.7c-0.4,0-0.7-0.1-1-0.4c-0.2-0.2-0.4-0.6-0.4-1v-19.4c0-0.4,0.1-0.7,0.4-1s0.6-0.4,1-0.4h11.9c0.4,0,0.8,0.1,1,0.4
			s0.4,0.6,0.4,1v2.7c0,0.4-0.1,0.7-0.4,1s-0.6,0.4-1,0.4h-7.8v3.9h7.2c0.4,0,0.8,0.1,1,0.4S319,120,319,120.5z"/>
		<path class="st6" d="M326.1,131.9h-2.7c-0.4,0-0.8-0.1-1-0.4c-0.2-0.2-0.4-0.6-0.4-1v-19.4c0-0.4,0.1-0.8,0.4-1
			c0.2-0.2,0.6-0.4,1-0.4h7.3c1.6,0,2.9,0.1,4,0.3c1,0.2,1.9,0.6,2.5,1.2c0.6,0.5,1.1,1.2,1.3,2.1s0.4,1.9,0.4,3.2v0.7
			c0,2.8-1,4.7-2.9,5.8l2.7,7.3c0.2,0.4,0.2,0.8-0.1,1.1s-0.5,0.5-1,0.5h-3.1c-0.7,0-1.1-0.3-1.4-1l-2.5-6.9h-3.3v6.5
			c0,0.4-0.1,0.8-0.4,1C326.8,131.8,326.5,131.9,326.1,131.9z M330.7,114.5h-3.2v5h3.2c1,0,1.7-0.2,2.1-0.5c0.4-0.3,0.6-0.9,0.6-1.8
			v-0.5c0-0.9-0.2-1.5-0.6-1.8C332.4,114.7,331.7,114.5,330.7,114.5z"/>
		<path class="st6" d="M346.5,130.8c-0.1,0.4-0.2,0.6-0.5,0.8s-0.5,0.3-0.9,0.3h-2.5c-0.5,0-0.8-0.1-1-0.4s-0.3-0.6-0.2-1.1
			l5.1-19.6c0.1-0.3,0.2-0.6,0.5-0.8s0.5-0.3,0.9-0.3h5.7c0.4,0,0.7,0.1,0.9,0.3s0.4,0.5,0.5,0.8l5.1,19.6c0.1,0.4,0,0.8-0.2,1.1
			c-0.2,0.3-0.6,0.4-1,0.4h-2.5c-0.4,0-0.7-0.1-0.9-0.3s-0.4-0.5-0.5-0.8l-0.8-3.3h-6.8L346.5,130.8z M353.2,123.6l-2.5-10.2
			l-2.5,10.2H353.2z"/>
		<path class="st6" d="M379.7,131.9h-2.5c-0.6,0-1-0.2-1.3-0.7l-8.1-12v11.4c0,0.4-0.1,0.7-0.4,1c-0.2,0.2-0.6,0.4-1,0.4h-2.3
			c-0.4,0-0.7-0.1-1-0.4c-0.2-0.2-0.4-0.6-0.4-1v-19.4c0-0.4,0.1-0.7,0.4-1s0.6-0.4,1-0.4h2.6c0.5,0,1,0.2,1.3,0.7l8.2,11.6v-10.9
			c0-0.4,0.1-0.8,0.4-1c0.2-0.2,0.6-0.4,1-0.4h2.3c0.4,0,0.8,0.1,1,0.4c0.2,0.2,0.4,0.6,0.4,1v19.4c0,0.4-0.1,0.7-0.4,1
			C380.5,131.8,380.2,131.9,379.7,131.9z"/>
		<path class="st6" d="M393.6,132c-3.4,0-6-0.8-7.5-2.3c-1.6-1.5-2.4-4-2.4-7.6v-2.9c0-6.5,3.3-9.7,9.9-9.7c6.1,0,9.3,2.6,9.8,7.7
			c0,0.1,0,0.2,0,0.4c0,0.2,0,0.3,0,0.4c0,0.4-0.1,0.7-0.3,0.9c-0.2,0.2-0.5,0.3-0.9,0.3h-2.9c-0.4,0-0.8-0.1-1-0.3
			c-0.2-0.2-0.3-0.5-0.4-0.9c-0.1-0.4-0.1-0.6-0.1-0.6c-0.2-1-0.7-1.8-1.4-2.2c-0.7-0.5-1.7-0.7-3-0.7c-1.1,0-1.9,0.2-2.5,0.5
			s-1.1,0.8-1.4,1.6c-0.3,0.8-0.5,1.8-0.5,3.1v2.5c0,1.9,0.3,3.2,1,3.9c0.7,0.8,1.8,1.1,3.4,1.1c1.3,0,2.3-0.2,3-0.8
			c0.7-0.5,1.1-1.4,1.3-2.6c0-0.1,0.1-0.3,0.1-0.5c0.1-0.8,0.5-1.2,1.3-1.2h2.9c0.4,0,0.7,0.1,0.9,0.3c0.2,0.2,0.3,0.5,0.3,0.9
			l-0.1,0.7c-0.2,2.8-1.1,4.9-2.7,6.2C399.1,131.4,396.7,132,393.6,132z"/>
		<path class="st6" d="M419.3,131.9h-11.9c-0.4,0-0.7-0.1-1-0.4c-0.2-0.2-0.4-0.6-0.4-1v-19.4c0-0.4,0.1-0.7,0.4-1s0.6-0.4,1-0.4
			h11.9c0.4,0,0.8,0.1,1,0.4s0.4,0.6,0.4,1v2.3c0,0.4-0.1,0.8-0.4,1s-0.6,0.4-1,0.4h-7.8v3.3h7.2c0.4,0,0.8,0.1,1,0.4s0.4,0.6,0.4,1
			v2c0,0.4-0.1,0.7-0.4,1s-0.6,0.4-1,0.4h-7.2v4h7.8c0.4,0,0.8,0.1,1,0.4s0.4,0.6,0.4,1v2.3c0,0.4-0.1,0.7-0.4,1
			C420.1,131.8,419.7,131.9,419.3,131.9z"/>
	</g>
	<g>
		<g>
			<path class="st7" d="M340.4,143.2c0,12-3.4,31.9-32.6,33.3"/>
			<g>
				<polygon class="st6" points="313.5,171.1 308.7,176.4 314,181.3 309.7,181.5 304.4,176.6 309.2,171.3 				"/>
			</g>
		</g>
	</g>
	<g>
		<g>
			<path class="st7" d="M881.6,444.3c24.3,0,39.2,17.4,40.7,37.6"/>
			<g>
				<polygon class="st6" points="917,476.2 922.3,481 927.1,475.7 927.3,480 922.5,485.3 917.2,480.5 				"/>
			</g>
		</g>
	</g>
</g>
</svg>
