<?xml version="1.0" encoding="utf-8"?>
<!-- Generator: Adobe Illustrator 19.1.0, SVG Export Plug-In . SVG Version: 6.00 Build 0)  -->
<svg version="1.1" id="Calque_1" xmlns="http://www.w3.org/2000/svg" xmlns:xlink="http://www.w3.org/1999/xlink" x="0px" y="0px"
	 viewBox="0 0 13.7 26.8" style="enable-background:new 0 0 13.7 26.8;" xml:space="preserve">
<style type="text/css">
	.st0{fill:#E01220;}
	.st1{fill:#1F7CAD;}
	.st2{fill:#C0BFBF;}
	.st3{fill:#1F7CAD;stroke:#000000;stroke-width:2;stroke-miterlimit:10;}
	.st4{fill:#6DA3C3;}
	.st5{fill:none;stroke:#E01220;stroke-width:3;stroke-miterlimit:10;}
	.st6{fill:#F5FBF9;}
	.st7{fill:#1D1D1B;}
	.st8{fill:#010202;}
</style>
<g>
	<path d="M13.7,25.5c-0.8,1.1-8.6,1.4-9.4,1.3C1,26.6,1,24.1,0.8,21C0.4,15.6,0.2,10.1,0,4.7c0-1.1,0-2.3,0.4-3.3
		C0.7,0.8,1.7,0,2.3,0c2.6,0.1,8.5-0.1,10,1.4S13.2,20.7,13.7,25.5z M7.4,4.1C5.1,2.7,4.2,5,4.3,7.4c0.3,5,0.7,10,1.1,15
		c0,0.3,0.3,0.6,0.4,1.1c1-0.2,1.9-0.4,2.8-0.5C8.3,16.6,9.7,5.5,7.4,4.1z"/>
	<path class="st0" d="M7.4,4.1C5.1,2.7,4.2,5,4.3,7.4c0.3,5,0.7,10,1.1,15c0,0.3,0.3,0.6,0.4,1.1c1-0.2,1.9-0.4,2.8-0.5
		C8.3,16.6,9.7,5.5,7.4,4.1z"/>
</g>
</svg>
