<?xml version="1.0" encoding="utf-8"?>
<!-- Generator: Adobe Illustrator 19.1.0, SVG Export Plug-In . SVG Version: 6.00 Build 0)  -->
<svg version="1.1" id="Calque_1" xmlns="http://www.w3.org/2000/svg" xmlns:xlink="http://www.w3.org/1999/xlink" x="0px" y="0px"
	 viewBox="0 0 204.6 61.8" style="enable-background:new 0 0 204.6 61.8;" xml:space="preserve">
<style type="text/css">
	.st0{fill:#E01220;}
	.st1{fill:#1F7CAD;}
	.st2{fill:#C0BFBF;}
	.st3{fill:#1F7CAD;stroke:#000000;stroke-width:2;stroke-miterlimit:10;}
	.st4{fill:#6DA3C3;}
	.st5{fill:none;stroke:#E01220;stroke-width:3;stroke-miterlimit:10;}
	.st6{fill:#F5FBF9;}
	.st7{fill:#1D1D1B;}
	.st8{fill:#010202;}
</style>
<g>
	<path d="M203.1,59.4c-6,2.7-11.5,2-16.8,2.2C177,62,13,61.4,6.5,61.2C0,60.9,2.1,52.7,1.8,47C1.3,38.4,1,29.8,0.6,21.3
		C0.4,16.6,0.2,11.9,0,7.2C0,5.3,0,3.5,0,1.9c2.2-1.6,4.2-1.8,6.6-1.7c7,0.3,186.2,0,187.3-0.1c5.1-0.6,8.2,1.6,9.1,6.4
		c1.4,7.5,1.7,15,1.5,22.6c-0.1,4.7,0.1,9.4-0.1,14.1C204.2,49.3,203.6,53.4,203.1,59.4z M7.2,54.2c5.6,0,129.6,0.6,137.5,0.4
		c16.1-0.4,32.1-0.6,48.2-0.9c4-0.1,3.9-1,4.3-4.4c0.4-3.5,0.3-7.1,0.2-10.6c-0.1-6.6-0.2-13.1-0.6-19.7c-0.3-4.6-1.2-9.2-1.8-13.9
		c-4.9,0-9.2,0-13.6,0c-7.2,0.1-14.4,0.2-21.6,0.2c-8.7,0-17.3-0.3-26-0.2c-14.1,0.1-28.2,0.4-42.3,0.5c-10.4,0.1-77.6-0.9-87.1,0
		C3.1,11.6,5.3,49,7.2,54.2z"/>
	<g>
		<path class="st0" d="M63.8,38.2c0-0.4,0.1-0.7,0.3-0.9s0.5-0.3,0.9-0.3h0.4c2.8,0,4.3-1.6,4.3-4.9V18.6c0-0.9,0.5-1.4,1.4-1.4h2
			c0.9,0,1.3,0.5,1.3,1.4v14.7c0,1.3-0.1,2.4-0.4,3.4c-0.3,1-0.6,1.8-1.1,2.4s-1,1.1-1.7,1.5c-0.7,0.4-1.4,0.7-2.2,0.8
			c-0.8,0.2-1.7,0.2-2.7,0.3H65c-0.8,0-1.2-0.4-1.2-1.2V38.2z"/>
		<path class="st0" d="M90.5,41.7H77.4c-0.9,0-1.4-0.5-1.4-1.4V18.6c0-0.9,0.5-1.4,1.4-1.4h13.1c0.9,0,1.3,0.5,1.3,1.4v1.8
			c0,0.9-0.4,1.4-1.3,1.4h-9.6v4.9H90c0.9,0,1.3,0.5,1.3,1.4v1.6c0,0.9-0.4,1.4-1.3,1.4h-9.2v6h9.6c0.9,0,1.3,0.5,1.3,1.4v1.8
			C91.8,41.2,91.3,41.7,90.5,41.7z"/>
		<path class="st0" d="M113.7,30.4c0,2.1-0.2,3.8-0.5,5.2c-0.4,1.4-1,2.6-1.8,3.5c-0.8,0.9-1.9,1.6-3.2,2s-2.9,0.6-4.7,0.6
			c-2.5,0-4.5-0.4-5.9-1.1s-2.6-2-3.2-3.6s-1-3.9-1-6.7V18.6c0-0.9,0.5-1.4,1.4-1.4h2c0.9,0,1.4,0.5,1.4,1.4v11.8
			c0,2.5,0.4,4.3,1.3,5.4c0.8,1.1,2.2,1.6,4.1,1.6c1.9,0,3.3-0.5,4.2-1.6c0.9-1.1,1.3-2.9,1.3-5.4V18.6c0-0.9,0.5-1.4,1.4-1.4h2.1
			c0.9,0,1.3,0.5,1.3,1.4V30.4z"/>
		<path class="st0" d="M125,41.7h-8.3c-0.9,0-1.4-0.5-1.4-1.4V18.6c0-0.9,0.5-1.4,1.4-1.4h8.3c3.9,0,6.8,0.9,8.6,2.7
			s2.7,4.5,2.7,8.2v2.7c0,3.6-0.9,6.4-2.7,8.2S128.9,41.7,125,41.7z M124.9,21.7h-4.9v15.6h4.9c1.2,0,2.2-0.1,3-0.3s1.5-0.6,2-1.2
			c0.6-0.5,1-1.3,1.2-2.2c0.3-0.9,0.4-2,0.4-3.4v-1.4c0-1.4-0.1-2.5-0.4-3.4c-0.3-0.9-0.7-1.6-1.2-2.2c-0.6-0.5-1.2-0.9-2-1.1
			S126.1,21.7,124.9,21.7z"/>
		<path class="st0" d="M141.3,41.7h-2c-0.9,0-1.4-0.5-1.4-1.4V18.6c0-0.9,0.5-1.4,1.4-1.4h2c0.9,0,1.4,0.5,1.4,1.4v21.7
			C142.6,41.2,142.2,41.7,141.3,41.7z"/>
	</g>
</g>
</svg>
