<?xml version="1.0" encoding="utf-8"?>
<!-- Generator: Adobe Illustrator 19.1.0, SVG Export Plug-In . SVG Version: 6.00 Build 0)  -->
<svg version="1.1" id="Calque_1" xmlns="http://www.w3.org/2000/svg" xmlns:xlink="http://www.w3.org/1999/xlink" x="0px" y="0px"
	 viewBox="0 0 204 60.9" style="enable-background:new 0 0 204 60.9;" xml:space="preserve">
<style type="text/css">
	.st0{fill:#E01220;}
	.st1{fill:#1F7CAD;}
	.st2{fill:#C0BFBF;}
	.st3{fill:#1F7CAD;stroke:#000000;stroke-width:2;stroke-miterlimit:10;}
	.st4{fill:#6DA3C3;}
	.st5{fill:none;stroke:#E01220;stroke-width:3;stroke-miterlimit:10;}
	.st6{fill:#F5FBF9;}
	.st7{fill:#1D1D1B;}
	.st8{fill:#010202;}
</style>
<g>
	<path d="M2,2.8c7.3,0,195.2-1.1,196.6-2.7c0.3-0.3,1.6,0,2.3,0.4c1.9,1.3,2.8,3.3,2.9,5.6c0.3,5.5-0.2,47-0.2,49.4
		c0,1.4-0.1,2.7-0.1,3.9C193.5,63,9.6,58.8,6.5,58.5c-3.4-0.4-5.1-2-5.7-5.2c-0.4-2.1-0.5-4.3-0.6-6.4C-0.1,42.1-0.3,6.1,2,2.8z
		 M196.3,7C191.2,5.4,18.6,7.5,7.8,7.8c-1.2,0-2.5,0.4-3.4,0.6C3.5,26.1,4.3,37,3.9,51.2c1.6,0,184.3,0.7,191.5,1.3
		c0.1,0,0.2-0.1,0.7-0.5C197,37.2,197.5,22.2,196.3,7z"/>
	<g>
		<path class="st0" d="M73.2,40.1H60.1c-0.9,0-1.4-0.5-1.4-1.4V17c0-0.9,0.5-1.4,1.4-1.4h2c0.9,0,1.4,0.5,1.4,1.4v18.5h9.6
			c0.9,0,1.3,0.5,1.3,1.4v1.8C74.5,39.6,74.1,40.1,73.2,40.1z"/>
		<path class="st0" d="M95.1,28.8c0,2.1-0.2,3.8-0.5,5.2c-0.4,1.4-1,2.6-1.8,3.5s-1.9,1.6-3.1,2s-2.9,0.6-4.7,0.6
			c-2.5,0-4.5-0.4-5.9-1.1s-2.6-2-3.2-3.6s-1-3.9-1-6.7V17c0-0.9,0.5-1.4,1.4-1.4h2c0.9,0,1.4,0.5,1.4,1.4v11.8
			c0,2.5,0.4,4.3,1.3,5.4s2.2,1.6,4.1,1.6c1.9,0,3.3-0.5,4.2-1.6s1.3-2.9,1.3-5.4V17c0-0.9,0.5-1.4,1.4-1.4h2.1
			c0.9,0,1.3,0.5,1.3,1.4V28.8z"/>
		<path class="st0" d="M115.7,40.1h-2.1c-0.5,0-0.9-0.2-1.3-0.7l-11.1-15.6v14.9c0,0.9-0.5,1.4-1.4,1.4H98c-0.9,0-1.4-0.5-1.4-1.4
			V17c0-0.9,0.5-1.4,1.4-1.4h2c0.6,0,1,0.2,1.3,0.7l11.2,15.1V17c0-0.9,0.5-1.4,1.4-1.4h1.9c0.9,0,1.3,0.5,1.3,1.4v21.7
			C117,39.6,116.6,40.1,115.7,40.1z"/>
		<path class="st0" d="M128.3,40.1H120c-0.9,0-1.4-0.5-1.4-1.4V17c0-0.9,0.5-1.4,1.4-1.4h8.3c3.9,0,6.8,0.9,8.6,2.7s2.7,4.5,2.7,8.2
			v2.7c0,3.6-0.9,6.4-2.7,8.2S132.3,40.1,128.3,40.1z M128.3,20h-4.9v15.6h4.9c1.2,0,2.2-0.1,3-0.3s1.5-0.6,2-1.2
			c0.6-0.5,1-1.3,1.2-2.2c0.3-0.9,0.4-2,0.4-3.4v-1.4c0-1.4-0.1-2.5-0.4-3.4c-0.3-0.9-0.7-1.6-1.2-2.2c-0.6-0.5-1.2-0.9-2-1.1
			S129.4,20,128.3,20z"/>
		<path class="st0" d="M144.6,40.1h-2c-0.9,0-1.4-0.5-1.4-1.4V17c0-0.9,0.5-1.4,1.4-1.4h2c0.9,0,1.4,0.5,1.4,1.4v21.7
			C146,39.6,145.5,40.1,144.6,40.1z"/>
	</g>
</g>
</svg>
