<?xml version="1.0" encoding="utf-8"?>
<!-- Generator: Adobe Illustrator 19.1.0, SVG Export Plug-In . SVG Version: 6.00 Build 0)  -->
<svg version="1.1" id="Calque_1" xmlns="http://www.w3.org/2000/svg" xmlns:xlink="http://www.w3.org/1999/xlink" x="0px" y="0px"
	 viewBox="0 0 204 60.9" style="enable-background:new 0 0 204 60.9;" xml:space="preserve">
<style type="text/css">
	.st0{fill:#E01220;}
	.st1{fill:#1F7CAD;}
	.st2{fill:#C0BFBF;}
	.st3{fill:#1F7CAD;stroke:#000000;stroke-width:2;stroke-miterlimit:10;}
	.st4{fill:#6DA3C3;}
	.st5{fill:none;stroke:#E01220;stroke-width:3;stroke-miterlimit:10;}
	.st6{fill:#F5FBF9;}
	.st7{fill:#1D1D1B;}
	.st8{fill:#010202;}
</style>
<g>
	<path d="M2,2.8c7.3,0,195.2-1.1,196.6-2.7c0.3-0.3,1.6,0,2.3,0.4c1.9,1.3,2.8,3.3,2.9,5.6c0.3,5.5-0.2,47-0.2,49.4
		c0,1.4-0.1,2.7-0.1,3.9C193.5,63,9.6,58.8,6.5,58.5c-3.4-0.4-5.1-2-5.7-5.2c-0.4-2.1-0.5-4.3-0.6-6.4C-0.1,42.1-0.3,6.1,2,2.8z
		 M196.3,7C191.2,5.4,18.6,7.5,7.8,7.8c-1.2,0-2.5,0.4-3.4,0.6C3.5,26.1,4.3,37,3.9,51.2c1.6,0,184.3,0.7,191.5,1.3
		c0.1,0,0.2-0.1,0.7-0.5C197,37.2,197.5,22.2,196.3,7z"/>
	<g>
		<path class="st0" d="M40,41.8h-1c-0.7,0-1.1-0.3-1.3-0.9l-7.3-17.8v17.3c0,0.9-0.5,1.4-1.4,1.4h-1.9c-0.9,0-1.4-0.5-1.4-1.4V18.7
			c0-0.9,0.5-1.4,1.4-1.4h4.4c0.7,0,1.1,0.3,1.3,0.9L39.5,34l6.7-15.8c0.2-0.6,0.7-0.9,1.4-0.9h4.4c0.9,0,1.4,0.5,1.4,1.4v21.7
			c0,0.9-0.5,1.4-1.4,1.4H50c-0.9,0-1.4-0.5-1.4-1.4V23.1l-7.3,17.8C41.1,41.4,40.6,41.8,40,41.8z"/>
		<path class="st0" d="M69.2,41.8H56.2c-0.9,0-1.4-0.5-1.4-1.4V18.7c0-0.9,0.5-1.4,1.4-1.4h13.1c0.9,0,1.3,0.5,1.3,1.4v1.8
			c0,0.9-0.4,1.4-1.3,1.4h-9.6v4.9h9.2c0.9,0,1.3,0.5,1.3,1.4v1.6c0,0.9-0.4,1.4-1.3,1.4h-9.2v6h9.6c0.9,0,1.3,0.5,1.3,1.4v1.8
			C70.6,41.3,70.1,41.8,69.2,41.8z"/>
		<path class="st0" d="M75.5,41.8h-2c-0.9,0-1.4-0.5-1.4-1.4V18.7c0-0.9,0.5-1.4,1.4-1.4h7.9c1.7,0,3.1,0.1,4.1,0.4s1.9,0.7,2.6,1.2
			s1.1,1.3,1.3,2.1s0.4,1.9,0.4,3.2v0.6c0,1.5-0.3,2.9-0.9,4s-1.6,1.9-3,2.5l3.8,8.8c0.2,0.4,0.2,0.8,0,1.1s-0.5,0.5-0.9,0.5h-2.6
			c-0.7,0-1.1-0.3-1.4-0.9l-3.7-8.9h-4.2v8.5C76.9,41.3,76.4,41.8,75.5,41.8z M81.3,21.7h-4.5v6.1h4.5c1.3,0,2.3-0.2,2.8-0.6
			S85,26.1,85,25v-0.5c0-1.1-0.3-1.9-0.8-2.2C83.6,21.9,82.7,21.7,81.3,21.7z"/>
		<path class="st0" d="M102.3,41.9c-2,0-3.7-0.2-5.1-0.6c-1.4-0.4-2.6-1-3.5-1.9c-0.9-0.9-1.6-2-2.1-3.5S91,32.8,91,30.7v-2.6
			c0-1.7,0.2-3.2,0.7-4.5s1.1-2.5,2-3.4c0.9-1,2.1-1.7,3.5-2.2c1.5-0.5,3.2-0.8,5.2-0.8c3.3,0,6,0.7,7.8,2c1.9,1.4,3,3.3,3.3,5.9
			c0.1,0.4,0.1,0.8,0.1,1.1c0.1,0.9-0.3,1.3-1.2,1.3h-2.2c-0.5,0-0.8-0.1-1-0.3c-0.2-0.2-0.3-0.5-0.4-1c-0.1-0.5-0.2-0.8-0.2-0.9
			c-0.3-1.3-1-2.2-2.1-2.8c-1-0.6-2.5-0.9-4.3-0.9c-1.5,0-2.7,0.2-3.7,0.6c-0.9,0.4-1.6,1.1-2.1,2.1c-0.5,1-0.7,2.4-0.7,4.1v2
			c0,2.5,0.5,4.2,1.5,5.3c1,1.1,2.7,1.6,4.9,1.6c1.9,0,3.4-0.3,4.4-0.9s1.7-1.7,2-3.1c0.1-0.3,0.1-0.6,0.1-0.8c0-0.5,0.2-0.8,0.4-1
			c0.2-0.2,0.5-0.3,1-0.3h2.2c0.9,0,1.3,0.4,1.2,1.3c0,0,0,0.4-0.1,1c-0.3,2.9-1.4,5-3.2,6.3C108.5,41.2,105.8,41.9,102.3,41.9z"/>
		<path class="st0" d="M118.5,41.8h-2c-0.9,0-1.4-0.5-1.4-1.4V18.7c0-0.9,0.5-1.4,1.4-1.4h7.9c1.7,0,3.1,0.1,4.1,0.4
			c1.1,0.2,1.9,0.7,2.6,1.2s1.1,1.3,1.3,2.1s0.4,1.9,0.4,3.2v0.6c0,1.5-0.3,2.9-0.9,4s-1.6,1.9-3,2.5l3.8,8.8c0.2,0.4,0.2,0.8,0,1.1
			c-0.2,0.3-0.5,0.5-0.9,0.5h-2.6c-0.7,0-1.1-0.3-1.4-0.9l-3.7-8.9h-4.2v8.5C119.9,41.3,119.4,41.8,118.5,41.8z M124.3,21.7h-4.5
			v6.1h4.5c1.3,0,2.3-0.2,2.8-0.6c0.5-0.4,0.8-1.1,0.8-2.3v-0.5c0-1.1-0.3-1.9-0.8-2.2C126.6,21.9,125.7,21.7,124.3,21.7z"/>
		<path class="st0" d="M148.7,41.8h-13.1c-0.9,0-1.4-0.5-1.4-1.4V18.7c0-0.9,0.5-1.4,1.4-1.4h13.1c0.9,0,1.3,0.5,1.3,1.4v1.8
			c0,0.9-0.4,1.4-1.3,1.4h-9.6v4.9h9.2c0.9,0,1.3,0.5,1.3,1.4v1.6c0,0.9-0.4,1.4-1.3,1.4h-9.2v6h9.6c0.9,0,1.3,0.5,1.3,1.4v1.8
			C150.1,41.3,149.6,41.8,148.7,41.8z"/>
		<path class="st0" d="M161.3,41.8H153c-0.9,0-1.4-0.5-1.4-1.4V18.7c0-0.9,0.5-1.4,1.4-1.4h8.3c3.9,0,6.8,0.9,8.6,2.7
			s2.7,4.5,2.7,8.2v2.7c0,3.6-0.9,6.4-2.7,8.2S165.3,41.8,161.3,41.8z M161.3,21.7h-4.9v15.6h4.9c1.2,0,2.2-0.1,3-0.3s1.5-0.6,2-1.2
			c0.6-0.5,1-1.3,1.2-2.2c0.3-0.9,0.4-2,0.4-3.4v-1.4c0-1.4-0.1-2.5-0.4-3.4c-0.3-0.9-0.7-1.6-1.2-2.2c-0.6-0.5-1.2-0.9-2-1.1
			S162.4,21.7,161.3,21.7z"/>
		<path class="st0" d="M177.6,41.8h-2c-0.9,0-1.4-0.5-1.4-1.4V18.7c0-0.9,0.5-1.4,1.4-1.4h2c0.9,0,1.4,0.5,1.4,1.4v21.7
			C179,41.3,178.5,41.8,177.6,41.8z"/>
	</g>
</g>
</svg>
