<?xml version="1.0" encoding="utf-8"?>
<!-- Generator: Adobe Illustrator 19.1.0, SVG Export Plug-In . SVG Version: 6.00 Build 0)  -->
<svg version="1.1" id="Calque_1" xmlns="http://www.w3.org/2000/svg" xmlns:xlink="http://www.w3.org/1999/xlink" x="0px" y="0px"
	 viewBox="0 0 204.6 61.8" style="enable-background:new 0 0 204.6 61.8;" xml:space="preserve">
<style type="text/css">
	.st0{fill:#E01220;}
	.st1{fill:#1F7CAD;}
	.st2{fill:#C0BFBF;}
	.st3{fill:#1F7CAD;stroke:#000000;stroke-width:2;stroke-miterlimit:10;}
	.st4{fill:#6DA3C3;}
	.st5{fill:none;stroke:#E01220;stroke-width:3;stroke-miterlimit:10;}
	.st6{fill:#F5FBF9;}
	.st7{fill:#1D1D1B;}
	.st8{fill:#010202;}
</style>
<g>
	<path d="M203.1,59.4c-6,2.7-11.5,2-16.8,2.2C177,62,13,61.4,6.5,61.2C0,60.9,2.1,52.7,1.8,47C1.3,38.4,1,29.8,0.6,21.3
		C0.4,16.6,0.2,11.9,0,7.2C0,5.3,0,3.5,0,1.9c2.2-1.6,4.2-1.8,6.6-1.7c7,0.3,186.2,0,187.3-0.1c5.1-0.6,8.2,1.6,9.1,6.4
		c1.4,7.5,1.7,15,1.5,22.6c-0.1,4.7,0.1,9.4-0.1,14.1C204.2,49.3,203.6,53.4,203.1,59.4z M7.2,54.2c5.6,0,129.6,0.6,137.5,0.4
		c16.1-0.4,32.1-0.6,48.2-0.9c4-0.1,3.9-1,4.3-4.4c0.4-3.5,0.3-7.1,0.2-10.6c-0.1-6.6-0.2-13.1-0.6-19.7c-0.3-4.6-1.2-9.2-1.8-13.9
		c-4.9,0-9.2,0-13.6,0c-7.2,0.1-14.4,0.2-21.6,0.2c-8.7,0-17.3-0.3-26-0.2c-14.1,0.1-28.2,0.4-42.3,0.5c-10.4,0.1-77.6-0.9-87.1,0
		C3.1,11.6,5.3,49,7.2,54.2z"/>
	<g>
		<path class="st0" d="M55.8,27.7c2.5,0.1,4.4,0.4,5.8,0.9s2.4,1.2,3.1,2.2s1,2.3,1,4v0.2c0,2.5-0.9,4.3-2.7,5.5
			c-1.8,1.2-4.4,1.8-8,1.8c-3.4,0-5.9-0.6-7.6-1.7c-1.7-1.1-2.7-2.9-3-5.3c0-0.1,0-0.2,0-0.4c0-0.2,0-0.3,0-0.4
			c0-0.8,0.4-1.2,1.2-1.2h2.2c0.5,0,0.9,0.1,1,0.2s0.3,0.5,0.4,0.9c0,0.2,0.1,0.5,0.2,0.7c0.3,1,0.9,1.7,1.9,2.2s2.2,0.7,3.8,0.7
			c2,0,3.4-0.2,4.4-0.7c1-0.5,1.4-1.2,1.4-2.2V35c0-0.7-0.2-1.3-0.5-1.7s-1-0.7-1.9-0.9s-2.2-0.4-4-0.5c-2-0.1-3.7-0.3-5-0.6
			s-2.3-0.7-3.1-1.3s-1.3-1.2-1.6-2s-0.5-1.7-0.5-2.9v-0.3c0-2.3,0.9-4.1,2.7-5.4s4.4-1.9,8-1.9c3.1,0,5.6,0.6,7.3,1.7
			s2.8,2.7,3.2,4.8c0,0.2,0.1,0.5,0.1,0.8c0.1,0.8-0.3,1.2-1.2,1.2h-2.1c-0.5,0-0.9-0.1-1.1-0.2s-0.3-0.4-0.4-0.9
			c-0.1-0.3-0.2-0.6-0.3-0.8c-0.7-1.6-2.6-2.4-5.6-2.4c-3.9,0-5.8,0.9-5.8,2.8v0.2c0,0.5,0.1,0.9,0.2,1.2c0.2,0.3,0.5,0.6,1,0.8
			s1.2,0.4,2.1,0.6C53.3,27.5,54.4,27.6,55.8,27.7z"/>
		<path class="st0" d="M70.3,41c-0.2,0.7-0.7,1.1-1.4,1.1h-2c-0.5,0-0.8-0.1-1-0.4s-0.3-0.6-0.1-1.1l7.1-22c0.2-0.7,0.6-1,1.3-1h4.3
			c0.7,0,1.1,0.3,1.3,1l7.1,22c0.1,0.4,0.1,0.8-0.1,1.1s-0.5,0.4-1,0.4h-2c-0.7,0-1.2-0.4-1.4-1.1l-1.4-4.6h-9.2L70.3,41z
			 M79.7,32.5l-3.4-11.1l-3.4,11.1H79.7z"/>
		<path class="st0" d="M102.7,42.1h-1c-0.7,0-1.1-0.3-1.3-0.9l-7.3-17.8v17.3c0,0.9-0.5,1.4-1.4,1.4h-1.9c-0.9,0-1.4-0.5-1.4-1.4V19
			c0-0.9,0.5-1.4,1.4-1.4h4.4c0.7,0,1.1,0.3,1.3,0.9l6.6,15.8l6.7-15.8c0.2-0.6,0.7-0.9,1.4-0.9h4.3c0.9,0,1.4,0.5,1.4,1.4v21.7
			c0,0.9-0.5,1.4-1.4,1.4h-1.9c-0.9,0-1.4-0.5-1.4-1.4V23.4L104,41.2C103.8,41.8,103.4,42.1,102.7,42.1z"/>
		<path class="st0" d="M131.9,42.1h-13.1c-0.9,0-1.4-0.5-1.4-1.4V19c0-0.9,0.5-1.4,1.4-1.4h13.1c0.9,0,1.3,0.5,1.3,1.4v1.8
			c0,0.9-0.4,1.4-1.3,1.4h-9.6v4.9h9.2c0.9,0,1.3,0.5,1.3,1.4v1.6c0,0.9-0.4,1.4-1.3,1.4h-9.2v6h9.6c0.9,0,1.3,0.5,1.3,1.4v1.8
			C133.3,41.6,132.8,42.1,131.9,42.1z"/>
		<path class="st0" d="M144.5,42.1h-8.3c-0.9,0-1.4-0.5-1.4-1.4V19c0-0.9,0.5-1.4,1.4-1.4h8.3c3.9,0,6.8,0.9,8.6,2.7
			s2.7,4.5,2.7,8.2v2.7c0,3.6-0.9,6.4-2.7,8.2S148.5,42.1,144.5,42.1z M144.5,22.1h-4.9v15.6h4.9c1.2,0,2.2-0.1,3-0.3s1.5-0.6,2-1.2
			c0.6-0.5,1-1.3,1.2-2.2c0.3-0.9,0.4-2,0.4-3.4v-1.4c0-1.4-0.1-2.5-0.4-3.4c-0.3-0.9-0.7-1.6-1.2-2.2c-0.6-0.5-1.2-0.9-2-1.1
			S145.6,22.1,144.5,22.1z"/>
		<path class="st0" d="M160.8,42.1h-2c-0.9,0-1.4-0.5-1.4-1.4V19c0-0.9,0.5-1.4,1.4-1.4h2c0.9,0,1.4,0.5,1.4,1.4v21.7
			C162.2,41.6,161.7,42.1,160.8,42.1z"/>
	</g>
</g>
</svg>
