<?xml version="1.0" encoding="utf-8"?>
<!-- Generator: Adobe Illustrator 19.1.0, SVG Export Plug-In . SVG Version: 6.00 Build 0)  -->
<svg version="1.1" id="Calque_1" xmlns="http://www.w3.org/2000/svg" xmlns:xlink="http://www.w3.org/1999/xlink" x="0px" y="0px"
	 viewBox="0 0 204 60.9" style="enable-background:new 0 0 204 60.9;" xml:space="preserve">
<style type="text/css">
	.st0{fill:#E01220;}
	.st1{fill:#1F7CAD;}
	.st2{fill:#C0BFBF;}
	.st3{fill:#1F7CAD;stroke:#000000;stroke-width:2;stroke-miterlimit:10;}
	.st4{fill:#6DA3C3;}
	.st5{fill:none;stroke:#E01220;stroke-width:3;stroke-miterlimit:10;}
	.st6{fill:#F5FBF9;}
	.st7{fill:#1D1D1B;}
	.st8{fill:#010202;}
</style>
<g>
	<path d="M2,2.8c7.3,0,195.2-1.1,196.6-2.7c0.3-0.3,1.6,0,2.3,0.4c1.9,1.3,2.8,3.3,2.9,5.6c0.3,5.5-0.2,47-0.2,49.4
		c0,1.4-0.1,2.7-0.1,3.9C193.5,63,9.6,58.8,6.5,58.5c-3.4-0.4-5.1-2-5.7-5.2c-0.4-2.1-0.5-4.3-0.6-6.4C-0.1,42.1-0.3,6.1,2,2.8z
		 M196.3,7C191.2,5.4,18.6,7.5,7.8,7.8c-1.2,0-2.5,0.4-3.4,0.6C3.5,26.1,4.3,37,3.9,51.2c1.6,0,184.3,0.7,191.5,1.3
		c0.1,0,0.2-0.1,0.7-0.5C197,37.2,197.5,22.2,196.3,7z"/>
	<g>
		<path class="st0" d="M40.8,41.2h-4.2c-0.7,0-1.2-0.3-1.4-1l-7-22c-0.1-0.4-0.1-0.8,0.1-1.1s0.5-0.4,1-0.4h2c0.7,0,1.2,0.4,1.3,1.1
			l6,19.6l6-19.6c0.2-0.7,0.6-1.1,1.3-1.1h2.1c0.5,0,0.8,0.1,1,0.4s0.2,0.6,0.1,1.1l-7,22C42,40.8,41.5,41.2,40.8,41.2z"/>
		<path class="st0" d="M65.2,41.2H52.2c-0.9,0-1.4-0.5-1.4-1.4V18.1c0-0.9,0.5-1.4,1.4-1.4h13.1c0.9,0,1.3,0.5,1.3,1.4v1.8
			c0,0.9-0.4,1.4-1.3,1.4h-9.6v4.9h9.2c0.9,0,1.3,0.5,1.3,1.4v1.6c0,0.9-0.4,1.4-1.3,1.4h-9.2v6h9.6c0.9,0,1.3,0.5,1.3,1.4v1.8
			C66.6,40.7,66.1,41.2,65.2,41.2z"/>
		<path class="st0" d="M87.2,41.2h-2.1c-0.5,0-0.9-0.2-1.3-0.7L72.7,24.8v14.9c0,0.9-0.5,1.4-1.4,1.4h-1.8c-0.9,0-1.4-0.5-1.4-1.4
			V18.1c0-0.9,0.5-1.4,1.4-1.4h2c0.6,0,1,0.2,1.3,0.7l11.2,15.1V18.1c0-0.9,0.5-1.4,1.4-1.4h1.9c0.9,0,1.3,0.5,1.3,1.4v21.7
			C88.5,40.7,88.1,41.2,87.2,41.2z"/>
		<path class="st0" d="M99.8,41.2h-8.3c-0.9,0-1.4-0.5-1.4-1.4V18.1c0-0.9,0.5-1.4,1.4-1.4h8.3c3.9,0,6.8,0.9,8.6,2.7
			s2.7,4.5,2.7,8.2v2.7c0,3.6-0.9,6.4-2.7,8.2S103.7,41.2,99.8,41.2z M99.7,21.2h-4.9v15.6h4.9c1.2,0,2.2-0.1,3-0.3s1.5-0.6,2-1.2
			c0.6-0.5,1-1.3,1.2-2.2c0.3-0.9,0.4-2,0.4-3.4v-1.4c0-1.4-0.1-2.5-0.4-3.4c-0.3-0.9-0.7-1.6-1.2-2.2c-0.6-0.5-1.2-0.9-2-1.1
			S100.9,21.2,99.7,21.2z"/>
		<path class="st0" d="M116,41.2h-2c-0.9,0-1.4-0.5-1.4-1.4V18.1c0-0.9,0.5-1.4,1.4-1.4h7.9c1.7,0,3.1,0.1,4.1,0.4
			c1.1,0.2,1.9,0.7,2.6,1.2c0.6,0.6,1.1,1.3,1.3,2.1s0.4,1.9,0.4,3.2v0.6c0,1.5-0.3,2.9-0.9,4s-1.6,1.9-3,2.5l3.8,8.8
			c0.2,0.4,0.2,0.8,0,1.1c-0.2,0.3-0.5,0.5-0.9,0.5h-2.6c-0.7,0-1.1-0.3-1.4-0.9l-3.7-8.9h-4.2v8.5C117.4,40.7,117,41.2,116,41.2z
			 M121.9,21.2h-4.5v6.1h4.5c1.3,0,2.3-0.2,2.8-0.6c0.5-0.4,0.8-1.1,0.8-2.3v-0.5c0-1.1-0.3-1.9-0.8-2.2
			C124.2,21.3,123.2,21.2,121.9,21.2z"/>
		<path class="st0" d="M146.3,41.2h-13.1c-0.9,0-1.4-0.5-1.4-1.4V18.1c0-0.9,0.5-1.4,1.4-1.4h13.1c0.9,0,1.3,0.5,1.3,1.4v1.8
			c0,0.9-0.4,1.4-1.3,1.4h-9.6v4.9h9.2c0.9,0,1.3,0.5,1.3,1.4v1.6c0,0.9-0.4,1.4-1.3,1.4h-9.2v6h9.6c0.9,0,1.3,0.5,1.3,1.4v1.8
			C147.6,40.7,147.2,41.2,146.3,41.2z"/>
		<path class="st0" d="M158.9,41.2h-8.3c-0.9,0-1.4-0.5-1.4-1.4V18.1c0-0.9,0.5-1.4,1.4-1.4h8.3c3.9,0,6.8,0.9,8.6,2.7
			s2.7,4.5,2.7,8.2v2.7c0,3.6-0.9,6.4-2.7,8.2S162.8,41.2,158.9,41.2z M158.8,21.2h-4.9v15.6h4.9c1.2,0,2.2-0.1,3-0.3s1.5-0.6,2-1.2
			c0.6-0.5,1-1.3,1.2-2.2c0.3-0.9,0.4-2,0.4-3.4v-1.4c0-1.4-0.1-2.5-0.4-3.4c-0.3-0.9-0.7-1.6-1.2-2.2c-0.6-0.5-1.2-0.9-2-1.1
			S160,21.2,158.8,21.2z"/>
		<path class="st0" d="M175.1,41.2h-2c-0.9,0-1.4-0.5-1.4-1.4V18.1c0-0.9,0.5-1.4,1.4-1.4h2c0.9,0,1.4,0.5,1.4,1.4v21.7
			C176.5,40.7,176,41.2,175.1,41.2z"/>
	</g>
</g>
</svg>
