<?xml version="1.0" encoding="utf-8"?>
<!-- Generator: Adobe Illustrator 19.1.0, SVG Export Plug-In . SVG Version: 6.00 Build 0)  -->
<svg version="1.1" id="Calque_1" xmlns="http://www.w3.org/2000/svg" xmlns:xlink="http://www.w3.org/1999/xlink" x="0px" y="0px"
	 viewBox="13 100.7 325.4 131.3" style="enable-background:new 13 100.7 325.4 131.3;" xml:space="preserve">
<style type="text/css">
	.st0{enable-background:new    ;}
	.st1{fill:#008A90;}
</style>
<g>
	<path d="M321.2,192.6c-2.5,2.1-5.1,4.3-7.9,5.8c-4.1,2.2-7.8,4.9-12.3,6.3c-3.5,1.1-6.9,2.4-10.5,3.1c-3.8,0.8-7.5,1.4-11.4,1.2
		c-1.9-0.1-213.6,0.3-215.2,0.9c-1.4,0.5-2.5,1.7-3.6,2.8c-1,1-1.9,2.2-2.8,3.4c-2.4,3-4.9,5.9-7.3,8.9c-1.8,2.1-3.5,4.3-5.3,6.4
		c-0.7,0.8-1.9,0.8-2.7,0.2c-1.3-1-1.3-1.5-0.9-2.8c0.5-1.6,0.6-3.3,0.7-4.9c0.5-5.5,1.1-11.1,1.6-16.6c0.2-1.7-0.2-2-1.9-2.7
		c-1.9-0.7-3.7-1.5-5.5-2.4c-1.5-0.7-2.9-1.6-4.3-2.4c-0.5-0.3-1-0.7-1.5-1.1c-3.8-3-7.2-6.4-9.7-10.7c-2-3.4-3.7-7-4.5-10.9
		c-0.5-2.3-1.5-4.5-2-6.8c-1.6-7.1-1.4-14.3-0.3-21.4c0.8-5.3,2.1-10.5,4.7-15.2c1.9-3.4,3.6-7.1,5.8-10.3c2.2-3.2,4.7-6.2,7.7-8.8
		c2.7-2.4,5.7-4.4,8.8-6c2.8-1.4,5.8-2.6,8.7-3.7c2.8-1.1,5.6-1.9,8.5-2.8c6.5-1.8,217.7-1.4,218.9-1.2c9,0.5,19.2,5.1,22.8,6.5
		c2.5,1,5.1,2.2,7.4,3.6c2.9,1.7,5.9,3.2,8.4,5.6c2.2,2.1,4.7,3.8,6.9,5.8c3.4,3.1,6.5,6.5,9,10.4c1.7,2.7,3.1,5.5,4.4,8.3
		c1.5,3.2,2,6.7,2.2,10.2c0.1,2.4,0.5,4.9,0.4,7.3c-0.2,3.1-0.7,6.1-1.2,9.2c-0.3,2-0.8,3.9-1.5,5.8c-1.4,3.7-3.7,7-6,10.2
		C329,184.6,323.5,190.7,321.2,192.6z M45.4,224.5c0.2,0.1,0.3,0.1,0.5,0.2c1.3-1.5,2.5-3,3.8-4.5c1.6-1.9,3.1-3.9,4.7-5.9
		c1-1.2,2.2-2.3,3.2-3.5c1-1.1,2.2-2.2,3-3.5c0.6-1,1.5-1.1,2.4-1.4c1-0.3,2-0.7,3-1c0.8-0.2,1.6-0.4,2.4-0.5c0.7,0,1.5,0.2,2.2,0.2
		c1.2,0,204.6-0.1,205.8-0.1c1.4,0,2.8,0.1,4.1-0.1c2.3-0.3,4.5-0.8,6.7-1.1c4-0.6,7.8-1.8,11.6-3.2c1.6-0.6,3.1-1.3,4.5-2.1
		c1.9-1.1,3.7-2.3,5.6-3.4c2-1.3,4.3-2.3,6.1-3.9c3-2.6,5.6-5.5,8.4-8.3c3.2-3.2,5.1-7.3,7-11.4c0.7-1.5,1.3-3.2,1.5-4.8
		c0.2-2.7,0-5.3-0.2-8c-0.2-3.3-0.5-6.6-1-9.8c-0.5-2.8-1.5-5.5-2.6-8.2c-1.3-3.1-2.8-6.1-4.8-8.7c-1.8-2.3-3.7-4.6-5.7-6.8
		c-1.2-1.3-2.3-2.7-3.7-3.7c-2-1.5-3.9-3.1-6.3-4.2c-2.1-1-4-2.3-6.1-3.3c-1.4-0.7-2.8-1.3-4.2-1.9c-1.3-0.6-2.6-1.1-4-1.6
		c-3.3-1.2-6.8-2-10.2-2.7c-4.6-0.9-211.3-2.1-216.1-2c-4,0.1-7.9,0.2-11.7,1.5c-1.8,0.6-9.4,1.4-16.7,6.8c-1.8,1.3-3.5,2.7-5.2,4
		c-3.2,2.5-5.4,5.9-7.7,9.2c-1.7,2.5-2.8,5.4-4.1,8.1c-0.3,0.6-0.4,1.4-0.8,2c-1.7,3.1-2.6,6.6-3.2,10.1c-0.9,5.4-1.4,10.9-0.9,16.4
		c0.2,1.9,0.4,3.9,0.6,5.8c0,0.2,0.1,0.5,0.2,0.7c0.6,1.7,1.4,3.3,1.7,5.1c0.6,3.2,1.6,6.2,3.2,9s3.1,5.6,5.4,7.9
		c3.3,3.4,7,6.3,11.2,8.5c2.4,1.3,4.7,2.6,7.5,2.2c0.8,1.2,1.1,2.3,0.6,3.6c-0.2,0.7-0.2,1.4-0.3,2.1c-0.3,3.2-0.7,6.4-1,9.6
		C45.7,220,45.6,222.2,45.4,224.5z"/>
	<g>
		<g class="st0">
			<path class="st1" d="M68.7,149.1h-5.1c-0.9,0-1.3-0.5-1.3-1.4v-0.3c-1.1,0.2-2.2,0.4-3.5,0.4c-1.9,0-3.6-0.3-5-0.8
				s-2.6-1.3-3.6-2.3c-0.9-1-1.6-2.2-2.1-3.5s-0.7-2.9-0.7-4.6v-2.5c0-3.5,1-6.2,2.9-8.1s4.7-3,8.5-3c1.9,0,3.6,0.3,5,0.8
				s2.6,1.3,3.6,2.2s1.6,2.1,2.1,3.5s0.7,2.9,0.7,4.6v2.5c0,3.8-1.3,6.7-3.8,8.6h2.3c0.9,0,1.4,0.5,1.4,1.4v1.1
				C70,148.6,69.6,149.1,68.7,149.1z M65.3,136.3v-2c0-1.3-0.1-2.4-0.4-3.3c-0.3-0.9-0.7-1.6-1.2-2.1s-1.2-0.9-2-1.1
				s-1.8-0.3-2.9-0.3c-1.2,0-2.2,0.1-3,0.3s-1.5,0.6-2,1.1s-1,1.2-1.2,2.1c-0.3,0.9-0.4,2-0.4,3.3v2c0,1.3,0.1,2.4,0.4,3.3
				s0.7,1.6,1.2,2.1s1.2,0.9,2,1.1c0.8,0.2,1.8,0.3,3,0.3s2.2-0.1,2.9-0.3c0.8-0.2,1.5-0.6,2-1.1s1-1.2,1.2-2.1
				C65.2,138.8,65.3,137.7,65.3,136.3z"/>
			<path class="st1" d="M92.4,136.3c0,2.1-0.2,3.8-0.5,5.2s-1,2.6-1.8,3.5s-1.9,1.6-3.1,2s-2.9,0.6-4.7,0.6c-2.5,0-4.5-0.4-5.9-1.1
				s-2.6-2-3.2-3.6s-1-3.9-1-6.7v-11.9c0-0.9,0.5-1.4,1.4-1.4h2c0.9,0,1.4,0.5,1.4,1.4v11.8c0,2.5,0.4,4.3,1.3,5.4s2.2,1.6,4.1,1.6
				c1.9,0,3.3-0.5,4.2-1.6s1.3-2.9,1.3-5.4v-11.8c0-0.9,0.5-1.4,1.4-1.4H91c0.9,0,1.3,0.5,1.3,1.4V136.3z"/>
			<path class="st1" d="M98.2,127.2l-0.8,1.9c-0.2,0.4-0.5,0.7-1,0.7h-0.9c-0.3,0-0.5-0.1-0.6-0.3s-0.2-0.4-0.1-0.7l0.7-1.9h-0.1
				c-0.4,0-0.7-0.1-0.9-0.3s-0.3-0.5-0.3-1v-1.1c0-0.9,0.5-1.4,1.4-1.4H97c0.9,0,1.4,0.5,1.4,1.4v1.9
				C98.3,126.7,98.3,127,98.2,127.2z"/>
			<path class="st1" d="M114.5,147.6h-13.1c-0.9,0-1.4-0.5-1.4-1.4v-21.7c0-0.9,0.5-1.4,1.4-1.4h13.1c0.9,0,1.3,0.5,1.3,1.4v1.8
				c0,0.9-0.4,1.4-1.3,1.4h-9.6v4.9h9.2c0.9,0,1.3,0.5,1.3,1.4v1.6c0,0.9-0.4,1.4-1.3,1.4h-9.2v6h9.6c0.9,0,1.3,0.5,1.3,1.4v1.8
				C115.9,147.1,115.4,147.6,114.5,147.6z"/>
			<path class="st1" d="M128.6,133.2c2.5,0.1,4.4,0.4,5.8,0.9s2.4,1.2,3.1,2.2s1,2.3,1,4v0.2c0,2.5-0.9,4.3-2.7,5.5
				c-1.8,1.2-4.4,1.8-8,1.8c-3.4,0-5.9-0.6-7.6-1.7c-1.7-1.1-2.7-2.9-3-5.3c0-0.1,0-0.2,0-0.4c0-0.2,0-0.3,0-0.4
				c0-0.8,0.4-1.2,1.2-1.2h2.2c0.5,0,0.9,0.1,1,0.2s0.3,0.5,0.4,0.9c0,0.2,0.1,0.5,0.2,0.7c0.3,1,0.9,1.7,1.9,2.2s2.2,0.7,3.8,0.7
				c2,0,3.4-0.2,4.4-0.7c1-0.5,1.4-1.2,1.4-2.2v-0.1c0-0.7-0.2-1.3-0.5-1.7s-1-0.7-1.9-0.9s-2.2-0.4-4-0.5c-2-0.1-3.7-0.3-5-0.6
				s-2.3-0.7-3.1-1.3s-1.3-1.2-1.6-2s-0.5-1.7-0.5-2.9v-0.3c0-2.3,0.9-4.1,2.7-5.4s4.4-1.9,8-1.9c3.1,0,5.6,0.6,7.3,1.7
				s2.8,2.7,3.2,4.8c0,0.2,0.1,0.5,0.1,0.8c0.1,0.8-0.3,1.2-1.2,1.2h-2.1c-0.5,0-0.9-0.1-1.1-0.2s-0.3-0.4-0.4-0.9
				c-0.1-0.3-0.2-0.6-0.3-0.8c-0.7-1.6-2.6-2.4-5.6-2.4c-3.9,0-5.8,0.9-5.8,2.8v0.2c0,0.5,0.1,0.9,0.2,1.2c0.2,0.3,0.5,0.6,1,0.8
				s1.2,0.4,2.1,0.6C126,133,127.2,133.1,128.6,133.2z"/>
			<path class="st1" d="M146.1,127.9h-5.8c-0.9,0-1.3-0.5-1.3-1.4v-2c0-0.9,0.4-1.4,1.3-1.4h16.3c0.9,0,1.4,0.5,1.4,1.4v2
				c0,0.9-0.5,1.4-1.4,1.4h-5.8v18.3c0,0.9-0.4,1.4-1.3,1.4h-2.1c-0.9,0-1.4-0.5-1.4-1.4V127.9z"/>
			<path class="st1" d="M163.8,134.4v0.7c0,0.9-0.5,1.4-1.4,1.4h-3.8c-0.9,0-1.4-0.5-1.4-1.4v-0.7c0-0.9,0.5-1.3,1.4-1.3h3.8
				C163.3,133.1,163.8,133.5,163.8,134.4z"/>
			<path class="st1" d="M176.8,147.7c-2,0-3.7-0.2-5.1-0.6c-1.4-0.4-2.6-1-3.5-1.9c-0.9-0.9-1.6-2-2.1-3.5s-0.7-3.1-0.7-5.2v-2.6
				c0-1.7,0.2-3.2,0.7-4.5s1.1-2.5,2-3.4c0.9-1,2.1-1.7,3.5-2.2c1.5-0.5,3.2-0.8,5.2-0.8c3.3,0,6,0.7,7.8,2c1.9,1.4,3,3.3,3.3,5.9
				c0.1,0.4,0.1,0.8,0.1,1.1c0.1,0.9-0.3,1.3-1.2,1.3h-2.2c-0.5,0-0.8-0.1-1-0.3c-0.2-0.2-0.3-0.5-0.4-1c-0.1-0.5-0.2-0.8-0.2-0.9
				c-0.3-1.3-1-2.2-2.1-2.8c-1-0.6-2.5-0.9-4.3-0.9c-1.5,0-2.7,0.2-3.7,0.6s-1.6,1.1-2.1,2.1c-0.5,1-0.7,2.4-0.7,4.1v2
				c0,2.5,0.5,4.2,1.5,5.3c1,1.1,2.7,1.6,4.9,1.6c1.9,0,3.4-0.3,4.4-0.9s1.7-1.7,2-3.1c0.1-0.3,0.1-0.6,0.1-0.8c0-0.5,0.2-0.8,0.4-1
				c0.2-0.2,0.5-0.3,1-0.3h2.2c0.9,0,1.3,0.4,1.2,1.3c0,0,0,0.4-0.1,1c-0.3,2.9-1.4,5-3.2,6.3S180.3,147.7,176.8,147.7z"/>
			<path class="st1" d="M204.4,147.6h-13.1c-0.9,0-1.4-0.5-1.4-1.4v-21.7c0-0.9,0.5-1.4,1.4-1.4h13.1c0.9,0,1.3,0.5,1.3,1.4v1.8
				c0,0.9-0.4,1.4-1.3,1.4h-9.6v4.9h9.2c0.9,0,1.3,0.5,1.3,1.4v1.6c0,0.9-0.4,1.4-1.3,1.4h-9.2v6h9.6c0.9,0,1.3,0.5,1.3,1.4v1.8
				C205.7,147.1,205.3,147.6,204.4,147.6z"/>
		</g>
		<g class="st0">
			<path class="st1" d="M68.7,189.1h-5.1c-0.9,0-1.3-0.5-1.3-1.4v-0.3c-1.1,0.2-2.2,0.4-3.5,0.4c-1.9,0-3.6-0.3-5-0.8
				s-2.6-1.3-3.6-2.3c-0.9-1-1.6-2.2-2.1-3.5s-0.7-2.9-0.7-4.6v-2.5c0-3.5,1-6.2,2.9-8.1s4.7-3,8.5-3c1.9,0,3.6,0.3,5,0.8
				s2.6,1.3,3.6,2.2s1.6,2.1,2.1,3.5s0.7,2.9,0.7,4.6v2.5c0,3.8-1.3,6.7-3.8,8.6h2.3c0.9,0,1.4,0.5,1.4,1.4v1.1
				C70,188.6,69.6,189.1,68.7,189.1z M65.3,176.3v-2c0-1.3-0.1-2.4-0.4-3.3c-0.3-0.9-0.7-1.6-1.2-2.1s-1.2-0.9-2-1.1
				s-1.8-0.3-2.9-0.3c-1.2,0-2.2,0.1-3,0.3s-1.5,0.6-2,1.1s-1,1.2-1.2,2.1c-0.3,0.9-0.4,2-0.4,3.3v2c0,1.3,0.1,2.4,0.4,3.3
				s0.7,1.6,1.2,2.1s1.2,0.9,2,1.1c0.8,0.2,1.8,0.3,3,0.3s2.2-0.1,2.9-0.3c0.8-0.2,1.5-0.6,2-1.1s1-1.2,1.2-2.1
				C65.2,178.8,65.3,177.7,65.3,176.3z"/>
			<path class="st1" d="M92.4,176.3c0,2.1-0.2,3.8-0.5,5.2s-1,2.6-1.8,3.5s-1.9,1.6-3.1,2s-2.9,0.6-4.7,0.6c-2.5,0-4.5-0.4-5.9-1.1
				s-2.6-2-3.2-3.6s-1-3.9-1-6.7v-11.9c0-0.9,0.5-1.4,1.4-1.4h2c0.9,0,1.4,0.5,1.4,1.4v11.8c0,2.5,0.4,4.3,1.3,5.4s2.2,1.6,4.1,1.6
				c1.9,0,3.3-0.5,4.2-1.6s1.3-2.9,1.3-5.4v-11.8c0-0.9,0.5-1.4,1.4-1.4H91c0.9,0,1.3,0.5,1.3,1.4V176.3z"/>
			<path class="st1" d="M108.8,187.6H95.7c-0.9,0-1.4-0.5-1.4-1.4v-21.7c0-0.9,0.5-1.4,1.4-1.4h13.1c0.9,0,1.3,0.5,1.3,1.4v1.8
				c0,0.9-0.4,1.4-1.3,1.4h-9.6v4.9h9.2c0.9,0,1.3,0.5,1.3,1.4v1.6c0,0.9-0.4,1.4-1.3,1.4h-9.2v6h9.6c0.9,0,1.3,0.5,1.3,1.4v1.8
				C110.1,187.1,109.7,187.6,108.8,187.6z"/>
			<path class="st1" d="M126.4,167.9h-5.8c-0.9,0-1.3-0.5-1.3-1.4v-2c0-0.9,0.4-1.4,1.3-1.4H137c0.9,0,1.4,0.5,1.4,1.4v2
				c0,0.9-0.5,1.4-1.4,1.4h-5.8v18.3c0,0.9-0.4,1.4-1.3,1.4h-2.1c-0.9,0-1.4-0.5-1.4-1.4V167.9z"/>
			<path class="st1" d="M160.6,176.3c0,2.1-0.2,3.8-0.5,5.2s-1,2.6-1.8,3.5s-1.9,1.6-3.1,2s-2.9,0.6-4.7,0.6c-2.5,0-4.5-0.4-5.9-1.1
				s-2.6-2-3.2-3.6s-1-3.9-1-6.7v-11.9c0-0.9,0.5-1.4,1.4-1.4h2c0.9,0,1.4,0.5,1.4,1.4v11.8c0,2.5,0.4,4.3,1.3,5.4s2.2,1.6,4.1,1.6
				c1.9,0,3.3-0.5,4.2-1.6s1.3-2.9,1.3-5.4v-11.8c0-0.9,0.5-1.4,1.4-1.4h2.1c0.9,0,1.3,0.5,1.3,1.4V176.3z"/>
			<path class="st1" d="M174.5,186.5c-0.2,0.7-0.7,1.1-1.4,1.1h-2c-0.5,0-0.8-0.1-1-0.4s-0.3-0.6-0.1-1.1l7.1-22
				c0.2-0.7,0.6-1,1.3-1h4.3c0.7,0,1.1,0.3,1.3,1l7.1,22c0.1,0.4,0.1,0.8-0.1,1.1s-0.5,0.4-1,0.4h-2c-0.7,0-1.2-0.4-1.4-1.1
				l-1.4-4.6h-9.2L174.5,186.5z M183.9,177.9l-3.4-11.1l-3.4,11.1H183.9z"/>
			<path class="st1" d="M202.8,173.2c2.5,0.1,4.4,0.4,5.8,0.9c1.4,0.5,2.4,1.2,3.1,2.2s1,2.3,1,4v0.2c0,2.5-0.9,4.3-2.7,5.5
				c-1.8,1.2-4.4,1.8-8,1.8c-3.4,0-5.9-0.6-7.6-1.7c-1.7-1.1-2.7-2.9-3-5.3c0-0.1,0-0.2,0-0.4c0-0.2,0-0.3,0-0.4
				c0-0.8,0.4-1.2,1.2-1.2h2.2c0.5,0,0.9,0.1,1,0.2s0.3,0.5,0.4,0.9c0,0.2,0.1,0.5,0.2,0.7c0.3,1,0.9,1.7,1.9,2.2s2.2,0.7,3.8,0.7
				c2,0,3.4-0.2,4.4-0.7c1-0.5,1.4-1.2,1.4-2.2v-0.1c0-0.7-0.2-1.3-0.5-1.7c-0.4-0.4-1-0.7-1.9-0.9s-2.2-0.4-4-0.5
				c-2-0.1-3.7-0.3-5-0.6s-2.3-0.7-3.1-1.3s-1.3-1.2-1.6-2s-0.5-1.7-0.5-2.9v-0.3c0-2.3,0.9-4.1,2.7-5.4s4.4-1.9,8-1.9
				c3.1,0,5.6,0.6,7.3,1.7c1.8,1.1,2.8,2.7,3.2,4.8c0,0.2,0.1,0.5,0.1,0.8c0.1,0.8-0.3,1.2-1.2,1.2h-2.1c-0.5,0-0.9-0.1-1.1-0.2
				c-0.2-0.1-0.3-0.4-0.4-0.9c-0.1-0.3-0.2-0.6-0.3-0.8c-0.7-1.6-2.6-2.4-5.6-2.4c-3.9,0-5.8,0.9-5.8,2.8v0.2c0,0.5,0.1,0.9,0.2,1.2
				c0.2,0.3,0.5,0.6,1,0.8s1.2,0.4,2.1,0.6C200.3,173,201.4,173.1,202.8,173.2z"/>
			<path class="st1" d="M231.6,187.6h-8.3c-0.9,0-1.4-0.5-1.4-1.4v-21.7c0-0.9,0.5-1.4,1.4-1.4h8.3c3.9,0,6.8,0.9,8.6,2.7
				s2.7,4.5,2.7,8.2v2.7c0,3.6-0.9,6.4-2.7,8.2S235.6,187.6,231.6,187.6z M231.6,167.6h-4.9v15.6h4.9c1.2,0,2.2-0.1,3-0.3
				s1.5-0.6,2-1.2c0.6-0.5,1-1.3,1.2-2.2c0.3-0.9,0.4-2,0.4-3.4v-1.4c0-1.4-0.1-2.5-0.4-3.4c-0.3-0.9-0.7-1.6-1.2-2.2
				c-0.6-0.5-1.2-0.9-2-1.1S232.7,167.6,231.6,167.6z"/>
			<path class="st1" d="M248.3,187.6h-2c-0.9,0-1.4-0.5-1.4-1.4v-21.7c0-0.9,0.5-1.4,1.4-1.4h2c0.9,0,1.4,0.5,1.4,1.4v21.7
				C249.7,187.1,249.2,187.6,248.3,187.6z"/>
			<path class="st1" d="M258.7,167.9h-5.8c-0.9,0-1.3-0.5-1.3-1.4v-2c0-0.9,0.4-1.4,1.3-1.4h16.3c0.9,0,1.4,0.5,1.4,1.4v2
				c0,0.9-0.5,1.4-1.4,1.4h-5.8v18.3c0,0.9-0.4,1.4-1.3,1.4H260c-0.9,0-1.4-0.5-1.4-1.4V167.9z"/>
		</g>
		<g class="st0">
			<path class="st1" d="M299.1,179.3v0.1c0,0.7-0.4,1-1.2,1h-1.2c-0.5,0-0.8-0.1-1-0.2s-0.3-0.4-0.3-0.8v-0.2c0-0.8,0.1-1.6,0.4-2.3
				s0.7-1.2,1.1-1.6c0.5-0.4,1-0.8,1.5-1.1c0.6-0.3,1.1-0.6,1.7-0.9s1.1-0.5,1.5-0.8c0.5-0.3,0.8-0.6,1.1-1s0.4-0.8,0.4-1.3V170
				c0-1-0.4-1.7-1.1-2.1c-0.7-0.4-2-0.7-3.7-0.7c-2.4,0-4,0.7-4.7,2c-0.1,0.4-0.3,0.7-0.3,1c-0.1,0.5-0.2,0.8-0.4,1s-0.6,0.3-1,0.3
				h-1.7c-0.4,0-0.8-0.1-1-0.4s-0.3-0.6-0.3-1.1c0.1-0.7,0.2-1.2,0.3-1.7c0.5-1.8,1.5-3.1,3-4s3.5-1.4,6-1.4c3.3,0,5.7,0.5,7.2,1.6
				c1.5,1.1,2.3,2.9,2.3,5.4v0.1c0,0.8-0.2,1.6-0.5,2.2c-0.3,0.7-0.7,1.2-1.2,1.7s-1.1,0.8-1.7,1.2s-1.2,0.7-1.9,1s-1.2,0.6-1.7,0.9
				s-0.9,0.6-1.2,1S299.1,178.9,299.1,179.3z M299.4,184.9v1.3c0,0.9-0.5,1.4-1.4,1.4h-1.5c-0.9,0-1.4-0.5-1.4-1.4v-1.3
				c0-0.9,0.5-1.4,1.4-1.4h1.4C298.9,183.6,299.4,184,299.4,184.9z"/>
		</g>
	</g>
</g>
</svg>
