<?xml version="1.0" encoding="utf-8"?>
<!-- Generator: Adobe Illustrator 19.1.0, SVG Export Plug-In . SVG Version: 6.00 Build 0)  -->
<svg version="1.1" id="Calque_1" xmlns="http://www.w3.org/2000/svg" xmlns:xlink="http://www.w3.org/1999/xlink" x="0px" y="0px"
	 viewBox="0 0 969.8 411.3" style="enable-background:new 0 0 969.8 411.3;" xml:space="preserve">
<style type="text/css">
	.st0{fill:#F4A300;}
	.st1{fill:#C0C0C0;}
	.st2{fill:#008A90;}
	.st3{fill:#6DA3C3;}
	.st4{fill:none;stroke:#F8AD3B;stroke-width:3;stroke-miterlimit:10;}
	.st5{fill:#F8AD3B;}
	.st6{fill:none;}
	.st7{fill:#E2F7EF;}
	.st8{fill:#FFFFFF;}
</style>
<path class="st7" d="M269.9,0.1c7.8,0,15.8,0.3,23.5,0.6l2,0.1c3.5,0.2,7.1,0.8,10.6,1.4c2.6,0.5,5.2,0.9,7.9,1.2
	c3.7,0.4,7.4,0.4,11,0.5c1.2,0,2.4,0,3.6,0c1.2,0,2.5,0,3.8,0.1c1.8,0,3.8,0,5.6,0.1c4.5,0.2,9,0.5,13.5,0.8
	c10,0.6,20.3,1.3,30.4,1.5c1.8,0,3.6,0,5.4,0c11.1,0,21.9-0.6,30.2-1c10.7-0.6,21.6-1.3,32.1-2c8.4-0.6,17.1-1.1,25.6-1.6
	c7-0.4,14.3-0.4,21.3-0.4c9,0,18.1,0.1,26.9,0.2c17.1,0.3,34.7,0.6,52.4,1.2c9.8,0.3,19.7,0.8,29.4,1.3c3.1,0.2,6.3,0.3,9.4,0.4
	l0.4,0c6.4,0.3,13,0.6,19.4,1.1c2.9,0.2,5.9,0.5,8.9,0.8c2.9,0.3,6,0.6,9,0.8c0.8,0,1.7,0.1,2.7,0.1c1.3,0,2.6,0,4-0.1
	c1.3,0,2.6-0.1,3.9-0.1c16-0.1,32.5-0.2,48.7-0.4c2.4,0,4.9-0.1,7.3-0.1c4.2-0.1,8.5-0.1,12.7-0.1c3.4,0,6.4,0,9.3,0.1
	c6.4,0.2,12.9,0.6,19.2,1c3.9,0.2,7.7,0.5,11.6,0.6c1.1,0.1,2.3,0.1,3.7,0.1c1,0,1.9,0,2.9,0c1,0,1.9,0,2.9,0c1.3,0,2.4,0,3.5,0.1
	c2.7,0.1,5.4,0.2,8.1,0.2c8.8,0.2,17.8,0.5,26.7,1.3c5.9,0.5,12.2,0.8,19.1,0.8c9.2,0,18.6-0.5,27.6-0.9l3.8-0.2
	c3.6-0.2,7.3-0.4,10.8-0.7c6.4-0.4,13-0.9,19.5-0.9c0.6,0,1.2,0,1.8,0c6.6,0,13.4,0.4,19.9,0.8c1.8,0.1,3.6,0.2,5.5,0.3
	c8.8,0.4,16.6,1,23.8,1.6c1.7,0.1,6.6,0.4,7.9,1.5c1.5,1.3,2.8,3.4,3.9,6.6c0.6,1.8,0.7,3.8,0.9,6c0.1,0.8,0.1,1.5,0.2,2.3
	c0.2,2.1-0.5,14.9-0.2,19.1c0.1,1.3,0,2.6,0,4.1c-0.1,1.2-0.1,2.5-0.1,3.8c0.6,10-0.1,20.5-2,31.3c-1,5.3-1.3,10.6-1.7,15.8
	c-0.2,3.6-0.5,7.3-0.9,10.9c-0.6,5.3-0.1,10.9,0.4,15.8c0.8,7.7-0.4,15.5-1.6,22.8c-2.2,13.3-0.4,27.3,1.5,44.2
	c1.6,14,0.9,28.9-0.8,43.7c-0.5,4.2-0.2,8.6,0,12.8c0.1,1.6,0.2,3.3,0.3,4.9c0,1.7,0,3.4,0,5.1c0,3.9,0,7.9,0.4,11.8
	c0.2,1.6,0.3,3.2,0.5,4.7c0.6,6.8,4.8,29.8,4.9,33.6c0.4,9.4,0.8,19.2,1.4,28.7c0.3,4.7,1,9.5,1.6,14.1c0.4,3.2,0.9,6.5,1.2,9.7
	c1.1,10.8,2,41-2.6,45c-2.1,1.9-12.5,2-21.2,2h25.2V0.1H269.9z"/>
<path class="st7" d="M719.2,406.7c-37.5-0.4-92.5-0.4-141.5-0.4c-23.6,0-48.3,0-73.3,0c-25.7,0-51.7,0-77.3,0
	c-78.5,0-165.4-0.1-213.8-1.1c-68.6-1.4-116.8-2-148.8-2.4c-33.3-0.4-51.8-0.7-54-1.3c-6.8-3.2-6-15.4-5.7-20c0-0.7,0.1-1.2,0.1-1.6
	c0-2.8,0.1-5.7,0.2-8.4c0.2-4.1,0.3-8.4,0.3-12.6c-0.1-5.2-0.3-10.5-0.6-15.7c-0.1-2.6-0.2-5.2-0.3-7.8l-0.1-1.4
	c-0.7-17.2-1.4-35-2.1-52.4c-0.2-3.7-0.4-7.5-0.7-11.2c-0.3-4.5-0.6-9.1-0.8-13.6c-0.2-4.8-0.2-9.8-0.2-14.6c0-2.5,0-4.9-0.1-7.4
	c0-1.9-0.2-3.9-0.3-5.7c-0.2-3.8-0.5-7.3,0-10.8c2.7-21.2,1.8-41.8,0.4-59.1c-1-12.9-0.4-26-0.4-38.6v-0.1c0-0.9,0-1.9,0.1-2.9
	c0.2-1.1,0.3-2.3,0.3-3.5C1.3,98.4,2.3,46,2.6,36.2c0-1.3,0-2.4-0.1-3.7l1-0.1c-0.9-6.1-0.8-12.1,2.3-18.5c0.5-1.1,1.2-1.9,1.7-2.3
	c6.9-4.6,14.4-6.9,22.3-7c2.8,0,6.7,0.2,9.5,0.4c2.4,0.1,4.9,0.3,7.3,0.3C52.1,5.3,57.6,5.3,63,5.4C68.5,5.5,74,5.6,79.4,5.7
	c2.7,0,5.5,0.1,8.2,0.2c2.7,0.1,5.5,0.2,8.2,0.2c13.6,0.3,27.4,0.5,40.7,0.7l0.6,0c2.2,0,4.4,0.1,6.6,0.1c3.4,0.1,7,0.2,10.5,0.2
	c0.9,0,1.9,0,2.8,0c3-0.1,5.9-0.3,8.8-0.5c2.3-0.2,4.8-0.4,7.1-0.5c5.2-0.2,10.4-0.4,15.5-0.5c3.5-0.1,6.9-0.2,10.4-0.3
	c2.5-0.1,5.1-0.3,7.6-0.6c0.8-0.1,1.6-0.2,2.4-0.2c1.2-0.1,2.4-0.3,3.5-0.4c1.2-0.2,2.3-0.3,3.4-0.4L245,1.3
	c0.9-0.1,1.8-0.1,2.6-0.2c1.7-0.1,3.6-0.2,5.3-0.4c5.1-0.4,10.7-0.6,16.9-0.6H0.2v411H945c-11.2,0-27.4-0.4-49.9-1
	C857.7,409,801.2,407.5,719.2,406.7z"/>
<path d="M968.9,364.1c-0.3-3.2-0.8-6.5-1.2-9.7c-0.6-4.6-1.3-9.4-1.6-14.1c-0.6-9.6-1-19.3-1.4-28.7c-0.2-3.8-4.3-26.8-4.9-33.6
	c-0.1-1.6-0.3-3.2-0.5-4.7c-0.4-3.9-0.4-7.9-0.4-11.8c0-1.7,0-3.4,0-5.1c-0.1-1.6-0.2-3.3-0.3-4.9c-0.3-4.2-0.5-8.5,0-12.8
	c1.7-14.7,2.4-29.7,0.8-43.7c-1.8-16.8-3.7-30.9-1.5-44.2c1.2-7.3,2.4-15,1.6-22.8c-0.5-4.9-1-10.5-0.4-15.8
	c0.5-3.6,0.7-7.3,0.9-10.9c0.4-5.2,0.7-10.5,1.7-15.8c1.9-10.8,2.5-21.3,2-31.3c0-1.3,0-2.5,0.1-3.8c0.1-1.4,0.1-2.8,0-4.1
	c-0.3-4.2,0.4-17,0.2-19.1c-0.1-0.8-0.1-1.5-0.2-2.3c-0.2-2.2-0.3-4.2-0.9-6c-1.2-3.2-2.5-5.3-3.9-6.6c-1.3-1.1-6.1-1.4-7.9-1.5
	c-7.2-0.6-15-1.2-23.8-1.6c-1.8-0.1-3.6-0.2-5.5-0.3C915.2,8.4,908.5,8,901.9,8c-0.6,0-1.2,0-1.8,0C893.6,8.1,887,8.6,880.6,9
	c-3.6,0.2-7.2,0.5-10.8,0.7l-3.8,0.2c-9.1,0.4-18.4,0.9-27.6,0.9c-7,0-13.2-0.3-19.1-0.8c-8.8-0.8-17.9-1.1-26.7-1.3
	c-2.7-0.1-5.4-0.2-8.1-0.2c-1,0-2.1-0.1-3.5-0.1c-1,0-1.9,0-2.9,0c-1,0-1.9,0-2.9,0c-1.4,0-2.6,0-3.7-0.1c-3.9-0.2-7.7-0.4-11.6-0.6
	c-6.3-0.4-12.8-0.8-19.2-1c-2.8-0.1-5.9-0.1-9.3-0.1c-4.2,0-8.5,0.1-12.7,0.1c-2.4,0-4.9,0.1-7.3,0.1C695,7,678.5,7.1,662.6,7.2
	c-1.3,0-2.6,0-3.9,0.1c-1.3,0-2.6,0.1-4,0.1c-1,0-1.9,0-2.7-0.1c-3-0.2-6-0.5-9-0.8c-2.9-0.3-5.9-0.6-8.9-0.8
	c-6.4-0.5-13-0.8-19.4-1.1l-0.4,0c-3.1-0.1-6.3-0.3-9.4-0.4c-9.6-0.5-19.6-0.9-29.4-1.3c-17.6-0.6-35.3-0.9-52.4-1.2
	c-8.8-0.1-17.9-0.2-26.9-0.2c-7,0-14.2,0-21.3,0.4c-8.5,0.5-17.2,1.1-25.6,1.6c-10.5,0.7-21.4,1.4-32.1,2c-8.2,0.5-19.1,1-30.2,1
	c-1.8,0-3.6,0-5.4,0c-10.1-0.2-20.4-0.9-30.4-1.5c-4.5-0.3-9-0.6-13.5-0.8C336.1,4,334.2,4,332.3,4c-1.3,0-2.6,0-3.8-0.1
	c-1.2,0-2.4,0-3.6,0c-3.6,0-7.3-0.1-11-0.5c-2.6-0.3-5.3-0.8-7.9-1.2c-3.5-0.6-7.1-1.3-10.6-1.4l-2-0.1C285.7,0.3,277.8,0,269.9,0
	c-6.2,0-11.8,0.2-16.9,0.6c-1.8,0.2-3.6,0.3-5.3,0.4c-0.9,0.1-1.8,0.1-2.6,0.2l-29.3,2.4c-1.1,0.1-2.2,0.2-3.4,0.4
	c-1.2,0.2-2.3,0.3-3.5,0.4c-0.8,0.1-1.6,0.2-2.4,0.2c-2.5,0.2-5,0.5-7.6,0.6c-3.5,0.1-6.9,0.2-10.4,0.3c-5.1,0.1-10.4,0.3-15.5,0.5
	c-2.4,0.1-4.8,0.3-7.1,0.5C162.9,6.8,160,7,157,7.1c-0.9,0-1.9,0-2.8,0c-3.5,0-7.1-0.1-10.5-0.2c-2.2-0.1-4.4-0.1-6.6-0.1l-0.6,0
	c-13.3-0.2-27.1-0.4-40.7-0.7c-2.8-0.1-5.5-0.1-8.2-0.2c-2.7-0.1-5.4-0.1-8.2-0.2C74,5.6,68.5,5.5,63,5.4c-5.5-0.1-11-0.2-16.4-0.2
	c-2.5,0-4.9-0.2-7.3-0.3c-2.8-0.2-6.7-0.4-9.5-0.4c-7.9,0.1-15.4,2.5-22.3,7c-0.6,0.4-1.2,1.2-1.7,2.3c-3.1,6.4-3.2,12.5-2.3,18.5
	l-1,0.1c0.1,1.3,0.1,2.4,0.1,3.7C2.3,46,1.3,98.4,0.7,114.2c0,1.2-0.1,2.4-0.3,3.5c-0.2,1-0.1,2-0.1,2.9v0.1
	c0,12.7-0.6,25.8,0.4,38.6c1.4,17.3,2.3,37.9-0.4,59.1c-0.4,3.5-0.2,7,0,10.8c0.1,1.9,0.2,3.8,0.3,5.7c0,2.5,0,4.9,0.1,7.4
	c0,4.8,0,9.7,0.2,14.6c0.2,4.5,0.5,9.1,0.8,13.6c0.3,3.7,0.5,7.4,0.7,11.2c0.8,17.4,1.5,35.2,2.1,52.4l0.1,1.4
	c0.1,2.6,0.2,5.2,0.3,7.8c0.2,5.1,0.5,10.4,0.6,15.7c0.1,4.2-0.1,8.4-0.3,12.6c-0.1,2.8-0.2,5.6-0.2,8.4c0,0.4,0,0.9-0.1,1.6
	c-0.3,4.6-1.1,16.8,5.7,20c2.2,0.6,20.7,0.9,54,1.3c31.9,0.4,80.2,1,148.8,2.4c48.4,1,135.2,1.1,213.8,1.1c25.6,0,51.6,0,77.3,0
	c25,0,49.7,0,73.3,0c48.9,0,104,0.1,141.5,0.4c82.1,0.8,138.6,2.5,176,3.5c22.5,0.6,38.7,1.1,49.9,1.1c8.8,0,19.1-0.2,21.2-2.1
	C970.9,405.1,970,374.9,968.9,364.1z M374.6,21.9c0,0.8-0.1,1.6-0.1,2.4c-0.6,14.7-1.2,29.6-1.9,44l-0.1,2.4
	c-0.1,1.8-0.2,3.6-0.3,5.4c-0.2,2.6-0.3,5.4-0.4,8c0,0.7,0,1.4-0.1,2.1c-0.1,2.6-0.2,5.1,0.2,7.5c2.4,15.4,3.1,31.8,2.4,51.7
	c-0.4,9.2-0.8,18.4-1.3,27.4c-0.5,9-1,18.2-1.3,27.4c-0.3,7.2-0.2,14.5-0.2,21.6c0,3.1,0.1,6.2,0.1,9.3c0,9.8,0.1,19.6,0.3,29.3
	l0.6,21.9c0.1,3.6,0.1,7.3,0.2,10.9c0.2,14.2,0.4,29,0.9,43.4c0.3,12.7-0.3,25.4-0.9,37.7c-0.1,1.9-0.2,3.8-0.3,5.8
	c-0.2,3.4-0.6,6.8-1,10c-0.6,4.8-4.2,8.5-9.1,9.3c-1.3,0.2-2.6,0.4-3.8,0.4c0,0,0,0,0,0c-5.6,0-11.1,0.2-16.7,0.3
	c-11.5,0.2-23.4,0.5-35,0.5c-1.4,0-2.8,0-4.2,0c-4.5,0-43.1-1.2-84-2.4c-42.7-1.3-86.9-2.7-92.1-2.7c-0.1,0-0.2,0-0.3,0
	c-4.2,0.6-8.7,0.8-13.6,0.8c-5.5,0-11-0.3-17.6-0.8c-6.3-0.5-12.8-0.7-19-0.8c-3.5-0.1-7.1-0.2-10.8-0.3c-0.6,0-1.1-0.1-1.7-0.1
	c-2.3-0.1-4.6-0.3-6.9-0.7c-5.4-1-11.2-1.4-18.3-1.4c-2.4,0-4.9,0-8,0.2c-3.9,0.1-7.9,0.3-12.1,0.5c-1.9,0.1-7.8,0.4-7.8,0.4v-2.1
	c0-3.4-0.1-6.6,0-9.6c-0.2-6.2-0.6-12.3-0.7-18.5c-0.5-15.3-0.9-31.1-1.6-46.7c-0.2-4.8-0.7-9.8-1.2-14.6
	c-0.6-5.6-1.1-11.5-1.3-17.3C5,270.1,5,254.4,5.3,238.2c0.1-10.5,0.5-21.2,0.9-31.5c0.2-5.3,0.4-10.6,0.6-15.9
	c0.2-5.5,0.1-11,0-16.4c-0.2-9.1-0.5-18.4-0.8-27.3l0-1.1c-0.3-10.6-0.6-21.6-1.2-32.3c-0.5-9.8-1-21.5,0-33.2
	C5.2,74.1,5.4,67.4,5.6,61c0.1-4.3,0.2-8.8,0.4-13.2c0.2-4.6,0.5-9.3,0.8-13.8c0.1-2.4,0.3-4.7,0.4-7.1l0.3-4.4
	c0.3-8.5,1.2-9.6,9.6-11.8c6.2-1.7,12.2-2.6,18.3-2.6c0.3,0,0.7,0,1,0c9.1,0.2,18.6,0.4,27.9,0.7c6.5,0.2,13.1,0.5,19.5,0.8
	c8,0.4,16.2,0.8,24.3,1l5,0.1c8.2,0.2,16.6,0.4,24.9,0.4c3.5,0,6.8,0,9.9-0.1c14.2-0.4,28.8-1,42.8-1.6c5.6-0.2,11.3-0.5,16.9-0.7
	c14.1-0.7,30.2-1.4,45.8-1.9c6.8-0.2,13.5-0.3,19.7-0.3c3.7,0,7.3,0,10.8,0.1c4.1,0.1,8.3,0.4,12.3,0.8c3.2,0.3,6.4,0.6,9.6,0.7
	c8.4,0.4,17.1,0.6,25.4,0.9c5.7,0.2,11.3,0.3,17,0.5c4.8,0.2,9.5,0.4,14.5,0.7c3.1,0.2,6.2,0.3,9.4,0.5l1.5,0.1L374,12
	C374.9,15.3,374.7,18.7,374.6,21.9z M958.6,401.4c-1.1,1.2-2.5,1.8-4,1.8c-2.7,0-81.6-0.3-181.5-0.8c-162.3-0.7-364.2-1.6-375.3-1.6
	c-17.9,0-19.1-17.6-19.6-26c-0.1-1.3-0.2-2.4-0.3-3.3c-0.4-3.7-0.4-7.5-0.3-11.2c0-1.5,0.1-2.9,0.1-4.4c0-3.8,0.1-7.6,0.1-11.4
	c0.1-11.1,0.2-22.6,0.1-33.9c0-4-0.2-8.1-0.4-12.1c-0.2-4.7-0.4-9.5-0.4-14.3c0-8.2,0.3-16.5,0.5-24.5c0.1-2,0.1-4,0.2-5.9
	c0.1-3.9,0.3-7.8,0.4-11.7c0.4-11.4,0.9-23.1,0.7-34.6c-0.2-9.3,0.1-19,0.9-30.6c0.3-4.8,0.2-9.8,0.1-14.6c-0.1-3.8-0.2-7.8,0-11.7
	c0.2-7.3-0.6-14.6-1.3-21.7c-0.4-3.6-0.8-7.3-1-10.9c-1.6-22.7-1.8-45.2-0.4-67c0.4-5.5,1-11.1,1.5-16.5c0.4-3.6,0.8-7.3,1.1-10.8
	c0.1-2.3,0.2-4.7,0.2-7.2c0-1.3,0.2-2.7,0.2-4.1v-1.9l1.6-0.1c4.8-0.3,9.1-0.5,13.4-0.7c7-0.3,14-0.6,21.1-0.8
	c14-0.6,28.4-1.2,42.6-1.6c6.2-0.2,12.5-0.4,18.6-0.7c9.6-0.4,19.4-0.8,29.2-0.8c4.1,0,7.9,0.1,11.6,0.2c5.2,0.2,10.5,0.2,15.6,0.2
	c5.2,0,10.5,0,15.8,0.2c6.4,0.3,12.9,0.7,19.2,1.2c3.2,0.2,6.4,0.4,9.6,0.6c2.8,0.2,5.6,0.4,8.5,0.5c8.3,0.5,16.9,1.1,25.4,1.5
	l5.6,0.2c11.6,0.5,23.5,1.1,35.3,1.1c4,0,8.1,0.1,12.7,0.1c8.3,0,16.8-0.1,25-0.1c5,0,10.1-0.1,15.1-0.1c6,0,11.9-0.1,17.9-0.2
	c8.1-0.1,16.4-0.2,24.6-0.2c7.5,0,14.2,0.1,20.3,0.2c14.5,0.3,29.1,0.9,43.3,1.5c15.6,0.6,31.6,1.2,47.5,1.5c2,0.1,4.2,0.1,6.3,0.1
	c8,0,16.2-0.4,24.1-0.7c5-0.2,10.2-0.4,15.3-0.6c3.5-0.1,7.5-0.2,11.5-0.2c7.9,0,14.3,0.4,20.2,1.3c3.5,0.5,7.3,0.6,10.9,0.8
	c1.1,0,2.2,0.1,3.2,0.1c2.2,0.1,5.1,1,6,5.1c0.1,0.5,0.2,1,0.4,1.6c0.3,1.1,0.6,2.3,0.6,3.6c0,1.5,0.1,3,0.1,4.5
	c0.2,4.3,0.3,8.8-0.3,13.1c-1.6,12.7-2.4,26.1-2.4,43.5c0,4.8-0.5,9.8-1,14.1c-1.1,10.1-1.4,18.5-1,26.6c0.3,5.1,0,10.8-0.9,16.8
	c-1.8,12.2-0.8,24.4,0.3,34.8c1.1,9.8,1.6,18.5,1.5,26.6c-0.1,9.6-0.3,19.4-0.6,28.8c-0.2,8.1-0.4,16.4-0.5,24.6
	c-0.1,7.6,0.2,13.6,1.1,19.1c2.8,17.9,4.6,36.1,5.4,54.3c0.2,5.5,0.6,11,0.9,16.4c0.3,5.4,0.7,11,0.9,16.5c0.1,3.4,0.1,6.8,0,10.1
	c0,1.6,0,3.3,0,4.9C962.2,382.2,963.1,396.6,958.6,401.4z"/>
</svg>
