<?xml version="1.0" encoding="utf-8"?>
<!-- Generator: Adobe Illustrator 19.1.0, SVG Export Plug-In . SVG Version: 6.00 Build 0)  -->
<svg version="1.1" id="Calque_1" xmlns="http://www.w3.org/2000/svg" xmlns:xlink="http://www.w3.org/1999/xlink" x="0px" y="0px"
	 viewBox="0 0 1100 1100" style="enable-background:new 0 0 1100 1100;" xml:space="preserve">
<style type="text/css">
	.st0{fill:#F4A300;}
	.st1{fill:#C0C0C0;}
	.st2{fill:#008A90;}
	.st3{fill:#6DA3C3;}
	.st4{fill:none;stroke:#F8AD3B;stroke-width:3;stroke-miterlimit:10;}
	.st5{fill:#F8AD3B;}
	.st6{fill:none;}
	.st7{fill:#E2F7EF;}
	.st8{fill:#FFFFFF;}
	.st9{fill:none;stroke:#008A90;stroke-width:6;stroke-miterlimit:10;}
</style>
<g>
	<path class="st0" d="M916.5,593.4c2.6-0.1,4.5-0.2,6.8-0.3c0.1-1.7,0.3-3.2,0.2-4.8c-0.8-7.4,2.4-11.6,9.7-13.6
		c5.5-1.5,10.9-3.2,16.1-5.3c10.1-4.1,20.4-2,26.9,6.4c1.8,2.4,2.4,5.7,3.2,8.7c0.4,1.5,0.3,3.2,0,4.8c-1.3,7.3,0.5,13.5,5.8,18.9
		c3.8,3.9,6.7,8.7,10.1,13c5.9,7.5,4.3,16.9-4.6,23.6c-3.8,2.8-4.6,6.7-5.2,10.6c-0.4,2.8,0.6,5.4,4.1,6.8c6.7,2.7,8.5,6.8,9,13.9
		c0.3,3.6,2.1,7.8,4.7,10.3c11.2,11.3,9.5,24.6-0.5,34.3c-1.7,1.6-3.2,3.4-4.7,5.2c-4.1,4.9-8.7,8.6-15.5,8.8
		c-2.9,0.1-4,1.5-2.8,4.3c2.2,5,4.1,10.3,6.9,15c1.3,2.2,3.9,4,6.4,5c10.7,4,15.2,12.3,16.8,22.6c0.8,5.1-1.3,9.5-5.2,13.3
		c-2.6,2.5-4.4,5.6-6.6,8.4c6.2,5.3,7.1,11.9,7.7,18.5c0.7,7,5.9,12.5,12.9,12.7c6.3,0.2,12.6-0.1,18.9-0.2
		c9.2-0.1,18.2,0.3,25.8,6.7c7.2,6.1,10.3,16.3,5.9,24.7c-2.9,5.6-7.3,10.4-11,15.6c-1.2,1.6-2.7,3.3-3,5.2
		c-2.4,12.6-11.5,18.7-22.4,23.1c-11.3,4.5-20.2,11.7-26.3,22.1c-3.7,6.5-8.7,11.6-15,15.6c-1.3,0.9-2.5,1.9-3.9,2.9
		c-4.2,2.9-5.3,6.5-4,11.6c0.8,3-0.5,6.5-1.1,9.8c-0.1,0.5-0.9,1.1-1.5,1.3c-19.2,9-39.8,10.5-60.6,9.8c-14.3-0.5-28.6-2.1-42.9-3.4
		c-7.4-0.6-13.5-4-18.1-9.7c-3.5-4.2-7.7-6.2-13.1-5.8c-5.4,0.3-10.2-0.7-13.9-5.1c-0.5-0.6-1-1.1-1.4-1.7c-1.3-2-2.2-5.3-3.9-5.6
		c-3.7-0.8-7.8-0.5-11.7-0.1c-2.1,0.2-4.1,1.5-6.2,2.3c-8.5,3.4-16.5,0.7-23.5-3.4c-8.3-4.8-16.7-7.7-26.4-7.7
		c-3.9,0-7.7-2.9-11.6-4.3c-1.3-0.5-3.2-1-4.3-0.4c-13.6,6.5-26.9,13.4-37.3,24.8c-6.6,7.3-14.5,12.7-24.9,14.6
		c-3.9,0.7-7.1,5.2-10.8,7.8c-4.5,3.2-8.8,6.6-13.6,9.2c-2.7,1.5-3.3,2.7-3,5.7c0.6,6.6,1.2,13.4,0.3,19.9c-1.1,8.3,1,15.8,2.6,23.6
		c0.7,3.5,0.8,7.2,1.2,10.8c0.5,5.3-2.2,9-6.5,11.6c-6.6,4-13.1,8.4-20.2,11.3c-8.9,3.6-18.2,6.6-27.5,8.5
		c-3.9,0.8-8.8-1.5-12.8-3.2c-7-3-14-4.7-21.6-6c-8.7-1.5-18.4,2.5-26.3-4.4c-6.8-5.9-14.6-10.8-21.5-16.6
		c-12.8-10.9-28.1-17.2-43.5-23.2c-10.6-4.2-21.6-7.4-32.4-11c-0.8-0.3-1.7-0.5-2.6-0.7c-13-2.7-14.1-2.1-18.8,10.3
		c-2.1,5.6-4.2,7.1-10.2,7.1c-18.4-0.1-36.2-3.7-53.2-10.5c-7.1-2.9-14.2-5.4-20.3-10.9c-2.8-2.6-9-4.5-14.2-1.9
		c-11.4,5.6-21,1-26.8-7.9c-7.7-11.7-19.3-16.4-30.9-21.8c-1.3-0.6-2.8-1.1-3.9-1.9c-6.1-4.3-12.4-5.8-19.9-3.2
		c-4.9,1.6-9.5-0.3-13.4-3.7c-4.8-4.2-5.2-10.3-1-15.1c1.3-1.4,2.5-2.8,3.7-4.3c0.6-0.8,0.9-1.8,1.2-2.4c-6-2.2-12-4-17.6-6.6
		c-4.6-2.1-5.9-7.6-2.8-11.7c3.8-5.1,8.2-9.8,12.3-14.7c10-12,15.2-26.3,19.7-41c7.9-25.5,11.7-51.9,16-78.1
		c0.8-5,1.3-10.3,3.4-14.7c1.3-2.6,5.5-3.9,8.7-5.4c1.1-0.5,2.8,0.1,5.9,0.2c-1.6-3.3-2.1-6.4-4-7.9c-5.4-4.5-5.8-10.1-3.8-15.8
		c7.4-20.3,7.1-41.7,10-62.6c0.4-3.2,0.6-6.4,1.4-9.5c0.9-3.6,4-4.3,7.2-4.4c1.4-0.1,2.8,0.4,4.8-0.3c-5.6-5.2-11.3-10.4-16.9-15.6
		c-1.5-1.4-3.8-2.4-4.5-4c-1.1-2.5-2.1-5.7-1.3-8c0.5-1.5,4.2-2.1,6.6-2.6c1.6-0.3,3.4,0.4,5.4,0.7c-0.6-3.2-1.8-6.1-1.6-8.8
		c0.3-4.2,1.5-8.4,2.1-12.6c0.3-2.4,0.9-5.3-0.1-7.3c-2.5-5.2-5.4-10.3-8.8-15.1c-4.7-6.5-4-12.4,0.6-18.4c0.5-0.7,1-1.4,1.1-1.5
		c-9.7-5.8-19-11.8-28.7-16.9c-10.5-5.6-16.6-14.5-21.5-24.6c-4-8.2-9.1-15.4-16.4-21.3c-9.4-7.7-7.2-22.9,3.2-28.9
		c1.7-1,3-3.4,3.6-5.4c0.2-0.7-2.2-2.6-3.7-3.2c-2.9-1.2-6.2-1.6-9-3.1c-2.2-1.1-5-3.1-5.3-5c-0.2-1.8,2-4.7,4-5.9
		c2.3-1.5,3.3-2.9,4-5.6c0.5-2.1,2.9-3.9,4.9-5.4c1.2-0.8,3.1-0.7,5.7-1.1c-6.1-2.8-11.1-2.5-16.4-0.5c-3.4,1.3-8,3.5-10.6,2.3
		c-6.1-2.8-11.6-7.1-16.8-11.5c-2.4-2-0.3-4.9,1.5-6.9c1.6-1.8,3.3-3.5,5.9-6.2c-8.4-1.2-15.7-2.3-23-3.4c-1.2-0.2-2.4-0.1-3.5-0.2
		c-2.9-0.3-6.1-1.1-6.1-4.4c0-1.6,2.3-3.5,3.8-5c2-1.8,4.3-3.4,6.5-5c-0.3-0.5-0.6-1.1-0.8-1.6c-2.3,0.4-4.8,0.5-7,1.2
		c-9,2.9-17.3,1.8-25.2-3.3c-7-4.6-14.2-8.7-21.2-13.3c-8.6-5.6-17.9-9.5-28.4-9.3c-5.5,0.1-8.8-3-10.8-7.5
		c-1.8-4.2-4.4-5.9-9.1-5.8c-5.6,0.1-10.8-0.3-15.9,3.4c-4.3,3.1-8.6-0.6-11.7-3.4c-3.2-3-6.1-6.8-7.9-10.8c-3.2-7-8.2-11.1-15.5-13
		c-1.3-0.3-2.6-0.7-3.7-1.3c-3.4-1.8-3.9-4.8-1-7.4c5.2-4.6,11.6-5.9,18.3-6.4c2.6-0.2,5.3-0.1,7.9-0.5c1.3-0.2,2.4-1.3,3.6-2
		c-0.9-1.3-1.4-3-2.6-3.7c-3.6-2-7.6-3.2-11-5.5c-2.1-1.5-4.2-4.1-4.8-6.5c-1.3-5.5,2.3-9,8-8.4c3.5,0.4,6.9,1.2,10.5,1.8
		c-3.9-7.7-6.8-8.7-14.6-5.6c-2.4,1-4.9,2.1-7.4,2.5c-6.2,1.2-11.3-2.7-12.1-8.9c-1.5-11,7.6-23.1,18.7-24.9
		c7.8-1.2,15.6-2.7,23.4-3.9c1.7-0.3,4.1-0.4,5.1,0.5c3.1,3,5.9,1.9,8.8,0.2c2.9-1.7,5.5-4,8.4-5.4c2.9-1.4,6.2-3,9.3-3.1
		c4-0.1,7.5,1.8,7.5,7.4c3.1-3.9,5.6-8,10.7-7.1c4.3,0.7,8.4,2,12.7,3.1c2.5-10.1,3.6-11.4,14.2-12.3c9.7-0.8,19.6-1,29.4-1
		c7.4,0,12.1,4.6,15.7,10.5c5.3,8.6,10.3,17.2,15.6,25.8c3.2,5.2,4.3,5.1,7.4,0.2c5.7-9.3,18.6-13.9,29.4-10.5c3.5,1.1,4,2.1,5,8.7
		c2.8-0.8,5.7-1.5,8.5-2.4c1-0.3,1.9-1.3,2.8-1.9c3.7-2.2,7.1-5,11.1-6.6c5.5-2.2,13.1-0.5,14.3,7.1c0.1,0.6,0.4,1.1,0.7,1.6
		c2.7,6.4,3.1,6.6,10.2,4.4c0-1.1,0.1-2.4,0-3.7c-1.9-15.7-3.2-31.5-5.9-47.1c-2-11.2-5.2-22.4-9.2-33.1c-4.7-12.4-5.6-25.1-6.1-38
		c-0.1-3-0.2-6.1-0.1-9.2c0.1-4.1,2-7.3,6.3-7.8c4.5-0.6,9.1-0.8,13.6-0.3c9.1,1.1,18.2,2.8,27.2,4.4c5.7,1,11.4,1.3,16.6,5
		c5.8,4.1,6.4,10,4.2,15.8c-1.3,3.4-1.3,6,0,9.1c0.5,1.1,0.8,2.2,1.2,3.3c2.5,6.7,2.5,6,9.5,5.8c7.4-0.2,14.9,0.6,22.3,1.8
		c9.3,1.5,18.3,4.5,27.6,5.7c6.7,0.9,13.7,0.3,20.5-0.3c2.4-0.2,4.7-2.5,6.9-4.1c1.7-1.2,1.9-2.7,0.8-4.9c-0.8-1.7-0.8-4.4,0-6.2
		c6.5-15.5,17.9-25.6,33.9-31.4c14.4-5.2,28.3-11.9,42.7-17.2c10.3-3.8,19.7-8.8,28.7-14.8c1.2-0.8,2.3-2.2,2.9-3.5
		c1.2-2.8,1.9-5.8,3.2-8.6c6.8-13.7,6.2-28.5,7-43.1c0.7-13.6,3.6-26.7,8.4-39.5c0.6-1.5,1.5-2.9,2-4.4c2.1-7.1,6.7-10.8,13.9-13.5
		c16.5-6.2,32.9-12.4,50.3-15.8c4.4-0.9,9-1,13.6-0.9c1.7,0,3.7,1,5.1,2.2c4.6,3.8,7.6,8.6,9.2,14.5c1.7,6.7,3.8,13.4,5.9,20
		c2,6.1,8.4,10.2,15.4,10.3c4.2,0,8.5,0.1,12.7,0.5c8.8,0.9,14.4,6.1,17.2,14.1c1.1,3,2,6.1,2.5,9.2c0.7,4.9,3.7,5.9,8.1,5.7
		c5.7-0.2,11.3,0.9,15,5.7c2,2.6,3,5.9,4.7,8.6c0.9,1.4,2.2,3.1,3.6,3.5c3.2,0.9,6.6,1.5,10,1.5c10.4,0.1,19.1,4.2,26.6,10.9
		c5.2,4.6,5.2,11.1,5.9,17.3c0.3,3,0.3,6.2,1.3,9c0.5,1.5,2.6,3.5,4.1,3.6c4.8,0.3,9.6-0.1,13-4.6c4.3-5.6,9.2-10.4,15.9-13.4
		c5.5-2.4,10.7-1.8,15.7,0.4c5.5,2.4,7.4,8.7,5.6,16.3c-0.6,2.4-1.3,4.8-2.2,7.1c-1.4,3.9-0.1,7.1,1.2,10.9
		c2.1,6.5,6.2,8.8,12.6,9.4c3,0.3,6,2.2,8.7,3.9c8.5,5.2,17.5,9.8,24.9,16.3c5.3,4.6,9.6,6,16.5,5.1c8-1.1,16.1,0.5,22.3,6.8
		c2.9,3,6.2,1.6,8.9,0c8.3-4.6,16.8-4,25.1-0.9c4.7,1.8,9.2,4.6,13,7.9c6.3,5.4,12.1,11.4,17.7,17.5c3.8,4.2,7.2,7.5,13.8,7.6
		c7.3,0.1,15,1.5,20.6,7.3c2.1,2.2,4.2,1.9,6.6,0.2c1.8-1.2,3.8-2.3,5.8-3c8.4-2.9,16.1-1.2,21.3,5.8c5.1,6.9,12,8.1,19.5,9.1
		c5.5,0.8,11.1,1.6,16.4,2.9c22,5.3,21.1,24.7,12.9,38.5c-2.1,3.5-5.2,6.3-7.8,9.4c-10.6,12.8-15.2,28.3-20.4,43.6
		c-4.4,12.9-4.6,26.2-5.2,39.6c-0.5,12.6-0.8,25.3-1.9,37.8c-1.8,21.3-24.4,32.8-42.7,30.8c-1.3-0.1-3.6,0.2-4,1
		c-0.7,1.7-1.3,4.6-0.5,5.5c4,4.2,2.7,8.5,0.6,12.5c-8.2,16.2-20.1,29.6-33.3,41.9c-1.4,1.3-3.5,2.3-5.4,2.8
		c-5.6,1.7-9.7,5.9-9.3,11.6c0.4,5.9-1.8,10.6-5.2,14.8c-4.4,5.6-9.5,10.6-14.3,15.9c-3.4,3.8-6.9,7.5-10.1,11.5
		c-1.2,1.4-2.1,3.1,0.3,4.8c8.7,5.9,9.5,9.8,4.3,18.9C917.6,591.3,917.2,592.1,916.5,593.4z"/>
	<path class="st0" d="M1101.8,998.8c-1.3,11-1.4,22.2-6.6,31.8c-5.2,9.6-5.6,19.6-6.9,29.8c-0.8,6.3-2,12.6-7,17.5
		c-1.7,1.6-1.9,4.7-2.6,7.2c-1.8,6.5-6,10.3-12.4,12.3c-3.2,1-5.7,0.5-7.4-1.8c-6.4-9-16.3-11.7-25.9-15.3c-1.4-0.5-2.8-0.9-4-1.6
		c-4.2-2.4-4.5-4.2-2.2-8.6c0.9-1.7,1.5-3.9,1.2-5.7c-1.8-13.5-4-27-5.9-40.6c-0.6-4.5-2.1-7.3-7-7.9c-4.1-0.5-5.9-3.1-5.6-7.4
		c1-13.2,4.5-25.8,10.3-37.7c4.9-10.1,14.1-14,24.4-16.5c2.2-0.5,4.8-1.9,5.9-3.8c2.2-3.6,5.4-5,9.1-4.8c4.2,0.3,4.7-1.6,4.7-5.1
		c0-5.1,0.4-10.2,0.9-15.3c0.4-4.6,2.8-7.9,7.6-9c3.4-0.8,6.8-1.9,10.2-2.3c7.1-0.7,11.9,2.6,12.5,9.7c0.7,8.1,0.8,16.3-0.2,24.3
		c-1.2,9-0.7,17.5,2,26.2C1099.4,982.4,1100.2,990.7,1101.8,998.8z"/>
	<g>
		<path d="M916.5,593.4c2.6-0.1,4.5-0.2,6.8-0.3c0.1-1.7,0.3-3.2,0.2-4.8c-0.8-7.4,2.4-11.6,9.7-13.6c5.5-1.5,10.9-3.2,16.1-5.3
			c10.1-4.1,20.4-2,26.9,6.4c1.8,2.4,2.4,5.7,3.2,8.7c0.4,1.5,0.3,3.2,0,4.8c-1.3,7.3,0.5,13.5,5.8,18.9c3.8,3.9,6.7,8.7,10.1,13
			c5.9,7.5,4.3,16.9-4.6,23.6c-3.8,2.8-4.6,6.7-5.2,10.6c-0.4,2.8,0.6,5.4,4.1,6.8c6.7,2.7,8.5,6.8,9,13.9c0.3,3.6,2.1,7.8,4.7,10.3
			c11.2,11.3,9.5,24.6-0.5,34.3c-1.7,1.6-3.2,3.4-4.7,5.2c-4.1,4.9-8.7,8.6-15.5,8.8c-2.9,0.1-4,1.5-2.8,4.3c2.2,5,4.1,10.3,6.9,15
			c1.3,2.2,3.9,4,6.4,5c10.7,4,15.2,12.3,16.8,22.6c0.8,5.1-1.3,9.5-5.2,13.3c-2.6,2.5-4.4,5.6-6.6,8.4c6.2,5.3,7.1,11.9,7.7,18.5
			c0.7,7,5.9,12.5,12.9,12.7c6.3,0.2,12.6-0.1,18.9-0.2c9.2-0.1,18.2,0.3,25.8,6.7c7.2,6.1,10.3,16.3,5.9,24.7
			c-2.9,5.6-7.3,10.4-11,15.6c-1.2,1.6-2.7,3.3-3,5.2c-2.4,12.6-11.5,18.7-22.4,23.1c-11.3,4.5-20.2,11.7-26.3,22.1
			c-3.7,6.5-8.7,11.6-15,15.6c-1.3,0.9-2.5,1.9-3.9,2.9c-4.2,2.9-5.3,6.5-4,11.6c0.8,3-0.5,6.5-1.1,9.8c-0.1,0.5-0.9,1.1-1.5,1.3
			c-19.2,9-39.8,10.5-60.6,9.8c-14.3-0.5-28.6-2.1-42.9-3.4c-7.4-0.6-13.5-4-18.1-9.7c-3.5-4.2-7.7-6.2-13.1-5.8
			c-5.4,0.3-10.2-0.7-13.9-5.1c-0.5-0.6-1-1.1-1.4-1.7c-1.3-2-2.2-5.3-3.9-5.6c-3.7-0.8-7.8-0.5-11.7-0.1c-2.1,0.2-4.1,1.5-6.2,2.3
			c-8.5,3.4-16.5,0.7-23.5-3.4c-8.3-4.8-16.7-7.7-26.4-7.7c-3.9,0-7.7-2.9-11.6-4.3c-1.3-0.5-3.2-1-4.3-0.4
			c-13.6,6.5-26.9,13.4-37.3,24.8c-6.6,7.3-14.5,12.7-24.9,14.6c-3.9,0.7-7.1,5.2-10.8,7.8c-4.5,3.2-8.8,6.6-13.6,9.2
			c-2.7,1.5-3.3,2.7-3,5.7c0.6,6.6,1.2,13.4,0.3,19.9c-1.1,8.3,1,15.8,2.6,23.6c0.7,3.5,0.8,7.2,1.2,10.8c0.5,5.3-2.2,9-6.5,11.6
			c-6.6,4-13.1,8.4-20.2,11.3c-8.9,3.6-18.2,6.6-27.5,8.5c-3.9,0.8-8.8-1.5-12.8-3.2c-7-3-14-4.7-21.6-6c-8.7-1.5-18.4,2.5-26.3-4.4
			c-6.8-5.9-14.6-10.8-21.5-16.6c-12.8-10.9-28.1-17.2-43.5-23.2c-10.6-4.2-21.6-7.4-32.4-11c-0.8-0.3-1.7-0.5-2.6-0.7
			c-13-2.7-14.1-2.1-18.8,10.3c-2.1,5.6-4.2,7.1-10.2,7.1c-18.4-0.1-36.2-3.7-53.2-10.5c-7.1-2.9-14.2-5.4-20.3-10.9
			c-2.8-2.6-9-4.5-14.2-1.9c-11.4,5.6-21,1-26.8-7.9c-7.7-11.7-19.3-16.4-30.9-21.8c-1.3-0.6-2.8-1.1-3.9-1.9
			c-6.1-4.3-12.4-5.8-19.9-3.2c-4.9,1.6-9.5-0.3-13.4-3.7c-4.8-4.2-5.2-10.3-1-15.1c1.3-1.4,2.5-2.8,3.7-4.3
			c0.6-0.8,0.9-1.8,1.2-2.4c-6-2.2-12-4-17.6-6.6c-4.6-2.1-5.9-7.6-2.8-11.7c3.8-5.1,8.2-9.8,12.3-14.7c10-12,15.2-26.3,19.7-41
			c7.9-25.5,11.7-51.9,16-78.1c0.8-5,1.3-10.3,3.4-14.7c1.3-2.6,5.5-3.9,8.7-5.4c1.1-0.5,2.8,0.1,5.9,0.2c-1.6-3.3-2.1-6.4-4-7.9
			c-5.4-4.5-5.8-10.1-3.8-15.8c7.4-20.3,7.1-41.7,10-62.6c0.4-3.2,0.6-6.4,1.4-9.5c0.9-3.6,4-4.3,7.2-4.4c1.4-0.1,2.8,0.4,4.8-0.3
			c-5.6-5.2-11.3-10.4-16.9-15.6c-1.5-1.4-3.8-2.4-4.5-4c-1.1-2.5-2.1-5.7-1.3-8c0.5-1.5,4.2-2.1,6.6-2.6c1.6-0.3,3.4,0.4,5.4,0.7
			c-0.6-3.2-1.8-6.1-1.6-8.8c0.3-4.2,1.5-8.4,2.1-12.6c0.3-2.4,0.9-5.3-0.1-7.3c-2.5-5.2-5.4-10.3-8.8-15.1
			c-4.7-6.5-4-12.4,0.6-18.4c0.5-0.7,1-1.4,1.1-1.5c-9.7-5.8-19-11.8-28.7-16.9c-10.5-5.6-16.6-14.5-21.5-24.6
			c-4-8.2-9.1-15.4-16.4-21.3c-9.4-7.7-7.2-22.9,3.2-28.9c1.7-1,3-3.4,3.6-5.4c0.2-0.7-2.2-2.6-3.7-3.2c-2.9-1.2-6.2-1.6-9-3.1
			c-2.2-1.1-5-3.1-5.3-5c-0.2-1.8,2-4.7,4-5.9c2.3-1.5,3.3-2.9,4-5.6c0.5-2.1,2.9-3.9,4.9-5.4c1.2-0.8,3.1-0.7,5.7-1.1
			c-6.1-2.8-11.1-2.5-16.4-0.5c-3.4,1.3-8,3.5-10.6,2.3c-6.1-2.8-11.6-7.1-16.8-11.5c-2.4-2-0.3-4.9,1.5-6.9
			c1.6-1.8,3.3-3.5,5.9-6.2c-8.4-1.2-15.7-2.3-23-3.4c-1.2-0.2-2.4-0.1-3.5-0.2c-2.9-0.3-6.1-1.1-6.1-4.4c0-1.6,2.3-3.5,3.8-5
			c2-1.8,4.3-3.4,6.5-5c-0.3-0.5-0.6-1.1-0.8-1.6c-2.3,0.4-4.8,0.5-7,1.2c-9,2.9-17.3,1.8-25.2-3.3c-7-4.6-14.2-8.7-21.2-13.3
			c-8.6-5.6-17.9-9.5-28.4-9.3c-5.5,0.1-8.8-3-10.8-7.5c-1.8-4.2-4.4-5.9-9.1-5.8c-5.6,0.1-10.8-0.3-15.9,3.4
			c-4.3,3.1-8.6-0.6-11.7-3.4c-3.2-3-6.1-6.8-7.9-10.8c-3.2-7-8.2-11.1-15.5-13c-1.3-0.3-2.6-0.7-3.7-1.3c-3.4-1.8-3.9-4.8-1-7.4
			c5.2-4.6,11.6-5.9,18.3-6.4c2.6-0.2,5.3-0.1,7.9-0.5c1.3-0.2,2.4-1.3,3.6-2c-0.9-1.3-1.4-3-2.6-3.7c-3.6-2-7.6-3.2-11-5.5
			c-2.1-1.5-4.2-4.1-4.8-6.5c-1.3-5.5,2.3-9,8-8.4c3.5,0.4,6.9,1.2,10.5,1.8c-3.9-7.7-6.8-8.7-14.6-5.6c-2.4,1-4.9,2.1-7.4,2.5
			c-6.2,1.2-11.3-2.7-12.1-8.9c-1.5-11,7.6-23.1,18.7-24.9c7.8-1.2,15.6-2.7,23.4-3.9c1.7-0.3,4.1-0.4,5.1,0.5
			c3.1,3,5.9,1.9,8.8,0.2c2.9-1.7,5.5-4,8.4-5.4c2.9-1.4,6.2-3,9.3-3.1c4-0.1,7.5,1.8,7.5,7.4c3.1-3.9,5.6-8,10.7-7.1
			c4.3,0.7,8.4,2,12.7,3.1c2.5-10.1,3.6-11.4,14.2-12.3c9.7-0.8,19.6-1,29.4-1c7.4,0,12.1,4.6,15.7,10.5
			c5.3,8.6,10.3,17.2,15.6,25.8c3.2,5.2,4.3,5.1,7.4,0.2c5.7-9.3,18.6-13.9,29.4-10.5c3.5,1.1,4,2.1,5,8.7c2.8-0.8,5.7-1.5,8.5-2.4
			c1-0.3,1.9-1.3,2.8-1.9c3.7-2.2,7.1-5,11.1-6.6c5.5-2.2,13.1-0.5,14.3,7.1c0.1,0.6,0.4,1.1,0.7,1.6c2.7,6.4,3.1,6.6,10.2,4.4
			c0-1.1,0.1-2.4,0-3.7c-1.9-15.7-3.2-31.5-5.9-47.1c-2-11.2-5.2-22.4-9.2-33.1c-4.7-12.4-5.6-25.1-6.1-38c-0.1-3-0.2-6.1-0.1-9.2
			c0.1-4.1,2-7.3,6.3-7.8c4.5-0.6,9.1-0.8,13.6-0.3c9.1,1.1,18.2,2.8,27.2,4.4c5.7,1,11.4,1.3,16.6,5c5.8,4.1,6.4,10,4.2,15.8
			c-1.3,3.4-1.3,6,0,9.1c0.5,1.1,0.8,2.2,1.2,3.3c2.5,6.7,2.5,6,9.5,5.8c7.4-0.2,14.9,0.6,22.3,1.8c9.3,1.5,18.3,4.5,27.6,5.7
			c6.7,0.9,13.7,0.3,20.5-0.3c2.4-0.2,4.7-2.5,6.9-4.1c1.7-1.2,1.9-2.7,0.8-4.9c-0.8-1.7-0.8-4.4,0-6.2
			c6.5-15.5,17.9-25.6,33.9-31.4c14.4-5.2,28.3-11.9,42.7-17.2c10.3-3.8,19.7-8.8,28.7-14.8c1.2-0.8,2.3-2.2,2.9-3.5
			c1.2-2.8,1.9-5.8,3.2-8.6c6.8-13.7,6.2-28.5,7-43.1c0.7-13.6,3.6-26.7,8.4-39.5c0.6-1.5,1.5-2.9,2-4.4c2.1-7.1,6.7-10.8,13.9-13.5
			c16.5-6.2,32.9-12.4,50.3-15.8c4.4-0.9,9-1,13.6-0.9c1.7,0,3.7,1,5.1,2.2c4.6,3.8,7.6,8.6,9.2,14.5c1.7,6.7,3.8,13.4,5.9,20
			c2,6.1,8.4,10.2,15.4,10.3c4.2,0,8.5,0.1,12.7,0.5c8.8,0.9,14.4,6.1,17.2,14.1c1.1,3,2,6.1,2.5,9.2c0.7,4.9,3.7,5.9,8.1,5.7
			c5.7-0.2,11.3,0.9,15,5.7c2,2.6,3,5.9,4.7,8.6c0.9,1.4,2.2,3.1,3.6,3.5c3.2,0.9,6.6,1.5,10,1.5c10.4,0.1,19.1,4.2,26.6,10.9
			c5.2,4.6,5.2,11.1,5.9,17.3c0.3,3,0.3,6.2,1.3,9c0.5,1.5,2.6,3.5,4.1,3.6c4.8,0.3,9.6-0.1,13-4.6c4.3-5.6,9.2-10.4,15.9-13.4
			c5.5-2.4,10.7-1.8,15.7,0.4c5.5,2.4,7.4,8.7,5.6,16.3c-0.6,2.4-1.3,4.8-2.2,7.1c-1.4,3.9-0.1,7.1,1.2,10.9
			c2.1,6.5,6.2,8.8,12.6,9.4c3,0.3,6,2.2,8.7,3.9c8.5,5.2,17.5,9.8,24.9,16.3c5.3,4.6,9.6,6,16.5,5.1c8-1.1,16.1,0.5,22.3,6.8
			c2.9,3,6.2,1.6,8.9,0c8.3-4.6,16.8-4,25.1-0.9c4.7,1.8,9.2,4.6,13,7.9c6.3,5.4,12.1,11.4,17.7,17.5c3.8,4.2,7.2,7.5,13.8,7.6
			c7.3,0.1,15,1.5,20.6,7.3c2.1,2.2,4.2,1.9,6.6,0.2c1.8-1.2,3.8-2.3,5.8-3c8.4-2.9,16.1-1.2,21.3,5.8c5.1,6.9,12,8.1,19.5,9.1
			c5.5,0.8,11.1,1.6,16.4,2.9c22,5.3,21.1,24.7,12.9,38.5c-2.1,3.5-5.2,6.3-7.8,9.4c-10.6,12.8-15.2,28.3-20.4,43.6
			c-4.4,12.9-4.6,26.2-5.2,39.6c-0.5,12.6-0.8,25.3-1.9,37.8c-1.8,21.3-24.4,32.8-42.7,30.8c-1.3-0.1-3.6,0.2-4,1
			c-0.7,1.7-1.3,4.6-0.5,5.5c4,4.2,2.7,8.5,0.6,12.5c-8.2,16.2-20.1,29.6-33.3,41.9c-1.4,1.3-3.5,2.3-5.4,2.8
			c-5.6,1.7-9.7,5.9-9.3,11.6c0.4,5.9-1.8,10.6-5.2,14.8c-4.4,5.6-9.5,10.6-14.3,15.9c-3.4,3.8-6.9,7.5-10.1,11.5
			c-1.2,1.4-2.1,3.1,0.3,4.8c8.7,5.9,9.5,9.8,4.3,18.9C917.6,591.3,917.2,592.1,916.5,593.4z M385.9,733.5c9.8,5,11.1,9.1,5.6,19.9
			c-0.9,1.7-1.7,3.4-2.3,5.2c-2.1,5.7-1.1,6.9,5.1,6.7c0.9,0,1.8-0.1,2.6-0.1c8.7-0.3,14.5,5.8,13.7,14.3c-0.1,1-0.4,2.1,0,2.9
			c2.7,6.1,9.1,9.1,16,7.9c4.5-0.8,9-1.7,13.5-1.7c6-0.1,11.4,1.9,14.2,7.7c1.9,3.9,4.1,3.4,7.3,1.4c2.2-1.4,5.2-2.8,7.5-2.4
			c3.1,0.6,4.9-0.2,7-2.1c13.9-12.6,23.8-28.2,33.5-44c0.7-1.2,0.5-3.4-0.1-4.8c-2.5-6.1-6.8-10.6-12.6-14c-2.2-1.3-4.7-4.1-5-6.4
			c-0.8-5.7,0.4-11.2,4.9-15.6c3.2-3.1,2.3-7.1-1.8-9.1c-1.8-0.9-3.9-1.6-5.3-3c-5.1-4.9-10.1-10-15-15.2c-3-3.2-6-3.6-9.8-1.5
			c-6.3,3.4-8.6,2.4-11.7-4.3c-1.7-3.6-4-6.9-6.1-10.6c-4,4.3-7.4,7.8-10.7,11.4c-2.8,3.1-5.7,6.3-8,9.7c-3.3,5-6.9,9.3-12.7,11.6
			c-2.9,1.1-5.2,3.2-4.5,6.7c1.3,6.8-2,11.7-6.7,15.7C398.7,724.5,392.2,728.8,385.9,733.5z M364.6,848.1c-1.5,0.2-3,0.5-4.6,0.7
			c-10.1,1.5-15.1-1.5-18.3-11.1c-0.3-1-0.8-1.9-1-2.9c-1.4-7.3-6.4-10.3-13.4-10.8c-7.1-0.6-13.3-3-19.1-7.2
			c-3.5-2.6-7.5-4.5-11.2-6.9c-4-2.6-7.9-2.7-11.8,0.1c-2,1.4-4.1,3.8-6.2,3.8c-5.6,0.2-5.8,4.2-6.8,7.7c-0.8,2.8-1.4,5.6-2.1,8.5
			c-7.4,28.6-12.7,57.9-26,84.8c-1.3,2.6-0.7,4.9,1.6,5.9c4.6,2,9.4,4.6,14.3,4.8c6.6,0.2,13.3-1.8,20-2.4c21-1.8,42.2-1.4,63.1-5.2
			c4.1-0.7,6.7-1.7,7.9-5.8c3.1-11.3,6.4-22.6,9.6-34c1.6-5.6,4.7-8.1,10.5-7.5c2.1,0.2,4.2,1.2,6.3,1.5c1.1,0.2,2.7-0.1,3.3-0.8
			c1.5-1.7,2.8-3.8,3.8-5.8c1.9-4-0.3-8-4.3-7.7C369.5,858.4,368.6,857.9,364.6,848.1z M624.4,770c-0.5,0.4-2,1.3-3,2.6
			c-3.5,4.6-7,9.3-10.3,14.1c-4,5.8-8.9,10.2-16.3,11.4c-4.7,0.8-9.3,2.3-13.9,3.5c-3.8,1-6.7,3.5-9.9,5.6
			c-4.2,2.6-9.4,3.8-14.4,4.9c-7.2,1.6-10.1,6.3-7.7,12.9c1.2,3.3,1.7,7,2.5,10.5c1.4,6.1,2.9,12.3,4.4,18.7
			c1.9-0.6,3.2-1.1,4.6-1.4c5.8-1.6,11.3-2.4,16.3,2.6c2.9,3,6.6,5.5,10.3,7.2c17.5,8,26.5,22.7,33.2,39.4c2.6,6.4,5.7,8.6,11.6,6.8
			c5.9-1.8,11,0,16.1,2c3,1.2,3.8-0.1,4.1-2.5c0.2-1.3-0.2-2.6-0.2-3.9c-0.1-7.1,3.4-10,10.3-9.1c2,0.2,5.8-0.5,6.2-1.6
			c2-5.9,6.5-8,11.8-10c1.4-0.5,2.8-2.9,3.1-4.6c0.2-1.3-1.1-3.1-2.3-4.1c-1.2-1.2-2.9-1.9-4.5-2.6c-3.1-1.3-4.5-3.8-3.7-6.6
			c1.3-4.7-0.8-7.4-4.2-9.9c-1.4-1-2.5-2.5-3.9-3.5c-6.4-4.6-7.5-10.7-6.4-18.1c0.6-4.4-0.1-9.3-1.4-13.5c-3.3-10.2-8-20-10.8-30.3
			c-1.8-6.4-5.2-10.4-10.6-13.5C632,775,628.7,772.7,624.4,770z M275.1,808.3c0.4,0.2,0.8,0.4,1.2,0.6c1.9-1.2,3.9-2.4,5.8-3.7
			c3.5-2.3,7.3-3.1,11.3-1.7c2.6,0.9,5.3,2,7.6,3.4c10,6.5,20.1,12.2,32.4,13.6c6.7,0.8,10.6,5.7,12.6,12c0.7,2.2,1.4,4.4,2.3,6.6
			c1.9,4.6,4.1,6,8.9,4.7c9.2-2.5,16.6-7.3,21.2-16c6-11.2,10.6-22.9,13.9-35.1c1.2-4.4,2.6-8.2,8.1-9.8c3.8-1.1,4.2-5.2,3.4-8.9
			c-0.7-3.3-2.9-4.3-6.1-4.2c-2.8,0.2-5.6,0-8.3-0.3c-6.3-0.7-8.9-4.2-7.3-10.3c0.9-3.5,2.7-6.7,3.9-10.1c0.8-2.3,1.6-4.7,1.9-7.1
			c0.1-1-0.8-3-1.6-3.2c-4.5-0.9-9-1.5-13.5-2c-3.5-0.4-7.4,0-10.6-1.2c-7.9-2.8-14.4-7.6-19.5-14.4c-3.3-4.4-7.5-7.4-13.7-8.1
			c0.8,2.6,1.7,4.6,2.2,6.7c2.2,9.2,4.4,18.3,6.3,27.5c0.2,1.1-0.4,3.2-1.2,3.6c-1.2,0.5-3.1,0.3-4.4-0.3c-1.5-0.7-2.7-2.2-4-3.4
			c-7.1-6.4-11.2-14.8-15.9-22.8c-5.1-8.6-10.3-17.1-15.9-26.5c-1.9,9.5-3.7,17.9-5.2,26.4c-1.4,7.7-2.2,15.5-4,23.1
			c-2.1,9.2-2.5,17.8,2.3,26.4c1.7,3,1.6,7.2,1.3,10.7c-0.5,5.7-5.9,6.6-10,8.6c-1.3,0.6-3.3,1.5-3.6,2.6
			C276.1,800,275.7,804.2,275.1,808.3z M851.2,432.1c-6.7,3.6-13.3,5.1-20.8,1.4c-8.4-4.1-16.8-8.3-21.9-16.2
			c-3.8-5.8-6-12.6-9.4-18.7c-2.6-4.7-5.5-9.2-8.7-13.5c-2.1-2.8-5-3.4-8.5-1.6c-6.4,3.2-13,6.1-19.7,8.7c-3,1.1-3.8,2.2-3,5.3
			c2.8,10.6,1.2,20.9-4.5,30.2c-5.8,9.5-8.8,19.9-11.8,30.4c-1,3.4-0.3,5.7,2.4,8.4c5.2,5.1,10,10.6,10,18.6c0,1,1.6,2.3,2.8,2.8
			c11.1,4.3,19.2,12,25.7,21.6c3.7,5.5,5.8,6.1,12.2,4.3c2-0.5,4-1.1,5.8-2.1c8.2-4.5,16.7-6.9,26.2-6c1.7,0.2,3.7,0.3,5.2-0.4
			c3-1.2,6.7-2.3,8.4-4.6c5.4-7.2,11.3-14.4,14.7-22.5c6.2-14.9,7.2-11.3-3.2-23.1c-0.2-0.2-0.4-0.4-0.6-0.7
			c-4.2-5.4-4.3-9.3,0.3-14.4C856,436.8,855.5,434.6,851.2,432.1z M808.4,296.2c0.6-0.8,1.1-1.6,1.7-2.4c-1.4-0.5-3.1-0.7-4.2-1.6
			c-7.6-6.2-8.2-14.4-1.6-21.8c1.5-1.7,3.6-3.4,4.2-5.5c0.9-3,1.1-6.4,0.8-9.4c-0.4-2.9-2.2-5.5-2.8-8.4c-0.9-4.3-1.3-8.6-1.8-12.9
			c-0.3-2.4-1.3-3.4-3.8-2.7c-8.2,2.6-15.9,1.1-23.5-2.4c-2.3-1.1-5.2-2-7.6-1.6c-8.7,1.6-15-2-20.8-7.8c-5.4-5.4-10.8-5.9-17.6-2.6
			c-4.1,1.9-8.3,3.7-12.6,5.1c-6.4,2-11.2,5.4-12,12.3c-1,7.7-1.4,15.4-5.7,22.2c-0.6,1-0.2,2.9,0.1,4.3c0.7,4.3-0.4,8.3-3.4,11.3
			c-5.8,5.7-5.6,12.5-4.1,19.5c1.3,6.4,3.1,12.6,5.1,18.9c2,6.4,11.2,10,17.1,6.8c2.7-1.5,5.1-3.8,7.4-6c3-3,5.8-6.1,8.6-9.3
			c7.7-8.6,19.5-6.5,24.2,3.4c1.2,2.6,3.6,5.2,6.1,6.5c10.5,5.4,21.7,3.8,30-4.5C796.6,302.5,801.4,297.9,808.4,296.2z M641,610.2
			c0-0.7,0.3-2.3-0.1-3.8c-0.3-1-1.4-2.2-2.4-2.5c-6-1.6-10.9-0.3-14.3,5.3c-1.3,2.1-3.1,3.9-4.4,6c-0.7,1-1.3,2.4-1.1,3.5
			c1.1,8.7-0.9,16.7-7.1,22.8c-8.2,7.9-6.6,17.1-4.9,26.4c1.4,7.7,3.7,15.2,5,22.9c0.6,3.4,2.1,4.7,5.1,5.5c2.3,0.6,4.7,1.6,6.6,3
			c3.6,2.5,6.5,6,10.3,8.1c3.7,2,8.4,4.6,12,3.8c5.5-1.1,10.7-4.5,15.5-7.7c10.6-6.9,21.6-11.3,32.8-0.3c5.3,5.2,13.4,5.4,19.9,1.7
			c2.4-1.4,5.4-1.5,8.1-2.3c2.3-0.7,4.8-1.2,6.7-2.5c3.2-2.2,5.1-9.4,3.4-11.4c-6.2-7.4-12.2-14.8-18.7-21.9c-5.4-6-6.5-10.9-3-18.5
			c1.2-2.7,1.6-5.5-1.1-7.5c-3.2-2.4-6.6-4.9-10.2-6.6c-2.2-1-5.1-0.5-7.7-0.8c-1.9-0.2-4.2-0.1-5.5-1.1c-5.8-4.7-12.2-8.1-19.7-9.1
			c-5.1-0.6-10.2-1-15.3-1.4C642.6,621.1,640.6,619.1,641,610.2z M706.8,540.9c2.4,5.3,3.3,10,6,12.9c4.1,4.4,9.4,7.9,14.6,11
			c10.9,6.6,12.1,16.1,7.4,24.3c-2.6,4.5-2.5,5.8,2.6,6.8c10.9,2.3,21.2,1,30.4-6.2c2.3-1.8,5.5-3.6,8.2-3.5
			c5.7,0.3,11.4,1.7,17.1,3c2,0.4,3.9,1.6,6.2,2.5c0.6-1.9,1.1-3.3,1.6-4.6c2-5.6,3.7-11.3,6-16.8c1.6-4,3.6-8.4,9.1-8.1
			c4.4,0.2,8.7,1.1,12.5-2.1c0.6-0.5,2.3,0,3.4,0.4c5.8,2,11.5,4.1,17.3,6.1c6.1-10.9,6.1-14.6,0.1-25c-0.1-0.1-0.2-0.2-0.2-0.4
			c-3-5.2-2.8-8.7,1.1-13.4c1.5-1.9,2.1-3.4-0.3-5.1c-5-3.4-10-6.9-15.1-10.3c-0.5-0.4-1.4-0.2-2.1-0.3c-9-0.5-17.9,0-26,4.8
			c-1.7,1-3.8,1.6-5.7,2.2c-10.1,3-17.2,1-22.3-8.2c-4.7-8.6-12.2-14.3-21.5-17.7c-8-3-16.7,2.3-16.6,10.8
			c0.1,5.7,1.5,11.4,2.6,17.1c0.8,4.5,0.9,9-2.9,12.1c-3.3,2.8-7.2,4.9-11.1,7c-4.6,2.5-9.4,2.8-14.5,1.2
			C712.6,540.9,710.4,541.1,706.8,540.9z M936,759.2c-0.9-1.1-1.2-1.6-1.6-2c-7.4-6.2-11.9-13.2-6.5-23c0.4-0.7,0.3-2.3-0.2-2.7
			c-5.6-5.2-5.2-11.5-4.2-18.2c0.9-6.2-0.8-11.9-4.6-16.7c-3.2-4.1-5.5-4.1-9.7-1c-2.3,1.7-4.7,3.5-7,5.2c-4,2.8-7.3,2.5-10.2-1.5
			c-2.9-4.1-5.2-8.8-8-13c-4.7-7-9.1-14.2-14.5-20.6c-4.8-5.6-10.6-10.3-16.2-15.2c-0.9-0.8-3.2-1.3-4.2-0.7
			c-4.2,2.2-8.2,4.9-12.4,7.4c0.2,0.4,0.4,0.9,0.7,1.4c5,8.4,2,16.3-7.5,19.1c-3.6,1.1-7.5,1.3-11.2,2c-2.3,0.4-4.6,1-7.1,1.6
			c4.8,7.6,4.4,8.6-2.4,13.1c-1.5,1-3,2.8-3.4,4.5c-0.8,3.4-0.7,6.9-1.2,10.4c-0.5,3.6,0.7,5.2,4.3,4.6c2.7-0.4,5.3-1.5,8-2.3
			c11-3,20.6,2.9,22.2,14.1c0.4,2.9-0.3,6-0.6,9c-0.5,4.6,0.4,5.7,4.9,5c2.3-0.3,4.6-0.9,6.9-1.6c9.3-2.7,16.9,4.6,18.4,11.4
			c1.6,7.2,2.7,14.6,3.5,21.9c0.4,3.2,1.6,4.9,4.7,5.9c3.2,1,6.3,2.3,9.3,3.8c2.4,1.3,3.7,0.7,5.6-1.1
			c11.5-10.8,24.3-19.2,40.8-19.9C933.4,759.9,934.3,759.6,936,759.2z M753.3,395.9c-1.4,0.1-2.2,0.2-3.1,0.3
			c-9.5,0.8-18.7-0.9-26.3-6.4c-4.7-3.4-7.7-9-11.6-13.4c-1.3-1.5-2.7-3.4-4.4-3.9c-9.2-2.5-13.1-9.1-15.1-17.5
			c-0.6-2.5-1.2-5.1-2.2-7.5c-1.8-4.2-8.2-7.2-11.9-6.1c-5.6,1.7-11.2,3.5-16.9,4.6c-7.1,1.3-11.2,6-14.6,11.5
			c-1.3,2-1.8,4.1,1.1,5.9c1.8,1.1,3.2,3,4.4,4.8c7.7,12.1,4.2,24.4-0.3,36.3c-1.9,5-6,9.2-8.9,13.9c-2.9,4.7,0.2,9.1,1.7,13.3
			c0.4,1,4.2,0.6,6.3,1.1c1.5,0.3,3.2,0.7,4.4,1.5c2.9,1.9,6,3.8,8.4,6.2c4.6,4.7,9.9,5.3,15.7,3.4c7-2.3,12.8-0.4,18.1,4.4
			c6.3,5.6,12.8,11.4,21.4,13.3c11.8,2.6,16.1,1.8,18.2-6.4c2.8-11.1,6.9-21.5,12.4-31.5C754.8,415.1,756.5,405.9,753.3,395.9z
			 M296.5,402.3c0.8,2.6,0.9,4.6,1.9,6c3,4.2,6.3,8.2,9.8,12.1c4.2,4.7,3.9,6.5-1.7,9.4c-1,0.5-2.2,1.8-2.3,2.7c0,0.9,1.3,2,2.2,2.7
			c2.2,1.5,4.6,2.5,6.7,4.1c6.5,5,6,9.6-1.3,13.1c-4.8,2.3-9.7,4.1-14.4,6.4c-3.2,1.6-4,4.2-1.7,7.2c4.2,5.4,3.5,11.2,1.1,16.9
			c-2,4.6,0.4,9.8,5.3,11.5c4.3,1.4,8.6,3,12.8,4.5c0.8,0.3,1.7,0.6,2.5,0.4c10.6-3.2,21.2-6.5,31.8-9.6c3.5-1,7.1-1.6,10.6-2.3
			c7-1.3,14.2-2.2,21-4c6.4-1.7,11.4-5.4,14.1-12c3.5-8.7,8.1-17.1,11.6-25.8c2.3-5.6,3.5-11.6,5.1-17.2c-0.7-0.6-0.8-0.8-1.1-0.9
			c-1.1-0.3-2.2-0.7-3.4-0.9c-10.3-2-20.7-3.8-30.2-8.9c-4.3-2.3-8.4-4.7-10.7-9.3c-1.1-2.1-3-3.8-4.6-5.7c0,0.5-0.1,1-0.1,1.5
			c-7.1,1.6-14.1,4.5-21.2,4.5c-10.8-0.1-21.5-2.2-32.2-3.7C304.6,404.6,301.1,403.4,296.5,402.3z M548.6,485.2
			c5.9,2.6,11.2,4.6,16.3,7.1c6.9,3.5,10.6,9.4,11.5,17c0.3,3,0.4,6.2,1.3,9c1.1,3.3,0.8,5.4-2.1,7.9c-5.5,4.8-6.7,10.7-3.1,14.5
			c6.4,6.8,7.9,15,8.6,23.7c0.2,2.9,0,5.9,0,8.9c8.7-3.9,16.9-7.2,24.8-11.3c1.9-1,3.7-4.5,3.5-6.7c-0.9-8.1,3.5-12.8,9.7-15.9
			c6.9-3.5,14.4-5.8,21.5-8.9c1.6-0.7,3.2-2.3,4.1-3.9c4.7-8.1,3.4-17.2,4.4-26c0.7-6.8-1.3-12.9-6-18.1c-2.6-2.9-5.1-6.1-7.1-9.4
			c-1.4-2.3-2.4-5-2.7-7.6c-0.6-4.9-0.6-9.8-0.9-14.8c-0.2-3.5-1.5-4.7-5.6-4.2c-4.9,0.6-10.4,0.3-15-1.3
			c-8.5-3.1-16.4-7.6-24.6-11.5c-2.5-1.2-4.5-1.3-6.4,1.4c-1.8,2.5-1.9,4.3,0.3,6.4c3.2,3.2,3.7,7.2,1.6,10.8
			c-2.8,5.1-7.9,8.8-9.1,15c-0.1,0.6-1.3,1.1-2,1.6c-3.1,2.4-6.1,4.9-9.3,7.2c-3.7,2.5-7.6,4.8-11.3,7.2
			C550,483.9,549.2,484.7,548.6,485.2z M489.9,578.8c-2.3-5.8-5-9.4-9.9-11.9c-9.9-5.1-16.2-12.2-17.4-23.8
			c-1-9.1-4.4-17.9-11.2-24.6c-1.5-1.5-4.2-2.7-6.4-2.7c-17.2,0.3-31.6-5-42.5-18.7c-5.4-6.8-5.5-6.6-13.1-2.8
			c-2.6,1.3-2.5,2.5-1.6,4.8c1.3,3.1,2.6,6.3,3,9.5c1.1,10.3,1.9,20.7,2.5,31.1c0.1,1.7-1.3,3.9-2.7,5.1c-3.3,2.9-3,5.5-1,9.2
			c1.8,3.3,2.7,7.2,3.3,11c0.4,2.5-0.5,5.2-0.9,7.7c-0.8,5.9,0.3,7.5,5.8,9.9c2.3,1,5.2,2.3,6.3,4.3c4,6.9,6.4,14.3,3.8,22.4
			c-0.3,1-0.5,2.5,0,3.2c3.4,5.1,12.7,5.8,16.6,1.1c2.3-2.8,4.5-3.1,7.6-1.3c1.6,0.9,4.8,1.8,5.6,1.1c2.9-2.8,6.2-2.1,9.5-2
			c2.5,0.1,5-0.1,7.4-0.4c2.9-0.3,4.5-1.9,4.4-4.9c-0.2-7.6,3.8-12.5,10.3-15.9C476.2,586.5,483.1,582.6,489.9,578.8z M575.6,564
			c0-7.8-1.7-14.8-7.2-20.9c-5.4-6.1-5.6-12.5-0.1-18.5c3.2-3.5,3.9-6.8,3-11c-0.8-3.8-0.6-8-2.4-11.3c-3.3-6.1-9.4-8.9-16.3-9.7
			c-5-0.6-8.2-2.7-9.3-6.7c-1.3-4.9-6.2-9-11.3-9.7c-7.6-0.9-14,1.9-20.4,5.4c-4.5,2.4-6.7,5.2-6.5,10.6c0.1,2.4-1.8,5.6-3.8,7.2
			c-2.7,2.2-6.3,3.7-9.7,4.7c-4.3,1.3-7,3.6-7.8,7.9c-0.9,5-1,10.1-2.3,15c-0.8,3.4-3.1,6.4-4.5,9.6c-0.7,1.5-1.4,3.2-1.4,4.8
			c0.4,7.1,5,11.3,10.6,15c2.5,1.7,4.9,4.2,6.2,6.9c2,4.1,5,6.5,9.2,8.2c4.9,2,9.7,1.9,14.6,0.2c3.8-1.3,7.1-1,9.8,2.6
			c0.8,1,3.3,1.6,4.8,1.2c10.4-2.6,20.7-6.8,31.7-2.2c0.7,0.3,1.4,0.3,2.2,0.3C575.2,574.3,575.3,575.7,575.6,564z M985,802
			c-0.6,0.5-1.3,0.9-1.7,1.4c-1,1.4-1.9,2.9-2.8,4.4c-6.2,10.5-16.8,13.5-27.4,7.9c-5-2.7-6.3-2.3-9.1,2.6c-0.7,1.1-1.3,2.3-2,3.4
			c-2.3,3.6-6.1,4.8-9.8,2.7c-1.6-0.9-3-2.3-4.5-3.5c-2.5-2-4.9-2-6.8,0.7c-4.2,6-9.4,11.4-11.2,18.9c-1.2,5-5,7.6-10.4,7.7
			c-1.2,0-3.1,0.3-3.6,1.1c-2.9,4.8-7.9,6.1-12.6,8.1c-5.9,2.5-9.6,11.6-4.8,17.1c2.3,2.6,3.4,6.7,3.8,10.3c0.7,7.2,1.9,8.8,9.2,8.8
			c3.2,0,5.2,1.1,6.6,4.1c3.2,6.7,6.7,8.2,13.8,5.9c7.8-2.6,15.4-5.5,23.2-7.9c2.3-0.7,4.8-0.8,7.2-0.8c8.2,0,16.4,0.5,24.5-0.1
			c3.2-0.3,6.9-2.6,9.3-5c5.3-5.4,10.4-10.7,18.4-11.7c0.8-0.1,1.5-0.7,3.7-1.9c-4.1-2.4-7.5-4.1-10.5-6.3c-2.7-2-6.1-4-7.4-6.8
			c-5.1-11.3-2.7-21.8,6.2-30.2c3.4-3.3,5.2-6,4.2-10.7c-0.8-3.3-0.2-6.9-1.1-10.2C988.5,808.7,986.7,805.6,985,802z M847.1,327.2
			c6.9-3,14-6.1,21.1-9.2c4.1-1.8,5.4-5.1,5.2-9.2c-0.1-2-0.7-4-1-6c-0.7-5.3-2.5-10.7-1.8-15.8c0.9-7.1,2.8-14.4,5.6-21
			c4.1-9.8,1.8-17.9-4.6-25.4c-3.7-4.4-4.3-9-3-14.3c0.4-1.7,0.9-3.4,1-5.1c0.6-7-4.2-14.5-9.8-14.3c-5.6,0.3-8.9-2-11.2-6.5
			c-1.4-2.7-3.1-5.2-4.5-7.9c-2.5-4.9-3.5-5.2-8.3-2.7c-3.6,1.9-7.1,4-11.6,1.9c-4.7-2.2-6.8-1-7.5,4.1c-0.3,2.3-0.5,4.6-0.4,6.9
			c0.3,5.5,1.1,11,1.2,16.5c0,1.7-1,4.5-2.3,5c-7.3,3-6.4,8.5-5.2,14.2c0.2,1,0.2,2,0.3,3c0.4,5,0.5,10.1,4.5,14.1
			c1,1,0.7,3.5,0.7,5.3c0,6.5-4.8,10.6-8.1,15.5c-4.1,6.2-3.7,8.7,2.2,13.2c3.4,2.6,5,5.4,4.4,9.7c-0.2,1.2,0.3,3,1.2,3.8
			c8,7,16.1,14,24.4,20.7C841.5,325.4,844.1,325.9,847.1,327.2z M617.3,440.7c14.5,0.3,18.4-4.2,15.9-15.1
			c-1.6-7.2-1.3-14.1,3.8-20.1c1.5-1.8,2.7-3.8,4-5.7c7.4-11.2,7.3-19.1-0.6-29.6c-0.9-1.2-3.1-2.1-4.7-2c-6.9,0.4-13.7,1.5-20.5,2
			c-8.2,0.5-9.9-1.1-11.4-9.1c-1-5.5-4.4-10.7-9.1-12c-6.9-1.8-14.4-1.1-21.7-1.3c-2.8-0.1-4.2,1.6-5,4.3
			c-4.3,14.3-14.8,21.7-28.9,25c-4,0.9-7.8,2.4-11.6,4.1c-1,0.4-2,3.2-1.6,3.8c4.1,5.3,3.6,11.2,2.5,17.2c-0.8,4.6,1.1,7.2,5.1,9.4
			c3.3,1.8,6.6,4.4,8.8,7.4c3.1,4.3,4.4,5.1,9.7,3.4c2.6-0.8,5.4-1.3,8.1-1.2c15.9,0.9,30.3,6.4,43.9,14.2
			C609,438.1,614.6,439.6,617.3,440.7z M680.6,139.4c0-0.1,0-0.3-0.1-0.4c-4,0-7.9-0.2-11.9,0.1c-1.2,0.1-2.8,1.3-3.4,2.4
			c-1.9,3.4-3.3,7.1-5.2,10.5c-3.9,6.9-5.6,14.3-3.5,21.8c1.7,6,2,11.5,0.6,17.5c-0.6,2.7-0.5,6.3,0.9,8.5c4.2,6.5,4.4,9.3-0.9,14.9
			c-1.4,1.5-2.9,2.9-4.3,4.4c-5.2,5.6-3.8,18.2,2.5,20.1c6.9,2.1,10.2,7.2,14,12.5c3.6,5.1,7.7,9.9,11.7,14.6
			c2.3,2.7,4.6,2.2,5.3-1.1c0.9-4.1,1.2-8.3,1.3-12.4c0.1-4.1,1-7.4,5-9.4c0.9-0.5,1.5-2.3,1.5-3.4c0-4-0.6-8.1-0.5-12.1
			c0.2-9.9,6-16.2,15.8-17.7c3.2-0.5,6.4-0.9,9.5-1.8c1.1-0.3,2.3-1.9,2.5-3.1c0.7-3.5,1.1-7.2,1.3-10.8
			c0.7-10.9,4.9-19.8,14.3-26.2c1.8-1.2,3.1-4,3.3-6.2c0.5-5,0.6-10.2,0.2-15.2c-0.3-4-2.6-7.2-7.1-7.7c-8.2-0.8-16.4-1.9-24.5-1.8
			C699.5,137.3,690,138.6,680.6,139.4z M286.8,661c6.9,6,13.2,11.4,19.5,16.8c8.1,7,14.6,15,18.3,25.2c0.8,2.2,3.5,4.5,5.8,5.1
			c9,2.7,15.8,7.8,21.4,15.2c5.6,7.4,15.4,10.9,22.7,8.7c5.2-1.6,6.5-6,2.5-9.7c-2-1.8-4.6-3.1-7-4.4c-8.8-4.6-10.5-7.6-8.8-17.5
			c0.8-4.7,0.5-8.8-2.8-12.7c-1.3-1.5-1.7-3.9-2.4-6c-2-6.2-3.4-12.6-6.2-18.5c-3.2-6.8-1.4-11.9,6.2-13.8c4.4-1.1,9-1.7,13.2-3.2
			c2-0.7,4.6-2.7,5.1-4.5c1.6-6.3,0.6-12.3-4.3-17.3c-5.3-5.4-11.8-8.6-19.1-10.1c-10.3-2.2-18.2-7.1-21.7-17.5
			c-1-2.9-2.2-5.7-3.5-8.4c-0.6-1.1-1.7-2.3-2.9-2.8c-11.7-4.2-29.5,0.9-37.7,10.9c2.7,4.5,5.3,9.2,8.3,13.7c6,9,7.8,18.7,5.2,29.1
			c-1.6,6.6-0.3,12.6,3,18.4c2.1,3.6,1.2,5.7-3,5.6C295.1,663.4,291.6,662.1,286.8,661z M629.9,65.1c-8.8,1.6-16.8,0.2-24.4-3.3
			c-5.8-2.7-9.6-7-10.5-13.5c-0.2-1.8-0.9-3.7-2-5.2c-4.8-6.6-9.9-12.9-14.5-19.6c-2.2-3.1-4.2-3.6-7.7-2.3
			c-8.1,2.9-16.5,5.2-24.5,8.2c-2,0.8-4.3,3.4-4.6,5.4c-1.7,12.6-2.9,25.3-4.2,38c-0.6,5.6-1.1,11.2-1.6,17.1c1.8-0.3,2.9-0.5,4-0.7
			c8.2-1.6,16.1-1.7,22.6,4.8c3,3,6.1,5.9,8.9,9c3.7,4,7.8,6.6,13.5,5.5c2.6-0.5,5.2-1,7.7-1.7c9.1-2.3,14.1,2.3,12,11.1
			c0,0.2,0.2,0.5,0.4,0.8c1.6-0.6,3.1-1.4,4.8-1.6c8.3-1.2,15.5,1.2,20.9,7.6c3.4,4,7.5,5.4,12.5,4.5c2.6-0.4,5.2-0.7,7.8-1.2
			c0.9-0.2,2-0.9,2.4-1.6c3-6.4,4.4-13,0.8-19.6c-1.6-2.9-4-5.5-5.1-8.6c-1.1-3.1-2.1-6.8-1.5-9.9c1.2-6.2,1-7.9-4.6-10.9
			c-1.7-0.9-3.4-1.8-5.1-2.6C633.6,73,630.8,70.1,629.9,65.1z M238.7,966.5c2.2,0.2,3.5,0.4,4.7,0.3c11-1.2,21.1,1.7,31,6.4
			c13.2,6.2,24.7,14.5,34.1,25.6c1.4,1.7,4.2,3,6.4,3.1c6.4,0.5,12.9,0.1,19.3,0.4c3.6,0.2,5.7-1.4,7.3-4.3
			c5.3-9.7,11-19.2,15.9-29.2c4.6-9.4,8.7-19.2,8.4-30c-0.1-3.2-1.1-7.6-3.4-9.3c-5.7-4.4-12.3-7-20.1-5.5
			c-9.3,1.8-18.8,3.1-28.3,3.9c-11.4,1-22.9,1.1-34.3,1.9c-4.1,0.3-8.1,1.6-12.1,2c-10.4,1.2-19.3-2.2-27.2-9.2
			c-4.1,5-8.1,9.9-12.3,15.1c7.1,2.3,14.8,2.9,17.6,9.9C248.6,954.9,241.8,959.8,238.7,966.5z M615.4,609.8c3.3-3.7,5.4-6.3,7.7-8.6
			c3.9-3.9,12-4.7,18.1-2c5.5,2.4,6.4,6.9,5.6,12c-0.6,3.9,0.8,5.1,4.8,4.8c9.9-0.7,19.4,1.7,28,6.4c4.7,2.5,8.8,5.4,14.5,5
			c2.4-0.2,4.9,1.6,7.5,2.4c2.2,0.7,4.4,1.6,6.7,1.9c5.2,0.5,8.2-3.4,6.7-8.4c-0.8-2.5-2-4.8-3-7.3c-3.9-10-2-15,6.4-21.8
			c3.3-2.7,5.4-7,7.5-10.8c1.4-2.5-0.2-4.3-2.5-5.7c-6.4-3.7-12.9-7.4-19.1-11.4c-4.4-2.8-6.8-7.1-6.8-12.5c0-1.6-0.5-3.3-0.7-4.9
			c-0.2,0.5-0.5,0.9-0.7,1.4c-7.7-0.8-15.3-1.7-23-2.5c-8.1-0.8-15.6-2.8-20.4-11c-7.8,9.3-18.3,11.5-28.7,14.1
			c-1.1,0.3-2.3,2.3-2.3,3.6c-0.3,11.2-5.4,18.6-16,22.5c-3.9,1.5-7.9,2.9-13,4.8C604.3,588.1,613.3,595.7,615.4,609.8z
			 M174.4,356.2c-5.5,2.3-9.4,0.7-12.1-4c-1.1-2-3-4.9-4.7-5.1c-7.5-0.7-15.1-1.2-22.6-0.5c-6.4,0.6-12.5,4.9-19.1,1.5
			c-3.3-1.7-6.3-4.1-9.6-5.9c-1.4-0.7-3.7-1.4-4.8-0.7c-5.1,2.9-8.2,7.6-7.1,13.4c1.1,5.5,5.7,8.1,11.3,8.8c0.6,0.1,1.2,0.1,1.7,0.2
			c8.3,1.6,11.8,11.5,6.1,17.5c-1.6,1.7-4.4,2.3-6.2,3.9c-1.3,1.1-2.4,2.9-2.7,4.6c-0.2,0.7,1.5,2.1,2.6,2.8
			c5.1,3.4,10.4,6.6,15.4,10.1c8.5,5.8,17,11.7,28.3,8.9c2.4-0.6,4.9-1.2,7.3-1.4c9.6-0.6,17.5,3.9,13.3,14c1.7,0.4,3.4,0.9,5.1,1
			c7.8,0.5,15.3,4.4,23.6,0.6c8.8-4,13-11.3,15.9-19.4c2-5.5,2-11.6,2.6-17.5c0.9-8.9,1.3-11.9-8.1-14.5c-4.5-1.3-4.9-3.7-1.6-7.5
			c2.7-3,2.1-5.6,0.6-8.7c-2.1-4.2-6.5-4.2-10-5.6c-5.8-2.3-9.1-0.7-11.6,4.8c-3,6.7-7.6,7.1-12,1.1
			C175.4,357.9,175,357.2,174.4,356.2z M599.1,113c-0.3-0.4-0.5-0.8-0.8-1.2c-1.8,0.3-3.7,0.5-5.4,1.1c-9.1,3.2-16.9,1.6-23.6-5.5
			c-3.6-3.8-7.3-7.6-11.4-10.8c-5.7-4.6-12.3-3.5-21.1,2.8c-3.5,2.5-4.3,8-2.2,13.9c2,5.5,1.5,6.2-3.9,8.1c-2,0.7-3.6,2.5-5.8,4
			c1.4,1.2,1.8,1.5,2.3,1.9c10.6,8.1,18.6,18.5,22.5,31c2.2,7,5.6,11.1,12.4,12.8c3.1,0.8,6.3,1.8,9.5,1.7
			c11.5-0.4,21.4,3.9,31.6,8.3c5,2.2,10.6,3.5,16,4.4c2.4,0.4,6.2-0.4,7.6-2c4.9-5.7,11-7.8,18.1-8.3c4-0.3,5.3-2.7,5.4-6.5
			c0.1-4.4,0.1-9.1,1.3-13.3c1.3-4.4,4.2-8.3,6-12.5c0.8-2,1.8-5.3,0.9-6.3c-1.4-1.5-4.4-1.5-6.8-2c-0.9-0.2-2,0.4-3,0.6
			c-8.2,1.8-15.1,0-21-6.5c-6.9-7.6-12-8.1-21.3-3.1c-2.9,1.6-5.6,1.8-8.1-0.5c-2.5-2.4-2.6-5.4-1.3-8.5
			C597.5,115.3,598.4,114.2,599.1,113z M222.6,408.4c16.1-0.9,31-1,42.8-12.4c4.9-4.8,10.8-6.5,17.7-3.3c4.4,2,6,0.8,8.1-3.5
			c2.2-4.4,4.6-8.8,7.5-12.7c4.6-6.1,6-12.5,5-20c-0.8-6.3-1-12.8-0.4-19.1c0.4-4.7,2.4-9.2,3.9-13.8c1.1-3.3-0.1-5.3-3.5-5.2
			c-3.7,0.2-7.6,0.5-11.1,1.7c-7.9,2.7-14.4,0.5-18.2-6.7c-1.4-2.6-2.5-5.2-3.9-8.1c-1.9,0.3-3.9,0.7-5.9,0.9
			c-2.2,0.3-4.4,0.3-6.6,0.5c-8,1-11.2-1-14.1-8.4c-0.4-1.1-2-1.9-3-2.8c-0.6,1.4-1.9,2.8-1.8,4.1c0.6,7.5,1.6,15,2.2,22.5
			c0.6,7.2-3,13.1-9.6,16.2c-3.3,1.5-6.8,2.7-10.1,4.3c-4,1.9-9,10.3-7.4,13.3c2.7,5.2,5.4,10.2-0.5,15.2c1.2,0.7,1.8,1.2,2.4,1.5
			c8.4,3.8,10.2,7,9,16.1c-0.3,2.3-1,4.5-1.3,6.8C223.5,399.4,223.1,403.5,222.6,408.4z M646.9,439.2c-3.8,5.4-4.2,10.8-2.6,16.5
			c0.2,0.7,0.1,1.5-0.1,2.2c-1,3.6,0.4,6.5,2.6,9.2c6.2,7.5,10.3,16.1,13.9,25.1c4.4,11.1,5.2,21.9,0.1,32.9
			c-2.4,5.3,0.6,9.1,6.4,10c5,0.8,9.8,2.8,14.8,3.7c2.7,0.5,6,0.7,8.2-0.5c7.7-4,15.7-4.6,23.9-2.4c5.1,1.3,9.7,0.7,13.9-2
			c9.9-6.5,12.8-4.6,8.8-19.4c-2.9-10.7-3.2-20.6,8.3-27.9c6.8-4.3,6.2-7.1,0.3-13.7c-1-1.1-2.3-1.9-3.2-3c-1.8-2.1-3.7-2.1-6.3-1.4
			c-2.7,0.8-5.7,1.1-8.6,1c-11.9-0.6-21-7-29.2-14.6c-5.3-4.9-10.9-7-18-4.8c-6.1,1.9-11.2,0.3-16.3-3.7
			C658.8,442.8,654.4,436.6,646.9,439.2z M365.2,912.7c2.7,1.6,5.5,3.4,8.4,5c0.7,0.4,1.7,0.4,2.5,0.6c2.1,0.7,4.6,0.9,6.4,2.1
			c7.3,4.8,9.4,12.3,9.9,20.4c0.3,4.6,2.2,7,6.8,8.1c6.6,1.5,13.2,3.1,19.4,5.6c4.8,1.9,8,0.8,11.5-2.2c6.5-5.5,13.4-7.6,21.8-3.4
			c6.3,3.2,11,0.9,13.8-5.6c0.8-1.7,0.9-3.9,2-5.3c2.1-2.6,4.3-5.7,7.2-7c6.4-2.8,8.2-5.5,4.3-11.2c-5.2-7.6-11.3-14.8-17.5-21.6
			c-4.5-4.9-7.9-9.8-8.3-16.7c-0.6-9.2-3.6-11.1-13-9.9c-8,1-16,2-24,2.9c-5.1,0.5-10.2,0.5-15.3,1.3c-3.3,0.5-6.4,2-9.5,3.3
			c-1.3,0.6-3,1.9-3.3,3.1c-0.7,3-2.4,3.4-4.8,2.5c-2.3-0.9-4.6-2.1-7-2.6c-1.1-0.2-3.3,0.7-3.5,1.5
			C370.2,893.3,367.8,903,365.2,912.7z M884,784.6c-1.3-0.4-2.8-1.1-4.4-1.5c-9.6-2.4-12-5.3-13.1-14.9c-0.7-6.3-1.8-12.6-3-18.9
			c-1-4.9-4-6.7-9-5.9c-3.9,0.6-7.8,1.5-11.7,1.8c-5,0.4-9-2.6-9.7-7.5c-0.4-2.9,0.2-6,0.5-9c0.5-4.3,0-8.7-4-10.8
			c-5.9-3-11.8-0.1-17.4,1.8c-0.6,0.2,0.4,5.3,0.7,8.2c0,0.4,0.2,0.9,0.2,1.3c1.1,9.8,2,19.6,3.2,29.4c1,7.9-0.6,14.9-5.4,21.4
			c-1.8,2.4-3.5,5.9-3.3,8.7c0.6,9.6-0.5,18.5-5.8,26.7c-0.5,0.7-0.9,1.6-1,2.4c-0.5,4.3-1.8,8.8-1,12.9c0.4,2.1,4.6,3.4,7.1,5.1
			c1.5,1,2.9,2.3,4.5,2.7c2.5,0.6,5.3,1,7.7,0.5c5.4-1.3,10.5-3.5,15.9-4.9c6.7-1.8,12,1.7,17.1,5.2c9.3,6.6,18.7,11.1,29.9,2.8
			c-1-1-2-2.4-3.2-3.5c-3.2-2.7-6.8-5-9.7-8c-7.1-7-4.4-18.4,5.2-21.1c4-1.1,5.2-2.6,4.3-6.5c-0.8-3.3-2.3-7.1-1.5-10
			C878,789.9,881.3,787.6,884,784.6z M180.7,355.4c7.1-9.6,10.3-10.6,21.7-6.8c1.4,0.5,2.8,1.1,4.2,1.2c0.9,0.1,2.6-0.5,2.8-1.1
			c2.3-7.8,8.8-10.2,15.6-12.7c8.3-2.9,10.3-6.9,10.9-15.4c0.6-7.3-4.4-11.5-6.7-16.4c-3,1.8-5.5,4.3-8.5,4.9
			c-4.1,0.8-8.7-3.6-9.4-8.6c-0.5-3.6-2.2-4.1-5.3-3.8c-6.1,0.5-12,1-14.7,7.8c-0.5,1.3-1.9,2.2-2.9,3.2c-3,3.1-6.4,4.2-10.7,2.6
			c-7-2.7-11.2-8.2-15.3-13.8c-4.5-6.1-8.6-12.5-12.6-18.9c-2.5-3.9-5.5-5.6-10.3-4.7c-7.8,1.5-15.6,2.5-23.4,3.9
			c-0.8,0.1-2.1,1.3-2.1,2c-0.1,4.9-2.4,8.5-6.4,11.2c0.4,1.1,0.5,2,1,2.7c2.1,3.5,3.1,6.7-0.8,10c-0.9,0.8-0.5,3.2-0.4,4.9
			c0.1,2.1,0.7,4.3,0.8,6.4c0.1,2.1-0.2,4.3-0.2,6.4c0.1,4.7,0.2,9.4,0.7,14.1c0.2,1.9,0.8,4.2,2.1,5.6c4.6,5,10.3,5.7,16.5,3.3
			c9.6-3.7,19.3-2.7,29.1-1c4.8,0.8,8.8,3.1,11.4,7.5c0.6,0.9,2.2,2.2,2.8,1.9C175.3,349.6,178,352.5,180.7,355.4z M506,477.8
			c1.4-0.8,3.3-2.1,5.4-3c9.9-4.6,19.7-7.5,29.7,0.2c4,3.1,8.8,2.6,12.8-0.1c5.3-3.6,10.1-7.9,15.1-11.9c0.7-0.6,0.9-1.8,1.4-2.7
			c1.5-2.6,2.7-5.4,4.6-7.7c3.9-4.6,4.2-5.8,0.3-10.3c-2.3-2.6-2.8-5.3-1.5-8.4c0.5-1.1,0.8-2.3,1.3-3.8c-7-1.8-13.5-3.4-20.3-1.5
			c-7.4,2.1-12.4-0.1-16.3-6.6c-1-1.7-2.8-3.1-4.5-4.3c-8.1-5.4-13.6-7.8-10.8-19.3c0.6-2.3,0.4-4.9,0.2-7.4
			c-0.4-4.1-2.6-5.2-6.4-3.6c-6.7,2.9-13.5,4.1-19.6-0.8c-4.7-3.8-8.8-8.4-13.2-12.6c-1.4-1.3-2.8-2.5-4.5-3.9
			c-5.9,18-12.2,34.8-27.3,47.8c3.7,0.4,6.3,1,8.9,0.9c8.5-0.3,15,3.9,20.7,9.2c7.8,7.3,9.1,16.9,8.6,26.9
			c-0.3,5.2-0.2,10.2,4.5,13.8C498.5,471.5,502,474.5,506,477.8z M798.3,372.8c8.1,6.2,13.9,13.5,15.5,23.4
			c1.2,7.3,4.3,13.6,8.9,19.5c8.4,10.7,16.5,11.6,25.4,1.6c0.2-0.2,0.3-0.5,0.6-0.7c3-1.3,6-3.5,9-3.6c5.3,0,8.5-2,11-6.3
			c3.4-6.1,6.8-12.3,11.1-17.8c2.5-3.2,2.4-4.8-0.3-7.5c-6.7-6.6-11.6-13.8-10.4-24.2c0.9-8-3.6-12.5-11.4-15.1
			c-3.3-1.1-7.2-2.4-9.1-4.8c-2.8-3.6-6-6.1-9.8-8.2c-1.5-0.8-2.7-2.2-4.1-3.3c-7.9-6.7-15.8-13.3-23.7-20.1c-3-2.6-5.8-2.2-8.6,0.3
			c-4.3,3.9-9,7.5-13,11.6c-5.8,6-5.6,7.8-0.9,13.7c3.1,3.9,6.3,7.7,8.7,12C802.3,352.7,807,362.3,798.3,372.8z M366.8,705.2
			c-0.3,4.5,1.8,7.1,5.8,9.3c4.2,2.3,7.8,5.8,11.8,8.6c1,0.7,3.3,1.2,4,0.7c5.5-4.5,10.9-9,16-14c1.3-1.3,1.5-4.1,1.4-6.1
			c-0.1-6.6,1.8-9.3,7.7-12.7c3.5-2,6.4-5.2,9.3-8.3c3.6-3.9,6.9-8.1,10.3-12.2c2.4-2.9,4.6-6,7.2-8.7c3.6-3.9,7.5-7.6,11.2-11.3
			c0.9-0.9,2.5-1.6,2.6-2.6c0.9-5.7,4.1-9.8,8.3-13.5c1.8-1.6,1.4-2.9-0.1-4.8c-2.1-2.8-3.5-6.2-5.2-9.3c-0.5-0.9-0.9-2.5-1.4-2.5
			c-4.3-0.1-9.4-1.4-12.8,0.4c-4.1,2.1-6.9,1.6-10.6,0.2c-1.2-0.5-3.4,0-4.4,0.9c-4.6,4.1-9.9,5.2-15.2,1.9
			c-6.7-4.1-13.3-3.8-20.2-1c-6,2.4-11.3,10.2-11.3,16.5c0.1,9.9-2.2,12.7-12.1,14.9c-3.6,0.8-7.2,1.7-10.6,2.9
			c-3.9,1.4-4.5,3.8-2.8,7.6c1.7,3.7,3.3,7.4,4.5,11.3c1.8,5.8,2.1,11.9,6.1,17c1.6,2,1.1,5.8,1.2,8.8
			C367.7,701.2,367.1,703.2,366.8,705.2z M660.4,973.3c-5.7-3.3-11.1-6.7-16.8-9.6c-1.7-0.8-4.2-0.5-6.2,0c-3.4,0.9-6.6,3.3-9.9,3.3
			c-7.9,0-15.4-1.8-20.3-8.9c-0.5-0.7-1.2-1.6-1.8-1.6c-4.9,0.1-5-2.9-4-7.2c-3-0.3-5.7-1.2-8.3-0.8c-4.5,0.7-8.8,2.1-13.2,3.3
			c-6.4,1.8-12.6,2-18.7-1.4c-1.1-0.6-3-0.3-4.4,0.1c-1.7,0.5-3.1,1.9-4.8,2.2c-11,1.7-13.5,12.4-21.1,18.1
			c6.4,3.1,12.1,5.3,17.2,8.4c3.2,1.9,7.3,4.7,7.9,7.7c1.9,9.1,5.2,18.9-3.3,27.1c-1.6,1.5-2.7,3.5-3.7,5.4c-1.7,3-0.9,5.2,2.5,5.1
			c8.7-0.4,13.6,4.1,17,11.3c0.4,0.8,1.9,1.8,2.6,1.6c7.3-1.8,14.6-3.7,18.7-10.9c3.9-6.8,9.8-11.1,17.3-12.3
			c12.5-2.1,25.1-3.3,37.9-4.9c4-6.4,1.9-13.7,0.3-20.4c-1.7-7.2-1.3-9.1,6.3-9.5C655.4,978.8,658.4,977.7,660.4,973.3z
			 M677.2,866.3c1.5,1.3,2.7,2.8,4.3,3.5c4.8,1.9,6.7,5.4,6.7,10.2c0,1.3-0.4,2.8,0,3.9c0.6,1.3,1.8,3.2,2.9,3.3
			c5.6,0.6,11.1,0.2,15.8-3.7c6.4-5.3,14.3-3.9,18.2,3.8c2.5,4.9,6.1,8.3,10.5,11.3c3.4,2.3,6.5,4.9,9.6,7.6c5,4.3,9.3,9.5,8.7,16.3
			c-0.5,5.7,2.4,7.3,6.8,8.6c3.7,1.1,7.3,0.9,9.7-2.1c3-3.6,6.3-7.4,8-11.7c2.2-5.7,5.3-8.8,11.6-8.5c3.4,0.1,5.5-1.8,6.4-4.9
			c1.1-3.6,2.1-7.2,3.1-10.8c2.2-8,3.3-9,11.4-10.1c0.1-2,0.7-4.1,0.3-6c-0.8-3.4-1.3-7.6-3.6-9.8c-4.3-4.2-7-8.7-8.1-14.5
			c-0.4-1.9-1.2-4.2-2.5-5.3c-5.2-4.5-11.3-6.6-18.3-4.8c-3,0.8-5.9,1.8-9,2.2c-7.7,0.9-15.1,0.1-20.5-6.2c-3.8-4.4-7.3-9-11.3-14
			c-5.6,1.3-7.9,5.5-5.7,12.3c1.2,3.7,2.7,7.5,3.1,11.3c1,9.3-8.2,16.5-16.6,12.8c-5.5-2.4-9.3-1.7-13.3,2.4
			c-3,3.1-6.7,5.5-11.4,3.8C688.9,865.2,684,862.8,677.2,866.3z M657,909.3c-0.1,6-3.5,8.6-9,7.3c-3-0.7-5.2-0.8-7,2.9
			c-3.4,6.6-10.3,8.9-17.7,7c-4.1-1-5.8,0.2-5.6,4.3c0.1,1.7,0.6,3.4,1.1,5.1c2.4,8.9,1.9,10.7-5.7,15.7c-3.4,2.2-2.5,4,0,5.5
			c6.2,3.7,12.6,6.3,19.7,1.5c5-3.4,10-3,15.2,0.3c4.9,3.1,10.2,5.6,15.6,8c1.5,0.7,3.8,0.4,5.3-0.2c6.8-2.9,13.6-5.9,20.2-9.3
			c6.6-3.4,13.1-7,19.4-11c5.1-3.2,9.6-7.2,14.5-10.6c6.4-4.4,12.8-9.1,21.1-9c4.8,0,5.4-2.6,5-6.5c-0.5-5.5-4.2-8.7-7.9-12
			c-7.2-6.2-16.6-10.1-20.6-19.7c-1.4-3.2-6.2-3.2-9.7-0.7c-7.9,5.5-16.1,7.3-25.1,2.6c-4.4-2.3-10.3,0-12.3,4.4
			c-2.7,6.2-3.9,6.8-10.6,5.9c-4.8-0.6-6.4,0.9-6.2,5.7C656.7,907.7,656.9,908.7,657,909.3z M217.7,477.6c1.1,1.4,1.2,1.7,1.4,1.9
			c4.9,3.7,10.2,7.2,9.9,14.4c0,0.6,0.6,1.4,1.1,1.8c6.2,4.7,12.2,9.6,18.7,13.7c2,1.3,5.7,1.1,8.1,0.1c1.2-0.5,1.3-4.2,1.3-6.4
			c0-3.5-0.6-7.4,3.1-9.3c3.7-1.9,6.3,0.9,8.7,3.2c0.2,0.2,0.4,0.6,0.6,0.6c1.4,0,3.2,0.4,4-0.3c4.5-4.3,8.9-8.8,13.1-13.4
			c5.3-5.7,5.7-11.7,1.4-18.1c-3-4.4-2.7-7,2.1-9.7c4.9-2.8,10.4-4.7,15.4-7.2c1.7-0.9,4.2-2.7,4.2-4.1c0-1.6-2.2-3.5-3.8-4.6
			c-2-1.4-4.6-2-6.6-3.4c-4.2-2.9-3.6-8.7,1-10.9c1-0.5,1.9-1,2.5-1.3c-3.9-5.2-8-9.8-11-15c-1.7-3.1-3.7-4.4-6.5-3.5
			c-7.3,2.4-14.5,5.2-21.6,8c-3.4,1.3-6.3,3.9-9.8,4.7c-7.1,1.5-14.4,2.6-21.7,3.1c-5,0.3-8.8,1.5-11,6.3
			c-3.8,8.2-11.5,11.6-19.5,12.2c-7.9,0.6-11.8,4.4-14.9,10.7c4.1,3.3,8.5,3.2,13.3,2.5c5.4-0.9,11.1-1.8,16.5-1
			c5.2,0.8,10.5,3,15,5.8c2.4,1.5,4.2,5.4,4.3,8.3c0,1.8-3.5,4-5.8,5.3c-2.2,1.2-5.2,1.2-7.6,2.1
			C221.5,474.7,219.8,476.3,217.7,477.6z M435.1,1006.3c8.9,1.9,17.2,3.1,22.7-5.6c1.5-2.3,2.4-4.9,3.6-7.4c3-6.1,7.1-12,15.5-9.2
			c1.2,0.4,2.6,0.5,3.9,0.6c7,0.8,9.7-1.4,9.9-8.4c0.3-8.8,5.2-13.7,13.1-12.8c4.4,0.5,8.7,1.3,13,2.3c7.5,1.7,9.7,0.8,14.6-5.4
			c5.2-6.4,9.8-13.6,19.4-14.4c1.3-0.1,3.1-2,3.4-3.4c0.3-1.3-0.8-3.4-1.9-4.4c-1.8-1.7-4.1-2.8-6.2-4.1c-9.5-5.4-17-12.3-20.1-23.2
			c-1.3-4.6-3.2-9-5.1-13.4c-0.6-1.3-2.1-3.2-3.1-3.2c-7.2,0.1-14.7,0.5-20.1,6c-3.4,3.5-6.8,4.6-11.4,3.7
			c-4.4-0.8-8.8-1.5-14.2-2.4c1.2,1.6,1.7,2.2,2.2,2.9c3.4,4.9,7.3,9.5,10.1,14.8c3.1,6,2.5,14.1-3.6,15.8c-5.3,1.5-7.7,4.9-9.4,9.8
			c-3.9,10.8-10.4,13.4-21,9c-5.9-2.4-17.9,2.2-20.6,8c-0.3,0.6-0.4,1.4-0.3,2.1c0.8,5.6-1.2,10.3-4.8,14.4c-2.6,2.9-2,5,0.3,7.9
			C429.9,992.2,435.6,997.7,435.1,1006.3z M522.8,276.9c-11.2,12.1-11.3,11.7-28.6,15.7c-7.4,1.7-14.3,5.6-21.1,8.4
			c2.2,5.9,4.6,10.5,5.7,15.3c2.2,9.7-2.9,17.7-7,25.9c-1.5,2.9-3.5,5.6-5.2,8.3c3.4,2.2,6,4.3,9,5.9c3.6,1.9,4.5,5,5.2,8.5
			c0,0.2,0.4,0.4,0.6,0.6c3.9,3.9,7.9,7.7,11.6,11.7c6.9,7.4,14.1,8.7,22.8,3.2c7.4-4.8,15.1-8.6,23.8-10.8c11-2.8,19.7-8.8,23-20.5
			c0.8-2.7,0.3-4-1.6-5.4c-4.1-3.1-6.8-7.1-7.6-12.3c-0.4-2.6-1.3-5.5-3-7.3c-2.2-2.4-5.4-4-8-6c-5.3-4.1-11.3-7.8-10.6-15.8
			c0.3-3,0.6-6.1,0.6-9.1C532.1,286,529.7,280.1,522.8,276.9z M214.4,511c2.5,2.8,4.5,5.5,7,7.5c6.6,5.4,12.6,11.2,16.8,18.7
			c2.1,3.8,4.4,7.5,7,11c10.1,14.3,24.3,23.7,40,31.1c1.3,0.6,3.5,0.3,4.9-0.3c11.5-5,23.4-7.4,36.1-5.9c2,0.2,4,0.2,6.3,0.3
			c0-2.2,0-3.9,0-5.6c-0.6-18.1-6.6-35-11.2-52.2c-2.2-8.1-6.8-13.5-15-15.4c-6.5-1.4-11.8-4.1-15.3-10c-1.1,0.7-1.9,1.1-2.5,1.7
			c-2.9,3-5.6,6.3-8.7,9.2c-5.5,5.1-9,6.5-12.9-0.4c-0.2-0.4-0.9-0.5-2.2-1.1c0.2,2.6,0.2,4.5,0.5,6.4c0.7,3.9-0.9,6.3-4.4,8
			c-7,3.3-12.8,0.6-18.4-3.3c-4.8-3.3-9.4-6.8-14.6-10.6c-2,2.2-3.5,4.4-5.5,6C220.1,507.9,217.6,509.1,214.4,511z M471.8,532.3
			c0.6,0.1,1.1,0.2,1.7,0.3c1.1-2.3,2.6-4.4,3.1-6.8c0.9-4.1,1.2-8.3,1.6-12.5c0.8-9.6,3.3-12.7,12.6-15.3c3.9-1.1,8.6-1.9,9.1-6.9
			c0.6-6.1,2.2-13-4.6-16.9c-9.3-5.4-11.2-13.4-10.6-23.4c0.3-5.2-0.9-11.2-3.4-15.8c-4.9-9-13.8-11.1-23.7-11.1
			c-9.2,0-18.1-0.3-26.7,4c-4.9,2.5-9.5,4.2-10.2,10.3c-0.2,1.7-1,3.3-1.7,4.9c-4.8,11.5-9.8,23-14.5,34.5c-0.5,1.2,0.1,3.4,1,4.4
			c3.5,3.7,7.4,7.1,11,10.7c7.5,7.4,16.3,11,27,10.1c3.6-0.3,7.6,0.7,10.9,2.2c5.9,2.7,8.6,8.5,11.2,14
			C467.7,523.4,469.7,527.8,471.8,532.3z M636,915.2c-2,0-3.2-0.1-4.5,0c-9.1,0.5-12.7-1.9-15.7-10.6c-1.1-3.3-2.6-6.5-4.2-9.6
			c-5.5-10.5-11.5-20.5-23.1-25.9c-5.1-2.4-9.4-6.3-14.1-9.4c-1.3-0.9-3-2.3-4.2-2c-6.3,1.3-12.7,2.5-18.7,4.9
			c-4.9,2-8.5,7.3-14.9,4.8c-0.6-0.2-2.5,0.8-2.6,1.4c-1.2,7.6-6.4,12.9-10.7,18.7c-0.7,0.9-0.9,2.7-0.5,3.7c2.3,5.6,5.5,11,7,16.8
			c2.7,10.3,9,17,18.3,21.6c5.8,2.9,10.8,6.4,12.3,13.2c0.3,1.3,2.7,2.6,4.3,3.1c5.6,1.5,11,0.7,16.4-1.3c8.3-3.2,16.6-5.4,24.4,1.5
			c0.6,0.6,2.3,0.5,3.2,0.2c4.9-1.7,6.5-4.9,5.1-9.8c-1.4-4.7-2.3-9.2,0.5-13.9c1.7-2.9,3.4-3.7,6.7-2.3
			C627.4,922.8,631.5,921.4,636,915.2z M430.1,206.2c0.6,1.7,1,3.2,1.5,4.7c3.6,9.6,6.6,19.1,5.2,29.7c-0.5,3.7,0.9,7.6,0.9,11.5
			c0,2.4-0.9,4.8-1.4,7.1c-0.3,1.3-1,2.7-0.8,3.9c0.8,4.4,3.5,6.8,8.2,7c6.2,0.3,10.8,3.4,14.1,8.5c2.1,3.3,4.2,6.5,5.7,8.9
			c8.2-2.1,15.9-4.4,23.6-5.9c12.2-2.4,21.7-9,29.9-17.9c0.7-0.7,0.9-2.4,0.6-3.4c-1.5-7.3-0.7-10.7,6.1-13.2
			c7.6-2.8,13-6.9,14.8-14.9c0.1-0.3,0.3-0.5,0.4-0.8c1.6-5.5,3.9-11,4.7-16.7c0.7-5.2-1.4-6.9-6.2-6.3c-3.2,0.4-6.6,0.8-9.6,0
			c-8.4-2.3-14.4,1-19.3,7.1c-5.1,6.5-11.9,9.7-19.6,11.6c-5.6,1.4-10.9-1.8-12.5-7.3c-2.1-7.3-2.1-7.3-10-7.4
			c-5.2-0.1-9.6-0.9-12.5-6.2c-2.2-4.1-8.2-5.5-13-3.9C437.6,203.3,434.2,204.7,430.1,206.2z M459.8,675.7c0.6-0.2,1.3-0.4,2-0.6
			c6.3-2.4,12.1-2.2,16.9,3.1c3.1,3.5,6.2,6.9,9.3,10.5c6.5,7.5,9.2,7.6,16.9,1.8c7.2-5.4,14.8-10.3,22.4-15.2
			c6.2-3.9,12.6-7.3,18.9-11c0.9-0.6,2.1-1.5,2.3-2.4c0.7-4.6-1.5-8.2-4.7-11.2c-2.6-2.5-5.5-4.5-9.4-2.5c-3.7,1.9-5.7,0.2-6.3-3.3
			c-0.6-2.8-1.7-4.5-4.5-5.8c-1.8-0.9-3.8-3.4-3.9-5.2c-0.3-8.4-4.1-15.6-8.1-22.3c-3.6-6-5.4-10.4-1.6-17.2c3.7-6.6,1.6-9-6.1-9.9
			c-1.3-0.2-2.6-0.7-3.9-0.6c-2.8,0.3-5.8,0.3-8.2,1.5c-6.2,2.9-12.1,6.5-18.3,9.5c-6,2.9-9.2,7.4-9.5,13.9
			c-0.1,1.8-0.8,3.6-1.2,5.5c-0.4,1.8-1.4,4-0.8,5.5c1.1,2.7,2.9,5.2,4.9,7.4c4.2,4.7,4.4,7.6-0.2,11.9c-3.7,3.5-6.6,7.2-7.6,12.4
			c-0.4,1.7-2.4,3.2-4,4.5c-1.8,1.5-3.9,2.7-5.7,3.9c2.2,3.2,4,5.6,5.7,8.1C456.6,670.3,458.1,672.9,459.8,675.7z M851.2,332.3
			c0,0.7,0.1,1.4,0.1,2.1c2.3,0.9,4.6,1.6,6.7,2.6c3,1.4,6.3,2.5,8.7,4.5c5.9,5,8.6,12,8.1,19.5c-0.4,6.8,2.4,11.7,6.6,16.4
			c3.8,4.1,6.5,4,10.1-0.4c4.9-6,13.3-8.7,20.5-5.9c3.9,1.5,7.1,4.5,10.8,6.5c3.4,1.9,6.8,4.1,10.5,5.1c11.1,3.1,22.4,5.6,33.6,8.6
			c2.7,0.7,4.7,0.6,5.5-2.3c1-3.6,1.9-7.2,2.9-10.9c1.3-5,2.2-10.2,4.2-14.9c3-7.1,6.7-13.9,10.2-20.7c1.1-2.2,1-3.7-1.1-5.2
			c-3.2-2.3-4.4-5.6-4.3-9.5c0.1-2.7,0-5.4,0-8.9c-5.3,2.4-9.7,4.4-14,6.3c-5.2,2.3-10.7,5.5-16.3,2.6c-5.3-2.8-9.3-1.2-13.4,1.6
			c-6.1,4.2-12,4.8-18.1-0.1c-3.1-2.5-6.3-2.3-9.7,0.1c-3.2,2.3-6.6,4.5-10.2,5.9c-7.4,3-13.8-0.2-16.3-7.7c-2-6.1-2.8-6.4-9.2-4.4
			c-1,0.3-2,0.5-3,0.8C866.6,326.8,858.9,329.6,851.2,332.3z M335.8,286.5c5.2,9.2,5.6,17.8-1.7,26c-0.6,0.6-0.3,2.5,0.2,3.4
			c1.7,3.1,4.7,3.3,7.7,2.5c3.8-1,7.4-2.6,11.2-3.7c3.2-0.9,6.9-2.6,9.7-1.8c5.5,1.6,9.9,0.2,14.7-1.8c6-2.5,10.2-0.9,14.1,4.4
			c1.3,1.8,2.1,3.9,3.6,5.4c1.1,1.1,3.2,1.9,4.7,1.7c3.3-0.6,6.3-2.2,9.6-2.9c10-2,18.2-2.4,22.3,11c0.5,1.6,2,3.4,3.5,4.2
			c5.6,2.9,11.3,5.6,17.1,8c1.1,0.4,3.5-0.2,4-1c2.4-4.3,5.5-8.7,6.2-13.3c2-13.7,0.2-27.4-4.7-40.4c-1.9-5.1-4.6-11.1-11.2-11.8
			c-8.2-0.8-13.4-5.1-17.2-11.8c-10,3.1-19.9,6.2-29.9,9.1c-12.6,3.7-25.2,4.9-38.2,2.2c-6.9-1.4-13.7-1.4-19.2,4.2
			C340.3,282.2,338.2,284.2,335.8,286.5z M254.8,168.8c0.8,5.5,2.1,10.2,2,14.9c-0.2,10.7,3.3,20.4,8.2,29.5
			c6.2,11.4,9.6,23.2,10.2,36c0.6,12,0.3,24.2,4.7,35.7c1.6,4.3,3.6,8.7,4.2,13.2c0.5,3.7,2.3,5.3,5.3,5.9c2.7,0.6,5.5,0.5,8.2,0.4
			c3.5-0.1,7-0.7,9.6,2.7c0.9,1.1,2.8,1.9,4.2,2c5.1,0.3,10.3,0.5,15.4,0.2c1.3-0.1,2.9-1.5,3.7-2.8c5.9-9.3,2.2-18.8-8.4-21.8
			c-3-0.9-6-1.3-9-2.1c-4-1.1-7.6-5.9-6.8-9.5c1.1-5.1,3.2-9.7,8-12.5c3-1.8,6.3-3.2,9.1-5.3c1.9-1.4,3.6-3.4,4.5-5.5
			c2.6-5.6-0.3-10.9-1.9-16c-0.7-2.2-3.1-4.6-5.3-5.6c-4.6-2.1-8.2-5.1-10.5-9.5c-4.6-8.9-9-17.8-13.3-26.8
			c-1.2-2.6-1.9-5.5-2.7-8.2c-0.8-3,0.5-4.9,3.1-6.4c1.6-0.9,2.9-2.3,4.3-3.4c-0.2-0.6-0.5-1.3-0.7-1.9c-4.3,0.3-8.6,0.1-12.8,0.9
			c-8.5,1.6-16.6,1.4-24.7-1.9C260.9,169.8,257.8,169.5,254.8,168.8z M602.9,701.1c-2.5-11.9-4.6-22.4-6.9-33.6
			c-2.6,1.4-4.1,2.1-5.6,3c-6.8,4.2-11,4.2-16.5-1.4c-5.3-5.4-10.7-6.5-17.3-3c-7.8,4.2-15.8,8.2-23.6,12.4
			c-5.9,3.2-11.7,6.5-17.3,10.2c-3.4,2.2-6.2,5.4-9.6,7.5c-3.3,2-4,4.3-2.5,7.6c1.5,3.3,0.4,5.7-1.8,8.6c-2.3,2.9-3.4,6.8-4.4,10.5
			c-0.3,1.2,1.1,3.3,2.3,4.4c4,3.9,8.5,7.4,12.4,11.5c1.7,1.8,2.9,2.5,5.5,2.2c3.8-0.4,8-0.8,11.7,0.2c8.1,2.1,15.9,5.2,23.9,7.5
			c2.1,0.6,4.6,0.2,6.8-0.2c6.3-1.1,10.1-6.2,14.8-9.6c3-2.2,4.4-5.2,3-9.2c-0.5-1.4-0.3-3.7,0.5-4.9c2.6-4,5.8-7.6,8.3-11.6
			c1.1-1.7,2.1-4.5,1.4-6.1c-1.2-2.5-2.7-4.9-0.5-7.1c2.2-2.2,5.1-3.4,8.4-1.8C597.7,699.2,599.6,699.8,602.9,701.1z M798.1,712.9
			c-13.2,6.9-21.7,17.9-28.7,30.6c-3,5.3-7.6,9.9-12,14.3c-7.9,7.8-16.1,15.1-24.3,22.6c-2.5,2.3-2.6,4.4-0.7,7.2
			c3.1,4.6,5.9,9.3,8.4,14.2c5.1,10,10.6,19.8,19,27.5c1.7,1.5,4.5,3.2,6.3,2.8c7.4-1.7,14.7-2.7,22.2-1.7c4,0.5,5.9-1.2,6-5.3
			c0.1-6.3,1.2-12.3,5-17.7c3.6-5,3.9-11,3.3-16.8c-0.6-6,0.8-11.3,4.5-15.9c3.2-4,4.5-8.4,4.4-13.3c-0.1-4.1,0-8.2-0.6-12.2
			c-1.4-9.6-3-19.1-4.7-28.7c-0.2-1-1.1-2-1.9-2.7C802.4,716.1,800.2,714.5,798.1,712.9z M418.4,420c3.4,0.3,13.2-3.7,16.6-7
			c3.9-3.9,7.7-8,11.4-12.1c8-8.8,14.7-18.4,19.1-29.5c1.9-4.8,1.5-5.2-3.4-7.3c-3-1.2-5.8-3.1-8.6-4.7c-0.7-0.4-1.5-0.9-2.4-1
			c-7.4-0.7-13.5-4.3-19.6-8.4c-5.8-3.9-10.8-8-10.7-15.8c0-0.8-2.4-2.4-3.5-2.3c-6.3,0.5-12.5,1.3-18.7,2.3c-1.5,0.2-3.3,1.2-4,2.4
			c-6,9.7-7.8,21.5-15.6,30.4c-0.1,0.1-0.1,0.3-0.1,0.4c-4.2,10-8.5,20-12.5,30.1c-0.5,1.1-0.3,2.9,0.3,4c3.2,5.5,7.3,10.1,13.8,12
			c9.1,2.5,18.2,5.2,27.3,7.7c2.9,0.8,6.3,2.6,8.7-1.3C416.5,419.7,417.7,420,418.4,420z M892.6,210.2c3.1,12,4.4,24.1,0.3,36.4
			c-0.5,1.5,0.7,4.4,2.1,5.7c2,2,4.6,3.7,7.3,4.8c9,3.5,16,8.7,19.8,18c1,2.4,4,4.6,6.6,5.7c8.3,3.8,16.9,7.1,25.4,10.5
			c6,2.4,12.1,4.5,18,7.1c3.8,1.7,8,3.3,10.9,6c3.2,3,5.3,2.3,7.7-0.1c1.5-1.5,3-3.4,3.5-5.4c1.2-4.8,2-9.7,2.5-14.5
			c0.7-7.5-0.7-9.7-8.2-9.4c-7.1,0.2-10.3-3.5-13.4-8.6c-1.8-3-1.9-6.2,0.4-8.5c2-2,5.1-3.9,7.7-3.9c4.6,0,9.4,1.1,13.8,2.4
			c6.5,2,12.8,1.1,19.1-0.5c1.8-0.5,4.2-2.7,4.3-4.2c0.1-1.6-1.9-4-3.6-4.9c-4.1-2.2-8.5-3-12.9-0.1c-2.2,1.5-4.8,2.3-7.1,3.5
			c-4.1,2.2-8.3,2.1-12.2-0.3c-3.8-2.3-7.2-5.5-11-7.8c-3.1-1.8-6.6-3.9-9.9-3.9c-7.2,0-11.7-3.6-15.7-8.8
			c-3.7-4.7-7.5-9.3-11.9-13.4c-8.3-7.8-18.2-10.8-29.6-8.1C901.9,209,897.4,209.5,892.6,210.2z M928.5,725.8
			c2.4-0.4,3.8-0.8,5.2-0.8c8.4,0.1,16.7,0.2,25.1,0.6c8.1,0.4,15.6-0.3,23-4.8c6.7-4.1,9.3-11,13.8-16.5c0.6-0.8,0.2-2.8-0.3-4.1
			c-1-2.3-2.2-4.5-3.7-6.4c-2.4-3.1-3.3-6.4-4.1-10.2c-0.9-4-2.9-8.3-5.7-11.3c-3.1-3.3-5.8-6.3-7.1-10.6c-0.5-1.6-2.6-3.5-4.3-3.9
			c-5.8-1.2-9.8-4.1-12.4-9.4c-1.9-4-4.8-4.6-8-1.5c-2.9,2.9-5.6,6.3-7.7,9.8c-4.2,7.1-10.3,8.9-17.4,5c-1.5-0.8-3.3-1.8-4.8-1.6
			c-5.9,0.9-10.3-1.6-14.2-5.4c-3.8-3.6-7.4-7.3-11.2-10.9c-0.6-0.6-1.3-0.9-1.9-1.3c-4.8,9-3.7,21-14.6,25.6
			c5.1,8.8,10,17.4,14.8,26c1.5,2.7,3.4,2.9,5.7,1.3c2.9-2,5.7-4.1,8.5-6.2c3.6-2.7,8-2.7,11.1,0.5c7.9,8,12,17.4,10.3,28.8
			C928.2,720.8,928.5,723.2,928.5,725.8z M917.3,971.1c0,0.5,0.1,1,0.1,1.5c13.2-1.6,26.5-2.9,39.7-4.9c4.4-0.6,9.8-2.5,10.5-7.3
			c0.8-5.6,3.3-9.9,6.9-13.7c7.6-7.9,15.4-15.5,23.1-23.2c3.7-3.7,3.7-4-0.5-7.1c-1.2-0.9-2.3-2.2-3.1-3.6c-1.7-2.9-3-6-4.7-8.9
			c-2.5-4.3-10.4-7.2-14.6-5.3c-9.2,4.3-18.6,4.2-28.4,2.6c-3.1-0.5-6.6,0-9.8,0.8c-10.2,2.6-20.3,5.5-30.3,8.5
			c-1.5,0.5-3,1.8-4,3.2c-2.5,3.4-4.3,7.2-6.9,10.4c-2.4,2.9-2.8,4.8,0.2,7.6c5.6,5.3,6.7,11,3.4,17.4c-3,5.9-3,12-3,18.3
			c0,2.7,1.3,3.6,3.8,3.5C905.6,971,911.5,971.1,917.3,971.1z M378.3,625.6c1-1.6,1.9-3,2.8-4.3c2.8-4.1,6.9-6.1,11.5-7.5
			c9-2.7,11.8-7.2,10-16.3c-0.4-1.9-0.4-3.9-1.4-5.5c-1.3-2.1-2.9-4.5-5-5.5c-8.8-4.3-11.3-8.7-9.5-18.3c1-5.1,0.9-9.9-2.1-14.6
			c-3.7-5.8-3.1-7.4,1.2-12.8c1.1-1.3,1.6-3.3,1.7-5c0.2-2.7,0-5.5-0.3-8.2c-1-8.8-2-17.5-3.3-26.2c-0.5-3.3-2.7-4.8-6.4-4.1
			c-3.9,0.8-7.9,0.8-11.8,1.6c-3.7,0.8-7.7,1.5-10.7,3.6c-5.4,3.7-10.7,7.1-17.7,6.5c-1.2-0.1-2.4,0.4-3.9,0.7
			c1.1,2.5,2.3,4.5,3,6.7c6.1,18.3,9.7,37,8.3,56.5c-0.5,6.4-3.1,13.2-12.1,13.1c-0.5,0-1.1,0.3-1.6,0.5
			c2.5,11.6,7.7,22.1,20.4,23.6c8,1,15.1,4.6,21,10.2C374.2,621.9,375.8,623.3,378.3,625.6z M611.2,316.4c0.5,0.1,0.9,0.2,1.4,0.3
			c-1.6,6.8-3.3,13.6-4.8,20.4c-0.2,0.8,0,1.9,0.4,2.7c2.3,4.6,5.1,9,7.1,13.7c1.3,3,3.1,4.6,6.4,5.1c6,0.8,10.6-0.6,13.4-6.4
			c4.3-8.9,11.5-15,20.4-19c4-1.7,8.5-2,12.7-3.4c5.6-1.8,11.1-3.7,11.6-11.2c0.2-2.3,1.8-4.6,3.1-6.6c1.5-2.2,1.6-4,0.3-6.4
			c-3.9-6.8-5.6-13.9-3.3-21.7c0.3-1.1-0.1-3.2-0.8-3.6c-11-6.1-17.7-15.4-21.3-27.1c-0.7-2.3-2.3-3.2-4.8-2.4
			c-2.9,0.9-5.9,2.2-8.9,2.3c-6.9,0.2-13.7-0.2-20.6-0.5c-3.4-0.1-11.3,5.2-12,8.4c-0.2,0.6,0,1.5,0.3,2.1
			c2.8,6.8,4.1,13.7,3.9,21.2c-0.1,5.1-0.2,10-2.1,14.8c-1.3,3.2-1.7,6.8-2.2,10.3C610.9,311.7,611.2,314.1,611.2,316.4z M735,818.2
			c-0.5-1-0.9-1.8-1.3-2.5c-3.7-7.4-9.1-14-9.9-22.6c-0.3-3.5-1.7-6-5-7.9c-3.5-2-6.4-5-9.5-7.6c-3.6-3.1-9.3-3.7-13.2-1.2
			c-4.8,3.1-7.7,2.2-10.5-3c-1.5-2.8-3-5.6-4.9-8.2c-0.6-0.8-2.7-1.6-3.4-1.2c-10.1,5.8-21.2,10.8-24.1,23.7
			c-0.6,2.4-1.5,5.2-0.8,7.4c1.4,5.1,3.6,10.1,5.6,15.1c3.7,9.3,8.1,18.5,5.3,29c-0.8,3.2,0.8,5.7,3.1,8.1
			c6.8,7,15.4,10.3,24.3,13.5c4.7,1.7,8.4,1.2,11.5-2.4c4.4-5.2,9.3-6.1,15.6-3.4c3.9,1.6,8.1,0.8,11.4-2.3c2.9-2.8,1.4-5.9,0.7-9
			c-0.4-1.4-0.9-2.8-1.5-4.1C725.3,831.4,727.7,823.3,735,818.2z M90.3,282.5c-1.6,3-2.8,5.8-4.6,8.2c-0.9,1.2-3.6,2.5-4.5,2
			c-3.1-1.6-6.8-3.5-8.5-6.3c-2.4-4.2-4.3-3.4-7-1c-7,6.1-15.2,8-24.2,6.9c-9.1-1.1-17.9,0.2-26.4,3.1c-5.8,2-6.6,3.5-5.4,10.3
			c1.4-0.6,2.7-1.1,3.9-1.8c7-4.2,16.7-3.6,22.3,2.3c4.4,4.6,8.3,9.8,11.9,15.1c0.9,1.4,0.5,4.3-0.4,6c-0.5,0.9-3.2,1-4.9,1
			c-2.9-0.1-5.8-0.5-8.8-0.8c5.9,4.3,8.5,10.3,8.5,16.8c0,8.4-7.6,9.4-13.7,11.5c2.3,4.3,4.4,8.5,6.7,12.5c1.3,2.3,3.2,3.6,6.2,2.9
			c3.7-0.9,7.5-1.4,11.3-1.8c9.9-1.2,18.4,0.9,23.5,10.5c0.4,0.7,1.1,1.5,1.8,1.8c6.4,1.9,12.9,3.7,18.5,5.3
			c3.1-2.3,5.8-4.7,8.8-6.3c3.6-1.8,4.8-4.6,4.6-8.2c-0.2-3.5-3.1-4.1-6-4.6c-1.9-0.3-3.8-0.8-5.5-1.6c-10.7-5.6-13.8-12.1-9.1-20.8
			c1.8-3.2,5.4-5.6,8.5-8c5-3.8,6-8.5,4.6-14.3c-0.8-3.3-0.6-6.8-0.9-10.3c-0.1-1.7,0-3.6-0.7-5.1c-1.5-3.4-0.4-6.1,1.5-8.9
			c0.7-1,1.2-2.7,0.9-3.8C101.5,288.5,97.1,284.6,90.3,282.5z M606.6,623.8c-1.7-10.4-3.8-21.7-15.5-28.4c-2.3-1.3-4.7-3.6-5.5-5.9
			c-1.3-3.8-3.7-3.9-6.9-4.5c-6.9-1.2-13.7-2.7-20.4-4.7c-3.7-1.1-6.7-1.6-9.8,1.2c-3.8,3.4-8.1,6.2-13.5,5c-3.6-0.8-6.9-2.9-10.4-4
			c-2.1-0.6-4.5-0.6-6.6-0.2c-0.6,0.1-0.7,2.8-1.1,4.3c-0.9,4.2-1.2,8.6-2.7,12.6c-1.3,3.3-1.2,5.5,0.6,8.8
			c3.8,6.7,7.3,13.6,9.5,20.9c1.3,4.2,1.9,7.8,6.2,9.9c1.8,0.9,3.1,3.6,4.9,3.8c9.1,1.2,14.8,6.3,18.4,14.3c0.5,1.1,2.5,2.5,3.2,2.3
			c7.4-2.7,12.8,0.8,17.7,5.5c4.5,4.3,7.1,4.4,12.5,1.2c4.6-2.7,5.9-6.5,5.4-11.3c-0.7-7.4,2.3-13.2,8-17.9
			C604.3,633.8,606.6,629.9,606.6,623.8z M415.3,197.1c7.3,1.7,14.3,3.3,21.8-0.3c6.2-3,15.5-0.5,19.5,5.1c2.8,3.9,6.1,4.4,10.2,4.5
			c8.2,0.1,12.4,3.1,14.1,10.9c0.9,4,2.8,4.7,6.6,4.1c8.6-1.5,14.2-7,19.5-13.2c5-5.8,11.1-8.4,19.2-6.4c4.3,1.1,9.1,0.2,13.7,0.2
			c0-1.6,0.2-2.4,0-3.1c-3-10.8-2.8-21.5,0.9-32.2c1.5-4.4-0.7-7.6-3.4-10.6c-4.6-5.1-9.2-10.2-13.8-15.3c-4.3-4.9-4.3-4.9-10.2-1.7
			c-1.7,0.9-3.3,1.9-4.8,3c-8.1,6.2-16.2,12.5-26.3,15.5c-15,4.6-29.4,10.7-43.4,17.9C429.1,180.6,419.8,185.9,415.3,197.1z
			 M371.5,271.5c13.7,0.4,24.4-3.1,35-6.2c7.7-2.3,15.1-5.4,22.6-8.5c3.7-1.5,4.6-4.3,3.1-8.2c-1-2.5-1.6-5.5-1.1-8
			c1.9-9.8,0-19-3.8-28c-2.2-5.2-3.2-5.9-8.1-3.5c-5.6,2.8-10.8,6.2-16.2,9.4c-4.6,2.7-8.1,7.8-14.2,7.5c-4.4-0.2-8.8-0.5-13-1.4
			c-14.3-3.3-28.4-7-42.7-10.3c-3-0.7-6.5-0.7-9.5,0c-2.6,0.6-4.9,2.6-7.4,4.1c2.5,2,4.6,4.9,7.4,5.9c4.6,1.7,7.4,4.6,8.7,9
			c1.2,4,2.2,8.1,3,12.2c0.3,1.7,0,3.7-0.4,5.5c-1.4,6.7-7.1,9.4-12.5,11.9c-4.7,2.2-7.2,5.8-8.9,10.2c-1.2,3.1-0.3,5.3,3.4,6
			c3.3,0.7,6.6,1.4,9.7,2.6c3.1,1.2,4.9,0.7,7-2c5.1-6.5,11.5-11.3,20.6-10.2C360.8,270.2,367.3,271,371.5,271.5z M941.4,738.3
			c0-0.5-0.1-1-0.1-1.4c-1.4,0.3-3.1,0.3-4,1.1c-2.3,2.1-0.8,8.5,1.6,10.9c2.5,2.5,5,5.3,6.5,8.4c1.7,3.3,0.9,6.8-3,8.3
			c-5,2-10.1,3.6-15.2,5.5c-3.9,1.5-8.4,2.4-11.6,4.9c-6.3,4.8-11.7,10.9-18,15.8c-5.3,4.2-6.6,9.1-5.6,15.3
			c0.3,1.7-0.3,3.8-1.2,5.3c-2.5,3.9-5.8,6.9-10.9,7.2c-3.7,0.2-4,2.6-2.4,5.1c0.9,1.5,2.5,3.2,4.1,3.6c6.4,1.7,10.3,6.1,13,11.6
			c1.5,3,3.9,3.4,6.1,2c1.9-1.2,3.8-3.4,4.4-5.5c2.3-7.8,7.2-13.9,12.5-19.8c3.9-4.4,6.3-4.4,10.7-0.3c5.5,5.2,7.8,4.8,11.3-1.6
			c3.8-7,6.8-7.8,13.7-4c7.5,4.2,17.8,1.8,21.9-5.7c4.5-8.2,11.6-13.7,19.2-18.8c1.5-1,2.9-3.3,3-5.1c0.4-5.8-3.5-9.2-8.4-10.9
			c-10.9-3.8-16.7-11.8-20.3-22c-0.8-2.3-1.3-4.8-2.4-7c-0.6-1.2-2.2-2.6-3.4-2.6C955.8,738.2,948.6,738.3,941.4,738.3z
			 M696.8,316.8c-2,5.4-3.9,10.2-5.6,15.1c-0.3,0.8,0.4,2.4,1.1,2.9c6.9,4,10.9,9.6,10.7,17.7c0,2.1,1,3.1,3.4,3.6
			c2.5,0.5,5.3,1.6,6.9,3.4c4,4.4,7.6,9.2,10.8,14.2c7.1,11.1,17.2,13.9,28.9,10.3c5.6-1.7,10.6-5.4,15.9-8.3
			c5.4-3,10.7-5.9,17.3-5.6c7.8,0.4,12.5-5.2,11.4-12.8c-1.2-8.3-5.8-14.7-10.7-21.1c-2.7-3.6-5.5-7.3-7.2-11.3
			c-1.2-2.7-2.1-3.7-5.1-4.1c-9.5-1.1-18.5-3.3-23.4-13c-3-6-7.9-7-13.2-2.5c-4.4,3.8-8.5,8-12.4,12.3c-7.6,8.4-16,9.3-24.8,2.4
			C699.8,319.1,698.6,318.2,696.8,316.8z M854.6,427.2c0.8,1.6,1.1,2.3,1.5,2.8c5.5,7.4,5.6,8.9,0.1,15.8c-1.7,2.2-1.4,3.9,0.2,5.8
			c2.3,2.8,4.5,5.7,6.9,8.5c3.8,4.5,7.5,9.6,14.5,7.1c6.2-2.2,12.4-4.5,18.1-7.5c7.9-4.1,15.7-8.6,22.9-13.7c5-3.5,9.7-6.5,15.8-8
			c8.1-2,15.8-5.1,23.7-7.7c2.9-0.9,3.7-2.8,3.4-5.7c-0.5-6.4-1-12.7-1-19.1c0-2.8-0.8-3.9-3.5-4.4c-8.6-1.7-17.2-3.4-25.8-5.5
			c-7.9-1.9-14.9-5.1-21.1-10.8c-5.7-5.3-6.4-5.2-12.6-0.2c-7.5,6-10.5,14.9-15.7,22.4c-1.5,2.1-3.1,4.6-3.3,7
			c-0.2,3.7-2.1,5.8-4.9,7c-3.3,1.4-6.9,2.1-10.3,3.2C860.7,425,857.8,426.1,854.6,427.2z M569.6,780.1c0.3,0,0.6-0.1,1-0.1
			c-0.6-3.9-0.9-7.8-1.8-11.5c-2-8.6-3.1-8.7-11.9-7c-8.3,1.6-17,3.3-23.2-5.4c-1-1.4-2.6-2.3-4.1-3.3c-4.6-2.9-11.2-1.4-12.3,2.9
			c-5.1,20.1-17.2,35.3-34,47c-4.1,2.8-5.9,5.7-4.6,10.5c1.2,4.6,2.6,9.2,3.2,13.9c0.6,5.4,6.7,10.9,12.3,10.7
			c2.3-0.1,5.1,0.6,6.9,1.9c3.2,2.3,6.3,2.5,9.9,1.4c4.3-1.3,8.8-2.3,13.2-3.2c6.3-1.2,12.6-2.3,19-3.3c2.7-0.4,3.5-2.1,2.8-4.3
			c-1-3.2-2.3-6.3-3.7-9.3c-1.5-3.1-1.6-6.3,1.2-8.3c3.8-2.6,7.9-4.6,12.1-6.5c2.9-1.3,6.2-1.7,9.2-2.9c5.2-2,7.1-6,6.3-11.4
			C570.4,788.1,570.1,784.1,569.6,780.1z M909.1,585.6c-0.4-0.4-0.7-0.7-1.1-1.1c-2,1.8-4.2,3.4-5.9,5.5c-4.8,5.8-11.1,8-18,6.2
			c-5.5-1.4-10.2-1.2-15.4,0.7c-8.7,3.1-13.9,1.7-17.3-5.6c-3-6.4-7.9-9.7-13.6-13.5c-5.2-3.4-8.9-2.8-13.6-1c-1,0.4-2.2,0.4-2.9,1
			c-1.4,1.2-3.2,2.6-3.7,4.2c-2.3,6.7-4.1,13.6-6.2,20.4c-0.3,1.1-1.5,1.9-2.3,2.8c-1.1,1.2-3,2.3-3.3,3.6
			c-1.6,7.4-2.9,14.8-4.1,22.3c-0.2,1.1,0.7,3.1,1.5,3.4c4.9,1.8,7.2,6.1,10.3,9.8c2,2.4,5.1,4.8,8,5.2c8.9,1.4,17.7,1.4,25.2-5.4
			c4-3.6,6.2-2.4,9.8,1.7c4.6,5.2,9.6,10.2,15,14.5c3.6,2.9,8.8,1.6,10-2.4c2.2-7.4,6.4-14.4,5.8-22.6c-0.3-4.2,0.1-8.4,0-12.6
			c-0.3-7.6,2.7-13.2,9.6-16.7c1.2-0.6,2.2-1.8,2.8-3c1.6-2.9,2.9-5.9,4.4-8.8C905.6,591.3,907.4,588.5,909.1,585.6z M726.2,778.1
			c4.8-4.2,9.4-8.2,14-12.2c7-6.2,14.6-11.8,20.7-18.7c5-5.5,8.4-12.5,12.3-18.9c1.1-1.7,1.6-4-1.4-4.9c-4.5-1.4-6.6-4.8-8.5-8.8
			c-1.9-4-3.9-8.8-9.5-8.2c-3.2,0.3-6.4,1.7-9.2,3.4c-3.4,2-6.2,2.7-9.8,0.5c-2.2-1.3-5-2.4-7.4-2.2c-5.2,0.5-10.3,0.7-15.4,3.4
			c-7.5,4-14.6,1.4-20.9-4.1c-2.5-2.2-6-4.9-9-4.8c-7.1,0.1-14.1,2.1-19.5,7c-1.6,1.5-1.8,4.9-1.8,7.5c0,1,2.3,2.4,3.8,2.8
			c6.9,2,11.6,6.3,13.5,13c1.2,4.1,1,8.6,2,12.9c0.5,2.4,1.4,5.9,3.1,6.6c4.4,1.8,6.4,5.2,8.6,8.8c0.8,1.2,2.6,2.7,3.8,2.6
			c11.6-0.9,20.5,3.6,27.6,12.3C724.1,776.8,725.2,777.4,726.2,778.1z M550.1,170.9c-3.2,9.9-2.3,18.7,1.3,27.5
			c3.9,9.4,7.2,18.8,4.5,29.1c-0.1,0.3,0.3,0.7,0.4,0.9c5.5-0.6,11-0.8,16.3-1.9c4.8-1,8,0.7,10.6,4.3c1.4,1.9,2.7,2.3,4.8,1.3
			c5.2-2.5,10.2-2.2,14.9,1.2c10.5,7.5,22.6,8.4,34.9,7.5c3.5-0.3,6.9-1.6,10.8-2.5c-1-1.7-1.6-2.5-2-3.4c-3.7-8.5-5-14.6,3-22.1
			c1.9-1.8,3.7-3.8,5.2-5.9c0.6-0.8,0.8-2.8,0.2-3.4c-5.2-5.3-4-11.4-2.5-17.6c0.4-1.9,0.6-3.8,0.9-6.1c-2.7,0.5-4.7,0.7-6.6,1.2
			c-5.8,1.3-11.7,2-16,7.1c-1.4,1.7-4.7,3-7,2.8c-6.1-0.6-12.2-1.7-18-3.4c-8-2.3-15.6-6.7-23.7-7.8
			C571.2,178.1,560.3,177.6,550.1,170.9z M716.2,636.6c-1.1,6.6-1.5,11.9-3,16.8c-0.8,2.7-1,4.7,0.7,6.8
			c5.6,6.9,10.7,14.3,17.1,20.4c6.2,6,8.8,11.5,3.8,19.2c-0.7,1.1-0.6,4.3-0.2,4.5c2,0.7,4.4,1.3,6.5,0.8c2.5-0.6,4.7-2.3,7.1-3.3
			c6-2.5,11.8-0.6,15.3,4.8c1.4,2.2,3,4.4,4,6.8c1.7,4,5.2,5.3,8.9,4.9c3.3-0.4,6.9-1.7,9.5-3.7c5.8-4.4,13-7.7,13.5-16.6
			c0.1-2.3-0.1-3.4-2.4-4.2c-2.3-0.8-5.3-1.4-6.7-3c-4.3-5-10.2-7.2-15.8-9.9c-5.6-2.8-8.8-7.2-8-13.7c0.3-3,0.8-6.1,1.4-9
			c1.4-6.9,0.4-12.6-5.5-17.6c-7-5.8-8-15.2-3.3-23c1.9-3.2,4-6.2,6.4-9.8c-2.8,0.8-4.8,1.7-6.9,2c-5.1,0.7-10.2,1.1-15.2,1.8
			c-8.2,1.2-13.6-1.1-18.2-8.3c-0.6-1-1.3-1.9-1.9-2.7c-6.7,2.8-8.7,7.4-6.3,13.7c0.6,1.6,1.5,3.2,2.1,4.8
			C722.8,627.7,721.8,632,716.2,636.6z M584.7,784.1c4.9,1.4,10.4,1.6,14.7-1.9c5.1-4.2,9.2-9.6,14-14.2c8-7.6,12.4-10,22.6-5.4
			c4.6,2,8.5,5.5,12.1,7.8c8.1-5.1,16.2-10,24.1-15.2c1.6-1.1,3.4-3.3,3.4-5c0-4.9-0.7-9.8-1.6-14.7c-0.8-4.5-2.9-8.3-7.9-9.3
			c-6-1.3-10.3-5.5-11.5-11.6c-1,0.3-2,0.4-2.8,0.9c-4.1,2.6-8.3,2.9-12.4,0.2c-5.1-3.3-10.1-6.9-15.3-10.1
			c-3.3-2.1-6.9-3.7-10.6-5.7c-2.1,8.6-3.6,9.6-11.9,9.7c-1.2,0-3.2,1.2-3.4,2.2c-1.4,5.3-4.4,9.4-8,13.3c-1.2,1.3-1.7,3.8-1.5,5.7
			c0.4,4.2,0.3,8.1-2.8,11.4c-2.9,3.1-5.7,6.3-8.5,9.4c-1.6,1.7-1.9,3-0.1,5.2c1.8,2.2,3,5,3.7,7.7
			C582.3,771,583.4,777.4,584.7,784.1z M468,800.3c-0.5,0.3-1.6,0.9-2.8,1.6c-6.4,3.8-11.1,3.1-14.4-3.2c-2.6-5-6.5-6.4-11.6-5.8
			c-3.1,0.4-6.1,0.8-9.1,1.5c-7.4,1.6-14.1,0.1-19.5-5.2c-2.8-2.8-5.6-2.6-8.2-0.8c-1.7,1.2-2.8,3.6-3.6,5.7
			c-3.5,8.9-6.1,18.2-10.3,26.8c-3.9,7.9-6.6,16.7-15.2,21.9c-1.8,1.1-1.3,5.8-1.9,8.9c2,0.3,4,1,5.9,0.8c5.8-0.6,10.9,2.3,13.4,7.7
			c0.5,1.1,2.1,2.6,3.1,2.5c7.8-0.4,15.5-1,23.2-1.9c9.5-1.1,19-2.5,28.5-3.9c0.7-0.1,1.6-0.4,1.9-0.9c2.9-5.8,9.1-10.5,6.4-18.4
			c-1.4-4,0.2-7.2,4.2-8.9c2.9-1.3,6.1-2.2,9-3.6c1.1-0.5,2.4-2.1,2.4-3.1C469.2,814.9,468.6,807.7,468,800.3z M857.6,200.6
			c2.9,1.4,6.9,2.3,9.5,4.7c6.4,6,9.7,13.6,7.4,22.5c-1.2,4.8-0.6,8.5,2.4,12.5c6.3,8.3,8.8,17.2,4.6,27.7
			c-6.2,15.5-7,31.5-1.4,47.7c8.7,1.4,8.6,1.4,11,11.1c0.3,1.3,2.1,2.7,3.5,3.1c5.1,1.4,9-1.1,12.8-4.2c7.1-5.7,9.9-6,17.2-1
			c3.5,2.4,6.8,2.4,10.4,0.9c2.1-0.9,4-2.4,6.1-3.5c3.3-1.7,6.7-3.8,10.3-1.4c4.6,3,9,1.9,13.4-0.1c4.4-2,8.7-4.2,13-6.3
			c3.7-1.9,4.1-4.1,1-6.8c-1.5-1.3-3.5-2.1-5.3-2.9c-3.8-1.5-7.7-2.7-11.5-4.3c-10.7-4.6-21.3-9.7-32.2-13.9
			c-6.4-2.5-11.5-5.6-13.9-12.2c-1.9-5.4-6-8.6-11.2-11c-4.5-2.1-8.8-4.8-12.7-7.8c-4.4-3.4-6.6-8.2-4.4-13.5
			c3.1-7.3,2.7-14.8,2.1-22.3c-0.5-6.9-3.7-13.2-9.2-16.5C873.5,198.8,865.1,196.9,857.6,200.6z M974.7,468.4
			c-7.8-2.6-8.9-5.2-5.8-11.5c1.5-3.1,3.1-6.3,5-9.2c1.8-2.7,1.2-4.9-0.5-7.2c-3.6-4.8-7.9-6.2-13.3-3.8c-8.3,3.6-16.6,7-25.8,8.2
			c-4.2,0.6-8,3.8-11.9,6c-2.3,1.3-4.2,3.2-6.5,4.5c-10.6,6.1-21.2,12.1-32.2,18.4c5.3,7.2,6.8,15.7,7.3,24.5
			c0.1,1.3,1.5,2.8,2.7,3.8c4,3.4,8.2,6.5,12.1,10c6.2,5.7,13,11.1,13,20.7c0,3,0,6.1,0,10.5c6.9-8.3,12.6-15.6,13.3-25.7
			c0.2-2.8,2.3-6.8,4.6-7.7c8.9-3.7,14.2-11.1,20-17.8C962.9,484.7,968.5,476.6,974.7,468.4z M831.5,183.5
			c-3.9-2.5-7.7-4.6-11.2-7.2c-5.6-4.3-11.3-5.7-18-2.5c-4.3,2-7.5-0.7-7.7-5.5c-0.1-3.8-0.1-8.1-1.7-11.4
			c-3.9-8.1-4.7-15.6,0.2-23.5c1.2-1.9,1.4-4.3,2.1-6.5c-0.5-0.3-1-0.6-1.5-0.9c-1.9,1.7-4,3.2-5.6,5.1c-2.2,2.5-4.1,5.3-5.9,8.1
			c-4.2,6.5-10,10-17.9,9.9c-1.7,0-3.5,0.4-5.2,0.6c-3.4,0.3-5,2-4.8,5.5c0.4,7.9-2.1,15.3-7.2,21c-7.9,8.7-8.1,19.2-9.1,29.7
			c-0.1,1.1,0.6,2.9,1.6,3.5c4.5,3.1,9,6.2,13.8,8.9c3.1,1.7,6.7,3.9,9.8,3.6c6-0.7,11.4,0.2,16.5,2.9c4.8,2.5,9.8,3,14.9,1.5
			c4.1-1.2,8.1-2.6,12.1-4c5.7-2,6-3.4,5.5-9.4c-0.6-7.2-0.8-14.5-0.2-21.7c0.5-6.1,5.2-8.4,10.7-6
			C825.9,186.5,828.6,186.1,831.5,183.5z M840.3,511.1c4.7,3.1,9,5.9,13.3,8.8c5.6,3.8,5.9,7.1,1.1,11.9c-2.1,2.1-3.1,4.1-1.5,6.9
			c5.3,9.5,8.6,19,2.2,29.5c-3.4,5.7,0.7,10.5,4.2,14.4c3.1,3.5,7.1,0.4,10.6-0.8c0.8-0.3,1.7-1,2.4-0.9c3.5,0.2,7.5-0.2,10.5,1.2
			c5.9,2.8,8.2,2.4,11.2-3.6c3.3-6.8,5.9-14.3,10.6-20c5.9-7,8-14.3,7.6-23c0-0.3,0.1-0.6,0-0.9c-0.2-6.1-1.2-11.8-6.3-16.1
			c-5.7-4.8-11.1-9.9-16.9-14.5c-3-2.4-4.4-5.1-4.6-8.8c-0.2-3.7-0.3-7.7-1.6-11.1c-1.2-3.4-3.2-7.3-6-9.3
			c-2.9-2.1-7.3-2.1-11.7-3.2C860.4,486.7,852.4,500,840.3,511.1z M299.8,398.3c7,1.4,12.7,3.1,18.5,3.5c9.4,0.6,19,1,28.4,0.3
			c6.1-0.5,12.2-3.3,15.3-9.1c3.2-6,6.3-12.3,8.1-18.8c3.7-13.9,14.3-24.5,17.7-38.4c0.2-0.8,1.2-1.4,1.3-2.2c0.2-1,0.1-2.3-0.3-3.2
			c-1.1-2.1-2.5-4.1-4.1-6.7c-3.1,1-6.3,2.5-9.7,2.9c-2.7,0.4-6,0.2-8.3-1c-2.5-1.4-4.5-1.3-6.9-0.6c-5.9,1.6-11.9,3.2-17.9,4.2
			c-5.6,1-10.8,0.4-14.1-5.3c-0.7-1.1-3.3-1.5-5-1.5c-0.8,0-1.8,1.9-2.2,3.1c-1.1,3.9-1.5,8-2.9,11.8c-2.8,8-4,15.9-2.1,24.3
			c2.2,10.2-1.7,18.7-8.3,26.3C304.5,390.9,302.5,394.3,299.8,398.3z M899.7,908.4c-0.4-0.4-0.8-0.8-1.2-1.2
			c-1.4,0.4-2.7,0.9-4.1,1.2c-10.8,2.9-21.4,4.5-32.3,0.2c-12.1-4.8-24.4-8.8-36.7-13c-7.5-2.5-13.1,0.4-15.8,7.8
			c-1.1,3-2,6.1-3.2,9c-1.9,4.7-4.8,8.7-10.2,10c-6.5,1.6-9,7.2-13.4,12.6c7.1,2,13.1,4.2,19.3,5.1c7.1,1,14.3,0.8,21.5,1
			c5.5,0.1,10.6,0.7,15.2,4.5c2.8,2.3,6.2,4.5,9.7,5.2c7.7,1.5,14.4,4.8,19.6,10.2c6.1,6.5,14.4,6.2,22.3,9.1c0.2-3.2,0.3-5.6,0.7-8
			c0.8-5.1,1.1-10.5,2.9-15.3c1.9-5.2,2.2-9.1-2.3-13.3c-5.1-4.8-4.6-8.1,0-13.5C894.6,916.4,897,912.3,899.7,908.4z M460,1010.1
			c4.3,1.4,9.1,3.1,13.9,4.7c14.9,4.8,28.8,11.4,41.3,20.9c4.8,3.7,9.9,7.3,15.3,9.9c10.1,5,19.8,0.1,29.4-2.6
			c4-1.1,4.7-4.9,2.5-8.5c-1.8-3.1-4.4-4.2-8-4.1c-4.5,0.2-8.2-1.6-10.4-6c-2.1-4.2-1.5-7.8,1.3-11.3c1.8-2.3,3.7-4.5,5.3-6.9
			c5.2-7.7,2.2-18.3-5.6-23c-5.8-3.5-13.8-3-17.7-9.7c-0.1-0.2-0.5-0.1-0.8-0.2c-6.4-0.9-12.7-1.8-19.1-2.8
			c-7.3-1.1-10.9-0.7-11.4,9.7c-0.3,6.6-4.6,11.1-11.4,10.8c-2.9-0.1-5.8-0.7-8.7-1c-3.3-0.4-5.8,0.7-7.4,3.6
			C465.7,999,462.9,1004.5,460,1010.1z M985.7,626.3c-6.4-0.6-8.6-2.5-8.6-7.2c0-3.6-1.5-5.5-4.6-7c-4.9-2.4-7-6.3-6-11.8
			c0.6-3.6,1-7.2,0.9-10.8c-0.3-8.1-3-10.3-10.9-8.3c-4,1-7.7,3.3-11.5,5.2c-3.6,1.9-6.9,4-11,1c-0.6-0.4-2.8,0.1-3.3,0.8
			c-1.1,1.8-2,3.9-2.2,6c-0.8,7.9-4,11.9-12,13.8c-3.8,0.9-7.8,0.7-11.6,1.4c-8.1,1.7-12.9,8.4-13.2,16.6c-0.2,5.4,0.4,10,5.3,13.3
			c1,0.7,1.5,2.1,2.5,3c5.8,5.7,11.1,12.1,20.7,11.3c1.7-0.2,3.6,1,5.2,1.9c5.6,3.4,9.8,2.2,13.2-3.3c2.5-4,5.5-7.8,8.9-11
			c4.7-4.5,10.3-3.2,13.1,2.5c1.7,3.4,3.9,6.3,7.9,6.8c1.1,0.1,2.7-0.7,3.4-1.6c3.1-4.2,6-8.5,8.8-12.9
			C982.5,633.1,983.8,630,985.7,626.3z M378.4,923.6c0.4,6.1,1.1,11.1,1,16.1c-0.3,9.3-0.9,18.4-6.1,26.8
			c-7.7,12.7-14.8,25.7-21.9,38.7c-2.9,5.3-2.6,6.1,3.4,8c11.5,3.6,23.1,6.7,34.7,9.9c6.5,1.8,13.1,3.1,19.7,4.6
			c2.9,0.7,4.6-0.1,4.9-3.5c0.5-6.2,3.1-11.3,9.1-14.4c6.5-3.4,7.4-9,2.7-14.6c-2.2-2.7-4.6-5.3-6.6-8.2c-3.3-5-5.7-6.9,0.6-12.6
			c0.6-0.6,1-1.4,1.5-2.2c4.2-7.3,2.8-10.8-5.2-13.1c-6.7-2-13.5-3.8-20.3-5.7c-4.2-1.1-7.1-3.6-8.1-7.8c-0.9-3.3-1.2-6.8-1.8-10.2
			C385.2,930.7,383.7,926.5,378.4,923.6z M1026.2,256.8c-2.6,1.8-4.5,3.9-6.9,4.7c-6.8,2.2-13.6,3.1-20.8,1.2
			c-4.7-1.2-9.5-1.9-14.3-2.1c-1.4-0.1-2.9,2.4-4.4,3.7c1.3,1.3,2.6,2.6,4.1,3.8c0.5,0.4,1.4,0,2.2,0.1c11.8,0.8,18.4,8.4,16.2,18.1
			c-0.4,2,0,4.1-0.3,6.1c-1.2,8.4-3.2,16.4-12.1,20.3c-0.8,0.3-1.5,2-1.4,2.9c0.4,4.1,1.6,8.3,1.7,12.4c0,3.7,1.5,5.3,4.9,6.6
			c6.2,2.2,12.3,4.8,18.2,7.7c4.5,2.2,8.7,5.1,13.4,8c0.7-3.8,1.5-7.3,2.1-10.9c3.9-23.6,12-45.2,30.4-61.9c2.4-2.2,4.5-5.1,5.8-8
			c0.7-1.6,0-4.4-1.1-5.9c-1-1.4-3.4-1.8-5.3-2.6c-0.7,1.6-1.1,2.7-1.4,3.6C1046.4,262.1,1034.8,264.7,1026.2,256.8z M453.3,869.3
			c5.5,4.2,4.4,10.2,5.3,15.5c0.8,4.7,5.3,10.4,8.9,10.8c6.1,0.8,12.1,1.8,18.2,2.2c2.4,0.2,5.7-0.4,7.1-1.9
			c4.4-5,10.2-6.6,16.2-7.9c1.7-0.4,3.8-0.3,5-1.3c6.3-5.3,12-11.3,14.6-19.3c2.1-6.6,1.9-6.6,8.9-5.6c5.4,0.8,13.1-5.1,12.6-10
			c-0.3-3.1-1.3-6.2-2-9.3c-0.6-2.7-2.4-2.8-4.7-2.2c-3.4,0.9-6.8,1.6-10.2,2.2c-5.3,1-10.7,1.5-15.9,2.8
			c-6.5,1.7-12.8,3.3-18.7-1.6c-0.6-0.5-1.9-0.5-2.9-0.4c-4.3,0.6-7.7-1.1-10.7-3.9c-1.4-1.3-2.7-2.7-4.2-3.8
			c-2.6-1.8-12.6,0.7-13.8,3.6c-0.3,0.8-0.3,2.1,0.2,2.8c2.2,3.6,0.8,6.6-1.4,9.6C461.7,857.5,457.7,863.1,453.3,869.3z
			 M981.8,891.4c0.1,0.5,0.2,0.9,0.3,1.4c7.2,2.5,11.1,7.9,13.8,14.4c0.2,0.5,0.6,1,0.9,1.5c4,5.9,8,6.3,13.5,1.9
			c6.9-5.5,13.8-11.4,21.4-15.8c14.6-8.4,20-23,27-36.5c0.2-0.4,0.2-0.8,0.3-1.3c0.3-3.1-0.7-5.2-4.2-5.3c-3.7-0.1-7.3,0.2-11,0
			c-7.8-0.4-15.8-0.4-23.5-1.8c-10.3-1.8-18-8.7-25.7-15c-7.7,3.6-13,12.2-12.4,20.1c0.4,4.5,1.6,8.3,6.7,10.1
			c3.4,1.2,6.5,3.4,9.4,5.6c5.4,4,4.4,10.8-1.8,13.2c-1.9,0.7-4,1.1-5.8,2.1C987.6,887.6,984.8,889.6,981.8,891.4z M539.9,1054.6
			c5.4,4.3,10.4,7.5,16.9,8.2c15.6,1.7,31.2,2.8,46.5,6.9c3.8,1,8.9,0,12.6-1.8c9.9-4.7,19.3-10.3,28.8-15.7c5.2-3,5.5-4.3,3.6-10
			c-0.6-1.6-1.5-3.2-1.9-4.9c-1.2-5.1-2.7-10.1-3.3-15.3c-0.6-6.3-1.1-6.9-7.5-5.8c-8.4,1.4-16.8,2.2-25.2,3.7
			c-7.1,1.2-13.4,4-17.3,10.7c-1.3,2.2-3.2,4-5.1,5.7c-7.6,6.8-19.2,5.8-26.8,13c-0.6,0.5-1.6,0.6-2.5,0.8
			C553,1051.5,546.9,1052.9,539.9,1054.6z M997.1,341.3c-4.2,8.5-8.4,16.6-12.1,25c-1.9,4.3-2.7,9.1-3.9,13.7c-1.1,4-1.8,8.2-3.3,12
			c-0.9,2.3-1,3.6,1.1,5.1c6.3,4.5,9.1,11.1,11.5,18.1c1.5,4.4,4.1,8.6,6.4,12.7c1.8,3.3,3.9,6.5,6,9.6c0.7,1,2.5,2.3,3.2,2
			c3.4-1.4,7-2.8,9.9-5.1c4.8-3.9,5.3-9.8,5.7-15.5c1.3-18.4,2.6-36.8,3.8-55.2c0.1-1.5,0.1-3.4-0.8-4.6
			C1018,349.7,1007.9,345.4,997.1,341.3z M808.1,686c-1.6-2.8-6-5.9-2-9.2c2.7-2.2,7-2.5,10.6-3.6c0.1,0,0.3,0,0.4,0
			c3.3-0.5,6.7-0.7,9.9-1.6c3.7-1.1,7.2-3,7-7.8c-0.2-3.3-5.5-7.7-9.4-7.8c-7.1-0.2-12.1-3.4-15.8-9.3c-1.6-2.5-3.9-4.8-6.5-6.2
			c-5.5-2.8-6.8-4.2-6-10.3c0.8-6.2,2.1-12.3,3-18.5c0.2-1.3-0.2-3.1-1.1-4c-2.7-2.6-5.9-4.7-8.7-7.2c-4.4-4-10.9-4.9-15.8-1.6
			c-1.1,0.7-2.3,2.7-2,3.7c1.4,5.6-1.2,9.7-4.5,13.8c-7.5,9.1-7.1,16,1.4,23.9c4.7,4.4,6.2,9.7,5.4,15.8c-0.6,4.2-1.3,8.3-1.9,12.5
			c-0.6,3.9,1.1,6.1,4.5,8c5.8,3.1,11.4,6.5,16.9,10C798.8,689.9,804.4,689.9,808.1,686z M733.8,132.3c-0.6-5.6-0.8-11-1.9-16.2
			c-0.5-2.4-2.5-4.9-4.5-6.5c-5.3-4.3-11.6-4.1-18-2.9c-2.1,0.4-4.4,0.4-6.4-0.1c-6.9-1.6-8-7.2-8.7-13.1c-0.7-6.1-2.6-7.8-8.8-7.7
			c-1.8,0-3.5,0.3-5.2,0.5c-7.6,0.9-14.7-3.9-16.4-11.2c-0.8-3.4-1.6-6.8-2.5-10.2c-0.9-3.5-3-5.7-6.9-5.4
			c-5.1,0.3-10.2,0.7-15.3,1.1c-0.6,0.1-1.5,0.9-1.7,1.6c-1.5,3.8,0,6.8,3.5,8.9c3.5,2,7.1,4.2,10.2,6.7c3,2.4,5,6,3.5,9.7
			c-2.4,5.9,0,10.5,3.2,14.9c5.5,7.7,6.1,15.7,2.9,24.3c-1.5,4,0.2,6.7,4.4,6.7c7.7,0.1,15.5-0.1,23.2-0.5
			c6.9-0.4,13.7-1.6,20.6-1.6C717,131.2,725,131.9,733.8,132.3z M894.5,902.1c0.1-0.5,0.1-1,0.2-1.6c-1.3-0.4-2.5-0.8-3.8-1.1
			c-9.2-2-13-6.8-13.3-16c-0.1-2.4-1.3-5-2.6-7.1c-2.2-3.6-5.1-6.9-4.1-11.5c0.9-3.9-0.7-5.4-4.5-6.7c-6.9-2.2-14.2-3.8-19.2-9.9
			c-4.2-5.1-5.8-4.9-11.7-1.2c-4,2.5-8.6,4.2-13.1,5.7c-2.6,0.9-5.6,0.8-9.1,1.2c6.1,11.2,13.4,21.6,10.3,35.1
			c2.2,0.6,4,1.1,5.8,1.6c6,1.9,12,3.7,17.9,5.9c6,2.2,11.9,4.7,17.9,7.2C875.2,907.8,884.8,904.4,894.5,902.1z M560,313.6
			c4.9-3.7,4.6-3.7,4.8-8.6c0.1-2.1,0.9-4.6,2.2-6.3c1.8-2.4,4.3-4.3,6.8-6.1c2.6-1.8,3.6-3.7,2.8-7c-0.8-3.2-1.1-6.6-0.8-9.9
			c0.7-6.6-4.2-12.9-10.8-13.3c-6.8-0.4-13.3-1.6-19.2-5.5c-2.3-1.5-5.4-2.5-8.1-2.4c-2.9,0.1-5.8,1.8-9,2.9
			c0.1,6.2,3.2,11.3,7.3,15.6c5.4,5.7,8.1,12.2,8.8,19.9c0.2,2,1.7,4,2.8,5.8c0.7,1.2,2,2.1,2.9,3.2
			C553.5,305.8,556.7,309.6,560,313.6z M606.6,312.5c0-2.7,0.1-6.5-0.1-10.2c0-1-0.6-2.6-1.3-2.8c-7.2-1.9-13.4-6.7-21.2-6.9
			c-0.6,0-1.4,0.2-1.9,0.6c-3,2.5-6.1,4.9-9,7.6c-2.5,2.3-4.5,5-2.9,8.8c0.4,1,0.1,3-0.6,3.6c-6.6,5.1-5.2,10.3-0.7,15.8
			c0.3,0.3,0.4,0.8,0.5,1.2c0.8,3.7,3,4.1,6.5,3.6c7.2-1.1,14.5-1.8,21.7,0.9c1.2,0.5,3.6-0.6,4.6-1.7
			C607.7,327.4,605.5,320.1,606.6,312.5z M627.9,58.3c-1-0.6-1.6-0.8-2-1.2C617.5,50.3,612,42,613,30.6c0.4-4.7,0.4-9.5,0.2-14.3
			c-0.1-3.3-2.1-5-5.6-4.3c-6.7,1.3-13.5,2.4-20.2,3.8c-2,0.4-3.9,1.5-6.2,2.4c4.5,6.3,8.7,12.1,12.7,17.9c2.6,3.7,6.1,7.3,7.3,11.5
			C604.2,57.6,617.4,63.8,627.9,58.3z M610.6,251.2c-4.6-2.5-8.7-5.2-13.1-7c-2-0.8-4.9-0.8-6.9,0.1c-4.6,2-8.1,1.4-11.4-2.3
			c-1-1.1-3.2-1.6-4.8-1.4c-9.2,1-18.4,2.3-28.2,3.6c-0.6,1.2-1.5,3.3-2.4,5.3c5.7,4.6,12,6.3,19,6.6c5.2,0.2,10.3,1,12.9,6.7
			c0.5,1,3,1.8,4.4,1.7c4.7-0.5,9.3-1.6,13.9-2.2C601.2,261.1,606.7,257.7,610.6,251.2z M967.9,405.8c-0.5,0.6-0.9,0.8-0.8,1
			c0.4,7.8,0.8,15.6,1.3,23.4c0,0.6,0.7,1.3,1.2,1.7c3.1,2.1,6.3,4.1,9.4,6.2c3.6-4,6.2-7.6,2.9-12.6c-0.5-0.7-0.6-1.7-0.6-2.5
			C980.4,414.6,975.4,409.5,967.9,405.8z M593,269.2c3.1,2.6,5.7,5.3,8.8,7.2c2.1,1.3,5,1.3,7.6,1.9c0.3-2,1.1-4,0.8-5.9
			c-0.4-2.6-1.8-5-2.7-7.4C602.2,266.5,597.5,267.9,593,269.2z M597.1,290.9c3.8,1.3,7.9,2.6,13,4.3c0.3-3.8,1.7-7.6,0.3-9.4
			c-1.4-1.9-5.7-2.8-8.3-2.3C599.2,284,596.3,286.3,597.1,290.9z M581.7,278.4c-0.5,0.2-1,0.3-1.5,0.5c0.5,2.2,0.2,5.6,1.6,6.4
			c2.6,1.6,6.1,1.8,9.2,2.5c0.2-0.5,0.3-1,0.5-1.5C587.6,284.3,582.2,284.3,581.7,278.4z M591,274.5c-1.1,1.5-2.1,2.8-3.9,5.1
			c4.1-0.2,7-0.3,9.8-0.4c0.1-0.4,0.1-0.8,0.2-1.2C595.2,276.9,593.3,275.8,591,274.5z"/>
	</g>
	<path d="M1101.8,998.8c-1.3,11-1.4,22.2-6.6,31.8c-5.2,9.6-5.6,19.6-6.9,29.8c-0.8,6.3-2,12.6-7,17.5c-1.7,1.6-1.9,4.7-2.6,7.2
		c-1.8,6.5-6,10.3-12.4,12.3c-3.2,1-5.7,0.5-7.4-1.8c-6.4-9-16.3-11.7-25.9-15.3c-1.4-0.5-2.8-0.9-4-1.6c-4.2-2.4-4.5-4.2-2.2-8.6
		c0.9-1.7,1.5-3.9,1.2-5.7c-1.8-13.5-4-27-5.9-40.6c-0.6-4.5-2.1-7.3-7-7.9c-4.1-0.5-5.9-3.1-5.6-7.4c1-13.2,4.5-25.8,10.3-37.7
		c4.9-10.1,14.1-14,24.4-16.5c2.2-0.5,4.8-1.9,5.9-3.8c2.2-3.6,5.4-5,9.1-4.8c4.2,0.3,4.7-1.6,4.7-5.1c0-5.1,0.4-10.2,0.9-15.3
		c0.4-4.6,2.8-7.9,7.6-9c3.4-0.8,6.8-1.9,10.2-2.3c7.1-0.7,11.9,2.6,12.5,9.7c0.7,8.1,0.8,16.3-0.2,24.3c-1.2,9-0.7,17.5,2,26.2
		C1099.4,982.4,1100.2,990.7,1101.8,998.8z M1075.4,1045.3c1.5-5,2.6-9.1,4-13c1.9-5.2,5-10,6-15.3c2.9-16.3,0.4-32.3-5.3-47.6
		c-2.6-7-3.1-13.9-1.6-21c0.7-3.3,1.8-6.5,2.3-9.8c0.6-3.9,0.8-7.8,0.7-11.7c0-1.1-1.9-3.1-2.8-3c-1.3,0.1-3,1.4-3.7,2.6
		c-0.7,1.3-0.6,3.1-0.6,4.7c-0.1,6.1,0.1,12.3-0.4,18.3c-0.2,2.3-1.4,6.1-2.8,6.5c-2.3,0.6-5.6-0.5-7.8-1.8
		c-3.5-2.1-5.2-2.2-6.8,1.6c-1.8,4.4-4.8,6-9.4,6.2c-9.4,0.5-15.7,6.2-20.2,14c-1.4,2.5-1.7,4.4,1.8,5.7c3.5,1.3,6.7,3.6,10.2,5
		c7.6,3,13,8.5,16.5,15.6c6.2,12.8,11.9,25.9,17.8,38.8C1073.8,1042.1,1074.4,1043.2,1075.4,1045.3z M1065.9,1085.6
		c0.5-3.7,0.9-6.6,1.4-9.4c0.4-1.8,0.5-4.2,1.7-5.3c5-4.6,4.9-11,6.3-16.8c0.2-1-0.6-2.8-1.6-3.4c-4.2-2.7-6.2-6.6-7.5-11.4
		c-1.2-4.3-3-8.5-4.9-12.6c-2.7-5.8-6.4-11.2-8.5-17.2c-4.8-13.9-16.2-19.3-28.7-24c-1.7,7.6-3.4,14.9-5.1,22.4
		c1,0.3,1.8,0.7,2.6,0.8c6.1,0.8,9.9,4.5,11.5,10c1.4,4.8,2.2,9.9,2.8,15c0.9,7.4,1.2,14.8,1.9,22.2c0.4,4.4,0,9.5,2.1,13.1
		c2,3.5,6.5,5.8,10.2,8.1C1055.1,1080,1060.3,1082.6,1065.9,1085.6z"/>
</g>
</svg>
