<?xml version="1.0" encoding="utf-8"?>
<!-- Generator: Adobe Illustrator 19.1.0, SVG Export Plug-In . SVG Version: 6.00 Build 0)  -->
<svg version="1.1" id="Calque_1" xmlns="http://www.w3.org/2000/svg" xmlns:xlink="http://www.w3.org/1999/xlink" x="0px" y="0px"
	 viewBox="0 0 360 598.4" style="enable-background:new 0 0 360 598.4;" xml:space="preserve">
<style type="text/css">
	.st0{fill:#F4A300;}
	.st1{fill:#C0C0C0;}
	.st2{fill:#008A90;}
	.st3{fill:#6DA3C3;}
	.st4{fill:none;stroke:#F8AD3B;stroke-width:3;stroke-miterlimit:10;}
	.st5{fill:#F8AD3B;}
	.st6{fill:none;}
	.st7{fill:#E2F7EF;}
	.st8{fill:#FFFFFF;}
</style>
<g>
	<g>
		<path d="M162.6,211.9c-0.4,3.2-3.3,5.8-6,5.5c-3-0.4-5-3-4.7-6c0.3-3.1,3.4-6,5.9-5.5C160.7,206.3,163,209.2,162.6,211.9z"/>
		<path d="M181.7,217.9c0-2.6,2.3-4.8,5.2-4.9c2.2,0,4.6,2.2,4.7,4.4c0.1,2.5-2.8,5.8-5.2,5.9C183.6,223.4,181.7,221.2,181.7,217.9z
			"/>
		<path d="M44.8,367.3c11.5,0.1,23-2.2,34.9,0.4c-1.4,3.8-2.6,7.4-4.1,10.8c-7.3,16.5-14.8,32.9-22,49.5
			c-5.5,12.7-10.6,25.6-15.9,38.4c-2.5,6-5.1,12-7.5,18.1c-0.5,1.3-0.3,2.8-0.3,4.3c0,1.2,0.6,2.4,0.4,3.5c-0.7,4.4,1.2,8,3.2,11.8
			c1.2,2.2,2.7,2.8,4.8,2.8c5.7,0,11.3-0.2,17-0.1c3.5,0,7,0.6,10.5,0.6c8.5-0.1,17-0.8,25.5-0.6c12,0.2,24.1,0.6,36,1.8
			c12,1.2,23.9,1.7,35.9,0.2c0.8-0.1,1.7-0.1,2.5-0.1c5.9-0.2,12.1,0.9,17.6-2.5c12.6-2.3,25.1-5.8,38-6.3c7.7-0.3,15.3,0.2,23,0.3
			c5.2,0.1,10.4,0.1,15.5,0.4c14.3,1,28.7,1.9,42.6,5.7c1.2,0.3,2.5,0.4,4.3,0.6c0-5.8,4.2-9.1,5.4-13.7c1.1-4,2.4-7.9,3.5-11.9
			c0.2-0.7-0.1-1.8-0.6-2.3c-6.6-8.2-11-17.8-16.2-26.9c-7.3-12.8-14.3-25.7-20.5-39c-3.8-8-7.6-16-11.1-24.1c-1.2-2.7-1-4.8,0.5-7
			c2-3,4.2-6,6.2-9.1c2.7-4.1,2.7-4.1,0-7.8c4.1-0.8,78.8,0.3,83.4,1.3l0.1-9.5l0-0.1c-5.1,1.8-77.8,0.9-85,0
			c-0.4-3.4-2.3-5.1-5.9-6c-2.8-0.7-5-3.3-7.6-4.8c-3.7-2.2-3.9-2.1-6.1,1.5c-0.3,0.6-0.7,1.1-1.2,1.6c-1.2,1.5-2.6,3.2-4.6,2.2
			c-1.3-0.6-2.5-2.1-3-3.5c-0.9-2.3-1.5-4.8-1.9-7.3c-2.5-15.5-4.8-31-7.3-46.5c-0.4-2.8-1.4-5.5-1.7-8.3c-0.6-4.1-0.8-8.3-1.2-12.4
			c-0.1-1-0.6-2-1.1-3.4c2.4-1.5,5.2-2.9,7.7-4.7c11.3-8.1,20-18.7,26.6-30.9c2.5-4.7,5.4-9.2,5.9-14.8c0.8-8.3,0.1-16.5-2.9-24.2
			c-3.2-8-7-15.9-11.3-23.4c-5.5-9.4-14.2-15.4-24.3-19.2c-11.4-4.3-23-8.2-35.1-10c-0.5-0.1-0.9,0.1-1.6,0.2c0,2.6,1.7,3.4,3.7,3.9
			c2.3,0.5,4.6,0.8,6.9,1.5c9.1,2.9,18.2,5.8,27.2,8.8c11.6,3.9,19.6,11.9,24.7,22.8c1.9,3.9,3.7,7.9,5.3,11.9
			c7.1,17.2,4.9,33.4-6,48.4c-3.3,4.6-7,8.9-10.9,13.1c-9,9.9-20.6,15.4-33.5,17.8c-10.7,2-21.4,3.5-32.2,4.9
			c-13.6,1.7-26.7,0.2-38.9-6.6c-6.8-3.8-14.5-6.5-20.7-11.2c-12.5-9.4-21.9-21.1-26.7-36.6c-4.1-13.3-2.5-25.7,2.3-38.2
			c3.1-8,7.1-15.5,12.6-22.1c5.6-6.9,13-11.6,21.1-14.9c7-2.8,14.2-4.9,21.8-5.6c6.7-0.6,13.3-0.9,19.8,1.7c2.2,0.9,4.8,1.1,7.5,0.8
			c-0.6-0.6-1.1-1.4-1.9-1.8c-6.9-3.1-14-5.1-21.8-4.3c-8.2,0.8-16.2,2.2-24,5.1c-12.6,4.6-22.8,12.2-30.3,23.6
			c-6.1,9.4-10,19.7-12.1,30.6c-1.8,9.6,0.2,18.9,3,28.1c4.1,13.6,12.9,24,23.2,33.3c2.5,2.2,3.5,4.2,2.8,7.7
			c-1.5,6.7-1.9,13.6-3.3,20.3c-3.2,16.4-6.6,32.7-10,49.1c-0.8,4.1-1.7,8.1-2.7,12.8c-5.1-0.1-9.9-0.1-14.7-0.2
			c-3.2,0-6.4-0.1-9.5,0.2c-7,0.5-8.2,1.8-8.7,9.4c-4.4,1.1-9.1,1.2-13.6,1.1c-10.9-0.1-21.7-0.6-32.6-0.8c-4.8-0.1-3.5,0.3-9,0.5
			c0-0.2,0-0.4,0-0.6l-0.1,0.3l0,8.7c0,0,1.1,1.1,1.1,0.2C27.6,367.1,33.2,367.3,44.8,367.3z M133.3,497.2
			c-9.9-0.1-19.8-0.3-29.7-0.3c-8.7-0.1-17.3,0-26,0c-5.3,0.1-10.7,0.4-16,0.5c-8,0.1-16,0.3-23.9,2.1c-0.6,0.1-1.3-0.1-3.2-0.4
			c1.8-1.1,2.5-1.9,3.4-2c21.5-3.5,43.1-4.6,64.8-3.4c10.2,0.6,20.4,1.8,30.6,2.7C133.3,496.6,133.3,496.9,133.3,497.2z M34.3,492.6
			c3.5-3.8,8.1-4.4,12.3-5.3c8-1.7,16.1-3,24.2-3.8c11.5-1.1,23-1.3,34.5-0.1c8.1,0.8,16.3,1.5,24.4,2.8c11,1.9,22,4.3,32.9,6.6
			c2.4,0.5,4.7,1.6,7,2.7c0.8,0.3,1.2,1.3,1.7,2.3C125.9,489.3,80.4,485,34.3,492.6z M179.9,496.1c3.9-3.4,16.6-8.4,21.6-8.7
			C197.2,490.1,182.8,496.1,179.9,496.1z M301,496.2c-6.4-1.7-12.9-3.5-19.4-4.6c-5.7-0.9-11.6-1-17.5-1.2
			c-8.2-0.3-16.4-0.8-24.5-0.5c-11,0.5-21.9,1.8-32.9,2.8c-0.6,0.1-1.3,0.1-1.9,0.2c-0.1-0.3-0.2-0.6-0.4-0.9
			c3.4-1.2,6.7-2.9,10.2-3.7c10-2.2,20-3.4,30.3-2.9c5.6,0.3,11.3-0.4,17-0.2c9.8,0.4,19.7,0.7,29.5,1.8c5.7,0.7,11.5,1.6,16.6,4.5
			C307.4,496.5,305.8,497.4,301,496.2z M310,486.4c-30.8-8.3-61.8-5.8-92.8-4.1c2.6-1.8,5.8-2.6,9-3c8.6-1.1,17.2-2.3,25.9-2.6
			c12.7-0.4,25.4-0.3,38.1,0.2c5.6,0.2,11.2,1.6,16.7,2.8C311.2,480.8,311.2,481,310,486.4z M307.1,475.3c-4.7-0.6-8.5-1.4-12.4-1.6
			c-12-0.5-24.1-1.1-36.1-0.9c-10.7,0.2-21.3,1.4-32,2.2c-1.5,0.1-3,0.4-4.4,0.9c-15.1,5.3-31,8.5-45.4,15.8c-0.4,0.2-1,0.2-1.7,0.3
			c-0.4-1.3-1-2.5-1.1-3.8c-1.1-14.1-2.3-28.3-2.2-42.5c0.1-13.4,0.1-26.8-0.2-40.1c-0.2-10.2-1.2-20.3-1.6-30.5
			c-0.5-10.7-1-10.1,9-14.6c9.2-4.1,18.8-6.9,28.8-8.4c1.8-0.3,3.6-0.2,6.1-0.3c-0.5,5.5-1,10.6-1.6,15.7
			c-1.1,9.8-2.2,19.6-3.4,29.4c-0.4,3.4,0.5,6.3,3.2,8.2c-0.3,0.9-0.3,1.5-0.6,1.8c-3.7,3.1-5,7.5-6.7,11.7
			c-1.5,3.9-3.8,7.4-5.6,11.2c-0.8,1.7-1.4,3.5-2.2,5.5c4.5,2.1,8,2.3,11.8,0.6c3.7-1.7,7.8-1.7,11.8-0.7c5.7,1.4,10.6-0.5,15.1-3.6
			c3.2-2.2,6.1-3.5,9.5-0.9c2.1,1.6,4.3,0.8,6.1-0.4c2.3-1.4,4.6-1.5,7.2-1.4c2.2,0.1,4.5-0.3,7-0.6c-0.4-1.1-0.4-1.9-0.7-2
			c-4.5-2-9-4.5-14-1.2c-1.8,1.2-3.9,1.7-5.7,0.6c-3.8-2.4-7.2-1.2-10.2,1.1c-4.8,3.5-9.7,4.6-15.6,3.5c-3.4-0.6-7.1,0.2-11.8,0.4
			c3.8-2.6,6.6-5.4,10-6.8c2.2-0.9,3.4-1.9,4.6-3.8c1.6-2.6,3-5.7,7-5.7c0.8,0,1.5-1.6,2.3-2.4c1.8-1.9,3.6-3.8,5.5-5.5
			c1.4-1.2,1.6-2.2,0.8-3.9c-0.5-1-0.7-2.8-0.1-3.6c5.9-7.9,12-15.6,18.1-23.3c4.1,3.2,4.4,4.2,2.1,8.8c-2.4,4.8-2.1,5.9,2.7,9
			c0.8-0.9,1.7-1.8,3.1-3.3C275.8,419.8,291.2,447.3,307.1,475.3z M215.9,407.5c3.4,0.2,4.6,2.6,6.8,4.6c-1.8,2.2-3.4,4.1-5.3,6.4
			c-1.9-1.8-3.4-3.2-5.1-4.8C213.6,411.5,214.8,409.5,215.9,407.5z M267.2,370.2c-1.5,2.2-2.9,4.4-4.7,7.1c-1.3-2.3-2.1-3.8-2.9-5.2
			C263.2,367.4,263.2,367.4,267.2,370.2z M251.5,358.6c3.5,2.4,6,4,8.6,5.8c-9.3,11.8-18.3,23.4-27.6,35.3c-1.3-0.9-2.5-1.7-3.7-2.5
			c-1.2-0.8-2.4-1.7-3.9-2.8C233,381.9,242.7,370.8,251.5,358.6z M247.5,356.9c-8.9,11.8-17.5,23.3-26.2,35
			c-2.4-0.3-3.6-1.7-3.8-3.9c-0.2-2.2-0.5-4.3-0.3-6.5c0.7-9,1.5-17.9,2.3-26.9c0.1-0.8,0.3-1.6,0.6-2.5
			C229.6,350.5,238,354.2,247.5,356.9z M238.9,348.8c-5.9-0.7-11.9-1.5-17.9-2.2c-0.9-5.9,5.4-53.6,8.3-60.6
			C232.6,307.5,235.7,328,238.9,348.8z M114.6,314.1c2.3-12.7,4.7-25.4,7.3-38.9c4.3,2.6,7.7,4.9,11.4,6.9c3.7,1.9,7.4,4.2,11.4,5
			c10.7,2,21.3,4.5,32.2,4.6c14.3,0.1,28.3-1.9,41.9-6.4c1.1-0.4,2.2-0.8,3.3-1.1c0.3-0.1,0.6,0.2,1.5,0.4c-2,20.6-6.8,41-8.8,62.2
			c-17.2,1.2-33.1,6.1-47.3,14.7c-4.5-2.1-8.4-4.2-12.5-5.8c-13-5-26.5-4.9-40.1-3.6c-2.3,0.2-4.6,0.7-7.4,1.1
			C108,339.5,112.3,327,114.6,314.1z M99.5,362.9c5.6,0.3,6.2-0.1,8.7-5.5c4.6-0.5,9.6-1.5,14.5-1.5c11.2,0.1,22.5,0,33,4.7
			c3.2,1.4,6.2,3.1,9.5,4.8c0.3,8.7,0.6,17.4,0.9,26c0.1,1.7,0.1,3.3,0.1,5c0.2,5.7,0.6,11.3,0.7,17c0.3,13,0.2,26.1,0.7,39.1
			c0.4,10.5,1.3,21,2,31.5c0.1,2,0.3,4,0.4,6.2c-28.1-6.6-55.7-12.1-84.2-11.6c-16.1,0.3-32,2-47.5,6.6c-0.9,0.3-1.9,0.4-3.7,0.8
			c0.6-2.4,1-4.3,1.7-6c5.7-13.7,11.5-27.4,17.4-41.1c3.4-7.8,6.9-15.6,10.3-23.4c6.1-14.1,12-28.3,18.2-42.4
			C85.6,365.2,90.6,362.4,99.5,362.9z"/>
	</g>
	<path class="st0" d="M133.3,497.2c-9.9-0.1-19.8-0.3-29.7-0.3c-8.7-0.1-17.3,0-26,0c-5.3,0.1-10.7,0.4-16,0.5
		c-8,0.1-16,0.3-23.9,2.1c-0.6,0.1-1.3-0.1-3.2-0.4c1.8-1.1,2.5-1.9,3.4-2c21.5-3.5,43.1-4.6,64.8-3.4c10.2,0.6,20.4,1.8,30.6,2.7
		C133.3,496.6,133.3,496.9,133.3,497.2z"/>
	<path class="st0" d="M34.3,492.6c3.5-3.8,8.1-4.4,12.3-5.3c8-1.7,16.1-3,24.2-3.8c11.5-1.1,23-1.3,34.5-0.1
		c8.1,0.8,16.3,1.5,24.4,2.8c11,1.9,22,4.3,32.9,6.6c2.4,0.5,4.7,1.6,7,2.7c0.8,0.3,1.2,1.3,1.7,2.3
		C125.9,489.3,80.4,485,34.3,492.6z"/>
	<path class="st0" d="M179.9,496.1c3.9-3.4,16.6-8.4,21.6-8.7C197.2,490.1,182.8,496.1,179.9,496.1z"/>
	<path class="st0" d="M301,496.2c-6.4-1.7-12.9-3.5-19.4-4.6c-5.7-0.9-11.6-1-17.5-1.2c-8.2-0.3-16.4-0.8-24.5-0.5
		c-11,0.5-21.9,1.8-32.9,2.8c-0.6,0.1-1.3,0.1-1.9,0.2c-0.1-0.3-0.2-0.6-0.4-0.9c3.4-1.2,6.7-2.9,10.2-3.7c10-2.2,20-3.4,30.3-2.9
		c5.6,0.3,11.3-0.4,17-0.2c9.8,0.4,19.7,0.7,29.5,1.8c5.7,0.7,11.5,1.6,16.6,4.5C307.4,496.5,305.8,497.4,301,496.2z"/>
	<path class="st0" d="M310,486.4c-30.8-8.3-61.8-5.8-92.8-4.1c2.6-1.8,5.8-2.6,9-3c8.6-1.1,17.2-2.3,25.9-2.6
		c12.7-0.4,25.4-0.3,38.1,0.2c5.6,0.2,11.2,1.6,16.7,2.8C311.2,480.8,311.2,481,310,486.4z"/>
	<path class="st0" d="M307.1,475.3c-4.7-0.6-8.5-1.4-12.4-1.6c-12-0.5-24.1-1.1-36.1-0.9c-10.7,0.2-21.3,1.4-32,2.2
		c-1.5,0.1-3,0.4-4.4,0.9c-15.1,5.3-31,8.5-45.4,15.8c-0.4,0.2-1,0.2-1.7,0.3c-0.4-1.3-1-2.5-1.1-3.8c-1.1-14.1-2.3-28.3-2.2-42.5
		c0.1-13.4,0.1-26.8-0.2-40.1c-0.2-10.2-1.2-20.3-1.6-30.5c-0.5-10.7-1-10.1,9-14.6c9.2-4.1,18.8-6.9,28.8-8.4
		c1.8-0.3,3.6-0.2,6.1-0.3c-0.5,5.5-1,10.6-1.6,15.7c-1.1,9.8-2.2,19.6-3.4,29.4c-0.4,3.4,0.5,6.3,3.2,8.2c-0.3,0.9-0.3,1.5-0.6,1.8
		c-3.7,3.1-5,7.5-6.7,11.7c-1.5,3.9-3.8,7.4-5.6,11.2c-0.8,1.7-1.4,3.5-2.2,5.5c4.5,2.1,8,2.3,11.8,0.6c3.7-1.7,7.8-1.7,11.8-0.7
		c5.7,1.4,10.6-0.5,15.1-3.6c3.2-2.2,6.1-3.5,9.5-0.9c2.1,1.6,4.3,0.8,6.1-0.4c2.3-1.4,4.6-1.5,7.2-1.4c2.2,0.1,4.5-0.3,7-0.6
		c-0.4-1.1-0.4-1.9-0.7-2c-4.5-2-9-4.5-14-1.2c-1.8,1.2-3.9,1.7-5.7,0.6c-3.8-2.4-7.2-1.2-10.2,1.1c-4.8,3.5-9.7,4.6-15.6,3.5
		c-3.4-0.6-7.1,0.2-11.8,0.4c3.8-2.6,6.6-5.4,10-6.8c2.2-0.9,3.4-1.9,4.6-3.8c1.6-2.6,3-5.7,7-5.7c0.8,0,1.5-1.6,2.3-2.4
		c1.8-1.9,3.6-3.8,5.5-5.5c1.4-1.2,1.6-2.2,0.8-3.9c-0.5-1-0.7-2.8-0.1-3.6c5.9-7.9,12-15.6,18.1-23.3c4.1,3.2,4.4,4.2,2.1,8.8
		c-2.4,4.8-2.1,5.9,2.7,9c0.8-0.9,1.7-1.8,3.1-3.3C275.8,419.8,291.2,447.3,307.1,475.3z"/>
	<path class="st0" d="M99.5,362.9c5.6,0.3,6.2-0.1,8.7-5.5c4.6-0.5,9.6-1.5,14.5-1.5c11.2,0.1,22.5,0,33,4.7
		c3.2,1.4,6.2,3.1,9.5,4.8c0.3,8.7,0.6,17.4,0.9,26c0.1,1.7,0.1,3.3,0.1,5c0.2,5.7,0.6,11.3,0.7,17c0.3,13,0.2,26.1,0.7,39.1
		c0.4,10.5,1.3,21,2,31.5c0.1,2,0.3,4,0.4,6.2c-28.1-6.6-55.7-12.1-84.2-11.6c-16.1,0.3-32,2-47.5,6.6c-0.9,0.3-1.9,0.4-3.7,0.8
		c0.6-2.4,1-4.3,1.7-6c5.7-13.7,11.5-27.4,17.4-41.1c3.4-7.8,6.9-15.6,10.3-23.4c6.1-14.1,12-28.3,18.2-42.4
		C85.6,365.2,90.6,362.4,99.5,362.9z"/>
	<path class="st0" d="M247.5,356.9c-8.9,11.8-17.5,23.3-26.2,35c-2.4-0.3-3.6-1.7-3.8-3.9c-0.2-2.2-0.5-4.3-0.3-6.5
		c0.7-9,1.5-17.9,2.3-26.9c0.1-0.8,0.3-1.6,0.6-2.5C229.6,350.5,238,354.2,247.5,356.9z"/>
</g>
</svg>
