<?xml version="1.0" encoding="utf-8"?>
<!-- Generator: Adobe Illustrator 19.1.0, SVG Export Plug-In . SVG Version: 6.00 Build 0)  -->
<svg version="1.1" id="Calque_1" xmlns="http://www.w3.org/2000/svg" xmlns:xlink="http://www.w3.org/1999/xlink" x="0px" y="0px"
	 viewBox="0 0 360 598.4" style="enable-background:new 0 0 360 598.4;" xml:space="preserve">
<style type="text/css">
	.st0{fill:#F4A300;}
	.st1{fill:#C0C0C0;}
	.st2{fill:#008A90;}
	.st3{fill:#6DA3C3;}
	.st4{fill:none;stroke:#F8AD3B;stroke-width:3;stroke-miterlimit:10;}
	.st5{fill:#F8AD3B;}
	.st6{fill:none;}
	.st7{fill:#E2F7EF;}
	.st8{fill:#FFFFFF;}
</style>
<g>
	<path d="M315.2,359.4c-0.1-2.4-0.4-4.7-0.3-6.9c0.6-13.6,1.7-27.1,1.9-40.7c0.4-23.6,0.1-47.1,0.3-70.7c0.1-7.4,0.9-14.9,0.9-22.3
		c0-8.2-0.5-16.3-0.7-24.5c-0.3-11.6-0.7-23.2-0.7-34.8c0.1-14.9,0.6-29.7,0.9-44.6c0.1-3.4,0.3-6.9,0.7-10.3c0.7-6.6-2.2-9.7-9-9.7
		c-19.4-0.1-38.8-0.1-58.2-0.2c-17.2-0.1-34.5-0.3-51.7-0.5c-1.8,0-3.6,0.1-5.4-0.1c-26.5-2.4-52.9-1-79.4-0.5
		c-13.8,0.2-27.6,0.5-41.3,0.9c-4.9,0.1-9.6,0.9-13.3,4.1c2.1,26.9,2.3,53.7,1.9,80.5c-0.1,5.2,0.5,10.5,0.7,15.8
		c0.7,14.7,1.7,29.3,2,44c0.4,20.9,0.3,41.7,0.2,62.6c0,18.3-0.2,36.6-0.3,54.9c0,0.5-0.2,1-0.5,2.1c-18.5,1.5-30.2,2.3-49.4,1.9
		l0.5,7.2c18.7-0.6,30.4-0.5,49.5-1.2c0.3,2.7,0.6,4.8,0.6,7c0.3,11.4,0.4,22.9,0.7,34.3c0.4,16.9,1,33.7,1.5,50.6
		c0.1,3.4-0.1,6.8-0.2,11c2.6,0.3,5.7,1.1,8.7,1c2.2,0,2.5-2.1,2.4-4.1c-0.6-11.6-1.1-23.2-1.7-34.7c-0.2-4,0.4-5,4.3-5.1
		c5.8-0.1,11.6,0,17.4,0.1c1.1,0,2.3,0.1,3.2,0.6c5.7,3.7,12.3,4.9,18.8,5.9c4.5,0.7,9.3-0.5,13.9-1.2c4.1-0.6,8.1-1.5,12.9-2.3
		c1.1,8.5,1.5,16.4,0.8,24.3c-0.2,1.9-1,2.9-3,3.1c-8.3,0.7-16.5,1.6-24.8,2.3c-3.7,0.3-5.2,1.9-4.6,5.5c0.3,2.1,0.7,4.3,1.1,6.4
		c0.7,3.5,2.3,5.4,5.2,5.2c8.1-0.4,16.3-0.8,24.3-1.7c7-0.8,8-2.3,7.8-9.6c0-1.1,0-2.2,0.1-3.3c1.2-8.8,2.1-17.6,1.6-26.5
		c-0.1-2.6,0.6-5.3,1-8.3c7.4-1.6,14.4-1.3,21.3,0.2c7.6,1.6,15.2,3.5,22.8,4.8c3.1,0.5,3.8,1.9,3.9,4.7c0.4,10.3,1,20.6,1.6,30.8
		c0.1,1.6,0.3,3.3,0.9,4.8c1,2.4,2.7,4.1,5.8,4c8.1-0.4,16.3-0.5,24.4-0.8c2.5-0.1,5.1-0.3,7.2-3c-3.7-5,1.4-11.6-3-17.2
		c-9.2,0.6-18.5,1.2-27.9,1.9c-0.4-1.1-0.9-1.8-0.8-2.4c0.3-6.2,0.7-12.3,1-18.5c0.1-2.5,1.3-3.9,3.8-4.5c16-4.1,31.8-5.9,48.2-0.9
		c9.5,2.9,19.7,2.9,29.7,1.4c2.6-0.4,5.3-0.7,8.2-1c0.4,1.9,0.8,3.3,0.9,4.7c0.5,7.8,0.8,15.6,1.3,23.3c0.3,4.7,0.6,9.3,0.9,14
		c0.1,2,1.6,2.7,3.5,1.8c2.8-1.4,3.4-4.2,3.6-6.9c0.3-4,0.3-8,0.2-12c-0.2-13.8-0.1-27.6-0.8-41.3c-0.8-14.4,0.9-28.6,1.1-42.9
		c0-1.4,0.3-2.8,0.5-4.6c11-1.7,21.7,1.2,32.5,0.4c10.8-0.8-0.1-1.1,11.5-1.4l-0.1-7.5C336.8,359.6,337.2,361.2,315.2,359.4z
		 M69.3,103.2c1.8-0.1,2.9-0.4,4-0.3c23.5,1,47,1,70.5-0.5c3.8-0.3,7.6,0.1,11.4,0.1c18.1,0,36.2,0,54.3-0.2
		c19.7-0.2,39.5-0.6,59.2-0.8c11.8-0.1,23.5-0.2,35.3-0.3c2,0,3.9-0.2,6.3-0.4c1.6,5,0.3,9.6,0,15c-7.6,0.2-14.7,0.4-21.4,0.6
		c-2.7-3.5-1.8-8.8-7.5-9c-5.8-0.1-5.9,4.2-6.7,8.7c-7,0.2-13.8,0.7-20.5,0.9c-5.5-8.6-10.8-10.1-14.8-0.2
		c-10.8-0.3-21.8-0.5-33.1-0.8c-0.5-2-1.1-3.4-1.6-4.9c-0.8-2.4-2.8-3.5-5-3.9c-2.4-0.4-3.8,1-4.5,3c-1.4,4-4.2,4.6-8.1,4.4
		c-6.9-0.5-13.8-0.4-20.8-0.6c-1.7-3.1-2.5-7-7.2-6.9c-3.9,0.1-5.2,2.7-6.2,6.2c-4.1,0.3-8.2,0.6-12.4,0.8c-4,0.2-8,0.3-12,0.4
		c-1.1-1.4-1.9-2.8-3-3.9c-3.1-3.3-7.7-3.1-10.1,0.7c-1.5,2.5-3.3,2.9-5.9,2.8c-6.1-0.2-12.3-0.3-19.4-0.5c-1.3-1.5-2.1-4.9-5.9-5.3
		c-4.4-0.6-5,2.6-7,6.6c-2.5-0.1-5.1-0.1-8.8-0.2C68.7,110.6,69,106.8,69.3,103.2z M309.4,121.1c-0.1,3.5-0.2,6.2-0.2,9.6
		c-7,1.1-15.1-1.2-23.9-1.8c0.8-2.9,1.1-4.9,1.8-7.4C294.5,121.3,302.4,121.2,309.4,121.1z M281.9,115.7c-0.3,0-0.6,0.1-0.8,0.2
		c-0.2-0.7-0.4-1.4-0.7-2.1c0.4-0.1,0.9-0.3,1.3-0.4C281.8,114.1,281.8,114.9,281.9,115.7z M277.7,129c-9.2,1.8-17.5-0.7-26.3-2
		c0.4-1.9,0.7-3.4,1.1-5.3c7.8-0.1,15.3-0.3,23.1-0.4C276.3,124,276.9,126.2,277.7,129z M242,127.3c-12.9,1.7-24.6-3.5-37.2-2.7
		c0.6-1.9,0.9-0.7,1.3-4.7c11.3,0.3,22.5,0.5,34.2,0.8C240.8,124.8,241.4,124.9,242,127.3z M199.7,120.5c-0.1,1.2-0.2,2.3-0.3,3.5
		c-0.3,0-0.6,0-0.9,0c-0.1-1.2-0.2-2.4-0.3-3.6C198.7,120.4,199.2,120.5,199.7,120.5z M194,127.8c-10.6,2-20.5,0.1-31-0.9
		c0.8-2.8,1.5-4,2.3-8c9,0.2,17.8,0.4,27.1,0.7C192.9,123.6,193.4,124.8,194,127.8z M153.2,127.2c-7.6,1.3-14.8,2.6-22.1,3.7
		c-2,0.3-4.2-0.5-6.1-0.7c-0.3-0.9-0.5-1.3-0.4-1.6c1.8-9.1,1.9-9.2,11.3-9.2c4.9,0,9.8-0.1,14.7-0.1c0.3,0,0.6,0.3,1.3,0.6
		C152.3,122,152.7,124.5,153.2,127.2z M120.8,119.4c-0.2,2.3-0.3,4-0.4,5.8C118.2,121.2,118.2,121.2,120.8,119.4z M114.2,128.4
		c-9.7,0.1-18.2,1.6-27.4,0.1c0.8-3.2,1.5-5.9,2.2-8.8c7.2-1.3,14.2-0.9,21.2-0.4c1,0.1,2.3,1.2,2.6,2.2
		C113.5,123.4,113.7,125.5,114.2,128.4z M68.8,119.9c2.8-0.3,5.2-0.6,8.1-1c0.6,2.7,1.1,5,1.8,8.2c-3.1,0.5-5.8,0.9-9.6,1.5
		C68.9,125.3,68.9,122.9,68.8,119.9z M306.5,310.8c-0.3,6.9-1.1,13.8-1.2,20.6c-0.6,29.7-1.1,59.5-1.7,89.2c0,0.9-0.2,1.8-0.3,3
		c-14.5,4.3-28.7,0.3-43.5-0.7c-0.2-15-0.4-29.2-0.5-43.5c0-0.7,0.1-1.4,0.1-2.2c0-10-0.1-19.9-0.1-29.9c0-2.9,0.2-5.8,0.3-8.7
		c0.1-8.3,0.3-16.7,0.1-25c-0.2-10.2,0.5-20.3,1.2-30.4c0.6-7.9,0-15.9-0.5-23.8c-1-13.9-2.3-27.8-3.4-41.7
		c-0.3-3.8-0.5-7.6-0.8-11.4c-0.3-2.8-0.3-2.8-3.5-4.9c-2.3,1.3-2.2,3.4-2.1,5.6c0.8,13.4,1.8,26.8,2.3,40.2
		c0.5,14.7,0.9,29.3,0.8,44c-0.2,30.1-0.7,60.2-1.2,90.3c-0.2,11.8-0.6,23.6-1,35.3c0,1.1-0.2,2.1-0.3,3.1c-6.7,0.6-13,1.2-19.6,1.9
		c-0.1-7.3-0.1-14.2-0.3-21c-0.3-14.7-0.9-29.3-1.1-44c-0.1-9.4,0.4-18.8,0.3-28.2c0-4.1-0.9-8.2-1.3-12.4c-0.2-2.5-0.5-5.1-0.3-7.6
		c0.3-5.3-0.1-10.4-1.5-15.6c-0.9-3.3-0.9-6.8-1.2-10.2c-0.3-3.5-1.4-4.4-6.3-4.7c5,48.2,5.5,96.5,4,145.3
		c-11.9,2.3-23.9,1.7-36-0.4c-0.2-7.8-0.5-15.2-0.4-22.6c0.1-10.7,0.7-21.4,0.9-32c0.3-11.4,0.5-22.8,0.5-34.2
		c0-11.4-0.3-22.8-0.5-34.2c-0.3-10-0.5-19.9-1.1-29.9c-0.5-8.3-1.6-16.6-2.5-24.9c-0.6-5-1.6-5.7-7.8-5.1c1,14.9,2.1,29.8,2.8,44.8
		c0.7,15,1.2,30.1,1.2,45.1c0,15.1-0.4,30.1-1.2,45.1c-0.8,14.9,0.4,29.9-1.1,45.3c-9.8-2.7-18.8-0.6-27.5,0.3
		c-0.5-0.7-0.8-1-0.8-1.3c-0.9-11.7-2.1-23.4-2.4-35.2c-0.3-9.8,0.5-19.5,0.7-29.3c0.2-8,0.6-15.9,0.3-23.9
		c-0.4-8.1-1.5-16.2-2.4-24.3c-0.4-3.6-0.9-7.2-1.2-10.8c-0.3-3-0.6-5.7-4.2-6.7c-0.7-0.2-1.2-1.2-1.9-2.1c-2,1.7-1.5,3.8-1.4,5.6
		c0.6,8.7,0.9,17.4,2.1,26c1.9,13.5,2,27.1,2.1,40.7c0.1,15.8,0.3,31.5,0.4,47.3c0,4.7-0.2,9.3-0.3,14.5
		c-11.1,1.7-22.1,2.5-33.9,1.1c-0.2-3.5-0.6-6.9-0.5-10.3c0.3-17.9,0.6-35.9,1-53.8c0.3-14.7,1.1-29.4,1-44
		c-0.1-9.6,0.2-19.1-1.1-28.8c-1.2-9.1-0.8-18.4-1.2-27.7c-0.1-2.5,0.1-5.2-0.5-7.6c-1.1-4.1-1.4-8.1-1-12.3c0.2-1.7-1-3.7-2-5.3
		c-0.4-0.6-2.1-0.9-2.9-0.5c-0.7,0.3-1.5,1.6-1.5,2.5c-0.1,2,0.3,4,0.3,6c0.3,11.4,0.6,22.8,0.9,34.2c0,0.7,0,1.5,0.1,2.2
		c2.8,20.1,0.7,40.2,0.8,60.3c0.1,17.4,0.4,34.8,0.6,52.2c0.1,8.9-0.1,17.8-0.2,26.7c0,0.9-0.3,1.7-0.4,2.8
		c-8.2-1.8-16.2-0.5-24.8,1.7c-0.3-4.3-0.7-7.9-0.7-11.4c-0.5-22.5-1.1-44.9-1.5-67.4c-0.1-8.3,0.5-16.7,0.3-25
		c-0.3-18.1-0.8-36.2-1.3-54.3c-0.4-16.3-0.7-32.6-1.4-48.9c-0.4-10.7-1.2-21.3-1.9-32c-0.2-2.7-0.5-5.4-0.5-8.1
		c-0.2-11.6-0.4-23.2-0.4-34.8c0-4.7,0.5-5.4,5.1-6c3.3-0.4,6.8,0,10.2,0.1c5.9,0.2,11.9,0.5,17.8,0.8c7.9,0.4,15.9,0.6,23.8,1.5
		c5.5,0.6,10.9,0.4,16.2-0.8c5.7-1.3,11.3-1.9,17.2-1.5c9.4,0.7,18.8,0.8,28.2,0.7c4.5,0,9-0.8,13.4-1.8c5.2-1.2,10.4-1.6,15.6-0.8
		c11.9,1.9,23.7,2.8,35.7,2c4.6-0.3,9.3,1,14,1.3c4,0.3,8,0.5,11.9,0.2c5.8-0.4,11.6-0.1,17.3,0.9c4.6,0.8,9.3,1.1,14.4,1.7
		c0.1,1.2,0.3,2.6,0.2,4c-0.6,14.5-1.4,29-1.7,43.5c-0.2,8.9,0.6,17.7,0.9,26.6c0.1,4.3,0,8.7-0.1,13
		C308.6,253.2,307.6,282,306.5,310.8z"/>
	<path class="st0" d="M306.5,310.8c-0.3,6.9-1.1,13.8-1.2,20.6c-0.6,29.7-1.1,59.5-1.7,89.2c0,0.9-0.2,1.8-0.3,3
		c-14.5,4.3-28.7,0.3-43.5-0.7c-0.2-15-0.4-29.2-0.5-43.5c0-0.7,0.1-1.4,0.1-2.2c0-10-0.1-19.9-0.1-29.9c0-2.9,0.2-5.8,0.3-8.7
		c0.1-8.3,0.3-16.7,0.1-25c-0.2-10.2,0.5-20.3,1.2-30.4c0.6-7.9,0-15.9-0.5-23.8c-1-13.9-2.3-27.8-3.4-41.7
		c-0.3-3.8-0.5-7.6-0.8-11.4c-0.3-2.8-0.3-2.8-3.5-4.9c-2.3,1.3-2.2,3.4-2.1,5.6c0.8,13.4,1.8,26.8,2.3,40.2
		c0.5,14.7,0.9,29.3,0.8,44c-0.2,30.1-0.7,60.2-1.2,90.3c-0.2,11.8-0.6,23.6-1,35.3c0,1.1-0.2,2.1-0.3,3.1c-6.7,0.6-13,1.2-19.6,1.9
		c-0.1-7.3-0.1-14.2-0.3-21c-0.3-14.7-0.9-29.3-1.1-44c-0.1-9.4,0.4-18.8,0.3-28.2c0-4.1-0.9-8.2-1.3-12.4c-0.2-2.5-0.5-5.1-0.3-7.6
		c0.3-5.3-0.1-10.4-1.5-15.6c-0.9-3.3-0.9-6.8-1.2-10.2c-0.3-3.5-1.4-4.4-6.3-4.7c5,48.2,5.5,96.5,4,145.3
		c-11.9,2.3-23.9,1.7-36-0.4c-0.2-7.8-0.5-15.2-0.4-22.6c0.1-10.7,0.7-21.4,0.9-32c0.3-11.4,0.5-22.8,0.5-34.2
		c0-11.4-0.3-22.8-0.5-34.2c-0.3-10-0.5-19.9-1.1-29.9c-0.5-8.3-1.6-16.6-2.5-24.9c-0.6-5-1.6-5.7-7.8-5.1c1,14.9,2.1,29.8,2.8,44.8
		c0.7,15,1.2,30.1,1.2,45.1c0,15.1-0.4,30.1-1.2,45.1c-0.8,14.9,0.4,29.9-1.1,45.3c-9.8-2.7-18.8-0.6-27.5,0.3
		c-0.5-0.7-0.8-1-0.8-1.3c-0.9-11.7-2.1-23.4-2.4-35.2c-0.3-9.8,0.5-19.5,0.7-29.3c0.2-8,0.6-15.9,0.3-23.9
		c-0.4-8.1-1.5-16.2-2.4-24.3c-0.4-3.6-0.9-7.2-1.2-10.8c-0.3-3-0.6-5.7-4.2-6.7c-0.7-0.2-1.2-1.2-1.9-2.1c-2,1.7-1.5,3.8-1.4,5.6
		c0.6,8.7,0.9,17.4,2.1,26c1.9,13.5,2,27.1,2.1,40.7c0.1,15.8,0.3,31.5,0.4,47.3c0,4.7-0.2,9.3-0.3,14.5
		c-11.1,1.7-22.1,2.5-33.9,1.1c-0.2-3.5-0.6-6.9-0.5-10.3c0.3-17.9,0.6-35.9,1-53.8c0.3-14.7,1.1-29.4,1-44
		c-0.1-9.6,0.2-19.1-1.1-28.8c-1.2-9.1-0.8-18.4-1.2-27.7c-0.1-2.5,0.1-5.2-0.5-7.6c-1.1-4.1-1.4-8.1-1-12.3c0.2-1.7-1-3.7-2-5.3
		c-0.4-0.6-2.1-0.9-2.9-0.5c-0.7,0.3-1.5,1.6-1.5,2.5c-0.1,2,0.3,4,0.3,6c0.3,11.4,0.6,22.8,0.9,34.2c0,0.7,0,1.5,0.1,2.2
		c2.8,20.1,0.7,40.2,0.8,60.3c0.1,17.4,0.4,34.8,0.6,52.2c0.1,8.9-0.1,17.8-0.2,26.7c0,0.9-0.3,1.7-0.4,2.8
		c-8.2-1.8-16.2-0.5-24.8,1.7c-0.3-4.3-0.7-7.9-0.7-11.4c-0.5-22.5-1.1-44.9-1.5-67.4c-0.1-8.3,0.5-16.7,0.3-25
		c-0.3-18.1-0.8-36.2-1.3-54.3c-0.4-16.3-0.7-32.6-1.4-48.9c-0.4-10.7-1.2-21.3-1.9-32c-0.2-2.7-0.5-5.4-0.5-8.1
		c-0.2-11.6-0.4-23.2-0.4-34.8c0-4.7,0.5-5.4,5.1-6c3.3-0.4,6.8,0,10.2,0.1c5.9,0.2,11.9,0.5,17.8,0.8c7.9,0.4,15.9,0.6,23.8,1.5
		c5.5,0.6,10.9,0.4,16.2-0.8c5.7-1.3,11.3-1.9,17.2-1.5c9.4,0.7,18.8,0.8,28.2,0.7c4.5,0,9-0.8,13.4-1.8c5.2-1.2,10.4-1.6,15.6-0.8
		c11.9,1.9,23.7,2.8,35.7,2c4.6-0.3,9.3,1,14,1.3c4,0.3,8,0.5,11.9,0.2c5.8-0.4,11.6-0.1,17.3,0.9c4.6,0.8,9.3,1.1,14.4,1.7
		c0.1,1.2,0.3,2.6,0.2,4c-0.6,14.5-1.4,29-1.7,43.5c-0.2,8.9,0.6,17.7,0.9,26.6c0.1,4.3,0,8.7-0.1,13
		C308.6,253.2,307.6,282,306.5,310.8z"/>
</g>
</svg>
