<?xml version="1.0" encoding="utf-8"?>
<!-- Generator: Adobe Illustrator 19.1.0, SVG Export Plug-In . SVG Version: 6.00 Build 0)  -->
<svg version="1.1" id="Calque_1" xmlns="http://www.w3.org/2000/svg" xmlns:xlink="http://www.w3.org/1999/xlink" x="0px" y="0px"
	 viewBox="-194 -49.4 360 598.4" style="enable-background:new -194 -49.4 360 598.4;" xml:space="preserve">
<style type="text/css">
	.st0{fill:#F4A300;}
	.st1{fill:#008A90;}
</style>
<g>
	<g>
		<path d="M-120.4,342.9c0.5-7.7,1-14.8-0.3-21.9c-0.3-1.4-1.2-2.6-1.9-3.9c-1.3-2.3-1.2-3.4,1.1-5.4c0.5-0.4,1-0.8,1.3-1.3
			c1.4-2.4,2.5-5,4.1-7.2c6.4-9.1,12.8-18.2,19.4-27.2c5.1-7,10.4-13.7,15.5-20.4c2.6,0.2,4.7,0.4,7.3,0.6c0.7-1.9,1.5-3.7,2-5.5
			c3.4-11.1,6.8-22.2,10.2-33.4c1.3-4.3,2.3-8.7,3.5-13c0.7-2.6,0-4.3-2.4-5.8c-3.1-1.9-6-4.1-8.9-6.4c-8.4-6.8-13.6-15.7-17.1-25.8
			c-3-8.6-4.7-17.3-4.6-26.4C-88,109.6-58.9,99-57.9,98.7c15.5-5.2,31.3-7.5,47.6-4.1c4,0.8,4.7,1.9,4.4,6.4c-0.8,0-1.6,0.1-2.3-0.1
			c-9.4-2.7-18.8-4-28.5-1.6c-1.6,0.4-3.3,0.7-4.9,0.8c-21.2,1.4-40.6,14-44.2,36.9c-3.1,20.2,1.7,33.4,15.9,48.4
			c4.6,4.9,11,8.1,16,12.6c8.9,8.1,19.9,11.1,31.1,13.7c15.4,3.6,31,3.5,46.6,1.7c7.3-0.8,13.6-3.8,19.7-7.8
			c10.5-6.8,18.4-15.8,23.2-27.3c2.1-5.1,4.3-10.3,4.9-15.7c0.6-5.1-0.3-10.6-1.6-15.7c-7-20-30.3-42.2-51.7-43.4
			c-4.9-0.3-4.9-0.2-8.8-3.2c2.4-0.6,4.2-1.3,6-1.4c13.7-0.9,29.8,7.3,40.7,17.6c10.9,10.3,17.1,26.1,18.7,33.3
			c3.3,15-2.1,27.8-9.2,40.2c-3.8,6.7-8.8,12.6-15.2,16.9c-4.5,3-5.7,7.3-5,12c1.3,8.2,3.2,16.3,4.8,24.4c0.1,0.5,0.5,0.9,0.5,1.4
			c0.2,5,3.4,6.3,7.7,6.2c3.6-0.1,7.3,0,10.9-0.5c5.3-0.8,7.2-0.1,10.2,4.4c5.9,8.6,12.1,17.1,18,25.7c4.2,6.2,8,12.6,12.1,18.9
			c1.4,2.2,3.3,4,5.2,6.3c-0.9,12.8,0.3,26,1.4,39.6c1.3,0.1,2.5,0.4,3.8,0.3c11.6-0.6,23.2-1.3,34.9-1.9c4-0.2,1-0.2,5-0.1
			c3.4,0.1,3.9,0.8,4,4.3c0,0.8,0,1.7,0.1,2.5c0,0.6,0.2,1.3,0.3,2.1c-3.3,1.7-2.9,1.3-6.2,1.3c-11,0.2-18.9,0.2-29.9,0.3
			c-3.6,0-7.2,0.1-11.3,0.1c-0.1,2.7-0.3,4.8-0.1,6.9c1.6,17.9,3.3,35.7,4.9,53.6c0.3,3.1,0.5,6.3,0.4,9.5
			c-0.1,3.6-79.1,7.8-93.9,7.7c-25.9-0.3-138.4-0.8-142.5-0.7c-0.9,0-2.5-0.8-2.7-1.5c-0.7-2.7-3.2-5.4-0.6-8.4
			c0.4-0.5,0.4-1.6,0.3-2.3c-2.1-15.8-2.8-31.8-2.7-47.7c0-6.6-0.2-13.2-0.3-19.9c-4.7,0.2-9.6,0.6-14.5,0.7
			c-10.1,0.2-20.2,0.2-30.3,0.3c-3.5,0-13.2-0.3-14.4-0.6l-0.2-8.6c6-0.2,13-0.3,19-0.2c7,0.1,13.9,0.7,20.9,0.7
			C-133.1,343.7-126.8,343.1-120.4,342.9z M16.8,365.6c1.7-1.4,3.2-2.7,4.8-3.8c13.2-9.2,26.5-18.3,39.6-27.6
			c3.6-2.5,6.2-2.9,9.4-0.1c3.7,3.3,7.2,7,9.9,11.1c3.8,5.6,7.7,10.7,14.4,13.2c2.6,0.9,4.7,3.1,7.2,4.4c2.2,1.2,4.3,3,7.3,3.2
			c-1.2-18.6-2.3-36.9-4.3-55.1c-2.7,0.8-4.7,1.9-6.6,1.9c-13.8-0.1-27.6-0.5-41.3-0.5c-8.1,0-16.3,0.5-24.4,0.8
			c-2.3,0.1-4.5,0.4-7.1,0.7c0.3,5.1,0.3,9.7,1,14.3c0.8,4.9-1.4,7.2-5.7,8.6c-5.5,1.7-11.3,2.7-17.1,3.3
			c-7.3,0.8-14.6,1.2-21.9,1.4c-5.6,0.1-8.6-0.9-9.1-7.8c-0.3-4.3-0.2-8.6-0.3-12.9c-0.1-1.6-0.4-3.1-0.8-5.4
			c-28.6,2.9-56.8,3.3-85.1,2.7c-0.6,0-1.3,0.3-1.8,0.4c-1.2,5.2,0.2,30.5,1.9,35.3c1.8-0.6,3.7-1.1,5.6-1.7
			c12.1-3.6,24.2-7.1,36.3-10.9c4.7-1.5,7-0.6,8.8,3.9c2.2,5.3,4.8,10.5,7,15.3c3-2.5,5.5-4.9,8.3-6.9c2.9-2.1,5.1-4.6,5.7-7.9
			c4.2-1.8,7.9-2.6,11.2,1c0.5,0.6,1.5,0.8,2.3,1c10.3,1.8,19.2,7.4,28.8,11.1C6.1,360.6,11.5,363.2,16.8,365.6z M-32,276
			c0.6-5,1.2-9.5,1.6-13.9c0.3-3.1-0.6-3.8-3.7-3.6c-4.6,0.3-9.3,0.4-13.9,0.7c-9.6,0.6-19.2,1.2-28.8,1.9c-1,0.1-2.4,0.6-3,1.4
			c-4.6,5.5-9.3,10.9-13.5,16.7c-6.3,8.7-12.3,17.7-18.3,26.6c-1.3,2-2.5,4-4,6.2c11.8,1.9,79.2-0.2,87-2.7c-0.4-3.9-0.9-8-1.3-12.5
			c-3.2,0.3-5.8,0.6-8.4,0.8c-3.3,0.2-4.4-0.4-5.2-3.4c-1-4-1.8-8.1-2.4-12.2c-0.4-3.4,1-4.5,4.7-4.7C-38.3,276.8-35.3,276.3-32,276
			z M103.6,304.5c-3.2-4.7-6.1-9.8-9.8-14.2c-5.6-6.6-10.2-13.9-14.5-21.4c-2.1-3.7-4.7-7.2-7.2-10.7c-0.6-0.8-1.9-1.4-2.9-1.5
			c-3.5-0.4-6.9-0.7-10.4-0.7c-8.8,0-17.6,0-26.4,0.2c-2.2,0-4.3,0.4-6.4,0.6c-1.7,0.2-2.8,1.3-2.8,3c0.1,4.9,0.4,9.8,0.6,13.8
			c2.5,1.5,5,2.2,6.1,3.8c1.7,2.3,2.9,5.2,3.7,8.1c1.3,4.1-0.3,6.3-4.6,7.1c-1.6,0.3-3.2,0.4-5.3,0.6c0.4,4.9,0.8,9.4,1.3,14.1
			c2.6,0.1,4.7,0.2,6.9,0.1c15.3-0.1,30.6-0.2,45.9-0.4C86.2,306.9,94.9,308.3,103.6,304.5z M-114.5,359.6
			c-0.3,4.7,0.7,9.1,2.2,13.3c5.4,14.5,11,28.9,16.5,43.3c1.4,3.7,1.4,3.6,5.4,3.6c7.5-0.1,15,0,22.4-0.2c2.2-0.1,4.6,0.7,7-1.1
			c-2.2-2.8-4.1-5.5-6.4-7.9c-5.2-5.3-10.6-10.5-16-15.7c-2.6-2.5-3.8-4.6-2.4-8.6c3.8-10.4,7.9-20.8,10.1-31.8
			c0.2-1.1,0.8-2.2,1.1-3.3c0.3-1,0.4-2.1,0.7-3.5C-87.6,351.6-100.8,355.5-114.5,359.6z M-63.7,255.8c11.5-1.1,22.1-2,33.5-3.1
			c0.1-4.9,0.2-9.3,0.3-13.7c1.8-0.1,3-0.3,4.1-0.3c10.3,0.2,20.6,0.6,30.8,0.7c4.2,0,8.4-0.4,13.8-0.8c0.8,1.2,2.1,3.3,3.4,5.4
			c2.8-3.4,10-16.5,10.3-18.4c-28.7,2-56.7-1.8-84.6-10.8C-55.8,228.1-59.6,241.4-63.7,255.8z M82.6,363.4c-0.4-0.1-0.9-0.3-1.3-0.4
			c-15.1,20.2-31.9,38.9-48.5,58.5c6.1-0.2,11.9-0.4,17.7-0.7c2.4-0.1,5,0.2,6-3.1c0.3-0.9,2.1-1.4,3.3-2c9.4-5,18.1-11,26.2-17.6
			c-0.2-6.1-0.1-11.9-0.7-17.7C84.7,374.7,83.5,369,82.6,363.4z M-42,420.3c2.4-3.9,1.5-7.1,0.1-10.2c-5.3-11.8-10.6-23.6-15.9-35.4
			c-1.3-2.9-2.5-5.8-3.7-8.7c-2.2-5.5-4.3-11-6.5-16.4c-0.3,0-0.7,0-1,0c-3.9,13.2-7.9,26.5-11.8,39.7c4.4,4.1,8.7,8.1,13,12.3
			c3,2.9,6.1,5.7,8.7,8.9c2.6,3.4,7.8,3.7,9.2,8.4c0.2,0.7,1.9,1.1,3,1.3C-45.3,420.4-43.6,420.3-42,420.3z M9.6,245.3
			c-12.2-0.3-23.7-0.5-35.8-0.8c0.1,3.5,0.3,6.6,0.4,9.7c0.1,3.3,0.6,6.7,0.1,9.9c-1.3,8.2-0.2,16.2,0.6,24.3c0.1,0.6,0.4,1.2,0.7,2
			c3.4,0.1,6.7,0.3,10,0.1c1.1-0.1,2.6-0.8,3.2-1.8c2.3-3.6,4.6-7.3,6.4-11.2C0,267.2,4.5,256.7,9.6,245.3z M72,418.9
			c1.4,0.3,1.9,0.6,2.4,0.5c9.2-1.2,18.4-2.8,27.8-2.4c1.3,0.1,2.6-0.3,3.9-0.8c5.8-2,9.1-1.3,7.1-10.1c-0.1-0.6-0.1-1.3-0.1-2
			c-0.7-7.9-1.4-15.9-2.3-23.8c-0.1-1.3-0.3-2.9-1.1-3.7c-5.2-5.1-10.4-10.2-17.7-13.1c0.1,1.6,0.2,2.9,0.3,4.2c1,9.4,2,18.8,3,28.3
			c0.4,4-1,6.9-4.5,9.1c-4.9,3-9.6,6.5-14.3,9.9C75,415.9,73.9,417.2,72,418.9z M25.8,381.5c-9.8-4.6-19.5-9.1-29.2-13.8
			c-9.6-4.7-18.3-11-28.5-14.9c-1,6.8,4.1,27.7,8.1,34.3c9.9-0.4,19.9-0.7,29.9-1.1c4-0.1,8-0.4,11.9-0.3
			C21.5,385.8,24.1,384.5,25.8,381.5z M50.3,392.5c-6.5-1.9-65.7-1-71.7,1c1.7,1.3,3.2,2.6,4.9,3.5c3.4,1.8,7,3,10.3,4.9
			c6.9,3.9,13.6,8.1,21.2,12.6c7.7-3.9,15.6-8.4,23.9-11.9C44.1,400.3,47,396.5,50.3,392.5z M12.6,421c-1.7-1.6-2.8-2.8-4.1-3.6
			c-3.6-2.3-7.4-4.4-11.1-6.5c-1.6-0.9-3.1-1.8-4.7-2.7c-5.8-3.1-11.7-6.2-17.6-9.3c-1.3-0.7-2.6-1.3-4.1-2.1
			c-3.6,7.7-3.6,15.8-5.6,23.6C-28.1,421.9,5.8,422.5,12.6,421z M54.3,374.2c3.3-9.9,4.9-19.8,6.2-31C46.9,351.1,35.3,359.7,24,369
			C32.5,375.8,38,375.4,54.3,374.2z M-22.2,333.7c9.7,0.3,29,0.6,34.7-3.5c-0.5-0.8-1-1.7-1.6-2.4c-3.2-4-6.2-8.1-9.6-11.9
			c-0.8-0.9-2.6-1.3-3.9-1.3c-3.6,0-7.3,0.3-10.9,0.5c-2.9,0.2-5.9,0.4-8.8,0.6c-0.1,3.4-0.2,6.3-0.2,9.3
			C-22.5,327.9-22.3,330.8-22.2,333.7z M-36.8,401.2c2.2-3,1.8-6.2,2.5-8.9c1-3.7,1.1-7.2-0.5-10.7c-0.3-0.7-0.5-1.6-0.5-2.4
			c-0.2-5.8-1.5-11.4-4-16.7c-0.9-2-1.3-4.3-2.1-6.8c-1,0.6-1.6,0.8-2,1.2c-1.7,1.6-3.3,3.3-4.9,4.9c-3.9,4-4.4,3.1-1.6,9.3
			c2.8,6,5.5,12.1,8.1,18.1C-40.1,393-38.6,396.8-36.8,401.2z M37.2,384.5c5.1,1.7,10.4,1.1,15.7,1.1c2.8,0,4.9-1.4,6.6-3.7
			c4.4-5.8,9-11.5,13.5-17.2c1.7-2.2,3.5-4.3,5-6.3c-3.4-5.6-6.6-10.8-10.2-16.7c-0.6,2.5-1,4.1-1.2,5.7c-1.3,9.2-2.8,18.3-5.8,27.2
			c-1.3,3.8-5,6.9-9,6.9c-3.6,0-7.3-0.2-10.9-0.5C38.6,381,37.1,381.7,37.2,384.5z M-4.5,295.4c3.6,4.5,6.5,8.3,9.5,11.9
			c0.6,0.7,1.7,1.1,2.6,1.1c2.3,0.1,4.7,0.1,6.9-0.2c0.9-0.1,2.3-1.4,2.2-2c-0.3-4.2,0.9-8.6-1.8-13C8.9,293.8,2.7,294.5-4.5,295.4z
			 M-12.1,296.2c-3.4-0.1-6.3-0.2-9.3-0.2c-1.8,0-2.9,0.9-2.9,2.6c0,3.6,0.3,7.1,0.4,10.5c6.2,1.1,16.4,0.5,20.4-1.2
			C-6.4,304-9.2,300.2-12.1,296.2z M45.1,250.7c0.3-6.5-2.3-18.7-4.7-22.6c-1.9,3.8-3.5,7.6-5.4,11.2c-1.9,3.7-5.1,6.7-5.8,11.1
			C34.7,250.5,39.7,250.6,45.1,250.7z M0.6,278.6c-2.1,3.8-4,7.2-6.2,11.1c7-0.7,13.5-1.4,20.1-2.1c0.5-3.2,1.1-5.9-0.4-9.1
			C9.7,282.9,5.4,283.4,0.6,278.6z M-112.5,398c-0.3,0.1-0.7,0.2-1,0.3c0.5,7,1.1,14.1,1.6,21.1c2.8,0.1,5.1,0.1,7.9,0.2
			C-107,412-109.8,405-112.5,398z M-39.1,291.3c2.8-0.1,5.4-0.2,8.7-0.3c-0.2-3.3-0.4-6.1-0.6-9.4c-3.8,0.4-7,0.8-10.8,1.2
			C-40.8,285.8-40,288.4-39.1,291.3z M5.6,267c0.4,0.2,0.7,0.4,1.1,0.6c2.2-5.6,8.8-9.4,6-17.1C10.3,256,8,261.5,5.6,267z M17,314.2
			c-2.1,0.2-3.4,0.3-5.3,0.5c1.8,2.9,3.3,5.2,4.7,7.5c0.4-0.1,0.7-0.2,1.1-0.3C17.4,319.6,17.2,317.2,17,314.2z M15.3,421.4
			c4.1-0.5,9.3,2.6,12.5-3.8C23.2,419,19.2,420.2,15.3,421.4z M23.6,287.2c2.3-0.7,3.5-1.1,5.4-1.6c-1.4-1.9-2.3-3.2-3.3-4.5
			c-0.3,0.1-0.7,0.2-1,0.4C24.4,283,24.1,284.5,23.6,287.2z"/>
		<path d="M8.3,162c0.8,0.2,2.2,0.4,3.4,0.9c3.8,1.6,5.5,3.8,4.4,6c-1.9,3.8-4.4,7.1-9.3,4.7c-0.7-0.4-1.5-0.7-2.2-1.1
			c-1.9-1.2-3.6-2.4-2.6-5.2C3.1,164.2,5.4,162,8.3,162z"/>
		<path d="M-20.2,160.4c0,4-1.6,6.1-4.4,5.9c-3.5-0.2-6.1-3-6.1-6.6c0-3.1,2.3-5.5,5.2-5.5C-22.9,154.3-20.2,157.4-20.2,160.4z"/>
	</g>
	<g>
		<path class="st0" d="M-114.5,359.6c-0.3,4.7,0.7,9.1,2.2,13.3c5.4,14.5,11,28.9,16.5,43.3c1.4,3.7,1.4,3.6,5.4,3.6
			c7.5-0.1,15,0,22.4-0.2c2.2-0.1,4.6,0.7,7-1.1c-2.2-2.8-4.1-5.5-6.4-7.9c-5.2-5.3-10.6-10.5-16-15.7c-2.6-2.5-3.8-4.6-2.4-8.6
			c3.8-10.4,7.9-20.8,10.1-31.8c0.2-1.1,0.8-2.2,1.1-3.3c0.3-1,0.4-2.1,0.7-3.5C-87.6,351.6-100.8,355.5-114.5,359.6z"/>
		<path class="st0" d="M82.6,363.4c-0.4-0.1-0.9-0.3-1.3-0.4c-15.1,20.2-31.9,38.9-48.5,58.5c6.1-0.2,11.9-0.4,17.7-0.7
			c2.4-0.1,5,0.2,6-3.1c0.3-0.9,2.1-1.4,3.3-2c9.4-5,18.1-11,26.2-17.6c-0.2-6.1-0.1-11.9-0.7-17.7C84.7,374.7,83.5,369,82.6,363.4z
			"/>
		<path class="st0" d="M-42,420.3c2.4-3.9,1.5-7.1,0.1-10.2c-5.3-11.8-10.6-23.6-15.9-35.4c-1.3-2.9-2.5-5.8-3.7-8.7
			c-2.2-5.5-4.3-11-6.5-16.4c-0.3,0-0.7,0-1,0c-3.9,13.2-7.9,26.5-11.8,39.7c4.4,4.1,8.7,8.1,13,12.3c3,2.9,6.1,5.7,8.7,8.9
			c2.6,3.4,7.8,3.7,9.2,8.4c0.2,0.7,1.9,1.1,3,1.3C-45.3,420.4-43.6,420.3-42,420.3z"/>
		<path class="st0" d="M9.6,245.3c-12.2-0.3-23.7-0.5-35.8-0.8c0.1,3.5,0.3,6.6,0.4,9.7c0.1,3.3,0.6,6.7,0.1,9.9
			c-1.3,8.2-0.2,16.2,0.6,24.3c0.1,0.6,0.4,1.2,0.7,2c3.4,0.1,6.7,0.3,10,0.1c1.1-0.1,2.6-0.8,3.2-1.8c2.3-3.6,4.6-7.3,6.4-11.2
			C0,267.2,4.5,256.7,9.6,245.3z"/>
		<path class="st0" d="M72,418.9c1.4,0.3,1.9,0.6,2.4,0.5c9.2-1.2,18.4-2.8,27.8-2.4c1.3,0.1,2.6-0.3,3.9-0.8
			c5.8-2,9.1-1.3,7.1-10.1c-0.1-0.6-0.1-1.3-0.1-2c-0.7-7.9-1.4-15.9-2.3-23.8c-0.1-1.3-0.3-2.9-1.1-3.7
			c-5.2-5.1-10.4-10.2-17.7-13.1c0.1,1.6,0.2,2.9,0.3,4.2c1,9.4,2,18.8,3,28.3c0.4,4-1,6.9-4.5,9.1c-4.9,3-9.6,6.5-14.3,9.9
			C75,415.9,73.9,417.2,72,418.9z"/>
		<path class="st0" d="M25.8,381.5c-9.8-4.6-19.5-9.1-29.2-13.8c-9.6-4.7-18.3-11-28.5-14.9c-1,6.8,4.1,27.7,8.1,34.3
			c9.9-0.4,19.9-0.7,29.9-1.1c4-0.1,8-0.4,11.9-0.3C21.5,385.8,24.1,384.5,25.8,381.5z"/>
		<path class="st0" d="M50.3,392.5c-6.5-1.9-65.7-1-71.7,1c1.7,1.3,3.2,2.6,4.9,3.5c3.4,1.8,7,3,10.3,4.9
			c6.9,3.9,13.6,8.1,21.2,12.6c7.7-3.9,15.6-8.4,23.9-11.9C44.1,400.3,47,396.5,50.3,392.5z"/>
		<path class="st0" d="M12.6,421c-1.7-1.6-2.8-2.8-4.1-3.6c-3.6-2.3-7.4-4.4-11.1-6.5c-1.6-0.9-3.1-1.8-4.7-2.7
			c-5.8-3.1-11.7-6.2-17.6-9.3c-1.3-0.7-2.6-1.3-4.1-2.1c-3.6,7.7-3.6,15.8-5.6,23.6C-28.1,421.9,5.8,422.5,12.6,421z"/>
		<path class="st0" d="M54.3,374.2c3.3-9.9,4.9-19.8,6.2-31C46.9,351.1,35.3,359.7,24,369C32.5,375.8,38,375.4,54.3,374.2z"/>
		<path class="st0" d="M-22.2,333.7c9.7,0.3,29,0.6,34.7-3.5c-0.5-0.8-1-1.7-1.6-2.4c-3.2-4-6.2-8.1-9.6-11.9
			c-0.8-0.9-2.6-1.3-3.9-1.3c-3.6,0-7.3,0.3-10.9,0.5c-2.9,0.2-5.9,0.4-8.8,0.6c-0.1,3.4-0.2,6.3-0.2,9.3
			C-22.5,327.9-22.3,330.8-22.2,333.7z"/>
		<path class="st0" d="M-36.8,401.2c2.2-3,1.8-6.2,2.5-8.9c1-3.7,1.1-7.2-0.5-10.7c-0.3-0.7-0.5-1.6-0.5-2.4
			c-0.2-5.8-1.5-11.4-4-16.7c-0.9-2-1.3-4.3-2.1-6.8c-1,0.6-1.6,0.8-2,1.2c-1.7,1.6-3.3,3.3-4.9,4.9c-3.9,4-4.4,3.1-1.6,9.3
			c2.8,6,5.5,12.1,8.1,18.1C-40.1,393-38.6,396.8-36.8,401.2z"/>
		<path class="st0" d="M37.2,384.5c5.1,1.7,10.4,1.1,15.7,1.1c2.8,0,4.9-1.4,6.6-3.7c4.4-5.8,9-11.5,13.5-17.2
			c1.7-2.2,3.5-4.3,5-6.3c-3.4-5.6-6.6-10.8-10.2-16.7c-0.6,2.5-1,4.1-1.2,5.7c-1.3,9.2-2.8,18.3-5.8,27.2c-1.3,3.8-5,6.9-9,6.9
			c-3.6,0-7.3-0.2-10.9-0.5C38.6,381,37.1,381.7,37.2,384.5z"/>
		<path class="st0" d="M-4.5,295.4c3.6,4.5,6.5,8.3,9.5,11.9c0.6,0.7,1.7,1.1,2.6,1.1c2.3,0.1,4.7,0.1,6.9-0.2
			c0.9-0.1,2.3-1.4,2.2-2c-0.3-4.2,0.9-8.6-1.8-13C8.9,293.8,2.7,294.5-4.5,295.4z"/>
		<path class="st0" d="M-12.1,296.2c-3.4-0.1-6.3-0.2-9.3-0.2c-1.8,0-2.9,0.9-2.9,2.6c0,3.6,0.3,7.1,0.4,10.5
			c6.2,1.1,16.4,0.5,20.4-1.2C-6.4,304-9.2,300.2-12.1,296.2z"/>
		<path class="st0" d="M0.6,278.6c-2.1,3.8-4,7.2-6.2,11.1c7-0.7,13.5-1.4,20.1-2.1c0.5-3.2,1.1-5.9-0.4-9.1
			C9.7,282.9,5.4,283.4,0.6,278.6z"/>
		<path class="st0" d="M5.6,267c0.4,0.2,0.7,0.4,1.1,0.6c2.2-5.6,8.8-9.4,6-17.1C10.3,256,8,261.5,5.6,267z"/>
		<path class="st0" d="M17,314.2c-2.1,0.2-3.4,0.3-5.3,0.5c1.8,2.9,3.3,5.2,4.7,7.5c0.4-0.1,0.7-0.2,1.1-0.3
			C17.4,319.6,17.2,317.2,17,314.2z"/>
	</g>
</g>
<g>
	<g>
		<g>
			<path class="st1" d="M26.4,29.5c-0.1-3.5,0.5-6.9,2-10.1c2.1-4.4,5.7-6.3,10.5-6.5c4.1-0.1,7,2.1,9.2,5.2
				c4.4,6.3,4,13.2,1.5,19.9c-1.7,4.6-5.7,7.3-10.5,8.1c-3.3,0.6-6.4-0.6-8.5-3.5C27.5,38.2,26.6,35.3,26.4,29.5z M36.9,17.3
				c-1,0.4-2.3,0.5-2.9,1.2c-1.3,1.5-2.5,3.2-3.1,5.1c-1.2,3.8-0.9,7.8-0.3,11.6c0.6,3.6,3.3,5.3,6.9,4.5c3-0.7,5.1-2.3,6.7-5
				c2.5-4.1,2-8.1,0.1-12.1C42.8,19.4,40.6,17.5,36.9,17.3z"/>
			<path class="st1" d="M-21.1,46.7c-4.6,1.9-6.4,1.1-7.6-2.9c-0.7-2.3-1.4-4.5-2.1-6.7c0-0.1-0.2-0.2-0.2-0.2
				c-0.2-0.1-0.4-0.2-0.6-0.2c-8.4,0.2-9,0.6-11.8,8.4c-1,2.9-1.5,3-4,0.6c1.7-3.7,3.5-7.4,5.1-11.2c2.2-5.3,4.4-10.6,6.4-15.9
				c1.1-2.7,6-4,8.2-2c0.3,0.3,0.5,0.8,0.5,1.2c0,4.9,2.2,9.3,3.2,14C-23,36.7-22.1,41.6-21.1,46.7z M-33.5,23.7
				c-1.9,2.9-3.7,5.7-3.9,9.3c2,0,3.8,0,6,0C-32.1,29.7-32.8,26.7-33.5,23.7z"/>
			<path class="st1" d="M111.7,23.3c-0.4-5.1-0.8-10.3-1.2-15.4c-0.2-2.8,1.5-4.6,4.3-4.5c1.6,0.1,3.1,0,4.7,0.1
				c2.9,0.2,3.6,1.2,3,4.1c-0.3,1.3-0.3,2.7-0.3,4c0.1,6.2,0.2,12.3,0.3,18.5c0,1.9-0.7,3.3-2.6,3.8c-1.6,0.5-3.2,1-4.9,1.3
				c-2.4,0.5-3.3-0.3-3.4-2.8c-0.1-3,0-6.1,0-9.1C111.6,23.3,111.7,23.3,111.7,23.3z"/>
			<path class="st1" d="M-6.6,16.1c2.8,0.1,4,1,4.6,2.8c0.2,0.7,0.5,1.5,1,2.1c3.4,4.6,5.1,9.9,7.2,15.2c0.4,1.1,1.1,2.2,1.9,3.8
				c4-8.8,8.8-16.7,10.8-26.2c1.7,0,3.5-0.1,5.4,0c1.6,0.1,2.3,1.6,1.6,3.3c-0.9,2.3-2.1,4.5-3.1,6.7c-2.3,4.7-4.6,9.5-6.9,14.2
				c-1.2,2.4-2.6,4.7-4,7c-1.4,2.2-4.4,2-5.7-0.3C5.5,43.6,5,42.3,4.5,41c-3-7.2-5.5-14.7-10-21.3C-6.3,18.9-6.3,17.6-6.6,16.1z"/>
			<path class="st1" d="M91.6,30.9c0.2,2.9,0.3,5.3,0.5,7.9c3.5-0.2,6.7-0.4,9.9-0.5c2.5,0,2.8,0.4,3.3,3.3
				c-2.2,0.2-4.4,0.3-6.6,0.6c-3.3,0.4-6.6,0.9-9.9,1.6c-2.5,0.5-4-0.3-3.8-2.6c0.8-8.3,0.3-16.6,0.1-24.9c0-0.5,0.1-1.1,0.2-1.5
				c0.3-0.2,0.5-0.5,0.7-0.5c4-0.2,8-0.3,12-0.5c0.6,0,1.2-0.1,1.6,0.2c0.6,0.5,1.4,1.1,1.5,1.8c0.2,1.1-0.7,1.5-1.7,1.6
				c-2.1,0.1-4.2,0.3-6.3,0.5c-0.5,0-1.1,0.3-1.9,0.5c0.1,2.7,0.3,5.3,0.4,8.4c1.5,0.2,2.8,0.3,4.2,0.6c1.5,0.3,3.7-0.6,4.2,1.8
				c0.3,1.3-1.6,1.9-4.4,1.7C94.4,30.9,93.1,30.9,91.6,30.9z"/>
			<path class="st1" d="M63.9,17.6c-1.7,0.1-3.2,0.5-4.8,0.4c-1.4-0.1-2.9-0.4-4.1-1c-0.6-0.3-0.9-1.5-0.9-2.2c0-0.4,1.1-1,1.8-1
				c6.7-0.1,13.4-0.1,20.2,0c0.8,0,1.7,0.1,2.3,0.5c0.6,0.4,1.4,1.4,1.4,2c-0.1,0.6-1.1,1.5-1.8,1.6c-1,0.2-2.2-0.2-3.3-0.3
				c-2.7-0.3-3.5,0.2-3.6,3c-0.3,6.6-0.4,13.2-0.4,19.8c0,2.6-0.5,3.2-4,3.3c-1.9,0.1-2.7-1-2.7-3.2C64,32.9,63.9,25.5,63.9,17.6z"
				/>
			<path class="st1" d="M117.4,50.6c-4.4-0.1-5.7-2.2-6-5.7c-0.2-3.4,2.7-5.8,6.5-5.7c3.9,0.1,6.5,2.7,6.3,6.3
				C124.2,48.3,121,50.6,117.4,50.6z"/>
			<path class="st1" d="M104.9-0.3c-1.7,1.1-3.1,1.8-4.3,2.7c-2.4,1.9-4.7,3.9-7,5.8c-1.3,1.1-2.8,1-3.9-0.1C88.4,6.8,89,5.7,90,4.6
				c2.9-3.2,5.7-6.4,8.5-9.5c1.3-1.4,2.5-1.6,3.6-0.1C103.3-3.6,105.9-2.7,104.9-0.3z"/>
		</g>
	</g>
	<path d="M-65.6,52.2c-2.1-2.8-4.1-5.7-5.4-9c-0.6-1.6-1-3.4-1.3-5.1c-0.5-2.7-0.9-5.4-1.1-8.1c-0.1-2.1,0.2-4.3,0.3-6.4
		c0.2-3.1,0.6-6.2,1.9-9.1c1.2-2.5,2.4-5,3.9-7.4c2.2-3.4,5-6.4,8-9.2c2-1.8,4.2-3.3,6.1-5.1c2.2-2.1,4.9-3.4,7.4-4.9
		c2.1-1.2,4.3-2.3,6.6-3.2c3.1-1.3,12.2-5.4,20.2-5.8c1.1-0.2,121.2-0.6,126.8,1c2.5,0.8,5.1,1.6,7.5,2.5c2.6,1,5.2,2,7.7,3.3
		c2.8,1.4,5.4,3.2,7.8,5.3c2.7,2.3,4.9,5,6.8,7.8c2,2.9,3.4,6.1,5.1,9.2c2.4,4.2,3.5,8.8,4.3,13.5c1,6.3,1.1,12.7-0.3,19
		c-0.5,2-1.3,4-1.8,6c-0.8,3.5-2.2,6.6-4,9.6c-2.2,3.8-5.2,6.8-8.6,9.5c-0.4,0.3-0.9,0.7-1.3,1c-1.3,0.7-2.5,1.5-3.8,2.1
		c-1.6,0.8-3.2,1.5-4.8,2.2c-1.5,0.5-1.8,0.8-1.7,2.4c0.5,4.9,0.9,9.8,1.4,14.7c0.1,1.5,0.3,3,0.7,4.4c0.3,1.2,0.4,1.6-0.8,2.5
		c-0.7,0.5-1.8,0.5-2.4-0.2c-1.6-1.9-3.1-3.8-4.7-5.7c-2.2-2.6-4.3-5.2-6.5-7.9c-0.8-1-1.6-2.1-2.5-3c-1-0.9-2-2.1-3.2-2.5
		c-1.4-0.5-121.9-0.9-123.6-0.8c-3.4,0.2-6.8-0.4-10.1-1.1c-3.2-0.7-6.2-1.8-9.3-2.8c-4-1.2-7.3-3.6-10.9-5.6
		c-2.5-1.4-4.8-3.3-7-5.1C-60.2,58.3-65.1,53-65.6,52.2z M118.7,82.3c-0.3-2.8-0.6-5.7-0.9-8.5c-0.1-0.6-0.1-1.3-0.3-1.9
		c-0.4-1.2-0.1-2.2,0.6-3.2c2.5,0.4,4.5-0.8,6.6-2c3.8-2,7-4.5,10-7.5c2-2.1,3.3-4.6,4.8-7c1.5-2.5,2.3-5.2,2.8-8
		c0.3-1.5,1-3,1.5-4.5c0.1-0.2,0.2-0.4,0.2-0.6c0.2-1.7,0.4-3.4,0.5-5.1c0.4-4.9,0-9.7-0.8-14.5c-0.5-3.1-1.3-6.1-2.8-8.9
		c-0.3-0.5-0.4-1.2-0.7-1.8c-1.2-2.4-2.2-5-3.7-7.1c-2-2.9-4-5.9-6.8-8.1c-1.5-1.2-3.1-2.4-4.6-3.6c-6.5-4.8-13.2-5.5-14.8-6
		c-3.3-1.2-6.9-1.3-10.4-1.3c-4.2-0.1-120.3,1-124.4,1.8c-3.1,0.6-6.1,1.3-9.1,2.3c-1.2,0.4-2.4,0.9-3.5,1.4
		c-1.3,0.5-2.5,1.1-3.8,1.7c-1.8,0.9-3.5,2.1-5.4,3c-2.1,1-3.8,2.4-5.5,3.7c-1.2,0.9-2.3,2.1-3.3,3.3c-1.7,2-3.4,4-5,6
		c-1.8,2.4-3.1,5-4.3,7.7c-1,2.4-1.9,4.8-2.3,7.3c-0.5,2.9-0.7,5.8-0.9,8.7c-0.2,2.4-0.3,4.7-0.2,7.1c0.1,1.5,0.7,2.9,1.3,4.3
		c1.7,3.6,3.4,7.2,6.2,10.1c2.5,2.5,4.8,5,7.5,7.3c1.6,1.4,3.6,2.3,5.4,3.4c1.6,1,3.3,2.1,5,3c1.3,0.7,2.6,1.4,4,1.9
		c3.3,1.2,6.7,2.3,10.2,2.8c2,0.3,4,0.7,6,1c1.2,0.2,2.4,0,3.7,0.1c1.1,0,114.2,0.1,115.3,0.1c0.7,0,1.3-0.2,2-0.1
		c0.7,0,1.4,0.2,2.1,0.4c0.9,0.3,1.8,0.6,2.7,0.9c0.8,0.2,1.5,0.4,2.1,1.2c0.7,1.1,1.8,2.1,2.7,3.1c0.9,1,2,2,2.9,3.1
		c1.4,1.7,2.8,3.5,4.2,5.2c1.1,1.3,2.2,2.7,3.3,4c0.2,0,0.3-0.1,0.5-0.1C119,86.3,118.9,84.3,118.7,82.3z"/>
</g>
</svg>
