<?xml version="1.0" encoding="utf-8"?>
<!-- Generator: Adobe Illustrator 19.1.0, SVG Export Plug-In . SVG Version: 6.00 Build 0)  -->
<svg version="1.1" id="Calque_1" xmlns="http://www.w3.org/2000/svg" xmlns:xlink="http://www.w3.org/1999/xlink" x="0px" y="0px"
	 viewBox="0 0 360 598.4" style="enable-background:new 0 0 360 598.4;" xml:space="preserve">
<style type="text/css">
	.st0{fill:#F4A300;}
	.st1{fill:#C0C0C0;}
	.st2{fill:#008A90;}
	.st3{fill:#6DA3C3;}
	.st4{fill:none;stroke:#F8AD3B;stroke-width:3;stroke-miterlimit:10;}
	.st5{fill:#F8AD3B;}
	.st6{fill:none;}
	.st7{fill:#E2F7EF;}
	.st8{fill:#FFFFFF;}
</style>
<g>
	<path class="st0" d="M132.8,429.7c0-10.5,0-20.8,0-30.7c-24.7,0-48.9,0-73,0c-2.8,9.1-2.8,24.1-0.1,34.5
		C64.7,435.1,122.6,432.2,132.8,429.7z"/>
	<path class="st0" d="M233.7,396.7c1.8,10.4,0.2,21.5,0.8,33.2c-4.9,0.1-9.4,0.3-13.8,0.3c-12-0.1-24-0.3-35.9-0.5
		c-3.4-0.1-6.8-0.1-10.2-0.4c-3-0.2-4.3-1.3-4.5-4.1c-0.7-9.7-1.3-19.4-2-29.1c0-0.4,0.3-0.9,0.4-1.5c16.7-0.2,33.3-0.4,50-0.5
		c1.4,0,2.9,0.3,4.3,0.6C226.3,395.4,229.7,396,233.7,396.7z"/>
	<path class="st0" d="M267.2,430c22.5,0.4,44.4,2.3,66.5,1c-0.2-12.7-0.4-24.9-2.7-37.2c-6.4-0.3-12.4-0.6-18.3-0.8
		c-12.5-0.3-24.9-0.5-37.4-0.7c-1.8,0-3.6,0-5.3,0.2c-1.9,0.2-2.9,1.1-2.8,3.2c0.1,2.6-0.1,5.2-0.1,7.8
		C267.2,411.9,267.2,420.5,267.2,430z"/>
	<path class="st0" d="M260.8,456.7c-9.3,0.3-18.4,0.7-27.6,0.8c-9.3,0.1-18.6,0-28.5,0c-0.1,4.1-0.2,7.8-0.2,11.5
		c0,4.4,0.1,8.7,0.2,13.1c0,1.1,0,2.3,0.2,3.4c0.7,4,1.8,5.1,6,5.6c3.7,0.4,7.4,0.7,11.1,0.8c10,0.3,20.1,0.5,30.1,0.6
		c2.8,0,5.7-0.3,8.4-0.5c0.3-6.3,0.4-11.9,0.8-17.5C261.8,468.7,262.5,462.9,260.8,456.7z"/>
	<path class="st0" d="M153,462.6c-10.6,0.2-20.9,0.6-31.2,0.5c-10.3,0-20.6-1.7-30.9-1.1c0.2,11.8,0.3,23.1,0.5,34.1
		c7.7,2.8,56.6,1.8,62.4-1.1C150.5,484.6,153.9,473.9,153,462.6z"/>
	<g>
		<path d="M155.5,456.3c5.8,1.8,5.9,6.1,5.9,11.1c0,7.6,1,15.2,0.9,22.8c-0.1,4.4-1.5,8.8-2.3,13.7c-5,0.6-9.4,1.6-13.8,1.6
			c-13.1,0.2-26.2,0.1-39.3,0c-4.7,0-9.4-0.5-14-0.7c-2.2-0.1-3.1-1.2-4-3.4c-2.1-5.2-1.7-10.4-1.6-15.7c0.2-7.1-0.3-14.2-0.5-21.3
			c-0.1-2.8-1.2-5.8,1.1-8c11.6,0.7,22.9,2,34.2,1.9C133.3,458.1,144.6,458.5,155.5,456.3z M153,462.6c-10.6,0.2-20.9,0.6-31.2,0.5
			c-10.3,0-20.6-1.7-30.9-1.1c0.2,11.8,0.3,23.1,0.5,34.1c7.7,2.8,56.6,1.8,62.4-1.1C150.5,484.6,153.9,473.9,153,462.6z"/>
		<path d="M143,431.8c-3,2.8-5.7,4.9-9.8,5.2c-15.5,1.2-30.9,2.8-46.4,4c-6.1,0.5-12.3,0.2-18.4,0.4c-3.5,0.1-7,0.6-10.9,0.9
			c-0.5-1.9-1.3-3.4-1.4-4.9c-0.6-8.2-1.3-16.5-1.5-24.7c-0.2-4.7,0.2-9.4,0.7-14c0.2-1.6,1.4-3.2,2.3-5c2.6,0.2,5.2,0.4,7.7,0.6
			c14.7,1,29.4,1.4,44.2,0.4c7.8-0.5,15.6-0.7,23.3-0.9c5.4-0.2,7.2,1.6,7.4,7c0.2,7.4,0.3,14.9,0.4,22.3
			C140.4,426.1,140.1,429.4,143,431.8z M132.8,429.7c0-10.5,0-20.8,0-30.7c-24.7,0-48.9,0-73,0c-2.8,9.1-2.8,24.1-0.1,34.5
			C64.7,435.1,122.6,432.2,132.8,429.7z"/>
		<path d="M338.8,389.6c1.3,10.1,2.6,19.4,3.7,28.7c0.3,2.4-0.1,4.8-0.3,7.2c-0.1,1.1-0.6,2.4-0.2,3.3c1.6,3.7-1.1,5.8-2.8,8.1
			c-0.5,0.7-2,0.9-3,1c-5.5,0.1-11,0.2-16.5,0.2c-16.7,0-33.3-0.1-49.9-1.5c-5.6-0.5-7.1-2.1-7-7.5c0.2-8.9,0.5-17.8,0.7-26.7
			c0.1-2.9,0-5.8-0.3-8.7c-0.4-4.2,1.8-6.8,6.1-6.6c7.1,0.4,14.2,1.1,21.3,1.4c4,0.2,8-0.1,12-0.2c2.7-0.1,5.5-0.3,8.2-0.2
			c7.4,0.5,14.8,1.1,22.2,0.2C334.9,388.1,337,389.2,338.8,389.6z M267.2,430c22.5,0.4,44.4,2.3,66.5,1c-0.2-12.7-0.4-24.9-2.7-37.2
			c-6.4-0.3-12.4-0.6-18.3-0.8c-12.5-0.3-24.9-0.5-37.4-0.7c-1.8,0-3.6,0-5.3,0.2c-1.9,0.2-2.9,1.1-2.8,3.2c0.1,2.6-0.1,5.2-0.1,7.8
			C267.2,411.9,267.2,420.5,267.2,430z"/>
		<path d="M204.1,451.4c9.7,1.3,19.3,1.8,29.1,1.1c8.5-0.6,17.1,0,25.7,0.1c1.1,0,2.2-0.2,3.3-0.6c4.2-1.5,6.1-0.4,6.4,3.9
			c0.3,3.9,0.5,7.8,0.5,11.6c0,6.8-0.1,13.6-0.4,20.4c-0.2,3.6-0.9,7.3-1.4,11.2c-15.8,0.2-31,0.5-46.2,0.4c-5,0-10-0.7-15-1.4
			c-1-0.1-2.6-1.2-2.8-2.2c-1.3-4.7-3.4-9.2-2.9-14.5c0.6-5.9,0.2-12,0.2-18C200.6,459.2,200.8,454.9,204.1,451.4z M260.8,456.7
			c-9.3,0.3-18.4,0.7-27.6,0.8c-9.3,0.1-18.6,0-28.5,0c-0.1,4.1-0.2,7.8-0.2,11.5c0,4.4,0.1,8.7,0.2,13.1c0,1.1,0,2.3,0.2,3.4
			c0.7,4,1.8,5.1,6,5.6c3.7,0.4,7.4,0.7,11.1,0.8c10,0.3,20.1,0.5,30.1,0.6c2.8,0,5.7-0.3,8.4-0.5c0.3-6.3,0.4-11.9,0.8-17.5
			C261.8,468.7,262.5,462.9,260.8,456.7z"/>
		<path d="M211.7,239.1c-0.1-2.9,1.3-4.7,3.5-4.8c2.5-0.1,5.2,2.4,5.2,4.8c0,1.8-2.6,4.2-4.5,4.3
			C213.6,243.4,211.8,241.5,211.7,239.1z"/>
		<path d="M179.4,231.4c2.1-0.1,4.4,2.2,4.4,4.3c0,2.3-2.5,4.8-4.6,4.8c-2,0-4-2.3-3.9-4.7C175.3,233.3,177,231.5,179.4,231.4z"/>
		<path d="M212.4,412.5c-5.1,3.3-5.1,3.3-9.5-0.2c-1.1,0.5-2.4,1.1-3.7,1.7c-1.9-1.3-3.3-3.2-1.9-4.8c1.2-1.3,3.7-1.7,5.7-1.8
			c1.3-0.1,2.7,0.9,4,1.4c4.7-2.8,5-2.7,11.1,3.5c0.9-1,1.7-2.2,2.8-3c0.7-0.5,2-0.8,2.6-0.5c0.6,0.3,1.1,1.6,1.1,2.4
			c-0.1,1-0.6,2.3-1.3,3c-1.6,1.6-3.4,2.9-5.5,4.7C215.9,416.4,214.1,414.5,212.4,412.5z"/>
		<path d="M188.9,408.2c1.2,4.7,0.8,5.5-2.9,5.2c-1.3-0.1-2.6-0.3-3.8-0.5c-1.7-0.4-2.4-1.6-2.1-3.3c0.3-1.5,1.3-2.1,2.9-1.9
			c1,0.2,1.9,0.4,2.9,0.5C186.7,408.3,187.7,408.2,188.9,408.2z"/>
		<path d="M129.5,484.3c-4.8-3.5-5.4-4.4-10.2,0.8c-1.5-2.1-3.1-4.1-4.4-6.2c-0.3-0.5-0.3-1.7,0.1-2.1c0.4-0.4,1.7-0.7,2-0.4
			c1.6,1.6,3.1,1.3,4.7,0.2c0.2-0.2,0.6-0.2,0.9-0.2c4.5,0.5,9.1,0.7,13.6,1.7c2.2,0.5,3.4-0.2,4.8-1.3c1.4-1.1,3.1-1.3,3.7,0.1
			c0.5,1.2,0,3.9-0.7,4.2c-2.9,1.3-5.5,5.1-9.4,1.3C132.7,480.6,131.3,483.4,129.5,484.3z"/>
		<path d="M103.6,484.3c-1.4-1.5-2.8-2.8-3.8-4.4c-0.5-0.8-0.4-1.9-0.6-2.9c1,0,2,0,3,0.1c0.6,0.1,1.1,0.6,1.8,1c1-0.5,2-1.3,3-1.5
			c1.1-0.1,2.7,0.1,3.2,0.8c0.9,1.2,0.5,2.8-1,3.7C107.6,482.1,105.9,483,103.6,484.3z"/>
		<path d="M118.7,421.9c-1.5-1.9-2.5-3.1-3.5-4.3c-0.9,0.8-1.7,1.6-2.8,2.7c-1.3-1.2-2.4-2.2-3.7-3.5c-1.1,1.3-2,2.5-3.4,4.3
			c-2.2-2.6-4.2-4.9-6.1-7.4c-0.3-0.4,0.2-1.4,0.4-2.5c1.8,0.6,3.3,1,5.2,1.6c1.6-1.1,3.3-3.1,6.1-1.5c0.7,0.4,2.3-0.6,3.8-1.1
			c1,0.8,2.2,1.7,3.7,2.9c0.5-0.8,0.8-1.6,1.5-2c0.9-0.5,2.6-1.2,2.8-0.9c0.7,1.1,1.7,2.8,1.3,3.7
			C122.6,416.5,120.7,418.9,118.7,421.9z"/>
		<path d="M86.6,423.1c-1.8-2.2-3.4-4.1-5.4-6.5c-2.2,2.6-4.2,4.9-6.3,7.5c-2.6-2.3-3.1-5.9-6.2-7.1c-0.4-0.1-0.6-2.4-0.1-2.9
			c0.7-0.7,2.4-1.2,3.3-0.9c1.2,0.5,2.1,1.8,3.1,2.8c6.3-6.1,6.3-6.1,10.9-0.5c1-0.9,1.9-2,3.1-2.7c1-0.5,2.3-0.4,3.4-0.6
			c0.1,1.2,0.6,2.8,0.1,3.6C90.9,418.3,88.8,420.5,86.6,423.1z"/>
		<path d="M302.8,417.6c-1.5-0.5-3.2-0.6-4.2-1.5c-3.1-2.7-6.1-2-9.8-1.2c-4.7,1-9.1-1.2-13.5-3.9c2.2-2.5,4.5-2.5,6.6-1.9
			c3.1,1,6,1,9-0.1c2.3-0.9,4.7-1,6.7,1.3c1.5,1.8,3.1,1.6,5.1,0.2c5.3-3.5,7.2-3.3,12.3,1.1c1.3,1.2,2.5,1.3,3.8,0.1
			c0.7-0.7,1.2-1.6,2-2.1c0.7-0.5,2.1-1.1,2.5-0.8c0.8,0.6,1.6,1.8,1.4,2.7c-0.4,3.4-3.4,4.5-5.9,5.9c-2.1,1.2-3.6,0.2-5.1-1.3
			c-4.3-4.2-5.1-4.2-9.4,0C304,416.6,303.6,416.9,302.8,417.6z"/>
		<path d="M253.6,473.9c-1.3,0.6-2.5,0.8-3.4,1.5c-2.5,2.1-4.7,2.5-7.1-0.2c-1.3-1.6-3-1.2-4.4-0.2c-1.6,1.3-2.9,2.9-4.5,4.6
			c-0.2-0.1-0.8-0.3-1.3-0.7c-1.2-1.1-2.1-2.9-3.4-3.1c-1.2-0.2-2.6,1.5-4,2c-1,0.3-2.8,0.5-3.4-0.1c-1.8-1.9-3.5-2.2-6-1.5
			c-3,0.8-3.6-0.1-3.6-4.4c3.7-0.7,7.3-2.5,10.8,1.3c3.4-3.5,6.8-2.7,10.1-0.3c3.9-1.5,7.6-6.7,11.9-0.1c1.3-0.9,2.4-1.7,3.6-2.3
			c1.1-0.6,2.5-1.4,3.4-1.1c0.8,0.3,1,2,1.3,3.2C253.9,472.7,253.7,473.2,253.6,473.9z"/>
		<path d="M341,354.9c-10.2-0.3-20.4-0.6-30.7-0.8c-10.2-0.2-20.4-0.4-31.2-0.7c-2.8-6.8-5.6-13.5-8.4-20.2
			c-2.4-5.8-5-11.6-7.3-17.5c-5.1-12.8-10.1-25.6-15.2-38.4c-1.1-2.7-0.6-4.5,1.6-6.3c3.6-3,7-6.3,10.4-9.5c0.6-0.5,1.1-1.1,1.6-1.8
			c9.6-13.7,13.3-28.9,9.5-45.3c-2.4-10.4-8.2-19.3-15.5-27.2c-4.4-4.8-9.4-9-15.1-12.2c-4.2-2.4-8.7-4.1-13.7-3.8
			c-0.3,2.4,1.3,2.9,2.6,3.3c17.2,6.1,28.7,18.3,36.6,34.3c0.8,1.6,1.3,3.3,1.5,5.1c2.2,14.9,1,29.3-8.6,41.7
			c-8.7,11.1-19.9,18.9-33.5,23.2c-12.7,4-25.4,4.9-38.4,2.5c-8.2-1.5-16-4.3-23.2-8.5c-6.4-3.8-12.8-7.7-18.8-12.2
			c-8.2-6.2-15.1-13.6-16.5-24.3c-1.9-14.4-1.1-28.6,7.8-41c3.3-4.6,7-8.9,10.8-13.1c3.5-3.9,8.3-5.6,13.3-6.6c2-0.4,4-1,6.1-1.5
			c-1.8-3.4-3-4.2-5.7-3.3c-7.9,2.6-15.3,6-20.7,13c-4.2,5.5-8.9,10.7-11.8,17.2c-2.9,6.5-4.9,13.2-4.3,20.5
			c0.2,3.1,0.2,6.3,0.1,9.4c-0.4,8.6,2.9,15.7,8.2,22.3c4.8,5.9,10.7,10.4,16.8,14.7c1.8,1.3,3.5,2.7,5.8,4.4
			c-18.1,12.2-35.9,23.6-54.3,35c-1.3-5.3-2.6-9.9-3.5-14.6c-0.9-4.7-3.2-5.9-7.7-3.9c-0.4,0.2-0.9,0.3-1.5,0.5
			c-2.6-1.8-3.3-4.7-4.2-7.4c-1.4-4.3-1.4-4.3-6.1-4.1c-4.9,0.2-9.7,1.2-14.3,2.9c-7.3,2.7-14.7,4.8-22,7.4c-4.7,1.7-9.5,3.6-14,5.7
			c-0.7,0.3-1.9,0.9-2.3,1.8c-0.4,0.9,0.6,5.6,0.6,5.6c2,9.2,3.1,18.4,4.7,27.6c0.3,1.9,1.1,3.7,1.8,5.5c1.3,3.1,2.7,3.9,6.1,3.7
			c1.4-0.1,2.8-0.4,4.5-0.6c0.5,1.7,0.9,3.3,1.5,4.7c1.1,2.7,2.4,3.5,5.3,3.1c13.5-1.9,26.8-4.3,39.8-8.6c3.5-1.2,7-2.5,10.4-3.7
			c2.1-0.8,2.9-2,2.5-4.5c-0.6-4.3-0.6-8.7-1-13.1c-0.2-2.1,0.6-3.4,2.3-4.4c10.7-6.7,21.4-13.3,32.1-20.1c3.8-2.4,7.5-5,11.4-7.5
			c1.5-0.9,3.1-1.7,5-2.7c-6.5,25.1-12.9,49.6-19.5,74.9c-7.9,0-15.5-0.2-23.1,0c-18.6,0.5-37.3,1.2-55.9,1.7
			c-7.5,0.2-14.9,0.2-22.4,0.2c-0.7,0-16.2,0-16.7-0.1c0,0-0.5,12.5-0.4,11.2c7.5,0,29.4,0.1,36.3,0c8.9-0.2,17.8-0.5,26.7-0.7
			c1.3,0,2.6-0.2,3.9-0.1c5.7,0.3,15.1,0.2,20.8,0.1c14.4-0.2,28.8-0.5,43.3-0.8c17-0.3,34-0.7,51-1c10.7-0.2,21.4-0.2,32-0.2
			c0.3,0,0.5,0.4,1.3,0.9c-0.4,1.8-0.8,3.9-1.2,5.9c-1.8-0.1-3-0.1-3.9-0.2c-1.5,4.7-3.1,9-4.2,13.3c-0.7,2.7-2.1,3.7-4.7,3.8
			c-10.2,0.1-20.4,0.4-30.6,0.5c-5.8,0.1-11.5,0-18.1,0c-0.6,2.6-2.1,5.6-2,8.7c0.1,8.3,0.9,16.5,1.1,24.8c0.1,4.1,2,7.4,3.5,11
			c0.7,1.7,2.2,2,4,2c11.2-0.1,22.4,0.2,33.5,0.1c10.8-0.1,21.6-0.9,32.4-0.9c3.1,0,3.3-1.1,3.6-3.7c1.1-10.1-0.9-20-1.7-30
			c-0.7-8.4-1-8.3-5.6-14.7c1.1-1.7,2.3-3.6,3.5-5.5c1.9-3,1.1-5.6-2.3-6.9c-1.2-0.5-2.3-0.8-3.7-1.3c0.5-2.8,1-5.3,1.5-8
			c2.3-0.1,4.2-0.3,6.1-0.3c15.4-0.2,30.8-0.4,46.3-0.4c13.6,0,27.2,0.5,40.8,0.6c13,0.1,14.5,0,27.4,0c1.7,0,1.4,0.2,3.3,0.4
			l0-10.1C347.8,355.5,351.2,355.2,341,354.9z M39.2,324.5c-0.1,1.3,0,2.7-1.8,3c-1.6,0.2-2.4-0.8-2.7-2.2c-0.5-2.2-1-4.4-1.4-6.7
			c-1.1-6.4-2.1-12.7-3.1-19.3c5.6-4,11.6-6.2,17.7-8.2c6-2,12-4,17.9-6c1.4-0.5,2.7-1.1,4.1-1.3c1.7-0.2,3.5-0.1,5.9-0.1
			c0.9,2.5,1.6,4.7,2.4,6.9c-4,2.5-35,10.2-40.1,10.1c-2.1,1.8-1.9,4-1.4,6.6c1,5.1,1.6,10.2,2.4,15.3
			C39.3,323.2,39.3,323.8,39.2,324.5z M47.4,337.7c-1.7-10.8-3.3-21-4.9-31.5c16-3.8,31.8-7.6,47.8-11.5c0.4,1.3,0.7,2.2,0.9,3.1
			c1.2,7.8,1.1,7.8-6,10.7c-1.8,0.7-3.6,1.6-5.4,2c-1.8,0.5-2.5,1.6-2.4,3.2c0.3,2.6,0.7,5.1,1.4,7.6c0.6,2,2,3.2,4.5,2.7
			c3.3-0.7,6.6-1.3,10.5-2.1c0.2,1.5,0.3,3.3,0.5,5.4C78.4,330.9,63,334.3,47.4,337.7z M233.7,396.7c1.8,10.4,0.2,21.5,0.8,33.2
			c-4.9,0.1-9.4,0.3-13.8,0.3c-12-0.1-24-0.3-35.9-0.5c-3.4-0.1-6.8-0.1-10.2-0.4c-3-0.2-4.3-1.3-4.5-4.1c-0.7-9.7-1.3-19.4-2-29.1
			c0-0.4,0.3-0.9,0.4-1.5c16.7-0.2,33.3-0.4,50-0.5c1.4,0,2.9,0.3,4.3,0.6C226.3,395.4,229.7,396,233.7,396.7z M231.4,353.4
			c-1.8,0-3.4,0-5,0c-18,0.3-36,0.5-53.9,1c-10.2,0.2-20.4,0.8-30.6,1.2c-1.1,0-2.2-0.1-3.3-0.2c-0.7-5.6,13.2-60.4,17.7-69.9
			c27,13.5,55,11.2,83.9,4.6C238.3,311.5,233.8,332,231.4,353.4z M242.8,353.7c-1.9,0-3.8-0.3-6.1-0.5c0-2.5-0.3-4.9,0.1-7.2
			c1.6-10.1,3.5-20.1,5-30.2c1.3-8.5,2.2-17,3.2-25.5c0.2-1.5,0-3,2.4-3.3c8.8,21.7,17.6,43.5,26.6,65.9
			C262.9,353.2,252.9,353.5,242.8,353.7z"/>
	</g>
	<path class="st0" d="M39.2,324.5c-0.1,1.3,0,2.7-1.8,3c-1.6,0.2-2.4-0.8-2.7-2.2c-0.5-2.2-1-4.4-1.4-6.7
		c-1.1-6.4-2.1-12.7-3.1-19.3c5.6-4,11.6-6.2,17.7-8.2c6-2,12-4,17.9-6c1.4-0.5,2.7-1.1,4.1-1.3c1.7-0.2,3.5-0.1,5.9-0.1
		c0.9,2.5,1.6,4.7,2.4,6.9c-4,2.5-35,10.2-40.1,10.1c-2.1,1.8-1.9,4-1.4,6.6c1,5.1,1.6,10.2,2.4,15.3
		C39.3,323.2,39.3,323.8,39.2,324.5z"/>
	<path class="st0" d="M47.4,337.7c-1.7-10.8-3.3-21-4.9-31.5c16-3.8,31.8-7.6,47.8-11.5c0.4,1.3,0.7,2.2,0.9,3.1
		c1.2,7.8,1.1,7.8-6,10.7c-1.8,0.7-3.6,1.6-5.4,2c-1.8,0.5-2.5,1.6-2.4,3.2c0.3,2.6,0.7,5.1,1.4,7.6c0.6,2,2,3.2,4.5,2.7
		c3.3-0.7,6.6-1.3,10.5-2.1c0.2,1.5,0.3,3.3,0.5,5.4C78.4,330.9,63,334.3,47.4,337.7z"/>
</g>
</svg>
