<?xml version="1.0" encoding="utf-8"?>
<!-- Generator: Adobe Illustrator 19.1.0, SVG Export Plug-In . SVG Version: 6.00 Build 0)  -->
<svg version="1.1" id="Calque_1" xmlns="http://www.w3.org/2000/svg" xmlns:xlink="http://www.w3.org/1999/xlink" x="0px" y="0px"
	 viewBox="0 0 360 598.4" style="enable-background:new 0 0 360 598.4;" xml:space="preserve">
<style type="text/css">
	.st0{fill:#F4A300;}
	.st1{fill:#C0C0C0;}
	.st2{fill:#008A90;}
	.st3{fill:#6DA3C3;}
	.st4{fill:none;stroke:#F8AD3B;stroke-width:3;stroke-miterlimit:10;}
	.st5{fill:#F8AD3B;}
	.st6{fill:none;}
	.st7{fill:#E2F7EF;}
	.st8{fill:#FFFFFF;}
</style>
<g>
	<g>
		<path class="st0" d="M225.6,402.5c7-0.1,13.9,0,20.8,0c0.4,13.6,0.4,26.8,1.2,39.9c0.7,13.2,2.1,26.3,3.2,39.9
			c-2.8,0.2-5.6,0.5-8.4,0.6c-12.1,0.5-24.3,1.2-36.5,1.5c-11.1,0.3-22.2,0.1-33.3,0.2c-14.9,0.1-29.8,0.2-44.7,0.2
			c-0.6,0-1.2-0.1-2.1-0.1c-2.3-15-4-75.9-2.3-82c8.2-0.5,16.4-1.9,24.8-1.3c8.9,0.7,17.9,0.5,26.9,0.7c2.4,0,4.9,0,7.3,0.1
			c10,0.3,20,0.7,30.1,0.8C216.9,403.2,221.3,402.6,225.6,402.5z"/>
		<g>
			<path d="M252.3,357.7c-1.1-5.4-2.3-10.7-3.1-16c-1.3-9.2-2.1-18.4-3.4-27.6c-0.6-4.4-1.8-8.6-2.1-13c-0.2-3.2,0.6-6.6,0.8-9
				c5.8-4,11.4-7,16-11c6.4-5.7,11.9-12,14.4-21c3.5-12.4,3-24.3-0.1-36.4c-1.5-5.6-2.9-11.3-5.4-16.4c-4.6-9.5-11.8-17.1-20.7-22.6
				c-7.5-4.7-14.9-8.7-22.8-12.7c-6.4-3.3-13.6-4.3-20.6-5.6v4.1c1,0.5,4.9,0.9,7.4,1.3c8.2,1.4,15.6,4.4,22.6,8.9
				c5.9,3.7,12.1,7,17.5,11.3c9.1,7.2,16.1,16.1,18.3,28c1.1,6,2.6,11.9,3.1,17.9c1.5,18.7-5.2,33.5-21,44.2
				c-9.3,6.3-19.7,9.5-30.4,11.7c-11.4,2.2-22.9,3.2-34.5,2.9c-9.5-0.2-18.7-1.9-28-3.9c-15.6-3.3-29.8-9.7-42.9-18.6
				c-11.7-7.9-19.4-20.5-21.4-34.5c-0.7-4.8-1.1-10,0.1-14.5c2.9-10.7,7.4-20.6,17-27.7c8.7-6.4,18.2-10.5,28.1-13.6
				c6.1-1.9,12.6-3.3,19.3-2.5c0.8,0.1,1.6-0.4,2.6-0.6c-0.4-2.8-2.3-3.4-4.3-3.3c-2.7,0.1-5.5,0.4-8.2,0.9
				c-9.7,1.9-19.3,4.6-28.2,9c-7.7,3.8-14.9,8.6-20.1,15.5c-9.3,12.2-13,25.9-9.2,41.2c4.1,16.4,13.7,28.6,28.4,36.8
				c0.8,0.4,1.6,0.9,2.4,1.4c0.2,0.2,0.4,0.4,0.9,0.8c-0.3,4.9-2.2,9.6-3.7,14.3c-2.1,6.7-4.4,13.3-6.1,20.1
				c-2.3,9.1-4,18.4-6.2,27.6c-0.8,3.5-2.2,6.9-3.4,10.8c-2.8,0-5.3,0.2-7.8,0c-11.9-1.1-23.7-0.4-35.6,0
				c-8.7,0.3-37.5,0.3-46.2,0.5c-1.7,0-1.3-0.2-1.3-0.9v7.7c0,0,0.5,0,1,0c2.7,0.1,2.2,0,5-0.1c2.1,0,4.2-0.2,6.3-0.1
				c5.3,0.2,31.1,0.5,36.4,0.5c2.6,0,5.1-0.4,7.7-0.5c13.8-0.2,27.7-0.6,41.5-0.5c15.5,0.1,31,0.6,46.5,1
				c19.3,0.6,38.6,1.3,57.9,1.9c1.5,0,3,0,5.2,0c-1.5,5.6-2.7,10.5-4.2,15.4c-0.2,0.8-1.3,1.6-2.2,1.9c-1.5,0.5-2.1,1.4-2.6,2.8
				c-1.5,4.3-3.2,8.5-5,13.1c-1.6,0.1-3.3,0.2-4.9,0.2c-12.3-0.2-24.6-0.4-36.9-0.7c-8.7-0.2-17.3-0.6-26-0.7
				c-6.2-0.1-12.4,0.3-18.7,0.4c-1.9,0-2.8,0.8-2.8,2.7c-0.1,3.5-0.4,7-0.3,10.5c0.4,18.6,0.9,37.1,1.5,55.7
				c0.2,5.3,0.7,10.6,1.1,15.9c0.1,1.9,0.4,3.8,0.5,5.8c0.2,2.4,0.8,3,3.5,3.1c8,0.2,16.1,0.4,24.1,0.6c2.7,0.1,5.5,0.3,8.2,0.3
				c7.1,0,14.2-0.1,21.4-0.1c9.9,0,19.8,0.2,29.7,0c14.3-0.4,28.6-1.1,42.8-1.5c1.7-0.1,2.8-0.6,4-1.6c3.5-3.1,3.4-6.9,2.7-10.9
				c-1.9-10.9-3.1-22-3.2-33c-0.2-14.3-0.2-28.6-0.2-42.9c0-4.8-0.2-5-5.2-4.7c-6.5,0.4-13.1,0.7-19.6,0.9c-1.3,0.1-2.6-0.2-4.4-0.3
				c1.1-2.4,1.9-4.3,2.8-6.2c2.2-4.8,1.3-6-4.1-6.2c-0.2,0-0.5-0.3-1-0.8c0.9-6.4,1.7-13,4-19.2c1.2-0.1,2.1-0.3,3-0.3
				c12.5,0.2,24.9,0.2,37.4,0.6c15.5,0.5,31,1.2,46.5,1.8c8.4,0.3,32.1,0.6,40.4,1c1.2,0.1,3.4,0.3,3.4,0.5v-12
				C327.1,356.6,282.6,356.8,252.3,357.7z M225.6,402.5c7-0.1,13.9,0,20.8,0c0.4,13.6,0.4,26.8,1.2,39.9c0.7,13.2,2.1,26.3,3.2,39.9
				c-2.8,0.2-5.6,0.5-8.4,0.6c-12.1,0.5-24.3,1.2-36.5,1.5c-11.1,0.3-22.2,0.1-33.3,0.2c-14.9,0.1-29.8,0.2-44.7,0.2
				c-0.6,0-1.2-0.1-2.1-0.1c-2.3-15-4-75.9-2.3-82c8.2-0.5,16.4-1.9,24.8-1.3c8.9,0.7,17.9,0.5,26.9,0.7c2.4,0,4.9,0,7.3,0.1
				c10,0.3,20,0.7,30.1,0.8C216.9,403.2,221.3,402.6,225.6,402.5z M224.1,357c-37.4-0.3-74.6-0.6-112.5-0.9
				c5.4-20.6,9.2-41,15.2-61.1c3.7,1.6,6.9,2.9,10,4.5c13.3,6.5,27.6,8.3,42.1,8.9c6.8,0.3,13.7,0.5,20.5,0.6c9.7,0.1,19.4,0,29-1.6
				c2.5-0.4,4.9-1.5,7.4-2.2C236.5,309.5,228.2,346.8,224.1,357z M229.4,356.8c3.9-15.9,7.7-31.6,11.5-47.2c0.2,0,0.4,0,0.6,0
				c2.1,15.9,4.2,31.8,6.4,48.1C241.5,358.4,235.6,357.3,229.4,356.8z"/>
			<path d="M200.8,246.3c-2.8,0.1-4.9,2.3-4.9,4.9c0,2.5,1.9,4.4,4.3,4.2c2.6-0.2,5.2-2.7,5.1-4.9
				C205.2,248.4,202.9,246.2,200.8,246.3z"/>
			<path d="M167.2,243.7c-1.7,0-3.9,2.6-4.1,4.7c-0.2,2.3,1.4,4.1,3.7,4.2c2.4,0.1,4.6-1.8,4.7-3.9
				C171.5,246.7,169,243.7,167.2,243.7z"/>
			<path d="M138.2,452.5c6.6-0.5,13.3-1.1,19.9-1.6c2.3-0.2,5.1-3,5-5c-0.3-5.7-0.5-11.5-0.8-17.2c-0.1,0-0.1,0-0.2,0
				c0-4.5,0-9.1,0-13.6c0-3.3-0.5-3.8-3.8-4.3c-1.2-0.2-2.4-0.3-3.6-0.3c-7.9,0-15.7,0-23.6,0c-2.6,0-4,2-3.1,4.5
				c0.4,1.3,1,2.6,1,3.9c0,3.3-0.2,6.7-0.3,10c-0.2,6.2-0.6,12.4-0.7,18.6c-0.1,3.6,0.9,4.6,4.4,5
				C134.3,452.7,136.3,452.7,138.2,452.5z M139.6,425c1.3-3.5,4.1-5.2,7.4-6.1c3.4-0.9,6.6,1.7,6.6,5c-0.4,2.7-0.8,5.5-3.7,6.9
				c-3,1.4-5.9,1.4-8.7-0.4C139,429,138.7,427.6,139.6,425z M142.6,436.1c3.3-0.2,5.9-0.4,8.9-0.7c1.5,4,2.8,7.4,4.2,11.2
				c-5.6,0.5-10.8,1.1-16.7,1.6C140.3,443.9,141.5,440,142.6,436.1z"/>
			<path d="M232.1,457.8c-14,0.2-27.9,0.4-41.9,0.5c-19.4,0.1-38.9,0-58.2,0c-1.2,3.8-0.7,4.6,3,4.6c14.1-0.2,28.2-0.4,42.4-0.5
				c17.6-0.1,35.2-0.2,52.9-0.3c1.9,0,3.9,0,6.2,0C235.2,457.7,235.2,457.7,232.1,457.8z"/>
			<path d="M218.7,470.3c-1.1-0.3-2.4,0-3.6,0c-16.1,0.6-32.2,1.4-48.3,1.9c-10.5,0.3-20.9,0.1-31.4,0.1c-1.1,3.5-0.7,4.3,2.5,4.4
				c4.3,0.1,8.5,0,12.8-0.1c10.2-0.1,20.4-0.2,30.5-0.4c12.3-0.3,24.6-0.8,36.8-1.3c0.9,0,2.2-0.7,2.4-1.3
				C221,472,220.2,470.6,218.7,470.3z"/>
			<path d="M170.5,439c-0.4,4-0.3,4.4,2.1,4.4c6.7,0.1,13.3,0.2,20,0.2c12.6,0,25.2-0.1,37.7-0.1c1.5,0,3,0.1,4.5-0.2
				c0.9-0.2,2.3-1.2,2.2-1.5c-0.3-1-0.9-2.1-1.8-2.8c-0.4-0.4-1.5-0.2-2.2-0.2c-3.6,0-7.3,0.1-10.9,0.1C205.1,439,188,439,170.5,439
				z"/>
			<path d="M176,414.5c-0.9,3.7-0.8,4,2.4,4c11.4,0.3,22.7,0.3,34.1,0.7c3.9,0.1,7.8,0.6,11.7,1.1c1.8,0.3,3.1,0.3,3.6-1.6
				c0.5-1.8-1-3.1-3.2-3.2c-10.3-0.3-20.6-0.7-30.9-1C187.7,414.4,181.8,414.5,176,414.5z"/>
			<path d="M175.6,431.2c4.5,0.2,9.1,0.6,13.6,0.6c7.8,0.1,15.6,0,23.3,0c1.5-4.3,0.7-5.6-2.8-5.3c-2.3,0.2-4.5,0.5-6.8,0.5
				c-9.1-0.2-18.1-0.4-27.2-0.6c-1.4,0-2.9,0-2.9,2C172.8,430.2,173.8,431.1,175.6,431.2z"/>
		</g>
	</g>
</g>
</svg>
