<?xml version="1.0" encoding="utf-8"?>
<!-- Generator: Adobe Illustrator 19.1.0, SVG Export Plug-In . SVG Version: 6.00 Build 0)  -->
<svg version="1.1" id="Calque_1" xmlns="http://www.w3.org/2000/svg" xmlns:xlink="http://www.w3.org/1999/xlink" x="0px" y="0px"
	 viewBox="425 -124.9 1150.8 578.9" style="enable-background:new 425 -124.9 1150.8 578.9;" xml:space="preserve">
<style type="text/css">
	.st0{fill:none;}
	.st1{fill:#F4A300;}
	.st2{enable-background:new    ;}
</style>
<g>
	<g>
		<g>
			<path d="M1386,157.4c9.4-3.4,19.4-4.9,29.8-3.3c0.8,0.1,1.5,0.3,2.3,0.3c7.2-0.3,13,2.9,18.1,7.4c3,2.7,5.4,2.7,8.7,0.9
				c7.2-3.9,15.1-5.6,23.2-6.2c11.3-0.8,22.6-1.1,33.6,2.6c2,0.7,3.6,1.4,3.9,4c1,9.9,2.1,19.7,3.4,29.5c1.4,10.7,3,21.5,4.8,32.2
				c0.8,4.5,2.6,8.9,3.6,13.4c0.4,1.9,0.2,3.9,0,5.8c-0.1,0.9-1.2,1.9-1,2.5c1.5,4.6-1.4,8.5-1.8,13.1c-3.1,1-5.6,3.1-7.5,5.9
				c-0.5,0.8-2.2,1.1-3.2,1.1c-4.3-0.2-8.7-0.5-13-1.1c-15.7-2.2-31.5-2.7-47.3-3.3c-3.3-0.1-6.4,0.2-9.6,2.3
				c-2.4,1.6-6.4,1.8-9.5,1.2c-10-2.1-20.1-1.2-30.1-1.4c-9.1-0.1-17.9,1.3-26.5,3.9c-2.9,0.8-5.1,0.5-7.1-1.8
				c-1-1.2-2.3-2.1-3.2-3.4c-2.5-3.7-4.2-7.3-4.6-12.2c-0.8-8.8,2.5-15.9,5.8-23.4c5.1-11.6,9.5-23.6,14.2-35.4
				c3.3-8.2,6.6-16.4,9.8-24.6C1384.1,164.4,1384.9,161.2,1386,157.4z M1501.6,163.4c-4.8-1-9.1-2.4-13.5-2.8
				c-9.3-0.8-18.6-0.2-27.7,1.8c-4.8,1.1-9.4,3.1-14,4.8c-3.4,1.3-4.8,3.7-4.9,7.5c-0.1,5.1-0.3,10.3-1.2,15.3
				c-2.9,16.5-4.9,33.1-6.1,49.7c-0.1,1,0.1,2,0.2,3.3c12.4-6.4,25.5-9.1,38.7-10.5c13.3-1.4,26.5,0.2,39.2,3.6
				c-1.2-5.1-2.4-9.8-3.4-14.6c-0.5-2.1-0.7-4.3-1-6.4c-0.9-6.7-1.8-13.5-2.6-20.2C1504,184.5,1502.9,174.2,1501.6,163.4z
				 M1428.6,240.3c1.2-9.2,2.4-17.6,3.5-26c1.2-8.3,2.4-16.6,3.5-24.9c0.8-5.8,1.3-11.7,2-17.5c0.2-2.2-0.4-3.9-2.2-5.3
				c-4.9-3.8-9.8-7.7-16.5-7.6c-2.5,0-5-0.4-7.4-0.8c-6.3-1-12.3,0.2-18.4,1.8c-2.3,0.6-3.6,1.9-4.4,4.2
				c-4.3,11.9-8.5,23.9-13.3,35.7c-5,12.5-10.5,24.8-15.8,37.2c-0.6,1.5-0.9,3-1.7,5.4c12.2-3.2,23.6-4.5,35.3-5
				C1405.2,236.9,1416.8,238,1428.6,240.3z M1435,249c0.2,0.3,0.5,0.5,0.7,0.8c12.1-5.7,25.1-6.2,38-7.8c13.2-1.6,25.8,1.6,38.8,4
				c0.5-1.7,0.8-3,1.1-4.4c-1.8-0.7-3.2-1.4-4.6-1.9c-10.4-3-21-4.5-31.7-3.5c-7.8,0.7-15.5,2.9-23.3,4.1c-6.4,1-12.1,3.9-17.9,6.4
				C1435.6,247.1,1435.4,248.3,1435,249z M1357,249.6c1.5,1.4,3.2,0.5,4.8,0.4c7.9-0.8,15.7-2.1,23.6-2.2c13.5-0.2,27-0.8,40.4,0.8
				c1.1,0.1,2.3-0.3,3.4-0.4c0.1-0.3,0.2-0.7,0.4-1c-1-0.9-2-2.4-3.2-2.7c-8.5-1.8-17-3.4-25.8-2.9c-4,0.2-8,0.5-12.1,0.6
				c-9.6,0.4-19.1,1.6-28.3,4.7C1358.9,247.3,1357.1,247.4,1357,249.6z M1512,251.6c-10.2-6.4-50.6-7.1-61.9-1c0.8,0,1.4,0.1,2,0.1
				c15.7-0.9,31.2-0.3,46.6,3.4c3,0.7,6.1,0.7,9.2,1.1C1510.7,255.5,1511.8,254.2,1512,251.6z M1443.1,257.6
				c0.6,0.1,1.2,0.2,1.8,0.2c15.5,0,30.9,0.9,46.3,3.1c3.2,0.5,6.5,0.5,9.7,0.8c1.8,0.2,3.3,0,4.2-2
				C1487.9,254.2,1454.5,252.5,1443.1,257.6z M1358.3,255.7c0.1,0.5,0.1,1,0.2,1.5c0.8,0.1,1.7,0.3,2.5,0.2c2.4-0.4,4.8-1.1,7.3-1.3
				c9.1-0.9,18.2-2.1,27.3-2.5c8-0.3,16.1,0.2,24.1,0.7c3.1,0.2,6.2,1,9.4,1.6c0.2-2.4-1.3-2.2-2.5-2.3c-2.6-0.3-5.2-0.5-7.9-0.7
				c-15.3-1.2-30.7-0.5-46,0.5C1367.9,253.5,1363.1,254.9,1358.3,255.7z M1395.1,258.1c0,0.5,0,1,0,1.5c3.2-0.2,6.3-0.6,9.5-0.6
				c3.4,0,6.8,0.2,10.1,0.5c3.1,0.3,6.2,0.8,9.3,1.3c0-0.4,0.1-0.8,0.1-1.1C1414.5,257.2,1404.8,258.6,1395.1,258.1z M1362.8,262.6
				c3.1,0.7,15.2-1.6,18.3-3.3C1375.4,260.9,1369.2,259.1,1362.8,262.6z"/>
			<path d="M808.6,250.6c-9.3,0.2-18.6,0.5-27.9,0.7c-7.7,0.1-8.6-1-9.4-8.6c-0.4-3.8-1.8-7.5-1.7-11.3c0.1-3.6-1.8-7.6,1.3-10.9
				c0.5-0.6,0.2-2,0.1-3c-0.3-2.3-0.8-4.6-0.9-6.9c-0.2-3.6,0.4-7,2.6-10.1c1.9-2.6,3.5-5.5,5-8.4c0.8-1.5,1.7-2.2,3.6-2.3
				c16.3-0.3,32.5-0.8,48.8-1.2c1.2,0,2.7,0.7,3.5,1.6c3.5,4.3,6.7,8.9,10.3,13.1c3,3.6,2.1,7.9,2.9,11.8c0.1,0.5-0.9,1.2-1.1,1.9
				c-0.9,2.3-1.6,4.4-1.3,7.3c0.6,5.2,2.7,10.5,0.9,15.8c-0.1,0.4,0,0.9,0,1.4c0.2,9.4-3.3,9.1-9.6,9.2c-9,0.1-18,0-26.9,0
				C808.6,250.8,808.6,250.7,808.6,250.6z M840.2,205.8c-2.7-3.7-4.8-6.6-7-9.3c-1.8-2.2-4.1-3.1-7-2.8c-2.9,0.2-5.9,0.1-8.8,0.1
				c-9.1,0.1-18.3,0.5-27.4,0.3c-6.2-0.1-10.9,1.5-12.8,7.9c-0.2,0.6-0.8,1-1,1.5c-0.4,0.9-0.5,1.9-1,3.5c11.6,0,22.6,0,33.6,0
				c1.7,0,3.4,0.1,5.1,0.3C822.5,208.2,830.9,207,840.2,205.8z M774.6,227c0,0.4,0.1,0.8,0.1,1.3c2.6,0,5.2,0.1,7.7,0
				c12.2-0.7,24.4-0.2,36.6,0.2c6.2,0.2,12.4-0.2,18.6-0.3c1.4,0,3,0.1,2.7-2.3c-2.5-2-5.6-1.1-8.4-1.1c-8,0.1-16,0.6-24.1,0.7
				c-8.8,0.1-17.6-0.1-26.4,0C779.2,225.5,776.5,224.9,774.6,227z M839.1,235c-0.1-0.4-0.1-0.8-0.2-1.2c-1-0.2-2.1-0.6-3.1-0.6
				c-7.1-0.1-14.2-0.2-21.3-0.2c-11.9,0-23.9,0-35.8,0.1c-0.9,0-1.8,0.5-2.7,0.8c2.4,1,4.7,1.4,7,1.4c13,0.4,26,0.7,39,1
				c4.6,0.1,9.3-0.1,13.9-0.2C837,236.1,838.1,235.4,839.1,235z M839.1,218c-2.2,0-4.3,0-6.5,0c-4.9,0.1-9.9,0.5-14.8,0.2
				c-11.3-0.7-22.6-0.2-33.9,0.1c-2.2,0.1-4.3-0.1-6.5,0.1c-0.7,0.1-1.2,0.8-2.1,1.5C782.1,221.8,833.6,220.6,839.1,218z M774.5,212
				c6.3,2.1,62.4,1.2,67-0.6c-1.2-0.3-2.5-0.4-3.7-0.3c-5.4,0.4-10.8,1.1-16.2,1.1c-8.5-0.1-17-0.8-25.5-1c-6.3-0.1-12.7,0-19,0.1
				C776.2,211.5,775.4,211.9,774.5,212z M776.6,240.4c0,0.4,0.1,0.8,0.1,1.2c14,0.7,27.9,0.8,41.9-0.3c-13.3-0.6-26.6-1.1-39.9-1.5
				C778,239.8,777.3,240.2,776.6,240.4z"/>
			<path d="M763.8,250.7c-1.8,0.5-3.7,1.4-5.6,1.5c-8.8,0.7-17.6,1.5-26.4,1.9c-10,0.5-20.1,0.5-30.1,0.9c-2.4,0.1-3.4-0.7-4.6-2.8
				c-1.5-2.5-1.9-5.2-2.4-7.9c-1.4-7.4-2.8-14.9-2.1-22.5c0.1-0.8,0-1.5-0.1-2.3c-0.9-6.5,1-12.1,5-17.2c0.5-0.6,1-1.2,1.3-1.9
				c2.6-6.1,7.6-7.3,13.6-7.3c11.8,0.1,23.5,0,35.3-0.3c3-0.1,4.4,1,5.8,3.4c2.2,3.7,4.9,7.1,7.1,10.8c0.9,1.5,1.7,3.3,1.7,5
				c0,3.4-0.6,6.7-0.9,10.1c-0.4,4.8-0.8,9.7,1,14.2C764.2,241,764.3,245.6,763.8,250.7z M756.9,208.8c-2.2-3.2-4-5.7-5.6-8.3
				c-1.3-2.1-3-2.9-5.4-2.8c-4.6,0-9.3-0.2-13.9-0.2c-7.7,0.1-15.5,0.3-23.2,0.6c-1.2,0-2.8,0.2-3.4,1c-2.7,3-4.9,6.4-7.4,10.6
				C718,209.3,737.1,209.1,756.9,208.8z M758.4,215.1c0-0.3,0-0.7,0-1c-1.9-0.2-3.7-0.6-5.6-0.7c-16.2-1.1-32.4,0.7-48.7,0.8
				c-2.1,0-4.3,0.5-6.4,1c-0.5,0.1-0.9,0.9-2.2,2.1c20.9,0.6,40.7-0.7,60.5-1.3C756.8,216,757.6,215.4,758.4,215.1z M757.1,227.6
				c-1.6-0.1-3.1-0.3-4.7-0.2c-4.5,0.1-9,0.6-13.4,0.4c-11.6-0.5-23.1-0.3-34.7,0.2c-2,0.1-4,0.1-6,0.5c-0.7,0.1-1.2,1.2-2.1,2.1
				C709.7,232.1,752.8,230.3,757.1,227.6z M697.8,238.3c6.9,1.2,54.3-1.1,58.6-3.3c-1.2-0.4-2.5-0.7-3.7-0.6
				c-11.3,0.3-22.6,0.7-33.9,1c-5.7,0.1-11.5,0-17.2,0.1C699.8,235.5,697.8,235.6,697.8,238.3z M698.9,245.9
				c19.8-0.3,39.1-1.4,58.3-3.1c0.3,0,0.5-0.7,1.1-1.4c-1.3-0.1-2.3-0.3-3.3-0.3c-9.9,0.5-19.7,1.2-29.6,1.6
				c-7.4,0.3-14.8,0.4-22.2,0.6C701.6,243.4,699.7,243,698.9,245.9z M757.2,221.5c-9.6-1.3-19.2,0-28.8,0.9
				C738,223.2,747.5,223.8,757.2,221.5z M714.8,223c0-0.4,0-0.8,0-1.2c-5.6,0.3-11.2,0.6-16.8,0.9c0,0.1,0,0.2,0,0.3
				C703.6,223,709.2,223,714.8,223z"/>
			<path d="M635.9,254.7c-5.9,0-11.7,0-17.6,0c-2,0-3.1-1.1-2.8-2.9c1.1-7.7-2.5-14.9-1.8-22.4c0.5-5.3-0.5-10.3-1.4-15.4
				c-0.2-1.2,0.3-2.7,1-3.7c2.6-3.8,5.7-7.4,8.2-11.3c1.5-2.3,3.2-3.6,6-3.6c5.3,0.1,10.5,0.2,15.8,0.2c8,0,16.1,0.2,24.1,0
				c2.6-0.1,4.5,0.5,5.8,2.8c1.3,2.1,2.7,4.1,4,6.3c1.6,2.8,2.2,5.6,1,8.9c-1.8,4.8-0.4,9.8-0.1,14.7c0.3,3.9,0.6,7.8,2.3,11.6
				c1,2.2,0.5,5.2,0.2,7.8c-0.3,2.8-4.1,5.6-7.5,5.9c-2.3,0.2-4.6-0.1-7,0c-10,0.5-20.1,1-30.1,1.5
				C635.9,254.9,635.9,254.8,635.9,254.7z M674.5,208.9c-2.5-7.2-4.1-8.5-10.7-8.7c-9.3-0.3-18.6-0.7-27.8-0.9
				c-2.6-0.1-5.3,0.2-7.9,0.4c-0.7,0.1-1.7,0.3-2.1,0.8c-2.8,3-5,6.4-7.2,10.4c4.5,0,8.2,0,11.9,0c11.1-0.1,22.3-0.2,33.4-0.5
				C667.4,210.3,670.9,209.4,674.5,208.9z M615.6,216.6c1.7,0.7,2.6,1.4,3.5,1.5c6.6,0.4,13.2,0.7,19.9,0.9
				c5.9,0.2,11.7,0.5,17.6,0.4c4.6-0.1,9.3-0.5,13.9-0.9c2.1-0.2,4-0.8,3-4c-18.2,0.3-36.4,0.6-54.6,0.9
				C618.1,215.5,617.3,216.1,615.6,216.6z M617.2,230.9c0.1,0.4,0.1,0.8,0.2,1.2c0.4,0.2,0.7,0.7,1.1,0.7c15.6,0,31.2,0,46.8-0.1
				c2.9,0,5.8-0.7,8.7-1.2c0.2,0,0.3-0.5,0.6-1.1c-0.8-0.1-1.5-0.1-2.2-0.1c-7.7,0.2-15.4,0.5-23.2,0.5c-9.4,0-18.9-0.4-28.3-0.6
				C619.6,230.2,618.4,230.6,617.2,230.9z M674.1,225c0-0.5,0-1-0.1-1.5c-1.6,0-3.2-0.1-4.8-0.1c-6.5,0.1-13,0.4-19.4,0.3
				c-9-0.2-17.9-0.7-26.9-1c-1.7-0.1-3.4,0.3-5.1,0.5c0.2,2.5,1.7,2.3,2.9,2.3c5.9,0.1,11.7,0.1,17.6,0.2c9.6,0.1,19.1,0.3,28.7,0.2
				C669.3,225.9,671.7,225.3,674.1,225z M674.6,238.6c0-0.5,0-1.1-0.1-1.6c-1.9,0-3.8-0.2-5.7-0.1c-2.6,0.1-5.2,0.5-7.9,0.5
				c-9.4,0.1-18.9,0-28.3,0c-3.7,0-7.4,0-11.1,0.2c-0.9,0-1.7,0.6-2.5,0.9c0.1,0.5,0.1,0.9,0.2,1.4c7.4,0.6,15,0.4,22.4,0.1
				C652.6,239.5,663.7,240.4,674.6,238.6z M672.7,244.9c0-0.2,0-0.5,0-0.7c-1-0.1-2.1-0.2-3.1-0.2c-4.3,0.1-8.7,0.2-13,0.3
				c-10.8,0.1-21.7,0-32.5,0.1c-1.4,0-3.1-0.4-4.3,1.8c1,0.3,1.8,0.7,2.6,0.6C639.1,246.2,655.9,245.6,672.7,244.9z"/>
			<path d="M1361.2,193.5c-2.8-1.4-3.2-3.3-2.1-5.6c0.7-1.7,1.5-3.4,2.2-5.1c0.7-1.8,1.9-3.5,1.2-6.1c-0.7,0.7-1.3,1-1.5,1.4
				c-4,9.4-8.1,18.7-11.8,28.2c-2.3,5.7-4,11.7-6,17.5c-0.2,0.6-0.4,1.2-0.9,1.6c-2.9,2.7-5.9,5.3-9,8.1c-2.2-1.1-2.6-2.9-2.6-5
				c0-0.6,0.4-1.2,0.3-1.8c-1.1-7.5,3.8-13.4,5.7-20.1c2.8-10,6.1-19.8,9.3-29.7c0.7-2.2,1.4-4.4,2.4-6.5c1.1-2.5,2.7-3,5.2-2.2
				c1.9,0.6,3.8,1.1,5.7,1.6c0.9,0.3,1.8,0.5,2.6,1c2,1.2,3.8,2.5,5.8,3.6c1.7,1,2.3,2.5,1.1,3.8
				C1364.7,182.6,1363.6,188.2,1361.2,193.5z M1338.5,219c2.2-2.5,14.9-32.2,15.8-37c-1.5-0.8-3.1-1.6-4.6-2.4
				C1345.9,187.4,1338.1,214.5,1338.5,219z M1352.5,172.3c-1.9,3.7-1.9,3.7,3.8,6.2c0.4-1.4,0.8-2.8,1.2-4.2
				C1355.6,173.6,1354.2,173,1352.5,172.3z M1334.8,220.7c0.3,2,0.4,3.2,0.6,4.7C1338.1,222.9,1338.1,222.9,1334.8,220.7z"/>
			<path d="M1552.3,193c7.1,1.1,14,1.6,18.8,7.8c-2.1,5.2-1,11.7-5.8,16.5c-2.1-1.2-1.9-2.8-1.4-4.5c0.7-2.7,1.3-5.4,1.9-8.1
				c0.2-1,0.2-2.1,0.3-4.2c-1,1.3-1.6,1.7-1.8,2.3c-3.7,11.6-6.7,23.5-11.8,34.7c-0.3,0.6-0.5,1.2-0.5,1.8c-0.3,5.4-3.4,8.3-8.2,9.9
				c-1.4,0.5-2.6,1.3-4.2,2.2c-1-4-1.8-7.4-2.8-11.2c3.7-3,5.2-7.5,6.4-12.1c2.6-9.4,5.4-18.7,8-28.1
				C1551.8,197.8,1551.9,195.6,1552.3,193z M1554.6,206.3c-0.4,0.9-0.7,1.6-1,2.3c-2.2,7.3-4.4,14.5-6.6,21.8
				c-0.7,2.2-1.3,4.5-2,6.7c-0.5,1.6,0.1,2.4,2.4,2.2c1-2.7,2-5.5,3-8.4c2.3-6.9,4.6-13.8,6.9-20.7
				C1557.9,208,1557.9,206.4,1554.6,206.3z M1560.7,198.9c-2.1-0.5-3.7-1-4.4,0.9c-0.2,0.7,0.5,1.9,1.1,2.6c0.4,0.5,1.3,0.4,2.2,0.7
				C1559.9,201.6,1560.2,200.5,1560.7,198.9z M1544.7,243.3c-2.7,0-2.7,0-2,2.3C1543.5,244.8,1544.1,244.1,1544.7,243.3z"/>
			<path d="M1541,182.1c-4.4-0.6-2.9-5.7-5.2-7.9c-2.8,0.7-3.5,1.5-2.2,3.3c1.2,1.6,0.9,3,0.9,4.7c0.1,2.6,1,5.2,1.4,7.8
				c0.9,6,1.8,11.9,2.6,17.9c0.4,2.9,0.7,5.9,1.3,8.7c1.1,5.2-0.3,10.2-1.4,15.1c-0.5,2.3-2.3,2.6-3.6,0.6c-1.5-2.3-3.5-3.8-5.9-5.1
				c-1.1-0.6-2-2.4-2.3-3.7c-0.7-3.2-1-6.4-1.5-9.6c-1.5-10.1-2.9-20.2-4.4-30.3c-0.4-2.6-1.3-5.1-2.1-7.6c-1-3.2-0.4-4.3,2.8-4.9
				c3.8-0.7,7.6-1.5,11.4-2.2c3.1-0.6,5,0.1,6.2,2.8c1.3,3.1,2.2,6.3,3.3,9.5C1541.8,181.5,1541.4,181.8,1541,182.1z M1525,184.3
				c1.9,12.6,3.8,24.7,5.6,36.9c4.9-1,5.1-1.3,4.8-5.4c-0.6-6.2-1-12.4-1.8-18.5c-0.7-4.8-2-9.6-3.1-14.7
				C1528.3,183.3,1526.9,183.7,1525,184.3z M1528.1,174.2c-1.7,0.5-3.1,1-4.5,1.4c-0.3,2.5,0.3,4,2.9,3.5
				C1528.8,178.8,1529,178.2,1528.1,174.2z"/>
			<path d="M1283.3,36.9c-2.3,4.3-4.1,5.6-6.5,4.9c-1.8-0.5-2.8-1.9-3-3.7c-0.2-2.4,1.2-3.7,3.1-4.5
				C1279.5,32.5,1280.8,33.2,1283.3,36.9z"/>
			<path d="M758.2,45.4c2.7,0,5.4,2,5.3,4.1c-0.1,1.7-2.5,3.7-4.7,3.7c-2.8,0-5.1-1.9-5.2-4.2C753.6,47,755.5,45.4,758.2,45.4z"/>
			<path d="M730.4,54.9c-1.8-0.1-3.8-2.4-3.8-4.5c0-1.8,2.2-3.8,4.1-3.6c2,0.2,4.5,2.7,4.5,4.7C735.1,53.3,732.7,55,730.4,54.9z"/>
			<path d="M1310.7,45.8c0,1.8-2,3.7-4,3.7c-2.3,0.1-3.8-1-3.9-3c-0.1-2.5,1.8-4.8,4-4.7C1308.6,41.9,1310.6,43.9,1310.7,45.8z"/>
			<path d="M1282.6,18.6c0.4,0.8,1.2,1.6,1.2,2.4c0.1,4,0.1,8.1,0.1,12.5C1279.3,31,1278.8,26.6,1282.6,18.6z"/>
			<path d="M1482.9,58c0,2-1.6,3.5-4,3.5c-2.2,0.1-3.9-1.5-3.9-3.6c0-1.8,2-3.8,3.9-3.8C1480.8,54.2,1482.9,56.3,1482.9,58z"/>
			<path d="M765.7,37.2c-0.8,1.7-1.9,3.3-3,4.7c-0.6,0.7-1.7,0.7-2.5,1c0.1-1.1-0.1-2.3,0.2-3.2c1-2.8,0.9-8.7,3.3-8.2
				C766,31.9,767,34.4,765.7,37.2z"/>
			<path d="M723.2,49c-6.9,1.8-13.8-1-14.5-4.9C709.6,38.8,717.3,46.2,723.2,49z"/>
			<path d="M1461.3,54.2c0,1.9-2,3.6-4.1,3.5c-2-0.1-2.5-1.6-2.5-3.3c-0.1-2.2,1.3-4.1,2.9-4.1C1459.5,50.2,1461.3,52.1,1461.3,54.2
				z"/>
			<path d="M1276.7,32.5c-2.6-3.4-2.3-7.1-2.5-10.6c2-1,3-0.2,3.3,1.2C1278.1,26.2,1279.3,29.5,1276.7,32.5z"/>
			<path d="M770.6,37.2c2.4-0.4,3.1,1.1,3.5,2.7l0.1-0.1c-2.3,2-4.5,4.2-9.1,3.8c1.3-1.3,2.1-2.2,2.9-3.1
				C768.9,39.4,769.8,38.3,770.6,37.2L770.6,37.2z"/>
			<path d="M774.4,48.5c-1.6,0.4-3.1,0.9-4.7,1.3c-1.5,0.4-2.7,0-3.6-1.4c1.2-0.6,2.4-1.3,3.6-1.9c1.1-0.6,2.3-1.1,3.6-1.7
				c1.9,1.1,2.8,2.2,0.9,3.7C774.3,48.6,774.4,48.5,774.4,48.5z"/>
			<path d="M721.6,31.3c3.2-0.9,3.7,5.2,3.9,12.1C722.1,41.9,718.5,33.4,721.6,31.3z"/>
			<path d="M1273.6,33c-4-1.6-5.2-4.6-6.3-7.8C1270.8,24.4,1273.2,27.2,1273.6,33z"/>
			<path d="M1315.8,28.8c-0.8,0.3-1.9,0.5-2.4,1.1c-2.6,3-5.2,6.2-7.9,9.6C1310.5,40.5,1313.7,37.5,1315.8,28.8z"/>
			<path d="M1311.6,43.4c4.2-0.9,6.3-4,8.6-6.6c-1-2-2.2-2.1-3.3-1.2C1314.4,37.6,1311.4,39.4,1311.6,43.4z"/>
			<path d="M1313.7,45.6c4.1,1.3,7-0.2,9.8-2.1C1321.3,40.8,1317.7,41.5,1313.7,45.6z"/>
			<path d="M720.7,43.3c-5-0.7-9.1-4.4-6.4-7.7C717,34,719.1,40.7,720.7,43.3z"/>
			<path d="M1162.6,138.2c14.3,0,28.4,0,42.5,0c5.4,0,10.9-0.1,16.3-0.3c2.6-0.1,4.5,0.8,6,2.8c0.9,1.2,2.1,2.3,3.1,3.5
				c1.7,2,3.1,4.2,3,7.4c-1,0.3-2,0.7-3,0.7c-23.7-0.2-47.4-0.3-71.1-0.6c-0.3,0-0.6-0.2-1.1-0.3
				C1155,145.8,1160.3,142.9,1162.6,138.2z M1225.7,147.2c-0.3-0.8-2.3-3.2-2.4-3.2c-17.2,0.2-32.5,0.5-49.8,0.7
				c0,0.2-1.9,2.3-1.9,2.5C1188.8,147.2,1208.1,147.2,1225.7,147.2z"/>
			<path class="st0" d="M1256.1,128.7c4.9-0.3,9.9-0.8,14.8-0.9c11.3-0.1,22.6,0.1,33.9,0c5.4,0,10.7-0.4,16-0.7c0-9,0-17.4,0-26.2
				c-10.2-0.7-19.9-0.7-29.4-3.5c-9.6-2.8-18.5-7-27.6-11.6c-6.3,13.6-10.8,27.5-13.1,42.8C1252.8,128.7,1254.5,128.8,1256.1,128.7z
				"/>
			<path class="st0" d="M1066.5-15.8c0-2,0-3.4,0-4.9c-0.3,0-0.7,0-1,0C1064.5-19,1064.5-17.5,1066.5-15.8z"/>
			<path class="st0" d="M1245.1,239.6c0.2-8.5,0.5-17,0.7-25.5c0-1.1-0.2-2.3-0.3-3.4c-11,18.8-23.6,36.4-35.3,54.5
				c1.9,1.6,2.8,0.3,3.7-0.3c3.7-2.6,7.3-5.3,10.9-7.9c5.9-4.2,11.8-8.5,17.8-12.7C1244.2,243.1,1245.1,241.7,1245.1,239.6z"/>
			<path class="st0" d="M1263.5,208.4c2,0.9,3.8,1.6,6.3,2.8c0.2-5.7,0.3-10.5-1.3-15.3C1266.8,199.9,1265.2,204,1263.5,208.4z"/>
			<path class="st0" d="M1269.9,220.3c0-1.3-0.4-3.1-1.3-3.7c-4.5-3-9.4-5.4-15.7-6.2c0.8,12.2,1.6,23.7,1,34.4
				c-2.8,1.3-5.4,1.7-6.7,3.3c-5.6,6.4-12.6,11-19.1,16.2c-0.8,0.6-1.4,1.4-2.6,2.7c15.6,0.6,30.3-0.7,45.1-2
				c-0.3-9.6-0.6-18.6-0.7-27.6C1269.8,231.8,1270,226.1,1269.9,220.3z"/>
			<path class="st0" d="M1058.7-6.9c3.1,0.2,5.9,0.4,9.2,0.6c-0.8-5.2-5.2-5.7-8.4-8.6c0,1.8,0.1,2.8,0,3.8
				C1059.3-9.9,1059-8.8,1058.7-6.9z"/>
			<path class="st0" d="M1073.5-10c-0.6,2.1-0.6,3.5,1.8,4.2C1075.5-8.2,1075.5-8.2,1073.5-10z"/>
			<path class="st0" d="M1063.2-36.1c2.5,0.1,3.3,0.8,3.5,3.8c0.1,2.2,0.3,4.3,2.4,5.9c0.5-0.1,1.1-0.4,1.6-0.5
				c3.6-0.8,4.5-0.1,4.4,3.6c0,1.4-0.5,2.8-0.4,4.1c0.1,1.8,0.3,4.3,2.6,4.3c3.9,0,4.9,2.3,5.9,5.3c1.1,3.5,3.1,4.3,8,3.6
				c-4.3-6.2-8.5-11.7-12.1-17.6c-4.7-7.7-11.4-13.3-18.6-18.5c-0.6-0.5-1.5-0.7-2.3-1c-0.2,0.7-0.3,1-0.3,1.3
				C1057.9-36.4,1058-36.3,1063.2-36.1z"/>
			<path class="st0" d="M1124.5,164c5.2-0.3,9.4-0.5,13.5-0.7c23.4-0.9,46.8-1.7,70.1-2.5c1.9-0.1,3.7-0.1,5.6-0.2
				c11.7-0.8,23.5-1.6,35.2-2.3c5.8-0.4,11.6-0.7,18-1c-0.9-1.4-1.4-2.3-2.1-3.1c-7-8.2-14.2-16.3-21.1-24.7c-1.9-2.4-3.9-3-6.7-2.8
				c-10.2,0.8-20.4,1.6-30.6,2c-16.1,0.6-32.2,0.2-48.3-0.7c-3.2-0.2-6.6,0.1-9.7-0.4c-3.6-0.6-5.9,0.4-7.5,3.7
				c-3.5,7.2-7.2,14.4-10.8,21.6C1128.5,156.1,1126.7,159.5,1124.5,164z"/>
			<path class="st0" d="M769.6,111.4c-0.1-4.6-1.5-9.1-3.1-13.5c-18.4,1.8-36.4,2.8-54.5-3.6c-3.5,12.1-7.7,23.7-10.6,35.7
				c-0.3,1.1,0,2.4,0,4.5c3.3,0,6.1,0,8.9,0c4.5-0.1,9-0.3,13.5-0.4c15.5,0,31,0,46.5,0c0.9,0,1.9-0.5,2.9-0.8
				c-0.3-1.3-0.4-2.2-0.6-3.1C771.2,124,769.8,117.9,769.6,111.4z"/>
			<path class="st0" d="M1133.2,167.7c-2.8,0.1-5.5,0.5-9.2,0.9c0,2.9-0.2,5.4,0,7.8c1.1,9.9,0.8,19.8,0.7,29.7
				c0,2.1,0.2,4.2,0.4,6.9c2.4-0.9,4.1-1.5,5.7-2.2c3.1-1.3,6.2-3.1,9.4-4c6.2-1.7,11.9-4.3,17.6-7.1c4.1-2.1,4.7-1.7,6.6,2.4
				c1.6,3.6,1.8,3.9,5.5,3.3c4.1-0.7,8.2-1.7,12.2-2.7s8-2.3,12.1-3.3c3-0.8,4.7,0.9,4.4,4c-0.1,1.5-0.4,3.1-0.2,4.6
				c1,5.3,2.2,10.6,3.4,15.9c0.4,1.6,1,3.1,1.4,4.3c3.3,0,5.9,0,8.5,0c0.4,0,0.9-0.3,1.3-0.4c-0.2-5.2-2.5-13.7-4.7-17.8
				c-1.3-2.4-1-3.2,1.4-4.2c12-5,24-10,36-15.1c6-2.5,12-5,18-7.6c4.8-2.1,5-2.5,4.8-7.7c-0.1-2.5,0-5,0-7.4c0-1.6,0-3.3,0-5.1
				c-1.4-0.2-2.3-0.5-3.2-0.4C1221.4,164,1177.3,165.8,1133.2,167.7z"/>
			<path class="st0" d="M1149,249.3c-2.4-2.7-3-6.1-2-10c2.7-9.7,4.8-19.5,7.2-29.3c0.2-0.9,0.1-2,0.2-3c-3.5,1-6.6,1.7-9.7,2.8
				c-4.6,1.7-9.2,3.7-13.7,5.7c-1.5,0.6-2.8,1.5-2.7,3.4c0.3,4.1,0.2,8.2,1.8,12.3c3.2,8.2,5.7,16.7,8.5,25.1
				c1.4,4.2,2.7,8.5,4,12.7c2.6,0,4.8,0.1,7,0c10.3-0.4,8.1,1.4,10.8-8.6C1156.3,256.4,1152.4,253.1,1149,249.3z"/>
			<path class="st0" d="M1218.4,243.6c-7.2,4.1-13.2,9.4-21.6,12.4c-7.7-5.1-15.8-10.4-24.6-16.2c-3,9.2-6,18.5-9.2,28.2
				c14.4,0,28,0,41,0c0.7-2.4,1-4.4,1.9-6c2.3-3.8,5-7.4,7.5-11.1C1215.2,248.6,1216.8,246.1,1218.4,243.6z"/>
			<path class="st0" d="M1239.5,210.3c3.2-4.5,6.5-8.6,12.7-4.8c0.1,0.1,0.3,0.1,0.4,0.1c1-0.4,2.6-0.6,3-1.4
				c2.4-4.1,4.6-8.3,7.1-12.7c-6.5-0.3-37.7,11.3-45.7,16.7c7.2,1,14.5,2,21.5,2.9C1239.1,210.7,1239.3,210.5,1239.5,210.3z"/>
			<path class="st0" d="M1504.4,96.5c-9,1.2-17.3,2.9-25.5,3.1c-8.3,0.2-16.7-0.9-25-1.6c-8.4-0.7-15.6-5.4-23.3-8.7
				c-4,12.4-7.8,24.2-11.8,36.7c28.9,0,57,0,85.8,0C1505.2,116,1504.3,106.2,1504.4,96.5z"/>
			<path class="st0" d="M1125.7,269.3c3.2-0.2,6.6-0.3,10.5-0.5c-2.7-11.5-4.8-22.6-11-33.2C1124.2,243.9,1124.5,266.2,1125.7,269.3
				z"/>
			<path class="st0" d="M1217.1,221.5c0.2,0.9,0.6,1.8,0.9,2.6c0.7,1.7,0.8,3.8,3.3,3.9c2.9,0.1,6.2,0.7,8.2-1.8
				c2.6-3.2,4.6-6.8,7-10.6c-7-2.8-13.6-3.1-21-2.7C1216,216.1,1216.5,218.8,1217.1,221.5z"/>
			<path class="st0" d="M1174.6,230.3c5.7,0.7,6,0.5,7.7-4c0.9-2.5,2-4.9,3-7.3c1.7-4.1,3.4-8.3,5.7-13.6
				c-8.3,1.7-15.5,3.2-22.9,4.8C1170.3,217.1,1172.5,223.8,1174.6,230.3z"/>
			<path class="st0" d="M1177.3,235.3c1.1,1.4,2.2,2.3,3.4,3.2c3.8,2.6,7.7,5.1,11.5,7.9c4.7,3.4,4.8,3.7,9.6,0.4
				c6.2-4.2,12.2-8.8,18.3-13.3c-0.1-0.3-0.1-0.7-0.2-1C1205.7,231.9,1191.6,233.9,1177.3,235.3z"/>
			<path class="st0" d="M1161.3,204.4c-0.7,1.2-1,1.5-1.1,1.9c-2.8,10.9-5.6,21.9-8.4,32.8c-0.3,1.1-0.4,2.9,0.3,3.5
				c3.4,3.3,6.4,7.1,11.2,9.3c1.1-2.9,2-5.5,3-8.1c1.4-3.7,3.5-7.4-0.4-11.1c3.7-2.3,4.1-3.1,3.2-6.3c-1.2-3.8-2.3-7.7-3.6-11.5
				C1164.2,211.6,1162.8,208.3,1161.3,204.4z"/>
			<path class="st0" d="M1193.8,210.2c-2.5,6.3-5,12.6-7.7,19.5c4.5-0.3,8.2-0.5,12.1-0.8c-1.3-6.6-2.5-12.6-3.6-18.6
				C1194.3,210.3,1194.1,210.3,1193.8,210.2z"/>
			<path class="st0" d="M899.2,17c-5.6,0.6-5.6,0.7-7.1,7.1c6.2,0.6,12,1.2,18.5,1.9c-0.5-3.5-0.8-6.3-1.2-9.6
				C905.6,16.6,902.3,16.6,899.2,17z"/>
			<path class="st0" d="M956.1,18c-0.3,1.9-0.5,3.3-0.8,4.9c2.4,0.8,4.4,1.7,6.4,2.1c6.1,1.2,12.1,2.6,18.3,3c6.9,0.4,8.8-2.6,7-9.3
				c-0.1-0.4-0.5-0.8-1-1.6C976.5,17.4,966.6,17.7,956.1,18z"/>
			<path class="st0" d="M1025.4,16.9c-10,0.4-20.3-0.8-30.5,0.3c-0.6,2.7-1,5-1.6,7.8c1.9-0.2,3.1-0.3,4.3-0.5
				c7.3-0.8,14.5-0.7,21.6,1c7.2,1.7,8.7,0.3,7-7C1026.1,18.1,1025.8,17.7,1025.4,16.9z"/>
			<path class="st0" d="M1069.5,14.2c-0.9,0.1-2.1,1-2.3,1.7c-0.6,2.8-0.9,5.6-1.3,8.5c2.7,0.5,4.8,0.9,6.9,1.2
				c2.6,0.3,3.3-0.3,3.4-2.9c0.1-2.6,0-5.2,0-8.6C1073.4,14.2,1071.4,14,1069.5,14.2z"/>
			<path class="st0" d="M918.9,17.2c-1,2.7-1.8,5-2.6,7.4c-0.6,1.9,0.1,3,2.1,3.2c1.8,0.1,3.7,0.1,5.5,0.2c8.6,0.5,16.6-2,25.1-4.8
				c-0.7-1.9-1.3-3.6-1.8-5C937.6,17.8,928.4,17.5,918.9,17.2z"/>
			<path class="st0" d="M1035.3,15.9c-1.2,4.1-2.2,7.6-3.3,11.4c9.3,0.3,18.3-1.8,27.8-2.9c-0.5-3.6-1-6.6-1.5-10.2
				C1050.5,14.8,1042.8,15.4,1035.3,15.9z"/>
			<path class="st0" d="M1088.3,31.6c-4.9-0.1-10,0.4-14.8-0.5c-8.6-1.5-17-1.1-25.5,0.2c-9.6,1.4-19,1.8-28.6-0.5
				c-10.8-2.6-21.5-2.1-32.2,0.9c-3.5,1-7.4,1.3-11,1c-5.4-0.5-10.8-1.3-15.9-3c-5.2-1.7-10-1.4-15.1-0.3c-2.9,0.7-5.6,1.7-8.5,2.2
				c-7.5,1.4-15.1,0.7-22.7,0.4c-1.2-0.1-2.5-0.3-3.6-0.7c-7.7-2.6-15.6-2.5-23.5-2.3c-3.3,0.1-6.2,1.1-9.2,2.8
				c-2.6,1.5-2.9,3.2-2.7,5.7c0.4,4.5,0.8,9,0.9,13.4c0.2,9.6,0.2,19.2,0.2,28.8c0,10.5,0.2,21.1,0,31.6
				c-0.2,11.2-0.8,22.3-0.9,33.5c-0.1,9.3,0.2,18.6,0.4,27.9c0.2,8.8,0.4,17.7,0.5,26.5c0.1,20,0.1,40,0.2,60
				c0.1,12.2,0.3,24.5,0.5,36.7c0.2,10.1,0.4,20.2,0.8,30.2c0.6,16.1,1.5,32.2,2.1,48.3c0.5,12.4,0.6,24.8,1,37.2
				c0.1,4.2,0.6,8.3,0.9,12.4c5.6-1,10.8-2,16.3-3c0.2-1.2,0.6-2.5,0.7-3.9c1.4-14.7,3.1-29.3,3.9-44c0.9-16.7,0.9-33.5,1.2-50.2
				c0-1.3,0.1-2.5,1.6-3c2.3-0.7,5.2,1.2,5.3,3.7c0.2,3.6,0.4,7.1,0.3,10.7c-0.1,9.1-0.4,18.3-0.6,27.4c-0.1,9,0.1,18-0.4,27
				c-0.4,8.2-1.6,16.4-2.1,24.6c-0.2,3.3-0.5,6.8,0.7,10.2c6.4,0.5,12.8,1.2,19.1,1.5c2.8,0.2,5.6-0.2,8.3-0.6c3.3-0.4,4-1,4.1-4.4
				c0.1-3.1-0.2-6.2-0.1-9.3c0.1-11.5,0.4-22.9,0.3-34.4c-0.1-14-0.8-27.9-0.8-41.9c-0.1-16.7,0.3-33.5,0.4-50.2
				c0-3.7-0.1-7.4-0.3-11.1c-0.1-2.5,1.4-3.2,3.5-3.4c2.4-0.2,4.7,1.3,4.8,3.4c0.3,4.3,0.5,8.6,0.5,13c0.1,15.7,0,31.3,0.1,47
				c0.1,9.6,0.3,19.2,0.4,28.8c0.2,18.6,0.2,37.2,0.4,55.8c0,0.7,0.4,1.4,0.5,1.6c8.2-0.6,16-1.1,23.9-1.6c0.2-1.1,0.4-2.2,0.5-3.3
				c1.1-22.2,2.3-44.3,3.3-66.5c0.7-14.9,1.1-29.8,1.6-44.6c0.3-9.1,0.8-18.3,1.1-27.4c0.3-9.4,0.8-18.8-1.5-28.3
				c2.1-1.4,4.2-1.3,6.5-0.1c2.2,1.2,1.5,3.1,1.1,4.9c-0.2,0.9-0.1,1.9-0.1,2.8c-0.1,5.6-0.1,11.1-0.2,16.7
				c-0.1,2.6-0.5,5.3-0.5,7.9c0,12.7,0,25.4,0,38.1c0,9.2-0.1,18.3-0.1,27.5c-0.1,7.4-0.3,14.9-0.2,22.3c0.1,11.2,0.4,22.3,0.6,33.5
				c0.1,5.9,0,11.7,0,18.1c10.9,0.7,21.6,1.2,32.5-1.4c0.1-1.8,0.4-3.3,0.4-4.9c0-5.7-0.2-11.5-0.2-17.2c0-10.7,0.2-21.4,0.2-32.1
				c0-22.6,0.1-45.3,0-67.9c-0.1-10.2-0.5-20.4-0.8-30.6c0-0.6-0.1-1.3,0.1-1.8c0.4-0.9,0.8-2.3,1.5-2.5s2,0.5,2.7,1.1
				c3.2,2.7,4,6.3,3.9,10.4c-0.3,12.4-0.6,24.8-0.6,37.2c0,13,0.4,26,0.6,39c0.2,8.8,0.6,17.6,0.7,26.5c0.1,12.1,0.1,24.2,0.2,36.3
				c0,1.5,0.2,2.9,0.3,4.4c4.1-0.3,7.7-0.7,11.2-0.6c3.6,0.1,7.2,0.7,11.4,1.2c0-2.6,0-4.6,0-6.6c-0.2-14-0.8-27.9-0.4-41.9
				c0.6-19.2,1.9-38.4,2.9-57.6c1-19.5,2.1-39,3.1-58.5c0.2-2.9,0.2-5.9,0.6-8.8c0.1-1.1,0.7-2.6,1.6-3.2c2.4-1.6,7.5,1.3,7.5,4.2
				c0,1.8-0.4,3.7-0.5,5.5c-0.4,11.3-0.6,22.6-1,33.9c-0.2,7-0.6,13.9-0.9,20.9c-0.4,9-0.7,18-1.2,26.9c-0.4,7.4-0.8,14.8-1.4,22.2
				c-0.6,8.5-1.6,16.9-1.9,25.4c-0.4,9.4-0.4,18.9-0.5,28.3c0,3.5,0.2,7,0.4,10.7c9.5,1.5,17.8-3.8,27.1-1.6c0.2-1.5,0.4-2.3,0.4-3
				c0.3-10.2,1-20.5,0.9-30.7c0-35.4-0.1-70.7-0.6-106.1c-0.3-20.2-0.7-40.3,0.3-60.5c0.8-17.2,1.1-34.4,1.6-51.6
				c0.6-19.7,1.8-39.4,1.8-59.1c0-19.9,1.3-39.7,2.3-59.5c0.2-4.7,0.5-9.5,0.7-14.4C1090.7,31.6,1089.5,31.6,1088.3,31.6z"/>
			<path class="st0" d="M875.9,26.7c3.3-0.9,6-1.7,9.4-2.7c0.1-1.9,0.3-3.7,0.4-5.9c-3.7-0.4-6.9-0.8-10.4,0.4
				C875.5,21.4,875.7,24,875.9,26.7z"/>
			<path class="st0" d="M1081.8,26.9c3.8-0.4,6.9-0.8,10.3-1.1c0-3.8,0-7.3,0-11.4c-2.4,0-4.3,0-6.3,0
				C1084.5,18.4,1083.2,22.3,1081.8,26.9z"/>
			<path class="st0" d="M1057.8-30.9c0.2,2.2,0.4,3.9,0.6,5.5C1059.8-28.7,1059.8-28.7,1057.8-30.9z"/>
			<path class="st0" d="M1079.9,422.1c-4,0.6-7.9,1.5-11.9,1.9c-7,0.6-13.9,0.1-20.8-0.9c-7.3-1.1-14.6-1.6-21.6,1.4
				c-5.7,2.5-11.6,3.4-17.6,3.9c-13.4,1.1-26.6-0.8-39.9-2.1c-5.1-0.5-9.8-0.1-14.6,1.2c-5.1,1.4-10,3.3-15.2,4.1
				c-7.8,1.2-15.7,1.3-23.6,0.6c-4.8-0.4-9.6-0.8-14.3-2c-5.7-1.4-11-0.6-16.4,1c-1.8,0.5-2.5,1.7-2.4,3.5c0.2,2.8,0.5,5.5,0.7,8.5
				c3,0,5.8,0,8.5,0c20.9,0,41.9,0,62.8-0.2c8.4-0.1,16.7-0.7,25.1-1c4.6-0.2,9.3,0,14-0.1c13-0.5,26-1.1,39-1.6
				c16.6-0.5,33.2-1,49.6-3.6c1-0.2,2-0.5,3.3-0.9c0-4.6,0-9.1,0-13.8C1082.8,422,1081.3,421.9,1079.9,422.1z"/>
			<path class="st0" d="M922.2-39.5c-2.5,2.2-4.2,3.6-6.1,5.2c1.5,1.3,2.6,2.3,3.7,3.3C923.9-32.7,922.3-35.7,922.2-39.5z"/>
			<path class="st0" d="M921.6-19.4c2.6-2.5,1.7-4.7,0.4-7C920.3-24.2,920-22.1,921.6-19.4z"/>
			<path class="st0" d="M927.4-22.6c0.2,2.1,0.1,4.2,0.1,6.4c0,4.6,0,9.2,0,14.4c1.2,0,2.7,0.1,4.2,0c3.5-0.3,7.1-0.8,10.6-1
				c13.9-0.9,27.7-1.8,41.6-2.5c8.3-0.4,16.7,0.1,25-1.6c1.7-0.3,3.4-0.3,5.1-0.3c11.9,0,23.8,0,35.8,0.1c1.5,0,2.9-0.1,5-0.2
				c-0.4-6.6-0.8-12.6-1.1-18.6c-0.4-6.1,1-12.3-0.8-18.8c-5.3,0-10.1,0.1-14.9,0c-9.4-0.2-18.8-0.6-28.2-0.7
				c-5.9,0-11.7,0.6-17.6,0.7c-6.5,0.2-12.9,0.2-19.4,0.3c-4.2,0.1-8.3,0.2-12.5,0.4c-9.7,0.5-19.5,0.9-29.2,1.6
				c-3.7,0.3-4.4,1-3.9,4.3C927.7-33,926.8-27.8,927.4-22.6z"/>
			<path class="st0" d="M887.4,8.4c0.5-1.1,1.9-2.5,2.9-2.5c0.9,0,2.1,1.5,2.8,2.6c0.7,1.3,1,2.8,1.5,4.6c5-0.4,9.7-0.7,14.6-1.1
				c0.4-1.1,0.6-2.1,1.2-3c0.6-1,1.4-2.4,2.3-2.5c0.9-0.1,2,1,2.9,1.8c0.4,0.4,0.6,1.1,0.9,1.6c0.8,2.2,2.3,3.1,4.6,3.1
				c6.7,0.2,13.3,0.6,20,0.7c5.3,0.1,5.3-0.1,7.2-4.9c0.2-0.4,0.6-0.7,1.4-1.5c1.4,1.1,3.1,2,3.9,3.4c1.3,2.2,3,2.8,5.4,2.6
				c3.4-0.2,6.8-0.1,10.2-0.2c5.7-0.1,11.4-0.3,17.1-0.5c0.9-2.3,1.4-4.4,2.5-6.2c1.5-2.4,3.6-2.4,5.1,0.1c1,1.7,1.5,3.6,2.3,5.7
				c10,0,20,0,30.1,0c0.7-1.8,1.1-3.3,1.8-4.6c1.3-2.4,3.5-2.7,5.2-0.6c1,1.1,1.5,2.6,2.3,4.2c7.1-0.4,14.4-0.7,21.6-1.3
				c1.1-0.1,2.3-1.3,3.1-2.3c1.1-1.3,1.6-3.2,3.7-3.1c2.4,0.2,2.4,2.4,3.1,4.1c0.1,0.1,0.2,0.2,0.7,0.9c4.2-0.1,8.8,1.8,12.2-3
				c0.4-0.6,2.8-0.6,3.2-0.1c2.3,3.3,5.5,2.5,9.1,2.5c-0.3-3.3-0.7-6.3-0.9-8.9c-1-0.3-1.3-0.5-1.6-0.5c-19.8-1-39.6-2.4-59.5-2.1
				c-7.3,0.1-14.6,0-21.8,0.2c-5.4,0.2-10.8,0.6-16.2,0.9c-13.9,0.7-27.9,1.6-41.8,2.2c-18.3,0.8-36.5,1.4-54.8,2.1
				c-6.5,0.3-13,0.9-19.5,1.4c-0.6,0-1.1,0.5-2.1,1c0.2,2.6,0.5,5.3,0.7,8.1c4.2,0,7.9,0,11.6,0C886.8,11.3,886.7,9.7,887.4,8.4z"/>
			<path class="st0" d="M903.7-3c0.1,0.4,0.2,0.8,0.4,1.2c6.3-0.1,12.7,1,19-0.4c0-4.7,0-8.8,0-13.1c-3.1-0.2-5.2,1.4-6.4,3.5
				c-2.5,4-6.2,5.9-10.3,7.5C905.5-4,904.6-3.5,903.7-3z"/>
			<path class="st0" d="M897.2-2.1c1-2.5,4.5-3.4,3.1-7.2C895.7-6.7,895.7-6.7,897.2-2.1z"/>
			<path class="st0" d="M890.5-9.8c7.5-1.3,8.7-3,6.6-9.6c-5.9,6.2-12.9,11-17.8,18.4C884.3-1.4,888.5-4.7,890.5-9.8z"/>
			<path class="st0" d="M907.7-10.1c4.9-2.5,6.9-6,5.4-9C907.3-17,906-15,907.7-10.1z"/>
			<path class="st0" d="M912.6-31.1c-4.4,3-9.3,4.6-12.1,9.4c1.6,1.1,2.9,2,4.2,2.9C908.9-21.9,914.5-23.7,912.6-31.1z"/>
			<g>
				<path d="M507.3,26.1c-2.2,0.2-4.3,3.1-4.1,5.9c0.1,2.9,2.4,4.8,5.2,4.6c2.5-0.2,4.9-2.7,4.9-4.8C513.2,29.6,509.4,26,507.3,26.1
					z"/>
				<path d="M528.3,38.6c1.4-0.2,3-1.3,4-2.5c1.2-1.3,1.4-3.3,0.1-4.7c-0.9-0.9-2.3-1.7-3.5-1.7c-0.8,0-1.8,1.4-2.4,2.3
					c-0.5,0.9-0.7,2-0.8,2.4C525.6,37,526.2,38.9,528.3,38.6z"/>
				<path d="M1571.6,276c-8.1,0.1-16.1,0-24.2,0.3c-14.1,0.5-28.2,1.4-42.3,1.9c-12.4,0.5-24.8,0.8-37.2,1.2
					c-10.1,0.4-20.1,1.1-30.2,1.3c-15.7,0.3-31.3,0-47,0.2c-26.5,0.3-53,0.8-79.5,1.1c-18,0.2-35.9,0-53.9-0.1
					c-9.9,0-19.8-0.3-29.7-0.1c-16.9,0.4-33.8,1.4-50.7,1.7c-15,0.3-30.1-0.1-45.1,0.1c-7.3,0.1-14.5,0.8-21.8,1.1
					c-4.7,0.2-9.5,0-14.2,0c-0.9-7,1.9-144.9,3.1-148.9c11.6-0.7,23.3-1.3,35.4-2c-0.5,1.5-0.6,2.6-1.1,3.5
					c-4,7.5-7.9,15.1-12.2,22.5c-1.5,2.6-1.8,5.1-1.6,7.9c0.4,6.2,1,12.4,1,18.5c0,12.2-0.4,24.5-0.5,36.7c0,11.6,0.3,23.3,0.3,34.9
					c0,3.6-0.3,7.1-0.4,10.7c-0.1,3.5,1.1,4.8,4.5,5.2c0.9,0.1,1.9,0,2.8,0c12.5-0.3,25.1-0.6,37.6-0.8c25.3-0.4,50.5-0.6,75.8-1.1
					c10.2-0.2,20.4-0.8,30.7-1.3c2.4-0.1,3.7-1.2,3.9-3.6c0.2-3.4,0.2-6.7,0-10.1c-0.3-7.7-0.8-15.5-1-23.2
					c-0.2-12.1-0.2-24.1-0.3-36.2c-0.1-5-0.2-9.9-0.5-14.9c-0.5-7.4-1.2-14.8,0.4-22.2c0.2-1.1-0.3-2.5-0.9-3.5
					c-1.1-1.8-2.6-3.5-4-5.1c-4-4.6-8-9.1-11.9-13.7c-1.2-1.3-2.1-2.9-3.6-4.9c7.4-0.3,13.9-0.7,20.3-0.8c7.7-0.1,15.5,0.3,23.2,0.2
					c9.5-0.1,18.9-0.6,28.4-0.8c13.2-0.3,26.4-0.6,39.5-0.9c14.6-0.3,29.2-0.6,43.7-0.6c14.6,0,29.1,0.6,43.7,0.8
					c7.9,0.1,15.8-0.1,23.7-0.1c12.9,0,25.7,0.2,38.6,0.1c10.7-0.1,21.4-0.5,32.1-0.8c8.5-0.2,17-0.5,25.5-0.9
					c0.9,0,1.8-0.6,3.6-1.2c-4.2-2.2-7.8-2.5-11.2-2.7c-6.6-0.3-13.3,0-20,0c-4.6,0-9.2-0.1-13.5-0.1c-0.3-0.9-0.5-1.2-0.5-1.5
					c0-1.5,0-3.1,0-4.6c0-3.3-1.4-4.5-4.6-4c-2.4,0.4-4.8,1.2-7.3,1.5c-3,0.4-6,1.4-9.5,0c-0.4-10.6-0.7-21.3-1.3-32
					c-0.1-3,0.7-4.8,3.3-6.4c8.4-4.9,15-12,18.9-20.7c5.2-11.5,5.8-23.7,0.9-35.7c-2.3-5.5-5.2-10.8-10.1-14.3
					c-4.8-3.3-10.3-5.7-15.5-8.4c-0.7-0.3-1.5-0.7-2.2-0.5c-0.8,0.2-1.9,0.8-2.1,1.4s0.5,1.7,1.1,2.2c0.5,0.5,1.5,0.4,2.2,0.7
					c6,2.5,12.3,4.9,16.8,9.7c8.9,9.4,11,20.9,8.7,33.3c-0.7,3.8-1.6,7.8-3.6,11c-9,14.3-21.8,23.2-38.7,25.3
					c-5.8,0.7-11.8,1.2-17.6,0.9c-7.4-0.4-14.9-1.1-22.1-2.6c-8-1.7-14.6-6.4-21.1-11.4c-7.4-5.8-10.5-13.4-10.4-22.3
					c0.1-10.9,4.3-20.6,10.9-29.1c6.6-8.5,15.9-13.2,26-16.2c7.3-2.2,14.9-3,22.5-2.8c1.3,0,2.6-0.1,3.9-0.2
					c-0.5-1.5-1.2-2.5-2.1-2.6c-2.7-0.4-5.6-1.1-8.3-0.7c-6.7,0.9-13.6,1.9-20.1,3.8c-5.1,1.5-10.3,3.8-14.7,6.8
					c-13.8,9.3-20.4,23.1-21.8,39.3c-0.8,9.3,2.1,17.8,9.3,24.4c1.8,1.7,3.7,3.3,5.6,4.8c1.3,1.1,1.9,2.3,1.4,4.1
					c-2.5,8.2-4.8,16.4-7.4,24.5c-1.6,4.8-3.8,9.4-5.8,14.5c-2.2,0-4.2,0-6.2,0c-5.3,0.1-10.5,0-15.8,0.4c-4.9,0.4-5.4,1.4-4.5,6.3
					c0,0.3-0.2,0.6-0.4,1.3c-16.4-0.8-32.8,1.6-49.5,0.6c-0.1-1.1-0.2-1.7-0.2-2.3s0.2-1.2,0.2-1.8c-0.2-2.8-1-3.4-3.8-3.1
					c-2.1,0.3-4.2,0.5-7,0.9c0-10.8,0-21,0-31.3c1.3-0.3,2.5-0.6,3.7-0.9c7-2,14-4.1,20-8.5c4.8-3.5,9.5-6.9,12.3-12.4
					c4-7.7,5.4-15.9,5.6-24.3c0.4-16.9-6.4-31.3-17.5-43.8c-4.7-5.3-10.7-8.9-17.1-11.8c-0.9-0.4-1.9-0.6-2.9-0.9
					c-1,4.2-0.7,4.6,2.5,5.9c2,0.8,4.1,1.5,6,2.6c10,5.5,16.2,14.6,20.7,24.5c5.6,12.3,5.7,25.3,1.8,38.2c-1.5,4.9-3.3,9.8-7.4,13.2
					c-14.4,11.9-31.1,16.4-49.5,14.4c-11-1.2-21.5-4.8-31.7-9c-15.4-6.3-26.5-17.1-31-33.6c-4-14.8-1.4-28.6,7.8-40.9
					c4.4-5.9,10.3-10.3,16.8-13.8c4.4-2.4,9.1-4.1,14.2-4.1c3.7,0,7.4,0.1,11.2,0.3c4.1,0.1,8,0.7,11.4,3.3c0.4,0.3,1.1,0.1,2.1,0.2
					c-0.2-1.2-0.2-2.2-0.6-2.9c-1.4-2.3-3.7-3.3-6.2-3.6c-5.9-0.5-11.7-1.1-17.6-1.2c-3-0.1-6.1,0.7-9.2,1.3
					c-5.7,1.1-9.8,5.2-14.5,8.1c-15.7,9.7-21.1,24.9-20.6,42.2c0.4,14.7,6.2,27.9,17.6,37.7c3.8,3.3,4.1,6.4,2.7,10.5
					c-0.4,1-0.6,2.1-1,3.1c-4.4,11.6-8.9,23.2-13.1,34.8c-1.2,3.3-3,4.5-6.4,4.7c-12.7,0.6-25.4,1.5-38.1,2.2
					c-15.2,0.9-30.4,0.4-45.6-0.5c-4.9-0.3-9.8,0-14.9,0c-0.1,0.3-0.5,0.6-0.6,1.1c-0.7,3.8-3.2,4.9-6.7,4.8c-2.9,0-5.9,0.4-8.8,0.5
					c-9.9,0.5-19.8,1-30.2,1.6c-0.2-2.9-0.6-5.3-0.6-7.7c0.6-18.6,1.2-37.2,1.8-55.8c0.5-14.4,1.2-28.8,1.6-43.2
					c0.2-7.1-0.3-14.2-0.3-21.4c0-1.7,0-3.5,0.7-4.9c1-2.1,0.7-3.9-0.5-5.6c-3.5-4.9-7.1-9.8-10.6-14.7c-2-2.9-3.9-5.9-6-8.8
					c-0.7-1-1.5-2-2.4-2.8c-5.8-4.7-11.7-9.2-17.4-13.9c-2.7-2.2-5.2-4.4-8.9-2.1c-0.5,0.3-1.2,0.1-1.8,0.1c-6.4,0-12.7,0-19.1,0
					c-9-0.1-18-0.4-27-0.2c-12.6,0.3-25.1,1.1-37.7,1.3c-13.5,0.2-27,0.3-40.4,2.3c-2.4,0.4-4.8,0.4-7.5,0.7c0.7,3-0.4,4.8-2.5,6.3
					c-2.1,1.5-4,3.4-6,5.2C897-23,884.1-13.2,872.9-1.5c-2,2.1-3.4,4.1-3.2,7.3c0.8,8.8,1.9,17.6,0.7,26.5c-0.1,0.8,0,1.5,0,2.3
					c0.3,7.7,0.7,15.5,0.8,23.2c0.1,24.5,0,49,0,73.5c0,1.3-0.2,2.7-0.4,4.7c-20.3-0.3-40.3-0.5-60.7-0.8c0.4-1.7,0.5-2.7,0.8-3.7
					c1.4-5.1-0.2-7.3-5.5-7.2c-6.7,0.2-13.3,0.5-20,0.6c-3.5,0.1-4.2-0.4-4.8-3.7c-1.5-8.7-2.9-17.4-4.4-26.1
					c-0.3-2.1-0.5-4.2-0.8-6.4c0.9-0.4,1.4-0.8,2-0.9c8.2-2.4,15.5-6.3,22.1-11.5c5.1-4.1,10.2-8.4,12.7-14.6
					c3.5-8.7,5.5-17.7,5-27.2c-1.1-19.1-12.6-32.3-29.1-39.1c-0.6-0.2-1.3-0.6-1.8-0.5c-0.9,0.3-1.7,0.9-2.6,1.4
					c0.6,0.9,1.2,2.6,1.9,2.7c4.3,0.2,7.7,2.5,11,4.6c10,6.1,15.5,15,16.8,26.9c0.8,7.5-0.6,14.5-2.1,21.6
					c-1.1,5.2-3.4,9.9-7.1,13.9c-8,8.6-17.5,14.9-28.9,17.9c-7,1.8-14.2,3.5-21.4,4.3c-9.9,1.1-19.8,1.6-29.7-0.6
					c-8.5-1.9-16.4-5.6-24.2-9.4c-11.9-5.8-19.1-15.3-21.3-28.1c-1-5.8-0.3-12.1,0.3-18c0.3-2.8,1.9-5.5,3.3-8.1
					c5.2-9,13.4-14.6,22.5-18.8c12.7-5.8,26.1-8.7,40.2-8.6c4.3,0,8.3,0.8,11.9,3.2c0.7,0.4,1.5,0.5,2.6,0.9
					c-0.4-2.7-1.9-4.2-3.8-4.9c-3.3-1.2-6.7-2.7-10.2-2.8c-5.2-0.1-10.5,0.7-15.7,1.3c-2.6,0.3-5.2,0.8-7.7,1.6
					c-5.3,1.8-10.4,4-15.6,5.8c-9,3-16.7,7.9-23.2,14.7c-3.6,3.8-6.4,8.1-7.3,13.3c-0.8,4.2-0.9,8.6-1,12.9c-0.4,9,2.7,17,7.9,24.3
					c5.7,8,13.3,13.3,22.2,17.1c4.7,2,5,2.7,3.5,7.4c-1.8,5.8-3.7,11.5-5.6,17.2c-1.3,4-2.9,7.8-4.3,11.8c-0.7,2-1.9,3-4,3.4
					c-5.6,1.1-11.1,2.9-17,1.3c-0.4-0.1-0.9,0.2-1.5,0.4c-0.8,2.8-1.5,5.5-2.4,8.7c-24.9-0.2-106.2,1.3-108.6,0.8
					c-1.8-5.5-10.9-68.2-10.4-71.1c4.4-2.5,8.7-4.6,12.6-7.4c8.4-6.2,12.8-14.5,12.1-25.2c-0.2-2.6-0.2-5.3-0.4-7.9
					c-1.2-17.7-8.1-32.7-22.2-43.8c-7-5.5-15-8.7-23.8-9.7c-1.7-0.2-3.7-0.7-5.4,1.9c1.8,0.6,3.3,1.2,4.8,1.4
					c20.2,2.7,33,14.2,39.9,33c2.7,7.4,3.4,15,3.7,22.8c0.5,12.3-4.8,21.1-15.2,27.2c-7.3,4.3-15.4,5.8-23.5,7
					c-3.8,0.6-7.7,1-11.6,0.7c-7.1-0.5-14.2-1.6-21.3-2.6c-7-1-13.3-3.7-18.9-8.3c-6.8-5.6-12.1-12.3-16.3-20.1
					c-2.2-4.1-3.2-8.3-3-12.9c0.5-11,4.8-20.4,11.2-29.1c7.7-10.4,17.9-16.5,31.2-16.3c1,0,1.9-0.1,2.9-0.1c-0.4-1.2-1-1.6-1.6-1.9
					c-5.4-2-10.8-1.1-15.8,1.2C477.4-18.6,468-5,464.1,12.6c-1.3,5.6-2.2,11.6,0.1,17c2.9,6.8,6.3,13.5,11.8,18.8
					c2.1,2,4.1,4,5.7,5.6c-2.4,4.8-4.8,8.9-6.4,13.2c-2.2,5.8-3.7,11.8-5.6,17.7c-1,3.3-2.2,6.5-3.2,9.7c-3.2,10-6.4,20.1-9.5,30.1
					c-1.3,4.1-2.2,8.3-3.3,12.6c-3.1,0.1-5.7,0.2-8.4,0.2c-7.4,0.2-9.9,0.2-17.3,0.5c-3.6,0.1-3.9,0.7-3.1,4.9
					c3.6-0.3,7.3-0.7,11-0.8c5.3-0.1,5.5,0,10.8-0.1c3.4-0.1,6.8-0.8,8.9,2.8c6.1-3.7,6.1-3.7,11.3-3.7c10.2,0,20.5,0.1,30.7-0.1
					c17.8-0.3,35.7,0.4,53.5-0.8c3-0.2,5.4,0.3,7.4,2.9c1.8,2.2,3.3,2.1,4.7-0.3c1.3-2.3,3-2.7,5.4-2.7c8.4,0,16.7-0.1,25.1-0.4
					c1.6-0.1,3.3-0.1,4.9-0.2c18.3-0.2,36.5-0.8,54.8-1c11.6-0.1,23.2,0.3,34.8,0.3c17.4,0,34.7-0.3,52.1-0.2
					c22.5,0.2,45,0.7,67.4,1c18.1,0.2,36.3,0.4,54.4,0.6c1.1,0,2.1,0.2,3.9,0.3c0,3.2-0.1,6.4,0,9.6c0.3,13,0.9,26,1.1,39.1
					c0.1,10.1-0.2,20.1-0.4,30.2c-0.1,9-0.5,18-0.3,27c0.2,10.5,1,21.1,1.4,31.6c0.1,1.6-0.3,3.2-0.5,5.2c-3.2,0.2-6,0.5-8.8,0.5
					c-7,0-14-0.1-20.9-0.1c-20,0-40-0.1-60,0.3c-21.9,0.4-43.7,1.2-65.6,1.9c-15.4,0.4-30.7,0.7-46.1,1.3c-8,0.3-16.1,1.2-24.1,1.4
					c-11.2,0.3-22.3,0.4-33.5,0.3c-7.3-0.1-14.6-0.9-21.8-0.8c-23.1,0.3-46.2,1-69.3,1.4c-12.6,0.2-25.1,0.6-37.7,0.4
					c-10.4-0.1-20.8-1-31.1-0.1c-4.7,0.4-18.5,0.9-23.5,1.3c0.1,1.7,0.2,2.8,0.3,4.4c2.6-0.1,4.9-0.3,7.2-0.4c7.9-0.4,24.8-1,32.7-1
					c17.7-0.1,35.4,0.3,53,0.2c16.9-0.1,33.8-0.8,50.7-1c10.7-0.1,21.4,0.1,32.1,0.2c4.2,0,8.4,0.5,12.5,0.4
					c8.2,0,16.4-0.2,24.7-0.4c7.1-0.2,14.2-0.5,21.3-0.8c6.2-0.3,12.4-1,18.5-1.2c12.1-0.3,24.2-0.4,36.3-0.6
					c6.2-0.1,12.4-0.4,18.6-0.6c7.6-0.2,15.2-0.1,22.8-0.4c12.6-0.4,25.1-1.3,37.7-1.5c11.1-0.2,22.3,0.1,33.4,0.2
					c13.8,0.1,27.6,0.1,41.4,0.1c1.3,0,2.6,0.3,4.5,0.5c0,6.5-0.2,12.5,0,18.5c0.6,16.7,1.5,33.5,2.1,50.2
					c0.5,14.7,0.8,29.5,1.2,44.2c0.4,14.4,0.8,28.8,1.3,43.2c0.1,2,0.6,4,1.4,5.8c0.4,0.9,1.8,1.8,2.8,1.9c6.5,0.3,13,0.5,19.5,0.6
					c10.2,0.1,20.5,0,30.7,0c9.6,0.1,19.2,0.6,28.8,0.4c15.5-0.4,31-1.3,46.5-1.9c10.5-0.5,21.1-0.9,31.6-1.4
					c8.2-0.4,16.4-0.9,24.6-1.2c5.1-0.2,10.2-0.3,15.3,0c4.9,0.3,7.4-1.1,9.2-5.6c1.5-3.6,0.9-7.3,1-11c0.2-10.8,0.8-21.7,1-32.5
					c0.3-16,0.6-31.9,0.6-47.9c0-18.5-0.4-36.9-0.6-55.4c0-1.8,0-3.6,0-5.8c1.8-0.3,3.1-0.5,4.5-0.6c15.6-1.1,31.2-2.1,46.9-2
					c24.2,0,48.3,0,72.5-0.9c22.9-0.8,45.9-0.6,68.8-0.7c25.4-0.1,50.9,0,76.3-0.1c13.8-0.1,27.6-0.5,41.4-0.7
					c12.6-0.2,25.1-0.2,37.7-0.5c10.2-0.3,20.4-0.9,30.7-1.3c11.8-0.4,23.6-0.5,35.3-1c17.9-0.7,35.9-1.6,53.8-2.4
					c4.6-0.2,9.3-0.4,13.9-0.7c1.5-0.1,2.9-0.4,2.8-2.3C1574.6,275.9,1573,276,1571.6,276z M1430.6,89.3c7.7,3.3,14.8,8,23.3,8.7
					c8.3,0.7,16.7,1.9,25,1.6c8.3-0.2,16.5-1.9,25.5-3.1c-0.1,9.6,0.8,19.5,0.1,29.5c-28.7,0-56.9,0-85.8,0
					C1422.8,113.5,1426.6,101.7,1430.6,89.3z M1125.7,269.3c-1.2-3.1-1.5-25.4-0.5-33.7c6.1,10.6,8.3,21.6,11,33.2
					C1132.3,269,1128.9,269.2,1125.7,269.3z M1149.6,269c-2.2,0.1-4.3,0-7,0c-1.3-4.3-2.6-8.5-4-12.7c-2.7-8.4-5.3-16.8-8.5-25.1
					c-1.6-4.1-1.4-8.2-1.8-12.3c-0.1-1.9,1.2-2.7,2.7-3.4c4.6-1.9,9.1-3.9,13.7-5.7c3-1.1,6.2-1.8,9.7-2.8c-0.1,1.1,0,2.1-0.2,3
					c-2.3,9.8-4.5,19.6-7.2,29.3c-1.1,3.9-0.5,7.2,2,10c3.4,3.8,7.2,7.1,11.4,11.1C1157.6,270.3,1159.8,268.5,1149.6,269z
					 M1236.4,215.6c-2.4,3.7-4.4,7.4-7,10.6c-2,2.5-5.3,1.9-8.2,1.8c-2.5-0.1-2.6-2.3-3.3-3.9c-0.3-0.9-0.7-1.7-0.9-2.6
					c-0.6-2.7-1.1-5.4-1.7-8.6C1222.8,212.5,1229.4,212.8,1236.4,215.6z M1217.1,208.2c8-5.4,39.1-16.9,45.7-16.7
					c-2.4,4.4-4.6,8.7-7.1,12.7c-0.5,0.8-2,0.9-3,1.4c-0.1,0-0.3,0-0.4-0.1c-6.3-3.9-9.6,0.3-12.7,4.8c-0.2,0.2-0.4,0.4-0.9,0.8
					C1231.6,210.2,1224.3,209.2,1217.1,208.2z M1219.9,232.5c0.1,0.3,0.1,0.7,0.2,1c-6.1,4.4-12.1,9-18.3,13.3
					c-4.8,3.3-4.9,3-9.6-0.4c-3.7-2.7-7.7-5.2-11.5-7.9c-1.2-0.8-2.3-1.8-3.4-3.2C1191.6,233.9,1205.7,231.9,1219.9,232.5z
					 M1186.1,229.7c2.7-6.9,5.2-13.2,7.7-19.5c0.3,0,0.5,0.1,0.8,0.1c1.2,6,2.4,12,3.6,18.6C1194.3,229.2,1190.6,229.4,1186.1,229.7
					z M1185.3,219.1c-1,2.4-2.1,4.8-3,7.3c-1.7,4.5-2,4.7-7.7,4c-2.1-6.5-4.3-13.2-6.5-20.1c7.5-1.6,14.6-3,22.9-4.8
					C1188.7,210.8,1187,214.9,1185.3,219.1z M1169,226.5c0.9,3.1,0.5,4-3.2,6.3c4,3.8,1.8,7.4,0.4,11.1c-1,2.6-1.9,5.2-3,8.1
					c-4.7-2.2-7.8-6-11.2-9.3c-0.6-0.6-0.5-2.4-0.3-3.5c2.7-11,5.5-21.9,8.4-32.8c0.1-0.4,0.4-0.8,1.1-1.9c1.5,3.9,2.9,7.2,4.1,10.6
					C1166.7,218.8,1167.8,222.7,1169,226.5z M1204,268c-12.9,0-26.6,0-41,0c3.1-9.7,6.2-19,9.2-28.2c8.8,5.8,16.9,11.1,24.6,16.2
					c8.3-3,14.4-8.2,21.6-12.4c-1.6,2.5-3.2,4.9-4.9,7.4c-2.5,3.7-5.2,7.3-7.5,11.1C1205,263.6,1204.8,265.6,1204,268z
					 M1213.9,264.8c-0.9,0.6-1.8,1.9-3.7,0.3c11.7-18.1,24.2-35.7,35.3-54.5c0.1,1.1,0.3,2.3,0.3,3.4c-0.2,8.5-0.5,17-0.7,25.5
					c0,2.1-0.9,3.5-2.5,4.6c-5.9,4.2-11.9,8.4-17.8,12.7C1221.2,259.5,1217.6,262.2,1213.9,264.8z M1269.9,237.5
					c0.2,9,0.5,17.9,0.7,27.6c-14.8,1.3-29.5,2.5-45.1,2c1.2-1.3,1.8-2.1,2.6-2.7c6.5-5.3,13.5-9.8,19.1-16.2c1.3-1.5,3.9-2,6.7-3.3
					c0.6-10.8-0.2-22.2-1-34.4c6.3,0.8,11.2,3.1,15.7,6.2c0.9,0.6,1.2,2.4,1.3,3.7C1270,226.1,1269.8,231.8,1269.9,237.5z
					 M1269.8,211.2c-2.6-1.1-4.4-1.9-6.3-2.8c1.8-4.4,3.4-8.5,5-12.5C1270.1,200.6,1270,205.5,1269.8,211.2z M1268.7,167.8
					c0,2.5-0.1,5,0,7.4c0.3,5.1,0,5.6-4.8,7.7c-6,2.6-12,5.1-18,7.6c-12,5-24,10-36,15.1c-2.5,1-2.7,1.9-1.4,4.2
					c2.2,4.1,4.5,12.6,4.7,17.8c-0.4,0.1-0.8,0.4-1.3,0.4c-2.6,0-5.3,0-8.5,0c-0.4-1.2-1.1-2.7-1.4-4.3c-1.2-5.3-2.4-10.6-3.4-15.9
					c-0.3-1.5,0-3.1,0.2-4.6c0.3-3.1-1.4-4.7-4.4-4c-4,1-8,2.3-12.1,3.3c-4.1,1-8.1,2-12.2,2.7c-3.7,0.6-4,0.3-5.5-3.3
					c-1.8-4.1-2.4-4.4-6.6-2.4c-5.7,2.8-11.4,5.4-17.6,7.1c-3.3,0.9-6.3,2.6-9.4,4c-1.7,0.7-3.4,1.3-5.7,2.2
					c-0.2-2.7-0.4-4.8-0.4-6.9c0.1-9.9,0.4-19.8-0.7-29.7c-0.3-2.4,0-4.9,0-7.8c3.7-0.4,6.4-0.8,9.2-0.9
					c44.1-1.8,88.2-3.6,132.3-5.4c0.9,0,1.8,0.2,3.2,0.4C1268.7,164.5,1268.7,166.1,1268.7,167.8z M1263.9,85.9
					c9.1,4.6,18,8.8,27.6,11.6c9.5,2.8,19.2,2.8,29.4,3.5c0,8.8,0,17.2,0,26.2c-5.3,0.2-10.7,0.6-16,0.7c-11.3,0.1-22.6-0.1-33.9,0
					c-4.9,0.1-9.9,0.6-14.8,0.9c-1.6,0.1-3.3,0-5.3,0C1253.1,113.4,1257.6,99.5,1263.9,85.9z M1141,131c1.6-3.3,3.8-4.3,7.5-3.7
					c3.2,0.5,6.5,0.3,9.7,0.4c16.1,0.9,32.2,1.3,48.3,0.7c10.2-0.4,20.4-1.2,30.6-2c2.9-0.2,4.8,0.4,6.7,2.8
					c6.9,8.4,14,16.5,21.1,24.7c0.7,0.8,1.1,1.7,2.1,3.1c-6.4,0.4-12.2,0.6-18,1c-11.7,0.8-23.5,1.6-35.2,2.3
					c-1.9,0.1-3.7,0.2-5.6,0.2c-23.4,0.8-46.8,1.7-70.1,2.5c-4.2,0.2-8.3,0.4-13.5,0.7c2.3-4.5,4-7.9,5.7-11.3
					C1133.8,145.4,1137.5,138.3,1141,131z M465.1,136.6c6.2-9.4,13.1-16.7,20.4-24.9c0.8,1.9,1.5,2.8,1.5,3.9c0.2,2.3-0.1,4.7,0.2,7
					c0.4,3.9,2.3,6,6.2,6.2c4.5,0.3,9,0.4,13.4,0.5c7.6,0.1,15.1-0.1,22.7,0.2c3.3,0.1,5.5-1.8,7.8-3.3c1.3-0.8,1.5-3.5,1.8-5.4
					c0.3-2.5,0.2-5.2,0.3-7.7c0.4-0.1,0.8-0.2,1.2-0.3c4.1,7.3,8.1,14.7,12.5,22.6C523.7,137,494.9,135.7,465.1,136.6z M506.3,98.2
					c-3.4,0.4-6.8,0.6-10.2,0.6c-3.1,0-3.7-0.7-3.6-3.9c0-1.2,0.1-2.5,0.6-3.6c0.4-0.8,1.3-1.9,2.1-2c12.4-1.5,24.9-2.4,37.4-2.1
					c0.3,0,0.5,0.3,1,0.5c0.1,3.1,0.2,6.2,0.3,9.6c-4.4,0.9-8.5,1.5-12.7,0.7c-1.3-0.3-2.8-0.5-4.1-0.4c-2,0.1-2.6,1.4-1.6,3.2
					c2.5,4.6,2.4,5.4-1.5,8.9c0.5,1.8,1.7,2.8,3.7,2.6c3.1-0.2,6.2-0.5,9.3-0.7c1.8-0.1,3.7,0,6.2,0.1c-0.1,3.1-0.1,5.9-0.2,9.2
					c-7,1.8-13.9,0-20.8,0.5c-6.8,0.4-13.5,0.4-20.9,0.7c0.1-2.9,0.2-5.3,0.3-7.8c4.4-0.6,8.4-1.1,12.4-1.7c4.1-0.5,4.8-1.3,5.5-5.3
					c0.3-1.5,0.8-3,1.2-4.5C511.5,99.1,510.1,97.7,506.3,98.2z M549.2,117c-1.4-1.9-2.4-4-4-5.7c-4.9-5.2-4.9-11.4-4.3-17.8
					c0.2-2.5,0.5-4.9,0.5-7.4c0-2.1-0.7-3.6-3.2-3.6c-5.4,0.1-10.8,0.2-16.1,0.4c-4,0.1-8,0.5-12,0.7c-1.5,0.1-3.1,0-4.6,0.3
					c-5.2,1.1-10.3,1.7-15.9,0.4c-0.4,4.6-0.8,8.8-1.1,13.1c-1.3,0.2-2.4,0.3-4,0.6c2.2,3.8-0.1,5.9-2.3,8.2
					c-5.6,6.2-11.1,12.5-16.7,18.8c-0.4,0.4-0.9,0.7-2.1,1.7c6.3-20.1,12.8-39,20.4-58c21.6,8.6,43.2,12,66,7.6
					c1.8,15.9,3.6,31.7,5.6,48.7C552.8,121.9,551,119.5,549.2,117z M770.2,134.1c-15.5,0-31,0-46.5,0c-4.5,0-9,0.3-13.5,0.4
					c-2.8,0.1-5.5,0-8.9,0c0-2.1-0.2-3.4,0-4.5c2.9-12,7.1-23.6,10.6-35.7c18.1,6.4,36.1,5.4,54.5,3.6c1.6,4.5,2.9,9,3.1,13.5
					c0.2,6.4,1.6,12.6,3,18.8c0.2,0.9,0.4,1.8,0.6,3.1C772.1,133.6,771.2,134.1,770.2,134.1z M1057.9-41.7c0-0.3,0.1-0.6,0.3-1.3
					c0.8,0.4,1.6,0.6,2.3,1c7.1,5.2,13.8,10.8,18.6,18.5c3.6,5.9,7.8,11.4,12.1,17.6c-4.9,0.8-6.8,0-8-3.6c-1-3-2-5.3-5.9-5.3
					c-2.3,0-2.5-2.5-2.6-4.3c-0.1-1.4,0.4-2.8,0.4-4.1c0-3.7-0.8-4.4-4.4-3.6c-0.6,0.1-1.1,0.3-1.6,0.5c-2.1-1.6-2.2-3.7-2.4-5.9
					c-0.2-3-1-3.7-3.5-3.8C1058-36.3,1057.9-36.4,1057.9-41.7z M1075.3-5.8c-2.4-0.7-2.4-2.1-1.8-4.2
					C1075.5-8.2,1075.5-8.2,1075.3-5.8z M1059.5-14.9c3.2,2.9,7.6,3.4,8.4,8.6c-3.2-0.2-6-0.4-9.2-0.6c0.4-1.9,0.6-3,0.8-4.2
					C1059.5-12.1,1059.5-13.1,1059.5-14.9z M1065.4-20.7c0.3,0,0.7,0,1,0c0,1.4,0,2.9,0,4.9C1064.5-17.5,1064.5-19,1065.4-20.7z
					 M1058.3-25.3c-0.2-1.7-0.3-3.3-0.6-5.5C1059.8-28.7,1059.8-28.7,1058.3-25.3z M930.8-42.6c9.7-0.7,19.5-1.1,29.2-1.6
					c4.2-0.2,8.3-0.4,12.5-0.4c6.5-0.1,13-0.1,19.4-0.3c5.9-0.2,11.7-0.7,17.6-0.7c9.4,0,18.8,0.5,28.2,0.7c4.8,0.1,9.6,0,14.9,0
					c1.9,6.5,0.5,12.7,0.8,18.8c0.4,6,0.7,12,1.1,18.6c-2,0.1-3.5,0.2-5,0.2c-11.9,0-23.8-0.1-35.8-0.1c-1.7,0-3.4,0-5.1,0.3
					c-8.3,1.7-16.6,1.2-25,1.6C969.7-4.8,955.9-3.9,942-3c-3.5,0.2-7.1,0.7-10.6,1c-1.5,0.1-3,0-4.2,0c0-5.2,0-9.8,0-14.4
					c0-2.1,0.1-4.3-0.1-6.4c-0.6-5.2,0.2-10.4-0.5-15.6C926.5-41.6,927.2-42.3,930.8-42.6z M922.2-39.5c0.2,3.8,1.7,6.8-2.4,8.5
					c-1.1-1-2.3-2-3.7-3.3C917.9-35.9,919.6-37.3,922.2-39.5z M921.6-19.4c-1.6-2.7-1.3-4.9,0.4-7C923.3-24.1,924.2-21.9,921.6-19.4
					z M916.6-11.9c1.2-2,3.3-3.6,6.4-3.5c0,4.3,0,8.5,0,13.1c-6.3,1.4-12.7,0.3-19,0.4c-0.1-0.4-0.2-0.8-0.4-1.2
					c0.9-0.5,1.7-1,2.7-1.4C910.5-6,914.2-7.9,916.6-11.9z M907.7-10.1c-1.7-4.8-0.4-6.8,5.4-9C914.6-16.1,912.6-12.7,907.7-10.1z
					 M912.6-31.1c1.9,7.4-3.7,9.2-7.9,12.3c-1.3-0.9-2.7-1.8-4.2-2.9C903.3-26.5,908.3-28.1,912.6-31.1z M897.2-2.1
					c-1.6-4.5-1.5-4.6,3.1-7.2C901.7-5.5,898.3-4.7,897.2-2.1z M897.1-19.4c2.1,6.6,1,8.3-6.6,9.6c-2,5.1-6.3,8.4-11.3,8.8
					C884.2-8.3,891.2-13.1,897.1-19.4z M874.1,5.2c1-0.5,1.5-0.9,2.1-1c6.5-0.5,13-1.1,19.5-1.4C914,2,932.2,1.5,950.5,0.7
					c13.9-0.6,27.9-1.4,41.8-2.2c5.4-0.3,10.8-0.8,16.2-0.9c7.3-0.2,14.6-0.1,21.8-0.2c19.9-0.3,39.7,1.1,59.5,2.1
					c0.3,0,0.6,0.2,1.6,0.5c0.3,2.6,0.6,5.6,0.9,8.9c-3.6,0.1-6.8,0.8-9.1-2.5c-0.4-0.5-2.8-0.5-3.2,0.1c-3.3,4.7-7.9,2.9-12.2,3
					c-0.6-0.7-0.7-0.8-0.7-0.9c-0.6-1.7-0.6-3.9-3.1-4.1c-2.1-0.2-2.6,1.8-3.7,3.1c-0.8,1-2,2.2-3.1,2.3c-7.2,0.6-14.5,0.9-21.6,1.3
					c-0.8-1.6-1.4-3-2.3-4.2c-1.8-2.1-3.9-1.8-5.2,0.6c-0.7,1.3-1.1,2.8-1.8,4.6c-10.1,0-20.1,0-30.1,0c-0.8-2.1-1.3-4-2.3-5.7
					c-1.4-2.5-3.6-2.6-5.1-0.1c-1.1,1.8-1.6,4-2.5,6.2c-5.7,0.2-11.4,0.4-17.1,0.5c-3.4,0.1-6.8,0-10.2,0.2
					c-2.4,0.1-4.1-0.4-5.4-2.6c-0.9-1.4-2.6-2.3-3.9-3.4c-0.8,0.8-1.2,1.1-1.4,1.5c-1.9,4.8-1.9,5-7.2,4.9c-6.7-0.1-13.3-0.5-20-0.7
					c-2.3-0.1-3.8-0.9-4.6-3.1c-0.2-0.6-0.4-1.3-0.9-1.6c-0.9-0.8-2-1.9-2.9-1.8C911.9,6.6,911,8,910.4,9c-0.5,0.9-0.8,2-1.2,3
					c-4.9,0.4-9.7,0.7-14.6,1.1c-0.6-1.7-0.8-3.3-1.5-4.6c-0.6-1.1-1.8-2.6-2.8-2.6s-2.4,1.4-2.9,2.5c-0.7,1.3-0.6,3-0.9,4.9
					c-3.7,0-7.3,0-11.6,0C874.6,10.5,874.4,7.8,874.1,5.2z M1092.1,14.3c0,4.1,0,7.6,0,11.4c-3.4,0.4-6.5,0.7-10.3,1.1
					c1.4-4.6,2.6-8.5,3.9-12.6C1087.7,14.3,1089.7,14.3,1092.1,14.3z M1076.3,22.8c-0.1,2.7-0.8,3.3-3.4,2.9
					c-2.1-0.3-4.2-0.7-6.9-1.2c0.4-2.9,0.6-5.8,1.3-8.5c0.2-0.7,1.4-1.6,2.3-1.7c1.9-0.3,3.9-0.1,6.8-0.1
					C1076.3,17.6,1076.4,20.2,1076.3,22.8z M1059.9,24.4c-9.6,1.1-18.5,3.2-27.8,2.9c1.1-3.8,2.1-7.3,3.3-11.4
					c7.5-0.6,15.1-1.1,23.1-1.7C1058.9,17.8,1059.4,20.8,1059.9,24.4z M1019.2,25.5c-7.2-1.7-14.3-1.9-21.6-1
					c-1.2,0.1-2.4,0.3-4.3,0.5c0.6-2.8,1-5.1,1.6-7.8c10.2-1.1,20.4,0.1,30.5-0.3c0.4,0.9,0.7,1.2,0.8,1.7
					C1027.8,25.8,1026.4,27.3,1019.2,25.5z M980.1,28c-6.1-0.4-12.2-1.8-18.3-3c-2.1-0.4-4.1-1.3-6.4-2.1c0.3-1.6,0.5-3.1,0.8-4.9
					c10.5-0.3,20.4-0.6,30-0.9c0.5,0.8,0.8,1.2,1,1.6C988.9,25.4,987,28.4,980.1,28z M949.1,23.2c-8.5,2.8-16.5,5.3-25.1,4.8
					c-1.8-0.1-3.7,0-5.5-0.2c-2-0.1-2.7-1.2-2.1-3.2c0.8-2.3,1.6-4.6,2.6-7.4c9.4,0.3,18.7,0.6,28.4,0.9
					C947.8,19.6,948.4,21.3,949.1,23.2z M910.6,26c-6.5-0.7-12.3-1.3-18.5-1.9c1.5-6.3,1.5-6.4,7.1-7.1c3.2-0.4,6.4-0.4,10.2-0.6
					C909.8,19.7,910.1,22.5,910.6,26z M885.7,18.1c-0.2,2.2-0.3,4-0.4,5.9c-3.4,1-6.2,1.8-9.4,2.7c-0.2-2.7-0.4-5.3-0.6-8.2
					C878.8,17.3,882,17.7,885.7,18.1z M1084.6,435.9c-1.3,0.3-2.3,0.7-3.3,0.9c-16.4,2.6-33,3.1-49.6,3.6c-13,0.4-26,1.1-39,1.6
					c-4.6,0.2-9.3,0-14,0.1c-8.4,0.3-16.7,0.9-25.1,1c-20.9,0.2-41.9,0.1-62.8,0.2c-2.8,0-5.5,0-8.5,0c-0.2-2.9-0.5-5.7-0.7-8.5
					c-0.1-1.8,0.6-2.9,2.4-3.5c5.4-1.6,10.7-2.4,16.4-1c4.6,1.1,9.5,1.5,14.3,2c7.9,0.7,15.8,0.6,23.6-0.6
					c5.2-0.8,10.1-2.8,15.2-4.1c4.8-1.3,9.5-1.7,14.6-1.2c13.2,1.3,26.5,3.2,39.9,2.1c6-0.5,11.9-1.5,17.6-3.9
					c6.9-3,14.3-2.5,21.6-1.4c6.9,1,13.9,1.6,20.8,0.9c4-0.4,7.9-1.3,11.9-1.9c1.5-0.2,3,0,4.7,0
					C1084.6,426.8,1084.6,431.2,1084.6,435.9z M1091.8,45.9c-1,19.8-2.3,39.6-2.3,59.5c0,19.7-1.2,39.4-1.8,59.1
					c-0.5,17.2-0.8,34.4-1.6,51.6c-0.9,20.2-0.6,40.3-0.3,60.5c0.5,35.4,0.5,70.7,0.6,106.1c0,10.2-0.6,20.5-0.9,30.7
					c0,0.7-0.2,1.5-0.4,3c-9.3-2.2-17.7,3.1-27.1,1.6c-0.1-3.7-0.4-7.2-0.4-10.7c0.1-9.4,0.1-18.9,0.5-28.3
					c0.4-8.5,1.3-16.9,1.9-25.4c0.5-7.4,1-14.8,1.4-22.2c0.5-9,0.8-18,1.2-26.9c0.3-7,0.6-13.9,0.9-20.9c0.4-11.3,0.7-22.6,1-33.9
					c0.1-1.9,0.5-3.7,0.5-5.5c0-2.9-5.2-5.8-7.5-4.2c-0.9,0.6-1.4,2-1.6,3.2c-0.4,2.9-0.4,5.9-0.6,8.8c-1,19.5-2.1,39-3.1,58.5
					c-1,19.2-2.4,38.4-2.9,57.6c-0.4,13.9,0.3,27.9,0.4,41.9c0,2,0,4,0,6.6c-4.1-0.4-7.7-1.1-11.4-1.2c-3.5-0.1-7.1,0.4-11.2,0.6
					c-0.1-1.5-0.3-2.9-0.3-4.4c-0.1-12.1,0-24.2-0.2-36.3c-0.1-8.8-0.5-17.6-0.7-26.5c-0.3-13-0.6-26-0.6-39
					c0-12.4,0.3-24.8,0.6-37.2c0.1-4.1-0.7-7.7-3.9-10.4c-0.7-0.6-2-1.4-2.7-1.1c-0.7,0.2-1.2,1.5-1.5,2.5c-0.2,0.5-0.1,1.2-0.1,1.8
					c0.3,10.2,0.8,20.4,0.8,30.6c0.1,22.6,0,45.3,0,67.9c0,10.7-0.2,21.4-0.2,32.1c0,5.7,0.2,11.5,0.2,17.2c0,1.5-0.2,3-0.4,4.9
					c-10.9,2.6-21.6,2.2-32.5,1.4c0-6.4,0.1-12.3,0-18.1c-0.2-11.2-0.5-22.3-0.6-33.5c-0.1-7.4,0.2-14.9,0.2-22.3
					c0.1-9.2,0.1-18.3,0.1-27.5c0-12.7,0-25.4,0-38.1c0-2.6,0.4-5.3,0.5-7.9c0.1-5.6,0.1-11.1,0.2-16.7c0-0.9-0.1-1.9,0.1-2.8
					c0.3-1.8,1.1-3.7-1.1-4.9c-2.2-1.2-4.3-1.3-6.5,0.1c2.3,9.5,1.8,18.9,1.5,28.3c-0.3,9.1-0.7,18.3-1.1,27.4
					c-0.5,14.9-0.9,29.8-1.6,44.6c-1,22.2-2.2,44.3-3.3,66.5c-0.1,1.1-0.3,2.1-0.5,3.3c-8,0.5-15.8,1.1-23.9,1.6
					c-0.1-0.3-0.5-1-0.5-1.6c-0.1-18.6-0.2-37.2-0.4-55.8c-0.1-9.6-0.4-19.2-0.4-28.8c-0.1-15.7,0-31.3-0.1-47c0-4.3-0.2-8.7-0.5-13
					c-0.1-2-2.5-3.6-4.8-3.4c-2,0.2-3.6,0.9-3.5,3.4c0.2,3.7,0.3,7.4,0.3,11.1c-0.1,16.7-0.5,33.5-0.4,50.2c0,14,0.7,27.9,0.8,41.9
					c0.1,11.5-0.2,22.9-0.3,34.4c0,3.1,0.3,6.2,0.1,9.3c-0.2,3.4-0.8,4-4.1,4.4c-2.8,0.3-5.6,0.7-8.3,0.6c-6.3-0.3-12.7-1-19.1-1.5
					c-1.2-3.4-1-6.9-0.7-10.2c0.6-8.2,1.7-16.4,2.1-24.6c0.4-9,0.2-18,0.4-27c0.2-9.1,0.5-18.3,0.6-27.4c0.1-3.6-0.2-7.1-0.3-10.7
					c-0.1-2.4-3-4.4-5.3-3.7c-1.5,0.5-1.5,1.6-1.6,3c-0.3,16.7-0.3,33.5-1.2,50.2c-0.8,14.7-2.5,29.4-3.9,44
					c-0.1,1.4-0.5,2.7-0.7,3.9c-5.5,1-10.7,2-16.3,3c-0.3-4.1-0.8-8.3-0.9-12.4c-0.4-12.4-0.5-24.8-1-37.2
					c-0.6-16.1-1.5-32.2-2.1-48.3c-0.4-10.1-0.7-20.1-0.8-30.2c-0.2-12.2-0.4-24.5-0.5-36.7c-0.1-20-0.1-40-0.2-60
					c0-8.8-0.3-17.7-0.5-26.5c-0.2-9.3-0.5-18.6-0.4-27.9c0.1-11.2,0.7-22.3,0.9-33.5c0.2-10.5,0-21.1,0-31.6c0-9.6,0-19.2-0.2-28.8
					c-0.1-4.5-0.5-9-0.9-13.4c-0.2-2.5,0.1-4.2,2.7-5.7c2.9-1.7,5.9-2.8,9.2-2.8c7.9-0.2,15.8-0.4,23.5,2.3c1.2,0.4,2.4,0.6,3.6,0.7
					c7.6,0.3,15.2,1,22.7-0.4c2.9-0.5,5.7-1.6,8.5-2.2c5-1.2,9.9-1.4,15.1,0.3c5.1,1.7,10.6,2.5,15.9,3c3.6,0.3,7.5,0,11-1
					c10.7-3,21.4-3.5,32.2-0.9c9.6,2.4,19,1.9,28.6,0.5c8.4-1.2,16.9-1.6,25.5-0.2c4.8,0.8,9.8,0.4,14.8,0.5c1.2,0,2.4,0,4.2,0
					C1092.2,36.5,1092,41.2,1091.8,45.9z"/>
			</g>
		</g>
		<path class="st1" d="M506.3,98.2c-3.4,0.4-6.8,0.6-10.2,0.6c-3.1,0-3.7-0.7-3.6-3.9c0-1.2,0.1-2.5,0.6-3.6c0.4-0.8,1.3-1.9,2.1-2
			c12.4-1.5,24.9-2.4,37.4-2.1c0.3,0,0.5,0.3,1,0.5c0.1,3.1,0.2,6.2,0.3,9.6c-4.4,0.9-8.5,1.5-12.7,0.7c-1.3-0.3-2.8-0.5-4.1-0.4
			c-2,0.1-2.6,1.4-1.6,3.2c2.5,4.6,2.4,5.4-1.5,8.9c0.5,1.8,1.7,2.8,3.7,2.6c3.1-0.2,6.2-0.5,9.3-0.7c1.8-0.1,3.7,0,6.2,0.1
			c-0.1,3.1-0.1,5.9-0.2,9.2c-7,1.8-13.9,0-20.8,0.5c-6.8,0.4-13.5,0.4-20.9,0.7c0.1-2.9,0.2-5.3,0.3-7.8c4.4-0.6,8.4-1.1,12.4-1.7
			c4.1-0.5,4.8-1.3,5.5-5.3c0.3-1.5,0.8-3,1.2-4.5C511.5,99.1,510.1,97.7,506.3,98.2z"/>
		<path class="st1" d="M840.2,205.8c-2.7-3.7-4.8-6.6-7-9.3c-1.8-2.2-4.1-3.1-7-2.8c-2.9,0.2-5.9,0.1-8.8,0.1
			c-9.1,0.1-18.3,0.5-27.4,0.3c-6.2-0.1-10.9,1.5-12.8,7.9c-0.2,0.6-0.8,1-1,1.5c-0.4,0.9-0.5,1.9-1,3.5c11.6,0,22.6,0,33.6,0
			c1.7,0,3.4,0.1,5.1,0.3C822.5,208.2,830.9,207,840.2,205.8z"/>
		<path class="st1" d="M774.6,227c0,0.4,0.1,0.8,0.1,1.3c2.6,0,5.2,0.1,7.7,0c12.2-0.7,24.4-0.2,36.6,0.2c6.2,0.2,12.4-0.2,18.6-0.3
			c1.4,0,3,0.1,2.7-2.3c-2.5-2-5.6-1.1-8.4-1.1c-8,0.1-16,0.6-24.1,0.7c-8.8,0.1-17.6-0.1-26.4,0C779.2,225.5,776.5,224.9,774.6,227
			z"/>
		<path class="st1" d="M839.1,235c-0.1-0.4-0.1-0.8-0.2-1.2c-1-0.2-2.1-0.6-3.1-0.6c-7.1-0.1-14.2-0.2-21.3-0.2
			c-11.9,0-23.9,0-35.8,0.1c-0.9,0-1.8,0.5-2.7,0.8c2.4,1,4.7,1.4,7,1.4c13,0.4,26,0.7,39,1c4.6,0.1,9.3-0.1,13.9-0.2
			C837,236.1,838.1,235.4,839.1,235z"/>
		<path class="st1" d="M839.1,218c-2.2,0-4.3,0-6.5,0c-4.9,0.1-9.9,0.5-14.8,0.2c-11.3-0.7-22.6-0.2-33.9,0.1
			c-2.2,0.1-4.3-0.1-6.5,0.1c-0.7,0.1-1.2,0.8-2.1,1.5C782.1,221.8,833.6,220.6,839.1,218z"/>
		<path class="st1" d="M774.5,212c6.3,2.1,62.4,1.2,67-0.6c-1.2-0.3-2.5-0.4-3.7-0.3c-5.4,0.4-10.8,1.1-16.2,1.1
			c-8.5-0.1-17-0.8-25.5-1c-6.3-0.1-12.7,0-19,0.1C776.2,211.5,775.4,211.9,774.5,212z"/>
		<path class="st1" d="M776.6,240.4c0,0.4,0.1,0.8,0.1,1.2c14,0.7,27.9,0.8,41.9-0.3c-13.3-0.6-26.6-1.1-39.9-1.5
			C778,239.8,777.3,240.2,776.6,240.4z"/>
		<path class="st1" d="M756.9,208.8c-2.2-3.2-4-5.7-5.6-8.3c-1.3-2.1-3-2.9-5.4-2.8c-4.6,0-9.3-0.2-13.9-0.2
			c-7.7,0.1-15.5,0.3-23.2,0.6c-1.2,0-2.8,0.2-3.4,1c-2.7,3-4.9,6.4-7.4,10.6C718,209.3,737.1,209.1,756.9,208.8z"/>
		<path class="st1" d="M758.4,215.1c0-0.3,0-0.7,0-1c-1.9-0.2-3.7-0.6-5.6-0.7c-16.2-1.1-32.4,0.7-48.7,0.8c-2.1,0-4.3,0.5-6.4,1
			c-0.5,0.1-0.9,0.9-2.2,2.1c20.9,0.6,40.7-0.7,60.5-1.3C756.8,216,757.6,215.4,758.4,215.1z"/>
		<path class="st1" d="M757.1,227.6c-1.6-0.1-3.1-0.3-4.7-0.2c-4.5,0.1-9,0.6-13.4,0.4c-11.6-0.5-23.1-0.3-34.7,0.2
			c-2,0.1-4,0.1-6,0.5c-0.7,0.1-1.2,1.2-2.1,2.1C709.7,232.1,752.8,230.3,757.1,227.6z"/>
		<path class="st1" d="M697.8,238.3c6.9,1.2,54.3-1.1,58.6-3.3c-1.2-0.4-2.5-0.7-3.7-0.6c-11.3,0.3-22.6,0.7-33.9,1
			c-5.7,0.1-11.5,0-17.2,0.1C699.8,235.5,697.8,235.6,697.8,238.3z"/>
		<path class="st1" d="M698.9,245.9c19.8-0.3,39.1-1.4,58.3-3.1c0.3,0,0.5-0.7,1.1-1.4c-1.3-0.1-2.3-0.3-3.3-0.3
			c-9.9,0.5-19.7,1.2-29.6,1.6c-7.4,0.3-14.8,0.4-22.2,0.6C701.6,243.4,699.7,243,698.9,245.9z"/>
		<path class="st1" d="M757.2,221.5c-9.6-1.3-19.2,0-28.8,0.9C738,223.2,747.5,223.8,757.2,221.5z"/>
		<path class="st1" d="M714.8,223c0-0.4,0-0.8,0-1.2c-5.6,0.3-11.2,0.6-16.8,0.9c0,0.1,0,0.2,0,0.3C703.6,223,709.2,223,714.8,223z"
			/>
		<path class="st1" d="M674.5,208.9c-2.5-7.2-4.1-8.5-10.7-8.7c-9.3-0.3-18.6-0.7-27.8-0.9c-2.6-0.1-5.3,0.2-7.9,0.4
			c-0.7,0.1-1.7,0.3-2.1,0.8c-2.8,3-5,6.4-7.2,10.4c4.5,0,8.2,0,11.9,0c11.1-0.1,22.3-0.2,33.4-0.5
			C667.4,210.3,670.9,209.4,674.5,208.9z"/>
		<path class="st1" d="M615.6,216.6c1.7,0.7,2.6,1.4,3.5,1.5c6.6,0.4,13.2,0.7,19.9,0.9c5.9,0.2,11.7,0.5,17.6,0.4
			c4.6-0.1,9.3-0.5,13.9-0.9c2.1-0.2,4-0.8,3-4c-18.2,0.3-36.4,0.6-54.6,0.9C618.1,215.5,617.3,216.1,615.6,216.6z"/>
		<path class="st1" d="M617.2,230.9c0.1,0.4,0.1,0.8,0.2,1.2c0.4,0.2,0.7,0.7,1.1,0.7c15.6,0,31.2,0,46.8-0.1c2.9,0,5.8-0.7,8.7-1.2
			c0.2,0,0.3-0.5,0.6-1.1c-0.8-0.1-1.5-0.1-2.2-0.1c-7.7,0.2-15.4,0.5-23.2,0.5c-9.4,0-18.9-0.4-28.3-0.6
			C619.6,230.2,618.4,230.6,617.2,230.9z"/>
		<path class="st1" d="M674.1,225c0-0.5,0-1-0.1-1.5c-1.6,0-3.2-0.1-4.8-0.1c-6.5,0.1-13,0.4-19.4,0.3c-9-0.2-17.9-0.7-26.9-1
			c-1.7-0.1-3.4,0.3-5.1,0.5c0.2,2.5,1.7,2.3,2.9,2.3c5.9,0.1,11.7,0.1,17.6,0.2c9.6,0.1,19.1,0.3,28.7,0.2
			C669.3,225.9,671.7,225.3,674.1,225z"/>
		<path class="st1" d="M674.6,238.6c0-0.5,0-1.1-0.1-1.6c-1.9,0-3.8-0.2-5.7-0.1c-2.6,0.1-5.2,0.5-7.9,0.5c-9.4,0.1-18.9,0-28.3,0
			c-3.7,0-7.4,0-11.1,0.2c-0.9,0-1.7,0.6-2.5,0.9c0.1,0.5,0.1,0.9,0.2,1.4c7.4,0.6,15,0.4,22.4,0.1
			C652.6,239.5,663.7,240.4,674.6,238.6z"/>
		<path class="st1" d="M672.7,244.9c0-0.2,0-0.5,0-0.7c-1-0.1-2.1-0.2-3.1-0.2c-4.3,0.1-8.7,0.2-13,0.3c-10.8,0.1-21.7,0-32.5,0.1
			c-1.4,0-3.1-0.4-4.3,1.8c1,0.3,1.8,0.7,2.6,0.6C639.1,246.2,655.9,245.6,672.7,244.9z"/>
		<path class="st1" d="M1091.8,45.9c-1,19.8-2.3,39.6-2.3,59.5c0,19.7-1.2,39.4-1.8,59.1c-0.5,17.2-0.8,34.4-1.6,51.6
			c-0.9,20.2-0.6,40.3-0.3,60.5c0.5,35.4,0.5,70.7,0.6,106.1c0,10.2-0.6,20.5-0.9,30.7c0,0.7-0.2,1.5-0.4,3
			c-9.3-2.2-17.7,3.1-27.1,1.6c-0.1-3.7-0.4-7.2-0.4-10.7c0.1-9.4,0.1-18.9,0.5-28.3c0.4-8.5,1.3-16.9,1.9-25.4
			c0.5-7.4,1-14.8,1.4-22.2c0.5-9,0.8-18,1.2-26.9c0.3-7,0.6-13.9,0.9-20.9c0.4-11.3,0.7-22.6,1-33.9c0.1-1.9,0.5-3.7,0.5-5.5
			c0-2.9-5.2-5.8-7.5-4.2c-0.9,0.6-1.4,2-1.6,3.2c-0.4,2.9-0.4,5.9-0.6,8.8c-1,19.5-2.1,39-3.1,58.5c-1,19.2-2.4,38.4-2.9,57.6
			c-0.4,13.9,0.3,27.9,0.4,41.9c0,2,0,4,0,6.6c-4.1-0.4-7.7-1.1-11.4-1.2c-3.5-0.1-7.1,0.4-11.2,0.6c-0.1-1.5-0.3-2.9-0.3-4.4
			c-0.1-12.1,0-24.2-0.2-36.3c-0.1-8.8-0.5-17.6-0.7-26.5c-0.3-13-0.6-26-0.6-39c0-12.4,0.3-24.8,0.6-37.2c0.1-4.1-0.7-7.7-3.9-10.4
			c-0.7-0.6-2-1.4-2.7-1.1c-0.7,0.2-1.2,1.5-1.5,2.5c-0.2,0.5-0.1,1.2-0.1,1.8c0.3,10.2,0.8,20.4,0.8,30.6c0.1,22.6,0,45.3,0,67.9
			c0,10.7-0.2,21.4-0.2,32.1c0,5.7,0.2,11.5,0.2,17.2c0,1.5-0.2,3-0.4,4.9c-10.9,2.6-21.6,2.2-32.5,1.4c0-6.4,0.1-12.3,0-18.1
			c-0.2-11.2-0.5-22.3-0.6-33.5c-0.1-7.4,0.2-14.9,0.2-22.3c0.1-9.2,0.1-18.3,0.1-27.5c0-12.7,0-25.4,0-38.1c0-2.6,0.4-5.3,0.5-7.9
			c0.1-5.6,0.1-11.1,0.2-16.7c0-0.9-0.1-1.9,0.1-2.8c0.3-1.8,1.1-3.7-1.1-4.9c-2.2-1.2-4.3-1.3-6.5,0.1c2.3,9.5,1.8,18.9,1.5,28.3
			c-0.3,9.1-0.7,18.3-1.1,27.4c-0.5,14.9-0.9,29.8-1.6,44.6c-1,22.2-2.2,44.3-3.3,66.5c-0.1,1.1-0.3,2.1-0.5,3.3
			c-8,0.5-15.8,1.1-23.9,1.6c-0.1-0.3-0.5-1-0.5-1.6c-0.1-18.6-0.2-37.2-0.4-55.8c-0.1-9.6-0.4-19.2-0.4-28.8
			c-0.1-15.7,0-31.3-0.1-47c0-4.3-0.2-8.7-0.5-13c-0.1-2-2.5-3.6-4.8-3.4c-2,0.2-3.6,0.9-3.5,3.4c0.2,3.7,0.3,7.4,0.3,11.1
			c-0.1,16.7-0.5,33.5-0.4,50.2c0,14,0.7,27.9,0.8,41.9c0.1,11.5-0.2,22.9-0.3,34.4c0,3.1,0.3,6.2,0.1,9.3c-0.2,3.4-0.8,4-4.1,4.4
			c-2.8,0.3-5.6,0.7-8.3,0.6c-6.3-0.3-12.7-1-19.1-1.5c-1.2-3.4-1-6.9-0.7-10.2c0.6-8.2,1.7-16.4,2.1-24.6c0.4-9,0.2-18,0.4-27
			c0.2-9.1,0.5-18.3,0.6-27.4c0.1-3.6-0.2-7.1-0.3-10.7c-0.1-2.4-3-4.4-5.3-3.7c-1.5,0.5-1.5,1.6-1.6,3c-0.3,16.7-0.3,33.5-1.2,50.2
			c-0.8,14.7-2.5,29.4-3.9,44c-0.1,1.4-0.5,2.7-0.7,3.9c-5.5,1-10.7,2-16.3,3c-0.3-4.1-0.8-8.3-0.9-12.4c-0.4-12.4-0.5-24.8-1-37.2
			c-0.6-16.1-1.5-32.2-2.1-48.3c-0.4-10.1-0.7-20.1-0.8-30.2c-0.2-12.2-0.4-24.5-0.5-36.7c-0.1-20-0.1-40-0.2-60
			c0-8.8-0.3-17.7-0.5-26.5c-0.2-9.3-0.5-18.6-0.4-27.9c0.1-11.2,0.7-22.3,0.9-33.5c0.2-10.5,0-21.1,0-31.6c0-9.6,0-19.2-0.2-28.8
			c-0.1-4.5-0.5-9-0.9-13.4c-0.2-2.5,0.1-4.2,2.7-5.7c2.9-1.7,5.9-2.8,9.2-2.8c7.9-0.2,15.8-0.4,23.5,2.3c1.2,0.4,2.4,0.6,3.6,0.7
			c7.6,0.3,15.2,1,22.7-0.4c2.9-0.5,5.7-1.6,8.5-2.2c5-1.2,9.9-1.4,15.1,0.3c5.1,1.7,10.6,2.5,15.9,3c3.6,0.3,7.5,0,11-1
			c10.7-3,21.4-3.5,32.2-0.9c9.6,2.4,19,1.9,28.6,0.5c8.4-1.2,16.9-1.6,25.5-0.2c4.8,0.8,9.8,0.4,14.8,0.5c1.2,0,2.4,0,4.2,0
			C1092.2,36.5,1092,41.2,1091.8,45.9z"/>
		<path class="st1" d="M1149.6,269c-2.2,0.1-4.3,0-7,0c-1.3-4.3-2.6-8.5-4-12.7c-2.7-8.4-5.3-16.8-8.5-25.1
			c-1.6-4.1-1.4-8.2-1.8-12.3c-0.1-1.9,1.2-2.7,2.7-3.4c4.6-1.9,9.1-3.9,13.7-5.7c3-1.1,6.2-1.8,9.7-2.8c-0.1,1.1,0,2.1-0.2,3
			c-2.3,9.8-4.5,19.6-7.2,29.3c-1.1,3.9-0.5,7.2,2,10c3.4,3.8,7.2,7.1,11.4,11.1C1157.6,270.3,1159.8,268.5,1149.6,269z"/>
		<path class="st1" d="M1236.4,215.6c-2.4,3.7-4.4,7.4-7,10.6c-2,2.5-5.3,1.9-8.2,1.8c-2.5-0.1-2.6-2.3-3.3-3.9
			c-0.3-0.9-0.7-1.7-0.9-2.6c-0.6-2.7-1.1-5.4-1.7-8.6C1222.8,212.5,1229.4,212.8,1236.4,215.6z"/>
		<path class="st1" d="M1217.1,208.2c8-5.4,39.1-16.9,45.7-16.7c-2.4,4.4-4.6,8.7-7.1,12.7c-0.5,0.8-2,0.9-3,1.4
			c-0.1,0-0.3,0-0.4-0.1c-6.3-3.9-9.6,0.3-12.7,4.8c-0.2,0.2-0.4,0.4-0.9,0.8C1231.6,210.2,1224.3,209.2,1217.1,208.2z"/>
		<path class="st1" d="M1219.9,232.5c0.1,0.3,0.1,0.7,0.2,1c-6.1,4.4-12.1,9-18.3,13.3c-4.8,3.3-4.9,3-9.6-0.4
			c-3.7-2.7-7.7-5.2-11.5-7.9c-1.2-0.8-2.3-1.8-3.4-3.2C1191.6,233.9,1205.7,231.9,1219.9,232.5z"/>
		<path class="st1" d="M1186.1,229.7c2.7-6.9,5.2-13.2,7.7-19.5c0.3,0,0.5,0.1,0.8,0.1c1.2,6,2.4,12,3.6,18.6
			C1194.3,229.2,1190.6,229.4,1186.1,229.7z"/>
		<path class="st1" d="M1185.3,219.1c-1,2.4-2.1,4.8-3,7.3c-1.7,4.5-2,4.7-7.7,4c-2.1-6.5-4.3-13.2-6.5-20.1
			c7.5-1.6,14.6-3,22.9-4.8C1188.7,210.8,1187,214.9,1185.3,219.1z"/>
		<path class="st1" d="M1169,226.5c0.9,3.1,0.5,4-3.2,6.3c4,3.8,1.8,7.4,0.4,11.1c-1,2.6-1.9,5.2-3,8.1c-4.7-2.2-7.8-6-11.2-9.3
			c-0.6-0.6-0.5-2.4-0.3-3.5c2.7-11,5.5-21.9,8.4-32.8c0.1-0.4,0.4-0.8,1.1-1.9c1.5,3.9,2.9,7.2,4.1,10.6
			C1166.7,218.8,1167.8,222.7,1169,226.5z"/>
		<path class="st1" d="M1204,268c-12.9,0-26.6,0-41,0c3.1-9.7,6.2-19,9.2-28.2c8.8,5.8,16.9,11.1,24.6,16.2
			c8.3-3,14.4-8.2,21.6-12.4c-1.6,2.5-3.2,4.9-4.9,7.4c-2.5,3.7-5.2,7.3-7.5,11.1C1205,263.6,1204.8,265.6,1204,268z"/>
		<path class="st1" d="M1213.9,264.8c-0.9,0.6-1.8,1.9-3.7,0.3c11.7-18.1,24.2-35.7,35.3-54.5c0.1,1.1,0.3,2.3,0.3,3.4
			c-0.2,8.5-0.5,17-0.7,25.5c0,2.1-0.9,3.5-2.5,4.6c-5.9,4.2-11.9,8.4-17.8,12.7C1221.2,259.5,1217.6,262.2,1213.9,264.8z"/>
		<path class="st1" d="M1269.9,237.5c0.2,9,0.5,17.9,0.7,27.6c-14.8,1.3-29.5,2.5-45.1,2c1.2-1.3,1.8-2.1,2.6-2.7
			c6.5-5.3,13.5-9.8,19.1-16.2c1.3-1.5,3.9-2,6.7-3.3c0.6-10.8-0.2-22.2-1-34.4c6.3,0.8,11.2,3.1,15.7,6.2c0.9,0.6,1.2,2.4,1.3,3.7
			C1270,226.1,1269.8,231.8,1269.9,237.5z"/>
		<path class="st1" d="M1269.8,211.2c-2.6-1.1-4.4-1.9-6.3-2.8c1.8-4.4,3.4-8.5,5-12.5C1270.1,200.6,1270,205.5,1269.8,211.2z"/>
		<path class="st1" d="M1501.6,163.4c-4.8-1-9.1-2.4-13.5-2.8c-9.3-0.8-18.6-0.2-27.7,1.8c-4.8,1.1-9.4,3.1-14,4.8
			c-3.4,1.3-4.8,3.7-4.9,7.5c-0.1,5.1-0.3,10.3-1.2,15.3c-2.9,16.5-4.9,33.1-6.1,49.7c-0.1,1,0.1,2,0.2,3.3
			c12.4-6.4,25.5-9.1,38.7-10.5c13.3-1.4,26.5,0.2,39.2,3.6c-1.2-5.1-2.4-9.8-3.4-14.6c-0.5-2.1-0.7-4.3-1-6.4
			c-0.9-6.7-1.8-13.5-2.6-20.2C1504,184.5,1502.9,174.2,1501.6,163.4z"/>
		<path class="st1" d="M1428.6,240.3c1.2-9.2,2.4-17.6,3.5-26c1.2-8.3,2.4-16.6,3.5-24.9c0.8-5.8,1.3-11.7,2-17.5
			c0.2-2.2-0.4-3.9-2.2-5.3c-4.9-3.8-9.8-7.7-16.5-7.6c-2.5,0-5-0.4-7.4-0.8c-6.3-1-12.3,0.2-18.4,1.8c-2.3,0.6-3.6,1.9-4.4,4.2
			c-4.3,11.9-8.5,23.9-13.3,35.7c-5,12.5-10.5,24.8-15.8,37.2c-0.6,1.5-0.9,3-1.7,5.4c12.2-3.2,23.6-4.5,35.3-5
			C1405.2,236.9,1416.8,238,1428.6,240.3z"/>
		<path class="st1" d="M1435,249c0.2,0.3,0.5,0.5,0.7,0.8c12.1-5.7,25.1-6.2,38-7.8c13.2-1.6,25.8,1.6,38.8,4c0.5-1.7,0.8-3,1.1-4.4
			c-1.8-0.7-3.2-1.4-4.6-1.9c-10.4-3-21-4.5-31.7-3.5c-7.8,0.7-15.5,2.9-23.3,4.1c-6.4,1-12.1,3.9-17.9,6.4
			C1435.6,247.1,1435.4,248.3,1435,249z"/>
		<path class="st1" d="M1357,249.6c1.5,1.4,3.2,0.5,4.8,0.4c7.9-0.8,15.7-2.1,23.6-2.2c13.5-0.2,27-0.8,40.4,0.8
			c1.1,0.1,2.3-0.3,3.4-0.4c0.1-0.3,0.2-0.7,0.4-1c-1-0.9-2-2.4-3.2-2.7c-8.5-1.8-17-3.4-25.8-2.9c-4,0.2-8,0.5-12.1,0.6
			c-9.6,0.4-19.1,1.6-28.3,4.7C1358.9,247.3,1357.1,247.4,1357,249.6z"/>
		<path class="st1" d="M1512,251.6c-10.2-6.4-50.6-7.1-61.9-1c0.8,0,1.4,0.1,2,0.1c15.7-0.9,31.2-0.3,46.6,3.4
			c3,0.7,6.1,0.7,9.2,1.1C1510.7,255.5,1511.8,254.2,1512,251.6z"/>
		<path class="st1" d="M1443.1,257.6c0.6,0.1,1.2,0.2,1.8,0.2c15.5,0,30.9,0.9,46.3,3.1c3.2,0.5,6.5,0.5,9.7,0.8
			c1.8,0.2,3.3,0,4.2-2C1487.9,254.2,1454.5,252.5,1443.1,257.6z"/>
		<path class="st1" d="M1358.3,255.7c0.1,0.5,0.1,1,0.2,1.5c0.8,0.1,1.7,0.3,2.5,0.2c2.4-0.4,4.8-1.1,7.3-1.3
			c9.1-0.9,18.2-2.1,27.3-2.5c8-0.3,16.1,0.2,24.1,0.7c3.1,0.2,6.2,1,9.4,1.6c0.2-2.4-1.3-2.2-2.5-2.3c-2.6-0.3-5.2-0.5-7.9-0.7
			c-15.3-1.2-30.7-0.5-46,0.5C1367.9,253.5,1363.1,254.9,1358.3,255.7z"/>
		<path class="st1" d="M1395.1,258.1c0,0.5,0,1,0,1.5c3.2-0.2,6.3-0.6,9.5-0.6c3.4,0,6.8,0.2,10.1,0.5c3.1,0.3,6.2,0.8,9.3,1.3
			c0-0.4,0.1-0.8,0.1-1.1C1414.5,257.2,1404.8,258.6,1395.1,258.1z"/>
		<path class="st1" d="M1362.8,262.6c3.1,0.7,15.2-1.6,18.3-3.3C1375.4,260.9,1369.2,259.1,1362.8,262.6z"/>
		<path class="st1" d="M1525,184.3c1.9,12.6,3.8,24.7,5.6,36.9c4.9-1,5.1-1.3,4.8-5.4c-0.6-6.2-1-12.4-1.8-18.5
			c-0.7-4.8-2-9.6-3.1-14.7C1528.3,183.3,1526.9,183.7,1525,184.3z"/>
		<path class="st1" d="M1560.7,198.9c-2.1-0.5-3.7-1-4.4,0.9c-0.2,0.7,0.5,1.9,1.1,2.6c0.4,0.5,1.3,0.4,2.2,0.7
			C1559.9,201.6,1560.2,200.5,1560.7,198.9z"/>
		<path class="st1" d="M1544.7,243.3c-2.7,0-2.7,0-2,2.3C1543.5,244.8,1544.1,244.1,1544.7,243.3z"/>
		<path class="st1" d="M1352.5,172.3c-1.9,3.7-1.9,3.7,3.8,6.2c0.4-1.4,0.8-2.8,1.2-4.2C1355.6,173.6,1354.2,173,1352.5,172.3z"/>
		<path class="st1" d="M1334.8,220.7c0.3,2,0.4,3.2,0.6,4.7C1338.1,222.9,1338.1,222.9,1334.8,220.7z"/>
	</g>
	<g class="st2">
		<path class="st1" d="M523.7-101.6v36.7c0,1.5-0.8,2.3-2.3,2.3H518c-1.5,0-2.3-0.8-2.3-2.3v-28.9l-8.8,3.7c-0.6,0.2-1,0.2-1.5,0
			c-0.4-0.3-0.6-0.7-0.6-1.3v-3.8c0-0.6,0.1-1.1,0.3-1.4c0.2-0.4,0.6-0.6,1.1-0.9l12.4-5.3c0.8-0.3,1.5-0.5,2-0.5h1.6
			c0.5,0,0.8,0.2,1.1,0.5C523.6-102.5,523.7-102.1,523.7-101.6z"/>
	</g>
	<g class="st2">
		<path class="st1" d="M760.8-62.5h-31.1c-1.5,0-2.2-0.8-2.2-2.3v-3.8c0-1,0.4-1.7,1.2-2.1c3.1-1.8,5.7-3.2,7.8-4.4
			c2-1.2,4-2.3,6-3.4c2-1.1,3.5-2,4.6-2.7c1.1-0.7,2.2-1.4,3.2-2.1c1-0.6,1.8-1.2,2.2-1.7c0.5-0.5,0.9-1,1.3-1.3
			c0.4-0.4,0.6-0.8,0.7-1.3s0.2-0.9,0.2-1.2c0-0.3,0.1-0.8,0.1-1.4v-0.4c0-3.7-3.2-5.6-9.6-5.6c-5,0-8.2,1.6-9.5,4.9
			c-0.3,0.9-0.5,1.6-0.6,2.1c-0.1,0.7-0.4,1.2-0.7,1.6c-0.3,0.3-0.9,0.5-1.7,0.5h-3.5c-0.7,0-1.3-0.2-1.6-0.6
			c-0.4-0.4-0.5-1-0.4-1.8c0-0.8,0.2-1.8,0.5-3.1c0.9-3.4,2.8-6.1,5.8-8c3-1.9,7-2.8,12.1-2.8c6,0,10.4,1.1,13.3,3.2
			c2.9,2.1,4.3,5.1,4.3,9v0.5c0,1,0,1.8-0.1,2.4c0,0.6-0.2,1.3-0.4,2.1c-0.2,0.8-0.5,1.4-0.9,1.9c-0.4,0.5-1,1.2-1.8,2
			c-0.8,0.8-1.8,1.6-2.8,2.3c-1,0.7-2.4,1.6-4.1,2.7c-1.8,1.1-3.6,2.2-5.6,3.4c-2,1.1-4.5,2.5-7.4,4.2h21.1c1.5,0,2.3,0.8,2.3,2.3
			v2.8C763.1-63.3,762.3-62.5,760.8-62.5z"/>
	</g>
	<g class="st2">
		<path class="st1" d="M983.8-79.3c-4.9,0-8.8-0.7-11.8-2.2c-3-1.5-5.1-3.6-6.1-6.3c-0.5-1.2-0.7-2.3-0.8-3.5c0-0.7,0.1-1.3,0.4-1.8
			s0.9-0.7,1.5-0.7h3.6c0.8,0,1.4,0.2,1.7,0.5c0.3,0.3,0.6,0.9,0.8,1.7c0.2,0.7,0.4,1.1,0.7,1.5c1.4,2.7,4.6,4.1,9.8,4.1
			c3.6,0,6.3-0.5,8-1.5c1.7-1,2.5-2.4,2.5-4.4v-0.6c0-1.7-0.6-3-1.8-3.7c-1.2-0.7-3.1-1.1-5.6-1.1h-4.2c-1.4,0-2.1-0.7-2.1-2.1v-2.2
			c0-1.3,0.7-2,2-2h4.1c2.1,0,3.7-0.4,4.8-1.1c1-0.8,1.5-2,1.5-3.6v-0.5c0-1.6-0.7-2.9-2.1-3.7c-1.4-0.8-3.7-1.2-6.9-1.2
			c-2.1,0-4,0.3-5.4,1c-1.5,0.7-2.6,1.6-3.2,2.8c-0.4,0.5-0.6,1-0.8,1.6c-0.2,0.9-0.4,1.4-0.7,1.7c-0.3,0.3-0.8,0.5-1.6,0.5h-3.7
			c-0.7,0-1.2-0.2-1.6-0.6c-0.4-0.4-0.5-1-0.5-1.7c0.1-1.1,0.3-2.1,0.7-3.1c0.9-2.9,2.8-5.1,5.7-6.6c2.9-1.5,6.7-2.3,11.3-2.3
			c11.2,0,16.7,3.5,16.7,10.5v0.7c0,2.2-0.7,4-2.1,5.4c-1.4,1.4-3.5,2.2-6.4,2.6c6.6,0.5,9.8,3.6,9.8,9.3v1c0,3.6-1.6,6.4-4.7,8.6
			C994.3-80.4,989.7-79.3,983.8-79.3z"/>
	</g>
	<g class="st2">
		<path class="st1" d="M1318.1-64.8c0,1.5-0.8,2.3-2.3,2.3h-3.4c-1.5,0-2.3-0.8-2.3-2.3v-6h-22.7c-1.4,0-2.1-0.7-2.1-2.1v-1.8
			c0-0.6,0.2-1.1,0.5-1.6l18.9-25.8c0.5-0.8,1.2-1.2,2.1-1.2h9c1.5,0,2.3,0.8,2.3,2.3v23.7h2.6c1.5,0,2.3,0.8,2.3,2.3v2
			c0,1.5-0.8,2.2-2.3,2.2h-2.6V-64.8z M1294.4-77.3h15.6v-20.9L1294.4-77.3z"/>
	</g>
	<g class="st2">
		<path class="st1" d="M1495.9-76.3c0,4.4-1.5,7.8-4.6,10.3c-3.1,2.5-7.6,3.7-13.5,3.7c-5.1,0-9.1-0.8-12.1-2.3
			c-3-1.5-4.9-3.8-5.8-6.7c-0.3-0.9-0.4-1.7-0.5-2.5c-0.1-0.7,0.1-1.3,0.4-1.7c0.3-0.4,0.9-0.6,1.6-0.6h3.2c0.8,0,1.4,0.1,1.7,0.4
			s0.6,0.8,0.8,1.5c0,0.1,0.1,0.1,0.1,0.2c0.1,0.3,0.2,0.7,0.5,1.1c1.4,2.3,4.6,3.4,9.6,3.4c3.7,0,6.4-0.6,8-1.7s2.5-2.8,2.5-5.2
			v-0.1c0-2.6-0.8-4.5-2.4-5.6c-1.6-1.1-4.1-1.7-7.5-1.7c-4.7,0-7.6,0.7-8.7,2c-0.1,0.1-0.2,0.3-0.4,0.5c-0.2,0.2-0.3,0.3-0.4,0.4
			c-0.1,0.1-0.2,0.2-0.3,0.3c-0.1,0.1-0.2,0.2-0.3,0.2c-0.1,0-0.2,0.1-0.3,0.2c-0.1,0.1-0.2,0.1-0.3,0.1s-0.2,0-0.4,0.1
			c-0.1,0-0.3,0.1-0.5,0c-0.2,0-0.4,0-0.6,0c-0.2,0-0.4,0-0.8,0h-1.5c-1.5,0-2.3-0.8-2.3-2.3V-101c0-1.5,0.8-2.3,2.3-2.3h28.5
			c1.5,0,2.3,0.8,2.3,2.3v2.7c0,1.5-0.8,2.2-2.3,2.2h-23.5v14.9c0-2.6,1-4.7,3-6.3c2-1.6,5.1-2.4,9.3-2.4c10,0,15,4.4,15,13.3V-76.3
			z"/>
	</g>
</g>
</svg>
