<?xml version="1.0" encoding="utf-8"?>
<!-- Generator: Adobe Illustrator 19.1.0, SVG Export Plug-In . SVG Version: 6.00 Build 0)  -->
<svg version="1.1" id="Calque_1" xmlns="http://www.w3.org/2000/svg" xmlns:xlink="http://www.w3.org/1999/xlink" x="0px" y="0px"
	 viewBox="0 0 476.2 522.6" style="enable-background:new 0 0 476.2 522.6;" xml:space="preserve">
<style type="text/css">
	.st0{fill:#F4A300;}
	.st1{fill:#C0C0C0;}
	.st2{fill:#008A90;}
	.st3{fill:#6DA3C3;}
	.st4{fill:none;stroke:#F8AD3B;stroke-width:3;stroke-miterlimit:10;}
	.st5{fill:#F8AD3B;}
	.st6{fill:none;}
	.st7{fill:#E2F7EF;}
	.st8{fill:#FFFFFF;}
</style>
<g>
	<path class="st0" d="M230.4,510.5c1.4,0.1,2.5,0.3,3.5,0.3c11.2,0,22.3,0,33.5,0c13.2,0,26.4-0.2,39.7-0.1
		c12.9,0,25.9-0.3,38.8,0.4c20.1,1.2,40.1,2.1,60.3,1.5c3-0.1,6.1,0.2,9.1,0.2c14.9,0.1,29.7,0.2,44.6,0.2c2.8,0,3.3-0.6,3.4-3.5
		c0.1-2.9,0-5.8,0-8.7c0.1-22.2,0-44.3,0.3-66.5c0.2-20.1,0.9-40.2,1.3-60.3c0.2-12.5,0-25.1,0.4-37.6c0.2-5.4-0.6-10.3-2.9-15.2
		c-4.4-9.4-9.5-18.3-15.4-26.9c-1.6-2.4-3.6-4.5-5.5-6.7c-6.6-7.4-14.7-12.9-23.6-17.1c-11.4-5.5-23-10.5-34.6-15.6
		c-10.7-4.7-21.8-8.6-31-16.2c-0.5-0.4-1.2-0.4-2-0.6c-0.6,4-1.4,7.8-1.7,11.6c-0.7,6.8-2.2,13.3-5.1,19.5
		c-3.9,8.4-7.7,16.7-10.4,25.6c-3.1,10.3-6.6,20.5-8.9,30.9c-1.9,8.7-2.4,17.7-3.5,26.6c-0.4,3.2-1,6.1-3.3,8.7
		c-1.4,1.5-2.6,1.9-4.3,1.1c-2-1-3.9-2-5.9-3c-10.9-5.3-21.8-10.6-32.7-15.8c-4.1-2-8.1-3.9-12.2-5.9c-0.7,0.8-1.3,1.4-1.8,2
		c-4.8,6-9.7,12-14.5,18c-4.9,6.2-9,12.9-10.6,20.8c-0.8,4-1.4,8.1-1.9,12.2c-1.5,12.9-1,25.8-0.6,38.8c0.3,9.6,0.5,19.3,0.1,28.9
		c-0.7,16.8-1.8,33.5-2.8,50.3C230.2,508.9,230.3,509.5,230.4,510.5z"/>
	<path class="st0" d="M221.8,510.8c0.4-2.3,0.9-4,1-5.8c1-10.7,2-21.4,2.9-32.1c0.5-5.6,1.1-11.3,1.1-16.9
		c-0.1-18.4-0.6-36.9-0.9-55.3c-0.1-5.9-0.1-11.9,0.4-17.7c0.6-6.4,2.4-12.6,6.3-18.2c-1-0.4-1.6-0.8-2.3-0.9
		c-6.4-1.9-12.9-3.9-19.4-5.8c-2.9-0.8-4.9-2.4-6-5.2c-1.2-3.4-2.4-6.7-3.5-10.1c-0.4-1.2-0.7-2.5-1.1-3.9c-1,0.4-1.5,0.6-2,0.8
		c-2.7,0.9-4,2.4-4.1,5.7c-0.3,5.7-2.1,11.1-5.6,15.7c-4.3,5.7-5.1,12.1-3.6,18.8c1.5,6.8,3.2,13.6,3.6,20.7
		c0.4,6.2,1.6,12.7-1,18.4c-2.7,5.8-2.8,11.3-2.3,17.5c0.9,13,1,26.1,1.5,39.2c0.4,10.6,2.3,21,4.8,31.4c1,4,1.6,4.4,5.7,4.3
		c5.6-0.1,11.3-0.3,16.9-0.4C216.6,510.8,219,510.8,221.8,510.8z"/>
	<path class="st0" d="M315.3,212.6c-1.5,3.8-2.3,7.4-3.1,11c-1.8,7.9-3.4,15.9-5.9,23.6c-3.2,9.6-7.2,19.1-11.1,28.4
		c-6.4,15.1-13.9,29.7-21.9,44c-1.9,3.5-4,6.9-6.2,10.7c14.3,7.4,27.2,16.8,42.7,22.4c0.2-1.8,0.5-3.3,0.6-4.8
		c1.4-16.4,5-32.3,11-47.7c5.3-13.6,10.5-27.2,15.9-40.8c3-7.5,4.3-15.4,5.1-23.3c0.2-2.3-0.1-4.4-2.1-5.9
		c-4.5-3.5-8.8-7.1-13.4-10.4C323.3,217.3,319.4,215.1,315.3,212.6z"/>
	<path class="st0" d="M208.4,291.5c-2.6,3.6-4.9,6.9-7.4,9.9c-1.6,1.9-2.7,3.9-3.5,6.4c-2.7,8.4-6.6,15.9-14.1,21.3
		c-1.9,1.4-3.4,3.4-5.6,5.7c3.5,0,6.2-0.5,8.6,0.1c2.9,0.7,5.1-0.1,7.3-1.7c2.1-1.5,4.3-3,6.5-4.4c2-1.3,3.2-1.1,4.4,1
		c1,1.6,1.7,3.4,2.4,5.2c1.5,4,2.9,8,4.3,12c1.3,3.4,3.4,5.9,7.1,7c5.8,1.7,11.6,3.4,17.4,4.9c0.8,0.2,2.1,0.1,2.6-0.4
		c1.8-2,3.8-3.9,4.4-6.5c-2.5-2.7-5.3-5-6.9-7.9c-4.9-8.7-9.3-17.8-10.8-27.9c-0.1-0.7-0.3-1.4-0.7-1.9
		C219.8,306.4,215,298.7,208.4,291.5z"/>
	<g>
		<path d="M475.6,71.4c0,14.7,0,29.5,0,44.2c0,19.7,0.1,39.4,0,59c0,4.5-0.6,9.1-0.6,13.6c-0.1,9.5,0.1,19,0.1,28.5
			c0,7.4-0.4,14.9-0.4,22.3c0,9.9,0.5,19.8,0.5,29.7c0,9.6-0.5,19.3-0.6,28.9c-0.1,15.6,0.2,31.1-0.2,46.7
			c-0.5,20.6,0.4,41.3-1.8,61.9c-0.6,5.9-0.3,11.8-0.4,17.8c-0.3,12.9-0.5,25.9-0.8,38.8c-0.2,6.9-0.5,13.8-0.5,20.6
			c0,6.7,0.5,13.5,0.1,20.2c-0.2,4.6-1.3,9.2-2.3,13.8c-0.6,2.7-2.8,4.1-5.5,4.3c-3,0.2-6,0.2-9.1,0.2c-11.1,0-22.3,0-33.4,0
			c-13.6,0-27.2,0.3-40.9-0.9c-6.3-0.6-12.7-0.2-19-0.4c-17.1-0.4-34.1-0.9-51.2-1.3c-23.1-0.6-46.3-0.9-69.4,0.1
			c-10.3,0.4-20.6,0.1-31-0.1c-26.6-0.6-53.1,0.1-79.7,1.7c-16.4,0.9-32.8,0.5-49.1,0.5c-11,0-22,0.3-33,0.7
			c-13.3,0.5-26.7,1.4-39.9-1.2C3.5,520,1,517.6,1,513.3c-0.2-16.1-0.5-32.2,0.6-48.3c0.7-10.2,0.8-20.4,1.5-30.5
			c1.5-25-1.2-49.8-2.3-74.7c-0.5-10.3-0.9-20.6-0.6-30.9c0.5-14,0-28.1,0.2-42.1c0.2-11.6,0.7-23.1,1.6-34.6
			c1.7-22.4,2.4-44.8,0.5-67.2c-1.2-14.8-1.9-29.7-2.3-44.5c-0.3-8.8,0.2-17.6,0.7-26.4c0.7-12.1,1.8-24.1,2.4-36.2
			c0.3-6-0.1-12.1-0.3-18.2c-0.2-9.1-0.5-18.1-0.7-27.2c-0.1-2.6-0.3-5.2-0.2-7.8c0.1-4.1,0.2-8.3,0.4-12.4c0.1-2.8,0.2-5.4-1.2-8
			C0.1,1.9,0.6,1.1,3,0.6C4.7,0.3,6.5,0,8.3,0c13.8,0,27.5-0.1,41.3,0.2c15,0.3,30,1.3,45,1.6c15.3,0.3,30.6,0.5,45.8,0.3
			c23-0.4,46-1.5,68.9-1.9c12-0.2,24,0.2,35.9,0.4c14,0.3,28.1,0.4,42.1,1c14.7,0.6,29.4,1.8,44.1,2.6c10.7,0.6,21.4,1,32.2,1.6
			c14.9,0.7,29.7,1.6,44.6,2c6,0.2,12.1-0.3,18.1-0.7c13.5-0.9,26.9-2.2,40.4-2.6c7.4-0.2,6.9-0.1,7.7,6.3c1,8,1.5,16.2,1.7,24.3
			c0.3,12.1,0.1,24.2,0.1,36.3C475.9,71.4,475.8,71.4,475.6,71.4z M465.4,308.9c0.2-2.4,0.4-3.7,0.4-5c0-4.3,0.1-8.5-0.1-12.8
			c-0.3-11.3-0.7-22.6-0.9-33.8c-0.1-3.6,0.2-7.2,0.1-10.7c-0.2-10.6-0.7-21.2-0.8-31.8c-0.1-14.5,0-28.9,0.3-43.4
			c0.2-10.2,1-20.4,1.2-30.5c0.4-15.8,0.4-31.7,0.8-47.5c0.2-9.5,0.8-19,1-28.5c0.1-3.3-0.2-6.6-0.3-9.9c-0.2-7.2-0.4-14.3-0.8-21.5
			c-0.3-7.1-0.9-14.3-1.3-21.4c-0.1-2.3-1.4-3-3.5-3c-2.5,0-5-0.1-7.4,0c-13.5,0.8-26.9,1.5-40.4,2.6c-8.2,0.7-16.2,0-24.3-0.6
			c-9.6-0.7-19.2-1.3-28.8-1.9C355.4,8.9,350.2,9,345,8.7c-7.3-0.4-14.5-0.9-21.8-1.3c-4.3-0.2-8.5-0.3-12.8-0.5
			c-13.3-0.6-26.7-1.4-40-1.9c-8.9-0.4-17.9-0.4-26.8-0.6c-8.8-0.2-17.6-0.6-26.4-0.5c-8.8,0-17.6,0.5-26.4,0.8
			c-8.1,0.3-16.2,0.8-24.3,1.1c-3.6,0.2-7.2,0.3-10.7,0.4c-11.8,0.2-23.7,0.5-35.5,0.7c-4.3,0.1-8.5,0.1-12.8-0.1
			c-15-0.8-29.9-2.1-45-1.9C47.9,5.1,33.5,5,19,4.9c-2.6,0-5.2-0.3-7.8-0.4C9.6,4.5,8.1,4.8,7,4.9c0,3.2,0,5.8,0,8.4
			c-0.1,4.7-0.3,9.3-0.2,14c0.3,12.8,0.8,25.6,1,38.3C8,72.1,7.9,78.6,7.6,85c-0.5,9.2-1.6,18.4-2,27.6c-0.6,13.1-1.4,26.1-0.4,39.2
			C6,162.5,6.5,173.3,7.1,184c0.2,3.8,0.4,7.7,0.5,11.5c0.3,9.6,1,19.3,0.7,28.9c-0.6,15.8-1.9,31.6-2.8,47.4
			C5.1,278.4,5,285,4.9,291.7c-0.1,13.5-0.2,27-0.1,40.5c0.1,11.4,0.5,22.8,1,34.3C6.5,385,7.7,403.5,8,422.1
			c0.2,12.2-0.5,24.5-1.3,36.7c-1.1,16-1.4,31.9-1.3,47.9c0,2.3,0.5,4.6,0.7,7.1c2.1,0.1,3.7,0.3,5.3,0.3c8.9-0.3,17.9-0.6,26.8-0.8
			c2.6-0.1,5.2,0.1,7.8,0.2c7.4,0.1,14.9,0.1,22.3,0.2c2.3,0,4-0.9,5.2-2.7c2.8-4.3,5.7-8.5,8.3-12.8c2.7-4.5,4.7-9.3,4.1-14.9
			c-0.1-0.9,0-2,0.3-2.9c2.1-7.3,3.3-14.8,7.1-21.5c0.5-0.9,0.9-2,1.3-3.1c3.3-9.8,6.6-19.6,10-29.3c1-3,2.1-5.7-1-8.1
			c-0.7-0.5-1.1-1.6-1.3-2.5c-1-3.6-1.8-7.2-2.9-10.8c-0.5-1.7-1.2-3.3-2.2-4.7c-3.4-4.8-2-10.2,3.3-12.7c1-0.5,2-0.9,3.3-1.4
			c-1-4.2-0.8-8.5-2.6-12.4c-2.8-6,1.1-12.3,7.6-12.9c0.8-0.1,1.6-0.2,2.6-0.3c-0.3-1.7-1.1-3.3-0.7-4.5c0.9-2.5,0.1-4.6-0.6-6.8
			c-1-3.2,0-6,2.6-7.7c3.1-2,3.6-4.5,2.8-7.7c-0.3-1.2-0.6-2.4-0.7-3.6c-0.1-1.3-0.3-2.8,0-4.1c1.5-6.6,8.9-9.8,15.1-6.6
			c2.3,1.2,4.5,2.5,6.7,3.7c3.9-4.4,5.5-9.4,7.3-14.3c0.3-0.7,0-1.6-0.2-2.4c-1.2-5.2-1-10.4,0.3-15.5c1.8-6.7,5.1-12,12.1-14.6
			c5-1.8,10.1-2.3,15.4-2.5c5.9-0.2,10.9,1.5,15.1,5.4c4.6,4.2,8.9,8.7,10.7,14.9c0.1,0.4,0.5,0.6,1.1,1.4c3.4-5.5,6.2-11,9-17.2
			c-2.4-0.3-4.1-0.4-5.8-0.9c-3.5-1.1-7.4-1.7-10.4-3.6c-8-5.2-14.5-12.2-20.2-19.9c-1.1-1.5-2-3.3-2.8-5.1
			c-3.7-8.2-5.5-17-7.7-25.7c-1.3-5.3-2.8-10.6-4.2-15.6c-8.9-0.9-12.2-3.6-14.5-11.7c-0.5-1.6-0.7-3.2-1-4.8c-1-5-1.9-10-2.8-15
			c-0.7-4-1.8-8.1-2-12.2c-0.3-5.8,1.5-10.9,8.4-13.1c-0.8-2.8-1.8-5.3-2.4-7.9c-1.8-8.3-3.7-16.7-3.7-25.3c0-6.7-0.4-13.5,2-20
			c0.5-1.4,0.6-3,1-4.4c2.2-9.7,4.8-19.2,11.3-27.2c2-2.4,4-4.9,5.7-7.6c4.8-7.5,10.2-14.4,18-19c10.7-6.4,20.4-14.6,33.2-17
			c0.7-0.1,1.3-0.4,2-0.6c7.2-2.5,14.7-4,22.3-3.5c13.8,0.9,27.3,3.3,40.4,8.2c3.5,1.3,7.2,2.5,10.1,4.7c6.4,5,12.8,10.1,18.2,16.1
			c9.1,10.2,14.6,22.6,18.6,35.6c4.2,13.9,5.3,28.1,3.1,42.5c-0.6,4.2-1.1,8.4-1.6,12.9c5.1,0.9,7,4.6,7.5,8.9
			c0.6,4.9,0.9,9.9,0.8,14.8c-0.1,4.9-0.7,9.9-1.4,14.8c-0.5,3.7-1.1,7.4-2.1,10.9c-1.7,6.1-5.2,10.6-11.8,11.9
			c-0.2,0-0.3,0.4-0.6,0.7c0.4,3.3,2.5,5.6,5.1,7.5c3.9,2.8,7.9,5.5,11.7,8.5c3.4,2.7,6.6,5.8,9.9,8.8c5.2,4.8,11.1,8.6,17.6,11.4
			c2.6,1.1,5.3,2.3,7.7,3.9c5.4,3.5,11.4,5.5,17.3,7.7c5.8,2.1,11.6,4.3,17.4,6.6c5.1,2.1,10,4.8,15.1,6.6
			c13.1,4.5,23.3,12.7,32,23.2c5.6,6.7,10.3,13.9,14.5,21.5C463.5,306.6,464.2,307.3,465.4,308.9z M230.4,510.5
			c1.4,0.1,2.5,0.3,3.5,0.3c11.2,0,22.3,0,33.5,0c13.2,0,26.4-0.2,39.7-0.1c12.9,0,25.9-0.3,38.8,0.4c20.1,1.2,40.1,2.1,60.3,1.5
			c3-0.1,6.1,0.2,9.1,0.2c14.9,0.1,29.7,0.2,44.6,0.2c2.8,0,3.3-0.6,3.4-3.5c0.1-2.9,0-5.8,0-8.7c0.1-22.2,0-44.3,0.3-66.5
			c0.2-20.1,0.9-40.2,1.3-60.3c0.2-12.5,0-25.1,0.4-37.6c0.2-5.4-0.6-10.3-2.9-15.2c-4.4-9.4-9.5-18.3-15.4-26.9
			c-1.6-2.4-3.6-4.5-5.5-6.7c-6.6-7.4-14.7-12.9-23.6-17.1c-11.4-5.5-23-10.5-34.6-15.6c-10.7-4.7-21.8-8.6-31-16.2
			c-0.5-0.4-1.2-0.4-2-0.6c-0.6,4-1.4,7.8-1.7,11.6c-0.7,6.8-2.2,13.3-5.1,19.5c-3.9,8.4-7.7,16.7-10.4,25.6
			c-3.1,10.3-6.6,20.5-8.9,30.9c-1.9,8.7-2.4,17.7-3.5,26.6c-0.4,3.2-1,6.1-3.3,8.7c-1.4,1.5-2.6,1.9-4.3,1.1c-2-1-3.9-2-5.9-3
			c-10.9-5.3-21.8-10.6-32.7-15.8c-4.1-2-8.1-3.9-12.2-5.9c-0.7,0.8-1.3,1.4-1.8,2c-4.8,6-9.7,12-14.5,18c-4.9,6.2-9,12.9-10.6,20.8
			c-0.8,4-1.4,8.1-1.9,12.2c-1.5,12.9-1,25.8-0.6,38.8c0.3,9.6,0.5,19.3,0.1,28.9c-0.7,16.8-1.8,33.5-2.8,50.3
			C230.2,508.9,230.3,509.5,230.4,510.5z M152.9,182.4c3.8,1.3,3.8,1.4,4.4,4.3c2.5,12.3,5,24.5,7.6,36.8
			c2.6,11.9,6.6,23.2,14.1,33.2c5.5,7.4,11.6,13.5,21.6,14.2c6.6,0.5,13.1,1.5,19.7,0.8c10.9-1.2,21.4-3.5,31.5-7.8
			c9.7-4.2,18-10,24-18.9c3.8-5.6,7.9-11,11.8-16.5c2.9,3.1,3.2,4.9,1.1,8.3c-1.7,2.7-3.3,5.4-5,8c-9.9,15-23.2,25.2-40.9,29.2
			c-9.2,2.1-18.5,4.2-28.1,3.9c-0.2,0-0.4,0.4-0.7,0.7c0.3,0.5,0.6,1.1,1,1.6c3.9,5.3,7.7,10.7,11.8,15.9c4.5,5.8,6.8,12.4,8.6,19.4
			c2,7.7,3.7,15.5,7.6,22.7c1.4,2.5,3.1,4.7,5.7,6.6c1.3-1.4,2.6-2.7,3.7-4.1c7.7-9.9,14.7-20.1,20.8-31.2
			c10-18.5,17.8-37.8,24.7-57.6c4-11.6,8.3-23,11.1-35c0.7-3.1,1.2-5.7-0.3-8.7c-0.8-1.6-0.8-3.7-1.1-5.6c-0.2-1-0.2-2.1-0.2-3.1
			c-5.9-0.9-5.9-2.1-5-4.9c4-0.6,7.8-1.1,11.5-1.8c3.8-0.7,6.4-3.2,7.9-6.6c0.7-1.6,1.4-3.4,1.6-5.1c0.9-10,1.6-20,2.2-30
			c0.1-1.7-0.4-3.6-0.8-5.3c-0.8-3-1.3-3.2-4.3-3.2c-2.7,0-4.7,1.3-6.7,2.8c-1.2,0.9-2.5,1.8-3.9,2.1c-5.6,1.3-8.9-0.4-11.4-5.5
			c-1.2-2.5-2.2-5-3.3-7.6c-3.4-7.6-9.8-11.9-16.5-16.3c-8.4-5.5-16.6-11.3-24.9-17c-3.4-2.3-5.1-5.7-5.6-9.7
			c-0.2-1.7-0.4-3.5-0.7-5.5c-2,0-3.7,0-5.5,0c-8.4,0.1-16.8,0.2-25.2,0.3c-4.5,0-9.1-0.6-13.6-0.3c-8.8,0.5-17.5,1.6-26.1,3.7
			c-2.8,0.7-5.7,0.9-8.5,1.2c-3,0.3-5.4,1.4-6.3,4.4c-0.8,2.5-1.5,5-2,7.5c-1,5-1.7,10-2.6,15c-1.2,7-2.7,14-3.8,21.1
			c-0.5,3.5-0.1,7.1-0.4,10.7c-0.2,2.7-1.2,5-3.4,6.8c-0.7-0.1-1.2-0.1-1.7-0.3c-3.3-1.3-5.2,0.4-6.1,3.5c-0.9,3.2-0.6,6.2,0.7,9.3
			c3.1,7.7,5.7,15.5,6.7,23.8c0.2,1.8,0.8,3.5,1.5,5.1c0.3,0.8,1.3,1.3,2.6,2.5C154.6,194,151.3,188.5,152.9,182.4z M221.8,510.8
			c0.4-2.3,0.9-4,1-5.8c1-10.7,2-21.4,2.9-32.1c0.5-5.6,1.1-11.3,1.1-16.9c-0.1-18.4-0.6-36.9-0.9-55.3c-0.1-5.9-0.1-11.9,0.4-17.7
			c0.6-6.4,2.4-12.6,6.3-18.2c-1-0.4-1.6-0.8-2.3-0.9c-6.4-1.9-12.9-3.9-19.4-5.8c-2.9-0.8-4.9-2.4-6-5.2c-1.2-3.4-2.4-6.7-3.5-10.1
			c-0.4-1.2-0.7-2.5-1.1-3.9c-1,0.4-1.5,0.6-2,0.8c-2.7,0.9-4,2.4-4.1,5.7c-0.3,5.7-2.1,11.1-5.6,15.7c-4.3,5.7-5.1,12.1-3.6,18.8
			c1.5,6.8,3.2,13.6,3.6,20.7c0.4,6.2,1.6,12.7-1,18.4c-2.7,5.8-2.8,11.3-2.3,17.5c0.9,13,1,26.1,1.5,39.2c0.4,10.6,2.3,21,4.8,31.4
			c1,4,1.6,4.4,5.7,4.3c5.6-0.1,11.3-0.3,16.9-0.4C216.6,510.8,219,510.8,221.8,510.8z M127.5,435.2c0.3,0.1,0.6,0.3,0.9,0.4
			c1.3,1.5,2.8,3,3.9,4.6c4.9,7.2,16.2,11.1,24.3,2.8c2.3-2.4,4.8-4.5,7.3-6.7c1.4-1.2,3.2-1.2,4.4,0c1.3,1.3,0.8,2.5-0.1,3.7
			c-2.1,2.7-3.9,5.9-6.5,7.9c-6.4,5-13.7,6.9-21.7,4.5c-1.1-0.3-2.3-0.6-4.1-1c3,20.3,4.3,40,0,59.5c0.9,0.4,1.2,0.8,1.6,0.8
			c15.6,0,31.1-0.1,46.7-0.2c0.8,0,1.6-0.2,2.6-0.4c-0.1-1.1-0.2-2-0.4-2.9c-0.8-3.5-1.6-7-2.4-10.5c-3.8-15.8-4.5-31.9-5.2-48
			c-0.3-6.7-0.5-13.4-0.8-20c-3-1.4-6.6,0.1-8.9-3.7c1.9-0.3,3.3-0.7,4.8-0.7c3.1-0.1,5.2-1.6,6.6-4.3c0.9-1.7,1.7-3.5,2.1-5.3
			c1.3-5.4,1.8-10.9,0.7-16.4c-1.3-6.8-2.5-13.5-4.1-20.2c-1.7-7-1-13.3,3.1-19.4c1.8-2.7,3.6-5.6,5-8.6c1-2.2,1.8-4.6,2.1-7
			c0.5-3.9-0.9-5.3-4.9-5.1c-4.7,0.2-8.7,2.4-12.4,5.1c-4.7,3.5-7.3,8.5-9.5,13.7c-0.7,1.7-1.1,3.3-0.5,5.2c0.9,3.1,1.2,6.2,0.2,9.4
			c-0.9,2.8-2.5,4.1-5.4,4.2c-1.4,0.1-2.9,0-4.8,0c0.8,1.1,1.5,1.8,1.9,2.6c1.1,2,2.5,4,3.1,6.2c1.4,5.4-1.1,8.8-6.7,9.5
			c-1.4,0.2-2.7,0.2-4.7,0.4C139.7,408.5,133.6,421.8,127.5,435.2z M315.3,212.6c-1.5,3.8-2.3,7.4-3.1,11
			c-1.8,7.9-3.4,15.9-5.9,23.6c-3.2,9.6-7.2,19.1-11.1,28.4c-6.4,15.1-13.9,29.7-21.9,44c-1.9,3.5-4,6.9-6.2,10.7
			c14.3,7.4,27.2,16.8,42.7,22.4c0.2-1.8,0.5-3.3,0.6-4.8c1.4-16.4,5-32.3,11-47.7c5.3-13.6,10.5-27.2,15.9-40.8
			c3-7.5,4.3-15.4,5.1-23.3c0.2-2.3-0.1-4.4-2.1-5.9c-4.5-3.5-8.8-7.1-13.4-10.4C323.3,217.3,319.4,215.1,315.3,212.6z M208.4,291.5
			c-2.6,3.6-4.9,6.9-7.4,9.9c-1.6,1.9-2.7,3.9-3.5,6.4c-2.7,8.4-6.6,15.9-14.1,21.3c-1.9,1.4-3.4,3.4-5.6,5.7c3.5,0,6.2-0.5,8.6,0.1
			c2.9,0.7,5.1-0.1,7.3-1.7c2.1-1.5,4.3-3,6.5-4.4c2-1.3,3.2-1.1,4.4,1c1,1.6,1.7,3.4,2.4,5.2c1.5,4,2.9,8,4.3,12
			c1.3,3.4,3.4,5.9,7.1,7c5.8,1.7,11.6,3.4,17.4,4.9c0.8,0.2,2.1,0.1,2.6-0.4c1.8-2,3.8-3.9,4.4-6.5c-2.5-2.7-5.3-5-6.9-7.9
			c-4.9-8.7-9.3-17.8-10.8-27.9c-0.1-0.7-0.3-1.4-0.7-1.9C219.8,306.4,215,298.7,208.4,291.5z M125.9,440.9
			c-0.4,0.1-0.7,0.1-1.1,0.2c-1.2,3.2-2.5,6.4-3.6,9.6c-2.8,8.1-5.2,16.3-8.2,24.2c-1.9,5-4.4,9.8-8.4,13.6
			c-2.4,2.3-4.4,4.9-6.4,7.5c-2.8,3.7-5.5,7.5-8.3,11.3c-1.2,1.6-2.4,3.2-3.9,5.2c1.7,0.2,2.6,0.4,3.6,0.4c12.4-0.3,24.8-0.6,37.2-1
			c3-0.1,3.5-0.3,3.9-3.6c0.6-6.2,1.3-12.3,1.3-18.5c0-8.9-0.5-17.9-0.8-26.8c-0.2-6.5-1.8-12.8-3.5-19
			C127.4,442.9,126.5,442,125.9,440.9z M147.2,302.1c-0.5,4.7,1.5,7.6,5.8,9.4c2.9,1.2,5.8,2.6,8.6,4c5.7,2.8,11.9,4.1,18.1,5.4
			c3.8,0.8,4,1,5.8-2.4c4.3-8.2,6-16.7,3.7-25.9c-1.6-6.5-5.5-10.2-11.6-12.2c-5.7-1.8-11.3-1.8-17,0c-6.1,1.8-10,5.6-11.6,11.6
			C148.2,295.3,147.8,298.8,147.2,302.1z M158.8,366c-0.3-3.1-1.9-5.8-4.7-7.9c-4.1-3-8.4-5.8-12.3-9c-3.4-2.8-7.2-4.7-11.1-6.3
			c-4.2-1.7-8.5-2.3-12.6,0.4c-4.8,3.1-5.3,7.1-1.2,10.8c1.8,1.6,4.1,2.7,6.3,3.9c3.2,1.6,6.5,3,9.7,4.6c5,2.6,10,5.3,15,7.9
			c1.4,0.7,3.1,1.2,4.7,1.5C157.3,372.8,158.9,371.3,158.8,366z M114.1,365.2c-1.1,0-2.2,0-3.3,0c-3,0.1-5.2,1.9-6.2,4.6
			c-0.6,1.8-0.4,3.4,1.2,4.4c2.9,1.8,5.8,3.9,9,4.9c9,2.7,17.8,5.5,26.2,9.9c2.7,1.4,5.7,1.9,8.8,1.3c3.4-0.7,4.6-2.8,3.4-6
			c-0.9-2.4-2.6-4.1-5-5.2c-4-1.9-7.8-4.1-11.7-6.1C129.3,369.5,122.6,364.8,114.1,365.2z M125.1,322.9c-2.5,0.1-5.2,2.4-6,4.8
			c-0.8,2.6,0,5.2,2.7,6.7c3.2,1.8,6.6,3.3,10,4.8c4.9,2.2,9.8,4.3,14.8,6.2c2.3,0.9,3.9-0.6,3.3-2.9c-0.4-1.5-1.3-3.1-2.3-4.3
			c-5.1-6.1-11.5-10.6-18.5-14.2C127.9,323.3,126.3,323.2,125.1,322.9z M112.2,388.7c-2.7,0.9-6.3,1.8-9.7,3.1
			c-2,0.7-3.1,2.4-2.9,4.5c0.3,2.3,2.4,2.6,4.1,2.7c8.3,0.7,16.7,0.7,24.8-1.7c1.7-0.5,3.3-1.4,4.7-2.4c0.6-0.4,1-1.7,0.9-2.5
			c-0.1-0.5-1.1-1.2-1.8-1.3C125.9,390.4,119.6,389.6,112.2,388.7z M106.8,379.7c0.5,2.2,0.7,3.6,1.1,5.2c3.6,0,6.8,0,10.6,0
			C114.6,383.1,111.1,381.6,106.8,379.7z M108.1,411.5c0.4-0.1,0.7-0.1,1.1-0.2c0.3-2.3,1.9-4.5,0.5-7.4c-1.1,0.2-2.2,0.4-3.8,0.6
			C106.8,407.2,107.4,409.4,108.1,411.5z M114.9,357.5c0.4,3.4,0.4,3.4,4.9,3.3C117.9,359.5,116.6,358.6,114.9,357.5z"/>
		<path d="M259.5,488.4c-0.5,0-1.1-0.1-1.6-0.1c-4.3-0.3-6.7-1.9-7.7-5.1c-0.9-2.8,0.8-7.7,3.8-9.4c2.8-1.5,6.1-2,9.1-0.9
			c3,1,4.8,3.6,5.5,6.8C269.3,483.1,265.4,489.3,259.5,488.4z M261.4,477.8c-3.3-1.4-5.7-0.3-6.9,3.2c-0.3,0.8-0.2,2.1,0.3,2.5
			c0.5,0.4,1.8,0.3,2.6,0C259.9,482.4,260.4,479.9,261.4,477.8z"/>
		<path d="M255.6,376.4c4.7,0.3,7.4,2.6,7.6,6.3c0.2,3.3-2.7,8-7.6,8.2c-0.1,0-0.3,0-0.4,0c-5.3,0.4-8.5-1.7-8.5-5.4
			C246.7,379.5,250,376,255.6,376.4z M251.3,385.5c2.6-0.7,4.6-1.4,4.6-4.2C252.1,381.5,252.1,381.5,251.3,385.5z"/>
		<path d="M225.1,161.4c3.4,0,6.3,0,9.7,0c-0.9-2.2-1.7-4.1-2.5-6c-2.6,0.1-4.5,1.5-6.5,2.7c-2.3,1.5-2.7,1.3-4.8-1.5
			c1.1-0.9,2.2-1.9,3.4-2.6c8.9-5.3,18.4-6.1,28.2-3.5c2.8,0.7,2.2,1,2,4.4c-0.4,6.5-5.2,7.4-9.6,8.7c-5,1.4-10.2,2.4-15.5,1.4
			C227.8,164.6,225.8,164.6,225.1,161.4z M251.6,155.3c0-0.3,0-0.5,0-0.8c-0.6,0-1.3,0-1.9,0c0,0,0,0.5,0,0.8
			C250.3,155.3,251,155.3,251.6,155.3z"/>
		<path d="M261.9,134c-2.5,1.2-4.7,0.8-6.8,0.1c-8.6-2.9-16.8-1.9-24.8,1.9c-1.9,0.9-3.8,1.6-5.7,2.3c-2.4,0.8-3.8-0.1-3.6-2.7
			c0.1-1.4,0.8-3,1.7-4c3.2-3.4,7.4-5.3,12-5.9c7.8-1.1,15.3,0.6,22.6,3.2C259.5,129.7,261.6,131,261.9,134z"/>
		<path d="M184.9,159.2c-1.5,0.3-2.7,0.5-3.8,0.7c-0.8,1.8-0.1,2.5,1.4,3.3c2,1.1,1.9,2.5-0.1,3.6c-4.1,2.2-8.6,2.8-13.2,2.1
			c-2-0.3-3.7-1.2-3.8-3.9c1.1-0.1,2.2-0.2,3.5-0.4c0-0.9,0-1.9,0-3.2c-1.1,0.2-1.8,0.4-2.6,0.6c-1.4,0.4-2.8,0.6-3.4-1.2
			c-0.5-1.5,0.6-2.3,1.7-2.9c5.4-2.6,11-3.3,16.9-2.3C183.1,156,184.6,156.7,184.9,159.2z"/>
		<path d="M190.4,137.1c-1.3,2.7-3.2,3.6-5.8,3.3c-1.5-0.2-3-0.4-4.5-0.4c-3.8,0-7.6,0.2-11.4,0.3c-0.8,0-1.8,0.6-2.4,0.3
			c-1.3-0.6-2.7-1.4-3.4-2.6c-0.4-0.6,0.6-2.2,1.2-3.1c0.4-0.6,1.3-1.1,2-1.3c4.6-1.1,9.2-3,14.1-2.5
			C184.4,131.7,188,133.4,190.4,137.1z"/>
		<path d="M197.1,233.6c1.6-0.3,3.2-0.7,4.8-0.8c6.1-0.3,12-1.5,17.2-4.9c1.4-0.9,2.7-1.4,4.1-0.1c1.1,1,1.8,2.2,0.6,3.6
			c-1.3,1.5-2.6,3.3-4.2,4.3c-4.4,2.8-9.2,5-14.6,4.9C200.3,240.6,198.4,239,197.1,233.6z"/>
		<path d="M223.5,222.3c-0.8,0-1.8,0.1-2.7,0c-3.7-0.5-7,0.3-10.4,1.7c-2.3,1-5.1,1-7.6,1.6c-1.8,0.4-3.7,0.8-5.5,1.4
			c-1.5,0.5-2.9,1.2-4-0.6c-0.8-1.3,0-2.6,2.4-3.5c1.8-0.6,3.7-1,5.5-1.3c3.1-0.4,6.1-0.8,9-2.4c3.6-1.9,7.6-2.5,11.4-0.3
			C223,219.5,224.3,220.2,223.5,222.3z"/>
		<path d="M313.6,157.2c3.8,0.5,4.9,1.6,4.5,4.3c-0.3,1.6-0.7,3.3-1.4,4.7c-1.4,2.8-2,5.5-1,8.7c1.1,3.7-3.4,8.3-7.3,7.8
			c-0.5-0.1-0.9-0.5-1.6-1.1c1.4-1.3,2.5-2.4,3.7-3.5c1.3-1.2,1.9-2.7,1.2-4.5c-1.1-2.8-0.5-5.3,0.9-7.9
			C313.9,163.3,315,160.6,313.6,157.2z"/>
		<path d="M193.3,193.4c1.8,1,2.9,1.6,4.7,2.6c-1.2,0.7-1.9,1.5-2.6,1.5c-4,0.3-6.9-3.8-5.3-7.5c1-2.2,2.2-4.4,3.2-6.5
			c3.5,0.8,3.8,1.1,2.8,3.9C195.3,189.4,194.3,191.3,193.3,193.4z"/>
		<path d="M201.4,199.2c2.7-1.6,5.1-3.1,7.6-4.4c1.7-0.9,3.1-0.6,4,1.3C209.2,201,204.7,202.2,201.4,199.2z"/>
		<path d="M217.5,195.5c3-1.2,4.3-3,3-6c2.4-1.1,3.4,0.4,4.2,2c0.9,1.7,0.1,4-1.9,5.3C221.1,198,219.4,197.9,217.5,195.5z"/>
	</g>
	<path class="st1" d="M147.2,302.1c-0.5,4.7,1.5,7.6,5.8,9.4c2.9,1.2,5.8,2.6,8.6,4c5.7,2.8,11.9,4.1,18.1,5.4c3.8,0.8,4,1,5.8-2.4
		c4.3-8.2,6-16.7,3.7-25.9c-1.6-6.5-5.5-10.2-11.6-12.2c-5.7-1.8-11.3-1.8-17,0c-6.1,1.8-10,5.6-11.6,11.6
		C148.2,295.3,147.8,298.8,147.2,302.1z"/>
	<path class="st2" d="M465.4,308.9c0.2-2.4,0.4-3.7,0.4-5c0-4.3,0.1-8.5-0.1-12.8c-0.3-11.3-0.7-22.6-0.9-33.8
		c-0.1-3.6,0.2-7.2,0.1-10.7c-0.2-10.6-0.7-21.2-0.8-31.8c-0.1-14.5,0-28.9,0.3-43.4c0.2-10.2,1-20.4,1.2-30.5
		c0.4-15.8,0.4-31.7,0.8-47.5c0.2-9.5,0.8-19,1-28.5c0.1-3.3-0.2-6.6-0.3-9.9c-0.2-7.2-0.4-14.3-0.8-21.5
		c-0.3-7.1-0.9-14.3-1.3-21.4c-0.1-2.3-1.4-3-3.5-3c-2.5,0-5-0.1-7.4,0c-13.5,0.8-26.9,1.5-40.4,2.6c-8.2,0.7-16.2,0-24.3-0.6
		c-9.6-0.7-19.2-1.3-28.8-1.9C355.4,8.9,350.2,9,345,8.7c-7.3-0.4-14.5-0.9-21.8-1.3c-4.3-0.2-8.5-0.3-12.8-0.5
		c-13.3-0.6-26.7-1.4-40-1.9c-8.9-0.4-17.9-0.4-26.8-0.6c-8.8-0.2-17.6-0.6-26.4-0.5c-8.8,0-17.6,0.5-26.4,0.8
		c-8.1,0.3-16.2,0.8-24.3,1.1c-3.6,0.2-7.2,0.3-10.7,0.4c-11.8,0.2-23.7,0.5-35.5,0.7c-4.3,0.1-8.5,0.1-12.8-0.1
		c-15-0.8-29.9-2.1-45-1.9C47.9,5.1,33.5,5,19,4.9c-2.6,0-5.2-0.3-7.8-0.4C9.6,4.5,8.1,4.8,7,4.9c0,3.2,0,5.8,0,8.4
		c-0.1,4.7-0.3,9.3-0.2,14c0.3,12.8,0.8,25.6,1,38.3C8,72.1,7.9,78.6,7.6,85c-0.5,9.2-1.6,18.4-2,27.6c-0.6,13.1-1.4,26.1-0.4,39.2
		C6,162.5,6.5,173.3,7.1,184c0.2,3.8,0.4,7.7,0.5,11.5c0.3,9.6,1,19.3,0.7,28.9c-0.6,15.8-1.9,31.6-2.8,47.4
		C5.1,278.4,5,285,4.9,291.7c-0.1,13.5-0.2,27-0.1,40.5c0.1,11.4,0.5,22.8,1,34.3C6.5,385,7.7,403.5,8,422.1
		c0.2,12.2-0.5,24.5-1.3,36.7c-1.1,16-1.4,31.9-1.3,47.9c0,2.3,0.5,4.6,0.7,7.1c2.1,0.1,3.7,0.3,5.3,0.3c8.9-0.3,17.9-0.6,26.8-0.8
		c2.6-0.1,5.2,0.1,7.8,0.2c7.4,0.1,14.9,0.1,22.3,0.2c2.3,0,4-0.9,5.2-2.7c2.8-4.3,5.7-8.5,8.3-12.8c2.7-4.5,4.7-9.3,4.1-14.9
		c-0.1-0.9,0-2,0.3-2.9c2.1-7.3,3.3-14.8,7.1-21.5c0.5-0.9,0.9-2,1.3-3.1c3.3-9.8,6.6-19.6,10-29.3c1-3,2.1-5.7-1-8.1
		c-0.7-0.5-1.1-1.6-1.3-2.5c-1-3.6-1.8-7.2-2.9-10.8c-0.5-1.7-1.2-3.3-2.2-4.7c-3.4-4.8-2-10.2,3.3-12.7c1-0.5,2-0.9,3.3-1.4
		c-1-4.2-0.8-8.5-2.6-12.4c-2.8-6,1.1-12.3,7.6-12.9c0.8-0.1,1.6-0.2,2.6-0.3c-0.3-1.7-1.1-3.3-0.7-4.5c0.9-2.5,0.1-4.6-0.6-6.8
		c-1-3.2,0-6,2.6-7.7c3.1-2,3.6-4.5,2.8-7.7c-0.3-1.2-0.6-2.4-0.7-3.6c-0.1-1.3-0.3-2.8,0-4.1c1.5-6.6,8.9-9.8,15.1-6.6
		c2.3,1.2,4.5,2.5,6.7,3.7c3.9-4.4,5.5-9.4,7.3-14.3c0.3-0.7,0-1.6-0.2-2.4c-1.2-5.2-1-10.4,0.3-15.5c1.8-6.7,5.1-12,12.1-14.6
		c5-1.8,10.1-2.3,15.4-2.5c5.9-0.2,10.9,1.5,15.1,5.4c4.6,4.2,8.9,8.7,10.7,14.9c0.1,0.4,0.5,0.6,1.1,1.4c3.4-5.5,6.2-11,9-17.2
		c-2.4-0.3-4.1-0.4-5.8-0.9c-3.5-1.1-7.4-1.7-10.4-3.6c-8-5.2-14.5-12.2-20.2-19.9c-1.1-1.5-2-3.3-2.8-5.1c-3.7-8.2-5.5-17-7.7-25.7
		c-1.3-5.3-2.8-10.6-4.2-15.6c-8.9-0.9-12.2-3.6-14.5-11.7c-0.5-1.6-0.7-3.2-1-4.8c-1-5-1.9-10-2.8-15c-0.7-4-1.8-8.1-2-12.2
		c-0.3-5.8,1.5-10.9,8.4-13.1c-0.8-2.8-1.8-5.3-2.4-7.9c-1.8-8.3-3.7-16.7-3.7-25.3c0-6.7-0.4-13.5,2-20c0.5-1.4,0.6-3,1-4.4
		c2.2-9.7,4.8-19.2,11.3-27.2c2-2.4,4-4.9,5.7-7.6c4.8-7.5,10.2-14.4,18-19c10.7-6.4,20.4-14.6,33.2-17c0.7-0.1,1.3-0.4,2-0.6
		c7.2-2.5,14.7-4,22.3-3.5c13.8,0.9,27.3,3.3,40.4,8.2c3.5,1.3,7.2,2.5,10.1,4.7c6.4,5,12.8,10.1,18.2,16.1
		c9.1,10.2,14.6,22.6,18.6,35.6c4.2,13.9,5.3,28.1,3.1,42.5c-0.6,4.2-1.1,8.4-1.6,12.9c5.1,0.9,7,4.6,7.5,8.9
		c0.6,4.9,0.9,9.9,0.8,14.8c-0.1,4.9-0.7,9.9-1.4,14.8c-0.5,3.7-1.1,7.4-2.1,10.9c-1.7,6.1-5.2,10.6-11.8,11.9
		c-0.2,0-0.3,0.4-0.6,0.7c0.4,3.3,2.5,5.6,5.1,7.5c3.9,2.8,7.9,5.5,11.7,8.5c3.4,2.7,6.6,5.8,9.9,8.8c5.2,4.8,11.1,8.6,17.6,11.4
		c2.6,1.1,5.3,2.3,7.7,3.9c5.4,3.5,11.4,5.5,17.3,7.7c5.8,2.1,11.6,4.3,17.4,6.6c5.1,2.1,10,4.8,15.1,6.6
		c13.1,4.5,23.3,12.7,32,23.2c5.6,6.7,10.3,13.9,14.5,21.5C463.5,306.6,464.2,307.3,465.4,308.9z"/>
	<path class="st2" d="M125.9,440.9c-0.4,0.1-0.7,0.1-1.1,0.2c-1.2,3.2-2.5,6.4-3.6,9.6c-2.8,8.1-5.2,16.3-8.2,24.2
		c-1.9,5-4.4,9.8-8.4,13.6c-2.4,2.3-4.4,4.9-6.4,7.5c-2.8,3.7-5.5,7.5-8.3,11.3c-1.2,1.6-2.4,3.2-3.9,5.2c1.7,0.2,2.6,0.4,3.6,0.4
		c12.4-0.3,24.8-0.6,37.2-1c3-0.1,3.5-0.3,3.9-3.6c0.6-6.2,1.3-12.3,1.3-18.5c0-8.9-0.5-17.9-0.8-26.8c-0.2-6.5-1.8-12.8-3.5-19
		C127.4,442.9,126.5,442,125.9,440.9z"/>
</g>
</svg>
