<?xml version="1.0" encoding="utf-8"?>
<!-- Generator: Adobe Illustrator 19.1.0, SVG Export Plug-In . SVG Version: 6.00 Build 0)  -->
<svg version="1.1" id="Calque_1" xmlns="http://www.w3.org/2000/svg" xmlns:xlink="http://www.w3.org/1999/xlink" x="0px" y="0px"
	 viewBox="0 0 203.6 171.6" style="enable-background:new 0 0 203.6 171.6;" xml:space="preserve">
<style type="text/css">
	.st0{fill:#F4A300;}
	.st1{fill:#C0C0C0;}
	.st2{fill:#008A90;}
	.st3{fill:#6DA3C3;}
	.st4{fill:none;stroke:#F8AD3B;stroke-width:3;stroke-miterlimit:10;}
	.st5{fill:#F8AD3B;}
	.st6{fill:none;}
	.st7{fill:#E2F7EF;}
	.st8{fill:#FFFFFF;}
</style>
<g>
	<path class="st0" d="M166.1,87.5c-3.1,0.2-4.8-1.5-5.4-4.7c-0.5-2.6-0.9-5.2-1.4-7.8c-0.4-2-0.6-3.9,1.2-5.3c8.2,2,16.2,0.1,25,0.1
		c-4-6.9-7.8-13.3-11.1-19c-10.5-0.3-20.4-0.6-30.3-0.9c-4-0.1-7.9,0-11.9,0.1c-8.1,0.2-16.3,1.1-24.4,0.6
		c-16.5-0.9-32.8,0.3-49.2,1.1c-10.1,0.5-20.2,1.3-30.3,0.6c-1.6-0.1-3.2-0.1-5-0.2c-2.6,4.7-5.2,9.3-7.8,13.9
		c5.3,1.7,5.3,1.7,4.9,7.4c-0.2,3.2-0.3,6.3-0.6,9.4c-0.3,3.2-0.8,3.6-4.1,3.1c-3-0.5-6-0.8-9.4,0.1c1.5,2.5,2.6,4.5,3.9,6.6
		c1-0.2,2-0.4,3-0.4c1.2-0.1,2.3-0.1,3.5-0.2c2.9-0.2,6.4,2.4,6.6,5.3c0.2,3.6,0.7,7.5-0.3,10.9c-0.9,3,0.1,4.6,1.4,6.7
		c4.2,6.8,8.3,13.4,12.5,20.2c1.3,2.1,2.6,3.7,3.5,5.8c5.7,0.2,10.8,0.3,15.9,0.5c0.9-3-0.9-6.7,2.2-9.3c5.8,0.3,11.9,1.6,17.8,0.3
		c0.2-6.8,0.4-13.2,0.6-19.6c0.2-5,0.4-9.9,0.6-14.9c0.1-2,1.1-2.9,3.2-2.9c8.3-0.1,16.6-0.3,24.8-0.5c4.3-0.1,6,1.2,6.2,5.6
		c0.2,5,0.2,10,0.2,14.9c0,5.5,0.4,10.9,1.9,16.6c4.7-0.1,9.2-0.3,13.6-0.3c3.4,0,3.7,0.4,4,3.6c0.1,1.6,0.3,3.1,0.4,4.6
		c3.2,0.1,5.9,0.2,8.5,0.2c5.8,0.1,11.6,0.2,17.4,0.3c2.4,0,4.5-0.4,5.8-2.9c1.9-3.7,4.3-7.1,6.4-10.7c2.7-4.5,5.3-9,8.3-14.2
		c-4.8,0.1-8.8,0.2-12.7,0.2c-3.6,0-4.9-1.7-4.7-5.3c0.1-2.3,0-4.6-0.3-6.9c-0.3-3.4,0.2-3.9,3.7-4.1c7.3-0.3,14.6-0.6,21.9-1
		c1.3-0.1,3-0.2,3.7-1c2-2.5,3.8-5.1,4.4-8.3C184.5,86.4,175.3,87,166.1,87.5z M62,106.6c-6.9-0.2-13.5-0.4-20.7-0.6
		c-0.1-2-0.3-3-0.6-6c7.5,0.2,14.5,0.4,21.9,0.6C62.5,102.6,62.2,104.6,62,106.6z M45.1,80.9c0.4-2.1,0.6-3.6,0.9-5.1
		c5.3-0.1,10.4-0.2,15.5-0.4c2.3-0.1,3.2,1.1,3.8,3.6C59,82.6,52.3,80.7,45.1,80.9z M91.6,82.4c-0.3-2-0.7-3.6-1.1-6
		c5.4-1.7,10.8-0.6,16.6-0.1c0.1,1.9,0.3,3.5,0.5,6.5C101.9,82.7,97,82.6,91.6,82.4z M146.3,105c-5.6,0.2-10.9,0.3-16.5,0.4
		c-0.3-1.8-0.6-3.2-0.9-5.1c6.1-1.2,11.8-0.6,17.9-0.4C146.6,101.8,146.5,103.1,146.3,105z M131.1,81.6c-0.3-2-0.6-3.8-1-6.2
		c6.1-0.2,11.8-0.4,17.8-0.6c0.1,2.6,0.3,4.3,0.4,7.3C142.2,81.9,136.9,81.7,131.1,81.6z"/>
	<g>
		<path d="M48.2,0.3c18.8-0.1,37.9-0.5,57-0.2c13.9,0.3,43,2.5,43.6,2.3c3.5-0.7,5.1-0.2,6.6,2.3c2.9,4.8,5.8,9.6,8.6,14.5
			c8.8,15.1,17.5,30.2,26.3,45.2c3.7,6.3,7.7,12.4,11.7,18.5c2.2,3.4,2.1,4.5-0.7,7.6c-1.1,1.2-1.9,2.7-2.7,4.1
			c-4.7,8.6-9.6,17-14.1,25.8c-6.7,13.2-15.2,25.3-23.2,37.7c-1.8,2.8-5.5,7.6-7,10.6c-0.8,1.6-83.7,3-101.1,2.7
			c-3,0-11.1-13.5-13.4-19.2c-5.6-13.8-13.4-26.3-21.6-38.6c-4-5.9-7.7-12-11.6-18c-2.1-3.2-4.2-6.3-6.6-10
			c3.3-6.4,6.5-13.3,10.3-19.9c3.3-5.9,7.7-11.3,9.7-17.9c0.1-0.5,0.5-0.9,0.7-1.3C26.7,36.8,32.9,27,38.9,17c3-5,5.4-10.2,8.1-15.3
			C47.2,1.3,47.6,1,48.2,0.3z M185.4,69.8c-4-6.9-7.8-13.3-11.1-19c-10.5-0.3-20.4-0.6-30.3-0.9c-4-0.1-7.9,0-11.9,0.1
			c-8.1,0.2-16.3,1.1-24.4,0.6c-16.5-0.9-32.8,0.3-49.2,1.1c-10.1,0.5-20.2,1.3-30.3,0.6c-1.6-0.1-3.2-0.1-5-0.2
			c-2.6,4.7-5.2,9.3-7.8,13.9c5.3,1.7,5.3,1.7,4.9,7.4c-0.2,3.2-0.3,6.3-0.6,9.4c-0.3,3.2-0.8,3.6-4.1,3.1c-3-0.5-6-0.8-9.4,0.1
			c1.5,2.5,2.6,4.5,3.9,6.6c1-0.2,2-0.4,3-0.4c1.2-0.1,2.3-0.1,3.5-0.2c2.9-0.2,6.4,2.4,6.6,5.3c0.2,3.6,0.7,7.5-0.3,10.9
			c-0.9,3,0.1,4.6,1.4,6.7c4.2,6.8,8.3,13.6,12.5,20.4c1.3,2.1,2.5,4.2,3.5,5.9c5.7,0.2,10.8,0.3,15.9,0.5c0.9-3.3-0.9-6.9,2.2-9.5
			c5.8,0.3,11.9,1.5,17.8,0.2c0.2-6.8,0.4-13.2,0.6-19.7c0.2-5,0.4-9.9,0.6-14.9c0.1-2,1.1-2.9,3.2-2.9c8.3-0.1,16.6-0.3,24.8-0.5
			c4.3-0.1,6,1.2,6.2,5.6c0.2,5,0.2,10,0.2,14.9c0,5.5,0.4,10.9,1.9,16.6c4.7-0.1,9.2-0.3,13.6-0.3c3.4,0,3.7,0.4,4,3.6
			c0.1,1.6,0.3,3.1,0.4,4.6c3.2,0.1,5.9,0.2,8.5,0.2c5.8,0.1,11.6,0.2,17.4,0.3c2.4,0,4.5-0.4,5.8-2.9c1.9-3.7,4.3-7.1,6.4-10.7
			c2.7-4.5,5.3-9,8.3-14.2c-4.8,0.1-8.8,0.2-12.7,0.2c-3.6,0-4.9-1.7-4.7-5.3c0.1-2.3,0-4.6-0.3-6.9c-0.3-3.4,0.2-3.9,3.7-4.1
			c7.3-0.3,14.6-0.6,21.9-1c1.3-0.1,3-0.2,3.7-1c2-2.5,3.8-5.1,4.4-8.3c-9.7,0.6-18.9,1.2-28.2,1.7c-3.1,0.2-4.8-1.5-5.4-4.7
			c-0.5-2.6-0.9-5.2-1.4-7.8c-0.4-2-0.6-3.9,1.2-5.3C168.7,71.6,176.7,69.8,185.4,69.8z M50.2,5.4c-5.9,12.4-14.8,23.1-20.3,36.3
			c20.5,1.6,40.2-1.1,60.7-0.3c-0.1-6.9,0.1-13.2-0.5-19.4c-0.3-3.6,0.1-6.8,1.3-9.4c10.6-0.4,20.7-0.7,30.7-1.1
			c1.9-0.1,4.2-0.6,4.7,1.5c0.4,1.6-0.4,3.7-1.2,5.4c-0.6,1.4-2,2.5-3.1,3.9c1.7,2,3.2,3.5,4.4,5.3c2,3,1.4,4.6-1.8,5.9
			c-4.2,1.7-8.4,1.2-12.7,1.2c-5.8,0-11.5-0.3-17.5,1.3c0.1,1.9,0.2,3.5,0.3,5c8.7,1.5,69,1.5,73.3,0c-0.6-1.2-1.2-2.4-1.9-3.4
			c-4-6.3-8.1-12.6-12.1-18.8c-1.9-2.9-3.8-5.8-5.8-8.7c-1.5-2.2-3.6-3.2-6.3-3.3c-7.1-0.3-14.2-0.9-21.4-1.2
			c-16.3-0.5-32.5-1.1-48.8-1.3C64.9,4.1,57.6,5,50.2,5.4z M87.6,100.4c-0.3,10.8-0.6,21.2-0.9,32c7.3-0.3,14.3-0.6,21.7-1
			c-2.6-10.9-0.3-21.7-2.7-32.3C99.6,99.6,93.9,100,87.6,100.4z M158.5,146.3c-2.2-2.8-4.4-2.3-6.5-2.3c-8.8,0.2-17.5,0.4-26.3,0.7
			c-14.1,0.5-28.2,1.3-42.3,1.6c-10.3,0.3-20.5,0-30.8,0c-2.9,0-5.8,0.3-8.6,0.4c-0.3,2.5,0.9,2.8,2.4,2.8
			c5.3,0.1,10.6,0.3,15.9,0.1c8.1-0.4,16.2-1.4,24.3-1.6c22.4-0.5,44.8-0.8,67.2-1.2C155.2,146.9,156.5,146.6,158.5,146.3z
			 M152.1,154.7c-8.7-1.5-96.9,1.8-103.2,4.3c33.5,0.9,65.7-2.9,98.1-2.7c1,0,2-0.1,3-0.2c0.5,0,1-0.2,1.4-0.4
			c0.3-0.1,0.5-0.4,0.7-0.6C152.2,155,152.1,154.8,152.1,154.7z M127,139.8c0.7-3.7-0.9-3.9-3-3.8c-14.4,0.5-28.8,0.9-43.2,1.2
			c-5.8,0.1-11.6,0-17.4,0c-1.2,0-2.8-0.5-3,2.4C82.6,140.2,104.7,139.2,127,139.8z M171.4,82.6c7-0.4,13.2-0.8,19.8-1.1
			c-1.4-3.3-1.5-6.6-5.4-6.5c-4.8,0-9.5,0.2-14.7,0.4C171.2,77.7,171.3,79.8,171.4,82.6z M185.3,100c-4.6,0.2-9.1,0.3-13.7,0.5
			c-0.1,2.7-0.1,4.7-0.2,6.8c2.5,0.1,4.6,0.3,6.7,0.2C182.9,107.2,184.3,105.7,185.3,100z M104.1,17.4c-0.1,4.4-1.1,8.3,1.1,12.3
			c1.8-0.2,3.5-0.3,5.3-0.5c0.8-4.5,0.2-8.2-1.9-11.9C107.2,17.4,105.9,17.4,104.1,17.4z M99,18.1c-1.9-0.1-3.1-0.1-4.9-0.1
			c0.1,4.1,0.3,7.9,0.4,12.2c1.9-0.2,3.4-0.4,5.5-0.7C99.7,25.4,99.4,21.7,99,18.1z M15.9,72.6c-5.2-0.6-7.1,1.6-7.3,8.1
			c2.2,0.1,4.5,0.1,7.1,0.2C15.8,78,15.8,75.5,15.9,72.6z M115.1,28.8c2.7,0.7,4.7,1.1,6.6-1c-3.5-2.7-4.9-6.1-3.5-10.5
			c-1.6,0.1-2.7,0.2-4.2,0.2C114.4,21.4,114.7,24.9,115.1,28.8z M14.8,99.2c1.4,2.4,2.6,4.3,4.3,7.1c0.1-3.2,0.2-5.2,0.2-7.4
			C17.7,98.9,16.5,99,14.8,99.2z"/>
		<path d="M34,85.6c0.1-2.3,0-3.9,0.2-5.5c0.2-2.3,0.2-4.4-1.3-6.6c-0.8-1.2-0.4-3.2-0.5-4.6c10.4,0.4,20.1,0.8,29.8,1.1
			c5.8,0.1,7.3,1.5,7,7.3c0,0.2,0,0.3,0,0.5c-0.4,7.3-0.4,7.3-8,7.6C53.8,85.6,46.4,86,39,85C37.7,84.8,36.4,85.2,34,85.6z
			 M45.1,80.9c7.2-0.2,13.9,1.7,20.1-1.9c-0.5-2.5-1.4-3.7-3.8-3.6c-5.1,0.2-10.2,0.3-15.5,0.4C45.8,77.3,45.5,78.7,45.1,80.9z"/>
		<path d="M31,110.6c-1.1-4.8,1-9.8,0.7-15.4c3.1,0.1,5.5,0.2,8,0.2c7.8-0.1,15.5-0.2,23.3-0.3c0.8,0,1.7-0.1,2.5-0.1
			c3.4,0.3,3.8,1.7,2.2,4.8c-1.1,2.2-1.4,4.9-1.8,7.4c-0.5,3.4-1,4.2-4.1,4.1C51.6,111.3,41.6,110.9,31,110.6z M62,106.6
			c0.3-2.4,0.5-4.1,0.7-6c-7.4-0.2-14.4-0.4-21.9-0.6c0.2,2.5,0.4,4.5,0.6,6C48.5,106.2,55,106.4,62,106.6z"/>
		<path d="M152.7,87.4c-5.7-0.2-10.4-0.4-15.2-0.4c-3.3,0-6.6,0.2-9.9,0.3c-4.6,0.1-5.9-1-6.3-5.6c-0.2-2.5-0.2-5-0.2-7.4
			c0-3,0.8-3.8,3.8-3.9c2.3,0,4.6,0.4,6.9,0.4c4.8-0.1,9.6-0.3,14.4-0.6c3.9-0.2,4.7,0.2,5.2,4.1C151.9,78.3,152.2,82.3,152.7,87.4z
			 M148.3,82.3c-0.2-2.9-0.3-4.8-0.4-7.4c-6.1,0.2-11.7,0.3-17.8,0.5c0.4,2.4,0.7,4.4,1,6.4C136.9,82,142.2,82.2,148.3,82.3z"/>
		<path d="M148.8,112.4c-3.5-3.4-7.3-2.9-11.1-2.6c-5.1,0.3-10.2,0.7-15.3,1c-2.2,0.2-3.5-0.8-3.4-3.1c0.1-3.3,0.1-6.6,0.3-9.9
			c0.1-2.1,1.1-2.9,3.6-2.8c6.6,0.4,13.3,0.2,19.9,0.2c1.3,0,2.6-0.4,3.9-0.7c2.4-0.6,4.4,0.3,4.3,2.4
			C150.7,101.8,150.7,106.9,148.8,112.4z M146.8,99.9c-6.1-0.2-11.8-0.9-17.9,0.4c0.3,1.9,0.6,3.3,0.9,5.1c5.6-0.2,11-0.3,16.5-0.4
			C146.5,103.1,146.6,101.8,146.8,99.9z"/>
		<path d="M95.5,71.5c3.7-0.1,7.6-0.1,11.6-0.3c2.6-0.1,3.6,1.5,3.9,3.6c0.5,3.2,0.8,6.5,1.1,9.8c0.1,0.7-0.4,1.7-1,2.1
			c-0.7,0.6-1.8,1-2.7,1c-7.1,0.2-14.2,0.4-21.3,0.4c-3.7,0-5-1.4-5.2-5.2c-0.1-2.8-0.1-5.6,0-8.4c0.1-2.4,1.3-3.5,3.9-3.3
			C88.9,71.4,92.1,71.4,95.5,71.5z M107.6,83.2c-0.2-2.8-0.4-4.7-0.5-6.6c-5.9-0.6-11.2-1.7-16.6,0c0.4,2.4,0.8,4.4,1.1,6.2
			C97,82.8,101.9,83,107.6,83.2z"/>
	</g>
</g>
</svg>
