<?xml version="1.0" encoding="utf-8"?>
<!-- Generator: Adobe Illustrator 19.1.0, SVG Export Plug-In . SVG Version: 6.00 Build 0)  -->
<svg version="1.1" id="Calque_1" xmlns="http://www.w3.org/2000/svg" xmlns:xlink="http://www.w3.org/1999/xlink" x="0px" y="0px"
	 viewBox="106 129.4 961.3 243.6" style="enable-background:new 106 129.4 961.3 243.6;" xml:space="preserve">
<style type="text/css">
	.st0{fill:#008A90;}
	.st1{fill:#F4A300;}
</style>
<g>
	<g>
		<path d="M183.6,336.3c-5.2,0.2-9.8,0.6-14.5,0.6c-4.6,0-9.3-0.4-14.3-0.6c0,0.9-0.1,1.8,0,2.6c0.4,4.7,0.9,9.5,1.2,14.2
			c0.1,1.4-0.1,2.9-0.1,4.3c0,2.4,0.2,4.7,0.3,7.1c0,0.9,0.2,1.9,0.2,2.8c-0.1,1.8-1,2.8-2.9,3.1c-2.6,0.4-5.3,0.8-7.9,1.3
			c-1.6,0.3-3.2,0.8-4.8,1.1c-2.5,0.6-3.6,0.1-5-2c-1.2-1.8-2.5-3.6-2.6-6.1c3.7-3.2,8-4.3,12.9-3.4c1.9,0.3,3.8,0.6,6,1
			c0.4-1.5,0.8-2.7,0.9-3.9c0.4-6.8,0-13.7-1-20.4c-0.4-2.6-0.4-2.8-3-3c-4.8-0.5-9.3-1.6-13.8-3.5c-5-2.1-10.1-4.3-15.2-6.2
			c-2.7-1-4.4-3.1-5.8-5.4c-0.4-0.6-0.2-1.6-0.1-2.3c0.8-3.7,1.6-7.5,2.5-11.2c0.9-3.7,1.8-7.4,2.8-11.1c0.2-0.9,0.5-1.8,0.8-3
			c-2.3-0.4-4.3-0.9-6.4-1.2c-1.5-0.3-3.1-0.3-4.6-0.6c-1.9-0.4-3.1-1.7-3.1-3.7c-0.1-2.2,0-4.5,0-7.1c4.9-0.1,9.7,0.9,14.8,1.9
			c0.5-1.5,1-2.8,1.3-4.2c1.8-7.6,4.1-15.2,5.4-22.9c1.5-9.3,5.7-17.7,7.6-26.8c0.7-3.5,0.9-3.4-2.2-5.4c-3-1.9-6-3.6-8.8-5.8
			c-5.7-4.5-9.4-10.6-12.7-17c-2.5-4.9-4.7-9.9-5.2-15.5c-0.6-7,0.2-13.8,2.7-20.4c1.2-3.1,2.6-6.1,4-9.1c3-6.3,8.1-10.7,13.9-14.2
			c5.1-3.2,10.4-6,15.8-8.6c2.2-1.1,4.7-1.7,7.1-2.2c1.9-0.4,2.5,0.4,2.4,2.8c-4.2-0.6-7.6,1.5-11.1,3.1c-7,3.2-13.9,6.6-19.4,12
			c-2.5,2.4-4.9,5.2-6.5,8.2c-4,7.5-6.9,15.4-6.7,24.2c0.1,5.6,1.2,10.9,3.7,15.9c2.5,5.2,5.2,10.4,9.3,14.6
			c2.6,2.7,5.4,5.1,8.5,7.2c7.5,5.1,16.1,7,24.9,8.8c9.3,1.9,18.6,1.2,27.8,1.1c5.9-0.1,12-0.6,17.8-2.5c0.7-0.2,1.5-0.5,2.1-0.4
			c2.7,0.5,4.8-0.9,6.9-2.3c1.6-1.1,3.3-2.2,4.9-3.3c8.3-5.2,14.5-12.4,19.8-20.6c3.7-5.6,5.7-11.7,6.5-18.2
			c1.6-12.1-2.1-22.5-10.8-30.9c-3.6-3.5-8.3-5-13.1-6.1c-2.8-0.6-5.7-1.1-8.5-1.7c-0.9-0.2-1.6-0.5-1.3-1.6
			c0.2-0.1,0.4-0.3,0.6-0.3c10.2,0.3,19.8,2.4,26.7,10.8c3.3,4.1,6.1,8.7,7.5,13.8c3.2,11.2,1.7,22.1-3.4,32.5
			c-3.3,6.7-8.2,12.3-13.4,17.7c-4.8,4.9-10.9,7.8-16.5,12.1c2.3,16.8,4.4,33.9,8.6,50.7c0.5,0,0.9,0.2,1.3,0.1
			c2.7-1,5.3-2.1,7.9-3.3c2.3-1.1,4.1-0.4,4.6,2.1c0.5,2.4,0.9,4.9,1.1,7.4c0.1,1.1-0.5,2.3-0.9,3.9c-1.6-1.6-3.1-0.9-4.5-0.5
			c-2.7,0.9-5.5,1.8-8.4,2.8c0.5,10.1,2.5,19.7,3.5,29.5c-4.2,1.6-7.5,4.2-10.7,6.9c-0.5,0.4-1,0.7-1.6,1c-6,2.3-11.9,4.5-17.9,6.8
			c-1.4,0.5-2.9,0.9-4.4,1.3c-0.1,5.8,2,21.8,3.3,25.1c3.8-0.5,7.6-1.3,11.5-1.5c2.6-0.2,4.8-0.9,6.8-2.5c0.2-0.2,0.5-0.4,0.7-0.6
			c1.6-0.9,3.4,0.1,3.1,1.8c-0.5,3-1.3,6.1-2.2,9c-0.3,0.8-1.6,1.7-2.6,1.9c-2.9,0.7-5.9,1.1-8.9,1.4c-2.9,0.4-5.7,0.4-8.4,2
			c-1.5,0.9-2.6,0-2.8-2c-0.2-1.8-0.1-3.7-0.3-5.6c-0.3-2.5-0.7-5.1-1-7.6c-0.6-6-1.2-11.9-1.8-17.9
			C184.1,337.9,183.7,337,183.6,336.3z M204.2,235.1c-22.7,2.8-44.9,3.8-67.1-2.5c-0.5,2.2-0.8,4.2-1.3,6.2
			c-1.8,7.1-2.3,14.5-4.8,21.5c-0.7,2-1,4.2-1.4,6.3c-0.9,4.1-1.7,8.3-2.8,12.4c-2,7.8-4.3,15.5-6.4,23.3c-1.2,4.6-1.8,9.4-3.2,13.9
			c-0.8,2.6,0,4.2,1.8,5.6c0.9,0.7,1.9,1.1,3,1.6c4.1,1.7,8.2,3.4,12.3,5.1c2.5,1,5,2.4,7.5,2.7c8.3,1.2,16.4,3,24.9,3.1
			c6,0.1,11.7-0.6,17.6-1.5c9.1-1.4,16.9-6.4,25.3-9.6c2.7-1,4.9-3.6,7.3-5.5C212.7,290.1,208.5,262.7,204.2,235.1z"/>
		<path d="M187.6,190.9c-0.1,1.5-1.6,3-3,3.1c-1.2,0-2.2-1.3-2.2-2.8s1.3-2.9,2.7-2.9C186.3,188.3,187.7,189.7,187.6,190.9z"/>
		<path d="M157.3,188.6c0-1.6,0.7-2.5,2-2.6c1.6,0,2.9,1.1,3,2.5c0,1.5-1.3,2.6-2.9,2.5C158,191.1,157.3,190.2,157.3,188.6z"/>
		<path d="M166.6,317.8c-1.8-1.1-3-2-4.3-2.5c-4.8-1.8-9-4.7-12.9-7.9c-0.8-0.6-1.1-1.8-1.6-2.7c4.4-3.1,8.5-5.9,12.6-8.7
			c2.4-1.6,3.6-1.3,5.6,0.5c1.1,1,2.5,1.8,3.8,2.5c2.7,1.6,5.4,3,8,4.7c2.1,1.4,2.3,3.3,0.8,5C175.2,312.9,170.7,315.7,166.6,317.8z
			 M176.6,306.9c-1.7-2.2-3.5-3-5.3-3.9c-2.1-1-4.4-1.9-6.2-3.3c-1.6-1.2-2.7-1.1-4.1-0.2c-2.4,1.6-4.8,3.2-7.2,4.8
			c-0.6,0.4-1.2,0.8-2,1.4c4.9,4.1,9.7,6.9,15.5,7.5c0.6,0.1,1.4,0.2,1.8-0.2C171.5,311.1,174,309.1,176.6,306.9z"/>
	</g>
	<g>
		<path d="M684.5,328.6c-0.2,10.2-0.4,20.2-0.6,30.8c2.5-0.1,4.9-0.2,7.3-0.3c3.1-0.2,6.2-0.4,9.3-0.4c2.2,0,2.8,0.6,2.7,2.6
			c-0.2,3-0.7,6-1.1,8.9c-0.2,1.2-0.8,1.8-2.1,1.8c-4.7,0-9.5,0-14.2,0c-1,0-2.1-0.1-3.1-0.4c-2.5-0.6-2.8-1.1-2.7-3.6
			c0.4-9.7,0.9-19.5,1.2-29.2c0.1-3-0.2-5.9-0.3-9.2c-9.1,1.3-17.6,2.5-26.3,3.7c-0.5,11.5-0.8,22.9-0.3,34.2c0,1-0.1,2.1-0.5,3
			c-0.2,0.5-1.2,1.2-1.5,1.1c-3.3-1.4-6.4,0.4-9.6,0.4c-3.5,0-7.2-0.6-10.7,0.9c-1.5,0.7-3.1-0.9-2.6-2.5c0.5-1.8,0.3-3.4-0.5-5
			c-0.7-1.5-0.1-2.1,1.5-2.3c4.5-0.6,8.9-1.2,13.5-0.5c2,0.3,4.1-0.1,6.7-0.3c0-9.5,0-18.8,0-28.3c-2.6-0.3-5.2-0.7-7.9-0.8
			c-9-0.2-17.7-2-26.5-3.6c-2.7-0.5-3.9-2.6-5.6-4.1c1.1-12.4,4.5-24.3,4.9-37.1c-3.1,0.2-6,0.3-8.9,0.4c-1.3,0.1-2.6,0.3-3.8,0.1
			c-2-0.3-3-1.5-3.1-3.5c-0.1-2.6,0-5.3,0-8.4c1.6-0.2,3-0.5,4.5-0.6c3.9-0.4,7.8-0.8,11.7-1.2c1.3-0.1,1.7-1,1.9-2.1
			c0.7-3.3,1.4-6.6,2-9.9c1.3-8.1,2.4-16.3,3.5-24.4c0.1-0.5,0.1-0.9,0.2-1.4c0.5-5.1,0.4-5.1-4.2-7.2c-13-5.9-22.3-15.3-26.4-29.2
			c-1.4-4.7-3.1-9.2-2.8-14.3c0.3-7.7,2.6-14.8,5.8-21.7c5.9-12.5,16.7-19.5,28.2-25.8c1.1-0.6,2.4-0.9,3.6-1.3
			c1.4-0.3,2.6-0.1,2.9,1.7c-2.4,1.1-4.7,2.2-7.1,3.3c-5.2,2.4-9.8,5.7-13.9,9.7c-1.7,1.6-3.5,3-5.2,4.6c-0.8,0.7-1.6,1.4-2.1,2.3
			c-4.2,7.5-7.9,15.2-9,23.9c-0.5,4.7,0,9.2,1.2,13.8c2.6,10,7.7,18.3,15.7,24.8c3.2,2.6,6.7,4.5,10.6,5.7c4.2,1.3,8.3,2.8,12.5,4
			c2.5,0.7,5.2,1.2,7.8,1.5c12.9,1.4,24.9-1.6,36.3-7.3c1.8-0.9,3.5-1.8,5.1-3c6.7-5.2,12.8-11.1,17.4-18.4c1.7-2.8,3-6.1,3.7-9.3
			c1.2-6,2.1-12.1,2.6-18.2c0.2-2.9-0.9-5.9-1.6-8.8c-0.7-2.8-1.5-5.6-2.5-8.3c-2.7-7.2-6.8-13.1-14.2-16.2
			c-3.3-1.4-6.6-2.9-9.8-4.4c-1.5-0.7-1.9-1.8-1.4-3.6c0.8,0.1,1.5,0,2,0.3c4.4,2.3,8.7,4.8,13.1,7.1c3.3,1.8,5.9,4.4,8,7.6
			c5.2,7.7,7.4,16.5,9.2,25.3c0.4,2.1,0.2,4.4-0.1,6.6c-0.8,5.3-1.5,10.6-2.7,15.7c-1.4,5.5-4.4,10.2-8.2,14.4
			c-1.5,1.6-2.9,3.3-4.4,5c0.9,2.2,1.6,4.2,2.5,6.2c4.2,9,6.7,18.5,9,28.1c0.6,2.4,1.6,4.8,2.5,7.6c2.9-1,5.4-1.9,7.8-2.8
			c0.9-0.3,1.7-0.7,2.5-1.2c2.1-1,4.3-1.5,6.2,0.1c3.1,2.7,3.7,5.2,2.4,8.3c-0.2,0.4-0.4,0.9-0.8,1.1c-2.1,1.1-4.2,2.7-6.5,3.1
			c-4.1,0.7-7,2.9-9.8,6c1.7,5.2,3.3,10.5,5,15.8c2,6.3,4,12.6,6.1,18.8c0.5,1.4,0.2,2.5-1.1,3.3c-4.2,2.7-8.5,5.2-12.6,8
			c-4.5,3.1-9.5,4.7-14.7,6.1C689.8,327.1,687.4,327.8,684.5,328.6z M613.5,325.8c3.5,0.8,6.3,1.5,9.1,2c7.7,1.3,15.4,2.4,23.1,2.6
			c1.8,0.1,3.7,0.2,5.5,0c9.6-1.4,19.3-2.7,28.8-4.3c11.7-2,22.6-6,32.3-13.1c1.6-1.2,2-2.3,1.4-4.1c-0.9-2.5-1.6-5.1-2.4-7.6
			c-3.2-10.5-6.6-21-9.5-31.6c-3-10.7-5.6-21.5-8.4-32.3c-0.5-2-1.3-3.9-2.1-6.1c-20.6,10-42,12.3-64.6,9.3
			C622.5,268.8,618,297,613.5,325.8z"/>
		<path d="M635.3,185.3c-0.2,3.9-2.5,5.5-6.1,4.4c-2.2-0.7-3.8-2.6-3.8-5c2.3,0.2,3.2,3.6,6,2.5c-0.8-1.9-2.9-3.2-3-5.6
			c1.4-0.7,2.3-0.2,2.7,0.8C632,184.3,633.5,185.1,635.3,185.3L635.3,185.3z"/>
		<path d="M642.8,190.4c-0.8,2.2-2.5,3.8-3.9,3.7c-1.6-0.1-2.5-1.1-2.8-2.6c-0.3-1.4,0.1-2.5,1.5-3.1
			C640,187.4,641.4,188.8,642.8,190.4z"/>
		<path d="M668.6,193.5c-1.3,0.1-2.7-1.2-2.8-2.5c-0.2-1.7,1.5-3.6,3.4-3.7c1.7-0.1,3.1,1,3.3,2.4
			C672.5,191.3,670.5,193.4,668.6,193.5z"/>
		<path d="M675.1,185.6c2.6-3.5,5.9-5.8,5.7-10.1c0.7,0.2,1.4,0.3,1.4,0.5c0.3,1.1,0.7,2.2,0.5,3.3
			C682.3,182,679.6,184.3,675.1,185.6z"/>
		<path d="M674.1,183.6c0.8-3.7,1.5-7.1,2.3-10.8c2.2,1.2,1.5,3.1,1.3,4.8C677.4,180.2,677.4,182.9,674.1,183.6z"/>
		<path d="M635.4,185.4c-1.2-2-3.7-3.5-3.4-6.4c2.4-0.6,2.3,1.5,3.2,2.5c1,1.1,2,2.2,2.9,3.3C637.4,186.8,636.3,185.4,635.4,185.4
			C635.3,185.3,635.4,185.4,635.4,185.4z"/>
		<path d="M670.1,181.8c0.4-3.3,0.8-6.2,1.2-9.3C673.5,176.1,673.1,179.5,670.1,181.8z"/>
		<path d="M666.4,315.6c-5.9-0.3-10.6-3.9-15.8-6.4c-1.3-0.6-2.3-1.8-3.6-2.8c4.7-4.9,9-9.5,13.8-14.6c2.2,0,4.9,0.6,7.3,2.4
			c3,2.3,6.3,4.3,9.4,6.6c2,1.4,1.8,1.6,0.8,3.9c-1.7,3.9-5.3,6.1-8,9C669.5,314.7,668,315,666.4,315.6z M654,304.2
			c3.4,3.4,7.6,4.1,11.3,5.9c0.4,0.2,1.2,0.1,1.6-0.2c2.8-2.2,5.8-4.2,7.3-7.7c-3.4-3.3-7.1-5.6-11.4-7.3
			C659.8,298,657,301,654,304.2z"/>
	</g>
	<g>
		<path d="M539.5,136.5c0.7,0.2,1.2,0.2,1.5,0.4c9.4,5.8,16.6,13.6,21.7,23.3c1.1,2,1.4,4.4,2.2,6.6c2.2,5.7,3.3,11.5,3,17.5
			c0,0.4,0,0.9,0,1.3c1.1,7.2-1.3,13.8-3,20.5c-1,3.9-3.8,6.7-6.2,9.8c-4.7,6.1-10.2,11-17.4,13.9c0.3,3.3,0.4,6.4,0.9,9.4
			c1.3,8,2.9,15.9,4.3,23.9c0.7,4.1,1.4,8.2,2.1,12.7c2.7-0.7,5.1-1.4,7.5-2.1c1-0.3,1.9-0.7,2.9-0.9c2.5-0.6,4.4,0.7,4.6,3.3
			c0.1,1.2,0.2,2.3,0.4,4c-4.7,2.4-9.7,4.9-15.4,6.3c0,0.8-0.1,1.7,0,2.5c1,6.2,2,12.5,3.1,18.7c0.6,3.3,0.7,3.4-2.2,5
			c-1.3,0.7-2.7,1.4-4.3,2.2c-1.2,3.3-4.2,4.9-7.4,6.3c-6.1,2.6-12.5,4.4-19.1,5.6c-1.8,0.3-2.1,1.4-2.1,2.8c0,2.5,0.3,5.1,0.3,7.6
			c0,6.1-0.2,12.2-0.2,18.3c0,3.2,0.5,3.6,3.7,3.2c3.9-0.4,7.7-1.2,11.6-0.3c0.7,0.2,1.5-0.2,2.3-0.4c2.3-0.6,3.5,0.5,3.3,2.9
			c-0.2,2.6-0.7,5.3,0.4,7.9c0.5,1.2-0.3,1.9-1.5,2c-5,0.4-9.9,0.9-14.9,1.1c-2,0.1-4-0.3-5.9-0.6c-2-0.3-3.2-2.2-3.1-4.9
			c0.2-4.6,0.5-9.3,0.6-13.9c0.2-6.1,0.2-12.2,0.3-18.3c0-2.1-0.1-4.2-0.2-6.2c-9.4-0.3-18.7-0.7-28.1-1c-0.2,0.7-0.5,1.4-0.6,2.1
			c-0.6,6-1.1,11.9-1.7,17.9c-0.2,2.3-0.6,4.6-0.7,6.9c-0.1,2.5-0.5,4.9,0.2,7.5c0.6,2,0.1,4.4-0.3,6.6c-0.1,0.7-1.2,1.6-2,1.9
			c-1.2,0.5-2.6,0.6-3.9,0.7c-4.4,0.2-8.9,0.3-13.3,0.4c-2.7,0-3.8-1-4.1-3.7c-0.1-1.3-0.3-2.7-0.3-4c-0.1-2.3,0.2-2.8,2.5-3
			c3.4-0.3,6.9-0.2,10.3-0.4c2.2-0.1,4.4-0.4,7.1-0.6c1-11,2.1-22,3.1-33.2c-1.8-0.5-3.4-0.9-4.9-1.4c-5.8-1.7-11.7-3.3-17.5-5.1
			c-2.3-0.7-4.4-2-6.6-3.2c-1.9-1.1-2.5-2.8-1.9-5.1c1.7-6.9,3.5-13.7,5.3-20.6c0.2-0.9,0.4-1.9,0.7-3.2c-4.6-2.2-9.5-3.5-13.6-6.3
			c0.8-2.5,1.6-4.7,2.4-7.3c4.2-0.4,8,2.3,12.5,2.8c0.4-1.2,0.9-2.4,1.3-3.6c3.7-11.2,7.4-22.5,11.2-33.7c1.4-4.2,3.1-8.3,4.5-12.5
			c0.9-2.6,0.8-2.7-1.5-4.4c-3.3-2.5-6.2-5.3-8.3-8.9c-1.3-2.3-3.2-4.2-4.6-6.5c-4.2-6.7-6.1-14.3-7-22c-0.6-5,0.4-10.2,2.1-15
			c2.2-6.4,5.2-12.4,9.5-17.8c4.6-5.8,10.4-9.9,16.9-13.1c4.3-2.2,8.7-4,13.7-3.5c1,0.1,2,0.4,3.1,0.6c-0.4,1.8-1.5,1.5-2.4,1.7
			c-2.5,0.3-5.1,0.4-7.5,1.1c-11.8,3.6-20.6,11-26.6,21.6c-3.7,6.6-6.3,13.7-6.2,21.5c0,3,0.4,6,0.9,8.9c1.3,7.4,3.9,14.3,8.9,20.1
			c0.3,0.3,0.6,0.7,0.8,1c4.3,7.5,11.2,11.7,18.8,15.3c0.4,0.2,0.8,0.3,1.2,0.5c8.6,4.9,18.1,5.8,27.7,5.3
			c7.7-0.4,15.2-1.6,22.5-4.3c6.8-2.5,12.7-6.2,17.3-11.9c2.1-2.6,4.3-5.1,6.2-7.8c1.1-1.5,1.9-3.3,2.4-5c1.9-6.7,3-13.5,2.9-20.6
			c-0.1-7.4-1.9-14.3-4.4-21c-1.4-3.8-3.9-7.2-6.3-10.5c-3.7-5.1-8.1-9.4-13.9-12.2C539.9,139.4,538.9,138.6,539.5,136.5z
			 M453.8,314.1c1.9,1.1,3.6,2.3,5.6,3.1c7.4,3.1,15.1,5.2,23,6.4c14.2,2.3,28.4,2.7,42.6-1.1c7.9-2.2,15.2-5.3,21.2-11.4
			c-0.6-3-1.5-6-1.7-9.1c-0.9-10.6-2.6-21.1-4.3-31.6c-1.4-8.9-2.2-17.8-3.3-26.7c-0.1-0.9-0.4-1.9-0.6-2.9c-10,2.8-19.9,3.3-30,2.4
			c-10.3-0.9-20.1-3-28.8-8.6C473.6,239.7,454.3,305.4,453.8,314.1z"/>
		<path d="M518.8,190.8c1.7-0.1,4,1.9,4.2,3.6c0.2,1.6-2,3.9-3.7,4.1c-1.6,0.1-3.3-1.5-3.5-3.3C515.4,193.2,517,190.9,518.8,190.8z"
			/>
		<path d="M495.4,193.1c-0.2-1.9,1.1-4.2,2.6-4.5c1.6-0.3,3.5,1.3,3.6,3c0.2,1.9-1.4,4.1-3.2,4.3C497,196.1,495.6,194.9,495.4,193.1
			z"/>
		<path d="M487,292c3.6-2.2,7.3-4.4,11-6.6c2.2-1.3,3.6-1,5.1,1c2.3,3,4.6,6,6.8,9c1.5,2,1.2,4-1,5.3c-2.8,1.6-5.6,3.2-8.4,4.6
			c-0.6,0.3-1.6,0.3-2.2,0c-3.1-2-6.1-4.1-9-6.2C487.1,297.4,485.9,295.3,487,292z M508,297.6c-2.2-3.1-4.1-6-6.1-8.7
			c-0.4-0.5-1.5-1-1.9-0.8c-3.8,1.7-7.6,3.5-10.3,6.9c0.2,0.5,0.3,0.9,0.5,1.1c2.8,1.9,5.6,3.9,8.5,5.7c0.3,0.2,1.1,0.1,1.6-0.2
			C502.7,300.4,505.1,299.1,508,297.6z"/>
	</g>
	<g>
		<path d="M858.4,137.1c9,2.9,16.5,7.6,20.7,16.5c0.9,1.8,1.7,3.7,2.7,5.5c3.3,5.8,4.7,12.2,5.8,18.8c1.4,8.5,0.1,16.8-0.9,25.1
			c-0.3,2.4-1.2,4.9-2.3,7.2c-4,8.3-9,15.8-16.9,21.4c1.9,13.2,6.6,25.7,9.2,39.3c3.4-1.3,6.4-2.3,9.3-3.5c2.9-1.3,4.5-0.3,4.6,2.8
			c0.1,2.7,0.5,5.4,0.9,8.5c-2.3,1.9-4.8,3.7-8.4,3.8c-2.1,0-4.1,1.1-6.2,1.7c-1.6,0.5-2.3,1.5-1.9,3.3c1.8,9,3.6,18.1,5.3,27.1
			c0.2,1.2,0.3,2.4,0.3,3.6c0,2.5-0.4,3-2.8,3.9c-4.1,1.7-8.1,3.5-12.2,5.2c-5.7,2.3-11.4,4.5-17.6,5c-0.8,0.1-1.6,0.3-2.5,0.4
			c-0.5,6.5-0.9,12.8-1.4,19.1c0,0.6-0.1,1.2-0.2,1.8c-0.6,4.1-0.5,4.4,3.5,4.8c4,0.4,8.1,0.6,12.2,0.9c1.8,0.1,3,1.2,2.8,3
			c-0.2,2.1-0.7,4.3-1.1,6.4c-0.3,1.6-1.4,2.1-2.9,2c-5-0.2-10.1-0.4-15.1-0.6c-3.4-0.1-4.9-1.8-4.4-5.3c0.5-4.3,1.2-8.5,1.7-12.8
			c0.6-5.4,1-10.7,1.5-16.1c0.1-0.7-0.1-1.4-0.1-2.6c-6.9,0.3-13.7,1.1-20.5,0.9c-6.7-0.3-13.3-1.6-20.3-2.5
			c-0.2,0.7-0.6,1.5-0.6,2.4c-0.8,9.7-1.7,19.3-0.8,29.1c0.1,1,0.1,1.9,0.1,2.9c-0.1,2.9-0.6,3.3-3.4,4.2c-4.8,1.5-9.7,1.2-14.6,1.8
			c-1.6,0.2-2.7-0.4-3.2-1.7c-0.9-2.2-2.7-4.3-1.4-7c6.3,0.6,12-2.2,18.1-2.7c0.6-10.1,1.2-19.8,1.8-30c-1.7-0.5-3.5-1.1-5.3-1.6
			c-7.7-2-14.8-5.4-21.3-10.1c-2.9-2.1-3.4-4.3-2.5-7.8c2.1-7.6,4.1-15.3,6.2-23.3c-1.5-0.6-3-1.3-4.5-1.8c-2.3-0.8-4.5-1.5-6.8-2.3
			c-3.4-1.3-4.4-3.3-3.1-6.7c0.9-2.5,1.9-4.9,3-7.8c4.2,1.7,8.4,3.3,12.9,5.5c4.6-13.2,9.1-26.3,13.8-39.8c-1.3-0.8-2.6-1.7-4.1-2.6
			c-5.5-3.3-9.5-8-12.4-13.7c-0.4-0.8-0.7-1.5-1.1-2.3c-3-5.2-4.6-10.7-5.2-16.7c-1.1-11,0-21.6,4.7-31.6
			c3.4-7.3,7.5-14.2,13.8-19.5c3.2-2.7,6.1-5.7,9.5-8.2c2.4-1.7,5.2-2.9,8-4c1.8-0.7,1.9-0.4,3,1.8c-0.1,0.1-0.1,0.3-0.2,0.3
			c-8.5,2.3-14.3,8.6-20.1,14.5c-7.2,7.2-11.5,16.1-14.4,25.8c-2.7,9.1-2.7,18.5-0.5,27.4c3.3,13.2,10.5,23.6,24.5,27.7
			c4.8,1.4,9.5,3.3,14.4,4.7c8.5,2.4,17.1,2.3,25.7,1.1c9.2-1.4,18.1-3.6,26.4-8.1c5.9-3.2,10.8-7.6,14.5-13.1
			c1.5-2.2,2.9-4.4,4.3-6.7c2.6-4.1,4.1-8.6,4.3-13.6c0.1-2.5,0.6-5,0.8-7.5c0.8-10.7-0.3-21-5.7-30.6c-0.9-1.7-1.7-3.4-2.6-5.1
			c-3.4-6.6-8.4-11.3-15.7-13.4C858,140.3,858,140.2,858.4,137.1z M861.7,243c-5.7,1.5-10.9,3.2-16.3,4.2
			c-11.2,1.9-22.4,1.4-33.6-0.2c-5.4-0.8-10.4-2.5-15.5-4.2c-1.2-0.4-2.5-0.7-4-1.2c-0.7,2.3-1.3,4.4-2,6.4
			c-2.5,7.6-5.3,15.2-7.6,22.9c-4,13.4-7.7,27-11.5,40.5c-1,3.7-0.7,4.5,2.4,6.6c1.3,0.8,2.6,1.7,4,2.4c11,6.3,23.3,8.1,35.5,9.8
			c6.2,0.9,12.7,0.6,19,0.3c9.8-0.4,19.7-1.2,28.9-5.1c3.9-1.7,7.8-3.5,11.6-5.1c-0.9-13.4-3.9-26-5.9-38.8
			C864.6,268.5,863.3,255.7,861.7,243z"/>
		<path d="M841.3,201.2c-0.1,1.6-1.5,2.9-3.1,2.8c-2-0.1-3.8-2.1-3.7-4.1c0.1-1.7,1.6-3.1,3.4-3C839.8,197,841.4,199,841.3,201.2z"
			/>
		<path d="M811.5,197.8c0-1.7,1.3-2.9,2.9-2.9c1.8,0,3.7,1.6,3.7,3.2c0,1.8-1.9,3.9-3.5,3.9C812.9,201.9,811.5,199.9,811.5,197.8z"
			/>
		<path d="M818.3,294.3c0.7,0.7,1.5,1.6,2.4,2.5c2.4,2,4.7,4,7.1,6c1.4,1.1,2.9,2.1,4.2,3.4c2.8,2.7,2.4,4-1.3,5.5
			c-3,1.2-5.9,2.6-8.8,4c-0.8,0.4-1.3,1.6-2,2.5c-0.7-0.2-1.6-0.3-2.3-0.7c-3.9-2.7-7.8-5.5-11.6-8.4c-1.5-1.1-1.5-3.2-0.1-4.3
			C810,301.3,813.9,297.9,818.3,294.3z M829.2,308.1c-3.8-3.2-7.4-6.2-11.1-9.3c-3.1,2.8-5.9,5.4-9.3,8.4c3.8,2.7,7.1,4.9,10.4,7.2
			C822.7,312.2,825.8,310.3,829.2,308.1z"/>
	</g>
	<path class="st0" d="M453.8,314.1c1.9,1.1,3.6,2.3,5.6,3.1c7.4,3.1,15.1,5.2,23,6.4c14.2,2.3,28.4,2.7,42.6-1.1
		c7.9-2.2,15.2-5.3,21.2-11.4c-0.6-3-1.5-6-1.7-9.1c-0.9-10.6-2.6-21.1-4.3-31.6c-1.4-8.9-2.2-17.8-3.3-26.7
		c-0.1-0.9-0.4-1.9-0.6-2.9c-10,2.8-19.9,3.3-30,2.4c-10.3-0.9-20.1-3-28.8-8.6C473.6,239.7,454.3,305.4,453.8,314.1z"/>
	<path class="st1" d="M613.5,325.8c3.5,0.8,6.3,1.5,9.1,2c7.7,1.3,15.4,2.4,23.1,2.6c1.8,0.1,3.7,0.2,5.5,0
		c9.6-1.4,19.3-2.7,28.8-4.3c11.7-2,22.6-6,32.3-13.1c1.6-1.2,2-2.3,1.4-4.1c-0.9-2.5-1.6-5.1-2.4-7.6c-3.2-10.5-6.6-21-9.5-31.6
		c-3-10.7-5.6-21.5-8.4-32.3c-0.5-2-1.3-3.9-2.1-6.1c-20.6,10-42,12.3-64.6,9.3C622.5,268.8,618,297,613.5,325.8z"/>
	<g>
		<path d="M310.4,326.2c-5.2-1.4-10.2-3-14.7-6.1c-4.1-2.8-8.4-5.3-12.6-8c-1.3-0.8-1.6-1.9-1.1-3.3c2.1-6.2,4.1-12.5,6.1-18.8
			c1.7-5.3,3.3-10.6,5-15.8c-2.8-3.1-5.7-5.3-9.8-6c-2.3-0.4-4.4-2-6.5-3.1c-0.4-0.2-0.6-0.7-0.8-1.1c-1.3-3.1-0.7-5.6,2.4-8.3
			c1.9-1.6,4.1-1.1,6.2-0.1c0.8,0.5,1.6,0.9,2.5,1.2c2.4,0.9,4.9,1.8,7.8,2.8c0.9-2.8,1.9-5.2,2.5-7.6c2.3-9.6,4.8-19.1,9-28.1
			c0.9-2,1.6-4,2.5-6.2c-1.5-1.7-2.9-3.4-4.4-5c-3.8-4.2-6.8-8.9-8.2-14.4c-1.2-5.1-1.9-10.4-2.7-15.7c-0.3-2.2-0.5-4.5-0.1-6.6
			c1.8-8.8,4-17.6,9.2-25.3c2.1-3.2,4.7-5.8,8-7.6c4.4-2.3,8.7-4.8,13.1-7.1c0.5-0.3,1.2-0.2,2-0.3c0.5,1.8,0.1,2.9-1.4,3.6
			c-3.2,1.5-6.5,3-9.8,4.4c-7.4,3.1-11.5,9-14.2,16.2c-1,2.7-1.8,5.5-2.5,8.3c-0.7,2.9-1.8,5.9-1.6,8.8c0.5,6.1,1.4,12.2,2.6,18.2
			c0.7,3.2,2,6.5,3.7,9.3c4.6,7.3,10.7,13.2,17.4,18.4c1.6,1.2,3.3,2.1,5.1,3c11.4,5.7,23.4,8.7,36.3,7.3c2.6-0.3,5.3-0.8,7.8-1.5
			c4.2-1.2,8.3-2.7,12.5-4c3.9-1.2,7.4-3.1,10.6-5.7c8-6.5,13.1-14.8,15.7-24.8c1.2-4.6,1.7-9.1,1.2-13.8c-1.1-8.7-4.8-16.4-9-23.9
			c-0.5-0.9-1.3-1.6-2.1-2.3c-1.7-1.6-3.5-3-5.2-4.6c-4.1-4-8.7-7.3-13.9-9.7c-2.4-1.1-4.7-2.2-7.1-3.3c0.3-1.8,1.5-2,2.9-1.7
			c1.2,0.4,2.5,0.7,3.6,1.3c11.5,6.3,22.3,13.3,28.2,25.8c3.2,6.9,5.5,14,5.8,21.7c0.3,5.1-1.4,9.6-2.8,14.3
			c-4.1,13.9-13.4,23.3-26.4,29.2c-4.6,2.1-4.7,2.1-4.2,7.2c0.1,0.5,0.1,0.9,0.2,1.4c1.1,8.1,2.2,16.3,3.5,24.4
			c0.6,3.3,1.3,6.6,2,9.9c0.2,1.1,0.6,2,1.9,2.1c3.9,0.4,7.8,0.8,11.7,1.2c1.5,0.1,2.9,0.4,4.5,0.6c0,3.1,0.1,5.8,0,8.4
			c-0.1,2-1.1,3.2-3.1,3.5c-1.2,0.2-2.5,0-3.8-0.1c-2.9-0.1-5.8-0.2-8.9-0.4c0.4,12.8,3.8,24.7,4.9,37.1c-1.7,1.5-2.9,3.6-5.6,4.1
			c-8.8,1.6-17.5,3.4-26.5,3.6c-2.7,0.1-5.3,0.5-7.9,0.8c0,9.5,0,18.8,0,28.3c2.6,0.2,4.7,0.6,6.7,0.3c4.6-0.7,9-0.1,13.5,0.5
			c1.6,0.2,2.2,0.8,1.5,2.3c-0.8,1.6-1,3.2-0.5,5c0.5,1.6-1.1,3.2-2.6,2.5c-3.5-1.5-7.2-0.9-10.7-0.9c-3.2,0-6.3-1.8-9.6-0.4
			c-0.3,0.1-1.3-0.6-1.5-1.1c-0.4-0.9-0.5-2-0.5-3c0.5-11.3,0.2-22.7-0.3-34.2c-8.7-1.2-17.2-2.4-26.3-3.7c-0.1,3.3-0.4,6.2-0.3,9.2
			c0.3,9.7,0.8,19.5,1.2,29.2c0.1,2.5-0.2,3-2.7,3.6c-1,0.3-2.1,0.4-3.1,0.4c-4.7,0-9.5,0-14.2,0c-1.3,0-1.9-0.6-2.1-1.8
			c-0.4-2.9-0.9-5.9-1.1-8.9c-0.1-2,0.5-2.6,2.7-2.6c3.1,0,6.2,0.2,9.3,0.4c2.4,0.1,4.8,0.2,7.3,0.3c-0.2-10.6-0.4-20.6-0.6-30.8
			C315.1,327.8,312.7,327.1,310.4,326.2z M375.8,240.6c-22.6,3-44,0.7-64.6-9.3c-0.8,2.2-1.6,4.1-2.1,6.1
			c-2.8,10.8-5.4,21.6-8.4,32.3c-2.9,10.6-6.3,21.1-9.5,31.6c-0.8,2.5-1.5,5.1-2.4,7.6c-0.6,1.8-0.2,2.9,1.4,4.1
			c9.7,7.1,20.6,11.1,32.3,13.1c9.5,1.6,19.2,2.9,28.8,4.3c1.8,0.2,3.7,0.1,5.5,0c7.7-0.2,15.4-1.3,23.1-2.6c2.8-0.5,5.6-1.2,9.1-2
			C384.5,297,380,268.8,375.8,240.6z"/>
		<path d="M367.2,185.3c1.8-0.2,3.3-1,4.2-2.9c0.4-1,1.3-1.5,2.7-0.8c-0.1,2.4-2.2,3.7-3,5.6c2.8,1.1,3.7-2.3,6-2.5
			c0,2.4-1.6,4.3-3.8,5C369.7,190.8,367.4,189.2,367.2,185.3L367.2,185.3z"/>
		<path d="M364.9,188.4c1.4,0.6,1.8,1.7,1.5,3.1c-0.3,1.5-1.2,2.5-2.8,2.6c-1.4,0.1-3.1-1.5-3.9-3.7
			C361.1,188.8,362.5,187.4,364.9,188.4z"/>
		<path d="M330,189.7c0.2-1.4,1.6-2.5,3.3-2.4c1.9,0.1,3.6,2,3.4,3.7c-0.1,1.3-1.5,2.6-2.8,2.5C332,193.4,330,191.3,330,189.7z"/>
		<path d="M319.8,179.3c-0.2-1.1,0.2-2.2,0.5-3.3c0-0.2,0.7-0.3,1.4-0.5c-0.2,4.3,3.1,6.6,5.7,10.1
			C322.9,184.3,320.2,182,319.8,179.3z"/>
		<path d="M324.8,177.6c-0.2-1.7-0.9-3.6,1.3-4.8c0.8,3.7,1.5,7.1,2.3,10.8C325.1,182.9,325.1,180.2,324.8,177.6z"/>
		<path d="M367.1,185.4c-0.9,0-2,1.4-2.7-0.6c0.9-1.1,1.9-2.2,2.9-3.3c0.9-1,0.8-3.1,3.2-2.5C370.8,181.9,368.3,183.4,367.1,185.4
			C367.1,185.4,367.2,185.3,367.1,185.4z"/>
		<path d="M331.2,172.5c0.4,3.1,0.8,6,1.2,9.3C329.4,179.5,329,176.1,331.2,172.5z"/>
		<path d="M332.2,313.7c-2.7-2.9-6.3-5.1-8-9c-1-2.3-1.2-2.5,0.8-3.9c3.1-2.3,6.4-4.3,9.4-6.6c2.4-1.8,5.1-2.4,7.3-2.4
			c4.8,5.1,9.1,9.7,13.8,14.6c-1.3,1-2.3,2.2-3.6,2.8c-5.2,2.5-9.9,6.1-15.8,6.4C334.5,315,333,314.7,332.2,313.7z M339.7,294.9
			c-4.3,1.7-8,4-11.4,7.3c1.5,3.5,4.5,5.5,7.3,7.7c0.4,0.3,1.2,0.4,1.6,0.2c3.7-1.8,7.9-2.5,11.3-5.9
			C345.5,301,342.7,298,339.7,294.9z"/>
	</g>
	<path class="st1" d="M375.8,240.6c-22.6,3-44,0.7-64.6-9.3c-0.8,2.2-1.6,4.1-2.1,6.1c-2.8,10.8-5.4,21.6-8.4,32.3
		c-2.9,10.6-6.3,21.1-9.5,31.6c-0.8,2.5-1.5,5.1-2.4,7.6c-0.6,1.8-0.2,2.9,1.4,4.1c9.7,7.1,20.6,11.1,32.3,13.1
		c9.5,1.6,19.2,2.9,28.8,4.3c1.8,0.2,3.7,0.1,5.5,0c7.7-0.2,15.4-1.3,23.1-2.6c2.8-0.5,5.6-1.2,9.1-2
		C384.5,297,380,268.8,375.8,240.6z"/>
	<path class="st0" d="M861.7,243c-5.7,1.5-10.9,3.2-16.3,4.2c-11.2,1.9-22.4,1.4-33.6-0.2c-5.4-0.8-10.4-2.5-15.5-4.2
		c-1.2-0.4-2.5-0.7-4-1.2c-0.7,2.3-1.3,4.4-2,6.4c-2.5,7.6-5.3,15.2-7.6,22.9c-4,13.4-7.7,27-11.5,40.5c-1,3.7-0.7,4.5,2.4,6.6
		c1.3,0.8,2.6,1.7,4,2.4c11,6.3,23.3,8.1,35.5,9.8c6.2,0.9,12.7,0.6,19,0.3c9.8-0.4,19.7-1.2,28.9-5.1c3.9-1.7,7.8-3.5,11.6-5.1
		c-0.9-13.4-3.9-26-5.9-38.8C864.6,268.5,863.3,255.7,861.7,243z"/>
	<g>
		<g>
			<path d="M1000.5,358.8c2,0.4,3.4,0.8,4.7,0.8c4.5,0.2,9,0.3,13.5,0.3c2.2,0,3.4,0.7,3.7,2.9c0.4,3,0.7,6-1.8,8.7
				c-4.6,0-9.3,0-14,0c-2.9,0-5.7,0.1-8.6,0.3c-2.9,0.2-4-0.9-3.2-3.7c2.3-9,3.4-18.2,4.5-27.4c0.3-3,0.5-5.9,0.8-9.3
				c-5,0-9.7,0.3-14.3-0.1c-4.7-0.4-9.3-1.5-14.3-2.3c-0.7,4.2-1.5,7.9-2,11.8c-0.8,5.6-1.4,11.2-1.9,16.8c-0.1,1.3,0.1,2.7,0.1,4.1
				c0.1,1.4,0.3,2.8,0.2,4.1c-0.3,2.9-1.3,3.6-4.2,3.6c-3.7,0-7.5,0.3-11.2,0.2c-2.6-0.1-5.2-0.4-7.8-1c-1.5-0.3-2.5-1.6-2.7-3.3
				c0-0.1,0-0.3,0-0.4c0.3-6.2-1.1-6.2,5.7-5.8c3.9,0.2,7.8,0.5,11.6,0.7c1.2,0.1,2.5,0,4.1,0c2.4-10.4,2.5-20.8,4.9-31.2
				c-14.6-2.4-26.9-8.9-38.9-16.2c3.8-9.7,7.4-18.8,11.2-28.3c-0.4-0.2-0.7-0.5-1-0.6c-4.2-0.9-7.5-3.8-11.5-5.4
				c-3.3-1.3-3.7-2.6-2.2-5.9c1-2.2,1.9-4.4,2.9-6.5c1.1-2.5,1.7-2.6,3.9-1.2c1.7,1.1,3.5,2,5.2,3c1.6,0.9,3.1,2,4.9,3.2
				c5.6-11.9,11.1-23.5,16.4-35c-3.9-3.2-7.7-6.1-11.2-9.3c-11.5-10.2-16.3-23.1-15.5-38.3c0.6-11.9,5.3-22.2,13.1-30.9
				c3-3.4,7.2-5.8,11-8.4c1.6-1.1,3.5-1.2,5.4,0.3c-0.4,0.4-0.6,0.9-1,1.1c-8.3,3.7-14.8,9.3-19,17.4c-1.6,3.1-3.2,6.2-4.5,9.5
				c-3.1,7.4-3,15.2-1.5,22.9c1,5.4,2.7,10.7,6,15.3c4.6,6.4,10.2,11.8,16.9,15.8c4.9,2.9,10.2,5.3,15.6,7c5.5,1.6,11.3,2.1,17,2.9
				c11.5,1.7,22.8,0.5,33.8-3.1c12.6-4.1,22.9-11.5,30.5-22.3c3.2-4.6,5.6-9.8,7.9-14.9c1-2.2,1.2-4.9,1.2-7.3
				c-0.1-4.6-0.6-9.3-1-13.9c0-0.3,0-0.5-0.1-0.7c-3.8-11.2-7.8-22.3-17.9-29.8c-6.8-5-14-9.3-22.4-11.1c-6.4-1.4-12.7-1-19.1-0.1
				c-3,0.4-3.5,0-3.9-2.9c0-0.1,0.1-0.2,0.4-0.7c6.4-0.1,13-0.8,19.6-0.1c10,1,18.4,6.1,26.1,12.4c5.7,4.7,10.6,9.9,13.3,17
				c0.8,2.2,1.9,4.4,2.9,6.5c2.4,5.3,4.2,10.7,4.2,16.6c0,2.3,0.6,4.5,0.4,6.7c-0.3,3.1-0.7,6.3-1.8,9.1
				c-3.4,8.7-8.2,16.5-14.8,23.3c-4,4.1-8.3,7.5-13.4,10.1c-1.7,0.8-3.3,1.8-4.5,2.5c0.8,5.2,1.5,10.2,2.4,15.1
				c1.3,6.9,2.7,13.7,4.2,21.1c2.6-0.8,4.8-1.2,6.8-2.1c1.4-0.6,2.6-0.8,3.9-0.2c1.2,0.5,2,1.4,1.6,3c-0.3,1.2-0.4,2.5-0.4,3.7
				c0,4.3-0.9,5.4-5.3,6c-2.5,0.4-4.9,0.8-7.4,1.2c-0.3,0.1-0.7,0.4-1.2,0.6c0,0.6-0.1,1.4,0,2.1c1.2,8.2,2.4,16.4,3.7,24.5
				c0.5,2.7-0.5,4.9-1.4,7.3c-0.2,0.7-1.2,1.2-2,1.5c-5.4,1.8-10.7,3.7-16.1,5.1c-4.6,1.2-9.3,2.1-14,2.7c-2.9,0.4-4.2,1.8-4.4,4.5
				c-0.5,4.9-1,9.7-1.5,14.6C1001.3,352.3,1000.9,355.4,1000.5,358.8z M1026.4,250.3c-1.6,0.3-2.3,0.4-3,0.5
				c-8.4,1.7-16.9,2.2-25.4,1.3c-4.7-0.5-9.4-0.9-14.1-1.5c-3.2-0.4-6.5-0.9-9.5-1.8c-4.6-1.4-9.1-3.3-14-5.1
				c-9.4,22.5-18.8,44.8-27,67.5c15,10.6,34.3,16,59.5,16.6c14,0.4,27.8-2.4,40.3-8C1029.4,296.5,1027.6,273.6,1026.4,250.3z"/>
			<path d="M1029.3,192.8c-0.4,0.9-0.6,2.2-1.3,2.8c-1.7,1.4-3.6,2.6-5.5,3.8c-0.5,0.3-1.2,0.6-1.8,0.5c-0.6-0.1-1.5-0.5-1.7-1
				c-0.2-0.4,0.3-1.4,0.8-1.7c1.4-0.8,2.9-1.3,4.4-2.1c1.5-0.8,2.9-1.8,4.4-2.7C1028.9,192.5,1029.1,192.7,1029.3,192.8z"/>
			<path d="M1013.2,197.2c1.3,0,3,2.2,3,3.8c0,1.4-1.8,3.1-3.3,3c-1.6-0.1-3.1-2-3-3.7C1010.1,198.7,1011.7,197.1,1013.2,197.2z"/>
			<path d="M1023.9,187.3c1.1,0.5,2,1.5,1.2,2.6c-1.5,2-3.3,3.7-5,5.4c-0.6,0.6-1.6,0.9-2.6,1.5
				C1017.7,193.7,1018.3,192.9,1023.9,187.3z"/>
			<path d="M982.5,198.1c0-1.9,1.2-3.4,2.7-3.4c1.3,0,3,1.9,3.1,3.3c0.1,1.2-1.8,3-3.2,3.1C983.5,201.2,982.5,200,982.5,198.1z"/>
			<path d="M1013.8,192.9c1.7-3.3,3.2-6.1,4.8-9.2c1.6,0.1,1.9,1.3,1.8,2.7C1020.1,189.3,1017.4,192.2,1013.8,192.9z"/>
			<path d="M985,191.5c-3.7-0.7-7.1-4.7-6.7-7.8c0.1-1,1.1-1.4,1.9-0.9c0.4,0.3,0.8,0.7,0.9,1.1c0.5,2.5,1.8,4.5,3.8,6.2
				C985.1,190.3,985,190.9,985,191.5z"/>
			<path d="M978.4,199c-2.9,0.3-5.2-0.9-7.3-2.7c-1.1-0.9-2-1.9-1.2-3.8c3.1,1.9,6.1,3.7,9.1,5.5C978.7,198.3,978.6,198.6,978.4,199
				z"/>
			<path d="M973.4,186c1.1,0.9,2,1.3,2.3,1.9c1,2.6,4.8,2.7,5.1,5.9C976.1,193.5,973.5,190.9,973.4,186z"/>
			<path d="M1002.3,307.4c-1,0.9-1.5,1.7-2.3,2.1c-2.8,1.5-5.6,2.9-8.4,4.3c-1.2,0.6-2.8,0.9-3.7,1.9c-2.5,2.9-4.6,1.8-6.9-0.3
				c-2.3-2-4.8-3.7-7.1-5.6c-0.9-0.8-1.7-1.9-2.3-2.9c-1.7-3-1.3-3.8,1.8-5.4c4-2.2,8.5-3.8,11.5-7.6c0.9-1.2,2.7-0.9,4,0.4
				c1.3,1.2,2.3,2.6,3.6,3.8c2.1,2,4.3,3.8,6.4,5.7C1000.1,304.8,1001.1,306,1002.3,307.4z M986.9,297.4c-3.8,3.7-8.7,4.6-12.4,8.4
				c3.2,2.4,6.1,4.6,8.9,6.8c1.4,1.1,2.6,0.9,4.1,0c2.3-1.5,4.8-2.7,7.2-4c0.7-0.4,1.3-1,2.1-1.6
				C993.4,303.7,990.3,300.7,986.9,297.4z"/>
		</g>
		<path class="st1" d="M1026.4,250.3c-1.6,0.3-2.3,0.4-3,0.5c-8.4,1.7-16.9,2.2-25.4,1.3c-4.7-0.5-9.4-0.9-14.1-1.5
			c-3.2-0.4-6.5-0.9-9.5-1.8c-4.6-1.4-9.1-3.3-14-5.1c-9.4,22.5-18.8,44.8-27,67.5c15,10.6,34.3,16,59.5,16.6
			c14,0.4,27.8-2.4,40.3-8C1029.4,296.5,1027.6,273.6,1026.4,250.3z"/>
	</g>
	<path class="st0" d="M204.2,235.1c-22.7,2.8-44.9,3.8-67.1-2.5c-0.5,2.2-0.8,4.2-1.3,6.2c-1.8,7.1-2.3,14.5-4.8,21.5
		c-0.7,2-1,4.2-1.4,6.3c-0.9,4.1-1.7,8.3-2.8,12.4c-2,7.8-4.3,15.5-6.4,23.3c-1.2,4.6-1.8,9.4-3.2,13.9c-0.8,2.6,0,4.2,1.8,5.6
		c0.9,0.7,1.9,1.1,3,1.6c4.1,1.7,8.2,3.4,12.3,5.1c2.5,1,5,2.4,7.5,2.7c8.3,1.2,16.4,3,24.9,3.1c6,0.1,11.7-0.6,17.6-1.5
		c9.1-1.4,16.9-6.4,25.3-9.6c2.7-1,4.9-3.6,7.3-5.5C212.7,290.1,208.5,262.7,204.2,235.1z"/>
</g>
</svg>
