<?xml version="1.0" encoding="utf-8"?>
<!-- Generator: Adobe Illustrator 19.1.0, SVG Export Plug-In . SVG Version: 6.00 Build 0)  -->
<svg version="1.1" id="Calque_1" xmlns="http://www.w3.org/2000/svg" xmlns:xlink="http://www.w3.org/1999/xlink" x="0px" y="0px"
	 viewBox="0 0 132.1 243" style="enable-background:new 0 0 132.1 243;" xml:space="preserve">
<style type="text/css">
	.st0{fill:#F4A300;}
	.st1{fill:#C0C0C0;}
	.st2{fill:#008A90;}
	.st3{fill:#6DA3C3;}
	.st4{fill:none;stroke:#F8AD3B;stroke-width:3;stroke-miterlimit:10;}
	.st5{fill:#F8AD3B;}
	.st6{fill:none;}
	.st7{fill:#E2F7EF;}
	.st8{fill:#FFFFFF;}
</style>
<g>
	<path class="st0" d="M121,191.4c-0.5-1.9-1.2-3.8-1.7-5.6c-0.5-2-1-3.9-1.5-5.9c-0.6-2.4-1.3-4.7-2-7c-0.9-3.5-1.9-7-2.7-10.5
		c-0.8-3.3-5.6-23-6.2-24.9c-1.1-3.5-1.8-7.1-2.5-10.7c-0.8-3.9-1.6-7.8-2.2-11.8c-0.5-3.2-0.8-6.5-1.4-9.8c-0.6-3.5-1.3-7-2-10.5
		c-0.1-0.3-0.3-0.7-0.4-1.1c-0.7,0.5-1.2,1-1.7,1.2c-2.3,1.1-4.5,2.3-6.9,3.2c-2.9,1.1-5.9,1.8-8.9,2.8c-1.6,0.5-3.2,1.1-4.9,1.5
		c-2.7,0.6-5.4,1.1-8.1,1.6c-3.1,0.6-6.2,1.2-9.3,1.7c-2,0.3-4.1,0.5-6.1,0.5c-2.3,0-4.6-0.1-6.9-0.3c-0.9-0.1-1.5,0.4-1.7,1.4
		c-0.2,1.3-0.4,2.7-0.7,4c-0.7,2.8-1.6,5.7-2.3,8.5c-0.7,2.7-1.5,5.4-2.2,8.1c-0.5,2.1-0.9,4.3-1.4,6.4c-0.2,0.9-0.7,1.7-1,2.6
		c-0.5,1.9-0.9,3.8-1.3,5.7c-0.5,2-1,4-1.4,6c-0.6,3-1.2,6-1.8,9c-0.5,2.1-1.1,4.3-1.7,6.4c-0.3,1.2-0.8,2.3-1,3.4
		c-0.4,2.3-0.7,4.6-1.1,7c-0.7,3.8-1.6,7.6-2.2,11.5c-0.4,2-0.5,4-0.7,6c-0.1,1-0.4,2-0.4,3c-0.1,1.4,0,2.8,1.6,3.5
		c1.4,0.6,2.8,1.4,4.3,1.8c2.5,0.7,5,1.3,7.5,1.9c3,0.7,5.9,1.8,8.9,2.1c5.7,0.5,11.5,0.8,17.2,0.8c4.7,0.1,9.3-0.3,14-0.5
		c3.7-0.2,7.3-0.6,10.9-0.8c2.9-0.2,5.7-0.5,8.5-1.2c2.4-0.6,4.9-0.9,7.3-1.4c1.3-0.3,2.5-0.6,3.7-1.2c2.2-1,4.4-2.2,6.5-3.3
		c0.9-0.4,1.7-0.8,2.5-1.3c1-0.7,2.1-1.4,3-2.2C120.9,192.5,121.1,191.8,121,191.4z M79,180.3c-1.7,1.1-3.5,2.1-5.2,3.2
		c-0.8,0.5-1.3,0.5-2.2,0c-1.6-0.9-3.2-1.6-4.9-2.3c-2.3-1.1-4.6-2.1-6.9-3.2c0-0.2,0-0.3,0-0.5c0.7-0.5,1.4-1,2.1-1.6
		c2.4-1.8,4.7-3.6,7.1-5.3c0.9-0.6,1.8-1.2,3-0.2c2.5,2.1,5.1,4,7.6,6c0.6,0.5,1.2,1.1,2.1,1.9C80.8,179,79.9,179.7,79,180.3z"/>
	<g>
		<path d="M77.5,0c3.5,0.5,7.8,0.8,12,1.8c3.4,0.7,6.5,2.2,9.4,4.2c3.5,2.4,6.1,5.4,8.8,8.5c1.5,1.7,2.7,3.8,3.7,5.9
			c1.3,2.6,2.4,5.3,3.3,8.1c1.2,3.7,2.2,7.4,3,11.2c0.6,3,1.2,6.2,1,9.3c-0.2,3.4-0.3,6.9-1.4,10.3c-1.7,5.6-4.9,10.2-8.5,14.6
			c-2.1,2.6-4.7,4.8-7,7.1c-0.7,0.7,0.4,7.9,0.8,10c0.5,2.2,0.6,4.5,0.9,6.8c0.4,2.7,0.9,5.3,1.4,8c0.6,3.5,1,6.9,1.6,10.4
			c0.3,2,0.9,3.9,1.3,5.8c0.3,1.4,0.5,2.8,0.8,4.1c1,4.2,2,8.4,3,12.6c0.4,1.4,1,1.6,2.3,0.9c0.3-0.2,11.3-3,11.6-3.2
			c1.4-1.3,3.1-0.9,4,0.8c0.5,0.9,2.8,12,2.6,12.7c-0.1,0.3-15.3,3.5-16.1,4c-0.7,0.4-0.8,1.1-0.6,2c0.6,2.7,1,5.5,1.6,8.2
			c1,4.3,2.1,8.6,3.6,12.8c0.8,2.1,1.1,4.3,1.7,6.5c0.8,2.6,1.7,5.1,2.4,7.7c0.7,2.5-0.7,5.3-3,6.4c-0.8,0.4-1.5,0.9-2.3,1.4
			c-1.9,1.1-3.9,2.1-5.7,3.3c-2.1,1.3-4.5,1.8-6.9,2.2c-3.1,0.5-6.1,1.6-9.3,2.2c-2.2,0.4-4.5,0.6-6.8,0.7c-2,0-2.7,0.7-2.3,2.7
			c0,0,0,0.1,0,0.1c0.4,3.2,0.7,6.4,1.1,9.7c0.2,1.6,0.4,3.1,0.5,4.7c0.1,0.7,0.5,0.9,1.1,0.8c2.3-0.4,4.7-0.9,7-1.1
			c1.9-0.2,8.3-0.1,9.4,0.2c2.4,0.6,4,3,3.8,5.5c-0.1,1.5,0.2,3,0.1,4.5c0,1-0.2,2-1.4,2.7c-2.8,1.6-5.8,1.3-8.8,1.2
			c-0.6,0-1.1,0.1-1.7,0.1c-1.8,0-3.6,0-5.3,0.1c-1.2,0.1-2.5,0.2-3.7,0.5c-1.3,0.3-2.5,0.2-3.7-0.6c-1-0.6-1.4-1.5-1.5-2.7
			c-0.2-1.9-1.2-10.3-1.4-11.5c-0.1-1.2-0.6-2.3-0.8-3.5c-0.3-2-0.4-4-0.6-6c-0.2-1.9-0.3-3.8-0.6-5.7c-0.1-0.4-0.7-0.9-1-0.9
			c-1.8,0.1-3.6,0.3-5.4,0.4c-2.2,0.1-4.3,0.2-6.5,0.2c-2.5,0-4.9-0.2-7.3-0.3c-0.3,0-0.8,0.5-0.8,0.7c0,0.8,0.1,1.7,0.1,2.6
			c0.1,1.2,0.2,2.5,0.2,3.7c0,2.9-0.2,5.9,0,8.8c0.1,1.9,1,8.1,1,9.4c0,0.7-0.2,1.4-0.3,2.1c-0.2,1.9-1.8,2.3-3.2,2.8
			c-1.9,0.7-3.8,1.2-5.7,1.7c-1.1,0.3-2.2,0.3-3.3,0.6c-1.4,0.3-2.7,0.8-4.1,1c-1.9,0.4-3.8,0.7-5.7,1c-1.6,0.2-4-1.9-4.2-3.5
			c-0.2-1-0.5-2.1-0.9-3.1c-0.4-1.3-1-2.6-1.4-3.9c-0.5-1.7-0.3-2.2,1.6-2.3c2.5-0.2,13.8-0.7,15.5-0.8c1.8-0.1,3.5-0.3,5.3-0.4
			c0.8-0.1,1.1-0.3,1.1-1.3c-0.1-2.3,0.1-4.6,0-6.9c-0.1-3.6-0.4-7.3-0.7-10.9c-0.1-1.2-1-1.5-2-1.5c-2,0-4.1,0.1-6-0.2
			c-2.5-0.3-5.1-0.5-7.6-1.4c-2.4-0.9-4.9-1.2-7.4-1.8c-1.4-0.4-2.7-1-4.1-1.5c-1-0.3-2-0.5-2.9-1c-1-0.5-1.8-1.1-2.7-1.7
			c-1-0.6-2.2-1-2.8-2.1c-0.3-0.5-0.6-1.1-0.6-1.7c0.5-3.7,1.1-7.3,1.7-11c0.5-3.2,1-6.4,1.6-9.6c0.6-2.8,1.3-5.5,2-8.2
			c0.5-2.3,1-4.7,1.5-7.1c0.2-1.1,0-1.3-1.1-1.1c-1.3,0.2-7.2,0.5-8.7,0.5c-1.3,0-2.5-0.1-3.8,0.1c-2,0.3-4.5-1.3-5.8-2.8
			c-1.3-1.6-0.9-3.1-0.8-4.7c0-1.4,0.1-2.7,0.4-4c0.1-0.6,0.6-1.4,1.1-1.5c2.2-0.6,18.4-1.9,19.8-2c1.1-0.1,1.6-0.6,1.9-1.7
			c0.5-2.4,1.1-4.7,1.6-7.1c0.2-0.7,0.2-1.4,0.3-2.1c0.8-3.2,1.7-6.3,2.3-9.5c0.6-3.3,1.8-6.4,2.9-9.5c0.8-2.1,1.3-4.2,1.9-6.3
			c0.9-3.3,1.8-6.6,2.7-9.9c0.4-1.7-0.4-2.6-2.1-3.1c-3.1-0.9-6.1-1.8-9-3c-3-1.3-5.9-3-8.8-4.7c-1.2-0.7-2.3-1.6-3.3-2.5
			c-2.5-2.3-5.1-4.7-7.4-7.1c-2.8-2.9-5-6.3-6.4-10.1c-0.9-2.4-2.1-4.7-2.8-7.2C1,59,0.6,56.4,0.3,53.7c-0.4-3.7-0.6-7.4,0.4-11.1
			c0.9-3.6,2-7.1,4.4-10c1.6-2,2.8-4.4,4.5-6.4c1.9-2.1,4.2-3.9,6.5-5.7c0.8-0.6,1.7-1.1,2.7-1.5c0.3-0.1,0.8,0,1.2,0
			c-0.1,0.3,0,0.8-0.2,1c-1.5,1.7-3,3.5-4.7,5c-2.5,2.3-4.8,4.9-6.6,7.8c-0.9,1.4-1.8,2.9-2.6,4.4c-2.6,5-3.4,10.3-2.7,15.8
			c0.3,2.6,0.7,5.3,1.4,7.8c0.7,2.5,1.7,5,2.7,7.4c0.8,1.8,1.5,3.7,2.6,5.2c2.7,3.6,5.5,7,9.2,9.6c1.6,1.1,2.9,2.6,4.6,3.7
			c2,1.3,4.2,2.5,6.5,3.4c2.9,1.2,6,2.4,9,3.2c3.7,1,7.5,2,11.4,2.3C55.8,96.3,60.9,96,66,95c2.7-0.5,5.5-0.8,8.2-1.6
			c3.7-1.1,7.4-2.3,10.9-3.9c5-2.3,9.5-5.5,13.4-9.4c3.2-3.1,6.3-6.3,9.1-9.7c2.2-2.7,4.1-5.8,5.6-9c1.2-2.6,1.9-5.5,2.2-8.3
			c0.4-3.6,0.3-7.3,0-10.9c-0.3-2.8-1.1-5.6-1.9-8.4c-0.9-3.3-1.9-6.6-3.1-9.9c-2-5.6-5.6-10.3-10-14.2c-2.1-1.9-4.6-3.5-7.1-4.5
			c-3.7-1.4-7.6-2.2-11.6-2.2c-5.1,0-10.2,0.3-15.3,0.5c-1.1,0-2.2,0.6-3.1-0.3c-0.4-0.4-0.7-1-0.7-1.5c0-0.3,0.8-0.7,1.2-0.7
			C68.2,0.7,72.4,0.4,77.5,0z M98.4,93.6c-0.7,0.5-1.2,1-1.7,1.2c-2.3,1.1-4.5,2.3-6.9,3.2c-2.9,1.1-5.9,1.8-8.9,2.8
			c-1.6,0.5-3.2,1.1-4.9,1.5c-2.7,0.6-5.4,1.1-8.1,1.6c-3.1,0.6-6.2,1.2-9.3,1.7c-2,0.3-4.1,0.5-6.1,0.5c-2.3,0-4.6-0.1-6.9-0.3
			c-0.9-0.1-1.5,0.4-1.7,1.4c-0.2,1.3-0.4,2.7-0.7,4c-0.7,2.8-1.6,5.7-2.3,8.5c-0.7,2.7-1.5,5.4-2.2,8.1c-0.5,2.1-0.9,4.3-1.4,6.4
			c-0.2,0.9-0.7,1.7-1,2.6c-0.5,1.9-0.9,3.8-1.3,5.7c-0.5,2-1,4-1.4,6c-0.6,3-1.2,6-1.8,9c-0.5,2.1-1.1,4.3-1.7,6.4
			c-0.3,1.2-0.8,2.3-1,3.4c-0.4,2.3-0.7,4.6-1.1,7c-0.7,3.8-1.6,7.6-2.2,11.5c-0.4,2-0.5,4-0.7,6c-0.1,1-0.4,2-0.4,3
			c-0.1,1.4,0,2.8,1.6,3.5c1.4,0.6,2.8,1.4,4.3,1.8c2.5,0.7,5,1.3,7.5,1.9c3,0.7,5.9,1.8,8.9,2.1c5.7,0.5,11.5,0.8,17.2,0.8
			c4.7,0.1,9.3-0.3,14-0.5c3.7-0.2,7.3-0.6,10.9-0.8c2.9-0.2,5.7-0.5,8.5-1.2c2.4-0.6,4.9-0.9,7.3-1.4c1.3-0.3,2.5-0.6,3.7-1.2
			c2.2-1,4.4-2.2,6.5-3.3c0.9-0.4,1.7-0.8,2.5-1.3c1-0.7,2.1-1.4,3-2.2c0.3-0.3,0.4-1,0.3-1.4c-0.5-1.9-1.2-3.8-1.7-5.6
			c-0.5-2-1-3.9-1.5-5.9c-0.6-2.4-1.3-4.7-2-7c-0.9-3.5-1.9-7-2.7-10.5c-0.8-3.3-5.6-23-6.2-24.9c-1.1-3.5-1.8-7.1-2.5-10.7
			c-0.8-3.9-1.6-7.8-2.2-11.8c-0.5-3.2-0.8-6.5-1.4-9.8c-0.6-3.5-1.3-7-2-10.5C98.7,94.4,98.5,94,98.4,93.6z"/>
		<path d="M71.4,56.5c-2.9-0.1-4.2-1.1-4.4-3.4c-0.2-1.4,0.6-2.4,2-2.7c1.4-0.3,2.9-0.7,4.2,0.3c1,0.7,1.5,2.3,1.1,3.6
			C73.7,55.9,72.8,56.6,71.4,56.5z"/>
		<path d="M58.1,57.9c0.2,1.6-2.2,2.8-4,3c-1.3,0.1-3-1.8-3-3c0.1-1.4,2.3-3.4,3.8-3.5C56.6,54.4,58.1,56.1,58.1,57.9z"/>
		<path d="M72.6,189.7c-1.3-0.5-2.7-0.8-3.9-1.5c-2.1-1.1-4-2.4-6.1-3.4c-1.5-0.7-3.1-1-4.7-1.5c-0.8-0.3-1.7-0.5-2.3-1
			c-0.7-0.5-2-0.1-2.3-1.3c-0.3-0.9-0.7-1.8-1.1-2.8c0-0.1,0.1-0.4,0.2-0.5c0.8-0.8,1.5-1.6,2.5-2.2c1.9-1.2,4-2.1,5.7-3.4
			c2.2-1.6,4.2-3.5,6.3-5.3c0.2-0.2,0.6-0.3,0.8-0.5c0.4-0.3,0.9-0.5,1.2-0.9c1.2-1.7,2.5-1.8,3.7-0.2c2,2.8,4.8,4.5,7.7,6.3
			c2.7,1.7,5.2,3.7,7.6,5.9c1,0.9,1,2.1,0,3c-0.2,0.2-0.4,0.6-0.4,0.9c-0.1,1.3-0.8,1.9-1.9,2.4c-2.5,1.2-5.1,2.3-7.3,3.9
			c-1.4,1-2.8,1.3-4.3,1.7c-0.4,0.1-0.8,0.1-1.2,0.2C72.7,189.6,72.6,189.6,72.6,189.7z M81.8,178.3c-0.8-0.8-1.4-1.4-2.1-1.9
			c-2.5-2-5.1-4-7.6-6c-1.2-1-2.1-0.4-3,0.2c-2.4,1.7-4.7,3.6-7.1,5.3c-0.7,0.5-1.4,1-2.1,1.6c0,0.2,0,0.3,0,0.5
			c2.3,1.1,4.6,2.1,6.9,3.2c1.6,0.8,3.3,1.4,4.9,2.3c0.8,0.5,1.4,0.5,2.2,0c1.7-1.1,3.5-2.1,5.2-3.2C79.9,179.7,80.8,179,81.8,178.3
			z"/>
	</g>
</g>
</svg>
