<?xml version="1.0" encoding="utf-8"?>
<!-- Generator: Adobe Illustrator 19.1.0, SVG Export Plug-In . SVG Version: 6.00 Build 0)  -->
<svg version="1.1" id="Calque_1" xmlns="http://www.w3.org/2000/svg" xmlns:xlink="http://www.w3.org/1999/xlink" x="0px" y="0px"
	 viewBox="0 0 199.8 173.3" style="enable-background:new 0 0 199.8 173.3;" xml:space="preserve">
<style type="text/css">
	.st0{fill:#F4A300;}
	.st1{fill:#C0C0C0;}
	.st2{fill:#008A90;}
	.st3{fill:#6DA3C3;}
	.st4{fill:none;stroke:#F8AD3B;stroke-width:3;stroke-miterlimit:10;}
	.st5{fill:#F8AD3B;}
	.st6{fill:none;}
	.st7{fill:#E2F7EF;}
	.st8{fill:#FFFFFF;}
</style>
<g>
	<path class="st0" d="M150.7,73.7c-9.7-8.8-19.7-14.5-32.1-14.9c-8.8-0.3-17.5-0.6-26.3-0.7c-10.7-0.1-21.5,0.5-32.2,0
		c-13.2-0.7-26.5-0.3-39.7-0.1c-2.2,0-3.4,0.8-4.3,2.6c-2.3,4.4-4.7,8.7-7.2,13.4c1.5,0.6,2.7,1.3,3.9,1.4c3.1,0.4,6.3,0.6,9.4,0.7
		c4.2,0.2,5.9,1.5,6,5.5c0.1,2.7-0.3,5.5-0.5,8C22,92.9,15.9,90.7,9.6,92c3.6,6.5,7,12.6,10.4,18.7c1.7-0.2,3-0.5,4.3-0.4
		c18.5,0.6,37.1,1.2,55.6,1.8c24.8,0.7,49.7,1.2,74.5-0.1c3.6-0.2,7.1-0.8,11.3-1.2c-1.9-7.4-1.9-14.5-5.6-21.1
		c-3.2,0.2-6.3,0.6-9.4,0.6c-11.7-0.1-23.5-0.5-35.2-0.5c-3.1,0-5.8-0.2-7.9-2.8c-0.2-2.2-0.5-4.3-0.6-6.4c-0.2-3.5,1.2-4.7,4.7-4.2
		c2,0.3,4,0.7,5.9,0.6c9.6-0.4,19.2-0.9,28.8-1.5C147.5,75.2,148.7,74.5,150.7,73.7z"/>
	<g>
		<path d="M52.1,0.2c18.1,0.5,36.1,1.1,54.2,1.4c6.1,0.1,12.2-1,18.3-1.2c8.1-0.3,16.2-0.3,24.2-0.4c6.7,13,15.4,24.5,23.4,36.4
			c4.3,6.4,8.1,13.3,11.9,20.1c4.8,8.7,9.3,17.5,13.9,26.3c0.5,1,1,2.1,1.3,3.2c1.4,3.8-0.4,6.9-2.4,10c-7.6,12-15.3,24-23,35.9
			c-4.2,6.5-8.6,12.9-13,19.4c-2,3-4,6.1-6,9.1c-2.6,3.7-4.6,7.8-8.6,9.9c-2.8,0.6-5.4,1.4-8.1,1.7c-3.9,0.5-7.9,0.9-11.8,1
			c-19.5,0.2-39.1,0.4-58.6,0.3c-5.9,0-11.9-0.7-17.8-1.2c-0.9-0.1-2.3-0.5-2.6-1.1c-1.4-3.1-2.6-6.3-3.8-9.5
			c-0.7-2-1.1-4.1-2.1-5.9c-7.5-13.6-15-27.3-22.8-40.7c-5.3-9.1-11.1-18-17-26.8c-2.1-3.2-2.6-5.8-0.7-9.1c3.3-5.6,6.4-11.2,9.3-17
			c3.4-6.8,8-12.8,12.6-18.8c5.6-7.3,10.7-15.1,16.1-22.7c2.3-3.2,4.9-6.3,7.2-9.5c1.3-1.9,2.2-4,3.3-6C50.4,3.6,51.1,2.1,52.1,0.2z
			 M150.7,73.7c-9.7-8.8-19.7-14.5-32.1-14.9c-8.8-0.3-17.5-0.6-26.3-0.7c-10.7-0.1-21.5,0.5-32.2,0c-13.2-0.7-26.5-0.3-39.7-0.1
			c-2.2,0-3.4,0.8-4.3,2.6c-2.3,4.4-4.7,8.7-7.2,13.4c1.5,0.6,2.7,1.3,3.9,1.4c3.1,0.4,6.3,0.6,9.4,0.7c4.2,0.2,5.9,1.5,6,5.5
			c0.1,2.7-0.3,5.5-0.5,8C22,92.9,15.9,90.7,9.6,92c3.6,6.5,7,12.6,10.4,18.7c1.7-0.2,3-0.5,4.3-0.4c18.5,0.6,37.1,1.2,55.6,1.8
			c24.8,0.7,49.7,1.2,74.5-0.1c3.6-0.2,7.1-0.8,11.3-1.2c-1.9-7.4-1.9-14.5-5.6-21.1c-3.2,0.2-6.3,0.6-9.4,0.6
			c-11.7-0.1-23.5-0.5-35.2-0.5c-3.1,0-5.8-0.2-7.9-2.8c-0.2-2.2-0.5-4.3-0.6-6.4c-0.2-3.5,1.2-4.7,4.7-4.2c2,0.3,4,0.7,5.9,0.6
			c9.6-0.4,19.2-0.9,28.8-1.5C147.5,75.2,148.7,74.5,150.7,73.7z M163.8,131.3c-0.2-0.4-0.4-0.9-0.6-1.3c-43.4,1.1-86.8-1.4-131,0.9
			c6.3,11.1,12.1,21.4,17.8,31.7c3.9,0.3,7.8,0.8,11.8,0.8c25.3,0,50.7-0.3,76-0.1c5.1,0,8-2,10.3-6.1c3.8-6.6,7.7-13.1,11.7-19.7
			C161,135.3,162.4,133.3,163.8,131.3z M193.5,87.9c-3.2-4.8-6-9-8.9-13.2c-4.7-6.8-9.7-13.4-14.3-20.3c-3.6-5.4-7.1-10.9-9.7-16.7
			c-2.6-5.9-6.9-6.9-12.4-6.3c-0.5,0-1,0.1-1.5,0.1c-6.9,0.3-13.9,0.8-20.8,0.8c-13.1,0-26.1-0.5-39.2-0.6c-2.5,0-5.2-0.4-8.1,1.1
			c1.4,1.3,2.5,2.2,3.5,3.2c4.2,3.9,4.3,7.4,0.3,11.4c-1.7,1.7-3.3,3.5-5.2,5.5c1,0.4,1.4,0.7,1.8,0.7c11.7,0.1,23.5,0.2,35.2,0.1
			c5.1,0,10.1-0.2,15.1,1.7c9.8,3.7,18.8,8.5,25.6,16.5c9.7,11.4,13.7,25,13.9,39.8c0.1,4.5-0.2,5-4.8,5.6
			c-3.7,0.5-7.5,0.5-11.3,0.6c-0.9,1.7-1.7,3.3-2.8,5.4c6.6-0.1,12.6-0.2,19.6-0.3C177.2,112,185.3,100.1,193.5,87.9z M154,26.8
			c-2.4-5.5-4.1-10.3-6.5-14.7c-2-3.5-5.1-5.9-9.7-5.8c-7.4,0.2-14.9,0-22.3,0c-9.9,0-19.8,0.1-29.7,0.2C76.5,6.8,67.2,7.1,58,7.3
			c-2,0.1-3.9,0.4-5.2,2.3c-1.8,2.6-4,4.9-5.8,7.4c-2.2,3-4.3,6.1-7,9.9c2.6,0.3,4.2,0.6,5.7,0.6C81.5,27.3,117.3,27.1,154,26.8z
			 M20.9,53.7c16.7-0.9,32.6,1.3,49.3-0.3c-1.2-1.5-1.9-2.4-2.7-3.2c-1.5-1.6-3.1-3-4.5-4.6c-2.5-2.9-2.2-5.1,0.8-7.4
			c2-1.6,4.2-3.1,5.5-5.9c-1.9-0.1-3.4-0.3-4.8-0.3c-8.1-0.1-16.2,0.1-24.3-0.3c-3.1-0.2-5,0.7-6.6,3.1C30,40.2,26.1,45.6,22.4,51
			C22,51.5,21.7,52.1,20.9,53.7z M54.4,122.4c13.1,0.2,25.7,0.2,38.5-0.5c-1.5-4.2-1.5-4.4-4.8-4.5c-5.8-0.1-11.6,0-17.4,0.1
			c-4.8,0.1-9.6,0.2-14.6,0.3C55.7,119.2,55.1,120.5,54.4,122.4z M79.3,42c-1.7-2.2-3-3.9-4.3-5.7c-9,4.9-9.3,6.7-2.3,12.5
			c0.1,0.1,0.3,0,1,0.1C75.3,47,77.1,44.8,79.3,42z M125.6,117.9c-2.2,0-3.9-0.1-5.6-0.1c-0.7,1.6-1.4,2.9-2,4.2
			c3.2,0.2,6.2,0.4,9.8,0.7C126.9,120.8,126.3,119.5,125.6,117.9z M44.9,122.4c-1-1.6-0.1-4.4-3-4.7c-0.5,1.5-1.1,2.8-1.7,4.4
			C42,122.2,43.5,122.3,44.9,122.4z M141.9,123.1c-1.7-1.8-2.7-2.7-3.8-3.8c-0.8,1.1-1.5,2.1-2.5,3.4
			C137.7,122.8,139.3,122.9,141.9,123.1z M26,118.8c1.3,3.5,1.3,3.5,4.7,2.3C30.1,118.2,28.3,117.9,26,118.8z M103.7,122.1
			c2.1-0.1,3.3-0.2,5.2-0.4c-1.2-1.7-2.1-2.9-3.4-4.8C104.8,119,104.4,120.1,103.7,122.1z"/>
		<path d="M65.2,77.6c6.4-0.1,12.9-0.2,19.3-0.3c5.5-0.1,5.7,0.1,5.4,5.4c-0.2,2.4,0.2,5.5-1.1,7c-1,1.2-4.3,0.6-6.5,0.7
			c-8.4,0.2-16.8,0.4-25.3,0.6c-2,0.1-3.9,0.3-5.9,0.5c-2.3,0.2-3.8-0.8-4.3-3.1c-0.4-1.8-0.9-3.5-1.4-5.2c-0.9-3.6,0.6-5.9,4.4-6.1
			c5.1-0.2,10.2,0,15.4,0.1C65.2,77.2,65.2,77.4,65.2,77.6z"/>
	</g>
</g>
</svg>
