<?xml version="1.0" encoding="utf-8"?>
<!-- Generator: Adobe Illustrator 19.1.0, SVG Export Plug-In . SVG Version: 6.00 Build 0)  -->
<svg version="1.1" id="Calque_1" xmlns="http://www.w3.org/2000/svg" xmlns:xlink="http://www.w3.org/1999/xlink" x="0px" y="0px"
	 viewBox="0 0 251.8 260.2" style="enable-background:new 0 0 251.8 260.2;" xml:space="preserve">
<style type="text/css">
	.st0{fill:#F4A300;}
	.st1{fill:#C0C0C0;}
	.st2{fill:#008A90;}
	.st3{fill:#6DA3C3;}
	.st4{fill:none;stroke:#F8AD3B;stroke-width:3;stroke-miterlimit:10;}
	.st5{fill:#F8AD3B;}
	.st6{fill:none;}
	.st7{fill:#E2F7EF;}
	.st8{fill:#FFFFFF;}
</style>
<g>
	<g>
		<path d="M69.4,72.9c0.1-3.2,1.5-4.1,3.4-4.3c1.8-0.2,3.8,1.8,3.8,3.7c0,1.7-2.1,3.9-4,3.4C71.2,75.2,70.2,73.5,69.4,72.9z"/>
		<path d="M51.6,76.8c0.6-2.6,1-4.4,3.3-4.5c1.6-0.1,3.4,2.2,3.3,3.9c-0.1,2.1-1.6,3.3-3.3,3C53.7,79.1,52.6,77.5,51.6,76.8z"/>
		<path d="M70.7,209.4c-2.7-1.7-5.4-3.4-8.2-5c-1.6-0.9-3.4-1.6-4.9-2.6c-0.8-0.5-1.5-1.6-1.8-2.5c-0.1-0.4,0.6-1.3,1.2-1.7
			c3.8-3,7.7-5.8,11.4-8.9c1.6-1.3,2.7-1.3,4.1-0.1c2.8,2.4,5.7,4.7,8.6,6.9c2.2,1.6,2.5,3.5,0.5,5.3c-2.7,2.5-5.4,4.9-8.1,7.2
			C72.8,208.5,71.9,208.7,70.7,209.4z M61.3,199.2c3.6,2.4,6.8,4.4,9.9,6.5c2.4-2.7,4.6-5.2,6.9-7.8c-2.5-1.8-5-3.7-7.6-5.5
			C67.6,194.6,64.7,196.7,61.3,199.2z"/>
		<g>
			<path d="M40.6,25.5c-13,4.7-23.3,12.8-30.8,23.9c-6,8.9-7.5,19.3-6.4,30.1c0.7,6.3,3.8,11.3,7.4,16.3
				c6.3,8.6,14.7,13.7,25.1,15.7c5.1,1,10.1,2.7,15.2,3.4c8,1,16-0.5,23.8-2.2c10.3-2.3,19.5-7.2,28.1-13.3
				c7.7-5.5,11.4-13.2,12.1-22.5c0.1-1.3,0.2-2.6,0.5-3.9c3.4-16.4-1.4-30.7-11.3-43.6c-3-3.9-7.7-4.8-12.1-6
				c-6.7-1.8-13.5-2.9-20.3-0.4c-2.6,0.9-2.8-1.2-3.2-3.5c15.8-2.7,30.1-1.7,41.3,12.1c2.8-10.4,4.1-21.1,9-31
				c2.4,1.3,4.4,2.8,6.6,3.5c8,2.2,16.1,4.3,24.3,6.2c8.7,2,17.4,3.8,26.2,5.6c0.3,0.1,0.6,0,1.2,0c1.1-4.5,2.4-9.1,3.4-13.7
				c0.4-1.6,0.8-2.4,2.6-1.9c4.5,1.4,9,2.7,13.5,4.2c1.8,0.6,2.1,1.8,1.3,3.7c-1.4,3.2-2.4,6.6-3.6,10c-0.7,1.9,0,2.8,2,3.3
				c13.9,3.5,27.8,7,41.6,10.8c4.3,1.2,8.3,3.1,12.3,5c0.9,0.4,1.7,2.4,1.5,3.3c-3.8,13.2-7.7,26.4-11.6,39.6
				c-2.9,9.7-5.7,19.5-8.5,29.2c-1.5,5.3-2.8,10.6-4.3,15.9c-1,3.6-2.8,4.5-6.4,4.1c-13.7-1.3-26.7-5.6-39.7-9.8
				c-4.9-1.6-9.8-2.9-14.7-4.2c-0.6-0.2-2,0.4-2.1,0.9c-2.2,6.1-4.3,12.2-6.5,18.3c3.2,1.2,3.9,2.7,3,5.5c-0.7,2.1-1.2,4.3-2.1,6.4
				c-0.3,0.8-1.5,1.2-2.3,1.7c-0.4,0.2-1,0.2-1.5,0.3c-5.7,1.2-5,6.6-6.8,10.3c-1.1,2.3-1.9,4.8-3,8c-3.9-0.8-7.8-1.4-11.6-2.4
				c-2.5-0.7-3.4-3.2-2.4-6.2c1.6-5.1,3.3-10.1,4.8-15.2c1-3.5,1.7-7.2,2.5-10.4c-11.9-7.7-23.7-15.3-35.9-23.2
				c1.5,10.8,2.8,20.9,4.3,31c2,14.3,3.7,28.6,6.4,42.8c1.7,8.9,4.7,17.6,7.3,26.3c0.4,1.4,1.9,2.5,2.6,3.9c0.4,0.8,0.6,1.9,0.4,2.8
				c-0.1,0.4-1.3,0.6-2,0.9c-1.7,0.8-3.5,1.5-5.2,2.4c-7.1,3.8-14.6,5.9-22.6,6.6c-1.7,0.1-3.5,0.4-4.8,0.5c-1,5.1-2,9.8-2.9,14.5
				c-0.9,4.5-0.4,5.1,4.2,5c2.7-0.1,5.4-0.4,8-0.9c3.9-0.8,6.5,0.6,7.3,4.6c0.1,0.4,0.1,0.7,0.2,1.1c1.3,5.1-1.1,5.4-4.7,5.9
				c-5.3,0.6-10.7,1-16.1,1.4c-0.8,0.1-1.9-0.4-2.4-1.1c-3.1-3.8-2.2-8.3-1.9-12.6c0.2-3.2,0.6-6.3,0.8-9.5c0.2-2.5,0.2-5,0.3-7.4
				c-7,0-13.9,0-21,0c-0.4,6-0.8,11.7-1.1,17.4c-0.2,2.8-0.1,5.7-0.2,8.5c-0.1,2-1.1,3.3-3.1,3.6c-6.1,1.1-12.2,2.2-18.3,3.2
				c-0.9,0.1-2.3-0.1-2.8-0.7c-0.6-0.8-0.6-2.2-0.6-3.3c0-1.1,0.4-2.3,0.2-3.4c-0.2-1.7,0.2-2.6,2-2.9c4.8-0.6,9.6-1.4,14.3-2.3
				c0.8-0.2,1.9-1.3,2-2.1c0.7-6.1,1.1-12.2,1.6-18.7c-3.3-0.2-6.7,0-9.9-0.7c-6.9-1.4-13.7-3.3-20.6-4.9c-2.8-0.6-3.3-2.3-2.8-4.8
				c1.7-8.7,3.5-17.4,5.1-26.1c0.7-3.5,1.1-7,1.6-11c-3.2-0.3-6.2-0.5-9.1-0.7c-2.5-0.2-5-0.4-7.4-0.7c-1-0.2-2.2-0.6-2.8-1.4
				c-0.8-1-1.4-2.4-1.7-3.8c-1.2-6.2-1.1-6.3,5-6.9c4.4-0.4,8.9-0.6,13.3-0.6c2.1,0,3-0.9,3.5-2.7c1.5-5.8,3-11.5,4.6-17.3
				c2.4-8.7,4.9-17.4,7.4-26c0.5-1.8,0.5-2.7-1.5-3.3c-5.6-1.8-11.5-3.2-16.8-5.9c-12.5-6.5-24.4-23.1-23-39.1
				C0.8,63,2.3,55.3,6.3,48.4C8.9,44,12.6,40,16.4,36.6c5.1-4.6,10.1-9.4,16.8-11.8c1.5-0.5,3-0.9,4.5-1.4
				C39.7,22.7,40.5,23.5,40.6,25.5z M221.7,121.7c1.7-5.3,3.2-9.9,4.5-14.6c4.2-15.4,8.3-30.9,12.5-46.3c1.8-6.4,3.9-12.6,5.9-18.9
				c0.5-1.6,0.5-2.7-1.5-3.3c-4.9-1.5-9.6-3.6-14.5-5c-7.2-2.1-14.5-4-21.8-5.8c-7-1.8-14.1-3.6-21.1-5.3c-12-2.9-24-5.8-36-8.7
				c-6.1-1.5-12.3-2.8-18.4-4.3c-3.4-0.9-6.6-2.1-10-3.2c-0.1,0.9,0,1.8-0.2,2.5c-2.5,8.6-5.1,17.1-7.6,25.7c-0.3,1.2-0.3,2.8,0.2,4
				c1.2,3.3,2.9,6.5,3.9,9.9c4,13.3,2.7,26.5-1.3,39.5c-0.5,1.7-1.1,3.3-2,5.7C150.3,102.2,185.3,114.4,221.7,121.7z M99.9,113.7
				c-2.6,1.4-4.8,2.8-7.1,3.9c-2,0.9-4.2,1.5-6.3,2.2c-4.6,1.5-9.1,3.6-13.8,4.1c-7.6,0.8-15.4,0.6-23.1,0.7c-6.3,0.1-5-0.5-6,5
				c-0.1,0.5-0.1,0.9-0.2,1.4c-4.1,19.2-8.3,38.3-12.3,57.5c-1.9,9-3.5,18.1-5.2,27.1c-0.3,1.8-0.1,3.1,2.2,3.4
				c1.9,0.3,3.8,0.9,5.7,1.4c11.8,3,23.9,3.6,36,3.4c5.2-0.1,10.4-0.7,15.6-1.2c5.8-0.5,11.7-0.8,17.4-1.9
				c5.9-1.1,11.3-3.6,15.9-7.3c-0.8-1.9-1.6-3.6-2.3-5.3c-3.8-10-6.3-20.3-7.9-30.8c-1.6-10.9-3.4-21.7-4.9-32.6
				C102.1,134.5,101.1,124.3,99.9,113.7z M147.5,109.9c-12.4-3.2-24.4-6.2-36.3-9.4c-2.9-0.8-4.7,0.5-6.7,2.1
				c12.4,8.1,24.6,16.1,36.9,24.3C143.4,121.3,145.4,115.7,147.5,109.9z M159,118.6c-2.6-0.9-4.9-1.9-7.3-2.5
				c-0.7-0.2-2.1,0.3-2.3,0.9c-1.3,3.5-2.5,7-3.5,10.5c-0.2,0.7,0.6,2.1,1.3,2.5c2,0.9,4.2,1.5,6.6,2.2
				C155.4,127.7,157.2,123.2,159,118.6z M143.3,160c1.5-3.8,2.9-7.3,4.1-10.9c0.2-0.7-0.1-2.1-0.6-2.5c-1.1-0.8-2.5-1.2-3.8-1.5
				c-0.7-0.1-2.1,0.3-2.2,0.8c-1.1,3.6-2.1,7.2-3,10.9c-0.1,0.5,0.7,1.6,1.3,1.9C140.4,159.3,141.8,159.5,143.3,160z M181.8,13.2
				c3.4,0.9,6.3,1.7,9.2,2.6c1.1-3.1,2-5.9,3.1-9c-3.4-1-6.4-1.9-9.8-2.9C183.4,7.2,182.6,10.1,181.8,13.2z"/>
			<g>
				<g>
					<path class="st2" d="M170.4,79.2c-1,3.1-1.7,5.6-2.6,8c-0.2,0.5-1,0.9-1.5,1.3c-0.2-0.5-0.6-1.1-0.5-1.5
						c1-5.3,1.7-10.6,3.1-15.7c0.6-2.2,3.4-2.5,5.6-2.7c2-0.3,3.7,0.8,4.7,2.4c2.7,4.3,1.6,7.2-3.2,8.6c0.4,2.4,1,4.8,1.3,7.2
						c0.1,0.8-0.8,2.2-1.4,2.3c-1.3,0.2-2-0.8-2-2.2c0-2.1,0.1-4.2-1.4-5.8C172,80.4,171.4,80,170.4,79.2z M171.4,75.9
						c1.4,0.1,2.8,0.5,4,0.3c0.8-0.1,2.3-1,2.2-1.3c-0.1-1-0.7-2.2-1.5-2.7C174,70.7,171.8,72.3,171.4,75.9z"/>
					<path class="st2" d="M153.1,42.3c1.2-2.2,4.8-4.1,7.1-3.5c1.2,0.3,2.4,1.5,3.2,2.5c4,5.3,1.5,13.5-4.8,15.7
						c-3.2,1.2-6.3-0.4-7.2-3.7C150.4,49.4,151.3,45.8,153.1,42.3z M162.5,50.4c0.7-2.1-0.5-7.1-2.2-8c-1.3-0.7-2.7-0.4-3.3,0.9
						c-0.9,2.1-1.5,4.2-1.9,6.4c-0.4,2,1.2,3.5,3.2,3C159.8,52.3,161.1,51.2,162.5,50.4z"/>
					<path class="st2" d="M184,52.6c2.4,0.2,4.5,0.3,6.4,0.7c0.7,0.2,1.3,1.1,1.9,1.7c-0.8,0.4-1.5,1.1-2.3,1.2
						c-1.1,0.1-2.2-0.3-3.4-0.3c-3.8-0.1-4.4,0.6-4.2,4.8c2.1,0.4,4.3,0.7,6.4,1.1c0.6,0.1,1.3,0.3,1.7,0.8c0.3,0.4,0.5,1.2,0.4,1.7
						c-0.1,0.3-0.9,0.6-1.4,0.5c-1.7-0.1-3.3-0.5-5-0.6c-1-0.1-2,0.1-3,0.3c-1.7,0.4-3.9-1.4-3.4-3.1c1.2-3.9,2.6-7.7,4-11.6
						c0.3-0.9,0.8-1.7,1.1-2.5c1.1-3.1,1.1-3.1,4.4-2.5c2,0.4,4.1,0.5,6,1.1c0.7,0.2,1.7,1.2,1.8,1.8c0,1.4-1.2,1.2-2.2,1.1
						c-1.5-0.2-3.1-0.3-4.6-0.7c-1.8-0.5-2.8,0-3.4,1.7C184.8,50.6,184.4,51.5,184,52.6z"/>
					<path class="st2" d="M151.5,78.7c-1.6,3-7.3,4.6-9.9,2.4c-1.1-1-2-2.9-2-4.4c0.2-3.3,0.7-6.7,1.6-9.9c0.5-2,2.2-3.8,4.4-3.7
						c2.2,0.1,4.6,1,5.6,3.2C153.5,71.1,154.4,73.7,151.5,78.7z M149.1,76.1c1.6-2.8,1.5-5.9-0.3-7.9c-1.5-1.7-3-1.7-4,0.2
						c-0.9,1.7-1.5,3.6-1.8,5.5c-0.3,1.7,0.4,3.6,2.1,4.2C146.9,78.8,148.4,77.7,149.1,76.1z"/>
					<path class="st2" d="M205.6,51.8c-1.7-0.3-3.4-0.6-5.2-0.8c-1.4-0.2-2.5-0.7-2.2-2.2c0.2-1.3,1.1-1.9,2.7-1.5
						c2.3,0.6,4.7,0.8,7.1,1.3c2.3,0.4,2.8,1.9,1.4,3.8c-3,4.2-6,8.5-9.3,13.1c2.9,0.2,5.7,0.5,8.6,0.7c1.1,2.4,0.3,3.6-2.5,3.3
						c-2.9-0.3-5.8-0.4-8.6-0.7c-0.9-0.1-2.1-0.6-2.4-1.3c-0.3-0.8,0.2-2,0.7-2.7c3.3-4.1,6.7-8.2,10-12.3
						C205.9,52.3,205.7,52,205.6,51.8z"/>
					<path class="st2" d="M199.5,78.7c-1.3,1.1-3.3,1.5-3,3.6c0,0.3-1.1,1.1-1.7,1.1c-0.6,0-1.2-0.8-1.6-1.4
						c-0.7-1.1-1.3-2.4-2.1-4.1c-0.8,4-1.5,7.3-2.3,10.7c-0.1,0.5-0.2,1.3-0.5,1.6c-0.5,0.4-1.3,0.5-1.8,0.4c-0.3-0.1-0.7-1-0.6-1.4
						c0.8-4.9,1.7-9.7,2.6-14.5c0.1-0.6,0.8-1.4,1.2-1.4c0.6-0.1,1.6,0.4,2,0.9c1.1,1.4,2,2.9,3.1,4.6c1.4-1.2,2.6-2.4,4-3.4
						c0.7-0.5,1.5-0.8,2.3-1.1c0.4,0.9,1.3,1.9,1.2,2.7c-0.6,5-1.4,10.1-2.2,15.1c-0.2,1.1-0.4,2.8-2,2.3c-0.6-0.2-1-2.2-0.9-3.2
						c0.6-3.7,1.4-7.3,2.1-11C199.5,79.5,199.5,79.1,199.5,78.7z"/>
					<path class="st2" d="M204.1,81.7c2.9-4.8,5.6-5.1,8.8-2.2c3,2.7,3,6.2,1.9,9.6c-0.8,2.5-1.2,5.2-4.5,6.4
						c-2.9,1-7.8-0.3-7.7-4.6C202.8,87.4,203.7,83.9,204.1,81.7z M211.8,89.4c0.2-1.1,0.8-2.7,0.7-4.3c-0.1-1.7-1-3.1-2.9-3.4
						c-2-0.3-2.9,1.1-3.2,2.7c-0.3,2-0.4,4-0.3,6.1c0,0.6,0.7,1.5,1.3,1.6c0.9,0.2,1.9-0.1,2.7-0.5
						C210.7,91.3,211.1,90.4,211.8,89.4z"/>
					<path class="st2" d="M141.1,46.6c3-3.5,5.8-6.7,8.6-9.8c0.5-0.5,1.5-0.4,2.3-0.6c0,1,0.3,2.2-0.2,2.8
						c-2.7,3.5-5.6,6.9-8.4,10.4c-0.5,0.6-0.6,1.6-1.2,2.1c-0.9,0.7-2.1,1.5-3.1,1.6c-1.5,0.1-1.2-1.3-1.2-2.4
						c-0.3-5.1-0.8-10.1-1.2-15.2c-0.1-1.2-0.3-2.5-0.2-3.7c0.1-0.7,0.7-1.4,1.1-2.1c0.5,0.6,1.3,1.1,1.4,1.8
						c0.4,2.4,0.5,4.9,0.9,7.3C140.2,41.3,140.7,43.9,141.1,46.6z"/>
					<path class="st2" d="M129.2,69.9c-0.5,1.9-1,3.7-1.5,5.6c-0.1,0.5,0,1.2-0.4,1.6c-0.4,0.5-1.1,0.8-1.7,1.2
						c-0.3-0.6-1-1.3-0.9-1.8c0.4-2.1,1-4.1,1.6-6.1c0.4-1.6,1.1-3.1,1.3-4.7c0.1-1-0.3-2.1-0.5-3.1c-0.3-1.3-0.5-2.7,1.2-3.3
						c1.3-0.4,2.6-0.9,3.9-1.1c5.2-0.7,7.6,3.3,7.1,7.6c-0.1,0.9-0.8,1.8-1.5,2.4C135.5,70,132.5,70.6,129.2,69.9z M136.3,64.4
						c-0.3-0.7-0.6-2.3-1.4-2.6c-1.2-0.5-3.1-0.4-4,0.2c-1.2,0.8-0.6,3.9,0.3,4.4C132.6,67.1,135.3,66.3,136.3,64.4z"/>
					<path class="st2" d="M156.9,74.5c-0.3,0.7-1,2-1.1,3.2c-0.1,1,0.6,2.8,1.2,2.9c1.3,0.2,3,0,4-0.7c0.9-0.7,1.4-2.2,1.7-3.5
						c0.5-2,0.7-4.1,1.2-6c0.2-0.7,1-1.3,1.6-1.9c0.5,0.7,1.4,1.5,1.3,2.1c-0.7,4.2-1.3,8.5-3.9,12.1c-1.2,1.8-5.2,2.5-7.5,1.5
						c-1.9-0.8-3.1-2.7-2.5-5.3c0.8-3.5,2.2-7,3.5-10.4c0.5-1.3,1.5-1.2,1.9,0c0.3,0.9,0.4,2,0.2,3
						C158.3,72.5,157.6,73.2,156.9,74.5z"/>
					<path class="st2" d="M172.1,44.8c-5.9-0.3-6.3-1.4-4.7-4.4c2.4,0.3,4.7,0.4,6.9,0.8c2.3,0.4,4.6,0.9,6.8,1.6
						c0.6,0.2,1,1.1,1.5,1.7c-0.6,0.5-1.2,1.3-1.9,1.3c-1.4,0.1-2.8-0.2-4.2-0.5c-1.3-0.3-2,0.1-2.3,1.4c-0.9,3.8-1.9,7.5-2.8,11.3
						c-0.1,0.4-0.1,1-0.4,1.2c-0.7,0.6-1.4,1-2.2,1.5c-0.3-0.8-0.9-1.7-0.7-2.4c1-4,2.2-7.9,3.3-11.8
						C171.8,46.1,171.9,45.5,172.1,44.8z"/>
					<path class="st2" d="M218.6,80.9c0.7-0.5,1.3-0.9,1.9-1.3c0.3,0.7,0.8,1.4,0.8,2c-0.5,4.8-1.2,9.5-1.8,14.3
						c0,0.3-0.1,0.8-0.4,1c-0.6,0.5-1.3,1-2,1.5c-0.3-0.7-1-1.5-0.9-2.1c0.4-3.1,1-6.1,1.5-9.2C218,85,218.3,83,218.6,80.9z"/>
					<path class="st2" d="M220.7,71.9c1.8,1.5,1.4,2.9,0.7,4.1c-0.3,0.6-1.4,0.8-2.2,1.1c-0.3-0.8-0.9-1.8-0.7-2.5
						C218.9,73.7,219.9,72.9,220.7,71.9z"/>
				</g>
			</g>
		</g>
	</g>
	<path class="st0" d="M116.2,208c-3.8-10-6.3-20.3-7.9-30.8c-1.6-10.9-3.4-21.7-4.9-32.6c-1.4-10.1-2.4-20.3-3.6-30.9
		c-2.6,1.4-4.8,2.8-7.1,3.9c-2,0.9-4.2,1.5-6.3,2.2c-4.6,1.5-9.1,3.6-13.8,4.1c-7.6,0.8-15.4,0.6-23.1,0.7c-6.3,0.1-5-0.5-6,5
		c-0.1,0.5-0.1,0.9-0.2,1.4c-4.1,19.2-8.3,38.3-12.3,57.5c-1.9,9-3.5,18.1-5.2,27.1c-0.3,1.8-0.1,3.1,2.2,3.4
		c1.9,0.3,3.8,0.9,5.7,1.4c11.8,3,23.9,3.6,36,3.4c5.2-0.1,10.4-0.7,15.6-1.2c5.8-0.5,11.7-0.8,17.4-1.9c5.9-1.1,11.3-3.6,15.9-7.3
		C117.7,211.4,116.9,209.7,116.2,208z"/>
</g>
</svg>
