<?xml version="1.0" encoding="utf-8"?>
<!-- Generator: Adobe Illustrator 19.1.0, SVG Export Plug-In . SVG Version: 6.00 Build 0)  -->
<svg version="1.1" id="Calque_1" xmlns="http://www.w3.org/2000/svg" xmlns:xlink="http://www.w3.org/1999/xlink" x="0px" y="0px"
	 viewBox="0 0 278.7 229" style="enable-background:new 0 0 278.7 229;" xml:space="preserve">
<style type="text/css">
	.st0{fill:#FFFFFF;}
	.st1{fill:#41AB87;}
	.st2{fill:#E2EFE8;}
	.st3{fill:#010202;}
	.st4{fill:#DB5556;}
	.st5{fill:#6FA4C3;}
	.st6{fill:none;stroke:#DB5556;stroke-width:7;stroke-miterlimit:10;}
	.st7{fill:none;}
	.st8{fill:#FFFFFF;stroke:#DB5556;stroke-width:3;stroke-miterlimit:10;}
	.st9{fill:none;stroke:#DB5556;stroke-width:3;stroke-miterlimit:10;}
	.st10{fill:#C1C0C0;}
	.st11{fill:none;stroke:#C1C0C0;stroke-width:3;stroke-miterlimit:10;}
	.st12{fill:#FFFCFA;}
	.st13{fill:#F5D1CA;}
</style>
<g>
	<path class="st10" d="M4.3,74.6c0,7,0,13.5,0,19.9c0,2.1,0.8,3.7,2,5.4c5.3,7.4,11,14.7,15.7,22.5c9.8,16.4,20.1,32.5,31.2,48
		c0.7,1,1.5,2,2.4,3.1c2.6-1.8,4.8-3.3,7.2-5c-0.5-1.1-0.8-2.1-1.3-3c-8-16.2-16.1-32.3-24-48.5c-4.4-9.1-8.5-18.2-12.5-27.5
		c-1.4-3.2-2.6-6.3-6.4-7.3c-1.1-0.3-2-1.3-3-1.8C11.9,78.5,8.2,76.6,4.3,74.6z"/>
	<path class="st1" d="M82.6,162.2c-6.2,3.7-12.3,7-18.1,10.8c-5.8,3.8-12.4,6.6-17.6,11.3c1.4,1.8,2.6,3.2,3.6,4.5
		c11.6-7,23-13.9,34.4-20.8C84.2,166.3,83.5,164.4,82.6,162.2z"/>
	<path class="st1" d="M84.5,199.9c-2.2-3.6-4.1-6.7-6.3-10.3c-2.2,1.4-4.1,2.6-6.2,4c2.3,3.4,4.3,6.3,6.3,9.3
		C80.4,201.8,82.2,201,84.5,199.9z"/>
	<g>
		<path class="st1" d="M139.8,225.6c0.5-0.4,1.2-0.9,1.7-1.4c0.6-0.7,1.2-1.4,1.7-2.1c5-6.7,5.8-14.4,5.7-22.4
			c-0.1-9.4-0.3-18.8-0.3-28.2c0-8.5,0-16.9,0.1-25.4c0.1-11,0.4-21.9,0.5-32.9c0.2-12.3,0.7-24.6,0.3-36.9
			c-0.2-5.9,2.4-9.8,6.3-13.2c8.5-7.4,17.3-14.3,25.8-21.7c7-6.2,13.7-12.9,20.5-19.4c2.8-2.7,4.2-6.3,4.8-10.1
			c0.5-3.5-0.9-5.8-4.1-7.1c-4.2-1.7-8.3-1.1-11.9,1.5c-7.6,5.5-15,11.3-22.5,16.9c-6.9,5.2-13.8,10.3-20.7,15.4
			c-4.7,3.5-9.6,3.5-14.6,0.5c-2.5-1.5-4.9-2.9-7.4-4.4c-7.9-4.7-15.9-9.4-23.8-14.3c-6.4-3.9-12.8-7.5-20.1-9.3
			c-1.1-0.3-2.4-0.2-3.4,0.3c-1.9,0.8-3.7,1.9-5.5,3c-1.8,1.2-2.4,2.8-2.1,5.1c0.4,2.8,1.9,4.9,3.8,6.7c2.6,2.5,5.4,5,8.3,7.1
			c7.9,5.8,15.7,11.6,23.9,17c6.8,4.5,13.4,9,19.3,14.6c1.4,1.4,2.7,3.4,3.1,5.3c2.1,11,3,22.1,2.1,33.4c-0.5,6.6-0.7,13.3-0.9,20
			c-0.1,4.2,0,8.3,0,12.5c-0.1,10.1-0.2,20.3-0.3,30.4c0,8.1-0.1,16.1,0,24.2c0,6.9-0.2,13.8,0.4,20.7
			C130.8,217.6,132.4,223.6,139.8,225.6z"/>
		<path d="M66.7,166.5c5.4-3.3,10.2-6.2,15.2-9.2c5.1,2.1,4.1,8,7.6,11.4c3.5-4.9,6.8-9.9,9.2-15.4c2.9-6.6,5.4-13.3,8.1-20
			c5-12.3,8.8-24.9,11.8-37.8c1.8-7.7,3.2-15.6,5.1-23.3c0.6-2.3,0-3.8-1.7-5.1c-5.2-3.9-10.3-8-15.6-11.8c-8-5.7-16.1-11.1-24-16.9
			c-3.6-2.6-6.8-5.7-10.1-8.7c-2.5-2.3-4.4-5.2-4.9-8.7c-0.3-1.9-0.1-4,0.5-5.7c2.2-6,9.8-9.7,16-8.2c6.5,1.6,11.9,5.3,17.6,8.5
			c5.8,3.3,11.2,7.1,17,10.5c6.3,3.7,12.6,7.3,19,10.9c1.8,1.1,3.6,0.6,5.2-0.3c3.2-1.8,6.5-3.5,9.4-5.7
			c8.6-6.6,16.9-13.6,25.4-20.3c3.8-3,7.7-5.9,11.8-8.4c5.1-3.1,10.7-3.3,16.1-0.5c3.9,2,6.3,7.5,5.4,12.5
			c-0.7,4.1-2.8,7.6-5.6,10.6c-7.8,8-16.1,15.6-24.9,22.7c-6.1,4.9-11.8,10.3-17.6,15.5c-2.6,2.3-5.3,4.6-8.1,6.9
			c7.6,12.3,15,24.4,22.6,36.7c2.1-1.9,3.6-3.7,5.5-5c3-2,6.1-4,9.4-5.5c3.9-1.8,8-3.2,12-4.8c0.2-0.1,0.5-0.2,0.8-0.2
			c5.7-0.7,11.1-2.4,16.9-2.8c6-0.4,11.7,0.6,17.3,2.3c9.3,2.8,17.3,7.6,23.8,15.1c6.2,7.3,10.8,15.3,13.3,24.6
			c3,11,3.3,22.2,1.8,33.4c-0.2,1.8-0.8,3.6-1.4,5.3c-3.1,7.9-7.6,14.7-14,20.5c-5.1,4.6-10.6,8.5-16.9,11.1
			c-1.1,0.5-2.2,0.9-3.3,1.2c-3.8,1-7.5,2.2-11.3,2.8c-5.9,1-11.7,2.3-17.8,1.1c-4.5-0.9-9-1.4-13.5-2c-6.4-0.8-11.9-3.8-16.7-7.9
			c-6.3-5.4-12-11.5-15.6-18.9c-3.7-7.7-5.6-16-5.7-24.6c0-2.9-0.2-5.8-0.3-8.6c-0.1-8.8,1.9-17.1,5.6-25c1.1-2.3,3-4.2,4.7-6.2
			c0.8-0.9,1.9-1.4,2.8-2c-7-11.7-13.6-22.7-20.5-34.1c-0.2,1.1-0.4,1.9-0.4,2.7c0.1,8,0.3,16,0.2,24c-0.2,9.9-0.7,19.9-1,29.8
			c-0.3,10.3-0.5,20.6-0.5,30.9c0,8.2,0.3,16.4,0.4,24.6c0.1,6.5,0.6,13.2-0.1,19.6c-0.8,7.8-3.5,15-10.6,19.6
			c-0.9,0.6-2.3,1.3-3.2,1c-4.5-1.4-8.8-2.9-10.6-8.2c-2.3-6.5-2.2-13.1-2.3-19.8c-0.1-10.2,0-20.5,0-30.7c0-4.2-0.5-8.3-0.4-12.5
			c0.2-9.4,0.7-18.8,1-28.2c0.2-8,0.3-15.9,0.5-23.9c0.1-3.9,0.5-7.8,0.5-11.7c-0.1-5.4-0.5-10.7-0.7-16.7
			c-2.1,9.4-3.8,18.2-6.2,26.9c-3.7,13.6-7.8,27.1-13.8,40c-2.4,5.1-4.2,10.4-6.7,15.4c-1.9,3.8-4.3,7.4-7.6,10.3
			c-0.9,0.8-1.4,2.2-2.1,3.3c-1.4,0.3-2.9,0.7-5.1,1.2c1.2,2.3,2,4.1,3,5.9c1.5,2.9-0.1,5.5-3.5,5.8c-1.1,0.1-2.3,0.5-3.9,1
			c2.9,4.7,5.5,8.9,8,12.9c-1.6,5.3-6.6,5.4-10.4,7.9c-2.9-4-5.7-7.9-8.5-11.7c-3.6,0.7-3.6,0.7-5.3-2.5c-0.8-1.5-1.4-3.1-2.2-4.7
			c-3.5,2-6.9,4-10.5,6c-2.3-1.1-3.5-3.2-4.8-5.1c-1.2-1.7-2.2-3.4-4.4-4.3c-1-0.4-1.5-1.9-2.3-3c4-2.6,7.5-4.9,11.1-7.3
			c-10.8-15.1-20.9-30.4-30.3-46.2c-5.5-9.2-11.7-18-17.6-26.9c-3.6-2.1-3-5.6-3-8.9C0.6,87.4,0.4,81.6,0,75.8
			c-0.1-1.9,0.4-3.3,1.9-4.4c1.4-1,2.6-0.2,4,0.5C11.9,75,18,78,24.1,81c1.6,0.8,2.5,2,3.3,3.7c3.8,8.8,7.6,17.5,11.6,26.2
			c4,8.8,8.1,17.6,12.4,26.3c4.2,8.4,8.6,16.7,12.9,25C65,163.5,65.8,164.8,66.7,166.5z M139.8,225.6c0.5-0.4,1.2-0.9,1.7-1.4
			c0.6-0.7,1.2-1.4,1.7-2.1c5-6.7,5.8-14.4,5.7-22.4c-0.1-9.4-0.3-18.8-0.3-28.2c0-8.5,0-16.9,0.1-25.4c0.1-11,0.4-21.9,0.5-32.9
			c0.2-12.3,0.7-24.6,0.3-36.9c-0.2-5.9,2.4-9.8,6.3-13.2c8.5-7.4,17.3-14.3,25.8-21.7c7-6.2,13.7-12.9,20.5-19.4
			c2.8-2.7,4.2-6.3,4.8-10.1c0.5-3.5-0.9-5.8-4.1-7.1c-4.2-1.7-8.3-1.1-11.9,1.5c-7.6,5.5-15,11.3-22.5,16.9
			c-6.9,5.2-13.8,10.3-20.7,15.4c-4.7,3.5-9.6,3.5-14.6,0.5c-2.5-1.5-4.9-2.9-7.4-4.4c-7.9-4.7-15.9-9.4-23.8-14.3
			c-6.4-3.9-12.8-7.5-20.1-9.3c-1.1-0.3-2.4-0.2-3.4,0.3c-1.9,0.8-3.7,1.9-5.5,3c-1.8,1.2-2.4,2.8-2.1,5.1c0.4,2.8,1.9,4.9,3.8,6.7
			c2.6,2.5,5.4,5,8.3,7.1c7.9,5.8,15.7,11.6,23.9,17c6.8,4.5,13.4,9,19.3,14.6c1.4,1.4,2.7,3.4,3.1,5.3c2.1,11,3,22.1,2.1,33.4
			c-0.5,6.6-0.7,13.3-0.9,20c-0.1,4.2,0,8.3,0,12.5c-0.1,10.1-0.2,20.3-0.3,30.4c0,8.1-0.1,16.1,0,24.2c0,6.9-0.2,13.8,0.4,20.7
			C130.8,217.6,132.4,223.6,139.8,225.6z M218.9,180.6c-0.3,3.9-0.6,7.4-0.9,10.7c1.1,1,1.9,1.7,2.9,2.6c-2.7,2.5-5.6,1.8-8.2,1
			c-1.8-0.5-2.4-2.2-2.1-4.3c1.3,0.2,2.3,0.4,3.5,0.6c0.3-3.7,0.5-7.1,0.7-10.1c-3.3-1-6.1-1.9-9.1-2.8c-3.8,5-7.9,10.3-12.2,15.9
			c2.1,0.7,3.8,1.5,5.7,1.8c5,0.8,10.1,1.7,15.1,2c4.7,0.3,9.4,0.3,14.1-0.2c10.5-1.2,19.9-5.3,28-12.2c7.2-6.1,12.1-13.6,14.2-22.9
			c2-9.1,1.5-18.2-0.4-27.1c-1.7-8.1-5.1-15.6-9.6-22.6c-0.4-0.7-1.1-1.3-1.8-2.2c-4.5,5.9-8.8,11.4-13.1,17.1
			c1.6,2.5,3,4.8,4.5,7.3c1.9-1,3.9-1.4,5-2.7c1-1.2,1.1-3.2,1.7-5.5c1.1,1.2,2.1,1.9,2.5,2.8c1.4,3.2,1.7,6.6,1.2,10.1
			c-2.8,0-2.4-2.7-3.8-3.8c-1.6,1-3.3,2-4.5,2.8c-0.3,5.2-0.5,10-0.8,14.9c2.1,0,4.3,0,6.5,0c0.6-1.4,1.2-2.7,1.8-4.1
			c1.6,0.9,2.7,1.9,2.4,3.6c-0.3,2.2-0.6,4.4-1.1,6.5c-0.2,1-0.9,2-1.4,2.9c-0.3,0-0.6,0-0.9,0c-0.6-1.6-1.3-3.2-1.9-4.7
			c-1.7,0-3.5,0.1-5.3,0c-1.7-0.2-2.7,0.4-3.6,1.8c-2,3.2-4.1,6.2-6.3,9.6c1.7,1.6,3.5,3.2,5.2,4.7c2.1-1.4,3.7-2.5,5.4-3.7
			c0.7,1,1.2,1.7,2,2.8c-2.8,2.7-5.4,5.3-8.1,7.7c-0.6,0.6-2.2,1-2.7,0.6c-0.6-0.5-0.8-1.8-0.8-2.7c0.1-0.8,0.8-1.5,1.2-2.4
			c-1.8-1.6-3.5-3-5.2-4.5c-2.7,1.8-5.8,3.7-9.1,5.8c0.7,2.5,1.4,5.1,2,7.4c2.1,0.3,3.7,0.6,5.7,0.9c-0.5,1-0.6,1.9-1,2.1
			c-2.4,1.1-4.8,2.1-7.3,2.9c-1.5,0.4-3.1-1.5-2.4-3c0.3-0.7,1.3-1.1,1.9-1.7c-0.9-2.5-1.7-4.8-2.5-7.2
			C223.7,179.5,221.4,180,218.9,180.6z M186.1,145.3c1.5-5.9,3-11.7,7.4-16.2c-1.7-1.6-3.2-3-4.9-4.6c-1.6,2.5-3.2,4.9-4.7,7.3
			c-2.1-1.4-1.9-2.8-1.2-4.4c1.6-3.3,3.2-6.6,3.5-10.3c0-0.4,0.5-0.8,0.8-1.1c1.8,0.7,2.7,1.7,3,3.5c0.1,1,0.9,2.1,1.6,2.9
			c1.3,1.4,2.8,2.5,4.3,3.8c2.1-1.7,4-3.3,5.7-4.7c-0.9-2.8-1.6-5.1-2.4-7.6c-1.5,1-2.7,1.8-4,2.7c-2.4-2.4-2.8-3.1-1.5-4.2
			c3.8-3.3,7.8-6.4,13-8.1c0.5,1.3,0.9,2.3,1.4,3.4c-2,1.4-3.8,2.7-5.8,4c0.8,2.8,1.5,5.5,2.2,8c3.4-1.2,6.4-2.2,9.5-3.3
			c0.2-2,0.4-3.9,0.6-5.9c0-0.1-0.1-0.2-0.3-0.5c-1.1,0.2-2.2,0.4-3.2,0.6c-2.2-3.3-2.2-3.6,1.1-4.7c2.5-0.9,4.9-1.8,7.4-2.6
			c3.2-0.9,4-0.1,3.8,3.5c-1.7,0.6-3.4,1.2-5.1,1.7c-0.2,2.4-0.4,4.5-0.6,7.2c3.8-1.5,7,0.1,10.7,1.4c5-5.8,10.1-11.6,15.2-17.4
			c-2-2-3.9-2.8-6.3-2.9c-1.4-0.1-2.8-0.6-4.1-1.1c-5.1-2-10.4-2.4-15.8-1.6c-4,0.6-8,1.1-11.8,2.2c-4.2,1.2-8.4,2.9-12.4,4.8
			c-5.7,2.7-9.7,7.5-14,11.9c-7.9,8.3-11.7,18.5-12.1,29.8c-0.3,9.1,0.7,17.9,3.5,26.6c1.5,4.5,3.8,8.4,6.8,11.9
			c5.2-6.4,10.2-12.7,15.3-19c-1-0.9-1.7-1.6-2.6-2.4c-3.4,2.5-6.6,4.9-10.2,7.6c1.5,0.6,2.5,1,3.7,1.5c-0.7,1.2-1.2,2.2-1.6,3.1
			c-5.1-1.7-7.6-7.6-5.8-13.2c2.5-0.1,2.1,2.4,3.1,3.8c2.7-2,5.2-3.9,7.7-5.8c0.4-0.3,0.9-0.6,1.4-1c-0.6-2.1-1.2-3.9-1.7-5.8
			c-1.7,0.2-3.1,0.3-4.8,0.5c0.2,2.4,0.4,4.4,0.5,6.8c-4.3-2-5.7-10.5-2.7-15.8c1.1,1.6,2.1,3,3.2,4.5
			C184.1,145.9,185.1,145.6,186.1,145.3z M4.3,74.6c0,7,0,13.5,0,19.9c0,2.1,0.8,3.7,2,5.4c5.3,7.4,11,14.7,15.7,22.5
			c9.8,16.4,20.1,32.5,31.2,48c0.7,1,1.5,2,2.4,3.1c2.6-1.8,4.8-3.3,7.2-5c-0.5-1.1-0.8-2.1-1.3-3c-8-16.2-16.1-32.3-24-48.5
			c-4.4-9.1-8.5-18.2-12.5-27.5c-1.4-3.2-2.6-6.3-6.4-7.3c-1.1-0.3-2-1.3-3-1.8C11.9,78.5,8.2,76.6,4.3,74.6z M243.1,130.5
			c-4.3,5.1-8.4,9.9-12.3,14.7c-4,4.9-8.2,9.8-11.8,15c-3.5,5-7.6,9.6-10.7,15.5c6.4,1.8,11.8,0.8,17.1-1.3c0.5-2-1.3-4,1.3-5.7
			c1,1.3,1.9,2.6,3,4.1c2.1-1.4,4.1-2.9,6.3-4.4c-1.3-1.6-2.4-2.7-3.2-4.1c-0.6-1-1.9-2.4-0.4-3.5c1.4-1,2.3,0.4,3.1,1.4
			c1,1.2,1.9,2.4,2.9,3.6c8.5-8.7,11.2-16.5,9-24.8c-2.2,0.7-4.4,1.4-6.9,2.2c-0.5-1.2-1-2.2-1.5-3.4c2.8-1.1,5.3-2,8.1-3.1
			C245.7,134.6,244.5,132.7,243.1,130.5z M194.9,160.1c3.4-4.9,6.5-9.5,9.9-14c3.4-4.5,7.2-8.6,10.5-13.2c3.3-4.4,7.7-7.9,10.6-13.5
			c-3.1,0-5.6,0-8.1,0c0,3.1,0,3.1-1.9,4.9c-0.8-1-1.5-2.1-2.3-3.1c-5.5,0.7-9.7,3.8-13.8,7.3c0.6,2.4,4.2,3.6,1.7,7
			c-1.6-1.3-3.1-2.5-4.7-3.7c-6.1,7.7-7.2,12.1-4.7,21.7c1.4-1.2,2.6-2.4,3.8-3.5c0.9-0.8,1.9-1.6,3-0.4c0.9,1,0.9,2.1-0.1,3.1
			c-1.4,1.4-2.7,2.8-4.2,4.1C193.6,157.8,193.3,158.6,194.9,160.1z M82.6,162.2c-6.2,3.7-12.3,7-18.1,10.8
			c-5.8,3.8-12.4,6.6-17.6,11.3c1.4,1.8,2.6,3.2,3.6,4.5c11.6-7,23-13.9,34.4-20.8C84.2,166.3,83.5,164.4,82.6,162.2z M84.5,199.9
			c-2.2-3.6-4.1-6.7-6.3-10.3c-2.2,1.4-4.1,2.6-6.2,4c2.3,3.4,4.3,6.3,6.3,9.3C80.4,201.8,82.2,201,84.5,199.9z"/>
		<path d="M135.8,64c-3.3-1.1-4.4-2.2-4.1-4.4c0.2-1.1,1-2.6,1.9-2.9c1.7-0.6,2.8,0.9,3.7,2.2C138.5,60.7,138.5,60.7,135.8,64z"/>
		<path d="M145.8,63c-1.4,0.1-2.9-1.6-3.1-3.4c-0.2-1.9,0.8-3,2.6-3.1c1.5,0,3.2,1.3,3.2,2.7C148.6,60.5,146.8,62.9,145.8,63z"/>
		<path class="st4" d="M243.1,130.5c-4.3,5.1-8.4,9.9-12.3,14.7c-4,4.9-8.2,9.8-11.8,15c-3.5,5-7.6,9.6-10.7,15.5
			c6.4,1.8,11.8,0.8,17.1-1.3c0.5-2-1.3-4,1.3-5.7c1,1.3,1.9,2.6,3,4.1c2.1-1.4,4.1-2.9,6.3-4.4c-1.3-1.6-2.4-2.7-3.2-4.1
			c-0.6-1-1.9-2.4-0.4-3.5c1.4-1,2.3,0.4,3.1,1.4c1,1.2,1.9,2.4,2.9,3.6c8.5-8.7,11.2-16.5,9-24.8c-2.2,0.7-4.4,1.4-6.9,2.2
			c-0.5-1.2-1-2.2-1.5-3.4c2.8-1.1,5.3-2,8.1-3.1C245.7,134.6,244.5,132.7,243.1,130.5z"/>
		<path class="st4" d="M194.9,160.1c3.4-4.9,6.5-9.5,9.9-14c3.4-4.5,7.2-8.6,10.5-13.2c3.3-4.4,7.7-7.9,10.6-13.5
			c-3.1,0-5.6,0-8.1,0c0,3.1,0,3.1-1.9,4.9c-0.8-1-1.5-2.1-2.3-3.1c-5.5,0.7-9.7,3.8-13.8,7.3c0.6,2.4,4.2,3.6,1.7,7
			c-1.6-1.3-3.1-2.5-4.7-3.7c-6.1,7.7-7.2,12.1-4.7,21.7c1.4-1.2,2.6-2.4,3.8-3.5c0.9-0.8,1.9-1.6,3-0.4c0.9,1,0.9,2.1-0.1,3.1
			c-1.4,1.4-2.7,2.8-4.2,4.1C193.6,157.8,193.3,158.6,194.9,160.1z"/>
	</g>
</g>
</svg>
