<?xml version="1.0" encoding="utf-8"?>
<!-- Generator: Adobe Illustrator 19.1.0, SVG Export Plug-In . SVG Version: 6.00 Build 0)  -->
<svg version="1.1" id="Calque_1" xmlns="http://www.w3.org/2000/svg" xmlns:xlink="http://www.w3.org/1999/xlink" x="0px" y="0px"
	 viewBox="0 0 190.1 139.5" style="enable-background:new 0 0 190.1 139.5;" xml:space="preserve">
<style type="text/css">
	.st0{fill:#FFFFFF;}
	.st1{fill:#41AB87;}
	.st2{fill:#E2EFE8;}
	.st3{fill:#010202;}
	.st4{fill:#DB5556;}
	.st5{fill:#6FA4C3;}
	.st6{fill:none;stroke:#DB5556;stroke-width:7;stroke-miterlimit:10;}
	.st7{fill:none;}
	.st8{fill:#FFFFFF;stroke:#DB5556;stroke-width:3;stroke-miterlimit:10;}
	.st9{fill:none;stroke:#DB5556;stroke-width:3;stroke-miterlimit:10;}
	.st10{fill:#C1C0C0;}
	.st11{fill:none;stroke:#C1C0C0;stroke-width:3;stroke-miterlimit:10;}
	.st12{fill:#FFFCFA;}
	.st13{fill:#F5D1CA;}
</style>
<g>
	<path class="st1" d="M99,55.5c0.2-0.3,0.5-0.7,0.7-1c-0.6-0.6-1.2-1.5-1.9-1.6c-2.5-0.5-5-0.9-7.5-0.9c-5.8-0.1-11.7,0-17.5,0.1
		c-2.1,0-4.2,0.1-6.3,0.4C60,53.6,53.5,54.6,47,56c-13.4,2.9-26.2,7.3-37.5,15.2c-0.8,0.6-1.5,1.3-2.3,2c10.9,7.4,21.5,14.5,33.8,19
		c16.9-10,35.3-15.6,55.7-15.7c0.1-2.3,0.3-4.4,0.4-6.4c-4.5-1.9-5.4-3.5-4.4-7.8c0.5-2,1.2-4,1.9-6c0.1-0.4,0.6-0.7,0.9-1.1
		C96.7,55.4,97.9,55.5,99,55.5z"/>
	<path class="st1" d="M70.1,86.5c-1,0.1-2.1,0-3,0.4c-5.3,2.5-10.5,5-15.7,7.7c-2,1-3.7,2.6-5.7,3.6c-2.9,1.4-5.7,3.5-9.4,0.8
		c-6.9-5.2-14.2-9.9-21.4-14.7c-0.8-0.6-1.7-1-2.5-1.5C7.1,87.6,4.3,94.1,5,100.3c3.6,1.2,7.5,2.3,11.3,3.6c2.4,0.8,4.7,1.8,7.1,2.6
		c5.6,1.8,10.8,5,17,5.1C48,100.4,59.4,93.9,70.1,86.5z"/>
	<path class="st1" d="M49.2,131.4c4.2-9.6,8-18.4,12-27.5c-5.8,4.6-11.5,9.1-17.4,13.8c-0.5-0.1-2-0.9-2.8-0.5
		c-2.5,1.4-4.7,0.4-6.9-0.3c-7-2-14-4-21.2-6.1c-0.6,3-1.2,5.8-1.6,8.6c-0.2,1.6,0.2,2.9,2.1,3.4c6.3,1.6,12.6,3.5,19,5
		C37.8,129.2,43.4,130.2,49.2,131.4z"/>
	<path class="st1" d="M185.8,70.7c0.1-4.2-2.9-6.2-7.3-4.6c-9.8,3.5-17.2,9.9-22.7,18.7c-0.7,1.1-1.2,2.4-1.7,3.6
		c-0.9,2.1-0.1,3.9,1.6,5.1c1.6,1,3.2,1.8,5.5,1.1c11-3.7,18.7-10.9,23.8-21.1C185.4,72.6,185.6,71.5,185.8,70.7z"/>
	<path d="M140.7,26.8c0.6,1,0.9,2.1,1.5,2.3c1.4,0.5,2.9,0.5,4.4,0.8c3.1,0.6,4.3,1.7,4,4.7c-0.2,2.5-1.1,4.9-1.7,7.4
		c-2.6,0-4.7,0-7.2,0c0.1,1.2-0.2,2.7,0.2,2.9c4.1,2.5,2.7,6.2,2.3,9.7c-0.3,2.3-0.6,4.7-0.8,7c-0.3,3.6-0.6,7.1-0.8,10.7
		c-0.1,0.7,0.1,1.5,0.1,2.2c1.5,1.1,2.5,0.7,3.5-0.6c4.7-6.1,10.6-10.9,16.8-15.5c8.6-6.3,14.9-6.2,23.1,0.6
		c2.2,1.8,3.5,4.3,3.8,7.3c0.9,9.6-3.7,16.5-10.3,22.6c-4.6,4.3-9.5,8.2-15.5,10.5c-4.1,1.6-7.5,0.8-10.8-1.9
		c-1.2-1-2.7-1.7-3.9-2.8c-2.2-1.9-4.2-4-5.9-5.7c0,1,0,2.7,0,4.5c0,2.2-1.1,3.3-3.3,3.4c-11.2,0.6-22.3,1.9-33.5,0.4
		c-2.6-0.3-5.3-0.1-8-0.3c-3.1-0.2-3.3-0.5-3.8-3.7c-0.3-2.2-0.7-4.4-1.1-7.3c-4.4,2.9-8.8,5.4-12.8,8.3
		c-7.5,5.6-13.6,12.5-17.5,21.2c-1.8,4.1-3.1,8.4-4.7,12.6c-0.2,0.6-0.3,1.2-0.5,1.7c-1.4,4.1-3.1,7.9-7.6,9.5
		c-0.2-0.1-0.4-0.1-0.5-0.2c-2.3-3.6-6-3.7-9.6-4.3c-2.1-0.3-4.1-0.8-6.2-1.2c-5-0.8-10-1.5-15-2.5c-3.2-0.7-6.4-1.7-9.4-2.8
		c-2.8-1-3.7-2.7-3.3-6c0.6-4.4,1.3-8.9,1.9-13.3c-1.7-1-3.3-1.7-4.7-2.8c-3.4-2.6-4.8-6-3.7-10.3c1.5-5.8,3.4-11.4,7.5-16.3
		c-1.7-1.1-3.2-2.1-4.5-3.2c-3.5-2.8-3.5-5.3,0.4-7.6c6.4-3.8,12.7-8.1,19.4-11.1c9.4-4.2,19.4-7,29.7-8.3
		c6.2-0.8,12.4-2.1,18.6-2.8c4.6-0.5,9.2-0.5,13.8-0.6c2.5-0.1,5.1,0,8.2,0c-0.2-3-0.4-5.7-0.6-8.9c3.2-0.8,6.5-1.5,10-2.3
		c0.3-2.7-2-2.3-3.5-2.1c-2.8,0.4-4.3-1.3-4.2-3.4c0.1-2.9,1.1-5.7,2-8.5c0.1-0.5,1.5-0.7,2.4-0.8c2.1-0.2,4.1-0.2,6.4-0.3
		c0-1.6,0-3,0-4.5c-2-0.8-4.1-1.6-6.5-2.6c0-4.1,0-8.4,0-12.9c16.3,0,32.5,0,48.8,0c1,1.6,1.4,3.2,0.7,5.3c-0.7,2-0.7,4.3-1,7.1
		c2.3,0.2,4,0.4,5.7,0.4c2.2,0,3.5,0.9,3.5,3.1c0,2.5,0.3,5-0.1,7.5c-0.3,2.3-1.9,3.5-4.5,3.3C148.8,26.7,145.1,26.8,140.7,26.8z
		 M99,55.5c0.2-0.3,0.5-0.7,0.7-1c-0.6-0.6-1.2-1.5-1.9-1.6c-2.5-0.5-5-0.9-7.5-0.9c-5.8-0.1-11.7,0-17.5,0.1
		c-2.1,0-4.2,0.1-6.3,0.4C60,53.6,53.5,54.6,47,56c-13.4,2.9-26.2,7.3-37.5,15.2c-0.8,0.6-1.5,1.3-2.3,2c10.9,7.4,21.5,14.5,33.8,19
		c16.9-10,35.3-15.6,55.7-15.7c0.1-2.3,0.3-4.4,0.4-6.4c-4.5-1.9-5.4-3.5-4.4-7.8c0.5-2,1.2-4,1.9-6c0.1-0.4,0.6-0.7,0.9-1.1
		C96.7,55.4,97.9,55.5,99,55.5z M70.1,86.5c-1,0.1-2.1,0-3,0.4c-5.3,2.5-10.5,5-15.7,7.7c-2,1-3.7,2.6-5.7,3.6
		c-2.9,1.4-5.7,3.5-9.4,0.8c-6.9-5.2-14.2-9.9-21.4-14.7c-0.8-0.6-1.7-1-2.5-1.5C7.1,87.6,4.3,94.1,5,100.3
		c3.6,1.2,7.5,2.3,11.3,3.6c2.4,0.8,4.7,1.8,7.1,2.6c5.6,1.8,10.8,5,17,5.1C48,100.4,59.4,93.9,70.1,86.5z M49.2,131.4
		c4.2-9.6,8-18.4,12-27.5c-5.8,4.6-11.5,9.1-17.4,13.8c-0.5-0.1-2-0.9-2.8-0.5c-2.5,1.4-4.7,0.4-6.9-0.3c-7-2-14-4-21.2-6.1
		c-0.6,3-1.2,5.8-1.6,8.6c-0.2,1.6,0.2,2.9,2.1,3.4c6.3,1.6,12.6,3.5,19,5C37.8,129.2,43.4,130.2,49.2,131.4z M185.8,70.7
		c0.1-4.2-2.9-6.2-7.3-4.6c-9.8,3.5-17.2,9.9-22.7,18.7c-0.7,1.1-1.2,2.4-1.7,3.6c-0.9,2.1-0.1,3.9,1.6,5.1c1.6,1,3.2,1.8,5.5,1.1
		c11-3.7,18.7-10.9,23.8-21.1C185.4,72.6,185.6,71.5,185.8,70.7z M131,21.8c-0.1-2.5-0.2-4.1-0.3-5.9c-1.8,0.1-3.3,0.2-5.2,0.4
		c-0.3,1.7-0.6,3.4-1,5.2C127,21.5,128.8,21.6,131,21.8z M131.2,66.1c0-2,0-3.6,0-5.5c-1.8,0-3.5,0-5.4,0c0,1.7,0,3.1,0,4.8
		C127.6,65.7,129.3,65.9,131.2,66.1z M123.7,75.9c0-2.3,0-3.7,0-5.3c-1.8,0-3.5,0-5.4,0c0,1.6,0,3,0,4.6
		C120,75.4,121.6,75.6,123.7,75.9z M131.8,92.9c3.2-0.4,5.7-0.7,8.7-1c-0.4-1.1-0.6-2.5-1-2.6c-2.5-0.3-5.1-0.3-7.7-0.5
		C131.8,90.5,131.8,91.5,131.8,92.9z M132,5c-4.1-0.2-4.4,0.4-3.1,6.1c1.2-0.1,2.4-0.1,4.1-0.2C132.6,8.6,132.3,6.8,132,5z
		 M114.6,42.4c0,1.1-0.1,2.2-0.2,3.5c2.3,0,4.3,0,6.3,0C120.8,42.4,120.8,42.4,114.6,42.4z M126.4,55.7c0.1-1.8,0.2-3.3,0.3-5.1
		c-1.7,0.2-3,0.3-4.4,0.4c0,1.8,0,3.3,0,5C123.8,56,124.9,55.9,126.4,55.7z M117.4,15.3c-0.3,2.1-0.6,3.8-0.9,5.6c1.8,0,3.1,0,4.6,0
		c0.1-1.8,0.2-3.4,0.3-5.1C120,15.6,119,15.5,117.4,15.3z M108.9,75.5c2.1-0.3,3.5-0.4,5-0.6c0-1.8,0-3.2,0-4.8
		c-1.4-0.1-2.7-0.3-4.2-0.4C109.4,71.7,109.2,73.3,108.9,75.5z M103.7,89c0.1,1.4,0.2,2.5,0.3,3.8c2.3,0,4.2,0,6.5,0
		c-0.4-1.4-0.8-2.5-1.2-3.8C107.5,89,105.9,89,103.7,89z M135.5,83.5c5,0.9,6.3,0.3,6.9-3.2C136.2,79.8,136.2,79.8,135.5,83.5z
		 M121.4,65.2c0.2-1.7,0.4-3.1,0.6-5c-2.1,0.2-3.6,0.4-5.3,0.6c0,1.7,0,3,0,4.3C118.3,65.2,119.6,65.2,121.4,65.2z M104.8,69.5
		c-1.2,0-2.4,0-3.6,0c0,2.1,0,3.8,0,5.9c1.8-0.1,3.3-0.2,4.9-0.4C105.6,73,105.2,71.4,104.8,69.5z M119.1,10.7
		c-0.2-2.1-0.4-3.8-0.6-6c-1.2-0.1-2.4-0.2-4-0.3c0.2,2.2,0.3,3.9,0.4,5.5C116.4,10.3,117.6,10.5,119.1,10.7z M134.6,16.2
		c0,2.1,0,3.8,0,5.8c1.4-0.2,2.5-0.4,3.6-0.5c0-2,0-3.8,0-5.9C136.8,15.8,135.8,16,134.6,16.2z M141.8,21.9c1.7,0,3.2,0,4.7,0
		c1.2-4.4,0.9-4.7-3.8-4.5C142.4,18.8,142.1,20.2,141.8,21.9z M135.2,61.1c0.1,1.7,0.2,3.2,0.3,4.8c4.9-0.2,4.9-0.2,3.9-4.8
		C138.2,61.1,136.9,61.1,135.2,61.1z M130.9,84.1c0.1-1.1,0.2-1.8,0.2-2.5c0-0.4-0.1-0.8-0.2-1.2c-5.2-0.8-5.5-0.6-5.3,4
		C127.2,84.3,128.8,84.2,130.9,84.1z M129.4,29.7c-0.2-3.6-0.5-3.9-3.1-3.6c-2.5,0.2-2.9,1.4-1.9,3.6
		C126,29.7,127.5,29.7,129.4,29.7z M138.8,5.2c-1.1,0-1.9,0-2.8,0c0,1.9,0,3.7,0,5.7c1.4,0.2,2.6,0.5,4,0.7
		C139.6,9.4,139.3,7.5,138.8,5.2z M139.2,70.9c-1.9-0.5-3.5-0.5-4.4,1.2c-0.4,0.8,0.1,1.9,0.2,3.2c1.5-0.1,2.8-0.2,4.2-0.3
		C139.2,73.4,139.2,72.2,139.2,70.9z M136.8,56.2c1.4-0.2,2.9,0,3.2-0.5c0.7-1.2,1.1-2.7,1.2-4.1c0.1-0.6-0.7-1.4-1.4-1.8
		c-0.3-0.1-1.4,0.6-1.6,1.1C137.7,52.5,137.4,54.1,136.8,56.2z M118.6,88.8c-1.9,0.1-3.5,0.3-5.3,0.4c0.3,1.7,0.5,2.6,0.7,3.8
		c1.7,0,3.1,0,4.6,0C118.6,91.7,118.6,90.7,118.6,88.8z M122.8,89.4c0,1.1,0,2.1,0,3.3c1.7,0,3.1,0,4.5,0
		C127.6,88.9,127.3,88.8,122.8,89.4z M138,45.4c-0.1-4.2-0.6-4.5-5-2.9c0.2,0.9,0.4,1.9,0.7,2.9C135.1,45.4,136.4,45.4,138,45.4z
		 M113.6,15.1c-4-0.2-4-0.1-3.3,5c0.8,0.2,1.6,0.5,2.7,0.8C113.3,18.9,113.5,17.2,113.6,15.1z M108.4,29.4c4.8,0.6,4.8,0.6,4.7-3.1
		c-1.4-0.1-2.8-0.1-4.5-0.2C108.6,27.1,108.5,28.1,108.4,29.4z M111.1,50.6c-3.5-0.8-3,1.4-2.9,3.1c0.1,1.9,0.6,3.2,3.1,2
		C111.3,54.1,111.2,52.5,111.1,50.6z M113.7,80.1c-1.7,0-3,0-4.4,0c0,1.1,0,2.1,0,3.2c1.5,0.2,2.8,0.3,4,0.5c0.2-0.6,0.5-1,0.5-1.5
		C113.9,81.8,113.8,81.2,113.7,80.1z M114.6,55.8c3.1-0.4,3.9-1.2,3.6-3.5c-0.1-0.6-0.6-1.5-1.1-1.6c-0.5-0.1-1.5,0.4-1.7,0.8
		C114.9,52.8,114.9,54.1,114.6,55.8z M106.1,10.1c-0.2-2.1-0.4-3.9-0.6-5.9c-3,0.5-2.7,2.3-2.7,3.9C102.7,9.9,104,10.3,106.1,10.1z
		 M129.1,45.5c0-1.2,0-2.3,0-3.4c-4,0.2-4,0.2-3.9,3.6c0.4,0.1,0.8,0.3,1.2,0.3C127.3,45.9,128.2,45.6,129.1,45.5z M122.7,5.3
		c-0.6,5.7-0.6,5.7,2.9,5.2c-0.3-1.7-0.5-3.5-0.8-5.4C124,5.2,123.3,5.2,122.7,5.3z M123,37.6c0.1-0.8,0.3-1.3,0.2-1.7
		c-0.4-2.2-2.2-1.6-3.5-1.6c-0.5,0-1.5,1.1-1.4,1.7c0,1.7,1.5,1.4,2.7,1.5C121.5,37.5,122.1,37.5,123,37.6z M98.9,27.7
		c5.1,1.2,5.3,1.1,5-2.6C101.7,25.1,99.4,24.5,98.9,27.7z M133.5,51.1c-0.3-0.3-0.5-0.6-0.8-0.9c-0.6,0.5-1.6,0.9-1.9,1.6
		c-0.4,1.3-0.4,2.8-0.7,4.5c1.2-0.3,2-0.4,2.8-0.6C133.2,54,133.4,52.5,133.5,51.1z M117.8,84.2c1.4-0.1,2.4-0.1,3.5-0.2
		c0-1.4,0-2.5,0-4c-1.3,0.1-2.4,0.1-3.5,0.2C117.8,81.6,117.8,82.6,117.8,84.2z M150.4,22.3c1.5-0.4,2.8-0.5,3-0.9
		c0.4-1.3,0.3-2.7,0.5-4.2C150.1,17.4,150.9,19.7,150.4,22.3z M105.6,56.1c-1.1-1.9,0.4-4.3-2-5.9C102.2,55.1,102.4,55.7,105.6,56.1
		z M110.9,10.3c0-2,1.5-4.4-1.7-6.2C109.2,6.7,108.5,8.8,110.9,10.3z M143.5,34.5c-0.5,3.4-0.5,3.4,3.6,3.3
		C148,34.8,145.7,34.9,143.5,34.5z M143.1,5.5c-0.1,2-1.2,4.2,1,5.7C144,9.2,145.6,7.1,143.1,5.5z M168.1,64.8
		c-2-0.2-3.2-0.7-4.1-0.4c-1,0.3-1.7,1.3-2.8,2.3c1.1,0.8,1.9,1.4,2.8,2C165.2,67.5,166.2,66.6,168.1,64.8z M134.7,36.9
		c3.3,0.6,3.3,0.6,3.9-2.1C135.3,34.2,135.3,34.2,134.7,36.9z M128.1,70.1c0.2,2.3-1.5,4.6,2.4,5.5
		C129.9,73.6,132.6,71.2,128.1,70.1z M156.7,74.5c3.4-3.2,3.4-3.2,1.4-5.3C156.9,70.7,154,71.5,156.7,74.5z M96.2,64
		c0.6,0.2,0.9,0.3,1.4,0.4c1.6,0.2,2.1-0.8,2-2.1c-0.1-0.7-0.8-1.3-1.2-1.9c-0.6,0.7-1.4,1.3-1.9,2C96.3,62.7,96.3,63.4,96.2,64z
		 M107.5,41.5c-0.2,1.4-0.4,2.6-0.6,3.9c1.4,0,2.4,0,3.3,0C111.1,43.1,110.4,41.9,107.5,41.5z M109.8,65.2c3.6-0.9,2.6-2.7,2.2-4.7
		C109,61.1,110.2,63.1,109.8,65.2z M103,64.3c1.3,0.7,2.6,1.3,2.9-0.8c0.1-0.7-0.6-2.3-1-2.3C102.9,61.2,103,62.8,103,64.3z
		 M133.6,26.6c0.1,1.2,0.1,2.1,0.2,3.3c1.9-0.3,3.5-0.3,3.8-2.7C136.3,27,135.1,26.8,133.6,26.6z M127.4,36.8
		c1.1,0.2,2.5,1.3,2.9-0.8c0.1-0.4-0.7-1.4-1.2-1.4C127.6,34.2,127.1,35.2,127.4,36.8z M120.8,28c-1-0.8-1.6-1.3-2.1-1.8
		c-0.4,0.5-1.1,1-1.1,1.5c0,0.5,0.6,1.6,0.9,1.5C119.1,29.1,119.7,28.6,120.8,28z M148.1,88.5c1.5-3.5,1.5-3.5,0-5
		C148.1,85.3,148.1,86.9,148.1,88.5z M114.6,36.2c-1-0.8-1.6-1.2-2.2-1.7c-0.4,0.5-1.1,1-1.1,1.6c0,0.4,0.8,1.1,1.3,1.2
		C113,37.3,113.6,36.7,114.6,36.2z M103,45.8c0-2.1,0-3.4,0-5.2C101.2,43.9,101.2,43.9,103,45.8z M172.7,62.5
		c-0.9-0.8-1.8-1.6-2.8-2.4c-0.3,0.3-0.6,0.7-0.9,1C169.4,62.4,170,63.5,172.7,62.5z M99.7,89c-0.5,0.1-1,0.2-1.4,0.3
		c0.2,1,0.3,2,0.7,2.9c0.1,0.2,1,0.1,2,0.2C100.5,90.9,100.1,89.9,99.7,89z M152.7,74.5c-0.7,0.8-1.1,1.3-1.8,2.1
		c1.1,0.5,1.9,0.9,3.4,1.5C153.6,76.5,153.2,75.7,152.7,74.5z M97.8,44.2c0-1.6,0-2.6,0-4.2C96,41.6,96.7,42.6,97.8,44.2z
		 M106.7,33.6c-0.1,1.2-0.2,1.6-0.2,2c0,0.5,0.2,1,0.2,1.6c0.4-0.3,0.8-0.7,1.1-1C107.6,35.5,107.4,34.9,106.7,33.6z M103.6,80.1
		c-0.1,0.1-0.2,0.3-0.3,0.4c0.5,0.4,1,0.9,1.5,1.3c0.1-0.2,0.3-0.3,0.4-0.5C104.6,80.9,104.1,80.5,103.6,80.1z"/>
	<g>
		<path d="M50.4,73.5c0.6,1.5,0.5,3.1-0.1,4.6c-0.7,1.5-2,2.9-3.9,4.2c-1.3,0.9-2.6,1.5-3.9,1.9c-1.2,0.4-2.4,0.4-3.4,0.3
			c-1.1-0.2-2-0.6-2.9-1.2c-0.9-0.6-1.7-1.5-2.5-2.5L33.1,81c-0.3,0.2-0.5,0.2-0.7,0.2c-0.2,0-0.4-0.2-0.6-0.5l0,0
			c-0.2-0.3-0.2-0.5-0.2-0.7c0-0.2,0.2-0.4,0.4-0.5l0.5-0.3l-0.9-1.4l-0.5,0.3c-0.3,0.2-0.5,0.2-0.7,0.2c-0.2,0-0.4-0.2-0.6-0.5l0,0
			c-0.2-0.3-0.2-0.5-0.2-0.7c0-0.2,0.2-0.4,0.4-0.5l0.5-0.3c-1.4-2.3-1.8-4.4-1.3-6.5c0.5-2.1,2.1-4,4.7-5.8c2-1.3,3.8-2,5.5-2
			c1.7,0,3.2,0.6,4.4,1.8c0.3,0.3,0.6,0.6,0.7,0.7c0.5,0.6,0.4,1.1-0.2,1.5l-1.3,0.9c-0.4,0.2-0.7,0.4-0.9,0.3
			c-0.2,0-0.5-0.2-0.9-0.5c-0.2-0.2-0.4-0.4-0.6-0.5c-1.2-0.8-2.8-0.5-4.7,0.8c-1.4,1-2.3,2-2.6,3c-0.3,1.1-0.1,2.4,0.8,3.9l4.8-3.2
			c0.5-0.3,0.9-0.3,1.2,0.2l0,0c0.3,0.5,0.3,0.9-0.2,1.3l-4.8,3.2l0.9,1.4l4.8-3.2c0.5-0.3,0.9-0.3,1.2,0.2l0,0
			c0.3,0.5,0.3,0.9-0.2,1.3l-4.8,3.2c1.1,1.4,2.2,2.1,3.3,2.3c1.1,0.1,2.4-0.3,3.8-1.3c1.8-1.2,2.6-2.4,2.6-3.8
			c0-0.4-0.1-0.7-0.3-1.1c-0.2-0.4-0.2-0.8-0.2-1c0.1-0.2,0.3-0.5,0.7-0.7l1.2-0.8c0.7-0.5,1.2-0.3,1.6,0.4
			C50.1,72.7,50.3,73.1,50.4,73.5z"/>
	</g>
</g>
</svg>
