<?xml version="1.0" encoding="utf-8"?>
<!-- Generator: Adobe Illustrator 19.1.0, SVG Export Plug-In . SVG Version: 6.00 Build 0)  -->
<svg version="1.1" id="Calque_1" xmlns="http://www.w3.org/2000/svg" xmlns:xlink="http://www.w3.org/1999/xlink" x="0px" y="0px"
	 viewBox="0 0 167 156.1" style="enable-background:new 0 0 167 156.1;" xml:space="preserve">
<style type="text/css">
	.st0{fill:#FFFFFF;}
	.st1{fill:#41AB87;}
	.st2{fill:#E2EFE8;}
	.st3{fill:#010202;}
	.st4{fill:#DB5556;}
	.st5{fill:#6FA4C3;}
	.st6{fill:none;stroke:#DB5556;stroke-width:7;stroke-miterlimit:10;}
	.st7{fill:none;}
	.st8{fill:#FFFFFF;stroke:#DB5556;stroke-width:3;stroke-miterlimit:10;}
	.st9{fill:none;stroke:#DB5556;stroke-width:3;stroke-miterlimit:10;}
	.st10{fill:#C1C0C0;}
	.st11{fill:none;stroke:#C1C0C0;stroke-width:3;stroke-miterlimit:10;}
	.st12{fill:#FFFCFA;}
	.st13{fill:#F5D1CA;}
</style>
<g>
	<path class="st1" d="M65.5,57.9c-0.7-1.3-1.2-2.4-2-3.8c4.2-2.5,3-6.1,2.1-9.5c-0.8-2.8-1.9-5.4-2.7-8.1c-0.7-2.4-2-3.9-4.7-3.8
		c-0.3,0-0.6-0.4-0.9-0.7c0.6-0.9,1.1-1.7,1.5-2.5c-3.1-4.6-8.5-9-13.6-11.1c-0.6,2.2-1.1,4.3-1.8,6.7c-4.4-2.3-1.6-6.2-2.8-9.2
		c-3.6,0.6-7.1,1.1-10.6,1.7c-0.1,3.7,3.1,6.7,0.4,10.6c-1.4-3-2.5-5.5-3.6-7.9c-6.1,4.1-8.4,10.1-10,16.7c1.8,1.6,5,1.7,6,5.3
		c-2.5-0.4-4.7-0.7-6.9-1c-0.1,3.4-0.1,6.4,1.3,9.3c4.8-0.9,4.8-0.9,6.3,2.8c-2,0.5-3.9,1.1-6.2,1.7c1.2,5.9,2.4,11.6,6.1,16.6
		c2-0.7,3.9-1.4,5.9-2c1.9-0.6,3.6-0.3,4.5,2.5c-2.8,1.1-5.6,2.1-8.6,3.2c3,5.3,5,10.7,8.2,15.3c2.7-1.2,3.4-4.5,6.4-4.6
		c1.4,1.3,1.6,2.4,0.3,3.8c-1.5,1.6-3,3.2-4.5,4.9c4.1,5.9,8.1,11.5,13.3,16.4c1.1-1.4,2-2.6,2.9-3.9c1.8-2.4,3.5-4.9,5.4-7.1
		c2-2.3,2.5-2.1,4.5,0.6c-3.3,4.3-6.5,8.6-9.9,13.1c4.3,3.6,8.5,6.5,13.3,9.4c1.5-4.1,2.8-7.8,4.1-11.4c2.7,1.4,3.2,2.2,2.3,4.8
		c-0.9,2.8-2,5.6-3.1,8.6c1.5,0.8,2.8,1.4,4.1,2.1c2-3.7,3.8-7,5.7-10.3c0.5-0.9,1.5-2,2.4-2.1c0.7,0,1.5,1.3,2.2,2
		c-2.2,4.2-5,7.5-6.4,11.8c4.5,1.4,8.5,3.2,13.1,3.4c0.6-3.9-0.9-7.6,0.5-11.6c0.8,0.7,1.6,1,1.7,1.5c0.7,3.5,1.2,7.1,1.7,10.7
		c4.7,1.9,15.8,2.1,19.9,0.2c-0.7-3.4-2.7-6.7-2.1-11c4.3,2.8,3.2,7.9,5.9,10.9c7.4-1.3,11.8-3.3,14.3-6.3c-1.9-3.4-1.9-3.4-1.4-5.5
		c0.3,0,0.6-0.1,0.7,0c1.4,1.3,2.8,2.6,4.4,4c4-3.9,8.9-7.2,9.5-14.1c-2.1,1-3.8,1.8-5.7,2.7c-0.5-1.3-1-2.3-1.6-3.7
		c2.6-1.4,5-2.6,7.4-3.9c-0.7-4.4-3.1-7.4-5.8-9.9c-3.1,2.8-6.1,5.5-9,8.1c0.5,1,1.3,2,1,2.4c-1.1,1.7-2.3,3.4-3.7,4.8
		c-1.6,1.7-3.5,3.1-5.3,4.6c-0.6,0.5-1.2,0.9-1.7,1.4c-2-3.1-2.1-3.8,0.2-5.7c2.4-2,5-3.7,7.4-5.5c-2-3.4-2-3.4,0.4-5.9
		c2-2.1,4.1-4.2,6.8-7c-2.9-0.4-4.9-0.9-6.9-0.7c-1.2,0.1-2.3,1.3-3.8,2.3c-0.6-2.6-2.7-2.2-4.6-2.5c-4.3-0.7-7.3,0.7-9.3,4.6
		c-0.8,1.5-1.8,2.9-2.8,4.3c-0.6,0.8-1.3,1.5-2,2.4c-1.7-1.9-2.1-3.6-0.8-5.5c1.4-2,2.8-4,4.2-6c-5.1-1.2-9.9-2.3-14.9-3.4
		c-1.9,1.5-4.1,3.1-5.1,5.9c-0.2,0.5-1,1-1.4,0.9c-0.5,0-1-0.7-1.3-1.2c-0.9-1.7-0.4-3.3,0.9-4.6c1-1.1,2-2.2,3-3.2
		c-6.1-4.6-10.7-10.1-14.3-16.6c-2.5,1.4-4.6,2.7-7,4c-0.6-1.4-1.1-2.4-1.6-3.6c2.2-1.5,4.2-2.9,6.2-4.3c-1.6-3.7-3.1-7.3-4.7-11
		C67.7,56,66.7,56.8,65.5,57.9z"/>
	<g>
		<path d="M98.9,156c-1.8-0.1-2.4-1.5-2.9-2.8c-1.7-4.6-3.5-9.3-5-14c-0.6-1.9-1.3-2.9-3.2-3.3c-3.2-0.7-6.4-1.4-9.4-2.5
			c-3.9-1.4-7.7-3-12.1-4.8c-0.7,1.8-1.5,4-2.5,6c-1,2-1.2,4.5-3.7,6.5c-1.5-5.7,2-9.9,2.8-14.7c-4.4-3.2-8.8-6.3-13.4-9.6
			c-3.8,3.4-5.5,8.9-10.2,11.6c-1.4-2-0.8-3.2,0.1-4.5c2.3-3.2,4.5-6.4,6.8-9.6c-4.5-5.6-9-11.3-13.6-17.2c-2.2,2.1-4.2,4.7-7.9,5.3
			c0.7-4,3.7-6.1,5.9-9c-2.9-5.5-5.9-11-8.8-16.5c-2.3,0.4-4.5,0.8-7,1.2c-0.2-3.9,3.6-3.3,4.8-5.3c-1.9-5.2-3.8-10.4-5.6-15.3
			c-2.3,0.8-4.6,1.5-6.8,2.3c-0.2-0.2-0.3-0.5-0.5-0.7c0.8-1.2,1.5-2.5,2.5-3.4c1.1-1.1,2.5-1.9,4-3c-0.3-4.2-0.7-8.5-1.1-13.2
			c-3-0.5-6-1.1-9.1-1.6c-2.6-0.4-2.6-0.3-3-3.7c4.2-1.1,8.1,0.4,12.2,1.8c1.5-3.8,2.6-7.9,4.7-11.3c2.1-3.4,5.2-6.2,8.1-9.4
			c-1-4.6-3.1-9.4-2.1-14.6c2.9-0.1,3.4,0.3,3.7,3c0.3,2.6,0.6,5.2,1,7.7c0.1,0.7,0.6,1.4,0.8,1.8c4.9-0.5,9.5-1,14.4-1.5
			c0.8-3,1.7-6.4,2.6-9.9c3.1,1,3.5,1.6,3.1,4c-0.3,1.4-0.7,2.8-1.1,4.2c-0.3,1.3-0.5,2.5-0.9,4c5.1,3.8,10.7,7,14.8,12.6
			c2.1-2.8,4.2-5.4,6.2-8c2.5,1.7,2.9,2.4,1.7,4.5c-0.7,1.4-1.8,2.6-2.8,3.8c-0.9,1.1-1.9,2.1-2.7,3.1c2.2,5.9,4.4,11.6,6.7,17.6
			c1.6-1,3.6-2.1,5.6-3.2c1,0.4,1.1,1.1,0.4,2c-1.5,1.9-3.1,3.8-5,6.1c1.5,3.5,3.1,7.4,4.8,11.5c4.2-0.8,7.3-4.5,12.1-3.7
			c-1.5,4.9-6.8,4.8-9.7,7.9c3.6,6,7.2,12,14.2,15.1c2.4-1.1,3.5-3.7,5.7-5c2-1.2,3-3.3,5.2-4.4c2.2-1,3.8-3.2,5.9-4.6
			c-3.4,5.7-7.2,11.1-12.5,16c5.1,1.7,9.9,2,14.5,2.8c2.4-2.7,4.7-5.2,7.4-8.1c0.3,3.2-0.9,5.4-2.7,8.1c2.2,0.2,4,0.5,5.7,0.5
			c0.7,0,1.7-0.5,1.9-1c1.5-4.4,5.8-6.5,8.3-10.8c1.3,2.7-0.9,4.1-1.4,5.9c-0.5,1.8-1.5,3.5-2.3,5.4c3.1,0.7,5.9,1.4,9.2,2.2
			c3.8-4.2,7.9-8.6,11.9-13.1c-1.7,5.9-4.3,11.2-8.8,15.2c2.5,4.1,5,8.1,7.4,12.1c1.4-0.2,2.8-0.5,4.6-0.8c0,2.5-1,3.9-2.8,4.7
			c-1.3,0.6-1.7,1.5-1.8,2.7c-0.3,6.8-4.5,11.1-9.1,15.3c-0.6,0.5-1,1.1-1.6,1.7c2.2,2.6,4.3,5,6.4,7.4c-0.2,0.2-0.4,0.5-0.6,0.7
			c-3.8-0.6-5.5-4.4-8-6c-5.8,2.3-11.2,4.5-17,6.8c2,4.3,4,8.8,6.1,13.3c-3.1-1-3.8-3.7-5-6c-1.3-2.4-2.6-4.8-3.7-6.9
			c-7.6,0-14.8,0-22.3,0c0.6,4.7,1.8,9.2,3.6,13.7c0.6,1.5,1,3.2,1.5,4.8L98.9,156z M65.5,57.9c-0.7-1.3-1.2-2.4-2-3.8
			c4.2-2.5,3-6.1,2.1-9.5c-0.8-2.8-1.9-5.4-2.7-8.1c-0.7-2.4-2-3.9-4.7-3.8c-0.3,0-0.6-0.4-0.9-0.7c0.6-0.9,1.1-1.7,1.5-2.5
			c-3.1-4.6-8.5-9-13.6-11.1c-0.6,2.2-1.1,4.3-1.8,6.7c-4.4-2.3-1.6-6.2-2.8-9.2c-3.6,0.6-7.1,1.1-10.6,1.7
			c-0.1,3.7,3.1,6.7,0.4,10.6c-1.4-3-2.5-5.5-3.6-7.9c-6.1,4.1-8.4,10.1-10,16.7c1.8,1.6,5,1.7,6,5.3c-2.5-0.4-4.7-0.7-6.9-1
			c-0.1,3.4-0.1,6.4,1.3,9.3c4.8-0.9,4.8-0.9,6.3,2.8c-2,0.5-3.9,1.1-6.2,1.7c1.2,5.9,2.4,11.6,6.1,16.6c2-0.7,3.9-1.4,5.9-2
			c1.9-0.6,3.6-0.3,4.5,2.5c-2.8,1.1-5.6,2.1-8.6,3.2c3,5.3,5,10.7,8.2,15.3c2.7-1.2,3.4-4.5,6.4-4.6c1.4,1.3,1.6,2.4,0.3,3.8
			c-1.5,1.6-3,3.2-4.5,4.9c4.1,5.9,8.1,11.5,13.3,16.4c1.1-1.4,2-2.6,2.9-3.9c1.8-2.4,3.5-4.9,5.4-7.1c2-2.3,2.5-2.1,4.5,0.6
			c-3.3,4.3-6.5,8.6-9.9,13.1c4.3,3.6,8.5,6.5,13.3,9.4c1.5-4.1,2.8-7.8,4.1-11.4c2.7,1.4,3.2,2.2,2.3,4.8c-0.9,2.8-2,5.6-3.1,8.6
			c1.5,0.8,2.8,1.4,4.1,2.1c2-3.7,3.8-7,5.7-10.3c0.5-0.9,1.5-2,2.4-2.1c0.7,0,1.5,1.3,2.2,2c-2.2,4.2-5,7.5-6.4,11.8
			c4.5,1.4,8.5,3.2,13.1,3.4c0.6-3.9-0.9-7.6,0.5-11.6c0.8,0.7,1.6,1,1.7,1.5c0.7,3.5,1.2,7.1,1.7,10.7c4.7,1.9,15.8,2.1,19.9,0.2
			c-0.7-3.4-2.7-6.7-2.1-11c4.3,2.8,3.2,7.9,5.9,10.9c7.4-1.3,11.8-3.3,14.3-6.3c-1.9-3.4-1.9-3.4-1.4-5.5c0.3,0,0.6-0.1,0.7,0
			c1.4,1.3,2.8,2.6,4.4,4c4-3.9,8.9-7.2,9.5-14.1c-2.1,1-3.8,1.8-5.7,2.7c-0.5-1.3-1-2.3-1.6-3.7c2.6-1.4,5-2.6,7.4-3.9
			c-0.7-4.4-3.1-7.4-5.8-9.9c-3.1,2.8-6.1,5.5-9,8.1c0.5,1,1.3,2,1,2.4c-1.1,1.7-2.3,3.4-3.7,4.8c-1.6,1.7-3.5,3.1-5.3,4.6
			c-0.6,0.5-1.2,0.9-1.7,1.4c-2-3.1-2.1-3.8,0.2-5.7c2.4-2,5-3.7,7.4-5.5c-2-3.4-2-3.4,0.4-5.9c2-2.1,4.1-4.2,6.8-7
			c-2.9-0.4-4.9-0.9-6.9-0.7c-1.2,0.1-2.3,1.3-3.8,2.3c-0.6-2.6-2.7-2.2-4.6-2.5c-4.3-0.7-7.3,0.7-9.3,4.6c-0.8,1.5-1.8,2.9-2.8,4.3
			c-0.6,0.8-1.3,1.5-2,2.4c-1.7-1.9-2.1-3.6-0.8-5.5c1.4-2,2.8-4,4.2-6c-5.1-1.2-9.9-2.3-14.9-3.4c-1.9,1.5-4.1,3.1-5.1,5.9
			c-0.2,0.5-1,1-1.4,0.9c-0.5,0-1-0.7-1.3-1.2c-0.9-1.7-0.4-3.3,0.9-4.6c1-1.1,2-2.2,3-3.2c-6.1-4.6-10.7-10.1-14.3-16.6
			c-2.5,1.4-4.6,2.7-7,4c-0.6-1.4-1.1-2.4-1.6-3.6c2.2-1.5,4.2-2.9,6.2-4.3c-1.6-3.7-3.1-7.3-4.7-11C67.7,56,66.7,56.8,65.5,57.9z"
			/>
		<path d="M61.4,66.2c-0.1,2.1,0.1,3.6-0.4,4.8c-2,5.5-2.6,11.1-2.2,16.9c0.1,1.3,0.4,2.7-2.1,2.9c-0.4-1.7-1.1-3.5-1.2-5.4
			c-0.4-4.8,0.2-9.6,1.7-14.3C57.7,69.2,58.8,67.7,61.4,66.2z"/>
		<path d="M90.9,110.7c-2-3.2-2.2-4.1-0.4-6.1c3.1-3.5,6.6-6.4,12.3-7.5c-2,2.4-3.3,4.4-5,6c-2.3,2-4.5,3.9-5.7,6.8
			C92,110.2,91.5,110.3,90.9,110.7z"/>
		<path d="M43.7,36.7c0.2,5.6-3.9,9.2-3.8,14.5c-1.2-0.5-2-0.6-2.2-1c-0.5-1.2-1.2-2.6-0.9-3.7C38,42.6,39.2,38.8,43.7,36.7z"/>
	</g>
	<path d="M98,36.5c0.5-1.6,0.4-2.6-1-3.1c-1-0.4-1.9-0.8-2.8-1.3c-1.5-0.9-2.4-2.1-1.3-4.1c2,0.9,3.9,1.8,6.1,2.8
		c0.9-1.3,1.8-2.5,2.7-3.8c-1.2-3.5-3.7-6.4-3.8-10.4c2.5,0.1,2.7,2,3.5,3.4c0.8,1.5,1.6,3,2.5,4.7c2.7-1.2,5.1-2.3,7.7-3.5
		c-0.7-2-1.5-4-2.1-6c-0.3-1-0.5-2-0.6-3c0-0.4,0.5-1,0.9-1.3c0.2-0.1,1,0.1,1.2,0.4c0.7,1.1,1.5,2.3,2,3.5c0.6,1.6,1.1,3.2,1.6,4.9
		c2.6-1,5.1-2,7.6-3c-1.1-3.5-2.2-6.9-3.3-10.4c-0.1-0.4-0.5-0.9-0.4-1.3c0.1-0.5,0.3-1.2,0.7-1.3c0.4-0.1,1.2,0.1,1.4,0.5
		c0.6,1.1,0.9,2.3,1.4,3.5c1,2.6,2,5.3,3.1,8.3c5.2-2.5,10.4-2.6,15.6-2.9c1.7-4.2,0.9-8.8,3.5-13c1.9,2.5,0.2,4.5,0.1,6.5
		c-0.1,2.1-0.6,4.2-0.9,6.7c1.6,0.2,2.9,0.2,4.2,0.4c2.2,0.5,4.5,0.9,6.5,1.7c1.2,0.5,2.1,0.4,3.2,0.1c2.1-0.5,4.2-0.8,6.3-1.2
		c1-0.2,2.1-0.3,2.1,0.9c0,0.8-0.8,2-1.5,2.3c-1.7,0.7-3.5,0.9-5,1.2c0,3,0,5.8,0,8.8c1.2,0.3,2.9,0.6,4.4,1.3
		c1.2,0.5,2.2,1.5,3.2,2.4c0.3,0.3,0.3,1.2,0,1.5c-0.2,0.3-1,0.6-1.4,0.5c-3.2-0.8-6.3-1.7-9.7-2.7c-2.4,1.1-5.1,2.3-8,3.5
		c1.1,3,4.3,4.8,4.8,8.2c-3.7-1.2-5.4-4.6-8.5-6.7c-3.5,1.2-7,2.5-10.6,3.7c-1.3,0.5-1.6,1.4-1.7,2.7c-0.2,3.3-0.6,6.6-0.9,9.9
		c-0.1,0.5-0.3,1-0.5,1.8c-2-1-1.4-2.6-1.6-3.9c-0.2-1.4-0.2-2.7-0.2-4.1c0-1.5,0.1-2.9,0.2-4.7c-3.4,0.7-6.5,1.4-9.9,2.1
		c-1.4,1-1.4,3.8-4.2,3.8c0.1-1.2,0.1-2.1,0.2-3c-3.4-1.1-5.7,0-7.1,3.1c-0.5,1-1.1,2-1.7,3c-0.7,1.2-1.7,2-3.5,2.2
		c0.4-3.2,2.4-5.5,3.3-8c-2-1.2-3.7-2.4-5.6-3.3c-1.2-0.6-2.5-0.7-3.8-1.1c-3.2-0.9-6.4-1.7-9.5-2.7c-0.8-0.3-1.5-1.2-2.4-1.9
		c2-1.7,3.6-1.3,5.4-0.7C92.6,35,95.3,35.8,98,36.5z M142.2,17.9c-1.6,2.5-3,4.6-4.4,6.8c-2.7-2.3-0.7-4.2,0.2-6.5
		c-3.6,0.3-6.8,0.7-10,1c-0.1,1.4-0.2,2.4-0.2,3.3c-2.1,0.9-2.3-1.1-3.3-1.8c-2.8,1.1-5.5,2.1-8.1,3c-0.2,1.1-0.3,2-0.5,3.1
		c-1-0.7-1.7-1.2-2.4-1.7c-7.9,3.7-8.5,4-10.5,6.7c1.8,1.6,5.1,1.1,6,4.2c-2.8,0.8-5-0.8-7.5-0.9c-0.2,2.2,0.8,3.6,2.7,3.8
		c3.2,0.4,6.4,0.5,9.5,0.6c1,0,2-0.2,2.5-0.3c2-3.1,0.2-6.5,2-9.6c3.3,2.5,1.6,6,2.6,8.9c2.9-0.7,5.7-1.4,8.3-2c0.4-2.1,0.7-4,1.1-6
		c2.8,0.5,2.5,2.8,3.1,4.6c2.4-0.9,4.6-1.7,6.6-2.4c0.7-1.3-0.3-2.9,1.6-3.5c0.8,0.5,1.6,1,2.3,1.4c3.1-1.4,6.2-2.1,8.3-4.9
		c1.6-2.1,1.7-2.2-0.4-4.5c-1.7,0.9-3.5,1.9-5.1,2.7c-2.4-2.3-0.7-3.7,1.2-5.3C145.6,18.5,144,18.2,142.2,17.9z"/>
	<path class="st4" d="M142.2,17.9c-1.6,2.5-3,4.6-4.4,6.8c-2.7-2.3-0.7-4.2,0.2-6.5c-3.6,0.3-6.8,0.7-10,1c-0.1,1.4-0.2,2.4-0.2,3.3
		c-2.1,0.9-2.3-1.1-3.3-1.8c-2.8,1.1-5.5,2.1-8.1,3c-0.2,1.1-0.3,2-0.5,3.1c-1-0.7-1.7-1.2-2.4-1.7c-7.9,3.7-8.5,4-10.5,6.7
		c1.8,1.6,5.1,1.1,6,4.2c-2.8,0.8-5-0.8-7.5-0.9c-0.2,2.2,0.8,3.6,2.7,3.8c3.2,0.4,6.4,0.5,9.5,0.6c1,0,2-0.2,2.5-0.3
		c2-3.1,0.2-6.5,2-9.6c3.3,2.5,1.6,6,2.6,8.9c2.9-0.7,5.7-1.4,8.3-2c0.4-2.1,0.7-4,1.1-6c2.8,0.5,2.5,2.8,3.1,4.6
		c2.4-0.9,4.6-1.7,6.6-2.4c0.7-1.3-0.3-2.9,1.6-3.5c0.8,0.5,1.6,1,2.3,1.4c3.1-1.4,6.2-2.1,8.3-4.9c1.6-2.1,1.7-2.2-0.4-4.5
		c-1.7,0.9-3.5,1.9-5.1,2.7c-2.4-2.3-0.7-3.7,1.2-5.3C145.6,18.5,144,18.2,142.2,17.9z"/>
</g>
</svg>
