<?xml version="1.0" encoding="utf-8"?>
<!-- Generator: Adobe Illustrator 19.1.0, SVG Export Plug-In . SVG Version: 6.00 Build 0)  -->
<svg version="1.1" id="Calque_1" xmlns="http://www.w3.org/2000/svg" xmlns:xlink="http://www.w3.org/1999/xlink" x="0px" y="0px"
	 viewBox="0 0 83 178.7" style="enable-background:new 0 0 83 178.7;" xml:space="preserve">
<style type="text/css">
	.st0{fill:#FFFFFF;}
	.st1{fill:#41AB87;}
	.st2{fill:#E2EFE8;}
	.st3{fill:#010202;}
	.st4{fill:#DB5556;}
	.st5{fill:#6FA4C3;}
	.st6{fill:none;stroke:#DB5556;stroke-width:7;stroke-miterlimit:10;}
	.st7{fill:none;}
	.st8{fill:#FFFFFF;stroke:#DB5556;stroke-width:3;stroke-miterlimit:10;}
	.st9{fill:none;stroke:#DB5556;stroke-width:3;stroke-miterlimit:10;}
	.st10{fill:#C1C0C0;}
	.st11{fill:none;stroke:#C1C0C0;stroke-width:3;stroke-miterlimit:10;}
	.st12{fill:#FFFCFA;}
	.st13{fill:#F5D1CA;}
</style>
<g>
	<g>
		<path d="M34.6,96.1c0.7-11.2,1.3-22.3,2-33.7c-2.6-0.1-5-0.2-7.4-0.4c-4.4-0.3-5-1.9-5.7-4.6c-0.7-2.6,1.1-5.6,3.9-6.8
			c1.2-0.5,2.5-0.9,3.7-0.9c6.5-0.4,13-0.8,19.6-0.9c3.5-0.1,6.9,0.2,10.4,0.6c3.7,0.5,6,2.9,6.6,6.4c0.5,2.7-0.4,4.5-3.2,5.3
			c-3.1,0.9-6.3,1.3-9.7,2c-1.3,10.4-2.2,21-1.4,31.4c3.9,2.2,7.6,4.2,11.2,6.4c6.3,3.9,11.3,9,14.1,15.9c1.6,4.2,3.7,8.2,4.3,12.8
			c0.8,6.6-0.8,29.9-15.8,41c-12.7,9.4-20.7,8.8-31.9,6.9c-7-1.7-13.5-4.8-19.7-8.7c-4.8-3-8.8-6.7-11.4-11.7
			c-3.6-6.8-5.2-14-3.1-21.6c2.8-10.2,7.7-19.4,14.9-27.2c4.9-5.2,10.7-9.3,17.6-11.6C33.9,96.6,34.3,96.3,34.6,96.1z M40.1,62.9
			c-0.6,12.5-0.2,34.3-1.3,35.8c-1.1,1.5-6,2.8-7,3.3c-11.6,4.1-16.1,13.1-18.8,17.1c-4.1,6.3-6.8,13.2-8.9,20.5c1.6-1,3-2,4.5-2.8
			c1.1-0.6,2.4-0.8,3.5-1.3c3.3-1.5,6.7-2.3,10.4-1.5c3.5,0.8,7.1,1.3,10.6,2c4.6,1,9,0.8,13.1-1.6c6.9-4,14.5-5.3,22.3-5.6
			c3.3-0.1,6.6,0.5,10,0.9c0.3-3.2-1.3-5.8-2.2-8.5c-3.6-11.1-11.7-17.5-22.4-21.1c-3-1-4.7-3-4.9-6.2c-0.1-2.2-0.2-4.4-0.1-6.6
			c0.5-9.1,1-18.3,1.6-27.4c0-0.4,0.5-0.9,0.7-1.2c4.3-0.4,8.6-0.1,12.8-2.3c-2.1-3-4.9-3.2-7.7-3.1c-8.5,0.3-17,0.7-25.5,1
			c-0.9,0-1.9,0-2.6,0.4c-0.7,0.4-1.1,1.2-1.7,1.9c0.7,0.4,1.3,1.1,2,1.2c3.6,0.2,7.2,0.2,10.8,0.2C41.5,58,41.1,62.2,40.1,62.9z
			 M4,143c0,6.6,4.4,16.1,8.5,19.4c5.5,4.5,12,7.5,18.8,9.7c6.6,2.2,13.4,2.3,20.2,1.6c19.5-3.6,25.8-27.6,27.5-35.8
			c0.3-1.6-0.6-3.2-2.2-3.5c0,0,0,0,0,0c-9.6-2.3-18.7-0.5-27.4,3.7c-4.8,2.3-9.4,4.1-14.8,2.6c-2.8-0.8-5.8-1.1-8.7-1.6
			c-4.6-0.9-9.2-1-13.6,1.2c-1.5,0.8-3,1.4-4.6,2C6.6,142.7,5.5,142.7,4,143z"/>
		<path d="M75.5,6.6c0,3.4-4.2,6.6-8.5,6.6c-2.9,0-5.6-3-5.5-6.2c0.1-2.9,4-6.9,6.7-7C71.8-0.1,75.5,3.3,75.5,6.6z M69.3,4
			c-2.5,0-2.9,1.6-4.1,2.5c-0.3,0.2-0.5,1-0.3,1.3c0.3,0.5,0.9,1.2,1.3,1.1c1.4-0.2,2.7-0.5,4-1.1c0.6-0.3,1.5-1.5,1.3-1.9
			C71.2,5.1,71.8,4,69.3,4z"/>
		<path d="M45.5,120c0,2.5-4,5.2-7.2,5c-2-0.1-4.6-3.5-4.5-6c0.1-2.5,3.2-4.9,6-4.8C42.7,114.3,45.5,117.2,45.5,120z M41.4,121.1
			c-0.1-0.3,0.7-2.1-0.5-2.3c-1.2-0.2-3.5-1-3.5,1.7S40.3,121.3,41.4,121.1z"/>
		<path d="M55.8,21.9c-2.9,0.1-4.9,2.1-4.9,4.8c0,3.2,2.2,6.5,4.3,6.5c2.4,0,6.4-3.7,6.3-5.8C61.4,25.1,58,21.8,55.8,21.9z M55.6,30
			c-1,0-1.9-1.5-1.9-2.9c0-1.2,0.9-2.1,2.2-2.2c0.9,0,2.5,1.5,2.5,2.5C58.4,28.4,56.7,30,55.6,30z"/>
	</g>
	<path class="st1" d="M4,143c0,6.6,4.4,16.1,8.5,19.4c5.5,4.5,12,7.5,18.8,9.7c6.6,2.2,13.4,2.3,20.2,1.6
		c19.5-3.6,25.8-27.6,27.5-35.8c0.3-1.6-0.6-3.2-2.2-3.5c0,0,0,0,0,0c-9.6-2.3-18.7-0.5-27.4,3.7c-4.8,2.3-9.4,4.1-14.8,2.6
		c-2.8-0.8-5.8-1.1-8.7-1.6c-4.6-0.9-9.2-1-13.6,1.2c-1.5,0.8-3,1.4-4.6,2C6.6,142.7,5.5,142.7,4,143z"/>
</g>
</svg>
