<?xml version="1.0" encoding="utf-8"?>
<!-- Generator: Adobe Illustrator 19.1.0, SVG Export Plug-In . SVG Version: 6.00 Build 0)  -->
<svg version="1.1" id="Calque_1" xmlns="http://www.w3.org/2000/svg" xmlns:xlink="http://www.w3.org/1999/xlink" x="0px" y="0px"
	 viewBox="0 0 733.2 416.3" style="enable-background:new 0 0 733.2 416.3;" xml:space="preserve">
<style type="text/css">
	.st0{fill:#FFFFFF;}
	.st1{fill:#41AB87;}
	.st2{fill:#E2EFE8;}
	.st3{fill:#010202;}
	.st4{fill:#DB5556;}
	.st5{fill:#6FA4C3;}
	.st6{fill:none;stroke:#DB5556;stroke-width:7;stroke-miterlimit:10;}
	.st7{fill:none;}
	.st8{fill:#FFFFFF;stroke:#DB5556;stroke-width:3;stroke-miterlimit:10;}
	.st9{fill:none;stroke:#DB5556;stroke-width:3;stroke-miterlimit:10;}
	.st10{fill:#C1C0C0;}
	.st11{fill:none;stroke:#C1C0C0;stroke-width:3;stroke-miterlimit:10;}
	.st12{fill:#FFFCFA;}
	.st13{fill:#F5D1CA;}
</style>
<g>
	<path class="st5" d="M733.2,376.2c-10.7,0.3-25.5,3.1-35.8,0.2c-0.8-0.2-1.5-0.4-2.4-0.6c-3,2.7-5.7,5.5-8.8,7.8
		c-9.9,7.3-21.3,7.4-32.9,6.7c-2.6-0.2-5.2-0.8-7.8-1.2c-8.1-1.1-11.7-7-14.2-13.7c-2.2-5.8,0.5-10.4,4.3-14.9
		c6.3-7.4,14.4-6.7,22.6-6.2c2.4,0.1,3.7,1.9,3.6,4.2c0,2.3-2,3-3.9,3.1c-2.8,0.2-5.7,0.3-8.5,0.4c-4.2,0.2-7.2,2.6-10,5.4
		c-2.3,2.5-2.4,4.7,0.1,6.9c6,5.2,12.5,9.3,21,7.4c3-0.6,6.1-0.7,9.1-1.3c10.4-1.9,16.3-8.8,19.4-18.3c2.5-7.6-0.5-13.2-8.1-15.7
		c-4.7-1.5-9.4-2.8-14.2-3.9c-9.7-2.2-19.1,0.4-28.5,2c-14.2,2.5-26.9,9.3-40.2,14.8c-11.3,4.7-22.9,8.8-34.6,12.1
		c-7.4,2-15.3,2.2-23,2.9c-4.9,0.4-9.8,0.3-14.7,0.5c-17.6,0.7-35.1,1.5-52.7,2c-14.9,0.4-29.9,0.6-44.8,0.3
		c-17.7-0.3-35.4-0.1-53.1,0.7c-17.8,0.8-35.6,0.3-53.4,0.7c-14.9,0.3-29.8,1-44.7,1.9c-12.4,0.7-24.8,2.1-37.2,3
		c-11.6,0.8-23.2,1.7-34.9,1.9c-18.2,0.3-36.4,0.4-54.5,0c-8.7-0.2-16.5-4.2-24.4-7.4c-5.6-2.3-11.4-4.7-17.3-5.9
		c-11.7-2.3-21.1,3.2-29.3,10.8c-4.1,3.7-2.7,9,2.6,10.6c6.4,1.9,12.9,3,18.3-2.5c0.3-0.3,0.6-0.6,0.7-1c0.2-0.4,0.2-0.8,0.3-1.7
		c-2.9-1-8-0.2-6.3-6.4c3-1.9,6.4-3.8,10.4-1.6c4.4,2.4,5.4,7,6.2,11.5c0.2,0.9-0.8,2.2-1.5,3.1c-5,6.3-18,10-25.7,7.3
		c-5.5-1.9-11-3.9-12.4-10.8c-4.9,0.6-9.3,1.3-13.8,1.6c-11.2,0.6-22.4,1-33.7,1.6c-6.5,0.3-18.3-3.2-24.8-2.9v24.8h733.5
		L733.2,376.2z"/>
	<g>
		<path class="st10" d="M376.7,283.7c-4.9-2.4-9.7-3.1-15.1-0.5c-12.5,6.1-20.3,15.3-21.8,29.5c-0.6,5.8,4.1,12.1,9.2,11.6
			c5.1-0.5,7.3-2.6,10.4-4.7c7.4-5,12.5-12.2,17.5-19.5c1.8-2.6,2.7-5.9,3.5-9.1C381.4,287.2,380.3,285.4,376.7,283.7z M353.1,308.4
			c-2.1-1.9,8.1-13.3,10.3-11.8C365.6,298.1,355.1,310.3,353.1,308.4z"/>
		<path class="st10" d="M419.7,281.6c-4.6-3.7-18,0.1-24.8,8.1c-6.1,7.2-15,26.1-12.3,28.7s13.7,1.7,19-1.4
			c7.9-4.6,14-11.1,19.4-18.3C423.6,295.5,424.4,285.3,419.7,281.6z M407.1,298.8c-1,1.8-2.5,3.7-4.4,4.6c-1.9,0.9-3.1,0.8-2.3-2.2
			c0.8-3,2.9-4.8,5.7-6C408.1,294.4,408.1,297,407.1,298.8z"/>
		<path class="st10" d="M459.8,280.6c-3.9,0.2-10.1,1.2-12.3,2c-9.7,3.6-14.4,8.6-19.8,17.4c-2.4,3.9-3.1,8.4-2.5,13
			c0.7,5.1,3.5,6.9,8.5,6.2c16.8-2.4,25.9-13.4,31.3-28.2C467.8,283.5,463.7,280.4,459.8,280.6z M437.7,307.4
			c-3.7-3.1,6.5-11.5,8.3-10C447.8,298.9,441.4,310.5,437.7,307.4z"/>
		<path class="st10" d="M492.6,281.7c-4.3,0-6,0.7-8.1,2.2c-7.6,5.7-13.6,12.9-17.4,21.7c-0.5,1.1-0.8,2.4-0.9,3.6
			c-0.2,2.9-0.2,6.7,2.5,7.6c3.6,1.1,6.5,2.6,13,0.3s19.4-15.1,20.8-21.6C504.3,287,496.8,281.7,492.6,281.7z M481.1,303.9
			c-3.4-2,3.9-9.2,6.1-7.5C489.4,298,484.5,305.9,481.1,303.9z"/>
		<path class="st10" d="M379.3,276.1c4.7,2.6,5.5,13,8.1,13s6.2-7.4,11.8-11.2c2.3-1.5-3.3-5.8-10-5.9
			C382.6,271.9,376.9,274.8,379.3,276.1z"/>
		<path class="st10" d="M444.3,277.2c-5.6-7.2-15.4-7.6-18.7-2.7c4,4.2,5.6,9.7,7.4,9.4C435.2,283.6,438.9,278,444.3,277.2z"/>
		<path class="st10" d="M484.3,275.9c1.2-1.8-9.5-8.9-17.7-1c2.7,1.2,3.7,5.7,6.3,9.3C474.5,286.6,482.7,278.3,484.3,275.9z"/>
		<path class="st10" d="M509.1,286.9c2.2,1.9,7.2-4.3,11.3-6.3c3.1-1.5-10-8.9-15.4-1.1C508.1,282.6,507.3,285.5,509.1,286.9z"/>
		<path class="st10" d="M524.9,288.6c-0.3-0.4,0.9-0.7-2.2-1.2s-9.1,4.4-12.4,10.2C515.8,294.2,520.4,291.4,524.9,288.6z"/>
		<path d="M337.4,295.7c2.1-2.8,3.2-4.5,4.5-6c7-8.2,15.8-13.2,26.4-15.4c1.5-0.3,3-1.1,4.2-2c5.6-4.6,12-6,19-5.1
			c5.5,0.8,9.7,4,13.3,8.6c6.1-1.8,9.4,1.2,13.6-4c7.7-9.6,21-9.9,29.3-1c1.1,1.2,2.1,2.5,3.2,3.9c2-0.1,4-0.3,6.3-0.4
			c2.4-5.2,6.9-7.7,12.3-9c8-1.9,14.5,0.4,19.7,6.5c1.7,2.1,3.7,2.9,6.2,3.4c2.9,0.7,4.4-1,6.2-2.8c5-4.8,15.2-5,20.2,0
			c3.3,3.2,5.7,7.3,9,11.7c2.4-1.8,5.4-3.8,8.1-6.1c2.8-2.3,5.4-3.6,9.3-3.1c5,0.6,10.2-0.4,15.3-0.6c12.9-0.4,25.7-0.8,39.3-1.2
			c0.4-2.9,1-5.4,1.1-8c0.1-19.9,0.6-39.7-0.1-59.6c-0.5-14.2-0.8-28.6-3.8-42.7c-0.3-1.5-0.3-3.1-0.4-4.7c4.3-0.5,5.3-0.1,6.1,3.8
			c1.2,6.4,2.5,12.9,2.9,19.4c1,13.9,1.5,27.7,2.2,41.6c0.2,3.7,0,7.3,0,11c0,9.2,0,18.3,0,27.5c0,3.6,0,7.2,0,11.6
			c7.9,0,15.8,0,23.6,0c7.8,0,15.6-0.5,23.3,0.1c3.1,0.2,6.2,2.7,8.9,4.6c1.6,1.2,1.5,3.4-0.5,4.7c-5,3.2-7.6,8.3-10.2,13.4
			c-1.1,2.2-2.7,4.1-3.9,6.2c-6.5,10.9-13,21.8-19.5,32.7c-0.3,0.5-0.4,1.1-0.8,2.4c4.6-0.7,8.8-1,12.8-1.9
			c14.8-3.2,28.9-0.7,42.6,4.9c8.3,3.4,13.2,11.4,12.6,20.3c-0.2,2.6-0.3,5.3-0.5,8.3c8.5,2.4,16.9,3.9,25.5,3.6
			c1.4,0,2.9-0.3,4.3-0.2c2.3,0.1,4.2,1.1,4.1,3.6c0,2.4-1.8,3.4-4.2,3.4c-10.7,0.3-21.2-0.3-31.6-3.3c-0.8-0.2-1.5-0.4-2.4-0.6
			c-3,2.7-5.7,5.5-8.8,7.8c-9.9,7.3-21.3,7.4-32.9,6.7c-2.6-0.2-5.2-0.8-7.8-1.2c-8.1-1.1-11.7-7-14.2-13.7
			c-2.2-5.8,0.5-10.4,4.3-14.9c6.3-7.4,14.4-6.7,22.6-6.2c2.4,0.1,3.7,1.9,3.6,4.2c0,2.3-2,3-3.9,3.1c-2.8,0.2-5.7,0.3-8.5,0.4
			c-4.2,0.2-7.2,2.6-10,5.4c-2.3,2.5-2.4,4.7,0.1,6.9c6,5.2,12.5,9.3,21,7.4c3-0.6,6.1-0.7,9.1-1.3c10.4-1.9,16.3-8.8,19.4-18.3
			c2.5-7.6-0.5-13.2-8.1-15.7c-4.7-1.5-9.4-2.8-14.2-3.9c-9.7-2.2-19.1,0.4-28.5,2c-14.2,2.5-26.9,9.3-40.2,14.8
			c-11.3,4.7-22.9,8.8-34.6,12.1c-7.4,2-15.3,2.2-23,2.9c-4.9,0.4-9.8,0.3-14.7,0.5c-17.6,0.7-35.1,1.5-52.7,2
			c-14.9,0.4-29.9,0.6-44.8,0.3c-17.7-0.3-35.4-0.1-53.1,0.7c-17.8,0.8-35.6,0.3-53.4,0.7c-14.9,0.3-29.8,1-44.7,1.9
			c-12.4,0.7-24.8,2.1-37.2,3c-11.6,0.8-23.2,1.7-34.9,1.9c-18.2,0.3-36.4,0.4-54.5,0c-8.7-0.2-16.5-4.2-24.4-7.4
			c-5.6-2.3-11.4-4.7-17.3-5.9c-11.7-2.3-21.1,3.2-29.3,10.8c-4.1,3.7-2.7,9,2.6,10.6c6.4,1.9,12.9,3,18.3-2.5
			c0.3-0.3,0.6-0.6,0.7-1c0.2-0.4,0.2-0.8,0.3-1.7c-2.9-1-8-0.2-6.3-6.4c3-1.9,6.4-3.8,10.4-1.6c4.4,2.4,5.4,7,6.2,11.5
			c0.2,0.9-0.8,2.2-1.5,3.1c-5,6.3-18,10-25.7,7.3c-5.5-1.9-11-3.9-12.4-10.8c-4.9,0.6-9.3,1.3-13.8,1.6c-11.2,0.6-22.4,1-33.7,1.6
			c-6.5,0.3-13,0.8-19.6,1.2c-2.4,0.1-5.1,0.1-5.2-4c1.9-0.5,3.8-1.2,5.7-1.4c12.6-1,25.3-1.8,37.9-2.8c7.9-0.7,15.8-1.6,23.7-2.5
			c2.1-0.2,3.7-1.1,4.7-3.3c1.1-2.3,2.6-4.7,4.6-6.2c12.2-9.4,25.4-14.9,41-8.8c2.8,1.1,5.7,1.9,9.8,3.2
			c-11.5-27.6-10.8-55.3-6.4-83.4c5.6-0.8,10.4-1.5,15.7-2.2c1.3-12,2.7-24,4.1-36.2c4.4,0.6,5.5,3.1,5.5,6.1
			c0,4.1-0.2,8.2-0.7,12.2c-0.5,5.3-1.3,10.5,0.2,16c5.1,0,10.1,0,15.3,0c5.8-9.7,10.7-19.6,14.9-29.7c5.3-12.8,10.6-25.7,15.8-38.6
			c4.3-10.8,8.6-21.7,12.8-32.5c0.6-1.5,1-3.1,1.8-4.6c1.2-2.4,2.9-3.3,5.9-3c6.3,0.5,12.6,0.2,18.9,0.2c2.7,0,5.3-0.1,8-0.1
			c6.1,0,12.1-0.1,18.2,0c3.3,0.1,6.5,0.9,9.7,0.8c11.2-0.3,22.5-0.6,33.7-1.3c6-0.4,12-1.9,18.1-2.2c3.4-0.2,6.9,0.8,10.2,1.7
			c1.1,0.3,2.3,1.9,2.5,3.1c0.5,2.7,0.5,5.6,0.8,8.4c1.4,13,5,94.9,5.1,100.8C337.5,288.1,337.4,291.2,337.4,295.7z M651.6,281.5
			c-2.4-0.2-65.1,0.2-71.7,0.2c-10.8,0.1-21.6,0.5-32.4,1c-1.5,0.1-3.2,0.9-4.4,1.8c-3.3,2.7-19.6,15.2-24.6,18.7
			c-10,6.8-19.6,14-29.5,20.9c-1.7,1.2-4,2-6.2,2.2c-9,0.6-18,1-26.9,1.3c-7.9,0.3-15.9,0.2-23.8,0.6c-12,0.5-24.1,1.4-36.1,2
			c-6.5,0.3-13.1,0.2-19.6,0.4c-15.9,0.4-31.8,1.1-47.7,1.1c-28.2,0.1-56.4-0.3-84.7-0.3c-7.6,0-15.1,0.4-22.7,0.3
			c-6,0-8.8-2-9.4-6.7c-0.6-4.4-0.8-8.9-1.2-13.4c-0.5-6.9-1-13.8-1.5-21c-1.4-0.2-2.8-0.6-4.2-0.6c-10.2-0.6-20.4-1.1-30.6-1.6
			c-5.5-0.3-11-0.9-16.5-0.5c-8.5,0.6-17,2-25.5,3c-5.5,0.7-5.9,0.7-6.6,6.1c-0.9,6.5-1.1,13-1.5,19.5c-1.2,18.1,2.8,35.3,9.6,52
			c1.5,3.7,3.9,5.9,7.6,7.4c7.9,3.2,16.1,1.8,24.2,2.2c11,0.5,22.1,0.1,33.1-0.3c15.3-0.5,30.6-1.1,45.9-2.1
			c15.9-1,31.7-3.1,47.6-3.8c23.3-0.9,46.6-1.1,70-1.3c29.9-0.3,59.8-0.3,89.6-0.4c1.4,0,2.9,0,4.3,0c16.1-0.7,32.2-1.4,48.3-2
			c14.5-0.6,29-0.7,43.5-1.7c7.3-0.5,14.7-1.8,21.5-4.2c14.4-5.2,28.5-11.3,42.5-17.3c2.2-1,4.2-3.2,5.5-5.3
			c6.7-11,13.1-22.2,19.6-33.3C641.6,298.7,648.6,290.4,651.6,281.5z M170.5,281.4c2.3,0.5,4,1.2,5.8,1.3
			c11.2,0.5,22.4,1.1,33.6,1.4c6.1,0.2,9.2,2.6,10.6,8.5c2,8.2,2.2,16.6,1.9,25c-0.1,2.3,0.3,4.7,0.4,7.1c4.5,0,8.1,0.1,11.8,0
			c14.7-0.3,29.4-0.6,44.1-0.8c3.7-0.1,7.4,0.2,11,0.2c8.6,0.2,17.2,0.4,25.7,0.4c3.2,0,6.3-0.8,9.7-1.2c1.3-31.9,0.2-63.2-2.5-94.9
			c-1.9,0-3.1,0-4.3,0c-10.2,0.4-20.4,1-30.6,1c-11,0-22-0.8-33-1.1c-9.8-0.3-19.6-0.8-29.4-0.8c-8.6,0-17.1,0.8-25.7,1.1
			c-6.1,0.2-6.1,0.1-8.4,5.7c-4.4,10.8-8.8,21.6-13.4,32.3C175.8,271.4,173.1,276.2,170.5,281.4z M322.1,221
			c0.3-14.3,1-27.8-1.8-40.8c-5.5,0-10.2-0.6-14.8,0.1c-12.4,2-24.9,1.1-37.3,1.4c-12.3,0.3-24.5-0.2-36.8-0.3c-6.3,0-12.6,0-18.6,0
			c-5.3,13.4-10.2,26.1-15.5,39.5c3.1,0.3,5.5,0.7,7.9,0.8c10.6,0.2,21.1-1.3,31.8-0.5c9.3,0.7,18.8,0,28.2,0.3
			c15.5,0.5,31,0.6,46.5,0.1C314.9,221.4,318.1,221.2,322.1,221z M349,324.2c5.1-0.5,7.3-2.6,10.4-4.7c7.4-5,12.5-12.2,17.5-19.5
			c1.8-2.6,2.7-5.9,3.5-9.1c1-3.8-0.1-5.6-3.7-7.4c-4.9-2.4-9.7-3.1-15.1-0.5c-12.5,6.1-20.3,15.3-21.8,29.5
			C339.1,318.5,343.9,324.8,349,324.2z M447.5,282.6c-9.7,3.6-14.4,8.6-19.8,17.4c-2.4,3.9-3.1,8.4-2.5,13c0.7,5.1,3.5,6.9,8.5,6.2
			c16.8-2.4,25.9-13.4,31.3-28.2c2.7-7.4-1.4-10.5-5.3-10.3C455.9,280.8,449.7,281.8,447.5,282.6z M492.6,281.7
			c-4.3,0-6,0.7-8.1,2.2c-7.6,5.7-13.6,12.9-17.4,21.7c-0.5,1.1-0.8,2.4-0.9,3.6c-0.2,2.9-0.2,6.7,2.5,7.6c3.6,1.1,6.5,2.6,13,0.3
			c6.4-2.3,19.4-15.1,20.8-21.6C504.3,287,496.8,281.7,492.6,281.7z M382.6,318.5c2.6,2.6,13.7,1.7,19-1.4
			c7.9-4.6,14-11.1,19.4-18.3c2.5-3.3,3.3-13.5-1.3-17.2s-18,0.1-24.8,8.1C388.8,297,380,315.9,382.6,318.5z M379.3,276.1
			c7.6,4.1,5.5,13,8.1,13s6.2-7.4,11.8-11.2c2.3-1.5-3.3-5.8-10-5.9C382.6,271.9,376.9,274.8,379.3,276.1z M444.3,277.2
			c-5.6-7.2-15.4-7.6-18.7-2.7c4,4.2,5.6,9.7,7.4,9.4C435.2,283.6,438.9,278,444.3,277.2z M484.3,275.9c1.2-1.8-9.5-8.9-17.7-1
			c2.7,1.2,3.7,5.7,6.3,9.3C474.5,286.6,482.7,278.3,484.3,275.9z M509.1,286.9c2.2,1.9,7.2-4.3,11.3-6.3c3.1-1.5-10-8.9-15.4-1.1
			C508.1,282.6,507.3,285.5,509.1,286.9z M406.5,320.9c0.1,0.4,0.2,0.8,0.3,1.2c5-0.4,10-0.7,15.2-1.1c-1.4-3.9-2.6-7.1-3.9-10.5
			C414.2,314,410.3,317.5,406.5,320.9z M378.6,323.7c-1.4-3.5-2.4-6.2-3.7-9.4c-2.7,3.1-5.1,5.9-8.3,9.4c3.2,0,5,0,6.9,0
			C374.9,323.7,376.3,323.7,378.6,323.7z M524.9,288.6c-0.3-0.4,0.9-0.7-2.2-1.2s-9.1,4.4-12.4,10.2
			C515.8,294.2,520.4,291.4,524.9,288.6z M459.6,313.2c-1.3,1.9-1.9,2.8-2.7,3.9C460.1,317.1,460.1,317.1,459.6,313.2z"/>
		<path d="M249.2,190.9c3-0.4,6-0.8,9.1-1.1c2.6-0.2,5.3-0.6,7.9-0.4c3.5,0.2,4.9,2.9,3.8,6c-1.1,3-2.1,6-2.7,9.1
			c-0.5,2.4-1.4,3.2-3.8,3.8c-6.2,1.5-12.4,1.2-18.7,1c-2.6-0.1-3.6-1.6-3.9-3.8c-0.5-3.6-0.8-7.2-1.2-10.9
			c-0.2-2.5,0.9-3.9,3.4-4.1c2-0.1,4,0,6.1,0C249.1,190.7,249.2,190.8,249.2,190.9z M246.5,197.8c1.3,4.8,1.3,4.9,4.4,5
			c3.4,0.1,6.9,0,10.7,0c0.3-2.2,0.6-4.1,1-6.6C256.9,196.8,251.9,197.3,246.5,197.8z"/>
		<path d="M274.9,207.5c-0.6-1.4-1.2-2.3-1.3-3.3c-2.1-13.3,0.3-14.1,11-14.5c3.2-0.1,6.5-0.4,9.7-0.8c4-0.5,6.4,1.6,6,5.5
			c-0.3,2.8-0.6,5.6-0.7,8.4c-0.2,4.3-1.4,5.7-6.1,5.6C287.4,208.3,281.3,207.8,274.9,207.5z M293.6,196.6
			c-13.6-0.7-13.6-0.7-14.8,4c3.7,0.4,7.3,0.9,10.9,1C293.5,201.7,293.6,201.3,293.6,196.6z"/>
		<path d="M214.7,190.9c5.9,0,11.8,0,17.6,0c3.4,0,5,1.5,4.6,4.9c-0.5,3.8-1.5,7.6-2.3,11.4c-0.5,2.3-2,3.5-4.4,3.4
			c-5.3-0.3-10.6-0.5-15.8-1.1c-1.2-0.1-2.8-1.7-3.2-3c-0.6-1.9-0.6-4.1-0.1-6C211.9,197.4,213.3,194.4,214.7,190.9z M230.1,197.8
			c-3.5,0-6.1,0-8.7,0c-3.5-0.1-4.5,1.8-4.2,5.2c4,0.3,7.7,0.6,11.7,0.9C229.3,201.9,229.6,200.4,230.1,197.8z"/>
		<path d="M318.5,201.5c0.6,8.8-6.1,9.7-12.1,7.8c-3-1-3.7-3.8-3.4-6.5c0.5-3.4,1.5-6.8,2.2-10.2c0.7-3.3,3.2-3.1,5.7-3.2
			c2.6-0.1,5.1,0.1,5.9,3.1C317.6,195.4,318,198.5,318.5,201.5z M310.8,196c-0.5,0.7-0.9,1-0.9,1.3c0,1.9,0.1,3.8,0.1,5.7
			c0.7-0.1,1.9,0,2.1-0.4c1.3-2.1,1.1-4.2-0.6-6.1C311.5,196.4,311.3,196.3,310.8,196z"/>
		<path d="M349.5,299.8c2.8-3.4,6-6.6,9.5-9.4c2.3-1.7,4.7-2.9,8-0.3c3.8,3,4.8,5.7,3.4,9.4c-2.2,5.7-6,10.2-10.6,13.9
			c-2.6,2.1-5.7,3-9.1,1.3C347.2,313.1,344.8,305,349.5,299.8z M363.4,296.6c-2.3-1.5-12.4,9.8-10.3,11.8S365.6,298.1,363.4,296.6z"
			/>
		<path d="M439.9,313.3c-7,0-10.8-6.6-6.8-12.7c5.6-10.9,15.7-9,18.7-7.6c2.7,1.2,2.3,4,2.1,6.4
			C452.9,308.2,447.8,313.3,439.9,313.3z M437.7,307.4c3.7,3.1,10.1-8.5,8.3-10C444.3,295.9,434,304.4,437.7,307.4z"/>
		<path d="M494.6,296.4c-0.8,7.5-6.3,12.6-10.5,14.6c-3.3,0.7-6-0.1-8.2-2.8c-2.1-2.6-2-5.6-0.6-8.1c2.6-4.7,8.9-10,11.3-10.9
			C489,288.3,495.3,289.4,494.6,296.4z M481.1,303.9c3.4,2,8.3-5.9,6.1-7.5C485,294.8,477.6,301.9,481.1,303.9z"/>
		<path d="M394.2,301.6c0-3.4,6.2-8.9,8.6-10.8c4.2-3.4,9.6-1.1,10.3,4.4c0.4,3.2-0.3,6.2-2.5,8.5c-1.8,1.9-3.8,3.7-5.9,5.3
			c-2.1,1.6-4.4,1.9-6.8,0.4C395.4,307.8,394.2,304.9,394.2,301.6z M400.4,301.2c-0.8,3,0.4,3.1,2.3,2.2s3.4-2.8,4.4-4.6
			c1-1.8,1-4.4-1-3.6C403.3,296.3,401.2,298.1,400.4,301.2z"/>
	</g>
	<g>
		<g>
			<path class="st11" d="M518.9,191.4c9.9,17.2,11,50.1-12.9,69.9"/>
			<g>
				<polygon class="st10" points="507.6,253.5 506.7,260.7 513.9,261.5 510.5,264.2 503.3,263.4 504.2,256.2 				"/>
			</g>
		</g>
	</g>
	<g>
		<path d="M490.1,201.4c-23.6,0-56.8-7.4-77.8-26.9c-10.7-9.8-30.7-37.5-28-74.7c0.2-5.1,0.7-10.2,1.2-15.2
			c1.2-10.4,4.3-20.3,8.2-30c8.8-21.5,31.9-37.4,36.1-40.1c17.1-12.4,44.9-15,53.6-14.4c3.1,0.2,6.3,0.3,9.4,0.4
			c6.1,0.2,11.9,1.7,17.8,3.2c10.9,2.8,21.1,7.2,30.4,13.6c15,9,29.1,31.6,31.7,40.9c1,3.4,2.2,6.8,3,10.3c1.2,5.6,2.7,11.2,3,16.9
			c1.9,18.5-1.2,35.6-1.7,38.9c-6.3,28.2-26.7,54.6-40,62.7C524.3,194.7,512,201.4,490.1,201.4z M565.1,135.8
			c0.2-0.5,0.4-0.9,0.5-1.3c1.9-5.9,2.5-12.1,3.4-18.2c0.4-2.5,1-4.9,1.1-7.4c0.3-8.9,1.2-17.7,0.2-26.6c-0.4-3.8-1.1-7.5-1.9-11.2
			c-1.9-8.6-5.1-16.8-10.1-24.2C539.7,21.8,518.8,5.5,483,5.5c0.1,1.1,0.9,18.4,1.3,25.4c0.2,3.3-0.4,6.7-0.3,10.1
			c0.1,10-1.6,19.9-3.5,29.7c-0.7,3.8-1.6,7.7-2.8,11.4c-1,3.3-2.6,6.4-3.9,9.5c8.9,5.3,16.5,11.7,23.8,19c0.1-1,0.9-4.1-1.9-6.7
			c-1.7-1.3-3.2-3-4.5-4.7c-1.7-2.3-3.1-4.8-3.9-7.7c-0.2-0.7-1.3-4.8,1.5-5.3c2-0.3,1.9,1.9,2.7,5.4c0.8,3.5,2.2,6.2,5.7,8.3
			c0.4-3.7,0.6-6.3,1.1-9.6c0.5-3.2,1.2-9.4,4.3-8.5c7.4,2.3,20.5,1.9,27.3,1.3c1.6,3.2,1.2,3.9-2,4c-2,0-3.9,0.1-5.9,0.1
			c-3,0.1-6.1,0.3-9.1,0.5c6.1,1.8,8.7,6.4,10.3,11.8c1.3-0.2,2.5-0.3,3.7-0.6c3.5-0.9,7.8-1.2,11.7,3.4c2.7,3.1,4.1,9.7,2.7,12.6
			c-0.6,1.3-0.9,2.7-1.4,4.3c8.7-1.9,12.3-3.3,15.4-6c-2.2-2.2-4.5-4.4-6.7-6.6c-3.2-3.1-4.7-7.2-6.4-11.2c-0.4-1.1-0.2-2.4-0.2-3.6
			c0.3-0.1,0.5-0.2,0.8-0.3c0.7,0.7,1.5,1.4,1.9,2.3c0.9,1.6,1.5,3.4,2.3,5c0.7,1.3,1.3,2.8,2.4,3.8c2.8,3,5.8,5.8,8.8,8.6
			c2.4,2.2,2.1,4.4-0.7,5.9c-6,3.1-12.5,5-19.1,6.1c-1.7,0.3-3.5,0.7-5.8,1.1C544.9,125.6,555.9,128.2,565.1,135.8z M477.8,5.6
			c-15-0.5-31.4,5.1-36.5,7.9c-8.8,4.9-17.5,10-24.9,17c-5.5,5.2-10.5,10.9-14.7,17.3c-3.8,5.7-5.6,12.2-7.9,18.5
			c-3,8.1-5.7,29.2-5.2,40.7c0.6,0,1.1,0.1,1.5,0c3.3-0.5,6.4,0,9.4,1.8c0.9,0.5,2.1,0.7,3.1,0.8c3.3,0.6,6.4-0.3,9.4-1.7
			c3.4-1.5,6.8-1.7,10,0.4c3.6,2.3,7.2,2.5,11.2,1.1c5.5-1.9,11.2-2.4,16.9-0.4c1.9,0.7,4,1,6-0.3c-0.4-0.8-0.8-1.6-1.2-2.4
			c-2.5-4.6-4.3-9.4-5-14.7c-0.4-2.6,0.2-3.6,2.8-4c1.9-0.3,3.9-0.3,5.8,0c4,0.5,8.2,0.3,11.8,2.5C480.1,69.5,481.7,32.1,477.8,5.6z
			 M414.2,169.9c28.8,25.1,73.3,24.4,80.7,23.9c14.7-1.3,27.6-7,35.9-11.8c8.3-4.8,23.2-23.3,26.2-28.5c-18.3,1-33.5-4.6-44.4-19.8
			c-1.2,1.1-2.4,2.2-3.6,3.3c-1.3,1.3-1.8,3.1-1.3,4.7c1.1,3.6,3.3,6.6,7.1,7.9c2.9,1,3.5,2.8,3.7,5.6c0.4,4.7,0.9,9.5,3.4,13.8
			c0.5,0.8,1,1.7,1.3,2.6c0.1,0.4,0,1.3-0.3,1.4c-0.4,0.3-1.3,0.4-1.7,0.2c-0.7-0.4-1.4-1.1-1.7-1.8c-1-2-2.1-4.1-2.6-6.3
			c-0.9-3.9-1.4-7.9-2.2-12c-5-1-6.9-6.1-10.4-9.3c-1.3,0.6-2.4,1.5-3.6,1.7c-1.9,0.4-2.5,1.9-2.7,3.3c-0.3,2.1-0.2,4.3-0.1,6.4
			c0,0.7,0.3,1.6,0.7,2.1c2.2,2.8,3.9,6,7,8c1.3,0.8,1.7,2.1,1.6,3.6c0,2.5,0.2,5,0.5,7.4c0.2,1.6,1.1,3,1.4,4.6
			c0.1,0.7-0.3,1.5-0.5,2.3c-0.7-0.2-1.6-0.3-1.9-0.8c-0.8-1-1.5-2.2-1.8-3.4c-0.7-3.7-1.2-7.4-1.8-10.7c-2-2.5-4-4.7-5.5-7.1
			c-1.5-2.4-2.6-5.1-4-7.8c-1.3,0.8-2.6,2-4.1,2.5c-1.8,0.6-1.8,2.6-3.1,3.5c-0.5,0.3-0.8,1-1.3,1.4c-3.9,3.8-8.4,4.7-12.6,2.4
			c-1,0.4-1.9,0.9-2.9,1.3c-2.8,1.1-5.6,2.3-8.4,3.4c-2.7,1.1-5.2,0.2-7.8-0.9c0.6-0.7,1.2-1.3,1.9-1.4c5-0.6,9.3-2.7,13.6-5.1
			c1.5-0.8,2.4-1.9,3-3.5c0.6-1.6,2-3,3.2-4.4c0.6-0.7,1.5-1.2,2.4-1.8c-4-0.7-7.8-1.4-11.9-2.2c-4.1,2.7-9.1,4-14.2,4.9
			c-1.1,0.2-2.1,0.2-2.5-0.9c-0.5-1.3,0.6-2,1.5-2.5c0.5-0.2,1.1-0.2,1.6-0.4c4.8-1.8,11.8-5.7,13.8-6.5s6.8,2.9,10.3,3.1
			c3.8,0.2,7-1.2,9.9-3.9c1.9-1.8,2.6-3.5,2.6-6.2c-5.2,0.7-10.4,0.2-15-2.4c-5.7,4.1-11.7,6.4-18.6,6.1c-1-0.1-1.9-0.2-1.8-1.2
			c0-0.7,0.5-1.7,1.1-2.1c0.8-0.5,1.9-0.6,2.8-0.6c6.3,0,13.9-6.7,16-6.9s16.5,4.8,22.4,1.7c0.3-1.8,0.5-3.7,0.9-6
			c-12.4,1.3-23.5-1.3-33.4-8.3c-1,1.4-1.7,2.7-2.7,3.9c-3.6,4.6-7.3,9.1-10.7,13.9c-5.1,7.1-10.9,13.5-16.7,19.9
			C427.8,160.3,421.4,165,414.2,169.9z M452.6,91.7c0.9,2.7,1.5,5.3,2.6,7.6c2.1,4.5,4.4,8.9,8.3,12.3c6.6,5.8,14.3,8.8,23,9.6
			c4.3,0.4,8.6,0.4,13.1,0c-0.1-0.7-0.1-1.3-0.4-1.7c-1.4-2.1-2.7-4.2-4.3-6.1c-5.5-6.2-11.8-11.5-18.7-16
			C469.2,92.9,461.5,90.6,452.6,91.7z M564.3,140.1c-0.5-0.6-0.8-0.9-1.1-1.2c-3.9-4.1-8.9-6-14.1-7.7c-7.6-2.5-15.3-3.9-23.3-2.5
			c-3.1,0.6-6.4,0.4-9.7,0.5c-0.3,0-0.6,0.3-1.1,0.5c1,3.4,2.9,6.5,5.6,8.5c3.8,2.9,7.9,5.4,12.1,7.5c4.1,2.1,8.7,3.4,13.4,3.6
			c4.5,0.2,9,0,13.7,0C561.4,146.3,562.9,143.1,564.3,140.1z M390.6,120.7c3-1.8,6.1-1.3,9.2-1.3c2.9-0.1,5.5,0.4,8.1,1.7
			c2.3,1.2,4.9,1.7,7.6,1c2.3-0.6,4.6-1.3,6.9-1.9c2.7-0.7,5.3-2.1,8.2-1.1c2.9,1,5.8,1.7,8.8,2.3c1.5,0.3,3.2,0.3,4.8,0
			c3.6-0.7,7.2-1.6,10.9,0.5c1.6-2.9,4.4-4.9,4.9-8.3c-0.4-0.3-0.5-0.5-0.7-0.5c-5,0.2-9.9,0-14.8-1.4c-0.2-0.1-0.4,0-0.6,0
			c-3.3-0.3-6.6,0.2-9.6,1.4c-4.6,1.8-8.9,1.2-13.1-1.2c-2.3-1.3-4.8-1.6-7.4-0.4c-5.4,2.4-10.8,2.6-16.3,0.2
			c-1.1-0.5-2.2-0.9-3.4-1.1c-1.6-0.4-3.2-0.3-4.7,0.9C389.7,114.6,390.1,117.6,390.6,120.7z M393.5,134.1c1.6-0.6,2.9-1.4,4.2-1.5
			c3.8-0.4,7.6-0.1,11.2,1.3c5,2,10.2,1.8,14.9-0.3c5-2.2,9.6-2,14.4,0c1.9,0.8,4.1,1.2,6,1.8c2.9-3.6,5.5-6.8,8.1-10.1
			c-0.1-0.2-0.2-0.4-0.4-0.7c-1.7,0.1-3.5-0.2-5.1,0.3c-3.6,1.1-7.1,0.9-10.5-0.4c-5.4-1.9-10.7-2.1-16.1,0.2
			c-4.2,1.8-8.8,1.9-13-0.2c-3.5-1.7-7-1.9-10.7-2c-2,0-3.6,0.6-5.2,2.2C392,128,392.7,131,393.5,134.1z M441.6,139.1
			c-1.8-0.7-3.1-1.1-4.2-1.6c-4.2-2.1-8.3-1.9-12.6-0.1c-3.7,1.6-7.7,2.3-11.8,1.4c-3.2-0.7-6.3-1.6-9.4-2.4c-3.2-0.8-6.2-0.2-9.2,2
			c1.1,2.9,2.2,5.8,3.1,8.3c2.1-0.9,3.7-2,5.5-2.3c3.1-0.5,6.4-0.1,9.2,1.3c3.2,1.6,6.2,1.4,9.5,0.5c1.5-0.4,3-0.5,4.5-0.7
			c3-0.4,5.7,0.7,8.5,1.9C437,144.6,439.2,142,441.6,139.1z M529.1,121c5.9,0.1,10.8-5.6,9.9-11.3c-0.6-3.9-3.4-7-7.1-7.3
			c-3.5-0.3-6.9,0.4-9.7,2.8c-2.9,2.5-4,7.7-1.9,10.6C522.4,118.8,525.4,120.7,529.1,121z M501.4,108.4c-1.1,4.3,2.4,11,7.9,14.8
			c4.3,3,12.9,3.4,16.7,0.8c-6.7-2.1-10.3-3.7-10.9-10C510.2,113.3,505.6,111.1,501.4,108.4z M521.2,100.4c-0.2-0.6-0.5-1.6-0.9-2.4
			c-1.5-2.8-3.2-5.3-6.7-6.1c-2.8-0.7-9.5-0.4-12,5.3c-1.6,2.7-0.8,6.7,1.7,7.6c3.9,1.5,8,2.2,12.1,1.6c0.7-0.1,1.6-0.6,2.1-1.2
			C518.8,103.6,519.9,102.1,521.2,100.4z M432,150.5c-0.9-0.4-1.2-0.6-1.6-0.7c-3.2-1.1-6.2-0.1-9.3,0.7c-3.4,0.8-6.5,0.5-9.7-1.1
			c-3.9-1.8-8.1-2.5-12.2,0.7c1.2,2,2.3,4,3.4,5.9c5.6-1.4,10.3-1,15.3,0.9c2.1,0.8,4.7,1.6,6.7,0.3
			C427.2,155.3,429.4,152.9,432,150.5z M503.1,122.5c-0.5,0.7-1,1.6-1.5,2.4c-0.7,1.3-1.6,2.5-2.1,3.9c-1,2.8,0.6,5.2,3.5,5.6
			c3.2,0.5,6.8-2.1,7.9-5.5C508.2,126.7,505.5,124.5,503.1,122.5z M411.6,167.2c2.7-1.9,5.2-3.6,7.9-5.5c-4.8-2.6-9.3-3.8-14.5-2.2
			c0.6,0.9,1,1.5,1.5,2.1C408.1,163.4,409.7,165.1,411.6,167.2z M491.6,141.6c4.1,2.3,8.4,1.3,12.2-2.6c-2.2-1.2-4.4-2.4-6.8-3.7
			C494.5,136.3,492.1,138,491.6,141.6z M493.9,146.7c-5.3-2.5-4.4-2.5-8,1.9c-0.2,0.2-0.4,0.5-0.6,0.8c-0.6,0.8-1.4,1.6-0.6,2.6
			c0.9,1.2,2.1,1.1,3.2,0.5C490.4,151.2,493,149.9,493.9,146.7z M475,160.4c3.3,1.1,6.5-0.4,9.2-4.1c-0.8-1.1-1.6-2.4-3.3-1.7
			C478.2,155.6,476,157.2,475,160.4z M510.2,87.8c-2.5-0.3-4.8-0.6-7.1-0.9c-1.2,2.5-1.2,2.5-1,4C504.3,88.9,506.6,88.1,510.2,87.8z
			"/>
		<path d="M528.4,116.9c-1.8-1.5-2.3-2.9-1.7-4.5c0.6-1.5,2.3-1.8,3.4-0.5C531.5,113.6,531,115.2,528.4,116.9z"/>
		<path d="M512.6,100.7c0,2.1-1,3.1-3.2,3.2c-1.9,0.1-2.8-0.7-2.8-2.3c0-1.6,1.8-3.8,3.3-3.8C511.6,97.7,512.6,98.9,512.6,100.7z"/>
		<path class="st4" d="M501.4,108.4c-1.1,4.3,2.4,11,7.9,14.8c4.3,3,12.9,3.4,16.7,0.8c-6.7-2.1-10.3-3.7-10.9-10
			C510.2,113.3,505.6,111.1,501.4,108.4z"/>
		<path class="st4" d="M503.1,122.5c-0.5,0.7-1,1.6-1.5,2.4c-0.7,1.3-1.6,2.5-2.1,3.9c-1,2.8,0.6,5.2,3.5,5.6
			c3.2,0.5,6.8-2.1,7.9-5.5C508.2,126.7,505.5,124.5,503.1,122.5z"/>
		<path class="st4" d="M491.6,141.6c4.1,2.3,8.4,1.3,12.2-2.6c-2.2-1.2-4.4-2.4-6.8-3.7C494.5,136.3,492.1,138,491.6,141.6z"/>
		<path class="st4" d="M493.9,146.7c-5.3-2.5-4.4-2.5-8,1.9c-0.2,0.2-0.4,0.5-0.6,0.8c-0.6,0.8-1.4,1.6-0.6,2.6
			c0.9,1.2,2.1,1.1,3.2,0.5C490.4,151.2,493,149.9,493.9,146.7z"/>
		<path class="st4" d="M475,160.4c3.3,1.1,6.5-0.4,9.2-4.1c-0.8-1.1-1.6-2.4-3.3-1.7C478.2,155.6,476,157.2,475,160.4z"/>
		<path class="st5" d="M390.6,120.7c3-1.8,6.1-1.3,9.2-1.3c2.9-0.1,5.5,0.4,8.1,1.7c2.3,1.2,4.9,1.7,7.6,1c2.3-0.6,4.6-1.3,6.9-1.9
			c2.7-0.7,5.3-2.1,8.2-1.1c2.9,1,5.8,1.7,8.8,2.3c1.5,0.3,3.2,0.3,4.8,0c3.6-0.7,7.2-1.6,10.9,0.5c1.6-2.9,4.4-4.9,4.9-8.3
			c-0.4-0.3-0.5-0.5-0.7-0.5c-5,0.2-9.9,0-14.8-1.4c-0.2-0.1-0.4,0-0.6,0c-3.3-0.3-6.6,0.2-9.6,1.4c-4.6,1.8-8.9,1.2-13.1-1.2
			c-2.3-1.3-4.8-1.6-7.4-0.4c-5.4,2.4-10.8,2.6-16.3,0.2c-1.1-0.5-2.2-0.9-3.4-1.1c-1.6-0.4-3.2-0.3-4.7,0.9
			C389.7,114.6,390.1,117.6,390.6,120.7z"/>
		<path class="st5" d="M393.5,134.1c1.6-0.6,2.9-1.4,4.2-1.5c3.8-0.4,7.6-0.1,11.2,1.3c5,2,10.2,1.8,14.9-0.3c5-2.2,9.6-2,14.4,0
			c1.9,0.8,4.1,1.2,6,1.8c2.9-3.6,5.5-6.8,8.1-10.1c-0.1-0.2-0.2-0.4-0.4-0.7c-1.7,0.1-3.5-0.2-5.1,0.3c-3.6,1.1-7.1,0.9-10.5-0.4
			c-5.4-1.9-10.7-2.1-16.1,0.2c-4.2,1.8-8.8,1.9-13-0.2c-3.5-1.7-7-1.9-10.7-2c-2,0-3.6,0.6-5.2,2.2C392,128,392.7,131,393.5,134.1z
			"/>
		<path class="st5" d="M441.6,139.1c-1.8-0.7-3.1-1.1-4.2-1.6c-4.2-2.1-8.3-1.9-12.6-0.1c-3.7,1.6-7.7,2.3-11.8,1.4
			c-3.2-0.7-6.3-1.6-9.4-2.4c-3.2-0.8-6.2-0.2-9.2,2c1.1,2.9,2.2,5.8,3.1,8.3c2.1-0.9,3.7-2,5.5-2.3c3.1-0.5,6.4-0.1,9.2,1.3
			c3.2,1.6,6.2,1.4,9.5,0.5c1.5-0.4,3-0.5,4.5-0.7c3-0.4,5.7,0.7,8.5,1.9C437,144.6,439.2,142,441.6,139.1z"/>
		<path class="st5" d="M432,150.5c-0.9-0.4-1.2-0.6-1.6-0.7c-3.2-1.1-6.2-0.1-9.3,0.7c-3.4,0.8-6.5,0.5-9.7-1.1
			c-3.9-1.8-8.1-2.5-12.2,0.7c1.2,2,2.3,4,3.4,5.9c5.6-1.4,10.3-1,15.3,0.9c2.1,0.8,4.7,1.6,6.7,0.3
			C427.2,155.3,429.4,152.9,432,150.5z"/>
		<path class="st5" d="M411.6,167.2c2.7-1.9,5.2-3.6,7.9-5.5c-4.8-2.6-9.3-3.8-14.5-2.2c0.6,0.9,1,1.5,1.5,2.1
			C408.1,163.4,409.7,165.1,411.6,167.2z"/>
		<path class="st10" d="M414.2,169.9c28.8,25.1,73.3,24.4,80.7,23.9c14.7-1.3,27.6-7,35.9-11.8c8.3-4.8,23.2-23.3,26.2-28.5
			c-18.3,1-33.5-4.6-44.4-19.8c-1.2,1.1-2.4,2.2-3.6,3.3c-1.3,1.3-1.8,3.1-1.3,4.7c1.1,3.6,3.3,6.6,7.1,7.9c2.9,1,3.5,2.8,3.7,5.6
			c0.4,4.7,0.9,9.5,3.4,13.8c0.5,0.8,1,1.7,1.3,2.6c0.1,0.4,0,1.3-0.3,1.4c-0.4,0.3-1.3,0.4-1.7,0.2c-0.7-0.4-1.4-1.1-1.7-1.8
			c-1-2-2.1-4.1-2.6-6.3c-0.9-3.9-1.4-7.9-2.2-12c-5-1-6.9-6.1-10.4-9.3c-1.3,0.6-2.4,1.5-3.6,1.7c-1.9,0.4-2.5,1.9-2.7,3.3
			c-0.3,2.1-0.2,4.3-0.1,6.4c0,0.7,0.3,1.6,0.7,2.1c2.2,2.8,3.9,6,7,8c1.3,0.8,1.7,2.1,1.6,3.6c0,2.5,0.2,5,0.5,7.4
			c0.2,1.6,1.1,3,1.4,4.6c0.1,0.7-0.3,1.5-0.5,2.3c-0.7-0.2-1.6-0.3-1.9-0.8c-0.8-1-1.5-2.2-1.8-3.4c-0.7-3.7-1.2-7.4-1.8-10.7
			c-2-2.5-4-4.7-5.5-7.1c-1.5-2.4-2.6-5.1-4-7.8c-1.3,0.8-2.6,2-4.1,2.5c-1.8,0.6-1.8,2.6-3.1,3.5c-0.5,0.3-0.8,1-1.3,1.4
			c-3.9,3.8-8.4,4.7-12.6,2.4c-1,0.4-1.9,0.9-2.9,1.3c-2.8,1.1-5.6,2.3-8.4,3.4c-2.7,1.1-5.2,0.2-7.8-0.9c0.6-0.7,1.2-1.3,1.9-1.4
			c5-0.6,9.3-2.7,13.6-5.1c1.5-0.8,2.4-1.9,3-3.5c0.6-1.6,2-3,3.2-4.4c0.6-0.7,1.5-1.2,2.4-1.8c-4-0.7-7.8-1.4-11.9-2.2
			c-4.1,2.7-9.1,4-14.2,4.9c-1.1,0.2-2.1,0.2-2.5-0.9c-0.5-1.3,0.6-2,1.5-2.5c0.5-0.2,1.1-0.2,1.6-0.4c4.8-1.8,11.8-5.7,13.8-6.5
			s6.8,2.9,10.3,3.1c3.8,0.2,7-1.2,9.9-3.9c1.9-1.8,2.6-3.5,2.6-6.2c-5.2,0.7-10.4,0.2-15-2.4c-5.7,4.1-11.7,6.4-18.6,6.1
			c-1-0.1-1.9-0.2-1.8-1.2c0-0.7,0.5-1.7,1.1-2.1c0.8-0.5,1.9-0.6,2.8-0.6c6.3,0,13.9-6.7,16-6.9s16.5,4.8,22.4,1.7
			c0.3-1.8,0.5-3.7,0.9-6c-12.4,1.3-23.5-1.3-33.4-8.3c-1,1.4-1.7,2.7-2.7,3.9c-3.6,4.6-7.3,9.1-10.7,13.9
			c-5.1,7.1-10.9,13.5-16.7,19.9C427.8,160.3,421.4,165,414.2,169.9z"/>
	</g>
	<path class="st10" d="M565.1,135.8c0.2-0.5,0.4-0.9,0.5-1.3c1.9-5.9,2.5-12.1,3.4-18.2c0.4-2.5,1-4.9,1.1-7.4
		c0.3-8.9,1.2-17.7,0.2-26.6c-0.4-3.8-1.1-7.5-1.9-11.2c-1.9-8.6-5.1-16.8-10.1-24.2C539.7,21.8,518.8,5.5,483,5.5
		c0.1,1.1,0.9,18.4,1.3,25.4c0.2,3.3-0.4,6.7-0.3,10.1c0.1,10-1.6,19.9-3.5,29.7c-0.7,3.8-1.6,7.7-2.8,11.4c-1,3.3-2.6,6.4-3.9,9.5
		c8.9,5.3,16.5,11.7,23.8,19c0.1-1,0.9-4.1-1.9-6.7c-1.7-1.3-3.2-3-4.5-4.7c-1.7-2.3-3.1-4.8-3.9-7.7c-0.2-0.7-1.3-4.8,1.5-5.3
		c2-0.3,1.9,1.9,2.7,5.4c0.8,3.5,2.2,6.2,5.7,8.3c0.4-3.7,0.6-6.3,1.1-9.6c0.5-3.2,1.2-9.4,4.3-8.5c7.4,2.3,20.5,1.9,27.3,1.3
		c1.6,3.2,1.2,3.9-2,4c-2,0-3.9,0.1-5.9,0.1c-3,0.1-6.1,0.3-9.1,0.5c6.1,1.8,8.7,6.4,10.3,11.8c1.3-0.2,2.5-0.3,3.7-0.6
		c3.5-0.9,7.8-1.2,11.7,3.4c2.7,3.1,4.1,9.7,2.7,12.6c-0.6,1.3-0.9,2.7-1.4,4.3c8.7-1.9,12.3-3.3,15.4-6c-2.2-2.2-4.5-4.4-6.7-6.6
		c-3.2-3.1-4.7-7.2-6.4-11.2c-0.4-1.1-0.2-2.4-0.2-3.6c0.3-0.1,0.5-0.2,0.8-0.3c0.7,0.7,1.5,1.4,1.9,2.3c0.9,1.6,1.5,3.4,2.3,5
		c0.7,1.3,1.3,2.8,2.4,3.8c2.8,3,5.8,5.8,8.8,8.6c2.4,2.2,2.1,4.4-0.7,5.9c-6,3.1-12.5,5-19.1,6.1c-1.7,0.3-3.5,0.7-5.8,1.1
		C544.9,125.6,555.9,128.2,565.1,135.8z"/>
	<path class="st10" d="M510.2,87.8c-2.5-0.3-4.8-0.6-7.1-0.9c-1.2,2.5-1.2,2.5-1,4C504.3,88.9,506.6,88.1,510.2,87.8z"/>
</g>
</svg>
