<?xml version="1.0" encoding="utf-8"?>
<!-- Generator: Adobe Illustrator 19.1.0, SVG Export Plug-In . SVG Version: 6.00 Build 0)  -->
<svg version="1.1" id="Calque_1" xmlns="http://www.w3.org/2000/svg" xmlns:xlink="http://www.w3.org/1999/xlink" x="0px" y="0px"
	 viewBox="0 0 172.6 179.7" style="enable-background:new 0 0 172.6 179.7;" xml:space="preserve">
<style type="text/css">
	.st0{fill:#FFFFFF;}
	.st1{fill:#41AB87;}
	.st2{fill:#E2EFE8;}
	.st3{fill:#010202;}
	.st4{fill:#DB5556;}
	.st5{fill:#6FA4C3;}
	.st6{fill:none;stroke:#DB5556;stroke-width:7;stroke-miterlimit:10;}
	.st7{fill:none;}
	.st8{fill:#FFFFFF;stroke:#DB5556;stroke-width:3;stroke-miterlimit:10;}
	.st9{fill:none;stroke:#DB5556;stroke-width:3;stroke-miterlimit:10;}
	.st10{fill:#C1C0C0;}
	.st11{fill:none;stroke:#C1C0C0;stroke-width:3;stroke-miterlimit:10;}
	.st12{fill:#FFFCFA;}
	.st13{fill:#F5D1CA;}
</style>
<g>
	<path d="M78.3,61.9c2.2-5.9,4.8-2.5,16.5-6.3c-1-5.3-4.1-21.6-4.4-24.3c-0.2-2,3-3.1,5.2-3.6c5.1-1.1,21.2-4.2,22.5-4.2
		c9.2-2.1,8.8,5.3,14.1,21.3c1.6,4.1,12.6-5.7,15.4,3c7.5,23.3,17.3,69.2,19.2,78.6c1.9,9.3,3.6,18.7,5.3,28.1
		c0.3,1.8,0.7,3.7,0.3,5.4c-0.3,1.4-1.3,3.1-2.5,3.7c-8.9,4.1-17.7,8.6-27.3,11.1c-8,2.1-16.2,3.5-24.3,5c-1.7,0.3-3.5-0.2-5.3-0.2
		c-3.3,0-4.7-1.8-5.5-4.8c-2.6-10.3-5.2-20.6-8-30.8c-3.6-13.6-7.1-27.1-11-40.6C85.1,90.9,76.1,67.8,78.3,61.9z M165.4,157.2
		c-3.9-19.1-17.5-74.7-24.3-102.9c-0.5-1.8-1.2-3.5-1.7-4.8c-18.8,5.2-37,10.1-55.3,15.2c5.3,18.1,10.5,35.9,15.7,53.8
		c5.2,17.9,8.7,36.1,14,53.5c7-1.4,13.1-2.6,19.3-3.7C137,167.6,160,159.9,165.4,157.2z M106.3,51.7c4.9-0.9,18.7-3.5,17.9-6.4
		c-0.8-2.9-4.2-13.8-5-16.6c-3.3,0.7-6.4,1.3-9.5,2c-3.2,0.8-9.6,1.6-13.1,2.5C99.7,49.8,99.4,52.9,106.3,51.7z"/>
	<path d="M21.2,80.6c1.1,3.7,12.4,5,18.7,0.2c0.5-0.2,1-0.5,1.4-0.8c1.4-1.1,3.4-2.4,2.1-4.3c-0.6-0.9-2.9-1.2-4.3-0.8
		c-2.2,0.5-4.3,1.6-6.4,2.6c-1,0.5-1.7,1.5-2.7,1.7c-1.1,0.2-2.7,0.1-3.4-0.6c-0.6-0.6-0.7-2.3-0.5-3.3c0.2-1,1-2,1.7-2.7
		c3.6-3.3,7.9-5,12.8-4.7c4.9,0.3,8.1,2.9,9,7.2c0.8,3.8-1.3,8.5-4.8,10.7c-8.1,5-16.3,4.8-24.6,0.5c-4.7-2.5-6.3-7.2-3.6-11.9
		c1.9-3.4,4.4-6.8,7.4-9.1c8.3-6.4,17.7-10.9,28-13.6c5.7-1.5,11.4-3.2,17.2-4.5c2.4-0.5,5.2-2.8,7.3,0.6c1,1.7-0.6,3.4-5.1,5.1
		c-3.7,1.4-7.5,2.6-11.3,3.4c-11.6,2.5-22.2,7.1-31.8,14.2C24.9,72.9,20.1,77,21.2,80.6z"/>
	<path d="M36.6,16.5c3.6-1.6,3.5,1.2,5.1,1c1.8-0.2,4.3-0.8,5-2.1c0.7-1.2,0-3.9-0.9-5.3c-1.8-2.6-4.4-4.1-7.9-3.3
		c-3.5,0.8-5.7,2.9-6.7,6.3c-2,6.7,1.1,13,7.7,15.7c0.8,0.3,1.7,0.7,2.5,1.1c9.5,4.4,19.5,5.8,29.8,5.3c2.7-0.1,5.4,0,8.1,0
		c0.7,0,1.7-0.2,2.1,0.1c1,1,2.4,2.3,2.6,3.6c0.3,1.9-1.6,2-3,2.1c-3.8,0.1-7.5,0.5-11.3,0.4c-7.7-0.2-15.5,0.2-22.7-3.1
		c-4.1-1.9-8.3-3.3-12.4-5.3c-10.5-5.1-11-22-5.3-28.9c3-3.7,7.3-4.3,11.7-4c5.6,0.4,13.4,9.7,11.9,17c-1.2,6-9.5,9.3-15.1,5.5
		C35.9,21.3,33,18.1,36.6,16.5z"/>
	<path d="M4.5,28.4c3.4,0,4,3.3,1.7,7.2c-1.3,2.2-0.6,3.6,0.9,5.2c3,3.2,7.1,4,11.1,5c9.5,2.2,18.9,0.8,28.2-1.5
		c2.1-0.5,4.2-1,6.3-1.3c2-0.2,3,1.1,3.2,2.9c0.2,1.8-1,2.6-2.5,2.8c-7.8,1.4-15.5,3.7-23.3,4.1C19.3,53.5,8.9,51.6,1.7,42
		C-2,37,1,28.4,4.5,28.4z"/>
	<path class="st1" d="M165.4,157.2c-3.9-19.1-17.5-74.7-24.3-102.9c-0.5-1.8-1.2-3.5-1.7-4.8c-18.8,5.2-37,10.1-55.3,15.2
		c5.3,18.1,10.5,35.9,15.7,53.8c5.2,17.9,8.7,36.1,14,53.5c7-1.4,13.1-2.6,19.3-3.7C137,167.6,160,159.9,165.4,157.2z"/>
	<path d="M108.3,33.2c-3.5,0-6.6,2.5-6.7,5.4c-0.1,4.1,3.1,7.8,6.8,7.8c3.9,0,6.5-2.3,6.5-5.9C115,36.6,111.9,33.2,108.3,33.2z
		 M108.3,41.9c-1.1,0-2.1-1.1-2.1-2.4c0-0.9,1-1.6,2-1.6c1.1,0,2,1,2,2.2C110.3,41.2,109.5,41.9,108.3,41.9z"/>
</g>
</svg>
