<?xml version="1.0" encoding="utf-8"?>
<!-- Generator: Adobe Illustrator 19.1.0, SVG Export Plug-In . SVG Version: 6.00 Build 0)  -->
<svg version="1.1" id="Calque_1" xmlns="http://www.w3.org/2000/svg" xmlns:xlink="http://www.w3.org/1999/xlink" x="0px" y="0px"
	 viewBox="0 0 961.3 877.7" style="enable-background:new 0 0 961.3 877.7;" xml:space="preserve">
<style type="text/css">
	.st0{fill:#FFFFFF;}
	.st1{fill:#41AB87;}
	.st2{fill:#E2EFE8;}
	.st3{fill:#010202;}
	.st4{fill:#DB5556;}
	.st5{fill:#6FA4C3;}
	.st6{fill:none;stroke:#DB5556;stroke-width:7;stroke-miterlimit:10;}
	.st7{fill:none;}
	.st8{fill:#FFFFFF;stroke:#DB5556;stroke-width:3;stroke-miterlimit:10;}
	.st9{fill:none;stroke:#DB5556;stroke-width:3;stroke-miterlimit:10;}
	.st10{fill:#C1C0C0;}
	.st11{fill:none;stroke:#C1C0C0;stroke-width:3;stroke-miterlimit:10;}
	.st12{fill:#FFFCFA;}
	.st13{fill:#F5D1CA;}
</style>
<g>
	<path class="st2" d="M950.6,506.6c-2.9,18.7-3.1,231.7-2.2,250.5c0.7,16-1.6,31.8-4.8,47.5c-3.1,15.2-5.2,30.5-4.8,46
		c0.1,5,0,10,0,15.6c-10,0.2-18.9,0.3-27.8,0.7c-13.6,0.5,2.2,1.3-11.4,1.8c-9.8,0.3,17.2,0.7,7.4,0.4c-30.4-1-60.9-2.5-91.3-3.5
		c-19.6-0.7-39.2-0.8-58.8-1.3c-9.8-0.2-19.5-0.6-29.3-0.8c-3.8-0.1-7.7,0.3-11.5,0.2c-16.2-0.2-32.5-0.2-48.7-0.7
		c-15.2-0.5-30.4-1.4-45.6-2.6c-19.2-1.5-38.4-3.2-57.5-5.3c-30-3.2-60.1-3.4-90.2-2.8c-19.1,0.4-38.1,1.4-57.2,1.6
		c-22.7,0.2-45.5,0.8-68.2-1.3c-8-0.8-16-0.6-24-1.1c-16.4-1-32.7-2.4-49.1-3.3c-10.3-0.6-20.6-0.7-30.9-0.8
		c-11.5-0.2-23.1-0.6-34.6-0.1c-10.5,0.4-20.9,1.6-31.3,2.8c-19.5,2.4-39,3.4-58.6,4c-13.1,0.4-26.2,1.4-39.3,1.9
		c-8.2,0.3-16.5,0.1-24.7,0.3c-5.8,0.1-11.5,0.8-17.3,0.7c-5.9-0.2-11.7-1-18.2-1.7c0-10,0-19.4,0-28.8c0.1-17.1,0.4-34.2,0.3-51.3
		c-0.1-12.6-0.3-25.2-0.9-37.7c-0.4-7.7-1.9-209.6-2.6-217.3c-0.5-5.7-0.8-11.4-0.9-17c-0.3-14.4-0.5-28.9-0.7-43.3
		c-0.2-15.8-0.3-31.6-0.4-47.4c0-1.3,0.2-2.6,0.4-4.6L15.1,397c0-3.4,0.1-6.6,0-9.7c-0.7-22-1.3-44-2.3-65.9
		c-0.5-10.7-2.3-21.4-2.6-32.1c-0.5-15.6-0.4-31.2-0.1-46.8c0.3-15.9,1.1-31.8,1.6-47.8c0.2-5.5,0.1-11.1,0-16.6
		c-0.2-9.6-0.5-19.1-0.8-28.7c-0.4-10.9-0.7-21.8-1.3-32.7c-0.6-11.1-0.9-22.1,0-33.2c0.9-11,0.8-22.1,1.3-33.2
		c0.3-7,0.8-14.1,1.3-21.1c0.1-1.5,0.2-3,0.3-4.5c0.3-7.8,0.5-8,8.5-10.1c6.5-1.7,13-2.6,19.7-2.5c9.8,0.2,19.6,0.4,29.4,0.7
		c15.4,0.5,30.7,1.4,46.1,1.8c14,0.4,28,0.7,42,0.4c21-0.5,42-1.5,62.9-2.3c16.1-0.6,32.1-1.4,48.2-1.9c10.7-0.3,21.3-0.5,32-0.2
		c7.7,0.2,15.3,1.2,23,1.5c14.9,0.6,29.7,0.9,44.6,1.4c8.2,0.3,16.4,0.8,25.2,1.2l10.2-0.1c5-0.2,9.6-0.5,14.3-0.7
		c22.3-0.8,44.7-1.8,67-2.4c20.8-0.6,41.5-2.2,62.4-1.3c11,0.4,22.1,0.1,33.1,0.4c10.1,0.3,20.2,1.2,30.3,1.8
		c11.9,0.7,23.7,1.5,35.6,2c14.3,0.6,28.7,1.3,43,1.5c18.5,0.2,37-0.1,55.6-0.2c22-0.1,44.1-0.6,66.1-0.1c31.8,0.7,63.6,2.4,95.5,3
		c16.1,0.3-4.6-0.8,11.5-1.3c11-0.3-7.5-0.5,3.5,1.1c5,0.7,10.1,0.8,15.1,0.9c2.6,0.1,3.8,1.2,4.3,3.5c0.4,1.6,1,3.3,1.1,4.9
		c0.1,5.9,0.6,11.8-0.2,17.6c-2,14.7-2.6,29.4-2.6,44.2c0,4.7-0.4,9.4-1,14.1c-1.1,9-1.6,18-1.1,27.1c0.3,5.5-0.1,11.1-0.9,16.6
		c-1.7,11.9-1,23.7,0.3,35.6c1,8.8,1.6,17.7,1.6,26.6c-0.1,18-0.9,35.9-1.2,53.9c-0.1,6.5,0.1,13.1,1.1,19.6
		c3,18.1,4.8,36.3,5.7,54.6c0.5,11.1,1.4,22.1,1.9,33.2c0.2,5,0,10.1,0,15.1c0,16.3,2.2,32.5,4.1,48.7c1.3,10.5,1.5,21.1,1.9,31.6
		C952.4,479.8,952.7,493.3,950.6,506.6z"/>
	<path class="st3" d="M961.3,466.5c-0.5-15.4-2.1-30.8-2.9-46.2c-0.6-13.1-0.7-26.1-0.9-39.2c-0.1-4,0.3-8-0.1-12
		c-0.8-8-2.4-15.9-2.9-23.9c-0.9-13.5-1.3-27.1-2-40.6c0-0.8-0.1-1.7-0.4-2.4c-3.7-7.9-3.7-16.5-4.7-24.8c-0.7-5.6-0.3-11.3-0.5-17
		c-0.1-5.8-1-11.8-0.3-17.5c1.8-14.9,0.5-29.7-1.3-44.5c-1.7-14.7-2-29.3,0.5-44c1.3-7.8,2.5-15.5,1.7-23.5
		c-0.5-5.1-1.1-10.4-0.4-15.5c1.2-8.9,1.1-17.9,2.8-26.9c2-10.5,2.8-21.2,2.2-32c-0.2-2.7,0.3-5.4,0.1-8c-0.5-6.5-1.2-12.9-1.9-19.4
		c-0.3-3-0.3-6.1-1.3-8.9c-1-2.7-2.5-5.6-4.7-7.5c-1.7-1.5-4.8-1.8-7.3-2c-8.4-0.7-16.8-1.2-25.1-1.6c-9.6-0.5,10.3-1.2,0.7-1.1
		c-10.7,0.1-21.3,1.1-32,1.6c-17.6,0.8,1.6,1.8-16.1,0.3c-12.2-1.1-24.5-1.2-36.7-1.6c-4.5-0.2-9.1,0.1-13.6-0.1
		c-10.8-0.5-21.7-1.3-32.5-1.6c-10.3-0.3-20.6,0-30.9,0.1c-17.1,0.1-34.2,0.2-51.3,0.4c-3.6,0-7.3,0.3-10.9,0.1
		c-6.3-0.4-12.5-1.2-18.7-1.7c-7-0.5-14-0.8-20.9-1.1c-13.6-0.6-27.2-1.3-40.8-1.7c-18.4-0.5-36.7-0.8-55.1-1.2
		c-9.4-0.2-18.9-0.3-28.3-0.2c-7.5,0-15,0-22.5,0.4c-20.2,1.1-40.5,2.6-60.7,3.7c-12.4,0.6-24.8,1.2-37.2,1
		c-15.4-0.3-30.7-1.5-46-2.3c-3.3-0.2-6.6-0.1-9.9-0.2C343.1,3.9,338,4,333,3.5c-6.6-0.7-13-2.5-19.6-2.7c-15-0.6-30-1.3-45.1-0.1
		c-2.8,0.2-5.6,0.4-8.3,0.6c-10.3,0.8-20.6,1.6-30.8,2.5c-2.4,0.2-4.9,0.6-7.3,0.8c-3.5,0.3-6.9,0.7-10.4,0.8
		c-9.1,0.3-18.2,0.5-27.3,0.8c-5.6,0.2-11.1,0.9-16.7,1c-7,0.1-13.9-0.2-20.9-0.3c-14.5-0.2-29-0.5-43.5-0.7
		C97.4,6,91.7,5.8,85.9,5.7c-11.5-0.2-23-0.3-34.5-0.5c-5.6-0.1-11.1-0.8-16.7-0.7C25.8,4.6,17.5,7.2,10.1,12
		c-1.1,0.7-1.9,1.9-2.5,3.1C4.5,21.4,2.9,27.9,4,35c0.2,1.2,0.2,2.3,0.2,3.5c-0.3,10-0.6,20-1,30C2.4,84.7,1.7,101,1,117.2
		c-0.1,2.2-0.8,4.3-0.8,6.5c-0.2,13.1-0.4,26.1,0.6,39.2c1.6,19.7,2.4,39.4-0.2,59.2c-0.7,5.6,0.2,11.3,0.3,17
		c0.1,7.4,0,14.8,0.3,22.1c0.4,8.4,1.2,16.7,1.6,25.1c0.8,18.1,1.5,36.2,2.3,54.3c0.3,7.9,0.9,15.8,1,23.6c0.1,7-0.4,14.1-0.5,21.1
		c-0.1,3.7,0.4,7.4,0.1,11C4.9,408,5,419.8,6.8,431.4c1.2,7.4,1.2,14.7,1.5,22c0.5,12.5-0.4,25.1-0.2,37.7
		c0.3,14.2,1.2,28.5,1.7,42.7c0.3,9.7,0.4,213.7,0.4,223.4c0,3.7-0.8,7.3-0.8,11c0,7.1,0.2,14.3,0.3,21.4c0,4.6-0.6,9.3,0,13.9
		c0.7,5.5,1.5,10.9,1.6,16.4c0.1,8,0.7,16,1.3,24.1c0.3,4.2,1.1,8.3,1.6,12.4c0.7,6.1,5,8.9,10.5,9.5c10.4,1.1,20.9,1.5,31.4,1.9
		c5.4,0.2,10.8-0.1,16.2-0.4c7.8-0.4,15.7-0.7,23.5-1.3c9.4-0.6,18.8-1.5,28.2-2.1c4.9-0.3,9.8-0.2,14.7-0.5
		c4.7-0.3,9.4-0.8,14.1-1.3c8.6-0.9,17.3-1.8,25.9-2.8c2.6-0.3,5.3-0.3,7.8-0.9c9.2-2.4,18.6-3,28-3.4c19-0.7,38.1,0,57.1,1.7
		c12,1.1,24,2.2,36,3.3c7.8,0.7,15.7,1.3,23.5,2c5,0.4,10.1,1.3,15.1,1.3c14.3,0.1,28.6-0.1,42.9-0.3c11-0.1,22,0,33-0.4
		c10.5-0.4,20.9-1.5,31.4-1.8c14.5-0.5,29-0.6,43.5-0.8c2.6,0,5.2,0.1,7.9,0.3c7.8,0.5,15.7,1.1,23.5,1.5
		c10.3,0.5,20.6,0.7,30.9,1.4c19,1.4,37.9,3,56.9,4.6c3.3,0.3,6.5,1.8,9.7,1.8c12.9,0.2,25.9,0.1,33.9,0.1
		c19.9,0.9,34.9-0.3,49.9,0.9c15.8,1.4,31.7,0.9,47.6,1.5c12.2,0.5,24.4,1.4,36.6,1.9c6.1,0.3,12.2,0,18.4,0.1
		c7,0.1,13.9,0.3,20.9,0.5c13.8,0.3,33.9,2.9,48.6,2.8c11-0.1,22,0.2,33,0.2c8.2-0.1-13-0.4-4.8-0.7c10.1-0.4,20-3.2,30.2-1.1
		c1.1,0.2,4.4-0.9,4.8-1.9c2.6-6.4,4.9-12.8,5.8-19.4c1.2-9.1,0.5-18.4,0.6-27.6c0-2.2-0.2-4.4,0.1-6.5c0.5-3.8,1.4-7.6,2-11.4
		c1-7.1,1.8-14.3,2.7-21.4c1.3-10.1,3.2-20.2,2.2-30.5c-0.3-3-0.4-6-0.4-9c0-3.3,0.8-6.8,0.3-10c-2.4-16.8,0.6-227.7,1.7-244.4
		C960.5,484.9,961.6,475.7,961.3,466.5z M950.6,506.6c-2.9,18.7-3.1,231.7-2.2,250.5c0.7,16-1.6,31.8-4.8,47.5
		c-3.1,15.2-5.2,30.5-4.8,46c0.1,5,0,10,0,15.6c-10,0.2-18.9,0.3-27.8,0.7c-13.6,0.5,2.2,1.3-11.4,1.8c-9.8,0.3,17.2,0.7,7.4,0.4
		c-30.4-1-60.9-2.5-91.3-3.5c-19.6-0.7-39.2-0.8-58.8-1.3c-9.8-0.2-19.5-0.6-29.3-0.8c-3.8-0.1-7.7,0.3-11.5,0.2
		c-16.2-0.2-32.5-0.2-48.7-0.7c-15.2-0.5-30.4-1.4-45.6-2.6c-19.2-1.5-38.4-3.2-57.5-5.3c-30-3.2-60.1-3.4-90.2-2.8
		c-19.1,0.4-38.1,1.4-57.2,1.6c-22.7,0.2-45.5,0.8-68.2-1.3c-8-0.8-16-0.6-24-1.1c-16.4-1-32.7-2.4-49.1-3.3
		c-10.3-0.6-20.6-0.7-30.9-0.8c-11.5-0.2-23.1-0.6-34.6-0.1c-10.5,0.4-20.9,1.6-31.3,2.8c-19.5,2.4-39,3.4-58.6,4
		c-13.1,0.4-26.2,1.4-39.3,1.9c-8.2,0.3-16.5,0.1-24.7,0.3c-5.8,0.1-11.5,0.8-17.3,0.7c-5.9-0.2-11.7-1-18.2-1.7c0-10,0-19.4,0-28.8
		c0.1-17.1,0.4-34.2,0.3-51.3c-0.1-12.6-0.3-25.2-0.9-37.7c-0.4-7.7-1.9-209.6-2.6-217.3c-0.5-5.7-0.8-11.4-0.9-17
		c-0.3-14.4-0.5-28.9-0.7-43.3c-0.2-15.8-0.3-31.6-0.4-47.3c0-1.3,0.2-2.6,0.4-4.6l-0.8-10.9c0-3.4,0.1-6.6,0-9.7
		c-0.7-22-1.3-43.9-2.3-65.9c-0.5-10.7-2.3-21.4-2.6-32.1c-0.5-15.6-0.4-31.2-0.1-46.8c0.3-15.9,1.1-31.8,1.6-47.8
		c0.2-5.5,0.1-11.1,0-16.6c-0.2-9.6-0.5-19.1-0.8-28.7c-0.4-10.9-0.7-21.8-1.3-32.7c-0.6-11.1-0.9-22.1,0-33.2
		c0.9-11,0.8-22.1,1.3-33.2c0.3-7,0.8-14.1,1.3-21.1c0.1-1.5,0.2-3,0.3-4.5c0.3-7.8,0.5-8,8.5-10.1c6.5-1.7,13-2.6,19.7-2.5
		c9.8,0.2,19.6,0.4,29.4,0.7c15.4,0.5,30.7,1.4,46.1,1.8c14,0.4,28,0.7,42,0.4c21-0.5,42-1.5,62.9-2.3c16.1-0.6,32.1-1.4,48.2-1.9
		c10.7-0.3,21.3-0.5,32-0.2c7.7,0.2,15.3,1.2,23,1.5c14.9,0.6,29.7,0.9,44.6,1.4c8.2,0.3,16.4,0.8,25.2,1.2l10.2-0.1
		c5-0.2,9.6-0.5,14.3-0.7c22.3-0.8,44.7-1.8,67-2.4c20.8-0.6,41.5-2.2,62.4-1.3c11,0.4,22.1,0.1,33.1,0.4
		c10.1,0.3,20.2,1.2,30.3,1.8c11.9,0.7,23.7,1.5,35.6,2c14.3,0.6,28.7,1.3,43,1.5c18.5,0.2,37-0.1,55.6-0.2
		c22-0.1,44.1-0.6,66.1-0.1c31.8,0.7,63.6,2.4,95.5,3c16.1,0.3-4.6-0.8,11.5-1.3c11-0.3-7.5-0.5,3.5,1.1c5,0.7,10.1,0.8,15.1,0.9
		c2.6,0.1,3.8,1.2,4.3,3.5c0.4,1.6,1,3.3,1.1,4.9c0.1,5.9,0.6,11.8-0.2,17.6c-2,14.7-2.6,29.4-2.6,44.2c0,4.7-0.4,9.4-1,14.1
		c-1.1,9-1.6,18-1.1,27.1c0.3,5.5-0.1,11.1-0.9,16.6c-1.7,11.9-1,23.7,0.3,35.6c1,8.8,1.6,17.7,1.6,26.6c-0.1,18-0.9,35.9-1.2,53.9
		c-0.1,6.5,0.1,13.1,1.1,19.6c3,18.1,4.8,36.3,5.7,54.6c0.5,11.1,1.4,22.1,1.9,33.2c0.2,5,0,10.1,0,15.1c0,16.3,2.2,32.5,4.1,48.6
		c1.3,10.5,1.5,21.1,1.9,31.6C952.4,479.8,952.7,493.3,950.6,506.6z"/>
</g>
<g>
	<path class="st12" d="M183.3,173c9.5-0.1,18.5-0.2,27.5-0.4c11.7-0.3,23.4-0.7,35.1-1c3.6-0.1,7.2-0.1,10.8-0.1
		c10.2,0.2,20.3-0.5,30.4-1.2c4-0.3,8-0.5,12-0.7c1,0,2.1,0.1,3.1,0.3c3.4,0.5,3.5,0.9,4.3,4.3c2,9.2,1.5,18.5,2,27.8
		c0.4,7.5,1,15,1.1,22.4c0.2,8.3,0.1,16.7,0,25.1c-0.1,6.7-0.5,13.3-0.5,20c0,8,0.2,16.1,0.4,24.1c0.1,3.2-0.6,6.1-2.6,8.6
		c-0.5,0.6-1.3,1.1-2,1.2c-3.5,0.3-7,0.6-10.4,0.7c-7.4,0.1-14.8-0.1-22.2,0.1c-5.1,0.1-10.1,0.7-15.2,0.8c-3.3,0.1-6.5-0.1-9.8-0.3
		c-8-0.3-16-0.7-24-1c-0.8,0-1.7,0.2-2.5,0.2c-7,0.1-13.9,0.3-20.9,0.2c-4.1-0.1-8.2-0.6-12.3-1c-1.9-0.2-3.3-1.4-3.3-3.5
		c-0.1-3.2,0-6.3,0-9.5c-0.1-9.7,0-19.5-0.2-29.2c-0.3-11.2-0.9-22.4-1.2-33.6c-0.2-7,0.1-14,0.1-20.9c-0.1-9.7-0.3-19.4-0.4-29.2
		C182.6,175.9,183,174.6,183.3,173z"/>
	<path d="M183.3,173c9.5-0.1,18.5-0.2,27.5-0.4c11.7-0.3,23.4-0.7,35.1-1c3.6-0.1,7.2-0.1,10.8-0.1c10.2,0.2,20.3-0.5,30.4-1.2
		c4-0.3,8-0.5,12-0.7c1,0,2.1,0.1,3.1,0.3c3.4,0.5,3.5,0.9,4.3,4.3c2,9.2,1.5,18.5,2,27.8c0.4,7.5,1,15,1.1,22.4
		c0.2,8.3,0.1,16.7,0,25.1c-0.1,6.7-0.5,13.3-0.5,20c0,8,0.2,16.1,0.4,24.1c0.1,3.2-0.6,6.1-2.6,8.6c-0.5,0.6-1.3,1.1-2,1.2
		c-3.5,0.3-7,0.6-10.4,0.7c-7.4,0.1-14.8-0.1-22.2,0.1c-5.1,0.1-10.1,0.7-15.2,0.8c-3.3,0.1-6.5-0.1-9.8-0.3c-8-0.3-16-0.7-24-1
		c-0.8,0-1.7,0.2-2.5,0.2c-7,0.1-13.9,0.3-20.9,0.2c-4.1-0.1-8.2-0.6-12.3-1c-1.9-0.2-3.3-1.4-3.3-3.5c-0.1-3.2,0-6.3,0-9.5
		c-0.1-9.7,0-19.5-0.2-29.2c-0.3-11.2-0.9-22.4-1.2-33.6c-0.2-7,0.1-14,0.1-20.9c-0.1-9.7-0.3-19.4-0.4-29.2
		C182.6,175.9,183,174.6,183.3,173z M187.8,297.8c0.9,0.1,1.5,0.2,2.1,0.2c8.6,0.2,17.1,0.4,25.7,0.4c6.1,0,12.3-0.4,18.4-0.4
		c7.2,0,14.3,0.3,21.5,0.4c14.1,0.1,28.1,0.1,42.2,0.1c1.9,0,3.7-0.2,5.8-0.4c0.1-1.4,0.3-2.6,0.3-3.7c-0.2-5.7-0.4-11.4-0.6-17
		c-0.3-10.4-0.5-20.7-0.6-31.1c-0.1-6.6-0.1-13.1-0.2-19.7c-0.1-6.4-0.5-12.9-0.6-19.3c-0.2-9.4-0.3-18.8-0.6-28.2
		c0-1.8-0.4-3.5-0.7-5.4c-2.1,0-4-0.1-5.9,0c-5.9,0.4-11.8,0.9-17.7,1.1c-8,0.3-16,0.5-24,0.6c-15.1,0.3-30.2,0.5-45.4,0.7
		c-6.1,0.1-12.3,0.1-18.4,0.2c-1,0-2,0.2-2.9,0.3c0.1,5,0.3,9.7,0.4,14.3c0.1,3.9,0.1,7.8,0.2,11.7c0,0.5,0,1,0,1.6
		c-0.1,8.1-0.4,16.3-0.3,24.4c0.2,10.6,0.9,21.1,1.2,31.7c0.2,7.4,0.1,14.8,0.1,22.2C187.8,287.5,187.8,292.4,187.8,297.8z"/>
	<g>
		<path class="st4" d="M228,248.2c1.2-2.2,2.1-3.9,3.2-5.5c0.3-0.5,0.6-1.3,1.6-0.9c1,0.4,0.8,1.3,0.8,2c0,0.6-0.5,1.2-0.8,1.8
			c-0.7,1.4-1.5,2.9-2.2,4.3c3.2,2.4,6.6,3.1,10.2,3.6c9.5,1.3,16.6-2.7,22.3-9.7c2.5-3,2.8-6.8,2.9-10.4c-1.7-0.9-3.1-1.6-4.4-2.5
			c-0.4-0.3-0.8-1-0.4-1.8c0.3-0.8,1.3-0.4,1.8-0.2c0.9,0.3,3.3,1.9,3.4,1.8c-0.5-3.2-1.3-5.5-2.4-7.6c-2-4-4.7-7.4-8.7-9.8
			c-3.5-2.1-7.7-3.7-11.8-3c-3.8,0.6-7.4,1.2-10.8,2.9c-7.1,3.6-12.1,9.4-13.4,17.6c-0.4,2.8,0.6,5.4,2,8c1.1-1.2,1.8-3.1,2.9-3.1
			c1.1-0.1,2.5,1.8,0.9,3.6c-0.6,0.7-1.2,1.3-1.5,2.1c-0.2,0.6-0.2,1.6,0.2,2.1C224.9,245.1,226.4,246.5,228,248.2z"/>
		<path d="M283.3,223.2c0.7-0.6,3.4-2,4-1.8c1.4,0.5,1.5,1.8,0.2,2.6c-3,1.9-8.2,5.7-9.5,5.3c-1.3-0.4-1.5-2.1,2.1-4.5
			c0.6-0.2,0.5-0.7-1.1-1.5c-1.6-0.8-4.6-3.2-9.4-3.7c2,4.3,2.7,7.3,3.1,12.5c3,1.3,6.3,2.5,8.1,5.6c1.1-0.5,1.4-1,3-1.3
			c1.6-0.2,2,2.6-0.3,3.7c-1.8,0.9-3.6,1.8-5.5,2.6c-1.6,0.7-3.3,0.6-3.3-1c0-1.6,2.2-2,3.3-3.2c-1.1-1.9-3.4-3-5.3-3.4
			c-1.3,4.6-2.9,6.7-5.4,10.7c2.5,3,3.6,7.5,4.1,11.8c1.1,0.4,2.5,0.3,3.6,0.8c1,0.5,0.5,1.7-0.1,2.4c-0.6,0.7-4.5,0.8-6.7,1.1
			c-0.6,0.1-1.4,0-2-0.3c-0.5-0.3-1.2-1-1.2-1.4c0.1-0.6,0.6-1.4,1.2-1.7c0.6-0.4,1.4-0.4,2.3-0.6c-0.2-3.8-0.7-7.3-3.2-10.4
			c-4.4,4.1-9,7.4-14.9,8.7c-0.2,2.9-0.4,5.7-0.6,8.4c4.8,0,5.5,1.6,5.1,2.6s-6.3,1.3-9.6,0.9c-1.5-0.2-2.7-1.9-2.2-2.7
			c0.6-0.8,2.3-0.6,3.8-0.8c0.1-2.4,0.3-4.9,0.4-7.6c-6.6-0.1-12.8-0.5-18.3-4.2c-1.2,3.1-2.5,6-2.6,9.1c1.2,0.7,2.4,1.2,3.3,2
			c1.3,1.1,1,2.4-0.7,2.7c-0.9,0.2-2.1,0.1-3-0.3c-1.1-0.5-1.9-1.1-3.2-0.6c-0.5,0.2-1.5-0.3-2.1-0.7c-0.5-0.3-0.9-1.2-0.8-1.7
			c0.1-0.5,0.9-0.9,1.4-1.1c0.6-0.2,1.3-0.2,1.9-0.2c0.9-3.1,2.1-6.8,3-9.9c0.2-0.7,0-1.1-0.5-1.6c-1.5-1.7-3.2-3.2-5.1-5
			c-1.5,3.3-3,6.5-4.4,9.7c-0.3,0.6-0.3,1.6,0.1,2.1c0.3,0.3,2.3,0.6,2.6,1.3c0.3,0.7-0.2,2.3-1.1,2.6c-0.9,0.3-3.1-0.8-4.5-1.2
			c-1.1-0.4-2.2-0.8-3.1-1.5c-0.4-0.3-0.9-1.1-0.5-2c0.3-0.6,2.6-0.4,2.9-0.3c2.1-4.5,4.1-8.9,6.3-13.5c-1.5-4.7-3.6-8.8-1.9-15.5
			c-2.9,2-5,3.9-6.5,6.3c2.4,2,2.6,3.6,0.8,4.5c-1.8,0.8-5.2-3.7-6.5-6.9c-0.1-0.3-0.5-1.6,0.1-2c0.6-0.4,1.7-0.2,2,0.2
			c0.5,0.5,0.9,1.2,1.4,2c2.9-3.5,6.4-6.1,10-8.5c0.8-0.5,1.4-1.4,1.9-2.1c2.9-3.9,6.2-7.5,10.6-9.6c7.5-4.1,16.7-4.2,22.3-2.9
			c4.6,1,9.2,3.8,12.2,7.2c1,1.1,1.9,1.7,3.3,1.9C274.2,217.4,278.8,219.7,283.3,223.2z M228,248.2c1.2-2.2,2.1-3.9,3.2-5.5
			c0.3-0.5,0.6-1.3,1.6-0.9c1,0.4,0.8,1.3,0.8,2c0,0.6-0.5,1.2-0.8,1.8c-0.7,1.4-1.5,2.9-2.2,4.3c3.2,2.4,6.6,3.1,10.2,3.6
			c9.5,1.3,16.6-2.7,22.3-9.7c2.5-3,2.8-6.8,2.9-10.4c-1.7-0.9-3.1-1.6-4.4-2.5c-0.4-0.3-0.8-1-0.4-1.8c0.3-0.8,1.3-0.4,1.8-0.2
			c0.9,0.3,3.3,1.9,3.4,1.8c-0.5-3.2-1.3-5.5-2.4-7.6c-2-4-4.7-7.4-8.7-9.8c-3.5-2.1-7.7-3.7-11.8-3c-3.8,0.6-7.4,1.2-10.8,2.9
			c-7.1,3.6-12.1,9.4-13.4,17.6c-0.4,2.8,0.6,5.4,2,8c1.1-1.2,1.8-3.1,2.9-3.1c1.1-0.1,2.5,1.8,0.9,3.6c-0.6,0.7-1.2,1.3-1.5,2.1
			c-0.2,0.6-0.2,1.6,0.2,2.1C224.9,245.1,226.4,246.5,228,248.2z"/>
		<path d="M251.9,234.9c0,0.9-0.9,1.3-1.5,1.8c-0.8,0.6-1.7,0.3-2.3-0.5c-1.2-1.6-2.4-3.2-3.4-5c-0.3-0.6-0.2-1.7,0.1-2.4
			c0.6-1.6,1.3-1.7,2.4-0.5c1.4,1.6,2.6,3.3,3.9,4.9C251.4,233.7,251.9,234.1,251.9,234.9z"/>
		<path d="M236.2,228.6c1-0.5,1.7-0.7,2.4-0.4c1.5,0.8,1.6,2.2,0.2,3.1c-1.5,1-2.8,2-3.6,3.6c-0.4,0.6-0.8,1.5-2,1.3
			c-1.2-0.2-1.8-2.7-0.3-4.3C233.9,230.6,235.2,229.1,236.2,228.6z"/>
	</g>
</g>
<g>
	<path class="st12" d="M37.1,437.7c-0.1-2.1-0.3-4.2-0.3-6.4c0-3.1,0.2-6.2,0.1-9.3c-0.1-5.3-0.4-10.6-0.7-15.9
		c-0.2-3.6-0.3-7.2-0.6-10.8c-0.4-5.2-1.2-10.3-1.6-15.5C33.4,370,32.5,360,33,350c0.2-4.5,0.4-9,0.5-13.4
		c0.2-7.9,0.3-15.8,0.4-23.6c0-1.7,0.6-2.3,2.6-2.5c2-0.2,4-0.3,6-0.4c4.6-0.3,9.2-0.7,13.7-1c1.7-0.1,3.4-0.1,5.1-0.1
		c8.4,0,16.8,0.1,25.2,0.1c8.7,0,17.4-0.1,26.1-0.2c4.4-0.1,8.8-0.5,13.2-0.6c6.4-0.1,12.8-0.1,19.1-0.1c2.4,0,4.8-0.2,7.2-0.4
		c2.7-0.2,5.4,1.6,5.8,4.3c0.4,2.3,0.5,4.8,0.6,7.1c0.1,5.8,0.2,11.6,0.1,17.4c-0.2,8.2-0.6,16.4-0.9,24.6
		c-0.3,8.4-0.7,16.8-0.9,25.2c-0.1,4.8-0.4,29.2-0.7,31.4c-0.6,4.5-1.4,9.1-2.1,13.6c-0.3,1.8-0.4,3.6-0.5,5.4
		c-0.1,1.2-0.7,2-1.9,1.9c-3.4-0.5-6.6,1-10,1.1c-3.8,0.1-7.6,0.8-11.3,0.8c-5.9,0-11.8-0.5-17.7-0.7c-2-0.1-4,0.1-6,0.2
		c-2.4,0.1-4.8,0.1-7.2,0.2c-9.2,0.1-18.4,0.3-27.6,0.3c-3.8,0-7.5-0.3-11.3-0.5c-3.9-0.3-7.8-0.7-11.6-1c-2.6-0.2-5.2-0.5-7.7-0.8
		C40.1,437.8,39,437.8,37.1,437.7z"/>
	<polygon class="st13" points="38.1,391.5 38.1,406.7 38.1,433.9 42.2,435.9 147.6,436.8 150.7,433.9 152.8,406.7 155,318.5 
		155,310.3 134.9,310.3 	"/>
	<path d="M37.1,437.7c-0.1-2.1-0.3-4.2-0.3-6.4c0-3.1,0.2-6.2,0.1-9.3c-0.1-5.3-0.4-10.6-0.7-15.9c-0.2-3.6-0.3-7.2-0.6-10.8
		c-0.4-5.2-1.2-10.3-1.6-15.5C33.4,370,32.5,360,33,350c0.2-4.5,0.4-9,0.5-13.4c0.2-7.9,0.3-15.8,0.4-23.6c0-1.7,0.6-2.3,2.6-2.5
		c2-0.2,4-0.3,6-0.4c4.6-0.3,9.2-0.7,13.7-1c1.7-0.1,3.4-0.1,5.1-0.1c8.4,0,16.8,0.1,25.2,0.1c8.7,0,17.4-0.1,26.1-0.2
		c4.4-0.1,8.8-0.5,13.2-0.6c6.4-0.1,12.8-0.1,19.1-0.1c2.4,0,4.8-0.2,7.2-0.4c2.7-0.2,5.4,1.6,5.8,4.3c0.4,2.3,0.5,4.8,0.6,7.1
		c0.1,5.8,0.2,11.6,0.1,17.4c-0.2,8.2-0.6,16.4-0.9,24.6c-0.3,8.4-0.7,16.8-0.9,25.2c-0.1,4.8-0.4,29.2-0.7,31.4
		c-0.6,4.5-1.4,9.1-2.1,13.6c-0.3,1.8-0.4,3.6-0.5,5.4c-0.1,1.2-0.7,2-1.9,1.9c-3.4-0.5-6.6,1-10,1.1c-3.8,0.1-7.6,0.8-11.3,0.8
		c-5.9,0-11.8-0.5-17.7-0.7c-2-0.1-4,0.1-6,0.2c-2.4,0.1-4.8,0.1-7.2,0.2c-9.2,0.1-18.4,0.3-27.6,0.3c-3.8,0-7.5-0.3-11.3-0.5
		c-3.9-0.3-7.8-0.7-11.6-1c-2.6-0.2-5.2-0.5-7.7-0.8C40.1,437.8,39,437.8,37.1,437.7z M37.6,313.8c-0.2,1.1-0.4,2.3-0.5,3.4
		c-0.1,5-0.5,9.9-0.2,15c0.3,6.6-0.4,13.2-0.6,19.7c-0.1,3.7-0.3,7.4-0.1,11.1c0.2,5.3,0.7,10.6,1.1,15.8c0.2,2.4,0.2,4.8,0.5,7.2
		c0.7,5.6,1.5,11.3,1.6,17c0.1,7.3,0.6,14.6,1,21.9c0.1,2,0,5.1,0,7.4c1.2,0,2,0.1,2.9,0.1c1.7,0,3.4-0.1,5.1,0
		c4.3,0.3,8.6,0.9,12.9,0.9c8.5,0.1,17-0.3,25.5-0.2c13.2,0.1,26.4,0.6,39.6,0.8c5,0.1,10-0.1,15-0.3c2.2-0.1,4.1-0.1,6.6-0.8
		c1.5-2.9,1.1-5.7,1.2-8.5c0.2-5.4,0.3-10.8,0.5-16.2c0.4-10.2,0.9-20.4,1.1-30.6c0.1-5.3-0.5-10.6-0.4-15.9c0-4.3,0.6-8.6,0.8-12.9
		c0.4-8.3,0.7-16.6,1.1-24.9c0-0.9,0.3-1.8,0.4-2.7c0.3-3.2,0.5-6.3,0.3-9.5c-0.7-0.1-1.1-0.1-1.4-0.1c-7.3,0-14.6,0.1-21.9,0.1
		c-0.5,0-1,0-1.5,0c-8.8,0.2-17.5,0.4-26.3,0.6c-2,0-4-0.1-6-0.1c-8.5,0-17,0.2-25.5,0C59.3,311.9,48.6,312.5,37.6,313.8z"/>
	<path d="M79.7,359.5c0.8,1.1,1.4,2,2.1,3c3,4,6.1,8,9.1,12c0.7,1,1.6,2.1,0.3,3c-1.1,0.8-2-0.1-2.8-1.2c-3.1-4.2-6.3-8.3-9.4-12.5
		c-0.5-0.7-1.1-1.3-1.8-2.2c-1.7,1.5-3.3,2.9-4.8,4.3c-5.1,5-28.4,22.8-32.4,25.7c-1.7,1.2-1.7,1.1-3.8-0.9
		c3.8-3.1,23.8-18,27.6-21.3c3.7-3.2,7.3-6.6,11.1-10c-0.9-1.1-1.6-2.1-2.5-3.3c-0.8,0.8-1.5,1.4-2.1,2.1c-1.9,1.8-2.8,1.7-4.5-0.3
		c-0.4-0.4-0.7-0.9-1-1.4c-3.5-5.1-6.9-10.2-10.4-15.4c-0.2-0.2-0.4-0.4-0.7-0.7c-0.9,0.2-3.5,1.9-4.5,2.5c-1.1,0.7-1.9,0.1-2.4-0.8
		c-0.5-0.9,0.3-1.3,1-1.8c2.4-1.4,4.7-2.9,7.4-4.6c-1.5-2.2-3-5.5-4-6.1c-0.9-0.6-1.5,0.1-3.1,1.1c-1.5,0.9-2.2-0.7-1.8-2.1
		c0.4-1.4,8.2-7.2,10.6-8.4c2.4-1.2,3.8,0.8,2.8,1.7c-1,0.9-1.7,1.5-2.5,2.3c1.5,2.1,3,4.2,4.7,6.6c1.7-1.3,3.2-2.6,4.8-3.8
		c0.7-0.5,1.4-1,2.2-1.2c0.5-0.1,1.4,0.3,1.7,0.8c0.3,0.4,0.1,1.4-0.2,1.8c-1.2,1.3-2.5,2.4-3.9,3.6c1.9,2.8,3.8,5.6,5.7,8.4
		c2,2.9,4.1,5.8,6,8.8c0.6,0.9,0.5,1.7-0.7,2.4c-1,0.6-1.8,1.6-2.8,2.6c0.9,1,1.6,1.9,2.6,3c1.1-0.9,2.1-1.7,3.1-2.6
		c4.9-4,9.9-8,14.8-12.1c3.2-2.7,6.1-5.6,9.4-8.2c7.3-6,14.7-11.9,22.1-17.9c0.6-0.5,7.7-7,8.3-7.5c1-0.8,2-0.8,2.7,0.2
		c0.8,1,0.1,1.6-0.7,2.4c-3.3,3.5-13.3,11.1-16.9,14.2c-7.7,6.6-15.5,13.1-23.3,19.6c-5,4.2-10.1,8.3-15.2,12.5
		C80.8,358.3,80.3,358.9,79.7,359.5z M68.2,355.8c2-1.7,3.7-3.1,5.3-4.6c0.8-0.7,0.9-1.6,0.2-2.6c-3.4-5-6.6-9.9-10.1-15.1
		c-2.6,1.7-5,3.2-7.4,4.8C59.4,344.8,63.9,350,68.2,355.8z M59.1,332.5c-1.7-2.4-3.2-4.4-4.8-6.6c-0.7,0.5-1.2,0.9-1.6,1.2
		c1.6,2.5,3,4.5,4.5,6.7C57.7,333.4,58.3,333,59.1,332.5z"/>
	<g>
		<path class="st4" d="M106.4,412.1c7,0.9,11.9-0.8,13.8-1.6c2.7-1.1,5.6-3.1,7.4-5.5c2.2-2.9,3-6.3,4-9.6c1.4-4.7,0-9.8-1.7-14.1
			c-1.7-4.3-6.4-6.3-10.7-7.2c-2.2-0.5-10.5-0.1-17.3,4.4c-3.7,2.5-5.4,6-7,9.6c-1,2.4-1.4,5.2-1.4,7.8c-0.1,2.2,0.6,4.4,1.1,6.6
			c0.1,0.7,0.6,1.3,1.1,2.2c0.3-1.1,0.4-2,0.8-2.5c0.5-0.5,1.5-1.1,2.1-1c1,0.2,1,1.1,0.7,2.1c-0.3,1.1-0.3,2.3-0.6,3.4
			c-0.4,1.6,0.5,2.6,1.8,3.3c0.7,0.4,1.6,0.5,2.4,0.8c0.4-1.8-0.2-5.1,1.3-5.1c1.5,0,1.8,0.3,2.5,1.1
			C107.5,407.6,106.5,410.1,106.4,412.1z"/>
		<path d="M86.6,401.5c1.8-4.5,3.7-9,5.3-13.5c3.3-9.2,10-14,19.3-16.3c2.6-0.8,7.6-0.8,10.2-0.2c2.1,0.5,7.4,2.8,10.4,5.8
			c0.2,0.2,0.5,0.4,0.7,0.5c2,0.9,4,1.8,6.2,2.8c0.3-0.3,0.7-1,1.2-1.3c0.5-0.3,1.4-0.4,1.8-0.1c0.4,0.3,0.7,1.3,0.5,1.7
			c-0.9,1.7-1.9,3.4-3.1,4.9c-0.3,0.4-1.5,0.4-2.1,0.2c-0.3-0.1-0.5-1.1-0.5-1.7c0-0.3,0.3-0.6,0.6-1.1c-1-0.8-2-1.5-3.3-2.4
			c1.9,3.6,2.5,7.4,3.2,12c0.7,1.5,3.5,8.7,4,9.1c0.9,0.6,2.2-1.9,4,0c1.8,1.9-8.2,7.9-9.2,5.6c-1-2.3,1.8-1.7,2.6-3.3
			c-0.8-2.3-3.1-8.6-3.4-7.8c-2.2,4.8-3.4,7-3.6,8.5c-0.2,1.3,3,8.2,4.7,12.2c1-0.1,2.8-0.7,3,0.9c0.4,2.4-7,5.2-8.1,2.7
			c-0.7-1.7,1.3-2.6,1.7-3c-1-2.9-2.3-6.9-3.5-10.1c-2.8,3.6-5,5.2-8.4,6.4c0.6,1.5,1.3,3.1,1.9,4.7c2.7-0.5,3.6,0.1,3.7,1.4
			s-6.9,2.6-7.9,2.4c-1-0.2-2-1.6-0.4-2.5c0.3-0.3,0.8-0.4,1.3-0.6c-0.6-1.7-1.2-3.2-1.7-4.6c-3.9,0.4-7.6,0.7-11.4,1
			c-0.8,1.7-0.5,3.4,0.1,5.1c0.6,0,1.2-0.1,1.6,0.1c0.5,0.3,1.1,1,1.1,1.5c0,0.4-0.7,1.1-1.2,1.2c-1.5,0.2-7.8,0.4-8-1.5
			c-0.2-1.9,2.4-1.3,3.1-1.7c-0.1-2.2-0.3-4.3-0.4-6.5c-1.4-0.7-3.4-1.7-4.9-2.4c-0.7,1.3-0.6,2.9,1.2,3.9c1,0.5,1.7,2.2,0.6,2.7
			c-1.1,0.5-6.6-0.8-6.9-3c-0.2-1.2,1.1-0.8,1.8-1.5c0.6-0.6,0.6-2.2,0.5-3.1c-0.1-0.7-0.2-1.6-0.6-2.1c-1.8-2.5-3.4-5.2-3.9-8.3
			c0-0.2,0.1-1.3-0.2-1.8c-0.8,2.1-2.4,4.6-0.9,6.6c0.2,0.3,1.1,1.4,0.7,2.2s-0.9,0.3-2.5-0.7c-1.7-1-2.9-1.8-4.2-2.8
			c-1.3-1-1.4-1.8-1.3-2.3C83,400.4,85.4,401.3,86.6,401.5z M106.4,412.1c7,0.9,11.9-0.8,13.8-1.6c2.7-1.1,5.6-3.1,7.4-5.5
			c2.2-2.9,3-6.3,4-9.6c1.4-4.7,0-9.8-1.7-14.1c-1.7-4.3-6.4-6.3-10.7-7.2c-2.2-0.5-10.5-0.1-17.3,4.4c-3.7,2.5-5.4,6-7,9.6
			c-1,2.4-1.4,5.2-1.4,7.8c-0.1,2.2,0.6,4.4,1.1,6.6c0.1,0.7,0.6,1.3,1.1,2.2c0.3-1.1,0.4-2,0.8-2.5c0.5-0.5,1.5-1.1,2.1-1
			c1,0.2,1,1.1,0.7,2.1c-0.3,1.1-0.3,2.3-0.6,3.4c-0.4,1.6,0.5,2.6,1.8,3.3c0.7,0.4,1.6,0.5,2.4,0.8c0.4-1.8-0.2-5.1,1.3-5.1
			c1.5,0,1.8,0.3,2.5,1.1C107.5,407.6,106.5,410.1,106.4,412.1z"/>
		<path d="M114.1,388.1c0.7-1.2,3.5,0.2,4.7,1.4c0.8,0.8,1.8,1.4,2.7,2.1c1.7,1.3,1.4,3.2,0.3,3.7s-5.1-2.7-7.2-4.8
			C114.2,390,113.4,389.3,114.1,388.1z"/>
		<path d="M110.4,391c0,1.3-2,3.7-3.2,5.3c-0.3,0.4-1.6,0.5-2,0.2c-0.5-0.3-0.8-1.4-0.7-1.9c0.5-1.6,1.3-3.2,2.1-4.7
			c0.5-1.1,1.5-0.9,2.2-0.6C109.5,389.6,110.4,389.8,110.4,391z"/>
	</g>
	<path d="M69.8,346.8c0,1.7-1.4,2.8-3.6,2.9c-2,0.1-3-0.7-3-2.2c0-1.9,1.8-4,3.4-4.1C68.2,343.3,69.8,344.9,69.8,346.8z M65.5,347.7
		c0.4,0.4,2.2,0.2,2.2-0.7c0-0.8-0.6-1.7-1.5-1.7S64.8,347,65.5,347.7z"/>
	<path class="st4" d="M65.5,347.7c0.4,0.4,2.2,0.2,2.2-0.7c0-0.8-0.6-1.7-1.5-1.7S64.8,347,65.5,347.7z"/>
</g>
<g>
	<path class="st13" d="M177.2,534c0-1.8,0.1-3.7,0.1-5.5c0-5.9-0.2-11.8-0.1-17.7c0.1-5.1,0.4-10.3,0.5-15.4
		c0.1-6,0.1-11.9,0.1-17.9c0-5.9,0-11.8,0.2-17.7c0.2-4.7,0.9-9.5,1-14.2c0.1-3.8-0.1-7.5-0.2-11.3c0-1.3-0.1-2.5,0.1-3.8
		c0.3-1.8,1-2.4,2.9-2.3c4.9,0.1,9.8,0.4,14.7,0.3c4.2-0.1,21-0.2,23.3-0.3c4-0.1,7.9-0.5,11.9-0.7c0.5,0,1-0.1,1.4-0.1
		c7.5,0.7,14.9-1,22.3-1c5.6,0,11.2-0.9,16.8-0.5c5.4,0.4,10.8-0.1,16.2-0.2c1,0,1.9,0,2.9,0c5.2,0.2,10.4,0.4,15.6,0.6
		c0.7,0,5.5-0.1,7.2,1.3c1.8,1.5,1.7,4.7,1.7,7c0,8.6-0.3,17.2-0.3,25.8c0,5.2,0.5,10.4,0.5,15.7c0,5.3-0.1,10.6-0.3,15.9
		c-0.2,6.5-0.5,13-0.8,19.4c-0.4,6.9-0.9,13.9-1.3,20.8c-0.2,3.3,0.1,6.6-0.2,9.9c-0.3,3.5-0.8,6.9-1.5,10.3
		c-0.4,2.3-1.7,4.1-4.4,4.3c-2.1,0.2-4.2,0.4-6.3,0.6c-5,0.5-10,1-15,1.3c-4.5,0.3-9,0.2-13.6,0.3c-3.5,0.1-7,0.1-10.4,0.3
		c-5.5,0.2-11,0.4-16.5,0.7c-6.3,0.3-12.6,0.7-18.8,0.9c-4.8,0.2-9.7,0.5-14.5,0.4c-9.9-0.2-19.7-0.6-29.6-0.9c-0.5,0-1-0.1-1.4-0.1
		c-3.3-0.4-2.8-0.6-4.2-3.6c-1.9-4.2-0.7-8.3-0.5-12.5C176.9,540.8,177.1,534.1,177.2,534z"/>
	<path class="st4" d="M255.1,508.8c0.9,3,2.5,5.1,4.7,7.3c0.5-1.1,0.8-1.9,1.2-2.8c0.5-1.1,0.9-2.5,2.6-1.9c1.2,0.4,1.4,1.7,0.6,3.4
		c-0.5,1.2-1,2.4-1.5,3.9c1.4,0.5,2.4,0.8,3.5,1.2c1.1,0.4,2.2,0.9,3,1.2c0.8-1.2,1.2-2.8,1.9-2.9c1.7-0.3,1.6,1.5,2,2.6
		c0.1,0.2,0.3,0.3,0.4,0.3c3.4,0.8,6.7-0.3,9.4-1.8c3.6-2,7.5-4.6,9-8.6c1.4-3.6,1.4-7.6,0.3-11.6c-0.5-1.7-4.5-8.7-8.8-10.7
		c-2.9-1.4-9-4.5-15.9-2.6c-3.6,0.9-6.1,3.4-8.3,6.3c-2.8,3.5-4.1,7.6-4.8,12c1.8,0.2,3,0.8,3.1,2.7
		C256.9,507.5,256.1,508.1,255.1,508.8z"/>
	<path class="st1" d="M209.6,453.8c-2.6,0-3.1,6.5-2.4,9c1.5,5.7,3.3,11.4,4.8,17.1c0.5,2.1,1.7,3.6,3.5,4.3c3.3,1.3,4,3.9,4.2,7
		c0.3,3.6,3.5,37.2,4.7,37.2s1.5-2.4,1.4-4.8c-0.5-8.1-1-16.2-1.6-24.3c-0.2-2.5-0.7-4.9-0.9-7.4c-0.3-4.3-0.4-8.5,2.7-12.1
		c1-1.1,1.4-2.8,1.9-4.2c2.1-6.1,1.3-12.1-0.2-18.2c-0.3-1.4-0.6-4.8-2.3-4.8c-2.7,0-2,8.2-2.2,10.5c-0.2,2.5-1.2,4.6-3.4,5.9
		c-1.5,0.9-3,0.6-3.6-1c-1-2.6-2.1-5.2-2.6-7.9C213.2,458.1,211.1,453.8,209.6,453.8z"/>
	<path d="M177.2,534c0-1.8,0.1-3.7,0.1-5.5c0-5.9-0.2-11.8-0.1-17.7c0.1-5.1,0.4-10.3,0.5-15.4c0.1-6,0.1-11.9,0.1-17.9
		c0-5.9,0-11.8,0.2-17.7c0.2-4.7,0.9-9.5,1-14.2c0.1-3.8-0.1-7.5-0.2-11.3c0-1.3-0.1-2.5,0.1-3.8c0.3-1.8,1-2.4,2.9-2.3
		c4.9,0.1,9.8,0.4,14.7,0.3c4.2-0.1,21-0.2,23.3-0.3c4-0.1,7.9-0.5,11.9-0.7c0.5,0,1-0.1,1.4-0.1c7.5,0.7,14.9-1,22.3-1
		c5.6,0,11.2-0.9,16.8-0.5c5.4,0.4,10.8-0.1,16.2-0.2c1,0,1.9,0,2.9,0c5.2,0.2,10.4,0.4,15.6,0.6c0.7,0,5.5-0.1,7.2,1.3
		c1.8,1.5,1.7,4.7,1.7,7c0,8.6-0.3,17.2-0.3,25.8c0,5.2,0.5,10.4,0.5,15.7c0,5.3-0.1,10.6-0.3,15.9c-0.2,6.5-0.5,13-0.8,19.4
		c-0.4,6.9-0.9,13.9-1.3,20.8c-0.2,3.3,0.1,6.6-0.2,9.9c-0.3,3.5-0.8,6.9-1.5,10.3c-0.4,2.3-1.7,4.1-4.4,4.3
		c-2.1,0.2-4.2,0.4-6.3,0.6c-5,0.5-10,1-15,1.3c-4.5,0.3-9,0.2-13.6,0.3c-3.5,0.1-7,0.1-10.4,0.3c-5.5,0.2-11,0.4-16.5,0.7
		c-6.3,0.3-12.6,0.7-18.8,0.9c-4.8,0.2-9.7,0.5-14.5,0.4c-9.9-0.2-19.7-0.6-29.6-0.9c-0.5,0-1-0.1-1.4-0.1c-3.3-0.4-2.8-0.6-4.2-3.6
		c-1.9-4.2-0.7-8.3-0.5-12.5C176.9,540.8,177.1,534.1,177.2,534z M218.5,431.9c-11.7-0.1-23.5,0.7-35-0.9c-1,1-0.9,7.3-1,8.2
		c-0.3,5.7-0.6,11.4-0.9,17.1c-0.2,3.5-0.2,6.9-0.1,10.4c0.1,4.5-0.3,9-0.3,13.5c0,4.7,0.3,9.5,0.2,14.2c-0.1,4.8-0.5,9.7-0.7,14.5
		c-0.1,2.2-0.2,4.5-0.2,6.7c0,6.4,0,12.8,0,19.2c0,1.7-1.1,16.5-0.2,20.5c1,0.1,1.9,0.2,2.7,0.3c1.1,0,2.1,0,3.2-0.1
		c9.5-0.9,18.9-1.2,28.4-0.7c2.2,0.1,4.4,0,6.7-0.1c5.1-0.1,31.6-0.6,36.9-0.5c2.6,0.1,5.2-0.4,7.9-0.4c4.1,0,8.2-0.7,12.3-0.8
		c6.9-0.2,13.7-0.1,20.6-0.2c2.1,0,7.8-2.1,8.1-1.4c0.5-1.1,0.7-2.1,0.8-3.2c0.2-7.2,0.5-14.5,0.6-21.7c0-0.2,0.5-3.1,0.2-4.6
		c-0.3-1.9-0.3-3.9-0.3-5.8c0.1-6.4,0.2-12.9,0.4-19.3c0-0.8,0-1.6-0.1-2.3c-0.6-2.7,2.6-57.9,0.7-63.7c-0.8,0-1.5,0.1-2.3,0.1
		c-7.8-0.5-15.6-1.2-23.4-1.5c-5.5-0.2-11,0.1-16.5,0.2c-0.4,0-0.8,0-1.2,0c-5.1,0.4-26.7,1.5-27.2,1.5c-4.8,0.1-9.6,0.4-14.5,0.6
		C222.5,431.6,220.5,431.8,218.5,431.9L218.5,431.9z"/>
	<path d="M215.6,489c-1.4,3.7-2.8,7.5-4.3,11.4c0.5,0.4,1.3,0.9,1.9,1.6c3.5,3.5,4,7.5,1.8,12.5c-1.9,4.1-5,6.8-9.5,7.8
		c-4.6,1.1-9.5-1-11.9-5.1c-0.7-1.2-1.4-2.5-1.8-3.9c-1.2-4-0.2-6.8,3-10.2s7.9-5.3,13.7-4.2c1.2-3.6,2.4-7.2,3.5-10.7
		c0.4-1.2,0.2-2.1-0.8-3c-0.9-0.8-1.6-1.9-2.1-3c-0.9-2.2-1.7-4.5-2.4-6.7c-1-3.6-1.8-7.3-2.7-10.9c-1-4-0.5-7.9,1.4-11.3
		c1.5-2.7,4.7-3,7.3-1.3c2.3,1.5,3.7,3.5,4.3,6.2c0.4,2,1.2,5,1.5,6s0.6,1.2,0.8,0c0.2-1.2,0.5-2.4,0.7-3.6c0.4-2.9-0.1-6.3,1.5-8.8
		c1-1.5,2.6-2.8,4.6-2.6c2.1,0.2,3.9,1.6,4.6,3.7c0.9,2.8,1.7,5.8,2.2,8.7c0.9,6.1,0.3,12-1.6,17.8c-0.4,1.3-1.1,2.5-1.8,4.1
		c1.8,2,3.7,4.2,5.7,6.5c0.2-0.1,0.3-0.1,0.5-0.2c-0.2-0.5-0.3-1.1-0.6-1.5c-2-2.3-2-2.6,0.5-4.6c0.7-0.5,1.2-1.2,1.8-1.7
		c0.4-0.3,1-0.7,1.3-0.6c2.2,1.1,2.9-0.6,4-1.9c4-4.8,8-9.6,11.9-14.4c1-1.2,1.7-2.8,2.9-3.8c1.2-1,2.8-1.4,4.2-2
		c0.8-0.4,1.5-0.8,2.2-1.1c1.7-0.7,3.3,0.4,2.9,2.2c0,2.8-1.3,8.1-0.8,6.7s-0.7,1.5-1.2,2c-3.8,3.9-7.7,7.6-11.5,11.5
		c-1.9,2-3.7,4.2-5.7,6.5c1.5,1.5,0.7,3.1-0.3,4.6c-0.4,0.6-1.1,1-1.4,1.6c-0.9,1.8-2.2,2.1-4.1,1.1c0.4,0.6,0.9,1.2,1.3,1.8
		c1.2,1.8,1.1,2.2-0.3,3.7c-1.2,1.2-2.8,1.5-4.1,0.5c-0.6-0.5-1.1-1.2-1.7-2c-0.7,0.5-1.2,0.8-1.7,1.1c-1.2,1.1-5.9-1.5-5.3-3.3
		c0.3-1.1,1.4-2,2.1-3c0.3-0.4,0.6-0.8,1-1.4c-1.6-1.4-3.2-2.7-4.8-4c0,2.8-0.1,5.9,0,9c0.4,7.6,1,15.1,1.5,22.7
		c0.2,3.6,0.3,7.3-1.3,10.7c-1.1,2.5-5.1,2.9-6.7,0.6c-0.7-1-1.3-2.2-1.5-3.4c-1.1-7-2.2-13.9-3.2-20.9c-0.5-4.1-0.7-8.2-1-12.4
		c-0.1-1.7-0.1-3.4-0.1-5.1C215.9,489,215.8,489,215.6,489z M209.6,453.8c-2.6,0-3.1,6.5-2.4,9c1.5,5.7,3.3,11.4,4.8,17.1
		c0.5,2.1,1.7,3.6,3.5,4.3c3.3,1.3,4,3.9,4.2,7c0.3,3.6,3.5,37.2,4.7,37.2s1.5-2.4,1.4-4.8c-0.5-8.1-1-16.2-1.6-24.3
		c-0.2-2.5-0.7-4.9-0.9-7.4c-0.3-4.3-0.4-8.5,2.7-12.1c1-1.1,1.4-2.8,1.9-4.2c2.1-6.1,1.3-12.1-0.2-18.2c-0.3-1.4-0.6-4.8-2.3-4.8
		c-2.7,0-2,8.2-2.2,10.5c-0.2,2.5-1.2,4.6-3.4,5.9c-1.5,0.9-3,0.6-3.6-1c-1-2.6-2.1-5.2-2.6-7.9
		C213.2,458.1,211.1,453.8,209.6,453.8z M262.7,462.7c-3.1,1-5.3,2.5-7,4.7c-4.1,5.4-8.3,10.8-12.6,16.3c0.4,0.3,0.8,0.7,1.4,1.1
		c1.8-1.8,3.5-3.6,5.2-5.3c3.7-3.8,7.4-7.5,11.1-11.3C262.4,466.8,262.9,465,262.7,462.7z M206.4,502.3c-4.7-0.9-7.7,0.6-10.1,4.2
		c-2.4,3.6-1.3,7.1,0.4,9.5C200,511.3,203.2,506.8,206.4,502.3z M202.6,518.9c4-0.2,7.5-1.7,9-4.7c1.5-2.9,2.3-5.8-0.2-9
		C208.4,509.9,205.6,514.2,202.6,518.9z M244.1,488.9c-1.5-1.3-3-2.6-4.5-3.8c-0.9-0.7-1.4-0.1-1.6,0.3c1.3,1.5,2.4,2.9,3.6,4.2
		C242.3,490.4,243.3,490.7,244.1,488.9z"/>
	<path d="M289.4,527.3c0.4-0.9,1.7-0.5,2.9-0.9c-0.3-2.3-0.5-4.6-0.8-7.1c-2.1,1.2-4,2.2-5.9,3.4c-0.5,0.3-1.1,1.1-1.1,1.7
		c-0.1,2.1-0.1,4.3-0.1,6.6c1,0.5,2.1,0.3,2.8,1.3c0.7,1-1.9,2.4-3.7,2.2c-1-0.1-2.1-0.2-3.1-0.3c-2-0.2-3-2.1-2.5-3.2
		c0.5-1.1,1.8-0.2,3.1-0.3c0.1-1.9,0.2-3.9,0.4-6.1c-2.9,1.1-5.4,1.2-8.5,0.6c-1,2.4-1.9,4.8-3,7.2c0.6,0.4,2.3,0.9,2,2.5
		c-0.3,1.6-4.5-0.1-6.6-0.7c-1.6-0.4-2.6-2.1-2.1-3c0.5-1,2.2-0.1,3.3-0.1c0.9-1.9,1.9-3.9,2.9-6.1c-3.5-0.4-5.7-1.6-8.4-3.4
		c-1.1,1.9-2.2,3.9-3.3,5.7c1,1.3,3.8,2.4,3.1,4.1c-0.7,1.7-6.6-0.9-8.5-1.3c-1.4-0.3-2.1-1.3-1.9-2.4c0.2-1.4,1.4-1.2,2.5-0.9
		c0.2,0.1,0.4,0,0.9-0.1c1.4-2.3,2.9-4.8,4.3-7c-2.8-2.1-4.5-3.8-5.7-7.6c-0.7,1.7-1.5,3.3-2.2,5c0.9,0.7,1.7,1.1,2.3,1.8
		c0.3,0.4,0.3,1.2,0.1,1.7c-0.1,0.3-0.9,0.6-1.3,0.5c-2.8-0.7-5.3-1.9-7.1-4.3c-0.5-0.7-1.5-2.7-0.9-3.6c0.6-0.8,2.8,1,4,1.5
		c1-1.7,2.2-3.8,3.3-5.9c0.4-0.8,0.5-1.8,0.4-2.7c-0.2-5.4,1.6-10.2,4.4-14.7c1.8-2.9,4-5.3,6.9-7.1c5.1-3.2,10.5-3.3,16.2-2
		c4.8,1.2,10.4,5.1,12.5,7c3,2.8,6.2,10.6,6.5,12.3c1.1,4.6-0.2,9.4-2.1,13.1c-0.2,0.3-0.5,0.5-0.5,0.7c0.3,3.6,0.5,7.2,0.9,10.8
		c0,0.2,0.8,0.3,1,0.6c0.3,0.4,0.8,1,0.7,1.4c-0.1,0.5-0.7,1.1-1.2,1.2c-1.4,0.3-2.9,0.5-4.3,0.6
		C290.1,530.2,289.1,528.2,289.4,527.3z M255.1,508.8c0.9,3,2.5,5.1,4.7,7.3c0.5-1.1,0.8-1.9,1.2-2.8c0.5-1.1,0.9-2.5,2.6-1.9
		c1.2,0.4,1.4,1.7,0.6,3.4c-0.5,1.2-1,2.4-1.5,3.9c1.4,0.5,2.4,0.8,3.5,1.2c1.1,0.4,2.2,0.9,3,1.2c0.8-1.2,1.2-2.8,1.9-2.9
		c1.7-0.3,1.6,1.5,2,2.6c0.1,0.2,0.3,0.3,0.4,0.3c3.4,0.8,6.7-0.3,9.4-1.8c3.6-2,7.5-4.6,9-8.6c1.4-3.6,1.4-7.6,0.3-11.6
		c-0.5-1.7-4.5-8.7-8.8-10.7c-2.9-1.4-9-4.5-15.9-2.6c-3.6,0.9-6.1,3.4-8.3,6.3c-2.8,3.5-4.1,7.6-4.8,12c1.8,0.2,3,0.8,3.1,2.7
		C256.9,507.5,256.1,508.1,255.1,508.8z"/>
	<path d="M217.6,479.4c-1.7,0-2.6-2.4-1.8-3.4c0.7-1,2.1-1.1,3-0.2C219.8,476.7,219.3,479.4,217.6,479.4z"/>
	<path d="M223.7,475.1c0.9,0.8,0.9,0.8,1,1.5c0.1,1.1-1.2,2.3-2.2,2.2c-1-0.1-2.2-1.5-1.9-2.4C220.9,475,222.8,474.3,223.7,475.1z"
		/>
	<path d="M275.2,500.3c-0.4,1.1-5,3.4-7.4,4.8c-1.1,0.7-2.8-1.2-2.8-2.4c0-1.2,6.7-5.4,8-5.4S275.6,499.2,275.2,500.3z"/>
	<path d="M278.1,499.7c1.1,0,1.8,0.6,2.4,2.3c0.7,1.7,2.5,5.3,2.5,6.4c0,1-1.6,1.6-2.3,1.6c-0.8,0.1-1.1-0.2-1.6-0.5
		c-0.4-0.3-0.8-0.7-1-1.2c-0.6-2.1-1.1-4.2-1.5-6.3C276.5,501.5,277,499.7,278.1,499.7z"/>
	<path class="st1" d="M244.1,488.9c-1.5-1.3-3-2.6-4.5-3.8c-0.9-0.7-1.4-0.1-1.6,0.3c1.3,1.5,2.4,2.9,3.6,4.2
		C242.3,490.4,243.3,490.7,244.1,488.9z"/>
	<path class="st10" d="M262.7,462.7c-3.1,1-5.3,2.5-7,4.7c-4.1,5.4-8.3,10.8-12.6,16.3c0.4,0.3,0.8,0.7,1.4,1.1
		c1.8-1.8,3.5-3.6,5.2-5.3c3.7-3.8,7.4-7.5,11.1-11.3C262.4,466.8,262.9,465,262.7,462.7z"/>
	<path class="st4" d="M206.4,502.3c-4.7-0.9-7.7,0.6-10.1,4.2c-2.4,3.6-1.3,7.1,0.4,9.5C200,511.3,203.2,506.8,206.4,502.3z"/>
	<path class="st4" d="M202.6,518.9c4-0.2,7.5-1.7,9-4.7c1.5-2.9,2.3-5.8-0.2-9C208.4,509.9,205.6,514.2,202.6,518.9z"/>
</g>
<g>
	<path class="st13" d="M43.6,685.6c-0.2-2-0.4-4.1-0.5-6.2c-0.1-3,0-6-0.2-9c-0.3-5.1-0.8-10.2-1.2-15.3c-0.3-3.5-0.5-6.9-0.9-10.4
		c-0.6-5-2-34.1-1.8-43.9c0.1-4.3,0.1-8.7,0-13c-0.1-7.6-0.3-17.7-0.5-25.3c0-1.6,0.5-2.3,2.4-2.5c1.9-0.3,3.8-0.4,5.8-0.6
		c4.4-0.5,8.8-1,13.3-1.4c1.6-0.2,3.3-0.2,4.9-0.3c8.1-0.3,58.1-0.3,62.3-0.5c6.2-0.3,12.3-0.5,18.5-0.8c2.3-0.1,4.6-0.4,6.9-0.6
		c2.6-0.3,5.2,1.3,5.8,3.9c0.5,2.3,0.7,4.6,0.8,6.9c0.3,5.6,0.6,11.2,0.7,16.8c0.1,7.9,0,15.9,0,23.8c0,8.1-0.1,16.3,0,24.4
		c0.1,4.6,0.7,28.3,0.5,30.4c-0.4,4.4-1.1,8.8-1.6,13.2c-0.2,1.7-0.2,3.5-0.3,5.2c0,1.2-0.7,2-1.8,1.9c-3.3-0.3-6.4,1.2-9.6,1.4
		c-3.7,0.2-7.3,1.1-10.9,1.2c-5.7,0.2-11.4-0.1-17.1-0.1c-1.9,0-3.9,0.2-5.8,0.4c-2.3,0.1-4.6,0.3-7,0.4c-8.9,0.4-17.8,0.9-26.7,1.2
		c-3.7,0.1-7.3,0-11-0.1c-3.8-0.1-7.5-0.4-11.3-0.6c-2.5-0.1-7.4-0.3-10-0.5C46.5,685.5,45.4,685.6,43.6,685.6z"/>
	<polygon class="st10" points="143.7,632.5 155.1,621.7 156.2,630.8 146.8,637 	"/>
	<g>
		<polygon class="st1" points="89.1,680.1 90.5,676 93.4,671 94.1,665.3 92.8,658.3 91,655.2 87.9,655.8 86.8,661.8 85.4,667.8 
			83.5,667.7 82.6,661.4 82.6,657.8 79.6,656.6 76.8,659.3 75.9,669.5 75.9,674.8 80.4,680.1 		"/>
		<polygon class="st1" points="62.9,681 63.3,676.8 66.5,672.8 68.2,666 67.6,658.1 66.5,655.2 63.9,655.2 62.3,658.2 60.3,668.6 
			57.7,668.1 57.7,663.3 56,655.2 52.8,654.2 50.6,658.2 51.5,672.5 52.2,676.4 54.5,681 		"/>
		<polygon class="st1" points="155.9,613 152,611.7 150.2,604.9 149.2,595.6 146.5,595.1 143.2,598.7 143.2,606.2 143.2,616.7 
			145.1,625.8 147.4,628.1 155.2,621.2 155.9,630.8 149.5,636 150.5,647.1 152,651.3 155.2,652.5 158,619.4 		"/>
		<polygon class="st1" points="156.8,661.7 150.6,660.3 149.2,663.2 150,678.7 154.7,678.7 156.8,665.9 		"/>
		<polygon class="st1" points="137.4,679.3 138.7,674.8 141.5,670.2 141.1,663.2 138.7,658.8 136.4,659.7 136.1,667.3 134.5,669.1 
			132.4,667.8 131.2,661.8 130,659.4 127.6,660.3 126.4,664 126.4,670.2 127.6,673.6 130,675.5 130.1,679.3 		"/>
		<polygon class="st1" points="115.3,680.1 115.9,675.7 118.5,669.1 119.7,664 118.5,657.9 115.9,655.8 112.7,657.2 111.6,661.5 
			111.6,666.8 110,668 108.3,663.7 107.6,657.2 106,656.7 103.9,661.7 103.5,669.1 104.6,674.7 108.4,680.1 		"/>
		<polygon class="st1" points="40.5,568.1 43.9,566.7 45.5,567.4 46.6,576.9 48.3,580.2 50.5,578.6 51.5,571.7 52.3,566.7 
			54.2,565.3 56.9,566 57.7,579.7 56,585.6 51.9,589.1 49.5,592.5 50.1,598.8 53.5,598.8 55.2,603.9 55.4,615.8 54.6,624.1 
			51.5,630.8 50.6,638 50.5,647.2 48.3,650.9 43.4,652.5 40.5,603.1 42.6,603.1 44,605.8 44,613 45,617.3 47.6,618.3 49.1,615.3 
			49.1,603 46.1,602.3 44.5,597.2 43,591.1 40.5,589.1 		"/>
		<path class="st1" d="M143.7,596c-0.7,0.6-1.1,1.5-1.7,2.2c-0.2-0.1-0.5-0.2-0.7-0.2c0-2.7,0.1-5.4,0-8.1c0-1.5-0.2-3.1-0.5-4.6
			c-0.3-1.6-1.2-2.9-2.9-3.3c-2.1-0.4-2.8-1.9-2.9-3.8c-0.2-3.8-0.3-7.5-0.5-11.3c0-1.2,0.1-2.8,1.6-2.8c1.4,0,1.1,2,1.2,3
			c0.2,1.6,0.4,3.3,0.5,4.9c0.2,2.4,1.5,4,3,4c2-0.1,3.6-1.7,3.8-4c0.1-1.6,0.1-3.3,0.2-4.9c0.1-1.4,0.2-3.5,1.9-3.5
			c1.7,0,1.5,2,1.7,3.1c0.4,3.2,1.2,6.4,0.5,9.8c-0.3,1.5-0.7,3-1.9,4.1c-1.3,1.2-1.8,2.6-1.8,4.4c0.1,2.2-0.2,4.5,0,6.7
			C145.4,593.4,145.2,594.8,143.7,596z"/>
		<path class="st1" d="M64.5,567.9c1-0.5,2.2,0.1,2.4,1.3c0.2,1.3,0.3,2.7,0.4,4c0.2,1.1,0.1,2.5,0.7,3.3c0.7,0.9,1.9,1.8,3,2
			c0.7,0.1,1.9-0.9,2.5-1.7c0.6-0.9,0.8-2.1,1-3.3c0.2-1.3,0.2-2.7,0.4-4c0.1-0.8-0.4-2.2,0.8-2.2s1.3,2.1,1.4,3.1
			c0.2,4.4,0.2,8.9-1.1,13.2c-0.3,1-0.8,2-1.5,2.6c-1.5,1.3-1.8,2.7-1.7,4.6c0.1,2.5-0.1,5-0.2,7.5c-0.1,1.6,0.3,5.6-0.9,5.6
			c-1.1,0-2-1.5-2.1-2.2c-0.2-1.8-1-8.1-0.8-10c0.2-1.6,0.9-3-0.1-5.6c-2.3-1-3.4-1.7-3.7-4c-0.3-2.8-0.8-5.5-1-8.3
			C64,571.7,63.6,568.4,64.5,567.9z"/>
		<path class="st1" d="M74.8,629.1c-0.1,0.1-1.2,22.8-4,22.8c-1.7,0-1.2-3.8-1.1-5.6c0.2-1.7,0.5-3.4,0.6-5.1c0-0.2,0-0.4,0.1-0.5
			c0,0,1.2-2.7,1.3-4.3c0.1-1.6,0.8-4.6,0-5.2c-0.8-0.7-1.9-0.6-2.6-0.6c-1.2,0-4.9-2.2-5.2-5.4c-0.2-3.2-0.9-12.5-1.1-18.8
			c-0.1-1.9,0.2-6.4,1.3-6.4c1.1,0,1.2,1.6,1.3,2.1c0.4,3.9,0.7,7.9,1.1,11.8c0.2,1.6,0.4,3.3,0.8,4.8c0.4,1.7,1.6,2.5,3,2.6
			c1.7,0.1,2.3-1.1,2.9-2.4c1.1-2.6,0.5-5.3,1-7.9c0.4-2.1,0.6-4.2,0.8-6.3c0.2-1.7,1.2-4.5,2.5-4.5s1.9,10.7,2,16
			C79.7,621.7,75.5,628.1,74.8,629.1z"/>
		<path class="st1" d="M111.3,564.7c1.8-0.2,1.8,2.3,2,3.3c0.3,1.4,0.4,2.9,0.6,4.3c0.5,2.7,2.1,4.4,3.8,4.4c1.7,0,3.4-1.4,3.6-3
			c0.2-1.8,0.2-3.7,0.4-5.5c0.1-1.2-0.1-3.5,1.4-3.5c3,0,0.9,10.1,0.5,14.1c-0.1,1.2-0.9,2.7-1.9,3.4c-2.1,1.6-2.3,3.6-2.3,5.9
			c0,1.5-0.4,6.4-0.2,7.2c0.2,1.4-1.3,1.7-2.4,2.6c-0.7-5.3-2.8-11.1-1.5-16.9c0.6-0.2-1.8-2-4.7-3
			C110.9,573.6,108.7,564.9,111.3,564.7z"/>
		<path class="st1" d="M88.3,584.1c-0.8-0.4-1.5-1.6-1.6-2.6c-0.5-4.1-0.8-8.2-1.1-12.4c-0.1-1-0.6-2.4,0.7-2.9c1.3-0.5,1.9,0.9,2,2
			c0.2,1.7,0.4,3.5,0.7,5.2c0.3,1.9,1,2.6,2.4,2.7c1.3,0.1,2.4-0.8,2.8-2.5c0.3-1.6,0.4-3.3,0.6-4.9c0.1-0.9-0.3-2.7,1.4-2.7
			c1.2,0,1,1.5,1.2,2.3c0.8,3.3,1.1,6.7,0.7,10.1c-0.1,0.8-0.4,1.8-1,2.3c-2.1,1.8-2.5,4-2.5,6.5c0,2.8,0.1,7.5-0.2,8.1
			c-0.3,0.6-2.2,0-2.9-0.4c-0.7-0.3,0-3.2,0-4.9C91.3,587.7,90.9,585.4,88.3,584.1z"/>
		<path class="st1" d="M103.8,630.2c-1.1,0.8-1.9,2.6-2,4c-0.5,3.6-0.5,7.3-0.7,11c-0.1,2-0.2,4.1-0.2,6.1c-0.1,2.7-3.7,4.4-4,1
			c-0.3-3.6-0.6-7.2-0.5-10.7c0-1.2-0.6-4.6,0.4-5.6c0.8-0.8,1-5.1,1-7.2c-1.4-1-2.1-0.8-3.4-0.8c-3.1,0-3.6-0.6-3.8-3.9
			c-0.3-4.8-0.5-9.6-0.6-14.4c-0.1-2.8,0-5.6,0-8.3c0-1.5,0.7-3,2.2-2.9c1.5,0.2,1.7,3.9,1.8,6c0.2,2.7,0,5.4,0.1,8.1
			c0,1.3,0.1,2.7,0.4,4c0.4,1.7,1.5,3,3.3,3.3c1.8,0.2,3.3-0.6,3.9-2.3c0.5-1.2,1-2.5,1-3.8c0.1-3.4,0-6.8,0-10.2
			c0-2.2,0.2-5.7,1.7-6.1c1.4-0.4,1.6,0.8,1.7,1.7c0.4,3.3,0.9,6.7,1,10.1c0.1,4.7-0.1,9.4-0.3,14.1
			C106.8,626.1,106.4,628.5,103.8,630.2z"/>
		<path class="st1" d="M131.8,629.5c-0.4,1-0.7,3.9-0.7,3.9c0,3.7,0,7.4,0,11c0,0.7-0.1,1.3,0,2c0.2,2.6-0.8,6.7-2.8,6.7
			c-1.2,0-2-4.3-2-5.1c0-3.2,0.1-13.7,0.1-13.7c0.3-2.1,3.5-3.3,3.6-4.8c0.2-1.8,0.1-4.9-1.1-5.3c-4.2-1.4-5.6,0.4-8.1,2.2
			c-0.2-1.1-0.3-2.7-0.4-3.4c-0.6-6.4-1.1-12.8-1.6-19.3c-0.1-1.4-0.9-3.6,0.3-4.2c1.2-0.6,2,0.7,2.2,1.6c0.6,2.9,1.9,11,1.9,12.1
			c0,2.5,2.2,6.4,4.4,6.2c1.3-0.1,3.2-2.4,3.2-4.9c0.1-4.7,0.3-9.4,0.5-14.1c0-1.3,0.3-3.5,1.5-3.3s2.2,2.1,2.5,3.5
			c0.7,3.3,1.3,6.7,0.8,10.2c-0.2,1.3-0.5,11.4-1.3,15.1C134.5,627.8,132.2,628.5,131.8,629.5z"/>
		<path class="st1" d="M84.9,643.4c-0.5,0.8-2.3,0.9-2.7,0.3c-0.4-0.7-2.2-3.8-2.1-4.5c0.1-1.2,1.5-2.4,2-2
			C82.8,637.5,85.5,642.6,84.9,643.4z"/>
		<path class="st1" d="M145.1,640.8c-0.9-0.2-5-7.1-5.6-7.8c-0.5-0.6-0.3-1.8,0.8-1.8c1.1,0,6.1,8.2,6.1,8.7S146.1,641,145.1,640.8z
			"/>
		<path class="st1" d="M115.3,641.2c-0.8-0.4-5.4-5.9-4.4-6.9c1-1,5.3,5.4,5.5,6.2S116.1,641.6,115.3,641.2z"/>
		<path class="st1" d="M59.4,642.8c-0.9-0.5-1.7-3.4-1.7-4.3c0-0.9,1-1.2,1.7-0.7s1.8,3.3,1.8,4.2S60.3,643.4,59.4,642.8z"/>
	</g>
	<path d="M43.6,685.6c-0.2-2-0.4-4.1-0.5-6.2c-0.1-3,0-6-0.2-9c-0.3-5.1-0.8-10.2-1.2-15.3c-0.3-3.5-0.5-6.9-0.9-10.4
		c-0.6-5-2-34.1-1.8-43.9c0.1-4.3,0.1-8.7,0-13c-0.1-7.6-0.3-17.7-0.5-25.3c0-1.6,0.5-2.3,2.4-2.5c1.9-0.3,3.8-0.4,5.8-0.6
		c4.4-0.5,8.8-1,13.3-1.4c1.6-0.2,3.3-0.2,4.9-0.3c8.1-0.3,58.1-0.3,62.3-0.5c6.2-0.3,12.3-0.5,18.5-0.8c2.3-0.1,4.6-0.4,6.9-0.6
		c2.6-0.3,5.2,1.3,5.8,3.9c0.5,2.3,0.7,4.6,0.8,6.9c0.3,5.6,0.6,11.2,0.7,16.8c0.1,7.9,0,15.9,0,23.8c0,8.1-0.1,16.3,0,24.4
		c0.1,4.6,0.7,28.3,0.5,30.4c-0.4,4.4-1.1,8.8-1.6,13.2c-0.2,1.7-0.2,3.5-0.3,5.2c0,1.2-0.7,2-1.8,1.9c-3.3-0.3-6.4,1.2-9.6,1.4
		c-3.7,0.2-7.3,1.1-10.9,1.2c-5.7,0.2-11.4-0.1-17.1-0.1c-1.9,0-3.9,0.2-5.8,0.4c-2.3,0.1-4.6,0.3-7,0.4c-8.9,0.4-17.8,0.9-26.7,1.2
		c-3.7,0.1-7.3,0-11-0.1c-3.8-0.1-7.5-0.4-11.3-0.6c-2.5-0.1-7.4-0.3-10-0.5C46.5,685.5,45.4,685.6,43.6,685.6z M42.1,563.2
		c-0.1,1.1-0.3,2.2-0.3,3.3c0.1,4.8-0.1,12.1,0.3,16.9c0.5,6.3,0.1,12.7,0.1,19.1c0,3.6,0,7.2,0.3,10.8c0.4,5.1,1.8,33,2.1,38.6
		c0.3,7,1.1,14.1,1.7,21.1c0.2,1.9,0.2,3.8,0.2,6c1.1,0,2,0,2.8,0c1.6-0.1,5.7-0.2,7.3-0.2c4.2,0.1,8.3,0.6,12.5,0.5
		c8.2-0.2,16.4-0.9,24.6-1.1c12.8-0.3,25.6-0.4,38.3-0.6c4.8-0.1,9.7-0.4,14.5-0.8c2.1-0.2,4.3-1.1,6.3,0.1c1.3-2.8,0.9-5.6,0.9-8.3
		c0-5.2-0.1-10.5-0.1-15.7c0-9.9,0.1-19.8,0-29.7c-0.1-5.1-0.2-53.7-0.1-54.5c0.2-3.1,0.3-6.1-0.1-9.2c-0.7,0-1-0.1-1.4-0.1
		c-7.1,0.3-14.1,0.6-21.2,0.8c-0.5,0-1,0-1.4,0.1c-8.5,0.5-47.7,0-55.9,0.1C63.1,560.6,52.7,561.5,42.1,563.2z"/>
	<path d="M65.8,656.7c-1.7-0.5-1.8,0.8-1.9,1.4c-0.4,2.7-0.7,5.3-1.1,8c-0.1,0.4-0.1,0.8-0.2,1.1c-0.5,2.1-1.7,3.3-3.1,3.3
		c-1.8,0-3.6-1.6-3.8-3.7c-0.3-2.8-0.4-5.6-0.6-8.3c-0.1-0.9,0.1-2.9-1-2.8c-1,0.1-1.3,1.6-1.3,2.6c0,3.9,0.1,7.9,0.2,11.8
		c0,1.1,0.1,2.1,0.3,3.2c0.1,0.6,0.3,1.5,0.8,1.7c1.7,0.9,1.7,2.4,1.8,3.9c0.1,0.9,0.6,1.9,0.9,2.9c0.2-0.1,0.1,0-0.1,0
		c-3.2,1.3-3.6,1.1-4-2.5c-0.1-0.8-0.4-1.9-1-2.2c-1.5-0.8-1.8-2.1-1.9-3.4c-0.3-5.6-0.8-11.2-0.2-16.8c0.2-2.3,1.5-4.3,3.2-4.9
		c1.8-0.6,4.7,1.5,5.2,4.3c0.3,2.1,0.3,4.2,0.4,6.4c0.1,1.4,0.2,2.8,0.3,4.1c0.2,0,0.5,0,0.7,0c0.3-2.5,0.6-5.1,0.9-7.6
		c0.1-0.8,0.1-1.5,0.2-2.3c0.5-2.5,1.5-3.5,3.7-3.6c1.9-0.1,4.1,1.4,4.5,3.3c1.2,5.8,1.1,11.5-1.1,17.1c-0.3,0.8-2.2,1.7-2.6,2.5
		c-0.9,1.8-1.2,3-0.8,5.3c0.1,1-0.1,2.1-1.4,2c-1.1-0.1-2.1-0.8-2-2.1c1-3.4,1.8-6,4-9.3C67.6,668.5,67.3,657.2,65.8,656.7z"/>
	<path d="M90,656.9c-1.7,0-1.3,4.8-1.8,7.3c-0.2,1-0.3,2.2-0.7,3.1c-0.5,1.2-1,2.6-2.8,2.4c-1.8-0.2-2.8-1-3.2-2.8
		c-0.3-1.6-0.6-3.3-0.3-4.9c0.3-1.6,0.5-3.8-1.1-4s-1.7,2-1.8,3.1c-0.4,3.4-0.4,6.9-0.6,10.4c-0.2,2.2,0.8,3.6,2.4,4.9
		c2.1,1.7,2.2,4,2.1,6.4c-1.9,0.4-2.7-0.4-3.1-1.8c-0.3-1.4-0.9-2.4-2.1-3.2c-1.8-1.2-2.2-3.1-2.4-5c-0.5-5,0.2-9.9,1.1-14.7
		c0.4-2.2,1.5-2.9,3.9-2.9c1.9,0,3.8,1.1,4.1,2.9c0.4,2.4,0.5,4.9,0.8,7.4c0.1-0.4,0.4-0.8,0.5-1.3c0.6-2.7,1.2-5.5,1.7-8.2
		c0.3-1.6,1.5-2.3,2.8-2.6c1.2-0.3,2.1,0.5,2.9,1.5c1.6,1.8,2.2,3.9,2.6,6c1,5.9,0.4,11.5-3.4,16.5c-0.7,1-0.8,2.5-1.1,3.8
		c-0.2,1.3,0,2.7-1.4,3.8c-1.1-0.2-2-0.7-1.8-2c0.4-3.2,0.6-6.4,2.7-9.3C94.4,667.4,91.7,656.9,90,656.9z"/>
	<path d="M115.3,657.5c-1.9,0.4-1.3,3.2-1.5,4.8c-0.2,1.7-0.6,3.4-0.9,5.1c-0.3,1.3-1.4,1.8-2.6,1.9c-1.3,0.2-2.1-0.7-2.5-1.6
		c-0.5-1.2-0.2-8.4-1.1-8.9c-0.8-0.6-1.6,1.9-1.6,2.8c0,3.4-0.1,6.8,0.1,10.2c0.1,1.2,0.7,2.8,1.7,3.6c3.1,2.4,2.7,5.2,1.8,8.3
		c-2.3,0-2.6-0.1-2.3-2.1c0.3-1.8-0.1-3.1-1.7-4.2c-1.4-0.9-2.1-2.4-2.1-4.2c-0.1-2.6-0.5-5.2-0.5-7.8c0-4.4,1.3-10.3,4.7-10
		c1.4,0.1,2.6,1.9,2.8,4c0.1,2.1,0.1,4.2,0.2,6.8c1.4-1,1-2,1.1-2.9c0.2-1.7,0.2-3.5,0.6-5.2c0.5-2,1.9-3.1,4-3.3
		c2.1-0.3,3.3,1.2,4,2.7c1.9,4.2,2.6,8.8,0.5,12.9c-1.8,3.7-3,7.3-2.8,11.3c0,0.7,0,1.4-0.2,2c-0.2,0.8-0.7,1.6-1.6,1.2
		c-0.5-0.2-1.1-0.9-1.1-1.4c-0.2-4.6-0.1-9,2.5-13.2C118.7,667,117.2,657.1,115.3,657.5z"/>
	<path d="M137.5,673.9c2.1-1.7,3.3-3.7,2.6-6.6c-0.5-1.9-0.5-6-1.8-5.8c-1.3,0.1-0.8,3.6-1.1,5.4c-0.4,2.1-1.2,3.1-2.8,3.1
		c-2.2,0.1-3.5-0.9-4-3c-0.2-0.9-0.3-1.9-0.5-2.8c-0.2-0.9,0.1-2.9-0.7-3.2c-0.8-0.3-1.2,1.4-1.2,1.7c-0.1,2.4,0.1,4.5,0.2,6.9
		c0.1,1.9,0.7,3.6,2.9,4.1l-0.1-0.1c0.6,2.5,0.7,5.1,0.4,7.7c-0.1,0.9-0.4,1.7-1.3,1.5c-0.6-0.1-1.1-0.9-1.4-1.5
		c-0.2-0.5-0.1-1.1-0.1-1.7c0.1-2-0.1-3.6-1.9-5.1c-1.9-1.7-1.7-4.4-1.9-6.8c-0.1-1.4,0.2-2.9,0.3-4.3c0.1-2.3,1.9-5.4,3.5-5.7
		c1.6-0.3,3.2,0.6,3.8,4c0.3,1.7,0.5,5,1.5,5c1,0,1.4-5.5,1.8-7.2c0.3-1.3,1.1-2,2.4-2.1c1.4-0.1,2.5,0.5,3,1.8
		c0.6,1.4,1.2,2.9,1.5,4.4c0.7,3.9,1.1,7.7-1.9,11.2c-1.2,1.4-1.4,3.5-1.9,5.4c-0.2,0.9-0.4,1.8-1.5,1.7c-1.1-0.1-1.4-1.1-1.2-2
		C136.6,677.9,137.1,675.9,137.5,673.9L137.5,673.9z"/>
	<path d="M155.9,660.7c-0.7,2.8-3.2,0.9-4.2,1.1c-1,0.2-0.7,2.5-0.7,3.7c0.3,4.8-0.3,9.6,1.3,14.2c0.3,0.8,0.4,1.7-0.7,1.8
		c-0.6,0.1-1.5-0.3-1.9-0.8c-0.6-0.9-1-1.9-1.1-2.9c-0.9-5.4-0.6-10.7-0.2-16.1c0.2-2.5,2.7-3.6,4.9-2.4
		C154.2,659.7,154.9,660.1,155.9,660.7z"/>
	<g>
		<path d="M130,629.6c0-0.1,0-0.2,0-0.3C130,629.4,130,629.6,130,629.6z"/>
		<path d="M158,629.5c-0.2-0.4-1.2-1-1.6-0.8c-1.4,0.5,0.1-0.7-1.3,0.6c-1.7,1.7-6.3,4.3-8.7,6c0,0-1.9-2-1.5-2.4
			c1.9-2.1,5-4.9,7.1-6.7c1.4-1.2,2.3-2.5,3-4c-1.7-0.9-0.4-2.1-1.2-1.4c-1.6,1.3-4.5,3.8-6.3,5.3c-0.5-1.1-1.2-1.9-1.3-2.8
			c-1-4.3-1.7-8.6-1.6-13.1c0.1-2.3,0-13.6,3.2-13.9c1-0.1,0.5,4.9,0.8,7.2c0.3,2.5,0.6,5,1.2,7.4c0.4,1.7,1.7,2.6,3.2,2.4
			c1.3-0.2,2.1-1.6,1.1-2.2c-1.5-1.1-1.6-2.6-1.8-4c-0.5-3.1-1.1-6.3-1.4-9.4c-0.2-1.9-0.7-3.3-2.5-3.7c0-3.1-0.1-6,0-8.9
			c0-0.7,0.4-1.5,0.9-2c1.6-1.6,2.1-3.6,2.6-5.7c0.9-3.9,0-7.7-0.3-11.5c-0.1-0.7-0.3-1.3-0.6-1.9c-0.9-2.1-2.6-2.9-4.8-3
			c-2.1-0.2-3.1,1.1-3.6,2.7c-0.5,1.6-0.4,8.6-1.4,8.6c-1,0-1-10.1-3.6-10.8c-1.5-0.4-3.3-0.6-4.5,0.7c-1.3,1.3-1.8,3.5-1.7,5.5
			c0.1,3.7,0.1,7.4,0.5,11c0.3,2.5,0.8,5.2,3.8,5.9c1.6,0.4,2.2,1.4,2.3,2.9c0.1,3,0.4,6,0.5,9c0.1,1.9,0.4,3.8,1.8,5
			c1.2,1,1.5,2.2,1.4,3.5c0,1.2-0.3,2.5-0.2,3.7c0.3,4,0.8,8.1,1.2,12.1c0.3,2.8,1,5.5,3.1,7.9c-0.7,0.6-2.5,2.2-2.5,2.2
			c-1.4-2.1-3.6-3.5-5.8,0.7c-0.6,1.1,0.4,3.5,1.3,4.7c-1.4-0.9-3.6-4.4-2.6-6.2c1.8-3.2,2.7-6.7,3-10.2c0.4-5.4,0.2-10.8-0.1-16.2
			c-0.2-2.6-0.7-5.3-2.6-7.5c-2.5-2.9-5.5-2.6-7.4,0.8c-0.5,0.9-0.6,2-0.6,3.1c-0.1,4.4,0.3,15.9-0.7,16c-1,0.1-1.3-1.7-1.4-2.6
			c-0.3-2.8-0.3-5.6-0.9-8.4c-0.7-3-0.6-6.5-3.7-8.4c0.3-0.9,0.7-5.5,0.7-7.7c0-2,0.5-3.1,1.7-4.3c1.3-1.2,2.2-2.5,2.3-4.5
			c0.1-2.2,0.7-4.4,0.8-6.6c0.1-3.1,0.3-6.2-0.9-9.2c-0.5-1.2-1-2.5-2.5-2.5c-2.8-0.1-3.8,1-5,4.6c-0.9,2.2-0.1,6.9-1,6.9
			s-1-3.5-1.2-5.2c-0.5-3.2-2-6-5.3-6c-3.3,0-3.8,2.9-3.9,5.4c-0.1,1.4,0,2.9,0.1,4.3c0.5,8.1-1.6,8.3-5.4,11.9
			c-1,1-1.4,0.3-2.3-0.4c0.5-1.2,1.4-2.3,1.4-3.5c0.3-4.3,0.1-8.7-0.8-13c-0.5-2-3.2-4.2-4.8-4.1c-3.7,0.3-3.2,7.1-3.9,7.2
			s-0.4-1.5-0.4-2.3c-0.2-2.4-2.2-4.3-4.6-4.4c-2.3-0.1-3.4,0.8-3.9,3.7c-0.9,5.6,0,11.2,1.3,16.6c0.3,1.1,1.2,2.5,2.2,2.9
			c1.9,0.8,1.6,2.1,1.9,3.7c1,4.8-0.8,8.5-0.9,10.5c-0.2,3.6-0.2,7.2-0.1,10.8c0.1,4.2,0.4,8.5,0.5,12.7c0,2.4,0.7,4.3,2.9,5.6
			c-2,1.8-3.9,3.4-5.9,5.2c-2.2-3.2-4-0.6-6,0.3c-0.3-0.8-0.5-1.4-0.7-2.1c-0.8-1.8-0.6-3.3,0.8-4.7c2.5-2.7,3.7-5.9,3.9-9.4
			c0.1-1.3,0.5-2.6,0.4-3.9c-0.2-4.2-0.6-8.5-1-12.7c-0.2-1.5-0.9-3-2.4-3.8c-1.2-0.6-2.2-0.7-3.6-0.4c0-1.6-0.3-4.6-0.1-6.4
			c0.1-1.1,0.5-2.4,1.2-3c1.5-1.2,2.3-2.6,2.5-4.4c0.5-3.9,1-7.8,1.1-11.7c0.1-2.1-0.5-4.2-1.1-6.2c-0.6-2-2.1-2.9-3.8-2.9
			c-1.9,0.1-3.1,1-3.5,3.1c-0.3,1.6,0.3,7.4-0.9,7.6c-1.2,0.2-0.9-2.3-1-3.4c-0.2-1.3-0.7-4.4-1.8-5.5s-3.2-1.4-5.1-0.6
			c-1.9,0.9-2.3,2.8-2.3,4.7c0,3.1,0.1,6.2,0.5,9.3c0.3,2.5-0.2,5.2,1.9,7.5c-1.6,1.1-3.1,2.1-4.5,3.1c-0.9-0.4-1.7-0.7-2.3-0.9
			c0.6-1.2,1.5-2.4,1.8-3.6c1.3-4.9,0.5-9.8,0.1-14.7c-0.1-1.2-0.3-2.5-0.6-3.7c-0.4-1.4-2-2.8-3.3-2.9c-1.8-0.2-2.6,0.3-3.5,2.3
			c-0.9,1.8-1.3,3.5-1.3,5.6c0.1,2.3-0.3,6.8-1,6.8s-0.4-2.3-0.6-3.4c-0.3-2.1-0.5-4.2-0.8-6.3c-0.3-1.6-0.8-3-2.6-3.5
			c-1.8-0.5-3.2,0-4.3,1.4c0.2,2.5,2.8,0.9,3.6,1.6c0.8,0.6,0.7,5,1.1,7.4c0.3,1.6,0.5,3.3,1,4.8c0.7,1.9,2.7,2.4,4.2,1.2
			c0.8-0.6,1.5-1.6,1.7-2.6c0.4-1.9,0.5-3.8,0.7-5.7c0.2-2.1,0.6-6.3,2-6.3s0.9,9.9,0.9,14.7c0,2.8-1,5-3.7,6.4
			c-2.2,1.1-3.3,3.1-3.2,5.7c0.1,1.4,0,2.9-0.1,4.4c0,1.1,0.2,3-1.2,3.1c-1.3,0.1-1.6-6.6-2.5-9.6c-0.3-1.1-0.9-2.2-1.5-3.1
			c-0.6-0.9-2.3-2.2-3.2-1.5c-0.8,0.7,0.5,2.5,0.8,3.2c1.7,3.6,3,7.3,2.9,11.3c-1.3,0.2-2.6,0.3-4.2,0.5c0.4,0.9,0.5,2,0.9,2.1
			c1.7,0.4,2.3,1.5,2.4,2.8c0.1,1.9-0.1,3.8,0,5.8c0.1,2,0.3,3.6,1.1,5.3c0.6,1.4,1.9,1.8,3.3,1.9c1.4,0.1,2.2-0.7,2.6-1.9
			c0.5-1.2,0.9-2.6,0.9-3.9c-0.1-3.5-0.5-6.9-0.7-10.4c-0.1-1.5,1-4,2-3.9c2.6,0.2,1.6,15.5,0.9,21.9c-0.2,1.8-1,3.4-2.2,4.9
			c-0.9,1-1.4,2.6-1.6,3.9c-0.3,2.1-0.2,4.3-0.3,6.4c-0.1,2.7-0.2,5.4-0.2,8.1c0,2.9-2.6,5.3-5.6,5.9c-0.2,0-0.3,0.2-0.4,0.4
			c0.7,1.9,1,2.2,2.5,1.8c2.5-0.6,6.2-3.3,6.4-5.9c0.3-3.9,0.3-7.9,0.4-11.8c0-0.5,0.1-1,0.1-1.5c0.9,1.3,1.5,2.6,2,3.9
			c0.7,2,1.9,3.3,2.9,5.4c0.6,1.3,1.4,2.7,3.1,2c1.8-0.6,4-0.8,3.8-4c1-0.2,2.6-1.5,3.6-1.7c-0.1,1.2-0.7,4.2-0.6,5.3
			c0,2.1,0,4.2,0.4,6.3c0.4,2.2,1.6,2.9,3.6,3c2.1,0,2.9-0.6,3.6-3c0.2-0.7,0.3-1.5,0.4-2.3c0.4-3.4,0.9-6.9,1.3-10.6
			c0.3,0.4,0.4,0.5,0.5,0.7c0.4,1.1,1.9,2-0.2,3.6c-0.7,0.5,0.4,2.2,1.2,2.2c0.9,0,1.8-0.3,2.9-0.5c1.1,1.1,2.3,2.3,4.5,2.1
			c2.6-0.2,3.1-2.3,2.1-4.7c2.2-0.7,5.3-3.3,7.4-4.3c0,3.7-0.1,10.8-0.1,14.4c0,1.1-0.1,2.2,0.2,3.2c0.3,0.9,1.1,1.9,2,2.2
			c3,0.8,6.3-1.3,6.7-4.4c0.4-2.4,0.4-4.8,0.5-7.2c0.2-3.4,0.4-6.9,0.5-10.3c0.2,0,0.4-0.1,0.6-0.1c0.9,1.5,1.9,3.1,2.6,4.3
			c-0.4,1.4-1.8,2.1-0.7,3.8s3.8-0.1,5.2-1.2c0.5,1.2,2.4,3.5,3.4,3c1.6-0.9,4.2-2.6,3.5-4.5c-0.9-2.4,3.4-4.9,4.9-5.9
			c0,4.2-0.1,11.5-0.1,15.6c0,2.9,1.5,4.6,4.3,5.4c1.1,0.3,1.9,0.2,2.6-0.6c2-2.2,3.6-4.4,3.5-7.7c-0.2-3.8,0-7.6,0-11.8
			c0.9,1.1,1.6,1.9,2.3,2.8c-1.8,2.2-0.8,3.8,0.4,3.4c1.3-0.3,2.5-1.4,3.7-2.2c1.1,1.9,2.3,4.2,3.6,4.8c1.3,0.6,4.1-1.1,4.2-2.3
			c0.2-1.1-0.3-4.6-0.3-4.6c0.2,0,0.4,0,0.5,0c0,0,0.6,8.7,0.5,10.7c-0.2,3.3,1.9,4.9,5.2,5.8c0.8-0.9-0.1-2.5-1.4-3.7
			c-1.4-1.2-1-11.3-1.2-14.8c2-1.4,3.9-2.7,5.7-4.2C157.8,630.8,158.1,629.9,158,629.5z M143.7,596c-0.7,0.6-1.1,1.5-1.7,2.2
			c-0.2-0.1-0.5-0.2-0.7-0.2c0-2.7,0.1-5.4,0-8.1c0-1.5-0.2-3.1-0.5-4.6c-0.3-1.6-1.2-2.9-2.9-3.3c-2.1-0.4-2.8-1.9-2.9-3.8
			c-0.2-3.8-0.3-7.5-0.5-11.3c0-1.2,0.1-2.8,1.6-2.8c1.4,0,1.1,2,1.2,3c0.2,1.6,0.4,3.3,0.5,4.9c0.2,2.4,1.5,4,3,4
			c2-0.1,3.6-1.7,3.8-4c0.1-1.6,0.1-3.3,0.2-4.9c0.1-1.4,0.2-3.5,1.9-3.5c1.7,0,1.5,2,1.7,3.1c0.4,3.2,1.2,6.4,0.5,9.8
			c-0.3,1.5-0.7,3-1.9,4.1c-1.3,1.2-1.8,2.6-1.8,4.4c0.1,2.2-0.2,4.5,0,6.7C145.4,593.4,145.2,594.8,143.7,596z M46.3,616.5
			c-1.6-1-0.6-8.7-1.4-12.6c1.3,0.8,2.7,0.1,3.2,0.7c0.4,0.7,0,7.4,0,8.9C48.1,614.5,48,617.6,46.3,616.5z M64.5,567.9
			c1-0.5,2.2,0.1,2.4,1.3c0.2,1.3,0.3,2.7,0.4,4c0.2,1.1,0.1,2.5,0.7,3.3c0.7,0.9,1.9,1.8,3,2c0.7,0.1,1.9-0.9,2.5-1.7
			c0.6-0.9,0.8-2.1,1-3.3c0.2-1.3,0.2-2.7,0.4-4c0.1-0.8-0.4-2.2,0.8-2.2s1.3,2.1,1.4,3.1c0.2,4.4,0.2,8.9-1.1,13.2
			c-0.3,1-0.8,2-1.5,2.6c-1.5,1.3-1.8,2.7-1.7,4.6c0.1,2.5-0.1,5-0.2,7.5c-0.1,1.6,0.3,5.6-0.9,5.6c-1.1,0-2-1.5-2.1-2.2
			c-0.2-1.8-1-8.1-0.8-10c0.2-1.6,0.9-3-0.1-5.6c-2.3-1-3.4-1.7-3.7-4c-0.3-2.8-0.8-5.5-1-8.3C64,571.7,63.6,568.4,64.5,567.9z
			 M71.8,606.7c-0.3,3.6-0.5,6.9-0.8,10.5c-1.4-2.5-1.5-4.4-1.2-11.1C70.2,606.7,70.9,607,71.8,606.7z M64,587.9
			c0.7-0.5,2.4-0.4,2.9,0c0.5,0.4,0,2.2-0.4,2.7c-0.4,0.5-5.7,3.1-6.2,3.2c-0.5,0.1-1.4-1.3-1.4-1.8S62.2,589.1,64,587.9z
			 M59.4,642.8c-0.9-0.5-1.7-3.4-1.7-4.3c0-0.9,1-1.2,1.7-0.7s1.8,3.3,1.8,4.2S60.3,643.4,59.4,642.8z M59.5,634.3c-1,0-1.9,1-3,1.7
			c-1.4-3.2-2.6-7-1.3-10.4c0.6-1.6,1-3.3,1.1-5c0.3-4.2,0.6-8.5,0.6-12.7c0-2.3-0.5-4.6-1-6.9c-0.3-1.5-1-2.9-2.6-3.3
			c-2.1-0.5-2-4.5-1.5-6.1c0,0,0-1.3,1.5-1.6c1.5-0.4,4,0.8,4,0.8s-0.7,0.2-0.8,0.8c-0.1,0.6,0.2,1,0.2,1s-1.3,0.3-1.3,0.8
			s0.8,1.5,1.5,1.6c0.7,0.2,1.5-0.7,1.9-0.4c0.4,0.3,1,0.8,1.5,0.6c0.5-0.2,4.2-1.9,6.9-2.8c0.1,1.4,0.2,4.2,0.4,6.3
			c-1.3-1.6-2.8-2.4-3.9-1.7c-1.3,0.8-2.5,2.3-2.9,3.8c-0.7,2.2-0.9,4.6-0.9,6.9c0.2,6.8,0.6,11.4,1.1,18.2c0.2,3.1,2.6,4.5,4.2,5.2
			c1.6,0.7-3.1,3.4-4,4.6C60.5,635,60.4,634.3,59.5,634.3z M68.5,637.3c-1.2,0.3-4.1,1.9-5.3,2.5l-1-2.6c0.9-1.7,3.2-3.3,5.7-4.3
			c0.7-0.3,2-0.2,2.7-0.4C70.7,633.9,70.1,636.9,68.5,637.3z M74.8,629.1c-0.1,0.1-1.2,22.8-4,22.8c-1.7,0-1.2-3.8-1.1-5.6
			c0.2-1.7,0.5-3.4,0.6-5.1c0-0.2,0-0.4,0.1-0.5c0,0,1.2-2.7,1.3-4.3c0.1-1.6,0.8-4.6,0-5.2c-0.8-0.7-1.9-0.6-2.6-0.6
			c-1.2,0-4.9-2.2-5.2-5.4c-0.2-3.2-0.9-12.5-1.1-18.8c-0.1-1.9,0.2-6.4,1.3-6.4c1.1,0,1.2,1.6,1.3,2.1c0.4,3.9,0.7,7.9,1.1,11.8
			c0.2,1.6,0.4,3.3,0.8,4.8c0.4,1.7,1.6,2.5,3,2.6c1.7,0.1,2.3-1.1,2.9-2.4c1.1-2.6,0.5-5.3,1-7.9c0.4-2.1,0.6-4.2,0.8-6.3
			c0.2-1.7,1.2-4.5,2.5-4.5s1.9,10.7,2,16C79.7,621.7,75.5,628.1,74.8,629.1z M84.9,643.4c-0.5,0.8-2.3,0.9-2.7,0.3
			c-0.4-0.7-2.2-3.8-2.1-4.5c0.1-1.2,1.5-2.4,2-2C82.8,637.5,85.5,642.6,84.9,643.4z M111.3,564.7c1.8-0.2,1.8,2.3,2,3.3
			c0.3,1.4,0.4,2.9,0.6,4.3c0.5,2.7,2.1,4.4,3.8,4.4c1.7,0,3.4-1.4,3.6-3c0.2-1.8,0.2-3.7,0.4-5.5c0.1-1.2-0.1-3.5,1.4-3.5
			c3,0,0.9,10.1,0.5,14.1c-0.1,1.2-0.9,2.7-1.9,3.4c-2.1,1.6-2.3,3.6-2.3,5.9c0,1.5-0.4,6.4-0.2,7.2c0.2,1.4-1.3,1.7-2.4,2.6
			c-0.7-5.3-2.8-11.1-1.5-16.9c0.6-0.2-1.8-2-4.7-3C110.9,573.6,108.7,564.9,111.3,564.7z M109,579.7c1.6,0.5,4.1,1.5,4.1,1.5
			c0,1.1-0.5,1.8-1,3.1c-0.6,1.4-7.3,3.3-8.5,4.7c-0.2-0.2-1.7-1.9-1.9-2.1C104.2,584.6,106.6,582.2,109,579.7z M88.3,584.1
			c-0.8-0.4-1.5-1.6-1.6-2.6c-0.5-4.1-0.8-8.2-1.1-12.4c-0.1-1-0.6-2.4,0.7-2.9c1.3-0.5,1.9,0.9,2,2c0.2,1.7,0.4,3.5,0.7,5.2
			c0.3,1.9,1,2.6,2.4,2.7c1.3,0.1,2.4-0.8,2.8-2.5c0.3-1.6,0.4-3.3,0.6-4.9c0.1-0.9-0.3-2.7,1.4-2.7c1.2,0,1,1.5,1.2,2.3
			c0.8,3.3,1.1,6.7,0.7,10.1c-0.1,0.8-0.4,1.8-1,2.3c-2.1,1.8-2.5,4-2.5,6.5c0,2.8,0.1,7.5-0.2,8.1c-0.3,0.6-2.2,0-2.9-0.4
			c-0.7-0.3,0-3.2,0-4.9C91.3,587.7,90.9,585.4,88.3,584.1z M95.8,634c-3.3,2.1-6.3,3.9-9.4,5.9c-0.9-1.4-0.8-2.5,0.4-3.5
			c2.2-1.8,4.2-3.6,6.5-5.3c0.7-0.5,1.8-0.4,3-0.7C96,631.9,95.9,633.2,95.8,634z M103.8,630.2c-1.1,0.8-1.9,2.6-2,4
			c-0.5,3.6-0.5,7.3-0.7,11c-0.1,2-0.2,4.1-0.2,6.1c-0.1,2.7-3.7,4.4-4,1c-0.3-3.6-0.6-7.2-0.5-10.7c0-1.2-0.6-4.6,0.4-5.6
			c0.8-0.8,1-5.1,1-7.2c-1.4-1-2.1-0.8-3.4-0.8c-3.1,0-3.6-0.6-3.8-3.9c-0.3-4.8-0.5-9.6-0.6-14.4c-0.1-2.8,0-5.6,0-8.3
			c0-1.5,0.7-3,2.2-2.9c1.5,0.2,1.7,3.9,1.8,6c0.2,2.7,0,5.4,0.1,8.1c0,1.3,0.1,2.7,0.4,4c0.4,1.7,1.5,3,3.3,3.3
			c1.8,0.2,3.3-0.6,3.9-2.3c0.5-1.2,1-2.5,1-3.8c0.1-3.4,0-6.8,0-10.2c0-2.2,0.2-5.7,1.7-6.1c1.4-0.4,1.6,0.8,1.7,1.7
			c0.4,3.3,0.9,6.7,1,10.1c0.1,4.7-0.1,9.4-0.3,14.1C106.8,626.1,106.4,628.5,103.8,630.2z M108.2,632.9c-0.8-0.2-1.7-0.8-1-1.5
			c3.4-3.5,2.9-7.9,3-12.1c0.2-5.6-0.2-11.2-0.4-16.8c0-1.2-0.4-2.5-0.7-3.7c-0.3-2-1.8-3.2-3.4-4.1c-1.6-1-3.4-0.3-4.4,1.5
			c-1.8,3.4-1.8,7-1.6,10.7c0.2,2.7,0.5,10.3-1.5,10.3c-0.9,0-1.2-3.4-1.2-5c0-2.9-1.8-13.3-0.3-16.1c1.1-2,0-8,1.2-10.9
			c1.3,0.3,2,0.5,2.2,1.7c0.1,0.6-1.2,2.2-0.9,2.7c0.3,0.5,1.4,1.7,1.8,2c0.4,0.5,1.8-0.8,2-0.5c4.3-1.3,4.7-2.6,9-3.6
			c0.5,3.8,1,7.2,1.5,10.6c0.1,0.8,0.2,2.1,0.7,2.4c1.7,1,1.5,2.5,1.6,4c0.5,7.2,2.2,16.2,2.7,23.4c0.1,0.8-3.6,3.4-4.7,4.5
			C111.4,630.3,110.5,630,108.2,632.9z M115.3,641.2c-0.8-0.4-5.4-5.9-4.4-6.9c1-1,5.3,5.4,5.5,6.2S116.1,641.6,115.3,641.2z
			 M118.4,635.6c-1.5,1.1-1.6,1-3.1-1c3.1-2.9,6-5.7,9-8.4c1.1-1,2.2-1.5,3.8-0.6c0.5,1.3,0.6,2.5-0.8,3.5
			C124.2,631.3,121.3,633.5,118.4,635.6z M131.8,629.5c-0.4,1-0.7,3.9-0.7,3.9c0,3.7,0,7.4,0,11c0,0.7-0.1,1.3,0,2
			c0.2,2.6-0.8,6.7-2.8,6.7c-1.2,0-2-4.3-2-5.1c0-3.2,0.1-13.7,0.1-13.7c0.3-2.1,3.5-3.3,3.6-4.8c0.2-1.8,0.1-4.9-1.1-5.3
			c-4.2-1.4-5.6,0.4-8.1,2.2c-0.2-1.1-0.3-2.7-0.4-3.4c-0.6-6.4-1.1-12.8-1.6-19.3c-0.1-1.4-0.9-3.6,0.3-4.2c1.2-0.6,2,0.7,2.2,1.6
			c0.6,2.9,1.9,11,1.9,12.1c0,2.5,2.2,6.4,4.4,6.2c1.3-0.1,3.2-2.4,3.2-4.9c0.1-4.7,0.3-9.4,0.5-14.1c0-1.3,0.3-3.5,1.5-3.3
			s2.2,2.1,2.5,3.5c0.7,3.3,1.3,6.7,0.8,10.2c-0.2,1.3-0.5,11.4-1.3,15.1C134.5,627.8,132.2,628.5,131.8,629.5z M145.1,640.8
			c-0.9-0.2-5-7.1-5.6-7.8c-0.5-0.6-0.3-1.8,0.8-1.8c1.1,0,6.1,8.2,6.1,8.7S146.1,641,145.1,640.8z"/>
	</g>
	<path class="st10" d="M68.5,637.3c-1.2,0.3-4.1,1.9-5.3,2.5l-1-2.6c0.9-1.7,3.2-3.3,5.7-4.3c0.7-0.3,2-0.2,2.7-0.4
		C70.7,633.9,70.1,636.9,68.5,637.3z"/>
	<path class="st10" d="M95.8,634c-3.3,2.1-6.3,3.9-9.4,5.9c-0.9-1.4-0.8-2.5,0.4-3.5c2.2-1.8,4.2-3.6,6.5-5.3c0.7-0.5,1.8-0.4,3-0.7
		C96,631.9,95.9,633.2,95.8,634z"/>
	<path class="st10" d="M118.4,635.6c-1.5,1.1-1.6,1-3.1-1c3.1-2.9,6-5.7,9-8.4c1.1-1,2.2-1.5,3.8-0.6c0.5,1.3,0.6,2.5-0.8,3.5
		C124.2,631.3,121.3,633.5,118.4,635.6z"/>
	<path d="M97.5,626c-0.9-0.1-1.3-1.4-0.8-2c0.5-0.5,1.2-0.5,1.6,0.1C98.8,624.7,98.4,626.1,97.5,626z"/>
	<path d="M101.4,625.2c-0.3,0.6-0.3,0.6-0.6,0.7c-0.6,0.2-1.4-0.3-1.4-0.8c-0.1-0.6,0.5-1.4,1-1.4
		C101,623.8,101.7,624.6,101.4,625.2z"/>
	<path d="M57.3,675.1c-0.9-0.1-1.3-1.4-0.8-2c0.5-0.5,1.2-0.5,1.6,0.1C58.7,673.9,58.2,675.3,57.3,675.1z"/>
	<path d="M61.2,674.4c-0.3,0.6-0.3,0.6-0.6,0.7c-0.6,0.2-1.4-0.3-1.4-0.8c-0.1-0.6,0.5-1.4,1-1.4C60.9,672.9,61.5,673.8,61.2,674.4z
		"/>
	<path d="M117.2,580.7c-0.8-0.1-1.1-1.2-0.7-1.7c0.4-0.4,1-0.4,1.4,0.1C118.3,579.6,118,580.8,117.2,580.7z"/>
	<path d="M120.5,580c-0.2,0.5-0.2,0.5-0.5,0.6c-0.5,0.2-1.2-0.3-1.2-0.7c-0.1-0.5,0.4-1.1,0.9-1.2
		C120.2,578.8,120.7,579.5,120.5,580z"/>
	<path d="M46.4,586.4c-0.8-0.1-1.1-1.2-0.7-1.7c0.4-0.4,1-0.4,1.4,0.1C47.5,585.3,47.1,586.4,46.4,586.4z"/>
	<path d="M49.6,585.7c-0.2,0.5-0.2,0.5-0.5,0.6c-0.5,0.2-1.2-0.3-1.2-0.7c-0.1-0.5,0.4-1.1,0.9-1.1
		C49.3,584.5,49.9,585.2,49.6,585.7z"/>
	<path d="M149.1,620c-0.9-0.1-1.3-1.4-0.8-2c0.5-0.5,1.2-0.5,1.6,0.1C150.4,618.7,150,620.1,149.1,620z"/>
	<path d="M153,619.2c-0.3,0.6-0.3,0.6-0.6,0.7c-0.6,0.2-1.4-0.3-1.4-0.8c-0.1-0.6,0.5-1.4,1-1.4C152.6,617.7,153.3,618.6,153,619.2z
		"/>
	<path d="M133,674c-0.9-0.1-1.3-1.4-0.8-2c0.5-0.5,1.2-0.5,1.6,0.1C134.3,672.7,133.9,674.1,133,674z"/>
	<path d="M136.9,673.2c-0.3,0.6-0.3,0.6-0.6,0.7c-0.6,0.2-1.4-0.3-1.4-0.8c-0.1-0.6,0.5-1.4,1-1.4
		C136.5,671.7,137.2,672.6,136.9,673.2z"/>
	<path d="M140.9,580.3c-0.6-0.1-0.8-0.9-0.5-1.3c0.3-0.3,0.8-0.3,1.1,0C141.7,579.4,141.5,580.3,140.9,580.3z"/>
	<path d="M143.4,579.7c-0.2,0.4-0.2,0.4-0.4,0.5c-0.4,0.1-0.9-0.2-0.9-0.5c0-0.4,0.3-0.9,0.7-0.9
		C143.2,578.8,143.6,579.4,143.4,579.7z"/>
	<path d="M72.3,626.8c-0.9-0.1-1.3-1.5-0.8-2c0.5-0.5,1.2-0.5,1.7,0.1C73.6,625.5,73.2,626.9,72.3,626.8z"/>
	<path d="M69.8,626c-0.3,0.6-0.3,0.6-0.6,0.8c-0.6,0.2-1.4-0.3-1.5-0.9c-0.1-0.6,0.5-1.4,1-1.4C69.4,624.5,70.1,625.3,69.8,626z"/>
	<path d="M112.5,673.5c-0.9-0.1-1.3-1.5-0.8-2c0.5-0.5,1.2-0.5,1.7,0.1C113.9,672.2,113.5,673.6,112.5,673.5z"/>
	<path d="M110,672.7c-0.3,0.6-0.3,0.6-0.6,0.8c-0.6,0.2-1.4-0.3-1.5-0.9c-0.1-0.6,0.5-1.4,1-1.4C109.7,671.2,110.3,672,110,672.7z"
		/>
	<path d="M130.1,622.8c-0.9-0.1-1.3-1.5-0.8-2c0.5-0.5,1.2-0.5,1.7,0.1C131.5,621.5,131,622.9,130.1,622.8z"/>
	<path d="M127.6,622c-0.3,0.6-0.3,0.6-0.6,0.8c-0.6,0.2-1.4-0.3-1.5-0.9c-0.1-0.6,0.5-1.4,1-1.4C127.2,620.5,127.9,621.4,127.6,622z
		"/>
	<path d="M93.2,579.7c-0.7-0.1-1-1.2-0.6-1.6c0.4-0.4,1-0.4,1.3,0.1C94.3,578.7,93.9,579.8,93.2,579.7z"/>
	<path d="M91.2,579.1c-0.2,0.5-0.2,0.5-0.5,0.6c-0.5,0.2-1.1-0.3-1.1-0.7c-0.1-0.4,0.4-1.1,0.8-1.1
		C90.9,577.9,91.5,578.6,91.2,579.1z"/>
	<path d="M48.5,625.9c-0.8-0.1-1.2-1.3-0.7-1.8c0.4-0.5,1.1-0.4,1.5,0.1C49.8,624.7,49.4,626,48.5,625.9z"/>
	<path d="M47,625.2c-0.3,0.6-0.3,0.6-0.6,0.7c-0.5,0.2-1.3-0.3-1.3-0.8c-0.1-0.5,0.5-1.3,0.9-1.3C46.6,623.8,47.2,624.6,47,625.2z"
		/>
	<path d="M85.6,675.1c-0.8-0.1-1.2-1.3-0.7-1.8c0.4-0.5,1.1-0.4,1.5,0.1C86.9,673.9,86.5,675.2,85.6,675.1z"/>
	<path d="M84.1,674.3c-0.3,0.6-0.3,0.6-0.6,0.7c-0.5,0.2-1.3-0.3-1.3-0.8c-0.1-0.5,0.5-1.3,0.9-1.3
		C83.7,672.9,84.3,673.7,84.1,674.3z"/>
	<path d="M72.4,583.1c-0.7-0.1-1-1.2-0.6-1.6c0.4-0.4,1-0.4,1.3,0.1C73.4,582.1,73.1,583.2,72.4,583.1z"/>
	<path d="M71,582.4c-0.2,0.5-0.2,0.5-0.5,0.6c-0.5,0.2-1.1-0.3-1.2-0.7c-0.1-0.4,0.4-1.1,0.8-1.1C70.7,581.3,71.2,582,71,582.4z"/>
	<path class="st10" d="M64,587.9c0.7-0.5,2.4-0.4,2.9,0c0.5,0.4,0,2.2-0.4,2.7c-0.4,0.5-5.7,3.1-6.2,3.2c-0.5,0.1-1.4-1.3-1.4-1.8
		S62.2,589.1,64,587.9z"/>
	<path class="st10" d="M109,579.7c1.6,0.5,4.1,1.5,4.1,1.5c0,1.1-0.5,1.8-1,3.1c-0.6,1.4-7.3,3.3-8.5,4.7c-0.2-0.2-1.7-1.9-1.9-2.1
		C104.2,584.6,106.6,582.2,109,579.7z"/>
</g>
<g>
	<path class="st13" d="M173.6,799.3c0-1.8,0.1-3.7,0.1-5.5c0-5.9-0.2-11.8-0.1-17.7c0.1-5.1,0.4-10.3,0.5-15.4
		c0.1-6,0.1-11.9,0.1-17.9c0-5.9,0-11.8,0.2-17.7c0.2-4.7,0.9-9.5,1-14.2c0.1-3.8-0.1-7.5-0.2-11.3c0-1.3-0.1-2.5,0.1-3.8
		c0.3-1.8,1-2.4,2.9-2.3c4.9,0.1,9.8,0.4,14.7,0.3c4.2-0.1,21-0.2,23.3-0.3c4-0.1,7.9-0.5,11.9-0.7c0.5,0,1-0.1,1.4-0.1
		c7.5,0.7,14.9-1,22.3-1c5.6,0,11.2-0.9,16.8-0.5c5.4,0.4,10.8-0.1,16.2-0.2c1,0,1.9,0,2.9,0c5.2,0.2,10.4,0.4,15.6,0.6
		c0.7,0,5.5-0.1,7.2,1.3c1.8,1.5,1.7,4.7,1.7,7c0,8.6-0.3,17.2-0.3,25.8c0,5.2,0.5,10.4,0.5,15.7c0,5.3-0.1,10.6-0.3,15.9
		c-0.2,6.5-0.5,13-0.8,19.4c-0.4,6.9-0.9,13.9-1.3,20.8c-0.2,3.3,0.1,6.6-0.2,9.9c-0.3,3.5-0.8,6.9-1.5,10.3
		c-0.4,2.3-1.7,4.1-4.4,4.3c-2.1,0.2-4.2,0.4-6.3,0.6c-5,0.5-10,1-15,1.3c-4.5,0.3-9,0.2-13.6,0.3c-3.5,0.1-7,0.1-10.4,0.3
		c-5.5,0.2-11,0.4-16.5,0.7c-6.3,0.3-12.6,0.7-18.8,0.9c-4.8,0.2-9.7,0.5-14.5,0.4c-9.9-0.2-19.7-0.6-29.6-0.9c-0.5,0-1-0.1-1.4-0.1
		c-3.3-0.4-2.8-0.6-4.2-3.6c-1.9-4.2-0.7-8.3-0.5-12.5C173.4,806.1,173.5,799.4,173.6,799.3z"/>
	<g>
		<path class="st1" d="M199,741.3c1,0,0.9-2.6,0.9-3.9c0.1-2.8,0-5.6,0-8.4c-0.1-2.5,1.1-4.6,2.8-6.1c1.6-1.5,2.2-3.1,2.4-5.1
			c0.3-3.3,0.5-6.5,0.5-9.8c0-1.8,0.8-5.7-0.8-5.5c-1.7,0.2-1,5.1-1.2,7.7c-0.2,2-1,3.7-2.3,5.2c-1.1,1.3-3,1.5-3.9,0.1
			c-0.4-0.5-0.5-1.2-0.5-1.9c-0.3-2.7-0.5-5.4-0.7-8.1c-0.1-1.3-0.2-3.5-1.8-3.6s-1.7,7.9-1.4,10.5c0.4,4,0.7,8.1,3.5,11.4
			c0.4,0.5,0.5,1.2,0.6,1.9c0.2,3.6,0.4,7.1,0.4,10.7C197.7,738.2,198.1,741.3,199,741.3z"/>
		<path class="st1" d="M244,701.1c-2.1-0.6-1.2,5.1-1.6,6.7c-0.3,1.3-2.7,1.5-4.1,1.1c-1.6-0.4-1.5-1.7-1.7-3
			c-0.1-1.5-0.4-3.1-0.7-4.5c-0.2-0.8-1.7-1.9-2.1-0.5s0.9,13.7,2,14.3c1.2,0.7,3.2-0.4,3.4,1.7c0.1,1.5,0.1,3.1,0.4,4.6
			c0.3,1.9,0.3,5.6,1.8,5.6c1.6,0,0.4-6.8,0.2-8.3c-0.2-1.5,0.1-2.4,1.7-2.9c1-0.3,1.3,0.5,1.4-2.5S246.1,701.7,244,701.1z"/>
		<path class="st1" d="M286.1,740.4c1.6,0,2.1-3.8,2-5.7c-0.3-3.6-0.6-7.3-1.2-10.9c-0.3-1.7,0.1-2.8,1.7-3.5c2.3-1,3.1-2.8,2.8-5.2
			c-0.4-3.7-0.7-7.5-1.4-11.2c-0.3-1.7-0.8-5-2.1-5c-1.3,0-1.4,2.4-1.6,3.7c-0.6,3.2,0.1,6.5-0.7,9.7c-0.4,1.4-1.3,2.1-2.3,2.2
			c-0.8,0.1-1.9-0.5-2.4-1.1c-1-1.4-2-3.6-1.9-5.5c0-1.8,0-6.6-1.4-6.4c-1.3,0.1-1.3,2.6-1.3,4c0,3.3,0.1,6.6,1.3,9.7
			c1.1,3,2,6.2,5.7,7.4c1.4,0.4,2,1.6,1.8,3.2c-0.3,3.3-0.3,6.5-0.5,9.8C284.4,737.3,284.5,740.4,286.1,740.4z"/>
		<path class="st1" d="M189.4,781.6c1,0,1.5-5.8,1.4-8.7c-0.1-2.4,0.8-4.3,2.6-5.9c0.6-0.5,1.2-1.3,1.3-2.1
			c0.2-4.4,1.2-13.2-0.2-13.2s-0.7,1.7-0.8,2.6c-0.2,1.5-0.2,3.1-0.4,4.6c-0.2,1.6-1.5,2.9-3,3c-1.2,0.1-2.9-1-3.3-2.4
			c-0.3-1-0.3-2.1-0.4-3.1c-0.1-1,0.5-3-0.5-3.1c-1-0.1-0.5,1.8-0.6,2.7c-0.1,2.4,0,4.8,0,7.3c0,1.6,0.2,2.9,1.7,4
			c0.7,0.5,1.2,1.8,1.3,2.7c0.2,1.9,0,3.8-0.1,5.7C188.5,777.7,188.4,781.6,189.4,781.6z"/>
		<path class="st1" d="M287.7,751.9c-1.4-0.5-1.7,1.5-1.7,2.5c0.1,2.2,0.3,4.4,0.6,6.6c0.2,1.4-0.3,3,1,4c1.2,1,4.1,0.8,4.2,4.4
			c0,0.7-0.1,1.3-0.1,2c-0.1,2.6-0.1,8,1.2,8.1s1-2.7,1-3.7c0.2-2.2,0-4.4,0.1-6.6c0.1-0.9,0.3-2.2,0.9-2.6c1.6-1.1,2-2.5,2-4.2
			c0.1-2.9,0.3-5.8,0.2-8.7c0-1-0.5-3.5-1.5-3.4c-0.9,0.1,0.2,4.3-0.1,6.3c-0.2,1.5-0.3,3.4-1.3,4.3c-1.3,1.1-2.9,1-3.8,0.6
			s-1.9-2.6-2-4.4C288.4,755.4,289.1,752.4,287.7,751.9z"/>
		<path class="st1" d="M282.4,794c-0.1,1-1,2.2-1.8,2.8c-1.2,0.8-1.6,1.8-1.5,3.2c0.1,2.8,0.3,5.6,0.3,8.4c0,1.3,0.6,4.2-1,4.2
			c-1.1,0-0.8-1.6-0.8-2.3c-0.1-3.2-0.2-6.4-0.2-9.6c0-3.7-0.7-4.7-4.3-5.5c-0.8-0.2-1.3-0.6-1.4-1.5c-0.3-1.5-0.9-3-1.1-4.5
			c-0.6-3.1-1.1-6.2-1.6-9.3c-0.2-1.2,1.1-3,2-2.2c0.9,0.8,0.7,4.4,1,6.7c0.2,1.9,0.6,3.6,2.1,5c2,1.8,4.3,1.3,4.7-1.3
			c0.3-1.9-0.1-3.8-0.2-5.7c0-0.8-0.4-1.5-0.3-2.3c0.1-1.5-0.8-3.9,0.7-4.6c1.5-0.7,3.2,1.8,3.5,3.8C283.2,784,282.7,789,282.4,794z
			"/>
		<path class="st1" d="M210.6,782.6c-1.3-0.2-0.9,1.5-1,2.3c0,1.1,0.1,2.1,0,3.2c-0.1,2.2-0.7,4.2-2.1,5.9c-1.8,2.3-4.1,2-5-0.7
			c-0.5-1.6-0.4-3.4-0.5-5.1c-0.1-1.4,0.1-2.9,0-4.3c0-0.5,0.1-1.2-0.9-1.3c-1.5-0.2-1.8,2-1.8,2.5c-0.2,4.2-0.7,8.5,0.8,12.6
			c0.2,0.6,0.5,1.3,1,1.6c1.8,1.1,2,2.7,2.1,4.5c0.1,3.1,0.2,6.2,0.5,9.3c0,0.6-0.4,1.7,1.1,1.9c1.5,0.2,1.2-4.3,1.2-6.5
			c0-3.1,3-7.5,4.6-10.1S211.9,782.8,210.6,782.6z"/>
		<polygon class="st1" points="239,821.6 246.3,821.4 247.3,814.9 251.3,810 251.3,799.2 249,793.8 246.9,793.8 245.1,796.3 
			243.4,805.5 240.9,805.2 240.6,801.1 239.4,796.3 236.5,795.2 234.9,797.6 233.7,807.7 233.7,813.8 238.1,817.3 238.1,821.4 		"/>
	</g>
	<g>
		<path class="st10" d="M220.2,714.4c-2.3,0-3.5,0.9-4.5,2.3c-2.8,3.7-5.6,7.4-8.5,11.1c0.3,0.1,0.7,0.3,0.8,0.3
			c4.2-3.5,8.2-7.2,11.6-11.5C220,716.1,219.9,715.4,220.2,714.4z"/>
		<path class="st10" d="M276,727.3c0-1.1-10.3-10.3-11.2-10.3c-0.9,0-1.1,2.1-0.1,2.9c3.2,2.6,6.4,5.3,9.6,7.9
			C275.1,728.5,276,728.3,276,727.3z"/>
		<path class="st10" d="M267.5,801.1c-0.3-0.1-0.5-0.1-0.7-0.2c-2.6-2.6-5.1-5.2-7.8-7.7c-1.9-1.7-2.2-3.7-2-6.2
			c1.1,0,2.1,0.1,2.8,1.1c2.8,3.8,5.6,7.6,8.5,11.5C268,800.1,267.8,800.6,267.5,801.1z"/>
		<path class="st10" d="M227.9,791c-0.2-0.1-2.4-0.1-4,1.4c-1.6,1.4-8.3,6.9-9.2,9.5c-0.2,0.5,0.8,1.3,1,1.6c1.1,1.5,7.8-5,10.6-8.1
			C226.7,794.7,227.7,791.7,227.9,791z"/>
	</g>
	<g>
		<path class="st4" d="M189.1,730.3c-4.5,0.5-6.7,4.3-5.4,9C185.5,736.3,187.1,733.5,189.1,730.3z"/>
		<path class="st4" d="M187.7,741.3c4.5-1.4,5.6-3.4,4.9-8.3C191,735.9,189.5,738.4,187.7,741.3z"/>
		<path class="st4" d="M292.8,733.4c1.3-3.3,2.6-6.4,4-9.8C291.6,724.5,290.7,729.2,292.8,733.4z"/>
		<path class="st4" d="M300.3,725.9c-1.3,3-2.6,6.2-3.7,9C300.6,734.3,302.4,730.3,300.3,725.9z"/>
		<path class="st4" d="M236.7,772.7c2.6,0.6,5.1,0,7.5-0.9c0.5-0.2,0.9-1.2,1-1.8c0.1-0.8-0.1-1.4-0.4-2.6c-0.2-0.6-1.1-1.6,0.5-1.9
			c1.6-0.3,2.1,2.7,2.8,4.2c2.4-0.9,7.3-4.1,8.3-5.9c2.3-4,2-11,0.1-14.2c-1.9-3.2-6.4-6.7-11-8.3c-3.5-1.2-6.7-1.5-10.1-0.4
			c-6.3,2-10.7,6.1-13.2,12.1c-1,2.4-1.7,4.9-0.9,7.7c0.8-0.2,1.1-0.4,2.3-0.5c1.2-0.1,1.4,0.6,1.7,1.1c0.4,0.8-0.2,1.5-1.1,1.7
			c-0.8,0.2-1.6,0.4-2.5,0.6c2.1,5.3,6.6,6.6,11.1,7.9c0.7-1.1,0.5-2.6,1.6-2.7C235.6,768.8,236.8,769.7,236.7,772.7z"/>
		<path class="st4" d="M287.4,810.3c-2.1-3.8-1.6-7.2-0.2-10c1.2-2.5,4-3,7.6-2.6C292.3,802.1,290,806,287.4,810.3z"/>
		<path class="st4" d="M290.9,812.2c2.4-3.6,4.8-7.3,7.3-11.2C299.8,808.6,296.9,812.9,290.9,812.2z"/>
		<path class="st4" d="M188.5,814.7c2-3.3,3.9-6.5,5.9-9.9c-2.8-0.9-4.4,0.5-5.7,2.2C187.1,809.3,187,811.9,188.5,814.7z"/>
		<path class="st4" d="M198.9,807.7c-1.2,1.8-2.1,3.4-3.2,4.8c-1,1.4-2,2.8-2.5,4.7C198.9,816.1,200.6,812.3,198.9,807.7z"/>
	</g>
	<path d="M173.6,799.3c0-1.8,0.1-3.7,0.1-5.5c0-5.9-0.2-11.8-0.1-17.7c0.1-5.1,0.4-10.3,0.5-15.4c0.1-6,0.1-11.9,0.1-17.9
		c0-5.9,0-11.8,0.2-17.7c0.2-4.7,0.9-9.5,1-14.2c0.1-3.8-0.1-7.5-0.2-11.3c0-1.3-0.1-2.5,0.1-3.8c0.3-1.8,1-2.4,2.9-2.3
		c4.9,0.1,9.8,0.4,14.7,0.3c4.2-0.1,21-0.2,23.3-0.3c4-0.1,7.9-0.5,11.9-0.7c0.5,0,1-0.1,1.4-0.1c7.5,0.7,14.9-1,22.3-1
		c5.6,0,11.2-0.9,16.8-0.5c5.4,0.4,10.8-0.1,16.2-0.2c1,0,1.9,0,2.9,0c5.2,0.2,10.4,0.4,15.6,0.6c0.7,0,5.5-0.1,7.2,1.3
		c1.8,1.5,1.7,4.7,1.7,7c0,8.6-0.3,17.2-0.3,25.8c0,5.2,0.5,10.4,0.5,15.7c0,5.3-0.1,10.6-0.3,15.9c-0.2,6.5-0.5,13-0.8,19.4
		c-0.4,6.9-0.9,13.9-1.3,20.8c-0.2,3.3,0.1,6.6-0.2,9.9c-0.3,3.5-0.8,6.9-1.5,10.3c-0.4,2.3-1.7,4.1-4.4,4.3
		c-2.1,0.2-4.2,0.4-6.3,0.6c-5,0.5-10,1-15,1.3c-4.5,0.3-9,0.2-13.6,0.3c-3.5,0.1-7,0.1-10.4,0.3c-5.5,0.2-11,0.4-16.5,0.7
		c-6.3,0.3-12.6,0.7-18.8,0.9c-4.8,0.2-9.7,0.5-14.5,0.4c-9.9-0.2-19.7-0.6-29.6-0.9c-0.5,0-1-0.1-1.4-0.1c-3.3-0.4-2.8-0.6-4.2-3.6
		c-1.9-4.2-0.7-8.3-0.5-12.5C173.4,806.1,173.5,799.4,173.6,799.3z M214.9,697.3c-11.7-0.1-23.5,0.7-35-0.9c-1,1-0.9,7.3-1,8.2
		c-0.3,5.7-0.6,11.4-0.9,17.1c-0.2,3.5-0.2,6.9-0.1,10.4c0.1,4.5-0.3,9-0.3,13.5c0,4.7,0.3,9.5,0.2,14.2c-0.1,4.8-0.5,9.7-0.7,14.5
		c-0.1,2.2-0.2,4.5-0.2,6.7c0,6.4,0,12.8,0,19.2c0,1.7-1.1,16.5-0.2,20.5c1,0.1,1.9,0.2,2.7,0.3c1.1,0,2.1,0,3.2-0.1
		c9.5-0.9,18.9-1.2,28.4-0.7c2.2,0.1,4.4,0,6.7-0.1c5.1-0.1,31.6-0.6,36.9-0.5c2.6,0.1,5.2-0.4,7.9-0.4c4.1,0,8.2-0.7,12.3-0.8
		c6.9-0.2,13.7-0.1,20.6-0.2c2.1,0,7.8-2.1,8.1-1.4c0.5-1.1,0.7-2.1,0.8-3.2c0.2-7.2,0.5-14.5,0.6-21.7c0-0.2,0.5-3.1,0.2-4.6
		c-0.3-1.9-0.3-3.9-0.3-5.8c0.1-6.4,0.2-12.9,0.4-19.3c0-0.8,0-1.6-0.1-2.3c-0.6-2.7,2.6-57.9,0.7-63.7c-0.8,0-1.5,0.1-2.3,0.1
		c-7.8-0.5-15.6-1.2-23.4-1.5c-5.5-0.2-11,0.1-16.5,0.2c-0.4,0-0.8,0-1.2,0c-5.1,0.4-26.7,1.5-27.2,1.5c-4.8,0.1-9.6,0.4-14.5,0.6
		C218.9,697,216.9,697.1,214.9,697.3L214.9,697.3z"/>
	<path d="M265.7,765.8c-1.4-0.5-2.7-0.9-4.2-1.4c-3.5,3.9-7.4,7.5-12.8,9.6c0.5,1.7,1,3.3,1.6,5.1c1.2-0.1,2.4-0.2,3.5-0.3
		c1.6-0.2,2.7,0.7,2.4,2.2c-0.3,1.4-5.7,1.8-8.6,2.2c-2.1,0.3-3-1.6-2.5-2.3s1.4-0.8,2.4-1.1c-0.4-1.5-0.9-3-1.3-4.5
		c-4.1,0.3-7.9,1.4-12.5,0.4c-0.8,1.5-1.1,2.1-2,3.8c0.7,0.6,1.5,1.1,2.1,1.8c0.8,1,0.2,2.2-0.9,2c-2.5-0.4-5-1-6.6-3
		c-0.4-0.5-1.6-2.8-0.4-3.1c1.1-0.3,2.2,0.8,3,1.3c0.6-1.2,1.2-2.4,2-3.8c-5.3-2-10-4.5-11.7-10.1c-0.7,0.2-1.1,0.2-1.4,0.3
		c-0.4,0.1-0.7,0.4-1.1,0.6c0.1,0.4,0.2,0.7,0.4,1c0.9,2.1,0.8,3.3-0.1,3.6c-1,0.4-1.6-0.2-2.4-2.6c-1-2.8-3.7-8-1.9-8.8
		s2.7,2,3.6,3.3c0.7-0.2,1.4-0.5,1.9-0.6c0.1-3.8,0.3-9.9,4.2-15.3c-1.4-0.9-3-1.9-4.8-3.1c-0.8,1.1-1.5,2.1-2.3,3.3
		c-0.7,1-1.4,1-3.1,0.3c-0.6-0.3-0.4-1.5-0.2-2c1.3-3.1,2.9-5.9,5.7-7.9c0.9-0.6,1.7-0.8,2.7-0.3c1.7,1,1.8,2.1,0.3,3.6
		c-0.2,0.2-0.4,0.4-0.6,0.7c1.1,1.5,2.7,2.1,4.4,2.6c0.5,0.1,1.3,0.1,1.6-0.2c2.6-2.7,6-4.2,9.3-5.7c0.1,0,0.1-0.3,0.2-0.5
		c-2.9-0.1-3.9-2.6-2.6-3.3c1.3-0.6,3.5-0.6,5.2-0.7c0.6,0,1.5,0.5,1.7,1.1c0.5,1-0.3,1.6-1.2,1.8c-0.2,0-0.1,0.7-0.1,0.7
		c1.7,0.5,3.1,0.1,4.8,0.5c1.7,0.3,3.3,0.9,5,1.3c1.3-1.3,2-2.7,1.2-4.6c-0.2-0.4-0.7-1.2,0.2-1.5c0.8-0.2,2.5-0.4,3.5-0.2
		c1.4,0.4,2.9,1,4.1,1.8c0.6,0.4,1.6,1.6,1.3,2.5c-0.3,0.9-2,0.1-2.7,0c-2.5-0.5-2.5-0.6-3.8,1.7c-0.3,0.5-0.5,1-0.8,1.7
		c3.9,1.5,6.8,4.2,9,8c2-1.2,3.9-2.2,5.6-3.2c0.1-1.7-2-3.6,0.1-4.4s4.3,5.4,4.5,6.7c0.1,1.3-1.4,2.2-3.4,0.8c-1.7,1-3.4,2-5,3
		c1.5,4.1,1.5,7,0.7,10.4c3.8,2.5,5.4-0.8,6.9-1.8c1.4-1,2.4,1.2,1.8,2.7c-0.9,2.1-1.8,4.1-2.8,6.1c-0.3,0.5-0.9,1.8-2.2,1.1
		C265.4,768.7,265.7,766.4,265.7,765.8z M236.7,772.7c2.6,0.6,5.1,0,7.5-0.9c0.5-0.2,0.9-1.2,1-1.8c0.1-0.8-0.1-1.4-0.4-2.6
		c-0.2-0.6-1.1-1.6,0.5-1.9c1.6-0.3,2.1,2.7,2.8,4.2c2.4-0.9,7.3-4.1,8.3-5.9c2.3-4,2-11,0.1-14.2c-1.9-3.2-6.4-6.7-11-8.3
		c-3.5-1.2-6.7-1.5-10.1-0.4c-6.3,2-10.7,6.1-13.2,12.1c-1,2.4-1.7,4.9-0.9,7.7c0.8-0.2,1.1-0.4,2.3-0.5c1.2-0.1,1.4,0.6,1.7,1.1
		c0.4,0.8-0.2,1.5-1.1,1.7c-0.8,0.2-1.6,0.4-2.5,0.6c2.1,5.3,6.6,6.6,11.1,7.9c0.7-1.1,0.5-2.6,1.6-2.7
		C235.6,768.8,236.8,769.7,236.7,772.7z"/>
	<path d="M217,806.2c0.4,0.4,0.7,0.7,0.9,1.1c0.6,1.3,0.3,1.9-1.1,2.3c-2.3,0.7-2.7,0.6-4-1.5c-0.3-0.4-0.5-0.8-0.9-1.2
		c-1,0.6-1.9,1.1-2.8,1.6c-0.2,1.9-0.3,3.8-0.8,5.7c-1,4-2.8,4.7-6.3,2.6c-0.2-0.1-0.5-0.3-0.6-0.4c-1.4,1-2.8,1.8-3.9,2.9
		c-2.2,2.1-5,0.7-7.4,1.3c-0.3,0.1-0.7-0.2-1-0.4c-5.6-4-6.2-11.2-2.7-15.6c2.1-2.6,5-3.7,8.3-2.9c1.8,0.4,3.4,1.2,5.3,1.8
		c0.3-0.6,0.1-1.4-0.7-1.9c-2.3-1.4-2.8-3.7-3.1-6c-0.5-4.1-0.4-8.3,0.6-12.4c0.4-1.9,2.1-3.3,3.6-3.2c2.4,0.2,4.4,1.6,4.6,3.7
		c0.2,2.1,0,4.2,0,6.3c0,0.5,0,1.1,0,2.2c1.9-2.3,1.9-4.6,2-6.9c0.1-1.1-0.1-2.3,0.1-3.4c0.2-1.5,1.1-2.8,2.7-3.1
		c1.7-0.3,2.4,1,3,2.2c1.4,2.9,2.2,6,2.2,9.2c-0.1,3.4,0.2,6.8-2.2,9.7c0.4,0.1,0.7,0.2,0.7,0.2c2.3-2.4,4.7-4.6,6.7-7.2
		c2-2.6,4.8-3.8,7.6-5.1c1.3-0.7,2.5,0.3,2.4,1.8c-0.1,1.6-0.6,4.3-0.9,5.9c-0.1,0.8-8.2,7.2-10.7,9.3
		C218.1,805.2,217.6,805.6,217,806.2z M210.6,782.6c-1.3-0.2-0.9,1.5-1,2.3c0,1.1,0.1,2.1,0,3.2c-0.1,2.2-0.7,4.2-2.1,5.9
		c-1.8,2.3-4.1,2-5-0.7c-0.5-1.6-0.4-3.4-0.5-5.1c-0.1-1.4,0.1-2.9,0-4.3c0-0.5,0.1-1.2-0.9-1.3c-1.5-0.2-1.8,2-1.8,2.5
		c-0.2,4.2-0.7,8.5,0.8,12.6c0.2,0.6,0.5,1.3,1,1.6c1.8,1.1,2,2.7,2.1,4.5c0.1,3.1,0.2,6.2,0.5,9.3c0,0.6-0.4,1.7,1.1,1.9
		c1.5,0.2,1.2-4.3,1.2-6.5c0-3.1,3-7.5,4.6-10.1S211.9,782.8,210.6,782.6z M188.5,814.7c2-3.3,3.9-6.5,5.9-9.9
		c-2.8-0.9-4.4,0.5-5.7,2.2C187.1,809.3,187,811.9,188.5,814.7z M227.9,791c-0.2-0.1-2.4-0.1-4,1.4c-1.6,1.4-8.3,6.9-9.2,9.5
		c-0.2,0.5,0.8,1.3,1,1.6c1.1,1.5,7.8-5,10.6-8.1C226.7,794.7,227.7,791.7,227.9,791z M198.9,807.7c-1.2,1.8-2.1,3.4-3.2,4.8
		c-1,1.4-2,2.8-2.5,4.7C198.9,816.1,200.6,812.3,198.9,807.7z"/>
	<path d="M204.2,725.3c1.9,0.5,2.2-0.6,2.7-1.3c2.5-3.4,5-6.8,7.5-10.2c0.4-0.5,0.9-1,1.4-1.2c1.4-0.5,2.9-0.9,4.4-1.3
		c1.6-0.5,2.5,0,2.6,1.7c0.1,1.3,0.1,2.7-0.1,4.1c-0.1,0.7-0.7,1.3-1.2,1.8c-0.6,0.6-1.4,1-2,1.6c-3.1,3.1-6.2,6.3-9.4,9.6
		c0.1,0.9,1.9,1.7,0.3,3.2c-1.6,1.5-7.3-3.3-8.3-4.2c0,2.6,0.4,7,0.3,9.3c-0.1,1.1-0.4,2.3-0.8,3.3c-0.6,1.4-1.5,2.4-3.3,2.2
		c-1.8-0.2-2.4-0.7-3.1-2.9c-0.1-0.3-0.2-2.1-0.3-2.6c-2,3.9-4.2,5.2-6.9,5.2c-1.6,0-3-0.1-4.3-0.9c-3.3-1.8-4.2-6.1-2.8-10
		c0.8-2.2,2.3-3.7,4.3-4.9c1.8-1.2,4.2-0.9,6.8,0.2c0.6-0.6,1.4-1.4,2.2-2.1c-0.1-0.3,0-0.6-0.1-0.7c-3.1-2.3-3-5.9-3.3-9.1
		c-0.4-3.7-0.3-7.6-0.2-11.3c0.1-2.9,2.7-5.2,4.8-5.3c2.1-0.1,3.5,3.4,3.9,5c0.4,1.8,0.2,3.8,0.4,5.7c0,0.5,0.1,2.4,0.8,2.5
		s0.5-4.9,0.7-6.7c0.2-1.7,0.4-3.5,0.9-5.1c0.3-0.9,1.3-1.9,2.1-2.1c1.4-0.2,2.6,0.7,3.2,2c0.2,0.5,0.4,1.1,0.4,1.7
		c0.8,5.3,1.4,10.5,0.2,15.8C207.5,721.1,206.3,723.3,204.2,725.3z M199,741.3c1,0,0.9-2.6,0.9-3.9c0.1-2.8,0-5.6,0-8.4
		c-0.1-2.5,1.1-4.6,2.8-6.1c1.6-1.5,2.2-3.1,2.4-5.1c0.3-3.3,0.5-6.5,0.5-9.8c0-1.8,0.8-5.7-0.8-5.5c-1.7,0.2-1,5.1-1.2,7.7
		c-0.2,2-1,3.7-2.3,5.2c-1.1,1.3-3,1.5-3.9,0.1c-0.4-0.5-0.5-1.2-0.5-1.9c-0.3-2.7-0.5-5.4-0.7-8.1c-0.1-1.3-0.2-3.5-1.8-3.6
		s-1.7,7.9-1.4,10.5c0.4,4,0.7,8.1,3.5,11.4c0.4,0.5,0.5,1.2,0.6,1.9c0.2,3.6,0.4,7.1,0.4,10.7C197.7,738.2,198.1,741.3,199,741.3z
		 M220.2,714.4c-2.3,0-3.5,0.9-4.5,2.3c-2.8,3.7-5.6,7.4-8.5,11.1c0.3,0.1,0.7,0.3,0.8,0.3c4.2-3.5,8.2-7.2,11.6-11.5
		C220,716.1,219.9,715.4,220.2,714.4z M189.1,730.3c-4.5,0.5-6.7,4.3-5.4,9C185.5,736.3,187.1,733.5,189.1,730.3z M187.7,741.3
		c4.5-1.4,5.6-3.4,4.9-8.3C191,735.9,189.5,738.4,187.7,741.3z"/>
	<path d="M277.3,724.3c1.4-0.8,1.1-1.6,0.5-2.4c-2-2.6-3.3-5.5-3.8-8.7c-0.3-1.8-0.6-10.3,0.4-12c0.8-1.4,2.1-2.7,3.3-2.7
		c1.3,0,2.9,1.3,3.3,2.9c0.5,2.3,0.8,4.6,1.2,6.8c0.2,0.9,0.4,3,1,2.9c0.7-0.2,0.6-8.7,0.7-11.7c0-1.4,1.9-2.8,3.2-2.9
		c1.6-0.2,3.6,0.8,4.2,2.5c1,2.8,1.8,5.7,2.4,8.6c0.5,2.4,0.3,5,0.6,7.5c0.4,3.1-0.6,5.5-3.3,7.1c-0.2,0.1-0.3,0.2-0.4,0.4
		c0,0.1,0.3,1.3,0.3,1.7c1.8-1.8,5.5-3.9,8.3-2.3c2,1.1,3.1,1.9,4,4.1c1.6,3.7,0.8,7.1-2.4,10.2c-2.2,2.1-6,2-9.6-0.3
		c-0.3,1.2-0.6,2.2-0.9,3.3c-0.5,2.1-1.6,3.3-3,3.4c-2.3,0.1-4.5-1.2-4.9-3.2c-0.5-2.3-0.6-4.6-1-7.3c-1-0.6-2.3-1.3-3.6-2.1
		c-0.7,0.9-1.2,1.7-1.8,2.5c-0.6,0.8-1.2,1.7-2.4,1.1c-1.4-0.7-0.6-1.8-0.1-3c-3.7-3-7.4-6-11.1-9c-1.3-1.1-2-5.1-0.9-6.3
		c0.7-0.9,3.6-1,4.9-0.2c0.9,0.6,1.7,1.2,2.5,1.9c2.2,1.9,4.3,3.9,6.4,5.8C276,723.5,276.7,723.9,277.3,724.3z M286.1,740.4
		c1.6,0,2.1-3.8,2-5.7c-0.3-3.6-0.6-7.3-1.2-10.9c-0.3-1.7,0.1-2.8,1.7-3.5c2.3-1,3.1-2.8,2.8-5.2c-0.4-3.7-0.7-7.5-1.4-11.2
		c-0.3-1.7-0.8-5-2.1-5c-1.3,0-1.4,2.4-1.6,3.7c-0.6,3.2,0.1,6.5-0.7,9.7c-0.4,1.4-1.3,2.1-2.3,2.2c-0.8,0.1-1.9-0.5-2.4-1.1
		c-1-1.4-2-3.6-1.9-5.5c0-1.8,0-6.6-1.4-6.4c-1.3,0.1-1.3,2.6-1.3,4c0,3.3,0.1,6.6,1.3,9.7c1.1,3,2,6.2,5.7,7.4
		c1.4,0.4,2,1.6,1.8,3.2c-0.3,3.3-0.3,6.5-0.5,9.8C284.4,737.3,284.5,740.4,286.1,740.4z M276,727.3c0-1.1-10.3-10.3-11.2-10.3
		c-0.9,0-1.1,2.1-0.1,2.9c3.2,2.6,6.4,5.3,9.6,7.9C275.1,728.5,276,728.3,276,727.3z M292.8,733.4c1.3-3.3,2.6-6.4,4-9.8
		C291.6,724.5,290.7,729.2,292.8,733.4z M300.3,725.9c-1.3,3-2.6,6.2-3.7,9C300.6,734.3,302.4,730.3,300.3,725.9z M281.5,728.7
		c0.4-2.4,0.4-2.4-0.5-3.7C279.4,727.4,279.4,727.4,281.5,728.7z"/>
	<path d="M190.4,758.2c0.3-2.1,0.4-4.1,0.8-6.2c0.3-1.4,0.9-2.7,2.5-3.3c2.2-0.7,3.5-0.2,3.9,2c0.4,2.4,0.6,4.8,0.6,7.2
		c0.1,2.4-0.3,4.8-0.3,7.2c0.1,2-0.7,3.4-2.4,4.2c-0.9,0.5-1.3,1.1-1.4,2c-0.1,1-0.3,1.9-0.4,2.9c-0.1,3.3-1,9.3-2.2,9.6
		s-1.3,0.4-1.9,0.4c-2.1,0.2-3.5-0.5-3.7-2.6c-0.3-2.7-0.5-5.6-0.3-8.3c0.2-2.3,0.1-4.1-2-5.6c-0.7-0.5-1.2-1.6-1.2-2.4
		c0.1-4.3,0.3-8.7,0.6-13c0.1-1.1,1.4-3,3.1-2.9c1.7,0,1.8,0.4,2.2,0.8c1.2,1.5,1.6,3.2,1.5,5.1c-0.1,1,0.1,1.9,0.1,2.9
		C190.1,758.2,190.2,758.2,190.4,758.2z M189.4,781.6c1,0,1.5-5.8,1.4-8.7c-0.1-2.4,0.8-4.3,2.6-5.9c0.6-0.5,1.2-1.3,1.3-2.1
		c0.2-4.4,1.2-13.2-0.2-13.2s-0.7,1.7-0.8,2.6c-0.2,1.5-0.2,3.1-0.4,4.6c-0.2,1.6-1.5,2.9-3,3c-1.2,0.1-2.9-1-3.3-2.4
		c-0.3-1-0.3-2.1-0.4-3.1c-0.1-1,0.5-3-0.5-3.1c-1-0.1-0.5,1.8-0.6,2.7c-0.1,2.4,0,4.8,0,7.3c0,1.6,0.2,2.9,1.7,4
		c0.7,0.5,1.2,1.8,1.3,2.7c0.2,1.9,0,3.8-0.1,5.7C188.5,777.7,188.4,781.6,189.4,781.6z"/>
	<path d="M292.8,752.6c0-3.7,2.1-5.2,3.8-5.2s3.1,2.7,3.3,5.2c0.4,3.7,0.5,7.3-0.1,11c-0.2,1.5-0.7,2.9-1.8,3.8
		c-1,0.9-1.1,1.8-1.2,3.1c-0.1,3-0.6,9.1-1.2,10.3c-0.7,1.1-2.1,1.8-3.6,1.6c-1.5-0.1-1.9-1.1-2.3-2.3c-1-3.3-1.2-6.6-1-10
		c0-0.6,0.5-1.7-1-2.1c-2.8-0.9-3.6-2.4-3.8-5.1c-0.3-3.2-0.6-6.4-0.6-9.5c-0.1-3.2,0.8-4.1,3.4-4.4c2.1-0.2,4.4,1.5,4.8,3.8
		c0.2,1.3,0.2,2.7,0.3,4.1c0,0.4-0.1,1.6,0.7,1.5C293.8,758.1,292.8,754.4,292.8,752.6z M287.7,751.9c-1.4-0.5-1.7,1.5-1.7,2.5
		c0.1,2.2,0.3,4.4,0.6,6.6c0.2,1.4-0.3,3,1,4c1.2,1,4.1,0.8,4.2,4.4c0,0.7-0.1,1.3-0.1,2c-0.1,2.6-0.1,8,1.2,8.1s1-2.7,1-3.7
		c0.2-2.2,0-4.4,0.1-6.6c0.1-0.9,0.3-2.2,0.9-2.6c1.6-1.1,2-2.5,2-4.2c0.1-2.9,0.3-5.8,0.2-8.7c0-1-0.5-3.5-1.5-3.4
		c-0.9,0.1,0.2,4.3-0.1,6.3c-0.2,1.5-0.3,3.4-1.3,4.3c-1.3,1.1-2.9,1-3.8,0.6s-1.9-2.6-2-4.4C288.4,755.4,289.1,752.4,287.7,751.9z"
		/>
	<path d="M237.3,718c-3.6-0.6-5.1-3.2-5.5-5.8c-0.4-3-0.7-5.9-0.9-8.9c-0.1-1.1,0.2-2.3,0.5-3.4c0.5-1.5,1.9-2.2,3.4-2.2
		c1.9,0.1,3.1,1.2,3.6,2.9c0.6,1.7,0.1,5.9,1.4,5.8c1.4,0,0.6-2.7,0.8-3.8c0.1-0.6-0.1-1.2,0-1.7c0.1-2,0.9-3,2.7-3.2
		c1.1-0.1,2.9,1.2,3.1,2.5c0.6,4.1,0.5,8.6,0.5,12.8c-0.3,1.9-0.9,4.5-2.2,4.5c-1.3,0-0.2,7.6-0.4,9.7c-0.1,1.6-1.6,1.9-3,2.2
		c-2,0-3-3.3-3.4-5.1C237.6,723.2,237.4,719.2,237.3,718z M244,701.1c-2.1-0.6-1.2,5.1-1.6,6.7c-0.3,1.3-2.7,1.5-4.1,1.1
		c-1.6-0.4-1.5-1.7-1.7-3c-0.1-1.5-0.4-3.1-0.7-4.5c-0.2-0.8-1.7-1.9-2.1-0.5s0.9,13.7,2,14.3c1.2,0.7,3.2-0.4,3.4,1.7
		c0.1,1.5,0.1,3.1,0.4,4.6c0.3,1.9,0.3,5.6,1.8,5.6c1.6,0,0.4-6.8,0.2-8.3c-0.2-1.5,0.1-2.4,1.7-2.9c1-0.3,1.3,0.5,1.4-2.5
		S246.1,701.7,244,701.1z"/>
	<path d="M234.2,755.9c0-1.5,0.8-2.6,1.8-2.6c1.2,0,2.8,1.5,2.8,2.8c0,1.1-1.2,2.2-2.6,2.1C234.8,758.2,234.1,757.4,234.2,755.9z"/>
	<path d="M244.9,757.4c-1.4,0-2.1-0.8-2.2-2.2c0-1.5,1-2.7,2.1-2.6c1.1,0.1,2.4,1.6,2.4,2.9C247.4,756.7,246.5,757.4,244.9,757.4z"
		/>
	<path d="M247.7,795.5c-1.7,0-1.3,4.8-1.8,7.3c-0.2,1-0.3,2.2-0.7,3.1c-0.5,1.2-1,2.6-2.8,2.4c-1.8-0.2-2.8-1-3.2-2.8
		c-0.3-1.6-0.6-3.3-0.3-4.9c0.3-1.6,0.5-3.8-1.1-4c-1.6-0.1-1.7,2-1.8,3.1c-0.4,3.4-0.4,6.9-0.6,10.4c-0.2,2.2,0.8,3.6,2.4,4.9
		c2.1,1.7,2.2,4,2.1,6.4c-1.9,0.4-2.7-0.4-3.1-1.8c-0.3-1.4-0.9-2.4-2.1-3.2c-1.8-1.2-2.2-3.1-2.4-5c-0.5-5,0.2-9.9,1.1-14.7
		c0.4-2.2,1.5-2.9,3.9-2.9c1.9,0,3.8,1.1,4.1,2.9c0.4,2.4,0.5,4.9,0.8,7.4c0.1-0.4,0.4-0.8,0.5-1.3c0.6-2.7,1.2-5.5,1.7-8.2
		c0.3-1.6,1.5-2.3,2.8-2.6c1.2-0.3,2.1,0.5,2.9,1.5c1.6,1.8,2.2,3.9,2.6,6c1,5.9,0.4,11.5-3.4,16.5c-0.7,1-0.8,2.5-1.1,3.8
		c-0.2,1.3,0,2.7-1.4,3.8c-1.1-0.2-2-0.7-1.8-2c0.4-3.2,0.6-6.4,2.7-9.3C252.1,806,249.4,795.6,247.7,795.5z"/>
	<path d="M243.3,813.7c-0.8-0.1-1.2-1.3-0.7-1.8c0.4-0.5,1.1-0.4,1.5,0.1C244.6,812.5,244.2,813.8,243.3,813.7z"/>
	<path d="M241.8,813c-0.3,0.6-0.3,0.6-0.6,0.7c-0.5,0.2-1.3-0.3-1.3-0.8c-0.1-0.5,0.5-1.3,0.9-1.3
		C241.4,811.6,242.1,812.4,241.8,813z"/>
	<path d="M206.7,800.3c-0.8-0.1-1.2-1.3-0.7-1.8c0.4-0.5,1.1-0.4,1.5,0.1C207.9,799.1,207.5,800.4,206.7,800.3z"/>
	<path d="M205.2,799.6c-0.3,0.6-0.3,0.6-0.6,0.7c-0.5,0.2-1.3-0.3-1.3-0.8c-0.1-0.5,0.5-1.3,0.9-1.3
		C204.8,798.2,205.4,799,205.2,799.6z"/>
	<path d="M279.3,794.9c-0.8-0.1-1.2-1.3-0.7-1.8c0.4-0.5,1.1-0.4,1.5,0.1C280.5,793.7,280.1,795,279.3,794.9z"/>
	<path d="M277.7,794.1c-0.3,0.6-0.3,0.6-0.6,0.7c-0.5,0.2-1.3-0.3-1.3-0.8c-0.1-0.5,0.5-1.3,0.9-1.3
		C277.4,792.8,278,793.6,277.7,794.1z"/>
	<path d="M294.4,764.8c-0.8-0.1-1.2-1.3-0.7-1.8c0.4-0.5,1.1-0.4,1.5,0.1C295.6,763.7,295.2,764.9,294.4,764.8z"/>
	<path d="M292.8,764.1c-0.3,0.6-0.3,0.6-0.6,0.7c-0.5,0.2-1.3-0.3-1.3-0.8c-0.1-0.5,0.5-1.3,0.9-1.3
		C292.5,762.7,293.1,763.5,292.8,764.1z"/>
	<path d="M286.3,719.6c-0.8-0.1-1.2-1.3-0.7-1.8c0.4-0.5,1.1-0.4,1.5,0.1C287.5,718.5,287.1,719.7,286.3,719.6z"/>
	<path d="M284.8,718.9c-0.3,0.6-0.3,0.6-0.6,0.7c-0.5,0.2-1.3-0.3-1.3-0.8c-0.1-0.5,0.5-1.3,0.9-1.3
		C284.4,717.5,285,718.3,284.8,718.9z"/>
	<path d="M191.5,766c-0.8-0.1-1.2-1.3-0.7-1.8c0.4-0.5,1.1-0.4,1.5,0.1C192.8,764.8,192.4,766.1,191.5,766z"/>
	<path d="M190,765.3c-0.3,0.6-0.3,0.6-0.6,0.7c-0.5,0.2-1.3-0.3-1.3-0.8c-0.1-0.5,0.5-1.3,0.9-1.3
		C189.6,763.9,190.2,764.7,190,765.3z"/>
	<path d="M201.1,720.9c-0.9-0.1-1.3-1.5-0.8-2c0.5-0.5,1.2-0.5,1.7,0.1C202.5,719.6,202,721,201.1,720.9z"/>
	<path d="M198.6,720.1c-0.3,0.6-0.3,0.6-0.6,0.8c-0.6,0.2-1.4-0.3-1.5-0.9c-0.1-0.6,0.5-1.4,1-1.4
		C198.2,718.6,198.9,719.4,198.6,720.1z"/>
	<path d="M241.3,713c-0.6-0.1-0.9-1-0.5-1.3c0.3-0.3,0.8-0.3,1.1,0C242.2,712.1,241.9,713,241.3,713z"/>
	<path d="M240.4,712.4c-0.2,0.4-0.2,0.4-0.4,0.5c-0.4,0.2-0.9-0.2-1-0.6c0-0.4,0.3-0.9,0.7-0.9C240.1,711.4,240.6,712,240.4,712.4z"
		/>
	<path d="M301.9,802.9c0-2.6-1.4-4.6-3.3-6.2c-1.6-1.4-4-1.7-5.6-1.7c-1.7-0.1-5.5,1-7.8,3.5c-0.1-0.1-0.6-0.4-0.7-0.5
		c0.6-3.2,1.4-6.1,1.5-9.1c0.2-3.5,0.1-7.2-0.5-10.7c-0.5-3.5-2.9-5.3-6.4-5.8c-1.3-0.2-2.2,0.1-2.6,1.6c-0.8,2.7-0.8,5.5-0.3,8.4
		c0.2,1.3,0.9,3.5-0.1,3.8c-1.1,0.3-0.9-1.9-1.1-3c-0.4-2-0.7-4-1.2-5.9c-0.5-2.1-2-3.1-4-2.8c-1,0.1-2.7,1.3-3.1,2.8
		c-0.5,1.6-0.1,10.8,1.6,17.2c-2.1-2.5-4.4-4.8-5.7-7.7c-0.9-2-2.3-2.1-3.7-2.5c-0.9-0.2-1.9-0.2-2.8-0.3c-1.2-0.1-1.9,0.6-1.9,1.7
		c0,2,0.1,4.1,0.3,6.1c0,0.5,0.4,1.1,0.7,1.5c2.7,2.7,5.5,5.5,8.2,8.1c0.5,0.5,1.3,0.8,1.8,1.1c-0.5,1.4-0.5,1.4,0.9,3.3
		c1.6,2.1,3,1.5,3,1.5c0.6-0.8,1.4-1.5,2-2.2c1.2,0.6,2.1,1.1,3,1.5c0.2,1.4,0.3,2.7,0.6,3.9c0.6,3.8,2.6,4.8,4.3,4.6s3.1-4,3-7.7
		c0-2.1-0.1-4.3-0.1-6.4c0-0.3,0.2-0.5,0.3-0.8c0.6,0.1,1.1,0.2,2,0.3c-2.2,4.9-0.9,11.6,5,14c6.1,2.4,11.6-2.6,12.4-7.3
		C301.9,805.8,301.9,804.4,301.9,802.9z M267.5,801.1c-0.3-0.1-0.5-0.1-0.7-0.2c-2.6-2.6-5.1-5.2-7.8-7.7c-1.9-1.7-2.2-3.7-2-6.2
		c1.1,0,2.1,0.1,2.8,1.1c2.8,3.8,5.6,7.6,8.5,11.5C268,800.1,267.8,800.6,267.5,801.1z M271.7,801.7c0-0.6,0.2-1.4,0.8-2
		c0.6-0.6,1.4,3.6,1.2,4C273.5,804,271.7,802.3,271.7,801.7z M282.4,794c-0.1,1-1,2.2-1.8,2.8c-1.2,0.8-1.6,1.8-1.5,3.2
		c0.1,2.8,0.3,5.6,0.3,8.4c0,1.3,0.6,4.2-1,4.2c-1.1,0-0.8-1.6-0.8-2.3c-0.1-3.2-0.2-6.4-0.2-9.6c0-3.7-0.7-4.7-4.3-5.5
		c-0.8-0.2-1.3-0.6-1.4-1.5c-0.3-1.5-0.9-3-1.1-4.5c-0.6-3.1-1.1-6.2-1.6-9.3c-0.2-1.2,1.1-3,2-2.2c0.9,0.8,0.7,4.4,1,6.7
		c0.2,1.9,0.6,3.6,2.1,5c2,1.8,4.3,1.3,4.7-1.3c0.3-1.9-0.1-3.8-0.2-5.7c0-0.8-0.4-1.5-0.3-2.3c0.1-1.5-0.8-3.9,0.7-4.6
		c1.5-0.7,3.2,1.8,3.5,3.8C283.2,784,282.7,789,282.4,794z M287.4,810.3c-2.1-3.8-1.6-7.2-0.2-10c1.2-2.5,4-3,7.6-2.6
		C292.3,802.1,290,806,287.4,810.3z M290.9,812.2c2.4-3.6,4.8-7.3,7.3-11.2C299.8,808.6,296.9,812.9,290.9,812.2z"/>
</g>
<g>
	<g>
		<path class="st11" d="M185.5,106.8c26.7,0,56.7,15,58.5,50.9"/>
		<g>
			<polygon class="st10" points="238.7,151.8 243.9,156.8 248.9,151.5 249,155.9 244.1,161.1 238.8,156.1 			"/>
		</g>
	</g>
</g>
<g>
	<g>
		<path class="st11" d="M167.2,362c26.7,0,56.7,15,58.5,50.9"/>
		<g>
			<polygon class="st10" points="220.4,407 225.7,411.9 230.6,406.7 230.7,411 225.8,416.2 220.6,411.3 			"/>
		</g>
	</g>
</g>
<g>
	<g>
		<path class="st11" d="M167.2,630.2c26.7,0,56.7,15,58.5,50.9"/>
		<g>
			<polygon class="st10" points="220.4,675.3 225.7,680.2 230.6,675 230.7,679.3 225.8,684.5 220.6,679.6 			"/>
		</g>
	</g>
</g>
<g>
	<g>
		<path class="st11" d="M112.3,294c1.7-26.6,23.6-55.1,60.4-55.1"/>
		<g>
			<polygon class="st10" points="117.7,288.3 112.4,293.1 107.6,287.7 107.4,292.1 112.2,297.4 117.5,292.6 			"/>
		</g>
	</g>
</g>
<g>
	<g>
		<path class="st11" d="M112.3,544.8c1.3-26.6,17.4-55.1,54.2-55.1"/>
		<g>
			<polygon class="st10" points="117.6,539 112.4,543.9 107.5,538.6 107.3,542.9 112.2,548.2 117.5,543.3 			"/>
		</g>
	</g>
</g>
<g>
	<g>
		<path class="st12" d="M75.1,53.6c-11.7-0.1-23.5,0.7-35-0.9c-1,1-0.9,7.3-1,8.2c-0.3,5.7-0.6,11.4-0.9,17.1
			c-0.2,3.5-0.2,6.9-0.1,10.4c0.1,4.5-0.3,9-0.3,13.5c0,4.7,0.3,9.5,0.2,14.2c-0.1,4.8-0.5,9.7-0.7,14.5c-0.1,2.2-0.2,4.5-0.2,6.7
			c0,6.4,0,12.8,0,19.2c0,1.7-1.1,16.5-0.2,20.5c1,0.1,1.9,0.2,2.7,0.3c1.1,0,2.1,0,3.2-0.1c9.5-0.9,18.9-1.2,28.4-0.7
			c2.2,0.1,4.4,0,6.7-0.1c5.1-0.1,31.6-0.6,36.9-0.5c2.6,0.1,5.2-0.4,7.9-0.4c4.1,0,8.2-0.7,12.3-0.8c6.9-0.2,13.7-0.1,20.6-0.2
			c2.1,0,7.8-2.1,8.1-1.4c0.5-1.1,0.7-2.1,0.8-3.2c0.2-7.2,0.5-14.5,0.6-21.7c0-0.2,0.5-3.1,0.2-4.6c-0.3-1.9-0.3-3.9-0.3-5.8
			c0.1-6.4,0.2-12.9,0.4-19.3c0-0.8,0-1.6-0.1-2.3c-0.6-2.7,2.6-57.9,0.7-63.7c-0.8,0-1.5,0.1-2.3,0.1c-7.8-0.5-15.6-1.2-23.4-1.5
			c-5.5-0.2-11,0.1-16.5,0.2c-0.4,0-0.8,0-1.2,0c-5.1,0.4-26.7,1.5-27.2,1.5c-4.8,0.1-9.6,0.4-14.5,0.6C79.1,53.3,77,53.5,75.1,53.6
			L75.1,53.6z"/>
		<path d="M33.8,155.7c0-1.8,0.1-3.7,0.1-5.5c0-5.9-0.2-11.8-0.1-17.7c0.1-5.1,0.4-10.3,0.5-15.4c0.1-6,0.1-11.9,0.1-17.9
			c0-5.9,0-11.8,0.2-17.7c0.2-4.7,0.9-9.5,1-14.2c0.1-3.8-0.1-7.5-0.2-11.3c0-1.3-0.1-2.5,0.1-3.8c0.3-1.8,1-2.4,2.9-2.3
			c4.9,0.1,9.8,0.4,14.7,0.3c4.2-0.1,21-0.2,23.3-0.3c4-0.1,7.9-0.5,11.9-0.7c0.5,0,1-0.1,1.4-0.1c7.5,0.7,14.9-1,22.3-1
			c5.6,0,11.2-0.9,16.8-0.5c5.4,0.4,10.8-0.1,16.2-0.2c1,0,1.9,0,2.9,0c5.2,0.2,10.4,0.4,15.6,0.6c0.7,0,5.5-0.1,7.2,1.3
			c1.8,1.5,1.7,4.7,1.7,7c0,8.6-0.3,17.2-0.3,25.8c0,5.2,0.5,10.4,0.5,15.7c0,5.3-0.1,10.6-0.3,15.9c-0.2,6.5-0.5,13-0.8,19.4
			c-0.4,6.9-0.9,13.9-1.3,20.8c-0.2,3.3,0.1,6.6-0.2,9.9c-0.3,3.5-0.8,6.9-1.5,10.3c-0.4,2.3-1.7,4.1-4.4,4.3
			c-2.1,0.2-4.2,0.4-6.3,0.6c-5,0.5-10,1-15,1.3c-4.5,0.3-9,0.2-13.6,0.3c-3.5,0.1-7,0.1-10.4,0.3c-5.5,0.2-11,0.4-16.5,0.7
			c-6.3,0.3-12.6,0.7-18.8,0.9c-4.8,0.2-9.7,0.5-14.5,0.4c-9.9-0.2-19.7-0.6-29.6-0.9c-0.5,0-1-0.1-1.4-0.1
			c-3.3-0.4-2.8-0.6-4.2-3.6c-1.9-4.2-0.7-8.3-0.5-12.5C33.5,162.5,33.7,155.8,33.8,155.7z M75.1,53.6c-11.7-0.1-23.5,0.7-35-0.9
			c-1,1-0.9,7.3-1,8.2c-0.3,5.7-0.6,11.4-0.9,17.1c-0.2,3.5-0.2,6.9-0.1,10.4c0.1,4.5-0.3,9-0.3,13.5c0,4.7,0.3,9.5,0.2,14.2
			c-0.1,4.8-0.5,9.7-0.7,14.5c-0.1,2.2-0.2,4.5-0.2,6.7c0,6.4,0,12.8,0,19.2c0,1.7-1.1,16.5-0.2,20.5c1,0.1,1.9,0.2,2.7,0.3
			c1.1,0,2.1,0,3.2-0.1c9.5-0.9,18.9-1.2,28.4-0.7c2.2,0.1,4.4,0,6.7-0.1c5.1-0.1,31.6-0.6,36.9-0.5c2.6,0.1,5.2-0.4,7.9-0.4
			c4.1,0,8.2-0.7,12.3-0.8c6.9-0.2,13.7-0.1,20.6-0.2c2.1,0,7.8-2.1,8.1-1.4c0.5-1.1,0.7-2.1,0.8-3.2c0.2-7.2,0.5-14.5,0.6-21.7
			c0-0.2,0.5-3.1,0.2-4.6c-0.3-1.9-0.3-3.9-0.3-5.8c0.1-6.4,0.2-12.9,0.4-19.3c0-0.8,0-1.6-0.1-2.3c-0.6-2.7,2.6-57.9,0.7-63.7
			c-0.8,0-1.5,0.1-2.3,0.1c-7.8-0.5-15.6-1.2-23.4-1.5c-5.5-0.2-11,0.1-16.5,0.2c-0.4,0-0.8,0-1.2,0c-5.1,0.4-26.7,1.5-27.2,1.5
			c-4.8,0.1-9.6,0.4-14.5,0.6C79.1,53.3,77,53.5,75.1,53.6L75.1,53.6z"/>
	</g>
	<g>
		<path d="M138.9,126.1c-1.4,0.1-2.8,0.1-3.6,0.1c-0.5,2.8,0.8,4.7,2.7,6.4c2.4,2.1,3.4,4.6,3.3,7.8c0.3,8.6,0.1,17.7,0.3,20.2
			c0.3,3.3-1.8,5.1-3.1,5.6c-3.6,1.2-16.4,2.1-19.1,1.3c-2-0.6-4.3-2.6-4.9-4.3c-0.5-1.7-0.7-9.1-0.9-13.6
			c-0.2-3.7-0.2-7.5-0.3-11.2c-0.1-2.1,0.9-3.7,2.8-4.6c2.6-2.1,2.1-5.8,2-7.4c-0.7-0.1-5.5,0.2-5.4-2c0.1-1.6-0.9-8.2,0.6-9.2
			c1.5-1,10.2-1,15.9-1.1c2.2,0,4.4-0.1,6.7-0.1c2.7,0,3.5,0.7,3.7,3.5C140,120.2,140.3,126,138.9,126.1z M132.9,126.4
			c-4.4-0.3-8.4-0.2-11.6,0.3c-0.2,4.4,0.6,8.4-4.5,10.5c-0.4,0.4-0.8,1-0.9,1.5c-0.1,2.6-0.1,7-0.1,9.8c6.9-0.3,14.7-1.8,22-1.6
			c0-2.6,0.5-8.3,0-9.7c-0.5-1.4-5-3.8-5-6.2S132.9,127.7,132.9,126.4z M137.2,149.5c-7.1,1.2-14,0.8-20.9,1.9
			c0.3,3.3,0.5,6.4,0.9,9.5c0.3,2.2,0.9,2.8,3,2.8c2.6,0.1,5.1,0.2,7.7,0c3.1-0.3,6.4-0.4,9.3-2C137.2,157.9,137.2,154,137.2,149.5z
			 M114.8,123.6c8.3,0,15.1,0,23.1,0c0-2.4,0-4.5,0-6.7c-8.2-0.6-15-0.3-23.1,0.4C114.8,119.5,114.8,121.4,114.8,123.6z"/>
		<path class="st4" d="M137.2,149.5c-7.1,1.2-14,0.8-20.9,1.9c0.3,3.3,0.5,6.4,0.9,9.5c0.3,2.2,0.9,2.8,3,2.8c2.6,0.1,5.1,0.2,7.7,0
			c3.1-0.3,6.4-0.4,9.3-2C137.2,157.9,137.2,154,137.2,149.5z"/>
	</g>
	<g>
		<path d="M62.5,146c2.6-3.4,5.5-6.5,8-9.9c3.6-4.7,6.9-9.5,10.4-14.3c0.1-0.1,0.1-0.4,0.1-0.8c-2.4-1.8-7.8-5.4-6.6-6.8
			S96.3,86,107.2,71.9c-1.5-2.9-7-6.3-5.8-7.6c1.1-1.3,2.4,0,3.4,1c2.1,2.1,4.4,4,6.7,6c1.8-1.8,3.5-3.4,5.1-5.1
			c-1-1.3-2.7-2.7-3-3.8s0.6-2.1,2.3-2.1c1.7,0,1.7,0,4.2,2.3c3,2.6,5.9,5.4,8.7,8.1c1.7,1.6,2.7,3.4,1.8,4.5s-2.6,0.5-4.5-1
			c-1.7,1.8-3.9,4.1-5.4,5.8c0.1,0.4,4.3,6.1,7,8.2c1.5,1.2,0.9,0.7,2.3,2.1c0.4,0.4,1,0.8,1.1,1.3c0.1,0.6,0.3,1.2-0.4,1.8
			c-0.4,0.3-1.2,0.2-1.5-0.1c-1.6-1.5-5.3-4.8-6.5-6c-3.6,4.8-6.9,9.4-10.3,14c-0.2,0.3-0.4,0.6-0.7,0.9
			c-4.3,5.2-8.6,10.5-12.9,15.7c-2.1,2.6-4.2,5.3-6.4,7.8c-1.6,1.8-1.8,1.8-3.9,0.4c-1.4-0.9-2.9-1.8-4.6-2.9
			c-6.3,7.9-12.6,15.7-19.3,23.9l-4.2,5.4c-1.9,2.5-3.9,5-6,7.5c-0.7,0.8-1.6,2-2.6,2.1c-0.9,0.1-1.7-1.2-0.3-2.7
			c1.2-1.3,2.4-2.8,3.6-4.2c0.7-0.9,1.3-1.8,2.2-3.2L62.5,146z M77.3,115.6c4.4,3,8.5,5.7,12.7,8.5c0.8-1,1.5-1.7,2.1-2.6
			c1.8-2.3,3.5-4.6,5.4-6.8c5.1-6.2,10.3-12.3,15.3-18.6c2.1-2.6,4-5.5,5.9-8.2c1.6-2.3,2.2-2.5,0.3-4.4c-1.6-1.6-3.8-4.2-5.4-5.7
			c-1.3-1.2-3.4-4-4.7-3.3C107.6,75.1,88,101.7,77.3,115.6z M123.6,71.2c-1-0.9-3.1-2.9-4.2-3.4c-1.1-0.5-6.4,4.6-5.5,5.7
			s3.5,4.3,4.5,4.1C119.5,77.2,124.6,72.1,123.6,71.2z"/>
		<path d="M105.4,103.5c-0.6,0.4-1.9,0.5-1.8-0.8c0.1-0.8-1.9,0.1-2.9,0.9c-0.4,0.4-1.9,1.6-1.7,2.4c0.3,1.1,1.6,1.3,1.5,1.9
			c-0.1,0.9-4.4,0.4-4.8-0.7c-0.4-1,0.7-1.2,1.1-2c-0.5-0.2-1-0.4-1.5-0.6c-1.4,1-0.3,2.9-0.4,3.6c-0.1,0.8-1.6,0.7-2.1,0.4
			c-0.9-0.5-2-1.4-2.2-2.2c-0.2-0.8,0.1-1.2,1.5-1.2c1.4,0.1,0.5-2.5,0.6-4c0.1-2.7,3.6-6.7,6.3-6.9c1.1-0.1,2.4,0.2,3.3,0.9
			c1.4,1.1,1.2,2.9,2.2,4.4c0.7,1.1,1.8-0.4,2.1,0.9C106.8,101.9,106.4,103,105.4,103.5z M99.6,96.6c-1.5,0-3.2,1.9-3.7,2.6
			c-0.4,0.7-0.3,1.7-0.1,2.2c0.2,0.4,0.9,1,1.3,0.9c1.3-0.1,2.7-0.5,3.5-1.8C101.4,99.3,101.2,96.6,99.6,96.6z"/>
		<path class="st4" d="M99.6,96.6c-1.5,0-3.2,1.9-3.7,2.6c-0.4,0.7-0.3,1.7-0.1,2.2c0.2,0.4,0.9,1,1.3,0.9c1.3-0.1,2.7-0.5,3.5-1.8
			C101.4,99.3,101.2,96.6,99.6,96.6z"/>
	</g>
</g>
</svg>
