<?xml version="1.0" encoding="utf-8"?>
<!-- Generator: Adobe Illustrator 19.1.0, SVG Export Plug-In . SVG Version: 6.00 Build 0)  -->
<svg version="1.1" id="Calque_1" xmlns="http://www.w3.org/2000/svg" xmlns:xlink="http://www.w3.org/1999/xlink" x="0px" y="0px"
	 viewBox="0 0 186 159.4" style="enable-background:new 0 0 186 159.4;" xml:space="preserve">
<style type="text/css">
	.st0{fill:#FFFFFF;}
	.st1{fill:#41AB87;}
	.st2{fill:#E2EFE8;}
	.st3{fill:#010202;}
	.st4{fill:#DB5556;}
	.st5{fill:#6FA4C3;}
	.st6{fill:none;stroke:#DB5556;stroke-width:7;stroke-miterlimit:10;}
	.st7{fill:none;}
	.st8{fill:#FFFFFF;stroke:#DB5556;stroke-width:3;stroke-miterlimit:10;}
	.st9{fill:none;stroke:#DB5556;stroke-width:3;stroke-miterlimit:10;}
	.st10{fill:#C1C0C0;}
	.st11{fill:none;stroke:#C1C0C0;stroke-width:3;stroke-miterlimit:10;}
	.st12{fill:#FFFCFA;}
	.st13{fill:#F5D1CA;}
</style>
<g>
	<path class="st5" d="M1.3,40.7l15.8-1.2l9.6,2.2l6.6,2.1l7.3-2.1l0.9,14.1l6.9,14.8l17.8,16.8l-7.3,9.5l-9.5,14.6h12.8l11.2,1.7
		h13.5l19-2.8h12.8l12.1,2.8l2.5-1.7L126.1,96l-5-10.3l8-5.7l7.5-8.8l3.5-11.4l-1.6-15l3.6-3.2h10.8h17.2h7c0,0,2.6,33.1,1.7,45.1
		c-0.9,12-1.6,39.5,0,50.8c1.6,11.2,1.1,16.8-6.7,16.8c-14,0-21.9-5.9-59.1-2.1c-3.4,0.4-13.4-2.5-13.4-2.5l-8.3,3.5l-7.9,2.2
		l-11-1.2l-13-3.6l-9.5,2.5L36.6,157H20.1c0,0-4,2.5-7.8-1.5C0,142,4.6,100.8,3.8,88.8C2.7,72-2.3,46.4,1.3,40.7z"/>
	<path d="M135.6,109.5c5.7-0.8,5.8-0.7,5.2,4c-5.7,1.1-11.7,2.4-17.3,0.6c-8.5-2.7-16.7-1.3-25,0c-3.9,0.6-7.8,1-11.7,1.4
		c-2.5,0.2-5,0.3-7.5,0.2c-3.6-0.2-7.2-0.4-10.7-1.1c-6.3-1.3-12.5-1.1-18.8-0.3c-2.8,0.4-5.8,1.8-8.9,0c0-1,0-2.1,0-3
		c2.6-0.3,5-0.6,6.8-0.9c5.2-8,10-15.6,14.9-23.2c-2.7-2.3-5.7-4.3-8.1-6.9c-3.1-3.3-6.3-6.7-8.6-10.6c-2.3-3.7-4.2-7.9-5.4-12.1
		c-2.5-8.5-1.6-17.2,1-25.4c1.9-6.1,5.9-11.1,10.3-15.7C56.8,11,63.2,7.9,69.9,4.7c10-4.7,20.2-5.2,30.8-4.5
		c21.3,2.2,34.7,25.4,38.2,36.2c1.7,5.2,3.2,12.7,3.2,18.2c0,7.6-2.5,21.1-12.2,27.8c-1.9,1.5-4,2.7-6.1,4c1.9,4.1,3.7,8.1,5.7,12.1
		C131.4,102.3,133.6,105.9,135.6,109.5z M92.2,3.9c-4.1,0.5-8.4,0.4-12.3,1.5c-10.2,2.9-19.8,7-27.1,15.2c-3.9,4.4-7.5,9.2-8.9,14.8
		c-3,12.8-0.9,24.9,6.7,35.8c3.6,5.2,8.5,9,14,11.9c6.3,3.3,12.8,6.4,20.2,6.4c4.1,0,8.3,0,12.4,0c10.7-0.1,20.3-3.7,29.2-9.4
		c5.8-3.7,9.5-9.3,10.6-16c0.8-4.9,1.6-10.6,0.9-15.7c-1-7.2-8.3-28.7-23.8-38.4C107.3,5.8,100.1,3.9,92.2,3.9z M122.2,91.3
		c-2.3,1.2-4,2.3-5.9,2.9c-4,1.4-8.1,3-12.3,3.6c-5.8,0.8-11.6,0.8-17.4,1c-2.6,0.1-5.4,0.1-7.9-0.5c-5.2-1.2-10.3-2.9-15.8-4.5
		c-3.2,5-7.2,9.4-9.6,15.3c1.2,0.1,1.9,0.2,2.7,0.2c3.6,0.1,7.4-0.3,10.9,0.4c9.7,2.1,19.2,1.8,28.9,0.3c4.2-0.7,8.5-1.6,12.8-1.9
		c4.8-0.4,9.7-0.3,14.4,1.4c2.4,0.9,4.8,1.1,7.7,0.4C127.9,103.7,125.2,97.7,122.2,91.3z"/>
	<path d="M93.2,55.2c0.1-0.4,0.2-1.4,0.6-2.1c1-1.8,2.8-1.9,4.3-0.5c1.3,1.4,1.7,3.8,1.3,5c-0.6,1.9-2,2.5-3.6,1.9
		C94.4,59,93.2,57.9,93.2,55.2z"/>
	<path d="M109.7,53.6c0.1-2.3,1.1-3.8,2.7-3.9c1.8-0.1,3.8,2.3,3.7,4.5c0,1.9-1.7,3.5-3.7,3.4C110.6,57.6,109.6,56.2,109.7,53.6z"/>
	<path d="M11,156.9c0.1-1-0.1-2.3,0.4-3.1c0.3-0.4,2-0.3,2.8,0.1c3.3,1.5,6.7,1.6,10.3,1.3c4.8-0.4,9.6-0.4,14.3-0.9
		c2.8-0.3,5.6-0.8,8.2-1.9c8.1-3.5,16.2-4.3,24.6-1.1c3,1.1,6.2,1.9,9.4,2.2c4.8,0.5,9.3-1.5,13.3-3.9c4.2-2.5,8.4-3.3,13.1-1.6
		c1.1,0.4,2.4,0.3,3.5,0.8c1.3,0.6,2.8,1.5,2.1,3.4c-0.7,1.8-2.1,1.6-3.6,0.8c-3.9-1.9-8-2.1-12.1-0.4c-2.2,0.9-4.3,2.1-6.5,3.1
		c-5.9,2.9-12,2.2-17.9,0.1c-3.6-1.3-7.2-2.5-10.9-2.4c-3.3,0-6.7,0.6-9.7,1.9c-6.1,2.7-12.4,3.3-18.8,3.6c-2.2,0.1-4.5-0.2-6.7,0.2
		C21.5,159.9,16.6,159.1,11,156.9z"/>
	<path d="M3.2,88.8c-1.9,0.4-3.1-3.8,1.7-5c3.5-0.9,9.7-1,14.5,0.1c4.8,1.1,14.6,0,19.3-0.8c1.6-0.3,3.2-0.6,4.8-0.5
		c0.9,0,2.1,0.6,2.7,1.4c1.3,1.5,0.4,3.2-1.5,3.4c-4.4,0.5-8.8,1-13.1,1.4c-1.3,0.1-7.7,0.1-9,0C16.2,87.8,6,88.2,3.2,88.8z"/>
	<path d="M140.1,44.8c-1.9,0.4-3.1-3.8,1.7-5c3.5-0.9,9.7-1,14.5,0.1c4.8,1.1,9.6,0,14.3-0.8c1.6-0.3,3.2-0.6,4.8-0.5
		c0.9,0,2.1,0.6,2.7,1.4c1.3,1.5,0.4,3.2-1.5,3.4c-4.4,0.5-8.8,1-13.1,1.4c-1.3,0.1-2.7,0.1-4,0C153.2,43.8,143,44.2,140.1,44.8z"/>
	<path d="M180.1,88.2c-1,2.2-2.7-0.1-5.7,0.7c-5.7,1-10.8-1.2-16-2.8c-2.1-0.7-4.4-1.2-6.6-1.2c-3.1,0-6.1,0.4-9.2,0.8
		c-1.3,0.1-2.2-0.2-2.4-1.5c-0.2-1.3,0.4-2.5,1.9-2.6c7.4-0.3,14.9-1.8,22.1,1.8c3.1,1.5,6.8,2.2,10.5,0.5
		C177.8,82.3,181.1,85.9,180.1,88.2z"/>
	<path d="M41.3,44.7c-1,2.2-2.7-0.1-5.7,0.7c-5.7,1-10.8-1.2-16-2.8c-2.1-0.7-4.4-1.2-6.6-1.2c-3.1,0-6.1,0.4-9.2,0.8
		c-1.3,0.1-2.2-0.2-2.4-1.5c-0.2-1.3,0.4-2.5,1.9-2.6c7.4-0.3,14.9-1.8,22.1,1.8c3.1,1.5,6.8,2.2,10.5,0.5
		C38.9,38.9,42.2,42.5,41.3,44.7z"/>
	<g>
		<path d="M27.2,139.8c2.1,1.1,3.6,4.1,1.6,4.8c-1.9,0.6-7.1-1.9-7.7-2.7c-0.7-0.8-1-1.5-1-2.3c0.1-1.1,0.8-2.1,2.2-1.7
			c1.1,0.3,2,0.3,2.1-1c0-0.7-0.5-1.6-1-2.3c-2.2-3.2-5-4.3-8.9-2.7c-0.3,0.6-0.1,2.1-1.2,2.5s-1.5-0.6-1.7-1
			c-1.5-2.6,0-10.2,2.1-9.9c2.1,0.3,1.6,2.3,2.5,3.6c1.1-0.1,2.3-0.2,3.1-0.2c0.7-3.7,2.4-6.2,6.3-8.4c0-0.3-0.2-1.3-0.4-2.6
			c-1.7,0.3-3.8,2-5,0.9c-1-0.9-1.2-1.9,1.1-3.9s7.5-5.5,8.8-2.1c0.7,1.9-1.3,2.4-2.1,3.4c-0.8,1.1-0.4,2.7,0.8,3.1
			c5,1.9,7.1,4.4,8.6,7.4c0.7,1.4,3.1,0.6,3.9-2.1c0.4-1.4,2.1-1.3,2.8,0c0.9,1.6,1.5,3.4,2,4.9c-1.7,3.3-2.5,0.1-4.2,0.1
			c-1.6,0-4.1-1-4.8,2.3c-0.5,2.4,5.8,5.7,7.3,4.6c2-1.4,5.2-0.4,2.5,3c-1.7,1.3-1.9,4.4-4.7,4c-2.7-0.5-0.3-3.6-2.8-4.4
			c-1.6-0.5-2.9-1.9-4-2.7c-1,1.9-2.8,3.7-7.4,3C28,137.7,27.7,138.6,27.2,139.8z M29,126.5c-2.5,0.1-0.7-3.3-2.5-3.9
			c-1.8-0.5-3.3,4.6-2.6,6.8c1.6,4.8,4.9,4.6,6.4,4.6c1.5,0,3.4-1.9,3.7-4.8c0.3-2.9-1.9-6.8-3.2-6.6
			C29.4,122.9,31.5,126.4,29,126.5z"/>
		<path class="st4" d="M29,126.5c-2.5,0.1-0.7-3.3-2.5-3.9c-1.8-0.5-3.3,4.6-2.6,6.8c1.6,4.8,4.9,4.6,6.4,4.6c1.5,0,3.4-1.9,3.7-4.8
			c0.3-2.9-1.9-6.8-3.2-6.6C29.4,122.9,31.5,126.4,29,126.5z"/>
	</g>
	<g>
		<path d="M161.2,71.7c-3.8,0.6-5.3-1-6.1-2.5c-0.9,0.6-2,1.8-3.4,2.2c-2.1,0.6,0,3.2-2.3,3.6c-2.3,0.4-2.5-2.2-3.9-3.3
			c-2.3-2.9,0.4-3.7,2.1-2.5c1.3,0.9,6.5-1.8,6.1-3.9c-0.6-2.7-2.7-1.9-4-1.9c-1.4,0-2.1,2.7-3.5-0.1c0.5-1.2,1-2.7,1.7-4
			c0.6-1.1,2-1.1,2.3,0c0.7,2.2,2.7,2.9,3.3,1.7c1.2-2.5,3-4.6,7.2-6.2c0.9-0.4,1.3-1.7,0.6-2.6c-0.7-0.9-2.4-1.3-1.8-2.9
			c1.1-2.8,5.5,0,7.3,1.8s1.7,2.5,0.9,3.3c-1,0.9-2.8-0.5-4.2-0.7c-0.2,1.1-0.3,1.9-0.4,2.1c3.3,1.8,4.7,3.9,5.2,7
			c0.7,0.1,1.7,0.1,2.6,0.2c0.7-1,0.3-2.7,2.1-3c1.7-0.3,3,6.1,1.8,8.2c-0.2,0.4-0.6,1.2-1.5,0.9s-0.7-1.6-1-2.1
			c-3.2-1.3-5.6-0.4-7.4,2.3c-0.4,0.6-0.9,1.3-0.8,1.9c0.1,1,0.9,1.1,1.8,0.8c1.1-0.3,1.8,0.5,1.8,1.4c0,0.6-0.3,1.2-0.8,1.9
			c-0.6,0.7-4.9,2.7-6.5,2.2c-1.7-0.6-0.4-3.1,1.3-4C161.6,72.5,161.3,71.8,161.2,71.7z M159,59.2c-1.1-0.2-3,3.1-2.7,5.5
			c0.3,2.4,1.8,4,3.1,4c1.2,0,4,0.1,5.3-3.9c0.6-1.9-0.7-6.1-2.2-5.7s0,3.3-2.1,3.2C158.4,62.3,160.1,59.4,159,59.2z"/>
		<path class="st4" d="M159,59.2c-1.1-0.2-3,3.1-2.7,5.5c0.3,2.4,1.8,4,3.1,4c1.2,0,4,0.1,5.3-3.9c0.6-1.9-0.7-6.1-2.2-5.7
			s0,3.3-2.1,3.2C158.4,62.3,160.1,59.4,159,59.2z"/>
	</g>
	<g>
		<path d="M162,122.6c4,0.9,6.4,2.8,8.1,5.4c2.1-1,4.5-2.3,7.3-3.6c-1.4-2.6-5-6.8-3.1-7.9c3.1-1.8,7.8,6.7,10.4,9.8
			c1.4,1.6,1.7,3.5,0,4.5c-1.8,1-2.6-2.6-3.8-3.7c-3.1,1.8-5.9,3.4-9,5.1c1.4,4.4-0.4,10.4-5.2,15.1c0.4,0.7,1,1.8,1.7,3.1
			c2.1-0.9,3.9-3.6,6.1-2.5c2.2,1.1,0.3,3.2-1.1,4.6c-2.5,2.6-5.7,3.6-8.9,4.8c-3.3,1.2-4.6-1.8-3.6-2.7s2.1-1.8,3.7-2.3
			c-0.6-1.3-1-2.4-1.5-3.6c-4.8,0.5-9.5,0.8-14.2-1.1c-1.5,1.3-3.1,2.8-4.7,4.2c0.9,1.3,2.9,2.9,1.8,4c-1.1,1.1-6.4-1.9-8.6-4.8
			c-0.9-1.2-2.1-3.8-0.4-3.9s2.8,1.5,3.9,2.5c1.6-1.6,3.1-3.3,4.3-4.5c-2.5-3.1-2.8-6.3-2.3-11.1c-0.6-0.1-1.8-0.2-3-0.4
			c-1.1,1.6-1.9,4.7-3.5,5c-1.6,0.4-2.1-3.9-0.4-6c1.9-2.4,2.9-7.7,4.9-7.7s3.3,1.8,1.9,5.5c1.2,0,2.5,0.4,3.3-0.1
			c2-3.2,8.7-6.7,11.1-7c0.5-1.1,1-2.2,1.4-3.3c0.4-1,0.8-1.9,1.4-3.3c-1.6,0.2-2.8,1.2-4.2,0.4s-0.5-2.2-0.7-3.1
			c0.5-0.5,0.6-0.8,0.8-0.8c2.2-0.7,4.3-1.5,6.5-1.8c1.2-0.2,2.7,0.1,3.9,0.6c1.7,0.7,1.9,2.5,0.9,3.5c-1,1-2.2,0-3.3,0.2
			C163.3,115.9,163,120.1,162,122.6z M147.9,135.1c-1.3,4.9,0.8,8.3,5,8.9c1.6,0.2,3.2,0.6,4.8,0.6c4.1,0,6.8-1.1,9-4.4
			c1.4-2.3,3-5.1,0.5-9.5c-1.3-2.4-3.4-3.5-6.2-3.7c-4.1-0.4-6.6,1.9-9.4,4.3c6,2.7,6.4,4.6,4.8,5.7
			C154.7,138.2,150.9,135.8,147.9,135.1z"/>
		<path class="st4" d="M147.9,135.1c-1.3,4.9,0.8,8.3,5,8.9c1.6,0.2,3.2,0.6,4.8,0.6c4.1,0,6.8-1.1,9-4.4c1.4-2.3,3-5.1,0.5-9.5
			c-1.3-2.4-3.4-3.5-6.2-3.7c-4.1-0.4-6.6,1.9-9.4,4.3c6,2.7,6.4,4.6,4.8,5.7C154.7,138.2,150.9,135.8,147.9,135.1z"/>
	</g>
</g>
</svg>
