<?xml version="1.0" encoding="utf-8"?>
<!-- Generator: Adobe Illustrator 19.1.0, SVG Export Plug-In . SVG Version: 6.00 Build 0)  -->
<svg version="1.1" id="Calque_1" xmlns="http://www.w3.org/2000/svg" xmlns:xlink="http://www.w3.org/1999/xlink" x="0px" y="0px"
	 viewBox="0 0 132.1 242.2" style="enable-background:new 0 0 132.1 242.2;" xml:space="preserve">
<style type="text/css">
	.st0{fill:#FFFFFF;}
	.st1{fill:#41AB87;}
	.st2{fill:#E2EFE8;}
	.st3{fill:#010202;}
	.st4{fill:#DB5556;}
	.st5{fill:#6FA4C3;}
	.st6{fill:none;stroke:#DB5556;stroke-width:7;stroke-miterlimit:10;}
	.st7{fill:none;}
	.st8{fill:#FFFFFF;stroke:#DB5556;stroke-width:3;stroke-miterlimit:10;}
	.st9{fill:none;stroke:#DB5556;stroke-width:3;stroke-miterlimit:10;}
	.st10{fill:#C1C0C0;}
	.st11{fill:none;stroke:#C1C0C0;stroke-width:3;stroke-miterlimit:10;}
	.st12{fill:#FFFCFA;}
	.st13{fill:#F5D1CA;}
</style>
<g>
	<g>
		<path d="M40.5,43.2c-5,0-9.9,0.1-14.8,0c-5.1-0.2-8.9-2.6-10.3-7.7c-2.2-8.3-2.3-16.7-0.5-25.1c0.2-1,0.8-2.2,1.5-2.8
			c4-2.8,7.6-6.2,12.9-6.3c7.2-0.1,14.5-0.6,21.7-0.8c2-0.1,4,0.3,6,0.3c14.8-0.1,29.5-1.4,44.3-0.4c5.1,0.3,10.1,0.9,15.1,1.8
			c5.5,0.9,9,4.4,10.7,9.7c1,3.2,1.8,6.5,2.5,9.8c0.9,4.9-0.2,9.5-2.2,13.9c-1.4,3.2-3.6,4.6-7.1,4.9c-5.5,0.4-11,1.2-16.8,1.9
			c0,2.1,0,4.1,0,6c0.1,3.8,0,7.7,0.3,11.5c0.2,1.9,0.9,3.9,1.9,5.5c1.4,2.4,3,4.7,5,6.6c1.8,1.8,4,3.3,6.3,4.3
			c3.2,1.4,5.3,3.4,6.5,6.7c1.3,3.4,3.2,6.6,4.5,10c3.2,8,3.7,16.5,4,24.9c0.2,6.9,0.1,13.8,0,20.7c-0.1,14.2-0.2,28.3-0.4,42.5
			c-0.2,11.5-0.8,23-1.1,34.5c-0.1,2.1,0.3,4.3-0.2,6.3c-0.9,4-4.2,6.3-7.3,8.6c-7.4,5.7-16.1,8.6-25.1,9.7
			c-9.8,1.2-19.6,2-29.5,1.8c-10.3-0.2-20.6-1.4-30.7-2.8c-4.6-0.7-9.1-2.8-13.5-4.6c-4.1-1.7-8-3.8-12-5.7
			c-2.8-1.3-4.6-4.5-8.1-4.8c-0.6-0.1-1.3-1.9-1.5-3c-0.6-3.9-1.2-7.9-1.4-11.9c-0.5-10.2-0.8-20.3-1.1-30.5c-0.1-4.3,0-8.6,0-13
			c0.1-15.1,1.7-30.1,3.8-45c1.3-9.3,4.1-18,8.3-26.3c2.7-5.3,6.2-9.9,10.6-13.9c4.4-4,9-8,13-12.4c4.2-4.5,6.7-9.9,5.6-16.4
			C41,49.2,40.8,46.4,40.5,43.2z M46.4,43.5c0.3,2.6,0.8,4.7,0.9,6.8c0.1,2.4,0.2,4.9-0.1,7.3c-0.4,3.2-1,6.2-2.8,9.1
			c-4.8,7.4-12,12.4-17.9,18.5c-3.1,3.2-6,6.6-8.4,10.3c-6.5,10.3-8.9,21.8-9.8,33.8c1.1-3,1.9-6.2,3-9.2c1.3-3.6,1.8-8,6.8-8.9
			c0.5-0.1,0.9-0.8,1.4-1.2c3.7-4.1,8.3-5.5,13.8-4.9c4.1,0.4,7.2,2.2,8.1,6.2c0.6,2.9,0.7,6.1,0.5,9.1c-0.2,3-1,6-1.5,9.2
			c1.6,0.8,3,1.5,4.4,2c9.5,4,18.8,8.5,27.3,14.4c4.9,3.4,8.9,7.4,8.5,14.4c2.1-1.1,3.8-1.9,5.7-2.8c-6.5-5.2-8.4-11.8-5.3-19.4
			c4.5-11.1,10.7-21.1,19.9-29.1c3.7-3.2,7.7-5.5,12.5-6.5c4-0.8,8.5,1.7,9.5,5.5c0.6,2.5,0.9,5.1,0.9,7.7
			c0.2,10-4.3,18.2-10.7,25.3c-4.5,5.1-9.5,9.7-14.2,14.5c11.2-3.4,21.5-0.2,26.3,5.2c0-6.9,0.1-14.1,0-21.3
			c-0.1-12.9-0.5-25.9-2.5-38.7c-1-6-2.8-11.6-7.7-15.8c-1-0.9-2.2-1.6-3.4-2.4c-5.9-4.2-11.5-8.7-15.4-15.1
			c-1.6-2.5-2.2-4.9-2.2-7.7c0.1-5.7,0-11.3,0-17.2C77.6,43,62.2,43.3,46.4,43.5z M120.3,31.8c1.5-6.5-0.6-12.7-2-18.9
			c-0.7-2.9-2.8-5.2-6.1-5.5C105.5,6.7,98.7,5.8,92,5.6C85.9,5.4,79.7,5.9,73.6,6C59.8,6.2,46.1,6.4,32.4,6.3
			c-4.9,0-8.6,2.1-12.2,4.7c-1.1,0.8-2.1,2.5-2.2,3.9c-0.4,6.3-0.6,12.6,1,18.8c0.6,2.3,2.1,3.5,4.2,3.5c8.6,0,17.3,0.3,25.9-0.4
			c12.6-1,25.1-2.8,37.6-4.1c9.8-1,19.6-1.7,29.4-2.4C117.4,30.3,118.7,31.2,120.3,31.8z M42.2,206.3c-5.9-1.9-11.3-3.6-16.7-5.2
			c-2.9-0.8-6.1-0.6-8.4,1.2c-3.7,2.9-6.1,12.5-1,16.5c4.5,3.6,9.6,5.9,15.3,8.3C34.4,220.1,40.3,214.8,42.2,206.3z M29.6,142.1
			c2-5.5,4.1-10.3,5.6-15.4c1.1-3.8,1.7-7.8,1.8-11.8c0.2-4.1-1.4-5.2-5.4-4.9c-5.7,0.4-9.1,4.1-11.9,8.5c-0.8,1.2-1.1,2.7-2.1,3.5
			c-4,3.2-4.3,7.9-5.5,12.4C17,139,24.1,137.7,29.6,142.1z M41.8,230.8c1.2,0.5,2.5,1,3.8,1.4c5.3,1.6,10.7,3,16.3,1.6
			c6.8-1.6,8.6-5.5,4.9-11.5c-2.9-4.7-7.4-7.7-12.1-10.4c-2-1.2-4.3-1.9-6.6-2.9C46.9,216.8,40.8,222.5,41.8,230.8z M94.3,206.9
			c-5.1,5.9-9.2,12.2-12.1,19.4c-1,2.5,0.1,4.5,1.7,6.4c3.6,0.9,7.4,0.7,10.5-1.5c4.4-3.1,8.6-6.4,12.7-9.9c2.4-2.1,2.3-2.7,0.4-5.4
			C104.4,211.5,100.3,208.5,94.3,206.9z M112.4,132.8c1.6-3,2.7-5,3.8-7c2.6-4.7,3.4-9.7,2.4-15c-0.5-2.4-1.6-3.8-3.5-3.4
			c-8.3,1.6-14.4,6.3-18.9,13.4c-1.2,1.9-0.6,3.5,1.3,4.6c2.7,1.7,5.3,3.7,8.1,5.2C107.7,131.6,110.1,132.1,112.4,132.8z
			 M44.6,156.5c7.3,4,14.8,6.1,22.5,7.8c1.5,0.3,3.2,0.4,4.6,0c1.1-0.3,2.6-1.3,2.9-2.4c0.8-2.7,1.1-5.6-1.7-7.5
			c-5.5-3.8-11-7.6-16.3-11.3C51.3,146.8,47.6,151,44.6,156.5z M14.6,198.1c-2.9-2-5.1-4.4-5.5-7.8c-0.8-5.9,0.2-11.5,4.4-15.9
			c5.1-5.4,11-9.8,18.3-12c2.9-0.8,5.9-1.2,9.9-1.9c-4.8-1.8-8.6-3.1-11.9-4.3c-3.7,3.8-6.9,7.4-10.2,10.7
			c-3.2,3.2-7.1,4.2-11.4,2.2c-0.9-0.4-1.8-0.8-3.2-1.4c0,3.2,0,5.8,0,8.4c-0.2,12.5,0.3,24.9,1.6,37.3c0.6,5.9,3.6,8.9,8.8,12.2
			C7.2,215.4,7.1,209.3,14.6,198.1z M71.8,204.1c8.5,0.2,15.5-2.4,21.7-7.4c5.4-4.3,5-7.6-1.5-10.3c-0.3-0.1-0.5-0.4-0.8-0.4
			c-5.6-0.7-11.2-1.6-17-1C71.9,191.1,71.1,197.3,71.8,204.1z M98.9,201.9c5.4,4.6,10,8.5,14.8,12.6c1.8-2.5,4.2-5.1,5.6-8.1
			c2.1-4.4,3.9-9,5.3-13.7c1-3.4-1.5-5.6-5.1-5c-1,0.2-2.1,0.5-3,1.1C110.8,193.1,105,197.4,98.9,201.9z M107.6,138.2
			c-5.5-3.6-10.6-7-16.1-10.6c-2.2,4.8-4.6,9.9-6.8,15.1c-1,2.4-0.7,4.8,0.5,7.1c1.7,3.2,4.2,4,7.2,2c2.4-1.6,4.9-3.3,7-5.3
			C102.4,143.8,105,140.8,107.6,138.2z M10.1,141.3c-0.7,2.2-1.7,4.8-2.3,7.5c-1,3.9-1.6,7.8-1,11.8c0.6,4.1,4.1,6,7.4,3.5
			c5.7-4.3,10.5-9.4,12.8-16.4C21.2,145.5,15.7,143.4,10.1,141.3z M64.2,203.7c1-6.2,2-12.1,3.1-18.3c-5.5-0.5-10.3,0.4-14.8,2.4
			c-1.9,0.9-3.6,2.3-5.2,3.8c-2.1,2.1-2.2,3.6-0.7,6.1c2.1,3.7,5.4,5.3,9.5,5.5C58.7,203.5,61.3,203.6,64.2,203.7z M99.2,162.1
			c-4.5-1-8.2-0.2-11.8,1.2c-3.4,1.4-6.9,2.7-8.6,6.4c-1.5,3.3-0.3,6.5,3.2,7.6c5.2,1.6,10.4,1.6,15.9,0.8
			C98.4,172.7,98.8,167.4,99.2,162.1z M86.9,207.5c-8.8,1.8-17,2.8-26,1.5c13.7,11.3,13.8,18.9,8.8,27.5c3.7,0.1,7.2,0.6,10.9-0.7
			c-4.2-5.5-4.4-10.9-1-16.5C81.9,215.5,84.3,211.8,86.9,207.5z M28,170.4c-5.3,2.9-10.4,6.2-13.4,11.8c-1.8,3.2-1.9,6.7-0.1,10.1
			c6.9-0.2,13.1-2.1,18.8-5.4C31.5,181.3,29.8,176.1,28,170.4z M37.5,185.2c6.1-2.5,11.1-4.9,14.8-9.1c3.6-4,2.9-7.2-2.3-8.5
			c-5.6-1.5-11.4-1.8-17.4,0.6C34.2,173.7,35.7,179.1,37.5,185.2z M105,178.1c4.4-1.3,8.4-2.3,12.3-3.7c2.7-1,4.8-2.9,5.3-5.9
			c0.4-2.1,0.2-4-1.9-5.2c-3.7-2.2-7.8-3.3-12.2-3.9C107.2,165.5,104.4,170.9,105,178.1z M50.2,140.4c-4.1-1.8-8-3.5-12.1-5.3
			c-2.1,5.6-4.2,11-6.4,16.7c2.6,1.2,5,2.4,7.4,3.6c1.7-2.9,2.9-5.6,4.6-7.9C45.5,144.9,47.8,142.9,50.2,140.4z M101.8,233.3
			c8.2-1,15.6-5.5,20.1-8.8c1.4-1,2.8-2.8,2.9-4.4c0.3-4.3,0-8.7-0.1-13.4C120.1,218,110.2,224.7,101.8,233.3z M75.6,179.4
			c-1-3.3-1.9-6.1-2.7-8.8c-4.7-0.6-9.3-1.1-14.7-1.8c2.7,4.7-0.2,8.2-2.2,12C62.7,180.2,69.1,179.8,75.6,179.4z M102.3,193.4
			c0.9-0.7,1.7-1.3,2.6-2c2.7-2.2,5.2-4.8,8.2-6.5c3.6-2.1,7.7-3.6,12.6-1c-0.2-3.3-0.4-5.8-0.6-8c-2.5,1.6-4.5,3.3-6.8,4.2
			c-4.8,2-9.8,3.3-15.2,3.2c-1.5-0.1-3.1,0.6-4.2,0.8C100,187.3,101.1,190.1,102.3,193.4z M42.7,201.1c-0.4-4-0.9-7.7-1.3-11.5
			c-4.4,2-9,4.1-13.7,6.2C33,197.6,37.8,199.4,42.7,201.1z"/>
	</g>
	<path class="st1" d="M41.8,230.8c1.2,0.5,2.5,1,3.8,1.4c5.3,1.6,10.7,3,16.3,1.6c6.8-1.6,8.6-5.5,4.9-11.5
		c-2.9-4.7-7.4-7.7-12.1-10.4c-2-1.2-4.3-1.9-6.6-2.9C46.9,216.8,40.8,222.5,41.8,230.8z"/>
	<path class="st1" d="M94.3,206.9c-5.1,5.9-9.2,12.2-12.1,19.4c-1,2.5,0.1,4.5,1.7,6.4c3.6,0.9,7.4,0.7,10.5-1.5
		c4.4-3.1,8.6-6.4,12.7-9.9c2.4-2.1,2.3-2.7,0.4-5.4C104.4,211.5,100.3,208.5,94.3,206.9z"/>
	<path class="st1" d="M44.6,156.5c7.3,4,14.8,6.1,22.5,7.8c1.5,0.3,3.2,0.4,4.6,0c1.1-0.3,2.6-1.3,2.9-2.4c0.8-2.7,1.1-5.6-1.7-7.5
		c-5.5-3.8-11-7.6-16.3-11.3C51.3,146.8,47.6,151,44.6,156.5z"/>
	<path class="st1" d="M107.6,138.2c-5.5-3.6-10.6-7-16.1-10.6c-2.2,4.8-4.6,9.9-6.8,15.1c-1,2.4-0.7,4.8,0.5,7.1
		c1.7,3.2,4.2,4,7.2,2c2.4-1.6,4.9-3.3,7-5.3C102.4,143.8,105,140.8,107.6,138.2z"/>
	<path class="st1" d="M10.1,141.3c-0.7,2.2-1.7,4.8-2.3,7.5c-1,3.9-1.6,7.8-1,11.8c0.6,4.1,4.1,6,7.4,3.5
		c5.7-4.3,10.5-9.4,12.8-16.4C21.2,145.5,15.7,143.4,10.1,141.3z"/>
	<path class="st1" d="M64.2,203.7c1-6.2,2-12.1,3.1-18.3c-5.5-0.5-10.3,0.4-14.8,2.4c-1.9,0.9-3.6,2.3-5.2,3.8
		c-2.1,2.1-2.2,3.6-0.7,6.1c2.1,3.7,5.4,5.3,9.5,5.5C58.7,203.5,61.3,203.6,64.2,203.7z"/>
	<path class="st1" d="M99.2,162.1c-4.5-1-8.2-0.2-11.8,1.2c-3.4,1.4-6.9,2.7-8.6,6.4c-1.5,3.3-0.3,6.5,3.2,7.6
		c5.2,1.6,10.4,1.6,15.9,0.8C98.4,172.7,98.8,167.4,99.2,162.1z"/>
	<path class="st1" d="M28,170.4c-5.3,2.9-10.4,6.2-13.4,11.8c-1.8,3.2-1.9,6.7-0.1,10.1c6.9-0.2,13.1-2.1,18.8-5.4
		C31.5,181.3,29.8,176.1,28,170.4z"/>
	<path class="st1" d="M120.3,31.8c1.5-6.5-0.6-12.7-2-18.9c-0.7-2.9-2.8-5.2-6.1-5.5C105.5,6.7,98.7,5.8,92,5.6
		C85.9,5.4,79.7,5.9,73.6,6C59.8,6.2,46.1,6.4,32.4,6.3c-4.9,0-8.6,2.1-12.2,4.7c-1.1,0.8-2.1,2.5-2.2,3.9c-0.4,6.3-0.6,12.6,1,18.8
		c0.6,2.3,2.1,3.5,4.2,3.5c8.6,0,17.3,0.3,25.9-0.4c12.6-1,25.1-2.8,37.6-4.1c9.8-1,19.6-1.7,29.4-2.4
		C117.4,30.3,118.7,31.2,120.3,31.8z"/>
</g>
</svg>
