<?xml version="1.0" encoding="utf-8"?>
<!-- Generator: Adobe Illustrator 19.1.0, SVG Export Plug-In . SVG Version: 6.00 Build 0)  -->
<svg version="1.1" id="Calque_1" xmlns="http://www.w3.org/2000/svg" xmlns:xlink="http://www.w3.org/1999/xlink" x="0px" y="0px"
	 viewBox="0 0 367.5 391.5" style="enable-background:new 0 0 367.5 391.5;" xml:space="preserve">
<style type="text/css">
	.st0{fill:#FFFFFF;}
	.st1{fill:#41AB87;}
	.st2{fill:#E2EFE8;}
	.st3{fill:#010202;}
	.st4{fill:#DB5556;}
	.st5{fill:#6FA4C3;}
	.st6{fill:none;stroke:#DB5556;stroke-width:7;stroke-miterlimit:10;}
	.st7{fill:none;}
	.st8{fill:#FFFFFF;stroke:#DB5556;stroke-width:3;stroke-miterlimit:10;}
	.st9{fill:none;stroke:#DB5556;stroke-width:3;stroke-miterlimit:10;}
	.st10{fill:#C1C0C0;}
	.st11{fill:none;stroke:#C1C0C0;stroke-width:3;stroke-miterlimit:10;}
	.st12{fill:#FFFCFA;}
	.st13{fill:#F5D1CA;}
</style>
<g>
	<g>
		<path d="M194.6,157.9c-5.1,16.2-8.6,32.9-17.4,48.5c4.3,7.7,8.7,15.9,13.4,24c7,12.1,14.6,23.8,22.8,35.1c2.4,3.4,5,6.7,7.4,10
			c0.3,0.4,0.7,0.9,1.2,1.2c4.2,3,8.3,6.1,12.5,9c7.5,5.2,15,10.4,22.5,15.6c3.3,2.3,6.5,4.8,10,6.9c3.5,2.2,6.5,4.8,9.1,8
			c2.4,3,3.8,6.3,3.5,10.4c-0.1,1.1,0.8,2.5,1.5,3.5c2.6,3.6,5.5,7,8.1,10.6c2.4,3.5,2.2,7.5,1.2,11.3c-0.5,1.8-2.4,3.2-4.2,5.3
			c0.2,3.3-1,10.2-6.8,9.2c-1.7-0.4-3.5-0.4-5.7-0.7c-2.7,4.3-7.4,5.1-12.4,5c-1.4,0-2.9-0.1-4-0.8c-4.1-2.6-8.5-4.8-12-8.3
			c-4.6-4.8-9.4-9.5-14.1-14.3c-1.2-1.3-2.3-2.7-3.5-4c-0.7,4.3-0.9,8.5-2,12.4c-1.9,6.8-10.4,8.7-15.4,3.7c-2.8-2.8-3.8-6.5-5.1-10
			c-2.2-6-4.3-12.1-6-18.3c-1.2-4.4-1.8-8.9-3.5-13.2c-2.7-6.8-5.8-13.2-9.8-19.4c-7.1-10.9-13.6-22.2-20.4-33.2
			c-7.9-12.8-16-25.6-23.9-38.4c-3.2-5.2-6.1-10.7-9.6-15.8c-4.8-7.1-9.9-13.9-14.9-20.8c-4-5.6-8-11.1-12-16.7
			c-6.4-8.8-12.8-17.6-19-26.6c-4.6-6.6-8.8-13.6-13.3-20.3c-5.2-7.7-10.5-15.5-15.9-23.1c-1.8-2.5-4-4.6-6-7
			c-0.7-0.8-1.2-1.7-1.9-2.7c1.8-1.5,3.2-1.4,4.5,0.1c2.9,3.4,6.2,6.5,8.7,10.1c9.3,13.6,18.4,27.3,27.6,41c2.2,3.2,4.8,6.2,7.1,9.4
			c7.5,10.4,14.9,21,22.3,31.4c4.3,6,8.9,11.8,13.1,17.9c4.9,7.2,9.5,14.5,14.1,21.8c6,9.6,11.8,19.3,17.8,28.9
			c9.7,15.5,19.8,30.8,29.1,46.5c3.7,6.2,5.9,13.3,8.5,20c1.8,4.5,5,18.6,5.8,20.8c1.3,3.5,2.6,7.1,4.1,10.5
			c0.8,1.9,1.2,3.6,3.1,5.2c1.9,1.6,7-1.7,7.1-7.4c0.1-6.1,0.1-12.2-2.1-18.1c-0.3-0.8-0.3-1.7-0.2-2.5c0.3-2.3,2.6-3.1,4.3-1.5
			c0.7,0.6,1.2,1.5,1.8,2.3c1.9,2.4,3.5,5.1,5.7,7.2c6.9,7.1,13.8,14.2,21,21c2.9,2.8,6.4,4.9,9.9,7c3.3,2,5.2,1.3,6.9-2.3
			c-2.9-2.3-5.8-4.6-8.6-7.1c-2.6-2.3-4.9-5-7.2-7.5c-1.6-1.7-3.2-3.5-4.9-5.2c-1.4-1.3-1.5-2.6-0.4-4.1c1.1-1.5,2.6-1.5,4.3,0.1
			c2.2,2.1,4.3,4.4,6.5,6.5c4.5,4.2,8.9,8.4,13.6,12.4c1.8,1.6,3.8,3.6,6.7,4c2.9,0.4,3.8-1.2,2.3-3.6s-7.9-11.5-12.8-16.3
			c-4.6-4.5-8.8-9.3-13.1-13.9c2.2-3.5,3.3-3.7,5.8-1.2c6,6.2,12,12.5,18.1,18.6c1.6,1.6,4,5.1,6.1,3.6s0.7-5.2-0.9-7.6
			c-3.5-5.2-7.4-10.1-12.2-14.3c-3.3-2.9-6.5-5.9-9.8-8.9c1.3-1.4,4.6-2.5,5.8-1.7c1.6,1.2,3,2.9,5,4.9c-0.8-3-2.4-4.7-4.1-6.1
			c-5.5-4.2-11-8.8-17-12.2c-12.2-6.8-23.6-14.9-35.1-22.8c-2.4-1.7-4.2-4.4-5.9-7c-3.8-5.7-7.4-11.5-11.1-17.3
			c-4.5-7.2-9.2-14.4-13.4-21.8c-7.5-13.2-14.7-26.6-22.2-40c-2.1-3.8-4.4-7.4-6.6-11.1c-4.8-8-9.8-16-14.4-24.1
			c-3.2-5.6-5.8-11.5-8.8-17.1c-4.1-7.6-8.6-15-12.5-22.7c-3.4-6.7-6.4-13.6-9.3-20.5c-3.2-7.6-6.1-15.3-8.9-23
			c-2.9-8.1-5.6-16.3-9.5-24.1c-0.8-1.5-1-3.5-1.2-5.2c-0.1-0.8,0.5-1.6,1.2-3.4c1.7,2.6,3.1,4.3,4,6.2c4.7,9.8,8.9,19.8,13.9,29.5
			c5.9,11.4,10.1,23.6,16.9,34.6c2.8,4.5,4.6,9.7,7.1,15.2c1.6-1,3-1.7,4.2-2.7c4.6-3.6,9.2-7.3,13.7-11c1.6-1.3,1.6-1.2,2.4-5.9
			c-1.9-2.7-4.2-5-5.1-7.8c-0.8-2.8-0.2-6-0.2-9.3c-6.9-5-7.3-12.7-3.4-21.7c-3.7-5.6-2.8-14.3,4.1-18.9c-0.8-3.3,0.8-5.9,2.9-8.2
			c2.5-2.6,5.3-5,8.1-7.5c2.7,1.2,2.7,1.6,0.7,3.9c-2.4,2.8-4.5,6-6.7,9c-1,1.5-0.9,2.9,0.9,3.8c4.9,2.6,6.2,8.2,4,13.9
			c-0.6,1.5-1.3,3.1-1.8,4.4c3.3,5.8,4.5,12.1,4.4,18.6c4.1,2.6,6.9,6,7.9,10.9c0.2,1,1.4,1.8,2.1,2.7c0.3-0.1,0.6-0.2,0.8-0.3
			c0.1-1.3,0.2-2.6,0.2-4c-0.3-11.5,2.8-22.2,8.9-31.8c2.3-3.6,5.6-6.6,8.8-9.5c2.1-1.9,5-2.7,7.8-1.4c3.2,1.4,4.5,4.1,3.9,8.3
			c1.5-1.3,2.4-2.2,3.5-2.9c1.7-1.2,3.2-2.7,5.1-3.5c4.9-2,9.8,1.3,9.7,6.7c-0.2,5.9-1.8,11.6-4.4,16.9
			c-4.6,9.5-10.5,18.1-18.1,25.5c-2.4,2.3-4.5,4.9-6.9,7.5c1.8,0.8,3.5,1.4,5.1,2.3c5,2.8,7.4,7.8,10.3,12.4c1.9,3,3.1,6.3,2.6,9.9
			c-0.6,3.7-1,7.4-2.1,11C208,156.5,200.6,160,194.6,157.9z M161.1,143.2c-2.6,5.8-5.1,11.1-7.4,16.4c-0.4,0.9-0.2,2.3,0.2,3.2
			c1.3,2.9,2.7,5.8,4.2,8.7c4.3,8,8.7,15.9,13.1,23.9c1.1,2,2.3,3.9,3.6,6.2c6.5-12.8,9.3-26.1,13.7-38.6c-3.2,0.5-6.3,1.9-8.7,1.1
			c-7.2-2.5-14-6-16.3-14.3C163.1,147.8,162.2,145.9,161.1,143.2z M207.3,137.8c0.6-3.3-1.2-5.8-2.8-8.1c-2.3-3.4-3.8-7.6-8.4-8.9
			c-7.2-2.2-13.9-1.1-20.2,2.9c-1.1,0.7-2,1.5-3,2.3c-7.3,5.5-10.9,17.7-2.9,27.3c0.1-5,1.3-9.4,6.3-11.4c4.6-1.8,9.2-1.4,13.1,2.1
			C192.9,135.4,201.5,133.9,207.3,137.8z M217.9,61.3c-1.6,0.7-2.5,1-3.3,1.5c-5.1,3.3-8.9,7.8-11.3,13.1
			c-5.4,11.9-10.1,24.1-15.1,36.2c-0.3,0.7-0.4,1.6-0.5,2.3c3.2-2.6,5.6-5.7,8.5-8.3c5.5-4.9,9.8-10.6,13.8-16.7
			c4.8-7.4,8-15.3,8.8-24.1C218.8,64.2,218.3,63,217.9,61.3z M183.4,109.8c2.2-5.7,4.1-11.5,6.5-17.1c2.3-5.4,4.6-10.8,7.5-15.9
			c2.7-4.6,2.7-9.6,3.5-14.5c0.3-1.8-0.8-2.6-2.6-2c-1.3,0.4-2.6,1.1-3.6,2c-4.3,3.9-7.6,8.5-9.9,13.9c-3.3,8-4.8,16.3-4.5,24.9
			C180.4,104.5,180.6,107.5,183.4,109.8z M176.2,113.8c-0.1-1.2-0.1-1.9-0.2-2.6c-0.2-4-0.8-4.6-4.7-4.6c-0.7,0-1.4,0-2.1,0.1
			c-4,0.3-6.9,2.1-8.5,5.8c-1.6,3.7-0.6,7.1,1.9,10.1c1.8,2.1,3.1,2.4,5.4,1c1.8-1.1,3.4-2.4,5.1-3.6
			C175.6,118.3,177.2,116.4,176.2,113.8z M173.9,154.2c0.1,0.6,0.1,2.4,0.9,3.1c1.7,1.4,3.7,2.9,5.8,3.2c3.8,0.6,9-4.2,9.1-7.6
			c0.1-5.1-3.3-9-7.8-9.1C177.5,143.8,174,147.9,173.9,154.2z M155.9,72.7c-3,0.5-4.9,1.9-5.3,4.2c-0.5,3-0.6,6.1-0.2,9.1
			c0.6,4.3,2.6,5.1,6.8,3.8c0.6-0.2,1.3-0.4,2.2-0.6C159.4,83.4,159.5,77.7,155.9,72.7z M205.7,143.7c0.1-3.7-3.2-5.9-7.2-4.2
			c-2.8,1.2-4.9,3.3-5.1,6.1c-0.2,2.6,0.8,5.3,1.4,7.9c0,0.2,0.3,0.5,0.5,0.6c2,1.4,7.8,0.1,8.6-2.2
			C204.8,149.5,205.1,146.9,205.7,143.7z M158.6,106.9c1.5-1.1,2.6-2.4,4.1-3.1c1.6-0.8,3.3-1.2,5.2-1.7c-0.6-2.8-0.6-6.3-3.4-7.2
			c-2.3-0.8-5.5-1.8-8.1,0.7C155.4,99.4,153.9,103.5,158.6,106.9z M156.5,68.5c0.6-2.8,1.4-5.5,1.7-8.2c0.2-1.5-0.4-2.9-2.2-3.6
			c-2-0.7-3,0.3-3.7,1.7c-1.7,3.2-2.9,6.5-2,10C152.4,68.5,154.2,68.5,156.5,68.5z M157.4,118.8c-6.7,5.4-12.8,10.3-19.1,15.3
			c0.5,0.8,0.9,1.5,1.3,2.2c2.4-2,4.6-3.8,6.6-5.6c1.9-1.8,4-3.5,5.6-5.6C153.5,123.1,157,123,157.4,118.8z M150.4,156.1
			c2.9-5.9,5.6-11.3,8.2-16.7c-0.2-0.1-0.3-0.1-0.5-0.2c-3.3,4.4-6.5,8.8-9.9,13.4C148.7,153.4,149.4,154.5,150.4,156.1z
			 M155.8,135.3c-0.4-0.4-0.5-0.5-0.6-0.6c-3.3,3.5-6.6,7-9.8,10.5c-0.2,0.2-0.2,0.5-0.2,0.8c0,0.1,0,0.3,0.1,0.4
			c0.1,0.1,0.1,0.2,0.5,0.8C149.2,143.1,152.5,139.2,155.8,135.3z M148.4,135.9c-3.6,1.4-4.7,2.6-5.3,5.8
			C145.2,139.4,146.8,137.6,148.4,135.9z"/>
		<path d="M183.1,156.1c-2-0.1-2.8-0.9-2.7-2.8c0.1-1.9,1.4-3.4,2.9-3.4c1.6,0,3,1.9,2.9,3.9C186.1,155.5,185.2,156.2,183.1,156.1z"
			/>
		<path d="M200,144.2c1.3,1.7,2.5,2.8,2.9,4c0.4,1.2-1.7,3-3,2.8c-1.3-0.1-3-2-2.6-3.3C197.7,146.6,198.8,145.8,200,144.2z"/>
	</g>
	<path class="st4" d="M207.3,137.8c0.6-3.3-1.2-5.8-2.8-8.1c-2.3-3.4-3.8-7.6-8.4-8.9c-7.2-2.2-13.9-1.1-20.2,2.9
		c-1.1,0.7-2,1.5-3,2.3c-7.3,5.5-10.9,17.7-2.9,27.3c0.1-5,1.3-9.4,6.3-11.4c4.6-1.8,9.2-1.4,13.1,2.1
		C192.9,135.4,201.5,133.9,207.3,137.8z"/>
	<path class="st4" d="M176.2,113.8c-0.1-1.2-0.1-1.9-0.2-2.6c-0.2-4-0.8-4.6-4.7-4.6c-0.7,0-1.4,0-2.1,0.1c-4,0.3-6.9,2.1-8.5,5.8
		c-1.6,3.7-0.6,7.1,1.9,10.1c1.8,2.1,3.1,2.4,5.4,1c1.8-1.1,3.4-2.4,5.1-3.6C175.6,118.3,177.2,116.4,176.2,113.8z"/>
	<path class="st4" d="M155.9,72.7c-3,0.5-4.9,1.9-5.3,4.2c-0.5,3-0.6,6.1-0.2,9.1c0.6,4.3,2.6,5.1,6.8,3.8c0.6-0.2,1.3-0.4,2.2-0.6
		C159.4,83.4,159.5,77.7,155.9,72.7z"/>
	<path class="st4" d="M158.6,106.9c1.5-1.1,2.6-2.4,4.1-3.1c1.6-0.8,3.3-1.2,5.2-1.7c-0.6-2.8-0.6-6.3-3.4-7.2
		c-2.3-0.8-5.5-1.8-8.1,0.7C155.4,99.4,153.9,103.5,158.6,106.9z"/>
	<path class="st4" d="M156.5,68.5c0.6-2.8,1.4-5.5,1.7-8.2c0.2-1.5-0.4-2.9-2.2-3.6c-2-0.7-3,0.3-3.7,1.7c-1.7,3.2-2.9,6.5-2,10
		C152.4,68.5,154.2,68.5,156.5,68.5z"/>
</g>
</svg>
