<?xml version="1.0" encoding="utf-8"?>
<!-- Generator: Adobe Illustrator 19.1.0, SVG Export Plug-In . SVG Version: 6.00 Build 0)  -->
<svg version="1.1" id="Calque_1" xmlns="http://www.w3.org/2000/svg" xmlns:xlink="http://www.w3.org/1999/xlink" x="0px" y="0px"
	 viewBox="0 0 183.2 147.1" style="enable-background:new 0 0 183.2 147.1;" xml:space="preserve">
<style type="text/css">
	.st0{fill:#FFFFFF;}
	.st1{fill:#41AB87;}
	.st2{fill:#E2EFE8;}
	.st3{fill:#010202;}
	.st4{fill:#DB5556;}
	.st5{fill:#6FA4C3;}
	.st6{fill:none;stroke:#DB5556;stroke-width:7;stroke-miterlimit:10;}
	.st7{fill:none;}
	.st8{fill:#FFFFFF;stroke:#DB5556;stroke-width:3;stroke-miterlimit:10;}
	.st9{fill:none;stroke:#DB5556;stroke-width:3;stroke-miterlimit:10;}
	.st10{fill:#C1C0C0;}
	.st11{fill:none;stroke:#C1C0C0;stroke-width:3;stroke-miterlimit:10;}
	.st12{fill:#FFFCFA;}
	.st13{fill:#F5D1CA;}
</style>
<g>
	<g>
		<path d="M17,144.5c-3.3,0.5-5.8-1-8.3-3c-3.6-2.7-6-6.2-7.6-10.1c-2.2-5.3-0.9-10.5,2.2-15.3c4.4-6.8,10.2-12.3,15.8-18
			c7.1-7.4,15.2-13.5,23.2-19.9c7-5.6,14.2-10.9,21.4-16.4c2.1-1.6,4-3.3,6.1-4.9c1.1-0.8,2.3-1.4,3.5-2c5.8-2.9,11.6-2.4,17.6-0.4
			c4.6,1.5,7.2,4.4,8.6,8.7c1.2,3.5-0.3,6.8-1.6,10c-3.3,8.2-9.1,14.7-15.5,20.6c-8.5,7.9-17.2,15.6-25.9,23.2
			c-6.5,5.7-13,11.5-19.9,16.8c-4.8,3.7-10.1,6.8-15.3,9.9C20.2,144.4,18.5,144.3,17,144.5z M37.4,87.9c-8.9,6.3-16.4,14-23.6,22
			c-2.7,2.9-5,6.3-7.2,9.6c-4,6.2-2.8,13.6,2.7,18.3c3.8,3.2,7.1,3.5,11.4,1.1c13.9-7.7,25.5-18.3,37.1-29.4
			C52,101.2,46.7,92.6,37.4,87.9z M61.9,105.5c0.6-0.2,0.9-0.2,1.1-0.4c10-8.7,20-17.4,28-28c2.8-3.7,4.5-7.9,5-12.5
			c0.3-2.4-1.5-5.1-3.8-5.7c-2.5-0.7-5.1-1.4-7.6-1.7c-4.4-0.5-8.6,0.4-12.2,2.9C65.6,65.1,59,70.3,52.3,75.5
			c-3.6,2.8-7,5.7-10.7,8.7C49.7,90.3,57.5,96.5,61.9,105.5z"/>
		<path d="M99.2,147.1c-4.2-0.8-8.4-1.4-12.5-2.3c-7.6-1.7-9.9-8.2-9.6-14c0.4-7.7,4.3-13.4,11.5-16.2c5.3-2.1,10.7-4.1,16.5-5.3
			c11.7-2.3,23.4-3.9,35.2-4.3c2.5-0.1,4.9-0.8,7.4-0.8c10.1-0.1,20.2,0.5,29.1,6c5,3,6.7,8.2,6.3,13.6c-0.4,5.7-4.3,9.2-9.7,11.1
			c-13.9,4.7-28.3,7-42.8,8.4c-8.5,0.8-16.9,2.1-25.4,3.1c-1.9,0.2-3.9,0-5.8,0C99.3,146.7,99.3,146.9,99.2,147.1z M128.9,110.5
			c2.6,9.3,2.2,18.6,2.7,27.9c11.3-0.9,22.3-2.6,33.1-5.4c3.2-0.8,6.3-2,9.4-3.3c3.5-1.5,6.1-4.9,5.5-7.5c-0.7-3.5-2.2-6.3-5.7-8.1
			c-7.7-4-15.9-5.5-24.4-5.3C142.9,108.8,136.2,109.8,128.9,110.5z M126.1,139.3c-1.1-9.9-2.1-19.1-3.1-28.5
			c-1.5,0.2-2.6,0.2-3.6,0.4c-4.3,0.9-8.6,2.2-12.9,2.7c-6.4,0.7-12.1,3.3-17.9,6c-5.5,2.7-7.7,7.2-7.9,12.9c-0.1,2.7,0.8,5,3.5,6
			c2.7,1.1,5.4,2,8.2,2.5c5,1,10.1,0.7,15.2,0C113.7,140.7,119.8,140.1,126.1,139.3z"/>
		<path d="M159.4,0.1c3.5-0.4,7.1,1.3,10.4,3.2c2.8,1.7,4.4,4.5,4.6,7.9c0.3,4.5-0.9,8.7-2.1,13c-2.7,9.6-7,18.6-11.3,27.4
			c-5.4,11.1-9.7,22.9-16.9,33.1c-2.9,4.1-6,8-11.1,9.5c-1.9,0.5-4.1,0.9-6,0.6c-9.5-1.3-14.3-5.5-14.9-14.7
			c-0.3-4.1,0.8-8.5,2-12.6c3.1-10.3,7.2-20.2,12.7-29.6c5.9-10,11.2-20.3,17.6-30C147.5,3.4,152.4-0.2,159.4,0.1z M128.6,44.3
			c-0.2,0.4-0.8,1.2-1.1,2c-3,7.5-6.4,15-8.9,22.7c-1.3,4.1-1.4,8.7-1.6,13.1c-0.1,2.9,1,5.8,3.9,7.3c4.4,2.3,10.7,2.3,14.9-2
			c1.1-1.1,2.1-2.2,3-3.4c7.4-9.4,11.8-20.4,17-31.3c-4.4-3.5-8.7-6.4-14.3-7C137.4,45.2,133.4,44.8,128.6,44.3z M132.4,38.5
			c9.2,0.1,16.4,3.9,23.2,8.7c0.6,0.5,1.5,0.6,2.2,0.9c3.5-6.5,10.2-23.5,11.9-30.1c0.4-1.5,0.7-3,0.8-4.5c0.5-5.3-2.7-9.2-8-9.3
			c-6.9-0.2-12.2,3.2-15.9,8.7c-3.9,5.8-7.2,12-10.6,18.2C134.7,33.3,133.7,35.7,132.4,38.5z"/>
	</g>
	<path class="st1" d="M128.6,44.3c-0.2,0.4-0.8,1.2-1.1,2c-3,7.5-6.4,15-8.9,22.7c-1.3,4.1-1.4,8.7-1.6,13.1c-0.1,2.9,1,5.8,3.9,7.3
		c4.4,2.3,10.7,2.3,14.9-2c1.1-1.1,2.1-2.2,3-3.4c7.4-9.4,11.8-20.4,17-31.3c-4.4-3.5-8.7-6.4-14.3-7
		C137.4,45.2,133.4,44.8,128.6,44.3z"/>
	<path class="st1" d="M37.4,87.9c-8.9,6.3-16.4,14-23.6,22c-2.7,2.9-5,6.3-7.2,9.6c-4,6.2-2.8,13.6,2.7,18.3
		c3.8,3.2,7.1,3.5,11.4,1.1c13.9-7.7,25.5-18.3,37.1-29.4C52,101.2,46.7,92.6,37.4,87.9z"/>
	<path class="st1" d="M126.1,139.3c-1.1-9.9-2.1-19.1-3.1-28.5c-1.5,0.2-2.6,0.2-3.6,0.4c-4.3,0.9-8.6,2.2-12.9,2.7
		c-6.4,0.7-12.1,3.3-17.9,6c-5.5,2.7-7.7,7.2-7.9,12.9c-0.1,2.7,0.8,5,3.5,6c2.7,1.1,5.4,2,8.2,2.5c5,1,10.1,0.7,15.2,0
		C113.7,140.7,119.8,140.1,126.1,139.3z"/>
</g>
</svg>
