<?xml version="1.0" encoding="utf-8"?>
<!-- Generator: Adobe Illustrator 19.1.0, SVG Export Plug-In . SVG Version: 6.00 Build 0)  -->
<svg version="1.1" id="Calque_1" xmlns="http://www.w3.org/2000/svg" xmlns:xlink="http://www.w3.org/1999/xlink" x="0px" y="0px"
	 viewBox="0 0 478.8 481.2" style="enable-background:new 0 0 478.8 481.2;" xml:space="preserve">
<style type="text/css">
	.st0{fill:#FFFFFF;}
	.st1{fill:#41AB87;}
	.st2{fill:#E2EFE8;}
	.st3{fill:#010202;}
	.st4{fill:#DB5556;}
	.st5{fill:#6FA4C3;}
	.st6{fill:none;stroke:#DB5556;stroke-width:7;stroke-miterlimit:10;}
	.st7{fill:none;}
	.st8{fill:#FFFFFF;stroke:#DB5556;stroke-width:3;stroke-miterlimit:10;}
	.st9{fill:none;stroke:#DB5556;stroke-width:3;stroke-miterlimit:10;}
	.st10{fill:#C1C0C0;}
	.st11{fill:none;stroke:#C1C0C0;stroke-width:3;stroke-miterlimit:10;}
	.st12{fill:#FFFCFA;}
	.st13{fill:#F5D1CA;}
</style>
<g>
	<path class="st1" d="M166.5,472.5c-0.4-2.3-0.9-3.9-0.9-5.6c0-3.2,0.4-6.4,0.6-9.5c0.2-3.3,0.5-6.6,0.5-9.9
		c-0.1-6.4-0.3-12.8-0.5-19.3c-0.1-2.7-0.3-5.3-0.5-8c-0.4-4.6-1-9.2-1.3-13.8c-0.3-3.5-0.3-7-0.6-10.4c-0.1-1.4-0.8-2.7-1.2-4.1
		c-0.3,0-0.5,0.1-0.8,0.1c-0.2,1.1-0.4,2.3-0.8,3.4c-1.3,4.1-2.6,8.2-3.9,12.4c-1.2,3.9-2.3,7.8-3.4,11.7c-0.8,2.8-1.5,5.7-2,8.6
		c-0.4,1.9-0.3,3.9-0.6,5.9c-0.6,4.2-1.3,8.4-1.8,12.6c-0.2,2-0.1,4,0,6c0,3.2,0.1,6.4,0.2,9.7c0,2,0,4-0.2,6
		c-0.1,1.1-2.8,2.1-3.5,2.1c-1.6,0-2.4-0.8-3-2.2c-1.5-3.6-3.3-7-4.5-10.7c-1.3-3.9-2.2-7.4-2.6-12c0-0.2-0.2-0.5-0.2-0.7
		c-0.1,0-0.2,0-0.3,0c-1.1,8.8-2.3,17.7-3.4,26.8C143,471.9,154.5,472.2,166.5,472.5z"/>
	<path class="st1" d="M177.1,472.7c0.8-4,1.6-7.7,2.2-11.5c0.5-3.4,0.9-6.8,1.2-10.3c0.5-5.5,1.1-11,1.2-16.6
		c0.1-6.6-0.4-13.1-0.6-19.7c-0.1-3.3-0.3-6.7-0.5-10c-0.2-4.2-0.4-8.4-0.7-12.6c0-0.6-0.4-1.1-0.6-1.7c-0.2,0.9,0,1.7-0.1,2.4
		c-0.2,2.4,0.2,4.8,0.2,7.2c0,3,0.5,31.6-1.9,59.7c-0.5,2.5-1.1,4.9-1.7,7.4c-0.5,1.9-1.2,3.7-1.9,5.7
		C175.1,472.7,176.2,472.7,177.1,472.7z"/>
	<g>
		<path d="M478.8,442.6c-0.1-7.4,0.1-14.8-0.1-22.1c-0.1-4.6-0.4-9.2-0.6-13.9c-0.2-4.5-0.4-8.9-0.5-13.4c-0.1-3.3,0-6.5,0-9.8
			c0-3.2-0.2-6.4,0.1-9.6c0.3-3.1-0.5-6.2-0.3-9.3c0.1-2.4,0.2-4.9,0.2-7.4c0-3.1-0.6-6.2-0.6-9.3c0.3-24.9-0.8-49.8,0.6-74.7
			c0.3-5.7-0.5-11.4-0.5-17.1c0-5.9,0.5-11.8,0.6-17.7c0.1-13.2,0.2-26.3,0.1-39.5c-0.1-7.2-1.9-71.3-1.9-86.2
			c0-3.1,0.2-6.2,0.3-9.2c0.1-3.5-0.1-7,0.1-10.5c0.2-4,0.7-7.9,0.8-11.9c0.1-7.1,0-14.2,0.1-21.3c0-1.1,0-6.6,0-8.3
			c-0.1-4.5,0.7-30.7,0.6-31.6c-0.3-3.3-0.8-6.6-1.1-9.8c-0.1-1.3,0.1-2.7-0.1-4c-0.1-0.6-0.8-1.6-1.2-1.6c-1.7-0.1-3.2-1.2-4.9-0.6
			c-0.4,0.1-9.1-0.6-11.4-0.8c-2.6-0.2-30.1-2.6-36.5-2.8c-1.2,0-2.4,0.1-3.6,0c-2-0.2-17,0.5-20.7,0.5c-16.1,0.3-32.2,0.5-48.2,0.7
			c-6.2,0.1-29-0.6-32.8-0.6c-8.3-0.2-16.6-0.1-24.9,0c-1.7,0-8.2,0-9.1,0c-4.5,0.2-8.9,0.5-13.4,0.6c-5.4,0.1-10.9,0.1-16.3,0
			c-1.8,0-10.3,0-12.9,0c-11.2,0.1-22.4,0-33.6,0c-2.2,0-4.3,0.4-6.5,0.5c-6,0.3-12,0.6-17.9,0.7c-21,0.2-42,0.4-63,0.5
			c-9.5,0-19-0.4-28.6-0.4c-8.7,0-17.4,0.4-26.2,0.5C58.5,3,52.4,3,46.4,2.9c-5.7-0.1-11.4-0.3-17-0.4c-3.1-0.1-6.1-0.1-9.2-0.1
			c-3.8,0-7.6-0.1-11.4,0c-1.2,0-2.8,0.3-3.5,1.1C4,4.9,3.1,6.7,2.1,8.3C1.9,8.6,1.8,9,1.8,9.4C1.3,12.8,0,33.9,0,34.9
			C0.1,41,0.2,47,0.2,53c0,1.1,0.2,8.4,0.3,11C0.9,73,0,81.9,1.1,90.9c0.7,5.8,0.5,11.8,0.6,17.7c0.1,4.6,0.1,9.2,0.2,13.8
			c0.1,2.8,0.3,5.7,0.6,8.5c0.5,5.5,1.2,10.9,1.6,16.4c0.4,4.4,0.6,8.8,0.7,13.2c0.1,8.7,0.1,17.4,0,26.1c0,4.1-0.1,8.2-0.3,12.3
			c-0.2,4.6-0.8,9.1-0.9,13.7c-0.2,8-0.1,15.9-0.3,23.9c-0.1,3.3-0.7,6.6-0.9,9.9c-0.3,5-0.5,10.1-0.7,15.1c-0.1,2.1,0,4.2,0,6.3
			c-0.2,6.7-0.4,13.5-0.5,20.2c-0.3,15.8-0.2,57.2,0,62.1c0.4,8.3,1,16.6,1.2,25c0.2,10,0.1,19.9,0,29.9c0,5-0.1,10-0.3,15
			c-0.2,4.5-0.5,9-0.7,13.5c-0.1,2-0.2,4.1-0.2,6.1c0.1,2.9,0.3,5.9,0.5,8.8c0.2,4.1-1.7,30.6,0.9,31.3c2.6,0.8,6,0.8,6.4,0.9
			c2.4,0.2,4.7,0.5,7.1,0.6c6.6,0.1,13.1,0,19.7,0c1,0,2,0.1,3-0.1c2.3-0.3,27.5-1,31.2-1.1c1.8,0,3.5,0.4,5.3,0.4
			c2.6,0,5.2-0.4,7.8-0.4c2.7,0,5.5,0.4,8.2,0.4c3.1,0,6.3-0.4,9.4-0.4c9.5-0.1,38.6-0.2,42.4-0.2c2,0,4-0.5,6-0.5
			c5.2-0.1,10.5,0,15.7-0.1c2.9,0,5.8-0.3,8.6-0.3c0.9,0,23.5,0,27.3-0.1c6.8-0.2,13.7,0,20.5-0.1c1.4,0,2.8,0,4.3-0.1
			c1.5-0.1,102.5-1.4,108.3-1.1c6,0.3,12,0.4,18,0.6c1.3,0,7.8-1,9.7-1c6.5,0.2,12.9,0.5,19.4,0.5c5.4,0,29.7-0.7,33-0.8
			c4.4-0.2,8.9,0.8,13.3,0.7c2,0,4-0.2,5.9-0.3c2.5-0.1,5-0.3,7.4-0.5c2.1-0.1,4.3-0.1,6.4-0.5c3-0.5,5.8-1.4,8.8-1.7
			c3.8-0.4,7.7-0.2,11.6-0.6c1.9-0.2,5.9-1.1,6-1.1c1.8-0.4,4-3.2,4.1-5.1c0.1-1.7,0.4-3.5,0.5-5.2c0.1-1.5,0.3-3,0.4-4.5
			c0.1-1.5,0.1-3.1,0.2-4.7C478.9,451.3,478.8,444.1,478.8,442.6z M7.1,345.7c-0.1-6.1-0.1-12.2,0-18.3c0.2-7.7,0.6-15.3,0.9-23
			c0.1-2.6,0.2-5.2,0.3-7.8c0.2-5.5,0.5-11,0.7-16.4c0.2-5.1,0.5-10.3,0.5-15.4c0-4.6-0.5-9.2-0.4-13.9c0-6.8,0.3-13.6,0.5-20.4
			c0.1-4.3,0.4-8.6,0.7-12.9c0.3-3.6,0.9-7.3,1-10.9c0.2-9,0.1-18,0.2-27c0-2.7,0.5-5.5,0.5-8.2c-0.2-5.4-0.6-10.7-0.9-16.1
			c0-0.6,0-16.1-0.3-23.3c-0.1-2.6-0.5-5.2-0.8-8.3c6.4-1.1,12.5-2.2,18.7-3.3c0.2,2.7,0.5,5.5,0.8,8.2c0.2,1.5,1.1,15.5,1.2,18
			c0.1,2.6-0.1,5.2,0,7.8c0.2,2.9,0.8,5.8,0.8,8.7c0.1,5.8-0.1,11.6-0.1,17.4c0,1.8,0.2,3.7,0.3,5.5c0,0.5,0.2,1,0.2,1.6
			c0,4,0,8,0.1,12c0,1.8-0.5,23.5-1,28.9c-0.1,1.5-0.2,3-0.2,4.5c-0.2,18.9-0.4,37.8-0.5,56.7c0,1.8,0.5,3.6,0.5,5.5
			c-0.1,10.3-0.4,20.5-0.5,30.8c0,2.5,0.5,4.9,0.4,7.4c-0.1,6.4-0.3,12.8-0.5,19.2c-0.2,4.4-0.4,8.7-0.7,13.1
			c-0.2,2.9-0.4,5.9-0.5,8.8c-0.1,4.1,0.1,8.2,0,12.3c-0.2,7.2-0.6,14.4-0.8,21.6c0,1.7,0.4,3.4,0.6,5.1c-1.3-0.3-2.5-0.6-3.7-0.9
			c-4.9-1.4-10-1.3-15-1.2c-1.1,0-1.6-0.3-1.5-1.5c0.1-2.5,0-5,0-7.6c0-3.6,0.1-7.1,0-10.7c-0.1-5.1-0.4-10.3-0.5-15.4
			C7.5,366,7.2,355.8,7.1,345.7z M56.6,473.6c-6.5,0-13,0-19.5,0c0.7-2.8,1.5-5.6,2.2-8.5c0.6-2.3,1.6-2.8,4-2
			c0.6,0.2,1.2,0.5,1.8,0.5c4.4,0.2,6.7,3.1,8.8,6.5c0.7,1.1,1.9,1.8,2.8,2.7C56.7,473.1,56.6,473.4,56.6,473.6z M117.2,472.3
			c-5.7,0.2-11.4,0.7-17.1,0.9c-6.8,0.2-13.6,0.2-20.5,0.3c-1.5,0-2.8-0.5-4.5-0.2c-3,0.5-6.2-0.1-9.3-0.5c-0.8-0.1-1.5-1.1-2.3-1.6
			c-1.2-0.8-2.4-1.6-3.7-2.4c-1.2-0.8-2.6-1.3-3.8-2.2c-1.9-1.5-3.6-3.2-5.4-4.7c-2.5-2-5.6-2.6-8.7-2.7c-2.4-0.1-4.4-1.9-4.5-4.4
			c-0.3-5.1,1.2-9.6,3.1-14.3c1.7-4.1,4.5-7.4,6.6-11.2c1.7-3.1,4-6,5.9-9c1.7-2.7,3.1-5.6,4.7-8.3c3-5,5.7-10.2,9.5-14.7
			c3.3-4,6-8.4,8.9-12.6c1.4-2,2.8-4,4.3-5.9c2-2.7,3.9-5.4,6.1-8c1.7-2,3.7-3.7,5.6-5.4c0.6-0.6,1.5-0.9,2-1.5
			c1.8-2.2,4.3-3.2,6.5-4.7c2.1-1.3,4-2.9,6.2-4.1c2.5-1.4,5.1-2.4,7.7-3.6c4.3-2,8.5-4,13.1-6.2c0.1,1,0.3,1.7,0.2,2.4
			c-0.4,4.1-0.7,8.3-1.2,12.4c-0.5,4.1-1.2,8.2-1.8,12.3c-0.2,1.5-0.3,3-0.6,4.4c-0.9,5-1.8,10.1-3.4,15c-1.2,3.6-1.7,7.3-2.6,11
			c-0.5,2.2-1.2,4.3-1.8,6.5c-0.3,1.2-0.4,2.4-0.5,3.7c-0.3,3.9-0.8,7.8-0.6,11.8c0.1,2.3,1.8,10.5,4.2,15.1
			c0.7,1.9,0.7,4.5,3.7,4.7c0.7,0,1.6,0.1,1.9-0.2c0.4-0.5,0.3-1.4,0.3-2.1c0.1-2.7,0.1-5.5,0.3-8.2c0.1-1.6,0.5-3.2,0.7-4.8
			c0.4-2.8,0.6-5.7,1.2-8.4c1-4.4,2.4-8.8,3.6-13.1c0-0.1,0.1-0.2,0.4-0.6c1.2,22.1-0.1,43.8-4.5,65.4
			C123.8,472.3,120.5,472.2,117.2,472.3z M71.1,259.7c0-3.5-2.1-40.1-2.1-43.5c0-1.7-0.3-3.4-0.3-5.1c0.1-4,0.3-7.9,0.4-11.8
			c0-0.3-0.3-0.6-0.3-0.9c0-1.3,0.1-2.5,1.8-2.3c4,0.4,7.8-1.2,11.7-1.7c4.1-0.5,8.2-0.9,12.3-1.2c4.7-0.3,9.4-0.4,14.1-0.7
			c2-0.2,4-0.7,6-1.1c2-0.4,2.6,0.2,2.4,2.2c-0.3,3.5-0.4,7-0.7,10.5c-0.5,4.8-1.2,9.7-1.7,14.5c-0.3,3.4-0.5,6.8-0.7,10.2
			c-0.3,5.6-0.7,11.1-1,16.7c0,0.6-0.7,12.6-0.7,13.1c0,3.6,0,7.2,0,10.8c0,2-0.3,4-0.2,6.1c0.2,3.2-0.6,6.5-1,9.8
			c-0.1,0.5,0,1.1,0,1.6c-0.4,5.7-0.5,11.5-1.3,17.2c-0.6,4.3-2.1,8.6-3.1,12.8c-0.6,2.4-1,4.9-1.6,7.4c-0.1,0.6-0.4,1.2-0.7,1.8
			c-1.2,3.4-2.4,6.8-3.5,10.3c-1.3,4.1-2.6,8.2-3.6,12.3c-0.4,1.8,0,3.8-0.2,5.8c-0.1,0.7-0.7,1.6-1.3,2.1c-2.5,2-5.3,3.6-7.6,5.8
			c-3,2.8-5.8,6-8.6,9c-0.7,0.8-1.2,1.9-2.1,3.3c-0.2-3.5-0.3-6.4-0.4-9.3c-0.1-4.3-0.1-8.6-0.3-12.9c-0.1-2.6-0.5-5.2-0.6-7.8
			c-0.2-4.3-0.3-8.7-0.5-13c-0.2-3.4-0.4-6.9-0.7-10.3c-0.5-5.6-1-11.3-1.5-16.9c-0.1-1.2-0.2-2.4-0.2-3.6c-0.2-4.5-0.3-9-0.7-13.5
			c-0.6-6.3-1.4-12.6-1.2-19C71.6,265.3,71.1,262.5,71.1,259.7z M467.6,163.4c0.3,3.3-0.1,19,0.2,23.2c0.2,2.7,0.7,55.6,0.8,57.2
			c0.1,0.9-0.5,11.8-0.6,16.4c0,1.7,0.6,3.4,0.6,5.1c-0.5,8.6-0.6,32.6-0.5,36c0.2,5.8,0.6,32.4,0.6,32.5c-0.2,4.6-0.6,9.1-0.7,13.7
			c-0.2,9.9,0.6,50,0.9,51.5c-9.9,1.7-19.4,3.3-28.8,4.9c2.5-3.4,5.1-6.7,7.3-10.2c1.8-2.7,2.3-5.2-0.4-8c-1.4-1.5-2.3-3.4-3.6-4.9
			c-1.3-1.5-2.8-2.9-4.3-4.3c-1.8-1.7-3.7-3.2-5.6-4.8c-2.6-2.2-5.2-4.3-7.8-6.6c-2.7-2.3-5.3-4.7-8-7c-2.6-2.1-5.2-4.1-8-6.1
			c-2.9-2.1-5.8-4.1-8.8-5.9c-3.6-2.2-7.5-4.1-11.2-6.2c-2.7-1.5-5.2-3.3-8-4.6c-2.9-1.4-5.9-2.5-8.9-3.7c-2.4-0.9-4.7-2-7.2-2.6
			c-4-1-8-1.7-12-2.7c-3.4-0.9-6.8-2-10.2-3c-0.4-0.1-0.9-0.1-1.2-0.1c-0.9-2-1.7-3.6-2.5-5.3c-2.2-5.2-4.7-10.2-6.5-15.5
			c-1.4-4.1-1.8-8.6-2.9-12.9c-1.8-6.8-0.7-13.8-1-20.6c0-0.1,0.1-0.3,0.6-0.5c0.6,3.3,1.1,6.6,1.7,9.9c0.6,3.2,1.7,12.7,5.7,13.2
			c4,0.5,4.6-8.3,4.3-14.8c-0.2-6.7-1.1-13.4-1.6-20.1c-0.1-0.8,0.1-1.7-0.1-2.4c-0.9-4.8-1.9-9.5-3-14.3c-0.8-3.4-1.6-6.8-2.5-10.2
			c-0.7-2.4-1.7-4.8-2.5-7.2c-1.4-4.3-2.6-8.6-4-12.8c-0.6-1.8-1.6-3.5-2.1-5.4c-1-3.5-2-7.1-2.5-10.7c-0.6-4.1-0.5-8.2-0.8-12.4
			c-0.1-1.4,0.1-2,1.9-2.2c4.2-0.3,8.4-1.1,12.5-1.7c4.2-0.6,8.4-1.2,12.6-1.9c2.5-0.4,4.9-0.9,7.4-1.3c2.4-0.4,4.8-0.8,7.2-1.1
			c3.9-0.5,7.8-1,11.6-1.5c4.1-0.5,8.1-0.9,12.2-1.4c3.6-0.5,14.7-2.1,16.7-2.4c3-0.5,6-1.2,9.1-1.7c1.9-0.3,3.8-0.5,5.6-0.7
			c3.7-0.4,7.5-0.7,11.2-1.2c4.8-0.7,9.6-1.5,14.3-2.4c4.5-0.9,10.8-2.1,15.3-2.9c2.3-0.4,4.7-0.4,7.3-0.6
			C467.6,160.1,467.5,161.8,467.6,163.4z M263.8,282.8c-8,5.5-21.8,13.1-24,13.7c-1.4,0.4-2.9,0.6-4.3,0.9c-0.2,0-0.4,0.2-0.5,0.2
			c-3.7-0.4-7.4-0.5-11.1-1.2c-3.5-0.7-7.2-1.3-10.4-2.9c-3.5-1.8-6.4-4.6-9.6-6.9c-2.5-1.8-5-3.5-7.6-5
			c-3.9-2.3-14.5-12.4-16.6-14.4c-1.6-1.5-3-3.2-4.4-4.9c-0.5-0.6-0.8-1.6-0.8-2.5c-0.1-4.8-0.1-9.7,0-14.5c0-1.5,0-6.5,0-7.6
			c-0.1-7.8-0.1-15.7,0-23.5c0-1.5,0.7-14.9,0.7-17.1c0-0.1,0.1-0.1,0.2-0.4c3.5,0,7.2,0.3,10.7-0.1c5.2-0.6,10.6-0.8,15.3-3.5
			c0.8-0.4,1.8-0.8,2.2-1.4c0.4-0.6,0.7-1.9,0.4-2.5c-1.4-2.5-3.2-4.7-6.1-5.6c-3-0.8-5.3-1.9-9-2.3s-7.6,0.8-9.4,1.1
			c-1.2,0.2-2.2,0.8-3.6,1.4c-0.1-0.8-0.2-1.4-0.1-1.9c0.2-1.5,0.6-3,0.6-4.6c0.1-1.8,0.9-2.5,2.6-2.8c1.9-0.4,3.6-1.1,5.5-1.6
			c1.6-0.4,3.3-0.9,4.9-0.7c2.1,0.2,4.2,1.1,6.3,1.6c1.3,0.3,2.5,1.7,4-0.4c1.3-1.8,0.5-2.5-0.6-3.3c-3-2-6.4-2.9-10-3.3
			c-3.3-0.3-11.2,2.2-12.1,2.3c0.4-4.8,0.8-9.6,1.1-14.4c0.1-2.1,0.1-4.3,0.2-6.4c0.2-3.1,0.2-6.2,0.7-9.2
			c1.4-11.9,8.7-20.4,16.2-24.5c4.6-2.5,9.1-5,13-8.6c3.4-2.3,5-5.9,5.6-7c2.7,4.3,12.2,7.1,15.1,7.2c2.9,0.3,5.7,0.5,8.6,0.8
			c2.1,0.3,4.2,0.9,6.3,1.1c3.1,0.3,6.3,0.4,9.4,0.5c7,0.3,9.9,7.4,10.7,9.9c1,3.2,2.3,6.2,3.5,9.3c0.8,2,1.7,3.9,2.5,5.8
			c1.4,3.3,2.7,6.7,4.1,10.1c1.9,4.5,4.1,8.8,7.5,12.4c3,3.1,5.5,6.7,8.7,9.6c2.8,2.5,4,5.9,5.9,8.9c2.7,4.3,4,8.9,4.2,13.9
			c0.1,2.4,0.6,14.1,0.5,15.6c-0.1,4-0.8,15.5-1.1,17.2c-0.1,0.6-0.1,8.9-0.7,12.4c-0.8,4.5-1.2,9-2.7,13.5
			c-1.1,3.3-6.2,9.7-6.5,9.9C290.8,257.1,271.7,277.3,263.8,282.8z M181.8,192.7c-1.2,0.1-4.4-0.1-6.1,0c-0.6-4.8-0.3-5.7,6.1-7.3
			C179.7,187.5,179.3,191,181.8,192.7z M188.9,187.6c1.2,0,1.7,0.9,1.7,1.9c0,1-2.6,1.6-3.1,0.6C186.9,189.2,187,187.6,188.9,187.6z
			 M196.7,187.1c1.5,0,3.6,0.5,3.6,1.7s-1.9,2-3.6,2.3C197.6,189.5,197.5,188.2,196.7,187.1z M310.6,182.1c-1.3,3-1.7,5.7-0.9,8.8
			c0.7,2.5,0.8,5.2,1.1,7.7c0.1,0.5-0.6,4-2.5,4s-2.1-2.5-2.3-3.8c-0.7-3.9-0.8-7.9-1.3-11.8c-0.3-2.2-0.5-4.4-1.3-6.4
			c-0.8-2.1,0.8-3,1.7-4.2c1.4-1.9,5.3-8.6,6.8-8.1C313.4,168.8,312.4,177.8,310.6,182.1z M187,345.5c-0.7-3.2-1.3-6.4-2.2-9.5
			c-1-3.6-2.4-7.1-3.5-10.7c-1-3.1-2-6.2-2.5-9.4c-0.2-1.2,0.6-2.9,1.4-4c3.3-4,4.7-8.6,5.6-13.5c0.8-4.3,1.3-8.7,1.2-13.1
			c0-2,0.2-3.9,0.3-5.7c2.3,1.4,5.1,3,7.6,4.7c3.2,2.2,6.3,4.6,9.4,7c1.6,1.2,2.9,2.8,4.7,3.8c2.7,1.4,5.6,2.6,8.6,3.6
			c2,0.7,4.1,0.8,6.2,1.1c2.8,0.5,5.6,1.2,8.4,1.2c3.9,0.1,7.6-0.8,11.4-1.5c8.1-1.9,33.4-20.2,41.6-29.2c0.2,3,3.7,21.5,7.4,29
			c3.7,7.4,12.6,18.2,15.7,18.5c1.5,0.2,1.7,1,1.8,2.3c0.1,3.1,0.6,6.3,0.4,9.4c-0.3,4.7-0.9,9.4-1.6,14.1c-0.4,2.9-0.9,5.9-1.8,8.6
			c-1,2.8-2.2,5.7-3.9,8.1c-2.3,3.3-5,6.5-7.9,9.2c-2.4,2.2-5.2,4.1-8.1,5.6c-5.2,2.7-10.4,5.3-15.8,7.3c-3.7,1.4-7.9,1.8-11.8,2.5
			c-5.4,1-10.9,1.8-16.5,1.8c-5.8,0-11.5,0.4-17.3,0.6c-2.5,0.1-5.1,0.5-7.6,0.4c-3.3-0.2-16.9-0.6-22.1-0.9
			c-0.5-2.3-0.9-4.2-1.4-6.2c-0.9-4.1-1.9-8.1-2.8-12.2c-0.5-2.6-0.8-5.2-1.4-7.8C189.5,355.7,188.2,350.6,187,345.5z M196.7,390.2
			c2.6,0.3,5.1,0.6,7.6,0.8c1.3,0.1,10.1,0.3,13.1,0.4c2.9,0.1,5.8,0.1,8.7,0c7-0.2,14-0.3,20.9-0.7c3.7-0.2,7.5-1.1,11.2-1.6
			c1.6-0.2,3.2-0.4,4.7-0.7c2.8-0.5,5.6-1,8.3-1.8c3.7-1.1,7.4-2.3,10.8-4c3.8-1.8,7.7-3.8,11-6.4c3.8-3,7.1-6.8,10.5-10.3
			c2.9-3.1,4.8-6.9,6.1-10.9c0.9-2.8,1.5-5.7,2.2-8.5c0.7-2.9,1.5-5.9,1.8-8.8c0.3-4.1,0.2-8.2,0.1-12.2c0-2-0.4-4.1-0.6-6
			c1.9,0.6,3.5,1,5.1,1.5c0.5,0.1,1.3,0.5,1.3,0.6c-0.3,2.1,0.2,7.3,0.2,7.9c0,3.7,0.2,7.3-0.1,10.9c-0.2,3.1-0.8,6.3-1.5,9.3
			c-0.9,3.4-1.7,7-3.3,10.1c-1.9,3.7-3.5,7.6-6.6,10.6c-1.8,1.8-3.5,3.8-5.4,5.4c-3.1,2.6-13.3,10.4-15.3,11.7
			c-2.5,1.5-5.1,2.7-7.7,3.9c-4,1.8-8.1,3.1-12.4,3.7c-4.7,0.6-9.3,1.6-13.9,2.3c-3,0.5-6,0.8-9,1.2c-1.7,0.2-11.9,0.7-13.5,0.6
			c-6.4-0.1-12.7-0.3-19.1-0.7c-4.2-0.3-8.3-1.1-12.5-1.7c-0.9-0.1-1.7-0.6-2.7-0.9C196.7,394.3,196.7,392.4,196.7,390.2z
			 M166.5,472.5c-12-0.3-23.4-0.6-34.9-0.9c1.2-9.1,2.3-17.9,3.4-26.8c0.1,0,0.2,0,0.3,0c0.1,0.2,0.2,0.5,0.2,0.7
			c0.4,4.6,1.3,8.1,2.6,12c1.2,3.7,3,7.1,4.5,10.7c0.6,1.4,1.3,2.2,3,2.2c0.7,0,3.4-1,3.5-2.1c0.2-2,0.2-4,0.2-6
			c0-3.2-0.1-6.4-0.2-9.7c0-2-0.2-4,0-6c0.5-4.2,1.2-8.4,1.8-12.6c0.3-1.9,0.2-3.9,0.6-5.9c0.5-2.9,1.3-5.8,2-8.6
			c1.1-3.9,2.2-7.8,3.4-11.7c1.3-4.1,2.6-8.2,3.9-12.4c0.3-1.1,0.5-2.3,0.8-3.4c0.3,0,0.5-0.1,0.8-0.1c0.4,1.3,1,2.7,1.2,4.1
			c0.3,3.5,0.3,7,0.6,10.4c0.4,4.6,0.9,9.2,1.3,13.8c0.2,2.7,0.4,5.3,0.5,8c0.2,6.4,0.4,12.8,0.5,19.3c0,3.3-0.3,6.6-0.5,9.9
			c-0.2,3.2-0.6,6.4-0.6,9.5C165.6,468.6,166.1,470.2,166.5,472.5z M180.5,451c-0.3,3.4-0.7,6.9-1.2,10.3c-0.6,3.8-1.4,7.5-2.2,11.5
			c-1,0-2,0-3.4,0c0.7-2,1.4-3.8,1.9-5.7c0.7-2.4,1.2-4.9,1.7-7.4c2.4-28.1,1.9-56.7,1.9-59.7c0-2.4-0.4-4.8-0.2-7.2
			c0.1-0.7-0.2-1.5,0.1-2.4c0.2,0.6,0.6,1.1,0.6,1.7c0.3,4.2,0.5,8.4,0.7,12.6c0.2,3.3,0.4,6.7,0.5,10c0.3,6.6,0.7,13.1,0.6,19.7
			C181.6,439.9,181,445.4,180.5,451z M373.7,469.4c-2.7-0.3-44.3-0.2-46.5-0.2c-8.6,0-73.9,1-79.8,1.2c-2.2,0.1-4.3,0-6.5,0
			c-0.9,0-41.6,1.5-43.7,1.5c-1.7,0-3.5-0.3-5.2-0.2c-2.4,0.1-4.7,0.3-7.6,0.5c4.5-11.5,7.9-23,8.9-35.1c1.1-12.1,4.3-24.1,3-36.9
			c1.9,0.4,3.4,0.7,4.9,1c0.6,0.1,1.1,0.2,1.7,0.3c11.9,1.5,23.9,0.9,35.9,1.4c4,0.1,7.9-0.4,11.8-0.7c3-0.2,5.9-0.6,8.8-1.2
			c4.3-0.9,8.6-1.8,12.9-3c3.8-1,7.6-2.1,11.1-3.7c3.3-1.5,6.3-3.7,9.2-5.8c4.5-3.2,9.1-6.4,13.3-10c4.3-3.7,7.9-8.3,10.4-13.4
			c6.2-13.4,6.7-27,6.8-31.7c0.1-2.3,0.1-4.7,0-7c0-1.3-0.2-2.5-0.4-3.9c0,0,0.3-0.2,0.4-0.1c4,1.2,7.9,2.5,11.9,3.8
			c3.4,1.1,6.7,2.4,10.1,3.3c2.8,0.8,5.8,1,8.7,1.8c2.6,0.7,5,1.9,7.5,2.8c2.7,0.9,5.4,1.7,8.1,2.7c2.3,0.8,4.6,1.5,6.7,2.7
			c0.6,0.4,0.7,2.1,0.6,3.2c0,1.9-0.4,3.8-0.4,5.7c-0.3,7.4-0.6,14.8-0.6,22.1c0,4.8,0.4,9.5,0.6,14.3c0.1,2.2,0.3,4.4,0.5,6.6
			c0.4,3.9,0.8,7.7,1.2,11.6c0.4,3.5,0.9,6.9,1.2,10.4c0.3,4,0.8,8.1,0.6,12.1c-0.1,3-1,6.1-1.7,9.1c-0.9,3.9-1.8,7.7-3,11.5
			c-1.6,5.3-2,10.7-2.3,16.1C373,464.3,373.4,466.6,373.7,469.4z M414.7,463.8c-1.1,1.4-1.9,3.2-2.9,4.7c-0.3,0.5-0.9,1-1.4,1
			c-1.6,0-3.3-0.4-4.9-0.3c-2.8,0.1-27.1-0.3-28.4-0.1c-0.2-1.2-0.7-2.5-0.6-3.7c0.3-5.1,0.5-10.2,1.3-15.2c0.6-3.7,2.2-7.2,3-10.9
			c0.8-3.6,2.5-7,2.4-10.9c-0.1-1.7,0.5-3.4,0.5-5.1c-0.1-3.8-0.2-7.5-0.5-11.2c-0.3-3.4-0.5-6.9-1.3-10.2c-0.8-3.3-1-6.5-1.2-9.8
			c-0.1-3-0.9-6-1.1-9c-0.2-4.2,0-8.5-0.1-12.7c-0.1-2.2-0.1-9,0-10.3c0.1-2.4,0-4.8,0-7.2c0.1-3.8,0.4-7.6,0.6-11.9
			c1.8,0.8,3.3,1.4,4.7,2.2c3.5,2.1,7.1,4.2,10.5,6.5c2.5,1.7,5,3.6,7.4,5.4c4.2,3.2,8.4,6.3,12.5,9.6c3.4,2.6,6.6,5.4,9.9,8.1
			c3.3,2.7,6.7,5.4,10,8.2c2.4,2,4.7,3.9,7.1,5.9c1.7,1.4,0.9,3,0.4,4.7c-1.1,3.3-3.3,5.9-5.6,8.3c-1.7,1.9-4,3.2-5.9,4.9
			c-2.7,2.5-4.6,5.4-1.8,9.4c1.2,1.8,0.5,4,0.2,6c-0.6,5-4.8,7.4-7.7,10.7c-1.8,2-3.7,4-5,6.3c-1.9,4.5,0.3,13.1,0.5,14.2
			C418.4,455.9,417.6,460.1,414.7,463.8z M430.4,468.7c-4.7,0-9.1,0-13.7,0c1.3-2.1,2.6-4,3.6-6c0.6-1.3,1.1-2.8,1-4.3
			c0-3.4-0.3-6.8-0.6-10.2c-0.5-4.9,1.9-8.3,5.3-11.3c0.3-0.2,0.6-0.4,1.1-0.8c0.5,3.8,1,7.2,1.5,10.7c0.6,4.1,1.4,8.2,1.8,12.3
			C430.6,462.2,430.4,465.3,430.4,468.7z M469.2,465.1c0,2.3-0.4,2.3-2.6,1.9c-2.2-0.5-16.8-0.4-19.6-0.2c-3,0.2-6,0.8-9,1.1
			c-0.3,0-0.8-0.5-0.9-0.8c-0.5-2.3-0.8-4.7-1.3-7c-0.6-3-1.2-6-1.7-9c-0.2-1.1-0.4-2.2-0.6-3.2c-0.8-3.3-2-6.6-2.2-9.9
			c-0.2-2.4-1.8-5,0-7.5c1.4-2,3-4.2,3.4-6.5c0.6-3.3,0.5-6.8,0.1-10.1c-0.4-2.9,0.9-5.1,3.7-5.5c2.8-0.3,5.6-1.2,8.5-1.7
			c1.9-0.3,3.9-0.3,5.8-0.7c2.6-0.5,5.2-1.3,7.9-1.7c2.6-0.4,5.2-0.5,8.2-0.8c0,1.6-0.1,2.9,0,4.1c0.1,1.9,0.5,3.8,0.5,5.7
			c0,2.3-0.4,4.6-0.5,6.9c-0.1,8.8-0.1,17.5,0,26.3c0,2.6,0.4,5.1,0.5,7.7C469.3,457.7,469.2,461.4,469.2,465.1z M470.4,37.7
			c-0.1,6.1-1.1,53.4-1.2,58.9c0,1.8,0,10,0,12.4c-0.1,5.3-0.2,10.5-0.5,15.8c-0.2,4.3-0.3,20.7-0.4,24.7c0,1.3-15.4,4.7-20.1,5.3
			c-3.5,0.5-7.1,1.2-10.6,1.8c-1.5,0.3-3.1,0.3-4.6,0.6c-3.2,0.6-6.4,1.2-9.6,1.8c-1.9,0.3-3.8,0.3-5.6,0.6
			c-3.4,0.5-13.3,2.1-14.9,2.4c-3.2,0.6-48.5,6.5-52.9,7.2c-5,0.7-10.1,1.5-15.1,2.4c-3.6,0.7-7.2,1.6-10.9,2.3
			c-0.3,0.1-0.7,0-1.1,0c-0.1-0.5-0.2-0.9-0.2-1.3c-0.2-3.9-0.3-7.9-0.6-11.8c-0.3-3.6-0.5-7.1-1.2-10.6c-0.7-3.4-1.8-6.8-3-10.1
			c-1.1-3.2-2.2-6.3-3.5-9.4c-1.4-3.2-3-6.4-4.7-9.4c-3.1-5.5-6.6-10.9-9.6-16.4c-3.5-6.4-6.6-13.1-10.2-19.5c-2.3-4-4.8-8-7.9-11.3
			c-4-4.3-8.5-8.1-13-11.9c-1.4-1.2-3.4-1.8-5.1-2.8c-3.7-2.1-7.3-4.4-11.1-6.2c-3.3-1.6-6.7-3-10.2-3.8c-3.6-0.9-7.3-1.1-11-1.2
			c-3.7-0.1-7.4,0-10.7,2.2c-1.8,1.2-3.9,0.2-5.9,0.1c-1.1-0.1-2.1-0.5-3.2-0.6c-2.2-0.1-4.4,0-6.6,0c-5.8-0.2-11.1,1.5-16.2,3.8
			c-4,1.7-7.9,3.7-11.6,5.8c-3,1.7-5.8,3.8-8.5,6c-2.6,2.1-5.1,4.4-7.4,6.8c-2,2.1-3.7,4.4-5.5,6.7c-2.2,2.7-4.5,5.5-6.6,8.3
			c-2.7,3.7-5.3,7.5-7.7,11.4c-1.6,2.6-3.1,5.3-4.5,8c-2.6,4.9-5,9.8-6.7,15.1c-1.4,4.2-3,8.4-4.3,12.7c-0.8,2.5-1.2,5.1-1.8,7.7
			c-0.9,3.6-2.1,7.2-2.9,10.8c-0.5,2-0.4,4.2-0.6,6.2c-0.4,3.4-0.8,6.8-1.2,10.3c0,0.2,0,0.4,0,0.6c-0.4,4.6-0.7,9.2-1.3,13.8
			c-0.1,0.6-1.1,1.6-1.8,1.7c-2.6,0.4-5.2,0.4-7.8,0.6c-3.6,0.3-7.2,0.8-10.8,1.2c-0.7,0.1-1.5,0-2.2,0c-3.1,0.2-6.2,0.3-9.3,0.7
			c-3.8,0.4-7.6,1.1-11.4,1.6c-1.1,0.1-2.3,0-3.4,0.1c-1.9,0.2-3.7,0.4-5.6,0.9c-1.8,0.4-3.6,3.9-3.2,5.8c0.3,1.6,0.6,3.2,0.6,4.7
			c0.1,2.7,0.4,5.4-0.1,8c-0.5,2.5,0.2,4.9,0.2,7.3c0,3.1,0.8,6.2,1,9.2c0.2,2.5-0.1,5.1,0.1,7.6c0.5,6,1.1,11.9,1.6,17.8
			c0.1,1,0,1.9,0.1,2.9c0.2,4.1,0.5,8.2,0.7,12.3c0.2,4.6,0.3,9.2,0.5,13.8c0.3,5.1,0.8,10.3,1.2,15.4c0.4,5.9,0.8,11.9,1.2,17.8
			c0.4,6.3,0.8,12.5,1.2,18.8c0.3,4.6,0.5,9.3,0.7,13.9c0.2,6.2,0.3,12.4,0.6,18.6c0.2,4.7,0.9,9.4,1.1,14.1c0.1,1-0.6,2.3-1.2,3.2
			c-1.8,2.8-3.9,5.5-5.8,8.2c-1.4,1.9-2.7,3.9-4,5.9c-1.6,2.5-3.1,5.1-4.7,7.6c-1.3,2.1-2.5,4.2-3.9,6.2c-2.3,3.4-4.7,6.8-7.1,10.2
			c-1.2,1.7-7.7,12.5-9.8,15.8c-1.5,2.4-2.6,5.2-3.5,7.8c-2.4,7.3,1,14.8,3.3,17.7c0.2,0.3,0.1,1-0.1,1.5c-0.7,2.4-1.4,4.8-2.1,7.2
			c-0.3,1.1-0.4,2.3-0.8,3.4c-0.1,0.3-0.7,0.6-1.1,0.7c-3.3,0.3-6.6,0.6-10,0.9c-0.5,0-1.1,0.1-1.6,0.1c-2.9,0-5.8,0-8.8,0
			c-2.9,0-3.6-0.7-3.6-3.6c0-6.4,0-12.9,0-19.3c0-6.4,0.1-12.9,0-19.3c-0.1-4.5-0.6-9-0.9-13.5c0-0.3,0.3-1,0.6-1
			c1.2-0.4,2.5-0.7,3.7-0.8c3.6-0.2,7.1-0.4,10.7-0.4c2.7,0,9.5,1.9,11.3,0.9c-0.2-1.8,1-11.3,1.1-13.7c0-5.2,0.1-10.4,0.1-15.6
			c0-5.3-0.1-10.7-0.1-16c0.1-5.8,0.3-11.5,0.5-17.2c0.1-2.8,0.6-38.3,0.7-47.2c0-4.8,0.3-9.6,0.5-14.4c0.2-4.1,0.3-8.2,0.7-12.3
			c0.2-2,0.5-10.6,0.5-11c0-7,0-13.9,0-20.9c-0.1-16.3-0.4-32.6-0.5-49c0-6.6,0.2-13.2,0.2-19.8c0-8-0.1-16.1-0.2-24.1
			c-0.1-4.5-0.3-9.1-0.7-13.6c-0.4-4.8-1.1-9.5-1.7-14.3c-0.4-3.3-0.7-6.6-1.3-9.8c-0.2-1.3-0.9-2.5-1.3-3.7
			c-1.2-0.3-2.2-0.9-3.2-0.9c-1.7,0.1-3.4,0.6-5.1,0.9c-3.4,0.7-6.7,1.4-10.1,2.1c-0.9,0.2-4.3,1.1-5.1,1.1C9.1,118.1,9,118,9,117.9
			c-0.3-7.4-0.6-14.9-0.7-22.3c0-5,0.5-10.1,0.6-15.2c0-2.1,0.5-20,0.6-22.2c0-3.6-0.1-7.2,0-10.8c0.1-3.7,0.6-7.3,0.6-11
			c0-5.8-0.4-11.6-0.6-17.4c-0.1-2.3-0.4-4.6-0.5-6.9c0-0.7,0.2-1.3,0.4-2.3c2.2,1,36.4,1.3,45.9,1.6c2.6,0.1,5.3,0.2,7.9,0.2
			c7.9-0.1,15.8-0.3,23.8-0.5c3.6-0.1,7.2-0.3,10.8-0.5c2.5-0.1,5.1-0.2,7.6-0.2c9.7,0.2,19.4,0.5,29.1,0.6
			c4.4,0.1,8.8,0.5,13.1-0.1c15.9-2,31.8-0.7,47.7-1.1c2.2,0,4.3,0.5,6.5,0.5c5.7-0.1,11.5,0.2,17.2-0.6c6.2-0.8,12.3-1,18.5-1.1
			c5.6-0.1,11.3-0.5,16.9-0.6c2.3,0,4.7,0.6,7,0.6c5.2-0.1,10.4-0.6,15.6-0.6c5,0.1,10,0.8,15,1.1c2.2,0.1,4.5-0.5,6.8-0.4
			c6.4,0.1,12.8,0.4,19.2,0.4c5.1,0,10.1-0.3,15.2-0.5c6.6-0.2,13.1-0.4,19.7-0.7c4.3-0.2,8.7-0.1,13-0.6c14-1.4,28.1-0.2,42.1-0.6
			c2.3-0.1,4.7-0.1,7,0c5.8,0.2,11.7,0.5,17.5,0.7c6,0.2,12,0.2,18,0.6c4.5,0.2,9,0.7,13.4,1.2c1.8,0.2,3.6,0.9,5.4,1.3
			c0.1,0.2,0.1,0.4,0.1,0.6c0.4,5.7,0.9,11.5,1.2,17.2C470.5,31.7,470.4,34.7,470.4,37.7z"/>
		<path d="M259.2,243.4c-1.3-1.4-13.3-1.4-16.3-1.4c-2.9,0-5.5,1.2-8.1,2.4c-1.9,0.9-4.2,1.2-6.2,1.1c-2.5-0.1-5-0.7-7.4-1.3
			c-2.6-0.6-4.9-0.1-7.4,0.7c-3.3,1.2-6.7,2-10.1,3c-1.5,0.4-2.1,1.6-1.6,3c0.4,1.2,1,2.6,1.9,3.3c2.2,1.8,11.3,6.2,13.4,7
			c4.5,1.8,13.2,3,18,2.5c8.3-0.9,16.1-7.5,23.1-13.9c1.1-1,1.6-1.8,1.4-3C259.8,245.8,260,244.3,259.2,243.4z M247.4,255
			c-4.1,3.6-9.1,4.5-14.3,4.5c-1.8,0-3.6,0-5.4,0c-3.5,0-18.6-5.1-21.6-8.1c4.3-1.2,8-2.7,11.7-3.2c2.6-0.3,5.3,0.6,8,1
			c1.5,0.2,3,0.2,4.4,0.6c3.1,0.8,5.4-0.7,7.8-2.3c1.2-0.7,2.6-1.1,4-1.3c1.9-0.3,3.8-0.3,5.8-0.3c2.8,0,9-1,9,0.4
			C256.9,247.7,250.5,252.3,247.4,255z"/>
		<path d="M271.8,177.2c-1.3-0.7-2.5-1.7-3.9-2c-2.5-0.6-8.1-2.1-13.2-0.9c-5.1,1.1-6.6,2.2-9.1,3.3c-3.1,1.4-4.1,2.8-3.6,5.5
			c0.2,1.4,0.9,2.8,1.6,4.1c0.4,0.7,1.2,1.4,2,1.7c1.4,0.5,8.3,0.4,10.1,0c2.2-0.4,4.5-0.7,6.5-1.6c3.8-1.6,7.4-3.6,11.1-5.6
			c1.1-0.6,1.2-2.3,0.4-3C273.1,178.2,272.5,177.6,271.8,177.2z M247.9,186.6c-1.7-0.1-2.5-1.3-2.7-2.2c-0.2-1,0-2.8,0.8-3.3
			c0.8-0.5,3.1-1.8,3.3-1.8c-1.4,2.6,0.4,6.1,2.5,7.7C251.7,187.1,247.9,186.6,247.9,186.6z M255.2,181.4c-0.4-1.3,0.5-2.1,1.7-2.1
			c1.2,0,2.5,0.2,2.6,1.2C259.6,183,255.8,183.6,255.2,181.4z M263,184.2c1-1.7,1.2-5.1,0-6.6c1.4,0.3,7.3,0.6,7.7,2.3
			C271.1,181.6,264.7,183.2,263,184.2z"/>
		<path d="M210.7,224.1c1.6,1,3.1,1.3,4.9,1.4c1.6,0.1,3.1,1.2,4.1,2.3c0.5,0.5,1.1,0.9,1.7,1.2c2.2,1.1,4.4,1.6,7,1.3
			c3-0.4,5.4-1.6,7-4.2c0.3-0.5,0.9-1.1,1.5-1.3c2.1-0.8,4.1-1.4,6-2.7c2.5-1.7,3.4-3.5,3.3-6.3c-0.1-3.4-2.5-5.5-3.6-6.4
			c-1.1-0.9-2.1-0.8-2.1,0.4s1.5,2.7,2.1,3.9c1.4,2.8,0.5,3.6-1.3,5.2c-1.7,1.5-3.7,2.2-5.8,2.5c-1.1,0.1-2,0.1-2.4,1.5
			c-0.4,1-1.1,2-2,2.6c-2.8,1.9-8.3,2.1-11.1-1.2c-0.4-0.5-1.1-1.2-1.7-1.6c-1.9-1.3-4.9,1.1-6.6-1.7c-0.9-1.4-1.9-2.8-0.8-4.4
			c0.9-1.2,0.1-2-0.6-2.6c-0.8-0.7-1.9-0.8-2.4,0.4c-0.5,1.1-0.9,2.3-0.8,3.5C207,220.3,208.4,222.6,210.7,224.1z"/>
		<path d="M241.9,164c0.9,1.7,1.4,3.5,3.5,2.6c1.4-0.6,2.8-1.3,4.2-1.9c2-0.9,4-1.8,6.1-2.4c5.5-1.5,11.5-0.6,14.7,0
			c0.7,0.1,1.6,0.2,2.2,0.6c1.8,1.1,2.7,0.7,2.9-1.5c0-0.6,0-1.2,0-1.2C263.1,153.3,252.2,155.7,241.9,164z"/>
	</g>
	<path class="st1" d="M373.7,469.4c-0.2-2.8-0.7-5.1-0.6-7.4c0.3-5.4,0.7-10.8,2.3-16.1c1.2-3.8,2.1-7.7,3-11.5c0.7-3,1.6-6,1.7-9.1
		c0.2-4-0.3-8.1-0.6-12.1c-0.3-3.5-0.8-6.9-1.2-10.4c-0.4-3.9-0.8-7.7-1.2-11.6c-0.2-2.2-0.4-4.4-0.5-6.6c-0.3-4.8-0.7-9.5-0.6-14.3
		c0-7.4,0.4-14.8,0.6-22.1c0.1-1.9,0.4-3.8,0.4-5.7c0-1.1,0-2.9-0.6-3.2c-2.1-1.2-4.4-1.9-6.7-2.7c-2.7-0.9-5.4-1.7-8.1-2.7
		c-2.5-0.9-5-2-7.5-2.8c-2.8-0.8-5.8-1-8.7-1.8c-3.4-0.9-6.8-2.2-10.1-3.3c-3.9-1.3-7.9-2.5-11.9-3.8c-0.2-0.1-0.5,0.1-0.4,0.1
		c0.1,1.4,0.3,2.7,0.4,3.9c0.1,2.3,0.1,4.7,0,7c-0.2,4.7-0.7,18.3-6.8,31.7c-2.5,5.1-6.1,9.7-10.4,13.4c-4.2,3.6-8.8,6.8-13.3,10
		c-3,2.1-6,4.3-9.2,5.8c-3.5,1.6-7.3,2.7-11.1,3.7c-4.2,1.2-8.6,2.2-12.9,3c-2.9,0.6-5.9,1-8.8,1.2c-3.9,0.3-7.8,0.9-11.8,0.7
		c-12-0.4-23.9,0.1-35.9-1.4c-0.6-0.1-1.1-0.2-1.7-0.3c-1.5-0.3-3-0.6-4.9-1c1.3,12.8-1.9,24.7-3,36.9c-1.1,12.1-4.5,23.7-8.9,35.1
		c2.8-0.2,5.2-0.5,7.6-0.5c1.7,0,3.5,0.2,5.2,0.2c2.1,0,42.9-1.5,43.7-1.5c2.2,0,4.3,0,6.5,0c5.9-0.1,71.1-1.2,79.8-1.2
		C329.4,469.2,371,469.2,373.7,469.4z"/>
	<path class="st1" d="M131.8,406.9c-0.3,0.4-0.4,0.5-0.4,0.6c-1.2,4.4-2.6,8.7-3.6,13.1c-0.6,2.8-0.8,5.6-1.2,8.4
		c-0.2,1.6-0.6,3.2-0.7,4.8c-0.2,2.7-0.2,5.5-0.3,8.2c0,0.7,0.1,1.6-0.3,2.1c-0.3,0.4-1.3,0.3-1.9,0.2c-2.9-0.2-3-2.8-3.7-4.7
		c-2.4-4.6-4.1-12.8-4.2-15.1c-0.2-3.9,0.4-7.8,0.6-11.8c0.1-1.2,0.2-2.5,0.5-3.7c0.5-2.2,1.2-4.3,1.8-6.5c0.9-3.7,1.4-7.5,2.6-11
		c1.6-4.9,2.5-9.9,3.4-15c0.3-1.5,0.3-3,0.6-4.4c0.6-4.1,1.3-8.2,1.8-12.3c0.5-4.1,0.8-8.3,1.2-12.4c0.1-0.7-0.1-1.5-0.2-2.4
		c-4.6,2.2-8.9,4.2-13.1,6.2c-2.6,1.2-5.2,2.2-7.7,3.6c-2.2,1.2-4.1,2.8-6.2,4.1c-2.3,1.4-4.8,2.5-6.5,4.7c-0.5,0.6-1.4,0.9-2,1.5
		c-1.9,1.8-3.9,3.5-5.6,5.4c-2.2,2.5-4.1,5.3-6.1,8c-1.5,2-2.9,3.9-4.3,5.9c-3,4.2-5.6,8.7-8.9,12.6c-3.8,4.6-6.5,9.7-9.5,14.7
		c-1.6,2.7-3,5.6-4.7,8.3c-1.9,3.1-4.2,5.9-5.9,9c-2.1,3.8-4.9,7.1-6.6,11.2c-1.9,4.6-3.4,9.2-3.1,14.3c0.1,2.4,2.1,4.2,4.5,4.4
		c3.1,0.1,6.2,0.7,8.7,2.7c1.9,1.5,3.5,3.2,5.4,4.7c1.1,0.9,2.5,1.5,3.8,2.2c1.2,0.8,2.5,1.5,3.7,2.4c0.8,0.5,1.5,1.5,2.3,1.6
		c3.1,0.4,6.3,1,9.3,0.5c1.7-0.3,3,0.2,4.5,0.2c6.8,0,13.6-0.1,20.5-0.3c5.7-0.2,11.4-0.7,17.1-0.9c3.3-0.1,6.6,0,10.1,0
		C131.7,450.7,133,429,131.8,406.9z"/>
	<path class="st1" d="M380.1,341c-0.2,4.3-0.4,8.1-0.6,11.9c-0.1,2.4,0.1,4.8,0,7.2c-0.1,1.3-0.1,8.2,0,10.3
		c0.1,4.2-0.1,8.5,0.1,12.7c0.1,3,0.9,6,1.1,9c0.2,3.3,0.4,6.6,1.2,9.8c0.8,3.3,1,6.8,1.3,10.2c0.3,3.7,0.5,7.5,0.5,11.2
		c0,1.7-0.5,3.4-0.5,5.1c0.2,3.9-1.5,7.3-2.4,10.9c-0.8,3.7-2.4,7.2-3,10.9c-0.8,5-1,10.1-1.3,15.2c-0.1,1.2,0.4,2.5,0.6,3.7
		c1.3-0.2,25.6,0.2,28.4,0.1c1.6-0.1,3.3,0.3,4.9,0.3c0.5,0,1.1-0.6,1.4-1c1-1.6,1.7-3.3,2.9-4.7c2.9-3.7,3.7-7.9,2.7-12.4
		c-0.3-1.1-2.4-9.7-0.5-14.2c1.3-2.3,3.2-4.3,5-6.3c2.9-3.3,7.1-5.8,7.7-10.7c0.3-2,1-4.2-0.2-6c-2.8-4-0.9-6.8,1.8-9.4
		c1.9-1.7,4.2-3.1,5.9-4.9c2.3-2.5,4.5-5,5.6-8.3c0.5-1.7,1.3-3.3-0.4-4.7c-2.4-2-4.7-4-7.1-5.9c-3.3-2.7-6.7-5.4-10-8.2
		c-3.3-2.7-6.6-5.5-9.9-8.1c-4.1-3.2-8.3-6.4-12.5-9.6c-2.4-1.8-4.9-3.7-7.4-5.4c-3.4-2.3-7-4.4-10.5-6.5
		C383.4,342.4,381.9,341.8,380.1,341z"/>
	<path class="st1" d="M313.1,319.5c0.2,2,0.6,4,0.6,6c0.1,4.1,0.2,8.2-0.1,12.2c-0.2,3-1.1,5.9-1.8,8.8c-0.7,2.9-1.3,5.8-2.2,8.5
		c-1.3,4-3.1,7.8-6.1,10.9c-3.4,3.5-6.7,7.3-10.5,10.3c-3.3,2.6-7.2,4.6-11,6.4c-3.5,1.6-7.2,2.8-10.8,4c-2.7,0.8-5.5,1.3-8.3,1.8
		c-1.6,0.3-3.2,0.4-4.7,0.7c-3.7,0.6-7.4,1.4-11.2,1.6c-7,0.4-13.9,0.5-20.9,0.7c-2.9,0.1-5.8,0.1-8.7,0c-3-0.1-11.7-0.3-13.1-0.4
		c-2.5-0.2-5-0.5-7.6-0.8c0,2.1,0,4,0,5.8c1,0.3,1.8,0.8,2.7,0.9c4.2,0.6,8.3,1.4,12.5,1.7c6.3,0.4,12.7,0.6,19.1,0.7
		c1.6,0,11.8-0.4,13.5-0.6c3-0.4,6-0.7,9-1.2c4.6-0.7,9.3-1.7,13.9-2.3c4.3-0.6,8.5-1.8,12.4-3.7c2.6-1.2,5.2-2.4,7.7-3.9
		c2-1.2,12.2-9.1,15.3-11.7c2-1.6,3.6-3.6,5.4-5.4c3.1-3,4.7-6.9,6.6-10.6c1.6-3.1,2.5-6.7,3.3-10.1c0.8-3,1.3-6.2,1.5-9.3
		c0.3-3.6,0.1-7.3,0.1-10.9c0-0.6-0.5-5.8-0.2-7.9c0-0.2-0.8-0.5-1.3-0.6C316.6,320.5,315,320,313.1,319.5z"/>
	<path class="st10" d="M9.3,10c-0.2,1-0.4,1.6-0.4,2.3c0.1,2.3,0.4,4.6,0.5,6.9c0.3,5.8,0.6,11.6,0.6,17.4c0,3.7-0.5,7.3-0.6,11
		c-0.1,3.6,0,7.2,0,10.8c0,2.2-0.5,20.1-0.6,22.2c-0.1,5.1-0.6,10.1-0.6,15.2c0,7.4,0.4,14.9,0.7,22.3c0,0.1,0.1,0.2,0.3,0.5
		c0.8,0,4.1-0.9,5.1-1.1c3.4-0.8,6.7-1.4,10.1-2.1c1.7-0.3,3.4-0.8,5.1-0.9c1-0.1,2.1,0.5,3.2,0.9c0.4,1.1,1,2.4,1.3,3.7
		c0.5,3.3,0.9,6.6,1.3,9.8c0.6,4.8,1.3,9.5,1.7,14.3c0.4,4.5,0.6,9,0.7,13.6c0.2,8,0.2,16.1,0.2,24.1c0,6.6-0.2,13.2-0.2,19.8
		c0.1,16.3,0.3,32.6,0.5,49c0.1,7,0,13.9,0,20.9c0,0.3-0.2,8.9-0.5,11c-0.5,4.1-0.6,8.2-0.7,12.3c-0.2,4.8-0.5,9.6-0.5,14.4
		c-0.1,8.8-0.6,44.4-0.7,47.2c-0.2,5.7-0.4,11.5-0.5,17.2c-0.1,5.3,0.1,10.7,0.1,16c0,5.2-0.1,10.4-0.1,15.6
		c0,2.3-1.3,11.9-1.1,13.7c-1.7,1-8.5-0.9-11.3-0.9c-3.6,0-7.1,0.2-10.7,0.4c-1.3,0.1-2.5,0.4-3.7,0.8c-0.3,0.1-0.6,0.7-0.6,1
		c0.3,4.5,0.8,9,0.9,13.5c0.2,6.4,0,12.9,0,19.3c0,6.4,0,12.9,0,19.3c0,2.9,0.7,3.6,3.6,3.6c2.9,0,5.8,0,8.8,0c0.5,0,1.1,0,1.6-0.1
		c3.3-0.3,6.6-0.6,10-0.9c0.4,0,1-0.3,1.1-0.7c0.4-1.1,0.5-2.3,0.8-3.4c0.7-2.4,1.4-4.8,2.1-7.2c0.1-0.5,0.3-1.2,0.1-1.5
		c-2.3-2.9-5.7-10.4-3.3-17.7c0.9-2.7,2-5.4,3.5-7.8c2-3.4,8.5-14.1,9.8-15.8c2.4-3.4,4.8-6.8,7.1-10.2c1.4-2,2.6-4.1,3.9-6.2
		c1.6-2.5,3.1-5.1,4.7-7.6c1.3-2,2.6-3.9,4-5.9c1.9-2.7,3.9-5.4,5.8-8.2c0.6-0.9,1.2-2.1,1.2-3.2c-0.2-4.7-0.9-9.4-1.1-14.1
		c-0.3-6.2-0.3-12.4-0.6-18.6c-0.2-4.6-0.4-9.3-0.7-13.9c-0.4-6.3-0.8-12.5-1.2-18.8c-0.4-5.9-0.8-11.9-1.2-17.8
		c-0.4-5.1-0.9-10.3-1.2-15.4c-0.3-4.6-0.3-9.2-0.5-13.8c-0.2-4.1-0.5-8.2-0.7-12.3c-0.1-1,0-2-0.1-2.9c-0.5-5.9-1.2-11.9-1.6-17.8
		c-0.2-2.5,0.1-5.1-0.1-7.6c-0.2-3.1-1.1-6.2-1-9.2c0-2.4-0.7-4.8-0.2-7.3c0.5-2.6,0.2-5.3,0.1-8c-0.1-1.6-0.3-3.2-0.6-4.7
		c-0.4-1.8,1.4-5.3,3.2-5.8c1.8-0.4,3.7-0.7,5.6-0.9c1.1-0.1,2.3,0.1,3.4-0.1c3.8-0.5,7.6-1.2,11.4-1.6c3.1-0.4,6.2-0.5,9.3-0.7
		c0.7-0.1,1.5,0.1,2.2,0c3.6-0.4,7.2-0.8,10.8-1.2c2.6-0.2,5.2-0.3,7.8-0.6c0.7-0.1,1.8-1,1.8-1.7c0.5-4.6,0.9-9.2,1.3-13.8
		c0-0.2,0-0.4,0-0.6c0.4-3.4,0.8-6.8,1.2-10.3c0.2-2.1,0.2-4.2,0.6-6.2c0.8-3.6,2-7.2,2.9-10.8c0.7-2.5,1.1-5.2,1.8-7.7
		c1.3-4.3,2.9-8.4,4.3-12.7c1.7-5.3,4.2-10.2,6.7-15.1c1.4-2.7,2.9-5.4,4.5-8c2.5-3.9,5-7.7,7.7-11.4c2.1-2.9,4.3-5.6,6.6-8.3
		c1.8-2.3,3.5-4.6,5.5-6.7c2.3-2.4,4.8-4.7,7.4-6.8c2.7-2.2,5.5-4.2,8.5-6c3.8-2.2,7.7-4.1,11.6-5.8c5.1-2.3,10.5-4,16.2-3.8
		c2.2,0.1,4.4-0.1,6.6,0c1.1,0,2.1,0.5,3.2,0.6c2,0.2,4,1.1,5.9-0.1c3.3-2.1,7.1-2.3,10.7-2.2c3.7,0.1,7.4,0.4,11,1.2
		c3.5,0.8,6.9,2.3,10.2,3.8c3.8,1.8,7.4,4.2,11.1,6.2c1.7,0.9,3.6,1.6,5.1,2.8c4.5,3.8,9,7.6,13,11.9c3.1,3.4,5.6,7.3,7.9,11.3
		c3.6,6.4,6.7,13.1,10.2,19.5c3.1,5.6,6.5,10.9,9.6,16.4c1.7,3,3.3,6.2,4.7,9.4c1.3,3.1,2.5,6.2,3.5,9.4c1.1,3.3,2.3,6.7,3,10.1
		c0.7,3.5,1,7.1,1.2,10.6c0.3,3.9,0.4,7.9,0.6,11.8c0,0.4,0.1,0.9,0.2,1.3c0.4,0,0.8,0.1,1.1,0c3.6-0.8,7.2-1.7,10.9-2.3
		c5-0.9,10.1-1.7,15.1-2.4c4.4-0.6,49.7-6.6,52.9-7.2c1.6-0.3,11.5-1.8,14.9-2.4c1.9-0.3,3.8-0.3,5.6-0.6c3.2-0.5,6.4-1.2,9.6-1.8
		c1.5-0.3,3.1-0.3,4.6-0.6c3.5-0.6,7-1.3,10.6-1.8c4.7-0.7,20-4,20.1-5.3c0.1-4,0.1-20.4,0.4-24.7c0.3-5.3,0.5-10.5,0.5-15.8
		c0-2.4,0-10.6,0-12.4c0.1-5.5,1.1-52.8,1.2-58.9c0.1-3,0.1-6,0-9c-0.3-5.7-0.8-11.5-1.2-17.2c0-0.2-0.1-0.4-0.1-0.6
		c-1.8-0.5-3.6-1.1-5.4-1.3c-4.5-0.5-9-1-13.4-1.2c-6-0.3-12-0.4-18-0.6c-5.8-0.2-11.7-0.5-17.5-0.7c-2.3-0.1-4.7-0.1-7,0
		c-14,0.4-28.1-0.8-42.1,0.6c-4.3,0.4-8.7,0.4-13,0.6c-6.6,0.2-13.1,0.5-19.7,0.7c-5.1,0.2-10.1,0.5-15.2,0.5
		c-6.4,0-12.8-0.4-19.2-0.4c-2.3,0-4.5,0.5-6.8,0.4c-5-0.2-10-1-15-1.1c-5.2-0.1-10.4,0.5-15.6,0.6c-2.3,0-4.7-0.6-7-0.6
		c-5.6,0.1-11.3,0.5-16.9,0.6c-6.2,0.1-12.3,0.2-18.5,1.1c-5.7,0.8-11.5,0.5-17.2,0.6c-2.2,0-4.3-0.5-6.5-0.5
		c-15.9,0.4-31.8-1-47.7,1.1c-4.3,0.6-8.7,0.2-13.1,0.1c-9.7-0.2-19.4-0.5-29.1-0.6c-2.5,0-5.1,0.1-7.6,0.2
		c-3.6,0.1-7.2,0.4-10.8,0.5c-7.9,0.2-15.8,0.4-23.8,0.5c-2.6,0-5.3-0.1-7.9-0.2C45.7,11.3,11.6,11,9.3,10z"/>
	<path class="st10" d="M468.7,403.3c-2.9,0.3-5.6,0.4-8.2,0.8c-2.6,0.4-5.2,1.2-7.9,1.7c-1.9,0.3-3.9,0.3-5.8,0.7
		c-2.8,0.5-5.6,1.4-8.5,1.7c-2.8,0.3-4.1,2.6-3.7,5.5c0.5,3.3,0.5,6.9-0.1,10.1c-0.4,2.3-2,4.5-3.4,6.5c-1.8,2.6-0.2,5.1,0,7.5
		c0.2,3.3,1.4,6.6,2.2,9.9c0.2,1.1,0.4,2.2,0.6,3.2c0.6,3,1.2,6,1.7,9c0.4,2.3,0.8,4.7,1.3,7c0.1,0.3,0.6,0.9,0.9,0.8
		c3-0.3,6-0.9,9-1.1c2.8-0.2,17.4-0.2,19.6,0.2c2.2,0.5,2.6,0.5,2.6-1.9c0-3.7,0.1-7.5,0-11.2c-0.1-2.6-0.5-5.1-0.5-7.7
		c-0.1-8.8-0.1-17.5,0-26.3c0-2.3,0.4-4.6,0.5-6.9c0-1.9-0.3-3.8-0.5-5.7C468.6,406.2,468.7,405,468.7,403.3z"/>
	<path class="st4" d="M342.2,323.3c0.3,0,0.8,0,1.2,0.1c3.4,1,6.8,2.1,10.2,3c4,1,8.1,1.7,12,2.7c2.5,0.6,4.8,1.7,7.2,2.6
		c3,1.2,6,2.3,8.9,3.7c2.7,1.4,5.3,3.1,8,4.6c3.7,2.1,7.5,4,11.2,6.2c3,1.8,5.9,3.9,8.8,5.9c2.7,1.9,5.4,4,8,6.1
		c2.7,2.2,5.3,4.7,8,7c2.6,2.2,5.2,4.4,7.8,6.6c1.9,1.6,3.8,3.2,5.6,4.8c1.5,1.4,3,2.8,4.3,4.3c1.3,1.5,2.3,3.4,3.6,4.9
		c2.7,2.8,2.2,5.3,0.4,8c-2.3,3.5-4.8,6.7-7.3,10.2c9.5-1.6,18.9-3.2,28.8-4.9c-0.3-1.5-1.1-41.7-0.9-51.5c0.1-4.6,0.4-9.1,0.7-13.7
		c0-0.1-0.4-26.7-0.6-32.5c-0.1-3.4,0.1-27.4,0.5-36c0.1-1.7-0.6-3.4-0.6-5.1c0-4.6,0.7-15.6,0.6-16.4c-0.1-1.7-0.6-54.5-0.8-57.2
		c-0.3-4.3,0.1-20-0.2-23.2c-0.1-1.6,0-3.3,0-4.9c-2.6,0.2-5,0.1-7.3,0.6c-4.5,0.8-10.8,2.1-15.3,2.9c-4.7,0.9-9.5,1.7-14.3,2.4
		c-3.7,0.5-7.5,0.8-11.2,1.2c-1.9,0.2-3.8,0.4-5.6,0.7c-3,0.5-6,1.2-9.1,1.7c-2,0.3-13.1,1.9-16.7,2.4c-4,0.6-8.1,0.9-12.2,1.4
		c-3.9,0.5-7.8,1-11.6,1.5c-2.4,0.3-4.8,0.7-7.2,1.1c-2.5,0.4-4.9,0.9-7.4,1.3c-4.2,0.7-8.4,1.3-12.6,1.9c-4.2,0.6-8.3,1.3-12.5,1.7
		c-1.7,0.1-2,0.8-1.9,2.2c0.3,4.1,0.2,8.3,0.8,12.4c0.5,3.6,1.5,7.2,2.5,10.7c0.5,1.8,1.5,3.5,2.1,5.4c1.4,4.3,2.6,8.6,4,12.8
		c0.8,2.4,1.8,4.7,2.5,7.2c1,3.4,1.8,6.8,2.5,10.2c1,4.7,2,9.5,3,14.3c0.2,0.8,0,1.6,0.1,2.4c0.5,6.7,1.4,13.4,1.6,20.1
		c0.2,6.5-0.4,15.4-4.3,14.8c-4-0.5-5.1-10-5.7-13.2c-0.6-3.3-1.2-6.6-1.7-9.9c-0.5,0.2-0.6,0.3-0.6,0.5c0.3,6.9-0.8,13.8,1,20.6
		c1.1,4.2,1.5,8.7,2.9,12.9c1.8,5.3,4.3,10.4,6.5,15.5C340.5,319.7,341.3,321.3,342.2,323.3z"/>
	<path class="st4" d="M77.7,374.5c0.9-1.4,1.4-2.5,2.1-3.3c2.8-3.1,5.5-6.2,8.6-9c2.3-2.2,5.1-3.8,7.6-5.8c0.6-0.5,1.2-1.3,1.3-2.1
		c0.2-1.9-0.3-3.9,0.2-5.8c1-4.2,2.3-8.2,3.6-12.3c1.1-3.4,2.3-6.9,3.5-10.3c0.2-0.6,0.5-1.2,0.7-1.8c0.6-2.5,1-4.9,1.6-7.4
		c1-4.3,2.5-8.5,3.1-12.8c0.8-5.7,0.9-11.4,1.3-17.2c0-0.5,0-1.1,0-1.6c0.4-3.3,1.2-6.6,1-9.8c-0.2-2.1,0.2-4.1,0.2-6.1
		c-0.1-3.6,0-7.2,0-10.8c0-0.5,0.7-12.6,0.7-13.1c0.3-5.6,0.6-11.1,1-16.7c0.2-3.4,0.4-6.8,0.7-10.2c0.5-4.8,1.2-9.7,1.7-14.5
		c0.3-3.5,0.4-7,0.7-10.5c0.2-2-0.5-2.6-2.4-2.2c-2,0.4-4,1-6,1.1c-4.7,0.4-9.4,0.4-14.1,0.7c-4.1,0.3-8.2,0.7-12.3,1.2
		c-3.9,0.5-7.6,2.1-11.7,1.7c-1.7-0.2-1.9,1.1-1.8,2.3c0,0.3,0.3,0.6,0.3,0.9c-0.1,3.9-0.3,7.9-0.4,11.8c0,1.7,0.3,3.4,0.3,5.1
		c0,3.4,2.1,40.1,2.1,43.5c0,2.8,0.5,5.6,0.4,8.4c-0.2,6.4,0.6,12.7,1.2,19c0.4,4.5,0.5,9,0.7,13.5c0.1,1.2,0.1,2.4,0.2,3.6
		c0.5,5.6,1,11.3,1.5,16.9c0.3,3.4,0.5,6.9,0.7,10.3c0.2,4.3,0.3,8.7,0.5,13c0.1,2.6,0.5,5.2,0.6,7.8c0.2,4.3,0.1,8.6,0.3,12.9
		C77.4,368.1,77.5,371.1,77.7,374.5z"/>
	<path class="st4" d="M28.5,413.4c-0.2-1.8-0.7-3.5-0.6-5.1c0.2-7.2,0.6-14.4,0.8-21.6c0.1-4.1,0-8.2,0-12.3
		c0.1-2.9,0.3-5.9,0.5-8.8c0.2-4.4,0.5-8.7,0.7-13.1c0.2-6.4,0.4-12.8,0.5-19.2c0-2.5-0.5-4.9-0.4-7.4c0.1-10.3,0.3-20.5,0.5-30.8
		c0-1.8-0.5-3.6-0.5-5.5c0.1-18.9,0.3-37.8,0.5-56.7c0-1.5,0.1-3,0.2-4.5c0.5-5.4,1-27,1-28.9c-0.1-4,0-8-0.1-12
		c0-0.5-0.1-1-0.2-1.6c-0.1-1.8-0.3-3.7-0.3-5.5c0-5.8,0.2-11.6,0.1-17.4c0-2.9-0.6-5.8-0.8-8.7c-0.1-2.6,0-5.2,0-7.8
		c-0.1-2.5-1-16.5-1.2-18c-0.3-2.7-0.5-5.5-0.7-8.2c-6.1,1.1-12.3,2.2-18.7,3.3c0.3,3,0.6,5.6,0.8,8.3c0.3,7.2,0.3,22.7,0.3,23.3
		c0.3,5.4,0.7,10.7,0.9,16.1c0.1,2.7-0.4,5.5-0.5,8.2c-0.1,9,0,18-0.2,27c-0.1,3.6-0.7,7.3-1,10.9c-0.3,4.3-0.5,8.6-0.7,12.9
		C9.2,237.2,9,244,8.9,250.8c0,4.6,0.4,9.2,0.4,13.9c0,5.1-0.3,10.3-0.5,15.4c-0.2,5.5-0.5,11-0.7,16.4c-0.1,2.6-0.2,5.2-0.3,7.8
		c-0.3,7.7-0.7,15.3-0.9,23c-0.1,6.1-0.1,12.2,0,18.3c0.2,10.2,0.4,20.3,0.7,30.5c0.1,5.1,0.4,10.3,0.5,15.4c0.1,3.6,0,7.1,0,10.7
		c0,2.5,0,5,0,7.6c0,1.1,0.4,1.5,1.5,1.5c5-0.1,10.1-0.2,15,1.2C26,412.9,27.2,413.1,28.5,413.4z"/>
</g>
</svg>
