<?xml version="1.0" encoding="utf-8"?>
<!-- Generator: Adobe Illustrator 19.1.0, SVG Export Plug-In . SVG Version: 6.00 Build 0)  -->
<svg version="1.1" id="Calque_1" xmlns="http://www.w3.org/2000/svg" xmlns:xlink="http://www.w3.org/1999/xlink" x="0px" y="0px"
	 viewBox="0 0 97.1 155.3" style="enable-background:new 0 0 97.1 155.3;" xml:space="preserve">
<style type="text/css">
	.st0{fill:#FFFFFF;}
	.st1{fill:#41AB87;}
	.st2{fill:#E2EFE8;}
	.st3{fill:#010202;}
	.st4{fill:#DB5556;}
	.st5{fill:#6FA4C3;}
	.st6{fill:none;stroke:#DB5556;stroke-width:7;stroke-miterlimit:10;}
	.st7{fill:none;}
	.st8{fill:#FFFFFF;stroke:#DB5556;stroke-width:3;stroke-miterlimit:10;}
	.st9{fill:none;stroke:#DB5556;stroke-width:3;stroke-miterlimit:10;}
	.st10{fill:#C1C0C0;}
	.st11{fill:none;stroke:#C1C0C0;stroke-width:3;stroke-miterlimit:10;}
	.st12{fill:#FFFCFA;}
	.st13{fill:#F5D1CA;}
</style>
<g>
	<path d="M77.4,107.6c3-0.8,18.2-4.8,19.6,2.6S81.1,133,71.7,138.4c-9.3,5.3-41.2,19.5-47.8,16.6s-0.7-11.6,4.6-22.8
		c-0.8-2.1-2.3-8.1-3.2-10.6c-4-10.2-8-20.5-11.9-30.8C10.4,83,7.5,75.2,4.9,67.2C3,61.5,2.1,55.6,2.2,49.5
		c0.1-4.2,1.4-8.1,3.3-11.7c1.9-3.6,1.8-6.6,0-10.4c-2.3-4.7-3.9-9.8-5.2-14.9c-0.6-2.2,0-4.9,0.7-7.3c0.7-2.3,1.7-4.7,4.8-5.1
		c3.5-0.4,6.7-0.4,8.9,3.1c3.1,5.1,6.5,10,9.5,15.2c1.6,2.8,4.1,4.3,6.8,5.1c7,1.8,11.8,6,15.3,12.2c5.6,9.8,11,19.7,15.1,30.2
		c3.1,7.9,6.4,15.7,9.5,23.6C73.1,95.3,75,101.1,77.4,107.6z M90.3,111.7c-0.6-0.3-0.9-0.5-1.2-0.5c-2.8,0.4-5.5,0.9-8.3,1.3
		c-6.5,1-7.3,0.3-9.6-5.8c-5-13.6-10-27.2-15.6-40.7c-4.5-10.8-9.4-21.5-16-31.3c-2.2-3.3-5.1-5.8-8.9-6.7
		c-6.8-1.5-10.9-5.6-13.8-11.7c-1.8-4-4.2-7.7-6.6-11.4C8.9,2.5,6.6,2.8,5.7,5.6c-0.7,2.3-1.4,5-0.7,7.2c1.3,4.5,3,8.9,5.2,13
		c2.4,4.6,2.6,8.7,0.1,13.3c-3.2,5.9-3.8,12.3-2.5,18.8c2,9.6,5,19,8.8,28.1c5.8,13.9,11.2,28,16.9,41.9c0.8,1.9,0.8,3.3,0,4.9
		c-0.8,1.4-1.8,2.6-2.6,4c-1.7,3.2-3.4,6.5-4.9,9.8c-0.4,0.9-0.1,2.1-0.2,3.7c2.2-0.4,3.8-0.6,5.3-1c9.7-3,19.1-6.5,28-11.5
		c9.7-5.5,19.3-11.2,27.5-18.8C88.6,117.1,90.5,115,90.3,111.7z"/>
	<path class="st1" d="M90.3,111.7c-0.6-0.3-0.9-0.5-1.2-0.5c-2.8,0.4-5.5,0.9-8.3,1.3c-6.5,1-7.3,0.3-9.6-5.8
		c-5-13.6-10-27.2-15.6-40.7c-4.5-10.8-9.4-21.5-16-31.3c-2.2-3.3-5.1-5.8-8.9-6.7c-6.8-1.5-10.9-5.6-13.8-11.7
		c-1.8-4-4.2-7.7-6.6-11.4C8.9,2.5,6.6,2.8,5.7,5.6c-0.7,2.3-1.4,5-0.7,7.2c1.3,4.5,3,8.9,5.2,13c2.4,4.6,2.6,8.7,0.1,13.3
		c-3.2,5.9-3.8,12.3-2.5,18.8c2,9.6,5,19,8.8,28.1c5.8,13.9,11.2,28,16.9,41.9c0.8,1.9,0.8,3.3,0,4.9c-0.8,1.4-1.8,2.6-2.6,4
		c-1.7,3.2-3.4,6.5-4.9,9.8c-0.4,0.9-0.1,2.1-0.2,3.7c2.2-0.4,3.8-0.6,5.3-1c9.7-3,19.1-6.5,28-11.5c9.7-5.5,19.3-11.2,27.5-18.8
		C88.6,117.1,90.5,115,90.3,111.7z"/>
</g>
</svg>
