<?xml version="1.0" encoding="utf-8"?>
<!-- Generator: Adobe Illustrator 19.1.0, SVG Export Plug-In . SVG Version: 6.00 Build 0)  -->
<svg version="1.1" id="Calque_1" xmlns="http://www.w3.org/2000/svg" xmlns:xlink="http://www.w3.org/1999/xlink" x="0px" y="0px"
	 viewBox="0 0 245.5 139.2" style="enable-background:new 0 0 245.5 139.2;" xml:space="preserve">
<style type="text/css">
	.st0{fill:#FFFFFF;}
	.st1{fill:#41AB87;}
	.st2{fill:#E2EFE8;}
	.st3{fill:#010202;}
	.st4{fill:#DB5556;}
	.st5{fill:#6FA4C3;}
	.st6{fill:none;stroke:#DB5556;stroke-width:7;stroke-miterlimit:10;}
	.st7{fill:none;}
	.st8{fill:#FFFFFF;stroke:#DB5556;stroke-width:3;stroke-miterlimit:10;}
	.st9{fill:none;stroke:#DB5556;stroke-width:3;stroke-miterlimit:10;}
	.st10{fill:#C1C0C0;}
	.st11{fill:none;stroke:#C1C0C0;stroke-width:3;stroke-miterlimit:10;}
	.st12{fill:#FFFCFA;}
	.st13{fill:#F5D1CA;}
</style>
<g>
	<path d="M222.2,126.9c-1,0.8-1.9,1.6-2.9,2.3c-3.7,2.4-6.3,2.4-9.4-0.7c-1.7-1.6-3.3-2.1-5.5-2c-4.5,0.2-9-0.1-13.4-2.5
		c-3,3.3-7.3,5.4-11.8,6.4c-4.8,1.1-9.4,0.3-12.9-4.2c-3.9,3.9-8.4,6-13.5,6.5c-9.3,0.9-17.1-3.8-14.5-16.4
		c-6,2.7-40.2,15.9-52.8,15.8C67,129.4,53.8,119.5,46,102.5c-0.3-0.6-0.7-1.2-1.1-1.8c-4.9,1.8-9.6,3.3-14.7,3.3
		c-9-0.1-15.1-6-12.4-15.3c0.2-0.7,0.3-1.3,0.5-2.3c-1.9-0.9-3.8-1.6-5.5-2.8c-5-3.4-6.9-8.9-7.7-14.3c-0.6-4.3,2.3-7.9,5.7-10.6
		c0.9-0.7,2.1-1.2,2.8-1.5c0.9-3.4,1.1-6.7,2.6-9.2c1.5-2.4,4.4-3.8,6.9-5.9c0,0,0.2-0.3,0.2-0.6c-1.1-8.6,0.7-11.7,8.8-14.7
		c3.4-1.2,6.9-2.3,10.8-0.6c2.4-7.3,9-8,14.8-9.4c2.8-0.7,5.7,1.2,7.6,3.7c0.9,1.2,1.5,2.6,2.5,4.2c0.3-0.7,0.7-1.1,0.7-1.5
		c-0.2-8.1,7.5-12.6,14.4-11c2.4,0.6,4.6,0.8,7.1,0.3c3.2-0.7,7.4,2.6,8.6,6.4c0.9,2.7,1.1,5.7,1.7,8.5c7.7-3.8,15.3-7.7,23-11.2
		c11.2-5.2,22.5-10.3,33.9-15.1c4.4-1.8,9.3-0.9,13.8,0.2c6.9,1.7,12.7,5.4,17.6,10.6c1.3,1.4,2.7,2.7,4.1,4
		c7.9,8,13.2,17.4,16,28.2c1.3,5.1,0.4,10-0.5,15c-0.3,1.8-0.6,3.7-0.9,5.9c5.3,0.4,9,3,12.8,5.9c1.7,1.3,3.9,2.1,6,2.8
		c4,1.3,7.3,3,8.1,7.8c0.2,1.3,1.7,2.6,2.8,3.5c6.8,5,9,12.6,5.9,20.6c-0.2,0.5-0.7,1.1-0.6,1.4c2.2,4.7-0.4,10,2,14.8
		c2.1,4.2,1.5,8.5-0.9,12.5c-3.7,6.4-12.1,6.6-16.3,0.4C225.4,132.2,223.9,129.7,222.2,126.9z M63.8,63.1c0.1,0.3,0.3,1.2,0.5,2
		c2.1,6.8,5.8,12.6,11.4,17c3.3,2.6,6.7,5,10.3,7.1c3.1,1.8,6.5,3.3,9.9,4.4c1.3,0.4,3.2,0,4.4-0.7c9.7-5.2,19.3-10.4,28.8-15.8
		c9.5-5.5,18.8-11.3,28.3-16.8c11.3-6.6,22.6-13,33.9-19.5c0.6-0.3,1.2-0.8,1.7-1.2c4.1-3,5.1-6,2.5-10.3c-2.3-3.6-5.3-6.8-8.3-9.9
		c-2.9-3-6.2-5.6-9.3-8.4c-2-1.9-12.6-7.5-19.4-4c-4.9,2.5-10.4,4-15.5,6.2c-2.9,1.2-5.6,2.8-8.5,4c-6.6,3-13.4,5.7-19.9,9
		c-6.5,3.3-12.9,6.9-19,10.8c-9.8,6.3-19.3,13-28.9,19.7C64.8,58.1,63.6,60,63.8,63.1z M201.7,44.7c-12.2,6.9-23.5,13.8-35.2,19.9
		c-14.2,7.3-28.7,14.2-42.3,22.7c-5.7,3.6-11.7,6.9-17.6,10.3c-2.6,1.5-4.1,3.7-4,6.8c0.1,7.1-0.5,14-4.6,20.9
		c2.5-0.9,4.2-1.4,5.8-2.1c17.4-7.6,34.9-14.9,52-22.9c12.8-6,24.7-13.5,35.1-23.4c2.3-2.2,6.7-7.4,7.1-7.9
		C203.3,62.3,200.2,52.4,201.7,44.7z M147.7,118.1c-0.9,0.4-1.6,1-2.3,1.1c-2.6,0.5-2.6,2.5-2.5,4.4c0.1,1.9,1.6,2.6,3.3,2.8
		c4.4,0.5,8.7,0.4,12.7-1.6c3.2-1.5,3.9-4.7,5.1-7.6c0.2-0.4,0.7-0.7,1.1-1.1c2.6,0.3,3,2.4,3.8,4.4c1.3,3.4,2.8,4.3,6.4,4.2
		c4.4-0.1,8.1-1.6,11.1-4.9c1.2-1.4,2.6-2.6,3.9-3.8c5.6,4.7,5.6,4.7,15.7,4.1c2.3-2,4.1-3.9,6.3-5.2c2.6-1.6,6-1.6,7.7,0.8
		c3,4.2,7.6,7.2,8.7,12.7c0.5,2.5,2.3,4.6,5.3,5.3c1.1-0.8,2.3-1.5,3.4-2.4c2.1-1.7,2.1-3.4,0-5.1c-0.8-0.7-1.9-1-2.7-1.6
		c-2.3-1.8-2.5-3.8-0.8-6.3c2.7-3.8,2.7-4.5,0.1-8.1c-2.4-3.4-2.2-4.9,1.1-7.7c0.5-0.4,1.1-0.9,1.5-1.4c2.2-3,1.1-5.1-2-7.4
		c-2.4-1.7-3.7,1.3-5.7,0.1c-2.1-1.9-1.5-4.2-0.8-6.6c0.6-1.9-0.1-3.7-1.9-4.4c-1.2-0.4-3.1-0.2-4.3,0.5c-2.9,1.8-5.4,4.1-8.2,6.1
		c-0.7,0.5-2.4,0.8-2.7,0.4c-0.8-0.9-1.6-2.3-1.5-3.5c0-1,1-2.2,2-2.9c2.6-1.9,1.9-4.2,1.2-6.6c-0.8-2.6-3-2.5-5.1-2.7
		c-1.4-0.1-2.7-0.1-3.1-0.2c-17.9,15.8-36.7,28.7-57.8,38.4C146.9,114.6,147.3,116.2,147.7,118.1z M20,55.3c2.9,1.2,5.5,2,7.9,3.3
		c0.7,0.4,0.9,2.2,0.7,3.1c-0.1,0.5-1.7,0.9-2.6,1c-2.6,0.1-5.1-0.2-7.7,0c-3.9,0.3-6.7,3-7.3,7c-0.5,3.3,0.7,6.2,3.6,8
		c2.2,1.4,4.4,2.8,7.3,2.5c1.1-0.1,2.5,0.2,3.4,0.9c2.8,2,2.7,4.6,0,7.2c-1.9,1.8-3.4,4-2.6,6.4c0.9,2.7,3.6,3.7,6.4,3.4
		c3.4-0.4,6.9-0.7,10.2-1.6c5-1.4,7.3-4.6,7.6-10.2c0.9-14.2,7.5-26.1,18.2-35.1c8.4-7,17.7-12.9,26.9-19.4
		c-0.2-3.1-1-11.2-10.4-11.9c-2.5-0.2-5.1-0.9-7,1.8c-1.8,2.6-1.8,5.2,0.2,7.7c0.3,0.4,0.6,0.9,0.7,1.4c1.3,3,1,5-1.5,7
		c-1.5,1.2-3.3,2.1-5,2.6c-4.4,1.1-8.8-1.6-9.6-6.2c-0.5-2.5-0.1-5.2-0.1-7.9c-6.3,0.4-6.7,0.8-7.7,7.2c-0.2,1-0.8,2.5-1.6,2.8
		c-0.8,0.3-2.2-0.5-3-1.3c-4.2-4-8.9-4.2-14-1.9c-4.9,2.2-6.1,4.4-4.1,9.4c0.9,2.2,0.9,4-0.3,5.8C22.6,48.8,21.1,50.1,20,55.3z
		 M58.5,68.2c-0.6,1.2-1.4,2.1-1.7,3.2c-1.5,5.7-2.8,11.5-4.5,17.2c-2.7,9.2-2.7,15.5,7.4,24.1s14.3,11,23,13.3
		c6.3,1.7,6.8,1.1,9-5.1c0.9-2.6,2.1-5.2,2.6-7.9c0.7-3.3,0.9-6.8,1.3-9.8C78.3,96.4,66.9,84.1,58.5,68.2z M70.5,33.6
		c0-3.2-9.5-3-6.9,0.7C66.2,38.1,70.5,36.8,70.5,33.6z M213,120.6c1.5-2-1.9,3.1,1,4.6c2.9,1.6,4.6-1.9,3.4-4.7
		C216.4,118.2,211.6,122.6,213,120.6z"/>
	<path d="M7.3,38.1c3.9-0.3,7,2.7,7.1,7c0.2,4.3-2.4,6.9-7,7.3c-4.3,0.3-7.1-2.5-7.4-7.5C-0.3,41.3,2.8,38.4,7.3,38.1z M5,46.6
		c2.5,0.3,4.3,0,5-2.8C6.4,44,6.4,44,5,46.6z"/>
	<path d="M32.5,17.4c0.3,4.1-1.3,5.8-3.7,6.9c-3,1.3-6.1,1.7-8.8-0.6c-2.1-1.8-2.8-4.3-2.3-7.1c0.1-0.6,0.5-1.6,0.9-1.8
		c2.6-1,5.3-2.2,8-2.4c1.6-0.1,3.5,1.3,4.8,2.4C32.3,15.7,32.5,17.3,32.5,17.4z M26.2,18.5C26,18.3,25.9,18,25.8,18
		c-0.8,0-1.7,0-2.5,0.1c-0.2,0-0.3,0.5-0.5,0.8c0.8,0.2,1.6,0.4,2.4,0.4C25.5,19.4,25.9,18.8,26.2,18.5z"/>
	<path d="M198,109.1c-7.4,0.1-11.7-5.6-9.7-11.7c0.6-1.9,1.6-3.5,4-3.5c1,0,2.2,0,3.1-0.4c3-1.5,5.3-0.8,7.5,1.4
		c2.4,2.4,3.7,5.3,3.1,8.5c-0.3,1.6-2,3.2-3.5,4.2C201,108.6,199,108.8,198,109.1z M201.7,101.8c0.3-4.9-3.4-5.6-6.1-4.1
		c-1.7,1-3.5,2.4-2.3,5.2C196.6,104.2,201.4,106.6,201.7,101.8z"/>
	<path d="M209.4,100c0.5-3,3.8-4.8,7-5.4c3.9-0.7,7,1.1,8.3,5.2c1.4,4.4,0.1,7.7-3.4,9.2c-4.1,1.7-7.7,0.4-9.6-3.5
		C210.9,103.8,209,103,209.4,100z M220.9,102c0.5-2.2-2.9-2.5-4.3-1.6c-0.7,0.5-1,1.6-1.5,2.4c0.9,0.4,1.8,1.1,2.6,1
		C218.7,103.6,220.4,104.2,220.9,102z"/>
	<path d="M36.1,82.6c-4.3-0.1-8.8-6.1-7.8-10.5c0.1-0.5,0.4-1.2,0.7-1.3c3.1-0.7,6.3-2.1,9.3-1.7c1.7,0.2,3.7,3.1,4.4,5.2
		C44.4,79.4,41.5,82.8,36.1,82.6z M32.9,75.2c3.7,2.5,3.8,2.5,5.4-1.2C36.4,74.4,34.9,74.8,32.9,75.2z"/>
	<path d="M41.3,42.5c3.6,0,6.7,3.4,6.7,7.3c0,3.6-2.7,5.9-6.5,5.9c-3.7,0-6.9-3.7-6.8-7.8C34.7,45,37.8,42.5,41.3,42.5z M39.8,48.9
		c0.1,0.3,0.1,0.5,0.2,0.8c0.7-0.1,1.4-0.2,2.1-0.3c-0.1-0.4-0.2-0.8-0.3-1.2C41.1,48.4,40.5,48.6,39.8,48.9z"/>
	<path class="st1" d="M63.8,63.1c0.1,0.3,0.3,1.2,0.5,2c2.1,6.8,5.8,12.6,11.4,17c3.3,2.6,6.7,5,10.3,7.1c3.1,1.8,6.5,3.3,9.9,4.4
		c1.3,0.4,3.2,0,4.4-0.7c9.7-5.2,19.3-10.4,28.8-15.8c9.5-5.5,18.8-11.3,28.3-16.8c11.3-6.6,22.6-13,33.9-19.5
		c0.6-0.3,1.2-0.8,1.7-1.2c4.1-3,5.1-6,2.5-10.3c-2.3-3.6-5.3-6.8-8.3-9.9c-2.9-3-6.2-5.6-9.3-8.4c-2-1.9-12.6-7.5-19.4-4
		c-4.9,2.5-10.4,4-15.5,6.2c-2.9,1.2-5.6,2.8-8.5,4c-6.6,3-13.4,5.7-19.9,9c-6.5,3.3-12.9,6.9-19,10.8c-9.8,6.3-19.3,13-28.9,19.7
		C64.8,58.1,63.6,60,63.8,63.1z"/>
	<path class="st1" d="M201.7,44.7c-12.2,6.9-23.5,13.8-35.2,19.9c-14.2,7.3-28.7,14.2-42.3,22.7c-5.7,3.6-11.7,6.9-17.6,10.3
		c-2.6,1.5-4.1,3.7-4,6.8c0.1,7.1-0.5,14-4.6,20.9c2.5-0.9,4.2-1.4,5.8-2.1c17.4-7.6,34.9-14.9,52-22.9c12.8-6,24.7-13.5,35.1-23.4
		c2.3-2.2,6.7-7.4,7.1-7.9C203.3,62.3,200.2,52.4,201.7,44.7z"/>
	<path class="st1" d="M58.5,68.2c-0.6,1.2-1.4,2.1-1.7,3.2c-1.5,5.7-2.8,11.5-4.5,17.2c-2.7,9.2-2.7,15.5,7.4,24.1s14.3,11,23,13.3
		c6.3,1.7,6.8,1.1,9-5.1c0.9-2.6,2.1-5.2,2.6-7.9c0.7-3.3,0.9-6.8,1.3-9.8C78.3,96.4,66.9,84.1,58.5,68.2z"/>
</g>
</svg>
