<?xml version="1.0" encoding="utf-8"?>
<!-- Generator: Adobe Illustrator 19.1.0, SVG Export Plug-In . SVG Version: 6.00 Build 0)  -->
<svg version="1.1" id="Calque_1" xmlns="http://www.w3.org/2000/svg" xmlns:xlink="http://www.w3.org/1999/xlink" x="0px" y="0px"
	 viewBox="0 0 367.5 391.5" style="enable-background:new 0 0 367.5 391.5;" xml:space="preserve">
<style type="text/css">
	.st0{fill:#FFFFFF;}
	.st1{fill:#41AB87;}
	.st2{fill:#E2EFE8;}
	.st3{fill:#010202;}
	.st4{fill:#DB5556;}
	.st5{fill:#6FA4C3;}
	.st6{fill:none;stroke:#DB5556;stroke-width:7;stroke-miterlimit:10;}
	.st7{fill:none;}
	.st8{fill:#FFFFFF;stroke:#DB5556;stroke-width:3;stroke-miterlimit:10;}
	.st9{fill:none;stroke:#DB5556;stroke-width:3;stroke-miterlimit:10;}
	.st10{fill:#C1C0C0;}
	.st11{fill:none;stroke:#C1C0C0;stroke-width:3;stroke-miterlimit:10;}
	.st12{fill:#FFFCFA;}
	.st13{fill:#F5D1CA;}
</style>
<g>
	<path d="M305.5,45.2c1.3,0.4,2.4,0.6,3.3,1.1c3.4,2.2,6.1,4.7,2.7,10.2c-1.9,3-3.7,6.1-5.5,9.1c-1.1,1.9-1.1,3.5,0.7,5.2
		c2.7,2.5,4.2,5.8,4.7,9.4c0.2,2,0,4.3-0.7,6.1c-1.7,4-2.5,8-2.3,12.2c0.1,1.3,0.4,2.7,0.8,4c1.3,4.3,1.4,8.6-0.6,12.7
		c-2.5,5.1-2.7,10.7-3.1,16.2c-0.1,1.5,0,2.9,0,4.4c2.3,0.4,4.8,0.6,7,1.2c4,1.1,6,3.7,6.4,8c0.7,9.3,0.7,18.5-0.5,27.7
		c-0.5,3.8-0.3,7.7-0.4,11.5c-0.1,3.5-0.1,6.9,0,10.4c0.1,2.3,0.2,4.7,0.8,7c2,8.6,1.9,17.2,0.4,25.8c-0.6,3.4-1.5,6.7-2.3,10.1
		c-1.1,4.3-1.4,8.5-0.4,12.8c2.1,9,1.4,18.2,0.5,27.3c-0.6,5.9-1.6,11.7,0.2,17.6c0.5,1.7,0.4,3.7,0.3,5.5c-0.2,4.4-0.6,8.9-1,13.3
		c-0.1,1.3-0.2,3.1-1,3.8c-1.8,1.6-2,3.5-2.5,5.5c-0.4,1.9-1.6,2.9-3.4,3.4c-1.8,0.4-3.5,1-5.6,1.6c-0.1,5.3,0,10.6-0.2,15.9
		c-0.1,4.4-0.5,8.8-0.8,13.3c-0.2,3.8-1.2,7.5-2.6,11c-1.2,3-4.9,5.7-8.1,4.7c-2.4-0.8-5.1-1.9-6.7-3.7c-1.4-1.6-2.2-4.2-2.3-6.5
		c-0.2-6.3,0-12.6,0.1-18.9c0.1-3.5-1.1-4.6-4.6-4c-1.2,0.2-2.5,0.4-3.7,0.2c-6.2-0.8-12.5-0.9-18.7,0c-3,0.4-6.1,0-9.2,0
		c-7.5,0-15,0.1-22.5,0.2c-13.4,0.2-26.9,0.3-40.3,0.5c-6.5,0.1-13.1,0.2-19.6,0.3c-5.2,0.1-10.3,0-15.5,0.1
		c-8.6,0.1-17.3,0.5-25.9,0.5c-7,0-13.9-0.3-20.9-0.5c-4.1-0.1-8.3-0.2-12.5-0.3c-0.5,5.3-2,10.6-1.2,16.2c0.4,2.4-0.5,5.1-1.5,7.5
		c-2.3,6.1-9.4,8.5-14.8,4.5c-2.7-2-3.5-5.3-3.6-8.6c-0.1-3.3-0.1-6.7,0-10c0.1-6.7,0.1-13.3,0.3-20c0-1.3,0.2-2.7,0.3-4
		c-3.3-2.5-4.9-5.9-4.9-9.9c0-2.7,0.7-5.4,1.1-8.1c0.8-5.1,0.5-9.9-1.2-14.9c-1.3-4-1-8.5-1.1-12.8c-0.1-2.9,0.6-5.9,0.6-8.8
		c-0.1-5.8-0.3-11.6-0.7-17.4c-0.5-7.3,0-14.6,1.4-21.8c1.6-8.5,2.7-17,1.7-25.7c-0.7-6.1-0.9-12.3-0.8-18.5
		c0.1-6,0.5-12.1,1.5-18.1c0.8-5,0.5-9.8-0.3-14.7c-0.9-5.6,2-11.8,7.1-14.6c1.9-1.1,3.9-1.9,6-3c0.2-2.8-0.3-5.8,1.2-8.7
		c0.8-1.5,0.8-3.2,0.1-5c-0.7-1.6-1-3.7-0.7-5.4c0.6-3.7,0-7.2-1.1-10.6c-1.1-3.4-2.7-6.7-3.6-10.1c-0.7-2.6-0.7-5.3-1-8
		c0-0.4,0.2-0.7,0.2-1.1c0.5-6.6,1.1-13.2,1.4-19.9c0.3-6.7-1.6-12.6-6.9-17.1c-1.6-1.3-2.9-3-4.2-4.7c-2.8-3.8-2.2-8.6,1.2-11.5
		c0.5-0.4,1.3-0.6,2-0.6c2.3,0,4.6,0.2,7.1,0.4c0.5-2,0.9-4.3,1.6-6.5c0.8-2.4,1.4-2.6,3.8-2c3.1,0.8,5.3,2.3,5.8,5.8
		c0.2,1.4,0.9,2.8,1.3,4c5.3,2.2,10.4,0.8,15.6,0.6c3.8-0.2,7.6-0.7,11.4-0.7c8.1-0.1,16.3,0.2,24.4-0.1c4.2-0.1,8.3-1.2,12.5-1.6
		c6-0.6,12-1,18-1.3c6.6-0.4,13.3-0.3,20-1c11.6-1.2,23.2-1.3,34.8-1.4c5.7-0.1,11.4-0.4,17-0.5c6.6-0.1,13.3-0.4,19.9-0.1
		c5.6,0.3,11.2,1.4,16.9,2.1c2.1,0.3,4.1,0.6,6.2,0.7c2.9,0.2,4.2-0.1,3.8-4.2c-0.3-3.3,1-5.5,2.9-7.6c0.8-0.9,2.2-1.6,3.4-1.8
		c3-0.4,5.9,0.2,8.4,2c1.3,0.9,2.1,2.2,2.6,3.9c1.6,5.8,0.8,11.5,0,17.2C305.8,44,305.7,44.5,305.5,45.2z M313,141.8
		c-2.1-0.2-3.6,0.1-4.8-0.5c-4.4-1.9-8.8-1.3-13.2-0.3c-5,1.1-10,1.2-15.1,0.9c-8.3-0.5-16.4,0.2-24.5,2.1
		c-7.3,1.7-14.8,2.8-22.4,1.4c-4-0.7-8.1-0.7-12.2-0.8c-1.8-0.1-3.7,0.3-5.5,0.4c-10.5,0.7-20.9,0-31.4-0.8
		c-5.4-0.4-10.9-0.7-16.2-0.3c-7.1,0.5-14,0.3-20.9-1.5c-1-0.3-1.9-0.4-2.9-0.6c-6.4-1.2-12.7-0.6-19.1,0.1
		c-5.5,0.6-11,1.3-16.6,0.8c-5.3-0.5-10.6-0.9-15.8-1.4c-3.9-0.4-16.5,3-17.9,4.4c-3.7,3.5-5.4,7.9-4,12.7
		c1.6,5.2,0.8,10.3,0.1,15.4c-1.3,9.1-1.6,18.2-0.6,27.3c0.5,5.4,1.1,10.9,0.7,16.3c-0.6,8.2-2.2,16.4-2.9,24.6
		c-0.5,4.9-0.3,9.9-0.2,14.8c0.2,8.3,0.9,16.5-0.1,24.8c-0.6,4.8-0.7,9.6,1.4,14.2c1.8,3.9,1.4,8,0.9,12c-0.5,4.1-1.2,8.2-1.8,12.1
		c2.6,1.6,2.6,1.5,4.7,1.2c3.5-0.6,7.1-1,10.6-1.5c7.3-1,14.3,0.2,20.7,4c0.6,0.4,1.3,0.7,2,1c8.2,2.5,16.6,2.7,24.8,0.4
		c10.7-3,21.4-3,32.3-1.6c5,0.6,9.8,0.4,14.7-0.8c7.6-1.8,15.2-3.3,23.1-1.8c4.1,0.8,8.3,1.5,12.5,1.5c5-0.1,10.1-0.9,15-1.6
		c6.7-1,13.3-1,19.9,0.2c6.6,1.2,13.1,0.7,19.5-0.9c4.2-1.1,8.4-0.8,12.5-0.3c5.6,0.7,10.9,3,16.6,3.1c3.9,0.1,7.9,1.1,11.9-0.8
		c0.5-3.1,0.7-6.3,1.6-9.3c2.1-7.2,1.4-14.5,0.8-21.8c-0.4-4.9-0.5-9.6,0.4-14.3c1.3-7.2,0.9-14.2-0.7-21.3
		c-1.5-6.6-1.5-13.3-0.2-19.9c0.9-5,2.3-9.9,3.1-14.8c0.9-5.9,1-11.7-0.3-17.6c-1.1-5.2-1.8-10.5-2-15.7c-0.3-8.8,1.7-17.4,2.7-26.1
		c0.5-4.2,0.8-8.4,1.1-12.5C315.2,146,314.9,143.4,313,141.8z M232,139.8c2.3-0.3,5.8-0.4,9.1-1.1c3.2-0.7,6.8-1.3,9.4-3.1
		c7.3-5,12.3-12,14.8-20.6c2.5-8.6,3.5-17.4,2-26.3c-1.2-7.2-4.1-13.4-9.5-18.4c-1.3-1.3-2.9-2.3-4.2-3.6c-3.3-3.2-7.3-4.8-11.6-6.3
		c-5.3-1.8-12.2-3.4-19-3.4c-6.8,0-20.3,4-23.5,6.8c-5.5,5-9.4,11-12.8,17.5c-2,3.8-3,7.8-3.5,12c-0.7,5.5-1.3,11-1.8,16.5
		c-0.1,1.5,0.2,3.2,0.8,4.7c2.4,5.7,5.4,9.6,9.4,13.1c2.4,2.1,6.7,4.8,9.2,6C210.4,138,220.5,139.5,232,139.8z M142.2,59
		c-11,0.1-21.4,2.7-31.5,6.8c-1.9,0.8-4,1.7-5.5,3.1c-7.1,6.8-11.8,15-12.1,25c-0.2,8.9,2.8,17.1,8.3,24.1
		c6.2,7.8,14.2,13.1,23.6,16.5c6.1,2.3,12.5,2.9,18.9,2.9c8-0.1,15.3-2.8,21.2-8.4c2.8-2.7,5.2-5.9,7.4-9.2
		c4.7-6.7,6.3-14.5,6.1-22.5c-0.4-12-5.6-22.2-14.7-30.1C157.7,62.1,150.6,58.5,142.2,59z M292.3,58c1.4-2.2,2.6-4.4,4.2-6.3
		c1.2-1.5,1.9-3,2.1-5c0.4-5.8,1.1-11.5,1.6-17.3c0-0.5,0-1,0-1.5c-0.3-2.2-1.5-3.7-3-3.7c-1.4-0.1-3.2,1.3-3.7,3.1
		c-0.3,1.1-0.5,2.2-0.5,3.3c-0.2,6.5-3,6.5-7.4,6.8c-0.2,0-0.5,0-0.7-0.1c-5.4-0.7-10.7-1.5-16.1-2.1c-3.5-0.4-7.1-0.7-10.7-0.8
		c-3.2-0.1-6.4,0.4-9.6,0.4c-6.4,0-12.8-0.7-19.1-0.3c-12.5,0.8-25.1,0.3-37.6,1.8c-8.3,0.9-16.8,0.6-25.1,1.1
		c-5.5,0.3-11.1,0.7-16.5,1.7c-8.6,1.7-17.2,1.8-25.8,1.6c-5.5-0.1-11,0-16.4,0.4c-6.2,0.5-12.3,1.3-18.4,0.1c-0.8-0.2-1.6,0-3.1,0
		c2.6,2,4.7,3.6,6.8,5.4c4.6-2.8,9.8-2.7,15.1-1.8c2.9,0.5,5.8,1.2,8.7,1.6c3.2,0.5,6.4,0.4,9.3-1.3c1.1-0.7,2.5-1.1,3.8-1.3
		c7.2-1,14.4-1.8,21.6-2.6c0.9-0.1,1.9,0.3,2.8,0.8c4.7,2.3,9.3,5,14.8,5.8c1.2-2.8,2.9-5,5.6-7c2.5-1.8,4.6-2,7.1-1.4
		c3.9,0.9,7.4,5.3,6.5,8.6c-0.6,2.3,0.3,3.8,1.5,5.3c1,1.4,2.2,2.6,3.4,4.1c10.8-1.4,15.9-3,18.9-3.7c4.6-1.1,8.3-1.5,12.8-1.7
		c7.4-0.2,14.5,1,21.4,3.6c1.4,0.5,2.6,0.8,4.2,0.2c7.1-2.7,14-1.7,20.6,1.8c1.2,0.6,2.5,1.2,3.7,1.7c2.2,1,4.5,1.3,6.8,0.2
		c2.7-1.3,5.6-1.8,8.6-1.4C290.8,58.2,291.5,58.1,292.3,58z M72.9,327.8c0,3.5,0.1,7.3,0,11.1c-0.1,6.4-0.4,12.8-0.5,19.2
		c0,1.9,0.3,3.9,0.8,5.8c0.2,0.8,1,1.8,1.8,2.1c3.4,1.5,5.9,0.1,6.7-3.6c0.1-0.6,0.1-1.2,0.2-1.8c0.2-6,0.4-12.1,0.7-18.1
		c0.2-4.5,0.8-5.8,6.4-5.9c2.1,0,4.2,0.5,6.3,0.5c9.4,0.3,18.8,0.6,28.3,0.7c6.6,0.1,13.2-0.2,19.8-0.3c9.5-0.1,19-0.2,28.5-0.3
		c8.3-0.1,16.5-0.3,24.8-0.4c5.8-0.1,11.5,0.2,17.3,0c7.5-0.2,15-0.7,22.5-0.9c11.6-0.3,23.2-0.4,34.8-0.5c3.6,0,7.1,0.4,10.6,0.1
		c2-0.1,3,0.7,3.9,2c1.1,1.7,1.3,3.6,1.3,5.6c-0.2,7.1-0.1,14.3-0.1,21.6c1.1,0.4,2,0.6,2.9,1c3,1.2,5.8-0.8,6.4-3.8
		c0.5-2.5,1-5.1,1-7.7c0-8.3-0.3-16.5-0.5-24.8c0-0.7-0.4-1.4-0.5-1.7c-4.3-1-8.2-2.3-12.2-2.8c-4.6-0.6-9.4-1.1-14-0.8
		c-5.1,0.3-10.2,1.9-15.3,2.4c-4.6,0.4-9.4,0.6-14,0.1c-2.7-0.3-5.3-0.5-8,0.1c-6.5,1.5-13.2,2.2-19.8,1.7
		c-5.4-0.4-10.8-1.4-16.1-2.4c-3.8-0.7-7.3,0.2-10.9,1.1c-6.5,1.7-13,3.9-19.9,3.5c-5.2-0.3-10.3-1.2-15.4-2
		c-5.3-0.8-10.5-1.5-15.8-0.3c-4.6,1.1-9.1,2.2-13.7,3c-7.8,1.4-15.2,0.2-22.1-3.8c-5.2-3-10.5-4.5-16.5-2
		C79.9,327,76.6,327.1,72.9,327.8z M255.5,60.7c0.5,0.8,0.6,1.1,0.9,1.4c0.8,0.8,1.7,1.5,2.5,2.2c5.4,4.4,9.5,9.9,12.2,16.1
		c3.7,8.5,4.6,17.7,2.4,26.8c-1.2,4.9-2.9,9.6-4.6,14.4c-1.9,5.6-5,10.4-9.9,14c-1,0.7-1.5,1.9-2.5,3.2c1,0.1,1.4,0.2,1.7,0.2
		c9.4-1.7,18.9-1.8,28.4-1.1c1.7,0.1,3.4-0.4,5.1-0.8c1.6-0.4,3.1-1,4.6-1.5c2.1-1.8,3.5-4.3,2.9-7.6c-0.3-1.4-0.2-3,0-4.4
		c0.6-5.2,0.2-10.6,2.7-15.5c0.9-1.8,0.3-3.6-0.4-5.4c-2.1-5.7-1.5-11.4,1-16.8c1.6-3.5,1.5-6.9-0.4-10.3c-1-1.8-2.1-3.6-3.1-5.5
		c-1.6-3-1.6-5.8,0.9-8.5c1.6-1.7,3-3.6,4.4-5.5c1.2-1.8,2.5-3.6,2.2-6.4c-2.2,1.2-4.6,2-6.1,3.6c-1.9,1.9-3.5,4.2-4.4,6.7
		c-0.9,2.5-2.4,3.3-4.5,3.5c-1.2,0.1-2.5-0.2-3.7-0.1c-1.3,0.1-2.7,0.2-3.9,0.7c-4.3,2-8.5,2.2-12.7-0.3c-1.4-0.8-2.8-1.7-4.2-2.3
		C263.5,59.9,259.8,59.6,255.5,60.7z M68.1,40.9c-1.4,2.6-0.7,4.4,0.8,6.1c1.4,1.6,2.9,3.1,4.5,4.5c5.8,5,7.1,11.7,6.8,18.8
		c-0.1,3.6,0.2,7.3-1.2,10.9C78.7,81.9,79,83,79,84c0,2.1,0.1,4.2-0.1,6.3c-0.4,4.2,0.5,8.1,2.1,11.9c2.6,6.1,3.8,12.4,3.3,19
		c-0.1,0.8,0.1,1.8,0.4,2.5c1.5,2.7,1.1,5.4,0.2,8.2c-0.6,1.8-0.7,3.8-0.9,5.5c9.8,0.4,19.1,0.8,28.7,1.2c0.5-1.8,1-3.8,1.5-5.6
		c-0.9-0.6-1.4-1-1.9-1.3c-8.4-6-15.5-12.9-19.1-22.9c0-0.1-0.1-0.2-0.1-0.3c-6.5-15.3-2.6-31.1,9.4-41.8c1.4-1.3,3.1-2.1,5-2.8
		c4-1.6,8.4-1.9,12.3-4c1.7-0.9,3.6-1.8,5.5-2.1c4.7-0.8,9.4-1.3,14.1-1.9c9.5-1.3,17.5,2.1,24.7,7.8c1.8,1.4,3.5,3.1,5.3,4.6
		c1.4-4.3,2-8.7,5.9-11.5c-1.3-6.5-0.8-7.2,6.9-9.8c-2.5-3.6-5.7-3.7-7.7-0.2c-0.7,1.2-1.1,2.4-1.6,3.7c-1.3,3.7-3.6,4.8-7.4,3.7
		c-2.6-0.8-5-1.7-7.4-3.2c-2.5-1.5-5.3-2.6-8.1-3.7c-2.1-0.8-4.2-0.9-6.5-0.1c-1.8,0.7-3.8,0.9-5.8,1.2c-3,0.6-6.2,0.8-9,1.8
		c-6,2.1-12.1,1.8-18.2,0.9c-3.8-0.6-7.5-1.6-11.3-0.4c-2.1,0.7-4.2,1.5-6.2,2.4c-3.1,1.4-5.3,0.5-7.5-1.9
		C80.6,46.3,74.8,43.1,68.1,40.9z M180.7,119.6c-1.6,5-1.6,15.6,0.1,20.6c3.2,0,6.4,0,9.8,0c0.2-1.9,0.3-3.6,0.4-5.3
		c0.3-2.4-0.5-4.2-2.2-5.9C186,126.1,183.5,122.9,180.7,119.6z M179.5,61.6c-0.8,2.7-1.9,5-2.1,7.4c-0.3,2.6-0.4,5.5,0.3,8
		c0.7,2.5,2.5,4.6,3.8,6.9C183.5,77.8,182.6,65.3,179.5,61.6z M171.7,128.8c-2.9,2.3-5.3,4.6-8.1,6.3c-2.1,1.3-2.7,2.6-1.8,5.2
		c3.4-0.2,6.9-0.5,10.4-0.7C172.8,135.8,174,132.2,171.7,128.8z M186.2,74.2c2.5-3.4,4.6-6.2,6.9-9.4c-4,0.7-5.8-1.7-7.4-4.2
		c-0.7-1.2-1.2-2.4-1.8-3.6c-1-2-2-4-4-5c-1.9,0.5-2.4,1.7-1.6,3.1c0.7,1.3,1.6,2.6,2.7,3.4c3.9,2.5,5.3,6,4.8,10.5
		C185.7,70.4,186,72,186.2,74.2z M194.9,134.1c-0.2,2.5-0.3,4.6-0.5,7c2.6,0,5,0,7.5,0c0.2-1.1,0.5-2.1,0.8-3.3
		C200.2,136.6,197.7,135.4,194.9,134.1z M81.9,31.6c-0.3,0.1-0.6,0.1-0.8,0.2c-1.6,4.5-1,6.3,2.6,7C83.1,36.4,82.5,34,81.9,31.6z
		 M116.1,138.1c3.2,0.6,4.8,0.4,6.6-0.9c-1.6-0.8-3.2-1.6-4.8-2.5c-0.4,0.6-0.7,1-0.9,1.5C116.7,136.7,116.5,137.3,116.1,138.1z
		 M212.2,141.1c-5.4-2.3-5.4-2.3-6.4,0C207.7,141.1,209.6,141.1,212.2,141.1z M157.6,138.4c-1.1,0.3-2,0.6-3,1
		c0,0.2,0.1,0.3,0.1,0.5c1,0.2,2,0.3,3.3,0.5C157.8,139.5,157.7,139,157.6,138.4z"/>
	<path d="M200.9,106.6c-1.7,0-3.3-3.3-2.2-5.1c0.8-1.3,2.1-1.3,2.9-0.1C202.8,103.2,202.6,106.6,200.9,106.6z"/>
	<path d="M189.1,105c-0.4-1-0.3-3,1.3-3.1c0.6-0.2,1.8,0.4,2.1,1c0.4,0.9,0.4,2.1,0.1,3C192.3,106.9,190,107.3,189.1,105z"/>
	<path d="M150.6,107.1c-1.3-0.1-2.3-1.5-2.4-3.6c-0.1-1.5,0.4-2.8,1.9-3.1c1.6-0.3,2.4,0.9,2.9,2.3
		C153.7,104.7,152.4,107.2,150.6,107.1z"/>
	<path d="M163.4,107.3c-1.7,0-3-3.7-0.5-6c1-0.9,2.4,0.3,2.8,1.6C166.1,104.3,165.1,107.3,163.4,107.3z"/>
	<path class="st4" d="M313,141.8c-2.1-0.2-3.6,0.1-4.8-0.5c-4.4-1.9-8.8-1.3-13.2-0.3c-5,1.1-10,1.2-15.1,0.9
		c-8.3-0.5-16.4,0.2-24.5,2.1c-7.3,1.7-14.8,2.8-22.4,1.4c-4-0.7-8.1-0.7-12.2-0.8c-1.8-0.1-3.7,0.3-5.5,0.4
		c-10.5,0.7-20.9,0-31.4-0.8c-5.4-0.4-10.9-0.7-16.2-0.3c-7.1,0.5-14,0.3-20.9-1.5c-1-0.3-1.9-0.4-2.9-0.6
		c-6.4-1.2-12.7-0.6-19.1,0.1c-5.5,0.6-11,1.3-16.6,0.8c-5.3-0.5-10.6-0.9-15.8-1.4c-3.9-0.4-14.1,0.7-17.9,4.4
		c-3.7,3.5-5.4,7.9-4,12.7c1.6,5.2,0.8,10.3,0.1,15.4c-1.3,9.1-1.6,18.2-0.6,27.3c0.5,5.4,1.1,10.9,0.7,16.3
		c-0.6,8.2-2.2,16.4-2.9,24.6c-0.5,4.9-0.3,9.9-0.2,14.8c0.2,8.3,0.9,16.5-0.1,24.8c-0.6,4.8-0.7,9.6,1.4,14.2c1.8,3.9,1.4,8,0.9,12
		c-0.5,4.1-1.2,8.2-1.8,12.1c2.6,1.6,2.6,1.5,4.7,1.2c3.5-0.6,7.1-1,10.6-1.5c7.3-1,14.3,0.2,20.7,4c0.6,0.4,1.3,0.7,2,1
		c8.2,2.5,16.6,2.7,24.8,0.4c10.7-3,21.4-3,32.3-1.6c5,0.6,9.8,0.4,14.7-0.8c7.6-1.8,15.2-3.3,23.1-1.8c4.1,0.8,8.3,1.5,12.5,1.5
		c5-0.1,10.1-0.9,15-1.6c6.7-1,13.3-1,19.9,0.2c6.6,1.2,13.1,0.7,19.5-0.9c4.2-1.1,8.4-0.8,12.5-0.3c5.6,0.7,10.9,3,16.6,3.1
		c3.9,0.1,7.9,1.1,11.9-0.8c0.5-3.1,0.7-6.3,1.6-9.3c2.1-7.2,1.4-14.5,0.8-21.8c-0.4-4.9-0.5-9.6,0.4-14.3
		c1.3-7.2,0.9-14.2-0.7-21.3c-1.5-6.6-1.5-13.3-0.2-19.9c0.9-5,2.3-9.9,3.1-14.8c0.9-5.9,1-11.7-0.3-17.6c-1.1-5.2-1.8-10.5-2-15.7
		c-0.3-8.8,1.7-17.4,2.7-26.1c0.5-4.2,0.8-8.4,1.1-12.5C315.2,146,314.9,143.4,313,141.8z"/>
	<path class="st1" d="M255.5,60.7c0.5,0.8,0.6,1.1,0.9,1.4c0.8,0.8,1.7,1.5,2.5,2.2c5.4,4.4,9.5,9.9,12.2,16.1
		c3.7,8.5,4.6,17.7,2.4,26.8c-1.2,4.9-2.9,9.6-4.6,14.4c-1.9,5.6-5,10.4-9.9,14c-1,0.7-1.5,1.9-2.5,3.2c1,0.1,1.4,0.2,1.7,0.2
		c9.4-1.7,18.9-1.8,28.4-1.1c1.7,0.1,3.4-0.4,5.1-0.8c1.6-0.4,3.1-1,4.6-1.5c2.1-1.8,3.5-4.3,2.9-7.6c-0.3-1.4-0.2-3,0-4.4
		c0.6-5.2,0.2-10.6,2.7-15.5c0.9-1.8,0.3-3.6-0.4-5.4c-2.1-5.7-1.5-11.4,1-16.8c1.6-3.5,1.5-6.9-0.4-10.3c-1-1.8-2.1-3.6-3.1-5.5
		c-1.6-3-1.6-5.8,0.9-8.5c1.6-1.7,3-3.6,4.4-5.5c1.2-1.8,2.5-3.6,2.2-6.4c-2.2,1.2-4.6,2-6.1,3.6c-1.9,1.9-3.5,4.2-4.4,6.7
		c-0.9,2.5-2.4,3.3-4.5,3.5c-1.2,0.1-2.5-0.2-3.7-0.1c-1.3,0.1-2.7,0.2-3.9,0.7c-4.3,2-8.5,2.2-12.7-0.3c-1.4-0.8-2.8-1.7-4.2-2.3
		C263.5,59.9,259.8,59.6,255.5,60.7z"/>
	<path class="st1" d="M68.1,40.9c-1.4,2.6-0.7,4.4,0.8,6.1c1.4,1.6,2.9,3.1,4.5,4.5c5.8,5,7.1,11.7,6.8,18.8
		c-0.1,3.6,0.2,7.3-1.2,10.9C78.7,81.9,79,83,79,84c0,2.1,0.1,4.2-0.1,6.3c-0.4,4.2,0.5,8.1,2.1,11.9c2.6,6.1,3.8,12.4,3.3,19
		c-0.1,0.8,0.1,1.8,0.4,2.5c1.5,2.7,1.1,5.4,0.2,8.2c-0.6,1.8-0.7,3.8-0.9,5.5c9.8,0.4,19.1,0.8,28.7,1.2c0.5-1.8,1-3.8,1.5-5.6
		c-0.9-0.6-1.4-1-1.9-1.3c-8.4-6-15.5-12.9-19.1-22.9c0-0.1-0.1-0.2-0.1-0.3c-6.5-15.3-2.6-31.1,9.4-41.8c1.4-1.3,3.1-2.1,5-2.8
		c4-1.6,8.4-1.9,12.3-4c1.7-0.9,3.6-1.8,5.5-2.1c4.7-0.8,9.4-1.3,14.1-1.9c9.5-1.3,17.5,2.1,24.7,7.8c1.8,1.4,3.5,3.1,5.3,4.6
		c1.4-4.3,2-8.7,5.9-11.5c-1.3-6.5-0.8-7.2,6.9-9.8c-2.5-3.6-5.7-3.7-7.7-0.2c-0.7,1.2-1.1,2.4-1.6,3.7c-1.3,3.7-3.6,4.8-7.4,3.7
		c-2.6-0.8-5-1.7-7.4-3.2c-2.5-1.5-5.3-2.6-8.1-3.7c-2.1-0.8-4.2-0.9-6.5-0.1c-1.8,0.7-3.8,0.9-5.8,1.2c-3,0.6-6.2,0.8-9,1.8
		c-6,2.1-12.1,1.8-18.2,0.9c-3.8-0.6-7.5-1.6-11.3-0.4c-2.1,0.7-4.2,1.5-6.2,2.4c-3.1,1.4-5.3,0.5-7.5-1.9
		C80.6,46.3,74.8,43.1,68.1,40.9z"/>
	<path class="st1" d="M171.7,128.8c-2.9,2.3-5.3,4.6-8.1,6.3c-2.1,1.3-2.7,2.6-1.8,5.2c3.4-0.2,6.9-0.5,10.4-0.7
		C172.8,135.8,174,132.2,171.7,128.8z"/>
	<path class="st1" d="M186.2,74.2c2.5-3.4,4.6-6.2,6.9-9.4c-4,0.7-5.8-1.7-7.4-4.2c-0.7-1.2-1.2-2.4-1.8-3.6c-1-2-2-4-4-5
		c-1.9,0.5-2.4,1.7-1.6,3.1c0.7,1.3,1.6,2.6,2.7,3.4c3.9,2.5,5.3,6,4.8,10.5C185.7,70.4,186,72,186.2,74.2z"/>
	<path class="st1" d="M194.9,134.1c-0.2,2.5-0.3,4.6-0.5,7c2.6,0,5,0,7.5,0c0.2-1.1,0.5-2.1,0.8-3.3
		C200.2,136.6,197.7,135.4,194.9,134.1z"/>
</g>
</svg>
