<?xml version="1.0" encoding="utf-8"?>
<!-- Generator: Adobe Illustrator 19.1.0, SVG Export Plug-In . SVG Version: 6.00 Build 0)  -->
<svg version="1.1" id="Calque_1" xmlns="http://www.w3.org/2000/svg" xmlns:xlink="http://www.w3.org/1999/xlink" x="0px" y="0px"
	 viewBox="0 0 145.1 115.2" style="enable-background:new 0 0 145.1 115.2;" xml:space="preserve">
<style type="text/css">
	.st0{fill:#FFFFFF;}
	.st1{fill:#41AB87;}
	.st2{fill:#E2EFE8;}
	.st3{fill:#010202;}
	.st4{fill:#DB5556;}
	.st5{fill:#6FA4C3;}
	.st6{fill:none;stroke:#DB5556;stroke-width:7;stroke-miterlimit:10;}
	.st7{fill:none;}
	.st8{fill:#FFFFFF;stroke:#DB5556;stroke-width:3;stroke-miterlimit:10;}
	.st9{fill:none;stroke:#DB5556;stroke-width:3;stroke-miterlimit:10;}
	.st10{fill:#C1C0C0;}
	.st11{fill:none;stroke:#C1C0C0;stroke-width:3;stroke-miterlimit:10;}
	.st12{fill:#FFFCFA;}
	.st13{fill:#F5D1CA;}
</style>
<g>
	<g>
		<path d="M134.9,60.9c9.2,1.8,10.2,2.5,10.2,6.3s-10-0.6-15.5-0.3c-2.1,2.2-4.4,4.7-6.8,7.2c1.7,2.9,7.4,6.9,5.2,9.1
			s-7-2.6-9.9-3.7c-5.6,2.5-10.9,4.8-16.9,7.4c2.3,2.2,4.4,3.9,6.1,5.9c1.6,1.8,5.7,3.9,3.5,6.6c-2.2,2.7-9.5-6.9-13.8-9.7
			c-5.1,1.4-9.8,2.8-15,4.3c2.6,6.9,13.5,17.7,10.8,20.8c-2.6,3-13.2-15.6-17.2-21.3c-2.5,0.4-4.5,0.4-6.2,1.1
			c-6.4,2.5-12-1.6-18-1.8c-1.2,0-2.6-0.9-3.4-1.8c-2.2-2.4-4.1-3.5-7.8-2.5c-4.1,1-10.5-5.2-11.9-10.4c-0.5-1.8-0.8-3.7-1.2-5.7
			c-9.2,0.2-27,4.8-27-0.9s17.8-3.7,26.7-5.6c1.1-5,2.2-9.5,3.1-13.8c-6.2-2.1-12.3-4-18.3-6.2c-1-0.4-3.8-2.2-2.5-4.9
			c1.3-2.7,18.6,4.1,22.6,4.7c2.3-4.6,4.6-9.4,7-14.3c-4.8-4.3-15.6-10.7-12-14.6s10,7.1,15.2,10.8c1.9-2.5,3.9-5,6.7-8.6
			c0-2.3-6.6-9.5-2.9-11.6s5.3,6.2,7.7,9.1c4.9-3,9.7-6.3,14.8-8.9c21.8-11.2,54.3-10.2,65,6.2c6,9.9,9.7,20.1,8.3,32
			C140.6,51.2,138.8,56,134.9,60.9z M71,86.9c8.3-2.2,16-3.9,23.5-6.4c9.4-3.2,16.3-10.2,23.8-16.5c10.1-8.6,15-18.9,12.5-32
			c-1.6-8.2-3.6-16.5-11-22.1c-6.5-4.9-14.3-5.9-21.7-5.8c-8.7,0.2-17.4,2.5-25.4,6.7c-9.7,5-18.3,11.4-25.8,19.2
			c-9.1,9.4-12.4,21.3-14,33.8c3.5,0,6.4,0,9.6,0c0.4-1.6,0.8-3.2,1.3-4.9c1.8-5.5,5.7-10.8,9.4-11.4c3.8-0.5,8.4,0.5,9.9,5
			c1.5,4.5-0.5,12.5-2.5,17.7C68.6,72.7,70.9,79,71,86.9z M55.6,87.7c5.6-0.1,9.3-2.9,9.1-7c-0.2-3.4-3.1-5.7-7.3-5.8
			c-4.9-0.1-8.4,3.4-8.2,8.5C49.3,86.8,50.7,87.7,55.6,87.7z M37.2,68.4c-2.6,0-4.8,4.3-3.5,9.1c1.3,4.9,2.7,5.8,6.4,4.5
			c3.5-1.3,4.4-2.9,3.8-7.7C43.5,70,39.8,68.4,37.2,68.4z"/>
		<path d="M54.1,79.6c3.3-1,4.5,5.3,1.9,5.8C53.5,85.8,50.5,80.7,54.1,79.6z"/>
		<path d="M39.2,78.2c-3.3,1.8-5.6-3.4-3.3-5.5S42.5,76.5,39.2,78.2z"/>
	</g>
	<path class="st4" d="M71,86.9c8.3-2.2,16-3.9,23.5-6.4c9.4-3.2,16.3-10.2,23.8-16.5c10.1-8.6,15-18.9,12.5-32
		c-1.6-8.2-3.6-16.5-11-22.1c-6.5-4.9-14.3-5.9-21.7-5.8c-8.7,0.2-17.4,2.5-25.4,6.7c-9.7,5-18.3,11.4-25.8,19.2
		c-9.1,9.4-12.4,21.3-14,33.8c3.5,0,6.4,0,9.6,0c0.4-1.6,0.8-3.2,1.3-4.9c1.8-5.5,5.7-10.8,9.4-11.4c3.8-0.5,8.4,0.5,9.9,5
		c1.5,4.5-0.5,12.5-2.5,17.7C68.6,72.7,70.9,79,71,86.9z"/>
</g>
</svg>
