<?xml version="1.0" encoding="utf-8"?>
<!-- Generator: Adobe Illustrator 19.1.0, SVG Export Plug-In . SVG Version: 6.00 Build 0)  -->
<svg version="1.1" id="Calque_1" xmlns="http://www.w3.org/2000/svg" xmlns:xlink="http://www.w3.org/1999/xlink" x="0px" y="0px"
	 viewBox="0 0 151.5 151.5" style="enable-background:new 0 0 151.5 151.5;" xml:space="preserve">
<style type="text/css">
	.st0{fill:#FFFFFF;}
	.st1{fill:#41AB87;}
	.st2{fill:#E2EFE8;}
	.st3{fill:#010202;}
	.st4{fill:#DB5556;}
	.st5{fill:#6FA4C3;}
	.st6{fill:none;stroke:#DB5556;stroke-width:7;stroke-miterlimit:10;}
	.st7{fill:none;}
	.st8{fill:#FFFFFF;stroke:#DB5556;stroke-width:3;stroke-miterlimit:10;}
	.st9{fill:none;stroke:#DB5556;stroke-width:3;stroke-miterlimit:10;}
	.st10{fill:#C1C0C0;}
	.st11{fill:none;stroke:#C1C0C0;stroke-width:3;stroke-miterlimit:10;}
	.st12{fill:#FFFCFA;}
	.st13{fill:#F5D1CA;}
</style>
<g>
	<path class="st1" d="M53.2,148c11.6,5.5,68.6,5.5,81.5-6.9l-12.5-40.4l-23.6,4.2L79,106.3l-14.6-4.2l-3.7,6.3L53.2,148z"/>
	<g>
		<g>
			<path d="M148.6,69.4c2.1-7.7,3.6-15.2,2.7-23.4c-1.4-12.1-5.5-22.6-13.7-31.7c-6.4-7-25.1-16.7-44.7-13.7C89.5,1.5,86,2,82.8,3.3
				c-5.3,2.2-10.6,4.4-15.4,7.5c-8.5,5.5-34.6,27.8-28.3,58.3c1,5,3.3,9.5,6.2,13.6c1.7,2.4,3.4,4.7,5.4,7.6
				c-10.5,3.7-29.3,11.3-30.3,12.5c-1.1,1.1,0.7,3.1,2.3,3.3c1.6,0.2,21.2-9.3,28.7-12.5c2.5-1.1,4.6-0.9,6.7,1.6
				c-1.4,1-2.6,2.1-4,2.9c-4.9,2.8-11.9,6.9-16.8,9.6c-3.4,1.9,0,5.7,1.6,4.3c1.6-1.4,14-8.8,21.4-13.2c0.8,2.9,0.1,4.7-1.9,6.2
				c-2.5,1.8-4.8,3.8-7.1,5.8c-2.4,2.1-4.7,4.4-7.2,6.4c-4.7,3.7-9.5,7.3-14.3,11c-2.3,1.7-1.7,4.4,0.3,4.7
				c2.6,0.4,17.5-13,24.1-19.8c1.2-1.2,2.3-2.5,4.2-3.2c-0.1,0.9,0,1.3-0.1,1.7c-3.4,11.4-6,22.9-8.1,34.6c-0.5,2.8,0.9,5.5,2.9,4.6
				c1.9-1,6.8-29.4,10.3-44.1c1.9,3.1,3.9,5.5,8.2,4.6c4.4,6.3,8.7,12.6,13.2,18.8c1.4,1.9,2.7,4.6,4.5,4.8s8.3-5.8,11.6-9.3
				c3.2-3.5,6.9-6.5,10.3-9.8c3.4-3.4,6.7-7,10.4-10.8c1.8,5.6,3.6,10.8,5.1,16.1c1.8,6.6,3.4,13.2,5,19.9c0.4,1.7,1.2,2.5,2.9,2.1
				c1.6-0.4,1.7-1.6,1.5-3c-0.1-0.5-0.2-1.1-0.4-1.6c-2.1-8.1-4.2-16.2-6.4-24.2c-1.1-4.1-3.8-11.1-4.9-14.7
				C136.4,91.3,146.3,77.8,148.6,69.4z M70.1,88.7c-0.1-0.4-0.8-1.5-0.9-1.9c2.1-1,4.8-2.8,6.9-3.8c0.6,1.2,0.6,1.2-0.3,2.1
				C74.7,86.2,71.3,87.9,70.1,88.7z M71.3,92c2.6-1.5,4.9-2.8,7.2-4.1c0.3,0.4,0.6,0.8,0.9,1.1c-2.1,1.8-4.1,3.5-6.4,5.5
				C72.5,93.9,72,93.1,71.3,92z M111.2,110.1c-6.3,5.9-13.7,13-20,18.9c-0.9,0.8-10.9-11.9-15.8-18.9c1.2-1.7,2.8-1.6,4.9-1.5
				c11.1,0.7,22.3,0.3,34.3-2.3C113,108,112.2,109.1,111.2,110.1z M121.7,94.4c-6.2,4-13.2,5.2-20.3,5.8c-5.2,0.5-10.6,0.5-15.8,0.3
				c-3.1-0.1-6.2-1.1-10.4-2c4-3.6,6.3-7.8,11.8-7.3c3.1,0.3,6.1-0.6,8.9-1.9c4.8-2.3,6-5.2,4.2-10.3c-1.6-4.6-4.7-8.6-14-7.8
				c-1.3-0.1-2.8-0.1-4.4,0.3c-3.2,0.9-5.4,3.1-6.2,6.2c-0.4,1.8-6.3,5.4-7.8,5.2c-2.7-0.4-4.6,0.6-6.6,1.8
				c-2.2,1.2-4.3,2.4-6.8,3.8c-3.7-2.8-6.1-6.8-8.2-11c-3.6-6.8-4.5-14.1-3.8-21.8c2.3-26,26.9-42.5,35.5-46.4
				c4.7-2.1,9.7-3.8,14.7-4.7C96.1,3.8,106.1,4,110,4.2c3.2,0.2,18.3,5.1,23.8,10.9c7.5,7.8,12.2,16.9,13.1,27.8
				c1.1,9.4-1.4,22.6-2.7,26.6C140.5,81.2,131.4,88.1,121.7,94.4z M84.1,76.9c-0.4-0.5-1.1-0.8-1.9-1.3c0.9-0.2,1.6-0.5,2.2-0.6
				c0.5-0.1,2.8-0.8,6.1,0.4c3.4,1.2,3.8,1.7,5.2,3.6c2.1,2.7,1.4,4.5-1.5,6.1c-0.7,0.4-1.5,0.7-2.3,1c-2.1,1.1-7.4,0.2-8.3-0.4
				c-0.9-0.6-2-2.5-3-3.8c0.3-0.1,1.1-0.5,1.9-0.7C85.5,80.4,86,79,84.1,76.9z"/>
			<path d="M35.9,119.6c0.1,2.3-1.9,4.7-4.5,5.3c-1.6,0.3-3.5-0.8-5.2-0.6c-0.9,0.1-1.6,1.4-2.4,1.8c-2.6,1.2-4.8,0.6-6.4-1.7
				c-0.5-0.7-0.9-1.4-1.3-2.1c-3.1-4.2-0.7-11,4.5-12.2c1.2-0.3,3.1,0.1,3.9,0.9c1.6,1.8,3.5,1.8,5.6,2.1
				C33.1,113.3,35.8,116.4,35.9,119.6z M17.9,117.7c0,2,1.8,4.5,3.4,4.9c1.6,0.4,2.2-2.2,3.3-2.5c1.1-0.3,7.1,2.1,7.9,0.1
				c0.8-2-0.9-3.4-2.6-2.7c-2.5,1-4.9-1.1-6.5-2.9C21.5,112.4,17.8,114.5,17.9,117.7z"/>
			<path d="M15.9,99.5c0.1,1.6,0,4-1.2,6.1c-1.3,2.1-5.2,4.2-5.5,1.8c-0.4-3.1-5.8-0.5-7.6-3.6c-1.2-2.1-2.4-5.2-1.1-7.1
				c1.5-2.2,3.2-2.7,5.9-2.1c0.7,0.2,1.5,0,2.2-0.3C13.3,92.5,16.2,94.5,15.9,99.5z M6.1,103.4c1.4,0.3,1.6-1.6,3.1-1.3
				s1.8,4.3,3.5,2c1.7-2.3,0.6-5.6-0.9-6.8s-3.8,1.5-7.6,0.9C1.9,97.8,3.1,102.7,6.1,103.4z"/>
			<path d="M99.4,59.5c0,1.5-2.1,3.1-3.9,3c-2.1-0.1-4.4-2.1-4.3-3.7c0-1.9,1.8-3.6,3.8-3.6C96.7,55.2,99.5,57.9,99.4,59.5z"/>
			<path d="M82.8,60.1c-0.1,1.9-2.4,3.6-4.5,3.5c-1.6-0.1-3-1.4-3-2.9c0-2,2.2-4.9,3.7-4.9C80.6,55.8,82.9,58.4,82.8,60.1z"/>
		</g>
		<path class="st4" d="M84.1,76.9c-0.4-0.5-1.1-0.8-1.9-1.3c0.9-0.2,1.6-0.5,2.2-0.6c0.5-0.1,2.8-0.8,6.1,0.4
			c3.4,1.2,3.8,1.7,5.2,3.6c2.1,2.7,1.4,4.5-1.5,6.1c-0.7,0.4-1.5,0.7-2.3,1c-2.1,1.1-7.4,0.2-8.3-0.4c-0.9-0.6-2-2.5-3-3.8
			c0.3-0.1,1.1-0.5,1.9-0.7C85.5,80.4,86,79,84.1,76.9z"/>
		<path class="st4" d="M6.1,103.4c1.4,0.3,1.6-1.6,3.1-1.3s1.8,4.3,3.5,2c1.7-2.3,0.6-5.6-0.9-6.8s-3.8,1.5-7.6,0.9
			C1.9,97.8,3.1,102.7,6.1,103.4z"/>
		<path class="st4" d="M17.9,117.7c0,2,1.8,4.5,3.4,4.9c1.6,0.4,2.2-2.2,3.3-2.5c1.1-0.3,7.1,2.1,7.9,0.1c0.8-2-0.9-3.4-2.6-2.7
			c-2.5,1-4.9-1.1-6.5-2.9C21.5,112.4,17.8,114.5,17.9,117.7z"/>
	</g>
</g>
</svg>
