<?xml version="1.0" encoding="utf-8"?>
<!-- Generator: Adobe Illustrator 19.1.0, SVG Export Plug-In . SVG Version: 6.00 Build 0)  -->
<svg version="1.1" id="Calque_1" xmlns="http://www.w3.org/2000/svg" xmlns:xlink="http://www.w3.org/1999/xlink" x="0px" y="0px"
	 viewBox="0 0 472.5 178.7" style="enable-background:new 0 0 472.5 178.7;" xml:space="preserve">
<style type="text/css">
	.st0{fill:#FFFFFF;}
	.st1{fill:#41AB87;}
	.st2{fill:#E2EFE8;}
	.st3{fill:#010202;}
	.st4{fill:#DB5556;}
	.st5{fill:#6FA4C3;}
	.st6{fill:none;stroke:#DB5556;stroke-width:7;stroke-miterlimit:10;}
	.st7{fill:none;}
	.st8{fill:#FFFFFF;stroke:#DB5556;stroke-width:3;stroke-miterlimit:10;}
	.st9{fill:none;stroke:#DB5556;stroke-width:3;stroke-miterlimit:10;}
	.st10{fill:#C1C0C0;}
	.st11{fill:none;stroke:#C1C0C0;stroke-width:3;stroke-miterlimit:10;}
	.st12{fill:#FFFCFA;}
	.st13{fill:#F5D1CA;}
</style>
<g>
	<g>
		<g>
			<path d="M184.2,96.1c0.7-11.2,1.3-22.3,2-33.7c-2.6-0.1-5-0.2-7.4-0.4c-4.4-0.3-5-1.9-5.7-4.6c-0.7-2.6,1.1-5.6,3.9-6.8
				c1.2-0.5,2.5-0.9,3.7-0.9c6.5-0.4,13-0.8,19.6-0.9c3.5-0.1,6.9,0.2,10.4,0.6c3.7,0.5,6,2.9,6.6,6.4c0.5,2.7-0.4,4.5-3.2,5.3
				c-3.1,0.9-6.3,1.3-9.7,2c-1.3,10.4-2.2,21-1.4,31.4c3.9,2.2,7.6,4.2,11.2,6.4c6.3,3.9,11.3,9,14.1,15.9c1.6,4.2,3.7,8.2,4.3,12.8
				c0.8,6.6-0.8,29.9-15.8,41c-12.7,9.4-20.7,8.8-31.9,6.9c-7-1.7-13.5-4.8-19.7-8.7c-4.8-3-8.8-6.7-11.4-11.7
				c-3.6-6.8-5.2-14-3.1-21.6c2.8-10.2,7.7-19.4,14.9-27.2c4.9-5.2,10.7-9.3,17.6-11.6C183.6,96.6,184,96.3,184.2,96.1z M189.7,62.9
				c-0.6,12.5-0.2,34.3-1.3,35.8c-1.1,1.5-6,2.8-7,3.3c-11.6,4.1-16.1,13.1-18.8,17.1c-4.1,6.3-6.8,13.2-8.9,20.5c1.6-1,3-2,4.5-2.8
				c1.1-0.6,2.4-0.8,3.5-1.3c3.3-1.5,6.7-2.3,10.4-1.5c3.5,0.8,7.1,1.3,10.6,2c4.6,1,9,0.8,13.1-1.6c6.9-4,14.5-5.3,22.3-5.6
				c3.3-0.1,6.6,0.5,10,0.9c0.3-3.2-1.3-5.8-2.2-8.5c-3.6-11.1-11.7-17.5-22.4-21.1c-3-1-4.7-3-4.9-6.2c-0.1-2.2-0.2-4.4-0.1-6.6
				c0.5-9.1,1-18.3,1.6-27.4c0-0.4,0.5-0.9,0.7-1.2c4.3-0.4,8.6-0.1,12.8-2.3c-2.1-3-4.9-3.2-7.7-3.1c-8.5,0.3-17,0.7-25.5,1
				c-0.9,0-1.9,0-2.6,0.4c-0.7,0.4-1.1,1.2-1.7,1.9c0.7,0.4,1.3,1.1,2,1.2c3.6,0.2,7.2,0.2,10.8,0.2C191.1,58,190.7,62.2,189.7,62.9
				z M153.6,143c0,6.6,4.4,16.1,8.5,19.4c5.5,4.5,12,7.5,18.8,9.7c6.6,2.2,13.4,2.3,20.2,1.6c19.5-3.6,25.8-27.6,27.5-35.8
				c0.3-1.6-0.6-3.2-2.2-3.5c0,0,0,0,0,0c-9.6-2.3-18.7-0.5-27.4,3.7c-4.8,2.3-9.4,4.1-14.8,2.6c-2.8-0.8-5.8-1.1-8.7-1.6
				c-4.6-0.9-9.2-1-13.6,1.2c-1.5,0.8-3,1.4-4.6,2C156.2,142.7,155.1,142.7,153.6,143z"/>
			<path d="M225.1,6.6c0,3.4-4.2,6.6-8.5,6.6c-2.9,0-5.6-3-5.5-6.2c0.1-2.9,4-6.9,6.7-7C221.5-0.1,225.1,3.3,225.1,6.6z M218.9,4
				c-2.5,0-2.9,1.6-4.1,2.5c-0.3,0.2-0.5,1-0.3,1.3c0.3,0.5,0.9,1.2,1.3,1.1c1.4-0.2,2.7-0.5,4-1.1c0.6-0.3,1.5-1.5,1.3-1.9
				C220.9,5.1,221.4,4,218.9,4z"/>
			<path d="M195.1,120c0,2.5-4,5.2-7.2,5c-2-0.1-4.6-3.5-4.5-6c0.1-2.5,3.2-4.9,6-4.8C192.3,114.3,195.1,117.2,195.1,120z
				 M191,121.1c-0.1-0.3,0.7-2.1-0.5-2.3s-3.5-1-3.5,1.7C187,123.1,189.9,121.3,191,121.1z"/>
			<path d="M205.5,21.9c-2.9,0.1-4.9,2.1-4.9,4.8c0,3.2,2.2,6.5,4.3,6.5c2.4,0,6.4-3.7,6.3-5.8C211,25.1,207.6,21.8,205.5,21.9z
				 M205.2,30c-1,0-1.9-1.5-1.9-2.9c0-1.2,0.9-2.1,2.2-2.2c0.9,0,2.5,1.5,2.5,2.5C208.1,28.4,206.3,30,205.2,30z"/>
		</g>
		<path class="st1" d="M153.6,143c0,6.6,4.4,16.1,8.5,19.4c5.5,4.5,12,7.5,18.8,9.7c6.6,2.2,13.4,2.3,20.2,1.6
			c19.5-3.6,25.8-27.6,27.5-35.8c0.3-1.6-0.6-3.2-2.2-3.5c0,0,0,0,0,0c-9.6-2.3-18.7-0.5-27.4,3.7c-4.8,2.3-9.4,4.1-14.8,2.6
			c-2.8-0.8-5.8-1.1-8.7-1.6c-4.6-0.9-9.2-1-13.6,1.2c-1.5,0.8-3,1.4-4.6,2C156.2,142.7,155.1,142.7,153.6,143z"/>
	</g>
	<g>
		<g>
			<path d="M457.5,81.2c0,7.4-1,80.4-2.1,88.7c-0.2,1.3-0.3,2.6-0.6,3.8c-1.2,4.6-5.2,5.9-10.3,4.5c-9.7-2.7-11.8-7.3-12.2-16.8
				c-0.4-8.7,0.2-17.5,0.3-26.3c0-4-0.4-8-0.4-12c-0.1-12.9-0.2-25.9-0.3-38.8c0-0.5-0.1-1-0.2-1.8c-2.2,0-4.3,0-6.4,0
				c-1.8,0-4-2.3-4.3-4.8c-0.5-3.7,1.7-7.4,5.4-9c1.2-0.5,2.5-0.9,3.7-1c10.9-0.6,21.9-1.2,32.8-1.7c4-0.2,7.2,2.3,8.5,6
				c1.1,3.3-0.3,6.4-3.7,7.3C464.4,80.2,461,80.6,457.5,81.2z M453.5,109c-4.3,0.7-8.1-0.1-10.7-2.2c-1.5-1.3-3.8-1.5-5.2-0.7
				c-1.9,1-1.5,2.8-1.5,4.4c0,7.1,0,14.2,0,21.2c0,2.3,0,4.6,0.1,6.9c0.1,8.8-0.6,17.5,0.6,26.3c0.6,4.7,2.8,7.9,7.4,9.4
				c3.4,1.1,6.3,1,8.2-2.5c1.8-3.5,0.7-8.9,1.2-14.5c0-0.2,0.1-3.6,0-3.8c-1.8,0.2-6.6,1.3-8.4,1.5c-1.7,0.2-2.4-1-2.6-2.3
				c-0.2-1.6,1.1-1.6,2.4-1.7c2.1-0.2,6.2-0.3,8.6-0.6c-0.4-1.7,0.3-3.6,0-4.9c-1.1,0.1-4.8,0.7-5.5,0.8c-0.8,0.1-1.5,0.2-2.3,0.2
				c-3,0.2-3.6-0.6-2.8-4c2.7-0.1,7.6-0.3,10.6-0.4c-0.2-1.5,0.1-2.9,0-4.3c-1.6,0.2-5.4,0.8-6.6,0.9c-1.1,0.1-2.3,0.4-3.4,0.4
				c-2.1-0.1-2.6-0.9-2.3-3.7c3.4-0.4,8.6-0.5,12.4-1c-0.1-2.2,0.1-5.2,0-7.5c-1.5,0.1-5,0.7-6.1,0.8c-2.6,0.2-5.1,0.4-7.7,0.9
				c-1.8,0.3-2.7-0.4-3-2.1c-0.2-1.5,0.5-2.1,2.8-2.2c0.5,0,1,0.2,1.5,0.1c3.4-0.4,9-1.4,12.4-1.8c0-2.1,0-3.1,0-5.1
				c-1.6,0.3-5.1,0.4-6.5,0.6c-3,0.4-3.1,0.2-3.6-3.5c2.6-0.5,7.3-0.7,10.1-1.3C453.6,112.4,453.2,110.1,453.5,109z M431.7,78.5
				c2.7,0,3.9,1.4,3.7,4.1c-0.1,1.4-0.4,2.8-0.3,4.2c0.2,3.9,0.4,7.7,0.7,11.6c0.1,1.4,0.2,2.7,0.3,3.8c2.5,0.3,5,0,6.5,1
				c3.7,3.5,6.6,3.5,10.8,2.5c0.2-1.4-0.2-2.7,0-4c0-0.1-3.4-0.2-4.7-0.1c-0.9,0.1-1.9,0.3-2.7,0c-1.4-0.4-2.2-1.4-1.9-2.9
				c0.3-1.4,1.2-1.7,2.6-1.6c1.8,0.2,4.9,0.2,6.7,0.1c0,0,0.2-1-0.2-2.4c-1.8,0-3.7,0.1-5.6,0c-2.7-0.1-3.1-0.8-2.7-3.9
				c2.9,0,5.8,0,8.9,0c0-4.5-0.9-12.3,0-13.7c0.9-1.5,4.8-0.4,6.5-0.7c2-0.3,8-0.8,8-3c0-2.2-1.2-3.7-4.8-3.7
				c-6.3,0.3-12.6,0.6-18.8,0.9c-3.6,0.2-16.4,0-18.8,1.5c-1.6,1-3.4,4.2-1.5,5.7C426.4,79.8,430.2,78.5,431.7,78.5z"/>
			<path d="M458.6,53.1c-0.1,2.9-2.1,5.4-4.3,5.4c-2.8,0-5.1-2.6-5.1-5.6c0-2.7,2.7-5.6,5.2-5.6C456.9,47.3,458.6,49.6,458.6,53.1z
				 M452.9,55.3c2.1,0.7,4.6-3.4,2.8-4.6C453.9,49.6,450.8,54.6,452.9,55.3z"/>
			<path d="M462.9,40.2c0-2.8,1.8-4.6,4.8-4.7c2.6-0.1,4.8,1.9,4.8,4.5c0,3-2.3,5.6-4.9,5.6C464.6,45.5,462.9,43.6,462.9,40.2z
				 M469.3,39.5c-2-2.4-5.1,1.2-3.4,3.1C467.7,44.4,471.3,41.9,469.3,39.5z"/>
		</g>
		<path class="st1" d="M453.5,109c-4.3,0.7-8.1-0.1-10.7-2.2c-1.5-1.3-3.8-1.5-5.2-0.7c-1.9,1-1.5,2.8-1.5,4.4c0,7.1,0,14.2,0,21.2
			c0,2.3,0,4.6,0.1,6.9c0.1,8.8-0.6,17.5,0.6,26.3c0.6,4.7,2.8,7.9,7.4,9.4c3.4,1.1,6.3,1,8.2-2.5c1.8-3.5,0.7-8.9,1.2-14.5
			c0-0.2,0.1-3.6,0-3.8c-1.8,0.2-6.6,1.3-8.4,1.5c-1.7,0.2-2.4-1-2.6-2.3c-0.2-1.6,1.1-1.6,2.4-1.7c2.1-0.2,6.2-0.3,8.6-0.6
			c-0.4-1.7,0.3-3.6,0-4.9c-1.1,0.1-4.8,0.7-5.5,0.8c-0.8,0.1-1.5,0.2-2.3,0.2c-3,0.2-3.6-0.6-2.8-4c2.7-0.1,7.6-0.3,10.6-0.4
			c-0.2-1.5,0.1-2.9,0-4.3c-1.6,0.2-5.4,0.8-6.6,0.9c-1.1,0.1-2.3,0.4-3.4,0.4c-2.1-0.1-2.6-0.9-2.3-3.7c3.4-0.4,8.6-0.5,12.4-1
			c-0.1-2.2,0.1-5.2,0-7.5c-1.5,0.1-5,0.7-6.1,0.8c-2.6,0.2-5.1,0.4-7.7,0.9c-1.8,0.3-2.7-0.4-3-2.1c-0.2-1.5,0.5-2.1,2.8-2.2
			c0.5,0,1,0.2,1.5,0.1c3.4-0.4,9-1.4,12.4-1.8c0-2.1,0-3.1,0-5.1c-1.6,0.3-5.1,0.4-6.5,0.6c-3,0.4-3.1,0.2-3.6-3.5
			c2.6-0.5,7.3-0.7,10.1-1.3C453.6,112.4,453.2,110.1,453.5,109z"/>
	</g>
	<g>
		<path class="st1" d="M92.9,163.9c-1.9-3.5-4.6-5.8-6.7-8.3c-4.9,0-9.4,0.5-13.7-0.1c-8.3-1.1-16.5-1.6-24.3,1.9
			c-5.2,2.3-10.1,2.4-15.2-0.2c-4.1-2.1-13-3.5-19,1.7c-3.8,3.1-6.9,6.9-9.3,11.2c-0.5,0.9-1.3,1.4-0.6,3.2
			c0.6,1.8,14.1,1.2,19.6,1.3c6.1,0.2,12.1,0.5,18.2,0.5c7.1,0,14.2-0.3,21.2-0.4c5-0.1,10.1-0.1,15.1-0.3c3.3-0.2,6.7-0.4,9.9-1.3
			C92.4,172,95.3,168.3,92.9,163.9z M62.6,164.2c-2.1-0.8,0.5-4.1,2.4-3.1C67,162.1,64.8,165,62.6,164.2z"/>
		<g>
			<path d="M38.7,83.2c-1.4,0.2-9,0.1-10.1-4.5c-0.8-3.4,1-6.1,4.5-6.6c2.6-0.3,5.1-0.4,7.7-0.6c6.9-0.5,13.9-1.1,20.8-1.3
				c2.7-0.1,5.6,0.6,8.2,1.5c2.6,0.9,3.8,4,3.4,6.8c-0.4,2.5-2,4.2-5,4.7c-2,0.4-4.1,0.4-6.1,0.6c-1.7,0.1-2.5,0.7-2.5,2.6
				c-0.1,4.5-0.4,9-0.6,13.5c-0.2,4.4-0.5,8.7-0.6,13.1c-0.1,3.7,0.3,7.5,0,11.2c-0.2,3.1,1,5.8,1.8,8.6c0.2,0.9,1.5,1.6,2.4,2.1
				c2.4,1.4,5.1,2.5,7.4,4.1c5.2,3.4,10.4,6.8,15.2,10.6c4.5,3.6,9,7.3,11.1,13.1c1,2.8,1.3,5.5,0.4,8.3c-0.5,1.7-1.6,2.5-3,3.6
				c-3.5,3-7.5,2.9-11.5,3.1c-8,0.5-16,0.5-24,0.8c-7.5,0.3-32.8-0.4-36.6-0.5c-5.1-0.1-10.3-0.1-15.4-0.4
				c-5.7-0.4-8.5-6.1-4.9-10.7c4.4-5.6,9.1-10.9,14.1-15.9c4.9-4.9,10-9.7,15.6-13.9c3.9-2.9,4.4-6.5,4.5-10.7
				c0.2-9.4,0.3-18.8,1.5-28.2C37.9,93.5,38.2,88.5,38.7,83.2z M41.6,80.4c1.8,1.2,0.7,4.4,0.5,6.7c-0.2,3.3-0.3,6.7-0.6,10
				c-0.4,4.5-1.3,8.9-1.5,13.4c-0.4,7.6-0.4,15.2-0.6,22.8c0,1.2,0.1,2.3-1.2,3.4c-5.1,4.3-15.5,14.1-16,14.8
				c4.2-0.4,7.8,0,11.2,1.8c4.7,2.6,9.4,2.1,14-0.3c0.5-0.2,1-0.3,1.5-0.5c4.9-1.6,10-2.4,15.2-2c4.9,0.4,9.7,1.1,14.6,1.6
				c0.8,0.1,1.6,0,2.4,0c-0.5-1.1-16.1-11.9-21-14.3c-1.4-0.7-2.9-2-3.5-3.4c-1.1-2.6-2.1-5.4-2.2-8.1c-0.3-5.9-0.1-11.9,0.1-17.8
				c0.4-9.1-0.3-26.1,1.5-27.8c1.8-1.7,6.2-0.6,9.3-0.9c1-0.1,2.1-0.2,3-0.7c0.7-0.4,1.6-1.4,1.5-2c-0.2-0.8,0-2.5-3.3-2.4
				c-3.9,0-7.7-0.2-11.6,0c-6.2,0.2-12.5,0.6-18.7,0.9c-2.9,0.1-4.4,2.3-3.3,3.5C34.1,80.2,39.8,79.1,41.6,80.4z M86.2,155.7
				c-4.9,0-9.4,0.5-13.7-0.1c-8.3-1.1-16.5-1.6-24.3,1.9c-5.2,2.3-10.1,2.4-15.2-0.2c-4.1-2.1-13-3.5-19,1.7
				c-3.8,3.1-6.9,6.9-9.3,11.2c-0.5,0.9-1.3,1.4-0.6,3.2c0.6,1.8,14.1,1.2,19.6,1.3c6.1,0.2,12.1,0.5,18.2,0.5
				c7.1,0,14.2-0.3,21.2-0.4c5-0.1,10.1-0.1,15.1-0.3c3.3-0.2,6.7-0.4,9.9-1.3c4.3-1.2,7.2-4.9,4.8-9.3
				C91,160.5,88.3,158.2,86.2,155.7z"/>
			<path d="M78.3,36c0.2-3.7,4.2-7.5,7.5-7.2c3.8,0.4,7.5,5.3,6.6,9c-0.3,1.1-1.4,2.2-2.4,2.7c-1.6,0.8-3.3,1.3-5.1,1.6
				C81,42.8,78.1,40.1,78.3,36z M81.8,38.2c1.8,1.4,3.6,0,5-0.9c0.8-0.5,1.7-1.5,1.7-2.2c0-0.7-1.1-1.5-1.9-2
				c-0.4-0.3-0.4-0.4-1.8-0.4S80.1,36.8,81.8,38.2z"/>
			<path d="M64.3,58.1C61,58,59.4,56.7,59,54.5c-0.4-2.3,0.6-3.8,3-4.7c3.7-1.4,6.5-0.6,7.8,2.3c0.6,1.3,0.8,2.7-0.5,3.5
				C67.5,56.7,65.5,57.5,64.3,58.1z M63,54.4c1.7,0.9,4.4-0.9,2.6-2C63.8,51.4,61.3,53.5,63,54.4z"/>
			<path d="M59.9,160.4c1.5-1.8,4.9-2.7,6.5-1.2c1.5,1.4,1.8,3.4,0.7,5.2c-1.2,2.1-3.2,3-5.1,2.4C59.9,166.2,58.4,162.2,59.9,160.4z
				 M62.6,164.2c2.1,0.8,4.3-2.1,2.4-3.1C63.1,160.1,60.5,163.4,62.6,164.2z"/>
		</g>
	</g>
	<g>
		<g>
			<path d="M283.7,97.2c0.3-5.5,0.7-11.1,1.1-16.6c0.5-5.5,1.1-11,1.6-16.5c0-0.1-0.6,4.6,0.1-0.4s6.6-11.9,14.6-13.5
				c7.2-1.4,22.6-2.5,25.9-2.5c12.4,0.1,24.2,4.3,29,7.1c8,4.7,16.8,7.8,25.3,11.5c2.9,1.3,6,2.4,8,5.2c1.9,2.7,1.7,4.6-0.9,6.7
				c-6.2,4.9-12.3,9.8-18.5,14.6c-2,1.6-4.1,3-6.1,4.7c-0.6,0.5-1.1,1.4-1.2,2.2c-0.8,7-1.4,14.1-2.2,21.1c-0.9,8.1-2,16.1-2.9,24.2
				c-0.6,5-0.9,10-1.3,15c-0.1,0.8-0.1,1.5-0.1,2.3c-0.3,4.9-3.3,8.1-7.1,10.5c-9.8,6.3-27.7,7.9-44.4,3.1
				c-6.2-1.8-11.7-4.7-16.7-8.6c-3.1-2.5-4.5-5.7-4.7-9.8C282.9,148.4,283.1,108.1,283.7,97.2z M298.7,134.6
				c-4.5,1.1-8.6-0.8-13-1.3c0.1,4.7-0.5,9,0,13.7c2.2,0.3,5.1,0.5,7.2,0.8c1.7,0.2,3.3,0.3,5,0.6c1.5,0.3,3.7,1.4,2.2,3.3
				c-1.1,1.4-9.1,0.3-13.7-1.1c0.2,3.4,0.4,6.7,0.7,9.9c0.1,0.8,0.6,1.7,1.2,2.3c1.1,1.1,2.3,2,3.6,2.9c11.6,7.6,24.5,10,38.1,9.4
				c7.1-0.3,13.2-3.3,18.9-7.3c2-1.4,3.1-3.3,3.4-5.8c0.5-5.1,1-10.3,1.5-15.4c0.6-5.6,1-11.3,1.7-16.9c0.9-6.5,2-12.9,3-19.5
				c-24.7,5.7-48.8,7.4-71.9-5.8c0,3,0,5.7,0,8.6c3.2,2.2,6.9,3.2,10.5,4.4c2.5,0.8,3.1,2.3,2,3.9s-8.6-2.9-13.2-3.5
				c0,3.6,0,6.9,0,10.3c3.3,2.4,7.1,2.5,10.8,3C299.1,131.6,299.1,132.7,298.7,134.6z M384.9,74.2c0.1-0.3,1.6-1.2-1.5-2.4
				c-4.8-1.8-9.4-4.2-14.1-6.2c-4.6-2-9.1-4-13.4-6.7c-8-5.1-17.2-6.6-26.5-7.2c-8.3-0.6-16.5,0.1-24.6,1.8c-3.9,0.8-8,1.8-10.4,5.4
				c-4.5,6.6-3.7,10.4,2.6,14c5.5,3.1,11.3,5.1,17.4,6.4c8.9,1.9,17.9,2.2,26.8-0.3c3.7-1,7.2-2.8,10.9-4c1.8-0.6,3.8-1.1,5.6-1
				c7.3,0.7,14.7,0.7,22,0.3C381.3,74.1,383.1,74.2,384.9,74.2z M381.2,78.8c-2.6,0-4.6,0-6.6,0c-3.9,0-7.8,0.5-11.6-0.2
				c-5.2-0.9-9.9,0-14.6,2.1c-4.6,2.1-9.3,3.8-14.4,3.8c-2.8,0-5.6-0.2-8.4,0.1c-4.2,0.4-8.2-0.2-12.2-1.2
				c-7.2-1.7-14.2-3.9-20.2-8.4c-1.3-0.9-2.4-2-4.1-3.4c-0.6,7.4-1.2,14.2-1.8,21.4c1.4-0.1,2.4-0.2,3.4-0.2
				c7.1-0.4,14.1-1.2,21.2-1.2c5.2,0,10.5,1,15.7,1.2c10.1,0.3,19.1,4,27.9,8.3c1.2,0.6,2.1,1.7,3.2,2.6c0.1,0.1,0.1,0.2,0.1,0.3
				c0-0.1,0.1-0.1,0.1-0.2c0.1-1.8,0.3-3.6,0.4-5.4c0.2-1.7,0.7-3.2,2.2-4.3c3.3-2.4,6.6-4.9,9.9-7.4
				C374.6,84.2,377.7,81.6,381.2,78.8z M356.2,107c0.5-2.7-10.3-6.3-14.5-7.9c-4.7-1.9-30.1-4.9-39.8-3.5c-4.3,0.3-13.5,1.3-14,3.1
				c-0.4,1.7,6.1,7.1,14.6,9.6C319.1,113.3,355.7,109.8,356.2,107z"/>
		</g>
		<path class="st1" d="M298.7,134.6c-4.5,1.1-8.6-0.8-13-1.3c0.1,4.7-0.5,9,0,13.7c2.2,0.3,5.1,0.5,7.2,0.8c1.7,0.2,3.3,0.3,5,0.6
			c1.5,0.3,3.7,1.4,2.2,3.3c-1.1,1.4-9.1,0.3-13.7-1.1c0.2,3.4,0.4,6.7,0.7,9.9c0.1,0.8,0.6,1.7,1.2,2.3c1.1,1.1,2.3,2,3.6,2.9
			c11.6,7.6,24.5,10,38.1,9.4c7.1-0.3,13.2-3.3,18.9-7.3c2-1.4,3.1-3.3,3.4-5.8c0.5-5.1,1-10.3,1.5-15.4c0.6-5.6,1-11.3,1.7-16.9
			c0.9-6.5,2-12.9,3-19.5c-24.7,5.7-48.8,7.4-71.9-5.8c0,3,0,5.7,0,8.6c3.2,2.2,6.9,3.2,10.5,4.4c2.5,0.8,3.1,2.3,2,3.9
			s-8.6-2.9-13.2-3.5c0,3.6,0,6.9,0,10.3c3.3,2.4,7.1,2.5,10.8,3C299.1,131.6,299.1,132.7,298.7,134.6z"/>
		<path class="st1" d="M356.2,107c0.5-2.7-10.3-6.3-14.5-7.9c-4.7-1.9-30.1-4.9-39.8-3.5c-4.3,0.3-13.5,1.3-14,3.1
			c-0.4,1.7,6.1,7.1,14.6,9.6C319.1,113.3,355.7,109.8,356.2,107z"/>
	</g>
</g>
</svg>
