<?xml version="1.0" encoding="utf-8"?>
<!-- Generator: Adobe Illustrator 19.1.0, SVG Export Plug-In . SVG Version: 6.00 Build 0)  -->
<svg version="1.1" id="Calque_1" xmlns="http://www.w3.org/2000/svg" xmlns:xlink="http://www.w3.org/1999/xlink" x="0px" y="0px"
	 viewBox="0 0 122.6 151" style="enable-background:new 0 0 122.6 151;" xml:space="preserve">
<style type="text/css">
	.st0{fill:#FFFFFF;}
	.st1{fill:#41AB87;}
	.st2{fill:#E2EFE8;}
	.st3{fill:#010202;}
	.st4{fill:#DB5556;}
	.st5{fill:#6FA4C3;}
	.st6{fill:none;stroke:#DB5556;stroke-width:7;stroke-miterlimit:10;}
	.st7{fill:none;}
	.st8{fill:#FFFFFF;stroke:#DB5556;stroke-width:3;stroke-miterlimit:10;}
	.st9{fill:none;stroke:#DB5556;stroke-width:3;stroke-miterlimit:10;}
	.st10{fill:#C1C0C0;}
	.st11{fill:none;stroke:#C1C0C0;stroke-width:3;stroke-miterlimit:10;}
	.st12{fill:#FFFCFA;}
	.st13{fill:#F5D1CA;}
</style>
<g>
	<g>
		<path d="M6.3,15.6c-0.7,0-1.2,0.1-1.7,0.1c-2.1,0-2.6-0.4-2.9-2.3c-0.3-1.5,0.5-2.6,2.2-3.1c2-0.6,4.1-1,6-1.6
			c2.8-0.9,5.7-1.8,7.9-3.9c0.5-0.4,1.1-0.7,1.7-1c3.4-1.5,3.5-1.5,6.9,2c-1,1.3-2,2.7-3,4.1c1.3,3.7,2.6,7.6,4,11.8
			c1.3-0.3,2.6-0.6,4-0.9c1.1-0.2,2.1-0.5,3.2-0.5c3.2-0.2,3.3-0.1,3.8,1.8c0.8,3,0.3,4.9-1.8,6c-1,0.5-2,1-3,1.4
			c-0.9,0.3-1.9,0.6-3.3,1c1,3.4,2,6.6,3,9.8c0.9,2.9,1.8,5.9,2.7,8.8c1,3,2,6.1,3.1,9.1c1.3,3.6,1,4.4-2.5,6.2
			c-0.3,0.2-0.6,0.2-0.9,0.4c-0.3,0.2-0.6,0.4-1,0.7c0.4,5.1,2.9,9.8,4.4,14.9c-0.6,0.6-1.3,1.3-2.3,2.3c-3.2-5-4.1-10.6-5.7-16
			c-2.7,0.6-5.3,1.2-8,1.7c-3.7-11.1-7.2-21.9-10.9-32.9c-1.8,0.6-3.5,1.3-5.3,1.8C3.7,38,2,37.2,1,34.1c-0.6-1.9-1.9-3.9,0-6
			c2.8,0.5,5.6,0.2,8.4-1.4c-0.5-1.9-1-3.8-1.5-5.6C7.4,19.3,6.9,17.5,6.3,15.6z M36.3,61.9c-3.8-10.5-5.8-20.8-9.9-30.5
			c-3.6,1.1-7,2.2-10.4,3.3c0.1,0.7,0.2,1.2,0.4,1.7c2.9,8.9,5.9,17.7,8.8,26.6c0.5,1.6,1.6,1.6,2.9,1.2
			C30.8,63.4,33.4,62.7,36.3,61.9z M19.7,10.4c-3.8,1.5-6.9,2.7-10.1,4c1.1,3.9,2.2,7.5,3.3,11.2c3.7-1.2,7.1-2.3,11-3.5
			C22.5,18.1,21.2,14.5,19.7,10.4z"/>
		<path class="st1" d="M36.3,61.9c-3.8-10.5-5.8-20.8-9.9-30.5c-3.6,1.1-7,2.2-10.4,3.3c0.1,0.7,0.2,1.2,0.4,1.7
			c2.9,8.9,5.9,17.7,8.8,26.6c0.5,1.6,1.6,1.6,2.9,1.2C30.8,63.4,33.4,62.7,36.3,61.9z"/>
	</g>
	<g>
		<path d="M47.9,151c-3.3-1.1-3.4-1.2-2.4-3.7c1.9-4.9,4-9.8,5.9-14.7c1.6-4.1,2.9-8.3,4.5-12.7c-1-0.4-2-0.8-3-1.2
			c-1.1-0.4-1.6-0.9-1.6-2.4c0-2.3,0.7-4.3,1.6-6.3c3.6-8.6,7.3-17.2,10.9-25.8c4.3-10,8.7-19.9,12.8-30c1.8-4.5,3.1-9.1,4.7-13.9
			C76,37.1,70.8,34,65.6,31c-1.4-0.8-2-1.9-1.6-3.6c0.1-0.5,0.3-1,0.5-1.6c1.5-4.9,2.1-5.3,6.9-3.2c3.8,1.7,7.4,3.8,11.1,5.7
			c0.9,0.5,1.7,1,2.9,1.6c4.4-6.3,6.7-13.5,9.9-20.8c-2.1-1.4-4-2.9-6-4c-3-1.6-3.1-2.2-0.7-5.2c4.2,1,7.9,2.9,11.4,5.3
			c6,4,12.2,7.9,18.2,11.9c0.8,0.5,1.6,1.1,2.5,1.6c2.2,1.5,2.2,1.5,1.5,4.8c-3.5,0.2-5.8-3.3-9.5-3.5c-3,6.3-6,12.8-9,19.3
			c1.7,2.4,4.2,3,6.5,4c3,1.4,6.1,2.6,9,4.1c3.3,1.6,3.8,3.5,2,6.7c-0.7,1.2-1.6,2.3-2.6,3.7c-5.9-2.5-11.7-4.9-17.8-7.4
			c-2.8,6.1-5.7,12.1-8.5,18.2c-2.9,6.3-5.5,12.7-8.5,19c-5.4,11.1-10.7,22.2-15.1,33.7c-1.2,3.2-3.4,4.1-6.6,2.7
			c-0.9-0.4-1.7-0.8-2.8-1.3C55.4,132,51.7,141.4,47.9,151z M84.6,41.7c-0.9,1.9-1.9,3.6-2.3,5.4c-0.8,4.2-2.5,8.2-4.2,12.1
			c-3.7,8.6-7.3,17.2-10.9,25.8c-3.4,8.1-7.1,16.1-10.4,24.2c-2.3,5.9-2.9,7,4.6,9.3c3.4,1.1,3.8,0.9,5.1-2.5
			c1.7-4.5,3.4-9.1,5.2-13.5c4-9.6,8-19.1,12.2-28.6c2.8-6.5,5.8-12.8,8.7-19.3c1-2.3,2-4.6,2.9-6.8C92.6,44.1,88.2,43.9,84.6,41.7z
			 M98.4,10.8C95.1,18,92.1,25,88.9,32.1c3.2,1.6,6.1,3.2,9.2,4.8c3.5-6.9,6.8-13.5,10.2-20.1C104.8,14.6,101.6,12.7,98.4,10.8z"/>
		<path class="st1" d="M84.6,41.7c-0.9,1.9-1.9,3.6-2.3,5.4c-0.8,4.2-2.5,8.2-4.2,12.1c-3.7,8.6-7.3,17.2-10.9,25.8
			c-3.4,8.1-7.1,16.1-10.4,24.2c-2.3,5.9-2.9,7,4.6,9.3c3.4,1.1,3.8,0.9,5.1-2.5c1.7-4.5,3.4-9.1,5.2-13.5c4-9.6,8-19.1,12.2-28.6
			c2.8-6.5,5.8-12.8,8.7-19.3c1-2.3,2-4.6,2.9-6.8C92.6,44.1,88.2,43.9,84.6,41.7z"/>
	</g>
</g>
</svg>
