<?xml version="1.0" encoding="utf-8"?>
<!-- Generator: Adobe Illustrator 19.1.0, SVG Export Plug-In . SVG Version: 6.00 Build 0)  -->
<svg version="1.1" id="Calque_1" xmlns="http://www.w3.org/2000/svg" xmlns:xlink="http://www.w3.org/1999/xlink" x="0px" y="0px"
	 viewBox="0 0 283.3 779.2" style="enable-background:new 0 0 283.3 779.2;" xml:space="preserve">
<style type="text/css">
	.st0{fill:#FFFFFF;}
	.st1{fill:#41AB87;}
	.st2{fill:#E2EFE8;}
	.st3{fill:#010202;}
	.st4{fill:#DB5556;}
	.st5{fill:#6FA4C3;}
	.st6{fill:none;stroke:#DB5556;stroke-width:7;stroke-miterlimit:10;}
	.st7{fill:none;}
	.st8{fill:#FFFFFF;stroke:#DB5556;stroke-width:3;stroke-miterlimit:10;}
	.st9{fill:none;stroke:#DB5556;stroke-width:3;stroke-miterlimit:10;}
	.st10{fill:#C1C0C0;}
	.st11{fill:none;stroke:#C1C0C0;stroke-width:3;stroke-miterlimit:10;}
	.st12{fill:#FFFCFA;}
	.st13{fill:#F5D1CA;}
</style>
<g>
	<g>
		<path class="st12" d="M150.4,125.6c9.5-0.1,18.5-0.2,27.5-0.4c11.7-0.3,23.4-0.7,35.1-1c3.6-0.1,7.2-0.1,10.8-0.1
			c10.2,0.2,20.3-0.5,30.4-1.2c4-0.3,8-0.5,12-0.7c1,0,2.1,0.1,3.1,0.3c3.4,0.5,3.5,0.9,4.3,4.3c2,9.2,1.5,18.5,2,27.8
			c0.4,7.5,1,15,1.1,22.4c0.2,8.3,0.1,16.7,0,25.1c-0.1,6.7-0.5,13.3-0.5,20c0,8,0.2,16.1,0.4,24.1c0.1,3.2-0.6,6.1-2.6,8.6
			c-0.5,0.6-1.3,1.1-2,1.2c-3.5,0.3-7,0.6-10.4,0.7c-7.4,0.1-14.8-0.1-22.2,0.1c-5.1,0.1-10.1,0.7-15.2,0.8
			c-3.3,0.1-6.5-0.1-9.8-0.3c-8-0.3-16-0.7-24-1c-0.8,0-1.7,0.2-2.5,0.2c-7,0.1-13.9,0.3-20.9,0.2c-4.1-0.1-8.2-0.6-12.3-1
			c-1.9-0.2-3.3-1.4-3.3-3.5c-0.1-3.2,0-6.3,0-9.5c-0.1-9.7,0-19.5-0.2-29.2c-0.3-11.2-0.9-22.4-1.2-33.6c-0.2-7,0.1-14,0.1-20.9
			c-0.1-9.7-0.3-19.4-0.4-29.2C149.8,128.5,150.2,127.2,150.4,125.6z"/>
		<path d="M150.4,125.6c9.5-0.1,18.5-0.2,27.5-0.4c11.7-0.3,23.4-0.7,35.1-1c3.6-0.1,7.2-0.1,10.8-0.1c10.2,0.2,20.3-0.5,30.4-1.2
			c4-0.3,8-0.5,12-0.7c1,0,2.1,0.1,3.1,0.3c3.4,0.5,3.5,0.9,4.3,4.3c2,9.2,1.5,18.5,2,27.8c0.4,7.5,1,15,1.1,22.4
			c0.2,8.3,0.1,16.7,0,25.1c-0.1,6.7-0.5,13.3-0.5,20c0,8,0.2,16.1,0.4,24.1c0.1,3.2-0.6,6.1-2.6,8.6c-0.5,0.6-1.3,1.1-2,1.2
			c-3.5,0.3-7,0.6-10.4,0.7c-7.4,0.1-14.8-0.1-22.2,0.1c-5.1,0.1-10.1,0.7-15.2,0.8c-3.3,0.1-6.5-0.1-9.8-0.3c-8-0.3-16-0.7-24-1
			c-0.8,0-1.7,0.2-2.5,0.2c-7,0.1-13.9,0.3-20.9,0.2c-4.1-0.1-8.2-0.6-12.3-1c-1.9-0.2-3.3-1.4-3.3-3.5c-0.1-3.2,0-6.3,0-9.5
			c-0.1-9.7,0-19.5-0.2-29.2c-0.3-11.2-0.9-22.4-1.2-33.6c-0.2-7,0.1-14,0.1-20.9c-0.1-9.7-0.3-19.4-0.4-29.2
			C149.8,128.5,150.2,127.2,150.4,125.6z M154.9,250.4c0.9,0.1,1.5,0.2,2.1,0.2c8.6,0.2,17.1,0.4,25.7,0.4c6.1,0,12.3-0.4,18.4-0.4
			c7.2,0,14.3,0.3,21.5,0.4c14.1,0.1,28.1,0.1,42.2,0.1c1.9,0,3.7-0.2,5.8-0.4c0.1-1.4,0.3-2.6,0.3-3.7c-0.2-5.7-0.4-11.4-0.6-17
			c-0.3-10.4-0.5-20.7-0.6-31.1c-0.1-6.6-0.1-13.1-0.2-19.7c-0.1-6.4-0.5-12.9-0.6-19.3c-0.2-9.4-0.3-18.8-0.6-28.2
			c0-1.8-0.4-3.5-0.7-5.4c-2.1,0-4-0.1-5.9,0c-5.9,0.4-11.8,0.9-17.7,1.1c-8,0.3-16,0.5-24,0.6c-15.1,0.3-30.2,0.5-45.4,0.7
			c-6.1,0.1-12.3,0.1-18.4,0.2c-1,0-2,0.2-2.9,0.3c0.1,5,0.3,9.7,0.4,14.3c0.1,3.9,0.1,7.8,0.2,11.7c0,0.5,0,1,0,1.6
			c-0.1,8.1-0.4,16.3-0.3,24.4c0.2,10.6,0.9,21.1,1.2,31.7c0.2,7.4,0.1,14.8,0.1,22.2C154.9,240.1,154.9,245,154.9,250.4z"/>
		<g>
			<path class="st4" d="M195.1,200.8c1.2-2.2,2.1-3.9,3.2-5.5c0.3-0.5,0.6-1.3,1.6-0.9c1,0.4,0.8,1.3,0.8,2c0,0.6-0.5,1.2-0.8,1.8
				c-0.7,1.4-1.5,2.9-2.2,4.3c3.2,2.4,6.6,3.1,10.2,3.6c9.5,1.3,16.6-2.7,22.3-9.7c2.5-3,2.8-6.8,2.9-10.4c-1.7-0.9-3.1-1.6-4.4-2.5
				c-0.4-0.3-0.8-1-0.4-1.8s1.3-0.4,1.8-0.2c0.9,0.3,3.3,1.9,3.4,1.8c-0.5-3.2-1.3-5.5-2.4-7.6c-2-4-4.7-7.4-8.7-9.8
				c-3.5-2.1-7.7-3.7-11.8-3c-3.8,0.6-7.4,1.2-10.8,2.9c-7.1,3.6-12.1,9.4-13.4,17.6c-0.4,2.8,0.6,5.4,2,8c1.1-1.2,1.8-3.1,2.9-3.1
				c1.1-0.1,2.5,1.8,0.9,3.6c-0.6,0.7-1.2,1.3-1.5,2.1c-0.2,0.6-0.2,1.6,0.2,2.1C192.1,197.7,193.5,199.1,195.1,200.8z"/>
			<path d="M250.5,175.8c0.7-0.6,3.4-2,4-1.8c1.4,0.5,1.5,1.8,0.2,2.6c-3,1.9-8.2,5.7-9.5,5.3c-1.3-0.4-1.5-2.1,2.1-4.5
				c0.6-0.2,0.5-0.7-1.1-1.5c-1.6-0.8-4.6-3.2-9.4-3.7c2,4.3,2.7,7.3,3.1,12.5c3,1.3,6.3,2.5,8.1,5.6c1.1-0.5,1.4-1,3-1.3
				c1.6-0.2,2,2.6-0.3,3.7c-1.8,0.9-3.6,1.8-5.5,2.6c-1.6,0.7-3.3,0.6-3.3-1c0-1.6,2.2-2,3.3-3.2c-1.1-1.9-3.4-3-5.3-3.4
				c-1.3,4.6-2.9,6.7-5.4,10.7c2.5,3,3.6,7.5,4.1,11.8c1.1,0.4,2.5,0.3,3.6,0.8c1,0.5,0.5,1.7-0.1,2.4s-4.5,0.8-6.7,1.1
				c-0.6,0.1-1.4,0-2-0.3c-0.5-0.3-1.2-1-1.2-1.4c0.1-0.6,0.6-1.4,1.2-1.7c0.6-0.4,1.4-0.4,2.3-0.6c-0.2-3.8-0.7-7.3-3.2-10.4
				c-4.4,4.1-9,7.4-14.9,8.7c-0.2,2.9-0.4,5.7-0.6,8.4c4.8,0,5.5,1.6,5.1,2.6c-0.4,1.1-6.3,1.3-9.6,0.9c-1.5-0.2-2.7-1.9-2.2-2.7
				c0.6-0.8,2.3-0.6,3.8-0.8c0.1-2.4,0.3-4.9,0.4-7.6c-6.6-0.1-12.8-0.5-18.3-4.2c-1.2,3.1-2.5,6-2.6,9.1c1.2,0.7,2.4,1.2,3.3,2
				c1.3,1.1,1,2.4-0.7,2.7c-0.9,0.2-2.1,0.1-3-0.3c-1.1-0.5-1.9-1.1-3.2-0.6c-0.5,0.2-1.5-0.3-2.1-0.7c-0.5-0.3-0.9-1.2-0.8-1.7
				c0.1-0.5,0.9-0.9,1.4-1.1c0.6-0.2,1.3-0.2,1.9-0.2c0.9-3.1,2.1-6.8,3-9.9c0.2-0.7,0-1.1-0.5-1.6c-1.5-1.7-3.2-3.2-5.1-5
				c-1.5,3.3-3,6.5-4.4,9.7c-0.3,0.6-0.3,1.6,0.1,2.1c0.3,0.3,2.3,0.6,2.6,1.3c0.3,0.7-0.2,2.3-1.1,2.6c-0.9,0.3-3.1-0.8-4.5-1.2
				c-1.1-0.4-2.2-0.8-3.1-1.5c-0.4-0.3-0.9-1.1-0.5-2c0.3-0.6,2.6-0.4,2.9-0.3c2.1-4.5,4.1-8.9,6.3-13.5c-1.5-4.7-3.6-8.8-1.9-15.5
				c-2.9,2-5,3.9-6.5,6.3c2.4,2,2.6,3.6,0.8,4.5c-1.8,0.8-5.2-3.7-6.5-6.9c-0.1-0.3-0.5-1.6,0.1-2c0.6-0.4,1.7-0.2,2,0.2
				c0.5,0.5,0.9,1.2,1.4,2c2.9-3.5,6.4-6.1,10-8.5c0.8-0.5,1.4-1.4,1.9-2.1c2.9-3.9,6.2-7.5,10.6-9.6c7.5-4.1,16.7-4.2,22.3-2.9
				c4.6,1,9.2,3.8,12.2,7.2c1,1.1,1.9,1.7,3.3,1.9C241.3,170,246,172.3,250.5,175.8z M195.1,200.8c1.2-2.2,2.1-3.9,3.2-5.5
				c0.3-0.5,0.6-1.3,1.6-0.9c1,0.4,0.8,1.3,0.8,2c0,0.6-0.5,1.2-0.8,1.8c-0.7,1.4-1.5,2.9-2.2,4.3c3.2,2.4,6.6,3.1,10.2,3.6
				c9.5,1.3,16.6-2.7,22.3-9.7c2.5-3,2.8-6.8,2.9-10.4c-1.7-0.9-3.1-1.6-4.4-2.5c-0.4-0.3-0.8-1-0.4-1.8s1.3-0.4,1.8-0.2
				c0.9,0.3,3.3,1.9,3.4,1.8c-0.5-3.2-1.3-5.5-2.4-7.6c-2-4-4.7-7.4-8.7-9.8c-3.5-2.1-7.7-3.7-11.8-3c-3.8,0.6-7.4,1.2-10.8,2.9
				c-7.1,3.6-12.1,9.4-13.4,17.6c-0.4,2.8,0.6,5.4,2,8c1.1-1.2,1.8-3.1,2.9-3.1c1.1-0.1,2.5,1.8,0.9,3.6c-0.6,0.7-1.2,1.3-1.5,2.1
				c-0.2,0.6-0.2,1.6,0.2,2.1C192.1,197.7,193.5,199.1,195.1,200.8z"/>
			<path d="M219,187.5c0,0.9-0.9,1.3-1.5,1.8c-0.8,0.6-1.7,0.3-2.3-0.5c-1.2-1.6-2.4-3.2-3.4-5c-0.3-0.6-0.2-1.7,0.1-2.4
				c0.6-1.6,1.3-1.7,2.4-0.5c1.4,1.6,2.6,3.3,3.9,4.9C218.5,186.4,219,186.7,219,187.5z"/>
			<path d="M203.3,181.2c1-0.5,1.7-0.7,2.4-0.4c1.5,0.8,1.6,2.2,0.2,3.1c-1.5,1-2.8,2-3.6,3.6c-0.4,0.6-0.8,1.5-2,1.3
				c-1.2-0.2-1.8-2.7-0.3-4.3C201.1,183.2,202.3,181.7,203.3,181.2z"/>
		</g>
	</g>
	<g>
		<path class="st12" d="M4.3,390.3c-0.1-2.1-0.3-4.2-0.3-6.4c0-3.1,0.2-6.2,0.1-9.3c-0.1-5.3-0.4-10.6-0.7-15.9
			c-0.2-3.6-0.3-7.2-0.6-10.8c-0.4-5.2-1.2-10.3-1.6-15.5c-0.8-10-1.7-19.9-1.2-29.9c0.2-4.5,0.4-9,0.5-13.4
			c0.2-7.9,0.3-15.8,0.4-23.6c0-1.7,0.6-2.3,2.6-2.5c2-0.2,4-0.3,6-0.4c4.6-0.3,9.2-0.7,13.7-1c1.7-0.1,3.4-0.1,5.1-0.1
			c8.4,0,16.8,0.1,25.2,0.1c8.7,0,17.4-0.1,26.1-0.2c4.4-0.1,8.8-0.5,13.2-0.6c6.4-0.1,12.8-0.1,19.1-0.1c2.4,0,4.8-0.2,7.2-0.4
			c2.7-0.2,5.4,1.6,5.8,4.3c0.4,2.3,0.5,4.8,0.6,7.1c0.1,5.8,0.2,11.6,0.1,17.4c-0.2,8.2-0.6,16.4-0.9,24.6
			c-0.3,8.4-0.7,16.8-0.9,25.2c-0.1,4.8-0.4,29.2-0.7,31.4c-0.6,4.5-1.4,9.1-2.1,13.6c-0.3,1.8-0.4,3.6-0.5,5.4
			c-0.1,1.2-0.7,2-1.9,1.9c-3.4-0.5-6.6,1-10,1.1c-3.8,0.1-7.6,0.8-11.3,0.8c-5.9,0-11.8-0.5-17.7-0.7c-2-0.1-4,0.1-6,0.2
			c-2.4,0.1-4.8,0.1-7.2,0.2c-9.2,0.1-18.4,0.3-27.6,0.3c-3.8,0-7.5-0.3-11.3-0.5c-3.9-0.3-7.8-0.7-11.6-1c-2.6-0.2-5.2-0.5-7.7-0.8
			C7.2,390.4,6.1,390.4,4.3,390.3z"/>
		<polygon class="st13" points="5.2,344.1 5.2,359.3 5.2,386.5 9.3,388.5 114.8,389.4 117.9,386.5 120,359.3 122.1,271.1 
			122.1,262.9 102.1,262.9 		"/>
		<path d="M4.3,390.3c-0.1-2.1-0.3-4.2-0.3-6.4c0-3.1,0.2-6.2,0.1-9.3c-0.1-5.3-0.4-10.6-0.7-15.9c-0.2-3.6-0.3-7.2-0.6-10.8
			c-0.4-5.2-1.2-10.3-1.6-15.5c-0.8-10-1.7-19.9-1.2-29.9c0.2-4.5,0.4-9,0.5-13.4c0.2-7.9,0.3-15.8,0.4-23.6c0-1.7,0.6-2.3,2.6-2.5
			c2-0.2,4-0.3,6-0.4c4.6-0.3,9.2-0.7,13.7-1c1.7-0.1,3.4-0.1,5.1-0.1c8.4,0,16.8,0.1,25.2,0.1c8.7,0,17.4-0.1,26.1-0.2
			c4.4-0.1,8.8-0.5,13.2-0.6c6.4-0.1,12.8-0.1,19.1-0.1c2.4,0,4.8-0.2,7.2-0.4c2.7-0.2,5.4,1.6,5.8,4.3c0.4,2.3,0.5,4.8,0.6,7.1
			c0.1,5.8,0.2,11.6,0.1,17.4c-0.2,8.2-0.6,16.4-0.9,24.6c-0.3,8.4-0.7,16.8-0.9,25.2c-0.1,4.8-0.4,29.2-0.7,31.4
			c-0.6,4.5-1.4,9.1-2.1,13.6c-0.3,1.8-0.4,3.6-0.5,5.4c-0.1,1.2-0.7,2-1.9,1.9c-3.4-0.5-6.6,1-10,1.1c-3.8,0.1-7.6,0.8-11.3,0.8
			c-5.9,0-11.8-0.5-17.7-0.7c-2-0.1-4,0.1-6,0.2c-2.4,0.1-4.8,0.1-7.2,0.2c-9.2,0.1-18.4,0.3-27.6,0.3c-3.8,0-7.5-0.3-11.3-0.5
			c-3.9-0.3-7.8-0.7-11.6-1c-2.6-0.2-5.2-0.5-7.7-0.8C7.2,390.4,6.1,390.4,4.3,390.3z M4.7,266.4c-0.2,1.1-0.4,2.3-0.5,3.4
			c-0.1,5-0.5,9.9-0.2,15c0.3,6.6-0.4,13.2-0.6,19.7c-0.1,3.7-0.3,7.4-0.1,11.1c0.2,5.3,0.7,10.6,1.1,15.8c0.2,2.4,0.2,4.8,0.5,7.2
			c0.7,5.6,1.5,11.3,1.6,17c0.1,7.3,0.6,14.6,1,21.9c0.1,2,0,5.1,0,7.4c1.2,0,2,0.1,2.9,0.1c1.7,0,3.4-0.1,5.1,0
			c4.3,0.3,8.6,0.9,12.9,0.9c8.5,0.1,17-0.3,25.5-0.2c13.2,0.1,26.4,0.6,39.6,0.8c5,0.1,10-0.1,15-0.3c2.2-0.1,4.1-0.1,6.6-0.8
			c1.5-2.9,1.1-5.7,1.2-8.5c0.2-5.4,0.3-10.8,0.5-16.2c0.4-10.2,0.9-20.4,1.1-30.6c0.1-5.3-0.5-10.6-0.4-15.9
			c0-4.3,0.6-8.6,0.8-12.9c0.4-8.3,0.7-16.6,1.1-24.9c0-0.9,0.3-1.8,0.4-2.7c0.3-3.2,0.5-6.3,0.3-9.5c-0.7-0.1-1.1-0.1-1.4-0.1
			c-7.3,0-14.6,0.1-21.9,0.1c-0.5,0-1,0-1.5,0c-8.8,0.2-17.5,0.4-26.3,0.6c-2,0-4-0.1-6-0.1c-8.5,0-17,0.2-25.5,0
			C26.5,264.5,15.7,265.1,4.7,266.4z"/>
		<path d="M46.8,312.1c0.8,1.1,1.4,2,2.1,3c3,4,6.1,8,9.1,12c0.7,1,1.6,2.1,0.3,3c-1.1,0.8-2-0.1-2.8-1.2c-3.1-4.2-6.3-8.3-9.4-12.5
			c-0.5-0.7-1.1-1.3-1.8-2.2c-1.7,1.5-3.3,2.9-4.8,4.3c-5.1,5-28.4,22.8-32.4,25.7c-1.7,1.2-1.7,1.1-3.8-0.9
			c3.8-3.1,23.8-18,27.6-21.3c3.7-3.2,7.3-6.6,11.1-10c-0.9-1.1-1.6-2.1-2.5-3.3c-0.8,0.8-1.5,1.4-2.1,2.1c-1.9,1.8-2.8,1.7-4.5-0.3
			c-0.4-0.4-0.7-0.9-1-1.4c-3.5-5.1-6.9-10.2-10.4-15.4c-0.2-0.2-0.4-0.4-0.7-0.7c-0.9,0.2-3.5,1.9-4.5,2.5
			c-1.1,0.7-1.9,0.1-2.4-0.8c-0.5-0.9,0.3-1.3,1-1.8c2.4-1.4,4.7-2.9,7.4-4.6c-1.5-2.2-3-5.5-4-6.1c-0.9-0.6-1.5,0.1-3.1,1.1
			c-1.5,0.9-2.2-0.7-1.8-2.1c0.4-1.4,8.2-7.2,10.6-8.4s3.8,0.8,2.8,1.7c-1,0.9-1.7,1.5-2.5,2.3c1.5,2.1,3,4.2,4.7,6.6
			c1.7-1.3,3.2-2.6,4.8-3.8c0.7-0.5,1.4-1,2.2-1.2c0.5-0.1,1.4,0.3,1.7,0.8c0.3,0.4,0.1,1.4-0.2,1.8c-1.2,1.3-2.5,2.4-3.9,3.6
			c1.9,2.8,3.8,5.6,5.7,8.4c2,2.9,4.1,5.8,6,8.8c0.6,0.9,0.5,1.7-0.7,2.4c-1,0.6-1.8,1.6-2.8,2.6c0.9,1,1.6,1.9,2.6,3
			c1.1-0.9,2.1-1.7,3.1-2.6c4.9-4,9.9-8,14.8-12.1c3.2-2.7,6.1-5.6,9.4-8.2c7.3-6,14.7-11.9,22.1-17.9c0.6-0.5,7.7-7,8.3-7.5
			c1-0.8,2-0.8,2.7,0.2c0.8,1,0.1,1.6-0.7,2.4c-3.3,3.5-13.3,11.1-16.9,14.2c-7.7,6.6-15.5,13.1-23.3,19.6
			c-5,4.2-10.1,8.3-15.2,12.5C48,310.9,47.4,311.5,46.8,312.1z M35.3,308.4c2-1.7,3.7-3.1,5.3-4.6c0.8-0.7,0.9-1.6,0.2-2.6
			c-3.4-5-6.6-9.9-10.1-15.1c-2.6,1.7-5,3.2-7.4,4.8C26.6,297.4,31,302.6,35.3,308.4z M26.2,285.1c-1.7-2.4-3.2-4.4-4.8-6.6
			c-0.7,0.5-1.2,0.9-1.6,1.2c1.6,2.5,3,4.5,4.5,6.7C24.9,286,25.5,285.6,26.2,285.1z"/>
		<g>
			<path class="st4" d="M73.5,364.7c7,0.9,11.9-0.8,13.8-1.6c2.7-1.1,5.6-3.1,7.4-5.5c2.2-2.9,3-6.3,4-9.6c1.4-4.7,0-9.8-1.7-14.1
				c-1.7-4.3-6.4-6.3-10.7-7.2c-2.2-0.5-10.5-0.1-17.3,4.4c-3.7,2.5-5.4,6-7,9.6c-1,2.4-1.4,5.2-1.4,7.8c-0.1,2.2,0.6,4.4,1.1,6.6
				c0.1,0.7,0.6,1.3,1.1,2.2c0.3-1.1,0.4-2,0.8-2.5c0.5-0.5,1.5-1.1,2.1-1c1,0.2,1,1.1,0.7,2.1c-0.3,1.1-0.3,2.3-0.6,3.4
				c-0.4,1.6,0.5,2.6,1.8,3.3c0.7,0.4,1.6,0.5,2.4,0.8c0.4-1.8-0.2-5.1,1.3-5.1c1.5,0,1.8,0.3,2.5,1.1
				C74.6,360.2,73.7,362.7,73.5,364.7z"/>
			<path d="M53.7,354.1c1.8-4.5,3.7-9,5.3-13.5c3.3-9.2,10-14,19.3-16.3c2.6-0.8,7.6-0.8,10.2-0.2c2.1,0.5,7.4,2.8,10.4,5.8
				c0.2,0.2,0.5,0.4,0.7,0.5c2,0.9,4,1.8,6.2,2.8c0.3-0.3,0.7-1,1.2-1.3c0.5-0.3,1.4-0.4,1.8-0.1c0.4,0.3,0.7,1.3,0.5,1.7
				c-0.9,1.7-1.9,3.4-3.1,4.9c-0.3,0.4-1.5,0.4-2.1,0.2c-0.3-0.1-0.5-1.1-0.5-1.7c0-0.3,0.3-0.6,0.6-1.1c-1-0.8-2-1.5-3.3-2.4
				c1.9,3.6,2.5,7.4,3.2,12c0.7,1.5,3.5,8.7,4,9.1c0.9,0.6,2.2-1.9,4,0c1.8,1.9-8.2,7.9-9.2,5.6c-1-2.3,1.8-1.7,2.6-3.3
				c-0.8-2.3-3.1-8.6-3.4-7.8c-2.2,4.8-3.4,7-3.6,8.5c-0.2,1.3,3,8.2,4.7,12.2c1-0.1,2.8-0.7,3,0.9c0.4,2.4-7,5.2-8.1,2.7
				c-0.7-1.7,1.3-2.6,1.7-3c-1-2.9-2.3-6.9-3.5-10.1c-2.8,3.6-5,5.2-8.4,6.4c0.6,1.5,1.3,3.1,1.9,4.7c2.7-0.5,3.6,0.1,3.7,1.4
				s-6.9,2.6-7.9,2.4s-2-1.6-0.4-2.5c0.3-0.3,0.8-0.4,1.3-0.6c-0.6-1.7-1.2-3.2-1.7-4.6c-3.9,0.4-7.6,0.7-11.4,1
				c-0.8,1.7-0.5,3.4,0.1,5.1c0.6,0,1.2-0.1,1.6,0.1c0.5,0.3,1.1,1,1.1,1.5c0,0.4-0.7,1.1-1.2,1.2c-1.5,0.2-7.8,0.4-8-1.5
				c-0.2-1.9,2.4-1.3,3.1-1.7c-0.1-2.2-0.3-4.3-0.4-6.5c-1.4-0.7-3.4-1.7-4.9-2.4c-0.7,1.3-0.6,2.9,1.2,3.9c1,0.5,1.7,2.2,0.6,2.7
				s-6.6-0.8-6.9-3c-0.2-1.2,1.1-0.8,1.8-1.5c0.6-0.6,0.6-2.2,0.5-3.1c-0.1-0.7-0.2-1.6-0.6-2.1c-1.8-2.5-3.4-5.2-3.9-8.3
				c0-0.2,0.1-1.3-0.2-1.8c-0.8,2.1-2.4,4.6-0.9,6.6c0.2,0.3,1.1,1.4,0.7,2.2c-0.4,0.8-0.9,0.3-2.5-0.7s-2.9-1.8-4.2-2.8
				c-1.3-1-1.4-1.8-1.3-2.3C50.2,353.1,52.6,353.9,53.7,354.1z M73.5,364.7c7,0.9,11.9-0.8,13.8-1.6c2.7-1.1,5.6-3.1,7.4-5.5
				c2.2-2.9,3-6.3,4-9.6c1.4-4.7,0-9.8-1.7-14.1c-1.7-4.3-6.4-6.3-10.7-7.2c-2.2-0.5-10.5-0.1-17.3,4.4c-3.7,2.5-5.4,6-7,9.6
				c-1,2.4-1.4,5.2-1.4,7.8c-0.1,2.2,0.6,4.4,1.1,6.6c0.1,0.7,0.6,1.3,1.1,2.2c0.3-1.1,0.4-2,0.8-2.5c0.5-0.5,1.5-1.1,2.1-1
				c1,0.2,1,1.1,0.7,2.1c-0.3,1.1-0.3,2.3-0.6,3.4c-0.4,1.6,0.5,2.6,1.8,3.3c0.7,0.4,1.6,0.5,2.4,0.8c0.4-1.8-0.2-5.1,1.3-5.1
				c1.5,0,1.8,0.3,2.5,1.1C74.6,360.2,73.7,362.7,73.5,364.7z"/>
			<path d="M81.3,340.7c0.7-1.2,3.5,0.2,4.7,1.4c0.8,0.8,1.8,1.4,2.7,2.1c1.7,1.3,1.4,3.2,0.3,3.7s-5.1-2.7-7.2-4.8
				C81.3,342.6,80.5,341.9,81.3,340.7z"/>
			<path d="M77.6,343.7c0,1.3-2,3.7-3.2,5.3c-0.3,0.4-1.6,0.5-2,0.2c-0.5-0.3-0.8-1.4-0.7-1.9c0.5-1.6,1.3-3.2,2.1-4.7
				c0.5-1.1,1.5-0.9,2.2-0.6C76.6,342.2,77.6,342.4,77.6,343.7z"/>
		</g>
		<path d="M36.9,299.4c0,1.7-1.4,2.8-3.6,2.9c-2,0.1-3-0.7-3-2.2c0-1.9,1.8-4,3.4-4.1C35.4,295.9,36.9,297.5,36.9,299.4z
			 M32.7,300.3c0.4,0.4,2.2,0.2,2.2-0.7s-0.6-1.7-1.5-1.7C32.5,297.9,31.9,299.6,32.7,300.3z"/>
		<path class="st4" d="M32.7,300.3c0.4,0.4,2.2,0.2,2.2-0.7s-0.6-1.7-1.5-1.7C32.5,297.9,31.9,299.6,32.7,300.3z"/>
	</g>
	<g>
		<path class="st13" d="M144.3,486.6c0-1.8,0.1-3.7,0.1-5.5c0-5.9-0.2-11.8-0.1-17.7c0.1-5.1,0.4-10.3,0.5-15.4
			c0.1-6,0.1-11.9,0.1-17.9c0-5.9,0-11.8,0.2-17.7c0.2-4.7,0.9-9.5,1-14.2c0.1-3.8-0.1-7.5-0.2-11.3c0-1.3-0.1-2.5,0.1-3.8
			c0.3-1.8,1-2.4,2.9-2.3c4.9,0.1,9.8,0.4,14.7,0.3c4.2-0.1,21-0.2,23.3-0.3c4-0.1,7.9-0.5,11.9-0.7c0.5,0,1-0.1,1.4-0.1
			c7.5,0.7,14.9-1,22.3-1c5.6,0,11.2-0.9,16.8-0.5c5.4,0.4,10.8-0.1,16.2-0.2c1,0,1.9,0,2.9,0c5.2,0.2,10.4,0.4,15.6,0.6
			c0.7,0,5.5-0.1,7.2,1.3c1.8,1.5,1.7,4.7,1.7,7c0,8.6-0.3,17.2-0.3,25.8c0,5.2,0.5,10.4,0.5,15.7c0,5.3-0.1,10.6-0.3,15.9
			c-0.2,6.5-0.5,13-0.8,19.4c-0.4,6.9-0.9,13.9-1.3,20.8c-0.2,3.3,0.1,6.6-0.2,9.9c-0.3,3.5-0.8,6.9-1.5,10.3
			c-0.4,2.3-1.7,4.1-4.4,4.3c-2.1,0.2-4.2,0.4-6.3,0.6c-5,0.5-10,1-15,1.3c-4.5,0.3-9,0.2-13.6,0.3c-3.5,0.1-7,0.1-10.4,0.3
			c-5.5,0.2-11,0.4-16.5,0.7c-6.3,0.3-12.6,0.7-18.8,0.9c-4.8,0.2-9.7,0.5-14.5,0.4c-9.9-0.2-19.7-0.6-29.6-0.9
			c-0.5,0-1-0.1-1.4-0.1c-3.3-0.4-2.8-0.6-4.2-3.6c-1.9-4.2-0.7-8.3-0.5-12.5C144.1,493.4,144.2,486.7,144.3,486.6z"/>
		<path class="st4" d="M222.2,461.4c0.9,3,2.5,5.1,4.7,7.3c0.5-1.1,0.8-1.9,1.2-2.8c0.5-1.1,0.9-2.5,2.6-1.9
			c1.2,0.4,1.4,1.7,0.6,3.4c-0.5,1.2-1,2.4-1.5,3.9c1.4,0.5,2.4,0.8,3.5,1.2c1.1,0.4,2.2,0.9,3,1.2c0.8-1.2,1.2-2.8,1.9-2.9
			c1.7-0.3,1.6,1.5,2,2.6c0.1,0.2,0.3,0.3,0.4,0.3c3.4,0.8,6.7-0.3,9.4-1.8c3.6-2,7.5-4.6,9-8.6c1.4-3.6,1.4-7.6,0.3-11.6
			c-0.5-1.7-4.5-8.7-8.8-10.7c-2.9-1.4-9-4.5-15.9-2.6c-3.6,0.9-6.1,3.4-8.3,6.3c-2.8,3.5-4.1,7.6-4.8,12c1.8,0.2,3,0.8,3.1,2.7
			C224,460.1,223.2,460.7,222.2,461.4z"/>
		<path class="st1" d="M176.7,406.4c-2.6,0-3.1,6.5-2.4,9c1.5,5.7,3.3,11.4,4.8,17.1c0.5,2.1,1.7,3.6,3.5,4.3c3.3,1.3,4,3.9,4.2,7
			c0.3,3.6,3.5,37.2,4.7,37.2s1.5-2.4,1.4-4.8c-0.5-8.1-1-16.2-1.6-24.3c-0.2-2.5-0.7-4.9-0.9-7.4c-0.3-4.3-0.4-8.5,2.7-12.1
			c1-1.1,1.4-2.8,1.9-4.2c2.1-6.1,1.3-12.1-0.2-18.2c-0.3-1.4-0.6-4.8-2.3-4.8c-2.7,0-2,8.2-2.2,10.5c-0.2,2.5-1.2,4.6-3.4,5.9
			c-1.5,0.9-3,0.6-3.6-1c-1-2.6-2.1-5.2-2.6-7.9C180.4,410.7,178.3,406.4,176.7,406.4z"/>
		<path d="M144.3,486.6c0-1.8,0.1-3.7,0.1-5.5c0-5.9-0.2-11.8-0.1-17.7c0.1-5.1,0.4-10.3,0.5-15.4c0.1-6,0.1-11.9,0.1-17.9
			c0-5.9,0-11.8,0.2-17.7c0.2-4.7,0.9-9.5,1-14.2c0.1-3.8-0.1-7.5-0.2-11.3c0-1.3-0.1-2.5,0.1-3.8c0.3-1.8,1-2.4,2.9-2.3
			c4.9,0.1,9.8,0.4,14.7,0.3c4.2-0.1,21-0.2,23.3-0.3c4-0.1,7.9-0.5,11.9-0.7c0.5,0,1-0.1,1.4-0.1c7.5,0.7,14.9-1,22.3-1
			c5.6,0,11.2-0.9,16.8-0.5c5.4,0.4,10.8-0.1,16.2-0.2c1,0,1.9,0,2.9,0c5.2,0.2,10.4,0.4,15.6,0.6c0.7,0,5.5-0.1,7.2,1.3
			c1.8,1.5,1.7,4.7,1.7,7c0,8.6-0.3,17.2-0.3,25.8c0,5.2,0.5,10.4,0.5,15.7c0,5.3-0.1,10.6-0.3,15.9c-0.2,6.5-0.5,13-0.8,19.4
			c-0.4,6.9-0.9,13.9-1.3,20.8c-0.2,3.3,0.1,6.6-0.2,9.9c-0.3,3.5-0.8,6.9-1.5,10.3c-0.4,2.3-1.7,4.1-4.4,4.3
			c-2.1,0.2-4.2,0.4-6.3,0.6c-5,0.5-10,1-15,1.3c-4.5,0.3-9,0.2-13.6,0.3c-3.5,0.1-7,0.1-10.4,0.3c-5.5,0.2-11,0.4-16.5,0.7
			c-6.3,0.3-12.6,0.7-18.8,0.9c-4.8,0.2-9.7,0.5-14.5,0.4c-9.9-0.2-19.7-0.6-29.6-0.9c-0.5,0-1-0.1-1.4-0.1
			c-3.3-0.4-2.8-0.6-4.2-3.6c-1.9-4.2-0.7-8.3-0.5-12.5C144.1,493.4,144.2,486.7,144.3,486.6z M185.6,384.5
			c-11.7-0.1-23.5,0.7-35-0.9c-1,1-0.9,7.3-1,8.2c-0.3,5.7-0.6,11.4-0.9,17.1c-0.2,3.5-0.2,6.9-0.1,10.4c0.1,4.5-0.3,9-0.3,13.5
			c0,4.7,0.3,9.5,0.2,14.2c-0.1,4.8-0.5,9.7-0.7,14.5c-0.1,2.2-0.2,4.5-0.2,6.7c0,6.4,0,12.8,0,19.2c0,1.7-1.1,16.5-0.2,20.5
			c1,0.1,1.9,0.2,2.7,0.3c1.1,0,2.1,0,3.2-0.1c9.5-0.9,18.9-1.2,28.4-0.7c2.2,0.1,4.4,0,6.7-0.1c5.1-0.1,31.6-0.6,36.9-0.5
			c2.6,0.1,5.2-0.4,7.9-0.4c4.1,0,8.2-0.7,12.3-0.8c6.9-0.2,13.7-0.1,20.6-0.2c2.1,0,7.8-2.1,8.1-1.4c0.5-1.1,0.7-2.1,0.8-3.2
			c0.2-7.2,0.5-14.5,0.6-21.7c0-0.2,0.5-3.1,0.2-4.6c-0.3-1.9-0.3-3.9-0.3-5.8c0.1-6.4,0.2-12.9,0.4-19.3c0-0.8,0-1.6-0.1-2.3
			c-0.6-2.7,2.6-57.9,0.7-63.7c-0.8,0-1.5,0.1-2.3,0.1c-7.8-0.5-15.6-1.2-23.4-1.5c-5.5-0.2-11,0.1-16.5,0.2c-0.4,0-0.8,0-1.2,0
			c-5.1,0.4-26.7,1.5-27.2,1.5c-4.8,0.1-9.6,0.4-14.5,0.6C189.6,384.2,187.6,384.4,185.6,384.5L185.6,384.5z"/>
		<path d="M182.7,441.6c-1.4,3.7-2.8,7.5-4.3,11.4c0.5,0.4,1.3,0.9,1.9,1.6c3.5,3.5,4,7.5,1.8,12.5c-1.9,4.1-5,6.8-9.5,7.8
			c-4.6,1.1-9.5-1-11.9-5.1c-0.7-1.2-1.4-2.5-1.8-3.9c-1.2-4-0.2-6.8,3-10.2s7.9-5.3,13.7-4.2c1.2-3.6,2.4-7.2,3.5-10.7
			c0.4-1.2,0.2-2.1-0.8-3c-0.9-0.8-1.6-1.9-2.1-3c-0.9-2.2-1.7-4.5-2.4-6.7c-1-3.6-1.8-7.3-2.7-10.9c-1-4-0.5-7.9,1.4-11.3
			c1.5-2.7,4.7-3,7.3-1.3c2.3,1.5,3.7,3.5,4.3,6.2c0.4,2,1.2,5,1.5,6c0.3,1,0.6,1.2,0.8,0c0.2-1.2,0.5-2.4,0.7-3.6
			c0.4-2.9-0.1-6.3,1.5-8.8c1-1.5,2.6-2.8,4.6-2.6c2.1,0.2,3.9,1.6,4.6,3.7c0.9,2.8,1.7,5.8,2.2,8.7c0.9,6.1,0.3,12-1.6,17.8
			c-0.4,1.3-1.1,2.5-1.8,4.1c1.8,2,3.7,4.2,5.7,6.5c0.2-0.1,0.3-0.1,0.5-0.2c-0.2-0.5-0.3-1.1-0.6-1.5c-2-2.3-2-2.6,0.5-4.6
			c0.7-0.5,1.2-1.2,1.8-1.7c0.4-0.3,1-0.7,1.3-0.6c2.2,1.1,2.9-0.6,4-1.9c4-4.8,8-9.6,11.9-14.4c1-1.2,1.7-2.8,2.9-3.8
			c1.2-1,2.8-1.4,4.2-2c0.8-0.4,1.5-0.8,2.2-1.1c1.7-0.7,3.3,0.4,2.9,2.2c0,2.8-1.3,8.1-0.8,6.7c0.5-1.4-0.7,1.5-1.2,2
			c-3.8,3.9-7.7,7.6-11.5,11.5c-1.9,2-3.7,4.2-5.7,6.5c1.5,1.5,0.7,3.1-0.3,4.6c-0.4,0.6-1.1,1-1.4,1.6c-0.9,1.8-2.2,2.1-4.1,1.1
			c0.4,0.6,0.9,1.2,1.3,1.8c1.2,1.8,1.1,2.2-0.3,3.7c-1.2,1.2-2.8,1.5-4.1,0.5c-0.6-0.5-1.1-1.2-1.7-2c-0.7,0.5-1.2,0.8-1.7,1.1
			c-1.2,1.1-5.9-1.5-5.3-3.3c0.3-1.1,1.4-2,2.1-3c0.3-0.4,0.6-0.8,1-1.4c-1.6-1.4-3.2-2.7-4.8-4c0,2.8-0.1,5.9,0,9
			c0.4,7.6,1,15.1,1.5,22.7c0.2,3.6,0.3,7.3-1.3,10.7c-1.1,2.5-5.1,2.9-6.7,0.6c-0.7-1-1.3-2.2-1.5-3.4c-1.1-7-2.2-13.9-3.2-20.9
			c-0.5-4.1-0.7-8.2-1-12.4c-0.1-1.7-0.1-3.4-0.1-5.1C183.1,441.6,182.9,441.6,182.7,441.6z M176.7,406.4c-2.6,0-3.1,6.5-2.4,9
			c1.5,5.7,3.3,11.4,4.8,17.1c0.5,2.1,1.7,3.6,3.5,4.3c3.3,1.3,4,3.9,4.2,7c0.3,3.6,3.5,37.2,4.7,37.2s1.5-2.4,1.4-4.8
			c-0.5-8.1-1-16.2-1.6-24.3c-0.2-2.5-0.7-4.9-0.9-7.4c-0.3-4.3-0.4-8.5,2.7-12.1c1-1.1,1.4-2.8,1.9-4.2c2.1-6.1,1.3-12.1-0.2-18.2
			c-0.3-1.4-0.6-4.8-2.3-4.8c-2.7,0-2,8.2-2.2,10.5c-0.2,2.5-1.2,4.6-3.4,5.9c-1.5,0.9-3,0.6-3.6-1c-1-2.6-2.1-5.2-2.6-7.9
			C180.4,410.7,178.3,406.4,176.7,406.4z M229.9,415.3c-3.1,1-5.3,2.5-7,4.7c-4.1,5.4-8.3,10.8-12.6,16.3c0.4,0.3,0.8,0.7,1.4,1.1
			c1.8-1.8,3.5-3.6,5.2-5.3c3.7-3.8,7.4-7.5,11.1-11.3C229.5,419.4,230.1,417.6,229.9,415.3z M173.5,454.9
			c-4.7-0.9-7.7,0.6-10.1,4.2c-2.4,3.6-1.3,7.1,0.4,9.5C167.1,463.9,170.3,459.4,173.5,454.9z M169.7,471.5c4-0.2,7.5-1.7,9-4.7
			s2.3-5.8-0.2-9C175.6,462.5,172.8,466.8,169.7,471.5z M211.2,441.5c-1.5-1.3-3-2.6-4.5-3.8c-0.9-0.7-1.4-0.1-1.6,0.3
			c1.3,1.5,2.4,2.9,3.6,4.2C209.5,443,210.4,443.4,211.2,441.5z"/>
		<path d="M256.6,479.9c0.4-0.9,1.7-0.5,2.9-0.9c-0.3-2.3-0.5-4.6-0.8-7.1c-2.1,1.2-4,2.2-5.9,3.4c-0.5,0.3-1.1,1.1-1.1,1.7
			c-0.1,2.1-0.1,4.3-0.1,6.6c1,0.5,2.1,0.3,2.8,1.3c0.7,1-1.9,2.4-3.7,2.2c-1-0.1-2.1-0.2-3.1-0.3c-2-0.2-3-2.1-2.5-3.2
			s1.8-0.2,3.1-0.3c0.1-1.9,0.2-3.9,0.4-6.1c-2.9,1.1-5.4,1.2-8.5,0.6c-1,2.4-1.9,4.8-3,7.2c0.6,0.4,2.3,0.9,2,2.5s-4.5-0.1-6.6-0.7
			c-1.6-0.4-2.6-2.1-2.1-3c0.5-1,2.2-0.1,3.3-0.1c0.9-1.9,1.9-3.9,2.9-6.1c-3.5-0.4-5.7-1.6-8.4-3.4c-1.1,1.9-2.2,3.9-3.3,5.7
			c1,1.3,3.8,2.4,3.1,4.1c-0.7,1.7-6.6-0.9-8.5-1.3c-1.4-0.3-2.1-1.3-1.9-2.4c0.2-1.4,1.4-1.2,2.5-0.9c0.2,0.1,0.4,0,0.9-0.1
			c1.4-2.3,2.9-4.8,4.3-7c-2.8-2.1-4.5-3.8-5.7-7.6c-0.7,1.7-1.5,3.3-2.2,5c0.9,0.7,1.7,1.1,2.3,1.8c0.3,0.4,0.3,1.2,0.1,1.7
			c-0.1,0.3-0.9,0.6-1.3,0.5c-2.8-0.7-5.3-1.9-7.1-4.3c-0.5-0.7-1.5-2.7-0.9-3.6c0.6-0.8,2.8,1,4,1.5c1-1.7,2.2-3.8,3.3-5.9
			c0.4-0.8,0.5-1.8,0.4-2.7c-0.2-5.4,1.6-10.2,4.4-14.7c1.8-2.9,4-5.3,6.9-7.1c5.1-3.2,10.5-3.3,16.2-2c4.8,1.2,10.4,5.1,12.5,7
			c3,2.8,6.2,10.6,6.5,12.3c1.1,4.6-0.2,9.4-2.1,13.1c-0.2,0.3-0.5,0.5-0.5,0.7c0.3,3.6,0.5,7.2,0.9,10.8c0,0.2,0.8,0.3,1,0.6
			c0.3,0.4,0.8,1,0.7,1.4c-0.1,0.5-0.7,1.1-1.2,1.2c-1.4,0.3-2.9,0.5-4.3,0.6C257.3,482.8,256.2,480.8,256.6,479.9z M222.2,461.4
			c0.9,3,2.5,5.1,4.7,7.3c0.5-1.1,0.8-1.9,1.2-2.8c0.5-1.1,0.9-2.5,2.6-1.9c1.2,0.4,1.4,1.7,0.6,3.4c-0.5,1.2-1,2.4-1.5,3.9
			c1.4,0.5,2.4,0.8,3.5,1.2c1.1,0.4,2.2,0.9,3,1.2c0.8-1.2,1.2-2.8,1.9-2.9c1.7-0.3,1.6,1.5,2,2.6c0.1,0.2,0.3,0.3,0.4,0.3
			c3.4,0.8,6.7-0.3,9.4-1.8c3.6-2,7.5-4.6,9-8.6c1.4-3.6,1.4-7.6,0.3-11.6c-0.5-1.7-4.5-8.7-8.8-10.7c-2.9-1.4-9-4.5-15.9-2.6
			c-3.6,0.9-6.1,3.4-8.3,6.3c-2.8,3.5-4.1,7.6-4.8,12c1.8,0.2,3,0.8,3.1,2.7C224,460.1,223.2,460.7,222.2,461.4z"/>
		<path d="M184.8,432c-1.7,0-2.6-2.4-1.8-3.4c0.7-1,2.1-1.1,3-0.2C186.9,429.3,186.4,432,184.8,432z"/>
		<path d="M190.8,427.7c0.9,0.8,0.9,0.8,1,1.5c0.1,1.1-1.2,2.3-2.2,2.2c-1-0.1-2.2-1.5-1.9-2.4C188.1,427.6,189.9,426.9,190.8,427.7
			z"/>
		<path d="M242.4,452.9c-0.4,1.1-5,3.4-7.4,4.8c-1.1,0.7-2.8-1.2-2.8-2.4c0-1.2,6.7-5.4,8-5.4S242.7,451.8,242.4,452.9z"/>
		<path d="M245.2,452.3c1.1,0,1.8,0.6,2.4,2.3c0.7,1.7,2.5,5.3,2.5,6.4c0,1-1.6,1.6-2.3,1.6s-1.1-0.2-1.6-0.5
			c-0.4-0.3-0.8-0.7-1-1.2c-0.6-2.1-1.1-4.2-1.5-6.3C243.7,454.1,244.2,452.3,245.2,452.3z"/>
		<path class="st1" d="M211.2,441.5c-1.5-1.3-3-2.6-4.5-3.8c-0.9-0.7-1.4-0.1-1.6,0.3c1.3,1.5,2.4,2.9,3.6,4.2
			C209.5,443,210.4,443.4,211.2,441.5z"/>
		<path class="st10" d="M229.9,415.3c-3.1,1-5.3,2.5-7,4.7c-4.1,5.4-8.3,10.8-12.6,16.3c0.4,0.3,0.8,0.7,1.4,1.1
			c1.8-1.8,3.5-3.6,5.2-5.3c3.7-3.8,7.4-7.5,11.1-11.3C229.5,419.4,230.1,417.6,229.9,415.3z"/>
		<path class="st4" d="M173.5,454.9c-4.7-0.9-7.7,0.6-10.1,4.2c-2.4,3.6-1.3,7.1,0.4,9.5C167.1,463.9,170.3,459.4,173.5,454.9z"/>
		<path class="st4" d="M169.7,471.5c4-0.2,7.5-1.7,9-4.7s2.3-5.8-0.2-9C175.6,462.5,172.8,466.8,169.7,471.5z"/>
	</g>
	<g>
		<path class="st13" d="M10.8,638.2c-0.2-2-0.4-4.1-0.5-6.2c-0.1-3,0-6-0.2-9c-0.3-5.1-0.8-10.2-1.2-15.3c-0.3-3.5-0.5-6.9-0.9-10.4
			c-0.6-5-2-34.1-1.8-43.9c0.1-4.3,0.1-8.7,0-13c-0.1-7.6-0.3-17.7-0.5-25.3c0-1.6,0.5-2.3,2.4-2.5c1.9-0.3,3.8-0.4,5.8-0.6
			c4.4-0.5,8.8-1,13.3-1.4c1.6-0.2,3.3-0.2,4.9-0.3c8.1-0.3,58.1-0.3,62.3-0.5c6.2-0.3,12.3-0.5,18.5-0.8c2.3-0.1,4.6-0.4,6.9-0.6
			c2.6-0.3,5.2,1.3,5.8,3.9c0.5,2.3,0.7,4.6,0.8,6.9c0.3,5.6,0.6,11.2,0.7,16.8c0.1,7.9,0,15.9,0,23.8c0,8.1-0.1,16.3,0,24.4
			c0.1,4.6,0.7,28.3,0.5,30.4c-0.4,4.4-1.1,8.8-1.6,13.2c-0.2,1.7-0.2,3.5-0.3,5.2c0,1.2-0.7,2-1.8,1.9c-3.3-0.3-6.4,1.2-9.6,1.4
			c-3.7,0.2-7.3,1.1-10.9,1.2c-5.7,0.2-11.4-0.1-17.1-0.1c-1.9,0-3.9,0.2-5.8,0.4c-2.3,0.1-4.6,0.3-7,0.4
			c-8.9,0.4-17.8,0.9-26.7,1.2c-3.7,0.1-7.3,0-11-0.1c-3.8-0.1-7.5-0.4-11.3-0.6c-2.5-0.1-7.4-0.3-10-0.5
			C13.6,638.1,12.5,638.2,10.8,638.2z"/>
		<polygon class="st10" points="110.8,585.2 122.3,574.3 123.3,583.4 114,589.6 		"/>
		<g>
			<polygon class="st1" points="56.3,632.7 57.7,628.7 60.5,623.6 61.2,617.9 59.9,610.9 58.1,607.8 55.1,608.4 53.9,614.4 
				52.6,620.4 50.6,620.3 49.7,614 49.7,610.4 46.7,609.2 43.9,611.9 43,622.1 43,627.4 47.6,632.7 			"/>
			<polygon class="st1" points="30.1,633.6 30.4,629.4 33.6,625.4 35.3,618.6 34.7,610.7 33.6,607.8 31.1,607.8 29.4,610.8 
				27.4,621.2 24.8,620.7 24.8,615.9 23.1,607.8 20,606.8 17.8,610.8 18.6,625.1 19.4,629 21.6,633.6 			"/>
			<polygon class="st1" points="123,565.6 119.1,564.3 117.3,557.5 116.4,548.2 113.6,547.7 110.3,551.3 110.3,558.8 110.3,569.3 
				112.3,578.4 114.5,580.7 122.4,573.8 123,583.4 116.7,588.6 117.6,599.7 119.1,603.9 122.4,605.1 125.2,572 			"/>
			<polygon class="st1" points="123.9,614.3 117.7,612.9 116.4,615.8 117.1,631.3 121.9,631.3 123.9,618.5 			"/>
			<polygon class="st1" points="104.6,631.9 105.9,627.4 108.6,622.8 108.2,615.8 105.9,611.4 103.5,612.3 103.2,619.9 101.6,621.7 
				99.5,620.4 98.3,614.4 97.2,612 94.7,612.9 93.6,616.6 93.6,622.8 94.7,626.2 97.2,628.1 97.2,631.9 			"/>
			<polygon class="st1" points="82.4,632.7 83,628.4 85.6,621.7 86.8,616.6 85.6,610.5 83,608.4 79.8,609.8 78.7,614.1 78.7,619.4 
				77.2,620.6 75.5,616.3 74.7,609.8 73.1,609.3 71,614.3 70.6,621.7 71.7,627.3 75.6,632.7 			"/>
			<polygon class="st1" points="7.6,520.7 11.1,519.3 12.6,520 13.8,529.5 15.5,532.8 17.7,531.2 18.6,524.3 19.5,519.3 21.3,517.9 
				24,518.7 24.8,532.3 23.1,538.2 19.1,541.7 16.7,545.1 17.3,551.4 20.7,551.4 22.3,556.5 22.5,568.4 21.7,576.7 18.6,583.4 
				17.8,590.6 17.7,599.8 15.5,603.5 10.5,605.1 7.6,555.7 9.8,555.7 11.2,558.4 11.2,565.6 12.1,569.9 14.7,570.9 16.2,567.9 
				16.2,555.6 13.2,554.9 11.6,549.8 10.2,543.7 7.7,541.7 			"/>
			<path class="st1" d="M110.9,548.6c-0.7,0.6-1.1,1.5-1.7,2.2c-0.2-0.1-0.5-0.2-0.7-0.2c0-2.7,0.1-5.4,0-8.1c0-1.5-0.2-3.1-0.5-4.6
				c-0.3-1.6-1.2-2.9-2.9-3.3c-2.1-0.4-2.8-1.9-2.9-3.8c-0.2-3.8-0.3-7.5-0.5-11.3c0-1.2,0.1-2.8,1.6-2.8c1.4,0,1.1,2,1.2,3
				c0.2,1.6,0.4,3.3,0.5,4.9c0.2,2.4,1.5,4,3,4c2-0.1,3.6-1.7,3.8-4c0.1-1.6,0.1-3.3,0.2-4.9c0.1-1.4,0.2-3.5,1.9-3.5s1.5,2,1.7,3.1
				c0.4,3.2,1.2,6.4,0.5,9.8c-0.3,1.5-0.7,3-1.9,4.1c-1.3,1.2-1.8,2.6-1.8,4.4c0.1,2.2-0.2,4.5,0,6.7
				C112.6,546,112.3,547.4,110.9,548.6z"/>
			<path class="st1" d="M31.7,520.5c1-0.5,2.2,0.1,2.4,1.3c0.2,1.3,0.3,2.7,0.4,4c0.2,1.1,0.1,2.5,0.7,3.3c0.7,0.9,1.9,1.8,3,2
				c0.7,0.1,1.9-0.9,2.5-1.7c0.6-0.9,0.8-2.1,1-3.3c0.2-1.3,0.2-2.7,0.4-4c0.1-0.8-0.4-2.2,0.8-2.2c1.2,0,1.3,2.1,1.4,3.1
				c0.2,4.4,0.2,8.9-1.1,13.2c-0.3,1-0.8,2-1.5,2.6c-1.5,1.3-1.8,2.7-1.7,4.6c0.1,2.5-0.1,5-0.2,7.5c-0.1,1.6,0.3,5.6-0.9,5.6
				s-2-1.5-2.1-2.2c-0.2-1.8-1-8.1-0.8-10c0.2-1.6,0.9-3-0.1-5.6c-2.3-1-3.4-1.7-3.7-4c-0.3-2.8-0.8-5.5-1-8.3
				C31.2,524.3,30.7,521,31.7,520.5z"/>
			<path class="st1" d="M42,581.7c-0.1,0.1-1.2,22.8-4,22.8c-1.7,0-1.2-3.8-1.1-5.6c0.2-1.7,0.5-3.4,0.6-5.1c0-0.2,0-0.4,0.1-0.5
				c0,0,1.2-2.7,1.3-4.3c0.1-1.6,0.8-4.6,0-5.2c-0.8-0.7-1.9-0.6-2.6-0.6c-1.2,0-4.9-2.2-5.2-5.4s-0.9-12.5-1.1-18.8
				c-0.1-1.9,0.2-6.4,1.3-6.4c1.1,0,1.2,1.6,1.3,2.1c0.4,3.9,0.7,7.9,1.1,11.8c0.2,1.6,0.4,3.3,0.8,4.8c0.4,1.7,1.6,2.5,3,2.6
				c1.7,0.1,2.3-1.1,2.9-2.4c1.1-2.6,0.5-5.3,1-7.9c0.4-2.1,0.6-4.2,0.8-6.3c0.2-1.7,1.2-4.5,2.5-4.5c1.4,0,1.9,10.7,2,16
				C46.8,574.3,42.6,580.7,42,581.7z"/>
			<path class="st1" d="M78.5,517.3c1.8-0.2,1.8,2.3,2,3.3c0.3,1.4,0.4,2.9,0.6,4.3c0.5,2.7,2.1,4.4,3.8,4.4c1.7,0,3.4-1.4,3.6-3
				c0.2-1.8,0.2-3.7,0.4-5.5c0.1-1.2-0.1-3.5,1.4-3.5c3,0,0.9,10.1,0.5,14.1c-0.1,1.2-0.9,2.7-1.9,3.4c-2.1,1.6-2.3,3.6-2.3,5.9
				c0,1.5-0.4,6.4-0.2,7.2c0.2,1.4-1.3,1.7-2.4,2.6c-0.7-5.3-2.8-11.1-1.5-16.9c0.6-0.2-1.8-2-4.7-3C78,526.2,75.9,517.5,78.5,517.3
				z"/>
			<path class="st1" d="M55.5,536.7c-0.8-0.4-1.5-1.6-1.6-2.6c-0.5-4.1-0.8-8.2-1.1-12.4c-0.1-1-0.6-2.4,0.7-2.9s1.9,0.9,2,2
				c0.2,1.7,0.4,3.5,0.7,5.2c0.3,1.9,1,2.6,2.4,2.7c1.3,0.1,2.4-0.8,2.8-2.5c0.3-1.6,0.4-3.3,0.6-4.9c0.1-0.9-0.3-2.7,1.4-2.7
				c1.2,0,1,1.5,1.2,2.3c0.8,3.3,1.1,6.7,0.7,10.1c-0.1,0.8-0.4,1.8-1,2.3c-2.1,1.8-2.5,4-2.5,6.5c0,2.8,0.1,7.5-0.2,8.1
				c-0.3,0.6-2.2,0-2.9-0.4c-0.7-0.3,0-3.2,0-4.9C58.5,540.3,58,538,55.5,536.7z"/>
			<path class="st1" d="M71,582.8c-1.1,0.8-1.9,2.6-2,4c-0.5,3.6-0.5,7.3-0.7,11c-0.1,2-0.2,4.1-0.2,6.1c-0.1,2.7-3.7,4.4-4,1
				c-0.3-3.6-0.6-7.2-0.5-10.7c0-1.2-0.6-4.6,0.4-5.6c0.8-0.8,1-5.1,1-7.2c-1.4-1-2.1-0.8-3.4-0.8c-3.1,0-3.6-0.6-3.8-3.9
				c-0.3-4.8-0.5-9.6-0.6-14.4c-0.1-2.8,0-5.6,0-8.3c0-1.5,0.7-3,2.2-2.9c1.5,0.2,1.7,3.9,1.8,6c0.2,2.7,0,5.4,0.1,8.1
				c0,1.3,0.1,2.7,0.4,4c0.4,1.7,1.5,3,3.3,3.3c1.8,0.2,3.3-0.6,3.9-2.3c0.5-1.2,1-2.5,1-3.8c0.1-3.4,0-6.8,0-10.2
				c0-2.2,0.2-5.7,1.7-6.1c1.4-0.4,1.6,0.8,1.7,1.7c0.4,3.3,0.9,6.7,1,10.1c0.1,4.7-0.1,9.4-0.3,14.1C74,578.7,73.5,581.1,71,582.8z
				"/>
			<path class="st1" d="M99,582.1c-0.4,1-0.7,3.9-0.7,3.9c0,3.7,0,7.4,0,11c0,0.7-0.1,1.3,0,2c0.2,2.6-0.8,6.7-2.8,6.7
				c-1.2,0-2-4.3-2-5.1c0-3.2,0.1-13.7,0.1-13.7c0.3-2.1,3.5-3.3,3.6-4.8c0.2-1.8,0.1-4.9-1.1-5.3c-4.2-1.4-5.6,0.4-8.1,2.2
				c-0.2-1.1-0.3-2.7-0.4-3.4c-0.6-6.4-1.1-12.8-1.6-19.3c-0.1-1.4-0.9-3.6,0.3-4.2c1.2-0.6,2,0.7,2.2,1.6c0.6,2.9,1.9,11,1.9,12.1
				c0,2.5,2.2,6.4,4.4,6.2c1.3-0.1,3.2-2.4,3.2-4.9c0.1-4.7,0.3-9.4,0.5-14.1c0-1.3,0.3-3.5,1.5-3.3s2.2,2.1,2.5,3.5
				c0.7,3.3,1.3,6.7,0.8,10.2c-0.2,1.3-0.5,11.4-1.3,15.1C101.6,580.4,99.4,581.2,99,582.1z"/>
			<path class="st1" d="M52.1,596c-0.5,0.8-2.3,0.9-2.7,0.3c-0.4-0.7-2.2-3.8-2.1-4.5c0.1-1.2,1.5-2.4,2-2
				C49.9,590.1,52.6,595.2,52.1,596z"/>
			<path class="st1" d="M112.3,593.4c-0.9-0.2-5-7.1-5.6-7.8c-0.5-0.6-0.3-1.8,0.8-1.8c1.1,0,6.1,8.2,6.1,8.7
				S113.2,593.6,112.3,593.4z"/>
			<path class="st1" d="M82.4,593.8c-0.8-0.4-5.4-5.9-4.4-6.9c1-1,5.3,5.4,5.5,6.2S83.2,594.2,82.4,593.8z"/>
			<path class="st1" d="M26.5,595.4c-0.9-0.5-1.7-3.4-1.7-4.3c0-0.9,1-1.2,1.7-0.7s1.8,3.3,1.8,4.2S27.4,596,26.5,595.4z"/>
		</g>
		<path d="M10.8,638.2c-0.2-2-0.4-4.1-0.5-6.2c-0.1-3,0-6-0.2-9c-0.3-5.1-0.8-10.2-1.2-15.3c-0.3-3.5-0.5-6.9-0.9-10.4
			c-0.6-5-2-34.1-1.8-43.9c0.1-4.3,0.1-8.7,0-13c-0.1-7.6-0.3-17.7-0.5-25.3c0-1.6,0.5-2.3,2.4-2.5c1.9-0.3,3.8-0.4,5.8-0.6
			c4.4-0.5,8.8-1,13.3-1.4c1.6-0.2,3.3-0.2,4.9-0.3c8.1-0.3,58.1-0.3,62.3-0.5c6.2-0.3,12.3-0.5,18.5-0.8c2.3-0.1,4.6-0.4,6.9-0.6
			c2.6-0.3,5.2,1.3,5.8,3.9c0.5,2.3,0.7,4.6,0.8,6.9c0.3,5.6,0.6,11.2,0.7,16.8c0.1,7.9,0,15.9,0,23.8c0,8.1-0.1,16.3,0,24.4
			c0.1,4.6,0.7,28.3,0.5,30.4c-0.4,4.4-1.1,8.8-1.6,13.2c-0.2,1.7-0.2,3.5-0.3,5.2c0,1.2-0.7,2-1.8,1.9c-3.3-0.3-6.4,1.2-9.6,1.4
			c-3.7,0.2-7.3,1.1-10.9,1.2c-5.7,0.2-11.4-0.1-17.1-0.1c-1.9,0-3.9,0.2-5.8,0.4c-2.3,0.1-4.6,0.3-7,0.4
			c-8.9,0.4-17.8,0.9-26.7,1.2c-3.7,0.1-7.3,0-11-0.1c-3.8-0.1-7.5-0.4-11.3-0.6c-2.5-0.1-7.4-0.3-10-0.5
			C13.6,638.1,12.5,638.2,10.8,638.2z M9.3,515.8c-0.1,1.1-0.3,2.2-0.3,3.3c0.1,4.8-0.1,12.1,0.3,16.9c0.5,6.3,0.1,12.7,0.1,19.1
			c0,3.6,0,7.2,0.3,10.8c0.4,5.1,1.8,33,2.1,38.6c0.3,7,1.1,14.1,1.7,21.1c0.2,1.9,0.2,3.8,0.2,6c1.1,0,2,0,2.8,0
			c1.6-0.1,5.7-0.2,7.3-0.2c4.2,0.1,8.3,0.6,12.5,0.5c8.2-0.2,16.4-0.9,24.6-1.1c12.8-0.3,25.6-0.4,38.3-0.6
			c4.8-0.1,9.7-0.4,14.5-0.8c2.1-0.2,4.3-1.1,6.3,0.1c1.3-2.8,0.9-5.6,0.9-8.3c0-5.2-0.1-10.5-0.1-15.7c0-9.9,0.1-19.8,0-29.7
			c-0.1-5.1-0.2-53.7-0.1-54.5c0.2-3.1,0.3-6.1-0.1-9.2c-0.7,0-1-0.1-1.4-0.1c-7.1,0.3-14.1,0.6-21.2,0.8c-0.5,0-1,0-1.4,0.1
			c-8.5,0.5-47.7,0-55.9,0.1C30.2,513.2,19.9,514.1,9.3,515.8z"/>
		<path d="M32.9,609.3c-1.7-0.5-1.8,0.8-1.9,1.4c-0.4,2.7-0.7,5.3-1.1,8c-0.1,0.4-0.1,0.8-0.2,1.1c-0.5,2.1-1.7,3.3-3.1,3.3
			c-1.8,0-3.6-1.6-3.8-3.7c-0.3-2.8-0.4-5.6-0.6-8.3c-0.1-0.9,0.1-2.9-1-2.8c-1,0.1-1.3,1.6-1.3,2.6c0,3.9,0.1,7.9,0.2,11.8
			c0,1.1,0.1,2.1,0.3,3.2c0.1,0.6,0.3,1.5,0.8,1.7c1.7,0.9,1.7,2.4,1.8,3.9c0.1,0.9,0.6,1.9,0.9,2.9c0.2-0.1,0.1,0-0.1,0
			c-3.2,1.3-3.6,1.1-4-2.5c-0.1-0.8-0.4-1.9-1-2.2c-1.5-0.8-1.8-2.1-1.9-3.4c-0.3-5.6-0.8-11.2-0.2-16.8c0.2-2.3,1.5-4.3,3.2-4.9
			c1.8-0.6,4.7,1.5,5.2,4.3c0.3,2.1,0.3,4.2,0.4,6.4c0.1,1.4,0.2,2.8,0.3,4.1c0.2,0,0.5,0,0.7,0c0.3-2.5,0.6-5.1,0.9-7.6
			c0.1-0.8,0.1-1.5,0.2-2.3c0.5-2.5,1.5-3.5,3.7-3.6c1.9-0.1,4.1,1.4,4.5,3.3c1.2,5.8,1.1,11.5-1.1,17.1c-0.3,0.8-2.2,1.7-2.6,2.5
			c-0.9,1.8-1.2,3-0.8,5.3c0.1,1-0.1,2.1-1.4,2c-1.1-0.1-2.1-0.8-2-2.1c1-3.4,1.8-6,4-9.3C34.7,621.1,34.5,609.8,32.9,609.3z"/>
		<path d="M57.1,609.5c-1.7,0-1.3,4.8-1.8,7.3c-0.2,1-0.3,2.2-0.7,3.1c-0.5,1.2-1,2.6-2.8,2.4c-1.8-0.2-2.8-1-3.2-2.8
			c-0.3-1.6-0.6-3.3-0.3-4.9c0.3-1.6,0.5-3.8-1.1-4s-1.7,2-1.8,3.1c-0.4,3.4-0.4,6.9-0.6,10.4c-0.2,2.2,0.8,3.6,2.4,4.9
			c2.1,1.7,2.2,4,2.1,6.4c-1.9,0.4-2.7-0.4-3.1-1.8c-0.3-1.4-0.9-2.4-2.1-3.2c-1.8-1.2-2.2-3.1-2.4-5c-0.5-5,0.2-9.9,1.1-14.7
			c0.4-2.2,1.5-2.9,3.9-2.9c1.9,0,3.8,1.1,4.1,2.9c0.4,2.4,0.5,4.9,0.8,7.4c0.1-0.4,0.4-0.8,0.5-1.3c0.6-2.7,1.2-5.5,1.7-8.2
			c0.3-1.6,1.5-2.3,2.8-2.6c1.2-0.3,2.1,0.5,2.9,1.5c1.6,1.8,2.2,3.9,2.6,6c1,5.9,0.4,11.5-3.4,16.5c-0.7,1-0.8,2.5-1.1,3.8
			c-0.2,1.3,0,2.7-1.4,3.8c-1.1-0.2-2-0.7-1.8-2c0.4-3.2,0.6-6.4,2.7-9.3C61.5,620,58.8,609.5,57.1,609.5z"/>
		<path d="M82.4,610.1c-1.9,0.4-1.3,3.2-1.5,4.8c-0.2,1.7-0.6,3.4-0.9,5.1c-0.3,1.3-1.4,1.8-2.6,1.9c-1.3,0.2-2.1-0.7-2.5-1.6
			c-0.5-1.2-0.2-8.4-1.1-8.9s-1.6,1.9-1.6,2.8c0,3.4-0.1,6.8,0.1,10.2c0.1,1.2,0.7,2.8,1.7,3.6c3.1,2.4,2.7,5.2,1.8,8.3
			c-2.3,0-2.6-0.1-2.3-2.1c0.3-1.8-0.1-3.1-1.7-4.2c-1.4-0.9-2.1-2.4-2.1-4.2c-0.1-2.6-0.5-5.2-0.5-7.8c0-4.4,1.3-10.3,4.7-10
			c1.4,0.1,2.6,1.9,2.8,4c0.1,2.1,0.1,4.2,0.2,6.8c1.4-1,1-2,1.1-2.9c0.2-1.7,0.2-3.5,0.6-5.2c0.5-2,1.9-3.1,4-3.3
			c2.1-0.3,3.3,1.2,4,2.7c1.9,4.2,2.6,8.8,0.5,12.9c-1.8,3.7-3,7.3-2.8,11.3c0,0.7,0,1.4-0.2,2c-0.2,0.8-0.7,1.6-1.6,1.2
			c-0.5-0.2-1.1-0.9-1.1-1.4c-0.2-4.6-0.1-9,2.5-13.2C85.8,619.6,84.3,609.7,82.4,610.1z"/>
		<path d="M104.6,626.5c2.1-1.7,3.3-3.7,2.6-6.6c-0.5-1.9-0.5-6-1.8-5.8c-1.3,0.1-0.8,3.6-1.1,5.4c-0.4,2.1-1.2,3.1-2.8,3.1
			c-2.2,0.1-3.5-0.9-4-3c-0.2-0.9-0.3-1.9-0.5-2.8c-0.2-0.9,0.1-2.9-0.7-3.2c-0.8-0.3-1.2,1.4-1.2,1.7c-0.1,2.4,0.1,4.5,0.2,6.9
			c0.1,1.9,0.7,3.6,2.9,4.1l-0.1-0.1c0.6,2.5,0.7,5.1,0.4,7.7c-0.1,0.9-0.4,1.7-1.3,1.5c-0.6-0.1-1.1-0.9-1.4-1.5
			c-0.2-0.5-0.1-1.1-0.1-1.7c0.1-2-0.1-3.6-1.9-5.1c-1.9-1.7-1.7-4.4-1.9-6.8c-0.1-1.4,0.2-2.9,0.3-4.3c0.1-2.3,1.9-5.4,3.5-5.7
			s3.2,0.6,3.8,4c0.3,1.7,0.5,5,1.5,5s1.4-5.5,1.8-7.2c0.3-1.3,1.1-2,2.4-2.1c1.4-0.1,2.5,0.5,3,1.8c0.6,1.4,1.2,2.9,1.5,4.4
			c0.7,3.9,1.1,7.7-1.9,11.2c-1.2,1.4-1.4,3.5-1.9,5.4c-0.2,0.9-0.4,1.8-1.5,1.7c-1.1-0.1-1.4-1.1-1.2-2
			C103.7,630.5,104.2,628.5,104.6,626.5L104.6,626.5z"/>
		<path d="M123,613.3c-0.7,2.8-3.2,0.9-4.2,1.1c-1,0.2-0.7,2.5-0.7,3.7c0.3,4.8-0.3,9.6,1.3,14.2c0.3,0.8,0.4,1.7-0.7,1.8
			c-0.6,0.1-1.5-0.3-1.9-0.8c-0.6-0.9-1-1.9-1.1-2.9c-0.9-5.4-0.6-10.7-0.2-16.1c0.2-2.5,2.7-3.6,4.9-2.4
			C121.3,612.3,122.1,612.7,123,613.3z"/>
		<g>
			<path d="M97.2,582.2c0-0.1,0-0.2,0-0.3C97.2,582,97.2,582.2,97.2,582.2z"/>
			<path d="M125.1,582.1c-0.2-0.4-1.2-1-1.6-0.8c-1.4,0.5,0.1-0.7-1.3,0.6c-1.7,1.7-6.3,4.3-8.7,6c0,0-1.9-2-1.5-2.4
				c1.9-2.1,5-4.9,7.1-6.7c1.4-1.2,2.3-2.5,3-4c-1.7-0.9-0.4-2.1-1.2-1.4c-1.6,1.3-4.5,3.8-6.3,5.3c-0.5-1.1-1.2-1.9-1.3-2.8
				c-1-4.3-1.7-8.6-1.6-13.1c0.1-2.3,0-13.6,3.2-13.9c1-0.1,0.5,4.9,0.8,7.2c0.3,2.5,0.6,5,1.2,7.4c0.4,1.7,1.7,2.6,3.2,2.4
				c1.3-0.2,2.1-1.6,1.1-2.2c-1.5-1.1-1.6-2.6-1.8-4c-0.5-3.1-1.1-6.3-1.4-9.4c-0.2-1.9-0.7-3.3-2.5-3.7c0-3.1-0.1-6,0-8.9
				c0-0.7,0.4-1.5,0.9-2c1.6-1.6,2.1-3.6,2.6-5.7c0.9-3.9,0-7.7-0.3-11.5c-0.1-0.7-0.3-1.3-0.6-1.9c-0.9-2.1-2.6-2.9-4.8-3
				c-2.1-0.2-3.1,1.1-3.6,2.7c-0.5,1.6-0.4,8.6-1.4,8.6c-1,0-1-10.1-3.6-10.8c-1.5-0.4-3.3-0.6-4.5,0.7c-1.3,1.3-1.8,3.5-1.7,5.5
				c0.1,3.7,0.1,7.4,0.5,11c0.3,2.5,0.8,5.2,3.8,5.9c1.6,0.4,2.2,1.4,2.3,2.9c0.1,3,0.4,6,0.5,9c0.1,1.9,0.4,3.8,1.8,5
				c1.2,1,1.5,2.2,1.4,3.5c0,1.2-0.3,2.5-0.2,3.7c0.3,4,0.8,8.1,1.2,12.1c0.3,2.8,1,5.5,3.1,7.9c-0.7,0.6-2.5,2.2-2.5,2.2
				c-1.4-2.1-3.6-3.5-5.8,0.7c-0.6,1.1,0.4,3.5,1.3,4.7c-1.4-0.9-3.6-4.4-2.6-6.2c1.8-3.2,2.7-6.7,3-10.2c0.4-5.4,0.2-10.8-0.1-16.2
				c-0.2-2.6-0.7-5.3-2.6-7.5c-2.5-2.9-5.5-2.6-7.4,0.8c-0.5,0.9-0.6,2-0.6,3.1c-0.1,4.4,0.3,15.9-0.7,16c-1,0.1-1.3-1.7-1.4-2.6
				c-0.3-2.8-0.3-5.6-0.9-8.4c-0.7-3-0.6-6.5-3.7-8.4c0.3-0.9,0.7-5.5,0.7-7.7c0-2,0.5-3.1,1.7-4.3c1.3-1.2,2.2-2.5,2.3-4.5
				c0.1-2.2,0.7-4.4,0.8-6.6c0.1-3.1,0.3-6.2-0.9-9.2c-0.5-1.2-1-2.5-2.5-2.5c-2.8-0.1-3.8,1-5,4.6c-0.9,2.2-0.1,6.9-1,6.9
				s-1-3.5-1.2-5.2c-0.5-3.2-2-6-5.3-6s-3.8,2.9-3.9,5.4c-0.1,1.4,0,2.9,0.1,4.3c0.5,8.1-1.6,8.3-5.4,11.9c-1,1-1.4,0.3-2.3-0.4
				c0.5-1.2,1.4-2.3,1.4-3.5c0.3-4.3,0.1-8.7-0.8-13c-0.5-2-3.2-4.2-4.8-4.1c-3.7,0.3-3.2,7.1-3.9,7.2s-0.4-1.5-0.4-2.3
				c-0.2-2.4-2.2-4.3-4.6-4.4c-2.3-0.1-3.4,0.8-3.9,3.7c-0.9,5.6,0,11.2,1.3,16.6c0.3,1.1,1.2,2.5,2.2,2.9c1.9,0.8,1.6,2.1,1.9,3.7
				c1,4.8-0.8,8.5-0.9,10.5c-0.2,3.6-0.2,7.2-0.1,10.8c0.1,4.2,0.4,8.5,0.5,12.7c0,2.4,0.7,4.3,2.9,5.6c-2,1.8-3.9,3.4-5.9,5.2
				c-2.2-3.2-4-0.6-6,0.3c-0.3-0.8-0.5-1.4-0.7-2.1c-0.8-1.8-0.6-3.3,0.8-4.7c2.5-2.7,3.7-5.9,3.9-9.4c0.1-1.3,0.5-2.6,0.4-3.9
				c-0.2-4.2-0.6-8.5-1-12.7c-0.2-1.5-0.9-3-2.4-3.8c-1.2-0.6-2.2-0.7-3.6-0.4c0-1.6-0.3-4.6-0.1-6.4c0.1-1.1,0.5-2.4,1.2-3
				c1.5-1.2,2.3-2.6,2.5-4.4c0.5-3.9,1-7.8,1.1-11.7c0.1-2.1-0.5-4.2-1.1-6.2c-0.6-2-2.1-2.9-3.8-2.9c-1.9,0.1-3.1,1-3.5,3.1
				c-0.3,1.6,0.3,7.4-0.9,7.6c-1.2,0.2-0.9-2.3-1-3.4c-0.2-1.3-0.7-4.4-1.8-5.5s-3.2-1.4-5.1-0.6c-1.9,0.9-2.3,2.8-2.3,4.7
				c0,3.1,0.1,6.2,0.5,9.3c0.3,2.5-0.2,5.2,1.9,7.5c-1.6,1.1-3.1,2.1-4.5,3.1c-0.9-0.4-1.7-0.7-2.3-0.9c0.6-1.2,1.5-2.4,1.8-3.6
				c1.3-4.9,0.5-9.8,0.1-14.7c-0.1-1.2-0.3-2.5-0.6-3.7c-0.4-1.4-2-2.8-3.3-2.9c-1.8-0.2-2.6,0.3-3.5,2.3c-0.9,1.8-1.3,3.5-1.3,5.6
				c0.1,2.3-0.3,6.8-1,6.8c-0.7,0-0.4-2.2-0.6-3.4c-0.3-2.1-0.5-4.2-0.8-6.3c-0.3-1.6-0.8-3-2.6-3.5c-1.8-0.5-3.2,0-4.3,1.4
				c0.2,2.5,2.8,0.9,3.6,1.6c0.8,0.6,0.7,5,1.1,7.4c0.3,1.6,0.5,3.3,1,4.8c0.7,1.9,2.7,2.4,4.2,1.2c0.8-0.6,1.5-1.6,1.7-2.6
				c0.4-1.9,0.5-3.8,0.7-5.7c0.2-2.1,0.6-6.3,2-6.3c1.4,0,0.9,9.9,0.9,14.7c0,2.8-1,5-3.7,6.4c-2.2,1.1-3.3,3.1-3.2,5.7
				c0.1,1.4,0,2.9-0.1,4.4c0,1.1,0.2,3-1.2,3.1c-1.3,0.1-1.6-6.6-2.5-9.6c-0.3-1.1-0.9-2.2-1.5-3.1c-0.6-0.9-2.3-2.2-3.2-1.5
				c-0.8,0.7,0.5,2.5,0.8,3.2c1.7,3.6,3,7.3,2.9,11.3c-1.3,0.2-2.6,0.3-4.2,0.5c0.4,0.9,0.5,2,0.9,2.1c1.7,0.4,2.3,1.5,2.4,2.8
				c0.1,1.9-0.1,3.8,0,5.8c0.1,2,0.3,3.6,1.1,5.3c0.6,1.4,1.9,1.8,3.3,1.9c1.4,0.1,2.2-0.7,2.6-1.9c0.5-1.2,0.9-2.6,0.9-3.9
				c-0.1-3.5-0.5-6.9-0.7-10.4c-0.1-1.5,1-4,2-3.9c2.6,0.2,1.6,15.5,0.9,21.9c-0.2,1.8-1,3.4-2.2,4.9c-0.9,1-1.4,2.6-1.6,3.9
				c-0.3,2.1-0.2,4.3-0.3,6.4c-0.1,2.7-0.2,5.4-0.2,8.1c0,2.9-2.6,5.3-5.6,5.9c-0.2,0-0.3,0.2-0.4,0.4c0.7,1.9,1,2.2,2.5,1.8
				c2.5-0.6,6.2-3.3,6.4-5.9c0.3-3.9,0.3-7.9,0.4-11.8c0-0.5,0.1-1,0.1-1.5c0.9,1.3,1.5,2.6,2,3.9c0.7,2,1.9,3.3,2.9,5.4
				c0.6,1.3,1.4,2.7,3.1,2c1.8-0.6,4-0.8,3.8-4c1-0.2,2.6-1.5,3.6-1.7c-0.1,1.2-0.7,4.2-0.6,5.3c0,2.1,0,4.2,0.4,6.3
				c0.4,2.2,1.6,2.9,3.6,3c2.1,0,2.9-0.6,3.6-3c0.2-0.7,0.3-1.5,0.4-2.3c0.4-3.4,0.9-6.9,1.3-10.6c0.3,0.4,0.4,0.5,0.5,0.7
				c0.4,1.1,1.9,2-0.2,3.6c-0.7,0.5,0.4,2.2,1.2,2.2c0.9,0,1.8-0.3,2.9-0.5c1.1,1.1,2.3,2.3,4.5,2.1c2.6-0.2,3.1-2.3,2.1-4.7
				c2.2-0.7,5.3-3.3,7.4-4.3c0,3.7-0.1,10.8-0.1,14.4c0,1.1-0.1,2.2,0.2,3.2c0.3,0.9,1.1,1.9,2,2.2c3,0.8,6.3-1.3,6.7-4.4
				c0.4-2.4,0.4-4.8,0.5-7.2c0.2-3.4,0.4-6.9,0.5-10.3c0.2,0,0.4-0.1,0.6-0.1c0.9,1.5,1.9,3.1,2.6,4.3c-0.4,1.4-1.8,2.1-0.7,3.8
				s3.8-0.1,5.2-1.2c0.5,1.2,2.4,3.5,3.4,3c1.6-0.9,4.2-2.6,3.5-4.5c-0.9-2.4,3.4-4.9,4.9-5.9c0,4.2-0.1,11.5-0.1,15.6
				c0,2.9,1.5,4.6,4.3,5.4c1.1,0.3,1.9,0.2,2.6-0.6c2-2.2,3.6-4.4,3.5-7.7c-0.2-3.8,0-7.6,0-11.8c0.9,1.1,1.6,1.9,2.3,2.8
				c-1.8,2.2-0.8,3.8,0.4,3.4c1.3-0.3,2.5-1.4,3.7-2.2c1.1,1.9,2.3,4.2,3.6,4.8c1.3,0.6,4.1-1.1,4.2-2.3c0.2-1.1-0.3-4.6-0.3-4.6
				c0.2,0,0.4,0,0.5,0c0,0,0.6,8.7,0.5,10.7c-0.2,3.3,1.9,4.9,5.2,5.8c0.8-0.9-0.1-2.5-1.4-3.7c-1.4-1.2-1-11.3-1.2-14.8
				c2-1.4,3.9-2.7,5.7-4.2C125,583.4,125.3,582.5,125.1,582.1z M110.9,548.6c-0.7,0.6-1.1,1.5-1.7,2.2c-0.2-0.1-0.5-0.2-0.7-0.2
				c0-2.7,0.1-5.4,0-8.1c0-1.5-0.2-3.1-0.5-4.6c-0.3-1.6-1.2-2.9-2.9-3.3c-2.1-0.4-2.8-1.9-2.9-3.8c-0.2-3.8-0.3-7.5-0.5-11.3
				c0-1.2,0.1-2.8,1.6-2.8c1.4,0,1.1,2,1.2,3c0.2,1.6,0.4,3.3,0.5,4.9c0.2,2.4,1.5,4,3,4c2-0.1,3.6-1.7,3.8-4
				c0.1-1.6,0.1-3.3,0.2-4.9c0.1-1.4,0.2-3.5,1.9-3.5s1.5,2,1.7,3.1c0.4,3.2,1.2,6.4,0.5,9.8c-0.3,1.5-0.7,3-1.9,4.1
				c-1.3,1.2-1.8,2.6-1.8,4.4c0.1,2.2-0.2,4.5,0,6.7C112.6,546,112.3,547.4,110.9,548.6z M13.5,569.1c-1.6-1-0.6-8.7-1.4-12.6
				c1.3,0.8,2.7,0.1,3.2,0.7c0.4,0.7,0,7.4,0,8.9C15.2,567.1,15.1,570.2,13.5,569.1z M31.7,520.5c1-0.5,2.2,0.1,2.4,1.3
				c0.2,1.3,0.3,2.7,0.4,4c0.2,1.1,0.1,2.5,0.7,3.3c0.7,0.9,1.9,1.8,3,2c0.7,0.1,1.9-0.9,2.5-1.7c0.6-0.9,0.8-2.1,1-3.3
				c0.2-1.3,0.2-2.7,0.4-4c0.1-0.8-0.4-2.2,0.8-2.2c1.2,0,1.3,2.1,1.4,3.1c0.2,4.4,0.2,8.9-1.1,13.2c-0.3,1-0.8,2-1.5,2.6
				c-1.5,1.3-1.8,2.7-1.7,4.6c0.1,2.5-0.1,5-0.2,7.5c-0.1,1.6,0.3,5.6-0.9,5.6s-2-1.5-2.1-2.2c-0.2-1.8-1-8.1-0.8-10
				c0.2-1.6,0.9-3-0.1-5.6c-2.3-1-3.4-1.7-3.7-4c-0.3-2.8-0.8-5.5-1-8.3C31.2,524.3,30.7,521,31.7,520.5z M38.9,559.3
				c-0.3,3.6-0.5,6.9-0.8,10.5c-1.4-2.5-1.5-4.4-1.2-11.1C37.3,559.3,38,559.6,38.9,559.3z M31.1,540.5c0.7-0.5,2.4-0.4,2.9,0
				c0.5,0.4,0,2.2-0.4,2.7c-0.4,0.5-5.7,3.1-6.2,3.2c-0.5,0.1-1.4-1.3-1.4-1.8S29.4,541.7,31.1,540.5z M26.5,595.4
				c-0.9-0.5-1.7-3.4-1.7-4.3c0-0.9,1-1.2,1.7-0.7s1.8,3.3,1.8,4.2S27.4,596,26.5,595.4z M26.7,586.9c-1,0-1.9,1-3,1.7
				c-1.4-3.2-2.6-7-1.3-10.4c0.6-1.6,1-3.3,1.1-5c0.3-4.2,0.6-8.5,0.6-12.7c0-2.3-0.5-4.6-1-6.9c-0.3-1.5-1-2.9-2.6-3.3
				c-2.1-0.5-2-4.5-1.5-6.1c0,0,0-1.3,1.5-1.6c1.5-0.4,4,0.8,4,0.8s-0.7,0.2-0.8,0.8c-0.1,0.6,0.2,1,0.2,1s-1.3,0.3-1.3,0.8
				s0.8,1.5,1.5,1.6c0.7,0.2,1.5-0.7,1.9-0.4c0.4,0.3,1,0.8,1.5,0.6c0.5-0.2,4.2-1.9,6.9-2.8c0.1,1.4,0.2,4.2,0.4,6.3
				c-1.3-1.6-2.8-2.4-3.9-1.7c-1.3,0.8-2.5,2.3-2.9,3.8c-0.7,2.2-0.9,4.6-0.9,6.9c0.2,6.8,0.6,11.4,1.1,18.2
				c0.2,3.1,2.6,4.5,4.2,5.2c1.6,0.7-3.1,3.4-4,4.6C27.6,587.6,27.6,586.9,26.7,586.9z M35.7,589.9c-1.2,0.3-4.1,1.9-5.3,2.5l-1-2.6
				c0.9-1.7,3.2-3.3,5.7-4.3c0.7-0.3,2-0.2,2.7-0.4C37.8,586.5,37.3,589.5,35.7,589.9z M42,581.7c-0.1,0.1-1.2,22.8-4,22.8
				c-1.7,0-1.2-3.8-1.1-5.6c0.2-1.7,0.5-3.4,0.6-5.1c0-0.2,0-0.4,0.1-0.5c0,0,1.2-2.7,1.3-4.3c0.1-1.6,0.8-4.6,0-5.2
				c-0.8-0.7-1.9-0.6-2.6-0.6c-1.2,0-4.9-2.2-5.2-5.4s-0.9-12.5-1.1-18.8c-0.1-1.9,0.2-6.4,1.3-6.4c1.1,0,1.2,1.6,1.3,2.1
				c0.4,3.9,0.7,7.9,1.1,11.8c0.2,1.6,0.4,3.3,0.8,4.8c0.4,1.7,1.6,2.5,3,2.6c1.7,0.1,2.3-1.1,2.9-2.4c1.1-2.6,0.5-5.3,1-7.9
				c0.4-2.1,0.6-4.2,0.8-6.3c0.2-1.7,1.2-4.5,2.5-4.5c1.4,0,1.9,10.7,2,16C46.8,574.3,42.6,580.7,42,581.7z M52.1,596
				c-0.5,0.8-2.3,0.9-2.7,0.3c-0.4-0.7-2.2-3.8-2.1-4.5c0.1-1.2,1.5-2.4,2-2C49.9,590.1,52.6,595.2,52.1,596z M78.5,517.3
				c1.8-0.2,1.8,2.3,2,3.3c0.3,1.4,0.4,2.9,0.6,4.3c0.5,2.7,2.1,4.4,3.8,4.4c1.7,0,3.4-1.4,3.6-3c0.2-1.8,0.2-3.7,0.4-5.5
				c0.1-1.2-0.1-3.5,1.4-3.5c3,0,0.9,10.1,0.5,14.1c-0.1,1.2-0.9,2.7-1.9,3.4c-2.1,1.6-2.3,3.6-2.3,5.9c0,1.5-0.4,6.4-0.2,7.2
				c0.2,1.4-1.3,1.7-2.4,2.6c-0.7-5.3-2.8-11.1-1.5-16.9c0.6-0.2-1.8-2-4.7-3C78,526.2,75.9,517.5,78.5,517.3z M76.1,532.3
				c1.6,0.5,4.1,1.5,4.1,1.5c0,1.1-0.5,1.8-1,3.1c-0.6,1.4-7.3,3.3-8.5,4.7c-0.2-0.2-1.7-1.9-1.9-2.1
				C71.3,537.2,73.7,534.8,76.1,532.3z M55.5,536.7c-0.8-0.4-1.5-1.6-1.6-2.6c-0.5-4.1-0.8-8.2-1.1-12.4c-0.1-1-0.6-2.4,0.7-2.9
				s1.9,0.9,2,2c0.2,1.7,0.4,3.5,0.7,5.2c0.3,1.9,1,2.6,2.4,2.7c1.3,0.1,2.4-0.8,2.8-2.5c0.3-1.6,0.4-3.3,0.6-4.9
				c0.1-0.9-0.3-2.7,1.4-2.7c1.2,0,1,1.5,1.2,2.3c0.8,3.3,1.1,6.7,0.7,10.1c-0.1,0.8-0.4,1.8-1,2.3c-2.1,1.8-2.5,4-2.5,6.5
				c0,2.8,0.1,7.5-0.2,8.1c-0.3,0.6-2.2,0-2.9-0.4c-0.7-0.3,0-3.2,0-4.9C58.5,540.3,58,538,55.5,536.7z M63,586.6
				c-3.3,2.1-6.3,3.9-9.4,5.9c-0.9-1.4-0.8-2.5,0.4-3.5c2.2-1.8,4.2-3.6,6.5-5.3c0.7-0.5,1.8-0.4,3-0.7
				C63.2,584.5,63,585.8,63,586.6z M71,582.8c-1.1,0.8-1.9,2.6-2,4c-0.5,3.6-0.5,7.3-0.7,11c-0.1,2-0.2,4.1-0.2,6.1
				c-0.1,2.7-3.7,4.4-4,1c-0.3-3.6-0.6-7.2-0.5-10.7c0-1.2-0.6-4.6,0.4-5.6c0.8-0.8,1-5.1,1-7.2c-1.4-1-2.1-0.8-3.4-0.8
				c-3.1,0-3.6-0.6-3.8-3.9c-0.3-4.8-0.5-9.6-0.6-14.4c-0.1-2.8,0-5.6,0-8.3c0-1.5,0.7-3,2.2-2.9c1.5,0.2,1.7,3.9,1.8,6
				c0.2,2.7,0,5.4,0.1,8.1c0,1.3,0.1,2.7,0.4,4c0.4,1.7,1.5,3,3.3,3.3c1.8,0.2,3.3-0.6,3.9-2.3c0.5-1.2,1-2.5,1-3.8
				c0.1-3.4,0-6.8,0-10.2c0-2.2,0.2-5.7,1.7-6.1c1.4-0.4,1.6,0.8,1.7,1.7c0.4,3.3,0.9,6.7,1,10.1c0.1,4.7-0.1,9.4-0.3,14.1
				C74,578.7,73.5,581.1,71,582.8z M75.4,585.5c-0.8-0.2-1.7-0.8-1-1.5c3.4-3.5,2.9-7.9,3-12.1c0.2-5.6-0.2-11.2-0.4-16.8
				c0-1.2-0.4-2.5-0.7-3.7c-0.3-2-1.8-3.2-3.4-4.1c-1.6-1-3.4-0.3-4.4,1.5c-1.8,3.4-1.8,7-1.6,10.7c0.2,2.7,0.5,10.3-1.5,10.3
				c-0.9,0-1.2-3.4-1.2-5c0-2.9-1.8-13.3-0.3-16.1c1.1-2,0-8,1.2-10.9c1.3,0.3,2,0.5,2.2,1.7c0.1,0.6-1.2,2.2-0.9,2.7
				c0.3,0.5,1.4,1.7,1.8,2c0.4,0.5,1.8-0.8,2-0.5c4.3-1.3,4.7-2.6,9-3.6c0.5,3.8,1,7.2,1.5,10.6c0.1,0.8,0.2,2.1,0.7,2.4
				c1.7,1,1.5,2.5,1.6,4c0.5,7.2,2.2,16.2,2.7,23.4c0.1,0.8-3.6,3.4-4.7,4.5C78.5,582.9,77.6,582.6,75.4,585.5z M82.4,593.8
				c-0.8-0.4-5.4-5.9-4.4-6.9c1-1,5.3,5.4,5.5,6.2S83.2,594.2,82.4,593.8z M85.5,588.2c-1.5,1.1-1.6,1-3.1-1c3.1-2.9,6-5.7,9-8.4
				c1.1-1,2.2-1.5,3.8-0.6c0.5,1.3,0.6,2.5-0.8,3.5C91.4,583.9,88.5,586.1,85.5,588.2z M99,582.1c-0.4,1-0.7,3.9-0.7,3.9
				c0,3.7,0,7.4,0,11c0,0.7-0.1,1.3,0,2c0.2,2.6-0.8,6.7-2.8,6.7c-1.2,0-2-4.3-2-5.1c0-3.2,0.1-13.7,0.1-13.7
				c0.3-2.1,3.5-3.3,3.6-4.8c0.2-1.8,0.1-4.9-1.1-5.3c-4.2-1.4-5.6,0.4-8.1,2.2c-0.2-1.1-0.3-2.7-0.4-3.4
				c-0.6-6.4-1.1-12.8-1.6-19.3c-0.1-1.4-0.9-3.6,0.3-4.2c1.2-0.6,2,0.7,2.2,1.6c0.6,2.9,1.9,11,1.9,12.1c0,2.5,2.2,6.4,4.4,6.2
				c1.3-0.1,3.2-2.4,3.2-4.9c0.1-4.7,0.3-9.4,0.5-14.1c0-1.3,0.3-3.5,1.5-3.3s2.2,2.1,2.5,3.5c0.7,3.3,1.3,6.7,0.8,10.2
				c-0.2,1.3-0.5,11.4-1.3,15.1C101.6,580.4,99.4,581.2,99,582.1z M112.3,593.4c-0.9-0.2-5-7.1-5.6-7.8c-0.5-0.6-0.3-1.8,0.8-1.8
				c1.1,0,6.1,8.2,6.1,8.7S113.2,593.6,112.3,593.4z"/>
		</g>
		<path class="st10" d="M35.7,589.9c-1.2,0.3-4.1,1.9-5.3,2.5l-1-2.6c0.9-1.7,3.2-3.3,5.7-4.3c0.7-0.3,2-0.2,2.7-0.4
			C37.8,586.5,37.3,589.5,35.7,589.9z"/>
		<path class="st10" d="M63,586.6c-3.3,2.1-6.3,3.9-9.4,5.9c-0.9-1.4-0.8-2.5,0.4-3.5c2.2-1.8,4.2-3.6,6.5-5.3
			c0.7-0.5,1.8-0.4,3-0.7C63.2,584.5,63,585.8,63,586.6z"/>
		<path class="st10" d="M85.5,588.2c-1.5,1.1-1.6,1-3.1-1c3.1-2.9,6-5.7,9-8.4c1.1-1,2.2-1.5,3.8-0.6c0.5,1.3,0.6,2.5-0.8,3.5
			C91.4,583.9,88.5,586.1,85.5,588.2z"/>
		<path d="M64.6,578.6c-0.9-0.1-1.3-1.4-0.8-2c0.5-0.5,1.2-0.5,1.6,0.1C66,577.3,65.6,578.7,64.6,578.6z"/>
		<path d="M68.5,577.8c-0.3,0.6-0.3,0.6-0.6,0.7c-0.6,0.2-1.4-0.3-1.4-0.8c-0.1-0.6,0.5-1.4,1-1.4C68.2,576.4,68.8,577.2,68.5,577.8
			z"/>
		<path d="M24.5,627.7c-0.9-0.1-1.3-1.4-0.8-2c0.5-0.5,1.2-0.5,1.6,0.1C25.8,626.5,25.4,627.9,24.5,627.7z"/>
		<path d="M28.4,627c-0.3,0.6-0.3,0.6-0.6,0.7c-0.6,0.2-1.4-0.3-1.4-0.8c-0.1-0.6,0.5-1.4,1-1.4C28,625.5,28.7,626.4,28.4,627z"/>
		<path d="M84.4,533.3c-0.8-0.1-1.1-1.2-0.7-1.7c0.4-0.4,1-0.4,1.4,0.1C85.5,532.2,85.1,533.4,84.4,533.3z"/>
		<path d="M87.7,532.6c-0.2,0.5-0.2,0.5-0.5,0.6c-0.5,0.2-1.2-0.3-1.2-0.7c-0.1-0.5,0.4-1.1,0.9-1.2
			C87.3,531.4,87.9,532.1,87.7,532.6z"/>
		<path d="M13.5,539c-0.8-0.1-1.1-1.2-0.7-1.7c0.4-0.4,1-0.4,1.4,0.1C14.6,537.9,14.3,539,13.5,539z"/>
		<path d="M16.8,538.3c-0.2,0.5-0.2,0.5-0.5,0.6c-0.5,0.2-1.2-0.3-1.2-0.7c-0.1-0.5,0.4-1.1,0.9-1.1C16.5,537.1,17,537.8,16.8,538.3
			z"/>
		<path d="M116.2,572.6c-0.9-0.1-1.3-1.4-0.8-2c0.5-0.5,1.2-0.5,1.6,0.1C117.6,571.3,117.2,572.7,116.2,572.6z"/>
		<path d="M120.1,571.8c-0.3,0.6-0.3,0.6-0.6,0.7c-0.6,0.2-1.4-0.3-1.4-0.8c-0.1-0.6,0.5-1.4,1-1.4
			C119.8,570.3,120.4,571.2,120.1,571.8z"/>
		<path d="M100.1,626.6c-0.9-0.1-1.3-1.4-0.8-2c0.5-0.5,1.2-0.5,1.6,0.1C101.4,625.3,101,626.7,100.1,626.6z"/>
		<path d="M104,625.8c-0.3,0.6-0.3,0.6-0.6,0.7c-0.6,0.2-1.4-0.3-1.4-0.8c-0.1-0.6,0.5-1.4,1-1.4C103.6,624.3,104.3,625.2,104,625.8
			z"/>
		<path d="M108,532.9c-0.6-0.1-0.8-0.9-0.5-1.3c0.3-0.3,0.8-0.3,1.1,0C108.9,532,108.6,532.9,108,532.9z"/>
		<path d="M110.5,532.4c-0.2,0.4-0.2,0.4-0.4,0.5c-0.4,0.1-0.9-0.2-0.9-0.5c0-0.4,0.3-0.9,0.7-0.9
			C110.3,531.4,110.7,532,110.5,532.4z"/>
		<path d="M39.4,579.4c-0.9-0.1-1.3-1.5-0.8-2c0.5-0.5,1.2-0.5,1.7,0.1C40.8,578.1,40.3,579.5,39.4,579.4z"/>
		<path d="M36.9,578.6c-0.3,0.6-0.3,0.6-0.6,0.8c-0.6,0.2-1.4-0.3-1.5-0.9c-0.1-0.6,0.5-1.4,1-1.4C36.5,577.1,37.2,578,36.9,578.6z"
			/>
		<path d="M79.7,626.1c-0.9-0.1-1.3-1.5-0.8-2c0.5-0.5,1.2-0.5,1.7,0.1C81,624.8,80.6,626.2,79.7,626.1z"/>
		<path d="M77.2,625.3c-0.3,0.6-0.3,0.6-0.6,0.8c-0.6,0.2-1.4-0.3-1.5-0.9c-0.1-0.6,0.5-1.4,1-1.4C76.8,623.8,77.5,624.7,77.2,625.3
			z"/>
		<path d="M97.3,575.4c-0.9-0.1-1.3-1.5-0.8-2c0.5-0.5,1.2-0.5,1.7,0.1C98.6,574.1,98.2,575.6,97.3,575.4z"/>
		<path d="M94.8,574.6c-0.3,0.6-0.3,0.6-0.6,0.8c-0.6,0.2-1.4-0.3-1.5-0.9c-0.1-0.6,0.5-1.4,1-1.4C94.4,573.2,95,574,94.8,574.6z"/>
		<path d="M60.3,532.3c-0.7-0.1-1-1.2-0.6-1.6c0.4-0.4,1-0.4,1.3,0.1C61.4,531.3,61.1,532.4,60.3,532.3z"/>
		<path d="M58.4,531.7c-0.2,0.5-0.2,0.5-0.5,0.6c-0.5,0.2-1.1-0.3-1.1-0.7c-0.1-0.4,0.4-1.1,0.8-1.1
			C58.1,530.5,58.6,531.2,58.4,531.7z"/>
		<path d="M15.7,578.5c-0.8-0.1-1.2-1.3-0.7-1.8c0.4-0.5,1.1-0.4,1.5,0.1C16.9,577.4,16.5,578.6,15.7,578.5z"/>
		<path d="M14.1,577.8c-0.3,0.6-0.3,0.6-0.6,0.7c-0.5,0.2-1.3-0.3-1.3-0.8c-0.1-0.5,0.5-1.3,0.9-1.3
			C13.8,576.4,14.4,577.2,14.1,577.8z"/>
		<path d="M52.8,627.7c-0.8-0.1-1.2-1.3-0.7-1.8c0.4-0.5,1.1-0.4,1.5,0.1C54,626.5,53.6,627.8,52.8,627.7z"/>
		<path d="M51.2,626.9c-0.3,0.6-0.3,0.6-0.6,0.7c-0.5,0.2-1.3-0.3-1.3-0.8c-0.1-0.5,0.5-1.3,0.9-1.3
			C50.9,625.5,51.5,626.3,51.2,626.9z"/>
		<path d="M39.5,535.7c-0.7-0.1-1-1.2-0.6-1.6c0.4-0.4,1-0.4,1.3,0.1C40.6,534.7,40.2,535.8,39.5,535.7z"/>
		<path d="M38.2,535c-0.2,0.5-0.2,0.5-0.5,0.6c-0.5,0.2-1.1-0.3-1.2-0.7c-0.1-0.4,0.4-1.1,0.8-1.1C37.9,533.9,38.4,534.6,38.2,535z"
			/>
		<path class="st10" d="M31.1,540.5c0.7-0.5,2.4-0.4,2.9,0c0.5,0.4,0,2.2-0.4,2.7c-0.4,0.5-5.7,3.1-6.2,3.2
			c-0.5,0.1-1.4-1.3-1.4-1.8S29.4,541.7,31.1,540.5z"/>
		<path class="st10" d="M76.1,532.3c1.6,0.5,4.1,1.5,4.1,1.5c0,1.1-0.5,1.8-1,3.1c-0.6,1.4-7.3,3.3-8.5,4.7
			c-0.2-0.2-1.7-1.9-1.9-2.1C71.3,537.2,73.7,534.8,76.1,532.3z"/>
	</g>
	<g>
		<path class="st13" d="M140.8,751.9c0-1.8,0.1-3.7,0.1-5.5c0-5.9-0.2-11.8-0.1-17.7c0.1-5.1,0.4-10.3,0.5-15.4
			c0.1-6,0.1-11.9,0.1-17.9c0-5.9,0-11.8,0.2-17.7c0.2-4.7,0.9-9.5,1-14.2c0.1-3.8-0.1-7.5-0.2-11.3c0-1.3-0.1-2.5,0.1-3.8
			c0.3-1.8,1-2.4,2.9-2.3c4.9,0.1,9.8,0.4,14.7,0.3c4.2-0.1,21-0.2,23.3-0.3c4-0.1,7.9-0.5,11.9-0.7c0.5,0,1-0.1,1.4-0.1
			c7.5,0.7,14.9-1,22.3-1c5.6,0,11.2-0.9,16.8-0.5c5.4,0.4,10.8-0.1,16.2-0.2c1,0,1.9,0,2.9,0c5.2,0.2,10.4,0.4,15.6,0.6
			c0.7,0,5.5-0.1,7.2,1.3c1.8,1.5,1.7,4.7,1.7,7c0,8.6-0.3,17.2-0.3,25.8c0,5.2,0.5,10.4,0.5,15.7c0,5.3-0.1,10.6-0.3,15.9
			c-0.2,6.5-0.5,13-0.8,19.4c-0.4,6.9-0.9,13.9-1.3,20.8c-0.2,3.3,0.1,6.6-0.2,9.9c-0.3,3.5-0.8,6.9-1.5,10.3
			c-0.4,2.3-1.7,4.1-4.4,4.3c-2.1,0.2-4.2,0.4-6.3,0.6c-5,0.5-10,1-15,1.3c-4.5,0.3-9,0.2-13.6,0.3c-3.5,0.1-7,0.1-10.4,0.3
			c-5.5,0.2-11,0.4-16.5,0.7c-6.3,0.3-12.6,0.7-18.8,0.9c-4.8,0.2-9.7,0.5-14.5,0.4c-9.9-0.2-19.7-0.6-29.6-0.9
			c-0.5,0-1-0.1-1.4-0.1c-3.3-0.4-2.8-0.6-4.2-3.6c-1.9-4.2-0.7-8.3-0.5-12.5C140.5,758.8,140.7,752,140.8,751.9z"/>
		<g>
			<path class="st1" d="M166.2,693.9c1,0,0.9-2.6,0.9-3.9c0.1-2.8,0-5.6,0-8.4c-0.1-2.5,1.1-4.6,2.8-6.1c1.6-1.5,2.2-3.1,2.4-5.1
				c0.3-3.3,0.5-6.5,0.5-9.8c0-1.8,0.8-5.7-0.8-5.5c-1.7,0.2-1,5.1-1.2,7.7c-0.2,2-1,3.7-2.3,5.2c-1.1,1.3-3,1.5-3.9,0.1
				c-0.4-0.5-0.5-1.2-0.5-1.9c-0.3-2.7-0.5-5.4-0.7-8.1c-0.1-1.3-0.2-3.5-1.8-3.6s-1.7,7.9-1.4,10.5c0.4,4,0.7,8.1,3.5,11.4
				c0.4,0.5,0.5,1.2,0.6,1.9c0.2,3.6,0.4,7.1,0.4,10.7C164.8,690.8,165.2,693.9,166.2,693.9z"/>
			<path class="st1" d="M211.1,653.7c-2.1-0.6-1.2,5.1-1.6,6.7c-0.3,1.3-2.7,1.5-4.1,1.1c-1.6-0.4-1.5-1.7-1.7-3
				c-0.1-1.5-0.4-3.1-0.7-4.5c-0.2-0.8-1.7-1.9-2.1-0.5s0.9,13.7,2,14.3c1.2,0.7,3.2-0.4,3.4,1.7c0.1,1.5,0.1,3.1,0.4,4.6
				c0.3,1.9,0.3,5.6,1.8,5.6c1.6,0,0.4-6.8,0.2-8.3c-0.2-1.5,0.1-2.4,1.7-2.9c1-0.3,1.3,0.5,1.4-2.5S213.2,654.3,211.1,653.7z"/>
			<path class="st1" d="M253.2,693c1.6,0,2.1-3.8,2-5.7c-0.3-3.6-0.6-7.3-1.2-10.9c-0.3-1.7,0.1-2.8,1.7-3.5c2.3-1,3.1-2.8,2.8-5.2
				c-0.4-3.7-0.7-7.5-1.4-11.2c-0.3-1.7-0.8-5-2.1-5c-1.3,0-1.4,2.4-1.6,3.7c-0.6,3.2,0.1,6.5-0.7,9.7c-0.4,1.4-1.3,2.1-2.3,2.2
				c-0.8,0.1-1.9-0.5-2.4-1.1c-1-1.4-2-3.6-1.9-5.5c0-1.8,0-6.6-1.4-6.4c-1.3,0.1-1.3,2.6-1.3,4c0,3.3,0.1,6.6,1.3,9.7
				c1.1,3,2,6.2,5.7,7.4c1.4,0.4,2,1.6,1.8,3.2c-0.3,3.3-0.3,6.5-0.5,9.8C251.6,689.9,251.6,693,253.2,693z"/>
			<path class="st1" d="M156.5,734.3c1,0,1.5-5.8,1.4-8.7c-0.1-2.4,0.8-4.3,2.6-5.9c0.6-0.5,1.2-1.3,1.3-2.1
				c0.2-4.4,1.2-13.2-0.2-13.2c-1.5,0-0.7,1.7-0.8,2.6c-0.2,1.5-0.2,3.1-0.4,4.6c-0.2,1.6-1.5,2.9-3,3c-1.2,0.1-2.9-1-3.3-2.4
				c-0.3-1-0.3-2.1-0.4-3.1c-0.1-1,0.5-3-0.5-3.1c-1-0.1-0.5,1.8-0.6,2.7c-0.1,2.4,0,4.8,0,7.3c0,1.6,0.2,2.9,1.7,4
				c0.7,0.5,1.2,1.8,1.3,2.7c0.2,1.9,0,3.8-0.1,5.7C155.7,730.3,155.5,734.3,156.5,734.3z"/>
			<path class="st1" d="M254.9,704.5c-1.4-0.5-1.7,1.5-1.7,2.5c0.1,2.2,0.3,4.4,0.6,6.6c0.2,1.4-0.3,3,1,4c1.2,1,4.1,0.8,4.2,4.4
				c0,0.7-0.1,1.3-0.1,2c-0.1,2.6-0.1,8,1.2,8.1c1.3,0.1,1-2.7,1-3.7c0.2-2.2,0-4.4,0.1-6.6c0.1-0.9,0.3-2.2,0.9-2.6
				c1.6-1.1,2-2.5,2-4.2c0.1-2.9,0.3-5.8,0.2-8.7c0-1-0.5-3.5-1.5-3.4c-0.9,0.1,0.2,4.3-0.1,6.3c-0.2,1.5-0.3,3.4-1.3,4.3
				c-1.3,1.1-2.9,1-3.8,0.6s-1.9-2.6-2-4.4C255.5,708,256.2,705,254.9,704.5z"/>
			<path class="st1" d="M249.5,746.6c-0.1,1-1,2.2-1.8,2.8c-1.2,0.8-1.6,1.8-1.5,3.2c0.1,2.8,0.3,5.6,0.3,8.4c0,1.3,0.6,4.2-1,4.2
				c-1.1,0-0.8-1.6-0.8-2.3c-0.1-3.2-0.2-6.4-0.2-9.6c0-3.7-0.7-4.7-4.3-5.5c-0.8-0.2-1.3-0.6-1.4-1.5c-0.3-1.5-0.9-3-1.1-4.5
				c-0.6-3.1-1.1-6.2-1.6-9.3c-0.2-1.2,1.1-3,2-2.2c0.9,0.8,0.7,4.4,1,6.7c0.2,1.9,0.6,3.6,2.1,5c2,1.8,4.3,1.3,4.7-1.3
				c0.3-1.9-0.1-3.8-0.2-5.7c0-0.8-0.4-1.5-0.3-2.3c0.1-1.5-0.8-3.9,0.7-4.6c1.5-0.7,3.2,1.8,3.5,3.8
				C250.3,736.6,249.9,741.6,249.5,746.6z"/>
			<path class="st1" d="M177.7,735.2c-1.3-0.2-0.9,1.5-1,2.3c0,1.1,0.1,2.1,0,3.2c-0.1,2.2-0.7,4.2-2.1,5.9c-1.8,2.3-4.1,2-5-0.7
				c-0.5-1.6-0.4-3.4-0.5-5.1c-0.1-1.4,0.1-2.9,0-4.3c0-0.5,0.1-1.2-0.9-1.3c-1.5-0.2-1.8,2-1.8,2.5c-0.2,4.2-0.7,8.5,0.8,12.6
				c0.2,0.6,0.5,1.3,1,1.6c1.8,1.1,2,2.7,2.1,4.5c0.1,3.1,0.2,6.2,0.5,9.3c0,0.6-0.4,1.7,1.1,1.9c1.5,0.2,1.2-4.3,1.2-6.5
				c0-3.1,3-7.5,4.6-10.1S179,735.4,177.7,735.2z"/>
			<polygon class="st1" points="206.1,774.2 213.4,774 214.5,767.6 218.4,762.7 218.4,751.9 216.1,746.4 214,746.4 212.3,748.9 
				210.5,758.1 208,757.8 207.7,753.7 206.5,748.9 203.6,747.8 202,750.2 200.8,760.3 200.8,766.4 205.2,769.9 205.2,774 			"/>
		</g>
		<g>
			<path class="st10" d="M187.3,667c-2.3,0-3.5,0.9-4.5,2.3c-2.8,3.7-5.6,7.4-8.5,11.1c0.3,0.1,0.7,0.3,0.8,0.3
				c4.2-3.5,8.2-7.2,11.6-11.5C187.1,668.7,187.1,668,187.3,667z"/>
			<path class="st10" d="M243.1,679.9c0-1.1-10.3-10.3-11.2-10.3s-1.1,2.1-0.1,2.9c3.2,2.6,6.4,5.3,9.6,7.9
				C242.3,681.1,243.1,680.9,243.1,679.9z"/>
			<path class="st10" d="M234.6,753.7c-0.3-0.1-0.5-0.1-0.7-0.2c-2.6-2.6-5.1-5.2-7.8-7.7c-1.9-1.7-2.2-3.7-2-6.2
				c1.1,0,2.1,0.1,2.8,1.1c2.8,3.8,5.6,7.6,8.5,11.5C235.2,752.7,234.9,753.2,234.6,753.7z"/>
			<path class="st10" d="M195.1,743.6c-0.2-0.1-2.4-0.1-4,1.4c-1.6,1.4-8.3,6.9-9.2,9.5c-0.2,0.5,0.8,1.3,1,1.6
				c1.1,1.5,7.8-5,10.6-8.1C193.8,747.3,194.8,744.3,195.1,743.6z"/>
		</g>
		<g>
			<path class="st4" d="M156.2,682.9c-4.5,0.5-6.7,4.3-5.4,9C152.6,688.9,154.3,686.1,156.2,682.9z"/>
			<path class="st4" d="M154.9,693.9c4.5-1.4,5.6-3.4,4.9-8.3C158.1,688.5,156.6,691,154.9,693.9z"/>
			<path class="st4" d="M259.9,686c1.3-3.3,2.6-6.4,4-9.8C258.7,677.1,257.8,681.8,259.9,686z"/>
			<path class="st4" d="M267.4,678.5c-1.3,3-2.6,6.2-3.7,9C267.8,686.9,269.5,682.9,267.4,678.5z"/>
			<path class="st4" d="M203.8,725.3c2.6,0.6,5.1,0,7.5-0.9c0.5-0.2,0.9-1.2,1-1.8c0.1-0.8-0.1-1.4-0.4-2.6
				c-0.2-0.6-1.1-1.6,0.5-1.9c1.6-0.3,2.1,2.7,2.8,4.2c2.4-0.9,7.3-4.1,8.3-5.9c2.3-4,2-11,0.1-14.2c-1.9-3.2-6.4-6.7-11-8.3
				c-3.5-1.2-6.7-1.5-10.1-0.4c-6.3,2-10.7,6.1-13.2,12.1c-1,2.4-1.7,4.9-0.9,7.7c0.8-0.2,1.1-0.4,2.3-0.5c1.2-0.1,1.4,0.6,1.7,1.1
				c0.4,0.8-0.2,1.5-1.1,1.7c-0.8,0.2-1.6,0.4-2.5,0.6c2.1,5.3,6.6,6.6,11.1,7.9c0.7-1.1,0.5-2.6,1.6-2.7S203.9,722.3,203.8,725.3z"
				/>
			<path class="st4" d="M254.5,763c-2.1-3.8-1.6-7.2-0.2-10c1.2-2.5,4-3,7.6-2.6C259.4,754.7,257.1,758.6,254.5,763z"/>
			<path class="st4" d="M258,764.8c2.4-3.6,4.8-7.3,7.3-11.2C266.9,761.2,264,765.5,258,764.8z"/>
			<path class="st4" d="M155.6,767.3c2-3.3,3.9-6.5,5.9-9.9c-2.8-0.9-4.4,0.5-5.7,2.2C154.3,761.9,154.1,764.5,155.6,767.3z"/>
			<path class="st4" d="M166,760.3c-1.2,1.8-2.1,3.4-3.2,4.8c-1,1.4-2,2.8-2.5,4.7C166,768.7,167.8,764.9,166,760.3z"/>
		</g>
		<path d="M140.8,751.9c0-1.8,0.1-3.7,0.1-5.5c0-5.9-0.2-11.8-0.1-17.7c0.1-5.1,0.4-10.3,0.5-15.4c0.1-6,0.1-11.9,0.1-17.9
			c0-5.9,0-11.8,0.2-17.7c0.2-4.7,0.9-9.5,1-14.2c0.1-3.8-0.1-7.5-0.2-11.3c0-1.3-0.1-2.5,0.1-3.8c0.3-1.8,1-2.4,2.9-2.3
			c4.9,0.1,9.8,0.4,14.7,0.3c4.2-0.1,21-0.2,23.3-0.3c4-0.1,7.9-0.5,11.9-0.7c0.5,0,1-0.1,1.4-0.1c7.5,0.7,14.9-1,22.3-1
			c5.6,0,11.2-0.9,16.8-0.5c5.4,0.4,10.8-0.1,16.2-0.2c1,0,1.9,0,2.9,0c5.2,0.2,10.4,0.4,15.6,0.6c0.7,0,5.5-0.1,7.2,1.3
			c1.8,1.5,1.7,4.7,1.7,7c0,8.6-0.3,17.2-0.3,25.8c0,5.2,0.5,10.4,0.5,15.7c0,5.3-0.1,10.6-0.3,15.9c-0.2,6.5-0.5,13-0.8,19.4
			c-0.4,6.9-0.9,13.9-1.3,20.8c-0.2,3.3,0.1,6.6-0.2,9.9c-0.3,3.5-0.8,6.9-1.5,10.3c-0.4,2.3-1.7,4.1-4.4,4.3
			c-2.1,0.2-4.2,0.4-6.3,0.6c-5,0.5-10,1-15,1.3c-4.5,0.3-9,0.2-13.6,0.3c-3.5,0.1-7,0.1-10.4,0.3c-5.5,0.2-11,0.4-16.5,0.7
			c-6.3,0.3-12.6,0.7-18.8,0.9c-4.8,0.2-9.7,0.5-14.5,0.4c-9.9-0.2-19.7-0.6-29.6-0.9c-0.5,0-1-0.1-1.4-0.1
			c-3.3-0.4-2.8-0.6-4.2-3.6c-1.9-4.2-0.7-8.3-0.5-12.5C140.5,758.8,140.7,752,140.8,751.9z M182.1,649.9c-11.7-0.1-23.5,0.7-35-0.9
			c-1,1-0.9,7.3-1,8.2c-0.3,5.7-0.6,11.4-0.9,17.1c-0.2,3.5-0.2,6.9-0.1,10.4c0.1,4.5-0.3,9-0.3,13.5c0,4.7,0.3,9.5,0.2,14.2
			c-0.1,4.8-0.5,9.7-0.7,14.5c-0.1,2.2-0.2,4.5-0.2,6.7c0,6.4,0,12.8,0,19.2c0,1.7-1.1,16.5-0.2,20.5c1,0.1,1.9,0.2,2.7,0.3
			c1.1,0,2.1,0,3.2-0.1c9.5-0.9,18.9-1.2,28.4-0.7c2.2,0.1,4.4,0,6.7-0.1c5.1-0.1,31.6-0.6,36.9-0.5c2.6,0.1,5.2-0.4,7.9-0.4
			c4.1,0,8.2-0.7,12.3-0.8c6.9-0.2,13.7-0.1,20.6-0.2c2.1,0,7.8-2.1,8.1-1.4c0.5-1.1,0.7-2.1,0.8-3.2c0.2-7.2,0.5-14.5,0.6-21.7
			c0-0.2,0.5-3.1,0.2-4.6c-0.3-1.9-0.3-3.9-0.3-5.8c0.1-6.4,0.2-12.9,0.4-19.3c0-0.8,0-1.6-0.1-2.3c-0.6-2.7,2.6-57.9,0.7-63.7
			c-0.8,0-1.5,0.1-2.3,0.1c-7.8-0.5-15.6-1.2-23.4-1.5c-5.5-0.2-11,0.1-16.5,0.2c-0.4,0-0.8,0-1.2,0c-5.1,0.4-26.7,1.5-27.2,1.5
			c-4.8,0.1-9.6,0.4-14.5,0.6C186,649.6,184,649.8,182.1,649.9L182.1,649.9z"/>
		<path d="M232.8,718.4c-1.4-0.5-2.7-0.9-4.2-1.4c-3.5,3.9-7.4,7.5-12.8,9.6c0.5,1.7,1,3.3,1.6,5.1c1.2-0.1,2.4-0.2,3.5-0.3
			c1.6-0.2,2.7,0.7,2.4,2.2c-0.3,1.4-5.7,1.8-8.6,2.2c-2.1,0.3-3-1.6-2.5-2.3s1.4-0.8,2.4-1.1c-0.4-1.5-0.9-3-1.3-4.5
			c-4.1,0.3-7.9,1.4-12.5,0.4c-0.8,1.5-1.1,2.1-2,3.8c0.7,0.6,1.5,1.1,2.1,1.8c0.8,1,0.2,2.2-0.9,2c-2.5-0.4-5-1-6.6-3
			c-0.4-0.5-1.6-2.8-0.4-3.1c1.1-0.3,2.2,0.8,3,1.3c0.6-1.2,1.2-2.4,2-3.8c-5.3-2-10-4.5-11.7-10.1c-0.7,0.2-1.1,0.2-1.4,0.3
			c-0.4,0.1-0.7,0.4-1.1,0.6c0.1,0.4,0.2,0.7,0.4,1c0.9,2.1,0.8,3.3-0.1,3.6c-1,0.4-1.6-0.2-2.4-2.6c-1-2.8-3.7-8-1.9-8.8
			c1.7-0.8,2.7,2,3.6,3.3c0.7-0.2,1.4-0.5,1.9-0.6c0.1-3.8,0.3-9.9,4.2-15.3c-1.4-0.9-3-1.9-4.8-3.1c-0.8,1.1-1.5,2.1-2.3,3.3
			c-0.7,1-1.4,1-3.1,0.3c-0.6-0.3-0.4-1.5-0.2-2c1.3-3.1,2.9-5.9,5.7-7.9c0.9-0.6,1.7-0.8,2.7-0.3c1.7,1,1.8,2.1,0.3,3.6
			c-0.2,0.2-0.4,0.4-0.6,0.7c1.1,1.5,2.7,2.1,4.4,2.6c0.5,0.1,1.3,0.1,1.6-0.2c2.6-2.7,6-4.2,9.3-5.7c0.1,0,0.1-0.3,0.2-0.5
			c-2.9-0.1-3.9-2.6-2.6-3.3c1.3-0.6,3.5-0.6,5.2-0.7c0.6,0,1.5,0.5,1.7,1.1c0.5,1-0.3,1.6-1.2,1.8c-0.2,0-0.1,0.7-0.1,0.7
			c1.7,0.5,3.1,0.1,4.8,0.5c1.7,0.3,3.3,0.9,5,1.3c1.3-1.3,2-2.7,1.2-4.6c-0.2-0.4-0.7-1.2,0.2-1.5c0.8-0.2,2.5-0.4,3.5-0.2
			c1.4,0.4,2.9,1,4.1,1.8c0.6,0.4,1.6,1.6,1.3,2.5c-0.3,0.9-2,0.1-2.7,0c-2.5-0.5-2.5-0.6-3.8,1.7c-0.3,0.5-0.5,1-0.8,1.7
			c3.9,1.5,6.8,4.2,9,8c2-1.2,3.9-2.2,5.6-3.2c0.1-1.7-2-3.6,0.1-4.4s4.3,5.4,4.5,6.7c0.1,1.3-1.4,2.2-3.4,0.8c-1.7,1-3.4,2-5,3
			c1.5,4.1,1.5,7,0.7,10.4c3.8,2.5,5.4-0.8,6.9-1.8c1.4-1,2.4,1.2,1.8,2.7c-0.9,2.1-1.8,4.1-2.8,6.1c-0.3,0.5-0.9,1.8-2.2,1.1
			C232.5,721.3,232.8,719,232.8,718.4z M203.8,725.3c2.6,0.6,5.1,0,7.5-0.9c0.5-0.2,0.9-1.2,1-1.8c0.1-0.8-0.1-1.4-0.4-2.6
			c-0.2-0.6-1.1-1.6,0.5-1.9c1.6-0.3,2.1,2.7,2.8,4.2c2.4-0.9,7.3-4.1,8.3-5.9c2.3-4,2-11,0.1-14.2c-1.9-3.2-6.4-6.7-11-8.3
			c-3.5-1.2-6.7-1.5-10.1-0.4c-6.3,2-10.7,6.1-13.2,12.1c-1,2.4-1.7,4.9-0.9,7.7c0.8-0.2,1.1-0.4,2.3-0.5c1.2-0.1,1.4,0.6,1.7,1.1
			c0.4,0.8-0.2,1.5-1.1,1.7c-0.8,0.2-1.6,0.4-2.5,0.6c2.1,5.3,6.6,6.6,11.1,7.9c0.7-1.1,0.5-2.6,1.6-2.7S203.9,722.3,203.8,725.3z"
			/>
		<path d="M184.2,758.8c0.4,0.4,0.7,0.7,0.9,1.1c0.6,1.3,0.3,1.9-1.1,2.3c-2.3,0.7-2.7,0.6-4-1.5c-0.3-0.4-0.5-0.8-0.9-1.2
			c-1,0.6-1.9,1.1-2.8,1.6c-0.2,1.9-0.3,3.8-0.8,5.7c-1,4-2.8,4.7-6.3,2.6c-0.2-0.1-0.5-0.3-0.6-0.4c-1.4,1-2.8,1.8-3.9,2.9
			c-2.2,2.1-5,0.7-7.4,1.3c-0.3,0.1-0.7-0.2-1-0.4c-5.6-4-6.2-11.2-2.7-15.6c2.1-2.6,5-3.7,8.3-2.9c1.8,0.4,3.4,1.2,5.3,1.8
			c0.3-0.6,0.1-1.4-0.7-1.9c-2.3-1.4-2.8-3.7-3.1-6c-0.5-4.1-0.4-8.3,0.6-12.4c0.4-1.9,2.1-3.3,3.6-3.2c2.4,0.2,4.4,1.6,4.6,3.7
			c0.2,2.1,0,4.2,0,6.3c0,0.5,0,1.1,0,2.2c1.9-2.3,1.9-4.6,2-6.9c0.1-1.1-0.1-2.3,0.1-3.4c0.2-1.5,1.1-2.8,2.7-3.1
			c1.7-0.3,2.4,1,3,2.2c1.4,2.9,2.2,6,2.2,9.2c-0.1,3.4,0.2,6.8-2.2,9.7c0.4,0.1,0.7,0.2,0.7,0.2c2.3-2.4,4.7-4.6,6.7-7.2
			c2-2.6,4.8-3.8,7.6-5.1c1.3-0.7,2.5,0.3,2.4,1.8c-0.1,1.6-0.6,4.3-0.9,5.9c-0.1,0.8-8.2,7.2-10.7,9.3
			C185.2,757.8,184.7,758.2,184.2,758.8z M177.7,735.2c-1.3-0.2-0.9,1.5-1,2.3c0,1.1,0.1,2.1,0,3.2c-0.1,2.2-0.7,4.2-2.1,5.9
			c-1.8,2.3-4.1,2-5-0.7c-0.5-1.6-0.4-3.4-0.5-5.1c-0.1-1.4,0.1-2.9,0-4.3c0-0.5,0.1-1.2-0.9-1.3c-1.5-0.2-1.8,2-1.8,2.5
			c-0.2,4.2-0.7,8.5,0.8,12.6c0.2,0.6,0.5,1.3,1,1.6c1.8,1.1,2,2.7,2.1,4.5c0.1,3.1,0.2,6.2,0.5,9.3c0,0.6-0.4,1.7,1.1,1.9
			c1.5,0.2,1.2-4.3,1.2-6.5c0-3.1,3-7.5,4.6-10.1S179,735.4,177.7,735.2z M155.6,767.3c2-3.3,3.9-6.5,5.9-9.9
			c-2.8-0.9-4.4,0.5-5.7,2.2C154.3,761.9,154.1,764.5,155.6,767.3z M195.1,743.6c-0.2-0.1-2.4-0.1-4,1.4c-1.6,1.4-8.3,6.9-9.2,9.5
			c-0.2,0.5,0.8,1.3,1,1.6c1.1,1.5,7.8-5,10.6-8.1C193.8,747.3,194.8,744.3,195.1,743.6z M166,760.3c-1.2,1.8-2.1,3.4-3.2,4.8
			c-1,1.4-2,2.8-2.5,4.7C166,768.7,167.8,764.9,166,760.3z"/>
		<path d="M171.4,677.9c1.9,0.5,2.2-0.6,2.7-1.3c2.5-3.4,5-6.8,7.5-10.2c0.4-0.5,0.9-1,1.4-1.2c1.4-0.5,2.9-0.9,4.4-1.3
			c1.6-0.5,2.5,0,2.6,1.7c0.1,1.3,0.1,2.7-0.1,4.1c-0.1,0.7-0.7,1.3-1.2,1.8c-0.6,0.6-1.4,1-2,1.6c-3.1,3.1-6.2,6.3-9.4,9.6
			c0.1,0.9,1.9,1.7,0.3,3.2c-1.6,1.5-7.3-3.3-8.3-4.2c0,2.6,0.4,7,0.3,9.3c-0.1,1.1-0.4,2.3-0.8,3.3c-0.6,1.4-1.5,2.4-3.3,2.2
			c-1.8-0.2-2.4-0.7-3.1-2.9c-0.1-0.3-0.2-2.1-0.3-2.6c-2,3.9-4.2,5.2-6.9,5.2c-1.6,0-3-0.1-4.3-0.9c-3.3-1.8-4.2-6.1-2.8-10
			c0.8-2.2,2.3-3.7,4.3-4.9c1.8-1.2,4.2-0.9,6.8,0.2c0.6-0.6,1.4-1.4,2.2-2.1c-0.1-0.3,0-0.6-0.1-0.7c-3.1-2.3-3-5.9-3.3-9.1
			c-0.4-3.7-0.3-7.6-0.2-11.3c0.1-2.9,2.7-5.2,4.8-5.3c2.1-0.1,3.5,3.4,3.9,5c0.4,1.8,0.2,3.8,0.4,5.7c0,0.5,0.1,2.4,0.8,2.5
			s0.5-4.9,0.7-6.7c0.2-1.7,0.4-3.5,0.9-5.1c0.3-0.9,1.3-1.9,2.1-2.1c1.4-0.2,2.6,0.7,3.2,2c0.2,0.5,0.4,1.1,0.4,1.7
			c0.8,5.3,1.4,10.5,0.2,15.8C174.6,673.7,173.5,675.9,171.4,677.9z M166.2,693.9c1,0,0.9-2.6,0.9-3.9c0.1-2.8,0-5.6,0-8.4
			c-0.1-2.5,1.1-4.6,2.8-6.1c1.6-1.5,2.2-3.1,2.4-5.1c0.3-3.3,0.5-6.5,0.5-9.8c0-1.8,0.8-5.7-0.8-5.5c-1.7,0.2-1,5.1-1.2,7.7
			c-0.2,2-1,3.7-2.3,5.2c-1.1,1.3-3,1.5-3.9,0.1c-0.4-0.5-0.5-1.2-0.5-1.9c-0.3-2.7-0.5-5.4-0.7-8.1c-0.1-1.3-0.2-3.5-1.8-3.6
			s-1.7,7.9-1.4,10.5c0.4,4,0.7,8.1,3.5,11.4c0.4,0.5,0.5,1.2,0.6,1.9c0.2,3.6,0.4,7.1,0.4,10.7
			C164.8,690.8,165.2,693.9,166.2,693.9z M187.3,667c-2.3,0-3.5,0.9-4.5,2.3c-2.8,3.7-5.6,7.4-8.5,11.1c0.3,0.1,0.7,0.3,0.8,0.3
			c4.2-3.5,8.2-7.2,11.6-11.5C187.1,668.7,187.1,668,187.3,667z M156.2,682.9c-4.5,0.5-6.7,4.3-5.4,9
			C152.6,688.9,154.3,686.1,156.2,682.9z M154.9,693.9c4.5-1.4,5.6-3.4,4.9-8.3C158.1,688.5,156.6,691,154.9,693.9z"/>
		<path d="M244.4,676.9c1.4-0.8,1.1-1.6,0.5-2.4c-2-2.6-3.3-5.5-3.8-8.7c-0.3-1.8-0.6-10.3,0.4-12c0.8-1.4,2.1-2.7,3.3-2.7
			c1.3,0,2.9,1.3,3.3,2.9c0.5,2.3,0.8,4.6,1.2,6.8c0.2,0.9,0.4,3,1,2.9c0.7-0.2,0.6-8.7,0.7-11.7c0-1.4,1.9-2.8,3.2-2.9
			c1.6-0.2,3.6,0.8,4.2,2.5c1,2.8,1.8,5.7,2.4,8.6c0.5,2.4,0.3,5,0.6,7.5c0.4,3.1-0.6,5.5-3.3,7.1c-0.2,0.1-0.3,0.2-0.4,0.4
			c0,0.1,0.3,1.3,0.3,1.7c1.8-1.8,5.5-3.9,8.3-2.3c2,1.1,3.1,1.9,4,4.1c1.6,3.7,0.8,7.1-2.4,10.2c-2.2,2.1-6,2-9.6-0.3
			c-0.3,1.2-0.6,2.2-0.9,3.3c-0.5,2.1-1.6,3.3-3,3.4c-2.3,0.1-4.5-1.2-4.9-3.2c-0.5-2.3-0.6-4.6-1-7.3c-1-0.6-2.3-1.3-3.6-2.1
			c-0.7,0.9-1.2,1.7-1.8,2.5c-0.6,0.8-1.2,1.7-2.4,1.1c-1.4-0.7-0.6-1.8-0.1-3c-3.7-3-7.4-6-11.1-9c-1.3-1.1-2-5.1-0.9-6.3
			c0.7-0.9,3.6-1,4.9-0.2c0.9,0.6,1.7,1.2,2.5,1.9c2.2,1.9,4.3,3.9,6.4,5.8C243.1,676.1,243.8,676.5,244.4,676.9z M253.2,693
			c1.6,0,2.1-3.8,2-5.7c-0.3-3.6-0.6-7.3-1.2-10.9c-0.3-1.7,0.1-2.8,1.7-3.5c2.3-1,3.1-2.8,2.8-5.2c-0.4-3.7-0.7-7.5-1.4-11.2
			c-0.3-1.7-0.8-5-2.1-5c-1.3,0-1.4,2.4-1.6,3.7c-0.6,3.2,0.1,6.5-0.7,9.7c-0.4,1.4-1.3,2.1-2.3,2.2c-0.8,0.1-1.9-0.5-2.4-1.1
			c-1-1.4-2-3.6-1.9-5.5c0-1.8,0-6.6-1.4-6.4c-1.3,0.1-1.3,2.6-1.3,4c0,3.3,0.1,6.6,1.3,9.7c1.1,3,2,6.2,5.7,7.4
			c1.4,0.4,2,1.6,1.8,3.2c-0.3,3.3-0.3,6.5-0.5,9.8C251.6,689.9,251.6,693,253.2,693z M243.1,679.9c0-1.1-10.3-10.3-11.2-10.3
			s-1.1,2.1-0.1,2.9c3.2,2.6,6.4,5.3,9.6,7.9C242.3,681.1,243.1,680.9,243.1,679.9z M259.9,686c1.3-3.3,2.6-6.4,4-9.8
			C258.7,677.1,257.8,681.8,259.9,686z M267.4,678.5c-1.3,3-2.6,6.2-3.7,9C267.8,686.9,269.5,682.9,267.4,678.5z M248.6,681.3
			c0.4-2.4,0.4-2.4-0.5-3.7C246.5,680,246.5,680,248.6,681.3z"/>
		<path d="M157.5,710.8c0.3-2.1,0.4-4.1,0.8-6.2c0.3-1.4,0.9-2.7,2.5-3.3c2.2-0.7,3.5-0.2,3.9,2c0.4,2.4,0.6,4.8,0.6,7.2
			c0.1,2.4-0.3,4.8-0.3,7.2c0.1,2-0.7,3.4-2.4,4.2c-0.9,0.5-1.3,1.1-1.4,2c-0.1,1-0.3,1.9-0.4,2.9c-0.1,3.3-1,9.3-2.2,9.6
			s-1.3,0.4-1.9,0.4c-2.1,0.2-3.5-0.5-3.7-2.6c-0.3-2.7-0.5-5.6-0.3-8.3c0.2-2.3,0.1-4.1-2-5.6c-0.7-0.5-1.2-1.6-1.2-2.4
			c0.1-4.3,0.3-8.7,0.6-13c0.1-1.1,1.4-3,3.1-2.9c1.7,0,1.8,0.4,2.2,0.8c1.2,1.5,1.6,3.2,1.5,5.1c-0.1,1,0.1,1.9,0.1,2.9
			C157.2,710.8,157.4,710.8,157.5,710.8z M156.5,734.3c1,0,1.5-5.8,1.4-8.7c-0.1-2.4,0.8-4.3,2.6-5.9c0.6-0.5,1.2-1.3,1.3-2.1
			c0.2-4.4,1.2-13.2-0.2-13.2c-1.5,0-0.7,1.7-0.8,2.6c-0.2,1.5-0.2,3.1-0.4,4.6c-0.2,1.6-1.5,2.9-3,3c-1.2,0.1-2.9-1-3.3-2.4
			c-0.3-1-0.3-2.1-0.4-3.1c-0.1-1,0.5-3-0.5-3.1c-1-0.1-0.5,1.8-0.6,2.7c-0.1,2.4,0,4.8,0,7.3c0,1.6,0.2,2.9,1.7,4
			c0.7,0.5,1.2,1.8,1.3,2.7c0.2,1.9,0,3.8-0.1,5.7C155.7,730.3,155.5,734.3,156.5,734.3z"/>
		<path d="M260,705.2c0-3.7,2.1-5.2,3.8-5.2s3.1,2.7,3.3,5.2c0.4,3.7,0.5,7.3-0.1,11c-0.2,1.5-0.7,2.9-1.8,3.8
			c-1,0.9-1.1,1.8-1.2,3.1c-0.1,3-0.6,9.1-1.2,10.3c-0.7,1.1-2.1,1.8-3.6,1.6c-1.5-0.1-1.9-1.1-2.3-2.3c-1-3.3-1.2-6.6-1-10
			c0-0.6,0.5-1.7-1-2.1c-2.8-0.9-3.6-2.4-3.8-5.1c-0.3-3.2-0.6-6.4-0.6-9.5c-0.1-3.2,0.8-4.1,3.4-4.4c2.1-0.2,4.4,1.5,4.8,3.8
			c0.2,1.3,0.2,2.7,0.3,4.1c0,0.4-0.1,1.6,0.7,1.5C261,710.7,260,707,260,705.2z M254.9,704.5c-1.4-0.5-1.7,1.5-1.7,2.5
			c0.1,2.2,0.3,4.4,0.6,6.6c0.2,1.4-0.3,3,1,4c1.2,1,4.1,0.8,4.2,4.4c0,0.7-0.1,1.3-0.1,2c-0.1,2.6-0.1,8,1.2,8.1
			c1.3,0.1,1-2.7,1-3.7c0.2-2.2,0-4.4,0.1-6.6c0.1-0.9,0.3-2.2,0.9-2.6c1.6-1.1,2-2.5,2-4.2c0.1-2.9,0.3-5.8,0.2-8.7
			c0-1-0.5-3.5-1.5-3.4c-0.9,0.1,0.2,4.3-0.1,6.3c-0.2,1.5-0.3,3.4-1.3,4.3c-1.3,1.1-2.9,1-3.8,0.6s-1.9-2.6-2-4.4
			C255.5,708,256.2,705,254.9,704.5z"/>
		<path d="M204.5,670.7c-3.6-0.6-5.1-3.2-5.5-5.8c-0.4-3-0.7-5.9-0.9-8.9c-0.1-1.1,0.2-2.3,0.5-3.4c0.5-1.5,1.9-2.2,3.4-2.2
			c1.9,0.1,3.1,1.2,3.6,2.9c0.6,1.7,0.1,5.9,1.4,5.8c1.4,0,0.6-2.7,0.8-3.8c0.1-0.6-0.1-1.2,0-1.7c0.1-2,0.9-3,2.7-3.2
			c1.1-0.1,2.9,1.2,3.1,2.5c0.6,4.1,0.5,8.6,0.5,12.8c-0.3,1.9-0.9,4.5-2.2,4.5c-1.3,0-0.2,7.6-0.4,9.7c-0.1,1.6-1.6,1.9-3,2.2
			c-2,0-3-3.3-3.4-5.1C204.8,675.8,204.5,671.8,204.5,670.7z M211.1,653.7c-2.1-0.6-1.2,5.1-1.6,6.7c-0.3,1.3-2.7,1.5-4.1,1.1
			c-1.6-0.4-1.5-1.7-1.7-3c-0.1-1.5-0.4-3.1-0.7-4.5c-0.2-0.8-1.7-1.9-2.1-0.5s0.9,13.7,2,14.3c1.2,0.7,3.2-0.4,3.4,1.7
			c0.1,1.5,0.1,3.1,0.4,4.6c0.3,1.9,0.3,5.6,1.8,5.6c1.6,0,0.4-6.8,0.2-8.3c-0.2-1.5,0.1-2.4,1.7-2.9c1-0.3,1.3,0.5,1.4-2.5
			S213.2,654.3,211.1,653.7z"/>
		<path d="M201.3,708.5c0-1.5,0.8-2.6,1.8-2.6c1.2,0,2.8,1.5,2.8,2.8c0,1.1-1.2,2.2-2.6,2.1C201.9,710.8,201.3,710,201.3,708.5z"/>
		<path d="M212.1,710c-1.4,0-2.1-0.8-2.2-2.2c0-1.5,1-2.7,2.1-2.6c1.1,0.1,2.4,1.6,2.4,2.9C214.5,709.3,213.6,710,212.1,710z"/>
		<path d="M214.8,748.1c-1.7,0-1.3,4.8-1.8,7.3c-0.2,1-0.3,2.2-0.7,3.1c-0.5,1.2-1,2.6-2.8,2.4c-1.8-0.2-2.8-1-3.2-2.8
			c-0.3-1.6-0.6-3.3-0.3-4.9c0.3-1.6,0.5-3.8-1.1-4c-1.6-0.1-1.7,2-1.8,3.1c-0.4,3.4-0.4,6.9-0.6,10.4c-0.2,2.2,0.8,3.6,2.4,4.9
			c2.1,1.7,2.2,4,2.1,6.4c-1.9,0.4-2.7-0.4-3.1-1.8c-0.3-1.4-0.9-2.4-2.1-3.2c-1.8-1.2-2.2-3.1-2.4-5c-0.5-5,0.2-9.9,1.1-14.7
			c0.4-2.2,1.5-2.9,3.9-2.9c1.9,0,3.8,1.1,4.1,2.9c0.4,2.4,0.5,4.9,0.8,7.4c0.1-0.4,0.4-0.8,0.5-1.3c0.6-2.7,1.2-5.5,1.7-8.2
			c0.3-1.6,1.5-2.3,2.8-2.6c1.2-0.3,2.1,0.5,2.9,1.5c1.6,1.8,2.2,3.9,2.6,6c1,5.9,0.4,11.5-3.4,16.5c-0.7,1-0.8,2.5-1.1,3.8
			c-0.2,1.3,0,2.7-1.4,3.8c-1.1-0.2-2-0.7-1.8-2c0.4-3.2,0.6-6.4,2.7-9.3C219.2,758.6,216.5,748.2,214.8,748.1z"/>
		<path d="M210.5,766.3c-0.8-0.1-1.2-1.3-0.7-1.8c0.4-0.5,1.1-0.4,1.5,0.1C211.7,765.1,211.3,766.4,210.5,766.3z"/>
		<path d="M208.9,765.6c-0.3,0.6-0.3,0.6-0.6,0.7c-0.5,0.2-1.3-0.3-1.3-0.8c-0.1-0.5,0.5-1.3,0.9-1.3
			C208.6,764.2,209.2,765,208.9,765.6z"/>
		<path d="M173.8,752.9c-0.8-0.1-1.2-1.3-0.7-1.8c0.4-0.5,1.1-0.4,1.5,0.1C175.1,751.7,174.7,753,173.8,752.9z"/>
		<path d="M172.3,752.2c-0.3,0.6-0.3,0.6-0.6,0.7c-0.5,0.2-1.3-0.3-1.3-0.8c-0.1-0.5,0.5-1.3,0.9-1.3
			C171.9,750.8,172.6,751.6,172.3,752.2z"/>
		<path d="M246.4,747.5c-0.8-0.1-1.2-1.3-0.7-1.8c0.4-0.5,1.1-0.4,1.5,0.1C247.6,746.3,247.2,747.6,246.4,747.5z"/>
		<path d="M244.9,746.7c-0.3,0.6-0.3,0.6-0.6,0.7c-0.5,0.2-1.3-0.3-1.3-0.8c-0.1-0.5,0.5-1.3,0.9-1.3
			C244.5,745.4,245.1,746.2,244.9,746.7z"/>
		<path d="M261.5,717.5c-0.8-0.1-1.2-1.3-0.7-1.8c0.4-0.5,1.1-0.4,1.5,0.1C262.8,716.3,262.4,717.6,261.5,717.5z"/>
		<path d="M260,716.7c-0.3,0.6-0.3,0.6-0.6,0.7c-0.5,0.2-1.3-0.3-1.3-0.8c-0.1-0.5,0.5-1.3,0.9-1.3
			C259.6,715.3,260.2,716.1,260,716.7z"/>
		<path d="M253.4,672.2c-0.8-0.1-1.2-1.3-0.7-1.8c0.4-0.5,1.1-0.4,1.5,0.1C254.7,671.1,254.3,672.3,253.4,672.2z"/>
		<path d="M251.9,671.5c-0.3,0.6-0.3,0.6-0.6,0.7c-0.5,0.2-1.3-0.3-1.3-0.8c-0.1-0.5,0.5-1.3,0.9-1.3
			C251.6,670.1,252.2,670.9,251.9,671.5z"/>
		<path d="M158.7,718.6c-0.8-0.1-1.2-1.3-0.7-1.8c0.4-0.5,1.1-0.4,1.5,0.1C159.9,717.4,159.5,718.7,158.7,718.6z"/>
		<path d="M157.1,717.9c-0.3,0.6-0.3,0.6-0.6,0.7c-0.5,0.2-1.3-0.3-1.3-0.8c-0.1-0.5,0.5-1.3,0.9-1.3
			C156.8,716.5,157.4,717.3,157.1,717.9z"/>
		<path d="M168.3,673.5c-0.9-0.1-1.3-1.5-0.8-2c0.5-0.5,1.2-0.5,1.7,0.1C169.6,672.2,169.2,673.6,168.3,673.5z"/>
		<path d="M165.8,672.7c-0.3,0.6-0.3,0.6-0.6,0.8c-0.6,0.2-1.4-0.3-1.5-0.9c-0.1-0.6,0.5-1.4,1-1.4
			C165.4,671.2,166,672.1,165.8,672.7z"/>
		<path d="M208.4,665.6c-0.6-0.1-0.9-1-0.5-1.3c0.3-0.3,0.8-0.3,1.1,0C209.3,664.7,209,665.6,208.4,665.6z"/>
		<path d="M207.5,665c-0.2,0.4-0.2,0.4-0.4,0.5c-0.4,0.2-0.9-0.2-1-0.6c0-0.4,0.3-0.9,0.7-0.9C207.3,664,207.7,664.6,207.5,665z"/>
		<path d="M269,755.5c0-2.6-1.4-4.6-3.3-6.2c-1.6-1.4-4-1.7-5.6-1.7c-1.7-0.1-5.5,1-7.8,3.5c-0.1-0.1-0.6-0.4-0.7-0.5
			c0.6-3.2,1.4-6.1,1.5-9.1c0.2-3.5,0.1-7.2-0.5-10.7c-0.5-3.5-2.9-5.3-6.4-5.8c-1.3-0.2-2.2,0.1-2.6,1.6c-0.8,2.7-0.8,5.5-0.3,8.4
			c0.2,1.3,0.9,3.5-0.1,3.8c-1.1,0.3-0.9-1.9-1.1-3c-0.4-2-0.7-4-1.2-5.9c-0.5-2.1-2-3.1-4-2.8c-1,0.1-2.7,1.3-3.1,2.8
			c-0.5,1.6-0.1,10.8,1.6,17.2c-2.1-2.5-4.4-4.8-5.7-7.7c-0.9-2-2.3-2.1-3.7-2.5c-0.9-0.2-1.9-0.2-2.8-0.3c-1.2-0.1-1.9,0.6-1.9,1.7
			c0,2,0.1,4.1,0.3,6.1c0,0.5,0.4,1.1,0.7,1.5c2.7,2.7,5.5,5.5,8.2,8.1c0.5,0.5,1.3,0.8,1.8,1.1c-0.5,1.4-0.5,1.4,0.9,3.3
			c1.6,2.1,3,1.5,3,1.5c0.6-0.8,1.4-1.5,2-2.2c1.2,0.6,2.1,1.1,3,1.5c0.2,1.4,0.3,2.7,0.6,3.9c0.6,3.8,2.6,4.8,4.3,4.6
			c1.7-0.2,3.1-4,3-7.7c0-2.1-0.1-4.3-0.1-6.4c0-0.3,0.2-0.5,0.3-0.8c0.6,0.1,1.1,0.2,2,0.3c-2.2,4.9-0.9,11.6,5,14
			c6.1,2.4,11.6-2.6,12.4-7.3C269.1,758.4,269,757,269,755.5z M234.6,753.7c-0.3-0.1-0.5-0.1-0.7-0.2c-2.6-2.6-5.1-5.2-7.8-7.7
			c-1.9-1.7-2.2-3.7-2-6.2c1.1,0,2.1,0.1,2.8,1.1c2.8,3.8,5.6,7.6,8.5,11.5C235.2,752.7,234.9,753.2,234.6,753.7z M238.9,754.3
			c0-0.6,0.2-1.4,0.8-2c0.6-0.6,1.4,3.6,1.2,4S238.9,754.9,238.9,754.3z M249.5,746.6c-0.1,1-1,2.2-1.8,2.8
			c-1.2,0.8-1.6,1.8-1.5,3.2c0.1,2.8,0.3,5.6,0.3,8.4c0,1.3,0.6,4.2-1,4.2c-1.1,0-0.8-1.6-0.8-2.3c-0.1-3.2-0.2-6.4-0.2-9.6
			c0-3.7-0.7-4.7-4.3-5.5c-0.8-0.2-1.3-0.6-1.4-1.5c-0.3-1.5-0.9-3-1.1-4.5c-0.6-3.1-1.1-6.2-1.6-9.3c-0.2-1.2,1.1-3,2-2.2
			c0.9,0.8,0.7,4.4,1,6.7c0.2,1.9,0.6,3.6,2.1,5c2,1.8,4.3,1.3,4.7-1.3c0.3-1.9-0.1-3.8-0.2-5.7c0-0.8-0.4-1.5-0.3-2.3
			c0.1-1.5-0.8-3.9,0.7-4.6c1.5-0.7,3.2,1.8,3.5,3.8C250.3,736.6,249.9,741.6,249.5,746.6z M254.5,763c-2.1-3.8-1.6-7.2-0.2-10
			c1.2-2.5,4-3,7.6-2.6C259.4,754.7,257.1,758.6,254.5,763z M258,764.8c2.4-3.6,4.8-7.3,7.3-11.2C266.9,761.2,264,765.5,258,764.8z"
			/>
	</g>
	<g>
		<g>
			<path class="st11" d="M152.7,59.4c26.7,0,56.7,15,58.5,50.9"/>
			<g>
				<polygon class="st10" points="205.9,104.4 211.1,109.4 216,104.1 216.2,108.5 211.2,113.7 206,108.7 				"/>
			</g>
		</g>
	</g>
	<g>
		<g>
			<path class="st11" d="M134.4,314.6c26.7,0,56.7,15,58.5,50.9"/>
			<g>
				<polygon class="st10" points="187.6,359.6 192.8,364.5 197.8,359.3 197.9,363.6 192.9,368.9 187.7,363.9 				"/>
			</g>
		</g>
	</g>
	<g>
		<g>
			<path class="st11" d="M134.4,582.8c26.7,0,56.7,15,58.5,50.9"/>
			<g>
				<polygon class="st10" points="187.6,627.9 192.8,632.8 197.8,627.6 197.9,631.9 192.9,637.1 187.7,632.2 				"/>
			</g>
		</g>
	</g>
	<g>
		<g>
			<path class="st11" d="M79.4,246.6c1.7-26.6,23.6-55.1,60.4-55.1"/>
			<g>
				<polygon class="st10" points="84.9,240.9 79.6,245.7 74.7,240.4 74.5,244.7 79.3,250 84.7,245.2 				"/>
			</g>
		</g>
	</g>
	<g>
		<g>
			<path class="st11" d="M79.4,497.4c1.3-26.6,17.4-55.1,54.2-55.1"/>
			<g>
				<polygon class="st10" points="84.8,491.6 79.5,496.5 74.6,491.2 74.4,495.5 79.3,500.8 84.6,495.9 				"/>
			</g>
		</g>
	</g>
	<g>
		<g>
			<path class="st12" d="M42.2,6.2c-11.7-0.1-23.5,0.7-35-0.9c-1,1-0.9,7.3-1,8.2c-0.3,5.7-0.6,11.4-0.9,17.1
				C5.2,34,5.2,37.4,5.3,40.9c0.1,4.5-0.3,9-0.3,13.5c0,4.7,0.3,9.5,0.2,14.2c-0.1,4.8-0.5,9.7-0.7,14.5c-0.1,2.2-0.2,4.5-0.2,6.7
				c0,6.4,0,12.8,0,19.2c0,1.7-1.1,16.5-0.2,20.5c1,0.1,1.9,0.2,2.7,0.3c1.1,0,2.1,0,3.2-0.1c9.5-0.9,18.9-1.2,28.4-0.7
				c2.2,0.1,4.4,0,6.7-0.1c5.1-0.1,31.6-0.6,36.9-0.5c2.6,0.1,5.2-0.4,7.9-0.4c4.1,0,8.2-0.7,12.3-0.8c6.9-0.2,13.7-0.1,20.6-0.2
				c2.1,0,7.8-2.1,8.1-1.4c0.5-1.1,0.7-2.1,0.8-3.2c0.2-7.2,0.5-14.5,0.6-21.7c0-0.2,0.5-3.1,0.2-4.6c-0.3-1.9-0.3-3.9-0.3-5.8
				c0.1-6.4,0.2-12.9,0.4-19.3c0-0.8,0-1.6-0.1-2.3c-0.6-2.7,2.6-57.9,0.7-63.7c-0.8,0-1.5,0.1-2.3,0.1c-7.8-0.5-15.6-1.2-23.4-1.5
				c-5.5-0.2-11,0.1-16.5,0.2c-0.4,0-0.8,0-1.2,0c-5.1,0.4-26.7,1.5-27.2,1.5C57.8,5.4,53,5.6,48.2,5.8C46.2,5.9,44.2,6.1,42.2,6.2
				L42.2,6.2z"/>
			<path d="M0.9,108.3c0-1.8,0.1-3.7,0.1-5.5C1,96.9,0.8,91,0.9,85.1c0.1-5.1,0.4-10.3,0.5-15.4c0.1-6,0.1-11.9,0.1-17.9
				c0-5.9,0-11.8,0.2-17.7c0.2-4.7,0.9-9.5,1-14.2c0.1-3.8-0.1-7.5-0.2-11.3c0-1.3-0.1-2.5,0.1-3.8c0.3-1.8,1-2.4,2.9-2.3
				c4.9,0.1,9.8,0.4,14.7,0.3c4.2-0.1,21-0.2,23.3-0.3c4-0.1,7.9-0.5,11.9-0.7c0.5,0,1-0.1,1.4-0.1c7.5,0.7,14.9-1,22.3-1
				c5.6,0,11.2-0.9,16.8-0.5c5.4,0.4,10.8-0.1,16.2-0.2c1,0,1.9,0,2.9,0c5.2,0.2,10.4,0.4,15.6,0.6c0.7,0,5.5-0.1,7.2,1.3
				c1.8,1.5,1.7,4.7,1.7,7c0,8.6-0.3,17.2-0.3,25.8c0,5.2,0.5,10.4,0.5,15.7c0,5.3-0.1,10.6-0.3,15.9c-0.2,6.5-0.5,13-0.8,19.4
				c-0.4,6.9-0.9,13.9-1.3,20.8c-0.2,3.3,0.1,6.6-0.2,9.9c-0.3,3.5-0.8,6.9-1.5,10.3c-0.4,2.3-1.7,4.1-4.4,4.3
				c-2.1,0.2-4.2,0.4-6.3,0.6c-5,0.5-10,1-15,1.3c-4.5,0.3-9,0.2-13.6,0.3c-3.5,0.1-7,0.1-10.4,0.3c-5.5,0.2-11,0.4-16.5,0.7
				c-6.3,0.3-12.6,0.7-18.8,0.9c-4.8,0.2-9.7,0.5-14.5,0.4c-9.9-0.2-19.7-0.6-29.6-0.9c-0.5,0-1-0.1-1.4-0.1
				c-3.3-0.4-2.8-0.6-4.2-3.6c-1.9-4.2-0.7-8.3-0.5-12.5C0.7,115.1,0.8,108.4,0.9,108.3z M42.2,6.2c-11.7-0.1-23.5,0.7-35-0.9
				c-1,1-0.9,7.3-1,8.2c-0.3,5.7-0.6,11.4-0.9,17.1C5.2,34,5.2,37.4,5.3,40.9c0.1,4.5-0.3,9-0.3,13.5c0,4.7,0.3,9.5,0.2,14.2
				c-0.1,4.8-0.5,9.7-0.7,14.5c-0.1,2.2-0.2,4.5-0.2,6.7c0,6.4,0,12.8,0,19.2c0,1.7-1.1,16.5-0.2,20.5c1,0.1,1.9,0.2,2.7,0.3
				c1.1,0,2.1,0,3.2-0.1c9.5-0.9,18.9-1.2,28.4-0.7c2.2,0.1,4.4,0,6.7-0.1c5.1-0.1,31.6-0.6,36.9-0.5c2.6,0.1,5.2-0.4,7.9-0.4
				c4.1,0,8.2-0.7,12.3-0.8c6.9-0.2,13.7-0.1,20.6-0.2c2.1,0,7.8-2.1,8.1-1.4c0.5-1.1,0.7-2.1,0.8-3.2c0.2-7.2,0.5-14.5,0.6-21.7
				c0-0.2,0.5-3.1,0.2-4.6c-0.3-1.9-0.3-3.9-0.3-5.8c0.1-6.4,0.2-12.9,0.4-19.3c0-0.8,0-1.6-0.1-2.3c-0.6-2.7,2.6-57.9,0.7-63.7
				c-0.8,0-1.5,0.1-2.3,0.1c-7.8-0.5-15.6-1.2-23.4-1.5c-5.5-0.2-11,0.1-16.5,0.2c-0.4,0-0.8,0-1.2,0c-5.1,0.4-26.7,1.5-27.2,1.5
				C57.8,5.4,53,5.6,48.2,5.8C46.2,5.9,44.2,6.1,42.2,6.2L42.2,6.2z"/>
		</g>
		<g>
			<path d="M106.1,78.7c-1.4,0.1-2.8,0.1-3.6,0.1c-0.5,2.8,0.8,4.7,2.7,6.4c2.4,2.1,3.4,4.6,3.3,7.8c0.3,8.6,0.1,17.7,0.3,20.2
				c0.3,3.3-1.8,5.1-3.1,5.6c-3.6,1.2-16.4,2.1-19.1,1.3c-2-0.6-4.3-2.6-4.9-4.3c-0.5-1.7-0.7-9.1-0.9-13.6
				c-0.2-3.7-0.2-7.5-0.3-11.2c-0.1-2.1,0.9-3.7,2.8-4.6c2.6-2.1,2.1-5.8,2-7.4c-0.7-0.1-5.5,0.2-5.4-2c0.1-1.6-0.9-8.2,0.6-9.2
				c1.5-1,10.2-1,15.9-1.1c2.2,0,4.4-0.1,6.7-0.1c2.7,0,3.5,0.7,3.7,3.5C107.1,72.8,107.4,78.6,106.1,78.7z M100.1,79
				c-4.4-0.3-8.4-0.2-11.6,0.3c-0.2,4.4,0.6,8.4-4.5,10.5c-0.4,0.4-0.8,1-0.9,1.5c-0.1,2.6-0.1,7-0.1,9.8c6.9-0.3,14.7-1.8,22-1.6
				c0-2.6,0.5-8.3,0-9.7s-5-3.8-5-6.2C100.1,81.3,100.1,80.3,100.1,79z M104.3,102.1c-7.1,1.2-14,0.8-20.9,1.9
				c0.3,3.3,0.5,6.4,0.9,9.5c0.3,2.2,0.9,2.8,3,2.8c2.6,0.1,5.1,0.2,7.7,0c3.1-0.3,6.4-0.4,9.3-2
				C104.3,110.5,104.3,106.6,104.3,102.1z M82,76.2c8.3,0,15.1,0,23.1,0c0-2.4,0-4.5,0-6.7c-8.2-0.6-15-0.3-23.1,0.4
				C82,72.1,82,74,82,76.2z"/>
			<path class="st4" d="M104.3,102.1c-7.1,1.2-14,0.8-20.9,1.9c0.3,3.3,0.5,6.4,0.9,9.5c0.3,2.2,0.9,2.8,3,2.8
				c2.6,0.1,5.1,0.2,7.7,0c3.1-0.3,6.4-0.4,9.3-2C104.3,110.5,104.3,106.6,104.3,102.1z"/>
		</g>
		<g>
			<path d="M29.6,98.7c2.6-3.4,5.5-6.5,8-9.9c3.6-4.7,6.9-9.5,10.4-14.3c0.1-0.1,0.1-0.4,0.1-0.8c-2.4-1.8-7.8-5.4-6.6-6.8
				c1.1-1.4,21.9-28.3,32.9-42.4c-1.5-2.9-7-6.3-5.8-7.6c1.1-1.3,2.4,0,3.4,1c2.1,2.1,4.4,4,6.7,6c1.8-1.8,3.5-3.4,5.1-5.1
				c-1-1.3-2.7-2.7-3-3.8s0.6-2.1,2.3-2.1c1.7,0,1.7,0,4.2,2.3c3,2.6,5.9,5.4,8.7,8.1c1.7,1.6,2.7,3.4,1.8,4.5
				c-0.9,1.1-2.6,0.5-4.5-1c-1.7,1.8-3.9,4.1-5.4,5.8c0.1,0.4,4.3,6.1,7,8.2c1.5,1.2,0.9,0.7,2.3,2.1c0.4,0.4,1,0.8,1.1,1.3
				c0.1,0.6,0.3,1.2-0.4,1.8c-0.4,0.3-1.2,0.2-1.5-0.1c-1.6-1.5-5.3-4.8-6.5-6c-3.6,4.8-6.9,9.4-10.3,14c-0.2,0.3-0.4,0.6-0.7,0.9
				c-4.3,5.2-8.6,10.5-12.9,15.7c-2.1,2.6-4.2,5.3-6.4,7.8c-1.6,1.8-1.8,1.8-3.9,0.4c-1.4-0.9-2.9-1.8-4.6-2.9
				c-6.3,7.9-12.6,15.7-19.3,23.9l-4.2,5.4c-1.9,2.5-3.9,5-6,7.5c-0.7,0.8-1.6,2-2.6,2.1s-1.7-1.2-0.3-2.7c1.2-1.3,2.4-2.8,3.6-4.2
				c0.7-0.9,1.3-1.8,2.2-3.2L29.6,98.7z M44.4,68.2c4.4,3,8.5,5.7,12.7,8.5c0.8-1,1.5-1.7,2.1-2.6c1.8-2.3,3.5-4.6,5.4-6.8
				c5.1-6.2,10.3-12.3,15.3-18.6c2.1-2.6,4-5.5,5.9-8.2c1.6-2.3,2.2-2.5,0.3-4.4c-1.6-1.6-3.8-4.2-5.4-5.7c-1.3-1.2-3.4-4-4.7-3.3
				C74.7,27.7,55.1,54.3,44.4,68.2z M90.7,23.8c-1-0.9-3.1-2.9-4.2-3.4C85.4,19.8,80.1,25,81,26c0.9,1.1,3.5,4.3,4.5,4.1
				C86.7,29.8,91.8,24.7,90.7,23.8z"/>
			<path d="M72.5,56.1c-0.6,0.4-1.9,0.5-1.8-0.8c0.1-0.8-1.9,0.1-2.9,0.9c-0.4,0.4-1.9,1.6-1.7,2.4c0.3,1.1,1.6,1.3,1.5,1.9
				c-0.1,0.9-4.4,0.4-4.8-0.7c-0.4-1,0.7-1.2,1.1-2c-0.5-0.2-1-0.4-1.5-0.6c-1.4,1-0.3,2.9-0.4,3.6s-1.6,0.7-2.1,0.4
				c-0.9-0.5-2-1.4-2.2-2.2s0.1-1.2,1.5-1.2c1.4,0.1,0.5-2.5,0.6-4c0.1-2.7,3.6-6.7,6.3-6.9c1.1-0.1,2.4,0.2,3.3,0.9
				c1.4,1.1,1.2,2.9,2.2,4.4c0.7,1.1,1.8-0.4,2.1,0.9C73.9,54.5,73.5,55.6,72.5,56.1z M66.8,49.2c-1.5,0-3.2,1.9-3.7,2.6
				c-0.4,0.7-0.3,1.7-0.1,2.2c0.2,0.4,0.9,1,1.3,0.9c1.3-0.1,2.7-0.5,3.5-1.8C68.6,51.9,68.3,49.2,66.8,49.2z"/>
			<path class="st4" d="M66.8,49.2c-1.5,0-3.2,1.9-3.7,2.6c-0.4,0.7-0.3,1.7-0.1,2.2c0.2,0.4,0.9,1,1.3,0.9c1.3-0.1,2.7-0.5,3.5-1.8
				C68.6,51.9,68.3,49.2,66.8,49.2z"/>
		</g>
	</g>
</g>
</svg>
