<?xml version="1.0" encoding="utf-8"?>
<!-- Generator: Adobe Illustrator 19.1.0, SVG Export Plug-In . SVG Version: 6.00 Build 0)  -->
<svg version="1.1" id="Calque_1" xmlns="http://www.w3.org/2000/svg" xmlns:xlink="http://www.w3.org/1999/xlink" x="0px" y="0px"
	 viewBox="0 0 1035.1 296.2" style="enable-background:new 0 0 1035.1 296.2;" xml:space="preserve">
<style type="text/css">
	.st0{fill:#FFFFFF;}
	.st1{fill:#85B974;}
	.st2{fill:#E2EFE8;}
	.st3{fill:#010202;}
	.st4{fill:#DB5556;}
	.st5{fill:#6FA4C3;}
	.st6{fill:none;stroke:#DB5556;stroke-width:7;stroke-miterlimit:10;}
	.st7{fill:none;}
	.st8{fill:#FFFFFF;stroke:#DB5556;stroke-width:3;stroke-miterlimit:10;}
	.st9{fill:none;stroke:#DB5556;stroke-width:3;stroke-miterlimit:10;}
	.st10{fill:#C1C0C0;}
	.st11{fill:none;stroke:#C1C0C0;stroke-width:3;stroke-miterlimit:10;}
	.st12{fill:#FFFCFA;}
	.st13{fill:#F5D1CA;}
</style>
<g>
	<path class="st3" d="M725.4,296.2c-6.3,0-13-0.5-20.2-1.6c-7.5-1.1-15.5-1.5-26-1.4c-6.4,0.1-12.9,0.2-19.3,0.3
		c-12.1,0.2-24.5,0.5-36.8,0.4c-6.6,0-13.3-0.4-19.8-0.8c-4.4-0.3-9-0.5-13.4-0.7c-5.2-0.2-10.6-0.1-15.7-0.1c-2.7,0-5.4,0-8.1,0
		c-2.4,0-4.9-0.1-7.2-0.2c-5-0.2-9.8-0.4-14.5,0.1c-12.2,1.3-24.5,1.3-36.4,1.3c-6.9,0-14,0-20.9,0.3c-4.2,0.2-8.6,0.4-12.8,0.7
		c-4.7,0.3-9.5,0.6-14.3,0.7c-3.2,0.1-6.5,0-9.6-0.1c-2.6-0.1-5.2-0.2-7.8-0.1c-3,0-6,0.2-9,0.3c-3.7,0.2-7.5,0.4-11.3,0.3
		c-5,0-10.1-0.2-15-0.5c-2.5-0.1-5-0.2-7.5-0.3l-1.7,0.2c-7.4-0.3-15-0.5-22.4-0.7c-9.2-0.2-18.4-0.5-27.6-0.7
		c-13.9-0.3-28.3-0.7-42.4-1.1c-10-0.3-20.1-0.6-29.9-1c-6.2-0.2-12.4-0.4-18.5-0.6c-9.8-0.3-19.6-0.6-29.4-0.9
		c-15.6-0.5-31.2-1-46.8-1.5c-5.7-0.2-11.5-0.5-17.1-0.7c-8.4-0.4-17.1-0.8-25.7-0.9c-9.3-0.2-18.7,0.1-27.9,0.3l-2.7,0.1
		c-20.5,0.6-37.1,1.1-52.3,1.7c-2.8,0.1-5.5,0.4-8.4,0.7c-3.2,0.3-6.6,0.7-9.9,0.8c-3.3,0.1-6.4-0.5-9.5-1c-0.8-0.1-1.5-0.3-2.3-0.4
		c-1.5-0.2-2.9-0.6-4.3-0.9c-1-0.3-2-0.5-3-0.7c-0.3-0.1-1.3-0.2-2.3-0.3l-3.8-0.4l-0.1-3c-0.2-7.1-0.5-14.4-0.9-21.5
		c-0.2-3-0.4-6-0.6-8.9c-0.3-4.5-0.6-9.2-0.8-13.8c-0.1-3.3,0-6.6,0.1-9.7c0.1-3,0.2-6.2,0.1-9.2c-0.1-2.1-0.4-4.2-0.7-6.4
		c-0.3-1.6-0.5-3.3-0.7-5c-0.2-2.6-0.4-5.2-0.6-7.8c-0.2-3.1-0.4-6.3-0.8-9.5c-0.6-5.9-0.5-12,0.6-19.2c0.3-1.8,0.2-3.8,0.1-5.9
		c-0.1-1.2-0.1-2.5-0.1-3.7c0-3.6,0.1-7.3,0.1-10.9c0.1-6.3,0.2-12.8,0.2-19.2c0-9.3-0.3-20.2-2.6-31.2C4.4,98,4.3,94.4,4.3,90.8
		c0-1.4,0-2.7-0.1-4.1c-0.1-1.1-0.1-2.3-0.2-3.5c-0.2-4.4-0.4-8.9-0.5-13.4c0-3,0.1-6,0.2-8.8c0.1-3.3,0.2-6.7,0.1-10
		c-0.2-9.3-0.6-17.5-1.2-25c-0.1-1.3-0.6-2.8-1.2-4.4c-0.4-1.2-0.9-2.4-1.2-3.8c-0.9-3.5,0.9-6.1,2-7.7c4-5.9,9.6-6.1,14.1-6.3
		c0.8,0,1.5-0.1,2.3-0.1c3.9-0.3,7.9-0.5,11.8-0.8c1.7-0.1,3.4-0.2,5.1-0.3L39,2.4L39.1,3c2.1-0.1,4.3-0.3,6.4-0.4
		c7.5-0.5,15.3-1,23-1.2c6.2-0.2,12.4,0,18.4,0.1c3,0.1,6,0.1,9,0.2c9.8,0.2,20.4,0.3,31.2,0.3c12.4,0.1,22.5,0.1,32,0.1
		c10.7,0,20.3-0.1,30-1.3c6.3-0.7,12.7-0.5,18.8-0.3c2,0.1,3.9,0.1,5.9,0.2c5.2,0.1,10.5,0.3,15.6,0.4c3.2,0.1,6.4,0.2,9.5,0.3
		c2.7,0.1,5.4,0.2,8,0.3c6.9,0.2,14,0.5,21,0.4c9.3-0.1,18.9-0.7,28.5-1.6c9.5-0.9,19.6-0.5,30.9,1.1c7.6,1.1,15.7,1.5,26.4,1.4
		c6.5-0.1,13.1-0.2,19.6-0.3c12.2-0.2,24.9-0.5,37.3-0.4c6.7,0,13.5,0.4,20.1,0.8c4.5,0.3,9.1,0.5,13.6,0.7c5.3,0.2,10.7,0.2,16,0.1
		c2.7,0,5.5,0,8.2,0c2.5,0,4.9,0.1,7.4,0.2c5.1,0.2,9.9,0.4,14.7-0.1c12.4-1.3,24.9-1.3,36.9-1.3c7,0,14.2,0,21.2-0.3
		c4.3-0.2,8.7-0.4,13-0.7c4.7-0.3,9.7-0.6,14.5-0.7c3.3-0.1,6.6,0,9.8,0.1c2.6,0.1,5.3,0.2,7.9,0.1c3,0,6.1-0.2,9.1-0.3
		c3.8-0.2,7.6-0.3,11.5-0.3c5.1,0,10.2,0.2,15.2,0.5c2.5,0.1,5,0.2,7.6,0.3h1.5c7.6,0.3,15.4,0.5,23.1,0.7
		c9.3,0.2,18.6,0.5,27.9,0.7c14.3,0.2,29,0.6,43.4,1c10.1,0.3,20.4,0.6,30.3,1c6.3,0.2,12.6,0.4,18.9,0.6c10,0.3,19.9,0.6,29.9,0.9
		c15.9,0.5,31.7,1,47.6,1.5c5.8,0.2,11.7,0.5,17.4,0.7c8.6,0.4,17.4,0.8,26.1,0.9c9.4,0.2,19-0.1,28.4-0.3l2.7-0.1
		c20.7-0.5,37.6-1,53-1.6c2.8-0.1,5.6-0.4,8.6-0.7c3.3-0.3,6.7-0.7,10.1-0.8c3.3-0.1,6.5,0.5,9.6,1c0.8,0.1,1.6,0.3,2.4,0.4
		c1.5,0.2,2.9,0.6,4.3,0.9c1.1,0.3,2.1,0.5,3.1,0.7c5.3,1,6.1,4.7,6.1,6.9c0,0.5,0,0.7,0.1,0.7c2.6,7.5,2.7,15.1,2.8,22.5
		c0,1.2,0,2.4,0.1,3.6l0.1,2.1c0.2,7,0.3,14.1,0.3,21.2c0,3.9-0.4,8.1-1.2,13c-1.3,8.3-1.4,16.9-1.5,25.3c0,3-0.1,6.1-0.1,9.1
		c0,0.9-0.1,1.9-0.1,2.8c-0.1,2.8-0.3,5.5,0.2,7.9c1.6,9-0.4,17.3-2.3,25.2c-0.7,3-1.4,5.8-1.9,8.7c-0.8,4.4-1.7,8.8-2.6,13.1
		c-1.1,5.2-2.3,10.6-3.1,15.9c-0.8,4.8-0.7,9.9-0.6,14.9v1.3c0.2,11.3,0.5,22.8,0.9,32.5c0.1,1.9,0.1,3.8,0.2,5.7
		c0.3,9.5,0.6,19.3,2.1,28.7c0.7,4.3,1.2,8.6,1.6,12.8c0.1,1.2,0.3,2.3,0.4,3.5l0.4,3.2l-3.2,0.6c-6.1,1.2-12.2,1.9-14.8,2.1
		c-3.9,0.3-7.8,0.5-11.6,0.8c-1.7,0.1-3.3,0.2-5,0.3l-3.5,0.2v-0.6c-2.1,0.1-4.2,0.3-6.3,0.4c-7.4,0.5-15.1,1-22.7,1.2
		c-6.1,0.2-12.2,0-18.1-0.1c-2.9-0.1-5.9-0.1-8.8-0.2c-9.7-0.1-20.1-0.2-30.8-0.3c-12.2-0.1-22.2-0.1-31.5-0.1
		c-10.5,0-19.9,0.1-29.5,1.3c-6.2,0.7-12.5,0.5-18.6,0.3c-1.9-0.1-3.9-0.1-5.8-0.2c-5.1-0.1-10.3-0.3-15.4-0.4
		c-3.1-0.1-6.3-0.2-9.4-0.3c-2.6-0.1-5.3-0.2-7.9-0.3c-6.8-0.2-13.8-0.5-20.7-0.4c-9.2,0.1-18.6,0.7-28.1,1.6
		C732.4,296,728.9,296.2,725.4,296.2z M682.9,286.2c9.1,0,16.4,0.5,23.3,1.5c10.6,1.5,20,1.9,28.8,1c9.6-0.9,19.3-1.5,28.6-1.6
		c7-0.1,14.1,0.1,21,0.4c2.6,0.1,5.2,0.2,7.8,0.3c3.2,0.1,6.3,0.2,9.5,0.3c5,0.2,10.2,0.4,15.2,0.4c2,0,3.9,0.1,5.9,0.2
		c5.8,0.2,11.8,0.4,17.5-0.3c9.9-1.2,19.6-1.3,30.3-1.3c9.3,0,19.4,0,31.5,0.1c10.6,0.1,21.1,0.2,30.8,0.3c3,0,5.9,0.1,8.9,0.2
		c5.8,0.1,11.9,0.3,17.8,0.1c7.5-0.2,15.1-0.7,22.4-1.2c3.3-0.2,6.5-0.4,9.8-0.6l3.5-0.2v0.6c0.5,0,1-0.1,1.5-0.1
		c3.8-0.2,7.7-0.5,11.5-0.8c1.9-0.1,6.2-0.6,10.8-1.4c0-0.1,0-0.2,0-0.2c-0.5-4.1-0.9-8.4-1.6-12.5c-1.6-9.9-1.9-19.9-2.2-29.6
		c-0.1-1.9-0.1-3.8-0.2-5.7c-0.4-9.7-0.7-21.2-0.9-32.6v-1.3c-0.1-5.3-0.2-10.7,0.7-16.1c0.9-5.5,2-11,3.2-16.3
		c0.9-4.2,1.8-8.6,2.6-12.9c0.6-3.1,1.3-6.2,2-9.2c1.9-7.6,3.6-14.8,2.2-22.3c-0.6-3.2-0.4-6.4-0.3-9.5c0-0.9,0.1-1.8,0.1-2.7
		c0.1-3,0.1-6,0.1-9c0.1-8.6,0.1-17.5,1.5-26.3c0.7-4.5,1.1-8.5,1.1-12c0.1-7-0.1-14.1-0.3-21l-0.1-2.1c0-1.2,0-2.5-0.1-3.7
		c-0.1-7.1-0.2-13.9-2.4-20.3c-0.4-1.1-0.4-2.1-0.4-2.9c-0.1,0-0.3-0.1-0.5-0.1c-1.2-0.2-2.3-0.5-3.4-0.8c-1.3-0.3-2.5-0.6-3.7-0.8
		c-0.8-0.1-1.6-0.3-2.5-0.4c-2.9-0.5-5.6-1-8.2-0.9c-3.1,0.1-6.2,0.4-9.5,0.7c-2.9,0.3-6,0.6-9,0.7c-15.4,0.6-32.3,1.2-53.2,1.7
		l-2.7,0.1c-9.4,0.3-19.1,0.5-28.7,0.3c-8.8-0.2-17.7-0.6-26.2-0.9c-5.7-0.2-11.5-0.5-17.3-0.7c-15.9-0.5-31.7-1-47.6-1.5
		c-10-0.3-19.9-0.6-29.9-0.9c-6.3-0.2-12.6-0.4-18.9-0.6c-9.9-0.3-20.2-0.7-30.3-1c-14.4-0.4-29-0.7-43.2-1.1
		c-9.3-0.2-18.6-0.4-27.9-0.7c-7.7-0.2-15.6-0.5-23.1-0.7H637c-2.5-0.1-5.1-0.2-7.6-0.3c-4.9-0.2-10-0.4-14.9-0.5
		c-3.7,0-7.5,0.2-11.1,0.3c-3.1,0.1-6.2,0.3-9.4,0.3c-2.8,0-5.5,0-8.2-0.1c-3.1-0.1-6.3-0.2-9.3-0.1c-4.8,0.1-9.6,0.4-14.3,0.7
		c-4.3,0.3-8.8,0.5-13.1,0.7c-7.2,0.3-14.4,0.3-21.5,0.3c-11.9,0-24.2,0.1-36.3,1.3c-5.3,0.5-10.5,0.3-15.7,0.2
		c-2.3-0.1-4.8-0.2-7.1-0.2c-2.7,0-5.5,0-8.2,0c-5.3,0-10.8,0-16.2-0.1c-4.6-0.1-9.3-0.4-13.8-0.7c-6.5-0.4-13.2-0.8-19.7-0.8
		c-12.4,0-25,0.2-37.2,0.4c-6.6,0.1-13.1,0.2-19.7,0.3c-11,0.1-19.5-0.3-27.5-1.5c-10.6-1.5-20.2-1.9-29.1-1
		C287.3,8.4,277.5,9,268,9.1c-7.1,0.1-14.3-0.1-21.3-0.4c-2.7-0.1-5.3-0.2-8-0.3c-3.2-0.1-6.4-0.2-9.6-0.3
		c-5.1-0.2-10.3-0.4-15.5-0.4c-2,0-4-0.1-6-0.2c-5.9-0.2-12-0.4-17.8,0.3c-10,1.2-19.8,1.3-30.7,1.3c-9.5,0-19.7,0-32-0.1
		c-10.8,0-21.4-0.1-31.3-0.2c-3,0-6-0.1-9.1-0.2c-5.9-0.1-12.1-0.3-18-0.1c-7.6,0.1-15.3,0.6-22.8,1.1c-3.3,0.2-6.6,0.4-9.9,0.6
		l-3.5,0.2V9.8c-0.5,0-1.1,0.1-1.6,0.1c-3.8,0.2-7.8,0.5-11.7,0.8c-0.8,0.1-1.7,0.1-2.6,0.1C12.3,11,10,11.2,8.1,14
		c-1.1,1.6-1,1.8-0.9,2.1c0.2,1,0.6,2,1,3.1c0.7,1.9,1.4,3.9,1.6,6.2c0.6,7.7,1,16,1.2,25.5c0.1,3.5,0,7-0.1,10.4
		c-0.1,2.8-0.2,5.7-0.2,8.6c0,4.3,0.2,8.8,0.4,13.1c0.1,1.2,0.1,2.4,0.2,3.6c0.1,1.4,0.1,2.8,0.1,4.3c0.1,3.4,0.1,6.6,0.7,9.6
		c2.3,11.6,2.7,23,2.7,32.6c0,6.5-0.1,13-0.2,19.4c-0.1,3.6-0.1,7.2-0.1,10.9c0,1.1,0,2.2,0.1,3.4c0.1,2.3,0.2,4.7-0.1,7.2
		c-0.9,6.6-1.1,12.2-0.5,17.5c0.4,3.3,0.6,6.6,0.8,9.7c0.2,2.5,0.3,5.1,0.6,7.6c0.1,1.5,0.4,3,0.6,4.6c0.4,2.3,0.7,4.8,0.8,7.3
		c0.1,3.2,0,6.5-0.1,9.6s-0.2,6.3-0.1,9.3c0.1,4.5,0.4,9.1,0.8,13.5c0.2,3,0.4,6,0.6,9c0.3,6.2,0.6,12.4,0.8,18.6
		c0.2,0,0.4,0.1,0.6,0.1c1.2,0.2,2.3,0.5,3.4,0.8c1.3,0.3,2.5,0.6,3.7,0.8c0.8,0.1,1.6,0.3,2.4,0.4c2.8,0.5,5.5,1,8.1,0.9
		c3.1-0.1,6.1-0.4,9.4-0.7c2.9-0.3,5.9-0.6,8.9-0.7c15.2-0.6,31.9-1.2,52.4-1.7l2.7-0.1c9.2-0.3,18.8-0.5,28.3-0.3
		c8.6,0.2,17.4,0.6,25.8,0.9c5.6,0.2,11.4,0.5,17.1,0.7c15.6,0.5,31.2,1,46.8,1.5c9.8,0.3,19.6,0.6,29.4,0.9
		c6.2,0.2,12.4,0.4,18.6,0.6c9.8,0.3,19.9,0.7,29.8,1c14.1,0.4,28.5,0.7,42.4,1.1c9.2,0.2,18.4,0.4,27.6,0.7
		c7.5,0.2,15.1,0.5,22.5,0.7l1.7,0.1c2.5,0.1,5,0.2,7.5,0.3c4.8,0.2,9.8,0.4,14.7,0.5c3.6,0,7.4-0.2,11-0.3c3-0.1,6.1-0.3,9.2-0.3
		c2.7,0,5.5,0,8.1,0.1c3,0.1,6.2,0.2,9.2,0.1c4.7-0.1,9.5-0.4,14.1-0.7c4.2-0.3,8.6-0.5,12.9-0.7c7.1-0.3,14.2-0.3,21.1-0.3
		c11.7,0,23.9-0.1,35.7-1.3c5.2-0.5,10.4-0.3,15.4-0.2c2.3,0.1,4.7,0.2,7,0.2c2.7,0,5.4,0,8.1,0c5.2,0,10.6,0,16,0.1
		c4.6,0.1,9.2,0.4,13.6,0.7c6.4,0.4,13,0.8,19.4,0.8c12.2,0,24.6-0.2,36.6-0.4c6.5-0.1,12.9-0.2,19.4-0.3
		C680.4,286.2,681.7,286.2,682.9,286.2z"/>
	<path class="st1" d="M682.9,286.2c9.1,0,16.4,0.5,23.3,1.5c10.6,1.5,20,1.9,28.8,1c9.6-0.9,19.3-1.5,28.6-1.6
		c7-0.1,14.1,0.1,21,0.4c2.6,0.1,5.2,0.2,7.8,0.3c3.2,0.1,6.3,0.2,9.5,0.3c5,0.2,10.2,0.4,15.2,0.4c2,0,3.9,0.1,5.9,0.2
		c5.8,0.2,11.8,0.4,17.5-0.3c9.9-1.2,19.6-1.3,30.3-1.3c9.3,0,19.4,0,31.5,0.1c10.6,0.1,21.1,0.2,30.8,0.3c3,0,5.9,0.1,8.9,0.2
		c5.8,0.1,11.9,0.3,17.8,0.1c7.5-0.2,15.1-0.7,22.4-1.2c3.3-0.2,6.5-0.4,9.8-0.6l3.5-0.2v0.6c0.5,0,1-0.1,1.5-0.1
		c3.8-0.2,7.7-0.5,11.5-0.8c1.9-0.1,6.2-0.6,10.8-1.4c0-0.1,0-0.2,0-0.2c-0.5-4.1-0.9-8.4-1.6-12.5c-1.6-9.9-1.9-19.9-2.2-29.6
		c-0.1-1.9-0.1-3.8-0.2-5.7c-0.4-9.7-0.7-21.2-0.9-32.6v-1.3c-0.1-5.3-0.2-10.7,0.7-16.1c0.9-5.5,2-11,3.2-16.3
		c0.9-4.2,1.8-8.6,2.6-12.9c0.6-3.1,1.3-6.2,2-9.2c1.9-7.6,3.6-14.8,2.2-22.3c-0.6-3.2-0.4-6.4-0.3-9.5c0-0.9,0.1-1.8,0.1-2.7
		c0.1-3,0.1-6,0.1-9c0.1-8.6,0.1-17.5,1.5-26.3c0.7-4.5,1.1-8.5,1.1-12c0.1-7-0.1-14.1-0.3-21l-0.1-2.1c0-1.2,0-2.5-0.1-3.7
		c-0.1-7.1-0.2-13.9-2.4-20.3c-0.4-1.1-0.4-2.1-0.4-2.9c-0.1,0-0.3-0.1-0.5-0.1c-1.2-0.2-2.3-0.5-3.4-0.8c-1.3-0.3-2.5-0.6-3.7-0.8
		c-0.8-0.1-1.6-0.3-2.5-0.4c-2.9-0.5-5.6-1-8.2-0.9c-3.1,0.1-6.2,0.4-9.5,0.7c-2.9,0.3-6,0.6-9,0.7c-15.4,0.6-32.3,1.2-53.2,1.7
		l-2.7,0.1c-9.4,0.3-19.1,0.5-28.7,0.3c-8.8-0.2-17.7-0.6-26.2-0.9c-5.7-0.2-11.5-0.5-17.3-0.7c-15.9-0.5-31.7-1-47.6-1.5
		c-10-0.3-19.9-0.6-29.9-0.9c-6.3-0.2-12.6-0.4-18.9-0.6c-9.9-0.3-20.2-0.7-30.3-1c-14.4-0.4-29-0.7-43.2-1.1
		c-9.3-0.2-18.6-0.4-27.9-0.7c-7.7-0.2-15.6-0.5-23.1-0.7H637c-2.5-0.1-5.1-0.2-7.6-0.3c-4.9-0.2-10-0.4-14.9-0.5
		c-3.7,0-7.5,0.2-11.1,0.3c-3.1,0.1-6.2,0.3-9.4,0.3c-2.8,0-5.5,0-8.2-0.1c-3.1-0.1-6.3-0.2-9.3-0.1c-4.8,0.1-9.6,0.4-14.3,0.7
		c-4.3,0.3-8.8,0.5-13.1,0.7c-7.2,0.3-14.4,0.3-21.5,0.3c-11.9,0-24.2,0.1-36.3,1.3c-5.3,0.5-10.5,0.3-15.7,0.2
		c-2.3-0.1-4.8-0.2-7.1-0.2c-2.7,0-5.5,0-8.2,0c-5.3,0-10.8,0-16.2-0.1c-4.6-0.1-9.3-0.4-13.8-0.7c-6.5-0.4-13.2-0.8-19.7-0.8
		c-12.4,0-25,0.2-37.2,0.4c-6.6,0.1-13.1,0.2-19.7,0.3c-11,0.1-19.5-0.3-27.5-1.5c-10.6-1.5-20.2-1.9-29.1-1
		C287.3,8.4,277.5,9,268,9.1c-7.1,0.1-14.3-0.1-21.3-0.4c-2.7-0.1-5.3-0.2-8-0.3c-3.2-0.1-6.4-0.2-9.6-0.3
		c-5.1-0.2-10.3-0.4-15.5-0.4c-2,0-4-0.1-6-0.2c-5.9-0.2-12-0.4-17.8,0.3c-10,1.2-19.8,1.3-30.7,1.3c-9.5,0-19.7,0-32-0.1
		c-10.8,0-21.4-0.1-31.3-0.2c-3,0-6-0.1-9.1-0.2c-5.9-0.1-12.1-0.3-18-0.1c-7.6,0.1-15.3,0.6-22.8,1.1c-3.3,0.2-6.6,0.4-9.9,0.6
		l-3.5,0.2V9.8c-0.5,0-1.1,0.1-1.6,0.1c-3.8,0.2-7.8,0.5-11.7,0.8c-0.8,0.1-1.7,0.1-2.6,0.1C12.3,11,10,11.2,8.1,14
		c-1.1,1.6-1,1.8-0.9,2.1c0.2,1,0.6,2,1,3.1c0.7,1.9,1.4,3.9,1.6,6.2c0.6,7.7,1,16,1.2,25.5c0.1,3.5,0,7-0.1,10.4
		c-0.1,2.8-0.2,5.7-0.2,8.6c0,4.3,0.2,8.8,0.4,13.1c0.1,1.2,0.1,2.4,0.2,3.6c0.1,1.4,0.1,2.8,0.1,4.3c0.1,3.4,0.1,6.6,0.7,9.6
		c2.3,11.6,2.7,23,2.7,32.6c0,6.5-0.1,13-0.2,19.4c-0.1,3.6-0.1,7.2-0.1,10.9c0,1.1,0,2.2,0.1,3.4c0.1,2.3,0.2,4.7-0.1,7.2
		c-0.9,6.6-1.1,12.2-0.5,17.5c0.4,3.3,0.6,6.6,0.8,9.7c0.2,2.5,0.3,5.1,0.6,7.6c0.1,1.5,0.4,3,0.6,4.6c0.4,2.3,0.7,4.8,0.8,7.3
		c0.1,3.2,0,6.5-0.1,9.6s-0.2,6.3-0.1,9.3c0.1,4.5,0.4,9.1,0.8,13.5c0.2,3,0.4,6,0.6,9c0.3,6.2,0.6,12.4,0.8,18.6
		c0.2,0,0.4,0.1,0.6,0.1c1.2,0.2,2.3,0.5,3.4,0.8c1.3,0.3,2.5,0.6,3.7,0.8c0.8,0.1,1.6,0.3,2.4,0.4c2.8,0.5,5.5,1,8.1,0.9
		c3.1-0.1,6.1-0.4,9.4-0.7c2.9-0.3,5.9-0.6,8.9-0.7c15.2-0.6,31.9-1.2,52.4-1.7l2.7-0.1c9.2-0.3,18.8-0.5,28.3-0.3
		c8.6,0.2,17.4,0.6,25.8,0.9c5.6,0.2,11.4,0.5,17.1,0.7c15.6,0.5,31.2,1,46.8,1.5c9.8,0.3,19.6,0.6,29.4,0.9
		c6.2,0.2,12.4,0.4,18.6,0.6c9.8,0.3,19.9,0.7,29.8,1c14.1,0.4,28.5,0.7,42.4,1.1c9.2,0.2,18.4,0.4,27.6,0.7
		c7.5,0.2,15.1,0.5,22.5,0.7l1.7,0.1c2.5,0.1,5,0.2,7.5,0.3c4.8,0.2,9.8,0.4,14.7,0.5c3.6,0,7.4-0.2,11-0.3c3-0.1,6.1-0.3,9.2-0.3
		c2.7,0,5.5,0,8.1,0.1c3,0.1,6.2,0.2,9.2,0.1c4.7-0.1,9.5-0.4,14.1-0.7c4.2-0.3,8.6-0.5,12.9-0.7c7.1-0.3,14.2-0.3,21.1-0.3
		c11.7,0,23.9-0.1,35.7-1.3c5.2-0.5,10.4-0.3,15.4-0.2c2.3,0.1,4.7,0.2,7,0.2c2.7,0,5.4,0,8.1,0c5.2,0,10.6,0,16,0.1
		c4.6,0.1,9.2,0.4,13.6,0.7c6.4,0.4,13,0.8,19.4,0.8c12.2,0,24.6-0.2,36.6-0.4c6.5-0.1,12.9-0.2,19.4-0.3
		C680.4,286.2,681.7,286.2,682.9,286.2z"/>
</g>
</svg>
