<?xml version="1.0" encoding="utf-8"?>
<!-- Generator: Adobe Illustrator 19.1.0, SVG Export Plug-In . SVG Version: 6.00 Build 0)  -->
<svg version="1.1" id="Calque_1" xmlns="http://www.w3.org/2000/svg" xmlns:xlink="http://www.w3.org/1999/xlink" x="0px" y="0px"
	 viewBox="0 0 146.6 96" style="enable-background:new 0 0 146.6 96;" xml:space="preserve">
<style type="text/css">
	.st0{fill:#6D9DBD;}
	.st1{fill:#F2A73B;}
	.st2{fill:#6DA3C3;}
	.st3{fill:none;}
	.st4{fill:none;stroke:#F2A73B;stroke-width:3;stroke-miterlimit:10;}
	.st5{fill:#6DA1C1;}
	.st6{fill:#F6AB3B;}
	.st7{fill:none;stroke:#F6AB3B;stroke-width:3;stroke-miterlimit:10;}
	.st8{fill:#F8AD3B;}
	.st9{fill:#C6C6C6;}
	.st10{fill:#F4901E;}
	.st11{fill:none;stroke:#F8AD3B;stroke-width:3;stroke-miterlimit:10;}
	.st12{fill:#f1f6fc;}
	.st13{fill:#FFFFFF;stroke:#C6C6C6;stroke-width:3;stroke-miterlimit:10;}
	.st14{fill:none;stroke:#C6C6C6;stroke-width:3;stroke-miterlimit:10;}
	.st15{stroke:#FCE9DB;stroke-width:2;stroke-miterlimit:10;}
</style>
<path d="M89.2,18.5c-0.7-3.5-1.4-6.7-2-9.9c-0.3-1.6-0.6-3.3-0.5-5c0.2-2.7,3-4.5,5.3-3.2c5.2,3,10.2,6.5,15.2,9.9
	c3.6,2.4,7.1,4.9,10.6,7.5c3.5,2.5,7.2,5,10.6,7.7c4.5,3.8,8.8,7.9,13.1,11.8c0.8,0.7,1.6,1.3,2.5,1.9c1.8,1.4,3.2,2.5,2.4,5.4
	c-0.9,3.6-1,7.5-1,11.3c0,6.4-3.5,10.4-8.2,14.1c-5.2,4-10.1,8.4-15.3,12.6c-4.2,3.4-8.4,7-12.9,10c-2.5,1.6-5.5,2.6-8.5,3.3
	c-2.5,0.6-5.9-1.9-6.7-4.8c-1.5-5.3-2.8-10.6-4-15.9c-1-4.3-1.5-4.8-5.8-5c-8-0.4-15.9-1.6-23.8-3.5c-8.7-2.1-17.8-2.3-26.8-1.8
	c-6.2,0.3-12.5-0.2-18.6-0.9c-3.7-0.4-6.7-2.5-9-5.8c-5.4-7.6-6.5-16-5.7-24.9C0.7,27.9,1.5,22.5,2,17.1c0.4-3.6,3.1-5.6,5.6-7.1
	c2.8-1.7,6.3-2.8,9.6-3C27,6.3,36.7,6.6,46.1,9.7c5.5,1.8,10.8,4.2,16.3,5.8C70.8,18,79.4,19.8,89.2,18.5z M93.9,9.2
	c-0.3,0.1-0.6,0.3-0.9,0.4c0.1,1.1,0.2,2.2,0.3,3.3c0.6,3.6,1.6,7.1-0.1,10.8c-1.2,2.6-3.5,4-6.3,3.2c-0.7-0.2-1.5-0.1-2.2-0.2
	c-4.3-0.5-8.8-0.4-12.9-1.6c-7.5-2.1-14.7-4.9-22-7.5c-11.7-4.2-23.6-5.8-35.9-3.8c-5,0.8-8.2,3.2-8.5,7.2C5,28,5,35,4.9,42
	c0,1.8,0.9,2.9,3,2.8c3.6-0.2,7.2-0.4,10.8-0.4c5.7,0.1,11.5-0.1,17.1,0.8c6.5,1.1,12.9,3.1,19.3,4.9c7.6,2.2,15.4,2.5,23.2,3
	c4.4,0.3,8.4-2,13-0.4c4,1.4,5,1.8,5.5,6.3c0.5,4.4,1.3,8.7,2.1,13.6c4.1-2.5,7.9-4.3,11-6.8c8.5-6.9,16.7-14.2,24.9-21.5
	c0.5-0.4,0.4-2.4-0.1-2.8c-2.9-2.4-5.9-4.7-9-6.8c-3.4-2.4-7.2-4.4-10.5-7c-4.9-3.9-9.6-8.2-14.3-12.3C98.5,13.4,96.2,11.3,93.9,9.2
	z"/>
<path class="st12" d="M93.9,9.2c-0.3,0.1-0.6,0.3-0.9,0.4c0.1,1.1,0.2,2.2,0.3,3.3c0.6,3.6,1.6,7.1-0.1,10.8c-1.2,2.6-3.5,4-6.3,3.2
	c-0.7-0.2-1.5-0.1-2.2-0.2c-4.3-0.5-8.8-0.4-12.9-1.6c-7.5-2.1-14.7-4.9-22-7.5c-11.7-4.2-23.6-5.8-35.9-3.8c-5,0.8-8.2,3.2-8.5,7.2
	C5,28,5,35,4.9,42c0,1.8,0.9,2.9,3,2.8c3.6-0.2,7.2-0.4,10.8-0.4c5.7,0.1,11.5-0.1,17.1,0.8c6.5,1.1,12.9,3.1,19.3,4.9
	c7.6,2.2,15.4,2.5,23.2,3c4.4,0.3,8.4-2,13-0.4c4,1.4,5,1.8,5.5,6.3c0.5,4.4,1.3,8.7,2.1,13.6c4.1-2.5,7.9-4.3,11-6.8
	c8.5-6.9,16.7-14.2,24.9-21.5c0.5-0.4,0.4-2.4-0.1-2.8c-2.9-2.4-5.9-4.7-9-6.8c-3.4-2.4-7.2-4.4-10.5-7c-4.9-3.9-9.6-8.2-14.3-12.3
	C98.5,13.4,96.2,11.3,93.9,9.2z"/>
</svg>
