<?xml version="1.0" encoding="utf-8"?>
<!-- Generator: Adobe Illustrator 19.1.0, SVG Export Plug-In . SVG Version: 6.00 Build 0)  -->
<svg version="1.1" id="Calque_1" xmlns="http://www.w3.org/2000/svg" xmlns:xlink="http://www.w3.org/1999/xlink" x="0px" y="0px"
	 viewBox="0 0 140.1 108.9" style="enable-background:new 0 0 140.1 108.9;" xml:space="preserve">
<style type="text/css">
	.st0{fill:#6D9DBD;}
	.st1{fill:#F2A73B;}
	.st2{fill:#6DA3C3;}
	.st3{fill:none;}
	.st4{fill:none;stroke:#F2A73B;stroke-width:3;stroke-miterlimit:10;}
	.st5{fill:#6DA1C1;}
	.st6{fill:#F6AB3B;}
	.st7{fill:none;stroke:#F6AB3B;stroke-width:3;stroke-miterlimit:10;}
	.st8{fill:#F8AD3B;}
	.st9{fill:#C6C6C6;}
	.st10{fill:#F4901E;}
	.st11{fill:none;stroke:#F8AD3B;stroke-width:3;stroke-miterlimit:10;}
	.st12{fill:#f1f6fc;}
	.st13{fill:#FFFFFF;stroke:#C6C6C6;stroke-width:3;stroke-miterlimit:10;}
	.st14{fill:none;stroke:#C6C6C6;stroke-width:3;stroke-miterlimit:10;}
	.st15{stroke:#FCE9DB;stroke-width:2;stroke-miterlimit:10;}
</style>
<path d="M88.1,41.2c0.5-1.5,0.8-2.6,1.2-3.8c1.4-4.5,2.6-9.1,4.3-13.5c0.5-1.3,2.5-2.2,4-2.8C98,21,99.4,23,100,24.2
	c3.6,8.1,8.3,15.4,14.4,21.9c1.3,1.4,2.4,2.9,3.6,4.4c5.9,7.3,11.8,14.7,17.7,22c0.5,0.6,1.3,1,1.9,1.5c2.1,1.7,3.2,3.8,2.3,6.6
	c-0.3,0.9-0.2,2-0.2,3c0,4.1-0.8,7.8-4.2,10.5c-0.6,0.5-1.3,1-2,1.2c-12.1,2.9-24.2,5.8-36.3,8.5c-8.1,1.8-16.3,3.3-24.4,4.9
	c-4.2,0.8-7.7-0.6-8-3.5c-0.2-2.8,0-5.6,0.4-8.3c0.7-4.8,0.5-4.6-3.8-6.1c-6.4-2.2-12.9-4.4-19-7.4c-7.2-3.7-14-8.1-20.8-12.6
	c-2.5-1.7-4.4-4.4-6.6-6.5c-3-2.9-5.9-6.1-9.3-8.6c-5.8-4.4-6.8-9.8-4.6-16.4C2,36.7,2.3,34,3.1,31.4c1.1-3.9,4.7-5.4,7.5-7.6
	c5.6-4.6,11.4-8.8,17-13.3c3.6-2.9,6.9-6.1,10.2-9.2c2.1-1.9,3.5-1.7,4.1,1c2.5,11.3,10.8,17.7,19.5,24c7.2,5.2,15.2,8.7,23.2,12.5
	c0.6,0.3,0.9,1.1,1.4,1.5C86.5,40.6,87.1,40.7,88.1,41.2z M78.7,85c17.7-2.7,34.6-5.3,52.5-8.1c-10.9-15.4-25.4-26.8-33.5-43.7
	c-1.1,1.3-1.9,2-2.2,2.9c-1.2,3-2.3,6-3.4,9c-1,2.6-3.2,3.7-5.5,2.6c-6.9-3.3-13.8-6.5-20.5-10.1c-4.6-2.6-9.2-5.6-13.2-9
	c-5.5-4.6-10.4-9.9-15.7-14.8c-0.5-0.5-1.9-0.8-2.5-0.5c-2,1.1-4,2.4-5.8,3.8c-3.1,2.5-6.1,5.2-9.1,7.8c-3.2,2.8-6.4,5.6-9.8,8.5
	c5.4,4.8,10,9,14.8,13c4.1,3.4,8.1,6.9,12.7,9.4c8.2,4.6,16.8,8.7,25.4,12.5c4.4,1.9,9.1,3.3,14.1,2.4c0.7-0.1,2.2,1,2.4,1.8
	c0.3,1.4-0.1,3-0.2,4.5C79.1,79.6,78.9,82.1,78.7,85z"/>
<path class="st12" d="M78.7,85c17.7-2.7,34.6-5.3,52.5-8.1c-10.9-15.4-25.4-26.8-33.5-43.7c-1.1,1.3-1.9,2-2.2,2.9
	c-1.2,3-2.3,6-3.4,9c-1,2.6-3.2,3.7-5.5,2.6c-6.9-3.3-13.8-6.5-20.5-10.1c-4.6-2.6-9.2-5.6-13.2-9c-5.5-4.6-10.4-9.9-15.7-14.8
	c-0.5-0.5-1.9-0.8-2.5-0.5c-2,1.1-4,2.4-5.8,3.8c-3.1,2.5-6.1,5.2-9.1,7.8c-3.2,2.8-6.4,5.6-9.8,8.5c5.4,4.8,10,9,14.8,13
	c4.1,3.4,8.1,6.9,12.7,9.4c8.2,4.6,16.8,8.7,25.4,12.5c4.4,1.9,9.1,3.3,14.1,2.4c0.7-0.1,2.2,1,2.4,1.8c0.3,1.4-0.1,3-0.2,4.5
	C79.1,79.6,78.9,82.1,78.7,85z"/>
</svg>
