<?xml version="1.0" encoding="utf-8"?>
<!-- Generator: Adobe Illustrator 19.1.0, SVG Export Plug-In . SVG Version: 6.00 Build 0)  -->
<svg version="1.1" id="Calque_1" xmlns="http://www.w3.org/2000/svg" xmlns:xlink="http://www.w3.org/1999/xlink" x="0px" y="0px"
	 viewBox="0 0 146.7 79.7" style="enable-background:new 0 0 146.7 79.7;" xml:space="preserve">
<style type="text/css">
	.st0{fill:#6D9DBD;}
	.st1{fill:#F2A73B;}
	.st2{fill:#6DA3C3;}
	.st3{fill:none;}
	.st4{fill:none;stroke:#F2A73B;stroke-width:3;stroke-miterlimit:10;}
	.st5{fill:#6DA1C1;}
	.st6{fill:#F6AB3B;}
	.st7{fill:none;stroke:#F6AB3B;stroke-width:3;stroke-miterlimit:10;}
	.st8{fill:#F8AD3B;}
	.st9{fill:#C6C6C6;}
	.st10{fill:#F4901E;}
	.st11{fill:none;stroke:#F8AD3B;stroke-width:3;stroke-miterlimit:10;}
	.st12{fill:#f1f6fc;}
	.st13{fill:#FFFFFF;stroke:#C6C6C6;stroke-width:3;stroke-miterlimit:10;}
	.st14{fill:none;stroke:#C6C6C6;stroke-width:3;stroke-miterlimit:10;}
	.st15{stroke:#FCE9DB;stroke-width:2;stroke-miterlimit:10;}
</style>
<path d="M119.1,7.2c0.2,1.3,0,2.4,0.5,3.2c6,10,12.2,19.9,18.1,29.9c3.2,5.4,6,11.1,8.9,16.7c0.3,0.6-0.1,1.5-0.3,2.3
	c-0.5,1.7-1.4,3.4-1.5,5.1c-0.4,4.5-2.9,7.4-7.5,8.1c-5.6,0.9-11.2,1.8-16.7,2.8c-5.9,1-11.8,2.5-17.8,3.2
	c-6.9,0.8-13.8,1.1-20.8,1.2c-5.4,0.1-9.4-3.4-10.6-8.7c-0.1-0.5-0.1-1.2-0.4-1.6c-4.3-4.7,0.1-8.2,1.7-12.1c0.2-0.5-0.6-1.9-1.1-2
	c-12.5-1.4-24.1,0.2-34.3,8.4c-4.3,3.5-9,6.6-14.6,7.7c-2,0.4-2.9-0.1-3.7-2.2c-1.6-3.8-3.9-7.3-6-10.9c-0.7-1.3-1.6-2.6-2.4-3.8
	C7.4,49.2,4,44.1,0.8,38.9c-0.5-0.8-0.9-2.1-0.8-3c1.3-7.4,5.5-13,11.5-17.1c6.8-4.7,13.7-9.4,21-13.3c5.1-2.8,10.9-4.1,17.1-3.5
	c3.8,0.3,7.7-0.6,11.5-0.3c8.9,0.8,17.5,2.5,25.6,6.5c1.8,0.9,3.7,1.6,5.5,2.5c3,1.5,4,1.1,5.7-1.9c1.4-2.5,3.2-4.8,4.9-7.1
	c1.6-2.1,3.5-2,5.7-0.6C112,3.2,115.7,5.2,119.1,7.2z M114,16.6c-2.1,2.5-3.6,4.3-5.1,6.1c-2.7,3.2-7.9,4.8-10.7,3
	c-2.2-1.4-4.1-3.1-6.2-4.4c-5-2.9-9.8-6.6-15.3-8.1c-6.9-1.9-14.2-2.3-21.4-2.7c-8.9-0.5-17.4,1.7-25,6.3c-4.8,2.9-9.1,6.6-13.8,9.5
	c-2.3,1.4-2.6,2.5-1.1,4.5c4.8,6.2,9.5,12.3,14.3,18.5c0.1,0.1,0.4,0.2,0.9,0.4c0.8-0.6,1.8-1.3,2.6-2.1c6.2-6.5,14.3-9,22.6-11
	c7.9-1.9,15.6,0.5,23.1,2c5.7,1.1,11,4.7,16.3,7.4c2.3,1.2,2.6,4.8,1.5,7.1c-1.5,3.2-2.7,6.5-4.1,9.7c0.3,0.3,0.5,0.5,0.8,0.8
	c14.2-2.9,28.3-5.7,42.9-8.7C130.6,40.8,120.6,30.1,114,16.6z"/>
<path class="st12" d="M114,16.6c-2.1,2.5-3.6,4.3-5.1,6.1c-2.7,3.2-7.9,4.8-10.7,3c-2.2-1.4-4.1-3.1-6.2-4.4
	c-5-2.9-9.8-6.6-15.3-8.1c-6.9-1.9-14.2-2.3-21.4-2.7c-8.9-0.5-17.4,1.7-25,6.3c-4.8,2.9-9.1,6.6-13.8,9.5c-2.3,1.4-2.6,2.5-1.1,4.5
	c4.8,6.2,9.5,12.3,14.3,18.5c0.1,0.1,0.4,0.2,0.9,0.4c0.8-0.6,1.8-1.3,2.6-2.1c6.2-6.5,14.3-9,22.6-11c7.9-1.9,15.6,0.5,23.1,2
	c5.7,1.1,11,4.7,16.3,7.4c2.3,1.2,2.6,4.8,1.5,7.1c-1.5,3.2-2.7,6.5-4.1,9.7c0.3,0.3,0.5,0.5,0.8,0.8c14.2-2.9,28.3-5.7,42.9-8.7
	C130.6,40.8,120.6,30.1,114,16.6z"/>
</svg>
