<?xml version="1.0" encoding="utf-8"?>
<!-- Generator: Adobe Illustrator 19.1.0, SVG Export Plug-In . SVG Version: 6.00 Build 0)  -->
<svg version="1.1" id="Calque_1" xmlns="http://www.w3.org/2000/svg" xmlns:xlink="http://www.w3.org/1999/xlink" x="0px" y="0px"
	 viewBox="0 0 147.5 199.5" style="enable-background:new 0 0 147.5 199.5;" xml:space="preserve">
<style type="text/css">
	.st0{fill:#E01220;}
	.st1{fill:#1F7CAD;}
	.st2{fill:#C0BFBF;}
	.st3{fill:#1F7CAD;stroke:#000000;stroke-width:2;stroke-miterlimit:10;}
	.st4{fill:#6DA3C3;}
	.st5{fill:none;stroke:#E01220;stroke-width:3;stroke-miterlimit:10;}
	.st6{fill:#F5FBF9;}
	.st7{fill:#1D1D1B;}
</style>
<g>
	<path class="st0" d="M65,1.5L67.3,0l5.1,3.4L7.8,52.9l2.7,5.3l5.4,5.4l88.4-39.7l2.7,4.3l-15.7,8.2L15.9,70.9l-4.1-4.7L1.1,54.7
		c0,0-1.7-1.2,2-4.1S65,1.5,65,1.5z"/>
	<path class="st0" d="M104.9,31.2c-1.8,0.8-3.1,1.3-4.4,1.9c-8.6,3.9-17.2,7.7-25.7,11.7c-7.7,3.6-15.4,7.5-23.1,11.2
		c-8.8,4.2-17.7,8.4-26.6,12.6c-2.5,1.2-5,2.4-7.5,3.7c0.3,0.8,0.5,1.4,0.7,1.9c1.3,2.9,2.8,5.8,4,8.8c4.1,11.1,8,22.3,12.1,33.5
		c3.1,8.6,6.4,17.1,9.7,25.7c3.2,8.2,6.5,16.4,9.8,24.6c2,5,4,10.1,6,15.2c1.1,2.7,1.4,2.9,4.1,1.7c2.6-1.1,5.1-2.4,7.7-3.6
		c8.8-4.2,17.5-8.5,26.3-12.5c10.1-4.6,20.3-9,30.3-13.6c4.8-2.2,9.5-4.5,14.1-6.9c2-1.1,2-1.3,1.1-3.5c-1.8-4.5-3.7-9-5.6-13.5
		c-6.4-15-12-30.2-16.7-45.8c-4.5-15-8.7-30.1-13.1-45.1C107.3,36.5,106.1,34,104.9,31.2z"/>
	<g>
		<path d="M105.3,27.8c-0.9-2.7-0.9-2.8-3.1-1.8c-5.3,2.4-10.6,4.8-15.9,7.3c-9.2,4.4-18.4,8.9-27.6,13.2
			c-10.8,5-21.8,9.9-32.7,14.7c-2.6,1.1-5.2,2.2-7.8,3.2c-2.5,0.9-3.8,0.4-5.5-1.8c-1.4-1.8-3-3.5-4.6-5.3c-0.6-0.7-1.2-1.3-1.6-2
			c-1-1.8-0.8-2.4,0.8-3.7c3.9-3.2,7.9-6.3,11.9-9.5c5.1-4,10.2-8.1,15.5-12c8.8-6.5,17.6-12.8,26.5-19.2c3.1-2.3,6.2-4.6,9.8-7.3
			c-1.4-0.9-2.4-1.5-3.5-2.2C61.8,5.8,56.4,10.1,51,14.4C38.2,24.7,25.4,34.9,12.5,45.2c-2.7,2.2-5.5,4.4-8.2,6.5
			c-1.5,1.2-1.8,1.2-3.4-0.3c0.1-0.2,0.2-0.5,0.4-0.7c4.3-3.5,8.7-6.9,13-10.4c5.6-4.5,11.2-9,16.9-13.5c6.3-5,12.8-9.9,19.1-14.9
			c4.1-3.2,8.2-6.6,12.3-9.9c3.3-2.7,5.6-2.8,8.9-0.2c0.2,0.2,0.4,0.4,0.7,0.6c1.9,1.5,1.9,1.5,0.7,4c9.9,4,19.1,9.1,25.2,18.7
			c1.6-0.7,3.3-1.4,4.9-2.3c2.6-1.4,5.9,3.6,5.1,6.3s-0.4,1.6,1.2,6.4c0.9,1.9,1.3,4,1.9,6.1c1.6,5.3,3.2,10.6,4.7,15.9
			c2.1,7.3,4.4,14.5,6.4,21.8c5.7,20.8,13.8,40.7,22.3,60.4c0.7,1.7,1.6,3.3,2.5,4.9c0.7,1.4,0.4,2.5-0.9,3.2
			c-1.8,1.1-3.7,2.2-5.6,3c-11,4.9-22.1,9.6-33.2,14.4c-1.1,0.5-2.1,1-3.2,1.5c-1.9,1-1.9,1.3-1,3.2c3.3,6.8,6.6,13.7,9.9,20.5
			c0.7,1.4,1.1,2.6-0.3,3.9c-1.4,1.2-2,1.4-3.6,0.4c-1.3-0.8-2.5-1.8-3.8-2.6c-0.5-0.4-1.1-0.6-1.9-1c-0.3,1.6-0.5,2.9-0.8,4.2
			c-0.2,0.9-0.3,2-0.7,2.8c-0.7,1.5-2.2,1.6-3.2,0.3c-0.3-0.5-0.6-1-0.9-1.5c-3.5-7-7-14.1-10.7-21.4c-1.9,0.8-3.7,1.5-5.5,2.4
			c-3,1.4-5.9,2.9-8.9,4.3c-2.3,1.1-4.5,2.2-6.8,3.2c-1.5,0.7-3.1,0.8-4.8,0.4c-1.5-0.3-3.1-0.4-4.6-0.2c-2.8,0.3-5.3-0.2-7.5-1.8
			c-1.9-1.4-3.7-3.2-5.3-5c-0.7-0.7-1.4-1.9-1.4-2.8c0.1-2.3-1.1-4.1-1.9-6.1c-1.2-3.1-2.3-6.2-3.5-9.3c-2.2-5.5-4.7-10.9-6.7-16.5
			c-4.2-11.9-8.4-23.8-12.1-35.9C14.1,95.2,9.7,82.2,5.3,69.1c-1.3-4-3.1-7.8-4.7-11.7c-0.5-1.2-1-2.3-0.2-3.7
			c1.3-0.4,2.2,0.3,2.9,1.3c3.4,5,8,9,12.4,13.1c1,1,2.1,1.1,3.5,0.5c2.5-1.3,5.1-2.4,7.7-3.6c10.6-5,21.1-9.9,31.6-15
			c14.1-6.7,28-14,42.6-19.8c1.1-0.4,2.1-1,3.2-1.5C104.7,28.5,105,28.1,105.3,27.8z M104.9,31.2c-1.8,0.8-3.1,1.3-4.4,1.9
			c-8.6,3.9-17.2,7.7-25.7,11.7c-7.7,3.6-15.4,7.5-23.1,11.2c-8.8,4.2-17.7,8.4-26.6,12.6c-2.5,1.2-5,2.4-7.5,3.7
			c0.3,0.8,0.5,1.4,0.7,1.9c1.3,2.9,2.8,5.8,4,8.8c4.1,11.1,8,22.3,12.1,33.5c3.1,8.6,6.4,17.1,9.7,25.7c3.2,8.2,6.5,16.4,9.8,24.6
			c2,5,4,10.1,6,15.2c1.1,2.7,1.4,2.9,4.1,1.7c2.6-1.1,5.1-2.4,7.7-3.6c8.8-4.2,17.5-8.5,26.3-12.5c10.1-4.6,20.3-9,30.3-13.6
			c4.8-2.2,9.5-4.5,14.1-6.9c2-1.1,2-1.3,1.1-3.5c-1.8-4.5-3.7-9-5.6-13.5c-6.4-15-12-30.2-16.7-45.8c-4.5-15-8.7-30.1-13.1-45.1
			C107.3,36.5,106.1,34,104.9,31.2z M57.4,183.4c-0.3-0.9-0.4-1.6-0.6-2.2c-5.8-15.1-11.2-30.3-17.5-45.2
			c-4.6-10.8-8.2-22.1-12.3-33.1c-3.8-10.2-7.3-20.5-12.3-30.3c-0.3-0.5-0.3-1.1-0.6-1.6c-0.5-1-0.8-2.2-1.6-3
			c-2.1-2.2-4.3-4.2-6.5-6.3C6,61.8,5.8,61.9,5.6,62c0,0.2-0.1,0.4,0,0.5c2.5,7.6,5.1,15.1,7.6,22.7c3.9,11.8,7.7,23.7,11.6,35.5
			c1.6,4.7,3.3,9.3,5,14c2.7,7.7,4.9,15.5,8.7,22.8c0.8,1.4,1.1,3.1,1.7,4.7c0.4,1.1,0.8,2.2,1.2,3.3c1.4,3.3,3.4,6.5,4.2,9.9
			c0.9,3.7,3.3,5.6,6.2,7.3C53.3,183.6,55.1,183.9,57.4,183.4z M26.3,58.2c3-0.3,66.9-30.4,69.5-32.7c-1.4-1.7-2.8-3.4-4.4-5.3
			C69.6,32.9,48,45.5,26.3,58.2z M8.8,54.5c0.3,0,0.6,0.2,0.8,0.1c21.1-13.9,42.2-27.7,62.9-42.3c0.9-0.6,1.7-1.4,3-2.5
			c-2.1-0.9-3.7-1.6-5.3-2.2c-5.4,3.8-10.7,7.4-15.9,11.2c-5.3,3.8-10.5,7.7-15.7,11.6c-5.1,3.9-10.1,7.9-15.3,11.6
			C17.3,46.4,9.6,52.8,8.8,54.5z M84.1,14c-1.5,2.8-4,3.6-6.1,5c-5.4,3.6-10.8,7.3-16.2,10.9c-3,2-6.1,3.8-9.1,5.8
			c-4.6,3.1-9,6.5-13.7,9.4c-6.9,4.2-14,8.1-20.9,12.2C17,58,15.9,58.6,15,59.4c-0.3,0.3-0.3,1-0.4,1.5c0.5,0.1,1.1,0.3,1.5,0.1
			c1.9-1,3.7-2.1,5.6-3.1c9.9-5.6,19.8-11.2,29.6-16.9c11.5-6.6,22.4-14.1,34.4-19.8c1.3-0.6,2.4-1.5,3.9-2.4
			C87.6,17.1,86,15.7,84.1,14z M11.5,57.9c1-0.3,1.7-0.4,2.2-0.7c9.9-5.8,19.9-11.5,29.5-17.6C54,32.7,64.4,25.3,74.9,18.1
			c2.3-1.6,4.7-3.2,7.3-5c-1.2-0.8-2.4-1.4-3.4-2.1c-3.7,2.4-7.3,4.8-10.8,7.1c-5.2,3.5-10.4,7.2-15.6,10.7c-4.6,3.2-9.3,6.4-14,9.5
			c-4.3,2.8-8.7,5.5-13,8.3c-3.8,2.5-7.6,5-11.4,7.6C13.1,55.1,11.7,55.7,11.5,57.9z M93,181.4c2.3,4.5,4.4,8.7,6.6,13
			c1.3-1.2,0.9-2.7,1.2-4c0.3-1.8,1-2.3,2.8-1.7c1.4,0.5,2.8,1.3,4.1,2.1c0.9,0.5,1.8,1.2,2.7,1.8c0.2-0.2,0.4-0.3,0.5-0.5
			c-2.8-5.2-4.7-10.9-7.9-16.3C99.5,177.8,96.3,179.6,93,181.4z"/>
		<path d="M72.4,155.3c-0.5-1.1-1-2.1-1.3-3c-3.9-10.9-7.8-21.8-11.6-32.7c-1.7-4.9-2.8-9.9-4.4-14.8c-1.2-3.8-2.8-7.4-4.1-11.2
			c-1-2.9-1.7-5.8-2.4-8.7c-0.6-2.7,0.3-4.2,3-5.4c4-1.8,8-3.5,12-5.2c7.9-3.5,16-6.6,23.4-11.1c2.4-1.4,4.1-0.8,4.7,1.9
			c2.1,10,6.4,19.4,9.4,29.1c2.3,7.6,4.9,15.2,7.3,22.7c1.6,5,3.2,10,4.7,15c0.8,2.6,0.5,3.8-1.8,5.2c-2.4,1.5-4.9,2.9-7.5,3.9
			c-5.8,2.3-11.1,5.5-16.6,8.6c-3.6,2-7.2,3.8-10.9,5.5C75.4,155.5,73.9,155.2,72.4,155.3z M77.9,143c1.2-0.5,2.1-0.8,2.9-1.3
			c6.9-3.6,13.7-7.3,20.6-10.9c2.3-1.2,2.4-1.3,1.6-3.9c-1.8-6-3.6-12.1-5.7-18.1c-3.7-10.3-7.7-20.6-10.7-31.2
			c-0.3-1-0.7-1.9-1-2.8c-9.2,4-18,7.9-27,11.8c0.1,0.9,0,1.6,0.3,2.2C66.6,106.3,72.2,124.5,77.9,143z"/>
	</g>
	<path class="st0" d="M57.4,183.4c-0.3-0.9-0.4-1.6-0.6-2.2c-5.8-15.1-11.2-30.3-17.5-45.2c-4.6-10.8-8.2-22.1-12.3-33.1
		c-3.8-10.2-7.3-20.5-12.3-30.3c-0.3-0.5-0.3-1.1-0.6-1.6c-0.5-1-0.8-2.2-1.6-3c-2.1-2.2-4.3-4.2-6.5-6.3C6,61.8,5.8,61.9,5.6,62
		c0,0.2-0.1,0.4,0,0.5c2.5,7.6,5.1,15.1,7.6,22.7c3.9,11.8,7.7,23.7,11.6,35.5c1.6,4.7,3.3,9.3,5,14c2.7,7.7,4.9,15.5,8.7,22.8
		c0.8,1.4,1.1,3.1,1.7,4.7c0.4,1.1,0.8,2.2,1.2,3.3c1.4,3.3,3.4,6.5,4.2,9.9c0.9,3.7,3.3,5.6,6.2,7.3
		C53.3,183.6,55.1,183.9,57.4,183.4z"/>
	<path class="st0" d="M93,181.4c2.3,4.5,4.4,8.7,6.6,13c1.3-1.2,0.9-2.7,1.2-4c0.3-1.8,1-2.3,2.8-1.7c1.4,0.5,2.8,1.3,4.1,2.1
		c0.9,0.5,1.8,1.2,2.7,1.8c0.2-0.2,0.4-0.3,0.5-0.5c-2.8-5.2-4.7-10.9-7.9-16.3C99.5,177.8,96.3,179.6,93,181.4z"/>
</g>
</svg>
