<?xml version="1.0" encoding="utf-8"?>
<!-- Generator: Adobe Illustrator 19.1.0, SVG Export Plug-In . SVG Version: 6.00 Build 0)  -->
<svg version="1.1" id="Calque_1" xmlns="http://www.w3.org/2000/svg" xmlns:xlink="http://www.w3.org/1999/xlink" x="0px" y="0px"
	 viewBox="0 0 188 169" style="enable-background:new 0 0 188 169;" xml:space="preserve">
<style type="text/css">
	.st0{fill:#E01220;}
	.st1{fill:#1F7CAD;}
	.st2{fill:#C0BFBF;}
	.st3{fill:#1F7CAD;stroke:#000000;stroke-width:2;stroke-miterlimit:10;}
	.st4{fill:#6DA3C3;}
	.st5{fill:none;stroke:#E01220;stroke-width:3;stroke-miterlimit:10;}
	.st6{fill:#F5FBF9;}
	.st7{fill:#1D1D1B;}
</style>
<g>
	<path d="M127.2,155.9c-0.2,2.8-0.3,4.9-0.5,7.1c-0.3,3.8-2.1,5.4-5.7,5.6c-1.6,0.1-98.1,0.7-104.7,0.2c-1.7-0.1-3.3-1-4.9-1.6
		c-2-0.7-2.9-2.3-2.9-4.3c-0.2-5.6-0.1-11.2-0.4-16.7c-0.2-4.5-0.8-8.9-1.1-13.3c-0.5-6.2-0.9-12.3-1.4-18.5
		c-0.2-2.3-0.6-4.6-0.8-6.9c-0.9-8.9-2-17.7-2.6-26.6C1.4,71,1.2,61.2,0.9,51.4C0.6,45.1,0,38.8,0.5,32.6C1,26.9,1.2,21.4,0,16.1
		c2.2-3.4,5.6-2.2,8.7-2.9C9.2,9.2,7.9,4.9,9.9,0.7c1.8,0.2,3.6,0.6,5.4,0.6C25.1,1,34.9,0.5,44.7,0.1C47.5,0,50.4,0,53.3,0
		c7,0,14.1,0,21.1,0c4.9,0,9.8,0.1,14.7,0.2c9.8,0.1,19.6,0.2,29.4,0.3c4.3,0.1,8.6,0.2,13,0.3c2,0.1,3.8,1.5,4.1,3.5
		c0.4,2.1,0.7,4.3,0.7,6.4c0.4,9.2,0.7,18.4,1,27.6c0.3,9.8,0.6,19.6,0.9,29.4c0.3,9.9,0.6,19.8,0.9,29.7c0.2,6.9,0.9,48.7,0.9,50.5
		c0,5.8-2.5,8.1-8.4,8C130.2,155.9,129,155.9,127.2,155.9z M5.1,18c-0.2,5.6-0.4,10.4-0.6,15.2c0,0.1,0,0.3,0,0.4
		C4.8,41.7,5,49.8,5.4,57.8c0.6,10.9,1.2,21.8,2,32.7c0.8,10.5,1.8,20.9,2.6,31.4c1,11.9,3,23.7,2.6,35.7c0,1.1,0.2,2.2,0.4,3.9
		c10.1,0.4,20,0.9,29.9,1c10.4,0.1,77.8,1.9,77.8-2.4c0-7.8-0.2-18.1-0.4-25.8c-0.3-7.6-0.8-15.2-1.3-22.8
		c-0.5-7.2-0.9-14.4-1.6-21.5c-0.8-9.5-3.7-54.1-3.6-59.9c0-5.5-0.1-10.8-2-15.9c-5.5-0.3-10.6-0.7-15.8-0.9
		c-5.4-0.2-10.9-0.3-16.3-0.3c-3,0-6,0.6-9,0.8c-10.5,0.9-20.9,1.7-31.4,2.6c-6.2,0.5-12.3,1.2-18.5,1.7c-0.9,0.1-1.7,0-2.6,0
		C13.8,18,9.4,18,5.1,18z M128.8,5.7c-5.2-0.1-9.6-0.2-14.1-0.3c-11.6-0.1-23.3-0.3-34.9-0.4C71.1,5,62.3,5,53.5,5
		c-4.9,0-9.7,0.2-14.6,0.4c-2.4,0.1-4.9,0.4-7.3,0.5C25.3,6,19,6.1,12.6,6.2c0,2.4,0,4.3,0,6.3c1,0.3,1.6,0.7,2.3,0.7
		c3.3,0,6.6-0.1,9.9-0.3c8.9-0.6,17.8-1.4,26.7-2.1C62.1,10.1,72.7,9,83.4,8.7c8.2-0.2,16.4,0.5,24.6,0.7c2.8,0.1,5.4,0,8.2,1.4
		c2.3,1.2,3.4,2.4,3.6,4.7c0.4,3.6,0.8,7.1,1.1,10.7c0.5,6.9,1.1,13.8,1.4,20.7c0.5,9.8,0.7,19.5,1.1,29.3c0.5,12.1,1,24.1,1.6,36.2
		c0.3,7.3,0.7,14.7,1.1,22c0.3,4.3,0.7,8.6,1.1,13.2c1.4-0.3,2.6-0.6,3.7-0.9C133.7,99.8,130,53.2,128.8,5.7z"/>
	<path d="M172.2,89c3.8,0.4,7.4,2,11.7,4c3.9,1.8,3.7,2.9,2.3,7c-1.3,3.7-2.4,7.4-3.8,11c-0.4,1-1,2.1-1.9,2.8
		c-0.5,0.4-1.7,0.6-2.3,0.3c-0.5-0.3-0.9-1.5-0.7-2.1c0.6-2.7,1.5-5.3,2.3-7.9c0.8-2.5,1.6-5.1,2.4-7.6c-0.3-0.1-0.6-0.2-0.8-0.3
		c-10.1,25.1-21.1,46.2-23.9,50.7c-1.5,2.4-3.2,3.3-4.7,2.3c-1.4-0.9-1.6-1.9-1.4-3.6c0.7-7.2,2.9-14,5.7-20.7
		C161.3,114.5,171.3,90.5,172.2,89z M161.5,134.1c5.8-11,9.4-22,14.2-33.6c-1.2-0.4-3.1-1-3.9-1.3c-2.4,3.6-11.7,24.6-14.3,33.2
		C157.1,133.6,160.6,133.5,161.5,134.1z M176.6,94.3c-1,0.1-1.9-1-2.8-0.9c0.1,0.5-1,1.5,0.4,2.6C175.5,96.8,176.3,96.4,176.6,94.3z
		 M160,137.3c0,0-3.9-1.1-4-0.8c-0.2,0.5-2.1,4.1,0,4.7C159.1,142.2,160,137.3,160,137.3z"/>
	<path d="M170.8,51.4c5.7,2.1,11.3,4.2,16,8c1.3,1,1.5,2.2,0.8,3.8c-1.6,3.4-3,6.8-4.5,10.3c-0.6,1.3-1.7,2.4-3,1.7
		c-0.9-0.5-1.4-2.1-1.5-3.2c-0.1-1,0.7-2.1,1.1-3.2c1.1-2.4,2.2-4.9,3.4-7.3c-0.2-0.2-1.4-1-1.7-1.1c-0.5,0.5-19.4,38.4-26.8,42.4
		c-3,1.7-5.3,1.9-5.4-0.5c-0.2-4.1,0.3-8.3,2.2-11.9C153.4,86.8,166.6,59.5,170.8,51.4z M158.9,92.6c5-9.3,9.8-18.3,14.7-27.4
		c-0.5-0.6-0.8-1.1-1.3-1.4c-0.6-0.4-1.2-0.7-2.3-1.4c-4.1,8.8-9.9,18.4-13.9,27.1C155.6,90.7,156.4,91.2,158.9,92.6z M172.4,59.5
		c1.4,0.7,1.6,1.8,2.8,2c0.3,0,1.7-2.2,2.1-3.1c-1.3-0.7-2.4-1.2-3.6-1.9C173.2,57.5,172.9,58.3,172.4,59.5z"/>
	<path d="M77.2,135.7c1.4-1.7,2.6-3.2,3.7-4.7c2.8,0.1,3.1,2,3.5,3.9c0.8-1.1,1.6-2.2,2.3-3.1c2.8,0.5,3.3,2.5,4.1,4.9
		c8.1,0.3,16.3,0.6,24.7,1c-0.6,2.7-2.5,3.2-4.6,3.2c-4,0-8-0.2-12-0.3c-1.7,0-3.4,0-5.3,0c0.4,1.1,1.1,2.1,1.1,3.2
		c0,1.3-0.2,3-1.1,3.8c-1.2,1.1-2.8,0.2-3.8-1c-1.3-1.5-2.5-3.1-3.9-5c-1,1.4-2.2,2.9-3.7,4.9c-1.5-1.1-2.9-2.2-4.3-3.3
		c-3.8,2.4-4.8,2-6.4-3.2c-1.4,1.9-2.7,3.7-3.9,5.4c-3.3-1.8-3.3-1.8-2.5-5.2c-4.1,0.7-8,1.3-11.9,1.9c-1.7,0.3-3.4,0.5-5.1,0.7
		c-1.8,0.2-2.7-0.9-2.9-2.5c-0.1-1.5,1.2-1.7,2.4-1.9c5.7-0.7,11.4-1.6,17.1-2c3.4-0.3,5.4-2.1,7.3-4.6c0.5-0.7,1.9-1.3,2.8-1.2
		c0.6,0.1,1.1,1.4,1.5,2.3c0.2,0.3,0,0.9,0.1,1.3C76.8,134.8,77,135.1,77.2,135.7z"/>
	<path d="M98.5,70.3c1.5,4.6,1.4,4.9-2.7,5c-12.3,0.4-24.7,1.1-37,1c-9.6,0-19.2-1-28.8-1.5c-2.2-0.1-4.3-0.1-6.5,0.1
		c-2.3,0.1-4.6,0.5-7.4,0.8c-0.3-1.5-1-2.9-0.7-4c0.4-1.7,2.3-1.4,3.7-1.4c7.9,0.2,15.8,0.5,23.7,0.6c9,0.1,18.1,0.1,27.1,0
		c8.6-0.1,17.2-0.6,25.9-0.8C96.6,69.9,97.5,70.1,98.5,70.3z"/>
	<path d="M94.4,57.9c-3.1,0-6-0.1-8.8,0c-14.9,0.4-29.9,0.8-44.8,1.1c-8.3,0.2-16.7,0.1-25.1,0.1c-0.6,0-1.4,0.2-1.7-0.1
		c-0.7-0.7-1.6-1.6-1.7-2.5c-0.1-0.6,1-1.9,1.7-1.9c3.7-0.4,7.4-0.7,11.1-0.7c5.9,0,11.7,0.4,17.6,0.4c5.3,0,10.6-0.4,15.9-0.5
		c6-0.2,12.1-0.1,18.1-0.3c4.6-0.1,9.2-0.5,13.8-0.6C93.8,52.7,94.3,53.6,94.4,57.9z"/>
	<path d="M13.3,38.7c3.1-0.2,6-0.5,8.8-0.6c6.5-0.3,12.9-0.5,19.4-0.8c7.9-0.3,15.8-0.7,23.7-0.9c2.9-0.1,5.7,0.5,8.6,0.5
		c6.5-0.1,12.9-0.5,19.4-0.7c3.2-0.1,3.5,0.2,4,4.1c-1.7,1.6-4,1.3-6.1,1.3c-8.7,0.1-17.4-0.1-26.1,0c-4.3,0-8.6,0.5-12.9,0.6
		c-7.6,0.2-15.2,0.2-22.9,0.4c-4,0.1-8,0.6-12,0.6C13.4,43.3,13.1,42.8,13.3,38.7z"/>
	<path d="M98.5,106.9c-7.1,0-14.4-0.2-21.7,0c-6.6,0.2-13.2,1.1-19.8,1.1c-10.8,0-21.5-0.4-32.3-0.7c-2-0.1-3.9-0.6-6.3-1
		c-0.2-1.7-0.5-3.2-0.7-4.9c8.9,1,17.1,1.6,25.5,1.2c3.9-0.2,7.7,0.5,11.6,0.4c7.2-0.2,14.4-0.6,21.6-0.9c6.5-0.3,12.9-0.6,19.4-0.9
		C99.7,101.1,100.4,102.5,98.5,106.9z"/>
	<path d="M18.1,87.3c7.2-0.2,14.3-0.6,21.4-0.6c5.4,0,10.9,0.8,16.3,0.7c7.5-0.1,14.9-0.6,22.4-1c1.8-0.1,3.8-0.7,4.7,1.7
		c0.7,2,0.3,3.1-1.8,3.4c-3.7,0.4-7.4,1-11.1,1c-14.8-0.1-29.6-0.3-44.4-0.5c-1.3,0-2.6,0-3.9,0.2C17.4,92.7,16.6,91.7,18.1,87.3z"
		/>
	<path class="st1" d="M158.9,92.6c5-9.3,9.8-18.3,14.7-27.4c-0.5-0.6-0.8-1.1-1.3-1.4c-0.6-0.4-1.2-0.7-2.3-1.4
		c-4.1,8.8-9.9,18.4-13.9,27.1C155.6,90.7,156.4,91.2,158.9,92.6z"/>
	<path class="st1" d="M128.8,5.7c-5.2-0.1-9.6-0.2-14.1-0.3c-11.6-0.1-23.3-0.3-34.9-0.4C71.1,5,62.3,5,53.5,5
		c-4.9,0-9.7,0.2-14.6,0.4c-2.4,0.1-4.9,0.4-7.3,0.5C25.3,6,19,6.1,12.6,6.2c0,2.4,0,4.3,0,6.3c1,0.3,1.6,0.7,2.3,0.7
		c3.3,0,6.6-0.1,9.9-0.3c8.9-0.6,17.8-1.4,26.7-2.1C62.1,10.1,72.7,9,83.4,8.7c8.2-0.2,16.4,0.5,24.6,0.7c2.8,0.1,5.4,0,8.2,1.4
		c2.3,1.2,3.4,2.4,3.6,4.7c0.4,3.6,0.8,7.1,1.1,10.7c0.5,6.9,1.1,13.8,1.4,20.7c0.5,9.8,0.7,19.5,1.1,29.3c0.5,12.1,1,24.1,1.6,36.2
		c0.3,7.3,0.7,14.7,1.1,22c0.3,4.3,0.7,8.6,1.1,13.2c1.4-0.3,2.6-0.6,3.7-0.9C133.7,99.8,130,53.2,128.8,5.7z"/>
	<path class="st1" d="M161.5,134.1c5.8-11,9.4-22,14.2-33.6c-1.2-0.4-3.1-1-3.9-1.3c-2.4,3.6-11.7,24.6-14.3,33.2
		C157.1,133.6,160.6,133.5,161.5,134.1z"/>
	<path class="st6" d="M153.4,94.3l3.7,2.1c0,0-1.4,3.1-3.5,2.9C150.8,99,153.4,94.3,153.4,94.3z"/>
</g>
</svg>
