<?xml version="1.0" encoding="utf-8"?>
<!-- Generator: Adobe Illustrator 19.1.0, SVG Export Plug-In . SVG Version: 6.00 Build 0)  -->
<svg version="1.1" id="Calque_1" xmlns="http://www.w3.org/2000/svg" xmlns:xlink="http://www.w3.org/1999/xlink" x="0px" y="0px"
	 viewBox="0 0 831 255.6" style="enable-background:new 0 0 831 255.6;" xml:space="preserve">
<style type="text/css">
	.st0{fill:#E01220;}
	.st1{fill:#1F7CAD;}
	.st2{fill:#C0BFBF;}
	.st3{fill:#1F7CAD;stroke:#000000;stroke-width:2;stroke-miterlimit:10;}
	.st4{fill:#6DA3C3;}
	.st5{fill:none;stroke:#E01220;stroke-width:3;stroke-miterlimit:10;}
	.st6{fill:#F5FBF9;}
	.st7{fill:#1D1D1B;}
	.st8{fill:#010202;}
</style>
<g>
	<g>
		<path d="M156.6,103.5c0.5,1.1,0.7,2.4,1.5,3c6.8,6.4,13.1,13.4,22.1,16.8c8,3,15.9,6.2,24.4,7.5c2.5,0.4,4.6-0.2,6.3-1.7
			c2.3-2.1,4.8-2.3,7.6-1.5c2.6,0.7,5.2,0.8,8-0.2c7.6-2.7,14.5-2.1,19.8,4.9c0.2,0.2,0.5,0.3,1.1,0.6c7.2-5.1,14.6-10.2,21.7-15.2
			c6.9,0.6,9.4,5.9,12.1,10.7c4.6,8.1,8.9,16.4,13.1,24.7c4.7,9,9.1,18.1,13.7,27.1c1.9,3.8,1.7,5.9-1.8,8
			c-6.7,4.1-13.5,8.1-20.3,12.1c-3.9,2.3-8,4.2-11.7,6.7c-11.6,7.9-23.8,14.6-36,21.5c-3.1,1.7-6,3.8-9,5.5
			c-3.9,2.2-4.6,1.6-6.8-2.7c-1.6-3.2-4.4-5.8-6.5-8.8c-1.2-1.7-1.9-3.6-3-5.3c-2-3.1-3.9-6.3-6.2-9.1c-7.4-9-13.4-18.8-18-29.6
			c-2-4.7-1.5-6.4,2.6-9.4c4.3-3.1,8.7-6,13.1-9c1.1-0.7,2-1.5,2.9-2.2c0.1-0.6,0.3-1,0.1-1.2c-3.4-5.1-3.3-10.2-0.2-15.4
			c0.7-1.1,0.9-2.6,1.5-4.5c-9.7-1.2-18.2-4.4-26.7-7.5c-8.8-3.1-15.8-8.8-23.5-15.6c0.5,7.9,0.9,14.5,1.3,21.2
			c0.9,15.8,4.8,31.1,7.7,46.5c1,5,2.1,10.1,3.1,15.1c0.8,4,0.7,4-3.1,5.4c-0.9,0.3-1.7,0.9-2.5,1.4c-9,4.9-18.1,9-28.6,9.3
			c-5.6,0.2-11.1,0.8-17.2,1.2c0,7.8-2.9,15.3-2.4,23.9c3.3,0.2,6.3,0.3,9.3,0.7c3.8,0.5,7.6,1,11.3,1.9c3.3,0.8,4.4,2.8,3.8,6.1
			c-0.7,3.5-0.7,7.4-5.3,9.2c-6.5,0.4-13.5-2.4-20.8-0.7c-3.2,0.7-5.7-2.9-5.2-7.1c1.1-9.4,2.3-18.8,3.5-28.2
			c0.2-1.9,0.4-3.8,0.6-5.5c-8.8-0.9-17.3-1.8-26.4-2.8c-0.4,2-1,4.2-1.4,6.3c-1.6,8.9-1.7,17.9-0.9,26.9c0.4,4.6-1.1,6.2-5.6,6.8
			c-6.7,0.8-13.3,2-19.9,3.2c-3.7,0.7-5.6-0.3-6.1-4c-0.2-1.4,0.1-2.9-0.1-4.3c-0.7-4.7,3.1-7.6,7.7-7.7c5-0.1,9.9,0.4,14.9,0.6
			c0.8,0,1.6,0,2.8,0c0.8-9.6,1.5-19.2,2.3-29.3c-1.7-0.5-3.8-1.3-5.9-1.9c-10.2-2.7-19.6-7.3-28.5-12.9c-1.9-1.2-3.9-2.3-5.7-3.5
			c-5.1-3.5-6-8.4-4.8-14c2.9-12.7,7.9-24.8,12.5-36.9c3.2-8.4,6.8-16.6,9.8-25.2C49,126.9,38.6,138.5,28.3,150
			c0.7,1.4,1.5,2.4,1.7,3.6c0.1,0.9-0.3,2.7-0.9,2.9c-4.8,1.7-16.6,13.8-18.8,15.4c-2.2,1.5-7.5-1.6-9.3-4c-1.7-2.2-1.4-4.3,1-7
			c4-4.6,14.4-18.6,17.1-17.9c2.7,0.7,3.6,1.9,4.1,3.2c8.2-5.8,40.1-43.5,48.4-57.3c-1.4-1.7-2.8-3.6-4.5-5.3
			c-7.4-7.4-10.5-16.8-12.2-26.8c-1.1-6.3-1-12.5,0.6-18.7c2.7-10.3,8.1-18.7,17.1-24.8c7.8-5.2,15.5-10.6,25-12.1
			c5.7-0.9,11.5-1.3,17.2-1.3c9.2-0.1,18.2,0.7,27.2,3.1c11.5,3.1,20.8,9.5,28.5,18.1c7.8,8.7,12.5,18.9,13.7,30.8
			c0.5,5.5-1.8,24.7-3.8,28.8c-4.2,8.7-10.8,15.1-18.8,20.1C160,101.8,158.4,102.5,156.6,103.5z M153.7,113.6
			c-1.1,0.5-1.7,0.6-2,0.9c-2.9,3.1-37.5,3.1-49.3,0.6c-11-2.4-21.2-7.1-31.8-11.9c-0.7,1.5-1.4,2.9-2,4.3
			C63.4,120.3,57.9,133,53,145.9c-4.1,10.8-7.4,21.8-11,32.8c-0.2,0.6-0.2,1.3-0.3,1.9c-0.8,3.1,0.5,5.3,3.2,6.8
			c2,1.1,4,2.1,5.9,3.3c16.4,10.1,34.5,15,53.4,16.3c10.9,0.7,21.8-0.2,32.7-0.5c10.4-0.3,19.3-5.2,28.4-9.8
			c-0.2-1.9-0.1-3.4-0.4-4.8c-2.4-11.8-4.9-23.6-7.1-35.4c-1.1-5.8-1.9-11.7-2.4-17.6c-0.6-7.2-0.7-14.4-1.1-21.7
			C154.3,116.1,154,115,153.7,113.6z M59.1,45.3c-1.3,9.1,3.1,27.8,12.6,36.9c6,5.8,12.4,11.2,20.4,14.3c15.7,6.1,31.9,8.2,48.6,5.5
			c8.8-1.5,17.2-4.1,24.1-10.2c10-7,12.7-14.6,13.4-24.1s1.3-16.3-0.3-24.2c-1.6-8.1-6.2-14.8-11.9-20.6
			c-5.3-5.4-11.3-10.2-18.6-12.6c-12.8-4.3-26.1-5.3-39.5-4.4c-4.7,0.3-9.5,1.5-14.1,3c-8.8,2.9-21.7,8.3-26.7,16.3
			C63.8,30.3,60.4,36.2,59.1,45.3z M272.4,122.5c-10.5,7-20.7,13.8-30.9,20.5c-7.4,4.8-14.9,9.5-22.4,14.3c-8.1,5.3-16.1,10.6-24,16
			c-2.7,1.9-2.8,2.7-1.3,5.7c0.8,1.7,1.9,3.3,2.8,5c3.6,6.9,7.5,13.5,12.6,19.4c4.3-3.2,9.7-4.5,13.4-8.7c-0.7-1.5-1.6-2.8-1.7-4.1
			c-0.2-1.5-0.3-3.5,0.5-4.4c5-5.8,8.8-5.2,12,1.7c0.1,0.1,0.2,0.2,0.4,0.3c10.5-3.5,18.5-11.4,28.8-16c-1.8-2.4-3.2-4.4-4.8-6.5
			c2.9-3.2,5.7-5.8,10.5-6.6c1.7,2.5,3.5,5.1,5.4,7.9c5.9-3.3,11.6-6.4,17.5-9.6C285.6,145,279.5,133.5,272.4,122.5z M295.3,166.1
			c-5.8,3.1-11,5.9-16.5,8.8c1.3,2.1,2.3,3.6,3.1,5.1c0.9,1.7-4.7,3.5-6.1,4.4c-1,0.7-2.2,1.2-3.3,1.8c-2.1-2.4-4-4.6-6.1-7
			c-9,5.7-17.8,11.4-26.8,17.1c0.4,1.3,1.9,4,2.3,5.3c-3,2.1-4.4,5.3-9.7,6.6c-1.3-1.6-3-3.6-4.8-5.8c-4,2.7-8,5.4-11.9,8.1
			c3.6,6.5,7,12.6,10.5,19c0.9-0.5,1.6-0.8,2.3-1.2c11.9-7.1,23.8-14.2,35.6-21.2c11.3-6.7,22.7-13.5,34-20.2c2-1.2,3.9-2.7,5.9-4.1
			C300.9,177.1,298.2,171.8,295.3,166.1z M243,135.5c-3.9-4.9-6.8-5.5-12.6-3.4c0,0.8,0,1.6,0,2.3c0,5.2-3.3,9.4-8.5,10
			c-1.7,0.2-3.6-0.7-5.4-1.3c-3.1-1.1-3.8-0.9-5.3,2.1c-0.6,1.3-1.3,2.7-1.5,4c-0.3,2.2-0.4,4.5,2.8,5.8
			C222.5,148.7,232.6,142.2,243,135.5z M232.5,201.7c2.8-1.6,2.6-3.1,1.3-4.8c-2-2.7-3.8-5.5-5.9-8.4c-0.8,0.4-1.5,0.9-2.9,1.6
			C227.6,194.1,230,197.8,232.5,201.7z M264.6,166.3c3.2,4.6,4.8,9.9,8.9,14c0.9-0.7,1.5-1.1,2.4-1.9c-3.2-4.4-6.3-8.6-9.4-12.7
			C266.4,165.5,265.7,165.9,264.6,166.3z"/>
		<path d="M130.3,61.4c2.7,0,4.5,1.8,4.5,4.5c0,2.6-2.6,5.8-4.7,6c-2,0.1-5.5-4-5.5-6.5C124.5,63.7,127.6,61.5,130.3,61.4z"/>
		<path d="M112.5,62.9c0.1,2.4-2,5.1-4,5.2c-1.8,0.1-4.8-3.2-4.8-5.3c0-2.1,2.5-4.6,4.7-4.6C110.8,58.2,112.4,60,112.5,62.9z"/>
		<path class="st0" d="M153.7,113.6c-1.1,0.5-1.7,0.6-2,0.9c-2.9,3.1-37.5,3.1-49.3,0.6c-11-2.4-21.2-7.1-31.8-11.9
			c-0.7,1.5-1.4,2.9-2,4.3C63.4,120.3,57.9,133,53,145.9c-4.1,10.8-7.4,21.8-11,32.8c-0.2,0.6-0.2,1.3-0.3,1.9
			c-0.8,3.1,0.5,5.3,3.2,6.8c2,1.1,4,2.1,5.9,3.3c16.4,10.1,34.5,15,53.4,16.3c10.9,0.7,21.8-0.2,32.7-0.5
			c10.4-0.3,19.3-5.2,28.4-9.8c-0.2-1.9-0.1-3.4-0.4-4.8c-2.4-11.8-4.9-23.6-7.1-35.4c-1.1-5.8-1.9-11.7-2.4-17.6
			c-0.6-7.2-0.7-14.4-1.1-21.7C154.3,116.1,154,115,153.7,113.6z"/>
		<path class="st1" d="M272.4,122.5c-10.5,7-20.7,13.8-30.9,20.5c-7.4,4.8-14.9,9.5-22.4,14.3c-8.1,5.3-16.1,10.6-24,16
			c-2.7,1.9-2.8,2.7-1.3,5.7c0.8,1.7,1.9,3.3,2.8,5c3.6,6.9,7.5,13.5,12.6,19.4c4.3-3.2,9.7-4.5,13.4-8.7c-0.7-1.5-1.6-2.8-1.7-4.1
			c-0.2-1.5-0.3-3.5,0.5-4.4c5-5.8,8.8-5.2,12,1.7c0.1,0.1,0.2,0.2,0.4,0.3c10.5-3.5,18.5-11.4,28.8-16c-1.8-2.4-3.2-4.4-4.8-6.5
			c2.9-3.2,5.7-5.8,10.5-6.6c1.7,2.5,3.5,5.1,5.4,7.9c5.9-3.3,11.6-6.4,17.5-9.6C285.6,145,279.5,133.5,272.4,122.5z"/>
		<path class="st1" d="M295.3,166.1c-5.8,3.1-11,5.9-16.5,8.8c1.3,2.1,2.3,3.6,3.1,5.1c0.9,1.7-4.7,3.5-6.1,4.4
			c-1,0.7-2.2,1.2-3.3,1.8c-2.1-2.4-4-4.6-6.1-7c-9,5.7-17.8,11.4-26.8,17.1c0.4,1.3,1.9,4,2.3,5.3c-3,2.1-4.4,5.3-9.7,6.6
			c-1.3-1.6-3-3.6-4.8-5.8c-4,2.7-8,5.4-11.9,8.1c3.6,6.5,7,12.6,10.5,19c0.9-0.5,1.6-0.8,2.3-1.2c11.9-7.1,23.8-14.2,35.6-21.2
			c11.3-6.7,22.7-13.5,34-20.2c2-1.2,3.9-2.7,5.9-4.1C300.9,177.1,298.2,171.8,295.3,166.1z"/>
	</g>
	<g>
		<path d="M785,207.7c0,8.8,0,17.6,0,26.7c1.3-0.1,2.3-0.1,3.3-0.3c3.8-0.7,7.5-0.5,11.2,0.5c3.4,0.9,5.3,3.4,6.5,6.3
			c1,2.5-0.6,5-3.2,5.9c-6,2-12.2,1.2-18.3,1.2c-4.2,0-6.1-3.1-6-7.4c0.2-6.8,0.1-13.5,0.3-20.3c0-2.5,0.3-5,0.5-7.5
			c0.1-1.7,0-3.4,0-5.3c-10,0.3-19.4,0.6-29.4,0.9c-0.1,1.4-0.3,3-0.3,4.7c0,11.5,0,23,0.1,34.5c0,3.3-0.9,4.6-3.7,5.2
			c-4.6,0.9-9.3,1.8-13.9,2.6c-1.5,0.2-3.2,0.3-4.7,0c-2.9-0.7-5.5-1.9-5.4-4.9c0.1-2.5-0.4-7.5,2.4-7.9c2.9-0.5,12-1.9,18.5-2.9
			c0-10.4,0-21,0-32.1c-2.1-0.4-4.7-0.6-7-1.4c-8.2-3-16.2-6.2-24.3-9.3c-1.2-0.5-2.3-1.1-3.3-1.9c-2.5-1.9-3.7-4.2-2.8-7.4
			c0.8-3,1.6-6.1,2.3-9.2c1.8-7.8,3.5-15.7,5.4-23.5c0.5-2,1.1-4,1.6-5.9c4.6-16.1,9.2-32.1,13.8-48.2c0.1-0.4,0.1-0.9,0.1-1.5
			c-5.4,3.4-10.5,6.8-15.7,10c-10.2,6.3-20.5,12.4-30.7,18.7c-2.2,1.4-4.9,2.5-5.3,6.1c-0.1,1.1-2.9,1.9-4.7,3
			c1,5.1-0.2,9.9-3.6,14.8c0.8,0.5,1.5,0.8,2.1,1.3c6.1,4.1,12.3,8.3,18.4,12.4c0.8,0.5,1.7,0.8,2.5,1.2c2.4,1.2,3.1,3.1,2.6,5.7
			c-0.8,3.8-3,6.9-4.8,10.2c-7.3,13.1-14.7,26.1-22.1,39.1c-1.6,2.9-3.6,5.6-5.7,8.1c-1.8,2.3-4.1,2.7-7.2,1.6
			c-8.6-3-16-8.2-23.5-13c-9.7-6.2-19.3-12.5-29-18.8c-2.6-1.7-5.3-3.4-7.9-5.3c-4.3-3.2-4.6-5.5-1.9-10
			c10.5-17.9,21.1-35.9,31.6-53.9c1.2-2,2.2-4.2,3.4-6.6c1,0.2,12,7.5,16.1,11.4c1.3-1.1,2.4-2.2,3.7-3.1c4.2-2.8,8.4-5.6,14-3.9
			c2.5,0.8,3.6-1.4,6.7-2.5c3.1-1.1,3.2,1.4,5.1,2.3c18.4-13.9,39.9-23.2,57.7-37.8c-4.1-5.1-7.8-9.9-11.8-14.5
			c-7.3-8.5-8.6-18.5-7.3-28.9c1.5-11.3,6.6-21,15.5-28.4c4.1-3.4,7.9-7.5,12.5-10c13.6-7.4,27.9-10.4,43.3-6
			c8.3,2.4,16.1,5.3,22.9,10.8c7.8,6.3,14.6,19.6,16.9,28.8c2.3,9.1,3,14.7,2,22.4c-0.7,5.2-0.7,10.4-3.4,15.1
			c-2.7,4.7-5.8,9.3-9.2,14.9c2.3,15.5,4.8,32.1,7.2,48.6c5.6,0.6,5.9,0.9,7.3,5.8c1.3,4.4,2.5,8.7,3.8,13.1
			c0.3,0.9,0.4,1.9,0.4,2.8c-0.1,2.9-0.9,3.5-3.9,2.9c-0.7-0.2-1.5-0.4-2.5-0.6c0.8,5.1,1.3,10.1,2.4,14.9c1.3,5.3-0.5,9.3-4.4,12.4
			c-6.1,4.8-13,8.4-20.6,10.2c-4.4,1.1-9,1.9-13.4,2.8C787.5,206.9,786.4,207.3,785,207.7z M733.6,101.4c-1.8,6.3-3.5,12.1-5.1,17.8
			c-2,7.3-3.7,14.7-5.6,22c-1.7,6.5-3.6,13-5.3,19.6c-2.2,8.2-4.3,16.5-6.3,24.7c-1,4.1-0.5,4.9,3.5,6.3c12,6.1,29.9,9.2,38.9,9.7
			c54.5,2,65.9-14.3,69.1-16.7c-5.8-27-11.6-54-17.4-81.1c-4.1,1-7.6,1.6-11.1,2.7c-9.6,3.1-19.3,3.9-29.4,2.6
			c-8.5-1.1-16.9-2.1-24.7-5.8C738.3,102.3,736.2,102.1,733.6,101.4z M715.7,55.4c0.4,2.5,0.4,5.1,1.2,7.4
			c2.5,7.5,7.8,13.3,13.3,18.6c5,4.9,11.2,7.9,18.2,9.5c11.2,2.5,22.4,4.7,34.1,3.5c10.6-1.1,19.6-5.2,28.1-11.3
			c6.4-4.6,9.2-10.3,9.8-18.3c0.7-9.1,0.3-17.7-2.4-26.5c-2-6.3-4.8-11.8-9-16.4c-9.8-10.6-22.6-15.2-36.6-16.4
			C765.4,5,758.7,6.3,752,8.5c-6.3,2-12,4.7-16.8,9.2c-2,1.9-4.3,3.6-6.3,5.5c-1.7,1.6-3.7,3.1-4.9,5
			C718.7,36.5,714.7,45.2,715.7,55.4z M656,189.9c3.9,2.2,7.4,4.3,11,6.1c2.7,1.4,3.3,1.1,4.9-1.6c2.7-4.6,5.3-9.3,8.1-13.9
			c2.2-3.6,4.7-7,7.4-11c-19.3-13-38.3-25.8-57.6-38.7c-5.8,9.8-11.7,19.8-17.8,30.2c2.7,2,5.1,3.8,7.7,5.7c2.2-3.1,3.6-6.6,7.9-5.1
			c3,1,6.6,1.5,7.5,5.3c-1.3,2.2-2.4,4.2-3.7,6.5c5.3,3.2,10.1,6.2,14.9,9.1c2.3-3.1,4.5-9,6.7-9c2.1,0,7.3,3.7,8,8.2
			C659.3,184.4,657.8,186.9,656,189.9z M624.8,182.5c-9.1-1.6-10.5-4-7.6-12.5c-2.3-1.7-4.7-3.4-7.6-5.6c-4.5,8.1-8.9,16-13.5,24.2
			c19.5,12.8,38.5,25.2,59.5,34.9c4-7.2,7.8-14.3,11.7-21.5c-4.5-2.7-8.8-5.3-13.2-8c-1.5,2.2-3.1,7.2-4.6,6.8
			c-1.4-0.4-9.1-6.9-8.4-8.2c0.6-1.4,1.8-3.9,2.7-5.8c-5.1-3.4-9.9-6.6-14.9-10C627.5,178.8,626.2,180.6,624.8,182.5z M666.9,143
			c-3,0.1-5.1-1.1-6.7-3.1c-1.6-2-3.2-4.1-4.9-6.3c-1.9,1.4-4.7,1.8-6.1,4.5c5.1,3.5,10,6.8,15.1,10.2
			C665.3,146.4,666,144.9,666.9,143z M627.4,166.4c-3.1,2.5-5.9,7.6-5.8,10.4C625.4,174.1,627.7,170.1,627.4,166.4z M654.3,182.1
			c-3.7,3.8-5.8,7.7-6.1,11C650.5,189,652.4,185.5,654.3,182.1z"/>
		<path d="M751.9,69.9c0-2.7,2.6-5.6,5.3-5.8c1.9-0.1,4.5,2.4,4.7,4.6c0.1,2.1-3.6,5.6-6.1,5.6C753.5,74.4,751.9,72.5,751.9,69.9z"
			/>
		<path d="M777.4,74.7c-2.5,0-4.5-1.9-4.6-4.4c-0.1-2.4,2.1-4.5,4.5-4.5c2.4,0.1,4.8,2.4,5,4.8C782.5,72.8,780.2,74.7,777.4,74.7z"
			/>
		<path class="st0" d="M733.6,101.4c-1.8,6.3-3.5,12.1-5.1,17.8c-2,7.3-3.7,14.7-5.6,22c-1.7,6.5-3.6,13-5.3,19.6
			c-2.2,8.2-4.3,16.5-6.3,24.7c-1,4.1-0.5,4.9,3.5,6.3c12,6.1,29.9,9.2,38.9,9.7c54.5,2,65.9-14.3,69.1-16.7
			c-5.8-27-11.6-54-17.4-81.1c-4.1,1-7.6,1.6-11.1,2.7c-9.6,3.1-19.3,3.9-29.4,2.6c-8.5-1.1-16.9-2.1-24.7-5.8
			C738.3,102.3,736.2,102.1,733.6,101.4z"/>
		<path class="st1" d="M656,189.9c3.9,2.2,7.4,4.3,11,6.1c2.7,1.4,3.3,1.1,4.9-1.6c2.7-4.6,5.3-9.3,8.1-13.9c2.2-3.6,4.7-7,7.4-11
			c-19.3-13-38.3-25.8-57.6-38.7c-5.8,9.8-11.7,19.8-17.8,30.2c2.7,2,5.1,3.8,7.7,5.7c2.2-3.1,3.6-6.6,7.9-5.1c3,1,6.6,1.5,7.5,5.3
			c-1.3,2.2-2.4,4.2-3.7,6.5c5.3,3.2,10.1,6.2,14.9,9.1c2.3-3.1,4.5-9,6.7-9c2.1,0,7.3,3.7,8,8.2C659.3,184.4,657.8,186.9,656,189.9
			z"/>
		<path class="st1" d="M624.8,182.5c-9.1-1.6-10.5-4-7.6-12.5c-2.3-1.7-4.7-3.4-7.6-5.6c-4.5,8.1-8.9,16-13.5,24.2
			c19.5,12.8,38.5,25.2,59.5,34.9c4-7.2,7.8-14.3,11.7-21.5c-4.5-2.7-8.8-5.3-13.2-8c-1.5,2.2-3.1,7.2-4.6,6.8
			c-1.4-0.4-9.1-6.9-8.4-8.2c0.6-1.4,1.8-3.9,2.7-5.8c-5.1-3.4-9.9-6.6-14.9-10C627.5,178.8,626.2,180.6,624.8,182.5z"/>
	</g>
	<g>
		<path d="M485.8,94.4c2.5,6.2,5,12.1,7.2,18.1c1,2.8,8.4,4,11.4,3.7c2.5-0.3,4.6,3.2,4.6,6.2c0.1,8.3,0,16.6,0.1,24.9
			c0.1,14.1,0.3,28.1,0.4,42.2c0,7.1-0.2,14.2-0.3,21.2c0,0.8-0.1,1.7-0.4,2.4c-0.9,2.4-8.5,0.8-10.2,0.8c-9.4,0-18.9,0.1-28.3,0.3
			c-3.8,0.1-7.5,0.4-11.7,0.7c0,8.2,0,16.1,0,24.6c6.1-0.3,12.2-0.6,18.4-0.9c4.2,4.1,2.1,8.4,0.8,12.6c-0.2,0.7-1.5,1.5-2.3,1.5
			c-6.3,0.4-12.5,0.8-18.8,0.9c-3.7,0.1-4.4-0.6-4.5-4.3c-0.1-3.1,0.1-6.3,0.3-9.4c0.4-6.8,0.9-13.5,1.3-20.3
			c0.1-1.5-0.2-2.9-0.4-4.6c-7.2,0-14.3,0-21.6,0c-1,5.7-0.4,11.2,0.2,16.5c0.6,5.5,1.9,11,3,16.5c0.5,2.3-0.2,3.3-2.5,3.8
			c-5.7,1.2-11.2,2.7-16.9,3.7c-5.9,1-9.8-2.1-10.4-8.1c-0.4-3.7,0.5-4.8,4.2-5.1c3.1-0.3,6.3-0.6,9.4-0.9c2.9-0.3,5.9-0.6,9.2-0.9
			c-0.6-8.3-1.2-16.5-1.9-25.3c-3.6,0-7.2-0.1-10.8,0c-6,0.2-11.9,0.4-17.9,0.7c-2.5,0.1-4.9,0.6-7.4,0.9c-6,0.8-9.5-1.3-10.6-8.2
			c-1-5.6-0.8-11.5-0.9-17.3c-0.1-10.3,0-20.6,0-30.8c0-6.6-0.2-13.3,0-19.9c0.1-5.9,0.7-11.9,1-17.8c0.1-2.5,0.9-3.9,3.9-3.8
			c3.7,0.2,7.5-0.2,11.2-0.3c1.9,0,3.1-0.7,3.7-2.7c1.8-6.3,3.8-12.6,5.6-18.7c-4-3.6-8-6.8-11.7-10.3c-6.3-5.8-10.2-13.1-12.2-21.3
			c-3.3-13.7-1.4-26.9,4.7-39.6c3.6-7.6,9.6-13,16.2-17.8c22-12.2,54.7-6.7,63-3.1c18.3,7.9,29.4,22,35,40.7
			c2.6,8.5,2.8,17.2,1.4,26c-1.1,6.5-4.7,11.6-8.5,16.5C489.9,90.5,487.8,92.3,485.8,94.4z M442.3,101.3c4.2-0.4,8-0.6,11.8-1.2
			c9-1.5,17.8-3.7,25.5-9.2c11.5-8.2,18-18.9,16.8-33.4c-1.1-13.3-6.4-24.9-15.9-34.4c-4.6-4.5-8.9-9.4-15.3-11.6
			c-21.4-8.8-46.2-6.1-60.8,0.1c-11.6,7.3-18.7,18-20.7,31.8c-0.4,2.4-0.2,5-0.5,7.4c-1.2,10.4,1.6,20,8,27.9
			C404.3,95,422.7,100.2,442.3,101.3z M383.4,125.7c0,14.1,0,28,0,42.4c8.1-1.1,15.4,1.5,22.8,0c0.2-0.7,0.5-1.2,0.5-1.6
			c0.8-4.4,1-4.5,5.3-4.9c2.4-0.2,3.9-0.6,7.8,1.4c3.9,2,1.9,2.1,3.2,4.5c13.3,0,26.8,0,40.6,0c0-1.5,0-3.1,0-4.7
			c0-2,0.8-3.1,2.9-3.2c10.3-0.2,9.8-0.6,11.4,7.9c0,0.2,0.1,0.3,0.3,0.6c8.2,0,16.5,0,25.2,0c-0.3-15.7,1.7-31,0.3-46.9
			c-3.1,1.3-15.4,0.9-17.6,0.9c-9.1,0.2-18.2,0.7-27.3,0.9c-16.3,0.3-32.5,0.2-48.8,0.6c-3.8,0.1-14.1,0.7-15.4,0.7
			C391.3,124.6,387.7,125.2,383.4,125.7z M503.7,174.8c-7.3-1.1-22.1-0.8-25.5,0.3c-0.1,0.3-0.2,0.6-0.2,1c0.3,7.8,1.6,8.7-8.5,8.7
			c-3.8,0-5.3-1.4-5.9-5.2c-0.2-1.6-0.3-3.2-0.4-5.3c-13.6-0.3-26.9-0.5-40.1-0.7c-0.8,2.8-0.7,6.3-2.4,7.7
			c-1.8,1.5-5.3,1.3-8.1,1.4c-5.3,0.2-5-4.7-6.3-7.8c-7.6-0.3-15-0.7-23.3-1.1c0.9,12.6,0,24.6,1.8,37c5.3-0.4,10.4-0.9,15.5-1.1
			c11.4-0.4,22.8-0.9,34.2-1c18.2-0.2,36.4-0.2,54.7-0.4c3.8,0,7.6-0.3,11.4-0.7c3.6-0.3,3.9-0.6,3.9-4.3
			C504.2,194,503.9,184.6,503.7,174.8z M422.6,118.1c16.3,0.1,32,0.5,48-1.9c-0.9-4.6-1.7-8.5-2.5-12.5c-7.2,1.2-14,2.9-20.8,3.3
			c-7,0.4-14-0.6-21.3-1C424.9,109.8,423.8,113.7,422.6,118.1z M411.9,118.2c2.8-0.2,4.3-0.3,5.5-0.4c0.9-5,1.7-9.5,2.6-14.2
			c-1.3-0.4-2.4-0.7-4.1-1.2C414.5,107.6,413.3,112.5,411.9,118.2z M472.8,165.7c-2.5-0.6-4.4-0.8-4.4,2c-0.1,3.1,0,6.2,0,9.3
			c0,0.4,0.3,0.9,0.6,1.5c1.4,0,2.8,0,4.4,0C473.2,174.1,473,170,472.8,165.7z M476.4,100.7c-0.4-0.2-0.9-0.3-1.3-0.5
			c-0.7,1-2,2.2-1.9,3.1c0.6,3.9,1.7,7.7,2.7,11.5c0.6,2.2,2,2.3,3.8,1.4C478.5,110.9,477.4,105.8,476.4,100.7z M417.9,167.1
			c-2.7,0.3-4.6,0.5-6.5,0.7c0.2,3.2,0.3,5.8,0.5,8.7c1.8,0,3.3,0,5.2,0C417.3,173.3,417.6,170.5,417.9,167.1z M488.7,115.7
			c-2.4-6.1-4.7-12-7-17.8c0.3,5.4,1.3,10.6,2.6,15.7C484.8,115.5,485.8,117.4,488.7,115.7z M404.5,118.7c0.5-0.2,1.2-0.2,1.3-0.5
			c1.6-5.9,3.2-11.9,5-18.7C407.2,103.7,404,113.9,404.5,118.7z"/>
		<path class="st0" d="M383.4,125.7c0,14.1,0,28,0,42.4c8.1-1.1,15.4,1.5,22.8,0c0.2-0.7,0.5-1.2,0.5-1.6c0.8-4.4,1-4.5,5.3-4.9
			c2.4-0.2,3.9-0.6,7.8,1.4c3.9,2,1.9,2.1,3.2,4.5c13.3,0,26.8,0,40.6,0c0-1.5,0-3.1,0-4.7c0-2,0.8-3.1,2.9-3.2
			c10.3-0.2,9.8-0.6,11.4,7.9c0,0.2,0.1,0.3,0.3,0.6c8.2,0,16.5,0,25.2,0c-0.3-15.7,1.7-31,0.3-46.9c-3.1,1.3-15.4,0.9-17.6,0.9
			c-9.1,0.2-18.2,0.7-27.3,0.9c-16.3,0.3-32.5,0.2-48.8,0.6c-3.8,0.1-14.1,0.7-15.4,0.7C391.3,124.6,387.7,125.2,383.4,125.7z"/>
		<path class="st0" d="M503.7,174.8c-7.3-1.1-22.1-0.8-25.5,0.3c-0.1,0.3-0.2,0.6-0.2,1c0.3,7.8,1.6,8.7-8.5,8.7
			c-3.8,0-5.3-1.4-5.9-5.2c-0.2-1.6-0.3-3.2-0.4-5.3c-13.6-0.3-26.9-0.5-40.1-0.7c-0.8,2.8-0.7,6.3-2.4,7.7
			c-1.8,1.5-5.3,1.3-8.1,1.4c-5.3,0.2-5-4.7-6.3-7.8c-7.6-0.3-15-0.7-23.3-1.1c0.9,12.6,0,24.6,1.8,37c5.3-0.4,10.4-0.9,15.5-1.1
			c11.4-0.4,22.8-0.9,34.2-1c18.2-0.2,36.4-0.2,54.7-0.4c3.8,0,7.6-0.3,11.4-0.7c3.6-0.3,3.9-0.6,3.9-4.3
			C504.2,194,503.9,184.6,503.7,174.8z"/>
		<path class="st1" d="M422.6,118.1c16.3,0.1,32,0.5,48-1.9c-0.9-4.6-1.7-8.5-2.5-12.5c-7.2,1.2-14,2.9-20.8,3.3
			c-7,0.4-14-0.6-21.3-1C424.9,109.8,423.8,113.7,422.6,118.1z"/>
		<path class="st0" d="M411.9,118.2c2.8-0.2,4.3-0.3,5.5-0.4c0.9-5,1.7-9.5,2.6-14.2c-1.3-0.4-2.4-0.7-4.1-1.2
			C414.5,107.6,413.3,112.5,411.9,118.2z"/>
		<path class="st0" d="M476.4,100.7c-0.4-0.2-0.9-0.3-1.3-0.5c-0.7,1-2,2.2-1.9,3.1c0.6,3.9,1.7,7.7,2.7,11.5c0.6,2.2,2,2.3,3.8,1.4
			C478.5,110.9,477.4,105.8,476.4,100.7z"/>
		<path class="st1" d="M488.7,115.7c-2.4-6.1-4.7-12-7-17.8c0.3,5.4,1.3,10.6,2.6,15.7C484.8,115.5,485.8,117.4,488.7,115.7z"/>
		<path class="st1" d="M404.5,118.7c0.5-0.2,1.2-0.2,1.3-0.5c1.6-5.9,3.2-11.9,5-18.7C407.2,103.7,404,113.9,404.5,118.7z"/>
	</g>
</g>
</svg>
