<?xml version="1.0" encoding="utf-8"?>
<!-- Generator: Adobe Illustrator 19.1.0, SVG Export Plug-In . SVG Version: 6.00 Build 0)  -->
<svg version="1.1" id="Calque_1" xmlns="http://www.w3.org/2000/svg" xmlns:xlink="http://www.w3.org/1999/xlink" x="0px" y="0px"
	 viewBox="0 0 794.5 396.3" style="enable-background:new 0 0 794.5 396.3;" xml:space="preserve">
<style type="text/css">
	.st0{fill:#E01220;}
	.st1{fill:#1F7CAD;}
	.st2{fill:#C0BFBF;}
	.st3{fill:#1F7CAD;stroke:#000000;stroke-width:2;stroke-miterlimit:10;}
	.st4{fill:#6DA3C3;}
	.st5{fill:none;stroke:#E01220;stroke-width:3;stroke-miterlimit:10;}
	.st6{fill:#F5FBF9;}
	.st7{fill:#1D1D1B;}
</style>
<g>
	<g>
		<path class="st1" d="M161,216.8c11.7-0.9,23.3-1.5,35-2.1c12.9-0.6,25.9-1.1,38.9-1.7c6.4-0.3,12.8-0.8,19.2-1.1
			c7.9-0.4,15.8-0.8,23.8-1c7.3-0.2,14.6-0.1,21.9,0c7,0.1,14.1,0.3,21.1,0.3c0.8,0,1.6-0.4,2.5-0.6c-0.3-1.2-0.6-2.2-0.9-3.1
			c-7.2-21.4-13.3-43.1-19-64.9c-2.5-9.5-4.5-19.1-6.7-28.7c-0.4-1.5-1-3-1.4-4c-11.4,0.6-22.1,1.1-33.4,1.7c1.1,1.6,2.1,3,3,4.4
			c1.7,2.7,3.6,5.2,4.8,8.1c1.4,3.5,1,7.3,0.5,11.1c-0.5,3.9-0.7,7.8-1,11.6c-0.1,1.4-0.7,25-1,35.4c-0.1,2.6-0.2,5-1.1,7.6
			c-0.9,2.4-2.2,2.8-4,3c-2.6,0.3-5.3,0.4-7.9,0.6c-8.3,0.6-16.6,0.8-24.8,1.9c-11.6,1.6-23.3,1.3-35,1.4c-7.9,0-15.8-0.3-23.7-0.3
			c-4.9,0-9.8,0.4-14.7,0.6c-6.1,0.3-12.2,1.2-18.3-0.3c-1.5-1.4-1.5-3.9-1.5-6c0.1-5.8-0.2-11.5-0.3-17.3
			c-0.1-4.5-0.3-9.1-0.3-13.6c0.1-6,0.4-12.1,0.6-18.1c0-0.4-0.3-0.9-0.3-1c-8.9,0.5-17.6,1-26.7,1.5c-5.2,25-13.9,49.2-16.8,75
			C94.2,216.9,143,218.3,161,216.8z"/>
		<path class="st2" d="M257.5,111.6c-0.5,0.3-0.7,0.4-0.9,0.6c-2.6,2.7-5.6,5.1-5.5,9.4c0,0.7-0.9,1.6-1.6,2c-2.3,1.1-4.7,2.4-7.5,1
			c-1.4-0.7-3.1-0.9-4.7-1.1c-1.7-0.2-2.7-1.1-3.3-2.7c-1.2-3.2-2.6-6.3-3.7-9.5c-2.2-5.9-4.2-11.9-6.4-17.7c-0.5-1.3-0.3-2.2,0.7-3
			c2.4-1.9,1.8-4.3,1.5-6.9c-4.8,0-9.3-0.1-13.8,0c-0.9,0-1.9,0.6-2.8,1c-3.2,1.7-6.3,3.7-9.6,5.3c-7.4,3.8-14.9,7.3-22.2,11.3
			c-6.1,3.3-18.1,10.9-18.4,11c-6.3,3.8-18.1,10.4-18.8,11.4s0,7.2,0,11c3.6-0.9,7-1.7,10.6-2.5c-0.9-2.3-0.4-3.5,1.6-4.5
			c2.7-1.3,2.7-1.4,1.6-4.2c-0.9-2.4-0.1-4.8,1.9-6.3c2.8-2,5.2-1.2,5.7,2.3c0.3,1.8,0,3.7,0,5.7c1.3-0.7,2.6-1.4,3.9-2.1
			c1.5-0.7,2.8-0.3,3.5,1.2c0.9,2.2,1.7,4.5,2.3,6.8c0.2,0.7-0.2,2.1-0.6,2.3c-3.5,1-5.3,3.9-7.5,6.4c-0.2,0.2-0.4,0.3-0.6,0.4
			c-1.7,0.9-3.3,1.9-5.3,2.9c-2.1-0.6-0.3-2.8-0.9-3.5c-1.9-1.1-3.3-2-4.8-2.8c-3.7,1-7.6,2.1-11.4,3.1c0,2.3,0,4.2,0,6.1
			c-0.2,9.4-1.3,31-0.1,31.3c1.2,0.3,19.4-12.4,28.4-17.9c6.9-4.2,13.9-8.2,21-12c6.2-3.3,12.8-6,19.1-9.1c5-2.5,9.9-5,14.6-7.9
			c3.7-2.3,7.5-2.7,11.8-2.8c9.1-0.1,18.1-0.9,27.1-1.4c0.5,0,1.2-0.2,1.5,0.1c0.7,0.6,1.6,1.2,1.8,2c0.1,0.4-0.8,1.5-1.5,1.8
			c-1,0.5-2.2,0.7-3.3,0.7c-3.7,0.1-7.4,0.1-11.1,0.1c-6.3,0.1-12.5,0.4-18.8,0.6c-0.5,0-1,0.1-1.5,0.3c-3.5,1.7-7,3.3-10.5,5.1
			c-9,4.5-18,8.9-27,13.6c-6,3.1-12,6.3-17.9,9.8c-5.1,3-9.9,6.4-14.9,9.6c-4.7,3-9.3,6-13.9,9c-0.8,0.5-4.8,2.2-4.9,3
			c-0.4,4.2-0.3,12.1,0.6,12.3c0.9,0.1,3,0,3.5,0c4.3-0.2,8.5-0.4,12.8-0.6c7.3-0.3,14.6-0.8,21.9-0.8c9.5,0.1,18.9,0.9,28.4,0.2
			c9.5-0.7,19.1-1.1,28.6-1.8c8.2-0.6,16.3-1.4,24.4-2.1c2.5-0.2,3.4-1.3,3.3-3.9c-0.1-2.5-0.3-5-0.2-7.6c0.4-8.2,1.1-16.3,1.4-24.5
			c0.3-7.4,0.5-14.8,1.6-22.2c0.2-1.3,0-2.9-0.6-4C263.7,121.6,260.6,116.6,257.5,111.6z"/>
		<path class="st0" d="M66.3,222.2c1.9-2,3.3-3.8,5-5.2c5.9-5,11.7-10,17.8-14.6c1.9-1.4,3.3-2.6,3.3-5c0-0.7,0.2-1.5,0.4-2.2
			c3.3-13.2,6.7-26.4,9.9-39.6c1.1-4.2,2-8.5,3-12.7c-5.1-0.6-9.8-1.4-14.6-1.7c-6.3-0.4-12.2-2.1-17.9-4.5
			c-9.8-4-17.7-10.6-23.3-19.7c-1.9-3-3.9-5.5-7.8-5.2c-1.5,8.5-3,16.9-4.5,25.3c-1.4,7.7-2.5,15.4-4.2,23
			c-3.7,16.3-7.5,32.6-8.9,49.4c-0.8,10.2,2.2,18.4,9.3,25.2c3.2,3.1,6.7,6.2,11.1,7.6c5.6,1.8,11.3,3.5,17,5.1
			c7.7,2.1,15.4,3.7,23.3,4.4c4.3,0.4,8.6,0.3,12.8,0.9c6.3,0.8,12.6,1,18.8-0.2c5.1-1,10.3-1.7,15-3.5c6.1-2.4,9.6-8.1,14-12.8
			c-3.3-0.1-6.4,0.4-9.5,0.4c-8.9,0.1-17.9,0.3-26.8-0.1c-6-0.2-12-1-17.3-4.5c-1.9-1.3-3.2-2.7-3.9-4.8c-1.1-3.1-0.2-6,0.2-8.9
			c0.5-3.5,1.1-7,1.6-10.5c-0.2-0.1-0.5-0.2-0.7-0.3c-6.8,5.7-13.6,11.5-20.5,17.3C68.2,223.9,67.5,223.3,66.3,222.2z"/>
		<path class="st1" d="M95.1,223.4c-0.7,4.6-0.6,4.9,3.5,6.1c1.7,0.5,3.4,0.9,5.2,1.1c4,0.4,8,0.7,12,0.8c7.9,0.3,15.9,0.8,23.8,0.5
			c8.8-0.3,17.5-1.5,26.3-2.1c10.2-0.7,20.3-1.1,30.5-1.5c14.4-0.6,28.9-1.1,43.3-1.5c10.7-0.3,21.4-0.5,32-0.7
			c15.5-0.3,31-0.6,46.4-0.9c2.9-0.1,6.2-2.9,6.8-5.6c0.5-2.2-0.5-3.9-2.6-4c-6.5-0.3-13.1-0.5-19.6-0.6c-3.8-0.1-7.7,0.1-11.6,0.1
			c-4.6,0-9.3-0.4-13.9-0.2c-9.8,0.5-19.6,1.3-29.4,1.9c-7.3,0.4-14.6,0.6-21.9,0.8c-12.3,0.5-24.6,0.9-37,1.5
			c-6.7,0.3-13.4,0.3-20,1.1c-16.5,2-33.1,2.4-49.7,2.5C111.4,222.8,103.3,222.4,95.1,223.4z"/>
		<path class="st1" d="M119.8,259.8c0.7-2.8-1.7-2.2-3.6-2.1c-3,0.2-6,0.5-9,0.4c-4.5-0.1-9-0.5-13.5-0.9
			c-5.9-0.6-11.7-1.2-17.6-2.1c-11.2-1.7-21.9-5.6-32.7-9c-1.3-0.4-8.7-4.4-11.5-4.7c-7.8-0.9-14.6,1.3-19.7,7.3
			c-4.1,4.9-3.5,8.2,0.2,11.1c0.9,0.7,2,1.1,3,1.4c3.3,0.9,6.5,2,9.9,2.5c5.8,1,11.7,1.7,17.6,2.4c5,0.6,10,1,15,1.3
			c5.4,0.3,10.7,0.4,16.1,0.3c10.6-0.2,21.1-0.6,31.7-1.1C111,266.4,118.5,264.9,119.8,259.8z"/>
		<path class="st2" d="M245.3,378.9c0-2.1-2-3.6-5.1-4s-10.2-0.6-14.8-1.8c-1.4-0.4-4.5-1.4-5.6-2.3c-2.3-1.9-3.1-2.3-4.5-4.8
			c-1.1-2-0.8-4.9-0.9-7.4c-0.4-8.3-0.6-16.6-1.1-24.9c-0.4-7.5-1.3-15.1-1.4-22.6c-0.2-19.5,0-39.1-0.1-58.6c0-3.2-0.5-6.4-0.8-9.6
			c-4.6-0.3-5,0-5.1,4c0,0.3,0,0.5,0,0.8c0.2,10.7,0.4,21.4,0.6,32.1c0.1,8.2,0.3,16.3,0.4,24.5c0.1,5,0,10,0,15
			c0,3.5-0.1,7.1,0.1,10.6c0.3,6.7,0.9,13.3,1.3,19.9c0.3,4.5,0.6,15.4-1.3,18.3c-2,2.9-20.1,8.1-23.8,9.3s-4.3,2.6-2,4.8
			S245.3,381,245.3,378.9z"/>
		<path class="st0" d="M102.7,105.2c-12.3,6.1-22.7,10.7-49.6,9.8c5,8.1,11.8,13.9,20.5,17.3c8.9,3.5,18.4,4.9,28,5.2
			c5.9,0.2,5.9,0.1,7.5-5.6c0.4-1.5,0.5-2.8-0.4-4.3c-1-1.6-1.5-3.4-1.9-5.3C105.3,116.7,104,110.9,102.7,105.2z"/>
		<path class="st1" d="M14.5,391c6.2-18.5,12.6-36.9,18.6-55.3c6-18.4,13.4-36.3,21.1-54.4c-1.2-0.1-2-0.1-2.7-0.2
			c-3.1-0.4-3.2-0.3-4.2,2.7c-0.4,1.2-0.7,2.4-1.2,3.6c-4,9.3-7.9,18.5-12,27.7c-5.7,13-11.2,26.1-15.8,39.6
			C14.6,366,10.6,377,6.7,388c-0.3,0.9-0.5,1.9-0.9,3C8.8,391,11.4,391,14.5,391z"/>
		<path class="st1" d="M8.5,261.1c-0.1,1.5-0.2,2.4-0.3,3.3c-0.6,3.7-0.3,4.7,3.1,5.7c5.2,1.6,12,4.1,25.7,5.9
			c13.7,1.8,59.6,2.8,68.8,1.6c9.2-1.2,16.1-3.9,17.2-5.3c2.8-3.4,4-6.1,2.4-13.2c0-0.5-1.1-1.4-1.8,0c0,3.6-1.9,5.6-3.9,7.6
			c-2.5,2.4-5.6,3.5-8.8,4c-4.6,0.7-9.2,1.2-13.9,1.4c-6.3,0.3-12.6,0.2-18.9,0.3c-3.5,0.1-7,0.6-10.5,0.4
			c-9.2-0.6-18.3-1.2-27.4-2.2c-8.1-0.9-16.2-1.9-24.1-4.4C13.2,265.3,10.6,264.2,8.5,261.1z"/>
		<path class="st1" d="M72.6,282.4c12.3,37.2,24.5,72.2,36.8,109.1c1.6-0.1,3.2-0.2,4.9-0.3c-0.8-1.1-8.8-20.7-11.9-30.5
			c-3.7-11.6-7.2-23.3-10.8-35c-2.9-9.3-5.7-18.5-8.7-27.7c-1.7-5.2-3.8-10.3-5.6-15.3C75.5,282.6,74.3,282.5,72.6,282.4z"/>
		<path class="st1" d="M92.4,356.6c-1.4,0.2-2.2,0.5-3.1,0.5c-6.1,0.5-12.3,1.3-18.4,1.2c-7.1-0.1-14.3-1.3-21.4-1.7
			c-5.9-0.3-11.4-1.7-16.6-4.5c-0.7,2.3-1.5,4.5-2.2,6.8c1.1,0.5,1.7,0.8,2.4,1c5.7,1.9,11.6,3.1,17.7,3.4
			c12.3,0.7,24.6,0.9,36.9,0.5c2.1-0.1,4.2-0.2,6.8-0.3C93.7,361.1,93.1,359,92.4,356.6z"/>
		<path class="st1" d="M41.1,327.1c14.5-1.3,28.6-1.4,42.6,3.7c-0.3-1.5-0.5-2.5-0.6-2.8c-13.3-5.2-26.7-6.2-40.4-5.6
			C42.2,323.9,41.7,325.4,41.1,327.1z"/>
		<path d="M327.8,209c-3-8.7-6.2-17.3-8.7-26.1c-4.7-16.4-9.2-33-13.6-49.5c-2.1-7.9-3.7-15.9-5.6-23.9c-0.2-1-0.6-2-1.2-2.7
			c-0.6-0.7-1.6-1.4-2.4-1.4c-4.9,0-9.8,0.1-14.7,0.3c-5.8,0.3-11.7,0.6-17.5,1c0.2-0.2,0.3-0.5,0.5-0.6c2.7-1.5,5.5-3,8.3-4.6
			c13.1-7.4,26.9-8.5,41.3-4.5c1.4,0.4,2.5,0.5,3.5-1.1c-0.5-0.8-1-1.8-1.6-2.7c-0.6-1.1-1.5-2-1.8-3.2c-2.2-7.1-4.3-14.2-6.4-21.3
			c-0.9-3.1-1.7-6.3-2.6-9.4c-0.8-2.8-2.1-3.5-5.4-3.3c-1.5,0.1-3-0.1-4.5-0.2c-5.4-0.3-10.8-0.7-16.2-0.7c-4.6,0-9.2,0.4-13.7,0.6
			c-0.9-1.3-1.5-2.3-2.2-3.2c-1.7-2.6-3.3-5.3-5.2-7.9c-3.6-5-6.8-5.5-11.5-1.4c-2.5,2.2-4.9,4.8-6.8,7.6
			c-5.2,7.6-10.3,15.3-11.8,24.7c-0.2,1.4-0.7,2.8-1.2,4.4c-1.9,0-3.5,0-5.2,0c-3.6,0.1-7.3,0.1-10.9,0.4c-3.9,0.4-6.4,3.6-9.8,5
			c-0.5,0.2-0.9,0.5-1.3,0.7c-6.7,3.5-13.4,7-20.2,10.4c-1.3,0.7-2.9,1.3-4.3,1.2c-2.6-0.2-4.9,0.3-7.4,0.8c-3.6,0.8-7.5,1-11.2,0.8
			c-4.9-0.2-9.7-1-14.6-1.6c-2.4-0.3-4.7-0.7-7.1-1.1c-4.3-0.8-8.7-1.5-13-2.4c-3.7-0.7-7.3-1.5-11.6-2.4c1.5-1.2,2.5-2,3.4-2.8
			c3.6-3,7.3-5.8,10.6-9c8.7-8.2,11.9-18.6,10.3-30.3c-2.1-15.4-8.4-28.8-20.1-39.5C104.3,0.8,93.1-0.1,79.1,0
			c-14,0.1-27,5.8-33.5,9.4c-7.8,4.3-14.3,10.2-20.7,16.3c-7.3,6.9-10.7,15.7-11.8,25.2c-1.5,13.9,2.1,26.7,11,37.8
			c2.8,3.5,5.9,6.5,9.9,8.6c2.1,1.1,4.1,2.4,6.2,3.6c-0.3,1.3-0.7,2.3-0.9,3.4c-2,10.8-4.1,21.5-6,32.3c-0.9,4.7-1.2,9.5-2.3,14.2
			c-4.5,18.5-9.1,36.9-11,55.9c-0.9,9.7,0.2,18.9,7,26.6c0.8,0.9,1.5,2,2.2,3c-0.2,0.2-0.2,0.3-0.3,0.4c-0.5,0.1-1,0.2-1.5,0.2
			c-4.5,0-8.7,1.4-12.5,3.6c-3.4,2-6.4,4.6-7.9,8.4c-0.7,1.7-0.8,3.7-1.3,5.5c-1.4,4.2-1.3,8.5-1,12.7c0.2,3.1,1.6,5.7,5,6.9
			c6.8,2.3,13.5,4.7,20.8,5.2c4.4,0.3,8.7,1,13.3,1.6c-0.4,1.4-0.7,2.5-1.1,3.5c-4.3,9.9-8.6,19.9-12.9,29.8
			c-3.3,7.8-6.8,15.5-9.8,23.4c-6.6,17.7-13,35.5-19.4,53.2c-0.8,2.1-0.1,3.7,2.1,4.5c0.9,0.3,2,0.6,2.9,0.6
			c3.6,0.1,7.3,0.1,10.9,0.2c1.5,0,2.2-1,2.6-2.3c1.9-5.9,3.7-11.8,5.6-17.6c1.4-4.2,3-8.2,4.3-11.9c6,1.3,11.6,3,17.3,3.6
			c13.1,1.4,26.3,1.7,39.5,1.3c3.4-0.1,6.7-0.3,10.4-0.5c1.7,5.2,3.3,10,4.9,14.8c1.2,3.8,2.5,5.8,3.6,9.7c0.7,2.5,2.4,3.5,4.8,3.4
			c1.9,0,3.7-0.4,5.6-0.7c3.1-0.5,4-1.4,3.6-4.6c-0.2-1.8-7.5-18.8-9.9-26.6c-4.4-13.8-8.6-27.7-12.9-41.5
			c-3.4-10.9-7-21.8-10.5-32.7c-0.8-2.4-1.7-4.7-2.6-7.3c1.1,0,1.7,0,2.3,0c6.7-0.2,13.3-0.3,20-0.8c5.7-0.4,15.3-2.6,18.6-3.8
			s4.9-4.8,5.2-8.8c0.3-4.7,1.5-9.4-1.7-13.9c2-0.5,3.9-1,5.7-1.5c2.2-0.6,7-4.2,8.2-4.8c0.4,1.9,0.7,3.2,0.9,4.5
			c0.9,4.9,0.5,9.7,0.3,14.7c-0.8,13.6-1.2,27.2-1.7,40.8c-0.2,5.8-0.5,11.6-0.6,17.4c-0.1,4.1,0.1,4.6,4.5,6.2
			c2.9,1,6.2,1.1,9.3,1.3c2.7,0.2,5.5,0,8.2,0.3c4.3,0.4,6.3-1.2,6.7-5.5c0.1-1,0.2-2,0.4-3c0.7-3.6-0.5-5-4.2-5.2
			c-5.9-0.3-11.8-0.7-17.7-1.1c-2.4-0.2-2.7-0.9-2.5-3.2c0.4-5.6,0.9-11.3,1.2-16.9c0.4-9.2,0.8-18.4,0.9-27.5
			c0.1-7.2,1.2-14.5-0.9-21.4c-1.7-5.3,6.5-13.1,5.8-15c1.9-0.8,2.9-0.4,3.2,1.5c0.3,2,0.7,4,0.7,6c-0.1,7.8-0.3,15.6-0.5,23.4
			c-0.1,5,0,10.1,0,15.2c0,2.4,0.3,4.8-1.1,7c-0.3,0.5-0.6,8.7,0.6,11c1.5,3.2,5.2,2.4,8.8,2c4.5-0.5,19.7-2.6,21.2-3.2
			c1.4-2.1,0.2-5.2-0.1-7.8c-0.2-1.7-1.1-3.1-3-3.4c-2.8-0.4-5.7-1-8.5-1.2c-3.9-0.3-7.7-0.2-11.6-0.3c-0.5,0-0.9-0.2-1.5-0.3
			c0-0.8-0.1-1.4-0.1-2c0-11.8,0.1-23.7-0.1-35.5c0-3.8-0.6-7.5-0.9-11.3c0-0.5,0-1,0.1-2c14-0.7,28-1.3,42.2-2
			c0.3,3,0.6,5.5,0.9,8.1c0.2,2,0.4,4,0.4,6c0.1,8.4,0,16.9,0.1,25.3c0.2,9.9,0.9,19.8,0.7,29.7c-0.4,19.4,1.2,38.8,1.6,58.2
			c0.1,3.2-1.3,5.5-4.2,7.4c-2.9,1.9-5.4,2.6-8.3,3.7c-3,1.2-6.3,1.9-9.3,3c-2,0.7-4,1.6-5.7,2.8c-2.1,1.4-2,3.7-1.6,5.8
			c0.3,1.8,1.8,1.8,3.3,2.2c6.4,1.9,13,1.4,19.5,1.7c6.5,0.4,21.6-0.5,26.7-1.1c5.1-0.6,13.5-1.5,20.2-2.4c3.3-0.4,4.8-2.9,3.6-6
			c-0.5-1.2-3-3.7-4.3-4.1c-2.6-0.9-14-3-17.7-4.3c-6.8-2.4-7.5-3-8.1-11.2c0-0.3,0-0.5,0-0.8c-0.3-8.1-0.6-16.1-1-24.2
			c-0.3-6.8-1-13.6-1.1-20.4c-0.1-7.1,0.3-14.3,0.3-21.4c0.1-5.9,0.1-11.8,0-17.7c-0.1-4.8-0.4-9.6-0.5-14.3
			c-0.2-8.7-0.3-17.5-0.4-26.4c5.5-0.3,11-0.6,16.5-0.8c7.9-0.3,15.9-0.6,23.8-0.7c20.7-0.4,41.3-0.7,62-1.1c1.9,0,5.1-0.1,7.1-1.5
			c2.5-1.7,3.1-2.9,3.7-4.8C330.2,218.8,329.5,213.9,327.8,209z M295.3,109.9c0.4,1.1,1,2.5,1.4,4c2.3,9.5,4.2,19.2,6.7,28.7
			c5.7,21.8,11.8,43.5,19,64.9c0.3,0.9,0.6,1.9,0.9,3.1c-0.9,0.2-1.7,0.6-2.5,0.6c-7-0.1-14.1-0.3-21.1-0.3
			c-7.3-0.1-14.6-0.1-21.9,0c-7.9,0.2-15.8,0.6-23.8,1c-6.4,0.3-12.8,0.8-19.2,1.1c-13,0.6-25.9,1-38.9,1.7
			c-11.7,0.6-23.4,1.2-35,2.1c-18,1.5-66.8,0.1-67.7,0.5c3-25.8,11.6-50,16.8-75c9.2-0.5,17.8-1,26.7-1.5c0,0.1,0.3,0.6,0.3,1
			c-0.2,6-0.5,12.1-0.6,18.1c-0.1,4.5,0.2,9.1,0.3,13.6c0.1,5.8,0.4,11.5,0.3,17.3c0,2.1,0,4.6,1.5,6c6.2,1.5,12.2,0.6,18.3,0.3
			c4.9-0.2,9.8-0.6,14.7-0.6c7.9,0,15.8,0.3,23.7,0.3c11.7,0,23.3,0.2,35-1.4c8.2-1.1,16.5-1.3,24.8-1.9c2.6-0.2,5.3-0.3,7.9-0.6
			c1.9-0.2,3.1-0.6,4-3c0.9-2.6,1-5,1.1-7.6c0.3-10.4,0.9-34,1-35.4c0.2-3.9,0.5-7.8,1-11.6c0.5-3.7,0.9-7.6-0.5-11.1
			c-1.2-2.9-3.2-5.4-4.8-8.1c-0.9-1.4-1.9-2.8-3-4.4C273.1,111,283.9,110.5,295.3,109.9z M101.6,137.5c-9.6-0.3-19.1-1.7-28-5.2
			c-8.6-3.4-15.5-9.2-20.5-17.3c26.9,0.9,37.3-3.8,49.6-9.8c1.3,5.8,2.6,11.5,4,17.2c0.4,1.8,1,3.7,1.9,5.3c0.9,1.5,0.8,2.8,0.4,4.3
			C107.5,137.6,107.5,137.7,101.6,137.5z M301.5,60.6c2.8,10,5.7,20.1,8.6,30.4c-4-0.2-7.7-0.5-11.4-0.6
			c-10.3-0.3-19.9,2.5-28.9,7.5c-2.6,1.5-5.2,3-7.8,4.5c-6.8,4-12.3,9.3-15.4,16.7c0.5-4.4,2.6-8.2,4.4-12c3-6.2,6.8-12.1,11.9-16.8
			c3-2.7,6.3-4.9,9.5-7.3c1.5-1.1,3-2.2,4.4-3.3c1.5-1.2,1.3-2.4,0.4-3.9c-2.4-3.8-4.6-7.8-6.9-11.7c-0.7-1.2-1.2-2.4-2-4
			C279.7,58.6,290.4,60,301.5,60.6z M230.3,89c0.4-10,2.9-19.3,8.1-27.9c2.9-4.9,5.8-9.7,10.1-13.6c1.3-1.1,2.8-2.1,4.4-3.3
			c7.7,10.7,13.7,22,20.1,33.5c-16,8.3-24.6,22.2-30.3,38.4c-4.6-8.1-9.3-16.1-12.3-25C230.2,90.5,230.3,89.7,230.3,89z
			 M177.7,101.3c7.3-3.9,14.8-7.5,22.2-11.3c3.2-1.7,6.4-3.6,9.6-5.3c0.9-0.5,1.8-1,2.8-1c4.5-0.1,9,0,13.8,0c0.3,2.5,1,5-1.5,6.9
			c-1,0.8-1.2,1.7-0.7,3c2.2,5.9,4.2,11.8,6.4,17.8c1.2,3.2,2.5,6.3,3.7,9.5c0.6,1.6,1.6,2.5,3.3,2.7c1.6,0.2,3.3,0.4,4.7,1.1
			c2.8,1.4,5.1,0.1,7.5-1c0.7-0.3,1.6-1.3,1.6-2c0-4.3,3-6.7,5.5-9.4c0.2-0.2,0.4-0.3,0.9-0.6c3.1,5,6.3,10,9.2,15.1
			c0.6,1.1,0.8,2.7,0.6,4c-1.1,7.4-1.3,14.8-1.6,22.2c-0.3,8.2-1,16.3-1.4,24.5c-0.1,2.5,0.1,5,0.2,7.6c0.1,2.7-0.8,3.7-3.3,3.9
			c-8.1,0.7-16.3,1.5-24.4,2.1c-9.5,0.7-19.1,1.1-28.6,1.8c-9.5,0.7-18.9-0.1-28.4-0.2c-7.3,0-14.6,0.5-21.9,0.8
			c-4.3,0.2-8.5,0.4-12.8,0.6c-0.5,0-2.6,0.1-3.5,0s-1-8-0.6-12.3c0.1-0.8,4.2-2.5,4.9-3c4.6-3.1,9.3-6,13.9-9
			c5-3.2,9.8-6.6,14.9-9.6c5.8-3.4,11.8-6.7,17.9-9.8c8.9-4.6,18-9.1,27-13.6c3.5-1.7,7-3.4,10.5-5.1c0.4-0.2,1-0.3,1.5-0.3
			c6.3-0.2,12.5-0.4,18.8-0.6c3.7-0.1,7.4,0,11.1-0.1c1.1,0,2.3-0.3,3.3-0.7c0.7-0.3,1.6-1.3,1.5-1.8c-0.2-0.8-1.1-1.5-1.8-2
			c-0.3-0.2-1-0.1-1.5-0.1c-9,0.5-18.1,1.2-27.1,1.4c-4.3,0.1-8.1,0.5-11.8,2.8c-4.7,2.9-9.7,5.4-14.6,7.9
			c-6.3,3.1-12.8,5.9-19.1,9.1c-7.1,3.8-14.1,7.8-21,12c-9,5.5-27.3,18.2-28.4,17.9s-0.1-21.9,0.1-31.3c0-1.9,0-3.8,0-6.1
			c3.7-1,7.6-2.1,11.3-3.1c1.5,0.9,2.9,1.7,4.8,2.8c0.5,0.7-1.2,2.9,0.9,3.5c1.9-1.1,3.6-2,5.3-2.9c0.2-0.1,0.5-0.2,0.6-0.4
			c2.2-2.5,4-5.4,7.5-6.4c0.4-0.1,0.8-1.6,0.6-2.3c-0.6-2.3-1.4-4.6-2.3-6.8c-0.6-1.5-2-1.9-3.5-1.2c-1.3,0.6-2.6,1.4-3.9,2.1
			c0-2.1,0.2-4,0-5.7c-0.5-3.4-2.9-4.3-5.7-2.3c-2,1.5-2.8,3.9-1.9,6.3c1,2.8,1.1,3-1.6,4.2c-2,0.9-2.6,2.2-1.6,4.5
			c-3.6,0.9-7,1.7-10.6,2.5c0-3.8-0.6-10,0-11c0.6-1,12.4-7.6,18.8-11.4C159.6,112.2,171.7,104.6,177.7,101.3z M156.2,120.9
			c0-1.4,1.4-3.1,2.6-2.6c1.1,0.5,1,0.8,1,2.2s-0.8,2.1-1.9,2.1C156.7,122.7,156.2,122.3,156.2,120.9z M148.5,104.1
			c4.2-0.1,8.4,0.9,12.7,1.4c0.1,0.4,0.2,0.8,0.3,1.2c-3,1.8-5.9,3.7-8.9,5.5c-4.1,2.5-8.3,4.8-12.3,7.4c-2,1.3-3.4,3.1-3.1,5.9
			c0.3,3.2,0.1,6.5,0.1,9.6c-4.4,1.2-17.4,2.2-25.3,1.9c0-0.5,0-0.9,0.1-1.4c2.1-7.5,4.2-15,6.5-22.5c1.9-6.2,2.9-7.1,9.3-7.6
			C134.7,105,141.6,104.2,148.5,104.1z M130.9,100.4c0,0.2,0,0.3,0,0.5c-3.9,0.6-7.9,1.2-12,1.9c-4,5.7-4.6,12.8-7.3,19.7
			c-1.8-9.2-6.5-17.3-4.4-26.6C115,97.4,123,98.9,130.9,100.4z M30.6,90c-5.9-5.8-10.5-12.9-12.3-21.3c-1-4.8-2-9.6-1.5-14.6
			c1-9.1,3.7-17.6,10.2-24.2C33.4,23.6,40,17.6,48,13.2c7.5-4.1,15.5-6.7,23.9-7.7c12.7-1.9,34.6,2.7,39.7,8
			c0.8,0.8,1.6,1.6,2.5,2.3c5.3,4.3,8.6,9.9,11.3,16c2.5,5.6,4.4,11.2,5.2,17.3c1.2,9.1-0.6,17.3-6.9,24.6
			c-6,6.9-13.2,12.1-20.8,16.8c-7.3,4.4-27,10.8-36.8,10.8s-12.7-1.1-18.8-2.8C41.1,96.9,35.1,94.4,30.6,90z M12.1,248.7
			c5.1-6,11.9-8.3,19.7-7.3c2.8,0.3,10.2,4.3,11.5,4.7c10.8,3.4,21.5,7.3,32.7,9c5.8,0.9,11.7,1.5,17.6,2.1c4.5,0.5,9,0.8,13.5,0.9
			c3,0.1,6-0.2,9-0.4c1.9-0.1,4.4-0.7,3.6,2.1c-1.3,5.2-8.7,6.6-14.3,6.9c-10.5,0.5-21.1,0.9-31.7,1.1c-5.4,0.1-10.7-0.1-16.1-0.3
			c-5-0.3-10-0.7-15-1.3c-5.9-0.7-11.7-1.4-17.6-2.4c-3.3-0.6-6.6-1.6-9.9-2.5c-1.1-0.3-2.2-0.8-3-1.4C8.5,256.9,8,253.7,12.1,248.7
			z M14.5,391c-3.1,0-5.8,0-8.7,0c0.3-2,0.5-2.1,0.9-3c3.9-11,7.9-22,11.7-33.1c4.6-13.5,10-26.6,15.8-39.6c4.1-9.2,8-18.5,12-27.7
			c0.5-1.2,0.8-2.4,1.2-3.6c1-3,1.1-3.1,4.2-2.7c0.7,0.1,1.5,0.1,2.7,0.2c-7.7,18.1-15.2,35.9-21.1,54.4
			C27.1,354.2,20.8,372,14.5,391z M41.1,327.1c0.6-1.7,1.1-3.2,1.6-4.7c13.7-0.6,27.1,0.4,40.4,5.6c0.1,0.4,0.3,1.3,0.6,2.8
			C69.7,325.7,55.6,325.8,41.1,327.1z M85.7,336.5c1.6,4.7,3.3,9.7,5.1,14.9c-3.2,1.3-6.2,1.8-9.3,1.9c-6.4,0.1-12.8,0.4-19.2-0.1
			c-7.7-0.6-15.6-0.8-23.1-3.2c-1.6-0.5-3.2-1.4-5.1-2.2c1.7-5.2,3.2-9.9,4.8-14.9C54.8,328.7,70.2,331.5,85.7,336.5z M44.5,317.3
			c5-12.1,9.9-23.9,14.8-36c2.6,0.3,5,0.5,7.9,0.8c4.5,13.1,9.1,26.3,13.9,40.1C69,317.6,57,317.9,44.5,317.3z M87.6,363.8
			c-12.3,0.4-24.6,0.2-36.9-0.5c-6-0.3-11.9-1.5-17.7-3.4c-0.7-0.2-1.4-0.6-2.4-1c0.8-2.3,1.5-4.6,2.2-6.8
			c5.3,2.8,10.8,4.2,16.6,4.5c7.1,0.4,14.3,1.6,21.4,1.7c6.1,0.1,12.3-0.8,18.4-1.2c0.9-0.1,1.7-0.3,3.1-0.5
			c0.7,2.4,1.3,4.5,2.1,6.9C91.8,363.6,89.7,363.8,87.6,363.8z M82.9,298c3,9.2,5.8,18.5,8.7,27.7c3.6,11.7,7.1,23.4,10.8,35
			c3.1,9.8,11.1,29.4,11.9,30.5c-1.7,0.1-3.3,0.2-4.9,0.3c-12.2-36.9-24.4-71.9-36.8-109.1c1.7,0.1,2.9,0.2,4.7,0.3
			C79.1,287.6,81.2,292.7,82.9,298z M123,272.4c-1.1,1.3-8,4.1-17.2,5.3c-9.2,1.2-55.1,0.3-68.8-1.6c-13.7-1.8-20.5-4.3-25.7-5.9
			c-3.3-1-3.6-2-3.1-5.7c0.1-0.9,0.2-1.7,0.3-3.3c2.1,3.1,4.7,4.2,7.5,5.1c7.8,2.5,16,3.5,24.1,4.4c9.1,1,18.3,1.7,27.4,2.2
			c3.5,0.2,7-0.3,10.5-0.4c6.3-0.1,12.6,0,18.9-0.3c4.6-0.2,9.3-0.7,13.9-1.4c3.2-0.5,6.4-1.6,8.8-4c2-2,4-4,3.9-7.6
			c0.8-1.4,1.9-0.5,1.8,0C127,266.3,125.8,269,123,272.4z M132.2,248.9c-4.7,1.9-10,2.5-15,3.5c-6.2,1.2-12.5,1-18.8,0.2
			c-4.2-0.5-8.5-0.5-12.8-0.9c-7.9-0.7-15.7-2.3-23.3-4.4c-5.7-1.6-11.4-3.3-17-5.1c-4.4-1.4-7.9-4.5-11.1-7.6
			c-7.1-6.8-10.2-15-9.3-25.2c1.4-16.8,5.2-33,8.9-49.4c1.7-7.6,2.9-15.3,4.2-23c1.5-8.4,3-16.8,4.5-25.3c3.8-0.3,5.9,2.1,7.8,5.2
			c5.6,9.1,13.5,15.7,23.3,19.7c5.7,2.3,11.6,4.1,17.9,4.5c4.7,0.3,9.5,1.1,14.6,1.7c-1,4.3-1.9,8.5-3,12.7
			c-3.3,13.2-6.6,26.4-9.9,39.6c-0.2,0.7-0.4,1.5-0.4,2.2c-0.1,2.4-1.5,3.6-3.3,5C83.1,207,77.2,212,71.4,217
			c-1.7,1.4-3.1,3.2-5,5.2c1.2,1,1.9,1.6,2.8,2.4c6.9-5.9,13.7-11.6,20.5-17.3c0.2,0.1,0.5,0.2,0.7,0.3c-0.5,3.5-1.1,7-1.6,10.5
			c-0.4,3-1.3,5.9-0.2,8.9c0.8,2.1,2,3.6,3.9,4.8c5.3,3.5,11.3,4.2,17.3,4.5c8.9,0.4,17.9,0.2,26.8,0.1c3.1,0,6.2-0.5,9.5-0.4
			C141.8,240.8,138.3,246.5,132.2,248.9z M219.9,370.8c1.1,1,4.2,2,5.6,2.3c4.6,1.1,11.6,1.4,14.8,1.8s5.1,1.9,5.1,4
			s-61.8,5.6-64.1,3.3c-2.2-2.2-1.7-3.6,2-4.8s21.8-6.5,23.8-9.3c2-2.9,1.6-13.7,1.3-18.3c-0.4-6.7-0.9-13.3-1.3-19.9
			c-0.2-3.5-0.1-7.1-0.1-10.6c0-5,0-10,0-15c-0.1-8.2-0.3-16.3-0.4-24.5c-0.2-10.7-0.4-21.4-0.6-32.1c0-0.3,0-0.5,0-0.8
			c0-4,0.5-4.4,5.1-4c0.3,3.2,0.8,6.4,0.8,9.6c0.1,19.5-0.1,39.1,0.1,58.6c0.1,7.5,1,15.1,1.4,22.6c0.4,8.3,0.7,16.6,1.1,24.9
			c0.1,2.5-0.2,5.4,0.9,7.4C216.8,368.5,217.6,368.9,219.9,370.8z M325,219.7c-0.6,2.7-3.9,5.5-6.8,5.6c-15.5,0.3-31,0.6-46.4,0.9
			c-10.7,0.2-21.4,0.4-32,0.7c-14.4,0.4-28.9,0.9-43.3,1.5c-10.2,0.4-20.3,0.9-30.5,1.5c-8.8,0.6-17.5,1.8-26.3,2.1
			c-7.9,0.3-15.9-0.2-23.8-0.5c-4-0.1-8-0.5-12-0.8c-1.7-0.2-3.5-0.6-5.2-1.1c-4.1-1.2-4.2-1.5-3.5-6.1c8.3-1.1,16.3-0.6,24.3-0.7
			c16.6-0.1,33.2-0.5,49.7-2.5c6.6-0.8,13.3-0.8,20-1.1c12.3-0.5,24.6-1,37-1.5c7.3-0.3,14.6-0.4,21.9-0.8
			c9.8-0.5,19.6-1.4,29.4-1.9c4.6-0.2,9.3,0.2,13.9,0.2c3.9,0,7.7-0.2,11.6-0.1c6.5,0.1,13.1,0.3,19.6,0.6
			C324.5,215.7,325.4,217.4,325,219.7z"/>
		<path d="M203.5,120.5c4.4,0.9,6.1,2.3,6.2,5.2c0.1,2.9-4.1,4.5-5.5,5.3s-0.8,5.7-2.4,5.7s-0.9-2.6-1.1-3.9
			c-0.2-1.1-0.1-2.3-0.7-3.1c-2.3-3.6-2.2-5.1,0.7-8.2c-0.4-1.8-0.6-3.4-2.5-4.6c-2.6-1.6-2.4-4.1,0-6.2c0.5-0.4,0.9-0.9,1.4-1.3
			c2.4-2,4.8-1.8,6.6,0.4c1.4,1.8,1.1,4.7-0.8,6.5C203.5,118,203.5,118,203.5,120.5z M206.4,127c0.9-1,0.9-2.9-1.3-3.4
			s-4.9,1.5-4,3.5C202.1,129,205.5,128,206.4,127z M203.9,112.2c-0.1-2.8-4.4-0.7-4.7,1.3c-0.2,2,2.3,1.8,2.9,1.6
			C202.5,115,204,115,203.9,112.2z"/>
		<path d="M249.6,151.8c-3.4,0.1-6.1-1-7.5-4.3c-0.6-1.3-0.5-2.5-0.1-3.8c0.7-2.2,4.1-5,6.6-4.8c3.4,0.3,6.3,1.5,7.8,4.8
			c2.2,4.8-1,7.4-4.7,8.1C250.9,151.9,250.2,151.8,249.6,151.8z M245.2,145.9c-0.1,0.7,1.1,1.8,2,2.2c0.8,0.4,2,0.4,2.9,0.3
			c1.6-0.2,2.4-1.4,2.2-2.9c-0.2-1.5-1.2-3-3.5-3S245.3,144.6,245.2,145.9z"/>
		<path d="M197.1,106.8c-1.1,1.3-1.7,4.2-3.1,3.7c-1.4-0.4,0-3.5-2.1-5.8c-1.3-1.9-0.4-5.2,1.3-6.4c2-1.4,4.8-1.5,6.3-0.3
			c2,1.6,2.4,4.8,1.1,6.1S198.2,105.4,197.1,106.8z M198.4,100.9c-0.6-1.3-1.5-1.6-2.9-1.1c-1.4,0.5-2.1,2.5-0.9,3.3
			c0.6,0.2,2,0,2.5-0.3C197.7,102.5,198.9,102.1,198.4,100.9z"/>
		<path d="M174.6,107.9c2.3-0.5,2.9-0.5,4.1,0c2.1,0.8,3.1,1.9,3.3,4.1c0.2,2.5-1,3.2-4,4.1c-1.2,0.6-0.9,2.2-2.1,2.8
			c-0.5,0.3-1.2,0.5-1.6,0.2c-0.4-0.2-0.8-1.5-0.6-1.9c0.5-1.2-0.2-1.7-0.7-2.7C171,111.3,172.4,108.5,174.6,107.9z M174.6,111.3
			c-0.5,1.7,1.1,2.9,2.4,2.6c1.3-0.3,2.3-0.5,2-2.5C178.7,109.5,175.2,109.6,174.6,111.3z"/>
		<path d="M183.7,131.7c-3.5,0,0.5-3.2-4.4-6.2c-1.1-1.9,0-3.7,1.2-5.2c1.2-1.5,2.6-2.8,4.7-2.5c2.8,0.4,4.4,3.6,3.3,6.5
			c-0.1,0.3-0.3,0.7-0.5,1C184.4,127.8,187.1,131.7,183.7,131.7z M181.3,123.5c-0.2,1.4,1.7,1.7,3.1,1.2s2.2-1.1,2.1-2.8
			c-0.1-1.1-1.2-1.7-2.6-1.4C182.6,120.9,181.5,122.2,181.3,123.5z"/>
		<path d="M82.3,75.7c-1.7-1.6-1.7-5.8,0.4-7.4c1.6-1.2,3.3-1,5.2,0.5c1.6,1.3,2.2,3.7,1.4,5.4C88.2,76.3,84,77.4,82.3,75.7z"/>
		<path d="M97.9,68c-0.1-2.1,1.9-4.7,3.5-4.7c2.1,0,4.8,2.5,4.8,4.6c0,2.1-2.1,4.2-4.4,4.3C99.5,72.3,98,70.7,97.9,68z"/>
		<path d="M189.4,136.6c-0.8-2.5-3.4-3.9-6.3-3.3c-1.3,0.3-3.2,3.3-2.1,5.6c0.9,2.3,1.2,3,1.1,5.6c-0.1,1.9,0.6,3,1.1,3.1
			c0.5,0.1,1.4-0.5,1.7-1c0.5-1,0.7-2.1,1.1-3.3c0.1-0.1,0.3-0.3,0.5-0.4C189.5,141.3,190.3,139.6,189.4,136.6z M184.8,139.9
			c-1.9-0.7-2.2-3.5-0.8-4.4c1.4-0.9,2.8,0.3,3.2,1.5C187.5,138.1,186.8,140.6,184.8,139.9z"/>
		<path d="M168.7,142.5c-1.7-1.7-2.9-2.4-4.8-1.7c-2,0.7-3.2,1.9-4.2,3.7c-0.3,0.5-0.9,2.3,0.1,3.8c1.1,1.4,1.2,6.5,1.6,7.4
			c0.4,0.9,2.4,0.5,2.5-0.7c0.2-1.2,1-5.1,3.3-6.3C170.3,147,170.3,144.7,168.7,142.5z M165,147c-1.4,0.5-3.3,0.2-3.1-1.2
			c0.2-1.4,1.3-2.6,2.5-2.9c1.4-0.3,2.6,0.3,2.6,1.4C167.2,145.9,166.4,146.6,165,147z"/>
		<path class="st2" d="M156.2,120.9c0-1.4,1.4-3.1,2.6-2.6c1.1,0.5,1,0.8,1,2.2s-0.8,2.1-1.9,2.1
			C156.7,122.7,156.2,122.3,156.2,120.9z"/>
		<path class="st1" d="M161.5,106.7c-0.1-0.4-0.2-0.8-0.3-1.2c-4.2-0.5-8.5-1.5-12.7-1.4c-6.9,0.1-13.8,0.9-20.7,1.5
			c-6.5,0.6-7.5,1.4-9.3,7.6c-2.2,7.5-4.3,15-6.5,22.5c-0.1,0.4-0.1,0.9-0.1,1.4c7.9,0.3,20.9-0.7,25.3-1.9c0-3.1,0.2-6.4-0.1-9.6
			c-0.3-2.8,1.1-4.6,3.1-5.9c4-2.6,8.2-4.9,12.3-7.4C155.6,110.4,158.5,108.5,161.5,106.7z"/>
	</g>
	<g>
		<path class="st0" d="M573.7,212.8c-0.3,2.5-1.5,4.2-4,4.4c-1.6,0.1-3.3-2.1-3.7-4.3c-0.1-0.3-0.9-4.2-0.5-9.1
			c0.4-4.9,1.5-14.4,2.3-21.5c0.1-1.1,0.6-2.2,0.9-3.6c2.1,0.6,4,1.1,6.4,1.7C573.3,190.7,574,210.2,573.7,212.8z"/>
		<path class="st0" d="M566.8,220c3.4,2.8,9.6,1.4,10.1-4.3c0.3-3.2,0.4-6.4,0.7-9.7c14.1,0.8,28.1,1.6,42.4,2.4
			c0.1,2.7,0.3,5.3,0.4,7.8c0.1,2.7,1.6,4.6,3.6,6.1c2.9,2.3,6.6,1.6,8.8-1.4c0.6-0.8,1.1-1.7,2.2-2.5c0.6,12.7,1.2,25.3,1.8,38.4
			c-2.9,0.2-5.4,0.6-7.9,0.6c-14.4,0.4-28.7-0.9-43-2.3c-9.9-0.9-19.7-2.3-30-3.6c1-12.7,3.6-26.9,5.8-38.9
			C563,216.2,565,218.6,566.8,220z"/>
		<path class="st0" d="M633.7,185.2c0.4,6.1,0.2,12.1-0.4,18.1c-0.3,3.6-1.1,11.5-4.2,14.8c-1.9,2-3.8,1.6-4.4-1.1
			c-0.3-1.2-0.3-2.6-0.2-3.8c0.5-7.2,1.2-14.4,1.7-21.6c0.3-3.6,0.4-7.2,0.7-11.2c2.2-0.7,4.4-1.5,7.2-2.3
			C633.9,180.7,633.5,183,633.7,185.2z"/>
		<path class="st0" d="M659.8,280.2c0.5,2.8,0.8,5.6,1.2,8.4c0.4,2.9-0.2,4.3-2.9,5.6c-1.3,0.6-2.6,1.2-4,1.5
			c-9.1,2.2-18.3,4.6-27.5,6.5c-9,1.9-18.2,2-27.4,0.8c-6.1-0.8-12.4-0.8-18.5-1.8c-8.1-1.3-23.4-5.1-28.7-6.4
			c-5.2-1.2-23.1-7.7-23.1-9.6s3.3-16,5.3-24.2c19.9,5.7,40.1,9,60.6,9.4c20.5,0.4,41,0.4,62-3.7C657.9,271.2,659,275.7,659.8,280.2
			z"/>
		<path class="st0" d="M654.6,257.6c0.4,0,2.5,3.6,1.9,5c-0.6,1.4-11.5,3.1-17.3,3.4c-26.9,1.8-41.8,2-76.2-2.4
			c-4.2-0.5-19.2-4.6-22.6-5.4c-1.5-0.4-3-0.7-5-1.1c0.4-1.7,0.8-3.4,1.3-5.6c3.2,0.7,6.4,1.5,9.7,2c11.1,1.9,22,3.4,33.1,4.6
			c14.5,1.6,29.1,2.5,43.7,2.8C631.6,261.2,652.3,257.7,654.6,257.6z"/>
		<path d="M613.8,147.5c2,0,3.8-2.3,3.8-5c0-2.4-1.8-4.3-4.3-4.4c-2.2-0.1-3.8,1.8-3.8,4.3C609.5,145,611.6,147.5,613.8,147.5z"/>
		<path d="M587.3,146.5c1.6-0.1,3.7-2.6,3.7-4.4c0-2.3-2.1-4.8-4.1-4.8c-1.8,0-3.7,1.8-3.8,3.7C583.1,143.7,585.3,146.7,587.3,146.5
			z"/>
		<path d="M631,211.8c-0.3-1.5-1.8-2.4-3-2c-1.5,0.4-2.7,2.6-2.3,4c0.6,1.8,1.7,2.4,3.3,2C631.1,215.1,631.2,212.6,631,211.8z"/>
		<path d="M792.7,91.4c-1.7-0.4-2.8,0.5-3.4,1.9c-1,2-1.9,4-2.6,6c-3.4,9.1-6.7,18.2-10.1,27.3c-3.3,8.7-6.6,17.4-10,26.1
			c-1.5,3.8-3.3,7.5-4.9,11.4c-2.1-0.7-3.9-1.3-5.9-2c2.2-7.6,4.2-14.7,6.3-21.9c1.5-5.3,3.2-10.7,4.5-16c2-8,3.7-16.1,5.5-24.1
			c0.2-1.1,0.3-2.4-0.2-3.4c-0.4-0.9-1.6-1.8-2.5-2c-0.6-0.1-1.7,0.9-2.2,1.7c-0.8,1.6-1.4,3.3-2,5c-2.2,6.6-4.3,13.3-6.4,19.9
			c-2.9,9.4-5.6,18.8-8.5,28.2c-1,3.4-2.2,6.8-3.3,10.3c-4.1-1.5-7.8-2.7-11.7-4.1c1.3-4.8,2.6-9.1,3.8-13.5
			c4.2-15.7,8.3-31.5,12.3-47.3c0.4-1.7,0.2-3.6,0-5.3c-0.3-1.6-1.4-2.9-3.2-2.8c-1.7,0.1-2.3,1.4-2.8,2.8c-2,6.3-4.2,12.5-6.2,18.8
			c-3.9,12.5-7.7,24.9-11.5,37.4c-0.6,2.1-1.2,4.2-1.9,6.4c-3.8-1.1-7.4-2.2-11.1-3.3c0.8-4.3,1.4-8.2,2.3-12.1
			c1.8-7.4,3.4-14.9,5.7-22.1c2.9-9.5,6.4-18.8,9.7-28.2c0.6-1.7,1.4-3.3,2-5c0.8-2.3,0.4-3.2-1.9-4.2c-0.9-0.4-1.9-0.6-3.1-1
			c-1.6,3.5-3.3,6.7-4.6,10c-3,8.2-6.1,16.5-8.7,24.9c-3.7,11.7-7,23.5-10.7,35.2c-1.1,3.6,0.3,6.1,2.4,8.4c1.7,2,4.1,2.9,6.7,3.7
			c4.5,1.4,8.9,3.1,13.5,4.8c-3.7,12.8-7.3,25.4-10.9,38c-4.7-1.2-4.7-1.2-6.6,3.5c-22.2-8.3-43.6-18.2-63.9-31.7
			c6.6-3.1,11.4-7.6,15.7-12.6c3.9-4.5,7.6-9.1,9.8-14.7c3.3-8.3,4.3-16.9,3.7-25.8c-0.3-4.3-0.4-8.5-0.8-12.8
			c-0.6-5.5-3.1-10.4-5.4-15.3c-5.6-11.5-13.7-20.8-24.7-27.1c-15.2-8.6-37.1-10.7-49-10.7c-11.8,0-14.4,1.5-18,2.2c0,0,0,0,0,0
			c-5.7,0.9-11.3,2.2-16.3,5.3c-5.1,3.2-10.7,6-15.3,9.9c-9.7,8.2-15.8,18.9-20.2,30.8c-3.5,9.7-3.2,19.6-1.8,29.4
			c1.7,11.9,6.9,22.2,15.8,30.4c4,3.7,9.9,7.4,14.3,11c-0.2,1-0.3,2.3-0.7,3.5c-3.5,9.9-6.9,19.8-10.7,29.5
			c-2.9,7.5-4.9,15.2-6.7,23.1c-0.4,1.9-1.1,3.7-1.6,5.6c-0.3,1.3-1,1.9-2.5,1.9c-2.2,0.1-4.6,0.7-5,3.1c-0.9,5.1-1.9,10.1-2.3,15.3
			c-0.4,4.8-0.3,5.7,4.6,6.5c-1.1,6.6-2.2,13.2-3.4,19.8c-0.8,4.1,0.2,7.2,3.4,8.8c5.8,2.9,11.4,6.1,17.8,7.5
			c3.8,0.8,7.5,2.1,11.2,3c3.1,0.8,6.2,1.6,9.4,2.3c3,0.7,6,1.2,9.2,1.8c-0.4,11-0.8,21.8-1.2,32.7c-0.7,0.1-1.2,0.3-1.7,0.3
			c-5.2,0.3-10.3,0.4-15.5,0.8c-4.1,0.3-5.4,2.6-4.6,6.7c0.7,3.9,2.9,5.3,7.9,4.8c5.5-0.5,10.9-1.7,16.4-2.8c3-0.6,3.1-0.9,2.9-3.9
			c-0.1-1-0.3-2.1-0.3-3.1c0-5.3-0.2-10.6,0.1-15.8c0.3-4.7,1.5-17.2,1.7-18.8c8.6,0.7,16.9,1.4,25.3,2.1c0.1,1-1.2,8.8-1.5,12.1
			c-0.6,6.2-0.9,12.4-1.4,18.5c-0.2,2.2-0.7,4.3-0.9,6.5c-0.5,4.7,2.2,7.3,6.9,7.5c5.8,0.3,18,1.7,18.4,1.9c2.6,0.8,4.4,0.1,4.8-2.4
			c0.3-2,0.9-5,0.7-7.2c-0.2-2.2-0.2-2.3-1.6-3.7c-7.9-0.3-15.6-0.7-23.4-1c-0.6-11.1,1.4-21.5,2.5-32.1c1.4-0.2,2.6-0.3,3.9-0.5
			c4.9-0.7,9.8-1.1,14.5-2.1c6.3-1.3,12.5-3.1,18.7-4.6c3-0.7,6-1.3,9-2c5.6-1.4,7.9-5,6.9-10.6c-0.3-1.8-0.3-3.6-0.7-5.4
			c-1.9-9.2-3.9-18.4-5.8-27.7c-2.2-11-3.9-22.1-4.8-33.3c-0.6-7.7-1.8-15.4-2.8-23.1c-0.7-5.3-1.7-10.6-2.6-16.5
			c17.5,13.5,38.1,19.1,57.9,27c-0.2,4,3.5,3.6,5.9,4.9c-0.1,0.7-0.1,1.3-0.3,1.9c-1.8,7.2-3.7,14.5-5.5,21.7
			c-1.2,4.6-2.3,9.3-3.5,13.9c-2.3,8.3-4.9,16.6-7.1,24.9c-2.8,10.1-5.2,20.3-8,30.3c-3.5,12.7-7.3,25.3-11,38
			c-0.5,1.7-0.2,2.9,1.1,3.7c1.2,0.7,2.5,1.1,3.9,1.5c1.8,0.5,3.7,0.7,5.5,1.3c2.3,0.8,2.9,0.7,3.5-1.7c1.2-4.8,2.3-9.5,3.4-14.3
			c0.8-3.4,1.7-6.7,2.5-10.1c2.5-10.7,4.7-21.5,7.5-32.1c3.3-13,6.9-25.9,10.6-38.8c3.2-11.2,6.7-22.3,10.2-33.3
			c0.3-1,1.4-2.4,2-2.4c2,0.2,2.4-1.1,3.1-2.3c1-1.7,2-3.3,3-4.9c0.9-1.6,0.5-3.9-1-4.8c-0.7-0.4-1.6-0.6-2.7-1
			c4.3-12.7,7.3-25.5,11.5-38c7.6,2.5,14.7,4.7,21.7,7c1,0.3,2,0.9,2.8-0.2c1.2-1.7,2.7-3.3,3.5-5.2c1.8-4.2,3.3-8.4,4.7-12.7
			c3.3-9.9,6.5-19.9,9.8-29.8c1.8-5.5,3.8-11,5.6-16.5c1.6-5,3.2-10.1,4.7-15.2C794.9,93.3,794.1,91.8,792.7,91.4z M534.8,150.1
			c-8.8-15.4-10.5-31.6-3.9-48.4c0.8-2,1.5-4.1,2.5-6.1c4.2-8.4,9.2-16.5,16.8-22.1c9.3-6.9,19.3-13,31.4-14.1
			c13.6-2.3,47.5,1.6,54.6,5c6.2,3,11.8,6.8,17.1,11.3c8.7,7.6,13.9,17.3,17.5,27.9c0.5,1.4,0.6,3,0.7,4.6c0.3,2.7,0.4,5.4,0.7,8.1
			c0.8,8.6,0.4,17.1-2.8,25.2c-2.8,7.1-7.7,12.8-12.6,18.4c-4.4,4.9-9.8,8.3-15.9,10.8c-8.8,3.5-17.9,5.8-27.2,7.5
			c-6.4,1.2-12.9,2.1-19.3,1.4c-13.1-1.6-26-4.6-37.9-10.5C547.6,164.8,539.8,158.8,534.8,150.1z M573.7,212.8
			c-0.3,2.5-1.5,4.2-4,4.4c-1.6,0.1-3.3-2.1-3.7-4.3c-0.1-0.3-0.9-4.2-0.5-9.1c0.4-4.9,1.5-14.4,2.3-21.5c0.1-1.1,0.6-2.2,0.9-3.6
			c2.1,0.6,4,1.1,6.4,1.7C573.3,190.7,574,210.2,573.7,212.8z M566.8,220c3.4,2.8,9.6,1.4,10.1-4.3c0.3-3.2,0.4-6.4,0.7-9.7
			c14.1,0.8,28.1,1.6,42.4,2.4c0.1,2.7,0.3,5.3,0.4,7.8c0.1,2.7,1.6,4.6,3.6,6.1c2.9,2.3,6.6,1.6,8.8-1.4c0.6-0.8,1.1-1.7,2.2-2.5
			c0.6,12.7,1.2,25.3,1.8,38.4c-2.9,0.2-5.4,0.6-7.9,0.6c-14.4,0.4-28.7-0.9-43-2.3c-9.9-0.9-19.7-2.3-30-3.6
			c1-12.7,3.6-26.9,5.8-38.9C563,216.2,565,218.6,566.8,220z M579.2,181.3c7.3,1.7,14.5,3.5,21.9,2.8c7.3-0.6,14.5-1.7,22.1-2.6
			c-0.7,7-1.4,14.1-2.2,21.5c-14.4,1.8-28.7-0.5-43-1.3C577.5,194.7,577.4,188.1,579.2,181.3z M633.7,185.2
			c0.4,6.1,0.2,12.1-0.4,18.1c-0.3,3.6-1.1,11.5-4.2,14.8c-1.9,2-3.8,1.6-4.4-1.1c-0.3-1.2-0.3-2.6-0.2-3.8
			c0.5-7.2,1.2-14.4,1.7-21.6c0.3-3.6,0.4-7.2,0.7-11.2c2.2-0.7,4.4-1.5,7.2-2.3C633.9,180.7,633.5,183,633.7,185.2z M538.2,244.9
			c0.8-3.3,1.5-6.6,2.3-9.8c1.6-6,3.1-12,4.8-18c1.7-6.1,3.6-12.1,5.4-18.2c2.3-7.3,4.6-14.5,6.9-21.8c0.2-0.7,0.5-1.5,0.9-2.6
			c2.1,0.9,3.8,1.7,5.7,2.5c-0.9,6.3-1.7,12.4-2.5,18.5c-0.4,2.9-0.5,5.9-0.7,8.9c-0.1,0.8,0.1,1.8-0.2,2.3c-4,5.4-3.8,12-5.1,18.1
			c-1.8,8.3-3,16.7-4.5,25.4c-3.8-0.7-7.8-1.4-11.6-2.2C537.9,247.7,537.9,246.3,538.2,244.9z M659.8,280.2c0.5,2.8,0.8,5.6,1.2,8.4
			c0.4,2.9-0.2,4.3-2.9,5.6c-1.3,0.6-2.6,1.2-4,1.5c-9.1,2.2-18.3,4.6-27.5,6.5c-9,1.9-18.2,2-27.4,0.8c-6.1-0.8-12.4-0.8-18.5-1.8
			c-8.1-1.3-23.4-5.1-28.7-6.4c-5.2-1.2-23.1-7.7-23.1-9.6s3.3-16,5.3-24.2c19.9,5.7,40.1,9,60.6,9.4c20.5,0.4,41,0.4,62-3.7
			C657.9,271.2,659,275.7,659.8,280.2z M654.6,257.6c0.4,0,2.5,3.6,1.9,5c-0.6,1.4-11.5,3.1-17.3,3.4c-26.9,1.8-41.8,2-76.2-2.4
			c-4.2-0.5-19.2-4.6-22.6-5.4c-1.5-0.4-3-0.7-5-1.1c0.4-1.7,0.8-3.4,1.3-5.6c3.2,0.7,6.4,1.5,9.7,2c11.1,1.9,22,3.4,33.1,4.6
			c14.5,1.6,29.1,2.5,43.7,2.8C631.6,261.2,652.3,257.7,654.6,257.6z M649.4,212.9c0.5,4.5,0.6,9,1.2,13.5
			c1.1,8.3,2.4,16.6,3.7,24.9c0.1,0.6,0.2,1.3,0.4,2.2c-4.3,0.9-8.4,1.8-13.2,2.9c-0.3-6.5-0.5-12.5-0.8-18.5
			c-0.4-6.6-0.9-13.1-1.5-19.7c-0.1-1.4-0.6-2.8-1.2-4c-1.3-2.2-1.3-4.4-1.1-6.9c0.5-6.2,0.5-12.4,0.8-18.6c0.1-2.3,0.3-4.6,0.5-6.9
			c0.1-1.7,0.4-3.3,0.6-5.2c0.6-0.3,1.4-0.7,2.2-1.1c0.4,0.3,0.8,0.4,1,0.7c3.7,4.3,3.9,9.7,4.7,14.9
			C647.6,198.3,648.6,205.6,649.4,212.9z M687.4,347.4c-1.3-0.1-2.1-0.1-2.8-0.2c-0.8-0.1-1.5-0.3-2.7-0.6c0.6-1.9,1.1-3.5,1.6-5.2
			c1.5-5.1,2.9-10.2,4.3-15.3c3.8-13.3,8.1-26.4,11.2-39.9c2.9-12.6,16.7-66.3,18.8-70.8c1.6,0.7,2.9,1.2,4.7,1.9
			C708.9,260.3,696.9,303.5,687.4,347.4z M726.7,204.6c-1.6-0.6-3.9-1.1-5.4-1.6c1.3-5.4,3.4-15,4.7-20.1c1.9,0.1,4.6,2.1,6.5,2.2
			C732.6,185.6,728.5,199.3,726.7,204.6z M733.7,179.3c-1.9-0.9-3.6-1.7-5.4-2.6c0.7-2.7,1.4-5.3,2.1-8.3c2,0.7,3.7,1.3,5.6,2.1
			C735.3,173.4,734.5,176.2,733.7,179.3z"/>
		<path d="M568.3,205.5c-1.4,0.7-2.8,3.7-1.6,6c0.9,1.8,4.3,2.1,5.7,0.5c1-1.1,1.1-3.7,0.4-5.2C571.9,205.5,570.5,204.4,568.3,205.5
			z"/>
		<path class="st2" d="M687.4,347.4c-1.3-0.1-2.1-0.1-2.8-0.2c-0.8-0.1-1.5-0.3-2.7-0.6c0.6-1.9,1.1-3.5,1.6-5.2
			c1.5-5.1,2.9-10.2,4.3-15.3c3.8-13.3,8.1-26.4,11.2-39.9c2.9-12.6,16.7-66.3,18.8-70.8c1.6,0.7,2.9,1.2,4.7,1.9
			C708.9,260.3,696.9,303.5,687.4,347.4z"/>
		<path class="st2" d="M726.7,204.6c-1.6-0.6-3.9-1.1-5.4-1.6c1.3-5.4,3.4-15,4.7-20.1c1.9,0.1,4.6,2.1,6.5,2.2
			C732.6,185.6,728.5,199.3,726.7,204.6z"/>
		<path class="st2" d="M733.7,179.3c-1.9-0.9-3.6-1.7-5.4-2.6c0.7-2.7,1.4-5.3,2.1-8.3c2,0.7,3.7,1.3,5.6,2.1
			C735.3,173.4,734.5,176.2,733.7,179.3z"/>
		<path class="st1" d="M579.2,181.3c7.3,1.7,14.5,3.5,21.9,2.8c7.3-0.6,14.5-1.7,22.1-2.6c-0.7,7-1.4,14.1-2.2,21.5
			c-14.4,1.8-28.7-0.5-43-1.3C577.5,194.7,577.4,188.1,579.2,181.3z"/>
		<path class="st1" d="M538.2,244.9c0.8-3.3,1.5-6.6,2.3-9.8c1.6-6,3.1-12,4.8-18c1.7-6.1,3.6-12.1,5.4-18.2
			c2.3-7.3,4.6-14.5,6.9-21.8c0.2-0.7,0.5-1.5,0.9-2.6c2.1,0.9,3.8,1.7,5.7,2.5c-0.9,6.3-1.7,12.4-2.5,18.5
			c-0.4,2.9-0.5,5.9-0.7,8.9c-0.1,0.8,0.1,1.8-0.2,2.3c-4,5.4-3.8,12-5.1,18.1c-1.8,8.3-3,16.7-4.5,25.4c-3.8-0.7-7.8-1.4-11.6-2.2
			C537.9,247.7,537.9,246.3,538.2,244.9z"/>
		<path class="st1" d="M649.4,212.9c0.5,4.5,0.6,9,1.2,13.5c1.1,8.3,2.4,16.6,3.7,24.9c0.1,0.6,0.2,1.3,0.4,2.2
			c-4.3,0.9-8.4,1.8-13.2,2.9c-0.3-6.5-0.5-12.5-0.8-18.5c-0.4-6.6-0.9-13.1-1.5-19.7c-0.1-1.4-0.6-2.8-1.2-4
			c-1.3-2.2-1.3-4.4-1.1-6.9c0.5-6.2,0.5-12.4,0.8-18.6c0.1-2.3,0.3-4.6,0.5-6.9c0.1-1.7,0.4-3.3,0.6-5.2c0.6-0.3,1.4-0.7,2.2-1.1
			c0.4,0.3,0.8,0.4,1,0.7c3.7,4.3,3.9,9.7,4.7,14.9C647.6,198.3,648.6,205.6,649.4,212.9z"/>
	</g>
</g>
</svg>
