<?xml version="1.0" encoding="utf-8"?>
<!-- Generator: Adobe Illustrator 19.1.0, SVG Export Plug-In . SVG Version: 6.00 Build 0)  -->
<svg version="1.1" id="Calque_1" xmlns="http://www.w3.org/2000/svg" xmlns:xlink="http://www.w3.org/1999/xlink" x="0px" y="0px"
	 viewBox="0 0 148.9 151" style="enable-background:new 0 0 148.9 151;" xml:space="preserve">
<style type="text/css">
	.st0{fill:#E01220;}
	.st1{fill:#1F7CAD;}
	.st2{fill:#C0BFBF;}
	.st3{fill:#1F7CAD;stroke:#000000;stroke-width:2;stroke-miterlimit:10;}
	.st4{fill:#6DA3C3;}
	.st5{fill:none;stroke:#E01220;stroke-width:3;stroke-miterlimit:10;}
	.st6{fill:#F5FBF9;}
	.st7{fill:#1D1D1B;}
	.st8{fill:#010202;}
</style>
<g>
	<path class="st1" d="M82.3,116.7c15.6-1.9,30.9-3.7,46.4-5.6c-1-7.8-1.9-15.3-2.8-22.7c-3,0.3-6,0.4-9,0.8
		c-6.5,0.9-12.9,2-19.4,2.9c-4.3,0.6-8.5,1.2-12.8,1.7c-1.7,0.2-3.4,0.2-5.5,0.4C80.3,101.9,81.3,109.2,82.3,116.7z"/>
	<path class="st1" d="M83,126.9c15.9-1.7,31.5-3.4,47.3-5.1c-0.2-2.6-0.4-5.1-0.6-7.6c-1.1,0.2-1.9,0.3-2.7,0.4
		c-0.8,0.1-1.5,0.3-2.3,0.4c0.1,0.6,0.3,1.1,0.3,1.6c0.1,2-1.4,4.3-3.1,4.6c-2,0.4-3.7-0.7-4.4-3.1c-0.2-0.8-0.4-1.7-0.6-2.6
		c-7.3,1.3-14.7,1.1-21.8,2.9c0.2,3.2-0.9,5.1-3.1,5.5c-1.9,0.4-3.2-1-4.4-4.8c-1.5,0.2-3,0.4-4.6,0.7C83,122.2,83,124.5,83,126.9z"
		/>
	<path class="st0" d="M96.5,61.7c-0.3-0.8-0.6-1.6-1-2.7c-5,3.3-10.8,3.6-16.4,4.7c-0.2,2.8,0.9,8.7,1.9,10.7
		C88,72.5,92.8,67.9,96.5,61.7z"/>
	<path class="st0" d="M58,59.5c-0.9,2-0.9,3.9,0.8,5.7c0.6,0.6,1,1.4,1.6,2.1c2.3,2.6,4.6,5,8.4,5.9c1-3.3,1.9-6.6,2.9-9.7
		C67,62.1,62.5,60.8,58,59.5z"/>
	<path d="M45.5,101.7c-2,0-3.8-0.1-5.6,0c-1.4,0.1-2.8,0.3-4.2,0.6c-1.5,0.3-2.1,0.2-2.6-1.3c-0.3-0.9-0.6-1.9-0.5-2.8
		c0.4-3.6,2.5-5,6.2-4.4c1.3,0.2,2.6,0.7,4,0.9c1.7,0.3,1.9,0.3,2.5-1.4c1.4-4.2,3-8.4,4.1-12.8c1.9-7.6,3.5-15.2,5.2-22.8
		c-0.5-0.3-0.8-0.5-1.1-0.7C43,50.7,39.1,41.3,40.4,29.6c0.3-3.1,1.1-6.1,2-9.1c1.2-4.2,3.7-7.6,6.6-10.7c3.7-3.8,8-6.9,13.2-8.4
		c9.5-2.2,19.7-0.9,27.6,2.2c6,2.7,10.6,7,14,12.6c0.6,1,1.2,2.1,1.9,3.1c2.8,4.2,4,9,4.6,14c0.4,3.8,0.3,7.7-1.1,11.3
		c-1.7,4.4-4.1,8.3-8.1,11c-0.7,0.4-1.2,1-1.9,1.6c0.8,3.9,1.8,7.7,2.5,11.6c0.7,3.8,1.3,7.6,2,11.7c5.2-0.8,9.4,0,10.5,6.2
		c3.5-0.5,6.9-0.8,10.4-1.4c3.4-0.5,4.1-1.1,4.2,3.1c0.2,7.6,2,15,2.8,22.5c0.2,2.4,1.1,6.1,1.4,8.5c0.4,2.7-0.1,4-2.2,5.4
		c-13.5,1.4-26.6,2.7-39.8,4.1c-0.5,4.6-1,8.9-1.4,13.2c2.5,0.2,4.9,0.2,7.2,0.5c2.4,0.3,2.9,0.9,3.1,3.4c0.1,1.2,0.3,2.3,0.5,3.4
		c-0.4,0.2-0.6,0.4-0.8,0.4c-3.4,0.4-6.8,0.7-10.2,1c-3.1,0.3-3.4,0.1-3.2-3.1c0.2-3.7,0.8-7.3,1.2-10.9c0.3-2.4,0.5-4.7,0.7-7.4
		c-2.4,0.4-4.6,0.7-6.9,1c-1.8-1.9-0.1-4.8-1.5-7.1c-2.9,0.3-5.9,0.9-8.9,0.9c-3,0-6-0.6-9.1-0.9c0.1,2.5,0.2,4.9,0.2,7.2
		c0.1,4.9,0.3,9.7,0.3,14.6c0,2.9-0.8,3.6-3.7,3.8c-3.7,0.2-7.3,0.5-10.8,1.6c-1.5,0.5-1.9,0.2-2.4-1.3c-0.3-0.8-0.5-1.5-0.7-2.3
		c-0.6-2.2,0.2-3.3,2.5-3.6c1.8-0.2,3.7-0.2,5.5-0.6c2.2-0.4,4.3-1,6.6-1.6c-0.3-5.9,0.4-12.1-0.5-18.2c-0.4-0.2-0.7-0.4-1.1-0.4
		c-4.5-1-7.5-2.5-10.8-4.7c-1.2-0.8-1.6-2-1.4-3.3c0.3-2.5,0.6-5.1,1-7.6c0.5-3,2.4-13.2,2.8-15.3C48.4,93.2,46.3,100.9,45.5,101.7z
		 M76.8,60.7c9.3-0.5,18-2.7,24.8-9.4c3.2-3.1,5.5-6.9,6.2-11.4c0.9-5.7,0.3-11.3-2.2-16.6c-2.5-5.3-5.8-10-10.6-13.7
		c-3.5-2.7-7.4-4.4-11.5-5.8c-3.9-1.3-18.6-1.1-21-0.3c-4.8,1.7-8.6,4.9-12,8.4c-2.7,2.7-4.9,5.9-6,9.6c-0.6,2-1.2,4-1.4,6
		c-0.4,3.3-1,6.8-0.5,10c1.3,8.5,6,14.6,13.9,18.2C63,58.7,69.6,60.9,76.8,60.7z M91.9,89.9c-0.7-3.3-0.1-4.8,2.3-6.4
		c0.5-0.3,1-0.5,1.5-0.8c1.4-0.6,2.7-1.2,4.1-1.8c-0.8-4.2-1.5-8.3-2.3-12.7c-0.6,0.7-1,1.1-1.4,1.6c-3.2,3.9-7.5,6.1-12.2,7.5
		c-3.3,1-4.4,0.5-5.8-2.6c-0.4-0.8-0.5-1.7-0.6-2.5c-0.4-2.5-0.7-5-1-7.4c-0.2,0-0.4-0.1-0.5-0.1c-0.2,0.7-0.5,1.4-0.7,2.1
		c-0.9,2.6-1.8,5.3-2.8,7.9c-0.8,2.1-1.6,2.3-3.7,1.4c-0.7-0.3-1.4-0.7-2.2-1c-2.3-1-4.4-2.2-5.9-4.3c-1.1-1.4-2.3-2.7-3.6-4.2
		c-3.7,16.5-6.3,32.8-8.8,49.1c2.9,1.9,12.4,4.3,14.1,4.6c5.7,1.1,11.4,0.9,17.1-0.1c0.1,0,0.2-0.2,0.4-0.5
		c-0.3-2.5-0.5-5.1-0.8-7.7c-0.3-2.7-0.6-5.4-0.9-8.1c-0.4-3.3-0.8-6.6-1.1-10c-0.2-1.7,0.2-2.1,1.8-2.5c0.5-0.1,0.9-0.2,1.4-0.2
		c3.4-0.4,6.8-0.7,10.2-1.1C90.9,90.2,91.4,90,91.9,89.9z M82.3,116.7c15.6-1.9,30.9-3.7,46.4-5.6c-1-7.8-1.9-15.3-2.8-22.7
		c-3,0.3-6,0.4-9,0.8c-6.5,0.9-12.9,2-19.4,2.9c-4.3,0.6-8.5,1.2-12.8,1.7c-1.7,0.2-3.4,0.2-5.5,0.4
		C80.3,101.9,81.3,109.2,82.3,116.7z M83,126.9c15.9-1.7,31.5-3.4,47.3-5.1c-0.2-2.6-0.4-5.1-0.6-7.6c-1.1,0.2-1.9,0.3-2.7,0.4
		c-0.8,0.1-1.5,0.3-2.3,0.4c0.1,0.6,0.3,1.1,0.3,1.6c0.1,2-1.4,4.3-3.1,4.6c-2,0.4-3.7-0.7-4.4-3.1c-0.2-0.8-0.4-1.7-0.6-2.6
		c-7.3,1.3-14.7,1.1-21.8,2.9c0.2,3.2-0.9,5.1-3.1,5.5c-1.9,0.4-3.2-1-4.4-4.8c-1.5,0.2-3,0.4-4.6,0.7C83,122.2,83,124.5,83,126.9z
		 M96.5,61.7c-0.3-0.8-0.6-1.6-1-2.7c-5,3.3-10.8,3.6-16.4,4.7c-0.2,2.8,0.9,8.7,1.9,10.7C88,72.5,92.8,67.9,96.5,61.7z M58,59.5
		c-0.9,2-0.9,3.9,0.8,5.7c0.6,0.6,1,1.4,1.6,2.1c2.3,2.6,4.6,5,8.4,5.9c1-3.3,1.9-6.6,2.9-9.7C67,62.1,62.5,60.8,58,59.5z
		 M97.5,85.3c-1.1,0.6-1.9,1-2.5,1.5c-0.4,0.4-0.6,1.1-0.6,1.6c0.1,0.7,0.7,0.9,1.5,0.8c1.9-0.3,3.8-0.6,5.7-0.9
		C99.5,88.5,98.1,87.8,97.5,85.3z M111.7,86.8c-1.5-3.1-2-3.4-4.7-3c1.9,1.9,0.5,2.7-0.9,3.8C107.9,87.3,109.6,87.1,111.7,86.8z
		 M120.7,118.5c1.3,0,2.8-1.3,1.5-3.3c-0.6,0.1-1.8,0.2-2.5,0.3C119.7,116.5,119.3,118.5,120.7,118.5z M92.5,118.8
		c-0.6,0.1-1.3,0.1-2.4,0.3c0.5,0.8-0.2,2.5,1.4,2.5S92.6,119,92.5,118.8z"/>
	<path d="M86.6,41.9c-0.1,1.2-1.3,2.1-2.6,1.9c-1.4-0.2-2.1-1.2-1.9-2.8c0.1-1.1,1.2-2,2.4-1.8C85.8,39.3,86.8,40.6,86.6,41.9z"/>
	<path d="M69.9,40.6c0,1.3-0.7,2.4-1.7,2.4c-1.2,0-2.4-1.3-2.4-2.8c0-1.2,0.9-2.2,2-2.3C69.2,37.8,69.7,39.3,69.9,40.6z"/>
	<path d="M80.9,69.8c0-1.1,1-2.4,1.9-2.4c1,0,2.3,1.4,2.3,2.4c0,1.1-1.3,2.8-2.2,2.8C81.9,72.6,80.9,71.2,80.9,69.8z"/>
	<path d="M68.7,69.9c-0.5,0.2-0.9,0.4-1.5,0.6c-0.3,0.1-0.6,0.2-0.9,0.2c-1.5-1.5-1.7-2.1-1-3.2c0.5-0.7,1.1-1.1,2-0.7
		C68.7,67.3,69,68,68.7,69.9z"/>
	<path class="st0" d="M97.5,85.3c-1.1,0.6-1.9,1-2.5,1.5c-0.4,0.4-0.6,1.1-0.6,1.6c0.1,0.7,0.7,0.9,1.5,0.8c1.9-0.3,3.8-0.6,5.7-0.9
		C99.5,88.5,98.1,87.8,97.5,85.3z"/>
	<path class="st0" d="M91.9,89.9c-0.7-3.3-0.1-4.8,2.3-6.4c0.5-0.3,1-0.5,1.5-0.8c1.4-0.6,2.7-1.2,4.1-1.8
		c-0.8-4.2-1.5-8.3-2.3-12.7c-0.6,0.7-1,1.1-1.4,1.6c-3.2,3.9-7.5,6.1-12.2,7.5c-3.3,1-4.4,0.5-5.8-2.6c-0.4-0.8-0.5-1.7-0.6-2.5
		c-0.4-2.5-0.7-5-1-7.4c-0.2,0-0.4-0.1-0.5-0.1c-0.2,0.7-0.5,1.4-0.7,2.1c-0.9,2.6-1.8,5.3-2.8,7.9c-0.8,2.1-1.6,2.3-3.7,1.4
		c-0.7-0.3-1.4-0.7-2.2-1c-2.3-1-4.4-2.2-5.9-4.3c-1.1-1.4-2.3-2.7-3.6-4.2c-3.7,16.5-6.3,32.8-8.8,49.1c2.9,1.9,12.4,4.3,14.1,4.6
		c5.7,1.1,11.4,0.9,17.1-0.1c0.1,0,0.2-0.2,0.4-0.5c-0.3-2.5-0.5-5.1-0.8-7.7c-0.3-2.7-0.6-5.4-0.9-8.1c-0.4-3.3-0.8-6.6-1.1-10
		c-0.2-1.7,0.2-2.1,1.8-2.5c0.5-0.1,0.9-0.2,1.4-0.2c3.4-0.4,6.8-0.7,10.2-1.1C90.9,90.2,91.4,90,91.9,89.9z"/>
	<path class="st2" d="M120.7,118.5c1.3,0,2.8-1.3,1.5-3.3c-0.6,0.1-1.8,0.2-2.5,0.3C119.7,116.5,119.3,118.5,120.7,118.5z"/>
	<path class="st2" d="M92.5,118.8c-0.6,0.1-1.3,0.1-2.4,0.3c0.5,0.8-0.2,2.5,1.4,2.5S92.6,119,92.5,118.8z"/>
</g>
</svg>
