<?xml version="1.0" encoding="utf-8"?>
<!-- Generator: Adobe Illustrator 19.1.0, SVG Export Plug-In . SVG Version: 6.00 Build 0)  -->
<svg version="1.1" id="Calque_1" xmlns="http://www.w3.org/2000/svg" xmlns:xlink="http://www.w3.org/1999/xlink" x="0px" y="0px"
	 viewBox="0 0 148.9 151.5" style="enable-background:new 0 0 148.9 151.5;" xml:space="preserve">
<style type="text/css">
	.st0{fill:#E01220;}
	.st1{fill:#1F7CAD;}
	.st2{fill:#C0BFBF;}
	.st3{fill:#1F7CAD;stroke:#000000;stroke-width:2;stroke-miterlimit:10;}
	.st4{fill:#6DA3C3;}
	.st5{fill:none;stroke:#E01220;stroke-width:3;stroke-miterlimit:10;}
	.st6{fill:#F5FBF9;}
	.st7{fill:#1D1D1B;}
	.st8{fill:#010202;}
</style>
<g>
	<path class="st0" d="M68,82.3c-0.7-1-1.3-1.8-1.9-2.6c-0.2-0.2-0.3-0.6-0.5-1.1C68.1,78.5,68.1,78.6,68,82.3z"/>
	<path class="st0" d="M64.8,84.8c-5.7,6.3-13.1,10.6-20,15.8c-0.9-1.1-0.4-2.2-0.1-3.2c2.7-8.3,5-16.8,8.4-24.9
		c1.4-3.2,2.3-6.6,3.5-9.9c0.3-0.7,0.7-1.4,0.9-1.9c2.2-0.6,4.2-1.1,6.4-1.7c0.3,0.7,0.8,1.5,1,2.3c0.8,4.4,1.5,8.7,2.2,13.1
		c-2.9,0.9-5.9,0.1-8.5,1.4C58.5,78.1,63.6,83.2,64.8,84.8z"/>
	<path class="st1" d="M44.2,89.5c-1.7-9.1-3.4-18.1-5.2-28.1c5,0,10,0,15.1,0C50.8,70.4,47.4,80.3,44.2,89.5z"/>
	<path class="st0" d="M28.2,57.8c2,0.7,3.9,1.3,5.6,2c1.8,0.8,3.3,2.1,3.4,4.1c0.4,5.3,1.7,10.5,2.8,15.8c0.8,3.8,1.9,14.6,1.4,17.6
		c-2.5-1-13.3-10.9-15.4-14.2c0.8-1,1.7-2,2.6-3.1c0.6-0.7,1.4-1.4,1.8-2.2c0.3-0.6,0.3-1.5,0-2.2c-0.1-0.3-1.1-0.4-1.6-0.3
		c-1.3,0.2-2.6,0.7-3.9,1c-1,0.2-2,0.5-3.5,0.8C23.7,70.3,25.2,63.8,28.2,57.8z"/>
	<path class="st0" d="M69.2,88.9c0.8,5.6,1.5,11.2,2.3,16.8c0.3,2,0.4,4,0.6,5.9c0.1,1.3-0.4,2.4-1.5,3c-1.8,1-3.6,2-5.6,2.7
		c-5.4,1.8-11,3-16.6,3c-3.9,0-7.8-0.6-11.6-1c-4-0.5-7.9-1.2-11.8-1.8c-4-0.5-8.7-2.4-12.2-5.2c1.5-5.4,2.8-10.8,4.4-16.1
		c1.6-5.3,1.9-11,4-16.2c1.4-0.2,2.6-0.4,4.1-0.7c-0.4,0.7-0.7,1.2-1.1,1.6c-1.3,1.6-1.5,2.1-0.2,3.5c2.5,2.8,5,5.6,7.7,8.2
		c2.5,2.4,5.2,4.5,7.7,6.8c0.9,0.8,1.5,2,2.1,3.1c0.4,0.7,0.8,1.5,1.2,2.2c4-0.9,15.6-9.5,26.1-19.3C68.8,86.6,69,87.8,69.2,88.9z"
		/>
	<path class="st1" d="M103.8,86.4c-1.1-1.5-2.5-2.8-4-4.4c0.4-0.8,1.1-2,1.7-3.1c3.3-5.7,6.6-11.3,9.8-17c0.3-0.5,0.6-1,0.9-1.4
		c1.3-1.7,2-2,4.1-1.4c3.3,0.8,5.4,2.5,7.6,6.3c-5.7,8.7-11.4,17.3-17,26C105.8,89.7,105,87.9,103.8,86.4z"/>
	<path class="st0" d="M130.2,106.9c-3.6-1.5-8-0.3-11.8-2.9c1.9-3.1,3.8-6,5.5-8.9c3.5-5.7,6.9-11.5,10.3-17.3
		c1.2-2.1,1.2-2.1,3.5-1.4c1.4,0.4,2.7,0.9,4.1,1.3c1.3,0.4,2.6,0.7,4.1,1.1C140.6,88.3,135.5,97.5,130.2,106.9z"/>
	<path d="M146.4,75.8c-2.9-0.8-5.9-1.6-8.8-2.4c-2.5-0.7-4.7-2.1-6.5-3.9c-2.1-2.2-4.1-4.5-6-6.9c-2.3-3.1-5-5.5-8.9-6.5
		c-2-0.5-3.8-0.3-5,1.6c-0.6,0.9-1.3,1.8-1.9,2.8c-2.5,4-4.9,8-7.4,12c-1.8,2.8-7.4,11.7-7.7,12.1c-1.9-1-3.3-3-6-1.4
		c-1.7-1.7-3.3-3-4.7-4.7c-3.2-3.9-6.2-7.9-9.2-11.9c-1.5-2-2.7-4.1-4.2-6.1c-0.8-1.2-1.8-2.4-2.7-3.5c1.5-1.3,3-2.4,4.1-3.7
		c4.9-5.9,9-12.2,8.2-20.5c-0.4-3.7-1.1-7.3-2.7-10.6c-1.7-3.5-3.9-7.5-6.5-10.4c-3.3-4-7.2-6.7-11.8-9.5C50.9-2,30.4-2,21.3,7
		c-3.8,3.9-6.7,8.5-8.8,13.6c-2.3,5.8-3.5,11.7-1.9,18c1,4,2.7,7.7,5.7,10.6c2.6,2.4,5.2,4.6,8,7.1C24,57.6,23.5,59.3,23,61
		c-0.5,1.7-1.2,3.3-1.7,5C19.1,73,17,80.2,14.9,87.2c-0.4,1.3-1.2,2.5-1.8,3.7C8.7,90.5,1.8,90,0.9,90.7s-0.8,2.5-1,3.6
		c-0.4,2.3,0.4,3.4,2.6,4c1.8,0.5,3.5,1.2,5.3,1.3c2,0.2,4.3,0.7,5.7-1.8c0,0.7-0.1,1.3-0.3,1.8c-1.1,3.7-2.2,7.4-3.3,11
		c-0.5,1.5-0.1,2.7,1,3.6c0.5,0.5,1.1,0.9,1.7,1.3c3.9,2.4,7.9,4.4,12.5,5.2c-0.1,6.3-0.2,12.5-0.3,18.8c-0.6,0.1-1,0.1-1.4,0.1
		c-4.4,0.3-8.7,0.6-13.1,1c-3,0.3-2.6,1.6-1.7,3.4c0.6,1.2,1.5,2.2,2.3,3.3c0.4,0,0.8,0.1,1.2,0.1c4.4-0.3,8.9-0.7,13.3-1
		c1.1-0.1,1.7-0.7,1.8-1.9c0.1-0.6,0.1-1.3,0.1-1.9c0.1-6.4,0.2-12.8,0.3-19.2c0-0.8,0.2-1.5,0.3-2.3c8.1,1,16,2.4,24.1,2.1
		c-0.3,2.5-0.6,4.8-1,7c-0.5,2.7-1.1,5.5-1.6,8.2c-0.6,2.8-1.1,5.6-1.6,8.5c-0.4,2.6,0.4,3.5,3,3.7c0.2,0,0.5,0,0.7,0
		c4.1,0.1,8.3,0.2,12.6,0.2c0.9-2,0.7-4.2,0.5-6.4c-0.1-1.1-1-1.6-2.3-1.7c-2.9-0.1-5.7-0.5-8.6-0.8c-0.7-0.1-1.3-0.4-2-0.6
		c1-6.3,2-12.4,3-18.1c5.6-1.6,11-3.2,16.3-4.8c3.9-1.4,4.2-4.8,3.8-7.3c-0.5-3.4-0.8-6.8-1.3-10.2c-0.7-5-1.5-9.9-2.2-14.9
		c-0.7-4.8-1.3-9.6-1.9-14.4c-0.1-0.5-0.2-0.9-0.3-1.4c-0.1-1-0.1-1.9-0.3-2.9c-0.2-0.9-0.5-1.7-0.3-2.7c3.3,4.9,5.8,10,9.9,14
		c4.1,3.9,8.2,7.7,12.2,11.6c-1.1,1.6-2.3,3.3-3.4,5c-2.1,3.1-4.1,6.3-6.1,9.4c-0.4,0.7-0.7,1.4-0.9,2.2c-0.2,0.9,0.3,1.6,1.1,1.9
		c0.8,0.3,1.1-0.3,1.5-0.9c2.1-3.4,4.2-6.7,6.4-10.1c1.4-2.1,2.8-4.2,4.2-6.2c1.1,0.6,1.9,1.3,2.6,1.3c0.8-0.1,4-2.1,3.9-3
		s-1.8-2.6-2.2-3.3s-0.1-1.1,0.3-1.7c0.2,0.1,6,6.3,7,8.3c1.6,3,3.1,5.9,5.6,8.3c2.7,2.5,5.7,4.6,8,5.3c2.3,0.7,9.3,1.6,11.6,2.7
		c0.9,0.5,1.7,0,2.3-0.7c0.5-0.5,0.8-1.2,1.1-1.8c2-3.9,3.5-7.3,5.6-11.1c2.9-5.4,5.9-10.8,8.7-16.2
		C149.4,77.5,148.8,76.4,146.4,75.8z M68,82.3c-0.7-1-1.3-1.8-1.9-2.6c-0.2-0.2-0.3-0.6-0.5-1.1C68.1,78.5,68.1,78.6,68,82.3z
		 M64.8,84.8c-5.7,6.3-13.1,10.6-20,15.8c-0.9-1.1-0.4-2.2-0.1-3.2c2.7-8.3,5-16.8,8.4-24.9c1.4-3.2,2.3-6.6,3.5-9.9
		c0.3-0.7,0.7-1.4,0.9-1.9c2.2-0.6,4.2-1.1,6.4-1.7c0.3,0.7,0.8,1.5,1,2.3c0.8,4.4,1.5,8.7,2.2,13.1c-2.9,0.9-5.9,0.1-8.5,1.4
		C58.5,78.1,63.6,83.2,64.8,84.8z M44.2,89C42.5,79.9,40.8,71,39,61c5,0,10,0,15.1,0C50.8,70,47.4,79.8,44.2,89z M18.7,48
		c-5.2-5.2-7.3-11.5-6-18.8c1.6-8.4,6.5-16.5,11.9-21.4c5.4-4.9,20-8.6,30.1-4.4C72.1,10.5,77,28.1,77.3,32.1
		c0.5,5.3-1.2,9.9-4,14.2c-2.7,4.3-6.2,7.7-10.9,9.6c-1.8,0.7-3.6,1.3-5.5,1.5c-3.8,0.4-7.6,0.5-12.3,0.8c-1.8-0.1-4.4-0.2-7-0.6
		c-4.6-0.6-8.8-2.4-12.6-4.9C22.8,51.4,20.6,49.8,18.7,48z M28.2,57.8c2,0.7,3.9,1.3,5.6,2c1.8,0.8,3.3,2.1,3.4,4.1
		c0.4,5.3,1.7,10.5,2.8,15.8c0.8,3.8,1.9,14.6,1.4,17.6c-2.5-1-13.3-10.9-15.4-14.2c0.8-1,1.7-2,2.6-3.1c0.6-0.7,1.4-1.4,1.8-2.2
		c0.3-0.6,0.3-1.5,0-2.2c-0.1-0.3-1.1-0.4-1.6-0.3c-1.3,0.2-2.6,0.7-3.9,1c-1,0.2-2,0.5-3.5,0.8C23.7,70.3,25.2,63.8,28.2,57.8z
		 M69.2,88.9c0.8,5.6,1.5,11.2,2.3,16.8c0.3,2,0.4,4,0.6,5.9c0.1,1.3-0.4,2.4-1.5,3c-1.8,1-3.6,2-5.6,2.7c-5.4,1.8-11,3-16.6,3
		c-3.9,0-7.8-0.6-11.6-1c-4-0.5-7.9-1.2-11.8-1.8c-4-0.5-8.7-2.4-12.2-5.2c1.5-5.4,2.8-10.8,4.4-16.1c1.6-5.3,1.9-11,4-16.2
		c1.4-0.2,2.6-0.4,4.1-0.7c-0.4,0.7-0.7,1.2-1.1,1.6c-1.3,1.6-1.5,2.1-0.2,3.5c2.5,2.8,5,5.6,7.7,8.2c2.5,2.4,5.2,4.5,7.7,6.8
		c0.9,0.8,1.5,2,2.1,3.1c0.4,0.7,0.8,1.5,1.2,2.2c4-0.9,15.6-9.5,26.1-19.3C68.8,86.6,69,87.8,69.2,88.9z M103.8,86.4
		c-1.1-1.5-2.5-2.8-4-4.4c0.4-0.8,1.1-2,1.7-3.1c3.3-5.7,6.6-11.3,9.8-17c0.3-0.5,0.6-1,0.9-1.4c1.3-1.7,2-2,4.1-1.4
		c3.3,0.8,5.4,2.5,7.6,6.3c-5.7,8.7-11.4,17.3-17,26C105.8,89.7,105,87.9,103.8,86.4z M108.3,94.6c5.7-8.9,11.5-17.8,17.2-26.7
		c2.6,2.3,4.9,4.5,7.5,6.8c-5.6,9.1-11.3,18.2-17,27.4C112.7,100.4,110.5,97.8,108.3,94.6z M130.2,106.9c-3.6-1.5-8-0.3-11.8-2.9
		c1.9-3.1,3.8-6,5.5-8.9c3.5-5.7,6.9-11.5,10.3-17.3c1.2-2.1,1.2-2.1,3.5-1.4c1.4,0.4,2.7,0.9,4.1,1.3c1.3,0.4,2.6,0.7,4.1,1.1
		C140.6,88.3,135.5,97.5,130.2,106.9z"/>
	<path d="M55.4,38.8c1.2,0.1,2.3,1.2,2.3,2.3c0,2-1.8,2.7-2.7,2.7c-1.1,0-2.2-1.5-2.2-2.8C52.9,39.7,54,38.7,55.4,38.8z"/>
	<path d="M38.6,36.6c1.2,0.1,2.4,1.4,2.4,2.6c-0.1,1-0.4,2.2-2.4,2.2c-1.4,0-2.4-1.6-2.4-2.6C36.2,37.8,37.6,36.5,38.6,36.6z"/>
	<path d="M44.7,111c0,1.4-1.1,2.6-2.3,2.6c-1-0.1-2-1.4-2.1-2.6c0-1.3,1.2-2.6,2.3-2.5C43.7,108.5,44.7,109.8,44.7,111z"/>
</g>
</svg>
