<?xml version="1.0" encoding="utf-8"?>
<!-- Generator: Adobe Illustrator 19.1.0, SVG Export Plug-In . SVG Version: 6.00 Build 0)  -->
<svg version="1.1" id="Calque_1" xmlns="http://www.w3.org/2000/svg" xmlns:xlink="http://www.w3.org/1999/xlink" x="0px" y="0px"
	 viewBox="0 0 148.9 190.6" style="enable-background:new 0 0 148.9 190.6;" xml:space="preserve">
<style type="text/css">
	.st0{fill:#E01220;}
	.st1{fill:#1F7CAD;}
	.st2{fill:#C0BFBF;}
	.st3{fill:#1F7CAD;stroke:#000000;stroke-width:2;stroke-miterlimit:10;}
	.st4{fill:#6DA3C3;}
	.st5{fill:none;stroke:#E01220;stroke-width:3;stroke-miterlimit:10;}
	.st6{fill:#F5FBF9;}
	.st7{fill:#1D1D1B;}
	.st8{fill:#010202;}
</style>
<g>
	<path d="M40.2,183c5.3-1.1,10.4-2.1,15.4-3.1c0-6.4,0-12.6,0-18.9c-1-0.3-1.8-0.5-2.7-0.7c-4.2-1-7.9-3-11.1-5.8
		c-0.5-0.5-0.8-1.6-0.7-2.4c0.4-2.8,1-5.6,1.6-8.5c0.4-2.2,1-4.3,1.1-6.6c-0.1,0.1-0.3,0.3-0.3,0.4c-0.2,3.2-2.5,3.7-5.1,3.9
		c-2.8,0.2-5.5-0.3-8.3,0.4c-1,0.2-1.5-0.7-1.8-1.6c-1-2.7-1.2-5.3,1-7.7c4.1-0.5,8.3-0.8,12.8,0.2c3.6-12.5,6.2-25.2,9.3-37.7
		c-4.3-1.4-13.1-7.6-15.2-17.9c-0.7-3.7-0.6-6.9-0.1-9.5c0.5-2.6,0.9-5.2,1.6-7.7c1.9-6.7,5.8-11.8,12-15.1c3.8-2,7.6-4,11.8-5.2
		c0.7-0.2,1.5-0.6,2-1.2c2.9-2.9,6.7-4.7,9.9-7.3c3.2-2.5,6.7-4.7,10-7.1c7.5-5.5,14.9-11,22.3-16.6c3.6-2.6,7.1-5.3,10.7-7.9
		c0.8-0.6,1.4-0.2,1.8,0.4c0.9,1.1,1.7,2.3,2.5,3.5c2.2,3.3,4.5,6.6,6.5,10c2.2,3.8,4.1,7.8,6.3,11.6c2.4,4.2,4.7,8.5,8,12.2
		c0.7,0.8,0.5,1.4-0.2,2c-1.2,1.1-2.3,2.2-3.6,3.2c-4.1,3.3-8.3,6.5-12.4,9.8c-1.2,1-2.5,2-3.9,3.1c1.3,4.8,4.4,8.6,7.1,12.5
		c1.9-0.5,3-0.2,4,1.1c1,1.4,0.9,2.3-0.6,4.3c1.1,1.9,2.2,3.7,3.3,5.5c-4.6,5.5-6,5.5-10.2,0.1c-3.2,0.5-5.1,3.1-7.3,5
		c-4.8,3.9-10,7.1-15.5,9.9c-1.9,1-4.1,1.6-6.4,2.4c0.2,1.1,0.4,2.2,0.5,3.3c0.5,4.3,0.7,8.6,1.5,12.8c1.4,7.4,3.2,14.8,4.9,22.2
		c0.8,3.6,1.9,7.3,2.9,10.8c0.7,2.3,0.1,4.3-1.1,6.3c-1.5,2.5-3.6,4.1-6.3,5.1c-3.7,1.4-7.4,2.9-11.3,4.5
		c-0.8,5.9-1.6,12.2-2.4,18.6c0.5,0.1,0.9,0.2,1.3,0.2c3.2-0.2,6.4-0.3,9.5-0.6c2.3-0.2,3.9,1.1,3.8,3.4c0,0.6,0,6.1-3,6.1
		s-7.5,0.3-11,0.8c-1.6,0.3-3.1-0.8-3.2-2.7c-0.1-3.6-0.1-7.2,0.3-10.7c0.4-4.5,1.3-9,1.9-13.5c0-0.3-0.1-0.6-0.1-1
		c-8.6,1.2-17.2,1.2-26-0.5c0,1.2,0,2.2,0,3.1c0.1,4,0.2,8,0.3,11.9c0.1,2.3,0.2,4.6,0.2,6.9c0,2.5-0.4,3-2.9,3.6
		c-1.9,0.5-3.7,0.9-5.6,1.3c-2.4,0.6-4.8,1.3-7.2,1.8c-0.5,0.1-1.5-0.3-1.5-0.6c-0.3-2-1.7-3.8-1.3-5.9
		C40.1,183.3,40.2,183.1,40.2,183z M104,73.3c-0.1-5.6-1.4-10.8-4.7-15.5c-2.9-4.3-6.6-7.6-10.9-10.2C84.3,45,79.7,43.3,75,42
		c-4.8-1.3-9.7-1.1-14.3,0.7c-4.1,1.6-10.9,4.1-14.9,8.3s-7.3,12.7-7.5,18.7s1.2,14.7,8.3,19.5c4.8,2.9,9.8,5.6,16,7
		s20.8,0.2,25.4-0.9c5.6-1.3,10.6-3.6,12.8-9.6c0-0.1,0.1-0.1,0.1-0.2C103,81.8,104.2,77.7,104,73.3z M53.9,100
		c-0.9,4.2-1.7,8.1-2.5,11.9c-1,5-2.2,10-2.9,15c-1,6.9-2,13.9-3.8,20.7c-0.3,1.1-0.4,2.2-0.6,3.3c-0.3,1.7,0.2,3,1.8,3.7
		c2,0.9,4,2,6.1,2.6c6.5,1.8,13.2,2.9,20,2.8c9.3-0.1,18-2.4,26.2-6.5c0.4-0.2,5.5-4.1,4.9-6.2c-1.9-7.2-4.3-16.5-6.1-23.7
		c-1.6-6.4-2.8-12.8-2.9-19.4c0-1.1-0.3-2.1-0.5-3.2c-2.2,0.6-4.2,1.5-6.2,1.6c-4.8,0.3-9.6,0.3-14.4,0.3c-1.9,0-3.8-0.2-5.7-0.4
		c-3.3-0.4-6.7-0.3-9.9-1.4C56.4,100.8,55.2,100.4,53.9,100z M117.4,2.5c-2.7,2-5.3,3.8-7.9,5.7c-7.5,5.5-15,11.1-22.5,16.6
		c-4.4,3.2-8.8,6.3-13.2,9.5c-1.1,0.8-2,1.6-3.3,2.7c8,1.2,14.8,3.8,21,8.3c6.4,4.6,10.6,10.7,13.9,17.6c5.8-4,11.5-7.8,17-11.9
		c5.6-4.1,11.1-8.2,16.1-13.1c-0.7-1.2-1.3-2.1-1.8-3.1c-3.2-5.5-6.4-11-9.6-16.6c-2.1-3.7-4.2-7.3-6.4-10.9
		C119.8,5.8,118.7,4.2,117.4,2.5z M105.7,66.6c0.2,2.1,0.6,4,0.6,5.9c0.1,2.5,0.3,4.5-0.5,7.6c-0.8,3.1-3.7,9.6-4.1,10.6
		c0.1,0.1,0.2,0.2,0.4,0.3c3.8-2.5,7.7-4.8,11.4-7.4c2.3-1.6,4.2-3.6,6.3-5.5c0.4-0.3,0.9-1,0.8-1.4c-0.4-1.6-0.6-3.1-0.1-4.7
		c0.1-0.3-0.4-0.8-0.6-1.2c-1-1.7-1.9-3.3-2.9-5c-1.1-1.7-2.2-3.4-3.5-5.4C110.8,62.6,108.3,64.6,105.7,66.6z M125.7,68.8
		c-1.9-3-3.6-5.6-5.3-8.4c-0.9,0.7-1.6,1.3-2.5,2c1.7,2.8,3.3,5.5,5,8.3C124,70,124.8,69.5,125.7,68.8z M127,76.9
		c1.1,1.4,2,2.7,3.1,4.1c0.7-1,1.2-1.6,1.8-2.4c-0.8-1.2-1.6-2.3-2.4-3.4C128.6,75.8,127.9,76.3,127,76.9z"/>
	<path d="M80.2,82.6c-1.5,0-2.6-1.2-2.6-2.7c0-1.3,1.2-2.4,2.4-2.5c1.4,0,2.8,1.7,2.7,3.4C82.7,81.9,81.8,82.6,80.2,82.6z"/>
	<path d="M66.2,79.9c-0.1,1.4-1,2.2-2.3,2.1c-1.2-0.1-2.2-1.5-2.2-3c0-1.1,1.1-2.1,2.2-2C65,77.1,66.3,78.7,66.2,79.9z"/>
	<path class="st0" d="M53.9,100c-0.9,4.2-1.7,8.1-2.5,11.9c-1,5-2.2,10-2.9,15c-1,6.9-2,13.9-3.8,20.7c-0.3,1.1-0.4,2.2-0.6,3.3
		c-0.3,1.7,0.2,3,1.8,3.7c2,0.9,4,2,6.1,2.6c6.5,1.8,13.2,2.9,20,2.8c9.3-0.1,18-2.4,26.2-6.5c0.4-0.2,5.5-4.1,4.9-6.2
		c-1.9-7.2-4.3-16.5-6.1-23.7c-1.6-6.4-2.8-12.8-2.9-19.4c0-1.1-0.3-2.1-0.5-3.2c-2.2,0.6-4.2,1.5-6.2,1.6
		c-4.8,0.3-9.6,0.3-14.4,0.3c-1.9,0-3.8-0.2-5.7-0.4c-3.3-0.4-6.7-0.3-9.9-1.4C56.4,100.8,55.2,100.4,53.9,100z"/>
	<path class="st1" d="M117.4,2.5c-2.7,2-5.3,3.8-7.9,5.7c-7.5,5.5-15,11.1-22.5,16.6c-4.4,3.2-8.8,6.3-13.2,9.5
		c-1.1,0.8-2,1.6-3.3,2.7c8,1.2,14.8,3.8,21,8.3c6.4,4.6,10.6,10.7,13.9,17.6c5.8-4,11.5-7.8,17-11.9c5.6-4.1,11.1-8.2,16.1-13.1
		c-0.7-1.2-1.3-2.1-1.8-3.1c-3.2-5.5-6.4-11-9.6-16.6c-2.1-3.7-4.2-7.3-6.4-10.9C119.8,5.8,118.7,4.2,117.4,2.5z"/>
</g>
</svg>
