<?xml version="1.0" encoding="utf-8"?>
<!-- Generator: Adobe Illustrator 19.1.0, SVG Export Plug-In . SVG Version: 6.00 Build 0)  -->
<svg version="1.1" id="Calque_1" xmlns="http://www.w3.org/2000/svg" xmlns:xlink="http://www.w3.org/1999/xlink" x="0px" y="0px"
	 viewBox="0 0 469.6 476.1" style="enable-background:new 0 0 469.6 476.1;" xml:space="preserve">
<style type="text/css">
	.st0{fill:#E01220;}
	.st1{fill:#1F7CAD;}
	.st2{fill:#C0BFBF;}
	.st3{fill:#1F7CAD;stroke:#000000;stroke-width:2;stroke-miterlimit:10;}
	.st4{fill:#6DA3C3;}
	.st5{fill:none;stroke:#E01220;stroke-width:3;stroke-miterlimit:10;}
	.st6{fill:#F5FBF9;}
	.st7{fill:#1D1D1B;}
</style>
<g>
	<path d="M49.7,2.1C54.7,2,70.4,2,73.3,2c6,0,12-0.2,18-0.2c4.7,0,29.3,0,36.8-0.3c3.3-0.1,6.7-0.3,10-0.3c8.4,0,16.9,0.1,25.3,0.2
		c9.5,0.1,19.1,0.4,28.6,0.6c10.1,0.2,20.2,0.4,30.4,0.4c11,0,21.9-0.3,32.9-0.4c5.4-0.1,10.8-0.2,16.2-0.4
		c11.3-0.4,22.6-0.9,33.9-1.1c6.6-0.2,13.2,0,19.8,0c17.6-0.1,35.1-0.3,52.7-0.4c2.4,0,4.9,0.3,7.3,0.3c2.5,0,5-0.3,7.5-0.3
		c13,0,26-0.2,38.9,0c9.6,0.1,19.2,0.8,28.8,1.1c2,0.1,3.9,0,5.9,0c1.6,0,2.2,0.5,2.2,2.2c-0.2,7.4-0.6,14.9-0.4,22.3
		c0.2,8.5,1,17.1,1.3,25.6c0.2,5.7,0.2,11.4,0.3,17.1c0.1,3,0.2,5.9,0.2,8.9c-0.1,10.7-0.4,21.4-0.5,32.2
		c-0.1,6.8,0.2,13.5,0.2,20.3c0,13.6,0.1,27.2-0.1,40.9c-0.1,7-0.6,14-0.7,20.9c-0.2,20.2-0.3,40.4-0.4,60.5c0,4.2-0.3,8.4-0.3,12.6
		c0,5.1,0.2,10.1,0.2,15.2c0,6.9-0.2,13.7-0.2,20.6c0.1,11.7,0.4,23.5,0.3,35.2c-0.1,7.5-1,14.9-1.4,22.4
		c-0.5,9.9-1.2,19.8-0.6,29.8c0.5,8.1-0.1,16.3-0.2,24.5c-0.1,10.8-0.1,21.6-0.5,32.4c-0.2,7.4-1,14.8-1.5,22.3
		c-0.1,1.7-1.3,2.1-2.7,2.4c-5.4,1.1-10.8,0-16.2-0.3c-6.5-0.4-13-0.7-19.5-1.1c-4.8-0.3-9.6-0.6-14.4-0.7c-3.8-0.1-7.6,0.1-11.4,0
		c-8.3-0.2-16.5-0.4-24.8-0.6c-5-0.1-9.9-0.1-14.9-0.1c-13.7,0-27.4,0.2-41.1,0.2c-8.5,0-17.1-0.6-25.6-0.5
		c-11.4,0-22.8,0.4-34.1,0.5c-5.7,0.1-50.8,1-61.8,1.6c-7.8,0.4-15.7,1.2-23.5,1.6c-8.1,0.3-16.2,0.2-24.2,0.5
		c-8.7,0.4-17.4,1.2-26.1,1.8c-3.8,0.2-7.6,0.1-11.4,0.2c-5.7,0.1-11.4,0.2-17.1,0.4c-8.7,0.2-17.3,0.5-26,0.8
		c-5.5,0.2-11,0.6-16.5,0.8c-6.6,0.3-13.1,0.6-19.7,0.9c-5.3,0.2-10.6,0.5-15.9,0.7c-3.5,0.1-9.7,0-11.4,0
		c-1.7,0.1-0.8-17.7-0.7-23.6c0.1-5.1,0.4-10.1,0.6-15.2c0.1-1.8,0.2-3.6,0.1-5.3c-0.6-27.7,0.9-55.4,0.8-83
		c-0.1-18.3-0.4-36.5-0.6-54.8c-0.1-6.3-0.1-12.6-0.2-19c-0.2-9.9-0.5-19.9-0.9-29.8c-0.3-7-0.8-13.9-1.1-20.9
		c-0.3-6.5-0.6-13-0.8-19.5c-0.2-5.1-0.2-10.3-0.4-15.4c-0.2-7.1-0.3-47.1-0.4-55.5c-0.1-8.8-0.4-17.6-0.8-26.5
		C0.8,99.6,0.3,91.4,0,83.2c-0.1-3.9,0.1-7.9,0.2-11.9c0-0.5,0.1-0.9,0.1-1.4C0.5,58.9,1.1,6.7,0.8,5.4C0.2,3.5,0.5,2.9,2.6,2.8
		C8.5,2.8,39.9,2.2,49.7,2.1z M458.9,464.3c0.1-0.2,0.2-0.5,0.2-0.8c0.4-9,0.8-18,1.2-27c0.1-3.5,0.2-6.9,0.3-10.4
		c0.1-4.4,0.1-8.9,0.2-13.3c0.2-5.2,0.5-10.3,0.6-15.5c0.1-3.9-0.2-7.7-0.3-11.6c0-0.8,0-1.6,0-2.4c-0.9-8.3,0-16.6,0.5-24.9
		c0.5-8.4,1.3-16.7,1.4-25.1c0.2-10.6-0.3-21.2-0.3-31.9c0-10.1,0.3-20.2,0.3-30.3c0.1-7.4,0-14.9,0-22.3c0-9-0.1-18.1,0.1-27.1
		c0.3-17.7,0.8-35.4,1.1-53.1c0.2-9.3,0.1-18.6,0.1-27.9c0-9.9-0.1-19.8-0.1-29.7c0-11.1,0.2-22.2,0.1-33.3c0-6.1-0.2-12.2-0.4-18.3
		c-0.2-7.8-0.5-15.6-0.7-23.4c-0.1-3-0.1-6-0.1-9.1c-0.1-6-0.3-12-0.4-18c0-1.3-0.3-2-1.7-2c-1.6,0-3.3,0.1-4.9,0
		c-5.5-0.3-11-0.9-16.6-1.1c-5.1-0.3-10.3-0.4-15.4-0.4c-10.3,0-20.7,0.2-31,0.3c-7.6,0.1-15.1,0.1-22.7,0.1c-13,0-26,0-39,0
		c-19.2,0.1-38.4-0.2-57.5,1.1c-8.4,0.6-16.8,0.4-25.1,0.5c-7.3,0-14.6-0.1-21.9-0.1c-10.1,0-20.1,0.2-30.2,0.1
		c-8.8-0.1-17.5-0.5-26.3-0.7c-1.3,0-2.1,0.4-2,2c0.2,3.1,0.2,6.3,0.3,9.4c0.4,7.4,0.8,14.9,1.3,22.3c0,0.5,0.2,1.1,0.4,1.7
		c0.5-0.2,0.8-0.3,1-0.4c4.8-4,10-7.4,16-9.5c3.3-1.1,6.7-2.6,10.1-3.2c4.7-0.8,9.5-1,14.2-1.3c5.1-0.3,10.2-0.7,15.2-0.8
		c8.5,0,16.4,2.7,24.2,5.3c6.6,2.2,11.8,6.7,16.7,11.5c4.2,4.1,8.3,8.4,12.2,12.8c2,2.2,4.2,4.5,5.1,7.2c1.6,5.1,2.4,10.4,3.4,15.7
		c0.7,3.5,0.9,7,1.5,10.5c0.7,3.5,1.7,6.9,2.4,10.3c1.1,5.2,1.8,10.4,3,15.6c0.7,3.2,2.1,6.2,3,9.3c1.5,5.3,2.1,10.7,1.6,16.3
		c-0.5,5.7-0.5,11.5-0.9,17.3c-0.3,3.6-1,7-3,10.2c-2,3.4-3.2,7.3-4.6,11c-0.2,0.6,0,1.5,0.4,2c0.2,0.3,1.3,0.3,1.7,0
		c3.4-1.7,7.2-2.3,10.8-3.3c7.3-1.9,14.6-3.2,22.1-4.2c6.7-0.8,11.6-1.4,19.7,0.9c8.9,2.5,18.2,10.1,20.6,11.6
		c7.7,4.6,11.4,12.2,14.8,20c2.9,6.5,3,13.6,3.9,20.6c1.1,8.5,1.6,17.1,2.4,25.6c0.7,7.2,3.7,13.5,8.1,19.1
		c6.8,8.5,13.9,16.7,19.4,26.2c3,5.1,5.5,10.3,6.7,16c1,4.6,1.3,9.3,2,14c1,6.9,0.3,13.6-2.9,19.9c-0.3,0.5-0.1,1.2-0.1,1.8
		c0.2,5.1,0.5,10.3,0.6,15.4c0.1,4.4-0.1,8.7-0.1,13.1c0,1.6,0.3,3.1,0.3,4.7c-0.1,3.7-0.5,7.3-0.6,11c-0.1,3.1,0.4,6.2,0.2,9.2
		c-0.2,5.4-0.6,10.8-1.1,16.2c-1,9.9-2,19.8-3.2,29.7c-0.5,4.1-0.3,8.4-2.7,12.1C429.6,462.5,444.2,463.4,458.9,464.3z M365.2,189.7
		c-0.2,0.1-0.3,0.2-0.5,0.3c0.2,0.8,0.3,1.6,0.6,2.4c1.9,5.5,2.5,11.1,2.4,16.8c-0.1,5.5-0.3,10.9-1.5,16.2
		c-1.1,4.8-1.9,9.8-3.6,14.4c-2.3,6.2-5.5,12-8.2,18c-4.3,9.4-9.2,18.4-15.5,26.5c-4.9,6.4-9.7,12.9-15.8,18.4
		c-7.5,6.7-14.7,13.8-22.1,20.6c-11.2,10.4-22.3,20.8-33.6,31c-5.4,4.9-11.1,9.4-16.7,14c-5.4,4.5-10.7,9.2-16.3,13.5
		c-7.9,6.1-15.9,11.9-24,17.7c-1.9,1.3-2.2,2.6-1.4,4.5c1.9,4.7,3.6,9.4,5.6,14.1c1.5,3.6,1.6,3.6,5.5,3.3
		c14.3,0.1,26.8-2.8,31.4-3.8c8.4-2,16.8-3.9,25.1-6.3c9.1-2.6,18.4-4.7,27.2-8.3c8.3-3.4,16.9-6,25.2-9.3
		c10.6-4.2,21-8.8,31.6-13.1c16.1-6.5,31.7-14.2,45.9-24.3c4.3-3,8.2-6.3,11.2-10.6c1.6-2.3,2.7-4.8,2.6-7.7
		c-0.2-4.4-0.2-8.8-0.4-13.2c-0.3-6.9-1.9-13.6-5-19.9c-5.5-10.9-12.8-20.5-20.8-29.7c-3.8-4.4-6.6-9.4-8.4-15
		c-2.4-7.3-2.3-15-3.1-22.5c-0.9-7.7-1.6-15.3-2.6-23c-0.9-7-4.1-13.2-8-19.1C370.2,193.4,368,191.1,365.2,189.7z M88,281.4
		c0.9-1,1.3-1.5,1.7-2c3.6-3.8,7.2-7.8,11-11.4c4-3.8,8.3-7.1,9.6-12.9c0.5-2.2,1.8-4.4,3.4-6.1c3.4-3.8,7.4-7,10.8-10.8
		c2.9-3.1,4.6-7.1,5.1-11.3c0.9-7.6,1.1-15.3,2.1-22.8c0.8-6.1,2.2-12.1,3.6-18.1c0.7-3,2.1-5.9,2.8-9c1.3-5.1,2.5-10.2,3.5-15.3
		c0.3-1.4-0.1-3.1-0.4-4.6c-0.3-1.3-1-2.6-1.2-3.9c-1-7.3-1.7-14.7-3.1-22c-1.4-7.2-2.7-14.3-2.4-21.6c0.1-2.3,0.5-4.5,0.7-6.8
		c0.5-8,2.4-15.7,5.5-23c1.4-3.2,3.1-6.3,5.1-9.2c1.6-2.3,1.5-4.4,1.3-7c-0.7-8.7-1-17.4-1.3-26.1c-0.3-7.9-0.3-15.8-0.4-23.8
		c0-1.3,0-2.6,0-3.9c-0.6,0.1-0.8,0-0.9,0.1c-7.1,3-14.1,6.2-21.3,9.1c-9.2,3.7-18.5,7.2-27.8,10.8c-3.8,1.5-7.6,2.9-11.3,4.5
		c-0.6,0.3-1.3,1-1.4,1.6c-0.3,1.2-0.4,2.5-0.5,3.7c-0.2,10.1-0.3,20.2-0.4,30.3c0,4.8,0.3,9.5,0.4,14.3c0.2,11.9,0.2,23.9,0.4,35.8
		c0.2,12.6,0.5,25.3,0.8,37.9c0.3,12.2,0.5,24.5,0.8,36.7c0.1,6.3,0.2,12.6,0.4,18.9c0.2,6.8,0.5,13.6,0.8,20.4
		c0.5,9.7,1,19.4,1.5,29.2c0.2,4.1,0.3,8.1,0.5,12.2C87.4,277.1,87.7,278.9,88,281.4z M417.7,352.6c-1.1,1.3-1.8,2.3-2.7,2.9
		c-3.4,2.6-6.9,5.2-10.4,7.6c-11.4,7.9-23.9,13.9-36.6,19.3c-10.2,4.4-20.5,8.6-30.9,12.7c-12.3,4.8-24.7,9.6-37.2,13.8
		c-9.9,3.3-20,5.6-30,8.4c-16.2,4.7-32.5,8.5-49.5,8.6c-2,0-2.3,0.4-1.4,2.3c1.6,3.6,3.3,7.3,5.1,10.8c3.1,6.1,6.4,12,9.3,18.1
		c1.4,3,1.5,4,6.7,4.1c5.2,0.1,13.8-0.1,19.2-0.2c5.8-0.1,11.5-0.4,17.3-0.4c3.9-0.1,7.8,0.1,11.7,0.1c3.4,0,6.9-0.2,10.3-0.2
		c10,0.1,19.9,0.5,29.9,0.6c8.4,0,16.8-0.2,25.2-0.3c9.2-0.1,18.4,0,27.5,0c4,0,8,0.2,12,0.3c5.1,0.1,10.2,0.3,15.3,0.4
		c0.5,0,1.4-0.1,1.6-0.5c0.9-1.4,1.8-2.8,2.2-4.3c0.7-2.9,1-5.8,1.3-8.7c0.8-7.1,1.5-14.2,2.1-21.3c0.7-7.5,1.4-15,1.8-22.5
		c0.3-4.5,0.1-9,0.1-13.6c0-5.2,0-10.3,0-15.5c0-2.7,0.1-5.5,0.2-8.2c0.1-2.9,0.4-5.7,0.4-8.6C418.2,356.6,417.9,354.7,417.7,352.6z
		 M157.6,116.7c2.1-0.5,4.2-1,6.2-1.6c3.6-1,7.1-1.6,10.6,0.5c2.5,1.5,5,2.9,6.4,5.6c1.9,3.7,0.6,5.9-3.6,5.8
		c-1.8,0-3.5-0.1-5.3-0.2c-1.4,0-2.9,0.1-4.3-0.1c-3.9-0.5-7.9-1-11.5,0.9c-0.9,0.5-1.8,1.4-2,2.3c-1.5,5.1-1.4,10.2-0.6,15.4
		c1,6.7,2.1,13.4,2.9,20.2c0.6,4.6,0.8,9.2,1.5,13.8c0.7,4.7,1.9,9.3,2.9,14c1.1,5.4,3.4,10.5,6.6,15c3.6,5,7.4,9.6,11.9,13.8
		c3.5,3.2,6.5,7,9.5,10.7c2.6,3.1,4.7,6.6,7.2,9.7c1,1.2,2.3,2.5,3.7,2.9c3.8,0.9,7.5,2.3,11.7,1.8c5-0.7,9.8-1.5,14.1-4.3
		c2.3-1.4,4.4-3,6.6-4.5c7.6-5,12.5-12.5,17.6-19.8c0.3-0.4,0.4-1,0.5-1.5c1.4-5.3,2.7-10.7,4.3-15.9c2.1-7.2,4-14.4,4.4-21.9
		c0.5-8.9-0.6-17.7-1.8-26.4c-1.3-9.2-1.3-18.4-0.1-27.6c0.3-2,0.5-3.6-1.4-4.8c-1.5-1-2.9-2.6-4.5-3c-3.9-0.8-7.8-0.6-11.6,0.6
		c-3.4,1.1-6.6,2.4-10,3.5c-2.8,0.9-5.6,1.6-8.4-0.4c-3.3-2.3-4.4-7.8-1.6-10c4.1-3.2,8.8-4.3,14-3.5c1.9,0.3,3.7,0.4,5.6,0.6
		c-0.3-0.8-0.7-1.2-1.2-1.6c-8-5.8-16.6-10.3-26.5-12.3c-6.1-1.2-12.1-2.8-18.2-4.1c-2.9-0.6-5.9-1.1-8.8,0.5
		c-2.4,1.3-4.9,2.1-7.3,3.3c-6.3,3-12,6.8-15.1,13.4C160.7,110.6,159.1,113.6,157.6,116.7z M20.7,470.2c0-0.1,0-0.2,0-0.3
		c4.1,0,8.1,0.3,12.2-0.1c4.2-0.4,3.8,0.1,3.9-4.1c0.1-8.1,0-16.3,0.5-24.4c0.6-9,1.2-18,0.8-27c-0.6-10.9-0.7-21.9-0.9-32.8
		c-0.2-10.4-0.2-20.7-0.4-31.1c-0.2-10.8-0.5-21.6-0.8-32.4c-0.1-2.5,0-5-0.1-7.4c-0.2-4.6-0.6-9.1-0.8-13.7
		c-0.3-6.3-0.4-12.5-0.6-18.8c-0.3-12.8-0.5-25.5-0.8-38.3c-0.1-3.9-0.2-7.7-0.3-11.6c-0.4-10.7-0.9-21.3-1.2-32
		c-0.1-5.1,0.3-10.2,0.2-15.3c-0.2-6.1-0.8-12.1-1-18.2c-0.3-7-0.4-14-0.4-21c0-4,0.3-8,0.3-12c0-2.6-0.4-3.1-3.1-3.1
		c-1.7,0-3.4,0.3-5.1,0.3c-4.9-0.1-9.8-0.2-14.7-0.4c-2.2,0-2.4,0.3-2.1,2.5c0.3,2.5,0.6,4.9,0.6,7.4c0,3.7-0.3,7.4-0.3,11.1
		c0,2,0.3,3.9,0.2,5.9c-0.1,3,0.4,42.9,0.6,52.4c0.1,3.4,0,6.8,0.3,10.2c0.5,7.7,1.2,15.4,1.6,23.1c0.2,3.2,0,6.4,0.1,9.6
		c0.2,4.4,0.5,8.9,0.7,13.3c0.2,3.5,0.3,6.9,0.4,10.4c0.2,9.4,0.3,18.7,0.4,28.1c0,6-0.2,12.1-0.1,18.1c0.1,7.3,0.5,14.5,0.5,21.8
		c0.1,10.5,0,21,0,31.4c0,8.1-1.3,16.1-1,24.2c0.5,14.2,0.1,28.4-0.1,42.6c-0.2,10,0.4,20-0.2,30c0,0.4,0.8,1.2,1.2,1.2
		C14.3,470.3,17.5,470.2,20.7,470.2z M83.8,322.8c-0.4,1-0.7,1.5-0.8,2c-0.6,3.3-1.2,6.6-1.6,9.9c-0.9,6.9-1.8,13.9-2.4,20.9
		c-0.9,9.4-1.4,18.9-2.3,28.3c-0.5,5.3-1.2,10.7-2.5,15.9c-2.8,11.2-6.1,22.3-9,33.6c-2.1,8.2-4,16.4-5.8,24.6
		c-0.6,2.9-0.6,5.8-0.9,8.8c-0.1,0.9,0.1,1.7,1.4,1.6c6.6-0.1,13.1,0,19.7-0.1c9-0.2,18-0.8,27.1-1.1c8-0.2,16-0.3,24-0.5
		c0.5,0,1-0.1,1.6-0.1c5.3-0.5,10.7-1.1,16-1.4c8-0.3,16-0.1,23.9-0.5c7.8-0.4,15.6-1.4,23.4-2.2c1.1-0.1,2.3-0.3,3.4-0.4
		c0.1-0.2,0.1-0.4,0.2-0.6c-1.1-0.8-2.1-1.8-3.3-2.5c-8.4-5-15.3-11.8-22.6-18.2c-7.3-6.4-14.2-13.2-21.1-20
		c-5.4-5.3-10.5-10.8-15.7-16.3c-6.2-6.7-12.8-13.1-17.8-20.9c-4.6-7.2-10-14-14.6-21.2c-3-4.6-5.4-9.6-8-14.4
		c-2.3-4.3-4.6-8.5-6.7-12.9C87.5,331.5,85.8,327.4,83.8,322.8z M40.7,466.9c0,2.3,0.4,2.5,2.7,2.4c3.1-0.2,6.3-0.4,9.4-0.3
		c1.5,0.1,1.7-0.4,1.8-1.7c0.1-2.9,0.3-5.9,0.8-8.7c0.6-3.4,1.5-6.8,2.1-10.2c0.1-0.7-0.1-1.5-0.2-2.3c-0.2-1.1-0.8-2.2-0.7-3.4
		c0-5.6,0.3-11.3,0.3-16.9c0-8.2-0.3-16.3-0.3-24.5c-0.1-11.8,0-23.6,0-35.4c0-2.9,0-5.9,0-8.8c0-8.6,0-17.2,0-25.8
		c0-5.2,0.3-10.5,0.2-15.7c-0.1-8-0.5-16-0.5-23.9c0-5.6,0.5-11.1,0.6-16.7c0.2-9.7,0.3-19.5,0.4-29.2c0.1-7.1,0.4-14.1,0.4-21.2
		c0.1-16.3,0-32.5,0-48.8c0-3,0.3-6,0.4-9c0.2-6.7,0.4-13.5,0.5-20.2c0-5.3-0.2-10.6-0.2-15.9c-0.1-13.8-0.2-27.5-0.3-41.3
		c0-2-0.2-4-0.3-6c-0.1-3.1-0.2-6.3-0.4-9.4c-0.2-5.1-0.4-10.2-0.7-15.3c-0.3-6.6-0.9-13.2-0.9-19.8c0-6.9,0.4-13.9,0.7-20.8
		c0.1-2.8,0.3-5.6,0.3-8.4c0-1.5-0.5-2.6-2.4-2.6C48.2,7.1,42,7.1,35.8,7c-1.9,0-2.5,0.8-2.5,2.6c0.1,5.1,0,10.1,0,15.2
		c0,3.5,0,7,0.1,10.6c0.1,2.6,0.4,5.2,0.5,7.8c0,0.6-0.2,1.2-0.4,1.7c-1.1,2.8-0.7,3.4,2.2,3.5c3.4,0.1,4.8,1.3,5,4.7
		c0.2,4.6-1.3,9.2,0,13.8c0,0.1,0,0.1,0,0.2c-1.1,4.7-1.9,9.4-3.3,13.9c-0.5,1.6-0.4,2.8,0.2,4.2c1.2,2.9,1.4,5.7-1.2,8.1
		c-1.3,1.2-1.2,2.7-1,4.4c0.6,4.1,1.2,8.2,1.4,12.4c0.1,1.9-1,3.9-1.2,5.8c-0.4,4.8-0.7,9.7-0.8,14.5c-0.2,8.5-0.3,17-0.2,25.5
		c0.1,6.7,0.7,13.3,1,20c0.3,5.6,0.6,11.2,0.7,16.8c0.1,6.1,0,12.3,0.2,18.4c0.2,5.4,0.9,10.8,1,16.2c0.3,9.8,0.3,19.6,0.4,29.5
		c0,1.4-0.2,2.7-0.2,4.1c0.1,3.2,0.4,6.4,0.6,9.6c0.3,5.1,0.5,10.2,0.7,15.3c0.3,4.8,0.6,9.7,0.8,14.5c0.1,4.4,0,8.8,0,13.1
		c0.2,11.7,0.5,23.4,0.8,35.2c0.1,5.6,0.1,11.1,0.2,16.7c0.2,9.5,0.4,19,0.6,28.5c0.2,8.3,0.3,16.6,0.4,25c0.1,4.9,0.2,9.7-0.1,14.6
		C41.4,440.5,40.6,463,40.7,466.9z M107.4,267.5c-0.7,0.5-1.1,0.8-1.5,1c-6.2,4.7-11,10.8-15.9,16.8c-3.8,4.7-6.7,9.8-8.8,15.4
		c-0.3,0.9-0.6,2-0.3,2.8c2.4,6.9,4.9,13.8,7.5,20.7c1,2.6,2.3,5.1,3.6,7.7c1.9,3.9,3.7,7.8,5.7,11.6c2.3,4.5,4.8,8.8,7.3,13.2
		c0.8,1.5,1.6,3,2.6,4.4c3.9,5.6,7.8,11.2,11.8,16.6c3.1,4.3,6.4,8.4,9.8,12.5c2,2.4,4.2,4.7,6.3,7c3.9,4.3,7.7,8.7,11.9,12.8
		c5.7,5.6,11.5,11.1,17.4,16.5c6.3,5.9,12.7,11.7,19.1,17.5c3.9,3.5,7.8,7,12.3,9.7c3.2,1.9,6.3,4,9.2,6.4c1.3,1.1,2.4,1.5,4,1.5
		c6.4-0.2,12.8-0.3,19.2-0.4c0.7,0,1.4-0.2,2.3-0.3c-0.5-1.2-0.7-2.2-1.2-3.2c-3.8-7.3-7.8-14.5-11.4-21.9c-3.2-6.6-6.3-13.2-9-20.1
		c-3-7.7-5.5-15.7-8.2-23.5c-2.5-7.2-5.1-14.4-7.7-21.6c-0.4-1-1-1.9-1.7-3.2c-0.7,1.1-1.2,1.7-1.5,2.4c-3.7,7.6-8.8,14.1-15.4,19.4
		c-3,2.4-6.3,3.6-10.2,1.9c-1.3-0.6-2.9-0.6-4.4-1c-1.7-0.6-3.6-1-5-2c-6.6-4.7-9.8-11.6-11.1-19.4c-0.8-4.4-1.5-8.9-1.9-13.4
		c-0.7-8.8-5.3-15.1-11.9-20.4c-2.6-2.1-5.4-4-7.8-6.3c-3.3-3.1-6.8-6.1-9.5-9.8c-1.6-2.2-2.9-4.3-2.8-7.1c0.1-3.3,0.2-6.5,0.4-9.8
		c0.2-4.8-0.5-9.5-1.4-14.2c-1.1-5.9-1-12-1.4-18C107.6,269,107.5,268.5,107.4,267.5z M60.6,432.8c0.2,0,0.4,0,0.5,0.1
		c0.2-0.9,0.4-1.8,0.6-2.7c2.6-9.5,5.2-19.1,7.7-28.7c1.1-4.2,2.2-8.5,2.7-12.9c0.8-6.9,1.1-14,1.7-20.9c0.7-8.5,1.2-17.1,2.4-25.6
		c1.2-8.5,3.2-16.8,4.7-25.3c0.2-1.3,0.2-2.7-0.2-3.9c-1.2-3.5-2.8-6.9-4.1-10.4c-0.3-0.9-0.3-2.2,0.1-3c1-2.2,2.4-4.2,3.3-6.4
		c1.4-3.4,4.1-6.2,3.6-10.7c-0.9-8-0.9-16.1-1.3-24.1c-0.4-7.4-0.8-14.8-1.2-22.2c-0.3-7.3-0.6-14.7-0.8-22
		c-0.3-9.1-0.6-18.2-0.8-27.3c-0.2-7.8-0.3-15.6-0.4-23.4c-0.1-3.1-0.1-6.3-0.2-9.4c-0.2-5.4-0.5-10.9-0.6-16.3c-0.1-3,0-6,0-9
		c-0.1-10.7-0.2-21.3-0.3-32c0-3.5,0.2-6.9,0.2-10.4c-0.1-7.8-0.3-15.7-0.3-23.5c0-8.6,0.1-17.2,0.4-25.8c0.2-6.3,0.8-12.5,1.1-18.8
		c0.1-3.1,0-6.3,0.1-9.4c0-1.5-0.7-1.9-2.1-1.9c-2,0-4-0.3-6.1-0.3c-3.1-0.1-6.3,0-9.4,0c-1.1,0-1.6,0.6-1.6,1.7
		c-0.4,8.8-1.2,17.5-1.1,26.3c0.1,10.1,1,20.3,1.4,30.4c0.5,11.8,0.9,23.5,1.2,35.3c0.2,5.9,0,11.8,0,17.6c0,12.7,0.1,25.4,0,38.1
		c-0.1,6.5-0.6,13.1-0.6,19.6c-0.1,7.7,0.2,15.3,0.2,23c0,8.4-0.2,16.8-0.4,25.2c-0.1,6.7-0.3,13.4-0.4,20
		c-0.3,15.3-0.6,30.7-0.7,46c-0.1,6.4,0.3,12.7,0.3,19.1c0.1,8.1,0,16.1,0,24.2c0,19.9,0,39.9,0,59.8c0,6.9,0.3,13.8,0.3,20.6
		c0,5.7-0.2,11.5-0.4,17.2C60.5,431.5,60.6,432.1,60.6,432.8z M339.3,275.8c0.5-0.7,0.8-1.1,1.1-1.6c3.8-7.1,7.6-14.2,11.3-21.3
		c0.9-1.8,1.7-3.7,2-5.7c0.4-3.4,0.4-6.9,0.4-10.4c0-9.3,0.6-18.6-1.9-27.7c-1-3.5-1.8-7.3-5.1-9.4c-2.6-1.6-5.4-3.2-8.3-3.8
		c-3.7-0.8-7.6-1.2-11.4-1c-7.9,0.4-15.6,2.4-23.2,4.8c-1.4,0.4-2.9,0.8-4.9,1.3c1.3,2.6,2.3,5.1,3.8,7.3c1.8,2.6,4,5,6.1,7.5
		c2.9,3.6,5.6,7.4,8.7,10.8c4.6,5,7.2,10.8,8.6,17.4c0.5,2.7,1.1,5.5,2.2,7.9c2.4,5.4,5.3,10.7,7.8,16.1
		C337.4,270.2,338.2,272.8,339.3,275.8z M144.6,155.1c0.2,0,0.4,0.1,0.5,0.1c0.3-0.6,0.5-1.1,0.8-1.7c1.1-1.9,2-4.1,3.5-5.6
		c1-1,1-1.8,1-3c-0.2-4.6-0.7-9.3-0.1-13.9c0.9-7.9,3.7-15.4,7.3-22.5c2.9-5.7,6.2-11,11.8-14.4c2.9-1.8,5.9-3.3,9-4.8
		c4.9-2.3,10.1-3.5,15.6-2.3c6.7,1.5,13.4,3,20.1,4.5c2.5,0.6,5,1,7.4,1.8c2.8,1,5.5,2.2,8,3.6c4.3,2.4,8.7,4.8,12.7,7.7
		c5.4,4,10.6,8.3,15.7,12.8c2.5,2.2,4.5,4.9,6.5,7.5c1.6,2.1,14,21.1,17.8,29c2.8,5.9,4.6,12.2,6.9,18.3c0.2,0.5,0.4,1,0.8,1.9
		c0.4-1,0.8-1.4,0.8-1.9c0-3.6,0.2-7.2-0.1-10.8c-0.5-5.3-2.4-10.3-4.4-15.2c-3-7.1-6.9-13.7-11.6-19.8c-2.9-3.8-6.1-7.2-9.3-10.8
		c-1.3-1.5-2.8-3-4.1-4.5c-7-8.3-14.7-16-23.5-22.5c-4-2.9-8.1-5.6-13.2-6.6c-5.4-1-10.5-3-15.8-4.4c-3.1-0.8-6.4-1.6-9.6-1.8
		c-2.7-0.2-5.4,0.2-8.2,0.5c-3.4,0.4-6.9,0.7-10.3,1.3c-3.3,0.7-5.9,2.9-9,4.2c-5.5,2.4-9.8,6.7-13.5,11.6
		c-6.1,8.1-10.7,16.8-12.4,26.8c-0.7,4.1-1.8,8.2-2,12.4c-0.3,6.3,0.1,12.6,0.3,18.9C144,152.7,144.4,153.9,144.6,155.1z M166.2,53
		c0.1,0.1,0.2,0.3,0.3,0.4c0.9-0.4,1.9-0.9,2.8-1.3c4.2-1.7,8.2-3.8,12.6-4.9c7.6-1.9,15.3-3.3,23.1-4.7c4.6-0.9,9.3-1.3,13.8-0.1
		c6.5,1.6,13,3.4,19.4,5.4c3.2,1,6.2,2.7,8.5,5.4c2,2.3,4.3,4.5,6.7,6.3c6.4,4.7,11.9,10.2,16.5,16.7c6.1,8.6,11,18.1,17.5,26.5
		c0.4,0.5,0.8,1,1.1,1.6c0.2-0.1,0.4-0.2,0.5-0.3c-0.5-2.5-1.1-5.1-1.6-7.6c-0.7-3.2-1.7-6.3-2.2-9.6c-0.8-5-1.3-10-2-15
		c-0.8-5.2-2.9-9.7-6.5-13.6c-3.6-3.8-7.1-7.8-10.8-11.5c-6.3-6.3-13.1-11.6-22.2-13.3c-4.4-0.8-8.8-2.2-13.2-2.6
		c-5.1-0.4-10.3-0.2-15.5,0c-4.9,0.2-9.8,0.6-14.6,1.4c-8,1.3-15.5,4.1-21.9,9.1c-4.1,3.2-7.7,7-11.6,10.6
		C166.5,52.1,166.4,52.6,166.2,53z M214.7,284.6c-0.5,4-1.2,7.6-1.4,11.2c-0.4,9.1-2.3,18-4.3,26.9c-1.7,7.4-4.1,14.6-6.3,21.9
		c-0.5,1.7-0.2,2.5,1.4,3.2c5.1,2.2,10.1,3.9,15.8,4.1c3.1,0.1,5.6-0.5,8.1-2.2c1.3-0.9,2.1-1.9,2.3-3.5c0.4-3.9,1-7.8,1.4-11.7
		c0.3-3.1,0.3-6.1,0.6-9.2c0.4-3.6,0.9-7.1,1.4-10.7c0.7-5.6,1.8-11.2,5.7-15.6c1.8-2,2.4-4.1,2.6-6.6c0-0.6,0.1-1.2,0.1-1.8
		c0-2.7,0-5.4-1.6-8.5c-0.9,1.1-1.5,2.1-2.2,2.7c-1.9,1.6-3.7,3.3-5.8,4.6c-5,3.1-9,2.6-13.6-1.3C217.5,287.2,216.2,286,214.7,284.6
		z M358.1,236.7c0.2,0.1,0.4,0.1,0.7,0.2c0.4-1.1,1-2.1,1.2-3.2c1.1-6,2.5-12.1,3.2-18.1c0.9-8.2,0.9-16.3-2-24.2
		c-1.5-4.2-4.3-7.5-8.2-9.4c-5.8-2.8-12.1-4.2-18.7-4c-2.9,0.1-5.9,0.3-8.8,0.8c-5.2,0.8-10.4,1.7-15.6,2.7
		c-2.1,0.4-4.1,0.8-6.1,1.3c-3,0.8-6,1.6-9,2.6c-1.3,0.4-1.8,1.4-1.3,2.8c0.8,2.1,1.3,4.2,2.2,6.3c1,2.4,2.2,2.8,4.6,2.2
		c6.3-1.6,12.5-3.4,18.8-4.7c8.4-1.7,16.8-1.8,24.8,1.8c3.8,1.7,7.4,4,8.8,7.7c3.2,8,5.4,16.4,5.3,25.2
		C358.1,229.9,358.1,233.3,358.1,236.7z M206.5,397.1c0.9-0.5,1.5-0.8,2-1.2c2.9-2.2,5.8-4.5,8.7-6.7c3-2.2,6.1-4.1,9-6.3
		c0.7-0.5,1.3-1.7,1.4-2.5c0.3-4.2,0.3-8.5,0.5-12.7c0.2-3.6,0.5-7.2,0.9-10.7c0.2-2.1,0.1-2.2-1.8-1.7c-7.4,1.2-21-1.3-26.2-5.2
		c-0.1,0.1-0.4,0.4-0.5,0.7c-1.6,3.1-3.1,6.4-4.9,9.4c-1.2,2.1-0.9,3.9-0.1,5.9c3.1,8.3,6.2,16.5,9.2,24.8
		C205.3,392.8,205.8,394.9,206.5,397.1z M30.2,17.5c-0.1,0-0.1,0-0.2,0c0-2.3,0-4.6,0-6.9c-0.1-2.8-0.5-3.3-3.2-3.3
		C20.9,7.3,15,7.4,9,7.5c-0.6,0-1.2,0.2-1.7,0.3C6.1,7.9,5.8,8.6,5.8,9.7c-0.5,9.5-1.6,19-0.8,28.6c0.2,2.3,0.3,2.6,2.7,2.5
		c2-0.1,3.9-0.2,5.9-0.2c4.3,0.1,8.6,0.2,12.9,0.3c1.3,0,3.1,0.3,3.7-0.4c0.6-0.7,0.1-2.5,0.1-3.7C30.2,30.3,30.2,23.9,30.2,17.5z
		 M26.1,112.1c0-0.1,0-0.3,0-0.4c1.4,0,2.9,0.1,4.3-0.1c0.6-0.1,1.5-0.8,1.5-1.3c0.3-3.6,0.5-7.2,0.4-10.8
		c-0.1-3.9-0.3-7.7,2.9-10.7c1.4-1.3,0.1-2.6-0.4-3.9c-0.4-1.1-1.1-1.6-2.4-1.5c-3.3,0.3-6.6,0.4-9.9,0.4c-3.1,0-6.1-0.2-9.2-0.4
		c-2.3-0.2-4.7-0.6-7-0.7c-0.6,0-1.7,0.5-1.7,0.8c0,4.4-0.1,8.9,0.4,13.3c0.4,3.8,0.7,7.6,0.1,11.5c-0.5,2.9,0.2,3.8,3.1,3.8
		C14.2,112.1,20.1,112.1,26.1,112.1z M151.1,63.2c0.2,0.1,0.4,0.1,0.5,0.2c0.4-0.5,0.8-1,1.2-1.5c2.2-2.5,4.3-5.1,6.5-7.6
		c2.1-2.5,4.4-4.8,6.5-7.3c0.4-0.5,0.4-1.4,0.4-2.1c-0.1-5.3-0.2-10.6-0.4-15.9c-0.2-5.3-0.5-10.6-0.8-15.9
		c-0.1-1.4-0.2-2.7-0.4-4.1c-0.2-1.4-0.7-2.4-2.4-2.4c-3.9,0-7.8-0.1-11.7,0c-0.4,0-1.2,0.8-1.3,1.2c-0.2,3.1-0.4,6.3-0.3,9.4
		c0.4,10.2,0.8,20.4,1.3,30.6C150.5,53,150.8,58.1,151.1,63.2z M140.7,6.7c-0.5-0.2-0.7-0.4-0.8-0.4c-6.6,0.2-13.2,0.5-19.8,0.7
		C117.6,7.2,93.2,6.3,86.5,7c-2.6,0.3-2.7,0.2-2.8,2.9c-0.3,6.3-0.6,12.7-1,19c-0.1,1.5,0.4,1.7,1.7,1.2c4.2-1.7,8.5-3.3,12.8-5
		c7.8-3,15.7-6,23.4-9.1c6.1-2.5,12-5.3,17.9-7.9C139.2,7.7,139.8,7.2,140.7,6.7z M202.2,249.6c0.3,0.8,0.3,1.2,0.6,1.6
		c2,3.1,4,6.3,6.1,9.4c1.3,1.8,2.1,3.5,2,5.7c0,1.6,0.8,1.9,2.4,2c7.7,0.1,16.1-1,22.2-3.2c0.9-0.3,1.7-1.4,2-2.3
		c0.9-2.6,1.3-5.3,2.1-8c2.3-7.6,4.7-15.2,7.1-22.9c0.1-0.2-0.1-0.5-0.2-0.9c-0.4,0.3-0.7,0.5-0.9,0.7c-0.3,0.3-0.6,0.6-1,1
		c-6.9,7.2-14.2,13.7-24.1,16.7c-4.6,1.4-9.3,2.1-14.1,1.1C205.2,250.1,203.8,249.9,202.2,249.6z M25.1,79.9
		c2.6-0.2,5.3-0.4,8.1-0.5c1.2-0.1,1.9-0.7,2.1-1.9c0.2-1.3,0.5-2.6,0.8-3.8c0.5-2,1.2-4,1.7-6.1c0.2-0.9,0.6-2.2-1.1-2.3
		c-5.9-0.4-11.7-0.8-17.6-1.1c-3.8-0.2-7.7,0.1-11.5-0.1c-2.1-0.1-2.7,0.8-2.8,2.5c-0.2,2.9-0.4,5.9-0.4,8.8
		c-0.1,2.6,0.6,3.3,3.1,3.5C13.2,79.3,19.1,79.6,25.1,79.9z M5,50.9c-0.6,2.5-0.4,5.4-0.2,8.2c0,0.3,0.6,0.8,1,0.8
		c2.2,0.2,4.4,0.4,6.6,0.4c3.4,0,6.8-0.3,10.2-0.1c3.5,0.1,6.9,0.6,10.3,0.9c4.9,0.4,4.1,0.1,4.8-3.5c0.2-0.9,0.4-1.8,0.6-2.7
		c0.3-2.1-0.2-2.6-2.2-2.7c-2.1,0-4.2,0-6.2-0.1C22.9,52,15.9,51.8,9,51.5C7.8,51.5,6.7,51.2,5,50.9z M228.4,79
		c0.2-0.8,0.4-1.2,0.4-1.5c0.3-4.2,0.7-8.3,0.7-12.5c0-4.4-0.4-8.7-0.6-13.1c-0.1-3.1-0.1-3.1-3-4c-0.4-0.1-0.8-0.2-1.1-0.3
		c-2.3-0.6-2.4-0.5-2.4,1.9c-0.1,3.4-0.2,6.8-0.3,10.2c-0.2,4.9-0.6,9.8-0.8,14.6c0,0.9,0.5,2.4,1.1,2.7
		C224.2,78,226.3,78.4,228.4,79z M244.6,56.2c-0.2,0.1-0.3,0.1-0.5,0.2c-0.2,2.4-0.4,4.8-0.5,7.2c-0.4,6.3-0.8,12.5-1.1,18.8
		c-0.1,1.8-0.1,3.9,0.7,5.5c0.9,1.6,2.7,2.7,4.2,4c0.4,0.3,0.9,0.5,1.6,0.8c0.2-0.6,0.3-1,0.4-1.4c0.3-4.4,0.5-8.9,0.8-13.3
		c0.3-4.6,0.7-9.2,1-13.9c0-0.6,0.1-1.5-0.3-1.8C248.9,60.2,246.7,58.2,244.6,56.2z M205.9,73c0.1-1.9,0.2-3.5,0.3-5.1
		c0.4-6.7,0.7-13.4,1.1-20.2c0.1-1.4-0.6-1.7-1.8-1.5c-1.6,0.3-3.2,0.8-4.8,1c-1.8,0.2-2.7,1.1-2.7,2.9c0,6.7-0.1,13.4,0,20.1
		c0,0.6,0.6,1.6,1.1,1.7C201.2,72.3,203.4,72.6,205.9,73z M11.9,115.1c-1.9,0.2-3.4,0.3-4.9,0.7c-0.5,0.1-1.2,0.8-1.2,1.2
		c-0.1,1.5,0.1,3,0.2,4.5c0.1,1.1,0.7,1.4,1.9,1.4c6.5-0.1,13-0.1,19.6,0c4.1,0.1,4.1,0.1,4.4-3.9c0-0.1,0-0.1,0-0.2
		c0.1-3.2,0-3.3-3.1-3.5c-0.8-0.1-1.7-0.2-2.5-0.2C21.4,115.1,16.5,115.1,11.9,115.1z M211.9,45.6c-0.2,1.1-0.5,2.2-0.5,3.3
		c-0.2,3.8-0.3,7.6-0.4,11.4c-0.1,3.1-0.2,6.2-0.5,9.2c-0.5,4.4-0.6,4.4,3.7,5.6c0.2,0.1,0.4,0.1,0.6,0.2c1.5,0.3,2.4,0,2.5-1.7
		c0.4-8,0.8-15.9,1.1-23.9c0.2-3.9,0.1-3.9-3.9-4C213.6,45.6,212.9,45.6,211.9,45.6z M258.8,102.1c0.2-0.8,0.4-1.2,0.4-1.6
		c0.5-7.8,0.7-15.7,1.7-23.4c0.6-4.7-1.2-7.6-4.3-10.3c-0.3-0.3-0.8-0.5-1.5-0.9c-0.3,4.8-0.7,9.2-0.9,13.7
		c-0.3,5.4-0.7,10.8-1,16.2c0,0.5,0.1,1.1,0.4,1.4C255.2,98.8,256.9,100.3,258.8,102.1z M233.2,49.8c-0.1,0.7-0.2,1.2-0.2,1.6
		c0.1,2.4,0.5,4.8,0.5,7.2c-0.1,6.4-0.3,12.8-0.6,19.2c-0.1,3.4,1.6,5.5,5.3,6c0.6-10.1,1.3-20.2,1.9-30.3c0-0.4-0.2-1.2-0.5-1.3
		C237.5,51.4,235.5,50.7,233.2,49.8z M269,113.7c0.1-1.3,0.2-2,0.2-2.7c0.5-6.2,0.9-12.4,1.4-18.5c0.4-4.3,0.1-8.4-2.9-12
		c-0.8-0.9-1.3-2-2.2-3.5c-0.4,0.9-0.6,1.3-0.6,1.7c-0.2,4.9-0.3,9.8-0.5,14.7c-0.1,3-0.5,6-0.7,9c-0.1,1.8-0.6,3.9,0.2,5.4
		C265,109.8,267,111.4,269,113.7z M175.4,63.4c-0.1,0-0.1,0-0.2,0c0.4,3.4,0.7,6.7,1.1,10.1c0.1,1.1,0.7,1.2,1.6,1
		c1.5-0.4,3-0.6,4.3-1.1c0.7-0.3,1.7-1.3,1.7-2c0-4.1-0.2-8.2-0.3-12.4c-0.1-2.2-0.3-4.3-0.3-6.5c0-1.4-0.6-1.8-1.9-1.4
		c-1.7,0.6-3.4,1.3-5.1,2.1c-0.5,0.2-0.9,1.1-0.9,1.6C175.3,57.7,175.4,60.6,175.4,63.4z M186.8,49.5c0,0.2,0.1,0.4,0.1,0.6
		c0.1,1.1,0.3,2.2,0.4,3.3c0.3,5.8,0.5,11.6,0.8,17.4c0,0.5,0.2,1.2,0.6,1.5c1.2,0.9,4.8-0.9,4.9-2.4c0.2-6.7,0.3-13.4,0.3-20
		c0-0.5-0.9-1.5-1.3-1.5C190.7,48.7,188.7,49.2,186.8,49.5z M167.3,79.8c4.4-2.2,4.5-2.3,4.5-6.9c-0.1-4.8-0.3-9.7-0.4-14.5
		c0-0.5,0-1-0.2-1.3c-0.2-0.4-0.7-0.9-0.9-0.8c-1.8,0.7-3.7,1.4-5.3,2.4c-0.5,0.3-0.2,1.9-0.1,2.8C165.6,67.6,166.5,73.6,167.3,79.8
		z M284.8,134.1c0.2,0,0.5-0.1,0.7-0.1c0.4-3.9,0.9-7.8,1.2-11.7c0.3-2.6,0.3-5.2,0.7-7.8c0.5-2.7-1.7-7.9-4.3-9.4
		c-0.2,1.9-0.4,3.8-0.6,5.7c-0.4,4.7-0.4,9.6-1.3,14.2C280.5,129.1,283.2,131.3,284.8,134.1z M151.9,94.3c0.2,0,0.5,0,0.7,0
		c1.1-1.5,2.2-2.9,3.2-4.4c0.3-0.4,0.3-1.1,0.2-1.7c-0.9-4.1-1.8-8.2-2.8-12.2c-0.4-1.6-1.1-3.2-1.8-5.4c-2.1,2.8-5,4.6-4.1,8
		C148.6,83.9,150.4,89.1,151.9,94.3z M159.6,86c1.1-1,1.8-1.7,2.6-2.3c0.9-0.8,1.3-1.6,1.1-2.9c-0.5-4.1-0.8-8.3-1.3-12.5
		c-0.3-2.2-0.7-4.4-1.2-7.1c-2,1.8-3.6,3.2-5.2,4.7c-0.3,0.3-0.4,1.1-0.3,1.6C156.7,73.5,158.1,79.5,159.6,86z M275,93
		c-0.3,3.7-0.5,7.2-0.7,10.6c-0.3,4.2-0.7,8.3-1.1,12.5c-0.2,2.2,1.6,5.3,3.8,6.2c0.1-0.4,0.3-0.9,0.3-1.3
		c0.5-5.1,0.9-10.2,1.6-15.2C279.5,101.1,279.1,96.8,275,93z M5.2,47.6c3,0,6-0.1,8.9,0c4.6,0.1,9.2,0.2,13.9,0.5
		c1.6,0.1,1.8-0.4,1.5-1.8c-0.3-1.4-1.3-1.4-2.4-1.4c-6.2-0.2-12.4-0.2-18.6-0.6C5.1,44.1,4.8,44.3,5.2,47.6z M146.7,104.1
		c0.6-1,1.3-2.1,1.7-3.3c0.4-1.1,0.7-2.4,0.4-3.5c-0.7-3.1-1.7-6.1-2.7-9.1c-0.5-1.7-1.2-3.4-2-5.6c-0.9,2-1.5,3.2-1.9,4.6
		c-0.3,0.9-0.4,2-0.1,2.8C143.5,94.7,145.1,99.3,146.7,104.1z M142,115c0.3,0,0.6,0,1,0c0.3-1.8,1.2-3.7,0.9-5.4
		c-0.7-4-1.9-7.8-2.9-11.7c-0.1-0.4-0.4-0.8-0.6-1.2c-0.2,0-0.3,0-0.5,0.1c-0.1,0.6-0.3,1.2-0.4,1.8c-0.2,1.9-0.2,3.9-0.5,5.8
		C138.9,106.1,141.8,113.7,142,115z M227.4,288.2c3.8,0,6.6-2.4,7.4-3.8c0.8-1.4-0.7-2.7-2.4-2.1c-2.2,1.1-6.5,2-8.8,1.2
		c-1.2-0.4-2.5-0.3-2.6,1C220.7,286.9,223.6,288.2,227.4,288.2z M289.8,145c0.3,0,0.5-0.1,0.8-0.1c0.3-2.3,0.6-4.6,0.9-7
		c0.6-4.1,1.1-8.1,1.8-12.2c0.3-1.6-0.8-5-2.2-5.9c-0.6,7.6-1.3,15-1.8,22.5C289.2,143.2,289.6,144.1,289.8,145z M227.4,281
		c2.5,0,4.2-1.2,4-3c-0.2-1.4-1.5-1.6-2.7-1.6c-2.3,0-4,1.2-4,2.9C224.8,281.1,226.1,280.9,227.4,281z M230.2,272
		c0,1.5,0.7,2.3,2.3,2.3c1.6,0,3.4-1.7,3.3-3.4c0-0.5-0.9-1.4-1.5-1.5C232.1,269.2,230.2,270.5,230.2,272z M235.9,279.7
		c1.9,0,3.2-1.5,3.2-3.3c0-1-0.1-1.9-1.4-1.9c-2.3,0.1-3.9,1.2-3.9,2.7C233.8,278.8,234.7,279.6,235.9,279.7z M223.8,275.1
		c2.2,0,3.4-0.9,3.4-2.4c0-1.9-1.4-1.8-2.7-1.9c-1.6,0-2.9,0.3-2.9,2.3C221.5,274.8,222.6,275.1,223.8,275.1z M294.6,160.4
		c1.2-4.1,1.7-15.7,0.6-17.7c-0.4,2.4-0.6,4.7-0.8,7.1c-0.1,1.2-0.2,2.5-0.6,3.6C293,155.9,293.9,158.1,294.6,160.4z M217.6,281.3
		c2,0,3.3-1,3.4-2.4c0-1.1-0.4-1.7-1.6-1.7c-2.8,0-3.7,0.6-3.7,2.2C215.6,280.8,216.4,281.4,217.6,281.3z M216,270.9
		c-2,0-2.1,0.6-2.1,2.1s1.3,1.5,2,1.6c0.6,0.1,1.8,0.2,1.9-1.3C217.9,271.8,218,270.9,216,270.9z M139.7,126.1l0.6-0.1
		c1.5-2.4-2.8-12.4-2.8-12.4C138.1,117.8,139.2,122,139.7,126.1z"/>
	<path d="M228,211.1c-5.3,5.5-11.6,8.9-19.4,8c-5-0.6-9.8-2.5-14.2-5.4c-3.3-2.2-9.2-9.1-10-12.4c-0.6-1.7,0.8-1.6,2.2-2.1
		c3.2-1.3,10.3-4.2,15.5-3c5.2,1.2,8.6-0.4,12.3-1.8c1.4-0.5,3.1-0.1,4.7-0.1c4.7,0.2,9.4,0.7,14.1,0.7c2.1,0,2.9,1.1,3.2,2.7
		c0.1,0.9-0.3,2.1-0.8,2.9C234.6,202.5,228.3,210.7,228,211.1z M229.4,200.9c-5.5,1.3-11.1,2.5-16.7,4c-5.7,1.5-16.5,0-22.6-0.8
		C201.2,213.9,223.1,209.3,229.4,200.9z M194.5,209.7c0,0.2,5.4,3.7,6.8,4.2c3.2,1.1,3.4,1.9,10.4,1.7s11.3-4,13.1-5.5
		c1.1-0.9,2.1-2.1,2.4-2.6C219.3,210.8,208.7,215.6,194.5,209.7z M228.4,198.6c-2.7-1.1-12.1-1.3-14.3-0.1c-2.8,1.4-5.8,1.8-8.9,1.6
		c-2.5-0.2-7.3-1.9-13.7,0.8C202.1,204.6,220.5,201.3,228.4,198.6z"/>
	<path d="M223.3,145.2c-2.4-1-3.7-2.2-4.4-4.5c-0.7-2.2,5.1-6.6,13.1-7.1c7.5-0.4,13-0.2,15.4,0.6c1.4,0.4,1.8,1.8,1.2,3.1
		c-2.1,4.6-7.1,6.9-10.9,7.9S225.6,146.2,223.3,145.2z M235.8,139.7c0-2.5-2.1-3.8-4.1-3.8c-2.1,0-4.7,1-4,4.2s2.5,4.3,4.7,4
		C234.4,143.8,236.1,143.1,235.8,139.7z M237.9,135.9c0.7,1.2,1.3,4.2,0.9,6.6c-0.2,1.2,8-4.1,7.6-5.4S237.5,135.3,237.9,135.9z
		 M225.4,137.8c-1.6,0.6-3.6,2-3.7,3.4c-0.1,1.5,3,2.6,4.5,2.1C225.1,142,224.9,139.3,225.4,137.8z"/>
	<path class="st1" d="M235.8,139.7c0-2.5-2.1-3.8-4.1-3.8c-2.1,0-4.7,1-4,4.2s2.5,4.3,4.7,4C234.4,143.8,236.1,143.1,235.8,139.7z"
		/>
	<path d="M186.8,176.8c0-1.6,0.7-3.3,1.4-4.4c0.3-0.5,1.5-1.4,2.3-0.8c0.8,0.7,0.2,2.7,0.1,2.9c-0.9,1.5-0.6,2.5,1.1,2.9
		c0.5,0.1,1.2,0.2,1.4,0.6c0.4,0.5,0.7,1.3,0.6,1.9c-0.1,0.5-0.7,1.3-2.2,1.3C188.5,181,186.8,178.3,186.8,176.8z"/>
	<path d="M221.4,175c0.2,1.9-3.7,5.7-6,5.4c-0.6-0.1-1.5-0.9-1.5-1.4c-0.1-0.7,0.5-1.6,1-2c1.3-1.1,4-3.4,5.1-3.8
		C220.8,172.8,221.2,173.1,221.4,175z"/>
	<path d="M203.3,182.5c-1.2,0-2.4-0.5-3-1.1c-0.6-0.6-1-1.7-0.9-2.5c0.1-0.5,1.4-0.9,2.2-1c1.6-0.1,6.7,0,6.7,0.7
		c0,0.7-0.3,1.7-0.8,2C206.2,181.4,204.5,182.5,203.3,182.5z"/>
	<path d="M231.6,137.8c1.7,0.1,2.5,0.8,2.5,1.5c0.1,1.5-0.2,3-1.7,3c-1,0-2.3-0.7-2.8-1.5C228.8,139.6,229.9,137.7,231.6,137.8z"/>
	<path d="M187.4,142.5c-2.2-3.5-5.3-4.9-9.4-5.2c-2-0.2-3.4-0.4-6.6,0.2c-3.3,0.6-11.1,4.5-13.1,6.2c-2.1,1.8-1.5,3.5,1.9,4.2
		c6.7,1.2,23.8,0.3,26.3-0.3C189.5,146.7,189,145.2,187.4,142.5z M161.1,145c0-0.9,8.3-4.8,8.1-4c-0.4,1.3,0.1,3.5,0.7,4.4
		C170.2,145.8,161.1,145.9,161.1,145z M177.9,145.8c-1.2,0.8-5.3,0.7-6.1-0.4c-0.8-1-1.4-2.1-0.5-4.6c0.8-2.5,6.6-1.4,7.5,0.1
		C179.6,142.4,179,145,177.9,145.8z M180.6,145.3c-0.9-0.1,1-2.2-0.4-4.4c-0.5-0.7,2.2-0.5,3.3,0.3c1.8,1.3,2.2,2.6,2.2,3.4
		S181.8,145.5,180.6,145.3z"/>
	<path class="st1" d="M177.9,145.8c-1.2,0.8-5.3,0.7-6.1-0.4c-0.8-1-1.4-2.1-0.5-4.6c0.8-2.5,6.6-1.4,7.5,0.1
		C179.6,142.4,179,145,177.9,145.8z"/>
	<path d="M175.5,141.3c-0.9-0.2-2.4-0.4-2.9,0.4c-0.6,0.8,0.1,2.2,0.9,2.8s2.4,0.3,2.9,0C176.9,144.3,177.8,142,175.5,141.3z"/>
	<path class="st0" d="M144.6,155.1c0.2,0,0.4,0.1,0.5,0.1c0.3-0.6,0.5-1.1,0.8-1.7c1.1-1.9,2-4.1,3.5-5.6c1-1,1-1.8,1-3
		c-0.2-4.6-0.7-9.3-0.1-13.9c0.9-7.9,3.7-15.4,7.3-22.5c2.9-5.7,6.2-11,11.8-14.4c2.9-1.8,5.9-3.3,9-4.8c4.9-2.3,10.1-3.5,15.6-2.3
		c6.7,1.5,13.4,3,20.1,4.5c2.5,0.6,5,1,7.4,1.8c2.8,1,5.5,2.2,8,3.6c4.3,2.4,8.7,4.8,12.7,7.7c5.4,4,10.6,8.3,15.7,12.8
		c2.5,2.2,4.5,4.9,6.5,7.5c1.6,2.1,14,21.1,17.8,29c2.8,5.9,4.6,12.2,6.9,18.3c0.2,0.5,0.4,1,0.8,1.9c0.4-1,0.8-1.4,0.8-1.9
		c0-3.6,0.2-7.2-0.1-10.8c-0.5-5.3-2.4-10.3-4.4-15.2c-3-7.1-6.9-13.7-11.6-19.8c-2.9-3.8-6.1-7.2-9.3-10.8c-1.3-1.5-2.8-3-4.1-4.5
		c-7-8.3-14.7-16-23.5-22.5c-4-2.9-8.1-5.6-13.2-6.6c-5.4-1-10.5-3-15.8-4.4c-3.1-0.8-6.4-1.6-9.6-1.8c-2.7-0.2-5.4,0.2-8.2,0.5
		c-3.4,0.4-6.9,0.7-10.3,1.3c-3.3,0.7-5.9,2.9-9,4.2c-5.5,2.4-9.8,6.7-13.5,11.6c-6.1,8.1-10.7,16.8-12.4,26.8
		c-0.7,4.1-1.8,8.2-2,12.4c-0.3,6.3,0.1,12.6,0.3,18.9C144,152.7,144.4,153.9,144.6,155.1z"/>
	<path class="st0" d="M166.2,53c0.1,0.1,0.2,0.3,0.3,0.4c0.9-0.4,1.9-0.9,2.8-1.3c4.2-1.7,8.2-3.8,12.6-4.9
		c7.6-1.9,15.3-3.3,23.1-4.7c4.6-0.9,9.3-1.3,13.8-0.1c6.5,1.6,13,3.4,19.4,5.4c3.2,1,6.2,2.7,8.5,5.4c2,2.3,4.3,4.5,6.7,6.3
		c6.4,4.7,11.9,10.2,16.5,16.7c6.1,8.6,11,18.1,17.5,26.5c0.4,0.5,0.8,1,1.1,1.6c0.2-0.1,0.4-0.2,0.5-0.3c-0.5-2.5-1.1-5.1-1.6-7.6
		c-0.7-3.2-1.7-6.3-2.2-9.6c-0.8-5-1.3-10-2-15c-0.8-5.2-2.9-9.7-6.5-13.6c-3.6-3.8-7.1-7.8-10.8-11.5c-6.3-6.3-13.1-11.6-22.2-13.3
		c-4.4-0.8-8.8-2.2-13.2-2.6c-5.1-0.4-10.3-0.2-15.5,0c-4.9,0.2-9.8,0.6-14.6,1.4c-8,1.3-15.5,4.1-21.9,9.1
		c-4.1,3.2-7.7,7-11.6,10.6C166.5,52.1,166.4,52.6,166.2,53z"/>
	<path class="st0" d="M228.4,79c0.2-0.8,0.4-1.2,0.4-1.5c0.3-4.2,0.7-8.3,0.7-12.5c0-4.4-0.4-8.7-0.6-13.1c-0.1-3.1-0.1-3.1-3-4
		c-0.4-0.1-0.8-0.2-1.1-0.3c-2.3-0.6-2.4-0.5-2.4,1.9c-0.1,3.4-0.2,6.8-0.3,10.2c-0.2,4.9-0.6,9.8-0.8,14.6c0,0.9,0.5,2.4,1.1,2.7
		C224.2,78,226.3,78.4,228.4,79z"/>
	<path class="st0" d="M244.6,56.2c-0.2,0.1-0.3,0.1-0.5,0.2c-0.2,2.4-0.4,4.8-0.5,7.2c-0.4,6.3-0.8,12.5-1.1,18.8
		c-0.1,1.8-0.1,3.9,0.7,5.5c0.9,1.6,2.7,2.7,4.2,4c0.4,0.3,0.9,0.5,1.6,0.8c0.2-0.6,0.3-1,0.4-1.4c0.3-4.4,0.5-8.9,0.8-13.3
		c0.3-4.6,0.7-9.2,1-13.9c0-0.6,0.1-1.5-0.3-1.8C248.9,60.2,246.7,58.2,244.6,56.2z"/>
	<path class="st0" d="M205.9,73c0.1-1.9,0.2-3.5,0.3-5.1c0.4-6.7,0.7-13.4,1.1-20.2c0.1-1.4-0.6-1.7-1.8-1.5c-1.6,0.3-3.2,0.8-4.8,1
		c-1.8,0.2-2.7,1.1-2.7,2.9c0,6.7-0.1,13.4,0,20.1c0,0.6,0.6,1.6,1.1,1.7C201.2,72.3,203.4,72.6,205.9,73z"/>
	<path class="st0" d="M211.9,45.6c-0.2,1.1-0.5,2.2-0.5,3.3c-0.2,3.8-0.3,7.6-0.4,11.4c-0.1,3.1-0.2,6.2-0.5,9.2
		c-0.5,4.4-0.6,4.4,3.7,5.6c0.2,0.1,0.4,0.1,0.6,0.2c1.5,0.3,2.4,0,2.5-1.7c0.4-8,0.8-15.9,1.1-23.9c0.2-3.9,0.1-3.9-3.9-4
		C213.6,45.6,212.9,45.6,211.9,45.6z"/>
	<path class="st0" d="M258.8,102.1c0.2-0.8,0.4-1.2,0.4-1.6c0.5-7.8,0.7-15.7,1.7-23.4c0.6-4.7-1.2-7.6-4.3-10.3
		c-0.3-0.3-0.8-0.5-1.5-0.9c-0.3,4.8-0.7,9.2-0.9,13.7c-0.3,5.4-0.7,10.8-1,16.2c0,0.5,0.1,1.1,0.4,1.4
		C255.2,98.8,256.9,100.3,258.8,102.1z"/>
	<path class="st0" d="M233.2,49.8c-0.1,0.7-0.2,1.2-0.2,1.6c0.1,2.4,0.5,4.8,0.5,7.2c-0.1,6.4-0.3,12.8-0.6,19.2
		c-0.1,3.4,1.6,5.5,5.3,6c0.6-10.1,1.3-20.2,1.9-30.3c0-0.4-0.2-1.2-0.5-1.3C237.5,51.4,235.5,50.7,233.2,49.8z"/>
	<path class="st0" d="M269,113.7c0.1-1.3,0.2-2,0.2-2.7c0.5-6.2,0.9-12.4,1.4-18.5c0.4-4.3,0.1-8.4-2.9-12c-0.8-0.9-1.3-2-2.2-3.5
		c-0.4,0.9-0.6,1.3-0.6,1.7c-0.2,4.9-0.3,9.8-0.5,14.7c-0.1,3-0.5,6-0.7,9c-0.1,1.8-0.6,3.9,0.2,5.4C265,109.8,267,111.4,269,113.7z
		"/>
	<path class="st0" d="M175.4,63.4c-0.1,0-0.1,0-0.2,0c0.4,3.4,0.7,6.7,1.1,10.1c0.1,1.1,0.7,1.2,1.6,1c1.5-0.4,3-0.6,4.3-1.1
		c0.7-0.3,1.7-1.3,1.7-2c0-4.1-0.2-8.2-0.3-12.4c-0.1-2.2-0.3-4.3-0.3-6.5c0-1.4-0.6-1.8-1.9-1.4c-1.7,0.6-3.4,1.3-5.1,2.1
		c-0.5,0.2-0.9,1.1-0.9,1.6C175.3,57.7,175.4,60.6,175.4,63.4z"/>
	<path class="st0" d="M186.8,49.5c0,0.2,0.1,0.4,0.1,0.6c0.1,1.1,0.3,2.2,0.4,3.3c0.3,5.8,0.5,11.6,0.8,17.4c0,0.5,0.2,1.2,0.6,1.5
		c1.2,0.9,4.8-0.9,4.9-2.4c0.2-6.7,0.3-13.4,0.3-20c0-0.5-0.9-1.5-1.3-1.5C190.7,48.7,188.7,49.2,186.8,49.5z"/>
	<path class="st0" d="M167.3,79.8c4.4-2.2,4.5-2.3,4.5-6.9c-0.1-4.8-0.3-9.7-0.4-14.5c0-0.5,0-1-0.2-1.3c-0.2-0.4-0.7-0.9-0.9-0.8
		c-1.8,0.7-3.7,1.4-5.3,2.4c-0.5,0.3-0.2,1.9-0.1,2.8C165.6,67.6,166.5,73.6,167.3,79.8z"/>
	<path class="st0" d="M284.8,134.1c0.2,0,0.5-0.1,0.7-0.1c0.4-3.9,0.9-7.8,1.2-11.7c0.3-2.6,0.3-5.2,0.7-7.8
		c0.5-2.7-1.7-7.9-4.3-9.4c-0.2,1.9-0.4,3.8-0.6,5.7c-0.4,4.7-0.4,9.6-1.3,14.2C280.5,129.1,283.2,131.3,284.8,134.1z"/>
	<path class="st0" d="M151.9,94.3c0.2,0,0.5,0,0.7,0c1.1-1.5,2.2-2.9,3.2-4.4c0.3-0.4,0.3-1.1,0.2-1.7c-0.9-4.1-1.8-8.2-2.8-12.2
		c-0.4-1.6-1.1-3.2-1.8-5.4c-2.1,2.8-5,4.6-4.1,8C148.6,83.9,150.4,89.1,151.9,94.3z"/>
	<path class="st0" d="M159.6,86c1.1-1,1.8-1.7,2.6-2.3c0.9-0.8,1.3-1.6,1.1-2.9c-0.5-4.1-0.8-8.3-1.3-12.5c-0.3-2.2-0.7-4.4-1.2-7.1
		c-2,1.8-3.6,3.2-5.2,4.7c-0.3,0.3-0.4,1.1-0.3,1.6C156.7,73.5,158.1,79.5,159.6,86z"/>
	<path class="st0" d="M275,93c-0.3,3.7-0.5,7.2-0.7,10.6c-0.3,4.2-0.7,8.3-1.1,12.5c-0.2,2.2,1.6,5.3,3.8,6.2
		c0.1-0.4,0.3-0.9,0.3-1.3c0.5-5.1,0.9-10.2,1.6-15.2C279.5,101.1,279.1,96.8,275,93z"/>
	<path class="st0" d="M146.7,104.1c0.6-1,1.3-2.1,1.7-3.3c0.4-1.1,0.7-2.4,0.4-3.5c-0.7-3.1-1.7-6.1-2.7-9.1c-0.5-1.7-1.2-3.4-2-5.6
		c-0.9,2-1.5,3.2-1.9,4.6c-0.3,0.9-0.4,2-0.1,2.8C143.5,94.7,145.1,99.3,146.7,104.1z"/>
	<path class="st0" d="M142,115c0.3,0,0.6,0,1,0c0.3-1.8,1.2-3.7,0.9-5.4c-0.7-4-1.9-7.8-2.9-11.7c-0.1-0.4-0.4-0.8-0.6-1.2
		c-0.2,0-0.3,0-0.5,0.1c-0.1,0.6-0.3,1.2-0.4,1.8c-0.2,1.9-0.2,3.9-0.5,5.8C138.9,106.1,141.8,113.7,142,115z"/>
	<path class="st0" d="M289.8,145c0.3,0,0.5-0.1,0.8-0.1c0.3-2.3,0.6-4.6,0.9-7c0.6-4.1,1.1-8.1,1.8-12.2c0.3-1.6-0.8-5-2.2-5.9
		c-0.6,7.6-1.3,15-1.8,22.5C289.2,143.2,289.6,144.1,289.8,145z"/>
	<path class="st0" d="M294.6,160.4c1.2-4.1,1.7-15.7,0.6-17.7c-0.4,2.4-0.6,4.7-0.8,7.1c-0.1,1.2-0.2,2.5-0.6,3.6
		C293,155.9,293.9,158.1,294.6,160.4z"/>
	<path class="st0" d="M139.7,126.1l0.6-0.1c1.5-2.4-2.8-12.4-2.8-12.4C138.1,117.8,139.2,122,139.7,126.1z"/>
	<path class="st0" d="M365.2,189.7c-0.2,0.1-0.3,0.2-0.5,0.3c0.2,0.8,0.3,1.6,0.6,2.4c1.9,5.5,2.5,11.1,2.4,16.8
		c-0.1,5.5-0.3,10.9-1.5,16.2c-1.1,4.8-1.9,9.8-3.6,14.4c-2.3,6.2-5.5,12-8.2,18c-4.3,9.4-9.2,18.4-15.5,26.5
		c-4.9,6.4-9.7,12.9-15.8,18.4c-7.5,6.7-14.7,13.8-22.1,20.6c-11.2,10.4-22.3,20.8-33.6,31c-5.4,4.9-11.1,9.4-16.7,14
		c-5.4,4.5-10.7,9.2-16.3,13.5c-7.9,6.1-15.9,11.9-24,17.7c-1.9,1.3-2.2,2.6-1.4,4.5c1.9,4.7,3.6,9.4,5.6,14.1
		c1.5,3.6,1.6,3.6,5.5,3.3c14.3,0.1,26.8-2.8,31.4-3.8c8.4-2,16.8-3.9,25.1-6.3c9.1-2.6,18.4-4.7,27.2-8.3c8.3-3.4,16.9-6,25.2-9.3
		c10.6-4.2,21-8.8,31.6-13.1c16.1-6.5,31.7-14.2,45.9-24.3c4.3-3,8.2-6.3,11.2-10.6c1.6-2.3,2.7-4.8,2.6-7.7
		c-0.2-4.4-0.2-8.8-0.4-13.2c-0.3-6.9-1.9-13.6-5-19.9c-5.5-10.9-12.8-20.5-20.8-29.7c-3.8-4.4-6.6-9.4-8.4-15
		c-2.4-7.3-2.3-15-3.1-22.5c-0.9-7.7-1.6-15.3-2.6-23c-0.9-7-4.1-13.2-8-19.1C370.2,193.4,368,191.1,365.2,189.7z"/>
	<path class="st0" d="M417.7,352.6c-1.1,1.3-1.8,2.3-2.7,2.9c-3.4,2.6-6.9,5.2-10.4,7.6c-11.4,7.9-23.9,13.9-36.6,19.3
		c-10.2,4.4-20.5,8.6-30.9,12.7c-12.3,4.8-24.7,9.6-37.2,13.8c-9.9,3.3-20,5.6-30,8.4c-16.2,4.7-32.5,8.5-49.5,8.6
		c-2,0-2.3,0.4-1.4,2.3c1.6,3.6,3.3,7.3,5.1,10.8c3.1,6.1,6.4,12,9.3,18.1c1.4,3,1.5,4,6.7,4.1c5.2,0.1,13.8-0.1,19.2-0.2
		c5.8-0.1,11.5-0.4,17.3-0.4c3.9-0.1,7.8,0.1,11.7,0.1c3.4,0,6.9-0.2,10.3-0.2c10,0.1,19.9,0.5,29.9,0.6c8.4,0,16.8-0.2,25.2-0.3
		c9.2-0.1,18.4,0,27.5,0c4,0,8,0.2,12,0.3c5.1,0.1,10.2,0.3,15.3,0.4c0.5,0,1.4-0.1,1.6-0.5c0.9-1.4,1.8-2.8,2.2-4.3
		c0.7-2.9,1-5.8,1.3-8.7c0.8-7.1,1.5-14.2,2.1-21.3c0.7-7.5,1.4-15,1.8-22.5c0.3-4.5,0.1-9,0.1-13.6c0-5.2,0-10.3,0-15.5
		c0-2.7,0.1-5.5,0.2-8.2c0.1-2.9,0.4-5.7,0.4-8.6C418.2,356.6,417.9,354.7,417.7,352.6z"/>
	<path class="st0" d="M83.8,322.8c-0.4,1-0.7,1.5-0.8,2c-0.6,3.3-1.2,6.6-1.6,9.9c-0.9,6.9-1.8,13.9-2.4,20.9
		c-0.9,9.4-1.4,18.9-2.3,28.3c-0.5,5.3-1.2,10.7-2.5,15.9c-2.8,11.2-6.1,22.3-9,33.6c-2.1,8.2-4,16.4-5.8,24.6
		c-0.6,2.9-0.6,5.8-0.9,8.8c-0.1,0.9,0.1,1.7,1.4,1.6c6.6-0.1,13.1,0,19.7-0.1c9-0.2,18-0.8,27.1-1.1c8-0.2,16-0.3,24-0.5
		c0.5,0,1-0.1,1.6-0.1c5.3-0.5,10.7-1.1,16-1.4c8-0.3,16-0.1,23.9-0.5c7.8-0.4,15.6-1.4,23.4-2.2c1.1-0.1,2.3-0.3,3.4-0.4
		c0.1-0.2,0.1-0.4,0.2-0.6c-1.1-0.8-2.1-1.8-3.3-2.5c-8.4-5-15.3-11.8-22.6-18.2c-7.3-6.4-14.2-13.2-21.1-20
		c-5.4-5.3-10.5-10.8-15.7-16.3c-6.2-6.7-12.8-13.1-17.8-20.9c-4.6-7.2-10-14-14.6-21.2c-3-4.6-5.4-9.6-8-14.4
		c-2.3-4.3-4.6-8.5-6.7-12.9C87.5,331.5,85.8,327.4,83.8,322.8z"/>
	<path class="st0" d="M107.4,267.5c-0.7,0.5-1.1,0.8-1.5,1c-6.2,4.7-11,10.8-15.9,16.8c-3.8,4.7-6.7,9.8-8.8,15.4
		c-0.3,0.9-0.6,2-0.3,2.8c2.4,6.9,4.9,13.8,7.5,20.7c1,2.6,2.3,5.1,3.6,7.7c1.9,3.9,3.7,7.8,5.7,11.6c2.3,4.5,4.8,8.8,7.3,13.2
		c0.8,1.5,1.6,3,2.6,4.4c3.9,5.6,7.8,11.2,11.8,16.6c3.1,4.3,6.4,8.4,9.8,12.5c2,2.4,4.2,4.7,6.3,7c3.9,4.3,7.7,8.7,11.9,12.8
		c5.7,5.6,11.5,11.1,17.4,16.5c6.3,5.9,12.7,11.7,19.1,17.5c3.9,3.5,7.8,7,12.3,9.7c3.2,1.9,6.3,4,9.2,6.4c1.3,1.1,2.4,1.5,4,1.5
		c6.4-0.2,12.8-0.3,19.2-0.4c0.7,0,1.4-0.2,2.3-0.3c-0.5-1.2-0.7-2.2-1.2-3.2c-3.8-7.3-7.8-14.5-11.4-21.9c-3.2-6.6-6.3-13.2-9-20.1
		c-3-7.7-5.5-15.7-8.2-23.5c-2.5-7.2-5.1-14.4-7.7-21.6c-0.4-1-1-1.9-1.7-3.2c-0.7,1.1-1.2,1.7-1.5,2.4c-3.7,7.6-8.8,14.1-15.4,19.4
		c-3,2.4-6.3,3.6-10.2,1.9c-1.3-0.6-2.9-0.6-4.4-1c-1.7-0.6-3.6-1-5-2c-6.6-4.7-9.8-11.6-11.1-19.4c-0.8-4.4-1.5-8.9-1.9-13.4
		c-0.7-8.8-5.3-15.1-11.9-20.4c-2.6-2.1-5.4-4-7.8-6.3c-3.3-3.1-6.8-6.1-9.5-9.8c-1.6-2.2-2.9-4.3-2.8-7.1c0.1-3.3,0.2-6.5,0.4-9.8
		c0.2-4.8-0.5-9.5-1.4-14.2c-1.1-5.9-1-12-1.4-18C107.6,269,107.5,268.5,107.4,267.5z"/>
	<path class="st0" d="M339.3,275.8c0.5-0.7,0.8-1.1,1.1-1.6c3.8-7.1,7.6-14.2,11.3-21.3c0.9-1.8,1.7-3.7,2-5.7
		c0.4-3.4,0.4-6.9,0.4-10.4c0-9.3,0.6-18.6-1.9-27.7c-1-3.5-1.8-7.3-5.1-9.4c-2.6-1.6-5.4-3.2-8.3-3.8c-3.7-0.8-7.6-1.2-11.4-1
		c-7.9,0.4-15.6,2.4-23.2,4.8c-1.4,0.4-2.9,0.8-4.9,1.3c1.3,2.6,2.3,5.1,3.8,7.3c1.8,2.6,4,5,6.1,7.5c2.9,3.6,5.6,7.4,8.7,10.8
		c4.6,5,7.2,10.8,8.6,17.4c0.5,2.7,1.1,5.5,2.2,7.9c2.4,5.4,5.3,10.7,7.8,16.1C337.4,270.2,338.2,272.8,339.3,275.8z"/>
	<path class="st0" d="M358.1,236.7c0.2,0.1,0.4,0.1,0.7,0.2c0.4-1.1,1-2.1,1.2-3.2c1.1-6,2.5-12.1,3.2-18.1c0.9-8.2,0.9-16.3-2-24.2
		c-1.5-4.2-4.3-7.5-8.2-9.4c-5.8-2.8-12.1-4.2-18.7-4c-2.9,0.1-5.9,0.3-8.8,0.8c-5.2,0.8-10.4,1.7-15.6,2.7
		c-2.1,0.4-4.1,0.8-6.1,1.3c-3,0.8-6,1.6-9,2.6c-1.3,0.4-1.8,1.4-1.3,2.8c0.8,2.1,1.3,4.2,2.2,6.3c1,2.4,2.2,2.8,4.6,2.2
		c6.3-1.6,12.5-3.4,18.8-4.7c8.4-1.7,16.8-1.8,24.8,1.8c3.8,1.7,7.4,4,8.8,7.7c3.2,8,5.4,16.4,5.3,25.2
		C358.1,229.9,358.1,233.3,358.1,236.7z"/>
	<path class="st1" d="M206.5,397.1c0.9-0.5,1.5-0.8,2-1.2c2.9-2.2,5.8-4.5,8.7-6.7c3-2.2,6.1-4.1,9-6.3c0.7-0.5,1.3-1.7,1.4-2.5
		c0.3-4.2,0.3-8.5,0.5-12.7c0.2-3.6,0.5-7.2,0.9-10.7c0.2-2.1,0.1-2.2-1.8-1.7c-7.4,1.2-21-1.3-26.2-5.2c-0.1,0.1-0.4,0.4-0.5,0.7
		c-1.6,3.1-3.1,6.4-4.9,9.4c-1.2,2.1-0.9,3.9-0.1,5.9c3.1,8.3,6.2,16.5,9.2,24.8C205.3,392.8,205.8,394.9,206.5,397.1z"/>
	<path class="st2" d="M458.9,464.3c0.1-0.2,0.2-0.5,0.2-0.8c0.4-9,0.8-18,1.2-27c0.1-3.5,0.2-6.9,0.3-10.4c0.1-4.4,0.1-8.9,0.2-13.3
		c0.2-5.2,0.5-10.3,0.6-15.5c0.1-3.9-0.2-7.7-0.3-11.6c0-0.8,0-1.6,0-2.4c-0.9-8.3,0-16.6,0.5-24.9c0.5-8.4,1.3-16.7,1.4-25.1
		c0.2-10.6-0.3-21.2-0.3-31.9c0-10.1,0.3-20.2,0.3-30.3c0.1-7.4,0-14.9,0-22.3c0-9-0.1-18.1,0.1-27.1c0.3-17.7,0.8-35.4,1.1-53.1
		c0.2-9.3,0.1-18.6,0.1-27.9c0-9.9-0.1-19.8-0.1-29.7c0-11.1,0.2-22.2,0.1-33.3c0-6.1-0.2-12.2-0.4-18.3c-0.2-7.8-0.5-15.6-0.7-23.4
		c-0.1-3-0.1-6-0.1-9.1c-0.1-6-0.3-12-0.4-18c0-1.3-0.3-2-1.7-2c-1.6,0-3.3,0.1-4.9,0c-5.5-0.3-11-0.9-16.6-1.1
		c-5.1-0.3-10.3-0.4-15.4-0.4c-10.3,0-20.7,0.2-31,0.3c-7.6,0.1-15.1,0.1-22.7,0.1c-13,0-26,0-39,0c-19.2,0.1-38.4-0.2-57.5,1.1
		c-8.4,0.6-16.8,0.4-25.1,0.5c-7.3,0-14.6-0.1-21.9-0.1c-10.1,0-20.1,0.2-30.2,0.1c-8.8-0.1-17.5-0.5-26.3-0.7c-1.3,0-2.1,0.4-2,2
		c0.2,3.1,0.2,6.3,0.3,9.4c0.4,7.4,0.8,14.9,1.3,22.3c0,0.5,0.2,1.1,0.4,1.7c0.5-0.2,0.8-0.3,1-0.4c4.8-4,10-7.4,16-9.5
		c3.3-1.1,6.7-2.6,10.1-3.2c4.7-0.8,9.5-1,14.2-1.3c5.1-0.3,10.2-0.7,15.2-0.8c8.5,0,16.4,2.7,24.2,5.3c6.6,2.2,11.8,6.7,16.7,11.5
		c4.2,4.1,8.3,8.4,12.2,12.8c2,2.2,4.2,4.5,5.1,7.2c1.6,5.1,2.4,10.4,3.4,15.7c0.7,3.5,0.9,7,1.5,10.5c0.7,3.5,1.7,6.9,2.4,10.3
		c1.1,5.2,1.8,10.4,3,15.6c0.7,3.2,2.1,6.2,3,9.3c1.5,5.3,2.1,10.7,1.6,16.3c-0.5,5.7-0.5,11.5-0.9,17.3c-0.3,3.6-1,7-3,10.2
		c-2,3.4-3.2,7.3-4.6,11c-0.2,0.6,0,1.5,0.4,2c0.2,0.3,1.3,0.3,1.7,0c3.4-1.7,7.2-2.3,10.8-3.3c7.3-1.9,14.6-3.2,22.1-4.2
		c6.7-0.8,11.6-1.4,19.7,0.9c8.9,2.5,18.2,10.1,20.6,11.6c7.7,4.6,11.4,12.2,14.8,20c2.9,6.5,3,13.6,3.9,20.6
		c1.1,8.5,1.6,17.1,2.4,25.6c0.7,7.2,3.7,13.5,8.1,19.1c6.8,8.5,13.9,16.7,19.4,26.2c3,5.1,5.5,10.3,6.7,16c1,4.6,1.3,9.3,2,14
		c1,6.9,0.3,13.6-2.9,19.9c-0.3,0.5-0.1,1.2-0.1,1.8c0.2,5.1,0.5,10.3,0.6,15.4c0.1,4.4-0.1,8.7-0.1,13.1c0,1.6,0.3,3.1,0.3,4.7
		c-0.1,3.7-0.5,7.3-0.6,11c-0.1,3.1,0.4,6.2,0.2,9.2c-0.2,5.4-0.6,10.8-1.1,16.2c-1,9.9-2,19.8-3.2,29.7c-0.5,4.1-0.3,8.4-2.7,12.1
		C429.6,462.5,444.2,463.4,458.9,464.3z"/>
	<path class="st2" d="M88,281.4c0.9-1,1.3-1.5,1.7-2c3.6-3.8,7.2-7.8,11-11.4c4-3.8,8.3-7.1,9.6-12.9c0.5-2.2,1.8-4.4,3.4-6.1
		c3.4-3.8,7.4-7,10.8-10.8c2.9-3.1,4.6-7.1,5.1-11.3c0.9-7.6,1.1-15.3,2.1-22.8c0.8-6.1,2.2-12.1,3.6-18.1c0.7-3,2.1-5.9,2.8-9
		c1.3-5.1,2.5-10.2,3.5-15.3c0.3-1.4-0.1-3.1-0.4-4.6c-0.3-1.3-1-2.6-1.2-3.9c-1-7.3-1.7-14.7-3.1-22c-1.4-7.2-2.7-14.3-2.4-21.6
		c0.1-2.3,0.5-4.5,0.7-6.8c0.5-8,2.4-15.7,5.5-23c1.4-3.2,3.1-6.3,5.1-9.2c1.6-2.3,1.5-4.4,1.3-7c-0.7-8.7-1-17.4-1.3-26.1
		c-0.3-7.9-0.3-15.8-0.4-23.8c0-1.3,0-2.6,0-3.9c-0.6,0.1-0.8,0-0.9,0.1c-7.1,3-14.1,6.2-21.3,9.1c-9.2,3.7-18.5,7.2-27.8,10.8
		c-3.8,1.5-7.6,2.9-11.3,4.5c-0.6,0.3-1.3,1-1.4,1.6c-0.3,1.2-0.4,2.5-0.5,3.7c-0.2,10.1-0.3,20.2-0.4,30.3c0,4.8,0.3,9.5,0.4,14.3
		c0.2,11.9,0.2,23.9,0.4,35.8c0.2,12.6,0.5,25.3,0.8,37.9c0.3,12.2,0.5,24.5,0.8,36.7c0.1,6.3,0.2,12.6,0.4,18.9
		c0.2,6.8,0.5,13.6,0.8,20.4c0.5,9.7,1,19.4,1.5,29.2c0.2,4.1,0.3,8.1,0.5,12.2C87.4,277.1,87.7,278.9,88,281.4z"/>
	<path class="st2" d="M20.7,470.2c0-0.1,0-0.2,0-0.3c4.1,0,8.1,0.3,12.2-0.1c4.2-0.4,3.8,0.1,3.9-4.1c0.1-8.1,0-16.3,0.5-24.4
		c0.6-9,1.2-18,0.8-27c-0.6-10.9-0.7-21.9-0.9-32.8c-0.2-10.4-0.2-20.7-0.4-31.1c-0.2-10.8-0.5-21.6-0.8-32.4c-0.1-2.5,0-5-0.1-7.4
		c-0.2-4.6-0.6-9.1-0.8-13.7c-0.3-6.3-0.4-12.5-0.6-18.8c-0.3-12.8-0.5-25.5-0.8-38.3c-0.1-3.9-0.2-7.7-0.3-11.6
		c-0.4-10.7-0.9-21.3-1.2-32c-0.1-5.1,0.3-10.2,0.2-15.3c-0.2-6.1-0.8-12.1-1-18.2c-0.3-7-0.4-14-0.4-21c0-4,0.3-8,0.3-12
		c0-2.6-0.4-3.1-3.1-3.1c-1.7,0-3.4,0.3-5.1,0.3c-4.9-0.1-9.8-0.2-14.7-0.4c-2.2,0-2.4,0.3-2.1,2.5c0.3,2.5,0.6,4.9,0.6,7.4
		c0,3.7-0.3,7.4-0.3,11.1c0,2,0.3,3.9,0.2,5.9c-0.1,3,0.4,42.9,0.6,52.4c0.1,3.4,0,6.8,0.3,10.2c0.5,7.7,1.2,15.4,1.6,23.1
		c0.2,3.2,0,6.4,0.1,9.6c0.2,4.4,0.5,8.9,0.7,13.3c0.2,3.5,0.3,6.9,0.4,10.4c0.2,9.4,0.3,18.7,0.4,28.1c0,6-0.2,12.1-0.1,18.1
		c0.1,7.3,0.5,14.5,0.5,21.8c0.1,10.5,0,21,0,31.4c0,8.1-1.3,16.1-1,24.2c0.5,14.2,0.1,28.4-0.1,42.6c-0.2,10,0.4,20-0.2,30
		c0,0.4,0.8,1.2,1.2,1.2C14.3,470.3,17.5,470.2,20.7,470.2z"/>
	<path class="st2" d="M40.7,466.9c0,2.3,0.4,2.5,2.7,2.4c3.1-0.2,6.3-0.4,9.4-0.3c1.5,0.1,1.7-0.4,1.8-1.7c0.1-2.9,0.3-5.9,0.8-8.7
		c0.6-3.4,1.5-6.8,2.1-10.2c0.1-0.7-0.1-1.5-0.2-2.3c-0.2-1.1-0.8-2.2-0.7-3.4c0-5.6,0.3-11.3,0.3-16.9c0-8.2-0.3-16.3-0.3-24.5
		c-0.1-11.8,0-23.6,0-35.4c0-2.9,0-5.9,0-8.8c0-8.6,0-17.2,0-25.8c0-5.2,0.3-10.5,0.2-15.7c-0.1-8-0.5-16-0.5-23.9
		c0-5.6,0.5-11.1,0.6-16.7c0.2-9.7,0.3-19.5,0.4-29.2c0.1-7.1,0.4-14.1,0.4-21.2c0.1-16.3,0-32.5,0-48.8c0-3,0.3-6,0.4-9
		c0.2-6.7,0.4-13.5,0.5-20.2c0-5.3-0.2-10.6-0.2-15.9c-0.1-13.8-0.2-27.5-0.3-41.3c0-2-0.2-4-0.3-6c-0.1-3.1-0.2-6.3-0.4-9.4
		c-0.2-5.1-0.4-10.2-0.7-15.3c-0.3-6.6-0.9-13.2-0.9-19.8c0-6.9,0.4-13.9,0.7-20.8c0.1-2.8,0.3-5.6,0.3-8.4c0-1.5-0.5-2.6-2.4-2.6
		C48.2,7.1,42,7.1,35.8,7c-1.9,0-2.5,0.8-2.5,2.6c0.1,5.1,0,10.1,0,15.2c0,3.5,0,7,0.1,10.6c0.1,2.6,0.4,5.2,0.5,7.8
		c0,0.6-0.2,1.2-0.4,1.7c-1.1,2.8-0.7,3.4,2.2,3.5c3.4,0.1,4.8,1.3,5,4.7c0.2,4.6-1.3,9.2,0,13.8c0,0.1,0,0.1,0,0.2
		c-1.1,4.7-1.9,9.4-3.3,13.9c-0.5,1.6-0.4,2.8,0.2,4.2c1.2,2.9,1.4,5.7-1.2,8.1c-1.3,1.2-1.2,2.7-1,4.4c0.6,4.1,1.2,8.2,1.4,12.4
		c0.1,1.9-1,3.9-1.2,5.8c-0.4,4.8-0.7,9.7-0.8,14.5c-0.2,8.5-0.3,17-0.2,25.5c0.1,6.7,0.7,13.3,1,20c0.3,5.6,0.6,11.2,0.7,16.8
		c0.1,6.1,0,12.3,0.2,18.4c0.2,5.4,0.9,10.8,1,16.2c0.3,9.8,0.3,19.6,0.4,29.5c0,1.4-0.2,2.7-0.2,4.1c0.1,3.2,0.4,6.4,0.6,9.6
		c0.3,5.1,0.5,10.2,0.7,15.3c0.3,4.8,0.6,9.7,0.8,14.5c0.1,4.4,0,8.8,0,13.1c0.2,11.7,0.5,23.4,0.8,35.2c0.1,5.6,0.1,11.1,0.2,16.7
		c0.2,9.5,0.4,19,0.6,28.5c0.2,8.3,0.3,16.6,0.4,25c0.1,4.9,0.2,9.7-0.1,14.6C41.4,440.5,40.6,463,40.7,466.9z"/>
	<path class="st2" d="M30.2,17.5c-0.1,0-0.1,0-0.2,0c0-2.3,0-4.6,0-6.9c-0.1-2.8-0.5-3.3-3.2-3.3C20.9,7.3,15,7.4,9,7.5
		c-0.6,0-1.2,0.2-1.7,0.3C6.1,7.9,5.8,8.6,5.8,9.7c-0.5,9.5-1.6,19-0.8,28.6c0.2,2.3,0.3,2.6,2.7,2.5c2-0.1,3.9-0.2,5.9-0.2
		c4.3,0.1,8.6,0.2,12.9,0.3c1.3,0,3.1,0.3,3.7-0.4c0.6-0.7,0.1-2.5,0.1-3.7C30.2,30.3,30.2,23.9,30.2,17.5z"/>
	<path class="st2" d="M26.1,112.1c0-0.1,0-0.3,0-0.4c1.4,0,2.9,0.1,4.3-0.1c0.6-0.1,1.5-0.8,1.5-1.3c0.3-3.6,0.5-7.2,0.4-10.8
		c-0.1-3.9-0.3-7.7,2.9-10.7c1.4-1.3,0.1-2.6-0.4-3.9c-0.4-1.1-1.1-1.6-2.4-1.5c-3.3,0.3-6.6,0.4-9.9,0.4c-3.1,0-6.1-0.2-9.2-0.4
		c-2.3-0.2-4.7-0.6-7-0.7c-0.6,0-1.7,0.5-1.7,0.8c0,4.4-0.1,8.9,0.4,13.3c0.4,3.8,0.7,7.6,0.1,11.5c-0.5,2.9,0.2,3.8,3.1,3.8
		C14.2,112.1,20.1,112.1,26.1,112.1z"/>
	<path class="st2" d="M140.7,6.7c-0.5-0.2-0.7-0.4-0.8-0.4c-6.6,0.2-13.2,0.5-19.8,0.7C117.6,7.2,93.2,6.3,86.5,7
		c-2.6,0.3-2.7,0.2-2.8,2.9c-0.3,6.3-0.6,12.7-1,19c-0.1,1.5,0.4,1.7,1.7,1.2c4.2-1.7,8.5-3.3,12.8-5c7.8-3,15.7-6,23.4-9.1
		c6.1-2.5,12-5.3,17.9-7.9C139.2,7.7,139.8,7.2,140.7,6.7z"/>
	<path class="st2" d="M25.1,79.9c2.6-0.2,5.3-0.4,8.1-0.5c1.2-0.1,1.9-0.7,2.1-1.9c0.2-1.3,0.5-2.6,0.8-3.8c0.5-2,1.2-4,1.7-6.1
		c0.2-0.9,0.6-2.2-1.1-2.3c-5.9-0.4-11.7-0.8-17.6-1.1c-3.8-0.2-7.7,0.1-11.5-0.1c-2.1-0.1-2.7,0.8-2.8,2.5
		c-0.2,2.9-0.4,5.9-0.4,8.8c-0.1,2.6,0.6,3.3,3.1,3.5C13.2,79.3,19.1,79.6,25.1,79.9z"/>
	<path class="st2" d="M5,50.9c-0.6,2.5-0.4,5.4-0.2,8.2c0,0.3,0.6,0.8,1,0.8c2.2,0.2,4.4,0.4,6.6,0.4c3.4,0,6.8-0.3,10.2-0.1
		c3.5,0.1,6.9,0.6,10.3,0.9c4.9,0.4,4.1,0.1,4.8-3.5c0.2-0.9,0.4-1.8,0.6-2.7c0.3-2.1-0.2-2.6-2.2-2.7c-2.1,0-4.2,0-6.2-0.1
		C22.9,52,15.9,51.8,9,51.5C7.8,51.5,6.7,51.2,5,50.9z"/>
	<path class="st2" d="M11.9,115.1c-1.9,0.2-3.4,0.3-4.9,0.7c-0.5,0.1-1.2,0.8-1.2,1.2c-0.1,1.5,0.1,3,0.2,4.5
		c0.1,1.1,0.7,1.4,1.9,1.4c6.5-0.1,13-0.1,19.6,0c4.1,0.1,4.1,0.1,4.4-3.9c0-0.1,0-0.1,0-0.2c0.1-3.2,0-3.3-3.1-3.5
		c-0.8-0.1-1.7-0.2-2.5-0.2C21.4,115.1,16.5,115.1,11.9,115.1z"/>
	<path class="st2" d="M5.2,47.6c3,0,6-0.1,8.9,0c4.6,0.1,9.2,0.2,13.9,0.5c1.6,0.1,1.8-0.4,1.5-1.8c-0.3-1.4-1.3-1.4-2.4-1.4
		c-6.2-0.2-12.4-0.2-18.6-0.6C5.1,44.1,4.8,44.3,5.2,47.6z"/>
	<path d="M60.6,432.8c0.2,0,0.4,0,0.5,0.1c0.2-0.9,0.4-1.8,0.6-2.7c2.6-9.5,5.2-19.1,7.7-28.7c1.1-4.2,2.2-8.5,2.7-12.9
		c0.8-6.9,1.1-14,1.7-20.9c0.7-8.5,1.2-17.1,2.4-25.6c1.2-8.5,3.2-16.8,4.7-25.3c0.2-1.3,0.2-2.7-0.2-3.9c-1.2-3.5-2.8-6.9-4.1-10.4
		c-0.3-0.9-0.3-2.2,0.1-3c1-2.2,2.4-4.2,3.3-6.4c1.4-3.4,4.1-6.2,3.6-10.7c-0.9-8-0.9-16.1-1.3-24.1c-0.4-7.4-0.8-14.8-1.2-22.2
		c-0.3-7.3-0.6-14.7-0.8-22c-0.3-9.1-0.6-18.2-0.8-27.3c-0.2-7.8-0.3-15.6-0.4-23.4c-0.1-3.1-0.1-6.3-0.2-9.4
		c-0.2-5.4-0.5-10.9-0.6-16.3c-0.1-3,0-6,0-9c-0.1-10.7-0.2-21.3-0.3-32c0-3.5,0.2-6.9,0.2-10.4c-0.1-7.8-0.3-15.7-0.3-23.5
		c0-8.6,0.1-17.2,0.4-25.8c0.2-6.3,0.8-12.5,1.1-18.8c0.1-3.1,0-6.3,0.1-9.4c0-1.5-0.7-1.9-2.1-1.9c-2,0-4-0.3-6.1-0.3
		c-3.1-0.1-6.3,0-9.4,0c-1.1,0-1.6,0.6-1.6,1.7c-0.4,8.8-1.2,17.5-1.1,26.3c0.1,10.1,1,20.3,1.4,30.4c0.5,11.8,0.9,23.5,1.2,35.3
		c0.2,5.9,0,11.8,0,17.6c0,12.7,0.1,25.4,0,38.1c-0.1,6.5-0.6,13.1-0.6,19.6c-0.1,7.7,0.2,15.3,0.2,23c0,8.4-0.2,16.8-0.4,25.2
		c-0.1,6.7-0.3,13.4-0.4,20c-0.3,15.3-0.6,30.7-0.7,46c-0.1,6.4,0.3,12.7,0.3,19.1c0.1,8.1,0,16.1,0,24.2c0,19.9,0,39.9,0,59.8
		c0,6.9,0.3,13.8,0.3,20.6c0,5.7-0.2,11.5-0.4,17.2C60.5,431.5,60.6,432.1,60.6,432.8z"/>
	<path d="M151.1,63.2c0.2,0.1,0.4,0.1,0.5,0.2c0.4-0.5,0.8-1,1.2-1.5c2.2-2.5,4.3-5.1,6.5-7.6c2.1-2.5,4.4-4.8,6.5-7.3
		c0.4-0.5,0.4-1.4,0.4-2.1c-0.1-5.3-0.2-10.6-0.4-15.9c-0.2-5.3-0.5-10.6-0.8-15.9c-0.1-1.4-0.2-2.7-0.4-4.1
		c-0.2-1.4-0.7-2.4-2.4-2.4c-3.9,0-7.8-0.1-11.7,0c-0.4,0-1.2,0.8-1.3,1.2c-0.2,3.1-0.4,6.3-0.3,9.4c0.4,10.2,0.8,20.4,1.3,30.6
		C150.5,53,150.8,58.1,151.1,63.2z"/>
	<path class="st1" d="M227.4,288.2c3.8,0,6.6-2.4,7.4-3.8c0.8-1.4-0.7-2.7-2.4-2.1c-2.2,1.1-6.5,2-8.8,1.2c-1.2-0.4-2.5-0.3-2.6,1
		C220.7,286.9,223.6,288.2,227.4,288.2z"/>
	<path class="st1" d="M227.4,281c2.5,0,4.2-1.2,4-3c-0.2-1.4-1.5-1.6-2.7-1.6c-2.3,0-4,1.2-4,2.9C224.8,281.1,226.1,280.9,227.4,281
		z"/>
	<path class="st1" d="M230.2,272c0,1.5,0.7,2.3,2.3,2.3c1.6,0,3.4-1.7,3.3-3.4c0-0.5-0.9-1.4-1.5-1.5
		C232.1,269.2,230.2,270.5,230.2,272z"/>
	<path class="st1" d="M235.9,279.7c1.9,0,3.2-1.5,3.2-3.3c0-1-0.1-1.9-1.4-1.9c-2.3,0.1-3.9,1.2-3.9,2.7
		C233.8,278.8,234.7,279.6,235.9,279.7z"/>
	<path class="st1" d="M223.8,275.1c2.2,0,3.4-0.9,3.4-2.4c0-1.9-1.4-1.8-2.7-1.9c-1.6,0-2.9,0.3-2.9,2.3
		C221.5,274.8,222.6,275.1,223.8,275.1z"/>
	<path class="st1" d="M217.6,281.3c2,0,3.3-1,3.4-2.4c0-1.1-0.4-1.7-1.6-1.7c-2.8,0-3.7,0.6-3.7,2.2
		C215.6,280.8,216.4,281.4,217.6,281.3z"/>
	<path class="st1" d="M216,270.9c-2,0-2.1,0.6-2.1,2.1s1.3,1.5,2,1.6c0.6,0.1,1.8,0.2,1.9-1.3C217.9,271.8,218,270.9,216,270.9z"/>
</g>
</svg>
