<?xml version="1.0" encoding="utf-8"?>
<!-- Generator: Adobe Illustrator 19.1.0, SVG Export Plug-In . SVG Version: 6.00 Build 0)  -->
<svg version="1.1" id="Calque_1" xmlns="http://www.w3.org/2000/svg" xmlns:xlink="http://www.w3.org/1999/xlink" x="0px" y="0px"
	 viewBox="0 0 52.6 53.3" style="enable-background:new 0 0 52.6 53.3;" xml:space="preserve">
<style type="text/css">
	.st0{fill:#E01220;}
	.st1{fill:#1F7CAD;}
	.st2{fill:#C0BFBF;}
	.st3{fill:#1F7CAD;stroke:#000000;stroke-width:2;stroke-miterlimit:10;}
	.st4{fill:#6DA3C3;}
	.st5{fill:none;stroke:#E01220;stroke-width:3;stroke-miterlimit:10;}
	.st6{fill:#F5FBF9;}
	.st7{fill:#1D1D1B;}
	.st8{fill:#010202;}
</style>
<g>
	<path d="M19.5,36.4c-2.2-2.5-4.3-4.9-6.6-7.5c-0.8,0.2-1.7,0.3-2.6,0.6c-5.6,1.9-11.4-3-10.1-8.8C1.5,15.5,4.2,10.9,8,7
		c1.6-1.6,3.3-3.1,5-4.6c3.2-3,7.1-2.5,10.9-2c2.5,0.4,3.8,2.6,3.8,5c0,2.8-0.6,5.7-1.1,9.2c1.9,1.5,4.3,3.5,6.9,5.6
		c1.7-2.4,4.2-3.9,7.1-4.3c1.7-0.2,3.7,0.3,5.4,1c2.8,1.1,4.4,3.9,3.8,8c-0.6,4.1-3.6,10.9-9.3,14.2c4.1,4.1,12.1,9.2,12.1,12
		s-3.5,2.8-6.5,0.8c-3.9-2.6-7.8-5.1-11.9-7.7c-1.8,1.2-3.3,2.4-5,3.4c-2.1,1.2-4.1,2.6-6.4,3.2c-3.8,1.1-6.9-1.2-7.3-5.2
		c-0.2-2.2,0-4.3,1.5-6C17.8,38.7,18.5,37.7,19.5,36.4z M20.4,5.1C17.4,1.6,6.3,15,4.6,21.4c-0.4,1.6-0.6,3.4,1,4.4
		c1.3,0.9,2.8,0.3,4-0.6c1.8-1.3,3.5-1,5,0.5c3.1,3.1,6.2,6.2,9.3,9.4c0.6,0.6,0.9,1.5,1.4,2.4c-3.5,2.5-10,9.3-5.3,10.6
		c6.3,1.8,22.4-14.2,23.6-20.2c1.3-1.8,2.2-6.5-1.7-6.4s-5.2,2.7-6.7,7.4c-2.1-1.4-11.8-9.3-16.5-13.5c-1.4-1.3-1.7-2.5-0.7-4.2
		C19.3,9.1,21.7,6.6,20.4,5.1z"/>
	<path class="st1" d="M20.4,5.1C17.4,1.6,6.3,15,4.6,21.4c-0.4,1.6-0.6,3.4,1,4.4c1.3,0.9,2.8,0.3,4-0.6c1.8-1.3,3.5-1,5,0.5
		c3.1,3.1,6.2,6.2,9.3,9.4c0.6,0.6,0.9,1.5,1.4,2.4c-3.5,2.5-10,9.3-5.3,10.6c6.3,1.8,22.4-14.2,23.6-20.2c1.3-1.8,2.2-6.5-1.7-6.4
		s-5.2,2.7-6.7,7.4c-2.1-1.4-11.8-9.3-16.5-13.5c-1.4-1.3-1.7-2.5-0.7-4.2C19.3,9.1,21.7,6.6,20.4,5.1z"/>
</g>
</svg>
