<?xml version="1.0" encoding="utf-8"?>
<!-- Generator: Adobe Illustrator 19.1.0, SVG Export Plug-In . SVG Version: 6.00 Build 0)  -->
<svg version="1.1" id="Calque_1" xmlns="http://www.w3.org/2000/svg" xmlns:xlink="http://www.w3.org/1999/xlink" x="0px" y="0px"
	 viewBox="0 0 947.5 582.9" style="enable-background:new 0 0 947.5 582.9;" xml:space="preserve">
<style type="text/css">
	.st0{fill:#E01220;}
	.st1{fill:#1F7CAD;}
	.st2{fill:#C0BFBF;}
	.st3{fill:#1F7CAD;stroke:#000000;stroke-width:2;stroke-miterlimit:10;}
	.st4{fill:#6DA3C3;}
	.st5{fill:none;stroke:#E01220;stroke-width:3;stroke-miterlimit:10;}
	.st6{fill:#F5FBF9;}
	.st7{fill:#1D1D1B;}
	.st8{fill:#010202;}
	.st9{fill:none;stroke:#C0BFBF;stroke-width:5;stroke-linecap:round;stroke-linejoin:round;}
	.st10{fill:none;stroke:#1F7CAD;stroke-width:5;stroke-linecap:round;stroke-linejoin:round;}
</style>
<g>
	<g>
		<g>
			<path class="st9" d="M261.6,188.6c0,97.6,57.8,110.1,127.1,110.7"/>
			<g>
				<polygon class="st2" points="378.7,307.7 387.3,299.3 378.9,290.7 386.1,290.8 394.4,299.3 385.9,307.7 				"/>
			</g>
		</g>
	</g>
	<g>
		<g>
			<line class="st10" x1="189.4" y1="188.6" x2="189.4" y2="309.7"/>
			<g>
				<polygon class="st1" points="180.9,299.8 189.4,308.2 197.9,299.8 197.9,307 189.4,315.4 180.9,307 				"/>
			</g>
		</g>
	</g>
	<path class="st1" d="M157.5,92.1c-0.4,0-1-0.1-1.5-0.1c-1.8,0.1-3.6,0.4-5.4,0.4c-1.4,0-2.3,0.5-3.1,1.4c-2.2,2.7-4.5,5.5-6.6,8.3
		c-3.2,4.3-5.2,9.2-7,14.1c-1.2,3.2-1.9,6.5-1.9,10c-0.1,3.1,0.8,5.9,1.7,8.8c1,3.4,3.1,6.1,6.5,7.4c2.4,1,4.8,1.9,7.3,2.7
		c6.6,2,13.3,2.6,20.2,1c1.6-0.4,3.1-0.6,4.7-1c5.4-1.3,10.6-2.8,14.6-7c2.8-3,5.4-6.1,6.7-9.9c1.8-5.2,2.1-10.7,0.5-16.1
		c-0.7-2.2-1.7-4.2-2.6-6.3c-3.1-6.9-7.8-12.6-13.9-17.1c-0.5-0.3-0.9-0.7-1.4-1c-2.1,1.8-5,2.1-7.7,3c0.1,0.5,0.2,0.9,0.3,1.3
		c0.3,2.5,0.7,5,0.8,7.6c0.1,1.9-0.1,3.7-0.2,5.6c-0.1,1.1-0.7,2.1-1.9,2.3c-1.3,0.3-2.4-0.2-3.1-1.4c-0.5-0.8-0.8-1.7-1.1-2.5
		c-0.3-0.8-0.3-1.7-0.5-2.5c-0.6,1.5-1,3.1-1.7,4.5c-0.5,1.2-1.8,1.4-2.8,0.6c-1-0.7-1.7-1.7-2.1-2.9c-0.5-1.8-0.8-3.5-0.3-5.3
		C156.3,96.2,156.9,94.2,157.5,92.1z"/>
	<path class="st1" d="M158.6,69.2c0.2,0.6,0.5,1.1,0.6,1.6c0.2,0.9,0.4,1.8,0.4,2.8c0,0.4-0.5,0.8-0.8,1.2c-0.4-0.3-1-0.5-1.1-0.9
		c-0.2-0.5-0.1-1.2-0.2-1.8c-0.2-1.3-1-2.3-2-2.4c-1.9-0.2-3.7-0.1-5.5,0.6c-2,0.8-2.5,1.9-1.9,4c0.5,1.6,1.3,3,2.6,4.2
		c0.8,0.8,1.4,0.9,2.4,0.5c0.9-0.4,1.9-0.6,2.9-0.6c5-0.2,10-0.4,15-0.5c0.9,0,1.6-0.2,1.9-1.1c0.8-2,1.7-3.9,2.3-6
		c0.4-1.4-0.4-2.4-1.9-2.6c-1.5-0.2-2.9,0.3-4.2,0.9c-0.9,0.4-1.1,0.9-1.1,1.9c0.1,1.1,0,2.3-0.1,3.4c-0.1,0.4-0.7,0.9-1.1,0.9
		c-0.4-0.1-0.9-0.6-1-1c-0.1-0.5,0.1-1.2,0.1-1.8c0.1-1,0.2-2.2-0.9-2.7C163,68.9,160.9,68.4,158.6,69.2z"/>
	<path class="st2" d="M149.7,86c2.7-1.5,5.6-2,8.6-1.9c1.5,0,3.1-0.2,4.6-0.3c3.2-0.2,6.5-0.5,9.7-0.7c0.7,0,1.4,0.1,1.5-0.8
		c0.1-0.8-0.2-1.5-1.1-1.7c-0.7-0.2-1.4-0.3-2.2-0.3c-4.2,0-8.4,0.1-12.6,0.2c-1.3,0-2.5,0.2-3.8,0.5c-1.3,0.3-2.6,0.7-3.8,1.2
		C148.9,83,148.5,84.4,149.7,86z"/>
	<path class="st2" d="M149.4,90.2c8.7-0.3,17.3-0.4,25.7-4.3c-0.9-0.2-1.3-0.5-1.7-0.5c-1.9,0-3.9,0.1-5.8,0.2
		c-2.9,0.2-5.8,0.4-8.8,0.5c-2.7,0.1-5.4,0.5-7.9,1.8C150.2,88.5,149.4,88.9,149.4,90.2z"/>
	<path class="st2" d="M164.4,91.7c0.1,0.7,0.2,1.3,0.3,1.9c0.1,3.1,0.2,6.2,0.3,9.4c0,0.6,0.2,1.2,0.4,1.7c0.1,0.3,0.6,0.6,0.9,0.6
		c0.3,0,0.8-0.4,0.9-0.7c0.2-0.6,0.4-1.3,0.4-1.9c0-2.1,0.1-4.2-0.1-6.2c-0.2-1.7-0.6-3.4-0.9-5.2C165.6,91.4,165.1,91.5,164.4,91.7
		z"/>
	<path class="st2" d="M161.5,92.1c-0.9-0.2-1.4-0.1-1.7,0.7c-0.5,1.5-1.1,2.8-1.7,4.3c-0.8,2.1-0.6,4.2,0.1,6.2
		c0.1,0.4,0.5,0.7,0.8,1.3C161.1,100.6,161,96.4,161.5,92.1z"/>
	<path d="M92.7,81.2c0.8,1.3,1.3,2.8,0.9,4.7c-0.2,1,0.1,2.4,1.6,3.1c1.4,0.6,2.6,1.5,4,2.2c3.8,1.8,6.6,4.8,9.2,8
		c2,2.5,3.8,5.2,5.6,7.9c2.4,3.5,3.4,7.6,4.3,11.6c1.1,4.8,0.7,9.5-0.9,14.2c-1.5,4.6-4.6,7.8-8,10.9c-1.5,1.4-3,2.8-4.8,3.8
		c-2.6,1.4-5.3,2.8-8.2,3.4c-4.9,0.9-10,1.5-15,1.1c-3.7-0.3-7.3-1.2-10.7-2.7c-1.6-0.7-3.1-1.4-4.7-2.1c-0.2-0.1-0.5-0.2-0.7-0.3
		c-4.6-3.4-8.5-7.4-9.8-13.3c-0.8-3.3-1.1-6.6-1.1-10c0-7.2,2.8-13.3,6.6-19c2.4-3.6,5.3-6.9,8.1-10.4c-0.8,0.3-1.7,0.5-2.4,0.9
		c-2.5,1.3-5.2,1.5-7.8,1.9c-1.3,0.2-2.3-0.4-2.8-1.4c-0.5-1.1-0.4-2.1,0.4-3.1c1.3-1.4,2.7-2.5,4.7-2.6c0.6,0,1.2-0.3,1.8-0.7
		c-0.9-0.2-1.8-0.4-2.7-0.4c-1.5-0.1-2.6-1-3.5-2.1c-1.4-1.7-0.7-3.6,1.5-3.9c1.5-0.2,3-0.1,4.5,0.1c1.4,0.2,2.8,0.8,4.2,1.2
		c1.1,0.3,2.3,0.6,3.4,0.9c0.5-1.2,0.4-2.1-0.4-3c-1.2-1.4-2.4-2.8-3.6-4.2c-1.3-1.4-1.5-2.5-0.5-4.1c1.7-2.9,4.4-4.4,7.5-5.2
		c1.4-0.4,2.7,0.3,3.4,1.7c1.4-0.7,2.7-1.4,4.1-2c2.1-1,4.3-1,6.6-0.8c0.8,0.1,1.7,0,2.5-0.3c3.5-1.3,5.7,0.2,6.8,3
		c1,2.6,0.7,4.9-1,7.1C95,78.4,93.9,79.6,92.7,81.2z M92.2,89.8c-0.8,0.3-1.5,0.7-2.3,0.8c-2.7,0.5-5.5,0.9-8.2,1.2
		c-1.6,0.2-3.2,0.3-4.7,0.2c-1.6-0.2-2.9,0.2-3.9,1.3c-1.8,2-3.9,3.7-5.4,6c-0.8,1.2-1.7,2.3-2.7,3.4c-2.2,2.6-4.2,5.3-5.5,8.4
		c-1.1,2.8-2.4,5.5-2.9,8.4c-0.8,4.8-0.5,9.7,0.9,14.5c1.4,4.6,4.4,8,8.4,10.4c3.6,2.2,7.5,3.9,11.8,4.6c2.3,0.4,4.6,0.6,6.9,0.6
		c2.4,0,4.7-0.5,7.1-0.7c3-0.2,5.9-0.9,8.6-2.1c4.1-1.8,7.4-4.6,10.6-7.8c4-4,5.8-8.8,6.1-14.2c0.4-5.7-1.4-11-4.1-15.9
		c-1.8-3.3-4.2-6.3-6.5-9.2c-2-2.5-4.2-4.7-7.1-6.3C97,92.4,94.7,91.1,92.2,89.8z M78,72.7c0.1,0.9,0.2,1.5,0.2,2.2
		c0,0.4-0.3,1-0.6,1.1c-0.6,0.2-0.9-0.4-1-0.9c-0.2-0.8-0.3-1.7-0.5-2.5c-0.4-1.6-1.4-2.1-3-1.5c-0.9,0.4-1.8,0.8-2.6,1.4
		c-1.3,0.9-2.6,1.8-3,3.4c1.7,2,3.4,4,5,5.8c5.9-2.4,11.7-3.9,17.8-1.9c2.1-1.1,3.4-2.9,4.7-4.6c0.9-1.3,1-2.6,0.5-3.9
		c-0.4-1.1-0.9-2.2-2.4-2.3c-1.3-0.1-2.5,0.7-3.2,2c-0.6,1.1-1.2,2.3-1.8,3.4c-0.1,0.2-0.5,0.5-0.8,0.4c-0.2,0-0.6-0.4-0.7-0.6
		c-0.1-0.6-0.1-1.3,0.1-1.9c0.2-0.8,0.6-1.6,0.9-2.4C83.8,69,80.8,70.2,78,72.7z M73.8,87.2c3.2-2,6.6-2.5,10.1-2.7
		c2.6-0.2,5.2-0.1,7.9-0.1c0.2-1-0.5-1.6-1.4-2c-0.7-0.3-1.5-0.6-2.2-0.7c-4.4-0.8-8.7-0.3-12.8,1.4c-0.4,0.2-0.9,0.3-1.3,0.6
		C72.4,84.6,72.3,85.6,73.8,87.2z M57.3,95.3c5.8-0.1,13.9-3.3,15.1-6c-4.1,0.9-8,1.8-11.9,2.8c-0.4,0.1-0.7,0.3-1.1,0.4
		C58.2,92.9,57.7,93.9,57.3,95.3z M91.5,87.2c-0.1-0.2-0.1-0.3-0.2-0.5c-5.2,0-10.4-0.4-15.7,2.1c0.6,0.5,1,1,1.4,1.2
		c0.7,0.2,1.4,0.1,2.2,0c2.5-0.3,5.1-0.6,7.6-1c1.2-0.2,2.3-0.5,3.4-0.9C90.7,88,91.1,87.5,91.5,87.2z M70.6,86.9
		c-0.7-0.2-1.4-0.4-2-0.6c-2.2-0.6-4.3-1.3-6.5-1.8c-1.4-0.3-2.8-0.3-4,0.7C59.6,87.2,66.3,88.2,70.6,86.9z"/>
	<path class="st1" d="M92.2,89.8c-0.8,0.3-1.5,0.7-2.3,0.8c-2.7,0.5-5.5,0.9-8.2,1.2c-1.6,0.2-3.2,0.3-4.7,0.2
		c-1.6-0.2-2.9,0.2-3.9,1.3c-1.8,2-3.9,3.7-5.4,6c-0.8,1.2-1.7,2.3-2.7,3.4c-2.2,2.6-4.2,5.3-5.5,8.4c-1.1,2.8-2.4,5.5-2.9,8.4
		c-0.8,4.8-0.5,9.7,0.9,14.5c1.4,4.6,4.4,8,8.4,10.4c3.6,2.2,7.5,3.9,11.8,4.6c2.3,0.4,4.6,0.6,6.9,0.6c2.4,0,4.7-0.5,7.1-0.7
		c3-0.2,5.9-0.9,8.6-2.1c4.1-1.8,7.4-4.6,10.6-7.8c4-4,5.8-8.8,6.1-14.2c0.4-5.7-1.4-11-4.1-15.9c-1.8-3.3-4.2-6.3-6.5-9.2
		c-2-2.5-4.2-4.7-7.1-6.3C97,92.4,94.7,91.1,92.2,89.8z"/>
	<path class="st1" d="M78,72.7c0.1,0.9,0.2,1.5,0.2,2.2c0,0.4-0.3,1-0.6,1.1c-0.6,0.2-0.9-0.4-1-0.9c-0.2-0.8-0.3-1.7-0.5-2.5
		c-0.4-1.6-1.4-2.1-3-1.5c-0.9,0.4-1.8,0.8-2.6,1.4c-1.3,0.9-2.6,1.8-3,3.4c1.7,2,3.4,4,5,5.8c5.9-2.4,11.7-3.9,17.8-1.9
		c2.1-1.1,3.4-2.9,4.7-4.6c0.9-1.3,1-2.6,0.5-3.9c-0.4-1.1-0.9-2.2-2.4-2.3c-1.3-0.1-2.5,0.7-3.2,2c-0.6,1.1-1.2,2.3-1.8,3.4
		c-0.1,0.2-0.5,0.5-0.8,0.4c-0.2,0-0.6-0.4-0.7-0.6c-0.1-0.6-0.1-1.3,0.1-1.9c0.2-0.8,0.6-1.6,0.9-2.4C83.8,69,80.8,70.2,78,72.7z"
		/>
	<path class="st2" d="M73.8,87.2c3.2-2,6.6-2.5,10.1-2.7c2.6-0.2,5.2-0.1,7.9-0.1c0.2-1-0.5-1.6-1.4-2c-0.7-0.3-1.5-0.6-2.2-0.7
		c-4.4-0.8-8.7-0.3-12.8,1.4c-0.4,0.2-0.9,0.3-1.3,0.6C72.4,84.6,72.3,85.6,73.8,87.2z"/>
	<path class="st2" d="M57.3,95.3c5.8-0.1,13.9-3.3,15.1-6c-4.1,0.9-8,1.8-11.9,2.8c-0.4,0.1-0.7,0.3-1.1,0.4
		C58.2,92.9,57.7,93.9,57.3,95.3z"/>
	<path class="st2" d="M91.5,87.2c-0.1-0.2-0.1-0.3-0.2-0.5c-5.2,0-10.4-0.4-15.7,2.1c0.6,0.5,1,1,1.4,1.2c0.7,0.2,1.4,0.1,2.2,0
		c2.5-0.3,5.1-0.6,7.6-1c1.2-0.2,2.3-0.5,3.4-0.9C90.7,88,91.1,87.5,91.5,87.2z"/>
	<path class="st2" d="M70.6,86.9c-0.7-0.2-1.4-0.4-2-0.6c-2.2-0.6-4.3-1.3-6.5-1.8c-1.4-0.3-2.8-0.3-4,0.7
		C59.6,87.2,66.3,88.2,70.6,86.9z"/>
	<path d="M220.9,87.2c-0.7-1.5-1.5-3,0.1-4.2c-1.5-2.9-1.5-3,0.8-4.9c-1.4-1.1-2.8-2.2-4.1-3.3c-1.1-1.1-2.4-2.1-3.2-3.4
		c-1.5-2.4,0.1-5.6,2.8-6.1c1.7-0.3,3.4-0.5,4.9,0.6c0.9,0.7,1.9,0.3,2.8,0c2-0.7,3.9-1.7,5.9-2.2c2.8-0.7,5.5-0.3,7.9,1.3
		c0.7,0.4,1.4,1,2.2,1.6c0.7-0.3,1.4-0.7,2.1-1c1.2-0.5,2.4-1,3.7-1.4c2.4-0.8,4.2,0.1,5.6,2c0.2,0.3,0.4,0.5,0.6,0.8
		c0,0,0.1,0.1,0.2,0.1c0.7-0.3,1.4-0.6,2.1-0.9c1.9-0.7,4.5-0.2,5.4,1.3c1.3,2.2,1.4,4.2-0.8,6.1c-1.6,1.4-3.1,2.8-4.7,4.2
		c0.2,1,0.7,2,0.7,3c0,1.3-0.2,2.6,0,4c0.2,0.8-0.5,1.7-0.8,2.7c0.1,0.1,0.2,0.3,0.4,0.4c2.9,1.8,5.3,4.3,7.4,6.9
		c1.9,2.4,4,4.7,5.9,7.1c0.5,0.6,0.9,1.3,1.3,2c2,4.4,3.8,8.9,4.8,13.7c0.1,0.6,0.1,1.3,0.1,2c0,1.2-0.2,2.5-0.1,3.7
		c0.2,4.9-2,8.7-4.9,12.3c-0.2,0.3-0.6,0.5-0.8,0.9c-1.7,2.9-4.5,4.4-7.2,6.2c-2.9,1.8-6.1,2.3-9.3,3c-6.6,1.5-13.2,1.9-19.9,1.5
		c-4.1-0.2-8.1-1.3-12-2.8c-3-1.1-5.7-2.6-8.4-4.2c-1.8-1.1-3.5-2.6-4.7-4.4c-1-1.5-2-3-2.6-4.6c-1.6-4.1-2-8.4-1.3-12.7
		c1.2-7.9,4.1-15,9-21.3c1.8-2.3,3.8-4.5,5.7-6.8C219.3,89.2,220,88.2,220.9,87.2z M222.9,88c-0.9,1.2-1.7,2.3-2.6,3.4
		c-1.7,2-3.5,3.9-5.1,6c-2.7,3.4-4.8,7.2-6.5,11.2c-2.2,5.3-3.6,10.7-3.2,16.4c0.4,5.7,2.8,10.3,7.8,13.3c0.3,0.2,0.5,0.4,0.8,0.6
		c4.5,3.2,9.6,4.8,14.9,5.6c4.6,0.7,9.2,0.8,13.9,0.3c4.4-0.5,8.8-1.1,13.1-2.3c4.8-1.3,8.8-3.7,11.7-7.8c0.4-0.6,1-1.1,1.4-1.7
		c1.7-2.3,3.4-4.7,3.8-7.5c0.4-3.1,0.1-6.4-0.2-9.6c-0.2-2.7-1.6-5.1-2.5-7.6c-0.9-2.4-2-4.6-3.6-6.5c-1.7-2.1-3.5-4.1-5.3-6.1
		c-1.2-1.3-2.4-2.7-3.7-3.8c-2.4-1.9-4.9-3.8-8.4-3.3c-0.6,0.1-1.2-0.2-1.7-0.2c-1.6-0.1-3.2-0.3-4.9,0.2c0.5,0.8,1,1.4,1.4,2.1
		c1,1.9,1.9,3.7,2.7,5.6c0.2,0.6,0.3,1.3,0.2,1.9c-0.3,2-1.7,2.6-3.4,1.7c-1.8-1-3.1-2.4-4-4.2c-0.8-1.8-1.7-3.6-2.6-5.7
		c-0.4,0.8-0.8,1.3-1.1,1.9c-1.2,2.3-2.3,4.5-3.4,6.8c-0.2,0.5-0.4,1-0.8,1.4c-1.2,1.4-2.4,3-4.6,2.8c-1.6-0.2-2.1-0.6-2.1-2.2
		c0-0.8,0.1-1.7,0.5-2.5c1.3-3.2,2.7-6.4,5.1-9c0.1-0.1,0.1-0.3,0.2-0.6C228.1,88.4,225.5,88.2,222.9,88z M239.2,72.4
		c-0.6-0.9-0.3-1.6-0.2-2.4c0.4-1.9,0-3-1.5-3.6c-1.6-0.6-3.2-1.2-5-0.7c-2,0.6-4,1.2-6,1.9c-0.6,0.2-1.5,0.8-1.5,1
		c0.2,0.7,0.7,1.3,1.2,1.9c0.1,0.2,0.4,0.3,0.7,0.4c0.8,0.4,1.1,1,1.1,1.9c-1.5,0.5-2.5-0.2-3.3-1.2c-0.7-0.8-1.3-1.6-1.8-2.5
		c-1-1.6-2.5-2-4.2-2c-1,0-2.6,1.1-3,2c-0.4,1.1,0.2,1.8,0.9,2.4c1.6,1.4,3.3,2.7,4.9,4.2c1.6,1.5,3.5,1.7,5.6,1.4
		c1.7-0.2,3.4,0.1,5,0.1c3.4-0.1,6.8-0.5,10.2-0.5c2.9-0.1,5.8,0.2,8.6,0.2c0.7,0,1.5-0.1,2-0.5c1.9-1.6,3.8-3.3,5.6-5
		c0.7-0.6,1.5-1.5,0.9-2.4c-0.4-0.6-1.5-0.8-2.4-1.1c-0.3-0.1-0.7,0-0.9,0.2c-0.9,0.6-1.8,1.2-2.7,1.9c-1,0.8-1.8,1.7-2.7,2.5
		c-0.5,0.4-1.2,0.8-1.8,0.1c-0.7-0.7,0-1.2,0.5-1.6c0.6-0.6,1.3-1.1,1.8-1.8c0.3-0.3,0.4-0.9,0.3-1.2c-0.5-1.4-2.6-2.3-4.1-1.8
		c-1.6,0.6-3.2,1.2-4.7,1.9c-0.6,0.2-1.3,0.4-2,0.7C240.8,70.2,241,71.8,239.2,72.4z M254.1,84.2c-0.8-0.2-1.6-0.4-2.4-0.4
		c-2.4,0-4.8,0-7.2,0.1c-6.5,0.1-13-0.1-19.4,0.7c-1.1,0.1-2.2,0-3.2,1.1c1.3,0.1,2.3,0.2,3.3,0.3c2.5,0.1,5.1,0.3,7.6,0.4
		c1.3,0,2.6-0.2,3.9-0.3c0.8-0.1,1.7-0.2,2.9-0.3c0.9,0.7,2.3,0.5,3.7,0.4c0.7-0.1,1.4,0,2.1,0c2.1,0.1,4.2,0.3,6.3,0.3
		C253.1,86.4,253.6,85.9,254.1,84.2z M254,81.7c0-0.7,0.1-1.3-0.1-1.7c-0.1-0.3-0.7-0.5-1.2-0.5c-3.9-0.1-7.7-0.3-11.6-0.2
		c-4.7,0.2-9.5,0.8-14.2,0.3c-1.5-0.1-3.1,0.1-4.5,1.1c-0.1,0.1-0.2,0.3-0.3,0.5c0.4,0.4,0.8,0.9,1.1,1.2
		C227.3,81.6,250.5,81,254,81.7z M226.8,101.1c2.3-1,6.8-7.8,8.6-12.7c-1.2-0.2-1.6,0.7-2.2,1.3C230.1,92.8,228.2,96.6,226.8,101.1z
		 M244.7,98.3c0.1-0.6,0.2-1,0.1-1.3c-0.7-3.2-2.3-6-4.6-8.3c-0.3-0.3-0.9-0.2-1.7-0.4c1.3,3.4,2.5,6.3,4.5,8.8
		C243.4,97.5,244,97.8,244.7,98.3z"/>
	<path class="st2" d="M222.9,88c-0.9,1.2-1.7,2.3-2.6,3.4c-1.7,2-3.5,3.9-5.1,6c-2.7,3.4-4.8,7.2-6.5,11.2
		c-2.2,5.3-3.6,10.7-3.2,16.4c0.4,5.7,2.8,10.3,7.8,13.3c0.3,0.2,0.5,0.4,0.8,0.6c4.5,3.2,9.6,4.8,14.9,5.6
		c4.6,0.7,9.2,0.8,13.9,0.3c4.4-0.5,8.8-1.1,13.1-2.3c4.8-1.3,8.8-3.7,11.7-7.8c0.4-0.6,1-1.1,1.4-1.7c1.7-2.3,3.4-4.7,3.8-7.5
		c0.4-3.1,0.1-6.4-0.2-9.6c-0.2-2.7-1.6-5.1-2.5-7.6c-0.9-2.4-2-4.6-3.6-6.5c-1.7-2.1-3.5-4.1-5.3-6.1c-1.2-1.3-2.4-2.7-3.7-3.8
		c-2.4-1.9-4.9-3.8-8.4-3.3c-0.6,0.1-1.2-0.2-1.7-0.2c-1.6-0.1-3.2-0.3-4.9,0.2c0.5,0.8,1,1.4,1.4,2.1c1,1.9,1.9,3.7,2.7,5.6
		c0.2,0.6,0.3,1.3,0.2,1.9c-0.3,2-1.7,2.6-3.4,1.7c-1.8-1-3.1-2.4-4-4.2c-0.8-1.8-1.7-3.6-2.6-5.7c-0.4,0.8-0.8,1.3-1.1,1.9
		c-1.2,2.3-2.3,4.5-3.4,6.8c-0.2,0.5-0.4,1-0.8,1.4c-1.2,1.4-2.4,3-4.6,2.8c-1.6-0.2-2.1-0.6-2.1-2.2c0-0.8,0.1-1.7,0.5-2.5
		c1.3-3.2,2.7-6.4,5.1-9c0.1-0.1,0.1-0.3,0.2-0.6C228.1,88.4,225.5,88.2,222.9,88z"/>
	<path class="st2" d="M239.2,72.4c-0.6-0.9-0.3-1.6-0.2-2.4c0.4-1.9,0-3-1.5-3.6c-1.6-0.6-3.2-1.2-5-0.7c-2,0.6-4,1.2-6,1.9
		c-0.6,0.2-1.5,0.8-1.5,1c0.2,0.7,0.7,1.3,1.2,1.9c0.1,0.2,0.4,0.3,0.7,0.4c0.8,0.4,1.1,1,1.1,1.9c-1.5,0.5-2.5-0.2-3.3-1.2
		c-0.7-0.8-1.3-1.6-1.8-2.5c-1-1.6-2.5-2-4.2-2c-1,0-2.6,1.1-3,2c-0.4,1.1,0.2,1.8,0.9,2.4c1.6,1.4,3.3,2.7,4.9,4.2
		c1.6,1.5,3.5,1.7,5.6,1.4c1.7-0.2,3.4,0.1,5,0.1c3.4-0.1,6.8-0.5,10.2-0.5c2.9-0.1,5.8,0.2,8.6,0.2c0.7,0,1.5-0.1,2-0.5
		c1.9-1.6,3.8-3.3,5.6-5c0.7-0.6,1.5-1.5,0.9-2.4c-0.4-0.6-1.5-0.8-2.4-1.1c-0.3-0.1-0.7,0-0.9,0.2c-0.9,0.6-1.8,1.2-2.7,1.9
		c-1,0.8-1.8,1.7-2.7,2.5c-0.5,0.4-1.2,0.8-1.8,0.1c-0.7-0.7,0-1.2,0.5-1.6c0.6-0.6,1.3-1.1,1.8-1.8c0.3-0.3,0.4-0.9,0.3-1.2
		c-0.5-1.4-2.6-2.3-4.1-1.8c-1.6,0.6-3.2,1.2-4.7,1.9c-0.6,0.2-1.3,0.4-2,0.7C240.8,70.2,241,71.8,239.2,72.4z"/>
	<path class="st1" d="M254.1,84.2c-0.8-0.2-1.6-0.4-2.4-0.4c-2.4,0-4.8,0-7.2,0.1c-6.5,0.1-13-0.1-19.4,0.7c-1.1,0.1-2.2,0-3.2,1.1
		c1.3,0.1,2.3,0.2,3.3,0.3c2.5,0.1,5.1,0.3,7.6,0.4c1.3,0,2.6-0.2,3.9-0.3c0.8-0.1,1.7-0.2,2.9-0.3c0.9,0.7,2.3,0.5,3.7,0.4
		c0.7-0.1,1.4,0,2.1,0c2.1,0.1,4.2,0.3,6.3,0.3C253.1,86.4,253.6,85.9,254.1,84.2z"/>
	<path class="st1" d="M254,81.7c0-0.7,0.1-1.3-0.1-1.7c-0.1-0.3-0.7-0.5-1.2-0.5c-3.9-0.1-7.7-0.3-11.6-0.2
		c-4.7,0.2-9.5,0.8-14.2,0.3c-1.5-0.1-3.1,0.1-4.5,1.1c-0.1,0.1-0.2,0.3-0.3,0.5c0.4,0.4,0.8,0.9,1.1,1.2
		C227.3,81.6,250.5,81,254,81.7z"/>
	<path class="st1" d="M226.8,101.1c2.3-1,6.8-7.8,8.6-12.7c-1.2-0.2-1.6,0.7-2.2,1.3C230.1,92.8,228.2,96.6,226.8,101.1z"/>
	<path class="st1" d="M244.7,98.3c0.1-0.6,0.2-1,0.1-1.3c-0.7-3.2-2.3-6-4.6-8.3c-0.3-0.3-0.9-0.2-1.7-0.4c1.3,3.4,2.5,6.3,4.5,8.8
		C243.4,97.5,244,97.8,244.7,98.3z"/>
	<path class="st1" d="M43.1,123.7c-0.4,0-1-0.1-1.5-0.1c-1.8,0.1-3.6,0.4-5.4,0.4c-1.4,0-2.3,0.5-3.1,1.4c-2.2,2.7-4.5,5.5-6.6,8.3
		c-3.2,4.3-5.2,9.2-7,14.1c-1.2,3.2-1.9,6.5-1.9,10c-0.1,3.1,0.8,5.9,1.7,8.8c1,3.4,3.1,6.1,6.5,7.4c2.4,1,4.8,1.9,7.3,2.7
		c6.6,2,13.3,2.6,20.2,1c1.6-0.4,3.1-0.6,4.7-1c5.4-1.3,10.6-2.8,14.6-7c2.8-3,5.4-6.1,6.7-9.9c1.8-5.2,2.1-10.7,0.5-16.1
		c-0.7-2.2-1.7-4.2-2.6-6.3c-3.1-6.9-7.8-12.6-13.9-17.1c-0.5-0.3-0.9-0.7-1.4-1c-2.1,1.8-5,2.1-7.7,3c0.1,0.5,0.2,0.9,0.3,1.3
		c0.3,2.5,0.7,5,0.8,7.6c0.1,1.9-0.1,3.7-0.2,5.6c-0.1,1.1-0.7,2.1-1.9,2.3c-1.3,0.3-2.4-0.2-3.1-1.4c-0.5-0.8-0.8-1.7-1.1-2.5
		c-0.3-0.8-0.3-1.7-0.5-2.5c-0.6,1.5-1,3.1-1.7,4.5c-0.5,1.2-1.8,1.4-2.8,0.6c-1-0.7-1.7-1.7-2.1-2.9c-0.5-1.8-0.8-3.5-0.3-5.3
		C41.9,127.7,42.5,125.8,43.1,123.7z"/>
	<path class="st2" d="M50,123.2c0.1,0.7,0.2,1.3,0.3,1.9c0.1,3.1,0.2,6.2,0.3,9.4c0,0.6,0.2,1.2,0.4,1.7c0.1,0.3,0.6,0.6,0.9,0.6
		c0.3,0,0.8-0.4,0.9-0.7c0.2-0.6,0.4-1.3,0.4-1.9c0-2.1,0.1-4.2-0.1-6.2c-0.2-1.7-0.6-3.4-0.9-5.2C51.3,122.9,50.7,123.1,50,123.2z"
		/>
	<path class="st1" d="M44.2,100.8c0.2,0.6,0.5,1.1,0.6,1.6c0.2,0.9,0.4,1.8,0.4,2.8c0,0.4-0.5,0.8-0.8,1.2c-0.4-0.3-1-0.5-1.1-0.9
		c-0.2-0.5-0.1-1.2-0.2-1.8c-0.2-1.3-1-2.3-2-2.4c-1.9-0.2-3.7-0.1-5.5,0.6c-2,0.8-2.5,1.9-1.9,4c0.5,1.6,1.3,3,2.6,4.2
		c0.8,0.8,1.4,0.9,2.4,0.5c0.9-0.4,1.9-0.6,2.9-0.6c5-0.2,10-0.4,15-0.5c0.9,0,1.6-0.2,1.9-1.1c0.8-2,1.7-3.9,2.3-6
		c0.4-1.4-0.4-2.4-1.9-2.6c-1.5-0.2-2.9,0.3-4.2,0.9c-0.9,0.4-1.1,0.9-1.1,1.9c0.1,1.1,0,2.3-0.1,3.4c-0.1,0.4-0.7,0.9-1.1,0.9
		c-0.4-0.1-0.9-0.6-1-1c-0.1-0.5,0.1-1.2,0.1-1.8c0.1-1,0.2-2.2-0.9-2.7C48.6,100.4,46.5,100,44.2,100.8z"/>
	<path class="st2" d="M35.3,117.5c2.7-1.5,5.6-2,8.6-1.9c1.5,0,3.1-0.2,4.6-0.3c3.2-0.2,6.5-0.5,9.7-0.7c0.7,0,1.4,0.1,1.5-0.8
		c0.1-0.8-0.2-1.5-1.1-1.7c-0.7-0.2-1.4-0.3-2.2-0.3c-4.2,0-8.4,0.1-12.6,0.2c-1.3,0-2.5,0.2-3.8,0.5c-1.3,0.3-2.6,0.7-3.8,1.2
		C34.5,114.6,34.1,116,35.3,117.5z"/>
	<path class="st2" d="M35,121.8c8.7-0.3,17.3-0.4,25.7-4.3c-0.9-0.2-1.3-0.5-1.7-0.5c-1.9,0-3.9,0.1-5.8,0.2
		c-2.9,0.2-5.8,0.4-8.8,0.5c-2.7,0.1-5.4,0.5-7.9,1.8C35.8,120,35,120.5,35,121.8z"/>
	<path class="st2" d="M47.1,123.7c-0.9-0.2-1.4-0.1-1.7,0.7c-0.5,1.5-1.1,2.8-1.7,4.3c-0.8,2.1-0.6,4.2,0.1,6.2
		c0.1,0.4,0.5,0.7,0.8,1.3C46.7,132.1,46.7,127.9,47.1,123.7z"/>
	<path class="st2" d="M265.7,116.2c-1.4,0.1-2.3,0.1-3.3,0.3c-4.3,0.8-8.7,0.9-13.1,0.8c-1.3,0-2.1,0.4-2.8,1.3
		c-1.7,2.4-3.6,4.6-5.2,7.1c-1.5,2.4-2.9,4.9-4.2,7.4c-1.1,2.2-2.1,4.5-3.1,6.9c-1.4,3.5-2,7.3-1.8,11c0.1,3.2,0.9,6.3,1.7,9.4
		c0.8,3.3,2.2,6.4,4.9,8.6c2.1,1.7,4.6,2.9,7,4c2.7,1.1,5.6,1.5,8.5,1.8c4.8,0.5,9.6,0.5,14.3-0.5c6.7-1.4,12.5-4.2,16.8-9.7
		c0.7-0.9,1.5-1.7,1.9-2.7c2.3-5.7,2.5-11.7,1.1-17.6c-1.1-4.8-2.7-9.5-5.5-13.7c-2.8-4.2-5.6-8.5-9.5-11.8c-0.6-0.5-1.3-0.9-2-1.4
		c0.2,1.8,0.7,3.4,1.1,5c0.6,2.3,1.2,4.7,1.6,7.1c0.3,1.5-0.1,2.9-1.6,3.8c-0.4,0.2-0.8,0.6-1.1,0.8c-2.9-1-4.2-3.1-4.5-6
		c-0.2-1.8-0.3-3.6-0.5-5.4C266.4,120.6,266,118.5,265.7,116.2z"/>
	<path class="st2" d="M264.1,105.1c0.6-0.7,1-1.4,1.6-1.9c1.1-1,2.2-2,3.3-2.9c1.7-1.4,2.2-3.3,2-5.4c-0.1-0.5-0.4-1.2-0.8-1.3
		c-1.3-0.6-2.7-1.3-4.2-0.9c-2.8,0.8-5.5,1.7-8.3,2.6c1.2,3.8,1.1,4.2-0.4,5.3c-0.3-0.8-0.7-1.5-0.8-2.3c-0.2-1.8-1.5-2.5-3-2.6
		c-1.5-0.2-3-0.2-4.4,0.5c0.6,1.7,1.2,3.3,1.9,4.9c0.4,1,0.3,1.8-1,2.4c-0.5-1.4-1-2.7-1.5-4c-0.4-1.2-1.1-2.1-2.5-2.2
		c-1-0.1-2,0-2.9,0.1c-2.1,0.3-3.4,1.5-2.9,3.9c0.1,0.5,0.2,1.1,0.5,1.6c1.3,2.8,2.8,5.3,6.2,5.9c0.4,0.1,0.7,0.4,1,0.6
		c2.4-1.7,4.9-3,7.8-3.3C258.4,105.7,261.2,105.4,264.1,105.1z"/>
	<path class="st1" d="M248,112.8c6-2.7,12.3-2.6,18.7-2.8c-0.9-1.8-2.1-2.3-3.7-2.3c-3.2-0.1-6.2,0.6-9.3,1.3
		c-1.8,0.4-3.3,1.5-4.7,2.5C248.6,111.7,248.4,112.3,248,112.8z"/>
	<path class="st1" d="M271.9,114.8c1.2,0.6,2,1.3,2.9,1.5c2.2,0.4,4.5,0.7,6.8,0.7c1.4,0,3-0.1,4.2-1.2
		C283.8,114,277,113.5,271.9,114.8z"/>
	<path class="st1" d="M271.2,131.5c1.2-0.7,1.1-1.7,0.9-2.7c-0.8-3.9-1.7-7.7-3.3-11.4c-0.3-0.6-0.7-1.2-1.1-2.1
		c0.3,2.3,0.6,4.2,0.8,6.1c0.3,2.3,0.6,4.5,0.8,6.8C269.5,129.7,270.1,130.7,271.2,131.5z"/>
	<path class="st1" d="M250.5,114.6c3.2,1,15.3-0.6,16.7-2.3c-3,0.1-5.7,0.2-8.5,0.3C255.9,112.7,253.3,113.4,250.5,114.6z"/>
	<g>
		<path d="M167.4,434c4.1-0.9,7.6-1.7,11.1-2.5c4.7-1.1,6.4,0.8,6.3,5.5c-0.3,9.3-0.2,18.7,0.1,28.1c0.1,4.8,1,9.6,1.5,14.4
			c0.2,2.6-0.5,2.9-3.5,3c-4,0.2-8.1,0.7-12.1,1.2c-8.5,1.1-17.1,1.8-25.7,1.6c-2.3-0.1-4.6,0-7.5,0c-0.1,5.1,1.6,22.6-0.5,26.7
			c-7.6,0-14.8,0.1-22.1,0c-2.4,0-3.3-11.5,2.5-14c5.8-2.5,8.9-1.1,14.8-0.8c0.3-3.5,0.5-7.1,0.8-10.9c-2-0.3-3.9-0.7-5.8-0.8
			c-5-0.3-6.6-17.4-6.3-22.2c-3.3,0.7-6.4,1.4-10.2,2.2c-0.1,1.9-0.3,17.9-0.2,23.8c0,1.4,0.2,8.8,0.3,10.1c0.1,2.9,0.4,5.6,0,7.6
			c-3.5,0.4-9.8,0.4-13.4,0.9c-2.9,0.4-5.8,1-8.7,1.4c-1.1,0.1-2.6,0.3-3.5-0.3c-2.9-1.9-1.9-10,1.3-11.4c4.9-2.1,9.9-2.4,15.1-1.1
			c1.5,0.4,3,0.9,4.4,1.4c0-10.9,0-21.6,0-31.8c-7.7-2.1-15-4.2-22.4-5.9c-4.7-1.1-7.9-4.7-6.8-10.4c0.5-2.4,0.7-4.9,1.1-7.7
			c-3.3-0.8-6.6-1.6-9.8-2.4c-1-0.3-2.5-0.7-2.6-1.3c-0.6-2.8-1.3-5.8-0.9-8.6c0.6-3.7,3-5,6.9-4.4c3,0.5,5.9,1.7,9.1,2.6
			c1.4-13.7,5.5-26.6,9.3-39.6c0.8-2.8,0-4.5-2.2-5.9c-10.9-7.4-14.6-18.6-15.9-31c-0.7-7.1,3.8-16.6,8.4-21.7
			c12.4-13.3,23.4-15.7,28.5-16.3c14.5-2.7,34.1,0.5,42.9,6.2c10.4,6.7,17.2,16.2,18.4,29c0.1,1.4-0.1,2.8-0.2,4.2
			c-1.8,12.7-7.9,22.7-18.6,29.9c-0.6,0.4-1.3,0.9-2.2,1.5c3,10.8,5.8,21.6,9.2,32.3c0.9,2.8,2.2,6.1,6.2,6.9
			c2.4,0.5,2.8,3.2,3.1,5.4C167.6,430.2,167.4,431.8,167.4,434z M76.3,348.1c0.2,9.4,1.8,15.3,5,20.9c2.4,4.2,6.1,7,9.6,10.1
			c8.4,7.3,18.5,9.4,29.2,8.4c5.8-0.6,11.6-2.4,17.2-4.1c7.3-2.1,13.4-6.4,18.8-11.9c5.7-5.9,8.6-13.1,9.2-20.9
			c0.7-9.1-3.4-16.7-10.2-22.6c-8.9-7.9-20.1-9.8-31.3-10.4C117.1,317.1,81.4,319,76.3,348.1z M138.4,395.3
			c-4.7,2.1-37.3,4.9-45.3-1.3c-1.3,5.8-2.5,11-3.5,16.1c-1.4,7.3-2,14.9-4.2,22c-2.2,7.1-2.8,14.3-3.9,21.7c12.7,4.7,25.3,8,39,3.9
			c0.1-7.6-2.1-17.4,0.5-19.7c2.6-2.2,12.8-0.9,20.3-2.8c-0.5-5.7,2.1-9.6,7.1-11.2C149.7,414.1,142.1,402.5,138.4,395.3z
			 M128,480.1c17.6-0.2,35.5,0,53.5-3.6c-0.5-6.4-1.2-12.9-1.4-19.4c-0.2-6.6-0.1-13.3-0.1-19.7c-18.8,2.7-37.5,3.9-56.8,3.7
			C125.3,453.5,124.4,466.6,128,480.1z M146,435.3c2.3-0.3,4.1-0.5,5.9-0.7c-0.9-1.7-1.6-3.1-2.4-4.6
			C146.7,430.7,145.3,432.1,146,435.3z M146.6,392.7c-0.4-0.2-2.5,0.9-2.3,1.3c1.2,3.1,8.2,22.2,10,22.2
			C156,416.2,147.4,396.1,146.6,392.7z M162.8,433.9c-0.1-2-0.2-3.9-0.3-5.7c-2.5,1.6-2.5,3.8-2.8,6.2
			C160.8,434.3,161.7,434.1,162.8,433.9z"/>
		<path d="M110.8,360.8c0-2.7,1.4-4.2,3.8-4.2c2.3,0.1,4.7,2.6,4.7,5c0,2-2.6,4.7-4.5,4.6C112.5,366.2,110.8,363.9,110.8,360.8z"/>
		<path d="M128.1,360.8c0-2.7,1.4-4.2,3.8-4.2c2.3,0.1,4.7,2.6,4.7,5c0,2-2.6,4.7-4.5,4.6C129.8,366.2,128.1,363.9,128.1,360.8z"/>
		<path class="st1" d="M138.4,395.3c-4.7,2.1-37.3,4.9-45.3-1.3c-1.3,5.8-2.5,11-3.5,16.1c-1.4,7.3-2,14.9-4.2,22
			c-2.2,7.1-2.8,14.3-3.9,21.7c12.7,4.7,25.3,8,39,3.9c0.1-7.6-2.1-17.4,0.5-19.7c2.6-2.2,12.8-0.9,20.3-2.8
			c-0.5-5.7,2.1-9.6,7.1-11.2C149.7,414.1,142.1,402.5,138.4,395.3z"/>
		<path class="st1" d="M128,480.1c17.6-0.2,35.5,0,53.5-3.6c-0.5-6.4-1.2-12.9-1.4-19.4c-0.2-6.6-0.1-13.3-0.1-19.7
			c-18.8,2.7-37.5,3.9-56.8,3.7C125.3,453.5,124.4,466.6,128,480.1z"/>
		<path class="st1" d="M146,435.3c2.3-0.3,4.1-0.5,5.9-0.7c-0.9-1.7-1.6-3.1-2.4-4.6C146.7,430.7,145.3,432.1,146,435.3z"/>
		<path class="st1" d="M146.6,392.7c-0.4-0.2-2.5,0.9-2.3,1.3c1.2,3.1,8.2,22.2,10,22.2C156,416.2,147.4,396.1,146.6,392.7z"/>
	</g>
	<g>
		<path d="M313.7,447.3c0.1-5.4-0.2-10.8-0.6-16.1c-0.1-1.6-0.8-3.8-1.9-4.5c-1.5-1-3.8-1.2-5.8-1c-3.8,0.2-7.6,1-11.4,1.4
			c-1.8,0.2-3.6,0-4.8,0c-1.5-5.2-2.8-10-4.3-14.6c-3.1-9.6-6.3-19.1-6.2-29.8c7.7-2.7,21.9-17.6,21.6-30.1
			c-0.3-12.5-7.4-35.1-38.4-40.2c-16-2.6-45.6,6-52.9,22.3c-7.2,16.3-5.6,30.1,5,40.2c2.4,2.2,4.9,4.3,7.5,6.6
			c-2.8,11.4-5.7,22.9-8.6,34.5c-5.5,0.3-10.6,0.5-15.9,0.8c-0.2,1-0.4,1.6-0.4,2.1c0,1.6,0,3.1,0.1,4.7c0.3,3.8,1.6,4.9,5.5,4.6
			c2.6-0.2,5.2-0.5,8.1-0.8c-0.1,1.6,0,2.8-0.2,3.8c-1.6,7.9-3.3,15.8-5,23.7c-0.7,3.2-0.2,4.9,2.6,5.7c4.3,1.4,8.7,2.4,13.1,3.3
			c2.9,0.6,5.8,0.7,8.9,1.1c1.1,11.4,2.6,22.6,1.6,34.3c-7.7-2.4-14.9,0.2-22.1,0.9c-1.8,5.6,0.2,8.7,5.9,8.4
			c5.8-0.3,11.5-0.9,17.3-1.5c1.7-0.2,3.1-1.1,3.1-3.4c0-3,0.4-5.9,0.6-8.9c0.6-8.3-1.3-16.4-1.8-24.6c-0.1-1.4,0.1-2.9,0.1-4.6
			c2.2,0.1,3.9,0.2,6,0.3c-0.9,3.8,0,14.1,1.7,14.3c4,0.5,8.1,0.6,12.2,0.9c0.9,0.1,1.9,0.1,2.7,0.1c0,6.6,0,12.9,0,19.4
			c-6-0.7-11.7-1.5-17.4,1c0.2,2.5,0.3,4.7,0.7,6.9c0.5,2.8,1.3,3.5,4.4,3.4c4.5,0,9.1-0.1,13.6-0.2c3.6-0.1,4.8-1.8,3.9-5.2
			c-0.4-1.5-1-3-1-4.5c-0.2-5.7-0.3-11.4-0.3-17.1c0-1.2,0.1-2.5,0.2-3.9c15.6-1.6,50.7,2.1,52.5-1.1
			C315.4,476.7,313.6,455.6,313.7,447.3z M282,419.5c-3.9-1.3-3.9-1.3-5.2-3.3c-1.2-1.9-3-3.4-3.9-5.4c-1.4-3.2-2.3-6.7-3.2-10.1
			c-0.8-2.8-1.2-5.8-1.9-9.2c2.7-0.2,5-0.4,6.9-0.6C277.2,400.6,279.6,410.1,282,419.5z M282.3,427.8c-2,0.1-3.8,0.2-6,0.4
			c0.8-1.7,1.4-3,2-4.4C281.1,424.6,281.1,424.6,282.3,427.8z M272.9,428.6c-2.7,0.2-5.1,0.3-8.4,0.5c1.2-2.1,1.9-3.2,2.5-4.3
			C268.9,426.1,270.6,427.2,272.9,428.6z M209,358c-1.8-35.6,31.5-40.2,39.5-40.9c6.4-0.6,13.1-0.1,19.4,1.3
			c20.5,4.5,27.2,25.8,27.4,34.5s-7.7,18.2-10.4,20.2c-9.6,7.5-20.5,11.4-33.3,10.7c-8.8,0.7-17.6-1.7-25.9-5.6
			C217.2,374.2,211.1,367.6,209,358z M240.7,430.1c-1.9,1.2-0.2,20.1-0.4,30.5c-10.7,0.2-20.5-1-30.6-4.2c0.3-1.9,0.5-3.6,0.8-5.2
			c1.4-8.2,11.8-51.6,12.7-56.7c0.3-1.5,0.8-3,1.3-5c6.6,4.6,13.8,4.5,21.1,4.4c5.9-0.1,11.9-0.2,18.4-0.4c0.6,2.6,1.3,5.4,1.9,8.1
			c0.5,2,1.1,4.1,1.6,6.1c0.5,2.2,1.8,4.4,0.4,6.9c-0.6,1.1-0.1,2.8-0.1,4c-1.9,1.5-3.9,2.5-5,4.1c-1.2,1.7-1.6,3.9-2.4,6.1
			c-3.1,0.2-6.5,0.4-9.8,0.6C247.4,429.7,242.7,428.9,240.7,430.1z M264.6,476c-1.6,0-3.1,0.5-4.6,0.5c-5-0.1-10.2,1-15.3-0.8
			c0-0.6,0-1.1-0.1-1.6c-0.4-3.6-0.4-26.5-0.5-31.6c0-2.4,0-4.8,0-7.4c21.3-1.4,43-2.9,65.3-4.4c0.7,3.4,0.8,7.4,0.7,11.2
			c-0.3,10.6-0.9,21.2-1.4,31.9c0,0.5,0,0.9,0.1,1.3c-4.1,0-10.8,0.2-13.4,0.3C285,475.5,274.8,475.7,264.6,476z"/>
		<path d="M261.8,363.9c2,0.1,4.1-1.6,4.1-3.3c0.1-2.5-1.9-4.9-4.1-4.9c-2.3,0-4.1,1.4-4.1,3.2C257.7,361.4,259.6,363.8,261.8,363.9
			z"/>
		<path d="M244,363.9c2,0.1,4.1-1.6,4.1-3.3c0.1-2.5-1.9-4.9-4.1-4.9c-2.3,0-4.1,1.4-4.1,3.2C239.8,361.4,241.8,363.8,244,363.9z"/>
		<path class="st1" d="M282,419.5c-3.9-1.3-3.9-1.3-5.2-3.3c-1.2-1.9-3-3.4-3.9-5.4c-1.4-3.2-2.3-6.7-3.2-10.1
			c-0.8-2.8-1.2-5.8-1.9-9.2c2.7-0.2,5-0.4,6.9-0.6C277.2,400.6,279.6,410.1,282,419.5z"/>
		<path class="st1" d="M282.3,427.8c-2,0.1-3.8,0.2-6,0.4c0.8-1.7,1.4-3,2-4.4C281.1,424.6,281.1,424.6,282.3,427.8z"/>
		<path class="st1" d="M272.9,428.6c-2.7,0.2-5.1,0.3-8.4,0.5c1.2-2.1,1.9-3.2,2.5-4.3C268.9,426.1,270.6,427.2,272.9,428.6z"/>
		<path class="st1" d="M240.7,430.1c-1.9,1.2-0.2,20.1-0.4,30.5c-10.7,0.2-20.5-1-30.6-4.2c0.3-1.9,0.5-3.6,0.8-5.2
			c1.4-8.2,11.8-51.6,12.7-56.7c0.3-1.5,0.8-3,1.3-5c6.6,4.6,13.8,4.5,21.1,4.4c5.9-0.1,11.9-0.2,18.4-0.4c0.6,2.6,1.3,5.4,1.9,8.1
			c0.5,2,1.1,4.1,1.6,6.1c0.5,2.2,1.8,4.4,0.4,6.9c-0.6,1.1-0.1,2.8-0.1,4c-1.9,1.5-3.9,2.5-5,4.1c-1.2,1.7-1.6,3.9-2.4,6.1
			c-3.1,0.2-6.5,0.4-9.8,0.6C247.4,429.7,242.7,428.9,240.7,430.1z"/>
		<path class="st1" d="M264.6,476c-1.6,0-3.1,0.5-4.6,0.5c-5-0.1-10.2,1-15.3-0.8c0-0.6,0-1.1-0.1-1.6c-0.4-3.6-0.4-26.5-0.5-31.6
			c0-2.4,0-4.8,0-7.4c21.3-1.4,43-2.9,65.3-4.4c0.7,3.4,0.8,7.4,0.7,11.2c-0.3,10.6-0.9,21.2-1.4,31.9c0,0.5,0,0.9,0.1,1.3
			c-4.1,0-10.8,0.2-13.4,0.3C285,475.5,274.8,475.7,264.6,476z"/>
	</g>
	<g>
		<path d="M847.9,495.7c-0.6-7.8-1.1-14.8-1.6-22.3c-4.7-1.5-9.6-2.8-14.4-4.5c-3.7-1.3-7.3-3-10.6-5c-1.6-0.9-3.2-3-4-4.6
			c-0.8-1.5,3.5-11.4,4.1-14.6c-1.7-1.5-3.7-1.6-5.7-1.3c-3.2,0.4-5.8-0.5-8-3c-1.8-2.1-2-4.5-2-6.9c0-1.6,3.2-3,5.5-2.5
			c3.4,0.9,6.8,2,10.6,3.1c1.9-6.8,3.9-13.4,5.5-20c1.6-6.6,2.9-13.3,4.3-20.1c-2-2.1-4.1-4.2-6-6.6c-7.6-9.6-10.4-20.4-8.4-32.5
			c1-5.9,4.7-10.7,8.1-15.1c9.1-11.6,24.5-16.1,32.3-16.3c3.6-0.1,7.2,1,10.8,1.8c2.3,0.5,4.5,1.4,6.8,2c6.6,1.6,11.4,5.9,15.6,10.8
			c5,5.8,9.2,12.1,11.5,19.5c1.7,5.5,1.9,11.1,1.2,16.8c-1.3,10.7-7.7,18-17,23.6c1.2,0.7,2.1,1.3,3.2,1.7
			c9.2,3.4,18.5,6.7,27.8,9.9c1,0.3,2.2,0,3.3-0.1c0.5-0.1,1-0.3,1.5-0.6c4.4-2.4,9-2,13,0.5c4.8,3,8.8,6.8,10.5,12.7
			c2.6,9,1.8,18,0,26.9c-2.4,11.8-5.6,23.4-8.6,35.1c-1.9,7.3-4.6,25.5-7.3,27.3c-2.8,1.8-9.9-1.5-12-3.2
			c-2.1-1.7,9.4-39.6,12.2-53.6c1.2-6.1,1.6-12.5,2-18.7c0.2-2.5-0.1-5.1-3.2-6.5c-1.1-0.5-1.6-2.3-2.4-3.6c-4.4-0.1-7.5,1.9-9.1,6
			c-0.4,1-0.9,1.9-1.4,2.8c-1.4,2.6-2.1,2.8-4.7,1.7c-4.5-2-5.9-5-4.3-9.9c0.8-2.4,1.6-4.8,2.8-6.9c1.1-2,2.7-3.8,4.2-5.7
			c-8.5-3.2-16.9-6.4-25.9-9.8c0.2,1.4,0.3,2.3,0.5,3.2c1.5,8,3,16,4.5,23.9c2,11.1,4,22.2,5.9,33.3c0.2,1.4,4.6,9.4-6.5,9.7
			c-6.8,1.7-13.6,2.4-20.6,2c-0.5,0-1,0-2.1,0c-0.3,6.5-0.1,12.8,1.1,19.2c3.8-0.4,7.4-0.9,11.1-1.2c1.3-0.1,2.7,0,3.9,0.4
			c2.7,0.9,4.9,9.2,3.9,11.8c-0.4,0.9-3,0.7-6.3,1c-2.6,0.2-5.2,0.2-7.9,0.3c-1,0-2.1,0-3.1,0.1c-3.5,0.4-4.5-0.1-4.9-3.7
			c-0.5-4.3-0.8-8.6-1.1-12.9c-0.3-4.8-0.6-9.7-0.9-14.7c-4.4-2-9.5-0.8-14.6-2.3c-0.3,5.2-0.4,10.1,0.3,15.1
			c0.7,4.6,1.4,9.3,2,13.9c0.2,1.3-0.3,2.4-1.7,2.8c-0.7,0.2-1.5,0.5-2.2,0.6c-4.5,0.6-9.1,1-13.6,1.9c-5,1-5.8-0.5-7-3.6
			c-1.2-3.2,0.7-7.3,3.7-8.7c2.9-1.3,6-1.8,9.2-1.1C843.6,495.4,845.7,495.4,847.9,495.7z M820.8,362.6c-0.6,9.5,2.7,17.8,9.9,24.4
			c3.5,3.2,7.4,5.8,11.2,8.6c8.6,4.1,16.6,5.9,25.6,5.5c6.7-0.3,12.2-3.7,17.6-7.2c4.5-2.9,8.6-6.3,11.1-10.9
			c4.4-8.2,5.1-16.9,2.3-25.9c-1.8-5.8-5.4-10.4-9.3-14.9c-3.5-4-7.3-7.5-12.4-9.3c-8.5-2.9-16.9-5.9-26.1-3.7
			c-8,2-17.7,8.3-22.4,14.4C824.1,349.2,820.6,354.9,820.8,362.6z M834.9,402.8c-4.1,19.4-8,38-11.9,56.7
			c19.7,12.1,60.3,15.5,72.8,8.2c-1.4-6.9-2.7-13.7-4-20.5c-1.3-6.9-2.3-14-3.9-20.8c-1.6-6.7-1.5-13.7-3.6-20.2
			C867.2,414,851.1,415.1,834.9,402.8z M928.5,506.3c0.8-3.8,17-67.1,15.8-75.7c-1.2-8.7-3.9-12.4-9.3-15.7
			c1.8,3.9,0.5,7.5-0.6,11.2c-0.2,0.7-0.2,1.6,0,2.2c2.7,6.5,2.2,13.2,1.1,19.8c-1.8,10.6-11.6,47.2-13.3,54.8
			C922,504.3,925.9,505.8,928.5,506.3z M912.1,432.3c2.4-5.3,4.3-11.1,11.6-11c-0.2-1.1-0.3-1.7-0.3-2.3c-0.1-1.4-0.7-2.5-2.1-3
			c-1.6-0.6-9.2,1.9-11.3,14.6C909.7,431.3,911.8,432.1,912.1,432.3z"/>
		<path d="M851.2,373.2c0.1,1.8-1.2,3.8-3.6,3.8c-2.3,0-3.1-2.2-3.3-4.2c-0.1-1.6,1.9-3.9,3.5-3.8
			C849.4,369.1,851.1,371.3,851.2,373.2z"/>
		<path d="M866.5,379.7c-2.5,0.1-4-1.7-4.1-4.7c0-2.3,0.9-3.4,2.8-3.4c3.6,0,4.8,2.8,4.9,4.9C870.3,378.3,868.7,379.6,866.5,379.7z"
			/>
		<path class="st2" d="M834.9,402.8c-4.1,19.4-8,38-11.9,56.7c19.7,12.1,60.3,15.5,72.8,8.2c-1.4-6.9-2.7-13.7-4-20.5
			c-1.3-6.9-2.3-14-3.9-20.8c-1.6-6.7-1.5-13.7-3.6-20.2C867.2,414,851.1,415.1,834.9,402.8z"/>
		<path class="st2" d="M928.5,506.3c0.8-3.8,17-67.1,15.8-75.7c-1.2-8.7-3.9-12.4-9.3-15.7c1.8,3.9,0.5,7.5-0.6,11.2
			c-0.2,0.7-0.2,1.6,0,2.2c2.7,6.5,2.2,13.2,1.1,19.8c-1.8,10.6-11.6,47.2-13.3,54.8C922,504.3,925.9,505.8,928.5,506.3z"/>
		<path class="st2" d="M912.1,432.3c2.4-5.3,4.3-11.1,11.6-11c-0.2-1.1-0.3-1.7-0.3-2.3c-0.1-1.4-0.7-2.5-2.1-3
			c-1.6-0.6-9.2,1.9-11.3,14.6C909.7,431.3,911.8,432.1,912.1,432.3z"/>
	</g>
	<g>
		<path d="M65.6,27.2H52.5c-0.5,0-0.8-0.1-1.1-0.4S51,26.2,51,25.7V4.3c0-0.5,0.1-0.8,0.4-1.1s0.6-0.4,1.1-0.4h13.1
			c0.5,0,0.9,0.1,1.1,0.4s0.4,0.6,0.4,1.1v2.6c0,0.5-0.1,0.8-0.4,1.1s-0.6,0.4-1.1,0.4H57V12h8c0.5,0,0.9,0.1,1.1,0.4
			c0.3,0.3,0.4,0.6,0.4,1.1v2.2c0,0.5-0.1,0.8-0.4,1.1s-0.6,0.4-1.1,0.4h-8v4.5h8.6c0.5,0,0.9,0.1,1.1,0.4s0.4,0.6,0.4,1.1v2.6
			c0,0.5-0.1,0.8-0.4,1.1S66.1,27.2,65.6,27.2z"/>
		<path d="M89.5,27.2h-2.8c-0.6,0-1.1-0.3-1.5-0.8l-9-13.3v12.6c0,0.5-0.1,0.8-0.4,1.1s-0.6,0.4-1.1,0.4h-2.6
			c-0.5,0-0.8-0.1-1.1-0.4s-0.4-0.6-0.4-1.1V4.3c0-0.5,0.1-0.8,0.4-1.1s0.6-0.4,1.1-0.4H75c0.6,0,1.1,0.3,1.4,0.8l9,12.8v-12
			c0-0.5,0.1-0.8,0.4-1.1s0.6-0.4,1.1-0.4h2.5c0.5,0,0.9,0.1,1.1,0.4S91,3.8,91,4.3v21.5c0,0.5-0.1,0.8-0.4,1.1S89.9,27.2,89.5,27.2
			z"/>
		<path d="M100.6,8.8h-4.7c-0.5,0-0.8-0.1-1.1-0.4s-0.4-0.6-0.4-1.1v-3c0-0.5,0.1-0.8,0.4-1.1s0.6-0.4,1.1-0.4h15.3
			c0.5,0,0.9,0.1,1.1,0.4s0.4,0.6,0.4,1.1v3c0,0.5-0.1,0.8-0.4,1.1s-0.6,0.4-1.1,0.4h-4.6v17c0,0.5-0.1,0.8-0.4,1.1
			s-0.6,0.4-1.1,0.4h-3c-0.5,0-0.8-0.1-1.1-0.4s-0.4-0.6-0.4-1.1V8.8z"/>
		<path d="M120.7,27.2h-3c-0.5,0-0.9-0.1-1.1-0.4s-0.4-0.6-0.4-1.1V4.3c0-0.5,0.1-0.8,0.4-1.1s0.6-0.4,1.1-0.4h8
			c1.8,0,3.2,0.1,4.4,0.4c1.1,0.2,2.1,0.7,2.8,1.3s1.2,1.4,1.5,2.3c0.3,0.9,0.4,2.1,0.4,3.5v0.7c0,3.1-1.1,5.2-3.2,6.4l3,8.1
			c0.2,0.5,0.2,0.9-0.1,1.2s-0.6,0.5-1.1,0.5H130c-0.8,0-1.2-0.4-1.5-1.1l-2.7-7.6h-3.6v7.2c0,0.5-0.1,0.9-0.4,1.1
			S121.1,27.2,120.7,27.2z M125.7,8h-3.5v5.5h3.5c1.1,0,1.9-0.2,2.3-0.5c0.4-0.3,0.7-1,0.7-2v-0.5c0-1-0.2-1.6-0.7-2
			C127.6,8.2,126.8,8,125.7,8z"/>
		<path d="M152.9,27.2h-13.1c-0.5,0-0.8-0.1-1.1-0.4s-0.4-0.6-0.4-1.1V4.3c0-0.5,0.1-0.8,0.4-1.1s0.6-0.4,1.1-0.4h13.1
			c0.5,0,0.9,0.1,1.1,0.4s0.4,0.6,0.4,1.1v2.6c0,0.5-0.1,0.8-0.4,1.1s-0.6,0.4-1.1,0.4h-8.6V12h8c0.5,0,0.9,0.1,1.1,0.4
			c0.3,0.3,0.4,0.6,0.4,1.1v2.2c0,0.5-0.1,0.8-0.4,1.1s-0.6,0.4-1.1,0.4h-8v4.5h8.6c0.5,0,0.9,0.1,1.1,0.4s0.4,0.6,0.4,1.1v2.6
			c0,0.5-0.1,0.8-0.4,1.1S153.3,27.2,152.9,27.2z"/>
		<path d="M177.2,12.5c0,1.3-0.2,2.4-0.5,3.3s-0.9,1.7-1.6,2.3s-1.7,1.1-2.9,1.4s-2.7,0.5-4.4,0.5h-3.8v5.8c0,0.5-0.1,0.8-0.4,1.1
			s-0.6,0.4-1.1,0.4h-3c-0.5,0-0.8-0.1-1.1-0.4s-0.4-0.6-0.4-1.1V4.3c0-0.5,0.1-0.8,0.4-1.1s0.6-0.4,1.1-0.4h8.3
			c3.4,0,5.9,0.6,7.3,1.9s2.2,3.3,2.2,6V12.5z M167.7,8h-3.8v7.1h3.8c1.3,0,2.2-0.2,2.7-0.7c0.5-0.5,0.8-1.3,0.8-2.6v-0.4
			c0-1.3-0.3-2.2-0.8-2.7C169.9,8.3,169,8,167.7,8z"/>
		<path d="M185,27.2h-3c-0.5,0-0.9-0.1-1.1-0.4s-0.4-0.6-0.4-1.1V4.3c0-0.5,0.1-0.8,0.4-1.1s0.6-0.4,1.1-0.4h8
			c1.8,0,3.2,0.1,4.4,0.4c1.1,0.2,2.1,0.7,2.8,1.3s1.2,1.4,1.5,2.3c0.3,0.9,0.4,2.1,0.4,3.5v0.7c0,3.1-1.1,5.2-3.2,6.4l3,8.1
			c0.2,0.5,0.2,0.9-0.1,1.2s-0.6,0.5-1.1,0.5h-3.4c-0.8,0-1.2-0.4-1.5-1.1l-2.7-7.6h-3.6v7.2c0,0.5-0.1,0.9-0.4,1.1
			S185.5,27.2,185,27.2z M190,8h-3.5v5.5h3.5c1.1,0,1.9-0.2,2.3-0.5c0.4-0.3,0.7-1,0.7-2v-0.5c0-1-0.2-1.6-0.7-2
			C191.9,8.2,191.1,8,190,8z"/>
		<path d="M207.1,27.2h-3c-0.5,0-0.8-0.1-1.1-0.4s-0.4-0.6-0.4-1.1V4.3c0-0.5,0.1-0.8,0.4-1.1s0.6-0.4,1.1-0.4h3
			c0.5,0,0.8,0.1,1.1,0.4s0.4,0.6,0.4,1.1v21.5c0,0.5-0.1,0.8-0.4,1.1S207.5,27.2,207.1,27.2z"/>
		<path d="M223.8,12.5c3.3,0.2,5.6,0.8,7,1.9c1.4,1.1,2.1,2.9,2.1,5.4v0.2c0,2.5-0.9,4.3-2.6,5.6s-4.4,1.9-7.8,1.9
			c-3.4,0-5.9-0.6-7.6-1.7s-2.6-2.9-2.8-5.2c0,0,0-0.1,0-0.3c0-0.1,0-0.2,0-0.3c0-0.4,0.1-0.7,0.3-0.9s0.6-0.3,1-0.3h3.2
			c0.5,0,0.8,0.1,1,0.2s0.3,0.4,0.5,0.9c0,0.1,0.1,0.3,0.2,0.6c0.3,0.8,0.8,1.3,1.5,1.7c0.7,0.3,1.7,0.5,2.9,0.5
			c1.5,0,2.6-0.2,3.3-0.5s1.1-0.9,1.1-1.7V20c0-0.4-0.1-0.7-0.2-0.9s-0.3-0.5-0.5-0.7c-0.2-0.2-0.6-0.3-1-0.5s-1-0.2-1.6-0.3
			c-0.6-0.1-1.4-0.2-2.4-0.3c-1.7-0.1-3.1-0.4-4.3-0.7c-1.1-0.3-2.1-0.7-2.8-1.2c-0.8-0.5-1.3-1.2-1.6-2.1s-0.5-1.8-0.5-3.1v-0.3
			c0-2.5,0.9-4.4,2.6-5.6s4.4-1.8,7.9-1.8c3.2,0,5.7,0.6,7.4,1.7s2.7,2.8,3,4.9c0.1,0.2,0.1,0.4,0.1,0.7c0,0.4-0.1,0.7-0.3,0.9
			s-0.6,0.3-1,0.3h-3.2c-0.5,0-0.9-0.1-1.1-0.2s-0.4-0.4-0.5-0.9c-0.1-0.3-0.1-0.5-0.2-0.7c-0.6-1.2-2-1.8-4.3-1.8
			c-2.9,0-4.4,0.7-4.4,2.2v0.2c0,0.6,0.1,1,0.4,1.3s0.8,0.5,1.7,0.7S222.1,12.4,223.8,12.5z"/>
		<path d="M250.9,27.2h-13.1c-0.5,0-0.8-0.1-1.1-0.4s-0.4-0.6-0.4-1.1V4.3c0-0.5,0.1-0.8,0.4-1.1s0.6-0.4,1.1-0.4h13.1
			c0.5,0,0.9,0.1,1.1,0.4s0.4,0.6,0.4,1.1v2.6c0,0.5-0.1,0.8-0.4,1.1s-0.6,0.4-1.1,0.4h-8.6V12h8c0.5,0,0.9,0.1,1.1,0.4
			c0.3,0.3,0.4,0.6,0.4,1.1v2.2c0,0.5-0.1,0.8-0.4,1.1s-0.6,0.4-1.1,0.4h-8v4.5h8.6c0.5,0,0.9,0.1,1.1,0.4s0.4,0.6,0.4,1.1v2.6
			c0,0.5-0.1,0.8-0.4,1.1S251.4,27.2,250.9,27.2z"/>
	</g>
	<g>
		<g>
			<path class="st1" d="M103,547.7c3.4,0.2,5.8,0.8,7.2,1.9c1.4,1.1,2.1,2.9,2.1,5.5v0.2c0,2.5-0.9,4.4-2.7,5.7
				c-1.8,1.3-4.5,1.9-8,1.9c-3.4,0-6-0.6-7.8-1.8c-1.7-1.2-2.7-3-2.9-5.4c0,0,0-0.1,0-0.3c0-0.1,0-0.2,0-0.3c0-0.4,0.1-0.7,0.3-0.9
				s0.6-0.3,1-0.3h3.3c0.5,0,0.9,0.1,1.1,0.2c0.2,0.2,0.4,0.5,0.5,0.9c0,0.1,0.1,0.3,0.2,0.6c0.3,0.8,0.8,1.4,1.5,1.7s1.7,0.5,3,0.5
				c1.5,0,2.6-0.2,3.4-0.6c0.7-0.4,1.1-1,1.1-1.8v-0.1c0-0.4-0.1-0.7-0.2-0.9c-0.1-0.2-0.3-0.5-0.5-0.7s-0.6-0.4-1.1-0.5
				c-0.5-0.1-1-0.2-1.7-0.3c-0.6-0.1-1.5-0.2-2.5-0.3c-1.8-0.2-3.2-0.4-4.4-0.7c-1.1-0.3-2.1-0.7-2.9-1.3s-1.4-1.3-1.7-2.1
				c-0.3-0.8-0.5-1.9-0.5-3.1v-0.3c0-2.6,0.9-4.5,2.7-5.7s4.5-1.9,8.1-1.9c3.3,0,5.8,0.6,7.6,1.8c1.8,1.2,2.8,2.9,3,5.1
				c0.1,0.2,0.1,0.4,0.1,0.7c0,0.4-0.1,0.7-0.3,0.9c-0.2,0.2-0.6,0.3-1,0.3h-3.3c-0.5,0-0.9-0.1-1.1-0.2c-0.2-0.2-0.4-0.5-0.5-0.9
				c-0.1-0.3-0.1-0.5-0.2-0.7c-0.6-1.2-2.1-1.8-4.4-1.8c-3,0-4.5,0.8-4.5,2.3v0.2c0,0.6,0.1,1,0.4,1.3s0.9,0.6,1.7,0.8
				C100,547.5,101.3,547.6,103,547.7z"/>
			<path class="st1" d="M120.4,561.5c-0.1,0.4-0.3,0.7-0.5,0.9c-0.3,0.2-0.6,0.3-1,0.3h-2.9c-0.5,0-0.9-0.2-1.2-0.5
				c-0.3-0.3-0.3-0.7-0.2-1.2l5.8-22.2c0.1-0.4,0.2-0.7,0.5-0.9c0.3-0.2,0.6-0.3,1-0.3h6.5c0.4,0,0.7,0.1,1,0.3
				c0.3,0.2,0.5,0.5,0.5,0.9l5.8,22.2c0.1,0.5,0,0.9-0.2,1.2c-0.3,0.3-0.6,0.5-1.2,0.5h-2.9c-0.4,0-0.8-0.1-1-0.3
				c-0.3-0.2-0.5-0.5-0.5-0.9l-0.9-3.8h-7.7L120.4,561.5z M128,553.4l-2.8-11.6l-2.8,11.6H128z"/>
			<path class="st1" d="M154.3,562.8h-13.5c-0.5,0-0.8-0.1-1.1-0.4c-0.3-0.3-0.4-0.6-0.4-1.1v-22c0-0.5,0.1-0.8,0.4-1.1
				c0.3-0.3,0.6-0.4,1.1-0.4h3.1c0.5,0,0.8,0.1,1.1,0.4c0.3,0.3,0.4,0.6,0.4,1.1v17.8h8.8c0.5,0,0.9,0.1,1.2,0.4
				c0.3,0.3,0.4,0.6,0.4,1.1v2.7c0,0.5-0.1,0.8-0.4,1.1C155.2,562.7,154.8,562.8,154.3,562.8z"/>
			<path class="st1" d="M165.1,561.5c-0.1,0.4-0.3,0.7-0.5,0.9c-0.3,0.2-0.6,0.3-1,0.3h-2.9c-0.5,0-0.9-0.2-1.2-0.5
				c-0.3-0.3-0.3-0.7-0.2-1.2l5.8-22.2c0.1-0.4,0.2-0.7,0.5-0.9c0.3-0.2,0.6-0.3,1-0.3h6.5c0.4,0,0.7,0.1,1,0.3
				c0.3,0.2,0.5,0.5,0.5,0.9l5.8,22.2c0.1,0.5,0,0.9-0.2,1.2c-0.3,0.3-0.6,0.5-1.2,0.5h-2.9c-0.4,0-0.8-0.1-1-0.3
				c-0.3-0.2-0.5-0.5-0.5-0.9l-0.9-3.8H166L165.1,561.5z M172.7,553.4l-2.8-11.6l-2.8,11.6H172.7z"/>
			<path class="st1" d="M188.7,562.8h-3.1c-0.5,0-0.9-0.1-1.1-0.4c-0.3-0.3-0.4-0.7-0.4-1.2v-22c0-0.5,0.1-0.9,0.4-1.1
				c0.3-0.3,0.7-0.4,1.1-0.4h8.2c1.8,0,3.3,0.1,4.5,0.4c1.2,0.3,2.1,0.7,2.8,1.3c0.7,0.6,1.2,1.4,1.5,2.3c0.3,0.9,0.4,2.1,0.4,3.6
				v0.7c0,3.1-1.1,5.4-3.3,6.6l3.1,8.3c0.2,0.5,0.2,0.9-0.1,1.3c-0.2,0.4-0.6,0.5-1.1,0.5h-3.5c-0.8,0-1.3-0.4-1.5-1.1l-2.8-7.8
				h-3.7v7.4c0,0.5-0.1,0.9-0.4,1.2C189.5,562.7,189.1,562.8,188.7,562.8z M193.8,543.1h-3.6v5.7h3.6c1.1,0,1.9-0.2,2.4-0.5
				s0.7-1,0.7-2.1v-0.5c0-1-0.2-1.7-0.7-2S195,543.1,193.8,543.1z"/>
			<path class="st1" d="M211.3,562.8h-3.1c-0.5,0-0.8-0.1-1.1-0.4c-0.3-0.3-0.4-0.6-0.4-1.1v-22c0-0.5,0.1-0.8,0.4-1.1
				c0.3-0.3,0.6-0.4,1.1-0.4h3.1c0.5,0,0.8,0.1,1.1,0.4c0.3,0.3,0.4,0.6,0.4,1.1v22c0,0.5-0.1,0.8-0.4,1.1
				C212.1,562.7,211.8,562.8,211.3,562.8z"/>
			<path class="st1" d="M231.5,562.8h-13.5c-0.5,0-0.8-0.1-1.1-0.4c-0.3-0.3-0.4-0.6-0.4-1.1v-22c0-0.5,0.1-0.8,0.4-1.1
				c0.3-0.3,0.6-0.4,1.1-0.4h13.5c0.5,0,0.9,0.1,1.2,0.4c0.3,0.3,0.4,0.6,0.4,1.1v2.6c0,0.5-0.1,0.9-0.4,1.1
				c-0.3,0.3-0.7,0.4-1.2,0.4h-8.8v3.8h8.2c0.5,0,0.9,0.1,1.2,0.4c0.3,0.3,0.4,0.6,0.4,1.1v2.2c0,0.5-0.1,0.8-0.4,1.1
				c-0.3,0.3-0.7,0.4-1.2,0.4h-8.2v4.6h8.8c0.5,0,0.9,0.1,1.2,0.4c0.3,0.3,0.4,0.6,0.4,1.1v2.7c0,0.5-0.1,0.8-0.4,1.1
				C232.4,562.7,232,562.8,231.5,562.8z M227.3,535.8l-0.7,0.6c-0.2,0.1-0.3,0.2-0.5,0.3s-0.3,0-0.6,0h-2c-0.3,0-0.5-0.1-0.6-0.2
				s-0.1-0.4,0-0.7l0.1-0.3c0.1-0.3,0.3-0.5,0.4-0.6c0.2-0.1,0.4-0.1,0.7-0.1h2.6c0.4,0,0.6,0.1,0.6,0.3
				C227.7,535.3,227.6,535.6,227.3,535.8z"/>
			<path class="st1" d="M248.1,547.7c3.4,0.2,5.8,0.8,7.2,1.9c1.4,1.1,2.1,2.9,2.1,5.5v0.2c0,2.5-0.9,4.4-2.7,5.7
				c-1.8,1.3-4.5,1.9-8,1.9c-3.4,0-6-0.6-7.8-1.8c-1.7-1.2-2.7-3-2.9-5.4c0,0,0-0.1,0-0.3c0-0.1,0-0.2,0-0.3c0-0.4,0.1-0.7,0.3-0.9
				s0.6-0.3,1-0.3h3.3c0.5,0,0.9,0.1,1.1,0.2c0.2,0.2,0.4,0.5,0.5,0.9c0,0.1,0.1,0.3,0.2,0.6c0.3,0.8,0.8,1.4,1.5,1.7s1.7,0.5,3,0.5
				c1.5,0,2.6-0.2,3.4-0.6c0.7-0.4,1.1-1,1.1-1.8v-0.1c0-0.4-0.1-0.7-0.2-0.9c-0.1-0.2-0.3-0.5-0.5-0.7s-0.6-0.4-1.1-0.5
				c-0.5-0.1-1-0.2-1.7-0.3c-0.6-0.1-1.5-0.2-2.5-0.3c-1.8-0.2-3.2-0.4-4.4-0.7c-1.1-0.3-2.1-0.7-2.9-1.3s-1.4-1.3-1.7-2.1
				c-0.3-0.8-0.5-1.9-0.5-3.1v-0.3c0-2.6,0.9-4.5,2.7-5.7s4.5-1.9,8.1-1.9c3.3,0,5.8,0.6,7.6,1.8c1.8,1.2,2.8,2.9,3,5.1
				c0.1,0.2,0.1,0.4,0.1,0.7c0,0.4-0.1,0.7-0.3,0.9c-0.2,0.2-0.6,0.3-1,0.3h-3.3c-0.5,0-0.9-0.1-1.1-0.2c-0.2-0.2-0.4-0.5-0.5-0.9
				c-0.1-0.3-0.1-0.5-0.2-0.7c-0.6-1.2-2.1-1.8-4.4-1.8c-3,0-4.5,0.8-4.5,2.3v0.2c0,0.6,0.1,1,0.4,1.3s0.9,0.6,1.7,0.8
				C245.1,547.5,246.4,547.6,248.1,547.7z"/>
		</g>
	</g>
	<g>
		<path d="M271.3,157.2c-0.5,2-1.6,3.5-3.3,4.7s-4.1,1.7-7,1.7c-2,0-3.8-0.2-5.3-0.7c-1.5-0.5-2.7-1.2-3.7-2.1c-1-0.9-1.7-2-2.2-3.3
			c-0.5-1.3-0.8-2.7-0.8-4.4h-0.7c-0.4,0-0.7-0.1-0.8-0.3s-0.3-0.5-0.3-0.9v-0.1c0-0.4,0.1-0.7,0.3-0.8c0.2-0.2,0.5-0.3,0.8-0.3h0.7
			v-2h-0.7c-0.4,0-0.7-0.1-0.8-0.3s-0.3-0.5-0.3-0.9v-0.1c0-0.4,0.1-0.7,0.3-0.8c0.2-0.2,0.5-0.3,0.8-0.3h0.7
			c0.2-3.3,1.2-5.8,3.2-7.6c2-1.8,4.9-2.7,8.8-2.7c3,0,5.3,0.6,7.1,1.7c1.8,1.2,2.8,2.8,3.2,4.9c0.1,0.5,0.2,1,0.2,1.3
			c0.1,1-0.4,1.5-1.3,1.5h-1.9c-0.6,0-0.9-0.1-1.2-0.3c-0.2-0.2-0.4-0.6-0.5-1.2c-0.1-0.3-0.2-0.6-0.3-0.9c-0.8-1.6-2.6-2.5-5.4-2.5
			c-2.1,0-3.7,0.4-4.8,1.3c-1.1,0.9-1.7,2.4-1.9,4.5h7.1c0.7,0,1.1,0.4,1.1,1.1v0.1c0,0.8-0.4,1.1-1.1,1.1h-7.2v2h7.2
			c0.7,0,1.1,0.4,1.1,1.1v0.1c0,0.8-0.4,1.1-1.1,1.1h-7.1c0.2,2.2,0.8,3.7,1.9,4.6c1.1,0.9,2.7,1.4,4.8,1.4c2.7,0,4.4-0.7,5.2-2.1
			c0.2-0.4,0.4-0.8,0.5-1.3c0.1-0.6,0.3-1,0.5-1.2c0.2-0.2,0.6-0.3,1.2-0.3h1.8c1,0,1.5,0.5,1.4,1.6
			C271.5,156.3,271.4,156.8,271.3,157.2z"/>
	</g>
	<g>
		<path d="M59.9,164.4c-0.5,2-1.6,3.5-3.3,4.7s-4.1,1.7-7,1.7c-2,0-3.8-0.2-5.3-0.7c-1.5-0.5-2.7-1.2-3.7-2.1c-1-0.9-1.7-2-2.2-3.3
			c-0.5-1.3-0.8-2.7-0.8-4.4h-0.7c-0.4,0-0.7-0.1-0.8-0.3s-0.3-0.5-0.3-0.9v-0.1c0-0.4,0.1-0.7,0.3-0.8c0.2-0.2,0.5-0.3,0.8-0.3h0.7
			v-2h-0.7c-0.4,0-0.7-0.1-0.8-0.3s-0.3-0.5-0.3-0.9v-0.1c0-0.4,0.1-0.7,0.3-0.8c0.2-0.2,0.5-0.3,0.8-0.3h0.7
			c0.2-3.3,1.2-5.8,3.2-7.6c2-1.8,4.9-2.7,8.8-2.7c3,0,5.3,0.6,7.1,1.7c1.8,1.2,2.8,2.8,3.2,4.9c0.1,0.5,0.2,1,0.2,1.3
			c0.1,1-0.4,1.5-1.3,1.5H57c-0.6,0-0.9-0.1-1.2-0.3c-0.2-0.2-0.4-0.6-0.5-1.2c-0.1-0.3-0.2-0.6-0.3-0.9c-0.8-1.6-2.6-2.5-5.4-2.5
			c-2.1,0-3.7,0.4-4.8,1.3c-1.1,0.9-1.7,2.4-1.9,4.5H50c0.7,0,1.1,0.4,1.1,1.1v0.1c0,0.8-0.4,1.1-1.1,1.1h-7.2v2H50
			c0.7,0,1.1,0.4,1.1,1.1v0.1c0,0.8-0.4,1.1-1.1,1.1h-7.1c0.2,2.2,0.8,3.7,1.9,4.6c1.1,0.9,2.7,1.4,4.8,1.4c2.7,0,4.4-0.7,5.2-2.1
			c0.2-0.4,0.4-0.8,0.5-1.3c0.1-0.6,0.3-1,0.5-1.2c0.2-0.2,0.6-0.3,1.2-0.3h1.8c1,0,1.5,0.5,1.4,1.6C60.2,163.5,60.1,164,59.9,164.4
			z"/>
	</g>
	<g>
		<g>
			<path d="M515,312.6c15.9,7.7,33.1,15.9,50.1,24.4c12.9,6.4,25.5,13.3,38.3,19.7c12.1,6,24.4,11.4,36.7,17.2
				c2.5,1.2,4.7,3.1,7.2,3.9c5.9,1.8,7.4,6.3,8.3,11.5c2.5,13.9,2.8,28,3,42.1c0.2,11.4,0.5,22.8,0.8,34.3
				c0.3,9.6,0.8,19.3,0.9,28.9c0.1,4-0.5,7.9-0.9,12.4c-1.5,0.4-3.1,1-4.7,1.1c-7.6,0.7-15.1,1.2-22.7,1.8
				c-6.9,0.6-13.7,1.7-20.6,1.8c-14.3,0.3-28.7,0.1-43,0c-16.6-0.1-33.3-0.3-49.9-0.2c-19.8,0.1-39.6,0.9-59.4,0.6
				c-12.6-0.2-25.2-1.6-37.8-2.5c-4.2-0.3-8.4-0.4-12.6-0.7c-6.3-0.5-12.5-1.2-18.8-1.7c-3.2-0.3-4.3-2.5-4.5-5.2
				c-1.1-12.8-2.2-25.5-2.9-38.3c-0.4-6.7,0.1-13.5,0-20.2c-0.2-9.1-0.6-18.1-0.9-27.2c-0.4-10.4-0.8-20.7-1.2-31
				c-0.1-1.9-0.1-3.8-0.2-4.8C424.9,357.9,469.1,335.6,515,312.6z M485.7,502.9c-0.9-13.7-1.7-26.5-2.5-39.2c-0.2-2.3-0.5-4.7-0.5-7
				c0-3.9,1.4-5.2,5.4-5.5c1.3-0.1,2.6-0.1,3.8,0c10.4,1.3,20.8,1.4,31.2,0.2c9.1-1.1,18.2-2.1,27.3-3.1c4.6-0.5,9.5-0.2,12.3,3.6
				c2.2,2.8,3.3,6.9,3.7,10.6c1,10.1,1.2,20.3,1.8,30.5c0.2,3.1,0.4,6.1,0.7,9.3c27.8-0.2,54.7-1.7,81.9-4.6
				c0.1-8.6,0.7-16.7,0.2-24.8c-1-17.3-2.8-34.5-3.7-51.7c-0.6-10.9-0.1-21.8-0.1-32.7c0-0.8-0.3-1.6-0.3-1.9
				c-12.2-5.6-24-10.9-35.8-16.4c-9.7-4.5-19.4-8.9-28.9-13.7c-7.2-3.7-14.1-8.1-21.3-11.9c-13.4-7-27-13.7-40.5-20.5
				c-4.1-2-8.1-2.9-12.7-0.4c-10.4,5.5-21,10.5-31.5,15.7c-20.4,10.2-40.8,20.4-61.2,30.7c-8.8,4.4-17.5,9-26.3,13.3
				c-3.1,1.5-4.6,3.6-4,7.1c0.2,1.3,0.1,2.6,0.2,3.8c0.8,18.5,1.6,37.1,2.4,55.6c0.8,16.3,1.6,32.7,2.4,49.5
				C421.7,499.6,453,503.8,485.7,502.9z M551.7,502.6c0.1-15.4,0.1-30.4,0.2-45.7c-10,0.8-19.3,1.6-28.9,2.4
				c-0.2,15.1,2.2,29.4,4.6,44.2C535.9,503.2,544,502.9,551.7,502.6z M490.3,458.8c0.5,14.8,1,29,1.5,43.3
				c8.1,0.7,15.4,1.6,22.8,0.6c-0.5-14.4-1-28.4-1.5-42.7C504.9,459.6,497.4,459.2,490.3,458.8z"/>
		</g>
		<g>
			<g>
				<path class="st2" d="M444.6,423.5h-3c-0.5,0-0.9-0.1-1.1-0.4s-0.4-0.6-0.4-1.1v-21.4c0-0.5,0.1-0.8,0.4-1.1s0.6-0.4,1.1-0.4h8
					c1.8,0,3.2,0.1,4.4,0.4c1.1,0.2,2.1,0.7,2.8,1.3s1.2,1.4,1.5,2.3c0.3,0.9,0.4,2.1,0.4,3.5v0.7c0,3.1-1.1,5.2-3.2,6.4l3,8.1
					c0.2,0.5,0.2,0.9-0.1,1.2s-0.6,0.5-1.1,0.5h-3.4c-0.8,0-1.2-0.4-1.5-1.1l-2.7-7.6h-3.6v7.2c0,0.5-0.1,0.9-0.4,1.1
					S445.1,423.5,444.6,423.5z M449.6,404.4h-3.5v5.5h3.5c1.1,0,1.9-0.2,2.3-0.5c0.4-0.3,0.7-1,0.7-2v-0.5c0-1-0.2-1.6-0.7-2
					C451.5,404.5,450.7,404.4,449.6,404.4z"/>
				<path class="st2" d="M476.8,423.5h-13.1c-0.5,0-0.8-0.1-1.1-0.4s-0.4-0.6-0.4-1.1v-21.5c0-0.5,0.1-0.8,0.4-1.1s0.6-0.4,1.1-0.4
					h13.1c0.5,0,0.9,0.1,1.1,0.4s0.4,0.6,0.4,1.1v2.6c0,0.5-0.1,0.8-0.4,1.1s-0.6,0.4-1.1,0.4h-8.6v3.7h8c0.5,0,0.9,0.1,1.1,0.4
					c0.3,0.3,0.4,0.6,0.4,1.1v2.2c0,0.5-0.1,0.8-0.4,1.1s-0.6,0.4-1.1,0.4h-8v4.5h8.6c0.5,0,0.9,0.1,1.1,0.4s0.4,0.6,0.4,1.1v2.6
					c0,0.5-0.1,0.8-0.4,1.1S477.3,423.5,476.8,423.5z"/>
				<path class="st2" d="M487.8,405.1h-4.7c-0.5,0-0.8-0.1-1.1-0.4s-0.4-0.6-0.4-1.1v-3c0-0.5,0.1-0.8,0.4-1.1s0.6-0.4,1.1-0.4h15.3
					c0.5,0,0.9,0.1,1.1,0.4s0.4,0.6,0.4,1.1v3c0,0.5-0.1,0.8-0.4,1.1s-0.6,0.4-1.1,0.4h-4.6v17c0,0.5-0.1,0.8-0.4,1.1
					s-0.6,0.4-1.1,0.4h-3c-0.5,0-0.8-0.1-1.1-0.4s-0.4-0.6-0.4-1.1V405.1z"/>
				<path class="st2" d="M507.9,423.5h-3c-0.5,0-0.9-0.1-1.1-0.4s-0.4-0.6-0.4-1.1v-21.4c0-0.5,0.1-0.8,0.4-1.1s0.6-0.4,1.1-0.4h8
					c1.8,0,3.2,0.1,4.4,0.4c1.1,0.2,2.1,0.7,2.8,1.3s1.2,1.4,1.5,2.3c0.3,0.9,0.4,2.1,0.4,3.5v0.7c0,3.1-1.1,5.2-3.2,6.4l3,8.1
					c0.2,0.5,0.2,0.9-0.1,1.2s-0.6,0.5-1.1,0.5h-3.4c-0.8,0-1.2-0.4-1.5-1.1l-2.7-7.6h-3.6v7.2c0,0.5-0.1,0.9-0.4,1.1
					S508.4,423.5,507.9,423.5z M512.9,404.4h-3.5v5.5h3.5c1.1,0,1.9-0.2,2.3-0.5c0.4-0.3,0.7-1,0.7-2v-0.5c0-1-0.2-1.6-0.7-2
					C514.8,404.5,514,404.4,512.9,404.4z"/>
				<path class="st2" d="M531,422.3c-0.1,0.4-0.2,0.7-0.5,0.9s-0.6,0.3-1,0.3h-2.8c-0.5,0-0.9-0.2-1.1-0.5c-0.3-0.3-0.3-0.7-0.2-1.2
					l5.7-21.6c0.1-0.4,0.2-0.7,0.5-0.9s0.6-0.3,1-0.3h6.3c0.4,0,0.7,0.1,1,0.3s0.4,0.5,0.5,0.9l5.7,21.6c0.1,0.5,0,0.9-0.2,1.2
					c-0.2,0.3-0.6,0.5-1.1,0.5h-2.8c-0.4,0-0.7-0.1-1-0.3s-0.4-0.5-0.5-0.9l-0.9-3.7h-7.5L531,422.3z M538.4,414.4l-2.7-11.3
					l-2.7,11.3H538.4z"/>
				<path class="st2" d="M554,423.5h-3c-0.5,0-0.8-0.1-1.1-0.4s-0.4-0.6-0.4-1.1v-21.5c0-0.5,0.1-0.8,0.4-1.1s0.6-0.4,1.1-0.4h3
					c0.5,0,0.8,0.1,1.1,0.4s0.4,0.6,0.4,1.1V422c0,0.5-0.1,0.8-0.4,1.1S554.5,423.5,554,423.5z"/>
				<path class="st2" d="M565.1,405.1h-4.7c-0.5,0-0.8-0.1-1.1-0.4s-0.4-0.6-0.4-1.1v-3c0-0.5,0.1-0.8,0.4-1.1s0.6-0.4,1.1-0.4h15.3
					c0.5,0,0.9,0.1,1.1,0.4s0.4,0.6,0.4,1.1v3c0,0.5-0.1,0.8-0.4,1.1s-0.6,0.4-1.1,0.4h-4.6v17c0,0.5-0.1,0.8-0.4,1.1
					s-0.6,0.4-1.1,0.4h-3c-0.5,0-0.8-0.1-1.1-0.4s-0.4-0.6-0.4-1.1V405.1z"/>
				<path class="st2" d="M595.3,423.5h-13.1c-0.5,0-0.8-0.1-1.1-0.4s-0.4-0.6-0.4-1.1v-21.5c0-0.5,0.1-0.8,0.4-1.1s0.6-0.4,1.1-0.4
					h13.1c0.5,0,0.9,0.1,1.1,0.4s0.4,0.6,0.4,1.1v2.6c0,0.5-0.1,0.8-0.4,1.1s-0.6,0.4-1.1,0.4h-8.6v3.7h8c0.5,0,0.9,0.1,1.1,0.4
					c0.3,0.3,0.4,0.6,0.4,1.1v2.2c0,0.5-0.1,0.8-0.4,1.1s-0.6,0.4-1.1,0.4h-8v4.5h8.6c0.5,0,0.9,0.1,1.1,0.4s0.4,0.6,0.4,1.1v2.6
					c0,0.5-0.1,0.8-0.4,1.1S595.8,423.5,595.3,423.5z"/>
			</g>
		</g>
		<path class="st2" d="M551.7,502.6c0.1-15.4,0.1-30.4,0.2-45.7c-10,0.8-19.3,1.6-28.9,2.4c-0.2,15.1,2.2,29.4,4.6,44.2
			C535.9,503.2,544,502.9,551.7,502.6z"/>
		<path class="st2" d="M490.3,458.8c0.5,14.8,1,29,1.5,43.3c8.1,0.7,15.4,1.6,22.8,0.6c-0.5-14.4-1-28.4-1.5-42.7
			C504.9,459.6,497.4,459.2,490.3,458.8z"/>
	</g>
	<g>
		<path d="M735.6,501.9c0-10.3,0-20.5,0-31c-2.1-0.5-3.7-1-5.3-1.2c-7.1-0.7-13.6-3.1-20.1-5.8c-5.2-3.5-9-4.7-8.1-8.8s2.1-8,3.2-12
			c2.4-9,4.6-18,7-27c1.1-4.1,2.6-8.2,3.9-12.3c0.2-0.8,0.4-1.6,0.8-3.4c-5.9,4.7-11,8.8-15.5,12.4c0.5,4.9,1.3,9.1,1.1,13.4
			c-0.1,3.6-3.5,27.1-5,35c-1.7,9.1-4.2,36.8-6.5,45.8c-0.2,0.9-1,1.8-1.4,2.5c-2.1,0.3-4,0.8-5.9,1c-1.8,0.1-3.7,0.1-5.5-0.3
			c-3.1-0.7-3.2-1.1-2.4-4.4c4-15,8.1-48.8,12-63.9c1.2-4.8,1.9-9.8,2.8-14.7c0.3-1.7,0.4-3.5-1.4-4.6c-5.4,1-7.7,8.6-9,10.9
			s-10.1-0.1-11.3-2.6c-1.2-2.5,1.7-9,5.5-14.9c3.9-6.2,13.7-9.9,20.2-6.8c2.5,1.2,4.5,0.2,6.3-1.2c5.7-4.5,11.3-9.2,17.1-14
			c-0.6-0.5-1.4-1-2.1-1.5c-11-7.3-17.8-17.3-18.8-30.6c-0.5-6.1,1.8-11.7,5.3-16.8c12.2-17.9,40.6-20.7,49.7-18.9
			c9.6,1.9,13,1,27.1,10.9c14.1,9.9,12.9,28.3,10.4,34.6c-2,5.1-5,9.3-9.2,12.7c-1.9,1.5-2.3,3.2-1.4,5.2
			c4.6,10.7,6.8,22.1,9.7,33.3c0.1,0.4,0.3,0.8,0.6,1.4c0.7,0.2,1.5,0.5,2.3,0.5c2.4,0.1,3.6,1.5,4.3,3.6c0.9,2.7,1.7,5.4,2.4,8.2
			c0.3,1.2,1.2,2.8-0.4,3.4c-1,0.4-2.3-0.2-3.9-0.3c0.5,1.7,1,3.5,1.5,5.4c0.7,2.8,1.6,5.5,2,8.3c0.7,5-0.9,9.1-5.6,11.4
			c-3.6,1.8-7.2,3.3-10.9,4.9c-5.6,2.3-11.4,3.5-17.6,3.8c-0.5,9-0.9,17.9-1.4,27.1c4.5-0.7,8.4-1.3,12.4-1.8
			c2.8-0.4,3.7,0.4,4.5,3.1c0.9,3.2,1.2,7.7-0.4,9c-1.6,1.2-9.8,0.8-14.6,1.2c-3.5,0.3-5.6-1.1-5.6-4.6c-0.1-6.6,0.1-13.1,0.3-19.7
			c0.1-4.5,0.9-9.1,0.1-13.4c-6.2-0.9-12.1-1.7-18.3-2.5c-0.6,11.4-1.7,22.4,1.1,33.3c0.8,3-2.3,6.8-5.8,6.9
			c-4.7,0.1-9.4,0.1-14.2-0.1c-2.6-0.1-4.7-2.6-4.6-5.2c0.2-3.8,1.3-5.2,4.7-5.3C726.1,501.4,730.8,501.7,735.6,501.9z M706.7,456.5
			c2.3,1.5,2.8,2.3,5.4,3.5c9.1,3.9,40.5,9.2,51.1,8.2c9.8-0.8,18.7-3.7,27.1-8.4c2.4-1.3,3.4-3,2.8-5.5c-2.2-8.4-4.5-16.8-6.9-25.1
			c-1.3-4.6-2.9-9.2-4.4-13.8c-2.1-6.7-4.2-13.5-6.3-20.2c-2.3,2.1-14.8,9.6-28,9.6c-13.3,0-18.7-2.3-25.7-3.2
			C715.8,418.2,711.4,439.2,706.7,456.5z M740.9,394.1c16,0.2,28.8-5.6,39.1-16c6.8-6.9,8.1-17.2,5.6-25.1s-6.8-12.2-12.7-15.4
			c-6.3-3.4-13.1-5-19.8-6.5c-10.8-2.4-37.9-0.3-49.2,20.8c-3.4,6.7-3.7,13.8-0.3,20.7c4.1,8.4,10.3,14.7,19.2,18.1
			C728.9,393.1,735.3,394.5,740.9,394.1z M698.8,416.4c-2.1,2-6.4,5-5.5,7.6c2.1,6.5-13.3,81.4-13.4,82.4c5.1-0.2,7.9,0.3,8.3-2.3
			C689.3,488.8,702.4,429.3,698.8,416.4z M689.6,413.6c-9.8-1.2-18.3,12.9-16.5,15.3c1.8,2.4,4.2,2.4,5.2-0.3
			C680.7,421.9,687.9,416,689.6,413.6z"/>
		<path d="M758.7,371.7c-0.1,2-2,3.8-3.9,3.7c-1.4-0.1-3.8-3.5-3.7-5.2c0.1-1.4,2-2.9,3.8-2.8C757,367.4,758.8,369.6,758.7,371.7z"
			/>
		<path d="M737.5,367.5c1.5,0.1,3.2,2.6,3,4.5c-0.2,1.6-2.3,3.5-3.8,3.5c-1.8-0.1-3.7-2.2-3.6-4.1
			C733.1,369.7,735.7,367.4,737.5,367.5z"/>
		<path class="st2" d="M706.7,456.5c2.3,1.5,2.8,2.3,5.4,3.5c9.1,3.9,40.5,9.2,51.1,8.2c9.8-0.8,18.7-3.7,27.1-8.4
			c2.4-1.3,3.4-3,2.8-5.5c-2.2-8.4-4.5-16.8-6.9-25.1c-1.3-4.6-2.9-9.2-4.4-13.8c-2.1-6.7-4.2-13.5-6.3-20.2
			c-2.3,2.1-14.8,9.6-28,9.6c-13.3,0-18.7-2.3-25.7-3.2C715.8,418.2,711.4,439.2,706.7,456.5z"/>
		<path class="st2" d="M698.8,416.4c-2.1,2-6.4,5-5.5,7.6c2.1,6.5-13.3,81.4-13.4,82.4c5.1-0.2,7.9,0.3,8.3-2.3
			C689.3,488.8,702.4,429.3,698.8,416.4z"/>
		<path class="st2" d="M689.6,413.6c-9.8-1.2-18.3,12.9-16.5,15.3c1.8,2.4,4.2,2.4,5.2-0.3C680.7,421.9,687.9,416,689.6,413.6z"/>
	</g>
	<path d="M1.9,49.2c24.3,0.5,58.7,1.2,83.1,1c17-0.1,34-2,51-2.3c17.7-0.3,35.4,0.5,53,0.5c11.7,0,23.4-0.3,35-0.6
		c21-0.5,42.1-1.8,63.1-1.4c11.6,0.2,23.2-0.2,34.8,0c11,0.2,22.1-0.9,33.2-1.2c7-0.2,18.5-1.8,24.6,1.7c6.1,3.5,4.2,43.3,5.1,59
		c0.8,14.1,2.4,62.6,2.4,72.8c0,4.5,1.3,5.6-3.3,6.2c-0.9,0.1-1.8,0.3-2.7,0.2c-4.3-0.5-18.9,0.8-23.1,1c-6.6,0.2-13.3,0.1-19.9,0.3
		c-5.3,0.2-10.6,0.9-15.8,1c-6.8,0.1-48.3,1.7-60.7,1.8c-14.8,0.2-29.6,0.7-44.4,0.9c-15.3,0.2-30.5,0.2-45.8,0.4
		c-5.9,0.1-11.8,0.6-17.7,0.6c-20,0.3-40,0.6-60,0.5c-9.7,0-48.1-0.4-57.6-0.5c-7.5-0.1-15-0.6-22.4-1.4c-3.2-0.3-5.8-2.5-6.2-6
		c-1-7.4-2.4-14.9-2.7-22.3c-0.8-19.5-1-38.9-1.6-58.4c-0.3-7.9-1.3-15.8-1.9-23.8C1,76-1.8,49.1,1.9,49.2z M295,180.2
		c-0.6-22.2-0.8-43.4-1.7-64.6c-0.8-21.1,2.7-42.2,0.8-63.7c-5.4,0-10-0.2-14.6,0c-19.7,0.9-39.3,2-59,2.7
		c-12.8,0.4-25.6,0.2-38.4,0.2c-18.1,0-36.2-0.1-54.3,0c-11.3,0.1-22.6,0.7-33.9,0.8c-21.7,0.1-43.4,0-65.1,0.1
		c-7.9,0-15.9,0.3-23.5,0.5c0.4,10.2,0.7,19.7,1.2,29.1c0.8,15.7,1.8,31.3,2.6,47c0.6,12.4,0.8,24.8,1.4,37.1
		c0.2,4.1,1.1,8.2,1.8,12.6c21.1,5.7,147.4,1.5,165.3,1.2c14.2-0.2,28.4,0,42.5-0.2c13.2-0.2,26.4-0.6,39.6-1.1
		C271.3,181.5,282.8,180.8,295,180.2z M301.3,51.5c-2,42.9-0.7,84.9,0.5,127.2c6.6,1.2,12.3,0.8,18.3-1.4c-0.4-3.5-0.9-6.8-1.2-10
		c-1.7-14.7-3.5-29.3-5.1-44c-0.6-5.7-1.4-11.5-1.2-17.2c0.1-3.1,1.4-6.6,3.2-9c0.9-1.2,4.3-0.4,6.6-0.5c0.7,0,1.3-0.1,2-0.1
		c8.2-0.2,16.3-0.4,24.5-0.8c4.4-0.2,8.8-0.7,13.2-1.3c3.2-0.5,5.2,0.5,6.1,3.5c0.5,1.7,1.2,3.4,1.3,5.1c0.5,8.8,1,17.7,1.4,26.5
		c0.5,15.3,0.9,30.5,1.4,45.8c0,0.6,0.4,1.2,0.8,2.2c2.6-0.4,5.1-0.7,7.9-1.1c-0.2-3.7-0.6-7.2-0.7-10.7
		c-0.5-17.2-0.9-34.5-1.4-51.7c-0.4-11.7-0.8-23.4-1.3-35.1c-0.5-9.9-0.5-19.8-3.3-29.7C349.8,49.9,325.6,50.7,301.3,51.5z
		 M362.4,103.3c-15.1,0.5-28.9,0.9-43.1,1.4c2.8,24.6,5.5,48.7,8.2,73.1c6.3,0,12.3,0.2,18.2-0.1c6-0.3,12.2,0.8,19-0.9
		C363.9,152.2,363.2,128.1,362.4,103.3z"/>
	<path d="M364.6,140.6c-1.1-1.5-12.8,0-14.8,0s-4.2,6.2,0,6.2c4.2,0,16.1,0,16.1,0L364.6,140.6z"/>
	<path d="M149.2,80.1c-1-1.6-1.8-3-2.7-4.4c-0.7-1.1-0.7-2.3-0.8-3.5c-0.2-1.9,0.7-3,2.4-3.7c2.2-1,4.5-1.3,6.8-1.3
		c0.9,0,1.8-0.1,2.7-0.4c2.8-0.7,6.3-0.2,8.5,1.3c2-1.3,4.1-2.3,6.7-2.1c3,0.2,5.4,3.3,4.4,6c-0.8,2.3-1.6,4.5-2.5,6.9
		c0.3,0.4,0.7,0.9,1,1.5c0.2,0.5,0.6,1,0.5,1.5c-0.2,1.5,0.1,2.8,1.2,3.9c0.5,0.4,0.8,1.1,1.3,1.4c3.9,2.7,6.9,6.3,9.8,10
		c2.7,3.4,4.6,7.2,6.2,11.2c1.6,3.9,2.6,7.9,2.2,12.1c-0.2,2.1-0.2,4.3-0.7,6.4c-1.1,5.2-4.3,9.2-7.9,12.8c-1.9,1.9-3.7,3.9-6.3,4.9
		c-2.4,0.9-4.8,1.7-7.2,2.4c-1.9,0.6-3.9,0.9-5.8,1.4c-4.4,1.1-8.9,1.1-13.4,0.6c-5.4-0.6-10.5-2-15.4-4.2
		c-5.5-2.3-8.4-6.6-9.3-12.4c-0.1-0.5-0.2-0.9-0.3-1.4c-1.5-5-0.7-9.9,0.8-14.6c2.2-6.7,5.2-13.1,9.7-18.6c1.6-1.9,3.3-3.7,5-5.5
		c0.7-0.7,1.4-1.4,1.1-2.6c-0.1-0.2,0-0.6,0.1-0.8c0.6-1.3,0.4-2.5-0.2-3.8c-0.6-1.1-0.3-2.4,0.5-3.4
		C148.2,81.2,148.8,80.6,149.2,80.1z M157.5,92.1c-0.4,0-1-0.1-1.5-0.1c-1.8,0.1-3.6,0.4-5.4,0.4c-1.4,0-2.3,0.5-3.1,1.4
		c-2.2,2.7-4.5,5.5-6.6,8.3c-3.2,4.3-5.2,9.2-7,14.1c-1.2,3.2-1.9,6.5-1.9,10c-0.1,3.1,0.8,5.9,1.7,8.8c1,3.4,3.1,6.1,6.5,7.4
		c2.4,1,4.8,1.9,7.3,2.7c6.6,2,13.3,2.6,20.2,1c1.6-0.4,3.1-0.6,4.7-1c5.4-1.3,10.6-2.8,14.6-7c2.8-3,5.4-6.1,6.7-9.9
		c1.8-5.2,2.1-10.7,0.5-16.1c-0.7-2.2-1.7-4.2-2.6-6.3c-3.1-6.9-7.8-12.6-13.9-17.1c-0.5-0.3-0.9-0.7-1.4-1c-2.1,1.8-5,2.1-7.7,3
		c0.1,0.5,0.2,0.9,0.3,1.3c0.3,2.5,0.7,5,0.8,7.6c0.1,1.9-0.1,3.7-0.2,5.6c-0.1,1.1-0.7,2.1-1.9,2.3c-1.3,0.3-2.4-0.2-3.1-1.4
		c-0.5-0.8-0.8-1.7-1.1-2.5c-0.3-0.8-0.3-1.7-0.5-2.5c-0.6,1.5-1,3.1-1.7,4.5c-0.5,1.2-1.8,1.4-2.8,0.6c-1-0.7-1.7-1.7-2.1-2.9
		c-0.5-1.8-0.8-3.5-0.3-5.3C156.3,96.2,156.9,94.2,157.5,92.1z M158.6,69.2c0.2,0.6,0.5,1.1,0.6,1.6c0.2,0.9,0.4,1.8,0.4,2.8
		c0,0.4-0.5,0.8-0.8,1.2c-0.4-0.3-1-0.5-1.1-0.9c-0.2-0.5-0.1-1.2-0.2-1.8c-0.2-1.3-1-2.3-2-2.4c-1.9-0.2-3.7-0.1-5.5,0.6
		c-2,0.8-2.5,1.9-1.9,4c0.5,1.6,1.3,3,2.6,4.2c0.8,0.8,1.4,0.9,2.4,0.5c0.9-0.4,1.9-0.6,2.9-0.6c5-0.2,10-0.4,15-0.5
		c0.9,0,1.6-0.2,1.9-1.1c0.8-2,1.7-3.9,2.3-6c0.4-1.4-0.4-2.4-1.9-2.6c-1.5-0.2-2.9,0.3-4.2,0.9c-0.9,0.4-1.1,0.9-1.1,1.9
		c0.1,1.1,0,2.3-0.1,3.4c-0.1,0.4-0.7,0.9-1.1,0.9c-0.4-0.1-0.9-0.6-1-1c-0.1-0.5,0.1-1.2,0.1-1.8c0.1-1,0.2-2.2-0.9-2.7
		C163,68.9,160.9,68.4,158.6,69.2z M149.7,86c2.7-1.5,5.6-2,8.6-1.9c1.5,0,3.1-0.2,4.6-0.3c3.2-0.2,6.5-0.5,9.7-0.7
		c0.7,0,1.4,0.1,1.5-0.8c0.1-0.8-0.2-1.5-1.1-1.7c-0.7-0.2-1.4-0.3-2.2-0.3c-4.2,0-8.4,0.1-12.6,0.2c-1.3,0-2.5,0.2-3.8,0.5
		c-1.3,0.3-2.6,0.7-3.8,1.2C148.9,83,148.5,84.4,149.7,86z M149.4,90.2c8.7-0.3,17.3-0.4,25.7-4.3c-0.9-0.2-1.3-0.5-1.7-0.5
		c-1.9,0-3.9,0.1-5.8,0.2c-2.9,0.2-5.8,0.4-8.8,0.5c-2.7,0.1-5.4,0.5-7.9,1.8C150.2,88.5,149.4,88.9,149.4,90.2z M164.4,91.7
		c0.1,0.7,0.2,1.3,0.3,1.9c0.1,3.1,0.2,6.2,0.3,9.4c0,0.6,0.2,1.2,0.4,1.7c0.1,0.3,0.6,0.6,0.9,0.6c0.3,0,0.8-0.4,0.9-0.7
		c0.2-0.6,0.4-1.3,0.4-1.9c0-2.1,0.1-4.2-0.1-6.2c-0.2-1.7-0.6-3.4-0.9-5.2C165.6,91.4,165.1,91.5,164.4,91.7z M161.5,92.1
		c-0.9-0.2-1.4-0.1-1.7,0.7c-0.5,1.5-1.1,2.8-1.7,4.3c-0.8,2.1-0.6,4.2,0.1,6.2c0.1,0.4,0.5,0.7,0.8,1.3
		C161.1,100.6,161,96.4,161.5,92.1z"/>
	<path d="M34.8,111.6c-1-1.6-1.8-3-2.7-4.4c-0.7-1.1-0.7-2.3-0.8-3.5c-0.2-1.9,0.7-3,2.4-3.7c2.2-1,4.5-1.3,6.8-1.3
		c0.9,0,1.8-0.1,2.7-0.4c2.8-0.7,6.3-0.2,8.5,1.3c2-1.3,4.1-2.3,6.7-2.1c3,0.2,5.4,3.3,4.4,6c-0.8,2.3-1.6,4.5-2.5,6.9
		c0.3,0.4,0.7,0.9,1,1.5c0.2,0.5,0.6,1,0.5,1.5c-0.2,1.5,0.1,2.8,1.2,3.9c0.5,0.4,0.8,1.1,1.3,1.4c3.9,2.7,6.9,6.3,9.8,10
		c2.7,3.4,4.6,7.2,6.2,11.2c1.6,3.9,2.6,7.9,2.2,12.1c-0.2,2.1-0.2,4.3-0.7,6.4c-1.1,5.2-4.3,9.2-7.9,12.8c-1.9,1.9-3.7,3.9-6.3,4.9
		c-2.4,0.9-4.8,1.7-7.2,2.4c-1.9,0.6-3.9,0.9-5.8,1.4c-4.4,1.1-8.9,1.1-13.4,0.6c-5.4-0.6-10.5-2-15.4-4.2
		c-5.5-2.3-8.4-6.6-9.3-12.4c-0.1-0.5-0.2-0.9-0.3-1.4c-1.5-5-0.7-9.9,0.8-14.6c2.2-6.7,5.2-13.1,9.7-18.6c1.6-1.9,3.3-3.7,5-5.5
		c0.7-0.7,1.4-1.4,1.1-2.6c-0.1-0.2,0-0.6,0.1-0.8c0.6-1.3,0.4-2.5-0.2-3.8c-0.6-1.1-0.3-2.4,0.5-3.4
		C33.8,112.7,34.4,112.1,34.8,111.6z M43.1,123.7c-0.4,0-1-0.1-1.5-0.1c-1.8,0.1-3.6,0.4-5.4,0.4c-1.4,0-2.3,0.5-3.1,1.4
		c-2.2,2.7-4.5,5.5-6.6,8.3c-3.2,4.3-5.2,9.2-7,14.1c-1.2,3.2-1.9,6.5-1.9,10c-0.1,3.1,0.8,5.9,1.7,8.8c1,3.4,3.1,6.1,6.5,7.4
		c2.4,1,4.8,1.9,7.3,2.7c6.6,2,13.3,2.6,20.2,1c1.6-0.4,3.1-0.6,4.7-1c5.4-1.3,10.6-2.8,14.6-7c2.8-3,5.4-6.1,6.7-9.9
		c1.8-5.2,2.1-10.7,0.5-16.1c-0.7-2.2-1.7-4.2-2.6-6.3c-3.1-6.9-7.8-12.6-13.9-17.1c-0.5-0.3-0.9-0.7-1.4-1c-2.1,1.8-5,2.1-7.7,3
		c0.1,0.5,0.2,0.9,0.3,1.3c0.3,2.5,0.7,5,0.8,7.6c0.1,1.9-0.1,3.7-0.2,5.6c-0.1,1.1-0.7,2.1-1.9,2.3c-1.3,0.3-2.4-0.2-3.1-1.4
		c-0.5-0.8-0.8-1.7-1.1-2.5c-0.3-0.8-0.3-1.7-0.5-2.5c-0.6,1.5-1,3.1-1.7,4.5c-0.5,1.2-1.8,1.4-2.8,0.6c-1-0.7-1.7-1.7-2.1-2.9
		c-0.5-1.8-0.8-3.5-0.3-5.3C41.9,127.7,42.5,125.8,43.1,123.7z M44.2,100.8c0.2,0.6,0.5,1.1,0.6,1.6c0.2,0.9,0.4,1.8,0.4,2.8
		c0,0.4-0.5,0.8-0.8,1.2c-0.4-0.3-1-0.5-1.1-0.9c-0.2-0.5-0.1-1.2-0.2-1.8c-0.2-1.3-1-2.3-2-2.4c-1.9-0.2-3.7-0.1-5.5,0.6
		c-2,0.8-2.5,1.9-1.9,4c0.5,1.6,1.3,3,2.6,4.2c0.8,0.8,1.4,0.9,2.4,0.5c0.9-0.4,1.9-0.6,2.9-0.6c5-0.2,10-0.4,15-0.5
		c0.9,0,1.6-0.2,1.9-1.1c0.8-2,1.7-3.9,2.3-6c0.4-1.4-0.4-2.4-1.9-2.6c-1.5-0.2-2.9,0.3-4.2,0.9c-0.9,0.4-1.1,0.9-1.1,1.9
		c0.1,1.1,0,2.3-0.1,3.4c-0.1,0.4-0.7,0.9-1.1,0.9c-0.4-0.1-0.9-0.6-1-1c-0.1-0.5,0.1-1.2,0.1-1.8c0.1-1,0.2-2.2-0.9-2.7
		C48.6,100.4,46.5,100,44.2,100.8z M35.3,117.5c2.7-1.5,5.6-2,8.6-1.9c1.5,0,3.1-0.2,4.6-0.3c3.2-0.2,6.5-0.5,9.7-0.7
		c0.7,0,1.4,0.1,1.5-0.8c0.1-0.8-0.2-1.5-1.1-1.7c-0.7-0.2-1.4-0.3-2.2-0.3c-4.2,0-8.4,0.1-12.6,0.2c-1.3,0-2.5,0.2-3.8,0.5
		c-1.3,0.3-2.6,0.7-3.8,1.2C34.5,114.6,34.1,116,35.3,117.5z M35,121.8c8.7-0.3,17.3-0.4,25.7-4.3c-0.9-0.2-1.3-0.5-1.7-0.5
		c-1.9,0-3.9,0.1-5.8,0.2c-2.9,0.2-5.8,0.4-8.8,0.5c-2.7,0.1-5.4,0.5-7.9,1.8C35.8,120,35,120.5,35,121.8z M50,123.2
		c0.1,0.7,0.2,1.3,0.3,1.9c0.1,3.1,0.2,6.2,0.3,9.4c0,0.6,0.2,1.2,0.4,1.7c0.1,0.3,0.6,0.6,0.9,0.6c0.3,0,0.8-0.4,0.9-0.7
		c0.2-0.6,0.4-1.3,0.4-1.9c0-2.1,0.1-4.2-0.1-6.2c-0.2-1.7-0.6-3.4-0.9-5.2C51.3,122.9,50.7,123.1,50,123.2z M47.1,123.7
		c-0.9-0.2-1.4-0.1-1.7,0.7c-0.5,1.5-1.1,2.8-1.7,4.3c-0.8,2.1-0.6,4.2,0.1,6.2c0.1,0.4,0.5,0.7,0.8,1.3
		C46.7,132.1,46.7,127.9,47.1,123.7z"/>
	<g>
		<path class="st1" d="M201.3,116.2c-0.8,0.3-1.5,0.7-2.3,0.8c-2.7,0.5-5.5,0.9-8.2,1.2c-1.6,0.2-3.2,0.3-4.7,0.2
			c-1.6-0.2-2.9,0.2-3.9,1.3c-1.8,2-3.9,3.7-5.4,6c-0.8,1.2-1.7,2.3-2.7,3.4c-2.2,2.6-4.2,5.3-5.5,8.4c-1.1,2.8-2.4,5.5-2.9,8.4
			c-0.8,4.8-0.5,9.7,0.9,14.5c1.4,4.6,4.4,8,8.4,10.4c3.6,2.2,7.5,3.9,11.8,4.6c2.3,0.4,4.6,0.6,6.9,0.6c2.4,0,4.7-0.5,7.1-0.7
			c3-0.2,5.9-0.9,8.6-2.1c4.1-1.8,7.4-4.6,10.6-7.8c4-4,5.8-8.8,6.1-14.2c0.4-5.7-1.4-11-4.1-15.9c-1.8-3.3-4.2-6.3-6.5-9.2
			c-2-2.5-4.2-4.7-7.1-6.3C206,118.8,203.7,117.5,201.3,116.2z"/>
		<path class="st1" d="M187.1,99.1c0.1,0.9,0.2,1.5,0.2,2.2c0,0.4-0.3,1-0.6,1.1c-0.6,0.2-0.9-0.4-1-0.9c-0.2-0.8-0.3-1.7-0.5-2.5
			c-0.4-1.6-1.4-2.1-3-1.5c-0.9,0.4-1.8,0.8-2.6,1.4c-1.3,0.9-2.6,1.8-3,3.4c1.7,2,3.4,4,5,5.8c5.9-2.4,11.7-3.9,17.8-1.9
			c2.1-1.1,3.4-2.9,4.7-4.6c0.9-1.3,1-2.6,0.5-3.9c-0.4-1.1-0.9-2.2-2.4-2.3c-1.3-0.1-2.5,0.7-3.2,2c-0.6,1.1-1.2,2.3-1.8,3.4
			c-0.1,0.2-0.5,0.5-0.8,0.4c-0.2,0-0.6-0.4-0.7-0.6c-0.1-0.6-0.1-1.3,0.1-1.9c0.2-0.8,0.6-1.6,0.9-2.4
			C192.8,95.4,189.8,96.6,187.1,99.1z"/>
		<path class="st2" d="M182.9,113.6c3.2-2,6.6-2.5,10.1-2.7c2.6-0.2,5.2-0.1,7.9-0.1c0.2-1-0.5-1.6-1.4-2c-0.7-0.3-1.5-0.6-2.2-0.7
			c-4.4-0.8-8.7-0.3-12.8,1.4c-0.4,0.2-0.9,0.3-1.3,0.6C181.4,111,181.3,112,182.9,113.6z"/>
		<path class="st2" d="M166.3,121.7c5.8-0.1,13.9-3.3,15.1-6c-4.1,0.9-8,1.8-11.9,2.8c-0.4,0.1-0.7,0.3-1.1,0.4
			C167.2,119.3,166.7,120.3,166.3,121.7z"/>
		<path class="st2" d="M200.5,113.6c-0.1-0.2-0.1-0.3-0.2-0.5c-5.2,0-10.4-0.4-15.7,2.1c0.6,0.5,1,1,1.4,1.2c0.7,0.2,1.4,0.1,2.2,0
			c2.5-0.3,5.1-0.6,7.6-1c1.2-0.2,2.3-0.5,3.4-0.9C199.7,114.4,200.1,113.9,200.5,113.6z"/>
		<path class="st2" d="M179.6,113.3c-0.7-0.2-1.4-0.4-2-0.6c-2.2-0.6-4.3-1.3-6.5-1.8c-1.4-0.3-2.8-0.3-4,0.7
			C168.6,113.6,175.3,114.6,179.6,113.3z"/>
		<g>
			<path d="M206.7,154.6c-0.5,2-1.6,3.5-3.3,4.7s-4.1,1.7-7,1.7c-2,0-3.8-0.2-5.3-0.7c-1.5-0.5-2.7-1.2-3.7-2.1
				c-1-0.9-1.7-2-2.2-3.3c-0.5-1.3-0.8-2.7-0.8-4.4h-0.7c-0.4,0-0.7-0.1-0.8-0.3s-0.3-0.5-0.3-0.9v-0.1c0-0.4,0.1-0.7,0.3-0.8
				c0.2-0.2,0.5-0.3,0.8-0.3h0.7v-2h-0.7c-0.4,0-0.7-0.1-0.8-0.3s-0.3-0.5-0.3-0.9v-0.1c0-0.4,0.1-0.7,0.3-0.8
				c0.2-0.2,0.5-0.3,0.8-0.3h0.7c0.2-3.3,1.2-5.8,3.2-7.6c2-1.8,4.9-2.7,8.8-2.7c3,0,5.3,0.6,7.1,1.7c1.8,1.2,2.8,2.8,3.2,4.9
				c0.1,0.5,0.2,1,0.2,1.3c0.1,1-0.4,1.5-1.3,1.5h-1.9c-0.6,0-0.9-0.1-1.2-0.3c-0.2-0.2-0.4-0.6-0.5-1.2c-0.1-0.3-0.2-0.6-0.3-0.9
				c-0.8-1.6-2.6-2.5-5.4-2.5c-2.1,0-3.7,0.4-4.8,1.3c-1.1,0.9-1.7,2.4-1.9,4.5h7.1c0.7,0,1.1,0.4,1.1,1.1v0.1
				c0,0.8-0.4,1.1-1.1,1.1h-7.2v2h7.2c0.7,0,1.1,0.4,1.1,1.1v0.1c0,0.8-0.4,1.1-1.1,1.1h-7.1c0.2,2.2,0.8,3.7,1.9,4.6
				c1.1,0.9,2.7,1.4,4.8,1.4c2.7,0,4.4-0.7,5.2-2.1c0.2-0.4,0.4-0.8,0.5-1.3c0.1-0.6,0.3-1,0.5-1.2c0.2-0.2,0.6-0.3,1.2-0.3h1.8
				c1,0,1.5,0.5,1.4,1.6C207,153.7,206.9,154.1,206.7,154.6z"/>
		</g>
		<path d="M201.7,107.6c0.8,1.3,1.3,2.8,0.9,4.7c-0.2,1,0.1,2.4,1.6,3.1c1.4,0.6,2.6,1.5,4,2.2c3.8,1.8,6.6,4.8,9.2,8
			c2,2.5,3.8,5.2,5.6,7.9c2.4,3.5,3.4,7.6,4.3,11.6c1.1,4.8,0.7,9.5-0.9,14.2c-1.5,4.6-4.6,7.8-8,10.9c-1.5,1.4-3,2.8-4.8,3.8
			c-2.6,1.4-5.3,2.8-8.2,3.4c-4.9,0.9-10,1.5-15,1.1c-3.7-0.3-7.3-1.2-10.7-2.7c-1.6-0.7-3.1-1.4-4.7-2.1c-0.2-0.1-0.5-0.2-0.7-0.3
			c-4.6-3.4-8.5-7.4-9.8-13.3c-0.8-3.3-1.1-6.6-1.1-10c0-7.2,2.8-13.3,6.6-19c2.4-3.6,5.3-6.9,8.1-10.4c-0.8,0.3-1.7,0.5-2.4,0.9
			c-2.5,1.3-5.2,1.5-7.8,1.9c-1.3,0.2-2.3-0.4-2.8-1.4c-0.5-1.1-0.4-2.1,0.4-3.1c1.3-1.4,2.7-2.5,4.7-2.6c0.6,0,1.2-0.3,1.8-0.7
			c-0.9-0.2-1.8-0.4-2.7-0.4c-1.5-0.1-2.6-1-3.5-2.1c-1.4-1.7-0.7-3.6,1.5-3.9c1.5-0.2,3-0.1,4.5,0.1c1.4,0.2,2.8,0.8,4.2,1.2
			c1.1,0.3,2.3,0.6,3.4,0.9c0.5-1.2,0.4-2.1-0.4-3c-1.2-1.4-2.4-2.8-3.6-4.2c-1.3-1.4-1.5-2.5-0.5-4.1c1.7-2.9,4.4-4.4,7.5-5.2
			c1.4-0.4,2.7,0.3,3.4,1.7c1.4-0.7,2.7-1.4,4.1-2c2.1-1,4.3-1,6.6-0.8c0.8,0.1,1.7,0,2.5-0.3c3.5-1.3,5.7,0.2,6.8,3
			c1,2.6,0.7,4.9-1,7.1C204,104.8,203,106,201.7,107.6z M201.3,116.2c-0.8,0.3-1.5,0.7-2.3,0.8c-2.7,0.5-5.5,0.9-8.2,1.2
			c-1.6,0.2-3.2,0.3-4.7,0.2c-1.6-0.2-2.9,0.2-3.9,1.3c-1.8,2-3.9,3.7-5.4,6c-0.8,1.2-1.7,2.3-2.7,3.4c-2.2,2.6-4.2,5.3-5.5,8.4
			c-1.1,2.8-2.4,5.5-2.9,8.4c-0.8,4.8-0.5,9.7,0.9,14.5c1.4,4.6,4.4,8,8.4,10.4c3.6,2.2,7.5,3.9,11.8,4.6c2.3,0.4,4.6,0.6,6.9,0.6
			c2.4,0,4.7-0.5,7.1-0.7c3-0.2,5.9-0.9,8.6-2.1c4.1-1.8,7.4-4.6,10.6-7.8c4-4,5.8-8.8,6.1-14.2c0.4-5.7-1.4-11-4.1-15.9
			c-1.8-3.3-4.2-6.3-6.5-9.2c-2-2.5-4.2-4.7-7.1-6.3C206,118.8,203.7,117.5,201.3,116.2z M187.1,99.1c0.1,0.9,0.2,1.5,0.2,2.2
			c0,0.4-0.3,1-0.6,1.1c-0.6,0.2-0.9-0.4-1-0.9c-0.2-0.8-0.3-1.7-0.5-2.5c-0.4-1.6-1.4-2.1-3-1.5c-0.9,0.4-1.8,0.8-2.6,1.4
			c-1.3,0.9-2.6,1.8-3,3.4c1.7,2,3.4,4,5,5.8c5.9-2.4,11.7-3.9,17.8-1.9c2.1-1.1,3.4-2.9,4.7-4.6c0.9-1.3,1-2.6,0.5-3.9
			c-0.4-1.1-0.9-2.2-2.4-2.3c-1.3-0.1-2.5,0.7-3.2,2c-0.6,1.1-1.2,2.3-1.8,3.4c-0.1,0.2-0.5,0.5-0.8,0.4c-0.2,0-0.6-0.4-0.7-0.6
			c-0.1-0.6-0.1-1.3,0.1-1.9c0.2-0.8,0.6-1.6,0.9-2.4C192.8,95.4,189.8,96.6,187.1,99.1z M182.9,113.6c3.2-2,6.6-2.5,10.1-2.7
			c2.6-0.2,5.2-0.1,7.9-0.1c0.2-1-0.5-1.6-1.4-2c-0.7-0.3-1.5-0.6-2.2-0.7c-4.4-0.8-8.7-0.3-12.8,1.4c-0.4,0.2-0.9,0.3-1.3,0.6
			C181.4,111,181.3,112,182.9,113.6z M166.3,121.7c5.8-0.1,13.9-3.3,15.1-6c-4.1,0.9-8,1.8-11.9,2.8c-0.4,0.1-0.7,0.3-1.1,0.4
			C167.2,119.3,166.7,120.3,166.3,121.7z M200.5,113.6c-0.1-0.2-0.1-0.3-0.2-0.5c-5.2,0-10.4-0.4-15.7,2.1c0.6,0.5,1,1,1.4,1.2
			c0.7,0.2,1.4,0.1,2.2,0c2.5-0.3,5.1-0.6,7.6-1c1.2-0.2,2.3-0.5,3.4-0.9C199.7,114.4,200.1,113.9,200.5,113.6z M179.6,113.3
			c-0.7-0.2-1.4-0.4-2-0.6c-2.2-0.6-4.3-1.3-6.5-1.8c-1.4-0.3-2.8-0.3-4,0.7C168.6,113.6,175.3,114.6,179.6,113.3z"/>
	</g>
	<path d="M246.1,111c-5.4-1.8-7.6-5.9-8.1-11.1c-0.3-3,2.1-4.8,4.5-5.1c1.5-0.2,2.8-0.5,4.2-1c2.1-0.8,4.4-1.3,6.7-0.8
		c1.9,0.4,3.6-0.2,5.3-0.8c2.2-0.7,4.3-1.6,6.6-2c2.9-0.6,5.5,0.1,7.3,2.7c1.9,2.7,1.9,4.7-0.2,7.3c-0.7,0.8-1.2,1.7-1.9,2.5
		c-0.6,0.7-1.2,1.3-1.9,1.9c-0.6,0.5-1.4,0.9-2.2,1.4c1.1,1.4,2.3,2.7,2.5,4.6c0.1,0.7,0.9,1.3,1.5,2.1c3.5-1.1,7-0.8,10.6-0.9
		c1.9,0,3.7,0.5,5.4,1.4c1,0.5,1.7,1.3,2,2.3c0.4,1.3,0,2.4-1.3,2.9c-1.8,0.7-3.6,1.2-5.7,1.1c-1.3-0.1-2.6,0.2-3.9,0.3
		c1.3,1.6,2.5,3.2,3.8,4.9c3.7,4.9,6.2,10.3,8.2,16.1c1.9,5.5,2.2,11,1.5,16.6c-0.6,5.4-3.4,9.5-7.5,12.8c-2.6,2.1-5.5,3.6-8.7,4.8
		c-3.8,1.4-7.7,2.3-11.7,2.6c-6.3,0.4-12.5-0.2-18.4-2.6c-4.2-1.7-7.6-4.4-10-8.5c-2.7-4.7-3.9-9.8-4.3-15.1
		c-0.3-4.9,0.4-9.7,2.5-14.2c1.5-3.1,2.9-6.3,4.5-9.4c0.4-0.8,1-1.5,1.5-2.3c2.3-3,4.6-6,6.8-9c0.4-0.5,0.5-1.3,0.6-1.9
		C246.2,113.4,246.1,112.2,246.1,111z M265.7,116.2c-1.4,0.1-2.3,0.1-3.3,0.3c-4.3,0.8-8.7,0.9-13.1,0.8c-1.3,0-2.1,0.4-2.8,1.3
		c-1.7,2.4-3.6,4.6-5.2,7.1c-1.5,2.4-2.9,4.9-4.2,7.4c-1.1,2.2-2.1,4.5-3.1,6.9c-1.4,3.5-2,7.3-1.8,11c0.1,3.2,0.9,6.3,1.7,9.4
		c0.8,3.3,2.2,6.4,4.9,8.6c2.1,1.7,4.6,2.9,7,4c2.7,1.1,5.6,1.5,8.5,1.8c4.8,0.5,9.6,0.5,14.3-0.5c6.7-1.4,12.5-4.2,16.8-9.7
		c0.7-0.9,1.5-1.7,1.9-2.7c2.3-5.7,2.5-11.7,1.1-17.6c-1.1-4.8-2.7-9.5-5.5-13.7c-2.8-4.2-5.6-8.5-9.5-11.8c-0.6-0.5-1.3-0.9-2-1.4
		c0.2,1.8,0.7,3.4,1.1,5c0.6,2.3,1.2,4.7,1.6,7.1c0.3,1.5-0.1,2.9-1.6,3.8c-0.4,0.2-0.8,0.6-1.1,0.8c-2.9-1-4.2-3.1-4.5-6
		c-0.2-1.8-0.3-3.6-0.5-5.4C266.4,120.6,266,118.5,265.7,116.2z M264.1,105.1c0.6-0.7,1-1.4,1.6-1.9c1.1-1,2.2-2,3.3-2.9
		c1.7-1.4,2.2-3.3,2-5.4c-0.1-0.5-0.4-1.2-0.8-1.3c-1.3-0.6-2.7-1.3-4.2-0.9c-2.8,0.8-5.5,1.7-8.3,2.6c1.2,3.8,1.1,4.2-0.4,5.3
		c-0.3-0.8-0.7-1.5-0.8-2.3c-0.2-1.8-1.5-2.5-3-2.6c-1.5-0.2-3-0.2-4.4,0.5c0.6,1.7,1.2,3.3,1.9,4.9c0.4,1,0.3,1.8-1,2.4
		c-0.5-1.4-1-2.7-1.5-4c-0.4-1.2-1.1-2.1-2.5-2.2c-1-0.1-2,0-2.9,0.1c-2.1,0.3-3.4,1.5-2.9,3.9c0.1,0.5,0.2,1.1,0.5,1.6
		c1.3,2.8,2.8,5.3,6.2,5.9c0.4,0.1,0.7,0.4,1,0.6c2.4-1.7,4.9-3,7.8-3.3C258.4,105.7,261.2,105.4,264.1,105.1z M248,112.8
		c6-2.7,12.3-2.6,18.7-2.8c-0.9-1.8-2.1-2.3-3.7-2.3c-3.2-0.1-6.2,0.6-9.3,1.3c-1.8,0.4-3.3,1.5-4.7,2.5
		C248.6,111.7,248.4,112.3,248,112.8z M271.9,114.8c1.2,0.6,2,1.3,2.9,1.5c2.2,0.4,4.5,0.7,6.8,0.7c1.4,0,3-0.1,4.2-1.2
		C283.8,114,277,113.5,271.9,114.8z M271.2,131.5c1.2-0.7,1.1-1.7,0.9-2.7c-0.8-3.9-1.7-7.7-3.3-11.4c-0.3-0.6-0.7-1.2-1.1-2.1
		c0.3,2.3,0.6,4.2,0.8,6.1c0.3,2.3,0.6,4.5,0.8,6.8C269.5,129.7,270.1,130.7,271.2,131.5z M250.5,114.6c3.2,1,15.3-0.6,16.7-2.3
		c-3,0.1-5.7,0.2-8.5,0.3C255.9,112.7,253.3,113.4,250.5,114.6z"/>
	<path class="st1" d="M106.1,120.5c-0.9,1.2-1.7,2.3-2.6,3.4c-1.7,2-3.5,3.9-5.1,6c-2.7,3.4-4.8,7.2-6.5,11.2
		c-2.2,5.3-3.6,10.7-3.2,16.4c0.4,5.7,2.8,10.3,7.8,13.3c0.3,0.2,0.5,0.4,0.8,0.6c4.5,3.2,9.6,4.8,14.9,5.6
		c4.6,0.7,9.2,0.8,13.9,0.3c4.4-0.5,8.8-1.1,13.1-2.3c4.8-1.3,8.8-3.7,11.7-7.8c0.4-0.6,1-1.1,1.4-1.7c1.7-2.3,3.4-4.7,3.8-7.5
		c0.4-3.1,0.1-6.4-0.2-9.6c-0.2-2.7-1.6-5.1-2.5-7.6c-0.9-2.4-2-4.6-3.6-6.5c-1.7-2.1-3.5-4.1-5.3-6.1c-1.2-1.3-2.4-2.7-3.7-3.8
		c-2.4-1.9-4.9-3.8-8.4-3.3c-0.6,0.1-1.2-0.2-1.7-0.2c-1.6-0.1-3.2-0.3-4.9,0.2c0.5,0.8,1,1.4,1.4,2.1c1,1.9,1.9,3.7,2.7,5.6
		c0.2,0.6,0.3,1.3,0.2,1.9c-0.3,2-1.7,2.6-3.4,1.7c-1.8-1-3.1-2.4-4-4.2c-0.8-1.8-1.7-3.6-2.6-5.7c-0.4,0.8-0.8,1.3-1.1,1.9
		c-1.2,2.3-2.3,4.5-3.4,6.8c-0.2,0.5-0.4,1-0.8,1.4c-1.2,1.4-2.4,3-4.6,2.8c-1.6-0.2-2.1-0.6-2.1-2.2c0-0.8,0.1-1.7,0.5-2.5
		c1.3-3.2,2.7-6.4,5.1-9c0.1-0.1,0.1-0.3,0.2-0.6C111.3,120.9,108.7,120.7,106.1,120.5z"/>
	<path class="st1" d="M122.3,105c-0.6-0.9-0.3-1.6-0.2-2.4c0.4-1.9,0-3-1.5-3.6c-1.6-0.6-3.2-1.2-5-0.7c-2,0.6-4,1.2-6,1.9
		c-0.6,0.2-1.5,0.8-1.5,1c0.2,0.7,0.7,1.3,1.2,1.9c0.1,0.2,0.4,0.3,0.7,0.4c0.8,0.4,1.1,1,1.1,1.9c-1.5,0.5-2.5-0.2-3.3-1.2
		c-0.7-0.8-1.3-1.6-1.8-2.5c-1-1.6-2.5-2-4.2-2c-1,0-2.6,1.1-3,2c-0.4,1.1,0.2,1.8,0.9,2.4c1.6,1.4,3.3,2.7,4.9,4.2
		c1.6,1.5,3.5,1.7,5.6,1.4c1.7-0.2,3.4,0.1,5,0.1c3.4-0.1,6.8-0.5,10.2-0.5c2.9-0.1,5.8,0.2,8.6,0.2c0.7,0,1.5-0.1,2-0.5
		c1.9-1.6,3.8-3.3,5.6-5c0.7-0.6,1.5-1.5,0.9-2.4c-0.4-0.6-1.5-0.8-2.4-1.1c-0.3-0.1-0.7,0-0.9,0.2c-0.9,0.6-1.8,1.2-2.7,1.9
		c-1,0.8-1.8,1.7-2.7,2.5c-0.5,0.4-1.2,0.8-1.8,0.1c-0.7-0.7,0-1.2,0.5-1.6c0.6-0.6,1.3-1.1,1.8-1.8c0.3-0.3,0.4-0.9,0.3-1.2
		c-0.5-1.4-2.6-2.3-4.1-1.8c-1.6,0.6-3.2,1.2-4.7,1.9c-0.6,0.2-1.3,0.4-2,0.7C123.9,102.7,124.2,104.3,122.3,105z"/>
	<path class="st2" d="M137.2,116.7c-0.8-0.2-1.6-0.4-2.4-0.4c-2.4,0-4.8,0-7.2,0.1c-6.5,0.1-13-0.1-19.4,0.7c-1.1,0.1-2.2,0-3.2,1.1
		c1.3,0.1,2.3,0.2,3.3,0.3c2.5,0.1,5.1,0.3,7.6,0.4c1.3,0,2.6-0.2,3.9-0.3c0.8-0.1,1.7-0.2,2.9-0.3c0.9,0.7,2.3,0.5,3.7,0.4
		c0.7-0.1,1.4,0,2.1,0c2.1,0.1,4.2,0.3,6.3,0.3C136.2,118.9,136.7,118.4,137.2,116.7z"/>
	<path class="st2" d="M137.1,114.2c0-0.7,0.1-1.3-0.1-1.7c-0.1-0.3-0.7-0.5-1.2-0.5c-3.9-0.1-7.7-0.3-11.6-0.2
		c-4.7,0.2-9.5,0.8-14.2,0.3c-1.5-0.1-3.1,0.1-4.5,1.1c-0.1,0.1-0.2,0.3-0.3,0.5c0.4,0.4,0.8,0.9,1.1,1.2
		C110.4,114.1,133.6,113.5,137.1,114.2z"/>
	<path class="st2" d="M110,133.6c2.3-1,6.8-7.8,8.6-12.7c-1.2-0.2-1.6,0.7-2.2,1.3C113.2,125.3,111.4,129.1,110,133.6z"/>
	<path class="st2" d="M127.9,130.8c0.1-0.6,0.2-1,0.1-1.3c-0.7-3.2-2.3-6-4.6-8.3c-0.3-0.3-0.9-0.2-1.7-0.4c1.3,3.4,2.5,6.3,4.5,8.8
		C126.5,130.1,127.1,130.3,127.9,130.8z"/>
	<g>
		<path d="M134.7,160c-0.5,2-1.6,3.5-3.3,4.7s-4.1,1.7-7,1.7c-2,0-3.8-0.2-5.3-0.7c-1.5-0.5-2.7-1.2-3.7-2.1c-1-0.9-1.7-2-2.2-3.3
			c-0.5-1.3-0.8-2.7-0.8-4.4h-0.7c-0.4,0-0.7-0.1-0.8-0.3s-0.3-0.5-0.3-0.9v-0.1c0-0.4,0.1-0.7,0.3-0.8c0.2-0.2,0.5-0.3,0.8-0.3h0.7
			v-2h-0.7c-0.4,0-0.7-0.1-0.8-0.3s-0.3-0.5-0.3-0.9v-0.1c0-0.4,0.1-0.7,0.3-0.8c0.2-0.2,0.5-0.3,0.8-0.3h0.7
			c0.2-3.3,1.2-5.8,3.2-7.6c2-1.8,4.9-2.7,8.8-2.7c3,0,5.3,0.6,7.1,1.7c1.8,1.2,2.8,2.8,3.2,4.9c0.1,0.5,0.2,1,0.2,1.3
			c0.1,1-0.4,1.5-1.3,1.5h-1.9c-0.6,0-0.9-0.1-1.2-0.3c-0.2-0.2-0.4-0.6-0.5-1.2c-0.1-0.3-0.2-0.6-0.3-0.9c-0.8-1.6-2.6-2.5-5.4-2.5
			c-2.1,0-3.7,0.4-4.8,1.3c-1.1,0.9-1.7,2.4-1.9,4.5h7.1c0.7,0,1.1,0.4,1.1,1.1v0.1c0,0.8-0.4,1.1-1.1,1.1h-7.2v2h7.2
			c0.7,0,1.1,0.4,1.1,1.1v0.1c0,0.8-0.4,1.1-1.1,1.1h-7.1c0.2,2.2,0.8,3.7,1.9,4.6c1.1,0.9,2.7,1.4,4.8,1.4c2.7,0,4.4-0.7,5.2-2.1
			c0.2-0.4,0.4-0.8,0.5-1.3c0.1-0.6,0.3-1,0.5-1.2c0.2-0.2,0.6-0.3,1.2-0.3h1.8c1,0,1.5,0.5,1.4,1.6C135,159,134.9,159.5,134.7,160z
			"/>
	</g>
	<path d="M104.1,119.7c-0.7-1.5-1.5-3,0.1-4.2c-1.5-2.9-1.5-3,0.8-4.9c-1.4-1.1-2.8-2.2-4.1-3.3c-1.1-1.1-2.4-2.1-3.2-3.4
		c-1.5-2.4,0.1-5.6,2.8-6.1c1.7-0.3,3.4-0.5,4.9,0.6c0.9,0.7,1.9,0.3,2.8,0c2-0.7,3.9-1.7,5.9-2.2c2.8-0.7,5.5-0.3,7.9,1.3
		c0.7,0.4,1.4,1,2.2,1.6c0.7-0.3,1.4-0.7,2.1-1c1.2-0.5,2.4-1,3.7-1.4c2.4-0.8,4.2,0.1,5.6,2c0.2,0.3,0.4,0.5,0.6,0.8
		c0,0,0.1,0.1,0.2,0.1c0.7-0.3,1.4-0.6,2.1-0.9c1.9-0.7,4.5-0.2,5.4,1.3c1.3,2.2,1.4,4.2-0.8,6.1c-1.6,1.4-3.1,2.8-4.7,4.2
		c0.2,1,0.7,2,0.7,3c0,1.3-0.2,2.6,0,4c0.2,0.8-0.5,1.7-0.8,2.7c0.1,0.1,0.2,0.3,0.4,0.4c2.9,1.8,5.3,4.3,7.4,6.9
		c1.9,2.4,4,4.7,5.9,7.1c0.5,0.6,0.9,1.3,1.3,2c2,4.4,3.8,8.9,4.8,13.7c0.1,0.6,0.1,1.3,0.1,2c0,1.2-0.2,2.5-0.1,3.7
		c0.2,4.9-2,8.7-4.9,12.3c-0.2,0.3-0.6,0.5-0.8,0.9c-1.7,2.9-4.5,4.4-7.2,6.2c-2.9,1.8-6.1,2.3-9.3,3c-6.6,1.5-13.2,1.9-19.9,1.5
		c-4.1-0.2-8.1-1.3-12-2.8c-3-1.1-5.7-2.6-8.4-4.2c-1.8-1.1-3.5-2.6-4.7-4.4c-1-1.5-2-3-2.6-4.6c-1.6-4.1-2-8.4-1.3-12.7
		c1.2-7.9,4.1-15,9-21.3c1.8-2.3,3.8-4.5,5.7-6.8C102.4,121.7,103.2,120.8,104.1,119.7z M106.1,120.5c-0.9,1.2-1.7,2.3-2.6,3.4
		c-1.7,2-3.5,3.9-5.1,6c-2.7,3.4-4.8,7.2-6.5,11.2c-2.2,5.3-3.6,10.7-3.2,16.4c0.4,5.7,2.8,10.3,7.8,13.3c0.3,0.2,0.5,0.4,0.8,0.6
		c4.5,3.2,9.6,4.8,14.9,5.6c4.6,0.7,9.2,0.8,13.9,0.3c4.4-0.5,8.8-1.1,13.1-2.3c4.8-1.3,8.8-3.7,11.7-7.8c0.4-0.6,1-1.1,1.4-1.7
		c1.7-2.3,3.4-4.7,3.8-7.5c0.4-3.1,0.1-6.4-0.2-9.6c-0.2-2.7-1.6-5.1-2.5-7.6c-0.9-2.4-2-4.6-3.6-6.5c-1.7-2.1-3.5-4.1-5.3-6.1
		c-1.2-1.3-2.4-2.7-3.7-3.8c-2.4-1.9-4.9-3.8-8.4-3.3c-0.6,0.1-1.2-0.2-1.7-0.2c-1.6-0.1-3.2-0.3-4.9,0.2c0.5,0.8,1,1.4,1.4,2.1
		c1,1.9,1.9,3.7,2.7,5.6c0.2,0.6,0.3,1.3,0.2,1.9c-0.3,2-1.7,2.6-3.4,1.7c-1.8-1-3.1-2.4-4-4.2c-0.8-1.8-1.7-3.6-2.6-5.7
		c-0.4,0.8-0.8,1.3-1.1,1.9c-1.2,2.3-2.3,4.5-3.4,6.8c-0.2,0.5-0.4,1-0.8,1.4c-1.2,1.4-2.4,3-4.6,2.8c-1.6-0.2-2.1-0.6-2.1-2.2
		c0-0.8,0.1-1.7,0.5-2.5c1.3-3.2,2.7-6.4,5.1-9c0.1-0.1,0.1-0.3,0.2-0.6C111.3,120.9,108.7,120.7,106.1,120.5z M122.3,105
		c-0.6-0.9-0.3-1.6-0.2-2.4c0.4-1.9,0-3-1.5-3.6c-1.6-0.6-3.2-1.2-5-0.7c-2,0.6-4,1.2-6,1.9c-0.6,0.2-1.5,0.8-1.5,1
		c0.2,0.7,0.7,1.3,1.2,1.9c0.1,0.2,0.4,0.3,0.7,0.4c0.8,0.4,1.1,1,1.1,1.9c-1.5,0.5-2.5-0.2-3.3-1.2c-0.7-0.8-1.3-1.6-1.8-2.5
		c-1-1.6-2.5-2-4.2-2c-1,0-2.6,1.1-3,2c-0.4,1.1,0.2,1.8,0.9,2.4c1.6,1.4,3.3,2.7,4.9,4.2c1.6,1.5,3.5,1.7,5.6,1.4
		c1.7-0.2,3.4,0.1,5,0.1c3.4-0.1,6.8-0.5,10.2-0.5c2.9-0.1,5.8,0.2,8.6,0.2c0.7,0,1.5-0.1,2-0.5c1.9-1.6,3.8-3.3,5.6-5
		c0.7-0.6,1.5-1.5,0.9-2.4c-0.4-0.6-1.5-0.8-2.4-1.1c-0.3-0.1-0.7,0-0.9,0.2c-0.9,0.6-1.8,1.2-2.7,1.9c-1,0.8-1.8,1.7-2.7,2.5
		c-0.5,0.4-1.2,0.8-1.8,0.1c-0.7-0.7,0-1.2,0.5-1.6c0.6-0.6,1.3-1.1,1.8-1.8c0.3-0.3,0.4-0.9,0.3-1.2c-0.5-1.4-2.6-2.3-4.1-1.8
		c-1.6,0.6-3.2,1.2-4.7,1.9c-0.6,0.2-1.3,0.4-2,0.7C123.9,102.7,124.2,104.3,122.3,105z M137.2,116.7c-0.8-0.2-1.6-0.4-2.4-0.4
		c-2.4,0-4.8,0-7.2,0.1c-6.5,0.1-13-0.1-19.4,0.7c-1.1,0.1-2.2,0-3.2,1.1c1.3,0.1,2.3,0.2,3.3,0.3c2.5,0.1,5.1,0.3,7.6,0.4
		c1.3,0,2.6-0.2,3.9-0.3c0.8-0.1,1.7-0.2,2.9-0.3c0.9,0.7,2.3,0.5,3.7,0.4c0.7-0.1,1.4,0,2.1,0c2.1,0.1,4.2,0.3,6.3,0.3
		C136.2,118.9,136.7,118.4,137.2,116.7z M137.1,114.2c0-0.7,0.1-1.3-0.1-1.7c-0.1-0.3-0.7-0.5-1.2-0.5c-3.9-0.1-7.7-0.3-11.6-0.2
		c-4.7,0.2-9.5,0.8-14.2,0.3c-1.5-0.1-3.1,0.1-4.5,1.1c-0.1,0.1-0.2,0.3-0.3,0.5c0.4,0.4,0.8,0.9,1.1,1.2
		C110.4,114.1,133.6,113.5,137.1,114.2z M110,133.6c2.3-1,6.8-7.8,8.6-12.7c-1.2-0.2-1.6,0.7-2.2,1.3
		C113.2,125.3,111.4,129.1,110,133.6z M127.9,130.8c0.1-0.6,0.2-1,0.1-1.3c-0.7-3.2-2.3-6-4.6-8.3c-0.3-0.3-0.9-0.2-1.7-0.4
		c1.3,3.4,2.5,6.3,4.5,8.8C126.5,130.1,127.1,130.3,127.9,130.8z"/>
</g>
</svg>
