<?xml version="1.0" encoding="utf-8"?>
<!-- Generator: Adobe Illustrator 19.1.0, SVG Export Plug-In . SVG Version: 6.00 Build 0)  -->
<svg version="1.1" id="Calque_1" xmlns="http://www.w3.org/2000/svg" xmlns:xlink="http://www.w3.org/1999/xlink" x="0px" y="0px"
	 viewBox="0 0 61.4 24.1" style="enable-background:new 0 0 61.4 24.1;" xml:space="preserve">
<style type="text/css">
	.st0{fill:#E01220;}
</style>
<g>
	<path d="M0.8,2.4c4.9-0.3,9.6-0.5,14.3-0.8c7.9-0.4,15.8-0.7,23.7-1c3.8-0.1,7.6-0.1,11.4-0.2c1.1,0,2.3,0.3,3.3-0.1
		c2.4-1,4.2,0.6,6.1,1.3c0.5,0.2,1,1.3,1.1,2c0.3,4.5,0.6,9,0.7,13.5c0.1,2.6-1.9,4.8-4.3,5.3c-5.4,1.1-10.8,1.6-16.3,1.4
		c-4.8-0.2-9.6,0.3-14.4,0.3c-5.6,0-11.2-0.3-16.8-0.4c-1.4,0-2.8,0-4.2-0.2c-3.2-0.3-4.2-1.6-4.9-4.8C-0.5,13.4,0.2,8.1,0.8,2.4z
		 M53.9,4C48.1,3.3,6.4,5.2,3.2,6.4c0,3.7,0,7.4,0,11.5c2.4,0,4.6,0.1,6.7,0c4.6-0.2,9.2-0.5,13.8-0.6c9.5-0.2,19-0.3,28.5-0.4
		c0.9,0,1.9-0.3,2.6-0.4C54.5,12.1,54.2,8.1,53.9,4z"/>
	<path class="st0" d="M53.9,4C48.1,3.3,6.4,5.2,3.2,6.4c0,3.7,0,7.4,0,11.5c2.4,0,4.6,0.1,6.7,0c4.6-0.2,9.2-0.5,13.8-0.6
		c9.5-0.2,19-0.3,28.5-0.4c0.9,0,1.9-0.3,2.6-0.4C54.5,12.1,54.2,8.1,53.9,4z"/>
</g>
</svg>
