<?xml version="1.0" encoding="utf-8"?>
<!-- Generator: Adobe Illustrator 19.1.0, SVG Export Plug-In . SVG Version: 6.00 Build 0)  -->
<svg version="1.1" id="Calque_1" xmlns="http://www.w3.org/2000/svg" xmlns:xlink="http://www.w3.org/1999/xlink" x="0px" y="0px"
	 viewBox="0 0 70.3 66.9" style="enable-background:new 0 0 70.3 66.9;" xml:space="preserve">
<style type="text/css">
	.st0{display:none;fill:#F7B5AC;}
	.st1{fill:#F7B5AC;}
	.st2{fill:#EB5C5F;}
	.st3{fill:#84B974;}
	.st4{fill:#010202;}
	.st5{fill:#AB7613;}
	.st6{fill:#C0BFBF;}
	.st7{fill:#6FA4C3;}
	.st8{fill:#1E1E1C;}
	.st9{fill:none;}
	.st10{fill:none;stroke:#EB5C5F;stroke-width:3;stroke-miterlimit:10;}
	.st11{fill:none;stroke:#6FA4C3;stroke-width:3;stroke-miterlimit:10;}
	.st12{fill:none;stroke:#84B974;stroke-width:3;stroke-miterlimit:10;}
	.st13{fill:none;stroke:#C0BFBF;stroke-width:3;stroke-miterlimit:10;}
	.st14{fill:none;stroke:#F7B5AC;stroke-width:3;stroke-miterlimit:10;}
</style>
<path class="st8" d="M0,32.4c1.7-11.7,6.7-22,18.5-28C29-0.9,39.9-1.4,50.9,2.8c6.4,2.5,10.6,7.6,14.4,13
	c9.1,18.8,3.1,31.5,2.1,34.4C64.2,56.4,55.7,64.5,45,66.1c-12.7,1.9-25.4,1-35.7-9.8C3.3,49.9,0.6,42,0,32.4 M58.2,32.6
	c-0.5-3.6-1-7.5-1.8-11.4c-0.7-3.7-2.2-7.3-4.9-10c-5.7-5.8-12.8-8-20.8-6.3c-9.8,2.1-16.8,7.8-21,16.9C6.4,29,5.3,36.4,8.1,44.2
	c2.1,5.8,4.7,11.1,10.8,13.4C39.1,66,58.2,50,58.2,32.6"/>
</svg>
