<?xml version="1.0" encoding="utf-8"?>
<!-- Generator: Adobe Illustrator 19.1.0, SVG Export Plug-In . SVG Version: 6.00 Build 0)  -->
<svg version="1.1" id="Calque_1" xmlns="http://www.w3.org/2000/svg" xmlns:xlink="http://www.w3.org/1999/xlink" x="0px" y="0px"
	 viewBox="-2423.7 1549.6 273.6 160" style="enable-background:new -2423.7 1549.6 273.6 160;" xml:space="preserve">
<style type="text/css">
	.st0{fill:#6F9BBB;}
	.st1{fill:#E46D65;}
	.st2{fill:#1D1D1B;}
	.st3{fill:#FFFFFF;stroke:#E46D65;stroke-width:3;stroke-miterlimit:10;}
	.st4{fill:#6EA2C2;}
	.st5{fill:none;stroke:#E46D65;stroke-width:3;stroke-miterlimit:10;}
	.st6{fill:#C2C2C2;}
	.st7{fill:#F3F6ED;}
	.st8{fill:#EA6C65;}
	.st9{fill:#80BA40;}
	.st10{fill:#B9B8B8;}
	.st11{fill:#1A94C1;}
	.st12{fill:none;stroke:#B9B8B8;stroke-width:3;stroke-miterlimit:10;}
	.st13{fill:none;}
	.st14{fill:#EC6C65;}
	.st15{fill:none;stroke:#EC6C65;stroke-width:4;stroke-miterlimit:10;}
	.st16{fill:#169BC9;}
	.st17{fill:#FFFFFF;}
	.st18{fill:#C0C0C0;}
	.st19{fill:none;stroke:#C0C0C0;stroke-width:3;stroke-miterlimit:10;}
	.st20{fill:none;stroke:#EC6C65;stroke-width:3;stroke-miterlimit:10;}
	.st21{fill:none;stroke:#80BA40;stroke-width:3;stroke-miterlimit:10;}
	.st22{fill:#4D4D4D;}
	.st23{fill:#6DA0C0;}
	.st24{fill:#FFFFFF;stroke:#80BA40;stroke-width:3;stroke-miterlimit:10;}
	.st25{fill:#D9EAC5;}
	.st26{fill:#A6CF7A;}
	.st27{fill:#BFDC9F;}
</style>
<g>
	<path d="M-2214.1,1701.1c-4.2-2.4-7.4-5.9-9.5-10.2c-0.7-1.4-0.9-3.1-1.4-4.7c-0.5-1.4-1.4-2.2-2.9-2.7c-6.6-2.2-13.3-2.3-20.1-1.6
		c-2.1,0.2-4.2,1-6.3,1.4c-2,0.4-4.2,0.5-6.2,1.1c-4.3,1.4-8.5,3.2-12.8,4.8c-3.2,1.2-6.3,2.4-9.5,3.6c-4,1.6-7.9,3.3-12,4.7
		c-5.2,1.8-10.4,3.4-15.6,5c-7,2.1-14.1,3.6-21.3,4.7c-10.8,1.6-21.7,2.1-32.6,2.2c-8.8,0.1-17.3-1.4-25.7-3.7
		c-9.7-2.7-18.4-7.5-25.4-15c-3.4-3.7-6.4-7.9-7.6-12.9c-1.2-5.3-0.9-10.7,1.5-15.9c3.6-7.5,9.4-13,16.1-17.7
		c3.6-2.6,7.3-4.6,11.5-6c1.1-0.4,1.2-1,0.5-1.9c-0.8-1.1-1.6-2.3-2.5-3.4c-3.8-4.9-3.8-10.2-1.5-15.8c1.9-4.6,5.4-7.6,9.3-10.3
		c1.4-1,3.1-1.7,4.5-2.6c0.5-0.3,0.9-1.1,1-1.7c0.3-1.5,0.3-3,0.5-4.5c0.1-0.5,0.7-1.2,1.1-1.1c3.8,0.1,4.7-2.9,6-5.4
		c1.6-3.1,2.5-6.4,2.6-9.9c0-0.7-0.6-1.8-1.3-2.2c-1.6-1.2-3.3-2.1-5-3.1c-1.4-0.8-1.8-1.9-1.6-3.3c0.3-1.4,1.4-1.4,2.5-1.6
		c2.4-0.4,4.8-1,7.1-1.6c3.8-1,7.5-1.9,11.3-3c4.4-1.2,8.9-2.4,13.3-3.7c4-1.1,7.9-2.3,11.9-3.5c4-1.2,8-2.5,12-3.7
		c4.1-1.3,8.2-2.5,12.4-3.8c2.5-0.8,5-1.6,7.6-2.2c1.1-0.3,2.2-0.2,3.4-0.2c2.6,0,41.1-0.2,47.9-0.1c6.7,0.2,13.4,1.1,20.1,1.2
		c4.2,0.1,11.1,4.1,14.2,8.9c2.2,3.4,3,7.3,1.8,11.4c-0.2,0.8-0.5,1.7-1.1,2.4c-1,1.2-0.7,2.4,0.1,3.4c1.5,1.9,0.9,4,0.7,6
		c-0.2,1.7-0.4,3.4-0.9,5.1c-0.2,0.6-0.8,1.3-1.4,1.6c-4.4,2.2-6.1,5.5-4.8,10.3c0.4,1.5,1.3,2.8,3.1,2.9c1.9,0.2,2.6,0.9,2.7,2.7
		c0,1.5,0.7,1.9,2,2c5.6,0.5,7.2,3.2,9.1,7.6c0.6,1.4,1.8,11.1,1,13.6c-0.9,2.6-2.6,5-4.2,7.4c-0.5,0.7-1.7,0.8-2.7,1.2
		c-3.2,1.3-6.4,2.5-9.6,4c-3.5,1.7-6.9,3.6-10.4,5.4c-1.9,1-3.7,2.1-5.6,3.2c-2.5,1.4-5,2.6-7.5,4c-6.8,4-13.6,8-20.4,12
		c-4.3,2.5-8.7,4.8-13,7.2c-0.7,0.4-1.4,0.7-2,1.1c-3.9,2.8-8.3,3.1-12.9,2.7c-6.2-0.5-12.5-0.6-18.7-0.8
		c-6.8-0.2-13.6-0.4-20.5-0.4c-4.7,0-9.5,0.3-14.2,0.3c-4,0-8.1-0.1-12.1-0.5c-7.3-0.7-14.5-1.6-21.7-2.4c-1.6-0.2-3.1-0.6-4.6-1.1
		c-1.7-0.5-2.7-1.9-3-3.6c-0.3-1.6-0.3-3.3-0.2-4.9c0.1-1.8,1.3-2.6,2.8-1.7c1.4,0.9,2.3,0.3,3.1-0.7c3.3-3.7,3.1-7.3-0.5-10.7
		c-1.1-1.1-2.2-2.2-3.3-3.2c-1.2-1-1.1-2.4-1-3.7c0.3-2.7-0.9-3.6-3.6-3.1c-6,1.2-11,4-15.8,7.7c-4.2,3.3-7.8,7.2-10.7,11.5
		c-4.3,6.3-5.4,13-2.8,20.4c2.5,7.2,7.8,11.8,13.8,15.8c3,2,6.2,3.6,9.5,5c3,1.2,6.2,2,9.4,2.8c9.6,2.5,19.5,3.1,29.4,2.6
		c7.3-0.4,14.7-0.8,22-1.7c5.9-0.8,11.7-2.1,17.4-3.6c6.2-1.6,12.4-3.5,18.6-5.5c5.3-1.8,10.5-4,15.8-6.1c6.6-2.5,13.1-5.3,19.8-7.4
		c8.7-2.9,17.7-4.7,26.9-5.1c3.7-0.2,7.4-0.2,11-0.3c1.7,0,6.4-0.3,7.5-2c6.2-4.1,10.3-6.1,22.2-5.9c27.9,1.9,37.4,12.5,42.4,18.2
		c7.7,6.6,1.1,17.2-8.4,18C-2166.9,1705.7-2200.1,1707.8-2214.1,1701.1z M-2299.8,1614.4c-1-0.1-1.5-0.2-2-0.2
		c-4.4-0.2-8.7-0.4-13.1-0.6c-6.9-0.3-13.8-0.7-20.7-1c-5.6-0.2-11.2-0.3-16.8-0.5c-6.3-0.2-12.6-0.4-18.9-0.6
		c-0.8,0-1.8,0.2-2.2,0.7c-0.8,1.1-1.7,1.3-2.9,1.2c-4.9-0.4-7.7,2.6-10,6.3c-1.4,2.2-1.1,4.5-1,6.9c0.2,3,3.4,3.8,4.4,6.3
		c0.1,0.2,0.5,0.2,0.8,0.3c7.6,0.9,15.3,1.9,22.9,2.8c4,0.5,8,0.8,12.1,1.1c5.9,0.5,11.9,1.1,17.8,1.5c7.4,0.4,14.7,0.7,22.1,0.9
		c3.2,0.1,6.5-0.1,9.7-0.2c0-0.2,0-0.4,0.1-0.6c-0.4-0.2-0.9-0.4-1.3-0.6c-5.2-1.6-8-5-8.5-10.4c0-0.4-0.4-1.2-0.7-1.2
		c-2.3-0.4-4.3-2.2-6.9-1.3c-0.6,0.2-1.3,0.1-1.9,0.1c-8.6-0.1-17.2-0.3-25.8-0.4c-10.2-0.1-20.4,0-30.5,0c-1.6,0-3.2-0.6-4.8-0.9
		c0-0.3,0-0.6,0-0.9c1.2-0.3,2.5-0.7,3.7-0.7c6.7,0,13.3,0.1,20,0.2c11,0.2,22,0.3,33,0.5c3.7,0.1,7.3,0.5,11,1
		c2.9,0.4,4.1-0.6,3.9-3.7c-1.5-0.3-3.1-0.2-4.4-0.9c-1.4-0.7-2.6-0.8-4-0.5c-0.5,0.1-0.9,0.1-1.4,0.1c-6.5,0-13,0.1-19.4,0
		c-6.2-0.1-12.4-0.5-18.6-0.8c-0.7,0-1.4-0.6-2-0.9c0.1-0.3,0.1-0.6,0.2-0.8c1.8-0.1,3.7-0.4,5.5-0.3c2.3,0.1,4.6,0.4,7,0.5
		c6.3,0.2,12.5,0.3,18.8,0.4c6.4,0.1,12.8,0.2,19.3,0.4C-2303.1,1617.3-2301.8,1615.8-2299.8,1614.4z M-2203.7,1699.8
		c0.1,0.2,0.1,0.4,0.2,0.6c1.5,0.3,2.9,0.7,4.4,0.9c4.7,0.4,9.4,0.7,14.2,0.9c7.3,0.3,14.5-0.4,21.6-1.8c5.4-1.1,7.3-6.2,5.6-9.9
		c-0.7-1.7-1.8-3.3-3.1-4.5c-4.1-4-8.9-7.1-14.1-9.4c-2.5-1.1-5-2.6-7.7-3.2c-3.8-0.9-7.8-1.2-11.8-1.7c-1.1-0.1-2.1,0-3.7,0
		c2.3,5.3,1.3,10.1,0.2,14.9C-2199.1,1691.2-2200.1,1696.1-2203.7,1699.8z M-2293.6,1637.3c1.8-0.8,3.4-1.5,4.9-2.3
		c5.6-2.7,11.2-5.5,16.8-8.1c5.1-2.4,10.3-4.7,15.5-7.1c3.7-1.7,7.2-3.7,10.9-5.5c5.5-2.7,11-5.3,16.5-8c0.4-0.2,0.7-0.7,1-1.1
		c-0.1-0.1-0.3-0.3-0.4-0.4c-0.5,0.2-1,0.4-1.6,0.7c-3,1.5-6,3.1-9.1,4.4c-4.1,1.7-8.3,3.1-12.4,4.6c-6,2.3-12,4.7-18,7
		c-6.2,2.4-12.5,4.8-18.7,7.2c-2.3,0.9-4.6,1.7-6.8,2.5c-0.9,0.3-1.9,0.4-2.1-0.7c-0.1-0.5,0.8-1.1,1.3-1.6c0.4-0.3,1-0.4,1.5-0.6
		c6.6-2.6,13.2-5.2,19.8-7.7c2.7-1,5.3-2,8-3c2.8-1.1,5.5-2.3,8.2-3.3c4.5-1.7,9-3.4,13.6-5c3.3-1.2,6.5-2.4,9.8-3.6
		c2-0.7,3.9-1.5,5.8-2.4c1.4-0.6,0.7-1.9,0.6-2.9c0-0.2-1-0.6-1.4-0.4c-2.6,1-5.2,2-7.8,3.1c-4,1.6-8,3.4-12,5
		c-5.2,2.1-10.4,4-15.6,6.1c-3.4,1.3-6.6,2.8-10,4.2c-4.6,1.8-9.2,3.4-13.8,5.1c-2.2,0.8-4.4,1.5-6.7,2.1c-0.5,0.1-1.2-0.5-1.9-0.7
		c0.4-0.4,0.6-1.1,1.1-1.2c2-0.8,4-1.4,6-2.2c5.8-2.1,11.6-4,17.4-6.2c6.6-2.4,13.1-5,19.7-7.5c3.8-1.4,7.6-2.8,11.4-4.3
		c4.1-1.6,8.2-3.3,12.2-5c0.5-0.2,1-0.9,1.3-1.5c0.7-1.3,1.2-2.6,1.8-4c0.2-0.6,0.4-1.1,0.8-2.2c-1.5,0.3-2.5,0.4-3.4,0.7
		c-2.1,0.8-4,1.8-6.1,2.5c-5.1,1.7-10.3,3.2-15.4,5c-7.2,2.6-14.3,5.3-21.4,8c-5.6,2.1-11.3,4.4-16.9,6.5c-0.9,0.3-1.5,0.6-1.7,1.7
		c-0.1,0.4-0.8,0.8-1.3,0.9c-1.7,0.4-3.5,0.6-5.2,1.1c-2.7,0.8-4.5,2.8-5.7,5.2c-0.7,1.3-0.1,2.7-0.6,4.2c-0.9,2.9,0.6,6.6,4.5,7.6
		C-2297,1635-2294.5,1634.9-2293.6,1637.3z M-2373.1,1597.5c0.7,0.2,0.9,0.3,1.2,0.3c9.6-0.3,19.3-0.6,28.9-0.8
		c14.8-0.3,29.7-0.4,44.5-0.6c0.6,0,1.3-0.1,1.8-0.5c2.3-1.6,3.5-4,4.2-6.7c0.5-2.1,0.1-2.4-1.9-2.4c-5,0-10.1,0-15.1,0
		c-7.7,0-15.4-0.1-23.1-0.2c-7.6-0.1-15.3-0.2-22.9-0.4c-2.8-0.1-5.6-0.4-8.4-0.6c-1.1-0.1-2.2-0.4-2.8-2.2
		c12.6,1.8,25,1.1,37.4,1.3c12.4,0.2,24.8,0.6,37.3,0.9c-0.3-2.1-0.9-3.8-2.9-4.4c-1.6-0.5-3.3-0.7-5-0.8
		c-7.2-0.1-14.4-0.2-21.6-0.1c-8.7,0.2-17.4,0.8-26.1,0.9c-6.4,0.1-12.8-0.2-19.3-0.3c-0.3,0-0.9,0.8-0.9,1.2
		c0.2,2.2,0.6,4.4,0.8,6.5c0.1,0.9,0.4,1.3,1.2,1.2c0.7,0,1.4,0,2.1,0c6,0.2,12,0.3,18,0.5c5.5,0.1,11,0.4,16.5,0.4
		c8.3,0.1,16.6,0.1,24.9,0.1c0.4,0,0.7,0.2,1.1,0.2c-0.3,0.5-0.6,0.7-0.9,0.7c-3.5,0.4-7,0.9-10.6,1c-6.8,0.2-13.7,0.4-20.5,0.3
		c-9.9-0.2-19.7-0.5-29.6-1c-2.1-0.1-3.7,0-5,1.8C-2370.7,1595.4-2371.8,1596.3-2373.1,1597.5z M-2314.3,1663.9
		c0,0.1-0.1,0.3-0.1,0.4c0.4,0.3,0.7,0.8,1.1,0.8c1.3,0.2,2.5,0.3,3.8,0.3c5.7,0.3,11.3,0.7,17,0.9c0.7,0,2-0.8,2.1-1.5
		c0.3-1.5,0.3-3.2,0-4.8c-0.5-3.1-3.4-6.1-6.2-6.4c-4.1-0.5-8.2-1-12.4-1.2c-10.8-0.6-21.6-1-32.4-1.5c-2.3-0.1-4.6-0.6-6.9-0.6
		c-6.1-0.2-12.3-0.3-18.4-0.5c-3.7-0.1-7.4-0.4-11.1-0.6c0.2,2.5,1,3.4,3.1,3.4c5.2-0.1,10.4-0.5,15.6-0.5c6.5,0,12.9,0.3,19.4,0.5
		c4.5,0.1,9,0.4,13.5,0.6c0.5,0,1,0.2,1.5,0.4c-0.6,0.5-1,0.5-1.5,0.5c-7.5-0.3-15-0.5-22.5-0.9c-8.6-0.4-17.1,0.4-25.7,1
		c-0.6,0-1.1,0.8-1.6,1.2c0.6,0.3,1.2,0.8,1.8,0.8c7.1,0.2,14.2,0.3,21.3,0.5c11.1,0.3,22.3,0.7,33.4,1c3.6,0.1,7.2,0,10.8,0
		c0,0.2,0,0.4,0.1,0.6c-0.7,0.1-1.4,0.3-2.1,0.3c-2.4,0.1-4.9,0.1-7.3,0.2c-7.4,0.1-14.7,0.4-22.1,0.3c-8.5-0.1-16.9-0.7-25.4-1
		c-3.2-0.1-6.3-0.1-9.5,0c-0.3,0-0.6,0.4-0.9,0.7c0.3,0.2,0.6,0.5,0.9,0.6c0.9,0.1,1.7,0.2,2.6,0.2c4.8,0,9.7-0.2,14.5,0.1
		c8.9,0.5,17.8,1.4,26.7,2.2C-2325.6,1662.7-2319.9,1663.4-2314.3,1663.9z M-2292.5,1610.1c0-1.2-0.1-2.1,0-3
		c0.2-1.6-0.6-2.3-2.1-2.3c-5.8-0.1-11.7-0.2-17.5-0.3c-3.5-0.1-7-0.3-10.4-0.3c-2.9-0.1-5.7-0.1-8.6,0c-3.3,0.1-6.6,0.5-10,0.5
		c-3.3,0-6.6-0.3-9.9-0.3c-3,0-5.9,0.3-8.9,0.3c-5.7,0.1-11.3,0.1-17,0.1c-1.3,0-1.6,0.6-1.7,1.7c-0.2,1.3,0.7,1.3,1.5,1.4
		c0.6,0.1,1.2,0.1,1.8,0.1c7.2,0.1,14.5,0.2,21.7,0.4c4.9,0.1,9.8,0.5,14.7,0.7c4.8,0.2,9.6,0.2,14.4,0.3c6.8,0.2,13.7,0.6,20.5,0.8
		C-2300.3,1610.2-2296.5,1610.1-2292.5,1610.1z M-2289.4,1610c0.6-0.1,0.8,0,1-0.1c4-1.5,8-3.1,12-4.6c4.2-1.6,8.4-3.3,12.7-4.9
		c4.3-1.6,8.6-3.1,12.8-4.6c5.4-1.9,10.8-3.8,16.1-5.7c4.7-1.8,9.4-3.8,14.1-5.5c2.1-0.8,2.5-2.2,2.5-4c0-1.7-0.2-1.9-1.8-1.1
		c-1.6,0.8-2.9,2-4.5,2.6c-5.1,1.9-10.3,3.7-15.5,5.5c-3.6,1.3-7.3,2.4-10.9,3.7c-4.6,1.5-9.1,3.1-13.6,4.7
		c-4.3,1.5-8.5,3.2-12.8,4.7c-3.4,1.3-6.9,2.4-10.3,3.7c-0.5,0.2-1.3,0.7-1.4,1.1C-2289.3,1606.8-2289.3,1608.3-2289.4,1610z
		 M-2292.5,1643.7c2.9-1.2,5.7-2.1,8.2-3.6c6.1-3.5,12.6-6.2,19-9.1c7-3.2,14-6.7,20.9-10.2c5.5-2.8,11-5.8,16.5-8.7
		c2.2-1.2,4.3-2.6,6.4-3.9c0.4-0.2,0.5-0.9,0.7-1.3c-0.2-0.1-0.4-0.3-0.5-0.4c-0.9,0.5-1.8,1.1-2.7,1.6c-0.3,0.2-0.7,0.4-1.1,0.5
		c-1.1,0.3-2.2,0.5-3.2,1c-1.7,0.8-3.2,1.8-4.9,2.6c-4.2,2-8.5,3.9-12.7,6c-3.1,1.5-6.2,3.2-9.3,4.7c-4.8,2.2-9.8,4.2-14.6,6.5
		c-6.9,3.3-13.6,6.8-20.4,10.2C-2292.6,1640.6-2292.9,1641-2292.5,1643.7z M-2200.1,1680.7c-1.4-0.2-2.5-0.7-3.4-0.4
		c-3.3,0.9-6.6,1.8-9.7,3.3c-2.7,1.3-5.4,3-6.3,6.2c-0.2,0.5-0.1,1.2,0.2,1.7c2.3,3.3,5.5,5.5,9.1,7c0.7,0.3,2,0.2,2.4-0.2
		c1.7-2.3,3.7-4.6,4.8-7.2C-2201.7,1687.8-2201.1,1684.3-2200.1,1680.7z M-2295.8,1642.4c-6.4,0-12.6,0-18.9,0c-1.6,0-3.2,0.1-4.9,0
		c-2-0.1-4-0.5-6.1-0.7c-5.6-0.3-11.2-0.5-16.8-0.9c-4.2-0.3-8.4-0.9-12.5-1.4c-5.1-0.6-10.3-1.1-15.4-1.7c-3.2-0.4-6.5-1-9.7-1.3
		c-0.7-0.1-1.5,0.3-2.2,0.7c-0.3,0.2-0.6,0.9-0.5,1.2c0.1,0.3,0.7,0.5,1.1,0.6c1.2,0,2.5-0.3,3.6-0.1c5.7,0.7,11.4,1.7,17.1,2.3
		c4.2,0.5,8.5,0.5,12.7,0.7c3.8,0.2,7.7,0.6,11.5,0.7c5.5,0.2,11,0.3,16.5,0.6c7.3,0.3,14.6,0.8,21.8,1.2
		C-2297.1,1644.4-2295.9,1644.3-2295.8,1642.4z M-2382.7,1607.6c-2.9,2.3-6,4.3-8.5,6.9c-1.6,1.7-2.7,4.2-3.4,6.5
		c-0.7,2.2-1.3,4.6-0.4,7c1.1,3.1,3.4,4.8,6,6.2c0.8,0.4,1.5,0.7,2.3,1.1c0.2-0.2,0.4-0.4,0.6-0.6c-0.7-1-1.3-2.1-2.1-3.1
		c-0.7-0.8-2.5-2.2-3.7-6.2c-1.2-4,3.7-11.8,9.3-15.4C-2381.5,1609.4-2381.6,1608.9-2382.7,1607.6z M-2218.8,1680.6
		c0.2,0.2,0.4,0.4,0.7,0.6c0.5-0.4,0.9-0.9,1.4-1.1c1.6-0.9,3.2-1.8,4.9-2.5c3.3-1.3,6.9-1.1,10.4-1.1c0.4,0,1,0,1.3-0.3
		c0.7-0.7-0.7-4.4-1.7-4.5c-3.6-0.4-12.7,4.8-14.1,6C-2217.1,1678.5-2217.9,1679.6-2218.8,1680.6z M-2377.4,1662.6
		c2.7,1.1,33.6,1.8,37.8,0.7c-2.4-0.3-4.9-0.2-7.3-0.3c-6.5-0.2-13-0.4-19.6-0.6c-3.3-0.1-6.7,0.2-10.1-1.2
		C-2376.9,1661.6-2377.1,1662-2377.4,1662.6z"/>
	<path d="M-2307.2,1631.9c-4.7,1.6-9.2,0.6-13.8,0.5c-1.5,0-2.9-0.2-4.4-0.3c-5.5-0.3-10.9-0.8-16.4-0.9c-9.2-0.2-18.5-0.1-27.7-0.2
		c-0.9,0-1.7-0.2-2.5-0.5c-0.4-0.1-0.8-0.7-0.8-1c0-0.3,0.5-0.7,0.9-0.9c0.5-0.2,1-0.2,1.5-0.2c9.4,0,18.8,0,28.2,0.2
		c7.2,0.2,14.3,0.9,21.5,1.2c3.5,0.2,7,0.1,10.5,0.2C-2309,1630.2-2307.7,1630.2-2307.2,1631.9z"/>
	<path d="M-2296.6,1620.3c13.2-5.4,26.3-10.7,39.9-16.2c-1.1,2.1-36.8,16.9-39.7,16.8C-2296.4,1620.7-2296.5,1620.5-2296.6,1620.3z"
		/>
</g>
</svg>
