<?xml version="1.0" encoding="utf-8"?>
<!-- Generator: Adobe Illustrator 19.1.0, SVG Export Plug-In . SVG Version: 6.00 Build 0)  -->
<svg version="1.1" id="Calque_1" xmlns="http://www.w3.org/2000/svg" xmlns:xlink="http://www.w3.org/1999/xlink" x="0px" y="0px"
	 viewBox="188 69.5 976.9 662.5" style="enable-background:new 188 69.5 976.9 662.5;" xml:space="preserve">
<style type="text/css">
	.st0{fill:#6F9BBB;}
	.st1{fill:#E46D65;}
	.st2{fill:#1D1D1B;}
	.st3{enable-background:new    ;}
	.st4{fill:#FFFFFF;stroke:#E46D65;stroke-width:3;stroke-miterlimit:10;}
	.st5{fill:#6EA2C2;}
	.st6{fill:none;stroke:#E46D65;stroke-width:3;stroke-miterlimit:10;}
</style>
<g>
	<path class="st0" d="M1143.1,497.7l-5.7-14l-7-14.7l-10.9-6.6l-7.8-6.5l1.4-3.8l4.5,0.5l16.1,6.9l9.3,5.5l-1.4-14.3l-10.2-12.8
		l-1-13.3l1-9.2l-6.3-13.1l-1.5-22.1l-1.4-3.8l-14.5,9.3l-3.8-2.5l2.4-15.3l-1.4-8.2l-8.3-6.6l-9-11.9l-5.7-1l-14.4,6.5l-17.8,6.2
		c0,0-17.6,19.2-17.8,20.2c-0.2,1-16.4,13.3-16.4,13.3l-5.5,19.5l-11.9,20.7l-4.3,1.6L986,417l-10.8-26.3l-4.3-23l-4.3-20.1
		l-4.3-5.3l-10.4,0.9l-9.9-10l-20.9-13.8l-16.2,1.9l-16.2-0.5l-15.4-8.3l-12.6-5.9l-17.1-2.6l-14.3-15.2l-9.5-4.8l-4.8,4.3l4.8,10.8
		l10.9,15.6l9.8,8.6l18.1-7h5.2l13.3,16l3.6,15.3l-22.1,21.3l-50,25.2l-14.7,5.5l-6.2-1.7l-12.4-18.5l-14-25.8l-14-30.3l-7.5-15.7
		l-10.2-6l-4.8,2.4l-1.4,7.3l23.9,47.2l12.8,21.2l12.1,16.4l4.5,15l6.6,5.2l10.3,0.5l12.4-3.7l10.7-3.8h11.8v2.8l-5.4,17.9
		l-21.8,29.2l-20.2,28.2l-17.6,15.2l-8.6,19.3l2.3,34.4l1.4,21.6l-12.5,16l-18.7,14.4l2.2,15.2l-0.3,14.5l-12.8,11l-7.9,23.2
		l-27.9,23.9l-22.5,17.8l-15.2-1.3h-14.9l-4.8-3.8l-7.3-21.9l-7.3-17.8l-9.9-13.1l-2.5-11.9l2.5-14.3l-10.9-17.1l-6.1-21.9l1.6-14.7
		l6.6-16.7v-6.7l-3.8-8.7l3.8-11.6l-5.7-16l-13-17.5l-9.2-16.4l4.4-11.3l-1.9-7l-4.3-8.2l-18.8-4.3l-8.9-9.6l-11,1.8l-28.6,3.9
		l-25.9,3.8l-10.9-2l-26.5-22.5l-17.9-21.6l-10.2-14.8l-0.3-9.1l7.5-18.3l-4-16l2.9-10.7l5.7-16l8.9-12.9l12.7-14.4l14.3-12.7
		l0.6-17.8l8.3-4l9.8-10.7l7.9-8.3l7.3,2.1H494l18.7-9.1l53.3-3.6l14,2l4.9,24.1l13.5,5.2l16.5,12.2l11,2.6l6.9-7.9l5.3-4.4l8.2-2.5
		L674,270l21.4,2.7l7.8-2.7l17,2.7l7.7-5.9l5.3-7.8l-2.3-7.7l2.3-11.3l-7.3-6.4l-13.9,1.9l-9.8-4.1l-12.4,1.6l-10.8-7.2l-1.9-10.4
		l2.8-9l3.6-7.2h-14.9l-9.8,5.8l5.3,8l-5.3,12.8l-12.2,2l-6.8-12.6l-7-12.7l2.1-9.2l-2.1-6.7l-18.8-7.1l-9.4-8.9l-9-1.8l20.6,22.3
		l9.7,9.8l-4.3,2.7l-8.2,14.3H609l-2.2-15.5L597,199l-10.5-6.1l-11.1-19.4l-10.4-6.6l-10.8,5.1l-18.4,3.3l-13.6,13.4l-13,26.6
		l-12.7,12.3l-12.2,1.6l-10.1,3.6l-8.9-5.2h-8.9l-4.4-6.5l2.6-16.3l1.9-19.1l0.3-12.3l7-3l13.7,3.6l13.9,0.7l9.5-0.2l1.3-14.4
		l-3-15.8l-14.5-10.4l-0.3-4.8l10.8-2.2l4-1.9v-6.3l4.6,2.5h6.3l4.1-7.3l4.5,1.3l4.8-9.2l6.7-6.4l17.1-22.1l-2.9-3l-31.7,4.1
		l8.8,12.1l-7.4,13l-26.1,3.5l-7.4,2.9v-9.5l2.1-3.8l-5.3-4.3l1.2-2.9l5.4-5.2v-6.8h-11.4l-3.7,9.7l-7.4,4.9l-11.8,3.4l-2-3.4v-8.9
		l2-7.1l-37.4-1.5H278.5h-49l-26.8,3l-3.3,173.7l-1.5,117.8l-4.1,55.8l4.1,56l18.7,2.4l9.2,5.7l7.6,9.9l18.1,5.4l20.3,5.4l6.6,6.9
		l2.6,7.9l-2.5,10.1l-14.6,27l-12.8,51.1l-12.9,20h-8.6l-11.3,7.1L203.5,662l-7.6,20v31.8l2.8,11.7h16.2l88.5-3.3l66.6,3.3l36.8-3.3
		h70.7l98,3.3h54.2h37h46.2h90.2l81.1-3.3h46.6l42.3-2l51.5,2l30.8-2l36-2.4l32.6,4.4h20l2.6-37l3.9-85.7v-96.4L1143.1,497.7z
		 M657.3,241.1c1.4-0.9,2.9-1.3,4.6-1.3c1.3,0,2.6,0.3,4.1,0.8c0.3,0.2,0.7,0.7,0.9,1.1c0,0.2,0,0.3,0,0.3c-0.1,0.1-0.9,0.4-1.4,0.6
		c-0.7,0.3-1.6,0.7-2.5,1.2c-0.3,0-0.9,0.1-1.8,0.1c-1.9,0-3.4-0.2-4-0.3c-0.3-0.2-0.7-0.6-0.8-1.1
		C656.3,242.1,656.6,241.5,657.3,241.1 M589.9,221.9c0.5-0.5,1.7-1.1,2.2-0.8c3,1.5,5.9,3.2,8.9,4.8l-0.7,1.4
		c-4.1,1.2-6.9-1.7-10.1-3.4C589.8,223.7,589.6,222.3,589.9,221.9 M564.9,202.8c2.1-4.4,3.8-8.7,2.7-13.7c-0.2-1,0.1-2.2,0.2-3.3
		c0.4-0.1,0.8-0.2,1.2-0.2c0.5,2.4,1.1,4.7,1.3,7.2c0.4,3.5,0.8,6.9,0.7,10.4c0,1.3-1.2,2.9-2.3,3.6c-1,0.6-2.7,0.1-4.1,0.1
		C564.7,205.4,564.4,203.9,564.9,202.8 M1013.3,428.2c1.3,2.7,2.4,5.1,3.6,7.5C1010.7,434.2,1009.8,432.1,1013.3,428.2"/>
	<path class="st1" d="M812.7,562.6c-0.6,1.5-1.3,3.3-1.9,5c-0.6,1.7-1.1,3.5-1.7,5.3c-2.1,6.2-7.2,9-12.8,11.2
		c-4.2,1.6-8.1,3.6-10.4,7.6c-1.6,2.8-2.8,5.7,0.7,8.2c0.6,0.4,1,1.5,1.1,2.3c0.5,5.5,0.9,11-1.3,16.3c-3.3,7.6-5.6,15.3-2.5,23.6
		c1,2.6,2.1,6.3,3.9,6.9c1.9,0.6,5-1.7,7.3-3.3c1.3-0.9,2.2-2.7,3-4.2c1.5-2.8,2.8-5.6,4-8.5c5.6-12.9,11.1-25.8,16.6-38.6
		c1.5-3.6,3.2-7.1,4.5-10.7c1.1-3.3,1.3-6.7-1.1-9.6C819.2,570.3,816.2,566.8,812.7,562.6"/>
	<path class="st1" d="M554.9,168c-3.6-5.4-2.8-11-2.3-16.6c0.2-1.8,0.1-3-2.2-3.5c-5.3-1.1-6.6-4.8-3.1-9c2.3-2.8,5-5.3,7.5-7.9
		c3.4-3.6,3.1-7.2-1-10c-2.3-1.6-4.5-3.2-6.9-4.6c-4.2-2.5-8.6-4.6-12.7-7.2c-2.4-1.5-4.3-3.7-6.4-5.5c-2.7,3.5-5.1,6.7-7.6,9.8
		c-0.8,1-2.2,2.4-3.2,2.3c-2.5-0.2-2.8,1.4-3.5,2.9c-2,4.1-4.8,5.3-9.2,3.9c-1-0.3-2-0.7-3.1-1c0,4.9-2.6,7.8-6.2,7.5
		c-2.1-0.1-4.3,0.1-6.4,0.6c-0.9,0.2-2.2,1.2-2.2,1.9c-0.1,0.8,0.9,2,1.7,2.5c2.6,1.5,5.3,2.8,8,4.2c7.2,3.9,10.8,9.8,9.8,18.2
		c-0.5,4.2-0.3,8.5-0.5,12.8c-0.2,3.6,1.5,5.2,4.8,5.9c5.5,1.2,11,2.5,16.4,3.9c1.9,0.5,3,0.3,3.4-2c0.7-3.9,5.2-7.1,8.9-6.3
		C544.6,172.1,549.4,169.5,554.9,168"/>
	<path class="st0" d="M744.9,160.3c3.7,2.7,7.2,5.5,11.1,8c6.2,3.9,10.8,8.8,11.8,16.5c0.8,6-1.1,9.6-7.2,10.5
		c-11,1.7-22.2,1.6-32.7-2c-8.4-2.9-16.5-3.2-25-1.3c-7.9,1.7-13.5-0.5-17.3-6.3c-3.4-5.1-2.7-13.8,1.3-19.5c3.1-4.4,6-9,8.8-13.6
		c1.9-3.1,4.5-4.4,7.9-4.8c5.5-0.6,12.8,3.2,15.3,8.1c0.5,0.9,0.9,1.8,1.5,2.6c1.7,2.4,3.7,3.4,6.2,0.9c0.6-0.6,1.3-1.2,2-1.7
		c2.4-1.7,2.6-3.2,0.3-5.3c-1.2-1.1-2.4-2.9-2.4-4.4c-0.1-1.6,0.9-4.1,2-4.6c6-2.5,12-5.6,18.8-4.1c1.9,0.4,3.9,1.7,5.1,3.2
		c1.3,1.6,1.3,3.5-1,5.1c-1.3,0.9-1.9,2.9-2.5,4.5c-0.9,2.4-1.4,4.9-2.1,7.4C746,159.6,745.5,160,744.9,160.3"/>
	<path class="st0" d="M840.8,191.5c0.3-2.7,0.4-4.5,0.7-6.2c0.7-3.2,2.8-3.9,5.1-1.6c3.8,3.9,6.3,8.5,5.9,14.1
		c-0.1,1.4-1.6,2.7-2.6,4c-0.3,0.3-0.9,0.4-1.4,0.6c-7.8,2.9-8.3,5.4-2.9,12c2.5,3.1,4.7,6.8,6.1,10.6c2.3,6.2-2.8,11.6-9.3,10.1
		c-5.2-1.2-10.4-2.8-15.6-4c-4.6-1.1-7.2-4.5-9.5-8.1c-2.2-3.4-0.8-9,3.5-11.9c6.2-4.2,6.8-9.1,2.8-15.5
		c-3.9-6.1-8.4-11.8-12.6-17.7c-2.4-3.4-4.8-6.8-6.7-10.4c-2.3-4.4-1.1-7.2,3.4-9.4c6.1-2.9,10.8-7.5,15.6-12.2
		c3.7-3.8,8.5-5.1,13.8-2.8c5.5,2.4,7.4,7.7,3.8,12.7c-2.7,3.7-6,6.9-9.3,10.2c-2.5,2.5-2.9,4.6,0.1,6.4c6.4,3.8,8.4,9.5,8,16.6
		c0,0.5,0.1,1,0.2,1.5C839.9,190.4,840,190.5,840.8,191.5"/>
	<path class="st2" d="M196.3,175.3c0.6-19.2,1.3-38.4,1.7-57.6c0.3-12.5,0.2-25.1,0.2-37.6c0-3.3,0.6-5.8,4.7-6.1
		c4.8-0.4,9.6-1.7,14.4-2c12.6-0.7,25.3-1.1,38-1.4c16.2-0.5,32.4-1,48.5-1.1c12.2-0.1,24.3,0.1,36.5,0.7c14.7,0.7,29.3,2.1,44,3
		c2.7,0.2,5.5-0.4,8.2-0.7c5.5-0.6,10.9-1.7,16.4-1.9c14.6-0.4,29.1-0.2,43.6,1.9c6.1,0.9,12.5,0.2,18.8,0.3
		c5.4,0.1,10.8,0.4,16.2,0.3c9.9-0.3,19.8-0.8,29.6-1.2c9-0.4,18-1.5,27-1.1c19.4,0.8,38.8,3.1,58.2,3.6c20.7,0.5,41.4-0.1,62.1-0.5
		c23.8-0.6,47.6-1.9,71.4-2.2c17.3-0.2,34.6,1,51.9,1c20.8,0,41.7-1,62.5-0.9c14.3,0.1,28.6,1.3,42.8,1.9c11.5,0.5,23.1,0.8,34.6,1
		c3.6,0,7.2-0.8,10.8-1.2c18.6-2.3,37.3-2.1,55.9-1.6c17.9,0.5,35.8,1.9,53.7,2.7c9.9,0.5,19.8,0.6,29.7,1.1c3.4,0.2,6.7,1.2,10,1.3
		c8.8,0.2,17.5-0.2,26.3,0.2c11.5,0.5,23,1.6,34.6,2.1c5.6,0.2,8.9,3.4,10.6,8c1.2,3.4,1.8,7.3,1.4,10.9c-1,10.6-1,21,0.7,31.5
		c1.6,9.2,2.2,18.3,1.8,27.7c-0.6,13.5-0.1,27.1,0.3,40.6c0.3,12.3,1.7,24.6,1.5,36.8c-0.1,7-2.2,14.1-3.9,21
		c-2.4,9.9-3,19.8-3.1,29.9c-0.1,10.8-1.6,21.5-1.8,32.3c-0.4,20.8-0.4,41.7-0.4,62.5c0,8.2-0.1,16.3,0.3,24.5
		c0.4,8.9,1.4,17.7,1.7,26.6c0.3,9.1,0.6,18.3,0.2,27.4c-0.9,20.6-1.9,41.1-3.5,61.6c-1.7,21.6-1,43.1-0.4,64.7
		c0.3,11.2-0.3,22.4-0.5,33.5c-0.3,16.6-0.5,33.1-0.8,49.7c-0.2,11.5-0.1,23.1-0.7,34.6c-0.3,5.8-1.7,11.7-2.8,17.4
		c-0.4,2.3-4.8,4.7-7.1,4.5c-6.2-0.4-12.4-0.7-18.6-1c-3.2-0.2-6.5,0.1-9.7-0.4c-16.3-2.4-32.5-1.8-48.9-0.9
		c-2.6,0.1-5.3,0.2-7.9,0.4c-30.4,3.2-60.9,0.7-91.4,0.8c-16.4,0-32.8,1.4-49.2,2.1c-13.3,0.6-26.6,1-39.8,1.6
		c-19.2,0.8-38.4,1.5-57.5,2.6c-19.6,1.1-39.1,0.8-58.7,0c-22.9-0.9-45.9-1.3-68.9-1c-15.2,0.2-30.3,1.9-45.5,2.6
		c-5.7,0.3-11.4-0.8-17.2-0.7c-16.4,0.1-32.9,0.7-49.3,0.8c-15.7,0.1-31.4,0.1-47.1-0.6c-17.7-0.7-35.3-2.5-53-3.3
		c-20.5-0.9-41-2.6-61.7-0.8c-19.8,1.7-39.8,2.3-59.8,1.6c-25.8-0.8-51.7-0.6-77.6-0.8c-11.8-0.1-23.6-0.1-35.3,0.2
		c-6.6,0.2-13.2,1.7-19.8,2c-5,0.2-10-0.7-15-0.9c-2.2-0.1-4.5,0.2-6.8,0.5c-6.1,0.8-9.8-1.9-10.3-8.1c-1.5-17.4-3.4-34.7-4.3-52.1
		c-0.7-14-0.2-28.1-0.3-42.1c-0.1-15.7-0.8-31.4-0.4-47.1c0.3-12.4,2.5-24.7,2.9-37.2c0.7-19.2,0.7-38.4,0.7-57.6
		c0-12.3-0.8-24.6-0.7-36.9c0.1-18.4-0.8-36.8,1.7-55.2c1.5-10.9,1-22.1,1.2-33.1c0.3-16.7,0.5-33.4,0.6-50.1
		c0-3.6-0.7-7.3-0.6-10.9c0.4-17.7,0.9-35.4,1.4-53c0.6-23.8,1.2-47.7,1.8-71.5C197.1,175.4,196.7,175.4,196.3,175.3 M622.1,200
		c-2.2-2.4-3.5-4.1-5.1-5.4c-6.3-5.1-12.8-10.1-19.2-15.2c-5.7-4.6-9.1-10.6-10.9-17.6c-0.9-3.4,0.4-4.9,3.6-3.5
		c3,1.3,5.8,3.3,8.6,5.2c8.1,5.7,13.5,15.5,24.9,16.4c0.9,0.1,1.9,0.7,2.7,1.2c4.3,2.5,8.9,5.2,9.9,10.2c0.7,3.1-1,6.7-1.2,10
		c-0.1,1.8,0.4,4.3,1.6,5.4c4.1,3.7,6.3,8,6.6,13.5c0.2,3.5,2.3,4.5,5.4,4.2c5.3-0.4,9.4-4.2,9.9-9.5c0.1-1.2-1.1-3.2-2.2-3.7
		c-3.6-1.5-4.7-4.3-4.3-7.5c0.4-3.5,3.4-4.3,6.4-4.6c2.4-0.2,4.3-0.7,4.8-3.7c0.2-0.9,2.5-2.3,3.2-2c4.7,2,9.2,1.6,13.9,0
		c2.5-0.9,4.3,0.3,5.8,2.3c1.6,2,1.5,3.9,0.2,5.8c-1.2,1.6-2.9,2.8-3.9,4.5c-1.8,3-4.2,6.1-4.7,9.4c-0.9,7,7.4,15.3,14.6,15.3
		c0.7,0,1.7-0.1,2.2-0.5c3.3-2.6,6.3-0.8,9.5,0c2.9,0.7,6,0.8,9.1,0.8c3.9-0.1,7.8-1.3,11.5-0.9c6.9,0.6,12.3,10.6,9.3,16.8
		c-1.7,3.6-1.2,6.7,0.8,9.8c1.5,2.3,1.6,4.2-0.6,6.3c-3.3,3-6.3,6.3-9.6,9.4c-0.9,0.9-2.4,1.8-3.6,1.7c-5.1-0.1-10.2-0.4-15.3-1
		c-2.6-0.3-4.5-0.2-6.3,2c-1.8,2.3-15.1-1.5-18.4-1.3c-7.8,0.5-14.7-2.6-21.5-5.5c-6.3-2.7-12.5-5.1-19.5-3.8
		c-3.2,0.6-5.6,1.9-6.9,5.4c-2.8,7.4-9.4,10.1-16,6.5c-4-2.1-8.2-4.2-11.4-7.3c-5.9-5.5-12.9-8.2-20.3-10c-4-1-6.1-3.4-6.8-7.1
		c-0.8-4.2-1.1-8.4-1.5-12.7c-0.4-4.5-2.6-6.9-7.1-7.1c-1.9-0.1-3.8,0-5.6,0.1c-11.5,0.6-23,1.4-34.6,1.7
		c-10.5,0.3-21.1,0.9-29.9,7.3c-7.1,5.1-14,4.7-21.2,1.6c-3.4-1.5-5.2-0.7-6.9,2.5c-3.4,5.9-6.7,11.7-13.3,15.3
		c-5.6,3.1-9,8.3-7.6,15.4c0.8,4-1,7.4-3.9,10.1c-4.6,4.3-9.3,8.4-13.8,12.7c-6,5.9-12.3,11.5-15.8,19.4c-3,6.7-6,13.5-8.5,20.4
		c-1.4,4-3.1,7.9-1,12.9c2.5,6.2,2.8,13-0.8,19.7c-2.3,4.2-3.4,9.3-4.1,14.1c-0.4,2.6,0.8,5.9,2.4,8c4.7,6.3,9.9,12.3,15,18.3
		c4.2,4.9,8.5,9.5,12.8,14.3c3.5,3.9,6.6,8.2,10.6,11.6c4,3.5,8.5,6.9,13.4,8.8c10,3.9,20.6,2.3,30.9,1.1
		c12.3-1.4,24.6-3.7,36.8-5.5c4.8-0.7,10.3-1.4,13.6,2.4c5,5.9,11.1,8,18.3,8.5c0.6,0,1.2,0.3,1.8,0.6c9.4,4.6,13,13.9,8.2,22.5
		c-2.2,3.9-3,7.3-1.3,10.9c2,4,4.1,8.4,7.4,11.1c8.6,7.2,13.2,16.7,17.1,26.6c1.7,4.2,3.5,9.1,0.7,13.4c-2.6,4.1-2.3,7.6,0,11.6
		c2,3.5,3.2,7.4,1.3,11.5c-2.1,4.5-4.5,9-6.1,13.7c-1.4,4.2-2.7,8.9-2.4,13.2c0.9,12.9,5.9,24.5,13.5,34.9c3,4.1,4.4,8.4,3.4,13.4
		c-0.4,2.3-0.9,4.7-1.1,7c-0.5,8.3,3.9,14.8,8,21.4c3.2,5.2,6.9,10.3,9.2,15.9c2.9,7.2,4.4,14.9,6.8,22.3c2.1,6.5,5.9,8.9,12.3,6.9
		c5.2-1.7,9.9-1,14.7,0.4c3,0.9,5.6,0.4,8.1-1.5c6.1-4.8,12.5-9.3,18.5-14.2c7.5-5.9,15-11.8,22-18.2c4.7-4.3,7.7-9.9,8.7-16.6
		c1.1-7.5,3.2-14.5,12.1-17.3c4.2-1.3,7.4-5.3,6.3-10.8c-1.1-5.3-2-10.6-3.4-15.8c-1.7-6.3-0.4-11.5,5.1-15.5
		c4.8-3.6,9.8-7.1,15-9.9c9-4.9,13-12.2,11.9-22.2c-1.2-11.3-2.9-22.6-3.9-34c-1.2-14.5,1.6-27.4,14.2-37.2
		c7.2-5.6,13.6-12.6,19.4-19.8c5-6.2,8.6-13.6,13-20.2c7.3-10.8,15-21.4,22.2-32.3c2.2-3.4,3.2-7.6,4.5-11.5c0.5-1.4,0.4-3.4-2-2.8
		c-3.5,0.9-7,1.8-10.3,3.2c-7.9,3.4-15.8,5.9-24.7,5.3c-9.6-0.6-15.2-4.5-16.1-14c-0.6-6.9-4.1-11.5-8.1-16.5
		c-5.4-6.7-10.9-13.5-15.5-20.7c-3.3-5.1-4.9-11.2-7.7-16.8c-6.6-13.3-13.4-26.4-20-39.7c-1.2-12.3,8.8-11.8,9.6-11.5
		c6.1,2.2,11,6,14.7,11.3c0.5,0.8,4.8,8.2,5,8.7c1.8,4.6,3.3,9.2,5.5,13.6c5.6,11.5,11.5,22.8,17.3,34.2c3.9,7.7,7.8,15.5,12,23
		s7.9,8.8,15.4,4.9c11.7-6.1,23.1-12.5,34.7-18.8c1.5-0.8,3.2-1.5,4.8-2.2c12.5-5.2,24-11.7,33.3-22c5.4-5.9,5.6-11.4,1.8-18.6
		c-3.1-6-8.5-10.9-12.3-15.6c-8.4,3.3-15.8,6.3-23.3,9c-3.6,1.3-9.9-2-10.3-5.9c-1-9.8-6.4-16.7-13.4-23.1c-2.7-2.4-3.5-7-4.6-10.8
		c-0.3-0.8,1.2-2.7,2.3-3.4c5.6-3.6,10.7-3.3,16.5,1.4c3.9,3.1,7.4,6.8,11,10.3c4,4,8.3,7,14.3,7.3c4.6,0.2,9.2,1.2,13.5,2.8
		c2.9,1.1,4.9,4.2,7.6,5.9c10.6,6.8,21.8,9.8,34.4,6.1c7.3-2.1,14.9-1.3,21.2,2.6c6.3,3.9,11.9,9.1,17.2,14.4
		c3.5,3.5,6.7,5.4,11.8,4.8c2.4-0.3,6.4,0.8,7.2,2.5c2.3,4.8,3.4,10.1,4.6,15.3c0.7,3.1,0.5,6.5,1.1,9.7c1.6,8.6,3.5,17.2,5.3,25.7
		c2.3,11.1,8.9,20.1,14.9,29.3c0.4,0.7,1.3,1.1,2.3,2c1.6-2.3,3.6-4.3,4.5-6.6c2.2-5.8,4.1-11.8,5.6-17.9
		c1.8-7.5,3.8-14.5,10.2-19.9c7.7-6.5,16-12.6,21.4-21.5s14.3-12.4,23.8-15.2c5.4-1.5,10.8-3.5,15.7-6.1c5.8-3,10.6-3,13.9,2.6
		c4,6.9,9.7,12,15.4,17.3c3.4,3.1,4.2,6.8,3.1,11.3c-0.9,3.5-1.3,7.2-1.9,10.8c0.3,0.1,0.6,0.3,0.9,0.4c1.5-1.2,2.9-2.7,4.5-3.7
		c2.5-1.5,5.1-3.2,7.9-3.9c3.6-0.9,6.9,2.3,6.5,5.8c-1.1,8-1,16.1,1,23.9c0.9,3.6,2.7,7.1,4.7,10.4c1.6,2.7,2.7,5,0.9,8
		c-0.6,0.9-0.9,2.1-1,3.2c-1.4,8.4,2.1,15.3,7.5,21.2c2.9,3.2,5.2,6.2,4.8,10.8c-0.2,2.2,0.8,4.4,0.9,6.6c0.1,1.4,0.2,3.2-0.6,4
		c-0.8,0.8-2.9,1.2-4,0.8c-2.9-1.1-5.5-2.9-8.3-4.3c-5.2-2.7-10.4-5.5-15.7-8.1c-0.8-0.4-2-0.1-3-0.1c-0.1,0.4-0.2,0.8-0.4,1.1
		c2.8,1.5,5.6,3.1,8.4,4.5c6.6,3.4,11.3,8.6,14.1,15.6c2.2,5.6,4.1,11.3,6.4,16.9c0.8,2.1,2.4,3.8,4.2,6.5c0.5-1.7,0.7-2.3,0.8-2.9
		c0.8-17.1,2.3-34.1,2.2-51.2c-0.2-23.1-1.9-46.2-2.6-69.3c-0.5-15.9-0.7-31.9-0.5-47.8c0.1-9.1,1.4-18.3,2.2-27.4
		c0.6-6.6,2-13.2,1.9-19.8c-0.1-15.2,1.2-30.3,3.2-45.4c1.3-9.3,0.7-18.8,0.6-28.2c-0.2-15.4,1.9-30.9-0.5-46.3
		c-0.4-2.7,0.2-5.5,0.3-8.3c0.1-3.3,0.4-6.6,0-9.8c-2.1-15.6-2.5-31.2-0.1-46.9c0.2-1.4,0.1-3.4-0.7-4.3c-3.2-3.3-6.2-6.7-11.9-6.6
		c-21.2,0.1-42.4-0.2-63.6-0.6c-8.9-0.2-17.8-0.8-26.7-1.6c-22.9-2-45.8-4.3-68.8-3.6c-9.3,0.3-18.6,1.5-27.8,1.5
		c-21.8,0-43.7-0.8-65.5-0.7c-36,0.2-72.1,0.9-108.1,1.3c-16.7,0.2-33.4-0.2-50.1-0.1c-20.8,0.1-41.7,0.9-62.5,0.7
		c-24.9-0.2-49.7-1.1-74.5-1.9c-12.8-0.4-25.6-0.8-38.3-1.6c-4.6-0.3-7.8,0.9-10.3,5c-3.4,5.5-7.4,10.6-11.3,16.2
		c2.2,3.6,8.4,8,15.2,11.3c3.9,1.9,7.8,4.2,11.1,6.9c6.9,5.7,6.1,13-1.4,17.7c-2.2,1.4-4.1,3.3-6.7,5.4c6.6,1,8.2,2.9,8.2,8.7
		c0,2-0.4,4-0.6,6c-0.3,3,0,5.6,3.3,7.2c2.7,1.3,5.2,3.2,7.8,4.8c5.3,3.4,8.4,8.5,10.9,14c4.4,9.5,11.2,15.9,21.9,17.5
		c0.4,0.1,0.7,0.2,1.1,0.2c3.8,0.5,5.3,2.9,5.4,6.5c0,3.1,0,6.2,0,10.1c4.1-1.9,4.1-4.8,4.3-7.5C615.1,204.4,615.2,200.4,622.1,200
		 M199.4,706.1c2.7-0.6,4.7-0.8,6.5-1.4c4.1-1.4,7.9-1.3,12.1-0.2c3.2,0.9,7.1,0.8,10.4,0.1c10.9-2.5,21.5-3.7,32.7-1.5
		c7.8,1.5,15.9,0.6,23.8-1.8c3.7-1.1,7.8-1.1,11.7-0.9c3.6,0.2,7.1,1.6,10.7,1.8c7.5,0.6,15.1,1.8,22.4,0.8
		c8.9-1.2,17.4-1.4,26.2,0.3c7.9,1.5,15.9,3,23.9,0.6c6.3-1.9,12.6-1.6,19-0.6c12.4,2,24.8,4.5,37.3,0.9s24.7-2.3,37.2,0.3
		c7.1,1.5,14.8,2,22,1.1c10.6-1.4,21-1.8,31.5,0c9.3,1.6,18.6,2.4,28.1,1.5c5.9-0.6,12-0.4,17.9-0.4c3.8,0,7.5,0.5,11.3,0.6
		c9.8,0.3,19.7,0.4,29.5,0.7c4.1,0.1,5.4-0.9,4.4-4.9c-3.2-12.3-5.8-25-14.3-35.2c-0.7-0.8-2.1-1.6-3.2-1.5
		c-5.2,0.2-10.5,1.2-15.7,0.8c-6.5-0.5-12.8-2.3-19.3-3c-4.8-0.6-9.8-1.2-14.5-0.3c-6.8,1.3-13.2,1.5-19.6-0.9
		c-8-3-16.1-2.8-24.1-0.8c-7.2,1.8-14.1,1.7-21.2-0.1c-7.3-1.8-14.7-2.7-21.9-0.2c-5.4,1.8-10.6,1.8-15.9,0.5
		c-14-3.2-27.9-4.4-42.2-1.5c-6.8,1.4-13.7,1.4-20.5-0.7c-3-0.9-6-1.7-9.1-2.4c-9.1-2-18.2-3.1-27.5,0c-7.4,2.5-15.3,3.1-23.1,1.8
		c-11.8-2-23.4-3.2-35.4-0.2c-5.9,1.5-12.6-0.3-18.9-0.9c-6.5-0.6-13-3.5-19.6-0.6c-10.8,4.7-21.7,4.2-32.8,1.2
		c-5.2-1.4-7.8,0.1-9.7,5.1c-0.6,1.5-1.1,3.1-1.5,4.7c-1.7,7.7-3.6,15.4-8.6,21.8c-0.7,0.9-1,2.3-0.9,3.5
		C198.7,698.1,199.1,701.7,199.4,706.1 M568.8,502.6l0.3-1.2c-1.7-2.4-3.6-4.7-5.2-7.2c-3.9-6.1-6.2-12.2-0.9-19
		c3-3.7,0.9-8-3.7-8.5c-3.6-0.4-7.4-0.7-10.8,0.2c-7.6,1.9-14.6,1.2-21.7-1.8c-6.9-3-14-3.7-21.4-1.7c-8.5,2.3-16.9,1.8-25.2-1
		c-5.2-1.7-10.4-4-15.7-5.1c-5.6-1.2-11.3-4.3-17.2-2c-5.1,1.9-10.1,2.2-15.1,0.7c-7.1-2.1-14.2-2.2-21.3-1
		c-10.8,1.8-21.3,0.8-31.6-2.3c-10-3-20.1-3.6-30.2-1.9c-18.5,3.2-36.4,1.9-54.2-4.5c-3.9-1.4-8.6-1.1-12.9-0.7
		c-5.2,0.5-10.3,2.5-15.5,3c-12.7,1.3-24.8-1.1-36.3-6.5c-5.3-2.5-10.4-2.9-16-1.7c-4.7,1.1-9.6,1.6-14.2,2.4v35.3
		c1.1,0.1,1.7,0.2,2.4,0.3c8.1,0.8,15.9,2,22.5,7.3c1.1,0.9,3.8,1,5.3,0.3c9.5-4.2,18.6-2,27.4,1.5c11.1,4.5,22.2,5.5,33.8,2.2
		c8.8-2.5,17.8-2.3,26.7,1c9.9,3.7,20.1,5.8,30.6,4.7c7-0.7,13.8-2.4,20.7-3.6c12.6-2.3,24.9-0.5,37.3,2.4c12,2.9,24.2,3.3,36.6,1
		c13.2-2.5,26.5-3.5,39.9,0.5c12.5,3.7,25.5,4.2,38.5,2.2c6.8-1,13.5-0.7,20.1,1.2c3.1,0.9,6.3,2.1,9.5,2.4
		C557.2,502.2,563,502.3,568.8,502.6 M1144.6,562.1c-1.6-0.5-3-0.8-4.2-1.3c-6.1-2.5-12.3-3.4-18.8-1.6c-9,2.6-17.8,1.7-26.5-1.8
		c-4.9-1.9-10.3-1.7-15,0.7c-7.6,3.9-15.4,3.3-23.1,1.5c-10.3-2.4-20.4-2.4-30.5,0.5c-6.8,2-13.5,2.8-20.4,1
		c-3.9-1-7.7-2.2-11.6-3.4c-10.4-3.2-20.7-3.7-30.7,1.5c-1.4,0.7-3.1,1.5-4.6,1.5c-7.3-0.2-14.5-0.3-21.7-1.1
		c-5.7-0.7-11.3-2.5-16.9-3.8c-8.5-1.9-16.7-0.1-25,1.6c-15.7,3.2-30.9,2.4-45.7-4.3c-7.6-3.4-15.6-4.1-23.9-2s-16.6,4.1-25.3,1.9
		c-6-1.5-11.9-3-17.8-4.7c-7.6-2.2-14.8-0.4-22.4,1.2c0.3,1.5,0.6,2.7,0.8,3.9c0.8,6.7,1.9,13.4,2.3,20.1c0.3,5.8-1.2,11.2-5.6,15.4
		c-1.9,1.8-3.5,3.9-5.1,5.7c0.1,0.4,0.1,0.5,0.2,0.6c7.6,5.9,16.2,4.2,24.6,3c0.7-0.1,1.2-1.9,1.6-2.9c1.1-2.6,1.8-5.4,3.4-7.7
		c3.4-5,9.1-7.1,14.5-9c6-2.1,8.1-7,9.5-12.2c0.8-3.1,1.6-5.5,4-7.6c3.3-2.9,8.7-2.2,10,2c1,3.2,3,5.1,5.6,6.7
		c4,2.4,6.2,5.9,6.1,10.6c-0.1,4.2-0.7,8.5-1.1,12.7c-0.1,1-0.3,2.1-0.4,2.9c5.1,0.8,10.1,0.9,14.4,2.5c9,3.5,17.9,4.1,27.3,2
		c11.9-2.7,23.9-4.8,36.2-3.4c7.3,0.9,14.7,1.2,22.1,1.4c2.2,0.1,4.6-0.8,6.8-1.7c6.4-2.8,12.9-3.7,19.8-1.6
		c6.4,1.9,12.8,4.1,19.4,4.5c7.8,0.5,16,0.3,23.4-1.7c8-2.1,15.5-2.9,23.1,0.3c5.5,2.3,10.9,2.6,16.4,0.2c9.4-4,19-5.1,29.1-3.3
		c6.7,1.2,13.4,0.4,20-1.9c7.8-2.6,15.8-4.5,24.3-2c4.6,1.3,9.7,0.9,14.6,1.2c4.5,0.2,9,0.3,13.5,0.5c1.1,0,2.1,0.2,3.6,0.4v-29
		L1144.6,562.1L1144.6,562.1z M713,671.6c4.1,0,8.7-1.2,12.1,0.2c9.5,4.1,18.8,3.7,28.4,1c5.6-1.6,11.1-1.7,16.7,0
		c8.9,2.6,18,2.5,26.8,0.2c8-2.1,15.6-1.9,23.4,0.1c6,1.5,12,2.5,18.2,0.5c10.2-3.4,20.6-2.4,30.9-0.5c8,1.4,16.3,2.1,23.9-0.4
		c6.9-2.3,12.9-1.7,19.4,0.2c6.7,1.9,13.4,1.9,20.4,0.1c10.1-2.6,20.5-3.1,31-2c7,0.7,14.5,1.3,21.2-0.2c9.5-2.1,18.5-4.3,28-0.7
		c1.2,0.5,2.8,0.6,4.1,0.4c4.9-0.8,9.9-1.5,14.7-2.7c6-1.6,11.9-1.7,17.8,0.4c6.7,2.4,13.4,2.9,20.4,2c10.5-1.3,20.9-2.2,31.4,0.7
		c4.8,1.3,10.2,1.2,15.3,1.2c5.4,0,10.7-0.1,15.9,2c2.6,1.1,5.4,1.5,8.2,2.3c0.3-1.2,0.6-1.8,0.7-2.4c0.8-10.5,1.6-21,2.2-31.6
		c0.3-4.5-0.4-5.1-5.1-5.2c-5.4-0.1-10.8-0.3-16.2-0.3c-6.4,0.1-12.9-0.5-19,0.8c-8.7,1.8-17,2.3-25.6-0.3c-3.3-1-7.2-0.4-10.7-0.1
		c-6.7,0.7-13.5,3.6-20,0.4c-5.5-2.6-10.6-2.3-15.9,0.1c-6.3,2.9-12.6,3-19.4,1.6c-5.4-1.2-11.3-1.4-16.7-0.5
		c-10.8,1.9-21.3,2.8-32.1-0.1c-2.5-0.7-5.6-0.4-8,0.6c-9.2,3.7-18.4,4.8-28,1.8c-8.4-2.6-16.8-2.1-25.3-0.2
		c-8.8,1.9-17.7,2.7-26.4-0.6c-6.9-2.6-13.6-2.1-20.1,0.8c-7.2,3.2-14.6,4.5-22.4,3.9c-5.4-0.4-10.8-0.8-16.1-1.4
		c-6.1-0.7-12.2-1.8-15.6,5.2c-0.3,0.6-1,1.2-1.6,1.6c-10.3,6.5-14.5,6.1-19.8-3.6c-1.7-3.1-3.5-4.5-6.6-4.4
		c-4.9,0.2-9.7,1-14.6,1.3c-2.8,0.1-6,0.4-8.4-0.7c-7.9-3.6-14.8-3.7-21.3,2.8c-3.6,3.6-8.5,6.3-11.1,10.5
		C715.4,660.7,714.6,666.4,713,671.6 M1141.8,706.6c0.1-1.2,0.3-2.5,0.3-3.9c0-5.3-0.2-10.5-0.2-15.8c-0.1-5.2-0.8-5.7-5.9-6.9
		c-8.2-2-16.3-3.8-24.8-2.7c-2.8,0.4-5.9,0-8.6-0.8c-11-3.5-22-2.3-33.2-1.3c-5.8,0.5-12.1,0.5-17.5-1.2c-8.3-2.7-15.8-1.9-24,0.1
		c-5.2,1.3-11.2,1.8-16.2,0.5c-7.5-1.9-14.8-2.1-21.9,0.2c-8.9,2.9-17.7,2.1-26.8,1.7c-9.4-0.5-19.3-0.6-28.4,1.5
		c-9.1,2.1-17.5,1.7-26.2-0.7c-3.4-0.9-7.6-1.3-10.9-0.3c-8.1,2.4-16.2,3.1-24.5,2c-11.1-1.6-22.2-3.7-33.2-0.2
		c-7.7,2.4-15.1,1.2-22.6-0.9c-5.4-1.5-10.9-1.8-16.4-0.3c-11,3-22,2.8-33.1,0.1c-3.6-0.9-7.9-0.9-11.5,0
		c-10.8,2.8-21.2,3.4-31.7-1.2c-4-1.8-14.6,0.8-17,3.6c-6.9,7.7-14.5,14.5-23.9,19.1c-2.6,1.3-4.8,3.5-7.2,5.3
		c0.1,0.3,0.3,0.7,0.4,1c5.8-1.9,11.1,0.1,16.6,1.6c10.2,2.8,20.2,2.4,30.2-1.7c3.3-1.4,7.5-1.7,11-1.1c10.6,1.8,21.2,2.6,31.8,0.1
		c6.4-1.5,12.7-1.3,19,0.2c9.7,2.3,19.4,2.3,29.2,0.9c8.7-1.2,17.3-1.7,25.8,0.6c8.3,2.2,16.6,2,25,1c11-1.3,22-1.9,33,0.2
		c9.8,1.9,19.8,2.1,29.6,0c13.6-2.8,27.2-2.9,40.8,0c5.9,1.2,11.5,0.8,17.4-0.8c11.2-3.2,22.7-4.1,34.2-0.7
		c3.8,1.1,7.9,1.4,11.9,1.3c6.3-0.2,12.5-1.3,18.8-1.5c6.2-0.3,12.5,0,18.8,0c6.1,0.1,12.4,1.1,18.3,0.1c9.3-1.6,18.5-1.2,27.8-0.7
		C1124.5,705.3,1132.9,706,1141.8,706.6 M1146.1,521.9c0.3-5.4,0.6-10.4,0.7-15.4c0-0.9-1-1.9-1.7-2.7c-3.5-3.5-6.8-7.1-7.8-12.2
		c-0.5-2.6-2.2-3.3-4.6-3.5c-4.8-0.4-9.8-0.5-14.5-1.8c-6-1.7-11.8-1.7-17.8-1c-9.7,1.3-19.5,3.4-29.1-0.2c-9.5-3.6-19-2.9-28.6-1.5
		c-21,3.1-41.5,2.4-61.8-4.5c-5.2-1.7-11.2-1.9-16.7-1.3c-8.2,0.8-16.3,3-24.4,4.4c-3.4,0.6-7,1.3-10.4,0.9c-8.3-1-16.7-2-24.8-4
		c-9.9-2.5-19.7-3.6-29.8-1.7c-6,1.2-12,2.7-18.1,3.5c-10.5,1.3-20.8,0.2-30.8-3.3c-6.4-2.2-12.8-2.1-19.2-0.2
		c-2.1,0.7-4.6,1.4-6.6,0.9c-5.7-1.4-8.5,0.8-11.1,5.9c-4.5,8.6-12.1,14.6-19.6,20.5c-1.2,0.9-2.3,2-4.1,3.5c1.9,0,2.9,0.2,3.8,0
		c8-2,15.4-0.3,23.1,2.6c12.4,4.7,25.3,5.2,38.5,2.2s26.4-3.9,39.6,1.4c8.8,3.5,18.1,4.1,27.7,1.7c13.3-3.4,26.8-4,40.3-0.3
		c8.8,2.4,17.7,2.5,26.4,0c11.6-3.3,22.9-2.4,34.7-0.6c8.4,1.3,17.2,0.7,25.8,0.5c5.5-0.1,10.9-1.3,16.3-1.6
		c8.6-0.6,16.6,2.3,24.8,4.2c7.8,1.8,15.7,2.6,23.6-0.8c6.7-2.9,13.7-2.6,20.5,0.4c1.9,0.8,4,1.6,6.1,1.8c7,0.6,14,0.9,21,1.4
		C1140.2,521.2,1142.9,521.6,1146.1,521.9 M283.8,538.2c10.4,3.9,21.8,4.6,33,1.1c10.2-3.1,20.2-3.2,30.3,0.3
		c2.7,0.9,5.6,1.5,8.4,2.1c9.9,2.1,19.8,3.9,29.6-0.1c2.8-1.1,5.6-2.2,8.5-3.1c9.2-2.9,18.2-0.9,27.1,1c6.8,1.5,13.3,2.1,20.4,0.2
		c8.2-2.2,17-4.7,25.6-1.9c11.6,3.7,22.8,2.8,34.3-0.8c3.6-1.1,8.3-0.5,12.1,0.8c7.6,2.6,15,3.8,22.9,1.5c9.8-2.9,19.3-2.5,28.4,2.8
		c2,1.2,5,0.9,7.5,0.8c3-0.2,5.9-1.2,8.9-1.4c5.1-0.4,8.4-3.9,6.7-8.9c-2.3-6.9-5.5-13.4-8.4-20.1c-1.8-4.2-4.9-5.7-9.6-5.1
		c-9.5,1.4-18.6-0.3-27.9-2.5c-6.1-1.5-12.6-1.3-19-1.4c-9.4-0.2-18.8,0.6-28.1-0.2c-7.1-0.5-14-3.8-21-4
		c-9.8-0.4-19.8,0.2-29.6,1.7c-13.9,2.1-27.4,1.4-41-2.1c-12.1-3.1-24.3-4.1-36.5-0.6c-16.5,4.8-32.8,3.5-48.8-2.5
		c-7.8-2.9-15.7-2.7-23.7-1.1c-5.3,1-10.6,2.2-15.9,2.2c-7.4,0.1-14.6-1.4-21.6-4.5c-8.5-3.7-17.5-5.7-26.8-0.2c1,1.1,1.7,2.4,2.7,3
		c2.9,1.5,5.8,3,8.9,3.9c8.8,2.4,17.9,4.1,26.6,6.8c9.1,2.9,16.2,8.4,17.2,18.8C285.3,529.1,284.2,533.4,283.8,538.2 M255.7,612
		c4.2,0.6,8.3,0.8,12.3,1.8c7.2,1.7,14.3,4,21.5,5.7c4.7,1.1,9.2,1.1,14-0.8c8-3.2,16.4-4.2,25-1.6c8.1,2.5,16.5,3.5,24.8,0.9
		c6.6-2.1,13-1.6,19.7-0.1c7.7,1.8,15.5,2.9,23.5,1.2c5.2-1.1,10.6-2.5,15.9-2.2c7.1,0.4,14.1,2.1,21.1,3.4c5.8,1,11.5,1.6,17.4-0.5
		c6.1-2.2,12.4-2.5,18.9-0.6c8.8,2.6,17.8,3.2,26.7,0.4c6.1-1.9,12-1.1,18.1,0.4c4.5,1.1,9.6,1.8,14,0.8c9.6-2.1,18.8-1.8,28.2,1
		c4.6,1.3,9.7,2,14.3,1.5c5.6-0.7,11-2.4,16.7-0.5c0.6,0.2,1.3-0.1,2.1-0.2c-5.8-13-12.9-25.3-11.8-40.2c-7.1-0.2-13.8-1.5-20.4,1.2
		c-5.2,2.1-10.5,1.6-15.8-0.3c-12.4-4.6-24.9-5.7-37.6-1.4c-1.5,0.5-3.2,0.7-4.8,1c-10.7,1.8-20.9-0.1-31.2-3.2
		c-9.5-2.8-18.7-2.2-27.9,1.8c-8.1,3.6-16.8,4-25.5,1.8c-7.6-2-15.4-2.9-23.1-1.5c-5.5,1-10.9,2.8-16.3,4.2c-10.2,2.8-20,0.5-29.5-3
		c-9.6-3.6-18.9-2.9-28.4,0c-3.8,1.2-7.7,2.7-11.6,3.1c-9.2,0.8-18.1-1-26.4-4.7c-6-2.6-11.3-0.8-16.9,0.5c-0.8,0.2-1.6,1.6-1.8,2.5
		C259.2,593.7,257.4,603,255.7,612 M1144.5,555.7c0.5-8.7,1.1-16.8,1.2-24.9c0-1.2-2.1-3.4-3.4-3.6c-5.4-0.7-11-0.9-16.5-1.1
		c-6.3-0.2-12.4-0.6-18.4-3.2c-5.3-2.3-11-2.7-16.5-0.1c-4.9,2.3-10.1,3.4-15.4,2.6c-5.9-0.8-11.9-1.9-17.7-3.3
		c-9.6-2.4-19.4-3.2-29.1-1.4c-10.5,2-21,1.9-31.4,0.1c-11-1.9-21.8-2-32.8,0.5c-7.3,1.7-15.5,2.5-22.7,0.9
		c-14.7-3.3-29.1-4.2-43.6-0.6c-11.4,2.8-22.1,1-32.8-2.9c-3.9-1.4-8.3-2.5-12.4-2.4c-7.5,0.2-15.1,1-22.4,2.5
		c-11.5,2.4-22.9,2.5-33.9-1.1c-10.5-3.5-20.7-6.5-31.8-3.4c-0.6,0.2-1.3,0.1-1.9,0c-2.3-0.3-3.6,0.5-3.7,3
		c-0.4,6.4-1.2,12.8-1.2,19.2c0,7.7,0.4,7.5,8.3,6.3c4.9-0.7,10-0.9,14.9-0.2c5.8,0.8,11.4,2.8,17.2,4.3c6.8,1.8,13.5,2.3,20.4,0.3
		c10.4-3,20.9-4.2,31.3,0.2c13.1,5.6,26.7,7.2,40.9,4.9c8.5-1.4,16.9-4.5,25.7-2.8c6.5,1.3,13,2.6,19.5,3.9
		c10.4,2.1,20.7,3.5,30.9-1.8c3-1.5,6.7-1.7,10.2-2.2c8.3-1,16.1,1.5,23.9,4.1c7.4,2.4,14.8,3.6,22.5,1.2c11.4-3.6,22.9-3.4,34.6-1
		c5.6,1.1,12.1,1.7,17.3-0.2c8.4-3,16.1-4,24.5-0.9c6,2.2,12.2,3.1,18.8,1.3c4.5-1.2,9.5-1.4,14.2-1.2
		C1137,553,1140.4,554.6,1144.5,555.7 M214.9,653.5c11.4,3.6,21.7,5.5,32.3,1.3c6.8-2.7,13.6-3.2,20.7-1.4c2.9,0.7,5.9,1.5,8.9,1.7
		c4.6,0.3,9.5,1,13.8-0.2c11.4-3.4,22.6-1.8,33.9-0.1c5.7,0.8,12,1.3,17.5-0.2c13.4-3.8,26.5-4.5,39.6,0.1c8,2.8,15.9,3.3,24,1.5
		c13.9-3.1,27.6-2.2,41.4,1.3c4.5,1.2,10,1.2,14.4-0.1c8.3-2.4,16.3-2.5,24.5-0.3c6.8,1.8,13.5,2.2,20.4,0.3c9-2.4,18-2.4,27,0.7
		c4.3,1.5,9.6,2,14,1c7.9-1.8,15.4-1.5,23,1c9.4,3.1,18.9,1.6,28.6,0.6c-0.3-0.9-0.4-1.6-0.7-2.2c-3.9-6.9-4.9-14.1-2.7-21.8
		c0.5-1.8,0.3-3.8,0.1-5.6c-0.1-0.8-1-2-1.6-2c-6.3-0.6-12.9-2.3-18.9-1.2c-7.5,1.4-14.3,1-21.4-1.1c-6.8-2-13.8-2.5-20.9-1.1
		c-6.3,1.2-12.7,2.4-19,0.1c-6.9-2.5-13.6-1.7-20.4-0.1c-6.7,1.6-13.4,1.8-20.1,0c-7.2-1.9-14.5-3-21.5-0.6
		c-8.6,3-16.9,1.7-25.2-0.4c-8.3-2.1-16.6-3.5-24.9-1.1c-10.7,3.1-21,1.7-31.6-0.3c-4.6-0.9-9.7-1.2-14.1,0
		c-9.5,2.5-18.7,1.9-27.9-0.5c-8.1-2.2-16-1.5-23.6,1.4c-5.1,1.9-10.1,2-15.1,0.7c-7.6-2-15.2-4.3-22.9-6.2
		c-4.6-1.1-9.6-1.5-13.3,1.9c-3.7,3.3-6.2,7.8-9.7,11.5c-1.8,1.9-4.3,3.6-6.8,4.5c-2.3,0.8-5,0.3-7.5,0.6c-1.1,0.1-2.6,0.5-3.2,1.3
		C222.1,643.1,218.7,648,214.9,653.5 M203.4,247.3c6.2,0.6,11.8,0.2,16.6,1.9c7.4,2.7,14.5,2.6,21.2-0.6c8-3.7,15.4-3,22.7,0.9
		c7.6,4.1,15.3,3.6,23.1,1.4c8.6-2.4,17-2.5,25.6,0.3c9.5,3.1,19.2,5.5,29.2,2.6c8.6-2.4,17.1-2.7,25.6-0.2
		c10.3,3.1,20.6,3.5,31.2,1.4c9.1-1.8,18.2-0.3,27,2.7c3,1,6.8,1.1,9.9,0.2c5.1-1.5,10-1.9,15.2-1.1c1.3,0.2,2.8-0.2,4.1-0.8
		c6.6-3.1,10.3-8.9,13.8-15c0.8-1.5,2.5-3.3,3.9-3.4c2.9-0.3,6.1-0.1,8.8,0.9c6,2.3,11,1.3,16.3-2.2c6.2-4,12.9-7.2,20.6-7.4
		c7.8-0.2,15.6-0.5,23.3-0.9c9.6-0.5,19.3-1.2,28.9-1.4c3.3,0,6.8,0.9,9.7,2.4c4.5,2.2,5.2,6.8,5.4,11.3c0.1,2.5,0.9,3.4,3.7,3.1
		c3.1-0.3,6.6-0.4,9.5,0.6c7.3,2.5,14.4,2.7,21.9,1c4.6-1,9.3-1.4,13.6,1.3c4,2.5,8.2,2.7,12.7,2.4c5.8-0.4,11.4,0,17,2.3
		c2.4,1,5.8,0.9,8.3,0.1c7.1-2.1,14.2-3.6,21.5-1.5c7.6,2.2,14.9,0.3,22.2-1.5c2.9-0.7,5.9-0.4,8.9-0.7c1.3-0.2,2.8-0.5,3.8-1.3
		c3.1-2.4,2.4-5.9,0.8-8.5c-0.9-1.5-3.7-2.4-5.6-2.5c-2.9-0.2-6.1,0.2-8.9,1c-3.6,1.1-6.8,0.6-10.2-0.9c-1.8-0.8-4.5-1.4-6-0.6
		c-6.3,3.2-11.8-0.1-16.1-3.2c-3.6-2.7-7-5.1-11.3-6.6c-3.4-1.2-6.1-1.1-9.1,1.1c-3.7,2.7-7.8,4.3-12.6,3.9
		c-5-0.4-10.2,0.3-15.2,0.1c-3.4-0.1-7.1-0.1-10.2-1.3c-5.7-2.1-11.2-2-16.2,1c-7.1,4.4-19,1.7-22.4-6c-1.4-3.1-3.8-3.9-5.9-3
		c-6,2.6-11.5,1.2-17.1-0.6c-1.1-0.4-2.5,0-3.7-0.2c-5.3-0.8-10.5-1.7-15.8-2.4c-2.1-0.3-4.5-0.8-6.4-0.2c-5.3,1.6-10.6,2-16,0.8
		c-1.5-0.3-3-0.4-4.5-0.4c-3,0-5.3,0.9-7.3,3.6c-5.1,6.9-11.8,11.1-20.7,11.3c-1.3,0-2.7,0.5-3.9,1.1c-5.1,2.5-8.9,2.2-13.3-1.8
		c-2.2-2-4.2-2.3-6.7-0.8c-1.3,0.8-3,1.2-4.5,1.2c-5.1,0-6.2-4.7-8.7-7.8c-0.7-0.8-1.2-2.5-2-2.5c-4.6-0.3-9.6-1.6-13.6-0.2
		c-5.2,1.8-9.9,2.1-15,0.6c-6.9-2-13.6-1.4-20.3,1.3c-2.6,1-5.6,1.9-8.3,1.7c-5.1-0.4-10.2-1.1-15.1-2.5c-8.5-2.5-17-3.2-25.7-1.8
		c-4.5,0.7-8.9,1.7-13.4,2.2c-8,0.9-15.8-0.3-23.3-3.1c-6.3-2.3-12.4-2.2-18.8-0.2c-3.9,1.2-8.1,1.8-12.2,2.1
		c-8.7,0.7-17-1.4-25-4.4c-5.5-2-10.5-1.2-15.5,1.8c-7.2,4.4-15,4.6-22.3,0.8c-6-3.1-10.9-0.3-16.2,1.6c-0.4,0.1-0.7,1-0.7,1.5
		C203.4,231.8,203.4,239.9,203.4,247.3 M809.1,636.8c4.3,0.6,7.5,1.1,10.8,1.5c11.9,1.4,23.7,2,35.1-3.2c6.4-2.9,13.3-3.4,20.2-0.9
		c8.8,3.1,17.8,2.6,26.8,0.7c8.7-1.9,17.4-2.3,26.1,0.3c8.1,2.5,16.3,2.6,24.4-0.7c4.9-2,9.9-1.8,15.1-1c6.2,0.9,12.7,0.9,19,0.7
		c7.5-0.2,15.2-2.6,22.3-1.3c9.5,1.8,18.2,1.8,27.1-2c3.7-1.6,7.4-1.2,11.3,0.6c4.1,1.9,8.5,2.8,13.2,1.5c8.4-2.3,16.7-2.4,25.2-0.1
		c4.2,1.1,9,0.8,13.3,0c8.1-1.6,16-2.7,24.3-1.9c5.8,0.6,11.7,0.3,17.6,0.6c2.8,0.1,3.6-1.1,3.6-3.8c0-9.3,0.2-18.6,0.3-27.9
		c0-0.8-0.3-1.6-0.4-2.2c-1.8-0.2-3.2-0.5-4.7-0.6c-3.5-0.4-7.1-1.3-10.4-0.9c-7.3,0.9-14.2,0.3-21.2-1.7c-1.8-0.5-4-0.6-5.9-0.2
		c-5.6,1.2-11.1,3-16.8,4c-5,0.9-10.3,1.7-15.2,1.1c-9.9-1.3-19.5-1.9-28.8,2.4c-7.4,3.4-14.5,2.8-21.8-0.4
		c-2.7-1.2-6.1-1.7-9.1-1.3c-4.9,0.6-9.7,2.4-14.6,3.3c-13,2.3-25.8,1-38.1-3.7c-6.9-2.6-13.7-2.7-20.3,1c-1.3,0.7-2.8,1.3-4.2,1.3
		c-6.8,0.1-13.8,0.7-20.5-0.3c-14.3-2.1-28,0-41.8,3c-8.4,1.8-16.5,1.3-24.4-2c-5.6-2.4-11.5-2.6-17.4-1.6c-1.1,0.2-2.5,1.2-3,2.2
		c-2.9,5.3-5.6,10.6-8.3,16C814.9,624.7,812.2,630.5,809.1,636.8 M579.3,576.6c2.4-5.2,4.2-10.3,7-14.9c2.7-4.4,1.6-7.8-0.6-11.8
		c-2.1-3.8-5.2-2.3-7.9-2.4c-2-0.1-4.1,0.3-5.9,0.9c-3.7,1.3-7,0.6-10.1-1.2c-8.4-4.7-17.1-5.1-26.2-2.3c-7.5,2.3-14.9,1.8-22.1-1.2
		c-4.7-2-9.5-2.3-14.3-0.6c-10,3.6-19.9,4.3-30.2,1c-5.9-1.9-12.1-2.3-18.2-0.6c-12.9,3.6-25.8,4.2-38.9,0.2
		c-7.3-2.2-14.5-0.6-21.7,2.1c-5.4,2-11.4,3.8-17.1,3.6c-7.9-0.3-16-1.8-23.7-3.9c-9.4-2.5-18.6-4.1-28.2-1.2
		c-10.3,3.1-20.7,3.5-31.2,1c-12.8-3-9.6-2.9-16.8,6.8c-5.1,6.8-7.7,14.7-9.2,23.5c1.7-0.2,3-0.7,4.3-0.6c3.8,0.2,7.9-0.1,11.4,1.2
		c12.2,4.4,24.2,6.6,37,1.4c9.3-3.8,19.3-4.5,29-0.3c2.9,1.2,6,1.9,9,2.7c7.6,2,15,2.3,22.5-0.6c11.8-4.6,23.9-5.4,36.2-2.1
		c8.9,2.4,17.9,2.2,26.3-1.3c9.5-4,19-5,28.7-2.1c14.1,4.3,27.9,4.7,42.2,0.6c11.1-3.2,22.2-0.7,32.9,3.3c5.2,1.9,10.2,1.7,15.5,0
		c2.9-1,6.1-1.4,9.2-1.5C571.7,576,575.5,576.4,579.3,576.6 M449.1,448.4c-0.9-0.9-1.5-1.8-2.2-2.3c-7.7-5.5-13.8-12.6-19.7-20
		c-4.1-5.2-8.8-9.9-13.3-14.9c-0.5-0.5-1.1-1.3-1.7-1.4c-6.1-1.1-12.2-2.2-18.3-3c-5.2-0.7-10.6-0.3-15.6-1.5
		c-6.6-1.6-13.1-2.1-19.8-0.9c-8.9,1.6-17.8,2.1-26.5-0.1c-9.5-2.4-18.8-3.1-28.1,0.3c-6,2.1-12.1,2.1-18.2,0.9
		c-5.5-1.1-11-2.5-16.6-3.2c-4.3-0.5-8.8-0.7-13,0.1c-10.2,2-20,1.9-30-1.8c-7.3-2.7-15.1-3.8-23-2.2c-1,0.2-2.5,1.7-2.6,2.7
		c-0.5,10.9-0.6,21.8-1,32.7c-0.1,3,1.3,3.8,3.8,3.5c3.4-0.5,6.8-0.8,10-1.7c6.2-1.7,11.9-0.9,17.8,1.8c14.9,6.6,30.4,8.5,46.3,3.6
		c6.3-1.9,12.5-2,18.9,0.3c15.5,5.7,31.4,7.3,47.8,4.5c12.5-2.2,25-1.9,37.3,1.8c9.4,2.8,18.9,3.8,28.7,2c8.3-1.5,16.5-1.1,24.6,1.5
		C439.8,452.7,444.4,450.9,449.1,448.4 M1112.6,448.9c-0.7,0-1.2-0.1-1.6,0c-7.9,1.9-15.8,1.9-23.8,0.2c-3.2-0.7-7.1,0-10.1,1.2
		c-7.1,2.8-14,4.7-21.5,2.2c-6.4-2.1-12.9-1.5-19.4-0.2c-6.6,1.2-13.2,1.4-19.6-1.2c-1.8-0.7-4.1-1-5.8-0.5
		c-6.2,1.9-12.3,1-18.6,0.4c-9.4-0.8-19-1.3-28.5-1c-8.9,0.2-17.6,0.6-26.5-1.8c-5.7-1.5-12-1.8-17.8-1.1
		c-13.9,1.7-27.4,2.2-40.9-2.5c-4.9-1.7-10.7-1.6-16-1.2c-12,0.7-24,2.3-35.9-0.8c-1-0.3-2-0.1-3-0.3c-3.3-0.5-5.6,0.8-7.6,3.5
		c-6,8.1-12.3,15.9-18.4,23.8c-0.6,0.8-1.1,1.8-2.4,3.9c4.1-0.5,7.3-0.3,10.2-1.3c7.8-2.5,15.3-1.8,22.9,0.7c12,4,24.2,4,36.4,1
		c14.5-3.6,29-4.3,43.4,0.6c3.8,1.3,7.9,1.5,11.8,2.2c9.6,1.8,18.9,0.4,28.3-1.9c13.6-3.3,27.1-4.3,40.8,0.6
		c16.3,5.8,33.3,5,50.3,3.2c9-1,18.5-1.9,27.3-0.1c10,2.1,19.7,3.9,29.7,2c9.5-1.8,18.6-1.4,27.8,1.7c2.7,0.9,6,0.1,9,0.1
		c0.3-0.4,0.6-0.8,0.8-1.3c-2.3-3.8-4-8.2-7-11.2c-3.7-3.6-8.3-6.3-12.8-8.8C1107.9,457.5,1107.2,453.5,1112.6,448.9 M197.9,669
		c0.2,0,0.4,0.1,0.7,0.1c0.9-3.6,1.1-7.6,2.8-10.7c3.6-6.4,8-12.4,12.1-18.4c4.4-6.4,9.6-11.3,18.4-9.4c1.4,0.3,3.7-0.9,4.7-2.2
		c2.5-3.2,4.6-6.8,6.6-10.4c2.2-3.9,4.9-7.8,5.9-12.1c3.2-12.6,5.8-25.5,8.5-38.2c2.4-11,6.5-21.2,14.1-29.9
		c2.5-2.9,4.2-6.6,5.6-10.2c1.6-4.4,1.8-9.3-1.8-12.8c-2.4-2.3-5.7-4.1-9-5c-8.9-2.4-18.1-4.1-27.1-6.4c-5.3-1.4-10.2-3.8-13.2-9.1
		c-1.4-2.5-3.5-4.7-5.7-6.5c-5.1-4.2-11.6-3.6-17.6-4.7c-0.7-0.1-2.6,1.4-2.6,2.2c-0.5,11.3-1,22.6-1,33.9
		c-0.1,12.9,0.7,25.8,0.5,38.8c-0.3,21.5-1.2,42.9-1.7,64.4c-0.2,9.1-0.2,18.3-0.2,27.4C197.9,656.2,197.9,662.6,197.9,669
		 M1141.2,711.8c-10-0.7-20.1-1.6-30.3-1.9c-7.1-0.2-14.3,0.4-21.4,0.6c-5.9,0.2-11.7,0.3-17.6,0.4c-8.1,0.1-16.3-0.3-24.4,0.1
		c-9.1,0.5-18.3,2.5-27.3-0.1c-11.7-3.3-23.1-2.5-34.5,0.9c-5.4,1.6-10.8,2.1-16.4,0.9c-13.8-3-27.5-2.5-41.5-0.4
		c-8.9,1.4-18.3,1.4-27.3,0.4c-10.5-1.3-21-2.1-31.5-0.9c-9,1-18,2-27-0.3c-8.1-2.1-16.3-2.4-24.6-1.3c-10.9,1.5-21.7,1.5-32.6-0.6
		c-5.3-1-11.2-1.6-16.4-0.5c-11.7,2.4-23.1,2.2-34.8,0.2c-2.7-0.5-5.9-0.2-8.4,0.9c-11.7,5.1-23.4,4.4-35.4,0.9
		c-2.5-0.7-5.3-1.5-7.7-1c-7,1.4-14.1,2.8-20.7,5.4c-4.1,1.6-7.6,1.6-11.6,1c-4.4-0.6-8.9-1.1-13.3-1.6c-3.4-0.4-6.8-0.7-10.2-1.1
		c-0.9-0.1-1.7-0.4-2.6-0.5c-10.3-0.2-20.8,1.7-31-1.3c-1.3-0.4-2.7,0.1-4.1,0.1c-5.1,0-10.3,0.1-15.4,0c-4.3-0.1-8.7-1.3-12.7-0.6
		c-11.7,2.2-23.2,0.6-34.8-0.7c-8.3-1-16.9-1.4-25.1-0.2c-10.6,1.5-20.8,0.9-31-1.6c-10.5-2.6-21.1-3-31.4-0.3
		c-11.6,3-22.8,1.9-34.3,0.4c-6.4-0.8-13.2-2-19.4-0.7c-9.5,2-18.6,1.3-28,0.1c-7-0.9-14.3-1.7-21.3-0.8c-7.7,1-15.2,0.9-22.8-0.1
		c-10.4-1.3-20.5-3.8-31.5-0.7c-8.6,2.4-18.4,0.2-27.6,0.2c-4.5,0-9,0.1-13.4,0.5c-6.7,0.5-13.7,2.8-20,1.6
		c-6.6-1.3-12.1,0.1-18,1.6c-1,0.3-2,1.9-2.4,3.1c-0.4,1.4,0,3-0.2,4.5c-0.2,2.8,1,3.4,3.6,3.2c8.4-0.8,16.8-1.4,25.2-2
		c7-0.5,14-1.2,21-1c12.2,0.2,24.3,1.4,36.5,1.5c15.3,0.2,30.6-0.4,46-0.4c10.3,0,20.6,0.5,30.9,0.5c26.4-0.1,52.6-4.4,79-2.5
		c15.8,1.1,31.6,0.6,47.4,1.1c20.3,0.6,40.7,1.7,61,2.1c21.7,0.5,43.5,0.4,65.2,0.6c20,0.2,40.2,1.6,60.1,0.5
		c50.6-2.9,101.2-2.1,151.8-2.3c19.8-0.1,39.7,1,59.5,0.8c17.7-0.2,35.4-2.1,53.1-2.4c38.4-0.7,76.9-0.6,115.3-1.1
		c27.4-0.4,54.8-1.3,82.1,1.2C1141.4,718.3,1141.6,717.9,1141.2,711.8 M823,436.6c10.1,2.9,20.3,3.5,30.6,2
		c10.2-1.4,20.2-1.9,30.1,1.8c2.3,0.9,4.9,1,7.4,1.6c9.9,2.2,19.7-0.3,29.6-0.8c6.2-0.3,12.4,0.9,18.6,1.5c5.2,0.6,10.4,1.9,15.6,2
		c9,0,17.9-2,27-0.4c4.9,0.9,10,1.4,15,1.6c4.5,0.2,8.9-0.4,13.4-0.6c2.3-0.1,5-0.8,7,0c7.9,3.1,15.7,2,23.7,0.9
		c4.4-0.6,9.2-0.7,13.4,0.4c8.6,2.3,16.4,1.3,24.5-2c3.4-1.4,7.8-0.7,11.7-0.7c4.7,0,9.4,0.5,14.1,0.5c3.6-0.1,7.2-0.9,10.8-1.1
		c5.2-0.2,10.5-0.2,16.8-0.3c-4.7-8.3-7-15.7-3.2-23.9c-2.9,0-5.2,0.1-7.5,0c-5.8-0.4-11.7-1.6-17.5-1.1c-7.4,0.7-14.2-0.2-21-3
		c-5.1-2.1-10.3-3.2-15.8-2.4c-4.1,0.6-8.2,1.3-12.3,2.1c-8.6,1.7-17,1.5-24.9-3c-5.2-2.9-10.6-3-16-1.3c-1.5,0.5-2.9,2-3.9,3.5
		c-3.4,4.9-6.3,10.2-9.9,14.9c-2.8,3.6-5.5,3.4-8.9,0.3c-0.8-0.8-1.8-1.5-2.2-2.5c-2.3-5.2-6.7-6.8-11.9-7.2
		c-1.7-0.1-3.4-0.8-5.2-0.9c-1.7-0.1-3.8-0.2-5.1,0.7c-4.2,2.8-8.2,1.4-12.5,0.3c-7-1.7-14.3-4.2-21.3-3.9
		c-20.8,0.7-41.1-1.5-61.3-5.8c-3.5-0.8-7.6-0.8-11.1,0.2c-8.4,2.2-16.6,5.2-25.4,1.8c-1.9-0.7-3.3-0.1-3.6,2.4
		c-0.3,2.3-1.1,4.7-2,6.8C827.8,426.2,825.4,431.3,823,436.6 M453.4,180.4c0.2-2.6,0.1-5,0.8-7.2c0.4-1.4,1.8-3.6,2.9-3.7
		c4.4-0.3,9.3-1.1,13.3,0.4c8.6,3.3,17.1,3,25.9,2.2c0.9-0.1,2.5-1.2,2.6-1.9c0.3-5.7,0.6-11.5,0.2-17.2c-0.3-3.9-1.8-4.3-5.8-3.5
		c-3,0.6-6.2,0.8-9.3,1.2c-2.4,0.3-4.7,0.9-7.1,0.9c-2.5,0.1-5.4,0.5-7.5-0.5c-6.1-3-12.5-3.1-18.4-1.1c-8.6,2.9-16.6,2.8-25-0.1
		c-6.6-2.3-12.9-0.5-18.9,2.3c-7.7,3.6-15.8,5.4-23.8,2.8c-13.1-4.2-25.7-3.5-38.4,0.8c-11.1,3.9-22.4,5.8-33.5,0.9
		c-9.4-4.2-18.2-3.2-27.3,0.4c-9.5,3.8-18.8,3.1-27.4-2.3c-3.7-2.4-7.5-2.9-11.5-2.1c-3.4,0.7-6.9,1.5-10,3.1
		c-6.2,3.1-11.6,2.3-16.8-1.8c-3.5-2.8-7.4-2.7-11.4-1.4c-2.3,0.8-3.6,2.2-3.3,5.1c0.5,4.1,0.2,8.3,0.4,12.4c0.2,4,0.6,7.9,0.9,12
		c1.2-0.1,1.9,0.1,2.4-0.1c3.8-1.9,7.5-1.4,11.6-0.4c8,2,16.2,3.5,24.2-0.8c4.1-2.2,8.4-1.9,12.8-0.4c10.5,3.7,21,3.5,31.8,0.7
		c5.3-1.4,11.2-0.9,16.7-0.6c4,0.2,7.8,1.7,11.8,2.4c8.1,1.4,16.3,1.7,24.3-0.4c7.4-1.9,14.7-2.9,22.3-1.2c4.9,1.1,9.9,1.8,14.8,2.7
		c9.4,1.6,18.3,1,27.2-3.1c4.1-1.8,10-3.1,13.8-1.5C430.5,184.4,441.8,179.7,453.4,180.4 M496.5,123.8c-0.1-0.7-0.2-1.5-0.4-2.2
		c-3.9,0.4-7.8,0.9-11.7,1.1c-1.9,0.1-4.2,0.5-5.6-0.4c-4.2-2.7-8.1-2.2-12.5-0.4c-5,2.1-10.3,3.3-15.2,0c-5.8-3.9-11.5-2.8-17.1,0
		c-7.1,3.5-14.6,3.9-21.5,0.5c-9.8-4.8-18.9-3.6-28.2,0.8c-7.7,3.7-15.7,2.9-23-0.5c-6.2-2.9-11.9-3.4-18.1-1.5c-3,0.9-6,1.7-9,2.8
		c-8.7,3.2-17.1,2.1-25-2.5c-5-2.8-9.9-3.4-15.1-1.4c-2.1,0.8-4.3,1.5-6.4,2.2c-8.9,2.9-17.7,3-26.3-1.2c-6.2-3.1-12.7-4.6-19.3-2
		c-9.3,3.6-18.1,3.7-27.2-1c-5.4-2.8-10.2,0.5-10.5,6.5c-0.2,2.8-0.7,5.5-0.7,8.2c-0.1,5,0,10,0,15.3c6.1-2.2,11.7-1.9,16.7,2.4
		c4,3.4,8.2,2.7,12.7,1c4.4-1.7,9-3.3,13.6-4.1c2.8-0.4,6.3,0.1,8.6,1.5c10.2,6.7,20.4,6.2,31.2,2c7.6-3,15.5-3.9,23.4-0.2
		c3.3,1.5,7.2,2.2,10.9,2.9c9.6,1.7,18.7-1.3,27.7-4c11.2-3.3,22.3-4,33.7-0.1c7.7,2.6,15.7,2,23.1-1.7c8.9-4.5,17.9-5,27.4-1.6
		c2.5,0.9,5.4,1.3,8.1,0.9c5.3-0.7,10.5-2.2,15.8-3c5-0.7,9.9-0.4,14.6,2.4c4.9,3,9.6-2.2,14.6-0.8c0.4,0.1,0.8,0.2,1.1,0.1
		c2.3-0.2,4.6-0.5,8-0.8c-1.7-1.8-2.5-2.9-3.5-3.7c-2.3-1.6-4.6-3-7-4.4c-3.8-2.3-5.2-8.9-2-10.5c3.1-1.5,6.8-1.6,10.3-2.3
		C493.8,124.2,495.2,124,496.5,123.8 M203.8,216.8c2.8-0.8,4.8-1.8,6.9-2c2.6-0.2,5.5-0.6,7.7,0.4c8.6,4.1,16.5,3.9,24.7-1.2
		c6.5-4.1,13.1-1.7,19.6,0.6c10.1,3.5,20.5,4.2,30.7,0.9c7.7-2.5,15-2.3,22.4,0.5c7.6,2.8,15.5,3.7,23.4,1.9
		c14.1-3.2,27.9-3.5,42,1.1c4.8,1.6,11.1,1.9,15.8,0.2c8.9-3.2,17.4-4.4,26.4-1.3c3.3,1.1,6.2,0.4,9.5-0.7c3.2-1.1,6.8-1.2,10.2-1.3
		c2.2-0.1,4.3,0.4,6.6,0.6c1.8-10.5,3.5-20.4,5.2-30.5c-5.3,0-9.9-0.9-14,0.2c-6.3,1.7-12.3,1.4-18.1-0.8
		c-6.9-2.6-13.2-1.4-19.7,1.3c-3.8,1.5-8,3.2-11.9,3c-9.4-0.5-18.6-2.2-28-3c-5.6-0.5-11.5-1.2-16.7,0.1c-12.2,3-24,3-36.1-0.2
		c-7.1-1.9-14.3-3-21.6-0.8c-11,3.4-21.9,3.2-32.5-0.7c-4.8-1.7-9-1.2-13.4,0.8c-5.1,2.3-10.5,3.4-16.1,1.9c-3.9-1-7.8-1.9-11.7-2.7
		c-4.7-1-9.4,2.5-9.8,7.2c-0.5,6.1-1,12.3-1.5,18.4C203.6,212.6,203.8,214.4,203.8,216.8 M400.8,371.3c-1.4-0.1-2.1-0.3-2.6-0.2
		c-6.7,1.6-12.9-0.1-19.1-2.2c-7.4-2.6-14.9-3.4-22.6-1.6c-8.7,2-16.9-0.5-25.2-2.7c-8.7-2.4-17.3-5.5-26.6-2.8
		c-13.1,3.8-25.8,1.4-37.8-3.8c-6.8-2.9-12.7-2.3-19.2,0.2c-8.7,3.3-17.6,5-26.3,0.4c-6-3.1-11.6-2.9-17.7-0.6
		c-2.4,0.9-3.4,2-3.3,4.6c0.2,9.4,0.4,18.8,0.4,28.2c0,2.7,1.7,2.7,3.5,2.5c9.2-1.1,17.9,1.2,26.6,3.7c4.1,1.2,8.6,1.6,13,1.6
		c3.6,0,7.2-0.7,10.7-1.6c7.4-1.8,14.5,0,21.6,1.6c10.4,2.3,20.6,3.6,31.1-0.3c6.6-2.5,13.5-1.8,20.4-0.1c9.5,2.3,19,2.8,28.7,1.2
		c6.2-1,13.2-1.7,18.9,0.1c10.2,3.2,20.3,0.7,31,2C395.8,393.1,397.5,382.5,400.8,371.3 M429.6,294.5c-0.1-0.4-0.2-0.9-0.3-1.3
		c-3,0-6.1-0.3-9.1,0.1c-7.4,0.9-14.6,0.1-21.4-2.7c-6.3-2.5-12.3-2.1-18.6,0.6c-3.3,1.4-7.3,2.1-10.9,1.8
		c-5.2-0.4-10.4-1.7-15.4-3.2c-7.4-2.2-14.7-2.8-22.2-0.3c-7.1,2.4-14.4,2.3-21.4-0.7c-8.6-3.7-17.3-4.2-26.1-1.2
		c-8.2,2.8-16,2.2-23.2-2c-5.8-3.3-11.3-3-17.3-0.9c-9,3.2-18.1,4.3-26.9-0.8c-0.5-0.3-1.2-0.4-1.8-0.6c-5.3-1.2-11.8,3.7-12,9
		c-0.2,4-0.2,8-0.2,12c0,3.6,0,7.2,0,10.8c0.9,0,1.4,0.1,1.7,0c6.5-3.7,12.7-2.2,18.9,1c4.6,2.3,9.5,2.8,14.6,1.2
		c10.9-3.4,21.5-4.4,32.4,1.2c7,3.6,15.3,5.1,23.1,2.5c8.8-2.9,17.3-3.6,26.2-0.7c8.7,2.8,17.6,4.2,26.6,0.8
		c0.8-0.3,1.7-0.2,2.6-0.4c9.1-1.8,17.3,1.6,25.8,3.8c2.1,0.5,4.8,0.9,6.6,0c5.5-2.6,10.9-2.2,16.5-0.7c2.6,0.7,5.4,0.7,8.2,1.2
		c2.3,0.4,3.2-0.4,4.1-2.6c3.2-7.5,6.9-14.8,12.9-20.6C425.2,299.6,427.4,297,429.6,294.5 M204.5,114.6c6.4-2.1,7.2-2.3,12.6,0.4
		c7.6,3.8,15.1,3,22.6,0.2c5.9-2.2,11.7-2.4,17.6,0.1c3.5,1.5,7,2.8,10.6,3.8c8.5,2.3,16.4-0.1,24.2-3.2c6.2-2.5,12-1.8,17.7,1.4
		c7.3,4,14.9,4.9,22.8,2.1c3-1,6-1.8,9-2.7c6.8-2.1,13.2-1.9,20.1,1.2c7.2,3.3,14.9,4,22.6,0.3c9.2-4.5,18.4-5.6,28.2-0.9
		c6.6,3.2,13.7,3.1,20.7-0.2c5-2.3,10.6-4.6,15.9-1.3c6.3,3.9,12.3,3.4,18.6,0.6c3.3-1.5,6.7-1.5,10.2,0.2c1.9,0.9,4.5,1.3,6.6,1.1
		c6.3-0.7,12.4-2.4,18.7,0.8c4,2,6,0.1,6.8-4.5c0.2-1.2,2.2-3.1,2.7-2.9c3,1,4.2-0.9,5.5-2.7c1.8-2.7,3.4-5.5,5.1-8.2
		c0.6-0.9,1.4-1.6,2.2-2.3c1.9-1.7,3.9-3.4,6.2-5.5c-4.4-0.9-10.3,2.3-10.7,6.1c-0.7,6.1-5.6,6.9-9.4,7.8
		c-6.3,1.5-12.9,1.6-19.3,2.5c-2.9,0.4-6.1,0.8-8.6,2.1c-2.4,1.3-4.4,2.1-6.5,0.4c-2.2-1.7-2.8-4.3-1.4-6.8c1.3-2.5,3.2-4.6,4.9-7
		c-4.8-4.3-10.8-5.1-16.4-2.3c-1.9,1-4.1,1.4-6.3,1.9c-1.8,0.4-3.7,0.2-5.4,0.7c-3,0.9-5.3,0.6-6.4-2.6c-0.8-2.2-2.1-2.6-4.3-2.5
		c-2.9,0.2-5.8-0.3-8.6-0.2c-3.3,0.1-6.8,0.2-9.9,1.1c-5.2,1.6-10.2,1.8-15.5,0.3c-8.4-2.3-16.7-3.2-25.2,0.3
		c-2.6,1.1-5.7,1.6-8.5,1.4c-6.7-0.5-13.5-1.1-20.1-2.4c-7.8-1.5-15.5-2.7-23,0.3c-10.2,4.2-20.1,3.3-30-0.9
		c-6.6-2.8-13.3-1.7-19.5,0.7c-9.9,3.8-19.4,4.3-29.3,0.3c-3.2-1.3-7.4-2.4-10.5-1.4c-10.6,3.2-20.7,2.9-30.9-1.1
		c-3.5-1.4-6.2,1-6.2,4.8c0,4.4-0.2,8.8-0.3,13.2C204.4,110.7,204.5,112.4,204.5,114.6 M201.2,353.3c2.6-0.6,4.7-1.5,6.9-1.6
		c3.4-0.1,7.3-0.7,10.2,0.8c9.8,5,19.4,4.1,29.1,0.1c6.7-2.8,13.2-2.8,20,0.3c11.6,5.2,23.8,7,36.4,3.7c5.9-1.5,11.9-1.5,17.9,0.1
		c6.4,1.7,12.8,3.7,19.4,4.8c4.9,0.8,10.1,1.3,14.9,0.3c7.7-1.5,14.9-0.8,22.3,1.3c4,1.1,7.9,2.5,12,3.2
		c12.5,2.1,16.7-1.6,14.5-12.5c-0.3-1.4-1.4-2.8-1.5-4.2c-0.3-2.6-0.6-5.4-0.1-7.9c0.7-3.5,2.2-6.8,3.3-10.1
		c-4.8-1.2-9.2-2.5-13.6-3.2c-2.8-0.4-6-0.8-8.5,0.2c-4.8,2-9.2,2.1-13.9,0.4c-9.9-3.6-19.9-4.4-30.2-1.5c-3.8,1.1-8.2,0.8-12.2,0.3
		c-4.7-0.6-9.4-1.8-13.9-3.2c-5.2-1.7-10.2-1.6-15.1,0.2c-11.1,4.1-21.8,2.7-32.2-2.1c-6.9-3.1-13.7-3.9-20.9-1.8
		c-9.7,2.8-19.1,3.8-28.3-1.9c-4.8-3-9.5-0.5-13.8,2.1c-0.6,0.4-1,1.4-1,2.2c-0.7,9.2-1.4,18.4-2.1,27.6
		C200.7,351.5,201,352.1,201.2,353.3 M203.5,281.4c2-0.9,3.2-1.3,4.4-1.9c3.3-1.8,6.6-2.2,10-0.3c6.8,3.8,13.9,3.9,21.2,1.7
		c2.8-0.8,5.5-1.7,8.3-2.4c4.2-1.2,8.3-1.3,12.3,1.1c6.1,3.6,12.8,5.2,19.9,3.9c4.2-0.7,8.3-2.4,12.5-2.6c5.3-0.2,11-0.3,15.8,1.4
		c8.7,3,17.1,3.9,25.8,1.3c6.4-1.9,12.6-1.4,18.9,0.2c3.3,0.9,6.6,1.7,9.9,2.4c5.9,1.3,11.9,2.5,17.7-0.2c7-3.3,14-3.1,21.2-0.5
		c6.1,2.1,12.3,3.2,18.9,2.2c3.4-0.5,7.3-0.6,10.4,0.4c4.8,1.6,7.7-0.5,10.4-3.6c2.1-2.5,4.6-5.2,5.4-8.2c1.1-4.2,0.8-8.8,1.1-14.3
		c-2.7,0.2-6-0.2-8.9,0.8c-5.5,1.8-11,1.7-16.3-0.2c-9.7-3.5-19.4-2.7-29.4-1.6c-6.7,0.7-13.8,0.4-20.5-0.7
		c-8.4-1.3-16.6-4.8-25.2-2.5c-12.6,3.5-24.8,1.9-37.1-1.8c-6.5-2-13-2.6-19.7-0.7c-9.8,2.7-19.4,3.9-28.8-1.4
		c-6.5-3.7-13.1-3.5-19.8-0.3c-7.4,3.5-14.8,3.2-22.7,0.4c-4.1-1.4-9.1-0.7-13.6-0.5c-0.8,0-2.3,1.7-2.3,2.7
		C203.4,264.3,203.5,272.4,203.5,281.4 M758.5,369.2c3.6,4.8,7,8.9,9.9,13.4c3.8,6,7.3,12.2,10.9,18.3c0.5,0.8,1.1,1.7,1.8,2
		c5.3,1.7,10.6,2.6,16.3,1.4c7.2-1.5,14.4-2.2,21.3,1.5c0.9,0.5,2.2,0.2,3.3,0.2c4.4,0.1,9.1-0.7,13.2,0.5
		c6.9,1.9,13.3,1.6,19.9-0.7c6.3-2.2,12.5-2.9,19.2-1.2c15.4,3.8,31.2,5.8,47,5.4c12.6-0.3,24.8,0.1,36.6,4.7
		c2.9,1.1,5.4,0.5,8.3-0.6c2.5-1,5.5-1,8.3-1.1c1.6-0.1,3.1,0.5,4.3,0.7c-2.7-8.3-5.3-16.5-7.9-24.6c-1.5-4.8-3.1-5.9-8.1-5.8
		c-1.9,0.1-3.7,0.5-5.6,0.8c-3.6,0.5-7.3,2-10.8,1.5c-8.9-1.3-17.6-3.6-26.5-5.3c-3.8-0.7-7.8-1.6-11.4-1c-6.4,1.1-12.7,3-18.8,5.3
		c-11,4.1-22,3.3-32.5-0.5c-9.2-3.3-17.4-1.3-25.5,2.1c-9.7,4-18.9,9.3-28.6,13.5c-3.7,1.6-8,2.5-11.9,2.4
		c-6.1-0.1-9.3-5.1-12.1-9.7c-3.3-5.6-6.4-11.4-8.8-17.4C768.4,369.5,764.6,368.4,758.5,369.2 M968.4,376.7
		c-1.1-8.4-2.3-17.3-3.5-26.2c-0.2-1.1-0.7-2.2-1.2-3.1c-1.8-3.3-4.7-3.8-7.7-1.4c-0.6,0.4-1.2,0.9-1.9,1
		c-6.9,0.7-13.7,0.7-20.1-2.8c-5.1-2.8-10.7-3.2-16.5-2.1c-7.7,1.5-15.4,2.1-23-0.5c-1.7-0.6-3.7-0.6-5.6-0.5
		c-2.5,0.1-4.1,1.2-4.4,4.1c-0.2,1.7-1,3.3-1.7,4.9c-3.4,7.9-10.2,12.5-16.8,17.2c-4.4,3.2-9,6.2-14,9.5c9.5,4.1,19.1,5.8,28.8,4.3
		c6.9-1.1,13.5-3.8,20.1-6c7.4-2.4,14.5-2.8,22,0.3c8.5,3.5,17.6,5.2,26.9,4.4C955.9,379.2,961.8,377.8,968.4,376.7 M554.9,168
		c-3.6-5.4-2.8-11-2.3-16.6c0.2-1.8,0.1-3-2.2-3.5c-5.3-1.1-6.6-4.8-3.1-9c2.3-2.8,5-5.3,7.5-7.9c3.4-3.6,3.1-7.2-1.1-10
		c-2.3-1.6-4.5-3.2-6.9-4.6c-4.2-2.5-8.6-4.6-12.7-7.2c-2.4-1.5-4.3-3.7-6.4-5.5c-2.7,3.5-5.1,6.7-7.6,9.8c-0.8,1-2.2,2.4-3.2,2.3
		c-2.5-0.2-2.8,1.4-3.5,2.9c-2,4.1-4.8,5.3-9.2,3.9c-1-0.3-2-0.7-3.1-1c0,4.9-2.6,7.8-6.2,7.5c-2.1-0.1-4.3,0.1-6.4,0.6
		c-0.9,0.2-2.2,1.2-2.2,1.9c-0.1,0.8,0.9,2,1.7,2.5c2.6,1.5,5.3,2.8,8,4.2c7.2,3.9,10.8,9.8,9.8,18.2c-0.5,4.2-0.3,8.5-0.5,12.8
		c-0.2,3.6,1.5,5.2,4.8,5.9c5.5,1.2,11,2.5,16.4,3.9c1.9,0.5,3,0.3,3.4-2c0.7-3.9,5.2-7.1,8.9-6.3
		C544.6,172.1,549.4,169.5,554.9,168 M521.5,185.2c-3.7-1.7-7-3.7-10.5-4.7c-5.7-1.6-11.2-4.8-17.4-3.7c-7.1,1.3-13.6,0.1-20.3-2.1
		c-3.5-1.1-7.3-1.2-11-1.4c-3.6-0.2-4.4,2.1-3.9,5.2c0.3,2.1,0.8,4.2,0.6,6.3c-1.2,9.4-2.6,18.8-3.8,28.3c-0.4,3.1-0.6,6.3-0.5,9.4
		c0.1,2.2,1.4,3.6,3.8,2.3c5-2.8,9.3-1.7,13.2,2.2c2.2,2.2,4.3,3.4,6.7,0.1c0.6-0.8,2.2-1,3.4-1.1c2.8-0.1,5.5-0.1,8.3,0.1
		c5.3,0.2,12-4.8,13.4-9.8C506.8,204.4,512.2,193.7,521.5,185.2 M1014.8,403.1c5.7,1.2,11.2,1.5,16,3.4c7.9,3.1,15.6,4.3,23.9,2.5
		c11.1-2.4,22.2-3.9,33.1,1.5c3.5,1.7,8.1,2.2,12.1,1.9c7.3-0.5,14.5-1.5,21.7,0.4c1.2,0.3,2.6,0,3.4,0c-1.2-6.6-2.5-12.6-3.4-18.7
		c-0.9-6.4-0.7-6.6-7-7.1c-1.4-0.1-2.9,0.4-4.3,0.7c-1.3,0.2-2.7,0.9-4,0.7c-3.8-0.6-7.7-1.1-11.2-2.3c-5.7-2-11.1-1.2-16.6,0.2
		c-6.1,1.5-12.3,1.7-18.2-0.3c-11.7-4.1-23.4-3.7-35.2-0.9c-0.8,0.2-1.9,0.5-2.3,1.1C1019.5,391.8,1015.4,397,1014.8,403.1
		 M204.2,85.4c3.6,0.8,6.9,1.1,9.9,2.2c8.5,3.2,16.8,2.7,25.4-0.2c3-1,6.9,0,10.3,0.6c2.4,0.4,4.7,1.7,7.1,2.5
		c6.6,2.2,13.4,2,19.6-0.6c10.2-4.3,20-5,30.2-0.4c5.7,2.6,11.9,2.8,17.7,0.6c10.6-4,21.1-4.7,32.1-1.5c10,2.9,20,2.6,30-0.8
		c4-1.4,8.7-1.1,13-0.7c4.1,0.3,8.1,2,12.2,2.4c3.3,0.3,6.6-0.2,9.9-0.6c3.1-0.4,6.1-1.6,9.2-1.7c4.8-0.1,9.6,0.3,14.4,0.6
		c0.7-2.7,1.4-5,2.1-7.7c-1.3-0.1-2.1-0.2-3-0.2c-9.2-0.2-18.3-0.6-27.5-0.4c-10.9,0.2-21.8,1.4-32.7,1.3
		c-13.8-0.2-27.6-1.3-41.4-2.1c-6.8-0.4-13.5-0.7-20.3-1c-4.8-0.2-9.5-0.2-14.3-0.1c-6.4,0.2-12.8,0.7-19.2,0.8
		c-10.8,0.2-21.6,0-32.4,0.2c-8.3,0.1-16.5,0.4-24.8,0.6c-7.9,0.1-15.7-0.1-23.6,0.4C203.6,79.6,203.1,80.9,204.2,85.4 M812.7,562.6
		c-0.6,1.5-1.3,3.3-1.9,5c-0.6,1.7-1.1,3.5-1.7,5.3c-2.1,6.2-7.2,9-12.8,11.2c-4.2,1.6-8.1,3.6-10.4,7.6c-1.6,2.8-2.8,5.7,0.7,8.2
		c0.6,0.4,1,1.5,1.1,2.3c0.5,5.5,0.9,11-1.3,16.3c-3.3,7.6-5.6,15.3-2.5,23.6c1,2.6,2.1,6.3,3.9,6.9c1.9,0.6,5-1.7,7.3-3.3
		c1.3-0.9,2.2-2.7,3-4.2c1.5-2.8,2.8-5.6,4-8.5c5.6-12.9,11.1-25.8,16.6-38.6c1.5-3.6,3.2-7.1,4.5-10.7c1.1-3.3,1.3-6.7-1.1-9.6
		C819.2,570.3,816.2,566.8,812.7,562.6 M731,258.6c-3.4-5.3-7.9-7.1-14-5.3c-8.3,2.5-16.6,4.1-25.1,1.6c-6.4-1.9-12.5-0.6-18.4,1.6
		c-4.3,1.6-8.3,0.6-12.5-0.4c-3.7-1-7.5-1.5-11.3-2c-4.6-0.6-9.6,0-13.9-1.5c-4.3-1.6-8.2-3.5-12.9-2.5c-9,1.9-17.9,1.6-26.7-1.5
		c-2-0.7-4.5-0.4-6.7,0.1c-1.2,0.3-2.2,1.7-3.3,2.7c1,1,1.8,2.5,3,3c6.4,2.3,12.5,4.8,17.8,9.5c3.5,3.1,7.8,5.4,12.1,7.6
		c5.2,2.7,9.6,0.5,11.6-5c0.5-1.5,1.5-2.9,2.7-3.9c6.5-5.5,13.9-5,21.3-2.5c7.7,2.6,15.2,7.6,22.9,7.7c7.9,0.1,16,3.8,23.8,0.1
		c0.2-0.1,0.5-0.1,0.7,0c4.9,0.4,9.7,1,14.6,1.3c1.9,0.1,4.3,0,5.6-1.1C725.3,265.3,727.9,262,731,258.6 M748.6,600.2
		c-1.8,0.1-2.7,0.1-3.5,0.3c-8.2,1.6-17.2,7.4-13,19.1c1.5,4.1,2.2,8.5,2.9,12.8c0.4,2.4,1.5,2.4,3.5,2.6c3.9,0.3,7.8,1.3,11.7,1.9
		c2.5,0.4,5.1,1.2,7.6,1c5.6-0.3,11.2-1.2,16.8-1.5c2-0.1,2.4-0.8,2.7-2.6c0.9-4.9,2.2-9.7,3.4-14.5c0.8-3.3,2.1-6.5,2.6-9.8
		c0.6-3.8-0.6-4.9-4.5-4.9c-2.9,0-5.8,0.2-8.6,0.4c-5.8,0.3-11.5-0.1-16.6-3.4C751.8,600.6,749.7,600.5,748.6,600.2 M1033,377.7
		c1.2,0.1,1.8,0.3,2.4,0.2c7.9-1.9,15.4-0.1,22.9,2.2c7.5,2.3,15,1.8,22.6,0.1c4-0.9,8.4-0.2,12.6-0.1c2.4,0.1,4.8,0.6,7.3,1
		c1.1-5.2,2.1-9.8,2.9-14.5c0.5-2.9-0.1-5.8-2.7-7.3c-4.1-2.3-8.6-2.8-13.1-1.6c-5.1,1.3-10.4,1.2-14.7-1.3
		c-5.9-3.4-11.5-3.4-17.2-1.2c-3,1.1-5.9,3.1-8.3,5.3c-2.9,2.7-5.1,6.1-7.7,9.2C1037.8,372.2,1035.5,374.7,1033,377.7 M560.9,198.2
		c-2.5-0.7-4.9-1.7-7.4-1.8c-2.6-0.2-5.4-0.2-7.8,0.7c-4.5,1.6-8.8,1.2-13.2-0.2c-4.7-1.5-10.9,0.2-12.8,3.6
		c-2.1,3.8-3.7,7.8-5.6,11.8c8.1,1.7,15.4,2.8,22.8-0.2c1.3-0.5,3.2-0.7,4.4-0.1c9.3,4.9,20.2,1.5,29.6,5.4c0.3,0.1,0.8,0.1,1.1,0
		c4.6-0.8,9.2-1.1,14-1.1c6.9,0.1,13.4-0.6,18,3.9c0.5-2.1,0.7-4.6,1.7-6.7c1.9-4.3,0.4-8.4-3.9-9.8c-2.4-0.8-4.9-1.3-7.1-2.5
		c-4.4-2.3-8.8-2.4-13.5-1.4c-2,0.4-3,0.9-3,3.3c0,1.9-0.6,4.5-1.9,5.8c-4,3.8-9,3.1-15.4-1.2c-4.3-2.9-0.6-6-0.1-9
		C560.9,198.7,560.9,198.5,560.9,198.2 M832.9,304.7c-0.4,0.3-0.7,0.7-1.1,1c1.6,2.7,2.7,6.1,5,7.9c2.4,1.9,6,2.4,9.2,3.2
		c3.7,0.9,7,0.9,10.6-1.7c5.6-4.2,8.5-3.2,13.4,2.2c1,1.1,2.2,2.1,3.3,3.1c3.9,3.9,8.3,7.3,9.7,13.1c0.5,2.2,1.9,3.1,4.5,2.7
		c2.7-0.4,5.6-0.6,8.1,0.3c6.2,2.1,12.5,2.1,18.6,0.6c8.6-2.1,16.4-0.6,24,3.2c2.1,1.1,4.6,1.3,7,2c0.3-0.4,0.6-0.9,0.8-1.3
		c-3.6-3.6-7.2-7.1-10.8-10.7c-8.4-8.1-18.2-9.7-29.3-7c-15.1,3.6-27.8-1.5-39.3-11.2c-1.8-1.5-4.3-2.9-6.6-3.1
		c-6.5-0.7-13.2-0.6-19.7-1c-1.4-0.1-2.9-0.8-4.2-1.4C834.9,306,833.9,305.3,832.9,304.7 M559.3,459.5c-2.2-2.7-5.6-3-9.1-3.4
		c-4.1-0.5-8.5-0.6-11.1-4.5c-3.2-4.9-7.6-6.7-13.2-5.6c-2.6,0.5-5.2,0.9-7.8,1.3c-12.5,1.7-25.1,3.5-37.6,5.1
		c-3.3,0.4-6.8,0.1-10.2,0.1c-0.1,0.6-0.1,1.1-0.2,1.7c5.9,1.5,11.8,3.2,17.7,4.3c3.7,0.7,7.8,1.3,11.2,0.3
		c11.6-3.2,22.5-2.4,33.5,2.3c2.4,1.1,5.4,1.6,8,1.4C546.8,461.9,553,460.6,559.3,459.5 M515.8,89.7c-2.2-3-3.9-5.6-5.9-8
		c-0.5-0.7-1.5-1.5-2.3-1.5c-5.6-0.3-11.3-0.6-16.9-0.5c-3.3,0-5.1,2.5-4.8,5.9c0.2,2.5-0.5,4.4-3.1,5.4c-0.7,0.3-1.4,0.8-2.6,1.5
		c1.8,0.9,3,1.5,4.1,2.1c3.9,2.3,4,4.6,0.4,7.3c-1,0.7-1.9,1.6-2.9,2.3c0.2,0.3,0.3,0.6,0.5,0.9c8.7-1.1,17.3-2.2,26-3.3
		c2.5-0.3,5.7-1.2,5.1-3.8C512.6,94,513.8,91.3,515.8,89.7 M562.7,192.2c0.3-3.8,0.6-7,1-10.2c0.3-2.2,1.4-3.2,3.8-3.2
		c7.7-0.1,10.5,2.8,10.5,11.6c0,5.6,1.4,6.4,6.7,3.6c-3.8-6.5-7.2-13.1-11.4-19.3c-3.6-5.3-9-5.5-14.9-2.5c-4,2-8.6,3-13,4.1
		c-2.8,0.7-5.8,0.5-7,4.2c-0.4,1.2-2.6,1.7-3.8,2.7c-2.7,2.3-5.4,4.8-8.7,7.7c3.4,0.4,5.5,0.2,7.2,0.9c3.6,1.5,7,1.1,10.6,0.4
		c4-0.7,8.1-0.7,12.2-0.8C558.2,191.4,560.5,192,562.7,192.2 M611.8,222.3c4,0.5,8,0.4,11.5,1.6c4.8,1.7,9.4,2.2,14.2,0.5
		c1.7-0.6,2.1-1.3,2.1-3.2c0.1-6.7-4.4-10.6-8.4-14.8c-2.3-2.4-4.2-2.3-7,0.1c-2.3,2-4.1,3.5-4.5,6.8c-0.2,1.9-2.1,3.6-3.5,5.2
		C614.8,220,613.2,221.2,611.8,222.3 M763.3,363.1c-3.9-7.9-7.6-15.8-11.5-23.6c-1.3-2.5-6.1-3.7-9.5-2.6c0.6,1.5,1,3,1.8,4.4
		c2.9,5.4,5.9,10.7,8.8,16.2C755.5,362.9,756.6,363.5,763.3,363.1 M450.1,92.8c3.9-1.1,7.8-1.8,11.2-3.4c2.6-1.2,4.9-3.4,6.8-5.7
		c1.5-1.8,1.2-3.9-2-4c-3.5-0.1-7-0.4-10.5-0.4c-1,0-2.6,0.4-2.9,1.1C451,84.3,448.8,88.1,450.1,92.8 M604.4,173.8
		c1.9,5.2,5.5,8.8,12.1,14c3.5,2.7,6.2,6.4,9.5,9.3c1.1,1,3.2,2,4.3,1.6c2.5-0.8,3.1-7.6,0.8-9.2c-2.4-1.7-5-3.3-7.8-4.2
		c-5.8-1.9-11.8-3.3-15.7-8.7C607,175.7,605.9,175.1,604.4,173.8 M1140.3,461.1c-0.1-1-0.2-1.8-0.2-2.5c-0.2-7.4-0.2-7.4-7.2-9.4
		c-0.1,0-0.2-0.1-0.4-0.1c-4.1-2-7.9-0.7-12,1.1C1127.1,453.9,1133.5,457.4,1140.3,461.1 M747.3,329.9c-1.9-4.6-1.4-10.9-8.8-11.2
		c-1,0-1.9-1.2-2.9-1.7c-0.8-0.3-1.7-0.3-3.3-0.6c1.4,3,2.4,5.3,3.4,7.5c3.2,7.1,3.2,7.1,10.9,6.5
		C746.7,330.4,746.8,330.3,747.3,329.9 M1091.5,350.9c-2-3.1-3.8-5.9-5.5-8.5c-5,2.8-9.2,5.2-14,7.9
		C1078.7,354.2,1084.8,353.1,1091.5,350.9 M809.5,409.3h-28.6c1.7,2.8,2.9,5.2,7.2,5.6C796.1,415.6,802.5,411.9,809.5,409.3
		 M521.8,80.5c3.4,2.8,5.2,7.4,10.6,6.4c3.9-0.7,6.5-2.4,8.5-8C534.4,79.5,528.1,80,521.8,80.5 M569.1,185.6
		c-0.4,0.1-0.8,0.2-1.2,0.2c-0.1,1.1-0.5,2.2-0.2,3.3c1,5-0.6,9.3-2.7,13.7c-0.5,1.1-0.2,2.7-0.2,4c1.4,0,3.1,0.5,4.1-0.1
		c1.1-0.7,2.3-2.3,2.3-3.6c0.1-3.5-0.3-6.9-0.7-10.4C570.2,190.3,569.6,188,569.1,185.6 M835.2,298.5c-4.5-3.9-8.5-7.5-12.7-10.9
		c-0.6-0.5-1.8-0.1-2.7-0.1c0.2,0.9,0,2,0.5,2.6c1.7,2.1,3.8,3.9,5.4,6.1C828.1,299.1,830.8,300,835.2,298.5 M666.1,209.8
		c0.7,1.9,1.9,3.5,1.8,5.1c-0.2,4.5,2.9,4.9,6,5.8C673.8,211,671.9,208.3,666.1,209.8 M474.2,89.4c5,0.1,7.6-3.9,5.9-10.4
		c-1.6,1.2-4.6-1.6-5.1,2.3C474.6,83.8,474.5,86.5,474.2,89.4 M727.7,304.1c-0.5,9.3,6.7,5.5,10.5,7.3
		C735.8,307.6,732.6,305,727.7,304.1 M600.2,227.3c0.2-0.5,0.5-0.9,0.7-1.4c-2.9-1.6-5.9-3.3-8.9-4.8c-0.5-0.2-1.7,0.3-2.2,0.8
		c-0.3,0.3-0.1,1.7,0.2,1.9C593.3,225.5,596.1,228.5,600.2,227.3 M679.7,200.7c-3.8,1.5-8-1-11.3,2.8
		C675.4,207.5,676.7,207.2,679.7,200.7"/>
	<path class="st2" d="M744.9,160.3c3.7,2.7,7.2,5.5,11.1,8c6.2,3.9,10.8,8.8,11.8,16.5c0.8,6-1.1,9.6-7.2,10.5
		c-11,1.7-22.2,1.6-32.7-2c-8.4-2.9-16.5-3.2-25-1.3c-7.9,1.7-13.5-0.5-17.3-6.3c-3.4-5.1-2.7-13.8,1.3-19.5c3.1-4.4,6-9,8.8-13.6
		c1.9-3.1,4.5-4.4,7.9-4.8c5.5-0.6,12.8,3.2,15.3,8.1c0.5,0.9,0.9,1.8,1.5,2.6c1.7,2.4,3.7,3.4,6.2,0.9c0.6-0.6,1.3-1.2,2-1.7
		c2.4-1.7,2.6-3.2,0.3-5.3c-1.2-1.1-2.4-2.9-2.4-4.4c-0.1-1.6,0.9-4.1,2-4.6c6-2.5,12-5.6,18.8-4.1c1.9,0.4,3.9,1.7,5.1,3.2
		c1.3,1.6,1.3,3.5-1,5.1c-1.3,0.9-1.9,2.9-2.5,4.5c-0.9,2.4-1.4,4.9-2.1,7.4C746,159.6,745.5,160,744.9,160.3 M748.8,190.8
		c0.7,0,2,0,3.2,0c1.3,0,2.6,0.2,3.8-0.1c2.3-0.5,4.6-1,6.8-2c1.9-0.9,1.9-7.6,0.1-7.8c-4.5-0.6-8.9-4.1-13.8-1.2
		c-3.2,1.9-6.6,1.4-9.8-0.1c-6.8-3.3-13.9-4-21.3-2.7c-5.1,0.9-10.2,1-15.1-1.6c-1.7-0.9-3.9-0.9-5.8-0.9c-2.3,0-5-0.2-5.5,3.2
		s1.5,5.5,4.3,6.1c4.6,0.9,9.4,1.1,14.1,1.6c3.8,0.4,7.8,0.2,11.4,1.4C730.2,189.4,739,191.3,748.8,190.8 M696.4,168.6
		c2,0.4,4.1,0.2,5.4,1.1c5.4,3.4,11.1,2.7,16.8,1.8c6.5-1,13-0.7,18.8,2.1c5.9,3,10.8,0.9,16.4-1.2c-3.6-2.7-6.6-5.7-10.3-7.3
		c-2.7-1.2-7-1.9-9.3-0.6c-7.3,4.1-14,0.5-20.6-1c-3.1-0.7-5.9-1.6-9.3-1.6C699.3,161.9,697.5,164.4,696.4,168.6 M736.6,147.4
		c0.8,4.4,1.6,8.3,2.4,12.6c0.8-2.2,0.9-4.5,1.8-4.9c5.6-2.2,2.8-7.1,3.8-11C741.9,145.3,739.2,146.4,736.6,147.4 M703,155.4
		c0.2,0.6,0.4,1.1,0.7,1.7c4.4-1.8,8.3-1.5,12,2.9c-0.8-4.6-3.5-7-7.8-7.1C706.3,152.9,704.7,154.5,703,155.4"/>
	<path class="st2" d="M840.8,191.5c0.3-2.7,0.4-4.5,0.7-6.2c0.7-3.2,2.8-3.9,5.1-1.6c3.8,3.9,6.3,8.5,5.9,14.1
		c-0.1,1.4-1.6,2.7-2.6,4c-0.3,0.3-0.9,0.4-1.4,0.6c-7.8,2.9-8.3,5.4-2.9,12c2.5,3.1,4.7,6.8,6.1,10.6c2.3,6.2-2.8,11.6-9.3,10.1
		c-5.2-1.2-10.4-2.8-15.6-4c-4.6-1.1-7.2-4.5-9.5-8.1c-2.2-3.4-0.8-9,3.5-11.9c6.2-4.2,6.8-9.1,2.8-15.5
		c-3.9-6.1-8.4-11.8-12.6-17.7c-2.4-3.4-4.8-6.7-6.7-10.4c-2.3-4.4-1.1-7.2,3.4-9.4c6.1-2.9,10.8-7.5,15.6-12.2
		c3.7-3.8,8.5-5.1,13.8-2.8c5.5,2.4,7.4,7.7,3.8,12.7c-2.7,3.7-6,6.9-9.3,10.2c-2.5,2.5-2.9,4.6,0.1,6.4c6.4,3.8,8.4,9.5,8,16.6
		c0,0.5,0.1,1,0.2,1.5C839.9,190.4,840,190.5,840.8,191.5 M809.8,167.4c4.3,5.4,8.4,10.5,12.6,15.6c0.3,0.4,1.1,0.5,1.7,0.5
		c3.7,0,7.3,0,11,0c0.3-0.3,0.6-0.7,0.9-1c-1.2-1.8-2.2-3.8-3.6-5.5c-2-2.4-4.3-4.7-6.4-7c-0.7-0.8-1.4-1.7-2.3-2.3
		C819.6,165,815.3,164.8,809.8,167.4 M826.4,189.1c4.2,7.6,8,14.7,3.8,22.9c3.7,1,7,1.9,11.1,3c-0.9-1.7-1.2-2.5-1.6-3.3
		c-4.3-8.3-3.2-10.8,5.7-13.8c3.5-1.2,3.8-4.7,1.5-7.2c-2,2.2-3.9,6.3-6,6.4c-4.6,0.3-4.9-4.7-6-8.1h-8.5V189.1z M842.2,231.1
		c2.9-0.2,5.8-2.6,6-5.1c0.2-2.8-2.1-5.3-4.8-5.9c-3.2-0.7-6.2-2.1-9.4-2.4c-2.4-0.2-5,0.8-7.5,1.3c1,2.6,1.2,6.5,3.1,7.7
		C833.3,229.1,838,229.8,842.2,231.1 M820.6,160.9c5.2,3.6,12.5,0.3,14.6-6.4C827.5,151.8,827.5,151.6,820.6,160.9"/>
	<path class="st2" d="M667.7,236.8c-4.1-1.6-8.6-1.7-12.6,0.8s-4,7.6,0.2,9.9c1.4,0.8,8.4,1,9.5,0.2c2.4-1.8,6.4-1.5,6.3-6.3
		C671.4,240.7,669.2,237.4,667.7,236.8 M666.8,242c-0.1,0.1-0.9,0.4-1.4,0.6c-0.7,0.3-1.6,0.7-2.5,1.2c-0.3,0-0.9,0.1-1.8,0.1
		c-1.9,0-3.4-0.2-4-0.3c-0.3-0.2-0.7-0.6-0.8-1.1c0-0.5,0.4-1,1-1.4c1.4-0.9,2.9-1.3,4.6-1.3c1.3,0,2.6,0.3,4.1,0.8
		c0.3,0.2,0.7,0.7,0.9,1.1C666.8,241.9,666.8,242,666.8,242"/>
	<path class="st2" d="M1024.8,438.9c-0.7,1.3-1.4,4.3-2.9,4.9c-1.8,0.7-4.6-0.3-6.6-1.3c-2.1-1-3.9-2.7-5.8-4.1
		c-3.6-2.6-4.3-5.9-2.1-9.8c2.9-5.1,7.1-7.1,11.3-5.5c2.6,0.9,4.1,2.5,4.4,5.4C1023.3,431.6,1024,434.8,1024.8,438.9 M1016.9,435.8
		c-1.2-2.4-2.3-4.9-3.6-7.5C1009.8,432.1,1010.7,434.2,1016.9,435.8"/>
</g>
<g class="st3">
	<path class="st1" d="M594,103.1v2.3c0,0.4-0.1,0.7-0.4,1c-0.2,0.2-0.6,0.4-1,0.4h-7.2v6.3c0,0.4-0.1,0.7-0.4,1
		c-0.2,0.2-0.6,0.4-1,0.4h-2.7c-0.4,0-0.7-0.1-1-0.4c-0.2-0.2-0.4-0.6-0.4-1V93.8c0-0.4,0.1-0.7,0.4-1c0.2-0.2,0.6-0.4,1-0.4H593
		c0.4,0,0.8,0.1,1,0.4c0.2,0.2,0.4,0.6,0.4,1v2.7c0,0.4-0.1,0.7-0.4,1c-0.2,0.2-0.6,0.4-1,0.4h-7.7v3.9h7.2c0.4,0,0.8,0.1,1,0.4
		C593.9,102.3,594,102.6,594,103.1z"/>
	<path class="st1" d="M600.4,114.4h-2.7c-0.4,0-0.8-0.1-1-0.4c-0.2-0.2-0.4-0.6-0.4-1V93.8c0-0.4,0.1-0.7,0.4-1
		c0.2-0.2,0.6-0.4,1-0.4h7.2c1.6,0,2.9,0.1,3.9,0.3s1.8,0.6,2.5,1.1c0.6,0.5,1.1,1.2,1.3,2s0.4,1.9,0.4,3.1v0.6c0,2.7-1,4.7-2.9,5.8
		l2.7,7.2c0.2,0.4,0.1,0.8-0.1,1.1s-0.5,0.5-1,0.5h-3.1c-0.7,0-1.1-0.3-1.3-1l-2.4-6.8h-3.2v6.5c0,0.4-0.1,0.8-0.4,1
		C601.1,114.3,600.8,114.4,600.4,114.4z M604.9,97.2h-3.2v4.9h3.2c1,0,1.7-0.2,2.1-0.5c0.4-0.3,0.6-0.9,0.6-1.8v-0.4
		c0-0.9-0.2-1.5-0.6-1.8C606.6,97.3,605.9,97.2,604.9,97.2z"/>
	<path class="st1" d="M620,113.3c-0.1,0.4-0.2,0.6-0.5,0.8c-0.2,0.2-0.5,0.3-0.9,0.3h-2.5c-0.4,0-0.8-0.1-1-0.4
		c-0.2-0.3-0.3-0.6-0.2-1.1l5.1-19.3c0.1-0.3,0.2-0.6,0.5-0.8c0.2-0.2,0.5-0.3,0.9-0.3h5.7c0.3,0,0.6,0.1,0.9,0.3
		c0.2,0.2,0.4,0.5,0.5,0.8l5.1,19.3c0.1,0.4,0,0.8-0.2,1.1s-0.6,0.4-1,0.4h-2.5c-0.4,0-0.7-0.1-0.9-0.3c-0.2-0.2-0.4-0.5-0.5-0.8
		l-0.8-3.3H621L620,113.3z M626.6,106.1L624.1,96l-2.4,10.1H626.6z"/>
	<path class="st1" d="M652.2,114.4h-2.5c-0.6,0-1-0.2-1.3-0.7l-8-11.9v11.3c0,0.4-0.1,0.7-0.4,1c-0.2,0.2-0.6,0.4-1,0.4h-2.3
		c-0.4,0-0.7-0.1-1-0.4c-0.2-0.2-0.4-0.6-0.4-1V93.8c0-0.4,0.1-0.7,0.4-1c0.2-0.2,0.6-0.4,1-0.4h2.6c0.5,0,1,0.2,1.3,0.7l8.1,11.4
		V93.8c0-0.4,0.1-0.7,0.3-1c0.2-0.2,0.6-0.4,1-0.4h2.3c0.4,0,0.8,0.1,1,0.4c0.2,0.2,0.4,0.6,0.4,1V113c0,0.4-0.1,0.7-0.4,1
		C653,114.3,652.6,114.4,652.2,114.4z"/>
	<path class="st1" d="M665.3,114.5c-3.4,0-5.9-0.8-7.4-2.3c-1.6-1.5-2.3-4-2.3-7.5v-2.8c0-6.4,3.3-9.6,9.8-9.6c6,0,9.2,2.5,9.7,7.6
		c0,0.1,0,0.2,0,0.3c0,0.2,0,0.3,0,0.3c0,0.4-0.1,0.7-0.3,0.9c-0.2,0.2-0.5,0.3-0.9,0.3H671c-0.4,0-0.7-0.1-0.9-0.3
		s-0.3-0.5-0.4-0.9c-0.1-0.4-0.1-0.6-0.1-0.6c-0.2-1-0.7-1.8-1.4-2.2c-0.7-0.4-1.7-0.7-2.9-0.7c-1,0-1.9,0.1-2.5,0.4
		c-0.6,0.3-1.1,0.8-1.4,1.6c-0.3,0.7-0.5,1.8-0.5,3v2.4c0,1.8,0.3,3.1,1,3.9c0.7,0.8,1.8,1.1,3.4,1.1c1.3,0,2.3-0.2,3-0.7
		s1.1-1.4,1.3-2.6c0-0.1,0.1-0.2,0.1-0.5c0.1-0.8,0.5-1.2,1.3-1.2h2.9c0.4,0,0.7,0.1,0.9,0.3s0.3,0.5,0.3,0.9l-0.1,0.6
		c-0.2,2.8-1.1,4.8-2.7,6.1C670.7,113.9,668.4,114.5,665.3,114.5z"/>
</g>
<g class="st3">
	<path class="st1" d="M693.1,114.4h-11.7c-0.4,0-0.7-0.1-1-0.4c-0.2-0.2-0.4-0.6-0.4-1V93.8c0-0.4,0.1-0.7,0.4-1
		c0.2-0.2,0.6-0.4,1-0.4h11.7c0.4,0,0.8,0.1,1,0.4c0.2,0.2,0.4,0.6,0.4,1v2.3c0,0.4-0.1,0.8-0.4,1c-0.2,0.2-0.6,0.4-1,0.4h-7.7v3.3
		h7.2c0.4,0,0.8,0.1,1,0.4c0.2,0.2,0.4,0.6,0.4,1v1.9c0,0.4-0.1,0.7-0.4,1c-0.2,0.2-0.6,0.4-1,0.4h-7.2v4h7.7c0.4,0,0.8,0.1,1,0.4
		c0.2,0.2,0.4,0.6,0.4,1v2.3c0,0.4-0.1,0.7-0.4,1C693.9,114.3,693.6,114.4,693.1,114.4z"/>
</g>
<rect x="848.1" y="517.6" class="st4" width="223.9" height="34"/>
<g class="st3">
	<path class="st1" d="M869.7,546.1h-1.3c-0.7,0-1.1-0.3-1.3-1l-5.4-14.6v14.3c0,0.4-0.1,0.7-0.4,1c-0.2,0.2-0.6,0.4-1,0.4h-2.5
		c-0.4,0-0.7-0.1-1-0.4c-0.2-0.2-0.4-0.6-0.4-1v-19.2c0-0.4,0.1-0.7,0.4-1c0.2-0.2,0.6-0.4,1-0.4h5.4c0.7,0,1.1,0.3,1.3,1l4.5,12.1
		l4.6-12.1c0.2-0.7,0.7-1,1.3-1h5.3c0.4,0,0.7,0.1,1,0.4c0.2,0.2,0.4,0.6,0.4,1v19.2c0,0.4-0.1,0.7-0.4,1c-0.2,0.2-0.6,0.4-1,0.4
		h-2.4c-0.4,0-0.8-0.1-1-0.4s-0.3-0.6-0.3-1v-14.3l-5.5,14.6C870.8,545.8,870.3,546.1,869.7,546.1z"/>
	<path class="st1" d="M888.6,545c-0.1,0.4-0.2,0.6-0.5,0.8c-0.2,0.2-0.5,0.3-0.9,0.3h-2.5c-0.4,0-0.8-0.1-1-0.4
		c-0.2-0.3-0.3-0.6-0.2-1.1l5.1-19.3c0.1-0.3,0.2-0.6,0.5-0.8s0.5-0.3,0.9-0.3h5.7c0.3,0,0.6,0.1,0.9,0.3s0.4,0.5,0.5,0.8l5.1,19.3
		c0.1,0.4,0,0.8-0.2,1.1s-0.6,0.4-1,0.4h-2.7c-0.4,0-0.7-0.1-0.9-0.3c-0.2-0.2-0.4-0.5-0.5-0.8l-0.8-3.3h-6.7L888.6,545z
		 M895.3,537.9l-2.5-10.1l-2.4,10.1H895.3z"/>
</g>
<g class="st3">
	<path class="st1" d="M914.1,546.1h-7.5c-0.4,0-0.7-0.1-1-0.4c-0.2-0.2-0.4-0.6-0.4-1v-19.2c0-0.4,0.1-0.7,0.4-1
		c0.2-0.2,0.6-0.4,1-0.4h7.5c1.8,0,3.3,0.2,4.5,0.6c1.2,0.4,2.2,1,3,1.8s1.3,1.9,1.7,3.1c0.3,1.2,0.5,2.7,0.5,4.5v2
		c0,1.8-0.2,3.2-0.5,4.5s-0.9,2.2-1.7,3.1c-0.8,0.8-1.8,1.4-3,1.8C917.4,545.9,915.9,546.1,914.1,546.1z M914.1,528.9h-3.4v12.5h3.4
		c1.1,0,1.9-0.2,2.5-0.5c0.6-0.3,1.1-0.9,1.4-1.7s0.5-1.9,0.5-3.4v-1.4c0-1.1-0.1-2-0.3-2.7c-0.2-0.7-0.4-1.3-0.8-1.7
		c-0.4-0.4-0.8-0.7-1.4-0.9C915.4,528.9,914.9,528.9,914.1,528.9z"/>
	<path class="st1" d="M928.3,545c-0.1,0.4-0.2,0.6-0.5,0.8c-0.2,0.2-0.5,0.3-0.9,0.3h-2.5c-0.4,0-0.8-0.1-1-0.4s-0.3-0.6-0.2-1.1
		l5.1-19.3c0.1-0.3,0.2-0.6,0.5-0.8c0.2-0.2,0.5-0.3,0.9-0.3h5.7c0.3,0,0.6,0.1,0.9,0.3c0.2,0.2,0.4,0.5,0.5,0.8l5.1,19.3
		c0.1,0.4,0,0.8-0.2,1.1s-0.6,0.4-1,0.4h-2.5c-0.4,0-0.7-0.1-0.9-0.3c-0.2-0.2-0.4-0.5-0.5-0.8l-0.8-3.3h-6.7L928.3,545z M935,537.9
		l-2.5-10.1l-2.4,10.1H935z"/>
</g>
<g class="st3">
	<path class="st1" d="M960,542.2c-0.2,0.6-0.5,1.1-0.9,1.6c-0.4,0.5-0.8,0.9-1.4,1.3c-0.6,0.4-1.2,0.7-2.1,0.9
		c-0.8,0.2-1.7,0.3-2.7,0.3c-3.2,0-5.6-0.8-7.1-2.3s-2.2-4.1-2.2-7.6v-3c0-3.1,0.8-5.4,2.4-7c1.6-1.6,4-2.4,7.4-2.4
		c3,0,5.2,0.6,6.9,1.7c1.6,1.1,2.5,2.7,2.8,4.8c0,0.1,0.1,0.4,0.1,0.9c0,0.4-0.1,0.7-0.3,0.9c-0.2,0.2-0.5,0.3-0.9,0.3h-2.9
		c-0.5,0-0.8-0.1-1-0.2c-0.2-0.1-0.3-0.4-0.4-0.8c-0.1-0.3-0.1-0.5-0.2-0.6c-0.3-0.7-0.7-1.2-1.4-1.6c-0.7-0.3-1.6-0.5-2.8-0.5
		c-1,0-1.9,0.1-2.5,0.4c-0.6,0.3-1.1,0.8-1.4,1.6c-0.3,0.7-0.5,1.8-0.5,3v2.4c0,1.8,0.3,3.1,1,3.9c0.7,0.8,1.8,1.1,3.4,1.1
		c0.5,0,1,0,1.4-0.1c0.4-0.1,0.8-0.2,1.2-0.3s0.7-0.3,0.9-0.6c0.2-0.2,0.4-0.6,0.6-1s0.2-0.9,0.2-1.5v-0.2h-3.1
		c-0.4,0-0.7-0.1-0.9-0.3c-0.2-0.2-0.3-0.5-0.3-0.9v-1c0-0.4,0.1-0.8,0.4-1c0.2-0.2,0.6-0.4,1-0.4h7.1c0.4,0,0.8,0.1,1,0.4
		c0.2,0.2,0.4,0.6,0.4,1v9.6c0,0.7-0.3,1-1,1H962c-0.4,0-0.6-0.1-0.8-0.2c-0.2-0.1-0.3-0.3-0.4-0.7L960,542.2z"/>
</g>
<g class="st3">
	<path class="st1" d="M970.7,545c-0.1,0.4-0.2,0.6-0.5,0.8c-0.2,0.2-0.5,0.3-0.9,0.3h-2.5c-0.4,0-0.8-0.1-1-0.4s-0.3-0.6-0.2-1.1
		l5.1-19.3c0.1-0.3,0.2-0.6,0.5-0.8c0.2-0.2,0.5-0.3,0.9-0.3h5.7c0.3,0,0.6,0.1,0.9,0.3c0.2,0.2,0.4,0.5,0.5,0.8l5.1,19.3
		c0.1,0.4,0,0.8-0.2,1.1s-0.6,0.4-1,0.4h-2.5c-0.4,0-0.7-0.1-0.9-0.3c-0.2-0.2-0.4-0.5-0.5-0.8l-0.8-3.3h-6.7L970.7,545z
		 M977.4,537.9l-2.5-10.1l-2.4,10.1H977.4z"/>
</g>
<g class="st3">
	<path class="st1" d="M995.8,532.9c3,0.2,5.1,0.7,6.3,1.7c1.2,1,1.9,2.6,1.9,4.8v0.2c0,2.2-0.8,3.9-2.4,5c-1.6,1.1-3.9,1.7-7,1.7
		c-3,0-5.3-0.5-6.8-1.6s-2.4-2.6-2.5-4.7c0,0,0-0.1,0-0.3s0-0.2,0-0.3c0-0.3,0.1-0.6,0.3-0.8c0.2-0.2,0.5-0.3,0.9-0.3h2.9
		c0.4,0,0.8,0.1,0.9,0.2c0.2,0.1,0.3,0.4,0.4,0.8c0,0.1,0.1,0.3,0.1,0.5c0.2,0.7,0.7,1.2,1.3,1.5s1.5,0.5,2.6,0.5
		c1.3,0,2.3-0.2,2.9-0.5c0.6-0.3,1-0.8,1-1.5v-0.1c0-0.3,0-0.6-0.1-0.8c-0.1-0.2-0.2-0.4-0.4-0.6c-0.2-0.2-0.5-0.3-0.9-0.4
		c-0.4-0.1-0.9-0.2-1.4-0.3s-1.3-0.2-2.2-0.3c-1.5-0.1-2.8-0.3-3.8-0.6s-1.8-0.6-2.5-1.1s-1.2-1.1-1.5-1.8s-0.4-1.7-0.4-2.7v-0.2
		c0-2.2,0.8-3.9,2.3-5s3.9-1.7,7-1.7c2.9,0,5.1,0.5,6.6,1.6c1.6,1,2.4,2.5,2.6,4.4c0.1,0.2,0.1,0.4,0.1,0.6c0,0.3-0.1,0.6-0.3,0.8
		c-0.2,0.2-0.5,0.3-0.9,0.3h-2.9c-0.5,0-0.8-0.1-1-0.2c-0.2-0.1-0.3-0.4-0.4-0.8c-0.1-0.3-0.1-0.5-0.2-0.6c-0.6-1.1-1.8-1.6-3.8-1.6
		c-2.6,0-3.9,0.7-3.9,2v0.1c0,0.5,0.1,0.9,0.4,1.2c0.2,0.3,0.8,0.5,1.5,0.7C993.2,532.7,994.3,532.9,995.8,532.9z"/>
</g>
<g class="st3">
	<path class="st1" d="M1015.8,546.2c-3.4,0-5.9-0.8-7.4-2.3c-1.6-1.5-2.3-4-2.3-7.5v-2.8c0-6.4,3.3-9.6,9.8-9.6c6,0,9.2,2.5,9.7,7.6
		c0,0.1,0,0.2,0,0.3c0,0.2,0,0.3,0,0.3c0,0.4-0.1,0.7-0.3,0.9c-0.2,0.2-0.5,0.3-0.9,0.3h-2.9c-0.4,0-0.7-0.1-0.9-0.3
		s-0.3-0.5-0.4-0.9c-0.1-0.4-0.1-0.6-0.1-0.6c-0.2-1-0.7-1.8-1.4-2.2s-1.7-0.7-2.9-0.7c-1,0-1.9,0.1-2.5,0.4
		c-0.6,0.3-1.1,0.8-1.4,1.6c-0.3,0.7-0.5,1.8-0.5,3v2.4c0,1.8,0.3,3.1,1,3.9c0.7,0.8,1.8,1.1,3.4,1.1c1.3,0,2.3-0.2,3-0.7
		s1.1-1.4,1.3-2.6c0-0.1,0.1-0.2,0.1-0.5c0.1-0.8,0.5-1.2,1.3-1.2h2.9c0.4,0,0.7,0.1,0.9,0.3c0.2,0.2,0.3,0.5,0.3,0.9l-0.1,0.6
		c-0.2,2.8-1.1,4.8-2.7,6.1C1021.2,545.6,1018.9,546.2,1015.8,546.2z"/>
</g>
<g class="st3">
	<path class="st1" d="M1031.3,545c-0.1,0.4-0.2,0.6-0.5,0.8c-0.2,0.2-0.5,0.3-0.9,0.3h-2.5c-0.4,0-0.8-0.1-1-0.4
		c-0.2-0.3-0.3-0.6-0.2-1.1l5.1-19.3c0.1-0.3,0.2-0.6,0.5-0.8c0.3-0.2,0.5-0.3,0.9-0.3h5.7c0.3,0,0.6,0.1,0.9,0.3s0.4,0.5,0.5,0.8
		l5.1,19.3c0.1,0.4,0,0.8-0.2,1.1c-0.2,0.3-0.6,0.4-1,0.4h-2.5c-0.4,0-0.7-0.1-0.9-0.3c-0.2-0.2-0.4-0.5-0.5-0.8l-0.8-3.3h-6.7
		L1031.3,545z M1038,537.9l-2.5-10.1l-2.4,10.1H1038z"/>
</g>
<g class="st3">
	<path class="st1" d="M1051.4,546.1h-2.7c-0.4,0-0.8-0.1-1-0.4c-0.2-0.3-0.4-0.6-0.4-1v-19.2c0-0.4,0.1-0.7,0.4-1s0.6-0.4,1-0.4h7.2
		c1.6,0,2.9,0.1,3.9,0.3s1.8,0.6,2.5,1.1c0.6,0.5,1.1,1.2,1.3,2c0.2,0.8,0.4,1.9,0.4,3.1v0.6c0,2.7-1,4.7-2.9,5.8l2.7,7.2
		c0.2,0.4,0.1,0.8-0.1,1.1c-0.2,0.3-0.5,0.5-1,0.5h-3.1c-0.7,0-1.1-0.3-1.3-1l-2.4-6.8h-3.2v6.5c0,0.4-0.1,0.8-0.4,1
		C1052.1,546,1051.8,546.1,1051.4,546.1z M1055.9,528.9h-3.2v4.9h3.2c1,0,1.7-0.2,2.1-0.5c0.4-0.3,0.6-0.9,0.6-1.8V531
		c0-0.9-0.2-1.5-0.6-1.8C1057.6,528.9,1056.9,528.9,1055.9,528.9z"/>
</g>
<g>
	<g class="st3">
		<path class="st5" d="M539.4,390.8c-0.1,0.4-0.3,0.7-0.5,0.9s-0.6,0.3-1,0.3H535c-0.5,0-0.9-0.2-1.2-0.5c-0.3-0.3-0.3-0.7-0.2-1.2
			l5.9-22.3c0.1-0.4,0.2-0.7,0.5-0.9c0.3-0.2,0.6-0.3,1-0.3h6.5c0.4,0,0.7,0.1,1,0.3c0.3,0.2,0.5,0.5,0.5,0.9l5.9,22.3
			c0.1,0.5,0,0.9-0.2,1.2c-0.3,0.3-0.6,0.5-1.2,0.5h-2.9c-0.4,0-0.8-0.1-1-0.3s-0.5-0.5-0.5-0.9l-0.9-3.8h-7.8L539.4,390.8z
			 M547,382.6l-2.8-11.7l-2.8,11.7H547z"/>
		<path class="st5" d="M573.1,379.1v2.7c0,0.5-0.1,0.9-0.4,1.1c-0.3,0.3-0.7,0.4-1.2,0.4h-8.3v7.3c0,0.5-0.1,0.9-0.4,1.1
			c-0.3,0.3-0.7,0.4-1.1,0.4h-3.1c-0.5,0-0.9-0.1-1.1-0.4c-0.3-0.3-0.4-0.7-0.4-1.1v-22.2c0-0.5,0.1-0.9,0.4-1.1
			c0.3-0.3,0.7-0.4,1.1-0.4h13.5c0.5,0,0.9,0.1,1.2,0.4c0.3,0.3,0.4,0.7,0.4,1.1v3.1c0,0.5-0.1,0.9-0.4,1.1
			c-0.3,0.3-0.7,0.4-1.2,0.4h-8.9v4.5h8.3c0.5,0,0.9,0.1,1.2,0.4C572.9,378.2,573.1,378.6,573.1,379.1z"/>
		<path class="st5" d="M580.3,392.1h-3.1c-0.5,0-0.9-0.1-1.2-0.4c-0.3-0.3-0.4-0.7-0.4-1.2v-22.1c0-0.5,0.1-0.9,0.4-1.1
			c0.3-0.3,0.7-0.4,1.2-0.4h8.3c1.8,0,3.3,0.1,4.5,0.4c1.2,0.3,2.1,0.7,2.8,1.3c0.7,0.6,1.2,1.4,1.5,2.4c0.3,0.9,0.4,2.2,0.4,3.6
			v0.7c0,3.2-1.1,5.4-3.3,6.7l3.1,8.3c0.2,0.5,0.2,0.9-0.1,1.3c-0.2,0.4-0.6,0.5-1.1,0.5h-3.5c-0.8,0-1.3-0.4-1.5-1.2l-2.8-7.9h-3.7
			v7.4c0,0.5-0.1,0.9-0.4,1.2C581.2,392,580.8,392.1,580.3,392.1z M585.5,372.3h-3.6v5.7h3.6c1.1,0,1.9-0.2,2.4-0.5s0.7-1,0.7-2.1
			v-0.5c0-1-0.2-1.7-0.7-2.1C587.4,372.5,586.6,372.3,585.5,372.3z"/>
		<path class="st5" d="M601.6,392.1h-3.1c-0.5,0-0.9-0.1-1.1-0.4c-0.3-0.3-0.4-0.7-0.4-1.1v-22.2c0-0.5,0.1-0.9,0.4-1.1
			c0.3-0.3,0.7-0.4,1.1-0.4h3.1c0.5,0,0.9,0.1,1.1,0.4c0.3,0.3,0.4,0.7,0.4,1.1v22.2c0,0.5-0.1,0.9-0.4,1.1
			C602.5,392,602.1,392.1,601.6,392.1z"/>
		<path class="st5" d="M626.2,393.7h-5.1c-0.5,0-0.9-0.1-1.1-0.4c-0.3-0.3-0.4-0.7-0.4-1.1v-0.1c-0.9,0.2-1.9,0.3-3,0.3
			c-3.8,0-6.6-1-8.5-2.9c-1.9-1.9-2.8-4.7-2.8-8.3V378c0-3.6,0.9-6.3,2.8-8.3c1.9-1.9,4.7-2.9,8.5-2.9s6.6,1,8.5,2.9
			c1.9,1.9,2.8,4.7,2.8,8.3v3.2c0,3.4-1,6-3.1,7.9h1.5c0.5,0,0.9,0.1,1.2,0.4c0.3,0.3,0.4,0.7,0.4,1.1v1.6c0,0.5-0.1,0.8-0.4,1.1
			C627,393.5,626.7,393.7,626.2,393.7z M621.6,380.9v-2.8c0-1.5-0.2-2.7-0.6-3.5c-0.4-0.9-0.9-1.5-1.7-1.8c-0.7-0.3-1.7-0.5-2.9-0.5
			s-2.2,0.2-2.9,0.5c-0.7,0.3-1.3,0.9-1.6,1.8c-0.4,0.9-0.6,2-0.6,3.5v2.8c0,1.5,0.2,2.7,0.6,3.5c0.4,0.9,0.9,1.5,1.6,1.8
			c0.7,0.3,1.7,0.5,2.9,0.5s2.2-0.2,2.9-0.5c0.7-0.3,1.3-0.9,1.7-1.8C621.4,383.6,621.6,382.4,621.6,380.9z"/>
		<path class="st5" d="M650.9,380.3c0,1.8-0.1,3.3-0.4,4.6c-0.2,1.3-0.6,2.4-1.1,3.4c-0.5,0.9-1.2,1.7-2,2.3c-0.8,0.6-1.8,1-3,1.3
			s-2.5,0.4-4.1,0.4c-2,0-3.6-0.2-4.9-0.6s-2.4-1.1-3.2-2c-0.8-1-1.4-2.2-1.8-3.7c-0.4-1.5-0.5-3.4-0.5-5.6v-12
			c0-0.5,0.1-0.9,0.4-1.2c0.3-0.3,0.7-0.4,1.1-0.4h3.1c0.5,0,0.9,0.1,1.1,0.4c0.3,0.3,0.4,0.7,0.4,1.2v11.5c0,1.7,0.2,3,0.5,4
			s0.8,1.7,1.4,2.1c0.6,0.4,1.4,0.6,2.4,0.6s1.8-0.2,2.5-0.6c0.6-0.4,1.1-1.1,1.4-2.1s0.5-2.3,0.5-4v-11.5c0-0.5,0.1-0.9,0.4-1.2
			c0.3-0.3,0.6-0.4,1.1-0.4h3.1c0.5,0,0.9,0.1,1.2,0.4s0.4,0.7,0.4,1.2V380.3L650.9,380.3z"/>
		<path class="st5" d="M668.2,392.1h-13.5c-0.5,0-0.9-0.1-1.1-0.4c-0.3-0.3-0.4-0.7-0.4-1.1v-22.2c0-0.5,0.1-0.9,0.4-1.1
			c0.3-0.3,0.7-0.4,1.1-0.4h13.5c0.5,0,0.9,0.1,1.2,0.4s0.4,0.7,0.4,1.1v2.7c0,0.5-0.1,0.9-0.4,1.1c-0.3,0.3-0.7,0.4-1.2,0.4h-8.9
			v3.8h8.3c0.5,0,0.9,0.1,1.2,0.4c0.3,0.3,0.4,0.7,0.4,1.1v2.2c0,0.5-0.1,0.9-0.4,1.1c-0.3,0.3-0.7,0.4-1.2,0.4h-8.3v4.6h8.9
			c0.5,0,0.9,0.1,1.2,0.4s0.4,0.7,0.4,1.1v2.7c0,0.5-0.1,0.9-0.4,1.1C669.1,392,668.7,392.1,668.2,392.1z"/>
	</g>
</g>
<g>
	<g>
		<path class="st6" d="M593.9,122.1c0,9.3-4.1,16-17.6,17"/>
		<g>
			<polygon class="st1" points="582.1,133.8 577.2,139.1 582.5,143.9 578.2,144.1 572.9,139.2 577.8,134 			"/>
		</g>
	</g>
</g>
<g>
	<g>
		<path class="st6" d="M875.5,559.8c0,7.7-4.8,25.1-29.9,26.6"/>
		<g>
			<polygon class="st1" points="851.4,581 846.5,586.3 851.8,591.2 847.5,591.4 842.2,586.5 847.1,581.2 			"/>
		</g>
	</g>
</g>
</svg>
