<?xml version="1.0" encoding="utf-8"?>
<!-- Generator: Adobe Illustrator 19.1.0, SVG Export Plug-In . SVG Version: 6.00 Build 0)  -->
<svg version="1.1" id="Calque_1" xmlns="http://www.w3.org/2000/svg" xmlns:xlink="http://www.w3.org/1999/xlink" x="0px" y="0px"
	 viewBox="-151 80.9 976.9 640.1" style="enable-background:new -151 80.9 976.9 640.1;" xml:space="preserve">
<style type="text/css">
	.st0{fill:#6DA0C0;}
	.st1{fill:#80BA40;}
	.st2{fill:none;}
	.st3{enable-background:new    ;}
	.st4{fill:#6EA2C2;}
	.st5{fill:none;stroke:#80BA40;stroke-width:3;stroke-miterlimit:10;}
	.st6{fill:#FFFFFF;stroke:#80BA40;stroke-width:3;stroke-miterlimit:10;}
</style>
<g>
	<path class="st0" d="M651.3,133.7l-20.5-2.3l-25.6-4.6l-18.2,4.6l-5.6,23l-4.5,21.4l-37.1,22.6L515,224.7L499.4,265l8.2,18.3
		l-17.1,26.9L468.6,321l-23.3,20.3l-42.7,3.7l-23.8,13.2l-17.1,3l-21-16.2l-17.5-16.1l-27.3,7.8l-16-5.2l0.6-19.2v-14.7l-14.8-19.9
		l9.1-12.6l12.7-26.6v-24.4l-7.5-28.4l1.5-20.4l-7.2-27.8l17.8-4.2l14.1-14.6h17l33.3,5.6l64.8,7.2l38.3-2.9l9.1-19.9l4.7-20H335.6
		L35.8,92.1l-36.6,3.1l3,70.1l1.7,70.1l-6.8,73l6.3,86l-6.3,125.4l2.1,74.2l3.5,81.3l-0.4,38.3l23.5,2.3l90.2-2.3l13.6-27.3
		l10.4-33.8l19.9-14l8-15.6l10-17.7l30.1-5l31.2-25.2l15.6-32.1l0.5-39.1l28.1-42.4l29.5-20.1l25.5-29.2l13.9-30.3l3.8-3.1h14.5
		l23.4,12.4l27.3-5.4l27.1,7.6l51.1-21.3l35.7-21.7l32.7-2.7l24.9-2.6l21.4-6.2l25.8,3.1l30.7-8.5l10.8,2.8v-70.6V124.5L651.3,133.7
		z M52.9,613.3c-0.8,0-2-0.5-2.3-1.2s-0.1-2.2,0.4-2.6c2.3-1.5,6.3-6.3,8.2-4.4C61,607,56.5,613.3,52.9,613.3z M71.4,598
		c3.7,0.2,5.2,2.3,5.9,6.5C72.3,603.2,72.3,603.2,71.4,598z M90.4,597.7c-1.4,1.1-3.3,1.3-4.6-0.5c-1.2-1.7-0.6-3.3,0.5-4.7
		c2.4-3,8.5-4.4,12.9-2.4C96.2,592.8,93.4,595.4,90.4,597.7z M115.6,607.8c-6,0.3-1.3-9.8,2.7-9.8S121,607.5,115.6,607.8z
		 M165,577.5c-3.9,2.5-6.4,5.8-6.9,10.6c-0.3,3.6-2.1,6.4-6.4,8.5c1-3.1,1.9-5.4,2.5-7.8s0.6-5,1.5-7.2c2.2-5.3,6.3-7.4,12-6.4
		C166.6,576.2,165.9,577,165,577.5z M545.4,274.5c-2.1,1.6-4.4,2.1-6.3,1.9c-1.2,0-1.8,0-2.4,0c-3,0-4.5-1.7-4.2-4.7
		s3.9-6.6,6.7-6.7c4-0.2,6.9,2.1,7.7,5.9C547.1,272.4,546.7,273.5,545.4,274.5z M584.8,254.9c-1.7,2-3.9,3.8-6.2,5
		c-3.6,1.9-4.6,1.2-6.5-2.6c-0.8-1.6-7-1.8-8.5-0.5c-0.3-0.3-0.5-0.5-0.8-0.8c1.1-1.7,2-3.7,3.4-5.2c4.6-5.2,12-6.2,17.7-2.6
		C585.9,249.5,586.6,252.8,584.8,254.9z M598.3,239.9c6.1-4.3,10.2-3.7,15.4,2C608.3,243.3,603.4,242.3,598.3,239.9z"/>
	<g>
		<path d="M683.7,483.5c0.5,22.6,1.2,45.2,1.5,67.8c0.1,8-1.1,16.1-1.4,24.1c-0.9,24.1-2.5,48.2-1.9,72.4c0.4,14.2,1.7,56.5,0.4,60
			c-0.6,1.5-0.3,3.3-0.2,5c0.1,2.4-1.1,3.8-3.4,3.6c-6.1-0.5-12.1-1.3-18.2-1.8c-16.2-1.2-32.4-1.7-48.7-1.5
			c-19.7,0.3-39.4-0.3-59-1.2c-23.5-1.1-46.9-1.5-70.4,1.9c-12.6,1.8-25.5,2.1-38.3,2.5c-20.1,0.5-40.1,0.4-60.2,0.8
			c-16.1,0.3-32.1,1.4-48.1,1.7c-15.7,0.3-31.4,0-47-0.1c-18.9,0-37.8-0.1-56.7,0.1c-5.3,0.1-10.6,1.1-16,1.6
			c-1.3,0.1-2.6,0.4-4,0.5c-16.6,0.9-118.3-2.1-139.7-1.7c-15.4,0.3-44.4-0.5-60.5-1.7c-1.3-0.1-2.7-0.2-4-0.4c-7.5-0.8-7.9-0.7-9-8
			c-0.7-5.2,0-10.7-0.1-16c-0.5-14.3-1-28.7-1.8-43c-0.7-13.2-2.2-26.4-2.6-39.6c-0.5-14.7-0.5-29.5-0.3-44.2
			c0.2-17.2,0.8-34.5,1.5-51.7c0.9-19.3,2.4-38.6,3.1-58c0.7-16.3,0.6-32.6,1-48.8c0.2-10,1-19.9,0.7-29.9
			c-0.3-10.1-1.8-20.2-2.6-30.3c-0.6-8.2-0.9-16.4-1.3-24.6c-1-20.6,2.8-40.9,3.2-61.4c0.2-11.3,1.2-22.6,2-33.8
			c0.8-10.7,1.3-21.4,0.4-32.1c-1.4-18.3-2.6-36.7-3.7-55c-0.5-8.2-0.1-16.5-0.3-24.7c-0.1-4.8-0.5-9.6-0.9-14.3
			C-3.5,95.1-3,90.8,3.6,89.5c5.8-1.1,11.7-1.9,17.6-2.3c16.2-0.9,32.4,1.6,48.6,1c13.6-0.5,27.1-1.4,40.7-1.5
			c23.5-0.2,47,0.3,70.5,0.2c21.4-0.1,42.8-0.3,64.2-1c20.2-0.7,40.5-2.1,60.7-3c8.2-0.4,16.4-0.3,24.6-0.5
			c17.6-0.5,35.2-1.4,52.7-1.5c13.7-0.1,27.5,1.1,41.2,1.1c24.5,0,48.9,1.4,73.4,1.5c19.3,0,38.6,1.5,57.9,2.1
			c23.7,0.8,47.3-1,71-0.2c13.9,0.5,27.9,0.1,41.9,0.4c3.9,0.1,9.9-0.9,13.9-0.2c3.1,0.5,4,2.6,3.7,5.4c-0.3,3.6-1.5,20.6-1.8,24.2
			c-4.1,23.6-4.2,40.4-3.6,66.3c0.5,20.1-0.2,40.3-0.2,60.4c0,6.7,0.6,13.4,0.7,20.1c0,10-0.3,19.9-0.3,29.9c0,6.3,0.5,12.6,0.7,19
			c0.1,4.4,0.3,8.8,0.2,13.2c-0.2,13-1.1,26.1-0.7,39.1c0.8,21.6-0.5,43.3,1.3,64.9c1.5,18.3,1.2,36.8,1.6,55.2
			C684.1,483.5,683.9,483.5,683.7,483.5z M673.1,338.8c-7.7-0.6-14.4,1.4-20.8,4.4c-5.3,2.5-10.5,5-16.5,4.1
			c-6.5-0.9-13-1.8-19.3-3.4c-7.2-1.8-13.8-0.7-20.2,2.3c-8.9,4.2-17.9,6.4-27.9,5.8c-16.3-0.9-31.9,2-46,10.7
			c-5.4,3.3-10.6,7-16.1,10.2c-2.9,1.7-6.2,3-9.4,4.2c-3,1.2-6.3,1.9-9.3,3.2c-7.4,3.2-14.7,6.7-22,10.1c-3.6,1.7-7.3,3.2-10.4,6.3
			c3.8,3.2,5.3,7,5.8,11.7c0.8,7.8,0.1,15.4-0.9,23c-1,8.1-1.1,16,2.4,23.8c2,4.5,5.6,7.2,8.8,10.5c3.7,3.7,4.1,6.4,1.4,10.8
			c-1.7,2.8-3.9,5.3-5.4,8.2c-1.6,3.1-3.9,4.1-7.1,3.8c-5.6-0.5-11.1-1.1-16.6-1.7c-3.4-0.4-6.8-1.1-9.9,1
			c2.1,7.5-0.2,11.2-7.6,12.6c-1.1,0.2-2.3,0.2-3.4,0.6c-2.5,0.9-5.1,1.7-7.3,3.1c-4.3,2.8-4.3,5.5-0.4,8.9
			c3.7,3.3,4.4,7.1,1.8,11.3c-3.5,5.6-8.4,9.7-15.2,10.4c-5,0.5-8.5,3-11.8,6.4c-5.7,5.7-11.6,11.2-17.6,16.6
			c-4,3.6-8.8,5.4-14.2,5.8c-6.9,0.6-13.8,1.1-20.7,1.6c-14.2,1-27,6.1-38.7,13.9c-6.2,4.2-10.7,9.9-11,18
			c-0.2,5.6-0.8,11.1-1.3,16.7c-0.3,3,1.4,4.5,3.7,5.9c3.3,1.9,6.6,4,9.8,6.1c8,5.3,16,10.7,23.9,16.2c5.1,3.5,10.2,7,15.1,10.6
			c7.3,5.4,14.3,11.2,21.8,16.2c16,10.7,32.3,21,48.5,31.4c11,7.1,11,7,24.2,6.4c34.3-1.5,68.5-3.5,102.9-2.7
			c23.9,0.5,47.8,0.9,71.7,1.4c20.2,0.4,40.4,0.9,60.7,1.4c1.6,0,3.3-0.2,5.3-0.3c0-2.7,0-4.8,0-6.9c-0.1-13.3-0.6-26.6-0.3-39.9
			c0.5-24.9,1.6-49.7,2.1-74.5c0.2-12.1-0.6-24.3-0.5-36.4c0.1-13.3,0.6-26.6,1.1-39.9c0.8-22.6-0.5-45.1-2-67.6
			c-1.1-16.7-2.2-33.4-1.5-50.2c0.6-15.4,0.5-30.8,0.7-46.2C673.5,343,673.3,341.1,673.1,338.8z M576.8,163.1
			c-2.1-0.3-3.6-0.7-5.1-0.6c-8.7,0.4-16.7-2-24.7-5.1c-3.9-1.5-8.1-2.5-12.3-2.8c-10.9-0.8-21.9-1.5-32.9-1.4
			c-12.5,0.1-23.2-3.4-31.2-13.2c-4.3-5.4-9.6-6.3-15.9-5.6c-6.7,0.8-13.5,1.4-20.1,1c-20.8-1.2-41.5-2.8-62.2-4.4
			c-5.2-0.4-10.3-1.3-15.4-2.3c-9-1.9-17.9-4.6-27-6.2c-5.4-0.9-11.1-0.7-16.7-0.2c-5.1,0.4-9.8,2.6-12.6,7.2c-3.1,4.9-7,7.7-13.1,8
			c-5.8,0.3-8.5,3.9-8.2,9.7c0.2,3.2,1.1,6.4,1.9,9.5c1.1,4.3,2.4,8.5,3.5,12.7c0.4,1.6,0.5,3.3,0.8,5.5c2.3-1.4,4-2.6,5.8-3.5
			c5.2-2.8,8.2-1.8,10.7,3.4c3.2,6.8,3.2,6.8,10.3,4.7c2.8-0.8,5.5-1.9,8.2-2.7c2.6-0.8,5.2-1.9,7.8-1.9c5.1,0,10.7,0,13.9,5.1
			c6.2,10,6.1,13.3-1.8,21.9c-4.7,5.2-6.7,10.9-7.3,17.7c-0.7,8.4-1.9,16.8-2.8,25.3c-0.4,3.4-1.5,6.4-4.2,8.6
			c-2.2,1.7-2.2,3.9-1.7,6.2c0.2,0.9,0.7,1.8,1,2.7c3.3,9.1,6.1,18.2,2.7,28.1c-0.7,2.1,0,4.9,0.5,7.4c1,5.6,1.5,11-0.6,16.5
			c-1.1,3-1.9,6.2-2.9,9.8c1.3,1.2,2.7,2.5,4.1,3.8c3.5,3.2,7.2,6.4,10.5,9.8c5.4,5.5,10.6,11.1,15.9,16.8c3.1,3.3,6.6,4.6,10.9,2.9
			c3.5-1.4,7-3,10.4-4.8c4.2-2.3,8.2-5,12.5-7.2c9.2-4.6,19.4-4.4,29.3-5.5c7.8-0.9,15.7-1.4,23.5-2.5c5.4-0.8,10.2-3.3,13.6-8
			c1.7-2.3,3.9-4.3,5.8-6.5c3.5-3.9,7.5-7,12.8-8.4c4.1-1,7.8-3.2,10.4-6.8c3.9-5.2,7.6-10.6,11.9-15.5c7.3-8.4,7.6-9.5,0.1-17.7
			c-2.7-3-4.4-6.4-4.6-10.3c-0.3-6.7,1-13,4.6-18.8c7.3-11.8,14.5-23.6,22.1-35.2c3-4.6,6.5-9.2,10.8-12.7
			c7.2-5.8,15.1-10.6,23.6-14.4c5.8-2.6,11.3-5.8,16.7-9.1C573.7,171.9,577,168.9,576.8,163.1z M468.5,471.5
			c-1.5-1.6-2.4-3.1-3.8-4.1c-3.5-2.4-5.4-5.9-7.1-9.6c-4-8.5-4.2-17.4-3.3-26.6c0.7-6.9,0.8-13.8,1.5-20.7
			c0.5-5.7-3.4-8.8-6.8-11.9c-1.4-1.3-4.6-0.7-6.9-1.1c-2.4-0.5-4.9-0.9-7.2-1.8c-14.6-5.7-11.5-6.2-28-0.3
			c-8.7,3.2-17.6,3.5-25.3-2.6c-4.6-3.6-10.1-6.5-13.1-12c-0.3-0.6-1-1.2-1.7-1.5c-4.7-1.8-11.1,1.2-12.6,6.1
			c-3.2,10.8-7.6,21-13.8,30.4c-9.2,13.7-19.3,26.4-34.2,34.5c-13.9,7.6-25.4,17.9-34.8,30.7c-10.5,14.4-15,30.1-12.5,47.9
			c1.1,8.1,0.5,16.1-2.9,23.8c-4.2,9.4-9.7,17.9-16.4,25.7c-3.1,3.6-6.1,7.7-10,10.3c-6.1,4.1-11.8,8.6-17,13.8
			c-2.6,2.6-5.8,3.7-9.3,4.1c-4.8,0.5-9.6,0.9-14.3,1.6c-8.6,1.3-15,5.7-17.9,14.3c-1.2,3.5-2.4,7-3,10.5c-1,6.6-4.6,10.7-10.6,13.3
			c-3.5,1.5-6.9,3.4-10.3,5.2c-2.8,1.5-4.9,3.7-5.9,6.8c-0.9,2.8-1.6,5.5-2.4,8.3c-3.5,11.2-7,22.4-10.7,33.5
			c-1.2,3.7-3.1,7.2-5.1,11.6c25.2-1.9,49.4,4.5,74.1,0.5c0-1.4-0.1-2.5,0-3.6c1.3-13.2,2.6-26.4,3.9-39.6
			c0.8-8.4,2.7-11.3,11.2-12.5s17.2-1.4,25.9-1.7c11.5-0.4,23.1-0.5,34.6-0.8c0.8,0,1.5-0.3,2.3-0.4c2.5-0.3,3.7-1.8,3.9-4.2
			c0.4-4,1.1-8,1.3-12.1c0.5-12.9,1-25.8,1.3-38.7c0.2-7.6,1.9-14.6,7.7-19.9c3-2.7,6.2-5.3,9.6-7.3c14.1-8.1,29.3-12.7,45.7-12.2
			c13.7,0.4,24.6-4.9,33.6-14.9c2.3-2.6,4.8-5,7.1-7.6c3.9-4.2,8.3-7.1,14.4-7.5c6.1-0.4,11.7-6,12.6-11.6c-0.5-0.4-1.1-1-1.7-1.4
			c-6.6-4.1-5.1-10.6-1.4-14.8c3.4-3.9,8-6,13.1-6.6c2.3-0.3,4.7-0.1,6.1-2.9c-0.6-1-1.3-2.1-2-3.2c-2.5-4.2-1.9-5.8,2.7-7.1
			c5.3-1.5,10.7-1.1,16-0.4c4.4,0.6,8.8,1,13.2,1c1.5,0,3.6-0.7,4.4-1.9C465.1,477.7,466.6,474.6,468.5,471.5z M8.5,400.2
			c3.7-1.1,6.4-1.6,8.8-2.6c9.3-3.8,18.5-2.1,26.9,1.9c12.1,5.8,24.5,6.2,37.2,3.8c7.9-1.5,15.8-3.5,23.7-5.1
			c16.2-3.2,32.3-5.4,48.5-0.1c2.4,0.8,4.8,1.4,7.3,1.8c10.4,1.9,20.8,4.3,31.3,5.4c13,1.3,25.6-2,38.1-5.4
			c15.7-4.3,31.7-6.9,48-4.6c7.4,1.1,14.6,3.3,22,4.9c9.2,2,18.3,5,27.5-0.1c1.6-0.9,3.7-0.8,5.7-1c2.7-0.2,5.3-0.3,8.1-0.5
			c0.5-1,1-1.9,1.3-2.7c2.5-5.8,4.8-11.7,7.4-17.5c0.8-1.8,2.2-4.2,3.8-4.8c4.1-1.5,8.5-2.5,12.9-2.9c4.7-0.4,9.2,0.6,12.4,4.8
			c1.3,1.7,3.1,2.9,4.4,4.5c4.3,5.3,10.2,6.7,16.6,6.4c3.2-0.1,6.6-0.8,9.5-2.1c9.1-3.9,17.9-3.6,26.8,0.7c0.3,0.2,0.7,0.3,1.1,0.4
			c9.2,4,18,2.6,26.5-2.3c1.8-1.1,3.6-2.3,5.5-3.1c10.8-4.7,21.5-9.3,32.3-13.8c8.4-3.5,15.7-8.6,22.5-14.7
			c-1.7,0.2-3.4,0.7-4.6,1.7c-2.5,2-5.3,2.4-8.2,2.1c-5-0.4-10-0.7-14.9-1.5c-9.7-1.5-19.2-1.3-28.5,2.2
			c-12.6,4.8-25.5,5.3-38.7,3.6c-7.4-1-14.9-2-22.4-2.4c-9.8-0.5-19.7-0.5-28.2,5.8c-1.2,0.9-2.8,1.3-4.3,1.6
			c-3.8,0.7-7.7,0.8-11.4,1.7c-2.7,0.6-4.3-0.4-6.2-2c-1.8-1.6-3.9-3.7-6.1-4c-7.6-1.1-15.3-2-23-2c-9.5,0.1-18.8-0.8-28-3.2
			c-10-2.6-19.8-1.4-29.6,1.6c-4.2,1.3-8.6,2.5-12.9,2.4c-8.4-0.2-16.9-1.2-25.3-2c-8.6-0.9-17.2-2.2-25.9-0.6
			c-4.7,0.9-9.5,1.5-14.3,2.1c-9,1.2-18,1.9-27-0.2c-6-1.4-12-3-17.8-4.8c-10.6-3.2-21.2-2.8-32-0.5c-12.8,2.7-25.7,5-38.5,7.5
			c-8,1.5-15.7,0.8-23.3-2.1c-4.7-1.8-9.5-3.3-14-5.5c-11.2-5.3-22.1-2-33.8,0C6.6,368.9,7.5,383.9,8.5,400.2z M7,450.2
			c3.1-0.8,5.1-1.3,7.1-1.7c6.8-1.6,13.7-2,20.6-0.1c4.6,1.3,9.3,2.6,13.9,3.9c9.7,2.8,19.5,5,29.6,3.6c11.2-1.5,22.6-2.8,33.5-5.8
			c22.2-6.1,44.2-7.3,66.7-1.8c16.2,3.9,32.4,3.7,48.5-1.3c14.7-4.6,29.5-4.6,44.5-1.5c4.7,1,9.5,1.4,14.3,1.8c5,0.4,9.4-1,13.5-4.1
			c3.8-2.9,7.8-5.6,11.8-8.3c9.1-6,16.4-13.9,22.8-22.7c1.6-2.2,2.7-4.8,4.3-7.7c-5.1-0.7-9.2-0.4-13.2,1.3c-2.1,0.9-4.5,2-6.6,1.7
			c-8.6-1.2-17.3-2-25.5-4.4c-14.4-4.3-28.9-4.8-43.5-2.5c-13.8,2.2-27.4,6.2-41.2,8.4c-7.5,1.2-15.4,1.3-22.9,0.4
			c-9.7-1.2-19.3-3.7-28.8-5.9c-11.9-2.6-23.6-5-36-3c-13.1,2.1-26.1,4.9-39,7.7c-12.4,2.7-24.8,1.9-36.7-3.6
			c-11.8-5.4-23.9-5.1-36,0.3C8.2,419.7,7.6,434.4,7,450.2z M346.7,356.4c-0.8-2.1-0.8-2.7-1.2-3.1c-5.1-4.9-10.1-10-15.4-14.7
			c-3.7-3.3-7.9-3.6-12.9-2.3c-7.2,1.9-14.7,3-22.1,3.9c-3.3,0.4-6.9-0.4-10.2-1.3c-4.2-1.2-7.8-4.1-8.7-8.4
			c-1.3-6.1-3.6-12.3-1.5-18.8c0.4-1.1-0.2-2.5-0.3-4.3c-2.4,0.2-4.5,0.3-6.5,0.7c-5.7,1.1-11.3,1.2-17.1-0.3
			c-18.2-4.7-36.2-4.8-54.6,0.5c-15.6,4.5-31.7,4.7-47.5-2.1c-7.3-3.1-15.6-4.1-23.5-5.4c-10.9-1.8-21.3,1.7-31.8,4
			c-7.3,1.6-14.7,3-22.2,3.5c-12.6,1-24.9-0.5-36.9-4.8c-10.6-3.8-20.8-0.8-31.2,2.6c-0.1,2.2-0.5,4.1-0.3,6c1,11.7,2,23.4,3.1,35.1
			c0,0.3,0.5,0.6,1,1.1c0.7-0.1,1.7-0.2,2.5-0.4c12.9-3.6,25.3-3.1,37.5,3.3c10.3,5.4,21.7,6.6,33.2,4.4c8.1-1.5,16.2-3.3,24.3-4.9
			c6.8-1.4,13.5-3,20.4-4c12-1.7,23.4,1.4,34.6,5.1c10.8,3.5,21.5,3.9,32.5,2.1c10.6-1.7,21.2-4,32.1-2.6c8.8,1.1,17.6,1.7,26.4,2.9
			c7.2,1,14.2,0.4,21-2.2c10.4-4,21-4.1,31.8-1.4c4.7,1.1,9.4,2.5,14.1,2.8C326.6,354,336.3,352.6,346.7,356.4z M3.7,503.1
			c2.6-0.6,4-1,5.5-1.2c5.1-0.7,10.3-2.3,15.3-1.8c8,0.7,15.9,2.9,23.8,4.4c5.1,1,10.2,2,15.3,2.6c15.2,1.9,29.9-0.7,44.5-4.5
			c12.8-3.3,25.7-5.2,38.9-3.2c8.9,1.4,17.9,2.9,26.7,4.7c12.2,2.5,24.3,3,36.6-0.4c11.1-3.1,22.4-3.7,33.7-1
			c2.5,0.6,5.2,0.5,7.8,0.8c8.1-18.9,16.3-37.2,33.8-50c-1.9-0.7-2.7-1.2-3.5-1.3c-4.7-0.8-9.5-1.5-14.2-2.2
			c-13.6-2.1-27.1-2.4-40.5,1.9c-6.7,2.1-13.9,2.9-21,3.7c-11,1.2-21.9-0.5-32.6-2.8c-14.1-3-28.2-4.5-42.4-1.8
			c-10.8,2.1-21.4,4.7-32.1,7.1c-10.4,2.4-20.9,3.1-31.5,3c-9.6-0.2-18.6-3.2-27.5-6.1c-11.6-3.8-22.6-2.7-34.4,1.6
			C5.1,471.5,4.4,486.8,3.7,503.1z M467.1,92.4c-2.5-0.1-55.7-6.1-220.2-0.1c-33.5,2-67,2.3-100.5,2.2c-28.9-0.1-57.8-0.2-86.7-0.2
			c-11.5,0-23.1,0.4-34.6,0.7c-5.4,0.2-10.8,0.6-16.1,1.1c-2.6,0.2-5.1,1.1-5.3,4.3c-0.2,3.1,0.1,6.2,0.1,9.2c0,3.2,0,6.3,0,9.9
			c2.1-1,3.8-1.8,5.6-2.5c6.5-2.5,12.8-3.5,19.5-0.2c11.2,5.5,22.8,6.3,34.7,2s23.5-3.8,34.5,2.9c9.1,5.6,18.7,5.9,28.4,2.7
			c15.8-5.4,30.9-3.9,46.2,1.9c13.7,5.2,27.6,7.2,42.3,2c10.7-3.8,22.1-3.1,32.7,1.9c9.4,4.5,18.8,4.7,28.6,1.3
			c2.3-0.8,4.9-1.3,7.3-1c5,0.5,8.5-1.3,11.4-5.2c1.5-2,3.1-4.2,5.2-5.3c8.7-4.5,18.3-6.8,27.9-5c13.2,2.5,26.2,5.8,39.8,6.8
			c17.6,1.4,35.2,3.6,52.8,5.7c11.3,1.4,22.3,0,33.3-1.9c1.5-0.3,3.6-1.1,4.3-2.4C461.9,116.7,466.3,100.5,467.1,92.4z M8.3,209.6
			c0.5,0.1,0.9,0.3,1.2,0.2c0.9-0.2,1.8-0.6,2.7-0.9c10.6-3.4,21-3.5,31.7-0.2c8.7,2.7,17.8,4.3,26.8,2.8c12.1-2,24.2-4.7,36.1-7.7
			c8.5-2.2,16.9-3.4,25.7-2.4c7.9,0.9,15.3,3.5,22.8,6c15,5,30.1,6.1,45.3,0.8c17.6-6.2,35-6.4,52.5,0.5c4,1.6,8.6,2.2,13,2.1
			c5.5-0.1,10.9-1.2,16.9-2c-1.2-4.3-2.2-9-3.9-13.4c-2.6-7-3.9-14-2.2-21.5c0.4-1.9,0.1-4,0.1-5.9c-5.2-1.1-9.8-2.3-14.6-2.9
			c-4.4-0.6-8.9-0.8-13,1.3c-8.7,4.4-17.7,4.8-27,2.5c-5.4-1.3-10.9-2.5-16.4-3.6c-11.5-2.3-22.7-2.5-34.2,1.2
			c-13.5,4.3-27.2,4.8-40.8-0.6c-5.9-2.3-12.1-3.7-18.3-5.3c-8.9-2.3-17.7-2.2-26.7,0.7c-11.9,3.9-24.1,5-36.4,1.4
			c-3.7-1.1-7.5-1.9-11.3-2.2c-9.2-0.7-18.4-0.6-27.2,3.3c-4.1,1.8-5.5,4.4-5.2,9c0.8,11.7,2.6,23.4,1.5,35.2
			C7.8,208.6,8.2,209.2,8.3,209.6z M272.3,256.3c-3.6,0.3-6,0.4-8.4,0.8c-6.1,0.9-12.2,1.1-18.4-0.1c-5.5-1.1-10.9-2.2-16.4-3.2
			c-12.6-2.3-24.9-1.1-36.9,3.2c-6.9,2.5-14,3.8-21.4,4c-10.2,0.2-19.9-1.7-29.5-4.7c-3.1-1-6.3-1.8-9.5-2.2
			c-11.9-1.8-23.4,0.6-34.6,4.4c-11.9,4.1-24,5.6-36.4,3.6c-7.6-1.2-15-3.5-22.4-5.6c-9.2-2.6-18.2-2.4-27.3,0.1
			c-3.3,0.9-4.7,2.7-4.9,6c-0.5,8.8-1.2,17.7-1.8,26.5c-0.2,3.6-0.5,7.2-0.8,11.5c3.5-0.9,6.2-1.7,9-2.3c7-1.7,14-2.5,21.1-0.1
			c20.6,7.1,41.2,6.2,61.9,0.4c11.3-3.2,22.9-5.7,34.7-2.6c7.4,1.9,14.9,3.8,22.2,6.3c9.6,3.3,19.4,5.2,29.5,3.5
			c7-1.2,14-2.6,20.9-4.1c10.6-2.4,21.2-4.4,32-2.4c5.3,0.9,10.6,2.1,15.8,3.4c7.7,1.9,15.2,1.3,23.4-1.8c-1.7-2.7-3.2-5.1-4.7-7.5
			c-1.7-2.8-3.7-5.4-4.9-8.4c-2.9-7.1-0.4-13.6,3-19.8C268.8,262.5,270.3,259.9,272.3,256.3z M2.7,556.6c3.1-1.2,5-1.9,6.9-2.8
			c7.6-3.5,15.5-4.6,23.7-2.7c5.4,1.3,10.8,2.9,16,4.7c5.2,1.8,10.5,2.9,15.9,1.7c6-1.3,11.9-3.2,17.8-4.8
			c20.2-5.4,40.1-9.2,61.1-1.3c14.4,5.5,29.9,6.1,45.3,0.9c6.8-2.3,14.4-3.2,21.6-3.2c8.8,0,17.6,1.7,26.3,2.8
			c3.4,0.4,6.8,1.1,10-0.1c2.7-10.4,4.3-36.4,2.7-43.1c-1.7-0.2-3.5-0.2-5.1-0.7c-11.3-3.5-22.4-2.2-33.6,0.3
			c-5.4,1.2-10.9,1.9-16.5,2.4c-11.3,1-22.2-1.9-33.1-4c-14.1-2.7-28.2-4.4-42.4-1.5c-6.4,1.3-12.7,3-19.1,4.3
			c-11.3,2.4-22.7,3.4-34.4,2.5c-11.6-0.9-22.7-4.2-34-6.4c-8.4-1.6-16.4-0.8-24.4,2c-2.9,1-4.3,2.5-4.4,5.8
			c-0.1,10.6-0.6,21.2-0.8,31.8C2,548.6,2.4,552,2.7,556.6z M7.4,251.4c2.5-0.4,4.5-0.5,6.6-1c6.7-1.6,13.4-1.4,20,0.2
			c4.9,1.2,9.7,2.5,14.5,3.9c13.2,3.9,26.4,5,39.8,1.1c3.1-0.9,6.3-1.8,9.4-2.9c15.4-5.1,30.7-6.5,46.4-1.1
			c16.8,5.7,33.6,5.4,50.2-1.4c6.8-2.8,14.2-3.9,21.6-3.2c8.8,0.8,17.6,2.1,26.3,3.7c6.1,1.1,12.2,1.7,18.3,0.9
			c4.2-0.5,8.4-0.6,12.6-1.1c1.3-0.2,3-0.9,3.7-2c6-8.9,7.9-19.1,8.2-29.6c0.1-2.8-1.4-4.4-4.1-4.5c-2.7-0.1-5.4-0.1-8,0.5
			c-5.8,1.3-11.5,0.9-17.1-0.7c-3.5-1-7-2.1-10.5-3.1c-13.5-3.7-26.9-4.2-40.3,0.6c-4.9,1.8-10,2.6-15.1,3.9
			c-5.7,1.5-11.5,1.8-17.2,0.5c-8.4-2-16.8-4-25-6.7c-11.1-3.5-22.3-4.4-33.6-2.1c-9.6,2-19.1,4.6-28.6,6.9c-14,3.4-27.9,3.3-41.6-1
			c-12.8-4.1-24.9-3-36.5,4.5C7.4,229,7.4,240,7.4,251.4z M680.4,93.3c-1.5-0.2-2.8-0.5-4.1-0.4c-9.4,0.4-18.9,1.1-28.3,1.2
			c-29.1,0.2-58.2,0.4-87.3,0c-24.3-0.3-48.5-1.3-72.8-2c-4.6-0.1-9.1,0-14.3,0c0,10.5-3,19.6-6.3,28.6c-0.2,0.7-0.4,1.5-0.2,2.2
			c1,3.1,2,6.1,3.1,9.1c0.3,0.9,0.8,1.8,1.3,2.5c6.1,7.9,14.2,12.4,24.2,12.9c9,0.5,18.1,0.6,27.2,0.6c10.3,0,20.3,1.1,29.8,5.5
			c6.9,3.1,14.3,4.1,21.9,2.6c0.6-4,0.8-7.9,1.8-11.6c3.8-13.5,7.4-19.1,22.3-21.2c2.5-0.3,5-0.4,7.5-0.4
			c10.5,0.3,20.6,2.8,30.4,6.2c9.3,3.2,18.5,3.7,27.5-0.9c3.6-1.9,7.1-3.8,10.5-6c1.2-0.7,2.4-2.2,2.7-3.5
			C678.9,110.4,680.8,102.1,680.4,93.3z M286.7,625.2c-0.6,10.5-1.3,19.5-1.6,28.4c-0.2,5.3-0.4,6.1-5.6,6.3
			c-14.2,0.5-28.5,0.7-42.7,1.1c-6.2,0.2-12.3,0.3-18.5,0.9c-7,0.7-11.5,5.5-12.1,12.5c-0.8,9.4-1.5,18.8-2.2,28.2
			c-0.2,2.8,0,5.7,0,8.9c2.3,0.2,4.2,0.5,6,0.4c11.5-0.5,23.1-1.2,34.6-1.7c21.7-0.9,43.5-1.9,65.2-2.5c12.9-0.3,25.8,0.2,38.7,0.1
			c16-0.1,32-0.4,48-0.7c2.3,0,4.8,0.5,7.5-1.6c-0.9-0.6-1.4-0.9-1.9-1.2c-12.2-8.1-24.4-16.1-36.5-24.3c-5.3-3.5-10.4-7.3-15.5-11
			c-8.4-6.1-16.7-12.4-25.1-18.4c-6.6-4.7-13.4-8.9-20.1-13.5c-3-2.1-5.8-4.4-8.8-6.5C293.4,629,290.6,627.5,286.7,625.2z
			 M270.2,138.3c-7.6,1.5-14.7-0.2-21.4-3.2c-10.6-4.7-21.5-6-32.6-2.4c-9.4,3.1-18.8,4.3-28.4,2c-6.3-1.5-12.6-3.3-18.8-5.4
			c-12.9-4.4-25.8-5.4-39.1-1.1c-10.9,3.5-22,4.2-32.3-2.5c-1.1-0.7-2.4-1.3-3.6-1.8c-6.7-2.8-13.5-4.7-20.8-2.7
			c-4.4,1.2-8.9,2.4-13.4,3.5c-2.2,0.5-4.5,1.1-6.8,1.1c-8.6,0.2-16.9-0.9-24.7-4.9c-4-2.1-8-2.3-12.3-1.3
			c-4.8,1.1-8.9,3.4-12.8,6.2c1.1,11.6,2.3,23,3.4,34.9c1.9-0.7,3.4-1,4.7-1.7c4-2.2,8.4-2.7,12.8-2.9c7.2-0.4,14.3,0,21.2,1.8
			c14.6,3.8,28.9,3.3,43.1-2.3c5-2,10.4-2.2,15.9-1.5c8.7,1.2,17,3.5,25.1,6.6c7.8,3,15.8,5.3,24.2,4.1c6.7-0.9,13.3-2.1,19.8-3.9
			c8.3-2.3,16.6-3.3,25.1-1.6c8.3,1.6,16.6,3.6,24.9,5c7.6,1.3,15.2,2,22.6-1.8c6-3.1,12.6-3.1,19.2-1.6c3.5,0.8,7,1.6,11.1,0.8
			C274.3,153.8,272.3,146.2,270.2,138.3z M560.9,246.3c-0.9,0-1.5-0.1-2,0c-9.4,2.6-18.8,3.4-28.5,1.3c-4-0.9-8.4,0-12.6,0
			c-6,0-9.7,2.7-10.7,8.8c-0.3,1.7-1.3,3.2-1.9,4.8c-1.3,3-1.3,5.8,0.8,8.6c1.8,2.5,3.4,5.2,4.4,8.1c1.9,4.9,1.2,9.5-2,14
			c-3.1,4.3-5.5,9-9,14.8c10.7-1.9,19.6,1.1,28.6,2.6c10.4,1.6,20.7,1.3,30.8-2.1c4.4-1.5,8.8-3,13.1-4.6
			c15.1-5.8,30.6-7.4,46.5-3.8c5.6,1.3,11.3,2.5,17,3.4c4.7,0.7,9.7,1.6,14.3,1c7.2-0.9,14.3-2.5,21.9-1.1c1-17,1.9-33.5,2.8-49.4
			c-6.7-1.3-12.5-2.6-18.4-3.4c-6.6-1-13.3-1.9-20-2.1s-13.5,0.5-20.2,0.9c-6.4,0.3-12.7,0.3-18.6-2.8c-1.1-0.6-2.7-0.1-4.2-0.1
			c3.2,10.9,1.6,15.4-7.6,20.7c-2.5,1.5-5.9,2.9-8.6,2.4c-3.3-0.6-6.2-3.2-9.8-5.2c0.1-0.1-0.5,0.4-1.2,0.6
			c-2.3,0.9-5.2,2.4-6.9,0.1c-1.5-2-1.8-4.9-2.1-7.5c-0.2-1.2,0.7-2.6,1.2-3.8C558.8,250.6,559.8,248.6,560.9,246.3z M244.7,558.6
			c-1.8-0.5-3.1-1-4.3-1.2c-4.9-0.8-9.9-1.5-14.8-2.4c-12.4-2.3-24.8-1.9-36.5,2.3c-14.2,5.1-28.1,3.5-42.1,0.3
			c-6.6-1.5-12.9-4.3-19.5-5.3c-15.2-2.3-30,0.8-44.3,5.7c-12.9,4.5-25.5,7-38.8,1.3c-8.8-3.8-18.2-5.1-27.7-2.9
			c-4.6,1.1-9.1,2.9-14.2,4.6c-0.7,9,0.4,17.8,1.4,27.4c3.8-1,7-1.7,10-2.8c6.2-2.1,12.4-2.6,18.7-0.3c2,0.7,4,1.3,6,2
			c8.3,2.7,16.7,4.8,25.5,4.1c6.8-0.6,14-0.1,19.3-5.7c0.1-0.1,0.3-0.2,0.5-0.3c8.5-3.8,17.1-5.2,25.9-1c1.1,0.5,2.6,0.6,3.9,0.5
			c5.7-0.3,11.1,0.9,16.2,3.4c2.6,1.3,5.2,2.5,7.9,3.6c5.1,2,9.5-0.2,10.9-5.5c0.5-1.8,0.5-3.8,0.9-5.7c2.9-13.6,17.3-15.2,25.5-9.8
			c1,0.7,1.7,2.6,1.6,3.8c-0.7,4.6-2.2,8.9-6.3,11.9c-3.6,2.6-4.3,6-3,10.3c3.4,1.1,6.7,2.4,10,3.1c12.2,2.7,23.9,1.4,34.1-6.2
			c10.9-8.2,21.5-17,29.2-28.5C242,563.2,243.2,561.1,244.7,558.6z M402.5,350.7c9.5,1.3,18.7,2.3,27.8,3.8
			c13.9,2.3,27.2,1,40.3-4.1c7-2.7,14.3-2.8,21.7-2.1c6.5,0.6,13,1.5,19.6,1.8c2.4,0.1,4.8-0.9,7.2-1.5c3.3-0.8,6.6-2.5,9.9-2.6
			c6.4-0.1,12.6-0.7,18.9-1.9c4.9-0.9,10-1.3,14.9-1.1c13.5,0.5,26.5-1,38.5-7.8c1.6-0.9,3.6-1.2,5.5-1.6c5.6-1.3,11.1-0.4,16.6,0.8
			c9.2,2.1,18.2,2.3,27.3-0.6c4-1.3,8.1-2.1,12.3-2.8c3.3-0.6,6.8-0.6,10.6-0.9c-0.5-8-1-15.4-1.4-22.8c-6.8-1.1-13.2-1-19.8,0.1
			c-4.7,0.8-9.6,0.6-14.3,0.1c-5.2-0.5-10.3-1.6-15.3-2.8c-17.9-4.1-35.4-3.6-52.6,3.9c-8.6,3.7-17.7,6.3-27.4,6.4
			c-9.3,0.1-18.4-1-27.5-3c-7.9-1.8-15.5-1.5-22.4,3.9c-4.5,3.6-9.8,6.1-15.7,7.1c-1.6,0.3-3.4,1.1-4.5,2.2
			c-3.8,3.5-7.5,7.1-10.9,11c-3.3,3.8-7.1,6.7-11.7,8.1c-9.4,2.9-18.8,5.5-28.9,4.3C414.8,348,408.7,348.3,402.5,350.7z
			 M296.3,175.8c-1.9,1.2-3.4,2.1-4.8,3.1c-2,1.5-4,3-5.9,4.6s-2.6,3.7-1.8,6.2c1.3,3.8,2.5,7.7,3.8,11.5
			c7.4,21.1,6.6,41.1-7.5,59.5c-2.5,3.3-4.8,7-6.5,10.9c-4.1,9.2-3.3,11.8,4.3,18.5c4.7,4.1,7.6,9.3,7,15.7
			c-0.4,4.6-1.2,9.1-1.9,13.7c-0.3,1.9-0.9,3.8-0.8,5.7c0.1,4.6,2.5,6.6,7,6.2c2.5-0.2,5-0.6,7.4-1.2c7.6-1.8,15.2-3.8,22.1-5.5
			c1-3.6,1.7-6.4,2.6-9.1c1.8-5.7,3.5-11.5,1.5-17.5c-1.4-4.2-1.2-8.3,0-12.5c1.3-4.5,1.6-9-0.2-13.6c-1.4-3.5-2.5-7.3-3.6-11
			c-1.3-4.5-1.3-8.6,2.5-12.2c1.5-1.5,2.6-3.9,2.9-6c1.2-8.6,2-17.2,2.9-25.8c0.7-7.1,2.4-13.6,7.9-18.7c1.4-1.3,2.3-3.1,3.6-4.5
			c2.7-2.8,1.7-5.5,0.5-8.5c-1.3-3.1-3.6-4.6-6.7-4.3c-4,0.4-7.9,1.2-11.8,2.1c-4.1,1-8.1,2.3-12.1,3.4c-3.4,0.9-6-0.4-7.9-3.3
			C299.3,181.1,298,178.7,296.3,175.8z M159.3,630.2c-4.2-1.6-8.1-0.9-12,0.1c-5.2,1.3-10.3,1.4-15.4,0c-3.9-1-7.9-1.8-11.8-2.7
			c-6.6-1.5-13.2-2.9-20-2.2c-8.6,0.9-17.1,2.3-25.4,5.3c-3.4,1.2-7,2-10.6,2.5c-12.7,1.6-24.7-1.7-35.7-7.4
			c-8.1-4.2-15.3-3.6-22.9,0.1c-0.7,9,1,39.7,2.4,43.8c0.4,0.1,0.7,0.2,1.1,0.2c1.1-0.2,2.3-0.5,3.4-0.8c15.7-4.2,31.2-3.5,46.5,2
			c10.5,3.8,21.1,5.6,32.2,1.5c6.5-2.4,13.2-2.2,19.8,0.1c2.5,0.9,5.2,1.5,7.8,2c2.6,0.4,5.2,0.5,7.4,0.7c0.6-0.7,0.8-0.8,0.9-1
			c0.2-0.5,0.5-1.1,0.6-1.6c2.7-13.6,9.3-24.3,22.2-30.5c0.5-0.2,1-0.6,1.5-0.9C155.5,638.8,157.9,635.1,159.3,630.2z M674.2,203.6
			c-13.9-5.8-27.7-7-42.2-2.2c-19.9,6.5-40.2,8.1-60.8,2.3c-9.1-2.6-18.2-2-27.4,0.4c-4.5,1.2-8.1,3.3-10.6,7.3
			c-5.6,9-11.2,17.9-16.8,26.9c-0.6,0.9-0.9,2-1.5,3.4c1.2,0.2,1.9,0.4,2.6,0.3c6.8-0.8,13.4,0.3,20.1,1.4c3.1,0.5,6.5,0.4,9.7,0
			c7.4-1.1,14.7-2.5,22.1-3.9c1.3-0.2,2.7-0.6,3.8-1.4c4.5-3.1,8.7-2.3,12.8,0.5c2.1,1.4,4.3,2.6,6.9,1.3c2.2-7.8,6.1-11,13.5-10
			c6,0.8,11.6,2.9,14.5,9c0.6,1.2,1.3,2.3,2,3.3c0.8,0.1,1.4,0.3,1.9,0.3c13.8-1.3,27.3,0.1,40.6,3.7c0.9,0.3,1.9,0.5,2.8,0.5
			c2-0.1,4.1-0.3,6.1-0.5C675.6,231.7,676.5,217.9,674.2,203.6z M7.3,709.8c8.9,0.8,17.5,2,26.1,2.1c25.4,0.3,50.8,0.1,76.2,0.3
			c3.1,0,4.9-0.9,6.6-3.5c4.9-7.8,7.6-16.4,9-25.4c0.1-0.7-0.2-1.4-0.4-2.5c-5.7-1.3-11.4-2.4-16.8-4.1c-5.4-1.7-10.5-1.5-15.9-0.1
			c-4.8,1.2-9.8,2.3-14.7,2.5c-6.3,0.2-12.7-0.9-18.6-3.3c-11.6-4.7-23.7-4.7-35.8-3.8c-5.2,0.4-10.4,2.4-15.5,3.7
			C7.3,687.3,7.3,698.2,7.3,709.8z M554,196c7.8,1.3,14.5,2.1,21,3.7c13.9,3.3,27.8,3.8,41.7,0.6c6-1.4,12-2.7,17.9-4.4
			c10.4-3,20.8-3.3,31.3-0.2c2.5,0.7,5.1,1.2,8.2,1.9c0-13.5,0-26.3,0-39.6c-4.5,0.4-8.4,0.6-12.4,1.1c-3.2,0.4-6.4,1.1-9.7,1.4
			c-8.4,0.9-16.5-1.3-24.4-3.8c-14.9-4.9-28.8,0.1-43,3c-0.4,2.4-0.8,4.3-0.9,6.2c-0.5,9.8-5.8,16.5-13.9,21.2
			C564.8,189.9,559.6,192.8,554,196z M4.5,619.4c1.6,0.1,2.2,0.2,2.7,0.2c0.8-0.1,1.6-0.1,2.3-0.4c7.7-3,14.5-1,21.5,2.6
			c7.7,4,16.2,6.3,24.9,6.9c6,0.4,11.9-0.6,17.6-2.5c17.1-5.8,34.4-8.3,52.1-2.2c2.7,0.9,5.6,1.6,8.4,2c3.6,0.4,7.3,0.6,10.9,0.3
			c5.3-0.5,10.5-1.7,16-2.6c4.1-6,8.6-12.4,13.1-18.9c-5-2.3-9.4-3.3-14.7-0.2c-6.6,3.8-13.4,2.3-17-3.1c-1.5-2.3-3.2-3.5-5.6-4.5
			c-3.2-1.2-6.3-2.8-9.6-4.1c-1.8-0.7-3.8-1.1-5.6-1.6c-0.3,0.3-0.6,0.7-0.9,1c6.9,2.7,6.3,8.4,6.2,13.8c-0.2,5.2-4.1,9.3-8.5,9.4
			c-5.8,0.1-10.6-4.1-11.2-9.4c-0.7-6.9,1.9-12,9.7-15c-5.2-0.6-8.2-0.7-10.5,3.6c-5,9.6-12.8,12.2-23.2,8.7
			c-0.4,0.8-0.7,1.8-1.3,2.5c-3.6,5.4-7.6,5.8-12.4,1.6c-3.3-2.9-4.4-6.6-4.4-10.8c-4.4-0.3-8.5-0.1-12.4-0.9
			c-8.1-1.8-16-4.2-24-6.1c-2.9-0.7-6.2-1-9-0.4c-5.2,1.1-10.3,3-16,4.7C3.9,602.3,4.2,610.7,4.5,619.4z M586.4,153.9
			c3.9-0.8,7.5-1.3,10.9-2.3c10-3.1,20.1-3.2,30.1-0.3c3.1,0.9,6.3,2,9.5,2.5c5.1,0.7,10.3,1.5,15.4,1.3c7.1-0.3,14.1-1.4,21.1-2.2
			c0.3,0,0.6-0.5,1.2-1c0-5.7,0-11.6,0-17.5c-0.3-0.1-0.5-0.2-0.6-0.1c-1.3,0.4-2.5,0.9-3.8,1.3c-11.4,3.9-23,4.5-34.5,0.5
			c-6.8-2.3-13.7-3.7-20.9-3.6c-2.1,0-4.2-0.2-6.3-0.6C595.5,129.3,584.8,139.3,586.4,153.9z M562.8,256.1c0.3,0.3,0.5,0.5,0.8,0.8
			c1.6-1.3,7.8-1.1,8.5,0.5c1.9,3.8,3,4.5,6.5,2.6c2.3-1.2,4.5-3,6.2-5c1.8-2.1,1.1-5.4-0.9-6.6c-5.8-3.6-13.2-2.6-17.7,2.6
			C564.8,252.4,563.9,254.3,562.8,256.1z M167.7,575.2c-5.7-1.1-9.8,1.1-12,6.4c-0.9,2.2-0.9,4.8-1.5,7.2c-0.6,2.4-1.5,4.7-2.5,7.8
			c4.3-2,6.1-4.8,6.4-8.5c0.5-4.8,2.9-8.1,6.9-10.6C165.9,577,166.6,576.2,167.7,575.2z M99.2,590.1c-4.4-2-10.5-0.6-12.9,2.4
			c-1.2,1.5-1.8,3-0.5,4.7c1.3,1.8,3.2,1.6,4.6,0.5C93.4,595.4,96.2,592.8,99.2,590.1z M115.6,607.8c5.4-0.3,6.7-9.8,2.7-9.8
			C114.3,598,109.7,608.1,115.6,607.8z M613.7,242c-5.2-5.8-9.3-6.4-15.4-2C603.4,242.3,608.3,243.3,613.7,242z M77.3,604.5
			c-0.7-4.3-2.2-6.3-5.9-6.5C72.3,603.2,72.3,603.2,77.3,604.5z"/>
		<path d="M551.3,270.4c-1.2-6.1-6-9.8-12.5-9.5c-4.5,0.2-10.4,6.1-10.9,11c-0.4,4.9,2,7.5,6.9,7.6c1,0,1.9,0,3.9,0
			c3.1,0.4,6.8-0.4,10.3-3.1C551.1,274.7,551.8,273,551.3,270.4z M545.4,274.5c-2.1,1.6-4.4,2.1-6.3,1.9c-1.2,0-1.8,0-2.4,0
			c-3,0-4.5-1.7-4.2-4.7s3.9-6.6,6.7-6.7c4-0.2,6.9,2.1,7.7,5.9C547.1,272.4,546.7,273.5,545.4,274.5z"/>
		<path d="M53.3,619.5c-4.6-0.1-6.9-1.6-8.3-5.6c-1.3-3.9-0.7-7.7,2.7-9.7s7.3-3.5,11.1-3.9c4.9-0.6,8.9,8,6.3,12.7
			C63,617.1,58.5,619.6,53.3,619.5z M59.1,605.1c-1.9-1.9-5.9,2.9-8.2,4.4c-0.5,0.3-0.7,1.9-0.4,2.6c0.3,0.6,1.5,1.2,2.3,1.2
			C56.5,613.3,61,607,59.1,605.1z"/>
	</g>
	<path class="st1" d="M59.1,605.1c-1.9-1.9-5.9,2.9-8.2,4.4c-0.5,0.3-0.7,1.9-0.4,2.6c0.3,0.6,1.5,1.2,2.3,1.2
		C56.5,613.3,61,607,59.1,605.1z"/>
</g>
<rect x="216.4" y="214.4" class="st2" width="401.6" height="66.1"/>
<g class="st3">
	<path class="st4" d="M353.8,239.7h-13.5c-0.5,0-0.8-0.1-1.1-0.4s-0.4-0.7-0.4-1.1v-22.2c0-0.5,0.1-0.9,0.4-1.1s0.7-0.4,1.1-0.4
		h13.5c0.5,0,0.9,0.1,1.2,0.4c0.3,0.3,0.4,0.7,0.4,1.1v2.7c0,0.5-0.1,0.9-0.4,1.1c-0.3,0.3-0.7,0.4-1.2,0.4h-8.9v3.8h8.3
		c0.5,0,0.9,0.1,1.2,0.4c0.3,0.3,0.4,0.7,0.4,1.1v2.2c0,0.5-0.1,0.9-0.4,1.1s-0.7,0.4-1.2,0.4h-8.3v4.6h8.9c0.5,0,0.9,0.1,1.2,0.4
		c0.3,0.3,0.4,0.7,0.4,1.1v2.7c0,0.5-0.1,0.9-0.4,1.1C354.7,239.5,354.3,239.7,353.8,239.7z"/>
	<path class="st4" d="M369,224.5c3.4,0.2,5.8,0.8,7.3,1.9c1.4,1.1,2.1,2.9,2.1,5.5v0.2c0,2.5-0.9,4.5-2.7,5.8s-4.5,1.9-8.1,1.9
		c-3.5,0-6.1-0.6-7.8-1.8c-1.8-1.2-2.7-3-2.9-5.4c0-0.1,0-0.1,0-0.3c0-0.1,0-0.2,0-0.3c0-0.4,0.1-0.7,0.3-1c0.2-0.2,0.6-0.3,1-0.3
		h3.3c0.5,0,0.9,0.1,1.1,0.2c0.2,0.2,0.4,0.5,0.5,0.9c0,0.1,0.1,0.3,0.2,0.6c0.3,0.8,0.8,1.4,1.5,1.7c0.7,0.3,1.7,0.5,3,0.5
		c1.5,0,2.7-0.2,3.4-0.6c0.7-0.4,1.1-1,1.1-1.8v-0.1c0-0.4-0.1-0.7-0.2-1c-0.1-0.3-0.3-0.5-0.5-0.7c-0.2-0.2-0.6-0.4-1.1-0.5
		s-1-0.2-1.7-0.3c-0.6-0.1-1.5-0.2-2.5-0.3c-1.8-0.2-3.2-0.4-4.4-0.7c-1.2-0.3-2.1-0.7-2.9-1.3c-0.8-0.6-1.4-1.3-1.7-2.1
		c-0.3-0.9-0.5-1.9-0.5-3.2v-0.3c0-2.6,0.9-4.5,2.7-5.8s4.5-1.9,8.1-1.9c3.3,0,5.9,0.6,7.7,1.8s2.8,2.9,3,5.1
		c0.1,0.2,0.1,0.4,0.1,0.7c0,0.4-0.1,0.7-0.3,1c-0.2,0.2-0.6,0.3-1,0.3h-3.3c-0.5,0-0.9-0.1-1.1-0.2c-0.2-0.2-0.4-0.5-0.5-0.9
		c-0.1-0.3-0.1-0.5-0.2-0.7c-0.6-1.2-2.1-1.9-4.4-1.9c-3,0-4.5,0.8-4.5,2.3v0.2c0,0.6,0.1,1,0.4,1.3c0.3,0.3,0.9,0.6,1.7,0.8
		C366,224.2,367.3,224.4,369,224.5z"/>
	<path class="st4" d="M400.4,224.4c0,1.3-0.2,2.4-0.5,3.4c-0.3,0.9-0.9,1.7-1.7,2.4c-0.8,0.7-1.8,1.1-3,1.5
		c-1.3,0.3-2.8,0.5-4.6,0.5h-4v6c0,0.5-0.1,0.9-0.4,1.1c-0.3,0.3-0.7,0.4-1.1,0.4H382c-0.5,0-0.8-0.1-1.1-0.4
		c-0.3-0.3-0.4-0.7-0.4-1.1v-22.2c0-0.5,0.1-0.9,0.4-1.1c0.3-0.3,0.7-0.4,1.1-0.4h8.6c3.5,0,6.1,0.7,7.6,2c1.5,1.3,2.2,3.4,2.2,6.2
		V224.4z M390.6,219.8h-3.9v7.4h3.9c1.3,0,2.2-0.2,2.8-0.7c0.6-0.5,0.8-1.4,0.8-2.7v-0.4c0-1.4-0.3-2.3-0.8-2.8
		C392.8,220.1,391.9,219.8,390.6,219.8z"/>
	<path class="st4" d="M405.1,238.4c-0.1,0.4-0.3,0.7-0.5,0.9c-0.3,0.2-0.6,0.3-1,0.3h-2.9c-0.5,0-0.9-0.2-1.2-0.5
		c-0.3-0.3-0.3-0.7-0.2-1.2l5.9-22.3c0.1-0.4,0.2-0.7,0.5-0.9c0.3-0.2,0.6-0.3,1-0.3h6.5c0.4,0,0.7,0.1,1,0.3
		c0.3,0.2,0.5,0.5,0.5,0.9l5.9,22.3c0.1,0.5,0,0.9-0.2,1.2c-0.3,0.3-0.6,0.5-1.2,0.5h-2.9c-0.4,0-0.8-0.1-1-0.3
		c-0.3-0.2-0.5-0.5-0.5-0.9l-0.9-3.8H406L405.1,238.4z M412.8,230.2l-2.8-11.7l-2.8,11.7H412.8z"/>
	<path class="st4" d="M439.8,235.2c-0.3,0.7-0.6,1.3-1,1.8c-0.4,0.5-1,1-1.6,1.5c-0.7,0.4-1.4,0.8-2.4,1c-0.9,0.2-2,0.3-3.1,0.3
		c-3.7,0-6.5-0.9-8.2-2.7c-1.7-1.8-2.6-4.7-2.6-8.8v-3.3c0-3.6,0.9-6.3,2.7-8.1c1.8-1.8,4.7-2.7,8.5-2.7c3.4,0,6.1,0.6,7.9,1.9
		c1.9,1.3,2.9,3.1,3.2,5.5c0,0.2,0.1,0.5,0.2,1c0,0.4-0.1,0.8-0.3,1c-0.2,0.3-0.6,0.4-1,0.4h-3.4c-0.5,0-0.9-0.1-1.1-0.3
		c-0.2-0.2-0.4-0.5-0.4-1c-0.1-0.3-0.1-0.6-0.2-0.7c-0.3-0.8-0.9-1.4-1.6-1.8c-0.8-0.4-1.9-0.6-3.2-0.6c-1.2,0-2.2,0.2-2.9,0.5
		c-0.7,0.3-1.3,0.9-1.6,1.8c-0.4,0.9-0.6,2-0.6,3.5v2.8c0,2.1,0.4,3.6,1.2,4.5c0.8,0.9,2.1,1.3,3.9,1.3c0.6,0,1.2,0,1.6-0.1
		s0.9-0.2,1.4-0.3c0.4-0.2,0.8-0.4,1.1-0.7c0.3-0.3,0.5-0.7,0.7-1.2s0.3-1.1,0.3-1.7v-0.2h-3.6c-0.4,0-0.8-0.1-1-0.4
		s-0.4-0.6-0.4-1.1v-1.2c0-0.5,0.1-0.9,0.4-1.2c0.3-0.3,0.7-0.4,1.1-0.4h8.2c0.5,0,0.9,0.1,1.2,0.4c0.3,0.3,0.4,0.7,0.4,1.2v11.1
		c0,0.8-0.4,1.2-1.2,1.2h-0.2c-0.4,0-0.7-0.1-0.9-0.2c-0.2-0.1-0.3-0.4-0.4-0.8L439.8,235.2z"/>
	<path class="st4" d="M465.1,239.7h-2.9c-0.7,0-1.2-0.3-1.5-0.8l-9.3-13.7v13c0,0.5-0.1,0.9-0.4,1.1s-0.7,0.4-1.1,0.4h-2.7
		c-0.5,0-0.8-0.1-1.1-0.4s-0.4-0.7-0.4-1.1v-22.2c0-0.5,0.1-0.9,0.4-1.1s0.7-0.4,1.1-0.4h3c0.6,0,1.1,0.3,1.5,0.8l9.3,13.2v-12.4
		c0-0.5,0.1-0.9,0.4-1.1s0.6-0.4,1.1-0.4h2.6c0.5,0,0.9,0.1,1.2,0.4s0.4,0.7,0.4,1.1v22.2c0,0.5-0.1,0.9-0.4,1.1
		S465.6,239.7,465.1,239.7z"/>
	<path class="st4" d="M484,239.7h-13.5c-0.5,0-0.9-0.1-1.1-0.4c-0.3-0.3-0.4-0.7-0.4-1.1v-22.2c0-0.5,0.1-0.9,0.4-1.1
		c0.3-0.3,0.7-0.4,1.1-0.4H484c0.5,0,0.9,0.1,1.2,0.4c0.3,0.3,0.4,0.7,0.4,1.1v2.7c0,0.5-0.1,0.9-0.4,1.1c-0.3,0.3-0.7,0.4-1.2,0.4
		h-8.9v3.8h8.3c0.5,0,0.9,0.1,1.2,0.4c0.3,0.3,0.4,0.7,0.4,1.1v2.2c0,0.5-0.1,0.9-0.4,1.1c-0.3,0.3-0.7,0.4-1.2,0.4h-8.3v4.6h8.9
		c0.5,0,0.9,0.1,1.2,0.4c0.3,0.3,0.4,0.7,0.4,1.1v2.7c0,0.5-0.1,0.9-0.4,1.1C484.8,239.5,484.5,239.7,484,239.7z"/>
</g>
<rect x="183.2" y="448" class="st2" width="401.6" height="66.1"/>
<g class="st3">
	<path class="st4" d="M336.2,473.2h-1.5c-0.8,0-1.3-0.4-1.5-1.1l-6.3-16.9v16.5c0,0.5-0.1,0.9-0.4,1.1c-0.3,0.3-0.7,0.4-1.1,0.4
		h-2.9c-0.5,0-0.9-0.1-1.1-0.4c-0.3-0.3-0.4-0.7-0.4-1.1v-22.2c0-0.5,0.1-0.9,0.4-1.1c0.3-0.3,0.7-0.4,1.1-0.4h6.2
		c0.8,0,1.3,0.4,1.5,1.2l5.2,13.9l5.3-13.9c0.3-0.8,0.8-1.2,1.5-1.2h6.1c0.5,0,0.9,0.1,1.1,0.4c0.3,0.3,0.4,0.7,0.4,1.1v22.2
		c0,0.5-0.1,0.9-0.4,1.1c-0.3,0.3-0.7,0.4-1.1,0.4h-2.8c-0.5,0-0.9-0.1-1.1-0.4c-0.3-0.3-0.4-0.7-0.4-1.1v-16.5l-6.3,16.9
		C337.5,472.8,337,473.2,336.2,473.2z"/>
	<path class="st4" d="M357.9,471.9c-0.1,0.4-0.3,0.7-0.5,0.9s-0.6,0.3-1,0.3h-2.9c-0.5,0-0.9-0.2-1.2-0.5c-0.3-0.3-0.3-0.7-0.2-1.2
		l5.9-22.3c0.1-0.4,0.2-0.7,0.5-0.9c0.3-0.2,0.6-0.3,1-0.3h6.5c0.4,0,0.7,0.1,1,0.3c0.3,0.2,0.5,0.5,0.5,0.9l5.9,22.3
		c0.1,0.5,0,0.9-0.2,1.2c-0.3,0.3-0.6,0.5-1.2,0.5h-2.9c-0.4,0-0.8-0.1-1-0.3s-0.5-0.5-0.5-0.9l-0.9-3.8h-7.8L357.9,471.9z
		 M365.6,463.7l-2.8-11.7l-2.8,11.7H365.6z"/>
	<path class="st4" d="M380.2,473.2h-3.1c-0.5,0-0.9-0.1-1.2-0.4c-0.3-0.3-0.4-0.7-0.4-1.2v-22.1c0-0.5,0.1-0.9,0.4-1.1
		c0.3-0.3,0.7-0.4,1.2-0.4h8.3c1.8,0,3.3,0.1,4.5,0.4c1.2,0.3,2.1,0.7,2.8,1.3c0.7,0.6,1.2,1.4,1.5,2.4c0.3,0.9,0.4,2.2,0.4,3.6v0.7
		c0,3.2-1.1,5.4-3.3,6.7l3.1,8.3c0.2,0.5,0.2,0.9-0.1,1.3s-0.6,0.5-1.1,0.5h-3.5c-0.8,0-1.3-0.4-1.5-1.2l-2.8-7.9h-3.7v7.4
		c0,0.5-0.1,0.9-0.4,1.2C381.1,473.1,380.7,473.2,380.2,473.2z M385.4,453.4h-3.6v5.7h3.6c1.1,0,1.9-0.2,2.4-0.5
		c0.5-0.3,0.7-1,0.7-2.1V456c0-1-0.2-1.7-0.7-2.1C387.3,453.6,386.5,453.4,385.4,453.4z"/>
	<path class="st4" d="M419,458.9v3.2c0,3.6-1,6.3-2.9,8.3c-1.9,2-4.7,2.9-8.4,2.9c-3.8,0-6.6-1-8.5-2.9c-1.9-1.9-2.8-4.7-2.8-8.3
		v-3.2c0-3.6,0.9-6.3,2.8-8.3c1.9-1.9,4.7-2.9,8.5-2.9c3.8,0,6.6,1,8.5,2.9C418.1,452.6,419,455.3,419,458.9z M412.9,461.9v-2.8
		c0-1.5-0.2-2.7-0.6-3.5c-0.4-0.9-0.9-1.5-1.7-1.8c-0.7-0.3-1.7-0.5-2.9-0.5c-1.2,0-2.2,0.2-2.9,0.5c-0.7,0.3-1.3,0.9-1.6,1.8
		c-0.4,0.9-0.6,2-0.6,3.5v2.8c0,1.5,0.2,2.7,0.6,3.5c0.4,0.9,0.9,1.5,1.6,1.8c0.7,0.3,1.7,0.5,2.9,0.5c1.2,0,2.2-0.2,2.9-0.5
		c0.7-0.3,1.3-0.9,1.7-1.8C412.7,464.6,412.9,463.5,412.9,461.9z"/>
	<path class="st4" d="M432.2,473.3c-3.9,0-6.8-0.9-8.6-2.6c-1.8-1.7-2.7-4.6-2.7-8.6v-3.3c0-7.4,3.8-11.1,11.3-11.1
		c6.9,0,10.7,2.9,11.2,8.8c0,0.1,0,0.2,0.1,0.4c0,0.2,0,0.3,0.1,0.4c0,0.4-0.1,0.8-0.3,1c-0.2,0.3-0.6,0.4-1,0.4h-3.4
		c-0.5,0-0.9-0.1-1.1-0.3c-0.2-0.2-0.4-0.6-0.4-1c-0.1-0.4-0.1-0.7-0.1-0.7c-0.2-1.2-0.8-2-1.6-2.6c-0.8-0.5-1.9-0.8-3.4-0.8
		c-1.2,0-2.2,0.2-2.9,0.5c-0.7,0.3-1.3,0.9-1.6,1.8s-0.6,2-0.6,3.5v2.8c0,2.1,0.4,3.6,1.2,4.5c0.8,0.9,2.1,1.3,3.9,1.3
		c1.5,0,2.7-0.3,3.5-0.9c0.8-0.6,1.3-1.6,1.5-3c0-0.1,0.1-0.3,0.1-0.6c0.1-0.9,0.6-1.4,1.5-1.4h3.4c0.5,0,0.8,0.1,1,0.4
		c0.2,0.3,0.3,0.6,0.3,1.1l-0.1,0.7c-0.2,3.2-1.2,5.5-3.1,7C438.5,472.6,435.8,473.3,432.2,473.3z"/>
</g>
<rect x="350.7" y="567.1" class="st2" width="401.6" height="66.1"/>
<g class="st3">
	<path class="st4" d="M488.7,591.1c-0.1,0.4-0.3,0.7-0.5,0.9s-0.6,0.3-1,0.3h-2.9c-0.5,0-0.9-0.2-1.2-0.5c-0.3-0.3-0.3-0.7-0.2-1.2
		l5.9-22.3c0.1-0.4,0.2-0.7,0.5-0.9c0.3-0.2,0.6-0.3,1-0.3h6.5c0.4,0,0.7,0.1,1,0.3c0.3,0.2,0.5,0.5,0.5,0.9l5.9,22.3
		c0.1,0.5,0,0.9-0.2,1.2c-0.3,0.3-0.6,0.5-1.2,0.5h-2.9c-0.4,0-0.8-0.1-1-0.3s-0.5-0.5-0.5-0.9l-0.9-3.8h-7.8L488.7,591.1z
		 M496.4,582.9l-2.8-11.7l-2.8,11.7H496.4z"/>
	<path class="st4" d="M521.4,592.4h-13.5c-0.5,0-0.8-0.1-1.1-0.4c-0.3-0.3-0.4-0.7-0.4-1.1v-22.2c0-0.5,0.1-0.9,0.4-1.1
		c0.3-0.3,0.7-0.4,1.1-0.4h3.1c0.5,0,0.9,0.1,1.1,0.4s0.4,0.7,0.4,1.1v18h8.9c0.5,0,0.9,0.1,1.2,0.4s0.4,0.7,0.4,1.1v2.7
		c0,0.5-0.1,0.9-0.4,1.1S521.9,592.4,521.4,592.4z"/>
	<path class="st4" d="M542.4,587.9c-0.3,0.7-0.6,1.3-1,1.8c-0.4,0.5-1,1-1.6,1.5c-0.7,0.4-1.4,0.8-2.4,1c-0.9,0.2-2,0.3-3.1,0.3
		c-3.7,0-6.5-0.9-8.2-2.7c-1.7-1.8-2.6-4.7-2.6-8.8v-3.3c0-3.6,0.9-6.3,2.7-8.1c1.8-1.8,4.7-2.7,8.5-2.7c3.4,0,6.1,0.6,7.9,1.9
		c1.9,1.3,2.9,3.1,3.2,5.5c0.1,0.2,0.1,0.5,0.2,1c0,0.4-0.1,0.8-0.3,1c-0.2,0.3-0.6,0.4-1,0.4h-3.4c-0.5,0-0.9-0.1-1.1-0.3
		c-0.2-0.2-0.4-0.5-0.4-1c-0.1-0.3-0.1-0.6-0.2-0.7c-0.3-0.8-0.9-1.4-1.7-1.8s-1.9-0.6-3.2-0.6c-1.2,0-2.2,0.2-2.9,0.5
		c-0.7,0.3-1.3,0.9-1.6,1.8s-0.6,2-0.6,3.5v2.8c0,2.1,0.4,3.6,1.2,4.5c0.8,0.9,2.1,1.3,3.9,1.3c0.6,0,1.2,0,1.6-0.1
		c0.5-0.1,0.9-0.2,1.4-0.3c0.4-0.2,0.8-0.4,1.1-0.7c0.3-0.3,0.5-0.7,0.7-1.2s0.3-1.1,0.3-1.7v-0.2h-3.6c-0.4,0-0.8-0.1-1-0.4
		s-0.4-0.6-0.4-1.1v-1.2c0-0.5,0.1-0.9,0.4-1.2s0.7-0.4,1.1-0.4h8.2c0.5,0,0.9,0.1,1.2,0.4c0.3,0.3,0.4,0.7,0.4,1.2v11.1
		c0,0.8-0.4,1.2-1.2,1.2h-0.2c-0.4,0-0.7-0.1-0.9-0.2c-0.2-0.1-0.3-0.4-0.4-0.8L542.4,587.9z"/>
	<path class="st4" d="M563.3,592.4h-13.5c-0.5,0-0.8-0.1-1.1-0.4c-0.3-0.3-0.4-0.7-0.4-1.1v-22.2c0-0.5,0.1-0.9,0.4-1.1
		c0.3-0.3,0.7-0.4,1.1-0.4h13.5c0.5,0,0.9,0.1,1.2,0.4s0.4,0.7,0.4,1.1v2.7c0,0.5-0.1,0.9-0.4,1.1s-0.7,0.4-1.2,0.4h-8.9v3.8h8.3
		c0.5,0,0.9,0.1,1.2,0.4c0.3,0.3,0.4,0.7,0.4,1.1v2.2c0,0.5-0.1,0.9-0.4,1.1c-0.3,0.3-0.7,0.4-1.2,0.4h-8.3v4.6h8.9
		c0.5,0,0.9,0.1,1.2,0.4s0.4,0.7,0.4,1.1v2.7c0,0.5-0.1,0.9-0.4,1.1S563.8,592.4,563.3,592.4z M559.1,565.2l-0.7,0.6
		c-0.2,0.1-0.3,0.2-0.5,0.3s-0.3,0-0.6,0h-2c-0.3,0-0.5-0.1-0.6-0.2c-0.1-0.2-0.1-0.4,0-0.7l0.1-0.3c0.1-0.3,0.3-0.5,0.4-0.6
		s0.4-0.1,0.7-0.1h2.7c0.4,0,0.6,0.1,0.7,0.3C559.4,564.7,559.3,564.9,559.1,565.2z"/>
	<path class="st4" d="M571.7,592.4h-3.1c-0.5,0-0.9-0.1-1.2-0.4c-0.3-0.3-0.4-0.7-0.4-1.2v-22.1c0-0.5,0.1-0.9,0.4-1.1
		c0.3-0.3,0.7-0.4,1.2-0.4h8.3c1.8,0,3.3,0.1,4.5,0.4c1.2,0.3,2.1,0.7,2.8,1.3c0.7,0.6,1.2,1.4,1.5,2.4c0.3,0.9,0.4,2.2,0.4,3.6v0.7
		c0,3.2-1.1,5.4-3.3,6.7l3.1,8.3c0.2,0.5,0.2,0.9-0.1,1.3c-0.2,0.4-0.6,0.5-1.1,0.5h-3.5c-0.8,0-1.3-0.4-1.5-1.2l-2.8-7.9h-3.7v7.4
		c0,0.5-0.1,0.9-0.4,1.2S572.2,592.4,571.7,592.4z M576.9,572.6h-3.6v5.7h3.6c1.1,0,1.9-0.2,2.4-0.5c0.5-0.3,0.7-1,0.7-2.1v-0.5
		c0-1-0.2-1.7-0.7-2.1C578.8,572.7,578,572.6,576.9,572.6z"/>
	<path class="st4" d="M593,592.4h-3.1c-0.5,0-0.9-0.1-1.1-0.4s-0.4-0.7-0.4-1.1v-22.2c0-0.5,0.1-0.9,0.4-1.1s0.7-0.4,1.1-0.4h3.1
		c0.5,0,0.9,0.1,1.1,0.4c0.3,0.3,0.4,0.7,0.4,1.1v22.2c0,0.5-0.1,0.9-0.4,1.1C593.8,592.2,593.5,592.4,593,592.4z"/>
	<path class="st4" d="M611.9,592.4h-13.5c-0.5,0-0.8-0.1-1.1-0.4c-0.3-0.3-0.4-0.7-0.4-1.1v-22.2c0-0.5,0.1-0.9,0.4-1.1
		c0.3-0.3,0.7-0.4,1.1-0.4h13.5c0.5,0,0.9,0.1,1.2,0.4s0.4,0.7,0.4,1.1v2.7c0,0.5-0.1,0.9-0.4,1.1s-0.7,0.4-1.2,0.4H603v3.8h8.3
		c0.5,0,0.9,0.1,1.2,0.4c0.3,0.3,0.4,0.7,0.4,1.1v2.2c0,0.5-0.1,0.9-0.4,1.1c-0.3,0.3-0.7,0.4-1.2,0.4H603v4.6h8.9
		c0.5,0,0.9,0.1,1.2,0.4s0.4,0.7,0.4,1.1v2.7c0,0.5-0.1,0.9-0.4,1.1S612.4,592.4,611.9,592.4z"/>
</g>
<g>
	<g>
		<path class="st5" d="M44.3,596.8c-12.6-10.8-15.2-30.6-6-44.1"/>
		<g>
			<polygon class="st1" points="42.7,589.1 43.6,596.2 36.4,597.1 39.8,599.8 47,598.9 46.1,591.8 			"/>
		</g>
	</g>
</g>
<rect x="14.7" y="517.7" class="st6" width="166.9" height="44.6"/>
<rect x="51.4" y="523.8" class="st2" width="156.5" height="30.8"/>
<g class="st3">
	<path class="st1" d="M39,552.7H27.2c-0.4,0-0.7-0.1-1-0.4c-0.2-0.2-0.4-0.6-0.4-1v-19.2c0-0.4,0.1-0.7,0.4-1c0.2-0.2,0.6-0.4,1-0.4
		H39c0.4,0,0.8,0.1,1,0.4c0.2,0.2,0.4,0.6,0.4,1v2.3c0,0.4-0.1,0.8-0.4,1c-0.2,0.2-0.6,0.4-1,0.4h-7.7v3.3h7.2c0.4,0,0.8,0.1,1,0.4
		c0.2,0.2,0.4,0.6,0.4,1v1.9c0,0.4-0.1,0.7-0.4,1c-0.2,0.2-0.6,0.4-1,0.4h-7.2v4H39c0.4,0,0.8,0.1,1,0.4c0.2,0.2,0.4,0.6,0.4,1v2.3
		c0,0.4-0.1,0.7-0.4,1C39.8,552.5,39.4,552.7,39,552.7z"/>
	<path class="st1" d="M55.4,552.7H43.7c-0.4,0-0.7-0.1-1-0.4c-0.2-0.2-0.4-0.6-0.4-1v-19.2c0-0.4,0.1-0.7,0.4-1
		c0.2-0.2,0.6-0.4,1-0.4h2.7c0.4,0,0.7,0.1,1,0.4c0.2,0.2,0.4,0.6,0.4,1v15.6h7.7c0.4,0,0.8,0.1,1,0.4c0.2,0.2,0.4,0.6,0.4,1v2.3
		c0,0.4-0.1,0.7-0.4,1C56.2,552.5,55.9,552.7,55.4,552.7z"/>
	<path class="st1" d="M82.6,552.7H80c-0.4,0-0.8-0.1-1-0.4s-0.3-0.6-0.3-1v-7.5h-7.5v7.5c0,0.4-0.1,0.7-0.4,1
		c-0.2,0.2-0.6,0.4-1,0.4h-2.7c-0.4,0-0.7-0.1-1-0.4c-0.2-0.2-0.4-0.6-0.4-1v-19.2c0-0.4,0.1-0.7,0.4-1c0.2-0.2,0.6-0.4,1-0.4h2.7
		c0.4,0,0.7,0.1,1,0.4c0.2,0.2,0.4,0.6,0.4,1v6.4h7.5v-6.4c0-0.4,0.1-0.7,0.3-1s0.6-0.4,1-0.4h2.7c0.4,0,0.8,0.1,1,0.4
		c0.2,0.2,0.4,0.6,0.4,1v19.2c0,0.4-0.1,0.7-0.4,1C83.4,552.5,83.1,552.7,82.6,552.7z"/>
	<path class="st1" d="M90.1,552.7h-2.7c-0.4,0-0.7-0.1-1-0.4c-0.2-0.2-0.4-0.6-0.4-1v-19.2c0-0.4,0.1-0.7,0.4-1
		c0.2-0.2,0.6-0.4,1-0.4h2.7c0.4,0,0.7,0.1,1,0.4c0.2,0.2,0.4,0.6,0.4,1v19.2c0,0.4-0.1,0.7-0.4,1C90.8,552.5,90.5,552.7,90.1,552.7
		z"/>
	<path class="st1" d="M106.6,552.7H94.8c-0.4,0-0.7-0.1-1-0.4c-0.2-0.2-0.4-0.6-0.4-1v-19.2c0-0.4,0.1-0.7,0.4-1
		c0.2-0.2,0.6-0.4,1-0.4h11.7c0.4,0,0.8,0.1,1,0.4c0.2,0.2,0.4,0.6,0.4,1v2.3c0,0.4-0.1,0.8-0.4,1c-0.2,0.2-0.6,0.4-1,0.4h-7.7v3.3
		h7.2c0.4,0,0.8,0.1,1,0.4c0.2,0.2,0.4,0.6,0.4,1v1.9c0,0.4-0.1,0.7-0.4,1c-0.2,0.2-0.6,0.4-1,0.4h-7.2v4h7.7c0.4,0,0.8,0.1,1,0.4
		c0.2,0.2,0.4,0.6,0.4,1v2.3c0,0.4-0.1,0.7-0.4,1C107.4,552.5,107,552.7,106.6,552.7z"/>
	<path class="st1" d="M114,552.7h-2.7c-0.4,0-0.8-0.1-1-0.4c-0.2-0.2-0.4-0.6-0.4-1v-19.2c0-0.4,0.1-0.7,0.4-1
		c0.2-0.2,0.6-0.4,1-0.4h7.2c1.6,0,2.9,0.1,3.9,0.3c1,0.2,1.8,0.6,2.5,1.1c0.6,0.5,1.1,1.2,1.3,2c0.2,0.8,0.4,1.9,0.4,3.1v0.6
		c0,2.7-1,4.7-2.9,5.8l2.7,7.2c0.2,0.4,0.1,0.8-0.1,1.1c-0.2,0.3-0.5,0.5-1,0.5h-3.1c-0.7,0-1.1-0.3-1.3-1l-2.4-6.8h-3.2v6.5
		c0,0.4-0.1,0.8-0.4,1C114.7,552.5,114.4,552.7,114,552.7z M118.5,535.5h-3.2v4.9h3.2c1,0,1.7-0.2,2.1-0.5s0.6-0.9,0.6-1.8v-0.5
		c0-0.9-0.2-1.5-0.6-1.8S119.5,535.5,118.5,535.5z"/>
	<path class="st1" d="M132.6,552.7h-2.7c-0.4,0-0.8-0.1-1-0.4c-0.2-0.2-0.4-0.6-0.4-1v-19.2c0-0.4,0.1-0.7,0.4-1
		c0.2-0.2,0.6-0.4,1-0.4h7.2c1.6,0,2.9,0.1,3.9,0.3c1,0.2,1.8,0.6,2.5,1.1c0.6,0.5,1.1,1.2,1.3,2c0.2,0.8,0.4,1.9,0.4,3.1v0.6
		c0,2.7-1,4.7-2.9,5.8l2.7,7.2c0.2,0.4,0.1,0.8-0.1,1.1c-0.2,0.3-0.5,0.5-1,0.5h-3.1c-0.7,0-1.1-0.3-1.3-1l-2.4-6.8h-3.2v6.5
		c0,0.4-0.1,0.8-0.4,1C133.3,552.5,133,552.7,132.6,552.7z M137.1,535.5h-3.2v4.9h3.2c1,0,1.7-0.2,2.1-0.5s0.6-0.9,0.6-1.8v-0.5
		c0-0.9-0.2-1.5-0.6-1.8S138.1,535.5,137.1,535.5z"/>
	<path class="st1" d="M166.4,540.3v2.8c0,3.1-0.8,5.5-2.5,7.2c-1.7,1.7-4.1,2.5-7.3,2.5c-3.3,0-5.7-0.8-7.4-2.5
		c-1.6-1.7-2.4-4.1-2.4-7.2v-2.8c0-3.1,0.8-5.5,2.4-7.2c1.6-1.7,4.1-2.5,7.4-2.5c3.3,0,5.7,0.8,7.4,2.5
		C165.6,534.8,166.4,537.2,166.4,540.3z M161.1,542.9v-2.4c0-1.3-0.2-2.3-0.5-3.1c-0.3-0.7-0.8-1.3-1.4-1.6s-1.5-0.4-2.5-0.4
		c-1.1,0-1.9,0.1-2.5,0.4s-1.1,0.8-1.4,1.6s-0.5,1.8-0.5,3.1v2.4c0,1.3,0.2,2.3,0.5,3.1c0.3,0.7,0.8,1.3,1.4,1.5s1.5,0.4,2.5,0.4
		c1,0,1.9-0.1,2.5-0.4s1.1-0.8,1.4-1.5C160.9,545.2,161.1,544.2,161.1,542.9z"/>
</g>
</svg>
