<?xml version="1.0" encoding="utf-8"?>
<!-- Generator: Adobe Illustrator 19.1.0, SVG Export Plug-In . SVG Version: 6.00 Build 0)  -->
<svg version="1.1" id="Calque_1" xmlns="http://www.w3.org/2000/svg" xmlns:xlink="http://www.w3.org/1999/xlink" x="0px" y="0px"
	 viewBox="-509.8 1471.7 977 673.6" style="enable-background:new -509.8 1471.7 977 673.6;" xml:space="preserve">
<style type="text/css">
	.st0{fill:#EC6C65;}
	.st1{fill:#6EA2C2;}
	.st2{fill:none;stroke:#EC6C65;stroke-width:4;stroke-miterlimit:10;}
	.st3{fill:none;}
	.st4{enable-background:new    ;}
	.st5{fill:#169BC9;}
	.st6{fill:#FFFFFF;}
</style>
<g>
	<path class="st0" d="M462.2,1969.9c-0.4,21.1-0.9,42.2-1.3,63.2c-0.2,12.8-0.2,25.6-0.4,38.5c-0.2,15.3-0.6,30.7-0.9,46
		c-0.1,4,0.2,8.1,0.1,12.1c0,2.2-0.5,4.3-0.7,6.5c-0.2,3.3-2.1,4.8-5.1,5.2c-6.2,0.9-12.3,2.4-18.6,0.9c-1.3-0.3-2.7-0.2-4-0.2
		c-15.5,0.2-31,0.4-46.5,0.5c-22.1,0.2-44.2-0.2-66.3,0.5c-13.2,0.4-26.2-0.4-39.3-1.1c-17.7-0.9-35.4-1.5-53.1-0.2
		c-16.8,1.2-33.7,0.7-50.5-0.9c-10.7-1-21.6-0.6-32.3-0.6c-15.7,0-31.4,0.4-47.1,0.5c-23.1,0.1-46.2,0-69.3,0.3
		c-14.8,0.2-29.7,1-44.5,1.3c-14.2,0.2-28.3,0.1-42.5,0.2c-8.6,0.1-17.2,0.6-25.8,0.3c-25.8-0.9-51.6-2.3-77.4-3.2
		c-10.8-0.4-21.6,0.3-32.4,0.2c-19.2-0.1-38.5-0.5-57.7-0.6c-25.8-0.3-51.6-1.2-77.4,0.3c-14.5,0.9-29,0.1-43.5,0.5
		c-21.4,0.5-42.8,1.3-64.2,1.9c-13.5,0.4-27,0.5-40.5,1.1c-6.2,0.3-12.5-0.1-18.5,1.9c-1.8,0.6-3.3-0.1-4.2-1.9
		c-2.6-5.3-4.9-10.5-4.7-16.8c0.6-21.4,0.6-42.8,0.8-64.3c0.2-16.9,0.2-33.7,0.5-50.6c0.3-18.4-1.5-36.7-2.7-55
		c-1-14.9-2.4-29.9-1.9-44.9c0.4-13.1-0.2-26.3,0-39.4c0.2-9.9,21.7,29.2,22.1,19.2c0.2-4.4,29.3,16.6,29.3,12.2
		c0-15.3,61.8,30.2,61.7,14.9c-0.1-16.5,110.6,22.9,110.7,6.3c0.2-25.3,90.9,85.8,91.3,60.5c0.2-13.6,0.9-27.3,1.1-40.9
		c0.2-9.6,0-19.2,0-28.8c0-9.4,0-18.9-0.2-28.3c-0.1-4.5-0.7-9.1-1.2-13.6c-1.5-12.3,44,48.7,45,36.4c0.2-2.5,0-5.1,0.3-7.5
		c0.6-5.3,0.3-11.1,2.3-15.9c2.5-6.1,6.8-11.4,14.6-11.3c8.3,0.2,16.5,0.6,24.8,0.8c18.7,0.5,37.4,0.8,56.1,1.5
		c12.5,0.4-19.9-71.4-7.5-71.5c16.9-0.1,33.7-1.3,50.6-1.9c18.2-0.6,36.4-1.4,54.6-1.5c45-0.3-222.7-327.9-177.6-328
		c16,0,32,0.4,48.1,0.2c16.5-0.2,33.1-0.9,49.6-1.4c19.6-0.6,39.1-1.5,58.7-1.7c30-0.2,60.1-0.1,90.1,0.3
		c30.7,0.4,61.4,0.8,92.1,2.1c53.6,2.3,107.2,4.4,160.9,3.2c18.4-0.4,36.8,0.3,55.2,0.6c7.7,0.1,15.5,0.2,23.2,0.8
		c5.3,0.4,10.6,1.6,15.8,2.7c2.7,0.6,3.8,3.2,3.4,7c-0.7,6.4-1.2,12.8-2,19.1c-1.8,14.3-0.8,28.6-0.6,43c0.2,12.6-0.1,25.3,0.1,37.9
		c0.3,17.7,1,35.4,1.5,53.1c0.1,4.6,0.3,9.1,0.5,13.7c0.8,24.4,1.8,48.9,2.2,73.3c0.2,13-0.5,26-1.2,38.9c-1,18.2-3,36.3-3.5,54.5
		c-0.7,24.1-0.5,48.2-0.6,72.4c-0.1,15.2,0,30.4,0.1,45.6c0,9.9,0,19.9,0,29.8C462,1969.9,462.1,1969.9,462.2,1969.9z"/>
	<path class="st1" d="M447.3,1484l-582-2.1l1.5,71.1l-1.8,108v107.3l-19.3-3.8l-9.7,6l-18.3,7.1l-9.6-4.8l-9.2,14.6l-24.8,13.2
		l-18.7-1.1l-21.3-9.2l-10.9-1.1l-11.7,7.9l-12.6,25.7l3.1,5.9v12.5l-13.8,14.9l1.9,14.7l-194.1,1.8v67.7l4,116.7v71.3l2.8,10.9
		l13.3-2.1h105.7l51.2-2.2v-8.4l3.1-11.4l11.9-7.6v-17.9l1.9-26.4l1.8-34l7.2-14.9l17.3-17l19.7-8l11.1-2.6v6.6l-13.3,9.5l-3.5,6.6
		l9,4.9l8.4-3l9.6,1.1l9.7,6.6l12.6-3.8l9.9-9.8l13.2-11l19-5.5l10.2-3.7l11.3-2.4l5.5,4.9l4.8,10.8l8,2.7l4.6-4.1l0.6-18.6l8-11.8
		l9.5-14.6l15.4-10.5l23-5.9l19.8-0.4l18.7,2.9l11.3-2.6l32.6,4.7l13.9-6.5h8.3l19.5,3l15-4l4.8-11.8l-5.5-16.1l3.6-6.2l2.6-5.9
		l-5.5-22.3l1.9-5.5l11.6-5l35.9-4.5l17.9-7.7l10.6-10.1l19.4,3.3l11-6.1l13.3-6.4l19.2-2.6l3-6.1l-4.9-4.2l-11.2-1.5l-1.1-4.8
		l2.6-9.8l9.8-10.6l3.8-9.7l-5.5-11.4l-12.7-6l-10-5.9l-2.2-4l12.1-19.4v-12.8v-15.8l6.2-10.1h6.6l3.6,15.7l7.4,8.6l10.4-2.3
		l11.9-6.3l8.4-10.6l7.3-12.1l11.4-7l16.1-7.3l16.8-11.7l8.9-9.9l7.2,0.7l5.5,6.6l2.3,14.9l4.6,6.7h5.5l4.6-13.7l5.2-49.3l5.9-11.5
		l5.9-9.7l-4-5.8h-15.4l-10.6-4.4l-9.3-6.5l-5.5-14.5v-17l9.5-3.9l6-7.1l-2.5-14.7l3.8-4.1l16-3.2l9.4-6.9l4.2-8.6l2.9-2.7l11,6.2
		H374l9.1,5.6l8.4,1.3l-1.1-4.7l2.2-5.6l13.5,17.4l11,17h8.8l10.6-3.7l5.9-7.6l4.8,2.7l1.8,7.9l4.4,4.8h4.4l3-49.9L447.3,1484z
		 M-152.1,1849.1l-5.9,5.1l-8-7.7v-8.3l1.7-15.3l7.4-0.6l7.1-9l2.9,17.4L-152.1,1849.1z"/>
	<polygon class="st1" points="-301.2,1481.4 -334.3,1482.8 -339.3,1490.6 -345.6,1501.4 -344.5,1512 -337.3,1520 -347.1,1529.7 
		-365,1537.4 -387.4,1537.4 -398.6,1538.5 -411.9,1543.8 -441.5,1542.3 -452.8,1553.4 -468.6,1553.4 -482.1,1562.5 -488.1,1558.8 
		-490.2,1549.9 -478.8,1539.7 -472,1526.4 -469.3,1522.6 -453.2,1522.2 -447,1519.3 -447,1511.7 -469.2,1504.9 -484.3,1498.9 
		-487.4,1490.6 -481.5,1478.4 -496.3,1477.4 -501.5,1485.2 -504.2,1536 -501.5,1571.4 -504.2,1747.3 -499.7,1787.7 -468.2,1794 
		-455.4,1790.4 -422.5,1790.4 -406,1790.4 -401.3,1771 -396.4,1729.8 -377.9,1747.2 -377.6,1737.5 -384.5,1725 -394,1713.7 
		-394,1699.4 -401.2,1693.6 -413.5,1690.6 -417.2,1683 -415.8,1671.3 -417.4,1657.9 -425.4,1651.5 -445.2,1645.6 -465.3,1643.9 
		-472.1,1637.2 -468.7,1632.8 -472,1625.9 -472,1621.7 -475.4,1614.2 -455.2,1607.4 -438.8,1608 -429.7,1614.2 -408.9,1608 
		-404.3,1600.1 -409,1577.7 -404.3,1575.8 -396.4,1578.3 -388.5,1589.4 -381,1589.4 -372.2,1585.9 -356.6,1569 -333.9,1556 
		-330,1536.1 -321.7,1528.7 -312.7,1525.7 -296.6,1515.7 -285.7,1507.5 -272.3,1492.3 -265.4,1482.3 	"/>
	<polygon class="st0" points="-330.7,1539.7 -323.7,1528.7 -312.7,1525.6 -299.3,1517.3 -280.5,1499.6 -268.6,1514.4 -266.7,1532 
		-273,1546.5 -284,1555.9 -299.3,1559.6 -317.5,1554.1 	"/>
	<path d="M467.2,1728.6c-0.4-24.5-1.4-48.9-2.2-73.3c-0.1-4.6-0.3-9.1-0.5-13.7c-0.5-17.7-1.2-35.4-1.5-53.1
		c-0.2-12.6,0.1-25.3-0.1-37.9c-0.2-14.3-1.2-28.7,0.6-43c0.8-6.4,1.4-12.7,2-19.1c0.4-3.8-0.7-6.5-3.4-7
		c-5.2-1.1-10.5-2.2-15.8-2.7c-7.7-0.6-15.5-0.7-23.2-0.8c-18.4-0.3-36.8-1-55.2-0.6c-53.7,1.2-107.3-0.9-160.9-3.2
		c-30.7-1.3-61.4-1.7-92.1-2.1c-30-0.4-60.1-0.5-90.1-0.3c-19.6,0.1-39.1,1.1-58.7,1.7c-16.5,0.5-33.1,1.2-49.6,1.4
		c-16,0.2-32-0.2-48.1-0.2c-45,0.1-90.1,0.1-135.1,0.5c-18.2,0.1-36.4,0.9-54.6,1.5c-16.9,0.6-33.7,1.8-50.6,1.9
		c-12.5,0.1-24.9-1.3-37.4-1.7c-18.7-0.6-37.4-1-56.1-1.5c-8.3-0.2-16.5-0.6-24.8-0.8c-7.8-0.2-12.1,5.2-14.6,11.3
		c-2,4.8-1.7,10.5-2.3,15.9c-0.3,2.5-0.1,5-0.3,7.6c-1,12.3-1.7,24.6-0.2,36.9c0.6,4.5,1.1,9.1,1.2,13.6c0.2,9.4,0.2,18.9,0.2,28.3
		c0,9.6,0.2,19.2,0,28.8c-0.3,13.6-0.9,27.3-1.1,40.9c-0.4,25.3-0.9,50.6-1,75.9c-0.1,16.5,0.3,33.1,0.4,49.6
		c0.1,15.3,0.1,30.6,0.1,45.9c0,4.4-0.3,8.8-0.5,13.1c-0.4,9.9-1.2,19.9-1.3,29.8c-0.2,13.1,0.3,26.3,0,39.4
		c-0.4,15,0.9,30,1.9,44.9c1.2,18.3,3,36.6,2.7,55c-0.3,16.9-0.3,33.7-0.5,50.6c-0.2,21.4-0.3,42.8-0.8,64.3
		c-0.2,6.3,2.1,11.5,4.7,16.8c0.9,1.8,2.4,2.5,4.2,1.9c6-2,12.3-1.6,18.5-1.9c13.5-0.7,27-0.7,40.5-1.1c21.4-0.6,42.8-1.4,64.2-1.9
		c14.5-0.3,29.1,0.4,43.5-0.5c25.8-1.6,51.6-0.6,77.4-0.3c19.2,0.2,38.5,0.5,57.7,0.6c10.8,0.1,21.6-0.5,32.4-0.2
		c25.8,0.9,51.6,2.3,77.4,3.2c8.6,0.3,17.2-0.2,25.8-0.3c14.2-0.1,28.3,0.1,42.5-0.2c14.8-0.3,29.7-1.1,44.5-1.3
		c23.1-0.3,46.2-0.2,69.3-0.3c15.7-0.1,31.4-0.5,47.1-0.5c10.8,0,21.6-0.5,32.3,0.6c16.9,1.6,33.7,2.2,50.5,0.9
		c17.7-1.3,35.4-0.8,53.1,0.2c13.1,0.7,26.1,1.5,39.3,1.1c22.1-0.7,44.2-0.4,66.3-0.5c15.5-0.1,31-0.3,46.5-0.5c1.3,0,2.7-0.1,4,0.2
		c6.3,1.5,12.4,0,18.6-0.9c3.1-0.4,4.9-1.9,5.1-5.2c0.1-2.2,0.6-4.3,0.7-6.5c0.1-4-0.1-8.1-0.1-12.1c0.3-15.3,0.6-30.7,0.9-46
		c0.2-12.8,0.2-25.6,0.4-38.5c0.4-21.1,0.8-42.2,1.3-63.2c-0.1,0-0.2,0-0.3,0c0-9.9,0-19.9,0-29.8c0-15.2-0.1-30.4-0.1-45.6
		c0.1-24.1-0.1-48.3,0.6-72.4c0.5-18.2,2.5-36.3,3.5-54.5C466.7,1754.6,467.4,1741.6,467.2,1728.6z M-125.5,1483.8
		c9.4-0.3,18.9-0.9,28.3-0.8c15.5,0.2,31,1.1,46.5,1.3c24.8,0.3,49.6,0.4,74.4,0.4c20.7,0,41.5-0.4,62.2-0.4
		c6.9,0,13.8,0.8,20.7,1.1c5,0.2,10.1-0.1,15.1-0.1c9.6,0,19.2-0.3,28.8,0c23.8,0.9,94.9,2.8,96.7,2.7c16.8-0.6,33.7-1.4,50.6-1.5
		c22.3-0.1,44.5,0.4,66.8,0.6c22.8,0.3,45.5,0.6,68.3,0.9c5.9,0.1,11.8,0.2,17.6,0.3c2,0.1,3.9,0.3,6.5,0.5
		c-0.6,5.2-1,10.1-1.7,14.8c-0.9,6.5-1.6,13-0.9,19.7c0.3,2.5-0.1,5-0.4,7.6c-0.1,1.3-0.3,1.3-3,1c0-0.3-0.1-0.7,0-1
		c1.5-5.3,0.3-8-4.5-10.7c-3.5-1.9-6.9-1.2-8.4,2.5c-1.9,4.4-5.5,5.4-9.6,6.3c-7.9,1.7-13.2-1.3-17.3-8c-4.2-6.9-9-13.5-13.7-20
		c-2-2.8-4.3-5.6-9.1-6.3c0,4.2,0,7.8,0,11.7c-3.6-0.9-6.8-1.7-9.4-4c-2.4-2.2-5.4-3.5-8.8-3.4c-4,0.1-7.6-1.3-11.1-3
		c-2.1-1-4.3-2.1-6.5-2.7c-4-1-6.4,1-6.6,5.1c-0.4,7.5-1,8.6-8.1,10.8c-6.1,1.9-12.1,4.1-18.7,3.1c-0.8-0.1-1.7-0.1-2.5,0.1
		c-7,1.8-13.7,0.5-20.2-2.3c-7.1-3.1-14.3-3.2-21.7-0.8c-10,3.3-20.1,4.1-30.4,1.7c-4.8-1.1-9.4-2.5-14.1-3.9
		c-6.5-1.9-12.9-2.1-19.3,0.7c-7.1,3-14.3,3.8-21.5,0.1c-2.4-1.2-4.9-2.2-7.5-3c-4.4-1.2-8.8-0.8-12.8,1.2
		c-6.5,3.2-13.4,3.1-20.2,2.7c-7.2-0.3-14.3-1.9-21.5-3c-0.7-0.1-1.3-0.2-1.9-0.5c-7.4-3.5-15-2.6-22.2,0.1
		c-8.8,3.3-17.6,2.6-26.5,1.1c-8.7-1.4-17.3-3.2-26.1-3c-3.6,0.1-7.4,0.6-10.9,1.8c-14.1,4.7-28.1,4.9-42.1-0.3
		c-5.2-1.9-10.6-1.8-16-1.3c-5.9,0.5-11.7,1.3-17.5,2.5c-10.8,2.2-21.2,1-31-4c-3.8-2-7.5-2.6-11.7-2c-2.2,0.3-4.4,0.3-6.5,1
		c-9.8,3.3-19.4,1.5-28.8-1.7c-4.9-1.7-9.4-4.4-15.3-3.5c-0.2-4.2-0.4-7.9-0.6-11.7C-127.8,1484.2-126.7,1483.8-125.5,1483.8z
		 M401.4,1625.6c1,1.9,2.2,3.7,3.4,6c-1.4,1.2-2.8,2.4-4.2,3.5c-3.1,2.6-4.6,5.8-4.1,9.8c0.5,3.5,1.1,7,1.9,10.4
		c0.5,2.4,2.2,3.8,4.5,4.4c0.8,0.2,1.7,0.3,2.5,0.4c5.6,1,11.2,1.9,16.4,4.7c5.8,3.2,11.9,3.4,17.1-0.7c2.8,3.3,5.7,5.9,7.7,9.1
		c1.4,2.3,2.6,5.4,2.3,8c-0.4,3.8-1.8,7.5-3.4,11c-1.3,2.9-2,5.5-1,8.7c1.5,5,0.8,6.2-4.4,7.6c-3.5,0.9-5.6,3-6.5,6.3
		c-1,3.5-3.2,6.2-5.8,8.7c-3.6,3.3-6.9,6.9-10.5,10.2c-1.2,1.1-2.7,2.1-4.2,2.3c-5.9,0.7-10.4,3.7-13.9,8.3c-3.7,4.9-2.6,9.6,3,12.3
		c2.3,1.1,4.7,1.9,6.8,3.2c3.2,2,3.5,2.6,2.2,6.2c-0.9,2.5-2,5-3.6,7.2c-2.3,3.2-5.1,5.7-9.8,4.8c-3.6-0.6-6.9,0.5-9.9,3
		c-4.5,3.7-9.9,5.6-15.6,6.8c-4.3,0.9-8.4,2-13,1.4c-3.5-0.5-4.2,0.6-5.2,5.5c-3.4-0.1-6.3-1.7-9.4-2.9c-5.8-2.3-11.5-4.7-17.4-6.9
		c-8-2.9-10.1-1.2-9.4,7.4c0.1,0.8,0.2,1.6,0.4,2.7c-4.6-0.4-8.8-0.6-12.9-1.2c-3.7-0.6-6.1,0.8-8,3.9c-2.7,4.4-3.9,9.3-4.5,14.4
		c-0.2,1.5,0.6,3.4,1.5,4.6c3.3,4.2,6.9,8.2,10.4,12.3c2.2,2.5,4.9,4.8,6.4,7.7c1.5,2.7,2.1,6,2.5,9.1c0.4,2.6,0.1,5.4,0.1,8.1
		c-0.1,3.1,1.2,5.4,3.4,7.5c4.3,4,7.3,8.7,8.1,14.7c0.7,4.8,1.9,9.6,2.1,14.5c0.4,7.7-0.6,15.3-6.4,21.2
		c-6.2,6.3-8.3,14.5-11.4,22.3c-0.5,1.2-0.4,2.7-0.5,4c-0.4,6.3,0.2,7.3,6,9.1c1.1,1.9,0.4,3.3-1.3,4.1c-7.4,3.4-12.9,9.1-18,15.1
		c-0.3,0.3-0.8,0.5-1.2,0.7c-2.7-3.3-4.8-9.8-10.6-6.3c-5.7,3.4-1.6,16.1-1.6,16.1c0.5,2.5,0.9,4.9,1.4,7.4c0.8,3.6,2.9,5.9,6.6,6.9
		c4.1,1,8.1,2.1,12.1,3.3c3.1,0.9,4.8,2.8,5.4,6.4c0.8,5.1,3.7,9.9,2.6,15.3c-0.4,1.9-1,4.3-2.4,5.2c-3.8,2.6-5.7,6-6.1,10.5
		c-0.1,1.3-0.6,2.6-1,4.2c-4,1.5-8.2,1.3-12.3,0.6c-4.8-0.8-9.5-2.1-14.4-2.7c-2.2-0.3-4.6,0.5-6.9,1c-1.9,0.4-3.8,1-6.4,1.8
		c-1.1-5.5-3.9-8.9-7.5-11.9c-2.6-2.1-2.9-5.4-1.1-8.3c1.1-1.8,2.5-3.8,4.2-4.9c3.1-2.1,4.8-5.2,6.4-8.3c0.7-1.4,0.7-3.2,1-4.8
		c0.3-1.4,0.2-3.2,1-4.2c4.8-5.1,6-11.6,7.2-18c0.7-3.6,0.9-10.6,1.3-14.3c0.1-0.8,6.6-5.4,7.2-11.5c0.5-6-11.7-9.1-17.4-10.5
		c-6.4-1.6-12.6-3.8-18.8-5.8c-3.6-1.2-5.8-3.5-6.4-7.6c-0.8-5.3-5.9-8.8-11.1-7.8c-5.3,1-10.5,2.3-15.7,3.7
		c-5.4,1.5-9.6,0.3-13.5-4.3c-1.4-1.7-2.6-3.5-4.1-5.1c-2.3-2.5-4.5-5-8.5-4.7c-1,0.1-2.4-1.5-3.3-2.6c-1.2-1.4-1.6-3.6-3-4.6
		c-3.1-2.4-2.6-4.8-1.4-7.9c2.7-6.8-1.9-13.9-8.9-14.3c-2.7-0.2-4.9,0.6-6.3,3.2c-1.3,2.3-3.1,4.4-4.6,6.7c-2.5,3.9-6,4.6-10.1,3.5
		c-3.4-0.9-6.7-2-10.6-3.1c1.5-2.3,2.8-4,3.9-5.9c3.1-5.8-0.1-10.9-6.7-10.8c-7.3,0.1-12.8,3.8-17.7,8.6c-4,4-8.7,6.2-13.4,6.2
		c-2.4-3.5-4.2-6.4-6.5-9c-0.9-1-2.7-1.7-4-1.6c-4.7,0.6-9.2,2-12.8,5.5c-2.3,2.3-2.5,5.1-1.8,8c0.5,2,1.3,3.8,2,5.7
		c0.9,2.5,0.9,4.9-0.9,7.6c-1.9-0.4-3.9-0.5-5.7-1.1c-3.4-1.3-3.8-2.9-3.6-6.6c0.1-3.1-0.4-6.3-1.2-9.4c-1.1-4.1-2.7-8-3.9-12
		c-1.7-5.7-0.1-8.7,5.7-10.1c4.6-1,9.3-1.8,14-2c12-0.4,23.8-2,35.4-5.2c5.7-1.6,10.4-4.7,13.8-9.6c4.4-6.3,6.5-7,13.6-5
		c8.4,2.3,16.5,1.9,23.1-4.5c5.6-5.4,12.2-6.6,19.5-6.7c5.1,0,10.1-0.7,14.3-4c1-0.8,2.1-1.7,2.7-2.9c2.5-4.3,0.9-8.6-3.8-10
		c-2.1-0.6-4.3-0.7-6.5-0.8c-1.8-0.1-3.6,0-5.8,0c-1-6.8,1.6-12,5.8-16.6c0.6-0.6,1.2-1.2,1.9-1.6c8.4-6,8.9-14.1,6.2-23
		c-1.4-4.7-5-7.5-9.4-9.2c-4.7-1.9-9.4-3.6-14.2-5.3c-3.2-1.2-4.2-3.1-2.9-6.2c0.8-2,1.8-4,3.1-5.8c7.2-9.8,9.6-20.7,7.6-32.6
		c-1-5.7,0.9-10.6,3.7-15.4c0.4-0.7,1.1-1.1,2.4-2.2c0.8,2.6,1.3,4.6,2,6.6c1.3,4.1,2.3,8.5,4.2,12.4c2.4,5.1,6.5,7.8,12.7,6.8
		c14.8-2.5,26.4-9.2,31.7-24c1.9-5.4,5.4-9,10.3-11.1c8.1-3.5,15.8-7.5,23.2-12.4c6.8-4.4,13.6-8.8,18.5-15.5c0.8-1.1,1.7-2.1,2.7-3
		c3.8-3.2,9.1-1.8,10.4,3.1c1.1,4,1.8,8.2,2.5,12.4c0.6,3.3,2,6,4.5,8.3c4.7,4.3,9,3.8,11.8-1.9c1.7-3.5,3.1-7.2,3.8-10.9
		c2.9-14.2,5.2-28.5,5.9-43c0.3-6.5,1.4-12.8,7-17.2c0.6-0.5,1.1-1.3,1.6-1.9c5.5-7.2,1.9-16.1-7.1-17.3c-4.3-0.6-8.8-1-13.1-0.6
		c-7.6,0.7-12.9-2.9-17.6-8.1c-1-1.1-1.8-2.4-2.8-3.9c0.4-0.7-1.3-9.8-1.5-11c-0.5-4.6-0.7-9.3-1-14.4c7.2,0.2,11.5-4.1,14.4-9.1
		c3.2-5.4,0.3-11.5-0.5-17.3c2.7-2.4,5.6-3.8,8.9-4.7c4.9-1.2,9.8-2.6,14.6-4c5.4-1.7,8.6-5.1,8.3-11.1c0-1,0.2-2,0.5-3.7
		c1.9,0.4,3.7,0.4,5.2,1.1c5.2,2.6,10.5,4.6,16.4,4.8c1.3,0,2.9,0.5,3.7,1.3c2.9,3.5,7.2,4.3,11,5.9c4.9,2.2,6.6,0.8,6-4.4
		c-0.1-1-0.3-2-0.6-3.9c1.4,1.3,2.3,1.8,2.9,2.7c3.6,5.1,7.2,10.2,10.8,15.3c2.2,3,4.3,6.1,6.7,8.8c2.9,3.3,6.8,4.9,11.3,4.5
		c2.3-0.2,4.7-0.2,7-0.7c4.3-0.9,8.6-2,10.3-7c0.3-0.8,1.7-1.1,2.6-1.7c0.5,0.8,1,1.6,1.4,2.4c0.1,0.3,0,0.7,0,1
		c0.4,6.2,0.9,6.9,7.6,9c0.1,1.6,0.2,3.4,0.2,5.1c-0.3,13-0.7,25.9-1,38.9c-0.1,2.3-7.5,20.4-10.3,24.7c-1,1.6-2.3,2.9-4.1,5
		c-4.1,0-8.8,0.2-13.4-0.1c-6.3-0.3-12.5,0.4-18.5,2.1C399.8,1615.7,398.3,1619.3,401.4,1625.6z M59.5,1909c-1.2-0.1-2.5,0-3.6-0.4
		c-4.9-1.6-10-1.5-15.1-1.2c-7.2,0.5-14.5,0.8-21.7,1.6c-8.5,0.9-16.2-1.7-23-6.3c-5.9-4-12-4.8-18.7-3.6c-9,1.5-17.9,2.7-27.1,2.1
		c-7.9-0.5-15.2-3.1-22.6-5.3c-8.6-2.6-16.8-2.5-25.3,0.7c-8.9,3.3-18,1.7-26.9-0.5c-4.1-1-8.1-2.5-12.2-3.2c-6.7-1-13,0.9-19.3,2.9
		c-5.3,1.7-10.7,3.1-16,4.5c-9.3,2.5-18.2,0.5-26.7-2.7c-11.8-4.5-23.3-3.9-35,0.4c-7.4,2.7-15.2,3.9-23.4,2.6
		c-6.7-1.1-13.2-2.5-19.6-4.8c-6-2.2-12.2-1.8-18.4-0.2c-7.3,1.9-14.7,3.8-22.1,5.1c-4.6,0.8-9.4,0.8-14.1,0.6
		c-6.7-0.2-12.8-1.9-18-6.8c-5.7-5.3-12.8-5.2-19.4-1.9c-4.4,2.2-8.9,3.1-13.6,3.3c-2.1,0.1-4.5-0.2-6.3-1.1
		c-6-2.9-11.8-3.2-18.1-0.9c-12.4,4.7-25.4,5.2-38.4,4.9c-5.5-0.1-11.2-0.6-16.6-1.6c-4.7-0.9-9.9-1.9-13.7-4.6
		c-5.6-3.9-11.1-4.2-17.3-3.4c-1.8,0.2-3.6,0.5-6.1,0.8c0-4.5,0-8.1,0-11.7c13.8-0.3,27.2-0.9,40.6-2.1c22-2,44-3,66.2-2.2
		c14.5,0.5,29,0.2,43.5,0.6c10.1,0.2,20.2,0.9,30.3,1.4c1,0.1,2.1,0.2,2.9,0.6c3.2,1.7,6.5,1.3,9.9,0.9c13.1-1.7,26.2-1.8,39.4-1.6
		c9.4,0.1,18.9-0.4,28.3-0.4c7.4,0,14.8,0.5,22.3,0.4c18.7-0.3,37.4-0.9,56.1-1.3c6.7-0.1,13.7-1,20.2,0.3c5.3,1.1,10.3,0.2,15.4,0
		c3.3-0.1,6.2,0.5,9.2,2.1c6.2,3.4,12.5,6.9,20,6.3c4.3-0.3,8.8-0.9,12.9-2c7.1-1.9,13.9-1.7,21,0.1c12.5,3.3,24.9,7.6,37.9,8.9
		c4.3,0.5,8.7,0.3,13-0.1c7.2-0.7,14.4-2.1,21.6-2.6c6.8-0.4,13.4,0.7,19.9,3.1c7.2,2.6,14.7,3.7,22.4,3.4c3-0.1,6,0,9.8,0
		c-2,2.9-4.1,4.8-4.7,7.2C58.4,1903.3,59.2,1906,59.5,1909z M-489.5,1562.2c3.3,3.2,9,3.1,13.4-0.2c0.5-0.4,1.1-0.9,1.5-1.4
		c3.7-4.9,8.8-5.8,14.5-5.2c1.5,0.2,3,0.1,4.6,0.1c3.2,0.1,6.1-0.7,8-3.4c1.6-2.2,3.4-2.7,6-2.5c4.5,0.3,9.1,0.1,13.6,0.3
		c1.4,0.1,3,0.6,4.3,1.3c7.2,4.1,14.6,4.5,22.4,2.4c3.7-1,7.4-2.2,11.2-2.8c2.9-0.4,6.1-0.4,9,0.1c4.1,0.7,8.2,1.9,12.2,3.2
		c4,1.2,7.9,0.9,11.9-0.1c4.2-1.1,8.5-2.1,12.8-2.8c2.4-0.4,4.9-0.1,8.3-0.1c-2,5.4-5.4,7.5-9.3,8.6c-6.6,2-12.5,5.1-17.1,10.3
		c-1.9,2.1-3.9,2.4-6.3,1.3c-3.4-1.5-6.8-1.5-10.4-0.7c-8.9,1.9-17.8,0.1-26.6-1.1c-2.5-0.3-5-0.8-7.5-0.6
		c-8.1,0.7-16.1,0.1-24.1-1.7c-6.2-1.4-12.3-1.7-18.4,0.6c-6.1,2.3-12.4,2.8-18.9,1.1c-6.9-1.8-13.9-2.1-21.3-0.8
		c-1.2-8.6-4.3-16.6-2.9-25.1c6.9-4,10.6-4.4,14-1c-1.4,1.1-2.9,2.2-4.3,3.4C-494.2,1550.1-494.5,1557.5-489.5,1562.2z
		 M-237.8,1579.2c-4.5-0.7-8.6-1.9-12.5-4.1c-1.6-0.9-2-2.1-1.8-3.8c0.1-1.2,0.3-2.4,0.3-3.5c0-5.8-3-8.4-8.7-7.4
		c-1.7,0.3-3.3,0.6-4.9,1.1c-4.1,1.2-7.6,0.3-10.7-2.6c-5.8-5.4-11.6-10.8-17.4-16.2c-5.3-5.1-10.6-10.3-16-15.5
		c4.8-5.6,12.9-6.3,18.5-11.4c5.5,4.2,11,7.4,17.4,9.4c5.6,1.7,10.7,1.1,15.6-1.5c4.1-2.2,8.6-2.9,13.1-3.2c4.3-0.3,6,1,7.5,5.2
		c1.2,3.5,2.3,7,3.4,10.6c1.4,4.7,4.2,8.4,7.8,11.6c1.5,1.3,2.6,2.9,4.6,5.1C-232,1559.1-236,1568.3-237.8,1579.2z M-219,1585.5
		c-4.3-1.2-8.1-2.3-11.7-3.4c-0.6-7.4,0-10.1,3.6-15.7C-224.2,1569.2-219.4,1580-219,1585.5z M-300,1514.5c-3.2,1.8-6.6,3.4-9.9,5.1
		c-3.2,1.7-6.4,0.9-9.2-0.5c-4.3-2.2-8.7-2.7-13.2-1.5c-3.1,0.8-5.2-0.1-6.8-2.6c-1.1-1.7-2.2-3.3-3.5-5.2
		c7.9-4.4,15.2-3.5,22.4-0.3c4.5,1.9,8.9,0.8,13.4,0.1c2.7-0.4,5.3-1.3,7.9-1.5c1.9-0.2,3.8,0.2,6.4,0.3
		C-294.8,1511.7-297.4,1513.1-300,1514.5z M-336.1,1524.7c0.4-0.3,0.7-0.9,1.1-1c4.2-0.5,8.4-2.9,13.3-0.2
		c-9.5,4.7-11.9,12.9-12.5,22.9c-8.9-1.9-16.4,0.8-24.1,2.7c-4,1-8,1.1-12-0.1c-3.1-0.9-6.2-1.6-9.3-2.5c-4.5-1.3-8.8-1.4-13.4-0.1
		c-7.6,2.1-15.3,4.2-23.4,2.9c-2.3-0.4-4.6-0.7-6.3-3.2c1.9-1.5,3.9-0.7,5.7-0.7c4.6,0.2,9.1,0,13.4-2c0.3-0.1,0.7-0.1,1-0.3
		c5.9-4.6,12.6-4.9,19.7-3.5c2.8,0.6,5.7,0.2,8.6,0.5c12.4,1.1,23.2-2.9,32.9-10.3C-339.5,1528.3-337.9,1526.4-336.1,1524.7z
		 M-368.3,1576.3c-3.3,4.5-6.4,8.4-11.7,8.6c-5.9,0.2-11.9-0.4-14.1-8.7C-385.5,1578.7-377.4,1574.1-368.3,1576.3z M-498.5,1627.9
		c8.9-1.8,17.4-3.1,25.5,3c-0.3,0.7-0.6,1.6-0.9,2.4c-1.2,3.2-0.4,6.2,2,8.3c2.7,2.5,5.8,4.3,9.6,5.2c6.9,1.7,13.9,2.1,21,2.6
		c7.3,0.5,14,3.1,20.9,7.9c-4.7,1.1-8.3-0.1-11.4-1.4c-5.8-2.5-11.4-2.6-17.3-0.9c-6.4,1.9-12.3,1.2-17.3-3.6
		c-1.7-1.6-3.6-1.1-5.7-0.6c-3.7,0.9-7.6,1.6-11.4,2c-1.7,0.2-3.8-0.2-5.3-1.1c-2.9-1.7-5.8-2.5-9.5-0.9
		C-499.3,1643.1-498.3,1635.8-498.5,1627.9z M-474.5,1611c-6.8,0.4-7.3,4.9-4.1,9.2c0.2,0.3,0.3,0.6,0.9,1.6c-7.1,0-13.6,0-20.5,0
		c-0.2-8.4-0.9-16.5,0.8-24.3c0.5-0.3,0.8-0.6,1.1-0.7c7.1-2.7,13.9-2.4,20.9,0.7c3.3,1.5,6.9,0.9,10.4-0.4c1.9-0.7,3.9-1.1,5.8-1.8
		c4.2-1.5,8.3-1.3,12.3,0.6c7.6,3.5,15.5,4.3,23.7,2.3c3.8-0.9,7.7-1.1,11.5-0.2c1.6,0.4,3.5,0.2,3.9,2.4c0.5,2.3-0.7,4.8-3,5.8
		c-2.5,1-5.1,1.8-7.7,2.5c-2.9,0.8-5.9,1.3-8.8,2.2c-2.8,0.8-4.9-0.5-7-1.9c-3.3-2.2-6.9-3.2-10.8-4c-5.4-1.1-10.2,0.3-15.2,2.1
		C-465,1608.8-469.7,1610.7-474.5,1611z M-409,1592.8c-8.1-1.8-15.8,0.6-23.7,1.1c-3.4,0.2-7-0.8-10.4-1.4c-1.1-0.2-2.3-0.7-3.3-1.2
		c-5.5-2.5-10.9-2.5-16.7-0.6c-9.7,3.3-9.9,3.4-18.4,0.1c-4.1-1.6-7.8-1.5-11.7-0.5c-0.9,0.2-1.9,0.4-3.5,0.7c0-3,0-5.6,0-8.2
		c0-2.5,0-5,0-7.6c3.1-2.3,6.5-3.1,10.1-3c3.5,0.1,7.2,0.2,10.5,1.2c7.9,2.3,15.6,1.9,23.2-0.8c4.3-1.5,8.6-1.6,13-0.8
		c9.6,1.6,19.1,3.9,29.6,2.3C-413.9,1580.9-408.4,1586.2-409,1592.8z M-489.3,1656.6c4.4,2.7,9.5,1.7,14.3,0.9
		c1.7-0.3,3.2-1,4.9-1.2c1.1-0.1,2.5-0.1,3.3,0.5c6.2,4.6,13,5.2,20.1,3.1c5-1.4,9.4-0.9,14.2,1.1c4.5,1.8,9.4,2.4,14.6,3.6
		c1.3,5-0.2,10-0.9,15.4c-6.7,0.2-13.2,0.9-19.7,0.6c-3.4-0.2-7.3-1.3-9.8-3.5c-5-4.3-10.4-4.3-16.1-3.3c-1.6,0.3-3.3,0.8-4.9,1.4
		c-4.1,1.4-8.2,1.9-12.3,0c-0.6-0.3-1.3-0.4-1.9-0.6c-4.3-1.2-8.4-3.8-13.6-1c-0.6-6-1.1-11.1-1.7-16.3
		C-495.5,1655.3-492.9,1654.5-489.3,1656.6z M-413.5,1749.9c-1.4,0.2-3-0.2-4.5-0.6c-1.1-0.2-2.2-0.7-3.4-1.1
		c-18.8-6.4-15.9-5.5-32.9-1.7c-4.3,0.9-8.4,0.6-12.4-0.8c-0.3-0.1-0.6-0.3-0.9-0.4c-7.9-3.8-16-5.1-24.3-1.4
		c-0.9,0.4-2,0.5-2.9,0.7c-0.3,0.1-0.7-0.1-1.8-0.2c0-4.5-0.1-8.8,0.1-13.1c0-0.9,1.3-1.9,2.2-2.4c5.3-3,11.1-3.9,17.1-3.9
		c0.8,0,1.7,0.1,2.4,0.5c9.2,5.1,18.8,4.5,28.5,2.4c5.7-1.2,11.2-1.3,16.7,1.3c6.1,2.9,12.6,3.4,19.2,1.3c3.6-1.1,7.3-0.8,11.2,0.5
		c1.3,5.7,0,11.2-1,16.6C-404.9,1748.5-409.2,1749.3-413.5,1749.9z M-401.3,1755.7c-0.7,4.2-1.3,8.6-2,12.7c-4.5,0.8-8.6,2-12.7,2.1
		c-3.8,0.1-7.9-0.3-11.3-1.7c-6.3-2.6-12.5-3.7-19.1-1.5c-9.8,3.3-19.3,1-28.8-1.7c-3.4-1-6.6-1-9.9-0.2c-3.9,0.9-7.8,1.6-12.4,2.5
		c0.3-5.6,0.5-10.2,1-14.9c0.1-1,1.6-2.2,2.7-2.5c4.4-1.3,8.8-2.4,13.2-3.3c1.5-0.3,3.3,0.3,4.9,0.8c4.8,1.4,9.5,3.4,14.5,4.3
		c3.2,0.6,6.6-0.2,10-0.4c0.8-0.1,1.6-0.4,2.4-0.6c8.4-2.6,16.6-1.8,24.6,1.7c2.3,1,4.7,1.9,7.2,2.3c2.4,0.4,5,0.3,7.4-0.2
		C-406.9,1754.7-404.3,1753.6-401.3,1755.7z M-399.3,1724.2c-5.2-0.1-10.4-0.6-15.5,1.1c-5.1,1.7-10.2,0.3-14.8-1.7
		c-6-2.7-11.9-2.8-18.2-1.3c-9.2,2.2-18.3,2-27.2-2c-4.6-2.1-9.6-0.5-14.4,0.5c-2.1,0.5-4.2,1.2-7.2,2c0-5,0-9.2,0-13.4
		c0-2.6,2.1-3.4,4-3.9c6.1-1.8,12.4-2.4,18.4-0.3c8.8,3,17.3,3.4,26.2,0.2c6.4-2.3,13.1-1.7,19.2,1.3c6.9,3.3,14.1,4.3,21.6,3.4
		c2.6-0.3,5.3-0.1,8-0.1c0.3,0.5,0.8,0.9,0.8,1.3c0.2,4.5,2.8,7.3,6,10.1c3.3,2.9,6.4,6,9.3,9.2c2,2.2,1.9,2.9,2,7.1
		c-4.5-2.8-8.6-5.6-11.5-9.7C-394.4,1725.5-396.4,1724.3-399.3,1724.2z M-396.5,1703.6c-8.8-0.5-17.6,2.4-26.5-0.1
		c-1.5-0.4-2.9-0.9-4.2-1.6c-8.1-4.2-16.6-4.5-25-1.4c-6.4,2.3-12.7,2.5-18.8,0.4c-7.8-2.7-15.5-2.9-23.4-1.1c-0.5,0.1-1,0-1.9,0
		c-0.3-5.8-0.8-11.4-0.9-17.1c0-3.2,4.6-5.6,8.6-4.6c2.6,0.7,5.2,1.5,7.7,2.4c5,1.9,9.9,0.9,14.9-0.2c3.7-0.9,7.6-1.3,11.4-1.5
		c1.1-0.1,2.5,0.8,3.5,1.6c6.2,5.4,13.5,6.6,21.3,5.7c1.8-0.2,3.7-0.6,5.5-0.5c2.3,0.1,4.8,0.3,6.3,2.6c3.8,5.8,9.5,8.3,16,9.4
		c0.8,0.1,1.7,0.2,2.5,0.4C-396.4,1698.9-396.2,1699.2-396.5,1703.6z M-490.8,1772.6c8.6-2.4,16.8-1.8,25.2,1.1
		c5.9,2,12.4,2.1,18.5,0.2c6.9-2.2,13.4-1.9,20.1,1.1c4.9,2.1,10.2,3.1,15.8,0.9c2-0.8,4.5-0.1,7-0.1c-0.2,4.7-2.4,8.1-4.9,11.3
		c-0.7,0.9-2.6,1.2-4,1.2c-10.3-0.4-20.5-0.9-30.8-1.4c-6-0.2-12.1-0.5-17.8,2.3c-3.8,1.8-7.9,2-11.9,1.1
		c-5.2-1.2-10.4-2.9-15.5-4.4c-2.7-0.8-5.5-1.4-8.5-2.2C-498.7,1775.1-498.1,1774.7-490.8,1772.6z M-398.3,1775.6
		c1.1-6.1,1.4-12.4,2.2-18.6c1-7.1,2.2-14.2,3.3-21.7c5.1,3.4,9.7,6.7,12.5,11.9c0.5,0.9,0.9,1.9,1.6,2.5c0.7,0.5,1.8,0.8,2.7,0.7
		c0.6-0.1,1.4-1.2,1.3-1.8c-0.7-6.6,0.3-13.8-4.1-19.5c-3.3-4.2-6.9-8.2-10.9-11.9c-2.3-2.2-4.2-3.8-2.4-7.2c0.4-0.8,0.4-2,0.5-3
		c1.6-8.9-2.8-14.8-11.7-15.7c-0.7-0.1-1.4-0.1-2-0.2c-7.1-1.5-8.5-3.4-8.2-10.7c0.2-4,0.4-8.1,0.7-12.1c0.5-9-3.8-15.2-11.6-19
		c-7-3.4-14.4-5.5-22.4-5.6c-5.5-0.1-11-1.3-16.5-2.2c-3.1-0.5-3.7-1.2-6.5-4.2c4.4-3.7,3.3-7.3-0.8-10.5c1.1-2,4.8-2.3,3-5.2
		c-1.1-1.8-2.8-3.1-4.5-4.9c7.4-2.3,14.3-4.9,21.5-6.5c5.1-1.1,10.4-0.5,14.9,3.1c0.8,0.6,1.8,0.9,2.6,1.5c2.8,2,5.5,2.2,8.9,1.1
		c5.2-1.8,10.7-2.8,16.1-4.2c3.9-1,5-3,5.4-7.2c0.5-7.1-1.4-13.7-3.2-20.4c-0.5-1.8-1.3-3.7,0.9-4.9c2-1.1,4.3-1.5,6.2,0.1
		c1.4,1.1,2.6,2.7,3.5,4.2c2.4,4.2,6.1,5.6,10.8,6.4c8.5,1.4,14.7-1.8,20.1-7.9c1.4-1.5,7.7-9.2,10.5-10.9c3-1.9,6-3.9,9.3-5
		c10.5-3.4,15.5-10.5,15.6-21.5c0-2.9,1.1-6,2.4-8.6c2.6-5.1,6.2-6.4,11.7-4.5c2.3,0.8,4.6,2.1,6.6,3.7c3.1,2.5,6,5.4,8.9,8.1
		c7.4,6.9,14.8,13.8,22,20.8c4.1,4,8.7,4.8,13.9,3.5c1.1-0.3,2.3-0.8,3.4-0.9c2.5-0.4,3.3,0.4,3.5,3c0,0.2,0,0.3,0,0.5
		c-1,7.9,1.6,10.6,10.5,13.5c10.2,3.4,20.7,6.2,30.9,9.5c3.7,1.2,7.1,3.1,10.7,4.5c4.7,1.9,9.4,3.6,14.2,5.4
		c0.6,0.2,1.3,0.4,1.9,0.6c5.9,2.2,6.8,3.8,5.3,9.9c-0.2,0.8-0.4,1.6-0.8,2.4c-3.3,7.2-4.2,14.9-4.4,22.6c-0.1,4.7-2,8.5-5.7,11.4
		c-2.4,1.9-4.8,3.2-8.3,2.3c-4-1-7.1,1.4-7.3,5.5c-0.2,6.3-2.9,11.2-7.5,15.4c-5,4.6-9.3,9.7-12.2,16c-1.9,4.3-2.4,8.8-2.2,13.3
		c0.1,3.4,2,4.1,4.7,2.1c2.3-1.7,4.4-3.7,6.7-5.3c3.6-2.5,5.9-1.8,6.5,2.4c0.6,4.2,3,6.9,5.4,9c-0.9,3.4-1.9,6.2-2.4,9.1
		c-0.4,2.4,0.5,4.4,2.8,6.1c2.2,1.6,4,3.9,6.5,6.5c-2.4,1-4,1.8-5.6,2.3c-4.6,1.6-5.7,3.1-4.8,7.9c1.2,6.5,3,12.8,6.3,18.6
		c0.5,0.9,3.9,7.6,6.4,9.2c3.3,2.1,3.6,3.1,2.1,6.6c-1.9,4.6-5.5,7.7-9.3,10.4c-3.8,2.8-7.7,5.5-11.9,7.6c-3.2,1.6-7,2.8-10.6,2.8
		c-6.7,0-13.4-0.9-19.7-3.9c-4.6-2.2-9.3-4.1-13.9-6.1c-1.4-0.6-2.9-1-4.3-1.5c-11.2-4.3-18.7,0.3-24.3,9.4c-3.7,6-6,12.8-8.9,19.2
		c-0.4,0.9-0.6,1.9-1,2.9c-1.8,4.5-2.7,5-7.6,4.9c-8.8-0.1-16.9-3.2-24.8-6.4c-8.6-3.5-17.2-4.6-26.2-3.1c-10.2,1.8-19.4-0.2-28-5.9
		c-3.9-2.6-8.3-4.5-12.3-7c-2.5-1.6-4.7-3.7-7.4-5.9C-401.9,1788.6-399.5,1782.3-398.3,1775.6z M-191,1793.7c1.3,0.5,2.5,1,3.7,1.6
		c4.1,2.3,8.3,2.5,12.7,1.1c2.7-0.9,5.4-1.9,8.1-2.7c5.1-1.5,10.1-2.2,15.3,0.3c2.4,1.2,5.1,1.6,8.6,2.6c0,16.7,0,33.1,0,50.2
		c-1.3,0.3-3.2,0.8-5.8,1.4c1.1-4.1,1.8-7.6,3-11c2-5.7,1-11.2-0.5-16.9c-0.8-3.1-1.3-6.3-1.7-9.4c-0.4-2.6-1.4-4.4-4.5-4.7
		c-0.6,2.1-1.2,4-1.8,5.8c-1.4,3.9-3.8,5.7-8,5.4c-4.4-0.4-8.7-0.9-13-1.8c-6.5-1.4-12.8-0.1-18.9,1.8c-6.4,2-12.7,2.1-18.9,0
		c-8.7-3-17.1-2.6-25.6,0.8c-4.6,1.9-9.8,3.1-14.7,3.3c-4.6,0.2-9.3-1.2-13.9-2c-8.6-1.6-17.2-3-26-2.1c-0.3,0-0.6-0.2-1.5-0.6
		c1.3-3.2,2.6-6.3,4-9.5c1.1,0.1,1.8,0.1,2.4,0.3c4.2,1.3,8.2,1,12.3-0.8c4.1-1.9,8.2-2.4,12.6-0.2c5.8,2.8,11.4,1,16.1-2.6
		c1.9-1.5,3.4-1.7,5.4-1.3c1.3,0.3,2.7,0.4,4,0.8c10,2.7,19,0.1,27.3-5.7c1.5-1.1,3.1-2.1,4.6-3.1
		C-201.2,1791.7-196.2,1791.8-191,1793.7z M-195.6,1786c1.2-2.3,2.4-4.4,3.5-6.4c0.7,0,1.1-0.1,1.3,0c5.6,3.8,11.2,2.9,16.7-0.3
		c3.2-1.9,6.6-3.5,9.4-5.9c6.7-5.8,13.8-6.3,21.8-3c0,6,0,12,0,18.1c-2.8,1.5-5.2,0.6-7.5-0.3c-6.3-2.6-12.5-2.2-18.7,0
		c-2.2,0.8-4.5,1.4-6.7,2.1c-3.9,1.3-7.6,1.2-11.3-0.7C-189.7,1788.2-192.4,1787.3-195.6,1786z M-157.6,1850.8
		c-3.7-0.4-5.4-2.3-6-5.5c-1.2-5.9-0.2-11.7,1-17.4c0.7-3.4,3.4-3,6-2.8c1.4-2.1,2.3-4.7,6.1-4.5
		C-147.9,1832-151.7,1841.7-157.6,1850.8z M-298,1825.4c4.8-1.5,9-2.8,13.6-2.3c9.5,1,19,2.4,28.4,4.4c3.2,0.7,6.7,0,10-0.6
		c4-0.8,8-1.7,11.7-3.3c6.8-2.9,13.5-2.7,20.2-0.4c7.5,2.5,14.8,2.8,22.3,0.3c7.7-2.6,15.5-2.9,23.6,0.1c-0.5,6.8-1,13.3-1.5,19.7
		c-5.5,1.3-11.2,2.6-16.8,4c-9.5,2.2-18.7,0.9-27.9-1.6c-1.3-0.4-2.6-0.7-3.9-1.1c-8.5-2.9-16.5-0.4-24.6,2.1
		c-9.8,3-19.7,4.2-29.8,1c-7.7-2.5-15.7-3.8-24.6-3.1C-295.3,1837.8-294.7,1831.7-298,1825.4z M-287.1,1802.3
		c1.7-6.4,6.8-10.5,12.6-10.5c8.1-0.1,14.8,3.8,22,7.4c-3.5,3.7-7.4,3.9-10.9,2.1c-5.2-2.7-10.2-2-15.1,0.2
		C-281.3,1802.8-284.1,1803.1-287.1,1802.3z M-277.1,1852c3.7,1.1,7.4,2.4,11.2,2.9c7.1,1,14.1-0.1,21.1-1.6c4.1-0.9,8-2.5,12.1-3.7
		c5.6-1.6,11,0.3,16.4,1.3c6.1,1.1,12.2,2.5,18.4,3.2c6.3,0.7,12.4-0.6,18.4-2.6s11.7-1.8,17,2c4.1,2.9,8.1,3.8,12.9,1.1
		c2.4-1.3,5.9-0.9,9.8-1.4c0.5,3.9,0.8,7.1,1.3,11c-5.7,0.5-10.6,1-15.6,1.3c-13,0.6-25.9,1-38.9,1.5c-7.8,0.3-15.5,1.1-23.3,1
		c-23.8-0.2-47.6-0.8-71.3-1.1c-5.7-0.1-11.5,0.1-17.2,0.1c-4.4,0-5.9-1.8-4.7-6c1.1-4,3.4-7.2,7.6-8.8
		C-293.7,1849.5-285.5,1849.6-277.1,1852z M-131.7,1868.1c0-6.2,0-12,0-18.3c5.3-2.2,10.6-3.4,16.3-2.5c6.8,1.1,13.5,2.3,20.1,4.9
		c9.2,3.6,18.9,4.7,28.8,2.1c4.2-1.1,8.6-1.6,13-2c5.8-0.6,11.2,0.5,16.7,3c7.9,3.7,16.5,4.8,25.1,5.1c6.6,0.3,13.1,0,19.7,0
		c10.2,0.1,20.1,2.4,29.9,5c5.5,1.4,10.9,2,16.5,1.4c1.3-0.1,2.6,0,3.7,0c1.9,6.9,3.7,13.3,5.6,20c-0.8,0.3-1.4,0.7-2,0.7
		c-9.6-0.2-19.2,0.1-28.5-3.3c-11.4-4.2-23-4.6-34.8-1.8c-8.9,2.1-18,2.6-27,0.1c-9.3-2.5-18.7-4.6-27.9-7.3
		c-10.4-3-20.6-2.8-30.9,0.4c-7.9,2.5-15.5,0.9-22.4-3.1c-6.3-3.6-12.5-5.6-19.7-4.1C-130.2,1868.5-130.7,1868.3-131.7,1868.1z
		 M38.5,1858.8c-12.7-3.9-25.6-5.8-38.9-5.5c-2.7,0-5.4,0.1-8.1,0.2c-11.1,0.4-21.8-1.6-31.8-6.5c-1.8-0.9-3.9-1.2-5.8-1.4
		c-7.4-0.5-14.8,0.1-22,2.4c-6.8,2.2-13.7,1.1-20.5-0.2c-2.1-0.4-4.3-1.1-6.3-1.8c-11.2-4.3-22.7-6.4-34.7-3.8
		c-0.6,0.1-1.3,0-2.5-0.1c-0.1-5.3-0.3-10.5-0.2-15.7c0-0.8,1.2-2.1,2.1-2.3c1.9-0.5,4-0.8,6-0.5c3.8,0.5,7.8,0.9,11.3,2.3
		c10.2,4.3,20.1,2.6,30.1-0.5c1.8-0.6,3.6-1,5.3-1.6c6.2-2.3,12.1-1.3,18.1,1.2c8.4,3.6,17.3,5.9,26.6,4.9c4.5-0.5,8.9-1.7,13.5-2.3
		c7.3-1,14.4-0.1,21,3.5c2.3,1.3,5.1,1.6,7.6,2.4c16.2,4.9,32.4,2.6,48.6,0.3c7.1-1,14.1-1.2,21.1,0.2c6.9,1.4,13.8,2.9,20.7,4.6
		c6,1.4,11.9,1.5,18-0.1c3-0.8,6.3-1.1,9.4-1.3c1.5-0.1,3.1,0.6,5.1,1c-4.1,7.1-8.7,12-16.5,13.8c-10.7,2.4-21.5,4-32.5,4.6
		c-6.5,0.4-12.9,2.4-19.4,3.1C55.5,1860.4,46.9,1861.4,38.5,1858.8z M184.3,1807.6c-9-0.3-17.7,4.2-26.9,1.3
		c-6.9-2.2-14-3.9-20.8-6.3c-8.1-2.8-16-3.2-24.2-0.5c-4.9,1.6-10.2,2.5-15.4,2.5c-18.8-0.1-37.4-1.7-55.4-7.7
		c-10.1-3.3-20.4-3.7-30.9-0.5c-11.4,3.4-23,2.8-34.5-0.1c-6.1-1.5-12.1-2.9-18.3-4.1c-5.7-1.1-11.3-0.6-17,1.1
		c-11,3.2-22.3,5.9-33.8,4.3c-5.3-0.7-10.4-2.5-15.5-4.2c-7.2-2.4-14.5-3.1-21.9-1c-0.4,0.1-1,0-1.8-0.1c0-7.2,0-14.4,0-21.9
		c6.5-1.8,13-2,19.5-0.3c6.7,1.8,13.1,4.5,19.9,5.7c9.2,1.6,18.4,1.3,27.5-1.3c5.5-1.6,11.2-2.4,16.9-1c5.4,1.4,10.8,2.6,16.2,3.8
		c9.5,2.1,19.1,1.6,28.6-0.1c8.3-1.5,16.3-1.3,24.4,1.2c3.9,1.2,8.3,1.2,12.4,1.9c6.5,1,13,1.9,19.4,3.4c13.8,3,27.5,2.5,41.2-0.2
		c7.7-1.5,15.1-1.4,22.5,1c15.9,5.1,32.1,5.7,48.5,3c4.2-0.7,8.7-0.4,13.1,0c5.6,0.5,11.2,1.6,16.8,2.5
		C189.5,1795,186.4,1800.7,184.3,1807.6z M202.4,1695.2c7-0.9,13.6-1.8,20.3-2.4c1.6-0.2,3.3,0.4,4.9,1c3.4,1.2,6.7,2.6,10.5,4.1
		c-0.5,4.1-3.5,7.5-6.9,10c-5.5,4.2-11.6,7.3-18.7,8.2c-2.8,0.4-4.7-0.5-5.7-2.9c-1.1-2.6-2-5.3-2.7-8.1
		C203.4,1702.2,203,1699.2,202.4,1695.2z M-127.7,1585.9c0.1-3.4,0.7-3.8,4.2-4.2c6.2-0.8,11.6,2,17,4.1c9.3,3.6,18.8,4.7,28.3,2.4
		c8-1.9,15.1-0.3,22.1,2.5c6.4,2.6,12.8,3.2,19.7,3.1c13.2-0.2,26.2-1.8,39.1-4.4c8.7-1.8,17.4-0.5,26.1,1.4
		c7.3,1.6,14.6,2.9,22.1,2.6c4.2-0.2,8.5-0.5,12.5-1.4c10.6-2.5,21-2.6,31.6-0.2c16.3,3.7,32.7,4.4,49.3,2.3c2.8-0.4,5.7-1,8.5-1.5
		c9.5-1.8,19-2.1,28.6-0.2c9.4,1.9,18.8,2.9,28.6,0.5c5.3-1.3,11.6-0.6,16.9,1c9.9,3,20,4.8,30.2,5.9c5.7,0.6,11.3,0.5,17-1
		c8.1-2.2,16.2-0.5,23.7,2.9c9.1,4.1,18.3,6.7,28.4,5.8c3.1-0.2,6.3,0.6,9.8,1c-0.8,4.3-1.5,8-2.2,12.1l-0.3,7.5
		c-0.3,3.4-0.6,6.3-0.8,9.3c-10.2,2.8-19.9,2.7-29.5-1c-3-1.1-6.2-1.8-9.1-3.2c-9.7-4.7-19.6-3.9-29.7-1.6
		c-9.4,2.1-18.9,2.3-28.6,1.6c-10.8-0.7-20.6-5-31-6.9c-6.6-1.2-13-1.4-19.6-0.3c-4.8,0.8-9.8,1.3-14.6,0.7
		c-18.8-2.2-37.5-4.8-56.2-7.3c-3.2-0.4-6.3-1.3-9.4-1.9c-8.8-1.7-17.4-1.2-26.1,0.8c-9.7,2.2-19.2,0.9-28.4-2.4
		c-10.5-3.7-20.9-4-31.9-3c-12.9,1.2-25.9,1.7-38.9,1.7c-7.2,0-14.4-1.8-21-4.9c-6.8-3.2-13.9-2.4-20.8-0.7
		c-8.9,2.2-17.9,3.2-27,3.3c-2.5,0-5-0.7-7.4-1.4c-2.6-0.7-5.1-1.8-7.6-2.7c-6.9-2.5-13.8-4.4-21.2-2c-0.6,0.2-1.3,0-2.6,0
		c0-2.3,0-4.1,0-6.1h0.1l0.2-10.2C-127.8,1588.5-127.8,1587.2-127.7,1585.9z M-117.2,1554c5.6,2.2,11.3,4.3,17.2,5.7
		c8.6,2.1,17.1,0.3,25.4-2.1c3.2-0.9,6.5-1.9,9.8-2.6c7.1-1.4,14.1-0.6,20.9,2c15.7,6,31.9,8.4,48.6,5.2c5.3-1,10.5-2.6,15.5-4.5
		c7.2-2.7,14.4-3.2,21.8-0.9c13.4,4.1,27.2,4.7,41,5.4c2.8,0.1,5.8-0.4,8.4-1.4c9.8-3.5,19.6-2.5,29.4-0.3c2.6,0.6,5.3,0.7,8,1
		c3.5,0.4,7.1,0.5,10.5,1.1c11.1,2.1,22.2,1.5,33.3,0.1c7.6-0.9,15-1.5,22.6-0.1c8.3,1.5,16.4-0.7,24.7-1.2c3.8-0.3,7.8,0.1,11.4,1
		c9.1,2.5,18,5.8,27.1,8.2c9,2.3,18.1,3.5,27.5,1.5c4-0.9,8.4-0.5,12.6-0.7c2.4-0.1,3.9,0.9,5,3.3c3,7.2,9,11.8,15.5,15.4
		c2.7,1.5,6.5,1.5,9.8,1.8c4.2,0.4,8.4,0.1,12.6,0.6c4.5,0.5,5.4,3,2.7,6.6c-1.6,2.1-3.4,3.2-6.5,2.9c-5.5-0.6-11.1-0.6-16.6-0.8
		c-7.2-0.3-13.9-2.5-20.4-5.3c-9.7-4.2-19.6-6.3-29.9-2.7c-5.4,1.9-10.7,0.1-16-0.3c-9.3-0.7-18.3-2.7-27.1-5.7
		c-5.9-2-12.5-2.5-18.5-0.8c-7.6,2.2-15,1.4-22.5,0.2c-3-0.5-6-1.1-9-1.6c-8.4-1.3-16.8-0.5-25.2,0.9c-7.5,1.3-15,2.4-22.6,2.6
		c-10.9,0.2-21.9-0.2-32.7-2.9c-11.3-2.8-22.7-3.1-34-0.1c-9.4,2.5-18.7,1.6-28.1,0c-24.3-4.2-19.2-5-46.5-0.3
		c-6.1,1-12.4,1.2-18.6,1.7c-2.9,0.2-5.7,0-8.6,0.3c-5.7,0.5-10.9-0.5-16.3-2.6c-7.8-3-15.8-5.1-24.6-2.7
		c-9.1,2.5-18.5,1.3-27.2-2.6c-6.4-2.9-13.1-4-20.3-4c0-7.2,0-14.1,0-21.1C-123.9,1552.7-120.8,1552.6-117.2,1554z M-127.3,1546.9
		c0-5.7,0-11.4,0-17.7c2.3,0,4.6-0.4,6.8,0.1c5.2,1.2,10.4,2.9,15.5,4.4c6.2,1.9,12.3,1.2,18.5-0.2c5.4-1.2,10.8-2.8,16.2-3.8
		c5.2-1,10.3-0.2,15.2,2.1c8.1,3.7,16.2,7.6,25.5,7.4c6.4-0.2,12.7-1,18.8-3.2c6.5-2.4,13-4.9,20.2-3.3c3.1,0.7,6.3,1.3,9.3,2.2
		c10.6,3.2,21.4,4.6,32.5,3.2c8.9-1.1,17.7-2.5,26.6-3.3c4.5-0.4,9.1-0.2,13.6,0.4c10.2,1.5,20.3,2.3,30.6,0.1
		c4.2-0.9,8.7-0.4,13.1-0.2c3.5,0.2,7,1,10.5,1.8c10.1,2.5,20,1.1,30.1-0.6c11.9-2,23.8-1.5,35.6,1.3c7.7,1.9,15.5,2.7,23.5,1.4
		c8.3-1.3,16.6-1.1,24.8,2.3c6.6,2.7,13.9,3.8,21,5.6c1.1,0.3,2.3,0,3.5-0.2c5-1.2,10-0.8,15.9,0.5c0.4,5.7,0.7,11.2,1.1,16.4
		c-0.6,0.6-0.9,1-1.2,1c-6.8,0.8-13.7,1.8-20.5,2.2c-8.8,0.5-17.5-1.2-25.9-3.8c-7.1-2.1-14.2-4.4-21.2-6.8
		c-5.2-1.7-10.5-2.3-15.9-1.1c-9.2,2.1-18.4,1.9-27.6,0.4c-2.3-0.4-4.7-0.5-7.1-0.3c-7.6,0.6-15.1,1.8-22.6,2
		c-6.4,0.2-12.8-0.3-19.1-1c-11-1.2-22-3-33.1-4.2c-3.3-0.4-6.9-0.3-10,0.8c-11.6,4.2-23.3,3.3-35,1.6c-7-1-13.9-2.5-20.8-4.2
		c-7.7-2-15.1-1.6-22.3,1.4c-8.4,3.4-17.1,5.8-26,5.8c-9,0-18.2,0-26.9-3.4c-5.8-2.3-11.9-3.8-17.9-5.3c-9.3-2.2-17.9,0.9-26.7,3.5
		c-9.5,2.8-18.9,3.4-28.6-0.9c-5.3-2.4-11.1-4.9-17.4-4.1C-125.6,1547.3-126.2,1547.1-127.3,1546.9z M283.6,1540.5
		c-1.4,0.3-3.1,0.3-4.5,0c-6.4-1.7-12.9-3-19-5.4c-8.3-3.3-16.7-4.1-25.3-2.4c-7.7,1.5-15.1,0.6-22.5-1.2c-12.3-3-24.7-3.3-37.2-1.6
		c-4.5,0.6-9,1.5-13.5,2.2c-6.3,1-12.5-0.5-18.5-1.8c-9.2-2-18.2-2.4-27.5-0.3c-7.3,1.7-14.8,0.5-22.1-0.9s-14.4-1-21.6,0
		c-10,1.3-20.1,2.9-30.1,3c-7.1,0.1-14.3-1.9-21.4-3.1c-5.1-0.9-10.2-2.2-15.4-3c-2.1-0.3-4.4,0-6.4,0.6c-4.2,1.2-8.4,2.6-12.5,4.1
		c-13.1,4.6-25.6,2.6-37.7-3.4c-3.3-1.6-6.5-3.3-10.4-3.7c-8-1-15.4,1-22.9,3.2c-7.8,2.3-15.3,2.9-23.2-0.1c-6-2.3-12.6-3-19.4-4.6
		c0-6.1,0-12.8,0-19.5c3.7-1.7,6.9-1.1,10.3,0.7c9.9,5.4,20.4,6.4,31.4,4.5c1.8-0.3,3.6-1,5.4-1.3c4.5-0.7,8.9-0.9,13.3,1.3
		c11.1,5.5,22.7,6.4,35,3.9c7.5-1.5,15.4-1.6,23.1-2c2.4-0.1,5,0.6,7.4,1.4c13.9,4.9,28,5,41.7,0.5c8.8-2.9,17.3-2.1,25.9-1.2
		c7.5,0.8,15,2.3,22.5,3.1c5.2,0.5,10.4,0,15.4-1.8c2.8-1,5.8-1.7,8.8-2.2c3.5-0.6,6.9,0,10.4,0.9c7.5,1.8,15.2,3,22.9,3.8
		c5.5,0.6,11.1,0.4,16.6,0.2c2.1-0.1,4.3-0.9,6.2-1.7c5.7-2.5,11.3-3.1,17-0.2c1,0.5,2.3,0.8,3.3,1.3c7.9,4.5,15.9,3.4,23.9,0.1
		c6.1-2.5,12.1-2,18.3-0.2c5.8,1.7,11.7,3.2,17.6,4.5c8.7,2,17.2,0.7,25.4-2c7.7-2.6,15.1-2.7,22.7,0.5c5.1,2.1,10.3,4.3,16.3,2.9
		c0.6,2.1,1.2,4,1.7,6c2.1,8.2,1,11.2-5.9,16c-0.9,0.6-2.5,0.8-3.6,0.5C298.3,1540.1,291.1,1538.9,283.6,1540.5z M-128.7,1613.9
		c6.5-2.4,12.6-4,19-1.2c3.9,1.7,7.9,3,11.9,4.1c3.4,0.9,6.9,2,10.3,1.9c8.6,0,17.1-0.8,25.5-3c4.8-1.2,10-1,15-1.3
		c1-0.1,2,0.2,2.9,0.6c14.8,6.6,30.4,7.1,46.2,6c6.9-0.5,13.8-1.5,20.7-2c9.3-0.7,18.3-0.1,27.3,3.4c9.6,3.7,19.8,4.3,29.9,2
		c10.5-2.4,20.8-1.3,31.1,0.4c10.1,1.7,20.3,3.3,30.5,4.7c8.7,1.2,17.4,1.9,26.1,3.2c6.1,0.9,12.1,0.5,18.1-0.4
		c4.1-0.6,8.5-1.2,12.5-0.5c7.6,1.3,15,3.6,22.6,5.3c3.3,0.8,6.6,1.2,9.9,1.8c1,0.2,2,0,3,0.1c10.8,2,21.5,1.4,32.1-1.4
		c10.8-2.9,21-1.1,31.1,3.1c4.2,1.7,8.6,3.2,13,3.9c4.2,0.7,8.7,0.4,13,0.4c2.5,0,4.9-0.2,7.3-0.4c1.3,8.1-3.1,26.1-7.7,31.9
		c-2.3-0.1-3.4-1.7-3.9-3.8c-0.7-3.1-1.3-6.3-1.9-9.4c-0.4-2-0.7-4-1.4-5.9c-3.6-9.8-15-11.9-21.9-4.2c-2.1,2.4-4.2,4.9-6.4,7.2
		c-2.6,2.8-5.8,4.3-9.8,4.5c-5.9,0.3-11.4-0.4-16.8-2.7c-9.2-4-19-4.6-28.8-3.9c-11.8,0.8-23.5,2.9-35.3,0.7
		c-9.3-1.7-18.7-3-27.7-5.7c-10.6-3.2-21.2-3.9-32-3.1c-13.1,1-26.2,2.5-39.3,3.8c-12.3,1.1-24.2-0.4-35.9-4.1c-1-0.3-1.9-0.6-2.9-1
		c-15.4-6.3-30.9-4-46.2-0.2c-10.4,2.6-20.7,2.3-31.1,0.9c-6.9-0.9-13.4-3.4-19.9-5.6c-9.3-3-18.7-3.8-28.3-0.8
		c-8.4,2.6-17,2.3-25.6,1.1c-4.5-0.6-9-1.6-13.3-3.1c-7.8-2.7-15.7-1.6-24.4-1.7C-129.6,1630.9-129.2,1622.4-128.7,1613.9z
		 M-129.8,1648.8c0.3-2.4,2.6-3,4.6-3.1c7.3-0.2,14.4,0.2,21.5,2.5c8.8,2.9,18,4.4,27.4,3.1c4.6-0.6,9.2-1.7,13.8-2.7
		c6.9-1.5,13.7-1,20.5,0.7c2.8,0.7,5.5,1.7,8.2,2.7c15.5,5.6,31.2,6.7,47.2,2.9c4.6-1.1,9.2-1.9,13.9-2.6c10.7-1.4,21-0.8,31.3,3.1
		c13.9,5.2,28.4,6.7,43.3,4.9c11.2-1.4,22.5-2.2,33.7-3.2c13.8-1.2,27.1,1,40.4,5c11,3.3,22.5,4.6,34,4.7c5.5,0,11.1-0.5,16.6-1.2
		c8.6-1.1,17.3-0.7,25.7,0.9c5.7,1.1,11,3.6,17.5,5.9c-2.6,1.5-4.2,2.7-6,3.5c-3.9,1.9-8,3.6-11.9,5.7c-2.6,1.4-5.8,2.8-7.4,5.1
		c-3.7,5.2-8.7,4.3-12.6,2.3c-7.4-3.8-14.5-2.6-22.1-1.6c-11.8,1.6-23.7,2.3-35.5-1.8c-8.9-3.1-18.4-3.8-27.9-2.4
		c-7.5,1.1-14.8,2.9-22.5,2.6c-6.6-0.3-12.6-2-18.5-4.7c-4-1.8-8.1-4-12.3-4.5c-7.2-0.9-14.2-3.3-21.8-1.4
		c-13.7,3.5-27.1,0.6-40.3-3.5c-6.5-2-13-2.5-19.5-0.8c-17.3,4.7-34.4,3-51.5-0.8c-3.9-0.9-7.8-2-11.8-2.7
		c-5.2-0.8-10.3-0.3-15.5,1.3c-11.4,3.4-22.6,3.5-34.3,0.5c-9.2-2.4-18.4-5.8-28.6-4C-130.8,1659.5-130.4,1654.1-129.8,1648.8z
		 M-131.6,1677.7c0-3.3,1.5-5.4,4.4-5.9c3.1-0.5,6.4-0.8,9.5-0.2c7.3,1.4,14.4,3.5,21.6,5.2c9.8,2.3,19.4,1.7,29-1.3
		c5.6-1.7,11.2-2.5,17-1.5c1.3,0.2,2.7,0.3,4,0.7c12.9,4.5,26.4,5.7,39.9,5.7c4.8,0,9.8-0.9,14.5-2c8.8-2.1,17.2-1.9,25.9,0.9
		c12.7,3.9,25.7,5.6,38.9,2.5c5.4-1.3,10.7-1,15.8,1.6c0.9,0.5,2,1.1,2.8,0.9c4.6-1,8.6,0.8,12.4,2.9c10.6,5.7,21.9,6.9,33.4,4.6
		c10.2-2.1,20.4-2.6,30.6-1c1.2,0.2,2.3,0.4,3.4,0.8c4.6,1.5,9.3,3,14.6,4.7c-2.8,5.9-4.9,11.7-3,18.8c-2.8-0.2-4.8-0.3-6.7-0.6
		c-7.9-1.5-15.7-1.4-23.6,0.3c-7.8,1.7-15.7,1.8-23.6,0.4c-6-1-11.4-3.3-16.3-6.6c-6.8-4.7-14.1-4.9-21.2-2
		c-10.3,4.1-20.3,2.4-30.2-0.9c-7.5-2.5-14.9-3-22.4-1.1c-10.9,2.8-21.4,1.6-31.9-1.4c-3.6-1-7.2-1.7-10.8-2.5
		c-3.9-0.9-7.7-0.3-11.4,1c-10.1,3.3-20.4,6-31.2,5.6c-5.2-0.2-10-1.1-14.5-3.7c-8.7-4.9-17.9-5.2-27.4-2.4c-3.7,1.1-7.5,2-11.4,2.3
		c-3.1,0.2-6.3-0.4-9.4-1.2c-7.5-1.9-14.8-4.1-22.8-6.3c-0.1-1-0.2-2.4-0.2-3.9C-131.8,1687.1-131.5,1682.4-131.6,1677.7z
		 M-132,1707.3c0.1-3.7,2.4-5.4,6-4.3c6.1,1.9,12.2,3.9,18.3,5.8c6.2,1.9,12.3,1,18.4-0.7c2.9-0.8,5.8-1.7,8.8-2.1
		c7.4-1,14.4,0.5,20.9,4.3c4.2,2.5,8.8,3.3,13.6,3.4c9.5,0.2,18.9-1.1,27.8-4.6c8.6-3.5,16.8-2.3,25.2,0.2c11,3.3,22,5,33.3,1.5
		c6.7-2.1,13.3-0.9,19.9,0.9c5.7,1.6,11.5,3.1,17.3,3.5c4.2,0.3,8.6-1.1,12.9-1.8c2.6-0.5,5.2-1.3,7.9-1.8c4-0.9,7.8-0.3,11.1,2
		c13.7,9.5,28.7,11.1,44.5,7.3c7.6-1.8,15.1-0.8,22.6,0.3c2.1,0.3,4.3,0.7,6.6,1c0.8,4.5-0.2,8.5-2,12.3c-2.3,4.5-5,8.8-7.8,13
		c-0.6,0.9-2.1,1.6-3.2,1.9c-11.3,2.4-22.4,1.5-33.2-2.9c-7.1-2.9-14.6-3.9-22.2-4.6c-7.7-0.7-15-0.4-22.5,1.8
		c-3.1,0.9-6.7,1-10,0.8c-8.6-0.5-17-1.3-25.3-4.2c-6.8-2.4-14.1-2.6-21.4-0.8c-9.1,2.2-18.3,3-27.6,1.1c-5.6-1.1-11.2-2.2-16.8-3.4
		c-5.6-1.2-10.8-0.3-16.3,1.7c-8,2.9-16.5,3.1-24.9,0.9c-5.4-1.4-10.5-3.5-15.8-5.3c-1.4-0.5-2.9-1-4.4-1
		c-7.4,0.3-14.9,0.8-21.8,3.8c-8.6,3.7-16.4,2.1-23.8-3c-1.4-1-3.4-1.5-5.2-1.7c-3.5-0.3-7-0.1-11-0.1c-0.1-1.7-0.3-2.5-0.3-3.3
		C-132.4,1721.8-132.3,1714.5-132,1707.3z M-132.7,1739.5c6.4-1.7,12.2-2,18.2,2c6.9,4.5,14.7,5.2,22.7,2.4
		c4.6-1.6,9.4-2.5,14.2-3.3c5-0.9,9.7-0.4,14.7,1.7c10,4.1,20.6,6.3,31.6,4.5c2.5-0.4,5.1-0.8,7.3-1.9c5.9-3,11.7-2.3,17.7-0.8
		c10.3,2.5,20.7,5,31.5,3.4c2.3-0.4,4.7-0.6,7-1.2c7-2,14.1-0.9,21.1-0.6c0.8,0,1.6,0.4,2.4,0.7c11.3,4.8,23.2,5.6,35.2,4.1
		c4.5-0.6,8.9-2.2,13.4-2.2c11.2,0,22.2,1.2,32.7,5.4c9.1,3.6,18.5,4.9,28.2,2.8c3.6-0.8,6.7-0.7,9.4,2.9c1.4,1.9,4.5,2.7,6.9,3.7
		c4.7,1.9,9.5,3.4,14.1,5.3c1.2,0.5,2.5,2,2.8,3.3c0.9,3.4,1.2,6.9,1.9,10.9c-2.1,0.2-3.6,0.6-5,0.4c-5-0.5-10-1.1-15.1-1.8
		c-6.4-0.9-12.8-1.2-19.1,0.1c-13.4,2.7-26.5,1.2-39.6-1.9c-0.7-0.2-1.3-0.4-1.9-0.6c-8.3-2.7-16.7-3.5-25.4-1.8
		c-9.8,1.9-19.7,2.7-29.7,1.8c-5.5-0.5-11-1.4-16.5-2.2c-7.5-1.1-15-2.4-22.5-3.6c-1.3-0.2-2.7-0.4-3.9-0.9
		c-8.2-2.9-16.5-3-24.9-1.4c-11.4,2.3-22.7,2.5-34-1c-4.2-1.3-8.5-2-12.8-2.9c-5.6-1.2-11.1,0.1-16.5,1.4c-12.1,2.9-24,2.9-35.8-1.2
		c-3.3-1.2-6.7-2.5-10.2-3c-4.6-0.7-9.3-0.8-14-1c-1.8-0.1-3.6,0.3-5.8,0.5C-133.4,1755.2-133.8,1747.6-132.7,1739.5z
		 M-132.8,1801.9c0.1-1,1.6-2.1,2.8-2.5c6.1-2.7,12.5-2.5,18.8-0.8c2.8,0.7,5.4,1.9,8.1,3c6.9,2.7,14,3.9,21.3,2.7
		c9.3-1.5,18.5-3.9,27.8-5.2c4.7-0.7,9.8-0.4,14.5,0.2c4.8,0.6,9.6,2,14.3,3.3c13.4,3.7,26.6,3.6,39.9-0.5
		c5.1-1.5,10.4-1.8,15.5-0.7c5.9,1.2,11.8,2.9,17.6,4.4c12.3,3.2,24.8,4.7,37.5,5.3c10.5,0.5,20.8,0,31-3.4
		c5.6-1.9,11.3-0.9,16.9,0.8c8.1,2.4,16.1,4.8,24.3,7c5,1.3,10,1,15-0.3c4.9-1.3,9.7-1.4,14.5,1.8c2.6,1.7,6.8,1.4,10.3,1.5
		c2.9,0.1,2.9-0.1,5.4,2.3c-3.4,4.1-8,4-12.2,4.7c-2.6,0.4-5.4,0.2-8.1,0.5c-5.3,0.5-10.2,2.1-14.3,5.7c-1.6,1.5-3.5,2.6-5.3,3.9
		c-5.1,3.9-11,2.8-15.9,0.9c-3.8-1.6-7.8-2.8-11.6-4.4c-5.7-2.3-11.5-2.5-17.3-0.4c-6.3,2.2-12.6,1.6-18.9,0
		c-9.5-2.4-18.9-5.3-28.8-5.3c-6,0-12.1,0.8-18.1,1.4c-5,0.5-10.1,1.1-15.1,1.8c-7.8,1.1-15.4-0.7-23.1-1.7
		c-5.1-0.7-9.7-2.3-14.3-4.6c-5.4-2.7-11.4-2.8-17.3-2.4c-3,0.2-6.1,0.5-9,1.3c-11.2,3.2-21.7,0.5-32.1-3.4
		c-3.3-1.2-6.7-2.4-10.1-2.7c-3.3-0.2-6.7,0.5-10,1.3c-5.2,1.3-10.3,3.5-15.6,4.2c-4.6,0.6-9.6,0.6-13.9-0.7
		c-7.8-2.3-15.6-3.9-24.1-3.5C-134.1,1812.2-133.4,1807-132.8,1801.9z M-138.6,1483.8c0.3,3.7,0.8,6.8,0.7,9.9
		c-0.1,4-0.4,8.1-1.2,12.1c-2.7,13.6-1.9,27.2-1.1,40.9c0.6,10.8,0.4,21.6,1.8,32.3c2.6,20.5-1.1,40.7-1.4,61.1
		c-0.1,8.4-0.3,16.9,0.1,25.3c0.7,15.4-1.3,30.7-2.5,46c-1.2,15.6-3.8,31.2-0.9,46.9c0.3,1.6,0,3.2,0,5.3c-2-0.6-3.4-1.1-4.9-1.3
		c-5.8-0.9-11.3-0.6-16.3,3.4c-3.7,2.9-7.8,5.3-12,7.5c-5.3,2.9-8.2,2.1-12.7-2c-2.7-2.5-5.7-4.6-8.6-6.9c-0.4-0.3-0.9-0.5-1.2-0.9
		c-4.2-6.5-8.3-13.1-8-21.6c1.7-0.6,3.3-1,4.8-1.6c5-2.1,6.4-6,3.5-10.5c-1.5-2.4-3.7-4.3-5.6-6.5c-2.4-2.7-2.5-2.8-0.1-5.8
		c1.4-1.8,1.7-3.6,1-5.7c-0.2-0.6-0.4-1.4-0.8-1.9c-3.4-4.4-5.7-9.3-8-14.4c-1.5-3.4-5.1-4-8.6-2.2c-1.6,0.8-3.1,1.8-5.4,3.2
		c2.1-6.2,4.9-10.6,8.6-14.5c2.5-2.7,5.2-5.3,7.6-8.1c2.7-3.4,4-7.3,4.4-11.7c0.4-3.6,0.9-4,4-3.6c6.7,1,11.1-2.8,14.2-7.7
		c1.9-3,3.1-6.9,3.2-10.4c0.1-7.4,1.5-14.3,4.2-21.2c0.9-2.3,1.4-4.9,1.6-7.4c0.6-7.4-2.2-11.5-9.5-14.2c-6.2-2.3-12.3-4.6-18.5-6.8
		c-3.2-1.1-5.2-3-6.4-6.4c-2.3-6.7-5.4-13.1-8.2-19.6c-1.4-3.1-1.7-5.7,1.6-7.9c1.1-0.8,1.9-2.4,2.2-3.8c0.9-4.4,1.6-9.1-0.2-13.4
		c-2.3-5.4-1.9-10.9-2.1-16.4c-0.3-9.1-0.4-18.2-0.8-27.3c-0.2-3.1-1.2-6.2-2-10.2C-193.7,1485.1-166.5,1484.4-138.6,1483.8z
		 M-255.9,1485.3c8.2,0.4,16.5,0.3,24.8,0.4c2.6,0,4.1,1,4.3,3.7c0.5,5.5,1.5,11,1.8,16.5c0.3,7.1,0.2,14.2,0.1,21.2
		c0,4.1,0.2,8.1,2,11.9c0.5,1.1,0.5,2.5,0.7,3.8c-0.4,0.2-0.8,0.4-1.2,0.7c-1.1-1.4-2.5-2.6-3.1-4.2c-1.6-3.9-3.2-7.8-4.2-11.9
		c-2.2-8.4-8.5-13.2-17.2-12.2c-4.9,0.5-9.6,1.6-14,4c-6.4,3.4-17.7,1-22.5-4.3c-1.4-1.6-1.8-3.2-0.3-5c5.5-6.6,10.9-13.3,16.7-19.6
		C-264.9,1487.2-261,1485.1-255.9,1485.3z M-326.5,1486.2c6.9-0.3,13.8-0.7,20.7-0.9c9.4-0.2,18.9-0.1,28.3-0.1
		c1.6,0,3.2,0.3,5.1,0.4c-1.6,3.6-3.6,4.6-7,4.4c-4.3-0.2-8.7,0.7-13,1.2c-7.9,1-15.7,1.8-23.6-0.3c-4.5-1.2-9.1-2.1-14-3.2
		C-329.7,1486.1-328.1,1486.2-326.5,1486.2z M-334.8,1495.5c1.3,0,2.6-0.8,3.9-1.1c3.8-1,7.6-1.2,11.4,0.4
		c5.2,2.2,10.7,3.1,16.3,2.7c5-0.4,10-1,15.1-1.5c2.3-0.2,4.6-0.5,7.8-0.8c-0.9,1.5-1.1,2-1.4,2.3c-5.5,7.4-3.4,6.6-12.2,4.9
		c-4.6-0.9-8.7,0.5-12.9,1.5c-5.7,1.3-11.1,1.6-16.7-0.8c-4.1-1.7-8.8-2.3-13.4-1.3c-1.3,0.3-2.6,0.3-4.2,0.5
		C-340.4,1498.4-339.3,1495.4-334.8,1495.5z M-484.1,1486.6c1.1-5.2,1.5-5.5,6.7-5c0.7,0.1,1.4,0.3,2,0.2c10.6-1.2,21.1,0.7,31.7,0
		c1.5-0.1,3,0.2,4.5,0.3c4,0.2,8,0.5,12,0.7c2.4,0.1,4.7,0.1,7.1,0.4c13.6,1.4,27.1,3.1,40.7,4.1c6.3,0.4,12.8-0.4,19.1-1
		c6.7-0.6,13.4-0.9,20.9-0.1c-2.3,3.8-4.2,6.8-5.9,9.8c-3.7,6.4-4.1,12.6,0.9,18.7c3.8,4.7,3.1,7.3-1.7,10.9
		c-9,6.9-19.2,9.5-30.4,8.4c-4.2-0.4-8.4-0.9-12.6-1.1c-4.8-0.2-9.4,0.2-13.6,2.9c-5.1,3.2-10.6,4-16.5,3.4s-11.8-0.8-17.7-1
		c-5.2-0.2-9.6,1.1-12.2,6.3c-2,4.1-5.5,5.6-10.1,5.1c-2.3-0.3-4.7-0.2-7.1-0.1c-4.2,0.1-7.8,1.5-10.7,4.8c-2,2.3-4.5,4.2-7.8,4.2
		c-2.9,0-4.3-1.6-3.1-4.1c0.9-1.9,2.5-3.5,4-5c1.2-1.1,2.9-1.8,4.3-2.6c3.4-1.9,5.7-4.7,6.5-8.6c0.6-2.6,1.4-5.2,2.1-7.8
		c0.7-2.4,2.1-3.7,4.7-3.8c3.7-0.1,7.4-0.3,11.1-0.5c1.8-0.1,3.7-0.3,5.5-0.8c7.3-2.4,8.9-9.7,3.2-15c-3.8-3.6-8.6-5.2-13.5-6.6
		c-6.2-1.7-12.3-3.3-18.4-5.4C-484.2,1496.2-485.6,1493.2-484.1,1486.6z M-480.7,1516.3c-5.8-1.5-11.4-3-17.5,0.2c0-3.3,0-5.9,0-8.7
		c7.4-4,14.5-6.3,22.7-2.6c4.6,2,9.7,2.7,14.5,4.2c3.7,1.1,7.4,2.3,10.9,4c3.4,1.7,3.3,4.3-0.4,5.7c-4.4,1.6-8.8,3-13.1-1
		c-2.4-2.2-5.6-2.6-9.1-1.9C-475.3,1516.7-478.2,1516.9-480.7,1516.3z M-486.7,1482.7c-0.7,0.8-1.4,4.6-9.5,3.9
		C-496.8,1483.9-495,1481.4-486.7,1482.7z M-487.4,1498.2c-3.3,1-6.3,2-10,3.2c-0.3-3.4-0.6-6.3-0.9-9.1
		C-490.8,1489.1-489.1,1490.1-487.4,1498.2z M-498.7,1521.9c2.2-0.8,4.2-1.6,6.3-2.1c1.4-0.4,3-0.7,4.4-0.4
		c4.8,0.9,9.5,2.1,14.2,3.1c-1.1,4.1-2.1,8.1-3.4,12.1c-0.9,3-3.7,4.4-5.7,2.4c-4-4-8-2.4-12.2-1.3c-1.1,0.3-2.2,0.5-3.5,0.7
		C-500.4,1531.4-499.6,1526.6-498.7,1521.9z M-497.7,1791.1c3-1,6-0.7,9.2,0.3c6.3,1.9,12.6,3.7,19.1,4.7c3.3,0.5,7-0.5,10.3-1.6
		c3.4-1.1,6.7-2.2,10.3-2.1c6.6,0.3,13.1,0.5,19.7,0.7c4.4,0.2,8.7,0.5,13.1,0.5c2.8,0,4.6,0.8,6.2,3.3c1.8,2.8,4.1,5.6,6.8,7.3
		c7.4,4.7,15,9,22.8,13.1c5.5,2.9,11.6,3.3,17.7,2.7c3.7-0.3,7.4-0.6,11.1-1c6.3-0.6,11.9,1.5,17.6,3.6c9.1,3.5,18.2,7.2,28.3,6.3
		c1-0.1,2,0.1,3,0.2c0.1,0,0.3,0.1,0.4,0.2c0.4,1.8,1.2,3.5,1.1,5.2c-0.1,1.9-0.6,4-1.6,5.6c-2.3,3.5-4.9,6.8-7.6,10.1
		c-3.5,4.2-5.6,8.8-4.5,14.4c0.1,0.4-0.2,1-0.3,1.9c-3.1,0.1-6.3,0.3-9.4,0.2c-15.7-0.2-31.4-0.7-47-0.7
		c-12.8-0.1-25.6,0.2-38.4,0.4c-7.4,0.2-14.8,0.7-22.2,1c-1.5,0.1-3-0.2-4.5-0.2c-3.7-0.2-7.4-0.6-11.1-0.6
		c-9.3,0.2-18.5,0.7-27.8,0.8c-3.7,0-7.4-0.6-11.1-0.8c-3.8-0.1-7.7,0-11.6,0C-500,1862.4-499.7,1802.9-497.7,1791.1z M-498,1927.1
		c-1.8-10.1-0.3-20.2-1.1-30.2c5.6-1.8,10.7-2.5,15.9-1.8c1.9,0.2,4,1.1,5.4,2.4c4.1,3.4,9,4.8,13.9,5.6c12,2,24,2.7,36.3,1.4
		c8-0.9,15.6-2.1,23.1-4.8c4.6-1.7,9.6-1.8,13.7,0.7c6.8,4.2,13.2,2.3,19.8-0.2c1.3-0.5,2.3-1.4,3.6-1.8c5.8-1.9,11.8-3.2,16.7,1.6
		c7.2,7,16.2,8,25.3,7.8c10.1-0.2,20-2.5,29.7-5.5c7-2.2,14-2.3,20.8,0.6c8.6,3.6,17.7,4.6,26.8,4.4c6.3-0.2,12.6-2.1,18.7-4
		c8.4-2.6,16.7-3.4,25.3-0.8c6,1.8,12,3.6,18,4.9c3.2,0.7,6.7,0.5,10,0.3c7.8-0.4,15.1-3.3,22.4-5.9c8.8-3.1,17.4-3.2,26.2-0.1
		c7.2,2.6,14.8,3.4,22.4,2.8c3-0.2,6-1,8.8-1.9c7.3-2.5,14.5-2.5,21.8-0.3c6.7,2.1,13.6,4.1,20.5,5.3c4.6,0.8,9.4,0.6,14.1,0.3
		c5.5-0.4,11.1-1.2,16.6-2.1c6.7-1,12.7-0.8,18.7,3.6c6.5,4.7,14.3,6.7,22.5,6.2c7.9-0.5,15.8-0.7,23.7-1.3
		c7.4-0.6,14.3,1.5,21.3,3.1c0.9,3.4,0.1,6.3-1.1,9.1c-1,2.4-2.8,4-5.6,4.7c-8.7,2-17.2,2.5-25.8-0.9c-6.2-2.5-12.2-1.9-17.3,3.1
		c-3.9,3.8-8.7,4.9-14.1,4.1c-5.8-0.9-11.7-1.8-17.5-2.8c-6.9-1.2-13.5-1.6-20.5,0.3c-3.8,1.1-8.4,0-12.4-0.9
		c-16.3-3.5-32.1-2.7-47.6,3.7c-2.7,1.1-6.3,0.7-9.4,0.5c-2-0.1-4-0.6-5.9-1.3c-5.8-2.3-11.7-2.1-17.4-0.3
		c-11.2,3.5-22.3,3.3-33.3-0.3c-9.1-3-18-2.2-26.8,0.8c-9.7,3.4-19.5,3.4-29.5,1.7c-2.5-0.4-5-0.7-7.4-1.5
		c-5.4-1.7-10.6-0.6-15.9,0.8c-6.5,1.6-13.2,3.1-19.8,3.8c-8,0.7-15.9-0.5-23.1-4.3c-4.4-2.3-8.9-3-13.7-1.7c-8,2.1-16.1,3.9-24.4,3
		c-4.7-0.5-9.5-0.8-13.9-2.3c-8.5-3-16.9-2.6-25.4-0.5c-8,2-16.1,3.6-24.5,3.4c-6.1-0.1-12-1-17.6-4c-7.3-3.9-15-4.2-23.1-2.9
		c-10.8,1.8-21.5,4.2-32.6,4c-5.7-0.1-11-1.3-15.8-4.4c-1.6-1-3.3-1.8-4.8-2.8c-3.4-2.2-7-3.1-11.1-2.4
		C-495.3,1927.3-496.4,1927.1-498,1927.1z M-491.8,1933.3c2.3,0,4.5,0.9,6.8,1.4c0.5,0.1,0.9,0.4,1.3,0.7
		c11.2,8.3,23.7,8.7,36.7,6.6c6.8-1.1,13.6-2.3,20.5-3.3c6.6-0.9,13.1-0.5,19.2,2.8c10.4,5.6,21.5,4.9,32.6,3.3
		c7.3-1.1,14.6-2.9,21.9-3.9c3.1-0.4,6.4,0.1,9.4,1c8,2.4,15.9,4.6,24.3,3.6c5-0.6,10.1-1.2,14.9-2.4c6.3-1.6,11.8-1.7,18,1.3
		c5.3,2.6,11.6,3.6,17.6,4.1c7.8,0.7,15.7-0.3,22.9-3.3c7.2-3,14.1-2.3,21.2-0.7c11.5,2.6,22.9,2.7,34.4-1.3
		c7.5-2.6,15.4-3.2,23.4-0.9c6.1,1.8,12.3,4,18.8,3.3c4.8-0.5,9.7-1.1,14.4-2.3c7.6-2,14.8-2.5,22.3,1.5c-0.6,0.7-1.1,1.3-1.6,1.8
		c-2.3,2.2-4.9,4.1-7,6.5c-3.2,3.6-6,7.7-9.2,11.4c-4.9,5.5-6.6,11.9-6.4,19.1c0.1,3.3-0.4,6.7-1.1,10c-0.5,2.2-1.8,3.9-4.6,3.9
		c-3.3,0-4.1-0.5-4.7-3.8c-1.3-7-9.9-14.6-16.8-14.3c-2.3,0.1-4.5,1.8-6.7,2.8c-3.5-0.7-7.2-1.4-11-2.1c-3.5-0.6-7.1-0.7-10.4-1.8
		c-7.4-2.4-14.6-1.9-22-0.5c-5,1-9.9,1.9-14.9,2.8c-7.9,1.5-15.8,1.2-23.7-0.2c-1.3-0.2-2.7-0.4-4-0.8c-11.4-2.8-22.8-3.9-34.6-1.5
		c-6.3,1.3-12.7,0.8-19.1-0.8c-5.2-1.3-10.6-1.9-16-2.4c-2.1-0.2-4.2,0.5-6.3,0.8c-0.7,0.1-1.3,0.6-1.9,0.5c-10.8-0.7-21,3-31.5,4
		c-8.6,0.8-17.2,1.4-25.7-0.5c-4.7-1.1-9.2-3.1-13.8-4.8c-6.7-2.6-13.5-2.9-20.4-1.1c-12.2,3.1-24.6,4-37.2,3.1
		c-3-0.2-6.4-0.6-8.7-2.3c-6.2-4.4-13.1-3.6-19.9-3.8c-1.7-0.1-3.3,0-5.6,0c-0.1-2-0.3-3.5-0.4-5c-0.4-8.8-0.7-17.5-1.1-26.3
		C-497.6,1934.7-496.6,1933.3-491.8,1933.3z M-185.9,1986.6c-3.4,1.3-6.5,2.4-9.5,3.6c-8.1,3.4-14.5,8.9-19.6,16.1
		c-3.7,5.2-8.5,8.9-15.5,9c-2.7,0-5-0.5-6.8-2.6c-5.8-6.7-12.8-6.6-20.2-3.4c-3,1.3-5.7,1.8-8.5-0.3c-0.1-3.3,2.3-4.3,4.5-5.5
		c2.9-1.7,6-3,8.8-4.9c5.8-3.8,5.8-4,5.8-10.7c0.8,0,1.6-0.2,2.4-0.1c9.4,1,18.4-0.9,27.6-2.6c2.3-0.4,4.6-0.9,6.9-1.4
		C-201.8,1982.1-193.9,1983.7-185.9,1986.6z M-314,2059.3c-2.2-0.2-4.3-0.2-6.1-0.7c-7.6-2.2-15.2-4.3-22.7-6.8
		c-6.8-2.3-13.4-2.3-20.4-0.7c-7.2,1.7-14.5,3.3-21.8,4c-8,0.8-15.7-1.3-23.2-3.9c-4.3-1.5-8.5-3.3-12.9-4.3c-6.7-1.6-13,0.2-19,3.3
		c-8.5,4.4-17.5,4.6-26.6,3.5c-0.8-0.1-1.7-0.3-2.4-0.7c-8-3.9-16.5-5.6-25.7-5c-0.2-1.2-0.6-2.3-0.6-3.4
		c-0.3-7.9-0.6-15.8-0.6-23.7c0-4.8,0.2-4.9,5-6c2.1-0.4,4.4-0.6,6.4-0.1c6.6,1.5,13.2,3,19.5,5.3c9.6,3.4,19.2,2.8,28.9,0.8
		c3.1-0.7,6.3-1.4,9.2-2.6c10.3-3.9,20.2-2.6,29.9,2c11.9,5.6,24.6,7.1,37.5,6.2c4-0.3,7.9-1.7,11.8-2.8c8-2.2,16-2.7,23.9,0.1
		c4.1,1.4,8.1,3.3,12.4,5.1C-312.7,2039-310.6,2049.1-314,2059.3z M-495.7,2058.8c-0.1-2.7,1.2-4.2,3.7-4.6c2.1-0.3,4.5-0.8,6.5-0.3
		c4.9,1.1,9.7,2.8,14.5,4.2c2.3,0.7,4.5,1.6,6.8,1.8c9.5,0.9,18.8,0,27.4-4.8c6.6-3.7,13.7-3.4,20.6-0.8c6.6,2.4,13.2,5,20.2,6.3
		c7.6,1.3,15.1,1.2,22.5-0.8c4.4-1.2,8.8-2.3,13.3-3.1c6.3-1.1,12.3-0.2,18.4,1.9c8.7,3,17.7,5.4,27.4,8.4
		c-0.3,6.6-0.6,13.6-0.9,20.8c-8.5,2.3-16.7,2.6-24.7-1.1c-3.8-1.7-7.6-3.6-11.6-5c-4.6-1.6-9.2-1.2-13.7,1.2
		c-10.7,5.8-22.1,7-33.8,3.9c-6.2-1.6-12.3-3.6-18.3-5.8c-5.2-1.9-10.2-1.5-15.3,0.4c-2.7,1-5.3,2.2-7.9,3.5
		c-12.6,6.4-25.4,6.3-37.9,0.2c-4.8-2.4-9.6-4-14.9-3.9c-0.5,0-0.9-0.3-2-0.6c-0.1-3-0.3-6.1-0.4-9.3
		C-495.7,2067.3-495.5,2063.1-495.7,2058.8z M-318.7,2019.3c-10.7-5.1-21.4-5-32.4-1.2c-3,1.1-6.2,2-9.3,2
		c-11,0.1-21.9-0.2-32.4-4.3c-4.2-1.7-8.5-3.2-12.8-4.7c-7.9-2.8-15.6-1-23.3,1.1c-5.2,1.4-10.4,2.8-15.7,3.6
		c-9,1.5-17.7-0.1-26.2-3.4c-7.7-3-15.8-4.6-25-2.9c-0.2-2.5-0.4-4.4-0.4-6.2c0-7.1,0.1-14.2,0.2-21.3c0.1-4.4,0.4-5,4.9-5.3
		c6.9-0.4,13.7-0.5,20,3.4c2.5,1.5,5.7,2.3,8.6,2.6c11.7,1,23.3,0.7,34.6-2.4c11.2-3,21.5-1.5,31.8,3.7c5.8,2.9,12.4,3.3,18.8,3
		c10.8-0.3,21.5-1.5,32.1-3.9c5.1-1.2,10.4-1.1,15.6-0.1c3.5,0.7,6.9,1,10.4-0.6c1.4-0.6,3.3-0.3,4.9-0.1c7.1,1.3,14.2,3.2,21.5,2.4
		c4.5-0.5,9-1,13.5-1.6c5.2-0.7,10.3-0.6,15.4,1.9c-9.2,4-18.7,7.2-26.4,13.7c-7.7,6.4-13.9,14.1-18.2,23.8
		C-312.5,2021.6-315.8,2020.7-318.7,2019.3z M-330.9,2131.7c-1.3,0.1-2.8,0.4-4.3,0.4c-22.1,0-44.2,0-66.2-0.2
		c-17.5-0.1-35-0.9-52.5,0.4c-9.4,0.7-18.9,0.7-28.3,1.1c-3,0.1-6,0.9-9,1.2c-1.3,0.2-2.6,0-4.3,0c-1.1-5.1-1.7-9.9-1.5-14.7
		c0.1-2.8,2.1-3.9,4.4-4c3,0,6.1,0.2,9,0.9c6.9,1.6,13.6,3.9,20.5,5.4c12.4,2.8,24.3,2,35.9-3.9c5.5-2.8,11.6-3.8,17.7-2.3
		c5.4,1.3,10.7,2.8,16,4.5c9.8,3.1,19.4,5.3,29.7,2c3.9-1.3,8.2-1.6,12.4-2.1c6.4-0.7,12.2,2.2,18.3,3.4
		C-330.4,2124.2-329.9,2126.8-330.9,2131.7z M-327.6,2115.9c-1,1.7-2.6,2-4.4,1.6c-2.1-0.5-4.4-0.6-6.4-1.4
		c-8.7-3.6-17.3-2.4-25.8,0.3c-9.3,3-18,1.2-26.8-1.6c-5.1-1.6-10.3-3.2-15.5-4.6c-8.1-2.2-15.8-0.9-23.1,2.9
		c-9.6,5-19.7,5.7-30,3.9c-6.8-1.2-13.4-3.4-20.1-4.8c-5.2-1.1-10.5-1.9-16.9-3c0.2-5.9,0.5-12.5,0.8-19c0.1-2.1,1.5-2.9,3.4-3.1
		c3.6-0.2,7,0.2,10.2,2.1c14,8.5,28.3,8.2,43,1.3c4.2-2,8.8-3.4,13.3-4.4c2.1-0.5,4.6,0.2,6.8,0.8c6.1,1.8,12.1,4.2,18.2,5.9
		c12.9,3.6,25.4,2.3,37.2-4c4.8-2.5,9.5-1.5,14.1,0.5s9.2,4.3,14.1,5.5c4.2,1,8.7,0.6,13,0.8c2.3,0.1,4.6,0,7.2,0
		c0,3.2,0.2,5.7-0.1,8.1c-0.3,2.8-1.6,5-4.5,6.1C-322.9,2111-325.7,2112.9-327.6,2115.9z M-24.2,2131c-6.1,0.2-12,0.5-17.8,0.5
		c-20.9,0-41.8-0.1-62.8-0.3c-27.7-0.3-55.3-0.7-83-1.1c-16.2-0.2-32.4-0.8-48.6-0.9c-5.9,0-11.7,0.8-17.6,1.1
		c-2.7,0.1-5.4-0.1-8-0.2c-2.7,0-5.4-0.3-8,0c-16.8,1.9-33.7,2.3-50.5,1.9c-1,0-2-0.2-3.3-0.4c0-2.5-0.5-5.1,0.1-7.4
		c0.6-2.2,2.4-4,4.1-6.7c0.3-0.1,1.4-0.5,2.5-1c5.1-2.3,8-6.1,8.1-11.7c0.1-3.2,0-6.4,0.1-9.6c0.3-8.9,0.6-17.9,1-26.8
		c0.1-1.1,0.7-2.2,1.1-3.3c0.3-0.8,1.2-21.1,0.9-30.4c-0.1-3,1.5-6.2,2.9-9.1c7.4-14.8,18.6-25.5,34.3-31.2
		c3.8-1.4,7.7-2.4,11.6-3.4c0.7-0.2,1.5,0,2.7,1c-2.5,1.5-5,3-7.5,4.6c-2.9,1.9-6.1,3.6-8.6,6c-3.6,3.6-1.3,11.4,3.6,12.8
		c4.6,1.3,9.1,2,13.7-0.5c4.5-2.4,8.8-2,12.8,2.1c5.7,5.9,12.8,5.2,19.7,2.5c4.6-1.8,8.1-5.3,11.1-9.3c7.5-10.2,17.5-16,30.2-17.2
		c1-0.1,2.1-0.2,3-0.6c3.6-1.7,6.8-1.1,10.3,1.6c-1,3-1.9,5.9-3,8.7c-3,7.8-1.1,14.9,3.3,21.6c1.6,2.4,3.8,4.1,7.1,4.4
		c1.7,0.2,3.3,1.3,4.9,2.2c1.2,0.7,2,1.9,3.3,2.3c2.8,0.9,4.4,3,6,5.1c2.5,3.4,5,6.8,7.6,10.1c5.9,7.5,14.2,5.3,18-1.1
		c0.9-1.4,2.5-2.8,4.1-3.4c5.8-2.3,11.7-4.3,17.5-6.5c2.4-0.9,4.3-0.5,5.7,1.6c1.9,2.8,3.6,5.7,5.5,8.5c1.8,2.6,3.9,5,5.4,7.8
		c1,1.8,1.7,4,2,6.1c1.5,8.6,2.3,17.4,4.5,25.8c2.6,10,8.9,11.9,18.1,11.5c1.5-0.1,3-0.4,4.5-0.7c8.5-1.6,16,1.2,23,5.6
		c1.4,0.9,2.6,2.8,2.9,4.4C-24.3,2115.5-23.9,2123.1-24.2,2131z M335.7,2135.3c-24.1-0.8-48.2-1.7-72.3-2.5
		c-5.7-0.2-11.5,0.4-17.2,0.4c-6.4,0.1-12.8,0-19.2,0c-23.3,0-46.6,0.1-69.8-0.2c-20.4-0.2-40.8-0.8-61.2-1.3
		c-10.8-0.3-21.6-0.9-32.3-0.9c-11.1,0-22.2,0.5-33.3,1c-8.1,0.4-16.1,1.7-24.2,1.6c-8-0.1-16-1.4-24.3-2.2c-0.3-2.2-0.7-4-0.9-5.8
		c-0.7-5.7-1.3-11.4-1.9-17.1c-0.5-4.6-2.9-7.9-6.7-10.2c-8.1-4.8-16.6-8.1-26.4-6c-2.9,0.6-6,0.3-9.1,0.3c-3.5-0.1-5.8-2-6.5-5.3
		c-1.6-8.1-2.9-16.2-4.2-24.4c-1-6.5-2.5-12.8-8.2-17.1c-1-0.8-1.6-2.2-2.3-3.3c-1.9-2.8-3.7-5.7-5.8-8.3c-2.4-3-6-3.9-9.5-2.6
		c-5.9,2.1-11.7,4.2-17.6,6.4c-2.7,1-4.9,2.3-6.3,5.3c-2.5,5.3-7.4,5.7-11.2,1.2c-1.3-1.5-2.4-3.2-3.5-4.9
		c-3.5-5.5-8.3-9.7-13.2-13.8c-1.4-1.1-3.3-1.7-5-2.2c-2.2-0.7-5,0.1-6.3-2.4c-1.6-3-3.2-6-2.7-9.6c0.1-1.2,0.3-2.4,0.6-3.5
		c0.9-2.7,1.7-5.5,2.8-8.1c1.8-4.3,1.8-8.2-2.3-11.3c4.6-4.2,11.1-2.3,12.6,3.5c2.6,10.1,2.7,10.1,12.9,11.5
		c2.6,0.4,4.1-0.4,5.7-2.3c3.2-3.7,4.3-8.2,3.9-12.8c-0.7-9.4,3-16.4,8.5-23.9c7.6-10.2,17.5-16.6,28.3-22.3c2.8-1.5,6-2.3,9.1-3
		c10.7-2.2,21.4-2,32.1,0.3c6.7,1.4,13.4,2.7,20.4,0.2c3.3-1.2,7.3-0.4,11,0c6.5,0.8,13,2,19.5,3c6.7,1.1,12.8-0.3,17.9-5
		c3.8-3.4,8-4.1,12.6-2.1c10.3,4.4,20.8,3.4,31.2,0.5c3.8-1.1,6.1-3.9,7.2-7.8c1.9-6.7,0.7-13-2.2-19.1c-1.6-3.4-1.5-3.4-0.3-7.1
		c1.1,0.9,2.2,1.5,3.1,2.4c3.4,3.3,7.4,4.5,12,4.6c2.5,0.1,4-0.7,4.6-3.5c0.9-4,0.6-7.6-1-11.4c-2.4-5.6-1.6-7.4,3.8-9.8
		c0.8-0.3,1.6-0.6,2.4-0.9c4.9-1.7,5.5-1.4,6.1,3.7c0.7,5.3,2.2,6.2,7.3,5.8c7.1-0.6,12.8-3.4,17.9-8.3c3.9-3.7,8.2-7.1,15.2-6
		c-1.5,1.9-2.6,3.5-4,4.8c-1.9,1.8-3.9,3.5-3.2,6.4c0.8,3.2,3.4,4.4,6.3,5.1c4.4,1,8.8,2,13.3,3c4.5,0.9,8.3,0.3,11-4
		c1.6-2.6,3.6-4.9,5.4-7.3c1.4-1.8,3.1-2.5,5.3-1.6c2.4,0.9,3.1,2.2,2.3,4.7c-0.3,1-0.7,1.9-1.3,2.8c-2.8,4.5-2.2,7.2,2,10.5
		c1.5,1.2,2.7,2.9,3.8,4.5c1.2,1.6,2,3.6,3.4,5c1.1,1.1,2.9,2.1,4.2,2c3.2-0.2,5,1.3,6.8,3.5c2,2.5,4,5,6.3,7.2
		c4.4,4,9.5,4.6,15.1,2.8c4.6-1.4,9.5-2.4,14.2-3.3c3.2-0.6,4.9,0.3,5.6,3.5c1.5,6.7,5.7,10.3,12.1,12.2c7,2,13.8,4.5,20.6,6.9
		c4.5,1.5,5,2.2,6.9,7c-3.7,2.6-4.5,6.5-4.9,10.9c-0.4,5.2-1.4,10.4-2.7,15.4c-0.8,2.8-2.6,5.5-4.2,7.9c-1.7,2.5-3.2,4.8-2.8,8.3
		c0.4,3.3-1.8,6-4.1,8.3c-0.6,0.6-1.3,1-2,1.5c-8.8,7.1-8.2,15.7-0.5,23.4c1.7,1.7,3,3.3,3.8,5.7c2,5.4,6,7.9,11.1,5.7
		c6.6-2.8,12.6-0.8,18.8,0.3c4.2,0.7,8.3,1.5,12.5,0.9c2.8-0.4,4.6,0.5,6.4,2.8c2.1,2.7,5.1,4.8,7.8,7c4.7,3.8,9.5,7.4,14.2,11.2
		c0.9,0.7,1.8,1.8,1.9,2.8c0.4,5.2,1,10.4-1.6,15.4c-4.6,8.8-0.6,16.6,9.2,18.3c9,1.5,11.7,4.9,11.7,13.9c0,5,0.6,10,0.9,15.1
		c0.1,1.7,0.3,3.3,0.4,5.7C344.7,2135.1,340.2,2135.5,335.7,2135.3z M457.6,1750.4c-0.3,10.9-1.4,21.9-1.7,32.8
		c-0.4,10.6-0.1,21.2-0.4,31.9c-0.5,17.4-1.2,34.7-1.8,52.1c-0.6,16.9-1.1,33.7-1.7,50.6c-0.4,11.8-0.9,23.6-0.9,35.4
		c-0.1,10.8,0.5,21.6,0.6,32.4c0.4,24.8,0.7,49.6,1,74.4c0.3,22.3,0.5,44.5,0.6,66.8c0.1,7.5-0.5,8.1-8,8
		c-7.6-0.1-15.2-0.7-22.7-1.1c-1-0.1-2-0.3-3-0.3c-18.7,0.2-37.4,0.4-56.1,0.7c-2.5,0-5,0.3-7.9,0.4c-1.4-6.1-3.6-11.6-2.7-17.6
		c0.6-4.4,0-8.8-1.6-12.9c-2.1-5.3-5.9-8.4-11.6-9.4c-2.4-0.4-4.9-1.2-7.1-2.2c-2.2-1.1-3-2.9-1.6-5.5c3.2-5.8,3.6-12.2,3.3-18.7
		c-0.2-3.6-1.6-6.6-4.1-9c-5.1-4.9-10.4-9.7-16.7-13c-4.9-2.5-6.9-6.7-6.4-12.1c0.2-2.6,1.2-4.9,3.5-6.4c4-2.6,5.2-6.4,5.5-11.2
		c0.4-7.5-2.9-14.1-4.3-21.2c-0.5-2.5-2.3-4.6-4.9-5.5c-3.8-1.4-7.6-2.5-11.5-3.8c-2.2-0.7-4.4-1.3-6.4-1.9
		c-1.2-6.9-2.3-12.8-3.4-18.9c2.6,0.4,2.6,2.2,2.8,3.8c0.4,2.5,0.4,5.5,3.2,6.4c3,1,5.5-1,7.6-3.1c2.6-2.6,4.9-5.6,7.7-7.9
		c3.2-2.7,6.8-4.9,10.3-7.3c1.2-0.9,2.6-1.6,3.8-2.5c3-2.2,4.4-5.3,3.9-8.8c-0.5-3.3-3-5.1-6.3-5.8c-1-0.2-1.9-0.6-3.1-1
		c0.1-1.5-0.1-2.9,0.3-4.1c2.7-7.4,5.1-15.1,10.7-21c6.1-6.4,7.2-14.3,6.9-22.6c-0.1-4.9-1.3-9.7-1.8-14.5c-0.7-6.8-4.3-12-8.7-16.8
		c-2.2-2.3-2.9-4.6-3-7.6c-0.1-4-0.3-8.1-1.1-12c-1.1-5.1-4.9-8.8-8.2-12.5c-2.4-2.8-5.1-5.3-7.8-7.9c-3.1-3-5.1-6.2-3-10.7
		c1-2.1,1.2-4.6,2.1-6.7c1.5-3.6,2.7-4.2,6.7-3.8c3.2,0.3,6.4,0.9,9.5,1.2c1.5,0.2,3,0.4,4.5,0.1c3.3-0.5,4.1-1.9,2.6-4.9
		c-0.9-1.8-2-3.5-0.7-6c1.1,0.2,2.4,0.2,3.6,0.7c8,3,16.1,6,24,9.3c5.4,2.2,7.1,1.5,8.8-4.4c7.9,0,15.6-1.8,22.9-4.9
		c3.1-1.3,5.8-3.4,8.8-4.9c1.9-0.9,4.1-2.2,6-2c7,0.9,11.3-3,14.5-8.1c2-3.2,3-7.1,4.3-10.7c0.8-2.1-0.7-3.6-2.1-4.8
		c-3.3-2.8-6.5-6-10.9-7.1c-0.6-0.2-1.2-0.5-2.4-1.1c2.4-4.6,5.3-8.5,10.6-9.1c4.5-0.5,7.8-2.4,10.6-6c2.2-2.7,5-5,7.7-7.3
		c3.4-2.9,6.2-6.2,7.4-10.6c0.7-2.6,2.4-3.8,4.9-4.6c5.9-1.7,7.6-4,6.6-9.9c-0.7-3.9,0.1-7.2,1.7-10.7c2.5-5.6,3.9-11.5,1.2-17.6
		c-0.8-1.7-1.4-3.7-2.7-4.8c-3.4-2.8-5.2-5.6-4.7-10.3c0.3-3.2-4.1-4.9-7.4-3.2c-1.3,0.7-2.5,1.7-3.7,2.7c-2.6,2.1-5.5,2.5-8.5,1.2
		c-0.9-0.4-2-0.5-2.9-1c-5.1-2.8-10.5-4.4-16.3-4.8c-2.4-0.2-3.3-1.5-4-3.7c-1.7-5.4-0.5-9.6,4-12.9c0.8-0.6,1.6-1.2,2.3-2
		c2.6-2.6,2.8-4.6,0.5-7.5c-1.6-2.1-4.1-3.6-4.3-7.4c1.9-0.9,3.9-2.2,6-2.7c4.1-0.8,8.3-1.4,12.5-1.6c4.7-0.3,9.5-0.3,14.2,0
		c3,0.2,5.9,1.1,9.3,1.8c1.9-3.9,3.8-7.9,5.8-11.8c0.4,0.1,0.8,0.2,1.3,0.3c0.1,4.6,0.4,9.2,0.4,13.9c0.1,9.9-0.3,19.9,0.2,29.8
		c0.7,14.5,2.1,28.9,3,43.4c0.3,4.9,0.2,9.8,0.2,14.7C457.7,1723.1,457.9,1736.8,457.6,1750.4z"/>
	<circle class="st2" cx="-299.3" cy="1526.6" r="33"/>
</g>
<rect x="-386.8" y="1663.5" class="st3" width="144.3" height="27.5"/>
<g class="st4">
	<path class="st5" d="M-357.8,1673.7v1.6c0,0.8-0.4,1.2-1.2,1.2h-8.2v7.6c0,0.8-0.4,1.2-1.2,1.2h-1.8c-0.8,0-1.2-0.4-1.2-1.2v-19.4
		c0-0.8,0.4-1.2,1.2-1.2h11.7c0.8,0,1.2,0.4,1.2,1.2v1.8c0,0.8-0.4,1.2-1.2,1.2h-8.6v4.7h8.2
		C-358.2,1672.5-357.8,1672.9-357.8,1673.7z"/>
	<path class="st5" d="M-352.6,1685.4h-1.8c-0.8,0-1.2-0.4-1.2-1.2v-19.4c0-0.8,0.4-1.2,1.2-1.2h7c1.5,0,2.7,0.1,3.7,0.3
		c1,0.2,1.7,0.6,2.3,1.1s1,1.2,1.2,1.9c0.2,0.8,0.3,1.7,0.3,2.9v0.6c0,1.4-0.3,2.6-0.8,3.6c-0.6,1-1.5,1.7-2.7,2.2l3.4,7.9
		c0.2,0.4,0.2,0.7,0,1c-0.2,0.3-0.4,0.4-0.8,0.4h-2.3c-0.6,0-1-0.3-1.2-0.8l-3.3-8h-3.8v7.6C-351.3,1685-351.8,1685.4-352.6,1685.4z
		 M-347.4,1667.5h-4v5.5h4c1.2,0,2.1-0.2,2.5-0.5c0.5-0.3,0.7-1,0.7-2v-0.4c0-1-0.2-1.7-0.7-2
		C-345.3,1667.6-346.1,1667.5-347.4,1667.5z"/>
	<path class="st5" d="M-333.9,1684.4c-0.2,0.6-0.6,0.9-1.2,0.9h-1.8c-0.4,0-0.7-0.1-0.9-0.4c-0.2-0.2-0.2-0.6-0.1-1l6.4-19.7
		c0.2-0.6,0.6-0.9,1.2-0.9h3.8c0.6,0,1,0.3,1.2,0.9l6.4,19.7c0.1,0.4,0.1,0.7-0.1,1c-0.2,0.2-0.5,0.4-0.9,0.4h-1.8
		c-0.6,0-1.1-0.3-1.2-0.9l-1.3-4.1h-8.3L-333.9,1684.4z M-325.4,1676.8l-3-9.9l-3,9.9H-325.4z"/>
	<path class="st5" d="M-300,1685.4h-1.9c-0.5,0-0.8-0.2-1.1-0.6l-10-14v13.4c0,0.8-0.4,1.2-1.2,1.2h-1.6c-0.8,0-1.2-0.4-1.2-1.2
		v-19.4c0-0.8,0.4-1.2,1.2-1.2h1.8c0.5,0,0.9,0.2,1.1,0.6l10,13.6v-12.9c0-0.8,0.4-1.2,1.2-1.2h1.7c0.8,0,1.2,0.4,1.2,1.2v19.4
		C-298.8,1685-299.2,1685.4-300,1685.4z"/>
	<path class="st5" d="M-286.9,1685.5c-1.8,0-3.3-0.2-4.6-0.5c-1.3-0.4-2.3-0.9-3.1-1.7c-0.8-0.8-1.5-1.8-1.8-3.1
		c-0.4-1.3-0.6-2.8-0.6-4.7v-2.3c0-1.5,0.2-2.9,0.6-4.1c0.4-1.2,1-2.2,1.8-3.1s1.9-1.5,3.2-2s2.9-0.7,4.6-0.7c3,0,5.3,0.6,7,1.8
		c1.7,1.2,2.7,3,3,5.3c0.1,0.4,0.1,0.7,0.1,1c0.1,0.8-0.3,1.2-1.1,1.2h-2c-0.4,0-0.7-0.1-0.9-0.3s-0.3-0.5-0.3-0.9
		c-0.1-0.4-0.1-0.7-0.2-0.8c-0.3-1.1-0.9-2-1.8-2.5c-0.9-0.5-2.2-0.8-3.8-0.8c-1.4,0-2.4,0.2-3.3,0.6c-0.8,0.4-1.5,1-1.9,1.9
		s-0.6,2.1-0.6,3.7v1.8c0,2.2,0.5,3.8,1.4,4.7c0.9,1,2.4,1.4,4.4,1.4c1.7,0,3-0.3,3.9-0.8c0.9-0.6,1.5-1.5,1.8-2.8
		c0.1-0.2,0.1-0.5,0.1-0.8c0-0.4,0.2-0.7,0.3-0.9s0.5-0.3,0.9-0.3h1.9c0.8,0,1.2,0.4,1.1,1.2c0,0,0,0.3-0.1,0.9
		c-0.3,2.6-1.2,4.5-2.8,5.7S-283.7,1685.5-286.9,1685.5z"/>
	<path class="st5" d="M-262,1685.4h-11.7c-0.8,0-1.2-0.4-1.2-1.2v-19.4c0-0.8,0.4-1.2,1.2-1.2h11.7c0.8,0,1.2,0.4,1.2,1.2v1.6
		c0,0.8-0.4,1.2-1.2,1.2h-8.6v4.4h8.2c0.8,0,1.2,0.4,1.2,1.2v1.5c0,0.8-0.4,1.2-1.2,1.2h-8.2v5.4h8.6c0.8,0,1.2,0.4,1.2,1.2v1.6
		C-260.8,1685-261.2,1685.4-262,1685.4z"/>
</g>
<rect x="-282.8" y="2084.2" class="st3" width="193.8" height="27.5"/>
<g class="st4">
	<path class="st6" d="M-268.6,2094.4v1.6c0,0.8-0.4,1.2-1.2,1.2h-8.2v7.6c0,0.8-0.4,1.2-1.2,1.2h-1.8c-0.8,0-1.2-0.4-1.2-1.2v-19.4
		c0-0.8,0.4-1.2,1.2-1.2h11.7c0.8,0,1.2,0.4,1.2,1.2v1.8c0,0.8-0.4,1.2-1.2,1.2h-8.6v4.7h8.2C-269,2093.2-268.6,2093.6-268.6,2094.4
		z"/>
	<path class="st6" d="M-263.4,2106.1h-1.8c-0.8,0-1.2-0.4-1.2-1.2v-19.4c0-0.8,0.4-1.2,1.2-1.2h7c1.5,0,2.7,0.1,3.7,0.3
		c1,0.2,1.7,0.6,2.3,1.1c0.6,0.5,1,1.2,1.2,1.9c0.2,0.8,0.3,1.7,0.3,2.9v0.6c0,1.4-0.3,2.6-0.8,3.6c-0.6,1-1.5,1.7-2.7,2.2l3.4,7.9
		c0.2,0.4,0.2,0.7,0,1c-0.2,0.3-0.4,0.4-0.8,0.4h-2.3c-0.6,0-1-0.3-1.2-0.8l-3.3-8h-3.8v7.6
		C-262.1,2105.7-262.5,2106.1-263.4,2106.1z M-258.1,2088.2h-4v5.5h4c1.2,0,2.1-0.2,2.5-0.5s0.7-1,0.7-2v-0.4c0-1-0.2-1.7-0.7-2
		C-256.1,2088.4-256.9,2088.2-258.1,2088.2z"/>
	<path class="st6" d="M-244.7,2105.2c-0.2,0.6-0.6,0.9-1.2,0.9h-1.8c-0.4,0-0.7-0.1-0.9-0.4c-0.2-0.2-0.2-0.6-0.1-1l6.4-19.7
		c0.2-0.6,0.6-0.9,1.2-0.9h3.8c0.6,0,1,0.3,1.2,0.9l6.4,19.7c0.1,0.4,0.1,0.7-0.1,1s-0.5,0.4-0.9,0.4h-1.8c-0.6,0-1.1-0.3-1.2-0.9
		l-1.3-4.1h-8.3L-244.7,2105.2z M-236.2,2097.5l-3-9.9l-3,9.9H-236.2z"/>
	<path class="st6" d="M-210.8,2106.1h-1.9c-0.5,0-0.8-0.2-1.1-0.6l-10-14v13.4c0,0.8-0.4,1.2-1.2,1.2h-1.6c-0.8,0-1.2-0.4-1.2-1.2
		v-19.4c0-0.8,0.4-1.2,1.2-1.2h1.8c0.5,0,0.9,0.2,1.1,0.6l10,13.6v-12.9c0-0.8,0.4-1.2,1.2-1.2h1.7c0.8,0,1.2,0.4,1.2,1.2v19.4
		C-209.6,2105.7-210,2106.1-210.8,2106.1z"/>
	<path class="st6" d="M-197.7,2106.2c-1.8,0-3.3-0.2-4.6-0.5c-1.3-0.4-2.3-0.9-3.1-1.7c-0.8-0.8-1.5-1.8-1.8-3.1
		c-0.4-1.3-0.6-2.8-0.6-4.7v-2.3c0-1.5,0.2-2.9,0.6-4.1c0.4-1.2,1-2.2,1.8-3.1c0.8-0.9,1.9-1.5,3.2-2s2.9-0.7,4.6-0.7
		c3,0,5.3,0.6,7,1.8c1.7,1.2,2.7,3,3,5.3c0.1,0.4,0.1,0.7,0.1,1c0.1,0.8-0.3,1.2-1.1,1.2h-2c-0.4,0-0.7-0.1-0.9-0.3
		c-0.2-0.2-0.3-0.5-0.3-0.9c-0.1-0.4-0.1-0.7-0.2-0.8c-0.3-1.1-0.9-2-1.8-2.5c-0.9-0.5-2.2-0.8-3.8-0.8c-1.4,0-2.4,0.2-3.3,0.6
		c-0.8,0.4-1.5,1-1.9,1.9c-0.4,0.9-0.6,2.1-0.6,3.7v1.8c0,2.2,0.5,3.8,1.4,4.7c0.9,1,2.4,1.4,4.4,1.4c1.7,0,3-0.3,3.9-0.8
		c0.9-0.6,1.5-1.5,1.8-2.8c0.1-0.2,0.1-0.5,0.1-0.8c0-0.4,0.2-0.7,0.3-0.9c0.2-0.2,0.5-0.3,0.9-0.3h1.9c0.8,0,1.2,0.4,1.1,1.2
		c0,0,0,0.3-0.1,0.9c-0.3,2.6-1.2,4.5-2.8,5.7C-192.1,2105.6-194.5,2106.2-197.7,2106.2z"/>
	<path class="st6" d="M-172.8,2106.1h-11.7c-0.8,0-1.2-0.4-1.2-1.2v-19.4c0-0.8,0.4-1.2,1.2-1.2h11.7c0.8,0,1.2,0.4,1.2,1.2v1.6
		c0,0.8-0.4,1.2-1.2,1.2h-8.6v4.4h8.2c0.8,0,1.2,0.4,1.2,1.2v1.5c0,0.8-0.4,1.2-1.2,1.2h-8.2v5.4h8.6c0.8,0,1.2,0.4,1.2,1.2v1.6
		C-171.6,2105.7-172,2106.1-172.8,2106.1z"/>
</g>
<rect x="41.1" y="2031.2" class="st3" width="187.2" height="27.5"/>
<g class="st4">
	<path class="st6" d="M50.2,2053.1h-7.5c-0.8,0-1.2-0.4-1.2-1.2v-19.4c0-0.8,0.4-1.2,1.2-1.2h7.6c4.5,0,6.7,1.6,6.7,4.7v1.3
		c0,1.2-0.4,2.1-1.2,2.8c-0.8,0.7-2,1.1-3.6,1.1c2.1,0,3.6,0.5,4.6,1.3c1,0.8,1.5,2,1.5,3.5v1.4
		C58.5,2051.2,55.7,2053.1,50.2,2053.1z M50,2034.8h-4.2v5.1H50c1,0,1.7-0.2,2.1-0.5c0.4-0.3,0.6-1,0.6-1.9v-0.5
		c0-0.8-0.2-1.4-0.6-1.7C51.7,2034.9,51,2034.8,50,2034.8z M50.2,2043.3h-4.4v6.2h4.4c1.4,0,2.4-0.2,3.1-0.7
		c0.6-0.4,0.9-1.2,0.9-2.4v-0.5c0-1-0.3-1.7-0.9-2.1C52.6,2043.5,51.6,2043.3,50.2,2043.3z"/>
	<path class="st6" d="M73.1,2053.1H61.4c-0.8,0-1.2-0.4-1.2-1.2v-19.4c0-0.8,0.4-1.2,1.2-1.2h11.7c0.8,0,1.2,0.4,1.2,1.2v1.6
		c0,0.8-0.4,1.2-1.2,1.2h-8.6v4.4h8.2c0.8,0,1.2,0.4,1.2,1.2v1.5c0,0.8-0.4,1.2-1.2,1.2h-8.2v5.4h8.6c0.8,0,1.2,0.4,1.2,1.2v1.6
		C74.3,2052.7,73.9,2053.1,73.1,2053.1z"/>
	<path class="st6" d="M89.1,2053.1H77.4c-0.8,0-1.2-0.4-1.2-1.2v-19.4c0-0.8,0.4-1.2,1.2-1.2h1.8c0.8,0,1.2,0.4,1.2,1.2v16.6h8.6
		c0.8,0,1.2,0.4,1.2,1.2v1.6C90.3,2052.7,89.9,2053.1,89.1,2053.1z"/>
	<path class="st6" d="M107.9,2049.3c-1.1,2.6-3.6,3.9-7.6,3.9c-3.5,0-6-0.8-7.6-2.4c-1.6-1.6-2.3-4.2-2.3-7.9v-2.3
		c0-6.4,3.4-9.5,10.2-9.5c2.9,0,5.2,0.5,6.9,1.6c1.7,1.1,2.7,2.6,3,4.6c0.1,0.5,0.2,0.9,0.2,1.2c0.1,0.8-0.3,1.2-1.1,1.2h-2
		c-0.4,0-0.7-0.1-0.9-0.2c-0.2-0.1-0.3-0.4-0.4-0.8c-0.1-0.4-0.1-0.6-0.2-0.8c-0.3-0.9-1-1.6-1.9-2c-0.9-0.4-2.2-0.7-3.7-0.7
		c-1.4,0-2.4,0.2-3.3,0.6c-0.8,0.4-1.5,1-1.9,1.9s-0.6,2.1-0.6,3.7v1.8c0,2.2,0.5,3.8,1.4,4.7c0.9,1,2.4,1.4,4.4,1.4
		c0.7,0,1.3,0,1.9-0.1c0.5-0.1,1.1-0.2,1.6-0.4s0.9-0.4,1.3-0.8c0.3-0.3,0.6-0.7,0.8-1.3s0.3-1.2,0.3-1.9v-0.1h-4.6
		c-0.8,0-1.2-0.4-1.2-1.2v-1c0-0.8,0.4-1.2,1.2-1.2h7.7c0.8,0,1.2,0.4,1.2,1.2v9.6c0,0.3-0.1,0.6-0.2,0.7c-0.2,0.2-0.4,0.2-0.7,0.2
		h-0.1c-0.3,0-0.6-0.1-0.7-0.2c-0.2-0.1-0.3-0.4-0.3-0.7L107.9,2049.3z"/>
	<path class="st6" d="M115.6,2053.1h-1.8c-0.8,0-1.2-0.4-1.2-1.2v-19.4c0-0.8,0.4-1.2,1.2-1.2h1.8c0.8,0,1.2,0.4,1.2,1.2v19.4
		C116.8,2052.7,116.4,2053.1,115.6,2053.1z"/>
	<path class="st6" d="M137.6,2054.4h-4.5c-0.8,0-1.2-0.4-1.2-1.2v-0.3c-0.9,0.2-2,0.3-3.1,0.3c-1.7,0-3.2-0.2-4.5-0.7
		c-1.3-0.5-2.4-1.1-3.2-2c-0.8-0.9-1.4-1.9-1.9-3.1c-0.4-1.2-0.6-2.6-0.6-4.1v-2.3c0-3.1,0.9-5.5,2.6-7.3s4.2-2.6,7.6-2.6
		c1.7,0,3.2,0.2,4.5,0.7c1.3,0.5,2.4,1.1,3.2,2c0.8,0.9,1.4,1.9,1.9,3.1c0.4,1.2,0.6,2.6,0.6,4.1v2.3c0,3.4-1.1,6-3.4,7.7h2
		c0.8,0,1.2,0.4,1.2,1.2v1C138.8,2054,138.4,2054.4,137.6,2054.4z M134.6,2043v-1.8c0-1.2-0.1-2.2-0.3-3c-0.2-0.8-0.6-1.4-1.1-1.9
		c-0.5-0.5-1.1-0.8-1.8-1s-1.6-0.3-2.6-0.3c-1,0-1.9,0.1-2.6,0.3c-0.7,0.2-1.3,0.5-1.8,1c-0.5,0.5-0.9,1.1-1.1,1.9
		c-0.2,0.8-0.3,1.8-0.3,3v1.8c0,1.2,0.1,2.2,0.3,3c0.2,0.8,0.6,1.4,1.1,1.9c0.5,0.5,1.1,0.8,1.8,1c0.7,0.2,1.6,0.3,2.6,0.3
		c1,0,1.9-0.1,2.6-0.3c0.7-0.2,1.3-0.5,1.8-1c0.5-0.5,0.9-1.1,1.1-1.9C134.5,2045.2,134.6,2044.2,134.6,2043z"/>
	<path class="st6" d="M158.9,2043c0,1.9-0.2,3.4-0.5,4.7c-0.3,1.3-0.9,2.3-1.6,3.1c-0.7,0.8-1.7,1.4-2.8,1.8
		c-1.2,0.4-2.6,0.6-4.2,0.6c-2.2,0-4-0.3-5.3-1s-2.3-1.7-2.9-3.2c-0.6-1.5-0.9-3.5-0.9-6v-10.6c0-0.8,0.4-1.2,1.2-1.2h1.8
		c0.8,0,1.2,0.4,1.2,1.2v10.5c0,2.2,0.4,3.9,1.1,4.8c0.8,1,2,1.4,3.7,1.4c1.7,0,2.9-0.5,3.7-1.4c0.8-0.9,1.2-2.6,1.2-4.8v-10.5
		c0-0.8,0.4-1.2,1.2-1.2h1.9c0.8,0,1.2,0.4,1.2,1.2V2043z"/>
	<path class="st6" d="M173.7,2053.1H162c-0.8,0-1.2-0.4-1.2-1.2v-19.4c0-0.8,0.4-1.2,1.2-1.2h11.7c0.8,0,1.2,0.4,1.2,1.2v1.6
		c0,0.8-0.4,1.2-1.2,1.2h-8.6v4.4h8.2c0.8,0,1.2,0.4,1.2,1.2v1.5c0,0.8-0.4,1.2-1.2,1.2h-8.2v5.4h8.6c0.8,0,1.2,0.4,1.2,1.2v1.6
		C174.9,2052.7,174.5,2053.1,173.7,2053.1z"/>
</g>
<rect x="212.2" y="1736.7" class="st3" width="187.7" height="27.5"/>
<g class="st4">
	<path class="st6" d="M229.5,1745.3c0,2.1-0.7,3.7-2,4.8c-1.3,1.1-3.4,1.6-6.3,1.6h-4.4v5.7c0,0.8-0.4,1.2-1.2,1.2h-1.8
		c-0.8,0-1.2-0.4-1.2-1.2V1738c0-0.8,0.4-1.2,1.2-1.2h7.5c2.9,0,5,0.6,6.3,1.7c1.3,1.1,2,2.8,2,5V1745.3z M221.2,1740.7h-4.4v7.2
		h4.4c1.4,0,2.4-0.2,3.1-0.7s0.9-1.3,0.9-2.6v-0.4c0-1.3-0.3-2.2-0.9-2.7C223.7,1741,222.6,1740.7,221.2,1740.7z"/>
	<path class="st6" d="M232,1757.7c-0.2,0.6-0.6,0.9-1.2,0.9h-1.8c-0.4,0-0.7-0.1-0.9-0.4c-0.2-0.2-0.2-0.6-0.1-1l6.4-19.7
		c0.2-0.6,0.6-0.9,1.2-0.9h3.8c0.6,0,1,0.3,1.2,0.9l6.4,19.7c0.1,0.4,0.1,0.7-0.1,1s-0.5,0.4-0.9,0.4H244c-0.6,0-1.1-0.3-1.2-0.9
		l-1.3-4.1h-8.3L232,1757.7z M240.4,1750l-3-9.9l-3,9.9H240.4z"/>
	<path class="st6" d="M253,1758.6h-1.9c-0.8,0-1.2-0.4-1.2-1.2v-7.3l-6.6-12c-0.2-0.4-0.2-0.7,0-1s0.5-0.4,0.8-0.4h2.2
		c0.6,0,1,0.2,1.2,0.7l4.6,8.5l4.6-8.5c0.2-0.5,0.6-0.7,1.2-0.7h2.2c0.4,0,0.7,0.1,0.8,0.4c0.2,0.3,0.2,0.6,0,1l-6.7,12v7.3
		C254.2,1758.2,253.8,1758.6,253,1758.6z"/>
	<path class="st6" d="M271.2,1745.7c2.2,0.1,4,0.3,5.2,0.8c1.3,0.4,2.2,1.1,2.8,2c0.6,0.9,0.9,2.1,0.9,3.5v0.2
		c0,2.2-0.8,3.9-2.4,4.9c-1.6,1.1-4,1.6-7.2,1.6c-3,0-5.3-0.5-6.8-1.5c-1.5-1-2.4-2.6-2.7-4.7c0-0.1,0-0.2,0-0.3c0-0.2,0-0.3,0-0.3
		c0-0.7,0.3-1.1,1.1-1.1h1.9c0.5,0,0.8,0.1,0.9,0.2c0.2,0.1,0.3,0.4,0.4,0.8c0,0.2,0.1,0.4,0.2,0.6c0.3,0.9,0.8,1.6,1.7,2
		c0.8,0.4,2,0.6,3.4,0.6c1.7,0,3.1-0.2,3.9-0.6s1.3-1.1,1.3-1.9v-0.1c0-0.7-0.2-1.2-0.5-1.5s-0.9-0.6-1.7-0.8
		c-0.8-0.2-2-0.3-3.5-0.4c-1.8-0.1-3.3-0.3-4.4-0.6c-1.2-0.3-2.1-0.7-2.8-1.2c-0.7-0.5-1.2-1.1-1.4-1.8c-0.3-0.7-0.4-1.5-0.4-2.6
		v-0.3c0-2.1,0.8-3.7,2.4-4.8c1.6-1.1,4-1.7,7.1-1.7c2.8,0,5,0.5,6.6,1.5c1.6,1,2.5,2.4,2.8,4.3c0,0.2,0.1,0.4,0.1,0.7
		c0.1,0.7-0.3,1.1-1,1.1h-1.9c-0.5,0-0.8-0.1-1-0.2s-0.3-0.4-0.4-0.8c-0.1-0.3-0.1-0.5-0.2-0.7c-0.6-1.4-2.3-2.1-5.1-2.1
		c-3.5,0-5.2,0.8-5.2,2.5v0.2c0,0.4,0.1,0.8,0.2,1.1c0.1,0.3,0.4,0.5,0.9,0.8c0.4,0.2,1,0.4,1.8,0.5
		C268.9,1745.6,270,1745.7,271.2,1745.7z"/>
	<path class="st6" d="M287.1,1746.9v0.6c0,0.8-0.4,1.2-1.2,1.2h-3.4c-0.8,0-1.2-0.4-1.2-1.2v-0.6c0-0.8,0.4-1.2,1.2-1.2h3.4
		C286.7,1745.7,287.1,1746.1,287.1,1746.9z"/>
	<path class="st6" d="M297.5,1758.6H290c-0.8,0-1.2-0.4-1.2-1.2V1738c0-0.8,0.4-1.2,1.2-1.2h7.6c4.5,0,6.7,1.6,6.7,4.8v1.3
		c0,1.2-0.4,2.1-1.2,2.8s-2,1.1-3.6,1.1c2.1,0,3.6,0.5,4.6,1.3s1.5,2,1.5,3.5v1.4C305.7,1756.7,303,1758.6,297.5,1758.6z
		 M297.2,1740.3h-4.2v5.1h4.2c1,0,1.7-0.2,2.1-0.5c0.4-0.3,0.6-1,0.6-1.9v-0.5c0-0.8-0.2-1.4-0.6-1.7
		C298.9,1740.5,298.2,1740.3,297.2,1740.3z M297.4,1748.8h-4.4v6.2h4.4c1.4,0,2.4-0.2,3.1-0.7s0.9-1.2,0.9-2.4v-0.5
		c0-1-0.3-1.7-0.9-2.1S298.8,1748.8,297.4,1748.8z"/>
	<path class="st6" d="M310.3,1757.7c-0.2,0.6-0.6,0.9-1.2,0.9h-1.8c-0.4,0-0.7-0.1-0.9-0.4c-0.2-0.2-0.2-0.6-0.1-1l6.4-19.7
		c0.2-0.6,0.6-0.9,1.2-0.9h3.8c0.6,0,1,0.3,1.2,0.9l6.4,19.7c0.1,0.4,0.1,0.7-0.1,1s-0.5,0.4-0.9,0.4h-1.8c-0.6,0-1.1-0.3-1.2-0.9
		l-1.3-4.1h-8.3L310.3,1757.7z M318.8,1750l-3-9.9l-3,9.9H318.8z"/>
	<path class="st6" d="M335.8,1745.7c2.2,0.1,4,0.3,5.2,0.8s2.2,1.1,2.8,2c0.6,0.9,0.9,2.1,0.9,3.5v0.2c0,2.2-0.8,3.9-2.4,4.9
		c-1.6,1.1-4,1.6-7.2,1.6c-3,0-5.3-0.5-6.8-1.5c-1.5-1-2.4-2.6-2.7-4.7c0-0.1,0-0.2,0-0.3c0-0.2,0-0.3,0-0.3c0-0.7,0.3-1.1,1.1-1.1
		h1.9c0.5,0,0.8,0.1,0.9,0.2c0.2,0.1,0.3,0.4,0.4,0.8c0,0.2,0.1,0.4,0.2,0.6c0.3,0.9,0.8,1.6,1.7,2c0.8,0.4,2,0.6,3.4,0.6
		c1.7,0,3.1-0.2,3.9-0.6c0.9-0.4,1.3-1.1,1.3-1.9v-0.1c0-0.7-0.2-1.2-0.5-1.5s-0.9-0.6-1.7-0.8c-0.8-0.2-2-0.3-3.5-0.4
		c-1.8-0.1-3.3-0.3-4.4-0.6c-1.2-0.3-2.1-0.7-2.8-1.2c-0.7-0.5-1.2-1.1-1.4-1.8c-0.3-0.7-0.4-1.5-0.4-2.6v-0.3
		c0-2.1,0.8-3.7,2.4-4.8c1.6-1.1,4-1.7,7.1-1.7c2.8,0,5,0.5,6.6,1.5c1.6,1,2.5,2.4,2.8,4.3c0,0.2,0.1,0.4,0.1,0.7
		c0.1,0.7-0.3,1.1-1,1.1h-1.9c-0.5,0-0.8-0.1-1-0.2c-0.2-0.1-0.3-0.4-0.4-0.8c-0.1-0.3-0.1-0.5-0.2-0.7c-0.6-1.4-2.3-2.1-5.1-2.1
		c-3.5,0-5.2,0.8-5.2,2.5v0.2c0,0.4,0.1,0.8,0.2,1.1c0.1,0.3,0.4,0.5,0.9,0.8c0.4,0.2,1,0.4,1.8,0.5
		C333.5,1745.6,334.6,1745.7,335.8,1745.7z"/>
</g>
</svg>
