<?xml version="1.0" encoding="utf-8"?>
<!-- Generator: Adobe Illustrator 19.1.0, SVG Export Plug-In . SVG Version: 6.00 Build 0)  -->
<svg version="1.1" id="Calque_1" xmlns="http://www.w3.org/2000/svg" xmlns:xlink="http://www.w3.org/1999/xlink" x="0px" y="0px"
	 viewBox="-1376.9 158.5 976.8 599" style="enable-background:new -1376.9 158.5 976.8 599;" xml:space="preserve">
<style type="text/css">
	.st0{fill:#80BA40;}
	.st1{fill:#6EA2C2;}
	.st2{fill:#C0C0C0;}
	.st3{fill:none;}
	.st4{enable-background:new    ;}
	.st5{fill:none;stroke:#80BA40;stroke-width:3;stroke-miterlimit:10;}
</style>
<g>
	<circle class="st0" cx="-1293.8" cy="462.6" r="8"/>
	<polygon class="st1" points="-1371.8,205.2 -1352.7,220.6 -1337.1,237.9 -1329.4,257.4 -1323.3,287.2 -1329.1,330 -1332.2,373.8 
		-1333.7,404.5 -1323.2,438.2 -1313.3,465.5 -1293.8,499.4 -1262.4,547.5 -1229.1,566.2 -1207.4,584 -1199.1,620.7 -1186.6,639.1 
		-1182,660.5 -1182,675 -1168,684.2 -1151.2,697.7 -1136.7,721.1 -1110.9,733.9 -1129.1,704.3 -1173.3,626.2 -1191.1,583.1 
		-1178.6,583.1 -1155.3,595.1 -1151.4,618.9 -1129.5,661.8 -1103.7,692.2 -1076.9,724.8 -1058.3,750.1 -1139.2,750.1 -1285.4,750.1 
		-1341.3,750.1 -1365.3,750.1 -1371.7,746.4 -1376,718.8 -1376,576.8 -1376,470.9 -1371.5,440.8 -1370.7,332.2 -1372,308.8 
		-1372,268.9 	"/>
	<polygon class="st1" points="-910.4,750.1 -914.1,719.6 -904.5,691.6 -875.5,657.2 -848.1,631.1 -834.1,631.1 -801.9,650.3 
		-776.6,647.5 -766.8,637.2 -773.7,627.4 -754.2,622.1 -741.7,622.1 -721,635.5 -693.6,630.7 -682.1,644 -668.5,682.9 -655.1,706.9 
		-631.9,704.7 -627.5,676.7 -643.5,651.9 -649.8,620.7 -639.4,594.5 -562.7,524.7 -562.2,485.3 -545.9,459.2 -525.5,417.5 
		-482.5,400 -465.7,366.8 -444.9,345.4 -428.6,340.1 -417.9,326 -407.6,319.7 -410,400 -410,518.1 -409.9,598.7 -408,674 
		-408,715.4 -415.6,749.9 -471.3,750.1 	"/>
	<path d="M-401.5,192.6c-0.3-4.9,2.4-13.7,1.1-18.4c-1.8-6.8-14.4-3.3-21.5-5.1c-5-1.3-10.2-2.8-15.3-2.9
		c-24.7-0.8-49.4-1.3-74.2-1.6c-18.4-0.3-36.8,0.1-55.2-0.4c-41.8-1.1-83.6-0.7-125.3,2.2c-28,1.9-56,3.5-84,3.9
		c-22,0.3-44,2.1-65.9,2c-34.4-0.2-68.7-1.6-103.1-1.1c-18.4,0.3-36.8,0-55.2-0.3c-46.7-0.8-123-2.4-124.4-2.6
		c-18-2.3-35.9-2.2-54-3.8c-24.6-2.2-49.3-3.5-74-4.8c-14-0.7-28.1,0.1-42-0.8c-20.1-1.3-42.3,0.9-61.6,5.3
		c-14,3.2-19,13.1-18.6,28.9c0.1,5-0.5,9.9-0.5,14.9c-0.1,22.3-0.3,44.7-0.1,67c0.1,18.2,1.1,36.4,1,54.6
		c-0.1,16.6-1.8,33.1-1.4,49.7c0.6,27.5-2.4,336.4-0.6,355.4c0.9,9.4,0.4,20.8,9.6,22c6.5,0.9,19.9-2.1,26.4-2.2
		c15.4-0.1,30.8-1.9,46.2-1.5c22.5,0.6,45,2.1,67.5,2.8c11.5,0.4,23.1-0.1,34.6-0.1c24.7,0,49.5,0.1,74.2-0.1
		c20.3-0.2,40.7-1.3,61-1c20.3,0.3,40.6,2.2,60.9,2.6c27.5,0.5,55,0.2,82.4,0.2c25.3,0,50.6,0.3,75.8-0.1
		c25.3-0.3,201.2-0.3,242.2-1.8c18,0,37.8-0.1,57.6,0c25.3,0.2,50.6,0.5,75.9,0.8c12.9,0.1,25.9,1.3,38.7,0.3
		c12.6-1,17.8-4.5,17.4-16.8c-0.6-21,4.3-41.9,3.7-62.9c-0.6-24.8-2-49.7-2.3-74.5c-0.4-33.1-0.6-66.3,0.1-99.4
		c1.2-52.5-2.7-104.9,0.3-157.3c1.2-22-1.2-45.1,0-67.1C-402.5,251.1-400,220-401.5,192.6z M-1369,215.3c8,3.5,18.9,9.1,23.6,16.8
		c-3.5-0.6-12.7-2.7-15.2-3.4c-2.7-0.7-5.4-1.9-8.4-3.1C-1369,222.6-1369,219.3-1369,215.3z M-1369.1,235.8c1.7-1.4,4.7,0,7.1,0.6
		c3.3,0.7,6.6,1.8,9.8,2.7c3,0.8,6.1,1.6,9.1,2.4c4.4,1.1,5.3,4.9,4.2,11.5c-3.1,0-6.6,1.4-9-0.3c-6.7-4.6-13.6-4.2-20.7-4.1
		c-0.5,0-1-0.7-1.9-1.3C-1371.2,243.3-1372.2,238.4-1369.1,235.8z M-1287.4,519.3c-0.9,0.3-1.8,1.1-2.5,0.9c-8-2-15.6-0.2-23.5,1.5
		c-4.7,1.1-10.1-0.4-14.9-2.3c-6.1-2.5-12-3.1-18.3-2.2c-6.1,0.8-12.4,0.5-18.5-0.8c-6.5-1.3-6.7-2.8-4.8-11.7
		c5-1.2,9.9-2.6,14.9-3.3c2.4-0.3,5.1,0.3,7.3,1.4c7.5,3.8,15.2,5.2,23.3,3.9c10.9-1.7,21.4,1.3,31.8,4.6
		C-1289.2,512.2-1286.7,514-1287.4,519.3z M-1285.9,528.7c6.6,0.7,10.4,4.9,12.3,14.5c-10.7,4.4-21,5.4-31.2,0.8
		c-6.7-3-12.7-3.6-19.7,0.1c-7.6,4-15.8,2.3-23.1-2.8c-6.8-4.7-13.6-9-22.3-7.7c-0.2-3.3-0.3-6-0.5-8.7c1.4-0.5,2.2-1.1,2.9-1
		c3.4,0.5,6.8,1.9,10.1,1.6c12.8-1,25.4-1.5,37.8,4.1c2.8,1.3,6.5,1.2,9.2-0.2C-1302.1,524.9-1294.1,527.8-1285.9,528.7z
		 M-1300.4,500.2c-11.6-0.4-23.2-0.3-34.7-1.4c-5.8-0.6-11.4-4.1-17.2-4.7c-5.4-0.5-11,1.2-17,1.9c-0.9-11.1-0.9-11,5.6-13
		c6.7-2,13.1-2.6,19.8,1c6.2,3.4,13.1,4.1,20,2.1c6.4-1.8,12.4-0.3,18.3,2.3c4.2,1.8,7,5.2,7.9,10.7
		C-1298.9,499.7-1299.6,500.3-1300.4,500.2z M-1328.3,477.3c-5,0.1-10.3-0.1-14.9-1.8c-6.3-2.4-12.1-3.7-18.8-1.9
		c-2.1,0.6-4.1,0.4-7.1,0.5c0-2.9,0-5.2,0-8.3c11-0.6,21-3.8,31.7,0.3c5.1,2,10.1,2.8,15.7,1.4c4.7-1.2,5.8,0.3,8.4,7.8
		C-1318.3,476-1323.3,477.2-1328.3,477.3z M-1336.6,456.2c-6.8-2.6-13.6-3.3-20.7-1.8c-2.7,0.6-5.7,0.5-8.4,0.1
		c-1.3-0.2-2.4-1.8-3.5-2.7c1.1-1,2.2-2.8,3.4-2.8c5.9-0.4,11.9-0.7,17.7-0.2c7,0.6,13.9,2,20.8,3.3c1.3,0.2,2.3,1.8,4,3.1
		C-1328.5,459.1-1332.8,457.7-1336.6,456.2z M-1338.1,443.1c-7.5-0.9-15-2.1-22.6-2.6c-5.2-0.4-5.3,0-7.9-5.1
		c12.4-8.3,32.9-5.2,38.4,8.7C-1332.9,443.7-1335.5,443.4-1338.1,443.1z M-1334.6,346.2c-0.2,1-1.6,2-2.7,2.6
		c-0.6,0.4-1.7,0.2-2.5,0.2c-9-0.6-18-1.3-27.7-1.9c-1.3-7.1-1.2-6.9,4.9-8.6c9.5-2.6,17.8,1.3,26.2,4.5
		C-1335.4,343.3-1334.5,345.2-1334.6,346.2z M-1332.1,427.2c-8-1.3-14-2.8-20.1-3.2c-4.2-0.3-8.4,1.2-12.6,1.3
		c-1.1,0-2.1-2.5-3.2-3.8c0.7-1.9,1.3-5,2.2-5.5c10.6-5.3,21.1-5.4,31.1,3.9C-1334,420.5-1333.7,422.8-1332.1,427.2z M-1336.9,360.9
		c-0.2,2.5-0.5,5.1-0.8,8.6c-5.5-0.7-10.4-1.5-15.3-1.8c-4.7-0.3-9.5-0.1-14.7-0.1c-0.2-2.8-0.3-4.9-0.5-6.4
		C-1365,356.7-1347.6,356.7-1336.9,360.9z M-1339.4,384.1c-7.8,0.4-15,0.8-22.2,1.3c-0.8,0-1.9,0.4-2.5,0c-1.4-0.9-3.1-2-3.8-3.4
		c-0.3-0.6,1.6-3,2.7-3.3c7.5-1.5,15-2.4,22.4,0.5C-1340.6,380.1-1338.4,381-1339.4,384.1z M-1347.1,394.6c7.6,0.5,11.8,1.5,10,11.5
		c-9.9,0-19.8,0-30.4,0c-0.3-3-0.5-5.8-0.9-9.6C-1360.5,395.7-1353.7,394.1-1347.1,394.6z M-1337.8,332.1c-1.1-0.1-2.4-0.2-3.3-0.7
		c-7.6-4.1-15.7-4.5-24-2.9c-1,0.2-2.2-0.3-3.2-0.4c-1.8-6.8-1.6-8,3.9-8.3c7-0.4,14.1,0.2,21.1,0.8c4.2,0.4,8.2,1.7,12.9,2.8
		C-1330.7,331.4-1331.9,332.6-1337.8,332.1z M-1349.3,309.7c-6.4-0.7-13-0.2-19.2-0.2c-3.2-8.2-2.4-9.2,5-10.8
		c11.7-2.6,22.4,1.1,34.4,4.4c-0.2,2.9-0.4,5.4-0.6,7.7C-1336.8,313.7-1343,310.4-1349.3,309.7z M-1329.8,293.1
		c-7.2,3.9-13.3-2.8-19.9-3.3c-6.4-0.4-12.8,0.7-19.9,1.1c-0.2-4.4-0.4-7.7-0.5-10.8c1.2-1.1,1.9-2,2.6-2.3
		c11.9-5.4,23.4-1.9,34.7,3.7C-1328.2,283.9-1328.7,288.1-1329.8,293.1z M-1350,267.7c-6.3-0.6-12.8,0.6-19,1
		c-2.7-9.4-1.9-11,6.6-11.4c3.3-0.2,6.7,0.6,10,1.2c4.2,0.7,8.2,2,12.4,2.4c7.9,0.8,8.1,0.7,9.5,11.9
		C-1337.7,270.8-1343.8,268.3-1350,267.7z M-1371.1,553c0.2-6.7,1.3-8.2,7.9-8c3.5,0.1,7,1.7,10.4,2.8c6.4,2,12.7,4.5,19.3,6
		c2.9,0.7,6.6,0.5,9.2-0.7c7.3-3.6,14-1.7,21.3,0c7,1.7,24.3-0.2,31.5-1.2c12.3-1.8,13.1,4.7,23.7,9.4c3.3,1.5,9,3.8,12.1,5.8
		c-0.2,0.8,6.4,1.7,6.2,2.5c-5.2-0.2-20.1-0.5-25.3-0.7c-3.4-0.2-6.8-1-10.1-0.4c-10,1.8-19.8,1.2-29.5-1.3
		c-5.4-1.4-10.6-1.5-15.8,0.6c-8.9,3.4-18,2.9-26.5-0.8c-6.6-2.8-12.9-3.2-19.8-1.8C-1370.1,567.9-1371.5,566.5-1371.1,553z
		 M-1370,577.2c8-1.1,14.4-2.4,21.4-3c2.7-0.2,5.7,0.6,8.2,1.6c10.6,4.4,21.3,5.3,32.5,1.8c3.8-1.2,8.5-1,12.5-0.3
		c10.4,2,20.7,3.6,31.2,1.1c1.1-0.3,2.4-0.6,3.4-0.3c10.9,3,22,0.9,33,1.1c7.3,0.2,7.6,0.7,9.9,8.8c-7.7,0.4-15.3,0.9-22.8,1.3
		c-5.9,0.3-11.8,0.5-17.7,0.4c-8.5-0.1-17-0.5-25.4-0.7c-5.3-0.1-10.8-0.8-16,0c-12.2,2.1-24.2,2.7-36.2-1.2
		c-7.3-2.4-14.7-1.2-22.1,0c-3.5,0.6-6.9,0.9-11.9,1.4C-1370,584.3-1370,581-1370,577.2z M-1369.2,599.9c11.8-1.9,23.5-5.4,35.8-1.4
		c10.5,3.4,21.3,2.8,32,0.7c5.9-1.2,11.7-1.5,17.7,0c4.1,1,8.5,1.2,12.7,1.2c14.7-0.3,29.4-0.9,44.1-1.4c5.4-0.1,10.7,0,17.4,0
		c0.7,3.6,1.4,6.8,2.1,10.5c-13,2-25.2,4.6-37.7,2.2c-0.8-0.2-1.7-0.4-2.5-0.3c-15.9,0.8-31.7,0.5-47.4-2.4
		c-4.2-0.8-8.9,1.2-13.5,1.6c-10.8,1.2-21.4,2-31.4-4.1c-2.9-1.8-7.7-0.9-11.5-0.6c-3.6,0.3-7.2,1.9-10.8,2.3
		C-1368.6,608.9-1369.6,607.6-1369.2,599.9z M-1369.2,619.5c7.4-1.5,14-3,20.7-4c2.4-0.4,5.5-0.4,7.4,0.8
		c11.3,7.2,23.5,5.7,35.5,3.9c6.6-1,12.8-0.9,19.4-0.1c9.2,1.1,18.6,0.9,27.9,1.2c1.7,0.1,3.5-0.5,5.1-0.2c14.4,2.7,28.8,1,43.2,0
		c8.2-0.6,8.4,0,10.9,9.7c-8.1,2.8-16.1,4.5-24.8,2.4c-4.3-1-9-0.6-13.5-0.8c-9.9-0.4-19.8-0.9-29.7-1.2c-5.9-0.1-12.1-0.9-17.7,0.4
		c-13.1,3.2-25.8,3.3-38.5-1.1c-8.1-2.8-16.1-2.4-24.2,0.2c-3.8,1.2-7.7,2.2-11.6,2.9c-7.3,1.3-9.3-0.2-10.1-7.4
		C-1369.3,624.2-1369.2,622.2-1369.2,619.5z M-1167.3,621.8c8.4-2.8,11-0.7,12,9.5C-1163.9,633.2-1165.3,632.1-1167.3,621.8z
		 M-1146.4,650.1c-4.2-1.9-7.1-3.2-9.9-4.5c0.2-0.6,0.4-1.3,0.6-1.9C-1150,642.5-1150,642.5-1146.4,650.1z M-1175.9,603.2
		c9.2-0.9,10.8-0.3,13.2,5C-1172.2,611.9-1174.3,611.2-1175.9,603.2z M-1149.1,679c8.8,13.6,16.7,27.6,25,41.5
		c0.7,1.2,1.1,2.5,1.7,3.8c-9.2-2.8-14.1-9.5-17.6-17.3c-4.1-9.2-8.4-18-17.3-23.6c-3.8-2.4-7.7-4.8-11.8-6.6
		c-7.4-3.3-10.5-7.2-7.8-14.4c3.5-9.4-1.4-17.1-2.9-25.5c-0.1-0.5-0.4-1.1-0.8-1.5c-12.4-10.7-15-26-19.5-41.4
		c2.8-1.1,5.3-2,7.7-2.9C-1182,622.9-1166.8,651.6-1149.1,679z M-1146.2,660.7c8.2-1.4,10.8,3.8,13.8,9
		C-1141.1,672.1-1142.9,670.9-1146.2,660.7z M-1332.8,664c3-0.6,6.2-0.2,9.1,0.8c15.4,5.1,30.8,3.9,46.3,1.5
		c5.8-0.9,11.8-0.6,17.7-0.3c13.6,0.7,27.2,2.9,40.2-4.2c1.9-1.1,4.5-1.2,6.6-0.9c7.6,0.9,15.1,2.2,22.8,3.4
		c1.3,4.7,2.6,9.3,4.1,14.6c-10.6,3.9-21.3,4.3-32.2,2.7c-8.2-1.3-16.3-1.1-24.5,1.2c-10,2.8-20.2,2.9-30.3-0.1
		c-8.9-2.6-17.9-3.2-26.9-0.4c-4.6,1.5-9.5,2.1-14.2,3.2c-7.2,1.7-14.2,1.2-20.7-3c-5.7-3.8-10.9-3.2-16.8-0.7
		c-4.7,2-9.5,3.3-15.5,5.4c0-6.5,0-10.6,0-15.4C-1356,668.9-1344.2,666.2-1332.8,664z M-1367,662.9c0-7,0-12.9,0-18.2
		c9-2.4,16.5-5.3,24.9-6.8c5.2-1,10.8-1.3,15.7,0.5c14,5,27.6,6.8,41.9,1.8c4.7-1.6,10-0.6,15.1-0.4c9.6,0.3,19.2,0.9,28.8,1.5
		c5.6,0.3,11.3,1,16.9,1.3c5.1,0.2,10.1,0.3,15.2,0.1c4-0.1,7.9-1.2,11.8-1c6.5,0.3,7.1,1.2,9.5,11.7c-6.6,3.4-12.8,2-18.9,0.6
		c-5.2-1.2-10.2-1.2-15,1.3c-9.2,4.8-18.8,5.2-28.5,4c-12.2-1.6-24.4-1-36.5,0.9c-11.1,1.8-22.2,1.6-33-2c-7.9-2.6-15.7-2.4-23.6,0
		c-4.7,1.4-9.1,2.8-13.9,3.7C-1359.9,662.6-1363,662.6-1367,662.9z M-1360.5,692.3c2.5-0.7,5-1.2,7.3-2.2c6.6-2.9,12.6-2.6,19.6,0.3
		c5.5,2.3,12.1,1.9,18.2,2.1c3.3,0.1,6.8-0.9,10-1.8c10.9-2.9,21.8-3.2,32.8-0.5c9.5,2.3,19.3,2.1,28.7-0.1c9.3-2.2,18.6-2,27.9-1.1
		c1.1,0.1,2.3,0.3,3.4,0.3c14.9,0,29.8-0.1,44.7,0c2.1,0,4.6,0.5,6.2,1.7c4.4,3.4,7.3,7.9,7.7,15.1c-4.8,0-9.2-0.1-13.6,0
		c-5.1,0.1-10.1,0.9-15.2,0.7c-8.4-0.5-17-0.8-25.2-2.7c-9.1-2.1-17.7-2.6-26.9-0.4c-6,1.4-12.6,2.3-18.5,1.2
		c-21.2-3.8-42.4-1.2-63.6-0.5c-6.7,0.2-13.4-1.4-20.2-1.8c-5-0.2-10.1,0.1-15.1,0.6c-4.9,0.5-9.8,1.6-14.6,2.4
		C-1369.2,695.3-1368.9,694.7-1360.5,692.3z M-1368.9,719.7c0.2-3.9,1.6-6.3,5-6.7c10.5-1.5,20.5-4.9,31.8-1.9
		c10.7,2.9,22.6,0,33.9-0.2c8.8-0.2,17.6-1,26.3-0.1c15,1.5,29.9,3,44.9-1.2c3.9-1.1,8.5-0.3,12.5,1c11.9,3.8,23.8,4.6,36.2,3.3
		c9.8-1,19.8,0.6,29.7,1.5c3.8,0.3,5.8,3.2,12,13.8c-1.3,0.4-1.9,0.8-2.4,0.7c-12.2-3.9-25.1-0.7-37.2-3.3
		c-13.9-3-27.4-2.4-41.3-1.3c-10.1,0.8-20.4-0.9-30.6-2.2c-7.2-0.9-14.1-0.2-21.1,1.9c-6.3,1.9-12.7,3.8-19.2,4.6
		c-6.4,0.8-13.1,1.1-19.4-0.2c-11.9-2.6-23.7-2.4-35.6-0.4c-6.4,1-13,1.2-19.5,0.5C-1368.2,728.6-1369.1,726.1-1368.9,719.7z
		 M-1127.8,744c-30.1,0.9-60.2,2.4-90.3,2.7c-27.8,0.2-55.7-1.1-83.5-1.1c-11.9,0-23.8,1.7-35.7,2.6c-8.5,0.7-17,1.7-25.5,1.9
		c-5.3,0.1-5.3-0.6-5-10.8c0.5-0.5,1-1.4,1.4-1.3c10.5,3.5,20.9-0.6,31.3-1.7c7.3-0.8,14.9-1.5,22,1c14.1,5,27.7,2.3,41.2-3.7
		c8.4-3.7,16.5-4.7,25.2-3.1c15.8,2.9,31.7,5.2,47.5-0.8c2.1-0.8,4.6-0.5,6.7,0.7c9.3,5.3,19,4.3,28.7,4.7c2.3,0.1,4.6-0.7,6.8-0.2
		c12,2.7,24,5.6,35.9,8.5c0,0.2,0,0.5,0,0.7C-1123.4,744-1125.6,743.9-1127.8,744z M-1133.3,682.7c9.3-3,16.7,0.6,24.5,7.2
		c-4.6,0.7-8.4,1.3-12.2,1.9C-1129.3,692.9-1130.6,691.9-1133.3,682.7z M-1120.6,702.9c2.8-2.5,6-2.4,9.4-1.3
		c9,2.8,16,7.7,18.7,17.3C-1110.2,723.8-1114.7,720.9-1120.6,702.9z M-1078.4,737.4c-3.8,0-7.6,0-11.4,0c-2.5,0-5-0.1-7.5,0.1
		c-3.5,0.2-3.5,0.3-6.4-5.1c9.3-5.1,17.1,0.3,25.3,2.6C-1078.4,735.8-1078.4,736.6-1078.4,737.4z M-922.6,745.2
		c-38.1-0.1-76.1-0.3-114.2-0.4c-3.7,0-7.4-0.3-11.1-0.2c-3.9,0.1-7.2-1.2-9.9-4.1c-8.7-9.7-17.6-19.3-26.2-29.1
		c-1.6-1.8-2.6-4.5-3.1-6.9c-1.6-8.7-6.2-15.6-13.5-19.8c-18.2-10.4-28.8-27.1-37.4-45.2c-5-10.5-8.4-21.6-12.4-32.6
		c-0.6-1.7-0.3-3.7-0.4-6.6c4.9,1.3,9.3,1.6,12.9,3.6c11.1,6,23.4,6.7,35.4,8.3c3.8,0.5,7.9-0.4,11.8-0.9c2-0.2,4-1.3,5.8-1.1
		c9.2,1,17.2-1.5,24.9-6.4c5.1-3.3,8.6-1.8,12.3,3.5c4.2,6.1,8.6,12.1,12.2,18.4c3.7,6.5,8.1,12.2,14.1,16.8
		c4.5,3.5,8.4,7.7,13.1,10.8c3.4,2.3,7.6,4,11.6,4.8c7.7,1.4,11.9-1.8,14.6-9.2c1-2.8,2.6-5.4,4-8.2c7.5,2.4,10.5,7.9,13.4,13.4
		c5.3,9.7,10.3,19.6,15.5,29.4c4.5,8.6,11,15.2,20.4,18.4c7.6,2.6,11.3,7.5,11.4,15.8c0,8.7,1.2,17.5,1.9,26.8
		C-918.2,744.8-920.4,745.2-922.6,745.2z M-912.4,694.2l-1.9,0.3c-2.2,0.4-4.3,0.6-6.2,0.6c-7.5,0-13.4-2.8-17.6-8.3
		c-4.5-5.9-8.7-13-13.1-21.6c-0.5-1.1-1.1-2.2-1.6-3.3c-4.5-9.1-8.7-17.6-16.4-24.1c-5.5-4.6-9.7-6.7-13.2-6.7
		c-3.9,0-7.9,2.8-12.9,9.1c-0.6,0.7-1.1,1.4-1.8,2.4l-3.1,4.1l-2.3-1.7c-2.5-1.9-5.3-3.4-8.1-5c-6.6-3.7-13.3-7.4-17.6-15.6
		c-5-9.4-11.5-18.2-17.9-26.7c-5-6.7-9-9.4-13.8-9.4c-3.7,0-8.1,1.6-13.6,5c-8.7,5.4-17.4,8-26.6,8c-0.3,0-0.6,0-0.8,0
		c-12.1-0.2-24-0.8-35.6-6.1c-1.6-0.7-3.6-1.1-5.6-1.4c-2.2-0.4-4.5-0.7-6.7-1.7c-7-2.9-15.2-6.5-22.7-10.9
		c-6.4-3.8-12-5.6-17.5-5.6c-3.2,0-6.3,0.6-9.5,1.8c-2.3,0.9-4.4,1.3-6.5,1.3c-4.5,0-8.4-2-11.9-6.2c-3.1-3.7-7.6-6.6-12-9.4
		c-0.7-0.5-1.5-1-2.2-1.4c-3.8-2.5-7.9-5-11.7-7.3c-6-3.6-12.2-7.4-18-11.6c-4.4-3.2-8.7-8-12-13.6c-8.7-14.8-43.2-74.2-44.1-75.9
		c-0.3-0.7-0.6-1.3-1-2c-1.9-3.8-3.9-7.7-5-11.9c-4.4-16.1-8.3-32-9.1-48.6c-0.1-2.9,0.4-5.7,1-8.4c0.2-1,0.4-2,0.6-3
		c0.2-1.2,3-24.7,4.1-35.2c0.9-8.4,1.6-17.1,2.3-25.4l0.4-4.4c0.1-0.8,0-1.6,0-2.5c0-1.5-0.1-3.1,0.3-4.7c1.4-6.5,0.8-12.9,0.2-19.7
		c-0.1-1-0.2-2-0.3-3.1c-1-12-3.5-22.9-7.5-33.4c-1.2-3-2-5.7-0.6-7.9c1.5-2.4,4.7-2.6,8-2.8c8.4-0.5,13.7-3.3,17.2-9.1
		c4.1-6.8,9.6-10.2,16.6-10.2c0.8,0,1.5,0,2.3,0.1c5.5,0.6,11.2,0.9,16.6,1.3c3,0.2,6,0.4,9,0.6c7.7,0.6,15.6,1.4,23.1,2.2
		c14,1.5,28.5,3,42.8,3c2.5,0,4.9,0,7.3-0.1c1.6-0.1,3.3-0.1,4.9-0.1c8.4,0,16.8,0.7,25,1.5c6,0.5,12.2,1.1,18.2,1.3
		c15,0.6,30.3,1,45.1,1.4c7.8,0.2,15.7,0.4,23.5,0.6c3.5,0.1,7.1,0.3,10.6,0.5c5.3,0.3,10.8,0.5,16.2,0.5c1,0,2,0,3.1,0
		c15.8-0.3,31.9-1,47.5-1.6c5.3-0.2,10.6-0.4,15.9-0.6c7.7-0.3,15.5-0.6,23.1-1c16.3-0.7,33.2-1.5,49.9-1.7c0.9,0,1.7,0,2.6,0
		c19.6,0,39.5,2.5,61,7.6c5.2,1.2,10.6,2.3,15.8,3.3c5.3,1,10.7,2.1,16.1,3.4c0.8,0.2,1.9,0.4,3.3,0.6c10,1.9,18.3,3.8,19.4,9.3
		c0.5,2.5-1,5.9-2.8,10.1c-2.8,6.5-5,12.5-2.1,13.8c2.1,0.9,6.3,1.8,11.2,1.8c5.8,0,11-1.3,14.5-3.6c2.3-1.5,5-2,7.4-2.5h0.1
		c0.7-0.1,1.4-0.2,2.1-0.2c3.4,0,6.1,1.9,7.4,5.3c0.4,1.2,1.1,2.4,1.7,3.5c2.5,4.5,5.8,6.6,10.4,6.6c0.5,0,1,0,1.6-0.1
		c6.4-0.6,12.2-1.1,18.1-1.5c1.4-0.1,2.9-0.1,4.7-0.1c1.2,0,2.5,0,3.7,0c1.3,0,26.8-4.2,27.3,4c0.2,3.5-44.1,7.4-44.1,7.4
		c-6.8,1.8-12.1,5.6-16,11.6c-0.8,1.2-1.6,2.4-2.4,3.6c-2.1,3.3-4.3,6.7-6.6,10c-9.3,13.5-6.5,33-2.3,42.9l0.1,0.2l0.1,0.2
		c1,4.3,8.5,8,15.9,8c2.6,0,8.8-0.5,11-5.4c0.3-3.8,0.4-7.8,0.5-12.1c0.1-5,0.3-10.3,0.8-15.3c1.3-12.6,16-25.4,29-25.4h0.4
		c4.3,0.1,7.5,1.4,9.3,4c1.8,2.5,2,5.9,0.7,9.9c-0.5,1.6-1.2,3-1.9,4.4c-0.5,1-0.9,1.9-1.3,2.9c-1.6,4.2,0,5.2,4.8,7.6
		c3.1,1.5,6.7,3.3,7.9,7c1.4,4.2,0.3,7.5-0.8,10.9c-0.9,2.9-1.9,6.1-1.9,11c0,5.2,1.4,9.9,3.8,13.2c2.9,3.8,7.2,5.7,13,5.7
		c0.5,0,1,0,1.4,0c8.5-0.5,37.1-3.7,49.8-25.8c4.6-8,13.3-13.2,22.2-13.2c2,0,4,0.3,6,0.8c1.6,0.4,3.2,0.8,4.8,1.2h0.1
		c2.1,0.5,3.9,0.8,5.5,0.8c5.5,0,9.5-3.1,13.8-10.7c9.7-17.1,22.8-25.3,41.3-25.8c3.2-0.1,6.6-0.4,9.8-0.8c3.8-0.4,7.7-0.8,11.6-0.8
		c10.5,0,18.5-5.8,26.4-12.2c1.1-0.9,1.9-2.5,2.7-4.1l0.3-0.6c1.5-2.9,3-5.8,4.4-8.6c1.7-3.4,3.5-7,5.4-10.4
		c3.2-5.9,8.4-14.5,16.7-11.3c8.4,3.3,9,38.5,10.8,50.1c1.9,11.8-2.7,16.3-11.7,20.3c-6.6,3-13.1,6.5-19.3,10.3
		c-5.2,3.3-7.5,8.6-9.5,16.2c-1.4,5.3-3.3,11-5.8,17.3c-4.1,10.3-12.3,16.5-25.1,19c-20.8,4.1-35.2,16-44,36.5l-0.8,1.9
		c-2.9,6.7-5.8,13.6-10.3,20.5l-3.5,5.4l-1.7-6.3c-0.2-0.6-0.3-1.1-0.5-1.7c-0.4-1.3-0.8-2.7-1.1-4.1c-0.3-1.2-0.5-2.5-0.6-3.7
		c-0.3-2.1-0.6-4.1-1.3-5.9c-0.5-1.5-1.9-4.1-4.9-4.1c-3.2,0-3.8,2.3-4.3,4.4c-1.2,5.3-2.3,10.9-1.6,15.9c0.9,7.3,1.5,14.7,3,21.8
		c0.7,3.3,1.4,6.7,2.1,10l0.4,2.1c0.9,4.3,1.7,8.8,2.4,13.3c0.9,6.8-1.2,12.4-6.7,17.7c-10.6,10.2-20.5,20.5-29.5,30.8
		c-8,9.1-17,16.3-27.3,22c-6.6,3.6-12,8.9-16.6,16.2c-9.5,15.2-6.9,31.3-3.1,45c1.5,5.5,5,10.9,8.3,16.1l0.8,1.2
		c5.3,8.4,10.8,19.7,5.8,33.4c-1.1,3-2.5,5.5-4.2,7.5c-2.4,3-5,4.4-7.7,4.4c-2,0-4.9-0.8-7.4-4.9c-3.6-5.8-6.1-11.5-7.6-17.1
		c-3.4-13.2-7.1-26.1-13.5-38.1c-4.1-7.6-10-12.6-18.1-15.5c-0.5-0.2-1.2-0.3-2-0.3c-1.6,0-3.3,0.4-4.6,1.1
		c-3.4,1.8-6.9,2.7-10.3,2.7c-5.1,0-10.1-1.9-15.9-6c-1.3-0.9-2.4-1.9-3.5-2.9c-1.1-0.9-2.1-1.8-3.1-2.6c-3.9-2.8-7.6-4.1-11.4-4.1
		c-0.4,0-0.8,0-1.2,0c-3.2,0.2-6.5,0.5-9.7,0.7c-7.7,0.6-8.7,3.1-16.5,3.8c-0.7,0.1-1.4,0.1-2.1,0.1c-4.1,0.2-6,0.5-6.7,2.5
		c-1.1,2.9,7.3,17,7.3,17l-5.3,0.8c-4.8,0.7-8.8,1.2-12.7,1.2c-3.7,0-7-0.4-10.2-1.3c-8.7-2.4-17-6.3-26.3-12.2
		c-2.9-1.9-5.8-2.7-9.2-2.7c-1.6,0-3.2,0.2-5,0.6c-12.2,2.7-26.8,16.2-38.1,26.5L-912.4,694.2z M-602.3,659.4
		c14.6,3.9,29.3,3.3,44,1.4c17.1-2.2,33.8-2.6,50.5,2.7c10.1,3.3,20.8,1.6,31.3,1.1c11.9-0.6,23.8-0.6,35.7-0.5
		c6.5,0.1,13,0.9,19.5,1.4c2,0.2,4.1,0.1,5.9,0.9c1.3,0.5,3.2,2.5,2.9,3.2c-0.5,1.5-2.1,7.6-3.4,7.8c-3,0.5-6.3,0.5-9.3-0.2
		c-14.4-3.2-28.7-2.5-43.2-0.6c-13.6,1.8-27.3,1.6-40.5-2.7c-11.9-3.9-24-4.4-36.2-3.1c-15.1,1.7-30,2-44.7-2.3
		c-8.2-2.4-16.3-0.3-24.4,1c-3.6,0.6-7.3,1.3-10.9,1.5c-2.8,0.2-5.9-4-6.7-9.3C-621.9,659.7-612.2,656.7-602.3,659.4z M-636.2,655.2
		c-1.9-0.2-3.7-5.5-5.5-6.3c0.1-1,0.3-2,0.4-3c10.7-2.2,21-6.3,32.2-5c19.3,2.3,38.6,1.1,57.7-1.4c10.6-1.4,21-0.6,31.3,1.7
		c14.9,3.3,29.8,4.4,44.8,1.5c10.8-2,21.5-0.9,32.2,0.8c8.1,1.3,16.3,2.4,24.4,3.4c6.3,0.8,6.6,5,5.4,12.8c-3.5,0-7.1,0.4-10.6-0.1
		c-17.2-2.3-34.4-3.5-51.8-1.3c-12.8,1.6-25.5,1.1-38-2.5c-12.3-3.6-24.7-3.3-37.2-1.9c-8.2,0.9-16.4,1.8-24.6,2
		c-6.2,0.2-12.7,0.3-18.6-1.2c-11.6-2.8-23-2.5-34.6-0.3C-631.1,655-633.7,655.4-636.2,655.2z M-432.1,638.3
		c-17.2-3.6-34-4-51.4-1.6c-10.4,1.4-20.8,0.8-31.2-1.7c-13.6-3.4-27.2-3.6-41.3-1.9c-16.8,2-33.8,3-50.9,1
		c-8-0.9-16.3,0.7-24.4,1.5c-4.1,0.4-8.2,1.5-13,2.4c-0.1-10.7,1.2-18.3,9.7-18.6c4.2-0.1,8.9-0.5,12.6,1
		c10.1,4.2,20.2,3.2,30.1,0.4c13.1-3.7,26.2-4.4,39.6-3.1c11.3,1.1,22.5,0.1,33.9-1.6c9.4-1.4,19.3-1.1,28.8,0.1
		c12,1.5,23.4,1.5,35.2-0.2c14.1-2.1,27.6,1,41.6,2.3c0,5,0,15.6,0,20.5C-420,640.7-425.9,639.6-432.1,638.3z M-425,609.6
		c-10.5,0-21,0-31.4-0.1c-10.2-0.1-20.4-0.2-30.6-0.7c-11.9-0.5-23.7-1.5-35.7,0.5c-9.1,1.5-18.7,1.6-27.9,1
		c-13.7-0.9-27.2-0.8-40.6,3c-10.3,2.9-20.5,3.6-31-0.1c-5.2-1.8-11.1-1.4-17.3-2c0.4-5.3,2.4-9.3,7.1-9.5c9.1-0.4,18.1-1.7,27.2-2
		c7.9-0.2,15.9-0.2,23.7,1.1c11.9,2,23.6,1.9,35.5,0c24.2-3.9,48.7-3.8,73.1-1.5c12.2,1.1,24.2,2.1,36.4-1c7.7-2,15.7-2.4,24.5,0.5
		c0.1,2.6,0.3,7.5,0.5,10.8C-416.6,609.6-420.8,609.6-425,609.6z M-541.7,534.7c6.7-0.4,13.7,0,20.3,1.3c11.1,2.1,21.9,1.8,33,0
		c13.1-2.1,26.4-3.3,39.7-4.2c9-0.6,18.1,0,27.2,0.2c1.7,0,3.4,0.3,5.1,0.6c2.6,0.4,4.5,5.9,3.9,8.5c-0.4,1.9-1.6,4.4-3.2,5.2
		c-7.4,3.5-15.5,3.9-23.4,2.8c-12.5-1.8-24.9-1.2-37.4-0.4c-4.5,0.3-9.2,0.5-13.5,1.7c-10.4,2.9-20.9,2.8-31.3,1.2
		c-16.4-2.5-32.7-3.9-49.2-1.3c-2.2,0.3-4.4,0-7.3,0c1.3-5.6,4.2-11.5,8.1-12.1C-560.3,537-551,535.3-541.7,534.7z M-559.5,530.2
		c1.4-4.1,2.3-9.9,3.5-13.4c10.4-0.6,20.5-1.3,30.7-1.6c2.7-0.1,5.7,0.7,8.2,1.8c13.4,5.9,27.2,5.6,40.9,2.5c12-2.7,24-4.1,36.3-3.3
		c5.9,0.4,11.9-0.2,17.8-0.3c1.7,0,3.5-0.3,5.1,0.3c1.6,0.6,2.8,5,4.2,6.1c-1.3,1.2-2.5,3.3-3.9,3.4c-6.8,0.6-13.7,1.6-20.4,0.8
		c-17.8-2.3-35.1,0.6-52.4,3.5c-10.5,1.7-20.8,2.3-31.2,0c-9.8-2.1-19.7-2.2-29.6-0.3C-552.9,530-555.6,529.9-559.5,530.2z
		 M-560.1,556.3c11.3,0.1,22.7,1.1,33.9,2.3c13.3,1.5,26.3,1.8,39.7-1.3c10.6-2.5,22.1-2.5,33-1.8c13.3,0.8,26.5,2.3,39.7-0.4
		c1.6,6.6,1.2,10.7-3.9,9.7c-12.4-2.2-24.1,0.5-36.1,3.5c-8.1,2-16.9,1.7-25.3,1c-12.2-1-24.4-1.1-36.5,0.6
		c-13.9,1.9-27.8,1-41.6-0.8c-9-1.2-17.5-0.4-26.1,2.2c-5.1,1.5-10.3,2.4-17.2,3.9c4.9-9.6,10.3-16.7,19.3-16.5
		C-574.2,558.6-567.1,556.2-560.1,556.3z M-578.7,577.8c6.1-0.9,12.5-1.6,18.5-0.9c18.4,2.2,36.7,2.5,55.1,0.3
		c6.1-0.8,12.5-0.6,18.6,0c14.8,1.3,29.2,1.8,43.5-3.1c9.8-3.4,19.9-1.4,29.9,1.3c0,3.7,0,9.4,0,14.1c-4,0-6.9-0.1-10.2,0
		c-4.2,0.2-8.5-0.1-12.6,0.9c-11.5,3-23,2.3-34.6,1.1c-26.9-2.7-53.8-2.7-80.5,1.8c-9.6,1.6-19.2,1.7-28.7-0.4
		c-10.1-2.3-20.2-2-30.4-0.7c-3.8,0.5-7.6,0.4-12.5,0.6c2.1-5.6,5.5-8.7,9.6-9.3C-601.6,581.6-590.2,579.4-578.7,577.8z
		 M-416.4,508.2c-8.8,0.4-17.6,0.3-26.4,0.8c-10.5,0.6-21,0.9-31.3,2.7c-14.5,2.5-28.5,3.5-42.7-2.1c-5.5-2.2-12.3-1.3-18.5-1.3
		c-5.4-0.1-10.8,0.7-16.2,0.7c-2,0-4-0.8-6.1-1.3c0.1-0.9,0.2-4.8,0.2-5.6c2.1-0.4,4.1-1,6.2-1.1c9.9-0.7,19.8-1.7,29.8-1.9
		c5.6-0.1,11.4,0.8,16.8,2.3c11.9,3.3,23.6,3.4,35.3,0.1c14.4-4.1,28.8-6,43.7-2.2c3,0.8,6.2,0.4,9.3,1c1.4,0.2,2.7,4.3,5.3,5.7
		C-413.6,507.1-415,508.1-416.4,508.2z M-416.8,492.8c-3.7-0.1-7.4-0.2-11-1.1c-11-2.9-21.9-2-32.8,0.5c-7.7,1.7-15.5,3.7-23.4,4.1
		c-6.4,0.4-12.8-1.4-19.3-2.2c-6.4-0.7-12.9-1.9-19.3-1.9c-9.3,0-18.7,1-28,1.4c-3.1,0.1-6.3-0.6-9.4-0.9c0-0.7,1-5.3,1-6
		c2-0.6,3.1-1.4,5.1-1.6c18.1-1.6,36.1-3.6,54.1,1.3c8.9,2.4,18.1,1.9,27-0.3c14.1-3.6,28.3-5.8,42.9-4.1c5.5,0.6,11.2,0.1,16.5,0.1
		C-411.4,486.6-412.4,492.9-416.8,492.8z M-417.2,475.2c-3.4,0.4-6.8,0.7-10.2,0.3c-14.9-1.6-29.5,0.2-43.9,3.8
		c-10.7,2.7-21.3,3-32-0.1c-10.9-3.2-22-1.8-33.1-1.8c-4.5,0-8.9,0-15.7,0c2.7-2.6,3.8-8.6,5.2-8.8c9.8-1.4,19.7-2.9,29.6-3.4
		c4.7-0.3,9.6,1,14.2,2.3c12.8,3.7,25.5,4.8,38.7,1.4c9.7-2.4,19.5-2.9,29.6-1.2c4.6,0.8,9.5-0.1,14.3-0.5c2.4-0.2,4.9,2.4,7.4,5.6
		C-414.6,473.8-415.8,475.1-417.2,475.2z M-451.5,391.1c3.6-0.4,7.4-0.7,10.9,0c8,1.5,15.8,3.6,24.5,5.6c1.3,7.9,0.6,11.4-6.6,11.8
		c-5.3,0.3-11,0.3-15.8-1.5c-10.5-3.9-20.8-4.9-31.6-2.3c-0.8,0.2-1.7,0.1-2.5,0c-0.2,0-0.5-0.3-1.1-0.8c2.2-4.6,4.3-10.7,10.6-11
		C-459.3,392.9-455.5,391.5-451.5,391.1z M-462.2,384.3c0.2-3.7,0.9-8.3,6.6-9.2c9.6-1.4,18.6-3,28,1.5c2.7,1.3,5.6,1.2,9.6,2
		c0,2.6,1.3,8.7,1.3,10.9c-4,2.2-9,1.1-12.7-0.4c-10.2-4-20.1-4.7-30.6-1.6C-460.7,387.7-462.3,388-462.2,384.3z M-463,411
		c4.5-0.3,9.3-0.8,13.4,0.5c10.9,3.4,21.6,6.9,32.9,2.8c2.3,8,1.4,12.5-5,12.4c-2.3,0-4.6-0.3-6.8-0.8c-7.2-1.6-14.2-0.8-21,1.6
		c-14.1,4.8-28,6.2-42.5,1.2c-5.7-2-12.3-1.3-18.5-1.8c-1.9-0.1-3.7-0.2-5.6-0.3c8.8-6.5,17.6-13.9,28.5-13.3
		C-479.4,413.7-471.2,411.6-463,411z M-462,448.4c8.2,2.7,16.2,1.5,24.3,0c6.8-1.3,13.5-2,20,1.1c1.5,0.7,2.4,6.5,3.6,7.9
		c-1.3,0.9-2.5,2.4-3.9,2.6c-5,0.8-10.2,2.4-15,1.6c-11.5-2-22.6-0.5-33.7,1.8c-11,2.3-21.8,2.3-32.3-1.8c0-0.7,0-1.3,0-2
		c9.6-7.8,20.1-9.3,30.2-11.6C-466.6,447.4-464.1,447.7-462,448.4z M-470.3,443.2c-3.3,1.2-14,2.3-16.7,3.2
		c-12.4,4.3-24.7,0.6-37-0.6c-3.6-0.4-7.1-1.1-10.7-1.7c-0.3-4.6,6.3-11.7,9.8-12C-508.2,430.8-488,435.5-470.3,443.2z
		 M-515.7,457.8c-9.2,1.7-17.6,3.2-27.3,3.5C-538.3,452.3-537,446.9-515.7,457.8z M-435.5,441.5c-6.9,0.5-17.7,4.7-26.7,1.7
		c4.7-7,19.2-10.5,26.5-10.6c6.2,0,12.3-0.2,18.4,0.6c1.1,0.1,1.9,5.9,4,8.1C-421.8,441.4-428.7,441.1-435.5,441.5z M-416.7,336.5
		c-0.2,0.1-1.3-1.1-1.2-1.6c0.1-0.6,0.9-1.4,1.5-1.6c0.4-0.1,1.1,0.6,2.3,1.3C-415.2,335.5-415.9,336.2-416.7,336.5z M-416.8,362.2
		c-0.6,3.7-5.3,11-10.4,8.7c-8.3-3.7-16.9-3.1-25.6-2c-0.2-0.7-0.7-3.7-0.7-7s2.6-3.1,4.1-3.3c8.1-1.1,16.2-2.3,24.3-2.4
		C-418.8,356.1-416.2,358.7-416.8,362.2z M-410.9,346.5c-0.4,3-3.9,8.8-7.7,7c-6.2-3-12.4-2.4-18.9-1.6c-0.2-0.5-0.6-2.9-0.6-5.6
		s1.9-2.5,3-2.7c5.9-0.9,11.9-1.8,17.9-1.9C-412.5,341.6-410.5,343.8-410.9,346.5z M-815.5,660.8c1.5,0.7,3.3,0.8,5,1.2
		c1.3,0.3,2.5,0.5,3.8,0.8c-14.7,3.8-29.1,7.5-43.9,0.5c-5.5-2.6-12-3-18.4-4.5c0.9-3.6,3.4-4.3,6.8-4.5
		C-846.3,653.7-830.5,653.9-815.5,660.8z M-839.4,643.5c11.5-4.5,21.9-1.9,29.9,8.4C-820.3,648.8-829.6,646.2-839.4,643.5z
		 M-847.3,671.9c3.6,1.9,8.2,2.3,12.4,2.3c7.4-0.1,14.9-0.2,22-1.7c13.2-2.9,26-1.8,38.7,1.9c11.5,3.4,22.9,2.7,34.6,1.1
		c8.1-1.1,16.4-0.9,24.5-1c7.6-0.1,15.3,0.2,22.9,0.2c3.7,0,7.4-0.4,11.1-0.4c2.6,0,5.2,7.4,5.8,12c-2.3,0.5-4.1,1.2-6,1.2
		c-16.5-0.1-32.9-0.5-49.4-0.5c-9.3,0-18.7,0-28,1c-8,0.9-15.8,1-23.7-0.7c-12.1-2.7-24.3-2.6-36.3,0.3c-15.5,3.8-30.8,4.2-46.1-1.2
		c-4.1-1.4-8.9-1-13.4-1c-4.2,0.1-8.4,0.8-12.7,1.3c1.2-7.8,3.2-17.3,9.4-18.1C-869.8,666.9-858.4,666.1-847.3,671.9z M-753.9,644.1
		c12.4,1.3,24.8,2.7,37.2,3.7c5.1,0.4,10.2,0,15.3,0c4.8,0,9.6,0,15.3,0c1.1,2.2,2.4,7.9,4,11.3c-3.1,0.4-4.9,0.9-6.8,0.9
		c-14.8-0.2-29.4-0.6-43.9-4.4c-5.1-1.3-10.7-0.7-16.1-0.8c-9.3-0.1-18.5-0.1-27.8-0.2C-769.6,648.1-762.1,643.2-753.9,644.1z
		 M-766.8,630.2c8.7-1.7,15.8-3.5,23-4.3c5.8-0.7,11.6,8.1,16.2,13.1c-12.1-0.6-22.4-1.1-32.6-1.7C-761,637.2-764.8,632-766.8,630.2
		z M-702.6,668.1c-1.9,0-3.5,0-5.4,0l0,0C-706.1,668.1-704.5,668.1-702.6,668.1L-702.6,668.1z M-749.1,661.5
		c8.6-0.3,16.9,0.6,25.4,4.6c-9.6,1.2-18.5,2.7-27.4,3.2c-5.9,0.4-11.9-0.2-17.7-1.2c-9.5-1.6-18.8-4-27.7-6
		c5.2-2.2,10.8-1.9,16.9-1.3C-769.5,662-759.2,661.8-749.1,661.5z M-859.2,693.7c13.5,4.8,27.5,2.6,41.2-0.2
		c11.3-2.3,22.5-2.5,33.8-0.1c9.8,2,19.7,1.3,29.7,0.6c9.8-0.6,19.8-0.3,29.6-0.2c11.9,0,23.8,0.2,35.7,0.3c2.3,0,4.5-0.1,6.8-0.1
		c10,0.1,10,3.1,13.7,13.5c-10.2-0.4-19.8-1.2-29.3-0.9c-23,0.6-45.9,1.8-68.8,2.5c-6.2,0.2-12.5-0.3-18.6-1.3
		c-9.1-1.5-18.1-1.5-27,1c-17.7,4.9-35.5,3.4-53.1-0.2c-7.3-1.5-14.4-2.7-21.9-2.1c-3.8,0.3-7.7-0.2-11.7-0.3
		c-0.8-5.5,0.4-11.5,5.5-12.4C-882,691.7-870.9,689.5-859.2,693.7z M-903.5,747.1c-0.5-3-0.9-4.2-1-5.6c-0.3-5.6,1.5-7.7,6.7-7.3
		c6.8,0.6,13.5,1.6,20.3,1.9c6.8,0.3,13.5-0.2,20.3-0.5s13.6-1.4,20.4-1.1c16.5,0.7,32.9,2.2,49.4,2.8c7.9,0.3,15.9-0.3,23.8-0.7
		c6.5-0.3,13-1.1,19.5-1.3c10.5-0.4,20.8,0.2,31.3,2.5c13.3,3,26.9,3,40.6,1.1c10-1.4,20.4-0.7,30.6,0.2c10.3,0.9,20.4,0.3,30.6-0.9
		c7-0.9,14.2-1.3,21.1-0.7c13.9,1.3,27.6,2.9,41.6,1.3c5.6-0.6,11.4-0.3,17,0.6c19.5,3.3,39,4.3,58.6,2.2c8.7-0.9,16.8,1.5,24.8,5.5
		C-599.5,747.1-751.2,747.1-903.5,747.1z M-416.5,733.8c-0.2,1.1-0.7,5.1-1.6,7.8c-8-1.2-15.6-1.6-23-3.5c-15.9-4-31.9-4.2-48.2-3.1
		c-10.9,0.8-22.1-0.6-33.1-1.8c-10.5-1.2-20.8-1.9-31.4-1.1c-8.4,0.6-17,0.1-25.5-0.8c-12.2-1.2-24.2-1.9-36.4,0.5
		c-7.6,1.5-15.9,0.8-23.7,0c-13.4-1.4-26.5-0.6-39.9,0.8c-10.8,1.1-22.3,0.5-32.9-1.8c-16.2-3.6-32.2-2.3-48.3-1.5
		c-9.9,0.5-19.8,1.1-29.7,0.8c-12.2-0.3-24.4-1.9-36.6-2.2c-9.9-0.2-19.9-0.2-29.7,1.2c-12.4,1.8-32.2,0-48.8-3.3
		c-0.3-2.4-0.7-8.1-1-10.2c1-1,1.4-1.8,1.7-1.8c12.6,0.9,25.1-2.2,38,1.2c17.4,4.6,35.5,4.7,53.2,0.8c9.9-2.2,19.6-1.3,29.6-0.7
		c13.5,0.8,27.2-0.3,40.7-0.8c5.9-0.2,11.9-1,17.8-1.1c10.2-0.3,20.4-0.3,30.6-0.2c5.1,0.1,10.3,0.3,15.3,1.3
		c5.8,1.1,11.5,3.1,17.4,0.5c0.2-0.1,0.6-0.1,0.8-0.1c10.5,3,20.8-1.7,31.1-0.9c6.7,0.5,13.7,0.9,20.1,2.8c10.4,3.2,20.6,4.2,31,1.6
		c15-3.8,29.7-3.5,44.3,2.1c9.3,3.5,19.1,3.3,28.6,1.6c11.4-2,22.6-1.7,33.8,0.6c12.1,2.6,24.2,2.9,36.5,2.1
		c4.2-0.3,8.5-0.1,12.7,0.3C-415.8,725.7-415.2,726.8-416.5,733.8z M-414,718.3c-17.4-0.7-34.4-0.5-51.2-2.2
		c-13.9-1.5-27.4-3.4-41.4-0.8c-10.1,1.9-20.3,1-30.1-3c-11.1-4.5-22.6-4.9-34.3-2.5c-3.9,0.8-7.8,1.8-11.7,2.2
		c-5.1,0.4-10.3,0.9-15.3,0.2c-5-0.6-9.8-2.7-14.8-3.9c-4.9-1.1-9.9-1.9-14.8-2.7c1.1-7.4,1.3-10.5,7.2-11.4
		c12.7-1.8,25.3-1.7,38.1,0.9c15.7,3.2,31.7,2.8,47.4,0.3c12.1-1.9,23.8-1,35.3,2.8c10.5,3.5,21.2,3.6,32,1.8c9.9-1.7,19.6-2,29.6,0
		c8.3,1.7,16.8,2,26.5,3.1C-412.5,707.5-413.2,714-414,718.3z M-414.3,695.6c-4.5,0.1-9.2,0.2-13.6-0.6c-14.1-2.6-28-3.2-42.3-1
		c-8.5,1.3-17.8,0.7-26-1.7c-14.6-4.3-29-4.8-43.8-2.6c-13.6,2-27.2,2-40.7-0.6c-11.8-2.3-23.6-3.3-35.6-1.8
		c-2.8,0.3-7.3-2.4-7.9-6.6c-0.6-4.6,4.2-3.3,6.9-4.1c11.7-3.2,23.4-3.4,35.3-0.1c8.3,2.3,16.8,2.3,25.4,1.2
		c5.9-0.7,11.9-0.9,17.8-1.3c8.9-0.6,17.6,0.3,26.1,3c14.3,4.6,28.9,5.6,43.8,3.2c13.6-2.2,27-2.6,40.6,0.5
		c5.9,1.4,12.2,1.2,18.4,1.7C-408.7,689.4-410.4,695.5-414.3,695.6z M-407.4,190.8c-1.9,26.9-3.6,53.8-3.3,80.9
		c0.1,12.5-1.5,24.9-2.5,37.4c-0.5,5.8-1.2,6.4-9.6,10.4c-0.3-2.6-0.6-5-0.7-7.3c-0.8-11.3-1-22.7-2.6-33.8
		c-1.9-13-16.5-19.8-27.7-13c-4.7,2.8-9,6.9-12.4,11.3c-3.8,4.9-6.9,10.5-9.2,16.3c-4.6,11.7-14.2,15.6-25.3,17.2
		c-8.1,1.1-16.4,1.4-24.6,1.9c-14.3,0.9-25.2,7.8-34,18.7c-1.4,1.8-3,3.4-4.4,5.2c-3.6,5-8.2,6.9-14.5,6.8
		c-12.4-0.2-24.1,3.5-34.7,10c-3,1.8-6.1,4.6-7.5,7.8c-3.8,8.3-10.3,13.2-18,17.3c-9,4.7-18.4,6.9-28,7.6
		c-4.9-5.8-5.3-11.3-2.7-17.3c1-2.3,1.8-4.8,2.5-7.3c2.7-9.8,0.6-14.2-8.6-18.2c-1.3-0.5-2.5-1.1-3.6-1.5c0.6-6.2,1.2-12.1,1.8-17.9
		c0.5-5.2-2.2-8.7-6.5-11c-9.4-5.1-19.2-7.5-28.9-0.9c-5.1,3.5-10,7.4-14.8,11.3c-5.3,4.3-7,10.2-7.1,16.7c-0.1,8.7,0,17.5-0.7,26.2
		c-9-13.1-9.8-26.9-3.4-41c2.2-4.8,4.8-10.6,8.9-13c6.1-3.6,13.6-5.2,20.8-6.6c6.3-1.2,13-0.7,19.4-1.1c6.5-0.4,11-4.5,15-8.9
		c3.3-3.7,0.8-11.7-4.9-14.4c-3.7-1.8-8.1-2.9-12.2-2.9c-10.8,0-21.5,0.5-32.3,1.3c-4.4,0.3-7.4-0.9-8.8-4.8
		c-2.7-7.5-8.7-9-15.6-9.5c-9.8-0.8-19.3-0.2-27.8,5.7c-1.6,1.1-4,1.3-7.1,0.5c2.6-4.2,5.1-8.5,7.7-12.7c4.6-7.4,2.2-14.3-6.3-15
		c-15-1.1-28.5-7.5-42.8-10.5c-33.7-7-67.5-12.9-102.2-11.2c-33.5,1.6-67,3.5-100.5,4.7c-12.5,0.5-25-0.8-37.5-1
		c-23.3-0.5-46.6-0.6-69.9-1.2c-9.4-0.2-18.7-1.7-28-2c-13.9-0.5-27.8-0.4-41.7-0.7c-6.8-0.2-13.6-0.7-20.4-1.2
		c-24.1-1.7-48.1-3.7-72.2-5.1c-9.2-0.5-9.2,0.1-12.3,9c-4.2,12-17.7,13.4-24.9,6.5c-7.7-7.3-16-13.5-24.2-20.1
		c-10.7-8.5-10.7-8.5-9.6-22.1c1.3-15.2,1.9-16,17.1-17.5c44.2-4.4,88.3-5.4,132.7-1c60.5,6,121.1,8.3,181.9,9.3
		c51.7,0.8,103.4-0.2,155.1-0.8c29-0.3,58,2,86.9,0.8c39.2-1.7,78.3-4.3,117.5-6c31.8-1.4,63.6-2.4,95.4-2.9
		c19.3-0.3,38.6,0.9,57.9,1.3c5.7,0.1,11.4,0.2,17-0.1c24.5-1.4,48.8,0.3,73.1,3.3c8.1,1,16.2,1.8,25.1,2.7
		C-407.7,182.4-407.1,186.6-407.4,190.8z"/>
	<path class="st2" d="M-407.9,177.3c-8.9-0.9-17-1.7-25.1-2.7c-24.3-2.9-48.6-4.7-73.1-3.3c-5.7,0.3-11.4,0.2-17,0.1
		c-19.3-0.4-38.6-1.6-57.9-1.3c-31.8,0.5-63.6,1.5-95.4,2.9c-39.2,1.7-78.3,4.3-117.5,6c-29,1.2-57.9-1.1-86.9-0.8
		c-51.7,0.6-103.4,0.7-155.1-0.2c-60.8-1-121.4-2.3-181.9-8.3c-44.3-4.4-88.5-3.4-132.7,1c-15.1,1.5-15.8,2.3-17.1,17.5
		c-1.2,13.6-1.1,13.5,9.6,22.1c8.2,6.5,16.5,12.8,24.2,20.1c7.3,6.9,20.8,5.4,24.9-6.5c3.1-8.9,3.1-9.6,12.3-9
		c24.1,1.4,48.1,3.4,72.2,5.1c6.8,0.5,13.6,1,20.4,1.2c13.9,0.3,27.8,0.2,41.7,0.7c9.4,0.3,18.7,1.8,28,2
		c23.3,0.6,46.6,0.8,69.9,1.2c12.5,0.3,25,1.5,37.5,1c33.5-1.2,67-3.1,100.5-4.7c34.6-1.7,68.5,4.2,102.2,11.2
		c14.4,3,27.9,9.4,42.8,10.5c8.5,0.6,10.8,7.6,6.3,15c-2.6,4.2-5.1,8.5-7.7,12.7c3.2,0.8,5.5,0.6,7.1-0.5c8.5-5.9,18-6.4,27.8-5.7
		c6.9,0.5,12.9,2.1,15.6,9.5c1.4,3.9,4.4,5.2,8.8,4.8c10.7-0.8,21.5-1.3,32.3-1.3c4.1,0,8.5,1.1,12.2,2.9c5.6,2.7,8.2,10.7,4.8,14.4
		c-4,4.4-8.5,8.5-15,8.9s-13.1-0.1-19.4,1.1c-7.1,1.3-14.6,3-20.8,6.6c-4.1,2.4-12.5,11.1-14.7,15.9c-6.5,14.1-10,39.5,9.2,38.2
		c2-5.2,0.6-17.5,0.7-26.2c0.1-6.5,1.8-12.4,7.1-16.7c4.8-3.9,9.7-7.8,14.8-11.3c9.7-6.6,19.4-4.2,28.9,0.9c4.3,2.3,7,5.8,6.5,11
		c-0.5,5.8-1.1,11.7-1.8,17.9c1,0.4,2.3,1,3.6,1.5c9.2,4,11.3,8.4,8.6,18.2c-0.7,2.5-1.4,4.9-2.5,7.3c-2.7,6-2.2,11.5,2.7,17.3
		c9.6-0.7,19-2.9,28-7.6c7.7-4.1,14.2-9,18-17.3c1.4-3.1,4.5-5.9,7.5-7.8c10.6-6.5,22.3-10.2,34.7-10c6.4,0.1,10.9-1.8,14.5-6.8
		c1.3-1.8,2.9-3.4,4.4-5.2c8.7-10.9,19.7-17.8,34-18.7c8.2-0.5,16.5-0.7,24.6-1.9c11.1-1.6,20.6-5.6,25.3-17.2
		c2.3-5.7,5.4-11.4,9.2-16.3c3.4-4.4,7.7-8.5,12.4-11.3c11.2-6.7,25.8,0,27.7,13c1.6,11.2,1.8,22.5,2.6,33.8
		c0.2,2.3,0.5,4.7,0.7,7.3c8.5-4,9.2-4.6,9.6-10.4c1-12.5,2.6-24.9,2.5-37.4c-0.3-27,1.4-53.9,3.3-80.9
		C-407.1,186.6-407.7,182.4-407.9,177.3z"/>
	<path class="st2" d="M-1150.8,600.3c0.2,2.9-0.2,4.9,0.4,6.6c4,10.9,7.4,22.1,12.4,32.6c8.6,18.1,19.2,34.8,37.4,45.2
		c7.4,4.2,12,11.1,13.5,19.8c0.4,2.4,1.5,5.1,3.1,6.9c8.6,9.8,17.4,19.4,26.2,29.1c2.6,2.9,5.9,4.2,9.9,4.1
		c3.7-0.1,7.4,0.2,11.1,0.2c38.1,0.2,76.1,0.3,114.2,0.4c2.2,0,4.4-0.4,7-0.7c-0.7-9.3-1.8-18-1.9-26.8c0-8.4-3.8-13.2-11.4-15.8
		c-9.4-3.2-15.8-9.8-20.4-18.4c-5.2-9.8-10.2-19.6-15.5-29.4c-2.9-5.5-5.9-11-13.4-13.4c-1.4,2.8-3,5.4-4,8.2
		c-2.6,7.4-6.9,10.6-14.6,9.2c-4-0.7-8.2-2.5-11.6-4.8c-4.7-3.1-8.7-7.3-13.1-10.8c-6-4.6-10.3-10.3-14.1-16.8
		c-3.7-6.4-8-12.4-12.2-18.4c-3.7-5.3-7.1-6.7-12.3-3.5c-7.8,4.9-15.7,7.4-24.9,6.4c-1.9-0.2-3.9,0.9-5.8,1.1
		c-3.9,0.4-8,1.4-11.8,0.9c-12-1.6-24.3-2.3-35.4-8.3C-1141.5,601.9-1145.9,601.6-1150.8,600.3z"/>
	<path class="st2" d="M-1122.3,724.2c-0.6-1.3-1-2.6-1.7-3.8c-8.3-13.8-16.3-27.9-25-41.5c-17.7-27.4-32.9-56-43.3-87.9
		c-2.4,0.9-4.8,1.8-7.7,2.9c4.5,15.4,3.3,30.6,15.6,41.4c0.4,0.4,11.2,17.6,7.6,26.9c-2.7,7.3,0.3,11.2,7.8,14.4
		c4.1,1.8,8,4.2,11.8,6.6c8.9,5.5,13.3,14.4,17.3,23.6C-1136.4,714.7-1131.5,721.4-1122.3,724.2z"/>
</g>
<g>
	<rect x="-1261" y="376" class="st3" width="255.9" height="66.1"/>
	<g class="st4">
		<path class="st0" d="M-1250.1,384.7c3,0.2,5.1,0.7,6.3,1.7s1.9,2.6,1.9,4.8v0.2c0,2.2-0.8,3.9-2.4,5c-1.6,1.1-3.9,1.7-7,1.7
			c-3,0-5.3-0.5-6.8-1.6c-1.5-1-2.4-2.6-2.5-4.7c0,0,0-0.1,0-0.3s0-0.2,0-0.3c0-0.3,0.1-0.6,0.3-0.8c0.2-0.2,0.5-0.3,0.9-0.3h2.9
			c0.4,0,0.8,0.1,0.9,0.2c0.2,0.1,0.3,0.4,0.4,0.8c0,0.1,0.1,0.3,0.1,0.5c0.2,0.7,0.7,1.2,1.3,1.5c0.6,0.3,1.5,0.5,2.6,0.5
			c1.3,0,2.3-0.2,2.9-0.5c0.6-0.3,1-0.8,1-1.5v-0.1c0-0.3,0-0.6-0.1-0.8c-0.1-0.2-0.2-0.4-0.4-0.6c-0.2-0.2-0.5-0.3-0.9-0.4
			c-0.4-0.1-0.9-0.2-1.5-0.3c-0.6-0.1-1.3-0.2-2.2-0.3c-1.5-0.1-2.8-0.3-3.8-0.6c-1-0.3-1.8-0.6-2.5-1.1s-1.2-1.1-1.5-1.8
			c-0.3-0.7-0.4-1.7-0.4-2.7v-0.2c0-2.2,0.8-3.9,2.3-5s3.9-1.7,7-1.7c2.9,0,5.1,0.5,6.6,1.6s2.4,2.5,2.6,4.4
			c0.1,0.2,0.1,0.4,0.1,0.6c0,0.3-0.1,0.6-0.3,0.8c-0.2,0.2-0.5,0.3-0.9,0.3h-2.9c-0.5,0-0.8-0.1-1-0.2c-0.2-0.1-0.3-0.4-0.4-0.8
			c-0.1-0.3-0.1-0.5-0.2-0.6c-0.6-1.1-1.8-1.6-3.8-1.6c-2.6,0-3.9,0.7-3.9,2v0.1c0,0.5,0.1,0.9,0.4,1.2c0.2,0.3,0.8,0.5,1.5,0.7
			S-1251.6,384.6-1250.1,384.7z"/>
		<path class="st0" d="M-1236.1,396.8c-0.1,0.4-0.2,0.6-0.5,0.8c-0.2,0.2-0.5,0.3-0.9,0.3h-2.5c-0.4,0-0.8-0.1-1-0.4
			s-0.3-0.6-0.2-1.1l5.1-19.3c0.1-0.3,0.2-0.6,0.5-0.8c0.2-0.2,0.5-0.3,0.9-0.3h5.7c0.3,0,0.6,0.1,0.9,0.3c0.2,0.2,0.4,0.5,0.5,0.8
			l5.1,19.3c0.1,0.4,0,0.8-0.2,1.1c-0.2,0.3-0.6,0.4-1,0.4h-2.5c-0.4,0-0.7-0.1-0.9-0.3c-0.2-0.2-0.4-0.5-0.5-0.8l-0.8-3.3h-6.7
			L-1236.1,396.8z M-1229.4,389.7l-2.5-10.1l-2.4,10.1H-1229.4z"/>
		<path class="st0" d="M-1203.8,397.9h-2.5c-0.6,0-1-0.2-1.3-0.7l-8-11.9v11.3c0,0.4-0.1,0.7-0.4,1c-0.2,0.2-0.6,0.4-1,0.4h-2.3
			c-0.4,0-0.7-0.1-1-0.4c-0.2-0.2-0.4-0.6-0.4-1v-19.2c0-0.4,0.1-0.7,0.4-1c0.2-0.2,0.6-0.4,1-0.4h2.6c0.5,0,1,0.2,1.3,0.7l8.1,11.4
			v-10.8c0-0.4,0.1-0.7,0.3-1s0.6-0.4,1-0.4h2.3c0.4,0,0.8,0.1,1,0.4c0.2,0.2,0.4,0.6,0.4,1v19.2c0,0.4-0.1,0.7-0.4,1
			C-1203,397.8-1203.4,397.9-1203.8,397.9z"/>
	</g>
	<g class="st4">
		<path class="st0" d="M-1246.5,418.8v2.3c0,0.4-0.1,0.7-0.4,1c-0.2,0.2-0.6,0.4-1,0.4h-7.2v6.3c0,0.4-0.1,0.7-0.4,1
			c-0.2,0.2-0.6,0.4-1,0.4h-2.7c-0.4,0-0.7-0.1-1-0.4s-0.4-0.6-0.4-1v-19.2c0-0.4,0.1-0.7,0.4-1s0.6-0.4,1-0.4h11.7
			c0.4,0,0.8,0.1,1,0.4s0.4,0.6,0.4,1v2.7c0,0.4-0.1,0.7-0.4,1c-0.2,0.2-0.6,0.4-1,0.4h-7.7v3.9h7.2c0.4,0,0.8,0.1,1,0.4
			S-1246.5,418.4-1246.5,418.8z"/>
		<path class="st0" d="M-1240.1,430.1h-2.7c-0.4,0-0.8-0.1-1-0.4c-0.2-0.2-0.4-0.6-0.4-1v-19.2c0-0.4,0.1-0.7,0.4-1
			c0.2-0.2,0.6-0.4,1-0.4h7.2c1.6,0,2.9,0.1,3.9,0.3c1,0.2,1.8,0.6,2.5,1.1c0.6,0.5,1.1,1.2,1.3,2c0.2,0.8,0.4,1.9,0.4,3.1v0.6
			c0,2.7-1,4.7-2.9,5.8l2.7,7.2c0.2,0.4,0.1,0.8-0.1,1.1s-0.5,0.5-1,0.5h-3.1c-0.7,0-1.1-0.3-1.3-1l-2.4-6.8h-3.2v6.5
			c0,0.4-0.1,0.8-0.4,1C-1239.4,430-1239.7,430.1-1240.1,430.1z M-1235.6,412.9h-3.2v4.9h3.2c1,0,1.7-0.2,2.1-0.5
			c0.4-0.3,0.6-0.9,0.6-1.8v-0.5c0-0.9-0.2-1.5-0.6-1.8C-1233.9,413.1-1234.6,412.9-1235.6,412.9z"/>
		<path class="st0" d="M-1220.6,429c-0.1,0.4-0.2,0.6-0.5,0.8s-0.5,0.3-0.9,0.3h-2.5c-0.4,0-0.8-0.1-1-0.4s-0.3-0.6-0.2-1.1
			l5.1-19.3c0.1-0.3,0.2-0.6,0.5-0.8c0.2-0.2,0.5-0.3,0.9-0.3h5.7c0.3,0,0.6,0.1,0.9,0.3c0.2,0.2,0.4,0.5,0.5,0.8l5.1,19.3
			c0.1,0.4,0,0.8-0.2,1.1c-0.2,0.3-0.6,0.4-1,0.4h-2.5c-0.4,0-0.7-0.1-0.9-0.3s-0.4-0.5-0.5-0.8l-0.8-3.3h-6.7L-1220.6,429z
			 M-1213.9,421.9l-2.5-10.1l-2.4,10.1H-1213.9z"/>
		<path class="st0" d="M-1188.3,430.1h-2.5c-0.6,0-1-0.2-1.3-0.7l-8-11.9v11.3c0,0.4-0.1,0.7-0.4,1c-0.2,0.2-0.6,0.4-1,0.4h-2.3
			c-0.4,0-0.7-0.1-1-0.4c-0.2-0.2-0.4-0.6-0.4-1v-19.2c0-0.4,0.1-0.7,0.4-1c0.2-0.2,0.6-0.4,1-0.4h2.6c0.5,0,1,0.2,1.3,0.7l8.1,11.4
			v-10.8c0-0.4,0.1-0.7,0.3-1s0.6-0.4,1-0.4h2.3c0.4,0,0.8,0.1,1,0.4s0.4,0.6,0.4,1v19.2c0,0.4-0.1,0.7-0.4,1
			S-1187.9,430.1-1188.3,430.1z"/>
		<path class="st0" d="M-1175.2,430.2c-3.4,0-5.9-0.8-7.4-2.3c-1.6-1.5-2.3-4-2.3-7.5v-2.8c0-6.4,3.3-9.6,9.8-9.6
			c6,0,9.2,2.5,9.7,7.6c0,0.1,0,0.2,0,0.3c0,0.2,0,0.3,0,0.3c0,0.4-0.1,0.7-0.3,0.9c-0.2,0.2-0.5,0.3-0.9,0.3h-2.9
			c-0.4,0-0.7-0.1-0.9-0.3c-0.2-0.2-0.3-0.5-0.4-0.9c-0.1-0.4-0.1-0.6-0.1-0.6c-0.2-1-0.7-1.8-1.4-2.2c-0.7-0.5-1.7-0.7-2.9-0.7
			c-1,0-1.9,0.1-2.5,0.4c-0.6,0.3-1.1,0.8-1.4,1.6c-0.3,0.7-0.5,1.8-0.5,3v2.4c0,1.8,0.3,3.1,1,3.9c0.7,0.8,1.8,1.1,3.4,1.1
			c1.3,0,2.3-0.2,3-0.7c0.7-0.5,1.1-1.4,1.3-2.6c0-0.1,0.1-0.2,0.1-0.5c0.1-0.8,0.5-1.2,1.3-1.2h2.9c0.4,0,0.7,0.1,0.9,0.3
			c0.2,0.2,0.3,0.5,0.3,0.9l-0.1,0.6c-0.2,2.8-1.1,4.8-2.7,6.1S-1172.2,430.2-1175.2,430.2z"/>
		<path class="st0" d="M-1159.5,430.1h-2.7c-0.4,0-0.7-0.1-1-0.4s-0.4-0.6-0.4-1v-19.2c0-0.4,0.1-0.7,0.4-1s0.6-0.4,1-0.4h2.7
			c0.4,0,0.7,0.1,1,0.4c0.2,0.2,0.4,0.6,0.4,1v19.2c0,0.4-0.1,0.7-0.4,1C-1158.7,430-1159.1,430.1-1159.5,430.1z"/>
		<path class="st0" d="M-1145.7,416.9c3,0.2,5.1,0.7,6.3,1.7c1.2,1,1.9,2.6,1.9,4.8v0.2c0,2.2-0.8,3.9-2.4,5s-3.9,1.7-7,1.7
			c-3,0-5.3-0.5-6.8-1.6c-1.5-1-2.4-2.6-2.5-4.7c0,0,0-0.1,0-0.3s0-0.2,0-0.3c0-0.3,0.1-0.6,0.3-0.8c0.2-0.2,0.5-0.3,0.9-0.3h2.9
			c0.4,0,0.8,0.1,0.9,0.2c0.2,0.1,0.3,0.4,0.4,0.8c0,0.1,0.1,0.3,0.1,0.5c0.2,0.7,0.7,1.2,1.3,1.5c0.6,0.3,1.5,0.5,2.6,0.5
			c1.3,0,2.3-0.2,2.9-0.5c0.6-0.3,1-0.8,1-1.5v-0.1c0-0.3,0-0.6-0.1-0.8c-0.1-0.2-0.2-0.4-0.4-0.6c-0.2-0.2-0.5-0.3-0.9-0.4
			c-0.4-0.1-0.9-0.2-1.5-0.3c-0.6-0.1-1.3-0.2-2.2-0.3c-1.5-0.1-2.8-0.3-3.8-0.6c-1-0.3-1.8-0.6-2.5-1.1c-0.7-0.5-1.2-1.1-1.5-1.8
			c-0.3-0.7-0.4-1.7-0.4-2.8v-0.2c0-2.2,0.8-3.9,2.3-5c1.5-1.1,3.9-1.7,7-1.7c2.9,0,5.1,0.5,6.6,1.6s2.4,2.5,2.6,4.4
			c0.1,0.2,0.1,0.4,0.1,0.6c0,0.3-0.1,0.6-0.3,0.8c-0.2,0.2-0.5,0.3-0.9,0.3h-2.9c-0.5,0-0.8-0.1-1-0.2c-0.2-0.1-0.3-0.4-0.4-0.8
			c-0.1-0.3-0.1-0.5-0.2-0.6c-0.6-1.1-1.8-1.6-3.8-1.6c-2.6,0-3.9,0.7-3.9,2v0.1c0,0.5,0.1,0.9,0.4,1.2c0.2,0.3,0.8,0.5,1.5,0.7
			S-1147.2,416.8-1145.7,416.9z"/>
		<path class="st0" d="M-1126.1,430.2c-3.4,0-5.9-0.8-7.4-2.3c-1.6-1.5-2.3-4-2.3-7.5v-2.8c0-6.4,3.3-9.6,9.8-9.6
			c6,0,9.2,2.5,9.7,7.6c0,0.1,0,0.2,0,0.3c0,0.2,0,0.3,0,0.3c0,0.4-0.1,0.7-0.3,0.9c-0.2,0.2-0.5,0.3-0.9,0.3h-2.9
			c-0.4,0-0.7-0.1-0.9-0.3c-0.2-0.2-0.3-0.5-0.4-0.9c-0.1-0.4-0.1-0.6-0.1-0.6c-0.2-1-0.7-1.8-1.4-2.2s-1.7-0.7-2.9-0.7
			c-1,0-1.9,0.1-2.5,0.4c-0.6,0.3-1.1,0.8-1.4,1.6c-0.3,0.7-0.5,1.8-0.5,3v2.4c0,1.8,0.3,3.1,1,3.9c0.7,0.8,1.8,1.1,3.4,1.1
			c1.3,0,2.3-0.2,3-0.7c0.7-0.5,1.1-1.4,1.3-2.6c0-0.1,0.1-0.2,0.1-0.5c0.1-0.8,0.5-1.2,1.3-1.2h2.9c0.4,0,0.7,0.1,0.9,0.3
			c0.2,0.2,0.3,0.5,0.3,0.9l-0.1,0.6c-0.2,2.8-1.1,4.8-2.7,6.1C-1120.7,429.6-1123,430.2-1126.1,430.2z"/>
		<path class="st0" d="M-1095,417.7v2.8c0,3.1-0.8,5.5-2.5,7.2c-1.7,1.7-4.1,2.5-7.3,2.5c-3.3,0-5.7-0.8-7.4-2.5
			c-1.6-1.7-2.4-4.1-2.4-7.2v-2.8c0-3.1,0.8-5.5,2.4-7.2s4.1-2.5,7.4-2.5s5.7,0.8,7.4,2.5C-1095.8,412.2-1095,414.6-1095,417.7z
			 M-1100.3,420.3v-2.4c0-1.3-0.2-2.3-0.5-3.1s-0.8-1.3-1.4-1.6c-0.6-0.3-1.5-0.4-2.5-0.4c-1.1,0-1.9,0.1-2.5,0.4
			c-0.6,0.3-1.1,0.8-1.4,1.6c-0.3,0.7-0.5,1.8-0.5,3.1v2.4c0,1.3,0.2,2.3,0.5,3.1c0.3,0.7,0.8,1.3,1.4,1.5c0.6,0.3,1.5,0.4,2.5,0.4
			c1,0,1.9-0.1,2.5-0.4c0.6-0.3,1.1-0.8,1.4-1.5S-1100.3,421.6-1100.3,420.3z"/>
	</g>
	<g>
		<g>
			<path class="st5" d="M-1294.1,435.9c1-16.5,9.1-29.9,25.4-29.9"/>
			<g>
				<polygon class="st0" points="-1288.9,430.1 -1294.1,435 -1299,429.8 -1299.2,434.1 -1294.2,439.3 -1289,434.4 				"/>
			</g>
		</g>
	</g>
	<rect x="-1328.4" y="486.1" class="st3" width="766.3" height="66.1"/>
	<g class="st4">
		<path class="st1" d="M-1030,511.3h-13.5c-0.5,0-0.9-0.1-1.1-0.4c-0.3-0.3-0.4-0.7-0.4-1.1v-22.2c0-0.5,0.1-0.9,0.4-1.1
			c0.3-0.3,0.7-0.4,1.1-0.4h13.5c0.5,0,0.9,0.1,1.2,0.4c0.3,0.3,0.4,0.7,0.4,1.1v2.7c0,0.5-0.1,0.9-0.4,1.1
			c-0.3,0.3-0.7,0.4-1.2,0.4h-8.9v3.8h8.3c0.5,0,0.9,0.1,1.2,0.4c0.3,0.3,0.4,0.7,0.4,1.1v2.2c0,0.5-0.1,0.9-0.4,1.1
			c-0.3,0.3-0.7,0.4-1.2,0.4h-8.3v4.6h8.9c0.5,0,0.9,0.1,1.2,0.4c0.3,0.3,0.4,0.7,0.4,1.1v2.7c0,0.5-0.1,0.9-0.4,1.1
			C-1029.1,511.2-1029.5,511.3-1030,511.3z M-1034.2,484.1l-0.7,0.6c-0.2,0.1-0.3,0.2-0.5,0.3c-0.1,0-0.3,0-0.6,0h-2
			c-0.3,0-0.5-0.1-0.6-0.2c-0.1-0.2-0.1-0.4,0-0.7l0.1-0.3c0.1-0.3,0.3-0.5,0.4-0.6c0.2-0.1,0.4-0.1,0.7-0.1h2.7
			c0.4,0,0.6,0.1,0.7,0.3C-1033.9,483.7-1034,483.9-1034.2,484.1z"/>
		<path class="st1" d="M-1020.1,492.3h-4.8c-0.5,0-0.9-0.1-1.1-0.4c-0.3-0.3-0.4-0.7-0.4-1.1v-3.1c0-0.5,0.1-0.9,0.4-1.1
			c0.3-0.3,0.7-0.4,1.1-0.4h15.8c0.5,0,0.9,0.1,1.2,0.4c0.3,0.3,0.4,0.7,0.4,1.1v3.1c0,0.5-0.1,0.9-0.4,1.1
			c-0.3,0.3-0.7,0.4-1.2,0.4h-4.8v17.5c0,0.5-0.1,0.9-0.4,1.1c-0.3,0.3-0.7,0.4-1.2,0.4h-3.1c-0.5,0-0.9-0.1-1.1-0.4
			c-0.3-0.3-0.4-0.7-0.4-1.1V492.3z"/>
		<path class="st1" d="M-1004.2,510.1c-0.1,0.4-0.3,0.7-0.5,0.9s-0.6,0.3-1,0.3h-2.9c-0.5,0-0.9-0.2-1.2-0.5
			c-0.3-0.3-0.3-0.7-0.2-1.2l5.9-22.3c0.1-0.4,0.2-0.7,0.5-0.9c0.3-0.2,0.6-0.3,1-0.3h6.5c0.4,0,0.7,0.1,1,0.3
			c0.3,0.2,0.5,0.5,0.5,0.9l5.9,22.3c0.1,0.5,0,0.9-0.2,1.2c-0.3,0.3-0.6,0.5-1.2,0.5h-2.9c-0.4,0-0.8-0.1-1-0.3s-0.5-0.5-0.5-0.9
			l-0.9-3.8h-7.8L-1004.2,510.1z M-996.5,501.9l-2.8-11.7l-2.8,11.7H-996.5z"/>
		<path class="st1" d="M-984.9,492.3h-4.8c-0.5,0-0.9-0.1-1.1-0.4c-0.3-0.3-0.4-0.7-0.4-1.1v-3.1c0-0.5,0.1-0.9,0.4-1.1
			c0.3-0.3,0.7-0.4,1.1-0.4h15.8c0.5,0,0.9,0.1,1.2,0.4c0.3,0.3,0.4,0.7,0.4,1.1v3.1c0,0.5-0.1,0.9-0.4,1.1
			c-0.3,0.3-0.7,0.4-1.2,0.4h-4.8v17.5c0,0.5-0.1,0.9-0.4,1.1c-0.3,0.3-0.7,0.4-1.2,0.4h-3.1c-0.5,0-0.9-0.1-1.1-0.4
			c-0.3-0.3-0.4-0.7-0.4-1.1V492.3z"/>
		<path class="st1" d="M-958.9,496.1c3.4,0.2,5.8,0.8,7.3,1.9c1.4,1.1,2.1,2.9,2.1,5.5v0.2c0,2.5-0.9,4.5-2.7,5.8
			c-1.8,1.3-4.5,1.9-8.1,1.9c-3.5,0-6.1-0.6-7.8-1.8c-1.8-1.2-2.7-3-2.9-5.4c0-0.1,0-0.1,0-0.3c0-0.1,0-0.2,0-0.3
			c0-0.4,0.1-0.7,0.3-1c0.2-0.2,0.6-0.3,1-0.3h3.3c0.5,0,0.9,0.1,1.1,0.2c0.2,0.2,0.4,0.5,0.5,0.9c0,0.1,0.1,0.3,0.2,0.6
			c0.3,0.8,0.8,1.4,1.5,1.7c0.7,0.3,1.7,0.5,3,0.5c1.5,0,2.7-0.2,3.4-0.6c0.7-0.4,1.1-1,1.1-1.8v-0.1c0-0.4-0.1-0.7-0.2-1
			c-0.1-0.3-0.3-0.5-0.5-0.7c-0.2-0.2-0.6-0.4-1.1-0.5c-0.5-0.1-1-0.2-1.7-0.3c-0.6-0.1-1.5-0.2-2.5-0.3c-1.8-0.2-3.2-0.4-4.4-0.7
			c-1.2-0.3-2.1-0.7-2.9-1.3c-0.8-0.6-1.4-1.3-1.7-2.1c-0.3-0.9-0.5-1.9-0.5-3.2v-0.3c0-2.6,0.9-4.5,2.7-5.8s4.5-1.9,8.1-1.9
			c3.3,0,5.9,0.6,7.7,1.8c1.8,1.2,2.8,2.9,3,5.1c0.1,0.2,0.1,0.4,0.1,0.7c0,0.4-0.1,0.7-0.3,1c-0.2,0.2-0.6,0.3-1,0.3h-3.3
			c-0.5,0-0.9-0.1-1.1-0.2c-0.2-0.2-0.4-0.5-0.5-0.9c-0.1-0.3-0.1-0.5-0.2-0.7c-0.6-1.2-2.1-1.9-4.4-1.9c-3,0-4.5,0.8-4.5,2.3v0.2
			c0,0.6,0.1,1,0.4,1.3c0.3,0.3,0.9,0.6,1.7,0.8C-961.9,495.9-960.6,496.1-958.9,496.1z"/>
		<path class="st1" d="M-941.2,497.7v1.2c0,0.5-0.1,0.8-0.4,1.1c-0.3,0.3-0.7,0.4-1.1,0.4h-3.9c-0.5,0-0.9-0.1-1.2-0.4
			c-0.3-0.3-0.4-0.7-0.4-1.1v-1.2c0-0.5,0.1-0.9,0.4-1.2c0.3-0.3,0.7-0.4,1.2-0.4h3.9c0.5,0,0.9,0.1,1.1,0.4
			C-941.3,496.8-941.2,497.2-941.2,497.7z"/>
		<path class="st1" d="M-918.3,499.5c0,1.8-0.1,3.3-0.4,4.6c-0.2,1.3-0.6,2.4-1.1,3.4c-0.5,0.9-1.2,1.7-2,2.3c-0.8,0.6-1.8,1-3,1.3
			c-1.2,0.3-2.5,0.4-4.1,0.4c-2,0-3.6-0.2-4.9-0.6c-1.3-0.4-2.4-1.1-3.2-2c-0.8-1-1.4-2.2-1.8-3.7s-0.5-3.4-0.5-5.6v-11.9
			c0-0.5,0.1-0.9,0.4-1.2s0.7-0.4,1.1-0.4h3.1c0.5,0,0.9,0.1,1.1,0.4c0.3,0.3,0.4,0.7,0.4,1.2v11.5c0,1.7,0.2,3,0.5,4
			c0.3,1,0.8,1.7,1.4,2.1c0.6,0.4,1.4,0.6,2.4,0.6c1,0,1.8-0.2,2.5-0.6c0.6-0.4,1.1-1.1,1.4-2.1c0.3-1,0.5-2.3,0.5-4v-11.5
			c0-0.5,0.1-0.9,0.4-1.2c0.3-0.3,0.6-0.4,1.1-0.4h3.1c0.5,0,0.9,0.1,1.2,0.4c0.3,0.3,0.4,0.7,0.4,1.2V499.5z"/>
		<path class="st1" d="M-896.6,511.3h-2.9c-0.7,0-1.2-0.3-1.5-0.8l-9.3-13.7v13c0,0.5-0.1,0.9-0.4,1.1c-0.3,0.3-0.7,0.4-1.1,0.4
			h-2.7c-0.5,0-0.9-0.1-1.1-0.4c-0.3-0.3-0.4-0.7-0.4-1.1v-22.2c0-0.5,0.1-0.9,0.4-1.1c0.3-0.3,0.7-0.4,1.1-0.4h3
			c0.6,0,1.1,0.3,1.5,0.8l9.3,13.2v-12.4c0-0.5,0.1-0.9,0.4-1.1c0.3-0.3,0.6-0.4,1.1-0.4h2.6c0.5,0,0.9,0.1,1.2,0.4
			c0.3,0.3,0.4,0.7,0.4,1.1v22.2c0,0.5-0.1,0.9-0.4,1.1C-895.7,511.2-896.1,511.3-896.6,511.3z"/>
		<path class="st1" d="M-888.2,511.3h-3.1c-0.5,0-0.9-0.1-1.1-0.4c-0.3-0.3-0.4-0.7-0.4-1.1v-22.2c0-0.5,0.1-0.9,0.4-1.1
			c0.3-0.3,0.7-0.4,1.1-0.4h3.1c0.5,0,0.9,0.1,1.1,0.4c0.3,0.3,0.4,0.7,0.4,1.1v22.2c0,0.5-0.1,0.9-0.4,1.1
			C-887.3,511.2-887.7,511.3-888.2,511.3z"/>
		<path class="st1" d="M-872.4,496.1c3.4,0.2,5.8,0.8,7.3,1.9c1.4,1.1,2.1,2.9,2.1,5.5v0.2c0,2.5-0.9,4.5-2.7,5.8
			c-1.8,1.3-4.5,1.9-8.1,1.9c-3.5,0-6.1-0.6-7.8-1.8c-1.8-1.2-2.7-3-2.9-5.4c0-0.1,0-0.1,0-0.3c0-0.1,0-0.2,0-0.3
			c0-0.4,0.1-0.7,0.3-1c0.2-0.2,0.6-0.3,1-0.3h3.3c0.5,0,0.9,0.1,1.1,0.2c0.2,0.2,0.4,0.5,0.5,0.9c0,0.1,0.1,0.3,0.2,0.6
			c0.3,0.8,0.8,1.4,1.5,1.7c0.7,0.3,1.7,0.5,3,0.5c1.5,0,2.7-0.2,3.4-0.6c0.7-0.4,1.1-1,1.1-1.8v-0.1c0-0.4-0.1-0.7-0.2-1
			c-0.1-0.3-0.3-0.5-0.5-0.7c-0.2-0.2-0.6-0.4-1.1-0.5c-0.5-0.1-1-0.2-1.7-0.3c-0.6-0.1-1.5-0.2-2.5-0.3c-1.8-0.2-3.2-0.4-4.4-0.7
			c-1.2-0.3-2.1-0.7-2.9-1.3c-0.8-0.6-1.4-1.3-1.7-2.1c-0.3-0.9-0.5-1.9-0.5-3.2v-0.3c0-2.6,0.9-4.5,2.7-5.8s4.5-1.9,8.1-1.9
			c3.3,0,5.9,0.6,7.7,1.8c1.8,1.2,2.8,2.9,3,5.1c0.1,0.2,0.1,0.4,0.1,0.7c0,0.4-0.1,0.7-0.3,1c-0.2,0.2-0.6,0.3-1,0.3h-3.3
			c-0.5,0-0.9-0.1-1.1-0.2c-0.2-0.2-0.4-0.5-0.5-0.9c-0.1-0.3-0.1-0.5-0.2-0.7c-0.6-1.2-2.1-1.9-4.4-1.9c-3,0-4.5,0.8-4.5,2.3v0.2
			c0,0.6,0.1,1,0.4,1.3c0.3,0.3,0.9,0.6,1.7,0.8C-875.4,495.9-874.1,496.1-872.4,496.1z"/>
	</g>
</g>
</svg>
