<?xml version="1.0" encoding="utf-8"?>
<!-- Generator: Adobe Illustrator 19.1.0, SVG Export Plug-In . SVG Version: 6.00 Build 0)  -->
<svg version="1.1" id="Calque_1" xmlns="http://www.w3.org/2000/svg" xmlns:xlink="http://www.w3.org/1999/xlink" x="0px" y="0px"
	 viewBox="-509.2 2234.8 976.6 675.1" style="enable-background:new -509.2 2234.8 976.6 675.1;" xml:space="preserve">
<style type="text/css">
	.st0{fill:#EC6C65;}
	.st1{fill:#6EA2C2;}
	.st2{fill:none;stroke:#EC6C65;stroke-width:4;stroke-miterlimit:10;}
	.st3{fill:none;}
	.st4{enable-background:new    ;}
	.st5{fill:#169BC9;}
	.st6{fill:#FFFFFF;}
</style>
<g>
	<polygon class="st0" points="-28.8,2244.1 446.2,2244.1 456.7,2248 456.7,2412.4 456.7,2701.6 456.7,2893.2 455,2903.2 
		434.7,2903.2 326.8,2906 40.8,2902.8 -201.4,2902.8 -345.5,2904.3 -361.9,2807.7 -354.3,2718.1 -139.2,2662.9 -75.4,2627.2 	"/>
	<polygon class="st0" points="-330.7,2304.6 -323.7,2293.5 -312.7,2290.5 -299.3,2282.2 -280.5,2264.5 -268.7,2279.3 -266.8,2296.9 
		-273,2311.4 -284,2320.7 -299.3,2324.4 -317.5,2318.9 	"/>
	<path class="st1" d="M243.7,2361.4l3.7-14.7l7.3-10.1l-3.3-3.7l-10.2,3.7l-20.5-3.7l-5.3-6.2l2.7-4.9l3.6-13.8l-4.3-12.6l-2-14
		l3.9-9.5l4.3-23.9l-357.2-3.9l1.1,86.7l-2.5,144l0.3,57.5l-26-0.3l-9.3,7.4l-16.2,7.2l-7.4-2.1l-11.8,11.7l-21.6,14.9l-11-4.1
		l-27.4-10.8h-13.2l-11.7,12.3l-6.9,20.8v11.8l-3.7,10l-9.9,12.8l-0.7,15.9l-188.4,1.1l-3,11.8l1.5,92.1l3.9,68.7l-3.9,71v21.4h47.1
		h60.6l68.7-2.7l4.2-18.7l11.6-6.4l2.8-11.3l-0.4-16.1l2.2-16.1l-6-17.8l6.6-12.8l-2.4-13.7v-11l13.3-8.2l11-8.8l14.3-5.2l15.6-5.2
		l40.8-8.6l31.7-9.5l31.4-13.5l32.9-24.5l33.6-16.8l31.8-16.2h12.5l13.9,7.5l14.2,3.7l18.8-1.3l10.4-4.9l8.4-5.8l8.4,7.3l12.2,1.8
		l8-3.3l-23.6-10.6l-10.6-5.1l-18.8,10.8l-12.6-1.7l-13.5-11.2l-13.3-2.9l-11-5.1l-2.2-11.3l7.5-8.2l9.7-1.8l12.4-1.6l13.7,1.8
		L2,2618l5.8,4l1.1,6l4.2,2.2l10.4,4l6.6,3.3l7.6,11.2l7.7,4.4h10.2l0.7-8.4l-0.7-7.1l-15-3.3l-11.3-8.3l-1.1-6.3l4.2-6.3l-11.5,2.6
		l-10.6-5.4l-12.6-11l-13.9-1.6l-2.2-4.4l22.8-10l10.4,4.7l4.6-1.4l10.6,11l17.4,9.1l11.4,1.5l8-3.5l-13.7-6l-23.1-9.5l-2.6-11.5
		l-3.3-2.2l-10.6,2.4l-3.5-1.6l-1.5-5.3l12.2-5.3h6.9l8,4.7l19.4,13.5l17.5,10.6l7.2,2.6l3.8-5.5l-29.3-16.1l-21.1-16.3l-0.4-4.4
		l-0.5-10.3h-5.7l2.2-10.7h9.9l1.4-3.5l12.1-18.4l27.7-33.7l14.7-29.3l8.2-33.5l9.3-52.9l4.9-22.2l3.6-24.4l7.1-8.6h6l4.9,11.1
		l7.4,1.4l11-5.9h10.2l9.5,10.5l1.2,12.6l1.3,14.2l5,2.9l13.3,1.8l2.3,6.3l-9,15.2l-9.9,7.3l-11.2-4.4l-4.9,6.7l6,12.8l3.8,24
		l-11.2,15.7l2.7,5.2l12.4,6.3l3.7-2.1l2.2-15l35.1-21.7l7.3-10.5l9.5-6.9l10.2-5.5l4.7-4.4l-4-5.1L243.7,2361.4z M-148.1,2590.9
		c0,6.7-1.1,13.1-5.2,18.8c-1.7,2.3-2.9,5-3.1,8c0,0.6-0.4,1.3-0.6,1.9c-4.3-1-5.3-2.1-5.4-6c-0.2-3.7-0.5-7.4-0.4-11.2
		c0.1-2.4,0.5-4.9,1.2-7.2c1-3.3,2.9-5.7,6.7-6.2c1.7-0.2,3.3-1.5,5.2-2.3C-147.9,2587.8-148.1,2589.4-148.1,2590.9z M148.8,2270.6
		c-1.3,2.9-2.7,5.7-4,8.5c-0.3,0.6-0.7,1.3-0.8,1.9c-0.9,3.5-3.3,5.8-6.3,7.6c-2.8,1.7-5.7,3.1-8.5,4.9c-1.6,1-3,2.4-5,4
		c-0.2-1.3-0.5-1.9-0.4-2.4c0.9-4.7,1.7-9.4,2.8-14c0.7-2.7,1.8-5.3,4.1-7.1c0.4-0.3,0.7-0.9,0.9-1.5c1.5-4.5,4.7-7.7,8.1-10.7
		c2-1.7,2.3-1.7,4.6-0.2c0.7,0.5,1.3,0.9,2,1.3C149.8,2265,150.4,2266.9,148.8,2270.6z"/>
	<polygon class="st1" points="-497.8,2248 -481.3,2244.1 -486.1,2253.4 -486.1,2262 -476.4,2269.3 -462.1,2271.9 -448,2275.7 
		-443.7,2282.9 -446.7,2287.3 -470.8,2291.5 -475.7,2306.2 -489.8,2317.5 -489.8,2323.8 -486.1,2329.2 -477.9,2324.6 -465.5,2317.5 
		-453.2,2320.1 -446.7,2314.1 -442.8,2306.2 -426.4,2306.2 -404.9,2307.6 -392.1,2301.1 -372,2304.5 -336.7,2286.7 -341.9,2279.9 
		-346.8,2271.9 -336.7,2253.4 -336.7,2248 -262.4,2246.3 -274.9,2259.9 -289.8,2279.9 -314.3,2291.5 -326.6,2297.5 -331.4,2307.6 
		-334.7,2323.8 -353.3,2334.5 -366.1,2344.6 -373.4,2353.9 -386.2,2354.4 -394.3,2350.5 -397.1,2343 -407.8,2343 -410.1,2344.6 
		-406.3,2359.2 -404.9,2374.5 -411.5,2378.9 -425.2,2381.9 -431,2380.6 -440.8,2374 -449.2,2373.2 -476.4,2381.9 -472.8,2385.8 
		-470.1,2388.5 -473.9,2392.3 -469.9,2397.5 -472.7,2403.6 -466.9,2409.7 -448,2414 -426.4,2415.9 -418.1,2424 -417.2,2437.8 
		-415.6,2452.3 -408.1,2458.1 -396.6,2463 -393.7,2471.5 -395.4,2480.5 -388,2487.6 -381.1,2504.9 -392.1,2496.8 -393.7,2509 
		-397.1,2532.9 -408.1,2560.5 -417.2,2558.3 -436.7,2557.7 -459,2557 -464.1,2560.5 -502.7,2553.4 -502.7,2351.5 -504.9,2252.6 	"/>
	<g>
		<g>
			<path d="M466.8,2484.4c-0.3-8.7-1.3-17.4-1.8-26.2c-0.4-8.3-0.6-16.6-0.8-24.8c-0.4-13.6,0.4-27.3-1.3-40.9
				c-2-16.5-0.7-33.1-1.1-49.7c-0.1-4.2,0-8.4,0.1-12.6c0-8.6,0.5-17.3-1.5-25.8c-0.2-0.9-0.2-1.9-0.2-2.8c0.3-9.6,0.8-19.1,1-28.7
				c0.1-5,0.3-10,0.9-14.9c0.1-0.7,0-1.4-0.1-2.1c-0.3-2.4-0.7-4.8-0.9-7.2c-0.4-3.1-3-5.7-6.1-6c-6.6-0.6-13.3-1-19.8-2
				c-9.8-1.5-19.6-1.2-29.3-1.1c-1.7,0-3.4,0.5-5.1,0.8c-3.7,0.7-7.3,2.2-11.3,1.9c-11.5-0.9-23.1-1.5-34.6-1
				c-2.4,0.1-4.9-0.1-7.3-0.4c-7-0.8-13.9-0.9-21-0.5c-8.3,0.6-16.5,0.8-24.8,1c-3.3,0.1-6.5-0.5-9.8-0.3c-19.5,1-39,0-58.4-1
				c-12.5-0.7-24.9-1.3-37.4-2c-2.4-0.1-4.9-0.3-7.3-0.6c-5.3-0.7-10.7-0.8-16.1-0.3c-3.8,0.3-7.7,0.1-11.5,0.1
				c-4.2,0-8.4,0.1-12.6,0.2c-5.6,0.1-11.2,0.6-16.8,0.4c-10-0.4-20-1.2-30.1-1.6c-9.6-0.4-19.1-0.7-28.7-1
				c-14.8-0.4-29.6-1.1-44.4,0.8c-12.4,1.6-24.8,2.4-37.3,2.1c-11.3-0.3-22.6,0.6-33.9,0.9c-10.1,0.3-20.3,0.9-30.4,1
				c-9.4,0.1-18.9-0.5-28.4-0.5c-25.6,0-51.1,0.2-76.7,0.1c-21.6-0.1-43.2-0.6-64.7-1c-17-0.3-34-0.5-51,2
				c-5.5,0.8-11.1,0.9-16.7,1.3c-6.6,0.4-13.3,1.1-19.9,0.3c-2.9-0.3-5.8-0.6-8.7-0.6c-13.4-0.3-26.8-0.3-40.2,0.4
				c-7.9,0.4-15.9,0.3-23.8,0.7c-9.3,0.4-18.6,1.3-27.9,0c-1.5-0.2-3.1,0.1-4.5-0.3c-3.3-1-6.7-1-10.1-1c-4.8,0.1-9.6,0.4-14.3-0.9
				c-0.8-0.2-1.6,0-2.4-0.1c-1.8-0.1-3.7-0.2-5.5-0.4c-1.3-0.1-2.6-0.6-3.8-0.4c-4.3,1-8.6,0.7-12.8,0.6c-0.3,0-0.7,0.1-1,0.1
				c-2.9,0.5-14.1-1.2-19.9,7.9c-0.2,0.3-0.5,0.8-0.6,1.2c-1.4,4.8-2.8,9.6-2.5,14.8c0.7,14.2-0.1,28.4,2,42.6
				c0.8,5.2,0.7,10.5,0.6,15.7c-0.2,14-0.6,28-1.1,42c-0.4,12.8-1.1,25.6-1.7,38.5c-0.3,6.9-0.7,13.7-0.7,20.6
				c0,8,0.5,16.1,0.5,24.1c0,9.3-0.3,18.7-0.5,28c0,0.8-0.1,1.7,0,2.4c1.2,7.1,0.7,14.2,0.7,21.3c0.1,6.8,0.2,13.5,0.4,20.3
				c0.1,5.6,0.6,11.2,0.5,16.7c-0.1,5.7-0.8,11.4-0.8,17.1c0,7.1,0.6,14.2,0.9,21.3c0.1,1.9-1,12.9-1.1,16.6
				c-0.1,4.8-0.1,9.6-0.2,14.3c-0.1,5-0.4,10-0.3,15c0.1,6.3,0.4,12.6,0.5,18.9c0.2,10.3,0.3,20.5,0.6,30.8c0.2,7.3,0.7,14.7,0.9,22
				c0.4,14.1,0.6,28.2,1,42.3c0.1,4.1,0.5,8.1,0.8,12.2c0.5,7,1,14,1.4,20.9c0.2,4.5,0.2,9.1,0.3,13.6c0.2,9.3,0.7,18.7,0.6,28
				c-0.1,11.7-0.4,23.3-0.9,35c-0.4,9.3-0.3,18.6-1.8,27.9c-1.2,7.6,0.3,26.9,0.2,28.9c0,1.1-0.2,2.4,0.2,3.4
				c2.8,7.1,11.8,4.3,13.4,4.2c6.3-0.5,12.6-0.9,18.8-1.3c0.7,0,1.4,0,2.1,0c3.3,0.1,6.5,0.1,9.8,0.2c1.7,0,3.5,0.1,5.2,0.2
				c3,0.1,6,0.2,9,0.2c3.8,0,7.7-0.1,11.5-0.1c1.2,0,2.3,0.1,3.5,0.1c8,0,16.1,0,24.1-0.1c6.9,0,13.8-0.2,20.6-0.2
				c7.8-0.1,15.6-0.2,23.4-0.3c10.3-0.2,20.5-0.1,30.8-0.6c10.5-0.4,20.9-1.6,31.4-1.9c11.5-0.4,23.1-0.1,34.7-0.1
				c24.4,0,48.8-0.2,73.2,0c14.9,0.1,29.9,0.6,44.8,0.9c17.8,0.4,35.7,0.6,53.5,1c13.1,0.3,26.1,0.5,39.2,1.2
				c10,0.6,20,0.9,30.1,0.6c3.2-0.1,6.5,0.3,9.7,0.4c0.8,0,1.6,0,2.4-0.1c7.2-0.5,14.4-1.3,21.6-1.4c7.9-0.2,15.9,0.3,23.8,0.4
				c4.8,0,9.6-0.1,14.3-0.4c8.6-0.5,17.2-1.4,25.8-1.6c10.3-0.3,20.5,0,30.8-0.2c8.3-0.2,16.5,1,24.8,0.5
				c12.6-0.7,25.2-0.5,37.8-0.6c6.6,0,13.3,0.3,19.9,0.5c22.6,0.9,45.2,1.9,67.9,2.7c9.8,0.4,19.6,0.5,29.4,0.7
				c3.5,0.1,7,0,10.5-0.1s7-0.3,10.5-0.3c7.8,0.2,15.6,0.6,23.4,0.7c4.2,0.1,8.4-0.2,12.6-0.4c2.3-0.1,4.6-0.5,7-0.5
				c17,0,51.1-0.5,51.1-0.7c4,0,7.9,0.1,11.9,0c14-0.2,28-0.5,42-0.8c2.4-0.1,4.7-0.4,6.4-2.3c1.4-1.6,3.2-2.3,4.2-8.7
				c0.3-6.3,0.7-12.6,0.8-18.9c0.1-8.6-0.3-17.3-0.1-25.9c0.2-14.2,0.7-28.4,0-42.7c-0.3-6.2,0.1-12.4,0.2-18.5
				c0.3-15.9,0.7-31.7,1.1-47.6c0.2-8,0.7-16.1,0.4-24.1c-0.7-15.2-1.4-30.3-0.3-45.5c0.2-2.7-0.2-5.3-0.3-8
				c-0.1-3.8-0.1-7.7-0.2-11.5c-0.1-3.4-0.2-6.7-0.3-10.1c-0.1-1.5-0.4-3-0.4-4.5c0.2-10.6,0.3-21.2,0.6-31.8
				c0.3-8.7,0.8-17.5,1.4-26.2c0.2-3.1,0.7-6.2,1.1-9.4c0.2-1.8,0.5-3.7,0.5-5.6c0.1-7.7-0.1-15.3,0.1-23c0.2-6.3,1.1-12.6,1.2-18.8
				C467.3,2511.3,467.2,2497.8,466.8,2484.4z M223.8,2257.4c0.8-3.6,1.2-3.6,4.8-3.8c8-0.4,16.1-1.1,24.1-1.3
				c12.2-0.4,24.5-0.6,36.7-0.6c14.2,0,28.5,0.5,42.7,0.4c11.3,0,22.6-0.6,33.9-0.9c6.3-0.1,12.6-0.2,18.9-0.1
				c9,0.1,18,0.7,26.9,0.5c9.4-0.2,18.9-1,28.3-1.8c4.9-0.4,9.5,0.6,14.2,1.4c1,1.7,0.6,3.5,0.3,5.1c-1.5,7.3-2.4,14.7-1.9,22.2
				c0.1,2-0.1,4,0,5.9c0.1,1.8,1.1,4.2,0.3,5.2c-1.4,1.8-0.8,3.5-1.2,5.3c-1.6,8-1.1,16-1.4,24.1c-0.2,5.1-0.5,10.2-0.6,15.4
				c-0.1,5.4,0.1,10.7-0.1,16.1c-0.1,3.5-0.7,6.9-1.1,10.4c-0.4,2.6-1.1,5.3-1.3,7.9c-0.4,6.3-2.4,7.3-8.3,7.3
				c-5.7,0-11.4-1-17.1-1.1c-4.9,0-9.8,0.4-14.6,1.3c-6.6,1.4-8.4,8.5-3.8,13.5c2,2.2,2,3.7-0.3,5.5c-0.4,0.3-0.8,0.5-1.1,0.8
				c-5.4,3.8-8,11.5-5.8,17.7c1.1,3.3,3.7,5.7,6.6,7c4.7,2.1,9.8,3.5,14.8,5.2c4.7,1.5,9.5,0.9,14.2-0.4c2.6-0.7,5-0.6,7.5,0.2
				c2.9,1,5.1,2.5,6.2,5.6c1.2,3.5,2.5,6.8,0.8,10.4c-0.5,1-0.2,2.3-0.5,3.4c-0.6,2.1-1,4.3-2.1,6.2c-2.5,4.4-3.1,8.7-0.9,13.3
				c0.9,2,0.3,3.6-0.7,5.5c-2.2,4.3-5.5,7.1-9.5,9.4c-5.4,3.1-9.5,7.5-12.5,12.9c-1.4,2.6-3.5,4.3-6.2,5.4c-2.1,0.8-4.1,1.7-6.2,2.3
				c-5.1,1.5-8.6,5.1-11.3,9.4c-1.8,2.7-1,5.7,0.2,8.4c1.8,4.1,4.6,7.1,8.9,8.8c6.2,2.4,7.2,6,3.4,11.6c-4.1,5.9-9.9,9-17.1,7.8
				c-5.9-1-11.1,0.9-16.1,3.4c-3.6,1.7-6.9,3.9-10.3,5.9c-1.6,0.9-3,0.9-4.5-0.3c-1.5-1.3-3.2-1.8-5.2-1.6c-2.6,0.2-3.2,0.7-3.8,3.2
				c-0.2,0.9-0.4,1.8-0.6,2.7c-2.6,1-4.9,0.6-7-1s-4.2-3.4-6.5-4.7c-4.3-2.5-8.8-4.8-13.2-7.1c-0.4-0.2-0.8-0.4-1.3-0.5
				c-4.8-1.7-7.6,0.5-7.1,5.5c0.1,0.9,0.4,1.8,0.5,2.8c0.3,2.5-0.4,3.6-2.9,3.7c-2.2,0.1-4.4-0.1-6.6-0.3c-4.8-0.4-9,0.6-12.6,4
				c-3.1,3-4.1,7.1-2.3,11.2c0.9,2,2.3,3.7,3.5,5.6c0.9,1.6,1.9,3.2,2.6,4.9c1.5,3.5,2.8,7.2,4.2,10.7c0.3,0.9,0.8,1.7,1.4,2.4
				c2.3,3.2,4.6,6.4,7,9.5c1.6,2.1,2.1,4.5,1.7,6.9c-0.4,2.2,0.3,3.6,2,4.8c0.8,0.6,1.5,1.4,2,2.3c2.8,5.2,5.7,10.4,8.2,15.8
				c1.3,2.8,2,6,2.3,9c0.6,6,0.8,12.1,1.1,18.1c0.4,6.6-1.8,12-6.5,16.7c-4.9,4.8-8.3,10.6-10.4,17.2c-0.9,3-1.9,6-2.6,9
				c-0.5,2.5,0.4,4.5,2.7,6c2.1,1.3,4.1,1.5,6.2,0c0.8-0.6,1.7-1.1,2.7-1.7c0.8,1.8,0.2,3.1-0.6,4.1c-1.2,1.4-2.5,2.8-4.1,3.7
				c-6.3,3.5-11.5,8.3-16.9,12.9c-2.1,1.8-3.7,4.1-5.5,6.3c-1.1,1.2-2,2.6-2.9,3.7c-1.9-0.8-3.1-1.2-4.3-1.7c-1.7-0.7-2.9-2-3.2-3.9
				c-0.3-1.8-0.6-3.7-1-5.5c-1.1-5.1-2.2-10.2-3.5-15.3c-0.3-1.2-0.9-2.5-1.8-3.3c-2.6-2.3-5.2-4.7-8.6-5.8
				c-5.5-1.6-11-3.1-16.4-4.8c-2.4-0.8-4.6-2.1-6.8-3.4c-0.7-0.4-1-1.5-1.3-2.3c-0.2-0.6-0.1-1.4,0-2.1c0.8-5.3-0.1-6.8-6.3-9.1
				c-3.2-1.2-6.4-1.2-9.6-0.2c-6.2,2-12.4,4.2-18.7,5.8c-2.8,0.7-6,0.3-9,0.2c-0.6,0-1.3-1.2-1.6-2c-1.2-3.1-2.2-6.4-3.3-9.5
				c-1.3-3.7-4.1-5.5-7.6-6.5c-2.2-0.6-4.5-1.2-6.7-1.7c-1.5-0.3-2.3-1.2-2.2-2.7c0.3-3.9,0.4-7.9,1.1-11.8
				c0.7-4.5-0.8-8.3-4.7-10.3c-3.6-1.9-11-0.5-13.6,2.8c-1.1,1.5-2.3,3.1-2.8,4.8c-1.5,5-5.5,6.2-9.8,6.4c-3.5,0.2-7-1.2-10.8-2.6
				c1.3-1.8,2.3-2.9,3.1-4.2c3.1-5,2.4-8.3-2.5-11.6c-4-2.7-8.3-2-12.3,0c-3.8,1.8-7.2,4.3-10,7.5c-2.2,2.4-4.9,3.9-8,4.8
				c-3,0.9-3.9,0.3-4.8-2.7c-0.2-0.9-0.5-1.8-0.8-2.7c-1.6-5.4-9-8.5-13.9-5.4c-4.3,2.8-7.9,7.4-6.9,13.9c0.3,1.8,0.9,3.6,1.3,5.4
				c0.2,0.8,0.5,1.6,0.5,2.4c0.1,2.1-1.2,3.3-3.3,3.1c-4.7-0.5-9.5-1.2-14.2-1.8c-0.9-0.1-1.9-0.3-2.8-0.2c-2,0.3-3.6-0.1-5-1.7
				c-0.6-0.6-1.6-0.9-2.5-1.1c-3.2-0.7-6.4-1.3-9.6-2c-0.8-0.2-1.6-0.3-2.3-0.7c-5-2.8-10.1-5.4-14.8-8.6c-4-2.7-7.7-2.2-11.4,0.1
				c-2.9,1.9-5.6,4.2-8.5,6.1c-2.2,1.4-4.7,2.5-7.2,3.4c-2.6,0.9-5.2,0.3-7.8-0.9c-4.8-2.2-8.4-5.8-12.2-9.3
				c-4.4-4.1-9.8-5.2-15.3-5.9c-2.6-0.3-5.1-0.3-6.5-3.1c-0.3-0.6-1.3-1.1-2-1.2c-2.2-0.1-2.6-1.6-2.9-3.3c-0.9-4.1,0.9-7,4-9.3
				c0.8-0.6,1.9-1,2.6-1.8c2.3-2.4,5-3.1,8.3-2.5c1.4,0.3,3.1-0.1,4.4-0.6c5.5-2.2,11-1.9,16.4-0.1c3.4,1.2,6.4,1.5,9.5-0.8
				c2.8-2,4.8-1.2,6.4,1.7c-0.6,1.3-1.6,2.4-1.7,3.6c-0.2,1.9,1.4,3.6,3.3,3.9c2.3,0.4,4.1,1.4,6.1,2.5c2.9,1.7,5.8,3.3,9.4,3.3
				c2.7,0,5.1,1.2,6.5,3.9c1.4,2.7,3.1,5.2,4.8,7.7c2.8,4.1,7,6.1,11.8,6.7c2.5,0.3,5.1,0.3,7.7,0c1.7-0.2,3.4-0.7,4.9-1.5
				c3-1.5,3.2-2.7,1.3-5.5c-0.6-0.9-1.3-1.6-2.1-2.6c1.7-3.2,1.6-6.3-0.6-9.4c-1.2-1.7-2.6-2.6-4.6-2.7c-0.7,0-1.4-0.1-2.1-0.1
				c-6.6,0.4-12.1-2.2-16.8-6.6c-4.4-4.1-4.5-5.4,0.7-8.6c1.7-1.1,3.9-1.5,5.9-2.1c0.8-0.2,1.6-0.2,2.4-0.4c1.9-0.5,2.3-1.6,1.1-3.1
				c-0.9-1.1-2.2-2.3-3.5-2.5c-6.6-1.2-13-1.9-19.6,0.7c-5.1,1.9-8.8,0.8-12.5-4.1c-1.7-2.2-3.3-4.5-5.3-6.4
				c-3.9-3.6-8.3-6-13.9-4.5c-1.2,0.3-2.6,0-4.6,0c0.9-1,1.2-1.7,1.7-1.9c5.3-2.4,10.6-4.7,16-7.1c2.3-1,4.5-1.1,6.5,0.6
				c1,0.8,2.2,1.3,3.3,2c1.7,1.1,3.4,1.7,5.3,0.8c1.5-0.7,2.4,0,3.3,1c3,3,6,6.2,9.2,9c1.6,1.4,3.7,2.4,5.7,3.3
				c4.1,1.9,8.3,3.8,12.6,5.2c5.1,1.7,10.6,2.4,15.8,0.5c4.9-1.7,12.3-3.9,11.6-5.6c-0.7-1.6-8.8-2.4-12.4-4.1
				c-3.6-1.7-10.2-3.9-15.5-5.2c-5.3-1.4-10.4-3.1-15-6.4c-1.9-1.4-2.2-3.2-2.3-5.2c-0.1-2.2-1.2-6-3-7.5c-4.9-4-13,1-14.5,0.3
				c-1.9-0.9-2.4-2.8-2.2-4c2.5-2.1,12.7-6.1,16.9-3.5c4.4,2.7,10.6,6.2,14.7,9.4c3.4,2.7,7.1,5.1,10.6,7.8c5,3.8,14.9,8.8,16.8,9.9
				c1.8,1.1,9.3,4.6,12.1,4.1s3-2,5-2.1c3.1-0.1,6.3,0.1,9.3-1.3c1.3-0.6,3.2-0.4,3-2.6c-0.1-2-1.9-3.9-3.9-3.7
				c-4,0.4-7.7-0.7-11.4-1.6c-2.5-0.6-5-1.4-7.2-2.6c-6.3-3.5-11.6-7.8-18.3-10.7c-5.7-2.4-10.4-6.5-15.2-10.5c-2.7-2.3-5.7-4-8-6.6
				c-1.4-1.6-1-3.6-0.4-5.3c0.8-2.4,0.4-4.6-0.3-6.8c-0.8-2.4-2.3-4.3-4.7-5.4c0.1-0.8,0.1-1.5,0.2-2.2c0.6-3.5,2.6-4.4,5.7-2.8
				c4.9,2.6,9.9,5.2,14.8,7.8c1,0.5,2,0.6,2.9-0.3c0.9-1,0.6-2.1-0.1-2.9c-1.3-1.6-2.8-3.1-4.3-4.6c-0.7-0.7-1.5-1.1-2.1-1.8
				c-3.9-4-3.7-4.5-0.8-9.2c5.2-8.3,12.1-15,19.1-21.7c6-5.9,11.2-12.5,15.5-19.7c5.5-9.2,10.5-18.7,14.1-28.9
				c4.5-12.7,9.3-25.4,11.2-38.9c1.7-11.8,3.2-23.6,5.2-35.3c1.3-7.5,3.1-15,5.3-22.4c1.8-5.8,2.8-12.1,2.9-18.2
				c0.1-7.7,1.5-14.8,4.5-21.7c0.5-1.1,0.9-2.1,1.2-3.3c0.5-1.9,1.3-3.1,3.5-3.3c1-0.1,1.9-1.1,3.2-1.8c0.4,0.7,0.9,1.3,1.2,1.9
				c0.5,1.3,1.1,2.6,1.4,4c1.3,5,5.1,6.6,9.5,7.5c1.8,0.4,3.5,0.1,5-0.9c1.8-1.2,3.7-2.4,5.5-3.7c3.8-3,8.1-2.6,12.4-2
				c1.1,0.1,2.1,1.3,2.9,2.2c1.5,1.8,2.8,3.7,4.1,5.6c1.7,2.5,1.6,5.3,1.3,8.1c-0.4,4.9-0.2,9.8,0.8,14.6
				c1.5,7.3,5.9,10.9,13.2,10.7c1.6,0,3.3-0.2,4.9,0c3,0.4,4.1,2.3,2.8,4.9c-2.5,4.9-5,9.8-8,14.3c-1.3,2-3.8,3.4-5.9,4.7
				c-1.6,0.9-3.6,0.6-5.4-0.5c-1.6-0.9-3.2-1.9-4.9-2.6c-3.1-1.3-4.9-0.6-7.1,1.8c-3.2,3.4-3.2,7-1.6,11c2.2,5.4,4.7,10.7,5.9,16.4
				c0.7,3.8,1.9,7.5,2.3,11.3c0.4,4.3-1.3,8.2-4.1,11.5c-1.5,1.7-3.3,3.4-4.5,5.3c-3.6,5.6-2.6,9.4,3,12.4c2.7,1.5,5.8,2.1,8.8,3.2
				c1.1,0.4,2.1,0.9,3.2,1.3c2.9,1.1,5.1,0,5.9-2.9c0.4-1.3,0.5-2.7,0.6-4.1c0.2-2.4,0.2-4.9,0.4-7.3c0-0.7,0.2-1.5,0.7-1.9
				c2.1-1.8,4.1-3.9,6.5-5.3c4.9-2.9,10.1-5.3,15.1-8.1c4-2.2,7.9-4.5,11.8-6.7c1.8-1,3.1-2.4,3.8-4.4c0.2-0.5,0.6-1,0.8-1.5
				c1.9-4.8,5.3-7.8,10.1-9.4c1-0.3,1.8-1.4,2.6-2.3c2.8-3.5,6.1-6.2,10.9-6.9c4.4-0.6,6.7-5.8,4.1-9.5c-5.5-7.6-5.7-16.1-4.9-24.8
				c0.5-5.2,2.5-10.1,6-14.3c1.2-1.4,2.3-2.9,3.5-4.4c1.4-1.7,2.2-3.7,0.9-5.5c-1.4-1.9-3.1-4.1-5.9-3.7c-2.5,0.4-5.2,0.9-7.2,2.2
				c-3,2-5.8,2-9,1.3c-4.4-1.1-8.8-2-13.3-3.1c-1.2-0.3-2.3-0.9-3.6-1.4c1-2,2.5-3.6,2-5.7c-0.1-0.3,0.2-0.7,0.5-0.9
				c4.2-3.1,3.4-7.8,3.2-11.9c-0.3-4.8-1.1-9.7-3.3-14.2c-1.1-2.4-2-5-2.5-7.6c-0.3-1.6,0-3.5,0.3-5.2c0.5-2.9,1.2-5.7,1.8-8.5
				C221.6,2268.8,222.5,2263,223.8,2257.4z M312.8,2795.2c0.1,2.6,1.3,5.1,2.1,7.6c0.5,1.5,1.1,3,1.8,4.8c-1.1,0-1.7,0.1-2.2,0
				c-7.3-1.7-14.7-3-21.5-6.8c-6.2-3.5-13.3-4-20.4-3.7c-1.6,0.1-3.1,0.9-4.6,1.5c-4.1,1.5-6.9,0.7-9.5-2.7c-0.8-1-1.6-2-2.4-3
				c-3.4-4.1-4-8.4-1.3-12.9c2.7-4.6,5.7-9.1,9.8-12.6c3.3-2.9,5-6.7,6.5-10.6c1.7-4.2,2-8.6,2.1-13c0-1.5,0.2-3,0.4-4.5
				c0.3-2.3,1.6-3.5,4.2-3.8c0.8,1.9,1.6,3.5,2.2,5.2c1,2.5,2.6,4.3,5.3,5.1c2.4,0.7,4.3,1.9,5.6,4.3c0.8,1.4,2.8,2.4,4.4,3.1
				c5.4,2.5,9.7,6.2,13.5,10.8c4.6,5.6,5.9,11.9,4.7,19C313,2787,312.7,2791.1,312.8,2795.2z M-50.3,2631.7c0.2,2.7,0.4,5.3,0.6,8.1
				c-2.9,1-5.6,1.5-8.6,0.8c-3.7-0.8-7.1-2.3-10.6-3.4c-6.4-1.9-12.9-1.6-19.2,1c-2.4,1-4.7,2.5-7.2,2.7c-4,0.3-8.1-0.1-12.2-0.4
				c-1.1-0.1-2.3-0.8-3-1.6c-3.2-3.5-7.4-4.1-11.8-4.2c-1.7,0-3.5,0.2-5.2,0.3c-0.7,0-1.4-0.1-2.4-0.1c-0.1-1.2-0.2-2.4-0.2-3.5
				c0.3-3.9,0.7-7.9,1-11.8c0.3-3.9,0.9-4.6,4.7-5.2c2-0.3,3.9-0.7,5.9-0.9c2.8-0.4,5.5,0,8.1,1.4c8.4,4.6,17.5,6.3,27,5.5
				c2-0.2,4.1-1,5.9-1.9c5-2.4,10.2-2,15.4-1.2c2.2,0.3,4.4,0.9,6.3,1.9c3,1.4,6,1.6,9.2,1.7c0.9,0,1.8,0.2,3.4,0.3
				c-1.9,2-3.3,3.7-5,5C-49.8,2627.7-50.4,2629.5-50.3,2631.7z M30.6,2564.6c-5.4-2.5-10.5-1.1-15.4,1.2c-2.3,1.1-4.4,2.6-6.7,3.8
				c-1.6,0.9-2,2.1-1.7,3.8c0.9,4.5,3.6,6.9,7.8,5.7c2.6-0.8,5.2-1.3,7.8-2c2.7-0.7,3.8,0,3.8,2.8c0,3.3,0.5,6.5,2.2,9.4
				c0.8,1.4,1.9,2.6,3.1,3.6c5.3,4.1,11.1,6.7,17.7,7.7c2.6,0.4,5.2,1.4,7.7,2.2c0.7,0.2,1.3,0.8,1.8,1.7c-2.4,0-4.9,0.5-7.1-0.1
				c-6.6-1.6-12.8-4.5-18.5-8.1c-3.6-2.2-6.4-5.7-9.6-8.6c-0.9-0.9-1.7-1.9-2.6-2.8c-1.3-1.4-2.8-1.8-4.4-0.8
				c-1.9,1.1-3.5,0.9-5.1-0.5c-0.3-0.3-0.9-0.3-1.2-0.6c-3.7-3.4-7.7-2.4-11.7-0.6c-2,0.9-3.9,2.1-5.8,3.1c-2.8,1.6-5.7,2.9-9,2.1
				c-6.6-1.6-13.2-1-19.8,0c-7.9,1.2-15.6,0.2-23-2.7c-5.7-2.3-11.5-2-17.2-0.7c-3.8,0.9-7.5,2.6-11.4,3.4
				c-3.6,0.8-7.4,0.8-11.1,1.1c-1,0.1-2.1-0.2-3.1-0.2c-4.9-0.2-9.6-1.2-14.1-3.5c-3.4-1.8-7.2-2.9-11.1-1.7c-0.5,0.2-1.1,0-2,0
				c-0.1-2.3-0.2-4.3-0.2-6.4c-0.1-3.1-0.1-6.3-0.3-9.4c-0.1-1.7,0.4-2.8,2.1-3.6c5.7-2.6,11.7-2.4,16.9,0.4
				c5.4,2.9,10.9,3.9,16.7,4.2c10.1,0.6,20-0.6,29.5-4.4c8.1-3.2,16.4-4,25-1.6c5.4,1.5,11,1.9,16.6,2.6c1.8,0.2,3.7-0.2,5.5-0.6
				c3.8-1,7.6-2.1,11.4-3.4c3.3-1.1,6.5-0.6,9.6,0.5c6.2,2.2,12.6,2.5,18.9,0.8c3.4-0.9,6.8-0.8,9.6,0.7s14.2,9.5,19.3,12.8
				s28.6,17.3,28.6,17.3c-0.9,0.7-1.5,1.5-1.9,1.4c-1.1-0.1-2.5-0.3-3.2-1l-8.9-5.8c-1.4-0.8-2.7-1.6-4-2.5c-1-0.7-2.1-1.4-3.1-2.1
				c0.1,0,0.3,0.1,0.4,0.1L30.6,2564.6z M53.6,2649.7c-4.5,0.5-8.9,1.1-12.8-1.6c-0.8-0.6-1.7-1.3-2.2-2.1c-2.1-3-4.1-6.2-6.2-9.2
				c-2.1-2.9-4.9-4.8-8.6-4.7c-3.4,0.1-6-1.7-8.8-3.1c-0.8-0.4-1.4-1.5-1.7-2.4c-1.8-5.2-5.3-8.7-10.2-10.9c-1.4-0.6-2.7-0.5-4,0.3
				c-1,0.7-2,1.3-3,1.9c-1.5,0.9-3,1-4.7,0.3c-5.8-2.4-11.6-2.8-17.8-1.1c-2.6,0.7-5.5,0-8.3-0.4c-1.8-0.2-3.6-0.9-5.5-1.2
				c-1.1-0.2-2.4-0.7-3.4-0.5c-5.9,1.3-11.3-1.2-16.8-2.5c-6.8-1.7-13.4-1.8-19.8,1.3c-2.6,1.3-5.4,1.4-8.2,1.1
				c-2.8-0.2-5.7-0.1-8.4-0.7c-3.7-0.9-7.5-1.9-10.9-3.6c-5.4-2.8-10.9-3-16.6-1.7c-1.3,0.3-2.7,0.4-4.2,0.7
				c-1.1-3.2-1.5-5.9-1.1-8.7c0.3-1.9,0.1-4,0.1-5.9c0-5,3.2-7.6,8.2-6.3c1.9,0.5,3.8,1.2,5.6,2.1c5.9,2.8,12.3,3.6,18.7,4
				c4.3,0.3,8.3-1,12.3-2.2c2.9-0.9,5.8-1.6,8.7-2.5c6.9-2.1,13.6-1,20.2,1.6c1.6,0.6,3.3,1,5,1.3c7,1.1,13.9,0.9,20.8-0.5
				c3-0.6,5.8-0.2,8.8,0.5c0.2,0.5,0.5,1,0.5,1.6c0.2,5.7,4.8,9.3,11.1,7.6s10.3,0.9,13.8,5.5c2.2,2.9,4,5.9,7.3,7.8
				c3.6,2.1,7.3,2.1,11.1,1.7c1-0.1,2-0.4,3-0.6c0,7.3,0,7.3,5,12.9c5.6,6.1,12.3,9.8,20.8,10c0.9,0,1.8,0.2,2.9,0.4
				c-0.6,1.9-1.5,3.5-1.6,5.1C52.9,2646.2,53.4,2647.9,53.6,2649.7z M-129.3,2443.4c0-3,0.2-3.1,2.9-4.3c5.3-2.5,10.3-0.9,15.3,0.8
				c12.5,4.2,25.1,4.8,37.8,1.1c2-0.6,4.1-1,6.1-1.5c6.8-1.6,13.5-0.4,20,1.6c15.1,4.5,30.2,5.1,45.6,1.8c9.3-2,18.8-2.1,28.1,0.4
				c10.3,2.8,20.7,2.9,31.2,1.6c8.5-1,17-1.8,25.4,0.6c2.6,0.7,5.1,1.6,8.1,2.6c-2.7,9.8-7.3,18.3-12.2,26.8c-1-0.2-1.8-0.3-2.5-0.7
				c-3.2-1.5-6.4-1.4-9.6-0.3c-3.6,1.3-6.9,0.6-10.3-0.4c-4-1.2-8-2.4-12-3.6c-4.8-1.4-9.7-1.2-14.6-0.3c-8.2,1.5-16.3,0.9-24.3-0.6
				c-4.5-0.9-8.9-1.7-13.4-2.5c-5.7-1-11.3-0.6-17,1c-6.8,1.8-13.6,4-20.8,4.5c-5.5,0.4-10.4-0.4-15.2-2.8c-7.9-4-16.2-4.9-24.9-3
				c-2.7,0.6-5.3,1.7-8,2.6c-6.6,2.1-13.3,2.5-19.9-0.1c-2.7-1.1-5.3-2.4-8.1-3.3c-2.4-0.8-4.9-1.1-7.8-1.8c0-1.1,0-2.7,0-4.3
				C-129.3,2453.9-129.2,2448.6-129.3,2443.4z M148.8,2270.6c-1.3,2.9-2.7,5.7-4,8.5c-0.3,0.6-0.7,1.3-0.8,1.9
				c-0.9,3.5-3.3,5.8-6.3,7.6c-2.8,1.7-5.7,3.1-8.5,4.9c-1.6,1-3,2.4-5,4c-0.2-1.3-0.5-1.9-0.4-2.4c0.9-4.7,1.7-9.4,2.8-14
				c0.7-2.7,1.8-5.3,4.1-7.1c0.4-0.3,0.7-0.9,0.9-1.5c1.5-4.5,4.7-7.7,8.1-10.7c2-1.7,2.3-1.7,4.6-0.2c0.7,0.5,1.3,0.9,2,1.3
				C149.8,2265,150.4,2266.9,148.8,2270.6z M150.9,2277.5c1,0.1,1.7,0.1,2.4,0.3c4.3,1.4,8.5,0.5,12.7-0.5c3.3-0.8,6.6-1.6,10-1.6
				c2.6-0.1,5.4,0.5,7.8,1.6c7,3.1,14.1,2.6,21.3,1.8c2.9-0.3,5.8-0.5,8.3,0.6c0.6,5,1,9.5,1.6,14.2c-2.6,1.3-5.4,0.7-8.1,0.3
				c-3.8-0.5-7.5-1.6-11.3-2.2c-4-0.7-8.1-0.8-12.1,0.1c-5.6,1.2-11.2,2.5-16.8,3.2c-3.2,0.4-6.6,0.2-9.7-0.6
				c-3.9-1-7.8-1.2-11.8-1.1c-1,0-2-0.1-3.4-0.2c2-2.8,4.7-4.4,5.6-7.6C148.1,2283,149.6,2280.3,150.9,2277.5z M128,2301.8
				c1-1.2,2.1-1.4,3.7-1.4c2.2,0.1,4.4-0.2,6.6-0.6c6.4-1.1,12.6-1.5,19.1,0.3c5.2,1.4,10.6,0.7,15.9-0.5c3.8-0.8,7.5-1.7,11.3-2.1
				c3.3-0.3,6.8-0.2,10.1,0.1c6.7,0.7,13.4,1.6,20.1,2.5c1,0.1,2.1,0.3,3,0.4c2,4.3,2.2,8.7,1.6,13.2c-0.1,0.9-0.7,1.6-1.2,2.4
				c-0.2,0.3-0.5,0.5-0.7,0.7c-4.2,5.3-9.9,5.4-15.8,4.4c-1.8-0.3-3.6-0.9-5.4-1.3c-4.1-1.1-8.2-1.6-12.4-0.5
				c-0.3,0.1-0.7,0.1-1,0.2c-7.5,1.2-6,1.5-9.5-3.9c-3.4-5.3-8.9-7.2-14.9-5.3c-3.2,1-6,2.5-8.6,4.5c-1.4,1.1-3.2,2.1-4.9,2.4
				c-4,0.6-6.8-1.6-8-6.1c-0.4-1.3-0.5-2.8-1-4.1c-0.9-2.4-2.2-3.3-4.8-3.3c-4.7,0-7.6,2-9.4,6.4c-0.8,2-1.8,4-2.9,5.9
				c-0.4,0.7-1.3,1.4-2.1,1.6c-5.5,1.1-11.1,1.5-16.7,0.1c-9.6-2.4-19.3-2.9-29.1-1.2c-2.1,0.4-4.2,0.4-6.3,0.6
				c-2.5,0.3-5.1,0.5-7.6,0.8c-1.4,0.1-2.8,0.4-4.2,0.2c-5.1-0.7-10.2-1.3-15.1-2.5c-8.1-2-16.2-1.9-24.3-0.2
				c-6.4,1.4-12.7,3-19.1,4.1c-9.3,1.6-18.5,1.1-27.8-0.7c-10.5-2-21.1-4.4-31.9-3.7c-5.3,0.4-10.6,1.5-15.8,2.6
				c-8.4,1.7-16.8,3.1-25.2,0.5c-3.7-1.1-7.2-2.8-10.8-4.1c-2.9-1-6-1.8-9.4-2.9c0-3,0-6.3,0-9.5c0-1.8,0-3.5,0-5.3
				c0-3.2,0.4-3.6,3.7-3.5c4.2,0.1,8.3,1.1,12.2,2.7c5.7,2.2,11.8,3.2,17.8,2.7c6.3-0.4,12.5-1.7,18.7-2.7
				c7.6-1.3,14.9-1.1,22.2,2.2c7.2,3.2,15,4.4,22.9,3c5.5-1,11-2,16.5-3.3c5.1-1.2,10.2-1.6,15.3-1c5.7,0.6,11.2,2,16.9,2.8
				c8.5,1.2,17.1,2.9,25.7,2c5.8-0.6,11.5-1.8,17.2-2.9c9.7-1.9,19.2-1.8,28.7,0.9c6.6,1.8,13.4,1.1,20.2,0.4
				c1.2-0.1,2.3-0.4,3.5-0.4c2.5-0.1,4.9-0.1,5.8,3.1c0.2,0.8,1.2,1.4,1.7,2C124.9,2304.6,126.7,2303.5,128,2301.8z M187.6,2418.3
				c-2.7,0.1-5.3,0.2-8,0.4c-1.9,0.1-3.1-0.7-3.5-2.6c-0.2-0.8-0.5-1.5-0.7-2.3c-0.7-3.8-1.4-7.5-2-11.3c-0.1-0.6,0-1.1,0-2.3
				c6.3-0.3,11.9-3.3,18.1-2.1c1.1,0.2,2.4,0.2,3.4,0.7c4.4,2.1,9.1,2.8,13.8,3.5c2.2,0.3,4.4,0,6.6,0c2.1,0,4.4-0.8,6.6,0.5
				c-1,5.3-4,8.9-8.4,11.4c-4.7,2.6-9.5,4.9-14.2,7.4c-1.7,0.9-2.9,0.9-4.3-0.6C193,2418.9,190.4,2418.3,187.6,2418.3z
				 M191.1,2425.5c-0.5,0.4-1,0.8-1.5,1.3c-1.9,1.5-3.8,3-5.7,4.6c-1.9,1.5-2.9,3.5-2.9,6c0.1,2.5,0,5.1-0.2,7.6
				c-0.1,1.2-0.5,2.4-0.8,4.1c-1.3-0.5-2.4-0.5-2.8-1c-1.8-2.5-4.7-2.7-7.2-3.8c-1.9-0.8-1.9-0.8-3.6-3.2c1.4-1.8,2.9-3.7,4.5-5.5
				c2.2-2.3,4.1-4.7,4.8-7.9c0.7-3.1,1.1-3.2,4.3-3.3c2.4-0.1,4.9-0.3,7.3-0.4C188.7,2424,190.2,2423.8,191.1,2425.5z M211.7,2396.8
				c-4.7-0.1-9.2-1-13.6-2.7c-5.1-2-10.4-2.4-15.8-0.9c-2.9,0.8-6,0.8-9,1.1c-2.2,0.2-3.6-0.7-4.3-2.8c-0.3-0.8-0.6-1.5-0.9-2.3
				c-1.1-2.3,0-3,1.8-5.1c1.2-1.4,2.8-0.7,4.2,0c0.3,0.2,0.6,0.4,0.9,0.6c6.8,4.2,10.7,3.3,17.1-2.7c1.5-1.4,2.8-2.1,4.7-2.4
				c2.6-0.3,5.2-1.1,7.8-1.7c3.3-0.8,6.5-0.4,9.5,1.1c4.7,2.2,9.6,3.7,14.8,3.8c1.6,0,3.3-0.1,4.8-0.3c4-0.7,7.9-0.9,11.7,0.8
				c1,0.4,1.9,1.1,3.6,2c-1.6,0.8-2.4,1.4-3.4,1.6c-5.1,1.3-9.5,3.7-12.5,8.2c-1.3,2-3.6,2-5.7,2
				C222.2,2397.1,217,2396.9,211.7,2396.8z M200.6,2356.1c5.7-1.5,10.9-2.4,16.3-1c3.9,1.1,7.7,2.6,11.7,3.4c2.9,0.6,6,0.6,9,0.8
				c1.4,0.1,2.8,0,4.4,0c0.6,5.8,1.2,11.1,1.8,16.4c-9.8,1.7-19.4,2.4-28.4-2.2c-4.1-2.1-8.3-2-12.6-1.1c-1.5,0.3-2.9,0.7-4.8,1.2
				c0.3-1.2,0.4-2,0.7-2.6c0.7-1.5,1.6-2.8,2.3-4.3C202.5,2363.3,203.4,2359.8,200.6,2356.1z M243.3,2351.8
				c-0.4,1.4-1.4,1.5-2.7,1.7c-6.8,1-13.3,0-19.5-2.6c-4.8-2-9.7-2.2-14.8-1.7c-2.8,0.3-5.5,1-8.3,1.3c-2.9,0.3-5.8,0.3-8.7,0.4
				c-1.3,0-2.6,0-3.8,0.1c-3.3,0.3-4.9-0.7-5.3-4c-0.4-3.5-0.5-7-0.6-10.4c-0.1-2.9,0.2-5.8,0.1-8.7c0-1.6,0.5-2.3,2.1-2.6
				c5.4-0.9,10.6-0.8,15.9,0.8c3.9,1.2,7.9,1.8,12.1,1.2c2.6-0.4,2.9-0.1,4.1,2.2c1.7,3.6,4.6,5.6,8.6,6.4c4.2,0.8,8.3,2.1,12.5,3
				c4.5,1,8.8,0.4,12.8-2c1-0.6,2.2-1.1,3.2-1.6c0.2,0.2,0.3,0.5,0.5,0.7c-0.2,0.4-0.3,0.9-0.6,1.2
				C247.3,2341.4,244.7,2346.3,243.3,2351.8z M115.6,2324.1c-0.8,9,0.1,18.2-2.9,27.1c-8.2-0.4-16.4,1.6-24.6-1
				c-5.5-1.7-11.4-2.5-17.1-3.3c-6.7-0.9-13.3,0.6-19.8,2c-8.5,1.8-16.7,1.9-25.3,0c-10.5-2.3-21.1-4.4-31.9-3.1
				c-9.1,1.1-18.2,2.8-27.3,4.1c-2.5,0.4-5.1,0.6-7.6,0.4c-3.8-0.2-7.7-0.7-11.5-1.4c-3.2-0.6-6.3-1.8-9.4-2.5
				c-3-0.7-6.1-1.6-9.2-1.8c-6.3-0.4-12.5,0-18.7,1.9c-6.2,1.9-12.5,1.1-18.6-0.8c-3.3-1-6.6-2.4-9.9-3.4c-3-0.9-6.1-1.5-9.3-2.2
				c-0.1-0.7-0.3-1.5-0.3-2.3c0.3-5.6,0.7-11.2,1.1-16.8c0.3-3.4,1.3-4.2,4.4-3.3c3.7,1.1,7.3,2.4,10.8,3.9c7,3.1,14.3,4.2,21.9,2.9
				c5.5-0.9,11-2,16.5-3.1c7.8-1.5,15.6-1,23.3,0.2c6.9,1,13.8,2.4,20.7,3.6c7.8,1.4,15.6,1.3,23.3,0.1c5.7-0.9,11.4-2.5,17.1-3.7
				c6-1.3,12.1-2.5,18.4-1.7c3,0.4,6,1,8.9,1.7c6.7,1.6,13.5,2.3,20.4,1.5c6.5-0.8,13-1.4,19.5-2c5.7-0.5,11.4,0,17,1.2
				c6.1,1.3,12.1,2.8,18.3,1.4C114.3,2323.7,114.8,2323.9,115.6,2324.1z M119.5,2291.5c-0.2,1.2-0.6,2.3-2.1,2.4
				c-4.2,0.4-8.3,0.9-12.5,1.3c-6.6,0.6-13-0.8-19.4-2.2c-6.1-1.3-12.2-1.4-18.4-0.3c-6.6,1.2-13.3,2.6-20,3.3
				c-5.1,0.5-10.3,0.3-15.4,0c-7.2-0.5-14.3-2-21.4-3.5c-8.5-1.7-17-1.8-25.6,0.6c-8.2,2.2-16.7,3.9-25.2,3c-3.8-0.4-7.7-1.3-11-3
				c-5-2.4-10.1-3.6-15.6-3.2c-5.1,0.4-10.3,0.6-15.2,2c-8.4,2.3-16.6,1.9-24.9-0.2c-1.7-0.4-3.3-1.2-5-1.6c-4-1-8-1.8-11.9-2.7
				c-0.7-0.1-1.3-0.3-1.9-0.4c-2-4.3-1.2-8.9-1.6-13.2c-0.1-1.6-0.1-3.3,0-4.9c0.2-2.2,1-3,3.2-2.5c3,0.8,6.1,1.6,8.9,2.9
				c5.8,2.6,11.7,3.9,18,3c5-0.7,9.9-1.4,14.9-2.2c7-1.2,13.6,0.1,20,3.2c3.9,1.8,8,3,12.4,3.3c10,0.6,19.7-1.4,29.4-3.4
				c5.4-1.1,10.7-0.8,15.9,0.7c7.4,2,15,3.5,22.7,4.1c5.9,0.5,11.6-0.8,17.2-2.6c2.4-0.8,5-1.3,7.5-1.7c6.8-1.1,13.7-1.6,20.6-0.5
				c2.5,0.4,5,1.2,7.5,1.8c1.5,0.4,2.9,0.9,4.4,1.1c6.3,0.6,12.6,1.5,18.8,0.3c4-0.7,7.9-1.8,11.9-2.7c4-0.9,8-1.9,12.1-1.1
				c1.9,0.4,3.7,1.1,5.4,1.7C121.8,2280.4,120.7,2286,119.5,2291.5z M-125,2346.7c2.5-0.1,4.8,0.3,7.2,1.2c4.2,1.6,8.6,3.1,13,4
				c6.1,1.3,12.3,1.2,18.4-0.3c7.4-1.7,14.8-2.1,22.2-0.5c0.7,0.1,1.4,0.3,2,0.6c7,2.8,14.5,3.5,21.9,4.2c3.5,0.3,6.9,0,10.4-1.1
				c3-0.9,6.2-1.3,9.3-1.7c10.6-1.3,21.3-3.1,32.1-1.5c6.7,1,13.3,2.2,20,3.6c5.3,1.1,10.4,0.7,15.6-0.3c6.1-1.1,12.2-2.1,18.3-2.7
				c6.8-0.7,13.4,1,20,2.6c3.4,0.8,6.8,1.6,10.3,2.1c2.4,0.3,4.9,0.1,7.3-0.1c2.5-0.2,5.1-0.7,7.7,0.6c-1.5,7.1-2.8,14-4.3,20.8
				c-0.6,2.7-1.1,3.1-3.9,2.9c-4.6-0.4-9.3-0.8-13.9-1.4c-6.2-0.9-12.4-0.5-18.4,1.2c-5.9,1.6-11.8,1.7-17.6,0.1
				c-9.7-2.6-19.5-3.8-29.4-3.2c-4.2,0.2-8.4,0.7-12.5,1.6c-14.2,3.2-28.3,1.8-42.3-1.3c-5.5-1.2-10.9-2.4-16.4-3.5
				c-6.5-1.3-12.8-0.1-19,1.5c-9.4,2.5-19,2.5-28.5,1.4c-4.7-0.5-9.3-2-13.8-3.6c-4.8-1.7-9.6-1.9-14.5-1.3
				c-0.5,0.1-0.9,0.2-1.4,0.2c-2.2,0.1-2.7-0.3-2.8-2.5c-0.2-3.1-0.2-6.3-0.3-9.4c-0.1-3.5-0.1-7-0.1-10.5
				C-128.4,2347.1-128,2346.7-125,2346.7z M-128.1,2397.2c0.1-4.8,0.2-9.6,0.3-14.3c0-3.8,0.1-3.7,3.7-4.5
				c7.1-1.7,13.7,0.1,20.2,2.3c5,1.7,10.1,2.7,15.4,2.8c7.4,0.1,14.7-0.2,21.9-1.8c2.2-0.5,4.2-1.2,6.4-1.8c6.1-1.5,12,0,18,1.3
				c13.4,2.8,26.9,6,40.8,5c5-0.3,9.9-1.4,14.8-2.2c1.6-0.2,3.2-0.6,4.8-0.7c11.1-0.8,22.1,0,33,2.6c7.3,1.7,14.6,1.3,21.9-0.3
				c5.9-1.3,11.7-1.5,17.7-0.4c3.3,0.6,6.7,0.8,10.1,1.1c1,0.1,2,0.2,3.5,0.3c-1,8.7-2,17-2.9,25.5c-5,0.6-9.6,0.2-14.2-0.5
				c-9-1.4-17.9-0.9-26.8,0.4c-8.8,1.3-17.5,0.3-26.1-1.7c-8.7-2-17.5-2.7-26.4-1.9c-6,0.6-12,1.6-18,2.5
				c-8.6,1.2-17.2,1.1-25.7-0.9c-6.2-1.4-12.4-3.2-18.7-4.4c-5.1-0.9-10.2-0.3-15.3,1.1c-6.3,1.7-12.7,3.1-19.3,2.7
				c-2.4-0.2-4.9-0.3-7.3-0.8c-5.7-1.2-11.4-2.5-17-3.9c-4.6-1.1-9.2-1.8-14,0c-0.3-1-0.7-1.7-0.8-2.4
				C-128.2,2400.5-128.2,2398.8-128.1,2397.2z M-126.3,2250.8c6.4,0.1,12.8,0.4,19.2,0.4c8.5,0,17-0.3,25.5-0.3
				c12.7,0,25.4,0.2,38.1,0c15-0.2,30.1-1,45.1-1.2c13.6-0.2,27.3,0.1,40.9,0.2c22.2,0.3,44.3,0.6,66.5,1c7.6,0.1,15.1,0.7,22.7,0.9
				c10.7,0.2,21.5,0.1,32.2,0.3c16.2,0.4,32.4,1.1,48.6,1.6c2.2,0.1,4.4,0.1,6.8,0.2c-0.7,7.2-2.1,13.7-4.3,20.4
				c-4.3-1.7-8.3-0.4-12.5,0c-6,0.6-12.2,0.3-17.8-2.3c-4.8-2.2-9.7-2.3-14.7-1.3c-2.3,0.5-4.5,1.1-6.8,1.6
				c-1.9,0.3-3.9,0.6-5.9,0.6c-3.2,0-3.7-0.7-3.7-3.9c0.1-3.9-3-8.8-6.5-10.4c-0.2-0.1-0.4-0.2-0.7-0.2c-1.8-0.4-2.9-2.8-5-2
				c-3.2,1.2-6.7,2.1-9,5.1c-1.5,1.9-3.1,3.8-4.5,5.8c-1,1.5-2.3,2.1-3.9,1.5c-8-3.2-16-1.5-23.7,0.7c-11.2,3.3-22.1,2.5-33.1-0.5
				c-7.8-2.2-15.7-1.9-23.6-0.5c-5.2,0.9-10.3,2.1-15.3,3.4c-6.7,1.6-13.5,1-20.1-0.2c-4.7-0.8-9.3-2-14-3.1c-6-1.3-11.9-1.2-18,0
				c-9.5,2-19,3.7-28.8,2.7c-3.6-0.4-7.1-1.2-10.4-2.9c-6.8-3.4-13.9-4.3-21.4-3.1c-5.3,0.8-10.6,1.3-15.9,2.2s-10.1-0.7-15-2.5
				c-4.1-1.5-8.1-3.7-12.9-3.4c-1.2-3.3-1.1-6.7-1.3-10.2C-128.1,2250.9-127.2,2250.8-126.3,2250.8z M-129.4,2425.7
				c0.2-4.1,0.6-8.1,0.7-12.2c0.1-2.1,0.9-3.2,2.8-3.8c4-1.2,8-1,12.1,0c2.9,0.7,5.9,1.1,8.8,1.8c2,0.5,4,1.3,6,1.8
				c9.2,2.3,18.4,1.6,27.4-0.7c8.9-2.3,17.4-2.3,26.2,0.3c5.1,1.5,10.4,2.6,15.7,3.3c8.4,1.2,16.7,0.7,25-1
				c13-2.6,26.2-2.7,39.2,0.3c8.1,1.9,16.3,2.9,24.6,1.9c3.1-0.4,6.2-1.1,9.3-1.4c7.9-0.8,15.8,0,23.6,1.4c2.4,0.4,4.8,0.5,7.6,0.8
				c-0.1,1.2,0,2.3-0.3,3.2c-1.6,5.7-3.3,11.4-5.1,17.1c-1.1,3.5-2.3,4-5.8,3c-2.6-0.7-5.1-1.6-7.7-2.3c-7.4-2-14.9-1.3-22.2-0.2
				c-9.9,1.6-19.7,1.5-29.5-1.1c-9.6-2.6-19.4-2.4-29.2-0.9c-4.8,0.7-9.6,1.9-14.5,2.4c-6.9,0.7-13.8,0.2-20.5-1.2
				c-6.2-1.3-12.2-3-18.3-4.5c-5.2-1.2-10.5-1.5-15.6,0.2c-6.1,2-12.3,3.6-18.7,4.2c-3.5,0.3-7.2-0.4-10.7-0.7
				c-0.7-0.1-1.4-0.4-2.1-0.3c-5.1,0.4-9.6-1.7-14.2-3.3c-3.8-1.4-7.5-2.4-11.5-0.9c-0.8,0.3-1.8,0.1-3.4,0.2
				C-129.4,2430.3-129.5,2428-129.4,2425.7z M-129.5,2473.3c0-3.5,1.8-5.2,5.2-4.5c1.6,0.3,3,1.2,4.5,1.8c3.8,1.3,7.6,3,11.6,3.8
				c5.8,1.2,11.6,0.3,17.3-1.3c4.4-1.3,8.6-3.3,13.5-3.3c4.8,0,9.4,0.8,13.5,3c9.5,5.1,19.3,4.9,29.3,2.7c4.2-0.9,8.4-2,12.5-3.3
				c5.1-1.6,10.1-1.6,15.2-0.4c9,2.2,18.1,3.3,27.3,3.7c2.7,0.1,5.4,0.1,8-0.5c9-2.2,17.6-0.5,26,2.7c4.3,1.7,8.6,2.6,13.3,1.3
				c2.6-0.7,5.3-0.4,8.4,0.6c-1.5,2.6-2.7,5.1-4.4,7.2c-4.3,5.6-8.6,11.3-13.9,16.1c-2,1.8-4.2,2.9-6.8,3.2
				c-4.1,0.5-8.1,0.6-12.2-0.3c-2.8-0.7-5.7-1.2-8.6-1.7c-5.7-1-11.2,0.1-16.9,1.2c-4.2,0.8-8.8,0.3-13.1-0.2
				c-4.7-0.6-9.3-2.1-14-3.1c-5.6-1.1-11.1-0.6-16.5,1.3c-1.4,0.5-2.9,1-4.4,1.1c-3.3,0.2-6.5,0.3-9.8,0.3
				c-6.2-0.1-12.3-0.6-18.2-2.9c-3.1-1.2-6.5-1.9-9.7-2.8c-4-1.2-8.1-1.1-12.1-0.1c-4.3,1.1-8.5,2.5-12.9,3.2
				c-3.9,0.7-7.9,0.7-11.8,0.8c-1,0-2.1-0.4-2.9-1c-4.8-2.9-10.3-3.6-15.7-4.4c-0.3,0-0.7-0.2-1.7-0.5c0-3.3-0.1-6.5-0.1-9.8
				C-129.5,2482.7-129.4,2478-129.5,2473.3z M-129.8,2507.7c0.1-4.2,1.6-5.4,5.8-4.5c1.9,0.4,3.9,0.7,5.8,1.2
				c1.2,0.3,2.5,0.7,3.5,1.4c3.2,2.1,6.7,3,10.3,2.6c5-0.6,9.9-1.7,14.8-2.6c3.7-0.7,7.3-1.8,11-2.1c2.7-0.2,5.6,0.5,8.2,1.2
				c4.2,1.1,8.2,2.6,12.3,3.9c0.7,0.2,1.4,0.4,2,0.4c7.4,0.7,14.9,1.7,22.3,0.7c1.9-0.3,3.9-0.8,5.8-1.4c5.6-2,11.1-2.1,16.8-0.5
				c7.5,2.1,15.2,3.8,23.1,3.3c1-0.1,2.1-0.2,3.1-0.4c6.4-1.9,12.7-2.2,19.3-0.3c3.8,1.1,7.8,1.2,11.7,1.7c0.5,0.1,1.1,0.2,1.6,0.2
				c0,0.5,0.1,1,0,1.2c-2.3,3.5-4.7,6.9-7,10.4c-1.2,1.9-2.4,3.9-3.8,6.2c-0.8-0.2-2.1-0.6-3.4-0.9c-4.1-0.8-6.2,0.5-7.2,4.6
				c-0.8,3-1,3.2-4,2.8c-3.6-0.5-7.1-1.2-10.7-1.8c-2.8-0.5-5.5-0.7-8.3,0.2c-4,1.3-8,2.4-12.1,3.5c-3.9,1.1-7.9,1.1-11.8,0.1
				c-5.3-1.3-10.5-3-15.7-4.8c-6.7-2.4-13.5-4.7-20.8-3.6c-3.6,0.5-7.1,1.5-10.5,2.5c-2.8,0.8-5.6,1.7-8.3,2.7
				c-5.3,1.9-10.8,1.6-16.3,0.9c-6.7-0.9-13.3-2.2-19.4-5.5c-4.4-2.3-9.4-2.5-14.4-1.9c-1.1,0.1-2.3,0.3-3.9,0.5
				c-0.1-1.5-0.3-2.5-0.3-3.5C-129.9,2519.9-129.9,2513.8-129.8,2507.7z M-127.2,2535.1c3.5-1.2,7.1-1.6,10.7-0.5
				c2.8,0.8,5.5,1.9,8.2,3c10.2,4.1,20.7,5.6,31.5,3.9c3.1-0.5,6-1.9,9-2.7c3.3-0.9,6.5-1.8,9.8-2.6c7-1.5,13.7,0,20.2,2.6
				c5.4,2.2,10.9,4,16.7,5.1c5.5,1.1,10.9,0.8,16.2-0.9c3.5-1.2,7.1-2.1,10.8-3c1.3-0.3,2.8-0.4,4.1-0.2c3.6,0.6,7.1,1.4,10.6,2.1
				c1.1,0.2,2.1,0.5,2.3,1.8c0.4,2.8,2.3,3.2,4.6,3.3c0.9,0,1.8,0,3,0c0,3.1,0,5.9,0,8.5c-0.5,0.4-0.7,0.6-0.8,0.6
				c-3.8-0.4-7.4,0.6-11,1.4c-5,1.1-9.8,0-14.5-1.4c-5-1.6-9.7-0.9-14.4,0.7c-3.1,1-6.2,2.2-9.4,2.7c-2.5,0.4-5.1,0.1-7.6-0.3
				c-4.7-0.7-9.4-1.6-14-2.7c-8-2-16-1-23.7,2.1c-9.5,3.8-19.3,5.1-29.5,4.5c-5.5-0.3-10.5-1.6-15.5-3.7c-5.4-2.3-11-4.1-16.9-1.4
				c-0.8,0.3-1.8,0.2-3,0.3c0-4.4,0-8.4,0-12.5c0-2.2-0.1-4.4-0.1-6.7C-130.1,2536.5-129.8,2535.9-127.2,2535.1z M-217.5,2308.9
				c-1.5-6.4-3.4-12.5-2.5-19.2c1.2-9,1-18.1-0.2-27.2c-0.3-2.5-1.1-5-1.6-7.5c-0.2-0.9-0.2-1.8-0.2-3c1.2-0.2,2.3-0.4,3.3-0.4
				c26.9,0.5,53.8-1.9,80.7-1.2c0,3.2,0.1,5.8,0,8.5c-0.5,7.9-1.4,15.8-1.6,23.7c-0.2,5.2,0.4,10.5,0.7,15.7
				c0.5,7,1.2,13.9,1.8,20.9c0.1,1.2,0.2,2.3,0.2,3.5c-0.4,19.1-0.8,38.3-1.2,57.4c-0.1,4.1-0.1,8.2,0.2,12.3
				c1,14.8,0.5,29.6-0.5,44.4c-0.9,12-1.6,24-0.9,36c0.4,7.2-0.3,14.5-0.4,21.7c-0.1,9.8,0,19.6,0,29.4c0,1.7,0,3.4,0,5.3
				c-4.1,1.1-8.1,1-12,1c-2.2,0-4.4,0-6.6,0c-3.4,0-6.4,1.2-9.1,3.2c-2.5,1.9-5,3.8-7.5,5.7c-3.6,2.8-7.4,5.4-12.2,5.6
				c-0.5,0-0.9,0-1.1,0c-0.7-3-1.3-5.6-2-8.2c-0.7-2.6-2.5-3.9-5-4.2c-2.5-0.2-3.3-1.6-3.9-3.9c-1.4-5.2-3.4-10.2-5.1-15.2
				c-0.3-1-0.7-2-1-3c-0.6-2.5-0.4-2.9,1.8-4.2c2-1.1,3.6-2.6,4.5-4.7c0.9-2,1.1-4.1-0.1-6c-1.2-1.9-2.4-3.7-3.7-5.5
				c-1.7-2.3-1.8-2.6-0.2-4.9c0.3-0.5,0.7-0.9,1-1.4c2.1-3.9,1.8-5.6-1.6-8.5c-1.8-1.5-2.7-3.4-3-5.7c-0.2-1.4-0.4-2.8-0.7-4.1
				c-1.6-6.1-7.7-8.4-13.1-4.9c-0.3,0.2-0.6,0.3-0.9,0.4c-0.2-0.2-0.4-0.4-0.4-0.6c1.4-5.1,3.5-9.9,7.4-13.6c2-1.9,4.1-3.8,6.2-5.6
				c3.2-2.8,4.5-6.4,4.6-10.6c0.1-2.1,0-4.2,2.1-6c0.7,0.2,1.7,0.3,2.4,0.8c2,1.4,4,1.2,5.8-0.3c3-2.4,5.9-4.9,8.7-7.5
				c0.9-0.9,1.6-2.4,1.7-3.6c0.2-2.7-0.2-5.3-0.2-8c0-5.6-0.3-11.2,0.2-16.8c0.2-2.4,1.9-4.7,3.3-6.8c1.8-2.8,3.2-5.7,3.3-9.1
				c0.2-4-0.9-5.4-4.4-7.4c-9-5.2-19-8.2-28.5-12.2c-2.2-0.9-3.5-1.9-3.5-4.4c0-1.2-0.6-2.5-1.3-3.6c-1.8-2.8-2.7-5.9-3.7-9
				c-0.9-2.8-2.3-5.3-3.6-8c-1-2.3-1.1-3,0.8-4.6C-215.6,2319.5-216.3,2314.1-217.5,2308.9z M-374.7,2514.9
				c-2.3-2.7-2.2-6.1-2.7-9.2c-1-5.4-2.8-10.4-5.9-14.8c-2-2.8-4.8-5-7.5-7.2c-2.5-2.1-2.5-1.9-1.5-5.1c1.1-3.4,1.9-6.9,0.8-10.6
				c-1.5-5.2-4.9-7.9-9.9-9.2c-3.3-0.9-6.5-2.4-9.7-3.9c-1-0.5-1.9-1.8-2.2-2.9c-1.1-4.4-1.7-8.8-0.2-13.4c2.8-8.4,0.1-15.8-6-21.6
				c-4.1-3.9-9.6-5.7-15.4-5.6c-3.1,0.1-6.3,0.5-9.4,0.4c-7.6-0.3-15.1-1.3-22-4.8c-2.7-1.4-2.9-3.3-0.7-5.4c2.1-2,2.1-3.4-0.1-5.2
				c-0.8-0.7-1.6-1.3-2.8-2.1c0.8-0.8,1.5-1.5,2.2-2.2c1.9-2,1.9-4-0.3-5.6c-1.4-1-2.9-1.9-4.6-3c0.6-0.6,1-1.1,1.4-1.2
				c4.6-1.3,9.2-2.6,13.8-3.9c2.4-0.7,4.7-1.3,7.1-2c6.1-1.8,11.2,0.2,15.8,4.2c1,0.8,1.9,1.7,2.9,2.5c2,1.5,4.2,2,6.6,1.1
				c4.1-1.5,8.2-2.2,12.6-2.6c7.5-0.6,10.8-4.9,10.7-12.5c-0.1-7.3-1.3-14.3-4.9-20.8c-1.2-2.1-0.4-3.5,2-4c3.2-0.7,5.6,0.5,7.1,3.5
				c0.7,1.6,1.5,3.2,2.5,4.6c3.6,4.8,9,5.2,14.4,5.4c1,0,2.1-0.3,3.1-0.3c5.3,0.1,9.1-2.3,12-6.5c2.3-3.3,4.7-6.6,7.2-9.8
				c0.9-1.2,2.1-2.3,3.4-3c3.2-1.7,6.5-3.1,9.8-4.6c3.3-1.6,6.7-3.3,9.9-5.1c2.5-1.4,4.1-3.9,4.9-6.6c1.5-5.3,2.9-10.5,2.8-16.1
				c-0.1-4.3,2.5-7.4,6.5-9.1c0.7-0.3,1.6-0.5,2.4-0.4c6.9,0.9,12.8,3.9,17.9,8.8c3.6,3.5,6.9,7.2,9.9,11.3c1.6,2.2,3.9,3.9,6,5.8
				c3.1,2.8,6.2,5.6,9.3,8.5c3.8,3.5,9.2,4.3,13.8,2c1.1-0.6,2.3-1.1,4-1.9c0.3,1.9,0.8,3.3,0.7,4.7c-0.2,5.8,3.4,9.2,8.8,11.3
				c3.9,1.6,7.8,2.9,11.8,4.4c1.2,0.4,2.4,0.9,3.7,1.2c6.3,1.4,12.6,2.5,18.8,4c3.5,0.9,6.9,2.3,10.2,3.6c4.4,1.7,8.9,3.5,13.2,5.5
				c1.8,0.8,3.3,2,5,3c0.2,0.1,0.4,0.3,0.5,0.5c0.9,1.2,3.4,0.8,3.1,2.8c-0.3,2.1-0.5,4.7-1.7,6.3c-4.7,6.1-6.1,13-5.7,20.4
				c0.2,3.4,0.6,6.7,1.1,10.1c0.4,3.4-0.4,6.2-3.4,8.2c-0.6,0.4-1.1,0.9-1.5,1.4c-2.1,2.5-4.3,3.3-7.6,2.1c-4.3-1.4-6.6,0.5-7.4,5
				c-0.2,0.9-0.3,1.9-0.2,2.8c0.2,4.1-1.5,7.1-4.7,9.7c-2.3,1.9-4.5,4-6.7,6.1c-3.4,3.4-5,7.8-6.8,12.1c-1.5,3.7-2.4,7.5-3.1,11.4
				c-0.4,2,0.2,3.5,1.5,4.7c1.2,1.1,2.8,0.9,4.8-0.7c2.5-2,4.9-4.3,7.4-6.3c0.7-0.6,1.8-1.2,2.7-1.1c0.5,0,1,1.3,1.3,2.2
				c0.5,1.7,0.9,3.4,1.1,5.1c0.4,2.3,1.3,4.2,3.3,5.5c1.6,1.1,1.6,2.4,0.7,3.9c-0.4,0.7-0.9,1.3-1.4,2c-1.8,2.8-1.7,4.3,0.3,6.9
				c1.1,1.4,2.2,2.7,3.3,4.1c2.4,2.9,1.5,6.7-1.9,8.3c-0.1,0-0.2,0.1-0.3,0.1c-3.9,1.7-4.8,3.6-3.3,7.7c1.7,4.9,3.6,9.8,5.4,14.8
				c0.5,1.3,0.7,2.7,0.9,4.1c0.8,4.8,2.4,6.8,7.1,7.8c1.6,0.4,2.6,0.9,2.8,2.6c0.2,1.5-4.8,7.7-5.4,8.4c-2.6,2.9-5.1,5.8-7.8,8.5
				c-5.3,5.4-11.6,9.4-18.4,12.5c-3.9,1.8-7.8,0.6-10.6-2.8c-1.3-1.6-2.7-2.3-4.8-2.3c-1.3,0-2.8-0.4-3.9-1.1
				c-6.5-4.4-13.8-6.7-21.3-8.3c-1.8-0.4-3.7-0.7-5.5-0.9c-1.1-0.1-2.4-0.3-3.5,0c-5.7,1.6-10.9,4.3-14,9.6
				c-2.2,3.8-4.2,7.8-6.2,11.7c-0.7,1.4-0.8,3.1-1.3,4.7c-0.9,2.6-1.9,5.2-2.9,7.8c-0.5,1.4-1.7,1.9-3.1,1.7
				c-7.8-1.2-15.8-0.8-23.3-4.1c-4.9-2.1-10.2-3.3-15.4-4.7c-4.5-1.2-8.9-0.8-13.4,0.5c-4.6,1.3-9.3,2-14.1,0.3c-2.9-1-6.2-1-9.2-2
				c-4.9-1.7-9.3-4.2-13.3-7.5c-1.7-1.4-3.7-2.4-5.5-3.7c-1.8-1.4-3.7-2.9-5.2-4.5c-0.6-0.6-0.7-1.9-0.6-2.9
				c0.2-1.6,0.6-3.3,1.4-4.7c2.8-5.3,3.9-11.2,5.5-16.9c0.6-2.2,1.2-4.5,2-6.7c2.1-5.9,2.2-12.1,3.1-18.2c0.5-3.3,0.9-6.6,1.4-9.9
				c0.3-0.1,0.6-0.2,0.9-0.3c2,3.1,4.1,6.2,6.1,9.3c1,1.6,2,3.2,3,4.7c0.3,0.5,0.7,0.9,1.2,1.3c1.3,1,3,1.3,4.3,0.5
				C-373.4,2517.7-373.9,2515.8-374.7,2514.9z M-491,2329.7c3.6,1.7,7.4,2.4,11,0.1c2.5-1.6,5.3-3.1,7.4-5.2
				c3.4-3.3,7.3-4.4,11.8-3.9c1.7,0.2,3.5,0.4,5.2,0.7c2.6,0.6,4.8,0,7-1.4c1.2-0.7,2.8-1.2,4.2-1.3c3.4-0.3,6.8-0.5,10.1-0.3
				c3.2,0.2,6.6,0.3,9.6,1.4c8.3,2.9,16.6,3.5,25.1,1.3c4.6-1.2,9.1-1.7,13.8-0.7c1.8,0.4,3.7,0.2,5.6,0.4c2.9,0.4,5.8,0.7,8.6,1.4
				c4.3,1.1,8.6,1,12.7-0.4c6.8-2.4,13.8-3.1,21-2.3c0.3,0,0.6,0.3,1.1,0.6c-0.5,2.4-1.9,4.2-4,5.3c-2.4,1.2-4.8,2.4-7.2,3.5
				c-3.1,1.4-6.2,2.6-9.3,4.1c-1.5,0.8-2.9,1.9-4.2,3.1c-2.2,2-4.7,3-7.6,3c-7.2,0.1-14.5,0.1-21.7,0.2c-2,0-4,0.1-5.9,0.3
				c-2.4,0.2-4.6-0.4-6.8-0.9c-4.5-1-9.2-1.6-13.8-2c-5.9-0.5-11.8-0.6-17.8-1c-0.8,0-1.6-0.3-2.4-0.6c-5.2-2-10.4-1.7-15.8-0.2
				c-7,1.9-14,3.4-21.4,1.8c-7.2-1.5-14.5-2.8-22.4-0.2c0-2.5,0.1-4.2,0-5.9c-0.2-4.1-0.4-8.1-0.5-12.2c-0.1-1.7-0.2-3.5-0.1-5.2
				c0-3.4,0.5-4.1,3.9-4.5c2.8-0.3,5.9-1.6,8.3,2c-0.9,0.6-1.7,1.3-2.6,1.9c-3.9,3.1-6.5,6.8-6.5,12.1
				C-494.4,2327.2-493.1,2328.8-491,2329.7z M-334.8,2291.8c2.1-0.4,4.4-0.3,6.6-0.2c0.5,0,0.9,0.5,1.6,1c-0.8,0.9-1.4,1.5-2.1,2.1
				c-3,2.6-4.3,5.9-4.4,9.9c0,2.4-0.6,4.8-0.9,7.2c-0.2,1.2-0.9,1.8-2.2,1.8c-2.2,0-4.4,0.3-6.6,0.3c-5.6-0.1-11.2,0.5-16.5,2.5
				c-4.5,1.6-9.1,1.2-13.8,0.4c-6.1-1-12.2-1.5-18.4-2.2c-0.6-0.1-1.2,0-1.7,0.1c-3.9,0.7-7.8,1.3-11.7,2.1
				c-5.9,1.2-11.7,0.8-17.2-1.2c-5.3-1.9-10.5-2.8-16.1-2.1c-1.8,0.2-3.7-0.1-5.5-0.2c0.1-3.8,1.5-5.2,5.2-5.1
				c3.6,0.1,7.2,0.4,10.8,0.7c6.4,0.5,12.8,1,19.2,1.4c4.7,0.3,9-1.4,12.7-4.2c3.4-2.5,6.8-2.6,10.6-1.6c3,0.8,6.1,1.5,9.3,1.7
				c6.3,0.5,11.9-1.8,17.3-4.6C-351,2297.7-343.3,2293.6-334.8,2291.8z M-342.3,2276c0.2-0.3,0.2-0.6,0.4-0.7
				c5.4-1.3,10.8-1.9,16,0.5c4.9,2.3,10.1,1.8,15.1,0.9c5.5-1,10.8-0.9,16.8,0.4c-0.6,0.9-0.9,1.4-1.3,1.7c-3.7,2.5-7.5,5-11.8,6.6
				c-2.2,0.8-4.2,1.9-6,2.7c-2.5-0.2-4.9-0.4-7.2-0.6c-1.6-0.1-3.2-0.3-4.8-0.6c-3-0.5-6.1-1.1-9.4-1.8c-0.9-1.3-2.1-3.1-3.5-4.8
				C-339.4,2278.8-341.8,2278.3-342.3,2276z M-370,2345.1c-0.5,3.2-3,6.5-5.6,7.2c-3.8,1-7.7,1.7-11.7,0.4c-3.5-1.2-5-3.2-4.8-7.6
				C-384.6,2343.8-377.3,2345.4-370,2345.1z M-410.9,2351.5c1.2,2.6,1.8,5.5,2.7,8.3c-2.2,1.2-4.2,1.1-6.1,0.7
				c-4.8-0.9-9.4-0.4-14.2,0.5c-7.2,1.3-14.5,1.1-21.4-1.6c-4.5-1.8-9-2.2-13.7-1c-2.6,0.7-5.2,1.3-7.8,1.9c-3.5,0.8-6.8,0.8-10.1-1
				c-3.3-1.8-7.1-1-10.6-0.8c-1.5,0-3,0.4-4.8,0.7c-0.2-1.7-0.4-3.1-0.5-4.6c-0.2-2.8-0.3-5.6-0.4-8.4c-0.1-2.7,0.4-3.3,2.9-4
				c5.2-1.5,10.3-2,15.8-0.8c8.9,1.9,17.8,2,26.6-1.1c3.8-1.4,7.8-1,11.8-1c0.8,0,1.6,0.3,2.3,0.6c3.7,1.6,7.6,2.1,11.6,2.1
				c3.6,0,7.2,0.1,10.8,0.1c0.8,0,1.6,0.3,2.7,0.5C-413.9,2346-412.1,2348.6-410.9,2351.5z M-493.7,2303.2c-3.2,0.5-3.4,0.2-3.7-2.9
				c-0.3-2.4-0.7-4.8-0.9-7.3c-0.1-1,0-2,0-3.4c4.4-0.4,8.5-1.4,12.8-0.2c3.5,1,7.3,1.2,11.6,1.8c-0.4,1.2-0.9,2.2-1.2,3.2
				c-0.6,2.2-1.1,4.5-1.6,6.8c-1,4.5-4.6,6.2-8.3,3.6C-487.8,2303-490.6,2302.7-493.7,2303.2z M-498.2,2376.8
				c0.1-2.3,0.8-4.6,0.9-6.9c0.2-2.9,0.6-5.4,4.4-5.1c2.1-2.1,4.5-0.9,6.8-0.8c2.4,0,4.5,0.6,6.7,1.5c3.4,1.4,7,1.3,10.6,0.4
				c3.2-0.8,6.3-1.7,9.5-2.3c2.8-0.6,5.3-0.1,8.1,0.9c4.3,1.4,8.8,2.2,13.3,2.6c5.2,0.4,10.5,0.1,15.6-1.4c1.4-0.4,3-0.3,4.5-0.2
				c2.5,0.2,5.1,0.7,7.6,0.9c1.6,0.1,2.2,0.9,2.4,2.4c0.3,3.5-1.7,6.8-5,7.9c-1.4,0.5-3,0.5-4.4,0.8c-3.2,0.6-6.4,1.2-9.5,2
				c-1.4,0.4-2.5,0.4-3.6-0.5c-0.4-0.3-0.8-0.5-1.1-0.9c-6.4-7.3-14.6-7.5-23.2-5.5c-7,1.7-13.9,3.9-20.8,5.9
				c-1.7,0.5-3.3,0.9-4.3,2.6c-0.9,1.5-1,3,0.4,4c1.7,1.3,3.6,2.4,6,3.9c-3.7,1.6-7.1,2.6-10.8,1.9c-3.8-0.8-7.6-0.8-11.5-0.3
				c-2.4,0.3-2.9,0-3-2.6C-498.6,2384.2-498.5,2380.5-498.2,2376.8z M-473.9,2405.2c1.7,2.5,3.8,4.6,6.7,5.9
				c7.9,3.4,16.2,4.9,24.8,5.2c6,0.2,11.1,2.8,15.9,7.1c-2.2,0.9-3.8,0.6-5.4-0.1c-6.9-3.3-13.8-2.7-20.8-0.4
				c-1.5,0.5-3.1,0.9-4.7,1.1c-3.6,0.4-7,0.2-10.4-2c-3.7-2.4-7.9-3.1-12.3-1c-3.2,1.5-6.6,1-10,0.5c-0.7-0.1-1.5-0.4-1.8-0.9
				c-1.1-1.4-2.4-2.1-4.1-2.3c-1.4-0.2-1.9-1.1-1.9-2.5c0.1-1.9,0.3-3.7,0.4-5.6c0-3.5,0-7-0.1-10.5c0-2.4,0.2-2.8,2.6-3.3
				c3.9-0.8,7.8-1,11.8,0c1.4,0.4,3,0.5,4.5,0.3c2.4-0.3,4.3,0.4,6.2,1.9c-0.3,0.4-0.6,0.8-0.8,1.1
				C-475.1,2401.7-475.4,2403.1-473.9,2405.2z M-422.5,2429.2c2.2-0.4,3,0.4,3,2.7c0,1.3-0.3,2.5-0.3,3.8c-0.2,3.2-0.3,6.5-0.4,9.7
				c0,0.7-0.2,1.3-0.3,1.9c-0.3,0.2-0.4,0.3-0.5,0.3c-5.6-1.1-11.1-0.1-16.6,0.8c-1.9,0.3-4.2-0.3-6.1-0.9c-3-0.9-5.9-2.3-8.9-3.2
				c-6-1.7-12.1-1.7-17.9,0.3c-5.4,1.8-10.4,1.2-15.3-0.9c-3.9-1.6-7.6-3.6-11.9-1.7c-1.1-3-1.1-14.3-0.1-18.2
				c1.7-0.6,3.2-0.6,4.4,0.5c3.7,3.3,8.1,3.1,12.5,2.5c1.3-0.1,2.5-0.6,3.7-1c3.5-1.2,6.8-0.7,9.7,1.3c3.9,2.8,7.9,3.1,12.3,2
				c2.6-0.7,5.2-1.2,7.8-2c4.8-1.5,9.4-1.3,14,0.6C-429.9,2429.1-426.4,2430-422.5,2429.2z M-497.1,2447.5c2.9-1.1,5.8-1.4,8.8-0.1
				c2.7,1.2,5.6,2.2,8.5,3s5.9,0.9,8.9-0.2c6.8-2.4,13.7-2.5,20.7-0.7c1.9,0.5,3.8,1.2,5.5,2.2c3,1.7,6.3,1.7,9.5,1.4
				c1.9-0.1,3.7-0.5,5.5-0.7c4.8-0.6,9.2-0.1,13,3.5c3.6,3.5,8.4,5,13.1,6.4c5.6,1.6,7.1,3.7,6.3,10c-0.8,0-1.7,0.1-2.6,0
				c-5.5-0.9-10.9-1.1-16.3,0.1c-2.6,0.6-5,0-7.5-1.1c-9.1-4-18.7-5.5-28.3-3c-5.1,1.3-10,2.3-15.1,1.6c-3.7-0.5-7.3-1.3-10.9-2.2
				c-6.1-1.6-12.1-2.2-18.3-0.4c-0.5,0.1-1.1,0-1.6,0c-0.2-0.3-0.4-0.5-0.4-0.7c-0.1-5.6-0.2-11.2-0.3-16.8
				C-498.9,2448.6-498.3,2447.9-497.1,2447.5z M-152.5,2575.5c-0.5,1.4-0.8,2.9-1.3,4.4c-1.4,3.7-2.9,4.4-6.7,3.9
				c-2.3-0.3-4.6-0.2-6.9-0.3c-5.9-0.3-11.9-0.3-17.8-0.8c-5.1-0.4-10.1-0.6-15.3,0.7c-5.1,1.3-10.6,1-15.5-0.7
				c-6.4-2.2-12.6-1.9-18.9-0.1c-4.7,1.3-9.3,2.9-14,4.4c-9.6,3-19.2,3.3-28.9,0.6c-3.8-1.1-7.6-1.1-11.4-0.7c-1.1,0.1-2.2,0-3.7,0
				c0.8-3.6,1.6-6.8,2.3-10.1c0.4-1.9,1.5-2.7,3.5-2.6c3.9,0.2,7.6-0.8,11.2-2.2c4.1-1.7,8.3-2.2,12.6-0.3
				c5.3,2.3,10.7,2.3,15.9-0.5c3.8-2.1,7.4-1.6,10.9,0.3c4,2.2,8,2.7,12.5,1.8c3.1-0.6,5.5-2.5,8.1-4c2.9-1.7,5.5-3.8,8.3-5.8
				c3.2-2.3,7-3.1,10.8-3.7c1.4-0.2,3.1,0.3,4.3,1c6.1,3.4,12.3,2.9,18.6,0.7c2.3-0.8,4.6-1.6,6.9-2.4c4-1.4,7.8-0.7,11.6,0.8
				c4.8,1.9,9.7,3.1,15.7,2.6c0,2.4,0,4.4,0,6.3c0,4.2,0,8.4,0.1,12.6c0,2.3-0.3,2.8-2,2.9c-1.8,0.2-2.3-0.3-2.7-2.3
				c-0.3-1.4-0.2-2.8-0.7-4.1c-0.5-1.4-1.3-2.8-2.4-3.7C-149.5,2572.3-151.6,2573-152.5,2575.5z M-148.1,2590.9
				c0,6.7-1.1,13.1-5.2,18.8c-1.7,2.3-2.9,5-3.1,8c0,0.6-0.4,1.3-0.6,1.9c-4.3-1-5.3-2.1-5.4-6c-0.2-3.7-0.5-7.4-0.4-11.2
				c0.1-2.4,0.5-4.9,1.2-7.2c1-3.3,2.9-5.7,6.7-6.2c1.7-0.2,3.3-1.5,5.2-2.3C-147.9,2587.8-148.1,2589.4-148.1,2590.9z
				 M-168.5,2610.6c-4.2,0.3-8.1,0.4-12.1,0.8c-3.9,0.4-7.9,0.7-11.8,1.5c-7.6,1.5-15,1-22.5-0.7c-4.7-1.1-9.6-1.6-14.6-1.2
				c-7.4,0.6-14.5,2.3-21.7,3.8c-2.4,0.5-4.9,0.6-7.3,0.6c-8.9-0.1-17.6-1.6-26.3-3.6c-3.1-0.7-6.2-1.2-9.3-0.4
				c-0.9,0.2-1.8,0-3.1,0c0.5-1.4,0.7-2.5,1.3-3.5c1.8-3,1.8-6.2,0.9-9.5c-0.8-2.7-0.6-2.8,0.4-5.2c6.9-2,13.8-2.1,20.6,0.3
				c1.8,0.7,3.9,0.8,5.8,0.9c9.7,0.5,19-1.4,28-4.9c5.1-2,10.4-3.4,16-3.3c1.7,0,3.5,0.2,5.1,0.8c5.3,2,10.7,2.2,16.2,2.2
				c0.5,0,1,0,1.4-0.1c7.7-2.7,15.5-1.2,23.2-0.4c3.5,0.4,6.9,0.9,10.4-0.1c0.3-0.1,0.6,0.1,1,0.2c-0.6,3.7-1.5,7.3-1.8,10.9
				C-168.7,2603.2-168.5,2606.8-168.5,2610.6z M-286.2,2568.3c1.6-3.4,3.6-6.3,6.6-8.1c4.9-2.9,10.1-3,15.4-1.2
				c3.6,1.2,7.2,2.4,10.8,3.8c1.4,0.5,2.6,1.3,4.2,2.1c-2.6,2.9-5.6,3.3-8.8,3.1c-1.7-0.1-3.4-0.6-5-1.3c-4.9-2.1-9.7-1.9-14.6,0.1
				C-280.2,2567.8-282.7,2569.2-286.2,2568.3z M-145.9,2609.6c2.8-5.2,3-10.9,3.4-16.5c0-0.8-0.2-1.7,0.1-2.4
				c0.3-0.6,1.1-1.3,1.7-1.3c0.6,0,1.6,0.7,1.7,1.2c0.8,7,2,14,1.1,21.7c-3.1,0.2-5.9,0.5-9.3,0.7
				C-146.7,2611.4-146.4,2610.5-145.9,2609.6z M-139.6,2555.7c-4.4,1.9-8.6,1.1-12.8-0.1c-1.8-0.5-3.5-1.1-5.3-1.7
				c-5.2-1.8-10.1-0.6-15,1.2c-3.1,1.1-6.2,2-9.4,2.9c-2.6,0.7-5,0.4-7.4-0.9c-2.3-1.3-4.8-2.3-7.4-3.5c0.6-0.8,1.1-1.5,1.6-2.3
				c1.1-1.6,2.5-2.1,4.5-1.6c4.2,1,8.4,0.6,12.3-1.3c2.9-1.4,5.5-3.4,8.2-5.3c2.1-1.4,4.2-2.9,6.1-4.6c2.9-2.6,6.5-3.1,10.1-3.2
				c3.8-0.2,7.7,0.1,11.5,0.1c1.7,0,2.6,0.5,2.8,2.3C-139.1,2543.6-139.1,2549.7-139.6,2555.7z M-297.8,2617.5
				c6.6-2.4,13.2-1.2,19.6,0.4c7.1,1.7,14.3,2.4,21.5,2.6c3.4,0.1,7-0.5,10.3-1.4c8.4-2.1,16.9-3.5,25.6-3.2c3.3,0.1,6.7,1,10,1.7
				c6,1.4,12.1,1.2,18.1,0.1c7.6-1.5,15.3-1.4,23-1.8c1.4-0.1,2.5,0.4,3.1,1.7c1.8,3.8,5.7,5,9.1,6.6c2.8,1.3,6.7,0,7-3.9
				c0-0.6,0.2-1.1,0.4-1.7c4-0.3,7.9-0.7,12-1c0.7,2.8,1.4,5.4,0.7,8.3c-0.5,2-0.5,4.1-0.6,6.2c-0.1,2.6-0.1,2.6-2.6,3.1
				c-6.2,1.3-12.3,0.2-18.5,0.2c-7.8,0-15.6-0.3-23.4-0.3c-20.1,0-40.1,0.1-60.2,0.2c-9.8,0-19.6-0.5-29.4,0.2
				c-11.1,0.8-22.1-0.7-33.2-0.4c-2.4,0.1-2.8-0.4-3.3-2.7c-0.6-3.6-0.4-7,2.5-9.7c0.5-0.5,0.9-1,1.4-1.6
				C-302.9,2619.1-301.1,2616.9-297.8,2617.5z M-218.2,2349.5c-0.2,0.3-0.4,0.5-0.6,0.8c-3.5-0.7-6.9-1.4-10-2
				c-3.2-6.5-1.9-12.1,2.5-17.5c2.6,2.6,2.8,6.2,4.1,9.3C-220.9,2343.2-219.6,2346.4-218.2,2349.5z M-224.3,2319.8
				c-1.3,1.5-2.7,2.9-3.9,4.5c-1.5,2-3,4.1-4.4,6.2c-3,4.6-3.5,9.5-2.1,14.7c0.1,0.3,0,0.7-0.1,1.5c-1.2-0.3-2.3-0.6-3.3-0.9
				c-3.1-1.2-6.2-2.7-9.4-3.7c-2.7-0.8-3.8-2.5-3.9-5.1c-0.1-1.6,0-3.3-0.1-4.9c-0.6-5.9-4.5-7.6-9.7-5.7c-0.7,0.2-1.2,0.7-1.9,0.9
				c-4.3,1.9-8.2,1.9-11.7-2c-2.8-3.1-6.3-5.5-9.2-8.5c-2.1-2-3.8-4.4-5.6-6.7c-5.2-6.5-11.2-12.1-18.9-15.6
				c-0.5-0.2-0.9-0.6-2.1-1.5c2.2-1.4,3.8-2.8,5.5-3.3c5.1-1.4,9.2-4.4,13.5-7.1c2.8-1.7,2.9-1.9,5.4,0.5c3.1,2.8,6.5,4.9,10.4,6.1
				c5.2,1.6,10.3,1.5,15.5-0.1c3.2-1,6.5-1.9,9.7-2.9c0.6-0.2,1.1-0.3,1.7-0.4c7.9-0.7,9.7-0.6,12.2,8.2c1.6,5.6,3.8,10.7,7.9,14.9
				c1.7,1.7,3.2,3.7,4.6,5.6C-222.3,2317.1-222.4,2317.5-224.3,2319.8z M-271.4,2259.8c0.6-0.5,0.9-1.4,1.5-1.9c1.9-2.1,4-3.8,7.1-4
				c10.5-0.6,21-1.4,31.4-2c3.2-0.2,3.3,0,4.4,3.2c2.7,8,2.4,16.3,2.2,24.6c-0.1,4-0.9,7.9-0.8,11.8c0.1,4.2,0.9,8.3,1.4,12.5
				c0.1,0.8,0.3,1.6,0.6,3.2c-3.2-2.6-4.8-5.2-5.9-8.3c-1.3-3.6-2.5-7.2-4-10.8c-1.8-4.4-5.5-6.1-9.9-6.7c-5-0.7-9.8,0.5-14.5,1.7
				c-2.2,0.6-4.4,1.6-6.6,2.2c-5.9,1.7-11.3,0.7-16.3-2.8c-1.7-1.2-3.2-2.7-5-4.2c1.2-1.8,2.1-3.7,3.4-5.3
				C-278.8,2268.5-276,2263.4-271.4,2259.8z M-275.3,2254.3c0.1,0.3,0.3,0.6,0.4,0.9c-0.7,0.9-1.3,1.9-2.1,2.7
				c-1.2,1.3-2.7,1.7-4.4,0.8c-4.1-2.3-8.3-2.3-12.8-1.6c-5.7,0.9-11.6,1.1-17.4,1.2c-2.7,0-5.4-1-8.1-1.7c-2.9-0.8-5.6-1.9-9.2-3.1
				C-310.6,2253.3-292.9,2253.4-275.3,2254.3z M-338.2,2261c0.3-0.4,1.2-0.5,1.9-0.5c2.4-0.2,4.9-0.1,7.3-0.4c3-0.4,5.9-0.3,8.5,1.1
				c6,3.1,12.3,2.9,18.8,2.4c4.5-0.4,9-0.9,13.6-1.2c1.7-0.1,3.5-0.1,5.5,1.8c-1.7,2.2-3.1,4.4-4.9,6.4c-0.6,0.7-2.1,0.9-3.2,0.9
				c-2.7-0.1-5.3-0.4-8-0.7c-4-0.5-7.9-0.5-11.8,0.4c-2.6,0.6-5.3,0.6-8,0.8c-3.1,0.2-6-0.2-8.8-1.5c-3.2-1.6-6.8-1.5-10.3-1.4
				c-1.4,0-2.8,0-4.3,0C-342.2,2265.4-340,2263.2-338.2,2261z M-483.2,2252c0.1-1.8,1.1-2.3,2.8-2.4c4.1-0.4,8.1-1,12.1-1.4
				c1.7-0.2,3.6-0.4,5.2,0.1c5.2,1.3,10.4,1.3,15.7,1.1c11.7-0.4,23.3,1.1,34.9,2.3c9.2,1,18.4,1.3,27.6,1.2
				c11.7-0.1,23.3,0.1,35,0.2c3.1,0,6.2,0.1,9.3,0.2c0.2,0.3,0.3,0.6,0.5,0.9c-1.2,1.6-2.4,3.4-3.8,4.9c-3.4,3.5-4.9,7.8-5.4,12.6
				c-0.3,2.5,0.7,4.6,2.5,6.3c1.4,1.4,2.9,2.7,4.4,4c1.4,1.3,1.7,2.7,0.5,4.3c-0.7,0.9-1.6,1.9-2.5,2.3c-8.5,4.1-17,8.2-25.6,12.1
				c-3.4,1.6-7,1.5-10.6,0.7c-2-0.5-4.1-0.9-6.1-1.5c-4.6-1.4-8.6-0.6-12.5,2.2c-4.2,3.1-9,4.2-14.2,3.8c-8.1-0.7-16.3-1.3-24.4-1.9
				c-1.5-0.1-3,0.1-4.5,0.2c-4.2,0.3-6.5,2.7-7.5,6.6c-0.4,1.6-1.1,3.1-1.7,4.6c-0.7,1.6-1.9,2.3-3.6,2.1s-3.5-0.4-5.2-0.7
				c-4.9-0.9-9.6-0.2-13.8,2.5c-2.4,1.5-4.4,3.7-6.8,5.4c-1.3,0.9-2.9,1.6-4.4,1.9c-1.8,0.4-2.6-0.5-2.5-2.4c0.3-4,2.3-7,5.5-9.4
				c2.6-1.9,5.2-3.9,7.8-5.8c2.5-1.8,3.4-4.3,4-7.1c0.5-2.3,1.2-4.5,1.9-6.7c0.5-1.4,1.5-2.3,3-2.6c6.4-1.3,12.7-2.7,19.2-3.8
				c4.6-0.8,6.7-4.4,4.8-8.7c-1.7-3.9-4.6-6.4-8.7-7.4c-4.7-1.2-9.5-2.3-14.2-3.8c-3.1-1-6.2-1.6-9.4-1.9c-5.4-0.5-9-4.9-9.2-10.5
				C-483.5,2255-483.3,2253.5-483.2,2252z M-489.7,2249.3c0,2.5,0,4.2,0,6.5c-2.6-1.5-5.7-1.3-6.9-5
				C-494.3,2250.3-492.2,2249.9-489.7,2249.3z M-496.8,2259.6c1.5-0.7,3-0.7,4.3,0.3c2.6,1.9,5.9,3.1,7.8,6c0.7,1.1,2,1.9,3.4,3.1
				c-3.4,1.4-5.5-1.4-8.1-1.3c-2.6,0.1-5.3,0.4-8.4,0.7c-0.2-1.6-0.4-3.4-0.5-5.1C-498.3,2261.8-498.5,2260.3-496.8,2259.6z
				 M-498.9,2280.9c0.1-1.5,0.3-3,0.5-4.5c0.3-2.9,0.4-3,3.4-3.3c1.7-0.2,3.5-0.4,5.2-0.5c1,0,2.1,0.1,3,0.6c4.4,2.2,9,2.2,13.5,0.7
				c3.1-1,6.2-1.1,9.3-0.5c4.1,0.8,8.1,2,12.2,2.9c2,0.5,3.6,1.6,4.6,3.5c1.1,2.3,0.2,4.6-2.3,5.2c-3.5,0.8-7.1,1.4-10.6,2.2
				c-1.7,0.3-3.1,0-4.6-1c-2.6-1.8-5.4-2.4-8.6-1.7c-4.6,1-9.1,1.3-13.8-0.4c-3.6-1.3-7.6-1.4-11.8,1.8
				C-498.9,2283.5-499,2282.2-498.9,2280.9z M-499.2,2476.1c0-1.8,0.9-2.6,2.6-3.1c6.4-2.1,12.8-1.8,19.3-0.2
				c4.3,1,8.7,1.7,13.1,2.2c4.3,0.5,8.6,0,12.8-1.2c9.5-2.6,18.8-1.1,27.7,2.5c3.1,1.2,6,1.4,9.2,1.1c4.4-0.4,8.8-0.1,13.2-0.1
				c1.6,0,2.3,1,2.4,2.4c0,2.9,1.6,4.6,3.9,6.2c4.3,2.9,7.8,6.5,8.8,11c-1.7-1.4-3.8-3.2-6-5c-0.6-0.5-1.4-0.9-2.1-1
				c-4.2-0.1-8.4-0.3-12.5,0c-3,0.2-6,0.9-8.9,1.9c-2.8,1-5.4,1-8.2,0.1c-1.4-0.5-2.9-0.9-4.3-1.5c-7-2.7-14.1-2.5-21.3-0.8
				c-6.2,1.5-12.4,1.9-18.6-0.3c-3.3-1.1-6.8-1.6-10.2-2.4c-3.2-0.8-6.2,0.2-9.3,0.7c-3,0.5-6,0.8-9,0.9c-2.2,0.1-2.7-0.5-2.7-2.7
				C-499.4,2483.3-499.2,2479.7-499.2,2476.1z M-499.3,2499.2c0-1.3,0.1-2.5,0.2-3.8c0.8-0.2,1.3-0.6,1.9-0.5
				c4,0.4,7.9-0.1,11.8-1.2c4.5-1.3,8.8-0.4,13.1,0.7c3.6,0.9,7.2,2,10.8,2.7c4.4,0.8,8.8,0,13.2-1c5.8-1.4,11.7-2.2,17.6-0.7
				c2.6,0.7,5.1,1.6,7.6,2.6c2.2,0.9,4.3,1,6.5,0.5c0.9-0.2,1.8-0.3,2.7-0.6c5.6-1.4,11.2-2.6,17.1-0.1c0.6,6.3-0.4,12.5-1.4,18.8
				c-0.7,0.1-1.2,0.3-1.8,0.3c-4.7,0.1-9.3,0.1-14,0.1c-1.8,0-3.7-0.1-5.5-0.6c-4.3-1.1-8.5-2.7-12.8-3.6c-4.8-1.1-9.6-0.8-14.5,0.4
				c-5.2,1.3-10.5,2.3-15.8,2.6c-3,0.2-6.1-1.3-9.1-2.1s-6-2-9.1-2.5c-1.8-0.3-3.7,0-5.5,0.3c-2.8,0.5-5.5,1.2-8.2,1.8
				c-3.8,0.8-5.2-0.6-5-4.4C-499.3,2505.5-499.4,2502.3-499.3,2499.2z M-499.1,2517.8c4.8,1.5,8.9-0.2,13-1.2c3-0.8,6-0.7,9,0.2
				c2.9,0.9,5.8,1.8,8.6,2.8c3.4,1.2,6.8,1.7,10.3,1.1c3.7-0.6,7.5-0.9,11-2.1c7.1-2.4,14-1.5,20.9,0.6c3.2,1,6.5,2,9.7,2.7
				c1.4,0.3,3,0.2,4.5,0c5.2-0.7,9.4-0.4,13.5,1.4c-1.5,4.9-3,9.6-4.4,14.5c-0.7,0-1.5,0.3-2.1,0.1c-3.8-1.2-7.6-0.5-11.4-0.1
				c-6.1,0.6-12,0.4-17.8-2c-2.2-0.9-4.8-1-7.2-1c-3.6,0.1-7.2,0.6-10.8,1.2c-5,0.8-10,0.9-14.9,0c-3.6-0.6-7.1-1.1-10.7-1.7
				c-3.8-0.7-7.4,0.7-11,1.4c-3.5,0.7-6.9,0.7-10.5-0.2C-500.2,2529.7-499.5,2523.9-499.1,2517.8z M-499.7,2540.2
				c5.5,2,10.2,1.8,14.8,0.1c3.7-1.3,7.4-1,11-0.1c7.1,1.7,14.3,2.2,21.5,1.4c1.8-0.2,3.7-0.6,5.5-0.9c4.3-0.8,8.5-1.3,12.7,0.5
				c7,3,14.3,2.5,21.7,1.7c2.4-0.3,4.9-0.3,7.5,1.1c-0.3,1.4-0.3,2.9-0.8,4.3c-0.9,2.4-2,4.7-3,7.1c-0.6,1.3-1.6,1.8-2.8,1.1
				c-1.8-1-3.5-0.5-5.4-0.4c-5.4,0.3-10.8,0.6-16.3-0.8c-4.9-1.3-10.1-1.2-15.3-1.4c-2.9-0.1-5.8,0-8.7,0.4
				c-1.8,0.2-3.5,1.1-5.2,1.7c-1.4,0.4-2.9,1.2-4.3,1.1c-4.7-0.4-9.6-0.6-14.1-2.3c-4.4-1.7-8.9-2.8-13.6-2.9
				c-0.8,0-1.6-0.1-2.4-0.3c-2.4-0.7-2.7-1.2-2.8-3.7C-499.7,2545.4-499.7,2543.1-499.7,2540.2z M-498.9,2556.7
				c0.5-0.2,0.7-0.4,0.9-0.4c8.2,1.3,16.2,3,24.2,5.1c3.8,1,7.8,0.9,11.8,1.2c0.8,0.1,1.7-0.1,2.3-0.6c2.5-1.7,5.2-1.8,8-2
				c6.3-0.4,12.5-0.4,18.8,0.7c6.1,1.1,12.3,1.6,18.4,0.5c1.3-0.2,2.3,0.2,3.5,1c5.1,3.4,8.8,8.6,14.8,10.9c0.9,0.4,1.8,1.1,2.5,1.8
				c4.5,4,10,6.2,15.4,8.7c4.4,2,9.1,1.9,13.6,2.9c2.8,0.7,6.1,0.2,9-0.6c7-2.1,13.8-1.6,20.6,0.7c5,1.7,9.9,3.4,14.9,5
				c1.5,0.5,3.2,0.8,4.8,1c3.9,0.6,7.9,0.9,11.8,1.6c3.3,0.6,5.4,4.1,4.1,7.2c-1.6,3.9-2.6,8-5.5,11.2c-1.2,1.4-2.4,2.9-3.8,4.1
				c-4.1,3.8-5.9,8.2-4.7,13.8c0.1,0.6,0.2,1.2,0.2,1.7c0,2.1-0.6,2.7-2.6,2.9c-1.7,0.2-3.5,0.3-5.2,0.2c-6.9-0.2-13.8-0.4-20.6-0.6
				c-1.5,0-3-0.1-4.5-0.1c-20.3,0.3-40.6,0.6-60.9,0.8c-15,0.1-30.1-0.1-45.1-0.1c-8.5,0-17,0-25.5-0.1c-0.6,0-1.2,0.1-1.7-0.1
				c-5.1-1.1-10.2-1.2-15.3-0.5c-0.7,0.1-1.6-0.2-2.3-0.3C-500.4,2608.4-499.7,2582.5-498.9,2556.7z M-497.4,2660.2
				c0-4.6,0-9,0-13.4c0-1.4,1-2,2.3-2.1c3.3-0.2,6.5-0.3,9.8-0.5c4.8-0.2,9.5-0.5,14.3-0.6c7-0.1,14,0,21,0c1.2,0,2.3,0.1,3.5,0.3
				c6.3,0.9,12.6-0.6,18.8-0.6c11.1,0,22.2-0.2,33.2-0.2c14.2,0.1,28.4,0.1,42.7,0.5c8.6,0.2,17.2,1.2,25.9,1.5
				c5.2,0.2,10.5,0,15.7-0.1c10.1-0.2,20.3-0.5,30.4-0.8c9-0.3,17.9-0.7,26.9-0.9c7.7-0.2,15.4-0.1,23.1-0.2
				c11.9-0.1,23.8-0.2,35.7-0.2c12.4,0,24.7,0.4,37.1,0.3c7.9-0.1,15.8-0.6,23.7-1c0.9,0,1.8-0.5,2.7-0.7c2.4-0.5,4.7-1.2,7.2-1.5
				c4.7-0.6,9.1,0.1,12.6,3.7c1.9,1.9,4.3,2.7,7,2.7c0.2,0,0.5,0,0.7,0c6,0.9,11.7,0.2,17.3-2.5c6.8-3.2,13.7-3,20.6,0.2
				c5.2,2.4,10.7,3.3,16.4,1.9c2.1-0.5,3.8-0.2,5.7,0.8c4,2.1,8.2,3.5,12.9,3.8c5.9,0.3,10.4,3.6,14.4,7.7c3.3,3.4,7.4,5.8,11.8,7.4
				c5.3,1.9,10.4,0.6,15-2.2c1.8-1.1,3.3-2.6,4.9-3.9c1-0.8,2-1.7,3-2.4c3.6-2.3,7-2.8,11,0c4.3,3,9,5.3,13.6,7.7
				c1.3,0.7,2.9,0.9,4.3,1.2c1.2,0.3,2.4,0.5,3.7,1.3c-0.5,0.3-1,0.7-1.6,0.8c-5.9,1.2-11,0.2-15.1-4.7c-1.2-1.5-3.1-2.5-4.9-3.3
				c-3.3-1.7-6.3-0.7-8.7,2.1c-4.9,5.9-10.8,9.4-18.7,10.3c-8.4,0.9-15.9-1.8-23.6-4c-3.1-0.9-5.8-3.3-8.8-5c-5-2.8-10.2-4.3-16.1-3
				c-3.4,0.7-7,0.6-10.2,2.1c-1.3,0.6-10.2,1.4-11.8,1.3c-0.9-0.1-1.9-0.1-2.8,0c-3.5,0.3-6.7-0.6-9.8-2c-3.1-1.3-6.1-1.9-9.5-1
				c-4.7,1.2-9.5,2.3-14.4,3c-5.8,0.8-11.6,1.1-17.4-0.5c-5.2-1.4-10.4-2.9-15.6-3.6c-7.3-1.1-14.5,0.4-21.1,3.4
				c-5.3,2.4-10.7,3-16.4,2.9c-8.2-0.2-16.2-1.6-24.1-3.9c-3.2-0.9-6.6-1.5-9.9-2c-5.1-0.8-10,0.3-14.8,1.7
				c-4.9,1.5-9.8,3.2-14.6,4.8c-6.2,2.1-12.6,2.3-19,0.9c-5-1.1-9.9-2.4-14.6-4.5c-5.9-2.7-12.3-2.4-18.6-1.3
				c-5.5,1-10.9,2.3-16.4,3.4c-7.6,1.7-15.2,2.2-23,2c-7.1-0.2-13.6-2.3-19.2-6.5c-6.2-4.6-12.7-3.7-19.4-1.8
				c-4.7,1.3-9.4,2.7-14.2,3.7c-3.2,0.6-6.4,0.4-9.4-1.4c-1.6-0.9-3.8-1.2-5.7-1.1c-7.9,0.3-15.8,1.1-23.4,3.9
				c-6.6,2.4-13.6,3-20.7,2.6c-8.2-0.5-16.3-1.5-24.1-3.7c-2.6-0.7-5-1.8-7.4-2.9c-6.3-2.6-12.6-3.4-19.1-0.8
				c-1.1,0.4-2.2,0.8-3.3,1.1C-496,2660.4-496.4,2660.3-497.4,2660.2z M-496.9,2689.3c0-6.2,0-12.4,0.1-18.5c0-4.5,0-4.1,3.3-5.1
				c2.7-0.8,5.3-1.8,8-2.4c4.1-0.9,8.1,0.3,11.9,1.7c1.3,0.5,2.5,1.2,3.8,1.7c2.8,1,5.6,2.2,8.6,2.9c11,2.6,22.2,3.3,33.3,2
				c4.5-0.5,8.8-2.1,13.1-3.5c6.9-2.2,14-2.2,21.1-1.9c0.9,0,2.1,0.6,2.8,1.3c1.8,1.8,3.8,2.2,6.1,1.7c5.6-1.2,11.1-2.5,16.7-3.8
				c2.2-0.5,4.3-1.2,6.4-1.8c4.2-1.2,8.1-0.4,11.7,1.8c2.4,1.5,4.6,3.2,7.1,4.4c4.9,2.4,10.2,3.1,15.6,3.3c9.6,0.5,19-1.3,28.3-3.6
				c4.7-1.2,9.6-1.7,14.5-2.4s9.5,0.7,13.9,2.6c8.1,3.4,16.5,5,25.2,4.8c2.4-0.1,4.8-0.7,7.2-1.4c6.3-1.9,12.6-4.1,19-6
				c4.5-1.4,9-1.2,13.5-0.4c3.1,0.5,6.2,1.3,9.2,2.2c10.1,2.8,20.4,3.7,30.8,2.8c2.5-0.2,5-1.1,7.3-2.1c8.3-3.8,17-4.8,25.9-3.3
				c1.4,0.2,2.7,0.7,4,1.2c9,3.4,18.2,3.9,27.5,2c4.2-0.8,8.4-2,12.6-2.8c1.4-0.3,3-0.1,4.4,0.4c4,1.2,7.9,2.6,12,3.9
				c0-0.1,0.1,0.3,0,0.3c-6.6,3.4-13.2,6.8-19.8,10.1c-7.3,3.7-14.6,7.2-21.9,10.9c-1.6,0.8-3.1,2-4.6,3.1c-4,2.8-7.9,5.7-11.9,8.5
				c-1.4,1-3,1.6-4.9,1.7c-2.6,0.1-5.1,0.5-7.6,0.9c-10.3,1.8-20.4,0.4-30.5-2.2c-7-1.8-13.7-1.5-20.5,1.4c-8.4,3.5-17.3,4.6-26.3,2
				c-4.3-1.2-8.5-2.4-12.9-3.4c-6.5-1.5-12.7,0.2-19,1.8c-3.8,1-7.7,2-11.6,2.5c-2.5,0.3-5.1-0.2-7.6-0.5c-2.1-0.3-4.1-0.7-6.2-1.2
				c-1.9-0.4-4-0.6-5.7-1.5c-5.1-2.6-10.2-1.6-15.4-0.6c-4.4,0.9-8.8,2.2-13.3,3.1c-1.8,0.4-3.7,0.6-5.5,0.4
				c-3.6-0.3-7.2-1-10.7-1.5c-6-0.9-12-1.9-18-2.8c-5-0.8-10-0.9-15,0.1c-4.8,1-9.6,2.1-14.4,2.7c-4.7,0.6-9.5,0.7-14.3,0.6
				c-7.2-0.1-14.1-1.9-20.7-4.7c-6.3-2.6-12.8-2.1-19.3-0.9c-5.5,1-10.9,2.7-16.4,3.3c-7.3,0.8-14.6,0.8-21.8-1.7
				c-3.9-1.4-7.1-3.4-10.2-6.3c-4-3.8-7.9-4.3-12.5-1.9c-1.9,1-3.9,1.9-6.6,3.2C-497,2694.6-497,2691.9-496.9,2689.3z
				 M-496.8,2737.5c0-7.9,0.1-15.9,0.2-23.8c0-2.4,0-4.9,0-7.3c0-1.4,0.4-2.4,1.8-3.1c2.5-1.1,4.8-2.3,7.3-3.3
				c3.7-1.5,7.5-0.9,9.8,2.3c2.8,3.8,6.9,5.3,10.9,6.4c8.5,2.3,17.2,2.8,25.9,1c7.4-1.5,14.8-3.4,22.4-3.3c2.4,0.1,4.9,0.4,7.1,1.2
				c12.1,4.6,24.5,6.9,37.4,4.8c4.7-0.8,9.4-2,14.1-2.7c3.3-0.5,6.7-0.8,10.1-0.6c8.3,0.5,16.4,2,24.6,3.5c3.9,0.7,7.9,1.2,11.8,1.1
				c3.2-0.1,6.4-1.1,9.6-1.8c4.5-0.9,8.9-1.8,13.4-2.5c1.5-0.2,3.2,0.2,4.8,0.6c6.3,1.4,12.5,3,18.7,4.3c1.7,0.3,3.5,0.2,5.2-0.1
				c4.5-0.9,8.9-1.7,13.3-3c7.7-2.3,15.2-2.2,22.7,0.4c9.6,3.3,19.4,3.9,29.3,1.5c1.5-0.4,3-0.7,4.3-1.4c5.7-3.3,11.9-3.2,18-1.9
				c7,1.5,13.9,3.2,21,3.6c2.8,0.1,5.5,0,8.9,0c-2.6,1.6-4.7,3.1-6.9,4.3c-10.6,5.7-21.2,11.2-32.5,15.3c-9.9,3.5-20,6.1-30.4,7.8
				c-2.8,0.4-5.4,1.4-8.2,1.9c-5,1-10.1,1.7-15.1,2.7c-3.1,0.6-6.1,1.6-9.1,2.2c-2.3,0.4-4.6,0.7-6.9,0.5c-3.7-0.3-7.4-1-11-1.7
				c-6.8-1.3-13.6-1.8-20.3,0.6c-8.2,2.9-16.5,2.5-24.8,0.1c-8.9-2.7-18.1-3.7-27.3-2.8c-5.7,0.6-11.3,1.7-16.9,2.9
				c-10.7,2.3-21.3,2.5-31.9,0.3c-4.3-0.9-8.5-2.5-12.6-4c-6.9-2.4-13.8-3.3-21-1.9c-8.2,1.6-16.5,3.2-24.8,4.6
				c-3.1,0.5-6.3,0.5-9.4,0.4c-2.8,0-5.6-0.6-8.4-0.7c-3.8-0.1-7.3-1.4-10.6-3.1c-3.8-1.9-7.7-3.2-12.1-3.1
				c-2.7,0.1-5.3,0.4-7.8,1.7c-1.1,0.6-2.3,0.7-3.9,1.2C-496.5,2740.5-496.8,2739-496.8,2737.5z M-496.1,2750.8
				c0.1-0.7,0.6-1.6,1.2-1.9c4.2-2.1,8.2-4.6,13.2-3.8c2.2,0.3,4.3,0.8,6.4,1.5c3,1,5.8,2.4,8.8,3.5c1.3,0.5,2.7,0.7,4.1,0.8
				c2.7,0.3,5.4,0.2,8,0.7c6.2,1,12.3,0,18.4-1.2c6.5-1.3,13.1-2.5,19.6-3.6c6.1-1.1,12.1,0,17.9,1.9c3.1,1,6.1,2.3,9.2,3.4
				c0.9,0.3,1.7,0.7,2.7,0.8c7.6,0.8,15.3,2.2,23,1.5c4.9-0.5,9.7-1.1,14.5-2.1c7.4-1.6,14.9-3.2,22.5-2.5c4.8,0.4,9.7,1.2,14.4,2.3
				c6.4,1.6,12.7,3.1,19.3,2.4c3.7-0.4,7.4-1.2,10.9-2.2c5.2-1.5,10.3-1.7,15.5-0.6c1.2,0.2,2.3,0.8,3.5,1.2c0,0.3,0,0.6,0,0.8
				c-4.5,1.5-8.9,3.2-13.4,4.4c-3.9,1.1-7.5,2.2-10.7,4.8c-3.6,2.9-7.5,5.5-11.3,8.2c-0.6,0.4-1.3,0.7-1.7,1.3
				c-1.5,2.2-3.3,3.4-6.1,3.1c-1.3-0.1-2.2,0.8-2.4,2.1c-0.3,2.1-0.6,4.2-0.5,6.2c0,1.8-0.5,2.7-2.4,3.1c-2.6,0.6-4.9,0.8-7.4-0.5
				c-7.3-3.8-15.1-4.6-23.1-3.3c-4.8,0.8-9.7,1.3-14.5,2.3c-4.4,0.9-8.8,0.7-13.2,0c-8.3-1.2-16.6-2.7-24.6-5.3
				c-8.3-2.8-16.3-1.6-24.3,0.9c-4.9,1.6-9.7,3.4-14.6,4.7c-4.6,1.2-9.4,1.5-14.2,1.1c-1.4-0.1-2.8-0.5-4.2-0.5
				c-5.6,0.3-10.8-1.6-16-3.4c-3.3-1.2-6.5-2.5-9.9-3.5c-3.8-1.1-7.6-0.6-11.3,0.7c-1.2,0.4-2.3,1-3.9,1.6c-0.3-1.3-0.6-2.3-0.7-3.3
				c-0.9-8.2-1.7-16.5-2.5-24.7C-496.1,2752.7-496.2,2751.7-496.1,2750.8z M-308.6,2857.3c-1.1-0.5-1.6-0.8-2.2-1
				c-3-1.4-6-1.8-9.1-0.5c-3.2,1.3-6.4,1.9-9.9,1.7c-3.6-0.2-6.9-1.2-10-2.9c-4.9-2.8-10.2-3.8-15.8-3.5s-11,1.3-16.2,3.8
				c-2.9,1.4-6.6,1.7-9.9,1.9c-9.1,0.4-18.2,0.2-27.1-2.5c-3.5-1-6.9-2.2-10.4-3.1c-5.4-1.4-10.8-1.4-16.2,0.4
				c-5.2,1.8-10.4,3.3-15.5,5.3c-4.5,1.7-9.6,3-14.7,1.6c-2.6-0.7-5.4-0.7-7.8-1.6c-2.7-1-5.3-2.5-7.6-4.2
				c-3.6-2.7-7.3-3.4-11.5-1.9c-0.5,0.2-1.1,0.2-2,0.3c-0.1-1.4-0.2-2.5-0.2-3.6c0.2-6.4,0.5-12.8,0.6-19.2c0-2.3,1-3.6,3.1-4.4
				c5.2-1.9,10.2-3,15.6-0.7c3.4,1.4,7.1,2.4,10.6,3.6c1,0.3,2,0.7,3,0.8c8.6,0.9,17.2,1.4,25.6-1.8c4-1.5,8.1-3,12.2-4.2
				c5.2-1.4,10.4-1.2,15.5,0.5c2,0.6,3.9,1.6,5.8,2.4c10.8,4.9,22.1,6.5,33.8,3.8c3.4-0.8,6.8-1.6,10.2-2.5
				c9.3-2.5,18.3-1.2,27.1,2.2c4.7,1.8,9.3,2.7,14.3,2c2.8-0.4,5.8,0.1,8.7,0.2c2.6,4.1,2.2,8.2,1.2,12c-1,3.7-1.1,7.3-1.2,11.1
				C-308.7,2854.4-308.6,2855.6-308.6,2857.3z M-312.3,2812c-1.3,2.6-1.3,5.1,0,7.7c0.5,1.1,0.8,2.3,1.2,3.5
				c-4.1,0.4-7.9,1.1-11.6,1.1c-2.6,0-5.4-0.7-7.8-1.7c-8.1-3.5-16.6-4.7-25.3-3.5c-3.9,0.5-7.7,1.6-11.5,2.7
				c-12.5,3.6-24.5,2.4-36.1-3.3c-6.3-3.1-12.8-4.2-19.7-3.1c-2.7,0.5-5.4,1.3-8.1,2.2c-3.7,1.1-7.3,2.5-11,3.6
				c-8.9,2.7-17.7,2.4-26.4-0.9c-3.2-1.2-6.3-2.4-9.6-3.3c-4.2-1.3-8.5-1.4-12.7,0.2c-0.4,0.2-0.9,0.3-1.3,0.4c-0.1,0-0.2,0-0.8-0.2
				c0-2.7,0-5.2,0-7.7c0-5.5,0.1-11,0-16.4c-0.1-2.9,0.7-4.7,3.4-6.2c5.1-2.8,10.1-3.9,15.7-1.3c3,1.4,6.1,2.3,9.2,3.4
				c8.9,3.1,18.1,3.5,27.3,3c4.2-0.2,8.4-1.9,12.4-3.3c6.2-2.1,12.4-3.9,18.9-4.8c2-0.3,4.2-0.1,6.2,0.4c5.3,1.2,10.6,3,15.9,4
				c7.2,1.4,14.5,2.5,21.8,3.2c2.8,0.3,5.8-0.5,8.6-1.1c7.7-1.6,15.5-2.4,23.3-2c3.1,0.2,6.1,1.5,9,2.4c1.9,0.6,3.6,1.6,5.5,2.1
				c1.3,0.3,2.7,0.1,4.1,0c3.9-0.4,5.2,0.6,5.3,4.5c0.1,2.5-0.3,4.8-1.9,6.9C-309.8,2806.8-310.9,2809.4-312.3,2812z M-327.6,2895.4
				c-0.2,1.5-0.6,2.9-0.8,4.3c-6.9,1-13.5,1.6-20.3,0.8c-4.1-0.5-8.4,0.1-12.6,0.5c-12.9,1-25.9,0.2-38.8,0
				c-5.9-0.1-11.9-0.8-17.8-0.8c-9,0-18,0.2-26.9,0.4c-10.3,0.3-20.5,0.6-30.8,0.9c-5.4,0.1-10.7,0.2-16.1,0.2
				c-1.1,0-2.3-0.1-3.8-0.2c-0.3-3.9-0.3-7.6,0.1-11.3c0.1-0.7,0.8-1.6,1.4-1.8c3.7-1.3,7.2-3.1,11.3-3.5c3.3-0.3,6.3-0.1,9.1,1.6
				c9.2,5.3,19.2,6,29.5,5.5c5.1-0.3,9.7-2.2,14.5-3.7c4.8-1.4,9.7-2.6,14.6-3.6c3.6-0.7,7.1,0.1,10.6,1.3c5.4,2,11,3.9,16.5,5.6
				c1.4,0.5,3,0.5,4.5,0.6c5,0.1,10,0.2,15,0c2.5-0.1,5.1-0.6,7.5-1.4c8-2.8,15.9-3,23.9,0.1c2.2,0.9,4.7,1.1,7.1,1.5
				C-327.8,2893-327.4,2893.4-327.6,2895.4z M-324.8,2884.8c-1,1.5-1.9,2-3.6,2.1c-3.5,0.1-6.7-0.7-9.9-1.9
				c-6.2-2.4-12.6-2.7-18.8-0.6c-9.3,3.1-18.7,3.4-28.3,2.3c-6.3-0.7-12.3-3-18-5.6c-5-2.4-10.1-2.9-15.3-1.8
				c-5.3,1.2-10.7,2.6-15.8,4.5c-4.3,1.6-8.8,2.5-13.3,2.7c-9.3,0.4-18.3-0.6-26.6-5.7c-4.8-3-10.1-2.3-15.2-0.4
				c-1.7,0.6-3.4,1.2-6,2c-0.1-4.5-0.3-8.1-0.3-11.7c0-3.1,0.3-6.3,0.4-9.4c0.1-2.1,0.7-3.6,3-4.1c0.3-0.1,0.7-0.2,1-0.3
				c3.8-2.5,7.4-1.5,10.7,1c9.8,7.5,20.8,7.4,32,4.7c3.7-0.9,7.1-2.7,10.8-4c2.9-1,5.8-1.9,8.7-2.4c2.1-0.4,4.5-0.4,6.6,0
				c3.9,0.7,7.7,1.7,11.5,2.9c9.6,3.2,19.4,3.8,29.4,3.5c4.8-0.2,9.5-0.8,13.9-3.1c5.3-2.8,11-2.8,16.7-2.7c3.6,0,6.8,1,10,2.7
				c7.2,3.8,14.7,5.1,22.5,1.7c3.4-1.5,6.1,0.2,8.7,2.1c0.5,0.4,0.8,1.4,0.9,2.1c0.3,4.1-0.7,7.9-3.5,11c-0.9,0.9-2.3,1.7-3.6,1.8
				C-320.5,2878.8-322.8,2881.6-324.8,2884.8z M-19.1,2882.4c-0.3,4.3-0.6,8.6-0.8,12.9c-0.1,0.8-0.2,1.6-0.4,2.8
				c-8.4,0.4-16.4,0.9-24.4,1.2c-7,0.3-14,0.4-21,0.4c-11.9,0-23.8-0.2-35.7-0.2c-5,0-10-0.2-15,0.1c-14.2,0.8-28.5,0.3-42.7-0.1
				c-15.5-0.5-31.1-0.1-46.5-0.9c-14.5-0.7-28.9,0.3-43.4,0.1c-7.9-0.1-15.9-0.1-23.8,0c-13.9,0.3-27.8,0.8-41.6,1.2
				c-1.4,0-2.8,0.2-4.2,0c-0.7-0.1-1.9-1-1.9-1.5c-0.2-4.8,0-9.6,3.4-13.5c1.2-1.4,2.4-2.4,4.3-2.7c4.7-0.6,8.6-4.1,9-8.8
				c0.5-6,1.7-11.9,1.1-18c-0.4-4.2,0.5-8.6,1.2-12.8c0.9-5.1-0.3-9.7-2.2-14.3c-0.8-1.9-1.4-4-2.4-5.8c-1.7-3.1-1.4-6,0.2-9
				c1.1-2,2.3-4.1,3.4-6.1c2-3.4,2.1-7.1,1.2-10.8c-0.8-3.5-1.6-7-2.3-10.5c-0.2-1.1-0.1-2.3,0-3.5s0.8-1.7,1.9-2.2
				c2.1-1.1,4.3-2.3,6.1-3.8c5-4.4,10.4-8.3,16.1-11.7c1.2-0.8,2.9-0.8,4.3-1.3c3.1-1,6.2-2.1,9.3-3c2.7-0.8,5.4-1.3,8.1-2
				c1.5-0.4,3.1-0.5,4.3-1.3c8.4-5,17.6-7.2,27.2-8.4c5.8-0.7,11.4-2.2,17.2-3.3c10-1.9,19.8-4.4,29.3-8c0.8-0.3,1.8-0.4,3-0.7
				c0.9,2.5,1.8,4.9,2.7,7.3c0.8,2,1.6,4.1,2.5,6.1c1.3,2.6,2.7,5.2,4.2,7.6c2,3.1,1.4,6.1-0.1,8.9c-1.9,3.5-1.8,6.9-0.6,10.5
				c0.9,2.8,1.9,5.5,2.9,8.3c1.5,4.4,4.4,7.2,9,7.8c4.2,0.6,6.6,3.3,8.1,6.9c2.2,5.3,5.5,9.8,10.3,12.9c3.1,2,6.4,3.8,9.8,5.4
				c4.3,2,7.7,0.6,9.7-3.8c0.4-0.8,0.6-1.8,1.1-2.6c1.4-2.8,3.5-4.4,6.8-4.8c5.6-0.7,10.7-2.9,15.8-5.3c0.6-0.3,1.1-0.8,1.6-1.3
				c2.7-2.5,6.1-1.5,7,2.1c0.5,2,1.1,4.1,1.6,6.1c0.9,3.9,2.6,7.2,5.6,9.9s3.9,6,2.1,9.8c-1.7,3.7-1.8,7.3-0.3,11.2
				c1.2,3.2,1.6,6.8,2.6,10.2c0.9,3.1,2.1,6.2,3.4,9.1c0.9,2.1,2.8,3.6,5,4.1c3.6,0.9,7.2,1.6,11,1.1c2.3-0.3,4.6-0.1,6.9,0
				c3,0.2,5.3,1.7,7,4.1c1.7,2.5,3.9,3.4,7,2.7c1.6-0.3,3.3-0.2,4.9-0.1C-22.5,2871.4-18.6,2875.6-19.1,2882.4z M348.7,2899
				c0.1,3.6-0.2,4.3-3.7,4.3c-14.1,0-28.2,0.1-42.4-0.2c-22.3-0.4-44.6-1.1-66.8-1.7c-15.4-0.4-30.8-0.7-46.2-1.2
				c-17.3-0.5-34.5-0.8-51.8-2c-11.6-0.8-23.1-0.8-34.6-0.6c-4,0.1-7.9,0.3-11.7,1.8c-0.9,0.4-2.1,0.3-3.1,0.3
				c-9.3-0.1-18.7-0.2-28-0.2c-5.1,0-10.3,0.5-15.4,0.4c-7.1-0.1-14.2-0.6-21.3-0.8c-6.6-0.2-13.3-0.1-19.9-0.2
				c-5-0.1-10-0.1-15-0.3c-3-0.1-3.3-0.4-3.2-3.3c0.1-4.5-0.1-9.2,0.8-13.6c1.3-6.5-6.8-14.6-13.2-14.5c-2.4,0-4.9-0.1-7.3-0.3
				c-0.9-0.1-2-0.3-2.5-0.9c-3.9-4.5-9.2-5.5-14.8-5.7c-3.5-0.1-7-0.1-10.5-0.2c-2.1,0-3.7-1-4.3-2.9c-1.3-3.6-2.4-7.3-3.6-10.9
				c-0.7-2.3-1.2-4.8-1.9-7.1c-0.9-2.5-1.2-5-0.2-7.5c0.5-1.3,0.7-2.7,1.2-4c1.1-3.3,0.3-6.5-2-8.8c-4.6-4.4-6.4-9.9-7.5-15.8
				c-0.4-2.3-1.3-3.9-3.4-5c-2.3-1.2-4.5-2.4-6.9-3.4c-1.7-0.7-3.4-0.3-4.8,1c-3.1,2.8-6.6,4.5-10.7,5.6c-3.2,0.9-6.4,1.8-9.7,2.6
				c-3.2,0.8-5.6,3.2-7.2,6.2c-0.3,0.5-0.3,1.1-0.6,1.6c-1.5,3.3-2.2,3.3-5.5,1.7c-4.5-2.2-8.5-4.9-11.1-9.2c-0.9-1.5-1.9-3-2.6-4.5
				c-2.3-5.4-6.4-8.6-11.9-9.9c-3.1-0.7-4.5-2.3-5.2-5.2c-0.5-2-1.3-4-2.1-5.9c-1.6-3.6-1.8-7.2,0-10.8c0.6-1.2,1.2-2.6,1.4-3.9
				c0.2-1.3,0.2-2.9-0.3-4c-1.8-3.7-3.9-7.2-5.8-10.7c-0.6-1.1-1.2-2.3-1.6-3.5c-0.9-2.7-1.5-5.4-2.4-8c-0.9-2.9-0.7-3.5,2.2-4.8
				c3.7-1.7,7.4-3.5,11.1-5.2c9.8-4.7,19.1-10.3,27.8-16.8c6-4.5,12-8.9,18.3-12.8c4.9-3.1,10.3-5.4,15.5-7.9
				c5.2-2.6,10.5-5,15.7-7.7c6-3.1,11.7-6.7,17.7-9.8c6.6-3.4,13-7.2,20.9-7.1c3.7,0,7.2,0.5,10.4,2.3c2.8,1.6,5.5,3.5,8.5,4.8
				c2.8,1.3,5.9,2.2,8.9,3c5.6,1.5,11.2,2.6,17.2,2.3c9-0.5,16.1-4.1,22.1-10.5c0.5-0.5,0.9-1.1,1.4-1.6c1-1.1,2.2-1.3,3.4-0.5
				c1.2,0.9,2.5,1.7,3.5,2.8c3.2,3.6,7.3,5.2,12.1,5.4c4.2,0.1,8.3-0.2,12.4-1.6c3.3-1.1,6.8-1.4,10.4-0.6c4.4,0.9,9,1.2,13.5,1.9
				c2.2,0.4,3.6-0.4,4.5-2.3c1.1-2.1,1.6-4.3,1-6.7c-0.5-1.9-0.8-3.9-1.5-5.8c-1.6-4.2,2.3-10,6.7-11.2c3.4-0.9,5.7,0.5,6.3,3.9
				c0.1,0.6,0.2,1.2,0.3,1.7c0.2,5.1,4,6.8,8.6,6.4c4.1-0.3,7.4-2.5,10.3-5.4c4.1-4.2,8.6-8,14.8-8.5c1.7-0.1,3.3-0.2,4.5,1.7
				c-1.2,2-2.7,3.3-4.8,4.2c-1.5,0.6-2.9,1.5-4.1,2.5c-2.9,2.4-1.9,7.2,1.9,7.8c5.9,1,11.8,2.4,17.8,3.3c4,0.6,7.6-0.7,10.5-3.7
				c0.9-1,1.7-2.2,2.2-3.4c2.4-5.6,4.7-7.2,10.6-7.2c3.3,0,3.7,0.6,3.2,4.1c-0.5,3.7-0.9,7.4-1,11.1c0,2.1,0.5,4.2,1.1,6.2
				c0.8,2.9,1.7,3.7,4.7,3.7s5.7,1.1,8.4,2.2c2.2,0.9,3.6,2.5,4.2,4.8c0.8,3.2,1.7,6.3,2.3,9.5c0.4,2.1,1.6,3,3.6,3.1
				c5.6,0.2,11.1,0.7,16.6-1.6c4.8-2,10-3.2,15-4.7c3.1-0.9,5.7,0.3,8.3,1.7c0.5,0.3,0.7,1.2,0.8,1.8c0.2,0.8,0.2,1.6,0.1,2.4
				c-0.4,4.6,2.1,7.5,6,9.3c1.8,0.8,3.7,1.5,5.6,2.1c4.8,1.4,9.7,2.4,14.4,4.2c3,1.1,5.6,3.2,8.3,5.1c0.6,0.4,0.9,1.4,1,2.1
				c0.5,3.5,0.4,7.2,3.1,10.3c-1.2,0.8-1.9,1.4-2.7,1.8c-3.1,1.6-4.7,4.1-5.2,7.4c-0.4,2.8-0.7,5.6-0.8,8.3
				c-0.2,4.2-1.2,8.1-3.4,11.6c-0.9,1.5-2.1,2.8-3.3,4c-5,5.1-9.5,10.6-12.1,17.4c-1.7,4.4-1.6,8.9-0.5,13.4
				c0.2,0.9,0.7,1.8,1.3,2.5c2.5,2.9,5,5.8,7.7,8.5c3,2.9,6.6,3.3,10.3,1.6c3-1.4,6-1.7,9.2-1.4c6,0.5,11.7,2,16.9,5.1
				c4.7,2.7,10.1,3.6,15.3,4.7c1.1,0.2,2.3,0.5,3.4,0.8c3.4,1,6.6,2.1,7.3,6.4c0.3,1.7,1.6,3.4,2.5,4.9c1.4,2.2,3.1,4.1,5.5,5.2
				c1.3,0.6,2.5,1.4,3.5,2.3c2.6,2.3,2.9,3.7,1,6.6c-2.4,3.7-3.7,7.8-4.1,12.1c-0.5,5.5,3.5,10.9,8.9,11.9c2.5,0.5,5.8-0.3,7.1,2.1
				c1.8,3.3,2.9,7.1,3.5,10.8c0.5,3.2-0.2,6.5-0.3,9.8C348.6,2890.4,348.5,2894.7,348.7,2899z M452.4,2710.2
				c0.1,8.6,0.1,17.3,0.5,25.9c0.4,9.9,1.1,19.8,1.5,29.7c0.4,11,0.5,21.9,0.8,32.9c0.2,7.2,0.9,14.5,0.9,21.7
				c0,9.2-0.3,18.4-0.7,27.6c-0.8,16.5-1.8,33.1-2.7,49.6c-0.2,3.2-0.5,3.8-3.7,3.6c-4.5-0.2-9.1-0.7-13.6-0.8
				c-2.5-0.1-5.1,0.2-7.6,0.4c-3.4,0.2-6.8,0.3-10.1,0.8c-7.1,0.9-14.2-0.4-21.3-0.1c-8.3,0.4-16.5-0.3-24.8,1c-4.9,0.7-10,0-15,0
				c-1.9,0-2.4-1.5-2.5-2.8c-0.3-3.7-0.5-7.4-0.5-11.2c0-3,0.4-6,0.7-9.1c0.6-6.1-1.3-11.5-4-16.8c-1.6-3.2-4.4-5.1-8.1-5.4
				c-0.9-0.1-1.8-0.3-2.8-0.4c-2.8-0.2-4.5-1.8-5.3-4.3c-0.7-2.3-0.1-4.5,1.6-6.1c1.6-1.7,3.5-3,3.6-5.7c0.2-3.9,0.6-7.9-2.1-11.1
				c-1.8-2.2-4.3-3.9-6.7-5.4c-2.3-1.4-4-3.1-4.9-5.6c-0.2-0.4-0.5-0.9-0.5-1.3c-0.2-7-3.5-12.9-6.3-19c-1.4-3-1.5-6.1-1.2-9.3
				c0.2-2.4,0.5-4.9,1-7.3c1.7-9.4-1.6-17.2-7.7-24c-4.1-4.5-8.8-8.3-14.3-10.9c-2.2-1.1-2.5-2.7-1-4.4c3.2-3.6,6.2-7.2,9.6-10.6
				c4.4-4.5,9.6-8.1,14.9-11.4c3.3-2,6-4.9,5.9-9.3c0-2-0.7-3.6-2.6-4.6s-3.8-0.9-5.6,0.3c-1,0.7-2,1.4-3.5,2.5
				c-0.1-1.2-0.4-1.9-0.3-2.4c2.2-8,5-15.8,10.7-22.1c0.5-0.6,1-1.3,1.6-1.8c5.7-5.5,7.7-12.2,6.9-19.9c-0.5-5.2-0.7-10.5-1-15.7
				s-1.2-10.1-4.2-14.5c-2.1-3.2-3.5-6.8-5.3-10.2c-1-1.9-2.2-3.8-3.3-5.7c-0.4-0.8-0.8-1.7-0.9-2.6c-0.7-4.2-2-7.9-4.6-11.5
				c-3.7-5.1-8-10.1-9.6-16.4c-0.2-0.9-0.6-1.7-0.9-2.7c-0.6-2.4-1.4-4.7-3.3-6.4c-0.7-0.6-1.2-1.5-1.7-2.2c-2.9-4.1-2.5-6.8,1.3-10
				c2.3-1.9,5-2.8,8.1-2.6c2.7,0.2,5.4,0.3,8,0.2c4.1,0,6.3-2.8,5.6-7c-0.3-1.7-1.2-3.4,0.6-5.2c0.7,0.2,1.4,0.3,2,0.6
				c4.5,2.4,9.1,4.7,13.6,7.2c1.6,0.9,3.2,2,4.5,3.2c3.3,3.1,7.2,2.8,11.2,2.5c1.3-0.1,2-1,2.4-2.3c0.3-1.1,0.7-2.2,1.2-3.7
				c1.2,0.5,2.3,0.8,3.2,1.3c3,1.7,5.7,1.9,8.8-0.1c3.8-2.4,8.1-4.2,12-6.3c4.6-2.5,9.5-2.6,14.6-2.2c10.4,0.9,17.5-5.8,19.6-14.7
				c1.8-7.4-1.3-12.1-9.2-14.8c-2.3-0.8-4.2-1.8-5.3-4.1c-1-2.2-0.6-3.9,0.9-5.7c2.8-3.3,6.4-5.5,10.5-6.5
				c7.1-1.8,11.2-6.7,14.6-12.6c0.7-1.3,1.8-2.5,3-3.3c2.8-2.1,5.8-3.9,8.6-5.9c2.2-1.5,4.3-3.2,5.5-5.7c0.6-1.3,1.3-2.5,2.2-3.6
				c1.8-2.4,1.9-4.9,1-7.6c-0.2-0.7-0.4-1.4-0.6-2c-1.3-3.2-0.8-6.1,1.2-8.9c0.8-1.2,1.4-2.7,1.7-4.2c0.8-3.5,1.6-7,2-10.6
				c0.2-1.8-0.2-3.7-0.8-5.5c-1.1-3.2-2.2-6.4-3.7-9.4c-2.4-4.8-11.7-8.2-17.3-5.7c-4,1.8-8.2,1.8-12.3,0.5c-4.7-1.5-9.3-3-13.9-4.6
				c-1.7-0.6-2.9-2-3.3-3.8c-0.8-3.1,1-8,3.6-10c0.8-0.6,1.7-1.2,2.6-1.8c2.4-1.7,3.4-3.7,2.8-6.9c-0.5-2.6-0.5-5.3-2.8-7.2
				c-1.1-0.9-0.7-2,0.3-2.7s2.2-1.4,3.4-1.6c6-0.9,11.9-1.7,18.1-0.6c4.5,0.8,9.3,0.6,14,0.5c5.7-0.1,7.2-1.2,8.8-7.4
				c0.2-0.7,0.2-1.4,0.8-2c0.4,7.2,0.8,14.4,1,21.5c0.4,15,0.1,30.1,1.3,45.1c1.3,16.4,1.7,32.8,2.3,49.3c0.2,4.9,0,9.8,0.1,14.7
				c0.1,6.8,0.7,13.5,0.6,20.3c-0.2,15.4-0.2,30.8-1.8,46.1c-1.1,10.9-1.2,21.9-1.5,32.8c-0.5,19.4-1,38.7-1.2,58.1
				C452.1,2676.8,452.3,2693.5,452.4,2710.2z"/>
		</g>
	</g>
	<circle class="st2" cx="-299.3" cy="2291.5" r="32.9"/>
</g>
<rect x="-386.8" y="2426.7" class="st3" width="144.3" height="27.5"/>
<g class="st4">
	<path class="st5" d="M-357.8,2436.9v1.6c0,0.8-0.4,1.2-1.2,1.2h-8.2v7.6c0,0.8-0.4,1.2-1.2,1.2h-1.8c-0.8,0-1.2-0.4-1.2-1.2v-19.4
		c0-0.8,0.4-1.2,1.2-1.2h11.7c0.8,0,1.2,0.4,1.2,1.2v1.8c0,0.8-0.4,1.2-1.2,1.2h-8.6v4.7h8.2
		C-358.2,2435.7-357.8,2436.1-357.8,2436.9z"/>
	<path class="st5" d="M-352.6,2448.6h-1.8c-0.8,0-1.2-0.4-1.2-1.2v-19.4c0-0.8,0.4-1.2,1.2-1.2h7c1.5,0,2.7,0.1,3.7,0.3
		c1,0.2,1.7,0.6,2.3,1.1s1,1.2,1.2,1.9c0.2,0.8,0.3,1.7,0.3,2.9v0.6c0,1.4-0.3,2.6-0.8,3.6c-0.6,1-1.5,1.7-2.7,2.2l3.4,7.9
		c0.2,0.4,0.2,0.7,0,1c-0.2,0.3-0.4,0.4-0.8,0.4h-2.3c-0.6,0-1-0.3-1.2-0.8l-3.3-8h-3.8v7.6
		C-351.3,2448.2-351.8,2448.6-352.6,2448.6z M-347.4,2430.7h-4v5.5h4c1.2,0,2.1-0.2,2.5-0.5c0.5-0.3,0.7-1,0.7-2v-0.4
		c0-1-0.2-1.7-0.7-2C-345.3,2430.8-346.1,2430.7-347.4,2430.7z"/>
	<path class="st5" d="M-333.9,2447.6c-0.2,0.6-0.6,0.9-1.2,0.9h-1.8c-0.4,0-0.7-0.1-0.9-0.4c-0.2-0.2-0.2-0.6-0.1-1l6.4-19.7
		c0.2-0.6,0.6-0.9,1.2-0.9h3.8c0.6,0,1,0.3,1.2,0.9l6.4,19.7c0.1,0.4,0.1,0.7-0.1,1c-0.2,0.2-0.5,0.4-0.9,0.4h-1.8
		c-0.6,0-1.1-0.3-1.2-0.9l-1.3-4.1h-8.3L-333.9,2447.6z M-325.4,2440l-3-9.9l-3,9.9H-325.4z"/>
	<path class="st5" d="M-300,2448.6h-1.9c-0.5,0-0.8-0.2-1.1-0.6l-10-14v13.4c0,0.8-0.4,1.2-1.2,1.2h-1.6c-0.8,0-1.2-0.4-1.2-1.2
		v-19.4c0-0.8,0.4-1.2,1.2-1.2h1.8c0.5,0,0.9,0.2,1.1,0.6l10,13.6v-12.9c0-0.8,0.4-1.2,1.2-1.2h1.7c0.8,0,1.2,0.4,1.2,1.2v19.4
		C-298.8,2448.2-299.2,2448.6-300,2448.6z"/>
	<path class="st5" d="M-286.9,2448.7c-1.8,0-3.3-0.2-4.6-0.5c-1.3-0.4-2.3-0.9-3.1-1.7c-0.8-0.8-1.5-1.8-1.8-3.1
		c-0.4-1.3-0.6-2.8-0.6-4.7v-2.3c0-1.5,0.2-2.9,0.6-4.1c0.4-1.2,1-2.2,1.8-3.1s1.9-1.5,3.2-2s2.9-0.7,4.6-0.7c3,0,5.3,0.6,7,1.8
		c1.7,1.2,2.7,3,3,5.3c0.1,0.4,0.1,0.7,0.1,1c0.1,0.8-0.3,1.2-1.1,1.2h-2c-0.4,0-0.7-0.1-0.9-0.3s-0.3-0.5-0.3-0.9
		c-0.1-0.4-0.1-0.7-0.2-0.8c-0.3-1.1-0.9-2-1.8-2.5c-0.9-0.5-2.2-0.8-3.8-0.8c-1.4,0-2.4,0.2-3.3,0.6c-0.8,0.4-1.5,1-1.9,1.9
		s-0.6,2.1-0.6,3.7v1.8c0,2.2,0.5,3.8,1.4,4.7c0.9,1,2.4,1.4,4.4,1.4c1.7,0,3-0.3,3.9-0.8c0.9-0.6,1.5-1.5,1.8-2.8
		c0.1-0.2,0.1-0.5,0.1-0.8c0-0.4,0.2-0.7,0.3-0.9s0.5-0.3,0.9-0.3h1.9c0.8,0,1.2,0.4,1.1,1.2c0,0,0,0.3-0.1,0.9
		c-0.3,2.6-1.2,4.5-2.8,5.7S-283.7,2448.7-286.9,2448.7z"/>
	<path class="st5" d="M-262,2448.6h-11.7c-0.8,0-1.2-0.4-1.2-1.2v-19.4c0-0.8,0.4-1.2,1.2-1.2h11.7c0.8,0,1.2,0.4,1.2,1.2v1.6
		c0,0.8-0.4,1.2-1.2,1.2h-8.6v4.4h8.2c0.8,0,1.2,0.4,1.2,1.2v1.5c0,0.8-0.4,1.2-1.2,1.2h-8.2v5.4h8.6c0.8,0,1.2,0.4,1.2,1.2v1.6
		C-260.8,2448.2-261.2,2448.6-262,2448.6z"/>
</g>
<rect x="-282.8" y="2847.4" class="st3" width="193.8" height="27.5"/>
<g class="st4">
	<path class="st6" d="M-268.6,2857.6v1.6c0,0.8-0.4,1.2-1.2,1.2h-8.2v7.6c0,0.8-0.4,1.2-1.2,1.2h-1.8c-0.8,0-1.2-0.4-1.2-1.2v-19.4
		c0-0.8,0.4-1.2,1.2-1.2h11.7c0.8,0,1.2,0.4,1.2,1.2v1.8c0,0.8-0.4,1.2-1.2,1.2h-8.6v4.7h8.2C-269,2856.4-268.6,2856.8-268.6,2857.6
		z"/>
	<path class="st6" d="M-263.4,2869.3h-1.8c-0.8,0-1.2-0.4-1.2-1.2v-19.4c0-0.8,0.4-1.2,1.2-1.2h7c1.5,0,2.7,0.1,3.7,0.3
		c1,0.2,1.7,0.6,2.3,1.1s1,1.2,1.2,1.9c0.2,0.8,0.3,1.7,0.3,2.9v0.6c0,1.4-0.3,2.6-0.8,3.6c-0.6,1-1.5,1.7-2.7,2.2l3.4,7.9
		c0.2,0.4,0.2,0.7,0,1c-0.2,0.3-0.4,0.4-0.8,0.4h-2.3c-0.6,0-1-0.3-1.2-0.8l-3.3-8h-3.8v7.6
		C-262.1,2868.9-262.5,2869.3-263.4,2869.3z M-258.1,2851.4h-4v5.5h4c1.2,0,2.1-0.2,2.5-0.5c0.5-0.3,0.7-1,0.7-2v-0.4
		c0-1-0.2-1.7-0.7-2C-256.1,2851.6-256.9,2851.4-258.1,2851.4z"/>
	<path class="st6" d="M-244.7,2868.4c-0.2,0.6-0.6,0.9-1.2,0.9h-1.8c-0.4,0-0.7-0.1-0.9-0.4c-0.2-0.2-0.2-0.6-0.1-1l6.4-19.7
		c0.2-0.6,0.6-0.9,1.2-0.9h3.8c0.6,0,1,0.3,1.2,0.9l6.4,19.7c0.1,0.4,0.1,0.7-0.1,1c-0.2,0.2-0.5,0.4-0.9,0.4h-1.8
		c-0.6,0-1.1-0.3-1.2-0.9l-1.3-4.1h-8.3L-244.7,2868.4z M-236.2,2860.7l-3-9.9l-3,9.9H-236.2z"/>
	<path class="st6" d="M-210.8,2869.3h-1.9c-0.5,0-0.8-0.2-1.1-0.6l-10-14v13.4c0,0.8-0.4,1.2-1.2,1.2h-1.6c-0.8,0-1.2-0.4-1.2-1.2
		v-19.4c0-0.8,0.4-1.2,1.2-1.2h1.8c0.5,0,0.9,0.2,1.1,0.6l10,13.6v-12.9c0-0.8,0.4-1.2,1.2-1.2h1.7c0.8,0,1.2,0.4,1.2,1.2v19.4
		C-209.6,2868.9-210,2869.3-210.8,2869.3z"/>
	<path class="st6" d="M-197.7,2869.4c-1.8,0-3.3-0.2-4.6-0.5c-1.3-0.4-2.3-0.9-3.1-1.7c-0.8-0.8-1.5-1.8-1.8-3.1
		c-0.4-1.3-0.6-2.8-0.6-4.7v-2.3c0-1.5,0.2-2.9,0.6-4.1c0.4-1.2,1-2.2,1.8-3.1s1.9-1.5,3.2-2s2.9-0.7,4.6-0.7c3,0,5.3,0.6,7,1.8
		c1.7,1.2,2.7,3,3,5.3c0.1,0.4,0.1,0.7,0.1,1c0.1,0.8-0.3,1.2-1.1,1.2h-2c-0.4,0-0.7-0.1-0.9-0.3s-0.3-0.5-0.3-0.9
		c-0.1-0.4-0.1-0.7-0.2-0.8c-0.3-1.1-0.9-2-1.8-2.5c-0.9-0.5-2.2-0.8-3.8-0.8c-1.4,0-2.4,0.2-3.3,0.6c-0.8,0.4-1.5,1-1.9,1.9
		s-0.6,2.1-0.6,3.7v1.8c0,2.2,0.5,3.8,1.4,4.7c0.9,1,2.4,1.4,4.4,1.4c1.7,0,3-0.3,3.9-0.8c0.9-0.6,1.5-1.5,1.8-2.8
		c0.1-0.2,0.1-0.5,0.1-0.8c0-0.4,0.2-0.7,0.3-0.9s0.5-0.3,0.9-0.3h1.9c0.8,0,1.2,0.4,1.1,1.2c0,0,0,0.3-0.1,0.9
		c-0.3,2.6-1.2,4.5-2.8,5.7S-194.5,2869.4-197.7,2869.4z"/>
	<path class="st6" d="M-172.8,2869.3h-11.7c-0.8,0-1.2-0.4-1.2-1.2v-19.4c0-0.8,0.4-1.2,1.2-1.2h11.7c0.8,0,1.2,0.4,1.2,1.2v1.6
		c0,0.8-0.4,1.2-1.2,1.2h-8.6v4.4h8.2c0.8,0,1.2,0.4,1.2,1.2v1.5c0,0.8-0.4,1.2-1.2,1.2h-8.2v5.4h8.6c0.8,0,1.2,0.4,1.2,1.2v1.6
		C-171.6,2868.9-172,2869.3-172.8,2869.3z"/>
</g>
<rect x="41.1" y="2794.4" class="st3" width="187.2" height="27.5"/>
<g class="st4">
	<path class="st6" d="M50.2,2816.3h-7.5c-0.8,0-1.2-0.4-1.2-1.2v-19.4c0-0.8,0.4-1.2,1.2-1.2h7.6c4.5,0,6.7,1.6,6.7,4.7v1.3
		c0,1.2-0.4,2.1-1.2,2.8c-0.8,0.7-2,1.1-3.6,1.1c2.1,0,3.6,0.5,4.6,1.3c1,0.8,1.5,2,1.5,3.5v1.4
		C58.5,2814.4,55.7,2816.3,50.2,2816.3z M50,2798h-4.2v5.1H50c1,0,1.7-0.2,2.1-0.5c0.4-0.3,0.6-1,0.6-1.9v-0.5
		c0-0.8-0.2-1.4-0.6-1.7C51.7,2798.1,51,2798,50,2798z M50.2,2806.5h-4.4v6.2h4.4c1.4,0,2.4-0.2,3.1-0.7c0.6-0.4,0.9-1.2,0.9-2.4
		v-0.5c0-1-0.3-1.7-0.9-2.1C52.6,2806.7,51.6,2806.5,50.2,2806.5z"/>
	<path class="st6" d="M73.1,2816.3H61.4c-0.8,0-1.2-0.4-1.2-1.2v-19.4c0-0.8,0.4-1.2,1.2-1.2h11.7c0.8,0,1.2,0.4,1.2,1.2v1.6
		c0,0.8-0.4,1.2-1.2,1.2h-8.6v4.4h8.2c0.8,0,1.2,0.4,1.2,1.2v1.5c0,0.8-0.4,1.2-1.2,1.2h-8.2v5.4h8.6c0.8,0,1.2,0.4,1.2,1.2v1.6
		C74.3,2815.9,73.9,2816.3,73.1,2816.3z"/>
	<path class="st6" d="M89.1,2816.3H77.4c-0.8,0-1.2-0.4-1.2-1.2v-19.4c0-0.8,0.4-1.2,1.2-1.2h1.8c0.8,0,1.2,0.4,1.2,1.2v16.6h8.6
		c0.8,0,1.2,0.4,1.2,1.2v1.6C90.3,2815.9,89.9,2816.3,89.1,2816.3z"/>
	<path class="st6" d="M107.9,2812.5c-1.1,2.6-3.6,3.9-7.6,3.9c-3.5,0-6-0.8-7.6-2.4c-1.6-1.6-2.3-4.2-2.3-7.9v-2.3
		c0-6.4,3.4-9.5,10.2-9.5c2.9,0,5.2,0.5,6.9,1.6c1.7,1.1,2.7,2.6,3,4.6c0.1,0.5,0.2,0.9,0.2,1.2c0.1,0.8-0.3,1.2-1.1,1.2h-2
		c-0.4,0-0.7-0.1-0.9-0.2c-0.2-0.1-0.3-0.4-0.4-0.8c-0.1-0.4-0.1-0.6-0.2-0.8c-0.3-0.9-1-1.6-1.9-2c-0.9-0.4-2.2-0.7-3.7-0.7
		c-1.4,0-2.4,0.2-3.3,0.6c-0.8,0.4-1.5,1-1.9,1.9s-0.6,2.1-0.6,3.7v1.8c0,2.2,0.5,3.8,1.4,4.7c0.9,1,2.4,1.4,4.4,1.4
		c0.7,0,1.3,0,1.9-0.1c0.5-0.1,1.1-0.2,1.6-0.4s0.9-0.4,1.3-0.8c0.3-0.3,0.6-0.7,0.8-1.3s0.3-1.2,0.3-1.9v-0.1h-4.6
		c-0.8,0-1.2-0.4-1.2-1.2v-1c0-0.8,0.4-1.2,1.2-1.2h7.7c0.8,0,1.2,0.4,1.2,1.2v9.6c0,0.3-0.1,0.6-0.2,0.7c-0.2,0.2-0.4,0.2-0.7,0.2
		h-0.1c-0.3,0-0.6-0.1-0.7-0.2c-0.2-0.1-0.3-0.4-0.3-0.7L107.9,2812.5z"/>
	<path class="st6" d="M115.6,2816.3h-1.8c-0.8,0-1.2-0.4-1.2-1.2v-19.4c0-0.8,0.4-1.2,1.2-1.2h1.8c0.8,0,1.2,0.4,1.2,1.2v19.4
		C116.8,2815.9,116.4,2816.3,115.6,2816.3z"/>
	<path class="st6" d="M137.6,2817.6h-4.5c-0.8,0-1.2-0.4-1.2-1.2v-0.3c-0.9,0.2-2,0.3-3.1,0.3c-1.7,0-3.2-0.2-4.5-0.7
		c-1.3-0.5-2.4-1.1-3.2-2c-0.8-0.9-1.4-1.9-1.9-3.1s-0.6-2.6-0.6-4.1v-2.3c0-3.1,0.9-5.5,2.6-7.3s4.2-2.6,7.6-2.6
		c1.7,0,3.2,0.2,4.5,0.7c1.3,0.5,2.4,1.1,3.2,2c0.8,0.9,1.4,1.9,1.9,3.1c0.4,1.2,0.6,2.6,0.6,4.1v2.3c0,3.4-1.1,6-3.4,7.7h2
		c0.8,0,1.2,0.4,1.2,1.2v1C138.8,2817.2,138.4,2817.6,137.6,2817.6z M134.6,2806.2v-1.8c0-1.2-0.1-2.2-0.3-3
		c-0.2-0.8-0.6-1.4-1.1-1.9c-0.5-0.5-1.1-0.8-1.8-1s-1.6-0.3-2.6-0.3c-1,0-1.9,0.1-2.6,0.3c-0.7,0.2-1.3,0.5-1.8,1
		c-0.5,0.5-0.9,1.1-1.1,1.9c-0.2,0.8-0.3,1.8-0.3,3v1.8c0,1.2,0.1,2.2,0.3,3c0.2,0.8,0.6,1.4,1.1,1.9c0.5,0.5,1.1,0.8,1.8,1
		c0.7,0.2,1.6,0.3,2.6,0.3c1,0,1.9-0.1,2.6-0.3c0.7-0.2,1.3-0.5,1.8-1c0.5-0.5,0.9-1.1,1.1-1.9
		C134.5,2808.4,134.6,2807.4,134.6,2806.2z"/>
	<path class="st6" d="M158.9,2806.2c0,1.9-0.2,3.4-0.5,4.7c-0.3,1.3-0.9,2.3-1.6,3.1c-0.7,0.8-1.7,1.4-2.8,1.8
		c-1.2,0.4-2.6,0.6-4.2,0.6c-2.2,0-4-0.3-5.3-1s-2.3-1.7-2.9-3.2c-0.6-1.5-0.9-3.5-0.9-6v-10.6c0-0.8,0.4-1.2,1.2-1.2h1.8
		c0.8,0,1.2,0.4,1.2,1.2v10.5c0,2.2,0.4,3.9,1.1,4.8c0.8,1,2,1.4,3.7,1.4c1.7,0,2.9-0.5,3.7-1.4s1.2-2.6,1.2-4.8v-10.5
		c0-0.8,0.4-1.2,1.2-1.2h1.9c0.8,0,1.2,0.4,1.2,1.2V2806.2z"/>
	<path class="st6" d="M173.7,2816.3H162c-0.8,0-1.2-0.4-1.2-1.2v-19.4c0-0.8,0.4-1.2,1.2-1.2h11.7c0.8,0,1.2,0.4,1.2,1.2v1.6
		c0,0.8-0.4,1.2-1.2,1.2h-8.6v4.4h8.2c0.8,0,1.2,0.4,1.2,1.2v1.5c0,0.8-0.4,1.2-1.2,1.2h-8.2v5.4h8.6c0.8,0,1.2,0.4,1.2,1.2v1.6
		C174.9,2815.9,174.5,2816.3,173.7,2816.3z"/>
</g>
<rect x="212.2" y="2499.9" class="st3" width="187.7" height="27.5"/>
<g class="st4">
	<path class="st6" d="M229.5,2508.5c0,2.1-0.7,3.7-2,4.8c-1.3,1.1-3.4,1.6-6.3,1.6h-4.4v5.7c0,0.8-0.4,1.2-1.2,1.2h-1.8
		c-0.8,0-1.2-0.4-1.2-1.2v-19.4c0-0.8,0.4-1.2,1.2-1.2h7.5c2.9,0,5,0.6,6.3,1.7c1.3,1.1,2,2.8,2,5V2508.5z M221.2,2503.9h-4.4v7.2
		h4.4c1.4,0,2.4-0.2,3.1-0.7c0.6-0.5,0.9-1.3,0.9-2.6v-0.4c0-1.3-0.3-2.2-0.9-2.7C223.7,2504.2,222.6,2503.9,221.2,2503.9z"/>
	<path class="st6" d="M232,2520.9c-0.2,0.6-0.6,0.9-1.2,0.9h-1.8c-0.4,0-0.7-0.1-0.9-0.4c-0.2-0.2-0.2-0.6-0.1-1l6.4-19.7
		c0.2-0.6,0.6-0.9,1.2-0.9h3.8c0.6,0,1,0.3,1.2,0.9l6.4,19.7c0.1,0.4,0.1,0.7-0.1,1c-0.2,0.2-0.5,0.4-0.9,0.4H244
		c-0.6,0-1.1-0.3-1.2-0.9l-1.3-4.1h-8.3L232,2520.9z M240.4,2513.2l-3-9.9l-3,9.9H240.4z"/>
	<path class="st6" d="M253,2521.8h-1.9c-0.8,0-1.2-0.4-1.2-1.2v-7.3l-6.6-12c-0.2-0.4-0.2-0.7,0-1s0.5-0.4,0.8-0.4h2.2
		c0.6,0,1,0.2,1.2,0.7l4.6,8.5l4.6-8.5c0.2-0.5,0.6-0.7,1.2-0.7h2.2c0.4,0,0.7,0.1,0.8,0.4c0.2,0.3,0.2,0.6,0,1l-6.7,12v7.3
		C254.2,2521.4,253.8,2521.8,253,2521.8z"/>
	<path class="st6" d="M271.2,2508.9c2.2,0.1,4,0.3,5.2,0.8c1.3,0.4,2.2,1.1,2.8,2c0.6,0.9,0.9,2.1,0.9,3.5v0.2
		c0,2.2-0.8,3.9-2.4,4.9c-1.6,1.1-4,1.6-7.2,1.6c-3,0-5.3-0.5-6.8-1.5c-1.5-1-2.4-2.6-2.7-4.7c0-0.1,0-0.2,0-0.3c0-0.2,0-0.3,0-0.3
		c0-0.7,0.3-1.1,1.1-1.1h1.9c0.5,0,0.8,0.1,0.9,0.2c0.2,0.1,0.3,0.4,0.4,0.8c0,0.2,0.1,0.4,0.2,0.6c0.3,0.9,0.8,1.6,1.7,2
		c0.8,0.4,2,0.6,3.4,0.6c1.7,0,3.1-0.2,3.9-0.6c0.9-0.4,1.3-1.1,1.3-1.9v-0.1c0-0.7-0.2-1.2-0.5-1.5s-0.9-0.6-1.7-0.8
		s-2-0.3-3.5-0.4c-1.8-0.1-3.3-0.3-4.4-0.6c-1.2-0.3-2.1-0.7-2.8-1.2c-0.7-0.5-1.2-1.1-1.4-1.8c-0.3-0.7-0.4-1.5-0.4-2.6v-0.3
		c0-2.1,0.8-3.7,2.4-4.8c1.6-1.1,4-1.7,7.1-1.7c2.8,0,5,0.5,6.6,1.5c1.6,1,2.5,2.4,2.8,4.3c0,0.2,0.1,0.4,0.1,0.7
		c0.1,0.7-0.3,1.1-1,1.1h-1.9c-0.5,0-0.8-0.1-1-0.2c-0.2-0.1-0.3-0.4-0.4-0.8c-0.1-0.3-0.1-0.5-0.2-0.7c-0.6-1.4-2.3-2.1-5.1-2.1
		c-3.5,0-5.2,0.8-5.2,2.5v0.2c0,0.4,0.1,0.8,0.2,1.1c0.1,0.3,0.4,0.5,0.9,0.8s1,0.4,1.8,0.5S270,2508.9,271.2,2508.9z"/>
	<path class="st6" d="M287.1,2510.1v0.6c0,0.8-0.4,1.2-1.2,1.2h-3.4c-0.8,0-1.2-0.4-1.2-1.2v-0.6c0-0.8,0.4-1.2,1.2-1.2h3.4
		C286.7,2508.9,287.1,2509.3,287.1,2510.1z"/>
	<path class="st6" d="M297.5,2521.8H290c-0.8,0-1.2-0.4-1.2-1.2v-19.4c0-0.8,0.4-1.2,1.2-1.2h7.6c4.5,0,6.7,1.6,6.7,4.7v1.3
		c0,1.2-0.4,2.1-1.2,2.8c-0.8,0.7-2,1.1-3.6,1.1c2.1,0,3.6,0.5,4.6,1.3c1,0.8,1.5,2,1.5,3.5v1.4
		C305.7,2519.9,303,2521.8,297.5,2521.8z M297.2,2503.5h-4.2v5.1h4.2c1,0,1.7-0.2,2.1-0.5c0.4-0.3,0.6-1,0.6-1.9v-0.5
		c0-0.8-0.2-1.4-0.6-1.7C298.9,2503.7,298.2,2503.5,297.2,2503.5z M297.4,2512h-4.4v6.2h4.4c1.4,0,2.4-0.2,3.1-0.7
		c0.6-0.4,0.9-1.2,0.9-2.4v-0.5c0-1-0.3-1.7-0.9-2.1C299.9,2512.2,298.8,2512,297.4,2512z"/>
	<path class="st6" d="M310.3,2520.9c-0.2,0.6-0.6,0.9-1.2,0.9h-1.8c-0.4,0-0.7-0.1-0.9-0.4c-0.2-0.2-0.2-0.6-0.1-1l6.4-19.7
		c0.2-0.6,0.6-0.9,1.2-0.9h3.8c0.6,0,1,0.3,1.2,0.9l6.4,19.7c0.1,0.4,0.1,0.7-0.1,1c-0.2,0.2-0.5,0.4-0.9,0.4h-1.8
		c-0.6,0-1.1-0.3-1.2-0.9l-1.3-4.1h-8.3L310.3,2520.9z M318.8,2513.2l-3-9.9l-3,9.9H318.8z"/>
	<path class="st6" d="M335.8,2508.9c2.2,0.1,4,0.3,5.2,0.8s2.2,1.1,2.8,2c0.6,0.9,0.9,2.1,0.9,3.5v0.2c0,2.2-0.8,3.9-2.4,4.9
		s-4,1.6-7.2,1.6c-3,0-5.3-0.5-6.8-1.5c-1.5-1-2.4-2.6-2.7-4.7c0-0.1,0-0.2,0-0.3c0-0.2,0-0.3,0-0.3c0-0.7,0.3-1.1,1.1-1.1h1.9
		c0.5,0,0.8,0.1,0.9,0.2c0.2,0.1,0.3,0.4,0.4,0.8c0,0.2,0.1,0.4,0.2,0.6c0.3,0.9,0.8,1.6,1.7,2c0.8,0.4,2,0.6,3.4,0.6
		c1.7,0,3.1-0.2,3.9-0.6c0.9-0.4,1.3-1.1,1.3-1.9v-0.1c0-0.7-0.2-1.2-0.5-1.5s-0.9-0.6-1.7-0.8s-2-0.3-3.5-0.4
		c-1.8-0.1-3.3-0.3-4.4-0.6c-1.2-0.3-2.1-0.7-2.8-1.2c-0.7-0.5-1.2-1.1-1.4-1.8c-0.3-0.7-0.4-1.5-0.4-2.6v-0.3
		c0-2.1,0.8-3.7,2.4-4.8c1.6-1.1,4-1.7,7.1-1.7c2.8,0,5,0.5,6.6,1.5c1.6,1,2.5,2.4,2.8,4.3c0,0.2,0.1,0.4,0.1,0.7
		c0.1,0.7-0.3,1.1-1,1.1h-1.9c-0.5,0-0.8-0.1-1-0.2c-0.2-0.1-0.3-0.4-0.4-0.8c-0.1-0.3-0.1-0.5-0.2-0.7c-0.6-1.4-2.3-2.1-5.1-2.1
		c-3.5,0-5.2,0.8-5.2,2.5v0.2c0,0.4,0.1,0.8,0.2,1.1c0.1,0.3,0.4,0.5,0.9,0.8s1,0.4,1.8,0.5S334.6,2508.9,335.8,2508.9z"/>
</g>
</svg>
