<?xml version="1.0" encoding="utf-8"?>
<!-- Generator: Adobe Illustrator 19.1.0, SVG Export Plug-In . SVG Version: 6.00 Build 0)  -->
<svg version="1.1" id="Calque_1" xmlns="http://www.w3.org/2000/svg" xmlns:xlink="http://www.w3.org/1999/xlink" x="0px" y="0px"
	 viewBox="-151 -900.2 976.9 440.8" style="enable-background:new -151 -900.2 976.9 440.8;" xml:space="preserve">
<style type="text/css">
	.st0{fill:#6F9BBB;}
	.st1{fill:#E46D65;}
	.st2{fill:#1D1D1B;}
	.st3{fill:#FFFFFF;stroke:#E46D65;stroke-width:3;stroke-miterlimit:10;}
	.st4{fill:#6EA2C2;}
	.st5{fill:none;stroke:#E46D65;stroke-width:3;stroke-miterlimit:10;}
	.st6{fill:#C2C2C2;}
	.st7{fill:#F3F6ED;}
	.st8{fill:#EA6C65;}
	.st9{fill:#80BA40;}
	.st10{fill:#B9B8B8;}
	.st11{fill:#1A94C1;}
	.st12{fill:none;stroke:#B9B8B8;stroke-width:3;stroke-miterlimit:10;}
	.st13{fill:none;}
	.st14{fill:#EC6C65;}
	.st15{fill:none;stroke:#EC6C65;stroke-width:4;stroke-miterlimit:10;}
	.st16{fill:#169BC9;}
	.st17{fill:#FFFFFF;}
	.st18{fill:#C0C0C0;}
	.st19{fill:none;stroke:#C0C0C0;stroke-width:3;stroke-miterlimit:10;}
	.st20{fill:none;stroke:#EC6C65;stroke-width:3;stroke-miterlimit:10;}
	.st21{fill:none;stroke:#80BA40;stroke-width:3;stroke-miterlimit:10;}
	.st22{fill:#4D4D4D;}
	.st23{fill:#6DA0C0;}
	.st24{fill:#FFFFFF;stroke:#80BA40;stroke-width:3;stroke-miterlimit:10;}
	.st25{fill:#D9EAC5;}
	.st26{fill:#A6CF7A;}
	.st27{fill:#BFDC9F;}
</style>
<g>
	<g>
		<path class="st9" d="M61.3-725.9c-11.5,0.3-22.7,0-33.7,1.1c-26.2,2.6-52.3,4.7-78.7,4.8c-14.4,0.1-28.9,0.7-43.3,1.6
			c-8.8,0.5-17.6,2.1-27.2,3.3c1.5,10.9,3.3,21.4,4.3,32.1c1.8,18.9,3.3,37.9,4.6,56.9c0.8,11.6,0.6,23.2,1.1,34.8
			c0.4,8.5,1.6,17,2,25.5c1.1,27.8,3,55.5,6.8,83.1c0.6,4.3,1.7,8.6,2.7,13.5c14.5,1.7,28.3,2.2,42,0.3c19.2-2.7,38.4-2.8,57.7-2.1
			c8.6,0.3,17-0.6,25.5-1.7c3.5-0.5,4.9-2.2,5.1-5.6c0.4-5.7,0.8-11.4,1.7-17c5-32.2,10.2-64.4,15.2-96.6c3-19,5.7-38.1,8.9-57.1
			c4-23.8,5.4-47.8,6.2-71.9C62.1-722.3,61.6-723.8,61.3-725.9z M9.1-628.5c-1.3,6.7-2.8,13.3-4.1,19.9c-1.3,6.6-4.6,12.1-8.8,17.3
			c-10,12.2-23.4,16.9-38.4,18.7c-1,0.1-2.3,0-3.2-0.4c-4.5-2.1-9-4.3-13.7-6.6c2.7-6.8,5.9-11.2,13.5-11.1c4.8,0.1,9.6-1.1,14.3-2
			c2-0.4,5-0.5,4.5-3.5c-0.4-3-3.1-3.2-5.7-3c-2.6,0.2-5.2,0.3-7.8,0.4c3.7-5.7,7.7-10.6,15-10.3c3.5,0.1,7-0.4,10.4-1.1
			c1.2-0.2,3.2-1.9,3-2.5c-0.4-1.4-1.5-3.2-2.8-3.8c-1.6-0.7-3.7-0.5-6.4-0.7c6.9-12,19.6-12.1,30.6-17.7
			C9.4-632,9.4-630.2,9.1-628.5z M9.7-640.4c-2.1,0.1-4.2,0-6.3,0.4c-2.1,0.3-4.1,1-6.6,1.6c3-7.4,3-7.4-1.4-10.8
			c-5.8,2.8-6.7,10.3-12.5,14.3c-0.7-5.5,1.1-11.6-6.8-13.6c0,3.3,0.1,6.2,0,9.1c-0.1,3.1-1.1,6.3-0.4,9.1c1.1,4.8-1.5,6.7-5,9
			c-3.1-4.6-0.3-12.4-8.2-14.6c0.3,6.5,0.4,12.1,0.9,17.7c0.3,3.1-0.8,4.9-3.2,6.5c-2.7,1.8-5.1,3.9-8.8,5.4
			c0.6-2.6,1.2-5.2,1.8-7.8c1-3.9,0.7-4.4-4.3-6.2c-4,4.8-4.3,11-4.8,16.6c-0.6,7.4-4.6,11.9-9.5,16.5c-5-1.1-6.8-4.7-7.4-9
			c-0.6-4.3-0.8-8.7-0.7-13.1c0.2-12.4,7.1-20.9,17.1-27.1c8-5,16.1-9.7,24.6-13.7c13.6-6.5,27.5-12.3,41.3-18.3
			c0.6-0.3,1.2-0.3,1.9-0.4C12.6-663.6,11.5-646.3,9.7-640.4z"/>
		<path d="M-126.7-770.5c-0.3-6.6-2.4-12.1-4.8-17.4c-5.7-12.6-11.4-25.1-17.2-37.6c-2.1-4.5-2.7-9.1-2-14.7
			c16.9-1.8,30.3,3.7,40,19.1c2.2-3.6,4.1-6.3,5.5-9.1c2.9-5.7,6.5-10.9,11-15.4c3.6-3.7,6.9-3.2,9.2,1.3c5.2,10.2,5.8,21,3.2,31.9
			c-1.7,7.4-3.9,14.8-6.7,22c-1.9,5-5.1,9.6-7.8,14.4c-1.1,1.8-2.4,3.5-3.7,5.4c4.5,1.6,18.2,1.3,25.2-0.5
			c-9.8-17.4-4.8-30.6,16.4-32.8c-0.5-7.9,0.9-15.5,4.6-22.7c2.8-5.4,7.1-8.7,12.7-10.7c2.8-1,5.1-0.7,7.5,2.5
			c-1.1,1-2.1,2.5-3.4,3.1c-10.6,5.3-15.4,14.5-13.5,25.9c5.5-2.6,10.9-6.8,16.7-7.5c5.9-0.7,12.2,2.1,18.5,3.4
			c4.6-8.8,10.5-8.7,21-0.3c1.9-3.5,3.8-7,6.1-11c-1.3-1.3-3-2.6-4.3-4.3c-2.9-3.8-6-7.5-8.4-11.6c-1.2-2.1-1.7-5-1.7-7.5
			c0-5,2.8-7.7,7.7-7.9c4.6-0.2,8.7,0.9,11.7,4.7c0.8,1,1.8,1.8,3.3,3.3c2-5.3,3.8-10,5.9-15.4c-2.4-1.9-4.9-3.3-6.7-5.4
			c-3.4-3.9-7-7.9-9.5-12.4c-3.5-6.5,1-12.6,8.4-11.8c3.2,0.3,6.3,1.5,9.5,2.3c1.5-3,2.7-6.1,4.5-8.8c2.4-3.9,5.9-4.9,10.2-3.7
			c3.9,1.1,6.3,3.7,6,8.3c-0.3,3.8-1.3,7.8-3,11.1c-1.9,3.6-5.2,6.4-7.8,9.6c-1,1.3-1.9,2.7-3.2,4.7c2.5-0.1,4-0.3,5.4-0.2
			c2.6,0.2,5.3,0.1,7.7,0.9c7.7,2.7,9,9,3,14.6c-2.7,2.5-6.1,4.3-9.2,6.2c-1.3,0.8-2.8,1.3-4.2,1.9c-7.3,3.3-13.5,7.5-12.7,17.3
			c1.7,1.2,3.7,2.7,5.9,4c2.9,1.8,5.1,1.1,5.8-2.2c0.9-3.7,2-6.7,6.4-7c0.6,0,1.4-1,1.7-1.7c1.3-2.9,3.1-5.2,6.4-6.2
			c0.9-0.2,1.8-1.3,2.1-2.2c1.4-4.8,5.2-6.1,9.4-6.4c3.5-9.2,11.5-11.5,20-13.9c5-9.8,6.7-10.5,18.1-6.6c3.5-3.1,7.2-7.4,12.8-3.7
			c4.9,3.2,5.8,7.9,4.1,13.1c8.9,7.6,8.4,10.3-2.2,15.1c-1.4,0.6-2.6,1.4-3.9,2.1c3.8,8.4,2.3,11.5-7.2,15.1
			c-2.5,7.6-2.7,7.7-10.5,9.4c0,6.7-4.5,9.1-10.8,9.7c0.5,4.9-0.7,8.5-5.6,10c-0.5,0.2-1.2,0.8-1.3,1.4c-1.2,7.2-6.9,8.3-12.6,9.5
			c-0.4,0.1-0.8,0.3-1.4,0.5c-0.8,2.6-1.7,5.2-2.8,8.7c3.7,0,7.1,0,10.5-0.1c3.3-0.2,6.5-0.7,9.8-0.8c2.1-0.1,4.3-0.1,6.2,0.6
			c3.4,1.2,5.1,3.7,5.3,7.5c0.1,3,1.1,6,1.5,9c0.3,2.6,0.3,5.2,0,7.8c-0.4,4.1-1.1,8.1-1.9,13.1c-1.7,0.5-4.1,1.3-6.5,2.1
			c-2.8,0.9-4.3,2.5-4.5,5.6c-1.2,19.2-2.2,38.5-3.8,57.7c-1.2,14.2-3.2,28.3-5,42.4c-3.3,26.3-6.7,52.5-10.3,78.8
			c-2.2,16.3-4.8,32.5-7.2,48.8c-0.6,3.9-0.9,27.3-0.1,33.1c0.5,3.5-1.3,4.8-4.4,5c-28.4,2-56.5,7.2-85.1,6.2
			c-8.5-0.3-17.1,0.5-25.6,0.5c-11.6,0-23.2-0.2-34.8-0.6c-7.1-0.2-10.7-3.7-11.8-10.7c-4.8-32.3-7.6-64.8-8.7-97.5
			c-0.7-22.1-1.4-44.3-3.7-66.2c-1.4-14.2-1.9-28.4-3.2-42.5c-1.3-14.2-3-28.3-4.8-42.4c-0.5-4.1-1.9-8-2.9-12.3
			c-5.8-0.1-7.5-3.6-7.8-8.2c-0.3-3.7-0.4-7.4-0.6-11.1c-0.3-5.7,2.5-11.4-1.1-16.3C-142-768-132.9-770.8-126.7-770.5z M-97.8-826.4
			c1.7,0.2,3.5,0.1,5.2,0.5c3.2,0.8,3.8,2.8,2.3,5.9c-4.2,9.1-8.5,18.2-12.4,27.4c-2.1,4.9-3.3,10.2-4.9,15.3
			c6-3.7,9.4-8.9,11.7-14.8c4.2-11.1,7-22.4,8-34.3c0.4-4.2-0.6-7.6-2.2-11.2c-4.2,3.1-5.4,4.9-7.5,11.2
			c-7.6,10.3-12.6,21.7-14.7,34.4c1-0.6,1.6-1.4,2-2.3c3.9-9.3,7.9-18.5,11.7-27.8C-98.1-823.3-98.1-824.9-97.8-826.4z
			 M-100.2-469.2c14.5,1.7,28.3,2.2,42,0.3c19.2-2.7,38.4-2.8,57.7-2.1c8.6,0.3,17-0.6,25.5-1.7c3.5-0.5,4.9-2.2,5.1-5.6
			c0.4-5.7,0.8-11.4,1.7-17c5-32.2,10.2-64.4,15.2-96.6c3-19,5.7-38.1,8.9-57.1c4-23.8,5.4-47.8,6.2-71.9c0-1.4-0.4-2.9-0.8-4.9
			c-11.5,0.3-22.7,0-33.7,1.1c-26.2,2.6-52.3,4.7-78.7,4.8c-14.4,0.1-28.9,0.7-43.3,1.6c-8.8,0.5-17.6,2.1-27.2,3.3
			c1.5,10.9,3.3,21.4,4.3,32.1c1.8,18.9,3.3,37.9,4.6,56.9c0.8,11.6,0.6,23.2,1.1,34.8c0.4,8.5,1.6,17,2,25.5
			c1.1,27.8,3,55.5,6.8,83.1C-102.3-478.4-101.2-474.1-100.2-469.2z M80.5-768.8c-2.4-0.2-4.1-0.5-5.8-0.4
			c-21.4,0.6-42.9,1-64.3,2.1c-17,0.9-34,2.9-51,3.8c-19.2,1-38.5,1.5-57.7,2.1c-3,0.1-6.1-0.4-9.2-0.6c-9.1-0.4-18.2-0.8-27.3-1.1
			c0.4,7.8,0.7,15.1,1.1,23c3.6-0.2,6.6-0.4,9.6-0.5c29.1-0.8,58.2-1.6,87.3-2.3c15.5-0.4,31.1-0.4,46.6-1
			c13.6-0.5,27.1-1.6,40.6-2.4c8.5-0.5,17.1-0.9,25.5-1.6c5.2-0.5,6-1.5,5.9-6.7C81.7-759,81-763.5,80.5-768.8z M-33.1-802.6
			c-5,0.7-7,4.3-9.5,7.2c-3.9,4.5-4.8,4.6-9.8,1.8c-1.7-1-3.2-2.3-5.1-2.9c-1.7-0.6-3.9-1.1-5.5-0.7c-5.2,1.4-9.3,8.2-8.6,13.9
			c0.8,7.3,5.4,13.1,11.4,12.8c6.8-0.3,14.4,2.3,20.2-3.9c0.5-0.5,1.6-0.7,2.5-0.7c4.6-0.3,6.3-3.6,7.4-7.3
			C-28.2-789.4-28.6-796.2-33.1-802.6z M23.1-800.8c-0.5-0.4-0.9-0.8-1.4-1.2c-4.5,2.5-10,4.2-13.2,7.8c-4.5,5.1-7.2,11.6-8.6,19.3
			c7.3-0.4,13.7-0.7,20.3-1c-0.4-2.1-1-4-1-5.9c0-2.6-0.4-5.9,1-7.6C23.4-793,22.5-797,23.1-800.8z M-126.2-794.8
			c2.9-4.5,2.5-8.1,0.5-11.5c-2.3-3.9-5-7.6-7.6-11.4c-1.2-1.7-3.3-3-2.2-5.8c3.2-1.3,5.6-0.5,7.7,2.5c2.2,3.2,4.7,6,6.9,8.8
			c3.6-1.5,3.2-3.5,2.5-5.8c-1.6-5.1-5.7-8.2-9.2-11.7c-4.3-4.2-9.5-4.6-16.3-2.9C-138.2-819.7-133.8-807-126.2-794.8z M14.8-827.2
			c3.8-6.9,0.5-11.8-2.6-16.9c-1.2-2-2.8-3.7-5.3-2.7c-2.8,1.2-2.7,3.8-1.9,6.2C6.7-835.2,9.4-830.7,14.8-827.2z M26.4-867.3
			c2.4-7,1-13.2-3.5-15.8c-1.4-0.8-4.2-1.1-5.2-0.3c-1.1,0.8-1.5,3.7-0.9,5.1C18.5-873.7,21.6-870.2,26.4-867.3z M68-795.3
			c-3.1-1.4-5.5-2.3-7.8-3.4c-5.9-2.7-7.4-2-9.4,4.7C57.9-790.7,61.2-790.8,68-795.3z M78.6-827.1c4.7,1.7,8.1,3.1,11.6,4.1
			c2.2,0.7,4.7,0.5,5.6-2c1-2.8-1.6-3.7-3.6-4.5c-2.6-1-5.3-1.7-8.3-2.6C82.4-830.8,81-829.5,78.6-827.1z M68.2-817.7
			c8,5.4,13.1,5.8,17.1,1.9c-2.1-2.1-9.9-5.9-11.9-5.3C71.8-820.6,70.4-819.2,68.2-817.7z M31.7-847.7c5.8-2.9,12.6-4.5,15.4-11.8
			C40.4-860.8,34-855.9,31.7-847.7z M-9.2-789.1c-2.7,5.3-5,10.1-7.5,15c3-0.1,5.5-0.3,8.1-0.4C-8.3-779.5-4.7-784-9.2-789.1z
			 M94.7-849.6c2-3.4,2.4-6.8,2.5-10.1c0.1-2.2-0.6-4.6-3.5-4.5c-2.6,0.1-3.7,2.1-3.8,4.5C89.9-855.8,91.6-852.7,94.7-849.6z
			 M53.9-785.5c-4.4-2.5-8.1-2.7-10.3-0.5c-1.8,1.9-3.6,4-1.1,6.9C47.3-779.5,52.1-779.7,53.9-785.5z M45.6-823.7
			c-3.1,5.9-0.6,12.8,4,14.7c0.7,0.3,1.8,0.2,2.4-0.2c0.5-0.4,0.9-1.7,0.6-2.3C50.4-815.5,48-819.6,45.6-823.7z M37.2-815.1
			c-2,6.3,0.6,13.6,5,15.5c0.8,0.4,2.3-0.7,3.6-1.1C42.8-805.6,40.3-809.8,37.2-815.1z M91.2-837.6c8.9,6.7,12.1,6.8,14.1,1.2
			c-3.2-1.4-6.3-2.8-9.8-4.4C94.4-840,93.1-839,91.2-837.6z M31.8-798.9c-3.7,5.4-2.9,8.8,3.2,13c1.1-1.6,2.1-3.1,3.1-4.6
			C35.9-793.5,33.8-796.2,31.8-798.9z M75.5-804.6c-5.6-6-11.7-7-14.4-2.8C70.4-802.6,71-802.5,75.5-804.6z M53.6-832.1
			c-4.4,5.4-2.3,10.6,5.5,13.1C57.4-823.5,59.3-829.3,53.6-832.1z M-3.1-795.9c3.7-5.2,2.8-11.2-2.2-14.5
			C-8.3-804.9-5.4-800.6-3.1-795.9z M77.8-836.2c2.3-6.5-3.4-8.9-5.1-13.5C69.1-844.4,71.2-839.1,77.8-836.2z M23.5-817.7
			c-5.3,2.4-7.6,5.6-7.4,10.6C24.8-811.3,25.4-812.1,23.5-817.7z M65.2-829.2c0.6-0.3,1.2-0.6,1.8-0.9c0.8-3,0.1-5.8-1.4-8.5
			c-0.9-1.7-2.4-3.1-4.1-1.8c-1.1,0.8-2,3.3-1.5,4.3C61.3-833.5,63.5-831.4,65.2-829.2z M40.5-892.7c-4.3,3.9-4.7,5-3.6,10.2
			C41.5-886.9,41.6-887.3,40.5-892.7z M107.5-858.7c2.5-2.2,4.9-3.6,3.8-7c-0.1-0.4-1.2-0.9-1.6-0.7
			C106.7-864.8,106.8-862.2,107.5-858.7z M29-776.6c-0.3-2.3-0.7-4.5-1-6.8C25.7-780.8,26.4-778.6,29-776.6z M82.1-854.3
			c-0.3,0.4-0.7,0.9-1,1.3c1.1,0.9,2.2,1.8,3.4,2.8c0.3-0.3,0.5-0.6,0.8-0.9C84.2-852.2,83.2-853.3,82.1-854.3z"/>
		<path d="M-65.3-573.5c-3.9,6.5-7.6,12.9-11.4,19.1c-4.9-2.3-5.8-3.7-3.9-7.8c1.8-3.9,4.1-7.8,6.6-11.3c3.2-4.4,3.6-8,0.3-12.9
			c-7.5-10.8-7.6-23-4.6-35.3c2-8,7.2-14.1,14-18.4c9.8-6.1,19.8-12,30.2-17.2c12.3-6.1,25.1-11.3,37.6-17.1c4-1.8,7.7-4.2,11.7-6
			c1.9-0.8,4.2-1.1,6.2-0.8c2.9,0.5,4.2,2.5,3.9,5.8c-0.4,4.3-0.1,8.7-0.3,13c-0.3,9.2-0.3,18.4-1.2,27.5
			c-1.1,12.4-2.7,24.7-6.9,36.6c-2.9,8.2-6.7,15.6-13.9,20.9c-4.6,3.3-8.8,7.2-13.4,10.6c-6,4.5-12.7,6.4-20.3,6
			c-10.4-0.6-20.4-2-28.7-9.2C-60.9-571.3-62.9-572.2-65.3-573.5z M-37.6-635.9c8,2.1,5.2,9.9,8.2,14.6c3.6-2.3,6.1-4.3,5-9
			c-0.6-2.9,0.3-6.1,0.4-9.1c0.1-2.9,0-5.8,0-9.1c7.9,1.9,6,8.1,6.8,13.6c5.9-4,6.7-11.5,12.5-14.3c4.4,3.5,4.4,3.5,1.4,10.8
			c2.4-0.6,4.5-1.3,6.6-1.6c2.1-0.3,4.2-0.2,6.3-0.4c1.8-5.9,2.8-23.2,1.7-28.3c-0.6,0.1-1.3,0.2-1.9,0.4
			c-13.8,6.1-27.7,11.9-41.3,18.3c-8.5,4-16.7,8.7-24.6,13.7c-9.9,6.2-16.9,14.7-17.1,27.1c-0.1,4.4,0.2,8.8,0.7,13.1
			c0.6,4.3,2.4,7.9,7.4,9c4.9-4.5,8.9-9.1,9.5-16.5c0.4-5.6,0.7-11.8,4.8-16.6c5.1,1.9,5.3,2.3,4.3,6.2c-0.6,2.6-1.2,5.2-1.8,7.8
			c3.7-1.5,6.1-3.6,8.8-5.4c2.4-1.6,3.5-3.4,3.2-6.5C-37.2-623.8-37.3-629.4-37.6-635.9z M-40.3-598.7c2.6-0.1,5.2-0.2,7.8-0.4
			c2.6-0.2,5.3,0,5.7,3c0.4,3.1-2.5,3.2-4.5,3.5c-4.7,0.8-9.5,2-14.3,2c-7.6-0.1-10.8,4.3-13.5,11.1c4.7,2.3,9.2,4.5,13.7,6.6
			c0.9,0.4,2.2,0.6,3.2,0.4c14.9-1.8,28.4-6.5,38.4-18.7c4.3-5.2,7.5-10.7,8.8-17.3c1.3-6.6,2.8-13.3,4.1-19.9
			c0.3-1.7,0.3-3.6,0.4-6.3c-11,5.6-23.7,5.8-30.6,17.7c2.6,0.2,4.7,0,6.4,0.7c1.3,0.6,2.4,2.3,2.8,3.8c0.1,0.5-1.8,2.2-3,2.5
			c-3.4,0.6-7,1.2-10.4,1.1C-32.7-609.2-36.6-604.4-40.3-598.7z"/>
		<path class="st9" d="M80.5-768.8c-2.4-0.2-4.1-0.5-5.8-0.4c-21.4,0.6-42.9,1-64.3,2.1c-17,0.9-34,2.9-51,3.8
			c-19.2,1-38.5,1.5-57.7,2.1c-3,0.1-6.1-0.4-9.2-0.6c-9.1-0.4-18.2-0.8-27.3-1.1c0.4,7.8,0.7,15.1,1.1,23c3.6-0.2,6.6-0.4,9.6-0.5
			c29.1-0.8,58.2-1.6,87.3-2.3c15.5-0.4,31.1-0.4,46.6-1c13.6-0.5,27.1-1.6,40.6-2.4c8.5-0.5,17.1-0.9,25.5-1.6
			c5.2-0.5,6-1.5,5.9-6.7C81.7-759,81-763.5,80.5-768.8z"/>
	</g>
	<g>
		<path class="st4" d="M405.8-718.1c-29.5,0.5-59.1,1.6-88.6,2.5c-1.7,0.1-3.5-0.1-5.3-0.1c-18.2,0.1-36.4,0.1-54.5,0.3
			c-4.1,0.1-8.1,1-12.6,1.6c0,8.2-0.2,15.8,0.1,23.4c0.8,17.3,1.9,34.5,2.7,51.8c1.2,24.9,2.1,49.9,3.3,74.8
			c1.2,25.8,2.6,51.6,4,77.4c0.3,5.7,0.6,11.3,2.8,16.4c0.8,0.2,1.2,0.5,1.6,0.5c21.2-0.2,42.5-0.5,63.7-0.7c1.7,0,3.5-0.2,5.2,0
			c18.1,2.5,36.3,0.6,54.5,0.3c1.9,0,3.7-0.5,4.6-0.7c5.4-27.7,11-54.5,15.6-81.4c4.7-27.2,8.6-54.5,12.4-81.8
			c3.8-27,8.9-53.8,11.3-81.3C419.1-716.2,412.4-718.2,405.8-718.1z M291.1-625.7c3.7-2.3,6.5-4.1,10-6.4c0.8,3.7,1.3,6.6,2.1,10.6
			C298.6-623.1,295.4-624.3,291.1-625.7z M325.7-586.6c-2.4-1.8-4.1-3-6.5-4.8c2.4-2.1,4.4-3.7,6.3-5.4c0.4,0.2,0.8,0.5,1.2,0.7
			C326.4-593.3,326.1-590.4,325.7-586.6z M350.4-626.1c-4.2-2.2-7.3-3.7-10.8-5.5c3.1-4.6,7.6-6,12.3-8.3
			C353.2-635,351.5-631.2,350.4-626.1z"/>
		<path d="M386.7-780.3c4.6-8.2,9.2-16.3,13.7-24.5c8.5-15.6,16.9-31.2,25.3-46.8c1.2-2.3,2.5-4.6,3.4-7.1
			c3.3-8.6,14.7-13.7,23.1-10.1c3.4,1.5,6.9,2.9,9.9,5c2.6,1.8,5.1,4.2,6.8,6.9c2.8,4.3,2.1,6.5-1.5,10.5c-2,2.3-3.5,4.9-5,7.5
			c-2.2,3.8-4,7.8-6.3,11.5c-8.3,13.7-16.7,27.3-25,40.9c-1.2,2-2.3,4.1-4,7c4.9,1.3,9.3,1.4,13.3,0.4c6.2-1.6,10.8,2.7,16.1,3.8
			c1,0.2,2,2.8,2.1,4.3c0.6,9.2,1,18.3,1.4,27.5c0,0.4,0,0.9,0,1.3c-0.1,10.2-1.1,11.3-11.3,13c-1,0.2-2.1,0.6-3.3,0.9
			c-1,5.5-1.9,10.8-2.8,16.2c-2.5,14.7-5.3,29.3-7.4,44c-2.5,17.3-4.8,34.7-6.3,52.2c-2,22.5-5.5,44.7-9.7,66.9
			c-4,20.9-8.4,62-12.7,82.8c-0.6,3.1-21.6,5.3-38,6c-16.6,0.7-33.3,0.7-49.9,0.6c-15.3-0.2-30.6-1.1-46-1.5
			c-5.9-0.2-11.8,0-17.7-0.1c-4.3-0.1-4.7-0.6-5-5c-1.9-25.8-3.8-51.5-5.5-77.3c-0.5-6.8-0.4-13.6-0.7-20.3
			c-1.1-24.9-2.3-49.9-3.6-74.8c-0.7-13.6-1.7-27.1-2.3-40.6c-0.4-9-0.3-18-0.5-26.9c-0.2-9.6-0.9-19.2-4.3-28.3
			c-2.9-0.8-6.6-0.7-8.4-2.6c-1.4-1.4-0.2-5.2-0.3-7.9c-0.2-6.7-0.6-13.5-0.7-20.2c0-2.8,0.6-5.6,1-9.4c12.6-0.1,24.9-0.2,37.9-0.2
			c-0.1-2.2,0.1-3.7-0.3-5.1c-5.3-20.3-10.5-40.7-16-61c-1-3.5-3.2-6.7-4.8-10c-1.4-2.8-0.1-6,2.8-5.7c6.1,0.6,10.9-2.8,16.3-4.3
			c14.3-3.9,28.7-7.8,42.8-12.4c16.7-5.4,33.1-11.4,49.6-17.1c1.4-0.5,2.8-1.4,4.2-1.9c4.4-1.5,7.9,0,9.2,4.6
			c1.4,5,2.4,10.2,3.3,15.4c1.9,11.2,3.7,22.5,5.5,33.7c0.8,5.2,1.6,10.4,2.4,15.6c2,12.7,4,25.5,6.1,38.2c0.2,1.5,1,2.8,1.5,4.2
			C385.8-780.3,386.3-780.3,386.7-780.3z M244.8-713.7c0,8.2-0.2,15.8,0.1,23.4c0.8,17.3,1.9,34.5,2.7,51.8
			c1.2,24.9,2.1,49.9,3.3,74.8c1.2,25.8,2.6,51.6,4,77.4c0.3,5.7,0.6,11.3,2.8,16.4c0.8,0.2,1.2,0.5,1.6,0.5
			c21.2-0.2,42.5-0.5,63.7-0.7c1.7,0,3.5-0.2,5.2,0c18.1,2.5,36.3,0.6,54.5,0.3c1.9,0,3.7-0.5,4.6-0.7c5.4-27.7,11-54.5,15.6-81.4
			c4.7-27.2,8.6-54.5,12.4-81.8c3.8-27,8.9-53.8,11.3-81.3c-7.5-1.2-14.2-3.2-20.8-3.1c-29.5,0.5-59.1,1.6-88.6,2.5
			c-1.7,0.1-3.5-0.1-5.3-0.1c-18.2,0.1-36.4,0.1-54.5,0.3C253.3-715.2,249.3-714.3,244.8-713.7z M447.8-769.7
			c-3.9-0.3-7.1-0.8-10.3-0.6c-14.9,0.6-59.9,2.5-63,2.6c-18.8,0.3-37.6,0.7-56.4,1c-11.6,0.2-23.2,0.1-34.8,0
			c-4.1,0-32.1,0.9-40.5,0c-4-0.4-8.1,0.3-12.4,0.5c-0.9,8.1-2,15.3,0.9,23.2c3.4-0.2,6.4-0.5,9.4-0.4c32.6,0.1,65.2,0.5,97.8,0.4
			c33.5-0.1,67-0.2,100.4,1.9c2.5,0.2,5-0.2,7.6-0.3C447-751.2,447.4-759.8,447.8-769.7z M361.6-800.2c-10.1,4.1-19.8,7.8-29.3,12.1
			c-9.6,4.4-20.5,5.7-30.1,12.3c5.1,0.9,9.1,0.4,13.1-1.1c13.3-5,26.7-9.7,40.1-14.6c3.7-1.4,7.4-2.8,11-4.3c2.6-1.1,4.3,0,5.7,1.8
			c1.5,2.1,0.1,3.7-1.5,5c-0.8,0.7-1.7,1.2-2.5,1.8c1.5,1.7,2.9,3.2,4.5,5c-2.2,2-3.9,3.6-6.6,5.9c4.3-0.2,7.3-0.4,10.9-0.5
			c-5.1-33.6-10.1-66.6-15.2-99.7c-0.2-1.5-0.5-3-1-4.5c-0.2-0.8-0.8-1.4-1.5-2.5c-5.5,2-10.7,4-16.1,5.7
			c-16.9,5.4-33.6,11.4-50.8,15.6c-12.6,3.1-24.8,7-36.9,11.6c-1.3,0.5-2.5,1.5-3.2,1.9c6.6,24.8,13.1,49,19.7,73.8
			c3.7-0.4,7.4-0.1,10.5-1.3c10.4-4,20.5-8.6,30.8-12.8c11.5-4.7,23.2-9.2,34.8-13.8c2-0.8,4-1.8,6.2-2.2
			C357.5-805.7,360.3-805,361.6-800.2z M432.8-832.6c3.5-1.4,3.5-1.4,10.3-0.2c7.2,1.3,7.2,1.3,10.6-5.1c0.7-1.3,1.1-2.7,1.7-4.5
			c-7.5-2-14.6-3.9-21.7-5.9c-5.9,7.2-36.6,64.2-38.1,70.9c3,0.6,6.4,1.6,8.6-0.7c2-2,3.7-1.6,5.8-1.6c2.3,0,5,0.8,7.3-1.3
			c-6.4-2.6-6.4-2.6-7.3-7.2c3,0.4,5.7,0.5,8.4,1.1c3,0.7,4.6,0,4.8-3.2c-3.1-2.3-8.7-1-9.7-7.6c3.3,0.4,6,0.6,8.6,1
			c6.5,1,6.4,1.1,8.8-5.6c-3.1-3-9.3-2.8-10.4-9.8c4,1.2,7.2,2.3,10.5,3.1c4.5,1.2,5,0.8,6.1-4.6c-2.4-3.3-8.8-2.5-8.8-9.5
			c3.2,0.9,6,1.7,8.8,2.5c5,1.4,5.2,1.3,7.4-4.5C441-827.8,434.7-826.3,432.8-832.6z M464.2-854.3c-4.6-2.5-7.8-3.7-10.4-5.8
			c-2-1.6-3.3-2-4.9-0.1c-2.1,2.4-2,6.7,0.2,7.4c2.6,0.9,5.5,1.3,8.3,1.1C459.3-851.7,461.1-853,464.2-854.3z M336.4-776.9
			c9.3,2.2,16.1-2.9,23.3-6.5c-0.1-0.4-0.3-0.8-0.4-1.2C351.7-782.1,344-779.5,336.4-776.9z"/>
		<path d="M356.9-621.2c-4.8,1.9-8.5,1.4-12.1-0.8c-2.8-1.7-5.8-3-8.6-4.7c-1.6-1-3.2-2.4-4.1-4c-2.1-3.5-1.5-5.3,1.8-7.7
			c1.4-1,2.8-2,4.8-3.4c-3.7-5.8-7.2-11.4-11.3-17.9c-1.6,2-2.7,3.4-3.9,4.7c-3.4,3.6-6.9,7.3-10.4,10.8c-1.6,1.5-3.4,2-5.2,0.2
			c-1.8-1.9-1.9-3.8-0.1-5.8c3.9-4.4,7.7-9,11.8-13.2c4.6-4.8,10-4.2,13.8,1.2c3.1,4.5,6.1,9.1,9.1,13.6c0.6,0.9,1.5,1.6,2.4,2.5
			c2.1-0.8,4.1-1.6,6.2-2.2c6.8-1.7,10.5,1.8,9.3,8.6C359.1-633.2,358-627.2,356.9-621.2z M350.4-626.1c1.1-5.1,2.8-9,1.5-13.8
			c-4.6,2.3-9.2,3.7-12.3,8.3C343.1-629.8,346.2-628.2,350.4-626.1z"/>
		<path d="M334.4-593.1c8.2-0.4,16.2-0.8,25.4-1.2c-1.6-3.7-2.9-6.6-4-9.5c-1-2.8-1.6-5.6-2.6-8.9c3.9-0.3,5.8,1.1,7,3.7
			c2.1,4.3,4.3,8.6,6.3,12.9c2.2,4.6,0.2,8.1-5,8.5c-6.7,0.5-13.4,0.9-20.2,1.5c-2.6,0.2-5.1,1-8.2,1.6c-0.2,3.4-0.2,6.6-0.6,9.8
			c-0.1,1.1-1.1,2.6-2,2.8c-0.9,0.2-2.8-0.6-3.2-1.5c-2.8-6.3-8.4-10-13.1-14.4c-1.4-1.3-2.4-3-3.8-4.7c4.2-6.2,9.7-10.4,15.4-14.4
			c3.4-2.4,7.3-0.1,8,4.5C334.4-599.5,334.3-596.4,334.4-593.1z M325.7-586.6c0.4-3.8,0.7-6.7,1-9.5c-0.4-0.2-0.8-0.5-1.2-0.7
			c-1.9,1.7-3.9,3.3-6.3,5.4C321.6-589.7,323.3-588.4,325.7-586.6z"/>
		<path d="M288.5-618.9c-9-7.5-9-8.3,0.6-14.6c3.6-2.4,7.3-4.8,11.3-6.5c3.9-1.7,6.2-0.1,7,4.1c1.2,5.8,2.4,11.6,3.5,17.4
			c1,5.3-0.2,6.6-5.3,5.2c-2.9-0.8-5.7-2-9-3.2c-4.6,5-6.7,11.6-10.5,18.6c5,0.4,8.8,0.8,12.7,1.1c1.5,0.1,3.2-0.2,4.5,0.3
			c1.1,0.4,2.3,1.6,2.5,2.7c0.1,0.9-0.9,2.4-1.8,2.9c-1.5,0.8-3.3,1.4-4.9,1.3c-4.6-0.3-9.1-0.9-13.7-1.4c-7.2-0.8-9.1-4.2-5.9-10.7
			C282.6-607.4,285.6-613.2,288.5-618.9z M303.3-621.5c-0.8-4-1.4-6.9-2.1-10.6c-3.5,2.3-6.4,4-10,6.4
			C295.4-624.3,298.6-623.1,303.3-621.5z"/>
		<path d="M266.6-842.1c11.6-4.2,22.5-8.3,33.4-12.2c5.8-2,11.6-4,17.5-5.6c6.5-1.8,10.6,0.7,12.1,7.3c2.1,9.4,4,18.8,6,28.2
			c0.6,2.8,1.2,5.6,2,8.3c1.7,5.4,0.6,8.6-4.3,11.4c-1.7,1-3.6,1.6-5.4,2.3c-14.4,5.7-28.8,11.5-43.2,17.2c-3.9,1.6-6.2,0.9-7.8-3
			c-1-2.4-1.7-5-2.2-7.5c-2.5-12.2-5.1-24.4-7.4-36.7C266.6-835.3,266.8-838.4,266.6-842.1z M282.9-793c16.3-7.5,32.7-12,48.3-19.5
			c-4.9-13.2-3.5-27.3-9.4-40.6c-16.7,3.9-32.2,10.5-48.7,16.6C276.4-822,279.5-808,282.9-793z"/>
		<path d="M340.2-820.3c6.1-2.2,12.1-4.6,18.3-6.5c1.2-0.4,3,1,4.4,1.5c-0.5,1.3-0.7,3.3-1.7,3.8c-5.1,2.4-10.2,4.9-15.6,6.5
			c-1.5,0.4-3.8-1.9-5.8-3C339.9-818.8,340-819.6,340.2-820.3z"/>
		<path d="M349.3-847.6c-1.9,0.4-3.9,0.5-5.7,1.2c-3.9,1.5-6.3,0.3-7.9-4c4.8-4.3,10.9-5.8,17.1-6.8c1.7-0.3,3.7,1.4,5.6,2.1
			c-1.6,5.3-6.1,5.5-9.2,7.6L349.3-847.6z"/>
		<path d="M349.1-847.5c0.4-0.1,0.8-0.3,1.3-0.3c2.9-0.4,6.1-0.9,7.1,2.7c1,3.7-2.6,3.8-4.8,4.9c-2.5,1.2-5.1,2.4-7.7,3.4
			c-3.9,1.4-4,1.3-7.6-2.8c2.4-5,8.1-5.1,12-7.9L349.1-847.5z"/>
		<path d="M360.7-834.5c-3.1,6.3-8.5,5.6-12.5,7.3c-4.2,1.8-4.5,1.3-7.9-3.7c4-3.7,8.9-5.2,14.1-5.5
			C356.2-836.5,358.2-835.3,360.7-834.5z"/>
		<path d="M333.8-860.4c4.5-3.3,9.7-4.4,14.7-5.7c2.3-0.6,4.5,0.2,5.2,2.8c0.7,2.6-1.6,3.3-3.4,4c-3,1.2-6.1,2.2-9.2,3.2
			C337.5-854.9,335.1-856,333.8-860.4z"/>
		<path class="st4" d="M447.8-769.7c-3.9-0.3-7.1-0.8-10.3-0.6c-14.9,0.6-59.9,2.5-63,2.6c-18.8,0.3-37.6,0.7-56.4,1
			c-11.6,0.2-23.2,0.1-34.8,0c-4.1,0-32.1,0.9-40.5,0c-4-0.4-8.1,0.3-12.4,0.5c-0.9,8.1-2,15.3,0.9,23.2c3.4-0.2,6.4-0.5,9.4-0.4
			c32.6,0.1,65.2,0.5,97.8,0.4c33.5-0.1,67-0.2,100.4,1.9c2.5,0.2,5-0.2,7.6-0.3C447-751.2,447.4-759.8,447.8-769.7z"/>
	</g>
	<g>
		<path class="st22" d="M790.9-719.3c-9,0.1-17.9,0.4-26.9,0.4c-22.3,0-44.7-0.1-67-0.2c-14.9-0.1-29.8-0.1-44.6-0.1
			c-4.6,0-9.2-0.2-13.8,0c-8.5,0.3-16.9,0.8-26,1.2c0,8.6-0.2,16.9,0.2,25.1c0.9,17.5,2.2,35,3.4,52.4c1.2,18.8,2.6,37.6,3.7,56.4
			c1.4,22.3,2.3,44.6,4.2,66.9c1.3,15.3,3.7,30.4,5.7,45.6c0.1,0.8,0.6,1.6,1.2,2.9c3.2,0.1,6.4,0.3,9.7,0.2
			c7.2-0.1,14.5-0.7,21.7-0.4c25.4,1.3,50.7,0.9,76.1-0.4c2.2-0.1,4.4-0.4,6.5-0.6c3.7-0.3,6-2,6.4-6c0.4-3.3,1.2-6.5,1.9-9.7
			c7.3-34.5,15.1-68.9,20.2-103.8c1.7-11.3,2.9-22.6,5.1-33.7c5.6-29,11.6-57.9,17.4-86.9c0.5-2.7,1-5.5,1.6-8.8
			C794.8-719,792.8-719.3,790.9-719.3z M713.4-628.1c6.1,6,12.6,11.5,18.9,17.2c2.2,2,4.3,4.2,6.8,6.7c-3.8,3.3-7,6.2-10.9,9.6
			c-2.6-2.2-5.2-4-7.5-6.3c-6.2-6.2-12.7-12.1-20.6-16.2c-6.3-3.3-6.2-3.1-11,1.9c-7.2,7.6-14.6,15.1-21.9,22.6
			c-0.9,0.9-2,1.6-3.6,2.9c-2.5-2.2-4.8-4.2-7.7-6.8c1.8-2.5,3.2-4.6,4.8-6.6c6.4-8.1,12.8-16.1,19.2-24.1c0.7-0.9,1.3-1.8,2-2.6
			c3.8-4.2,3.9-5.2,0.1-9c-1.7-1.7-3.8-3-5.6-4.5c-7.4-6.5-14.7-13-22.9-20.3c4.1-3.2,7.5-5.9,11.4-9c3.6,3.5,8.4,8,13.1,12.7
			c4.3,4.3,8.5,8.8,12.9,13c3.9,3.8,4.9,3.3,8.9-0.2c9.8-8.6,17.6-19.6,30.1-25.9c3.5,1.9,7.3,4,11.8,6.5c-2.4,2.5-4,4.5-5.8,6.2
			c-7.4,7.1-15,14.1-22.4,21.2C709-634.6,708.8-632.5,713.4-628.1z"/>
		<path d="M590.9-779c3.5-0.3,7.3-0.8,11.2-0.9c12-0.2,24.1-0.6,36.1-0.3c8.9,0.2,13.6-4.7,16.7-12.1c1-2.5,1.3-5.4,1.8-8
			c-0.4-0.2-0.8-0.4-1.2-0.6c-1.4,1.4-2.6,3.1-4.1,4.2c-2.6,2-5.2,4-8.1,5.3c-3.2,1.4-5.9-0.2-8-2.9c-2-2.5-2.2-5.2-0.5-7.9
			c2.4-3.8,5.6-6.7,9.9-8.3c1-0.4,2.2-0.4,3.1-0.9c0.6-0.4,1.5-1.4,1.3-1.9c-0.3-0.9-1.1-2-1.9-2.2c-4.9-1.5-11,2-12.9,7.1
			c-0.7,2-1.7,4-3,5.7c-1.6,2.2-3.8,2.9-6.3,1.3c-2.3-1.5-3.4-3.7-2.3-6.2c1-2.4,2.5-4.6,4.2-6.6c1.7-2.1,3.9-4,1.8-6.8
			c-1.9-2.5-4.7-1.9-7.2-0.9c-1.2,0.5-2.2,1.4-3.4,2.2c0.1,2,0.3,3.9,0.3,5.9c-0.2,3.9-3.6,7.3-6.5,6.8c-3.4-0.6-6.1-5-5-8.7
			c0.7-2.5,2-4.8,3.1-7.2c-3.7-3.5-3.9-3.6-9.6-0.9c-4.5,2.1-4.5,2.1-7.4-2.5c4.4-5.3,10.7-6.6,16.8-2.7c3.5,2.2,6.4,2.9,10.3,1.5
			c4.3-1.5,8.5,0,11.4,3.3c3,3.5,6.3,4,10.5,3.3c4.7-0.7,9.7,0.4,11.4,4.7c2.2,5.9,6.5,10.7,8.4,16.4c1.2,3.7-0.7,8.5-1.4,12.7
			c-0.3,1.6-1.3,3-1.3,4.9c5.1-5.8,9.9-11.9,15.3-17.4c3.5-3.5,8-6,11.9-9.1c2.6-2,6-3.7,7.3-6.4c4.7-9.2,11.9-16.7,17.4-25.3
			c2.4-3.8,5.9-4.6,9.2-1.4c2.2,2.1,4.4,3.1,7.4,3.3c1.8,0.1,3.7,1.3,5.1,2.5c4.7,3.9,14.8,9.2,20.2,11.2c2.5,0.9,4.9,2.8,6.7,4.8
			c1.5,1.8,2.9,3,5.3,3.3c6.2,0.6,9.7,3.7,9.4,10.5c4.3,2.1,7.4,4.9,9.9,9.5c3.1,5.9,8.8,10.4,13.5,15.4c0.9,0.9,2.7,1.4,4.1,1.5
			c3.7,0.2,7.4,0.3,11.2,0.2c7-0.2,10.2,2.2,10.9,9.1c0.7,6.1,0.9,12.2,1.3,18.3c0.1,1.9,0.2,3.9,0.6,5.8c0.7,3.5-0.4,5.4-3.7,6
			c-1.1,0.2-2.2-0.1-3.3,0c-1.1,0.1-2.1,0.4-3.5,0.6c-0.5,1.7-1.2,3.3-1.5,5c-3.4,15.1-31,189.7-40,231.6
			c-2.4,11.1-6.5,36.2-6.5,37.5c0.3,5.5,0,5.8-5.6,5.4c-2.6-0.2-5.2-0.3-7.9-0.2c-33.3,0.2-66.6,0.4-99.8,0.6
			c-6.8,0-13.6,0.2-20.3,0c-3.2-0.1-6.5-0.7-9.6-1.7c-3.9-1.3-2-11.2-2.2-13.2c-0.8-8.3-1.9-16.5-2.7-24.8c-1.1-10.7-2.3-21.3-3-32
			c-1.7-26-3.2-52-4.8-78c-2-31.5-4-62.9-5.9-94.4c-0.4-6.5,0.1-13.1-0.1-19.7c-0.1-3.5-0.7-7-1.3-10.4c-0.6-3-1.2-5.9-5.2-6.7
			c-1.4-0.3-3.1-2.6-3.5-4.2c-1.5-7-2.7-14.1-3.6-21.3C591-770.3,591.1-774.2,590.9-779z M797.5-718.8c-2.7-0.2-4.6-0.5-6.5-0.4
			c-9,0.1-17.9,0.4-26.9,0.4c-22.3,0-44.7-0.1-67-0.2c-14.9-0.1-29.8-0.1-44.6-0.1c-4.6,0-9.2-0.2-13.8,0c-8.5,0.3-16.9,0.8-26,1.2
			c0,8.6-0.2,16.9,0.2,25.1c0.9,17.5,2.2,35,3.4,52.4c1.2,18.8,2.6,37.6,3.7,56.4c1.4,22.3,2.3,44.6,4.2,66.9
			c1.3,15.3,3.7,30.4,5.7,45.6c0.1,0.8,0.6,1.6,1.2,2.9c3.2,0.1,6.4,0.3,9.7,0.2c7.2-0.1,14.5-0.7,21.7-0.4
			c25.4,1.3,50.7,0.9,76.1-0.4c2.2-0.1,4.4-0.4,6.5-0.6c3.7-0.3,6-2,6.4-6c0.4-3.3,1.2-6.5,1.9-9.7c7.3-34.5,15.1-68.9,20.2-103.8
			c1.7-11.3,2.9-22.6,5.1-33.7c5.6-29,11.6-57.9,17.4-86.9C796.5-712.8,796.9-715.5,797.5-718.8z M795.4-747.9c0-0.1,0-0.1,0-0.2
			c4.8-0.2,9.6-0.5,14.4-0.7c3.4-0.1,5.2-1.7,5.3-5.3c0-4.4,0.3-8.8,0.1-13.1c-0.2-4.2-0.9-4.9-5.2-5c-3.9-0.2-7.9,0.1-11.8,0.2
			c-9,0.3-17.9,0.9-26.9,0.8c-14.8-0.3-29.7-1.4-44.5-1.6c-13.3-0.2-26.6,0-40-0.4c-28-0.8-56,0.1-83.9,0.3c-2.6,0-4.5,1.2-4.5,3.7
			c-0.1,5.4-0.2,10.9,0.6,16.2c0.7,4.6,2.2,5.2,6.9,5c4.8-0.2,9.6-0.6,14.4-0.6c21.2-0.2,42.4-0.4,63.6-0.5c5.7,0,11.4,0.1,17.1,0.3
			c9.8,0.2,19.7,0.8,29.5,0.7c10.3,0,20.6-0.9,30.8-0.8C772.6-749,784-748.3,795.4-747.9z M672.3-781.5c5.8,0.3,11.1,0.2,16.2,1
			c4.5,0.7,7.2-0.5,9.6-4.5c4.6-7.9,11.8-11.3,20.9-11c4.1,0.1,8.2,0,12.4-0.2c7.2-0.3,13.1,5.1,13.4,12.3c0.1,1.3,0.1,2.5,0.2,4.4
			c8.4,0.2,16.5,0.3,24.6,0.5c-1.8-3.1-4.1-5-6.3-7.1c-1.8-1.6-4.1-3-5-5.1c-2.5-6-7.6-8.2-13-10c-5.8-1.8-10.9-4.7-14.7-9.4
			c-4.6-5.6-10.4-9.2-16.9-12c-4.9-2.1-6.3-1.9-9.4,2.4c-0.9,1.2-1.6,2.6-2.2,4c-2.8,6.5-7.4,11.1-13.7,14.5
			C680.5-797.6,675.1-791.2,672.3-781.5z M712.5-829.6c1.3,0.9,1.8,1.4,2.4,1.6c8.4,3.2,15.3,8.3,21,15.2c1.6,1.9,4.1,3.2,6.4,4.3
			c2.9,1.5,6.1,2.3,9.1,3.7c4.8,2.2,9.4,4.6,11.5,10.1c0.6,1.7,2.4,3.1,3.8,4.4c3.4,3.1,7.1,5.9,10.4,9c2.6,2.5,5.2,2.6,8.7,1
			c-1.8-3.2-2.9-7.9-5.3-8.8c-5.3-1.8-6.4-5.2-6.3-10.1c-7-0.2-9.6-4.7-10.1-11.1c-6.5,2.1-9.2-2.1-11.8-6.6
			c-5.7,1.3-9.3-1.5-12-6.3c-6.3,2.5-8.5-2.4-11.2-6.7c-5.9,3.8-9.2-0.7-12.9-4.4C714.9-832.4,713.8-831.2,712.5-829.6z M703-779.4
			c8.6-0.4,15.9-0.7,23.2-1.2c5-0.3,6-1.9,5.4-7.9C721.5-789.4,710.8-792.4,703-779.4z M640.7-799.2c0.4,0.4,0.7,0.8,1.1,1.2
			c2.3-1.4,4.9-2.5,5.6-5.4c-0.4-0.4-0.7-0.7-1.1-1.1C644.4-802.7,642.5-800.9,640.7-799.2z"/>
		<path d="M677-635c-11.1-9.5-22.7-17.8-30.7-30.3c5.1-5.8,9.9-11.2,14.6-16.6c2.5-2.8,5.2-2.1,7.6-0.3c4.2,3.2,8.1,6.6,12,10.1
			c5.8,5.3,11.4,10.7,17.3,16.3c10.1-9.1,19.8-17.9,29.9-27c5.5,0.5,10.7,3.2,15.6,6.6c2.5,1.7,4.8,3.9,7.4,5.4
			c5.3,3,6.1,7.9,6.7,12.6c-11.4,7.9-19.5,18.5-29.6,27.2c5.6,5.2,10.5,9.7,15.4,14.4c3.2,3,6.2,6.1,9.3,9.3
			c3.1,3.2,4.1,7.2,3.6,11.8c-5.8,4.1-11.1,7.8-16.3,11.6c-5.3,3.8-6.3,3.4-10.9-1.2c-7.2-7-14.8-13.5-22.2-20.2
			c-0.8-0.7-1.9-1-3.3-1.6c-9.9,9.8-19.8,19.6-30.7,30.5c-7-1.5-15.1-4.2-21.8-10.2c-1.3-1.1-2.3-2.6-3.3-4
			c-2.1-2.9-1.8-5.8,0.4-8.4c2-2.4,4.1-4.6,6-6.9C661.5-615.6,669-625,677-635z M730-672.9c-12.5,6.4-20.2,17.4-30.1,25.9
			c-4,3.5-5,4-8.9,0.2c-4.4-4.2-8.6-8.7-12.9-13c-4.7-4.7-9.6-9.3-13.1-12.7c-3.9,3.1-7.3,5.8-11.4,9c8.2,7.3,15.5,13.8,22.9,20.3
			c1.8,1.6,3.9,2.9,5.6,4.5c3.8,3.7,3.7,4.8-0.1,9c-0.7,0.8-1.4,1.7-2,2.6c-6.4,8-12.8,16.1-19.2,24.1c-1.6,2-3,4.1-4.8,6.6
			c2.9,2.5,5.3,4.6,7.7,6.8c1.6-1.2,2.7-1.9,3.6-2.9c7.3-7.5,14.7-15,21.9-22.6c4.8-5.1,4.7-5.2,11-1.9c7.9,4.1,14.3,10,20.6,16.2
			c2.3,2.2,4.9,4.1,7.5,6.3c3.9-3.4,7.1-6.3,10.9-9.6c-2.6-2.5-4.6-4.7-6.8-6.7c-6.3-5.8-12.8-11.3-18.9-17.2
			c-4.5-4.5-4.3-6.5,0.2-10.8c7.4-7.1,15-14.1,22.4-21.2c1.8-1.7,3.5-3.7,5.8-6.2C737.2-668.8,733.5-670.9,730-672.9z"/>
		<path class="st22" d="M795.4-747.9c0-0.1,0-0.1,0-0.2c4.8-0.2,9.6-0.5,14.4-0.7c3.4-0.1,5.2-1.7,5.3-5.3c0-4.4,0.3-8.8,0.1-13.1
			c-0.2-4.2-0.9-4.9-5.2-5c-3.9-0.2-7.9,0.1-11.8,0.2c-9,0.3-17.9,0.9-26.9,0.8c-14.8-0.3-29.7-1.4-44.5-1.6
			c-13.3-0.2-26.6,0-40-0.4c-28-0.8-56,0.1-83.9,0.3c-2.6,0-4.5,1.2-4.5,3.7c-0.1,5.4-0.2,10.9,0.6,16.2c0.7,4.6,2.2,5.2,6.9,5
			c4.8-0.2,9.6-0.6,14.4-0.6c21.2-0.2,42.4-0.4,63.6-0.5c5.7,0,11.4,0.1,17.1,0.3c9.8,0.2,19.7,0.8,29.5,0.7
			c10.3,0,20.6-0.9,30.8-0.8C772.6-749,784-748.3,795.4-747.9z"/>
	</g>
</g>
</svg>
