<?xml version="1.0" encoding="utf-8"?>
<!-- Generator: Adobe Illustrator 19.1.0, SVG Export Plug-In . SVG Version: 6.00 Build 0)  -->
<svg version="1.1" id="Calque_1" xmlns="http://www.w3.org/2000/svg" xmlns:xlink="http://www.w3.org/1999/xlink" x="0px" y="0px"
	 viewBox="3526.3 -498.7 369 393" style="enable-background:new 3526.3 -498.7 369 393;" xml:space="preserve">
<style type="text/css">
	.st0{fill:#6F9BBB;}
	.st1{fill:#E46D65;}
	.st2{fill:#1D1D1B;}
	.st3{fill:#FFFFFF;stroke:#E46D65;stroke-width:3;stroke-miterlimit:10;}
	.st4{fill:#6EA2C2;}
	.st5{fill:none;stroke:#E46D65;stroke-width:3;stroke-miterlimit:10;}
	.st6{fill:#C2C2C2;}
	.st7{fill:#F3F6ED;}
	.st8{fill:#EA6C65;}
	.st9{fill:#80BA40;}
	.st10{fill:#B9B8B8;}
	.st11{fill:#1A94C1;}
	.st12{fill:none;stroke:#B9B8B8;stroke-width:3;stroke-miterlimit:10;}
	.st13{fill:none;}
	.st14{fill:#EC6C65;}
	.st15{fill:none;stroke:#EC6C65;stroke-width:4;stroke-miterlimit:10;}
	.st16{fill:#169BC9;}
	.st17{fill:#FFFFFF;}
	.st18{fill:#C0C0C0;}
	.st19{fill:none;stroke:#C0C0C0;stroke-width:3;stroke-miterlimit:10;}
	.st20{fill:none;stroke:#EC6C65;stroke-width:3;stroke-miterlimit:10;}
	.st21{fill:none;stroke:#80BA40;stroke-width:3;stroke-miterlimit:10;}
	.st22{fill:#4D4D4D;}
	.st23{fill:#6DA0C0;}
	.st24{fill:#FFFFFF;stroke:#80BA40;stroke-width:3;stroke-miterlimit:10;}
	.st25{fill:#D9EAC5;}
	.st26{fill:#A6CF7A;}
	.st27{fill:#BFDC9F;}
</style>
<g>
	<path class="st4" d="M3892.5-422.4c0.1-4.5,0.5-9,0.7-13.5c0.7-15.6,1.4-31.1,2-46.7c0.1-3.9,0.6-7.9-0.4-11.8
		c-8.4-0.4-16.2-0.9-24.1-1.2c-14.2-0.5-28.5-0.8-42.7-1.4c-7.4-0.3-14.7-1.4-22-1.5c-10.2-0.2-20.4-0.1-30.6,0.2
		c-15.4,0.5-30.8,1.3-46.1,1.9c-20.1,0.8-40.1,1.8-60.2,2.3c-13.4,0.3-26.8-0.1-40.2-0.4c-14.7-0.4-29.4-1.3-44.1-1.8
		c-9.4-0.3-18.7-0.5-28.1-0.7c-6.4-0.1-12.7,0.8-18.9,2.5c-7.6,2-7.8,2.3-8.1,10c-0.1,1.5-0.2,3-0.3,4.5c-0.4,7-0.9,14-1.2,21
		c-0.5,11-0.4,22.1-1.2,33.1c-0.9,11.1-0.6,22.1,0,33.1c0.6,10.9,0.9,21.7,1.2,32.6c0.3,9.5,0.6,19.1,0.8,28.6
		c0.1,5.5,0.2,11.1,0,16.6c-0.5,15.9-1.3,31.8-1.5,47.6c-0.3,15.6-0.3,31.2,0.1,46.7c0.3,10.7,2.1,21.3,2.5,32
		c1,21.9,1.5,43.8,2.2,65.7c0.1,3.1,0,6.3,0,9.7c6.8-0.3,12.6-0.6,18.4-0.8c9-0.3,18.1-0.3,27,1.3c2.8,0.5,5.6,0.7,8.5,0.8
		c10,0.4,20,0.3,30,1.1c10.4,0.8,20.7,1.4,31,0c2-0.3,4,0,6-0.2c8.8-0.7,17.5-1.9,26.3-2.2c7.5-0.3,15,0.4,22.5,0.6
		c16.2,0.3,32.4,0.8,48.7,0.9c15.4,0.1,30.7,1.6,45.9,3.6c9.5,1.2,19,2.4,28.5,2.4c18.8,0.1,37.5-0.5,56.3-0.8
		c1.2,0,2.4-0.1,3.5-0.3c4-0.7,6.9-3.7,7.5-7.7c0.4-3.3,0.8-6.7,1-10c0.7-14.5,1.6-29,1.2-43.6c-0.6-18.2-0.8-36.5-1.2-54.7
		c-0.2-7.3-0.4-14.7-0.6-22c-0.2-9.9-0.3-19.7-0.3-29.6c0-10.4-0.3-20.8,0.1-31.2c0.7-18.4,1.9-36.8,2.6-55.2
		c0.6-17.3,0.2-34.5-2.5-51.6C3892.1-415.6,3892.4-419,3892.5-422.4z M3634-393.6l-3.2-12.4l7.1-7h5.5l4.7,2.7l5.8,7.4l15.7-9.5
		l23.5-6.9l40.1,1.3l17.3,2.4l3.4-8.8l10.5-9.6h8.9l2.6,5.1v10.2l-2.6,11.3l5.6,5l7.5,12.3l4.6,18.2l-3.6,16.9c0,0-3.6,6-10.4,13.9
		c-4.4,5.1-12.9,13.6-19.1,16.4c-9.2,4.1-27.2,10.9-27.2,10.9l-31.4,3.4l-24.9-4.9l-13.4-4.9l-19.9-11.3l-9.4-13.4l-2.4-18.1
		l7.6-22.5L3634-393.6z M3704.9-189.6c-0.4,4.5-3,6.6-7.6,6.4c-1.4-0.1-2.8-0.3-4.6-0.5c0.1-1.8,0.2-3.6,0.3-5.4
		c0.4-4.4,1-8.7,1.1-13.1c0-4,2.5-5.6,5.5-6.8c1.6-0.7,3.4-0.9,5.5-1.4c0.3,1.7,0.7,3.2,0.7,4.6
		C3705.6-200.4,3705.4-195,3704.9-189.6z M3727.4-206.3c-0.3,6.7-0.7,13.3-1,20c-0.2,3.6-0.3,3.7-3.7,3.4c-1.7-0.1-3.5-0.4-5.2-0.6
		c-3-0.3-2.1-3-3.4-4.7c0-3.3-0.1-6.6,0.2-9.9c0.3-4.3,0.9-8.6,1.2-12.9c0.1-1.5,1-2,2.1-1.7c3,0.8,6,1.7,8.9,3
		C3727.1-209.4,3727.4-207.5,3727.4-206.3z M3797.2-186.2c-0.7,2.6-0.8,5.7-4.9,5.8c-1.5,0.1-3,1.6-4.6,2.5
		c-0.2-0.2-0.4-0.4-0.5-0.6c0.2-0.8,0.2-1.6,0.5-2.4c1.8-6.6,1.3-12.8-3.8-17.9c-0.8-0.8-2.4-0.9-3.6-1.3c0.1,1.3-0.4,3,0.3,3.8
		c3.4,4.5,3.6,9.2,1.7,14.2c-0.3,0.9-0.6,2-0.4,2.9c0.3,2.1-0.6,2.9-2.6,3.1c-1.7,0.1-3.3,0.2-5.2,0.4c1.2-5.9-1.3-11.1-2.2-16.6
		c-0.1-0.6-0.3-1.5-0.7-1.8c-0.9-0.7-2.1-1.1-3.1-1.6c-0.4,0.9-1.1,2-1,2.8c0.5,3.1,1.1,6.1,1.9,9.1c0.9,3.1-0.1,5.6-1.8,8
		c-0.6,0.8-1.7,1.4-2.7,1.5c-8,0.9-15.9,1.4-23.5-2.1c-3.4-1.6-5.1-3.7-4.9-7.5c0.4-10.6,0.9-21.2,1.2-31.7
		c0.1-3.8-0.2-7.7-0.6-11.5c-1-9.6-2.2-19.3-3.3-28.9c-0.1-0.7-0.2-1.3-0.4-2c-1.3-4.6-3.2-5.4-7.2-3.3c0.5,7.7,1.1,15.2,1.4,22.8
		c0.3,7.5,0.3,15.1,0.4,23.1c-2-0.7-3.5-1.3-4.9-1.8c-5.1-1.5-10.1-1.8-15.2,0c-3.9,1.4-8,2.4-12.4,3.7c0.3-3.9,0.6-7.3,0.8-10.7
		c0.3-5.2,0.7-10.3,0.7-15.5c0-5.3-0.4-10.5-0.7-15.8c0-0.6,0.1-1.3-0.2-1.7c-0.8-1-1.8-1.9-2.7-2.8c-0.5,0.9-1.4,1.8-1.6,2.8
		c-0.2,1.8,0.1,3.7,0,5.5c-0.3,9.8-0.5,19.5-0.9,29.3c-0.4,9.3-1,18.7-1.6,28c-0.2,3.2-0.8,6.3-1.2,9.4c-0.3,2.3-1.3,4-3.7,4.4
		c-3,0.5-6.1,1.2-9.1,1.3c-7.9,0.2-15.9,0-23.8,0c-2.5,0-4.5-1.9-4.3-4.5c0.3-3.2,0.4-6.5,3.5-8.8c1.4-1,1.9-2.6,0.5-4.1
		c-1.4-1.5-2.9-1.4-4.4,0c-4,3.6-4.8,8.2-4.4,13.2c0.1,1.1,0.4,2.1,0.6,3.2c-3.1,1.2-6.1,0.6-8.6-0.6c-1.1-0.5-1.6-3.4-1.4-5.1
		c0.5-3.9,1.8-7.6,5.5-9.9c1.2-0.7,1.7-1.8,0.8-3.2c-0.9-1.3-1.8-2.2-3.5-1.5c-3.3,1.4-5.2,4-6.2,7.2c-0.9,2.7-1.2,5.7-1.7,8.5
		c-0.1,0.6-0.2,1.3-0.4,2.2c-2.3-0.3-3.7-1.5-4.4-3.5c-2.3-5.9-2.2-11.8,0.1-17.6c1.8-4.5,6.1-6.5,10.2-8.2
		c6.6-2.7,13.6-3.2,20.7-2.6c1,0.1,2-0.6,3-0.9c-0.8-1.2-1.3-2.9-2.3-3.5c-1.5-0.7-3.4-0.6-5.1-0.8c-1.2-0.1-2.5,0-4.2,0
		c-1-31.3,6.1-60.6,18.7-88.8c4.5,1.4,8.5,2.7,12.5,3.9c1.2,0.3,2.5-0.1,3.7,0.3c6.8,2.1,13.7,0.5,20.6,0.6
		c8.1,0.1,16.2,0.5,24.3-0.2c8-0.7,16-2.3,23.9-4.2c4.2-1,8.2-3.3,12-5.4c1.6-0.9,2.4-0.9,2.9,0.9c1.9,6.3,4.2,12.6,5.6,19
		c2.2,10.5,4.1,21,5.7,31.6c0.9,5.9,0.8,12,1.1,18c0.2,4,0.6,8,0.7,12c0.1,4.7,0,9.3-0.1,13.5c-4,1.7-7.8,3-11.4,4.8
		c-2.4,1.2-4.4,3-6.6,4.5c-1.4,0.9-1.6,2.1-0.7,3.4c1,1.4,2.4,1.8,4,0.8c1.3-0.8,2.4-1.8,3.7-2.6c2.4-1.4,4.7-3.2,7.3-3.8
		c3.4-0.7,7.3-1.1,10.6-0.2c10.9,3.1,13.1,8,14.4,20.1C3797.7-189.6,3797.6-187.8,3797.2-186.2z"/>
	<g>
		<path d="M3640.4-219.8c-1.9-3.9-1.3-8.1-1.1-12.3c0.4-5.8,0.7-11.7,1.7-17.4c1.7-9.6,3.7-19.1,6.1-28.5c1.8-7,4.3-13.8,6.9-20.5
			c2-5.1,4.7-10,7.3-14.9c1.3-2.5,1.5-2.7-1.8-4c-7.1-3.1-13.3-7.7-19.1-12.5c-9.4-7.7-13.3-18-12.7-30.2c0.4-8.3,2.9-16,6.1-23.6
			c0.7-1.6,0.2-2.6-0.4-4.1c-2.5-6.1-5.4-12.2-3.6-19.1c1.2-4.6,4.8-6.9,9.1-8.1c5-1.4,8.5,1.1,11.5,4.7c0.3,0.4,0.6,0.8,0.9,1.2
			c2.2,3.4,2.1,3.2,5.6,1.2c3.6-2.1,7.4-4.1,11.3-5.8c8.7-3.9,17.9-6.2,27.3-7.6c2.8-0.4,5.8,0.2,8.7,0.6c0.5,0.1,1.4,1.6,1.2,1.9
			c-0.4,0.7-1.3,1.5-2.1,1.6c-1.7,0.2-3.6-0.4-5.2,0c-5.9,1.4-11.8,3-17.7,4.7c-2.8,0.8-5.6,1.6-8.3,2.8c-4,1.7-8,3.5-11.6,5.7
			c-6.7,4.2-12,9.9-17.3,15.7c-5.3,5.8-8,12.7-9.7,20c-1.7,7.5-2.4,15.3,0.6,23c2.2,5.7,5.9,10.1,10.9,13.3
			c5.8,3.8,11.9,7.2,18,10.6c1.8,1,4.1,1.1,6.3,1.5c6.6,1.3,13.2,2.9,19.9,3.5c5.2,0.5,10.5,0.1,15.8-0.3c9.4-0.7,18.9-1.3,28.2-2.6
			c5.9-0.8,11.7-2.8,17.5-4.4c2.3-0.6,4.4-1.5,6.7-2.2c0.5-0.2,1.4-0.2,1.6,0.1c2.5,2.8,5.4,5.4,7.2,8.6c2.1,3.7,3.4,8,4.7,12.1
			c1.8,5.5,3.8,10.9,4.9,16.6c1.8,8.8,3.3,17.8,4.2,26.8c1.2,12.6,2.2,25.2,2.1,37.8c0,5.6,1.8,7.7,6.6,9.2
			c5.7,1.9,9.3,6.1,11.6,11.7c3.2,7.9,4.1,15.8,1.3,24c-0.4,1.2-1.8,2.2-3,3c-1.7,1.1-3.6,2.2-5.5,2.8c-4,1.2-8,2.3-12.1,3
			c-4.9,0.9-9.9,1.6-14.9,2.2c-4.5,0.5-9,1-13.5,0.9c-3-0.1-6.1-1-9-1.9c-3.7-1.1-7.4-2.5-9.9-5.9c-0.6-0.8-2.1-1.2-3.2-1.1
			c-7.2,0.4-14-1.5-20.9-3.2c-1.1-0.3-2.4,0.3-3.6,0.5c-2.7,0.5-5.3,1.1-8,1.5c-2.9,0.4-5.9,0.2-8.6,1.1c-7.2,2.5-14.5,3.1-22,3
			c-3.3,0-6.7,0.3-10,0.3c-4.3,0-8.5,0-12.7-0.5c-6.4-0.8-12.8-2-19.2-3c-3.5-0.6-5.5-2.4-6.6-5.9c-1.7-5.5-3.3-10.9-2.3-16.7
			c0.4-2.6,1.1-5.3,2.1-7.7c2-4.8,6.5-7.1,10.9-9C3632.7-217.7,3636.6-218.6,3640.4-219.8z M3642.2-180.2c-0.2-1.1-0.5-2.2-0.6-3.2
			c-0.4-5,0.4-9.7,4.4-13.2c1.5-1.3,3-1.4,4.4,0c1.4,1.5,0.9,3-0.5,4.1c-3.1,2.2-3.2,5.6-3.5,8.8c-0.2,2.5,1.8,4.4,4.3,4.5
			c7.9,0.1,15.9,0.2,23.8,0c3.1-0.1,6.1-0.8,9.1-1.3c2.4-0.4,3.4-2.1,3.7-4.4c0.4-3.1,1-6.3,1.2-9.4c0.6-9.3,1.2-18.7,1.6-28
			c0.4-9.7,0.6-19.5,0.9-29.3c0.1-1.8-0.3-3.7,0-5.5c0.1-1,1-1.9,1.6-2.8c0.9,0.9,1.9,1.8,2.7,2.8c0.3,0.4,0.1,1.1,0.2,1.7
			c0.2,5.3,0.7,10.5,0.7,15.8c0,5.2-0.4,10.3-0.7,15.5c-0.2,3.4-0.5,6.8-0.8,10.7c4.5-1.3,8.5-2.3,12.4-3.7c5.1-1.8,10.1-1.5,15.2,0
			c1.5,0.4,2.9,1,4.9,1.8c-0.1-8-0.1-15.6-0.4-23.1c-0.3-7.6-0.9-15.1-1.4-22.8c4.1-2.1,6-1.3,7.2,3.3c0.2,0.6,0.3,1.3,0.4,2
			c1.1,9.6,2.3,19.3,3.3,28.9c0.4,3.8,0.7,7.7,0.6,11.5c-0.3,10.6-0.8,21.2-1.2,31.7c-0.1,3.8,1.5,6,4.9,7.5
			c7.6,3.5,15.6,3.1,23.5,2.1c1-0.1,2.2-0.7,2.7-1.5c1.7-2.4,2.7-4.9,1.8-8c-0.8-3-1.4-6-1.9-9.1c-0.1-0.9,0.6-1.9,1-2.8
			c1.1,0.5,2.2,0.9,3.1,1.6c0.4,0.3,0.6,1.2,0.7,1.8c0.9,5.5,3.4,10.7,2.2,16.6c1.9-0.1,3.6-0.3,5.2-0.4c1.9-0.1,2.9-0.9,2.6-3.1
			c-0.1-0.9,0.1-2,0.4-2.9c1.8-5,1.7-9.7-1.7-14.2c-0.7-0.8-0.2-2.5-0.3-3.8c1.2,0.4,2.8,0.5,3.6,1.3c5.1,5.1,5.6,11.3,3.8,17.9
			c-0.2,0.8-0.3,1.6-0.5,2.4c0.2,0.2,0.4,0.4,0.5,0.6c1.5-0.9,3-2.4,4.6-2.5c4.1-0.1,4.3-3.2,4.9-5.8c0.4-1.6,0.5-3.4,0.3-5
			c-1.3-12.1-3.5-17.1-14.4-20.1c-3.3-0.9-7.2-0.5-10.6,0.2c-2.6,0.5-4.9,2.4-7.3,3.8c-1.3,0.7-2.4,1.8-3.7,2.6
			c-1.5,1-2.9,0.6-4-0.8c-0.9-1.3-0.7-2.5,0.7-3.4c2.2-1.5,4.2-3.3,6.6-4.5c3.5-1.8,7.3-3.1,11.4-4.8c0-4.2,0.2-8.9,0.1-13.5
			c-0.1-4-0.4-8-0.7-12c-0.3-6-0.2-12.1-1.1-18c-1.6-10.6-3.4-21.2-5.7-31.6c-1.4-6.4-3.7-12.7-5.6-19c-0.5-1.8-1.3-1.7-2.9-0.9
			c-3.9,2.1-7.8,4.4-12,5.4c-7.9,1.9-15.9,3.4-23.9,4.2c-8,0.7-16.2,0.4-24.3,0.2c-6.9-0.1-13.8,1.5-20.6-0.6
			c-1.1-0.3-2.5,0.1-3.7-0.3c-4-1.2-8-2.5-12.5-3.9c-12.6,28.1-19.7,57.4-18.7,88.8c1.7,0,2.9-0.1,4.2,0c1.7,0.1,3.7,0,5.1,0.8
			c1.1,0.5,1.6,2.3,2.3,3.5c-1,0.3-2.1,1-3,0.9c-7.1-0.7-14.1-0.1-20.7,2.6c-4.2,1.7-8.5,3.6-10.2,8.2c-2.3,5.8-2.4,11.7-0.1,17.6
			c0.8,1.9,2.1,3.2,4.4,3.5c0.2-0.9,0.3-1.5,0.4-2.2c0.5-2.8,0.8-5.8,1.7-8.5c1-3.1,3-5.8,6.2-7.2c1.7-0.7,2.7,0.3,3.5,1.5
			c0.9,1.4,0.4,2.4-0.8,3.2c-3.7,2.3-5,6-5.5,9.9c-0.2,1.7,0.3,4.5,1.4,5.1C3636.1-179.6,3639.1-179,3642.2-180.2z M3714-188.1
			c1.3,1.7,0.3,4.4,3.4,4.7c1.7,0.2,3.5,0.4,5.2,0.6c3.4,0.3,3.6,0.1,3.7-3.4c0.4-6.7,0.8-13.3,1-20c0-1.2-0.2-3.1-0.9-3.4
			c-2.8-1.3-5.9-2.1-8.9-3c-1.2-0.3-2,0.2-2.1,1.7c-0.4,4.3-1,8.6-1.2,12.9C3714-194.7,3714.1-191.4,3714-188.1z M3705.1-210.4
			c-2.1,0.5-3.9,0.7-5.5,1.4c-2.9,1.3-5.5,2.9-5.5,6.8c0,4.4-0.7,8.7-1.1,13.1c-0.1,1.8-0.2,3.5-0.3,5.4c1.8,0.2,3.2,0.4,4.6,0.5
			c4.5,0.2,7.2-1.9,7.6-6.4c0.5-5.4,0.7-10.8,0.9-16.2C3705.9-207.2,3705.4-208.7,3705.1-210.4z M3646.1-400.6
			c0.3,0.1,0.6,0.2,0.9,0.3c0.4-0.9,0.8-1.8,1-2.8c0.2-0.6,0.2-1.3,0-2c-0.3-1.2-0.4-2.7-1.2-3.4c-3.5-3.3-10.4-1.1-12.2,3.7
			c-1.7,4.6,0.6,8.6,1.9,12.8c0.1,0.4,1.2,0.7,1.7,0.6c1.9-0.4,2.8-3.1,2.4-4.9c-0.4-2.1-0.5-4.2-0.3-6.4c0.1-0.7,1.2-1.7,2-1.9
			c0.6-0.2,1.6,0.6,2.2,1.2C3645.1-402.5,3645.5-401.5,3646.1-400.6z"/>
		<path d="M3781.4-426.7c1.1,5.5,0,10.6-3.4,15.1c-1.6,2.1-1.8,3.5,0.4,5.4c8.5,7.4,12.6,17.4,14.5,28.2c1.1,6.1,0.4,12.3-0.8,18.4
			c-1.6,8.2-7,13.5-12.9,18.7c-1.1,1-2.2,2-3.3,3.1c-1,1-2.2,1.8-3.1,0.5c-0.7-0.9-1-2.5-0.7-3.5c0.4-1.3,1.6-2.5,2.6-3.5
			c2.7-2.8,5.6-5.5,8.3-8.3c3.8-4,5-9,5.4-14.4c0.4-5.7,0.5-11.3-1.3-16.9c-1.9-6-4.6-11.4-9.2-16.1c-7.7-7.9-17.4-11.2-27.9-13.1
			c-4-0.7-8-1.5-12.1-2c-3-0.4-6-0.3-9-0.3c-2.2,0-3.2-1.3-2.9-3.1c0.1-0.8,1.7-1.9,2.8-2c5.9-0.6,11.8-0.1,17.6,1.6
			c2,0.6,3.3,0.4,4.2-2.3c2-6.2,5.6-11.4,11.7-14.5C3770.2-439.9,3779.2-435.6,3781.4-426.7z M3768.4-413.4
			c-0.4,0.1-0.8,0.2-1.2,0.3c1.5,0.2,3.7,1.2,4.2,0.6c2.8-3.2,5.6-6.5,5.6-11.3c0-6.6-3.7-8.8-9.9-7.5c-2.4,0.5-4.6,2-6.7,3.3
			c-3.6,2.4-5.1,6.1-6.6,10.2c1.7,0.2,3.1,0.4,4.4,0.5c-0.4-0.3-0.8-0.6-1.2-0.9c1.4-1.6,2.8-3.2,4.2-4.7c1.4-1.5,2.7-3.2,4.9-1
			c0.2,0.2,0.8,0.2,1.1,0.2c2.9,0,4.2,2.2,3,4.9C3769.7-417,3769.1-415.2,3768.4-413.4z"/>
		<path d="M3687.6-378.3c-0.1-0.8,0.6-1.8,0.9-2.6c0.8,0.4,2.1,0.7,2.3,1.3c0.8,1.9,1.4,3.9,1.9,5.9c0.5,2.4,0.8,4.8,1.2,7.2
			c0.2,1.4,1,2,2.3,1.2c3.9-2.3,11.2-2.2,14.6-0.1c3.4,2.1,3.5-0.1,3.3-5.5c-0.1-2.8-0.4-5.5-0.5-8.3c0-0.7,0.7-1.4,1.1-2.2
			c0.7,0.4,2,0.7,2.1,1.3c0.8,3.6,1.9,7.3,1.7,11c-0.3,5.5,1.7,16.8-5,21.4c-4.2,2.9-10.5,4.6-16.7-0.2
			C3690.5-352.9,3689.2-368.3,3687.6-378.3z"/>
		<path d="M3693.2-328.1c0.1-0.3,0.2-1.4,0.7-1.7c0.6-0.4,1.7-0.3,2.3,0c3.7,2.3,3.7,2.4,6.6-1c2.3-2.7,2.8-2.7,4.6,0.3
			c1.6,2.8,2.7,3,5.5,1.5c0.8-0.4,1.6-1,2.4-1.3c0.7-0.2,1.8-0.2,2.1,0.2c0.5,0.7,1,2,0.7,2.5c-1.1,1.6-2.4,3.3-4,4.4
			c-2.2,1.6-4.4,0.3-6.2-1.2c-1.6-1.4-2.7-1-4.1,0.2C3700.4-321.1,3694.3-323.2,3693.2-328.1z"/>
		<path d="M3682.3-365.7c0.4,1.9-0.8,3.7-2.8,4.1c-3,0.6-4.5-0.3-5.1-3c-0.5-2.3,0.9-4.3,3.3-4.8
			C3679.7-369.8,3681.8-368.1,3682.3-365.7z"/>
		<path d="M3727.2-373.8c-0.5-2.2,0.6-4,2.5-4.3c1.8-0.3,4,1.7,4.6,4.2c0.4,1.6-0.8,3.6-2.3,3.9
			C3730.1-369.5,3727.7-371.5,3727.2-373.8z"/>
	</g>
</g>
</svg>
