<?xml version="1.0" encoding="utf-8"?>
<!-- Generator: Adobe Illustrator 19.1.0, SVG Export Plug-In . SVG Version: 6.00 Build 0)  -->
<svg version="1.1" id="Calque_1" xmlns="http://www.w3.org/2000/svg" xmlns:xlink="http://www.w3.org/1999/xlink" x="0px" y="0px"
	 viewBox="2731.3 -497.9 365.9 389.7" style="enable-background:new 2731.3 -497.9 365.9 389.7;" xml:space="preserve">
<style type="text/css">
	.st0{fill:#6F9BBB;}
	.st1{fill:#E46D65;}
	.st2{fill:#1D1D1B;}
	.st3{fill:#FFFFFF;stroke:#E46D65;stroke-width:3;stroke-miterlimit:10;}
	.st4{fill:#6EA2C2;}
	.st5{fill:none;stroke:#E46D65;stroke-width:3;stroke-miterlimit:10;}
	.st6{fill:#C2C2C2;}
	.st7{fill:#F3F6ED;}
	.st8{fill:#EA6C65;}
	.st9{fill:#80BA40;}
	.st10{fill:#B9B8B8;}
	.st11{fill:#1A94C1;}
	.st12{fill:none;stroke:#B9B8B8;stroke-width:3;stroke-miterlimit:10;}
	.st13{fill:none;}
	.st14{fill:#EC6C65;}
	.st15{fill:none;stroke:#EC6C65;stroke-width:4;stroke-miterlimit:10;}
	.st16{fill:#169BC9;}
	.st17{fill:#FFFFFF;}
	.st18{fill:#C0C0C0;}
	.st19{fill:none;stroke:#C0C0C0;stroke-width:3;stroke-miterlimit:10;}
	.st20{fill:none;stroke:#EC6C65;stroke-width:3;stroke-miterlimit:10;}
	.st21{fill:none;stroke:#80BA40;stroke-width:3;stroke-miterlimit:10;}
	.st22{fill:#4D4D4D;}
	.st23{fill:#6DA0C0;}
	.st24{fill:#FFFFFF;stroke:#80BA40;stroke-width:3;stroke-miterlimit:10;}
	.st25{fill:#D9EAC5;}
	.st26{fill:#A6CF7A;}
	.st27{fill:#BFDC9F;}
</style>
<g>
	<path class="st14" d="M3094.4-422.2c0.1-4.5,0.5-8.9,0.6-13.4c0.7-15.4,1.4-30.8,2-46.3c0.1-3.9,0.6-7.9-0.4-11.7
		c-8.3-0.4-16.1-0.9-23.9-1.2c-14.1-0.5-28.2-0.8-42.3-1.4c-7.3-0.3-14.6-1.4-21.8-1.5c-10.1-0.2-20.2-0.1-30.4,0.2
		c-15.3,0.5-30.5,1.2-45.8,1.9c-19.9,0.8-39.8,1.8-59.7,2.3c-13.3,0.3-26.6-0.1-39.8-0.4c-14.6-0.4-29.2-1.3-43.8-1.8
		c-9.3-0.3-18.6-0.5-27.9-0.7c-6.4-0.1-12.6,0.8-18.7,2.5c-7.5,2-7.7,2.3-8,10c-0.1,1.5-0.2,3-0.3,4.5c-0.4,7-0.9,13.9-1.2,20.9
		c-0.5,10.9-0.4,21.9-1.2,32.8c-0.8,11-0.6,21.9,0,32.8c0.6,10.8,0.9,21.6,1.2,32.3c0.3,9.5,0.6,18.9,0.8,28.4
		c0.1,5.5,0.2,11,0,16.4c-0.5,15.7-1.3,31.5-1.5,47.2c-0.3,15.4-0.3,30.9,0.1,46.3c0.3,10.6,2,21.2,2.5,31.8
		c1,21.7,1.5,43.5,2.2,65.2c0.1,3.1,0,6.2,0,9.6c6.7-0.3,12.5-0.6,18.2-0.8c9-0.3,17.9-0.3,26.8,1.3c2.8,0.5,5.6,0.6,8.4,0.8
		c9.9,0.4,19.9,0.3,29.7,1.1c10.3,0.8,20.5,1.4,30.7,0c1.9-0.3,4,0,5.9-0.2c8.7-0.7,17.4-1.9,26.1-2.2c7.4-0.3,14.9,0.4,22.3,0.6
		c16.1,0.3,32.2,0.8,48.3,0.9c15.3,0.1,30.4,1.6,45.5,3.6c9.4,1.2,18.8,2.3,28.3,2.4c18.6,0.1,37.2-0.5,55.8-0.8
		c1.2,0,2.3-0.1,3.5-0.3c4-0.7,6.9-3.7,7.4-7.6c0.4-3.3,0.8-6.6,1-9.9c0.7-14.4,1.6-28.8,1.2-43.2c-0.6-18.1-0.8-36.2-1.1-54.3
		c-0.2-7.3-0.4-14.6-0.6-21.8c-0.2-9.8-0.3-19.5-0.3-29.3c0-10.3-0.3-20.6,0.1-30.9c0.7-18.2,1.9-36.5,2.6-54.7
		c0.6-17.1,0.2-34.2-2.4-51.2C3094-415.5,3094.3-418.9,3094.4-422.2z M2838.6-266.6c0.8,3.7-1.2,3.1-3.1,2.7
		C2836.5-264.9,2837.5-265.7,2838.6-266.6z M2828.3-250.6c1.8,0.6,3.3,1,4.7,1.5c-0.8,3.4-1.6,6.6-2.6,10.6
		C2826.8-242.7,2828.3-246.6,2828.3-250.6z M2831.2-234.1c4.1-5.9,4.5-6.2,7.8-6.3c0.3,1.8,0.6,3.6,1,6c4.3-3.8,5.2-9.3,9.7-11.7
		c-0.5,4.4-4.1,7.9-2.1,12.7c1.3,0.3,2.7,0.6,4.4,0.9c0.6-2.1,1.2-4.1,1.8-6.2c1.1,2.7-0.4,6.1,3.1,8.5c0.6-2.4,1.1-4.6,1.8-7.5
		c0.7,4.6,1.3,8.4,1.9,12.2C2850.6-220.9,2836.3-225.1,2831.2-234.1z M2883-258.9c-9.4,0.8-17.8-1.5-24-9.2
		c-0.9-1.2-1.2-2.9-1.8-4.3c-0.3-0.9-0.3-2.2-0.9-2.7c-3.4-2.8-2.5-6.5-1.7-9.7c1-3.8,3.1-7.2,4.8-11c2.3,0.8,3.8,1.4,5.8,2.1
		c-3.8,3.7-3.7,8-1.9,12.3c4.2,1.3,6.2-1.9,9.2-4.5c-0.8,2.5-1.5,4.2-2,6c-0.9,3.8-0.4,4.6,3.1,6.2c1.1,0.5,2.2,1.1,3.6,1.8
		c1.1-2.6,2.2-6.2,3.3-8.7c0.2,4.4-3.2,8.7-0.4,11.7c1.5,0,3,0,4.9,0c0.1,0,0.3-1.2,0.5-3.2c0.7,1.2,1.2,2.2,1.3,2.8
		c0.5,2.6,1.9,3.6,4.3,2c1,1.6,1.9,3.2,2.9,4.8C2890.5-260.1,2886.7-259.2,2883-258.9z M2925-297.7c-7,6.7-19.6,6-26.2,0.8
		c-8.3-6.7-9.8-14.4-6.4-26c0.6-1.8,0.7-5.3,4.7-4.3c-1.2,1.7-2.3,3.3-4,5.6c2.5,0.3,4.1,0.6,5.7,0.7c1.6,0.1,3.2,0.2,5.5,0.3
		c-1.4,1.2-2.5,2.2-3.6,3.2c-0.9,0.7-2.1,1.3-2.6,2.2c-0.5,0.9-0.6,2.4-0.1,3.1c0.4,0.6,2.1,0.9,2.9,0.6c2.6-0.8,5.1-2,7.6-2.9
		c1.9-0.6,3.3,0.9,2.6,2.8c-0.8,2-1.8,3.9-2.8,5.8c-0.8,1.7-1.1,3.4,0.5,5.3c2-1.6,3.9-3.1,6.3-5c0.6,2.5,0.9,3.7,1.4,5.5
		c3.3-2.4,5,1,7.9,1.7c0.2-1.8,0.1-3.3,0.2-4.8c0.1,0,0.2,0,0.2,0C2925-301.2,2925-299.4,2925-297.7z M2925.1-337.5
		c-3.8-7.4-5.1-14.7,0.8-21.7c0,0,0-0.1-0.1-0.1c0.1,0,0.1,0,0.2-0.1c0.8-1.4,1.6-2.9,2.6-4.2c0.2-0.3,1.7,0.2,2.3,0.7
		c0.2,0.2-0.1,1.8-0.6,2c-1.4,0.7-2.9,1-4.4,1.4c0,0.1-0.1,0.1-0.1,0.2c0,0,0,0,0,0c0.6,1.2,1,2.6,1.9,3.6c2.3,2.6,2.3,3.3-0.3,5.4
		c-0.5,0.4-1.3,0.7-1.5,1.2c-0.4,1-0.9,2.6-0.5,3c0.8,0.7,2.3,1.1,3.3,0.9c1-0.2,1.9-1.2,2.9-1.8c1.5-0.8,3.1-1.6,5.2-2.6
		c-0.9,2.3-1.3,3.9-2.1,5.1c-2.3,3.6,0.3,6.6,1.3,9.6c0.3,0.8,2.6,1,4.8,1.8c0.4,1.2,1.1,3.3,1.9,5.6
		C2935.5-326.8,2928.6-330.9,2925.1-337.5z M2944.6-326c2-4,3.6-7.3,5.3-10.9c0.5,3.9,0.8,6.9,1.3,10.9
		C2949.5-326,2947.5-326,2944.6-326z M2986.5-353.3c-7.1-0.4-14,0.4-20.2-3.2c-1.7-1-3.2-2.3-4.4-3.9c-4.9-6.5-6.1-14.2-6-22.1
		c0-4.2,3-9.2,7.6-13.4c2.8,0.8,5.9,1.9,8.9,2.8c-0.1,0.3-0.1-0.9-0.2,1.1c-3,0-6,0-9.4,0c-1,2,0.6,3.4,2.7,4.2
		c1.8,0.7,3.7,0.8,6.2,1.4c-2.3,1-4.2,1.8-6.2,2.7c-0.7,3.8,2.6,3.7,4.4,5.3c-0.1,0.6-0.3,1.3-0.3,2.1c0,3.1,2.1,4.4,4.9,3.1
		c1.6-0.7,3.2-2.2,5.1-2.6c-2.9,2.8-5.5,5.7-4.5,9.7c1.6,0,3.4,0,5.3,0c1.7,5,3.4,6.3,9.8,2.1
		C2988.8-360.1,2987.7-356.4,2986.5-353.3z M3037.9-386.4c-4.5,3.1-9.6,4.5-14.9,5.1c-2.3,0.3-4.6,0.5-6.3,0.7
		c-13.5,0-27.1-10.8-24.2-27.8c1-6.1,3.8-10.5,9.3-13.1c0.7-0.3,1.9-0.9,1.9-1.3c0.1-3.5,3-4,5.2-4.3c3.7-0.5,7.7-1,11.1,0
		c7.1,2,14.5,3.9,19.8,9.6C3048.6-408.1,3049.2-394.3,3037.9-386.4z"/>
	<path d="M2904.8-353.2c-1.7-2-3.3-4.1-5.1-6c-1.4-1.5-2.5-3-2-5.5c3.7-0.1,4.4,4.3,7.1,4.7c3.4,0.5,4.2,4.1,7,5.1
		c0-4.5,0-9.1,0-13.7c3.3,0.3,3.4,2.4,3.6,4.7c0.2,3.6,0.5,7.2,1.2,11c1.4-3.4,1.9-6.9,4.4-9.8c2.2-2.6,3.6-6,5.4-9.2
		c-1-1.6-2.4-3.7-4-6.3c4.6-0.7,7.6,5,11.8,1.1c-2.9-3.1-8.7-3.4-8.3-10.2c2.4,1.3,4.4,2.4,6.4,3.5c0.3-0.9,0.7-1.8,1.1-2.9
		c1,0.2,2,0.4,3.2,0.6c-0.8-3.1-1.5-6.1-2.3-9.2c1.8-0.8,3.1-1.4,5-2.2c1,2.5,1.9,4.7,3,7.2c1.3-2.3,2.9-2.6,4.2-0.2
		c0.6,1.1,0.9,2.5,1.3,3.7c0.4,1.7,0.8,3.4,2.1,5.1c0.1-0.6,0.4-1.3,0.2-1.9c-1.5-4.4-1.5-9.4-5.6-12.9c-1-0.9-0.7-3.2-1.1-5.4
		c6,1.4,6.9,6.2,9.2,10.8c2-2.6,3.7-4.9,5.6-6.9c2-2.1,4.4-4,6.6-5.9c-2.3-4.8-2.3-4.8,0.2-7.2c-0.4-1.4-0.8-2.9-1.1-4.3
		c-0.1-0.3,0.2-0.6,0.5-1.2c3.6,0.1,4.4,4.7,8.1,5.3c-0.5-2.6-1.6-5,0.5-7.5c0.7-0.9-0.2-3.1-0.5-5c1.6-0.4,3.1-0.7,5.1-1.2
		c1.4,2.5,2.6,4.9,4.2,7.9c0.7-2.6,1.7-4.4-0.9-6c-1.7-1.1-2-2.8-0.3-4.1c1.8-1.4,3.2-0.2,3.9,1.5c0.9,1.9,1.6,4,2.3,6
		c0.5,1.5,1,3.1,1.4,4.5c4-4.5,7.6-8.8,11.6-13c3.7-3.8,8.3-5.5,13.6-4.8c9.5,1.3,18.3,4.6,26.3,9.9c3.9,2.5,6.4,6.2,8,10.5
		c0.8,2.3,1.4,4.8,2.2,7.1c3.8,10.9-4,21.7-12.5,25.3c-4,1.7-8.4,2.7-13,4.1c1.1,1.2,2.3,2.5,3.4,3.8c1,1.3,2.2,2.6,0.3,4.6
		c-2.2-1.5-4.4-3-6.8-4.5c-1.9,2.1-2.1,3.7,0.3,5c1.6,0.9,3.4,1.5,3.1,3.9c-2.9,0.8-2.9,0.8-7-1.7c-2.2,2.8-2.2,2.8,0.1,4.9
		c0.5,0.4,1.3,0.7,1.5,1.2c0.2,0.9,0.3,2.1-0.2,2.7c-0.4,0.4-1.9,0.4-2.5,0c-1.2-0.8-2.2-1.9-3.5-3.1c-2.5,2.7,0.4,4.5,1,6.7
		c-1.1,1.5-2.3,3.1-3.6,4.9c-3.5-1.3-1-5.4-3.5-7.3c-1,0.6-2,1.2-3.3,2c0.9,1.5,1.7,2.7,2.7,4.1c-1.8,0.6-3.8,0.6-4.6,1.6
		c-0.8,1-0.4,2.9-0.5,5.1c-2.9-0.7-5.8-1-8.5-2.1c-2.4-1-4.5-2.8-7-3.8c0.6,3.3,2.5,5.5,5.7,5.6c2,0,2.9,0.8,2.9,2.4
		c0.1,1.8-1.2,2.6-2.9,2.7c-1.3,0-2.6-0.1-4.1-0.2c0.1,2.6,4.2,3.5,2.3,6.7c-4.2-0.4-8.4-0.8-13-1.2c0,2.1,1.3,4.1,3.3,4.4
		c3.8,0.6,2.9,2.7,2.4,5.1c-5.1,0.4-5.9-4.3-9-7.1c-0.8,1.1-1.8,2-2,3c-0.3,1.9-0.3,4,0.1,5.9c0.4,1.8,0.2,3.2-1.6,3.4
		c-0.8,0.1-2-1.3-2.7-2.2c-0.8-1-1.1-2.3-1.7-3.5c-3.5,0.5-3.5,0.5-5.7,4c-1.1-0.5-2.2-1-3.3-1.4c-0.2,0.2-0.4,0.4-0.7,0.6
		c2.4,3.5,4.8,7,7.2,10.5c-0.3,0.4-0.5,0.7-0.8,1.1c-1.8-0.6-3.6-1-5.3-1.7c-1.8-0.8-3.4-1.9-5.7-3.1c0,3.2,1.8,4.4,3.4,5.7
		c1.5,1.3,4.4,1.3,4,4.5c-5.2,1.5-7.7-2.7-11.5-5.5c0.6,6.1,5.1,10,6.3,15.4c-5-2-9.7-4.1-13.3-8.8c-1.4,4.6,2.5,8.2,1.4,12.4
		c-3.9-1.3-3.1-5.4-5.4-7.9c-1.5,2.7-4,4-7,4.8c1.2,1.5,2.2,2.8,3.4,4.3c-5,2.3-9.7-4.2-14.4,0.2c5.1,1.1,10.4,1.4,13.2,7.2
		c-1.4,0.7-2.5,1.2-3.9,1.8c-0.1,1.1-0.2,2.3-0.2,3.6c-0.8,0.1-1.4,0.4-1.7,0.2c-2.8-1.9-5.6-4-8.7-5.7c1.8,3.3,7.5,4.7,4.8,10.4
		c-2.4-1.8-3.7-4.7-7.4-4.2c2,2.4,3.8,4.6,6.1,7.3c-3.4,0.8-5.7,5-9.6,1c1.2,1.9,2.4,3.7,3.9,6c-3.7,0.7-4.4-2.3-6.8-3.3
		c-0.9,1.7-1.8,3.5-2.8,5.5c-0.9-0.7-1.7-1.4-2.8-2.2c-3.4,1.6-6.9,3.2-11.2,5.2c2.6,1,4.4,1.7,6.2,2.5c5.5,2.6,5.5,2.6,4.7,9.8
		c-1.7-0.7-3.2-1.4-5.3-2.3c0.5,1.8,0.9,3.2,1.3,4.8c-3.2,1.4-4-2-5.9-2.7c-2.1-0.8-4-2.2-6.3-3.5c-0.2,2.1,0.8,3,2,3.9
		c2,1.5,3.9,3.1,5.7,4.8c0.9,0.9,1.4,2.3,1.7,3.9c-3.8-2.9-8.4,0.8-12-2.3c1.7,2.9,4.3,4.5,7,6c1.8,1.1,1.8,1.1,1.8,4
		c-5-1.1-8.2-4.7-11.7-7.9c-2.8,1.5-2.4,4.1-2,6.1c0.3,1.9,1.9,3.6,3.1,5.6c-4.2,1.2-5-2.6-7.2-3.8c-3.8,3.9-9.5,3.9-14,6.9
		c2,1.3,4.1,2.6,6.1,3.9c1.7,1.1,2.6,2.6,2.1,4.6c-0.7,2.7-1.2,5.2,2.5,7.1c-5.2,2.5-10.1,3.5-13.6,7.5c-1.6-1.3-3.2-2.6-5.1-4.1
		c-0.7,0.8-1.4,1.6-2.1,2.5c3.5,3.1,10,2.8,9.6,9.7c-2.4,0.4-4.3-1-6.3-2c-2-1-3.9-2.4-6-3.8c0.4,3.5,0.4,3.5,3.9,4.8
		c2,0.7,3.9,1.4,6.5,2.4c-1.7,1.9-2.9,3.2-4.2,4.6c-3.9-1.1-6.1-5.5-10.9-5.1c1.9,4.7,7.1,4.7,9.7,8.3c-1.5-0.1-3.1-0.1-4.9-0.2
		c0,1,0,2,0,3.4c-5.3-0.6-6.6-5.4-9.9-8.3c-1,0.4-2.1,0.9-3.4,1.5c1.1,5.2,5.3,7.5,9.1,10.8c-3.7,1.2-7.6-1.6-10.4,1.8
		c-3.7-1.2-6.3-3.8-7.5-7.6c-0.7-2.3-2.3-1.9-4.3-1.4c-0.6,4.4,0.4,8.4,3.4,11.6c-0.3,0.5-0.6,1-0.6,1c-1-0.4-2.2-0.6-2.9-1.3
		c-2.6-2.7-8-3.2-7.3-8.9c0.2-1.5,0.8-4.2-1.8-4.5c-2.9-0.3-2.7,2.7-2.9,4.3c-0.4,2.8-0.1,5.8-0.1,8.9c-3-1.1-4.4-4.1-4.7-6.9
		c-0.4-3,0.7-6.1,1.2-9.8c-1.1,0.8-1.7,1.3-2.5,1.7c-1.2,0.7-2.4,1.7-3.8,2c-2.1,0.5-3.2-1-2.2-2.8c0.9-1.7,2.1-3.3,3.5-5.5
		c-2,0.3-3.3,0.9-4.5,0.7c-2.1-0.2-5.5-0.3-6-1.5c-1.4-3.2-4.8-5-5.9-8.3c-1,0-2.4,0.4-3.4-0.1c-1-0.5-1.6-1.9-2.9-3.6
		c5.4-1.8,10.2-3.4,15.1-5c-2.2-4.1-8.8-1-9.3-7c1.3-0.5,2.7-1,4.1-1.6c-0.2-0.4-0.4-1-0.7-1.2c-2.3-1-3.9-2.4-4-5.4
		c4.2-0.2,7.3,4,11.6,2.7c-1.9-3.2-3.7-6.1-5.4-9.2c-1.7-3.1-1.6-3.2,2.4-5.9c1.8,2.3,3.7,4.7,5.6,7c-1.2-5.2-5.6-9.3-4.6-15.4
		c4.7,0.9,2.7,5.7,5.4,7.5c2.5-4.5-0.5-9.9,2.4-14.6c0.5,4.2,4,5.2,6.6,7.6c-0.7-4-2.9-7.5-1.6-11.3c2.7-0.1,2.6,2.3,3.8,3.7
		c0.6-1,1.1-2,1.6-3c4.1,0.8,4.6,5.2,8.1,7.8c-0.3-3.1-0.5-5.4-0.7-8c1.9-0.6,3.7-1.1,5.7-1.7c0.9-2,1.9-4.2,3.1-6.9
		c-3.2,0.2-5.7,0.4-9,0.6c1.6-5.6,6.6-4.4,9.7-6.4c-5.6-0.3-5.6-0.3-6.9-3.8c1.6-0.6,3.3-1.3,4.9-1.9c-0.7-1.7-1.3-3.4-2.2-5.7
		c2.9,0,5.2,0,7.4,0c0.5-1.6,0.5-3.3,1.4-4c0.8-0.6,2.6-0.4,3.8,0c2.4,0.6,4.7,1.6,7.1,2.4c1.7,0.6,3.4,1.1,5.5,1.7
		c-0.1-11.5,5.3-20.1,12.5-27.4c-0.7-2.6-1.3-5-1.9-7.4c-0.5-2.2-3.8-2.9-2.9-6.7c2.4,0.2,4.9,0.4,7.7,0.7c0.5-2.7,1.1-5.7,1.8-9
		c1.2,0.6,2.4,1.2,3.2,1.6c2-0.7,3.6-1.2,5.2-1.8c-0.3-1.7-0.6-3.6-1-6.3c5.6,3.4,8.6,8.2,12.9,12.3c2.2-4.3,4.2-8.3,6.3-12.3
		c0.9-1.6,0.3-2.8-1-3.9c-1.1-1-2.1-2.2-3.4-3.5c4-2.2,7.5-0.7,11.1-0.7c-3.1-3-8.5-3.7-8.3-10.1c3,1.4,5.6,2.6,8.6,4
		c0-4.3-4.9-6.1-3.5-10.9c1.4,0.9,2.4,1.4,3.3,2.1C2901-356.4,2902.9-354.8,2904.8-353.2c1,0.7,1.9,1.5,2.8,2.4
		c0-0.7-0.2-1.1-0.6-1.3C2906.3-352.6,2905.5-352.9,2904.8-353.2z M2925.9-359.2c-5.9,7-4.7,14.3-0.8,21.7
		c3.4,6.6,10.4,10.6,17.7,10.2c-0.8-2.2-1.5-4.4-1.9-5.6c-2.2-0.8-4.5-0.9-4.8-1.8c-1-3.1-3.6-6-1.3-9.6c0.8-1.3,1.2-2.8,2.1-5.1
		c-2.1,1.1-3.7,1.8-5.2,2.6c-1,0.6-1.9,1.6-2.9,1.8c-1.1,0.2-2.6-0.2-3.3-0.9c-0.4-0.4,0.1-2,0.5-3c0.2-0.5,1-0.8,1.5-1.2
		c2.6-2.1,2.5-2.8,0.3-5.4c-0.9-1-1.3-2.5-2-3.7c1.5-0.5,3.2-0.8,4.6-1.5c0.4-0.2,0.8-1.8,0.6-2c-0.6-0.5-2.1-1-2.3-0.7
		C2927.6-362.2,2926.8-360.7,2925.9-359.2z M3016.7-380.6c1.7-0.2,4-0.4,6.3-0.7c5.3-0.6,10.4-2,14.9-5.1c11.3-7.9,10.7-21.6,2-31
		c-5.3-5.7-12.7-7.6-19.8-9.6c-3.5-1-7.5-0.5-11.1,0c-2.2,0.3-5.1,0.7-5.2,4.3c0,0.5-1.2,1-1.9,1.3c-5.5,2.7-8.3,7-9.3,13.1
		C2989.6-391.4,3003.2-380.6,3016.7-380.6z M2965.5-383.8c2-0.9,3.9-1.8,6.2-2.8c-2.4-0.6-4.4-0.8-6.2-1.5c-2.1-0.8-3.7-2.1-2.7-4.5
		c3.4,0,6.4,0,9.4,0c0.1-0.3,0.1-0.6,0.2-0.8c-3.1-0.9-6.1-1.7-8.9-2.5c-4.6,4.2-7.6,9.2-7.6,13.4c0,7.9,1.2,15.5,6,22.1
		c1.1,1.5,2.7,2.9,4.4,3.9c6.2,3.6,13.1,2.8,20.2,3.2c1.2-3.1,2.3-6.1,3.7-9.9c-6.4,4.2-8.2,3.7-9.8-1.4c-1.9,0-3.7,0-5.3,0
		c-1-4.9,1.6-7.6,4.5-10.4c-2,0.4-3.5,1.1-5.1,1.8c-2.8,1.3-4.9,0-4.9-3.1c0-0.8,0.2-1.5,0.3-2.1
		C2968.2-380.1,2964.9-379.9,2965.5-383.8z M2859.4-295.8c-1.7,3.8-3.8,7.3-4.8,11c-0.8,3.2-1.7,6.9,1.7,9.7
		c0.6,0.5,0.6,1.8,0.9,2.7c0.5,1.5,0.8,3.2,1.8,4.3c6.2,7.7,14.6,10,24,9.2c3.7-0.3,7.5-1.1,10.8-3.7c-1-1.6-1.8-3-2.9-4.6
		c-2.4,1.6-3.7,0.9-4.3-1.7c-0.1-0.6-0.6-1-1.3-2.2c-0.2,2-0.3,3.3-0.5,4.4c-1.8,0-3.4,0-4.9,0c-2.7-4.6,0.7-8.5,0.4-12.9
		c-1.1,2.5-2.2,4.9-3.3,7.5c-1.4-0.7-2.5-1.3-3.6-1.8c-3.5-1.6-3.9-2.4-3.1-6.2c0.4-1.8,1.1-3.5,2-6c-3,2.6-4.9,5.8-9.2,4.5
		c-1.9-4.4-2-8.6,1.9-12.3C2863.3-294.4,2861.8-295,2859.4-295.8z M2915.3-305.4c-2.4,1.9-4.3,3.4-6.3,5c-1.6-1.9-1.3-3.6-0.5-5.3
		c0.9-1.9,2-3.8,2.8-5.8c0.7-1.9-0.7-3.4-2.6-2.8c-2.6,0.8-5,2.1-7.6,2.9c-0.9,0.3-2.5,0-2.9-0.6c-0.5-0.7-0.3-2.3,0.1-3.1
		c0.5-0.9,1.7-1.5,2.6-2.2c1.2-1,2.3-2,3.6-3.2c-2.3-0.1-3.9-0.2-5.5-0.3c-1.6-0.1-3.2-0.4-5.7-0.7c1.6-2.3,2.7-3.9,4-5.6
		c-4-1-4.1,2.5-4.6,4.3c-3.5,11.6-1.9,19.3,6.5,26c6.5,5.2,17.2,5.9,26.4-0.8c0-1.7,0-3.5,0-5.3c-0.1,0-0.3,0-0.4,0
		c-0.1,1.5-0.3,3-0.5,4.8c-2.9-0.7-4.6-4.1-7.9-1.7C2916.3-301.7,2916-302.9,2915.3-305.4z M2849.7-246.1c-4.5,2.5-5.4,7.9-9.7,11.7
		c-0.4-2.4-0.7-4.2-1-6c-3.2,0-3.7,0.4-7.8,6.3c5.1,9,19.3,13.2,29.4,8.6c-0.6-3.8-1.2-7.6-1.9-12.2c-0.7,2.9-1.2,5.1-1.8,7.5
		c-3.4-2.4-2-5.8-3.1-8.5c-0.6,2-1.2,4-1.8,6.2c-1.7-0.4-3.1-0.7-4.4-0.9C2845.6-238.2,2849.2-241.7,2849.7-246.1z M2833-249.1
		c-1.5-0.5-3-0.9-4.7-1.5c0,4-1.5,7.9,2.1,12.1C2831.4-242.5,2832.2-245.7,2833-249.1z M2951.2-326.1c-0.4-3.7-0.8-7-1.3-10.9
		c-1.8,3.6-3.4,6.9-5.3,10.9C2947.5-326.1,2949.5-326.1,2951.2-326.1z M3000.2-357.2c-4.9-2.7-4.9-2.7-6,2.3
		C2996.2-355.7,2997.7-356.2,3000.2-357.2z M2869.5-230c1.1-3.9,1.1-3.9-1.6-6.5C2868.4-234.2,2868.8-232.6,2869.5-230z
		 M2838.6-266.6c-1,0.9-2.1,1.8-3.1,2.7C2837.4-263.6,2839.4-263,2838.6-266.6z M2997-346.5c0.1-1.5,0.2-2.3,0.3-3.6
		c-1.4,0.7-2.3,1.1-3.7,1.9C2994.9-347.6,2995.6-347.2,2997-346.5z M2981.7-336.1c0.2-0.3,0.4-0.6,0.6-0.9c-0.8-0.5-1.6-1-2.4-1.5
		c-0.2,0.3-0.5,0.7-0.5,0.8C2980.2-337.2,2980.9-336.6,2981.7-336.1z M2898.6-269.1c-0.1,0-0.3,0.1-0.4,0.1c0.2,0.9,0.4,1.8,0.6,2.7
		c0.3-0.1,0.6-0.2,0.8-0.2C2899.3-267.4,2899-268.3,2898.6-269.1z"/>
</g>
</svg>
