<?xml version="1.0" encoding="utf-8"?>
<!-- Generator: Adobe Illustrator 19.1.0, SVG Export Plug-In . SVG Version: 6.00 Build 0)  -->
<svg version="1.1" id="Calque_1" xmlns="http://www.w3.org/2000/svg" xmlns:xlink="http://www.w3.org/1999/xlink" x="0px" y="0px"
	 viewBox="3556.8 -935.2 366 390" style="enable-background:new 3556.8 -935.2 366 390;" xml:space="preserve">
<style type="text/css">
	.st0{fill:#6F9BBB;}
	.st1{fill:#E46D65;}
	.st2{fill:#1D1D1B;}
	.st3{fill:#FFFFFF;stroke:#E46D65;stroke-width:3;stroke-miterlimit:10;}
	.st4{fill:#6EA2C2;}
	.st5{fill:none;stroke:#E46D65;stroke-width:3;stroke-miterlimit:10;}
	.st6{fill:#C2C2C2;}
	.st7{fill:#F3F6ED;}
	.st8{fill:#EA6C65;}
	.st9{fill:#80BA40;}
	.st10{fill:#B9B8B8;}
	.st11{fill:#1A94C1;}
	.st12{fill:none;stroke:#B9B8B8;stroke-width:3;stroke-miterlimit:10;}
	.st13{fill:none;}
	.st14{fill:#EC6C65;}
	.st15{fill:none;stroke:#EC6C65;stroke-width:4;stroke-miterlimit:10;}
	.st16{fill:#169BC9;}
	.st17{fill:#FFFFFF;}
	.st18{fill:#C0C0C0;}
	.st19{fill:none;stroke:#C0C0C0;stroke-width:3;stroke-miterlimit:10;}
	.st20{fill:none;stroke:#EC6C65;stroke-width:3;stroke-miterlimit:10;}
	.st21{fill:none;stroke:#80BA40;stroke-width:3;stroke-miterlimit:10;}
	.st22{fill:#4D4D4D;}
	.st23{fill:#6DA0C0;}
	.st24{fill:#FFFFFF;stroke:#80BA40;stroke-width:3;stroke-miterlimit:10;}
	.st25{fill:#D9EAC5;}
	.st26{fill:#A6CF7A;}
	.st27{fill:#BFDC9F;}
	.st28{fill:#ECEED2;}
</style>
<g>
	<path class="st14" d="M3850.7-734.9l-11.2-6.3l-19.5-0.6l-26.2,1.6l-19.9-3.6l-13.4-7.5l-9.6-5.5l4.7-4.1l17.3-13.6l14.2-12.4
		l12-11.6l13.6-16.9l11-13.9l2.6-10.6l-9.8-5.1l-11,5.1l-12.6,10.6l-12.4,10.7l-11.6,8.5l-8.2,5.7l-8.7,5.1l-12.3,6.8l-9.1,6.2
		l-5.6,6l-4-27.1l-10.7-22.2l-13.2-23.1l-12.1-18.8l-9.9-7.2l-2.6,2.7l-3.1,14.4l3.7,18l8.9,41.7l4.9,16.6l10.3,17.5l-18.9,8.4
		l-19.2,0.4l-11.8-5.3l-7.3-13l-5.6-8.9l-3.8-0.1l-4.5,10.3l-2.3,12.7l5.6,18.1l10.6,15.4l12.7,8.5l14.4,3.7l14.6-0.4l8.8-8.9
		l2.4,2.8l-2.2,7.9l-12.8,32.6l-20.6,35.3l-5.2,7.9v7.3l6.2,3.3l9.3-2.4l13.2-8.1l14.6-13.8l18-18.3l10.4-16.5l6.9-12.2l6.4-11.2
		l5.8,10.7l4.7,20.5l5.9,28.4l0.9,26.7l-1.1,26.4l9.6-0.8l-2-31.7v-32.2l-10.5-45.4l3.8-1.5l15.7,2.2h20.7l21.3-5.5l14.4-5.1
		l14.4-3.9l11.8-4l2.3-5.5L3850.7-734.9z M3734.9-722.4c-0.4-2.8-0.9-4.9-1.1-7c-0.7-9.5-2.1-18.8-4.5-28c-0.4-1.4-0.7-2.8-1.4-4
		c-0.7-1.3-1.7-2.4-3.8-1.1c4.5,12.9,5.5,26.4,6.5,40.3c-1.5,0.4-2.8,0.7-4.5,1.1c-0.1-2-0.2-3.6-0.3-5.1c-0.1-4-0.2-8-0.4-12.1
		c-0.1-2.2-0.5-2.4-3.6-2.2c0.2,6.3,0.5,12.6,0.7,18.8c-2.5,0.5-2.7-0.8-2.8-2.2c-0.1-2-0.8-3.5-3.4-3.3c-0.2,1.7-0.5,3.3-0.8,5.6
		c-1.6-1-2.7-1.6-4.1-2.5c1.7-5.2,3.5-10.2,5-15.3c1.8-6,3.5-12,5-18c0.8-3,0.2-3.6-3.4-4.6c-0.9,13.1-7.3,24.7-10.3,37.5
		c-4.8-1.1-8.3-3.6-12.5-5.9c1-1.4,1.7-2.6,2.6-3.6c3.3-4,6-8.4,7.9-13.3c0.9-2.2,2-4.2,3-6.3c1.1-2.4-0.8-3.3-3.9-4.5
		c-2.3,6.1-7.2,12.1-10.2,18.3c0-8.3,0-15.8,0-23.9c1,0,4.9-0.4,6.6,0.1c5.5,1.4,11,0,15.4-3.2c3-2.2,6.1-4.8,9.1-7.4
		c5.4,8.1,12.3,15.1,20.6,21.6C3745.8-742.1,3741.8-732.2,3734.9-722.4z"/>
	<path d="M3770.1-620.8c0.2-8.4,0.5-16.9-0.2-25.3c-0.7-8.4-1-16.8-3.1-25.1c-1.2-4.8-1.9-9.7-2.7-14.5c-1.3-7.5-4.4-14.4-7.3-21.3
		c-0.3-0.7-0.5-1.4-1-2.7c1.9,0.4,3.6,0.5,5.1,1c5.8,2.2,11.8,1.7,17.7,1.9c8,0.2,15.6-1.8,23.3-3.8c8.4-2.2,16.5-5.2,24.8-7.8
		c4.9-1.6,10.1-2.3,15-3.8c4.8-1.5,9.8-2.7,13.4-6.6c3.1-3.3,3.1-6.7-0.8-9.1c-7.5-4.7-15.6-7.7-24.7-6.5
		c-15.6,2.2-31.1,2.1-46.5-1.3c-4.6-1-9.1-2.3-13.5-3.6c-4.7-1.4-8.7-4.6-13-9.8c0.8-0.7,1.6-1.6,2.6-2.1
		c11-6.4,20.1-15.1,29.1-23.9c6.1-5.9,12.1-11.8,18-17.7c5.6-5.6,10.8-11.6,15.2-18.2c2.3-3.4,4.4-7,6.1-10.8
		c3.1-7-1.3-12.7-7.8-14.4c-5.1-1.4-8.6,0.8-12.3,3c-8.3,5-15.2,11.7-22.2,18.4c-6.9,6.6-14.4,12.3-22.5,17.2
		c-8.6,5.3-17.4,10.4-26,15.7c-2.7,1.7-5.3,3.6-8.3,5.7c-0.7-3.5-1.1-6.8-1.9-10c-2-8-3.6-16.2-7.5-23.7c-2.9-5.6-5.1-11.6-7.8-17.4
		c-1.4-2.9-3.1-5.7-4.7-8.5c-3.8-6.5-7.3-13.2-11.6-19.3c-4.2-6-9-11.7-16-15c-3.2-1.5-6.2-0.9-7.8,2.2c-0.9,1.7-1.4,3.6-1.7,5.5
		c-1.2,7.4-1.2,14.6,0.4,22c2.1,9.5,3.4,19.1,5.4,28.7c0.9,4.4,2.6,8.7,3.6,13.1c3.1,13.2,6.9,26.1,14.2,37.7
		c0.3,0.4,0.4,0.9,0.7,1.7c-1.1,0.7-2.2,1.4-3.3,2c-9.4,4.3-19.1,5.6-29.2,3.4c-3.6-0.8-7.4-1.2-10.8-3.2c-2.5-1.5-4.6-3.3-5.8-6
		c-1.4-3.2-2.8-6.4-4-9.7c-1.1-3.1-3.6-4.9-6.3-6c-1.6-0.7-3.7,0-5.5,0.1c-1.4,3.8-2.8,7.3-4,10.8c-2.4,7-3.3,14.2-1.5,21.4
		c1.3,5.4,2.7,10.8,6.2,15.4c2,2.7,3.7,5.6,5.8,8.3c5.4,7,12.7,11.5,20.6,14.9c3.2,1.4,7.1,1.4,10.6,2.1c0.8,0.1,1.5,0.3,2.2,0.4
		c0.2,2.5,0.2,4.9,0.5,7.3c0.4,2.8,3.7,4.9,6.4,3.9c1.9-0.8,3.8-1.8,5.2-3.2c3.1-3.2,6.2-6.4,6.6-11.5c0.1-2,2.1-3.9,3.2-5.9
		c0.3,0.1,0.6,0.2,1,0.3c-0.2,1-0.3,2.1-0.6,3.1c-0.7,2.3-1.6,4.6-2.4,7c-5.7,17.1-12.5,33.8-21.7,49.5c-3.4,5.7-6.8,11.4-10.2,17.1
		c-2.5,4.2-4,8.7-3,13.7c1,4.8,5.5,7.4,10,5.6c7.6-3,14.9-6.5,21-12.4c7-6.9,14.4-13.1,22.1-20.2c-1.4,6.3-2.7,11.9-4,18.9
		c-2.3,0-4.4,0-6,0c-0.6,3-1.3,6.9-1.8,10.3c-0.3,1.8-0.5,3.5-0.5,5.3c0,2.2,1,3.2,3.3,3.5c3,0.5,6.5-1.1,7.8-4
		c1.2-2.6,1.9-5.4,2.7-8.1c0.5-1.7,0.3-3.4-1.2-4.7c-1.4-1.2-1.3-2.6-1-4.3c1.5-6.8,2.9-13.7,4.5-20.5c0.4-1.8,1.5-3.6,2.6-5.1
		c1.8-2.3,3.9-4.5,6-6.8c0.7,2.3-0.2,18.8-1.3,24.7c-2.9,0.1-3.9,2.3-4.2,4.9c-0.4,2.8-0.8,5.6-0.9,8.5c0,1.3,0.6,2.8,1.4,4
		c1.2,2,2.5,2.1,4.7,1.2c3.1-1.2,5.1-3.3,5.8-6.6c0.3-1.6,1-3.2,1.4-4.9c0.7-2.9,0.2-4.4-2.6-5.7c-1.8-0.9-2.1-2-1.9-3.7
		c0.7-8.7,1.3-17.3,2-26c0.2-2,0.3-4.1,2.8-5.8c0,1.7,0.1,3,0.1,4.3c0,2.9-0.1,5.7-0.2,8.6c-0.1,2,1,3.1,2.8,3.7
		c3.6,1.2,7.5-1.1,8.2-4.8c0.7-3.6,1.5-7.2,0.5-10.8c-0.3-1.1-0.6-2.5-1.4-3.1c-4.4-3.6-3-8.2-2.1-12.5c0.5-2.3,2.1-4.3,3.4-6.9
		c3.3,6.3,5.2,12.6,6.9,19c3.2,12.1,5.3,24.6,6.6,37c1.8,16.7,2.6,33.2,0.8,51.2h3.4c0.1-2,0.3-3.9,0.3-5.7
		c0.2-9.3,0.6-18.8,0.4-28.1c-0.1-6.5-0.9-13-1.6-19.4c-0.6-5.4-1.4-10.8-2.4-16.2c-1.6-7.9-3.1-15.8-5.2-23.5
		c-1.6-5.7-4-11.2-6.2-16.7c-1.4-3.3-1.5-3.3,0.1-7.2c3.6,1,5.3,3.7,6.4,6.6c3.1,8.4,6.6,16.7,8.7,25.3c2.6,10.4,5,21.2,5.7,32
		c1.2,17.6,1.1,34.9-1.2,52.9h8.1c0,0,0-0.6,0-0.8C3769.2-607.4,3769.9-614.2,3770.1-620.8z M3737.2-788.2
		c5.4-3.4,10.9-6.4,16.4-9.7c2.7-1.6,5.4-3.1,7.9-5c7.8-5.7,15.6-11.4,23.4-17.3c2.8-2.1,5.2-4.7,7.8-7c3.7-3.2,7.4-6.5,11.3-9.5
		c2.4-1.9,5.2-3.5,7.9-5c1.8-1,3.8-1.5,5.9-0.2c1.4,0.8,3,1.4,4.4,2c1,3,0,5.4-1.5,7.6c-4.3,6.1-8.6,12.4-13.3,18.3
		c-11.2,14.2-23.4,27.4-37.1,39.3c-2.9,2.5-5.7,4.9-8.8,7.1c-2.4,1.7-5.2,2.9-7.8,4.4c-1.1,0.6-2,1.3-3.5,2.3
		c-2.9-2-6.3-4.4-9.9-6.9c3.1-2,5.9-3.9,8.9-5.6c7.9-4.4,14.7-10.1,21.6-15.9c4.8-4.1,9.5-8.4,14.3-12.6c1.4-1.3,2.8-2.7,4.1-4.1
		c3.1-3.3,6.2-6.6,9.2-10c1.5-1.7,3.4-3.3,2.8-6.1c-2.8,2.5-5.6,4.9-8,7.4c-10.9,11.3-22.6,21.8-35.1,31.4c-6.2,4.8-13,9-20.5,12.8
		c-2.8-3.6-5.5-7.2-8.5-11.1C3732-784.1,3734.4-786.5,3737.2-788.2z M3683.6-804.4c-1.7-6.2-3.7-12.4-5-18.8
		c-2.4-11.4-4.7-22.9-6.3-34.4c-0.8-5.9-0.4-12.1,2.2-18.3c3.6,2.3,6,5.4,8.4,8.3c8.8,11.1,16.6,22.9,22.7,35.7
		c4.9,10.3,9.1,20.9,12,32c1.4,5.3,2.9,10.5,4.6,15.7c0.7,2,0.4,3.4-1.2,4.8c-1.9,1.7-3.7,3.7-5.6,5.4c-1,0.9-2.2,1.7-3.8,2.9
		c-2.2-5.2-4.5-10-6.4-14.9c-3-8-5.7-16.1-8.5-24.2c-1-2.8-1.8-5.7-2.7-8.5c-2.4-7.5-4.9-15-7.3-22.6c-0.4-1.1-0.6-2.3-2.5-2.2
		c-0.1,0.7-0.4,1.4-0.2,2c0.9,3.6,1.9,7.3,3,10.9c3.6,11.1,7.2,22.2,11,33.2c3.1,9.2,5.9,18.5,10.6,27.3c-3.2,1.6-6.4,1.2-9.6,0.9
		c-0.7-0.1-1.5-1-1.9-1.7C3690.6-781.1,3686.9-792.6,3683.6-804.4z M3691.3-731.5c-2.2,2.7-4.3,5.5-6.5,8.3
		c-0.7-0.2-1.2-0.3-1.6-0.5c-3.6-1.8-6.2-1.4-8.9,1.5c-1,1-1.8,2.2-3,3.6c-2.1-0.7-4.3-1.5-6.5-2.2c-1.1-0.3-2.2-0.6-3.3-0.9
		c-3.5-0.9-7.3-0.9-10-3.8c-9.9-3.1-15-11.4-19.8-19.6c-4.8-8.2-7-17.3-4.5-27c0.9-3.6,2.2-7.2,3.3-10.7c0.2-0.6,0.7-1,1.2-1.6
		c3.2,2.1,4.1,5.5,5.1,8.6c2.5,8.1,7.5,14,15.3,17.6c9.3,4.3,18.6,4.5,28.2,1.5c3.9-1.2,7.5-2.8,10.9-4.9c0.7-0.5,1.7-0.6,2.8-1
		c1.9,6.4,0,12.2-0.3,18.1c-3.9,2.6-8.1,3.9-12.6,4.2c-5.9,0.5-11.9,0.8-17.9,0.9c-7.2,0.1-13.6-1.9-18.1-7.9
		c-0.2-0.3-0.7-0.4-1.1-0.7c-1.7,1.6-0.8,3.1,0.4,4.3c3.7,3.8,8.1,6.6,13.4,7.3c9.5,1.2,18.9,0.5,28.2-1.3c2.1-0.4,4.2-1.2,6.5-1.9
		C3693.4-736.6,3693.2-733.9,3691.3-731.5z M3713.3-697.7c-1.1,6.4-2.1,12.8-3.4,19.2c-0.3,1.6-1.2,3.2-2.2,4.5
		c-10.4,13.4-21.8,25.8-35.1,36.3c-3.4,2.7-7.3,4.8-11.6,6c-2.3,0.7-3.4,0.3-3.8-1.9c-0.5-2.3-0.3-4.8-0.1-7.3
		c0.1-1.2,0.8-2.5,1.4-3.6c3.1-5.7,6.2-11.3,9.4-16.9c3.7-6.6,7.7-13,10.9-19.7c3.6-7.4,7.1-15,9.3-23c1.2-4.4,3.1-8.5,4.7-12.7
		c0.5-1.5,1.1-2.9,1.5-4.4c0.5-1.7,1.1-3.4-1.1-4.8c-1.2-0.8-0.5-1.8,0.8-2.6c2.4,4.7,7.7,5.1,12.1,7.9c-1.9,3.8-3.7,7.4-5.6,11.3
		c-1.7-0.6-3-1-4.3-1.6c-1.8-0.9-3.1-0.6-3.7,1.3c-1.7,4.9-3.4,9.8-4.7,14.8c-0.4,1.6,0.4,3.6,1,5.2c0.7,1.8,2.6,2.3,4.3,1.7
		c1.9-0.7,3.7-1.8,5.3-3.1c2.2-1.6,4.1-3.5,6.4-5.2c-2.4,7.7-7.1,14.1-11.9,20.4c-4.8,6.3-9.8,12.5-15.1,19.2c2.7-0.5,4.6-1.6,6.2-3
		c4.4-3.9,8.5-7.9,11.7-12.9c3.4-5.4,7.2-10.5,10.6-15.8c2.4-3.8,4.5-7.8,7.2-11.7C3713.4-699.3,3713.5-698.5,3713.3-697.7z
		 M3707.7-702.2c-0.9-1.8-1.6-3.4-2.6-4.8c-0.8-1.2-0.7-2.2-0.1-3.2c1.6-3.1,3.3-6.1,5-9.3c1.3,0.3,2.4,0.5,3.8,0.8
		C3711.8-713.1,3709.8-707.7,3707.7-702.2z M3722.3-709c-0.2,4.7-0.6,9.3-0.9,14c-0.1,2.1-0.7,4-2.1,5.7c-1.7,2.2-3.2,4.6-4.8,6.9
		c-0.2-0.1-0.4-0.2-0.6-0.3c0.5-3,1.1-6,1.6-9c0.9-6.3,1.7-12.5,2.6-18.8c0.2-1.7,0.4-3.3,0.7-5c0.3-1.6,1.3-2.5,3.5-1.7
		C3722.3-714.5,3722.4-711.7,3722.3-709z M3729.5-689.5c-0.2,0.3-0.6,0.5-0.9,0.7c-0.2-0.1-0.3-0.2-0.5-0.3c0.4-0.7,0.8-1.3,1.2-2
		c0.2,0.1,0.4,0.2,0.6,0.3C3729.7-690.4,3729.7-689.9,3729.5-689.5z M3725.1-698c0.4-6.7,0.7-12.8,1-19.1c0.6-0.2,1.2-0.3,1.8-0.4
		c0.6-0.1,1.3-0.2,2.2-0.3C3731.9-710.4,3729.1-704.4,3725.1-698z M3734.9-722.4c-0.4-2.8-0.9-4.9-1.1-7c-0.7-9.5-2.1-18.8-4.5-28
		c-0.4-1.4-0.7-2.8-1.4-4c-0.7-1.3-1.7-2.4-3.8-1.1c4.5,12.9,5.5,26.4,6.5,40.3c-1.5,0.4-2.8,0.7-4.5,1.1c-0.1-2-0.2-3.6-0.3-5.1
		c-0.1-4-0.2-8-0.4-12.1c-0.1-2.2-0.5-2.4-3.6-2.2c0.2,6.3,0.5,12.6,0.7,18.8c-2.5,0.5-2.7-0.8-2.8-2.2c-0.1-2-0.8-3.5-3.4-3.3
		c-0.2,1.7-0.5,3.3-0.8,5.6c-1.6-1-2.7-1.6-4.1-2.5c1.7-5.2,3.5-10.2,5-15.3c1.8-6,3.5-12,5-18c0.8-3,0.2-3.6-3.4-4.6
		c-0.9,13.1-7.3,24.7-10.3,37.5c-4.8-1.1-8.3-3.6-12.5-5.9c1-1.4,1.7-2.6,2.6-3.6c3.3-4,6-8.4,7.9-13.3c0.9-2.2,2-4.2,3-6.3
		c1.1-2.4-0.8-3.3-3.9-4.5c-2.3,6.1-7.2,12.1-10.2,18.3c0-8.3,0-15.8,0-23.9c1,0,4.9-0.4,6.6,0.1c5.5,1.4,11,0,15.4-3.2
		c3-2.2,6.1-4.8,9.1-7.4c5.4,8.1,12.3,15.1,20.6,21.6C3745.8-742.1,3741.8-732.2,3734.9-722.4z M3744.6-718.6
		c-1.1-0.7-2.1-1.5-3.3-2.3c2-3.1,3.9-6.2,6-9.4c0.7,0.3,1.4,0.5,2,0.8c7.9,3.6,16.2,6.3,24.9,7.4c2.9,0.4,5.9,1.5,8.8,1.2
		c6.3-0.7,12.5-2,18.7-3.2c1.3-0.2,2.5-1,3.7-2c-2.5-1.1-5-0.9-7.5-0.6c-3.2,0.4-6.4,0.9-9.6,1.5c-5.2,0.9-10.4-0.1-15.4-1.2
		c-6.2-1.4-12.4-2.9-18.5-4.6c-1.8-0.5-3.5-1.6-5.6-2.7c2-5.8,4-11.4,6-17.1c4.4,2.8,8.2,5.5,12.3,7.7c8.6,4.7,18.1,6.2,27.6,7.7
		c5.2,0.8,10.2,0.8,15.4-0.6c3.3-0.9,6.9-0.8,10.4-1c5.3-0.2,10.6-0.6,15.9-0.4c5.8,0.2,11.1,2.1,16.3,6c-1.8,1.2-3.1,2.3-4.5,2.9
		c-4.8,1.7-9.6,3.3-14.4,4.7c-6.7,2-13.5,3.7-20.1,5.9c-7.1,2.4-14.4,4.3-21.8,5.4c-2.3,0.3-4.6,1-6.9,1.3c-9,1.2-17.8,0.1-26.6-2.1
		C3753.5-714.5,3748.8-715.8,3744.6-718.6z"/>
	<polygon points="3752.7,-601.6 3768.4,-603.2 3768.7,-600 3752.8,-600 	"/>
</g>
</svg>
