<?xml version="1.0" encoding="utf-8"?>
<!-- Generator: Adobe Illustrator 19.1.0, SVG Export Plug-In . SVG Version: 6.00 Build 0)  -->
<svg version="1.1" id="Calque_1" xmlns="http://www.w3.org/2000/svg" xmlns:xlink="http://www.w3.org/1999/xlink" x="0px" y="0px"
	 viewBox="-148.8 23.1 976.7 737" style="enable-background:new -148.8 23.1 976.7 737;" xml:space="preserve">
<style type="text/css">
	.st0{fill:#C0C0C0;}
	.st1{fill:#80BA40;}
	.st2{fill:none;stroke:#000000;stroke-width:3;stroke-miterlimit:10;}
	.st3{fill:none;stroke:#C0C0C0;stroke-width:3;stroke-miterlimit:10;}
</style>
<g>
	<g>
		<g>
			<path class="st0" d="M595.5,257.7c4.6,4.5,9.3,5,14,4.9c2.9,0,5.9-0.4,8.8-0.6c12.2-1,22.7-6,31.9-13.7
				c8.2-6.9,12.8-16.1,17-25.8c4.6-10.6,3.7-21.2,0.4-31.6c-4.4-14.1-24.1-24.6-37.4-22.7c-2.2,0.3-4.3,0.9-6.4-0.7
				c-0.8-0.6-2.4-0.3-3.6-0.3c-9.9-0.1-19.8-0.1-29.7-0.2c-18.4-0.1-36.8-0.2-55.2-0.3c-12-0.1-23.9-0.3-35.9-0.3
				c-9.9,0-19.7,0.3-29.6,0.3c-19.4-0.2-38.9-0.6-58.3-0.7c-22.6-0.1-45.1,0-67.7-0.1c-22.9-0.1-45.8-0.3-68.7-0.4
				c-17.5-0.1-35-0.1-52.6-0.1c-24.3-0.1-48.7-0.2-73-0.4c-30.9-0.2-61.8-0.4-92.8-0.5c-4.8,0-9.2,0.8-12.9,5
				c-5.5,6.4-10.2,13.3-12.7,21.3c-1.8,5.7-3.1,11.7-1.3,17.9c2.8,9.6,6,18.9,14.4,25.3c0.7,0.5,1.1,1.3,1.8,1.8
				c2.4,1.9,4.7,4.2,7.5,5.5c11.5,5.7,23.7,6.1,36.1,3.8c3.7-0.7,3.7-0.9,5.9,3c-3.6,6.1-5.4,12.7-4.6,19.8c0.3,2.8,0.5,5.5,1,8.3
				c1.5,9.8,4.6,19.1,11.7,26.1c12.7,12.4,28,19.3,45.9,20c1,0,2.1,0,3.1-0.1c2.5-0.1,5.2-0.8,7.6-0.3c7.4,1.4,14.5,0.3,21.6-1.8
				c9.3-2.7,18.4-6.1,26.9-10.8c10.5-5.7,21.1-11.3,30.3-19.1c4.4-3.7,8.4-7.9,12.6-11.9c1.9,2.6,1.9,2.6,1.8,5.3
				c-0.4,11.5,2.3,22,9.5,31.2c9.2,11.8,20.6,20.5,35.5,23.9c4,0.9,8.1,1.8,12.2,2.2c9.3,1.1,18.7,1.5,28-0.4
				c9.1-1.8,18.2-4.3,27.1-7.1c5.1-1.6,10.1-3.8,14.6-6.7c5.9-3.9,11.3-8.6,16.7-13.1c8.9-7.4,16.4-15.9,19.4-28.6
				c1.4,1.7,2.4,2.8,3.1,4c2.1,3.8,3.4,8.1,6.1,11.4c8.2,10.1,18.5,18,30.1,23.6c12.9,6.3,26.6,10.5,41.2,11.6
				c11.5,0.9,22.9,0.6,34.2-0.9c18.9-2.5,34.8-11.5,48-25c12.6-12.8,18.2-28.4,15.6-46.5C594.5,262,595.1,260.5,595.5,257.7z"/>
			<path class="st0" d="M251.4,367.4c3.4,1.5,2.7,3.9,2.9,6.1c0.2,3.3,1.8,5,4.8,4.9c3.7,0,7.4-1,7.5-4.7c0.1-2.2,0-4.5,0-6.6
				c6.5-3.2,6.9-3.8,5.8-10.6c-1.8-0.6-3.8-1.2-5.8-1.8c-1.5,1.1-3,2.2-5.2,4c-0.7-3-1.2-5.2-1.7-7.5c-4.9-2.5-6.2-2-7.6,3
				c-0.3,1.1-0.7,2.2-1.3,3.8c-1.5-1.3-2.6-2.2-3.7-3.1c-5.3,0.8-7.9,4.3-9.3,8.8c-1.1,3.4,0.2,5,3.7,6
				C245.3,370.8,248.6,370.4,251.4,367.4z"/>
			<path class="st0" d="M431.1,372.5c1.8-1.9,2.8-3.2,4.1-4.2c2.9-2.2,4.6-5,3.3-8.6c-1.6-4.4-3-9.2-8.6-10.1
				c-1-0.2-2.1,0.7-3.1,1.2c-2.4,1.2-4.5,0.1-4.7-2.5c-0.1-2,0.9-3,2.7-3.9c3.7-1.7,4.5-4.4,2.8-8c-2.3-4.9-7.5-7.3-13.5-6
				c-3.4,0.7-5.8,2.2-6,6.1c0,0.9-0.6,1.7-1.2,3.2c-3.3-3.6-6.6-6.1-11-3.2c-4.7,3.1-3.3,7.3-1.8,11.6c-1.5,0.4-2.7,0.7-3.8,1.1
				c-4.3,1.7-6.6,6.2-5.2,10c1.5,3.8,6.1,5.2,10.7,3.1c1.4-0.6,2.7-1.4,3.9-2.1c2.3,1.6,2.8,3.5,2.5,6c-0.9,7.1,2.8,10.5,9.9,8.7
				c2.7-0.7,5-2.6,8.1-4.2C423,374.1,427.4,372.5,431.1,372.5z"/>
			<path class="st0" d="M373.2,426.6c-0.6,0.6-1.3,1.2-2,1.7c-3.3,2.3-6.8,4.1-9.3,7.6c-2.5,3.6-6.2,6-10.6,5.7
				c-3.4-0.2-5.5-0.5-6.4-3.9c-0.2-0.8-0.2-1.7-0.5-2.5c-0.7-2.2-2-5.2-4.3-4.3c-1.7,0.7-3.6,1.1-5.5,1.4c-4.1,0.7-7-1.5-9.1-4.7
				c-2-3.1-1.1-6.5,2.1-8.4c2.1-1.2,4.3-2.1,6.9-3.3l-2.4-2.3c0.2-0.6,1.4-3.7,1.3-4.5c-0.9-5.6,3.4-8.7,7.7-11
				c4.4-2.4,11.1-2.8,13.5,3.7c1.3,3.5,2,7.3,2.8,11c0.4,1.8-0.4,4,2.7,4.5c0.3-0.7,0.8-1.4,1-2.1c0.8-3.7,2.5-5.2,6.1-5.8
				c4.3-0.6,6.2,0.3,8.1,4C377.6,417.7,376.8,423,373.2,426.6z"/>
			<path class="st0" d="M265.7,422.4c-0.1-2.3-0.2-4.1-0.3-5.7c2-1.7,5.8-1,5.2-4.5c-0.2-1.4-1.7-3.2-3-3.7c-3.5-1.5-2.9,3-5.2,4.3
				c-1.2-1.4-2.2-2.6-3.2-3.8c-4.5,2.7,2.6,5.5-0.4,8.1c-4.9-1.5-4.9-1.5-6.9,2.8c2-0.2,3.7-0.1,5.1-0.6c2-0.8,3,0.2,3.6,1.7
				c0.4,0.9,0.3,2,0.5,3.5C262.8,423.6,264.3,423,265.7,422.4z"/>
			<path class="st0" d="M317.4,465.1c-1.9,1-3.2,1.6-5,2.5c-1-2.4-2-4.5-3-6.8c-1.1,0.1-2.3,0-3.4,0.3c-4.1,1.2-4.7,2.9-2.5,6.7
				c1.2,1.9,1.9,3.7-0.2,5.5c-0.5,0.4-0.6,1.4-0.9,2.1c4,1.7,4.6-1.3,5.5-3.6C314,473.5,316.5,471.9,317.4,465.1z"/>
			<path class="st0" d="M536.6,373.6c1.7,2.9,3.3,5.7,5.1,8.9c2.2-2,3.7-3.3,5.2-4.7c2.8-2.9,3.3-2.9,6.2-0.2c0.6,0.6,1.3,1,1.9,1.6
				c2.9-1.9,3.7-4.8,4.8-7.5c1.8-4.6,1.8-4.6-2.3-7.4c-2.9-2-3-3-1.3-6.3c0.9-1.7,1.3-3.7,1.9-5.3c-3.8-2.2-6.8-4.2-10.8-3.3
				c-3.5,0.8-6.3,2.2-9.2,4.4c-3.5,2.8-0.3,7.1-2.7,9.9c-4.1-0.8-6.8,0.3-8.5,3.2c-1.3,2.3-1.2,5.5,0.5,7.3
				C530.1,377.2,533.2,375.4,536.6,373.6z"/>
			<path class="st0" d="M559.3,422.5c0.8,2.6,3.9,4.3,2,7.2c-0.3,0.1-0.5,0.2-0.6,0.1c-0.9-0.5-1.8-1-2.6-1.5
				c-5.5-3.8-13.4,0-15.2,5c-1.2,3.4-0.4,5.5,3.1,6.3c2.3,0.5,4.8,0.5,7.1,0.3c3.2-0.4,4.4,0.2,5,3.3c0.2,0.9,0.2,1.9,0.3,2.8
				c8.3,1.2,14.3-2.7,18.8-12c1.4,0.4,2.8,0.8,4.1,1.1c2.9-1.7,3.5-4.5,3.8-7.2c0.4-4.3-2.9-7.3-7.1-6.4c-2,0.5-3.2-0.2-4.7-1.2
				c-4-2.9-6.2-2.8-10.3,0.1C561.8,421.1,560.6,421.7,559.3,422.5z"/>
			<path class="st0" d="M574.8,488.7c0.8-0.1,1.5-0.3,2.2-0.4c1.9-0.2,3-1.5,2.7-3.2c-0.2-1.3-1.2-2.9-2.3-3.6
				c-1.4-0.9-2.7-0.2-4,1.3c-2,2.5-3.3,2-4.6-1.1c-1.4-3.5-4.1-4-6.5-1.2c-0.8,1-1.5,2.5-1.3,3.7c0.5,3.8-0.9,6.9-3.9,10.9
				c3.4-0.7,5.6-1.2,8-1.7C571.3,496.8,572.9,496.2,574.8,488.7z"/>
			<path class="st1" d="M815.5,747.3c0.5-1.8,1.2-3.3,1.3-4.8c0.3-4.5,0.4-9,0.5-13.5c0.3-12,0.3-23.9,0.9-35.9
				c0.2-4.1-1.1-6.8-4.4-8.5c-12.2-6.2-24.3-12.7-36.7-18.4c-15.1-6.9-30.5-13.2-45.8-19.8c-3.8-1.6-7.5-3.5-11.5-4.9
				c-20.5-7.1-40.9-14.1-61.5-20.9c-9.9-3.3-19.9-6.1-29.8-9.1c-7.5-2.2-15-4.2-22.5-6.5c-8.5-2.5-16.8-5.3-25.3-7.7
				c-11-3.1-22.1-5.8-33.1-8.8c-14-3.7-28-7.9-42.1-11.2c-15.2-3.6-30.5-6.5-45.7-9.8c-16.6-3.6-33.2-7-49.8-10.9
				c-11.9-2.8-24-3.8-36-5.3c-4.1-0.5-8.2-1.5-12.3-2c-12.1-1.4-24.1-2.5-36.2-3.8c-11.9-1.3-23.8-3.1-35.7-3.9
				c-14.9-1-29.8-1.8-44.7-1.8c-21.7,0-43.4,0.7-65.1,1.2c-4.2,0.1-8.3,0.1-12.5,0.6c-2.5,0.3-5,1.3-8.2,2.2
				c-0.9-0.3-2.6-1.4-4.4-1.3c-9.7,0.4-19.4,0.7-29.1,1.7c-11.2,1.2-22.3,2.8-33.4,4.5c-13.9,2.2-27.7,4.7-41.5,7.4
				c-8.3,1.6-16.6,3.5-24.8,5.6c-11.9,3.1-23.9,5.9-35.5,9.9c-18.8,6.6-37.3,14.1-55.8,21.4c-10.3,4.1-20.1,9.2-29.6,15
				c-5.8,3.5-11.7,6.9-17.8,9.7c-8.4,3.9-16.1,8.8-23.7,13.9c-3.2,2.1-5.8,4.3-4.2,8.8c0.3,0.7-0.2,1.7-0.3,2.6
				c-0.6,11.6-1.3,23.2-1.7,34.8c-0.2,3.8,0.3,7.6,0.4,11.4c0.2,10.6,0.3,21.1,0.6,31.7c0,2.4,0.3,4.7,0.4,7.6
				c3.3-0.3,6-0.5,8.7-0.8c1.7-0.2,3.4-0.7,5.1-0.7c8.3-0.2,16.6-0.1,24.9-0.4c10.8-0.3,21.5-0.9,32.2-1.4c2.9-0.1,5.9-0.4,8.8-0.8
				c4.8-0.6,9.5-1.6,14.4-2.2c6.7-0.8,13.4-1.3,20.1-1.9c5.9-0.5,11.8-1,17.6-1c7.1,0,14.1,0.6,21.2,0.7c22,0.3,44-0.4,66.1,1.7
				c16.9,1.6,33.9,1.4,50.9,1.6c9,0.1,18-0.6,27-0.8c5-0.1,9.9,0.1,14.9,0.1c9.7,0.1,19.4,0.2,29.1,0.1c12.3-0.2,24.7-0.9,37-0.8
				c11.4,0.1,22.8,1,34.3,1.8c8.8,0.6,17.6,1.8,26.4,2.4c10.4,0.6,20.8,1,31.2,1.1c10.9,0.1,21.8,0,32.7-0.3
				c15.1-0.5,30.2-1.4,45.3-2c9.5-0.4,19.1-1,28.6-0.9c10.4,0.1,20.8,0.7,31.2,1.2c17.2,0.8,34.3,1.6,51.5,2.4
				c14.5,0.7,29.1,1.4,43.6,2.1c12.1,0.6,24.3,1.5,36.4,1.8c13.7,0.3,27.3,1.3,41.1,0.4c10-0.7,20.1-0.2,30.2-0.2
				c5.9,0,11.8-0.3,17.7,0.2c11.6,1.1,23.2,2.5,34.9,2.9c5.9,0.2,11.8,0.8,17.6,1.7c6.7,0.9,13.2,2.6,19.9,3.3
				c6.9,0.8,13.9,0.8,20.8,1.3c5.2,0.4,10.4,0.7,15.5,1.5C802.1,744.1,808.6,745.8,815.5,747.3z"/>
			<path d="M668.1,174.7c-5.4-5.1-12.2-7.8-19.2-11c-0.5-3.6-1-7-1.3-10.4c-0.9-11.5-5.5-21.4-12.6-30.2
				c-8.4-10.3-19.8-16.3-32-20.6c-9.9-3.5-20.4-4.9-31.1-4.9c-7.8,0-14.5,3.9-17.3,12.2c-1.3,3.7-2.8,7.3-4.4,11.6
				c-1.2-1.5-2-2.4-2.7-3.3c-7.1-10.3-16.1-18.5-26.2-25.8c-9.4-6.8-19-13.2-29.3-18.7c-13.3-7.1-26.2-14.8-41.1-18.1
				c-6.6-1.4-13.2-2.5-19.9-3.4c-4.8-0.7-9.7-0.5-14.5-1.3c-6-1-11.8-0.7-17.6,0.8c-4.3,1.1-8.4,3.2-12.7,4.5
				C366.9,62,351.6,73.4,340,89.7c-1.9,2.7-3.4,5.8-5.2,8.9c-2-1.6-3.5-3.5-5.4-4.5c-10.2-5.1-19.9-11.4-30.9-14.8
				c-8.6-2.6-17.2-5.5-26-7.2c-11.8-2.3-23.7-2.2-35.7-0.3c-8.2,1.3-15.2,4.4-21.6,10.2c-1.3-0.3-2.9-0.8-4.6-1.1
				c-1.5-0.3-3.1-0.7-4.6-0.6c-8.3,1-16.4,2.8-22,9.9c-1.4,1.7-3,2.4-5,1.2c-6.4-3.9-13.3-3.9-20.5-3.9c-8.9-0.1-16,3.5-22.7,8.4
				c-1.8,1.3-4,2.6-5,4.4c-3.9,7.1-6.4,14.7-4.1,22.9c1,3.4,2.5,6.6,3.7,9.9c-0.5,0.2-0.9,0.5-1.1,0.4c-5.9-3-11.9-1.4-17.8-0.2
				c-12,2.5-24,4.8-35.2,10c-8.8,4.1-17.2,8.8-24.9,14.6c-4.1,3.1-7.7,7-11.3,10.7c-7.3,7.6-11.4,16.8-13.4,27.1
				c-1.7,9.1,0.6,17.7,4.2,25.8c1.8,4,4.7,7.6,7.5,11.1c3.1,3.9,7.7,6.5,9.7,11.4c0.4,1,1.7,1.7,2.7,2.3c1.7,1.1,3.7,1.9,5.4,3.2
				c8.4,6.2,17.8,7.1,27.8,5.9c1.2-0.1,2.3-0.3,4.1-0.5c0,2.2,0.1,4,0,5.9c-0.3,6.8-0.1,13.5,1.6,20.2c2.3,8.9,5.6,17.1,12.2,23.7
				c12,11.9,26.8,18.9,43.2,21.9c7.8,1.4,15.9,1,23.9,1.5c6.1,0.4,12.2-0.2,17.9-1.8c12.1-3.5,24-7.8,35.3-13.5
				c8-4.1,16-8.3,24-12.5c1.5-0.8,3-1.4,4.3-2c0.6,0.7,1,0.9,1.1,1.2c5,15.9,16,27,29.5,35.9c6.1,4,13.1,6,20.3,7.5
				c13.4,2.8,26.7,3.1,40.3,1.2c10.3-1.5,20.3-4.3,30.3-7c15.6-4.3,28.7-12.8,40.4-23.6c3.5-3.3,6.9-6.7,10.1-9.8
				c6.3,5.2,12.4,10.5,18.8,15.5c10.6,8.1,22.7,13.1,35.4,16.8c9.1,2.6,18.3,3.1,27.7,3.8c10,0.8,19.7-0.7,29.5-2
				c4.4-0.6,8.8-1.8,13.1-3.1c12.5-3.7,22.6-11.9,33.5-18.4c5.3-3.2,9.5-7.6,13.1-12.4c5.7-7.7,11-15.5,13.1-25.1
				c0.7-3.3,1.8-6.6,2.7-9.8c4.3-0.6,8.4-1.1,12.5-1.7c10.1-1.5,19.2-5.8,27.9-10.8c1.6-0.9,3.5-1.7,4.8-3
				c5-5.3,10.2-10.4,14.5-16.3c3.4-4.7,7.8-8.9,9-15c0.8-4.1,1.9-8.1,2.5-12.2C682.7,196,678.3,184.3,668.1,174.7z M65.8,152.7
				c11.3-7.1,23.6-11.6,36.7-13.9c2.7-0.5,5.4-1.2,8.1-1.9c8.8-2,17.2-1.8,24.9,3.6c0.2,0.2,0.7,0,1.6,0c-0.1-1.1,0.1-2.2-0.4-3.1
				c-1.2-2.5-2.7-4.9-4.1-7.3c-5.1-8.6-4.1-17.3-0.4-26c1.9-4.3,6-6.4,9.9-8c8-3.4,16.5-4.4,24.9-2.1c4.9,1.3,9.2,4,11.9,8.5
				c1.3,2.2,2.8,2.9,5,1.5c1.3-2.4-1.7-4.4,0-7c1.5-2.4,3-4.7,5.5-6c5.4-3,10.7-5.5,17.2-2.6c2.4,1.1,3.9,2.6,5.2,4.7
				c1.6,2.7,3.5,2.6,4.9-0.1c1-2,1.7-4.3,3.1-5.9c1.5-1.8,3.5-3.6,5.6-4.3c12.8-4.1,25.8-4.5,39-2.7c10.8,1.4,20.6,5.7,30.2,10.3
				c8.4,4,16.3,9.1,24.3,13.9c2.3,1.4,4.3,3.5,6.4,5.3c3.4,3,7.1,5.4,11.7,6.9c0.6-0.7,1.5-1.3,1.5-1.9c-0.1-8,3.9-14.6,7.5-21.2
				c8.5-15.8,22.3-25.3,38.9-31.1c3.2-1.1,6.8-1.3,10.3-1.4c8.2-0.2,16.3-0.3,24.5,0.1c5.9,0.3,11.7,1.1,17.5,2c3,0.5,5.8,2.1,8.8,3
				c5.4,1.7,10.8,3.5,16.2,5.1c9.6,2.9,19,6.1,27.6,11.5c7.3,4.6,15.1,8.5,22.3,13.4c11.5,7.9,22.3,16.5,30.5,28.1
				c2.1,2.9,4.2,5.8,6.8,9.4c1.1-1.9,1.9-2.9,2.4-4.1c2.2-6,4.4-12,6.5-18c2.4-6.6,8.1-8.7,14.1-8.7c10.7,0.1,21.4,1.1,31.4,6
				c9.1,4.4,17.4,9.5,23.1,18c4.7,7.1,8.6,14.8,9.4,23.4c0.8,8.5-3.5,12.9-12.1,13c-14.6,0.2-29.1,0.5-43.7,0.5
				c-19.9,0-39.9-0.2-59.9-0.3c-6.6,0-13.2,0.3-19.7,0.3c-16.8,0-33.6-0.2-50.4-0.2c-21-0.1-41.9-0.1-62.9-0.2
				c-26.2-0.1-52.3-0.1-78.5-0.2c-7.5,0-14.9-0.1-22.4-0.2c-30.2-0.3-60.4-0.6-90.5-0.8c-27.4-0.2-54.9-0.3-82.3-0.4
				c-16.9-0.1-33.7,0-50.6-0.1c-2.7,0-5.4-0.4-8.9-0.6C57.8,156.7,62.1,155,65.8,152.7z M667.2,222.5c-4.2,9.7-8.8,18.9-17,25.8
				C641,256,630.5,261,618.3,262c-2.9,0.2-5.9,0.6-8.8,0.6c-4.7,0-9.3-0.4-14-4.9c-0.4,2.8-1,4.3-0.8,5.7c2.6,18.1-3,33.7-15.6,46.5
				c-13.2,13.4-29.1,22.4-48,25c-11.3,1.5-22.7,1.8-34.2,0.9c-14.6-1.2-28.3-5.4-41.2-11.6c-11.6-5.6-21.9-13.5-30.1-23.6
				c-2.7-3.3-4-7.6-6.1-11.4c-0.7-1.2-1.7-2.2-3.1-4c-3,12.7-10.5,21.1-19.4,28.6c-5.4,4.6-10.8,9.3-16.7,13.1
				c-4.4,2.9-9.5,5.1-14.6,6.7c-8.9,2.8-18,5.2-27.1,7.1c-9.2,1.9-18.6,1.5-28,0.4c-4.1-0.5-8.2-1.3-12.2-2.2
				c-14.9-3.4-26.3-12.1-35.5-23.9c-7.2-9.2-9.9-19.7-9.5-31.2c0.1-2.7,0.1-2.7-1.8-5.3c-4.2,4-8.2,8.1-12.6,11.9
				c-9.1,7.8-19.8,13.4-30.3,19.1c-8.5,4.7-17.6,8-26.9,10.8c-7,2.1-14.2,3.2-21.6,1.8c-2.4-0.4-5.1,0.2-7.6,0.3
				c-1,0.1-2.1,0.1-3.1,0.1c-17.9-0.7-33.2-7.6-45.9-20c-7.2-7-10.2-16.4-11.7-26.1c-0.4-2.7-0.7-5.5-1-8.3
				c-0.7-7.2,1-13.8,4.6-19.8c-2.2-3.9-2.2-3.7-5.9-3c-12.4,2.4-24.6,1.9-36.1-3.8c-2.7-1.3-5-3.6-7.5-5.5c-0.7-0.5-1.1-1.3-1.8-1.8
				c-8.4-6.4-11.6-15.6-14.4-25.3c-1.8-6.2-0.5-12.2,1.3-17.9c2.5-8,7.1-14.9,12.7-21.3c3.7-4.2,8-5,12.9-5
				c30.9,0.1,61.8,0.3,92.8,0.5c24.3,0.1,48.7,0.3,73,0.4c17.5,0.1,35,0.1,52.6,0.1c22.9,0.1,45.8,0.3,68.7,0.4
				c22.6,0.1,45.1-0.1,67.7,0.1c19.4,0.1,38.9,0.6,58.3,0.7c9.9,0.1,19.7-0.3,29.6-0.3c12,0,23.9,0.2,35.9,0.3
				c18.4,0.1,36.8,0.2,55.2,0.3c9.9,0,19.8,0.1,29.7,0.2c1.2,0,2.7-0.3,3.6,0.3c2.1,1.6,4.2,1,6.4,0.7c13.3-2,33,8.5,37.4,22.7
				C670.9,201.3,671.7,211.9,667.2,222.5z"/>
			<path d="M436.8,345.6c-0.7-0.5-1.3-1.1-1.8-1.5c0-0.7-0.1-1,0-1.4c1.4-7.2-1.6-13.1-8.3-15.7c-5-1.9-10.2-1.2-15.2-0.5
				c-1.8,0.2-3.8,1.2-4.9,2.5c-1.6,2-3.3,2.1-5.5,1.8c-5.3-0.7-9.2,1.6-11.4,6.3c-1,2.1-0.9,4.7-1.4,7.2c-6.2,4.6-8.3,9.2-6.5,15.2
				c2.3,7.8,8.5,8.8,16,7.8c0.3,6,2.4,10.1,7.7,11.7c5.2,1.5,10.3,2.6,15.7,0.6c1.8-0.7,4-0.9,6-0.7c6.1,0.5,11.8-1.7,14.5-6.4
				C446.6,364,446.8,352.7,436.8,345.6z M435.2,368.3c-1.3,1-2.3,2.3-4.1,4.2c-3.6,0-8.1,1.6-11.1-1.8c-3,1.6-5.4,3.6-8.1,4.2
				c-7.1,1.7-10.7-1.6-9.9-8.7c0.3-2.5-0.1-4.4-2.5-6c-1.2,0.7-2.5,1.5-3.9,2.1c-4.5,2.1-9.2,0.8-10.7-3.1c-1.5-3.8,0.9-8.4,5.2-10
				c1.1-0.4,2.3-0.7,3.8-1.1c-1.5-4.2-2.9-8.5,1.8-11.6c4.5-2.9,7.7-0.4,11,3.2c0.6-1.5,1.2-2.3,1.2-3.2c0.2-3.9,2.6-5.4,6-6.1
				c6-1.2,11.2,1.1,13.5,6c1.7,3.6,0.9,6.3-2.8,8c-1.8,0.9-2.8,1.9-2.7,3.9c0.2,2.6,2.4,3.7,4.7,2.5c1-0.5,2.2-1.4,3.1-1.2
				c5.6,0.9,7.1,5.7,8.6,10.1C439.7,363.3,438.1,366.1,435.2,368.3z"/>
			<path d="M371.3,405.2c-1.7-0.2-3.4-0.4-5.2-0.5c-0.7-1.4-1.2-2.9-2.2-4.1c-4.1-5.3-8.8-10.1-16.3-9.1c-5.9,0.8-11.5,2.3-15,8.4
				c-2.1,3.7-2.6,7-1.3,10.8c0.3,0.9,0.6,1.8,1,2.8h0.1c0,0,0,0.1,0.1,0.1c2.3-0.2,2.4-1.9,2.1-3.7c-0.9-5.6,2.3-9.4,6.6-11.8
				c4.4-2.4,11.1-2.8,13.5,3.7c1.3,3.5,2,7.3,2.8,11c0.4,1.8-0.4,4,2.7,4.5c0.3-0.7,0.8-1.4,1-2.1c0.8-3.7,2.5-5.2,6.1-5.8
				c4.3-0.6,6.2,0.3,8.1,4c2.3,4.5,1.4,9.8-2.1,13.4c-0.6,0.6-1.3,1.2-2,1.7c-3.3,2.3-6.8,4.1-9.3,7.6c-2.5,3.6-6.7,4.7-11.1,4.5
				c-3.4-0.2-5-1.4-5.8-4.8c-0.2-0.8-0.2-1.7-0.5-2.5c-0.7-2.2-2-3.1-4.3-2.1c-1.7,0.7-3.6,1.1-5.5,1.4c-4.1,0.7-7-1.5-9.1-4.7
				c-2-3.1-1.1-6.5,2.1-8.4c2.1-1.2,4.3-2.1,6.9-3.3c-0.9-1-1.5-1.7-2.1-2.4c-0.1,0-0.1,0-0.2,0v-0.1c-9.5-0.1-13.8,6.7-9.7,15.1
				c2.5,5.1,7,7.5,11.7,9.6c2.2,1,4.9,0.7,7.9,1.1c1.7,2.4,4,5.5,8,5.3c5.9-0.2,11.8-0.6,15.9-5.9c0.9-1.1,2.5-2.3,3.7-2.3
				c3.5,0,5.8-2,8.2-4c4.9-4.1,6.1-9.7,5.1-15.5C382,410.4,378.4,405.9,371.3,405.2z"/>
			<path d="M332.5,413.5C332.4,413.4,332.4,413.4,332.5,413.5c-0.1-0.1-0.1-0.1-0.2-0.1v0.1C332.4,413.5,332.4,413.5,332.5,413.5z"
				/>
			<path d="M577.2,413c-4.5-3.9-5.2-4.6-7.7-3.7c-6.3,2.1-12.5,4.4-14.3,11.9c-2,0.4-3.8,0.7-5.6,1.2c-1.9,0.6-3.9,1.3-5.7,2.3
				c-4.1,2.5-5.9,7.3-5,12.7c0.7,3.6,3.7,6,8.8,6.8c1.7,0.3,3.4,0.4,5.3,0.6c0.5,0.7,0.7,0.9,0.9,1.2c4.4,8.3,14.8,9.8,20.9,2.7
				c2.4-2.8,5.4-4.1,8.5-5.5c10.1-4.5,12.9-17,5.8-25.5C586,414,582.4,411.3,577.2,413z M581.3,435c-1.3-0.4-2.7-0.7-4.1-1.1
				c-4.5,9.3-10.5,13.2-18.8,12c-0.1-0.9-0.1-1.9-0.3-2.8c-0.6-3.1-1.8-3.7-5-3.3c-2.3,0.3-4.8,0.2-7.1-0.3
				c-3.5-0.8-4.3-2.9-3.1-6.3c1.8-5,9.7-8.7,15.2-5c0.8,0.6,1.7,1,2.6,1.5c0.1,0.1,0.3-0.1,0.6-0.1c1.9-2.9-1.2-4.6-2-7.2
				c1.3-0.8,2.5-1.4,3.6-2.2c4-2.9,6.3-3,10.3-0.1c1.5,1.1,2.7,1.7,4.7,1.2c4.2-0.9,7.5,2.1,7.1,6.4
				C584.8,430.5,584.1,433.3,581.3,435z"/>
			<path d="M550.8,384.8c0.9-0.6,2.4-0.4,3.5-0.7c3.1-1,6.4-1,9-3.6c5-5.1,6.7-11,4.4-17.7c-1.5-4.4-3.7-8.5-5.7-12.7
				c-0.4-0.9-1.3-1.6-2.1-2.3c-8.9-7-24.8-2.3-27.6,6.6c-0.9,2.7-2.8,4.1-5.2,5.4c-1.5,0.8-3,2.4-3.6,4c-3.4,8.9,1.4,16,11.4,16.3
				c0.5,0.6,0.8,1,1.1,1.4C540.6,386.9,543.2,389.6,550.8,384.8z M536.6,373.6c-3.4,1.8-6.5,3.6-9.4,0.4c-1.7-1.9-1.8-5-0.5-7.3
				c1.7-2.9,4.4-3.9,8.5-3.2c2.4-2.8-0.8-7.1,2.7-9.9c2.8-2.3,5.7-3.7,9.2-4.4c4.1-0.9,7,1,10.8,3.3c-0.6,1.7-1,3.6-1.9,5.3
				c-1.7,3.4-1.6,4.3,1.3,6.3c4.1,2.8,4.1,2.8,2.3,7.4c-1.1,2.7-1.9,5.6-4.8,7.5c-0.7-0.5-1.3-1-1.9-1.6c-2.8-2.7-3.4-2.6-6.2,0.2
				c-1.4,1.5-3,2.8-5.2,4.7C539.8,379.3,538.3,376.5,536.6,373.6z"/>
			<path d="M270.9,350c-3.4-0.5-6.1-1.8-9-3.4c-6.6-3.7-8.4-3.1-12.8,3.1c-0.2,0.3-0.5,0.5-0.7,0.7c-6.2,0.6-9.1,1.8-11.9,6.3
				c-3.4,5.4-3.5,11.6,0.2,14.8c3.2,2.8,6.4,5.8,11.3,5.3c1.1-0.1,2.7,0.6,3.5,1.5c6.6,6.5,16,5.5,21.1-2.2c1.2-1.8,2.8-3.5,4.2-5.2
				c2.6-3.3,5.3-6.7,3.9-11.2C279.4,354.7,276.3,350.8,270.9,350z M266.6,367.2c0,2.1,0.1,4.3,0,6.6c-0.1,3.7-3.9,4.6-7.5,4.7
				c-3,0-4.5-1.7-4.8-4.9c-0.1-2.2,0.5-4.6-2.9-6.1c-2.8,3-6.1,3.4-9.9,2.3c-3.5-1-4.7-2.6-3.7-6c1.5-4.5,4.1-8,9.3-8.8
				c1.1,0.9,2.2,1.9,3.7,3.1c0.5-1.6,0.9-2.6,1.3-3.8c1.5-5,2.7-5.5,7.6-3c0.5,2.3,1,4.5,1.7,7.5c2.2-1.7,3.7-2.8,5.2-4
				c2,0.6,3.9,1.2,5.8,1.8C273.5,363.4,273.2,364,266.6,367.2z"/>
			<path d="M581.6,476.9c-4.4-3.7-10.1-3.8-15.3-5c-2.4-0.6-6,1.9-8,2.9c0,4.6,0,8.3,0,12.6c0,0.3-1,0.6-1.4,0.9
				c-3,2.5-3.7,4.4-2.3,7.6c1.2,2.7,3.2,3.6,6.8,3.3c1.4-0.1,2.9-0.6,4.1-0.1c6.7,2.4,11.7-0.4,16.4-4.7
				C587.3,489.6,587.4,481.8,581.6,476.9z M577,488.4c-0.7,0.1-1.3,0.2-2.2,0.4c-2,7.4-3.5,8.1-9.7,4.7c-2.4,0.5-4.6,1-8,1.7
				c3-4,4.3-7.1,3.9-10.9c-0.1-1.2,0.5-2.8,1.3-3.7c2.4-2.8,5-2.2,6.5,1.2c1.3,3.1,2.6,3.5,4.6,1.1c1.2-1.5,2.6-2.1,4-1.3
				c1.1,0.7,2.1,2.3,2.3,3.6C580,486.9,578.9,488.1,577,488.4z"/>
			<path d="M317.6,460.5c-1.7-0.2-3.6-1-5-2c-3.6-2.7-6.6-3.1-10.4-0.6c-3,1.9-4.9,6-4,9.4c0.5,1.8,0.8,3.4,0.3,5.4
				c-0.8,3.9,2.3,7.6,6.9,7.6c1-0.4,3.1-1.1,5.2-1.8c1.6-0.5,3.3-1.4,4.9-1.3c3.3,0.2,5.2-1.6,7-3.7s3.2-4.6,2-7.5
				C323.2,462.9,321.2,460.8,317.6,460.5z M308,471.8c-0.9,2.3-1.5,5.3-5.5,3.6c0.3-0.7,0.4-1.6,0.9-2.1c2.1-1.8,1.4-3.6,0.2-5.5
				c-2.3-3.8-1.6-5.5,2.5-6.7c1.1-0.3,2.3-0.2,3.4-0.3c1,2.4,2,4.5,3,6.8c1.8-0.9,3.1-1.5,5-2.5C316.5,471.9,314,473.5,308,471.8z"
				/>
			<path d="M262.8,404.1c-0.5,0.1-1-0.1-1.5-0.1c-4.6-0.6-5.7,0.1-6.9,4.6c-0.5,1.8-1,3-2.7,4c-2.3,1.3-3.9,3.7-3.3,6.5
				c0.6,3,2.7,4.7,5.7,5.3c1.1,0.2,2.7,0.4,3.2,1.1c1.4,2.4,3.5,2.9,5.8,2.2c2.3-0.7,4.8-1.4,6.4-3c2.1-2.1,3-5.3,5.8-7.1
				c0.8-0.5,0.8-2.2,1.1-3.5c-0.4-1.1-0.6-2.5-1.3-3.3C271.7,407.3,269.1,402.3,262.8,404.1z M265.4,416.7c0.1,1.6,0.2,3.4,0.3,5.7
				c-1.4,0.6-2.9,1.2-4.7,2c-0.2-1.5-0.1-2.6-0.5-3.5c-0.7-1.5-1.6-2.5-3.6-1.7c-1.4,0.6-3.1,0.4-5.1,0.6c2-4.3,2-4.3,6.9-2.8
				c3-2.6-4.1-5.4,0.4-8.1c1,1.2,2.1,2.5,3.2,3.8c2.3-1.3,1.7-5.7,5.2-4.3c1.3,0.6,2.8,2.3,3,3.7
				C271.2,415.7,267.4,415.1,265.4,416.7z"/>
			<path d="M469.8,502.5c-2.2,1.4-1.9,3.3-0.7,4.9c0.7,0.9,2.1,1.2,3.2,1.8c0.7-1.5,1.8-2.9,1.9-4.4c0.1-1.2-1-2.5-1.8-4.1
				C471.2,501.6,470.5,502.1,469.8,502.5z"/>
			<path d="M483.8,509.6c1.2-0.4,2-1.8,2.5-2.4c-0.1-2.8-1.8-4.5-3.6-4.6c-1.7-0.1-3.2,1.6-3.1,3.4
				C479.8,508,482.1,510.2,483.8,509.6z"/>
			<path d="M782,663.3c-13.8-6.4-27.9-12.3-41.9-18.2c-9.1-3.8-18.2-7.5-27.5-10.9c-12.5-4.6-25-9.2-37.7-13.3
				c-18.4-5.9-37-11.4-55.5-17c-17.1-5.1-34.2-10-51.3-14.8c-6.3-1.8-12.8-3.2-19.1-4.8c-1.5-0.4-2.9-1-4.3-1.5
				c5.1-15.1,10.2-29.7,14.9-44.5c1.3-4,1.4-8.5,2.2-13.2c2.5,0.7,5.4,1.1,8,2.3c2.5,1.1,3.2,3.8,2.8,6.2c-0.8,4.8-1.8,9.5-2.9,14.2
				c-0.4,1.7-1.2,3.2-1.7,4.9c-0.7,2-1.7,3.6-3.3,5c-2.1,2-3.8,4.4-5.5,6.8c-2.4,3.3-1.5,6.6,0.5,9.7c2.4,3.8,6.9,4.2,9.5,0.6
				c1.7-2.3,2.2-5.3,3.2-8.1c0.2-0.6,0.3-1.4,0.2-2.1c-1-7.8,1.6-15,3.8-22.3c1.5-5,1.4-10.1-0.7-14.8c-0.9-2.1-2.7-4.2-4.7-5.2
				c-3.1-1.5-6.6-2.3-10-2.7c-2.4-0.3-4.2-0.7-5.7-2.6c-3.3-4.3-8.3-5.6-13.2-6.5c-7.6-1.5-15.3-2.7-23-3.9
				c-3.7-0.6-7.5-0.9-11.6-1.4c2.9-3.9,5.7-7.2,8.1-10.9c1.9-3,3.8-6.1,2.8-10c-0.9-3.4-1.7-4.3-5.2-4.7c-4.6-0.6-8.9,1.1-12.3,3.5
				c-4.8,3.3-9.1,4.9-14.3,1.3c-0.4-0.3-0.9-0.4-1.4-0.6c-1.1-3.4,0.5-6.1,1.6-9c1.2-3.3,0.5-4.4-3.2-5.7c-2.7,4.3-2.1,9.5-3,14.5
				c-2,0-3.8,0-6.1,0c0.8-3,1.5-6.2,2.1-9c0.2-0.8,0.4-1.8,0.3-2.7c-0.3-2-0.9-4-3.2-4.3c-2.1-0.2-2.2,1.8-2.7,3.2
				c-0.2,0.6-0.7,1.1-1.2,1.9c-3.5-3.8-7.4-6.5-12.7-6.1c-2.8,0.2-4.2,1.3-5,4.2c-2,7-1.1,13.5,3.1,19.3c1.7,2.4,2.1,4.5,1.8,7.5
				c-0.7,5.6-0.9,11.5-0.3,17.1c0.6,5.4,3.3,9.7,9.7,10.6c3.7,0.6,7.3,2.1,11.3,3.4c-2.3,12-4.6,24-6.9,36.3
				c-20.7-4.4-41.2-8.8-61.8-13.2c0.4-3.6,0.7-6.4,1.1-10c7.8,1.2,15.5,2.4,23.3,3.7c2,0.3,3.3-0.4,4.4-2c3.7-5.3,3.2-11,0.5-16.3
				c-2.3-4.6-5.5-8.8-8.6-12.9c-2.8-3.8-7.5-5-11.6-6.7c-4.3-1.8-8.8-2.8-13.7-4.3c-4.1-7.6-10.5-13.4-18.2-18.1
				c-8.9-5.4-18.4-6.8-28.4-6.2c-10,0.6-19.3,3.4-27.5,9.6c-2.9,2.2-6.2,3.8-9.4,5.5c-1.2,0.6-2.7,0.7-4,0.7
				c-2.8,0.1-5.6,0.1-8.3,0.1c-5.9-0.1-10.1,3.1-13.8,7.2c-2.6,2.9-1.5,18.6,1.2,21.4c0.2,0.2,0.5,0.6,0.8,0.7
				c6.4,2.2,12.7,5.5,19.8,3.9c1-0.2,2-1.3,2.8-2c3.9-3.5,6.4-4.7,10.3-4.9c-8.5,6.2-9.8,10.3-6,19.4c-16.4-1.6-32.4-3.1-48.6-4.7
				c1.5-8.7,0-16.9-0.2-25.1c-0.2-7.1-0.7-14.2-1.1-21.3c-0.3-5.9-0.5-11.8-0.7-17.7c-0.4-9.4-0.8-18.7-1.2-28.1
				c-0.2-4.3-3.4-7.8-7.6-8.5c-3.6-0.6-7.1-1.4-11.1-2.2c-2.4,2.2-3.6,5-3.2,9.2c0.4,4.8-0.9,9.6-1.3,14.5c-0.4,4.3-0.6,8.7-0.9,13
				c-0.4,4.3-0.8,8.5-1.3,14.1c-2-1.8-3.3-2.8-4.3-4c-3.6-4.6-8.4-7.7-13-11.1c-2.5-1.9-5-3.8-7.1-6c-1.7-1.8-3.3-3.1-5.8-2.2
				c-2.9,1-2.8,3.5-2.8,6.1c0.1,6.8,0.1,13.5,0.1,20.3c0,0.8-0.1,1.7-0.3,3.5c-3.7-3.3-7.2-5.8-9.9-9.1c-3.8-4.6-9-7-13.8-10
				c-3.5-2.2-8.6,1.2-8.7,5.5c0,1.4,0.4,2.7,0.6,4.1c1.2,7.1,2.4,14.3,3.7,22.1c-7.9-5.7-15.2-10.9-22.5-16.1
				c-2.1-1.5-4.4-2.7-6.7-3.9c-2.8-1.6-4.9,0.4-7.7,1.8c3.1,17.3,6.1,34.6,9.3,52.7c-2.8,0.5-4.9,1-7,1.1
				c-10.7,0.8-21.5,0.9-32.2,2.3c-15.3,1.9-30.5,4.6-45.7,7.1c-12.1,2-24.2,4.1-36.2,6.7c-9,1.9-17.8,4.4-26.7,6.9
				c-8.2,2.3-16.5,4.4-24.3,7.5c-21.7,8.6-44.1,15.7-65,26.2c-11.1,5.6-21.9,11.8-32.9,17.8c-8.8,4.8-17.6,9.9-27,15l-6.7,3.5l0,0
				c0,4-0.1,8-0.3,12.2c-0.4,14.7-3.1,29.1-2.1,43.9c0.3,4.6-0.5,9.3-0.3,13.9c0.3,6.9,1.6,13.8,1.6,20.7c0,6.2,2.4,10.6,7.2,14.4
				c4.6-2,9.5-2.5,14.6-1.8c1.4,0.2,2.8,0,4.2,0c8.6-0.1,17.3,0.2,25.9-0.3c10.7-0.6,21.4-1.6,32.1-2.6c6.2-0.6,12.4-1.9,18.6-2.4
				c16.1-1,32.1-2.7,48.3-2.3c12.5,0.3,25-1.2,37.4-1c17,0.2,34,0.9,51,1.7c8.8,0.4,17.6,1.7,26.4,2.1c8.5,0.4,17,0.5,25.5,0.4
				c18.9-0.3,37.8-0.7,56.8-1.2c11.8-0.3,23.6-1.3,35.4-1.4c7.1,0,14.2,1.1,21.2,1.8c4.1,0.5,8.2,1.6,12.3,1.9
				c10.9,0.9,21.8,1.6,32.7,2.2c12.1,0.7,24.3,1.5,36.4,1.9c15.5,0.4,30.8-1.2,46.2-2.7c10.2-1,20.3-2.7,30.6-2.5
				c6.9,0.2,13.9,0.2,20.8-0.1c17.7-0.7,35.4,0.7,53.1,1.8c15.4,1,30.8,1.8,46.2,2.6c2.4,0.1,4.9,0,7.3,0.1
				c16.1,0.6,32.3,1.3,48.4,2c3.3,0.1,6.6,0.2,9.9,0.4c7.3,0.4,14.5,1,21.8,1.2c8.8,0.2,17.7-0.1,26.5,0.2
				c11.6,0.4,23.2,1.7,34.8,1.8c24.2,0.2,48.2,1.4,72.1,5c18.5,2.8,37.2,4.2,55.4,8.6c3.5,0.8,7.1,0.5,9,5.9
				c1.1-1.8,1.3-2.4,1.7-2.9s0.7-1.2,1.2-1.4c4-1.9,4-1.9,3.6-6.1c-0.1-0.9,0-1.7,0-2.6c0.2-6.8,0.5-13.5,0.5-20.3
				c-0.1-10.4-0.5-20.8-0.6-31.3c0-2.4,0-4.8,0-7.2l-9-6.6C805.8,675.2,794,668.9,782,663.3z M522.7,511.9c-0.6,3-1.3,5.6-1.8,8.3
				c-1.1,6.5,0.6,9.8,6.3,12.6c2.3,1.1,4.8,1.9,7.3,2.7c3.4,1.2,3.9,1.8,4,5.6c0.1,1.7,0,3.6,0.6,5.1c1.6,4,3.7,7.6,9.2,7.2
				c-0.9,3.3-1.7,6.3-2.6,9.4c-2.9,1.1-5.5,1-8.5-0.1c-3.2-1.2-6.7-1.5-10.1-2.2c-1.8-0.4-3.6-0.8-5.6-1.2c0-1.1-0.1-1.8,0-2.4
				c1.8-6.6-0.1-11.8-5.6-15.8c-1.2-0.9-2.6-1.9-3.2-3.2c-2.3-5.1-5.9-8.9-11.5-11.5c0.8-5.8,1.6-11.3,2.3-16.8
				C510.4,510.3,516.5,511.1,522.7,511.9z M538.7,581.6c-2.4-0.8-4.1-1.4-6.4-2.2c1.4-4,2.7-7.5,4-11.1c1.8,0.4,3.1,0.6,4.5,0.9
				C542.1,573.5,539.1,576.8,538.7,581.6z M531.1,566.4c-1,4-2,7.8-3.1,12c-13.4-3.4-26.4-6.6-39.5-10c1.3-3.5,2.3-6.3,3.5-9.6
				C504.8,561.4,517.7,563.8,531.1,566.4z M462.9,519.6c-0.7-0.3-1.4-1.2-1.5-1.9c-1.5-7-2.7-14,0-21c0.3-0.7,1.1-1.2,1.9-2.1
				c-4.5-4.9-6.7-10.6-5.8-17.1c0.2-1.2,0.7-2.3,1.1-3.4c0.6,0.1,1.2,0.2,1.8,0.2c0.5,2.1,0.9,4.3,1.5,6.4c0.6,2,1,4.1,2.1,5.8
				c0.5,0.9,2.2,1.7,3.3,1.6c5.3-0.1,10.7-0.4,16-0.6c1,0,2.1,0.1,3.1,0.5c3.3,1.4,6.5,3,9.7,4.5c4.2-5.8,10-8,17.4-9.3
				c-2,6.1-4.3,10.7-9.5,13.3c-1.6,0.8-3.4,1.3-4.5,2.5c-1.4,1.4-2.8,3.3-3,5.1c-0.7,6-0.9,12-1.4,18.2
				C483.9,526,473.2,524.6,462.9,519.6z M477.9,554.9c3,0.8,5.7,1.6,8.6,2.4c-0.6,8.4-2.7,12.1-10.9,8
				C476.4,562.1,477.1,558.8,477.9,554.9z M375.2,487c9,3.4,13.1,7.5,18.4,13.8c-6.5,0.6-11.4-0.2-18.4-1.4
				C375.2,495.4,375.2,491.7,375.2,487z M318.4,515.9c-1.6,2.5-2.9,5.1-4.6,8.2c-2.1-0.4-4.4-0.7-6.7-1.4c-2.3-0.7-4.5-1.7-7.1-2.7
				c-1.8-3.4-2-7.6-2.1-11.7c-0.1-3.3,2.4-4.8,4.9-6.1c4.4-2.4,9.3-2.8,14.1-2.4c3.8,0.3,6.6-0.7,9.8-3c7.5-5.3,15.2-10.7,24.6-11.8
				c5.6-0.7,11.4,0,17.1,0.1c2.4,0,3.4,1.4,3.5,3.6c0,2.9-0.2,7-0.3,9c-4.2,0-7.9,0-11.6,0c0.1,7,0.5,6.4,5.1,7
				c12.5,1.7,25.1,3.1,37.5,5.4c6.4,1.2,12.8,2.9,18.6,6.3c7.6,4.4,12.6,11.4,11.6,24c-3.2-0.5-6.4-1.1-9.5-1.6
				c-3.2-0.5-6.5-0.9-9.8-1.3c-1.2-2-2.3-3.9-3.5-5.8c-2.9-4.8-6.7-8.2-12.3-9.5c-4-0.9-7.8-2.3-12.1-0.7c-4.8,1.7-8.7,4.1-11.2,8.6
				c-0.5,0.9-1.1,1.7-2,3.2c-8-1.8-16-3.5-24.3-5.3c-1.2-2.9-2.5-5.7-3.6-8.6c-2-5.4-5.7-8.6-11.5-9.1
				C327,509.4,321.8,510.6,318.4,515.9z M386.4,547.2c-3.4,0.8-35.9-2.8-42.1-4.6c1.4-3,2.6-5.8,4.2-9.4c2.1,0.2,4.9,0,7.5,0.6
				c5.9,1.4,11.7,3.1,17.5,5c2.7,0.9,4.4,0.6,6.1-1.9c2.2-3.5,3.6-4.1,9.6-5.8C383.2,536.3,383.2,541.6,386.4,547.2z M393,536.4
				c4.6-0.1,8.2,2.6,8.2,6.1c0,2-2.6,3.8-5.9,4c-3,0.2-6.9-2.6-7-5C388.3,538.5,390.1,536.5,393,536.4z M328.2,529.6
				c3.8-3,7-2.3,11.3,1.7c-2,5.4-4.9,7.2-10.2,5.8c-1.3-0.4-3.3-1.8-3.2-2.6C326.1,532.8,326.9,530.6,328.2,529.6z M154.3,493.5
				c6.4,4.2,12.7,6.1,17.4,11c3.5,3.7,7,7.7,11.9,9.8c3,1.3,6.7,0.3,7.9-2.4c0.4-0.9,0.5-2,0.3-2.9c-1.3-7.3-2.8-14.5-4.2-21.8
				c-0.4-2.2-0.6-4.4-1-7.2c1.7,0.7,3,1.1,4.1,1.8c8.4,5,15.7,11.3,21.9,18.9c1.6,1.9,3.8,3.2,6,5.1c2.5-4.2-0.3-7.6,0.1-11
				c0.4-3.6-0.5-7.2-0.5-10.9c0-3.6,0.5-7.3,0.9-11.5c1.4,0.9,2.8,1.5,3.9,2.4c6.7,5.7,14.2,10.5,19,18.3c1.8,3,6.4,2.2,8.1-1.1
				c0.7-1.4,1.1-3,1.2-4.5c0.4-6.1,0.5-12.1,0.9-18.2c0.4-5.5,1-11,1.6-16.6c0.2-2.1,0.6-4.1,0.8-6.2c0.4-4.3,1.2-5,5.5-5
				c1,0,2,0.1,3.5,0.1c1.3,31.2,2.5,62.1,3.8,93.6c-4.9,0.1-9.5,0.1-14.1,0.2c-18.7,0.3-37.5,0.6-56.2,1
				c-10.2,0.2-20.5,0.6-30.7,0.8c-1.2,0-2.4-0.1-4-0.2C159.7,523,157.1,508.8,154.3,493.5z M818.5,692.7
				c-0.6,11.9-0.6,23.9-0.9,35.9c-0.1,4.5-0.2,9-0.5,13.5c-0.1,1.5-0.8,2.9-1.3,4.8c-6.9-1.5-13.4-3.2-20-4.3
				c-5.1-0.9-10.3-1.2-15.5-1.5c-6.9-0.5-13.9-0.5-20.8-1.3c-6.7-0.8-13.2-2.4-19.9-3.3c-5.8-0.8-11.7-1.5-17.6-1.7
				c-11.7-0.4-23.2-1.7-34.9-2.9c-5.8-0.6-11.8-0.2-17.7-0.2c-10.1,0-20.1-0.5-30.2,0.2c-13.7,1-27.4,0-41.1-0.4
				c-12.1-0.3-24.3-1.2-36.4-1.8c-14.5-0.7-29.1-1.4-43.6-2.1c-17.2-0.8-34.3-1.6-51.5-2.4c-10.4-0.5-20.8-1.1-31.2-1.2
				c-9.5-0.1-19.1,0.5-28.6,0.9c-15.1,0.6-30.2,1.5-45.3,2c-10.9,0.4-21.8,0.4-32.7,0.3c-10.4-0.1-20.8-0.5-31.2-1.1
				c-8.8-0.5-17.6-1.8-26.4-2.4c-11.4-0.8-22.8-1.6-34.3-1.8c-12.3-0.1-24.6,0.6-37,0.8c-9.7,0.1-19.4,0-29.1-0.1
				c-5,0-9.9-0.2-14.9-0.1c-9,0.2-18,0.9-27,0.8c-17-0.2-34-0.1-50.9-1.6c-22-2.1-44-1.3-66.1-1.7c-7.1-0.1-14.1-0.7-21.2-0.7
				c-5.9,0-11.8,0.5-17.6,1c-6.7,0.5-13.4,1.1-20.1,1.9c-4.8,0.5-9.6,1.5-14.4,2.2c-2.9,0.4-5.8,0.6-8.8,0.8
				c-10.7,0.5-21.5,1.1-32.2,1.4c-8.3,0.3-16.6,0.2-24.9,0.4c-1.7,0-3.4,0.5-5.1,0.7c-2.7,0.3-5.4,0.5-8.7,0.8
				c-0.2-2.9-0.4-5.3-0.4-7.6c-0.2-10.6-0.3-21.1-0.6-31.7c-0.1-3.8-0.5-7.6-0.4-11.4c0.5-11.6,1.1-23.2,1.7-34.8
				c0-0.9,0.5-1.8,0.3-2.6c-1.6-4.4,1-6.6,4.2-8.8c7.6-5.1,15.3-10.1,23.7-13.9c6.1-2.8,12-6.2,17.8-9.7c9.5-5.8,19.3-11,29.6-15
				c18.5-7.3,37-14.8,55.8-21.4c11.6-4.1,23.6-6.9,35.5-9.9c8.2-2.1,16.5-4,24.8-5.6c13.8-2.7,27.6-5.1,41.5-7.4
				c11.1-1.8,22.3-3.4,33.4-4.5c9.6-1,19.4-1.3,29.1-1.7c1.7-0.1,3.5,1.1,4.4,1.3c3.2-0.9,5.6-1.9,8.2-2.2c4.1-0.5,8.3-0.5,12.5-0.6
				c21.7-0.5,43.4-1.2,65.1-1.2c14.9,0,29.8,0.8,44.7,1.8c11.9,0.8,23.8,2.6,35.7,3.9c12.1,1.3,24.2,2.5,36.2,3.8
				c4.1,0.5,8.2,1.5,12.3,2c12,1.5,24.1,2.5,36,5.3c16.6,3.8,33.2,7.3,49.8,10.9c15.2,3.3,30.6,6.2,45.7,9.8
				c14.1,3.4,28.1,7.5,42.1,11.2c11,2.9,22.1,5.7,33.1,8.8c8.5,2.4,16.9,5.2,25.3,7.7c7.5,2.2,15,4.2,22.5,6.5c10,3,20,5.8,29.8,9.1
				c20.5,6.8,41,13.9,61.5,20.9c3.9,1.4,7.6,3.3,11.5,4.9c15.3,6.6,30.7,12.8,45.8,19.8c12.4,5.7,24.5,12.1,36.7,18.4
				C817.5,685.9,818.7,688.6,818.5,692.7z"/>
		</g>
	</g>
	<g>
		<g>
			<path class="st2" d="M553.9,54.9c-11.5,0-20.8,8.9-22.5,19.4"/>
			<g>
				<polygon points="526.9,68 531.5,73.5 537,68.9 536.6,73.2 531.1,77.8 526.5,72.3 				"/>
			</g>
		</g>
	</g>
	<g>
		<g>
			<path class="st3" d="M88.2,353.5c11.5,0,20.8-8.9,22.5-19.4"/>
			<g>
				<polygon class="st0" points="115.2,340.4 110.6,334.9 105.1,339.5 105.5,335.2 111,330.6 115.6,336.1 				"/>
			</g>
		</g>
	</g>
	<g>
		<path d="M572.8,48.7c-3.7,0-6.5-0.6-8.5-1.8c-2-1.2-2.9-2.9-2.9-5.2V41c0-1.6,0.5-2.9,1.4-4c0.9-1.1,2.4-1.8,4.4-2.1
			c-1-0.2-1.8-0.5-2.4-0.8c-0.7-0.3-1.2-0.7-1.5-1.2c-0.4-0.4-0.6-0.9-0.8-1.4c-0.2-0.5-0.2-1-0.2-1.5v-0.4c0-2.2,0.9-3.8,2.6-4.9
			c1.7-1.1,4.4-1.6,8-1.6s6.3,0.5,8,1.6c1.7,1.1,2.6,2.7,2.6,4.8v0.4c0,0.6-0.1,1.1-0.2,1.5c-0.2,0.5-0.4,0.9-0.8,1.4
			c-0.4,0.4-0.9,0.8-1.5,1.2c-0.7,0.3-1.5,0.6-2.5,0.8c1,0.1,1.9,0.4,2.7,0.8c0.8,0.4,1.4,0.8,1.8,1.4c0.4,0.6,0.8,1.2,1,1.8
			c0.2,0.7,0.3,1.4,0.3,2.1v0.7c0,2.2-1,4-2.9,5.2C579.3,48.1,576.5,48.7,572.8,48.7z M572.8,37.7c-1.9,0-3.3,0.2-4.1,0.6
			c-0.8,0.4-1.2,1.2-1.2,2.2v0.4c0,1.1,0.4,1.9,1.3,2.4c0.8,0.5,2.2,0.7,4,0.7s3.1-0.2,4-0.7c0.8-0.5,1.3-1.3,1.3-2.4v-0.4
			c0-1-0.4-1.8-1.1-2.2S574.7,37.7,572.8,37.7z M569.4,33c0.6,0.4,1.8,0.6,3.4,0.6s2.8-0.2,3.5-0.6c0.6-0.4,1-1.1,1-2.1v-0.4
			c0-1-0.4-1.7-1.1-2.1c-0.7-0.4-1.8-0.7-3.3-0.7c-1.5,0-2.6,0.2-3.3,0.7c-0.7,0.4-1.1,1.2-1.1,2.1v0.4
			C568.4,31.9,568.7,32.6,569.4,33z"/>
		<path d="M609.5,34.3v3.2c0,3.6-1,6.3-2.9,8.3c-1.9,2-4.7,2.9-8.4,2.9c-3.8,0-6.6-1-8.5-2.9c-1.9-1.9-2.8-4.7-2.8-8.3v-3.2
			c0-3.6,0.9-6.3,2.8-8.3c1.9-1.9,4.7-2.9,8.5-2.9s6.6,1,8.5,2.9C608.6,27.9,609.5,30.6,609.5,34.3z M603.3,37.3v-2.8
			c0-1.5-0.2-2.7-0.6-3.5c-0.4-0.9-0.9-1.5-1.7-1.8c-0.7-0.3-1.7-0.5-2.9-0.5c-1.2,0-2.2,0.2-2.9,0.5c-0.7,0.3-1.3,0.9-1.6,1.8
			c-0.4,0.9-0.6,2-0.6,3.5v2.8c0,1.5,0.2,2.7,0.6,3.5c0.4,0.9,0.9,1.5,1.6,1.8s1.7,0.5,2.9,0.5c1.2,0,2.2-0.2,2.9-0.5
			s1.3-0.9,1.7-1.8C603.2,40,603.3,38.8,603.3,37.3z"/>
		<path d="M634.9,34.3v3.2c0,3.6-1,6.3-2.9,8.3c-1.9,2-4.7,2.9-8.4,2.9c-3.8,0-6.6-1-8.5-2.9c-1.9-1.9-2.8-4.7-2.8-8.3v-3.2
			c0-3.6,0.9-6.3,2.8-8.3c1.9-1.9,4.7-2.9,8.5-2.9s6.6,1,8.5,2.9C633.9,27.9,634.9,30.6,634.9,34.3z M628.7,37.3v-2.8
			c0-1.5-0.2-2.7-0.6-3.5c-0.4-0.9-0.9-1.5-1.7-1.8c-0.7-0.3-1.7-0.5-2.9-0.5c-1.2,0-2.2,0.2-2.9,0.5c-0.7,0.3-1.3,0.9-1.6,1.8
			c-0.4,0.9-0.6,2-0.6,3.5v2.8c0,1.5,0.2,2.7,0.6,3.5c0.4,0.9,0.9,1.5,1.6,1.8s1.7,0.5,2.9,0.5c1.2,0,2.2-0.2,2.9-0.5
			s1.3-0.9,1.7-1.8C628.5,40,628.7,38.8,628.7,37.3z"/>
		<path d="M575.7,62.7v-5c0-0.5,0.1-0.9,0.4-1.1c0.3-0.3,0.7-0.4,1.2-0.4h3.1c0.5,0,0.9,0.1,1.1,0.4c0.3,0.3,0.4,0.7,0.4,1.1v16.7
			c0,1.9-0.8,3.4-2.4,4.4c-1.6,1-4.1,1.4-7.6,1.4c-5.4,0-8.5-1-9.4-3c-0.2-0.4-0.2-0.8-0.2-1.3c0-0.8,0.5-1.2,1.4-1.2h2.8
			c0.4,0,0.8,0.1,1,0.2c0.2,0.1,0.4,0.4,0.6,0.8c0.1,0.2,0.3,0.4,0.5,0.7c0.3,0.3,0.7,0.5,1.2,0.6c0.5,0.1,1.2,0.2,2.1,0.2
			c1.4,0,2.4-0.2,3-0.6c0.6-0.4,0.9-1.1,0.9-2.2v-6.8c0,2.2-0.5,3.9-1.5,5s-2.7,1.7-4.9,1.7c-2.7,0-4.7-0.7-5.9-2.1
			c-1.2-1.4-1.8-3.6-1.8-6.6v-0.8c0-3,0.6-5.2,1.8-6.6c1.2-1.4,3.2-2.1,5.9-2.1c2.3,0,3.9,0.6,4.9,1.7
			C575.2,58.9,575.7,60.6,575.7,62.7z M567.8,65v0.3c0,1.7,0.3,2.9,0.9,3.6c0.6,0.7,1.6,1,3.1,1c2.6,0,3.9-1.1,3.9-3.2v-3.1
			c0-2.1-1.3-3.1-3.9-3.1c-1.4,0-2.4,0.3-3,1C568.1,62.2,567.8,63.3,567.8,65z"/>
		<path d="M590.1,55.2h-3.9c-0.8,0-1.2-0.4-1.2-1.2V54c0-0.8,0.4-1.2,1.2-1.2h3.9c0.8,0,1.2,0.4,1.2,1.2v0.1
			C591.2,54.8,590.8,55.2,590.1,55.2z M589.6,78.5h-3.1c-0.5,0-0.9-0.1-1.1-0.4c-0.3-0.3-0.4-0.7-0.4-1.1V57.7
			c0-0.5,0.1-0.9,0.4-1.1c0.3-0.3,0.7-0.4,1.1-0.4h3.1c0.5,0,0.9,0.1,1.1,0.4c0.3,0.3,0.4,0.7,0.4,1.1V77c0,0.5-0.1,0.9-0.4,1.1
			C590.5,78.4,590.1,78.5,589.6,78.5z"/>
		<path d="M608.4,62.7v-5c0-0.5,0.1-0.9,0.4-1.1c0.3-0.3,0.7-0.4,1.2-0.4h3.1c0.5,0,0.8,0.1,1.1,0.4c0.3,0.3,0.4,0.7,0.4,1.1v16.7
			c0,1.9-0.8,3.4-2.4,4.4c-1.6,1-4.1,1.4-7.6,1.4c-5.4,0-8.5-1-9.4-3c-0.2-0.4-0.2-0.8-0.2-1.3c0-0.8,0.5-1.2,1.4-1.2h2.8
			c0.4,0,0.8,0.1,1,0.2c0.2,0.1,0.4,0.4,0.6,0.8c0.1,0.2,0.3,0.4,0.5,0.7c0.3,0.3,0.7,0.5,1.2,0.6c0.5,0.1,1.2,0.2,2.1,0.2
			c1.4,0,2.4-0.2,3-0.6c0.6-0.4,0.9-1.1,0.9-2.2v-6.8c0,2.2-0.5,3.9-1.5,5c-1,1.1-2.7,1.7-4.9,1.7c-2.7,0-4.7-0.7-5.9-2.1
			c-1.2-1.4-1.8-3.6-1.8-6.6v-0.8c0-3,0.6-5.2,1.8-6.6c1.2-1.4,3.2-2.1,5.9-2.1c2.3,0,3.9,0.6,4.9,1.7
			C607.9,58.9,608.4,60.6,608.4,62.7z M600.5,65v0.3c0,1.7,0.3,2.9,0.9,3.6c0.6,0.7,1.6,1,3.1,1c2.6,0,3.9-1.1,3.9-3.2v-3.1
			c0-2.1-1.3-3.1-3.9-3.1c-1.4,0-2.4,0.3-3,1C600.8,62.2,600.5,63.3,600.5,65z"/>
		<path d="M630.7,73.5c0,1.7-0.5,2.9-1.6,3.8c-1,0.9-2.7,1.3-5,1.3c-2.2,0-3.9-0.5-5.1-1.5c-1.2-1-1.7-2.5-1.7-4.4v-0.3
			c0-0.9,0.1-1.7,0.4-2.4c0.2-0.7,0.6-1.3,1-1.7c0.4-0.5,0.9-0.9,1.5-1.2c0.6-0.3,1.2-0.6,1.8-0.8c0.6-0.2,1.3-0.4,2.1-0.5
			c0.8-0.1,1.6-0.3,2.2-0.3c0.7-0.1,1.4-0.2,2.3-0.3c0.8-0.1,1.5-0.2,2.1-0.3v-0.6c0-1.2-0.3-2-0.8-2.4c-0.5-0.4-1.4-0.6-2.6-0.6
			c-0.8,0-1.4,0.1-1.8,0.3c-0.4,0.2-0.7,0.4-0.8,0.8c-0.2,0.2-0.3,0.3-0.3,0.6c-0.1,0.7-0.6,1-1.5,1h-3.2c-1,0-1.5-0.5-1.5-1.5
			c0-0.4,0-0.6,0.1-0.8c0.2-1.8,1.1-3.1,2.6-4.1c1.5-1,3.7-1.5,6.3-1.5c3.4,0,5.9,0.6,7.5,1.9c1.5,1.3,2.3,3.4,2.3,6.3v12.8
			c0,0.5-0.1,0.9-0.4,1.2c-0.3,0.3-0.7,0.4-1.2,0.4h-3.1c-0.5,0-0.9-0.1-1.1-0.4c-0.3-0.3-0.4-0.7-0.4-1.2V73.5z M626.4,74.8
			c0.6,0,1.2,0,1.7-0.1s0.9-0.2,1.3-0.3c0.4-0.2,0.7-0.4,1-0.7c0.2-0.3,0.3-0.7,0.3-1.1v-4c-0.2,0-0.4,0.1-0.8,0.1
			c-0.9,0.2-1.6,0.3-2.1,0.3c-0.4,0.1-0.9,0.2-1.6,0.3c-0.6,0.1-1,0.3-1.3,0.4c-0.3,0.1-0.5,0.3-0.8,0.5c-0.3,0.2-0.5,0.5-0.6,0.8
			c-0.1,0.3-0.1,0.6-0.1,1v0.3C623.6,74,624.5,74.8,626.4,74.8z"/>
		<path d="M648,76.9c0,0.5-0.1,0.9-0.4,1.2s-0.7,0.4-1.2,0.4h-3.1c-0.5,0-0.9-0.1-1.1-0.4c-0.3-0.3-0.4-0.7-0.4-1.2V61.2h-1.7
			c-0.9,0-1.3-0.5-1.3-1.4v-2.1c0-0.9,0.4-1.4,1.3-1.4h1.7v-0.9c0-0.5,0.1-0.9,0.4-1.2c0.3-0.3,0.7-0.4,1.1-0.4h3.1
			c0.5,0,0.9,0.1,1.2,0.4s0.4,0.7,0.4,1.2v0.9h2.7c0.9,0,1.4,0.5,1.4,1.5v1.9c0,0.5-0.1,0.9-0.4,1.1c-0.2,0.3-0.6,0.4-1.1,0.4H648
			V76.9z"/>
		<path d="M674.1,66.3v2c0,3.4-0.9,5.9-2.6,7.7c-1.7,1.8-4.3,2.6-7.6,2.6c-3.5,0-6-0.9-7.7-2.6c-1.7-1.7-2.5-4.3-2.5-7.8v-2
			c0-3.4,0.8-6,2.5-7.7c1.7-1.7,4.2-2.6,7.7-2.6c3.4,0,6,0.9,7.7,2.6S674.1,62.9,674.1,66.3z M667.9,68v-1.3c0-1.3-0.1-2.3-0.4-3.1
			c-0.3-0.7-0.7-1.3-1.3-1.6c-0.6-0.3-1.3-0.4-2.3-0.4c-1.4,0-2.4,0.4-3,1.1c-0.6,0.7-0.9,2.1-0.9,4V68c0,1.9,0.3,3.2,0.9,4
			s1.6,1.1,3,1.1c1,0,1.7-0.1,2.3-0.4c0.6-0.3,1-0.8,1.3-1.5C667.7,70.3,667.9,69.3,667.9,68z"/>
		<path d="M683.2,64.8c0-3,0.5-5.3,1.5-6.7c1-1.4,2.6-2.1,4.9-2.1c2.4,0,4.2,0.7,5.3,2c1.1,1.3,1.7,3.5,1.7,6.5V77
			c0,0.5-0.1,0.9-0.4,1.1c-0.3,0.3-0.7,0.4-1.1,0.4h-3.1c-0.5,0-0.8-0.1-1.1-0.4c-0.3-0.3-0.4-0.7-0.4-1.1V65.8
			c0-1.3-0.2-2.2-0.7-2.8c-0.5-0.6-1.3-0.9-2.5-0.9c-0.6,0-1.1,0.1-1.5,0.2c-0.4,0.1-0.8,0.3-1.2,0.6c-0.4,0.3-0.7,0.7-0.9,1.3
			c-0.2,0.6-0.3,1.3-0.3,2.2V77c0,0.5-0.1,0.9-0.4,1.1c-0.3,0.3-0.7,0.4-1.1,0.4h-3.1c-0.5,0-0.9-0.1-1.1-0.4
			c-0.3-0.3-0.4-0.7-0.4-1.1V57.7c0-0.5,0.1-0.9,0.4-1.1c0.3-0.3,0.7-0.4,1.1-0.4h3.1c0.5,0,0.9,0.1,1.1,0.4
			c0.3,0.3,0.4,0.7,0.4,1.1V64.8z"/>
		<path d="M705.9,64.8c0-3,0.5-5.3,1.5-6.7c1-1.4,2.6-2.1,4.9-2.1c2.4,0,4.2,0.7,5.3,2c1.1,1.3,1.7,3.5,1.7,6.5V77
			c0,0.5-0.1,0.9-0.4,1.1c-0.3,0.3-0.7,0.4-1.1,0.4h-3.1c-0.5,0-0.9-0.1-1.1-0.4c-0.3-0.3-0.4-0.7-0.4-1.1V65.8
			c0-1.3-0.2-2.2-0.7-2.8c-0.5-0.6-1.3-0.9-2.5-0.9c-0.6,0-1.1,0.1-1.5,0.2c-0.4,0.1-0.8,0.3-1.2,0.6c-0.4,0.3-0.7,0.7-0.9,1.3
			c-0.2,0.6-0.3,1.3-0.3,2.2V77c0,0.5-0.1,0.9-0.4,1.1c-0.3,0.3-0.7,0.4-1.1,0.4h-3.1c-0.5,0-0.8-0.1-1.1-0.4
			c-0.3-0.3-0.4-0.7-0.4-1.1V57.7c0-0.5,0.1-0.9,0.4-1.1c0.3-0.3,0.7-0.4,1.1-0.4h3.1c0.5,0,0.9,0.1,1.1,0.4
			c0.3,0.3,0.4,0.7,0.4,1.1V64.8z"/>
		<path d="M742.2,73.3c-0.5,1.7-1.5,3-3.3,3.9c-1.7,0.9-3.9,1.4-6.6,1.4c-3.5,0-6-0.9-7.7-2.6c-1.7-1.7-2.5-4.3-2.5-7.8v-2
			c0-3.4,0.8-6,2.5-7.7c1.7-1.7,4.3-2.6,7.8-2.6c3.3,0,5.8,0.7,7.5,2.2c1.7,1.5,2.6,3.6,2.6,6.4v2.2c0,0.5-0.1,0.8-0.4,1.1
			c-0.3,0.3-0.6,0.4-1,0.4h-12.7c0,2,0.3,3.4,0.9,4.1s1.6,1.1,3,1.1c1,0,1.8-0.1,2.4-0.3c0.6-0.2,1-0.6,1.3-1.2
			c0.1-0.1,0.1-0.3,0.2-0.6c0.1-0.5,0.3-0.9,0.5-1.2c0.3-0.2,0.7-0.3,1.2-0.3h3c1,0,1.5,0.6,1.5,1.7
			C742.4,72.2,742.3,72.8,742.2,73.3z M732.5,61.2c-1.3,0-2.2,0.3-2.9,0.8c-0.6,0.6-1,1.5-1.2,2.9h7.9v-0.1c0-1.4-0.3-2.3-0.9-2.9
			C734.8,61.4,733.8,61.2,732.5,61.2z"/>
		<path d="M745.3,73.3c-0.1-0.3-0.1-0.7-0.2-1.2c0-0.5,0.1-0.8,0.4-1.1c0.3-0.2,0.7-0.4,1.3-0.4h2.7c0.5,0,0.8,0.1,1.1,0.2
			c0.2,0.1,0.4,0.4,0.5,0.7c0.2,0.5,0.3,0.9,0.4,1c0.3,0.5,0.7,0.9,1.3,1.2c0.6,0.3,1.3,0.4,2.2,0.4c1.2,0,2.1-0.2,2.7-0.5
			s0.9-0.8,0.9-1.5v-0.1c0-0.6-0.1-1-0.4-1.3c-0.2-0.3-0.7-0.5-1.4-0.7c-0.7-0.2-1.8-0.4-3.3-0.5c-0.9-0.1-1.6-0.2-2.3-0.3
			c-0.6-0.1-1.3-0.2-1.9-0.4c-0.6-0.2-1.1-0.4-1.6-0.6c-0.4-0.2-0.8-0.5-1.2-0.8c-0.4-0.3-0.6-0.7-0.8-1.1s-0.4-0.9-0.5-1.5
			c-0.1-0.5-0.2-1.2-0.2-1.9v-0.1c0-2.3,0.8-4,2.4-5.1c1.6-1.1,4-1.7,7.3-1.7c2.5,0,4.6,0.4,6.2,1.2c1.6,0.8,2.6,1.9,3.1,3.4
			c0.2,0.7,0.3,1.2,0.3,1.8c0,0.4-0.1,0.8-0.3,1.1c-0.3,0.3-0.6,0.4-1,0.4h-2.8c-0.5,0-0.8-0.1-1.1-0.2c-0.2-0.1-0.4-0.4-0.5-0.8
			l-0.5-0.9c-0.6-0.9-1.7-1.4-3.5-1.4c-1.3,0-2.3,0.2-2.8,0.6c-0.6,0.4-0.9,0.9-0.9,1.6v0.1c0,0.5,0.1,0.9,0.4,1.2
			c0.2,0.3,0.7,0.5,1.4,0.6c0.7,0.2,1.8,0.3,3.3,0.4c1.6,0.1,2.9,0.3,3.9,0.6c1,0.3,1.9,0.7,2.6,1.2c0.7,0.5,1.2,1.2,1.5,2
			c0.3,0.8,0.4,1.9,0.4,3.1v0.2c0,2.2-0.8,3.9-2.4,4.9s-4,1.5-7.3,1.5c-2.8,0-5-0.4-6.6-1.3C746.6,76.6,745.6,75.2,745.3,73.3z"/>
	</g>
	<g>
		<path class="st0" d="M25.7,357c0,2.8-1,5-2.8,6.5c-1.9,1.5-4.6,2.3-8.1,2.3c-6.2,0-9.8-1.9-10.8-5.8c-0.1-0.5-0.2-1-0.2-1.6
			c0-0.5,0.1-0.9,0.3-1.1c0.3-0.3,0.6-0.4,1.1-0.4H8c0.3,0,0.5,0,0.7,0.1c0.2,0,0.3,0.1,0.4,0.3c0.1,0.1,0.2,0.3,0.2,0.4
			c0,0.1,0.1,0.3,0.2,0.5c0.1,0.3,0.2,0.5,0.2,0.7c0.6,1.2,2.2,1.9,4.6,1.9c1.7,0,3-0.3,3.8-0.9c0.8-0.6,1.2-1.5,1.2-2.7v-0.1
			c0-1.4-0.4-2.4-1.2-3c-0.8-0.6-2-0.9-3.6-0.9c-2.1,0-3.5,0.3-4.1,1c-0.1,0.1-0.1,0.2-0.2,0.3c-0.1,0.1-0.2,0.2-0.2,0.2
			s-0.1,0.1-0.2,0.2c-0.1,0.1-0.1,0.1-0.2,0.1c0,0-0.1,0-0.2,0.1C9.6,355,9.5,355,9.4,355c-0.1,0-0.1,0-0.2,0c-0.1,0-0.2,0-0.3,0
			c-0.1,0-0.3,0-0.4,0c-0.1,0-0.3,0-0.5,0H6.4c-0.5,0-0.9-0.1-1.1-0.4c-0.3-0.3-0.4-0.7-0.4-1.1V342c0-0.5,0.1-0.9,0.4-1.1
			c0.3-0.3,0.7-0.4,1.1-0.4H23c0.5,0,0.9,0.1,1.2,0.4c0.3,0.3,0.4,0.7,0.4,1.1v2.2c0,0.5-0.1,0.9-0.4,1.2c-0.3,0.3-0.7,0.4-1.2,0.4
			H10.2v8.7c0-1.8,0.6-3.2,1.7-4.1c1.1-0.9,2.9-1.4,5.4-1.4c2.9,0,5,0.7,6.4,2c1.4,1.3,2,3.3,2,6V357z"/>
		<path class="st0" d="M39.9,365.8c-3,0-5.4-0.5-7.2-1.4c-1.9-0.9-3.1-2.3-3.7-4c-0.2-0.6-0.4-1.3-0.4-2.1c0-0.4,0.1-0.8,0.3-1.1
			c0.2-0.3,0.6-0.4,1-0.4h3.3c0.5,0,0.9,0.1,1.1,0.3c0.2,0.2,0.3,0.5,0.4,1c0.1,0.3,0.2,0.5,0.3,0.6c0.5,1.6,2.1,2.5,4.7,2.5
			c1.8,0,3-0.3,3.8-0.8c0.8-0.5,1.2-1.3,1.2-2.5v-0.4c0-1-0.3-1.7-0.9-2.1c-0.6-0.4-1.5-0.6-2.8-0.6h-2.3c-0.4,0-0.7-0.1-1-0.4
			c-0.2-0.2-0.4-0.6-0.4-1v-1.6c0-0.8,0.4-1.2,1.2-1.2h2.1c1.1,0,1.9-0.2,2.4-0.6c0.5-0.4,0.7-1.1,0.7-2.1v-0.4c0-1-0.3-1.7-0.9-2.1
			c-0.6-0.4-1.7-0.7-3.2-0.7c-1.1,0-1.9,0.2-2.6,0.6c-0.7,0.4-1.2,0.9-1.5,1.7c-0.2,0.2-0.3,0.5-0.3,0.7c-0.1,0.6-0.2,0.9-0.4,1.1
			c-0.2,0.2-0.6,0.3-1.1,0.3h-3.3c-0.4,0-0.8-0.1-1.1-0.4c-0.3-0.3-0.4-0.6-0.4-1.1c0.1-0.7,0.2-1.3,0.3-1.9
			c0.5-1.8,1.7-3.2,3.5-4.2c1.8-1,4.1-1.5,7-1.5c3.6,0,6.2,0.5,7.8,1.6c1.6,1.1,2.4,2.7,2.4,4.9v0.4c0,1.3-0.4,2.4-1.2,3.3
			c-0.8,0.9-2.1,1.4-4,1.6c4,0.4,6,2.4,6,5.9v0.7c0,2.2-0.9,4-2.8,5.3C46.2,365.2,43.5,365.8,39.9,365.8z"/>
		<path class="st0" d="M64.5,341.8v22.4c0,0.5-0.1,0.9-0.4,1.2c-0.3,0.3-0.7,0.4-1.2,0.4h-3.1c-0.5,0-0.9-0.1-1.1-0.4
			c-0.3-0.3-0.4-0.7-0.4-1.2v-16.7l-3.9,1.6c-0.4,0.2-0.7,0.1-1,0c-0.3-0.2-0.4-0.5-0.4-0.8v-3.3c0-0.8,0.3-1.3,1-1.6l6.2-2.7
			c0.5-0.2,0.9-0.3,1.2-0.3h1.9c0.4,0,0.7,0.1,0.9,0.4C64.4,341.1,64.5,341.4,64.5,341.8z"/>
		<path class="st0" d="M18.2,379.9v-5c0-0.5,0.1-0.9,0.4-1.1c0.3-0.3,0.7-0.4,1.2-0.4h3.1c0.5,0,0.9,0.1,1.1,0.4
			c0.3,0.3,0.4,0.7,0.4,1.1v16.7c0,1.9-0.8,3.4-2.4,4.4c-1.6,1-4.1,1.4-7.6,1.4c-5.4,0-8.5-1-9.4-3c-0.2-0.4-0.2-0.8-0.2-1.3
			c0-0.8,0.5-1.2,1.4-1.2H9c0.4,0,0.8,0.1,1,0.2c0.2,0.1,0.4,0.4,0.6,0.8c0.1,0.2,0.3,0.4,0.5,0.7c0.3,0.3,0.7,0.5,1.2,0.6
			c0.5,0.1,1.2,0.2,2.1,0.2c1.4,0,2.4-0.2,3-0.6c0.6-0.4,0.9-1.1,0.9-2.2v-6.8c0,2.2-0.5,3.9-1.5,5c-1,1.1-2.7,1.7-4.9,1.7
			c-2.7,0-4.7-0.7-5.9-2.1C4.6,388,4,385.8,4,382.7v-0.8c0-3,0.6-5.2,1.8-6.6c1.2-1.4,3.2-2.1,5.9-2.1c2.3,0,3.9,0.6,4.9,1.7
			C17.7,376.1,18.2,377.7,18.2,379.9z M10.2,382.1v0.3c0,1.7,0.3,2.9,0.9,3.6c0.6,0.7,1.6,1,3.1,1c2.6,0,3.9-1.1,3.9-3.2v-3.1
			c0-2.1-1.3-3.1-3.9-3.1c-1.4,0-2.4,0.3-3,1C10.6,379.3,10.2,380.5,10.2,382.1z"/>
		<path class="st0" d="M32.5,372.4h-3.9c-0.8,0-1.2-0.4-1.2-1.2v-0.1c0-0.8,0.4-1.2,1.2-1.2h3.9c0.8,0,1.2,0.4,1.2,1.2v0.1
			C33.7,372,33.3,372.4,32.5,372.4z M32.1,395.7H29c-0.5,0-0.9-0.1-1.1-0.4c-0.3-0.3-0.4-0.7-0.4-1.1v-19.2c0-0.5,0.1-0.9,0.4-1.1
			c0.3-0.3,0.7-0.4,1.1-0.4h3.1c0.5,0,0.9,0.1,1.1,0.4c0.3,0.3,0.4,0.7,0.4,1.1v19.2c0,0.5-0.1,0.9-0.4,1.1
			C33,395.5,32.6,395.7,32.1,395.7z"/>
		<path class="st0" d="M50.9,379.9v-5c0-0.5,0.1-0.9,0.4-1.1c0.3-0.3,0.7-0.4,1.2-0.4h3.1c0.5,0,0.9,0.1,1.1,0.4
			c0.3,0.3,0.4,0.7,0.4,1.1v16.7c0,1.9-0.8,3.4-2.4,4.4c-1.6,1-4.1,1.4-7.6,1.4c-5.4,0-8.5-1-9.4-3c-0.2-0.4-0.2-0.8-0.2-1.3
			c0-0.8,0.5-1.2,1.4-1.2h2.8c0.4,0,0.8,0.1,1,0.2c0.2,0.1,0.4,0.4,0.6,0.8c0.1,0.2,0.3,0.4,0.5,0.7c0.3,0.3,0.7,0.5,1.2,0.6
			c0.5,0.1,1.2,0.2,2.1,0.2c1.4,0,2.4-0.2,3-0.6c0.6-0.4,0.9-1.1,0.9-2.2v-6.8c0,2.2-0.5,3.9-1.5,5c-1,1.1-2.7,1.7-4.9,1.7
			c-2.7,0-4.7-0.7-5.9-2.1c-1.2-1.4-1.8-3.6-1.8-6.6v-0.8c0-3,0.6-5.2,1.8-6.6c1.2-1.4,3.2-2.1,5.9-2.1c2.3,0,3.9,0.6,4.9,1.7
			C50.4,376.1,50.9,377.7,50.9,379.9z M43,382.1v0.3c0,1.7,0.3,2.9,0.9,3.6c0.6,0.7,1.6,1,3.1,1c2.6,0,3.9-1.1,3.9-3.2v-3.1
			c0-2.1-1.3-3.1-3.9-3.1c-1.4,0-2.4,0.3-3,1C43.3,379.3,43,380.5,43,382.1z"/>
		<path class="st0" d="M73.2,390.7c0,1.7-0.5,2.9-1.6,3.8c-1,0.9-2.7,1.3-5,1.3c-2.2,0-3.9-0.5-5.1-1.5c-1.2-1-1.7-2.5-1.7-4.4v-0.3
			c0-0.9,0.1-1.7,0.4-2.4c0.2-0.7,0.6-1.3,1-1.7c0.4-0.5,0.9-0.9,1.5-1.2c0.6-0.3,1.2-0.6,1.8-0.8c0.6-0.2,1.3-0.4,2.1-0.5
			c0.8-0.1,1.6-0.3,2.2-0.3c0.7-0.1,1.4-0.2,2.3-0.3c0.8-0.1,1.5-0.2,2.1-0.3v-0.6c0-1.2-0.3-2-0.8-2.4c-0.5-0.4-1.4-0.6-2.6-0.6
			c-0.8,0-1.4,0.1-1.8,0.3c-0.4,0.2-0.7,0.4-0.8,0.8c-0.2,0.2-0.3,0.3-0.3,0.6c-0.1,0.7-0.6,1-1.5,1h-3.2c-1,0-1.5-0.5-1.5-1.5
			c0-0.4,0-0.6,0.1-0.8c0.2-1.8,1.1-3.1,2.6-4.1c1.5-1,3.7-1.5,6.3-1.5c3.4,0,5.9,0.6,7.5,1.9c1.5,1.3,2.3,3.4,2.3,6.3v12.8
			c0,0.5-0.1,0.9-0.4,1.2c-0.3,0.3-0.7,0.4-1.2,0.4h-3.1c-0.5,0-0.9-0.1-1.1-0.4c-0.3-0.3-0.4-0.7-0.4-1.2V390.7z M68.9,392
			c0.6,0,1.2,0,1.7-0.1c0.5-0.1,0.9-0.2,1.3-0.3c0.4-0.2,0.7-0.4,1-0.7c0.2-0.3,0.3-0.7,0.3-1.1v-4c-0.2,0-0.4,0.1-0.8,0.1
			c-0.9,0.2-1.6,0.3-2.1,0.3c-0.4,0.1-0.9,0.2-1.6,0.3c-0.6,0.1-1,0.3-1.3,0.4c-0.3,0.1-0.5,0.3-0.8,0.5c-0.3,0.2-0.5,0.5-0.6,0.8
			c-0.1,0.3-0.1,0.6-0.1,1v0.3C66,391.2,67,392,68.9,392z"/>
		<path class="st0" d="M90.5,394.1c0,0.5-0.1,0.9-0.4,1.2s-0.7,0.4-1.2,0.4h-3.1c-0.5,0-0.9-0.1-1.1-0.4c-0.3-0.3-0.4-0.7-0.4-1.2
			v-15.8h-1.6c-0.9,0-1.3-0.5-1.3-1.4v-2.1c0-0.9,0.4-1.4,1.3-1.4h1.6v-0.9c0-0.5,0.1-0.9,0.4-1.2c0.3-0.3,0.7-0.4,1.1-0.4h3.1
			c0.5,0,0.9,0.1,1.2,0.4s0.4,0.7,0.4,1.2v0.9h2.7c0.9,0,1.4,0.5,1.4,1.5v1.9c0,0.5-0.1,0.9-0.4,1.1c-0.2,0.3-0.6,0.4-1.1,0.4h-2.7
			V394.1z"/>
		<path class="st0" d="M116.5,383.5v2c0,3.4-0.9,5.9-2.6,7.7c-1.7,1.8-4.3,2.6-7.6,2.6c-3.5,0-6-0.9-7.7-2.6
			c-1.7-1.7-2.5-4.3-2.5-7.8v-2c0-3.4,0.8-6,2.5-7.7c1.7-1.7,4.2-2.6,7.7-2.6c3.4,0,6,0.9,7.7,2.6
			C115.7,377.5,116.5,380.1,116.5,383.5z M110.3,385.2v-1.3c0-1.3-0.1-2.3-0.4-3.1c-0.3-0.7-0.7-1.3-1.3-1.6
			c-0.6-0.3-1.3-0.4-2.3-0.4c-1.4,0-2.4,0.4-3,1.1c-0.6,0.7-0.9,2.1-0.9,4v1.3c0,1.9,0.3,3.2,0.9,4s1.6,1.1,3,1.1
			c1,0,1.7-0.1,2.3-0.4c0.6-0.3,1-0.8,1.3-1.5C110.2,387.5,110.3,386.5,110.3,385.2z"/>
		<path class="st0" d="M125.7,382c0-3,0.5-5.3,1.5-6.7c1-1.4,2.6-2.1,4.9-2.1c2.4,0,4.2,0.7,5.3,2c1.1,1.3,1.7,3.5,1.7,6.5v12.4
			c0,0.5-0.1,0.9-0.4,1.1c-0.3,0.3-0.7,0.4-1.1,0.4h-3.1c-0.5,0-0.9-0.1-1.1-0.4c-0.3-0.3-0.4-0.7-0.4-1.1v-11.2
			c0-1.3-0.2-2.2-0.7-2.8c-0.5-0.6-1.3-0.9-2.5-0.9c-0.6,0-1.1,0.1-1.5,0.2c-0.4,0.1-0.8,0.3-1.2,0.6c-0.4,0.3-0.7,0.7-0.9,1.3
			c-0.2,0.6-0.3,1.3-0.3,2.2v10.6c0,0.5-0.1,0.9-0.4,1.1c-0.3,0.3-0.7,0.4-1.1,0.4H121c-0.5,0-0.9-0.1-1.1-0.4
			c-0.3-0.3-0.4-0.7-0.4-1.1v-19.2c0-0.5,0.1-0.9,0.4-1.1c0.3-0.3,0.7-0.4,1.1-0.4h3.1c0.5,0,0.9,0.1,1.1,0.4
			c0.3,0.3,0.4,0.7,0.4,1.1V382z"/>
		<path class="st0" d="M148.4,382c0-3,0.5-5.3,1.5-6.7c1-1.4,2.6-2.1,4.9-2.1c2.4,0,4.2,0.7,5.3,2c1.1,1.3,1.7,3.5,1.7,6.5v12.4
			c0,0.5-0.1,0.9-0.4,1.1c-0.3,0.3-0.7,0.4-1.1,0.4h-3.1c-0.5,0-0.9-0.1-1.1-0.4c-0.3-0.3-0.4-0.7-0.4-1.1v-11.2
			c0-1.3-0.2-2.2-0.7-2.8c-0.5-0.6-1.3-0.9-2.5-0.9c-0.6,0-1.1,0.1-1.5,0.2c-0.4,0.1-0.8,0.3-1.2,0.6c-0.4,0.3-0.7,0.7-0.9,1.3
			c-0.2,0.6-0.3,1.3-0.3,2.2v10.6c0,0.5-0.1,0.9-0.4,1.1c-0.3,0.3-0.7,0.4-1.1,0.4h-3.1c-0.5,0-0.9-0.1-1.1-0.4
			c-0.3-0.3-0.4-0.7-0.4-1.1v-19.2c0-0.5,0.1-0.9,0.4-1.1c0.3-0.3,0.7-0.4,1.1-0.4h3.1c0.5,0,0.9,0.1,1.1,0.4
			c0.3,0.3,0.4,0.7,0.4,1.1V382z"/>
		<path class="st0" d="M184.7,390.5c-0.5,1.7-1.5,3-3.3,3.9c-1.7,0.9-3.9,1.4-6.6,1.4c-3.5,0-6-0.9-7.7-2.6
			c-1.7-1.7-2.5-4.3-2.5-7.8v-2c0-3.4,0.8-6,2.5-7.7c1.7-1.7,4.3-2.6,7.8-2.6c3.3,0,5.8,0.7,7.5,2.2c1.7,1.5,2.6,3.6,2.6,6.4v2.2
			c0,0.5-0.1,0.8-0.4,1.1c-0.3,0.3-0.6,0.4-1,0.4h-12.7c0,2,0.3,3.4,0.9,4.1c0.6,0.8,1.6,1.1,3,1.1c1,0,1.8-0.1,2.4-0.3
			c0.6-0.2,1-0.6,1.3-1.2c0.1-0.1,0.1-0.3,0.2-0.6c0.1-0.5,0.3-0.9,0.5-1.2c0.3-0.2,0.7-0.3,1.2-0.3h3c1,0,1.5,0.6,1.5,1.7
			C184.9,389.4,184.8,390,184.7,390.5z M174.9,378.3c-1.3,0-2.2,0.3-2.9,0.8c-0.6,0.6-1,1.5-1.2,2.9h7.9V382c0-1.4-0.3-2.3-0.9-2.9
			C177.2,378.6,176.3,378.3,174.9,378.3z"/>
		<path class="st0" d="M187.7,390.5c-0.1-0.3-0.1-0.7-0.2-1.2c0-0.5,0.1-0.8,0.4-1.1c0.3-0.2,0.7-0.4,1.3-0.4h2.7
			c0.5,0,0.8,0.1,1.1,0.2c0.2,0.1,0.4,0.4,0.5,0.7c0.2,0.5,0.3,0.9,0.4,1c0.3,0.5,0.7,0.9,1.3,1.2c0.6,0.3,1.3,0.4,2.2,0.4
			c1.2,0,2.1-0.2,2.7-0.5c0.6-0.3,0.9-0.8,0.9-1.5v-0.1c0-0.6-0.1-1-0.4-1.3c-0.2-0.3-0.7-0.5-1.4-0.7c-0.7-0.2-1.8-0.4-3.3-0.5
			c-0.9-0.1-1.6-0.2-2.3-0.3c-0.6-0.1-1.3-0.2-1.9-0.4c-0.6-0.2-1.1-0.4-1.6-0.6c-0.4-0.2-0.8-0.5-1.2-0.8c-0.4-0.3-0.6-0.7-0.8-1.1
			c-0.2-0.4-0.4-0.9-0.5-1.5c-0.1-0.5-0.2-1.2-0.2-1.9V380c0-2.3,0.8-4,2.4-5.1c1.6-1.1,4-1.7,7.3-1.7c2.5,0,4.6,0.4,6.2,1.2
			c1.6,0.8,2.6,1.9,3.1,3.4c0.2,0.7,0.3,1.2,0.3,1.8c0,0.4-0.1,0.8-0.3,1.1c-0.3,0.3-0.6,0.4-1,0.4h-2.8c-0.5,0-0.8-0.1-1.1-0.2
			c-0.2-0.1-0.4-0.4-0.5-0.8l-0.5-0.9c-0.6-0.9-1.7-1.4-3.5-1.4c-1.3,0-2.3,0.2-2.8,0.6c-0.6,0.4-0.9,0.9-0.9,1.6v0.1
			c0,0.5,0.1,0.9,0.4,1.2c0.2,0.3,0.7,0.5,1.4,0.6c0.7,0.2,1.8,0.3,3.3,0.4c1.6,0.1,2.9,0.3,3.9,0.6c1,0.3,1.9,0.7,2.6,1.2
			c0.7,0.5,1.2,1.2,1.5,2c0.3,0.8,0.4,1.9,0.4,3.1v0.2c0,2.2-0.8,3.9-2.4,4.9s-4,1.5-7.3,1.5c-2.8,0-5-0.4-6.6-1.3
			C189.1,393.7,188.1,392.4,187.7,390.5z"/>
	</g>
</g>
</svg>
