<?xml version="1.0" encoding="utf-8"?>
<!-- Generator: Adobe Illustrator 19.1.0, SVG Export Plug-In . SVG Version: 6.00 Build 0)  -->
<svg version="1.1" id="Calque_1" xmlns="http://www.w3.org/2000/svg" xmlns:xlink="http://www.w3.org/1999/xlink" x="0px" y="0px"
	 viewBox="1090.9 347.5 1164.5 485.2" style="enable-background:new 1090.9 347.5 1164.5 485.2;" xml:space="preserve">
<style type="text/css">
	.st0{fill:#6F9BBB;}
	.st1{fill:#E46D65;}
	.st2{fill:#1D1D1B;}
	.st3{fill:#FFFFFF;stroke:#E46D65;stroke-width:3;stroke-miterlimit:10;}
	.st4{fill:#6EA2C2;}
	.st5{fill:none;stroke:#E46D65;stroke-width:3;stroke-miterlimit:10;}
	.st6{fill:#C2C2C2;}
	.st7{fill:#F3F6ED;}
	.st8{fill:#EA6C65;}
	.st9{fill:#80BA40;}
	.st10{fill:#B9B8B8;}
	.st11{fill:#1A94C1;}
	.st12{fill:none;stroke:#B9B8B8;stroke-width:3;stroke-miterlimit:10;}
	.st13{fill:none;}
	.st14{fill:#EC6C65;}
	.st15{fill:none;stroke:#EC6C65;stroke-width:4;stroke-miterlimit:10;}
	.st16{fill:#169BC9;}
	.st17{fill:#FFFFFF;}
	.st18{fill:#C0C0C0;}
	.st19{fill:none;stroke:#C0C0C0;stroke-width:3;stroke-miterlimit:10;}
	.st20{fill:none;stroke:#EC6C65;stroke-width:3;stroke-miterlimit:10;}
	.st21{fill:none;stroke:#80BA40;stroke-width:3;stroke-miterlimit:10;}
	.st22{fill:#4D4D4D;}
	.st23{fill:#6DA0C0;}
	.st24{fill:#FFFFFF;stroke:#80BA40;stroke-width:3;stroke-miterlimit:10;}
	.st25{fill:#D9EAC5;}
	.st26{fill:#A6CF7A;}
	.st27{fill:#BFDC9F;}
	.st28{fill:#ECEED2;}
</style>
<g>
	<g>
		<path class="st1" d="M1097.4,778.8c5.3,0.8,10.5,1.7,15.7,2.8c6.1,1.2,12.3,1.9,18.5,2.5c4.9,0.4,9.7,0.2,14.6-0.7
			c3.9-0.7,7.9-1.4,11.8-1.8c6.5-0.8,13-0.7,19.4,1c3.9,1,7.8,1.9,11.8,1.5c2.2-0.2,4.4-0.6,6.5-1.1c3.8-0.7,7.5-1.7,11.3-2.3
			c3.9-0.6,7.7,0.2,11.4,0.9c3.2,0.6,6.4,1.2,9.6,1.9c2.2,0.5,4.4,0.3,6.5-0.5c0.8-0.3,1.7-0.5,2.5-0.9c4.9-2.5,10.2-2.8,15.6-2.4
			c0.6,0,1.2,0.1,1.8,0.1c1.3,0,1.9-0.6,2-1.9c0.2-2.1,0.2-4.1-0.4-6c-2.2-0.8-4.3-1.6-6.4-2.3c-3.1-1-6.2-0.4-9.2,0.3
			c-3.9,0.9-7.7,2-11.6,3c-0.4,0.1-0.9,0.2-1.3,0.4c-5.6,2.9-11.7,2.5-17.8,2.9c-0.7,0-1.5-0.1-2.2-0.2c-5.4-1-10.7-2.1-15.8-4.3
			c-3.2-1.4-6.7-2.4-10.2-2.8c-3-0.4-6.2-0.1-9.3,0.3c-4.7,0.7-9.3,1.6-13.8,2.9c-8.1,2.3-16.4,3.9-24.8,4.3
			c-7.3,0.4-14.3-0.5-21.2-3.4c-6.4-2.7-13.2-4.2-20.2-4.5c-0.5,0-0.9,0-1.4,0v10.1C1093.1,778.3,1095.2,778.4,1097.4,778.8z"/>
		<path class="st1" d="M1258.8,819.8c-1-0.5-1.7-13.6-2.6-14.3c-0.8-0.6-1.9-0.8-2.9-1.1c-7.9-2.2-15.7-2.3-23.6-0.1
			c-2.6,0.7-5.1,1.4-7.7,2.2c-6.7,2-13.3,1.7-20.1,0c-3.6-0.9-7.2-1.4-10.9-1.8c-3.5-0.4-7.1-0.4-10.6-0.4
			c-6.2,0.1-11.9,2.1-17.6,4.2c-3.6,1.3-7.1,1.7-10.8,0.9c-4-0.9-8.2-1.4-12.2-2.3c-10.7-2.5-21.2-2.2-31.3,2
			c-5.9,2.5-11.7,3.1-17.6,2.4v8.4H1259C1258.9,819.9,1258.8,819.9,1258.8,819.8z"/>
		<path class="st1" d="M1100.6,806c1.4-0.1,2.9-0.6,4.2-1.2c10.2-4.6,20.8-5.2,31.7-3.7c4.7,0.6,9.3,1.7,13.9,2.7
			c4.3,0.9,8.5,0.8,12.7-0.6c0.8-0.3,1.7-0.5,2.5-0.8c8.6-3.7,17.5-3.9,26.6-2.7c4.1,0.5,8.2,1.2,12.2,2.1
			c7.1,1.6,14.1,1.1,20.9-1.3c2.2-0.8,4.5-1.3,6.8-1.9c6.9-1.7,13.8-1.5,20.6,0.3c0.9,0.2,1.7,0.3,2.6,0.4c0.3,0,0.6-0.1,1-0.3
			c0.7-2.1-0.2-4.3-0.1-6.4c0.1-2.2,0-4.4-0.9-6.4c-5.2-1.6-11.6-1.3-16.1,0.7c-8.2,3.7-8.2,3.6-17,1.6c-3.3-0.8-6.6-1.5-10-1.9
			c-5.2-0.6-10.3,0.4-15.3,1.9c-5.6,1.7-11.3,2.2-17,0.5c-4.3-1.3-8.7-1.8-13.1-2.2c-4.8-0.4-9.4,0.5-14.1,1.2
			c-2.9,0.4-5.8,1-8.7,1.6c-4.4,0.8-8.8,0.4-13.3,0.1c-3.1-0.2-6.2-0.4-9.3-0.8c-3.1-0.4-6.1-1-9.2-1.5c-5.4-1-10.8-2-16.1-3
			c-1.9-0.4-3.7-0.4-5.5-0.2v22C1094.1,806.5,1097.4,806.2,1100.6,806z"/>
	</g>
	<g>
		<path class="st2" d="M1412.7,737.4c1.9-1.7,3.2-3.2,4.1-5c2.1-4.5,2.5-9.2,1.9-14.1c-0.1-1-0.1-2-0.3-2.9
			c-0.4-2.3-0.9-4.6-1.4-6.9c-0.2-0.8-0.4-1.6-0.6-2.5c1.6-0.3,3,0.3,3.6,1.4c0.1,0.2,0.2,0.4,0.3,0.7c1.3,2.9,2.6,5.9,3.8,8.8
			c2.3,5.2,2.4,10.5,0.2,15.8c-0.7,1.7-1.4,3.3-2.2,4.9c-1.2,2.4-3.1,4.3-5.2,6c-2.2,1.7-3.7,3.9-4.9,6.5c-1.3,2.9-3.4,5.4-7.1,5.8
			c-2.1,0.2-4.2,0.6-6.2,0.7c-3.1,0.2-6.3,0.1-9.4,0.3c-3,0.1-6,0.5-9,0.5c-2.3,0-4.8,0.1-6.5-1.9c-1.2-1.4-2.6-2.6-4.1-3.8
			c-2.7-2.2-1.6-5.5,0.8-7.3c1-0.7,2.1-1.2,3.4-1.9c-4.8-3.5-7.3-8.9-11.1-13.6c-0.2,0.5-0.4,0.8-0.4,1.2
			c-0.1,3.8-0.4,13.6-0.3,17.4c0.1,3.1,0.6,6.2,0.9,9.4c0.1,1.2-0.3,1.5-1.5,1.1c-0.6-0.2-1.2-0.4-1.8-0.4c-1.7,0-3.5,0-5.2,0.1
			c-3.7,0.1-7.5,0.3-11.2,0.3c-3,0-5.9-0.2-8.8-0.5c-1.6-0.1-2-0.6-2.1-2.2c-0.1-1.1-0.6-1.9-1.7-2.1c-1.3-0.2-2.2-1-2.8-2.2
			c-0.7-1.4-0.7-2.6,0.2-4c1.6-2.2,3.9-3.1,6.3-3.9c2.1-0.7,4.2-1.3,6.4-1.8c1.2-0.2,1.5-0.9,1.6-1.9c0.1-1.7,0.3-3.3,0.3-5
			c0.3-7.3,0.6-20.5,0.9-27.8c0.1-2.5,0.1-5,0.2-7.6c0-0.4,0.1-0.8,0.2-1.1c0.8-2.1-0.2-3.6-1.5-5c-0.4-0.4-0.9-0.7-1.3-1
			c-0.9-0.7-1.7-0.7-2.6,0c-1.6,1.3-3.2,2.5-4.9,3.6c-1.1,0.7-2.4,1.2-3.6,1.7c-1.6,0.6-3.2,1.3-4.9,1.7c-1.7,0.3-3.4,0.5-5.1,0.3
			c-2-0.2-3.9-0.9-5.9-1.5c-1.3-0.4-2.5-0.9-3.8-1.4c-6.4-2.2-11.8-5.9-15.7-11.5c-1.6-2.3-2.5-5.1-2.8-8c-0.1-0.9-0.3-1.4-1.2-1.8
			c-1.2-0.4-1.6-0.9-1.3-2.1c0.7-2.8,0.2-5.5,0-8.3c0-0.7,0.1-1.4,0.1-2.3c1,0.1,1.8,0.2,2.5,0.3c0.7-1.4,1.3-2.9,2.2-4.1
			c2.2-3,7.4-5.8,12-3.6c2,1,4.3,1.5,6.5,2c5.4,1.1,9.3-1.3,12.4-5.4c4.1-5.2,8.9-9.8,14.4-13.5c2.9-2,6.2-2.8,9.7-2.5
			c1.8,0.2,3.6,0.3,5.4,0.4c3,0.2,5.6,1.3,8.2,2.6c0.3,0.2,0.6,0.4,1,0.5c0.4-0.5,0.7-1.1,1.1-1.2c0.4-0.1,1,0.4,1.5,0.6
			c0.8,0.3,1.6,0.5,2.4,1c4.9,2.7,9.8,5.6,13.1,10.3c1.8,2.5,3,5.2,3.9,8.1c1.1,3.6,1.7,7.3,1.9,11.1c0.1,1.5,0,3.1-0.3,4.6
			c-0.1,0.6-0.6,1.2-1,1.7c-2.4,2.3-5.1,4.1-8.4,4.9c-1.4,0.3-2.9,0.2-4.4,0.2c-2.2,0-2.3,0.1-2.9,2.3c-0.9,3.3-0.2,6.4,1.2,9.3
			c1.8,3.9,4.9,6.9,7.8,10c3.8,4,8.5,6.7,13.1,9.6c3.8,2.4,7.7,4.6,11.4,7.3c4.6,3.3,7.1,8.1,8.1,13.6
			C1412.2,734.3,1412.4,735.6,1412.7,737.4 M1368.4,681.2c-0.8-0.3-1.3-0.6-1.9-0.7c-2.8-0.5-5-2-7.2-3.7
			c-5.1-3.9-8.2-11.2-4.9-18.2c2.2-4.7,4.8-9.1,7.3-13.7c0.5-1,1-1.9,1.5-3c-2.6-1.8-5.3-2.8-8.2-3.1c-2.1-0.2-4.3-0.3-6.5-0.5
			c-3.4-0.2-6.3,0.8-9,2.8c-5.2,3.8-9.8,8.2-13.8,13.3c-3.5,4.5-8.1,6.6-13.8,5c-2.2-0.6-4.3-1.4-6.5-2c-1-0.3-2.2-0.5-3.2-0.4
			c-3.5,0.2-5.7,2.4-7.4,5.1c-0.2,0.3-0.2,0.8-0.2,1.2c3,1.3,3.6,2.3,2.8,5.5c-0.2,0.9-0.4,1.8-0.6,2.7c-0.6,2-1.4,3.8-3.2,5.2
			c0.4,3.6,1.5,7,4.1,9.8c4.8,5.2,10.9,7.9,17.7,9.3c5.5,1.1,10.5,0.1,15.3-2.6c3.9-2.2,7.4-5.2,10.5-8.4c1.7-1.7,2.2-2,3.5,0.6
			c0,0.1,0,0.1,0.1,0.3c-0.9,1.4-1.9,2.9-3,4.4c0.2,0.2,0.3,0.4,0.5,0.5c1.5,1,2.6,2.4,3.5,4c1.2,1.8,1.5,3.9,2.1,5.9
			c2.1,6.7,3,13.6,2.5,20.6c-0.4,5.7-1.3,17.4-2.5,23c-0.3,1.5-0.7,2.8-1.8,4c-0.2,0-0.4,0-0.7,0c-3.1,0-6,0.5-8.8,1.8
			c-1.3,0.6-2,1.6-2.4,2.9c-0.5,1.7,0.4,2.9,2.2,2.9c7.5-0.1,15-0.1,22.5-0.2c0.4,0,0.8-0.1,1.3-0.2c0-0.6-0.1-1.2-0.1-1.7
			c-0.2-3-0.6-6-0.5-9c0.2-4.9,0.6-15.8,1.2-20.7c0.3-2.6,1.3-5.1,2.1-7.6c0.1-0.4,0.7-0.8,1-0.8c0.4,0,0.9,0.4,1.1,0.8
			c0.2,0.4,0.3,1,0.2,1.4c-0.3,1.5-0.5,3-1,4.5c-0.8,2.8-0.3,5.2,1.3,7.5c1.7,2.4,3.4,4.7,5.1,7.1c1.6,2.2,3.7,3.8,6.2,4.9
			c0.5,0.2,1.1,0.2,1.7,0.4c-0.1-1.5-0.2-2.6-0.2-3.8c-0.1-2.8,0.7-5.5,2.5-7.5c3.9-4.2,7.9-3.7,11.3-0.1c0.4,0.5,1,1.2,0.3,1.8
			c-0.7,0.5-1.1-0.2-1.5-0.6c-3.1-3.3-6.6-1.9-8.5,1c-1.9,2.9-2.1,6.1-1.4,9.4c0.2,0.7,0.5,1.4,0.8,2c0.5,1.2,1,2.4,1.5,3.5
			c0.2,0.5,0.5,0.9,1,1.6c-0.8,0.1-1.3,0.2-1.9,0.3c-1.2,0.1-2.3,0.1-3.5,0.1c-1.6,0-2.8,0.9-3.8,2c-1.1,1.4-0.7,2.7,1,3
			c1.3,0.2,2.6,0.4,3.8,0.3c6.2-0.2,12.4-0.5,18.6-0.9c2.4-0.2,4.7-0.7,7.1-1.1c0.4-0.1,0.9-0.2,1.2-0.5c1.4-1.3,2.5-2.9,3-4.8
			c0.3-1.1,0.7-1.9,1.5-2.6c0.9-0.8,1.8-1.7,2.8-2.5c2.1-1.8,4.3-3.5,5.6-6.1c1.1-2.1,2.1-4.3,2.9-6.6c1.3-3.4,1.3-6.9,0.3-10.4
			c-0.4-1.4-0.9-2.8-2-3.9c-0.1,1.2,0,2.3,0.1,3.4c0.4,4.6,0.1,9.1-1.6,13.5c-1.6,4.1-4.7,6.9-8.4,9c-1,0.6-1.5,0.3-2.3-1
			c1.2-1.6,1.5-2.2,1.3-3.5c-0.3-2.2-0.5-4.4-1-6.6c-0.9-3.6-2.7-6.8-5.6-9c-3.5-2.7-7.3-5.1-11.1-7.3c-5.3-3-10.5-6.2-14.8-10.6
			c-3.1-3.2-6.1-6.5-8-10.6c-0.7-1.6-1.4-3.2-1.6-4.9C1367.6,686,1367.6,683.7,1368.4,681.2 M1366.5,641.4c-1.8,3.9-3.5,7.5-5.2,11
			c-1.5,2.9-2.7,5.9-3.5,9.1c-0.6,2.4-0.6,4.8-0.1,7.1c0.7,3.4,2.8,5.9,5.8,7.5c2.8,1.4,5.7,2.3,9,2.4c2.7,0.1,5.3,0,7.7-1.3
			c2.9-1.5,4.9-3.5,4.7-7c0-0.5,0.1-1,0.1-1.5c-0.3-4.7-1.1-9.3-3-13.7c-1.2-2.8-2.8-5.4-5.2-7.3c-2.5-1.9-5.1-3.7-7.7-5.4
			C1368.2,642,1367.3,641.8,1366.5,641.4 M1346,706.3c-0.9,9.2-1.3,24.4-1.3,33.4C1346.3,735.4,1347.4,709.7,1346,706.3
			 M1330.2,750.9c0.8-1,1.4-2.1,2.3-2.9c0.9-0.7,2-1.1,3.1-1.4c2.1-0.6,4.2-0.9,6.3-1.4c0.7-0.2,1.6-0.1,1.7-1.5
			c-0.8,0-1.5-0.2-2.2,0c-2.9,0.9-5.8,1.7-8.5,2.8c-1.1,0.4-2,1.4-2.8,2.3C1329.3,749.6,1329.5,750.2,1330.2,750.9 M1371.6,750.6
			c-0.2-2.5,1.3-3.2,3-3.8c0.6-0.2,1.2-0.3,1.8-0.4c0.5-0.1,0.9-0.3,1.5-0.4c-0.2-0.7-0.4-1.2-0.6-1.8c-1.2,0.4-2.3,0.7-3.3,1.1
			c-1.3,0.6-2.5,1.3-3.1,2.7C1370.5,748.9,1370.3,749.7,1371.6,750.6"/>
		<path class="st2" d="M1341.4,658.7c0,1.2-0.8,2.2-1.8,2.2c-1.1,0-2.1-1.2-2.1-2.4c0-1.2,0.9-2.3,1.9-2.3
			C1340.5,656.2,1341.4,657.5,1341.4,658.7"/>
		<path class="st2" d="M1484.8,741.2c1.8,5.3,2.7,10.5,2,16c-1.3,0.6-2.5,0.5-3.6-0.1c-1.9-0.9-3.8-1.1-5.8-0.8
			c-1.9,0.3-3.8,0.1-5.6,0.8c-0.8,0.3-1.3-0.3-1.5-1c-0.1-0.5-0.1-1.1-0.1-1.7c-1-0.7-2.1-1.4-3.2-2.1c-0.8,0.2-1.6,0.4-2.5,0.6
			c-0.2,0.6-0.8,1.2-0.7,1.8c0.2,1.4-0.8,1.9-1.9,2.5c-1-1-2.3-0.7-3.6-0.6c-2.4,0.3-4.8,0.2-7,1.1c-0.9,0.4-2.1-0.6-2.7-2
			c-0.9-1.9-0.9-1.9-2.7-3.2c-1.6,0.4-2.2,0.3-2.8-0.6c-0.5-0.7-0.4-1.3,0.3-1.7c0.4-0.2,0.9-0.4,1.3-0.5c4.6-1.8,9.2-3.4,13.7-5.3
			c1.8-0.7,3.4-1.8,5-2.8c1.1-0.7,1.7-1.6,1.7-3c0-3.3,0.1-6.7,0.2-10c0.2-4.5,0.5-9,0.8-13.5c0.1-1,0.1-1.9,0.2-2.9
			c0.1-1.2,0-2.3-1-3.3c-1.3-1.4-1-3.3,0.7-4.4c0.9-0.6,1.1-1.2,1.2-2.2c0.9-6,1.8-12,2.7-18c0.4-2.3,1-4.5,1.5-6.8
			c0.7-3.1,1.4-6.3,2.1-9.4c0.2-1.1,0.2-1.9-0.8-2.7c-1.5-1.2-2.6-2.7-4.1-4c-0.8-0.7-1.7-1.4-2.7-1.7c-6.2-2-12.1-4.7-17.5-8.3
			c-1.7-1.2-3.3-2.6-4.8-4.1c-2-1.9-2.8-4.5-3.5-7.1c-2.6-9.8-3.5-19.7-2.6-29.8c1.3-14.2,6.4-26.7,15.4-37.7
			c2.1-2.6,4.2-5.2,6.3-7.8c1.5-1.9,2.4-4.1,3.1-6.4c0.2-0.7,0.3-1.5,0.2-2.2c-0.2-1.7-1.3-2.5-3-2.2c-2.8,0.4-5.2,1.4-7.2,3.5
			c-0.8,0.9-1.6,1.1-2.9,0.8c-6.4-1.1-12.3,1.1-15.9,6.5c-1.1,1.7-2.1,3.3-3.2,5.2c-1.7,0.5-2.2,0.3-3.3-1.4
			c-3.7-5.6-3.9-11.5-1.5-17.6c1.5-3.7,3.7-7,7-9.4c2.2-1.6,4.6-2.9,7.3-3.5c0.5-0.1,1-0.3,1.6-0.5c-1.8-3.4-0.6-6.4,0.9-9.4
			c2.8-5.7,7.5-9,13.4-10.9c3-0.9,6-1.8,9.2-1.6c7.6,0.5,13.4,3.7,17.2,10.5c1.3,2.3,1.7,4.7,2.1,7.2c0.9,5.4,1,10.8-0.6,16
			c-1.1,3.8-3.3,7-5.5,10.3c-2.7,4.1-6,7.6-9.3,11.1c-3.9,4.2-7.5,8.6-10.5,13.6c-3.2,5.3-4.9,10.9-5.6,17c-0.4,3.3-0.4,6.7-0.6,10
			c0,0.5,0.1,1,0.2,2c0.7-0.6,1.2-0.9,1.5-1.3c2.6-2.6,5.1-5.3,7.7-7.9c4-4,8.8-6.6,13.8-9.1c3.8-2,7.8-3.6,12.1-4.2
			c5.1-0.6,10-0.5,15,0.8c4.6,1.1,9.1,2.6,13.2,4.9c3.7,2.1,6.9,4.9,9.6,8.2c2.1,2.6,4,5.2,5.2,8.3c0.4,1.1,1.3,1.9,2,2.9
			c3,4.3,5.9,8.5,8.9,12.7c1,1.5,1.9,2.9,2.3,4.7c0.3,1.7,0,2.4-1.8,3c-5.1,1.6-10.2,1.4-15.3-0.1c-2-0.6-4-1.3-6.1-2
			c-1.6,2.6-4.3,2.9-7,2.6c-5-0.5-10-1.3-15.3-2.1c0.3-0.2,0.1-0.1,0.1,0c-1.4,2.7-3.8,3.5-6.6,3.6c-4.4,0.1-8.7-0.8-12.9-2.2
			c-0.5-0.2-1-0.4-1.6-0.5c-0.2-0.1-0.4,0-0.8,0c-1.7,3.4-4.9,3.5-8.1,2.9c-6.5-1.1-12.1-4-16.1-9.3c-2.1-2.8-3.4-6-2.6-9.7
			c0.4-1.9,0-3.9-0.2-5.9c-0.6-8.5,0.2-16.8,3.3-24.7c2.1-5.3,5.3-10,8.9-14.4c3.6-4.2,7.3-8.3,11-12.4c3.2-3.6,5.7-7.7,7.7-12
			c2-4.3,2.2-9,1.8-13.7c-0.2-1.7-0.5-3.4-0.8-5.1c-1-6-6.1-11.6-12.9-12.7c-8.3-1.3-15.5,1.3-21.5,7.1c-1.9,1.8-3,4.1-3.7,6.5
			c-0.6,1.8,0,3.5,0.6,5.2c0.2,0.4,0.7,0.8,1.2,1c4.7,2.1,7,5.9,8,10.7c0.2,1.1,0.4,2.1,0.6,3.3c0.5-0.1,0.9-0.1,1.3-0.2
			c1.1-0.3,2.2-0.6,3.4-0.8c4-0.9,7.1,2.6,6.6,6.7c-0.4,3.1-1.5,6-3.5,8.4c-2.1,2.6-4.2,5.2-6.3,7.8c-6.3,7.5-10.5,16.1-12.9,25.6
			c-2.7,10.7-2.9,21.5-1.1,32.3c0.5,3.1,1.4,6.1,2.2,9.2c0.7,2.6,2.3,4.6,4.3,6.2c6.8,5.3,14.4,8.8,22.9,10.3
			c4.6,0.8,9.2,0.9,13.9,0.9c8.7,0,16.9-2.6,24.8-5.7c6.1-2.4,11.8-5.6,17.1-9.5c0.8-0.6,1.6-1.1,2.4-1.6c0.5-0.3,1.1-0.6,1.5-0.5
			c0.5,0.1,1.1,0.5,1.4,1c0.4,0.6,0,1.2-0.6,1.5c-2.4,1.6-4.7,3.4-7.2,4.7c-4.7,2.6-9.4,4.9-14.2,7.3c-1.3,0.7-2.8,1.3-4.2,1.5
			c-2.5,0.5-4.1,2-5.6,3.7c-1.8,2-3.9,3.6-6.6,4.3c-1.1,0.3-1.6,0.9-1.8,2c-0.8,4.7-1.8,9.4-2.5,14.1c-0.9,6.2-1.6,12.4-2.4,18.7
			c-0.2,1.5-0.4,2.9,0.6,4.3c0.7,1,0.4,2.3-0.4,3.1c-1.1,1.2-1.2,2.7-1.3,4.2c-0.2,5.8-0.3,11.6-0.5,17.4c-0.1,3.3-0.1,6.6-0.1,9.8
			C1485.1,740.1,1484.9,740.6,1484.8,741.2 M1540.5,631.9c-0.4-0.7-0.5-1.1-0.7-1.4c-3.3-4.7-6.6-9.4-9.8-14.1
			c-0.7-1-1.3-2.1-1.8-3.2c-2.7-6-7.1-10.5-12.6-13.8c-2.5-1.5-5.3-2.5-8.1-3.4c-5-1.8-10.1-2.8-15.5-2.5c-1.8,0.1-3.7,0.2-5.5,0.7
			c-5.5,1.3-10.5,3.9-15.3,6.8c-6.2,3.7-11.2,8.9-15.8,14.4c-1.8,2.2-3.2,4.4-2.5,7.4c0,0.1,0,0.3,0,0.4c-0.1,2,0.6,3.5,2,5
			c2.6,2.7,5.8,4.5,9.1,6.2c2.2,1.1,4.5,1.2,6.8,0.8c2.5-0.4,3.4-2.9,2.1-5c-0.4-0.6-0.9-1-1.4-1.5c-0.6-0.6-1.3-1.2-1.9-1.8
			c-0.6-0.7-1-1.4-0.4-2.7c0.5,0.3,1.1,0.4,1.5,0.8c0.9,0.7,1.8,1.5,2.6,2.3c0.8,0.9,1.6,1.8,2,2.8c0.5,1.3,1.4,1.9,2.7,2.1
			c2,0.4,4,0.9,6,1.1c2.2,0.2,4.4,0.3,6.5,0.3c0.6,0,1.2-0.2,1.8-0.4c1.1-0.4,2.2-1,2.3-2.3c0.2-1.4-0.4-2.6-1.7-3.2
			c-1.2-0.6-2.4-0.9-3.6-1.4c-0.9-0.3-1.4-1.2-1.1-1.9c0.3-0.8,1-0.8,1.7-0.6c2.4,0.7,4.8,1.7,6.1,3.9c1.3,2.1,3,3,5.3,3.3
			c1.3,0.2,2.5,0.6,3.8,0.8c2.8,0.3,5.7,0.6,8.5,0.7c1.2,0,2.5-0.1,3.3-1.6c-0.4-0.3-0.8-0.8-1.2-1c-2.3-1-4.6-2-6.9-3
			c-0.9-0.4-1.1-1-1-1.8c0.2-0.9,0.9-0.9,1.6-0.8c0.5,0.1,1,0.3,1.5,0.6c1.5,0.7,3.1,1.4,4.6,2.2c1.1,0.6,2,1.4,2.9,2.1
			c0.8,0.5,1.5,1.3,2.3,1.5c3.9,0.8,7.7,2,11.7,1.6c1.8-0.2,3.7-0.2,5.5-0.3C1538.7,632.2,1539.4,632,1540.5,631.9 M1484.5,664.7
			c-1.4,1.7-3.5,1.9-5.5,2.1c-2.5,0.1-2.6,0.2-3.1,2.6c-0.5,2.5-0.9,5.1-1.6,7.6c-2.4,8.6-3.3,17.4-4.6,26.2
			c-0.2,1.2-0.1,2.2,0.7,3.3c1,1.3,0.9,2.3-0.3,3.2c-1.1,0.8-1.3,1.8-1.3,3c0,0.7-0.2,1.5-0.2,2.2c-0.4,6.8-0.7,13.6-1,20.4
			c-0.2,4.4,0.9,8.8-1,13.1c0,0,0.1,0.1,0.2,0.3c2.6-1.3,5.4-2.5,7.9-4c2.6-1.5,5.1-3.4,7.6-5.1c0.3-9.8,0.7-19.7,1-29.6
			c0-0.7-0.3-1.6-0.7-2.3c-0.8-1.6-0.8-3,0.3-3.9c0.8-0.6,1-1.4,1.1-2.3c0.6-4.3,1-8.7,1.7-13c1.1-7.1,2.2-14.3,3.3-21.4
			c0-0.2,0-0.5,0-0.5C1487.5,666.1,1486.1,665.4,1484.5,664.7 M1426.9,562.1c0.4-0.3,0.5-0.4,0.5-0.5c0.3-0.6,0.5-1.3,0.7-1.9
			c1.4-4.2,4.2-7.1,8-9.2c1-0.5,2.2-0.7,3.3-0.9c0.5-0.1,1.1,0.2,1.5,0.5c0.3,0.2,0.5,0.8,0.5,1.2c0,0.2-0.6,0.5-0.9,0.6
			c-0.8,0.3-1.7,0.4-2.5,0.8c-3.3,1.6-5.5,4.2-6.9,7.5c-0.6,1.4-1.4,2.9-1.1,4.7c4.3-7,10.6-9.6,18.3-8.8c0.2-0.4,0.3-0.5,0.4-0.6
			c0.1-0.2,0.2-0.4,0.2-0.6c0.9-4.9-0.7-9.1-3.7-12.9c-1-1.2-2.3-1.5-3.9-1.2c-2.8,0.6-5.2,1.9-7.4,3.8c-4.6,4-7.1,9.1-7.2,15.2
			C1426.6,560.5,1426.8,561.2,1426.9,562.1 M1476.7,753.1c2.6,0.6,5.2,1.2,7.7,1.8c0.6-2.9,0.1-8-1-9.9
			C1481.2,747.6,1479,750.3,1476.7,753.1 M1464.3,747.2c-0.1-0.1-0.3-0.3-0.4-0.4c-3.1,2.4-6.1,4.8-9.2,7.2c0.1,0.1,0.1,0.3,0.2,0.4
			c1.7-0.1,3.3-0.3,5-0.4c0.9-0.1,1.5-0.4,1.9-1.3C1462.6,750.8,1463.5,749,1464.3,747.2 M1472.5,753c2.5-2.3,5-4.5,6.7-7.5
			c-3.3,1.7-6.6,3.5-10.2,5.4C1470.3,751.7,1471.3,752.3,1472.5,753 M1450,753.8c2.1-1.6,4.3-2.6,5.6-4.9c-2.5,0.8-4.9,1.7-7.6,2.6
			C1448.9,752.3,1449.4,752.9,1450,753.8 M1480.8,663.3c-2.4-0.1-5-0.3-7.7-0.4C1474.5,664.7,1478.5,664.8,1480.8,663.3
			 M1487.5,663.3c1.4,0.5,2.9,0.8,4.7-0.1C1490.3,663.2,1488.9,663.2,1487.5,663.3"/>
		<path class="st2" d="M1457.5,541.2c0.1,1.1-1,2.3-2.1,2.4c-1.1,0.1-2.1-0.9-2.2-2.2c-0.1-1.1,0.9-2.4,1.9-2.5
			C1456.1,538.8,1457.4,540,1457.5,541.2"/>
		<path class="st2" d="M2067.9,717c-0.5-0.6-0.7-0.9-0.9-1.1c-2.9-2.6-4.9-6-6.9-9.3c-4.2-7.2-7.3-15-10.4-22.7
			c-1.2-3.1-2.1-6.2-3-9.4c-0.8-2.7-1.5-5.5-1.7-8.3c-0.3-2.8-0.3-5.5-0.4-8.3c0-0.4-0.1-0.7-0.1-1.1c-1.4-0.2-2.5,0.4-3.7,0.8
			c-3.1,0.9-6.1,1.9-9.2,2.8c-3.9,1.1-7.9,2.2-11.8,3.3c-4.9,1.3-9.9,2.6-14.9,3.9c-2,0.5-4,0.7-6,1.1c-1.7,0.4-3.3,0.9-5,1.2
			c-2.5,0.5-4.9,0.8-7.4,1.3c-1.9,0.3-3.8,0.6-5.7,0.9c-3.9,0.7-7.9,1-11.9,1.1c-1.2,0-1.4,0-1.8,1.3c-0.6,2.1-1.3,4.2-1.6,6.4
			c-0.7,4.6-1.2,9.3-1.8,13.9c-0.4,3.1-0.9,6.2-1.2,9.3c-0.4,4.4-0.7,8.9-0.9,13.3c-0.3,5-0.5,9.9-0.6,14.9c-0.1,5.1,0,10.2,0,15.3
			c0,0.6-0.1,1.2,0.1,1.7c0.5,1.6-0.3,3.1-0.6,4.6c0,0.3-0.8,0.7-1.1,0.6c-1.7-0.4-3.1,0.3-4.6,0.8c-4.1,1.4-8.3,1.3-12.5,1
			c-2-0.1-4-0.3-6-1c-1.3-0.4-2.8-0.3-4.1-0.9c-0.5-0.3-1.1-0.5-1.5-0.8c-1.2-0.9-2.3-0.8-3.6-0.1c-5,2.5-9.9,5.2-15.3,6.8
			c-3.2,0.9-6.4,1.7-9.6,2.3c-3,0.6-6.1,0.9-9.2,1.3c-1.2,0.2-2.5,0.5-3.7,0.6c-2.2,0.3-4.5,0.4-6.7,0.6c-3.8,0.3-7.7,0.4-11.4,1.1
			c-1.8,0.3-3.6,0-5.4,0.3c-1.8,0.3-3.7,0.2-5.5,0.2c-1.8,0-3.7,0-5.5-0.1c-1.4,0-2.8,0.1-4.2-0.1c-2.8-0.3-5.5-0.7-8.3-1
			c-1-0.1-2.1-0.1-3.1-0.3c-1.6-0.3-3.2-0.6-4.7-1.1c-3.5-1-7-1.9-10.4-3.1c-1.9-0.7-3.6-1.9-5.2-3.1c-0.5-0.4-0.8-1.4-0.9-2.1
			c-0.3-5.5-0.6-11.1-0.8-16.7c-0.1-4.3,0-8.6,1-12.8c1.2-5.3,3.6-10.1,7.6-14c1.6-1.6,3.1-3.2,5.1-4.3c1.3-0.7,2.7-1.5,4.1-2
			c5.6-2,11.3-3.9,17.1-5.3c2.3-0.5,4.6-1,6.9-1.5c0.4-0.1,0.7-0.1,1.1-0.3c1.3-0.5,2.1-1.2,2.1-2.7c0-2.6,0.2-5.1,0.3-7.7
			c0.1-4.7,0.1-9.3,0.1-14c0-6.7-0.3-13.4-0.9-20.1c-0.4-5-0.6-9.9-1.3-14.9c-0.7-5.2-1.4-10.4-3.2-15.4c-1-2.8-2-5.5-3.8-7.9
			c-1-1.3-2-2.5-3.5-3.3c-0.8-0.4-1.4-1.2-2.1-1.7c-1.7-1.1-3.3-2.1-5-3.2c-1.4-0.9-2.9-1.7-4.2-2.7c-1.2-0.9-2.3-1.7-3.9-1.7
			c-2.9,5.6-7,10.3-11.7,14.6c-2.5,2.3-5.2,4.4-7.5,6.9c-3.2,3.3-6.9,6-10.5,8.9c-1.4,1.1-2.7,2.3-4,3.6c-3.3,3.1-6.7,6-10.4,8.5
			c-2.8,1.9-5.4,4.1-8.1,6.2c-2.4,1.9-4.8,3.7-7.2,5.6c-3.3,2.7-6.7,5.1-10.4,7.3c-2.1,1.2-4.3,2.2-6.3,3.5c-3.7,2.4-7.8,4-11.8,5.8
			c-2.4,1.1-4.7,2.2-7.1,3.3c-1,0.5-2.1,0.7-3,1.2c-3.4,1.7-6.9,2.9-10.5,4.1c-4.2,1.4-8.3,2.8-12.5,4c-2.3,0.7-4.6,1.4-7,1.8
			c-3.6,0.7-7.3,1.2-11,1.8c-3.8,0.6-7.6,1.2-11.5,1.8c-2.9,0.4-5.8,0.8-8.7,1.1c-2.4,0.3-4.8,0.5-7.2,0.7c-0.8,0.1-1.6,0.1-2.4,0.1
			c-3.2,0.1-6.5,0.2-9.7,0.3c-3.7,0.1-7.3,0-11,0.1c-3.1,0-6.3,0.2-9.4,0.3c-2.4,0-4.8,0.1-7.2-0.6c-0.3-0.1-0.6-0.1-0.9-0.1
			c-4.4-0.3-8.5-1.7-12.4-3.7c-4.3-2.2-8.2-5.1-12-7.9c-2.1-1.6-4.2-3.1-6.3-4.7c-3.1-2.3-5.8-4.9-8.4-7.7
			c-4.2-4.6-7.7-9.6-10.1-15.4c-0.9-2.2-1.9-4.3-2.9-6.5c-1.2-2.8-2.2-5.6-2.7-8.7c-0.4-2.3-1.2-4.6-1.6-6.9
			c-0.4-1.8-0.6-3.7-0.7-5.6c-0.2-2.8-0.4-5.5-0.4-8.3c0-2.9,0.2-5.8,0.9-8.6c0.7-2.9,1.3-5.8,1.9-8.7c0.6-3.1,2.2-5.9,3.3-8.8
			c1.5-3.9,3.6-7.5,5.7-11.1c0.3-0.4,0.4-0.9,0.6-1.4c-0.5-1.8-1.8-3.1-2.8-4.5c-2.7-3.7-5-7.8-6.7-12.1c-1.3-3.4-2.6-6.8-3.7-10.3
			c-1-3.2-1.8-6.5-2.5-9.7c-0.7-2.9-1.2-5.7-1.7-8.6c-0.2-0.9-0.3-1.9-0.3-2.8c-2.2-16.7-1.2-26.3,0-35.3c1.2-9,0.2-2.4,0.5-3.6
			c0.6-2.9,1.3-5.8,1.9-8.7c0.7-3.2,1.8-6.3,3.2-9.4c1.2-2.7,2.3-5.5,3.6-8.2c1.5-3.2,3.6-6,5.7-8.8c0.4-0.5,1-0.9,1.5-1.4
			c0.7-0.7,1.5-1.2,2.2-2c0.6-0.6,1.2-0.6,1.9-0.4c0.7,0.2,0.8,0.8,0.9,1.5c0.2,2,0.6,3.9,0.9,5.9c0.1,0.9,0.3,1.8,0.5,2.6
			c0.2,1,0.5,1.9,0.9,2.8c2,5.5,4.1,11,7.6,15.8c0.9,1.3,1.6,2.7,2.4,4c2.5,4.3,5.3,8.3,8.5,12.1c3.4,4,6.6,8.2,10.2,12.1
			c3.7,4,7.9,7.5,11.9,11.1c1.8,1.6,3.5,3.3,5.4,4.8c1.3,1.1,2.7,1.9,4,2.8c2.7-1.6,5.5-2.4,8.3-3.3c2.7-0.9,5.5-1.7,8.3-2.6
			c-0.3-0.8-0.6-1.4-0.8-2.1c-0.7-2-1.6-4-2-6.1c-0.8-3.3-1.5-6.6-1.9-10c-0.5-3.8-0.8-7.6-0.4-11.5c0.1-0.7,0.1-1.4,0.1-2
			c0.1-4.6,1.1-9.1,1.8-13.7c0.6-3.9,2.4-7.3,4.1-10.8c0.6-1.2,1.2-2.3,1.9-3.4c0.3-0.5,0.6-1,1-1.4c1.2-1.4,2.9-1.3,3.8,0.3
			c0.6,1,1.1,2.1,1.6,3.2c1.4,3.3,3.2,6.5,4.6,9.8c2.3,5.6,4.9,11.1,8.7,16c2.7,3.5,5.6,6.9,8.6,10.2c1.8,2,4,3.6,6.1,5.5
			c2-1,4-2,6-3c3.3-1.6,6.4-3.4,9.4-5.3c2.4-1.6,4.8-3.4,7.2-5c3-2.1,5.8-4.5,8.3-7.1c1.3-1.2,2.4-2.6,3.5-4
			c2.6-3.3,4.9-6.8,6.6-10.6c1.2-2.9,2.1-6,3.1-9.1c1.1-3.5,1.3-7.2,1.8-10.8c0.8-5,1.3-10.1,2-15.1c0.4-2.6,1-5.1,1.5-7.7
			c0.1-0.6,0.2-1.1,0.3-1.7c0.2-0.8,0-1.4-0.7-2c-1.3-1.2-2.5-2.7-3.6-4.1c-2.5-3.2-4.6-6.6-6-10.4c-0.4-1.1-0.7-2.3-1-3.5
			c-0.7-3-1.3-6.1-1.6-9.3c-0.3-3.7-0.3-7.4,0.1-11.1c0.2-2.1,0.6-4.3,0.9-6.4c0.3-1.5,0.6-3,0.9-4.4c0.5-2.3,1.1-4.7,1.7-7
			c0.5-1.8,1.6-2.3,3.3-1.4c0.8,0.5,1.6,1,2.3,1.7c2.6,2.4,5.2,4.8,7.7,7.4c1.2,1.2,2.1,2.6,2.9,4.1c1.6,3,3.1,6.2,4.1,9.5
			c0.4,1.3,0.6,2.8,0.9,4.1c0.1,0.4,0.2,0.8,0.3,1.3c0.7-0.5,1.3-0.8,1.8-1.2c4.8-3.9,9.9-7.2,15.7-9.4c2.5-1,4.9-2.2,7.3-3.2
			c1.5-0.6,3.1-1,4.6-1.4c3.3-0.8,6.6-1.7,9.9-2.3c2.9-0.6,5.8-0.8,8.7-1.2c7.4-1.2,14.9-0.3,22.3-0.6c3.2-0.2,6.3-0.1,9.4,0.7
			c0.6,0.2,1.3,0.1,2.1,0.2c0.3-0.7,0.6-1.3,0.7-1.9c1.2-4.2,3.2-8,5.6-11.7c3-4.6,6.7-8.5,11-11.9c3.3-2.6,7-4.4,10.8-6.1
			c1.1-0.5,1.8,0,2.6,0.6c0.6,0.4,1.1,1,1.8,1.3c1.8,0.9,2.7,2.5,3.4,4.2c1.5,3.3,3,6.5,3.9,10.1c0.8,3.3,1.1,6.6,1,10
			c-0.1,3.1-0.2,6.2-0.7,9.2c-0.5,3.6-1.5,7-2.3,10.6c-0.3,1.2-0.8,2.4-1.1,3.6c-0.1,0.4,0,0.9,0.1,1.3c0.2,0.6,0.5,1.2,0.6,1.9
			c0.2,0.6,0.2,1.3,0.3,1.9c1.1,3.5,1.7,7.1,2.6,10.7c1.2,5.1,2.7,10.1,4.1,15.2c1.6,5.7,4.2,11.1,6.5,16.5c0.9,2.2,1.7,4.4,2.6,6.7
			c1.1-0.3,2.2-0.6,3.2-1c1-0.4,1.9-0.9,2.9-1.2c2-0.7,4-1.3,5.9-2.1c2.5-1,4.9-2.1,7.3-3.3c4.4-2.1,8.9-4.2,13.3-6.4
			c4.1-2.1,8.1-4.3,12.2-6.5c3-1.6,5.9-3.1,8.9-4.6c7.2-3.8,14.5-7.5,21.8-11c4.9-2.3,9.7-4.7,14.6-7c3.3-1.5,6.6-2.8,10-4.2
			c3.6-1.5,7.2-3,10.8-4.3c4.8-1.7,9.6-3.2,14.4-4.9c5.8-2,11.8-3.4,17.8-4.4c5.2-0.9,10.4-1.2,15.6-1.8c4.2-0.5,8.5-0.3,12.7-0.3
			c3.1,0,6.3,0.4,9.4,0.6c2.9,0.2,5.8,0.3,8.6,0.4c2.9,0.1,5.7,0.4,8.6,1c1.8,0.4,3.7,0.7,5.6,0.9c3.5,0.5,6.8,1.7,10.2,2.7
			c2.7,0.8,5.4,1.6,8.1,2.4c1.4,0.4,2.8,0.9,4.2,1.4c2.4,0.9,4.9,1.7,7.2,2.8c3.2,1.6,6.3,3.4,9.3,5.3c3.4,2.2,6.8,4.5,10.1,6.9
			c1.3,0.9,2.3,2.1,3.4,3.3c2.8,3.1,5.5,6.2,8.2,9.3c2.7,3,5.5,6,8.1,9.1c1.8,2.1,3.3,4.4,5,6.6c1.2,1.5,2.2,3.1,3,4.8
			c0.5,1.1,1,2.3,1.5,3.4c1.6,3.9,2.8,8,5,11.6c1.2,2,2,4.4,3,6.5c0.6,1.2,1.3,2.4,1.9,3.6c3,5.3,5.5,10.8,7.6,16.5
			c1.4,3.8,3,7.6,4.3,11.4c1.4,4.1,2.6,8.3,3.5,12.5c0.9,4.4,2,8.8,2.1,13.3c0.1,2,0.4,4,0.5,6c0.1,1.5,0.1,3,0.1,4.5
			c0,3,0,6.1-0.1,9.1c-0.1,4.8-0.2,9.5-0.4,14.3c-0.3,4.9-0.8,9.7-1.1,14.6c-0.1,0.9,0,1.9-0.1,2.8c-0.2,2.6-0.5,5.2-0.7,7.8
			c-0.6,7.3-0.8,14.7-0.6,22c0.1,4,0.7,8,1,12c0.2,2.8,0.9,5.6,1.5,8.3c0.2,0.9,0.8,1.3,1.5,1.7c2.1,0.9,3.4,2.6,4.5,4.4
			c1,1.6,1.8,3.5,2.3,5.3c1.1,3.9,1.9,7.8,2.9,11.7c0.2,1,0.4,2.1,0.5,3.1c0.7,7.4,1.3,14.8,1,22.3c-0.1,2.8,0,5.7-0.3,8.5
			c-0.3,3.1-0.8,6.2-1.3,9.3c-0.2,1.5-0.7,2.9-0.9,4.4c-0.2,0.9,0,1.9-0.2,2.8c-0.1,0.5-0.3,1.1-0.6,1.6c-0.4,0.6-1,0.7-1.7,0.5
			c-0.7-0.2-0.6-0.8-0.7-1.3c-0.4-2.2-0.6-4.5-1.2-6.6c-0.9-3.7-2.8-7-4.6-10.3c-2.1-4-4.2-8.1-6.2-12.1c-3.4-7-4.8-14.4-3.7-22.2
			c0.9-6.5,2.6-12.8,5.6-18.7c0.7-1.3,0.9-2.5,0.6-4c-1.2-5.7-2.1-11.5-2.2-17.4c-0.1-4.2-0.3-8.5-0.4-12.7c0-0.7,0-1.5,0.1-2.2
			c0.4-5.6,0.8-11.3,1.2-16.9c0.4-5.9,0.8-11.8,1.3-17.7c0.8-9.5,0.7-19,0.5-28.5c-0.1-4-0.6-8.1-1.2-12c-0.6-3.9-1.4-7.7-2.3-11.6
			c-0.5-2.2-1.4-4.3-2-6.4c-2.1-6.6-4.5-13-7.4-19.3c-0.1-0.2-0.2-0.3-0.6-0.4c0,0.6,0,1.2,0.2,1.8c1.4,4.3,2.7,8.6,3.7,13
			c0.5,2,1.2,4,1.7,6c0.6,2.4,1.1,4.8,1.5,7.2c0.4,2.3,0.8,4.5,1.1,6.8c0.5,3.8,1.4,7.5,1.3,11.4c0,2,0.3,4.1,0.2,6.1
			c-0.1,5.6-0.6,11.2-1.2,16.8c-0.4,3.3-1.3,6.6-2.1,9.8c-0.6,2.3-1,4.6-1.5,6.9c-0.1,0.4-0.1,0.7-0.2,1.1c-1.1,3.3-2.1,6.6-3.2,9.8
			c-0.8,2.3-1.7,4.5-2.6,6.7c-0.4,0.9-0.9,1.8-1.5,2.6c-1.5,2.1-2.3,4.5-3.4,6.9c-2.9,6.1-6.2,11.9-10.2,17.3
			c-1.6,2.2-2.3,4.7-2.9,7.2c-0.4,1.7-0.6,3.4-1,5.1c-1.1,5-1.6,10.1-2.1,15.2c-0.3,4-0.6,7.9-0.6,11.9c0,5.1,0.4,10.3,0.7,15.4
			c0.2,3.4,0.5,6.8,0.9,10.2c0.2,1.9,0.5,3.8,0.8,5.8c0.3,1.9,0.5,3.8,0.9,5.7c0.4,2.3,0.8,4.5,1.2,6.8c0.4,2.1,0.7,4.2,1.2,6.3
			c0.6,2.5,1.2,5,1.9,7.5c0.5,1.9,0.8,3.8,1.5,5.6c1.1,3.1,1.9,6.3,3.3,9.3c2.1,4.4,4.8,8.3,7.2,12.5c0.7,1.1,1.3,2.3,2,3.4
			c0.5,0.7,0.4,1.3-0.2,1.9c-1.8,1.9-3.5,3.9-5.6,5.5c-4.2,3.2-8.9,5.4-13.8,7.3c-2.9,1.1-5.8,2.4-8.7,3.5c-3.5,1.3-7,2.7-10.8,3.4
			c-5.2,0.9-10.3,2.1-15.4,3.1c-3,0.6-6.1,1.1-9.1,1.6c-3.8,0.6-7.6,1.1-11.3,1.6c-3.5,0.5-7,1.2-10.5,1.6c-1.6,0.2-3.1,0-4.7,0.1
			c-2.6,0.1-5.1,0.4-7.7,0.5c-4.1,0.2-8.2,0.4-12.3,0.4c-3.8,0-7.6-0.2-11.4-0.4c-1.5-0.1-3-0.2-4.5-0.3c-1.4-0.1-2.8-0.1-4.1-0.8
			c-0.4-0.2-1-0.2-1.5-0.1c-0.9,0.2-1.6,0.1-2-0.8c-0.4-0.7-0.8-1.4-1.1-2c-0.5-1-1-1.9-1.5-2.9c-0.3-0.7-0.6-1.3-0.9-2
			c-0.7-1.6-1.5-3.2-2.1-4.9c-1.8-4.2-2.6-8.6-2.5-13.2c0-1.5-0.1-2.9,0.1-4.4c0.3-3.1,1.6-5.7,3.5-8.1c2.3-2.9,5.4-4.9,8.7-6.6
			c3.2-1.7,6.4-3.1,9.8-4.2C2064.3,718.2,2066,717.7,2067.9,717 M2080.5,598.3c-2.5,2.8-4.9,5.4-7.1,8c-2.2,2.5-4.3,5.1-6.4,7.7
			c-0.5,0.6-1,1.3-1.6,2c-2.7,3.1-5.2,6.3-7.2,9.9c-1.1,1.9-2.3,3.7-3.2,5.6c-1.6,3.6-3.1,7.3-4.6,11c-0.6,1.5-0.9,3.1-1.3,4.7
			c-0.4,1.7-1,3.3-1.1,5c-0.2,2.9-0.3,5.9-0.2,8.8c0.1,2.3,0.6,4.7,0.7,7c0.1,3.1,1,6.1,1.9,9.1c0.8,2.6,1.6,5.3,2.8,7.8
			c1.6,3.5,2.8,7.1,4.2,10.7c1.2,3.1,2.6,6.2,4.6,8.9c1.1,1.5,2.1,3,3.3,4.4c1.9,2.4,3.9,4.8,6,7.1c1.1,1.2,1.1,1.1,0.6,2.5
			c-2.7,0.8-5.4,1.6-8,2.4c-0.4,0.1-0.8,0.3-1.2,0.4c-3.3,1.4-6.5,3.1-9.7,4.8c-4.4,2.3-7.6,5.5-9.3,10.2c-0.3,0.9-0.5,1.8-0.6,2.7
			c0,2.2,0.1,4.4,0.1,6.6c0,0.4,0.1,0.7,0.2,1c1.3-1,2.5-1.9,3.8-2.7c2.6-1.8,5.4-2.5,8.5-1.9c2.3,0.5,4.5,1.2,6.2,3.1
			c2,2.3,3.5,4.8,4.5,7.7c1.5,4.7,2.5,9.5,2.5,14.6c1.7,0.1,3.3,0.5,4.9,0.1c0.4-1.7-0.4-3-0.7-4.4c-0.6-2.7-0.9-5.4-0.8-8.1
			c0.1-2.8,1-5.4,2.1-7.8c1.2-2.5,2.7-4.9,5.8-5.5c1.6-0.3,3.2-0.7,4.8-0.6c2.7,0.2,4.8,1.7,6.6,3.6c1.8,1.9,2.6,4.3,3.4,6.8
			c1.1,3.8,2.2,7.5,2.5,11.5c0.1,1.1,0.4,2.2,0.7,3.4c0.9-0.1,1.7-0.1,2.5-0.2c3.5-0.5,7-1.1,10.6-1.6c4.4-0.7,8.8-1.5,13.2-2.3
			c5.3-1,10.5-2,15.7-3c3.7-0.7,7.4-1.7,10.9-3.1c5.4-2.2,10.9-4.4,16.3-6.6c3.4-1.4,6.4-3.4,9.2-5.6c1.3-1,2.3-2.3,3.4-3.4
			c-2.6-4.4-5.8-8.3-7.9-12.8c-1.5-3.3-3.5-6.4-4.7-9.9c-1.3-3.7-2.2-7.5-3.3-11.3c-0.6-2.2-1-4.5-1.4-6.8c-0.6-3.3-1.1-6.7-1.7-10
			c-0.1-0.9-0.2-1.8-0.3-2.7c-0.9-4.2-1.2-8.4-1.5-12.6c-0.3-3.8-0.2-7.6-0.6-11.3c-0.5-4.2,0.3-8.5-0.6-12.6
			c-0.2-0.8,0.1-1.8,0.2-2.7c0.1-3.7-0.1-7.3,0.4-11c0.4-3,0.2-6.1,0.9-9.1c0.3-1.2,0.5-2.5,0.8-3.7c0.4-1.9,0.9-3.8,1.3-5.7
			c0.5-2.4,1.2-4.8,2.2-7c1-2.3,2-4.5,3.6-6.6c1.9-2.4,3.5-5.1,5.1-7.7c1.1-1.9,2.1-4,3-6c3.2-6.8,6.7-13.5,8.6-20.9
			c0.9-3.2,1.6-6.5,2.3-9.8c0.4-1.9,0.7-3.8,1.1-5.7c0.4-2.4,1-4.8,1.3-7.3c0.8-6.3,1.4-12.6,1.3-19c-0.1-6.4-0.5-12.8-1.9-19
			c-0.6-2.9-1.1-5.8-1.7-8.6c-0.4-1.7-0.8-3.3-1.3-5c-0.9-3.4-1.7-6.8-2.7-10.2c-0.9-3.3-2-6.5-3-9.8c-1.2-3.6-2.3-7.2-3.6-10.7
			c-2.2-5.8-4.6-11.5-6.9-17.2c-1.7-4.4-4.3-8.1-7.4-11.6c-1.6-1.8-3.1-3.6-4.7-5.4c-1.8-2.1-3.6-4.1-5.4-6.1
			c-2.4-2.7-4.9-5.3-7.4-7.9c-0.8-0.9-1.7-1.8-2.6-2.5c-2-1.5-4.2-3-6.2-4.5c-1.7-1.2-3.4-2.4-5.2-3.5c-1.6-1-3.3-2.1-5-2.9
			c-1.8-0.9-3.8-1.6-5.7-2.3c-1.9-0.7-3.7-1.5-5.6-2c-3.1-0.9-6.3-1.6-9.4-2.5c-2.1-0.6-4.2-1.4-6.3-2.1c-1.3-0.4-2.7-0.7-4.1-0.9
			c-2.2-0.2-4.3-0.7-6.5-1c-2-0.3-4-0.7-6-0.9c-1.6-0.2-3.1-0.1-4.7-0.2c-5.2-0.2-10.4-0.6-15.6-0.7c-3.8-0.1-7.6-0.1-11.3,0.2
			c-5.1,0.4-10.2,1.2-15.3,1.8c-4.1,0.5-8,1.6-12,2.6c-2.6,0.6-5.2,1.6-7.8,2.4c-4.6,1.5-9.2,3.1-13.9,4.6c-1,0.3-2,0.6-3,1
			c-1.5,0.6-2.9,1.4-4.4,2c-2.5,1-5,1.8-7.4,2.9c-6.1,2.8-12.2,5.8-18.3,8.7c-3.3,1.6-6.6,3.1-9.9,4.8c-3.8,1.9-7.5,3.9-11.3,5.8
			c-7.2,3.7-14.4,7.5-21.6,11.2c-1.7,0.9-3.3,1.9-5.1,2.8c-2.4,1.2-4.8,2.3-7.2,3.4c-3.5,1.7-6.9,3.4-10.6,4.6
			c-3.4,1.1-6.7,2.6-10.1,3.9c-0.1,0.1-0.2,0.2-0.4,0.3c0,0.2,0,0.4,0.1,0.6c1.5,3.4,2.9,6.9,4.4,10.2c1.5,3.3,3.2,6.6,4.8,9.8
			c2.6,5.2,5.6,10.1,8.6,15c2.6,4.3,5.1,8.6,8.4,12.5c0.5,0.6,0.4,1.4-0.2,1.6c-1.6,0.6-3.3,1.2-5,1.8c-0.5-0.6-0.9-1.1-1.3-1.7
			c-1.7-2.9-3.5-5.7-5.1-8.6c-3.1-5.6-6.1-11.3-9-17.1c-1.3-2.4-2.4-4.9-3.5-7.4c-1.4-3.2-2.7-6.4-4-9.5c-1.2-2.9-2.4-5.7-3.5-8.6
			c-1.7-4.5-3.4-9-4.9-13.6c-1.1-3.2-2.1-6.4-3-9.6c-0.8-2.6-1.3-5.3-2.2-7.9c-2-5.7-3.2-11.6-4.2-17.5c0-0.3-0.2-0.5-0.3-0.9
			c-0.9,1.2-1.5,2.5-2.4,3.4c-1,1-2.1,1.8-3.3,2.5c-0.3,0.2-0.9,0.2-1.4,0.1c-0.3-0.1-0.7-0.5-0.7-0.7c0.2-1,0.2-2.3,0.8-2.9
			c2-2.1,3.2-4.5,4.2-7.1c2.9-7.5,4.6-15.3,4.9-23.3c0.1-3,0-6-0.3-8.9c-0.5-4.1-1.8-8-3.6-11.7c-0.6-1.3-1.6-2.4-2.6-3.5
			c-0.8-0.9-1.9-1.2-3.1-0.6c-1.2,0.7-2.6,1.2-3.8,1.9c-5.3,3.2-9.9,7.2-13.6,12.2c-2,2.7-3.5,5.6-5,8.5c-1.1,2.1-1.8,4.4-2.3,6.5
			c0.5,0.8,1,1.4,1.3,2c0.1,0.2,0,0.8-0.2,1c-0.3,0.2-0.8,0.2-1.1,0.1c-0.8-0.1-1.5-0.4-2.2-0.6c-0.9-0.2-1.9-0.3-2.8-0.4
			c-2.1-0.2-4.2-0.6-6.2-0.7c-2-0.1-4.1,0.2-6.1,0.2c-3.3,0-6.6-0.2-9.9-0.1c-5.8,0.2-11.5,0.7-17.2,1.7c-4,0.7-8,1.7-11.8,3
			c-4.6,1.6-9.1,3.4-13.5,5.5c-3.1,1.5-6.1,3.2-8.8,5.4c-1.9,1.6-3.8,3.2-5.7,4.6c-1.9,1.4-3.3,3.2-4.1,5.3c-1.3,3.3-2.2,6.6-3.2,10
			c-0.5,1.6-0.8,3.2-1.1,4.7c-0.5,2.7-1.1,5.3-1.6,8c-0.3,1.5-0.5,3-0.8,4.5c-0.7,3.7-1.3,7.4-2,11.1c-0.1,0.7-0.1,1.5-0.2,2.2
			c-0.3,2.3-0.7,4.6-0.9,6.8c-0.3,2.5-0.5,5.1-0.8,7.6c0,0.2,0,0.3-0.1,0.5c-0.5,1.8-1,3.6-1.5,5.4c-0.9,2.8-1.6,5.8-2.9,8.4
			c-2,4.2-4.6,8.1-7.7,11.6c-3.2,3.6-6.8,6.6-10.6,9.4c-2.1,1.5-4.2,3-6.3,4.4c-2.5,1.6-5,3.3-7.6,4.7c-4.1,2.2-8.2,4.1-12.4,6.2
			c-5.5,2.8-11.1,5.7-16.8,7.9c-3.3,1.3-6.5,2.5-9.8,3.9c-2.1,0.9-4.5,1.1-6.3,2.7c-0.1,0.1-0.3,0.1-0.4,0.1c-1.3,0.3-2.7,0.4-4,0.8
			c-3,0.9-6,1.8-9,2.9c-1.1,0.4-2.4,0.8-3.1,2c0.1,0.2,0.2,0.3,0.3,0.4c1.8,1.1,3.6,2.1,5.4,3.1c0.7,0.4,1.1,0.9,1.2,1.7
			c0.4,1.8,0.2,3.5-0.3,5.4c-0.9,3.1-2.2,6.1-4,8.8c-2.6,4.2-5.7,8-9,11.6c-1,1.1-1.8,2.3-2.9,3.2c-2.7,2.3-5.4,4.4-8.2,6.6
			c-1.1,0.8-2.2,1.6-3.3,2.3c-1.4,0.9-3,1.7-4.4,2.7c-4.6,3.1-9.6,4.8-15,5.6c-3.3,0.5-6.5,0.9-9.8,0.2c-1.6-0.4-3.3-0.5-5-0.8
			c-0.5-0.1-1-0.1-1.6-0.2c-1.4,2.5-2.8,4.8-4,7.3c-1,1.9-1.6,4-2.4,6c-0.9,2.4-2,4.7-2.8,7.2c-0.6,1.8-0.9,3.8-1.2,5.7
			c-0.5,2.8-1.1,5.6-1.3,8.4c-0.3,4.6,0.2,9.1,0.7,13.6c0.3,2.7,1,5.5,1.6,8.2c0.3,1.6,0.6,3.2,1.1,4.7c1,2.7,2,5.4,3.2,8
			c1.5,3.2,3.2,6.2,4.8,9.3c0.6,1.2,1.3,2.4,2.2,3.4c2.3,2.8,4.8,5.5,7.2,8.3c0.4,0.5,1,0.9,1.5,1.3c1.8,1.4,3.6,2.8,5.5,4.2
			c3.4,2.4,6.8,4.9,10.2,7.3c2,1.4,4,2.7,6.1,3.8c2,1.1,4.1,2.2,6.5,2.1c0.3,0,0.5,0.1,0.8,0.2c2.4,1,4.9,1.3,7.4,1.3
			c8.7,0,17.4-0.1,26.1-0.2c0.9,0,1.8-0.2,2.7-0.2c2.1-0.1,4.2,0,6.3-0.1c3.2-0.2,6.5-0.4,9.7-0.8c4.7-0.6,9.4-1.5,14.1-2.2
			c4.6-0.6,9.1-1.1,13.6-2.1c2.8-0.6,5.5-1.2,8.2-1.9c3.9-1.1,7.7-2.3,11.5-3.6c2.6-0.9,5.2-1.8,7.7-2.8c4.8-2,9.5-4.1,14.2-6.2
			c2.8-1.3,5.6-2.7,8.3-4.1c1.6-0.8,3.2-1.8,4.8-2.7c2.8-1.6,5.7-3.1,8.4-4.8c1.2-0.7,2.3-1.7,3.4-2.5c4.1-3.2,8.2-6.4,12.3-9.5
			c2.1-1.6,4.3-3.2,6.4-4.8c2.1-1.6,4.2-3.1,6.2-4.8c3-2.5,5.8-5.1,8.7-7.6c3-2.6,6.1-5.1,9.1-7.7c2.6-2.2,5-4.6,7.5-6.9
			c2.2-2.1,4.6-4.2,6.5-6.6c2.5-3.2,4.8-6.6,6.6-10.3c2.6-5.5,3.8-11.2,4.3-17.1c0.5-6.6,0.5-13.3,0.4-20c-0.1-4.1,0.4-8.2-0.8-12.2
			c-0.1-0.4,0-0.8,0-1.2c0.3-0.1,0.4-0.2,0.6-0.2c1.3,0.4,2.7,0.8,4,1.2c0.2,0.1,0.5,0.6,0.5,0.9c0.3,3.2,0.7,6.3,0.9,9.5
			c0.2,3,0.2,6,0.3,8.9c0,2.2-0.1,4.5,0.1,6.7c0.2,3.1-0.2,6.2-0.5,9.2c-0.2,1.6-0.6,3.1-0.8,4.6c-0.5,3.8-1.1,7.5-3.5,10.8
			c-0.3,0.4-0.4,0.8-0.6,1.4c0.4,0.3,0.9,0.7,1.4,1c1.2,0.7,2.3,1.4,3.5,2.1c1.4,0.8,2.9,1.6,4.3,2.5c1.8,1.2,3.4,2.6,5.1,3.9
			c0.7,0.6,1.4,1.3,1.9,2c2.9,4.1,4.7,8.6,5.8,13.4c0.4,1.7,0.6,3.4,0.9,5.1c0.5,3.1,0.9,6.1,1.3,9.2c0.4,3.5,0.9,7.1,1.1,10.6
			c0.3,5.2,0.5,10.3,0.7,15.5c0,0.8-0.2,1.6-0.2,2.3c0,2.1,0.2,4.3,0.2,6.4c0,3.2,0,6.4,0,9.6c0,1.6,0.1,3.2,0,4.9
			c-0.1,2.2-0.3,4.5-0.5,6.7c-0.1,0.9-0.5,1.6-1.4,1.9c-2,0.6-3.9,1.1-5.9,1.6c-2.6,0.6-5.3,1-7.8,1.7c-3.7,1.1-7.3,2.4-10.9,3.6
			c-3.8,1.2-7.2,3.1-10,6c-2.1,2.1-4.1,4.3-5.2,7.2c-0.9,2.4-2,4.7-2.6,7.2c-0.5,1.8-0.5,3.7-0.7,5.6c0,0.1,0.1,0.3,0.2,0.5
			c0.2-0.2,0.4-0.2,0.5-0.4c1.3-2.1,3.5-2.8,5.7-3.7c0.5-0.2,1.1-0.4,1.7-0.3c2.3,0.2,4.6,0.6,6.5,2.3c2.7,2.3,4.2,5.2,5.1,8.4
			c0.5,1.7,0.6,3.5,0.9,5.2c0.1,0.5,0.1,1,0.1,1.6c0.1,3.1,0.2,6.2,0.2,9.3c0,0.6-0.1,1.3-0.1,1.9c-0.2,1.6-0.5,3.2-0.1,4.9
			c1.2,0.6,2.5,0.8,4,0.6c0-1,0-1.9,0-2.7c-0.1-2.3-0.2-4.6-0.2-6.9c0-1.4,0.2-2.7,0.1-4.1c-0.1-3.2,1-6.1,2.4-8.8
			c1.4-2.8,3.6-5.1,6.5-6.6c1.6-0.8,3.1-1.3,4.8-1c3.9,0.6,7.2,2.2,9.4,5.6c0.7,1.1,1.4,2.3,2,3.6c0.7,1.5,1.4,3.1,1.7,4.7
			c0.5,2.9,0.8,5.9,1,8.9c0.1,1-0.1,2-0.2,3c-0.2,1.5-0.3,3,0,4.7c0.6,0,1.1,0,1.6,0c2.6-0.2,5.2-0.5,7.8-0.7
			c2.1-0.2,4.3-0.2,6.4-0.5c1.7-0.2,3.4-0.7,5.1-0.9c4.1-0.5,8.2-1,12.2-2.1c4.7-1.2,9.4-2.5,13.8-4.7c2.4-1.2,4.9-2.4,7.3-3.7
			c0.8-0.4,1.2-1,1.2-2c0-3.8,0.2-7.6,0.1-11.3c-0.1-12-0.4-24-0.5-36c-0.1-7.6-0.1-15.1-0.1-22.7c0-2.1,0.2-4.3,0.1-6.4
			c-0.1-4.7-0.4-9.4-0.5-14.1c-0.1-1.6,0-3.1,0-4.7c-0.1-3.6-0.1-7.2-0.2-10.8c-0.1-2.9,0.5-5.9-0.1-8.8c0-0.2,0.1-0.4,0.2-0.6
			c1,0.1,1.9,0.2,2.8,0.4c0.6,0.2,1.1,0.6,1,1.4c0,0.3,0.1,0.7,0.1,1c0,0.5,0.1,1,0.1,1.5c0,0.3,0,0.6,0,0.9
			c0.1,4.6,0.3,9.2,0.4,13.8c0.1,4.6,0.1,9.2,0.1,13.8c0,1.3,0,1.3,1.2,1.6c1.5,0.3,3.1,0.4,4.6,0.8c2.9,0.7,5.8,1,8.7,1.3
			c4.5,0.6,9,0.5,13.5,0.8c1.5,0.1,7.9-0.6,8.3-0.6c2.6,0,5.2,0,7.7-0.3c4.2-0.5,8.3-1.2,12.4-1.8c1.1-0.2,2.3-0.2,3.4-0.5
			c4.1-0.9,8.2-1.7,12.3-2.7c6.4-1.6,12.8-3.3,19.1-5c3.7-1,7.5-2,11.2-3.1c3.4-1,6.7-2.1,10-3.1c0.8-0.3,1.1-0.8,1.2-1.6
			c1.1-7,3-13.7,6.2-20c2-3.9,3.9-7.8,6.4-11.3c2.1-2.9,4.4-5.7,6.7-8.5c2.6-3.1,5.2-6.2,7.9-9.3c1.4-1.6,2.9-3.2,4.2-4.8
			c0.7-0.8,1.5-1.4,2.8-1.7C2079.6,597.4,2080.1,597.9,2080.5,598.3 M1581.8,460.7c-0.4,0.4-0.7,0.7-0.8,1c-1.4,2.6-3.4,4.8-4.5,7.5
			c-0.5,1.3-1.3,2.5-1.8,3.8c-1,2.4-2.1,4.7-2.9,7.1c-0.9,2.8-1.5,5.8-2.3,8.6c-1.8,6.1-2.3,12.4-2.7,18.6
			c-0.4,6.7-0.2,13.5,0.5,20.2c0.4,3.6,0.9,7.2,1.5,10.7c0.5,2.9,1.1,5.9,1.9,8.8c0.8,2.9,1.8,5.8,2.6,8.7c0.3,1.2,0.6,2.3,0.9,3.5
			c1,3.2,2.6,6,4.1,9c2.1,4.3,4.9,8.1,8,11.8c0.5,0.6,1.1,0.9,1.9,0.9c1.8,0,3.7,0,5.5,0c1.2,0,2.3,0.1,3.5-0.1
			c4.7-0.7,9.2-1.9,13.5-3.9c4.5-2.1,8.9-4.5,13-7.2c6.7-4.4,11.6-10.4,15.2-17.4c0.6-1.2,1.4-2.4,2-3.7c1-2,2-3.9,2.8-5.9
			c0.6-1.3,0.5-1.4-0.7-2.1c-1.3-0.8-2.7-1.6-4-2.5c-4.1-3.1-8.2-6.2-12.2-9.4c-2.8-2.2-5.6-4.5-8.1-6.9
			c-6.4-6.2-12.9-12.4-18.2-19.7c-1.5-2.1-3.3-4.1-4.6-6.4c-2.4-4.1-4.6-8.2-6.7-12.4c-1.8-3.5-3.3-7.3-4.3-11.1
			c-0.9-3.3-1.6-6.6-2.4-9.9C1582.2,461.8,1582,461.4,1581.8,460.7 M1935.8,671.4c-0.1,0.3-0.2,0.5-0.2,0.8
			c-0.1,2.4-0.3,4.7-0.4,7.1c-0.1,2.1,0,4.2-0.1,6.3c-0.2,4.4-0.5,8.8-0.8,13.2c-0.1,3-0.2,6.1-0.3,9.1c-0.1,1.8-0.3,3.7-0.3,5.5
			c-0.1,5.7-0.1,11.3-0.1,17c0,3.6,0.1,7.1,0.4,10.7c0.3,3.5,0,7,0.6,10.5c0.3,1.6,0.1,1.6,1.7,2.1c2,0.6,4.1,0.6,6.2,0.8
			c4.3,0.3,8.5,0.1,12.6-1.3c3-1.1,3.2-1.1,3.2-4.3c0.1-9.8,0-19.5,0.6-29.3c0.4-6.3,0.5-12.7,0.8-19c0.1-2.1,0.6-4.3,0.6-6.4
			c0.2-6.3,1-12.4,2.6-18.5c0.2-0.6,0.2-1.2,0.3-1.8c-4.7-0.2-9.3-0.1-13.8-0.5C1944.9,672.8,1940.4,672,1935.8,671.4 M1687.6,510.5
			c-0.4-0.3-0.6-0.6-0.9-0.8c-3.5-2.6-6.1-6-8.8-9.3c-1.6-2-3.1-4.2-4.5-6.4c-1.5-2.2-3-4.4-4.2-6.8c-3-5.5-5.5-11.2-7.7-17
			c-0.4-1-0.9-2-1.4-3.3c-0.3,0.5-0.5,0.7-0.7,1c-0.8,1.6-1.7,3.1-2.4,4.8c-0.6,1.4-1.3,2.9-1.7,4.4c-0.6,2.3-1,4.7-1.4,7.1
			c-0.7,3.7-1,7.4-1.2,11.1c-0.2,5.6,0.1,11.2,1.3,16.7c0.7,3.2,1.3,6.5,2.8,9.5c0.5,1.1,0.8,1.4,1.9,1.1c2.5-0.7,4.9-1.5,7.3-2.3
			c1.6-0.6,3.1-1.3,4.6-1.9c2.5-1,5.1-1.7,7.6-2.8c2-0.8,4-1.9,5.9-2.9C1685.3,512,1686.6,511.7,1687.6,510.5 M1752.2,398.4
			c0.2-1.5-0.5-3-0.9-4.5c-0.4-1.5-0.9-3-1.4-4.5c-0.6-1.5-1.3-2.9-2-4.3c-0.7-1.4-1.5-2.8-2.4-4c-0.9-1.3-2.1-2.4-3.1-3.5
			c-1.1-1.1-2.2-2.3-3.4-3.3c-1.2-0.9-1.9-2.4-3.4-3c-0.6,2.4-1.2,4.6-1.8,6.7c-0.2,0.6-0.5,1.2-0.6,1.8c-0.4,2.5-0.8,5-1.1,7.5
			c-0.8,7-0.7,13.9,1,20.8c1.5,5.8,4.4,10.8,8.2,15.4c0.1,0.1,0.3,0.2,0.7,0.5c0.2-0.9,0.4-1.7,0.5-2.4c0.3-1.7,0.5-3.4,0.8-5.1
			c0.4-1.8,1-3.5,1.3-5.3c0.4-2.6,1.2-5.1,2.3-7.5c0.6-1.2,1.2-2.5,2.4-3.3C1750.1,399.7,1751.1,399.1,1752.2,398.4 M1847.2,764.5
			c7,0.4,14,0.6,21.1-0.2c-0.1-4.6,0.4-9-1-13.3c-0.9-2.9-1.5-6-2.3-9c-0.4-1.6-1.3-2.9-2.9-3.7c-0.6-0.3-1.2-0.6-1.7-1.1
			c-1.1-1-2.6-0.9-4-1.3c-0.3-0.1-0.6,0-0.9,0.2c-2.2,1.5-4.6,2.6-6,5.1c-1.3,2.4-2.4,4.8-2.7,7.5c-0.3,3.2-0.4,6.5-0.4,9.7
			c0,1.9,0.3,3.8,0.4,5.6C1846.9,764.1,1847,764.2,1847.2,764.5 M1836.6,762.6c0.1-1.6,0.2-2.9,0.3-4.2c0.1-4,0.2-8-0.7-11.9
			c-0.5-2-1-4.1-1.4-6.1c-0.5-2.4-1.3-4.6-3.2-6.3c-1.4-1.3-3.1-2.1-4.8-1.8c-2.2,0.3-4,1.7-5,3.9c-0.5,1.2-1,2.4-1.3,3.7
			c-0.3,1.1-0.8,2.1-0.7,3.3c0.3,3.9,0.6,7.8,0.8,11.7c0.1,2.3,1.3,3.6,3.4,4.2c3.5,1.1,7.1,2.1,10.7,3.2
			C1835.1,762.4,1835.7,762.5,1836.6,762.6 M2094.1,766.4c-0.2-1.5-0.2-2.9-0.5-4.1c-0.9-4.2-1.7-8.4-3.3-12.4
			c-0.5-1.3-1.2-2.6-2-3.7c-1.2-1.5-2.8-2.5-4.8-2.7c-2.2-0.2-4.1,0.9-5.5,2.3c-2.4,2.4-3,5.8-3.5,9c0,0.1,0,0.1,0,0.2
			c0.1,2,0.1,4,0.4,5.9c0.3,2.1,0.9,4.3,1.4,6.5C2082.3,767.1,2088,766.8,2094.1,766.4 M2064.1,766.9c0.1-1.6,0-3.1-0.3-4.5
			c-0.6-2.5-1.2-5.1-1.9-7.6c-0.8-2.9-1.9-5.7-4-8c-1.6-1.8-3.5-2.4-5.8-2.1c-3.7,0.4-5.8,2.9-7.7,5.6c-0.3,0.5-0.3,1-0.1,1.6
			c1.3,4.2,3.1,8.1,5.1,12c0.5,1,1.4,1.6,2.4,1.9c1.6,0.4,3.2,0.7,4.8,0.8c2.1,0.2,4.2,0.3,6.3,0.4
			C2063.2,767.1,2063.5,767,2064.1,766.9"/>
		<path class="st2" d="M1864.9,376.4c-0.1,4.6-1.2,8.8-2.9,12.9c-1,2.2-2.5,4.2-3.8,6.3c-0.2,0.4-0.5,0.8-0.7,1.2
			c-0.9,1.6-2.8,1.9-4,0.6c-2.2-2.5-5-4.4-7.7-6.3c-1.2-0.8-1.2-1.1-0.9-2.5c0.9-3.8,2.7-7.2,4.5-10.7c1.6-3.2,3.6-6.1,6.1-8.6
			c1.2-1.1,2.4-2.2,3.7-3.2c1-0.8,3.1-0.2,3.8,1.1c0.9,1.7,1.8,3.5,1.8,5.6C1864.7,374.1,1864.8,375.3,1864.9,376.4 M1853.9,394.9
			c0.7-1.3,1.2-2.4,1.8-3.6c1.6-3.1,3.3-6.1,4-9.7c0.7-3.7,0.8-7.4,0.5-11.1c-0.1-0.7-0.2-1.3-0.9-1.8c-0.3,0.2-0.8,0.3-1,0.6
			c-1.6,1.6-3.2,3.2-4.4,5c-2.3,3.4-4,7.1-5.7,10.8c-0.6,1.4-0.9,2.9-1.4,4.3C1849.1,391.3,1851.4,393,1853.9,394.9"/>
		<path class="st2" d="M1609.7,622.9c1.9,0.6,4,1.1,6,1.9c1.2,0.5,1.6,1.7,1.9,2.9c0.3,1.4,0.2,2.9-0.4,4.3
			c-0.4,0.8-0.6,1.6-1.1,2.3c-1,1.3-2.1,2.1-3.7,2.5c-1,0.2-2,0.7-2.9,1.1c-0.8,0.3-1.4,0.3-2.2,0c-1.2-0.5-2.4-1-3.3-2
			c-1.1-1.2-1.6-2.6-1.3-4.2c0.3-1.4,0.6-2.9,1.3-4.2c0.9-1.8,2.2-3.4,4.1-4.3C1608.4,623.1,1608.9,623.1,1609.7,622.9 M1612,628.5
			c-0.1-1.3-0.6-1.9-2.1-2.2c-1.4-0.2-2.5,0.3-3.5,1.5c-1.3,1.7-1.5,3.6-1.7,5.5c-0.1,0.7,0.4,1.4,1.2,1.7c0.7,0.3,1.5,0.1,2-0.5
			c1.1-1.3,2.2-2.6,3.2-4C1611.6,630,1611.7,629.2,1612,628.5"/>
		<path class="st2" d="M1794.1,458.3c0,1.6-0.6,2.3-2.3,2.8c-1.2,0.4-2.4,0.6-3.6-0.1c-1.3-0.8-1.9-1.8-1.8-3.4
			c0.2-2.1,2-3.8,3.8-3.6C1791.7,454.2,1794.3,456.2,1794.1,458.3"/>
	</g>
	<g>
		<path class="st13" d="M1268.3,759c0.4,0,0.8,0,1.2,0c3.2,0,6.5,0,9.7-0.1l-10.8-0.1V759z"/>
		<g>
			<path class="st2" d="M2251.1,767.4c-0.7-0.1-1.5,0-2.2,0.1c-1.3,0.2-2.6,0.5-3.9,0.5c-1.4,0-2.7,0-4.1,0c-2.2,0-4.4,0-6.5-0.2
				c-7.5-0.5-15-1.2-22.5-1.7c-8.1-0.5-16.2-0.8-24.4-1c-11.8-0.3-23.6-0.6-35.5-0.9c-6.6-0.1-13.3-0.2-19.9-0.4
				c-11.2-0.4-22.4-1-33.7-1.2c-13.4-0.2-26.9-0.2-40.3-0.1c-11.1,0.1-22.2,0.4-33.2,0.5c-10.8,0.1-21.6,0.1-32.4,0.2
				c-10.2,0.1-536-9.4-546.2-9c-11.5,0.4-23,0.9-34.6,1.4c-11.8,0.5-23.6,0.9-35.4,1.3c-5.6,0.2-11.2,0.2-16.8,0.4
				c-13.4,0.3-26.9,0.6-40.3,0.9c-8,0.2-16,0.4-23.9,0.5c-5.3,0.1-10.7,0.2-16,0.2c-3.2,0-6.5,0.1-9.7,0.1c-0.4,0-0.8,0-1.2,0
				c-1.7-0.1-3.3-0.2-5-0.5c-1.3-0.2-2.4-0.1-3.3,0.7c-1,0.9-1.7,2-2.5,3c-0.6,0.8-0.9,1.7-1.4,2.6c-0.7-0.1-1.2,0-1.5-0.2
				c-5.9-2.6-11.8-2.1-17.7-0.2c-4.5,1.4-9,2.9-13.6,4c-10.2,2.4-20.2,1.8-29.9-2.4c-6.8-2.9-13.8-4.2-21.2-2.9
				c-3.5,0.6-7,1.2-10.5,1.9c-2,0.4-4.1,0.8-6,1.4c-5.3,1.6-10.6,2.8-16.1,3.1c-1.9,0.1-3.8,0.4-5.7,0.6c-5.8,0.5-11.6,0.2-17.1-1.7
				c-5.2-1.8-10.4-3.2-15.7-4.5c-3.4-0.9-6.8-1.3-10.2-1.4v5.8c0.5,0,0.9,0,1.4,0c7,0.3,13.8,1.8,20.2,4.5c6.9,2.9,14,3.7,21.2,3.4
				c8.4-0.4,16.7-2,24.8-4.3c4.5-1.3,9.2-2.2,13.8-2.9c3-0.5,6.2-0.7,9.3-0.3c3.5,0.5,7,1.5,10.2,2.8c5.1,2.2,10.4,3.3,15.8,4.3
				c0.7,0.1,1.5,0.3,2.2,0.2c6-0.3,12.2,0,17.8-2.9c0.4-0.2,0.8-0.3,1.3-0.4c3.8-1,7.7-2.2,11.6-3c3-0.7,6.1-1.3,9.2-0.3
				c2.1,0.7,4.1,1.5,6.4,2.3c0.5,1.9,0.5,3.9,0.4,6c-0.1,1.3-0.8,1.8-2,1.9c-0.6,0-1.2,0-1.8-0.1c-5.4-0.5-10.6-0.1-15.6,2.4
				c-0.8,0.4-1.7,0.6-2.5,0.9c-2.1,0.9-4.3,1-6.5,0.5c-3.2-0.7-6.4-1.3-9.6-1.9c-3.8-0.8-7.6-1.6-11.4-0.9
				c-3.8,0.6-7.5,1.5-11.3,2.3c-2.2,0.4-4.3,0.8-6.5,1.1c-4,0.4-8-0.5-11.8-1.5c-6.4-1.6-12.9-1.7-19.4-1c-4,0.5-7.9,1.2-11.8,1.8
				c-4.8,0.8-9.7,1.1-14.6,0.7c-6.2-0.6-12.3-1.2-18.5-2.5c-5.2-1.1-10.5-1.9-15.7-2.8c-2.1-0.3-4.3-0.4-6.4-0.2v5.4
				c1.8-0.2,3.7-0.1,5.5,0.2c5.4,1,10.7,2,16.1,3c3,0.6,6.1,1.1,9.2,1.5c3.1,0.4,6.2,0.6,9.3,0.8c4.4,0.3,8.9,0.7,13.3-0.1
				c2.9-0.5,5.8-1.1,8.7-1.6c4.7-0.7,9.3-1.6,14.1-1.2c4.4,0.3,8.8,0.9,13.1,2.2c5.7,1.7,11.4,1.3,17-0.5c5-1.6,10.1-2.5,15.3-1.9
				c3.4,0.4,6.7,1.1,10,1.9c8.8,2.1,8.8,2.1,17-1.6c4.5-2,10.8-2.3,16.1-0.7c0.9,2,1,4.2,0.9,6.4c-0.1,2.2,0.8,4.3,0.1,6.4
				c-0.5,0.1-0.8,0.3-1,0.3c-0.9-0.1-1.8-0.2-2.6-0.4c-6.9-1.7-13.7-1.9-20.6-0.3c-2.3,0.6-4.6,1.1-6.8,1.9
				c-6.9,2.4-13.8,2.9-20.9,1.3c-4-0.9-8.1-1.5-12.2-2.1c-9.1-1.2-18-1-26.6,2.7c-0.8,0.3-1.7,0.5-2.5,0.8
				c-4.2,1.5-8.4,1.6-12.7,0.6c-4.6-1-9.3-2-13.9-2.7c-10.9-1.5-21.5-0.8-31.7,3.7c-1.3,0.6-2.8,1.1-4.2,1.2
				c-3.2,0.3-6.4,0.6-9.6-0.1v5.6c5.9,0.7,11.7,0.1,17.6-2.4c10.1-4.2,20.6-4.5,31.3-2c4,1,8.2,1.4,12.2,2.3
				c3.8,0.9,7.2,0.5,10.8-0.9c5.7-2.1,11.4-4.1,17.6-4.2c3.5-0.1,7.1,0,10.6,0.4c3.7,0.4,7.3,0.9,10.9,1.8c6.7,1.7,13.4,2,20.1,0
				c2.5-0.8,5.1-1.5,7.7-2.2c7.9-2.2,15.7-2.1,23.6,0.1c1,0.3,2,0.6,2.9,1.1c1,0.6,1.6,13.8,2.6,14.3c0.1,0,0.2,0.1,0.2,0.1
				c0.9,0.3,2.1,0.1,3.1,0.2c1,0.2,2,0.8,2.9,0.8c4.4-0.2,8.8,0.1,13.2,0c4.4-0.1,8.8,0.2,13.3,0.3c4.3,0.1,8.5,0,12.8,0.1
				c3.7,0.1,7.4,0.4,11.1,0.4c4.9,0,9.7-0.4,14.6-0.5c3.1,0,6.2,0.4,9.2,0.4c6.3,0,12.7-0.2,19-0.2c4,0,8,0.4,11.9,0.3
				c7.4-0.2,14.7-0.7,22.1-0.9c12.1-0.4,24.2,2.3,36.3,1.9c5.8-0.2,11.5-0.6,17.3-0.7c8.7-0.1,533,9.7,541.7,9.7c8,0,16-0.1,23.9,0
				c8.9,0.1,17.7,0.6,26.6,0.7c13.6,0.2,27.2,0.2,40.7,0.2c8.6,0,17.1-0.1,25.7-0.1c6.8,0,13.6-3.3,20.4-3.1
				c3.5,0.1,7.1,0.3,10.6,0.3c2.5,0,5-0.3,7.5-0.3c8,0,16,0.1,23.9,0.1c6.9,0,13.9-0.1,20.8-0.2c6.3-0.1,12.7-0.1,19-0.2
				c0.6,0,1.2,0,1.8,0c5.3,0.2,10.6,0.5,15.9,0.7c5.5,0.2,10.9-0.5,16.4-1.2c3.3-0.4,6.7-0.8,10-1c0.1,0,0.2-0.2,0.5-0.3
				c1-1.6,1.3-3.3,1.4-5.3c0.2-10.6,0.5-33.2,0.8-43.9c0.1-2.7,0.2-5.3,0.2-8c0-0.7-0.2-1.3-0.5-1.8
				C2252.9,767.9,2252.2,767.5,2251.1,767.4z"/>
		</g>
	</g>
</g>
</svg>
