<?xml version="1.0" encoding="utf-8"?>
<!-- Generator: Adobe Illustrator 19.1.0, SVG Export Plug-In . SVG Version: 6.00 Build 0)  -->
<svg version="1.1" id="Calque_1" xmlns="http://www.w3.org/2000/svg" xmlns:xlink="http://www.w3.org/1999/xlink" x="0px" y="0px"
	 viewBox="2731.3 -935.2 366 390" style="enable-background:new 2731.3 -935.2 366 390;" xml:space="preserve">
<style type="text/css">
	.st0{fill:#6F9BBB;}
	.st1{fill:#E46D65;}
	.st2{fill:#1D1D1B;}
	.st3{fill:#FFFFFF;stroke:#E46D65;stroke-width:3;stroke-miterlimit:10;}
	.st4{fill:#6EA2C2;}
	.st5{fill:none;stroke:#E46D65;stroke-width:3;stroke-miterlimit:10;}
	.st6{fill:#C2C2C2;}
	.st7{fill:#F3F6ED;}
	.st8{fill:#EA6C65;}
	.st9{fill:#80BA40;}
	.st10{fill:#B9B8B8;}
	.st11{fill:#1A94C1;}
	.st12{fill:none;stroke:#B9B8B8;stroke-width:3;stroke-miterlimit:10;}
	.st13{fill:none;}
	.st14{fill:#EC6C65;}
	.st15{fill:none;stroke:#EC6C65;stroke-width:4;stroke-miterlimit:10;}
	.st16{fill:#169BC9;}
	.st17{fill:#FFFFFF;}
	.st18{fill:#C0C0C0;}
	.st19{fill:none;stroke:#C0C0C0;stroke-width:3;stroke-miterlimit:10;}
	.st20{fill:none;stroke:#EC6C65;stroke-width:3;stroke-miterlimit:10;}
	.st21{fill:none;stroke:#80BA40;stroke-width:3;stroke-miterlimit:10;}
	.st22{fill:#4D4D4D;}
	.st23{fill:#6DA0C0;}
	.st24{fill:#FFFFFF;stroke:#80BA40;stroke-width:3;stroke-miterlimit:10;}
	.st25{fill:#D9EAC5;}
	.st26{fill:#A6CF7A;}
	.st27{fill:#BFDC9F;}
	.st28{fill:#ECEED2;}
</style>
<g>
	<path class="st4" d="M3002.5-730.8c-3.3-11.2-10.2-20.1-18.5-28.2c-6.9-6.7-13.9-13.4-20.4-20.5c-4.7-5.1-8.5-10.9-10.2-17.8
		c-0.4-1.7-1.2-3.3-1.8-4.9c-1.5,1-2.6,1.9-3.8,2.5c-0.6,0.3-1.5-0.1-2.3-0.1c0.2-0.7,0.2-1.6,0.7-2.2c2.1-2.5,4.6-4.8,6.3-7.5
		c3-4.7,5.8-9.5,8.1-14.5c2-4.5,4.1-9.2,4.6-14c1.2-10.3-0.9-19.9-9.3-27c-5.2-4.4-10.9-7.4-18.1-7.2c-4.1,0.2-8.1,0.6-12,1.8
		c-4.3,1.3-8.7,2.2-13,3.5c-3.4,1.1-6.8,2.2-9.9,3.8c-4.8,2.4-9.5,4.8-13.5,8.5c-5.9,5.3-8.8,11.8-9.3,19.5
		c-0.6,8.6,0.9,16.9,5.3,24.4c1.8,3.1,4.3,5.7,6.3,8.6c2.4,3.7,5.7,5.7,10,6.4c0.7,0.1,1.7,1.2,1.8,1.9c0.1,0.6-0.9,1.5-1.7,1.9
		c-0.6,0.3-1.6,0.4-2.3,0.2c-1.4-0.4-2.3,0.1-3.1,1.2c-1.9,2.6-3.7,5.3-5.8,7.7c-2.9,3.2-6.2,6-9.1,9.3c-5.3,6-12.2,9.5-18.8,13.7
		c-6.1,3.9-12.8,7.1-18.5,11.5c-8.2,6.3-14.4,14.4-17.7,24.4c-2,6-3.1,12.1-1.8,18.9c1-1.1,1.6-1.9,2.2-2.6c1.9-2,3.8-4.1,5.9-5.9
		c7.2-6.2,16.2-8.8,24.7-12.4c5.2-2.2,10.2-4.9,15.3-7.5c0.3-0.2,0.6-0.6,0.8-1c1-2.1,2.1-4.2,2.8-6.5c1.4-4.7,2.6-9.5,3.8-14.3
		c0.3-1.3,2.3-3.3,3.3-3.2c1.3,0.2,2.7,2,2.4,3.3c-1.5,6.5-3,13-4.8,19.3c-1.3,4.4-3.2,8.7-5,12.9c-1.2,2.8-2.7,5.6-4.1,8.3
		c-2.9,5.6-6.3,10.9-8.6,16.7c-2.8,7-5,14.3-7.1,21.6c-1.7,5.9-2.2,12-1.3,18.1c0.9,6,2.7,11.5,6.6,16.3
		c6.8,8.3,15.4,14.1,25.6,17.5c0.7,0.2,1.8,0,2.3-0.5c3.2-3,4.5-3,7.6,0.3c0.4,0.4,1.2,1.1,1.5,1c2.8-1.1,4.6,0.9,6.5,2.2
		c2.6-1.6,6.1-1.6,8.7,0c0.5,0.3,0.8,1,1.3,1.4c0.8,0.6,1.7,1.5,2.7,1.6c2.2,0.2,4.1-0.3,5.1-2.8c0.5-1.3,1.6-2.3,2.6-3.3
		c1.5-1.5,3.1-2.7,5.2-0.8c0.3,0.3,0.9,0.3,1.4,0.3c1.7-0.1,3.4-0.2,5.5-0.3c-0.1,0.2,0,0,0.1-0.2c0.9-2.4,2.6-4.1,5.1-4.8
		c2.2-0.7,3.8,0.4,5.3,2c0.3,0.3,1.5,0.2,2-0.1c1.6-0.9,3-2.2,4.6-3.1c8.7-5.1,14.1-12.7,16.4-22.4c0.9-3.6,1-7.4,1.7-11.1
		c1.2-7,0.2-14-0.9-20.8c-0.9-5.7-2.7-11.4-4.7-16.9c-2.6-7-5.9-13.7-8.8-20.7c-2.4-5.9-5.4-11.8-6.5-18c-1.4-7.4-1.1-15.2-1.3-22.8
		c0-1.3,0.5-2.7,1-3.9c0.2-0.5,1.5-1.1,1.9-0.9c0.9,0.4,1.7,1.3,2.2,2.1c1.8,3.1,0.7,6.5,0.9,9.7c0.4,5.6,0.7,11.3,1.2,16.9
		c0.1,1,1.1,2.1,1.9,2.8c4.8,3.7,10.6,5.1,16.1,7.4c7,2.9,12.8,7.2,17.1,13.4c3.6,5.2,4.2,11.2,3.7,17.3c0,0.5,0,1.1,0,1.7
		c1.4-1.2,2.3-2.5,3.2-3.7c2.4-3.2,3.9-6.8,4.7-10.7C3005.5-718.3,3004.3-724.7,3002.5-730.8z M2931.2-815.2c0.8-2.5,2-4.8,2.8-7.3
		c0.2-0.7,0.1-1.5,0.1-2.3c-0.1-1.1-0.5-2.1-0.4-3.1c0.5-3.5,1-7,2-10.3c1-3.2,2.7-6.2,4.3-9.3c0.8-1.5,1.8-2.9,3-4.1
		c3.6-3.7,8.9-2.6,10.8,2.2c2,4.9,1.6,9.9,0.7,14.8c-1.7,8.8-6.1,16.2-12.5,22.5c-3.4,3.4-8.6,6-13.8,6.3
		C2929.3-809.1,2930.1-812.2,2931.2-815.2z M2927.4-821.4c0.3,0.1,0.7,1.2,0.5,1.8c-0.8,3.2-1.9,6.3-2.7,9.5
		c-0.6,2.4-0.9,4.9-1.4,7.4c-0.2,0.9-0.4,1.8-0.5,2.3c-2.2-7.1-4.4-14.3-6.6-21.6C2920.1-823,2923.8-822.3,2927.4-821.4z
		 M2898.2-809.3c-9.3-6.1-10.6-20.4-6.1-29.7c1.9-3.9,4.6-6.6,8.4-8.4c2.5-1.2,7.9,0.1,9.6,2.3c3,3.8,3.2,8.2,2.9,12.7
		c-0.2,2.3-0.9,4.6-1.6,6.9c-0.7,2.2,0.9,3.5,1.4,5.2c1.6,4.8,3.2,9.6,4.7,14.4c0.2,0.6,0,1.4,0,2.5c-3.8-0.5-7.5-0.4-10.9-1.4
		C2903.7-805.7,2900.9-807.5,2898.2-809.3z M2950.4-713.4c3.4,13.2,5.2,26.6,3.2,40.1c-0.9,6-1.6,12.6-5.8,17.3
		c-7.6,8.7-16.8,14.6-29,14.7c-6.1,0.1-12-0.3-17.7-2.7c-4.4-1.8-7.5-5.3-10.8-8.5c-5.9-5.8-9.1-12.9-11.1-20.7
		c-1.7-6.6-1.9-13.4,0.2-20c2.4-7.3,5.3-14.3,7.8-21.5c2.8-7.7,5.5-15.5,8.2-23.3c1.7-5.1,3.4-10.2,4.8-15.3
		c1.6-5.6,2.8-11.2,4.3-16.8c1.1-4.1,2.5-8.1,3.5-12.2c0.7-3,1-6.2,1.6-9.6c3,0.3,5.7,0.5,8.4,0.8c1.3,0.2,1.8,0.9,2,2.3
		c0.2,1.4,0.6,2.8,1.4,3.9c0.5,0.7,1.8,0.7,2.8,1.1c0.2-0.7,0.5-1.4,0.6-2.1c0.2-1.3,0.1-2.6,0.4-3.8c0.1-0.5,1.1-1.2,1.5-1.1
		c4.1,1,7.8-0.4,11.5-1.7c0.2-0.1,0.4,0,0.8,0.1c0,0.5,0.1,1.1,0,1.6c-1.7,7.8-1.5,15.7-0.6,23.6c0.6,5.2,1.4,10.4,2.4,15.5
		c1.1,5.5,2.6,11,3.9,16.5C2946.7-728,2948.6-720.7,2950.4-713.4z"/>
	<g>
		<path d="M2958.7-732.3c1.5,3.1,2.9,6.3,4.6,9.4c2.9,5.6,6.3,10.9,8.8,16.6c2.1,4.6,3.6,9.5,4.7,14.5c1.3,6.6,2.3,13.3,2.8,20
			c0.5,6.6,0.1,13.3-2.2,19.6c-2.7,7.4-6.2,14.2-12.4,19.4c-3.9,3.3-7.9,6.5-11.9,9.8c-0.4,0.3-1,0.2-1.3,0.5
			c-0.5,0.4-1.2,1-1.2,1.6c-0.5,4.9-3.7,8.1-6.8,11.3c-0.4,0.4-2.2,0.2-2.8-0.3c-1.4-1.2-2-0.9-3,0.5c-1.4,2.1-3.1,3.5-5.9,3
			c-0.6-0.1-1.4,0.7-2.1,1.1c-1.4,0.8-3,2.3-4.3,2.2c-2.1-0.2-3.9-1.8-4.4-4.2c-0.4-2-0.7-4.1-1.1-6.4c-0.7,0-1.6-0.1-2.9-0.2
			c0.3,1.3,0.4,2.3,0.7,3.3c0.7,2.2,0.2,4.1-1.5,5.7c-1.5,1.4-3.1,0.6-4.6,0c-0.5-0.2-1-0.3-1.4-0.6c-1.5-1.3-2.8-1.2-4.4,0
			c-1.6,1.2-3.5,0.4-5-0.7c-1.2-0.8-2.3-1.1-3.8-1.2c-1.8-0.1-3.8-1.5-5.3-2.8c-2.5-2.2-4-5-4.3-8.4c-0.1-0.5-1-1.2-1.7-1.5
			c-3.5-1.2-7.2-2-10.5-3.6c-8.4-4.2-15.3-10.3-20.1-18.3c-3.3-5.5-5.2-11.6-6.4-17.9c-1.1-5.5-0.1-10.9,1.4-16.2
			c1.9-6.5,3.8-12.9,6.1-19.2c2.6-7.1,5.7-14.1,8.6-21c1.1-2.5,2.3-4.9,3.4-7.4c0.2-0.4,0.1-0.8,0.3-1.6c-3,1.1-5.7,2.1-8.4,3.2
			c-5.9,2.5-11.9,4.9-17.7,7.7c-5.2,2.5-9.3,6.6-12.9,11c-1.4,1.7-2.2,3.8-3.1,5.8c-0.8,1.9-2.9,2.5-4.2,1c-0.8-0.9-1.5-2-1.8-3.1
			c-1.9-8.5-2.5-16.8,0.5-25.4c4.4-12.5,12.2-22,23.1-29.1c7.8-5.1,16.3-9.3,23.9-14.6c5.5-3.8,10.4-8.6,15.3-13.3
			c3.1-3,5.6-6.6,8.5-9.9c1-1.2,1.2-1.9,0-3.2c-5.6-6.3-11-12.9-13.8-20.9c-3.3-9.2-4.3-18.7-1.3-28.1c1-3.3,2.7-6.4,5-9.3
			c3.2-4,6.6-7.7,11-10.1c4.7-2.5,9-5.7,14.4-6.8c3.6-0.8,7-2.7,10.6-3.5c6.8-1.4,13.5-3.9,20.7-3.4c3.8,0.3,7.4,1,10.7,2.7
			c5.4,2.9,10.4,6.4,14.1,11.3c3.2,4.3,4.6,9.4,6,14.5c2.6,9.4-0.1,17.9-3.9,26.2c-2.6,5.7-6.2,10.9-8.9,16.5
			c-0.8,1.7-0.4,4.2,0.1,6.2c2.1,7.6,5.7,14.3,11.2,20c4,4.2,8.2,8.3,12.3,12.5c5.1,5.1,10.5,9.9,15.1,15.3
			c6,7.1,10.5,15.2,12.5,24.4c1.4,6.3,2.5,12.7,0.5,19.2c-1.2,4.1-3.5,7.5-5.8,10.9c-1.7,2.4-3.4,4.7-6.3,6
			c-0.8,0.3-1.4,1.2-1.9,1.9c-0.8,1.1-1.7,1.7-2.9,1.1c-1.3-0.6-2.1-1.7-1.4-3.1c2.2-4.8,1.3-9.9,1.4-14.9c0.1-5.8-2.7-10.3-7.2-14
			c-5.1-4.2-11-6.5-17-8.9c-2.6-1-5.2-2.3-7.8-3.5C2959.2-732.6,2958.9-732.4,2958.7-732.3z M2824.4-704.9c1-1.1,1.6-1.9,2.2-2.6
			c1.9-2,3.8-4.1,5.9-5.9c7.2-6.2,16.2-8.8,24.7-12.4c5.2-2.2,10.2-4.9,15.3-7.5c0.3-0.2,0.6-0.6,0.8-1c1-2.1,2.1-4.2,2.8-6.5
			c1.4-4.7,2.6-9.5,3.8-14.3c0.3-1.3,2.3-3.3,3.3-3.2c1.3,0.2,2.7,2,2.4,3.3c-1.5,6.5-3,13-4.8,19.3c-1.3,4.4-3.2,8.7-5,12.9
			c-1.2,2.8-2.7,5.6-4.1,8.3c-2.9,5.6-6.3,10.9-8.6,16.7c-2.8,7-5,14.3-7.1,21.6c-1.7,5.9-2.2,12-1.3,18.1c0.9,6,2.7,11.5,6.6,16.3
			c6.8,8.3,15.4,14.1,25.6,17.5c0.7,0.2,1.8,0,2.3-0.5c3.2-3,4.5-3,7.6,0.3c0.4,0.4,1.2,1.1,1.5,1c2.8-1.1,4.6,0.9,6.5,2.2
			c2.6-1.6,6.1-1.6,8.7,0c0.5,0.3,0.8,1,1.3,1.4c0.8,0.6,1.7,1.5,2.7,1.6c2.2,0.2,4.1-0.3,5.1-2.8c0.5-1.3,1.6-2.3,2.6-3.3
			c1.5-1.5,3.1-2.7,5.2-0.8c0.3,0.3,0.9,0.3,1.4,0.3c1.7-0.1,3.4-0.2,5.5-0.3c-0.1,0.2,0,0,0.1-0.2c0.9-2.4,2.6-4.1,5.1-4.8
			c2.2-0.7,3.8,0.4,5.3,2c0.3,0.3,1.5,0.2,2-0.1c1.6-0.9,3-2.2,4.6-3.1c8.7-5.1,14.1-12.7,16.4-22.4c0.9-3.6,1-7.4,1.7-11.1
			c1.2-7,0.2-14-0.9-20.8c-0.9-5.7-2.7-11.4-4.7-16.9c-2.6-7-5.9-13.7-8.8-20.7c-2.4-5.9-5.4-11.8-6.5-18
			c-1.4-7.4-1.1-15.2-1.3-22.8c0-1.3,0.5-2.7,1-3.9c0.2-0.5,1.5-1.1,1.9-0.9c0.9,0.4,1.7,1.3,2.2,2.1c1.8,3.1,0.7,6.5,0.9,9.7
			c0.4,5.6,0.7,11.3,1.2,16.9c0.1,1,1.1,2.1,1.9,2.8c4.8,3.7,10.6,5.1,16,7.4c7,2.9,12.8,7.2,17.1,13.4c3.6,5.2,4.2,11.2,3.7,17.3
			c0,0.5,0,1.1,0,1.7c1.4-1.2,2.3-2.5,3.2-3.7c2.4-3.2,3.9-6.8,4.7-10.7c1.3-6.5,0.1-12.8-1.7-18.9c-3.3-11.2-10.2-20.1-18.5-28.2
			c-6.9-6.7-13.9-13.4-20.4-20.5c-4.7-5.1-8.5-10.9-10.2-17.8c-0.4-1.7-1.2-3.3-1.8-4.9c-1.5,1-2.6,1.9-3.8,2.5
			c-0.6,0.3-1.5-0.1-2.3-0.1c0.2-0.7,0.2-1.6,0.7-2.2c2.1-2.5,4.6-4.8,6.3-7.5c3-4.7,5.8-9.5,8.1-14.5c2-4.5,4.1-9.2,4.6-14
			c1.2-10.3-0.9-19.9-9.3-27c-5.2-4.4-10.9-7.4-18.1-7.2c-4.1,0.2-8.1,0.6-12,1.8c-4.3,1.3-8.7,2.2-13,3.5c-3.4,1.1-6.8,2.2-9.9,3.8
			c-4.8,2.4-9.5,4.8-13.5,8.5c-5.9,5.3-8.8,11.8-9.3,19.5c-0.6,8.6,0.9,16.9,5.3,24.4c1.8,3.1,4.3,5.7,6.3,8.6
			c2.4,3.7,5.7,5.7,10,6.4c0.7,0.1,1.7,1.2,1.8,1.9c0.1,0.6-0.9,1.5-1.7,1.9c-0.6,0.3-1.6,0.4-2.3,0.2c-1.4-0.4-2.3,0.1-3.1,1.2
			c-1.9,2.6-3.7,5.3-5.8,7.7c-2.9,3.2-6.2,6-9.1,9.3c-5.3,6-12.2,9.5-18.8,13.7c-6.1,3.9-12.8,7.1-18.5,11.5
			c-8.2,6.3-14.4,14.4-17.7,24.4C2824.2-717.8,2823.1-711.7,2824.4-704.9z M2939.6-621.6c0.1,2.1,0.2,3.7,0.4,5.4
			c0.1,0.6,0.5,1.3,1,1.7c0.2,0.2,1.2-0.4,1.5-0.8c1-1.4,1.9-2.9,2.8-4.3c1.5-2.4,1.3-3.8-1-6C2942.7-624.3,2941-622.9,2939.6-621.6
			z M2931.8-611.2c0.3,0.1,0.6,0.1,0.8,0.2c2.5-1.5,3.3-4,3.3-6.8c0-1-0.4-2.7-1-2.9c-1.5-0.4-2.6,0.8-2.7,2.3
			C2931.9-616,2931.9-613.6,2931.8-611.2z M2909.6-616.9c-1.4,1.7-0.1,7.6,2.3,8.3c0.5,0.2,1.9-0.5,1.9-0.7c-0.1-1.6,0-3.4-0.8-4.8
			C2912.3-615.2,2910.7-615.9,2909.6-616.9z M2901.2-618.1c-1.4,1.9-0.9,7.4,0.8,8.7c1.1,0.8,1.9,0.2,2.3-0.9
			C2905.2-612.7,2903.6-616.5,2901.2-618.1z M2927.4-618c-2.6,3.2-2.6,6.8-2,10.5C2928.8-610.4,2928-614.2,2927.4-618z
			 M2895.2-611.8c0.7-2.6,0.1-8.2-0.9-9.5C2891.5-617.6,2891.8-613.4,2895.2-611.8z"/>
		<path d="M2918.8-795.8c0-0.4,0.1-0.7,0.1-0.9c-0.2-3.2-0.2-3.2-3.3-2.6c-4,0.7-7.8-0.2-11.2-2c-3.5-1.8-6.9-4-10.1-6.3
			c-1.6-1.1-2.9-2.8-3.9-4.5c-5.2-8.9-6.6-18.1-2.8-28c1.8-4.6,4.7-8.4,8.9-10.9c3.8-2.3,8-1.6,11.9,0.3c4.6,2.3,6.8,6.3,7.9,11.1
			c0.9,3.7,1.4,7.3,0.7,11.1c-0.2,1.2,0.3,1.7,1.5,1.7c2.6,0.1,5.2,0.3,7.7,0.5c1.7,0.2,2.5-0.4,2.8-2.1c0.8-4.3,1.5-8.7,2.8-12.8
			c1.9-6,4.9-11.6,9.7-16c3.3-3.1,7.5-2.9,12.1,1.4c4.2,4,5.6,8.9,5.8,14.3c0.4,11.2-3.3,21-10.6,29.6c-3.8,4.5-8.1,8.3-13.7,10.2
			c-1.5,0.5-3.2,0.5-4.8,0.6c-1.5,0.1-2.6,0.3-2.4,2.2c0,0.3,0,0.6-0.1,0.9c-0.5,3.6-0.5,3.6,3.1,2.9c3.5-0.8,7.1-1.7,10.6-2.6
			c3.2-0.8,3.9,1.4,3,3.7c-1.8,4.8-1.7,9.8-2.1,14.8c-0.4,6.3,0.6,12.5,1.3,18.7c0.6,5.4,2,10.7,3.2,16c1.4,5.9,3,11.8,4.5,17.7
			c2,8.3,4.1,16.5,5.9,24.9c2.1,9.3,2.5,18.7,1.3,28.1c-0.7,5.5-2.1,11.2-4.6,16.2c-2.7,5.5-7.3,9.8-12.2,13.7
			c-6.2,5-13.5,6.3-21.1,7c-8,0.7-15.8-0.5-22.9-4.4c-3.7-2-6.9-5-10-7.9c-4.2-3.9-7.8-8.5-10-13.8c-2-4.8-3.4-9.9-4.3-15
			c-1.6-9.3,1.1-18.2,4.3-26.8c4.2-11,8.4-22,12.6-33.1c1.6-4.4,3.3-8.7,4.5-13.2c1.7-6,3-12.1,4.5-18.1c1-3.8,2.2-7.6,3.2-11.4
			c1.1-4.5,2.2-9.1,3.1-13.6c0.3-1.5,0.7-2,2.4-1.8C2911.6-796,2915.1-796,2918.8-795.8z M2909.7-792.1c-0.6,3.5-0.9,6.6-1.6,9.6
			c-1,4.1-2.4,8.1-3.5,12.2c-1.5,5.6-2.8,11.3-4.3,16.8c-1.5,5.2-3.1,10.3-4.8,15.3c-2.7,7.8-5.4,15.5-8.2,23.3
			c-2.6,7.2-5.5,14.3-7.8,21.5c-2.1,6.6-1.9,13.3-0.2,20c2,7.8,5.2,14.9,11.1,20.7c3.3,3.2,6.4,6.7,10.8,8.5
			c5.7,2.4,11.6,2.8,17.7,2.7c12.2-0.1,21.4-6,29-14.7c4.2-4.8,4.9-11.3,5.8-17.3c2-13.5,0.2-26.9-3.2-40.1
			c-1.9-7.3-3.7-14.6-5.5-21.9c-1.4-5.5-2.8-11-3.9-16.5c-1-5.1-1.8-10.3-2.4-15.5c-0.8-7.9-1.1-15.8,0.6-23.6c0.1-0.5,0-1.1,0-1.6
			c-0.4-0.1-0.6-0.2-0.8-0.1c-3.7,1.3-7.4,2.7-11.5,1.7c-0.4-0.1-1.4,0.6-1.5,1.1c-0.3,1.2-0.3,2.6-0.4,3.8
			c-0.1,0.7-0.4,1.4-0.6,2.1c-1-0.3-2.3-0.4-2.8-1.1c-0.8-1.1-1.3-2.6-1.4-3.9c-0.2-1.4-0.7-2.2-2-2.3
			C2915.4-791.5,2912.7-791.8,2909.7-792.1z M2917.6-803.4c0-1.1,0.2-1.9,0-2.5c-1.5-4.8-3.1-9.6-4.7-14.4c-0.6-1.7-2.2-3-1.4-5.2
			c0.8-2.2,1.5-4.6,1.6-6.9c0.3-4.5,0.1-8.9-2.9-12.7c-1.7-2.2-7.1-3.5-9.6-2.3c-3.8,1.8-6.5,4.5-8.4,8.4
			c-4.4,9.2-3.2,23.5,6.1,29.7c2.7,1.7,5.5,3.5,8.5,4.4C2910.1-803.9,2913.8-803.9,2917.6-803.4z M2928.3-805.8
			c5.2-0.2,10.4-2.9,13.8-6.3c6.4-6.3,10.8-13.7,12.5-22.5c0.9-4.9,1.3-10-0.7-14.8c-2-4.8-7.2-5.9-10.9-2.2c-1.2,1.2-2.2,2.6-3,4.1
			c-1.6,3-3.3,6-4.3,9.3c-1.1,3.3-1.5,6.8-2,10.3c-0.2,1,0.3,2.1,0.4,3.1c0.1,0.8,0.2,1.6-0.1,2.3c-0.9,2.5-2,4.8-2.8,7.3
			C2930.1-812.2,2929.3-809.1,2928.3-805.8z M2923.3-800.5c0.1-0.6,0.4-1.5,0.5-2.3c0.5-2.5,0.8-4.9,1.4-7.4
			c0.8-3.2,1.9-6.3,2.7-9.5c0.1-0.5-0.2-1.7-0.5-1.8c-3.6-0.8-7.3-1.6-10.7-0.6C2918.9-814.8,2921.1-807.6,2923.3-800.5z"/>
		<path d="M2898.3-838.4c2.1,0,4.9,2.2,4.8,3.8c0,2-2.4,4.7-4.1,4.7c-1.8,0-3.4-2.1-3.4-4.5C2895.6-836.6,2896.8-838.4,2898.3-838.4
			z"/>
		<path d="M2951.1-837.4c0,1.9-2,4.1-3.7,4.1c-1.8,0-3.3-1.9-3.2-4.1c0.1-2.1,1.4-3.7,3.1-3.7
			C2949.3-841.1,2951.2-839.3,2951.1-837.4z"/>
	</g>
</g>
</svg>
