<?xml version="1.0" encoding="utf-8"?>
<!-- Generator: Adobe Illustrator 19.1.0, SVG Export Plug-In . SVG Version: 6.00 Build 0)  -->
<svg version="1.1" id="Calque_1" xmlns="http://www.w3.org/2000/svg" xmlns:xlink="http://www.w3.org/1999/xlink" x="0px" y="0px"
	 viewBox="3125.7 -497.9 366.4 390.3" style="enable-background:new 3125.7 -497.9 366.4 390.3;" xml:space="preserve">
<style type="text/css">
	.st0{fill:#6F9BBB;}
	.st1{fill:#E46D65;}
	.st2{fill:#1D1D1B;}
	.st3{fill:#FFFFFF;stroke:#E46D65;stroke-width:3;stroke-miterlimit:10;}
	.st4{fill:#6EA2C2;}
	.st5{fill:none;stroke:#E46D65;stroke-width:3;stroke-miterlimit:10;}
	.st6{fill:#C2C2C2;}
	.st7{fill:#F3F6ED;}
	.st8{fill:#EA6C65;}
	.st9{fill:#80BA40;}
	.st10{fill:#B9B8B8;}
	.st11{fill:#1A94C1;}
	.st12{fill:none;stroke:#B9B8B8;stroke-width:3;stroke-miterlimit:10;}
	.st13{fill:none;}
	.st14{fill:#EC6C65;}
	.st15{fill:none;stroke:#EC6C65;stroke-width:4;stroke-miterlimit:10;}
	.st16{fill:#169BC9;}
	.st17{fill:#FFFFFF;}
	.st18{fill:#C0C0C0;}
	.st19{fill:none;stroke:#C0C0C0;stroke-width:3;stroke-miterlimit:10;}
	.st20{fill:none;stroke:#EC6C65;stroke-width:3;stroke-miterlimit:10;}
	.st21{fill:none;stroke:#80BA40;stroke-width:3;stroke-miterlimit:10;}
	.st22{fill:#4D4D4D;}
	.st23{fill:#6DA0C0;}
	.st24{fill:#FFFFFF;stroke:#80BA40;stroke-width:3;stroke-miterlimit:10;}
	.st25{fill:#D9EAC5;}
	.st26{fill:#A6CF7A;}
	.st27{fill:#BFDC9F;}
</style>
<g>
	<path class="st9" d="M3489.3-422.1c0.1-4.5,0.5-9,0.6-13.4c0.7-15.4,1.4-30.9,2-46.4c0.1-3.9,0.6-7.9-0.4-11.7
		c-8.3-0.4-16.1-0.9-23.9-1.2c-14.1-0.5-28.3-0.8-42.4-1.4c-7.3-0.3-14.6-1.4-21.9-1.5c-10.1-0.2-20.3-0.1-30.4,0.2
		c-15.3,0.5-30.5,1.2-45.8,1.9c-19.9,0.8-39.9,1.8-59.8,2.3c-13.3,0.3-26.6-0.1-39.9-0.4c-14.6-0.4-29.2-1.3-43.8-1.8
		c-9.3-0.3-18.6-0.5-27.9-0.7c-6.4-0.1-12.6,0.8-18.7,2.5c-7.5,2-7.7,2.3-8,10c-0.1,1.5-0.2,3-0.3,4.5c-0.4,7-0.9,13.9-1.2,20.9
		c-0.5,11-0.4,22-1.2,32.9c-0.9,11-0.6,21.9,0,32.9c0.6,10.8,0.9,21.6,1.2,32.4c0.3,9.5,0.6,18.9,0.8,28.4c0.1,5.5,0.2,11,0,16.5
		c-0.5,15.8-1.3,31.5-1.5,47.3c-0.3,15.5-0.3,30.9,0.1,46.4c0.3,10.6,2,21.2,2.5,31.8c1,21.8,1.5,43.5,2.2,65.3c0.1,3.1,0,6.2,0,9.6
		c6.7-0.3,12.5-0.6,18.2-0.8c9-0.3,17.9-0.3,26.8,1.3c2.8,0.5,5.6,0.6,8.4,0.8c9.9,0.4,19.9,0.3,29.8,1.1c10.3,0.8,20.5,1.4,30.8,0
		c2-0.3,4,0,5.9-0.2c8.7-0.7,17.4-1.9,26.1-2.2c7.4-0.3,14.9,0.4,22.4,0.6c16.1,0.3,32.2,0.8,48.3,0.9c15.3,0.1,30.4,1.6,45.6,3.6
		c9.4,1.2,18.9,2.4,28.3,2.4c18.6,0.1,37.3-0.5,55.9-0.8c1.2,0,2.3-0.1,3.5-0.3c4-0.7,6.9-3.7,7.4-7.6c0.4-3.3,0.8-6.6,1-9.9
		c0.7-14.4,1.6-28.8,1.2-43.3c-0.6-18.1-0.8-36.2-1.1-54.4c-0.2-7.3-0.4-14.6-0.6-21.9c-0.2-9.8-0.3-19.6-0.3-29.4
		c0-10.3-0.3-20.6,0.1-30.9c0.7-18.3,1.9-36.5,2.6-54.8c0.6-17.1,0.2-34.3-2.4-51.3C3488.9-415.4,3489.2-418.8,3489.3-422.1z
		 M3416-201.5l-6.7,21l-22.9,20.3l-25.3,6.2l-52.4-6.2l-23.4-7.2l-6.2-7.8l38.5,1.2h22.7l12.9-2.9l17.8-10.5l9.3-9.8l3.6-14.2
		l-3.6-13.4l-13.5-14.5l-9.9-8.8l-6.6,1.4l-15.1,9.5l-13.9-1l-12.2-5.3l3.8-7.2l0.2-5.7l-0.5-4.8l10.7,3.6l4-3.3l4.5-7.4l4.3-4.1
		l-3.1-4.5l-28.9-23.1l-18.2-21.3l-6.2-13.8l-9,7.6l-11.7,6.2l-18-1.7l-13-5.5l7.9-4.5l1.7-6.6l-4.5-8.8l7.8,5.2l11.5,1.4l11.7-7.9
		l-1.7-5.2l-12.4-13.8l-20.6-14.4l-22-14l-4.4-12.7l-2.8-6l2.3-5.9l4.9-3.5l7.9-0.3l7.9-2.1l8.3-1l8.1,1.7l20.2,20.7l30.5,21.7
		l23.9,14.8l31,26.5l28.9,31.3l31,46.8l11.4,25.5V-201.5z"/>
	<g>
		<path d="M3206.8-403c2.5,2,4.9,4.2,7.7,5.9c5.9,3.5,11.9,6.6,17.9,9.9c7.1,4,13.6,8.8,19.6,14.4c5.8,5.4,11.3,11,17,16.3
			c0.6,0.6,2.1,0.3,3.1,0.4c2,0.1,4.1,0,6.1,0.4c1.8,0.3,2.6,1.6,2,3.6c-0.7,2.1-1.9,1.3-3.3,0.8c-3.3-1.1-6.4,0.1-9.2,1.8
			c-3.2,1.9-6.3,4-9.2,6.4c-5.1,4.2-10.7,4.4-16.7,2.6c-0.6-0.2-1.1-0.3-1.7-0.5c-0.4-0.1-0.8-0.2-1.4,0.1c0.7,0.5,1.3,1.1,2,1.6
			c1.4,0.9,1.7,2.3,0.7,3.3c-0.5,0.6-2.1,0.7-2.9,0.4c-3.2-1.4-6.3-3.1-9.5-4.8c-0.8-0.4-1.7-1-2-1.7c-0.3-0.9-0.1-2.1,0.2-3
			c0.1-0.3,1.5-0.4,2.2-0.2c1.6,0.5,3.2,1.3,5,1.5c-1.1-0.8-2.2-1.5-3.2-2.4c-0.7-0.7-1.6-1.5-1.8-2.4c-0.4-2.2,1-3.2,3-2.2
			c2.8,1.5,5.4,3.2,8.2,4.6c4.1,2,8.5,2.4,12.7,0.9c2.4-0.8,4.4-2.7,6.4-4.4c0.5-0.4,0.5-2.3,0-2.9c-6.3-8.2-13.7-15.1-23.1-19.9
			c-5.9-3-11.3-7.1-17.1-10.4c-5.7-3.3-10.5-7.6-14.9-12.3c-1.2-1.3-1.4-3.5-2.1-5.2c-0.3-0.7-0.3-1.5-0.5-2.3
			c-0.3-1.6-0.5-3.2-0.9-4.7c-0.2-0.7-0.3-1.6-0.8-2.1c-3.9-4-2.5-9.9,0.1-13.1c3.3-4.2,7.6-6.3,13.1-5.4c3.3,0.5,6.3-0.2,9.5-1.5
			c6.9-2.8,14.3-3,20,3.1c9.3,9.9,19.8,18.4,30.3,26.9c11.9,9.7,24.7,17.9,37.9,25.8c4.1,2.4,7.5,5.9,11.5,8.4
			c7.3,4.7,13.5,10.6,19.9,16.4c10.8,9.8,20.1,21,29.7,32c6.7,7.8,12.6,16.1,18,24.8c4.6,7.4,9.4,14.7,13.6,22.4
			c3.6,6.6,7,13.4,9.4,20.5c3.2,9,4.7,18.4,5.4,28c0.5,7.2,0.5,14.3-1,21.4c-0.9,4.4-1.3,8.9-2.1,13.4c-1.5,8.1-6,14.2-12.7,19
			c-7.4,5.3-15,10.2-23.6,13.1c-5.4,1.8-11.2,2.6-16.9,3.4c-16.9,2.4-33.3-1.4-49.7-4.6c-6.4-1.2-12.8-2.7-19-4.6
			c-10.9-3.4-22-6.4-32.3-11.7c-6.4-3.3-12.9-6.6-19.1-10.4c-2.3-1.4-4.6-3.4-5.4-6.3c0.2-0.3,0.4-0.6,0.6-0.9
			c2.6,1,5.3,1.9,7.9,2.9c6.1,2.4,12.1,5.5,18.4,7.3c5.1,1.4,10.6,1.5,15.9,2c2.9,0.3,5.9,0.2,8.9,0.2c9,0.2,17.9,0.5,26.9,0.5
			c7.6,0,15.3-0.1,22.9-0.8c3.1-0.3,6-2.4,9.1-3.3c10.9-3.2,19.6-9.8,27.6-17.4c2.1-2,3.5-5.2,4.2-8.1c1.5-5.4,0.3-10.6-2.8-15.5
			c-4.2-6.6-10.2-11.3-15.6-16.6c-1.9-1.8-4-3.4-5.9-5.2c-1.6-1.5-3.1-2.1-4.9-0.4c-2.6,2.4-5.2,4.7-7.8,7.1
			c-5.1,4.6-11.1,4.6-17.2,2.8c-4.6-1.3-9.1-2.8-13.6-4.6c-2.2-0.9-4.2-2.5-6.3-3.9c-1.7-1.1-1.2-2.5-0.5-3.9
			c0.9-1.7,2.1-0.7,3.2-0.3c4.3,1.7,8.5,3.7,12.8,5.2c4.5,1.5,9.2,2.9,13.9,0.6c1.3-0.7,2.4-1.9,3.6-2.9c3.1-2.8,6.1-5.7,9.3-8.4
			c2.4-2.1,5.4-2.3,8.4-2.1c5,0.4,9.7,2,14,4.5c1.9,1.1,3.1,3.4,2.2,4.6c-0.7,0.9-2.1,1.4-3.3,2.1c1.7,1.5,3.4,3,5,4.5
			c7.7,7.1,12.5,15.9,12.9,26.4c0.2,4-1.2,8.3-2.6,12.2c-3.2,9-10.5,14.5-18,19.6c-5.3,3.6-11.1,5.5-17.3,6.8
			c-3.9,0.8-7.7,1.7-11.6,2.2c-3,0.4-6.1,0.4-9.1,0.4c-5.8-0.1-11.7-0.3-17.5-0.5c-8.5-0.3-16.9-0.6-25.4-0.9
			c-0.2,0-0.4,0.2-1.1,0.5c0.8,0.4,1.3,0.8,1.8,0.9c14.6,5,29.5,9.2,44.9,11.1c9.4,1.2,19.1,0.9,28.6,1.1c3.9,0.1,7.9-0.4,11.8-0.6
			c6.7-0.4,12.5-3,17.5-7.4c4.8-4.3,9.8-8.4,14.3-13.1c4.6-4.9,7.5-10.8,8.6-17.5c1.5-9.4,1.5-18.8,0.6-28.3
			c-1-9.3-2.9-18.3-6.6-26.8c-2.4-5.7-5-11.4-8.2-16.8c-3.7-6.3-8.1-12.2-12.2-18.3c-2-3.1-3.8-6.4-5.9-9.5
			c-1.5-2.2-3.1-4.4-4.8-6.5c-3-3.8-6-7.5-9-11.2c-4.5-5.4-8.7-11.1-13.5-16.2c-6.2-6.6-12.8-13-19.4-19.2
			c-3.8-3.5-8.1-6.4-12.2-9.6c-10.3-8-21.8-14.1-32.6-21.2c-5.1-3.4-10-7.2-14.8-11c-6-4.6-12-9.2-17.7-14.1c-4.8-4.1-9-8.8-13.7-13
			c-3.7-3.3-6.7-7.9-12.5-7.9c-2.1,0-4.6,0-6.1,1.2c-3.9,3-8.1,2.4-12.3,2c-3.7-0.3-8.3,2.5-9.5,6.1c-0.5,1.5-0.2,2.7,0.9,3.8
			c3.9,4,8.1,7.4,14,8.1c6.5,0.7,11.7,4.4,16.9,7.8c8.3,5.4,16.4,11.2,24.5,16.9c0.6,0.4,1.2,1.3,1.3,2c0.1,0.8-0.3,1.8-0.9,2.3
			c-0.4,0.4-1.6,0.3-2.1,0c-2.8-1.9-5.4-3.9-8.2-5.8c-5.4-3.6-11-7.2-16.4-10.8c-1.9-1.3-3.7-2.8-5.7-3.8c-3.3-1.6-6.8-2.9-10.3-4
			c-2.7-0.9-5.6-1.3-8.4-1.9C3207.2-403.1,3207-403,3206.8-403z"/>
		<path d="M3286.1-329.5c2.1,2.9,4,5.8,6.3,8.5c3.9,4.7,7.9,9.4,12.2,13.8c5.8,6,11.6,12,17.8,17.6c4.6,4.1,9.9,7.5,14.9,11.3
			c1.4,1.1,2.7,0.7,4.1,0c4.7-2.5,9.2-1.4,13.6,0.9c0.7,0.4,1.3,1.1,1.6,1.8c0.6,1.3,0.3,2.4-1.4,2.3c-1.1-0.1-2.2-0.2-3.1-0.7
			c-5.8-2.7-10.4-0.2-14.9,3.3c-4.6,3.5-6.8,8.8-10.6,12.9c-2,2.2-4.1,2.9-6.9,1.7c-1-0.4-2.1-0.8-3.4-0.8c1.1,0.7,2.3,1.2,3.1,2.1
			c0.8,0.8,1.2,2.1,1.8,3.1c-1,0.3-2,0.6-3,0.9c-0.4,0.1-0.8-0.1-1.9-0.2c1.7,1,2.9,1.7,4,2.5c0.7,0.6,1,1.5,1.5,2.3
			c-0.8,0.3-1.8,1.1-2.5,0.9c-3.8-1.3-7.5-2.7-11.2-4.3c-1.6-0.7-3.1-1.6-4.3-2.8c-0.7-0.7-0.7-2.2-1-3.4c1,0,2-0.2,2.9,0
			c1,0.2,2,0.8,3.3,0.7c-0.6-0.4-1.2-0.9-1.7-1.4c-0.7-0.6-1.6-1.1-1.8-1.9c-0.3-0.9-0.4-2.4,0.1-3c0.5-0.6,1.9-0.4,3.2-0.7
			c-0.7-0.7-1.5-1.4-2.3-2.1c-0.3-0.3-0.8-0.4-1-0.7c-1-1.2-2.7-2.4-1.5-3.9c0.4-0.5,2.7,0,3.9,0.6c4.2,2.1,8.3,4.5,12.6,6.6
			c2.8,1.4,4,0.9,5.7-1.7c1.5-2.2,3.1-4.3,4.6-6.5c0.9-1.3,0.4-2.2-0.7-3.1c-7.1-5.6-14.4-11-21-17c-7.5-6.8-14.2-14.5-19.9-23
			c-3.1-4.7-6.8-9-10.3-13.3c-0.5-0.6-2.2-0.9-2.9-0.5c-1.8,1-3.6,2.2-4.8,3.7c-3.1,4.1-7.7,5-12.2,5.4c-7.4,0.7-14.6-1.5-21.7-3.3
			c-1.7-0.4-3.2-1.6-4.8-2.5c-2.6-1.4-5.2-2.8-7.8-4.2c-0.4-0.2-0.9-0.4-1-0.7c-0.3-1.1-0.4-2.3-0.6-3.4c0.9-0.1,1.9-0.5,2.6-0.2
			c6.3,1.8,12.5,3.8,18.7,5.6c2.1,0.6,4.3,1,6.5,1.5c6.5,1.3,11.9-1,16.7-5.2c4-3.5,7.8-7.2,13-9c5-1.8,9.3-0.4,13.2,2.4
			c0.7,0.5,1.2,2.3,0.9,3.2c-0.6,1.7-1.8,3.3-2.9,4.8c-0.2,0.3-1.2,0.4-1.8,0.2c-1.2-0.4-2.3-1.1-3.5-1.6
			C3286.3-329.7,3286.2-329.6,3286.1-329.5z"/>
		<path d="M3237.6-330.4c-4-1.8-7.5-3.2-10.9-5c-1-0.5-1.4-2.2-1.8-3.4c-0.1-0.2,1.4-1.3,1.8-1.2c4.2,1.7,8.3,3.6,12.3,5.6
			c0.8,0.4,1.1,1.7,1.6,2.6C3239.5-331.2,3238.4-330.7,3237.6-330.4z"/>
		<path d="M3233.3-411.2c-3.8-0.8-5.2-3.5-3.2-6.4c1-1.4,4.9-2.1,6.7-1.2c2.2,1.1,2.9,2.9,2.1,5.1
			C3238-411.6,3235.9-410.6,3233.3-411.2z"/>
		<path d="M3213-415.4c-1.2,0.8-2,1.4-2.9,2c-0.4-0.8-1.4-1.8-1.1-2.3c0.4-1,1.5-1.7,2.3-2.5C3211.8-417.5,3212.3-416.7,3213-415.4z
			"/>
	</g>
</g>
</svg>
