<?xml version="1.0" encoding="utf-8"?>
<!-- Generator: Adobe Illustrator 19.1.0, SVG Export Plug-In . SVG Version: 6.00 Build 0)  -->
<svg version="1.1" id="Calque_1" xmlns="http://www.w3.org/2000/svg" xmlns:xlink="http://www.w3.org/1999/xlink" x="0px" y="0px"
	 viewBox="3143.1 -935.2 366 390" style="enable-background:new 3143.1 -935.2 366 390;" xml:space="preserve">
<style type="text/css">
	.st0{fill:#6F9BBB;}
	.st1{fill:#E46D65;}
	.st2{fill:#1D1D1B;}
	.st3{fill:#FFFFFF;stroke:#E46D65;stroke-width:3;stroke-miterlimit:10;}
	.st4{fill:#6EA2C2;}
	.st5{fill:none;stroke:#E46D65;stroke-width:3;stroke-miterlimit:10;}
	.st6{fill:#C2C2C2;}
	.st7{fill:#F3F6ED;}
	.st8{fill:#EA6C65;}
	.st9{fill:#80BA40;}
	.st10{fill:#B9B8B8;}
	.st11{fill:#1A94C1;}
	.st12{fill:none;stroke:#B9B8B8;stroke-width:3;stroke-miterlimit:10;}
	.st13{fill:none;}
	.st14{fill:#EC6C65;}
	.st15{fill:none;stroke:#EC6C65;stroke-width:4;stroke-miterlimit:10;}
	.st16{fill:#169BC9;}
	.st17{fill:#FFFFFF;}
	.st18{fill:#C0C0C0;}
	.st19{fill:none;stroke:#C0C0C0;stroke-width:3;stroke-miterlimit:10;}
	.st20{fill:none;stroke:#EC6C65;stroke-width:3;stroke-miterlimit:10;}
	.st21{fill:none;stroke:#80BA40;stroke-width:3;stroke-miterlimit:10;}
	.st22{fill:#4D4D4D;}
	.st23{fill:#6DA0C0;}
	.st24{fill:#FFFFFF;stroke:#80BA40;stroke-width:3;stroke-miterlimit:10;}
	.st25{fill:#D9EAC5;}
	.st26{fill:#A6CF7A;}
	.st27{fill:#BFDC9F;}
	.st28{fill:#ECEED2;}
</style>
<g>
	<path class="st9" d="M3238-631c-2-1.1-3.4-1.9-4.9-2.5c-4.7-1.9-7.4-5.6-9.6-10c-3.1-6-3.7-12.3-3.3-18.7c0.2-3.6,0.8-7.1,1.7-10.6
		c1.1-4-0.3-7.3-2.4-10.3c-2.3-3.3-3.4-6.7-2.2-10.7c0.8-2.7,1.5-5.4,2.1-8.2c1-4.5,0.8-8.6-3.2-11.9c-2.3-1.9-1.7-5.1,1-6.5
		c0.4-0.2,1.1,0,1.6,0.1c3.5,0.9,6.1-1.3,5.3-4.9c-1.5-6.5-1.2-13.2-1.1-19.7c0-5.3,0.1-10.9,2.8-15.9c1.5-2.8,3.7-4.2,6.5-4.8
		c3.3-0.7,6.6-4.2,6.6-7.5c0-2.4-0.3-4.9-0.9-7.3c-1.4-5.4-0.7-10.3,2.6-14.7c0.7-1,2.6-1.1,3.9-1.7c1.2-0.6,2.9-1.1,3.4-2.1
		c2.3-4.3,4.5-8.7,6.2-13.3c1.3-3.3,1.7-7,2.5-10.5c0.5-2,1.8-3.1,4-3.1c1,0,2,0,3,0.1c6.9,0.4,13.4-3.7,15.7-10.3
		c0.9-2.7,1.2-5.5,2.1-8.2c0.5-1.4,1.6-2.8,2.9-3.6c1.2-0.8,2.9-1.2,4.4-1.4c4.1-0.6,6.7-3.1,8.9-6.3c3.5-5.2,7-10.5,10.3-15.9
		c2-3.2,4.4-3.2,7-1.8c1.5,0.9,3.2,1.6,4.8,2.4c2.1,1,4.3,1,6.6,0.4c5.9-1.5,11.2-4,16.3-7.4c3.5-2.3,7.7-2.7,11.9-2.1
		c3.3,0.5,6.4,1.6,9.7,1.9c4.1,0.4,8.1,0.9,12.1,1.7c2.4,0.5,5.1-0.5,7.6-0.7c0.6-0.1,1.4,0.1,1.9,0.4c5.7,2.6,5.8,8.6,8.4,13.2
		c3.6,6.4,6.9,13.1,14.6,16.1c4.4,1.7,8.8,4.1,11.6,8.3c1,1.5,1.7,3.3,2.1,5c0.8,4,1.4,8,1.9,12.1c0.4,3.2,1.4,6.1,3.4,8.5
		c3.7,4.5,4.5,9.8,5.2,15.3c1.1,8-0.7,15.7-2.4,23.4c-1.1,4.9-1.4,10-2,15.1c-0.1,0.5,0.7,1.6,1.2,1.7c5,1.3,7.8,6.7,7.5,11.4
		c-0.5,8.8-4.5,16.1-9.4,23.1c-0.4,0.6-0.8,1.2-1.2,1.8c-1,1.5-2.3,2.9-0.1,4.6c0.7,0.5,0.8,2,0.8,3c-0.2,5.9-2.3,10.8-7,14.6
		c-3.4,2.8-6.2,6.2-9.4,9.2c-2.5,2.3-5.3,4.3-7.7,6.6c-2,2-4.1,4.1-5.4,6.5c-0.5,0.9,0.3,3.3,1.3,4.3c3.3,3.3,2.3,6.9,1,10.3
		c-1.4,3.6-4.1,6.5-6.9,9.3c-4.3,4.4-9.9,6.6-14.9,9.9c-4,2.6-8,5.3-12.2,7.6c-3,1.7-6.3,2.9-9.4,4.4c-2.4,1.2-4.7,2.5-7.1,3.8
		c-0.6,0.3-1.2,0.9-1.4,1.5c-1,2.6-1.8,5.4-2.7,8c-0.3,1-0.7,2-1.3,2.9c-3.4,4.9-8,8.1-14,9.2c-5.4,1-10.7,2.4-16.1,3.3
		c-3.6,0.6-7.3,0.5-11,0.8c-7.2,0.5-14.3,1.4-21.5,1.4c-6.4,0.1-12.7-0.9-18.9-2.9c-5.2-1.6-9.4-4.6-13.4-8c-1-0.9-1.5-0.4-2.3,0.2
		c-2.9,2.3-5.8,4.7-8.9,6.8c-1,0.7-2.5,0.8-3.8,1.2c-0.3,0.1-0.8-0.1-1,0.1c-3.4,2.8-6.2,0.3-8.9-1.1c-2.7-1.5-4.9-3.8-7.3-5.8
		c-0.9-0.8-2-1.8-0.1-2.8c0.1-0.1,0.2-0.2,0.3-0.3c1.5-5.8,7-7.7,11.1-10.9C3231.5-626.2,3234.6-628.4,3238-631z"/>
	<path d="M3238-631c-2-1.1-3.4-1.9-4.9-2.5c-4.7-1.9-7.4-5.6-9.6-10c-3.1-6-3.7-12.3-3.3-18.7c0.2-3.6,0.8-7.1,1.7-10.6
		c1.1-4-0.3-7.3-2.4-10.3c-2.3-3.3-3.4-6.7-2.2-10.7c0.8-2.7,1.5-5.4,2.1-8.2c1-4.5,0.8-8.6-3.2-11.9c-2.3-1.9-1.7-5.1,1-6.5
		c0.4-0.2,1.1,0,1.6,0.1c3.5,0.9,6.1-1.3,5.3-4.9c-1.5-6.5-1.2-13.2-1.1-19.7c0-5.3,0.1-10.9,2.8-15.9c1.5-2.8,3.7-4.2,6.5-4.8
		c3.3-0.7,6.6-4.2,6.6-7.5c0-2.4-0.3-4.9-0.9-7.3c-1.4-5.4-0.7-10.3,2.6-14.7c0.7-1,2.6-1.1,3.9-1.7c1.2-0.6,2.9-1.1,3.4-2.1
		c2.3-4.3,4.5-8.7,6.2-13.3c1.3-3.3,1.7-7,2.5-10.5c0.5-2,1.8-3.1,4-3.1c1,0,2,0,3,0.1c6.9,0.4,13.4-3.7,15.7-10.3
		c0.9-2.7,1.2-5.5,2.1-8.2c0.5-1.4,1.6-2.8,2.9-3.6c1.2-0.8,2.9-1.2,4.4-1.4c4.1-0.6,6.7-3.1,8.9-6.3c3.5-5.2,7-10.5,10.3-15.9
		c2-3.2,4.4-3.2,7-1.8c1.5,0.9,3.2,1.6,4.8,2.4c2.1,1,4.3,1,6.6,0.4c5.9-1.5,11.2-4,16.3-7.4c3.5-2.3,7.7-2.7,11.9-2.1
		c3.3,0.5,6.4,1.6,9.7,1.9c4.1,0.4,8.1,0.9,12.1,1.7c2.4,0.5,5.1-0.5,7.6-0.7c0.6-0.1,1.4,0.1,1.9,0.4c5.7,2.6,5.8,8.6,8.4,13.2
		c3.6,6.4,6.9,13.1,14.6,16.1c4.4,1.7,8.8,4.1,11.6,8.3c1,1.5,1.7,3.3,2.1,5c0.8,4,1.4,8,1.9,12.1c0.4,3.2,1.4,6.1,3.4,8.5
		c3.7,4.5,4.5,9.8,5.2,15.3c1.1,8-0.7,15.7-2.4,23.4c-1.1,4.9-1.4,10-2,15.1c-0.1,0.5,0.7,1.6,1.2,1.7c5,1.3,7.8,6.7,7.5,11.4
		c-0.5,8.8-4.5,16.1-9.4,23.1c-0.4,0.6-0.8,1.2-1.2,1.8c-1,1.5-2.3,2.9-0.1,4.6c0.7,0.5,0.8,2,0.8,3c-0.2,5.9-2.3,10.8-7,14.6
		c-3.4,2.8-6.2,6.2-9.4,9.2c-2.5,2.3-5.3,4.3-7.7,6.6c-2,2-4.1,4.1-5.4,6.5c-0.5,0.9,0.3,3.3,1.3,4.3c3.3,3.3,2.3,6.9,1,10.3
		c-1.4,3.6-4.1,6.5-6.9,9.3c-4.3,4.4-9.9,6.6-14.9,9.9c-4,2.6-8,5.3-12.2,7.6c-3,1.7-6.3,2.9-9.4,4.4c-2.4,1.2-4.7,2.5-7.1,3.8
		c-0.6,0.3-1.2,0.9-1.4,1.5c-1,2.6-1.8,5.4-2.7,8c-0.3,1-0.7,2-1.3,2.9c-3.4,4.9-8,8.1-14,9.2c-5.4,1-10.7,2.4-16.1,3.3
		c-3.6,0.6-7.3,0.5-11,0.8c-7.2,0.5-14.3,1.4-21.5,1.4c-6.4,0.1-12.7-0.9-18.9-2.9c-5.2-1.6-9.4-4.6-13.4-8c-1-0.9-1.5-0.4-2.3,0.2
		c-2.9,2.3-5.8,4.7-8.9,6.8c-1,0.7-2.5,0.8-3.8,1.2c-0.3,0.1-0.8-0.1-1,0.1c-3.4,2.8-6.2,0.3-8.9-1.1c-2.7-1.5-4.9-3.8-7.3-5.8
		c-0.9-0.8-2-1.8-0.1-2.8c0.1-0.1,0.2-0.2,0.3-0.3c1.5-5.8,7-7.7,11.1-10.9C3231.5-626.2,3234.6-628.4,3238-631z M3423.1-807.1
		c-0.6,3.6-0.6,3.6-3.1,6c-1,0.9-2.2,1.6-3.1,2.6c-6.2,6.7-14.4,10.4-22.2,14.6c-8.9,4.8-18.9,6.6-28.5,9.3
		c-6.3,1.8-12.9,2.9-19.3,4.3c-2.6,0.6-5.3,1.9-7.5,0.1c-4.1,6.5-8.3,12.8-12,19.3c-5.4,9.4-10.4,19.1-15.6,28.6
		c-1.4,2.6-1.1,3.2,1.9,3.1c8.2-0.3,16.3-0.6,24.4-2.2c9.4-1.8,19-3.2,28-6.5c8.5-3.1,17-6.3,25.4-9.7c3.3-1.3,6.3-3.2,9.4-4.8
		c6-3.2,11.9-6.6,17-11.4c2.2-2.1,2.3-3.8,2.4-6.5c0.4-5.6,1.4-11.2,2.8-16.6c2-7.5,2.7-15.2,2.9-22.8
		C3426.2-802.2,3425.5-804.9,3423.1-807.1z M3419.9-723.7C3420-723.7,3420-723.7,3419.9-723.7c0.7-1.1,1.4-2.1,2-3.3
		c3.8-6.7,7-13.6,7.8-21.4c0.1-1.5,0.5-3-1.2-3.9c-2.2-1.1-4.5-1-6.1,0.4c-3.7,3.1-6.8,6.5-11.2,8.9c-7.3,3.9-14.2,8.5-22,11.6
		c-6.6,2.6-13.3,5.2-20,7.6c-14.2,5-28.8,8-43.8,8.7c-5.1,0.3-10.1-0.1-15.2,0c-0.9,0-2.2,0.6-2.6,1.4c-1.6,2.7-3,5.5-4.2,8.3
		c-1.8,4.1-3.5,8.2-5,12.4c-0.7,1.9-1.1,3.9-1.4,6c-0.2,1.1,0.2,1.8,1.7,1.8c3.8-0.1,7.6,0.1,11.4,0c7.3-0.2,14.5-0.6,21.8-0.9
		c6.8-0.3,13.7-0.7,20.5-0.9c6.2-0.1,12.4,0.1,18.6-0.1c4.7-0.1,9.5-0.2,14.1-1c3-0.5,5.8-2,8.8-3c0.6-0.2,1.5-0.4,2.1-0.2
		c3.5,1.3,6.7,0.1,9-2.1c3.9-3.7,7.3-7.9,10.8-12c1.8-2,1.8-3.7,0.1-6c-1.1-1.6-1.5-3.2-0.4-4.9
		C3416.8-718.8,3418.4-721.3,3419.9-723.7z M3244.3-791.2c-2.2,2.1-3.3,4.4-3,6.7c0.2,2.2,0.6,4.4,1.1,6.5c2,7.1-0.7,16.1-9.8,16.9
		c-0.8,0.1-1.9,0.7-2.2,1.4c-1,1.8-2.1,3.7-2.4,5.6c-1.5,8.2-1,16.6-0.6,24.9c0.2,3.8,2,7.5-0.5,11.2c4.7,1.1,9,2.1,13.3,3.2
		c2.2,0.6,4.4,1.2,6.4,2.1c3.5,1.6,6.9,3.3,10.3,5.2c2,1.1,4.1,2.2,5.4,4c4.6,6,8.8,12.3,13.2,18.4c1.2,1.7,2.6,3.3,4,5
		c0.6-0.7,1-1,1.4-1.5c3.1-4.3,6.2-8.7,9.2-13.1c1.8-2.6,1.7-2.9-0.6-5.1c-2.2-2.1-4.5-4.1-6.6-6.4c-5.8-6.4-9.6-14.1-12.8-22.1
		c-2.7-6.9-4.3-14.2-6.9-21.1c-3.8-10.2-7.9-20.3-12.3-30.3C3249.4-783.8,3246.7-787.4,3244.3-791.2z M3259.9-817.5
		c-0.3,1.4-0.5,2.3-0.7,3.3c-1.2,5-2.9,9.9-5.7,14.3c-1.5,2.4-3.2,4.6-4.7,7c-0.4,0.6-0.5,1.7-0.2,2.2c4.4,5.8,7.5,12.3,10.2,19
		c2.8,7.2,5.8,14.2,8.4,21.5c2.6,7.2,4.4,14.7,7.2,21.9c2.4,6.5,5.6,12.7,10.2,18c2.6,2.9,5.5,5.5,8.2,8.3c1.2,1.3,2,1.1,2.8-0.2
		c3.3-5.8,6.7-11.6,10-17.4c0.6-1,0.5-1.8-0.2-2.9c-2.8-4.2-5.5-8.6-8.3-12.8c-3.8-5.9-5-12.7-6.8-19.3c-2.1-7.7-3.4-15.5-5.3-23.3
		c-1.2-4.7-2.3-9.5-4.4-13.8c-2.7-5.6-6.3-10.7-9.6-16C3268.3-812,3264.2-814.6,3259.9-817.5z M3341.1-773.9
		c1.7-0.3,2.8-0.4,3.9-0.6c8.2-1.9,16.4-3.8,24.6-5.7c7.4-1.8,14.9-3.5,21.8-6.8c9.4-4.4,18.4-9.7,25.8-17.2c0.9-0.9,1.7-1.9,2.1-3
		c1.1-2.7,0.5-5.4-0.2-8.1c-0.4-1.6-0.5-3.3-0.5-5c-0.2-4.9-0.2-9.8-2.6-14.3c-0.8-1.5-2.6-3.5-3.9-3.4c-1.7,0.1-3.1-0.3-4.4-1
		c-1,1.5-1.7,2.9-2.8,3.9c-2.2,2.1-4.6,4-6.9,5.9c-2.5,2-4.9,4.1-7.5,5.9c-5.8,4.2-12.4,6.9-19,9.6c-3.4,1.4-6.9,2.4-10.5,3.1
		c-1.5,0.3-2.1,0.7-2.7,1.9c-2.2,4.8-4.5,9.7-6.8,14.4C3348.2-787.5,3344.7-780.9,3341.1-773.9z M3317.1-741.5
		c0.5-0.9,0.9-1.4,1.2-2c1.8-3.2,3.5-6.5,5.4-9.7c3.4-5.8,6.9-11.6,10.3-17.4c0.6-1,0.7-1.8,0-3c-2.5-4.3-4.8-8.6-6.7-13.2
		c-1.7-4.2-2.7-8.7-4.1-13.1c-4.8-15.3-6.3-31.1-7.5-47c-0.5-6.7-0.9-13.4-1.4-20c-0.1-0.8-0.6-1.5-1-2.2c-0.8,0.4-1.7,0.8-2.5,1.3
		c-0.3,0.2-0.4,0.6-0.6,0.9c-3.1,5-6.3,10-9.4,14.9c-2.1,3.3-4.9,5.8-8.7,7c-1.1,0.4-2.4,0.4-3.5,0.7c-3,0.9-3.1,1.2-1.5,3.9
		c1.6,2.7,3.5,5.4,4.6,8.3c2.6,6.9,4.9,13.9,7,21c1.8,6.4,3,13,4.7,19.4c3.5,13.2,7.2,26.4,10.8,39.7
		C3315.1-748.6,3316.1-745.3,3317.1-741.5z M3396-685.4c-2.6-1.2-5.1-0.9-7.3,0.4c-4.8,2.9-10.1,2.7-15.4,2.6
		c-5.7-0.1-11.4-0.3-17.1-0.2c-4.1,0.1-8.1,0.6-12.2,0.8c-3.9,0.2-7.8,0.2-11.6,0.3c-8.2,0.3-16.3,0.6-24.5,0.9
		c-3.6,0.1-7.2,0.2-10.8,0.3c-1.4,0-2.2,0.7-2.8,2.1c-2.1,4.8-4.5,9.5-6.6,14.3c-0.7,1.6-1.2,3.3-1.8,5.1c2.1,0.2,3.9,0.3,5.7,0.5
		c5.9,0.7,11.7,2,17.6,2.2c9.6,0.4,19.3,0.7,28.9,0.1c9.4-0.5,18.7-2.4,28.1-3.2c7.4-0.7,14.5-2.4,21.5-5c1.4-0.5,2.7-1.1,3.7-1.6
		c-1.1-3-2.2-5.4-2.9-8c-0.6-2.3-0.2-4.3,2-6C3392.7-681.2,3394.2-683.4,3396-685.4z M3318.1-866.7c0,0.8,0.1,1.4,0.1,2.1
		c0.4,5.9,0.8,11.8,1.3,17.7c0.6,6.6,1.3,13.1,2,19.7c1.2,11.5,4,22.6,7.7,33.5c1.6,4.7,3.4,9.2,5.2,13.8c0.5,1.3,1.5,2.5,2.5,4.1
		c1.9-3.4,3.5-6.2,5-9.1c1.5-3,2.9-6,4.4-9c1.5-3,3.2-6,4.7-9.1c0.3-0.6,0.4-1.6,0.2-2.2c-1.2-3.3-2.7-6.5-3.8-9.8
		c-2.1-6.1-3.2-12.3-3.4-18.7c-0.2-5.9-0.1-11.8,0.9-17.7c1.1-6.4,1.4-12.9,2-19.4c0.1-1.1,0.2-2.3,0.3-3.9c-2.3,1.2-4.2,2.1-6,3.1
		C3334-867.7,3327-863.6,3318.1-866.7z M3271.5-636.9c2.1,0.7,4.3,1.3,6.5,2.1c3.6,1.4,7,3.3,10.7,4.2c4.9,1.2,10,2,15,2.6
		c7.5,0.9,15,1.7,22.5,0.5c5.7-1,11.6-0.8,16.6-4.5c3.3-2.4,7.3-3.8,10.9-5.9c7.4-4.4,14.8-8.8,22-13.4c2.9-1.8,5.5-4,8.1-5.9
		c-2.8,0.5-5.7,1.1-8.6,1.5c-10,1.4-20,2.6-29.9,4c-9.1,1.3-18.3,1.1-27.5,0.9c-4.5-0.1-9-0.3-13.5-0.8c-6.2-0.6-12.3-1.4-18.5-2.1
		c-1.9-0.2-3.2,0.5-4.4,2.3C3278.3-646.7,3274.9-642,3271.5-636.9z M3307.7-725c0.6-0.5,0.8-0.6,1-0.9c2-3.6,4.1-7.1,6.1-10.8
		c0.3-0.5,0-1.4-0.2-2c-0.7-2.2-1.7-4.3-2.3-6.5c-1.9-6.6-3.7-13.2-5.5-19.8c-2.4-9-4.9-18-7.2-27c-3.1-12.6-5.8-25.3-10.5-37.5
		c-1.1-2.9-2.8-5.5-4.3-8.2c-3.9,11.2-10.3,17.8-23.1,16.2c0.8,0.8,1.1,1.2,1.5,1.5c2.2,1.8,4.7,3.3,6.6,5.3
		c5.9,6.2,10.2,13.6,14,21.1c4.2,8.4,5.8,17.7,7.8,26.8c1.7,7.9,3.5,15.7,5.9,23.4c1.2,3.9,3.8,7.4,5.8,11
		C3304.6-729.8,3306.2-727.5,3307.7-725z M3220.1-714.9c2,2.6,4.4,5.2,4,8.8c-0.4,3.8-1,7.6-1.8,11.3c-0.8,3.4-1.8,6.7,0.4,9.9
		c1,1.4,1.9,2.8,2.7,4.3c0.6,1.3,1.4,1.7,2.8,1.7c5.7,0.2,11.2,1.2,16,4.8c1.1,0.8,2.6,1.1,3.9,1.6c2.2,0.9,4.4,1.6,6.4,2.7
		c3.6,1.9,7.1,4.1,10.7,6.2c1.1,0.6,1.9,0.6,2.8-0.5c2.8-3.8,5.7-7.4,8.4-11.2c0.4-0.6,0.4-1.8,0.2-2.5c-0.4-1-1.2-1.9-1.9-2.8
		c-4.2-5.9-8.3-11.8-12.6-17.6c-1.4-1.8-3.1-3.4-5-4.7c-2.8-1.8-5.8-3.4-8.8-4.8c-2.2-1.1-4.5-2.1-6.9-2.6
		C3234.2-711.9,3227.2-713.3,3220.1-714.9z M3336.2-624.7c-1.2,0.2-1.8,0.3-2.4,0.3c-4.1,0.5-8.2,1.3-12.3,1.4
		c-4.9,0.1-9.9-0.6-14.8-0.9c-8.7-0.6-17.1-1.8-25.1-5.7c-3.7-1.8-8-2.4-12-3.5c-1.6-0.4-2.7,0.1-3.6,1.5c-1.5,2.1-3.1,4.3-4.9,6.2
		c-2.2,2.4-3.8,5.5-7.2,6.8c-0.4,0.1-0.8,1.5-0.6,1.8c1.4,1.9,2.8,4.2,4.7,5.2c3.9,2,8,3.6,12.2,4.8c3.7,1,7.6,1.8,11.5,1.8
		c9,0,17.9-1.1,26.5-3.5c7-1.9,13.8-4.3,20.7-6.5C3333.4-616.4,3334.9-620.1,3336.2-624.7z M3263.7-658.7c-5-3.1-9.6-6.2-14.5-9
		c-1.8-1-3.9-1.4-5.8-2.2c-1-0.4-1.7-1.2-2.6-1.8c-3.9-2.7-8.4-2.3-12.7-2.5c-0.5,0-1.2,0.9-1.4,1.5c-2.1,5.2-2.2,10.6-2.2,16.1
		c0,5.6,2,10.6,4.6,15.4c2.5,4.5,7.2,5.7,11.6,7.3c0.4,0.1,1.1-0.2,1.4-0.6c1.4-1.3,2.8-2.6,4.1-4c4.1-4.4,8.1-8.9,12.1-13.4
		C3260.2-654.2,3261.9-656.5,3263.7-658.7z M3353-809.6c0.3,0,0.6,0,0.9-0.1c0.3-0.6,0.6-1.2,0.9-1.9c1.7-4,3.3-8,5.2-11.9
		c3.2-6.9,6.5-13.7,9.9-20.5c0.9-1.9,0.8-3.4,0.2-5.3c-0.6-1.6-0.8-3.3-1-5.1c-0.2-2.1,0.1-4.4-0.4-6.4c-0.6-2.9-2-5.6-2.6-8.5
		c-0.5-2.4-0.5-4.7-4-4.8c-3-0.1-6.1-0.9-9.1-1.5c-1.6-0.3-1.9,0.6-2.1,1.9c-0.7,7.4-1.4,14.8-2.2,22.1c-0.4,3.6-1.2,7.1-1.2,10.7
		c0,6.7,0.1,13.4,1.7,20C3350.2-816.9,3351.7-813.2,3353-809.6z M3404.3-841.2c-0.4-0.4-0.6-0.9-1-1c-2.9-1.6-5.2-3.9-6.9-6.7
		c-0.2-0.4-1.1-0.5-1.6-0.4c-5.4,1.3-10.7,2.7-16,4.1c-0.7,0.2-1.4,0.1-2,0.3c-0.6,0.2-1.5,0.4-1.7,0.9c-0.9,1.6-1.4,3.4-2.2,5.1
		c-2.5,5.1-5.2,10.1-7.7,15.2c-1.3,2.8-2.2,5.7-3.5,9C3378.4-820.3,3393.1-827.8,3404.3-841.2z M3292.1-688.1
		c-0.1-0.1-0.3-0.1-0.4-0.2c-2.6,3.5-5,7.1-7.7,10.6c-1.7,2.2-2.8,4.8-5.1,6.9c-3.7,3.3-6.4,7.7-9.4,11.8
		c-7,9.6-14.7,18.6-23.4,26.7c-5.1,4.7-11,8.6-16.6,12.8c-2.2,1.7-4.5,3.2-6.7,4.9c-1.2,0.9-1.2,2.3,0,2.9c1.8,1,3.6,2,5.4,2.9
		c0.5,0.2,1.3,0.2,1.7,0c1.9-1.3,3.9-2.6,5.7-4.1c8-6.3,14.7-13.9,21.3-21.7c3.5-4.2,7-8.4,10.4-12.6c3.5-4.4,7.3-8.8,10.3-13.6
		c3.8-6.1,7-12.5,10.4-18.8C3289.6-682.2,3290.8-685.2,3292.1-688.1z M3393.4-853.2c-3-5.2-5.7-10-8.6-15c-2.4,6-4.8,12.1-7.3,18.3
		C3383-851.1,3388-852.1,3393.4-853.2z M3368.1-873.5c1.3,4.2,2.6,7.5,3.4,11c0.8,3.4,1.2,7,1.9,10.8c2.6-6.7,5.1-13.1,7.6-19.4
		c-2.1-0.3-4.2-0.6-6.2-0.9C3372.7-872.4,3370.7-872.9,3368.1-873.5z"/>
</g>
</svg>
