<?xml version="1.0" encoding="utf-8"?>
<!-- Generator: Adobe Illustrator 19.1.0, SVG Export Plug-In . SVG Version: 6.00 Build 0)  -->
<svg version="1.1" id="Calque_1" xmlns="http://www.w3.org/2000/svg" xmlns:xlink="http://www.w3.org/1999/xlink" x="0px" y="0px"
	 viewBox="1090.9 -196.2 1164.5 485.2" style="enable-background:new 1090.9 -196.2 1164.5 485.2;" xml:space="preserve">
<style type="text/css">
	.st0{fill:#6F9BBB;}
	.st1{fill:#E46D65;}
	.st2{fill:#1D1D1B;}
	.st3{fill:#FFFFFF;stroke:#E46D65;stroke-width:3;stroke-miterlimit:10;}
	.st4{fill:#6EA2C2;}
	.st5{fill:none;stroke:#E46D65;stroke-width:3;stroke-miterlimit:10;}
	.st6{fill:#C2C2C2;}
	.st7{fill:#F3F6ED;}
	.st8{fill:#EA6C65;}
	.st9{fill:#80BA40;}
	.st10{fill:#B9B8B8;}
	.st11{fill:#1A94C1;}
	.st12{fill:none;stroke:#B9B8B8;stroke-width:3;stroke-miterlimit:10;}
	.st13{fill:none;}
	.st14{fill:#EC6C65;}
	.st15{fill:none;stroke:#EC6C65;stroke-width:4;stroke-miterlimit:10;}
	.st16{fill:#169BC9;}
	.st17{fill:#FFFFFF;}
	.st18{fill:#C0C0C0;}
	.st19{fill:none;stroke:#C0C0C0;stroke-width:3;stroke-miterlimit:10;}
	.st20{fill:none;stroke:#EC6C65;stroke-width:3;stroke-miterlimit:10;}
	.st21{fill:none;stroke:#80BA40;stroke-width:3;stroke-miterlimit:10;}
	.st22{fill:#4D4D4D;}
	.st23{fill:#6DA0C0;}
	.st24{fill:#FFFFFF;stroke:#80BA40;stroke-width:3;stroke-miterlimit:10;}
	.st25{fill:#D9EAC5;}
	.st26{fill:#A6CF7A;}
	.st27{fill:#BFDC9F;}
	.st28{fill:#ECEED2;}
</style>
<g>
	<g>
		<path class="st1" d="M1097.4,235.1c5.3,0.8,10.5,1.7,15.7,2.8c6.1,1.2,12.3,1.9,18.5,2.5c4.9,0.4,9.7,0.2,14.6-0.7
			c3.9-0.7,7.9-1.4,11.8-1.8c6.5-0.8,13-0.7,19.4,1c3.9,1,7.8,1.9,11.8,1.5c2.2-0.2,4.4-0.6,6.5-1.1c3.8-0.7,7.5-1.7,11.3-2.3
			c3.9-0.6,7.7,0.2,11.4,0.9c3.2,0.6,6.4,1.2,9.6,1.9c2.2,0.5,4.4,0.3,6.5-0.5c0.8-0.3,1.7-0.5,2.5-0.9c4.9-2.5,10.2-2.8,15.6-2.4
			c0.6,0,1.2,0.1,1.8,0.1c1.3,0,1.9-0.6,2-1.9c0.2-2.1,0.2-4.1-0.4-6c-2.2-0.8-4.3-1.6-6.4-2.3c-3.1-1-6.2-0.4-9.2,0.3
			c-3.9,0.9-7.7,2-11.6,3c-0.4,0.1-0.9,0.2-1.3,0.4c-5.6,2.9-11.7,2.5-17.8,2.9c-0.7,0-1.5-0.1-2.2-0.2c-5.4-1-10.7-2.1-15.8-4.3
			c-3.2-1.4-6.7-2.4-10.2-2.8c-3-0.4-6.2-0.1-9.3,0.3c-4.7,0.7-9.3,1.6-13.8,2.9c-8.1,2.3-16.4,3.9-24.8,4.3
			c-7.3,0.4-14.3-0.5-21.2-3.4c-6.4-2.7-13.2-4.2-20.2-4.5c-0.5,0-0.9,0-1.4,0v10.1C1093.1,234.6,1095.2,234.7,1097.4,235.1z"/>
		<g>
			<path class="st1" d="M2253.2,175.3c-1.5,0.8-3.4,0.8-5.3,0.6c-1.6-0.2-4.1-0.4-5.7-0.7c-0.4-0.1-0.8-0.1-1.2-0.2
				c-8.8-1.2-21.1-2.3-29.9-2c-2.3,0.1-4.7-0.2-7.1-0.4c-4.8-0.4-9.4-0.4-14,0.7c-7.1,1.7-14.4,1.5-21.7,0.1
				c-4-0.8-7.9-1.8-11.8-2.8c-5.2-1.3-10.6-2.4-16.4-2.7c-3.6-0.2-7.1,0-10.6,0.5c-5.5,0.7-11.1,1.4-16.7,2.1
				c-3.1,0.4-6.3,0.6-9.4,0.5l-2.6,0.4l-3.2-0.6c-2.5-0.2-5-0.5-7.4-1c-3.4-0.6-6.8-1.2-10.2-1.8c-7.4-1.3-15-1.3-22.7-1.5
				c-1.2,0-2.4,0.2-3.5,0.3c-3.6,0.6-7.3,1.2-10.9,1.7c-6.4,1-12.6,0.8-19-0.2c-6.2-1-12.5-1.7-18.9-2.4c-6.7-0.7-13.3-0.2-19.6,1.1
				c-5.3,1.1-10.6,1.7-16,1.9l-1.4,0.4l-2-0.3c-4.9-0.1-9.9-0.5-14.9-1.5c-10.1-1.9-20.2-1.8-30.3-0.1c-2,0.3-3.9,1-5.7,1.5
				c-7.3,2.2-14.9,3.2-23.3,2.1c-7.9-1.1-15.8-2.2-23.7-3.1c-11-1.3-22.1-1.8-33.4-0.9c-7.4,0.6-14.4,1.4-21.4,2.8
				c-4.1,0.8-8.8,1-13.4,0.4c-8.2-1-16.3-2-24.5-3c-1.5-0.2-3-0.3-4.5-0.5l-4.5-0.4c-8.1-0.5-16.2-0.6-24.5-0.1
				c-7.2,0.4-14.4,1.1-21.5,1.9l-9.8,1.2l-1.3-0.2c-6.8,0.3-13.7,0.1-20.5-0.8c-5.8-0.7-11.5-1.6-17.6-1.7
				c-6.1-0.1-11.9,0.6-17.5,1.6c-8.6,1.5-17.4,1.4-26.2,1.2c-2.1,0-4.3-0.4-6.2-0.9c-12.9-3.3-26.4-3.2-40.1-2.3
				c-9.1,0.6-17.4,2.6-25.8,4.4c-5,1.1-10.1,1.5-15.3,1.6c-6.7,0.2-13.3-0.2-19.9-1.1c-6.5-0.8-13.1-1.6-19.7-2.2
				c-9.7-0.9-19,0.3-28.1,1.9c-2.9,0.5-5.9,1-8.9,1.4c-7.1,0.9-14.1,0.8-21.2-0.1c-11.4-1.4-22.8-2.8-34.5-3.5
				c-11-0.6-21.9-0.4-32.8,0.4c-5.4,0.4-10.9,0.7-16.4,1c-10,0.5-19.6-0.8-28.7-2.8c-1.3-0.3-2.6-0.5-3.9-0.8l-11.5-1.3
				c-7.9-0.5-15.9,0.1-23.9,1.4c-4.1,0.7-8.2,1.4-12.3,2c-11.5,1.5-23.2,1.5-34.8,0.4c-9.7-0.9-19.3-2-29-2.7
				c-9.3-0.7-18.6-0.5-27.7,0.9c-5.5,0.9-11,1.6-16.6,2.3c-5.4,0.7-10.8,1.1-16.2,1.1l-1.7,0.2l-2-0.2c-3.1,0-6.1-0.1-9.2-0.2
				c-11.1-0.5-21.6-2.2-32.1-4c-6-1-11.9-1.4-18-1.1v14.7c0.3,0.1,0.7,0.1,1,0.2c15.7,3,31.8,3.2,48,2.3c12.1-0.6,24.1-1.5,36-2.9
				c10-1.2,19.9-0.8,29.7,0.8c3.9,0.6,7.7,1.3,11.6,2c6.4,1.1,12.9,2,19.6,1.9c4.8,0,9.4,0.7,14.2,0.7c11.3,0,22.3-0.8,33.2-2.2
				c7.2-0.9,14.5-1.4,21.9-1.7c6.2-0.2,12.3,0.4,18.4,1.2c10.7,1.4,21.5,2.5,32.5,2.7c6,0.1,11.8-0.2,17.6-1.1
				c6.9-1.1,13.9-1.9,21.1-1.6c9.3,0.4,18.5,1.3,27.5,2.6c4.8,0.7,9.6,1.5,14.5,2.2c7.1,1,14.2,0.6,21.2-0.2
				c2.8-0.3,5.6-0.7,8.3-1.1c16.4-2.5,33-2.1,49.6-0.8c8.5,0.6,16.9,1.7,25.3,2.6c11,1.2,21.8,1.1,32.3-1c3.6-0.7,7.2-1.3,10.8-2
				c11-2.4,22.2-2.6,33.7-1.2c5.8,0.7,11.6,1.5,17.4,2.3c8.9,1.2,17.9,1.4,27,0.5c6.1-0.6,12.1-1.3,18.1-2.1c7.5-1,15-1.3,22.7-0.6
				c8.9,0.8,17.8,1.9,26.8,2.5c5.6,0.4,11.4,0.3,17.1,0.3c4.1,0,7.9-0.7,11.7-1.6c13.3-3.3,27.2-3.4,41.3-1.8
				c6.3,0.7,12.3,2,18.8,2.3c6.6,0.3,12.8,0,18.9-1.4c4.2-0.9,8.4-1.8,12.8-2.4c7.2-1.1,14.6-0.9,22-0.5c8.2,0.4,15.9,1.9,23.4,3.5
				c6.7,1.5,13,1.2,19.5-0.1c1.8-0.3,3.6-0.7,5.3-1.1c10.1-2.6,20.7-2.7,31.4-1.5c6.3,0.7,12.6,1.6,18.9,2.3
				c6.6,0.7,13.3,0.9,19.8-0.2c4.1-0.7,8.1-1.5,12-2.5c7.8-2,15.7-1.8,23.7-0.6c2.5,0.4,5,0.9,7.5,1.4c1.6,0.3,3.1,0.6,4.7,1
				c9.2,2,18.3,1.3,27.2-0.5c2-0.4,4-0.8,6-1.2c15.6-3,30.8-2.4,45.8,1.5c6.3,1.6,12.6,3.1,19.8,3.2c5.3,0.1,10.5-0.1,15.3-1.4
				c7.7-2,15.9-2.4,24.4-2c9.5,0.5,18.9,1.2,27.8,3.5c4.5,1.1,9.2,1.4,13.9,0.5c0.7-0.1,1.4-0.1,2.1-0.2c6.5-0.9,12.8-1,19.1-0.4
				c4.2,0.5,8.3,1.3,12.4,2.6v-13.8C2253.3,175.2,2253.2,175.2,2253.2,175.3z"/>
			<path class="st1" d="M2249.5,211.7c-1.8-0.3-3.6-0.7-5.4-1c-0.8-0.1-1.9-0.3-3.2-0.4c-2.9-0.4-6.6-0.7-8.5-0.8
				c-8.3-0.3-16.7-0.5-25-0.5c-4.5,0-9,0.3-13.5,0.7c-6.9,0.5-13.4-0.4-19.5-1.9c-4.2-1.1-8.6-1.5-13-2.1c-4.3-0.5-8.7-0.4-12.6,0.7
				c-11,3-21.7,1.9-32.5-0.5c-5.3-1.2-10.7-2.3-15.9-3.6c-6.4-1.6-13-1.5-19.7-1.2c-4.7,0.2-9.4,0.8-13.8,1.8
				c-6.9,1.6-14.1,2.2-21.6,2.2c-6.6,0-12.7-1.2-18.7-2.4c-4.3-0.8-8.6-1.5-13.1-1.9c-7-0.6-13.7-0.5-20.5,0.5
				c-5.3,0.8-10.6,1.5-15.9,2.1c-7.3,0.9-14.6,0.8-21.8-0.6c-7.4-1.5-15.2-2.3-23-2.9c-5.7-0.5-11.4-0.1-16.8,1.1
				c-5.8,1.2-11.5,2.5-17.5,3.3c-10,1.5-20.1,1.8-30.2-0.4c-3.5-0.8-7.2-1.4-11-1.8c-5.1-0.5-10,0-13.9,2c-5,2.6-11.2,3.9-18.1,3.9
				c-6.2,0-12.4-0.1-18.6-0.2c-0.7,0-1.5-0.1-2.1-0.3c-4.1-1.5-9-1.7-13.5-2.4c-11-1.8-22.1-2-33.1-0.3c-6.4,1-12.8,2-19.2,2.9
				c-7.1,0.9-14.2,0.5-21.1-0.8c-3.8-0.7-7.7-1.5-11.5-2.3c-6.1-1.2-12.3-2-18.8-2.4c-7.1-0.4-13.7,0.4-20,2.1
				c-3,0.8-5.8,1.8-8.9,2.4c-11.1,2.1-22.4,2.2-33.7,0.3c-10.3-1.7-20.8-2.9-31.7-2.5c-6.1,0.2-11.7,1.1-17.3,2.2
				c-1.6,0.3-3.1,0.6-4.6,1c-7.8,2.1-15.7,1.5-23.7,0.2c-2.1-0.3-4.1-0.8-6.1-1.2c-5.7-1.1-11.5-1.8-17.5-1.9
				c-8.2-0.2-16.2,0.3-23.7,2.1c-5.9,1.5-12,2.5-18.7,2c-3.5-0.3-7-0.8-10.4-1.3c-5.5-0.8-11-1.7-16.6-2.5c-8-1.2-16.1-0.7-24.1,0.1
				c-3.5,0.4-6.8,1.1-10.3,1.5c-4.4,0.5-8.9,0.9-13.3,1.2c-1.8,0.1-3.8,0-5.6-0.3c-5-0.8-10-1.8-15-2.7c-10.6-2-21.1-1.8-31.4,0.3
				c-4,0.8-8,1.6-12.1,2.2c-1.8,0.3-3.8,0.3-5.7,0.2c-7.6-0.4-15.2-0.7-22.5-2c-4.8-0.8-9.6-1.6-14.5-2.1
				c-8.9-0.9-17.6-0.3-26.1,1.2c-10.6,1.8-21.5,2.1-32.5,1.7c-5.9-0.2-11.7-1-17.6-1.6c-4.2-0.5-8.4-1.1-12.5-1.6
				c-12.7-1.7-25.1-0.8-37.3,1.4c-21.5,3.8-43.4,4.2-65.5,1.6c-5.8-0.7-11.6-1.4-17.4-2.2v14.8c3.4,0.1,6.8,0.5,10.2,1.4
				c5.3,1.3,10.6,2.7,15.7,4.5c5.5,1.9,11.3,2.2,17.1,1.7c1.9-0.2,3.8-0.5,5.7-0.6c5.5-0.3,10.8-1.6,16.1-3.1c2-0.6,4-1,6-1.4
				c3.5-0.7,7-1.3,10.5-1.9c7.4-1.3,14.4,0,21.2,2.9c9.7,4.2,19.7,4.8,29.9,2.4c4.6-1.1,9.1-2.5,13.6-4c5.9-1.9,11.8-2.4,17.7,0.2
				c0.4,0.2,0.8,0.1,1.5,0.2c0.4-0.9,0.8-1.8,1.4-2.6c0.7-1.1,1.5-2.2,2.5-3c0.9-0.8,2-0.9,3.3-0.7c1.6,0.3,3.3,0.4,5,0.5v-0.2
				l10.8,0.1c5.3-0.1,10.7-0.1,16-0.2c8-0.1,16-0.3,23.9-0.5c13.4-0.3,26.9-0.6,40.3-0.9c5.6-0.1,11.2-0.2,16.8-0.4
				c11.8-0.4,23.6-0.9,35.4-1.3c11.5-0.5,23-1,34.6-1.4c10.2-0.3,536,9.2,546.2,9c10.8-0.1,21.6-0.1,32.4-0.2
				c11.1-0.1,22.2-0.4,33.2-0.5c13.4-0.1,26.9-0.1,40.3,0.1c11.2,0.2,22.4,0.8,33.7,1.2c6.6,0.2,13.3,0.2,19.9,0.4
				c11.8,0.3,23.6,0.5,35.5,0.9c8.1,0.2,16.2,0.5,24.4,1c7.5,0.4,15,1.2,22.5,1.7c2.2,0.1,4.4,0.2,6.5,0.2c1.4,0,2.7,0,4.1,0
				c1.3,0,2.6-0.4,3.9-0.5c0.7-0.1,1.5-0.2,2.2-0.1c1,0.1,1.8,0.5,2.2,1.1v-14.3c-0.1,0.1-0.2,0.2-0.3,0.3
				C2252.2,211.5,2251.1,212,2249.5,211.7z"/>
			<path class="st1" d="M2241,191.7C2241,191.7,2241,191.7,2241,191.7c-5.2-1.1-13.6-1.3-18.7-0.2c-8,1.8-15.7,0.9-23.6-0.7
				c-11.5-2.4-23.5-3.4-35.8-2.5c-3,0.2-6,0.8-8.8,1.4c-13.1,2.8-25.5,1.8-37.9-1.6c-8.2-2.2-17-3.4-26.3-3.3
				c-7.8,0.1-14.9,1.2-22.1,2.8c-9.7,2.1-19.6,3-29.9,1c-4.3-0.8-8.7-1.5-12.9-2.3c-8.1-1.5-15.9-1.2-23.7,0.6
				c-2.6,0.6-5.2,1.3-7.9,1.8c-7.8,1.5-15.9,1.5-24,0.7c-4-0.4-7.9-0.9-11.9-1.4c-1.6-0.2-3.3-0.4-4.9-0.6
				c-10.7-1.4-21.2-1.5-31.4,1.1c-2.8,0.7-5.8,1.1-8.7,1.8c-5.1,1.1-10.2,1.1-15.3,0.1c-3.2-0.6-6.3-1.2-9.5-1.8
				c-16.4-3.3-32.7-3.2-48.7,0.5c-4.6,1.1-9.5,1.6-14.6,1.7c-6.3,0.2-12.4-0.2-18.3-1.4c-10.8-2.1-21.9-2.5-33.1-1.6
				c-3.7,0.3-7.6,0.8-10.9,1.7c-9.6,2.6-19.6,2.9-29.9,2.1c-6.4-0.5-12.7-1.1-19-1.8c-9.4-1.1-18.9-1.6-28.4-0.7
				c-2.1,0.2-4.3,0.4-6.3,0.7c-7.3,1.3-14.9,1.7-22.3,2.4c-3.6,0.4-7.1,0.3-10.6-0.1c-6.1-0.8-12.1-1.5-18.2-2.2
				c-9.1-1.1-18.2-2.1-27.6-1.8c-2.4,0.1-4.8,0.2-7,0.6c-6.4,1-12.6,2.2-19,3.3c-4.7,0.8-9.5,1.3-14.6,1.5
				c-8.5,0.4-16.5-0.6-24.7-1.4c-10.6-0.9-21-2.4-31.7-2.7c-11.9-0.3-23.8-0.2-35.4,1.6c-4.1,0.6-8.3,1.1-12.4,1.7
				c-7.6,1-15.2,0.5-22.5-0.8c-11-2-22.2-3.1-33.6-3.7c-9.4-0.5-18.6-0.2-27.4,1.8c-1.1,0.2-2.3,0.5-3.4,0.5
				c-13.3-0.2-26.7-0.5-39.8-2.1c-2.5-0.3-5-0.8-7.6-1.1c-12.4-1.7-24.5-0.6-36.5,1c-4.4,0.6-8.8,1.1-13.4,0.9
				c-1.4-0.1-2.8,0.2-4.2,0.3c-3.8,0.2-7.6,0.6-11.3,0.6c-6.2,0-12.3-0.3-18.5-0.4c-6.2-0.1-12.3-0.7-18.2-1.8
				c-4.9-0.9-9.9-1.8-15-2.4c-8.9-1.1-17.8-1.6-26.9-0.3c-4.8,0.6-9.9,0.8-14.8,1.1c-7.5,0.5-15.1,1.1-22.6,1.6
				c-3.8,0.3-7.5,0.3-11.3,0.1c-3.4-0.2-7.1-0.2-10.6,0c-7.6,0.4-14.6-0.9-21.8-1.7c-1.6-0.2-3.1-0.4-4.6-0.6v13.8
				c3.2,0.4,6.3,0.9,9.5,1.4c16.9,2.4,33.9,2.9,51.1,1.9c7.6-0.4,15-1.4,22.2-2.7c8.6-1.6,17.5-2.3,26.7-2.1
				c3.1,0.1,6.2,0.3,9.2,0.6c7,0.8,13.9,1.8,21,2.5c13.3,1.5,26.6,1.3,39.7-0.5c8.1-1.1,16.1-2.2,24.6-2c4.6,0.1,9,0.6,13.3,1.4
				c6.4,1.1,12.9,1.8,19.5,2.5c6.3,0.7,12.3,0.5,18.4-0.5c3.6-0.6,7.3-1.2,10.9-1.9c10-1.9,20.1-1.8,30.2,0
				c3.6,0.6,7.3,1.2,10.9,1.9c6.1,1.3,12.2,1,18.3,0.3c2.3-0.3,4.6-0.6,6.9-1c14.1-2.4,28.1-2.2,42.2,0.3c4.1,0.7,8.3,1.2,12.4,1.9
				c6,0.9,11.8,0.5,17.6-0.5c2.9-0.5,5.8-1.1,8.8-1.6c6.4-1.1,13-1.3,19.7-1.1c7.7,0.2,15,1.2,22.3,2.6c3.4,0.6,6.9,0.9,10.4,1.3
				c4.4,0.5,8.5,0.1,12.6-0.7c1.6-0.3,3.2-0.6,4.7-0.9c13.3-3.3,27.2-3.2,41.3-1.6c5.4,0.6,10.7,1.4,16,2.1
				c10.6,1.4,20.8,1.2,30.5-1.7c1.7-0.5,3.5-0.8,5.1-1.3c10.3-2.9,21.1-2.8,32-1.4c5.1,0.6,10,1.7,15,2.6c7,1.3,14.1,2.5,21.7,2.1
				c3.3-0.2,6.6-0.5,9.8-1c4.8-0.7,9.5-1.6,14.3-2.4c6-1,12.2-1.4,18.4-0.9c7.5,0.6,15.1,1.4,22.4,2.5c9.1,1.3,18,2.4,27.5,1.8
				c5.2-0.4,9.8-1.1,13.4-3.2c5.1-3,11.4-3.4,18.3-2.6c2.8,0.3,5.7,0.7,8.2,1.3c12.7,3.2,25.1,2.1,37.6-0.2c2.7-0.5,5.4-1.1,7.9-1.8
				c4.1-1.2,8.4-1.6,13-1.6c8.7-0.1,17,1.1,25.4,2.2c2.3,0.3,4.6,0.7,6.9,1.1c7.8,1.3,15.5,1.2,23.3,0.1c2.8-0.4,5.5-0.8,8.2-1.3
				c12.5-2.4,24.9-1.5,37.2,0.5c4.3,0.7,8.5,1.8,12.9,2.2c8.3,0.9,16.6,0.6,24.6-1.1c6.4-1.4,13-2.3,20.1-2.5
				c7.6-0.2,14.7,0.6,21.7,2c3.8,0.7,7.5,1.8,11.3,2.5c4,0.8,8.1,1.6,12.3,2.1c5.2,0.6,10.4,0.5,15.3-0.8c8.9-2.3,17.9-2.2,27,0
				c3.5,0.8,7.2,1.4,10.8,2.1c5.9,1,11.9,0.6,17.7,0.2c7.9-0.6,15.6-0.7,23.5-0.1c2.8,0.2,5.7,0.1,8.6,0.3c2.3,0.1,5.1,0.3,7.9,0.7
				c4,0.5,8.1,1.3,10.8,2.3c0.7,0.3,1.2,0.5,1.6,0.8v-15.5c-0.7,0.3-1.6,0.6-2.7,0.9C2247.7,193,2244.3,192.4,2241,191.7z"/>
		</g>
		<path class="st1" d="M1258.8,276.1c-1-0.5-1.7-13.6-2.6-14.3c-0.8-0.6-1.9-0.8-2.9-1.1c-7.9-2.2-15.7-2.3-23.6-0.1
			c-2.6,0.7-5.1,1.4-7.7,2.2c-6.7,2-13.3,1.7-20.1,0c-3.6-0.9-7.2-1.4-10.9-1.8c-3.5-0.4-7.1-0.4-10.6-0.4
			c-6.2,0.1-11.9,2.1-17.6,4.2c-3.6,1.3-7.1,1.7-10.8,0.9c-4-0.9-8.2-1.4-12.2-2.3c-10.7-2.5-21.2-2.2-31.3,2
			c-5.9,2.5-11.7,3.1-17.6,2.4v8.4H1259C1258.9,276.2,1258.8,276.2,1258.8,276.1z"/>
		<path class="st1" d="M1100.6,262.3c1.4-0.1,2.9-0.6,4.2-1.2c10.2-4.6,20.8-5.2,31.7-3.7c4.7,0.6,9.3,1.7,13.9,2.7
			c4.3,0.9,8.5,0.8,12.7-0.6c0.8-0.3,1.7-0.5,2.5-0.8c8.6-3.7,17.5-3.9,26.6-2.7c4.1,0.5,8.2,1.2,12.2,2.1
			c7.1,1.6,14.1,1.1,20.9-1.3c2.2-0.8,4.5-1.3,6.8-1.9c6.9-1.7,13.8-1.5,20.6,0.3c0.9,0.2,1.7,0.3,2.6,0.4c0.3,0,0.6-0.1,1-0.3
			c0.7-2.1-0.2-4.3-0.1-6.4c0.1-2.2,0-4.4-0.9-6.4c-5.2-1.6-11.6-1.3-16.1,0.7c-8.2,3.7-8.2,3.6-17,1.6c-3.3-0.8-6.6-1.5-10-1.9
			c-5.2-0.6-10.3,0.4-15.3,1.9c-5.6,1.7-11.3,2.2-17,0.5c-4.3-1.3-8.7-1.8-13.1-2.2c-4.8-0.4-9.4,0.5-14.1,1.2
			c-2.9,0.4-5.8,1-8.7,1.6c-4.4,0.8-8.8,0.4-13.3,0.1c-3.1-0.2-6.2-0.4-9.3-0.8c-3.1-0.4-6.1-1-9.2-1.5c-5.4-1-10.8-2-16.1-3
			c-1.9-0.4-3.7-0.4-5.5-0.2v22C1094.1,262.8,1097.4,262.5,1100.6,262.3z"/>
	</g>
	<g>
		<path class="st2" d="M1412.7,193.7c1.9-1.7,3.2-3.2,4.1-5c2.1-4.5,2.5-9.2,1.9-14.1c-0.1-1-0.1-2-0.3-2.9
			c-0.4-2.3-0.9-4.6-1.4-6.9c-0.2-0.8-0.4-1.6-0.6-2.5c1.6-0.3,3,0.3,3.6,1.4c0.1,0.2,0.2,0.4,0.3,0.7c1.3,2.9,2.6,5.9,3.8,8.8
			c2.3,5.2,2.4,10.5,0.2,15.8c-0.7,1.7-1.4,3.3-2.2,4.9c-1.2,2.4-3.1,4.3-5.2,6c-2.2,1.7-3.7,3.9-4.9,6.5c-1.3,2.9-3.4,5.4-7.1,5.8
			c-2.1,0.2-4.2,0.6-6.2,0.7c-3.1,0.2-6.3,0.1-9.4,0.3c-3,0.1-6,0.5-9,0.5c-2.3,0-4.8,0.1-6.5-1.9c-1.2-1.4-2.6-2.6-4.1-3.8
			c-2.7-2.2-1.6-5.5,0.8-7.3c1-0.7,2.1-1.2,3.4-1.9c-4.8-3.5-7.3-8.9-11.1-13.6c-0.2,0.5-0.4,0.8-0.4,1.2
			c-0.1,3.8-0.4,13.6-0.3,17.4c0.1,3.1,0.6,6.2,0.9,9.4c0.1,1.2-0.3,1.5-1.5,1.1c-0.6-0.2-1.2-0.4-1.8-0.4c-1.7,0-3.5,0-5.2,0.1
			c-3.7,0.1-7.5,0.3-11.2,0.3c-3,0-5.9-0.2-8.8-0.5c-1.6-0.1-2-0.6-2.1-2.2c-0.1-1.1-0.6-1.9-1.7-2.1c-1.3-0.2-2.2-1-2.8-2.2
			c-0.7-1.4-0.7-2.6,0.2-4c1.6-2.2,3.9-3.1,6.3-3.9c2.1-0.7,4.2-1.3,6.4-1.8c1.2-0.2,1.5-0.9,1.6-1.9c0.1-1.7,0.3-3.3,0.3-5
			c0.3-7.3,0.6-20.5,0.9-27.8c0.1-2.5,0.1-5,0.2-7.6c0-0.4,0.1-0.8,0.2-1.1c0.8-2.1-0.2-3.6-1.5-5c-0.4-0.4-0.9-0.7-1.3-1
			c-0.9-0.7-1.7-0.7-2.6,0c-1.6,1.3-3.2,2.5-4.9,3.6c-1.1,0.7-2.4,1.2-3.6,1.7c-1.6,0.6-3.2,1.3-4.9,1.7c-1.7,0.3-3.4,0.5-5.1,0.3
			c-2-0.2-3.9-0.9-5.9-1.5c-1.3-0.4-2.5-0.9-3.8-1.4c-6.4-2.2-11.8-5.9-15.7-11.5c-1.6-2.3-2.5-5.1-2.8-8c-0.1-0.9-0.3-1.4-1.2-1.8
			c-1.2-0.4-1.6-0.9-1.3-2.1c0.7-2.8,0.2-5.5,0-8.3c0-0.7,0.1-1.4,0.1-2.3c1,0.1,1.8,0.2,2.5,0.3c0.7-1.4,1.3-2.9,2.2-4.1
			c2.2-3,7.4-5.8,12-3.6c2,1,4.3,1.5,6.5,2c5.4,1.1,9.3-1.3,12.4-5.4c4.1-5.2,8.9-9.8,14.4-13.5c2.9-2,6.2-2.8,9.7-2.5
			c1.8,0.2,3.6,0.3,5.4,0.4c3,0.2,5.6,1.3,8.2,2.6c0.3,0.2,0.6,0.4,1,0.5c0.4-0.5,0.7-1.1,1.1-1.2c0.4-0.1,1,0.4,1.5,0.6
			c0.8,0.3,1.6,0.5,2.4,1c4.9,2.7,9.8,5.6,13.1,10.3c1.8,2.5,3,5.2,3.9,8.1c1.1,3.6,1.7,7.3,1.9,11.1c0.1,1.5,0,3.1-0.3,4.6
			c-0.1,0.6-0.6,1.2-1,1.7c-2.4,2.3-5.1,4.1-8.4,4.9c-1.4,0.3-2.9,0.2-4.4,0.2c-2.2,0-2.3,0.1-2.9,2.3c-0.9,3.3-0.2,6.4,1.2,9.3
			c1.8,3.9,4.9,6.9,7.8,10c3.8,4,8.5,6.7,13.1,9.6c3.8,2.4,7.7,4.6,11.4,7.3c4.6,3.3,7.1,8.1,8.1,13.6
			C1412.2,190.6,1412.4,191.9,1412.7,193.7 M1368.4,137.5c-0.8-0.3-1.3-0.6-1.9-0.7c-2.8-0.5-5-2-7.2-3.7
			c-5.1-3.9-8.2-11.2-4.9-18.2c2.2-4.7,4.8-9.1,7.3-13.7c0.5-1,1-1.9,1.5-3c-2.6-1.8-5.3-2.8-8.2-3.1c-2.1-0.2-4.3-0.3-6.5-0.5
			c-3.4-0.2-6.3,0.8-9,2.8c-5.2,3.8-9.8,8.2-13.8,13.3c-3.5,4.5-8.1,6.6-13.8,5c-2.2-0.6-4.3-1.4-6.5-2c-1-0.3-2.2-0.5-3.2-0.4
			c-3.5,0.2-5.7,2.4-7.4,5.1c-0.2,0.3-0.2,0.8-0.2,1.2c3,1.3,3.6,2.3,2.8,5.5c-0.2,0.9-0.4,1.8-0.6,2.7c-0.6,2-1.4,3.8-3.2,5.2
			c0.4,3.6,1.5,7,4.1,9.8c4.8,5.2,10.9,7.9,17.7,9.3c5.5,1.1,10.5,0.1,15.3-2.6c3.9-2.2,7.4-5.2,10.5-8.4c1.7-1.7,2.2-2,3.5,0.6
			c0,0.1,0,0.1,0.1,0.3c-0.9,1.4-1.9,2.9-3,4.4c0.2,0.2,0.3,0.4,0.5,0.5c1.5,1,2.6,2.4,3.5,4c1.2,1.8,1.5,3.9,2.1,5.9
			c2.1,6.7,3,13.6,2.5,20.6c-0.4,5.7-1.3,17.4-2.5,23c-0.3,1.5-0.7,2.8-1.8,4c-0.2,0-0.4,0-0.7,0c-3.1,0-6,0.5-8.8,1.8
			c-1.3,0.6-2,1.6-2.4,2.9c-0.5,1.7,0.4,2.9,2.2,2.9c7.5-0.1,15-0.1,22.5-0.2c0.4,0,0.8-0.1,1.3-0.2c0-0.6-0.1-1.2-0.1-1.7
			c-0.2-3-0.6-6-0.5-9c0.2-4.9,0.6-15.8,1.2-20.7c0.3-2.6,1.3-5.1,2.1-7.6c0.1-0.4,0.7-0.8,1-0.8c0.4,0,0.9,0.4,1.1,0.8
			c0.2,0.4,0.3,1,0.2,1.4c-0.3,1.5-0.5,3-1,4.5c-0.8,2.8-0.3,5.2,1.3,7.5c1.7,2.4,3.4,4.7,5.1,7.1c1.6,2.2,3.7,3.8,6.2,4.9
			c0.5,0.2,1.1,0.2,1.7,0.4c-0.1-1.5-0.2-2.6-0.2-3.8c-0.1-2.8,0.7-5.5,2.5-7.5c3.9-4.2,7.9-3.7,11.3-0.1c0.4,0.5,1,1.2,0.3,1.8
			c-0.7,0.5-1.1-0.2-1.5-0.6c-3.1-3.3-6.6-1.9-8.5,1c-1.9,2.9-2.1,6.1-1.4,9.4c0.2,0.7,0.5,1.4,0.8,2c0.5,1.2,1,2.4,1.5,3.5
			c0.2,0.5,0.5,0.9,1,1.6c-0.8,0.1-1.3,0.2-1.9,0.3c-1.2,0.1-2.3,0.1-3.5,0.1c-1.6,0-2.8,0.9-3.8,2c-1.1,1.4-0.7,2.7,1,3
			c1.3,0.2,2.6,0.4,3.8,0.3c6.2-0.2,12.4-0.5,18.6-0.9c2.4-0.2,4.7-0.7,7.1-1.1c0.4-0.1,0.9-0.2,1.2-0.5c1.4-1.3,2.5-2.9,3-4.8
			c0.3-1.1,0.7-1.9,1.5-2.6c0.9-0.8,1.8-1.7,2.8-2.5c2.1-1.8,4.3-3.5,5.6-6.1c1.1-2.1,2.1-4.3,2.9-6.6c1.3-3.4,1.3-6.9,0.3-10.4
			c-0.4-1.4-0.9-2.8-2-3.9c-0.1,1.2,0,2.3,0.1,3.4c0.4,4.6,0.1,9.1-1.6,13.5c-1.6,4.1-4.7,6.9-8.4,9c-1,0.6-1.5,0.3-2.3-1
			c1.2-1.6,1.5-2.2,1.3-3.5c-0.3-2.2-0.5-4.4-1-6.6c-0.9-3.6-2.7-6.8-5.6-9c-3.5-2.7-7.3-5.1-11.1-7.3c-5.3-3-10.5-6.2-14.8-10.6
			c-3.1-3.2-6.1-6.5-8-10.6c-0.7-1.6-1.4-3.2-1.6-4.9C1367.6,142.3,1367.6,140,1368.4,137.5 M1366.5,97.7c-1.8,3.9-3.5,7.5-5.2,11
			c-1.5,2.9-2.7,5.9-3.5,9.1c-0.6,2.4-0.6,4.8-0.1,7.1c0.7,3.4,2.8,5.9,5.8,7.5c2.8,1.4,5.7,2.3,9,2.4c2.7,0.1,5.3,0,7.7-1.3
			c2.9-1.5,4.9-3.5,4.7-7c0-0.5,0.1-1,0.1-1.5c-0.3-4.7-1.1-9.3-3-13.7c-1.2-2.8-2.8-5.4-5.2-7.3c-2.5-1.9-5.1-3.7-7.7-5.4
			C1368.2,98.3,1367.3,98.1,1366.5,97.7 M1346,162.6c-0.9,9.2-1.3,24.4-1.3,33.4C1346.3,191.7,1347.4,166,1346,162.6 M1330.2,207.2
			c0.8-1,1.4-2.1,2.3-2.9c0.9-0.7,2-1.1,3.1-1.4c2.1-0.6,4.2-0.9,6.3-1.4c0.7-0.2,1.6-0.1,1.7-1.5c-0.8,0-1.5-0.2-2.2,0
			c-2.9,0.9-5.8,1.7-8.5,2.8c-1.1,0.4-2,1.4-2.8,2.3C1329.3,205.9,1329.5,206.5,1330.2,207.2 M1371.6,206.9c-0.2-2.5,1.3-3.2,3-3.8
			c0.6-0.2,1.2-0.3,1.8-0.4c0.5-0.1,0.9-0.3,1.5-0.4c-0.2-0.7-0.4-1.2-0.6-1.8c-1.2,0.4-2.3,0.7-3.3,1.1c-1.3,0.6-2.5,1.3-3.1,2.7
			C1370.5,205.2,1370.3,206,1371.6,206.9"/>
		<path class="st2" d="M1341.4,115c0,1.2-0.8,2.2-1.8,2.2c-1.1,0-2.1-1.2-2.1-2.4c0-1.2,0.9-2.3,1.9-2.3
			C1340.5,112.5,1341.4,113.8,1341.4,115"/>
		<path class="st2" d="M1484.8,197.5c1.8,5.3,2.7,10.5,2,16c-1.3,0.6-2.5,0.5-3.6-0.1c-1.9-0.9-3.8-1.1-5.8-0.8
			c-1.9,0.3-3.8,0.1-5.6,0.8c-0.8,0.3-1.3-0.3-1.5-1c-0.1-0.5-0.1-1.1-0.1-1.7c-1-0.7-2.1-1.4-3.2-2.1c-0.8,0.2-1.6,0.4-2.5,0.6
			c-0.2,0.6-0.8,1.2-0.7,1.8c0.2,1.4-0.8,1.9-1.9,2.5c-1-1-2.3-0.7-3.6-0.6c-2.4,0.3-4.8,0.2-7,1.1c-0.9,0.4-2.1-0.6-2.7-2
			c-0.9-1.9-0.9-1.9-2.7-3.2c-1.6,0.4-2.2,0.3-2.8-0.6c-0.5-0.7-0.4-1.3,0.3-1.7c0.4-0.2,0.9-0.4,1.3-0.5c4.6-1.8,9.2-3.4,13.7-5.3
			c1.8-0.7,3.4-1.8,5-2.8c1.1-0.7,1.7-1.6,1.7-3c0-3.3,0.1-6.7,0.2-10c0.2-4.5,0.5-9,0.8-13.5c0.1-1,0.1-1.9,0.2-2.9
			c0.1-1.2,0-2.3-1-3.3c-1.3-1.4-1-3.3,0.7-4.4c0.9-0.6,1.1-1.2,1.2-2.2c0.9-6,1.8-12,2.7-18c0.4-2.3,1-4.5,1.5-6.8
			c0.7-3.1,1.4-6.3,2.1-9.4c0.2-1.1,0.2-1.9-0.8-2.7c-1.5-1.2-2.6-2.7-4.1-4c-0.8-0.7-1.7-1.4-2.7-1.7c-6.2-2-12.1-4.7-17.5-8.3
			c-1.7-1.2-3.3-2.6-4.8-4.1c-2-1.9-2.8-4.5-3.5-7.1c-2.6-9.8-3.5-19.7-2.6-29.8c1.3-14.2,6.4-26.7,15.4-37.7
			c2.1-2.6,4.2-5.2,6.3-7.8c1.5-1.9,2.4-4.1,3.1-6.4c0.2-0.7,0.3-1.5,0.2-2.2c-0.2-1.7-1.3-2.5-3-2.2c-2.8,0.4-5.2,1.4-7.2,3.5
			c-0.8,0.9-1.6,1.1-2.9,0.8c-6.4-1.1-12.3,1.1-15.9,6.5c-1.1,1.7-2.1,3.3-3.2,5.2c-1.7,0.5-2.2,0.3-3.3-1.4
			c-3.7-5.6-3.9-11.5-1.5-17.6c1.5-3.7,3.7-7,7-9.4c2.2-1.6,4.6-2.9,7.3-3.5c0.5-0.1,1-0.3,1.6-0.5c-1.8-3.4-0.6-6.4,0.9-9.4
			c2.8-5.7,7.5-9,13.4-10.9c3-0.9,6-1.8,9.2-1.6c7.6,0.5,13.4,3.7,17.2,10.5c1.3,2.3,1.7,4.7,2.1,7.2c0.9,5.4,1,10.8-0.6,16
			c-1.1,3.8-3.3,7-5.5,10.3c-2.7,4.1-6,7.6-9.3,11.1c-3.9,4.2-7.5,8.6-10.5,13.6c-3.2,5.3-4.9,10.9-5.6,17c-0.4,3.3-0.4,6.7-0.6,10
			c0,0.5,0.1,1,0.2,2c0.7-0.6,1.2-0.9,1.5-1.3c2.6-2.6,5.1-5.3,7.7-7.9c4-4,8.8-6.6,13.8-9.1c3.8-2,7.8-3.6,12.1-4.2
			c5.1-0.6,10-0.5,15,0.8c4.6,1.1,9.1,2.6,13.2,4.9c3.7,2.1,6.9,4.9,9.6,8.2c2.1,2.6,4,5.2,5.2,8.3c0.4,1.1,1.3,1.9,2,2.9
			c3,4.3,5.9,8.5,8.9,12.7c1,1.5,1.9,2.9,2.3,4.7c0.3,1.7,0,2.4-1.8,3c-5.1,1.6-10.2,1.4-15.3-0.1c-2-0.6-4-1.3-6.1-2
			c-1.6,2.6-4.3,2.9-7,2.6c-5-0.5-10-1.3-15.3-2.1c0.3-0.2,0.1-0.1,0.1,0c-1.4,2.7-3.8,3.5-6.6,3.6c-4.4,0.1-8.7-0.8-12.9-2.2
			c-0.5-0.2-1-0.4-1.6-0.5c-0.2-0.1-0.4,0-0.8,0c-1.7,3.4-4.9,3.5-8.1,2.9c-6.5-1.1-12.1-4-16.1-9.3c-2.1-2.8-3.4-6-2.6-9.7
			c0.4-1.9,0-3.9-0.2-5.9c-0.6-8.5,0.2-16.8,3.3-24.7c2.1-5.3,5.3-10,8.9-14.4c3.6-4.2,7.3-8.3,11-12.4c3.2-3.6,5.7-7.7,7.7-12
			c2-4.3,2.2-9,1.8-13.7c-0.2-1.7-0.5-3.4-0.8-5.1c-1-6-6.1-11.6-12.9-12.7c-8.3-1.3-15.5,1.3-21.5,7.1c-1.9,1.8-3,4.1-3.7,6.5
			c-0.6,1.8,0,3.5,0.6,5.2c0.2,0.4,0.7,0.8,1.2,1c4.7,2.1,7,5.9,8,10.7c0.2,1.1,0.4,2.1,0.6,3.3c0.5-0.1,0.9-0.1,1.3-0.2
			c1.1-0.3,2.2-0.6,3.4-0.8c4-0.9,7.1,2.6,6.6,6.7c-0.4,3.1-1.5,6-3.5,8.4c-2.1,2.6-4.2,5.2-6.3,7.8c-6.3,7.5-10.5,16.1-12.9,25.6
			c-2.7,10.7-2.9,21.5-1.1,32.3c0.5,3.1,1.4,6.1,2.2,9.2c0.7,2.6,2.3,4.6,4.3,6.2c6.8,5.3,14.4,8.8,22.9,10.3
			c4.6,0.8,9.2,0.9,13.9,0.9c8.7,0,16.9-2.6,24.8-5.7c6.1-2.4,11.8-5.6,17.1-9.5c0.8-0.6,1.6-1.1,2.4-1.6c0.5-0.3,1.1-0.6,1.5-0.5
			c0.5,0.1,1.1,0.5,1.4,1c0.4,0.6,0,1.2-0.6,1.5c-2.4,1.6-4.7,3.4-7.2,4.7c-4.7,2.6-9.4,4.9-14.2,7.3c-1.3,0.7-2.8,1.3-4.2,1.5
			c-2.5,0.5-4.1,2-5.6,3.7c-1.8,2-3.9,3.6-6.6,4.3c-1.1,0.3-1.6,0.9-1.8,2c-0.8,4.7-1.8,9.4-2.5,14.1c-0.9,6.2-1.6,12.4-2.4,18.7
			c-0.2,1.5-0.4,2.9,0.6,4.3c0.7,1,0.4,2.3-0.4,3.1c-1.1,1.2-1.2,2.7-1.3,4.2c-0.2,5.8-0.3,11.6-0.5,17.4c-0.1,3.3-0.1,6.6-0.1,9.8
			C1485.1,196.4,1484.9,196.9,1484.8,197.5 M1540.5,88.2c-0.4-0.7-0.5-1.1-0.7-1.4c-3.3-4.7-6.6-9.4-9.8-14.1
			c-0.7-1-1.3-2.1-1.8-3.2c-2.7-6-7.1-10.5-12.6-13.8c-2.5-1.5-5.3-2.5-8.1-3.4c-5-1.8-10.1-2.8-15.5-2.5c-1.8,0.1-3.7,0.2-5.5,0.7
			c-5.5,1.3-10.5,3.9-15.3,6.8c-6.2,3.7-11.2,8.9-15.8,14.4c-1.8,2.2-3.2,4.4-2.5,7.4c0,0.1,0,0.3,0,0.4c-0.1,2,0.6,3.5,2,5
			c2.6,2.7,5.8,4.5,9.1,6.2c2.2,1.1,4.5,1.2,6.8,0.8c2.5-0.4,3.4-2.9,2.1-5c-0.4-0.6-0.9-1-1.4-1.5c-0.6-0.6-1.3-1.2-1.9-1.8
			c-0.6-0.7-1-1.4-0.4-2.7c0.5,0.3,1.1,0.4,1.5,0.8c0.9,0.7,1.8,1.5,2.6,2.3c0.8,0.9,1.6,1.8,2,2.8c0.5,1.3,1.4,1.9,2.7,2.1
			c2,0.4,4,0.9,6,1.1c2.2,0.2,4.4,0.3,6.5,0.3c0.6,0,1.2-0.2,1.8-0.4c1.1-0.4,2.2-1,2.3-2.3c0.2-1.4-0.4-2.6-1.7-3.2
			c-1.2-0.6-2.4-0.9-3.6-1.4c-0.9-0.3-1.4-1.2-1.1-1.9c0.3-0.8,1-0.8,1.7-0.6c2.4,0.7,4.8,1.7,6.1,3.9c1.3,2.1,3,3,5.3,3.3
			c1.3,0.2,2.5,0.6,3.8,0.8c2.8,0.3,5.7,0.6,8.5,0.7c1.2,0,2.5-0.1,3.3-1.6c-0.4-0.3-0.8-0.8-1.2-1c-2.3-1-4.6-2-6.9-3
			c-0.9-0.4-1.1-1-1-1.8c0.2-0.9,0.9-0.9,1.6-0.8c0.5,0.1,1,0.3,1.5,0.6c1.5,0.7,3.1,1.4,4.6,2.2c1.1,0.6,2,1.4,2.9,2.1
			c0.8,0.5,1.5,1.3,2.3,1.5c3.9,0.8,7.7,2,11.7,1.6c1.8-0.2,3.7-0.2,5.5-0.3C1538.7,88.5,1539.4,88.3,1540.5,88.2 M1484.5,121
			c-1.4,1.7-3.5,1.9-5.5,2.1c-2.5,0.1-2.6,0.2-3.1,2.6c-0.5,2.5-0.9,5.1-1.6,7.6c-2.4,8.6-3.3,17.4-4.6,26.2
			c-0.2,1.2-0.1,2.2,0.7,3.3c1,1.3,0.9,2.3-0.3,3.2c-1.1,0.8-1.3,1.8-1.3,3c0,0.7-0.2,1.5-0.2,2.2c-0.4,6.8-0.7,13.6-1,20.4
			c-0.2,4.4,0.9,8.8-1,13.1c0,0,0.1,0.1,0.2,0.3c2.6-1.3,5.4-2.5,7.9-4c2.6-1.5,5.1-3.4,7.6-5.1c0.3-9.8,0.7-19.7,1-29.6
			c0-0.7-0.3-1.6-0.7-2.3c-0.8-1.6-0.8-3,0.3-3.9c0.8-0.6,1-1.4,1.1-2.3c0.6-4.3,1-8.7,1.7-13c1.1-7.1,2.2-14.3,3.3-21.4
			c0-0.2,0-0.5,0-0.5C1487.5,122.4,1486.1,121.7,1484.5,121 M1426.9,18.4c0.4-0.3,0.5-0.4,0.5-0.5c0.3-0.6,0.5-1.3,0.7-1.9
			c1.4-4.2,4.2-7.1,8-9.2c1-0.5,2.2-0.7,3.3-0.9c0.5-0.1,1.1,0.2,1.5,0.5c0.3,0.2,0.5,0.8,0.5,1.2c0,0.2-0.6,0.5-0.9,0.6
			c-0.8,0.3-1.7,0.4-2.5,0.8c-3.3,1.6-5.5,4.2-6.9,7.5c-0.6,1.4-1.4,2.9-1.1,4.7c4.3-7,10.6-9.6,18.3-8.8c0.2-0.4,0.3-0.5,0.4-0.6
			c0.1-0.2,0.2-0.4,0.2-0.6c0.9-4.9-0.7-9.1-3.7-12.9c-1-1.2-2.3-1.5-3.9-1.2c-2.8,0.6-5.2,1.9-7.4,3.8c-4.6,4-7.1,9.1-7.2,15.2
			C1426.6,16.8,1426.8,17.5,1426.9,18.4 M1476.7,209.4c2.6,0.6,5.2,1.2,7.7,1.8c0.6-2.9,0.1-8-1-9.9
			C1481.2,203.9,1479,206.7,1476.7,209.4 M1464.3,203.5c-0.1-0.1-0.3-0.3-0.4-0.4c-3.1,2.4-6.1,4.8-9.2,7.2c0.1,0.1,0.1,0.3,0.2,0.4
			c1.7-0.1,3.3-0.3,5-0.4c0.9-0.1,1.5-0.4,1.9-1.3C1462.6,207.1,1463.5,205.3,1464.3,203.5 M1472.5,209.3c2.5-2.3,5-4.5,6.7-7.5
			c-3.3,1.7-6.6,3.5-10.2,5.4C1470.3,208,1471.3,208.6,1472.5,209.3 M1450,210.1c2.1-1.6,4.3-2.6,5.6-4.9c-2.5,0.8-4.9,1.7-7.6,2.6
			C1448.9,208.6,1449.4,209.2,1450,210.1 M1480.8,119.6c-2.4-0.1-5-0.3-7.7-0.4C1474.5,121,1478.5,121.1,1480.8,119.6 M1487.5,119.6
			c1.4,0.5,2.9,0.8,4.7-0.1C1490.3,119.5,1488.9,119.5,1487.5,119.6"/>
		<path class="st2" d="M1457.5-2.5c0.1,1.1-1,2.3-2.1,2.4c-1.1,0.1-2.1-0.9-2.2-2.2c-0.1-1.1,0.9-2.4,1.9-2.5
			C1456.1-4.9,1457.4-3.7,1457.5-2.5"/>
		<path class="st2" d="M2067.9,173.3c-0.5-0.6-0.7-0.9-0.9-1.1c-2.9-2.6-4.9-6-6.9-9.3c-4.2-7.2-7.3-15-10.4-22.7
			c-1.2-3.1-2.1-6.2-3-9.4c-0.8-2.7-1.5-5.5-1.7-8.3c-0.3-2.8-0.3-5.5-0.4-8.3c0-0.4-0.1-0.7-0.1-1.1c-1.4-0.2-2.5,0.4-3.7,0.8
			c-3.1,0.9-6.1,1.9-9.2,2.8c-3.9,1.1-7.9,2.2-11.8,3.3c-4.9,1.3-9.9,2.6-14.9,3.9c-2,0.5-4,0.7-6,1.1c-1.7,0.4-3.3,0.9-5,1.2
			c-2.5,0.5-4.9,0.8-7.4,1.3c-1.9,0.3-3.8,0.6-5.7,0.9c-3.9,0.7-7.9,1-11.9,1.1c-1.2,0-1.4,0-1.8,1.3c-0.6,2.1-1.3,4.2-1.6,6.4
			c-0.7,4.6-1.2,9.3-1.8,13.9c-0.4,3.1-0.9,6.2-1.2,9.3c-0.4,4.4-0.7,8.9-0.9,13.3c-0.3,5-0.5,9.9-0.6,14.9c-0.1,5.1,0,10.2,0,15.3
			c0,0.6-0.1,1.2,0.1,1.7c0.5,1.6-0.3,3.1-0.6,4.6c0,0.3-0.8,0.7-1.1,0.6c-1.7-0.4-3.1,0.3-4.6,0.8c-4.1,1.4-8.3,1.3-12.5,1
			c-2-0.1-4-0.3-6-1c-1.3-0.4-2.8-0.3-4.1-0.9c-0.5-0.3-1.1-0.5-1.5-0.8c-1.2-0.9-2.3-0.8-3.6-0.1c-5,2.5-9.9,5.2-15.3,6.8
			c-3.2,0.9-6.4,1.7-9.6,2.3c-3,0.6-6.1,0.9-9.2,1.3c-1.2,0.2-2.5,0.5-3.7,0.6c-2.2,0.3-4.5,0.4-6.7,0.6c-3.8,0.3-7.7,0.4-11.4,1.1
			c-1.8,0.3-3.6,0-5.4,0.3c-1.8,0.3-3.7,0.2-5.5,0.2c-1.8,0-3.7,0-5.5-0.1c-1.4,0-2.8,0.1-4.2-0.1c-2.8-0.3-5.5-0.7-8.3-1
			c-1-0.1-2.1-0.1-3.1-0.3c-1.6-0.3-3.2-0.6-4.7-1.1c-3.5-1-7-1.9-10.4-3.1c-1.9-0.7-3.6-1.9-5.2-3.1c-0.5-0.4-0.8-1.4-0.9-2.1
			c-0.3-5.5-0.6-11.1-0.8-16.7c-0.1-4.3,0-8.6,1-12.8c1.2-5.3,3.6-10.1,7.6-14c1.6-1.6,3.1-3.2,5.1-4.3c1.3-0.7,2.7-1.5,4.1-2
			c5.6-2,11.3-3.9,17.1-5.3c2.3-0.5,4.6-1,6.9-1.5c0.4-0.1,0.7-0.1,1.1-0.3c1.3-0.5,2.1-1.2,2.1-2.7c0-2.6,0.2-5.1,0.3-7.7
			c0.1-4.7,0.1-9.3,0.1-14c0-6.7-0.3-13.4-0.9-20.1c-0.4-5-0.6-9.9-1.3-14.9c-0.7-5.2-1.4-10.4-3.2-15.4c-1-2.8-2-5.5-3.8-7.9
			c-1-1.3-2-2.5-3.5-3.3c-0.8-0.4-1.4-1.2-2.1-1.7c-1.7-1.1-3.3-2.1-5-3.2c-1.4-0.9-2.9-1.7-4.2-2.7c-1.2-0.9-2.3-1.7-3.9-1.7
			c-2.9,5.6-7,10.3-11.7,14.6c-2.5,2.3-5.2,4.4-7.5,6.9c-3.2,3.3-6.9,6-10.5,8.9c-1.4,1.1-2.7,2.3-4,3.6c-3.3,3.1-6.7,6-10.4,8.5
			c-2.8,1.9-5.4,4.1-8.1,6.2c-2.4,1.9-4.8,3.7-7.2,5.6c-3.3,2.7-6.7,5.1-10.4,7.3c-2.1,1.2-4.3,2.2-6.3,3.5c-3.7,2.4-7.8,4-11.8,5.8
			c-2.4,1.1-4.7,2.2-7.1,3.3c-1,0.5-2.1,0.7-3,1.2c-3.4,1.7-6.9,2.9-10.5,4.1c-4.2,1.4-8.3,2.8-12.5,4c-2.3,0.7-4.6,1.4-7,1.8
			c-3.6,0.7-7.3,1.2-11,1.8c-3.8,0.6-7.6,1.2-11.5,1.8c-2.9,0.4-5.8,0.8-8.7,1.1c-2.4,0.3-4.8,0.5-7.2,0.7c-0.8,0.1-1.6,0.1-2.4,0.1
			c-3.2,0.1-6.5,0.2-9.7,0.3c-3.7,0.1-7.3,0-11,0.1c-3.1,0-6.3,0.2-9.4,0.3c-2.4,0-4.8,0.1-7.2-0.6c-0.3-0.1-0.6-0.1-0.9-0.1
			c-4.4-0.3-8.5-1.7-12.4-3.7c-4.3-2.2-8.2-5.1-12-7.9c-2.1-1.6-4.2-3.1-6.3-4.7c-3.1-2.3-5.8-4.9-8.4-7.7
			c-4.2-4.6-7.7-9.6-10.1-15.4c-0.9-2.2-1.9-4.3-2.9-6.5c-1.2-2.8-2.2-5.6-2.7-8.7c-0.4-2.3-1.2-4.6-1.6-6.9
			c-0.4-1.8-0.6-3.7-0.7-5.6c-0.2-2.8-0.4-5.5-0.4-8.3c0-2.9,0.2-5.8,0.9-8.6c0.7-2.9,1.3-5.8,1.9-8.7c0.6-3.1,2.2-5.9,3.3-8.8
			c1.5-3.9,3.6-7.5,5.7-11.1c0.3-0.4,0.4-0.9,0.6-1.4c-0.5-1.8-1.8-3.1-2.8-4.5c-2.7-3.7-5-7.8-6.7-12.1c-1.3-3.4-2.6-6.8-3.7-10.3
			c-1-3.2-1.8-6.5-2.5-9.7c-0.7-2.9-1.2-5.7-1.7-8.6c-0.2-0.9-0.3-1.9-0.3-2.8c-2.2-16.7-1.2-26.3,0-35.3c1.2-9,0.2-2.4,0.5-3.6
			c0.6-2.9,1.3-5.8,1.9-8.7c0.7-3.2,1.8-6.3,3.2-9.4c1.2-2.7,2.3-5.5,3.6-8.2c1.5-3.2,3.6-6,5.7-8.8c0.4-0.5,1-0.9,1.5-1.4
			c0.7-0.7,1.5-1.2,2.2-2c0.6-0.6,1.2-0.6,1.9-0.4c0.7,0.2,0.8,0.8,0.9,1.5c0.2,2,0.6,3.9,0.9,5.9c0.1,0.9,0.3,1.8,0.5,2.6
			c0.2,1,0.5,1.9,0.9,2.8c2,5.5,4.1,11,7.6,15.8c0.9,1.3,1.6,2.7,2.4,4c2.5,4.3,5.3,8.3,8.5,12.1c3.4,4,6.6,8.2,10.2,12.1
			c3.7,4,7.9,7.5,11.9,11.1c1.8,1.6,3.5,3.3,5.4,4.8c1.3,1.1,2.7,1.9,4,2.8c2.7-1.6,5.5-2.4,8.3-3.3c2.7-0.9,5.5-1.7,8.3-2.6
			c-0.3-0.8-0.6-1.4-0.8-2.1c-0.7-2-1.6-4-2-6.1c-0.8-3.3-1.5-6.6-1.9-10c-0.5-3.8-0.8-7.6-0.4-11.5c0.1-0.7,0.1-1.4,0.1-2
			c0.1-4.6,1.1-9.1,1.8-13.7c0.6-3.9,2.4-7.3,4.1-10.8c0.6-1.2,1.2-2.3,1.9-3.4c0.3-0.5,0.6-1,1-1.4c1.2-1.4,2.9-1.3,3.8,0.3
			c0.6,1,1.1,2.1,1.6,3.2c1.4,3.3,3.2,6.5,4.6,9.8c2.3,5.6,4.9,11.1,8.7,16c2.7,3.5,5.6,6.9,8.6,10.2c1.8,2,4,3.6,6.1,5.5
			c2-1,4-2,6-3c3.3-1.6,6.4-3.4,9.4-5.3c2.4-1.6,4.8-3.4,7.2-5c3-2.1,5.8-4.5,8.3-7.1c1.3-1.2,2.4-2.6,3.5-4
			c2.6-3.3,4.9-6.8,6.6-10.6c1.2-2.9,2.1-6,3.1-9.1c1.1-3.5,1.3-7.2,1.8-10.8c0.8-5,1.3-10.1,2-15.1c0.4-2.6,1-5.1,1.5-7.7
			c0.1-0.6,0.2-1.1,0.3-1.7c0.2-0.8,0-1.4-0.7-2c-1.3-1.2-2.5-2.7-3.6-4.1c-2.5-3.2-4.6-6.6-6-10.4c-0.4-1.1-0.7-2.3-1-3.5
			c-0.7-3-1.3-6.1-1.6-9.3c-0.3-3.7-0.3-7.4,0.1-11.1c0.2-2.1,0.6-4.3,0.9-6.4c0.3-1.5,0.6-3,0.9-4.4c0.5-2.3,1.1-4.7,1.7-7
			c0.5-1.8,1.6-2.3,3.3-1.4c0.8,0.5,1.6,1,2.3,1.7c2.6,2.4,5.2,4.8,7.7,7.4c1.2,1.2,2.1,2.6,2.9,4.1c1.6,3,3.1,6.2,4.1,9.5
			c0.4,1.3,0.6,2.8,0.9,4.1c0.1,0.4,0.2,0.8,0.3,1.3c0.7-0.5,1.3-0.8,1.8-1.2c4.8-3.9,9.9-7.2,15.7-9.4c2.5-1,4.9-2.2,7.3-3.2
			c1.5-0.6,3.1-1,4.6-1.4c3.3-0.8,6.6-1.7,9.9-2.3c2.9-0.6,5.8-0.8,8.7-1.2c7.4-1.2,14.9-0.3,22.3-0.6c3.2-0.2,6.3-0.1,9.4,0.7
			c0.6,0.2,1.3,0.1,2.1,0.2c0.3-0.7,0.6-1.3,0.7-1.9c1.2-4.2,3.2-8,5.6-11.7c3-4.6,6.7-8.5,11-11.9c3.3-2.6,7-4.4,10.8-6.1
			c1.1-0.5,1.8,0,2.6,0.6c0.6,0.4,1.1,1,1.8,1.3c1.8,0.9,2.7,2.5,3.4,4.2c1.5,3.3,3,6.5,3.9,10.1c0.8,3.3,1.1,6.6,1,10
			c-0.1,3.1-0.2,6.2-0.7,9.2c-0.5,3.6-1.5,7-2.3,10.6c-0.3,1.2-0.8,2.4-1.1,3.6c-0.1,0.4,0,0.9,0.1,1.3c0.2,0.6,0.5,1.2,0.6,1.9
			c0.2,0.6,0.2,1.3,0.3,1.9c1.1,3.5,1.7,7.1,2.6,10.7c1.2,5.1,2.7,10.1,4.1,15.2c1.6,5.7,4.2,11.1,6.5,16.5c0.9,2.2,1.7,4.4,2.6,6.7
			c1.1-0.3,2.2-0.6,3.2-1c1-0.4,1.9-0.9,2.9-1.2c2-0.7,4-1.3,5.9-2.1c2.5-1,4.9-2.1,7.3-3.3c4.4-2.1,8.9-4.2,13.3-6.4
			c4.1-2.1,8.1-4.3,12.2-6.5c3-1.6,5.9-3.1,8.9-4.6c7.2-3.8,14.5-7.5,21.8-11c4.9-2.3,9.7-4.7,14.6-7c3.3-1.5,6.6-2.8,10-4.2
			c3.6-1.5,7.2-3,10.8-4.3c4.8-1.7,9.6-3.2,14.4-4.9c5.8-2,11.8-3.4,17.8-4.4c5.2-0.9,10.4-1.2,15.6-1.8c4.2-0.5,8.5-0.3,12.7-0.3
			c3.1,0,6.3,0.4,9.4,0.6c2.9,0.2,5.8,0.3,8.6,0.4c2.9,0.1,5.7,0.4,8.6,1c1.8,0.4,3.7,0.7,5.6,0.9c3.5,0.5,6.8,1.7,10.2,2.7
			c2.7,0.8,5.4,1.6,8.1,2.4c1.4,0.4,2.8,0.9,4.2,1.4c2.4,0.9,4.9,1.7,7.2,2.8c3.2,1.6,6.3,3.4,9.3,5.3c3.4,2.2,6.8,4.5,10.1,6.9
			c1.3,0.9,2.3,2.1,3.4,3.3c2.8,3.1,5.5,6.2,8.2,9.3c2.7,3,5.5,6,8.1,9.1c1.8,2.1,3.3,4.4,5,6.6c1.2,1.5,2.2,3.1,3,4.8
			c0.5,1.1,1,2.3,1.5,3.4c1.6,3.9,2.8,8,5,11.6c1.2,2,2,4.4,3,6.5c0.6,1.2,1.3,2.4,1.9,3.6c3,5.3,5.5,10.8,7.6,16.5
			c1.4,3.8,3,7.6,4.3,11.4c1.4,4.1,2.6,8.3,3.5,12.5c0.9,4.4,2,8.8,2.1,13.3c0.1,2,0.4,4,0.5,6c0.1,1.5,0.1,3,0.1,4.5
			c0,3,0,6.1-0.1,9.1c-0.1,4.8-0.2,9.5-0.4,14.3c-0.3,4.9-0.8,9.7-1.1,14.6c-0.1,0.9,0,1.9-0.1,2.8c-0.2,2.6-0.5,5.2-0.7,7.8
			c-0.6,7.3-0.8,14.7-0.6,22c0.1,4,0.7,8,1,12c0.2,2.8,0.9,5.6,1.5,8.3c0.2,0.9,0.8,1.3,1.5,1.7c2.1,0.9,3.4,2.6,4.5,4.4
			c1,1.6,1.8,3.5,2.3,5.3c1.1,3.9,1.9,7.8,2.9,11.7c0.2,1,0.4,2.1,0.5,3.1c0.7,7.4,1.3,14.8,1,22.3c-0.1,2.8,0,5.7-0.3,8.5
			c-0.3,3.1-0.8,6.2-1.3,9.3c-0.2,1.5-0.7,2.9-0.9,4.4c-0.2,0.9,0,1.9-0.2,2.8c-0.1,0.5-0.3,1.1-0.6,1.6c-0.4,0.6-1,0.7-1.7,0.5
			c-0.7-0.2-0.6-0.8-0.7-1.3c-0.4-2.2-0.6-4.5-1.2-6.6c-0.9-3.7-2.8-7-4.6-10.3c-2.1-4-4.2-8.1-6.2-12.1c-3.4-7-4.8-14.4-3.7-22.2
			c0.9-6.5,2.6-12.8,5.6-18.7c0.7-1.3,0.9-2.5,0.6-4c-1.2-5.7-2.1-11.5-2.2-17.4c-0.1-4.2-0.3-8.5-0.4-12.7c0-0.7,0-1.5,0.1-2.2
			c0.4-5.6,0.8-11.3,1.2-16.9c0.4-5.9,0.8-11.8,1.3-17.7c0.8-9.5,0.7-19,0.5-28.5c-0.1-4-0.6-8.1-1.2-12c-0.6-3.9-1.4-7.7-2.3-11.6
			c-0.5-2.2-1.4-4.3-2-6.4c-2.1-6.6-4.5-13-7.4-19.3c-0.1-0.2-0.2-0.3-0.6-0.4c0,0.6,0,1.2,0.2,1.8c1.4,4.3,2.7,8.6,3.7,13
			c0.5,2,1.2,4,1.7,6c0.6,2.4,1.1,4.8,1.5,7.2c0.4,2.3,0.8,4.5,1.1,6.8c0.5,3.8,1.4,7.5,1.3,11.4c0,2,0.3,4.1,0.2,6.1
			c-0.1,5.6-0.6,11.2-1.2,16.8c-0.4,3.3-1.3,6.6-2.1,9.8c-0.6,2.3-1,4.6-1.5,6.9c-0.1,0.4-0.1,0.7-0.2,1.1c-1.1,3.3-2.1,6.6-3.2,9.8
			c-0.8,2.3-1.7,4.5-2.6,6.7c-0.4,0.9-0.9,1.8-1.5,2.6c-1.5,2.1-2.3,4.5-3.4,6.9c-2.9,6.1-6.2,11.9-10.2,17.3
			c-1.6,2.2-2.3,4.7-2.9,7.2c-0.4,1.7-0.6,3.4-1,5.1c-1.1,5-1.6,10.1-2.1,15.2c-0.3,4-0.6,7.9-0.6,11.9c0,5.1,0.4,10.3,0.7,15.4
			c0.2,3.4,0.5,6.8,0.9,10.2c0.2,1.9,0.5,3.8,0.8,5.8c0.3,1.9,0.5,3.8,0.9,5.7c0.4,2.3,0.8,4.5,1.2,6.8c0.4,2.1,0.7,4.2,1.2,6.3
			c0.6,2.5,1.2,5,1.9,7.5c0.5,1.9,0.8,3.8,1.5,5.6c1.1,3.1,1.9,6.3,3.3,9.3c2.1,4.4,4.8,8.3,7.2,12.5c0.7,1.1,1.3,2.3,2,3.4
			c0.5,0.7,0.4,1.3-0.2,1.9c-1.8,1.9-3.5,3.9-5.6,5.5c-4.2,3.2-8.9,5.4-13.8,7.3c-2.9,1.1-5.8,2.4-8.7,3.5c-3.5,1.3-7,2.7-10.8,3.4
			c-5.2,0.9-10.3,2.1-15.4,3.1c-3,0.6-6.1,1.1-9.1,1.6c-3.8,0.6-7.6,1.1-11.3,1.6c-3.5,0.5-7,1.2-10.5,1.6c-1.6,0.2-3.1,0-4.7,0.1
			c-2.6,0.1-5.1,0.4-7.7,0.5c-4.1,0.2-8.2,0.4-12.3,0.4c-3.8,0-7.6-0.2-11.4-0.4c-1.5-0.1-3-0.2-4.5-0.3c-1.4-0.1-2.8-0.1-4.1-0.8
			c-0.4-0.2-1-0.2-1.5-0.1c-0.9,0.2-1.6,0.1-2-0.8c-0.4-0.7-0.8-1.4-1.1-2c-0.5-1-1-1.9-1.5-2.9c-0.3-0.7-0.6-1.3-0.9-2
			c-0.7-1.6-1.5-3.2-2.1-4.9c-1.8-4.2-2.6-8.6-2.5-13.2c0-1.5-0.1-2.9,0.1-4.4c0.3-3.1,1.6-5.7,3.5-8.1c2.3-2.9,5.4-4.9,8.7-6.6
			c3.2-1.7,6.4-3.1,9.8-4.2C2064.3,174.5,2066,174,2067.9,173.3 M2080.5,54.6c-2.5,2.8-4.9,5.4-7.1,8c-2.2,2.5-4.3,5.1-6.4,7.7
			c-0.5,0.6-1,1.3-1.6,2c-2.7,3.1-5.2,6.3-7.2,9.9c-1.1,1.9-2.3,3.7-3.2,5.6c-1.6,3.6-3.1,7.3-4.6,11c-0.6,1.5-0.9,3.1-1.3,4.7
			c-0.4,1.7-1,3.3-1.1,5c-0.2,2.9-0.3,5.9-0.2,8.8c0.1,2.3,0.6,4.7,0.7,7c0.1,3.1,1,6.1,1.9,9.1c0.8,2.6,1.6,5.3,2.8,7.8
			c1.6,3.5,2.8,7.1,4.2,10.7c1.2,3.1,2.6,6.2,4.6,8.9c1.1,1.5,2.1,3,3.3,4.4c1.9,2.4,3.9,4.8,6,7.1c1.1,1.2,1.1,1.1,0.6,2.5
			c-2.7,0.8-5.4,1.6-8,2.4c-0.4,0.1-0.8,0.3-1.2,0.4c-3.3,1.4-6.5,3.1-9.7,4.8c-4.4,2.3-7.6,5.5-9.3,10.2c-0.3,0.9-0.5,1.8-0.6,2.7
			c0,2.2,0.1,4.4,0.1,6.6c0,0.4,0.1,0.7,0.2,1c1.3-1,2.5-1.9,3.8-2.7c2.6-1.8,5.4-2.5,8.5-1.9c2.3,0.5,4.5,1.2,6.2,3.1
			c2,2.3,3.5,4.8,4.5,7.7c1.5,4.7,2.5,9.5,2.5,14.6c1.7,0.1,3.3,0.5,4.9,0.1c0.4-1.7-0.4-3-0.7-4.4c-0.6-2.7-0.9-5.4-0.8-8.1
			c0.1-2.8,1-5.4,2.1-7.8c1.2-2.5,2.7-4.9,5.8-5.5c1.6-0.3,3.2-0.7,4.8-0.6c2.7,0.2,4.8,1.7,6.6,3.6c1.8,1.9,2.6,4.3,3.4,6.8
			c1.1,3.8,2.2,7.5,2.5,11.5c0.1,1.1,0.4,2.2,0.7,3.4c0.9-0.1,1.7-0.1,2.5-0.2c3.5-0.5,7-1.1,10.6-1.6c4.4-0.7,8.8-1.5,13.2-2.3
			c5.3-1,10.5-2,15.7-3c3.7-0.7,7.4-1.7,10.9-3.1c5.4-2.2,10.9-4.4,16.3-6.6c3.4-1.4,6.4-3.4,9.2-5.6c1.3-1,2.3-2.3,3.4-3.4
			c-2.6-4.4-5.8-8.3-7.9-12.8c-1.5-3.3-3.5-6.4-4.7-9.9c-1.3-3.7-2.2-7.5-3.3-11.3c-0.6-2.2-1-4.5-1.4-6.8c-0.6-3.3-1.1-6.7-1.7-10
			c-0.1-0.9-0.2-1.8-0.3-2.7c-0.9-4.2-1.2-8.4-1.5-12.6c-0.3-3.8-0.2-7.6-0.6-11.3c-0.5-4.2,0.3-8.5-0.6-12.6
			c-0.2-0.8,0.1-1.8,0.2-2.7c0.1-3.7-0.1-7.3,0.4-11c0.4-3,0.2-6.1,0.9-9.1c0.3-1.2,0.5-2.5,0.8-3.7c0.4-1.9,0.9-3.8,1.3-5.7
			c0.5-2.4,1.2-4.8,2.2-7c1-2.3,2-4.5,3.6-6.6c1.9-2.4,3.5-5.1,5.1-7.7c1.1-1.9,2.1-4,3-6c3.2-6.8,6.7-13.5,8.6-20.9
			c0.9-3.2,1.6-6.5,2.3-9.8c0.4-1.9,0.7-3.8,1.1-5.7c0.4-2.4,1-4.8,1.3-7.3c0.8-6.3,1.4-12.6,1.3-19c-0.1-6.4-0.5-12.8-1.9-19
			c-0.6-2.9-1.1-5.8-1.7-8.6c-0.4-1.7-0.8-3.3-1.3-5c-0.9-3.4-1.7-6.8-2.7-10.2c-0.9-3.3-2-6.5-3-9.8c-1.2-3.6-2.3-7.2-3.6-10.7
			c-2.2-5.8-4.6-11.5-6.9-17.2c-1.7-4.4-4.3-8.1-7.4-11.6c-1.6-1.8-3.1-3.6-4.7-5.4c-1.8-2.1-3.6-4.1-5.4-6.1
			c-2.4-2.7-4.9-5.3-7.4-7.9c-0.8-0.9-1.7-1.8-2.6-2.5c-2-1.5-4.2-3-6.2-4.5c-1.7-1.2-3.4-2.4-5.2-3.5c-1.6-1-3.3-2.1-5-2.9
			c-1.8-0.9-3.8-1.6-5.7-2.3c-1.9-0.7-3.7-1.5-5.6-2c-3.1-0.9-6.3-1.6-9.4-2.5c-2.1-0.6-4.2-1.4-6.3-2.1c-1.3-0.4-2.7-0.7-4.1-0.9
			c-2.2-0.2-4.3-0.7-6.5-1c-2-0.3-4-0.7-6-0.9c-1.6-0.2-3.1-0.1-4.7-0.2c-5.2-0.2-10.4-0.6-15.6-0.7c-3.8-0.1-7.6-0.1-11.3,0.2
			c-5.1,0.4-10.2,1.2-15.3,1.8c-4.1,0.5-8,1.6-12,2.6c-2.6,0.6-5.2,1.6-7.8,2.4c-4.6,1.5-9.2,3.1-13.9,4.6c-1,0.3-2,0.6-3,1
			c-1.5,0.6-2.9,1.4-4.4,2c-2.5,1-5,1.8-7.4,2.9c-6.1,2.8-12.2,5.8-18.3,8.7c-3.3,1.6-6.6,3.1-9.9,4.8c-3.8,1.9-7.5,3.9-11.3,5.8
			c-7.2,3.7-14.4,7.5-21.6,11.2c-1.7,0.9-3.3,1.9-5.1,2.8c-2.4,1.2-4.8,2.3-7.2,3.4c-3.5,1.7-6.9,3.4-10.6,4.6
			c-3.4,1.1-6.7,2.6-10.1,3.9c-0.1,0.1-0.2,0.2-0.4,0.3c0,0.2,0,0.4,0.1,0.6c1.5,3.4,2.9,6.9,4.4,10.2c1.5,3.3,3.2,6.6,4.8,9.8
			c2.6,5.2,5.6,10.1,8.6,15c2.6,4.3,5.1,8.6,8.4,12.5c0.5,0.6,0.4,1.4-0.2,1.6c-1.6,0.6-3.3,1.2-5,1.8c-0.5-0.6-0.9-1.1-1.3-1.7
			c-1.7-2.9-3.5-5.7-5.1-8.6c-3.1-5.6-6.1-11.3-9-17.1c-1.3-2.4-2.4-4.9-3.5-7.4c-1.4-3.2-2.7-6.4-4-9.5c-1.2-2.9-2.4-5.7-3.5-8.6
			c-1.7-4.5-3.4-9-4.9-13.6c-1.1-3.2-2.1-6.4-3-9.6c-0.8-2.6-1.3-5.3-2.2-7.9c-2-5.7-3.2-11.6-4.2-17.5c0-0.3-0.2-0.5-0.3-0.9
			c-0.9,1.2-1.5,2.5-2.4,3.4c-1,1-2.1,1.8-3.3,2.5c-0.3,0.2-0.9,0.2-1.4,0.1c-0.3-0.1-0.7-0.5-0.7-0.7c0.2-1,0.2-2.3,0.8-2.9
			c2-2.1,3.2-4.5,4.2-7.1c2.9-7.5,4.6-15.3,4.9-23.3c0.1-3,0-6-0.3-8.9c-0.5-4.1-1.8-8-3.6-11.7c-0.6-1.3-1.6-2.4-2.6-3.5
			c-0.8-0.9-1.9-1.2-3.1-0.6c-1.2,0.7-2.6,1.2-3.8,1.9c-5.3,3.2-9.9,7.2-13.6,12.2c-2,2.7-3.5,5.6-5,8.5c-1.1,2.1-1.8,4.4-2.3,6.5
			c0.5,0.8,1,1.4,1.3,2c0.1,0.2,0,0.8-0.2,1c-0.3,0.2-0.8,0.2-1.1,0.1c-0.8-0.1-1.5-0.4-2.2-0.6c-0.9-0.2-1.9-0.3-2.8-0.4
			c-2.1-0.2-4.2-0.6-6.2-0.7c-2-0.1-4.1,0.2-6.1,0.2c-3.3,0-6.6-0.2-9.9-0.1c-5.8,0.2-11.5,0.7-17.2,1.7c-4,0.7-8,1.7-11.8,3
			c-4.6,1.6-9.1,3.4-13.5,5.5c-3.1,1.5-6.1,3.2-8.8,5.4c-1.9,1.6-3.8,3.2-5.7,4.6c-1.9,1.4-3.3,3.2-4.1,5.3c-1.3,3.3-2.2,6.6-3.2,10
			c-0.5,1.6-0.8,3.2-1.1,4.7c-0.5,2.7-1.1,5.3-1.6,8c-0.3,1.5-0.5,3-0.8,4.5c-0.7,3.7-1.3,7.4-2,11.1c-0.1,0.7-0.1,1.5-0.2,2.2
			c-0.3,2.3-0.7,4.6-0.9,6.8c-0.3,2.5-0.5,5.1-0.8,7.6c0,0.2,0,0.3-0.1,0.5c-0.5,1.8-1,3.6-1.5,5.4c-0.9,2.8-1.6,5.8-2.9,8.4
			c-2,4.2-4.6,8.1-7.7,11.6c-3.2,3.6-6.8,6.6-10.6,9.4c-2.1,1.5-4.2,3-6.3,4.4c-2.5,1.6-5,3.3-7.6,4.7c-4.1,2.2-8.2,4.1-12.4,6.2
			c-5.5,2.8-11.1,5.7-16.8,7.9c-3.3,1.3-6.5,2.5-9.8,3.9c-2.1,0.9-4.5,1.1-6.3,2.7c-0.1,0.1-0.3,0.1-0.4,0.1c-1.3,0.3-2.7,0.4-4,0.8
			c-3,0.9-6,1.8-9,2.9c-1.1,0.4-2.4,0.8-3.1,2c0.1,0.2,0.2,0.3,0.3,0.4c1.8,1.1,3.6,2.1,5.4,3.1c0.7,0.4,1.1,0.9,1.2,1.7
			c0.4,1.8,0.2,3.5-0.3,5.4c-0.9,3.1-2.2,6.1-4,8.8c-2.6,4.2-5.7,8-9,11.6c-1,1.1-1.8,2.3-2.9,3.2c-2.7,2.3-5.4,4.4-8.2,6.6
			c-1.1,0.8-2.2,1.6-3.3,2.3c-1.4,0.9-3,1.7-4.4,2.7c-4.6,3.1-9.6,4.8-15,5.6c-3.3,0.5-6.5,0.9-9.8,0.2c-1.6-0.4-3.3-0.5-5-0.8
			c-0.5-0.1-1-0.1-1.6-0.2c-1.4,2.5-2.8,4.8-4,7.3c-1,1.9-1.6,4-2.4,6c-0.9,2.4-2,4.7-2.8,7.2c-0.6,1.8-0.9,3.8-1.2,5.7
			c-0.5,2.8-1.1,5.6-1.3,8.4c-0.3,4.6,0.2,9.1,0.7,13.6c0.3,2.7,1,5.5,1.6,8.2c0.3,1.6,0.6,3.2,1.1,4.7c1,2.7,2,5.4,3.2,8
			c1.5,3.2,3.2,6.2,4.8,9.3c0.6,1.2,1.3,2.4,2.2,3.4c2.3,2.8,4.8,5.5,7.2,8.3c0.4,0.5,1,0.9,1.5,1.3c1.8,1.4,3.6,2.8,5.5,4.2
			c3.4,2.4,6.8,4.9,10.2,7.3c2,1.4,4,2.7,6.1,3.8c2,1.1,4.1,2.2,6.5,2.1c0.3,0,0.5,0.1,0.8,0.2c2.4,1,4.9,1.3,7.4,1.3
			c8.7,0,17.4-0.1,26.1-0.2c0.9,0,1.8-0.2,2.7-0.2c2.1-0.1,4.2,0,6.3-0.1c3.2-0.2,6.5-0.4,9.7-0.8c4.7-0.6,9.4-1.5,14.1-2.2
			c4.6-0.6,9.1-1.1,13.6-2.1c2.8-0.6,5.5-1.2,8.2-1.9c3.9-1.1,7.7-2.3,11.5-3.6c2.6-0.9,5.2-1.8,7.7-2.8c4.8-2,9.5-4.1,14.2-6.2
			c2.8-1.3,5.6-2.7,8.3-4.1c1.6-0.8,3.2-1.8,4.8-2.7c2.8-1.6,5.7-3.1,8.4-4.8c1.2-0.7,2.3-1.7,3.4-2.5c4.1-3.2,8.2-6.4,12.3-9.5
			c2.1-1.6,4.3-3.2,6.4-4.8c2.1-1.6,4.2-3.1,6.2-4.8c3-2.5,5.8-5.1,8.7-7.6c3-2.6,6.1-5.1,9.1-7.7c2.6-2.2,5-4.6,7.5-6.9
			c2.2-2.1,4.6-4.2,6.5-6.6c2.5-3.2,4.8-6.6,6.6-10.3c2.6-5.5,3.8-11.2,4.3-17.1c0.5-6.6,0.5-13.3,0.4-20c-0.1-4.1,0.4-8.2-0.8-12.2
			c-0.1-0.4,0-0.8,0-1.2c0.3-0.1,0.4-0.2,0.6-0.2c1.3,0.4,2.7,0.8,4,1.2c0.2,0.1,0.5,0.6,0.5,0.9c0.3,3.2,0.7,6.3,0.9,9.5
			c0.2,3,0.2,6,0.3,8.9c0,2.2-0.1,4.5,0.1,6.7c0.2,3.1-0.2,6.2-0.5,9.2c-0.2,1.6-0.6,3.1-0.8,4.6c-0.5,3.8-1.1,7.5-3.5,10.8
			c-0.3,0.4-0.4,0.8-0.6,1.4c0.4,0.3,0.9,0.7,1.4,1c1.2,0.7,2.3,1.4,3.5,2.1c1.4,0.8,2.9,1.6,4.3,2.5c1.8,1.2,3.4,2.6,5.1,3.9
			c0.7,0.6,1.4,1.3,1.9,2c2.9,4.1,4.7,8.6,5.8,13.4c0.4,1.7,0.6,3.4,0.9,5.1c0.5,3.1,0.9,6.1,1.3,9.2c0.4,3.5,0.9,7.1,1.1,10.6
			c0.3,5.2,0.5,10.3,0.7,15.5c0,0.8-0.2,1.6-0.2,2.3c0,2.1,0.2,4.3,0.2,6.4c0,3.2,0,6.4,0,9.6c0,1.6,0.1,3.2,0,4.9
			c-0.1,2.2-0.3,4.5-0.5,6.7c-0.1,0.9-0.5,1.6-1.4,1.9c-2,0.6-3.9,1.1-5.9,1.6c-2.6,0.6-5.3,1-7.8,1.7c-3.7,1.1-7.3,2.4-10.9,3.6
			c-3.8,1.2-7.2,3.1-10,6c-2.1,2.1-4.1,4.3-5.2,7.2c-0.9,2.4-2,4.7-2.6,7.2c-0.5,1.8-0.5,3.7-0.7,5.6c0,0.1,0.1,0.3,0.2,0.5
			c0.2-0.2,0.4-0.2,0.5-0.4c1.3-2.1,3.5-2.8,5.7-3.7c0.5-0.2,1.1-0.4,1.7-0.3c2.3,0.2,4.6,0.6,6.5,2.3c2.7,2.3,4.2,5.2,5.1,8.4
			c0.5,1.7,0.6,3.5,0.9,5.2c0.1,0.5,0.1,1,0.1,1.6c0.1,3.1,0.2,6.2,0.2,9.3c0,0.6-0.1,1.3-0.1,1.9c-0.2,1.6-0.5,3.2-0.1,4.9
			c1.2,0.6,2.5,0.8,4,0.6c0-1,0-1.9,0-2.7c-0.1-2.3-0.2-4.6-0.2-6.9c0-1.4,0.2-2.7,0.1-4.1c-0.1-3.2,1-6.1,2.4-8.8
			c1.4-2.8,3.6-5.1,6.5-6.6c1.6-0.8,3.1-1.3,4.8-1c3.9,0.6,7.2,2.2,9.4,5.6c0.7,1.1,1.4,2.3,2,3.6c0.7,1.5,1.4,3.1,1.7,4.7
			c0.5,2.9,0.8,5.9,1,8.9c0.1,1-0.1,2-0.2,3c-0.2,1.5-0.3,3,0,4.7c0.6,0,1.1,0,1.6,0c2.6-0.2,5.2-0.5,7.8-0.7
			c2.1-0.2,4.3-0.2,6.4-0.5c1.7-0.2,3.4-0.7,5.1-0.9c4.1-0.5,8.2-1,12.2-2.1c4.7-1.2,9.4-2.5,13.8-4.7c2.4-1.2,4.9-2.4,7.3-3.7
			c0.8-0.4,1.2-1,1.2-2c0-3.8,0.2-7.6,0.1-11.3c-0.1-12-0.4-24-0.5-36c-0.1-7.6-0.1-15.1-0.1-22.7c0-2.1,0.2-4.3,0.1-6.4
			c-0.1-4.7-0.4-9.4-0.5-14.1c-0.1-1.6,0-3.1,0-4.7c-0.1-3.6-0.1-7.2-0.2-10.8c-0.1-2.9,0.5-5.9-0.1-8.8c0-0.2,0.1-0.4,0.2-0.6
			c1,0.1,1.9,0.2,2.8,0.4c0.6,0.2,1.1,0.6,1,1.4c0,0.3,0.1,0.7,0.1,1c0,0.5,0.1,1,0.1,1.5c0,0.3,0,0.6,0,0.9
			c0.1,4.6,0.3,9.2,0.4,13.8c0.1,4.6,0.1,9.2,0.1,13.8c0,1.3,0,1.3,1.2,1.6c1.5,0.3,3.1,0.4,4.6,0.8c2.9,0.7,5.8,1,8.7,1.3
			c4.5,0.6,9,0.5,13.5,0.8c1.5,0.1,7.9-0.6,8.3-0.6c2.6,0,5.2,0,7.7-0.3c4.2-0.5,8.3-1.2,12.4-1.8c1.1-0.2,2.3-0.2,3.4-0.5
			c4.1-0.9,8.2-1.7,12.3-2.7c6.4-1.6,12.8-3.3,19.1-5c3.7-1,7.5-2,11.2-3.1c3.4-1,6.7-2.1,10-3.1c0.8-0.3,1.1-0.8,1.2-1.6
			c1.1-7,3-13.7,6.2-20c2-3.9,3.9-7.8,6.4-11.3c2.1-2.9,4.4-5.7,6.7-8.5c2.6-3.1,5.2-6.2,7.9-9.3c1.4-1.6,2.9-3.2,4.2-4.8
			c0.7-0.8,1.5-1.4,2.8-1.7C2079.6,53.7,2080.1,54.2,2080.5,54.6 M1581.8-83c-0.4,0.4-0.7,0.7-0.8,1c-1.4,2.6-3.4,4.8-4.5,7.5
			c-0.5,1.3-1.3,2.5-1.8,3.8c-1,2.4-2.1,4.7-2.9,7.1c-0.9,2.8-1.5,5.8-2.3,8.6c-1.8,6.1-2.3,12.4-2.7,18.6
			c-0.4,6.8-0.2,13.5,0.5,20.2c0.4,3.6,0.9,7.2,1.5,10.7c0.5,2.9,1.1,5.9,1.9,8.8c0.8,2.9,1.8,5.8,2.6,8.7c0.3,1.2,0.6,2.3,0.9,3.5
			c1,3.2,2.6,6,4.1,9c2.1,4.3,4.9,8.1,8,11.8c0.5,0.6,1.1,0.9,1.9,0.9c1.8,0,3.7,0,5.5,0c1.2,0,2.3,0.1,3.5-0.1
			c4.7-0.7,9.2-1.9,13.5-3.9c4.5-2.1,8.9-4.5,13-7.2c6.7-4.4,11.6-10.4,15.2-17.4c0.6-1.2,1.4-2.4,2-3.7c1-2,2-3.9,2.8-5.9
			c0.6-1.3,0.5-1.4-0.7-2.1c-1.3-0.8-2.7-1.6-4-2.5c-4.1-3.1-8.2-6.2-12.2-9.4c-2.8-2.2-5.6-4.5-8.1-6.9
			c-6.4-6.2-12.9-12.4-18.2-19.7c-1.5-2.1-3.3-4.1-4.6-6.4c-2.4-4.1-4.6-8.2-6.7-12.4c-1.8-3.5-3.3-7.3-4.3-11.1
			c-0.9-3.3-1.6-6.6-2.4-9.9C1582.2-81.8,1582-82.3,1581.8-83 M1935.8,127.7c-0.1,0.3-0.2,0.5-0.2,0.8c-0.1,2.4-0.3,4.7-0.4,7.1
			c-0.1,2.1,0,4.2-0.1,6.3c-0.2,4.4-0.5,8.8-0.8,13.2c-0.1,3-0.2,6.1-0.3,9.1c-0.1,1.8-0.3,3.7-0.3,5.5c-0.1,5.7-0.1,11.3-0.1,17
			c0,3.6,0.1,7.1,0.4,10.7c0.3,3.5,0,7,0.6,10.5c0.3,1.6,0.1,1.6,1.7,2.1c2,0.6,4.1,0.6,6.2,0.8c4.3,0.3,8.5,0.1,12.6-1.3
			c3-1.1,3.2-1.1,3.2-4.3c0.1-9.8,0-19.5,0.6-29.3c0.4-6.3,0.5-12.7,0.8-19c0.1-2.1,0.6-4.3,0.6-6.4c0.2-6.3,1-12.4,2.6-18.5
			c0.2-0.6,0.2-1.2,0.3-1.8c-4.7-0.2-9.3-0.1-13.8-0.5C1944.9,129.1,1940.4,128.3,1935.8,127.7 M1687.6-33.2
			c-0.4-0.3-0.6-0.6-0.9-0.8c-3.5-2.6-6.1-6-8.8-9.3c-1.6-2-3.1-4.2-4.5-6.4c-1.5-2.2-3-4.4-4.2-6.8c-3-5.5-5.5-11.2-7.7-17
			c-0.4-1-0.9-2-1.4-3.3c-0.3,0.5-0.5,0.7-0.7,1c-0.8,1.6-1.7,3.1-2.4,4.8c-0.6,1.4-1.3,2.9-1.7,4.4c-0.6,2.3-1,4.7-1.4,7.1
			c-0.7,3.7-1,7.4-1.2,11.1c-0.2,5.6,0.1,11.2,1.3,16.7c0.7,3.2,1.3,6.5,2.8,9.5c0.5,1.1,0.8,1.4,1.9,1.1c2.5-0.7,4.9-1.5,7.3-2.3
			c1.6-0.6,3.1-1.3,4.6-1.9c2.5-1,5.1-1.7,7.6-2.8c2-0.8,4-1.9,5.9-2.9C1685.3-31.7,1686.6-32,1687.6-33.2 M1752.2-145.3
			c0.2-1.5-0.5-3-0.9-4.5c-0.4-1.5-0.9-3-1.4-4.5c-0.6-1.5-1.3-2.9-2-4.3c-0.7-1.4-1.5-2.8-2.4-4c-0.9-1.3-2.1-2.4-3.1-3.5
			c-1.1-1.1-2.2-2.3-3.4-3.3c-1.2-0.9-1.9-2.4-3.4-3c-0.6,2.4-1.2,4.6-1.8,6.7c-0.2,0.6-0.5,1.2-0.6,1.8c-0.4,2.5-0.8,5-1.1,7.5
			c-0.8,7-0.7,13.9,1,20.8c1.5,5.8,4.4,10.8,8.2,15.4c0.1,0.1,0.3,0.2,0.7,0.5c0.2-0.9,0.4-1.7,0.5-2.4c0.3-1.7,0.5-3.4,0.8-5.1
			c0.4-1.8,1-3.5,1.3-5.3c0.4-2.6,1.2-5.1,2.3-7.5c0.6-1.2,1.2-2.5,2.4-3.3C1750.1-144,1751.1-144.6,1752.2-145.3 M1847.2,220.8
			c7,0.4,14,0.6,21.1-0.2c-0.1-4.6,0.4-9-1-13.3c-0.9-2.9-1.5-6-2.3-9c-0.4-1.6-1.3-2.9-2.9-3.7c-0.6-0.3-1.2-0.6-1.7-1.1
			c-1.1-1-2.6-0.9-4-1.3c-0.3-0.1-0.6,0-0.9,0.2c-2.2,1.5-4.6,2.6-6,5.1c-1.3,2.4-2.4,4.8-2.7,7.5c-0.3,3.2-0.4,6.5-0.4,9.7
			c0,1.9,0.3,3.8,0.4,5.6C1846.9,220.4,1847,220.5,1847.2,220.8 M1836.6,218.9c0.1-1.6,0.2-2.9,0.3-4.2c0.1-4,0.2-8-0.7-11.9
			c-0.5-2-1-4.1-1.4-6.1c-0.5-2.4-1.3-4.6-3.2-6.3c-1.4-1.3-3.1-2.1-4.8-1.8c-2.2,0.3-4,1.7-5,3.9c-0.5,1.2-1,2.4-1.3,3.7
			c-0.3,1.1-0.8,2.1-0.7,3.3c0.3,3.9,0.6,7.8,0.8,11.7c0.1,2.3,1.3,3.6,3.4,4.2c3.5,1.1,7.1,2.1,10.7,3.2
			C1835.1,218.7,1835.7,218.8,1836.6,218.9 M2094.1,222.7c-0.2-1.5-0.2-2.9-0.5-4.1c-0.9-4.2-1.7-8.4-3.3-12.4
			c-0.5-1.3-1.2-2.6-2-3.7c-1.2-1.5-2.8-2.5-4.8-2.7c-2.2-0.2-4.1,0.9-5.5,2.3c-2.4,2.4-3,5.8-3.5,9c0,0.1,0,0.1,0,0.2
			c0.1,2,0.1,4,0.4,5.9c0.3,2.1,0.9,4.3,1.4,6.5C2082.3,223.4,2088,223.1,2094.1,222.7 M2064.1,223.3c0.1-1.6,0-3.1-0.3-4.5
			c-0.6-2.5-1.2-5.1-1.9-7.6c-0.8-2.9-1.9-5.7-4-8c-1.6-1.8-3.5-2.4-5.8-2.1c-3.7,0.4-5.8,2.9-7.7,5.6c-0.3,0.5-0.3,1-0.1,1.6
			c1.3,4.2,3.1,8.1,5.1,12c0.5,1,1.4,1.6,2.4,1.9c1.6,0.4,3.2,0.7,4.8,0.8c2.1,0.2,4.2,0.3,6.3,0.4
			C2063.2,223.4,2063.5,223.3,2064.1,223.3"/>
		<path class="st2" d="M1864.9-167.3c-0.1,4.6-1.2,8.8-2.9,12.9c-1,2.2-2.5,4.2-3.8,6.3c-0.2,0.4-0.5,0.8-0.7,1.2
			c-0.9,1.6-2.8,1.9-4,0.6c-2.2-2.5-5-4.4-7.7-6.3c-1.2-0.8-1.2-1.1-0.9-2.5c0.9-3.8,2.7-7.2,4.5-10.7c1.6-3.2,3.6-6.1,6.1-8.6
			c1.2-1.1,2.4-2.2,3.7-3.2c1-0.8,3.1-0.2,3.8,1.1c0.9,1.7,1.8,3.5,1.8,5.6C1864.7-169.6,1864.8-168.4,1864.9-167.3 M1853.9-148.8
			c0.7-1.3,1.2-2.4,1.8-3.6c1.6-3.1,3.3-6.1,4-9.7c0.7-3.7,0.8-7.4,0.5-11.1c-0.1-0.7-0.2-1.3-0.9-1.8c-0.3,0.2-0.8,0.3-1,0.6
			c-1.6,1.6-3.2,3.2-4.4,5c-2.3,3.4-4,7.1-5.7,10.8c-0.6,1.4-0.9,2.9-1.4,4.3C1849.1-152.4,1851.4-150.7,1853.9-148.8"/>
		<path class="st2" d="M1609.7,79.2c1.9,0.6,4,1.1,6,1.9c1.2,0.5,1.6,1.7,1.9,2.9c0.3,1.4,0.2,2.9-0.4,4.3c-0.4,0.8-0.6,1.6-1.1,2.3
			c-1,1.3-2.1,2.1-3.7,2.5c-1,0.2-2,0.7-2.9,1.1c-0.8,0.3-1.4,0.3-2.2,0c-1.2-0.5-2.4-1-3.3-2c-1.1-1.2-1.6-2.6-1.3-4.2
			c0.3-1.4,0.6-2.9,1.3-4.2c0.9-1.8,2.2-3.4,4.1-4.3C1608.4,79.4,1608.9,79.4,1609.7,79.2 M1612,84.8c-0.1-1.3-0.6-1.9-2.1-2.2
			c-1.4-0.2-2.5,0.3-3.5,1.5c-1.3,1.7-1.5,3.6-1.7,5.5c-0.1,0.7,0.4,1.4,1.2,1.7c0.7,0.3,1.5,0.1,2-0.5c1.1-1.3,2.2-2.6,3.2-4
			C1611.6,86.3,1611.7,85.5,1612,84.8"/>
		<path class="st2" d="M1794.1-85.4c0,1.6-0.6,2.3-2.3,2.8c-1.2,0.4-2.4,0.6-3.6-0.1c-1.3-0.8-1.9-1.8-1.8-3.4
			c0.2-2.1,2-3.8,3.8-3.6C1791.7-89.5,1794.3-87.5,1794.1-85.4"/>
	</g>
	<g>
		<path class="st13" d="M2103.3,171c-1.9,0-3.9-0.1-5.8-0.2l3.2,0.6L2103.3,171z"/>
		<path class="st13" d="M1720.3,168.2c-1.3,0.1-2.6,0.3-3.9,0.4c-2.4,0.3-4.8,0.5-7.2,0.6l1.3,0.2L1720.3,168.2z"/>
		<path class="st13" d="M1766.3,166.3l4.5,0.4C1769.3,166.5,1767.8,166.4,1766.3,166.3z"/>
		<path class="st13" d="M1969.3,168.9c-1.1,0-2.2,0-3.3,0l2,0.3L1969.3,168.9z"/>
		<path class="st13" d="M1314.5,165.2l11.5,1.3C1322.2,165.9,1318.4,165.4,1314.5,165.2z"/>
		<path class="st13" d="M1154,170.7c-1.2,0-2.5,0-3.7,0l2,0.2L1154,170.7z"/>
		<path class="st13" d="M1268.3,215.3c0.4,0,0.8,0,1.2,0c3.2,0,6.5,0,9.7-0.1l-10.8-0.1V215.3z"/>
		<g>
			<path class="st2" d="M2251.1,223.7c-0.7-0.1-1.5,0-2.2,0.1c-1.3,0.2-2.6,0.5-3.9,0.5c-1.4,0-2.7,0-4.1,0c-2.2,0-4.4,0-6.5-0.2
				c-7.5-0.5-15-1.2-22.5-1.7c-8.1-0.5-16.2-0.8-24.4-1c-11.8-0.3-23.6-0.6-35.5-0.9c-6.6-0.1-13.3-0.2-19.9-0.4
				c-11.2-0.4-22.4-1-33.7-1.2c-13.4-0.2-26.9-0.2-40.3-0.1c-11.1,0.1-22.2,0.4-33.2,0.5c-10.8,0.1-21.6,0.1-32.4,0.2
				c-10.2,0.1-536-9.4-546.2-9c-11.5,0.4-23,0.9-34.6,1.4c-11.8,0.5-23.6,0.9-35.4,1.3c-5.6,0.2-11.2,0.2-16.8,0.4
				c-13.4,0.3-26.9,0.6-40.3,0.9c-8,0.2-16,0.4-23.9,0.5c-5.3,0.1-10.7,0.2-16,0.2c-3.2,0-6.5,0.1-9.7,0.1c-0.4,0-0.8,0-1.2,0
				c-1.7-0.1-3.3-0.2-5-0.5c-1.3-0.2-2.4-0.1-3.3,0.7c-1,0.9-1.7,2-2.5,3c-0.6,0.8-0.9,1.7-1.4,2.6c-0.7-0.1-1.2,0-1.5-0.2
				c-5.9-2.6-11.8-2.1-17.7-0.2c-4.5,1.4-9,2.9-13.6,4c-10.2,2.4-20.2,1.8-29.9-2.4c-6.8-2.9-13.8-4.2-21.2-2.9
				c-3.5,0.6-7,1.2-10.5,1.9c-2,0.4-4.1,0.8-6,1.4c-5.3,1.6-10.6,2.8-16.1,3.1c-1.9,0.1-3.8,0.4-5.7,0.6c-5.8,0.5-11.6,0.2-17.1-1.7
				c-5.2-1.8-10.4-3.2-15.7-4.5c-3.4-0.9-6.8-1.3-10.2-1.4v5.8c0.5,0,0.9,0,1.4,0c7,0.3,13.8,1.8,20.2,4.5c6.9,2.9,14,3.7,21.2,3.4
				c8.4-0.4,16.7-2,24.8-4.3c4.5-1.3,9.2-2.2,13.8-2.9c3-0.5,6.2-0.7,9.3-0.3c3.5,0.5,7,1.5,10.2,2.8c5.1,2.2,10.4,3.3,15.8,4.3
				c0.7,0.1,1.5,0.3,2.2,0.2c6-0.3,12.2,0,17.8-2.9c0.4-0.2,0.8-0.3,1.3-0.4c3.8-1,7.7-2.2,11.6-3c3-0.7,6.1-1.3,9.2-0.3
				c2.1,0.7,4.1,1.5,6.4,2.3c0.5,1.9,0.5,3.9,0.4,6c-0.1,1.3-0.8,1.8-2,1.9c-0.6,0-1.2,0-1.8-0.1c-5.4-0.5-10.6-0.1-15.6,2.4
				c-0.8,0.4-1.7,0.6-2.5,0.9c-2.1,0.9-4.3,1-6.5,0.5c-3.2-0.7-6.4-1.3-9.6-1.9c-3.8-0.8-7.6-1.6-11.4-0.9
				c-3.8,0.6-7.5,1.5-11.3,2.3c-2.2,0.4-4.3,0.8-6.5,1.1c-4,0.4-8-0.5-11.8-1.5c-6.4-1.6-12.9-1.7-19.4-1c-4,0.5-7.9,1.2-11.8,1.8
				c-4.8,0.8-9.7,1.1-14.6,0.7c-6.2-0.6-12.3-1.2-18.5-2.5c-5.2-1.1-10.5-1.9-15.7-2.8c-2.1-0.3-4.3-0.4-6.4-0.2v5.4
				c1.8-0.2,3.7-0.1,5.5,0.2c5.4,1,10.7,2,16.1,3c3,0.6,6.1,1.1,9.2,1.5c3.1,0.4,6.2,0.6,9.3,0.8c4.4,0.3,8.9,0.7,13.3-0.1
				c2.9-0.5,5.8-1.1,8.7-1.6c4.7-0.7,9.3-1.6,14.1-1.2c4.4,0.3,8.8,0.9,13.1,2.2c5.7,1.7,11.4,1.3,17-0.5c5-1.6,10.1-2.5,15.3-1.9
				c3.4,0.4,6.7,1.1,10,1.9c8.8,2.1,8.8,2.1,17-1.6c4.5-2,10.8-2.3,16.1-0.7c0.9,2,1,4.2,0.9,6.4c-0.1,2.2,0.8,4.3,0.1,6.4
				c-0.5,0.1-0.8,0.3-1,0.3c-0.9-0.1-1.8-0.2-2.6-0.4c-6.9-1.7-13.7-1.9-20.6-0.3c-2.3,0.6-4.6,1.1-6.8,1.9
				c-6.9,2.4-13.8,2.9-20.9,1.3c-4-0.9-8.1-1.5-12.2-2.1c-9.1-1.2-18-1-26.6,2.7c-0.8,0.3-1.7,0.5-2.5,0.8
				c-4.2,1.5-8.4,1.6-12.7,0.6c-4.6-1-9.3-2-13.9-2.7c-10.9-1.5-21.5-0.8-31.7,3.7c-1.3,0.6-2.8,1.1-4.2,1.2
				c-3.2,0.3-6.4,0.6-9.6-0.1v5.6c5.9,0.7,11.7,0.1,17.6-2.4c10.1-4.2,20.6-4.5,31.3-2c4,1,8.2,1.4,12.2,2.3
				c3.8,0.9,7.2,0.5,10.8-0.9c5.7-2.1,11.4-4.1,17.6-4.2c3.5-0.1,7.1,0,10.6,0.4c3.7,0.4,7.3,0.9,10.9,1.8c6.7,1.7,13.4,2,20.1,0
				c2.5-0.8,5.1-1.5,7.7-2.2c7.9-2.2,15.7-2.1,23.6,0.1c1,0.3,2,0.6,2.9,1.1c1,0.6,1.6,13.8,2.6,14.3c0.1,0,0.2,0.1,0.2,0.1
				c0.9,0.3,2.1,0.1,3.1,0.2c1,0.2,2,0.8,2.9,0.8c4.4-0.2,8.8,0.1,13.2,0c4.4-0.1,8.8,0.2,13.3,0.3c4.3,0.1,8.5,0,12.8,0.1
				c3.7,0.1,7.4,0.4,11.1,0.4c4.9,0,9.7-0.4,14.6-0.5c3.1,0,6.2,0.4,9.2,0.4c6.3,0,12.7-0.2,19-0.2c4,0,8,0.4,11.9,0.3
				c7.4-0.2,14.7-0.7,22.1-0.9c12.1-0.4,24.2,2.3,36.3,1.9c5.8-0.2,11.5-0.6,17.3-0.7c8.7-0.1,533,9.7,541.7,9.7c8,0,16-0.1,23.9,0
				c8.9,0.1,17.7,0.6,26.6,0.7c13.6,0.2,27.2,0.2,40.7,0.2c8.6,0,17.1-0.1,25.7-0.1c6.8,0,13.6-3.3,20.4-3.1
				c3.5,0.1,7.1,0.3,10.6,0.3c2.5,0,5-0.3,7.5-0.3c8,0,16,0.1,23.9,0.1c6.9,0,13.9-0.1,20.8-0.2c6.3-0.1,12.7-0.1,19-0.2
				c0.6,0,1.2,0,1.8,0c5.3,0.2,10.6,0.5,15.9,0.7c5.5,0.2,10.9-0.5,16.4-1.2c3.3-0.4,6.7-0.8,10-1c0.1,0,0.2-0.2,0.5-0.3
				c1-1.6,1.3-3.3,1.4-5.3c0.2-10.6,0.5-33.2,0.8-43.9c0.1-2.7,0.2-5.3,0.2-8c0-0.7-0.2-1.3-0.5-1.8
				C2252.9,224.2,2252.2,223.8,2251.1,223.7z"/>
			<path class="st2" d="M2253.3,189c-4.1-1.3-8.2-2.1-12.4-2.6c-6.3-0.7-12.6-0.5-19.1,0.4c-0.7,0.1-1.4,0.1-2.1,0.2
				c-4.7,0.9-9.5,0.7-13.9-0.5c-8.8-2.3-18.2-3-27.8-3.5c-8.5-0.5-16.6,0-24.4,2c-4.8,1.2-10,1.5-15.3,1.4
				c-7.2-0.1-13.5-1.6-19.8-3.2c-15-3.8-30.2-4.5-45.8-1.5c-2,0.4-4,0.8-6,1.2c-8.9,1.8-17.9,2.5-27.2,0.5c-1.6-0.3-3.1-0.7-4.7-1
				c-2.5-0.5-4.9-1-7.5-1.4c-8-1.2-15.9-1.4-23.7,0.6c-3.8,1-7.9,1.8-12,2.5c-6.5,1.1-13.2,0.9-19.8,0.2c-6.3-0.7-12.6-1.6-18.9-2.3
				c-10.8-1.2-21.3-1.2-31.4,1.5c-1.7,0.4-3.5,0.8-5.3,1.1c-6.5,1.2-12.8,1.5-19.5,0.1c-7.5-1.6-15.2-3.1-23.4-3.5
				c-7.4-0.4-14.8-0.6-22,0.5c-4.3,0.7-8.6,1.5-12.8,2.4c-6.1,1.3-12.3,1.7-18.9,1.4c-6.5-0.3-12.5-1.6-18.8-2.3
				c-14.1-1.5-28-1.5-41.3,1.8c-3.7,0.9-7.6,1.6-11.7,1.6c-5.7,0.1-11.5,0.1-17.1-0.3c-9-0.6-17.8-1.7-26.8-2.5
				c-7.6-0.7-15.2-0.4-22.7,0.6c-6,0.8-12,1.5-18.1,2.1c-9,0.9-18,0.7-27-0.5c-5.8-0.8-11.6-1.6-17.4-2.3
				c-11.5-1.4-22.7-1.2-33.7,1.2c-3.5,0.8-7.2,1.3-10.8,2c-10.6,2-21.3,2.2-32.3,1c-8.4-1-16.8-2-25.3-2.6
				c-16.6-1.3-33.2-1.7-49.6,0.8c-2.7,0.4-5.5,0.7-8.3,1.1c-7,0.9-14.1,1.2-21.2,0.2c-4.8-0.7-9.7-1.5-14.5-2.2
				c-9-1.3-18.2-2.2-27.5-2.6c-7.2-0.3-14.3,0.5-21.1,1.6c-5.8,0.9-11.6,1.2-17.6,1.1c-11-0.3-21.8-1.3-32.5-2.7
				c-6.1-0.8-12.2-1.5-18.4-1.2c-7.4,0.3-14.7,0.8-21.9,1.7c-10.9,1.4-21.9,2.2-33.2,2.2c-4.8,0-9.4-0.7-14.2-0.7
				c-6.7,0.1-13.2-0.8-19.6-1.9c-3.9-0.7-7.7-1.4-11.6-2c-9.8-1.6-19.6-2-29.7-0.8c-11.9,1.4-23.9,2.2-36,2.9
				c-16.2,0.9-32.3,0.7-48-2.3c-0.3-0.1-0.7-0.1-1-0.2v5.6c1.5,0.2,3.1,0.4,4.6,0.6c7.2,0.8,14.2,2,21.8,1.7c3.4-0.2,7.1-0.2,10.6,0
				c3.9,0.2,7.6,0.2,11.3-0.1c7.5-0.6,15.1-1.1,22.6-1.6c5-0.4,10-0.5,14.8-1.1c9.1-1.2,18-0.7,26.9,0.3c5.1,0.6,10.1,1.5,15,2.4
				c5.9,1.1,11.9,1.7,18.2,1.8c6.2,0.1,12.3,0.4,18.5,0.4c3.8,0,7.6-0.4,11.3-0.6c1.4-0.1,2.8-0.3,4.2-0.3c4.6,0.2,9-0.3,13.4-0.9
				c12-1.6,24.1-2.7,36.5-1c2.5,0.3,5,0.8,7.6,1.1c13.1,1.6,26.4,1.9,39.8,2.1c1.1,0,2.3-0.2,3.4-0.5c8.8-2,18-2.3,27.4-1.8
				c11.4,0.7,22.7,1.7,33.6,3.7c7.4,1.3,14.9,1.8,22.5,0.8c4.1-0.5,8.3-1,12.4-1.7c11.6-1.8,23.5-1.9,35.4-1.6
				c10.7,0.3,21.2,1.7,31.7,2.7c8.2,0.7,16.3,1.7,24.7,1.4c5.1-0.2,9.9-0.7,14.6-1.5c6.3-1.1,12.6-2.3,19-3.3c2.2-0.4,4.7-0.5,7-0.6
				c9.4-0.3,18.5,0.7,27.6,1.8c6.1,0.7,12.1,1.5,18.2,2.2c3.5,0.4,7.1,0.5,10.6,0.1c7.5-0.7,15.1-1.2,22.3-2.4
				c2-0.3,4.2-0.5,6.3-0.7c9.5-1,19-0.4,28.4,0.7c6.3,0.7,12.7,1.4,19,1.8c10.3,0.7,20.4,0.5,29.9-2.1c3.3-0.9,7.2-1.4,10.9-1.7
				c11.2-0.9,22.3-0.5,33.1,1.6c5.9,1.2,12,1.6,18.3,1.4c5.1-0.1,9.9-0.6,14.6-1.7c16.1-3.8,32.3-3.9,48.7-0.5
				c3.1,0.6,6.3,1.2,9.5,1.8c5.2,1,10.3,1,15.3-0.1c2.9-0.6,5.9-1,8.7-1.8c10.2-2.6,20.7-2.6,31.4-1.1c1.6,0.2,3.3,0.4,4.9,0.6
				c4,0.5,7.9,1,11.9,1.4c8.1,0.9,16.2,0.8,24-0.7c2.7-0.5,5.2-1.2,7.9-1.8c7.7-1.8,15.6-2.1,23.7-0.6c4.3,0.8,8.7,1.5,12.9,2.3
				c10.3,2.1,20.2,1.1,29.9-1c7.1-1.5,14.3-2.7,22.1-2.8c9.3-0.1,18.1,1,26.3,3.3c12.4,3.4,24.8,4.4,37.9,1.6
				c2.8-0.6,5.8-1.2,8.8-1.4c12.3-1,24.3,0.1,35.8,2.5c7.9,1.6,15.5,2.5,23.6,0.7c5.1-1.1,13.5-0.9,18.7,0.1c0,0,0,0,0.1,0
				c3.3,0.7,6.7,1.3,9.7,1.9c1.1-0.2,2-0.5,2.7-0.9c1.5-0.8,2.1-1.8,2.1-3.1C2254.7,189.4,2254,189.2,2253.3,189z"/>
			<path class="st2" d="M2253.3,208.3c-0.4-0.3-0.9-0.6-1.6-0.8c-2.7-1-6.8-1.8-10.8-2.3c-2.8-0.4-5.6-0.6-7.9-0.7
				c-2.9-0.1-5.7,0-8.6-0.3c-7.9-0.6-15.6-0.5-23.5,0.1c-5.8,0.4-11.9,0.9-17.7-0.2c-3.6-0.6-7.3-1.3-10.8-2.1
				c-9.1-2.2-18.1-2.3-27,0c-5,1.3-10.1,1.4-15.3,0.8c-4.2-0.5-8.3-1.3-12.3-2.1c-3.8-0.8-7.4-1.8-11.3-2.5c-7-1.4-14.1-2.2-21.7-2
				c-7,0.2-13.6,1.1-20.1,2.5c-8,1.7-16.3,2-24.6,1.1c-4.4-0.5-8.6-1.5-12.9-2.2c-12.3-2-24.7-2.9-37.2-0.5
				c-2.7,0.5-5.5,0.9-8.2,1.3c-7.7,1.1-15.5,1.2-23.3-0.1c-2.3-0.4-4.6-0.8-6.9-1.1c-8.4-1.1-16.7-2.3-25.4-2.2
				c-4.6,0.1-8.9,0.4-13,1.6c-2.5,0.7-5.2,1.3-7.9,1.8c-12.4,2.2-24.9,3.3-37.6,0.2c-2.6-0.6-5.4-1-8.2-1.3
				c-6.9-0.8-13.2-0.4-18.3,2.6c-3.5,2.1-8.2,2.9-13.4,3.2c-9.5,0.6-18.4-0.5-27.5-1.8c-7.4-1.1-14.9-1.8-22.4-2.5
				c-6.2-0.5-12.4-0.1-18.4,0.9c-4.8,0.8-9.5,1.7-14.3,2.4c-3.2,0.5-6.5,0.8-9.8,1c-7.5,0.4-14.6-0.7-21.7-2.1
				c-4.9-0.9-9.9-2-15-2.6c-10.9-1.4-21.8-1.5-32,1.4c-1.7,0.5-3.5,0.8-5.1,1.3c-9.7,2.9-19.9,3.2-30.5,1.7
				c-5.3-0.7-10.6-1.5-16-2.1c-14.1-1.6-27.9-1.7-41.3,1.6c-1.5,0.4-3.1,0.7-4.7,0.9c-4.1,0.8-8.3,1.2-12.6,0.7
				c-3.5-0.4-7.1-0.7-10.4-1.3c-7.3-1.4-14.6-2.4-22.3-2.6c-6.8-0.2-13.3,0-19.7,1.1c-2.9,0.5-5.9,1.1-8.8,1.6
				c-5.7,1.1-11.6,1.5-17.6,0.5c-4.1-0.7-8.3-1.2-12.4-1.9c-14.1-2.5-28.1-2.7-42.2-0.3c-2.3,0.4-4.6,0.7-6.9,1
				c-6.1,0.7-12.2,0.9-18.3-0.3c-3.6-0.7-7.3-1.3-10.9-1.9c-10.1-1.8-20.1-1.9-30.2,0c-3.6,0.7-7.2,1.3-10.9,1.9
				c-6,1-12.1,1.2-18.4,0.5c-6.6-0.7-13.1-1.4-19.5-2.5c-4.3-0.7-8.7-1.3-13.3-1.4c-8.5-0.2-16.5,0.9-24.6,2
				c-13.1,1.8-26.4,2-39.7,0.5c-7-0.8-14-1.8-21-2.5c-3-0.3-6.1-0.6-9.2-0.6c-9.1-0.2-18,0.5-26.7,2.1c-7.2,1.4-14.6,2.3-22.2,2.7
				c-17.2,0.9-34.3,0.4-51.1-1.9c-3.2-0.4-6.3-1-9.5-1.4v4.8c5.8,0.7,11.6,1.5,17.4,2.2c22.2,2.7,44,2.3,65.5-1.6
				c12.1-2.2,24.5-3.1,37.3-1.4c4.2,0.6,8.3,1.2,12.5,1.6c5.8,0.6,11.7,1.4,17.6,1.6c11,0.4,21.9,0.1,32.5-1.7
				c8.4-1.4,17.2-2.1,26.1-1.2c4.9,0.5,9.8,1.2,14.5,2.1c7.4,1.3,15,1.6,22.5,2c1.9,0.1,3.9,0.1,5.7-0.2c4.1-0.6,8.1-1.4,12.1-2.2
				c10.4-2.1,20.8-2.4,31.4-0.3c5,0.9,9.9,1.9,15,2.7c1.8,0.3,3.8,0.5,5.6,0.3c4.5-0.3,8.9-0.7,13.3-1.2c3.5-0.4,6.8-1.1,10.3-1.5
				c8-0.8,16-1.3,24.1-0.1c5.5,0.8,11,1.7,16.6,2.5c3.4,0.5,6.9,1.1,10.4,1.3c6.6,0.5,12.7-0.5,18.7-2c7.5-1.9,15.5-2.3,23.7-2.1
				c6,0.2,11.8,0.8,17.5,1.9c2,0.4,4,0.8,6.1,1.2c8,1.3,15.9,1.9,23.7-0.2c1.5-0.4,3-0.7,4.6-1c5.6-1.1,11.2-2,17.3-2.2
				c10.9-0.4,21.4,0.8,31.7,2.5c11.3,1.8,22.6,1.8,33.7-0.3c3.1-0.6,5.9-1.6,8.9-2.4c6.3-1.7,12.9-2.5,20-2.1
				c6.4,0.4,12.7,1.1,18.8,2.4c3.8,0.8,7.6,1.6,11.5,2.3c6.9,1.3,14,1.7,21.1,0.8c6.5-0.9,12.8-1.9,19.2-2.9
				c11.1-1.7,22.2-1.5,33.1,0.3c4.5,0.7,9.4,1,13.5,2.4c0.6,0.2,1.4,0.2,2.1,0.3c6.2,0.1,12.4,0.3,18.6,0.2c6.9,0,13.1-1.2,18.1-3.9
				c3.9-2.1,8.7-2.6,13.9-2c3.7,0.4,7.4,1,11,1.8c10.1,2.2,20.2,1.8,30.2,0.4c5.9-0.9,11.7-2.1,17.5-3.3c5.5-1.1,11.1-1.6,16.8-1.1
				c7.8,0.6,15.6,1.4,23,2.9c7.3,1.5,14.5,1.5,21.8,0.6c5.3-0.6,10.6-1.3,15.9-2.1c6.8-1,13.6-1.2,20.5-0.5
				c4.5,0.4,8.8,1.1,13.1,1.9c6,1.2,12.1,2.4,18.7,2.4c7.5,0,14.7-0.6,21.6-2.2c4.4-1,9.1-1.6,13.8-1.8c6.6-0.3,13.3-0.4,19.7,1.2
				c5.2,1.3,10.6,2.4,15.9,3.6c10.7,2.3,21.5,3.5,32.5,0.5c3.9-1.1,8.3-1.2,12.6-0.7c4.4,0.6,8.8,1,13,2.1
				c6.1,1.5,12.6,2.4,19.5,1.9c4.5-0.3,9-0.7,13.5-0.7c8.3,0,16.7,0.2,25,0.5c2,0.1,5.6,0.4,8.5,0.8c1.2,0.2,2.3,0.3,3.2,0.4
				c1.8,0.3,3.6,0.7,5.4,1c1.6,0.3,2.7-0.2,3.5-0.9c0.1-0.1,0.2-0.2,0.3-0.3C2254.1,209.7,2254.2,208.9,2253.3,208.3z"/>
			<path class="st2" d="M1109,166.4c10.5,1.8,21,3.5,32.1,4c3.1,0.1,6.2,0.2,9.2,0.2c1.2,0,2.5,0,3.7,0c5.5-0.1,10.9-0.4,16.2-1.1
				c5.5-0.7,11.1-1.5,16.6-2.3c9.1-1.4,18.4-1.6,27.7-0.9c9.7,0.7,19.3,1.8,29,2.7c11.7,1.1,23.3,1.1,34.8-0.4
				c4.2-0.5,8.2-1.3,12.3-2c8-1.3,16-1.8,23.9-1.4c3.8,0.2,7.6,0.7,11.5,1.3c1.3,0.2,2.6,0.5,3.9,0.8c9.1,2,18.7,3.3,28.7,2.8
				c5.5-0.3,10.9-0.6,16.4-1c10.9-0.8,21.8-1,32.8-0.4c11.7,0.6,23.1,2.1,34.5,3.5c7.1,0.9,14.2,1,21.2,0.1c3-0.4,6-0.9,8.9-1.4
				c9.1-1.6,18.4-2.8,28.1-1.9c6.6,0.6,13.1,1.4,19.7,2.2c6.6,0.8,13.2,1.2,19.9,1.1c5.2-0.1,10.3-0.5,15.3-1.6
				c8.3-1.8,16.6-3.8,25.8-4.4c13.7-0.9,27.1-1,40.1,2.3c1.9,0.5,4.1,0.8,6.2,0.9c8.8,0.2,17.6,0.4,26.2-1.2
				c5.6-1,11.4-1.7,17.5-1.6c6.1,0.1,11.8,1,17.6,1.7c6.8,0.9,13.7,1.1,20.5,0.8c2.4-0.1,4.8-0.3,7.2-0.6c1.3-0.1,2.6-0.3,3.9-0.4
				c7.1-0.8,14.2-1.4,21.5-1.9c8.2-0.5,16.4-0.5,24.5,0.1c1.5,0.1,3,0.2,4.5,0.4c1.5,0.1,3,0.3,4.5,0.5c8.2,1,16.4,1.9,24.5,3
				c4.6,0.6,9.3,0.4,13.4-0.4c7-1.4,14-2.2,21.4-2.8c11.3-0.9,22.4-0.4,33.4,0.9c7.9,1,15.8,2,23.7,3.1c8.4,1.2,16.1,0.2,23.3-2.1
				c1.9-0.6,3.7-1.2,5.7-1.5c10-1.7,20.2-1.8,30.3,0.1c5,0.9,10,1.4,14.9,1.5c1.1,0,2.2,0,3.3,0c5.4-0.1,10.7-0.7,16-1.9
				c6.3-1.4,12.9-1.9,19.6-1.1c6.3,0.7,12.7,1.4,18.9,2.4c6.4,1,12.7,1.2,19,0.2c3.6-0.6,7.3-1.2,10.9-1.7c1.1-0.2,2.3-0.4,3.5-0.3
				c7.6,0.2,15.3,0.2,22.7,1.5c3.4,0.6,6.8,1.2,10.2,1.8c2.5,0.5,4.9,0.8,7.4,1c1.9,0.2,3.9,0.2,5.8,0.2c3.1,0,6.2-0.2,9.4-0.5
				c5.6-0.7,11.1-1.4,16.7-2.1c3.5-0.5,7-0.6,10.6-0.5c5.8,0.3,11.2,1.3,16.4,2.7c3.9,1,7.8,2,11.8,2.8c7.2,1.5,14.6,1.6,21.7-0.1
				c4.6-1.1,9.2-1.1,14-0.7c2.4,0.2,4.8,0.5,7.1,0.4c8.8-0.3,21.2,0.8,29.9,2c0.4,0.1,0.8,0.1,1.2,0.2c1.6,0.2,4.1,0.5,5.7,0.7
				c1.9,0.2,3.8,0.2,5.3-0.6c0.1,0,0.1-0.1,0.2-0.1c1.5-0.9,2.3-1.8,1.3-3.3c-3.3-0.5-7.1-1-10-1.5c-1.1-0.2-2.3-0.4-3.6-0.6
				c-7-1-16.1-1.7-22.3-1.9c-3.8-0.1-7.6-0.4-11.4-0.4c-5.9,0-11.9-0.7-17.6,1c-4.9,1.5-10.1,1.4-15.3,0.4c-5.1-1-10.3-2.1-15.3-3.3
				c-10.8-2.6-21.8-3.8-33.3-1.6c-4,0.8-8.3,1.1-12.5,1.5c-7.2,0.7-14.2,0.5-21.3-0.7c-5.2-0.9-10.5-1.9-15.8-2.5
				c-9.7-1.1-19.3-1.4-28.9,0.6c-5.8,1.2-12,1.6-18.3,0.7c-3.5-0.5-6.9-1.1-10.4-1.5c-11.6-1.6-23-2.2-34.5,0.2
				c-3.3,0.7-6.9,1.2-10.4,1.4c-4.2,0.2-8.6,0.1-12.8-0.2c-4.5-0.4-8.8-1.2-13.2-1.7c-10.8-1.3-21.3-0.9-31.3,1.9
				c-3.8,1-7.5,2.2-12,2.4c-4.6,0.2-9,0.3-13.5-0.4c-7.9-1.1-15.7-2.3-23.7-3.1c-17.5-1.9-34.7-1.5-51.5,1.6
				c-5.9,1.1-11.6,1.3-17.5,0.6c-6.5-0.8-13.1-1.6-19.6-2.4c-8.4-1.1-17-1.5-25.6-1.5c-12.2,0-24.2,1.1-36,2.6
				c-9.3,1.2-18.5,1-27.6-0.4c-12.3-1.9-24.4-2-36.6,0.1c-10.7,1.8-21.6,2.1-32.3-0.2c-11-2.4-22.4-2.4-33.9-2
				c-9.4,0.4-18.3,1.7-26.8,3.8c-9.1,2.2-18.7,3-28.7,2.1c-6.6-0.6-13.2-1.2-19.7-2c-13.9-1.7-27.4-1.5-40.8,1.3
				c-7.4,1.6-15.2,2.1-23.2,1.3c-6.6-0.6-13.1-1.4-19.7-2.2c-15.3-1.8-30.7-2.4-46.3-1.6c-6.4,0.3-12.8,0.9-19.2,1.2
				c-5.5,0.3-10.9,0.2-16.4-0.4c-8.1-0.8-15.7-2.3-23.4-3.7c-2-0.4-4.2-0.8-6.2-0.7c-5.5,0-11,0-16.4,0.5
				c-7.3,0.7-14.3,1.9-21.5,2.8c-3.5,0.4-7,0.8-10.5,1c-11,0.7-21.9-0.3-32.8-1.3c-6.4-0.6-12.7-1.4-19-1.9
				c-10.5-0.7-21-0.4-31.2,1.1c-3.9,0.6-7.8,1.2-11.7,1.7c-11.5,1.4-23,1.9-34.8,1.1c-8.4-0.5-16.4-1.8-24.4-3.2
				c-7.6-1.4-15.2-2.1-22.7-2v3.7v1.7C1097.1,165.1,1103,165.4,1109,166.4z"/>
		</g>
	</g>
</g>
</svg>
