<?xml version="1.0" encoding="utf-8"?>
<!-- Generator: Adobe Illustrator 19.1.0, SVG Export Plug-In . SVG Version: 6.00 Build 0)  -->
<svg version="1.1" id="Calque_1" xmlns="http://www.w3.org/2000/svg" xmlns:xlink="http://www.w3.org/1999/xlink" x="0px" y="0px"
	 viewBox="0 0 308.2 93.6" style="enable-background:new 0 0 308.2 93.6;" xml:space="preserve">
<style type="text/css">
	.st0{fill:#72B52B;}
	.st1{fill:#71519B;}
	.st2{fill:#C0BFBF;}
	.st3{fill:#EDE5F2;}
	.st4{fill:none;stroke:#72B52B;stroke-width:4;stroke-linecap:round;stroke-miterlimit:10;}
	.st5{fill:none;stroke:#71519B;stroke-width:4;stroke-linecap:round;stroke-miterlimit:10;}
	.st6{fill:#6EA1C1;}
	.st7{fill:#BFBEBE;}
	.st8{fill:#55358A;}
	.st9{fill:#FFFFFF;}
	.st10{fill:#FFFFFF;stroke:#71519B;stroke-width:3;stroke-miterlimit:10;}
	.st11{fill:#FFFFFF;stroke:#72B52B;stroke-width:3;stroke-miterlimit:10;}
	.st12{fill:none;stroke:#FFFFFF;stroke-width:3;stroke-miterlimit:10;}
	.st13{fill:#F2BF00;}
	.st14{fill:#93C01F;}
	.st15{fill:none;stroke:#55358A;stroke-width:2;stroke-miterlimit:10;}
</style>
<path d="M2.8,74.5C2.1,65.8,1.4,57,0.7,48.3c-0.1-0.7-0.3-1.5-0.3-2.2C0.2,36-0.1,25.9,0.1,15.8C0.2,9-0.8,7.1,8.9,7.5
	c14.8,0.7,29.7,0.9,44.5,0.7C71.7,8,89.9,7.1,108.2,6.6C129.6,6,151,5.5,172.4,5c12.6-0.3,25.3-0.5,37.9-1
	c21.2-0.8,42.5-1.8,63.7-2.8c6.6-0.3,13.2-0.9,19.7-1.2c2.1-0.1,4.4,0.4,6.5,1c3.1,1,4.6,3.4,4.7,6.7c0.7,16.5,1.6,32.9,2,49.4
	c0.1,5.3-0.2,10.5,1,15.8c1.2,5.4-2.2,9.3-7.8,9.5c-11.5,0.6-23,1-34.6,1.6c-14.3,0.7-28.5,1.2-42.8,2.2
	c-12.6,0.8-25.1,2.3-37.7,3.3c-8,0.6-16,0.7-24,0.9c-14.5,0.3-29,0.5-43.4,0.9c-10.2,0.3-20.5,1.2-30.7,1.7
	c-7.7,0.3-15.4,0.5-23.1,0.6c-5.3,0.1-10.6,0-15.8-0.1c-11.1-0.1-22.3-0.3-33.4-0.3c-5.2,0-8-3.9-11.7-6.3c-0.7-0.5-0.7-2.4-0.7-3.6
	c-0.1-2.9,0-5.9,0-8.8C2.4,74.5,2.6,74.5,2.8,74.5z M296.4,6.7c-1.2,0-2.1,0-3,0c-15.2,0.6-30.4,1.3-45.6,1.9
	C241.5,8.8,235,8.8,228.6,9c-15.7,0.5-31.4,1.2-47.1,1.7c-19.9,0.6-39.8,1-59.7,1.7c-13.7,0.4-27.4,1.3-41.1,1.6
	c-14.6,0.4-29.3,0.4-43.9,0.5c-7.7,0.1-15.4,0-23.1,0c-2.9,0-5.7,0-9.3,0c1.1,22.6,2.2,45,3.3,67.4c1.8,0.1,3.1,0.3,4.4,0.3
	c9.7-0.2,19.4-0.4,29.1-0.6c9.5-0.1,19,0.1,28.4-0.2c16.8-0.6,33.7-1.5,50.5-2.1c12.5-0.5,24.9-0.7,37.4-1.1
	c10.3-0.3,20.5-0.7,30.8-1.1c16.6-0.7,33.3-1.5,49.9-2.2c4.4-0.2,8.8-0.4,13.2-0.4c11.7-0.2,23.4-0.5,35.1-0.6c4.1-0.1,8.3,0,12.1,0
	C297.9,51.1,297.2,29.2,296.4,6.7z"/>
<g>
	<g>
		<path class="st0" d="M28.5,60.8h-8.3c-0.9,0-1.4-0.5-1.4-1.4V37.7c0-0.9,0.5-1.4,1.4-1.4h8.3c3.9,0,6.8,0.9,8.6,2.7
			s2.7,4.5,2.7,8.2v2.7c0,3.6-0.9,6.4-2.7,8.2S32.5,60.8,28.5,60.8z M28.5,40.8h-4.9v15.6h4.9c1.2,0,2.2-0.1,3-0.3
			c0.8-0.2,1.5-0.6,2-1.1s1-1.3,1.2-2.2s0.4-2,0.4-3.4v-1.4c0-1.4-0.1-2.5-0.4-3.4s-0.7-1.6-1.2-2.2s-1.2-0.9-2-1.2
			C30.6,40.9,29.6,40.8,28.5,40.8z"/>
		<path class="st0" d="M57,60.8H44c-0.9,0-1.4-0.5-1.4-1.4V37.7c0-0.9,0.5-1.4,1.4-1.4H57c0.9,0,1.3,0.5,1.3,1.4v1.8
			c0,0.9-0.4,1.4-1.3,1.4h-9.6v4.9h9.2c0.9,0,1.3,0.5,1.3,1.4v1.6c0,0.9-0.4,1.4-1.3,1.4h-9.2v6H57c0.9,0,1.3,0.5,1.3,1.4v1.8
			C58.4,60.3,57.9,60.8,57,60.8z M52.7,34.5l-0.8,0.6c-0.2,0.1-0.4,0.2-0.5,0.2s-0.3,0-0.6,0h-1.6c-0.3,0-0.5-0.1-0.6-0.2
			s-0.1-0.4,0-0.7l0.1-0.3c0.1-0.3,0.3-0.5,0.4-0.6s0.4-0.1,0.7-0.1h2.4c0.3,0,0.5,0.1,0.6,0.3S53,34.3,52.7,34.5z"/>
		<path class="st0" d="M71.9,60.9c-2,0-3.7-0.2-5.1-0.6c-1.4-0.4-2.6-1-3.5-1.9s-1.6-2-2.1-3.5c-0.4-1.4-0.7-3.1-0.7-5.2v-2.6
			c0-1.7,0.2-3.2,0.7-4.5c0.4-1.3,1.1-2.5,2-3.4c0.9-1,2.1-1.7,3.5-2.2s3.2-0.8,5.2-0.8c3.3,0,6,0.7,7.8,2c1.9,1.4,3,3.3,3.3,5.9
			c0.1,0.4,0.1,0.8,0.1,1.1c0.1,0.9-0.3,1.3-1.2,1.3h-2.2c-0.5,0-0.8-0.1-1-0.3s-0.3-0.5-0.4-1c-0.1-0.5-0.2-0.8-0.2-0.9
			c-0.3-1.3-1-2.2-2.1-2.8s-2.5-0.9-4.3-0.9c-1.5,0-2.7,0.2-3.7,0.6c-0.9,0.4-1.6,1.1-2.1,2.1c-0.5,1-0.7,2.4-0.7,4.1v2
			c0,2.5,0.5,4.2,1.5,5.3c1,1.1,2.7,1.6,4.9,1.6c1.9,0,3.4-0.3,4.4-0.9s1.7-1.7,2-3.1c0.1-0.3,0.1-0.6,0.1-0.8c0-0.5,0.2-0.8,0.4-1
			s0.5-0.3,1-0.3h2.2c0.9,0,1.3,0.4,1.2,1.3c0,0,0,0.4-0.1,1c-0.3,2.9-1.4,5-3.2,6.3C78.1,60.3,75.4,60.9,71.9,60.9z"/>
		<path class="st0" d="M100.3,60.8H87.2c-0.9,0-1.4-0.5-1.4-1.4V37.7c0-0.9,0.5-1.4,1.4-1.4h13.1c0.9,0,1.3,0.5,1.3,1.4v1.8
			c0,0.9-0.4,1.4-1.3,1.4h-9.6v4.9h9.2c0.9,0,1.3,0.5,1.3,1.4v1.6c0,0.9-0.4,1.4-1.3,1.4h-9.2v6h9.6c0.9,0,1.3,0.5,1.3,1.4v1.8
			C101.6,60.3,101.2,60.8,100.3,60.8z"/>
		<path class="st0" d="M118.6,60.8h-1c-0.7,0-1.1-0.3-1.3-0.9L109,42.1v17.3c0,0.9-0.5,1.4-1.4,1.4h-1.9c-0.9,0-1.4-0.5-1.4-1.4
			V37.7c0-0.9,0.5-1.4,1.4-1.4h4.4c0.7,0,1.1,0.3,1.3,0.9l6.6,15.8l6.7-15.8c0.2-0.6,0.7-0.9,1.4-0.9h4.3c0.9,0,1.4,0.5,1.4,1.4
			v21.7c0,0.9-0.5,1.4-1.4,1.4h-1.9c-0.9,0-1.4-0.5-1.4-1.4V42.1l-7.3,17.8C119.7,60.5,119.3,60.8,118.6,60.8z"/>
		<path class="st0" d="M144.3,60.8H136c-0.9,0-1.4-0.5-1.4-1.4V37.7c0-0.9,0.5-1.4,1.4-1.4h8.5c5,0,7.5,1.8,7.5,5.3v1.4
			c0,1.3-0.4,2.4-1.3,3.1s-2.2,1.2-4,1.3c2.3,0,4.1,0.5,5.2,1.5s1.7,2.2,1.7,3.9v1.6C153.5,58.7,150.4,60.8,144.3,60.8z M144.1,40.4
			h-4.7V46h4.7c1.1,0,1.9-0.2,2.4-0.6s0.7-1.1,0.7-2.1v-0.6c0-0.9-0.2-1.6-0.7-1.9S145.2,40.4,144.1,40.4z M144.3,49.8h-4.9v6.9h4.9
			c1.6,0,2.7-0.2,3.4-0.7s1-1.4,1-2.7v-0.5c0-1.1-0.3-1.9-1-2.4S145.8,49.8,144.3,49.8z"/>
		<path class="st0" d="M159.5,60.8h-2c-0.9,0-1.4-0.5-1.4-1.4V37.7c0-0.9,0.5-1.4,1.4-1.4h7.9c1.7,0,3.1,0.1,4.1,0.4
			s1.9,0.7,2.6,1.2s1.1,1.3,1.3,2.1s0.4,1.9,0.4,3.2V44c0,1.5-0.3,2.9-0.9,4s-1.6,1.9-3,2.5l3.8,8.8c0.2,0.4,0.2,0.8,0,1.1
			s-0.5,0.5-0.9,0.5h-2.6c-0.7,0-1.1-0.3-1.4-0.9l-3.7-8.9h-4.2v8.5C160.9,60.3,160.4,60.8,159.5,60.8z M165.3,40.8h-4.5v6.1h4.5
			c1.3,0,2.3-0.2,2.8-0.6s0.8-1.1,0.8-2.3v-0.5c0-1.1-0.3-1.9-0.8-2.2S166.7,40.8,165.3,40.8z"/>
		<path class="st0" d="M191,60.8h-13.1c-0.9,0-1.4-0.5-1.4-1.4V37.7c0-0.9,0.5-1.4,1.4-1.4H191c0.9,0,1.3,0.5,1.3,1.4v1.8
			c0,0.9-0.4,1.4-1.3,1.4h-9.6v4.9h9.2c0.9,0,1.3,0.5,1.3,1.4v1.6c0,0.9-0.4,1.4-1.3,1.4h-9.2v6h9.6c0.9,0,1.3,0.5,1.3,1.4v1.8
			C192.3,60.3,191.9,60.8,191,60.8z"/>
		<path class="st8" d="M264.2,60.8h-18.7c-0.9,0-1.3-0.5-1.3-1.4v-2.3c0-0.6,0.2-1,0.7-1.3c1.9-1.1,3.4-1.9,4.7-2.6s2.4-1.4,3.6-2
			s2.1-1.2,2.7-1.6c0.7-0.4,1.3-0.8,1.9-1.2s1.1-0.7,1.3-1s0.5-0.6,0.8-0.8s0.4-0.5,0.4-0.8s0.1-0.5,0.1-0.7s0-0.5,0-0.9v-0.2
			c0-2.2-1.9-3.4-5.8-3.4c-3,0-4.9,1-5.7,2.9c-0.2,0.6-0.3,1-0.4,1.3c-0.1,0.4-0.2,0.8-0.4,0.9s-0.5,0.3-1,0.3h-2.1
			c-0.4,0-0.8-0.1-1-0.4s-0.3-0.6-0.3-1.1c0-0.5,0.1-1.1,0.3-1.8c0.5-2.1,1.7-3.7,3.5-4.8s4.2-1.7,7.2-1.7c3.6,0,6.2,0.6,8,1.9
			s2.6,3.1,2.6,5.4v0.3c0,0.6,0,1.1,0,1.4s-0.1,0.8-0.3,1.2s-0.3,0.9-0.5,1.2s-0.6,0.7-1.1,1.2s-1.1,0.9-1.7,1.4s-1.4,1-2.5,1.6
			s-2.2,1.3-3.4,2c-1.2,0.7-2.7,1.5-4.5,2.5h12.7c0.9,0,1.4,0.5,1.4,1.4v1.7C265.6,60.3,265.2,60.8,264.2,60.8z"/>
		<path class="st8" d="M279,60.9c-2.4,0-4.4-0.4-6.1-1.1s-2.9-1.7-3.6-3c-0.5-0.8-0.8-1.8-1-3c-0.1-1,0.4-1.4,1.2-1.4h2.1
			c0.4,0,0.7,0.1,0.9,0.3s0.4,0.6,0.5,1.1c0.1,0.5,0.4,1,0.7,1.4c0.9,1,2.7,1.6,5.3,1.6c1.5,0,2.7-0.2,3.6-0.6s1.6-1.1,2-2.1
			s0.7-2.3,0.7-4v-4.6c0,0.9-0.2,1.7-0.5,2.5s-0.8,1.4-1.4,2s-1.4,1.1-2.5,1.4s-2.2,0.5-3.6,0.5c-3.3,0-5.8-0.6-7.3-1.9
			s-2.3-3.2-2.3-5.7v-0.1c0-2.5,0.9-4.5,2.8-5.9s4.6-2.1,8-2.1c3.8,0,6.7,0.8,8.6,2.3s2.8,3.9,2.8,7.1v5.2c0,1.6-0.2,3-0.6,4.2
			s-1.1,2.3-2,3.2s-2.1,1.6-3.5,2.1S281,60.9,279,60.9z M279.1,48.3c2,0,3.6-0.3,4.7-1s1.7-1.5,1.7-2.7v-0.1c0-1.3-0.5-2.4-1.6-3
			s-2.7-1-4.8-1c-2.2,0-3.8,0.3-4.8,0.9s-1.4,1.5-1.4,2.8v0.1c0,1.4,0.5,2.4,1.6,3S277,48.3,279.1,48.3z"/>
	</g>
</g>
</svg>
