<?xml version="1.0" encoding="utf-8"?>
<!-- Generator: Adobe Illustrator 19.1.0, SVG Export Plug-In . SVG Version: 6.00 Build 0)  -->
<svg version="1.1" id="Calque_1" xmlns="http://www.w3.org/2000/svg" xmlns:xlink="http://www.w3.org/1999/xlink" x="0px" y="0px"
	 viewBox="0 0 303.1 84.9" style="enable-background:new 0 0 303.1 84.9;" xml:space="preserve">
<style type="text/css">
	.st0{fill:#72B52B;}
	.st1{fill:#71519B;}
	.st2{fill:#C0BFBF;}
	.st3{fill:#EDE5F2;}
	.st4{fill:none;stroke:#72B52B;stroke-width:4;stroke-linecap:round;stroke-miterlimit:10;}
	.st5{fill:none;stroke:#71519B;stroke-width:4;stroke-linecap:round;stroke-miterlimit:10;}
	.st6{fill:#6EA1C1;}
	.st7{fill:#BFBEBE;}
	.st8{fill:#55358A;}
	.st9{fill:#FFFFFF;}
	.st10{fill:#FFFFFF;stroke:#71519B;stroke-width:3;stroke-miterlimit:10;}
	.st11{fill:#FFFFFF;stroke:#72B52B;stroke-width:3;stroke-miterlimit:10;}
	.st12{fill:none;stroke:#FFFFFF;stroke-width:3;stroke-miterlimit:10;}
	.st13{fill:#F2BF00;}
	.st14{fill:#93C01F;}
	.st15{fill:none;stroke:#55358A;stroke-width:2;stroke-miterlimit:10;}
</style>
<path d="M0,10.9c3.1-3.2,6.7-3.4,10.9-3.2C16.1,8,21.5,7.1,26.8,7.1c7.7-0.1,15.4,0.4,23.1,0C66,6.3,82,5,98.1,4
	c11.9-0.7,23.8-1.5,35.6-1.9c17.6-0.6,35.2-0.9,52.7-1.2c9.3-0.1,18.7,0.2,28,0.2c11,0,22,0,33-0.2c11.2-0.2,22.3-0.9,33.5-1
	c4.7,0,9.4,0.4,14,1.4c4.8,1,6.9,4.7,7.6,9.6c1.2,8.4,0.3,16.8-0.3,25.2c-0.6,8.3-0.7,16.7-0.8,25.1c-0.1,4.9,0,9.6-4.7,12.6
	c-0.9,0.6-1.8,1.3-2.7,1.5c-20.9,3.6-42,4.7-63.3,4.5c-7.8-0.1-15.7,1-23.6,1.3c-16.4,0.6-32.9,1-49.3,1.6c-7.3,0.3-14.6,1-21.9,1.2
	c-7.7,0.2-15.3,0-23,0.1c-12.4,0.2-24.9,0.7-37.3,0.9c-2.2,0-4.3-0.7-6.5-0.8c-8.7-0.3-17.5-0.4-26.2-0.7c-11.5-0.4-23-0.9-34.4-1.6
	c-5.2-0.3-8.2-3.7-8-8.8c0.2-6,0.8-12,0.8-18c0-4.7-0.6-9.5-0.7-14.2C0.3,31,0.2,21.1,0,10.9z M7.3,72.4c7.7,0.2,15.4,0.4,23,0.4
	c10.1,0.1,20.2-0.1,30.2-0.1c3.3,0,6.6,0.4,9.9,0.4c21.6-0.3,43.2-0.7,64.8-1.2c17.6-0.3,35.2-0.9,52.8-1.1
	c16.3-0.2,32.6,0.1,48.9-0.3c18.4-0.5,36.8-1.4,55.7-2.2c0.1-6.9,0.2-13.4,0.4-20c0.3-9.3,1.1-18.5,1-27.8c0-4.6,0.5-9.5-2.2-14.5
	c-8,0.3-16,0.9-24.1,1c-18.9,0.3-37.7,0.4-56.6,0.4c-8,0-16-0.4-24-0.3c-13.7,0.1-27.3,0.4-41,0.9c-13.5,0.4-27.1,0.9-40.6,1.7
	c-12.8,0.8-25.5,2.5-38.3,3.2c-12.2,0.6-24.5,0.4-36.8,0.6c-8.4,0.1-16.7,0.4-25.1,0.7C6.1,33.9,6.7,52.9,7.3,72.4z"/>
<g>
	<g>
		<path class="st0" d="M43.3,56.8h-1c-0.7,0-1.1-0.3-1.3-0.9l-7.3-17.8v17.3c0,0.9-0.5,1.4-1.4,1.4h-1.9c-0.9,0-1.4-0.5-1.4-1.4
			V33.8c0-0.9,0.5-1.4,1.4-1.4h4.4c0.7,0,1.1,0.3,1.3,0.9l6.6,15.8l6.7-15.8c0.2-0.6,0.7-0.9,1.4-0.9h4.3c0.9,0,1.4,0.5,1.4,1.4
			v21.7c0,0.9-0.5,1.4-1.4,1.4h-1.9c-0.9,0-1.4-0.5-1.4-1.4V38.2l-7.3,17.8C44.4,56.5,43.9,56.8,43.3,56.8z"/>
		<path class="st0" d="M63.9,55.8c-0.2,0.7-0.7,1.1-1.4,1.1h-2c-0.5,0-0.8-0.1-1-0.4s-0.3-0.6-0.1-1.1l7.1-22c0.2-0.7,0.6-1,1.3-1
			H72c0.7,0,1.1,0.3,1.3,1l7.1,22c0.1,0.4,0.1,0.8-0.1,1.1s-0.5,0.4-1,0.4h-2c-0.7,0-1.2-0.4-1.4-1.1l-1.4-4.6h-9.2L63.9,55.8z
			 M73.3,47.2l-3.4-11.1l-3.4,11.1H73.3z"/>
		<path class="st0" d="M86.7,56.8h-2c-0.9,0-1.4-0.5-1.4-1.4V33.8c0-0.9,0.5-1.4,1.4-1.4h7.9c1.7,0,3.1,0.1,4.1,0.4
			c1.1,0.2,1.9,0.7,2.6,1.2s1.1,1.3,1.3,2.1s0.4,1.9,0.4,3.2V40c0,1.5-0.3,2.9-0.9,4s-1.6,1.9-3,2.5l3.8,8.8c0.2,0.4,0.2,0.8,0,1.1
			c-0.2,0.3-0.5,0.5-0.9,0.5h-2.6c-0.7,0-1.1-0.3-1.4-0.9L92.3,47h-4.2v8.5C88.1,56.4,87.6,56.8,86.7,56.8z M92.5,36.8h-4.5v6.1h4.5
			c1.3,0,2.3-0.2,2.8-0.6c0.5-0.4,0.8-1.1,0.8-2.3v-0.5c0-1.1-0.3-1.9-0.8-2.2S93.9,36.8,92.5,36.8z"/>
		<path class="st0" d="M115,42.4c2.5,0.1,4.4,0.4,5.8,0.9c1.4,0.5,2.4,1.2,3.1,2.2s1,2.3,1,4v0.2c0,2.5-0.9,4.3-2.7,5.5
			c-1.8,1.2-4.4,1.8-8,1.8c-3.4,0-5.9-0.6-7.6-1.7c-1.7-1.1-2.7-2.9-3-5.3c0-0.1,0-0.2,0-0.4s0-0.3,0-0.4c0-0.8,0.4-1.2,1.2-1.2h2.2
			c0.5,0,0.9,0.1,1,0.2c0.2,0.2,0.3,0.5,0.4,0.9c0,0.2,0.1,0.5,0.2,0.7c0.3,1,0.9,1.7,1.9,2.2s2.2,0.7,3.8,0.7c2,0,3.4-0.2,4.4-0.7
			c1-0.5,1.4-1.2,1.4-2.2v-0.1c0-0.7-0.2-1.3-0.5-1.7c-0.4-0.4-1-0.7-1.9-0.9s-2.2-0.4-4-0.5c-2-0.1-3.7-0.3-5-0.6s-2.3-0.7-3.1-1.3
			s-1.3-1.2-1.6-2c-0.3-0.8-0.5-1.7-0.5-2.9v-0.3c0-2.3,0.9-4.1,2.7-5.4c1.8-1.3,4.4-1.9,8-1.9c3.1,0,5.6,0.6,7.3,1.7
			c1.8,1.1,2.8,2.7,3.2,4.8c0,0.2,0.1,0.5,0.1,0.8c0.1,0.8-0.3,1.2-1.2,1.2h-2.1c-0.5,0-0.9-0.1-1.1-0.2c-0.2-0.1-0.3-0.4-0.4-0.9
			c-0.1-0.3-0.2-0.6-0.3-0.8c-0.7-1.6-2.6-2.4-5.6-2.4c-3.9,0-5.8,0.9-5.8,2.8v0.2c0,0.5,0.1,0.9,0.2,1.2c0.2,0.3,0.5,0.6,1,0.8
			s1.2,0.4,2.1,0.6S113.6,42.4,115,42.4z"/>
		<path class="st8" d="M245.1,57c-2.9,0-5.3-0.4-7.1-1.3c-1.8-0.9-3-2.1-3.7-3.8c-0.3-0.7-0.4-1.4-0.5-2.1c0-0.4,0.1-0.8,0.3-1.1
			s0.5-0.4,0.9-0.4h2.1c0.5,0,0.8,0.1,1,0.3c0.2,0.2,0.4,0.5,0.5,1c0.1,0.4,0.2,0.7,0.4,0.9c0.8,1.6,2.8,2.4,5.9,2.4
			c2.2,0,3.8-0.3,4.8-0.9s1.5-1.5,1.5-2.6v-0.4c0-1-0.4-1.8-1.1-2.2c-0.7-0.4-1.8-0.7-3.4-0.7h-2.5c-0.9,0-1.3-0.4-1.3-1.3v-1.3
			c0-0.8,0.4-1.2,1.2-1.2h2.5c1.3,0,2.2-0.2,2.9-0.7s0.9-1.2,0.9-2.1v-0.3c0-1-0.4-1.7-1.2-2.2c-0.8-0.5-2.2-0.7-4.1-0.7
			c-1.3,0-2.4,0.2-3.3,0.6s-1.5,0.9-1.9,1.7c-0.2,0.3-0.4,0.6-0.5,1c-0.1,0.5-0.3,0.9-0.4,1s-0.5,0.3-0.9,0.3h-2.2
			c-0.4,0-0.8-0.1-1-0.4c-0.2-0.2-0.3-0.6-0.3-1c0.1-0.6,0.2-1.3,0.4-1.9c0.5-1.7,1.7-3,3.4-4c1.7-0.9,4-1.4,6.8-1.4
			c6.7,0,10,2.1,10,6.3V39c0,1.3-0.4,2.4-1.2,3.2s-2.1,1.3-3.8,1.5c3.9,0.3,5.9,2.2,5.9,5.6v0.6c0,2.1-0.9,3.9-2.8,5.2
			C251.3,56.3,248.6,57,245.1,57z"/>
		<path class="st8" d="M269.2,33.4v22c0,0.9-0.5,1.4-1.4,1.4h-2.1c-0.9,0-1.4-0.5-1.4-1.4V38.1l-5.3,2.2c-0.3,0.1-0.6,0.1-0.9,0
			s-0.4-0.4-0.4-0.8v-2.3c0-0.4,0.1-0.6,0.2-0.8c0.1-0.2,0.4-0.4,0.7-0.5l7.4-3.2c0.5-0.2,0.9-0.3,1.2-0.3h1c0.3,0,0.5,0.1,0.7,0.3
			S269.2,33.1,269.2,33.4z"/>
	</g>
</g>
</svg>
