<?xml version="1.0" encoding="utf-8"?>
<!-- Generator: Adobe Illustrator 19.1.0, SVG Export Plug-In . SVG Version: 6.00 Build 0)  -->
<svg version="1.1" id="Calque_1" xmlns="http://www.w3.org/2000/svg" xmlns:xlink="http://www.w3.org/1999/xlink" x="0px" y="0px"
	 viewBox="0 0 374.5 190" style="enable-background:new 0 0 374.5 190;" xml:space="preserve">
<style type="text/css">
	.st0{fill:#72B52B;}
	.st1{fill:#71519B;}
	.st2{fill:#C0BFBF;}
	.st3{fill:#EDE5F2;}
	.st4{fill:none;stroke:#72B52B;stroke-width:4;stroke-linecap:round;stroke-miterlimit:10;}
	.st5{fill:none;stroke:#71519B;stroke-width:4;stroke-linecap:round;stroke-miterlimit:10;}
	.st6{fill:#6EA1C1;}
	.st7{fill:#BFBEBE;}
	.st8{fill:#55358A;}
	.st9{fill:#FFFFFF;}
	.st10{fill:#FFFFFF;stroke:#71519B;stroke-width:3;stroke-miterlimit:10;}
	.st11{fill:#FFFFFF;stroke:#72B52B;stroke-width:3;stroke-miterlimit:10;}
	.st12{fill:none;stroke:#FFFFFF;stroke-width:3;stroke-miterlimit:10;}
	.st13{fill:#F2BF00;}
	.st14{fill:#93C01F;}
	.st15{fill:none;stroke:#55358A;stroke-width:2;stroke-miterlimit:10;}
</style>
<g>
	<path class="st8" d="M2.8,74.5C2.1,65.8,1.4,57,0.7,48.3c-0.1-0.7-0.3-1.5-0.3-2.2C0.2,36-0.1,25.9,0.1,15.8C0.2,9-0.8,7.1,8.9,7.5
		c14.8,0.7,29.7,0.9,44.5,0.7C71.7,8,89.9,7.1,108.2,6.6C129.6,6,151,5.5,172.4,5c12.6-0.3,25.3-0.5,37.9-1
		c21.2-0.8,42.5-1.8,63.7-2.8c6.6-0.3,13.2-0.9,19.7-1.2c2.1-0.1,4.4,0.4,6.5,1c3.1,1,4.6,3.4,4.7,6.7c0.7,16.5,1.6,32.9,2,49.4
		c0.1,5.3-0.2,10.5,1,15.8c1.2,5.4-2.2,9.3-7.8,9.5c-11.5,0.6-23,1-34.6,1.6c-14.3,0.7-28.5,1.2-42.8,2.2
		c-12.6,0.8-25.1,2.3-37.7,3.3c-8,0.6-16,0.7-24,0.9c-14.5,0.3-29,0.5-43.4,0.9c-10.2,0.3-20.5,1.2-30.7,1.7
		c-7.7,0.3-15.4,0.5-23.1,0.6c-5.3,0.1-10.6,0-15.8-0.1c-11.1-0.1-22.3-0.3-33.4-0.3c-5.2,0-8-3.9-11.7-6.3
		c-0.7-0.5-0.7-2.4-0.7-3.6c-0.1-2.9,0-5.9,0-8.8C2.4,74.5,2.6,74.5,2.8,74.5z M296.4,6.7c-1.2,0-2.1,0-3,0
		c-15.2,0.6-30.4,1.3-45.6,1.9C241.5,8.8,235,8.8,228.6,9c-15.7,0.5-31.4,1.2-47.1,1.7c-19.9,0.6-39.8,1-59.7,1.7
		c-13.7,0.4-27.4,1.3-41.1,1.6c-14.6,0.4-29.3,0.4-43.9,0.5c-7.7,0.1-15.4,0-23.1,0c-2.9,0-5.7,0-9.3,0c1.1,22.6,2.2,45,3.3,67.4
		c1.8,0.1,3.1,0.3,4.4,0.3c9.7-0.2,19.4-0.4,29.1-0.6c9.5-0.1,19,0.1,28.4-0.2c16.8-0.6,33.7-1.5,50.5-2.1
		c12.5-0.5,24.9-0.7,37.4-1.1c10.3-0.3,20.5-0.7,30.8-1.1c16.6-0.7,33.3-1.5,49.9-2.2c4.4-0.2,8.8-0.4,13.2-0.4
		c11.7-0.2,23.4-0.5,35.1-0.6c4.1-0.1,8.3,0,12.1,0C297.9,51.1,297.2,29.2,296.4,6.7z"/>
	<g>
		<g>
			<path class="st8" d="M73.7,60.8h-1c-0.7,0-1.1-0.3-1.3-0.9l-7.3-17.8v17.3c0,0.9-0.5,1.4-1.4,1.4h-1.9c-0.9,0-1.4-0.5-1.4-1.4
				V37.7c0-0.9,0.5-1.4,1.4-1.4h4.4c0.7,0,1.1,0.3,1.3,0.9L73.2,53l6.7-15.8c0.2-0.6,0.7-0.9,1.4-0.9h4.3c0.9,0,1.4,0.5,1.4,1.4
				v21.7c0,0.9-0.5,1.4-1.4,1.4h-1.9c-0.9,0-1.4-0.5-1.4-1.4V42.1L75,59.9C74.8,60.5,74.3,60.8,73.7,60.8z"/>
			<path class="st8" d="M112.3,47.3v2.5c0,1.7-0.2,3.2-0.7,4.6s-1.2,2.5-2.1,3.5s-2.1,1.7-3.6,2.3s-3.1,0.8-5,0.8
				c-1.9,0-3.6-0.3-5-0.8s-2.6-1.3-3.6-2.3s-1.6-2.2-2.1-3.5s-0.7-2.9-0.7-4.6v-2.5c0-3.5,1-6.2,2.9-8.1s4.7-3,8.5-3
				c1.9,0,3.6,0.3,5,0.8s2.6,1.3,3.6,2.2s1.6,2.1,2.1,3.5S112.3,45.6,112.3,47.3z M107.5,49.6v-2c0-1.3-0.1-2.4-0.4-3.3
				s-0.7-1.6-1.2-2.1s-1.2-0.9-2-1.1s-1.8-0.3-2.9-0.3c-1.2,0-2.2,0.1-3,0.3s-1.5,0.6-2,1.1s-1,1.2-1.2,2.1s-0.4,2-0.4,3.3v2
				c0,1.3,0.1,2.4,0.4,3.3s0.7,1.6,1.2,2.1s1.2,0.9,2,1.1s1.8,0.3,3,0.3s2.2-0.1,2.9-0.3s1.5-0.6,2-1.1s1-1.2,1.2-2.1
				S107.5,50.9,107.5,49.6z"/>
			<path class="st8" d="M118.3,60.8h-2c-0.9,0-1.4-0.5-1.4-1.4V37.7c0-0.9,0.5-1.4,1.4-1.4h2c0.9,0,1.4,0.5,1.4,1.4v21.7
				C119.7,60.3,119.3,60.8,118.3,60.8z"/>
			<path class="st8" d="M133.8,46.4c2.5,0.1,4.4,0.4,5.8,0.9c1.4,0.5,2.4,1.2,3.1,2.2s1,2.3,1,4v0.2c0,2.5-0.9,4.3-2.7,5.5
				c-1.8,1.2-4.4,1.8-8,1.8c-3.4,0-5.9-0.6-7.6-1.7c-1.7-1.1-2.7-2.9-3-5.3c0-0.1,0-0.2,0-0.4s0-0.3,0-0.4c0-0.8,0.4-1.2,1.2-1.2
				h2.2c0.5,0,0.9,0.1,1,0.2c0.2,0.2,0.3,0.5,0.4,0.9c0,0.2,0.1,0.5,0.2,0.7c0.3,1,0.9,1.7,1.9,2.2s2.2,0.7,3.8,0.7
				c2,0,3.4-0.2,4.4-0.7c1-0.5,1.4-1.2,1.4-2.2v-0.1c0-0.7-0.2-1.3-0.5-1.7c-0.4-0.4-1-0.7-1.9-0.9s-2.2-0.4-4-0.5
				c-2-0.1-3.7-0.3-5-0.6c-1.3-0.3-2.3-0.7-3.1-1.3s-1.3-1.2-1.6-2c-0.3-0.8-0.5-1.7-0.5-2.9v-0.3c0-2.3,0.9-4.1,2.7-5.4
				c1.8-1.3,4.4-1.9,8-1.9c3.1,0,5.6,0.6,7.3,1.7c1.8,1.1,2.8,2.7,3.2,4.8c0,0.2,0.1,0.5,0.1,0.8c0.1,0.8-0.3,1.2-1.2,1.2h-2.1
				c-0.5,0-0.9-0.1-1.1-0.2c-0.2-0.1-0.3-0.4-0.4-0.9c-0.1-0.3-0.2-0.6-0.3-0.8c-0.7-1.6-2.6-2.4-5.6-2.4c-3.9,0-5.8,0.9-5.8,2.8
				v0.2c0,0.5,0.1,0.9,0.2,1.2c0.2,0.3,0.5,0.6,1,0.8c0.5,0.3,1.2,0.4,2.1,0.6S132.4,46.3,133.8,46.4z"/>
			<path class="st8" d="M157.9,60.8h-2c-0.9,0-1.4-0.5-1.4-1.4V37.7c0-0.9,0.5-1.4,1.4-1.4h2c0.9,0,1.4,0.5,1.4,1.4v21.7
				C159.3,60.3,158.8,60.8,157.9,60.8z"/>
			<path class="st8" d="M181.1,60.8H179c-0.5,0-0.9-0.2-1.3-0.7l-11.1-15.6v14.9c0,0.9-0.5,1.4-1.4,1.4h-1.8c-0.9,0-1.4-0.5-1.4-1.4
				V37.7c0-0.9,0.5-1.4,1.4-1.4h2c0.6,0,1,0.2,1.3,0.7l11.2,15.1V37.7c0-0.9,0.5-1.4,1.4-1.4h1.9c0.9,0,1.3,0.5,1.3,1.4v21.7
				C182.5,60.3,182,60.8,181.1,60.8z"/>
			<path class="st8" d="M192.3,41.2h-5.8c-0.9,0-1.3-0.5-1.3-1.4v-2c0-0.9,0.4-1.4,1.3-1.4h16.3c0.9,0,1.4,0.5,1.4,1.4v2
				c0,0.9-0.5,1.4-1.4,1.4H197v18.3c0,0.9-0.4,1.4-1.3,1.4h-2.1c-0.9,0-1.4-0.5-1.4-1.4V41.2z"/>
			<path class="st8" d="M221.3,60.8h-13.1c-0.9,0-1.4-0.5-1.4-1.4V37.7c0-0.9,0.5-1.4,1.4-1.4h13.1c0.9,0,1.3,0.5,1.3,1.4v1.8
				c0,0.9-0.4,1.4-1.3,1.4h-9.6v4.9h9.2c0.9,0,1.3,0.5,1.3,1.4v1.6c0,0.9-0.4,1.4-1.3,1.4h-9.2v6h9.6c0.9,0,1.3,0.5,1.3,1.4v1.8
				C222.6,60.3,222.2,60.8,221.3,60.8z"/>
			<path class="st8" d="M228.8,60.8h-2c-0.9,0-1.4-0.5-1.4-1.4V37.7c0-0.9,0.5-1.4,1.4-1.4h7.9c1.7,0,3.1,0.1,4.1,0.4
				s1.9,0.7,2.6,1.2s1.1,1.3,1.3,2.1s0.4,1.9,0.4,3.2V44c0,1.5-0.3,2.9-0.9,4s-1.6,1.9-3,2.5l3.8,8.8c0.2,0.4,0.2,0.8,0,1.1
				s-0.5,0.5-0.9,0.5h-2.6c-0.7,0-1.1-0.3-1.4-0.9l-3.7-8.9h-4.2v8.5C230.1,60.3,229.7,60.8,228.8,60.8z M234.6,40.8h-4.5v6.1h4.5
				c1.3,0,2.3-0.2,2.8-0.6s0.8-1.1,0.8-2.3v-0.5c0-1.1-0.3-1.9-0.8-2.2S235.9,40.8,234.6,40.8z"/>
			<path class="st8" d="M249.8,58.2v1.3c0,0.9-0.5,1.4-1.4,1.4H247c-0.9,0-1.4-0.5-1.4-1.4v-1.3c0-0.9,0.5-1.4,1.4-1.4h1.4
				C249.3,56.8,249.8,57.2,249.8,58.2z"/>
		</g>
	</g>
	<path class="st8" d="M2.8,170.9c-0.7-8.8-1.4-17.5-2.1-26.3c-0.1-0.7-0.3-1.5-0.3-2.2c-0.2-10.1-0.6-20.2-0.3-30.3
		c0.1-6.8-0.9-8.7,8.8-8.3c14.8,0.7,29.7,0.9,44.5,0.7c18.3-0.2,36.6-1.1,54.8-1.6c21.4-0.6,42.8-1.1,64.1-1.7
		c12.6-0.3,25.3-0.5,37.9-1c21.2-0.8,42.5-1.8,63.7-2.8c6.6-0.3,13.2-0.9,19.7-1.2c2.1-0.1,4.4,0.4,6.5,1c3.1,1,4.6,3.4,4.7,6.7
		c0.7,16.5,1.6,32.9,2,49.4c0.1,5.3-0.2,10.5,1,15.8c1.2,5.4-2.2,9.3-7.8,9.5c-11.5,0.6-23,1-34.6,1.6c-14.3,0.7-28.5,1.2-42.8,2.2
		c-12.6,0.8-25.1,2.3-37.7,3.3c-8,0.6-16,0.7-24,0.9c-14.5,0.3-29,0.5-43.4,0.9c-10.2,0.3-20.5,1.2-30.7,1.7
		c-7.7,0.3-15.4,0.5-23.1,0.6c-5.3,0.1-10.6,0-15.8-0.1c-11.1-0.1-22.3-0.3-33.4-0.3c-5.2,0-8-3.9-11.7-6.3
		c-0.7-0.5-0.7-2.4-0.7-3.6c-0.1-2.9,0-5.9,0-8.8C2.4,170.9,2.6,170.9,2.8,170.9z M296.4,103.1c-1.2,0-2.1,0-3,0
		c-15.2,0.6-30.4,1.3-45.6,1.9c-6.4,0.2-12.8,0.2-19.3,0.5c-15.7,0.5-31.4,1.2-47.1,1.7c-19.9,0.6-39.8,1-59.7,1.7
		c-13.7,0.4-27.4,1.3-41.1,1.6c-14.6,0.4-29.3,0.4-43.9,0.5c-7.7,0.1-15.4,0-23.1,0c-2.9,0-5.7,0-9.3,0c1.1,22.6,2.2,45,3.3,67.4
		c1.8,0.1,3.1,0.3,4.4,0.3c9.7-0.2,19.4-0.4,29.1-0.6c9.5-0.1,19,0.1,28.4-0.2c16.8-0.6,33.7-1.5,50.5-2.1
		c12.5-0.5,24.9-0.7,37.4-1.1c10.3-0.3,20.5-0.7,30.8-1.1c16.6-0.7,33.3-1.5,49.9-2.2c4.4-0.2,8.8-0.4,13.2-0.4
		c11.7-0.2,23.4-0.5,35.1-0.6c4.1-0.1,8.3,0,12.1,0C297.9,147.5,297.2,125.5,296.4,103.1z"/>
	<g>
		<g>
			<path class="st8" d="M73.7,157.2h-1c-0.7,0-1.1-0.3-1.3-0.9l-7.3-17.8v17.3c0,0.9-0.5,1.4-1.4,1.4h-1.9c-0.9,0-1.4-0.5-1.4-1.4
				v-21.7c0-0.9,0.5-1.4,1.4-1.4h4.4c0.7,0,1.1,0.3,1.3,0.9l6.6,15.8l6.7-15.8c0.2-0.6,0.7-0.9,1.4-0.9h4.3c0.9,0,1.4,0.5,1.4,1.4
				v21.7c0,0.9-0.5,1.4-1.4,1.4h-1.9c-0.9,0-1.4-0.5-1.4-1.4v-17.3L75,156.3C74.8,156.9,74.3,157.2,73.7,157.2z"/>
			<path class="st8" d="M112.3,143.7v2.5c0,1.7-0.2,3.2-0.7,4.6s-1.2,2.5-2.1,3.5s-2.1,1.7-3.6,2.3s-3.1,0.8-5,0.8
				c-1.9,0-3.6-0.3-5-0.8s-2.6-1.3-3.6-2.3s-1.6-2.2-2.1-3.5s-0.7-2.9-0.7-4.6v-2.5c0-3.5,1-6.2,2.9-8.1s4.7-3,8.5-3
				c1.9,0,3.6,0.3,5,0.8s2.6,1.3,3.6,2.2s1.6,2.1,2.1,3.5S112.3,142,112.3,143.7z M107.5,146v-2c0-1.3-0.1-2.4-0.4-3.3
				s-0.7-1.6-1.2-2.1s-1.2-0.9-2-1.1s-1.8-0.3-2.9-0.3c-1.2,0-2.2,0.1-3,0.3s-1.5,0.6-2,1.1s-1,1.2-1.2,2.1s-0.4,2-0.4,3.3v2
				c0,1.3,0.1,2.4,0.4,3.3s0.7,1.6,1.2,2.1s1.2,0.9,2,1.1s1.8,0.3,3,0.3s2.2-0.1,2.9-0.3s1.5-0.6,2-1.1s1-1.2,1.2-2.1
				S107.5,147.3,107.5,146z"/>
			<path class="st8" d="M118.3,157.2h-2c-0.9,0-1.4-0.5-1.4-1.4v-21.7c0-0.9,0.5-1.4,1.4-1.4h2c0.9,0,1.4,0.5,1.4,1.4v21.7
				C119.7,156.7,119.3,157.2,118.3,157.2z"/>
			<path class="st8" d="M133.8,142.8c2.5,0.1,4.4,0.4,5.8,0.9c1.4,0.5,2.4,1.2,3.1,2.2s1,2.3,1,4v0.2c0,2.5-0.9,4.3-2.7,5.5
				c-1.8,1.2-4.4,1.8-8,1.8c-3.4,0-5.9-0.6-7.6-1.7c-1.7-1.1-2.7-2.9-3-5.3c0-0.1,0-0.2,0-0.4s0-0.3,0-0.4c0-0.8,0.4-1.2,1.2-1.2
				h2.2c0.5,0,0.9,0.1,1,0.2c0.2,0.2,0.3,0.5,0.4,0.9c0,0.2,0.1,0.5,0.2,0.7c0.3,1,0.9,1.7,1.9,2.2s2.2,0.7,3.8,0.7
				c2,0,3.4-0.2,4.4-0.7c1-0.5,1.4-1.2,1.4-2.2v-0.1c0-0.7-0.2-1.3-0.5-1.7c-0.4-0.4-1-0.7-1.9-0.9s-2.2-0.4-4-0.5
				c-2-0.1-3.7-0.3-5-0.6c-1.3-0.3-2.3-0.7-3.1-1.3s-1.3-1.2-1.6-2c-0.3-0.8-0.5-1.7-0.5-2.9v-0.3c0-2.3,0.9-4.1,2.7-5.4
				c1.8-1.3,4.4-1.9,8-1.9c3.1,0,5.6,0.6,7.3,1.7c1.8,1.1,2.8,2.7,3.2,4.8c0,0.2,0.1,0.5,0.1,0.8c0.1,0.8-0.3,1.2-1.2,1.2h-2.1
				c-0.5,0-0.9-0.1-1.1-0.2c-0.2-0.1-0.3-0.4-0.4-0.9c-0.1-0.3-0.2-0.6-0.3-0.8c-0.7-1.6-2.6-2.4-5.6-2.4c-3.9,0-5.8,0.9-5.8,2.8
				v0.2c0,0.5,0.1,0.9,0.2,1.2c0.2,0.3,0.5,0.6,1,0.8c0.5,0.3,1.2,0.4,2.1,0.6S132.4,142.7,133.8,142.8z"/>
			<path class="st8" d="M157.9,157.2h-2c-0.9,0-1.4-0.5-1.4-1.4v-21.7c0-0.9,0.5-1.4,1.4-1.4h2c0.9,0,1.4,0.5,1.4,1.4v21.7
				C159.3,156.7,158.8,157.2,157.9,157.2z"/>
			<path class="st8" d="M181.1,157.2H179c-0.5,0-0.9-0.2-1.3-0.7l-11.1-15.6v14.9c0,0.9-0.5,1.4-1.4,1.4h-1.8
				c-0.9,0-1.4-0.5-1.4-1.4v-21.7c0-0.9,0.5-1.4,1.4-1.4h2c0.6,0,1,0.2,1.3,0.7l11.2,15.1v-14.4c0-0.9,0.5-1.4,1.4-1.4h1.9
				c0.9,0,1.3,0.5,1.3,1.4v21.7C182.5,156.7,182,157.2,181.1,157.2z"/>
			<path class="st8" d="M192.3,137.5h-5.8c-0.9,0-1.3-0.5-1.3-1.4v-2c0-0.9,0.4-1.4,1.3-1.4h16.3c0.9,0,1.4,0.5,1.4,1.4v2
				c0,0.9-0.5,1.4-1.4,1.4H197v18.3c0,0.9-0.4,1.4-1.3,1.4h-2.1c-0.9,0-1.4-0.5-1.4-1.4V137.5z"/>
			<path class="st8" d="M221.3,157.2h-13.1c-0.9,0-1.4-0.5-1.4-1.4v-21.7c0-0.9,0.5-1.4,1.4-1.4h13.1c0.9,0,1.3,0.5,1.3,1.4v1.8
				c0,0.9-0.4,1.4-1.3,1.4h-9.6v4.9h9.2c0.9,0,1.3,0.5,1.3,1.4v1.6c0,0.9-0.4,1.4-1.3,1.4h-9.2v6h9.6c0.9,0,1.3,0.5,1.3,1.4v1.8
				C222.6,156.7,222.2,157.2,221.3,157.2z"/>
			<path class="st8" d="M228.8,157.2h-2c-0.9,0-1.4-0.5-1.4-1.4v-21.7c0-0.9,0.5-1.4,1.4-1.4h7.9c1.7,0,3.1,0.1,4.1,0.4
				s1.9,0.7,2.6,1.2s1.1,1.3,1.3,2.1s0.4,1.9,0.4,3.2v0.6c0,1.5-0.3,2.9-0.9,4s-1.6,1.9-3,2.5l3.8,8.8c0.2,0.4,0.2,0.8,0,1.1
				s-0.5,0.5-0.9,0.5h-2.6c-0.7,0-1.1-0.3-1.4-0.9l-3.7-8.9h-4.2v8.5C230.1,156.7,229.7,157.2,228.8,157.2z M234.6,137.2h-4.5v6.1
				h4.5c1.3,0,2.3-0.2,2.8-0.6s0.8-1.1,0.8-2.3v-0.5c0-1.1-0.3-1.9-0.8-2.2S235.9,137.2,234.6,137.2z"/>
			<path class="st8" d="M249.8,154.5v1.3c0,0.9-0.5,1.4-1.4,1.4H247c-0.9,0-1.4-0.5-1.4-1.4v-1.3c0-0.9,0.5-1.4,1.4-1.4h1.4
				C249.3,153.2,249.8,153.6,249.8,154.5z"/>
		</g>
	</g>
	<line class="st15" x1="317.2" y1="6.6" x2="317.2" y2="177.6"/>
	<g>
		<path class="st8" d="M332,93.9c0-0.9,0.2-1.7,0.5-2.5c0.3-0.8,0.8-1.4,1.4-2c0.6-0.6,1.4-1.1,2.5-1.4s2.2-0.5,3.6-0.5
			c3.3,0,5.8,0.6,7.3,1.9s2.3,3.2,2.3,5.7v0.1c0,2.5-1,4.5-2.9,5.9c-1.9,1.4-4.6,2.1-8,2.1c-3.9,0-6.7-0.8-8.6-2.3
			c-1.9-1.5-2.8-3.9-2.8-7.1v-5.2c0-1.6,0.2-3,0.6-4.2s1.1-2.3,2-3.2s2.1-1.6,3.5-2.1s3.1-0.7,5.1-0.7c2.4,0,4.4,0.4,6.1,1.1
			s2.9,1.7,3.6,3c0.5,0.9,0.8,1.9,1,2.9c0,0.5-0.1,0.8-0.3,1.1s-0.5,0.4-1,0.4h-2.1c-0.4,0-0.7-0.1-0.9-0.3s-0.4-0.6-0.5-1.1
			c-0.1-0.6-0.4-1.1-0.7-1.4c-0.9-1-2.7-1.5-5.2-1.5c-2.2,0-3.8,0.5-4.8,1.5c-1,1-1.5,2.7-1.5,5.2V93.9z M332,94.7v0.1
			c0,1.3,0.5,2.4,1.6,3s2.7,1,4.9,1c2.2,0,3.8-0.3,4.8-0.9c1-0.6,1.4-1.6,1.4-2.8V95c0-1.4-0.5-2.4-1.6-3s-2.6-0.9-4.7-0.9
			c-2,0-3.6,0.3-4.7,1C332.5,92.7,332,93.6,332,94.7z"/>
		<path class="st8" d="M371.7,83c-2.2,2.3-3.9,4.3-5.3,6.3s-2.5,3.9-3.3,6s-1.4,4.3-1.6,6.5c-0.1,0.4-0.2,0.8-0.4,1s-0.6,0.3-1,0.3
			h-2.4c-0.5,0-0.8-0.1-1-0.4c-0.2-0.3-0.3-0.6-0.2-1.1c0.2-1.5,0.5-2.9,1-4.4c0.5-1.5,1-2.8,1.7-4.1c0.6-1.2,1.4-2.5,2.2-3.8
			c0.8-1.2,1.7-2.4,2.5-3.4s1.7-2,2.6-2.9h-14.1c-0.9,0-1.4-0.5-1.4-1.4V80c0-0.9,0.5-1.4,1.4-1.4h18.9c0.9,0,1.4,0.5,1.4,1.4v1.3
			c0,0.4-0.1,0.8-0.2,1S372,82.8,371.7,83z"/>
	</g>
</g>
</svg>
