<?xml version="1.0" encoding="utf-8"?>
<!-- Generator: Adobe Illustrator 19.1.0, SVG Export Plug-In . SVG Version: 6.00 Build 0)  -->
<svg version="1.1" id="Calque_1" xmlns="http://www.w3.org/2000/svg" xmlns:xlink="http://www.w3.org/1999/xlink" x="0px" y="0px"
	 viewBox="0 0 310.5 85.3" style="enable-background:new 0 0 310.5 85.3;" xml:space="preserve">
<style type="text/css">
	.st0{fill:#72B52B;}
	.st1{fill:#71519B;}
	.st2{fill:#C0BFBF;}
	.st3{fill:#EDE5F2;}
	.st4{fill:none;stroke:#72B52B;stroke-width:4;stroke-linecap:round;stroke-miterlimit:10;}
	.st5{fill:none;stroke:#71519B;stroke-width:4;stroke-linecap:round;stroke-miterlimit:10;}
	.st6{fill:#6EA1C1;}
	.st7{fill:#BFBEBE;}
	.st8{fill:#55358A;}
	.st9{fill:#FFFFFF;}
	.st10{fill:#FFFFFF;stroke:#71519B;stroke-width:3;stroke-miterlimit:10;}
	.st11{fill:#FFFFFF;stroke:#72B52B;stroke-width:3;stroke-miterlimit:10;}
	.st12{fill:none;stroke:#FFFFFF;stroke-width:3;stroke-miterlimit:10;}
	.st13{fill:#F2BF00;}
	.st14{fill:#93C01F;}
	.st15{fill:none;stroke:#55358A;stroke-width:2;stroke-miterlimit:10;}
</style>
<path d="M122.5,84.5c-14.8,0.1-29.7,0.3-44.5,0.1c-10.2-0.1-20.4-0.7-30.6-1c-3.8-0.1-7.7,0.2-11.5,0.2c-9.7,0.1-19.4,0.2-29,0.2
	c-3.4,0-4.5-0.7-5-4.4C0.9,73.6,0,67.4,0,61.2c0-9.3,1.1-18.7,1.2-28c0.1-6.9-0.6-13.9-1-20.8C-0.2,8,1.2,6.8,5.4,6.9
	c14.2,0.2,28.5,0.4,42.7,0.4c9.9,0,19.8-0.1,29.7-0.1c12.6,0,25.2-0.3,37.8,0.2c15.6,0.6,31.1-0.9,46.6-1.6
	c14.6-0.6,29.3-0.8,43.9-1.4c10.2-0.4,20.4-1.1,30.7-1.7c10.8-0.6,21.6-1.1,32.4-1.7c7.1-0.4,14.2-0.7,21.4-1.1
	c5.4-0.3,10.1,2,14.4,4.6c1.7,1,3,3.7,3.3,5.9c1,5.4,1.7,10.9,1.9,16.3c0.4,11.9,0.3,23.8,0.4,35.7c0,3.6-0.7,6.7-3.6,9.4
	c-2.6,2.4-5,4.1-8.7,5c-16.5,3.8-33.4,4.4-50.1,5.4c-13.3,0.8-26.7,0.9-40,1.2c-12.8,0.3-25.6,0.5-38.4,0.7
	c-15.7,0.3-31.5,0.7-47.2,1C122.5,85,122.5,84.7,122.5,84.5z M5.1,73.1c2.4,0.1,4.2,0.2,6,0.2c9.1-0.1,18.3-0.2,27.4-0.3
	c5.1,0,10.3,0.1,15.4,0c7.1-0.2,14.3-0.7,21.4-0.8c11.4-0.2,22.7-0.2,34.1-0.3c18.3-0.3,36.6-1.4,54.9-0.9
	c25.5,0.6,50.9,1.1,76.4,0.1c8.8-0.3,17.6-0.5,26.3-1.3c9.5-0.9,19.2-0.9,28.5-4.3c5.3-1.9,6.1-2.3,6-8.1c-0.1-4.6-0.3-9.1-0.6-13.7
	c-0.7-10.4-1.5-20.8-2.3-31.2c-0.3-3.8-1.7-5.2-5.6-5.5c-4.4-0.3-8.8-0.3-13.2-0.1c-9.7,0.4-19.3,1.1-29,1.6
	c-7.7,0.4-15.4,0.5-23,0.9c-13.3,0.7-26.6,1.8-40,2.3c-14.6,0.6-29.3,0.9-43.9,1.1c-17.4,0.2-34.8,0.2-52.1,0.2
	c-10.8,0-21.6-0.1-32.3-0.1c-14.1,0-28.2,0.1-42.3,0.2c-4.2,0-8.3,0.4-12.6,0.6c2.3,14.5,1,28.8,0.6,43.1C4.9,62,5.1,67.3,5.1,73.1z
	"/>
<g>
	<g>
		<path class="st0" d="M51.4,52.6h-1c-0.7,0-1.1-0.3-1.3-0.9l-7.3-17.8v17.3c0,0.9-0.5,1.4-1.4,1.4h-1.9c-0.9,0-1.4-0.5-1.4-1.4
			V29.6c0-0.9,0.5-1.4,1.4-1.4h4.4c0.7,0,1.1,0.3,1.3,0.9l6.6,15.8l6.7-15.8c0.2-0.6,0.7-0.9,1.4-0.9h4.4c0.9,0,1.4,0.5,1.4,1.4
			v21.7c0,0.9-0.5,1.4-1.4,1.4h-1.9c-0.9,0-1.4-0.5-1.4-1.4V33.9l-7.3,17.8C52.5,52.3,52,52.6,51.4,52.6z"/>
		<path class="st0" d="M72,51.6c-0.2,0.7-0.7,1.1-1.4,1.1h-2c-0.5,0-0.8-0.1-1-0.4s-0.3-0.6-0.1-1.1l7.1-22c0.2-0.7,0.6-1,1.3-1h4.3
			c0.7,0,1.1,0.3,1.3,1l7.1,22c0.1,0.4,0.1,0.8-0.1,1.1s-0.5,0.4-1,0.4h-2c-0.7,0-1.2-0.4-1.4-1.1L82.6,47h-9.2L72,51.6z M81.4,43
			L78,31.9L74.6,43H81.4z"/>
		<path class="st0" d="M94.8,52.6h-2c-0.9,0-1.4-0.5-1.4-1.4V29.6c0-0.9,0.5-1.4,1.4-1.4h2c0.9,0,1.4,0.5,1.4,1.4v21.7
			C96.2,52.2,95.7,52.6,94.8,52.6z"/>
		<path class="st8" d="M249.2,52.8c-2.9,0-5.3-0.4-7.1-1.3s-3-2.1-3.7-3.8c-0.3-0.7-0.4-1.4-0.5-2.1c0-0.4,0.1-0.8,0.3-1.1
			s0.5-0.4,0.9-0.4h2.1c0.5,0,0.8,0.1,1,0.3s0.4,0.5,0.5,1c0.1,0.4,0.2,0.7,0.4,0.9c0.8,1.6,2.8,2.4,5.9,2.4c2.2,0,3.8-0.3,4.8-0.9
			s1.5-1.5,1.5-2.6v-0.4c0-1-0.4-1.8-1.1-2.2s-1.8-0.7-3.4-0.7h-2.5c-0.9,0-1.3-0.4-1.3-1.3v-1.3c0-0.8,0.4-1.2,1.2-1.2h2.5
			c1.3,0,2.2-0.2,2.9-0.7s0.9-1.2,0.9-2.1V35c0-1-0.4-1.7-1.2-2.2s-2.2-0.7-4.1-0.7c-1.3,0-2.4,0.2-3.3,0.6s-1.5,0.9-1.9,1.7
			c-0.2,0.3-0.4,0.6-0.5,1c-0.1,0.5-0.3,0.9-0.4,1s-0.5,0.3-0.9,0.3h-2.2c-0.4,0-0.8-0.1-1-0.4s-0.3-0.6-0.3-1
			c0.1-0.6,0.2-1.3,0.4-1.9c0.5-1.7,1.7-3,3.4-4s4-1.4,6.8-1.4c6.7,0,10,2.1,10,6.3v0.4c0,1.3-0.4,2.4-1.2,3.2s-2.1,1.3-3.8,1.5
			c3.9,0.3,5.9,2.2,5.9,5.6v0.6c0,2.1-0.9,3.9-2.8,5.2S252.8,52.8,249.2,52.8z"/>
		<path class="st8" d="M273.3,29.2v22c0,0.9-0.5,1.4-1.4,1.4h-2.1c-0.9,0-1.4-0.5-1.4-1.4V33.9l-5.3,2.2c-0.3,0.1-0.6,0.1-0.9,0
			s-0.4-0.4-0.4-0.8V33c0-0.4,0.1-0.6,0.2-0.8c0.1-0.2,0.4-0.4,0.7-0.5l7.4-3.2c0.5-0.2,0.9-0.3,1.2-0.3h1c0.3,0,0.5,0.1,0.7,0.3
			S273.3,28.9,273.3,29.2z"/>
	</g>
</g>
</svg>
