<?xml version="1.0" encoding="utf-8"?>
<!-- Generator: Adobe Illustrator 19.1.0, SVG Export Plug-In . SVG Version: 6.00 Build 0)  -->
<svg version="1.1" id="Calque_1" xmlns="http://www.w3.org/2000/svg" xmlns:xlink="http://www.w3.org/1999/xlink" x="0px" y="0px"
	 viewBox="0 0 307.3 85" style="enable-background:new 0 0 307.3 85;" xml:space="preserve">
<style type="text/css">
	.st0{fill:#72B52B;}
	.st1{fill:#71519B;}
	.st2{fill:#C0BFBF;}
	.st3{fill:#EDE5F2;}
	.st4{fill:none;stroke:#72B52B;stroke-width:4;stroke-linecap:round;stroke-miterlimit:10;}
	.st5{fill:none;stroke:#71519B;stroke-width:4;stroke-linecap:round;stroke-miterlimit:10;}
	.st6{fill:#6EA1C1;}
	.st7{fill:#BFBEBE;}
	.st8{fill:#55358A;}
	.st9{fill:#FFFFFF;}
	.st10{fill:#FFFFFF;stroke:#71519B;stroke-width:3;stroke-miterlimit:10;}
	.st11{fill:#FFFFFF;stroke:#72B52B;stroke-width:3;stroke-miterlimit:10;}
	.st12{fill:none;stroke:#FFFFFF;stroke-width:3;stroke-miterlimit:10;}
	.st13{fill:#F2BF00;}
	.st14{fill:#93C01F;}
	.st15{fill:none;stroke:#55358A;stroke-width:2;stroke-miterlimit:10;}
</style>
<path d="M0,7.2c2.1-0.4,4.2-1.2,6.2-1.1c14.8,0.5,29.6-0.5,44.3-1.5C60.8,4,71,4.3,81.2,4.8c16.1,0.7,32.2-0.4,48.3-0.8
	c9.9-0.2,19.8-0.6,29.7-0.9c7.3-0.3,14.6-0.7,21.9-1c17.5-0.6,35.1-1.4,52.6-1.7c13.4-0.3,26.8,0,40.1,0c7.1,0,14.3-0.2,21.4-0.3
	c1.3,0,2.6,0.1,3.6,0.1c8.3,7.8,8.3,17.8,8.4,27.7c0.1,9.5-0.3,19.1-0.6,28.6c-0.1,2.4-0.6,4.7-1.1,7c-1.2,5.9-4.8,9.2-10.6,9.6
	c-15.5,1.1-31,2-46.5,3c-8.6,0.6-17.1,1.6-25.7,2c-11.9,0.6-23.8,0.7-35.7,1.2c-10.8,0.5-21.5,1.5-32.3,2.2
	c-13.2,0.8-26.3,1.4-39.5,1.9c-10.4,0.4-20.9,0.5-31.3,0.8c-7.6,0.2-15.3,0.6-22.9,0.9c-1.5,0.1-2.9-0.1-4.4-0.1
	c-10.9-0.3-21.8-0.7-32.8-1c-5.4-0.2-10.9-0.2-16.3-0.4c-2.1-0.1-2.8-1.7-3.1-3.3C4,76.6,3.7,73,3.2,69.4
	c-0.8-5.9-2.1-11.8-2.3-17.7C0.4,40.7,0.5,29.8,0.3,18.8C0.2,15.2,0.1,11.5,0,7.2z M297.4,61.2c-0.3-5.8-0.7-11.2-0.7-16.7
	c0.1-8.2,0.4-16.5,0.7-24.7c0.2-4.6-0.2-9.1-2.9-13.2c-1.2,0-2.3-0.1-3.4-0.1c-8.8,0.1-17.6,0.2-26.4,0.2c-5.9,0-11.7-0.5-17.6-0.4
	C231.6,6.7,216,7.5,200.5,8c-10.2,0.3-20.5,0.3-30.7,0.6c-12.1,0.4-24.1,1.2-36.2,1.6c-8.1,0.3-16.1,0.6-24.2,0.6
	c-10.3,0.1-20.6,0.6-30.7-0.3c-8.8-0.8-17.6-0.7-26.3-0.1c-13.5,0.9-27,2.3-40.6,1.6C10.4,12,9,12.5,7.5,12.7C6,32.9,8,52.6,9.3,73
	c2.3,0.1,4.4,0.2,6.5,0.2c3.7,0,7.3-0.2,11-0.3c8.2-0.1,16.4-0.2,24.7-0.3c3.6,0,7.3,0.1,10.9,0.1c9.3,0.2,18.6,0.6,27.9,0.4
	c11-0.2,21.9-0.9,32.9-1.3c7.5-0.3,15-0.3,22.5-0.8c20.7-1.2,41.3-2.5,62-3.7c6.6-0.4,13.2-0.5,19.7-0.8c11.5-0.5,23-1,34.6-1.5
	c5.5-0.3,11-0.8,16.5-0.9c5.5-0.1,10.7-2.6,16.3-2.1C295.3,62.1,296,61.7,297.4,61.2z"/>
<g>
	<g>
		<path class="st0" d="M36.5,51.5c-0.2,0.7-0.7,1.1-1.4,1.1h-2c-0.5,0-0.8-0.1-1-0.4c-0.2-0.3-0.3-0.6-0.1-1.1l7.1-22
			c0.2-0.7,0.6-1,1.3-1h4.3c0.7,0,1.1,0.3,1.3,1l7.1,22c0.1,0.4,0.1,0.8-0.1,1.1s-0.5,0.4-1,0.4h-2c-0.7,0-1.2-0.4-1.4-1.1l-1.4-4.6
			h-9.2L36.5,51.5z M46,43l-3.4-11.1L39.2,43H46z"/>
		<path class="st0" d="M76.5,39.1v2.5c0,1.7-0.2,3.2-0.7,4.6s-1.2,2.5-2.1,3.5s-2.1,1.7-3.6,2.3s-3.1,0.8-5,0.8
			c-1.9,0-3.6-0.3-5-0.8s-2.6-1.3-3.6-2.3s-1.6-2.2-2.1-3.5s-0.7-2.9-0.7-4.6v-2.5c0-3.5,1-6.2,2.9-8.1s4.7-3,8.5-3
			c1.9,0,3.6,0.3,5,0.8s2.6,1.3,3.6,2.2s1.6,2.1,2.1,3.5S76.5,37.4,76.5,39.1z M71.7,41.4v-2c0-1.3-0.1-2.4-0.4-3.3
			s-0.7-1.6-1.2-2.1s-1.2-0.9-2-1.1s-1.8-0.3-2.9-0.3c-1.2,0-2.2,0.1-3,0.3s-1.5,0.6-2,1.1s-1,1.2-1.2,2.1s-0.4,2-0.4,3.3v2
			c0,1.3,0.1,2.4,0.4,3.3s0.7,1.6,1.2,2.1s1.2,0.9,2,1.1s1.8,0.3,3,0.3c1.2,0,2.2-0.1,2.9-0.3s1.5-0.6,2-1.1s1-1.2,1.2-2.1
			S71.7,42.7,71.7,41.4z"/>
		<path class="st0" d="M99.5,41.3c0,2.1-0.2,3.8-0.5,5.2c-0.4,1.4-1,2.6-1.8,3.5c-0.8,0.9-1.9,1.6-3.2,2c-1.3,0.4-2.9,0.6-4.7,0.6
			c-2.5,0-4.5-0.4-5.9-1.1s-2.6-2-3.2-3.6s-1-3.9-1-6.7V29.5c0-0.9,0.5-1.4,1.4-1.4h2c0.9,0,1.4,0.5,1.4,1.4v11.8
			c0,2.5,0.4,4.3,1.3,5.4c0.8,1.1,2.2,1.6,4.1,1.6c1.9,0,3.3-0.5,4.2-1.6c0.9-1.1,1.3-2.9,1.3-5.4V29.5c0-0.9,0.5-1.4,1.4-1.4h2.1
			c0.9,0,1.3,0.5,1.3,1.4V41.3z M92.4,27.1h-1c-0.2,0-0.4,0-0.6-0.1s-0.4-0.2-0.7-0.3l-0.7-0.4l-0.8,0.5c-0.3,0.2-0.5,0.3-0.6,0.3
			s-0.4,0.1-0.7,0.1h-0.8c-0.3,0-0.4-0.1-0.5-0.2c-0.1-0.2,0-0.3,0.2-0.6l0.7-0.7c0.2-0.2,0.3-0.3,0.5-0.3c0.2,0,0.4-0.1,0.7-0.1
			h2.6c0.3,0,0.5,0,0.6,0.1s0.3,0.1,0.4,0.3l0.9,0.7c0.2,0.2,0.2,0.4,0.2,0.5C92.8,27.1,92.6,27.1,92.4,27.1z"/>
		<path class="st0" d="M109.3,32.9h-5.8c-0.9,0-1.3-0.5-1.3-1.4v-2c0-0.9,0.4-1.4,1.3-1.4h16.3c0.9,0,1.4,0.5,1.4,1.4v2
			c0,0.9-0.5,1.4-1.4,1.4h-5.8v18.3c0,0.9-0.4,1.4-1.3,1.4h-2.1c-0.9,0-1.4-0.5-1.4-1.4V32.9z"/>
		<path class="st8" d="M250.4,52.6h-18.7c-0.9,0-1.3-0.5-1.3-1.4v-2.3c0-0.6,0.2-1,0.7-1.3c1.9-1.1,3.4-1.9,4.7-2.6
			c1.2-0.7,2.4-1.4,3.6-2s2.1-1.2,2.7-1.6c0.7-0.4,1.3-0.8,1.9-1.2c0.6-0.4,1.1-0.7,1.3-1s0.5-0.6,0.8-0.8s0.4-0.5,0.4-0.8
			s0.1-0.5,0.1-0.7c0-0.2,0-0.5,0-0.9v-0.2c0-2.2-1.9-3.4-5.8-3.4c-3,0-4.9,1-5.7,2.9c-0.2,0.6-0.3,1-0.4,1.3
			c-0.1,0.4-0.2,0.8-0.4,0.9s-0.5,0.3-1,0.3h-2.1c-0.4,0-0.8-0.1-1-0.4s-0.3-0.6-0.3-1.1c0-0.5,0.1-1.1,0.3-1.8
			c0.5-2.1,1.7-3.7,3.5-4.8s4.2-1.7,7.2-1.7c3.6,0,6.2,0.6,8,1.9s2.6,3.1,2.6,5.4v0.3c0,0.6,0,1.1,0,1.4c0,0.3-0.1,0.8-0.3,1.2
			s-0.3,0.9-0.5,1.2s-0.6,0.7-1.1,1.2c-0.5,0.5-1.1,0.9-1.7,1.4s-1.4,1-2.5,1.6c-1.1,0.7-2.2,1.3-3.4,2s-2.7,1.5-4.5,2.5h12.7
			c0.9,0,1.4,0.5,1.4,1.4v1.7C251.8,52.1,251.4,52.6,250.4,52.6z"/>
		<path class="st8" d="M265.2,52.7c-2.4,0-4.4-0.4-6.1-1.1s-2.9-1.7-3.6-3c-0.5-0.8-0.8-1.8-1-3c-0.1-1,0.4-1.4,1.2-1.4h2.1
			c0.4,0,0.7,0.1,0.9,0.3s0.4,0.6,0.5,1.1c0.1,0.5,0.4,1,0.7,1.4c0.9,1,2.7,1.6,5.3,1.6c1.5,0,2.7-0.2,3.6-0.6s1.6-1.1,2-2.1
			s0.7-2.3,0.7-4v-4.6c0,0.9-0.2,1.7-0.5,2.5c-0.3,0.8-0.8,1.4-1.4,2s-1.4,1.1-2.5,1.4s-2.2,0.5-3.6,0.5c-3.3,0-5.8-0.6-7.3-1.9
			s-2.3-3.2-2.3-5.7V36c0-2.5,0.9-4.5,2.8-5.9c1.9-1.4,4.6-2.1,8-2.1c3.8,0,6.7,0.8,8.6,2.3s2.8,3.9,2.8,7.1v5.2
			c0,1.6-0.2,3-0.6,4.2s-1.1,2.3-2,3.2s-2.1,1.6-3.5,2.1S267.2,52.7,265.2,52.7z M265.3,40.1c2,0,3.6-0.3,4.7-1
			c1.1-0.7,1.7-1.5,1.7-2.7v-0.1c0-1.3-0.5-2.4-1.6-3c-1-0.7-2.7-1-4.8-1c-2.2,0-3.8,0.3-4.8,0.9c-1,0.6-1.4,1.5-1.4,2.8v0.1
			c0,1.4,0.5,2.4,1.6,3S263.2,40.1,265.3,40.1z"/>
	</g>
</g>
</svg>
